<svg xmlns="http://www.w3.org/2000/svg" xmlns:xlink="http://www.w3.org/1999/xlink" width="793.701" height="1122.52" viewBox="0 0 595.276 841.89" version="1.2"><defs><symbol overflow="visible" id="a"><path d="M2.969-4.531H.359v-.75h3.938L.969.187l-.64-.406zm0 0"/></symbol><symbol overflow="visible" id="b"><path d="M1.813-2.453v-.672c.332 0 .554-.04.671-.125.207-.121.313-.332.313-.625a.775.775 0 0 0-.219-.563A.834.834 0 0 0 2-4.64c-.219 0-.395.055-.516.157-.117.105-.199.289-.25.546H.438c.082-.488.25-.847.5-1.078.257-.238.617-.359 1.078-.359.457 0 .832.145 1.125.422.289.273.437.621.437 1.047 0 .48-.195.855-.578 1.125.434.261.656.68.656 1.25 0 .48-.164.87-.484 1.172-.313.293-.723.437-1.219.437C1.316.078.848-.148.547-.609.41-.805.324-1.08.297-1.422h.766c.039.25.14.445.296.578.164.137.375.203.625.203a.868.868 0 0 0 .641-.25.946.946 0 0 0 .25-.671c0-.352-.129-.61-.375-.766-.148-.082-.379-.125-.688-.125zm0 0"/></symbol><symbol overflow="visible" id="c"><path d="M1.797-4h1.14v-.188H.422V-4h1.187v.688c0 1.124-.53 2-1.265 2.374l.14.157c.594-.328 1.047-.953 1.22-1.813.187.75.624 1.328 1.171 1.64l.14-.155c-.703-.36-1.218-1.204-1.218-2.204zm2.797-.89v2.234h-.969V-4.75h-.203V.11h.203v-2.563h.969v2.86h.203v-5.298zm0 0"/></symbol><symbol overflow="visible" id="d"><path d="M3.484-2.438c-.78.157-1.437.188-2.453.188H.844v-1.969h2.11v-.187H.64v2.343h.39c1.032 0 1.688-.046 2.5-.203zM1.422-1.421h-.203V.266h3.468V.078H1.422zm2.984-1.766v-1.718h-.203v3.843h.203v-1.953h.875v-.171zm0 0"/></symbol><symbol overflow="visible" id="e"><path d="M4.422.14h-2.86v-.859h2.86zm0-1.046h-2.86v-.813h-.187V.313h3.25V-1.72h-.203zM2.734-2.437H.86v-1.047h1.875zm1.704-2.454V-3.5H2.921v-1.11h-.188v.954H.86v-.953H.656v2.359h2.266v-1.063h1.515v1.297h.188V-4.89zm0 0"/></symbol><symbol overflow="visible" id="f"><path d="M4.625-4.89h-.188v3.937h.188zM.703-3.235c0-.594.485-1.079 1.14-1.079.641 0 1.126.485 1.126 1.079 0 .609-.485 1.093-1.125 1.093-.657 0-1.14-.484-1.14-1.093zm2.453 0c0-.735-.547-1.266-1.312-1.266-.782 0-1.328.531-1.328 1.266 0 .75.546 1.265 1.328 1.265.765 0 1.312-.515 1.312-1.265zM1.546.078v-1.453H1.36v1.64h3.47V.079zm0 0"/></symbol><symbol overflow="visible" id="h"><path d="M.703-4.328V-1h2.313v-3.328zm2.125.172v2.984H.891v-2.984zm1.594-.735V.406h.203V-4.89zm0 0"/></symbol><symbol overflow="visible" id="i"><path d="M.75-1.14v-1.454H2.5v-1.672H.547v.188h1.765v1.297H.563V-.97h.329c.671 0 1.28-.031 2.078-.172l-.016-.171c-.781.14-1.406.171-2.062.171zm3.844-3.75v2.171H3.578V-4.75h-.203V.11h.203v-2.641h1.016V.406h.203V-4.89zm0 0"/></symbol><symbol overflow="visible" id="j"><path d="M2.094-4.469c-.828 0-1.39.469-1.39 1.188 0 .703.562 1.187 1.39 1.187.812 0 1.375-.484 1.375-1.187 0-.719-.563-1.188-1.375-1.188zm0 .172c.687 0 1.172.438 1.172 1.016 0 .562-.485 1-1.172 1-.703 0-1.188-.438-1.188-1 0-.578.485-1.016 1.188-1.016zm2.265-.594V.406h.204V-4.89zM.438-.844c.968 0 2.312 0 3.546-.234l-.03-.156c-1.188.203-2.563.203-3.563.203zm0 0"/></symbol><symbol overflow="visible" id="k"><path d="M3.516-4.234h-1.47v-.688H1.86v.688H.391v.171h3.125zm-2.61 1.5c0-.454.406-.766 1.047-.766.625 0 1.047.313 1.047.766 0 .437-.422.75-1.047.75-.64 0-1.047-.313-1.047-.75zm2.281 0c0-.579-.5-.938-1.234-.938-.75 0-1.234.36-1.234.938 0 .562.484.921 1.234.921.734 0 1.234-.359 1.234-.921zM1.063-1.063h3.14v1.47h.203v-1.641H1.063zm4.203-2.28h-.86v-1.548h-.203v3.297h.203v-1.562h.86zm0 0"/></symbol><symbol overflow="visible" id="l"><path d="M.64-3.25c0-.61.485-1.094 1.141-1.094.657 0 1.14.485 1.14 1.094 0 .61-.483 1.11-1.14 1.11-.656 0-1.14-.5-1.14-1.11zm3.797-.547v1.078H3a1.2 1.2 0 0 0 .11-.531A1.55 1.55 0 0 0 3-3.797zm0 1.25v1.61h.188v-3.954h-.188v.922H2.891c-.22-.344-.625-.562-1.11-.562-.765 0-1.328.515-1.328 1.281 0 .766.563 1.281 1.328 1.281.5 0 .907-.218 1.125-.578zM1.563.078v-1.437h-.187V.266h3.438V.078zm0 0"/></symbol><symbol overflow="visible" id="m"><path d="M5.14-2.219h-.874c.171-.781.171-1.344.171-1.844v-.453H1.017v.188h3.218v.266c0 .5 0 1.062-.171 1.843H.358v.172h2.297V.406h.188v-2.453H5.14zm0 0"/></symbol><symbol overflow="visible" id="o"><path d="M.719-1.953c.625-.219 1.187-.688 1.406-1.313.234.594.781 1.032 1.422 1.25l.14-.25c-.75-.234-1.406-.843-1.406-1.609v-.031H3.61v-.266H2.281v-.703H1.97v.703H.672v.266h1.297v.031c0 .797-.657 1.422-1.407 1.672zm1.562-.188H1.97v1.094C1.39-1.03.844-1.03.375-1.03l.047.281c.969 0 2.297 0 3.515-.219l-.015-.25c-.531.094-1.094.125-1.64.157zm2.016-2.765V.422h.312v-5.328zm0 0"/></symbol><symbol overflow="visible" id="p"><path d="M4.672-4.906h-.313v3.922h.313zM3.516-2.141c-.75-.296-1.391-1.046-1.391-1.921v-.547h-.313v.546c0 .907-.625 1.704-1.375 2.016l.188.266c.61-.282 1.14-.86 1.344-1.578a2.462 2.462 0 0 0 1.375 1.468zM1.64.016v-1.36h-.313V.281H4.86V.016zm0 0"/></symbol><symbol overflow="visible" id="q"><path d="M2.75.156c-.906 0-1.5-.265-1.5-.703 0-.422.594-.687 1.5-.687s1.484.265 1.484.687c0 .438-.578.703-1.484.703zm0-1.64c-1.125 0-1.813.343-1.813.937 0 .625.688.953 1.813.953S4.563.078 4.563-.547c0-.594-.688-.937-1.813-.937zm.14-.735v-.703h1.688v-.281H1.266v-1.188h3.28v-.265H.954v1.734h1.64v.703H.344v.281h4.813v-.28zm0 0"/></symbol><symbol overflow="visible" id="r"><path d="M3.516-4.25H2.094v-.719H1.78v.719H.36v.266h3.157zM.984-2.734c0-.391.391-.672.954-.672.578 0 .953.281.953.672 0 .406-.375.687-.954.687-.562 0-.953-.281-.953-.687zm2.204 0c0-.579-.5-.922-1.25-.922-.766 0-1.266.344-1.266.922 0 .578.5.937 1.265.937.75 0 1.25-.36 1.25-.937zM2.796.14c-.844 0-1.39-.235-1.39-.641s.546-.64 1.39-.64c.844 0 1.39.234 1.39.64s-.546.64-1.39.64zm0-1.547c-1.063 0-1.703.328-1.703.906 0 .578.64.906 1.703.906C3.859.406 4.5.078 4.5-.5c0-.578-.64-.906-1.703-.906zM5.28-3.625v-.266h-.828v-1.015h-.328v3.453h.328V-2.5h.828v-.266h-.828v-.859zm0 0"/></symbol><symbol overflow="visible" id="s"><path d="M1.266-3.203H4.25v1.11H1.266zm1.64 2.64v-1.25h1.656v-2.703H4.25v1.032H1.266v-1.032H.937v2.704h1.657v1.25H.344v.265h4.828v-.266zm0 0"/></symbol><symbol overflow="visible" id="t"><path d="M4.188-3.781c0 .64 0 1.36-.188 2.36l.328.046c.188-1.047.188-1.766.188-2.406v-.531H.859v.25h3.329zM2.625-.671V-2.61h-.313v1.937H.345v.281h4.812v-.28zm0 0"/></symbol><symbol overflow="visible" id="u"><path d="M2.125-4.422h-.328v1.063c0 .984-.719 1.984-1.422 2.375l.203.25c.578-.344 1.156-1.079 1.39-1.907.22.797.813 1.485 1.407 1.813l.188-.266c-.704-.36-1.438-1.312-1.438-2.265zm2.234-.484v1.89H2.984v.266H4.36V.422h.329v-5.328zm0 0"/></symbol><symbol overflow="visible" id="v"><path d="M1.453 0h.406l1.422-4.375h-.375l-.781 2.516c-.156.53-.281.937-.453 1.468H1.64c-.172-.53-.282-.937-.454-1.468l-.78-2.516H.03zm0 0"/></symbol><symbol overflow="visible" id="w"><path d="M1.781.078c.782 0 1.453-.61 1.453-1.672 0-1.062-.671-1.687-1.453-1.687-.765 0-1.437.625-1.437 1.687C.344-.53 1.016.078 1.78.078zm0-.297C1.156-.219.703-.78.703-1.594c0-.812.453-1.375 1.078-1.375s1.094.563 1.094 1.375c0 .813-.469 1.375-1.094 1.375zm0 0"/></symbol><symbol overflow="visible" id="x"><path d="M1.031.078c.11 0 .172-.015.235-.031l-.063-.281c-.062.015-.094.015-.11.015-.077 0-.14-.062-.14-.218v-4.329h-.36v4.297c0 .36.141.547.438.547zm0 0"/></symbol><symbol overflow="visible" id="y"><path d="M.75-.156c.156 0 .313-.11.313-.313A.317.317 0 0 0 .75-.797a.317.317 0 0 0-.313.328c0 .203.157.313.313.313zm0 0"/></symbol><symbol overflow="visible" id="z"><path d="M.547 0h2.265v-.313h-.921v-4.062h-.282c-.203.125-.468.219-.828.281v.235h.766v3.546h-1zm0 0"/></symbol><symbol overflow="visible" id="A"><path d="M3.797-4.328H2v-1.203h1.797zM5.109-7.75H3.797v1.203H2V-7.75H.703v4.469H5.11zM1.531-1.375h4.813v2.25h1.328v-3.297h-6.14zm7.36-4.719H7.67v-2.25H6.345v5.516h1.328v-2.188H8.89zm0 0"/></symbol><symbol overflow="visible" id="B"><path d="M8.75-3.89H7.422c.266-1.5.266-2.563.266-3.344v-.594H1.405v1.062h4.969c0 .72-.047 1.657-.281 2.875H.437v1.079h1.86V.874h1.312v-3.688h1.875V.876h1.313v-3.688H8.75zm0 0"/></symbol><symbol overflow="visible" id="C"><path d="M8.063-8.344H6.734v6.656h1.329zM6.155-3.828C4.672-4.328 4-5.453 4-6.531v-.11h1.828v-1.03H.812v1.03h1.86v.11c0 1.156-.672 2.36-2.203 2.843l.672 1.016c1.062-.344 1.812-1.047 2.218-1.953.422.828 1.11 1.484 2.125 1.797zM3.266-.344V-2.28H1.953V.703h6.344V-.344zm0 0"/></symbol><symbol overflow="visible" id="E"><path d="M7.047-8.219V.766h.812V-8.22zM3.14-7.53C1.812-7.531.859-6.313.859-4.406c0 1.906.954 3.125 2.282 3.125S5.406-2.5 5.406-4.406c0-1.907-.937-3.125-2.265-3.125zm0 .734c.859 0 1.484.953 1.484 2.39C4.625-2.952 4-2 3.141-2c-.891 0-1.5-.953-1.5-2.406 0-1.438.609-2.39 1.5-2.39zm0 0"/></symbol><symbol overflow="visible" id="F"><path d="M3.531-7.438H2.72v1.61c0 1.625-1.016 3.344-2.297 4l.484.656C1.922-1.703 2.75-2.828 3.141-4.14c.406 1.235 1.218 2.282 2.156 2.797L5.813-2C4.546-2.625 3.53-4.25 3.53-5.828zm5.36 2.86H7.42v-3.625h-.827V.734h.828v-4.64H8.89zm0 0"/></symbol><symbol overflow="visible" id="G"><path d="M1.281-4.594c1.469-.172 2.797-.812 3.297-1.797.5.985 1.844 1.625 3.313 1.797l.296-.64c-1.562-.172-3-.922-3.078-1.922h2.782v-.657H1.28v.657h2.766c-.063 1-1.484 1.75-3.063 1.922zM4.578.094c-1.422 0-2.234-.328-2.234-.906 0-.579.812-.922 2.234-.922 1.406 0 2.234.343 2.234.921 0 .579-.828.907-2.234.907zm0-2.453C2.656-2.36 1.5-1.813 1.5-.813S2.656.734 4.578.734c1.906 0 3.063-.546 3.063-1.546S6.484-2.36 4.578-2.36zm.406-1.391v-1.297h-.828v1.297H.531v.656h8.094v-.656zm0 0"/></symbol><symbol overflow="visible" id="H"><path d="M2.406-2.422h-.812V.531h6.281V-.14H2.406zm4.969-1.672c.234-1.218.234-2.125.234-2.89v-.704H1.563v.672h5.234v.032c0 .78 0 1.656-.25 2.89H.516v.657h8.14v-.657zm0 0"/></symbol><symbol overflow="visible" id="I"><path d="M5.719-4.578c-1.172.25-2.203.312-3.985.312v-2.609h3.141v-.656H.922v3.922h.703c1.89 0 2.953-.063 4.188-.297zM4.625.062c-1.313 0-2.14-.39-2.14-1.046 0-.657.828-1.063 2.14-1.063 1.328 0 2.14.406 2.14 1.063 0 .656-.812 1.046-2.14 1.046zm0-2.765c-1.813 0-2.953.64-2.953 1.719C1.672.094 2.812.734 4.625.734S7.578.094 7.578-.984c0-1.079-1.14-1.72-2.953-1.72zm2.86-3.188v-2.328h-.829v5.328h.828v-2.328h1.329v-.672zm0 0"/></symbol><symbol overflow="visible" id="J"><path d="M.719 0v-6.422H4.5v1.156H2.094v1.329H4.5v1.156H2.094v1.61H4.5V0zm0 0"/></symbol><symbol overflow="visible" id="K"><path d="M3.781-2.156c0-.383-.101-.688-.297-.906-.187-.227-.449-.344-.78-.344-.345 0-.618.113-.813.328-.188.219-.282.523-.282.906 0 .399.094.707.282.922.195.219.46.328.796.328.352 0 .626-.11.813-.328.184-.215.281-.52.281-.906zM4.921 0H3.72l.015-.625c-.18.281-.386.488-.625.61a1.84 1.84 0 0 1-.859.187c-.574 0-1.04-.207-1.39-.625C.515-.88.343-1.441.343-2.141c0-.726.172-1.296.515-1.703.34-.402.82-.61 1.438-.61.308 0 .582.075.812.22.239.136.461.363.672.671a6.59 6.59 0 0 1-.047-.78v-2.454h1.188zm0 0"/></symbol><symbol overflow="visible" id="L"><path d="M1.828-4.297v2.25c0 .387.07.664.219.828.152.157.398.235.734.235.32 0 .555-.079.703-.235.153-.164.235-.441.235-.828v-2.25h1.25v2.25c0 .762-.18 1.324-.532 1.688-.355.355-.902.53-1.64.53-.762 0-1.32-.175-1.672-.53C.77-.723.594-1.285.594-2.047v-2.25zm0 0"/></symbol><symbol overflow="visible" id="M"><path d="M3.781-.125a1.738 1.738 0 0 1-.531.219c-.188.05-.398.078-.625.078-.68 0-1.23-.211-1.656-.64-.43-.434-.64-1-.64-1.688 0-.676.21-1.227.64-1.656.433-.426 1-.641 1.687-.641.215 0 .414.027.594.078.184.043.363.113.531.203l-.015 1.25a1.325 1.325 0 0 0-.454-.312 1.409 1.409 0 0 0-.546-.11c-.356 0-.637.114-.844.328-.211.211-.313.493-.313.844 0 .367.102.66.313.875.215.211.508.313.875.313.207 0 .39-.036.547-.11a1.19 1.19 0 0 0 .422-.343zm0 0"/></symbol><symbol overflow="visible" id="N"><path d="M3.781-2.156c0-.383-.101-.688-.297-.906-.187-.227-.449-.344-.78-.344-.345 0-.618.117-.813.344-.188.218-.282.523-.282.906 0 .386.094.691.282.906.195.219.46.328.796.328.352 0 .626-.11.813-.328.184-.215.281-.52.281-.906zM4.921 0H3.72l.015-.625c-.18.281-.386.488-.625.61a1.84 1.84 0 0 1-.859.187c-.574 0-1.04-.207-1.39-.625C.515-.88.343-1.441.343-2.141c0-.726.172-1.296.515-1.703.34-.402.82-.61 1.438-.61.308 0 .586.075.828.22.238.148.441.363.61.64v-.703h1.187zm0 0"/></symbol><symbol overflow="visible" id="O"><path d="M.766 0v-3.328h-.61v-.969h.61v-1.437h1.25v1.437h.593v.969h-.593V0zm0 0"/></symbol><symbol overflow="visible" id="P"><path d="M.547-6.078c0-.195.07-.363.219-.5a.72.72 0 0 1 1.031 0 .666.666 0 0 1 .219.5.722.722 0 0 1-.735.734c-.199 0-.37-.07-.515-.218a.691.691 0 0 1-.22-.516zM.657 0v-4.297h1.25V0zm0 0"/></symbol><symbol overflow="visible" id="Q"><path d="M3.86-2.14c0-.352-.106-.633-.313-.844-.2-.207-.473-.313-.813-.313-.343 0-.62.106-.828.313-.199.21-.297.492-.297.843 0 .344.098.63.297.844.207.211.485.313.828.313.34 0 .614-.102.813-.313.207-.215.312-.5.312-.844zm1.28 0c0 .667-.23 1.222-.687 1.656-.45.437-1.023.656-1.719.656C2.035.172 1.457-.047 1-.484.55-.918.328-1.473.328-2.141c0-.652.227-1.203.688-1.64.457-.446 1.03-.672 1.718-.672.696 0 1.27.223 1.72.656.456.438.687.992.687 1.656zm0 0"/></symbol><symbol overflow="visible" id="R"><path d="M.61 0v-4.297h1.218v.672c.227-.277.473-.488.734-.625.258-.133.547-.203.86-.203a1.9 1.9 0 0 1 .844.172c.226.117.406.289.53.515.06.125.11.27.141.422.028.149.047.38.047.688V0h-1.25v-2.125c0-.527-.066-.879-.187-1.047-.125-.176-.34-.265-.64-.265-.169 0-.325.039-.47.109a.93.93 0 0 0-.359.312 1.223 1.223 0 0 0-.172.36 2.7 2.7 0 0 0-.047.594V0zm0 0"/></symbol><symbol overflow="visible" id="S"><path d="M2.094-3.516h.203c.371 0 .644-.078.812-.234.176-.152.266-.406.266-.75 0-.309-.09-.54-.266-.688-.168-.144-.441-.218-.812-.218h-.203zM.719 0v-6.422h1.578c.84 0 1.46.164 1.86.484.402.325.609.82.609 1.485 0 .625-.207 1.117-.61 1.469-.406.355-.965.53-1.672.53h-.39V0zm0 0"/></symbol><symbol overflow="visible" id="T"><path d="M.188-.75l.968-.5a.617.617 0 0 0 .25.406c.145.094.32.14.532.14.195 0 .351-.034.468-.109.121-.082.188-.187.188-.312 0-.207-.211-.383-.625-.531a2.457 2.457 0 0 1-.313-.11c-.5-.183-.851-.375-1.047-.562a.97.97 0 0 1-.296-.719c0-.426.164-.77.5-1.031.332-.258.769-.39 1.312-.39.383 0 .719.081 1 .234.277.156.484.379.61.656l-.907.453a.734.734 0 0 0-.265-.36.847.847 0 0 0-.47-.124.726.726 0 0 0-.437.125c-.117.074-.172.168-.172.28 0 .22.282.427.844.61.07.012.125.028.156.047.465.149.801.324 1 .531.207.211.313.477.313.797 0 .43-.168.77-.5 1.016-.336.246-.785.375-1.344.375-.437 0-.82-.086-1.14-.25C.5-.242.288-.468.188-.75zm0 0"/></symbol><symbol overflow="visible" id="aB"><path d="M1.75-2.156c0 .386.094.691.281.906.196.219.469.328.813.328.34 0 .61-.11.797-.328.183-.215.28-.52.28-.906 0-.383-.1-.688-.296-.906-.188-.227-.457-.344-.797-.344-.336 0-.601.117-.797.344-.187.218-.281.523-.281.906zM.61 0v-6.797h1.203v2.453c0 .137-.008.274-.016.407a5.782 5.782 0 0 1-.047.374c.207-.3.43-.523.672-.671.238-.145.508-.22.812-.22.614 0 1.094.208 1.438.61.34.406.516.977.516 1.703 0 .7-.176 1.262-.516 1.688-.344.418-.805.625-1.375.625-.344 0-.637-.067-.875-.188-.23-.12-.434-.328-.61-.609L1.829 0zm0 0"/></symbol><symbol overflow="visible" id="aC"><path d="M.656 0v-6.797h1.25V0zm0 0"/></symbol><symbol overflow="visible" id="aE"><path d="M.75-3.5c0-.207.07-.379.219-.516a.745.745 0 0 1 .547-.218c.207 0 .379.074.515.218a.682.682 0 0 1 .219.516.77.77 0 0 1-.219.547.668.668 0 0 1-.515.219.755.755 0 0 1-.547-.22A.755.755 0 0 1 .75-3.5zm0 2.875a.72.72 0 0 1 .219-.531.745.745 0 0 1 .547-.219c.207 0 .379.074.515.219a.735.735 0 0 1 .219.531c0 .21-.074.387-.219.531a.682.682 0 0 1-.515.219.77.77 0 0 1-.547-.219.707.707 0 0 1-.219-.531zm0 0"/></symbol><symbol overflow="visible" id="aF"><path d="M2.75-6.438a8.915 8.915 0 0 0-.703 1.97 9.935 9.935 0 0 0-.219 2.155c0 .836.07 1.586.219 2.25.144.665.379 1.297.703 1.891l-.984.234A8.81 8.81 0 0 1 .984 0 9.22 9.22 0 0 1 .72-2.25c0-.863.082-1.656.25-2.375a8.142 8.142 0 0 1 .797-2.031zm0 0"/></symbol><symbol overflow="visible" id="aG"><path d="M5.36 0H3.78L2.094-3v3H.719v-6.422h1.969c.777 0 1.363.152 1.75.453.382.305.578.758.578 1.36 0 .449-.137.832-.407 1.14a1.522 1.522 0 0 1-1.015.547zM2.093-3.688h.203c.55 0 .914-.054 1.094-.171.183-.121.28-.336.28-.641 0-.309-.1-.535-.296-.672-.188-.133-.55-.203-1.078-.203h-.203zm0 0"/></symbol><symbol overflow="visible" id="aH"><path d="M3.578-2.594c-.043-.27-.148-.472-.312-.61-.157-.144-.38-.218-.657-.218-.28 0-.507.074-.671.219-.168.137-.274.34-.313.61zm1.235.75H1.578c.05.313.164.551.344.703.176.149.41.22.703.22.227 0 .426-.04.594-.126.164-.09.304-.226.422-.406l1 .516c-.23.375-.512.66-.844.843-.336.176-.73.266-1.188.266-.699 0-1.254-.207-1.656-.625-.406-.414-.61-.973-.61-1.672 0-.676.212-1.234.641-1.672.426-.433.97-.656 1.625-.656.684 0 1.227.21 1.625.625.395.406.594.96.594 1.656v.14c0 .044-.008.106-.016.188zm0 0"/></symbol><symbol overflow="visible" id="aI"><path d="M.688-1.39c.3.199.554.335.765.406.215.074.457.109.719.109.414 0 .742-.102.984-.313.246-.207.375-.492.375-.859 0-.363-.12-.644-.36-.844-.23-.207-.57-.312-1.015-.312a2.4 2.4 0 0 0-.656.094c-.2.062-.383.16-.547.28l-.297-.187.797-3.343h3.313v1.078h-2.47l-.312 1.297a2.893 2.893 0 0 1 .844-.125c.602 0 1.094.195 1.469.578.383.375.578.863.578 1.453 0 .687-.238 1.238-.703 1.64-.469.407-1.113.61-1.922.61a3.73 3.73 0 0 1-.984-.125 2.89 2.89 0 0 1-.86-.39zm0 0"/></symbol><symbol overflow="visible" id="aJ"><path d="M2.047 0v-2.938L-.141-6.421h1.61l.953 1.766c.05.086.098.195.14.328.051.137.102.293.157.469a2.81 2.81 0 0 1 .14-.422c.051-.133.11-.266.172-.39l.953-1.75h1.594L3.406-2.938V0zm0 0"/></symbol><symbol overflow="visible" id="aK"><path d="M1.813-3.203c.12-.414.304-.727.546-.938.239-.207.532-.312.875-.312.082 0 .211.02.391.047a.199.199 0 0 0 .078.015l-.187 1.344a1.126 1.126 0 0 0-.282-.078 1.471 1.471 0 0 0-.296-.031c-.387 0-.665.101-.829.297-.168.187-.25.511-.25.968V0H.61v-4.297h1.235zm0 0"/></symbol><symbol overflow="visible" id="aL"><path d="M.266-6.438l1-.218c.34.625.597 1.308.765 2.047.176.73.266 1.52.266 2.359a9.415 9.415 0 0 1-1.031 4.313l-1-.235C.586 1.234.82.602.969-.062c.144-.665.219-1.415.219-2.25 0-.77-.083-1.489-.235-2.157a8.865 8.865 0 0 0-.687-1.968zm0 0"/></symbol><symbol overflow="visible" id="U"><path d="M.734 0h3v-.406H2.516v-5.422H2.14c-.266.172-.625.297-1.11.375v.312h1.016v4.735H.734zm0 0"/></symbol><symbol overflow="visible" id="V"><path d="M2-2.61c-.813 0-1.172-.609-1.172-1.453 0-.843.469-1.484 1.11-1.484.906 0 1.375.813 1.421 2.078-.437.61-.937.86-1.359.86zM.484-.452c.313.328.72.562 1.282.562 1.062 0 2.046-.89 2.046-3.328 0-1.765-.75-2.703-1.874-2.703-.844 0-1.563.766-1.563 1.86 0 1.187.594 1.828 1.563 1.828.546 0 1.046-.313 1.421-.782C3.313-1 2.594-.296 1.781-.296c-.406 0-.75-.157-1.015-.47zm0 0"/></symbol><symbol overflow="visible" id="X"><path d="M2.016.11c.937 0 1.828-.72 1.828-1.985 0-1.281-.766-1.86-1.735-1.86-.39 0-.687.11-.968.282l.171-1.953h2.235v-.422H.89L.687-3.156 1-2.984c.328-.22.61-.36 1.031-.36.813 0 1.328.563 1.328 1.485C3.36-.906 2.734-.297 2-.297 1.25-.297.812-.625.484-.984L.22-.656c.375.375.906.765 1.797.765zm0 0"/></symbol><symbol overflow="visible" id="Y"><path d="M.36 0h3.5v-.422H2.046c-.297 0-.64.031-.953.047C2.64-1.813 3.578-3.031 3.578-4.25c0-1.016-.594-1.672-1.61-1.672-.702 0-1.187.344-1.64.828l.297.282c.344-.407.797-.72 1.297-.72.828 0 1.187.563 1.187 1.298 0 1.046-.78 2.25-2.75 3.953zm0 0"/></symbol><symbol overflow="visible" id="Z"><path d="M2.14.11c1.047 0 1.704-1 1.704-3.047 0-2.016-.656-2.985-1.703-2.985-1.063 0-1.72.969-1.72 2.984C.422-.89 1.079.11 2.142.11zm0-.391c-.765 0-1.25-.89-1.25-2.656 0-1.72.485-2.594 1.25-2.594.75 0 1.25.875 1.25 2.593 0 1.766-.5 2.657-1.25 2.657zm0 0"/></symbol><symbol overflow="visible" id="aa"><path d="M.844 0h1.734C3.875 0 4.75-.578 4.75-1.703c0-.797-.5-1.266-1.25-1.39v-.048c.578-.171.89-.671.89-1.265 0-.985-.765-1.422-1.937-1.422H.843zm.484-3.281v-2.14h1.016c1.031 0 1.562.28 1.562 1.077 0 .657-.453 1.063-1.61 1.063zm0 2.875v-2.485h1.125c1.156 0 1.813.375 1.813 1.188 0 .906-.688 1.297-1.813 1.297zm0 0"/></symbol><symbol overflow="visible" id="ab"><path d="M1-.203a.407.407 0 0 0 .406-.422c0-.281-.203-.438-.406-.438-.219 0-.406.157-.406.438 0 .266.187.422.406.422zm0 0"/></symbol><symbol overflow="visible" id="ac"><path d="M2.39.11c1.141 0 1.876-.688 1.876-1.594 0-.875-.547-1.25-1.22-1.547l-.858-.375c-.438-.188-1-.438-1-1.094 0-.61.5-1 1.234-1 .578 0 1.031.234 1.375.594l.281-.313a2.236 2.236 0 0 0-1.656-.703c-.985 0-1.719.594-1.719 1.453 0 .86.656 1.235 1.188 1.453l.859.391c.578.25 1.031.484 1.031 1.188 0 .656-.531 1.109-1.39 1.109A2.219 2.219 0 0 1 .703-1.11l-.297.343C.875-.25 1.546.11 2.391.11zm0 0"/></symbol><symbol overflow="visible" id="ad"><path d="M.797 0h.469v-4.25h-.47zm.234-5.25c.219 0 .39-.156.39-.375 0-.234-.171-.375-.39-.375-.203 0-.39.14-.39.375 0 .219.187.375.39.375zm0 0"/></symbol><symbol overflow="visible" id="ae"><path d="M.797 0h.469v-3.188c.484-.515.843-.765 1.343-.765.641 0 .922.406.922 1.297V0H4v-2.719c0-1.094-.406-1.656-1.297-1.656-.578 0-1.015.344-1.453.766h-.016l-.046-.641H.796zm0 0"/></symbol><symbol overflow="visible" id="af"><path d="M2.375.11c1.031 0 1.922-.813 1.922-2.235s-.89-2.25-1.922-2.25c-1.031 0-1.922.828-1.922 2.25 0 1.422.89 2.234 1.922 2.234zm0-.407C1.547-.297.937-1.03.937-2.125c0-1.078.61-1.828 1.438-1.828s1.438.75 1.438 1.828c0 1.094-.61 1.828-1.438 1.828zm0 0"/></symbol><symbol overflow="visible" id="ag"><path d="M1.36.11c.156 0 .234-.032.312-.048l-.063-.374c-.093.015-.125.015-.156.015-.11 0-.187-.094-.187-.281v-5.766h-.47v5.719c0 .484.188.734.563.734zm0 0"/></symbol><symbol overflow="visible" id="ah"><path d="M2.203 2.031c1.235 0 2.031-.703 2.031-1.453 0-.672-.453-.984-1.421-.984h-.891c-.61 0-.797-.219-.797-.531 0-.266.156-.438.344-.594.187.125.453.187.672.187.843 0 1.515-.625 1.515-1.5 0-.437-.187-.812-.453-1.031h.969v-.375H2.719a1.443 1.443 0 0 0-.578-.125c-.829 0-1.516.625-1.516 1.516 0 .515.266.937.547 1.156v.031c-.203.14-.484.422-.484.797a.77.77 0 0 0 .39.688v.03C.688.11.438.485.438.86c0 .72.703 1.172 1.765 1.172zm-.062-3.734c-.563 0-1.063-.453-1.063-1.156C1.078-3.563 1.562-4 2.141-4c.578 0 1.062.438 1.062 1.14 0 .704-.5 1.157-1.062 1.157zm.109 3.375c-.875 0-1.375-.344-1.375-.86 0-.296.156-.609.531-.859.219.047.438.078.532.078h.875c.624 0 .968.157.968.61 0 .515-.61 1.03-1.531 1.03zm0 0"/></symbol><symbol overflow="visible" id="ai"><path d="M.672 1.922c.797 0 1.219-.688 1.469-1.422l1.671-4.75h-.468l-.875 2.594c-.125.375-.25.812-.39 1.203h-.032c-.156-.39-.313-.828-.453-1.203L.609-4.25h-.5L1.844.063l-.11.359C1.531 1.032 1.188 1.5.672 1.5c-.125 0-.25-.031-.344-.063l-.11.391c.126.063.298.094.454.094zm0 0"/></symbol><symbol overflow="visible" id="aj"><path d="M.563 1.11c.562-.298.953-.829.953-1.516 0-.406-.172-.656-.485-.656-.218 0-.406.125-.406.39 0 .25.188.406.406.406.032 0 .063 0 .094-.015 0 .5-.281.86-.703 1.078zm0 0"/></symbol><symbol overflow="visible" id="ak"><path d="M.844 0h1.39c1.782 0 2.657-1.156 2.657-2.938 0-1.765-.875-2.89-2.672-2.89H.844zm.484-.406v-5.016h.844c1.531 0 2.219.984 2.219 2.484 0 1.516-.688 2.532-2.22 2.532zm0 0"/></symbol><symbol overflow="visible" id="al"><path d="M1.734.11c.547 0 1.063-.297 1.485-.657h.015L3.297 0h.39v-2.703c0-.938-.359-1.672-1.374-1.672-.704 0-1.297.344-1.626.563l.22.343c.296-.234.78-.484 1.343-.484.797 0 .984.64.969 1.281C1.344-2.453.5-2.016.5-1.062c0 .78.547 1.171 1.234 1.171zm.11-.391c-.485 0-.875-.235-.875-.813 0-.656.578-1.047 2.25-1.234v1.375c-.5.437-.906.672-1.375.672zm0 0"/></symbol><symbol overflow="visible" id="am"><path d="M2.422.11c.625 0 1.015-.204 1.36-.422l-.173-.344a1.916 1.916 0 0 1-1.14.375c-.906 0-1.531-.735-1.547-1.766h3.015c.016-.11.016-.219.016-.344 0-1.25-.61-1.984-1.64-1.984-.97 0-1.86.875-1.86 2.25 0 1.39.875 2.234 1.969 2.234zm-1.5-2.532C1-3.39 1.625-3.969 2.328-3.969c.735 0 1.203.516 1.203 1.547zm0 0"/></symbol><symbol overflow="visible" id="an"><path d="M2.016.11c.593 0 1.03-.329 1.437-.813h.031L3.516 0h.39v-4.25h-.453v3.11c-.484.577-.828.827-1.328.827-.656 0-.922-.406-.922-1.28V-4.25H.734v2.719c0 1.093.407 1.64 1.282 1.64zm0 0"/></symbol><symbol overflow="visible" id="ao"><path d="M2.813.11c1.046 0 2-.547 2-2.391v-3.547h-.47v3.531c0 1.516-.702 1.969-1.53 1.969-.813 0-1.516-.453-1.516-1.969v-3.531H.828v3.547c0 1.844.938 2.39 1.985 2.39zm0 0"/></symbol><symbol overflow="visible" id="ap"><path d="M1.688 0h.546l1.563-4.25h-.469l-.922 2.61c-.14.406-.297.843-.422 1.218h-.03A13.953 13.953 0 0 1 1.53-1.64L.61-4.25h-.5zm0 0"/></symbol><symbol overflow="visible" id="aq"><path d="M.797 0h.469v-2.86c.312-.796.765-1.062 1.14-1.062.172 0 .25.016.39.063l.095-.407a.828.828 0 0 0-.438-.109c-.484 0-.906.375-1.203.906h-.016l-.046-.781H.796zm0 0"/></symbol><symbol overflow="visible" id="ar"><path d="M1.844.11c.937 0 1.468-.563 1.468-1.22 0-.827-.718-1.046-1.374-1.296-.5-.188-1-.36-1-.828 0-.391.296-.735.921-.735.422 0 .735.156 1.016.375l.234-.312a1.968 1.968 0 0 0-1.234-.469c-.89 0-1.39.531-1.39 1.156 0 .735.703 1 1.328 1.219.5.172 1.03.406 1.03.922 0 .437-.327.797-.968.797C1.281-.281.891-.5.531-.812l-.25.328c.375.328.938.593 1.563.593zm0 0"/></symbol><symbol overflow="visible" id="as"><path d="M2 .11c.188 0 .453-.079.703-.172l-.11-.36a1.25 1.25 0 0 1-.515.125c-.562 0-.719-.344-.719-.89V-3.86h1.235v-.391H1.359v-1.234H.97L.922-4.25l-.688.031v.36h.672v2.64C.906-.422 1.156.11 2 .11zm0 0"/></symbol><symbol overflow="visible" id="at"><path d="M.844 0h.484v-1.969l1.14-1.312L4.345 0h.562L2.781-3.656l1.86-2.172h-.563L1.344-2.656h-.016v-3.172H.844zm0 0"/></symbol><symbol overflow="visible" id="au"><path d="M.844 0h.437v-3.688c0-.484-.031-1.124-.047-1.609h.032L1.719-4 2.953-.625h.375L4.547-4 5-5.297h.031c-.015.484-.047 1.125-.047 1.61V0h.454v-5.828h-.641l-1.203 3.36c-.14.421-.266.843-.422 1.265H3.14L2.687-2.47l-1.203-3.36h-.64zm0 0"/></symbol><symbol overflow="visible" id="av"><path d="M.844 0h.484v-2.453h1.063c1.296 0 2.093-.563 2.093-1.735 0-1.203-.812-1.64-2.125-1.64H.844zm.484-2.86v-2.562h.938C3.422-5.422 4-5.125 4-4.188c0 .938-.563 1.329-1.703 1.329zm0 0"/></symbol><symbol overflow="visible" id="aw"><path d="M.797 0h.469v-3.188c.484-.515.843-.765 1.343-.765.641 0 .922.406.922 1.297V0H4v-2.719c0-1.094-.406-1.656-1.297-1.656-.578 0-1.015.344-1.453.781l.016-.937v-1.813h-.47zm0 0"/></symbol><symbol overflow="visible" id="ax"><path d="M2.39.11c.547 0 1-.235 1.36-.563l-.219-.313c-.297.25-.672.47-1.11.47-.89 0-1.483-.735-1.483-1.829 0-1.078.64-1.828 1.484-1.828.406 0 .719.172.984.422l.266-.313c-.297-.265-.688-.531-1.25-.531-1.063 0-1.969.828-1.969 2.25 0 1.422.828 2.234 1.938 2.234zm0 0"/></symbol><symbol overflow="visible" id="ay"><path d="M2.5.11c1 0 1.89-.86 1.89-2.313 0-1.297-.577-2.172-1.718-2.172-.516 0-1.016.297-1.438.656l.032-.812v-1.813h-.47V0h.376l.062-.438h.016c.39.329.86.547 1.25.547zm-.031-.407c-.313 0-.766-.14-1.203-.531v-2.453c.468-.438.921-.672 1.328-.672.937 0 1.297.734 1.297 1.75 0 1.156-.594 1.906-1.422 1.906zm0 0"/></symbol><symbol overflow="visible" id="az"><path d="M1.453 0h.563l.687-2.547c.14-.422.235-.812.328-1.234h.047c.11.422.203.812.313 1.219L4.109 0h.594l1.203-4.25h-.453l-.719 2.672c-.109.406-.203.781-.296 1.156h-.032c-.125-.375-.218-.75-.312-1.156L3.328-4.25h-.515l-.75 2.672c-.11.406-.204.781-.313 1.156h-.031c-.078-.375-.172-.75-.282-1.156L.704-4.25h-.5zm0 0"/></symbol><symbol overflow="visible" id="aA"><path d="M.844 0h.453v-3.484c0-.594-.031-1.125-.063-1.688h.047l.657 1.156L4.296 0h.5v-5.828h-.453v3.453c0 .578.031 1.156.062 1.734h-.031l-.656-1.187-2.375-4h-.5zm0 0"/></symbol><symbol overflow="visible" id="aM"><path d="M1.813.11c1.078 0 1.484-.766 1.484-1.72v-4.218h-.485v4.172c0 .922-.328 1.328-1.015 1.328C1.313-.328.984-.516.687-1l-.359.234c.313.563.813.875 1.484.875zm0 0"/></symbol><symbol overflow="visible" id="aN"><path d="M.156 0h.485l.984-1.734c.14-.282.297-.579.484-.938h.032c.203.36.375.656.53.938L3.657 0h.516L2.438-2.984l1.624-2.844h-.5l-.921 1.672c-.157.265-.25.484-.422.797h-.031c-.204-.313-.313-.532-.485-.797L.797-5.828H.266L1.89-3.016zm0 0"/></symbol><symbol overflow="visible" id="aO"><path d="M2.938.11c.75 0 1.296-.313 1.734-.844l-.266-.297c-.406.453-.86.703-1.437.703-1.235 0-1.985-1.016-1.985-2.61 0-1.562.766-2.562 2-2.562.532 0 .954.234 1.266.594l.266-.313a1.985 1.985 0 0 0-1.532-.703c-1.468 0-2.5 1.14-2.5 3C.484-1.047 1.5.11 2.938.11zm0 0"/></symbol><symbol overflow="visible" id="aP"><path d="M1.328-5.422h1.11c1 0 1.562.313 1.562 1.156 0 .844-.563 1.235-1.563 1.235H1.329zM4.61 0L3.031-2.672c.89-.125 1.453-.672 1.453-1.594 0-1.125-.78-1.562-1.937-1.562H.844V0h.484v-2.625h1.188L4.062 0zm0 0"/></symbol><symbol overflow="visible" id="aQ"><path d="M.844 0h.484v-2.766h2.313v-.406H1.328v-2.234h2.734v-.422H.845zm0 0"/></symbol><symbol overflow="visible" id="aR"><path d="M2.219.11c.547 0 1.015-.297 1.36-.641h.015L3.656 0h.375v-6.344h-.468v1.735l.03.765c-.405-.328-.75-.531-1.265-.531-1 0-1.875.875-1.875 2.25C.453-.687 1.141.109 2.22.109zm.078-.407c-.875 0-1.36-.719-1.36-1.828 0-1.047.625-1.828 1.438-1.828.406 0 .766.14 1.188.515v2.47c-.422.437-.813.671-1.266.671zm0 0"/></symbol><symbol overflow="visible" id="aS"><path d="M.797 0h.469v-1.156l.921-1.078L3.548 0h.515L2.454-2.578l1.39-1.672h-.53L1.28-1.75h-.015v-4.594h-.47zm0 0"/></symbol><symbol overflow="visible" id="aT"><path d="M1.938.969l.28-.14c-.702-1.126-1.046-2.47-1.046-3.86 0-1.39.344-2.75 1.047-3.86l-.281-.14c-.735 1.156-1.172 2.437-1.172 4 0 1.547.437 2.828 1.171 4zm0 0"/></symbol><symbol overflow="visible" id="aU"><path d="M2.344-.281C1.469-.281 1-1.11.938-2.375c.437-.61.953-.828 1.328-.828.828 0 1.187.594 1.187 1.453 0 .844-.469 1.469-1.11 1.469zM3.797-5.36a1.548 1.548 0 0 0-1.235-.563C1.47-5.922.47-5.094.47-2.75c0 1.86.75 2.86 1.875 2.86.844 0 1.562-.766 1.562-1.86 0-1.203-.578-1.828-1.578-1.828-.5 0-1.015.281-1.406.75.031-2 .765-2.703 1.656-2.703.36 0 .703.172.938.468zm0 0"/></symbol><symbol overflow="visible" id="aV"><path d="M.578.969c.735-1.172 1.172-2.453 1.172-4 0-1.563-.438-2.844-1.172-4l-.281.14c.687 1.11 1.047 2.47 1.047 3.86 0 1.39-.36 2.734-1.047 3.86zm0 0"/></symbol><symbol overflow="visible" id="aW"><path d="M2.078 0h.5v-5.406h1.828v-.422H.25v.422h1.828zm0 0"/></symbol><symbol overflow="visible" id="aX"><path d="M2.61-6.313a1.815 1.815 0 0 0-.641-.14C1.25-6.453.875-6 .875-5.156v.906l-.594.031v.36h.594V0h.453v-3.86h.969v-.39h-.969v-.875c0-.594.203-.938.656-.938.157 0 .329.047.5.125zm0 0"/></symbol><symbol overflow="visible" id="aY"><path d="M.797 0h.469v-3.188c.437-.515.843-.765 1.218-.765.641 0 .922.406.922 1.297V0h.469v-3.188c.453-.515.844-.765 1.234-.765.61 0 .907.406.907 1.297V0h.468v-2.719c0-1.094-.421-1.656-1.28-1.656-.5 0-.954.344-1.438.875-.157-.531-.485-.875-1.172-.875-.485 0-.953.344-1.344.766h-.016l-.046-.641H.796zm0 0"/></symbol><symbol overflow="visible" id="aZ"><path d="M.797 1.906h.469V.375L1.25-.422c.438.344.86.531 1.25.531 1 0 1.89-.859 1.89-2.312 0-1.297-.577-2.172-1.718-2.172-.516 0-1 .313-1.422.64h-.016l-.046-.515H.796zM2.469-.297c-.313 0-.75-.14-1.203-.531v-2.453c.484-.438.921-.672 1.328-.672.937 0 1.297.734 1.297 1.75 0 1.156-.594 1.906-1.422 1.906zm0 0"/></symbol><symbol overflow="visible" id="ba"><path d="M1.328-2.344l.36-1.047c.234-.687.437-1.296.64-2h.031c.204.704.391 1.313.641 2l.344 1.047zM4.125 0h.5L2.594-5.828h-.5L.063 0h.484l.656-1.953H3.47zm0 0"/></symbol><symbol overflow="visible" id="bb"><path d="M.844 0h3.312v-.422H1.328v-2.453h2.313v-.422H1.328v-2.11h2.734v-.421H.845zm0 0"/></symbol><symbol overflow="visible" id="bc"><path d="M2.156.11c1.047 0 1.75-.657 1.75-1.485 0-.797-.5-1.219-.984-1.516v-.046c.312-.25.797-.813.797-1.438 0-.875-.578-1.531-1.547-1.531-.844 0-1.5.593-1.5 1.437 0 .625.375 1.047.797 1.328v.032c-.532.296-1.11.859-1.11 1.671C.36-.563 1.125.11 2.156.11zm.422-3.172c-.734-.282-1.453-.61-1.453-1.407 0-.61.438-1.062 1.031-1.062.719 0 1.125.547 1.125 1.172 0 .484-.25.921-.703 1.296zM2.156-.267c-.781 0-1.36-.53-1.36-1.203 0-.625.407-1.14.954-1.468.875.343 1.688.671 1.688 1.562 0 .61-.5 1.11-1.282 1.11zm0 0"/></symbol><symbol overflow="visible" id="bd"><path d="M1-4.922a.407.407 0 0 0 .406-.422A.421.421 0 0 0 1-5.78c-.219 0-.406.172-.406.437 0 .266.187.422.406.422zM1-.75a.407.407 0 0 0 .406-.422A.421.421 0 0 0 1-1.609c-.219 0-.406.171-.406.437S.78-.75 1-.75zm0 0"/></symbol><symbol overflow="visible" id="be"><path d="M1.64 0h.5c.094-2.281.376-3.734 1.75-5.547v-.281H.39v.422h2.938C2.172-3.796 1.734-2.328 1.641 0zm0 0"/></symbol><symbol overflow="visible" id="bf"><path d="M.36-2.844h1.968v-.39H.36zm0 0"/></symbol><symbol overflow="visible" id="bg"><path d="M.688-2.047l1.578-2.312c.171-.266.328-.547.468-.813h.032c-.016.281-.047.703-.047.969v2.156zm3.312 0h-.828v-3.781h-.453L.156-1.953v.297H2.72V0h.453v-1.656H4zm0 0"/></symbol><symbol overflow="visible" id="bh"><path d="M.36-2.031h3.53v-.36H.36zm0 0"/></symbol><symbol overflow="visible" id="bi"><path d="M2.063.11c.984 0 1.75-.641 1.75-1.657 0-.812-.579-1.344-1.282-1.5v-.031c.625-.219 1.078-.688 1.078-1.438 0-.906-.671-1.406-1.578-1.421-.656.015-1.156.312-1.547.687l.266.328c.313-.344.781-.61 1.281-.625.672.016 1.094.422 1.094 1.063 0 .687-.438 1.25-1.719 1.25v.39c1.39 0 1.938.516 1.938 1.297 0 .75-.547 1.25-1.297 1.25C1.297-.297.844-.64.516-1L.25-.687c.36.39.906.796 1.813.796zm0 0"/></symbol><symbol overflow="visible" id="bj"><path d="M.844 0h.484v-5.828H.844zm0 0"/></symbol><symbol overflow="visible" id="bk"><path d="M.078.813h.375l2.64-7.704H2.72zm0 0"/></symbol><symbol overflow="visible" id="bl"><path d="M.266 2c.687 0 1-.438 1-1.281V-4.25h-.47V.703c0 .531-.093.906-.562.906-.156 0-.328-.046-.437-.078l-.094.36c.125.062.344.109.563.109zm.765-7.25c.219 0 .39-.156.39-.375 0-.234-.171-.375-.39-.375a.36.36 0 0 0-.375.375.37.37 0 0 0 .375.375zm0 0"/></symbol><symbol overflow="visible" id="bm"><path d="M.844 0h3.125v-.422h-2.64v-5.406H.843zm0 0"/></symbol><symbol overflow="visible" id="bn"><path d="M3 .11c.781 0 1.39-.282 1.75-.672v-2.329H2.937v.407h1.344V-.75c-.25.266-.734.422-1.234.422-1.313 0-2.063-1.016-2.063-2.61C.984-4.5 1.781-5.5 3.078-5.5c.64 0 1.031.266 1.328.594l.282-.313a2.11 2.11 0 0 0-1.61-.703c-1.531 0-2.594 1.14-2.594 3C.484-1.047 1.5.11 3 .11zm0 0"/></symbol><symbol overflow="visible" id="bo"><path d="M.781-1.516c0-.53.406-.953.89-1.328.423.719 1.032 1.422 1.641 1.969-.359.36-.796.594-1.25.594-.703 0-1.28-.5-1.28-1.235zm.75-3.109c0-.516.297-.938.797-.938.453 0 .625.36.625.735 0 .578-.531.984-1.11 1.39-.202-.406-.312-.812-.312-1.187zm3.5 4.328c-.328-.11-.718-.328-1.125-.64.469-.61.797-1.344 1.031-2.125H4.5c-.203.718-.5 1.359-.906 1.859-.578-.5-1.188-1.203-1.578-1.906.656-.485 1.328-.985 1.328-1.75 0-.61-.36-1.063-1-1.063-.735 0-1.235.563-1.235 1.313 0 .437.141.921.391 1.421C.89-2.75.312-2.25.312-1.484c0 .953.735 1.593 1.704 1.593.656 0 1.171-.296 1.609-.718.453.359.89.593 1.266.718zm0 0"/></symbol><symbol overflow="visible" id="bp"><path d="M2.89.11c1.422 0 2.422-1.188 2.422-3.047 0-1.844-1-2.985-2.421-2.985-1.407 0-2.407 1.14-2.407 2.984 0 1.86 1 3.047 2.407 3.047zm0-.438C1.735-.328.985-1.344.985-2.938c0-1.578.75-2.562 1.907-2.562 1.156 0 1.921.984 1.921 2.563 0 1.593-.765 2.609-1.921 2.609zm0 0"/></symbol><symbol overflow="visible" id="bq"><path d="M.844 0h.484v-2.875h3.016V0h.484v-5.828h-.484v2.531H1.328v-2.531H.844zm0 0"/></symbol><symbol overflow="visible" id="br"><path d="M.125 0h.484l.688-1.125c.172-.266.328-.531.484-.781h.047c.172.25.328.515.484.781L3.032 0h.515L2.109-2.188 3.438-4.25h-.485l-.64 1.047-.422.703h-.032c-.156-.234-.312-.469-.453-.703L.75-4.25H.234l1.329 2.016zm0 0"/></symbol></defs><g fill="#898989"><use xlink:href="#a" x="557.645" y="819.169"/><use xlink:href="#b" x="561.924" y="819.169"/></g><g fill="#595757"><use xlink:href="#c" x="39.637" y="818.993"/><use xlink:href="#d" x="45.03" y="818.993"/><use xlink:href="#e" x="50.424" y="818.993"/><use xlink:href="#f" x="55.817" y="818.993"/><use xlink:href="#g" x="61.211" y="818.993"/><use xlink:href="#h" x="62.769" y="818.993"/><use xlink:href="#i" x="68.162" y="818.993"/><use xlink:href="#j" x="73.556" y="818.993"/><use xlink:href="#k" x="78.949" y="818.993"/><use xlink:href="#l" x="84.342" y="818.993"/><use xlink:href="#m" x="89.736" y="818.993"/><use xlink:href="#c" x="95.129" y="818.993"/><use xlink:href="#d" x="100.523" y="818.993"/></g><g fill="#595757"><use xlink:href="#n" x="105.916" y="818.993"/><use xlink:href="#o" x="107.474" y="818.993"/><use xlink:href="#p" x="112.868" y="818.993"/><use xlink:href="#q" x="118.261" y="818.993"/><use xlink:href="#r" x="123.655" y="818.993"/><use xlink:href="#n" x="129.048" y="818.993"/><use xlink:href="#s" x="130.606" y="818.993"/><use xlink:href="#t" x="136" y="818.993"/><use xlink:href="#u" x="141.393" y="818.993"/><use xlink:href="#n" x="146.786" y="818.993"/><use xlink:href="#v" x="148.345" y="818.993"/></g><g fill="#595757"><use xlink:href="#w" x="151.43" y="818.993"/><use xlink:href="#x" x="154.87" y="818.993"/><use xlink:href="#y" x="156.35" y="818.993"/><use xlink:href="#n" x="157.735" y="818.993"/><use xlink:href="#z" x="159.293" y="818.993"/><use xlink:href="#z" x="162.379" y="818.993"/></g><use xlink:href="#A" x="174.827" y="48.883"/><use xlink:href="#B" x="183.816" y="48.883"/><use xlink:href="#C" x="192.805" y="48.883"/><use xlink:href="#D" x="201.794" y="48.883"/><use xlink:href="#E" x="204.391" y="48.883"/><use xlink:href="#F" x="213.38" y="48.883"/><use xlink:href="#G" x="174.827" y="66.861"/><use xlink:href="#H" x="183.816" y="66.861"/><use xlink:href="#I" x="192.805" y="66.861"/><g fill="#fff"><use xlink:href="#J" x="179.545" y="372.434"/><use xlink:href="#K" x="184.498" y="372.434"/><use xlink:href="#L" x="189.856" y="372.434"/><use xlink:href="#M" x="195.24" y="372.434"/><use xlink:href="#N" x="199.178" y="372.434"/><use xlink:href="#O" x="204.49" y="372.434"/><use xlink:href="#P" x="207.088" y="372.434"/><use xlink:href="#Q" x="209.47" y="372.434"/><use xlink:href="#R" x="214.765" y="372.434"/></g><use xlink:href="#S" x="179.545" y="121.401" fill="#fff"/><g fill="#fff"><use xlink:href="#Q" x="184.044" y="121.401"/><use xlink:href="#T" x="189.339" y="121.401"/><use xlink:href="#P" x="193.258" y="121.401"/><use xlink:href="#O" x="195.64" y="121.401"/><use xlink:href="#P" x="198.238" y="121.401"/><use xlink:href="#Q" x="200.62" y="121.401"/><use xlink:href="#R" x="205.915" y="121.401"/></g><use xlink:href="#U" x="174.827" y="393.208"/><use xlink:href="#V" x="178.942" y="393.208"/><use xlink:href="#V" x="183.057" y="393.208"/><use xlink:href="#U" x="187.172" y="393.208"/><use xlink:href="#W" x="191.287" y="393.208"/><use xlink:href="#U" x="174.827" y="408.19"/><use xlink:href="#V" x="178.942" y="408.19"/><use xlink:href="#V" x="183.057" y="408.19"/><use xlink:href="#X" x="187.172" y="408.19"/><use xlink:href="#W" x="191.287" y="408.19"/><use xlink:href="#Y" x="174.827" y="423.172"/><use xlink:href="#Z" x="178.942" y="423.172"/><use xlink:href="#Z" x="183.057" y="423.172"/><use xlink:href="#U" x="187.172" y="423.172"/><use xlink:href="#aa" x="235.345" y="393.208"/><use xlink:href="#ab" x="240.315" y="393.208"/><use xlink:href="#ac" x="242.161" y="393.208"/><use xlink:href="#ab" x="246.635" y="393.208"/><use xlink:href="#W" x="248.481" y="393.208"/><use xlink:href="#ad" x="250.559" y="393.208"/><use xlink:href="#ae" x="252.452" y="393.208"/><use xlink:href="#W" x="257.031" y="393.208"/><use xlink:href="#aa" x="259.108" y="393.208"/><use xlink:href="#ad" x="264.078" y="393.208"/><use xlink:href="#af" x="265.972" y="393.208"/><use xlink:href="#ag" x="270.558" y="393.208"/><use xlink:href="#af" x="272.532" y="393.208"/><use xlink:href="#ah" x="277.118" y="393.208"/><use xlink:href="#ai" x="281.473" y="393.208"/><use xlink:href="#aj" x="285.228" y="393.208"/><use xlink:href="#W" x="287.074" y="393.208"/><use xlink:href="#ak" x="289.152" y="393.208"/><use xlink:href="#al" x="294.361" y="393.208"/><use xlink:href="#am" x="298.572" y="393.208"/><use xlink:href="#ah" x="302.623" y="393.208"/><use xlink:href="#an" x="306.802" y="393.208"/><use xlink:href="#W" x="311.357" y="393.208"/><use xlink:href="#ao" x="313.434" y="393.208"/><use xlink:href="#ae" x="318.908" y="393.208"/><use xlink:href="#ad" x="323.486" y="393.208"/><use xlink:href="#ap" x="325.38" y="393.208"/><use xlink:href="#am" x="329.127" y="393.208"/><use xlink:href="#aq" x="333.266" y="393.208"/><use xlink:href="#ar" x="335.975" y="393.208"/><use xlink:href="#ad" x="339.427" y="393.208"/><use xlink:href="#as" x="341.32" y="393.208"/><use xlink:href="#ai" x="343.973" y="393.208"/><use xlink:href="#aj" x="347.728" y="393.208"/><use xlink:href="#W" x="349.574" y="393.208"/><use xlink:href="#at" x="351.652" y="393.208"/><use xlink:href="#af" x="356.438" y="393.208"/><use xlink:href="#aq" x="361.024" y="393.208"/><use xlink:href="#am" x="363.645" y="393.208"/><use xlink:href="#al" x="367.648" y="393.208"/><use xlink:href="#au" x="235.345" y="408.19"/><use xlink:href="#ab" x="241.474" y="408.19"/><use xlink:href="#ac" x="243.319" y="408.19"/><use xlink:href="#ab" x="247.794" y="408.19"/><use xlink:href="#W" x="249.64" y="408.19"/><use xlink:href="#ad" x="251.717" y="408.19"/><use xlink:href="#ae" x="253.611" y="408.19"/><use xlink:href="#W" x="258.189" y="408.19"/><use xlink:href="#aa" x="260.267" y="408.19"/><use xlink:href="#ad" x="265.237" y="408.19"/><use xlink:href="#af" x="267.131" y="408.19"/><use xlink:href="#ag" x="271.717" y="408.19"/><use xlink:href="#af" x="273.691" y="408.19"/><use xlink:href="#ah" x="278.277" y="408.19"/><use xlink:href="#ai" x="282.631" y="408.19"/><use xlink:href="#aj" x="286.386" y="408.19"/><use xlink:href="#W" x="288.232" y="408.19"/><use xlink:href="#ak" x="290.31" y="408.19"/><use xlink:href="#al" x="295.519" y="408.19"/><use xlink:href="#am" x="299.73" y="408.19"/><use xlink:href="#ah" x="303.782" y="408.19"/><use xlink:href="#an" x="307.961" y="408.19"/><use xlink:href="#W" x="312.515" y="408.19"/><use xlink:href="#ao" x="314.593" y="408.19"/><use xlink:href="#ae" x="320.066" y="408.19"/><use xlink:href="#ad" x="324.645" y="408.19"/><use xlink:href="#ap" x="326.538" y="408.19"/><use xlink:href="#am" x="330.286" y="408.19"/><use xlink:href="#aq" x="334.425" y="408.19"/><use xlink:href="#ar" x="337.133" y="408.19"/><use xlink:href="#ad" x="340.585" y="408.19"/><use xlink:href="#as" x="342.479" y="408.19"/><use xlink:href="#ai" x="345.132" y="408.19"/><use xlink:href="#aj" x="348.887" y="408.19"/><use xlink:href="#W" x="350.733" y="408.19"/><use xlink:href="#at" x="352.81" y="408.19"/><use xlink:href="#af" x="357.596" y="408.19"/><use xlink:href="#aq" x="362.183" y="408.19"/><use xlink:href="#am" x="364.804" y="408.19"/><use xlink:href="#al" x="368.807" y="408.19"/><use xlink:href="#av" x="235.345" y="423.172"/><use xlink:href="#aw" x="240.075" y="423.172"/><use xlink:href="#ab" x="244.622" y="423.172"/><use xlink:href="#ak" x="246.468" y="423.172"/><use xlink:href="#ab" x="251.677" y="423.172"/><use xlink:href="#W" x="253.523" y="423.172"/><use xlink:href="#ad" x="255.601" y="423.172"/><use xlink:href="#ae" x="257.494" y="423.172"/><use xlink:href="#W" x="262.073" y="423.172"/><use xlink:href="#au" x="264.15" y="423.172"/><use xlink:href="#ad" x="270.279" y="423.172"/><use xlink:href="#ax" x="272.172" y="423.172"/><use xlink:href="#aq" x="276" y="423.172"/><use xlink:href="#af" x="278.621" y="423.172"/><use xlink:href="#ay" x="283.207" y="423.172"/><use xlink:href="#ad" x="287.865" y="423.172"/><use xlink:href="#af" x="289.759" y="423.172"/><use xlink:href="#ag" x="294.345" y="423.172"/><use xlink:href="#af" x="296.319" y="423.172"/><use xlink:href="#ah" x="300.905" y="423.172"/><use xlink:href="#ai" x="305.26" y="423.172"/><use xlink:href="#aj" x="309.016" y="423.172"/><use xlink:href="#W" x="310.861" y="423.172"/><use xlink:href="#at" x="312.939" y="423.172"/><use xlink:href="#al" x="317.757" y="423.172"/><use xlink:href="#ae" x="321.968" y="423.172"/><use xlink:href="#ah" x="326.546" y="423.172"/><use xlink:href="#az" x="330.725" y="423.172"/><use xlink:href="#af" x="336.686" y="423.172"/><use xlink:href="#ae" x="341.272" y="423.172"/><use xlink:href="#W" x="345.851" y="423.172"/><use xlink:href="#aA" x="347.928" y="423.172"/><use xlink:href="#al" x="353.418" y="423.172"/><use xlink:href="#as" x="357.525" y="423.172"/><use xlink:href="#ad" x="360.177" y="423.172"/><use xlink:href="#af" x="362.071" y="423.172"/><use xlink:href="#ae" x="366.657" y="423.172"/><use xlink:href="#al" x="371.236" y="423.172"/><use xlink:href="#ag" x="375.447" y="423.172"/><use xlink:href="#W" x="377.42" y="423.172"/><use xlink:href="#ao" x="379.498" y="423.172"/><use xlink:href="#ae" x="384.971" y="423.172"/><use xlink:href="#ad" x="389.55" y="423.172"/><use xlink:href="#ap" x="391.443" y="423.172"/><use xlink:href="#am" x="395.191" y="423.172"/><use xlink:href="#aq" x="399.33" y="423.172"/><use xlink:href="#ar" x="402.038" y="423.172"/><use xlink:href="#ad" x="405.49" y="423.172"/><use xlink:href="#as" x="407.384" y="423.172"/><use xlink:href="#ai" x="410.037" y="423.172"/><use xlink:href="#aj" x="413.792" y="423.172"/><use xlink:href="#W" x="415.638" y="423.172"/><use xlink:href="#at" x="417.715" y="423.172"/><use xlink:href="#af" x="422.502" y="423.172"/><use xlink:href="#aq" x="427.088" y="423.172"/><use xlink:href="#am" x="429.709" y="423.172"/><use xlink:href="#al" x="433.712" y="423.172"/><g fill="#fff"><use xlink:href="#S" x="179.545" y="444.095"/><use xlink:href="#L" x="184.364" y="444.095"/><use xlink:href="#aB" x="189.748" y="444.095"/><use xlink:href="#aC" x="195.106" y="444.095"/><use xlink:href="#P" x="197.488" y="444.095"/><use xlink:href="#M" x="199.87" y="444.095"/><use xlink:href="#N" x="203.807" y="444.095"/><use xlink:href="#O" x="209.119" y="444.095"/><use xlink:href="#P" x="211.717" y="444.095"/><use xlink:href="#Q" x="214.099" y="444.095"/><use xlink:href="#R" x="219.394" y="444.095"/><use xlink:href="#T" x="224.769" y="444.095"/><use xlink:href="#aD" x="228.689" y="444.095"/><use xlink:href="#aE" x="231.269" y="444.095"/><use xlink:href="#aD" x="234.109" y="444.095"/><use xlink:href="#aF" x="236.689" y="444.095"/><use xlink:href="#aG" x="239.529" y="444.095"/></g><g fill="#fff"><use xlink:href="#aH" x="244.639" y="444.095"/><use xlink:href="#M" x="249.61" y="444.095"/><use xlink:href="#aH" x="253.547" y="444.095"/><use xlink:href="#R" x="258.518" y="444.095"/><use xlink:href="#O" x="263.893" y="444.095"/><use xlink:href="#aD" x="266.491" y="444.095"/><use xlink:href="#aI" x="269.071" y="444.095"/><use xlink:href="#aD" x="274.402" y="444.095"/><use xlink:href="#aJ" x="276.982" y="444.095"/></g><g fill="#fff"><use xlink:href="#aH" x="281.261" y="444.095"/><use xlink:href="#N" x="286.232" y="444.095"/><use xlink:href="#aK" x="291.545" y="444.095"/><use xlink:href="#T" x="295.023" y="444.095"/><use xlink:href="#aL" x="298.943" y="444.095"/></g><use xlink:href="#ac" x="174.827" y="464.664"/><use xlink:href="#as" x="179.255" y="464.664"/><use xlink:href="#aq" x="182.052" y="464.664"/><use xlink:href="#am" x="184.818" y="464.664"/><use xlink:href="#ag" x="189.101" y="464.664"/><use xlink:href="#af" x="191.218" y="464.664"/><use xlink:href="#az" x="195.948" y="464.664"/><use xlink:href="#W" x="202.053" y="464.664"/><use xlink:href="#aM" x="204.861" y="464.664"/><use xlink:href="#au" x="208.976" y="464.664"/><use xlink:href="#aj" x="215.249" y="464.664"/><use xlink:href="#W" x="217.238" y="464.664"/><use xlink:href="#aN" x="220.047" y="464.664"/><use xlink:href="#ad" x="224.354" y="464.664"/><use xlink:href="#al" x="226.391" y="464.664"/><use xlink:href="#af" x="230.746" y="464.664"/><use xlink:href="#W" x="235.476" y="464.664"/><use xlink:href="#au" x="238.284" y="464.664"/><use xlink:href="#aj" x="244.556" y="464.664"/><use xlink:href="#W" x="246.546" y="464.664"/><use xlink:href="#aO" x="249.354" y="464.664"/><use xlink:href="#al" x="254.348" y="464.664"/><use xlink:href="#ap" x="258.702" y="464.664"/><use xlink:href="#ad" x="262.594" y="464.664"/><use xlink:href="#as" x="264.631" y="464.664"/><use xlink:href="#as" x="267.254" y="464.664"/><use xlink:href="#W" x="270.05" y="464.664"/><use xlink:href="#aP" x="272.858" y="464.664"/><use xlink:href="#aA" x="277.7" y="464.664"/><use xlink:href="#aj" x="283.333" y="464.664"/><use xlink:href="#W" x="285.323" y="464.664"/><use xlink:href="#aQ" x="288.131" y="464.664"/><use xlink:href="#ad" x="292.365" y="464.664"/><use xlink:href="#as" x="294.403" y="464.664"/><use xlink:href="#am" x="297.097" y="464.664"/><use xlink:href="#W" x="301.38" y="464.664"/><use xlink:href="#aA" x="304.188" y="464.664"/><use xlink:href="#aO" x="309.821" y="464.664"/><use xlink:href="#aj" x="314.815" y="464.664"/><use xlink:href="#W" x="316.804" y="464.664"/><use xlink:href="#au" x="319.612" y="464.664"/><use xlink:href="#al" x="325.885" y="464.664"/><use xlink:href="#aq" x="330.239" y="464.664"/><use xlink:href="#ah" x="333.006" y="464.664"/><use xlink:href="#af" x="337.226" y="464.664"/><use xlink:href="#ag" x="341.956" y="464.664"/><use xlink:href="#ad" x="344.074" y="464.664"/><use xlink:href="#ar" x="346.111" y="464.664"/><use xlink:href="#W" x="349.707" y="464.664"/><use xlink:href="#aa" x="352.515" y="464.664"/><use xlink:href="#aM" x="357.503" y="464.664"/><use xlink:href="#aj" x="361.618" y="464.664"/><use xlink:href="#W" x="363.608" y="464.664"/><g><use xlink:href="#al" x="366.416" y="464.664"/><use xlink:href="#ae" x="370.771" y="464.664"/><use xlink:href="#aR" x="375.493" y="464.664"/><use xlink:href="#W" x="380.311" y="464.664"/></g><g><use xlink:href="#av" x="383.12" y="464.664"/></g><g><use xlink:href="#al" x="387.58" y="464.664"/><use xlink:href="#aq" x="391.935" y="464.664"/><use xlink:href="#aS" x="394.787" y="464.664"/><use xlink:href="#W" x="398.934" y="464.664"/></g><g><use xlink:href="#at" x="401.742" y="464.664"/><use xlink:href="#aM" x="406.704" y="464.664"/><use xlink:href="#ab" x="410.819" y="464.664"/><use xlink:href="#W" x="412.809" y="464.664"/></g><g><use xlink:href="#aT" x="415.616" y="464.664"/><use xlink:href="#Y" x="418.109" y="464.664"/><use xlink:href="#Z" x="422.368" y="464.664"/><use xlink:href="#U" x="426.627" y="464.664"/><use xlink:href="#aU" x="430.886" y="464.664"/><use xlink:href="#aV" x="435.145" y="464.664"/><use xlink:href="#W" x="437.638" y="464.664"/></g><g><use xlink:href="#aW" x="440.446" y="464.664"/><use xlink:href="#aw" x="445.096" y="464.664"/><use xlink:href="#am" x="449.787" y="464.664"/><use xlink:href="#W" x="454.07" y="464.664"/></g><g><use xlink:href="#an" x="456.878" y="464.664"/><use xlink:href="#ar" x="461.576" y="464.664"/><use xlink:href="#am" x="465.172" y="464.664"/><use xlink:href="#W" x="469.455" y="464.664"/></g><g><use xlink:href="#af" x="472.263" y="464.664"/><use xlink:href="#aX" x="476.994" y="464.664"/><use xlink:href="#W" x="479.359" y="464.664"/></g><g><use xlink:href="#ae" x="482.167" y="464.664"/><use xlink:href="#an" x="486.89" y="464.664"/><use xlink:href="#ax" x="491.588" y="464.664"/><use xlink:href="#ag" x="495.559" y="464.664"/><use xlink:href="#am" x="497.677" y="464.664"/><use xlink:href="#af" x="501.959" y="464.664"/><use xlink:href="#ar" x="506.69" y="464.664"/><use xlink:href="#af" x="510.285" y="464.664"/><use xlink:href="#aY" x="515.015" y="464.664"/><use xlink:href="#am" x="522.223" y="464.664"/><use xlink:href="#W" x="526.505" y="464.664"/></g><g><use xlink:href="#ar" x="529.314" y="464.664"/><use xlink:href="#an" x="532.91" y="464.664"/><use xlink:href="#ay" x="537.608" y="464.664"/><use xlink:href="#ar" x="542.41" y="464.664"/></g><g><use xlink:href="#as" x="545.832" y="464.664"/><use xlink:href="#aq" x="548.628" y="464.664"/></g><g><use xlink:href="#al" x="551.29" y="464.664"/></g><g><use xlink:href="#as" x="555.543" y="464.664"/></g><g><use xlink:href="#am" x="558.237" y="464.664"/><use xlink:href="#ar" x="562.52" y="464.664"/></g><g><use xlink:href="#W" x="565.972" y="464.664"/></g><g><use xlink:href="#ad" x="174.827" y="479.646"/><use xlink:href="#aY" x="176.72" y="479.646"/><use xlink:href="#aZ" x="183.784" y="479.646"/><use xlink:href="#aq" x="188.458" y="479.646"/></g><g><use xlink:href="#af" x="191.079" y="479.646"/><use xlink:href="#ap" x="195.665" y="479.646"/><use xlink:href="#am" x="199.413" y="479.646"/><use xlink:href="#ar" x="203.552" y="479.646"/><use xlink:href="#W" x="207.004" y="479.646"/><use xlink:href="#ay" x="209.081" y="479.646"/><use xlink:href="#ad" x="213.739" y="479.646"/><use xlink:href="#ae" x="215.633" y="479.646"/><use xlink:href="#aR" x="220.212" y="479.646"/><use xlink:href="#ad" x="224.886" y="479.646"/><use xlink:href="#ae" x="226.78" y="479.646"/><use xlink:href="#ah" x="231.358" y="479.646"/><use xlink:href="#W" x="235.537" y="479.646"/><use xlink:href="#af" x="237.614" y="479.646"/><use xlink:href="#aX" x="242.201" y="479.646"/><use xlink:href="#W" x="244.422" y="479.646"/><use xlink:href="#ac" x="246.5" y="479.646"/><use xlink:href="#ba" x="250.974" y="479.646"/><use xlink:href="#au" x="255.505" y="479.646"/><use xlink:href="#W" x="261.633" y="479.646"/><use xlink:href="#al" x="263.711" y="479.646"/><use xlink:href="#ae" x="267.922" y="479.646"/><use xlink:href="#al" x="272.5" y="479.646"/><use xlink:href="#ag" x="276.711" y="479.646"/><use xlink:href="#af" x="278.684" y="479.646"/><use xlink:href="#ah" x="283.271" y="479.646"/><use xlink:href="#ar" x="287.45" y="479.646"/><use xlink:href="#W" x="290.902" y="479.646"/><use xlink:href="#as" x="292.979" y="479.646"/></g><g><use xlink:href="#af" x="295.528" y="479.646"/><use xlink:href="#W" x="300.114" y="479.646"/><use xlink:href="#ac" x="302.192" y="479.646"/><use xlink:href="#bb" x="306.666" y="479.646"/><use xlink:href="#aW" x="311.085" y="479.646"/><use xlink:href="#ak" x="315.592" y="479.646"/><use xlink:href="#bc" x="320.801" y="479.646"/><use xlink:href="#ab" x="324.916" y="479.646"/><use xlink:href="#W" x="326.762" y="479.646"/><use xlink:href="#aM" x="328.839" y="479.646"/><use xlink:href="#ab" x="332.811" y="479.646"/><use xlink:href="#W" x="334.656" y="479.646"/><use xlink:href="#aa" x="336.734" y="479.646"/><use xlink:href="#ad" x="341.704" y="479.646"/><use xlink:href="#af" x="343.598" y="479.646"/><use xlink:href="#aY" x="348.184" y="479.646"/><use xlink:href="#af" x="355.247" y="479.646"/><use xlink:href="#ag" x="359.834" y="479.646"/><use xlink:href="#ab" x="361.807" y="479.646"/><use xlink:href="#W" x="363.653" y="479.646"/><use xlink:href="#ac" x="365.731" y="479.646"/><use xlink:href="#ax" x="370.205" y="479.646"/><use xlink:href="#aq" x="374.032" y="479.646"/></g><g><use xlink:href="#am" x="376.654" y="479.646"/><use xlink:href="#am" x="380.793" y="479.646"/><use xlink:href="#ae" x="384.932" y="479.646"/><use xlink:href="#ab" x="389.51" y="479.646"/><use xlink:href="#W" x="391.356" y="479.646"/><use xlink:href="#Y" x="393.434" y="479.646"/><use xlink:href="#U" x="397.549" y="479.646"/><use xlink:href="#bd" x="401.664" y="479.646"/><use xlink:href="#be" x="403.509" y="479.646"/><use xlink:href="#bc" x="407.624" y="479.646"/><use xlink:href="#aU" x="411.739" y="479.646"/><use xlink:href="#bf" x="415.854" y="479.646"/><use xlink:href="#be" x="418.363" y="479.646"/><use xlink:href="#V" x="422.478" y="479.646"/><use xlink:href="#bg" x="426.593" y="479.646"/><use xlink:href="#ab" x="430.708" y="479.646"/></g><g><use xlink:href="#Y" x="174.827" y="141.969"/><use xlink:href="#Z" x="178.942" y="141.969"/><use xlink:href="#Y" x="183.057" y="141.969"/><use xlink:href="#Z" x="187.172" y="141.969"/><use xlink:href="#W" x="191.287" y="141.969"/><use xlink:href="#bh" x="193.364" y="141.969"/><use xlink:href="#W" x="197.455" y="141.969"/><use xlink:href="#av" x="199.533" y="141.969"/><use xlink:href="#aq" x="204.263" y="141.969"/></g><g><use xlink:href="#am" x="206.884" y="141.969"/><use xlink:href="#ar" x="211.023" y="141.969"/><use xlink:href="#am" x="214.475" y="141.969"/><use xlink:href="#ae" x="218.614" y="141.969"/><use xlink:href="#as" x="223.192" y="141.969"/></g><g><use xlink:href="#Y" x="174.827" y="171.932"/><use xlink:href="#Z" x="178.942" y="171.932"/><use xlink:href="#U" x="183.057" y="171.932"/><use xlink:href="#bc" x="187.172" y="171.932"/><use xlink:href="#W" x="191.287" y="171.932"/><use xlink:href="#bf" x="193.364" y="171.932"/><use xlink:href="#W" x="195.873" y="171.932"/><use xlink:href="#Y" x="197.951" y="171.932"/><use xlink:href="#Z" x="202.066" y="171.932"/><use xlink:href="#U" x="206.181" y="171.932"/><use xlink:href="#V" x="210.296" y="171.932"/></g><g><use xlink:href="#Y" x="174.827" y="201.896"/><use xlink:href="#Z" x="178.942" y="201.896"/><use xlink:href="#U" x="183.057" y="201.896"/><use xlink:href="#Z" x="187.172" y="201.896"/><use xlink:href="#W" x="191.287" y="201.896"/><use xlink:href="#bf" x="193.364" y="201.896"/><use xlink:href="#W" x="195.873" y="201.896"/><use xlink:href="#Y" x="197.951" y="201.896"/><use xlink:href="#Z" x="202.066" y="201.896"/><use xlink:href="#U" x="206.181" y="201.896"/><use xlink:href="#bc" x="210.296" y="201.896"/></g><g><use xlink:href="#Y" x="174.827" y="231.86"/><use xlink:href="#Z" x="178.942" y="231.86"/><use xlink:href="#Z" x="183.057" y="231.86"/><use xlink:href="#aU" x="187.172" y="231.86"/><use xlink:href="#W" x="191.287" y="231.86"/><use xlink:href="#bf" x="193.364" y="231.86"/><use xlink:href="#W" x="195.873" y="231.86"/><use xlink:href="#Y" x="197.951" y="231.86"/><use xlink:href="#Z" x="202.066" y="231.86"/><use xlink:href="#U" x="206.181" y="231.86"/><use xlink:href="#Z" x="210.296" y="231.86"/></g><g><use xlink:href="#Y" x="174.827" y="261.823"/><use xlink:href="#Z" x="178.942" y="261.823"/><use xlink:href="#Z" x="183.057" y="261.823"/><use xlink:href="#bi" x="187.172" y="261.823"/><use xlink:href="#W" x="191.287" y="261.823"/><use xlink:href="#bf" x="193.364" y="261.823"/><use xlink:href="#W" x="195.873" y="261.823"/><use xlink:href="#Y" x="197.951" y="261.823"/><use xlink:href="#Z" x="202.066" y="261.823"/><use xlink:href="#Z" x="206.181" y="261.823"/><use xlink:href="#aU" x="210.296" y="261.823"/></g><g><use xlink:href="#Y" x="174.827" y="291.787"/><use xlink:href="#Z" x="178.942" y="291.787"/><use xlink:href="#Z" x="183.057" y="291.787"/><use xlink:href="#U" x="187.172" y="291.787"/><use xlink:href="#W" x="191.287" y="291.787"/><use xlink:href="#bf" x="193.364" y="291.787"/><use xlink:href="#W" x="195.873" y="291.787"/><use xlink:href="#Y" x="197.951" y="291.787"/><use xlink:href="#Z" x="202.066" y="291.787"/><use xlink:href="#Z" x="206.181" y="291.787"/><use xlink:href="#bi" x="210.296" y="291.787"/></g><g><use xlink:href="#U" x="174.827" y="336.732"/><use xlink:href="#V" x="178.942" y="336.732"/><use xlink:href="#V" x="183.057" y="336.732"/><use xlink:href="#X" x="187.172" y="336.732"/><use xlink:href="#W" x="191.287" y="336.732"/><use xlink:href="#bf" x="193.364" y="336.732"/><use xlink:href="#W" x="195.873" y="336.732"/><use xlink:href="#Y" x="197.951" y="336.732"/><use xlink:href="#Z" x="202.066" y="336.732"/><use xlink:href="#Z" x="206.181" y="336.732"/><use xlink:href="#U" x="210.296" y="336.732"/></g><g><use xlink:href="#ak" x="235.345" y="141.969"/><use xlink:href="#ad" x="240.555" y="141.969"/><use xlink:href="#aq" x="242.449" y="141.969"/></g><g><use xlink:href="#am" x="245.069" y="141.969"/><use xlink:href="#ax" x="249.208" y="141.969"/></g><g><use xlink:href="#as" x="252.948" y="141.969"/></g><g><use xlink:href="#af" x="255.497" y="141.969"/><use xlink:href="#aq" x="260.083" y="141.969"/></g><g><use xlink:href="#aa" x="235.345" y="156.951"/><use xlink:href="#ad" x="240.315" y="156.951"/><use xlink:href="#af" x="242.209" y="156.951"/><use xlink:href="#W" x="246.795" y="156.951"/><use xlink:href="#ak" x="248.873" y="156.951"/><use xlink:href="#aq" x="254.082" y="156.951"/><use xlink:href="#an" x="256.791" y="156.951"/><use xlink:href="#ah" x="261.346" y="156.951"/><use xlink:href="#W" x="265.524" y="156.951"/><use xlink:href="#ak" x="267.602" y="156.951"/><use xlink:href="#ad" x="272.812" y="156.951"/><use xlink:href="#ar" x="274.705" y="156.951"/><use xlink:href="#ax" x="278.157" y="156.951"/></g><g><use xlink:href="#af" x="281.817" y="156.951"/><use xlink:href="#ap" x="286.403" y="156.951"/><use xlink:href="#am" x="290.151" y="156.951"/><use xlink:href="#aq" x="294.289" y="156.951"/></g><g><use xlink:href="#ai" x="297.294" y="156.951"/><use xlink:href="#W" x="301.049" y="156.951"/><use xlink:href="#al" x="303.127" y="156.951"/></g><g><use xlink:href="#as" x="307.234" y="156.951"/><use xlink:href="#W" x="309.887" y="156.951"/><use xlink:href="#aO" x="311.964" y="156.951"/><use xlink:href="#at" x="316.814" y="156.951"/><use xlink:href="#ak" x="321.632" y="156.951"/><use xlink:href="#W" x="326.842" y="156.951"/><use xlink:href="#aP" x="328.919" y="156.951"/></g><g><use xlink:href="#am" x="333.53" y="156.951"/><use xlink:href="#ar" x="337.669" y="156.951"/><use xlink:href="#am" x="341.121" y="156.951"/></g><g><use xlink:href="#al" x="345.124" y="156.951"/><use xlink:href="#aq" x="349.335" y="156.951"/></g><g><use xlink:href="#ax" x="351.955" y="156.951"/><use xlink:href="#aw" x="355.783" y="156.951"/><use xlink:href="#W" x="360.329" y="156.951"/><use xlink:href="#bj" x="362.407" y="156.951"/><use xlink:href="#ae" x="364.42" y="156.951"/><use xlink:href="#ar" x="368.999" y="156.951"/></g><g><use xlink:href="#as" x="372.275" y="156.951"/><use xlink:href="#ad" x="374.927" y="156.951"/><use xlink:href="#as" x="376.821" y="156.951"/><use xlink:href="#an" x="379.474" y="156.951"/><use xlink:href="#as" x="384.028" y="156.951"/></g><g><use xlink:href="#am" x="386.577" y="156.951"/><use xlink:href="#aj" x="390.716" y="156.951"/><use xlink:href="#W" x="392.562" y="156.951"/><use xlink:href="#aO" x="394.639" y="156.951"/><use xlink:href="#aw" x="399.49" y="156.951"/><use xlink:href="#af" x="404.036" y="156.951"/><use xlink:href="#ae" x="408.622" y="156.951"/><use xlink:href="#ah" x="413.201" y="156.951"/><use xlink:href="#W" x="417.38" y="156.951"/><use xlink:href="#at" x="419.457" y="156.951"/></g><g><use xlink:href="#an" x="424.14" y="156.951"/><use xlink:href="#ae" x="428.694" y="156.951"/><use xlink:href="#W" x="433.272" y="156.951"/><use xlink:href="#ak" x="435.35" y="156.951"/><use xlink:href="#al" x="440.56" y="156.951"/><use xlink:href="#ae" x="444.77" y="156.951"/><use xlink:href="#al" x="449.349" y="156.951"/><use xlink:href="#W" x="453.56" y="156.951"/><use xlink:href="#av" x="455.637" y="156.951"/><use xlink:href="#aw" x="460.367" y="156.951"/><use xlink:href="#al" x="464.914" y="156.951"/><use xlink:href="#aq" x="469.125" y="156.951"/><use xlink:href="#aY" x="471.834" y="156.951"/><use xlink:href="#al" x="478.897" y="156.951"/><use xlink:href="#ax" x="483.108" y="156.951"/></g><g><use xlink:href="#am" x="486.767" y="156.951"/><use xlink:href="#an" x="490.906" y="156.951"/><use xlink:href="#as" x="495.461" y="156.951"/><use xlink:href="#ad" x="498.114" y="156.951"/><use xlink:href="#ax" x="500.007" y="156.951"/></g><g><use xlink:href="#al" x="503.747" y="156.951"/><use xlink:href="#ag" x="507.958" y="156.951"/><use xlink:href="#W" x="509.931" y="156.951"/><use xlink:href="#aO" x="512.009" y="156.951"/><use xlink:href="#af" x="516.859" y="156.951"/><use xlink:href="#aq" x="521.445" y="156.951"/><use xlink:href="#aZ" x="524.154" y="156.951"/><use xlink:href="#ab" x="528.828" y="156.951"/></g><g><use xlink:href="#ak" x="235.345" y="171.932"/><use xlink:href="#ad" x="240.555" y="171.932"/><use xlink:href="#aq" x="242.449" y="171.932"/></g><g><use xlink:href="#am" x="245.069" y="171.932"/><use xlink:href="#ax" x="249.208" y="171.932"/></g><g><use xlink:href="#as" x="252.948" y="171.932"/></g><g><use xlink:href="#af" x="255.497" y="171.932"/><use xlink:href="#aq" x="260.083" y="171.932"/></g><g><use xlink:href="#aW" x="235.345" y="186.914"/></g><g><use xlink:href="#aq" x="239.42" y="186.914"/></g><g><use xlink:href="#al" x="241.937" y="186.914"/><use xlink:href="#ae" x="246.148" y="186.914"/><use xlink:href="#ar" x="250.726" y="186.914"/><use xlink:href="#ag" x="254.178" y="186.914"/><use xlink:href="#al" x="256.152" y="186.914"/></g><g><use xlink:href="#as" x="260.259" y="186.914"/><use xlink:href="#ad" x="262.912" y="186.914"/><use xlink:href="#af" x="264.805" y="186.914"/><use xlink:href="#ae" x="269.392" y="186.914"/><use xlink:href="#al" x="273.97" y="186.914"/><use xlink:href="#ag" x="278.181" y="186.914"/><use xlink:href="#W" x="280.155" y="186.914"/><use xlink:href="#aP" x="282.232" y="186.914"/></g><g><use xlink:href="#am" x="286.843" y="186.914"/><use xlink:href="#ar" x="290.981" y="186.914"/><use xlink:href="#am" x="294.433" y="186.914"/></g><g><use xlink:href="#al" x="298.436" y="186.914"/><use xlink:href="#aq" x="302.647" y="186.914"/></g><g><use xlink:href="#ax" x="305.268" y="186.914"/><use xlink:href="#aw" x="309.095" y="186.914"/><use xlink:href="#W" x="313.642" y="186.914"/><use xlink:href="#al" x="315.719" y="186.914"/></g><g><use xlink:href="#as" x="319.826" y="186.914"/><use xlink:href="#W" x="322.479" y="186.914"/><use xlink:href="#aO" x="324.557" y="186.914"/><use xlink:href="#at" x="329.407" y="186.914"/><use xlink:href="#ak" x="334.225" y="186.914"/><use xlink:href="#W" x="339.435" y="186.914"/><use xlink:href="#aP" x="341.512" y="186.914"/></g><g><use xlink:href="#am" x="346.123" y="186.914"/><use xlink:href="#ar" x="350.262" y="186.914"/><use xlink:href="#am" x="353.714" y="186.914"/></g><g><use xlink:href="#al" x="357.716" y="186.914"/><use xlink:href="#aq" x="361.927" y="186.914"/></g><g><use xlink:href="#ax" x="364.549" y="186.914"/><use xlink:href="#aw" x="368.376" y="186.914"/><use xlink:href="#W" x="372.923" y="186.914"/><use xlink:href="#bj" x="375" y="186.914"/><use xlink:href="#ae" x="377.014" y="186.914"/><use xlink:href="#ar" x="381.592" y="186.914"/></g><g><use xlink:href="#as" x="384.868" y="186.914"/><use xlink:href="#ad" x="387.521" y="186.914"/><use xlink:href="#as" x="389.415" y="186.914"/><use xlink:href="#an" x="392.067" y="186.914"/><use xlink:href="#as" x="396.622" y="186.914"/></g><g><use xlink:href="#am" x="399.171" y="186.914"/><use xlink:href="#aj" x="403.31" y="186.914"/><use xlink:href="#W" x="405.155" y="186.914"/><use xlink:href="#aO" x="407.233" y="186.914"/><use xlink:href="#aw" x="412.083" y="186.914"/><use xlink:href="#af" x="416.629" y="186.914"/><use xlink:href="#ae" x="421.216" y="186.914"/><use xlink:href="#ah" x="425.794" y="186.914"/><use xlink:href="#W" x="429.973" y="186.914"/><use xlink:href="#at" x="432.051" y="186.914"/></g><g><use xlink:href="#an" x="436.733" y="186.914"/><use xlink:href="#ae" x="441.287" y="186.914"/><use xlink:href="#W" x="445.866" y="186.914"/><use xlink:href="#ak" x="447.943" y="186.914"/><use xlink:href="#al" x="453.153" y="186.914"/><use xlink:href="#ae" x="457.364" y="186.914"/><use xlink:href="#ah" x="461.942" y="186.914"/><use xlink:href="#W" x="466.121" y="186.914"/><use xlink:href="#av" x="468.199" y="186.914"/><use xlink:href="#aw" x="472.929" y="186.914"/><use xlink:href="#al" x="477.475" y="186.914"/><use xlink:href="#aq" x="481.686" y="186.914"/><use xlink:href="#aY" x="484.395" y="186.914"/><use xlink:href="#al" x="491.458" y="186.914"/><use xlink:href="#ax" x="495.669" y="186.914"/></g><g><use xlink:href="#am" x="499.329" y="186.914"/><use xlink:href="#an" x="503.468" y="186.914"/><use xlink:href="#as" x="508.022" y="186.914"/><use xlink:href="#ad" x="510.675" y="186.914"/><use xlink:href="#ax" x="512.569" y="186.914"/></g><g><use xlink:href="#al" x="516.308" y="186.914"/><use xlink:href="#ag" x="520.519" y="186.914"/><use xlink:href="#W" x="522.493" y="186.914"/><use xlink:href="#aO" x="524.57" y="186.914"/><use xlink:href="#af" x="529.42" y="186.914"/><use xlink:href="#aq" x="534.007" y="186.914"/><use xlink:href="#aZ" x="536.715" y="186.914"/><use xlink:href="#ab" x="541.39" y="186.914"/></g><g><use xlink:href="#ac" x="235.345" y="201.896"/><use xlink:href="#aq" x="239.82" y="201.896"/><use xlink:href="#ab" x="242.528" y="201.896"/><use xlink:href="#W" x="244.374" y="201.896"/><use xlink:href="#aP" x="246.452" y="201.896"/></g><g><use xlink:href="#am" x="251.062" y="201.896"/><use xlink:href="#ar" x="255.201" y="201.896"/><use xlink:href="#am" x="258.653" y="201.896"/></g><g><use xlink:href="#al" x="262.656" y="201.896"/><use xlink:href="#aq" x="266.867" y="201.896"/></g><g><use xlink:href="#ax" x="269.488" y="201.896"/><use xlink:href="#aw" x="273.315" y="201.896"/><use xlink:href="#W" x="277.861" y="201.896"/><use xlink:href="#ac" x="279.939" y="201.896"/><use xlink:href="#ax" x="284.413" y="201.896"/><use xlink:href="#ad" x="288.241" y="201.896"/><use xlink:href="#am" x="290.135" y="201.896"/><use xlink:href="#ae" x="294.273" y="201.896"/><use xlink:href="#as" x="298.852" y="201.896"/><use xlink:href="#ad" x="301.505" y="201.896"/><use xlink:href="#ar" x="303.398" y="201.896"/></g><g><use xlink:href="#as" x="306.674" y="201.896"/><use xlink:href="#bk" x="309.327" y="201.896"/><use xlink:href="#W" x="312.324" y="201.896"/><use xlink:href="#av" x="314.401" y="201.896"/><use xlink:href="#aq" x="319.131" y="201.896"/></g><g><use xlink:href="#af" x="321.752" y="201.896"/><use xlink:href="#bl" x="326.338" y="201.896"/><use xlink:href="#am" x="328.24" y="201.896"/><use xlink:href="#ax" x="332.379" y="201.896"/></g><g><use xlink:href="#as" x="336.119" y="201.896"/><use xlink:href="#W" x="338.771" y="201.896"/><use xlink:href="#bm" x="340.849" y="201.896"/></g><g><use xlink:href="#am" x="344.764" y="201.896"/></g><g><use xlink:href="#al" x="348.767" y="201.896"/><use xlink:href="#aR" x="352.978" y="201.896"/><use xlink:href="#am" x="357.652" y="201.896"/><use xlink:href="#aq" x="361.791" y="201.896"/></g><g><use xlink:href="#aO" x="235.345" y="216.878"/><use xlink:href="#al" x="240.195" y="216.878"/><use xlink:href="#ae" x="244.406" y="216.878"/><use xlink:href="#ax" x="248.985" y="216.878"/></g><g><use xlink:href="#am" x="252.644" y="216.878"/><use xlink:href="#aq" x="256.783" y="216.878"/><use xlink:href="#W" x="259.492" y="216.878"/><use xlink:href="#aO" x="261.569" y="216.878"/><use xlink:href="#am" x="266.419" y="216.878"/><use xlink:href="#ag" x="270.558" y="216.878"/><use xlink:href="#ag" x="272.532" y="216.878"/><use xlink:href="#W" x="274.506" y="216.878"/><use xlink:href="#bn" x="276.583" y="216.878"/><use xlink:href="#aq" x="281.801" y="216.878"/></g><g><use xlink:href="#af" x="284.421" y="216.878"/><use xlink:href="#az" x="289.008" y="216.878"/><use xlink:href="#as" x="294.969" y="216.878"/><use xlink:href="#aw" x="297.621" y="216.878"/><use xlink:href="#W" x="302.168" y="216.878"/><use xlink:href="#bo" x="304.245" y="216.878"/><use xlink:href="#W" x="309.239" y="216.878"/><use xlink:href="#bb" x="311.317" y="216.878"/><use xlink:href="#aZ" x="315.735" y="216.878"/><use xlink:href="#ad" x="320.41" y="216.878"/><use xlink:href="#ah" x="322.303" y="216.878"/></g><g><use xlink:href="#am" x="326.378" y="216.878"/><use xlink:href="#ae" x="330.517" y="216.878"/><use xlink:href="#am" x="335.096" y="216.878"/></g><g><use xlink:href="#as" x="339.147" y="216.878"/><use xlink:href="#ad" x="341.8" y="216.878"/><use xlink:href="#ax" x="343.693" y="216.878"/><use xlink:href="#ar" x="347.521" y="216.878"/><use xlink:href="#aj" x="350.973" y="216.878"/><use xlink:href="#W" x="352.818" y="216.878"/><use xlink:href="#bp" x="354.896" y="216.878"/><use xlink:href="#ae" x="360.537" y="216.878"/><use xlink:href="#ax" x="365.115" y="216.878"/></g><g><use xlink:href="#af" x="368.775" y="216.878"/><use xlink:href="#ag" x="373.361" y="216.878"/><use xlink:href="#af" x="375.335" y="216.878"/><use xlink:href="#ah" x="379.921" y="216.878"/></g><g><use xlink:href="#ai" x="384.276" y="216.878"/><use xlink:href="#aj" x="388.031" y="216.878"/><use xlink:href="#W" x="389.877" y="216.878"/><use xlink:href="#bb" x="391.955" y="216.878"/><use xlink:href="#ag" x="396.373" y="216.878"/><use xlink:href="#ad" x="398.347" y="216.878"/><use xlink:href="#W" x="400.241" y="216.878"/><use xlink:href="#bm" x="402.318" y="216.878"/><use xlink:href="#ad" x="406.329" y="216.878"/><use xlink:href="#ag" x="408.223" y="216.878"/><use xlink:href="#ag" x="410.197" y="216.878"/><use xlink:href="#ai" x="412.17" y="216.878"/><use xlink:href="#W" x="415.926" y="216.878"/><use xlink:href="#al" x="418.003" y="216.878"/><use xlink:href="#ae" x="422.214" y="216.878"/><use xlink:href="#aR" x="426.792" y="216.878"/><use xlink:href="#W" x="431.467" y="216.878"/><use xlink:href="#aO" x="433.544" y="216.878"/><use xlink:href="#af" x="438.394" y="216.878"/><use xlink:href="#aY" x="442.981" y="216.878"/><use xlink:href="#aZ" x="450.044" y="216.878"/></g><g><use xlink:href="#al" x="454.583" y="216.878"/><use xlink:href="#ae" x="458.793" y="216.878"/><use xlink:href="#ai" x="463.372" y="216.878"/><use xlink:href="#aj" x="467.127" y="216.878"/><use xlink:href="#W" x="468.973" y="216.878"/><use xlink:href="#bj" x="471.05" y="216.878"/><use xlink:href="#ae" x="473.064" y="216.878"/><use xlink:href="#aR" x="477.642" y="216.878"/><use xlink:href="#ad" x="482.317" y="216.878"/><use xlink:href="#al" x="484.21" y="216.878"/><use xlink:href="#ae" x="488.421" y="216.878"/><use xlink:href="#al" x="493" y="216.878"/><use xlink:href="#aZ" x="497.211" y="216.878"/><use xlink:href="#af" x="501.885" y="216.878"/><use xlink:href="#ag" x="506.471" y="216.878"/><use xlink:href="#ad" x="508.445" y="216.878"/><use xlink:href="#ar" x="510.339" y="216.878"/><use xlink:href="#aj" x="513.791" y="216.878"/><use xlink:href="#W" x="515.636" y="216.878"/><use xlink:href="#bj" x="517.714" y="216.878"/><use xlink:href="#ae" x="519.727" y="216.878"/><use xlink:href="#aR" x="524.306" y="216.878"/><use xlink:href="#ad" x="528.98" y="216.878"/><use xlink:href="#al" x="530.874" y="216.878"/><use xlink:href="#ae" x="535.085" y="216.878"/><use xlink:href="#al" x="539.663" y="216.878"/></g><g><use xlink:href="#aP" x="235.345" y="231.86"/></g><g><use xlink:href="#am" x="239.956" y="231.86"/><use xlink:href="#ar" x="244.095" y="231.86"/><use xlink:href="#am" x="247.546" y="231.86"/></g><g><use xlink:href="#al" x="251.549" y="231.86"/><use xlink:href="#aq" x="255.76" y="231.86"/></g><g><use xlink:href="#ax" x="258.381" y="231.86"/><use xlink:href="#aw" x="262.208" y="231.86"/><use xlink:href="#W" x="266.755" y="231.86"/><use xlink:href="#ac" x="268.832" y="231.86"/><use xlink:href="#ax" x="273.307" y="231.86"/><use xlink:href="#ad" x="277.134" y="231.86"/><use xlink:href="#am" x="279.028" y="231.86"/><use xlink:href="#ae" x="283.167" y="231.86"/><use xlink:href="#as" x="287.745" y="231.86"/><use xlink:href="#ad" x="290.398" y="231.86"/><use xlink:href="#ar" x="292.292" y="231.86"/></g><g><use xlink:href="#as" x="295.568" y="231.86"/><use xlink:href="#bk" x="298.221" y="231.86"/><use xlink:href="#W" x="301.217" y="231.86"/><use xlink:href="#av" x="303.295" y="231.86"/><use xlink:href="#aq" x="308.025" y="231.86"/></g><g><use xlink:href="#af" x="310.646" y="231.86"/><use xlink:href="#bl" x="315.232" y="231.86"/><use xlink:href="#am" x="317.134" y="231.86"/><use xlink:href="#ax" x="321.273" y="231.86"/></g><g><use xlink:href="#as" x="325.012" y="231.86"/><use xlink:href="#W" x="327.665" y="231.86"/><use xlink:href="#bm" x="329.742" y="231.86"/></g><g><use xlink:href="#am" x="333.658" y="231.86"/></g><g><use xlink:href="#al" x="337.661" y="231.86"/><use xlink:href="#aR" x="341.872" y="231.86"/><use xlink:href="#am" x="346.546" y="231.86"/><use xlink:href="#aq" x="350.685" y="231.86"/></g><g><use xlink:href="#aO" x="235.345" y="246.841"/><use xlink:href="#al" x="240.195" y="246.841"/><use xlink:href="#ae" x="244.406" y="246.841"/><use xlink:href="#ax" x="248.985" y="246.841"/></g><g><use xlink:href="#am" x="252.644" y="246.841"/><use xlink:href="#aq" x="256.783" y="246.841"/><use xlink:href="#W" x="259.492" y="246.841"/><use xlink:href="#aO" x="261.569" y="246.841"/><use xlink:href="#am" x="266.419" y="246.841"/><use xlink:href="#ag" x="270.558" y="246.841"/><use xlink:href="#ag" x="272.532" y="246.841"/><use xlink:href="#W" x="274.506" y="246.841"/><use xlink:href="#bn" x="276.583" y="246.841"/><use xlink:href="#aq" x="281.801" y="246.841"/></g><g><use xlink:href="#af" x="284.421" y="246.841"/><use xlink:href="#az" x="289.008" y="246.841"/><use xlink:href="#as" x="294.969" y="246.841"/><use xlink:href="#aw" x="297.621" y="246.841"/><use xlink:href="#W" x="302.168" y="246.841"/><use xlink:href="#bo" x="304.245" y="246.841"/><use xlink:href="#W" x="309.239" y="246.841"/><use xlink:href="#bb" x="311.317" y="246.841"/><use xlink:href="#aZ" x="315.735" y="246.841"/><use xlink:href="#ad" x="320.41" y="246.841"/><use xlink:href="#ah" x="322.303" y="246.841"/></g><g><use xlink:href="#am" x="326.378" y="246.841"/><use xlink:href="#ae" x="330.517" y="246.841"/><use xlink:href="#am" x="335.096" y="246.841"/></g><g><use xlink:href="#as" x="339.147" y="246.841"/><use xlink:href="#ad" x="341.8" y="246.841"/><use xlink:href="#ax" x="343.693" y="246.841"/><use xlink:href="#ar" x="347.521" y="246.841"/><use xlink:href="#aj" x="350.973" y="246.841"/><use xlink:href="#W" x="352.818" y="246.841"/><use xlink:href="#bp" x="354.896" y="246.841"/><use xlink:href="#ae" x="360.537" y="246.841"/><use xlink:href="#ax" x="365.115" y="246.841"/></g><g><use xlink:href="#af" x="368.775" y="246.841"/><use xlink:href="#ag" x="373.361" y="246.841"/><use xlink:href="#af" x="375.335" y="246.841"/><use xlink:href="#ah" x="379.921" y="246.841"/></g><g><use xlink:href="#ai" x="384.276" y="246.841"/><use xlink:href="#aj" x="388.031" y="246.841"/><use xlink:href="#W" x="389.877" y="246.841"/><use xlink:href="#bb" x="391.955" y="246.841"/><use xlink:href="#ag" x="396.373" y="246.841"/><use xlink:href="#ad" x="398.347" y="246.841"/><use xlink:href="#W" x="400.241" y="246.841"/><use xlink:href="#bm" x="402.318" y="246.841"/><use xlink:href="#ad" x="406.329" y="246.841"/><use xlink:href="#ag" x="408.223" y="246.841"/><use xlink:href="#ag" x="410.197" y="246.841"/><use xlink:href="#ai" x="412.17" y="246.841"/><use xlink:href="#W" x="415.926" y="246.841"/><use xlink:href="#al" x="418.003" y="246.841"/><use xlink:href="#ae" x="422.214" y="246.841"/><use xlink:href="#aR" x="426.792" y="246.841"/><use xlink:href="#W" x="431.467" y="246.841"/><use xlink:href="#aO" x="433.544" y="246.841"/><use xlink:href="#af" x="438.394" y="246.841"/><use xlink:href="#aY" x="442.981" y="246.841"/><use xlink:href="#aZ" x="450.044" y="246.841"/></g><g><use xlink:href="#al" x="454.583" y="246.841"/><use xlink:href="#ae" x="458.793" y="246.841"/><use xlink:href="#ai" x="463.372" y="246.841"/><use xlink:href="#aj" x="467.127" y="246.841"/><use xlink:href="#W" x="468.973" y="246.841"/><use xlink:href="#bj" x="471.05" y="246.841"/><use xlink:href="#ae" x="473.064" y="246.841"/><use xlink:href="#aR" x="477.642" y="246.841"/><use xlink:href="#ad" x="482.317" y="246.841"/><use xlink:href="#al" x="484.21" y="246.841"/><use xlink:href="#ae" x="488.421" y="246.841"/><use xlink:href="#al" x="493" y="246.841"/><use xlink:href="#aZ" x="497.211" y="246.841"/><use xlink:href="#af" x="501.885" y="246.841"/><use xlink:href="#ag" x="506.471" y="246.841"/><use xlink:href="#ad" x="508.445" y="246.841"/><use xlink:href="#ar" x="510.339" y="246.841"/><use xlink:href="#aj" x="513.791" y="246.841"/><use xlink:href="#W" x="515.636" y="246.841"/><use xlink:href="#bj" x="517.714" y="246.841"/><use xlink:href="#ae" x="519.727" y="246.841"/><use xlink:href="#aR" x="524.306" y="246.841"/><use xlink:href="#ad" x="528.98" y="246.841"/><use xlink:href="#al" x="530.874" y="246.841"/><use xlink:href="#ae" x="535.085" y="246.841"/><use xlink:href="#al" x="539.663" y="246.841"/></g><g><use xlink:href="#av" x="235.345" y="261.823"/></g><g><use xlink:href="#af" x="239.852" y="261.823"/><use xlink:href="#ar" x="244.438" y="261.823"/></g><g><use xlink:href="#as" x="247.714" y="261.823"/></g><g><use xlink:href="#aR" x="250.263" y="261.823"/><use xlink:href="#af" x="254.937" y="261.823"/><use xlink:href="#ax" x="259.524" y="261.823"/></g><g><use xlink:href="#as" x="263.263" y="261.823"/></g><g><use xlink:href="#af" x="265.812" y="261.823"/><use xlink:href="#aq" x="270.399" y="261.823"/></g><g><use xlink:href="#al" x="272.915" y="261.823"/><use xlink:href="#ag" x="277.126" y="261.823"/><use xlink:href="#W" x="279.1" y="261.823"/><use xlink:href="#aP" x="281.177" y="261.823"/></g><g><use xlink:href="#am" x="285.788" y="261.823"/><use xlink:href="#ar" x="289.927" y="261.823"/><use xlink:href="#am" x="293.379" y="261.823"/></g><g><use xlink:href="#al" x="297.382" y="261.823"/><use xlink:href="#aq" x="301.593" y="261.823"/></g><g><use xlink:href="#ax" x="304.213" y="261.823"/><use xlink:href="#aw" x="308.041" y="261.823"/><use xlink:href="#W" x="312.587" y="261.823"/><use xlink:href="#aQ" x="314.665" y="261.823"/></g><g><use xlink:href="#am" x="318.652" y="261.823"/><use xlink:href="#ag" x="322.791" y="261.823"/><use xlink:href="#ag" x="324.764" y="261.823"/><use xlink:href="#af" x="326.738" y="261.823"/><use xlink:href="#az" x="331.324" y="261.823"/></g><g><use xlink:href="#aO" x="235.345" y="276.805"/><use xlink:href="#al" x="240.195" y="276.805"/><use xlink:href="#ae" x="244.406" y="276.805"/><use xlink:href="#ax" x="248.985" y="276.805"/></g><g><use xlink:href="#am" x="252.644" y="276.805"/><use xlink:href="#aq" x="256.783" y="276.805"/><use xlink:href="#W" x="259.492" y="276.805"/><use xlink:href="#aO" x="261.569" y="276.805"/><use xlink:href="#am" x="266.419" y="276.805"/><use xlink:href="#ag" x="270.558" y="276.805"/><use xlink:href="#ag" x="272.532" y="276.805"/><use xlink:href="#W" x="274.506" y="276.805"/><use xlink:href="#bn" x="276.583" y="276.805"/><use xlink:href="#aq" x="281.801" y="276.805"/></g><g><use xlink:href="#af" x="284.421" y="276.805"/><use xlink:href="#az" x="289.008" y="276.805"/><use xlink:href="#as" x="294.969" y="276.805"/><use xlink:href="#aw" x="297.621" y="276.805"/><use xlink:href="#W" x="302.168" y="276.805"/><use xlink:href="#bo" x="304.245" y="276.805"/><use xlink:href="#W" x="309.239" y="276.805"/><use xlink:href="#aW" x="311.317" y="276.805"/></g><g><use xlink:href="#aq" x="315.392" y="276.805"/></g><g><use xlink:href="#al" x="317.909" y="276.805"/><use xlink:href="#ae" x="322.12" y="276.805"/><use xlink:href="#ar" x="326.698" y="276.805"/><use xlink:href="#ag" x="330.15" y="276.805"/><use xlink:href="#al" x="332.123" y="276.805"/></g><g><use xlink:href="#as" x="336.23" y="276.805"/><use xlink:href="#ad" x="338.883" y="276.805"/><use xlink:href="#af" x="340.777" y="276.805"/><use xlink:href="#ae" x="345.363" y="276.805"/><use xlink:href="#aj" x="349.942" y="276.805"/><use xlink:href="#W" x="351.788" y="276.805"/><use xlink:href="#bp" x="353.865" y="276.805"/><use xlink:href="#ae" x="359.506" y="276.805"/><use xlink:href="#ax" x="364.085" y="276.805"/></g><g><use xlink:href="#af" x="367.744" y="276.805"/><use xlink:href="#ag" x="372.331" y="276.805"/><use xlink:href="#af" x="374.304" y="276.805"/><use xlink:href="#ah" x="378.891" y="276.805"/></g><g><use xlink:href="#ai" x="383.245" y="276.805"/><use xlink:href="#aj" x="387.001" y="276.805"/><use xlink:href="#W" x="388.846" y="276.805"/><use xlink:href="#bb" x="390.924" y="276.805"/><use xlink:href="#ag" x="395.343" y="276.805"/><use xlink:href="#ad" x="397.316" y="276.805"/><use xlink:href="#W" x="399.21" y="276.805"/><use xlink:href="#bm" x="401.287" y="276.805"/><use xlink:href="#ad" x="405.298" y="276.805"/><use xlink:href="#ag" x="407.192" y="276.805"/><use xlink:href="#ag" x="409.166" y="276.805"/><use xlink:href="#ai" x="411.139" y="276.805"/><use xlink:href="#W" x="414.895" y="276.805"/><use xlink:href="#al" x="416.972" y="276.805"/><use xlink:href="#ae" x="421.183" y="276.805"/><use xlink:href="#aR" x="425.762" y="276.805"/><use xlink:href="#W" x="430.436" y="276.805"/><use xlink:href="#aO" x="432.513" y="276.805"/><use xlink:href="#af" x="437.363" y="276.805"/><use xlink:href="#aY" x="441.95" y="276.805"/><use xlink:href="#aZ" x="449.013" y="276.805"/></g><g><use xlink:href="#al" x="453.552" y="276.805"/><use xlink:href="#ae" x="457.763" y="276.805"/><use xlink:href="#ai" x="462.341" y="276.805"/><use xlink:href="#aj" x="466.097" y="276.805"/><use xlink:href="#W" x="467.942" y="276.805"/><use xlink:href="#bj" x="470.02" y="276.805"/><use xlink:href="#ae" x="472.033" y="276.805"/><use xlink:href="#aR" x="476.612" y="276.805"/><use xlink:href="#ad" x="481.286" y="276.805"/><use xlink:href="#al" x="483.18" y="276.805"/><use xlink:href="#ae" x="487.391" y="276.805"/><use xlink:href="#al" x="491.969" y="276.805"/><use xlink:href="#aZ" x="496.18" y="276.805"/><use xlink:href="#af" x="500.854" y="276.805"/><use xlink:href="#ag" x="505.441" y="276.805"/><use xlink:href="#ad" x="507.414" y="276.805"/><use xlink:href="#ar" x="509.308" y="276.805"/><use xlink:href="#aj" x="512.76" y="276.805"/><use xlink:href="#W" x="514.606" y="276.805"/><use xlink:href="#bj" x="516.683" y="276.805"/><use xlink:href="#ae" x="518.697" y="276.805"/><use xlink:href="#aR" x="523.275" y="276.805"/><use xlink:href="#ad" x="527.949" y="276.805"/><use xlink:href="#al" x="529.843" y="276.805"/><use xlink:href="#ae" x="534.054" y="276.805"/><use xlink:href="#al" x="538.632" y="276.805"/></g><g><use xlink:href="#av" x="235.345" y="291.787"/></g><g><use xlink:href="#af" x="239.852" y="291.787"/><use xlink:href="#ar" x="244.438" y="291.787"/></g><g><use xlink:href="#as" x="247.714" y="291.787"/></g><g><use xlink:href="#aR" x="250.263" y="291.787"/><use xlink:href="#af" x="254.937" y="291.787"/><use xlink:href="#ax" x="259.524" y="291.787"/></g><g><use xlink:href="#as" x="263.263" y="291.787"/></g><g><use xlink:href="#af" x="265.812" y="291.787"/><use xlink:href="#aq" x="270.399" y="291.787"/></g><g><use xlink:href="#al" x="272.915" y="291.787"/><use xlink:href="#ag" x="277.126" y="291.787"/><use xlink:href="#W" x="279.1" y="291.787"/><use xlink:href="#aP" x="281.177" y="291.787"/></g><g><use xlink:href="#am" x="285.788" y="291.787"/><use xlink:href="#ar" x="289.927" y="291.787"/><use xlink:href="#am" x="293.379" y="291.787"/></g><g><use xlink:href="#al" x="297.382" y="291.787"/><use xlink:href="#aq" x="301.593" y="291.787"/></g><g><use xlink:href="#ax" x="304.213" y="291.787"/><use xlink:href="#aw" x="308.041" y="291.787"/><use xlink:href="#W" x="312.587" y="291.787"/><use xlink:href="#aQ" x="314.665" y="291.787"/></g><g><use xlink:href="#am" x="318.652" y="291.787"/><use xlink:href="#ag" x="322.791" y="291.787"/><use xlink:href="#ag" x="324.764" y="291.787"/><use xlink:href="#af" x="326.738" y="291.787"/><use xlink:href="#az" x="331.324" y="291.787"/></g><g><use xlink:href="#ak" x="235.345" y="306.768"/><use xlink:href="#ad" x="240.579" y="306.768"/><use xlink:href="#ap" x="242.496" y="306.768"/><use xlink:href="#ad" x="246.268" y="306.768"/><use xlink:href="#ar" x="248.186" y="306.768"/><use xlink:href="#ad" x="251.661" y="306.768"/><use xlink:href="#af" x="253.579" y="306.768"/><use xlink:href="#ae" x="258.189" y="306.768"/><use xlink:href="#W" x="262.792" y="306.768"/></g><g><use xlink:href="#af" x="265.481" y="306.768"/><use xlink:href="#aX" x="270.092" y="306.768"/><use xlink:href="#W" x="272.337" y="306.768"/></g><g><use xlink:href="#bq" x="275.027" y="306.768"/><use xlink:href="#am" x="280.564" y="306.768"/><use xlink:href="#aY" x="284.727" y="306.768"/><use xlink:href="#al" x="291.814" y="306.768"/></g><g><use xlink:href="#as" x="295.948" y="306.768"/></g><g><use xlink:href="#af" x="298.524" y="306.768"/><use xlink:href="#ag" x="303.134" y="306.768"/><use xlink:href="#af" x="305.131" y="306.768"/><use xlink:href="#ah" x="309.742" y="306.768"/></g><g><use xlink:href="#ai" x="314.123" y="306.768"/><use xlink:href="#bf" x="317.902" y="306.768"/><use xlink:href="#bp" x="320.435" y="306.768"/><use xlink:href="#ae" x="326.1" y="306.768"/><use xlink:href="#ax" x="330.703" y="306.768"/></g><g><use xlink:href="#af" x="334.39" y="306.768"/><use xlink:href="#ag" x="339" y="306.768"/><use xlink:href="#af" x="340.997" y="306.768"/><use xlink:href="#ah" x="345.608" y="306.768"/></g><g><use xlink:href="#ai" x="349.989" y="306.768"/><use xlink:href="#aj" x="353.768" y="306.768"/><use xlink:href="#W" x="355.638" y="306.768"/></g><g><use xlink:href="#ak" x="358.327" y="306.768"/><use xlink:href="#am" x="363.56" y="306.768"/><use xlink:href="#aZ" x="367.723" y="306.768"/></g><g><use xlink:href="#al" x="372.288" y="306.768"/><use xlink:href="#aq" x="376.523" y="306.768"/><use xlink:href="#as" x="379.256" y="306.768"/><use xlink:href="#aY" x="381.932" y="306.768"/><use xlink:href="#am" x="389.02" y="306.768"/><use xlink:href="#ae" x="393.183" y="306.768"/><use xlink:href="#as" x="397.785" y="306.768"/><use xlink:href="#W" x="400.462" y="306.768"/></g><g><use xlink:href="#af" x="403.151" y="306.768"/><use xlink:href="#aX" x="407.762" y="306.768"/><use xlink:href="#W" x="410.007" y="306.768"/></g><g><use xlink:href="#au" x="412.697" y="306.768"/><use xlink:href="#am" x="418.849" y="306.768"/><use xlink:href="#aR" x="423.012" y="306.768"/><use xlink:href="#ad" x="427.71" y="306.768"/><use xlink:href="#ax" x="429.628" y="306.768"/><use xlink:href="#ad" x="433.479" y="306.768"/><use xlink:href="#ae" x="435.397" y="306.768"/><use xlink:href="#am" x="439.999" y="306.768"/><use xlink:href="#aj" x="444.162" y="306.768"/><use xlink:href="#W" x="446.032" y="306.768"/></g><g><use xlink:href="#ao" x="448.722" y="306.768"/><use xlink:href="#ae" x="454.219" y="306.768"/><use xlink:href="#ad" x="458.821" y="306.768"/><use xlink:href="#ap" x="460.739" y="306.768"/><use xlink:href="#am" x="464.51" y="306.768"/><use xlink:href="#aq" x="468.673" y="306.768"/><use xlink:href="#ar" x="471.406" y="306.768"/><use xlink:href="#ad" x="474.882" y="306.768"/><use xlink:href="#as" x="476.799" y="306.768"/><use xlink:href="#ai" x="479.476" y="306.768"/><use xlink:href="#W" x="483.256" y="306.768"/></g><g><use xlink:href="#af" x="485.945" y="306.768"/><use xlink:href="#aX" x="490.556" y="306.768"/><use xlink:href="#W" x="492.801" y="306.768"/></g><g><use xlink:href="#aW" x="495.49" y="306.768"/></g><g><use xlink:href="#am" x="499.48" y="306.768"/></g><g><use xlink:href="#br" x="503.613" y="306.768"/></g><g><use xlink:href="#al" x="507.068" y="306.768"/><use xlink:href="#ar" x="511.303" y="306.768"/><use xlink:href="#W" x="514.779" y="306.768"/></g><g><use xlink:href="#ac" x="517.468" y="306.768"/><use xlink:href="#af" x="521.967" y="306.768"/><use xlink:href="#an" x="526.577" y="306.768"/><use xlink:href="#as" x="531.156" y="306.768"/><use xlink:href="#aw" x="533.833" y="306.768"/><use xlink:href="#az" x="538.403" y="306.768"/><use xlink:href="#am" x="544.388" y="306.768"/><use xlink:href="#ar" x="548.551" y="306.768"/></g><g><use xlink:href="#as" x="551.854" y="306.768"/></g><g><use xlink:href="#am" x="554.429" y="306.768"/><use xlink:href="#aq" x="558.592" y="306.768"/><use xlink:href="#ae" x="561.325" y="306.768"/></g><g><use xlink:href="#W" x="565.903" y="306.768"/></g><g><use xlink:href="#au" x="235.345" y="321.75"/><use xlink:href="#am" x="241.474" y="321.75"/><use xlink:href="#aR" x="245.613" y="321.75"/><use xlink:href="#ad" x="250.287" y="321.75"/><use xlink:href="#ax" x="252.181" y="321.75"/></g><g><use xlink:href="#al" x="255.92" y="321.75"/><use xlink:href="#ag" x="260.131" y="321.75"/><use xlink:href="#W" x="262.105" y="321.75"/><use xlink:href="#aO" x="264.182" y="321.75"/><use xlink:href="#am" x="269.032" y="321.75"/><use xlink:href="#ae" x="273.171" y="321.75"/><use xlink:href="#as" x="277.75" y="321.75"/></g><g><use xlink:href="#am" x="280.298" y="321.75"/><use xlink:href="#aq" x="284.437" y="321.75"/><use xlink:href="#aj" x="287.146" y="321.75"/><use xlink:href="#W" x="288.992" y="321.75"/><use xlink:href="#ak" x="291.069" y="321.75"/><use xlink:href="#al" x="296.279" y="321.75"/><use xlink:href="#ag" x="300.49" y="321.75"/><use xlink:href="#ag" x="302.464" y="321.75"/><use xlink:href="#al" x="304.437" y="321.75"/><use xlink:href="#ar" x="308.648" y="321.75"/><use xlink:href="#aj" x="312.1" y="321.75"/><use xlink:href="#W" x="313.946" y="321.75"/><use xlink:href="#aW" x="316.023" y="321.75"/></g><g><use xlink:href="#am" x="319.986" y="321.75"/></g><g><use xlink:href="#br" x="324.093" y="321.75"/></g><g><use xlink:href="#al" x="327.521" y="321.75"/><use xlink:href="#ar" x="331.732" y="321.75"/></g><g><use xlink:href="#aP" x="235.345" y="336.732"/></g><g><use xlink:href="#am" x="239.956" y="336.732"/><use xlink:href="#ar" x="244.095" y="336.732"/><use xlink:href="#am" x="247.546" y="336.732"/></g><g><use xlink:href="#al" x="251.549" y="336.732"/><use xlink:href="#aq" x="255.76" y="336.732"/></g><g><use xlink:href="#ax" x="258.381" y="336.732"/><use xlink:href="#aw" x="262.208" y="336.732"/><use xlink:href="#W" x="266.755" y="336.732"/><use xlink:href="#ba" x="268.832" y="336.732"/></g><g><use xlink:href="#ar" x="273.603" y="336.732"/><use xlink:href="#ar" x="277.054" y="336.732"/><use xlink:href="#af" x="280.506" y="336.732"/><use xlink:href="#ax" x="285.093" y="336.732"/><use xlink:href="#ad" x="288.92" y="336.732"/><use xlink:href="#al" x="290.814" y="336.732"/></g><g><use xlink:href="#as" x="294.921" y="336.732"/></g><g><use xlink:href="#am" x="297.47" y="336.732"/></g><g><use xlink:href="#aW" x="235.345" y="351.714"/><use xlink:href="#aw" x="239.852" y="351.714"/><use xlink:href="#am" x="244.398" y="351.714"/><use xlink:href="#W" x="248.537" y="351.714"/><use xlink:href="#bj" x="250.615" y="351.714"/><use xlink:href="#ag" x="252.628" y="351.714"/><use xlink:href="#ar" x="254.602" y="351.714"/><use xlink:href="#af" x="258.054" y="351.714"/><use xlink:href="#ae" x="262.64" y="351.714"/><use xlink:href="#ah" x="267.218" y="351.714"/><use xlink:href="#W" x="271.397" y="351.714"/><use xlink:href="#bj" x="273.475" y="351.714"/><use xlink:href="#ae" x="275.488" y="351.714"/><use xlink:href="#ar" x="280.067" y="351.714"/></g><g><use xlink:href="#as" x="283.343" y="351.714"/><use xlink:href="#ad" x="285.996" y="351.714"/><use xlink:href="#as" x="287.889" y="351.714"/><use xlink:href="#an" x="290.542" y="351.714"/><use xlink:href="#as" x="295.096" y="351.714"/></g><g><use xlink:href="#am" x="297.645" y="351.714"/><use xlink:href="#W" x="301.784" y="351.714"/><use xlink:href="#af" x="303.862" y="351.714"/><use xlink:href="#aX" x="308.448" y="351.714"/><use xlink:href="#W" x="310.67" y="351.714"/><use xlink:href="#bm" x="312.747" y="351.714"/><use xlink:href="#ad" x="316.758" y="351.714"/><use xlink:href="#aX" x="318.652" y="351.714"/></g><g><use xlink:href="#am" x="320.785" y="351.714"/><use xlink:href="#W" x="324.924" y="351.714"/><use xlink:href="#ac" x="327.002" y="351.714"/><use xlink:href="#ax" x="331.476" y="351.714"/><use xlink:href="#ad" x="335.304" y="351.714"/><use xlink:href="#am" x="337.197" y="351.714"/><use xlink:href="#ae" x="341.336" y="351.714"/><use xlink:href="#ax" x="345.915" y="351.714"/></g><g><use xlink:href="#am" x="349.574" y="351.714"/><use xlink:href="#aj" x="353.713" y="351.714"/><use xlink:href="#W" x="355.559" y="351.714"/><use xlink:href="#aW" x="357.636" y="351.714"/><use xlink:href="#aw" x="362.143" y="351.714"/><use xlink:href="#am" x="366.689" y="351.714"/><use xlink:href="#W" x="370.828" y="351.714"/><use xlink:href="#bq" x="372.906" y="351.714"/><use xlink:href="#al" x="378.419" y="351.714"/><use xlink:href="#ag" x="382.63" y="351.714"/><use xlink:href="#ag" x="384.604" y="351.714"/><use xlink:href="#ai" x="386.577" y="351.714"/><use xlink:href="#aY" x="390.333" y="351.714"/><use xlink:href="#W" x="397.396" y="351.714"/><use xlink:href="#ba" x="399.474" y="351.714"/><use xlink:href="#ax" x="404.004" y="351.714"/></g><g><use xlink:href="#al" x="407.743" y="351.714"/><use xlink:href="#aR" x="411.954" y="351.714"/><use xlink:href="#am" x="416.629" y="351.714"/><use xlink:href="#aY" x="420.768" y="351.714"/><use xlink:href="#ai" x="427.831" y="351.714"/><use xlink:href="#W" x="431.586" y="351.714"/><use xlink:href="#af" x="433.664" y="351.714"/><use xlink:href="#aX" x="438.25" y="351.714"/><use xlink:href="#W" x="440.472" y="351.714"/><use xlink:href="#ac" x="442.549" y="351.714"/><use xlink:href="#ax" x="447.024" y="351.714"/><use xlink:href="#ad" x="450.851" y="351.714"/><use xlink:href="#am" x="452.745" y="351.714"/><use xlink:href="#ae" x="456.884" y="351.714"/><use xlink:href="#ax" x="461.462" y="351.714"/></g><g><use xlink:href="#am" x="465.122" y="351.714"/><use xlink:href="#ar" x="469.261" y="351.714"/><use xlink:href="#aj" x="472.712" y="351.714"/><use xlink:href="#W" x="474.558" y="351.714"/><use xlink:href="#bq" x="476.636" y="351.714"/><use xlink:href="#al" x="482.149" y="351.714"/><use xlink:href="#ag" x="486.36" y="351.714"/><use xlink:href="#ag" x="488.333" y="351.714"/><use xlink:href="#ai" x="490.307" y="351.714"/><use xlink:href="#aY" x="494.063" y="351.714"/><use xlink:href="#W" x="501.126" y="351.714"/><use xlink:href="#ao" x="503.203" y="351.714"/><use xlink:href="#ae" x="508.677" y="351.714"/><use xlink:href="#ad" x="513.255" y="351.714"/><use xlink:href="#ap" x="515.149" y="351.714"/><use xlink:href="#am" x="518.896" y="351.714"/><use xlink:href="#aq" x="523.035" y="351.714"/><use xlink:href="#ar" x="525.744" y="351.714"/><use xlink:href="#ad" x="529.196" y="351.714"/><use xlink:href="#as" x="531.089" y="351.714"/><use xlink:href="#ai" x="533.742" y="351.714"/></g></svg>