<svg xmlns="http://www.w3.org/2000/svg" xmlns:xlink="http://www.w3.org/1999/xlink" width="793.701" height="1122.52" viewBox="0 0 595.276 841.89" version="1.2"><defs><symbol overflow="visible" id="a"><path d="M2.969-4.531H.359v-.75h3.938L.969.187l-.64-.406zm0 0"/></symbol><symbol overflow="visible" id="b"><path d="M.297-2.672c0-.84.195-1.515.594-2.015.34-.446.765-.672 1.265-.672.496 0 .926.226 1.281.671.383.5.579 1.184.579 2.047 0 .868-.196 1.551-.579 2.047-.355.45-.785.672-1.28.672-.493 0-.915-.223-1.266-.672C.492-1.09.297-1.785.297-2.672zm.781 0c0 .586.102 1.074.313 1.469.195.375.453.562.765.562.309 0 .57-.187.781-.562.208-.383.313-.863.313-1.438 0-.57-.105-1.05-.313-1.437-.21-.371-.472-.563-.78-.563-.305 0-.56.192-.766.563-.211.375-.313.848-.313 1.406zm0 0"/></symbol><symbol overflow="visible" id="d"><path d="M.64 0H1v-4.375H.64zm0 0"/></symbol><symbol overflow="visible" id="e"><path d="M1.453 0h.406l1.422-4.375h-.375l-.781 2.516c-.156.53-.281.937-.453 1.468H1.64c-.172-.53-.282-.937-.454-1.468l-.78-2.516H.03zm0 0"/></symbol><symbol overflow="visible" id="f"><path d="M.75-.156c.156 0 .313-.11.313-.313A.317.317 0 0 0 .75-.797a.317.317 0 0 0-.313.328c0 .203.157.313.313.313zm0 0"/></symbol><symbol overflow="visible" id="h"><path d="M.266 0h2.64v-.313h-1.36c-.234 0-.484.016-.718.032 1.156-1.078 1.86-2 1.86-2.922 0-.75-.438-1.25-1.204-1.25-.53 0-.906.266-1.234.625l.219.219c.25-.313.594-.547.984-.547.61 0 .89.422.89.968 0 .797-.593 1.688-2.077 2.97zm0 0"/></symbol><symbol overflow="visible" id="i"><path d="M1.61.078c.796 0 1.28-.75 1.28-2.281 0-1.516-.484-2.25-1.28-2.25-.798 0-1.298.734-1.298 2.25C.313-.672.813.078 1.61.078zm0-.297c-.579 0-.938-.656-.938-1.984 0-1.297.36-1.953.937-1.953.563 0 .938.656.938 1.953 0 1.328-.375 1.984-.938 1.984zm0 0"/></symbol><symbol overflow="visible" id="j"><path d="M.547 0h2.265v-.313h-.921v-4.062h-.282c-.203.125-.468.219-.828.281v.235h.766v3.546h-1zm0 0"/></symbol><symbol overflow="visible" id="k"><path d="M4.36-.938h.327v-3.968H4.36v.75H2.72v.265h1.64v.766H2.72v.266h1.64zM3.405-2.28c-.875.156-1.61.203-2.36.203H.985V-4.5H.656v2.688h.39c.766 0 1.5-.032 2.391-.204zM1.656.016v-1.282h-.312V.281h3.5V.016zm0 0"/></symbol><symbol overflow="visible" id="l"><path d="M2.016-4.422h-.313v1.063C1.703-2.391.984-1.375.281-1l.203.25c.579-.328 1.157-1.047 1.391-1.875.234.781.797 1.453 1.375 1.766l.203-.25c-.703-.36-1.437-1.329-1.437-2.25zm3.312 1.734h-.937v-2.218h-.313V.422h.313v-2.844h.937zm0 0"/></symbol><symbol overflow="visible" id="m"><path d="M4.36.078H1.671v-.812h2.687zM4.36-1H1.671v-.766h-.328v2.11h3.343v-2.11H4.36zM1.78-2.5c-.61 0-1.047-.406-1.047-.938 0-.546.438-.937 1.047-.937.61 0 1.047.39 1.047.938 0 .53-.437.937-1.047.937zM4.36-4.906v1.312H3.125c-.078-.64-.61-1.062-1.344-1.062-.797 0-1.343.5-1.343 1.218 0 .72.546 1.22 1.343 1.22.75 0 1.282-.438 1.344-1.095h1.234v1.266h.329v-2.86zm0 0"/></symbol><symbol overflow="visible" id="n"><path d="M1.266-3.203H4.25v1.11H1.266zm1.64 2.64v-1.25h1.656v-2.703H4.25v1.032H1.266v-1.032H.937v2.704h1.657v1.25H.344v.265h4.828v-.266zm0 0"/></symbol><symbol overflow="visible" id="o"><path d="M4.188-3.781c0 .64 0 1.36-.188 2.36l.328.046c.188-1.047.188-1.766.188-2.406v-.531H.859v.25h3.329zM2.625-.671V-2.61h-.313v1.937H.345v.281h4.812v-.28zm0 0"/></symbol><symbol overflow="visible" id="p"><path d="M2.656 0H4.75l2.734-8.875H5.688L4.53-4.547c-.281.969-.484 1.86-.75 2.86H3.72c-.297-1-.469-1.891-.75-2.86L1.797-8.875h-1.86zm0 0"/></symbol><symbol overflow="visible" id="q"><path d="M1.094 0h1.765v-8.875H1.094zm0 0"/></symbol><symbol overflow="visible" id="r"><path d="M1.953.234c.625 0 1.11-.5 1.11-1.156 0-.656-.485-1.156-1.11-1.156-.625 0-1.11.5-1.11 1.156 0 .656.485 1.156 1.11 1.156zm0 0"/></symbol><symbol overflow="visible" id="t"><path d="M6.297-1.516v-2.296h3.14v-1.266H3.266v-2.906h6.093V-9.25H1.672v5.438h3.031v2.296H.516v1.297h10v-1.297zm0 0"/></symbol><symbol overflow="visible" id="u"><path d="M5.5-8.64c1.516 0 2.375.296 2.375.921 0 .61-.86.922-2.375.922-1.5 0-2.36-.312-2.36-.922 0-.625.86-.922 2.36-.922zm0 3.03c2.438 0 4-.796 4-2.109 0-1.328-1.563-2.125-4-2.125-2.438 0-3.984.797-3.984 2.125 0 1.313 1.546 2.11 3.984 2.11zM7.734-.327H3.22V-1.61h4.515zm2.75-3.453v-1.266H.516v1.266h4.187v.937H1.672v3.75h7.625v-3.75h-3v-.937zm0 0"/></symbol><symbol overflow="visible" id="v"><path d="M1.563-4.547C3.5-4.813 4.858-5.625 5.515-6.766c.656 1.141 2.015 1.954 3.937 2.22l.563-1.235C7.78-6.047 6.609-7.125 6.453-8.188h3.14v-1.25H1.407v1.25h3.172C4.422-7.125 3.25-6.046 1-5.78zm8.937.64H.531v1.25h4.157v3.704h1.578v-3.703H10.5zm0 0"/></symbol><symbol overflow="visible" id="w"><path d="M9.688-10H8.094v8.047h1.594zM7.28-4.875c-1.797-.578-2.578-1.984-2.578-3.438V-9.39H3.11v1.079c0 1.453-.796 3-2.625 3.624l.797 1.266c1.282-.453 2.14-1.344 2.657-2.469a4.16 4.16 0 0 0 2.53 2.266zM3.921-.422v-2.297H2.345V.844h7.61V-.422zm0 0"/></symbol><symbol overflow="visible" id="x"><path d="M7.656-6.36H3.36v-.984h4.297zm1.578-3.296H7.656v1.125H3.36v-1.125H1.781v4.531h7.453zM3.25-2.187H1.672v3.03h7.734V-.421H3.25zM.5-4.345v1.235h4.36v1.75h1.577v-1.75h4.079v-1.235zm0 0"/></symbol><symbol overflow="visible" id="y"><path d="M9.328-7.563h-6v-.968h5.906v-1.266H1.766v3.485h7.562zM3.234-.938h6.047v-2.921H1.656v1.187H7.72v.625H1.672V.938h7.89v-1.22H3.234zM.531-5.734v1.25h9.985v-1.25zm0 0"/></symbol><symbol overflow="visible" id="z"><path d="M9.688-10H8.094v7.922h1.594zm-7.47 3.5c0-.906.641-1.438 1.454-1.438.828 0 1.453.532 1.453 1.438 0 .89-.625 1.438-1.453 1.438-.813 0-1.453-.547-1.453-1.438zm4.454 0c0-1.625-1.297-2.797-3-2.797-1.688 0-3 1.172-3 2.797 0 1.61 1.312 2.797 3 2.797 1.703 0 3-1.188 3-2.797zM3.922-.422v-2.437H2.344V.844h7.61V-.422zm0 0"/></symbol><symbol overflow="visible" id="A"><path d="M7.672-7.438H3.297v-1.03h4.375zm1.547-2.25H1.75v3.47h7.469zm1.265 5.297v-1.234H.516v1.234h4.187v.704H1.656v1.156H7.72v.578H1.672V.953h7.89V-.234H3.234V-.86h6.047v-2.829h-3v-.703zm0 0"/></symbol><symbol overflow="visible" id="B"><path d="M10.172-4.969c-2.516-.406-3.875-2.062-3.875-3.64v-.782H4.609v.782C4.61-7.08 3.25-5.375.75-4.97l.656 1.297c1.922-.344 3.328-1.39 4.047-2.734.719 1.36 2.14 2.39 4.078 2.734zM6.25-1.547v-2.469H4.672v2.47H.516v1.265h10v-1.266zm0 0"/></symbol><symbol overflow="visible" id="C"><path d="M.938-8.64v1.265h2.796c-.218 2.156-1.14 3.75-3.359 5.047l.922 1.11C4.375-3.017 5.28-5.548 5.28-8.642zM8.468-10v4.156h-.984v-3.875H6V.562h1.484v-5.14h.985v5.61h1.5V-10zm0 0"/></symbol><symbol overflow="visible" id="D"><path d="M2.64-6.438c2.25-.609 3.782-1.906 4.641-3.578.86 1.594 2.36 2.829 4.594 3.391l1.203-2.094c-2.828-.734-4.234-2.484-4.422-4.328h3.906v-2.203H8.642v-2.094H5.844v2.094H1.969v2.203h3.86C5.64-11.109 4.28-9.312 1.405-8.562zm6-.562H5.845v2.938C4.094-4 2.406-4 .984-4l.36 2.234c3.312-.015 7.86-.03 12.015-.875l-.171-2.015c-1.47.234-3 .36-4.547.468zm5.594-10.531V1.844H17v-19.375zm0 0"/></symbol><symbol overflow="visible" id="E"><path d="M16.938-17.484h-2.782v14.062h2.781zm-4.204 8.953c-3.156-1.016-4.5-3.485-4.5-6.016v-1.89H5.438v1.89c0 2.547-1.391 5.25-4.594 6.344L2.25-6C4.484-6.766 6-8.344 6.875-10.297c.844 1.797 2.313 3.235 4.453 3.969zM6.86-.734v-4.032H4.094V1.47h13.328V-.734zm0 0"/></symbol><symbol overflow="visible" id="F"><path d="M9.578-.266c-2.578 0-3.89-.453-3.89-1.453S7-3.187 9.578-3.187c2.578 0 3.906.468 3.906 1.468S12.156-.266 9.578-.266zm0-5.015C5.406-5.281 2.891-4 2.891-1.72c0 2.266 2.515 3.547 6.687 3.547 4.172 0 6.719-1.281 6.719-3.547C16.297-4 13.75-5.28 9.578-5.28zm1.453-3.14v-1.595h5.36v-2.203H5.78v-2.265h10.516v-2.204H3.047v6.672h5.219v1.594H.922v2.188H18.39v-2.188zm0 0"/></symbol><symbol overflow="visible" id="G"><path d="M12.266-15.656H7.969v-1.985H5.172v1.985H.906v2.156h11.36zM4.484-9.422c0-.937.86-1.437 2.094-1.437 1.25 0 2.11.5 2.11 1.437 0 .953-.86 1.453-2.11 1.453-1.234 0-2.094-.5-2.094-1.453zm6.844 0c0-2.047-1.953-3.453-4.75-3.453-2.781 0-4.734 1.406-4.734 3.453 0 2.063 1.953 3.453 4.734 3.453 2.797 0 4.75-1.39 4.75-3.453zM9.813-.25c-2.438 0-3.735-.438-3.735-1.36 0-.952 1.297-1.374 3.734-1.374 2.438 0 3.735.421 3.735 1.375 0 .921-1.297 1.359-3.735 1.359zm0-4.797c-3.985 0-6.485 1.266-6.485 3.438 0 2.14 2.5 3.437 6.485 3.437 3.984 0 6.484-1.297 6.484-3.437 0-2.172-2.5-3.438-6.485-3.438zm8.765-7.422v-2.265H16.11v-2.75h-2.765v12.218h2.765V-8.28h2.47v-2.25h-2.47v-1.938zm0 0"/></symbol><symbol overflow="visible" id="I"><path d="M5.5-11.14h8.25v2.718H5.5zm5.516 8.453v-3.547h5.468v-10.079H13.75v3H5.5v-3H2.75v10.079h5.484v3.546H.906v2.25h17.485v-2.25zm0 0"/></symbol><symbol overflow="visible" id="J"><path d="M15.938-4.766c.78-4.109.78-6.828.78-9.234v-1.86H2.689v2.204h11.25c0 2.25-.032 4.937-.766 8.578zM9.858-2.75v-6.64H7.094v6.64H.922v2.219H18.39V-2.75zm0 0"/></symbol><symbol overflow="visible" id="K"><path d="M8.156-16.016H5.375v2.782c0 3.671-1.469 7.421-4.75 8.937l1.719 2.219c2.172-1.094 3.61-3.094 4.453-5.578.797 2.328 2.203 4.218 4.312 5.25L12.75-4.61c-3.188-1.422-4.594-4.97-4.594-8.625zm6.188-1.515v6.062h-3.719v2.219h3.719V1.844h2.765v-19.375zm0 0"/></symbol><symbol overflow="visible" id="L"><path d="M.906 0h10.39v-2.594H7.923c-.703 0-1.734.078-2.516.156 2.828-2.765 5.157-5.78 5.157-8.593 0-2.89-1.938-4.781-4.876-4.781-2.125 0-3.5.843-4.937 2.343l1.688 1.688c.765-.86 1.718-1.594 2.843-1.594 1.469 0 2.328.938 2.328 2.516 0 2.39-2.5 5.296-6.703 9.078zm0 0"/></symbol><symbol overflow="visible" id="M"><path d="M6.188.297c3.14 0 5.234-2.766 5.234-8.125 0-5.344-2.094-7.984-5.235-7.984-3.171 0-5.265 2.624-5.265 7.984 0 5.36 2.094 8.125 5.266 8.125zm0-2.422c-1.344 0-2.344-1.328-2.344-5.703 0-4.328 1-5.594 2.344-5.594 1.312 0 2.328 1.266 2.328 5.594 0 4.375-1.016 5.703-2.329 5.703zm0 0"/></symbol><symbol overflow="visible" id="N"><path d="M1.719 0h9.328v-2.5H8.14v-13.016H5.844c-.985.61-2.047 1-3.594 1.297v1.906h2.797V-2.5H1.719zm0 0"/></symbol><symbol overflow="visible" id="O"><path d="M5.11-3.14c.234-1.626.234-2.782.234-3.485v-.484H.906v.656h3.656c0 .719-.015 1.781-.265 3.234zM3.093-4.595h-.797v2.703c-.656.016-1.313.032-1.86.032l.079.671c1.562 0 3.625-.046 5.453-.343l-.047-.578c-.89.109-1.875.156-2.828.203zm5.562.203h-1.39v-3.671h-.813v8.78h.813v-4.437h1.39zm0 0"/></symbol><symbol overflow="visible" id="P"><path d="M5.734-7.125H3.531v-.984h-.797v.984H.547v.64h5.187zM1.797-4.437c0-.594.531-.97 1.344-.97.796 0 1.343.376 1.343.954 0 .594-.546.969-1.343.969-.813 0-1.344-.36-1.344-.954zm3.437 0c0-.97-.843-1.594-2.093-1.594s-2.11.625-2.11 1.578c0 .969.86 1.594 2.11 1.594s2.093-.625 2.093-1.579zm-3.593 3h4.89V.733h.813v-2.828H1.64zm7-4.204H7.344v-2.406H6.53v5.485h.813V-4.97H8.64zm0 0"/></symbol><symbol overflow="visible" id="Q"><path d="M1.031-7.11v.641h3.313C4.172-4.375 3-2.687.64-1.562l.421.656C3.985-2.344 5.157-4.578 5.157-7.11zm5.89-.952v8.78h.813v-8.78zm0 0"/></symbol><symbol overflow="visible" id="R"><path d="M8.031-5.578c-1.594-.188-3.125-1.047-3.125-2.11v-.343h-.828v.344c0 1.062-1.547 1.921-3.14 2.109l.28.594c1.391-.172 2.72-.782 3.266-1.72.563.938 1.891 1.548 3.282 1.72zM8.47-3.75v-.656H.516v.656h3.562v.875h-2.61v.61h5.188v.812H1.5V.625h6.203V0H2.281v-.875h5.172v-2H4.891v-.875zm0 0"/></symbol><symbol overflow="visible" id="S"><path d="M5.219-5.781v.656h1.734v2.297h.813v-5.219h-.813v2.266zm.484 2c-1.281-.453-2.14-1.563-2.14-2.688v-.297H5.5v-.656H.797v.656h1.969v.297c0 1.266-.907 2.453-2.22 2.938l.423.625a3.776 3.776 0 0 0 2.219-2.235 3.577 3.577 0 0 0 2.109 1.985zM4.86.094c-1.328 0-2.125-.375-2.125-1 0-.64.797-1.031 2.125-1.031 1.329 0 2.125.39 2.125 1.03 0 .626-.796 1-2.125 1zm0-2.64c-1.796 0-2.921.593-2.921 1.64C1.938.125 3.063.719 4.858.719c1.797 0 2.922-.594 2.922-1.625 0-1.047-1.125-1.64-2.922-1.64zm0 0"/></symbol><symbol overflow="visible" id="T"><path d="M2.25-5.219h4.484v1.625H2.25zm2.64 4.157v-1.891h2.641v-4.485h-.797v1.563H2.25v-1.563h-.797v4.485h2.625v1.89H.516v.657h7.968v-.656zm0 0"/></symbol><symbol overflow="visible" id="U"><path d="M4.484.11c-1.406 0-2.203-.282-2.203-.813 0-.516.797-.797 2.203-.797 1.422 0 2.204.281 2.204.797 0 .531-.782.812-2.204.812zm0-2.204c-1.906 0-3 .485-3 1.39 0 .923 1.094 1.423 3 1.423C6.391.719 7.5.219 7.5-.703c0-.906-1.11-1.39-3.016-1.39zm.407-1.312v-.86h2.64v-.625H2.36v-.875H7.25v-.609H2.36v-.813h5.124v-.625H1.563v3.547h2.515v.86H.516v.64h7.953v-.64zm0 0"/></symbol><symbol overflow="visible" id="V"><path d="M7.734-8.063h-.812v6.454h.812zM5.813-3.686c-1.313-.47-2.204-1.672-2.204-3v-.891h-.796v.89A3.404 3.404 0 0 1 .608-3.53l.422.656c1.032-.422 1.813-1.281 2.188-2.344.39 1 1.172 1.797 2.172 2.172zM2.874-.126v-2.094h-.797v2.75H8v-.656zm0 0"/></symbol><symbol overflow="visible" id="W"><path d="M6.672-4.563h-4.36v-1.296h4.36zm.797-3.14h-.797V-6.5h-4.36v-1.203h-.796v3.797h5.953zm1.015 4.86H.516v.64h3.562V.734h.797v-2.937h3.61zm0 0"/></symbol><symbol overflow="visible" id="Y"><path d="M8.11-3.766c-1.547-.28-3.22-1.578-3.22-3.03v-.673h-.843v.672c0 1.453-1.672 2.75-3.203 3.031l.328.657c1.36-.282 2.734-1.188 3.297-2.454.562 1.266 1.953 2.172 3.297 2.454zM4.874-1.078v-2.14h-.813v2.14H.517v.656H8.5v-.656zm0 0"/></symbol><symbol overflow="visible" id="Z"><path d="M5.14-4.313c.22-1.156.22-2.03.22-2.609v-.453H.983v.656h3.594c0 .563-.031 1.313-.234 2.313zm.829.532c-.89.125-1.89.203-2.86.234v-1.875h-.78v1.906C1.655-3.5 1.015-3.5.452-3.5l.078.656c1.563 0 3.672-.047 5.5-.344zm-3.36 1.734h-.812V.531H7.64v-.656H2.609zm4.75-3.156v-2.86h-.812v6.626h.812v-3.094h1.266v-.672zm0 0"/></symbol><symbol overflow="visible" id="aa"><path d="M6.906-8.063V.735h.797v-8.796zm-5.89.75v5.922h4.14v-5.921H4.36V-5H1.813v-2.313zm.796 2.954H4.36v2.312H1.813zm0 0"/></symbol><symbol overflow="visible" id="ab"><path d="M1.422-5.453c0-.813.64-1.406 1.5-1.406s1.484.593 1.484 1.406c0 .812-.625 1.406-1.484 1.406-.86 0-1.5-.594-1.5-1.406zm5.531-.688v1.375h-1.89c.078-.218.109-.453.109-.687 0-.266-.031-.484-.11-.688zm0 2.032v1.25h.813v-5.204h-.813v1.266H4.687c-.39-.453-1.03-.734-1.765-.734-1.313 0-2.266.843-2.266 2.078 0 1.234.953 2.094 2.266 2.094.734 0 1.375-.282 1.765-.75zM4.843.078C3.532.078 2.72-.312 2.72-.969c0-.672.812-1.062 2.125-1.062C6.187-2.031 7-1.641 7-.97 7-.313 6.187.078 4.844.078zm0-2.734c-1.796 0-2.905.625-2.905 1.687C1.938.094 3.046.72 4.844.72 6.656.719 7.78.094 7.78-.97c0-1.062-1.125-1.687-2.937-1.687zm0 0"/></symbol><symbol overflow="visible" id="ac"><path d="M1.828-4.11h3.25v-3.14H1v.656h3.266v1.828H1.03v3.375h.719c1.516 0 2.844-.062 4.438-.328l-.079-.656c-1.546.25-2.843.313-4.28.313zm5.094-3.968V.734h.812v-8.812zm0 0"/></symbol><symbol overflow="visible" id="ad"><path d="M6.953-.047H2.922V-1.14h4.031zm0-1.719H2.922v-1.062h-.797V.594H7.75v-3.422h-.797zM4.125-4.234H1.75v-1.407h2.375zm2.828-3.813v2.156H4.922v-1.718h-.797v1.343H1.75v-1.343H.953v4.03h3.969v-1.655h2.031v1.984h.813v-4.797zm0 0"/></symbol><symbol overflow="visible" id="ae"><path d="M7.734-8.047h-.812v6.406h.812zm-6.218 2.75c0-.844.64-1.453 1.484-1.453.875 0 1.531.61 1.531 1.453 0 .875-.656 1.484-1.531 1.484-.844 0-1.484-.609-1.484-1.484zm3.796 0c0-1.25-.984-2.156-2.312-2.156-1.297 0-2.281.906-2.281 2.156 0 1.281.984 2.188 2.281 2.188 1.328 0 2.313-.907 2.313-2.188zM2.876-.125v-2.172h-.797V.531H8v-.656zm0 0"/></symbol><symbol overflow="visible" id="af"><path d="M7-8.188v3.454h-.734v-3.313H5.062v5.844c-1.328-.703-1.78-2.203-1.78-3.766v-.25H4.64v-1.047H.547v1.047H2.03v.25c0 1.735-.437 3.328-1.781 4.11l.781.984c.844-.5 1.375-1.36 1.657-2.39.328.89.843 1.624 1.656 2.046l.718-.968V.437h1.204v-4.109H7v4.5h1.234v-9.015zm0 0"/></symbol><symbol overflow="visible" id="ag"><path d="M5.531-4.438c-.984.204-1.875.266-3.484.282v-2.282h2.75v-1.03H.766v4.343h.75c2 0 3.03-.047 4.14-.297zM3-2.344H1.703V.687h6.14v-1.03H3zm4.531-3.375v-2.468H6.234v6.53h1.297v-3H8.72v-1.062zm0 0"/></symbol><symbol overflow="visible" id="ah"><path d="M6.688-.297H3.265v-.766h3.421zm0-1.75H3.265v-.797H1.984V.72H7.97v-3.563H6.687zM3.796-4.53H2.094v-1.063h1.703zm2.875-3.657v2.063h-1.61v-1.594H3.798v1.14H2.094v-1.14H.797V-3.5h4.266v-1.578h1.609v1.844h1.297v-4.954zm0 0"/></symbol><symbol overflow="visible" id="ai"><path d="M7.922-8.172H6.609v6.485h1.313zm-6.11 2.86c0-.735.532-1.172 1.188-1.172.688 0 1.188.437 1.188 1.171 0 .735-.5 1.172-1.188 1.172-.656 0-1.188-.437-1.188-1.171zm3.641 0C5.453-6.641 4.391-7.61 3-7.61c-1.375 0-2.453.968-2.453 2.296C.547-4 1.625-3.03 3-3.03c1.39 0 2.453-.969 2.453-2.281zM3.203-.345v-1.984H1.906V.687h6.235v-1.03zm0 0"/></symbol><symbol overflow="visible" id="ak"><path d="M.86-7.375v6.078h4.343v-6.078zm3.062 1.031v4.016H2.14v-4.016zm2.687-1.843V.858h1.282v-9.046zm0 0"/></symbol><symbol overflow="visible" id="al"><path d="M1.922-3.813h2.14v-3.5H.656v1.047h2.172v1.438H.672v3.672h.625c1.094 0 2.078-.032 3.234-.219l-.11-1.047c-.89.14-1.671.188-2.5.203zm5.016-4.374v3.406h-.813v-3.25H4.922V.406h1.203V-3.75h.813V.828h1.218v-9.015zm0 0"/></symbol><symbol overflow="visible" id="am"><path d="M3.328-7.578c-1.422 0-2.484.922-2.484 2.219 0 1.296 1.062 2.218 2.484 2.218 1.406 0 2.485-.921 2.485-2.218S4.734-7.58 3.328-7.58zm0 1.11c.688 0 1.219.405 1.219 1.109 0 .703-.531 1.125-1.219 1.125-.703 0-1.234-.422-1.234-1.125 0-.704.531-1.11 1.234-1.11zm3.328-1.72V.86h1.282v-9.046zM.625-.968c1.563 0 3.672-.016 5.61-.407l-.079-.938c-1.89.282-4.11.297-5.703.297zm0 0"/></symbol><symbol overflow="visible" id="an"><path d="M5.734-7.39H3.72v-.844H2.422v.843h-2v1.016h5.312zm-3.64 2.968c0-.453.39-.687.984-.687.578 0 .985.234.985.687 0 .453-.407.672-.985.672-.594 0-.984-.219-.984-.672zm3.203 0c0-.984-.922-1.656-2.219-1.656-1.297 0-2.219.672-2.219 1.656 0 .984.922 1.656 2.22 1.656 1.296 0 2.218-.671 2.218-1.656zM1.516-1.109h4.718V.859h1.297v-3.015H1.516zm7.203-4.75H7.53v-2.329H6.234v5.657h1.297v-2.266H8.72zm0 0"/></symbol><symbol overflow="visible" id="ao"><path d="M1.766-5.313c0-.734.484-1.203 1.14-1.203.672 0 1.156.47 1.156 1.204 0 .75-.484 1.218-1.156 1.218-.656 0-1.14-.468-1.14-1.218zm4.906-.578v1.157H5.219c.047-.172.078-.375.078-.579 0-.203-.031-.406-.078-.578zm0 2.188v2.125h1.297v-6.61H6.672v1.266H4.656c-.437-.453-1.047-.719-1.75-.719-1.328 0-2.375.985-2.375 2.329 0 1.359 1.047 2.343 2.375 2.343.703 0 1.328-.281 1.781-.734zm-3.36 3.36V-2.22H2.016V.687h6.156v-1.03zm0 0"/></symbol><symbol overflow="visible" id="ap"><path d="M8.578-3.828H7.391c.234-1.25.234-2.172.234-3.016v-.812H1.359v1.031h5c0 .781-.015 1.656-.25 2.797H.438v1.047h3.359V.844h1.312v-3.625h3.47zm0 0"/></symbol></defs><g fill="#898989"><use xlink:href="#a" x="28.312" y="819.169"/><use xlink:href="#b" x="32.591" y="819.169"/></g><g fill="#898989"><use xlink:href="#c" x="36.906" y="819.169"/><use xlink:href="#c" x="38.996" y="819.169"/></g><g fill="#595757"><use xlink:href="#d" x="506.297" y="818.993"/><use xlink:href="#e" x="507.807" y="818.993"/><use xlink:href="#f" x="510.984" y="818.993"/><use xlink:href="#g" x="512.368" y="818.993"/><use xlink:href="#h" x="513.926" y="818.993"/><use xlink:href="#i" x="517.012" y="818.993"/><use xlink:href="#h" x="520.099" y="818.993"/><use xlink:href="#j" x="523.185" y="818.993"/><use xlink:href="#k" x="526.271" y="818.993"/><use xlink:href="#g" x="531.664" y="818.993"/><use xlink:href="#l" x="533.223" y="818.993"/><use xlink:href="#m" x="538.616" y="818.993"/><use xlink:href="#n" x="544.009" y="818.993"/><use xlink:href="#o" x="549.403" y="818.993"/></g><use xlink:href="#p" x="226.883" y="403.236"/><use xlink:href="#q" x="234.051" y="403.236"/><use xlink:href="#r" x="237.766" y="403.236"/><use xlink:href="#s" x="241.434" y="403.236"/><use xlink:href="#t" x="244.55" y="403.236"/><use xlink:href="#u" x="255.337" y="403.236"/><use xlink:href="#v" x="266.124" y="403.236"/><use xlink:href="#w" x="276.911" y="403.236"/><use xlink:href="#s" x="287.697" y="403.236"/><use xlink:href="#x" x="290.814" y="403.236"/><use xlink:href="#y" x="301.601" y="403.236"/><use xlink:href="#s" x="312.387" y="403.236"/><use xlink:href="#z" x="315.504" y="403.236"/><use xlink:href="#A" x="326.291" y="403.236"/><use xlink:href="#s" x="337.077" y="403.236"/><use xlink:href="#B" x="340.194" y="403.236"/><use xlink:href="#C" x="350.981" y="403.236"/><use xlink:href="#s" x="361.767" y="403.236"/><use xlink:href="#s" x="364.884" y="403.236"/><use xlink:href="#s" x="368" y="403.236"/><g fill="#595757"><use xlink:href="#D" x="198.844" y="342.379"/><use xlink:href="#E" x="217.721" y="342.379"/><use xlink:href="#F" x="236.598" y="342.379"/><use xlink:href="#G" x="255.475" y="342.379"/><use xlink:href="#H" x="274.352" y="342.379"/><use xlink:href="#I" x="279.805" y="342.379"/><use xlink:href="#J" x="298.682" y="342.379"/><use xlink:href="#K" x="317.559" y="342.379"/><use xlink:href="#H" x="336.437" y="342.379"/><use xlink:href="#L" x="341.89" y="342.379"/><use xlink:href="#M" x="353.824" y="342.379"/><use xlink:href="#L" x="365.759" y="342.379"/><use xlink:href="#N" x="377.693" y="342.379"/></g><g fill="#595757"><use xlink:href="#O" x="167.432" y="308.707"/><use xlink:href="#P" x="176.144" y="308.707"/><use xlink:href="#Q" x="184.857" y="308.707"/><use xlink:href="#R" x="193.569" y="308.707"/><use xlink:href="#S" x="202.281" y="308.707"/><use xlink:href="#T" x="210.993" y="308.707"/><use xlink:href="#U" x="219.706" y="308.707"/><use xlink:href="#V" x="228.418" y="308.707"/><use xlink:href="#W" x="237.13" y="308.707"/><use xlink:href="#X" x="245.843" y="308.707"/><use xlink:href="#Y" x="248.29" y="308.707"/><use xlink:href="#Z" x="257.002" y="308.707"/><use xlink:href="#X" x="265.714" y="308.707"/><use xlink:href="#aa" x="268.162" y="308.707"/><use xlink:href="#ab" x="276.874" y="308.707"/><use xlink:href="#ac" x="285.586" y="308.707"/><use xlink:href="#ad" x="294.299" y="308.707"/><use xlink:href="#ae" x="303.011" y="308.707"/><use xlink:href="#X" x="311.723" y="308.707"/></g><g fill="#595757"><use xlink:href="#af" x="314.17" y="308.707"/><use xlink:href="#ag" x="322.883" y="308.707"/><use xlink:href="#ah" x="331.595" y="308.707"/><use xlink:href="#ai" x="340.307" y="308.707"/><use xlink:href="#aj" x="349.02" y="308.707"/><use xlink:href="#ak" x="351.467" y="308.707"/><use xlink:href="#al" x="360.179" y="308.707"/><use xlink:href="#am" x="368.892" y="308.707"/><use xlink:href="#an" x="377.604" y="308.707"/><use xlink:href="#ao" x="386.316" y="308.707"/><use xlink:href="#ap" x="395.028" y="308.707"/><use xlink:href="#af" x="403.741" y="308.707"/><use xlink:href="#ag" x="412.453" y="308.707"/></g><path d="M166.332 358.234h256.223" fill="none" stroke-width=".20175558000000002" stroke="#9d9d9e"/></svg>