<svg xmlns="http://www.w3.org/2000/svg" xmlns:xlink="http://www.w3.org/1999/xlink" width="793.701" height="1122.52" viewBox="0 0 595.276 841.89" version="1.2"><defs><symbol overflow="visible" id="a"><path d="M2.75-5.469l.578.438-1.25 1.718c.059-.007.113-.015.156-.015.051-.008.094-.016.125-.016.426 0 .797.168 1.11.5.308.324.469.715.469 1.172 0 .48-.176.895-.516 1.234a1.704 1.704 0 0 1-1.25.516c-.48 0-.899-.164-1.25-.5C.566-.762.39-1.164.39-1.625c0-.414.171-.86.515-1.328zm.406 3.844a.976.976 0 0 0-.281-.703.998.998 0 0 0-.719-.297.963.963 0 0 0-.703.297.908.908 0 0 0-.297.687.97.97 0 0 0 .297.72.98.98 0 0 0 .703.28.93.93 0 0 0 .703-.296.91.91 0 0 0 .297-.688zm0 0"/></symbol><symbol overflow="visible" id="b"><path d="M.297-2.672c0-.84.195-1.515.594-2.015.34-.446.765-.672 1.265-.672.496 0 .926.226 1.281.671.383.5.579 1.184.579 2.047 0 .868-.196 1.551-.579 2.047-.355.45-.785.672-1.28.672-.493 0-.915-.223-1.266-.672C.492-1.09.297-1.785.297-2.672zm.781 0c0 .586.102 1.074.313 1.469.195.375.453.562.765.562.309 0 .57-.187.781-.562.208-.383.313-.863.313-1.438 0-.57-.105-1.05-.313-1.437-.21-.371-.472-.563-.78-.563-.305 0-.56.192-.766.563-.211.375-.313.848-.313 1.406zm0 0"/></symbol><symbol overflow="visible" id="d"><path d="M1.453 0h.406l1.422-4.375h-.375l-.781 2.516c-.156.53-.281.937-.453 1.468H1.64c-.172-.53-.282-.937-.454-1.468l-.78-2.516H.03zm0 0"/></symbol><symbol overflow="visible" id="e"><path d="M.75-.156c.156 0 .313-.11.313-.313A.317.317 0 0 0 .75-.797a.317.317 0 0 0-.313.328c0 .203.157.313.313.313zm0 0"/></symbol><symbol overflow="visible" id="g"><path d="M1.844-3.953h1.078v-.281H.406v.28h1.125v.563c0 1.11-.484 2.016-1.218 2.407l.203.25c.578-.329 1-.954 1.187-1.75.188.718.578 1.265 1.125 1.578l.203-.25c-.734-.375-1.187-1.235-1.187-2.235zm2.687-.953v2.203h-.86v-2.078H3.36V.125h.313v-2.547h.86V.422h.312v-5.328zm0 0"/></symbol><symbol overflow="visible" id="h"><path d="M3.469-2.5c-.75.156-1.406.188-2.453.188H.937v-1.844h2.016v-.282H.61v2.407h.407c1.078 0 1.718-.047 2.5-.188zM1.516-1.422h-.329V.281h3.516V.016H1.516zm2.937-1.844v-1.656h-.328v3.875h.328v-1.937h.828v-.282zm0 0"/></symbol><symbol overflow="visible" id="i"><path d="M2.078-4.5C1.25-4.5.672-4.016.672-3.281c0 .719.578 1.219 1.406 1.219s1.406-.5 1.406-1.22c0-.734-.578-1.218-1.406-1.218zm0 .281c.64 0 1.094.39 1.094.938 0 .547-.453.937-1.094.937-.64 0-1.094-.39-1.094-.937s.454-.938 1.094-.938zm2.219-.687V.422h.312v-5.328zM.422-.796c.969 0 2.297 0 3.531-.235l-.031-.235c-1.188.172-2.547.188-3.547.188zm0 0"/></symbol><symbol overflow="visible" id="j"><path d="M.734-1.734v-.547h.922v.547zm0-1.297h.922v.515H.734zm2.157 0v.515h-.97v-.515zm0 1.297h-.97v-.547h.97zm2.703-1.829H4.28c.016-.453.016-.906.016-1.374h-.281c0 .468 0 .921-.016 1.375h-.797v.265H4c-.063 1.172-.234 2.235-.813 2.985v-.063c-.421.047-.859.094-1.265.14v-.593h1.234v-.235H1.922v-.453H3.14v-1.75H1.92v-.453h1.345v-.25H1.922V-4.5c.469-.047.89-.11 1.219-.188l-.172-.218c-.594.125-1.703.234-2.594.281.031.063.063.172.078.234.375-.015.797-.046 1.203-.078v.5H.281v.25h1.375v.453H.47v1.75h1.187v.454H.47v.234h1.187v.625c-.515.062-.984.11-1.36.14l.048.266C1.063.125 2.063 0 3.03-.109c-.14.14-.281.265-.437.375.062.046.172.125.219.187 1.109-.797 1.374-2.156 1.453-3.75h1.03C5.22-.953 5.157-.125 5 .063c-.063.062-.11.078-.219.078-.11 0-.406 0-.718-.032a.993.993 0 0 1 .093.282c.266.015.563.015.719.015.172-.015.281-.047.375-.187.188-.25.266-1.063.344-3.625zm0 0"/></symbol><symbol overflow="visible" id="k"><path d="M5.094-4.906c-.39.125-1.047.234-1.64.312l-.22-.047c-.109.422-.312.985-.578 1.344.063.031.172.094.219.14.234-.312.422-.78.563-1.187.624-.062 1.374-.187 1.859-.36zm-.25.531c.25.36.547.844.672 1.14l.234-.109c-.125-.297-.422-.765-.688-1.125zm-.407 1.016a3.494 3.494 0 0 0-.296-.891l-.25.047c.125.297.234.672.265.922zm-1.593.28h-1.14v-.483h.952v-.235h-.953v-.453h1.031v-.234h-1.03V-5h-.282v.516h-1v.234h1v.453H.516v.235h.906v.484H.282v.234h2.562zM1.688-1.25v-.953h.656v.953zm-.86-.953h.625v.953H.828zm1.781-.235H.563V.438h.265V-1h1.516V.11c0 .046-.016.077-.078.077H1.78c.032.063.078.172.094.235.313 0 .484 0 .594-.047.11-.047.14-.125.14-.266zm2.5 1.25H4.25v-.703h.86zm-.859-1.64h.86v.687h-.86zm1.516.687h-.391v-.937H3.094v.25h.89v.687h-1.25v.25h1.25v.704h-.937v.25h.937V.077c0 .063-.03.078-.109.094h-.703a.956.956 0 0 1 .11.266c.39 0 .64 0 .78-.047.141-.047.188-.141.188-.329v-1h.86v.282h.265v-1.235h.39zm0 0"/></symbol><symbol overflow="visible" id="l"><path d="M1.438-3.422h.609v-.281h-.61V-5h-.28v1.297H.343v.281h.765C.953-2.532.594-1.516.22-.984c.062.062.14.171.172.234.296-.438.578-1.188.765-1.922V.422h.282v-2.828c.187.203.406.484.5.625l.171-.235c-.093-.125-.5-.578-.671-.718zm1.937-1.031v.484h-.953v-.484zm-.953 1.219v-.5h.953v.5zm1.203.25v-1.72H2.156V.454h.266v-3.437zm.578 1.828c.078-.14.156-.297.25-.485l-.187-.078c-.047.14-.157.344-.22.485zm-1.016-.485c.094.157.172.344.204.485l.171-.063c-.015-.125-.109-.328-.203-.468zm-.156-.187h.672v.766h-.672zm1.61.766h-.72v-.766h.72zm.218.203v-1.172h-.921v-.328h1.046v-.235H3.938v-.312h-.235v.312H2.688v.235h1.015v.328h-.89V-.86h.765a2.768 2.768 0 0 1-.969.843c.063.047.141.125.188.172.297-.172.64-.5.906-.828v.938h.235v-.954c.25.297.593.625.843.797.047-.046.125-.14.188-.187a3.025 3.025 0 0 1-.907-.781zm-.593-2.375v-.5h1v.5zm1-1.22v.485h-1v-.484zm.265-.25H4.016v1.72h1.25V.094c0 .062-.016.093-.079.093h-.53c.03.063.077.172.093.25.313 0 .516-.015.625-.046.125-.047.156-.125.156-.313zm0 0"/></symbol><symbol overflow="visible" id="m"><path d="M.36 0h3.5v-.422H2.046c-.297 0-.64.031-.953.047C2.64-1.813 3.578-3.031 3.578-4.25c0-1.016-.594-1.672-1.61-1.672-.702 0-1.187.344-1.64.828l.297.282c.344-.407.797-.72 1.297-.72.828 0 1.187.563 1.187 1.298 0 1.046-.78 2.25-2.75 3.953zm0 0"/></symbol><symbol overflow="visible" id="n"><path d="M.734 0h3v-.406H2.516v-5.422H2.14c-.266.172-.625.297-1.11.375v.312h1.016v4.735H.734zm0 0"/></symbol><symbol overflow="visible" id="o"><path d="M1-.203a.407.407 0 0 0 .406-.422c0-.281-.203-.438-.406-.438-.219 0-.406.157-.406.438 0 .266.187.422.406.422zm0 0"/></symbol><symbol overflow="visible" id="p"><path d="M2.14.11c1.047 0 1.704-1 1.704-3.047 0-2.016-.656-2.985-1.703-2.985-1.063 0-1.72.969-1.72 2.984C.422-.89 1.079.11 2.142.11zm0-.391c-.765 0-1.25-.89-1.25-2.656 0-1.72.485-2.594 1.25-2.594.75 0 1.25.875 1.25 2.593 0 1.766-.5 2.657-1.25 2.657zm0 0"/></symbol><symbol overflow="visible" id="q"><path d="M2.063.11c.984 0 1.75-.641 1.75-1.657 0-.812-.579-1.344-1.282-1.5v-.031c.625-.219 1.078-.688 1.078-1.438 0-.906-.671-1.406-1.578-1.421-.656.015-1.156.312-1.547.687l.266.328c.313-.344.781-.61 1.281-.625.672.016 1.094.422 1.094 1.063 0 .687-.438 1.25-1.719 1.25v.39c1.39 0 1.938.516 1.938 1.297 0 .75-.547 1.25-1.297 1.25C1.297-.297.844-.64.516-1L.25-.687c.36.39.906.796 1.813.796zm0 0"/></symbol><symbol overflow="visible" id="r"><path d="M2.156.11c1.047 0 1.75-.657 1.75-1.485 0-.797-.5-1.219-.984-1.516v-.046c.312-.25.797-.813.797-1.438 0-.875-.578-1.531-1.547-1.531-.844 0-1.5.593-1.5 1.437 0 .625.375 1.047.797 1.328v.032c-.532.296-1.11.859-1.11 1.671C.36-.563 1.125.11 2.156.11zm.422-3.172c-.734-.282-1.453-.61-1.453-1.407 0-.61.438-1.062 1.031-1.062.719 0 1.125.547 1.125 1.172 0 .484-.25.921-.703 1.296zM2.156-.267c-.781 0-1.36-.53-1.36-1.203 0-.625.407-1.14.954-1.468.875.343 1.688.671 1.688 1.562 0 .61-.5 1.11-1.282 1.11zm0 0"/></symbol><symbol overflow="visible" id="t"><path d="M.844 2.219h.344v-8.86H.844zm0 0"/></symbol><symbol overflow="visible" id="u"><path d="M2.422-5.281h1.422v-.36H.547v.36h1.469v.828c0 1.344-.672 2.656-1.625 3.219l.28.312c.735-.453 1.313-1.36 1.563-2.406.235.969.797 1.797 1.516 2.25l.266-.328c-.938-.532-1.594-1.797-1.594-3.047zm2.172 1.36H3.28v.374h1.313V.172H5v-6.516h-.406zm1.422-2.61V.562h.421V-6.53zm0 0"/></symbol><symbol overflow="visible" id="v"><path d="M4.984-5.61H3.031v-.937H2.61v.938H.656v.343h4.328zM1.563-3.468c0-.578.5-.969 1.25-.969s1.28.391 1.28.97c0 .546-.53.952-1.28.952s-1.25-.406-1.25-.953zm1.484 1.281c.875-.078 1.437-.546 1.437-1.28 0-.798-.671-1.313-1.671-1.313-.985 0-1.657.515-1.657 1.312 0 .735.563 1.219 1.453 1.281v.876c-.75.03-1.468.046-2.109.046l.063.36c1.343 0 3.093-.016 4.687-.281L5.219-1.5c-.688.094-1.438.14-2.172.172zM5.719-6.53V.547h.422v-7.078zm0 0"/></symbol><symbol overflow="visible" id="w"><path d="M5.781-6.531V.562h.422V-6.53zm-3.265.578C1.484-5.953.75-5 .75-3.516c0 1.485.734 2.438 1.766 2.438 1.03 0 1.75-.953 1.75-2.438 0-1.484-.72-2.437-1.75-2.437zm0 .375c.796 0 1.343.844 1.343 2.062 0 1.204-.546 2.063-1.343 2.063-.797 0-1.36-.86-1.36-2.063 0-1.218.563-2.062 1.36-2.062zm0 0"/></symbol><symbol overflow="visible" id="x"><path d="M2.688-5.89H2.28v1.421c0 1.282-.969 2.64-1.89 3.14l.25.345c.78-.438 1.546-1.407 1.843-2.5.313 1.03 1.079 1.921 1.844 2.343l.266-.328c-.922-.484-1.907-1.765-1.907-3zm4.406 2.312h-1.25v-2.969h-.422v7.11h.422V-3.22h1.25zm0 0"/></symbol></defs><g fill="#898989"><use xlink:href="#a" x="28.312" y="819.169"/><use xlink:href="#b" x="32.591" y="819.169"/></g><g fill="#898989"><use xlink:href="#c" x="36.906" y="819.169"/><use xlink:href="#c" x="38.996" y="819.169"/></g><g fill="#595757"><use xlink:href="#d" x="513.32" y="818.993"/><use xlink:href="#e" x="516.497" y="818.993"/><use xlink:href="#f" x="517.881" y="818.993"/><use xlink:href="#g" x="519.439" y="818.993"/><use xlink:href="#h" x="524.832" y="818.993"/><use xlink:href="#i" x="530.226" y="818.993"/><use xlink:href="#f" x="535.619" y="818.993"/><use xlink:href="#j" x="537.177" y="818.993"/><use xlink:href="#k" x="543.05" y="818.993"/><use xlink:href="#l" x="548.923" y="818.993"/><use xlink:href="#f" x="554.796" y="818.993"/></g><use xlink:href="#m" x="80.217" y="106.58"/><use xlink:href="#n" x="84.332" y="106.58"/><use xlink:href="#o" x="88.447" y="106.58"/><use xlink:href="#p" x="90.293" y="106.58"/><use xlink:href="#q" x="94.408" y="106.58"/><use xlink:href="#o" x="98.523" y="106.58"/><use xlink:href="#n" x="100.369" y="106.58"/><use xlink:href="#r" x="104.484" y="106.58"/><use xlink:href="#s" x="108.599" y="106.58"/><use xlink:href="#t" x="110.676" y="106.58"/><use xlink:href="#s" x="112.546" y="106.58"/><use xlink:href="#u" x="114.624" y="106.58"/><use xlink:href="#n" x="121.815" y="106.58"/><use xlink:href="#m" x="125.93" y="106.58"/><use xlink:href="#v" x="130.045" y="106.58"/><use xlink:href="#s" x="137.236" y="106.58"/><use xlink:href="#w" x="139.314" y="106.58"/><use xlink:href="#x" x="146.505" y="106.58"/><use xlink:href="#v" x="153.696" y="106.58"/></svg>