<svg xmlns="http://www.w3.org/2000/svg" xmlns:xlink="http://www.w3.org/1999/xlink" width="793.701" height="1122.52" viewBox="0 0 595.276 841.89" version="1.2"><defs><clipPath id="A"><path d="M0 326h83.05v363H0zm0 0"/></clipPath><symbol overflow="visible" id="a"><path d="M.297-2.672c0-.84.195-1.515.594-2.015.34-.446.765-.672 1.265-.672.496 0 .926.226 1.281.671.383.5.579 1.184.579 2.047 0 .868-.196 1.551-.579 2.047-.355.45-.785.672-1.28.672-.493 0-.915-.223-1.266-.672C.492-1.09.297-1.785.297-2.672zm.781 0c0 .586.102 1.074.313 1.469.195.375.453.562.765.562.309 0 .57-.187.781-.562.208-.383.313-.863.313-1.438 0-.57-.105-1.05-.313-1.437-.21-.371-.472-.563-.78-.563-.305 0-.56.192-.766.563-.211.375-.313.848-.313 1.406zm0 0"/></symbol><symbol overflow="visible" id="b"><path d="M1.578.188L.984-.25 2.25-1.969l-.188.032h-.109c-.43 0-.8-.165-1.11-.5A1.634 1.634 0 0 1 .392-3.61c0-.477.171-.891.515-1.235a1.69 1.69 0 0 1 1.235-.515c.488 0 .91.168 1.265.5.352.343.531.746.531 1.203 0 .418-.175.863-.515 1.328zm-.422-3.844a.97.97 0 0 0 .297.719.98.98 0 0 0 .703.28.96.96 0 0 0 .703-.28.963.963 0 0 0 .297-.704.998.998 0 0 0-.297-.718.976.976 0 0 0-.703-.282.996.996 0 0 0-.703.282.96.96 0 0 0-.297.703zm0 0"/></symbol><symbol overflow="visible" id="c"><path d="M1.797-4h1.14v-.188H.422V-4h1.187v.688c0 1.124-.53 2-1.265 2.374l.14.157c.594-.328 1.047-.953 1.22-1.813.187.75.624 1.328 1.171 1.64l.14-.155c-.703-.36-1.218-1.204-1.218-2.204zm2.797-.89v2.234h-.969V-4.75h-.203V.11h.203v-2.563h.969v2.86h.203v-5.298zm0 0"/></symbol><symbol overflow="visible" id="d"><path d="M3.484-2.438c-.78.157-1.437.188-2.453.188H.844v-1.969h2.11v-.187H.64v2.343h.39c1.032 0 1.688-.046 2.5-.203zM1.422-1.421h-.203V.266h3.468V.078H1.422zm2.984-1.766v-1.718h-.203v3.843h.203v-1.953h.875v-.171zm0 0"/></symbol><symbol overflow="visible" id="e"><path d="M4.422.14h-2.86v-.859h2.86zm0-1.046h-2.86v-.813h-.187V.313h3.25V-1.72h-.203zM2.734-2.437H.86v-1.047h1.875zm1.704-2.454V-3.5H2.921v-1.11h-.188v.954H.86v-.953H.656v2.359h2.266v-1.063h1.515v1.297h.188V-4.89zm0 0"/></symbol><symbol overflow="visible" id="f"><path d="M4.625-4.89h-.188v3.937h.188zM.703-3.235c0-.594.485-1.079 1.14-1.079.641 0 1.126.485 1.126 1.079 0 .609-.485 1.093-1.125 1.093-.657 0-1.14-.484-1.14-1.093zm2.453 0c0-.735-.547-1.266-1.312-1.266-.782 0-1.328.531-1.328 1.266 0 .75.546 1.265 1.328 1.265.765 0 1.312-.515 1.312-1.265zM1.546.078v-1.453H1.36v1.64h3.47V.079zm0 0"/></symbol><symbol overflow="visible" id="h"><path d="M.703-4.328V-1h2.313v-3.328zm2.125.172v2.984H.891v-2.984zm1.594-.735V.406h.203V-4.89zm0 0"/></symbol><symbol overflow="visible" id="i"><path d="M.75-1.14v-1.454H2.5v-1.672H.547v.188h1.765v1.297H.563V-.97h.329c.671 0 1.28-.031 2.078-.172l-.016-.171c-.781.14-1.406.171-2.062.171zm3.844-3.75v2.171H3.578V-4.75h-.203V.11h.203v-2.641h1.016V.406h.203V-4.89zm0 0"/></symbol><symbol overflow="visible" id="j"><path d="M2.094-4.469c-.828 0-1.39.469-1.39 1.188 0 .703.562 1.187 1.39 1.187.812 0 1.375-.484 1.375-1.187 0-.719-.563-1.188-1.375-1.188zm0 .172c.687 0 1.172.438 1.172 1.016 0 .562-.485 1-1.172 1-.703 0-1.188-.438-1.188-1 0-.578.485-1.016 1.188-1.016zm2.265-.594V.406h.204V-4.89zM.438-.844c.968 0 2.312 0 3.546-.234l-.03-.156c-1.188.203-2.563.203-3.563.203zm0 0"/></symbol><symbol overflow="visible" id="k"><path d="M3.516-4.234h-1.47v-.688H1.86v.688H.391v.171h3.125zm-2.61 1.5c0-.454.406-.766 1.047-.766.625 0 1.047.313 1.047.766 0 .437-.422.75-1.047.75-.64 0-1.047-.313-1.047-.75zm2.281 0c0-.579-.5-.938-1.234-.938-.75 0-1.234.36-1.234.938 0 .562.484.921 1.234.921.734 0 1.234-.359 1.234-.921zM1.063-1.063h3.14v1.47h.203v-1.641H1.063zm4.203-2.28h-.86v-1.548h-.203v3.297h.203v-1.562h.86zm0 0"/></symbol><symbol overflow="visible" id="l"><path d="M.64-3.25c0-.61.485-1.094 1.141-1.094.657 0 1.14.485 1.14 1.094 0 .61-.483 1.11-1.14 1.11-.656 0-1.14-.5-1.14-1.11zm3.797-.547v1.078H3a1.2 1.2 0 0 0 .11-.531A1.55 1.55 0 0 0 3-3.797zm0 1.25v1.61h.188v-3.954h-.188v.922H2.891c-.22-.344-.625-.562-1.11-.562-.765 0-1.328.515-1.328 1.281 0 .766.563 1.281 1.328 1.281.5 0 .907-.218 1.125-.578zM1.563.078v-1.437h-.187V.266h3.438V.078zm0 0"/></symbol><symbol overflow="visible" id="m"><path d="M5.14-2.219h-.874c.171-.781.171-1.344.171-1.844v-.453H1.017v.188h3.218v.266c0 .5 0 1.062-.171 1.843H.358v.172h2.297V.406h.188v-2.453H5.14zm0 0"/></symbol><symbol overflow="visible" id="o"><path d="M.719-1.953c.625-.219 1.187-.688 1.406-1.313.234.594.781 1.032 1.422 1.25l.14-.25c-.75-.234-1.406-.843-1.406-1.609v-.031H3.61v-.266H2.281v-.703H1.97v.703H.672v.266h1.297v.031c0 .797-.657 1.422-1.407 1.672zm1.562-.188H1.97v1.094C1.39-1.03.844-1.03.375-1.03l.047.281c.969 0 2.297 0 3.515-.219l-.015-.25c-.531.094-1.094.125-1.64.157zm2.016-2.765V.422h.312v-5.328zm0 0"/></symbol><symbol overflow="visible" id="p"><path d="M4.672-4.906h-.313v3.922h.313zM3.516-2.141c-.75-.296-1.391-1.046-1.391-1.921v-.547h-.313v.546c0 .907-.625 1.704-1.375 2.016l.188.266c.61-.282 1.14-.86 1.344-1.578a2.462 2.462 0 0 0 1.375 1.468zM1.64.016v-1.36h-.313V.281H4.86V.016zm0 0"/></symbol><symbol overflow="visible" id="q"><path d="M2.75.156c-.906 0-1.5-.265-1.5-.703 0-.422.594-.687 1.5-.687s1.484.265 1.484.687c0 .438-.578.703-1.484.703zm0-1.64c-1.125 0-1.813.343-1.813.937 0 .625.688.953 1.813.953S4.563.078 4.563-.547c0-.594-.688-.937-1.813-.937zm.14-.735v-.703h1.688v-.281H1.266v-1.188h3.28v-.265H.954v1.734h1.64v.703H.344v.281h4.813v-.28zm0 0"/></symbol><symbol overflow="visible" id="r"><path d="M3.516-4.25H2.094v-.719H1.78v.719H.36v.266h3.157zM.984-2.734c0-.391.391-.672.954-.672.578 0 .953.281.953.672 0 .406-.375.687-.954.687-.562 0-.953-.281-.953-.687zm2.204 0c0-.579-.5-.922-1.25-.922-.766 0-1.266.344-1.266.922 0 .578.5.937 1.265.937.75 0 1.25-.36 1.25-.937zM2.796.14c-.844 0-1.39-.235-1.39-.641s.546-.64 1.39-.64c.844 0 1.39.234 1.39.64s-.546.64-1.39.64zm0-1.547c-1.063 0-1.703.328-1.703.906 0 .578.64.906 1.703.906C3.859.406 4.5.078 4.5-.5c0-.578-.64-.906-1.703-.906zM5.28-3.625v-.266h-.828v-1.015h-.328v3.453h.328V-2.5h.828v-.266h-.828v-.859zm0 0"/></symbol><symbol overflow="visible" id="s"><path d="M1.266-3.203H4.25v1.11H1.266zm1.64 2.64v-1.25h1.656v-2.703H4.25v1.032H1.266v-1.032H.937v2.704h1.657v1.25H.344v.265h4.828v-.266zm0 0"/></symbol><symbol overflow="visible" id="t"><path d="M4.188-3.781c0 .64 0 1.36-.188 2.36l.328.046c.188-1.047.188-1.766.188-2.406v-.531H.859v.25h3.329zM2.625-.671V-2.61h-.313v1.937H.345v.281h4.812v-.28zm0 0"/></symbol><symbol overflow="visible" id="u"><path d="M2.125-4.422h-.328v1.063c0 .984-.719 1.984-1.422 2.375l.203.25c.578-.344 1.156-1.079 1.39-1.907.22.797.813 1.485 1.407 1.813l.188-.266c-.704-.36-1.438-1.312-1.438-2.265zm2.234-.484v1.89H2.984v.266H4.36V.422h.329v-5.328zm0 0"/></symbol><symbol overflow="visible" id="v"><path d="M1.453 0h.406l1.422-4.375h-.375l-.781 2.516c-.156.53-.281.937-.453 1.468H1.64c-.172-.53-.282-.937-.454-1.468l-.78-2.516H.03zm0 0"/></symbol><symbol overflow="visible" id="w"><path d="M1.781.078c.782 0 1.453-.61 1.453-1.672 0-1.062-.671-1.687-1.453-1.687-.765 0-1.437.625-1.437 1.687C.344-.53 1.016.078 1.78.078zm0-.297C1.156-.219.703-.78.703-1.594c0-.812.453-1.375 1.078-1.375s1.094.563 1.094 1.375c0 .813-.469 1.375-1.094 1.375zm0 0"/></symbol><symbol overflow="visible" id="x"><path d="M1.031.078c.11 0 .172-.015.235-.031l-.063-.281c-.062.015-.094.015-.11.015-.077 0-.14-.062-.14-.218v-4.329h-.36v4.297c0 .36.141.547.438.547zm0 0"/></symbol><symbol overflow="visible" id="y"><path d="M.75-.156c.156 0 .313-.11.313-.313A.317.317 0 0 0 .75-.797a.317.317 0 0 0-.313.328c0 .203.157.313.313.313zm0 0"/></symbol><symbol overflow="visible" id="z"><path d="M.547 0h2.265v-.313h-.921v-4.062h-.282c-.203.125-.468.219-.828.281v.235h.766v3.546h-1zm0 0"/></symbol><symbol overflow="visible" id="B"><path d="M8.344-9.328v1.312h2.5v3.532h1.61v-8.391h-1.61v3.547zm.812 3.125C7.062-6.937 5.86-8.672 5.86-10.437v-.188h2.922v-1.297H1.266v1.297h2.968v.203c0 1.938-1.265 3.797-3.437 4.578l.828 1.282c1.656-.594 2.844-1.844 3.469-3.375a5.55 5.55 0 0 0 3.265 3zM7.781-.031c-2.015 0-3.156-.5-3.156-1.422 0-.922 1.14-1.406 3.156-1.406 1.969 0 3.125.484 3.125 1.406 0 .922-1.156 1.422-3.125 1.422zm0-4.078c-2.953 0-4.765 1-4.765 2.656 0 1.687 1.812 2.672 4.765 2.672 2.922 0 4.735-.985 4.735-2.672 0-1.656-1.813-2.656-4.735-2.656zm0 0"/></symbol><symbol overflow="visible" id="C"><path d="M10.36-7.469H3.921V-9.25h6.437zm1.609-4.86h-1.61v1.782H3.922v-1.781H2.328v6.156h9.64zM13.53-4.64H.781v1.297h5.532V1.22h1.593v-4.563h5.625zm0 0"/></symbol><symbol overflow="visible" id="D"><path d="M5.828-9.203h2.969V-10.5H5.844v-2.094H4.219v2.094H1.203v1.297h3.031v.812c0 2.297-1.328 4.688-3.468 5.704l.89 1.234c1.61-.766 2.782-2.297 3.39-4.14.626 1.734 1.829 3.155 3.407 3.89l.844-1.219C7.172-3.906 5.828-6.203 5.828-8.39zm5.031-3.703v5.562H8.063v1.313h2.796v7.265h1.61v-14.14zm0 0"/></symbol><symbol overflow="visible" id="F"><path d="M12.39-12.89h-1.624v8.046h1.625zM6.626-7.438H3.078v-3.282h3.547zM8.172-12H1.516v5.844h6.656zm4.484 9.266V-3.97H8.61v-1.265H6.984v1.265H2.938v1.235h4.046C6.86-1.547 5.031-.313 2.406-.047l.516 1.219C5.172.906 6.953.016 7.797-1.218 8.657 0 10.407.905 12.64 1.171l.515-1.219C10.562-.328 8.75-1.594 8.625-2.734zm0 0"/></symbol><symbol overflow="visible" id="G"><path d="M13.516-5.938h-2.094c.406-2.25.406-3.875.406-5.109v-.984H2.36v1.312h7.875c0 1.188-.03 2.735-.437 4.781h-9v1.329H3.89v5.828h1.593V-4.61H8.72v5.828h1.61V-4.61h3.187zm0 0"/></symbol><symbol overflow="visible" id="H"><path d="M5.063-10.016H7.39v-1.328H1.03v1.328H3.5V-9c0 2.5-.922 5.047-2.922 6.297l.969 1.172c1.344-.86 2.25-2.36 2.75-4.14.5 1.64 1.375 3.03 2.703 3.796l.922-1.156C5.969-4.171 5.062-6.61 5.062-9zm3.359 2.094H6.359v1.297h2.063v7.14h1.515v-13.124H8.422zm2.844-4.969V1.188h1.53v-14.079zm0 0"/></symbol><symbol overflow="visible" id="I"><path d="M7.14-11.063c2 0 3.329.688 3.329 1.813 0 1.14-1.328 1.813-3.328 1.813-2.032 0-3.36-.672-3.36-1.813 0-1.125 1.328-1.813 3.36-1.813zm0 4.922c2.954 0 4.985-1.218 4.985-3.109 0-1.89-2.031-3.11-4.984-3.11-2.985 0-5 1.22-5 3.11s2.015 3.11 5 3.11zm6.391 1.204H.781v1.328h3.11v4.812h1.64v-4.812h3.203v4.812h1.641v-4.812h3.172zm0 0"/></symbol><symbol overflow="visible" id="J"><path d="M8.219-6.844c.344-1.812.344-3.203.344-4.156v-.813H1.5v1.313H7a19.783 19.783 0 0 1-.344 3.484zm1.172.703C8-5.92 6.5-5.828 5.03-5.766v-2.828H3.438v2.875c-.985.032-1.954.032-2.797.032l.171 1.312c2.438 0 5.766-.078 8.688-.594zM4.375-3.234H2.75V.937h9.578V-.375H4.375zm7.5-5.172v-4.469H10.25v10.563h1.625v-4.782h1.86v-1.312zm0 0"/></symbol><symbol overflow="visible" id="K"><path d="M9.078-5.984c-2.125-.735-3.344-2.5-3.344-4.375v-1.657H4.11v1.641c0 2.063-1.203 3.953-3.453 4.719l.875 1.25C3.171-5 4.344-6.203 4.953-7.75a5.703 5.703 0 0 0 3.313 3.047zM4.5-3.5H2.89V.938h9.454V-.375H4.5zm7.281-5.156v-4.235h-1.61v10.375h1.61v-4.828h1.985v-1.312zm0 0"/></symbol><symbol overflow="visible" id="L"><path d="M10.86-.266H4.89v-1.562h5.97zm0-2.796H4.89v-1.594H3.298V1.03h9.156v-5.687H10.86zM4.655-6.985c-1.25 0-2.125-.797-2.125-1.97 0-1.202.875-1.968 2.125-1.968 1.219 0 2.125.766 2.125 1.969 0 1.172-.906 1.969-2.125 1.969zm6.188-5.891v3.25h-2.61c-.312-1.578-1.718-2.625-3.578-2.625-2.11 0-3.672 1.36-3.672 3.297s1.563 3.297 3.672 3.297c1.875 0 3.297-1.078 3.578-2.657h2.61v2.985h1.61v-7.547zm0 0"/></symbol><symbol overflow="visible" id="M"><path d="M8.438-9.063H6.671c.11-.656.156-1.359.156-2.078H1.391v1.297h3.843C5-6.969 3.594-4.672.704-2.906l.921 1.125c2.625-1.563 4.11-3.61 4.766-5.985h2.046v2.235H6.142v1.312h2.296V.516h1.5v-13.047h-1.5zm2.843-3.812V1.203h1.547v-14.078zm0 0"/></symbol><symbol overflow="visible" id="N"><path d="M12.703-12.875h-1.531v10.656h1.531zM5.36-6.047h-2.5v-2.187h2.5zm1.5-1.531h1.579v4.953h1.515v-9.984H8.438v3.734H6.859v-2.89h-1.5v2.28h-2.5v-2.28h-1.5v7h5.5zM5.016-.375v-3.234H3.39V.937h9.687V-.375zm0 0"/></symbol><symbol overflow="visible" id="O"><path d="M1.578-11.203v1.297h3.875a12.647 12.647 0 0 1-.297 1.922L.86-7.75l.22 1.39 3.64-.39c-.672 1.547-1.89 2.875-3.89 4.016l.905 1.125c4.235-2.375 5.282-5.782 5.282-9.594zm9.688-1.688v5.563h-1.61v-5.219H8.141V.563h1.515v-6.579h1.61V1.22h1.546v-14.11zm0 0"/></symbol><symbol overflow="visible" id="P"><path d="M4.094-10.156h2.015v6.562c-.671.031-1.359.047-2.015.078zm3.578 0h1.39v-1.297H1.141v1.297h1.406V-3.5c-.625.016-1.235.016-1.781.016l.171 1.312c2.547 0 5.875-.047 8.876-.531l-.094-1.188c-.672.079-1.36.157-2.047.204zm3.125-2.719V1.219h1.61v-14.094zm0 0"/></symbol><symbol overflow="visible" id="Q"><path d="M8.781-7.563c-1.765.282-3.265.344-5.812.344v-1.297h4.656V-9.75H2.969v-1.219h4.906v-1.265h-6.5v6.296h1.11c2.906 0 4.53-.046 6.437-.359zM4.297-1.438h7.484v-3.5H2.687v1.25h7.5v1.094H2.72v3.672h9.531v-1.25H4.297zm7.484-8.5v-2.937h-1.61v7.297h1.61V-8.61h1.969v-1.329zm0 0"/></symbol><symbol overflow="visible" id="R"><path d="M2.484-7.5c0-1.063.704-1.703 1.625-1.703.938 0 1.641.64 1.641 1.703 0 1.063-.703 1.719-1.64 1.719-.923 0-1.626-.657-1.626-1.719zm6.938-.828v1.64H7.375c.078-.25.094-.53.094-.812 0-.297-.032-.578-.094-.828zm0 3.094v3h1.828v-9.329H9.422v1.782H6.594c-.625-.64-1.485-1.016-2.485-1.016-1.875 0-3.343 1.39-3.343 3.297 0 1.906 1.468 3.313 3.343 3.313 1 0 1.891-.391 2.516-1.047zm-4.75 4.75v-2.657H2.859V.97h8.688V-.484zm0 0"/></symbol><symbol overflow="visible" id="S"><path d="M12.125-5.406h-1.672c.313-1.782.313-3.078.313-4.266v-1.156H1.922v1.469h7.062c0 1.093-.03 2.343-.343 3.953H.609v1.468h4.766v5.126h1.844v-5.125h4.906zm0 0"/></symbol><symbol overflow="visible" id="T"><path d="M5.281-8.828h2.532v-1.516H.796v1.516h2.656v.703c0 2.11-1.047 4.5-3.14 5.469l1.03 1.453c1.454-.688 2.485-2.094 3.048-3.75.562 1.5 1.562 2.781 2.968 3.437l1.016-1.453c-2.094-.969-3.094-3.219-3.094-5.156zm7.157 2.125h-1.86v-4.86H8.75v12.75h1.828v-6.375h1.86zm0 0"/></symbol><symbol overflow="visible" id="V"><path d="M1.703-6.266C4.11-6.484 5.672-7.375 6.36-8.578c.672 1.203 2.235 2.094 4.625 2.312l.641-1.421C9.25-7.891 8-8.72 7.687-9.579h3.391v-1.453H1.641v1.453h3.39c-.328.86-1.562 1.687-3.937 1.89zm7.203 5.157c0 .64-.875.921-2.578.921-1.703 0-2.578-.28-2.578-.921 0-.657.875-.922 2.578-.922 1.703 0 2.578.265 2.578.922zm3.203-3.204v-1.453H.594v1.454h4.843v.921c-2.218.172-3.53.97-3.53 2.282 0 1.468 1.671 2.312 4.421 2.312S10.75.36 10.75-1.109c0-1.297-1.297-2.094-3.484-2.266v-.938zm0 0"/></symbol><symbol overflow="visible" id="W"><path d="M8.406-6.234C6.344-6.828 5.437-8.313 5.437-9.86v-1.235H3.579v1.235c0 1.562-.906 3.187-3.031 3.843l.875 1.454c1.5-.485 2.531-1.454 3.125-2.657.562 1.11 1.547 1.985 2.984 2.422zM4.5-2.344h4.906V-.39H4.5zM2.703 1.031h8.485v-4.797H2.703zm6.64-12.594v7.204h1.845v-7.204zm0 0"/></symbol><symbol overflow="visible" id="X"><path d="M8.219-5.688c-2.031-.53-2.922-1.828-2.938-3.109h2.516v-1.437H5.28v-1.36H3.453v1.36h-2.5v1.437h2.5C3.422-7.359 2.531-5.937.5-5.375l.875 1.422c1.469-.422 2.469-1.328 3.031-2.485.578 1 1.563 1.782 2.985 2.157zM6.469-.202c-1.657 0-2.516-.328-2.516-1.016 0-.687.86-1.015 2.516-1.015 1.625 0 2.484.328 2.484 1.015 0 .688-.86 1.016-2.484 1.016zm0-3.438c-2.672 0-4.328.907-4.328 2.422 0 1.516 1.656 2.407 4.328 2.407 2.656 0 4.297-.891 4.297-2.407 0-1.515-1.641-2.422-4.297-2.422zm4.156-4.921v-3H8.797v7.687h1.828v-3.203h1.703v-1.484zm0 0"/></symbol><symbol overflow="visible" id="Y"><path d="M9.438-.406H4.625v-1.14h4.813zm0-2.531H4.625v-1.22H2.812v5.188h8.438v-5.187H9.437zM4.109-6.47c-.921 0-1.609-.562-1.609-1.515 0-.954.688-1.532 1.61-1.532.937 0 1.624.579 1.624 1.532 0 .953-.687 1.515-1.625 1.515zm5.313-5.093v2.812H7.39c-.36-1.36-1.657-2.281-3.282-2.281-1.906 0-3.343 1.265-3.343 3.047 0 1.765 1.437 3.046 3.343 3.046 1.657 0 2.954-.953 3.297-2.328h2.016v2.563h1.828v-6.86zm0 0"/></symbol><symbol overflow="visible" id="Z"><path d="M5.531-8.828h2.625v-1.516h-7.14v1.516h2.656v.703c0 2.172-1.047 4.516-3.172 5.469l1.031 1.453c1.5-.672 2.532-2.078 3.094-3.734.563 1.53 1.578 2.78 3.063 3.421l1-1.453C6.546-3.844 5.53-6.047 5.53-8.125zm3.797-2.735v12.75h1.828v-12.75zm0 0"/></symbol><symbol overflow="visible" id="aa"><path d="M7.11-4.156v1.25H9.5v1.015h1.828v-9.671H9.5v7.406zm-2.454-5.64c.844 0 1.438.327 1.438.952s-.594.938-1.438.938c-.86 0-1.453-.313-1.453-.938s.594-.953 1.453-.953zm0 3.218c1.844 0 3.172-.906 3.172-2.266 0-1.36-1.328-2.281-3.172-2.281-1.875 0-3.187.922-3.187 2.281 0 1.36 1.312 2.266 3.187 2.266zM3.97-.484v-1.75h1.765v-2.407A24.93 24.93 0 0 0 8.781-5l-.125-1.297c-2.687.344-5.797.375-8.11.39l.235 1.454c.953 0 2.016-.016 3.14-.078v1.703h-1.78V.969h9.453V-.484zm0 0"/></symbol><symbol overflow="visible" id="ab"><path d="M1.75-4.25c1.469-.406 2.484-1.266 3.047-2.375.578 1.063 1.578 1.875 3.031 2.25l.813-1.39C6.766-6.25 5.844-7.392 5.719-8.61h2.578v-1.454H5.703v-1.39H3.86v1.39H1.297v1.454h2.547C3.719-7.344 2.828-6.141.922-5.641zm3.953-.375H3.86v1.938c-1.156.046-2.265.046-3.203.046l.235 1.485c2.187-.016 5.187-.032 7.921-.594l-.109-1.328c-.969.156-1.969.234-3 .312zm3.703-6.953V1.219h1.828v-12.797zm0 0"/></symbol><symbol overflow="visible" id="ac"><path d="M11.188-11.547H9.344v9.297h1.844zM8.405-5.64c-2.078-.656-2.969-2.296-2.969-3.968v-1.25H3.579v1.25c0 1.687-.906 3.484-3.031 4.203l.937 1.453c1.485-.516 2.47-1.563 3.063-2.844.547 1.188 1.516 2.125 2.922 2.61zM4.531-.484v-2.657H2.703V.97H11.5V-.484zm0 0"/></symbol><symbol overflow="visible" id="ad"><path d="M6.328-.188c-1.703 0-2.578-.28-2.578-.953 0-.656.875-.968 2.578-.968 1.703 0 2.578.312 2.578.968 0 .672-.875.954-2.578.954zm0-3.296c-2.75 0-4.422.843-4.422 2.343s1.672 2.344 4.422 2.344S10.75.36 10.75-1.14 9.078-3.484 6.328-3.484zm.953-2.079v-1.062h3.547v-1.453h-7v-1.485h6.922v-1.453H2v4.391h3.453v1.063H.61v1.453h11.532v-1.454zm0 0"/></symbol><symbol overflow="visible" id="ae"><path d="M8.094-10.344H5.266v-1.297H3.422v1.297H.594v1.422h7.5zM2.969-6.219c0-.625.562-.953 1.375-.953.812 0 1.39.328 1.39.953s-.578.953-1.39.953c-.813 0-1.375-.328-1.375-.953zm4.5 0c0-1.36-1.282-2.281-3.125-2.281-1.844 0-3.125.922-3.125 2.281 0 1.36 1.281 2.266 3.125 2.266 1.843 0 3.125-.906 3.125-2.266zM6.484-.172c-1.609 0-2.468-.281-2.468-.89 0-.625.859-.907 2.468-.907 1.594 0 2.454.282 2.454.907 0 .609-.86.89-2.454.89zm0-3.172c-2.64 0-4.28.86-4.28 2.281 0 1.407 1.64 2.266 4.28 2.266 2.625 0 4.266-.86 4.266-2.266 0-1.421-1.64-2.28-4.266-2.28zm5.782-4.89v-1.5h-1.641v-1.813H8.797v8.078h1.828v-2h1.64v-1.484h-1.64v-1.281zm0 0"/></symbol><symbol overflow="visible" id="af"><path d="M4.688-10.719c-1.985 0-3.5 1.313-3.5 3.14 0 1.845 1.515 3.141 3.5 3.141 2 0 3.515-1.296 3.515-3.14 0-1.828-1.515-3.14-3.515-3.14zm0 1.563c.984 0 1.734.594 1.734 1.578 0 1-.75 1.578-1.734 1.578-.985 0-1.72-.578-1.72-1.578 0-.984.735-1.578 1.72-1.578zm4.718-2.422V1.219h1.828v-12.797zM.891-1.375c2.203 0 5.187-.016 7.921-.578l-.109-1.313c-2.687.407-5.812.407-8.047.407zm0 0"/></symbol><symbol overflow="visible" id="ag"><path d="M3.625-7.344h5.453v1.782H3.625zm3.64 5.578v-2.343h3.61v-6.657H9.078v1.97H3.625v-1.97H1.812v6.657h3.625v2.343H.595v1.47H12.14v-1.47zm0 0"/></symbol><symbol overflow="visible" id="ah"><path d="M9.422-2.156h1.828v-9.406H9.422v2.234H7.875v1.469h1.547v1.109H7.875v1.469h1.547zM3.687-9.187h1.188v3.937c-.406.016-.813.031-1.188.031zm4.11 3.718c-.375.047-.766.078-1.172.11v-3.829h1.016v-1.453H.906v1.454h1.016v4.015H.594l.203 1.469c2 0 4.734-.031 7.11-.438zM4.672-.484V-2.86H2.859V.969h8.688V-.484zm0 0"/></symbol><symbol overflow="visible" id="ai"><path d="M8.281-5.75c-1.969-.656-2.86-2.203-2.875-3.656h2.469v-1.453H1.031v1.453h2.5c-.031 1.578-.953 3.203-3 3.89l.922 1.454C2.937-4.548 3.937-5.579 4.5-6.829c.547 1.14 1.5 2.047 2.89 2.516zM2.562-1.953h6.86v3.156h1.828v-4.61H2.562zm6.86-9.594v3.031H7.547v1.47h1.875v3.077h1.828v-7.578zm0 0"/></symbol><symbol overflow="visible" id="aj"><path d="M10.39-6.531c.36-1.313.36-2.39.36-3.407v-1.046H1.906v1.437h7.016c0 .844-.047 1.703-.344 2.828zM6.282-.188c-1.718 0-2.703-.343-2.703-1.015 0-.688.985-1.047 2.703-1.047C8.016-2.25 9-1.89 9-1.203 9-.531 8.016-.187 6.281-.187zm0-3.421c-2.734 0-4.515.906-4.515 2.406 0 1.484 1.78 2.39 4.515 2.39 2.766 0 4.532-.906 4.532-2.39 0-1.5-1.766-2.406-4.532-2.406zm.422-2.25v-2.22H4.875v2.22H.625v1.437h11.469v-1.437zm0 0"/></symbol><symbol overflow="visible" id="ak"><path d="M6.344-9.672c1.656 0 2.718.5 2.718 1.39 0 .923-1.062 1.407-2.718 1.407-1.672 0-2.75-.484-2.75-1.406 0-.89 1.078-1.39 2.75-1.39zm0 4.25c2.703 0 4.61-1.11 4.61-2.86 0-1.734-1.907-2.843-4.61-2.843-2.735 0-4.61 1.11-4.61 2.844 0 1.75 1.875 2.86 4.61 2.86zm5.797.953H.594v1.485h2.625v4.156h1.828v-4.156h2.562v4.156h1.86v-4.156h2.672zm0 0"/></symbol><symbol overflow="visible" id="al"><path d="M4.094-2.75h3.062v-3.063H4.094zm0 0"/></symbol><symbol overflow="visible" id="am"><path d="M5.14-8.11c1.548 0 2.594.563 2.594 1.454 0 .89-1.046 1.453-2.593 1.453-1.532 0-2.579-.563-2.579-1.453 0-.89 1.047-1.453 2.579-1.453zm0 3.657c2.11 0 3.532-.86 3.532-2.203 0-1.36-1.422-2.203-3.531-2.203-2.094 0-3.516.843-3.516 2.203 0 1.343 1.422 2.203 3.516 2.203zm4.594.937H.594v.766h2.36V.828h.921V-2.75h2.531V.828h.938V-2.75h2.39zm0 0"/></symbol><symbol overflow="visible" id="an"><path d="M4.75-4.89H1.906v-2.86H4.75zm.89-3.61H1.017v4.344H5.64zM5.204.094c-1.484 0-2.39-.438-2.39-1.157 0-.718.906-1.156 2.39-1.156 1.5 0 2.406.438 2.406 1.156 0 .72-.906 1.157-2.406 1.157zm0-3.047c-2.031 0-3.312.687-3.312 1.89C1.89.141 3.17.829 5.203.829c2.047 0 3.328-.687 3.328-1.89 0-1.204-1.281-1.891-3.328-1.891zm3.219-3.781V-9.25H7.5v5.953h.922v-2.672h1.5v-.765zm0 0"/></symbol><symbol overflow="visible" id="ao"><path d="M6.578-8.016H4.062V-9.25h-.921v1.234H.625v.735h5.953zM2.062-4.844c0-.703.61-1.156 1.532-1.156s1.547.453 1.547 1.156c0 .703-.625 1.157-1.547 1.157-.922 0-1.531-.454-1.531-1.157zm3.954 0c0-1.125-.985-1.875-2.422-1.875-1.422 0-2.406.75-2.406 1.875s.984 1.875 2.406 1.875c1.437 0 2.422-.75 2.422-1.875zM3.078-2.28h-.922v2.89h6.719v-.75H3.078zm5.344-3.64V-9.25H7.5v7.563h.922v-3.47h1.5v-.765zm0 0"/></symbol><symbol overflow="visible" id="aq"><path d="M6.266-8.219H3.953v-1.125h-.922v1.125H.625v.735h5.64zM2.062-5.047c0-.687.579-1.156 1.407-1.156.844 0 1.422.469 1.422 1.156 0 .719-.579 1.172-1.422 1.172-.828 0-1.406-.453-1.406-1.172zm3.704 0c0-1.125-.97-1.89-2.297-1.89-1.313 0-2.281.765-2.281 1.89s.968 1.89 2.28 1.89c1.329 0 2.298-.765 2.298-1.89zM2.172-1.53h5.797v2.36h.937v-3.095H2.172zM7.969-9.25v2.469H6.266v.75h1.703v1.156H6.25v.734h1.719v1.297h.937V-9.25zm0 0"/></symbol><symbol overflow="visible" id="ar"><path d="M8.875-9.266h-.922v7.407h.922zM6.672-4.234c-1.5-.547-2.516-1.922-2.516-3.438v-1.031h-.922v1.031c0 1.578-1.015 3.031-2.53 3.625l.484.75A4.528 4.528 0 0 0 3.703-6c.453 1.156 1.344 2.063 2.485 2.5zM3.312-.141v-2.406h-.921V.61h6.796v-.75zm0 0"/></symbol><symbol overflow="visible" id="as"><path d="M1.188-8.172v.75h3.796c-.187 2.39-1.546 4.328-4.25 5.625l.485.75c3.36-1.64 4.703-4.203 4.703-7.125zm6.765-1.094V.828h.922V-9.266zm0 0"/></symbol><symbol overflow="visible" id="at"><path d="M9.219-6.406C7.39-6.61 5.64-7.61 5.64-8.828v-.39h-.954v.39c0 1.219-1.78 2.219-3.609 2.422l.313.687C3-5.922 4.516-6.625 5.156-7.703c.64 1.078 2.157 1.781 3.75 1.984zm.5 2.093v-.734H.579v.734h4.109v1h-3v.72H7.64v.921H1.719v2.39h7.14V0H2.625v-1h5.922v-2.313H5.609v-1zm0 0"/></symbol><symbol overflow="visible" id="au"><path d="M1.422-3.313c1.531-.328 3.11-1.328 3.75-2.718.64 1.39 2.234 2.375 3.781 2.672l.375-.735c-1.75-.281-3.687-1.672-3.687-3.281v-.203h3.343v-.766h-7.64v.766h3.343v.203c0 1.61-1.906 3.016-3.656 3.313zM5.64-1.219v-2.453h-.922v2.453H.594v.75H9.75v-.75zm0 0"/></symbol><symbol overflow="visible" id="av"><path d="M4.781-5.172h-2.86v-1.516h2.86zm.907-3.672H4.78v1.453h-2.86v-1.453h-.905v4.406h4.671zM2.953-1.109h5.469v-2.454H2.016v.735h5.5v1.031h-5.47V.72h6.75v-.735H2.954zm5.469-5.985V-9.25H7.5v5.219h.922v-2.297h1.5v-.766zm0 0"/></symbol><symbol overflow="visible" id="aw"><path d="M9.75-4.875v-.75H8.375c.203-1.078.203-1.938.203-2.594v-.64H1.766v.734h5.89c0 .656 0 1.438-.218 2.5H.593v.75h4.093v1.297H1.672v.734h6.016v1.047H1.702v2.5H8.86v-.719H2.625V-1.14h5.984v-2.437H5.625v-1.297zm0 0"/></symbol><symbol overflow="visible" id="ax"><path d="M6.5-4.313c-1.484-.437-2.469-1.546-2.469-2.78v-.204h2.235v-.734H4.03v-1.266H3.11v1.266H.875v.734h2.234v.203c0 1.36-1 2.578-2.5 3.032l.454.734c1.187-.406 2.093-1.235 2.53-2.313.438.954 1.329 1.688 2.47 2.047zM5.219.095c-1.5 0-2.407-.39-2.407-1.094 0-.703.907-1.11 2.407-1.11 1.484 0 2.39.407 2.39 1.11 0 .703-.906 1.094-2.39 1.094zm0-2.922C3.14-2.828 1.89-2.172 1.89-1 1.89.156 3.14.813 5.219.813 7.28.813 8.53.155 8.53-1c0-1.172-1.25-1.828-3.312-1.828zm3.203-3.828v-2.61H7.5v6.188h.922v-2.813h1.5v-.765zm0 0"/></symbol><symbol overflow="visible" id="ay"><path d="M3.875-8.516c-1.563 0-2.703.954-2.703 2.375 0 1.407 1.14 2.375 2.703 2.375s2.688-.968 2.688-2.375c0-1.421-1.125-2.375-2.688-2.375zm0 .782c1.047 0 1.797.64 1.797 1.593 0 .938-.75 1.579-1.797 1.579s-1.813-.641-1.813-1.579c0-.953.766-1.593 1.813-1.593zm4.016-1.532V.86h.921V-9.266zM.78-1.359c1.813 0 4.266-.016 6.532-.438l-.079-.687c-2.203.328-4.734.343-6.578.343zm0 0"/></symbol><symbol overflow="visible" id="az"><path d="M.594-4.281c0 .453.36.812.812.812a.804.804 0 1 0 0-1.61.804.804 0 0 0-.812.798zm0 0"/></symbol><symbol overflow="visible" id="aA"><path d="M5.156-8.344c1.594 0 2.594.438 2.594 1.172S6.75-6 5.156-6c-1.593 0-2.61-.438-2.61-1.172s1.017-1.172 2.61-1.172zm0 3.063c2.188 0 3.547-.688 3.547-1.89 0-1.188-1.36-1.891-3.547-1.891-2.187 0-3.547.703-3.547 1.89 0 1.203 1.36 1.89 3.547 1.89zm1.375 2.64a7.433 7.433 0 0 0-1.375-.109c-.5 0-.937.031-1.343.094v-1.14H6.53zm1.14 1.672C7.672-.266 6.735.11 5.157.11 3.563.11 2.625-.266 2.625-.969c0-.672.938-1.078 2.531-1.078 1.578 0 2.516.406 2.516 1.078zM9.72-3.797v-.734H.594v.734H2.89v1.39c-.75.282-1.188.782-1.188 1.438C1.703.187 3 .828 5.156.828 7.313.828 8.61.188 8.61-.969c0-.64-.421-1.14-1.156-1.422v-1.406zm0 0"/></symbol><symbol overflow="visible" id="aB"><path d="M6.578-8.219H4.062v-1.14h-.921v1.14H.625v.735h5.953zM2.062-5.25c0-.64.61-1.063 1.532-1.063S5.14-5.89 5.14-5.25c0 .672-.625 1.078-1.547 1.078-.922 0-1.531-.406-1.531-1.078zm3.954 0c0-1.063-.97-1.75-2.422-1.75-1.438 0-2.406.688-2.406 1.75 0 1.094.968 1.781 2.406 1.781 1.453 0 2.422-.687 2.422-1.781zm1.5 5.203H3v-1.11h4.516zm0-1.828H3v-1.078h-.922V.703h6.344v-3.656h-.906zm2.406-4.813h-1.5v-2.578H7.5v5.875h.922v-2.53h1.5zm0 0"/></symbol><symbol overflow="visible" id="aC"><path d="M4.75-5H1.906v-2.844H4.75zm.89-3.578H1.017v4.328H5.64zm2.954 6.422v-.75H2v.75h2.813c-.11 1.078-1.532 2-3.204 2.25l.344.703c1.484-.235 2.781-.953 3.36-1.985.578 1.016 1.859 1.75 3.328 2l.343-.718c-1.64-.25-3.093-1.203-3.203-2.25zm-.172-4.688v-2.422H7.5V-3.5h.922v-2.578h1.5v-.766zm0 0"/></symbol><symbol overflow="visible" id="aD"><path d="M1.406-4.86c1.672-.171 3.14-.75 3.75-1.734.61.985 2.094 1.563 3.75 1.735l.281-.704c-1.89-.171-3.453-.921-3.53-2.015H8.78v-.734H5.625v-1.016h-.922v1.015H1.547v.735h3.11C4.577-6.484 3.03-5.734 1.124-5.562zM7.703-.046H2.625v-1.64h5.078zM9.72-3.516v-.765H.594v.765h4.11v1.094H1.718V.703h6.89v-3.125H5.625v-1.094zm0 0"/></symbol><symbol overflow="visible" id="aE"><path d="M7.969-4.875H6.266v.75h1.703v1.375h.937v-6.516H7.97v2.438H6.28v.734H7.97zM6.266-8.141H3.953v-1.203h-.922v1.203H.625v.735h5.64zM2.062-5.016c0-.703.563-1.156 1.407-1.156.844 0 1.422.453 1.422 1.156 0 .704-.579 1.172-1.422 1.172-.844 0-1.406-.469-1.406-1.172zm3.704 0c0-1.125-.954-1.875-2.297-1.875-1.344 0-2.281.75-2.281 1.875 0 1.141.937 1.875 2.28 1.875 1.345 0 2.298-.734 2.298-1.875zM5.609.11C4.125.11 3.188-.266 3.188-.906c0-.64.937-1 2.421-1 1.485 0 2.391.36 2.391 1S7.094.109 5.61.109zm0-2.734c-2.093 0-3.375.625-3.375 1.719S3.516.828 5.61.828c2.079 0 3.344-.64 3.344-1.734C8.953-2 7.688-2.625 5.61-2.625zm0 0"/></symbol><symbol overflow="visible" id="aF"><path d="M8.875-9.25h-.922v7.375h.922zm-7.14 3.172c0-.969.734-1.672 1.718-1.672 1 0 1.75.703 1.75 1.672 0 1-.75 1.703-1.75 1.703-.984 0-1.719-.703-1.719-1.703zm4.359 0c0-1.453-1.125-2.469-2.64-2.469-1.5 0-2.626 1.016-2.626 2.469 0 1.469 1.125 2.5 2.625 2.5 1.516 0 2.64-1.031 2.64-2.5zM3.312-.141v-2.484h-.921V.609h6.796v-.75zm0 0"/></symbol><symbol overflow="visible" id="aG"><path d="M3.578-7.313h1.828v-.75H.734v.75h1.954v.782c0 2.047-.75 3.781-2.188 4.578l.563.703c1.046-.61 1.75-1.703 2.093-3.063.36 1.188 1.047 2.157 2.047 2.72l.531-.72C4.313-3.046 3.578-4.687 3.578-6.53zm4.735-1.953v4.079H6.984v-3.844h-.859V.344h.86v-4.766h1.327v5.25h.891V-9.266zm0 0"/></symbol><symbol overflow="visible" id="aH"><path d="M1.688-6.281c0-.953.718-1.61 1.734-1.61 1 0 1.734.657 1.734 1.61 0 .937-.734 1.593-1.734 1.593-1.016 0-1.735-.656-1.735-1.593zm4.359 0c0-1.407-1.11-2.375-2.625-2.375-1.531 0-2.64.969-2.64 2.375 0 1.406 1.109 2.375 2.64 2.375 1.515 0 2.625-.969 2.625-2.375zM5.219.094c-1.5 0-2.407-.438-2.407-1.157 0-.734.907-1.171 2.407-1.171 1.484 0 2.39.437 2.39 1.171 0 .72-.906 1.157-2.39 1.157zm0-3.047c-2.047 0-3.328.687-3.328 1.89C1.89.125 3.17.829 5.219.829 7.25.828 8.53.125 8.53-1.062c0-1.204-1.281-1.891-3.312-1.891zM9.906-7v-.75H8.422v-1.5H7.5v5.969h.922v-1.563h1.484v-.765H8.422V-7zm0 0"/></symbol><symbol overflow="visible" id="aI"><path d="M7.969-3.281h.937V-9.25H7.97v2.14H5.78v.75H7.97zM6.516-4.484C5.046-5 4.062-6.25 4.062-7.688v-1h-.921v1.032c0 1.547-1 2.89-2.563 3.453l.485.75c1.218-.469 2.125-1.375 2.562-2.563.438 1.047 1.297 1.844 2.39 2.266zM5.578.094c-1.516 0-2.437-.438-2.437-1.172 0-.75.921-1.188 2.437-1.188 1.516 0 2.438.438 2.438 1.188 0 .734-.922 1.172-2.438 1.172zm0-3.078c-2.062 0-3.36.687-3.36 1.906C2.219.125 3.517.828 5.579.828c2.078 0 3.36-.703 3.36-1.906 0-1.219-1.282-1.906-3.36-1.906zm0 0"/></symbol><symbol overflow="visible" id="aJ"><path d="M2.688 2.219l.64-.313C2.344.313 1.891-1.594 1.891-3.5c0-1.906.453-3.797 1.437-5.406l-.64-.297C1.655-7.531 1.03-5.703 1.03-3.5c0 2.219.625 4.031 1.657 5.719zm0 0"/></symbol><symbol overflow="visible" id="aK"><path d="M2.594-5.984h5.14v1.859h-5.14zM5.625-1.22V-3.39h3.016v-5.14h-.907v1.797h-5.14v-1.797h-.922v5.14h3.016v2.172H.593v.75H9.75v-.75zm0 0"/></symbol><symbol overflow="visible" id="aL"><path d="M5.156-8.297c1.594 0 2.594.453 2.594 1.203 0 .766-1 1.203-2.594 1.203-1.593 0-2.61-.437-2.61-1.203 0-.75 1.017-1.203 2.61-1.203zm0 3.14c2.172 0 3.547-.718 3.547-1.937 0-1.203-1.375-1.922-3.547-1.922s-3.547.72-3.547 1.922c0 1.219 1.375 1.938 3.547 1.938zm1.235 2.782H3.92v-1.281h2.47zm3.328-1.281v-.75H.594v.75H3v1.281H1.61v.75h6.062V.844h.922v-3.219H7.313v-1.281zm0 0"/></symbol><symbol overflow="visible" id="aM"><path d="M1.11 2.219C2.155.53 2.78-1.281 2.78-3.5c0-2.203-.625-4.031-1.672-5.703l-.625.297c.97 1.61 1.438 3.5 1.438 5.406 0 1.906-.469 3.813-1.438 5.406zm0 0"/></symbol><symbol overflow="visible" id="aN"><path d="M1.125 0h1.047v-3.703h3.156v-.875H2.172v-2.797H5.89v-.875H1.125zm0 0"/></symbol><symbol overflow="visible" id="aO"><path d="M3.5.14c.828 0 1.484-.28 2.031-.624l-.375-.672c-.453.297-.937.484-1.531.484-1.156 0-1.953-.828-2.031-2.14h4.125c.015-.141.047-.36.047-.579 0-1.75-.891-2.875-2.438-2.875-1.422 0-2.75 1.235-2.75 3.22C.578-1.032 1.875.14 3.5.14zM1.594-3.546c.11-1.203.875-1.89 1.75-1.89.953 0 1.515.656 1.515 1.89zm0 0"/></symbol><symbol overflow="visible" id="aP"><path d="M2.11.14c.28 0 .453-.03.609-.078l-.156-.796c-.11.03-.157.03-.22.03-.155 0-.28-.124-.28-.437v-7.812H1.03v7.734c0 .875.313 1.36 1.078 1.36zm0 0"/></symbol><symbol overflow="visible" id="aQ"><path d="M3.406.14c1.5 0 2.844-1.171 2.844-3.187 0-2.031-1.344-3.219-2.844-3.219-1.5 0-2.828 1.188-2.828 3.22C.578-1.032 1.906.14 3.406.14zm0-.843c-1.062 0-1.765-.938-1.765-2.344s.703-2.36 1.765-2.36c1.063 0 1.781.954 1.781 2.36S4.47-.703 3.407-.703zm0 0"/></symbol><symbol overflow="visible" id="aR"><path d="M2 0h1.203l.86-3.281c.156-.578.28-1.156.421-1.766h.047c.157.61.266 1.172.422 1.75L5.843 0h1.235l1.64-6.11H7.75l-.906 3.532c-.125.594-.235 1.14-.375 1.719h-.047C6.282-1.438 6.14-1.984 6-2.58l-.953-3.53H4.03l-.937 3.53c-.156.579-.281 1.142-.422 1.72h-.047c-.11-.579-.234-1.125-.36-1.72l-.921-3.53H.297zm0 0"/></symbol><symbol overflow="visible" id="aS"><path d="M2.625.14c1.453 0 2.234-.812 2.234-1.812 0-1.156-.984-1.516-1.859-1.844C2.312-3.78 1.64-4 1.64-4.578c0-.469.344-.875 1.11-.875.563 0 .984.219 1.406.531l.5-.656c-.484-.375-1.14-.688-1.906-.688C1.422-6.266.656-5.5.656-4.53c0 1.031.969 1.453 1.813 1.765.687.25 1.406.532 1.406 1.157 0 .53-.406.953-1.203.953-.735 0-1.281-.281-1.813-.719l-.515.672C.938-.22 1.766.14 2.625.14zm0 0"/></symbol><symbol overflow="visible" id="aT"><path d="M1.031 0h1.032v-4.438c.609-.609 1.046-.921 1.671-.921.813 0 1.157.484 1.157 1.625V0h1.03v-3.875c0-1.563-.593-2.39-1.874-2.39-.828 0-1.453.452-2.016 1.015l.031-1.25v-2.453h-1.03zm0 0"/></symbol><symbol overflow="visible" id="aU"><path d="M1.031 0h1.032v-6.11H1.03zm.516-7.375c.406 0 .719-.281.719-.656 0-.422-.313-.672-.72-.672-.405 0-.702.25-.702.672 0 .375.297.656.703.656zm0 0"/></symbol><symbol overflow="visible" id="aV"><path d="M1.031 2.578h1.032V.5L2.03-.563c.563.454 1.14.704 1.688.704 1.406 0 2.656-1.204 2.656-3.297 0-1.875-.844-3.11-2.422-3.11-.719 0-1.406.407-1.953.86h-.031l-.094-.703h-.844zM3.563-.703c-.407 0-.954-.172-1.5-.64v-3.22c.593-.546 1.124-.843 1.64-.843 1.156 0 1.61.922 1.61 2.265 0 1.516-.75 2.438-1.75 2.438zm0 0"/></symbol><symbol overflow="visible" id="aW"><path d="M.844 2.14c1.015-.437 1.64-1.28 1.64-2.359 0-.75-.328-1.203-.859-1.203-.422 0-.781.281-.781.719 0 .469.36.719.75.719.047 0 .078 0 .125-.016-.016.688-.422 1.219-1.125 1.531zm0 0"/></symbol><symbol overflow="visible" id="aX"><path d="M4.234.14C5.313.14 6.125-.28 6.766-1.03l-.563-.657c-.531.579-1.125.922-1.922.922-1.562 0-2.562-1.296-2.562-3.39C1.719-6.203 2.75-7.5 4.312-7.5c.72 0 1.266.328 1.688.797l.563-.672c-.47-.531-1.25-1.031-2.25-1.031-2.094 0-3.657 1.625-3.657 4.281C.656-1.437 2.187.141 4.234.141zm0 0"/></symbol><symbol overflow="visible" id="aY"><path d="M2.438.14c.75 0 1.437-.39 2.03-.874H4.5L4.594 0h.843v-3.75c0-1.516-.64-2.516-2.125-2.516-.968 0-1.843.438-2.406.797l.406.703c.485-.312 1.125-.64 1.844-.64 1 0 1.25.75 1.25 1.531-2.593.297-3.75.969-3.75 2.281 0 1.11.766 1.735 1.781 1.735zm.296-.812c-.609 0-1.078-.281-1.078-.984 0-.782.688-1.297 2.75-1.532v1.704c-.593.53-1.078.812-1.672.812zm0 0"/></symbol><symbol overflow="visible" id="aZ"><path d="M3.438.14c.734 0 1.437-.28 1.968-.765l-.437-.688c-.375.344-.875.61-1.438.61-1.125 0-1.89-.938-1.89-2.344s.812-2.36 1.921-2.36c.485 0 .86.22 1.22.548l.53-.688c-.437-.375-1-.719-1.796-.719-1.563 0-2.938 1.188-2.938 3.22C.578-1.032 1.828.14 3.438.14zm0 0"/></symbol><symbol overflow="visible" id="ba"><path d="M1.031 0h1.032v-4.438c.609-.609 1.046-.921 1.671-.921.813 0 1.157.484 1.157 1.625V0h1.03v-3.875c0-1.563-.593-2.39-1.874-2.39-.828 0-1.453.452-2.047 1.03h-.031l-.094-.874h-.844zm0 0"/></symbol><symbol overflow="visible" id="bb"><path d="M3.094 2.813c1.89 0 3.078-.985 3.078-2.11 0-1-.703-1.453-2.125-1.453H2.859c-.828 0-1.078-.281-1.078-.672 0-.328.172-.531.407-.734.265.14.609.219.906.219 1.234 0 2.234-.813 2.234-2.125 0-.532-.203-.985-.5-1.266h1.25v-.781H3.953a2.56 2.56 0 0 0-.86-.157c-1.234 0-2.296.844-2.296 2.188 0 .719.39 1.312.797 1.64v.047c-.313.22-.688.625-.688 1.125 0 .485.235.813.563 1v.047C.906.156.562.656.562 1.171c0 1.063 1.032 1.641 2.532 1.641zm0-5.438c-.703 0-1.313-.563-1.313-1.453 0-.906.594-1.438 1.313-1.438s1.297.547 1.297 1.438c0 .89-.594 1.453-1.297 1.453zm.14 4.734c-1.109 0-1.765-.421-1.765-1.078 0-.36.187-.718.625-1.031.265.063.562.094.781.094h1.063c.812 0 1.25.203 1.25.765 0 .641-.782 1.25-1.954 1.25zm0 0"/></symbol><symbol overflow="visible" id="bc"><path d="M5.766-6.047v.766h2.203v3.515h.937V-9.25H7.97v3.203zM1.312-8.453v.765h3.532a5.786 5.786 0 0 1-.25 1.172l-3.797.172.172.75 3.281-.25C3.64-4.875 2.547-4.078.86-3.53l.374.734c3.25-1.078 4.563-3.031 4.563-5.656zM3.485-.141v-2.375h-.921V.61h6.64v-.75zm0 0"/></symbol><symbol overflow="visible" id="bd"><path d="M7.969-4.031h.937V-9.25H7.97v1.828H5.78v.75H7.97zM6.484-4.97C5.047-5.453 4.016-6.687 4.016-8v-.938h-.907V-8c0 1.469-1 2.734-2.53 3.25l.484.734c1.187-.437 2.093-1.312 2.53-2.453.438 1.032 1.313 1.828 2.423 2.219zM3.344-.03V-1.11h5.562v-2.422h-6.5v.734H8v.985H2.437V.703h6.86V-.03zm0 0"/></symbol><symbol overflow="visible" id="be"><path d="M8.875-9.25h-.922V-3h.922zm-2.078 4.5c-1.406.234-2.594.281-4.703.281V-5.78h3.61v-.735h-3.61V-7.78h3.89v-.735H1.172v4.797h.812c2.22 0 3.438-.047 4.907-.297zM5.53.094C4 .094 3.063-.312 3.063-1.016c0-.718.937-1.125 2.468-1.125C7.063-2.14 8-1.734 8-1.016 8-.312 7.062.094 5.531.094zm0-2.953c-2.093 0-3.375.671-3.375 1.843S3.437.828 5.531.828c2.094 0 3.375-.672 3.375-1.844 0-1.171-1.281-1.843-3.375-1.843zm0 0"/></symbol><symbol overflow="visible" id="bf"><path d="M5.953-6.469v.75H7.97v3.86h.937V-9.25H7.97v2.781zm.594 2.375c-1.469-.515-2.453-1.781-2.453-3.093v-.5h2.218v-.75H.923v.75h2.25v.515c0 1.422-1.047 2.766-2.547 3.297l.484.719a4.283 4.283 0 0 0 2.547-2.5 4.184 4.184 0 0 0 2.438 2.281zM3.39-.14v-2.375h-.938V.61h6.735v-.75zm0 0"/></symbol><symbol overflow="visible" id="bg"><path d="M7.64-5.984H2.673v-2.063H7.64zm.907-2.797H1.766v3.531h6.78zM2.672-2.266H1.75V.61h6.969v-.75H2.672zM.578-4.094v.735h4.188v2.046h.921v-2.046H9.75v-.735zm0 0"/></symbol><symbol overflow="visible" id="bh"><path d="M1.14-8.172v.766h3.704c-.219 2.375-1.61 4.312-4.188 5.61l.516.718C4.438-2.718 5.75-5.312 5.75-8.172zm8.844 3.016H8.36v-4.11h-.921V.828h.921v-5.234h1.625zm0 0"/></symbol><symbol overflow="visible" id="bi"><path d="M1.828-7.36h2.11v4.75h-2.11zM.953-1.874h3.844v-6.219H.953zm7.344-7.39v4h-1.36v-3.766h-.875v9.36h.875v-4.845h1.36V.828h.875V-9.266zm0 0"/></symbol><symbol overflow="visible" id="bj"><path d="M8.875-9.25h-.922v6.172h.922zM6.828-4.312C5.328-4.75 4.25-5.891 4.25-7.156v-.125h2.281v-.735H4.266v-1.25h-.922v1.25H1.047v.735h2.297v.125c0 1.375-1.047 2.593-2.547 3.078l.453.734c1.188-.406 2.14-1.25 2.563-2.36.484.985 1.406 1.75 2.593 2.11zM5.531.093C4 .094 3.047-.312 3.047-1.016c0-.718.953-1.125 2.484-1.125 1.516 0 2.453.407 2.453 1.125 0 .704-.937 1.11-2.453 1.11zm0-2.953c-2.11 0-3.39.671-3.39 1.843S3.42.828 5.53.828c2.094 0 3.375-.672 3.375-1.844 0-1.171-1.281-1.843-3.375-1.843zm0 0"/></symbol><symbol overflow="visible" id="bk"><path d="M8.656-6.172H2.672v-1.937h5.922v-.75H1.75v3.437h6.906zM5.156.094C3.563.094 2.625-.296 2.625-1c0-.703.938-1.11 2.531-1.11 1.578 0 2.516.407 2.516 1.11 0 .703-.938 1.094-2.516 1.094zm0-2.922C3-2.828 1.703-2.172 1.703-1 1.703.172 3 .828 5.156.828 7.296.828 8.61.172 8.61-1c0-1.172-1.312-1.828-3.453-1.828zM.594-4.453v.766h9.14v-.766zm0 0"/></symbol><symbol overflow="visible" id="bl"><path d="M1.39-3.594c1.204-.375 2.126-1.172 2.563-2.234.469 1 1.39 1.766 2.578 2.125l.438-.703c-1.485-.438-2.532-1.516-2.563-2.797h2.328v-.734H4.406v-1.25h-.922v1.25H1.188v.734h2.296C3.47-5.875 2.438-4.766.954-4.313zm3.016-.328h-.922v1.875c-1.015.031-2 .031-2.828.031l.125.782c1.797-.016 4.266-.032 6.532-.438l-.079-.687c-.906.14-1.875.203-2.828.265zm3.485-5.344V.844h.921v-10.11zm0 0"/></symbol><symbol overflow="visible" id="bm"><path d="M6.547-4.328c-1.469-.516-2.453-1.797-2.453-3.078v-.407h2.218v-.765H.923v.765h2.25v.407c0 1.422-1.047 2.765-2.547 3.297l.484.734a4.242 4.242 0 0 0 2.532-2.516 4.21 4.21 0 0 0 2.453 2.282zm-4.39 2.406h5.812V.844h.937v-3.516h-6.75zm5.812-7.344v2.641H6v.75h1.969v2.656h.937v-6.047zm0 0"/></symbol><symbol overflow="visible" id="bn"><path d="M2.719-7.422h1.64v4.906c-.546.016-1.109.047-1.64.047zm2.547 0h1.078v-.75H.734v.75h1.079v4.969c-.47.015-.922.015-1.344.015l.11.766c1.78 0 4.187-.031 6.296-.36l-.063-.687c-.5.063-1.015.11-1.546.14zm4.765 2.203H8.36V-9.25h-.921V.828h.921v-5.281h1.672zm0 0"/></symbol><symbol overflow="visible" id="bo"><path d="M8.703-3.813h-6v-1.593h5.672v-.735H2.703v-1.5h5.89v-.734H1.767v5.297h6.937zM.578-1.219v.75H9.75v-.75zm0 0"/></symbol><symbol overflow="visible" id="bp"><path d="M2.063-8.14H1.14v6.546h.796c1.594 0 3.016-.093 4.61-.39l-.125-.797c-1.484.312-2.86.406-4.36.422zm5.921-1.126v3.344H4.891v.766h3.093V.859h.922V-9.266zm0 0"/></symbol><symbol overflow="visible" id="bq"><path d="M6.703-4.844c-1.5-.484-2.547-1.75-2.547-3.125v-.953h-.922v.953c0 1.438-1.046 2.766-2.578 3.313l.469.734a4.319 4.319 0 0 0 2.578-2.515c.453 1.078 1.39 1.921 2.547 2.312zM7.97-.047H3.28V-1.39H7.97zm0-2.062H3.28v-1.22h-.906V.704h6.5v-4.031h-.906zM7.953-9.25v5.406h.922V-9.25zm0 0"/></symbol><symbol overflow="visible" id="br"><path d="M4.203-7.453h2.36v-.766H.938v.766H3.28v1.281c0 1.734-1.234 3.64-2.687 4.328l.547.735c1.14-.579 2.14-1.844 2.593-3.329.485 1.391 1.47 2.547 2.641 3.094l.516-.75c-1.485-.625-2.688-2.375-2.688-4.078zM7.937-9.25V.828h.922V-9.25zm0 0"/></symbol><symbol overflow="visible" id="bs"><path d="M5.89-3.297v.688h2.048v1.03h.921v-7.687h-.921v5.97zM3.829-8.172c.953 0 1.61.438 1.61 1.078 0 .64-.657 1.078-1.61 1.078-.953 0-1.61-.437-1.61-1.078 0-.64.657-1.078 1.61-1.078zm0 2.844c1.469 0 2.485-.688 2.485-1.766 0-1.062-1.016-1.765-2.485-1.765-1.484 0-2.484.703-2.484 1.765 0 1.078 1 1.766 2.484 1.766zm-.36 3.39h.923v-1.984a31.792 31.792 0 0 0 2.734-.297l-.078-.656c-2.14.266-4.64.281-6.5.281l.11.766c.843 0 1.812-.016 2.812-.047zM2.907-.14v-2.187h-.922V.609H9.11v-.75zm0 0"/></symbol><symbol overflow="visible" id="bt"><path d="M8.734-4.922H2.72v-1.25h5.656v-.703H2.719v-1.172h5.89v-.734H1.813v4.594h6.921zM9.75-3.156H.578v.765h4.125V.83h.922v-3.22H9.75zm0 0"/></symbol><symbol overflow="visible" id="bu"><path d="M4-7.453h2.234v-.766H.781v.766h2.297v1.281c0 1.703-1.203 3.625-2.656 4.344l.547.719c1.14-.579 2.11-1.86 2.578-3.329C4-3.093 4.953-1.905 6.078-1.344l.531-.75C5.141-2.78 4-4.563 4-6.172zm6.031 2.266H8.36V-9.25h-.921V.828h.921v-5.234h1.672zm0 0"/></symbol><symbol overflow="visible" id="bv"><path d="M1.625-6.094c0-1 .734-1.718 1.734-1.718.97 0 1.704.718 1.704 1.718 0 1.016-.735 1.735-1.704 1.735-1 0-1.734-.72-1.734-1.735zm6.344-.843v1.687H5.812c.079-.266.125-.547.125-.844 0-.297-.046-.578-.125-.843zm0 2.421v2.72h.937V-9.25H7.97v1.578H5.406c-.468-.578-1.187-.953-2.047-.953C1.875-8.625.75-7.562.75-6.094c0 1.485 1.125 2.532 2.61 2.532.859 0 1.593-.36 2.062-.954zM3.39-.14v-2.421h-.938V.608h6.735v-.75zm0 0"/></symbol><symbol overflow="visible" id="bw"><path d="M6.266-6.453h-1.5c.093-.5.14-1 .14-1.516H1.031v.75H4C3.844-5.109 2.75-3.297.578-2l.547.656c1.906-1.14 3-2.656 3.469-4.36h1.672v1.782H4.437v.75h1.829V.313h.875v-9.297h-.875zm2.03-2.813V.828h.876V-9.266zm0 0"/></symbol><symbol overflow="visible" id="bx"><path d="M8.86-9.266h-.922v5.797h.921zM4.937-5.219H2.03v-2.656h2.906zm.906-3.39H1.125v4.125h4.719zm3.25 6.546v-.718H6.14v-.969h-.938v.969H2.25v.719h2.953C5.187-1.063 3.578-.11 1.86.094l.297.703c1.516-.219 2.922-.89 3.531-1.844C6.282-.109 7.625.578 9.142.797l.328-.703C7.734-.125 6.156-1.11 6.14-2.062zm0 0"/></symbol><symbol overflow="visible" id="by"><path d="M8.86-9.25h-.922v5.219h.921zM6.702-5.047c-1.5-.484-2.547-1.75-2.547-3.14v-.766h-.922v.765c0 1.454-1.046 2.813-2.578 3.344l.485.719a4.334 4.334 0 0 0 2.562-2.516c.453 1.079 1.375 1.922 2.547 2.329zM3.281-.016v-1.078h5.594v-2.422H2.344v.72h5.625v1.015h-5.61v2.5h6.86v-.735zm0 0"/></symbol><symbol overflow="visible" id="bz"><path d="M4.172-8.375h-.906v1.813c0 1.906-1.235 3.843-2.72 4.546l.563.75c1.188-.609 2.157-1.859 2.61-3.375.484 1.438 1.453 2.625 2.61 3.188l.546-.734c-1.5-.688-2.703-2.532-2.703-4.376zm3.766-.89V.858h.921V-9.266zm0 0"/></symbol><symbol overflow="visible" id="bA"><path d="M9.734-4.266h-1.5c.282-1.453.282-2.515.282-3.468v-.875H1.75v.75h5.86v.125c0 .953 0 2.015-.313 3.468H.609v.75h4.079v4.36h.921v-4.36h4.125zm0 0"/></symbol><symbol overflow="visible" id="bB"><path d="M7.984-.047H3.36v-1.297h4.625zm0-2.015H3.36v-1.282h-.906V.703h6.453v-4.047h-.922zM3.36-4.876c-1.015 0-1.734-.656-1.734-1.578s.719-1.563 1.734-1.563c1 0 1.72.641 1.72 1.563 0 .922-.72 1.578-1.72 1.578zM7.97-9.25v2.406H5.922C5.719-8.016 4.719-8.78 3.359-8.78 1.844-8.781.75-7.844.75-6.453c0 1.39 1.094 2.328 2.61 2.328 1.374 0 2.39-.781 2.562-1.969h2.047v2.25h.937V-9.25zm0 0"/></symbol><symbol overflow="visible" id="bC"><path d="M3.984-8.375h-.906v1.813c0 1.828-1.156 3.765-2.61 4.5l.563.75c1.125-.61 2.063-1.875 2.5-3.344C4-3.281 4.906-2.094 5.97-1.516l.578-.734c-1.422-.703-2.563-2.547-2.563-4.313zm6.047 3.219H8.36V-9.25h-.921V.828h.921v-5.234h1.672zm0 0"/></symbol><symbol overflow="visible" id="bD"><path d="M1.828-4.64h2.578v-3.516h-3.5v.75h2.61v2.031H.937v3.766h.641c1.188 0 2.266-.047 3.625-.266l-.078-.766c-1.219.204-2.234.25-3.297.266zm4.453-1.985H4.97v.75H6.28v1.75H4.97v.766H6.28V.328h.86v-9.39h-.86zm2-2.64V.827h.89V-9.266zm0 0"/></symbol><symbol overflow="visible" id="bE"><path d="M7.656-7.89c0 .796 0 1.53-.281 2.562l.906.11c.281-1.032.281-1.86.281-2.673v-.843H1.689V-8h5.968zM5.125.093c-1.578 0-2.594-.422-2.594-1.125 0-.719 1.016-1.14 2.594-1.14 1.578 0 2.594.421 2.594 1.14 0 .703-1.016 1.125-2.594 1.125zm0-2.969c-2.156 0-3.516.688-3.516 1.844C1.61.125 2.97.829 5.125.829c2.14 0 3.516-.704 3.516-1.86 0-1.157-1.375-1.844-3.516-1.844zm.14-1.688v-1.921h-.921v1.921H.625v.766h9.078v-.765zm0 0"/></symbol><symbol overflow="visible" id="bF"><path d="M6.484-4.188C5-4.718 4-6 4-7.374v-1.281h-.922v1.25c0 1.562-.984 2.922-2.531 3.468l.484.735a4.235 4.235 0 0 0 2.532-2.563C4-4.719 4.875-3.875 6.015-3.453zm-3.39 1.672h-.922V.61h6.687v-.75H3.094zm5.328-3.656v-3.094H7.5v7.454h.922v-3.594h1.5v-.766zm0 0"/></symbol><symbol overflow="visible" id="bG"><path d="M6.578-8.188H4.062v-1.124h-.921v1.124H.625v.735h5.953zM2.062-5.094c0-.672.61-1.11 1.532-1.11s1.547.438 1.547 1.095C5.14-4.438 4.516-4 3.594-4c-.922 0-1.531-.422-1.531-1.094zm3.954 0c0-1.11-.97-1.843-2.422-1.843-1.422 0-2.406.734-2.406 1.828 0 1.109.984 1.828 2.406 1.828 1.453 0 2.422-.719 2.422-1.813zM1.875-1.64H7.5V.844h.922v-3.235H1.875zm8.047-4.828h-1.5V-9.25H7.5v6.297h.922v-2.75h1.5zm0 0"/></symbol><symbol overflow="visible" id="bH"><path d="M7.61-5.64H2.718v-1.298h4.89zm.921-3.298H7.61v1.282H2.72v-1.282h-.922v4.032H8.53zM2.656-2.14H1.75V.61h6.969v-.75H2.656zM.578-3.92v.733h4.188v1.97h.921v-1.97H9.75v-.734zm0 0"/></symbol><symbol overflow="visible" id="bI"><path d="M3.281-2.266c-.969 0-1.656-1.062-1.656-2.703 0-1.625.688-2.687 1.656-2.687.969 0 1.656 1.062 1.656 2.687 0 1.64-.687 2.703-1.656 2.703zm0-6.218C1.797-8.484.75-7.11.75-4.97c0 2.157 1.047 3.532 2.531 3.532 1.485 0 2.531-1.375 2.531-3.532 0-2.14-1.046-3.515-2.53-3.515zm6.688 2.53v-.765h-1.61V-9.25h-.921V.828h.921v-3.781h1.61v-.766h-1.61v-2.234zm0 0"/></symbol><symbol overflow="visible" id="bJ"><path d="M7.969-7.094v1.11H5.64v-1.11zM4.734-5.125H2.016v-1.5h2.718zm.907-.14h2.328v1.28h.937V-9.25H7.97v1.438H5.64v-.97h-.907v1.438H2.016V-8.78h-.907v4.39h4.532zM3.328-.032V-1.11h5.578V-3.5H2.391v.734h5.593v.97H2.422v2.5h6.86v-.735zm0 0"/></symbol><symbol overflow="visible" id="bK"><path d="M7.719-7.25c0 1.219 0 2.64-.39 4.578l.921.094C8.64-4.61 8.64-6 8.64-7.25v-1H1.563v.75H7.72zm-2.64 5.906v-3.61h-.923v3.61H.61v.766h9.125v-.766zm0 0"/></symbol><symbol overflow="visible" id="bL"><path d="M5.156.11C3.563.11 2.625-.282 2.625-.985c0-.72.938-1.11 2.531-1.11 1.578 0 2.516.39 2.516 1.11 0 .703-.938 1.093-2.516 1.093zm0-2.922c-2.156 0-3.453.656-3.453 1.828C1.703.187 3 .828 5.156.828c2.14 0 3.453-.64 3.453-1.812 0-1.172-1.312-1.829-3.453-1.829zm.469-1.47v-1.155h3.031v-.75H2.672v-1.875h5.922v-.735H1.75v3.36h2.953v1.156H.593v.75h9.141v-.75zm0 0"/></symbol><symbol overflow="visible" id="bM"><path d="M6.578-8.125H4.062v-1.219h-.921v1.219H.625v.75h5.953zM2.062-5.094c0-.672.61-1.078 1.532-1.078s1.547.406 1.547 1.078C5.14-4.437 4.516-4 3.594-4c-.922 0-1.531-.438-1.531-1.094zm3.954 0c0-1.078-.97-1.781-2.422-1.781-1.438 0-2.406.703-2.406 1.781 0 1.094.968 1.782 2.406 1.782 1.453 0 2.422-.688 2.422-1.782zM5.266.11C3.796.11 2.89-.266 2.89-.92c0-.657.906-1.032 2.375-1.032 1.468 0 2.375.375 2.375 1.031C7.64-.266 6.734.11 5.266.11zm0-2.78c-2.032 0-3.282.64-3.282 1.75 0 1.109 1.25 1.75 3.282 1.75 2.03 0 3.28-.641 3.28-1.75 0-1.11-1.25-1.75-3.28-1.75zm4.64-4.095v-.75H8.422v-1.75H7.5v6.5h.922v-1.828h1.484v-.765H8.422v-1.407zm0 0"/></symbol><symbol overflow="visible" id="bN"><path d="M4.125-8.39h-.922v1.812c0 1.86-1.14 3.812-2.61 4.547l.563.719c1.14-.594 2.078-1.875 2.516-3.375.453 1.421 1.375 2.625 2.531 3.203l.531-.735c-1.453-.687-2.609-2.531-2.609-4.36zm3.86-.876v3.422H5.64v.766h2.343V.844h.922v-10.11zm0 0"/></symbol><symbol overflow="visible" id="bO"><path d="M7.656-5.5h-5v-2.453h5zm.922-3.203H1.75v3.937h6.828zM9.75-3.391H.578v.75h4.11V.83h.921v-3.47H9.75zm0 0"/></symbol><symbol overflow="visible" id="bP"><path d="M4.063-3.078h2.312v1.906H4.062zM7.28-1.172v-1.906H8.86v-.766H2.641v-1.61h5.984v-3.062H1.703v.75H7.72v1.563H1.734v3.125h1.422v1.906H.578v.75H9.75v-.75zm0 0"/></symbol><symbol overflow="visible" id="bQ"><path d="M3.953-2.438H1.828v-2.671h2.125zm0-3.406H1.828v-2.453H.953v6.594h3.86v-6.594h-.86zm4.344-3.422v4h-1.36V-9.03h-.875V.344h.875v-4.86h1.36V.828h.875V-9.266zm0 0"/></symbol><symbol overflow="visible" id="bR"><path d="M3.89-7.547h2.516v3.313H3.891zm1.72 6.36V-3.5h3.25v-.734H7.327v-3.313h1.563v-.75H1.406v.75H2.97v3.313H1.422v.734h3.266v2.313H.593v.765H9.75v-.766zm0 0"/></symbol><symbol overflow="visible" id="bS"><path d="M5.156.11C3.563.11 2.625-.282 2.625-.97c0-.687.938-1.078 2.531-1.078 1.578 0 2.516.39 2.516 1.078C7.672-.28 6.734.11 5.156.11zm0-2.876c-2.156 0-3.453.641-3.453 1.797S3 .828 5.156.828C7.328.828 8.61.188 8.61-.969c0-1.156-1.28-1.797-3.453-1.797zM3.75-5.437c.422.062.89.109 1.406.109.516 0 .985-.047 1.407-.11v1.172H3.75zM2.547-7.204c0-.734 1-1.156 2.61-1.156 1.609 0 2.593.421 2.593 1.156 0 .719-.984 1.156-2.594 1.156-1.61 0-2.61-.437-2.61-1.156zm4.922 2.937v-1.421C8.25-6 8.703-6.532 8.703-7.204c0-1.172-1.36-1.875-3.547-1.875-2.187 0-3.547.703-3.547 1.875 0 .687.438 1.203 1.235 1.516v1.421H.578v.75h9.14v-.75zm0 0"/></symbol><symbol overflow="visible" id="bT"><path d="M6.688-8.031H4.14V-9.25h-.922v1.219H.656v.734h6.032zM2.171-4.844c0-.687.61-1.156 1.5-1.156.906 0 1.515.469 1.515 1.156 0 .703-.609 1.157-1.515 1.157-.89 0-1.5-.454-1.5-1.157zM4.14-3c1.156-.14 1.921-.844 1.921-1.844 0-1.125-.984-1.86-2.39-1.86-1.406 0-2.375.735-2.375 1.86 0 1 .766 1.703 1.922 1.844v1.11c-.985.03-1.922.03-2.735.03l.125.782c1.766 0 4.141-.031 6.297-.406l-.062-.688c-.86.14-1.797.203-2.703.25zm5.796-1.969H8.376v-4.297h-.922V.828h.922v-5.031h1.563zm0 0"/></symbol><symbol overflow="visible" id="bU"><path d="M1.422-4.719c1.656-.156 3.14-.765 3.734-1.781.61 1.016 2.078 1.625 3.735 1.781l.296-.703c-1.937-.187-3.468-.969-3.53-2.11H8.78v-.718H5.625v-1.063h-.922v1.063H1.547v.719h3.11c-.063 1.14-1.595 1.922-3.516 2.11zm.187 3.25h6.063V.844h.922v-3.047H1.609zm4.016-2.453v-1.234h-.922v1.234H.593v.75H9.72v-.75zm0 0"/></symbol><symbol overflow="visible" id="bV"><path d="M8.875-9.25h-.922v7.375h.922zm-2.11 5.219c-1.484-.5-2.53-1.735-2.53-3.094v-.547h2.28v-.75H.986v.75H3.28v.547c0 1.438-1.015 2.766-2.547 3.281l.485.735c1.187-.438 2.125-1.344 2.547-2.5.468 1.062 1.39 1.89 2.546 2.296zM3.314-.141v-2.421H2.39V.608h6.796v-.75zm0 0"/></symbol><symbol overflow="visible" id="bW"><path d="M5.156-8.39c1.657 0 2.594.374 2.594 1.062 0 .672-.938 1.047-2.594 1.047s-2.61-.375-2.61-1.047c0-.688.954-1.063 2.61-1.063zm0 2.796c2.219 0 3.547-.61 3.547-1.734 0-1.14-1.328-1.766-3.547-1.766-2.218 0-3.547.625-3.547 1.766 0 1.125 1.329 1.734 3.547 1.734zM2.625-1.03h5.922v-2.266h-6.86v.703h5.954v.89H1.719V.72h7.14V0H2.625zM.578-4.906v.75h9.14v-.75zm0 0"/></symbol><symbol overflow="visible" id="bX"><path d="M3.906-8.016c.969 0 1.672.516 1.672 1.313 0 .781-.703 1.312-1.672 1.312-1 0-1.687-.53-1.687-1.312 0-.797.687-1.313 1.687-1.313zm0 3.375c1.5 0 2.563-.843 2.563-2.062 0-1.234-1.063-2.078-2.563-2.078-1.515 0-2.578.844-2.578 2.078 0 1.219 1.063 2.062 2.578 2.062zm3.313.5c-2.219.344-4.766.36-6.64.36L.702-3c.828 0 1.781-.016 2.781-.063V.517h.922V-3.11a26.027 26.027 0 0 0 2.89-.344zm.734-5.109V.844h.922V-9.25zm0 0"/></symbol><symbol overflow="visible" id="bY"><path d="M2.688-2.313h-.922V.61h6.937v-.75H2.688zm-.141-4.624c0-.797 1.015-1.282 2.61-1.282 1.577 0 2.593.485 2.593 1.281 0 .797-1.016 1.25-2.594 1.25-1.593 0-2.61-.453-2.61-1.25zm3.078 3.046v-1.062c1.875-.094 3.078-.828 3.078-1.984 0-1.266-1.39-2.016-3.547-2.016-2.156 0-3.547.75-3.547 2.015 0 1.172 1.188 1.891 3.094 1.985v1.062H.593v.75h9.11v-.75zm0 0"/></symbol><symbol overflow="visible" id="bZ"><path d="M1.906-4.703h3.64v-3.625H.985v.75h3.657v2.125H1.016v3.86h.796c1.922 0 3.266-.079 4.844-.36l-.093-.766c-1.516.281-2.813.36-4.657.36zm8.125-.547H8.375v-4.016h-.922V.844h.922v-5.328h1.656zm0 0"/></symbol><symbol overflow="visible" id="ca"><path d="M6.406-6.313H3.891v-1.921h2.515zm-3.437 0h-1.5v.704h7.343v-.704H7.329v-1.921h1.516v-.704H1.438v.704h1.53zM2.625-.921h5.922V-3.14h-6.86v.688h5.954v.86H1.719V.718h7.14V.016H2.625zM.578-4.766v.735h9.14v-.735zm0 0"/></symbol><symbol overflow="visible" id="cb"><path d="M6.875-5.875h1.344v3.484h.89V-9.25h-.89v2.64H6.875v-2.452H6v5.796h.875zM5.406-4.453c-1.156.234-2.156.297-3.453.297v-1.485h2.875v-2.812H1.031v.734h2.907v1.375H1.062v2.938h.657c1.453 0 2.515-.063 3.797-.313zm.797 1.61h-.922v.25c0 1.312-1.64 2.39-3.406 2.671l.36.719c1.5-.25 2.89-1.031 3.515-2.14C6.36-.235 7.781.546 9.266.796l.359-.719c-1.766-.281-3.422-1.36-3.422-2.672zm0 0"/></symbol><symbol overflow="visible" id="cc"><path d="M2.625-1.75h5.078v1.703H2.625zM1.719.703h6.89v-3.172H1.72zm2.172-8.89h2.515v2.109H3.891zm1.718 4.015v-1.156h3.204v-.75H7.327v-2.11H8.86v-.75H1.453v.75H2.97v2.11H1.484v.75h3.204v1.156H.593v.734h9.125v-.734zm0 0"/></symbol><symbol overflow="visible" id="cd"><path d="M14.156-9.219H4.984v-.984h8.641v-1.719h-8.64v-.906h9.046v-1.797H2.625v7.203h11.531zM2.422-1.625h9.11v3.188h2.374v-5.047H2.422zM.75-6.422v1.89h14.984v-1.89zm0 0"/></symbol><symbol overflow="visible" id="ce"><path d="M10.438-12.578H6.812v-2.156H4.438v2.156H.767v1.937h9.671zm-4.829 8.75c-1 0-1.78-.735-1.78-1.969 0-1.219.78-1.953 1.78-1.953 1.032 0 1.813.734 1.813 1.953 0 1.234-.781 1.969-1.813 1.969zm0-5.922c-2.265 0-3.968 1.672-3.968 3.953 0 2.297 1.703 3.969 3.968 3.969 2.282 0 4-1.672 4-3.969 0-2.281-1.718-3.953-4-3.953zm6.688-5.266V-8.5h-2.172v1.922h2.172v8.125h2.375v-16.563zm0 0"/></symbol><symbol overflow="visible" id="cf"><path d="M14.063-10.469H4.969v-2.203h9v-1.89H2.609v5.968h11.454zM8.218-.25C6-.25 4.875-.625 4.875-1.5c0-.86 1.125-1.25 3.344-1.25s3.344.39 3.344 1.25c0 .875-1.126 1.25-3.344 1.25zm0-4.297c-3.578 0-5.735 1.094-5.735 3.047S4.641 1.547 8.22 1.547c3.578 0 5.75-1.094 5.75-3.047s-2.172-3.047-5.75-3.047zM.797-7.453V-5.5h14.969v-1.953zm0 0"/></symbol><symbol overflow="visible" id="cg"><path d="M2.422-1.453h9.25V1.5h2.375v-4.828H2.422zm7.031-4.703v-1.188h4.828V-9.14H4.984v-1.078h8.954v-4.469H2.608v1.797h8.985v1H2.64v4.547h4.437v1.188H.766v1.89h15v-1.89zm0 0"/></symbol><symbol overflow="visible" id="ci"><path d="M.86 0H5.53v-1.25H4.063v-6.516H2.921c-.485.313-1.031.516-1.797.657v.953h1.406v4.906H.86zm0 0"/></symbol><symbol overflow="visible" id="cj"><path d="M3.938-6.078h1.921v-1.11H3.953V-8.53h-1.39v1.344H.609v1.109h1.954v.328c0 1.453-.72 3.094-2.282 3.813l.75 1.062c1.078-.484 1.828-1.469 2.235-2.61.406 1.063 1.109 1.97 2.14 2.438l.735-1.047C4.625-2.828 3.937-4.375 3.937-5.75zM9.421-5H8.016v-3.75H6.625V.906h1.39v-4.765h1.407zm0 0"/></symbol><symbol overflow="visible" id="cl"><path d="M8.25-5.375H2.906v-.563h5.047v-1.015H2.906v-.516h5.266V-8.53h-6.64v4.203H8.25zM1.422-.937h5.297V.905h1.39V-2.03H1.422zM.438-3.75v1.11h8.734v-1.11zm0 0"/></symbol><symbol overflow="visible" id="cm"><path d="M6.078-7.328h-2.11v-1.266H2.595v1.266H.454v1.125h5.624zM3.266-2.234c-.579 0-1.032-.422-1.032-1.141 0-.719.454-1.14 1.032-1.14.609 0 1.062.421 1.062 1.14 0 .719-.453 1.14-1.062 1.14zm0-3.454c-1.313 0-2.313.985-2.313 2.313 0 1.328 1 2.313 2.313 2.313 1.343 0 2.328-.985 2.328-2.313 0-1.328-.985-2.313-2.328-2.313zM7.172-8.75v3.797H5.906v1.11h1.266v4.75h1.39V-8.75zm0 0"/></symbol><symbol overflow="visible" id="cW"><path d="M.453 0h5.203v-1.297H3.97c-.36 0-.875.031-1.266.078 1.422-1.375 2.578-2.89 2.578-4.297 0-1.453-.968-2.39-2.437-2.39-1.063 0-1.75.422-2.469 1.172l.844.843c.39-.437.86-.796 1.422-.796.734 0 1.171.468 1.171 1.25 0 1.203-1.25 2.656-3.359 4.546zm0 0"/></symbol><symbol overflow="visible" id="co"><path d="M1.156-7.625v5.938h4.188v-5.938zm3.64.469v5H1.704v-5zm2.798-1.422V.734h.547v-9.312zm0 0"/></symbol><symbol overflow="visible" id="cp"><path d="M1.484-2.078v-2.375h2.891v-3.063H.906v.485h2.938v2.11H.938v3.327h.578c1.171 0 2.25-.047 3.609-.297l-.063-.468c-1.312.234-2.39.28-3.546.28zm6.422-6.516v3.797h-1.61v-3.562h-.53V.234h.53v-4.562h1.61V.734h.547v-9.328zm0 0"/></symbol><symbol overflow="visible" id="cq"><path d="M3.625-7.86c-1.438 0-2.453.86-2.453 2.126 0 1.265 1.016 2.125 2.453 2.125 1.453 0 2.453-.86 2.453-2.125 0-1.266-1-2.125-2.453-2.125zm0 .485c1.11 0 1.922.688 1.922 1.64 0 .954-.813 1.641-1.922 1.641-1.11 0-1.922-.687-1.922-1.64 0-.954.813-1.641 1.922-1.641zM7.5-8.578V.75h.563v-9.328zM.75-1.406c1.688 0 4.016 0 6.156-.39l-.062-.423C4.766-1.89 2.39-1.89.656-1.89zm0 0"/></symbol><symbol overflow="visible" id="cr"><path d="M6.14-7.5H3.673v-1.14h-.563v1.14H.625v.469h5.516zM1.704-4.766c0-.734.688-1.218 1.688-1.218.984 0 1.656.484 1.656 1.218 0 .704-.672 1.204-1.656 1.204-1 0-1.688-.5-1.688-1.204zm3.875 0c0-1.03-.875-1.656-2.187-1.656-1.329 0-2.204.625-2.204 1.656 0 1.016.875 1.657 2.204 1.657 1.312 0 2.187-.641 2.187-1.657zM1.812-1.719H7.22V.72h.547v-2.906H1.812zM9.22-5.906H7.766v-2.688h-.547v5.828h.547v-2.671h1.453zm0 0"/></symbol><symbol overflow="visible" id="cs"><path d="M6.39-5.469h1.47v2.672h.53v-5.781h-.53v2.64H6.39V-8.39h-.546v5.282h.547zM5.235-4.062c-1.171-.454-2-1.532-2-2.579V-8h-.53v1.36c0 1.046-.86 2.296-2.032 2.812l.312.437c.938-.421 1.657-1.296 2-2.218a3.411 3.411 0 0 0 1.954 1.968zM5.391.266c-1.516 0-2.5-.454-2.5-1.172 0-.735.984-1.188 2.5-1.188 1.53 0 2.5.453 2.5 1.188 0 .719-.97 1.172-2.5 1.172zm0-2.797c-1.907 0-3.047.578-3.047 1.625 0 1.031 1.14 1.61 3.047 1.61 1.89 0 3.046-.579 3.046-1.61 0-1.047-1.156-1.625-3.046-1.625zm0 0"/></symbol><symbol overflow="visible" id="ct"><path d="M4.672-4.25H1.594v-3.14h3.078zm2.953-2.266v1.375H5.203v-1.375zM5.203-4.672h2.422v1.625h.547v-5.531h-.547v1.594H5.203v-.875h-4.14v4.062h4.14zM5.172.25c-1.516 0-2.5-.484-2.5-1.266 0-.78.984-1.265 2.5-1.265s2.5.484 2.5 1.265c0 .782-.984 1.266-2.5 1.266zm0-2.984c-1.89 0-3.047.609-3.047 1.718 0 1.094 1.156 1.72 3.047 1.72 1.89 0 3.047-.626 3.047-1.72 0-1.109-1.156-1.718-3.047-1.718zm0 0"/></symbol><symbol overflow="visible" id="cu"><path d="M5.39-3.39c.282-1.844.282-3.11.282-3.766V-7.5H1.016v.453h4.109c0 .688-.016 1.906-.297 3.61zM3.189-4.845H2.64v2.922c-.766.031-1.5.031-2.157.031l.094.485c1.672-.016 3.906-.047 5.875-.344l-.031-.422c-1.016.14-2.14.203-3.234.235zm6.062.235H7.625v-3.985h-.563V.734h.563v-4.828H9.25zm0 0"/></symbol><symbol overflow="visible" id="cv"><path d="M7.344-5.094H2.28v-1.422h5.063zm.547-3.203h-.547v1.328H2.28v-1.328h-.547v3.672h6.157zM2.25-2h-.547V.5h6.39V.031H2.25zM.578-3.563v.454h3.985v2.015h.546v-2.015h3.922v-.454zm0 0"/></symbol><symbol overflow="visible" id="cw"><path d="M3.063-1.906c-1.032 0-1.75-1.125-1.75-2.719 0-1.594.718-2.703 1.75-2.703 1.03 0 1.75 1.11 1.75 2.703 0 1.594-.72 2.719-1.75 2.719zm0-5.922C1.718-7.828.78-6.562.78-4.625c0 1.953.938 3.203 2.281 3.203 1.344 0 2.282-1.25 2.282-3.203 0-1.938-.938-3.203-2.282-3.203zM9.28-5.656v-.485h-1.61v-2.437h-.546V.734h.547v-3.593h1.61v-.47h-1.61v-2.327zm0 0"/></symbol><symbol overflow="visible" id="cx"><path d="M1.297-5.688c0-1 .766-1.78 1.812-1.78 1.047 0 1.829.78 1.829 1.78 0 1.032-.782 1.813-1.829 1.813-1.046 0-1.812-.781-1.812-1.813zm6.328-.875v1.75H5.328a2.635 2.635 0 0 0-.016-1.75zm0 2.22v2.687h.547v-6.922h-.547v1.547H5.062c-.421-.563-1.125-.922-1.953-.922C1.75-7.953.75-7.031.75-5.687c0 1.359 1 2.296 2.36 2.296.843 0 1.546-.359 1.968-.953zM2.922.03v-2.406h-.563V.5h6.11V.031zm0 0"/></symbol><symbol overflow="visible" id="cy"><path d="M9-3.922H7.547c.281-1.36.281-2.344.281-3.219v-.796H1.703v.468h5.578v.328c0 .875 0 1.86-.312 3.22H.594v.468h3.922V.75h.562v-4.203H9zm0 0"/></symbol><symbol overflow="visible" id="cz"><path d="M4.719-4.625h-3.11v-1.656h3.11zm.547-3.594h-.547v1.485h-3.11V-8.22h-.562v4.063h4.219zM2.562-1.125h5.204v-2.094H1.984v.453H7.22v1.188H2.016V.594H8.14V.14H2.562zm5.204-5.328v-2.14h-.547v4.874h.547v-2.25h1.453v-.484zm0 0"/></symbol><symbol overflow="visible" id="cA"><path d="M9.047-4.656v-.469H7.672c.219-1.078.219-1.875.219-2.5v-.578H1.687v.469h5.657v.109c0 .625 0 1.39-.219 2.5H.594v.469h3.922v1.406H1.625v.469h5.781v1.187H1.641V.594h6.53V.125H2.189v-1.281h5.765V-3.25H5.078v-1.406zm0 0"/></symbol><symbol overflow="visible" id="cB"><path d="M8.156-8.594h-.562v5.39h.562zm-3.36 3.906H1.642V-7.5h3.156zm.532-3.265H1.094v3.734h4.234zm.281 5.922h2.813v-.438H5.609v-1.015h-.562v1.015H2.25v.438h2.797v.11C5.047-.876 3.219.062 1.859.25l.204.438c1.265-.22 2.734-.907 3.265-1.86.516.938 1.922 1.64 3.203 1.86L8.734.25C7.375.047 5.61-.875 5.61-1.922zm0 0"/></symbol><symbol overflow="visible" id="cC"><path d="M5.969-3.844c-1.266-.406-2.36-1.469-2.36-2.703v-.344h2.204v-.453H3.624V-8.64h-.547v1.297H.86v.453h2.22v.344c0 1.375-1.11 2.516-2.407 2.953l.265.438c1.094-.39 2.047-1.235 2.422-2.328.391.968 1.297 1.718 2.344 2.078zM4.829.25c-1.5 0-2.454-.453-2.454-1.172 0-.734.953-1.172 2.453-1.172s2.469.438 2.469 1.172C7.297-.203 6.328.25 4.828.25zm0-2.797c-1.876 0-3 .578-3 1.625 0 1.031 1.124 1.61 3 1.61 1.874 0 3.015-.579 3.015-1.61 0-1.047-1.14-1.625-3.016-1.625zM7.765-6.03v-2.547h-.547v5.75h.547v-2.735h1.453v-.468zm0 0"/></symbol><symbol overflow="visible" id="cD"><path d="M7.625.125H2.922v-1.406h4.703zm0-1.86H2.922v-1.359h-.563V.594h5.813v-3.688h-.547zM3.109-4.358C2.063-4.36 1.297-5.08 1.297-6c0-.969.766-1.656 1.812-1.656 1.063 0 1.829.687 1.829 1.656 0 .922-.766 1.64-1.829 1.64zm4.516-4.22v2.313H5.469c-.14-1.125-1.078-1.859-2.36-1.859C1.734-8.125.75-7.281.75-6c0 1.25.984 2.11 2.36 2.11 1.296 0 2.234-.75 2.359-1.891h2.156v2.203h.547v-5zm0 0"/></symbol><symbol overflow="visible" id="cE"><path d="M1.547-2.156v-2.36h2.937v-.468H1.547V-7h3.062v-.469H1v5.797h.578c1.563 0 2.453-.062 3.531-.281l-.062-.484c-1.047.234-1.922.28-3.469.28zm6.375-6.438v3.828H6.39v-3.593h-.547V.234h.547V-4.28h1.53V.734h.548v-9.328zm0 0"/></symbol><symbol overflow="visible" id="cF"><path d="M6.078-5.922H4.406c.094-.469.14-.953.14-1.422H1v.469h3c-.125 2-1.25 3.89-3.344 5.14L1-1.327c1.766-1.063 2.844-2.516 3.281-4.125h1.797v1.875H4.141v.469h1.937V.219h.531v-8.531h-.53zm1.844-2.656V.734h.531v-9.312zm0 0"/></symbol><symbol overflow="visible" id="cG"><path d="M1.36-4.484c1.39-.188 2.921-.766 3.437-1.844.531 1.078 2.047 1.656 3.437 1.844l.188-.438c-1.516-.172-3.313-.937-3.328-2.234h3.031v-.469H5.078v-1.047h-.547v1.047H1.5v.469h3.016C4.5-5.86 2.703-5.094 1.187-4.922zM9-3.36v-.485H.594v.485H4.53v1.203h-3v.469h5.875V.688h.547v-2.844H5.078V-3.36zm0 0"/></symbol><symbol overflow="visible" id="cH"><path d="M3.703-7.719h-.547v1.86c0 1.734-1.344 3.515-2.562 4.14l.344.453c1.03-.562 2.078-1.812 2.5-3.28.437 1.405 1.484 2.593 2.5 3.124l.359-.437c-1.25-.594-2.594-2.297-2.594-4zm3.89-.86V.75h.548v-9.328zm0 0"/></symbol><symbol overflow="visible" id="cI"><path d="M8.531-3.75C7.22-4 5.062-5.406 5.062-7.125v-.75h-.578v.75c0 1.719-2.109 3.11-3.453 3.375l.266.484C2.53-3.594 4.203-4.625 4.78-6.078c.578 1.453 2.266 2.5 3.485 2.812zM.594-1.062v.468H9.03v-.469zm0 0"/></symbol><symbol overflow="visible" id="cJ"><path d="M6.078-3.047h.531v-5.375h-.53v2.235H4.64v.468h1.437zM5.047-4.375c-1.031.219-1.906.266-3.422.266h-.016v-1.516h2.579v-.453H1.608v-1.39h2.97v-.485H1.062v4.312h.562c1.547 0 2.422-.046 3.5-.28zm-2.11 2.39H7.86V.11H2.938zM2.391.595h6v-3.047h-6zm5.468-9.188v5.656h.532v-5.656zm0 0"/></symbol><symbol overflow="visible" id="cK"><path d="M1.125 1.031h1.906V.656H1.61v-9.25h1.422v-.375H1.125zm0 0"/></symbol><symbol overflow="visible" id="cL"><path d="M8.016-5.547H2.219v-2.125h5.719v-.469H1.671v3.063h6.344zM4.796.25C3.204.25 2.188-.203 2.188-.953s1.016-1.203 2.61-1.203c1.594 0 2.61.453 2.61 1.203S6.39.25 4.796.25zm0-2.86c-1.968 0-3.155.594-3.155 1.657C1.64.109 2.828.703 4.797.703S7.969.11 7.969-.953c0-1.063-1.203-1.656-3.172-1.656zM.595-4.03v.468h8.422v-.468zm0 0"/></symbol><symbol overflow="visible" id="cM"><path d="M1.531-1.61h5.875V.61h.563v-2.688H1.53zm3.547-1.765v-1.172h3.047v-.469H2.25v-1.203h5.672v-2.078h-6.25v.438h5.703v1.203H1.703v2.11h2.828v1.171H.578v.469h8.453v-.469zm0 0"/></symbol><symbol overflow="visible" id="cN"><path d="M8.172-8.594h-.563v4.86h.563zM1.406-6.172c0-.89.766-1.562 1.797-1.562 1.047 0 1.813.671 1.813 1.562 0 .89-.766 1.563-1.813 1.563-1.031 0-1.797-.672-1.797-1.563zm4.157 0c0-1.203-.985-2.031-2.36-2.031S.86-7.375.86-6.172c0 1.203.97 2.016 2.344 2.016 1.375 0 2.36-.813 2.36-2.016zM2.828.125v-1.281h5.344v-2.078H2.25v.468h5.375v1.157H2.281V.594h6.25V.125zm0 0"/></symbol><symbol overflow="visible" id="cO"><path d="M1.328-6.453c.25 0 .516-.219.516-.578 0-.344-.266-.563-.516-.563a.538.538 0 0 0-.547.563c0 .36.25.578.547.578zm0 5.484c.25 0 .516-.219.516-.578 0-.344-.266-.578-.516-.578-.297 0-.547.234-.547.578 0 .36.25.578.547.578zm0 0"/></symbol><symbol overflow="visible" id="cP"><path d="M.469 0h4.61v-.547H2.687c-.391 0-.829.031-1.25.063 2.03-1.891 3.265-3.5 3.265-5.11 0-1.312-.781-2.187-2.11-2.187-.921 0-1.577.468-2.155 1.11l.39.359c.438-.547 1.031-.954 1.703-.954 1.078 0 1.563.75 1.563 1.704 0 1.375-1.032 2.953-3.625 5.187zm0 0"/></symbol><symbol overflow="visible" id="cQ"><path d="M2.813.14c1.374 0 2.234-1.296 2.234-3.984 0-2.656-.86-3.937-2.234-3.937-1.391 0-2.25 1.281-2.25 3.937 0 2.688.859 3.985 2.25 3.985zm0-.515c-1 0-1.657-1.156-1.657-3.469 0-2.281.657-3.422 1.657-3.422.984 0 1.64 1.141 1.64 3.422 0 2.313-.656 3.469-1.64 3.469zm0 0"/></symbol><symbol overflow="visible" id="cR"><path d="M.969 0h3.937v-.531H3.313v-7.11h-.485c-.375.204-.844.375-1.469.485v.406h1.329v6.219H.968zm0 0"/></symbol><symbol overflow="visible" id="cS"><path d="M7.625-1.64h.547v-6.938h-.547v1.312h-2.86v.47h2.86v1.343h-2.86v.469h2.86zM5.953-4c-1.531.281-2.812.36-4.125.36h-.125v-4.22h-.547v4.704h.672c1.344 0 2.625-.078 4.188-.36zM2.891.031v-2.25h-.547V.5h6.11V.031zm0 0"/></symbol><symbol overflow="visible" id="cT"><path d="M2.703.14C4 .14 5.016-.687 5.016-2.03 5.016-3.11 4.25-3.797 3.328-4v-.047c.828-.266 1.406-.906 1.406-1.89 0-1.188-.89-1.844-2.062-1.86-.875.016-1.516.422-2.047.906l.36.422C1.405-6.922 2-7.266 2.655-7.28c.89.015 1.453.562 1.453 1.39 0 .907-.593 1.641-2.265 1.641v.5c1.828 0 2.531.703 2.531 1.719 0 1-.703 1.64-1.688 1.64-.984 0-1.578-.453-2.015-.937l-.344.422C.812-.391 1.516.14 2.703.14zm0 0"/></symbol><symbol overflow="visible" id="cU"><path d="M5.547-4.078v.406H7.53v.625h.547v-5.515h-.547v4.484zM3.578-7.953c1.063 0 1.75.39 1.75.984 0 .578-.687.985-1.75.985-1.047 0-1.75-.407-1.75-.985 0-.593.703-.984 1.75-.984zm0 2.375c1.375 0 2.281-.531 2.281-1.39 0-.876-.906-1.391-2.28-1.391-1.376 0-2.267.515-2.267 1.39 0 .86.891 1.39 2.266 1.39zM3.25-3h.563v-1.547a29.65 29.65 0 0 0 2.89-.266l-.031-.39c-2 .25-4.328.266-6.125.266l.078.453c.797 0 1.688 0 2.625-.032zM2.578.156V-.875h5.5v-1.781H2.016v.406H7.53v.953H2.047v1.89h6.422V.157zm0 0"/></symbol><symbol overflow="visible" id="cV"><path d="M.266 1.031h1.906v-10H.266v.375h1.437v9.25H.266zm0 0"/></symbol><symbol overflow="visible" id="cX"><path d="M1.984-5.531c0-1.11 1.204-1.907 2.813-1.907 1.61 0 2.797.797 2.797 1.907 0 1.125-1.188 1.922-2.797 1.922-1.61 0-2.813-.797-2.813-1.922zM5.078-1v-2.172c1.797-.094 3.047-.984 3.047-2.36 0-1.437-1.39-2.359-3.328-2.359s-3.328.922-3.328 2.36c0 1.375 1.25 2.265 3.047 2.36V-1H.594v.469H9.03V-1zm0 0"/></symbol><symbol overflow="visible" id="cY"><path d="M6.078-5.156H3.484v-2.438h2.594zm-3.125 0H1.422v.468h6.734v-.468H6.641v-2.438h1.53v-.453H1.407v.453h1.547zm-.672 3.11H1.72V.5h6.36V.031H2.28zM.594-3.5v.469H9V-3.5zm0 0"/></symbol><symbol overflow="visible" id="cZ"><path d="M7.594-8.578V.734h.547v-9.312zm-4.297.75c-1.36 0-2.313 1.266-2.313 3.203 0 1.953.954 3.203 2.313 3.203 1.36 0 2.312-1.25 2.312-3.203 0-1.938-.953-3.203-2.312-3.203zm0 .5c1.047 0 1.781 1.11 1.781 2.703 0 1.594-.734 2.719-1.781 2.719S1.516-3.031 1.516-4.625c0-1.594.734-2.703 1.78-2.703zm0 0"/></symbol><symbol overflow="visible" id="da"><path d="M5.078-1.031V-3.75h2.953v-.469H2.234V-7.75h-.562v4h2.844v2.719H.594v.468H9.03v-.468zm0 0"/></symbol><symbol overflow="visible" id="db"><path d="M3.938-2.172H1.515v-2.625h2.421zm2.171-2.797H4.453v-2.656h-.516v2.36H1.517V-7.61H.969v5.906h3.484V-4.5H6.11V.234h.532v-8.593h-.532zm1.813-3.625V.72h.547v-9.313zm0 0"/></symbol><symbol overflow="visible" id="dc"><path d="M7.625-1.594h.547v-6.968h-.547v1.468H5.547v.469h2.078v1.5H5.547v.469h2.078zM5.953-3.578c-1.281-.516-2.36-1.813-2.36-3.219v-1.266h-.546v1.266c0 1.516-1.094 2.86-2.39 3.406l.296.438a4.29 4.29 0 0 0 2.39-2.672 4.222 4.222 0 0 0 2.282 2.484zM2.86.032v-2.376h-.546V.5h6.093V.031zm0 0"/></symbol><symbol overflow="visible" id="dd"><path d="M4.797-7.969c1.625 0 2.656.453 2.656 1.188 0 .75-1.031 1.187-2.656 1.187-1.625 0-2.64-.437-2.64-1.187 0-.735 1.015-1.188 2.64-1.188zm0 2.828c2.031 0 3.219-.578 3.219-1.64 0-1.047-1.188-1.625-3.22-1.625-2.015 0-3.218.578-3.218 1.625 0 1.062 1.203 1.64 3.219 1.64zM2.219-1.062H7.89v-1.922H1.64v.453h5.703v1.047H1.672V.594h6.531V.14H2.22zM.594-4.406v.468H9v-.468zm0 0"/></symbol><symbol overflow="visible" id="de"><path d="M4.797.266c-1.625 0-2.61-.375-2.61-1.032 0-.64.985-1.03 2.61-1.03s2.61.39 2.61 1.03c0 .657-.985 1.032-2.61 1.032zm0-2.485c-2.016 0-3.156.5-3.156 1.453 0 .97 1.14 1.47 3.156 1.47 2.031 0 3.172-.5 3.172-1.47 0-.953-1.14-1.453-3.172-1.453zm.281-1.344v-1.14h2.89v-.438H2.298v-1.156h5.375v-.453H2.297v-1.094h5.625v-.453H1.734v3.594h2.782v1.14H.594v.47H9v-.47zm0 0"/></symbol><symbol overflow="visible" id="df"><path d="M6.14-7.344H3.673v-1.218h-.563v1.218H.625v.469h5.516zM1.704-4.547c0-.75.688-1.266 1.688-1.266.984 0 1.656.516 1.656 1.266 0 .719-.672 1.25-1.656 1.25-1 0-1.688-.531-1.688-1.25zm3.875 0c0-1.047-.875-1.719-2.187-1.719-1.329 0-2.204.672-2.204 1.72 0 1.03.875 1.687 2.204 1.687 1.312 0 2.187-.657 2.187-1.688zm-2.937 2.39h-.547V.5h6.14V.031H2.641zm5.125-3.218v-3.188h-.547v6.985h.547v-3.328h1.453v-.469zm0 0"/></symbol><symbol overflow="visible" id="dg"><path d="M7.625-1.547h.547v-7.031h-.547v2.312H5.391v.485h2.234zm-1.656-2.11c-1.266-.5-2.375-1.734-2.375-3.093v-1.266h-.547v1.22c0 1.484-1.11 2.827-2.39 3.343l.28.437a4.22 4.22 0 0 0 2.391-2.609c.39 1.078 1.297 1.969 2.328 2.39zM2.859.032v-2.406h-.546V.5h6.093V.031zm0 0"/></symbol><symbol overflow="visible" id="dh"><path d="M8.453-5.14c-1.36-.235-3.375-1.313-3.375-2.657v-.547h-.562v.547c0 1.375-1.97 2.422-3.375 2.656l.234.438c1.281-.234 2.875-1.031 3.422-2.219.562 1.172 2.156 1.984 3.437 2.219zM2.266-2.157h-.563V.5h6.39V.031H2.267zM.578-3.75v.484h3.985v2.079h.546v-2.079h3.922v-.484zm0 0"/></symbol><symbol overflow="visible" id="di"><path d="M6.203-7.563H3.781v-1.046h-.547v1.046H.813v.438h5.39zM1.906-5.233c0-.594.64-1 1.594-1 .953 0 1.594.406 1.594 1 0 .609-.64 1.015-1.594 1.015-.953 0-1.594-.406-1.594-1.015zm4.61 1.968a30.11 30.11 0 0 1-2.735.25v-.796c1.11-.063 1.828-.594 1.828-1.422 0-.875-.843-1.407-2.109-1.407-1.281 0-2.11.532-2.11 1.407 0 .843.72 1.359 1.844 1.421v.829c-.953.03-1.875.03-2.656.03l.078.485c1.64 0 3.906-.031 5.89-.39zm-3.954 1.5h-.546V.5h6.03V.031H2.564zm5.141-3.437v-3.375h-.547v7.281h.547v-3.437h1.484v-.47zm0 0"/></symbol><symbol overflow="visible" id="dj"><path d="M3.75-7.11h2.344v-.484H.89v.485h2.312v1.578c0 1.625-1.375 3.39-2.578 4l.344.453c1.015-.563 2.094-1.828 2.5-3.234.437 1.359 1.515 2.5 2.547 3l.343-.438C5.094-2.313 3.75-3.922 3.75-5.531zm3.844-1.468V.734h.547v-9.312zm0 0"/></symbol><symbol overflow="visible" id="dk"><path d="M5.547-3.016v.438H7.53v1.094h.547v-7.079h-.547v5.547zM3.578-7.734c1.031 0 1.75.484 1.75 1.156 0 .703-.719 1.172-1.75 1.172-1.015 0-1.734-.469-1.734-1.172 0-.672.718-1.156 1.734-1.156zm0 2.765c1.375 0 2.266-.625 2.266-1.61 0-.968-.89-1.593-2.266-1.593-1.36 0-2.265.625-2.265 1.594 0 .984.906 1.61 2.265 1.61zm-.203 3.11h.563V-3.75c.89-.063 1.828-.125 2.703-.281l-.047-.407c-2 .25-4.328.282-6.063.282l.094.468c.813 0 1.75 0 2.75-.03zM2.5.03v-2.219h-.547V.5h6.375V.031zm0 0"/></symbol><symbol overflow="visible" id="dl"><path d="M2.844.14c1.36 0 2.281-.859 2.281-1.937 0-1.062-.64-1.61-1.297-2v-.047c.422-.344 1.047-1.078 1.047-1.906 0-1.156-.75-2-2.016-2-1.125 0-1.984.781-1.984 1.89 0 .813.516 1.376 1.047 1.735v.047C1.234-3.688.469-2.953.469-1.891c0 1.157 1 2.032 2.375 2.032zm.531-4.156c-.953-.375-1.906-.812-1.906-1.843 0-.813.578-1.391 1.375-1.391.937 0 1.469.703 1.469 1.531 0 .625-.329 1.203-.938 1.703zM2.844-.359c-1.047 0-1.797-.672-1.797-1.563 0-.828.531-1.5 1.25-1.922 1.156.453 2.219.86 2.219 2.031 0 .813-.657 1.454-1.672 1.454zm0 0"/></symbol></defs><g fill="#898989"><use xlink:href="#a" x="557.645" y="819.169"/><use xlink:href="#b" x="561.924" y="819.169"/></g><g fill="#595757"><use xlink:href="#c" x="39.637" y="818.993"/><use xlink:href="#d" x="45.03" y="818.993"/><use xlink:href="#e" x="50.424" y="818.993"/><use xlink:href="#f" x="55.817" y="818.993"/><use xlink:href="#g" x="61.211" y="818.993"/><use xlink:href="#h" x="62.769" y="818.993"/><use xlink:href="#i" x="68.162" y="818.993"/><use xlink:href="#j" x="73.556" y="818.993"/><use xlink:href="#k" x="78.949" y="818.993"/><use xlink:href="#l" x="84.342" y="818.993"/><use xlink:href="#m" x="89.736" y="818.993"/><use xlink:href="#c" x="95.129" y="818.993"/><use xlink:href="#d" x="100.523" y="818.993"/></g><g fill="#595757"><use xlink:href="#n" x="105.916" y="818.993"/><use xlink:href="#o" x="107.474" y="818.993"/><use xlink:href="#p" x="112.868" y="818.993"/><use xlink:href="#q" x="118.261" y="818.993"/><use xlink:href="#r" x="123.655" y="818.993"/><use xlink:href="#n" x="129.048" y="818.993"/><use xlink:href="#s" x="130.606" y="818.993"/><use xlink:href="#t" x="136" y="818.993"/><use xlink:href="#u" x="141.393" y="818.993"/><use xlink:href="#n" x="146.786" y="818.993"/><use xlink:href="#v" x="148.345" y="818.993"/></g><g fill="#595757"><use xlink:href="#w" x="151.43" y="818.993"/><use xlink:href="#x" x="154.87" y="818.993"/><use xlink:href="#y" x="156.35" y="818.993"/><use xlink:href="#n" x="157.735" y="818.993"/><use xlink:href="#z" x="159.293" y="818.993"/><use xlink:href="#z" x="162.379" y="818.993"/></g><path d="M-566.242 793.191H566.242V40.567H-566.242zm0 0" fill="none" stroke-width="2.9963699999999998" stroke="#e2e2e2"/><g clip-path="url(#A)"><path d="M397.543 688.516h-701.527c-14.09 0-25.512-11.418-25.512-25.508V352.383c0-14.086 11.422-25.508 25.512-25.508h701.527c14.086 0 25.508 11.422 25.508 25.508v310.625c0 14.09-11.422 25.508-25.508 25.508zm0 0" fill="none" stroke-width=".86495214" stroke-linejoin="round" stroke="#1e3d90" stroke-dasharray="2.598,2.598"/></g><g fill="#002b43"><use xlink:href="#B" x="387.154" y="407.833"/><use xlink:href="#C" x="401.486" y="407.833"/><use xlink:href="#C" x="415.817" y="407.833"/><use xlink:href="#D" x="430.149" y="407.833"/><use xlink:href="#E" x="444.48" y="407.833"/><use xlink:href="#F" x="447.985" y="407.833"/><use xlink:href="#E" x="462.317" y="407.833"/><use xlink:href="#G" x="465.822" y="407.833"/><use xlink:href="#H" x="480.153" y="407.833"/></g><g fill="#002b43"><use xlink:href="#I" x="403.23" y="503.621"/><use xlink:href="#J" x="417.562" y="503.621"/><use xlink:href="#E" x="431.893" y="503.621"/><use xlink:href="#K" x="435.398" y="503.621"/><use xlink:href="#L" x="449.73" y="503.621"/><use xlink:href="#M" x="464.061" y="503.621"/></g><g fill="#002b43"><use xlink:href="#N" x="403.23" y="599.408"/><use xlink:href="#D" x="417.562" y="599.408"/><use xlink:href="#E" x="431.893" y="599.408"/><use xlink:href="#O" x="435.398" y="599.408"/><use xlink:href="#P" x="449.73" y="599.408"/><use xlink:href="#Q" x="464.061" y="599.408"/></g><g fill="#fff"><use xlink:href="#R" x="181.674" y="376.447"/><use xlink:href="#S" x="194.413" y="376.447"/><use xlink:href="#T" x="207.152" y="376.447"/><use xlink:href="#U" x="219.891" y="376.447"/><use xlink:href="#V" x="223.035" y="376.447"/><use xlink:href="#W" x="235.774" y="376.447"/><use xlink:href="#U" x="248.513" y="376.447"/><use xlink:href="#X" x="251.656" y="376.447"/><use xlink:href="#Y" x="264.395" y="376.447"/><use xlink:href="#Z" x="277.135" y="376.447"/><use xlink:href="#aa" x="289.874" y="376.447"/></g><g fill="#fff"><use xlink:href="#ab" x="173.739" y="557.897"/><use xlink:href="#ac" x="186.478" y="557.897"/><use xlink:href="#U" x="199.218" y="557.897"/><use xlink:href="#ad" x="202.361" y="557.897"/><use xlink:href="#ae" x="215.1" y="557.897"/><use xlink:href="#af" x="227.839" y="557.897"/><use xlink:href="#U" x="240.578" y="557.897"/><use xlink:href="#ag" x="243.722" y="557.897"/><use xlink:href="#ah" x="256.461" y="557.897"/><use xlink:href="#ai" x="269.2" y="557.897"/><use xlink:href="#U" x="281.939" y="557.897"/><use xlink:href="#aj" x="285.083" y="557.897"/><use xlink:href="#ak" x="297.822" y="557.897"/></g><use xlink:href="#al" x="127.335" y="412.791"/><use xlink:href="#am" x="138.642" y="412.791"/><use xlink:href="#an" x="149.048" y="412.791"/><use xlink:href="#ao" x="159.455" y="412.791"/><use xlink:href="#ap" x="169.862" y="412.791"/><use xlink:href="#aq" x="172.438" y="412.791"/><use xlink:href="#ar" x="182.845" y="412.791"/><use xlink:href="#as" x="193.252" y="412.791"/><use xlink:href="#at" x="203.659" y="412.791"/><use xlink:href="#ap" x="214.066" y="412.791"/><use xlink:href="#au" x="216.642" y="412.791"/><use xlink:href="#as" x="227.049" y="412.791"/><use xlink:href="#ap" x="237.456" y="412.791"/><use xlink:href="#av" x="240.032" y="412.791"/><use xlink:href="#aw" x="250.439" y="412.791"/><use xlink:href="#al" x="127.335" y="431.827"/><use xlink:href="#ax" x="138.642" y="431.827"/><use xlink:href="#ay" x="149.048" y="431.827"/><use xlink:href="#az" x="159.455" y="431.827"/><use xlink:href="#aA" x="162.324" y="431.827"/><use xlink:href="#aB" x="172.731" y="431.827"/><use xlink:href="#ap" x="183.138" y="431.827"/><use xlink:href="#aC" x="185.714" y="431.827"/><use xlink:href="#aD" x="196.121" y="431.827"/><use xlink:href="#aE" x="206.528" y="431.827"/><use xlink:href="#ap" x="216.935" y="431.827"/><use xlink:href="#aq" x="219.511" y="431.827"/><use xlink:href="#ar" x="229.918" y="431.827"/><use xlink:href="#ap" x="240.325" y="431.827"/><use xlink:href="#aF" x="242.901" y="431.827"/><use xlink:href="#aG" x="253.308" y="431.827"/><use xlink:href="#ap" x="263.715" y="431.827"/><use xlink:href="#aH" x="266.291" y="431.827"/><use xlink:href="#aI" x="276.698" y="431.827"/><use xlink:href="#aJ" x="287.105" y="431.827"/><use xlink:href="#aK" x="290.964" y="431.827"/><use xlink:href="#aL" x="301.371" y="431.827"/><use xlink:href="#aM" x="311.777" y="431.827"/><g><use xlink:href="#al" x="127.335" y="450.863"/><use xlink:href="#aN" x="138.642" y="450.863"/></g><g><use xlink:href="#aO" x="144.738" y="450.863"/><use xlink:href="#aP" x="151.027" y="450.863"/><use xlink:href="#aP" x="154.29" y="450.863"/><use xlink:href="#aQ" x="157.553" y="450.863"/></g><g><use xlink:href="#aR" x="164.381" y="450.863"/><use xlink:href="#aS" x="173.46" y="450.863"/><use xlink:href="#aT" x="178.782" y="450.863"/><use xlink:href="#aU" x="185.667" y="450.863"/><use xlink:href="#aV" x="188.817" y="450.863"/></g><g><use xlink:href="#aW" x="195.725" y="450.863"/><use xlink:href="#ap" x="198.909" y="450.863"/><use xlink:href="#aX" x="201.485" y="450.863"/><use xlink:href="#aQ" x="208.719" y="450.863"/></g><g><use xlink:href="#aY" x="215.414" y="450.863"/><use xlink:href="#aZ" x="221.815" y="450.863"/><use xlink:href="#aT" x="227.598" y="450.863"/><use xlink:href="#aU" x="234.483" y="450.863"/><use xlink:href="#ba" x="237.634" y="450.863"/><use xlink:href="#bb" x="244.564" y="450.863"/><use xlink:href="#aW" x="250.954" y="450.863"/><use xlink:href="#ap" x="254.138" y="450.863"/><use xlink:href="#bc" x="256.715" y="450.863"/><use xlink:href="#bd" x="267.121" y="450.863"/><use xlink:href="#be" x="277.528" y="450.863"/><use xlink:href="#aW" x="287.935" y="450.863"/><use xlink:href="#ap" x="291.119" y="450.863"/></g><g><use xlink:href="#ap" x="127.335" y="469.899"/><use xlink:href="#ap" x="129.911" y="469.899"/><use xlink:href="#ap" x="132.488" y="469.899"/><use xlink:href="#ap" x="135.064" y="469.899"/><use xlink:href="#bf" x="137.64" y="469.899"/><use xlink:href="#bg" x="148.047" y="469.899"/><use xlink:href="#bh" x="158.454" y="469.899"/><use xlink:href="#ap" x="168.861" y="469.899"/><use xlink:href="#bi" x="171.437" y="469.899"/><use xlink:href="#bj" x="181.844" y="469.899"/><use xlink:href="#ap" x="192.251" y="469.899"/><use xlink:href="#bk" x="194.827" y="469.899"/><use xlink:href="#ap" x="205.234" y="469.899"/><use xlink:href="#bl" x="207.81" y="469.899"/><use xlink:href="#bm" x="218.217" y="469.899"/><use xlink:href="#ay" x="228.624" y="469.899"/><use xlink:href="#ap" x="239.031" y="469.899"/><use xlink:href="#bn" x="241.607" y="469.899"/><use xlink:href="#bo" x="252.014" y="469.899"/><use xlink:href="#bp" x="262.421" y="469.899"/><use xlink:href="#bq" x="272.828" y="469.899"/><use xlink:href="#ap" x="283.235" y="469.899"/><use xlink:href="#br" x="285.811" y="469.899"/><use xlink:href="#bs" x="296.218" y="469.899"/></g><g><use xlink:href="#al" x="127.335" y="488.935"/><use xlink:href="#bt" x="138.642" y="488.935"/><use xlink:href="#bu" x="149.048" y="488.935"/><use xlink:href="#bu" x="159.455" y="488.935"/><use xlink:href="#ap" x="169.862" y="488.935"/><use xlink:href="#bv" x="172.438" y="488.935"/><use xlink:href="#bw" x="182.845" y="488.935"/><use xlink:href="#ap" x="193.252" y="488.935"/><use xlink:href="#bx" x="195.828" y="488.935"/><use xlink:href="#ap" x="206.235" y="488.935"/><use xlink:href="#bt" x="208.812" y="488.935"/><use xlink:href="#bu" x="219.219" y="488.935"/><use xlink:href="#ap" x="229.625" y="488.935"/><use xlink:href="#by" x="232.202" y="488.935"/><use xlink:href="#bz" x="242.609" y="488.935"/></g><g><use xlink:href="#al" x="127.335" y="597.402"/><use xlink:href="#bv" x="138.642" y="597.402"/><use xlink:href="#bA" x="149.048" y="597.402"/><use xlink:href="#bu" x="159.455" y="597.402"/><use xlink:href="#ap" x="169.862" y="597.402"/><use xlink:href="#ax" x="172.438" y="597.402"/><use xlink:href="#bB" x="182.845" y="597.402"/><use xlink:href="#ap" x="193.252" y="597.402"/><use xlink:href="#bC" x="195.828" y="597.402"/><use xlink:href="#bD" x="206.235" y="597.402"/><use xlink:href="#ap" x="216.642" y="597.402"/><use xlink:href="#bE" x="219.219" y="597.402"/><use xlink:href="#am" x="229.625" y="597.402"/><use xlink:href="#ap" x="240.032" y="597.402"/></g><g><use xlink:href="#al" x="127.335" y="616.438"/><use xlink:href="#bF" x="138.642" y="616.438"/><use xlink:href="#bG" x="149.048" y="616.438"/><use xlink:href="#bv" x="159.455" y="616.438"/><use xlink:href="#ap" x="169.862" y="616.438"/><use xlink:href="#bH" x="172.438" y="616.438"/><use xlink:href="#bI" x="182.845" y="616.438"/><use xlink:href="#bJ" x="193.252" y="616.438"/><use xlink:href="#ap" x="203.659" y="616.438"/><use xlink:href="#bf" x="206.235" y="616.438"/><use xlink:href="#bg" x="216.642" y="616.438"/><use xlink:href="#bh" x="227.049" y="616.438"/><use xlink:href="#ap" x="237.456" y="616.438"/><use xlink:href="#as" x="240.032" y="616.438"/><use xlink:href="#bK" x="250.439" y="616.438"/><use xlink:href="#bg" x="260.846" y="616.438"/></g><g><use xlink:href="#al" x="127.335" y="635.474"/><use xlink:href="#bl" x="138.642" y="635.474"/><use xlink:href="#ar" x="149.048" y="635.474"/><use xlink:href="#ap" x="159.455" y="635.474"/><use xlink:href="#bL" x="162.032" y="635.474"/><use xlink:href="#bM" x="172.438" y="635.474"/><use xlink:href="#ap" x="182.845" y="635.474"/><use xlink:href="#aK" x="185.422" y="635.474"/><use xlink:href="#bK" x="195.828" y="635.474"/><use xlink:href="#bN" x="206.235" y="635.474"/><use xlink:href="#ap" x="216.642" y="635.474"/><use xlink:href="#bO" x="219.219" y="635.474"/><use xlink:href="#bP" x="229.625" y="635.474"/><use xlink:href="#ap" x="240.032" y="635.474"/><use xlink:href="#bQ" x="242.609" y="635.474"/><use xlink:href="#bR" x="253.015" y="635.474"/></g><g><use xlink:href="#al" x="127.335" y="654.51"/><use xlink:href="#as" x="138.642" y="654.51"/><use xlink:href="#at" x="149.048" y="654.51"/><use xlink:href="#by" x="159.455" y="654.51"/><use xlink:href="#bS" x="169.862" y="654.51"/><use xlink:href="#bT" x="180.269" y="654.51"/><use xlink:href="#ap" x="190.676" y="654.51"/><use xlink:href="#bU" x="193.252" y="654.51"/><use xlink:href="#bV" x="203.659" y="654.51"/><use xlink:href="#bW" x="214.066" y="654.51"/><use xlink:href="#ap" x="224.473" y="654.51"/><use xlink:href="#bX" x="227.049" y="654.51"/><use xlink:href="#ao" x="237.456" y="654.51"/><use xlink:href="#ap" x="247.863" y="654.51"/><use xlink:href="#bY" x="250.439" y="654.51"/><use xlink:href="#bZ" x="260.846" y="654.51"/><use xlink:href="#aF" x="271.253" y="654.51"/><use xlink:href="#ap" x="281.659" y="654.51"/><use xlink:href="#ca" x="284.236" y="654.51"/><use xlink:href="#cb" x="294.643" y="654.51"/><use xlink:href="#cc" x="305.049" y="654.51"/></g><g><use xlink:href="#cd" x="269.455" y="140.85"/><use xlink:href="#ce" x="285.635" y="140.85"/><use xlink:href="#cf" x="301.815" y="140.85"/><use xlink:href="#cg" x="317.996" y="140.85"/><use xlink:href="#ch" x="334.176" y="140.85"/></g><g><use xlink:href="#ci" x="147.052" y="193.109"/><use xlink:href="#cj" x="153.019" y="193.109"/><use xlink:href="#ck" x="162.457" y="193.109"/><use xlink:href="#cl" x="165.184" y="193.109"/><use xlink:href="#cm" x="174.623" y="193.109"/></g><g><use xlink:href="#cn" x="184.061" y="193.109"/><use xlink:href="#co" x="186.788" y="193.109"/><use xlink:href="#cp" x="196.226" y="193.109"/><use xlink:href="#cq" x="205.665" y="193.109"/><use xlink:href="#cr" x="215.103" y="193.109"/><use xlink:href="#cn" x="224.542" y="193.109"/><use xlink:href="#cs" x="227.269" y="193.109"/><use xlink:href="#ct" x="236.707" y="193.109"/><use xlink:href="#cu" x="246.146" y="193.109"/><use xlink:href="#cr" x="255.584" y="193.109"/><use xlink:href="#cn" x="265.023" y="193.109"/><use xlink:href="#cv" x="267.749" y="193.109"/><use xlink:href="#cw" x="277.188" y="193.109"/><use xlink:href="#cq" x="286.626" y="193.109"/><use xlink:href="#cn" x="296.065" y="193.109"/><use xlink:href="#cx" x="298.792" y="193.109"/><use xlink:href="#cy" x="308.23" y="193.109"/><use xlink:href="#cn" x="317.669" y="193.109"/><use xlink:href="#cz" x="320.395" y="193.109"/><use xlink:href="#cA" x="329.834" y="193.109"/><use xlink:href="#cn" x="339.272" y="193.109"/><use xlink:href="#cB" x="341.999" y="193.109"/><use xlink:href="#cn" x="351.438" y="193.109"/><use xlink:href="#cC" x="354.164" y="193.109"/><use xlink:href="#cD" x="363.603" y="193.109"/><use xlink:href="#cn" x="373.041" y="193.109"/><use xlink:href="#cs" x="375.768" y="193.109"/><use xlink:href="#cE" x="385.206" y="193.109"/><use xlink:href="#cF" x="394.645" y="193.109"/><use xlink:href="#cn" x="404.084" y="193.109"/><use xlink:href="#cy" x="406.81" y="193.109"/><use xlink:href="#cG" x="416.249" y="193.109"/><use xlink:href="#cn" x="425.687" y="193.109"/><use xlink:href="#cH" x="428.414" y="193.109"/><use xlink:href="#cI" x="437.852" y="193.109"/><use xlink:href="#cJ" x="447.291" y="193.109"/></g><g><use xlink:href="#cK" x="244.929" y="210.088"/><use xlink:href="#cL" x="248.012" y="210.088"/><use xlink:href="#cM" x="257.451" y="210.088"/><use xlink:href="#cN" x="266.889" y="210.088"/><use xlink:href="#cn" x="276.328" y="210.088"/><use xlink:href="#cO" x="279.055" y="210.088"/><use xlink:href="#cn" x="281.477" y="210.088"/><use xlink:href="#cP" x="284.204" y="210.088"/><use xlink:href="#cQ" x="289.605" y="210.088"/><use xlink:href="#cP" x="295.006" y="210.088"/><use xlink:href="#cR" x="300.407" y="210.088"/><use xlink:href="#cS" x="305.808" y="210.088"/><use xlink:href="#cn" x="315.246" y="210.088"/><use xlink:href="#cT" x="317.973" y="210.088"/><use xlink:href="#cU" x="323.374" y="210.088"/><use xlink:href="#cn" x="332.812" y="210.088"/><use xlink:href="#cR" x="335.539" y="210.088"/><use xlink:href="#cR" x="340.94" y="210.088"/><use xlink:href="#cN" x="346.341" y="210.088"/><use xlink:href="#cV" x="355.779" y="210.088"/></g><g><use xlink:href="#cW" x="80.258" y="239.054"/><use xlink:href="#cj" x="86.226" y="239.054"/><use xlink:href="#ck" x="95.664" y="239.054"/><use xlink:href="#cl" x="98.391" y="239.054"/><use xlink:href="#cm" x="107.829" y="239.054"/></g><g><use xlink:href="#cn" x="117.268" y="239.054"/><use xlink:href="#co" x="119.995" y="239.054"/><use xlink:href="#cp" x="129.433" y="239.054"/><use xlink:href="#cq" x="138.872" y="239.054"/><use xlink:href="#cr" x="148.31" y="239.054"/><use xlink:href="#cn" x="157.749" y="239.054"/><use xlink:href="#cs" x="160.475" y="239.054"/><use xlink:href="#ct" x="169.914" y="239.054"/><use xlink:href="#cu" x="179.352" y="239.054"/><use xlink:href="#cr" x="188.791" y="239.054"/><use xlink:href="#cn" x="198.229" y="239.054"/><use xlink:href="#cv" x="200.956" y="239.054"/><use xlink:href="#cw" x="210.395" y="239.054"/><use xlink:href="#cq" x="219.833" y="239.054"/><use xlink:href="#cn" x="229.272" y="239.054"/><use xlink:href="#cX" x="231.998" y="239.054"/><use xlink:href="#cY" x="241.437" y="239.054"/><use xlink:href="#cn" x="250.875" y="239.054"/><use xlink:href="#cZ" x="253.602" y="239.054"/><use xlink:href="#da" x="263.041" y="239.054"/><use xlink:href="#db" x="272.479" y="239.054"/><use xlink:href="#cZ" x="281.918" y="239.054"/><use xlink:href="#dc" x="291.356" y="239.054"/><use xlink:href="#dd" x="300.795" y="239.054"/><use xlink:href="#cn" x="310.233" y="239.054"/><use xlink:href="#de" x="312.96" y="239.054"/><use xlink:href="#df" x="322.398" y="239.054"/><use xlink:href="#cn" x="331.837" y="239.054"/><use xlink:href="#dg" x="334.564" y="239.054"/><use xlink:href="#dh" x="344.002" y="239.054"/><use xlink:href="#di" x="353.441" y="239.054"/><use xlink:href="#cn" x="362.879" y="239.054"/><use xlink:href="#cx" x="365.606" y="239.054"/><use xlink:href="#cy" x="375.044" y="239.054"/><use xlink:href="#cn" x="384.483" y="239.054"/><use xlink:href="#dj" x="387.21" y="239.054"/><use xlink:href="#dk" x="396.648" y="239.054"/><use xlink:href="#cn" x="406.087" y="239.054"/><use xlink:href="#cB" x="408.813" y="239.054"/><use xlink:href="#cn" x="418.252" y="239.054"/><use xlink:href="#cC" x="420.978" y="239.054"/><use xlink:href="#cD" x="430.417" y="239.054"/><use xlink:href="#cn" x="439.856" y="239.054"/><use xlink:href="#cs" x="442.582" y="239.054"/><use xlink:href="#cE" x="452.021" y="239.054"/><use xlink:href="#cF" x="461.459" y="239.054"/><use xlink:href="#cn" x="470.898" y="239.054"/><use xlink:href="#cy" x="473.624" y="239.054"/><use xlink:href="#cG" x="483.063" y="239.054"/><use xlink:href="#cn" x="492.501" y="239.054"/><use xlink:href="#cH" x="495.228" y="239.054"/><use xlink:href="#cI" x="504.667" y="239.054"/><use xlink:href="#cJ" x="514.105" y="239.054"/><use xlink:href="#cn" x="523.544" y="239.054"/></g><g><use xlink:href="#cK" x="244.94" y="256.032"/><use xlink:href="#cL" x="248.023" y="256.032"/><use xlink:href="#cM" x="257.461" y="256.032"/><use xlink:href="#cN" x="266.9" y="256.032"/><use xlink:href="#cn" x="276.338" y="256.032"/><use xlink:href="#cO" x="279.065" y="256.032"/><use xlink:href="#cn" x="281.488" y="256.032"/><use xlink:href="#cP" x="284.214" y="256.032"/><use xlink:href="#cQ" x="289.615" y="256.032"/><use xlink:href="#cP" x="295.016" y="256.032"/><use xlink:href="#cP" x="300.417" y="256.032"/><use xlink:href="#cS" x="305.818" y="256.032"/><use xlink:href="#cn" x="315.257" y="256.032"/><use xlink:href="#cR" x="317.983" y="256.032"/><use xlink:href="#cU" x="323.384" y="256.032"/><use xlink:href="#cn" x="332.823" y="256.032"/><use xlink:href="#cR" x="335.549" y="256.032"/><use xlink:href="#dl" x="340.95" y="256.032"/><use xlink:href="#cN" x="346.351" y="256.032"/><use xlink:href="#cV" x="355.79" y="256.032"/></g><path d="M60.398 165.637H543.59" fill="none" stroke="#1f3d90" stroke-width=".99879"/></svg>