<svg xmlns="http://www.w3.org/2000/svg" xmlns:xlink="http://www.w3.org/1999/xlink" width="793.701" height="1122.52" viewBox="0 0 595.276 841.89" version="1.2"><defs><symbol overflow="visible" id="a"><path d="M3.453-1.469h.563v.719h-.563V0h-.797v-.75H.062l3.391-4.922zm-.797 0v-1.765L1.437-1.47zm0 0"/></symbol><symbol overflow="visible" id="b"><path d="M3.688-4.531H2.046l-.25.875a.613.613 0 0 1 .11-.016H2c.508 0 .93.176 1.266.516.332.344.5.789.5 1.328 0 .555-.192 1.012-.563 1.375-.375.355-.851.531-1.422.531C1.082.078.535-.25.141-.906l.593-.5c.164.281.332.48.5.593.164.118.375.172.625.172.309 0 .579-.109.797-.328.215-.226.328-.508.328-.844 0-.332-.113-.609-.328-.828a1.075 1.075 0 0 0-.797-.328c-.355 0-.664.16-.921.469H.671L1.5-5.281h2.188zm0 0"/></symbol><symbol overflow="visible" id="c"><path d="M1.797-4h1.14v-.188H.422V-4h1.187v.688c0 1.124-.53 2-1.265 2.374l.14.157c.594-.328 1.047-.953 1.22-1.813.187.75.624 1.328 1.171 1.64l.14-.155c-.703-.36-1.218-1.204-1.218-2.204zm2.797-.89v2.234h-.969V-4.75h-.203V.11h.203v-2.563h.969v2.86h.203v-5.298zm0 0"/></symbol><symbol overflow="visible" id="d"><path d="M3.484-2.438c-.78.157-1.437.188-2.453.188H.844v-1.969h2.11v-.187H.64v2.343h.39c1.032 0 1.688-.046 2.5-.203zM1.422-1.421h-.203V.266h3.468V.078H1.422zm2.984-1.766v-1.718h-.203v3.843h.203v-1.953h.875v-.171zm0 0"/></symbol><symbol overflow="visible" id="e"><path d="M4.422.14h-2.86v-.859h2.86zm0-1.046h-2.86v-.813h-.187V.313h3.25V-1.72h-.203zM2.734-2.437H.86v-1.047h1.875zm1.704-2.454V-3.5H2.921v-1.11h-.188v.954H.86v-.953H.656v2.359h2.266v-1.063h1.515v1.297h.188V-4.89zm0 0"/></symbol><symbol overflow="visible" id="f"><path d="M4.625-4.89h-.188v3.937h.188zM.703-3.235c0-.594.485-1.079 1.14-1.079.641 0 1.126.485 1.126 1.079 0 .609-.485 1.093-1.125 1.093-.657 0-1.14-.484-1.14-1.093zm2.453 0c0-.735-.547-1.266-1.312-1.266-.782 0-1.328.531-1.328 1.266 0 .75.546 1.265 1.328 1.265.765 0 1.312-.515 1.312-1.265zM1.546.078v-1.453H1.36v1.64h3.47V.079zm0 0"/></symbol><symbol overflow="visible" id="h"><path d="M.703-4.328V-1h2.313v-3.328zm2.125.172v2.984H.891v-2.984zm1.594-.735V.406h.203V-4.89zm0 0"/></symbol><symbol overflow="visible" id="i"><path d="M.75-1.14v-1.454H2.5v-1.672H.547v.188h1.765v1.297H.563V-.97h.329c.671 0 1.28-.031 2.078-.172l-.016-.171c-.781.14-1.406.171-2.062.171zm3.844-3.75v2.171H3.578V-4.75h-.203V.11h.203v-2.641h1.016V.406h.203V-4.89zm0 0"/></symbol><symbol overflow="visible" id="j"><path d="M2.094-4.469c-.828 0-1.39.469-1.39 1.188 0 .703.562 1.187 1.39 1.187.812 0 1.375-.484 1.375-1.187 0-.719-.563-1.188-1.375-1.188zm0 .172c.687 0 1.172.438 1.172 1.016 0 .562-.485 1-1.172 1-.703 0-1.188-.438-1.188-1 0-.578.485-1.016 1.188-1.016zm2.265-.594V.406h.204V-4.89zM.438-.844c.968 0 2.312 0 3.546-.234l-.03-.156c-1.188.203-2.563.203-3.563.203zm0 0"/></symbol><symbol overflow="visible" id="k"><path d="M3.516-4.234h-1.47v-.688H1.86v.688H.391v.171h3.125zm-2.61 1.5c0-.454.406-.766 1.047-.766.625 0 1.047.313 1.047.766 0 .437-.422.75-1.047.75-.64 0-1.047-.313-1.047-.75zm2.281 0c0-.579-.5-.938-1.234-.938-.75 0-1.234.36-1.234.938 0 .562.484.921 1.234.921.734 0 1.234-.359 1.234-.921zM1.063-1.063h3.14v1.47h.203v-1.641H1.063zm4.203-2.28h-.86v-1.548h-.203v3.297h.203v-1.562h.86zm0 0"/></symbol><symbol overflow="visible" id="l"><path d="M.64-3.25c0-.61.485-1.094 1.141-1.094.657 0 1.14.485 1.14 1.094 0 .61-.483 1.11-1.14 1.11-.656 0-1.14-.5-1.14-1.11zm3.797-.547v1.078H3a1.2 1.2 0 0 0 .11-.531A1.55 1.55 0 0 0 3-3.797zm0 1.25v1.61h.188v-3.954h-.188v.922H2.891c-.22-.344-.625-.562-1.11-.562-.765 0-1.328.515-1.328 1.281 0 .766.563 1.281 1.328 1.281.5 0 .907-.218 1.125-.578zM1.563.078v-1.437h-.187V.266h3.438V.078zm0 0"/></symbol><symbol overflow="visible" id="m"><path d="M5.14-2.219h-.874c.171-.781.171-1.344.171-1.844v-.453H1.017v.188h3.218v.266c0 .5 0 1.062-.171 1.843H.358v.172h2.297V.406h.188v-2.453H5.14zm0 0"/></symbol><symbol overflow="visible" id="o"><path d="M.719-1.953c.625-.219 1.187-.688 1.406-1.313.234.594.781 1.032 1.422 1.25l.14-.25c-.75-.234-1.406-.843-1.406-1.609v-.031H3.61v-.266H2.281v-.703H1.97v.703H.672v.266h1.297v.031c0 .797-.657 1.422-1.407 1.672zm1.562-.188H1.97v1.094C1.39-1.03.844-1.03.375-1.03l.047.281c.969 0 2.297 0 3.515-.219l-.015-.25c-.531.094-1.094.125-1.64.157zm2.016-2.765V.422h.312v-5.328zm0 0"/></symbol><symbol overflow="visible" id="p"><path d="M4.672-4.906h-.313v3.922h.313zM3.516-2.141c-.75-.296-1.391-1.046-1.391-1.921v-.547h-.313v.546c0 .907-.625 1.704-1.375 2.016l.188.266c.61-.282 1.14-.86 1.344-1.578a2.462 2.462 0 0 0 1.375 1.468zM1.64.016v-1.36h-.313V.281H4.86V.016zm0 0"/></symbol><symbol overflow="visible" id="q"><path d="M2.75.156c-.906 0-1.5-.265-1.5-.703 0-.422.594-.687 1.5-.687s1.484.265 1.484.687c0 .438-.578.703-1.484.703zm0-1.64c-1.125 0-1.813.343-1.813.937 0 .625.688.953 1.813.953S4.563.078 4.563-.547c0-.594-.688-.937-1.813-.937zm.14-.735v-.703h1.688v-.281H1.266v-1.188h3.28v-.265H.954v1.734h1.64v.703H.344v.281h4.813v-.28zm0 0"/></symbol><symbol overflow="visible" id="r"><path d="M3.516-4.25H2.094v-.719H1.78v.719H.36v.266h3.157zM.984-2.734c0-.391.391-.672.954-.672.578 0 .953.281.953.672 0 .406-.375.687-.954.687-.562 0-.953-.281-.953-.687zm2.204 0c0-.579-.5-.922-1.25-.922-.766 0-1.266.344-1.266.922 0 .578.5.937 1.265.937.75 0 1.25-.36 1.25-.937zM2.796.14c-.844 0-1.39-.235-1.39-.641s.546-.64 1.39-.64c.844 0 1.39.234 1.39.64s-.546.64-1.39.64zm0-1.547c-1.063 0-1.703.328-1.703.906 0 .578.64.906 1.703.906C3.859.406 4.5.078 4.5-.5c0-.578-.64-.906-1.703-.906zM5.28-3.625v-.266h-.828v-1.015h-.328v3.453h.328V-2.5h.828v-.266h-.828v-.859zm0 0"/></symbol><symbol overflow="visible" id="s"><path d="M1.266-3.203H4.25v1.11H1.266zm1.64 2.64v-1.25h1.656v-2.703H4.25v1.032H1.266v-1.032H.937v2.704h1.657v1.25H.344v.265h4.828v-.266zm0 0"/></symbol><symbol overflow="visible" id="t"><path d="M4.188-3.781c0 .64 0 1.36-.188 2.36l.328.046c.188-1.047.188-1.766.188-2.406v-.531H.859v.25h3.329zM2.625-.671V-2.61h-.313v1.937H.345v.281h4.812v-.28zm0 0"/></symbol><symbol overflow="visible" id="u"><path d="M2.125-4.422h-.328v1.063c0 .984-.719 1.984-1.422 2.375l.203.25c.578-.344 1.156-1.079 1.39-1.907.22.797.813 1.485 1.407 1.813l.188-.266c-.704-.36-1.438-1.312-1.438-2.265zm2.234-.484v1.89H2.984v.266H4.36V.422h.329v-5.328zm0 0"/></symbol><symbol overflow="visible" id="v"><path d="M1.453 0h.406l1.422-4.375h-.375l-.781 2.516c-.156.53-.281.937-.453 1.468H1.64c-.172-.53-.282-.937-.454-1.468l-.78-2.516H.03zm0 0"/></symbol><symbol overflow="visible" id="w"><path d="M1.781.078c.782 0 1.453-.61 1.453-1.672 0-1.062-.671-1.687-1.453-1.687-.765 0-1.437.625-1.437 1.687C.344-.53 1.016.078 1.78.078zm0-.297C1.156-.219.703-.78.703-1.594c0-.812.453-1.375 1.078-1.375s1.094.563 1.094 1.375c0 .813-.469 1.375-1.094 1.375zm0 0"/></symbol><symbol overflow="visible" id="x"><path d="M1.031.078c.11 0 .172-.015.235-.031l-.063-.281c-.062.015-.094.015-.11.015-.077 0-.14-.062-.14-.218v-4.329h-.36v4.297c0 .36.141.547.438.547zm0 0"/></symbol><symbol overflow="visible" id="y"><path d="M.75-.156c.156 0 .313-.11.313-.313A.317.317 0 0 0 .75-.797a.317.317 0 0 0-.313.328c0 .203.157.313.313.313zm0 0"/></symbol><symbol overflow="visible" id="z"><path d="M.547 0h2.265v-.313h-.921v-4.062h-.282c-.203.125-.468.219-.828.281v.235h.766v3.546h-1zm0 0"/></symbol><symbol overflow="visible" id="A"><path d="M.75 0h4.11v-1.094H3.577v-5.734h-1c-.437.266-.906.437-1.594.562v.844H2.22v4.328H.75zm0 0"/></symbol><symbol overflow="visible" id="B"><path d="M1.5.172c.484 0 .86-.375.86-.89a.85.85 0 0 0-.86-.876c-.469 0-.844.375-.844.875 0 .516.375.89.844.89zm0 0"/></symbol><symbol overflow="visible" id="D"><path d="M3.531-7.063H2.297v1.25c0 1.579-.64 3.204-2.078 3.875l.734.985c.953-.469 1.594-1.36 1.969-2.438.344 1.016.953 1.829 1.828 2.282l.75-.954C4.125-2.75 3.531-4.28 3.531-5.813zm4.766 2.625H7.062v-3.265H5.845v8.5h1.218v-4.219h1.235zm0 0"/></symbol><symbol overflow="visible" id="E"><path d="M6.297-.266H3.078v-.765h3.219zm0-1.687H3.078v-.813H1.875V.688H7.5v-3.454H6.297zM2.75-4.313c-.625 0-1.078-.375-1.078-1.015 0-.64.453-1.016 1.078-1.016s1.078.375 1.078 1.016c0 .64-.453 1.016-1.078 1.016zm3.531-3.39v1.86H4.938c-.25-.891-1.11-1.516-2.188-1.516-1.281 0-2.234.843-2.234 2.03 0 1.188.953 2.032 2.234 2.032 1.094 0 1.953-.625 2.188-1.547H6.28v1.703H7.5v-4.562zm0 0"/></symbol><symbol overflow="visible" id="F"><path d="M1.25-1.031h4.688V.797h1.218V-2H1.25zm1.297-5.39h3.36v1.093h-3.36zm2.297 2.843v-.797h2.265v-3H1.344v3h2.281v.797H.391v.969h7.687v-.97zm0 0"/></symbol><symbol overflow="visible" id="G"><path d="M5.516-3.828c-1.313-.453-1.891-1.469-1.922-2.438H5.25v-.968H.687v.968H2.36C2.344-5.219 1.72-4.14.344-3.672l.625.953c.984-.312 1.656-1 2.031-1.828.36.75 1 1.36 1.938 1.672zM1.703-1.297h4.578V.797H7.5v-3.063H1.703zm4.578-6.406v2.031h-1.25v.969h1.25v2.047H7.5v-5.047zm0 0"/></symbol><symbol overflow="visible" id="bE"><path d="M.39 0h4.594v-1.14h-1.5c-.312 0-.765.03-1.109.062 1.25-1.219 2.281-2.547 2.281-3.781 0-1.266-.86-2.11-2.156-2.11-.938 0-1.547.375-2.172 1.047l.75.734c.328-.375.75-.703 1.25-.703.64 0 1.031.422 1.031 1.11 0 1.047-1.109 2.328-2.968 4zm0 0"/></symbol><symbol overflow="visible" id="bF"><path d="M1.953-6.766H.734v5.485h.594c.844 0 1.828-.047 2.922-.25l-.094-1.016c-.812.14-1.547.203-2.203.219zm4.563-.953v3.282H5.75v-3.125H4.625V.39H5.75v-3.844h.766V.78h1.171v-8.5zm0 0"/></symbol><symbol overflow="visible" id="bG"><path d="M4.219-.125C3.079-.125 2.5-.313 2.5-.75c0-.438.578-.61 1.719-.61 1.14 0 1.718.173 1.718.61 0 .438-.578.625-1.718.625zm0-2.172c-1.844 0-2.938.563-2.938 1.547S2.375.797 4.22.797C6.062.797 7.172.234 7.172-.75s-1.11-1.547-2.953-1.547zM3.344-4.39c.281.047.578.063.89.063.313 0 .61-.016.875-.047v.703H3.344zm.89-2.265c1.172 0 1.829.234 1.829.703s-.657.703-1.829.703c-1.156 0-1.812-.234-1.812-.703s.656-.703 1.812-.703zm2.094 2.984v-1.015c.64-.282 1-.704 1-1.266 0-1.016-1.203-1.625-3.094-1.625-1.875 0-3.078.61-3.078 1.625 0 .547.36.969.969 1.25v1.031H.391v.953h7.687v-.953zm0 0"/></symbol><symbol overflow="visible" id="cy"><path d="M2.531.125c1.297 0 2.406-.719 2.406-1.984 0-.891-.593-1.47-1.375-1.672v-.047c.735-.297 1.141-.828 1.141-1.563 0-1.171-.89-1.828-2.203-1.828-.813 0-1.469.328-2.063.844l.704.828c.406-.36.796-.594 1.28-.61.595.016.923.329.923.86C3.344-4.437 2.938-4 1.688-4v.984c1.484 0 1.875.407 1.875 1.079 0 .609-.47.953-1.157.953-.625 0-1.125-.297-1.531-.704l-.64.86c.484.547 1.218.953 2.296.953zm0 0"/></symbol><symbol overflow="visible" id="cz"><path d="M5.484-3.875c-1.343-.344-1.921-1.188-1.968-2.031h1.687v-.969H3.516v-.86h-1.22v.86H.642v.969h1.656c-.031.922-.64 1.812-1.969 2.187l.563.938c1-.281 1.671-.86 2.03-1.61.392.688 1.048 1.22 2.017 1.47zM2.766-1.422h3.14v1.156h-3.14zM1.562.688h5.532v-3.063H1.562zM8.22-5.72H7.094v-1.984H5.875v4.969h1.219V-4.72h1.125zm0 0"/></symbol><symbol overflow="visible" id="cA"><path d="M.781-6.844v.985h2.781C3.345-3.97 2.298-2.625.313-1.61L1-.672c2.828-1.437 3.797-3.625 3.797-6.172zM8.25-4.469H7.062v-3.25H5.845v8.5h1.218v-4.25H8.25zm0 0"/></symbol><symbol overflow="visible" id="cB"><path d="M1.844-5.75H3.78v-.984H.641v5.609h.593c1.079 0 1.985-.031 3.016-.219l-.078-1c-.813.156-1.547.203-2.328.219zM6.53-7.719v3.282h-.765v-3.11H4.64V.391h1.125v-3.86h.765V.797h1.157V-7.72zm0 0"/></symbol><symbol overflow="visible" id="cC"><path d="M5.406-3.938C4.078-4.359 3.5-5.359 3.5-6.374v-.875H2.266v.766c0 1.156-.579 2.296-2 2.765l.64.953a3.278 3.278 0 0 0 2-1.828c.36.719.969 1.297 1.875 1.594zM4.313-.14C3.218-.14 2.64-.375 2.64-.844c0-.484.578-.703 1.671-.703 1.079 0 1.657.219 1.657.703 0 .469-.578.703-1.657.703zm0-2.343c-1.766 0-2.875.609-2.875 1.64S2.546.796 4.313.796c1.765 0 2.875-.609 2.875-1.64s-1.11-1.64-2.875-1.64zm2.78-3.25v-1.97H5.876v5.032h1.219v-2.062h1.125v-1zm0 0"/></symbol><symbol overflow="visible" id="H"><path d="M1.469-1.547C2-1.547 2.516-2 2.516-2.703c0-.688-.516-1.14-1.047-1.14-.547 0-1.063.452-1.063 1.14 0 .703.516 1.156 1.063 1.156zm0 0"/></symbol><symbol overflow="visible" id="J"><path d="M2.828-6.094h1.656v-.422H.625v.422h1.734v.89C2.36-3.5 1.61-2.124.47-1.5l.328.375c.89-.516 1.547-1.453 1.812-2.703.297 1.11.907 1.953 1.75 2.422l.297-.39c-1.11-.563-1.828-1.876-1.828-3.407zm4.14-1.453v3.39H5.642v-3.187h-.47V.203h.47v-3.922h1.328v4.36h.484v-8.188zm0 0"/></symbol><symbol overflow="visible" id="K"><path d="M5.344-3.844c-1.172.235-2.157.281-3.797.281h-.11v-2.843h3.11v-.422H.937v3.703h.61c1.672 0 2.656-.063 3.86-.297zM2.328-2.188h-.484V.438H7.25V.03H2.328zm4.516-2.828v-2.562h-.485v5.969h.485v-2.985h1.281v-.422zm0 0"/></symbol><symbol overflow="visible" id="L"><path d="M4.234-6.86c1.407 0 2.329.47 2.329 1.204S5.64-4.453 4.233-4.453c-1.406 0-2.343-.469-2.343-1.203 0-.735.937-1.203 2.343-1.203zm0 2.813c1.735 0 2.829-.594 2.829-1.61 0-1.015-1.094-1.609-2.829-1.609-1.75 0-2.843.594-2.843 1.61 0 1.015 1.093 1.61 2.843 1.61zM2-1.937h-.484V.438h5.609V.03H2zM.516-3.173v.422h7.421v-.422zm0 0"/></symbol><symbol overflow="visible" id="M"><path d="M7.969-3.734v-.422h-1.25c.218-1.032.218-1.813.218-2.422v-.563H1.484v.407H6.47v.156c0 .61 0 1.375-.25 2.422H.516v.422h3.468v1.703H1.313v.422H6.53V.64h.5v-2.672H4.484v-1.703zm0 0"/></symbol><symbol overflow="visible" id="N"><path d="M2.813-6.11h1.624v-.406H.642v.407h1.703v.953c0 1.562-.797 3.062-1.89 3.718l.327.375c.844-.53 1.516-1.578 1.797-2.78.281 1.124.922 2.077 1.75 2.593l.313-.375C3.562-2.25 2.812-3.703 2.812-5.156zm2.5 1.579H3.796v.422h1.515V.187h.485v-7.515h-.484zm1.656-3.016V.641h.468v-8.188zm0 0"/></symbol><symbol overflow="visible" id="O"><path d="M5.297-3.39C4.172-3.798 3.219-4.845 3.219-5.97v-.547H5.14v-.406H.78v.406H2.75v.563c0 1.234-1.016 2.328-2.156 2.766l.265.374c.97-.374 1.797-1.171 2.125-2.203.344.907 1.141 1.641 2.063 2zm-3.5 1.656h4.922V.64h.484v-2.797H1.797zm4.922-5.813v2.234h-1.86v.422h1.86v2.25h.484v-4.906zm0 0"/></symbol><symbol overflow="visible" id="P"><path d="M7.188-7.547h-.485V-1.5h.484zM1.234-4.984c0-.875.688-1.532 1.594-1.532.922 0 1.61.657 1.61 1.532 0 .89-.688 1.562-1.61 1.562-.906 0-1.594-.672-1.594-1.562zm3.672 0c0-1.157-.875-1.97-2.078-1.97-1.187 0-2.078.813-2.078 1.97 0 1.187.89 2 2.078 2 1.203 0 2.078-.813 2.078-2zM2.531.03V-2.14h-.484V.438h5.422V.03zm0 0"/></symbol><symbol overflow="visible" id="Q"><path d="M3.188-6.922c-1.266 0-2.157.75-2.157 1.875 0 1.11.89 1.875 2.157 1.875 1.28 0 2.171-.765 2.171-1.875 0-1.125-.89-1.875-2.171-1.875zm0 .422c.984 0 1.703.61 1.703 1.453 0 .844-.72 1.453-1.704 1.453-.968 0-1.687-.61-1.687-1.453 0-.844.719-1.453 1.688-1.453zm3.421-1.047V.656h.485v-8.203zM.656-1.234c1.5 0 3.531 0 5.422-.344l-.047-.375c-1.828.281-3.922.297-5.453.297zm0 0"/></symbol><symbol overflow="visible" id="R"><path d="M5.406-6.61H3.234v-1H2.75v1H.547v.407h4.86zM1.5-4.202c0-.64.61-1.063 1.484-1.063.875 0 1.47.422 1.47 1.063 0 .625-.595 1.062-1.47 1.062S1.5-3.578 1.5-4.203zm3.406 0c0-.906-.765-1.453-1.922-1.453-1.171 0-1.937.547-1.937 1.453 0 .89.766 1.453 1.937 1.453 1.157 0 1.922-.563 1.922-1.453zM1.594-1.516h4.765V.641h.485v-2.579h-5.25zm6.531-3.687H6.844v-2.36h-.485v5.125h.485V-4.78h1.281zm0 0"/></symbol><symbol overflow="visible" id="S"><path d="M5.625-4.828h1.297v2.36h.469v-5.079h-.47v2.313H5.626v-2.157h-.469v4.657h.469zm-1.016 1.25c-1.03-.406-1.75-1.344-1.75-2.266v-1.203h-.484v1.203c0 .922-.75 2.016-1.781 2.469l.281.39c.813-.374 1.453-1.14 1.75-1.953.281.75.906 1.407 1.719 1.735zM4.75.234c-1.344 0-2.203-.406-2.203-1.03 0-.657.86-1.048 2.203-1.048 1.344 0 2.203.39 2.203 1.047 0 .625-.86 1.031-2.203 1.031zm0-2.468c-1.672 0-2.688.515-2.688 1.437C2.063.11 3.079.625 4.75.625c1.672 0 2.688-.516 2.688-1.422 0-.922-1.016-1.437-2.688-1.437zm0 0"/></symbol><symbol overflow="visible" id="T"><path d="M4.11-3.75H1.405v-2.766H4.11zm2.609-1.984v1.203H4.594v-1.203zM4.594-4.11h2.125v1.437h.484v-4.875H6.72v1.39H4.594v-.765H.937v3.578h3.657zM4.547.219c-1.328 0-2.188-.422-2.188-1.11 0-.687.86-1.125 2.188-1.125 1.344 0 2.219.438 2.219 1.125 0 .688-.875 1.11-2.22 1.11zm0-2.625c-1.656 0-2.688.547-2.688 1.515C1.86.08 2.891.625 4.547.625c1.672 0 2.687-.547 2.687-1.516 0-.968-1.015-1.515-2.687-1.515zm0 0"/></symbol><symbol overflow="visible" id="U"><path d="M4.75-2.984C5-4.61 5-5.72 5-6.313v-.296H.89v.406h3.626c0 .594-.016 1.672-.266 3.172zM2.812-4.266h-.484v2.579c-.672.015-1.328.015-1.906.015l.094.438c1.468-.016 3.421-.047 5.171-.313l-.03-.36c-.907.11-1.891.173-2.845.204zm5.344.22H6.72v-3.516h-.5V.64h.5v-4.25h1.437zm0 0"/></symbol><symbol overflow="visible" id="V"><path d="M6.469-4.484H2.016v-1.25h4.453zm.484-2.813H6.47v1.156H2.016v-1.156H1.53v3.219h5.422zM1.984-1.766H1.5V.438h5.625V.03h-5.14zM.516-3.14v.407h3.5V-.97H4.5v-1.765h3.453v-.407zm0 0"/></symbol><symbol overflow="visible" id="W"><path d="M2.703-1.688c-.906 0-1.547-.984-1.547-2.39 0-1.39.64-2.375 1.547-2.375.89 0 1.531.984 1.531 2.375 0 1.406-.64 2.39-1.53 2.39zm0-5.203C1.516-6.89.688-5.78.688-4.078c0 1.719.828 2.828 2.015 2.828 1.172 0 2-1.11 2-2.828 0-1.703-.828-2.813-2-2.813zm5.469 1.907v-.422H6.766v-2.14h-.5V.64h.5v-3.157h1.406v-.421H6.766v-2.047zm0 0"/></symbol><symbol overflow="visible" id="X"><path d="M2.578-1.75c-.75 0-1.297-.61-1.297-1.406 0-.781.547-1.406 1.297-1.406.75 0 1.297.625 1.297 1.406 0 .797-.547 1.406-1.297 1.406zm0-3.234c-1 0-1.734.75-1.734 1.828s.734 1.828 1.734 1.828c1.016 0 1.75-.75 1.75-1.828s-.734-1.828-1.75-1.828zm.25-2.313h-.484v1.25H.516v.406h4.14v-.406H2.828zm4.094-.25v3.516H5.625v-3.313h-.484V.22h.484V-3.61h1.297V.64h.484v-8.188zm0 0"/></symbol><symbol overflow="visible" id="Y"><path d="M1.5-5.125c0-.844.719-1.453 1.688-1.453.984 0 1.703.61 1.703 1.453 0 .844-.72 1.453-1.704 1.453-.968 0-1.687-.61-1.687-1.453zm1.938 1.86c1.14-.094 1.921-.813 1.921-1.86C5.36-6.25 4.47-7 3.188-7 1.921-7 1.03-6.25 1.03-5.125c0 1.047.782 1.766 1.922 1.86v1.593c-.86.031-1.672.031-2.375.031l.078.422c1.5 0 3.531 0 5.422-.343l-.047-.375c-.828.14-1.718.203-2.593.234zm3.171-4.297V.655h.485v-8.219zm0 0"/></symbol><symbol overflow="visible" id="Z"><path d="M5.25-3.531c-1.125-.438-2.094-1.5-2.094-2.688v-.937h-.484v.906c0 1.344-.938 2.469-2.094 2.922l.25.39a3.658 3.658 0 0 0 2.11-2.265c.328.937 1.14 1.687 2.046 2.062zM1.797-1.812h4.922V.64h.484v-2.86H1.797zm4.922-5.75v1.828H4.75v.421h1.969v2.579h.484v-4.829zm0 0"/></symbol><symbol overflow="visible" id="aa"><path d="M4.234-7.016c1.422 0 2.329.391 2.329 1.047 0 .657-.907 1.047-2.329 1.047-1.437 0-2.343-.39-2.343-1.047 0-.656.906-1.047 2.343-1.047zm0 2.485c1.782 0 2.829-.516 2.829-1.438 0-.922-1.047-1.437-2.829-1.437-1.78 0-2.843.515-2.843 1.437S2.453-4.53 4.234-4.53zM1.954-.938h5v-1.687h-5.5v.406h5.015v.906h-5V.532h5.75V.125H1.953zM.515-3.89v.422h7.421v-.422zm0 0"/></symbol><symbol overflow="visible" id="ab"><path d="M1.234-2.61c1.188-.265 2.532-.953 3-2.093.47 1.14 1.797 1.828 2.985 2.094l.218-.407c-1.359-.25-2.953-1.171-2.953-2.64v-.094H7.22v-.406H4.484v-1.188h-.5v1.188H1.25v.406h2.734v.094c0 1.468-1.593 2.39-2.953 2.64zm3.25 1.735v-2.031h-.5v2.031H.516v.422h7.437v-.422zm0 0"/></symbol><symbol overflow="visible" id="ac"><path d="M.953-7.047v3.75h3.75v-3.75H4.22v1.375H1.453v-1.375zm.5 1.781H4.22v1.547H1.453zm5.25-2.28v5h.484v-5zM4.5-2.376c-1.688 0-2.719.531-2.719 1.5 0 .953 1.032 1.5 2.719 1.5 1.688 0 2.719-.547 2.719-1.5 0-.969-1.032-1.5-2.719-1.5zm0 .406c1.36 0 2.234.407 2.234 1.094C6.734-.203 5.86.219 4.5.219c-1.36 0-2.234-.422-2.234-1.094 0-.688.875-1.094 2.234-1.094zm0 0"/></symbol><symbol overflow="visible" id="ad"><path d="M2.969-1.703c-.875 0-1.485-.61-1.485-1.422 0-.813.61-1.422 1.485-1.422.86 0 1.484.61 1.484 1.422 0 .813-.625 1.422-1.484 1.422zm0-3.266c-1.14 0-1.953.766-1.953 1.844 0 1.094.812 1.844 1.953 1.844 1.125 0 1.937-.75 1.937-1.844 0-1.078-.812-1.844-1.937-1.844zm.219-2.515h-.485v1.28H.47v.423h4.875v-.422H3.187zm5.015 3.406H6.766v-3.484h-.5V.64h.5v-4.313h1.437zm0 0"/></symbol><symbol overflow="visible" id="ae"><path d="M4.547-3.016c.078-.312.125-.671.125-1.062 0-.406-.047-.813-.14-1.14h2.187v2.202zM2.672-1.687c-.906 0-1.531-.985-1.531-2.391 0-1.39.625-2.375 1.53-2.375.907 0 1.532.984 1.532 2.375 0 1.406-.625 2.39-1.531 2.39zm4.047-5.86v1.906H4.39c-.344-.78-.954-1.25-1.72-1.25C1.5-6.89.689-5.78.689-4.078c0 1.719.812 2.828 1.984 2.828.797 0 1.422-.5 1.75-1.344h2.297V.641h.484v-8.188zm0 0"/></symbol><symbol overflow="visible" id="af"><path d="M3.078-6.281H5.36v2.89H3.08zM4.453-.844v-2.125H7.22v-.422H5.844v-2.89h1.375v-.422h-6v.422h1.375v2.89h-1.36v.422H3.97v2.125H.516v.406h7.453v-.406zm0 0"/></symbol><symbol overflow="visible" id="ag"><path d="M5.188-3.797c-1.313.203-2.375.25-3.704.25H1.36v-1.437h3.094v-2.141H.86v.422h3.125v1.312H.891v2.266h.593c1.344 0 2.391-.047 3.75-.266zM2.405-1.828H6.72V.109H2.406zM1.937.516h5.266v-2.75H1.937zM6.72-7.547v1.906H5.03v.422H6.72v2.485h.484v-4.813zm0 0"/></symbol><symbol overflow="visible" id="ah"><path d="M4.86-5.344v.422h1.859v2.25h.484v-4.875H6.72v2.203zm.437 1.922c-1.125-.406-2.078-1.437-2.078-2.547v-.515H5.14v-.407H.78v.407H2.75v.515c0 1.25-1 2.36-2.14 2.797l.25.39c.968-.39 1.812-1.202 2.14-2.25.328.907 1.125 1.657 2.047 2zM4.547.234c-1.328 0-2.188-.421-2.188-1.109 0-.672.86-1.094 2.188-1.094 1.344 0 2.219.422 2.219 1.094 0 .688-.875 1.11-2.22 1.11zm0-2.593c-1.672 0-2.688.53-2.688 1.484 0 .969 1.016 1.5 2.688 1.5 1.672 0 2.687-.531 2.687-1.5 0-.953-1.015-1.484-2.687-1.484zm0 0"/></symbol><symbol overflow="visible" id="ai"><path d="M1.031-6.656v.422h3.266C4.172-4.204 2.922-2.47.672-1.375l.265.406c2.641-1.297 3.86-3.39 3.86-5.687zm5.672-.89V.64h.484v-8.188zm0 0"/></symbol><symbol overflow="visible" id="aj"><path d="M4.219-6.969c-1.688 0-2.922.875-2.922 2.188 0 1.343 1.234 2.203 2.922 2.203 1.687 0 2.937-.86 2.937-2.203 0-1.313-1.25-2.188-2.937-2.188zm0 .407c1.422 0 2.484.75 2.484 1.78 0 1.063-1.062 1.813-2.484 1.813-1.407 0-2.469-.75-2.469-1.812 0-1.032 1.063-1.782 2.469-1.782zM.516-.923V-.5h7.437v-.422zm0 0"/></symbol><symbol overflow="visible" id="ak"><path d="M4.469-.844v-1.734h2.718v-.406H1.97v-1.594h5.015v-2.313H1.47v.407h5.047v1.5H1.5v2.406h2.484v1.734H.516v.422h7.453v-.422zm0 0"/></symbol><symbol overflow="visible" id="al"><path d="M.844-6.469v.422H3.53C3.437-4.328 2.625-2.64.578-1.53l.297.375C3.235-2.47 4-4.484 4-6.47zm6.125-1.078v3.406h-1.36v-3.187h-.468V.203h.468v-3.922h1.36v4.36h.468v-8.188zm0 0"/></symbol><symbol overflow="visible" id="am"><path d="M1.11-3.016c.968-.343 1.812-1.03 2.156-2.015.359.922 1.218 1.593 2.187 1.922l.219-.375c-1.14-.36-2.156-1.297-2.156-2.485v-.047h2.03v-.406h-2.03V-7.5h-.5v1.078H1.03v.406h1.985v.047c0 1.235-1 2.203-2.141 2.578zm2.406-.28h-.5v1.687c-.875.03-1.72.03-2.438.03l.078.438c1.5 0 3.531 0 5.407-.359l-.032-.36a22.45 22.45 0 0 1-2.515.22zm3.093-4.25V.655h.485v-8.203zm0 0"/></symbol><symbol overflow="visible" id="an"><path d="M.64 1.281C1.298.938 1.75.328 1.75-.469c0-.469-.203-.765-.547-.765-.266 0-.484.156-.484.453 0 .297.219.469.469.469.046 0 .078 0 .109-.016 0 .578-.313 1-.813 1.25zm0 0"/></symbol><symbol overflow="visible" id="ao"><path d="M1.031-6.719v5.235h3.672V-6.72zm3.188.407v4.421H1.5v-4.421zm2.468-1.235V.641h.485v-8.188zm0 0"/></symbol><symbol overflow="visible" id="ap"><path d="M1.297-1.828v-2.094h2.547v-2.703H.797v.422h2.578v1.875H.828v2.922h.516c1.031 0 1.968-.047 3.172-.25l-.063-.422c-1.156.219-2.094.25-3.11.25zm5.672-5.734v3.328H5.547V-7.36h-.469V.203h.469v-4.016h1.422V.641h.468v-8.204zm0 0"/></symbol><symbol overflow="visible" id="aq"><path d="M6.719-1.36h.484v-6.187H6.72v2.031H4.75v.422h1.969zM5.25-3.218C4.14-3.656 3.172-4.75 3.172-5.953v-1.11h-.485V-6c0 1.328-.984 2.5-2.109 2.953l.25.39c.969-.405 1.781-1.234 2.11-2.296.343.953 1.14 1.734 2.046 2.11zM2.516.031v-2.125H2.03V.437h5.375V.031zm0 0"/></symbol><symbol overflow="visible" id="ar"><path d="M4.469-.875v-2.328h2.593v-.422H2v-2.813h4.969v-.421H1.516v3.656h2.468v2.328H.516v.422h7.437v-.422zm0 0"/></symbol><symbol overflow="visible" id="as"><path d="M5.406-6.734H3.234v-.938H2.75v.938H.547v.406h4.86zM1.5-4.516c0-.578.594-.968 1.484-.968.891 0 1.47.39 1.47.968 0 .579-.579.97-1.47.97-.89 0-1.484-.392-1.484-.97zm3.406 0c0-.843-.765-1.343-1.922-1.343-1.171 0-1.937.5-1.937 1.343 0 .844.766 1.344 1.937 1.344 1.157 0 1.922-.5 1.922-1.344zM2.25-.859h4.594v-1.688H1.75v.406h4.61v.891H1.765V.531h5.406V.125H2.25zM6.844-5.5v-2.094h-.485v4.578h.485v-2.046h1.281V-5.5zm0 0"/></symbol><symbol overflow="visible" id="at"><path d="M4.219-6.797c1.375 0 2.312.547 2.312 1.344 0 .812-.937 1.36-2.312 1.36-1.36 0-2.313-.548-2.313-1.36 0-.797.953-1.344 2.313-1.344zm0 3.11c1.687 0 2.812-.688 2.812-1.766s-1.125-1.75-2.812-1.75c-1.688 0-2.813.672-2.813 1.75 0 1.078 1.125 1.766 2.813 1.766zm3.734.859H.516v.422h2.046V.64h.5v-3.047h2.329V.64h.484v-3.047h2.078zm0 0"/></symbol><symbol overflow="visible" id="au"><path d="M4.14-3.89H1.407V-6.5h2.735zm.47-3.016H.921v3.422h3.687zM4.25.219C2.953.219 2.094-.187 2.094-.86s.86-1.079 2.156-1.079c1.328 0 2.172.407 2.172 1.079 0 .671-.844 1.078-2.172 1.078zm0-2.563c-1.64 0-2.64.547-2.64 1.485 0 .953 1 1.484 2.64 1.484 1.656 0 2.656-.531 2.656-1.484 0-.938-1-1.485-2.656-1.485zM6.844-5.39v-2.156h-.485v4.875h.485v-2.312h1.281v-.407zm0 0"/></symbol><symbol overflow="visible" id="av"><path d="M7.5-5.047c-1.25-.156-3.016-.937-3.016-2.078v-.39h-.5v.39c0 1.14-1.765 1.922-3.03 2.078l.171.39c1.172-.187 2.61-.78 3.11-1.75.468.97 1.906 1.563 3.093 1.75zm.438 1.453V-4H.516v.406h3.468v.985h-2.53v.39h5.015v.938h-5V.53h5.75V.125H1.953V-.906h5V-2.61H4.47v-.985zm0 0"/></symbol><symbol overflow="visible" id="aw"><path d="M1.938-4.938H6.53v1.72H1.938zm2.53 4.063v-1.922h2.548v-4.14H6.53v1.578H1.938v-1.579h-.485v4.141h2.531v1.922H.516v.422h7.453v-.422zm0 0"/></symbol><symbol overflow="visible" id="ax"><path d="M1.328-5.125c0-.844.688-1.453 1.656-1.453.954 0 1.657.61 1.657 1.453 0 .844-.704 1.453-1.657 1.453-.968 0-1.656-.61-1.656-1.453zm1.906 1.86c1.11-.094 1.875-.813 1.875-1.86C5.11-6.25 4.234-7 2.984-7s-2.14.75-2.14 1.875c0 1.047.781 1.766 1.906 1.86v1.578a62.82 62.82 0 0 1-2.328.046l.094.422c1.468.016 3.437-.031 5.187-.312l-.047-.375c-.765.11-1.593.172-2.422.203zm4.922-.813H6.72v-3.484h-.485V.64h.485v-4.297h1.437zm0 0"/></symbol><symbol overflow="visible" id="ay"><path d="M1.14-5c0-.89.673-1.578 1.61-1.578.922 0 1.594.687 1.594 1.578 0 .906-.672 1.578-1.594 1.578-.938 0-1.61-.672-1.61-1.578zm5.579-.781v1.547H4.687c.094-.235.141-.5.141-.766a2.48 2.48 0 0 0-.14-.781zm0 1.953v2.375h.484v-6.094H6.72v1.344H4.453a2.135 2.135 0 0 0-1.703-.813C1.547-7.016.672-6.187.672-5c0 1.188.875 2.016 2.078 2.016.734 0 1.344-.329 1.719-.844zM2.562.032v-2.126h-.484V.437h5.375V.031zm0 0"/></symbol><symbol overflow="visible" id="az"><path d="M7.938-3.453H6.655c.235-1.203.235-2.063.235-2.828v-.703H1.5v.406h4.906v.297c0 .765 0 1.64-.265 2.828H.516v.422h3.468V.656h.485V-3.03h3.468zm0 0"/></symbol><symbol overflow="visible" id="aA"><path d="M4.234.234c-1.406 0-2.296-.406-2.296-1.062 0-.672.89-1.063 2.296-1.063 1.407 0 2.297.391 2.297 1.063 0 .656-.89 1.062-2.297 1.062zm0-2.53c-1.734 0-2.796.53-2.796 1.468C1.438.109 2.5.625 4.233.625 5.97.625 7.016.109 7.016-.828c0-.938-1.047-1.469-2.782-1.469zm.22-1.11V-4.5h2.609v-.422h-5.11v-1.844h5.031v-.406h-5.5V-4.5h2.5v1.094H.531v.422h7.407v-.422zm0 0"/></symbol><symbol overflow="visible" id="aB"><path d="M5.406-6.547H3.234V-7.64H2.75v1.094H.547v.406h4.86zM1.5-4.203c0-.625.61-1.047 1.484-1.047.875 0 1.47.422 1.47 1.047s-.595 1.047-1.47 1.047S1.5-3.578 1.5-4.203zm3.406 0c0-.89-.765-1.438-1.922-1.438-1.171 0-1.937.547-1.937 1.438 0 .89.766 1.437 1.937 1.437 1.157 0 1.922-.546 1.922-1.437zM4.313.219c-1.313 0-2.141-.36-2.141-1 0-.61.828-.985 2.14-.985 1.297 0 2.141.375 2.141.985 0 .64-.844 1-2.14 1zm0-2.375c-1.641 0-2.625.5-2.625 1.375 0 .89.984 1.406 2.625 1.406 1.625 0 2.609-.516 2.609-1.406 0-.875-.984-1.375-2.61-1.375zm3.796-3.422V-6H6.844v-1.547h-.485v5.328h.485v-1.625h1.265v-.422H6.844v-1.312zm0 0"/></symbol><symbol overflow="visible" id="aC"><path d="M2.375-1.703c-.766 0-1.281-.953-1.281-2.328s.515-2.344 1.281-2.344c.766 0 1.266.969 1.266 2.344s-.5 2.328-1.266 2.328zm3-2.563H4.109c-.062-1.562-.734-2.546-1.734-2.546-1.047 0-1.734 1.078-1.734 2.78 0 1.688.687 2.782 1.734 2.782 1.016 0 1.672-1 1.734-2.594h1.266V.203h.469v-7.562h-.469zm1.61-3.296V.64h.468v-8.204zm0 0"/></symbol><symbol overflow="visible" id="aD"><path d="M6.484-6.406c0 .656 0 1.265-.218 2.093l.468.063c.22-.844.22-1.484.22-2.156v-.703H1.437v.421h5.046zM4.204.219C2.812.219 1.874-.203 1.874-.86c0-.657.938-1.094 2.328-1.094 1.406 0 2.36.437 2.36 1.094 0 .656-.954 1.078-2.36 1.078zm0-2.563c-1.735 0-2.813.547-2.813 1.485C1.39.078 2.469.625 4.203.625c1.75 0 2.828-.547 2.828-1.484 0-.938-1.078-1.485-2.828-1.485zm.03-1.297v-1.671H3.75v1.671H.531v.407h7.407v-.407zm0 0"/></symbol><symbol overflow="visible" id="aE"><path d="M6.469.11H2.016v-1.344h4.453zm0-1.75H2.016v-1.22H1.53V.532h5.422v-3.39H6.47zm.25-2.485c.218-1.063.218-1.844.218-2.469v-.562H1.484v.422H6.47v.14c0 .625 0 1.39-.25 2.469H.53v.406h7.422v-.406zm0 0"/></symbol><symbol overflow="visible" id="aF"><path d="M5.406-6.625H3.234v-1.016H2.75v1.016H.547v.422h4.86zM1.5-4.25c0-.61.594-1.047 1.484-1.047.875 0 1.47.438 1.47 1.063s-.595 1.062-1.47 1.062S1.5-3.609 1.5-4.25zm3.406 0c0-.89-.765-1.438-1.922-1.438-1.171 0-1.937.547-1.937 1.454 0 .89.766 1.453 1.937 1.453 1.157 0 1.922-.563 1.922-1.469zm-2.64 2.563h4.093V.109H2.266zM1.796.515h5.048v-2.61H1.797zm6.329-5.813H6.844v-2.266h-.485v4.938h.485v-2.234h1.281zm0 0"/></symbol><symbol overflow="visible" id="aG"><path d="M4.578-6.781h-.484v2.125c0 .812-.203 2.078-.922 2.828-.735-.781-.938-2.094-.938-2.828v-2.125h-.468v2.125c0 .89-.344 2.343-1.329 3.015l.329.36c.656-.469 1.03-1.282 1.218-2.078.172.812.532 1.671 1.188 2.156.656-.484 1.015-1.313 1.172-2.14.187.796.562 1.609 1.218 2.077l.329-.375c-.985-.656-1.313-2.062-1.313-3.015zm2.234-.766v3.078H5.157v.438h1.657V.64h.484v-8.188zm0 0"/></symbol><symbol overflow="visible" id="aH"><path d="M5.797-4.469H4.078v-2.047h1.64v-.406H3.595v2.875h2.203zm-2.563-.187C2.563-4.5 2-4.484 1.531-4.47v-2.047h1.594v-.406H1.047v2.875h.344c.5 0 1.125-.016 1.89-.187zm2.97 1.515c-1.923.22-4.048.235-5.75.235l.077.437c.781 0 1.656 0 2.578-.047V.375h.485v-2.906a21.523 21.523 0 0 0 2.64-.235zm.562-4.406V.656h.5v-8.203zm0 0"/></symbol><symbol overflow="visible" id="aI"><path d="M2.672-1.688c-.906 0-1.531-.984-1.531-2.39 0-1.39.625-2.375 1.53-2.375.907 0 1.532.984 1.532 2.375 0 1.406-.625 2.39-1.531 2.39zm4.047-5.859v3.219H4.656c-.078-1.563-.875-2.563-1.984-2.563C1.5-6.89.687-5.78.687-4.078c0 1.719.813 2.828 1.985 2.828 1.14 0 1.953-1.047 2-2.672h2.047V.641h.484v-8.188zm0 0"/></symbol><symbol overflow="visible" id="aJ"><path d="M5.406-3.984c-1.375.296-2.593.39-3.828.39h-.125v-3.344H.97v3.766h.61c1.265 0 2.468-.094 3.89-.39zM2.36-2.204h-.484V.439h5.266V.03H2.359zm4.485-2.843v-2.5h-.485v5.938h.485v-3.016h1.281v-.422zm0 0"/></symbol><symbol overflow="visible" id="aK"><path d="M2.703-1.688c-.906 0-1.547-.984-1.547-2.39 0-1.39.64-2.375 1.547-2.375.89 0 1.531.984 1.531 2.375 0 1.406-.64 2.39-1.53 2.39zm0-5.203C1.516-6.89.688-5.78.688-4.078c0 1.719.828 2.828 2.015 2.828 1.172 0 2-1.11 2-2.828 0-1.703-.828-2.813-2-2.813zm5.5 2.72H6.766v-3.376h-.5V.641h.5v-4.407h1.437zm0 0"/></symbol><symbol overflow="visible" id="aL"><path d="M6.688-7.547V.641h.484v-8.188zm-3.782.656C1.703-6.89.875-5.78.875-4.078c0 1.719.828 2.828 2.031 2.828 1.188 0 2.031-1.11 2.031-2.828 0-1.703-.843-2.813-2.03-2.813zm0 .438c.922 0 1.563.984 1.563 2.375 0 1.406-.64 2.39-1.563 2.39-.922 0-1.562-.984-1.562-2.39 0-1.39.64-2.375 1.562-2.375zm0 0"/></symbol><symbol overflow="visible" id="aM"><path d="M1.563-1.86v-4.452H4.89v-.438H1.078v5.313h.625c1.594 0 2.672-.063 4.016-.297l-.063-.422c-1.297.234-2.39.297-3.953.297zm5.125-5.687V.656h.484v-8.203zm0 0"/></symbol><symbol overflow="visible" id="aN"><path d="M2.5-1.813H1.187V-4.14H2.5zm0-2.734H1.187V-6.78H.75v5.39h2.172v-5.39H2.5zm2.64 2.734H3.89V-4.14h1.25zm0-2.734H3.89V-6.78h-.453v5.39h2.126v-5.39H5.14zm3.032.297H6.906v-3.297h-.484V.641h.484v-4.47h1.266zm0 0"/></symbol><symbol overflow="visible" id="aO"><path d="M6.516-4.953H1.5v2.39h5.688v-.406h-5.22v-1.578h5.016v-2.328H1.47v.406h5.047zm-6 4.078v.422h7.453v-.422zm0 0"/></symbol><symbol overflow="visible" id="aP"><path d="M5.266-4.078h-1.75A6.055 6.055 0 0 0 4-6.468H.875v.405h2.656C3.421-4.296 2.421-2.624.578-1.53l.313.375c1.125-.688 1.921-1.563 2.437-2.516h1.938v3.86h.468v-7.516h-.468zm1.703-3.469V.641h.468v-8.188zm0 0"/></symbol><symbol overflow="visible" id="aQ"><path d="M5.406-6.469H3.234v-1.078H2.75v1.078H.547v.407h4.86zM1.5-4c0-.656.61-1.11 1.484-1.11.875 0 1.47.454 1.47 1.11 0 .625-.595 1.094-1.47 1.094S1.5-3.375 1.5-4zm3.406 0c0-.922-.765-1.516-1.922-1.516-1.171 0-1.937.594-1.937 1.516 0 .89.766 1.484 1.937 1.484 1.157 0 1.922-.593 1.922-1.484zM2.328-1.89h-.484V.436H7.25V.031H2.328zm4.516-2.844v-2.813h-.485v6.156h.485v-2.937h1.281v-.406zm0 0"/></symbol><symbol overflow="visible" id="aR"><path d="M1.39-1.86v-4.468h3.298v-.406H.89v5.296h.625c1.609 0 2.656-.062 3.937-.296l-.062-.422c-1.235.219-2.282.297-3.875.297zm6.813-2.327H6.766v-3.36h-.5V.656h.5V-3.78h1.437zm0 0"/></symbol><symbol overflow="visible" id="aS"><path d="M1.156-.234a.478.478 0 0 0 .469-.5c0-.313-.234-.5-.469-.5-.25 0-.468.187-.468.5 0 .312.218.5.468.5zm0 0"/></symbol><symbol overflow="visible" id="aT"><path d="M7.344-3.594H4.89v-2.719h2.343v-.421H4.391v3.562h2.953zm-3.36-.25c-.828.203-1.609.25-2.296.25v-2.719H3.89v-.406H1.203v3.547h.406c.735 0 1.516-.047 2.438-.25zM4.47-.875v-1.86h-.485v1.86H.516v.406h7.437v-.406zm0 0"/></symbol><symbol overflow="visible" id="aU"><path d="M4.156-4.078h-2.75v-1.453h2.75zm.485-3.156h-.485v1.296h-2.75v-1.296H.922v3.562H4.64zM2.25-1h4.594v-1.828H1.75v.39h4.61v1.047H1.765V.531h5.406V.125H2.25zm4.594-4.688v-1.875h-.485v4.282h.485v-1.985h1.265v-.421zm0 0"/></symbol><symbol overflow="visible" id="aV"><path d="M7.156-7.547h-.484v6.11h.484zm-1.25 4.313c-.75.093-1.593.156-2.422.187v-1.312h1.75v-.422H1.813v-1.813h3.375V-7h-3.86v2.64H3v1.344c-.86.032-1.703.047-2.453.047l.094.422c1.546 0 3.546-.062 5.296-.312zM2.5.03v-1.86H2V.438h5.469V.031zm0 0"/></symbol><symbol overflow="visible" id="aW"><path d="M7.188-7.547h-.485v6.031h.484zm-1.782 4.25c-1.14-.453-2.14-1.61-2.14-2.953v-.844H2.78v.844c0 1.39-.953 2.625-2.11 3.11l.282.39a3.868 3.868 0 0 0 2.078-2.406c.344 1.031 1.172 1.86 2.11 2.25zM2.531.031v-2.094h-.484v2.5h5.422V.031zm0 0"/></symbol><symbol overflow="visible" id="aX"><path d="M3.438-5.672h2v-.406h-2v-1.36h-.485v1.36H.938v.406h2.03v.828c0 1.547-1.077 2.938-2.218 3.485l.297.375c.922-.47 1.812-1.47 2.156-2.704.375 1.172 1.25 2.126 2.188 2.563l.28-.406C4.548-2.016 3.438-3.36 3.438-4.844zm3.25-1.875V.641h.5v-8.188zm0 0"/></symbol><symbol overflow="visible" id="aY"><path d="M3.203-2.578H5.36v1.734H3.203zm2.64 1.734v-1.734h1.345V-3h-5.22v-1.578h5.016v-2.313H1.47v.407h5.047v1.5H1.5v2.406h1.219v1.734H.516v.422h7.453v-.422zm0 0"/></symbol><symbol overflow="visible" id="aZ"><path d="M7.5-6.234H4.484v-1.172h-.5v1.172H.922v.421H7.5zM3.078-2.266c.344.079.719.11 1.156.11.422 0 .813-.031 1.157-.11v1.47H3.078zm-.984-1.39c0-.688.844-1.125 2.14-1.125 1.282 0 2.125.437 2.125 1.125 0 .672-.843 1.11-2.125 1.11-1.296 0-2.14-.438-2.14-1.11zm3.781 2.86v-1.626c.61-.234.984-.672.984-1.234 0-.969-1-1.516-2.625-1.516S1.61-4.625 1.61-3.656c0 .562.36 1 .97 1.234v1.625H.53v.422h7.422v-.422zm0 0"/></symbol><symbol overflow="visible" id="ba"><path d="M4.86-5.203v.406h1.859v3.281h.484v-6.03H6.72v2.343zm.437 1.937c-1.125-.406-2.078-1.437-2.078-2.546v-.594H5.14v-.422H.78v.422H2.75v.593c0 1.235-1.016 2.344-2.156 2.766l.265.39c.954-.374 1.797-1.187 2.125-2.218.344.906 1.141 1.656 2.063 2.016zM2.563.031v-2.094h-.485v2.5h5.375V.031zm0 0"/></symbol><symbol overflow="visible" id="bb"><path d="M2.11-6.188h1.624V-2c-.546.047-1.109.047-1.625.063zm2.109 0h1v-.421H.625v.421h1v4.25c-.422.016-.828.016-1.203.016l.078.438c1.469 0 3.469-.016 5.219-.282l-.032-.39c-.468.062-.968.11-1.468.14zm3.984 2H6.766v-3.375h-.5V.642h.5v-4.407h1.437zm0 0"/></symbol><symbol overflow="visible" id="bc"><path d="M7.5-4.313c-1.234-.203-3.016-1.156-3.016-2.421v-.5h-.5v.5c0 1.296-1.765 2.218-3.03 2.421l.218.407c1.156-.219 2.578-.938 3.062-2.016.5 1.063 1.922 1.797 3.063 2.016zm.438 1.47H.516v.421h3.453V.641h.484v-3.063h3.484zm0 0"/></symbol><symbol overflow="visible" id="bd"><path d="M7.188-7.547h-.485v4.703h.484zm-4.36.922c.938 0 1.61.61 1.61 1.469 0 .828-.672 1.453-1.61 1.453-.922 0-1.594-.625-1.594-1.453 0-.86.672-1.469 1.594-1.469zm0 3.344c1.219 0 2.078-.766 2.078-1.875 0-1.125-.86-1.89-2.078-1.89-1.219 0-2.078.765-2.078 1.89 0 1.11.86 1.875 2.078 1.875zm3.39.812H5.75v.531c0 .657-.469 1.563-1.297 2.047-.828-.437-1.281-1.265-1.281-2.046v-.532h-.469v.531c0 .797-.719 1.704-1.719 2.094l.25.375C2.016.22 2.625-.39 2.922-1.079A2.61 2.61 0 0 0 4.453.595C5.234.25 5.75-.422 5.984-1.094 6.266-.39 6.875.22 7.704.531l.25-.375c-1.032-.36-1.735-1.234-1.735-2.094zm0 0"/></symbol><symbol overflow="visible" id="be"><path d="M7.078-4.938H2.062v-2.328h-.5v2.735h5.516zm-5.062 3H1.53V.438h5.594V.017h-5.11zM.516-3.28v.422h7.437v-.422zm0 0"/></symbol><symbol overflow="visible" id="bf"><path d="M1.36-1.906v-2.078h2.593v-.407H1.36v-1.765h2.704v-.422H.874v5.094h.516c1.375 0 2.156-.047 3.109-.235l-.063-.422c-.921.204-1.687.235-3.046.235zm5.624-5.657v3.375H5.625v-3.171h-.469V.203h.469V-3.78h1.36V.64h.468v-8.204zm0 0"/></symbol><symbol overflow="visible" id="bg"><path d="M5.344-5.219H3.89C3.969-5.64 4-6.047 4-6.469H.875v.407h2.656c-.11 1.765-1.11 3.437-2.953 4.53l.313.376c1.546-.953 2.484-2.235 2.89-3.64h1.563v1.64H3.64v.422h1.703V.187h.468v-7.515h-.468zm1.625-2.328V.641h.468v-8.188zm0 0"/></symbol><symbol overflow="visible" id="bh"><path d="M6.484-6.063H1.5v1.625h5.625v-.375H1.969v-.89h5v-1.563H1.484v.375h5zM1.938-.827H7v-1.625H1.437v.39h5.094v.86H1.453V.516h5.828V.125H1.938zM.516-3.672v.39h7.437v-.39zm0 0"/></symbol><symbol overflow="visible" id="bi"><path d="M3.266-6.797H2.78v1.64c0 1.532-1.187 3.095-2.265 3.641l.312.391C1.734-1.609 2.656-2.719 3.031-4c.375 1.234 1.313 2.281 2.203 2.75l.313-.39c-1.094-.516-2.281-2.032-2.281-3.516zm3.421-.75V.656h.485v-8.203zm0 0"/></symbol><symbol overflow="visible" id="bj"><path d="M1.125-7.047v.422h3.156a3.41 3.41 0 0 1-.25 1.063l-3.297.171.094.438 3-.234c-.531.906-1.531 1.593-3.015 2.03L1-2.75c2.547-.766 3.813-2.281 3.813-4.297zm1.36 5.14h4.234V.11H2.484zM2 .517h5.188v-2.829H2zm4.703-8.063v4.75h.484v-4.75zm0 0"/></symbol><symbol overflow="visible" id="bk"><path d="M6.484-4.14H2v-1.423h4.484zM6.97-7.22h-.485v1.25H2v-1.25h-.5v3.5h5.469zm.984 4.61H.516v.406h3.453V.64h.484v-2.844h3.5zm0 0"/></symbol><symbol overflow="visible" id="bl"><path d="M1.531-6.266h1.282c1.171 0 1.812.36 1.812 1.329 0 .968-.64 1.437-1.813 1.437h-1.28zM5.328 0L3.516-3.078c1.015-.156 1.671-.781 1.671-1.86 0-1.312-.906-1.796-2.234-1.796H.984V0h.547v-3.031h1.375L4.703 0zm0 0"/></symbol><symbol overflow="visible" id="bm"><path d="M.906-1.75c0-.625.469-1.11 1.031-1.547C2.422-2.469 3.125-1.64 3.829-1c-.422.406-.906.672-1.453.672C1.562-.328.906-.891.906-1.75zm.86-3.594c0-.61.343-1.078.921-1.078.532 0 .72.406.72.828 0 .688-.61 1.14-1.282 1.625-.219-.484-.36-.953-.36-1.375zm4.046 5c-.375-.125-.828-.39-1.28-.734.53-.703.921-1.547 1.187-2.469h-.516c-.234.828-.578 1.578-1.031 2.156-.688-.578-1.39-1.39-1.844-2.203.75-.578 1.547-1.14 1.547-2.015 0-.72-.422-1.25-1.172-1.25-.844 0-1.422.656-1.422 1.515 0 .516.172 1.094.453 1.657C1.031-3.172.36-2.61.36-1.72c0 1.11.86 1.844 1.97 1.844.765 0 1.358-.344 1.858-.828.532.422 1.032.687 1.47.828zm0 0"/></symbol><symbol overflow="visible" id="bn"><path d="M.984 0h1.594c2.063 0 3.078-1.328 3.078-3.39 0-2.063-1.015-3.344-3.093-3.344H.984zm.547-.469v-5.797h.985c1.765 0 2.546 1.125 2.546 2.875S4.282-.469 2.517-.469zm0 0"/></symbol><symbol overflow="visible" id="bo"><path d="M3.266-6.797h-.5v1.64c0 1.485-1.11 3.048-2.188 3.626l.313.39c.906-.515 1.78-1.64 2.125-2.937.359 1.234 1.265 2.312 2.171 2.797l.282-.407c-1.078-.53-2.203-2.03-2.203-3.468zm3.453-.75v2.906H4.594v.407h2.125v4.89h.484v-8.203zm0 0"/></symbol><symbol overflow="visible" id="bp"><path d="M6.688-7.563v8.22h.484v-8.22zm-5.657.72v5.484h3.766v-5.485h-.5v2.266H1.516v-2.266zm.485 2.671h2.78v2.39h-2.78zm0 0"/></symbol><symbol overflow="visible" id="bq"><path d="M4.484-2.14h-.5v.171C3.984-.766 2.454.016 1.156.22l.188.375C2.5.39 3.78-.203 4.234-1.187 4.688-.204 5.954.39 7.125.593L7.313.22C6.016.016 4.483-.766 4.483-1.97zm0-.922v-.97h2.672v-.405H1.97V-5.47h5V-7.28H1.484v.406h5v1.016H1.5v1.828h2.484v.968H.516v.407h7.437v-.406zm0 0"/></symbol><symbol overflow="visible" id="br"><path d="M4.14-1.781H1.39v-2.39h2.75zm0-2.797H1.39v-2.266h-.5v5.485h3.735v-5.485h-.484zm4.063.344H6.766v-3.313h-.5V.641h.5v-4.422h1.437zm0 0"/></symbol><symbol overflow="visible" id="bs"><path d="M1.75-4.86c0-1 1.063-1.687 2.469-1.687 1.422 0 2.468.688 2.468 1.688 0 .984-1.046 1.671-2.468 1.671-1.407 0-2.469-.687-2.469-1.671zM4.469-.874v-1.922c1.593-.078 2.687-.875 2.687-2.062 0-1.266-1.218-2.079-2.937-2.079-1.703 0-2.922.813-2.922 2.079 0 1.187 1.094 1.984 2.687 2.062v1.922H.516v.406h7.437v-.406zm0 0"/></symbol><symbol overflow="visible" id="bt"><path d="M1.203-5.14c0-.86.688-1.485 1.61-1.485.937 0 1.609.625 1.609 1.484 0 .844-.672 1.47-1.61 1.47-.921 0-1.609-.626-1.609-1.47zm3.703 0c0-1.141-.875-1.923-2.093-1.923-1.22 0-2.079.782-2.079 1.922 0 1.141.86 1.891 2.079 1.891 1.218 0 2.093-.75 2.093-1.89zM1.594-1.829h4.765V.64h.485V-2.25h-5.25zm6.515-3.953v-.422H6.844v-1.36h-.485v4.891h.485v-1.36h1.265v-.421H6.844v-1.328zm0 0"/></symbol><symbol overflow="visible" id="bu"><path d="M5.234-3.281c-1.14-.422-2.109-1.5-2.109-2.672v-1.11h-.469v1.079c0 1.359-.937 2.468-2.11 2.921l.266.407c.97-.406 1.766-1.203 2.094-2.281C3.25-4 4.062-3.25 4.984-2.892zM2.36-2.047h-.5V.438h5.375V.03H2.36zm4.485-2.922v-2.593h-.485v6.109h.485v-3.094h1.281v-.422zm0 0"/></symbol><symbol overflow="visible" id="bv"><path d="M6.719.11H2.562v-1.235H6.72zm0-1.641H2.562V-2.72h-.484V.516h5.125V-2.72H6.72zM2.75-3.844c-.938 0-1.61-.625-1.61-1.453 0-.828.673-1.437 1.61-1.437.922 0 1.594.609 1.594 1.437 0 .828-.672 1.453-1.594 1.453zm3.969-3.703v2.031H4.812c-.125-1-.937-1.64-2.062-1.64-1.219 0-2.078.75-2.078 1.86 0 1.109.86 1.874 2.078 1.874 1.14 0 1.953-.672 2.063-1.672h1.906v1.938h.484v-4.39zm0 0"/></symbol><symbol overflow="visible" id="bw"><path d="M3.14-6.266h1.922v-.421H.688v.421h1.97v1.375c0 1.422-1.173 3-2.235 3.532l.297.406c.89-.485 1.828-1.61 2.187-2.86.36 1.157 1.235 2.188 2.125 2.657l.282-.39c-1.079-.532-2.172-2-2.172-3.345zM8.204-4.14H6.766v-3.406h-.5V.641h.5v-4.36h1.437zm0 0"/></symbol><symbol overflow="visible" id="bx"><path d="M3.219-6.719c.922 0 1.578.516 1.578 1.219 0 .719-.656 1.25-1.578 1.25S1.64-4.781 1.64-5.5c0-.703.656-1.219 1.578-1.219zm0 2.875c1.203 0 2.047-.656 2.047-1.656 0-.969-.844-1.64-2.047-1.64-1.203 0-2.047.671-2.047 1.64 0 1 .844 1.656 2.047 1.656zm2.797.516c-1.844.265-3.954.297-5.532.297l.079.437c.734 0 1.578-.015 2.453-.047V.391h.5v-3.063c.828-.047 1.703-.14 2.546-.281zm.656-4.219V.656h.484v-8.203zm0 0"/></symbol><symbol overflow="visible" id="by"><path d="M1.781-2.156v.406h4.922V.64h.484v-2.796zm4.922-5.406v4.906h.484v-4.906zm-3.875.5C1.61-7.063.75-6.282.75-5.141S1.61-3.25 2.828-3.25c1.219 0 2.078-.75 2.078-1.89 0-1.141-.86-1.923-2.078-1.923zm0 .437c.938 0 1.61.625 1.61 1.484 0 .844-.672 1.47-1.61 1.47-.922 0-1.594-.626-1.594-1.47 0-.859.672-1.484 1.594-1.484zm0 0"/></symbol><symbol overflow="visible" id="bz"><path d="M7.188-7.563h-.5v4.297h.5zm-1.75 3.61c-1.141-.422-2.172-1.469-2.172-2.719v-.625H2.78v.625c0 1.313-1 2.438-2.14 2.875l.25.406c.968-.406 1.812-1.218 2.14-2.265.36.968 1.203 1.734 2.156 2.093zM2.5.125v-1.11h4.688v-1.828H1.984v.407H6.72v1.031H2.016V.531h5.5V.125zm0 0"/></symbol><symbol overflow="visible" id="bA"><path d="M5.125-5.297v.422h1.594v1.297H5.125v.406h1.594v1.875h.484v-6.25H6.72v2.25zm.063-1.172H3.108v-1.078h-.484v1.078H.531v.407h4.657zm-3.672 2.5c0-.672.546-1.14 1.343-1.14.813 0 1.344.468 1.344 1.14 0 .672-.531 1.14-1.344 1.14-.796 0-1.343-.468-1.343-1.14zm3.171 0c0-.937-.75-1.547-1.828-1.547s-1.812.61-1.812 1.547c0 .938.734 1.547 1.812 1.547 1.079 0 1.829-.61 1.829-1.547zm-2.171 4v-1.875H2.03V.438h5.375V.03zm0 0"/></symbol><symbol overflow="visible" id="bB"><path d="M1.156-6.672v.422h3.188a5.355 5.355 0 0 1-.313 1.64L.75-4.374l.125.453 3-.281C3.359-3 2.359-1.937.75-1.172l.281.406c2.86-1.406 3.797-3.609 3.797-5.906zm5.547-.875V.641h.484v-8.188zm0 0"/></symbol><symbol overflow="visible" id="bC"><path d="M4.469-.906v-2.406h2.61v-.407h-5.11v-3.11h-.485v3.516h2.5v2.407H.516v.422h7.437v-.422zm0 0"/></symbol><symbol overflow="visible" id="bD"><path d="M4.938-3.594c-1 .172-1.813.203-3.485.203H1.36v-1.5h3v-2.171H.86v.421h3.016v1.344H.891v2.313h.562c1.672 0 2.5-.032 3.531-.204zM1.796-1.625h4.922V.672h.484v-2.719H1.797zm4.922-5.922v1.266H4.937v.406H6.72v1.25H4.937v.422H6.72v1.687h.484v-5.03zm0 0"/></symbol><symbol overflow="visible" id="bH"><path d="M2.234 1.125l.329-.172c-.813-1.297-1.22-2.86-1.22-4.469 0-1.593.407-3.171 1.22-4.453l-.329-.172C1.391-6.78.891-5.312.891-3.516c0 1.813.5 3.282 1.343 4.641zm0 0"/></symbol><symbol overflow="visible" id="bI"><path d="M.984 0H2.97c1.515 0 2.515-.672 2.515-1.969 0-.922-.578-1.468-1.437-1.61v-.046c.672-.203 1.031-.781 1.031-1.469 0-1.14-.89-1.64-2.25-1.64H.984zm.547-3.797V-6.28H2.72c1.187 0 1.812.328 1.812 1.25 0 .765-.547 1.234-1.875 1.234zm0 3.328v-2.89h1.313c1.344 0 2.094.453 2.094 1.39 0 1.047-.797 1.5-2.094 1.5zm0 0"/></symbol><symbol overflow="visible" id="bJ"><path d="M2.016.125c.625 0 1.218-.344 1.718-.75h.016L3.797 0h.453v-3.125c0-1.078-.406-1.922-1.578-1.922-.813 0-1.485.39-1.875.64l.25.391c.344-.265.906-.562 1.547-.562.937 0 1.14.75 1.125 1.484-2.172.25-3.14.766-3.14 1.86 0 .906.64 1.359 1.437 1.359zm.109-.453c-.547 0-1-.266-1-.938 0-.75.656-1.203 2.594-1.437v1.61c-.578.5-1.047.765-1.594.765zm0 0"/></symbol><symbol overflow="visible" id="bK"><path d="M2.14.125c1.079 0 1.688-.656 1.688-1.406 0-.953-.844-1.219-1.594-1.5-.578-.219-1.14-.422-1.14-.969 0-.438.328-.844 1.062-.844.469 0 .828.188 1.172.438l.266-.375a2.32 2.32 0 0 0-1.422-.516c-1.031 0-1.625.61-1.625 1.328 0 .844.812 1.156 1.547 1.406.578.204 1.187.47 1.187 1.063 0 .5-.375.922-1.125.922-.672 0-1.125-.25-1.547-.61l-.28.391c.437.36 1.077.672 1.812.672zm0 0"/></symbol><symbol overflow="visible" id="bL"><path d="M2.813.125c.703 0 1.171-.234 1.562-.484L4.172-.75c-.375.25-.781.422-1.313.422-1.062 0-1.765-.844-1.796-2.047h3.484c.031-.125.031-.25.031-.39 0-1.438-.703-2.282-1.906-2.282-1.11 0-2.156 1-2.156 2.594 0 1.61 1.03 2.578 2.296 2.578zm-1.75-2.922c.093-1.125.828-1.797 1.625-1.797.859 0 1.406.61 1.406 1.797zm0 0"/></symbol><symbol overflow="visible" id="bM"><path d="M.922 0h.531v-3.313c.36-.906.89-1.234 1.328-1.234a.91.91 0 0 1 .453.094l.11-.484c-.156-.094-.313-.11-.5-.11-.578 0-1.063.422-1.39 1.047h-.016l-.079-.922H.922zm0 0"/></symbol><symbol overflow="visible" id="bN"><path d="M2.766.125c.625 0 1.156-.266 1.578-.64l-.266-.376c-.328.297-.766.547-1.281.547-1.031 0-1.719-.86-1.719-2.11 0-1.265.75-2.124 1.734-2.124.454 0 .813.203 1.126.5l.296-.375c-.343-.297-.78-.594-1.437-.594-1.219 0-2.281.953-2.281 2.594 0 1.625.968 2.578 2.25 2.578zm0 0"/></symbol><symbol overflow="visible" id="bO"><path d="M.922 0h.531v-3.688c.578-.593.984-.89 1.563-.89.75 0 1.078.484 1.078 1.5V0h.531v-3.156c0-1.25-.469-1.89-1.5-1.89-.672 0-1.172.39-1.672.874v-3.172H.922zm0 0"/></symbol><symbol overflow="visible" id="bP"><path d="M.672 1.125c.844-1.36 1.344-2.828 1.344-4.64 0-1.797-.5-3.266-1.344-4.626l-.328.172c.797 1.282 1.219 2.86 1.219 4.453 0 1.61-.422 3.172-1.22 4.47zm0 0"/></symbol><symbol overflow="visible" id="bQ"><path d="M1.156-3.016a.478.478 0 0 0 .469-.5c0-.312-.234-.515-.469-.515-.25 0-.468.203-.468.515 0 .313.218.5.468.5zm0 0"/></symbol><symbol overflow="visible" id="bR"><path d="M1.469-1.953L1.453-6.61H.984v5.093h.485c.968 0 1.89-.046 3.015-.28l-.078-.423c-1.078.219-2 .266-2.937.266zm3.765-2.75H3.266v.422h1.968V.187h.47v-7.515h-.47zM6.97-7.547V.641h.468v-8.188zm0 0"/></symbol><symbol overflow="visible" id="bS"><path d="M7.078-3.016H2.016V-4.53h4.796v-.407H2.016v-1.437h4.968v-.422H1.531v4.188h5.547zM.516-.89v.407h7.437v-.407zm0 0"/></symbol><symbol overflow="visible" id="bT"><path d="M3.172-6.719c.922 0 1.578.5 1.578 1.188 0 .687-.656 1.187-1.578 1.187s-1.578-.5-1.578-1.187c0-.688.656-1.188 1.578-1.188zm0 2.75c1.219 0 2.047-.61 2.047-1.562 0-.953-.828-1.563-2.047-1.563-1.219 0-2.031.61-2.031 1.563S1.953-3.97 3.17-3.97zm2.781.547c-1.797.266-3.89.281-5.469.281l.094.438c.688 0 1.485-.016 2.328-.047V.39h.485v-3.156c.859-.046 1.75-.14 2.593-.265zm.688-4.125v5.64H4.656v.407h1.985V.64h.484v-8.187zm0 0"/></symbol><symbol overflow="visible" id="bU"><path d="M7.188-7.547h-.485v4.984h.484zm-6.063.594v.422h3.156c-.031.375-.11.734-.25 1.078l-3.297.172.094.437 3-.234c-.531.89-1.531 1.594-3.015 2.047l.203.406c2.546-.781 3.796-2.313 3.796-4.328zM4.531.219c-1.36 0-2.234-.438-2.234-1.14 0-.688.875-1.141 2.234-1.141 1.344 0 2.235.453 2.235 1.14 0 .703-.891 1.14-2.235 1.14zm0-2.672c-1.687 0-2.734.562-2.734 1.531C1.797.063 2.844.625 4.53.625 6.203.625 7.25.062 7.25-.922c0-.969-1.047-1.531-2.719-1.531zm0 0"/></symbol><symbol overflow="visible" id="bV"><path d="M5.469-6.86h-2.14v-.78h-.485v.78H.719v.376h4.75zM1.687-5.061c0-.454.563-.75 1.391-.75.844 0 1.406.296 1.406.75 0 .421-.562.718-1.406.718-.828 0-1.39-.297-1.39-.718zm4.047 1.437a23.73 23.73 0 0 1-2.406.219V-4c1-.063 1.61-.453 1.61-1.063 0-.687-.735-1.093-1.86-1.093s-1.86.406-1.86 1.093c0 .61.626 1 1.626 1.063v.61c-.844.03-1.656.03-2.328.03l.062.391c1.438 0 3.422 0 5.188-.312zM2.11-.75h4.672v-1.547H1.61v.375h4.704v.797H1.625V.531h5.5v-.39H2.109zm4.672-4.61v-2.187h-.484v4.844h.484v-2.235h1.313v-.421zm0 0"/></symbol><symbol overflow="visible" id="bW"><path d="M6.719-2.672h.484v-4.89H6.72v1.89H4.75v.422h1.969zm-1.453-.844C4.14-3.937 3.172-4.969 3.172-6.172v-.906h-.485v.906c0 1.344-.953 2.438-2.124 2.89l.265.391a3.697 3.697 0 0 0 2.125-2.25c.328.938 1.125 1.657 2.031 2.016zM4.546.22C3.22.219 2.36-.22 2.36-.891c0-.687.86-1.125 2.188-1.125 1.344 0 2.219.438 2.219 1.125 0 .672-.875 1.11-2.22 1.11zm0-2.625c-1.671 0-2.687.547-2.687 1.515C1.86.08 2.875.625 4.547.625c1.672 0 2.687-.547 2.687-1.516 0-.968-1.015-1.515-2.687-1.515zm0 0"/></symbol><symbol overflow="visible" id="bX"><path d="M5.5-6.516H3.281v-1.046h-.5v1.046H.562v.422H5.5zm-3.89 2.5c0-.656.562-1.109 1.421-1.109.86 0 1.438.453 1.438 1.11 0 .64-.578 1.109-1.438 1.109S1.61-3.375 1.61-4.016zM3.28-2.53c1-.078 1.656-.64 1.656-1.485 0-.921-.765-1.5-1.906-1.5-1.125 0-1.875.579-1.875 1.5 0 .844.64 1.407 1.625 1.485V-1.5c-.844.031-1.656.031-2.36.031l.095.422c1.453 0 3.421-.016 5.218-.312l-.03-.391c-.766.125-1.61.188-2.423.219zm4.875-1.453H6.734v-3.563H6.25V.641h.484v-4.204h1.422zm0 0"/></symbol><symbol overflow="visible" id="bY"><path d="M4.234.234c-1.437 0-2.296-.328-2.296-.906 0-.562.859-.906 2.296-.906 1.422 0 2.297.344 2.297.906 0 .578-.875.906-2.297.906zm0-2.187c-1.78 0-2.796.437-2.796 1.281C1.438.172 2.452.625 4.233.625c1.782 0 2.782-.453 2.782-1.297 0-.844-1-1.281-2.782-1.281zm.235-1.188v-1h2.547v-.39h-5v-1.016H6.75v-.406H2.016v-.953h4.968v-.39H1.531v3.155h2.453v1H.531v.422h7.407v-.422zm0 0"/></symbol><symbol overflow="visible" id="bZ"><path d="M.844 0h3.484v-.469H2.922v-6.265h-.438c-.328.187-.734.328-1.28.421v.36h1.171V-.47H.844zm0 0"/></symbol><symbol overflow="visible" id="ca"><path d="M.422 0h4.047v-.484H2.375c-.36 0-.734.03-1.11.062 1.798-1.672 2.876-3.094 2.876-4.5 0-1.156-.688-1.937-1.86-1.937-.812 0-1.39.406-1.89.984l.343.313c.391-.485.907-.844 1.485-.844.953 0 1.375.656 1.375 1.5 0 1.218-.89 2.61-3.172 4.578zm0 0"/></symbol><symbol overflow="visible" id="cb"><path d="M5.203-3.563C4.093-3.969 3.11-5.046 3.11-6.219v-.937h-.468v.906c0 1.344-.938 2.453-2.094 2.922l.25.39a3.7 3.7 0 0 0 2.11-2.265c.327.922 1.124 1.672 2.03 2.031zM4.25.22c-1.297 0-2.156-.39-2.156-1.032 0-.64.86-1.046 2.156-1.046 1.328 0 2.172.406 2.172 1.046C6.422-.171 5.578.22 4.25.22zm0-2.469c-1.64 0-2.64.516-2.64 1.438 0 .921 1 1.437 2.64 1.437 1.656 0 2.656-.516 2.656-1.438 0-.921-1-1.437-2.656-1.437zm2.594-3.063v-2.25h-.485V-2.5h.485v-2.39h1.281v-.423zm0 0"/></symbol><symbol overflow="visible" id="cc"><path d="M7.5-6.25H4.484v-1.14h-.5v1.14H.922v.422H7.5zM2.094-3.625c0-.703.844-1.125 2.14-1.125 1.282 0 2.125.422 2.125 1.125 0 .703-.843 1.14-2.125 1.14-1.296 0-2.14-.437-2.14-1.14zm2.39 2.813v-1.282c1.47-.062 2.375-.61 2.375-1.531 0-.969-1.015-1.531-2.625-1.531-1.625 0-2.625.562-2.625 1.531 0 .922.907 1.469 2.375 1.531v1.281H.531v.422h7.422v-.421zm0 0"/></symbol><symbol overflow="visible" id="cd"><path d="M.89-6.906v.422h3.235C3.985-4.86 2.578-3.578.578-2.922l.219.406C3.078-3.28 4.64-4.844 4.64-6.906zM2.329-2.11h-.484V.437H7.25V.031H2.328zm4.5-2.844v-2.594h-.484v6.063h.484v-3.047h1.297v-.422zm0 0"/></symbol><symbol overflow="visible" id="ce"><path d="M.984 0H1.5v-4.031c0-.672-.047-1.313-.063-1.953h.047l.75 1.343L4.984 0h.563v-6.734H5.03v3.984c0 .656.032 1.344.063 2h-.047l-.75-1.36-2.75-4.624H.984zm0 0"/></symbol><symbol overflow="visible" id="cf"><path d="M2.563.125c.624 0 1.171-.344 1.578-.75h.015L4.22 0h.437v-7.344h-.531v2l.047.89c-.484-.374-.89-.593-1.469-.593-1.172 0-2.187 1-2.187 2.594 0 1.656.812 2.578 2.046 2.578zm.093-.469c-1 0-1.562-.844-1.562-2.11 0-1.218.718-2.124 1.656-2.124.469 0 .875.172 1.375.61v2.843c-.484.5-.953.781-1.469.781zm0 0"/></symbol><symbol overflow="visible" id="cg"><path d="M1.14-2.75c1.094-.234 2.594-1.094 3.094-2.313.516 1.204 2.032 2.047 3.125 2.297l.22-.39C6.405-3.36 4.483-4.5 4.483-5.906v-.407h2.86v-.421H1.14v.421h2.843v.407c0 1.406-1.89 2.562-3.062 2.781zM4.485-.89v-2.094H4v2.093H.531v.422h7.422V-.89zm0 0"/></symbol><symbol overflow="visible" id="ch"><path d="M4.219-7.063c1.437 0 2.343.391 2.343 1.047 0 .657-.906 1.047-2.343 1.047-1.438 0-2.328-.39-2.328-1.047 0-.656.89-1.046 2.328-1.046zm0 2.485c1.781 0 2.843-.516 2.843-1.438 0-.921-1.062-1.437-2.843-1.437-1.766 0-2.828.516-2.828 1.437 0 .922 1.062 1.438 2.828 1.438zM5.25-2.625H3.11v-.938h2.14zm2.688-.938v-.421H.53v.421h2.094v.938H1.453v.406H6.47v.906h-5V.532h5.75V.125H1.953V-.938h5v-1.687H5.75v-.938zm0 0"/></symbol><symbol overflow="visible" id="ci"><path d="M1.328-1.813h5.203v2.5h.5v-2.921H1.328zm5.39-2.218c.22-1.11.22-1.907.22-2.563v-.547H1.484v.407H6.47v.14c0 .657 0 1.438-.25 2.563H.53v.422h7.422v-.422zm0 0"/></symbol><symbol overflow="visible" id="cj"><path d="M1.344-1.906V-6.11h2.578v-.422H.859v5.047h.5c1.36 0 2.157-.047 3.125-.266l-.078-.422c-.922.219-1.703.266-3.047.266zm5.625-5.64v3.359H5.547v-3.157h-.469V.188h.469v-3.954h1.422V.641h.468v-8.188zm0 0"/></symbol><symbol overflow="visible" id="ck"><path d="M2.375.125c1.156 0 2.031-.734 2.031-1.906 0-.953-.656-1.563-1.468-1.735v-.046c.718-.235 1.234-.797 1.234-1.672 0-1.032-.781-1.625-1.813-1.625-.765 0-1.343.359-1.812.796l.328.36c.36-.39.89-.703 1.469-.703.781 0 1.281.484 1.281 1.218 0 .797-.516 1.438-2 1.438v.453c1.61 0 2.234.61 2.234 1.516 0 .86-.625 1.437-1.5 1.437C1.5-.344.984-.75.594-1.156l-.313.36c.438.452 1.063.921 2.094.921zm0 0"/></symbol><symbol overflow="visible" id="cl"><path d="M1.469-6.516H.984v4.97h.485c.922 0 1.843-.063 3-.298l-.063-.422C3.296-2.046 2.36-2 1.47-2zm5.5-1.046v3.437H5.547v-3.234h-.484V.203h.484v-3.89h1.422V.64h.468v-8.204zm0 0"/></symbol><symbol overflow="visible" id="cm"><path d="M5.469-6.672h-2.14v-.906h-.485v.906H.719v.39h4.75zM1.687-4.609c0-.532.563-.875 1.391-.875.844 0 1.406.343 1.406.875 0 .53-.562.89-1.406.89-.828 0-1.39-.36-1.39-.89zm4.047 1.734c-.75.11-1.593.172-2.406.219v-.703c.985-.063 1.61-.516 1.61-1.25 0-.782-.735-1.25-1.86-1.25s-1.86.468-1.86 1.25c0 .734.641 1.187 1.626 1.25v.734c-.844.016-1.656.031-2.328.031l.062.422c1.438 0 3.438-.031 5.188-.344zM2.266-1.562h-.5v2h5.328V.03H2.266zM6.78-4.595v-2.953h-.484v6.406h.484v-3.03h1.313v-.423zm0 0"/></symbol><symbol overflow="visible" id="cn"><path d="M6.719-5.5v1.297H4.344v.422h2.375v1.25h.484v-5.016H6.72v1.625H4.594c.093-.297.14-.64.14-.969H1.063v.407h3.14C4.078-4.891 2.656-3.672.656-3.031l.219.406C2.594-3.172 3.906-4.172 4.453-5.5zM4.579.219c-1.345 0-2.22-.453-2.22-1.14 0-.688.875-1.126 2.22-1.126 1.312 0 2.187.438 2.187 1.125 0 .688-.875 1.14-2.188 1.14zm0-2.656c-1.673 0-2.688.562-2.688 1.515C1.89.047 2.906.61 4.578.61c1.64 0 2.656-.562 2.656-1.53 0-.954-1.015-1.516-2.656-1.516zm0 0"/></symbol><symbol overflow="visible" id="co"><path d="M4.156-3.375h-2.75v-1.688h2.75zm.485-3.594h-.485v1.5h-2.75v-1.5H.922v4H4.64zm-2.313 4.86h-.484V.437H7.25V.031H2.328zm4.516-2.86v-2.578h-.485v6h.485v-3h1.281v-.422zm0 0"/></symbol><symbol overflow="visible" id="cp"><path d="M6.406-5.89c0 .952 0 2.218-.328 3.952l.484.063c.329-1.828.329-3.031.329-4.016v-.734H1.359v.422h5.047zM.516-1.048v.406h7.421v-.406zm0 0"/></symbol><symbol overflow="visible" id="cq"><path d="M1.297-1.86v-2.062H3.75v-2.687H.797v.437h2.469v1.828H.828v2.907h.516c1.031 0 1.984-.047 3.187-.25l-.047-.407c-1.187.203-2.14.235-3.14.235zm4-2.671H4.172v.422h1.125V.187h.469v-7.515h-.47zm1.672-3.032V.642h.468v-8.204zm0 0"/></symbol><symbol overflow="visible" id="cr"><path d="M7.063-3.531H2v-2.797h4.969v-.422H1.516v3.64h5.546zM.516-.953v.406h7.437v-.406zm0 0"/></symbol><symbol overflow="visible" id="cs"><path d="M6.703-7.578v2.39H4.5c.094-.484.14-.984.14-1.484H.985v.422h3.172a5.654 5.654 0 0 1-.312 1.625l-3.266.25.11.438 3-.282C3.155-3.016 2.171-1.953.578-1.172l.297.39c2.047-1.015 3.094-2.421 3.516-4h2.312v1.766H4.281v.407h2.422V.625h.484v-8.203zm0 0"/></symbol><symbol overflow="visible" id="ct"><path d="M1.203-5.14c0-.86.688-1.5 1.625-1.5.922 0 1.594.64 1.594 1.5 0 .843-.672 1.468-1.594 1.468-.937 0-1.625-.625-1.625-1.469zm3.703 0c0-1.141-.875-1.923-2.078-1.923-1.234 0-2.094.782-2.094 1.922 0 1.125.86 1.891 2.094 1.891 1.203 0 2.078-.766 2.078-1.89zM4.25.218c-1.297 0-2.156-.406-2.156-1.094 0-.656.86-1.078 2.156-1.078 1.328 0 2.172.422 2.172 1.078 0 .688-.844 1.094-2.172 1.094zm0-2.578c-1.625 0-2.64.546-2.64 1.484 0 .953 1.015 1.5 2.64 1.5 1.656 0 2.656-.547 2.656-1.5 0-.938-1-1.484-2.656-1.484zm3.86-3.422v-.422H6.843v-1.36h-.485v4.907h.485v-1.39h1.265v-.423H6.844V-5.78zm0 0"/></symbol><symbol overflow="visible" id="cu"><path d="M5.188-6.656H3.108v-.985h-.484v.985H.531v.406h4.657zM1.5-4.281c0-.625.563-1.063 1.36-1.063.812 0 1.343.438 1.343 1.063 0 .64-.531 1.078-1.344 1.078-.796 0-1.359-.438-1.359-1.078zm3.188 0c0-.89-.75-1.453-1.829-1.453-1.078 0-1.812.562-1.812 1.453 0 .906.734 1.468 1.812 1.468 1.079 0 1.829-.562 1.829-1.468zm2.03 4.39H2.5V-.953h4.219zm0-1.453H2.5v-1h-.484v2.86h5.187v-2.86H6.72zm0-6.203v2H5.126v.422h1.594v1.172h-1.61v.406h1.61v.813h.484v-4.813zm0 0"/></symbol><symbol overflow="visible" id="cv"><path d="M4.156-3.734h-2.75v-1.547h2.75zm.485-3.313h-.485v1.36h-2.75v-1.36H.922v3.734H4.64zM4.25.22C2.953.219 2.094-.187 2.094-.86c0-.657.86-1.079 2.156-1.079 1.328 0 2.172.422 2.172 1.079 0 .671-.844 1.078-2.172 1.078zm0-2.563c-1.64 0-2.64.547-2.64 1.485 0 .953 1 1.484 2.64 1.484 1.656 0 2.656-.531 2.656-1.484 0-.938-1-1.485-2.656-1.485zm2.594-3.062v-2.14h-.485v4.968h.485v-2.406h1.281v-.422zm0 0"/></symbol><symbol overflow="visible" id="cw"><path d="M5.422-3.531C4.282-3.97 3.266-5.078 3.266-6.36v-.813H2.78v.813c0 1.328-.984 2.53-2.125 2.984l.266.39c.937-.406 1.781-1.265 2.11-2.328.359 1.016 1.187 1.782 2.14 2.157zm-3.64 1.797h4.921V.64h.484v-2.797H1.782zm4.921-5.829v4.97h.484v-4.97zm0 0"/></symbol><symbol overflow="visible" id="cx"><path d="M1.203-3.938c1.219-.171 2.563-.687 3.031-1.64.454.953 1.797 1.469 3.032 1.64l.156-.39C6.078-4.484 4.5-5.156 4.484-6.312h2.672v-.407H4.484v-.922h-.5v.922H1.328v.407h2.64c0 1.156-1.593 1.828-2.921 1.984zm6.734.97v-.407H.516v.406h3.468v1.063h-2.64v.422h5.172V.609h.5v-2.515H4.484V-2.97zm0 0"/></symbol><symbol overflow="visible" id="cD"><path d="M7.547-3.39c-1.188-.235-3.094-1.422-3.094-2.907v-.656h-.5v.656c0 1.5-1.89 2.672-3.062 2.906l.218.407c1.094-.266 2.594-1.141 3.094-2.407.531 1.266 2.016 2.141 3.125 2.407zM4.453-.89v-2.094H3.97v2.093H.516v.407h7.437v-.407zm0 0"/></symbol><symbol overflow="visible" id="cE"><path d="M4.781-4.078C5-5.188 5-6 5-6.516v-.375H1.016v.407H4.53c0 .515 0 1.265-.25 2.359zm.922.594a27.3 27.3 0 0 1-2.828.218v-1.843h-.5v1.875c-.672.015-1.297.015-1.86.015l.063.438c1.453-.016 3.453-.047 5.172-.328zM2.297-1.938h-.5V.438h5.281V.031H2.297zm4.515-2.859v-2.75h-.5v6.188h.5v-3.016h1.282v-.422zm0 0"/></symbol><symbol overflow="visible" id="cF"><path d="M7.453-4.719C6.22-4.906 4.484-5.812 4.484-7.016v-.421h-.5v.421c0 1.22-1.734 2.11-2.984 2.297l.203.39c1.14-.202 2.547-.874 3.031-1.905.5 1 1.891 1.703 3.032 1.906zm-6.11 3.125h5.173V.641h.5v-2.657H1.344zM4.47-3.359v-1.375h-.485v1.375H.516v.406h7.468v-.406zm0 0"/></symbol><symbol overflow="visible" id="cG"><path d="M6.5-4.781H1.969v-1.953H6.5zm.469-2.36H1.5v2.766h5.469zM2-1.89h-.5V.438h5.625V.03H2zM.516-3.28v.406h3.5v1.828H4.5v-1.828h3.453v-.406zm0 0"/></symbol><symbol overflow="visible" id="cH"><path d="M.984-6.656v.422h3.22c-.126 2-1.345 3.75-3.563 4.843L.92-1c2.61-1.297 3.766-3.406 3.766-5.656zm7.204 2.531H6.766v-3.422h-.5V.641h.5v-4.329h1.421zm0 0"/></symbol><symbol overflow="visible" id="cI"><path d="M6.469-5.703c0 1.062 0 2.11-.297 3.5l.484.062c.282-1.437.282-2.468.282-3.562v-.953h-5.61v.406h5.14zM5.016-1.031v-2.766H4.53v2.766H2.984v-2.766h-.468v2.766H.53v.422h7.407v-.422zm0 0"/></symbol><symbol overflow="visible" id="cJ"><path d="M4.89-2.656v.39h1.735v.97h.5v-6.25h-.5v4.89zM3.157-6.812c.906 0 1.531.421 1.531 1.015 0 .625-.625 1.047-1.53 1.047-.907 0-1.532-.422-1.532-1.047 0-.594.625-1.016 1.531-1.016zm0 2.437c1.203 0 2-.547 2-1.422 0-.86-.797-1.39-2-1.39-1.203 0-2 .53-2 1.39 0 .875.797 1.422 2 1.422zM2.97-1.641h.5v-1.671c.781-.047 1.61-.11 2.39-.235l-.046-.36c-1.766.22-3.813.235-5.344.235l.078.438c.719 0 1.547 0 2.422-.047zM2.203.031v-1.953H1.72v2.36h5.61V.03zm0 0"/></symbol><symbol overflow="visible" id="cK"><path d="M6.703-7.547v4.719h.484v-4.719zM1.984-2.359V.516h5.204V-2.36zm4.735.406V.109h-4.25v-2.062zm-3.89-5.14c-1.22 0-2.079.765-2.079 1.89s.86 1.875 2.078 1.875c1.219 0 2.078-.75 2.078-1.875s-.86-1.89-2.078-1.89zm0 .421c.937 0 1.608.61 1.608 1.469 0 .844-.671 1.469-1.609 1.469-.937 0-1.594-.625-1.594-1.47 0-.859.657-1.468 1.594-1.468zm0 0"/></symbol><symbol overflow="visible" id="cL"><path d="M7.188-7.563h-.5v4.75h.5zm-2.97 3.438h-2.78v-2.484h2.78zm.47-2.89H.953v3.296h3.735zm.25 5.234h2.484v-.39H4.938v-.892h-.5v.891h-2.47v.39h2.47v.079c0 .937-1.61 1.766-2.797 1.922l.171.39C2.938.422 4.235-.187 4.688-1.03 5.141-.203 6.391.422 7.517.609l.171-.39c-1.203-.188-2.75-1-2.75-1.922zm0 0"/></symbol><symbol overflow="visible" id="cM"><path d="M6.719-3.281h.484v-4.281H6.72v1.656H4.75v.437h1.969zm-1.469-.61c-1.11-.39-2.11-1.406-2.11-2.546v-.875h-.468v.875c0 1.28-.969 2.343-2.11 2.75l.266.39c.938-.375 1.766-1.14 2.094-2.14.36.89 1.172 1.593 2.078 1.921zm-2.734 4V-1h4.687v-1.813H2v.407h4.719v1.015H2.03V.516h5.516V.109zm0 0"/></symbol><symbol overflow="visible" id="cN"><path d="M5.344-4.172c-1.172.234-2.157.297-3.797.297h-.11v-2.703h3.094v-.406H.938v3.515h.609c1.672 0 2.656-.047 3.86-.297zM2.266-2h4.093V.11H2.266zM1.796.516h5.048v-2.907H1.797zm6.329-5.97H6.844v-2.093h-.485v4.656h.485v-2.156h1.281zm0 0"/></symbol><symbol overflow="visible" id="cO"><path d="M2.094 0h.703v-13.781h-.703zm0 0"/></symbol><symbol overflow="visible" id="cP"><path d="M4.703 0h.719l4.562-13.781h-.718L6.625-5.547C6.078-3.828 5.687-2.578 5.109-.89h-.078c-.593-1.687-.968-2.937-1.5-4.656L.875-13.78H.141zm0 0"/></symbol><symbol overflow="visible" id="cQ"><path d="M.828-6.89h4.547v-.673H.828zm0 0"/></symbol><symbol overflow="visible" id="cR"><path d="M1.25-4.656l4.172-6c.39-.594.766-1.235 1.094-1.813h.093c-.062.578-.093 1.578-.093 2.14v5.673zm7.969 0H7.172v-9.125h-.469L.343-4.406v.36h6.173V0h.656v-4.047h2.047zm0 0"/></symbol><symbol overflow="visible" id="cS"><path d="M2.203-.688c.36 0 .766-.28.766-.812 0-.547-.406-.86-.766-.86-.406 0-.781.313-.781.86 0 .531.375.813.781.813zm0 0"/></symbol><symbol overflow="visible" id="cU"><path d="M2.203-13.703v10.531h7.344v-10.531zm6.735.547v9.437H2.811v-9.437zm5.046-2.328v16.75h.641v-16.75zm0 0"/></symbol><symbol overflow="visible" id="cV"><path d="M2.39-3.625v-4.578h5.532v-5.281H1.734v.593h5.579v4.094H1.78v5.735h1.032c2.124 0 4.078-.094 6.609-.547l-.094-.563c-2.453.453-4.437.547-6.515.547zm12.157-11.86v6.907h-3.235v-6.453h-.624V.344h.624v-8.36h3.235v9.282h.625v-16.75zm0 0"/></symbol><symbol overflow="visible" id="cW"><path d="M6.61-14.156c-2.61 0-4.376 1.5-4.376 3.75C2.234-8.141 4-6.641 6.61-6.641c2.579 0 4.344-1.5 4.344-3.765 0-2.25-1.765-3.75-4.344-3.75zm0 .562c2.187 0 3.734 1.375 3.734 3.188 0 1.812-1.547 3.187-3.735 3.187-2.203 0-3.765-1.375-3.765-3.187 0-1.813 1.562-3.188 3.765-3.188zm7.187-1.89v16.75h.625v-16.75zM1.359-2.672c3.11 0 7.329 0 11.25-.719l-.078-.5c-3.781.61-8.125.61-11.297.61zm0 0"/></symbol><symbol overflow="visible" id="cX"><path d="M11.14-13.406H6.5v-2.156h-.64v2.156H1.218v.578h9.922zm-8.296 4.75c0-1.406 1.328-2.406 3.328-2.406 1.969 0 3.297 1 3.297 2.406 0 1.39-1.328 2.39-3.297 2.39-2 0-3.328-1-3.328-2.39zm7.219 0c0-1.828-1.532-2.969-3.891-2.969-2.375 0-3.906 1.14-3.906 2.969 0 1.797 1.53 2.937 3.906 2.937 2.36 0 3.89-1.14 3.89-2.937zM3.359-3.344h9.954v4.61h.624v-5.172H3.36zm13.313-7.219h-2.735v-4.906h-.624v10.422h.624v-4.922h2.735zm0 0"/></symbol><symbol overflow="visible" id="cY"><path d="M11.453-9.984h3v4.937h.625v-10.406h-.625v4.89h-3v-4.593h-.625v9.578h.625zM9.438-7.172c-2.079-.781-3.704-2.734-3.704-4.656v-2.578h-.593v2.578c0 1.875-1.704 4.156-3.782 5.047l.391.5c1.719-.797 3.14-2.438 3.672-4.125.547 1.594 1.937 3.047 3.672 3.719zM9.765.672c-2.907 0-4.829-.922-4.829-2.328 0-1.422 1.922-2.313 4.829-2.313 2.875 0 4.796.89 4.796 2.313 0 1.406-1.921 2.328-4.796 2.328zm0-5.188c-3.391 0-5.438 1.047-5.438 2.86 0 1.828 2.047 2.86 5.438 2.86 3.375 0 5.406-1.032 5.406-2.86 0-1.813-2.031-2.86-5.406-2.86zm0 0"/></symbol><symbol overflow="visible" id="cZ"><path d="M8.734-7.516H2.578v-6.093h6.156zm5.297-4.39v2.734H9.344v-2.734zM9.344-8.594h4.687v3.11h.625v-10h-.625v3.015H9.344v-1.687H1.969v7.187h7.375zM9.328.641C6.438.64 4.5-.344 4.5-1.86c0-1.5 1.938-2.5 4.828-2.5 2.86 0 4.797 1 4.797 2.5 0 1.515-1.938 2.5-4.797 2.5zm0-5.563c-3.39 0-5.437 1.125-5.437 3.063 0 1.937 2.046 3.062 5.437 3.062 3.36 0 5.406-1.125 5.406-3.062 0-1.938-2.046-3.063-5.406-3.063zm0 0"/></symbol><symbol overflow="visible" id="da"><path d="M9.688-6.172c.5-3.453.5-5.812.5-6.89v-.422h-8.25v.578h7.656c0 1.11-.031 3.422-.563 6.672zM5.655-8.719h-.625v5.375c-1.468.047-2.86.063-4.093.063l.14.61c3.016-.032 7.11-.095 10.688-.626l-.047-.5c-1.922.25-4.031.36-6.063.438zm11.094.5h-3.125v-7.265H13v16.75h.625V-7.61h3.125zm0 0"/></symbol><symbol overflow="visible" id="db"><path d="M16.328-7.844v-.562h-2.672c.5-2.219.5-3.813.5-5.094v-1.125H3.125v.578h10.438v.547c0 1.25 0 2.844-.547 5.094H1.125v.562h7.266v3.782H2.75v.562h10.969v4.766h.64v-5.329H9.016v-3.78zm0 0"/></symbol><symbol overflow="visible" id="dc"><path d="M5.64-12.688h3.548v-.562H1.343v.563H5.03v2.25c0 3.28-1.781 6.374-3.968 7.64l.437.5c1.781-1.125 3.297-3.36 3.828-6.031.563 2.437 2.016 4.562 3.75 5.625l.438-.485C7.344-4.421 5.64-7.421 5.64-10.438zm5.563 3.516H7.828v.578h3.375V.328h.625v-15.312h-.625zm3.344-6.312v16.78h.625v-16.78zm0 0"/></symbol><symbol overflow="visible" id="dd"><path d="M6.188-13.078h4.968v6.219H6.187zM8.983-1.594V-6.28h5.75v-.578h-2.937v-6.22h2.937v-.577H2.625v.578h2.938v6.219H2.624v.578h5.734v4.687H1.125v.563h15.203v-.563zm0 0"/></symbol><symbol overflow="visible" id="de"><path d="M10.672-7.672c-2.797.453-4.985.547-7.594.547H2.5v-3.281h6.61v-4.172H1.843v.562H8.5v3.047H1.89v4.422h1.188c2.64 0 4.813-.094 7.672-.547zM4.625-3.984h9.422V.437H4.625zM4.031 1h10.625v-5.531H4.031zm10-16.469v4.047h-3.64v.563h3.64v5.218h.625v-9.828zm0 0"/></symbol><symbol overflow="visible" id="df"><path d="M1.781-13.219v.578h5.797c-.156 3.579-1.844 7.329-6.234 9.672l.39.5c4.86-2.672 6.47-6.875 6.47-10.75zm12.766-2.265v7.171h-3.094v-6.718h-.625V.344h.625V-7.75h3.094v9.016h.625v-16.75zm0 0"/></symbol><symbol overflow="visible" id="dg"><path d="M2.234-6.281c2-.75 3.891-2.282 4.532-4.469.656 2.078 2.593 3.531 4.562 4.25l.328-.5c-2.281-.766-4.594-2.688-4.594-5.297v-.219h4.36v-.562H7.078v-2.313h-.625v2.313h-4.25v.562h4.25v.22c0 2.687-2.25 4.718-4.531 5.5zm4.844-.625h-.625v3.672c-1.875.078-3.687.078-5.219.078l.125.61c3.11 0 7.329 0 11.25-.72l-.078-.5c-1.75.297-3.625.438-5.453.516zm6.719-8.578v16.75h.625v-16.75zm0 0"/></symbol></defs><g fill="#898989"><use xlink:href="#a" x="557.645" y="819.169"/><use xlink:href="#b" x="561.924" y="819.169"/></g><g fill="#595757"><use xlink:href="#c" x="39.637" y="818.993"/><use xlink:href="#d" x="45.03" y="818.993"/><use xlink:href="#e" x="50.424" y="818.993"/><use xlink:href="#f" x="55.817" y="818.993"/><use xlink:href="#g" x="61.211" y="818.993"/><use xlink:href="#h" x="62.769" y="818.993"/><use xlink:href="#i" x="68.162" y="818.993"/><use xlink:href="#j" x="73.556" y="818.993"/><use xlink:href="#k" x="78.949" y="818.993"/><use xlink:href="#l" x="84.342" y="818.993"/><use xlink:href="#m" x="89.736" y="818.993"/><use xlink:href="#c" x="95.129" y="818.993"/><use xlink:href="#d" x="100.523" y="818.993"/></g><g fill="#595757"><use xlink:href="#n" x="105.916" y="818.993"/><use xlink:href="#o" x="107.474" y="818.993"/><use xlink:href="#p" x="112.868" y="818.993"/><use xlink:href="#q" x="118.261" y="818.993"/><use xlink:href="#r" x="123.655" y="818.993"/><use xlink:href="#n" x="129.048" y="818.993"/><use xlink:href="#s" x="130.606" y="818.993"/><use xlink:href="#t" x="136" y="818.993"/><use xlink:href="#u" x="141.393" y="818.993"/><use xlink:href="#n" x="146.786" y="818.993"/><use xlink:href="#v" x="148.345" y="818.993"/></g><g fill="#595757"><use xlink:href="#w" x="151.43" y="818.993"/><use xlink:href="#x" x="154.87" y="818.993"/><use xlink:href="#y" x="156.35" y="818.993"/><use xlink:href="#n" x="157.735" y="818.993"/><use xlink:href="#z" x="159.293" y="818.993"/><use xlink:href="#z" x="162.379" y="818.993"/></g><use xlink:href="#A" x="39.637" y="170.437"/><use xlink:href="#B" x="44.894" y="170.437"/><use xlink:href="#C" x="47.721" y="170.437"/><use xlink:href="#D" x="50.123" y="170.437"/><use xlink:href="#E" x="58.438" y="170.437"/><use xlink:href="#C" x="66.753" y="170.437"/><use xlink:href="#F" x="69.155" y="170.437"/><use xlink:href="#G" x="77.47" y="170.437"/><use xlink:href="#H" x="39.637" y="189.414"/><use xlink:href="#I" x="42.381" y="189.414"/><use xlink:href="#J" x="45.025" y="189.414"/><use xlink:href="#K" x="53.34" y="189.414"/><use xlink:href="#L" x="61.655" y="189.414"/><use xlink:href="#I" x="69.97" y="189.414"/><use xlink:href="#M" x="72.614" y="189.414"/><use xlink:href="#N" x="80.929" y="189.414"/><use xlink:href="#O" x="89.244" y="189.414"/><use xlink:href="#P" x="97.558" y="189.414"/><use xlink:href="#I" x="105.873" y="189.414"/><use xlink:href="#Q" x="108.517" y="189.414"/><use xlink:href="#R" x="116.832" y="189.414"/><use xlink:href="#S" x="125.147" y="189.414"/><use xlink:href="#T" x="133.462" y="189.414"/><use xlink:href="#U" x="141.777" y="189.414"/><use xlink:href="#R" x="150.092" y="189.414"/><use xlink:href="#I" x="158.407" y="189.414"/><use xlink:href="#V" x="161.051" y="189.414"/><use xlink:href="#W" x="169.366" y="189.414"/><use xlink:href="#Q" x="177.681" y="189.414"/><use xlink:href="#I" x="185.996" y="189.414"/><use xlink:href="#X" x="188.64" y="189.414"/><use xlink:href="#Y" x="196.955" y="189.414"/><use xlink:href="#I" x="205.269" y="189.414"/><use xlink:href="#Z" x="207.914" y="189.414"/><use xlink:href="#R" x="216.228" y="189.414"/><use xlink:href="#aa" x="224.543" y="189.414"/><use xlink:href="#I" x="232.858" y="189.414"/><use xlink:href="#ab" x="235.502" y="189.414"/><use xlink:href="#ac" x="243.817" y="189.414"/><use xlink:href="#ad" x="252.132" y="189.414"/><use xlink:href="#ae" x="260.447" y="189.414"/><use xlink:href="#I" x="268.762" y="189.414"/><use xlink:href="#M" x="271.406" y="189.414"/><use xlink:href="#N" x="279.721" y="189.414"/><use xlink:href="#af" x="288.036" y="189.414"/><use xlink:href="#ag" x="296.351" y="189.414"/><use xlink:href="#aa" x="304.666" y="189.414"/><use xlink:href="#I" x="312.98" y="189.414"/><use xlink:href="#ah" x="315.624" y="189.414"/><use xlink:href="#ai" x="323.939" y="189.414"/><use xlink:href="#O" x="332.253" y="189.414"/><use xlink:href="#aj" x="340.568" y="189.414"/><use xlink:href="#ak" x="348.883" y="189.414"/><use xlink:href="#I" x="357.198" y="189.414"/><g><use xlink:href="#al" x="359.842" y="189.414"/><use xlink:href="#am" x="368.157" y="189.414"/><use xlink:href="#an" x="376.472" y="189.414"/><use xlink:href="#I" x="378.606" y="189.414"/></g><g><use xlink:href="#ao" x="381.249" y="189.414"/><use xlink:href="#ap" x="389.564" y="189.414"/><use xlink:href="#Q" x="397.879" y="189.414"/><use xlink:href="#I" x="406.194" y="189.414"/></g><g><use xlink:href="#R" x="408.838" y="189.414"/><use xlink:href="#aa" x="417.153" y="189.414"/><use xlink:href="#I" x="425.468" y="189.414"/></g><g><use xlink:href="#aq" x="428.112" y="189.414"/><use xlink:href="#ar" x="436.427" y="189.414"/><use xlink:href="#as" x="444.742" y="189.414"/><use xlink:href="#I" x="453.057" y="189.414"/></g><g><use xlink:href="#at" x="455.701" y="189.414"/><use xlink:href="#au" x="464.016" y="189.414"/><use xlink:href="#I" x="472.331" y="189.414"/></g><g><use xlink:href="#ai" x="474.975" y="189.414"/><use xlink:href="#av" x="483.29" y="189.414"/><use xlink:href="#I" x="491.605" y="189.414"/></g><g><use xlink:href="#ah" x="494.249" y="189.414"/><use xlink:href="#aw" x="502.564" y="189.414"/><use xlink:href="#ax" x="510.878" y="189.414"/><use xlink:href="#I" x="519.193" y="189.414"/></g><g><use xlink:href="#ay" x="521.838" y="189.414"/><use xlink:href="#az" x="530.152" y="189.414"/><use xlink:href="#I" x="538.467" y="189.414"/></g><g><use xlink:href="#aA" x="541.111" y="189.414"/><use xlink:href="#aB" x="549.426" y="189.414"/><use xlink:href="#aa" x="557.741" y="189.414"/><use xlink:href="#I" x="566.056" y="189.414"/></g><g><use xlink:href="#O" x="39.637" y="208.39"/><use xlink:href="#ai" x="47.952" y="208.39"/><use xlink:href="#aC" x="56.267" y="208.39"/><use xlink:href="#I" x="64.582" y="208.39"/></g><g><use xlink:href="#aD" x="67.417" y="208.39"/><use xlink:href="#aE" x="75.732" y="208.39"/><use xlink:href="#aF" x="84.047" y="208.39"/><use xlink:href="#aj" x="92.362" y="208.39"/><use xlink:href="#ak" x="100.676" y="208.39"/><use xlink:href="#aG" x="108.991" y="208.39"/><use xlink:href="#an" x="117.306" y="208.39"/><use xlink:href="#I" x="119.44" y="208.39"/></g><g><use xlink:href="#aH" x="122.277" y="208.39"/><use xlink:href="#aI" x="130.592" y="208.39"/><use xlink:href="#aJ" x="138.906" y="208.39"/><use xlink:href="#I" x="147.221" y="208.39"/></g><g><use xlink:href="#aK" x="150.057" y="208.39"/><use xlink:href="#aL" x="158.372" y="208.39"/><use xlink:href="#aM" x="166.687" y="208.39"/><use xlink:href="#aI" x="175.001" y="208.39"/><use xlink:href="#ax" x="183.316" y="208.39"/><use xlink:href="#I" x="191.631" y="208.39"/></g><g><use xlink:href="#ai" x="194.467" y="208.39"/><use xlink:href="#av" x="202.781" y="208.39"/><use xlink:href="#aa" x="211.096" y="208.39"/><use xlink:href="#I" x="219.411" y="208.39"/></g><g><use xlink:href="#aN" x="222.247" y="208.39"/><use xlink:href="#aO" x="230.561" y="208.39"/><use xlink:href="#aP" x="238.876" y="208.39"/><use xlink:href="#I" x="247.191" y="208.39"/></g><g><use xlink:href="#aD" x="250.027" y="208.39"/><use xlink:href="#at" x="258.342" y="208.39"/><use xlink:href="#aQ" x="266.656" y="208.39"/><use xlink:href="#aR" x="274.971" y="208.39"/><use xlink:href="#aS" x="283.286" y="208.39"/><use xlink:href="#I" x="285.42" y="208.39"/></g><g><use xlink:href="#aT" x="288.256" y="208.39"/><use xlink:href="#aQ" x="296.571" y="208.39"/><use xlink:href="#I" x="304.885" y="208.39"/></g><g><use xlink:href="#al" x="307.721" y="208.39"/><use xlink:href="#aU" x="316.036" y="208.39"/><use xlink:href="#aV" x="324.351" y="208.39"/><use xlink:href="#I" x="332.666" y="208.39"/></g><g><use xlink:href="#aW" x="335.501" y="208.39"/><use xlink:href="#I" x="343.816" y="208.39"/></g><g><use xlink:href="#aX" x="346.651" y="208.39"/><use xlink:href="#aY" x="354.966" y="208.39"/><use xlink:href="#I" x="363.281" y="208.39"/></g><g><use xlink:href="#ai" x="366.117" y="208.39"/><use xlink:href="#av" x="374.432" y="208.39"/><use xlink:href="#aa" x="382.747" y="208.39"/><use xlink:href="#I" x="391.062" y="208.39"/></g><g><use xlink:href="#aZ" x="393.897" y="208.39"/><use xlink:href="#U" x="402.212" y="208.39"/><use xlink:href="#O" x="410.527" y="208.39"/><use xlink:href="#aj" x="418.842" y="208.39"/><use xlink:href="#ak" x="427.157" y="208.39"/><use xlink:href="#I" x="435.472" y="208.39"/></g><g><use xlink:href="#ba" x="438.307" y="208.39"/><use xlink:href="#bb" x="446.622" y="208.39"/><use xlink:href="#as" x="454.937" y="208.39"/><use xlink:href="#I" x="463.252" y="208.39"/></g><g><use xlink:href="#bc" x="466.087" y="208.39"/><use xlink:href="#I" x="474.402" y="208.39"/></g><g><use xlink:href="#bd" x="477.237" y="208.39"/><use xlink:href="#be" x="485.552" y="208.39"/><use xlink:href="#I" x="493.867" y="208.39"/></g><g><use xlink:href="#ay" x="496.703" y="208.39"/><use xlink:href="#az" x="505.018" y="208.39"/><use xlink:href="#S" x="513.333" y="208.39"/><use xlink:href="#bf" x="521.648" y="208.39"/><use xlink:href="#bg" x="529.963" y="208.39"/><use xlink:href="#bh" x="538.278" y="208.39"/><use xlink:href="#I" x="546.593" y="208.39"/></g><g><use xlink:href="#aU" x="549.428" y="208.39"/><use xlink:href="#ba" x="557.743" y="208.39"/></g><g><use xlink:href="#bi" x="39.637" y="227.366"/><use xlink:href="#bj" x="47.952" y="227.366"/><use xlink:href="#aj" x="56.267" y="227.366"/><use xlink:href="#ak" x="64.582" y="227.366"/><use xlink:href="#aG" x="72.896" y="227.366"/><use xlink:href="#an" x="81.211" y="227.366"/><use xlink:href="#I" x="83.345" y="227.366"/><use xlink:href="#ah" x="85.748" y="227.366"/><use xlink:href="#bk" x="94.062" y="227.366"/><use xlink:href="#Q" x="102.377" y="227.366"/><use xlink:href="#I" x="110.692" y="227.366"/><use xlink:href="#bl" x="113.094" y="227.366"/><use xlink:href="#bm" x="118.527" y="227.366"/><use xlink:href="#bn" x="124.301" y="227.366"/><use xlink:href="#I" x="130.325" y="227.366"/><use xlink:href="#bk" x="132.727" y="227.366"/><use xlink:href="#bo" x="141.042" y="227.366"/><use xlink:href="#bh" x="149.356" y="227.366"/><use xlink:href="#I" x="157.671" y="227.366"/><use xlink:href="#bp" x="160.073" y="227.366"/><use xlink:href="#bq" x="168.388" y="227.366"/><use xlink:href="#ad" x="176.703" y="227.366"/><use xlink:href="#ae" x="185.018" y="227.366"/><use xlink:href="#I" x="193.333" y="227.366"/><use xlink:href="#br" x="195.735" y="227.366"/><use xlink:href="#aL" x="204.05" y="227.366"/><use xlink:href="#bs" x="212.365" y="227.366"/><use xlink:href="#Q" x="220.68" y="227.366"/><use xlink:href="#bt" x="228.995" y="227.366"/><use xlink:href="#bu" x="237.309" y="227.366"/><use xlink:href="#bv" x="245.624" y="227.366"/><use xlink:href="#bg" x="253.939" y="227.366"/><use xlink:href="#ax" x="262.254" y="227.366"/><use xlink:href="#I" x="270.569" y="227.366"/><use xlink:href="#Q" x="272.971" y="227.366"/><use xlink:href="#R" x="281.286" y="227.366"/><use xlink:href="#S" x="289.601" y="227.366"/><use xlink:href="#T" x="297.916" y="227.366"/><use xlink:href="#U" x="306.231" y="227.366"/><use xlink:href="#R" x="314.546" y="227.366"/><use xlink:href="#ay" x="322.86" y="227.366"/><use xlink:href="#az" x="331.175" y="227.366"/><use xlink:href="#bw" x="339.49" y="227.366"/><use xlink:href="#bh" x="347.805" y="227.366"/><use xlink:href="#I" x="356.12" y="227.366"/><use xlink:href="#bx" x="358.522" y="227.366"/><use xlink:href="#aQ" x="366.837" y="227.366"/><use xlink:href="#I" x="375.152" y="227.366"/><use xlink:href="#aD" x="377.554" y="227.366"/><use xlink:href="#by" x="385.869" y="227.366"/><use xlink:href="#aa" x="394.184" y="227.366"/><use xlink:href="#I" x="402.499" y="227.366"/><use xlink:href="#bz" x="404.901" y="227.366"/><use xlink:href="#bA" x="413.216" y="227.366"/><use xlink:href="#bi" x="421.53" y="227.366"/><use xlink:href="#bB" x="429.845" y="227.366"/><use xlink:href="#ai" x="438.16" y="227.366"/><use xlink:href="#I" x="446.475" y="227.366"/><use xlink:href="#bx" x="448.877" y="227.366"/><use xlink:href="#ad" x="457.192" y="227.366"/><use xlink:href="#ae" x="465.507" y="227.366"/><use xlink:href="#I" x="473.822" y="227.366"/><use xlink:href="#bC" x="476.224" y="227.366"/></g><g><use xlink:href="#bD" x="484.539" y="227.366"/><use xlink:href="#aQ" x="492.854" y="227.366"/><use xlink:href="#aR" x="501.169" y="227.366"/><use xlink:href="#aS" x="509.483" y="227.366"/></g><g><use xlink:href="#bE" x="39.637" y="265.319"/><use xlink:href="#B" x="44.894" y="265.319"/><use xlink:href="#C" x="47.721" y="265.319"/><use xlink:href="#D" x="50.123" y="265.319"/><use xlink:href="#E" x="58.438" y="265.319"/><use xlink:href="#C" x="66.753" y="265.319"/><use xlink:href="#bF" x="69.155" y="265.319"/><use xlink:href="#bG" x="77.47" y="265.319"/></g><g><use xlink:href="#H" x="39.637" y="284.296"/><use xlink:href="#I" x="42.381" y="284.296"/><use xlink:href="#M" x="44.783" y="284.296"/><use xlink:href="#N" x="53.098" y="284.296"/><use xlink:href="#O" x="61.413" y="284.296"/><use xlink:href="#P" x="69.728" y="284.296"/><use xlink:href="#I" x="78.042" y="284.296"/><use xlink:href="#Q" x="80.445" y="284.296"/><use xlink:href="#R" x="88.759" y="284.296"/><use xlink:href="#S" x="97.074" y="284.296"/><use xlink:href="#T" x="105.389" y="284.296"/><use xlink:href="#U" x="113.704" y="284.296"/><use xlink:href="#R" x="122.019" y="284.296"/><use xlink:href="#I" x="130.334" y="284.296"/><use xlink:href="#V" x="132.736" y="284.296"/><use xlink:href="#W" x="141.051" y="284.296"/><use xlink:href="#Q" x="149.366" y="284.296"/><use xlink:href="#I" x="157.681" y="284.296"/><use xlink:href="#X" x="160.083" y="284.296"/><use xlink:href="#Y" x="168.398" y="284.296"/><use xlink:href="#I" x="176.712" y="284.296"/><use xlink:href="#Z" x="179.115" y="284.296"/><use xlink:href="#R" x="187.429" y="284.296"/><use xlink:href="#aa" x="195.744" y="284.296"/><use xlink:href="#I" x="204.059" y="284.296"/><use xlink:href="#ab" x="206.461" y="284.296"/><use xlink:href="#ac" x="214.776" y="284.296"/><use xlink:href="#ad" x="223.091" y="284.296"/><use xlink:href="#ae" x="231.406" y="284.296"/><use xlink:href="#I" x="239.721" y="284.296"/><use xlink:href="#af" x="242.123" y="284.296"/><use xlink:href="#ag" x="250.438" y="284.296"/><use xlink:href="#aa" x="258.753" y="284.296"/><use xlink:href="#I" x="267.068" y="284.296"/><use xlink:href="#ah" x="269.47" y="284.296"/><use xlink:href="#ai" x="277.784" y="284.296"/><use xlink:href="#O" x="286.099" y="284.296"/><use xlink:href="#aj" x="294.414" y="284.296"/><use xlink:href="#ak" x="302.729" y="284.296"/><use xlink:href="#I" x="311.044" y="284.296"/><use xlink:href="#al" x="313.446" y="284.296"/><use xlink:href="#am" x="321.761" y="284.296"/><use xlink:href="#aQ" x="330.076" y="284.296"/><use xlink:href="#aR" x="338.391" y="284.296"/><use xlink:href="#aS" x="346.706" y="284.296"/></g><g><use xlink:href="#H" x="39.637" y="303.272"/><use xlink:href="#I" x="42.381" y="303.272"/><use xlink:href="#ao" x="44.783" y="303.272"/><use xlink:href="#ap" x="53.098" y="303.272"/><use xlink:href="#Q" x="61.413" y="303.272"/><use xlink:href="#R" x="69.728" y="303.272"/><use xlink:href="#S" x="78.042" y="303.272"/><use xlink:href="#T" x="86.357" y="303.272"/><use xlink:href="#U" x="94.672" y="303.272"/><use xlink:href="#R" x="102.987" y="303.272"/><use xlink:href="#bH" x="111.302" y="303.272"/><use xlink:href="#bI" x="114.018" y="303.272"/><use xlink:href="#bJ" x="119.765" y="303.272"/><use xlink:href="#bK" x="124.634" y="303.272"/><use xlink:href="#bL" x="128.625" y="303.272"/><use xlink:href="#I" x="133.41" y="303.272"/><use xlink:href="#bl" x="135.812" y="303.272"/></g><g><use xlink:href="#bL" x="141.143" y="303.272"/><use xlink:href="#bK" x="145.929" y="303.272"/><use xlink:href="#bL" x="149.92" y="303.272"/></g><g><use xlink:href="#bJ" x="154.549" y="303.272"/><use xlink:href="#bM" x="159.417" y="303.272"/></g><g><use xlink:href="#bN" x="162.448" y="303.272"/><use xlink:href="#bO" x="166.873" y="303.272"/><use xlink:href="#bP" x="172.13" y="303.272"/><use xlink:href="#I" x="174.846" y="303.272"/><use xlink:href="#V" x="177.248" y="303.272"/><use xlink:href="#W" x="185.563" y="303.272"/><use xlink:href="#Q" x="193.878" y="303.272"/><use xlink:href="#I" x="202.193" y="303.272"/><use xlink:href="#bu" x="204.595" y="303.272"/><use xlink:href="#bQ" x="212.91" y="303.272"/><use xlink:href="#R" x="215.044" y="303.272"/><use xlink:href="#bQ" x="223.359" y="303.272"/><use xlink:href="#ay" x="225.493" y="303.272"/><use xlink:href="#I" x="233.808" y="303.272"/><use xlink:href="#bR" x="236.21" y="303.272"/><use xlink:href="#bS" x="244.525" y="303.272"/><use xlink:href="#bT" x="252.84" y="303.272"/><use xlink:href="#bU" x="261.155" y="303.272"/><use xlink:href="#I" x="269.47" y="303.272"/><use xlink:href="#bV" x="271.872" y="303.272"/><use xlink:href="#bW" x="280.187" y="303.272"/><use xlink:href="#bX" x="288.501" y="303.272"/><use xlink:href="#bh" x="296.816" y="303.272"/><use xlink:href="#I" x="305.131" y="303.272"/><use xlink:href="#bY" x="307.533" y="303.272"/><use xlink:href="#X" x="315.848" y="303.272"/><use xlink:href="#an" x="324.163" y="303.272"/></g><g><use xlink:href="#bZ" x="45.3" y="322.249"/><use xlink:href="#bP" x="50.058" y="322.249"/><use xlink:href="#I" x="52.774" y="322.249"/><use xlink:href="#bl" x="55.176" y="322.249"/><use xlink:href="#bm" x="60.609" y="322.249"/><use xlink:href="#bn" x="66.383" y="322.249"/><use xlink:href="#I" x="72.407" y="322.249"/><use xlink:href="#V" x="74.809" y="322.249"/><use xlink:href="#W" x="83.124" y="322.249"/><use xlink:href="#Q" x="91.439" y="322.249"/><use xlink:href="#I" x="99.754" y="322.249"/><use xlink:href="#aK" x="102.156" y="322.249"/><use xlink:href="#aL" x="110.47" y="322.249"/><use xlink:href="#aM" x="118.785" y="322.249"/><use xlink:href="#aI" x="127.1" y="322.249"/><use xlink:href="#bh" x="135.415" y="322.249"/><use xlink:href="#I" x="143.73" y="322.249"/><use xlink:href="#aD" x="146.132" y="322.249"/><use xlink:href="#at" x="154.447" y="322.249"/><use xlink:href="#an" x="162.762" y="322.249"/></g><g><use xlink:href="#ca" x="45.3" y="341.225"/><use xlink:href="#bP" x="50.058" y="341.225"/><use xlink:href="#I" x="52.774" y="341.225"/><use xlink:href="#cb" x="55.176" y="341.225"/><use xlink:href="#cc" x="63.491" y="341.225"/><use xlink:href="#cd" x="71.806" y="341.225"/><use xlink:href="#I" x="80.121" y="341.225"/><use xlink:href="#ce" x="82.523" y="341.225"/><use xlink:href="#bL" x="88.87" y="341.225"/><use xlink:href="#bL" x="93.656" y="341.225"/><use xlink:href="#cf" x="98.442" y="341.225"/><use xlink:href="#bK" x="103.846" y="341.225"/><use xlink:href="#I" x="107.837" y="341.225"/><use xlink:href="#cg" x="110.24" y="341.225"/><use xlink:href="#ch" x="118.554" y="341.225"/><use xlink:href="#aa" x="126.869" y="341.225"/><use xlink:href="#I" x="135.184" y="341.225"/><use xlink:href="#bY" x="137.586" y="341.225"/><use xlink:href="#aQ" x="145.901" y="341.225"/><use xlink:href="#I" x="154.216" y="341.225"/><use xlink:href="#ay" x="156.618" y="341.225"/><use xlink:href="#az" x="164.933" y="341.225"/><use xlink:href="#I" x="173.248" y="341.225"/><use xlink:href="#aZ" x="175.65" y="341.225"/><use xlink:href="#ch" x="183.965" y="341.225"/><use xlink:href="#aa" x="192.28" y="341.225"/><use xlink:href="#I" x="200.595" y="341.225"/><use xlink:href="#ci" x="202.997" y="341.225"/><use xlink:href="#cj" x="211.312" y="341.225"/><use xlink:href="#bX" x="219.626" y="341.225"/><use xlink:href="#ad" x="227.941" y="341.225"/><use xlink:href="#ae" x="236.256" y="341.225"/></g><g><use xlink:href="#ck" x="45.3" y="360.201"/><use xlink:href="#bP" x="50.058" y="360.201"/><use xlink:href="#I" x="52.774" y="360.201"/><use xlink:href="#M" x="55.176" y="360.201"/><use xlink:href="#cl" x="63.491" y="360.201"/><use xlink:href="#Q" x="71.806" y="360.201"/><use xlink:href="#I" x="80.121" y="360.201"/><use xlink:href="#ay" x="82.523" y="360.201"/><use xlink:href="#az" x="90.838" y="360.201"/><use xlink:href="#cm" x="99.153" y="360.201"/><use xlink:href="#cn" x="107.468" y="360.201"/><use xlink:href="#aa" x="115.783" y="360.201"/><use xlink:href="#I" x="124.098" y="360.201"/><use xlink:href="#ba" x="126.5" y="360.201"/><use xlink:href="#co" x="134.815" y="360.201"/><use xlink:href="#O" x="143.13" y="360.201"/><use xlink:href="#aj" x="151.444" y="360.201"/><use xlink:href="#ak" x="159.759" y="360.201"/><use xlink:href="#I" x="168.074" y="360.201"/><use xlink:href="#bv" x="170.476" y="360.201"/><use xlink:href="#cp" x="178.791" y="360.201"/><use xlink:href="#cq" x="187.106" y="360.201"/><use xlink:href="#aL" x="195.421" y="360.201"/><use xlink:href="#cr" x="203.736" y="360.201"/><use xlink:href="#bi" x="212.051" y="360.201"/><use xlink:href="#cs" x="220.366" y="360.201"/><use xlink:href="#I" x="228.68" y="360.201"/><use xlink:href="#aR" x="231.083" y="360.201"/><use xlink:href="#ct" x="239.397" y="360.201"/><use xlink:href="#aQ" x="247.712" y="360.201"/><use xlink:href="#I" x="256.027" y="360.201"/><use xlink:href="#cu" x="258.429" y="360.201"/><use xlink:href="#bv" x="266.744" y="360.201"/><use xlink:href="#I" x="275.059" y="360.201"/><use xlink:href="#cv" x="277.461" y="360.201"/><use xlink:href="#cw" x="285.776" y="360.201"/><use xlink:href="#aa" x="294.091" y="360.201"/><use xlink:href="#I" x="302.406" y="360.201"/><use xlink:href="#az" x="304.808" y="360.201"/><use xlink:href="#cx" x="313.123" y="360.201"/><use xlink:href="#aQ" x="321.438" y="360.201"/><use xlink:href="#aR" x="329.753" y="360.201"/></g><g><use xlink:href="#cy" x="39.637" y="398.533"/><use xlink:href="#B" x="44.894" y="398.533"/><use xlink:href="#C" x="47.721" y="398.533"/><use xlink:href="#cz" x="50.123" y="398.533"/><use xlink:href="#cA" x="58.438" y="398.533"/><use xlink:href="#C" x="66.753" y="398.533"/><use xlink:href="#cB" x="69.155" y="398.533"/><use xlink:href="#cC" x="77.47" y="398.533"/></g><g><use xlink:href="#H" x="39.637" y="418.138"/><use xlink:href="#I" x="42.381" y="418.138"/><use xlink:href="#M" x="44.783" y="418.138"/><use xlink:href="#cl" x="53.098" y="418.138"/><use xlink:href="#I" x="61.413" y="418.138"/><use xlink:href="#cD" x="63.815" y="418.138"/><use xlink:href="#J" x="72.13" y="418.138"/><use xlink:href="#I" x="80.445" y="418.138"/><use xlink:href="#ay" x="82.847" y="418.138"/><use xlink:href="#az" x="91.161" y="418.138"/><use xlink:href="#ai" x="99.476" y="418.138"/><use xlink:href="#cE" x="107.791" y="418.138"/><use xlink:href="#I" x="116.106" y="418.138"/><use xlink:href="#cD" x="118.508" y="418.138"/><use xlink:href="#cF" x="126.823" y="418.138"/><use xlink:href="#Q" x="135.138" y="418.138"/><use xlink:href="#I" x="143.453" y="418.138"/><use xlink:href="#cl" x="145.855" y="418.138"/><use xlink:href="#M" x="154.17" y="418.138"/><use xlink:href="#P" x="162.485" y="418.138"/><use xlink:href="#I" x="170.8" y="418.138"/><use xlink:href="#ba" x="173.202" y="418.138"/><use xlink:href="#cG" x="181.517" y="418.138"/><use xlink:href="#cH" x="189.831" y="418.138"/></g><g><use xlink:href="#H" x="39.637" y="437.114"/><use xlink:href="#I" x="42.381" y="437.114"/><use xlink:href="#M" x="44.783" y="437.114"/><use xlink:href="#cl" x="53.098" y="437.114"/><use xlink:href="#I" x="61.413" y="437.114"/><use xlink:href="#cj" x="63.815" y="437.114"/><use xlink:href="#R" x="72.13" y="437.114"/><use xlink:href="#I" x="80.445" y="437.114"/><use xlink:href="#cI" x="82.847" y="437.114"/><use xlink:href="#cJ" x="91.161" y="437.114"/><use xlink:href="#bH" x="99.476" y="437.114"/><use xlink:href="#ba" x="102.193" y="437.114"/><use xlink:href="#cK" x="110.507" y="437.114"/><use xlink:href="#an" x="118.822" y="437.114"/><use xlink:href="#I" x="120.956" y="437.114"/><use xlink:href="#bp" x="123.359" y="437.114"/><use xlink:href="#ba" x="131.673" y="437.114"/><use xlink:href="#cK" x="139.988" y="437.114"/><use xlink:href="#bP" x="148.303" y="437.114"/><use xlink:href="#I" x="151.019" y="437.114"/><use xlink:href="#cL" x="153.422" y="437.114"/><use xlink:href="#I" x="161.736" y="437.114"/><use xlink:href="#bk" x="164.138" y="437.114"/><use xlink:href="#cM" x="172.453" y="437.114"/><use xlink:href="#I" x="180.768" y="437.114"/><use xlink:href="#ay" x="183.17" y="437.114"/><use xlink:href="#az" x="191.485" y="437.114"/><use xlink:href="#cD" x="199.8" y="437.114"/><use xlink:href="#I" x="208.115" y="437.114"/><use xlink:href="#ay" x="210.517" y="437.114"/><use xlink:href="#az" x="218.832" y="437.114"/><use xlink:href="#cJ" x="227.147" y="437.114"/><use xlink:href="#I" x="235.462" y="437.114"/></g><g><use xlink:href="#H" x="39.637" y="456.091"/><use xlink:href="#I" x="42.381" y="456.091"/><use xlink:href="#ai" x="44.783" y="456.091"/><use xlink:href="#bv" x="53.098" y="456.091"/><use xlink:href="#I" x="61.413" y="456.091"/><use xlink:href="#bk" x="63.815" y="456.091"/><use xlink:href="#cM" x="72.13" y="456.091"/><use xlink:href="#ay" x="80.445" y="456.091"/><use xlink:href="#az" x="88.759" y="456.091"/><use xlink:href="#cD" x="97.074" y="456.091"/><use xlink:href="#bH" x="105.389" y="456.091"/><use xlink:href="#ay" x="108.105" y="456.091"/><use xlink:href="#az" x="116.42" y="456.091"/><use xlink:href="#al" x="124.735" y="456.091"/><use xlink:href="#aU" x="133.05" y="456.091"/><use xlink:href="#I" x="141.365" y="456.091"/><use xlink:href="#ba" x="143.767" y="456.091"/><use xlink:href="#cN" x="152.082" y="456.091"/><use xlink:href="#bk" x="160.397" y="456.091"/><use xlink:href="#bo" x="168.712" y="456.091"/><use xlink:href="#I" x="177.027" y="456.091"/><use xlink:href="#af" x="179.429" y="456.091"/><use xlink:href="#aF" x="187.744" y="456.091"/><use xlink:href="#bP" x="196.058" y="456.091"/><use xlink:href="#I" x="198.775" y="456.091"/><use xlink:href="#ay" x="201.177" y="456.091"/><use xlink:href="#az" x="209.492" y="456.091"/><use xlink:href="#cJ" x="217.806" y="456.091"/></g><g><use xlink:href="#cO" x="51.198" y="56.793"/><use xlink:href="#cP" x="55.695" y="56.793"/><use xlink:href="#cQ" x="65.411" y="56.793"/><use xlink:href="#cR" x="71.199" y="56.793"/><use xlink:href="#cS" x="80.707" y="56.793"/><use xlink:href="#cT" x="84.711" y="56.793"/><use xlink:href="#cU" x="89.645" y="56.793"/><use xlink:href="#cV" x="106.724" y="56.793"/><use xlink:href="#cW" x="123.803" y="56.793"/><use xlink:href="#cX" x="140.882" y="56.793"/><use xlink:href="#cY" x="157.962" y="56.793"/><use xlink:href="#cZ" x="175.041" y="56.793"/><use xlink:href="#da" x="192.12" y="56.793"/><use xlink:href="#cX" x="209.199" y="56.793"/><use xlink:href="#cT" x="226.279" y="56.793"/><use xlink:href="#db" x="231.213" y="56.793"/><use xlink:href="#dc" x="248.292" y="56.793"/><use xlink:href="#cT" x="265.371" y="56.793"/><use xlink:href="#dd" x="270.305" y="56.793"/><use xlink:href="#de" x="287.384" y="56.793"/><use xlink:href="#cT" x="304.463" y="56.793"/><use xlink:href="#df" x="309.397" y="56.793"/><use xlink:href="#dg" x="326.477" y="56.793"/></g></svg>