<svg xmlns="http://www.w3.org/2000/svg" xmlns:xlink="http://www.w3.org/1999/xlink" width="793.701" height="1122.52" viewBox="0 0 595.276 841.89" version="1.2"><defs><symbol overflow="visible" id="a"><path d="M2.75-5.469l.578.438-1.25 1.718c.059-.007.113-.015.156-.015.051-.008.094-.016.125-.016.426 0 .797.168 1.11.5.308.324.469.715.469 1.172 0 .48-.176.895-.516 1.234a1.704 1.704 0 0 1-1.25.516c-.48 0-.899-.164-1.25-.5C.566-.762.39-1.164.39-1.625c0-.414.171-.86.515-1.328zm.406 3.844a.976.976 0 0 0-.281-.703.998.998 0 0 0-.719-.297.963.963 0 0 0-.703.297.908.908 0 0 0-.297.687.97.97 0 0 0 .297.72.98.98 0 0 0 .703.28.93.93 0 0 0 .703-.296.91.91 0 0 0 .297-.688zm0 0"/></symbol><symbol overflow="visible" id="b"><path d="M2.969-4.531H.359v-.75h3.938L.969.187l-.64-.406zm0 0"/></symbol><symbol overflow="visible" id="c"><path d="M1.797-4h1.14v-.188H.422V-4h1.187v.688c0 1.124-.53 2-1.265 2.374l.14.157c.594-.328 1.047-.953 1.22-1.813.187.75.624 1.328 1.171 1.64l.14-.155c-.703-.36-1.218-1.204-1.218-2.204zm2.797-.89v2.234h-.969V-4.75h-.203V.11h.203v-2.563h.969v2.86h.203v-5.298zm0 0"/></symbol><symbol overflow="visible" id="d"><path d="M3.484-2.438c-.78.157-1.437.188-2.453.188H.844v-1.969h2.11v-.187H.64v2.343h.39c1.032 0 1.688-.046 2.5-.203zM1.422-1.421h-.203V.266h3.468V.078H1.422zm2.984-1.766v-1.718h-.203v3.843h.203v-1.953h.875v-.171zm0 0"/></symbol><symbol overflow="visible" id="e"><path d="M4.422.14h-2.86v-.859h2.86zm0-1.046h-2.86v-.813h-.187V.313h3.25V-1.72h-.203zM2.734-2.437H.86v-1.047h1.875zm1.704-2.454V-3.5H2.921v-1.11h-.188v.954H.86v-.953H.656v2.359h2.266v-1.063h1.515v1.297h.188V-4.89zm0 0"/></symbol><symbol overflow="visible" id="f"><path d="M4.625-4.89h-.188v3.937h.188zM.703-3.235c0-.594.485-1.079 1.14-1.079.641 0 1.126.485 1.126 1.079 0 .609-.485 1.093-1.125 1.093-.657 0-1.14-.484-1.14-1.093zm2.453 0c0-.735-.547-1.266-1.312-1.266-.782 0-1.328.531-1.328 1.266 0 .75.546 1.265 1.328 1.265.765 0 1.312-.515 1.312-1.265zM1.546.078v-1.453H1.36v1.64h3.47V.079zm0 0"/></symbol><symbol overflow="visible" id="h"><path d="M.703-4.328V-1h2.313v-3.328zm2.125.172v2.984H.891v-2.984zm1.594-.735V.406h.203V-4.89zm0 0"/></symbol><symbol overflow="visible" id="i"><path d="M.75-1.14v-1.454H2.5v-1.672H.547v.188h1.765v1.297H.563V-.97h.329c.671 0 1.28-.031 2.078-.172l-.016-.171c-.781.14-1.406.171-2.062.171zm3.844-3.75v2.171H3.578V-4.75h-.203V.11h.203v-2.641h1.016V.406h.203V-4.89zm0 0"/></symbol><symbol overflow="visible" id="j"><path d="M2.094-4.469c-.828 0-1.39.469-1.39 1.188 0 .703.562 1.187 1.39 1.187.812 0 1.375-.484 1.375-1.187 0-.719-.563-1.188-1.375-1.188zm0 .172c.687 0 1.172.438 1.172 1.016 0 .562-.485 1-1.172 1-.703 0-1.188-.438-1.188-1 0-.578.485-1.016 1.188-1.016zm2.265-.594V.406h.204V-4.89zM.438-.844c.968 0 2.312 0 3.546-.234l-.03-.156c-1.188.203-2.563.203-3.563.203zm0 0"/></symbol><symbol overflow="visible" id="k"><path d="M3.516-4.234h-1.47v-.688H1.86v.688H.391v.171h3.125zm-2.61 1.5c0-.454.406-.766 1.047-.766.625 0 1.047.313 1.047.766 0 .437-.422.75-1.047.75-.64 0-1.047-.313-1.047-.75zm2.281 0c0-.579-.5-.938-1.234-.938-.75 0-1.234.36-1.234.938 0 .562.484.921 1.234.921.734 0 1.234-.359 1.234-.921zM1.063-1.063h3.14v1.47h.203v-1.641H1.063zm4.203-2.28h-.86v-1.548h-.203v3.297h.203v-1.562h.86zm0 0"/></symbol><symbol overflow="visible" id="l"><path d="M.64-3.25c0-.61.485-1.094 1.141-1.094.657 0 1.14.485 1.14 1.094 0 .61-.483 1.11-1.14 1.11-.656 0-1.14-.5-1.14-1.11zm3.797-.547v1.078H3a1.2 1.2 0 0 0 .11-.531A1.55 1.55 0 0 0 3-3.797zm0 1.25v1.61h.188v-3.954h-.188v.922H2.891c-.22-.344-.625-.562-1.11-.562-.765 0-1.328.515-1.328 1.281 0 .766.563 1.281 1.328 1.281.5 0 .907-.218 1.125-.578zM1.563.078v-1.437h-.187V.266h3.438V.078zm0 0"/></symbol><symbol overflow="visible" id="m"><path d="M5.14-2.219h-.874c.171-.781.171-1.344.171-1.844v-.453H1.017v.188h3.218v.266c0 .5 0 1.062-.171 1.843H.358v.172h2.297V.406h.188v-2.453H5.14zm0 0"/></symbol><symbol overflow="visible" id="o"><path d="M.719-1.953c.625-.219 1.187-.688 1.406-1.313.234.594.781 1.032 1.422 1.25l.14-.25c-.75-.234-1.406-.843-1.406-1.609v-.031H3.61v-.266H2.281v-.703H1.97v.703H.672v.266h1.297v.031c0 .797-.657 1.422-1.407 1.672zm1.562-.188H1.97v1.094C1.39-1.03.844-1.03.375-1.03l.047.281c.969 0 2.297 0 3.515-.219l-.015-.25c-.531.094-1.094.125-1.64.157zm2.016-2.765V.422h.312v-5.328zm0 0"/></symbol><symbol overflow="visible" id="p"><path d="M4.672-4.906h-.313v3.922h.313zM3.516-2.141c-.75-.296-1.391-1.046-1.391-1.921v-.547h-.313v.546c0 .907-.625 1.704-1.375 2.016l.188.266c.61-.282 1.14-.86 1.344-1.578a2.462 2.462 0 0 0 1.375 1.468zM1.64.016v-1.36h-.313V.281H4.86V.016zm0 0"/></symbol><symbol overflow="visible" id="q"><path d="M2.75.156c-.906 0-1.5-.265-1.5-.703 0-.422.594-.687 1.5-.687s1.484.265 1.484.687c0 .438-.578.703-1.484.703zm0-1.64c-1.125 0-1.813.343-1.813.937 0 .625.688.953 1.813.953S4.563.078 4.563-.547c0-.594-.688-.937-1.813-.937zm.14-.735v-.703h1.688v-.281H1.266v-1.188h3.28v-.265H.954v1.734h1.64v.703H.344v.281h4.813v-.28zm0 0"/></symbol><symbol overflow="visible" id="r"><path d="M3.516-4.25H2.094v-.719H1.78v.719H.36v.266h3.157zM.984-2.734c0-.391.391-.672.954-.672.578 0 .953.281.953.672 0 .406-.375.687-.954.687-.562 0-.953-.281-.953-.687zm2.204 0c0-.579-.5-.922-1.25-.922-.766 0-1.266.344-1.266.922 0 .578.5.937 1.265.937.75 0 1.25-.36 1.25-.937zM2.796.14c-.844 0-1.39-.235-1.39-.641s.546-.64 1.39-.64c.844 0 1.39.234 1.39.64s-.546.64-1.39.64zm0-1.547c-1.063 0-1.703.328-1.703.906 0 .578.64.906 1.703.906C3.859.406 4.5.078 4.5-.5c0-.578-.64-.906-1.703-.906zM5.28-3.625v-.266h-.828v-1.015h-.328v3.453h.328V-2.5h.828v-.266h-.828v-.859zm0 0"/></symbol><symbol overflow="visible" id="s"><path d="M1.266-3.203H4.25v1.11H1.266zm1.64 2.64v-1.25h1.656v-2.703H4.25v1.032H1.266v-1.032H.937v2.704h1.657v1.25H.344v.265h4.828v-.266zm0 0"/></symbol><symbol overflow="visible" id="t"><path d="M4.188-3.781c0 .64 0 1.36-.188 2.36l.328.046c.188-1.047.188-1.766.188-2.406v-.531H.859v.25h3.329zM2.625-.671V-2.61h-.313v1.937H.345v.281h4.812v-.28zm0 0"/></symbol><symbol overflow="visible" id="u"><path d="M2.125-4.422h-.328v1.063c0 .984-.719 1.984-1.422 2.375l.203.25c.578-.344 1.156-1.079 1.39-1.907.22.797.813 1.485 1.407 1.813l.188-.266c-.704-.36-1.438-1.312-1.438-2.265zm2.234-.484v1.89H2.984v.266H4.36V.422h.329v-5.328zm0 0"/></symbol><symbol overflow="visible" id="v"><path d="M1.453 0h.406l1.422-4.375h-.375l-.781 2.516c-.156.53-.281.937-.453 1.468H1.64c-.172-.53-.282-.937-.454-1.468l-.78-2.516H.03zm0 0"/></symbol><symbol overflow="visible" id="w"><path d="M1.781.078c.782 0 1.453-.61 1.453-1.672 0-1.062-.671-1.687-1.453-1.687-.765 0-1.437.625-1.437 1.687C.344-.53 1.016.078 1.78.078zm0-.297C1.156-.219.703-.78.703-1.594c0-.812.453-1.375 1.078-1.375s1.094.563 1.094 1.375c0 .813-.469 1.375-1.094 1.375zm0 0"/></symbol><symbol overflow="visible" id="x"><path d="M1.031.078c.11 0 .172-.015.235-.031l-.063-.281c-.062.015-.094.015-.11.015-.077 0-.14-.062-.14-.218v-4.329h-.36v4.297c0 .36.141.547.438.547zm0 0"/></symbol><symbol overflow="visible" id="y"><path d="M.75-.156c.156 0 .313-.11.313-.313A.317.317 0 0 0 .75-.797a.317.317 0 0 0-.313.328c0 .203.157.313.313.313zm0 0"/></symbol><symbol overflow="visible" id="z"><path d="M.547 0h2.265v-.313h-.921v-4.062h-.282c-.203.125-.468.219-.828.281v.235h.766v3.546h-1zm0 0"/></symbol><symbol overflow="visible" id="A"><path d="M.36 0h3.5v-.422H2.046c-.297 0-.64.031-.953.047C2.64-1.813 3.578-3.031 3.578-4.25c0-1.016-.594-1.672-1.61-1.672-.702 0-1.187.344-1.64.828l.297.282c.344-.407.797-.72 1.297-.72.828 0 1.187.563 1.187 1.298 0 1.046-.78 2.25-2.75 3.953zm0 0"/></symbol><symbol overflow="visible" id="B"><path d="M.734 0h3v-.406H2.516v-5.422H2.14c-.266.172-.625.297-1.11.375v.312h1.016v4.735H.734zm0 0"/></symbol><symbol overflow="visible" id="C"><path d="M1-.203a.407.407 0 0 0 .406-.422c0-.281-.203-.438-.406-.438-.219 0-.406.157-.406.438 0 .266.187.422.406.422zm0 0"/></symbol><symbol overflow="visible" id="D"><path d="M2.14.11c1.047 0 1.704-1 1.704-3.047 0-2.016-.656-2.985-1.703-2.985-1.063 0-1.72.969-1.72 2.984C.422-.89 1.079.11 2.142.11zm0-.391c-.765 0-1.25-.89-1.25-2.656 0-1.72.485-2.594 1.25-2.594.75 0 1.25.875 1.25 2.593 0 1.766-.5 2.657-1.25 2.657zm0 0"/></symbol><symbol overflow="visible" id="E"><path d="M2.156.11c1.047 0 1.75-.657 1.75-1.485 0-.797-.5-1.219-.984-1.516v-.046c.312-.25.797-.813.797-1.438 0-.875-.578-1.531-1.547-1.531-.844 0-1.5.593-1.5 1.437 0 .625.375 1.047.797 1.328v.032c-.532.296-1.11.859-1.11 1.671C.36-.563 1.125.11 2.156.11zm.422-3.172c-.734-.282-1.453-.61-1.453-1.407 0-.61.438-1.062 1.031-1.062.719 0 1.125.547 1.125 1.172 0 .484-.25.921-.703 1.296zM2.156-.267c-.781 0-1.36-.53-1.36-1.203 0-.625.407-1.14.954-1.468.875.343 1.688.671 1.688 1.562 0 .61-.5 1.11-1.282 1.11zm0 0"/></symbol><symbol overflow="visible" id="G"><path d="M.844 2.219h.344v-8.86H.844zm0 0"/></symbol><symbol overflow="visible" id="H"><path d="M2.422-5.281h1.422v-.36H.547v.36h1.469v.828c0 1.344-.672 2.656-1.625 3.219l.28.312c.735-.453 1.313-1.36 1.563-2.406.235.969.797 1.797 1.516 2.25l.266-.328c-.938-.532-1.594-1.797-1.594-3.047zm2.172 1.36H3.28v.374h1.313V.172H5v-6.516h-.406zm1.422-2.61V.562h.421V-6.53zm0 0"/></symbol><symbol overflow="visible" id="I"><path d="M2.063.11c.984 0 1.75-.641 1.75-1.657 0-.812-.579-1.344-1.282-1.5v-.031c.625-.219 1.078-.688 1.078-1.438 0-.906-.671-1.406-1.578-1.421-.656.015-1.156.312-1.547.687l.266.328c.313-.344.781-.61 1.281-.625.672.016 1.094.422 1.094 1.063 0 .687-.438 1.25-1.719 1.25v.39c1.39 0 1.938.516 1.938 1.297 0 .75-.547 1.25-1.297 1.25C1.297-.297.844-.64.516-1L.25-.687c.36.39.906.796 1.813.796zm0 0"/></symbol><symbol overflow="visible" id="J"><path d="M4.984-5.61H3.031v-.937H2.61v.938H.656v.343h4.328zM1.563-3.468c0-.578.5-.969 1.25-.969s1.28.391 1.28.97c0 .546-.53.952-1.28.952s-1.25-.406-1.25-.953zm1.484 1.281c.875-.078 1.437-.546 1.437-1.28 0-.798-.671-1.313-1.671-1.313-.985 0-1.657.515-1.657 1.312 0 .735.563 1.219 1.453 1.281v.876c-.75.03-1.468.046-2.109.046l.063.36c1.343 0 3.093-.016 4.687-.281L5.219-1.5c-.688.094-1.438.14-2.172.172zM5.719-6.53V.547h.422v-7.078zm0 0"/></symbol><symbol overflow="visible" id="K"><path d="M5.781-6.531V.562h.422V-6.53zm-3.265.578C1.484-5.953.75-5 .75-3.516c0 1.485.734 2.438 1.766 2.438 1.03 0 1.75-.953 1.75-2.438 0-1.484-.72-2.437-1.75-2.437zm0 .375c.796 0 1.343.844 1.343 2.062 0 1.204-.546 2.063-1.343 2.063-.797 0-1.36-.86-1.36-2.063 0-1.218.563-2.062 1.36-2.062zm0 0"/></symbol><symbol overflow="visible" id="L"><path d="M2.688-5.89H2.28v1.421c0 1.282-.969 2.64-1.89 3.14l.25.345c.78-.438 1.546-1.407 1.843-2.5.313 1.03 1.079 1.921 1.844 2.343l.266-.328c-.922-.484-1.907-1.765-1.907-3zm4.406 2.312h-1.25v-2.969h-.422v7.11h.422V-3.22h1.25zm0 0"/></symbol><symbol overflow="visible" id="M"><path d="M2.344-.281C1.469-.281 1-1.11.938-2.375c.437-.61.953-.828 1.328-.828.828 0 1.187.594 1.187 1.453 0 .844-.469 1.469-1.11 1.469zM3.797-5.36a1.548 1.548 0 0 0-1.235-.563C1.47-5.922.47-5.094.47-2.75c0 1.86.75 2.86 1.875 2.86.844 0 1.562-.766 1.562-1.86 0-1.203-.578-1.828-1.578-1.828-.5 0-1.015.281-1.406.75.031-2 .765-2.703 1.656-2.703.36 0 .703.172.938.468zm0 0"/></symbol><symbol overflow="visible" id="N"><path d="M2.438-5.266h1.437v-.359H.547v.36h1.5v.765c0 1.469-.656 2.656-1.64 3.203l.28.328c.782-.453 1.329-1.265 1.579-2.344.234.954.78 1.688 1.5 2.094l.265-.328c-.968-.5-1.593-1.625-1.593-2.953zM6.03-6.53v2.937H4.875v-2.765h-.406V.17h.406v-3.39h1.156V.562h.407V-6.53zm0 0"/></symbol><symbol overflow="visible" id="O"><path d="M4.625-3.328c-1.016.203-1.875.25-3.281.25h-.11v-2.469h2.688v-.36H.812v3.204h.532c1.437 0 2.297-.063 3.328-.266zm-2.61 1.437h-.421V.391h4.672V.03h-4.25zm3.907-2.437v-2.219H5.5v5.156h.422v-2.578h1.11v-.36zm0 0"/></symbol><symbol overflow="visible" id="P"><path d="M5.797.094H2.219V-.953h3.578zm0-1.39H2.219v-1H1.78v2.75H6.22v-2.75h-.422zM3.53-3.329H1.266v-1.297H3.53zm2.266-3.219v1.828h-1.86v-1.453h-.406v1.203H1.266v-1.203H.844v3.203h3.094v-1.39h1.859v1.703h.437v-3.89zm0 0"/></symbol><symbol overflow="visible" id="Q"><path d="M6.219-6.516h-.422v5.22h.422zm-5.157 2.22c0-.766.594-1.345 1.391-1.345.781 0 1.39.579 1.39 1.344 0 .766-.609 1.344-1.39 1.344-.797 0-1.39-.578-1.39-1.344zm3.188 0c0-1.016-.766-1.72-1.797-1.72-1.047 0-1.797.704-1.797 1.72 0 1 .75 1.718 1.797 1.718 1.031 0 1.797-.719 1.797-1.719zM2.187.03v-1.875h-.421V.391h4.687V.03zm0 0"/></symbol><symbol overflow="visible" id="R"><path d="M.89-5.797v4.516h3.172v-4.516zm2.766.344v3.812h-2.36v-3.812zm2.125-1.078V.562h.422V-6.53zm0 0"/></symbol><symbol overflow="visible" id="S"><path d="M1.125-1.578v-1.813h2.203v-2.328H.688v.36h2.234v1.609H.703v2.531h.453c.89 0 1.703-.031 2.75-.218l-.047-.36c-1.015.188-1.828.219-2.703.219zm4.89-4.969v2.89H4.798v-2.702H4.39V.17h.406v-3.468h1.219v3.86h.421v-7.11zm0 0"/></symbol><symbol overflow="visible" id="T"><path d="M2.766-5.984c-1.11 0-1.875.656-1.875 1.609 0 .969.765 1.625 1.875 1.625 1.093 0 1.859-.656 1.859-1.625 0-.953-.766-1.61-1.86-1.61zm0 .359c.843 0 1.453.531 1.453 1.25 0 .734-.61 1.266-1.453 1.266-.844 0-1.47-.532-1.47-1.266 0-.719.626-1.25 1.47-1.25zm2.953-.906V.562h.422V-6.53zM.562-1.063c1.297 0 3.063 0 4.688-.296l-.031-.329c-1.578.25-3.39.25-4.719.25zm0 0"/></symbol><symbol overflow="visible" id="U"><path d="M4.672-5.703H2.797v-.875h-.422v.875H.485v.344h4.187zM1.297-3.641c0-.546.531-.921 1.281-.921.766 0 1.266.375 1.266.921 0 .547-.5.922-1.266.922-.75 0-1.281-.375-1.281-.922zm2.953 0c0-.78-.672-1.25-1.672-1.25-1 0-1.672.47-1.672 1.25 0 .782.672 1.266 1.672 1.266 1 0 1.672-.484 1.672-1.266zM1.375-1.312H5.5V.546h.422v-2.219H1.375zM7.031-4.5h-1.11v-2.047H5.5v4.438h.422v-2.032h1.11zm0 0"/></symbol><symbol overflow="visible" id="V"><path d="M.984-4.328c0-.766.594-1.36 1.391-1.36s1.39.594 1.39 1.36c0 .781-.593 1.375-1.39 1.375-.797 0-1.39-.594-1.39-1.375zM5.797-5v1.328H4.063c.062-.187.109-.422.109-.656 0-.234-.047-.469-.125-.672zm0 1.688v2.046h.437V-6.53h-.437v1.172H3.859a1.862 1.862 0 0 0-1.484-.704c-1.047 0-1.797.72-1.797 1.735 0 1.031.75 1.734 1.797 1.734.64 0 1.172-.265 1.484-.719zM2.219.03v-1.843h-.422V.39h4.64V.03zm0 0"/></symbol><symbol overflow="visible" id="W"><path d="M6.86-2.984H5.75c.203-1.047.203-1.797.203-2.454v-.609H1.297v.36h4.25v.25c0 .656 0 1.421-.234 2.453H.452v.359h2.985V.563h.421v-3.188h3zm0 0"/></symbol><symbol overflow="visible" id="X"><path d="M2.016.11c.937 0 1.828-.72 1.828-1.985 0-1.281-.766-1.86-1.735-1.86-.39 0-.687.11-.968.282l.171-1.953h2.235v-.422H.89L.687-3.156 1-2.984c.328-.22.61-.36 1.031-.36.813 0 1.328.563 1.328 1.485C3.36-.906 2.734-.297 2-.297 1.25-.297.812-.625.484-.984L.22-.656c.375.375.906.765 1.797.765zm0 0"/></symbol><symbol overflow="visible" id="Y"><path d="M6.89-3.234v-.36H5.814C6-4.484 6-5.156 6-5.688v-.5H1.281v.36h4.313v.14c0 .532 0 1.188-.219 2.094H.453v.36h3v1.484H1.141v.36h4.515V.561h.422V-1.75H3.875v-1.484zm0 0"/></symbol><symbol overflow="visible" id="Z"><path d="M2.656-5.438h1.969v2.5H2.656zM3.86-.734v-1.844h2.375v-.36H5.047v-2.5h1.187v-.359H1.047v.36H2.25v2.5H1.062v.359h2.375v1.844H.454v.359h6.438v-.36zm0 0"/></symbol><symbol overflow="visible" id="aa"><path d="M4.484-3.297c-1.14.188-2.062.235-3.203.235h-.093v-1.25h2.671v-1.844H.75v.36h2.688v1.14H.765v1.953h.515c1.157 0 2.078-.047 3.25-.235zM2.078-1.578h3.735V.094H2.078zM1.672.453h4.562v-2.39H1.672zm4.125-6.969v1.641H4.344v.36h1.453v2.156h.437v-4.157zm0 0"/></symbol></defs><g fill="#898989"><use xlink:href="#a" x="557.993" y="819.169"/><use xlink:href="#b" x="561.923" y="819.169"/></g><g fill="#595757"><use xlink:href="#c" x="39.637" y="818.993"/><use xlink:href="#d" x="45.03" y="818.993"/><use xlink:href="#e" x="50.424" y="818.993"/><use xlink:href="#f" x="55.817" y="818.993"/><use xlink:href="#g" x="61.211" y="818.993"/><use xlink:href="#h" x="62.769" y="818.993"/><use xlink:href="#i" x="68.162" y="818.993"/><use xlink:href="#j" x="73.556" y="818.993"/><use xlink:href="#k" x="78.949" y="818.993"/><use xlink:href="#l" x="84.342" y="818.993"/><use xlink:href="#m" x="89.736" y="818.993"/><use xlink:href="#c" x="95.129" y="818.993"/><use xlink:href="#d" x="100.523" y="818.993"/></g><g fill="#595757"><use xlink:href="#n" x="105.916" y="818.993"/><use xlink:href="#o" x="107.474" y="818.993"/><use xlink:href="#p" x="112.868" y="818.993"/><use xlink:href="#q" x="118.261" y="818.993"/><use xlink:href="#r" x="123.655" y="818.993"/><use xlink:href="#n" x="129.048" y="818.993"/><use xlink:href="#s" x="130.606" y="818.993"/><use xlink:href="#t" x="136" y="818.993"/><use xlink:href="#u" x="141.393" y="818.993"/><use xlink:href="#n" x="146.786" y="818.993"/><use xlink:href="#v" x="148.345" y="818.993"/></g><g fill="#595757"><use xlink:href="#w" x="151.43" y="818.993"/><use xlink:href="#x" x="154.87" y="818.993"/><use xlink:href="#y" x="156.35" y="818.993"/><use xlink:href="#n" x="157.735" y="818.993"/><use xlink:href="#z" x="159.293" y="818.993"/><use xlink:href="#z" x="162.379" y="818.993"/></g><use xlink:href="#A" x="39.637" y="47.125"/><use xlink:href="#B" x="43.752" y="47.125"/><use xlink:href="#C" x="47.867" y="47.125"/><use xlink:href="#B" x="49.713" y="47.125"/><use xlink:href="#D" x="53.828" y="47.125"/><use xlink:href="#C" x="57.943" y="47.125"/><use xlink:href="#A" x="59.788" y="47.125"/><use xlink:href="#E" x="63.903" y="47.125"/><use xlink:href="#F" x="68.018" y="47.125"/><use xlink:href="#G" x="70.096" y="47.125"/><use xlink:href="#F" x="71.965" y="47.125"/><use xlink:href="#H" x="74.043" y="47.125"/><use xlink:href="#B" x="81.234" y="47.125"/><use xlink:href="#I" x="85.349" y="47.125"/><use xlink:href="#J" x="89.464" y="47.125"/><use xlink:href="#F" x="96.655" y="47.125"/><use xlink:href="#K" x="98.733" y="47.125"/><use xlink:href="#L" x="105.924" y="47.125"/><use xlink:href="#J" x="113.115" y="47.125"/><g><use xlink:href="#A" x="39.637" y="410.93"/><use xlink:href="#B" x="43.752" y="410.93"/><use xlink:href="#C" x="47.867" y="410.93"/><use xlink:href="#B" x="49.713" y="410.93"/><use xlink:href="#B" x="53.828" y="410.93"/><use xlink:href="#C" x="57.943" y="410.93"/><use xlink:href="#A" x="59.788" y="410.93"/><use xlink:href="#M" x="63.903" y="410.93"/><use xlink:href="#F" x="68.018" y="410.93"/><use xlink:href="#G" x="70.096" y="410.93"/><use xlink:href="#F" x="71.965" y="410.93"/><use xlink:href="#N" x="74.043" y="410.93"/><use xlink:href="#O" x="81.234" y="410.93"/><use xlink:href="#P" x="88.425" y="410.93"/><use xlink:href="#Q" x="95.617" y="410.93"/><use xlink:href="#F" x="102.808" y="410.93"/><use xlink:href="#R" x="104.885" y="410.93"/><use xlink:href="#S" x="112.077" y="410.93"/><use xlink:href="#T" x="119.268" y="410.93"/><use xlink:href="#U" x="126.459" y="410.93"/><use xlink:href="#V" x="133.65" y="410.93"/><use xlink:href="#W" x="140.842" y="410.93"/><use xlink:href="#N" x="148.033" y="410.93"/><use xlink:href="#O" x="155.224" y="410.93"/><use xlink:href="#F" x="162.415" y="410.93"/><use xlink:href="#H" x="164.493" y="410.93"/><use xlink:href="#X" x="171.684" y="410.93"/><use xlink:href="#J" x="175.799" y="410.93"/><use xlink:href="#F" x="182.99" y="410.93"/><use xlink:href="#Y" x="185.068" y="410.93"/><use xlink:href="#H" x="192.259" y="410.93"/><use xlink:href="#Z" x="199.45" y="410.93"/><use xlink:href="#aa" x="206.642" y="410.93"/></g></svg>