<svg xmlns="http://www.w3.org/2000/svg" xmlns:xlink="http://www.w3.org/1999/xlink" width="793.701" height="1122.52" viewBox="0 0 595.276 841.89" version="1.2"><defs><symbol overflow="visible" id="a"><path d="M2.969-4.531H.359v-.75h3.938L.969.187l-.64-.406zm0 0"/></symbol><symbol overflow="visible" id="b"><path d="M2.75-5.469l.578.438-1.25 1.718c.059-.007.113-.015.156-.015.051-.008.094-.016.125-.016.426 0 .797.168 1.11.5.308.324.469.715.469 1.172 0 .48-.176.895-.516 1.234a1.704 1.704 0 0 1-1.25.516c-.48 0-.899-.164-1.25-.5C.566-.762.39-1.164.39-1.625c0-.414.171-.86.515-1.328zm.406 3.844a.976.976 0 0 0-.281-.703.998.998 0 0 0-.719-.297.963.963 0 0 0-.703.297.908.908 0 0 0-.297.687.97.97 0 0 0 .297.72.98.98 0 0 0 .703.28.93.93 0 0 0 .703-.296.91.91 0 0 0 .297-.688zm0 0"/></symbol><symbol overflow="visible" id="d"><path d="M1.453 0h.406l1.422-4.375h-.375l-.781 2.516c-.156.53-.281.937-.453 1.468H1.64c-.172-.53-.282-.937-.454-1.468l-.78-2.516H.03zm0 0"/></symbol><symbol overflow="visible" id="e"><path d="M.64 0H1v-4.375H.64zm0 0"/></symbol><symbol overflow="visible" id="f"><path d="M.75-.156c.156 0 .313-.11.313-.313A.317.317 0 0 0 .75-.797a.317.317 0 0 0-.313.328c0 .203.157.313.313.313zm0 0"/></symbol><symbol overflow="visible" id="h"><path d="M2.906-.563v-1.515h1.672v-.281H1.297v-1.829H4.53v-.265H.984v2.375h1.61v1.515H.344v.266h4.828v-.266zm0 0"/></symbol><symbol overflow="visible" id="i"><path d="M2.734-4.531c.938 0 1.532.265 1.532.718 0 .454-.594.72-1.532.72-.906 0-1.5-.266-1.5-.72 0-.453.594-.718 1.5-.718zm0 1.703c1.157 0 1.86-.36 1.86-.985 0-.624-.703-.984-1.86-.984-1.125 0-1.828.36-1.828.984 0 .626.703.985 1.828.985zM4.25.062h-3v-1.171h3zm.906-2.124v-.266H.344v.265h2.25v.688H.954V.344h3.609v-1.719H2.905v-.688zm0 0"/></symbol><symbol overflow="visible" id="j"><path d="M.781-2.36c.735-.14 1.656-.609 1.969-1.312.297.703 1.219 1.172 1.953 1.313l.14-.25c-.796-.141-1.921-.75-1.921-1.547v-.125h1.765v-.266H.797v.266h1.781v.125c0 .797-1.125 1.406-1.922 1.547zm4.375.547H.344v.266h2.234V.406h.313v-1.953h2.265zm0 0"/></symbol><symbol overflow="visible" id="k"><path d="M4.672-4.906h-.313v3.922h.313zM3.516-2.141c-.75-.296-1.391-1.046-1.391-1.921v-.547h-.313v.546c0 .907-.625 1.704-1.375 2.016l.188.266c.61-.282 1.14-.86 1.344-1.578a2.462 2.462 0 0 0 1.375 1.468zM1.64.016v-1.36h-.313V.281H4.86V.016zm0 0"/></symbol><symbol overflow="visible" id="l"><path d="M4.203-2.922h-2.89v-.797h2.89zm.313-1.828h-.313v.766h-2.89v-.766H.984v2.11h3.532zm-3.22 3.61H.985V.28h3.641V.016H1.297zm-.968-.907v.266H2.61v1.156h.313v-1.156h2.25v-.266zm0 0"/></symbol><symbol overflow="visible" id="m"><path d="M4.578-3.375h-3.25v-1.047h3.188v-.266h-3.5v1.579h3.562zM1.266-.594h3.25V-1.75H.937v.266h3.266v.625H.953V.344h3.735V.078H1.265zm-.922-2v.281h4.812v-.28zm0 0"/></symbol><symbol overflow="visible" id="n"><path d="M4.672-4.906h-.313V-.97h.313zM.797-3.234c0-.563.453-1 1.047-1 .593 0 1.047.437 1.047 1 0 .578-.454 1.015-1.047 1.015-.594 0-1.047-.437-1.047-1.015zm2.39 0c0-.75-.562-1.282-1.343-1.282-.782 0-1.36.532-1.36 1.282 0 .765.579 1.296 1.36 1.296.781 0 1.343-.53 1.343-1.296zM1.641.016v-1.407h-.313V.281H4.86V.016zm0 0"/></symbol><symbol overflow="visible" id="o"><path d="M4.219-3.39H1.297V-4.47h2.922zM4.53-4.72H.984v1.594h3.547zm.625 2.407v-.266H.344v.265h2.25v.626H.938v.265h3.265v.594H.953V.344h3.735V.078H1.265v-.672h3.25v-1.094h-1.61v-.625zm0 0"/></symbol><symbol overflow="visible" id="p"><path d="M4.906-2.203c-.765-.156-2.015-.922-2.015-1.89v-.423h-.329v.422c0 .969-1.218 1.735-1.984 1.89l.14.267c.72-.172 1.688-.75 2.016-1.563.344.813 1.313 1.39 2.032 1.563zM2.891-.578v-1.36h-.313v1.36H.344v.265h4.828v-.265zm0 0"/></symbol><symbol overflow="visible" id="q"><path d="M.547-4.203v.266h1.75C2.234-2.813 1.703-1.72.375-.985l.188.234c1.546-.86 2.046-2.172 2.046-3.453zm3.984-.703v2.218h-.89v-2.078h-.297V.125h.297v-2.547h.89V.422h.297v-5.328zm0 0"/></symbol><symbol overflow="visible" id="r"><path d="M5.36-5.953v1.062h1.437v3.266h1.328v-6.719H6.797v2.39zm.609 2.11C4.516-4.329 3.89-5.47 3.89-6.548v-.125h1.796v-1.047H.734v1.047h1.813v.125c0 1.172-.656 2.375-2.172 2.86l.656 1.046C2.11-3 2.828-3.719 3.25-4.625c.39.828 1.078 1.484 2.078 1.813zm-2.594 3.5v-1.845H2.062V.704h6.266V-.344zm0 0"/></symbol><symbol overflow="visible" id="s"><path d="M8.328-5.625c-2.062-.266-3.062-1.328-3.062-2.281v-.266h-1.36v.266c0 .968-1.015 2.015-3.062 2.281l.469 1.016C2.875-4.83 4-5.484 4.578-6.375c.594.89 1.719 1.547 3.281 1.766zm-3.765 5.5c-1.235 0-1.86-.203-1.86-.672 0-.469.625-.687 1.86-.687 1.234 0 1.859.218 1.859.687 0 .469-.625.672-1.86.672zm0-2.344c-1.985 0-3.188.61-3.188 1.672C1.375.266 2.578.875 4.563.875c1.984 0 3.203-.61 3.203-1.672 0-1.062-1.22-1.672-3.204-1.672zM.421-4.109v1.03h8.312v-1.03zm0 0"/></symbol><symbol overflow="visible" id="t"><path d="M8.375-7.188h-3.14V-8.25H3.905v1.063H.781v1.046h7.594zM2.812-3.953c0-.516.61-.781 1.75-.781 1.157 0 1.782.265 1.782.78 0 .532-.625.767-1.782.767-1.14 0-1.75-.235-1.75-.766zm2.422 2.828v-1.063c1.532-.156 2.454-.78 2.454-1.765 0-1.125-1.204-1.797-3.125-1.797-1.907 0-3.11.672-3.11 1.797 0 .984.938 1.625 2.453 1.765v1.063H.422v1.063h8.344v-1.063zm0 0"/></symbol><symbol overflow="visible" id="D"><path d="M1.016-7.813v1.047h2.843C3.672-5.546 2.516-4.546.484-4.03L.984-3c2.735-.703 4.282-2.36 4.282-4.813zM3.28-1.78h3.485v1.5H3.28zM1.984.75h6.079v-3.578H1.984zm4.75-9.078v5.11h1.329v-5.11zm0 0"/></symbol><symbol overflow="visible" id="E"><path d="M1.797-5.594c0-.718.484-1.14 1.172-1.14.672 0 1.172.421 1.172 1.14 0 .719-.5 1.14-1.172 1.14-.688 0-1.172-.421-1.172-1.14zm5-.5v1H5.328c.047-.172.063-.328.063-.5s-.016-.343-.047-.5zm0 2.047v1.094h1.328v-5.39H6.797v1.202H4.766c-.438-.437-1.063-.703-1.797-.703-1.36 0-2.422.938-2.422 2.25 0 1.297 1.062 2.25 2.422 2.25.719 0 1.344-.265 1.781-.703zM5-.157c-1.203 0-1.844-.25-1.844-.796 0-.531.64-.797 1.844-.797 1.203 0 1.86.266 1.86.797 0 .547-.657.797-1.86.797zm0-2.609c-1.938 0-3.14.672-3.14 1.813C1.86.187 3.061.875 5 .875c1.953 0 3.156-.688 3.156-1.828 0-1.14-1.203-1.813-3.156-1.813zm0 0"/></symbol><symbol overflow="visible" id="F"><path d="M8.063-8.344H6.734v6.547h1.329zm-4 4.14H2.188v-2.359h1.874zm1.296-3.405H.891v4.437h4.468zM3.266-.391v-1.984H1.953V.672h6.344V-.391zm0 0"/></symbol><symbol overflow="visible" id="v"><path d="M1.656-6.453h2.532v-.672H.844v5.656h.594c1.343 0 2.25-.031 3.312-.265l-.063-.688c-.984.219-1.828.266-3.03.281zM7.344-8.22v3.594H6.078v-3.39h-.766V.296h.766v-4.25h1.266V.734h.797v-8.953zm0 0"/></symbol><symbol overflow="visible" id="w"><path d="M3.594-3.14h1.953v2.124H3.594zm-.14-3.594h2.233v2.937H3.454zm2.905 5.718V-3.14h1.516v-.656H6.5v-2.937h1.39v-.657H1.25v.657h1.39v2.937H1.267v.656H2.78v2.125H.516v.672H8.64v-.672zm0 0"/></symbol><symbol overflow="visible" id="x"><path d="M7.047-8.219V.766h.812V-8.22zM3.14-7.53C1.812-7.531.859-6.313.859-4.406c0 1.906.954 3.125 2.282 3.125S5.406-2.5 5.406-4.406c0-1.907-.937-3.125-2.265-3.125zm0 .734c.859 0 1.484.953 1.484 2.39C4.625-2.952 4-2 3.141-2c-.891 0-1.5-.953-1.5-2.406 0-1.438.609-2.39 1.5-2.39zm0 0"/></symbol><symbol overflow="visible" id="y"><path d="M3.531-7.438H2.72v1.61c0 1.625-1.016 3.344-2.297 4l.484.656C1.922-1.703 2.75-2.828 3.141-4.14c.406 1.235 1.218 2.282 2.156 2.797L5.813-2C4.546-2.625 3.53-4.25 3.53-5.828zm5.36 2.86H7.42v-3.625h-.827V.734h.828v-4.64H8.89zm0 0"/></symbol><symbol overflow="visible" id="z"><path d="M4.578-7.39c1.406 0 2.297.39 2.297 1.046 0 .657-.89 1.047-2.297 1.047-1.422 0-2.312-.39-2.312-1.047 0-.656.89-1.047 2.312-1.047zm0 2.734c1.938 0 3.14-.625 3.14-1.688 0-1.062-1.202-1.687-3.14-1.687-1.937 0-3.156.625-3.156 1.687 0 1.063 1.219 1.688 3.156 1.688zM6.812-.875c0 .625-.828.969-2.234.969-1.406 0-2.234-.344-2.234-.969 0-.61.828-.969 2.234-.969 1.406 0 2.234.36 2.234.969zm1.813-2.438v-.656H.531v.656h3.625v.86C2.5-2.375 1.5-1.813 1.5-.875 1.5.156 2.672.735 4.578.735S7.641.155 7.641-.876c0-.938-.985-1.5-2.641-1.578v-.86zm0 0"/></symbol><symbol overflow="visible" id="A"><path d="M3.156-6.5H4.75v-.672H.672v.672h1.687v.813c0 1.64-.687 3.265-1.937 4.015l.5.61c.89-.563 1.531-1.61 1.844-2.829.312 1.141.921 2.094 1.796 2.61l.5-.594c-1.234-.703-1.906-2.266-1.906-3.813zM5.546-5H4.079v.672h1.469V.266h.781v-8.282h-.781zm1.798-3.234V.734h.797v-8.968zm0 0"/></symbol><symbol overflow="visible" id="B"><path d="M1.5-5.563c0-.843.64-1.421 1.531-1.421.89 0 1.547.578 1.547 1.421 0 .844-.656 1.422-1.547 1.422-.89 0-1.531-.578-1.531-1.421zm3.875 0c0-1.25-.984-2.109-2.344-2.109-1.36 0-2.328.86-2.328 2.11s.969 2.125 2.328 2.125c1.36 0 2.344-.876 2.344-2.126zm-3.719 3.75h5V.735h.828v-3.203H1.656zm7.125-4.359v-.672H7.484v-1.36h-.828v5.313h.828v-1.375h1.297v-.671H7.484v-1.235zm0 0"/></symbol><symbol overflow="visible" id="G"><path d="M5.703-4c-1.297-.438-2.172-1.563-2.172-2.766v-1H2.72v.922c0 1.375-.875 2.594-2.235 3.078l.438.657A3.785 3.785 0 0 0 3.14-5.375a3.747 3.747 0 0 0 2.125 2.016zM4.625.094c-1.313 0-2.125-.375-2.125-1s.813-.985 2.125-.985c1.328 0 2.14.36 2.14.985s-.812 1-2.14 1zm0-2.625c-1.813 0-2.953.578-2.953 1.625 0 1.047 1.14 1.64 2.953 1.64 1.828 0 2.953-.593 2.953-1.64S6.453-2.531 4.625-2.531zm2.86-3.375v-2.297h-.829v5.422h.828V-5.22h1.329v-.687zm0 0"/></symbol><symbol overflow="visible" id="H"><path d="M6.797-4.875H2.359v-2.188h4.438zm.812-2.844H1.563v3.485h6.046zm1.032 4.703H.516v.672h3.64V.734h.813v-3.078H8.64zm0 0"/></symbol><symbol overflow="visible" id="I"><path d="M1.453-5.406c0-.89.64-1.516 1.516-1.516.875 0 1.531.625 1.531 1.516 0 .89-.656 1.531-1.531 1.531-.875 0-1.516-.64-1.516-1.531zm5.625-.75v1.5H5.156c.078-.235.11-.485.11-.75 0-.266-.032-.516-.11-.75zm0 2.156v2.406h.828v-6.61h-.828v1.392H4.797c-.406-.516-1.047-.829-1.828-.829-1.313 0-2.297.938-2.297 2.235 0 1.312.984 2.25 2.297 2.25.781 0 1.422-.313 1.844-.844zM3-.125v-2.156h-.828V.547h5.984v-.672zm0 0"/></symbol><symbol overflow="visible" id="J"><path d="M.36 0h3.5v-.422H2.046c-.297 0-.64.031-.953.047C2.64-1.813 3.578-3.031 3.578-4.25c0-1.016-.594-1.672-1.61-1.672-.702 0-1.187.344-1.64.828l.297.282c.344-.407.797-.72 1.297-.72.828 0 1.187.563 1.187 1.298 0 1.046-.78 2.25-2.75 3.953zm0 0"/></symbol><symbol overflow="visible" id="K"><path d="M2.14.11c1.047 0 1.704-1 1.704-3.047 0-2.016-.656-2.985-1.703-2.985-1.063 0-1.72.969-1.72 2.984C.422-.89 1.079.11 2.142.11zm0-.391c-.765 0-1.25-.89-1.25-2.656 0-1.72.485-2.594 1.25-2.594.75 0 1.25.875 1.25 2.593 0 1.766-.5 2.657-1.25 2.657zm0 0"/></symbol><symbol overflow="visible" id="L"><path d="M.734 0h3v-.406H2.516v-5.422H2.14c-.266.172-.625.297-1.11.375v.312h1.016v4.735H.734zm0 0"/></symbol><symbol overflow="visible" id="M"><path d="M1-.203a.407.407 0 0 0 .406-.422c0-.281-.203-.438-.406-.438-.219 0-.406.157-.406.438 0 .266.187.422.406.422zm0 0"/></symbol><symbol overflow="visible" id="N"><path d="M2-2.61c-.813 0-1.172-.609-1.172-1.453 0-.843.469-1.484 1.11-1.484.906 0 1.375.813 1.421 2.078-.437.61-.937.86-1.359.86zM.484-.452c.313.328.72.562 1.282.562 1.062 0 2.046-.89 2.046-3.328 0-1.765-.75-2.703-1.874-2.703-.844 0-1.563.766-1.563 1.86 0 1.187.594 1.828 1.563 1.828.546 0 1.046-.313 1.421-.782C3.313-1 2.594-.296 1.781-.296c-.406 0-.75-.157-1.015-.47zm0 0"/></symbol><symbol overflow="visible" id="P"><path d="M2.922-2.438c.36 0 .734-.234 1-.734l-.281-.203c-.22.39-.438.547-.704.547-.515 0-.906-.781-1.593-.781-.36 0-.719.218-1 .75l.297.187c.203-.406.437-.562.687-.562.516 0 .906.796 1.594.796zm0 0"/></symbol><symbol overflow="visible" id="Q"><path d="M2.063.11c.984 0 1.75-.641 1.75-1.657 0-.812-.579-1.344-1.282-1.5v-.031c.625-.219 1.078-.688 1.078-1.438 0-.906-.671-1.406-1.578-1.421-.656.015-1.156.312-1.547.687l.266.328c.313-.344.781-.61 1.281-.625.672.016 1.094.422 1.094 1.063 0 .687-.438 1.25-1.719 1.25v.39c1.39 0 1.938.516 1.938 1.297 0 .75-.547 1.25-1.297 1.25C1.297-.297.844-.64.516-1L.25-.687c.36.39.906.796 1.813.796zm0 0"/></symbol><symbol overflow="visible" id="R"><path d="M2.016.11c.937 0 1.828-.72 1.828-1.985 0-1.281-.766-1.86-1.735-1.86-.39 0-.687.11-.968.282l.171-1.953h2.235v-.422H.89L.687-3.156 1-2.984c.328-.22.61-.36 1.031-.36.813 0 1.328.563 1.328 1.485C3.36-.906 2.734-.297 2-.297 1.25-.297.812-.625.484-.984L.22-.656c.375.375.906.765 1.797.765zm0 0"/></symbol><symbol overflow="visible" id="T"><path d="M1.016-3.453c1.062-.14 2.234-.578 2.64-1.39.406.812 1.578 1.25 2.64 1.39l.126-.328c-1.156-.125-2.531-.703-2.547-1.672h2.313v-.344H3.874v-.797h-.422v.797H1.141v.344h2.296c-.015.969-1.39 1.547-2.546 1.672zM5.64-.625c0 .516-.766.828-1.985.828S1.672-.109 1.672-.625s.766-.828 1.984-.828c1.219 0 1.985.312 1.985.828zm1.218-2v-.36H.453v.36h3v.844c-1.406.047-2.203.437-2.203 1.156 0 .75.89 1.156 2.406 1.156S6.062.125 6.062-.625c0-.719-.796-1.11-2.203-1.156v-.844zm0 0"/></symbol><symbol overflow="visible" id="U"><path d="M5.594-4.14h-3.86v-.985h3.86zm.422-2.235h-.422v.906h-3.86v-.906h-.421v2.594h4.703zm.843 3.719v-.36H.453v.36h2.985v.984H1.171v.344H5.64v1.89h.421v-2.234H3.86v-.984zm0 0"/></symbol><symbol overflow="visible" id="V"><path d="M1.156-1.656v-3.625h2.235v-.375H.75v4.375h.438c1.156 0 1.843-.047 2.687-.235l-.063-.359c-.796.188-1.484.219-2.64.219zm4.86-4.875v2.922h-1.22v-2.75h-.405V.17h.406V-3.25h1.219V.547h.421v-7.078zm0 0"/></symbol><symbol overflow="visible" id="W"><path d="M4.672-5.703H2.797v-.875h-.422v.875H.485v.344h4.187zM1.297-3.641c0-.546.531-.921 1.281-.921.766 0 1.266.375 1.266.921 0 .547-.5.922-1.266.922-.75 0-1.281-.375-1.281-.922zm2.953 0c0-.78-.672-1.25-1.672-1.25-1 0-1.672.47-1.672 1.25 0 .782.672 1.266 1.672 1.266 1 0 1.672-.484 1.672-1.266zM1.375-1.312H5.5V.546h.422v-2.219H1.375zM7.031-4.5h-1.11v-2.047H5.5v4.438h.422v-2.032h1.11zm0 0"/></symbol><symbol overflow="visible" id="X"><path d="M5.594-4.922c0 .906 0 1.813-.266 3.016l.422.047C6-3.094 6-3.984 6-4.922v-.828H1.14v.36h4.454zM4.328-.89v-2.406h-.406V-.89H2.594v-2.406h-.422V-.89H.453v.36H6.86v-.36zm0 0"/></symbol><symbol overflow="visible" id="Y"><path d="M1.047-4.453c0-.734.594-1.281 1.39-1.281.797 0 1.391.546 1.391 1.28 0 .735-.594 1.282-1.39 1.282-.797 0-1.391-.547-1.391-1.281zm3.187 0c0-.984-.75-1.64-1.796-1.64-1.063 0-1.797.655-1.797 1.64 0 .984.734 1.64 1.796 1.64 1.047 0 1.797-.656 1.797-1.64zM1.375-1.578H5.5v2.14h.422v-2.5H1.375zM7.015-5v-.36H5.923v-1.187H5.5v4.234h.422v-1.171h1.094v-.36H5.922V-5zm0 0"/></symbol><symbol overflow="visible" id="Z"><path d="M4.219-2.297v.328h1.515v.844h.422v-5.39h-.422v4.218zM2.734-5.89c.782 0 1.329.36 1.329.891s-.547.89-1.329.89c-.78 0-1.328-.359-1.328-.89s.547-.89 1.328-.89zm0 2.11c1.032 0 1.72-.469 1.72-1.219 0-.75-.688-1.219-1.72-1.219C1.688-6.219 1-5.75 1-5c0 .75.688 1.219 1.734 1.219zm-.156 2.375H3V-2.86c.688-.032 1.39-.094 2.063-.204l-.047-.312c-1.516.188-3.297.203-4.61.203l.063.375c.625 0 1.328 0 2.11-.031zM1.906.03v-1.687h-.422V.39h4.86V.03zm0 0"/></symbol><symbol overflow="visible" id="aa"><path d="M2.422-5.281h1.422v-.36H.547v.36h1.469v.828c0 1.344-.672 2.656-1.625 3.219l.28.312c.735-.453 1.313-1.36 1.563-2.406.235.969.797 1.797 1.516 2.25l.266-.328c-.938-.532-1.594-1.797-1.594-3.047zm2.172 1.36H3.28v.374h1.313V.172H5v-6.516h-.406zm1.422-2.61V.562h.421V-6.53zm0 0"/></symbol><symbol overflow="visible" id="ab"><path d="M4.516-2.844c-.97-.36-1.813-1.281-1.813-2.297v-.968h-.406v.937C2.297-4 1.484-3.032.484-2.64l.22.344a3.114 3.114 0 0 0 1.812-1.969c.296.813 1 1.454 1.796 1.766zM2.03-1.766H1.61V.391h4.657V.03H2.03zm3.89-2.53v-2.25H5.5v5.28h.422v-2.656h1.11v-.375zm0 0"/></symbol><symbol overflow="visible" id="ac"><path d="M5.797.094H2.219V-.97h3.578zm0-1.422H2.219V-2.36h-.422V.453h4.437v-2.812h-.437zm-3.422-2c-.813 0-1.39-.531-1.39-1.25s.578-1.25 1.39-1.25c.797 0 1.39.531 1.39 1.25s-.593 1.25-1.39 1.25zm3.422-3.203v1.75h-1.64c-.095-.844-.813-1.407-1.782-1.407-1.063 0-1.797.641-1.797 1.61 0 .969.735 1.61 1.797 1.61.984 0 1.703-.563 1.781-1.438h1.64v1.672h.438v-3.797zm0 0"/></symbol><symbol overflow="visible" id="ad"><path d="M3.594-3.14H1.219v-1.391h2.375zm.422-2.954h-.422v1.219H1.219v-1.219H.797v3.297h3.219zM1.375-1.469H5.5V.563h.422v-2.391H1.375zm5.656-3.156h-1.11v-1.906H5.5v4.281h.422v-2h1.11zm0 0"/></symbol><symbol overflow="visible" id="ae"><path d="M2.688-5.89H2.28v1.421c0 1.282-.969 2.64-1.89 3.14l.25.345c.78-.438 1.546-1.407 1.843-2.5.313 1.03 1.079 1.921 1.844 2.343l.266-.328c-.922-.484-1.907-1.765-1.907-3zm4.406 2.312h-1.25v-2.969h-.422v7.11h.422V-3.22h1.25zm0 0"/></symbol><symbol overflow="visible" id="af"><path d="M4.11-2.578c.202-1.406.202-2.375.202-2.875v-.266H.783v.36h3.124c0 .515-.015 1.453-.219 2.734zm-1.688-1.11h-.406v2.22c-.594.03-1.141.03-1.641.03l.063.375c1.28-.015 2.968-.046 4.484-.265l-.031-.328c-.782.11-1.641.156-2.47.172zm4.625.188h-1.25v-3.047h-.422v7.11h.422v-3.688h1.25zm0 0"/></symbol><symbol overflow="visible" id="ag"><path d="M4.203-4.61v.36h1.594v1.938h.437v-4.22h-.437v1.923zm.375 1.657c-.969-.36-1.797-1.25-1.797-2.219v-.437h1.672v-.36H.672v.36h1.703v.453c0 1.078-.86 2.031-1.844 2.406l.219.344c.828-.328 1.563-1.047 1.844-1.938.281.782.969 1.422 1.765 1.719zM3.938.203C2.78.203 2.03-.157 2.03-.75c0-.594.75-.953 1.906-.953 1.157 0 1.907.36 1.907.953 0 .594-.75.953-1.907.953zm0-2.25c-1.454 0-2.329.469-2.329 1.297S2.484.547 3.938.547C5.375.547 6.265.078 6.265-.75s-.891-1.297-2.329-1.297zm0 0"/></symbol><symbol overflow="visible" id="ah"><path d="M6.484-3.734c-1.062-.172-2.609-1-2.609-2.094v-.438h-.438v.438c0 1.125-1.515 1.922-2.609 2.094l.188.359c1-.188 2.218-.813 2.656-1.75.422.922 1.656 1.563 2.64 1.75zm.375 1.28H.453v.36h2.985v2.64h.421v-2.64h3zm0 0"/></symbol><symbol overflow="visible" id="ai"><path d="M2.766-2.234h1.859v1.5h-1.86zm2.28 1.5v-1.5H6.22v-.36H1.703v-1.36h4.344v-2.015H1.266v.36h4.359v1.312H1.297v2.063h1.062v1.5H.453v.359h6.438v-.36zm0 0"/></symbol><symbol overflow="visible" id="aj"><path d="M.984-4.328c0-.766.594-1.36 1.391-1.36s1.39.594 1.39 1.36c0 .781-.593 1.375-1.39 1.375-.797 0-1.39-.594-1.39-1.375zM5.797-5v1.328H4.063c.062-.187.109-.422.109-.656 0-.234-.047-.469-.125-.672zm0 1.688v2.046h.437V-6.53h-.437v1.172H3.859a1.862 1.862 0 0 0-1.484-.704c-1.047 0-1.797.72-1.797 1.735 0 1.031.75 1.734 1.797 1.734.64 0 1.172-.265 1.484-.719zM2.219.03v-1.843h-.422V.39h4.64V.03zm0 0"/></symbol><symbol overflow="visible" id="ak"><path d="M2.438-5.844h-.391v1.453c0 1.235-.719 2.5-1.64 3.032l.265.328C1.406-1.484 2-2.36 2.25-3.36c.25.921.828 1.75 1.516 2.171l.28-.328c-.921-.53-1.609-1.765-1.609-2.875zm2.14 1.953H3.25v.36h1.328V.188h.406V-6.36h-.406zm1.453-2.64V.562h.407V-6.53zm0 0"/></symbol><symbol overflow="visible" id="al"><path d="M4.86-4.172h1.124v2.047h.407v-4.406h-.407v2H4.86v-1.86h-.406v4.032h.406zm-.876 1.078C3.094-3.438 2.47-4.25 2.47-5.047v-1.047h-.406v1.047c0 .797-.657 1.734-1.547 2.125l.234.328c.719-.312 1.266-.969 1.516-1.672a2.67 2.67 0 0 0 1.5 1.5zM4.11.203c-1.156 0-1.906-.344-1.906-.89 0-.563.75-.907 1.906-.907 1.157 0 1.907.344 1.907.907 0 .546-.75.89-1.907.89zm0-2.14c-1.453 0-2.328.453-2.328 1.25C1.781.093 2.656.53 4.11.53c1.438 0 2.313-.437 2.313-1.219 0-.796-.875-1.25-2.313-1.25zm0 0"/></symbol><symbol overflow="visible" id="am"><path d="M4.766-5.625H2.828v-.922h-.422v.922H.484v.36h4.282zM1.39-3.469c0-.578.5-.969 1.234-.969s1.234.391 1.234.97c0 .546-.5.952-1.234.952s-1.234-.406-1.234-.953zm1.437 1.281c.875-.078 1.438-.546 1.438-1.28 0-.798-.672-1.313-1.641-1.313C1.641-4.781 1-4.266 1-3.47c0 .735.563 1.203 1.406 1.281v.891c-.734.031-1.437.031-2.031.031l.078.36c1.25 0 2.953-.016 4.5-.281l-.031-.329c-.656.11-1.375.157-2.094.204zm4.219-1.25H5.828V-6.53h-.437V.547h.437v-3.625h1.219zm0 0"/></symbol><symbol overflow="visible" id="an"><path d="M4.531-3.063c-.968-.359-1.812-1.28-1.812-2.312v-.813h-.406v.797C2.313-4.234 1.5-3.28.5-2.875l.219.344A3.152 3.152 0 0 0 2.53-4.5c.297.813.985 1.453 1.766 1.781zM1.547-1.577h4.25v2.14h.437v-2.484H1.547zm4.25-4.969v1.594H4.109v.36h1.688v2.234h.437v-4.188zm0 0"/></symbol><symbol overflow="visible" id="ao"><path d="M.984-3.938c1.047-.14 2.297-.609 2.688-1.421.375.812 1.61 1.28 2.656 1.421l.156-.328C5.375-4.39 3.906-4.984 3.906-5.89v-.046h2.375v-.344H1.047v.343h2.375v.047c0 .922-1.485 1.5-2.594 1.625zM1.688-.75h4.328v-1.5H1.25v.328h4.344v.844H1.266V.453H6.25V.11H1.687zm2.187-2.563v-.984h-.422v.984h-3v.344H6.86v-.344zm0 0"/></symbol><symbol overflow="visible" id="ap"><path d="M2.813-5.875H2.39v1.406c0 1.297-.97 2.64-1.891 3.157l.266.328c.78-.438 1.546-1.422 1.843-2.532.313 1.063 1.094 1.985 1.875 2.407l.25-.344c-.937-.469-1.921-1.75-1.921-3.016zm2.984-.656v2.515H3.969v.36h1.828V.563h.437v-7.094zm0 0"/></symbol><symbol overflow="visible" id="aq"><path d="M3.656-6.11c1.235 0 2.016.344 2.016.907 0 .562-.781.906-2.016.906-1.234 0-2.015-.344-2.015-.906 0-.563.78-.906 2.015-.906zm0 2.157c1.531 0 2.453-.453 2.453-1.25 0-.797-.921-1.234-2.453-1.234-1.547 0-2.453.437-2.453 1.234 0 .797.906 1.25 2.453 1.25zm3.203.906v-.36H.453v.36h2.985v.781H1.265v.344h4.328v.781H1.266V.453H6.25V.11H1.687v-.921h4.329v-1.454H3.859v-.78zm0 0"/></symbol><symbol overflow="visible" id="ar"><path d="M3.656.203c-1.219 0-1.984-.344-1.984-.922 0-.578.766-.922 1.984-.922 1.219 0 1.985.344 1.985.922 0 .578-.766.922-1.985.922zm0-2.187c-1.5 0-2.406.453-2.406 1.265 0 .813.906 1.266 2.406 1.266S6.062.094 6.062-.72c0-.812-.906-1.265-2.406-1.265zm.203-.97v-.937h2.235v-.359H1.687v-1.594h4.36v-.36H1.28v2.313h2.157v.938H.453v.36H6.86v-.36zm0 0"/></symbol><symbol overflow="visible" id="as"><path d="M5.61-4.516H1.718v-1.421h3.89zm.406-1.765H1.312v2.11h4.704zm.843 3.203v-.36H.453v.36h2.985v.828H1.25v.344h4.344v.797H1.266V.453H6.25V.11H1.687v-.89h4.329V-2.25H3.859v-.828zm0 0"/></symbol><symbol overflow="visible" id="at"><path d="M2.719-5.406H4.39v-.375H.594v.375h1.703v1.187C2.297-3 1.28-1.64.359-1.172l.266.344c.766-.422 1.578-1.39 1.875-2.469.313 1 1.078 1.89 1.844 2.297l.25-.344c-.922-.453-1.875-1.718-1.875-2.875zm4.375 1.828h-1.25v-2.953h-.422V.562h.422v-3.78h1.25zm0 0"/></symbol><symbol overflow="visible" id="au"><path d="M1.328-2.344l.36-1.047c.234-.687.437-1.296.64-2h.031c.204.704.391 1.313.641 2l.344 1.047zM4.125 0h.5L2.594-5.828h-.5L.063 0h.484l.656-1.953H3.47zm0 0"/></symbol><symbol overflow="visible" id="av"><path d="M1.734.11c.547 0 1.063-.297 1.485-.657h.015L3.297 0h.39v-2.703c0-.938-.359-1.672-1.374-1.672-.704 0-1.297.344-1.626.563l.22.343c.296-.234.78-.484 1.343-.484.797 0 .984.64.969 1.281C1.344-2.453.5-2.016.5-1.062c0 .78.547 1.171 1.234 1.171zm.11-.391c-.485 0-.875-.235-.875-.813 0-.656.578-1.047 2.25-1.234v1.375c-.5.437-.906.672-1.375.672zm0 0"/></symbol><symbol overflow="visible" id="aw"><path d="M1.36.11c.156 0 .234-.032.312-.048l-.063-.374c-.093.015-.125.015-.156.015-.11 0-.187-.094-.187-.281v-5.766h-.47v5.719c0 .484.188.734.563.734zm0 0"/></symbol><symbol overflow="visible" id="ax"><path d="M2 .11c.188 0 .453-.079.703-.172l-.11-.36a1.25 1.25 0 0 1-.515.125c-.562 0-.719-.344-.719-.89V-3.86h1.235v-.391H1.359v-1.234H.97L.922-4.25l-.688.031v.36h.672v2.64C.906-.422 1.156.11 2 .11zm0 0"/></symbol><symbol overflow="visible" id="ay"><path d="M2.375.11c1.031 0 1.922-.813 1.922-2.235s-.89-2.25-1.922-2.25c-1.031 0-1.922.828-1.922 2.25 0 1.422.89 2.234 1.922 2.234zm0-.407C1.547-.297.937-1.03.937-2.125c0-1.078.61-1.828 1.438-1.828s1.438.75 1.438 1.828c0 1.094-.61 1.828-1.438 1.828zm0 0"/></symbol><symbol overflow="visible" id="az"><path d="M2.813.11c1.046 0 2-.547 2-2.391v-3.547h-.47v3.531c0 1.516-.702 1.969-1.53 1.969-.813 0-1.516-.453-1.516-1.969v-3.531H.828v3.547c0 1.844.938 2.39 1.985 2.39zm0 0"/></symbol><symbol overflow="visible" id="aA"><path d="M.797 0h.469v-3.188c.484-.515.843-.765 1.343-.765.641 0 .922.406.922 1.297V0H4v-2.719c0-1.094-.406-1.656-1.297-1.656-.578 0-1.015.344-1.453.766h-.016l-.046-.641H.796zm0 0"/></symbol><symbol overflow="visible" id="aB"><path d="M.797 0h.469v-4.25h-.47zm.234-5.25c.219 0 .39-.156.39-.375 0-.234-.171-.375-.39-.375-.203 0-.39.14-.39.375 0 .219.187.375.39.375zm0 0"/></symbol><symbol overflow="visible" id="aC"><path d="M1.688 0h.546l1.563-4.25h-.469l-.922 2.61c-.14.406-.297.843-.422 1.218h-.03A13.953 13.953 0 0 1 1.53-1.64L.61-4.25h-.5zm0 0"/></symbol><symbol overflow="visible" id="aD"><path d="M2.422.11c.625 0 1.015-.204 1.36-.422l-.173-.344a1.916 1.916 0 0 1-1.14.375c-.906 0-1.531-.735-1.547-1.766h3.015c.016-.11.016-.219.016-.344 0-1.25-.61-1.984-1.64-1.984-.97 0-1.86.875-1.86 2.25 0 1.39.875 2.234 1.969 2.234zm-1.5-2.532C1-3.39 1.625-3.969 2.328-3.969c.735 0 1.203.516 1.203 1.547zm0 0"/></symbol><symbol overflow="visible" id="aE"><path d="M.797 0h.469v-2.86c.312-.796.765-1.062 1.14-1.062.172 0 .25.016.39.063l.095-.407a.828.828 0 0 0-.438-.109c-.484 0-.906.375-1.203.906h-.016l-.046-.781H.796zm0 0"/></symbol><symbol overflow="visible" id="aF"><path d="M1.844.11c.937 0 1.468-.563 1.468-1.22 0-.827-.718-1.046-1.374-1.296-.5-.188-1-.36-1-.828 0-.391.296-.735.921-.735.422 0 .735.156 1.016.375l.234-.312a1.968 1.968 0 0 0-1.234-.469c-.89 0-1.39.531-1.39 1.156 0 .735.703 1 1.328 1.219.5.172 1.03.406 1.03.922 0 .437-.327.797-.968.797C1.281-.281.891-.5.531-.812l-.25.328c.375.328.938.593 1.563.593zm0 0"/></symbol><symbol overflow="visible" id="aG"><path d="M.672 1.922c.797 0 1.219-.688 1.469-1.422l1.671-4.75h-.468l-.875 2.594c-.125.375-.25.812-.39 1.203h-.032c-.156-.39-.313-.828-.453-1.203L.609-4.25h-.5L1.844.063l-.11.359C1.531 1.032 1.188 1.5.672 1.5c-.125 0-.25-.031-.344-.063l-.11.391c.126.063.298.094.454.094zm0 0"/></symbol><symbol overflow="visible" id="aH"><path d="M.563 1.11c.562-.298.953-.829.953-1.516 0-.406-.172-.656-.485-.656-.218 0-.406.125-.406.39 0 .25.188.406.406.406.032 0 .063 0 .094-.015 0 .5-.281.86-.703 1.078zm0 0"/></symbol><symbol overflow="visible" id="aI"><path d="M2.39.11c1.141 0 1.876-.688 1.876-1.594 0-.875-.547-1.25-1.22-1.547l-.858-.375c-.438-.188-1-.438-1-1.094 0-.61.5-1 1.234-1 .578 0 1.031.234 1.375.594l.281-.313a2.236 2.236 0 0 0-1.656-.703c-.985 0-1.719.594-1.719 1.453 0 .86.656 1.235 1.188 1.453l.859.391c.578.25 1.031.484 1.031 1.188 0 .656-.531 1.109-1.39 1.109A2.219 2.219 0 0 1 .703-1.11l-.297.343C.875-.25 1.546.11 2.391.11zm0 0"/></symbol><symbol overflow="visible" id="aJ"><path d="M2.39.11c.547 0 1-.235 1.36-.563l-.219-.313c-.297.25-.672.47-1.11.47-.89 0-1.483-.735-1.483-1.829 0-1.078.64-1.828 1.484-1.828.406 0 .719.172.984.422l.266-.313c-.297-.265-.688-.531-1.25-.531-1.063 0-1.969.828-1.969 2.25 0 1.422.828 2.234 1.938 2.234zm0 0"/></symbol><symbol overflow="visible" id="aK"><path d="M.797 0h.469v-3.188c.484-.515.843-.765 1.343-.765.641 0 .922.406.922 1.297V0H4v-2.719c0-1.094-.406-1.656-1.297-1.656-.578 0-1.015.344-1.453.781l.016-.937v-1.813h-.47zm0 0"/></symbol><symbol overflow="visible" id="aL"><path d="M2.61-6.313a1.815 1.815 0 0 0-.641-.14C1.25-6.453.875-6 .875-5.156v.906l-.594.031v.36h.594V0h.453v-3.86h.969v-.39h-.969v-.875c0-.594.203-.938.656-.938.157 0 .329.047.5.125zm0 0"/></symbol><symbol overflow="visible" id="aM"><path d="M.844 0h1.734C3.875 0 4.75-.578 4.75-1.703c0-.797-.5-1.266-1.25-1.39v-.048c.578-.171.89-.671.89-1.265 0-.985-.765-1.422-1.937-1.422H.843zm.484-3.281v-2.14h1.016c1.031 0 1.562.28 1.562 1.077 0 .657-.453 1.063-1.61 1.063zm0 2.875v-2.485h1.125c1.156 0 1.813.375 1.813 1.188 0 .906-.688 1.297-1.813 1.297zm0 0"/></symbol><symbol overflow="visible" id="aN"><path d="M2.016.11c.593 0 1.03-.329 1.437-.813h.031L3.516 0h.39v-4.25h-.453v3.11c-.484.577-.828.827-1.328.827-.656 0-.922-.406-.922-1.28V-4.25H.734v2.719c0 1.093.407 1.64 1.282 1.64zm0 0"/></symbol><symbol overflow="visible" id="aO"><path d="M1.938.969l.28-.14c-.702-1.126-1.046-2.47-1.046-3.86 0-1.39.344-2.75 1.047-3.86l-.281-.14c-.735 1.156-1.172 2.437-1.172 4 0 1.547.437 2.828 1.171 4zm0 0"/></symbol><symbol overflow="visible" id="aP"><path d="M.844 0h.437v-3.688c0-.484-.031-1.124-.047-1.609h.032L1.719-4 2.953-.625h.375L4.547-4 5-5.297h.031c-.015.484-.047 1.125-.047 1.61V0h.454v-5.828h-.641l-1.203 3.36c-.14.421-.266.843-.422 1.265H3.14L2.687-2.47l-1.203-3.36h-.64zm0 0"/></symbol><symbol overflow="visible" id="aQ"><path d="M.578.969c.735-1.172 1.172-2.453 1.172-4 0-1.563-.438-2.844-1.172-4l-.281.14c.687 1.11 1.047 2.47 1.047 3.86 0 1.39-.36 2.734-1.047 3.86zm0 0"/></symbol><symbol overflow="visible" id="aR"><path d="M.844 0h.453v-3.484c0-.594-.031-1.125-.063-1.688h.047l.657 1.156L4.296 0h.5v-5.828h-.453v3.453c0 .578.031 1.156.062 1.734h-.031l-.656-1.187-2.375-4h-.5zm0 0"/></symbol><symbol overflow="visible" id="aS"><path d="M.844 0h.484v-2.453h1.063c1.296 0 2.093-.563 2.093-1.735 0-1.203-.812-1.64-2.125-1.64H.844zm.484-2.86v-2.562h.938C3.422-5.422 4-5.125 4-4.188c0 .938-.563 1.329-1.703 1.329zm0 0"/></symbol><symbol overflow="visible" id="aT"><path d="M.797 0h.469v-3.188c.437-.515.843-.765 1.218-.765.641 0 .922.406.922 1.297V0h.469v-3.188c.453-.515.844-.765 1.234-.765.61 0 .907.406.907 1.297V0h.468v-2.719c0-1.094-.421-1.656-1.28-1.656-.5 0-.954.344-1.438.875-.157-.531-.485-.875-1.172-.875-.485 0-.953.344-1.344.766h-.016l-.046-.641H.796zm0 0"/></symbol><symbol overflow="visible" id="aU"><path d="M2.938.11c.75 0 1.296-.313 1.734-.844l-.266-.297c-.406.453-.86.703-1.437.703-1.235 0-1.985-1.016-1.985-2.61 0-1.562.766-2.562 2-2.562.532 0 .954.234 1.266.594l.266-.313a1.985 1.985 0 0 0-1.532-.703c-1.468 0-2.5 1.14-2.5 3C.484-1.047 1.5.11 2.938.11zm0 0"/></symbol><symbol overflow="visible" id="aV"><path d="M2.219.11c.547 0 1.015-.297 1.36-.641h.015L3.656 0h.375v-6.344h-.468v1.735l.03.765c-.405-.328-.75-.531-1.265-.531-1 0-1.875.875-1.875 2.25C.453-.687 1.141.109 2.22.109zm.078-.407c-.875 0-1.36-.719-1.36-1.828 0-1.047.625-1.828 1.438-1.828.406 0 .766.14 1.188.515v2.47c-.422.437-.813.671-1.266.671zm0 0"/></symbol><symbol overflow="visible" id="aW"><path d="M.781-1.516c0-.53.406-.953.89-1.328.423.719 1.032 1.422 1.641 1.969-.359.36-.796.594-1.25.594-.703 0-1.28-.5-1.28-1.235zm.75-3.109c0-.516.297-.938.797-.938.453 0 .625.36.625.735 0 .578-.531.984-1.11 1.39-.202-.406-.312-.812-.312-1.187zm3.5 4.328c-.328-.11-.718-.328-1.125-.64.469-.61.797-1.344 1.031-2.125H4.5c-.203.718-.5 1.359-.906 1.859-.578-.5-1.188-1.203-1.578-1.906.656-.485 1.328-.985 1.328-1.75 0-.61-.36-1.063-1-1.063-.735 0-1.235.563-1.235 1.313 0 .437.141.921.391 1.421C.89-2.75.312-2.25.312-1.484c0 .953.735 1.593 1.704 1.593.656 0 1.171-.296 1.609-.718.453.359.89.593 1.266.718zm0 0"/></symbol><symbol overflow="visible" id="aX"><path d="M.844 0h3.312v-.422H1.328v-2.453h2.313v-.422H1.328v-2.11h2.734v-.421H.845zm0 0"/></symbol><symbol overflow="visible" id="aY"><path d="M2.89.11c1.422 0 2.422-1.188 2.422-3.047 0-1.844-1-2.985-2.421-2.985-1.407 0-2.407 1.14-2.407 2.984 0 1.86 1 3.047 2.407 3.047zm0-.438C1.735-.328.985-1.344.985-2.938c0-1.578.75-2.562 1.907-2.562 1.156 0 1.921.984 1.921 2.563 0 1.593-.765 2.609-1.921 2.609zm0 0"/></symbol><symbol overflow="visible" id="aZ"><path d="M.844 0h1.39c1.782 0 2.657-1.156 2.657-2.938 0-1.765-.875-2.89-2.672-2.89H.844zm.484-.406v-5.016h.844c1.531 0 2.219.984 2.219 2.484 0 1.516-.688 2.532-2.22 2.532zm0 0"/></symbol><symbol overflow="visible" id="ba"><path d="M1.453 0h.563l.687-2.547c.14-.422.235-.812.328-1.234h.047c.11.422.203.812.313 1.219L4.109 0h.594l1.203-4.25h-.453l-.719 2.672c-.109.406-.203.781-.296 1.156h-.032c-.125-.375-.218-.75-.312-1.156L3.328-4.25h-.515l-.75 2.672c-.11.406-.204.781-.313 1.156h-.031c-.078-.375-.172-.75-.282-1.156L.704-4.25h-.5zm0 0"/></symbol><symbol overflow="visible" id="bb"><path d="M2.203 2.031c1.235 0 2.031-.703 2.031-1.453 0-.672-.453-.984-1.421-.984h-.891c-.61 0-.797-.219-.797-.531 0-.266.156-.438.344-.594.187.125.453.187.672.187.843 0 1.515-.625 1.515-1.5 0-.437-.187-.812-.453-1.031h.969v-.375H2.719a1.443 1.443 0 0 0-.578-.125c-.829 0-1.516.625-1.516 1.516 0 .515.266.937.547 1.156v.031c-.203.14-.484.422-.484.797a.77.77 0 0 0 .39.688v.03C.688.11.438.485.438.86c0 .72.703 1.172 1.765 1.172zm-.062-3.734c-.563 0-1.063-.453-1.063-1.156C1.078-3.563 1.562-4 2.141-4c.578 0 1.062.438 1.062 1.14 0 .704-.5 1.157-1.062 1.157zm.109 3.375c-.875 0-1.375-.344-1.375-.86 0-.296.156-.609.531-.859.219.047.438.078.532.078h.875c.624 0 .968.157.968.61 0 .515-.61 1.03-1.531 1.03zm0 0"/></symbol><symbol overflow="visible" id="bc"><path d="M.688-2.047l1.578-2.312c.171-.266.328-.547.468-.813h.032c-.016.281-.047.703-.047.969v2.156zm3.312 0h-.828v-3.781h-.453L.156-1.953v.297H2.72V0h.453v-1.656H4zm0 0"/></symbol><symbol overflow="visible" id="bd"><path d="M.797 1.906h.469V.375L1.25-.422c.438.344.86.531 1.25.531 1 0 1.89-.859 1.89-2.312 0-1.297-.577-2.172-1.718-2.172-.516 0-1 .313-1.422.64h-.016l-.046-.515H.796zM2.469-.297c-.313 0-.75-.14-1.203-.531v-2.453c.484-.438.921-.672 1.328-.672.937 0 1.297.734 1.297 1.75 0 1.156-.594 1.906-1.422 1.906zm0 0"/></symbol><symbol overflow="visible" id="be"><path d="M5.781-6.531V.562h.422V-6.53zm-3.265.578C1.484-5.953.75-5 .75-3.516c0 1.485.734 2.438 1.766 2.438 1.03 0 1.75-.953 1.75-2.438 0-1.484-.72-2.437-1.75-2.437zm0 .375c.796 0 1.343.844 1.343 2.062 0 1.204-.546 2.063-1.343 2.063-.797 0-1.36-.86-1.36-2.063 0-1.218.563-2.062 1.36-2.062zm0 0"/></symbol><symbol overflow="visible" id="bf"><path d="M3.578-1.547H1.203v-2.047h2.375zm0-2.406H1.203v-1.969H.781v4.734H4v-4.734h-.422zm3.516.297h-1.25v-2.875h-.422V.562h.422V-3.28h1.25zm0 0"/></symbol><symbol overflow="visible" id="bg"><path d="M1.516-4.203c0-.86.906-1.453 2.14-1.453 1.219 0 2.125.593 2.125 1.453 0 .844-.906 1.453-2.125 1.453-1.234 0-2.14-.61-2.14-1.453zM3.859-.766v-1.656c1.375-.062 2.329-.75 2.329-1.781C6.188-5.297 5.14-6 3.655-6c-1.484 0-2.531.703-2.531 1.797 0 1.031.938 1.719 2.313 1.781v1.656H.453v.36h6.422v-.36zm0 0"/></symbol><symbol overflow="visible" id="bh"><path d="M1.734-1.563h-.421V.391h4.843V.03H1.734zm0-3.312h3.86v1.078h-3.86zm2.141 2.281v-.86h2.14V-6.25h-.421v1.016h-3.86V-6.25h-.421v2.797h2.14v.86h-3v.359H6.86v-.36zm0 0"/></symbol><symbol overflow="visible" id="bi"><path d="M5.61-3.578H1.718v-1.235h3.89zM6.03-6.25H5.61v1.078H1.72V-6.25h-.422v3.031H6.03zm.844 3.984H.437v.36h3V.562h.422v-2.468h3.016zm0 0"/></symbol><symbol overflow="visible" id="bj"><path d="M4.5-2.984c-.984-.329-1.781-1.188-1.781-2.157v-.484h1.687v-.344H.625v.344h1.688v.484c0 1.079-.844 2-1.844 2.36l.219.328c.843-.313 1.546-.985 1.843-1.844.281.766.953 1.36 1.75 1.656zM3.687.187c-1.14 0-1.874-.343-1.874-.921 0-.563.734-.907 1.875-.907 1.14 0 1.874.344 1.874.907 0 .578-.734.921-1.875.921zm0-2.171c-1.421 0-2.296.453-2.296 1.25C1.39.078 2.266.53 3.687.53 5.11.531 5.97.078 5.97-.734c0-.797-.86-1.25-2.282-1.25zm2.235-2.641v-1.906H5.5v4.312h.422v-2.047h1.11v-.359zm0 0"/></symbol><symbol overflow="visible" id="bk"><path d="M2.156.11c1.047 0 1.75-.657 1.75-1.485 0-.797-.5-1.219-.984-1.516v-.046c.312-.25.797-.813.797-1.438 0-.875-.578-1.531-1.547-1.531-.844 0-1.5.593-1.5 1.437 0 .625.375 1.047.797 1.328v.032c-.532.296-1.11.859-1.11 1.671C.36-.563 1.125.11 2.156.11zm.422-3.172c-.734-.282-1.453-.61-1.453-1.407 0-.61.438-1.062 1.031-1.062.719 0 1.125.547 1.125 1.172 0 .484-.25.921-.703 1.296zM2.156-.267c-.781 0-1.36-.53-1.36-1.203 0-.625.407-1.14.954-1.468.875.343 1.688.671 1.688 1.562 0 .61-.5 1.11-1.282 1.11zm0 0"/></symbol><symbol overflow="visible" id="bl"><path d="M1.813.11c1.078 0 1.484-.766 1.484-1.72v-4.218h-.485v4.172c0 .922-.328 1.328-1.015 1.328C1.313-.328.984-.516.687-1l-.359.234c.313.563.813.875 1.484.875zm0 0"/></symbol><symbol overflow="visible" id="bm"><path d="M2.344-.281C1.469-.281 1-1.11.938-2.375c.437-.61.953-.828 1.328-.828.828 0 1.187.594 1.187 1.453 0 .844-.469 1.469-1.11 1.469zM3.797-5.36a1.548 1.548 0 0 0-1.235-.563C1.47-5.922.47-5.094.47-2.75c0 1.86.75 2.86 1.875 2.86.844 0 1.562-.766 1.562-1.86 0-1.203-.578-1.828-1.578-1.828-.5 0-1.015.281-1.406.75.031-2 .765-2.703 1.656-2.703.36 0 .703.172.938.468zm0 0"/></symbol><symbol overflow="visible" id="bn"><path d="M1.64 0h.5c.094-2.281.376-3.734 1.75-5.547v-.281H.39v.422h2.938C2.172-3.796 1.734-2.328 1.641 0zm0 0"/></symbol><symbol overflow="visible" id="bo"><path d="M.844 0h.484v-2.766h2.313v-.406H1.328v-2.234h2.734v-.422H.845zm0 0"/></symbol><symbol overflow="visible" id="bp"><path d="M.844 0h.484v-5.828H.844zm0 0"/></symbol><symbol overflow="visible" id="bq"><path d="M2.078 0h.5v-5.406h1.828v-.422H.25v.422h1.828zm0 0"/></symbol><symbol overflow="visible" id="br"><path d="M.844 0h.484v-1.969l1.14-1.312L4.345 0h.562L2.781-3.656l1.86-2.172h-.563L1.344-2.656h-.016v-3.172H.844zm0 0"/></symbol><symbol overflow="visible" id="bs"><path d="M1.938 0h.53L4.36-5.828h-.484l-1.047 3.36c-.219.702-.375 1.234-.61 1.937h-.03a45.818 45.818 0 0 1-.594-1.938L.547-5.829H.03zm0 0"/></symbol><symbol overflow="visible" id="bt"><path d="M3 .11c.781 0 1.39-.282 1.75-.672v-2.329H2.937v.407h1.344V-.75c-.25.266-.734.422-1.234.422-1.313 0-2.063-1.016-2.063-2.61C.984-4.5 1.781-5.5 3.078-5.5c.64 0 1.031.266 1.328.594l.282-.313a2.11 2.11 0 0 0-1.61-.703c-1.531 0-2.594 1.14-2.594 3C.484-1.047 1.5.11 3 .11zm0 0"/></symbol><symbol overflow="visible" id="bu"><path d="M2.5.11c1 0 1.89-.86 1.89-2.313 0-1.297-.577-2.172-1.718-2.172-.516 0-1.016.297-1.438.656l.032-.812v-1.813h-.47V0h.376l.062-.438h.016c.39.329.86.547 1.25.547zm-.031-.407c-.313 0-.766-.14-1.203-.531v-2.453c.468-.438.921-.672 1.328-.672.937 0 1.297.734 1.297 1.75 0 1.156-.594 1.906-1.422 1.906zm0 0"/></symbol><symbol overflow="visible" id="bv"><path d="M4.594-2.469H5v-3.906h-.406v1.36H2.937v.359h1.657zM3.828-3.53c-.969.187-1.765.219-2.547.219v-2.72H.86v3.079h.422c.813 0 1.61-.031 2.61-.219zm-2.14 1.875h4.296V.562h.422v-2.578H1.688zm4.296-4.86v4.125h.422v-4.125zm0 0"/></symbol><symbol overflow="visible" id="bw"><path d="M6.5-2.844c-1-.203-2.64-1.281-2.64-2.578V-6h-.438v.578c0 1.313-1.625 2.36-2.625 2.578l.187.36c.954-.25 2.22-1.032 2.657-2.141.437 1.11 1.718 1.89 2.656 2.14zM.453-.813v.36h6.422v-.36zm0 0"/></symbol><symbol overflow="visible" id="bx"><path d="M6.86-2.984H5.75c.203-1.047.203-1.797.203-2.454v-.609H1.297v.36h4.25v.25c0 .656 0 1.421-.234 2.453H.452v.359h2.985V.563h.421v-3.188h3zm0 0"/></symbol><symbol overflow="visible" id="by"><path d="M6.39-6.531h-.406v5.328h.407zM4.61-1.406h.406v-4.969h-.407v1.734H3.344v.36h1.265zm-.673-1.407c-.874-.374-1.484-1.234-1.484-2.078v-1.125h-.39v1.125c0 .844-.657 1.844-1.532 2.266l.25.344c.703-.344 1.235-1.047 1.485-1.797.234.687.75 1.297 1.453 1.61zM2.282.031v-1.906H1.86V.391h4.766V.03zm0 0"/></symbol><symbol overflow="visible" id="bz"><path d="M1.203-1.563v-1.921H3.72v-.36H1.203V-5.5h2.86v-.36H.78v4.657h.531c1.438 0 2.282-.047 3.282-.234l-.032-.36c-1 .188-1.812.234-3.25.234zm4.594-4.984v2.781H4.172v.375h1.625V.563h.437v-7.11zm0 0"/></symbol><symbol overflow="visible" id="bA"><path d="M4.672-5.594H2.797v-.922h-.422v.922H.485v.36h4.187zM1.297-3.469c0-.562.531-.953 1.281-.953.766 0 1.266.39 1.266.953 0 .547-.5.953-1.266.953-.75 0-1.281-.406-1.281-.953zm2.953 0c0-.781-.672-1.297-1.672-1.297-1 0-1.672.516-1.672 1.297 0 .781.672 1.297 1.672 1.297 1 0 1.672-.515 1.672-1.297zM2.016-1.64h-.422V.391h4.672V.03h-4.25zm3.906-2.453v-2.422H5.5v5.313h.422v-2.531h1.11v-.36zm0 0"/></symbol><symbol overflow="visible" id="bB"><path d="M4.563-3.656h-1.36a5.988 5.988 0 0 0 .328-2.016H.844v.36h2.281A5.523 5.523 0 0 1 2.891-4L.5-3.828l.078.375 2.203-.219c-.36.922-1.062 1.766-2.25 2.39l.25.329c1.172-.64 1.875-1.469 2.281-2.36h1.5V.172h.407v-6.516h-.407zm1.468-2.89V.562h.407v-7.11zm0 0"/></symbol><symbol overflow="visible" id="bC"><path d="M.89-5.797v4.516h3.172v-4.516zm2.766.344v3.812h-2.36v-3.812zm2.125-1.078V.562h.422V-6.53zm0 0"/></symbol><symbol overflow="visible" id="bD"><path d="M.906-6.219v.36h2.656c-.03.312-.093.609-.203.875l-2.796.14.078.375 2.546-.187C2.735-3.922 1.891-3.344.626-3l.172.344c2.125-.594 3.219-1.86 3.219-3.563zM1.953-.89h3.969v-1.546H1.516v.343H5.5v.875H1.531V.453h4.672v-.36h-4.25zm3.969-3.921v-1.72H5.5v3.735h.422v-1.64h1.11v-.375zm0 0"/></symbol><symbol overflow="visible" id="bE"><path d="M6.89-3.234v-.36H5.814C6-4.484 6-5.156 6-5.688v-.5H1.281v.36h4.313v.14c0 .532 0 1.188-.219 2.094H.453v.36h3v1.484H1.141v.36h4.515V.561h.422V-1.75H3.875v-1.484zm0 0"/></symbol><symbol overflow="visible" id="bF"><path d="M.89-5.75v.36H3.72C3.609-3.64 2.53-2.126.579-1.189l.234.344C3.092-1.969 4.14-3.766 4.14-5.75zm4.907-.781V.562h.422V-6.53zm0 0"/></symbol><symbol overflow="visible" id="bG"><path d="M6.484-4.375C5.391-4.5 3.875-5.172 3.875-6.156V-6.5h-.438v.344c0 .984-1.515 1.656-2.609 1.781l.14.344c1.016-.157 2.266-.672 2.688-1.516.422.844 1.656 1.36 2.672 1.516zm.375 1.266v-.36H.453v.36h2.985v.843H1.25v.344h4.344v.813H1.266V.453H6.25V.11H1.687v-.89h4.329v-1.485H3.859v-.843zm0 0"/></symbol><symbol overflow="visible" id="bH"><path d="M5.61-5.531c0 .562 0 1.078-.204 1.797l.422.062c.188-.734.188-1.281.188-1.86v-.609H1.234v.36H5.61zM3.64.187c-1.203 0-2.015-.359-2.015-.937 0-.563.813-.938 2.016-.938s2.03.375 2.03.938c0 .578-.827.938-2.03.938zm0-2.218c-1.5 0-2.437.484-2.437 1.281 0 .813.938 1.281 2.438 1.281 1.5 0 2.437-.469 2.437-1.281 0-.797-.937-1.281-2.437-1.281zm.032-1.125v-1.438h-.438v1.438H.47v.36h6.39v-.36zm0 0"/></symbol><symbol overflow="visible" id="bI"><path d="M6.219-6.547H5.78v3.734h.438zM4.703-3.422c-.984-.36-1.875-1.265-1.875-2.344v-.546h-.422v.546c0 1.125-.86 2.11-1.86 2.485l.235.344c.828-.344 1.563-1.047 1.844-1.954.313.844 1.047 1.5 1.86 1.813zM2.156.11v-.968H6.22v-1.563h-4.5v.344h4.078v.89H1.734V.454H6.5V.11zm0 0"/></symbol><symbol overflow="visible" id="bJ"><path d="M5.797-1.188h.437V-6.53h-.437v1.75H4.109v.375h1.688zM4.547-2.78c-.969-.375-1.813-1.328-1.813-2.36v-.968h-.406v.921C2.328-4.046 1.484-3.03.5-2.64l.219.344A3.22 3.22 0 0 0 2.53-4.28c.297.828.985 1.5 1.781 1.828zM2.187.03v-1.843H1.75V.39h4.656V.03zm0 0"/></symbol><symbol overflow="visible" id="bK"><path d="M5.797-6.531v4.078h.422v-4.078zm-4.078 4.5V.453h4.5V-2.03zm4.078.344v1.78H2.125v-1.78zm-3.36-4.438c-1.046 0-1.78.64-1.78 1.625 0 .969.734 1.625 1.78 1.625C3.5-2.875 4.25-3.531 4.25-4.5c0-.984-.75-1.625-1.813-1.625zm0 .36c.813 0 1.407.53 1.407 1.265 0 .734-.594 1.266-1.406 1.266-.797 0-1.376-.532-1.376-1.266s.579-1.266 1.375-1.266zm0 0"/></symbol><symbol overflow="visible" id="bL"><path d="M4.625-4.188H2.656v-1.75h1.969zm-2.375 0H1.078v.344h5.14v-.344H5.048v-1.75h1.187v-.359H1.063v.36H2.25zM5.656.095H1.672V-1.36h3.984zM6.86-2.687v-.36H.453v.36h3v.984H1.266V.453h4.796v-2.156H3.86v-.984zm0 0"/></symbol><symbol overflow="visible" id="bM"><path d="M4.844-3.36c-1 .172-1.844.22-3.422.22h-.125v-1.157h2.75v-.344h-2.75v-1.093h2.937v-.36H.875v3.297h.547c1.594 0 2.437-.031 3.484-.219zM2.125-1.546h3.672v1.64H2.125zm-.406 2h4.5v-2.36h-4.5zM5.797-6.53v4.234h.422V-6.53zm0 0"/></symbol><symbol overflow="visible" id="bN"><path d="M4.5-3.078c-.969-.36-1.813-1.281-1.813-2.297v-.813h-.406v.797c0 1.157-.812 2.11-1.812 2.516l.219.344A3.152 3.152 0 0 0 2.5-4.5c.297.797.984 1.453 1.766 1.766zM3.687.187c-1.14 0-1.874-.343-1.874-.89 0-.563.734-.906 1.875-.906 1.14 0 1.874.343 1.874.906 0 .547-.734.89-1.875.89zm0-2.14c-1.437 0-2.296.453-2.296 1.25C1.39.094 2.25.53 3.687.53 5.11.531 5.97.094 5.97-.703c0-.797-.86-1.25-2.282-1.25zm2.235-2.64v-1.954H5.5v4.39h.422v-2.062h1.11v-.375zm0 0"/></symbol><symbol overflow="visible" id="bO"><path d="M1.016-3.688c1.046-.156 2.265-.671 2.64-1.515.39.844 1.61 1.36 2.64 1.516l.157-.344c-1.094-.14-2.547-.782-2.547-1.735v-.078h2.375v-.343H1.047v.343h2.375v.078c0 .954-1.453 1.594-2.563 1.735zm4.625 3c0 .547-.766.891-1.97.891-1.233 0-2-.344-2-.89 0-.547.766-.875 2-.875 1.204 0 1.97.328 1.97.875zm1.218-2.125v-.343H.453v.344h2.985v.906C2.062-1.86 1.25-1.438 1.25-.688c0 .797.89 1.22 2.406 1.22S6.062.108 6.062-.689c0-.75-.812-1.187-2.203-1.218v-.907zm0 0"/></symbol><symbol overflow="visible" id="bP"><path d="M1.047-4.453c0-.75.594-1.281 1.39-1.281.797 0 1.391.53 1.391 1.28 0 .735-.594 1.282-1.39 1.282-.797 0-1.391-.547-1.391-1.281zm3.187 0c0-.969-.75-1.64-1.796-1.64-1.063 0-1.797.671-1.797 1.64 0 .984.734 1.64 1.796 1.64 1.047 0 1.797-.656 1.797-1.64zM3.688.187c-1.141 0-1.876-.359-1.876-.937 0-.578.735-.938 1.875-.938 1.141 0 1.876.36 1.876.938s-.735.938-1.875.938zm0-2.218c-1.422 0-2.297.469-2.297 1.281 0 .828.875 1.281 2.296 1.281C5.11.531 5.97.078 5.97-.75c0-.813-.86-1.281-2.282-1.281zm2.234-2.625v-1.89H5.5v4.25h.422v-2h1.11v-.36zm0 0"/></symbol><symbol overflow="visible" id="bQ"><path d="M6.516-2.938C5.5-3.14 3.859-4.155 3.859-5.453v-.563h-.437v.563c0 1.297-1.64 2.312-2.656 2.516l.187.343c.953-.219 2.25-.969 2.688-2.062.453 1.093 1.734 1.843 2.687 2.062zM3.844-.78v-1.813h-.422V-.78H.453v.36h6.422v-.36zm0 0"/></symbol><symbol overflow="visible" id="bR"><path d="M.719 0v-6.422H4.5v1.156H2.094v1.329H4.5v1.156H2.094v1.61H4.5V0zm0 0"/></symbol><symbol overflow="visible" id="bS"><path d="M3.781-2.156c0-.383-.101-.688-.297-.906-.187-.227-.449-.344-.78-.344-.345 0-.618.113-.813.328-.188.219-.282.523-.282.906 0 .399.094.707.282.922.195.219.46.328.796.328.352 0 .626-.11.813-.328.184-.215.281-.52.281-.906zM4.921 0H3.72l.015-.625c-.18.281-.386.488-.625.61a1.84 1.84 0 0 1-.859.187c-.574 0-1.04-.207-1.39-.625C.515-.88.343-1.441.343-2.141c0-.726.172-1.296.515-1.703.34-.402.82-.61 1.438-.61.308 0 .582.075.812.22.239.136.461.363.672.671a6.59 6.59 0 0 1-.047-.78v-2.454h1.188zm0 0"/></symbol><symbol overflow="visible" id="bT"><path d="M1.828-4.297v2.25c0 .387.07.664.219.828.152.157.398.235.734.235.32 0 .555-.079.703-.235.153-.164.235-.441.235-.828v-2.25h1.25v2.25c0 .762-.18 1.324-.532 1.688-.355.355-.902.53-1.64.53-.762 0-1.32-.175-1.672-.53C.77-.723.594-1.285.594-2.047v-2.25zm0 0"/></symbol><symbol overflow="visible" id="bU"><path d="M3.781-.125a1.738 1.738 0 0 1-.531.219c-.188.05-.398.078-.625.078-.68 0-1.23-.211-1.656-.64-.43-.434-.64-1-.64-1.688 0-.676.21-1.227.64-1.656.433-.426 1-.641 1.687-.641.215 0 .414.027.594.078.184.043.363.113.531.203l-.015 1.25a1.325 1.325 0 0 0-.454-.312 1.409 1.409 0 0 0-.546-.11c-.356 0-.637.114-.844.328-.211.211-.313.493-.313.844 0 .367.102.66.313.875.215.211.508.313.875.313.207 0 .39-.036.547-.11a1.19 1.19 0 0 0 .422-.343zm0 0"/></symbol><symbol overflow="visible" id="bV"><path d="M3.781-2.156c0-.383-.101-.688-.297-.906-.187-.227-.449-.344-.78-.344-.345 0-.618.117-.813.344-.188.218-.282.523-.282.906 0 .386.094.691.282.906.195.219.46.328.796.328.352 0 .626-.11.813-.328.184-.215.281-.52.281-.906zM4.921 0H3.72l.015-.625c-.18.281-.386.488-.625.61a1.84 1.84 0 0 1-.859.187c-.574 0-1.04-.207-1.39-.625C.515-.88.343-1.441.343-2.141c0-.726.172-1.296.515-1.703.34-.402.82-.61 1.438-.61.308 0 .586.075.828.22.238.148.441.363.61.64v-.703h1.187zm0 0"/></symbol><symbol overflow="visible" id="bW"><path d="M.766 0v-3.328h-.61v-.969h.61v-1.437h1.25v1.437h.593v.969h-.593V0zm0 0"/></symbol><symbol overflow="visible" id="bX"><path d="M.547-6.078c0-.195.07-.363.219-.5a.72.72 0 0 1 1.031 0 .666.666 0 0 1 .219.5.722.722 0 0 1-.735.734c-.199 0-.37-.07-.515-.218a.691.691 0 0 1-.22-.516zM.657 0v-4.297h1.25V0zm0 0"/></symbol><symbol overflow="visible" id="bY"><path d="M3.86-2.14c0-.352-.106-.633-.313-.844-.2-.207-.473-.313-.813-.313-.343 0-.62.106-.828.313-.199.21-.297.492-.297.843 0 .344.098.63.297.844.207.211.485.313.828.313.34 0 .614-.102.813-.313.207-.215.312-.5.312-.844zm1.28 0c0 .667-.23 1.222-.687 1.656-.45.437-1.023.656-1.719.656C2.035.172 1.457-.047 1-.484.55-.918.328-1.473.328-2.141c0-.652.227-1.203.688-1.64.457-.446 1.03-.672 1.718-.672.696 0 1.27.223 1.72.656.456.438.687.992.687 1.656zm0 0"/></symbol><symbol overflow="visible" id="bZ"><path d="M.61 0v-4.297h1.218v.672c.227-.277.473-.488.734-.625.258-.133.547-.203.86-.203a1.9 1.9 0 0 1 .844.172c.226.117.406.289.53.515.06.125.11.27.141.422.028.149.047.38.047.688V0h-1.25v-2.125c0-.527-.066-.879-.187-1.047-.125-.176-.34-.265-.64-.265-.169 0-.325.039-.47.109a.93.93 0 0 0-.359.312 1.223 1.223 0 0 0-.172.36 2.7 2.7 0 0 0-.047.594V0zm0 0"/></symbol><symbol overflow="visible" id="ca"><path d="M2.094-3.516h.203c.371 0 .644-.078.812-.234.176-.152.266-.406.266-.75 0-.309-.09-.54-.266-.688-.168-.144-.441-.218-.812-.218h-.203zM.719 0v-6.422h1.578c.84 0 1.46.164 1.86.484.402.325.609.82.609 1.485 0 .625-.207 1.117-.61 1.469-.406.355-.965.53-1.672.53h-.39V0zm0 0"/></symbol><symbol overflow="visible" id="cb"><path d="M.188-.75l.968-.5a.617.617 0 0 0 .25.406c.145.094.32.14.532.14.195 0 .351-.034.468-.109.121-.082.188-.187.188-.312 0-.207-.211-.383-.625-.531a2.457 2.457 0 0 1-.313-.11c-.5-.183-.851-.375-1.047-.562a.97.97 0 0 1-.296-.719c0-.426.164-.77.5-1.031.332-.258.769-.39 1.312-.39.383 0 .719.081 1 .234.277.156.484.379.61.656l-.907.453a.734.734 0 0 0-.265-.36.847.847 0 0 0-.47-.124.726.726 0 0 0-.437.125c-.117.074-.172.168-.172.28 0 .22.282.427.844.61.07.012.125.028.156.047.465.149.801.324 1 .531.207.211.313.477.313.797 0 .43-.168.77-.5 1.016-.336.246-.785.375-1.344.375-.437 0-.82-.086-1.14-.25C.5-.242.288-.468.188-.75zm0 0"/></symbol><symbol overflow="visible" id="cc"><path d="M1.813-3.203c.12-.414.304-.727.546-.938.239-.207.532-.312.875-.312.082 0 .211.02.391.047a.199.199 0 0 0 .078.015l-.187 1.344a1.126 1.126 0 0 0-.282-.078 1.471 1.471 0 0 0-.296-.031c-.387 0-.665.101-.829.297-.168.187-.25.511-.25.968V0H.61v-4.297h1.235zm0 0"/></symbol><symbol overflow="visible" id="cd"><path d="M.766 0v-3.328H.203v-.969h.563v-.969c0-.582.129-1 .39-1.25.27-.246.711-.375 1.328-.375.059 0 .133.008.22.016.089.012.21.04.358.078v1a1.473 1.473 0 0 0-.218-.094.87.87 0 0 0-.219-.03c-.219 0-.379.058-.469.171-.094.117-.14.316-.14.594v.86h.796v.968h-.796V0zm0 0"/></symbol><symbol overflow="visible" id="ce"><path d="M3.578-2.594c-.043-.27-.148-.472-.312-.61-.157-.144-.38-.218-.657-.218-.28 0-.507.074-.671.219-.168.137-.274.34-.313.61zm1.235.75H1.578c.05.313.164.551.344.703.176.149.41.22.703.22.227 0 .426-.04.594-.126.164-.09.304-.226.422-.406l1 .516c-.23.375-.512.66-.844.843-.336.176-.73.266-1.188.266-.699 0-1.254-.207-1.656-.625-.406-.414-.61-.973-.61-1.672 0-.676.212-1.234.641-1.672.426-.433.97-.656 1.625-.656.684 0 1.227.21 1.625.625.395.406.594.96.594 1.656v.14c0 .044-.008.106-.016.188zm0 0"/></symbol><symbol overflow="visible" id="cf"><path d="M.656 0v-6.797h1.25V0zm0 0"/></symbol><symbol overflow="visible" id="ch"><path d="M1.406 0H-.078l1.531-2.188L0-4.296h1.563l.421.797c.051.094.098.2.141.313.04.105.082.222.125.343.027-.113.066-.222.11-.328.05-.113.109-.226.171-.344l.453-.78H4.47L3-2.22 4.547 0H3l-.5-.875a6.766 6.766 0 0 1-.172-.328 1.794 1.794 0 0 1-.094-.344c-.03.117-.074.23-.125.344a2.22 2.22 0 0 1-.171.328zm0 0"/></symbol><symbol overflow="visible" id="ci"><path d="M1.75-2.156c0 .386.094.691.281.906.196.219.469.328.813.328.34 0 .61-.11.797-.328.183-.215.28-.52.28-.906 0-.383-.1-.688-.296-.906-.188-.227-.457-.344-.797-.344-.336 0-.601.117-.797.344-.187.218-.281.523-.281.906zM.61 1.954v-6.25h1.203v.702c.152-.277.351-.492.593-.64a1.57 1.57 0 0 1 .828-.22c.614 0 1.094.208 1.438.61.34.406.516.977.516 1.703 0 .7-.176 1.262-.516 1.688-.344.418-.805.625-1.375.625-.344 0-.637-.067-.875-.188-.23-.12-.434-.328-.61-.609.02.117.032.238.032.36.008.124.015.269.015.437v1.781zm0 0"/></symbol></defs><g fill="#898989"><use xlink:href="#a" x="28.312" y="819.169"/><use xlink:href="#b" x="31.878" y="819.169"/></g><g fill="#898989"><use xlink:href="#c" x="36.193" y="819.169"/><use xlink:href="#c" x="38.283" y="819.169"/></g><g fill="#595757"><use xlink:href="#d" x="488.559" y="818.993"/><use xlink:href="#e" x="491.735" y="818.993"/><use xlink:href="#f" x="493.245" y="818.993"/><use xlink:href="#g" x="494.629" y="818.993"/><use xlink:href="#h" x="496.187" y="818.993"/><use xlink:href="#i" x="501.581" y="818.993"/><use xlink:href="#j" x="506.974" y="818.993"/><use xlink:href="#k" x="512.368" y="818.993"/><use xlink:href="#g" x="517.761" y="818.993"/><use xlink:href="#l" x="519.319" y="818.993"/><use xlink:href="#m" x="524.713" y="818.993"/><use xlink:href="#g" x="530.106" y="818.993"/><use xlink:href="#n" x="531.664" y="818.993"/><use xlink:href="#o" x="537.058" y="818.993"/><use xlink:href="#g" x="542.451" y="818.993"/><use xlink:href="#p" x="544.009" y="818.993"/><use xlink:href="#q" x="549.403" y="818.993"/><use xlink:href="#g" x="554.796" y="818.993"/><use xlink:href="#g" x="556.354" y="818.993"/><use xlink:href="#g" x="557.912" y="818.993"/></g><use xlink:href="#r" x="163.502" y="48.883"/><use xlink:href="#s" x="172.491" y="48.883"/><use xlink:href="#t" x="181.48" y="48.883"/><use xlink:href="#u" x="190.469" y="48.883"/><use xlink:href="#v" x="193.066" y="48.883"/><use xlink:href="#w" x="202.055" y="48.883"/><use xlink:href="#x" x="211.044" y="48.883"/><use xlink:href="#y" x="220.033" y="48.883"/><use xlink:href="#v" x="163.502" y="66.861"/><use xlink:href="#z" x="172.491" y="66.861"/><use xlink:href="#A" x="181.48" y="66.861"/><use xlink:href="#B" x="190.469" y="66.861"/><use xlink:href="#C" x="199.458" y="66.861"/><use xlink:href="#D" x="163.502" y="419.772"/><use xlink:href="#E" x="172.491" y="419.772"/><use xlink:href="#F" x="181.48" y="419.772"/><use xlink:href="#C" x="190.469" y="419.772"/><use xlink:href="#G" x="193.066" y="419.772"/><use xlink:href="#H" x="202.055" y="419.772"/><use xlink:href="#x" x="163.502" y="437.75"/><use xlink:href="#I" x="172.491" y="437.75"/><use xlink:href="#A" x="181.48" y="437.75"/><use xlink:href="#B" x="190.469" y="437.75"/><use xlink:href="#J" x="163.502" y="142.914"/><use xlink:href="#K" x="167.617" y="142.914"/><use xlink:href="#L" x="171.732" y="142.914"/><use xlink:href="#L" x="175.847" y="142.914"/><use xlink:href="#M" x="179.962" y="142.914"/><use xlink:href="#K" x="181.808" y="142.914"/><use xlink:href="#N" x="185.923" y="142.914"/><use xlink:href="#O" x="190.038" y="142.914"/><use xlink:href="#P" x="192.115" y="142.914"/><use xlink:href="#O" x="196.23" y="142.914"/><use xlink:href="#J" x="198.308" y="142.914"/><use xlink:href="#K" x="202.423" y="142.914"/><use xlink:href="#L" x="206.538" y="142.914"/><use xlink:href="#Q" x="210.653" y="142.914"/><use xlink:href="#M" x="214.768" y="142.914"/><use xlink:href="#K" x="216.613" y="142.914"/><use xlink:href="#J" x="220.728" y="142.914"/><use xlink:href="#O" x="224.843" y="142.914"/><use xlink:href="#L" x="163.502" y="157.896"/><use xlink:href="#N" x="167.617" y="157.896"/><use xlink:href="#N" x="171.732" y="157.896"/><use xlink:href="#N" x="175.847" y="157.896"/><use xlink:href="#M" x="179.962" y="157.896"/><use xlink:href="#K" x="181.808" y="157.896"/><use xlink:href="#Q" x="185.923" y="157.896"/><use xlink:href="#O" x="190.038" y="157.896"/><use xlink:href="#P" x="192.115" y="157.896"/><use xlink:href="#O" x="196.23" y="157.896"/><use xlink:href="#J" x="198.308" y="157.896"/><use xlink:href="#K" x="202.423" y="157.896"/><use xlink:href="#K" x="206.538" y="157.896"/><use xlink:href="#L" x="210.653" y="157.896"/><use xlink:href="#M" x="214.768" y="157.896"/><use xlink:href="#K" x="216.613" y="157.896"/><use xlink:href="#J" x="220.728" y="157.896"/><use xlink:href="#O" x="224.843" y="157.896"/><use xlink:href="#L" x="163.502" y="172.878"/><use xlink:href="#N" x="167.617" y="172.878"/><use xlink:href="#N" x="171.732" y="172.878"/><use xlink:href="#R" x="175.847" y="172.878"/><use xlink:href="#M" x="179.962" y="172.878"/><use xlink:href="#K" x="181.808" y="172.878"/><use xlink:href="#Q" x="185.923" y="172.878"/><use xlink:href="#O" x="190.038" y="172.878"/><use xlink:href="#P" x="192.115" y="172.878"/><use xlink:href="#O" x="196.23" y="172.878"/><use xlink:href="#L" x="198.308" y="172.878"/><use xlink:href="#N" x="202.423" y="172.878"/><use xlink:href="#N" x="206.538" y="172.878"/><use xlink:href="#N" x="210.653" y="172.878"/><use xlink:href="#M" x="214.768" y="172.878"/><use xlink:href="#K" x="216.613" y="172.878"/><use xlink:href="#J" x="220.728" y="172.878"/><use xlink:href="#J" x="163.502" y="513.799"/><use xlink:href="#K" x="167.617" y="513.799"/><use xlink:href="#J" x="171.732" y="513.799"/><use xlink:href="#K" x="175.847" y="513.799"/><use xlink:href="#O" x="179.962" y="513.799"/><use xlink:href="#S" x="182.039" y="513.799"/><use xlink:href="#T" x="199.458" y="513.799"/><use xlink:href="#U" x="206.649" y="513.799"/><use xlink:href="#V" x="213.841" y="513.799"/><use xlink:href="#W" x="221.032" y="513.799"/><use xlink:href="#X" x="228.223" y="513.799"/><use xlink:href="#O" x="235.414" y="513.799"/><use xlink:href="#Y" x="237.492" y="513.799"/><use xlink:href="#W" x="244.683" y="513.799"/><use xlink:href="#V" x="251.874" y="513.799"/><use xlink:href="#W" x="259.066" y="513.799"/><use xlink:href="#Z" x="266.257" y="513.799"/><use xlink:href="#O" x="273.448" y="513.799"/><use xlink:href="#aa" x="275.526" y="513.799"/><use xlink:href="#Y" x="282.717" y="513.799"/><use xlink:href="#ab" x="289.908" y="513.799"/><use xlink:href="#ac" x="297.099" y="513.799"/><use xlink:href="#O" x="304.291" y="513.799"/><use xlink:href="#ad" x="306.368" y="513.799"/><use xlink:href="#ae" x="313.559" y="513.799"/><use xlink:href="#af" x="320.751" y="513.799"/><use xlink:href="#ag" x="327.942" y="513.799"/><use xlink:href="#O" x="335.133" y="513.799"/><use xlink:href="#ah" x="337.211" y="513.799"/><use xlink:href="#ai" x="344.402" y="513.799"/><use xlink:href="#O" x="351.593" y="513.799"/><g><use xlink:href="#L" x="163.502" y="528.781"/><use xlink:href="#N" x="167.617" y="528.781"/><use xlink:href="#N" x="171.732" y="528.781"/><use xlink:href="#R" x="175.847" y="528.781"/><use xlink:href="#S" x="179.962" y="528.781"/></g><g><use xlink:href="#O" x="199.458" y="528.781"/><use xlink:href="#aj" x="201.536" y="528.781"/><use xlink:href="#ak" x="208.727" y="528.781"/><use xlink:href="#V" x="215.918" y="528.781"/><use xlink:href="#W" x="223.109" y="528.781"/><use xlink:href="#X" x="230.301" y="528.781"/><use xlink:href="#O" x="237.492" y="528.781"/><use xlink:href="#al" x="239.569" y="528.781"/><use xlink:href="#am" x="246.761" y="528.781"/><use xlink:href="#W" x="253.952" y="528.781"/><use xlink:href="#O" x="261.143" y="528.781"/><use xlink:href="#V" x="263.221" y="528.781"/><use xlink:href="#W" x="270.412" y="528.781"/><use xlink:href="#Z" x="277.603" y="528.781"/><use xlink:href="#O" x="284.794" y="528.781"/><use xlink:href="#an" x="286.872" y="528.781"/><use xlink:href="#ae" x="294.063" y="528.781"/><use xlink:href="#O" x="301.254" y="528.781"/><use xlink:href="#ao" x="303.332" y="528.781"/><use xlink:href="#ac" x="310.523" y="528.781"/></g><g><use xlink:href="#L" x="163.502" y="543.762"/><use xlink:href="#N" x="167.617" y="543.762"/><use xlink:href="#N" x="171.732" y="543.762"/><use xlink:href="#Q" x="175.847" y="543.762"/><use xlink:href="#O" x="179.962" y="543.762"/><use xlink:href="#S" x="182.039" y="543.762"/></g><g><use xlink:href="#ap" x="199.458" y="543.762"/><use xlink:href="#aq" x="206.649" y="543.762"/><use xlink:href="#V" x="213.841" y="543.762"/><use xlink:href="#W" x="221.032" y="543.762"/><use xlink:href="#X" x="228.223" y="543.762"/><use xlink:href="#O" x="235.414" y="543.762"/><use xlink:href="#ar" x="237.492" y="543.762"/><use xlink:href="#as" x="244.683" y="543.762"/><use xlink:href="#at" x="251.874" y="543.762"/><use xlink:href="#Z" x="259.066" y="543.762"/><use xlink:href="#W" x="266.257" y="543.762"/><use xlink:href="#O" x="273.448" y="543.762"/><use xlink:href="#W" x="275.526" y="543.762"/><use xlink:href="#ae" x="282.717" y="543.762"/><use xlink:href="#O" x="289.908" y="543.762"/><use xlink:href="#ao" x="291.986" y="543.762"/><use xlink:href="#ac" x="299.177" y="543.762"/></g><g><use xlink:href="#au" x="240.888" y="142.914"/></g><g><use xlink:href="#av" x="245.658" y="142.914"/><use xlink:href="#aw" x="249.869" y="142.914"/><use xlink:href="#ax" x="251.843" y="142.914"/></g><g><use xlink:href="#ay" x="254.392" y="142.914"/><use xlink:href="#O" x="258.978" y="142.914"/><use xlink:href="#az" x="261.056" y="142.914"/><use xlink:href="#aA" x="266.529" y="142.914"/><use xlink:href="#aB" x="271.107" y="142.914"/><use xlink:href="#aC" x="273.001" y="142.914"/><use xlink:href="#aD" x="276.749" y="142.914"/><use xlink:href="#aE" x="280.887" y="142.914"/><use xlink:href="#aF" x="283.596" y="142.914"/><use xlink:href="#aB" x="287.048" y="142.914"/><use xlink:href="#ax" x="288.942" y="142.914"/><use xlink:href="#aG" x="291.594" y="142.914"/><use xlink:href="#aH" x="295.35" y="142.914"/><use xlink:href="#O" x="297.196" y="142.914"/><use xlink:href="#aI" x="299.273" y="142.914"/><use xlink:href="#aJ" x="303.748" y="142.914"/><use xlink:href="#aK" x="307.575" y="142.914"/><use xlink:href="#ay" x="312.121" y="142.914"/><use xlink:href="#ay" x="316.708" y="142.914"/><use xlink:href="#aw" x="321.294" y="142.914"/><use xlink:href="#O" x="323.268" y="142.914"/><use xlink:href="#ay" x="325.345" y="142.914"/><use xlink:href="#aL" x="329.932" y="142.914"/><use xlink:href="#O" x="332.153" y="142.914"/><use xlink:href="#aM" x="334.231" y="142.914"/><use xlink:href="#aN" x="339.201" y="142.914"/><use xlink:href="#aF" x="343.755" y="142.914"/><use xlink:href="#aB" x="347.207" y="142.914"/><use xlink:href="#aA" x="349.101" y="142.914"/><use xlink:href="#aD" x="353.679" y="142.914"/><use xlink:href="#aF" x="357.818" y="142.914"/><use xlink:href="#aF" x="361.27" y="142.914"/><use xlink:href="#O" x="364.722" y="142.914"/><use xlink:href="#aO" x="366.799" y="142.914"/><use xlink:href="#aP" x="369.148" y="142.914"/><use xlink:href="#aM" x="375.277" y="142.914"/><use xlink:href="#au" x="380.247" y="142.914"/><use xlink:href="#aQ" x="384.777" y="142.914"/></g><g><use xlink:href="#aI" x="240.888" y="157.896"/><use xlink:href="#aD" x="245.363" y="157.896"/><use xlink:href="#ay" x="249.502" y="157.896"/><use xlink:href="#aN" x="254.088" y="157.896"/><use xlink:href="#aw" x="258.643" y="157.896"/><use xlink:href="#O" x="260.616" y="157.896"/><use xlink:href="#aR" x="262.694" y="157.896"/><use xlink:href="#av" x="268.183" y="157.896"/></g><g><use xlink:href="#ax" x="272.29" y="157.896"/><use xlink:href="#aB" x="274.943" y="157.896"/><use xlink:href="#ay" x="276.836" y="157.896"/><use xlink:href="#aA" x="281.423" y="157.896"/><use xlink:href="#av" x="286.001" y="157.896"/><use xlink:href="#aw" x="290.212" y="157.896"/><use xlink:href="#O" x="292.186" y="157.896"/><use xlink:href="#az" x="294.263" y="157.896"/><use xlink:href="#aA" x="299.737" y="157.896"/><use xlink:href="#aB" x="304.315" y="157.896"/><use xlink:href="#aC" x="306.209" y="157.896"/><use xlink:href="#aD" x="309.956" y="157.896"/><use xlink:href="#aE" x="314.095" y="157.896"/><use xlink:href="#aF" x="316.804" y="157.896"/><use xlink:href="#aB" x="320.256" y="157.896"/><use xlink:href="#ax" x="322.149" y="157.896"/><use xlink:href="#aG" x="324.802" y="157.896"/><use xlink:href="#aH" x="328.557" y="157.896"/><use xlink:href="#O" x="330.403" y="157.896"/><use xlink:href="#aI" x="332.481" y="157.896"/><use xlink:href="#aJ" x="336.955" y="157.896"/><use xlink:href="#aK" x="340.783" y="157.896"/><use xlink:href="#ay" x="345.329" y="157.896"/><use xlink:href="#ay" x="349.916" y="157.896"/><use xlink:href="#aw" x="354.502" y="157.896"/><use xlink:href="#O" x="356.476" y="157.896"/><use xlink:href="#ay" x="358.553" y="157.896"/><use xlink:href="#aL" x="363.139" y="157.896"/><use xlink:href="#O" x="365.361" y="157.896"/><use xlink:href="#aS" x="367.438" y="157.896"/><use xlink:href="#aK" x="372.168" y="157.896"/><use xlink:href="#av" x="376.715" y="157.896"/><use xlink:href="#aE" x="380.926" y="157.896"/><use xlink:href="#aT" x="383.635" y="157.896"/><use xlink:href="#av" x="390.698" y="157.896"/><use xlink:href="#aJ" x="394.909" y="157.896"/></g><g><use xlink:href="#aG" x="398.808" y="157.896"/><use xlink:href="#aH" x="402.563" y="157.896"/><use xlink:href="#O" x="404.409" y="157.896"/><use xlink:href="#aS" x="406.487" y="157.896"/><use xlink:href="#aK" x="411.217" y="157.896"/><use xlink:href="#av" x="415.763" y="157.896"/><use xlink:href="#aE" x="419.974" y="157.896"/><use xlink:href="#aT" x="422.683" y="157.896"/><use xlink:href="#av" x="429.746" y="157.896"/><use xlink:href="#aJ" x="433.957" y="157.896"/></g><g><use xlink:href="#aD" x="437.617" y="157.896"/><use xlink:href="#aN" x="441.756" y="157.896"/><use xlink:href="#ax" x="446.31" y="157.896"/><use xlink:href="#aB" x="448.963" y="157.896"/><use xlink:href="#aJ" x="450.857" y="157.896"/></g><g><use xlink:href="#av" x="454.596" y="157.896"/><use xlink:href="#aw" x="458.807" y="157.896"/><use xlink:href="#O" x="460.781" y="157.896"/><use xlink:href="#aI" x="462.858" y="157.896"/><use xlink:href="#aJ" x="467.333" y="157.896"/><use xlink:href="#aB" x="471.16" y="157.896"/><use xlink:href="#aD" x="473.054" y="157.896"/><use xlink:href="#aA" x="477.193" y="157.896"/><use xlink:href="#aJ" x="481.771" y="157.896"/></g><g><use xlink:href="#aD" x="485.431" y="157.896"/><use xlink:href="#O" x="489.57" y="157.896"/><use xlink:href="#aO" x="491.647" y="157.896"/><use xlink:href="#aP" x="493.996" y="157.896"/><use xlink:href="#aI" x="500.125" y="157.896"/><use xlink:href="#aU" x="504.599" y="157.896"/><use xlink:href="#aQ" x="509.449" y="157.896"/><use xlink:href="#O" x="511.799" y="157.896"/></g><g><use xlink:href="#aI" x="240.888" y="172.878"/><use xlink:href="#aD" x="245.363" y="172.878"/><use xlink:href="#ay" x="249.502" y="172.878"/><use xlink:href="#aN" x="254.088" y="172.878"/><use xlink:href="#aw" x="258.643" y="172.878"/><use xlink:href="#O" x="260.616" y="172.878"/><use xlink:href="#aR" x="262.694" y="172.878"/><use xlink:href="#av" x="268.183" y="172.878"/></g><g><use xlink:href="#ax" x="272.29" y="172.878"/><use xlink:href="#aB" x="274.943" y="172.878"/><use xlink:href="#ay" x="276.836" y="172.878"/><use xlink:href="#aA" x="281.423" y="172.878"/><use xlink:href="#av" x="286.001" y="172.878"/><use xlink:href="#aw" x="290.212" y="172.878"/><use xlink:href="#O" x="292.186" y="172.878"/><use xlink:href="#az" x="294.263" y="172.878"/><use xlink:href="#aA" x="299.737" y="172.878"/><use xlink:href="#aB" x="304.315" y="172.878"/><use xlink:href="#aC" x="306.209" y="172.878"/><use xlink:href="#aD" x="309.956" y="172.878"/><use xlink:href="#aE" x="314.095" y="172.878"/><use xlink:href="#aF" x="316.804" y="172.878"/><use xlink:href="#aB" x="320.256" y="172.878"/><use xlink:href="#ax" x="322.149" y="172.878"/><use xlink:href="#aG" x="324.802" y="172.878"/><use xlink:href="#aH" x="328.557" y="172.878"/><use xlink:href="#O" x="330.403" y="172.878"/><use xlink:href="#aI" x="332.481" y="172.878"/><use xlink:href="#aJ" x="336.955" y="172.878"/><use xlink:href="#aK" x="340.783" y="172.878"/><use xlink:href="#ay" x="345.329" y="172.878"/><use xlink:href="#ay" x="349.916" y="172.878"/><use xlink:href="#aw" x="354.502" y="172.878"/><use xlink:href="#O" x="356.476" y="172.878"/><use xlink:href="#ay" x="358.553" y="172.878"/><use xlink:href="#aL" x="363.139" y="172.878"/><use xlink:href="#O" x="365.361" y="172.878"/><use xlink:href="#aS" x="367.438" y="172.878"/><use xlink:href="#aK" x="372.168" y="172.878"/><use xlink:href="#av" x="376.715" y="172.878"/><use xlink:href="#aE" x="380.926" y="172.878"/><use xlink:href="#aT" x="383.635" y="172.878"/><use xlink:href="#av" x="390.698" y="172.878"/><use xlink:href="#aJ" x="394.909" y="172.878"/></g><g><use xlink:href="#aG" x="398.808" y="172.878"/><use xlink:href="#O" x="402.563" y="172.878"/><use xlink:href="#aO" x="404.641" y="172.878"/><use xlink:href="#aM" x="406.99" y="172.878"/><use xlink:href="#av" x="411.96" y="172.878"/><use xlink:href="#aJ" x="416.171" y="172.878"/><use xlink:href="#aK" x="419.998" y="172.878"/><use xlink:href="#aD" x="424.545" y="172.878"/><use xlink:href="#aw" x="428.684" y="172.878"/><use xlink:href="#ay" x="430.657" y="172.878"/><use xlink:href="#aE" x="435.244" y="172.878"/><use xlink:href="#aQ" x="437.952" y="172.878"/></g><g><use xlink:href="#aS" x="163.502" y="214.371"/><use xlink:href="#aE" x="168.232" y="214.371"/></g><g><use xlink:href="#aD" x="170.853" y="214.371"/><use xlink:href="#aF" x="174.992" y="214.371"/><use xlink:href="#aB" x="178.444" y="214.371"/><use xlink:href="#aV" x="180.338" y="214.371"/><use xlink:href="#aD" x="185.012" y="214.371"/><use xlink:href="#aA" x="189.151" y="214.371"/><use xlink:href="#ax" x="193.729" y="214.371"/><use xlink:href="#O" x="196.382" y="214.371"/><use xlink:href="#aW" x="198.46" y="214.371"/><use xlink:href="#O" x="203.454" y="214.371"/><use xlink:href="#aU" x="205.531" y="214.371"/><use xlink:href="#aX" x="210.381" y="214.371"/><use xlink:href="#aY" x="214.8" y="214.371"/><use xlink:href="#aH" x="220.441" y="214.371"/><use xlink:href="#O" x="222.287" y="214.371"/><use xlink:href="#aZ" x="224.364" y="214.371"/><use xlink:href="#av" x="229.574" y="214.371"/><use xlink:href="#aD" x="233.785" y="214.371"/></g><g><use xlink:href="#ba" x="238.012" y="214.371"/><use xlink:href="#ay" x="243.972" y="214.371"/><use xlink:href="#ay" x="248.559" y="214.371"/><use xlink:href="#aA" x="253.145" y="214.371"/><use xlink:href="#bb" x="257.724" y="214.371"/><use xlink:href="#O" x="261.903" y="214.371"/><use xlink:href="#aS" x="263.98" y="214.371"/><use xlink:href="#aK" x="268.71" y="214.371"/><use xlink:href="#av" x="273.257" y="214.371"/><use xlink:href="#aE" x="277.468" y="214.371"/><use xlink:href="#aT" x="280.176" y="214.371"/><use xlink:href="#av" x="287.24" y="214.371"/><use xlink:href="#aJ" x="291.451" y="214.371"/></g><g><use xlink:href="#aD" x="295.11" y="214.371"/><use xlink:href="#aN" x="299.249" y="214.371"/><use xlink:href="#ax" x="303.804" y="214.371"/><use xlink:href="#aB" x="306.456" y="214.371"/><use xlink:href="#aJ" x="308.35" y="214.371"/></g><g><use xlink:href="#av" x="312.09" y="214.371"/><use xlink:href="#aw" x="316.3" y="214.371"/></g><g><use xlink:href="#J" x="163.502" y="585.256"/><use xlink:href="#K" x="167.617" y="585.256"/><use xlink:href="#J" x="171.732" y="585.256"/><use xlink:href="#K" x="175.847" y="585.256"/><use xlink:href="#M" x="179.962" y="585.256"/><use xlink:href="#K" x="181.808" y="585.256"/><use xlink:href="#bc" x="185.923" y="585.256"/><use xlink:href="#O" x="190.038" y="585.256"/><use xlink:href="#P" x="192.115" y="585.256"/><use xlink:href="#O" x="196.23" y="585.256"/><use xlink:href="#bd" x="198.308" y="585.256"/><use xlink:href="#aE" x="202.982" y="585.256"/></g><g><use xlink:href="#aD" x="205.603" y="585.256"/><use xlink:href="#aF" x="209.742" y="585.256"/><use xlink:href="#aD" x="213.194" y="585.256"/><use xlink:href="#aA" x="217.333" y="585.256"/><use xlink:href="#ax" x="221.911" y="585.256"/><use xlink:href="#O" x="224.564" y="585.256"/><use xlink:href="#S" x="226.641" y="585.256"/></g><g><use xlink:href="#be" x="235.416" y="585.256"/><use xlink:href="#aj" x="242.608" y="585.256"/><use xlink:href="#aa" x="249.799" y="585.256"/><use xlink:href="#Y" x="256.99" y="585.256"/><use xlink:href="#O" x="264.181" y="585.256"/><use xlink:href="#bf" x="266.259" y="585.256"/><use xlink:href="#be" x="273.45" y="585.256"/><use xlink:href="#bg" x="280.641" y="585.256"/><use xlink:href="#ae" x="287.833" y="585.256"/><use xlink:href="#ac" x="295.024" y="585.256"/><use xlink:href="#bh" x="302.215" y="585.256"/><use xlink:href="#bi" x="309.406" y="585.256"/><use xlink:href="#O" x="316.598" y="585.256"/><use xlink:href="#bh" x="318.675" y="585.256"/><use xlink:href="#bi" x="325.866" y="585.256"/><use xlink:href="#bj" x="333.058" y="585.256"/></g><g><use xlink:href="#aP" x="163.502" y="255.865"/><use xlink:href="#av" x="169.631" y="255.865"/><use xlink:href="#aE" x="173.842" y="255.865"/><use xlink:href="#M" x="176.55" y="255.865"/><use xlink:href="#O" x="178.396" y="255.865"/><use xlink:href="#J" x="180.474" y="255.865"/><use xlink:href="#K" x="184.589" y="255.865"/><use xlink:href="#L" x="188.704" y="255.865"/><use xlink:href="#bk" x="192.819" y="255.865"/><use xlink:href="#O" x="196.934" y="255.865"/><use xlink:href="#P" x="199.011" y="255.865"/><use xlink:href="#O" x="203.126" y="255.865"/></g><g><use xlink:href="#bl" x="163.502" y="270.846"/><use xlink:href="#av" x="167.473" y="270.846"/><use xlink:href="#aA" x="171.684" y="270.846"/><use xlink:href="#M" x="176.263" y="270.846"/><use xlink:href="#O" x="178.108" y="270.846"/><use xlink:href="#J" x="180.186" y="270.846"/><use xlink:href="#K" x="184.301" y="270.846"/><use xlink:href="#J" x="188.416" y="270.846"/><use xlink:href="#L" x="192.531" y="270.846"/><use xlink:href="#O" x="196.646" y="270.846"/><use xlink:href="#P" x="198.723" y="270.846"/><use xlink:href="#O" x="202.838" y="270.846"/></g><g><use xlink:href="#bl" x="163.502" y="285.828"/><use xlink:href="#av" x="167.473" y="285.828"/><use xlink:href="#aA" x="171.684" y="285.828"/><use xlink:href="#M" x="176.263" y="285.828"/><use xlink:href="#O" x="178.108" y="285.828"/><use xlink:href="#J" x="180.186" y="285.828"/><use xlink:href="#K" x="184.301" y="285.828"/><use xlink:href="#J" x="188.416" y="285.828"/><use xlink:href="#L" x="192.531" y="285.828"/><use xlink:href="#O" x="196.646" y="285.828"/><use xlink:href="#P" x="198.723" y="285.828"/><use xlink:href="#O" x="202.838" y="285.828"/></g><g><use xlink:href="#aY" x="163.502" y="300.81"/><use xlink:href="#aJ" x="169.143" y="300.81"/></g><g><use xlink:href="#ax" x="172.883" y="300.81"/><use xlink:href="#M" x="175.536" y="300.81"/><use xlink:href="#O" x="177.381" y="300.81"/><use xlink:href="#J" x="179.459" y="300.81"/><use xlink:href="#K" x="183.574" y="300.81"/><use xlink:href="#L" x="187.689" y="300.81"/><use xlink:href="#bc" x="191.804" y="300.81"/><use xlink:href="#O" x="195.919" y="300.81"/><use xlink:href="#P" x="197.996" y="300.81"/></g><g><use xlink:href="#J" x="163.502" y="626.749"/><use xlink:href="#K" x="167.617" y="626.749"/><use xlink:href="#J" x="171.732" y="626.749"/><use xlink:href="#K" x="175.847" y="626.749"/><use xlink:href="#M" x="179.962" y="626.749"/><use xlink:href="#K" x="181.808" y="626.749"/><use xlink:href="#bc" x="185.923" y="626.749"/><use xlink:href="#O" x="190.038" y="626.749"/><use xlink:href="#P" x="192.115" y="626.749"/><use xlink:href="#O" x="196.23" y="626.749"/><use xlink:href="#bd" x="198.308" y="626.749"/><use xlink:href="#aE" x="202.982" y="626.749"/></g><g><use xlink:href="#aD" x="205.603" y="626.749"/><use xlink:href="#aF" x="209.742" y="626.749"/><use xlink:href="#aD" x="213.194" y="626.749"/><use xlink:href="#aA" x="217.333" y="626.749"/><use xlink:href="#ax" x="221.911" y="626.749"/><use xlink:href="#O" x="224.564" y="626.749"/></g><g><use xlink:href="#J" x="163.502" y="641.731"/><use xlink:href="#K" x="167.617" y="641.731"/><use xlink:href="#L" x="171.732" y="641.731"/><use xlink:href="#bm" x="175.847" y="641.731"/><use xlink:href="#M" x="179.962" y="641.731"/><use xlink:href="#K" x="181.808" y="641.731"/><use xlink:href="#J" x="185.923" y="641.731"/><use xlink:href="#O" x="190.038" y="641.731"/><use xlink:href="#P" x="192.115" y="641.731"/><use xlink:href="#O" x="196.23" y="641.731"/><use xlink:href="#J" x="198.308" y="641.731"/><use xlink:href="#K" x="202.423" y="641.731"/><use xlink:href="#J" x="206.538" y="641.731"/><use xlink:href="#K" x="210.653" y="641.731"/><use xlink:href="#M" x="214.768" y="641.731"/><use xlink:href="#K" x="216.614" y="641.731"/><use xlink:href="#J" x="220.729" y="641.731"/><use xlink:href="#O" x="224.844" y="641.731"/></g><g><use xlink:href="#J" x="163.502" y="656.713"/><use xlink:href="#K" x="167.617" y="656.713"/><use xlink:href="#K" x="171.732" y="656.713"/><use xlink:href="#N" x="175.847" y="656.713"/><use xlink:href="#M" x="179.962" y="656.713"/><use xlink:href="#L" x="181.808" y="656.713"/><use xlink:href="#L" x="185.923" y="656.713"/><use xlink:href="#O" x="190.038" y="656.713"/><use xlink:href="#P" x="192.115" y="656.713"/><use xlink:href="#O" x="196.23" y="656.713"/><use xlink:href="#J" x="198.308" y="656.713"/><use xlink:href="#K" x="202.423" y="656.713"/><use xlink:href="#L" x="206.538" y="656.713"/><use xlink:href="#bm" x="210.653" y="656.713"/><use xlink:href="#M" x="214.768" y="656.713"/><use xlink:href="#K" x="216.614" y="656.713"/><use xlink:href="#J" x="220.729" y="656.713"/><use xlink:href="#O" x="224.844" y="656.713"/></g><g><use xlink:href="#J" x="163.502" y="671.695"/><use xlink:href="#K" x="167.617" y="671.695"/><use xlink:href="#K" x="171.732" y="671.695"/><use xlink:href="#bk" x="175.847" y="671.695"/><use xlink:href="#M" x="179.962" y="671.695"/><use xlink:href="#K" x="181.808" y="671.695"/><use xlink:href="#L" x="185.923" y="671.695"/><use xlink:href="#O" x="190.038" y="671.695"/><use xlink:href="#P" x="192.115" y="671.695"/><use xlink:href="#O" x="196.23" y="671.695"/><use xlink:href="#J" x="198.308" y="671.695"/><use xlink:href="#K" x="202.423" y="671.695"/><use xlink:href="#K" x="206.538" y="671.695"/><use xlink:href="#N" x="210.653" y="671.695"/><use xlink:href="#M" x="214.768" y="671.695"/><use xlink:href="#L" x="216.614" y="671.695"/><use xlink:href="#K" x="220.729" y="671.695"/></g><g><use xlink:href="#J" x="163.502" y="686.677"/><use xlink:href="#K" x="167.617" y="686.677"/><use xlink:href="#K" x="171.732" y="686.677"/><use xlink:href="#K" x="175.847" y="686.677"/><use xlink:href="#M" x="179.962" y="686.677"/><use xlink:href="#K" x="181.808" y="686.677"/><use xlink:href="#R" x="185.923" y="686.677"/><use xlink:href="#O" x="190.038" y="686.677"/><use xlink:href="#P" x="192.115" y="686.677"/><use xlink:href="#O" x="196.23" y="686.677"/><use xlink:href="#J" x="198.308" y="686.677"/><use xlink:href="#K" x="202.423" y="686.677"/><use xlink:href="#K" x="206.538" y="686.677"/><use xlink:href="#bn" x="210.653" y="686.677"/><use xlink:href="#M" x="214.768" y="686.677"/><use xlink:href="#L" x="216.614" y="686.677"/><use xlink:href="#L" x="220.729" y="686.677"/><use xlink:href="#O" x="224.844" y="686.677"/></g><g><use xlink:href="#L" x="163.502" y="701.658"/><use xlink:href="#N" x="167.617" y="701.658"/><use xlink:href="#N" x="171.732" y="701.658"/><use xlink:href="#bm" x="175.847" y="701.658"/><use xlink:href="#M" x="179.962" y="701.658"/><use xlink:href="#K" x="181.808" y="701.658"/><use xlink:href="#L" x="185.923" y="701.658"/><use xlink:href="#O" x="190.038" y="701.658"/><use xlink:href="#P" x="192.115" y="701.658"/><use xlink:href="#O" x="196.23" y="701.658"/><use xlink:href="#J" x="198.308" y="701.658"/><use xlink:href="#K" x="202.423" y="701.658"/><use xlink:href="#K" x="206.538" y="701.658"/><use xlink:href="#K" x="210.653" y="701.658"/><use xlink:href="#M" x="214.768" y="701.658"/><use xlink:href="#K" x="216.614" y="701.658"/><use xlink:href="#bc" x="220.729" y="701.658"/></g><g><use xlink:href="#aS" x="240.888" y="255.865"/><use xlink:href="#aE" x="245.618" y="255.865"/></g><g><use xlink:href="#aD" x="248.239" y="255.865"/><use xlink:href="#aF" x="252.378" y="255.865"/><use xlink:href="#aB" x="255.83" y="255.865"/><use xlink:href="#aV" x="257.724" y="255.865"/><use xlink:href="#aD" x="262.398" y="255.865"/><use xlink:href="#aA" x="266.537" y="255.865"/><use xlink:href="#ax" x="271.115" y="255.865"/><use xlink:href="#O" x="273.768" y="255.865"/><use xlink:href="#aW" x="275.846" y="255.865"/><use xlink:href="#O" x="280.84" y="255.865"/><use xlink:href="#aU" x="282.917" y="255.865"/><use xlink:href="#aX" x="287.767" y="255.865"/><use xlink:href="#aY" x="292.186" y="255.865"/><use xlink:href="#aH" x="297.827" y="255.865"/><use xlink:href="#O" x="299.673" y="255.865"/><use xlink:href="#aZ" x="301.75" y="255.865"/><use xlink:href="#av" x="306.96" y="255.865"/><use xlink:href="#aD" x="311.171" y="255.865"/></g><g><use xlink:href="#ba" x="315.397" y="255.865"/><use xlink:href="#ay" x="321.358" y="255.865"/><use xlink:href="#ay" x="325.945" y="255.865"/><use xlink:href="#aA" x="330.531" y="255.865"/><use xlink:href="#bb" x="335.11" y="255.865"/><use xlink:href="#O" x="339.288" y="255.865"/><use xlink:href="#bd" x="341.366" y="255.865"/><use xlink:href="#aK" x="346.04" y="255.865"/><use xlink:href="#av" x="350.587" y="255.865"/><use xlink:href="#aE" x="354.798" y="255.865"/><use xlink:href="#aT" x="357.506" y="255.865"/><use xlink:href="#av" x="364.57" y="255.865"/><use xlink:href="#aJ" x="368.781" y="255.865"/></g><g><use xlink:href="#aD" x="372.44" y="255.865"/><use xlink:href="#aN" x="376.579" y="255.865"/><use xlink:href="#ax" x="381.134" y="255.865"/><use xlink:href="#aB" x="383.786" y="255.865"/><use xlink:href="#aJ" x="385.68" y="255.865"/></g><g><use xlink:href="#av" x="389.419" y="255.865"/><use xlink:href="#aw" x="393.63" y="255.865"/></g><g><use xlink:href="#au" x="240.888" y="270.846"/><use xlink:href="#aV" x="245.419" y="270.846"/><use xlink:href="#aC" x="250.093" y="270.846"/><use xlink:href="#aB" x="253.84" y="270.846"/><use xlink:href="#aF" x="255.734" y="270.846"/><use xlink:href="#ay" x="259.186" y="270.846"/><use xlink:href="#aE" x="263.772" y="270.846"/></g><g><use xlink:href="#aG" x="266.777" y="270.846"/><use xlink:href="#aH" x="270.532" y="270.846"/><use xlink:href="#O" x="272.378" y="270.846"/><use xlink:href="#bo" x="274.455" y="270.846"/></g><g><use xlink:href="#ay" x="278.442" y="270.846"/><use xlink:href="#aN" x="283.029" y="270.846"/><use xlink:href="#aA" x="287.583" y="270.846"/><use xlink:href="#aV" x="292.162" y="270.846"/><use xlink:href="#av" x="296.836" y="270.846"/></g><g><use xlink:href="#ax" x="300.943" y="270.846"/><use xlink:href="#aB" x="303.596" y="270.846"/><use xlink:href="#ay" x="305.49" y="270.846"/><use xlink:href="#aA" x="310.076" y="270.846"/><use xlink:href="#O" x="314.654" y="270.846"/><use xlink:href="#aL" x="316.732" y="270.846"/></g><g><use xlink:href="#ay" x="318.865" y="270.846"/><use xlink:href="#aE" x="323.452" y="270.846"/><use xlink:href="#O" x="326.16" y="270.846"/><use xlink:href="#aP" x="328.238" y="270.846"/><use xlink:href="#aD" x="334.366" y="270.846"/><use xlink:href="#aV" x="338.505" y="270.846"/><use xlink:href="#aB" x="343.18" y="270.846"/><use xlink:href="#aJ" x="345.073" y="270.846"/></g><g><use xlink:href="#av" x="348.813" y="270.846"/><use xlink:href="#aw" x="353.024" y="270.846"/><use xlink:href="#O" x="354.997" y="270.846"/><use xlink:href="#bp" x="357.075" y="270.846"/><use xlink:href="#aA" x="359.088" y="270.846"/><use xlink:href="#aA" x="363.667" y="270.846"/><use xlink:href="#ay" x="368.245" y="270.846"/><use xlink:href="#aC" x="372.832" y="270.846"/></g><g><use xlink:href="#av" x="376.404" y="270.846"/></g><g><use xlink:href="#ax" x="380.511" y="270.846"/><use xlink:href="#aB" x="383.164" y="270.846"/><use xlink:href="#ay" x="385.058" y="270.846"/><use xlink:href="#aA" x="389.644" y="270.846"/></g><g><use xlink:href="#aZ" x="240.888" y="285.828"/><use xlink:href="#aB" x="246.098" y="285.828"/><use xlink:href="#aE" x="247.991" y="285.828"/></g><g><use xlink:href="#aD" x="250.612" y="285.828"/><use xlink:href="#aJ" x="254.751" y="285.828"/></g><g><use xlink:href="#ax" x="258.491" y="285.828"/></g><g><use xlink:href="#ay" x="261.04" y="285.828"/><use xlink:href="#aE" x="265.626" y="285.828"/><use xlink:href="#aH" x="268.335" y="285.828"/><use xlink:href="#O" x="270.18" y="285.828"/><use xlink:href="#bq" x="272.258" y="285.828"/><use xlink:href="#aK" x="276.764" y="285.828"/><use xlink:href="#aD" x="281.311" y="285.828"/><use xlink:href="#O" x="285.45" y="285.828"/><use xlink:href="#bd" x="287.527" y="285.828"/><use xlink:href="#aK" x="292.202" y="285.828"/><use xlink:href="#av" x="296.748" y="285.828"/><use xlink:href="#aE" x="300.959" y="285.828"/><use xlink:href="#aT" x="303.668" y="285.828"/><use xlink:href="#av" x="310.731" y="285.828"/><use xlink:href="#aJ" x="314.942" y="285.828"/></g><g><use xlink:href="#aD" x="318.602" y="285.828"/><use xlink:href="#aN" x="322.741" y="285.828"/><use xlink:href="#ax" x="327.295" y="285.828"/><use xlink:href="#aB" x="329.948" y="285.828"/><use xlink:href="#aJ" x="331.841" y="285.828"/></g><g><use xlink:href="#av" x="335.581" y="285.828"/><use xlink:href="#aw" x="339.792" y="285.828"/><use xlink:href="#O" x="341.765" y="285.828"/><use xlink:href="#aF" x="343.843" y="285.828"/><use xlink:href="#ay" x="347.295" y="285.828"/><use xlink:href="#aJ" x="351.881" y="285.828"/><use xlink:href="#aB" x="355.708" y="285.828"/><use xlink:href="#aD" x="357.602" y="285.828"/></g><g><use xlink:href="#ax" x="361.653" y="285.828"/><use xlink:href="#aG" x="364.306" y="285.828"/><use xlink:href="#O" x="368.061" y="285.828"/><use xlink:href="#ay" x="370.139" y="285.828"/><use xlink:href="#aL" x="374.725" y="285.828"/><use xlink:href="#O" x="376.947" y="285.828"/><use xlink:href="#br" x="379.024" y="285.828"/></g><g><use xlink:href="#ay" x="383.81" y="285.828"/><use xlink:href="#aE" x="388.397" y="285.828"/></g><g><use xlink:href="#aD" x="391.018" y="285.828"/></g><g><use xlink:href="#av" x="395.021" y="285.828"/></g><g><use xlink:href="#aP" x="240.888" y="300.81"/><use xlink:href="#av" x="247.017" y="300.81"/><use xlink:href="#aE" x="251.228" y="300.81"/><use xlink:href="#M" x="253.936" y="300.81"/><use xlink:href="#O" x="255.782" y="300.81"/><use xlink:href="#J" x="257.859" y="300.81"/><use xlink:href="#K" x="261.974" y="300.81"/><use xlink:href="#L" x="266.089" y="300.81"/><use xlink:href="#bk" x="270.204" y="300.81"/><use xlink:href="#O" x="274.319" y="300.81"/><use xlink:href="#bs" x="276.397" y="300.81"/><use xlink:href="#aS" x="280.632" y="300.81"/><use xlink:href="#O" x="285.362" y="300.81"/><use xlink:href="#ay" x="287.44" y="300.81"/><use xlink:href="#aL" x="292.026" y="300.81"/><use xlink:href="#O" x="294.247" y="300.81"/><use xlink:href="#bt" x="296.325" y="300.81"/><use xlink:href="#aw" x="301.542" y="300.81"/><use xlink:href="#ay" x="303.516" y="300.81"/><use xlink:href="#bu" x="308.102" y="300.81"/></g><g><use xlink:href="#av" x="312.625" y="300.81"/><use xlink:href="#aw" x="316.836" y="300.81"/><use xlink:href="#O" x="318.809" y="300.81"/><use xlink:href="#aM" x="320.887" y="300.81"/><use xlink:href="#aN" x="325.857" y="300.81"/><use xlink:href="#aF" x="330.411" y="300.81"/><use xlink:href="#aB" x="333.863" y="300.81"/><use xlink:href="#aA" x="335.757" y="300.81"/><use xlink:href="#aD" x="340.335" y="300.81"/><use xlink:href="#aF" x="344.474" y="300.81"/><use xlink:href="#aF" x="347.926" y="300.81"/><use xlink:href="#O" x="351.378" y="300.81"/><use xlink:href="#aZ" x="353.455" y="300.81"/><use xlink:href="#aB" x="358.665" y="300.81"/><use xlink:href="#aC" x="360.559" y="300.81"/><use xlink:href="#aB" x="364.306" y="300.81"/><use xlink:href="#aF" x="366.2" y="300.81"/><use xlink:href="#aB" x="369.652" y="300.81"/><use xlink:href="#ay" x="371.545" y="300.81"/><use xlink:href="#aA" x="376.132" y="300.81"/><use xlink:href="#aH" x="380.71" y="300.81"/><use xlink:href="#O" x="382.556" y="300.81"/><use xlink:href="#aZ" x="384.633" y="300.81"/><use xlink:href="#av" x="389.843" y="300.81"/><use xlink:href="#aD" x="394.054" y="300.81"/></g><g><use xlink:href="#ba" x="398.281" y="300.81"/><use xlink:href="#ay" x="404.241" y="300.81"/><use xlink:href="#ay" x="408.828" y="300.81"/><use xlink:href="#aA" x="413.414" y="300.81"/><use xlink:href="#bb" x="417.993" y="300.81"/><use xlink:href="#O" x="422.172" y="300.81"/><use xlink:href="#aS" x="424.249" y="300.81"/><use xlink:href="#aK" x="428.979" y="300.81"/><use xlink:href="#av" x="433.526" y="300.81"/><use xlink:href="#aE" x="437.737" y="300.81"/><use xlink:href="#aT" x="440.445" y="300.81"/><use xlink:href="#av" x="447.509" y="300.81"/><use xlink:href="#aJ" x="451.72" y="300.81"/></g><g><use xlink:href="#aD" x="455.379" y="300.81"/><use xlink:href="#aN" x="459.518" y="300.81"/><use xlink:href="#ax" x="464.073" y="300.81"/><use xlink:href="#aB" x="466.725" y="300.81"/><use xlink:href="#aJ" x="468.619" y="300.81"/></g><g><use xlink:href="#av" x="472.359" y="300.81"/><use xlink:href="#aw" x="476.569" y="300.81"/></g><g><use xlink:href="#be" x="240.888" y="626.749"/><use xlink:href="#aj" x="248.079" y="626.749"/><use xlink:href="#aa" x="255.271" y="626.749"/><use xlink:href="#Y" x="262.462" y="626.749"/><use xlink:href="#O" x="269.653" y="626.749"/><use xlink:href="#bf" x="271.731" y="626.749"/><use xlink:href="#be" x="278.922" y="626.749"/><use xlink:href="#bg" x="286.113" y="626.749"/><use xlink:href="#ae" x="293.304" y="626.749"/><use xlink:href="#ac" x="300.496" y="626.749"/><use xlink:href="#bh" x="307.687" y="626.749"/><use xlink:href="#bi" x="314.878" y="626.749"/><use xlink:href="#O" x="322.069" y="626.749"/><use xlink:href="#bh" x="324.147" y="626.749"/><use xlink:href="#bi" x="331.338" y="626.749"/><use xlink:href="#bj" x="338.529" y="626.749"/></g><g><use xlink:href="#bf" x="240.888" y="641.731"/><use xlink:href="#be" x="248.079" y="641.731"/><use xlink:href="#bv" x="255.271" y="641.731"/><use xlink:href="#bw" x="262.462" y="641.731"/><use xlink:href="#O" x="269.653" y="641.731"/><use xlink:href="#aj" x="271.731" y="641.731"/><use xlink:href="#bx" x="278.922" y="641.731"/><use xlink:href="#by" x="286.113" y="641.731"/><use xlink:href="#bz" x="293.304" y="641.731"/><use xlink:href="#O" x="300.496" y="641.731"/><use xlink:href="#by" x="302.573" y="641.731"/><use xlink:href="#bz" x="309.764" y="641.731"/><use xlink:href="#bj" x="316.956" y="641.731"/></g><g><use xlink:href="#bA" x="240.888" y="656.713"/><use xlink:href="#am" x="248.079" y="656.713"/><use xlink:href="#bB" x="255.271" y="656.713"/><use xlink:href="#bC" x="262.462" y="656.713"/><use xlink:href="#bD" x="269.653" y="656.713"/><use xlink:href="#O" x="276.844" y="656.713"/><use xlink:href="#bf" x="278.922" y="656.713"/><use xlink:href="#be" x="286.113" y="656.713"/><use xlink:href="#bg" x="293.304" y="656.713"/><use xlink:href="#aj" x="300.496" y="656.713"/><use xlink:href="#bx" x="307.687" y="656.713"/><use xlink:href="#by" x="314.878" y="656.713"/><use xlink:href="#bz" x="322.069" y="656.713"/><use xlink:href="#O" x="329.261" y="656.713"/><use xlink:href="#by" x="331.338" y="656.713"/><use xlink:href="#bz" x="338.529" y="656.713"/><use xlink:href="#bj" x="345.721" y="656.713"/><use xlink:href="#O" x="352.912" y="656.713"/></g><g><use xlink:href="#bA" x="240.888" y="671.695"/><use xlink:href="#bE" x="248.079" y="671.695"/><use xlink:href="#al" x="255.271" y="671.695"/><use xlink:href="#ab" x="262.462" y="671.695"/><use xlink:href="#bF" x="269.653" y="671.695"/><use xlink:href="#bG" x="276.844" y="671.695"/><use xlink:href="#aj" x="284.036" y="671.695"/><use xlink:href="#bx" x="291.227" y="671.695"/><use xlink:href="#Z" x="298.418" y="671.695"/><use xlink:href="#O" x="305.609" y="671.695"/><use xlink:href="#bf" x="307.687" y="671.695"/><use xlink:href="#be" x="314.878" y="671.695"/><use xlink:href="#bg" x="322.069" y="671.695"/><use xlink:href="#bH" x="329.261" y="671.695"/><use xlink:href="#ag" x="336.452" y="671.695"/><use xlink:href="#bI" x="343.643" y="671.695"/><use xlink:href="#O" x="350.834" y="671.695"/><use xlink:href="#bJ" x="352.912" y="671.695"/><use xlink:href="#bK" x="360.103" y="671.695"/><use xlink:href="#aj" x="367.294" y="671.695"/><use xlink:href="#bx" x="374.486" y="671.695"/><use xlink:href="#Z" x="381.677" y="671.695"/><use xlink:href="#O" x="388.868" y="671.695"/></g><g><use xlink:href="#bA" x="240.888" y="686.677"/><use xlink:href="#bC" x="248.079" y="686.677"/><use xlink:href="#Y" x="255.271" y="686.677"/><use xlink:href="#bL" x="262.462" y="686.677"/><use xlink:href="#O" x="269.653" y="686.677"/><use xlink:href="#bf" x="271.731" y="686.677"/><use xlink:href="#be" x="278.922" y="686.677"/><use xlink:href="#bg" x="286.113" y="686.677"/><use xlink:href="#aj" x="293.304" y="686.677"/><use xlink:href="#bx" x="300.496" y="686.677"/><use xlink:href="#by" x="307.687" y="686.677"/><use xlink:href="#bz" x="314.878" y="686.677"/><use xlink:href="#O" x="322.069" y="686.677"/><use xlink:href="#bM" x="324.147" y="686.677"/><use xlink:href="#bj" x="331.338" y="686.677"/></g><g><use xlink:href="#V" x="240.888" y="701.658"/><use xlink:href="#bN" x="248.079" y="701.658"/><use xlink:href="#O" x="255.271" y="701.658"/><use xlink:href="#bO" x="257.348" y="701.658"/><use xlink:href="#bP" x="264.539" y="701.658"/><use xlink:href="#aj" x="271.731" y="701.658"/><use xlink:href="#bx" x="278.922" y="701.658"/><use xlink:href="#bQ" x="286.113" y="701.658"/><use xlink:href="#O" x="293.304" y="701.658"/><use xlink:href="#aj" x="295.382" y="701.658"/><use xlink:href="#bx" x="302.573" y="701.658"/><use xlink:href="#Z" x="309.764" y="701.658"/></g><g fill="#fff"><use xlink:href="#bR" x="168.221" y="122.345"/><use xlink:href="#bS" x="173.174" y="122.345"/><use xlink:href="#bT" x="178.531" y="122.345"/><use xlink:href="#bU" x="183.916" y="122.345"/><use xlink:href="#bV" x="187.853" y="122.345"/><use xlink:href="#bW" x="193.165" y="122.345"/><use xlink:href="#bX" x="195.763" y="122.345"/><use xlink:href="#bY" x="198.145" y="122.345"/><use xlink:href="#bZ" x="203.44" y="122.345"/></g><g fill="#fff"><use xlink:href="#bR" x="168.221" y="493.234"/><use xlink:href="#bS" x="173.174" y="493.234"/><use xlink:href="#bT" x="178.531" y="493.234"/><use xlink:href="#bU" x="183.916" y="493.234"/><use xlink:href="#bV" x="187.853" y="493.234"/><use xlink:href="#bW" x="193.165" y="493.234"/><use xlink:href="#bX" x="195.763" y="493.234"/><use xlink:href="#bY" x="198.145" y="493.234"/><use xlink:href="#bZ" x="203.44" y="493.234"/></g><g fill="#fff"><use xlink:href="#ca" x="168.221" y="193.801"/></g><g fill="#fff"><use xlink:href="#bY" x="172.72" y="193.801"/><use xlink:href="#cb" x="178.014" y="193.801"/><use xlink:href="#bX" x="181.933" y="193.801"/><use xlink:href="#bW" x="184.316" y="193.801"/><use xlink:href="#bX" x="186.913" y="193.801"/><use xlink:href="#bY" x="189.295" y="193.801"/><use xlink:href="#bZ" x="194.59" y="193.801"/></g><g fill="#fff"><use xlink:href="#ca" x="168.221" y="564.689"/></g><g fill="#fff"><use xlink:href="#bY" x="172.72" y="564.689"/><use xlink:href="#cb" x="178.014" y="564.689"/><use xlink:href="#bX" x="181.933" y="564.689"/><use xlink:href="#bW" x="184.316" y="564.689"/><use xlink:href="#bX" x="186.913" y="564.689"/><use xlink:href="#bY" x="189.295" y="564.689"/><use xlink:href="#bZ" x="194.59" y="564.689"/></g><g fill="#fff"><use xlink:href="#ca" x="168.221" y="235.294"/></g><g fill="#fff"><use xlink:href="#cc" x="172.882" y="235.294"/><use xlink:href="#bY" x="176.361" y="235.294"/><use xlink:href="#cd" x="181.656" y="235.294"/><use xlink:href="#ce" x="184.451" y="235.294"/><use xlink:href="#cb" x="189.422" y="235.294"/><use xlink:href="#cb" x="193.341" y="235.294"/><use xlink:href="#bX" x="197.261" y="235.294"/><use xlink:href="#bY" x="199.643" y="235.294"/><use xlink:href="#bZ" x="204.937" y="235.294"/><use xlink:href="#bV" x="210.313" y="235.294"/><use xlink:href="#cf" x="215.625" y="235.294"/><use xlink:href="#cg" x="218.007" y="235.294"/><use xlink:href="#bR" x="220.587" y="235.294"/><use xlink:href="#ch" x="225.54" y="235.294"/><use xlink:href="#ci" x="229.837" y="235.294"/><use xlink:href="#ce" x="235.195" y="235.294"/><use xlink:href="#cc" x="240.166" y="235.294"/><use xlink:href="#bX" x="243.644" y="235.294"/><use xlink:href="#ce" x="246.026" y="235.294"/><use xlink:href="#bZ" x="250.997" y="235.294"/><use xlink:href="#bU" x="256.373" y="235.294"/><use xlink:href="#ce" x="260.31" y="235.294"/></g><g fill="#fff"><use xlink:href="#ca" x="168.221" y="606.183"/></g><g fill="#fff"><use xlink:href="#cc" x="172.882" y="606.183"/><use xlink:href="#bY" x="176.361" y="606.183"/><use xlink:href="#cd" x="181.656" y="606.183"/><use xlink:href="#ce" x="184.451" y="606.183"/><use xlink:href="#cb" x="189.422" y="606.183"/><use xlink:href="#cb" x="193.341" y="606.183"/><use xlink:href="#bX" x="197.261" y="606.183"/><use xlink:href="#bY" x="199.643" y="606.183"/><use xlink:href="#bZ" x="204.937" y="606.183"/><use xlink:href="#bV" x="210.313" y="606.183"/><use xlink:href="#cf" x="215.625" y="606.183"/><use xlink:href="#cg" x="218.007" y="606.183"/><use xlink:href="#bR" x="220.587" y="606.183"/><use xlink:href="#ch" x="225.54" y="606.183"/><use xlink:href="#ci" x="229.837" y="606.183"/><use xlink:href="#ce" x="235.195" y="606.183"/><use xlink:href="#cc" x="240.166" y="606.183"/><use xlink:href="#bX" x="243.644" y="606.183"/><use xlink:href="#ce" x="246.026" y="606.183"/><use xlink:href="#bZ" x="250.997" y="606.183"/><use xlink:href="#bU" x="256.373" y="606.183"/><use xlink:href="#ce" x="260.31" y="606.183"/></g></svg>