<svg xmlns="http://www.w3.org/2000/svg" xmlns:xlink="http://www.w3.org/1999/xlink" width="793.701" height="1122.52" viewBox="0 0 595.276 841.89" version="1.2"><defs><symbol overflow="visible" id="a"><path d="M1.89-4.531H.985l.438-.75h1.266V0H1.89zm0 0"/></symbol><symbol overflow="visible" id="b"><path d="M1.797-4h1.14v-.188H.422V-4h1.187v.688c0 1.124-.53 2-1.265 2.374l.14.157c.594-.328 1.047-.953 1.22-1.813.187.75.624 1.328 1.171 1.64l.14-.155c-.703-.36-1.218-1.204-1.218-2.204zm2.797-.89v2.234h-.969V-4.75h-.203V.11h.203v-2.563h.969v2.86h.203v-5.298zm0 0"/></symbol><symbol overflow="visible" id="c"><path d="M3.484-2.438c-.78.157-1.437.188-2.453.188H.844v-1.969h2.11v-.187H.64v2.343h.39c1.032 0 1.688-.046 2.5-.203zM1.422-1.421h-.203V.266h3.468V.078H1.422zm2.984-1.766v-1.718h-.203v3.843h.203v-1.953h.875v-.171zm0 0"/></symbol><symbol overflow="visible" id="d"><path d="M4.422.14h-2.86v-.859h2.86zm0-1.046h-2.86v-.813h-.187V.313h3.25V-1.72h-.203zM2.734-2.437H.86v-1.047h1.875zm1.704-2.454V-3.5H2.921v-1.11h-.188v.954H.86v-.953H.656v2.359h2.266v-1.063h1.515v1.297h.188V-4.89zm0 0"/></symbol><symbol overflow="visible" id="e"><path d="M4.625-4.89h-.188v3.937h.188zM.703-3.235c0-.594.485-1.079 1.14-1.079.641 0 1.126.485 1.126 1.079 0 .609-.485 1.093-1.125 1.093-.657 0-1.14-.484-1.14-1.093zm2.453 0c0-.735-.547-1.266-1.312-1.266-.782 0-1.328.531-1.328 1.266 0 .75.546 1.265 1.328 1.265.765 0 1.312-.515 1.312-1.265zM1.546.078v-1.453H1.36v1.64h3.47V.079zm0 0"/></symbol><symbol overflow="visible" id="g"><path d="M.703-4.328V-1h2.313v-3.328zm2.125.172v2.984H.891v-2.984zm1.594-.735V.406h.203V-4.89zm0 0"/></symbol><symbol overflow="visible" id="h"><path d="M.75-1.14v-1.454H2.5v-1.672H.547v.188h1.765v1.297H.563V-.97h.329c.671 0 1.28-.031 2.078-.172l-.016-.171c-.781.14-1.406.171-2.062.171zm3.844-3.75v2.171H3.578V-4.75h-.203V.11h.203v-2.641h1.016V.406h.203V-4.89zm0 0"/></symbol><symbol overflow="visible" id="i"><path d="M2.094-4.469c-.828 0-1.39.469-1.39 1.188 0 .703.562 1.187 1.39 1.187.812 0 1.375-.484 1.375-1.187 0-.719-.563-1.188-1.375-1.188zm0 .172c.687 0 1.172.438 1.172 1.016 0 .562-.485 1-1.172 1-.703 0-1.188-.438-1.188-1 0-.578.485-1.016 1.188-1.016zm2.265-.594V.406h.204V-4.89zM.438-.844c.968 0 2.312 0 3.546-.234l-.03-.156c-1.188.203-2.563.203-3.563.203zm0 0"/></symbol><symbol overflow="visible" id="j"><path d="M3.516-4.234h-1.47v-.688H1.86v.688H.391v.171h3.125zm-2.61 1.5c0-.454.406-.766 1.047-.766.625 0 1.047.313 1.047.766 0 .437-.422.75-1.047.75-.64 0-1.047-.313-1.047-.75zm2.281 0c0-.579-.5-.938-1.234-.938-.75 0-1.234.36-1.234.938 0 .562.484.921 1.234.921.734 0 1.234-.359 1.234-.921zM1.063-1.063h3.14v1.47h.203v-1.641H1.063zm4.203-2.28h-.86v-1.548h-.203v3.297h.203v-1.562h.86zm0 0"/></symbol><symbol overflow="visible" id="k"><path d="M.64-3.25c0-.61.485-1.094 1.141-1.094.657 0 1.14.485 1.14 1.094 0 .61-.483 1.11-1.14 1.11-.656 0-1.14-.5-1.14-1.11zm3.797-.547v1.078H3a1.2 1.2 0 0 0 .11-.531A1.55 1.55 0 0 0 3-3.797zm0 1.25v1.61h.188v-3.954h-.188v.922H2.891c-.22-.344-.625-.562-1.11-.562-.765 0-1.328.515-1.328 1.281 0 .766.563 1.281 1.328 1.281.5 0 .907-.218 1.125-.578zM1.563.078v-1.437h-.187V.266h3.438V.078zm0 0"/></symbol><symbol overflow="visible" id="l"><path d="M5.14-2.219h-.874c.171-.781.171-1.344.171-1.844v-.453H1.017v.188h3.218v.266c0 .5 0 1.062-.171 1.843H.358v.172h2.297V.406h.188v-2.453H5.14zm0 0"/></symbol><symbol overflow="visible" id="n"><path d="M.719-1.953c.625-.219 1.187-.688 1.406-1.313.234.594.781 1.032 1.422 1.25l.14-.25c-.75-.234-1.406-.843-1.406-1.609v-.031H3.61v-.266H2.281v-.703H1.97v.703H.672v.266h1.297v.031c0 .797-.657 1.422-1.407 1.672zm1.562-.188H1.97v1.094C1.39-1.03.844-1.03.375-1.03l.047.281c.969 0 2.297 0 3.515-.219l-.015-.25c-.531.094-1.094.125-1.64.157zm2.016-2.765V.422h.312v-5.328zm0 0"/></symbol><symbol overflow="visible" id="o"><path d="M4.672-4.906h-.313v3.922h.313zM3.516-2.141c-.75-.296-1.391-1.046-1.391-1.921v-.547h-.313v.546c0 .907-.625 1.704-1.375 2.016l.188.266c.61-.282 1.14-.86 1.344-1.578a2.462 2.462 0 0 0 1.375 1.468zM1.64.016v-1.36h-.313V.281H4.86V.016zm0 0"/></symbol><symbol overflow="visible" id="p"><path d="M2.75.156c-.906 0-1.5-.265-1.5-.703 0-.422.594-.687 1.5-.687s1.484.265 1.484.687c0 .438-.578.703-1.484.703zm0-1.64c-1.125 0-1.813.343-1.813.937 0 .625.688.953 1.813.953S4.563.078 4.563-.547c0-.594-.688-.937-1.813-.937zm.14-.735v-.703h1.688v-.281H1.266v-1.188h3.28v-.265H.954v1.734h1.64v.703H.344v.281h4.813v-.28zm0 0"/></symbol><symbol overflow="visible" id="q"><path d="M3.516-4.25H2.094v-.719H1.78v.719H.36v.266h3.157zM.984-2.734c0-.391.391-.672.954-.672.578 0 .953.281.953.672 0 .406-.375.687-.954.687-.562 0-.953-.281-.953-.687zm2.204 0c0-.579-.5-.922-1.25-.922-.766 0-1.266.344-1.266.922 0 .578.5.937 1.265.937.75 0 1.25-.36 1.25-.937zM2.796.14c-.844 0-1.39-.235-1.39-.641s.546-.64 1.39-.64c.844 0 1.39.234 1.39.64s-.546.64-1.39.64zm0-1.547c-1.063 0-1.703.328-1.703.906 0 .578.64.906 1.703.906C3.859.406 4.5.078 4.5-.5c0-.578-.64-.906-1.703-.906zM5.28-3.625v-.266h-.828v-1.015h-.328v3.453h.328V-2.5h.828v-.266h-.828v-.859zm0 0"/></symbol><symbol overflow="visible" id="r"><path d="M1.266-3.203H4.25v1.11H1.266zm1.64 2.64v-1.25h1.656v-2.703H4.25v1.032H1.266v-1.032H.937v2.704h1.657v1.25H.344v.265h4.828v-.266zm0 0"/></symbol><symbol overflow="visible" id="s"><path d="M4.188-3.781c0 .64 0 1.36-.188 2.36l.328.046c.188-1.047.188-1.766.188-2.406v-.531H.859v.25h3.329zM2.625-.671V-2.61h-.313v1.937H.345v.281h4.812v-.28zm0 0"/></symbol><symbol overflow="visible" id="t"><path d="M2.125-4.422h-.328v1.063c0 .984-.719 1.984-1.422 2.375l.203.25c.578-.344 1.156-1.079 1.39-1.907.22.797.813 1.485 1.407 1.813l.188-.266c-.704-.36-1.438-1.312-1.438-2.265zm2.234-.484v1.89H2.984v.266H4.36V.422h.329v-5.328zm0 0"/></symbol><symbol overflow="visible" id="u"><path d="M1.453 0h.406l1.422-4.375h-.375l-.781 2.516c-.156.53-.281.937-.453 1.468H1.64c-.172-.53-.282-.937-.454-1.468l-.78-2.516H.03zm0 0"/></symbol><symbol overflow="visible" id="v"><path d="M1.781.078c.782 0 1.453-.61 1.453-1.672 0-1.062-.671-1.687-1.453-1.687-.765 0-1.437.625-1.437 1.687C.344-.53 1.016.078 1.78.078zm0-.297C1.156-.219.703-.78.703-1.594c0-.812.453-1.375 1.078-1.375s1.094.563 1.094 1.375c0 .813-.469 1.375-1.094 1.375zm0 0"/></symbol><symbol overflow="visible" id="w"><path d="M1.031.078c.11 0 .172-.015.235-.031l-.063-.281c-.062.015-.094.015-.11.015-.077 0-.14-.062-.14-.218v-4.329h-.36v4.297c0 .36.141.547.438.547zm0 0"/></symbol><symbol overflow="visible" id="x"><path d="M.75-.156c.156 0 .313-.11.313-.313A.317.317 0 0 0 .75-.797a.317.317 0 0 0-.313.328c0 .203.157.313.313.313zm0 0"/></symbol><symbol overflow="visible" id="y"><path d="M.547 0h2.265v-.313h-.921v-4.062h-.282c-.203.125-.468.219-.828.281v.235h.766v3.546h-1zm0 0"/></symbol><symbol overflow="visible" id="z"><path d="M1.578-13.531v11.14h7.969v-11.14zm5.64 1.875v7.39H3.923v-7.39zm4.907-3.36V1.578H14.5v-16.594zm0 0"/></symbol><symbol overflow="visible" id="A"><path d="M3.531-7H7.47v-6.422H1.203v1.906h3.969v2.657H1.219v6.734H2.39c2 0 3.796-.047 5.921-.39l-.187-1.922a34.5 34.5 0 0 1-4.594.375zm9.203-8.031v6.25h-1.5v-5.953H9.031V.75h2.203v-7.625h1.5v8.406h2.25V-15.03zm0 0"/></symbol><symbol overflow="visible" id="B"><path d="M6.094-13.922c-2.594 0-4.547 1.703-4.547 4.078 0 2.39 1.953 4.094 4.547 4.094 2.593 0 4.578-1.703 4.578-4.094 0-2.375-1.985-4.078-4.578-4.078zm0 2.031c1.281 0 2.25.766 2.25 2.047 0 1.297-.969 2.063-2.25 2.063-1.282 0-2.25-.766-2.25-2.063 0-1.281.969-2.047 2.25-2.047zm6.125-3.14v16.61h2.36v-16.61zM1.156-1.781c2.86 0 6.735-.032 10.297-.75l-.14-1.719c-3.485.531-7.547.547-10.47.547zm0 0"/></symbol><symbol overflow="visible" id="C"><path d="M10.516-13.563H6.828v-1.546h-2.39v1.546H.765v1.876h9.75zM3.844-8.125c0-.828.719-1.25 1.797-1.25 1.062 0 1.812.422 1.812 1.25 0 .844-.75 1.25-1.812 1.25-1.079 0-1.797-.406-1.797-1.25zm5.875 0c0-1.797-1.688-3.047-4.078-3.047-2.375 0-4.063 1.25-4.063 3.047 0 1.813 1.688 3.047 4.063 3.047 2.39 0 4.078-1.234 4.078-3.047zM2.766-2.047h8.671v3.61h2.376v-5.516H2.765zM16-10.75h-2.188v-4.266h-2.374V-4.64h2.374v-4.156H16zm0 0"/></symbol><symbol overflow="visible" id="D"><path d="M3.234-9.75c0-1.36.907-2.203 2.11-2.203 1.218 0 2.125.844 2.125 2.203 0 1.39-.907 2.234-2.125 2.234-1.203 0-2.11-.843-2.11-2.234zm9.016-1.078v2.14H9.578c.094-.328.14-.703.14-1.062 0-.375-.062-.734-.14-1.078zm0 4.031v3.906h2.375v-12.125H12.25v2.297H8.562c-.812-.828-1.921-1.312-3.218-1.312-2.453 0-4.36 1.812-4.36 4.281 0 2.484 1.907 4.297 4.36 4.297 1.297 0 2.437-.5 3.25-1.344zM6.078-.625v-3.453H3.703v5.344H15V-.625zm0 0"/></symbol><symbol overflow="visible" id="E"><path d="M15.75-7.016h-2.172c.406-2.312.406-4.015.406-5.562v-1.485H2.5v1.907h9.172c0 1.422-.031 3.031-.453 5.14H.797v1.907h6.187v6.656h2.407V-5.11h6.359zm0 0"/></symbol><symbol overflow="visible" id="F"><path d="M12.86-15.031v6.344h-1.344v-6.079h-2.22v10.72C6.86-5.329 6.032-8.079 6.032-10.97v-.453H8.5v-1.922H1v1.922h2.719v.453c0 3.188-.781 6.11-3.25 7.547L1.89-1.625C3.437-2.531 4.406-4.094 4.953-6 5.547-4.36 6.5-3.016 7.97-2.234l1.328-1.782V.797h2.219V-6.75h1.343v8.281h2.25V-15.03zm0 0"/></symbol><symbol overflow="visible" id="G"><path d="M10.14-8.14c-1.796.374-3.437.484-6.374.5v-4.173h5.046v-1.89H1.407v7.969h1.375c3.672 0 5.563-.094 7.594-.547zM5.5-4.298H3.125v5.563h11.281V-.625H5.5zm8.313-6.203v-4.516h-2.376v11.97h2.376v-5.517H16V-10.5zm0 0"/></symbol><symbol overflow="visible" id="I"><path d="M2.422-2h9.14v3.563h2.376v-5.454H2.421zm2.531-10.516h6.563v2.141H4.953zm4.469 5.563V-8.5h4.422v-5.875H2.609V-8.5h4.438v1.547H.766v1.875h14.968v-1.875zm0 0"/></symbol><symbol overflow="visible" id="J"><path d="M10.75-7.469c-2.547-.86-3.703-2.86-3.734-4.75h3.218v-1.875H1.328v1.875h3.266c-.047 2.063-1.25 4.156-3.907 5.063l1.204 1.875c1.921-.64 3.218-1.969 3.953-3.578.703 1.468 1.937 2.656 3.765 3.25zM3.328-2.53h8.922v4.094h2.375v-5.985H3.328zM12.25-15v3.938H9.797v1.906h2.453v4h2.375V-15zm0 0"/></symbol><symbol overflow="visible" id="K"><path d="M6.875-13.734h-2.39v2.406c0 3.078-1.266 6.234-4.048 7.547L1.86-1.86c1.86-.907 3.11-2.657 3.829-4.766.671 1.984 1.843 3.578 3.578 4.469l1.437-1.875c-2.672-1.313-3.828-4.313-3.828-7.297zm9.281 5.078h-2.422v-6.36H11.36V1.547h2.375v-8.219h2.422zm0 0"/></symbol><symbol overflow="visible" id="L"><path d="M12.266-.516H6v-1.5h6.266zm0-3.296H6v-1.579H3.656v6.735h10.969v-6.735h-2.36zM5.344-8.407c-1.203 0-2.094-.735-2.094-1.969 0-1.25.89-1.984 2.094-1.984 1.218 0 2.11.734 2.11 1.984 0 1.234-.891 1.969-2.11 1.969zm6.906-6.61v3.657H9.61c-.47-1.766-2.157-2.97-4.266-2.97-2.485 0-4.36 1.657-4.36 3.954s1.875 3.953 4.36 3.953c2.14 0 3.828-1.219 4.281-3.016h2.625v3.329h2.375v-8.907zm0 0"/></symbol><symbol overflow="visible" id="M"><path d="M6.438-5.469c.578.11 1.171.157 1.812.157.656 0 1.266-.047 1.844-.157v3.172H6.438zm1.812-6.875c2.313 0 3.86.938 3.86 2.594 0 1.64-1.547 2.594-3.86 2.594-2.297 0-3.828-.953-3.828-2.594 0-1.656 1.531-2.594 3.828-2.594zm4.188 10.047v-4.047c1.25-.781 2-1.968 2-3.406 0-2.719-2.61-4.453-6.188-4.453-3.563 0-6.156 1.734-6.156 4.453-.031 1.438.734 2.625 1.984 3.406v4.047H.766v1.922h15v-1.922zm0 0"/></symbol><symbol overflow="visible" id="N"><path d="M3.219-10.047c0-1.297.922-2.062 2.172-2.062s2.187.765 2.187 2.062C7.578-8.78 6.641-8 5.391-8c-1.25 0-2.172-.781-2.172-2.047zm6.656 0c0-2.36-1.938-4.078-4.484-4.078-2.547 0-4.485 1.719-4.485 4.078C.906-7.703 2.844-6 5.391-6c2.546 0 4.484-1.703 4.484-4.047zm-7.11 7.375h8.672v4.235h2.376v-6.157H2.765zm13.172-8.265v-1.922h-2.124v-2.157h-2.376v9.766h2.376v-2.094h2.124V-9.28h-2.124v-1.656zm0 0"/></symbol><symbol overflow="visible" id="O"><path d="M8.094-3.594H6.969c.218-1.203.218-2.062.218-2.86v-.765H1.282v.969H6c0 .734-.031 1.563-.234 2.656H.406v.969h3.172V.797h1.25v-3.422h3.266zm0 0"/></symbol><symbol overflow="visible" id="P"><path d="M5.906-4.89H2.578v-.766h3.328zM7.11-7.439H5.906v.86H2.578v-.86H1.375v3.5h5.734zM2.5-1.688H1.281V.642H7.25v-.97H2.5zM.39-3.359v.968h3.344v1.344h1.22V-2.39h3.14v-.968zm0 0"/></symbol><symbol overflow="visible" id="Q"><path d="M3.688-7.063h-1.22v1.25c0 1.641-.702 3.297-2.187 3.922l.735 1.016c1.015-.484 1.703-1.39 2.093-2.531.375 1.047 1.032 1.875 2 2.328l.704-.984c-1.438-.626-2.125-2.172-2.125-3.75zm2.53-.656V.813h1.22V-7.72zm0 0"/></symbol><symbol overflow="visible" id="R"><path d="M5.86-4.625h.624v2.234h1.157v-5.312H6.484v2.094H5.86v-1.938H4.734v4.89H5.86zM4.5-6.844H3.016v-.781H1.812v.781H.345v.938H4.5zM1.687-4.14c0-.406.297-.609.75-.609.454 0 .75.203.75.61 0 .39-.296.609-.75.609-.453 0-.75-.219-.75-.61zm2.579 0c0-.89-.75-1.484-1.829-1.484-1.078 0-1.843.594-1.843 1.484 0 .875.765 1.485 1.844 1.485 1.078 0 1.828-.61 1.828-1.485zm.5 4.032c-1.141 0-1.704-.204-1.704-.641 0-.438.563-.64 1.704-.64 1.14 0 1.703.202 1.703.64s-.563.64-1.703.64zm0-2.188c-1.829 0-2.922.563-2.922 1.547S2.937.797 4.766.797C6.594.797 7.687.234 7.687-.75S6.595-2.297 4.767-2.297zm0 0"/></symbol><symbol overflow="visible" id="T"><path d="M3.516-4.125H1.844v-1.063h1.672zm1.203-3.047H3.516v1.063H1.844v-1.063H.64v4h4.078zM4.297-.14C3.219-.14 2.64-.375 2.64-.844c0-.484.578-.719 1.656-.719 1.094 0 1.672.235 1.672.72 0 .468-.578.702-1.672.702zm0-2.375c-1.75 0-2.86.625-2.86 1.672 0 1.031 1.11 1.656 2.86 1.656 1.781 0 2.89-.625 2.89-1.656 0-1.047-1.109-1.672-2.89-1.672zm2.797-3.203v-1.984H5.875v5h1.219v-2.031h1.125v-.985zm0 0"/></symbol><symbol overflow="visible" id="U"><path d="M6.297-.281H3.078V-1h3.219zm0-1.656H3.078v-.75H1.875V.687H7.5v-3.375H6.297zM3.578-4.267h-1.61v-1h1.61zm2.703-3.437v1.937h-1.5V-7.28H3.578v1.078h-1.61v-1.078H.75v3.984h4.031v-1.5h1.5v1.75H7.5v-4.656zm0 0"/></symbol><symbol overflow="visible" id="V"><path d="M4.813-5.469h-.829c.047-.39.079-.797.079-1.234H.75v.969h2.11C2.702-4.078 1.952-2.844.28-1.813l.688.844C2.563-1.906 3.406-3.094 3.78-4.5h1.031v1.156H3.625v.985h1.188V.42h1.14V-7.53h-1.14zm1.75-2.25V.797h1.14V-7.72zm0 0"/></symbol><symbol overflow="visible" id="W"><path d="M5.672-7.078H3.797v-.703H2.578v.703H.688v.86h4.984zM2.234-4.734c0-.313.375-.47.954-.47.578 0 .937.157.937.47 0 .296-.36.484-.938.484s-.953-.188-.953-.484zM5.75-3.266c-.625.079-1.297.141-1.953.172V-3.5c.906-.14 1.484-.594 1.484-1.234C5.281-5.516 4.438-6 3.188-6c-1.266 0-2.11.484-2.11 1.266 0 .64.578 1.093 1.5 1.234v.453c-.765.016-1.484.016-2.14.016l.156.922c1.5 0 3.437-.032 5.25-.344zM1.61-.672h4.64V.797h1.234V-1.61H1.61zm4.64-7.031v5.75h1.234v-5.75zm0 0"/></symbol><symbol overflow="visible" id="X"><path d="M.813-6.938v5.704h4.093v-5.704zm2.89.954v3.796H2.016v-3.796zm2.516-1.72V.814h1.218v-8.516zm0 0"/></symbol><symbol overflow="visible" id="Y"><path d="M1.813-3.594h2.015V-6.89H.625v.985h2.031v1.36H.625v3.452h.61c1.015 0 1.937-.031 3.03-.203l-.093-.984c-.844.125-1.594.172-2.36.187zM6.53-7.719V-4.5h-.765v-3.063H4.64V.391h1.125v-3.922h.765V.78h1.157v-8.5zm0 0"/></symbol><symbol overflow="visible" id="Z"><path d="M3.125-7.14c-1.328 0-2.328.874-2.328 2.093 0 1.219 1 2.094 2.328 2.094 1.328 0 2.344-.875 2.344-2.094 0-1.219-1.016-2.094-2.344-2.094zm0 1.03c.656 0 1.156.391 1.156 1.063C4.281-4.39 3.781-4 3.125-4c-.656 0-1.156-.39-1.156-1.047 0-.672.5-1.062 1.156-1.062zm3.14-1.609V.813h1.22V-7.72zM.595-.922c1.469 0 3.453-.015 5.281-.375l-.063-.875c-1.796.266-3.875.266-5.375.266zm0 0"/></symbol><symbol overflow="visible" id="aa"><path d="M5.406-6.969h-1.89v-.781H2.28v.781H.391V-6h5.015zM1.97-4.172c0-.422.375-.64.937-.64.531 0 .922.218.922.64 0 .438-.39.64-.922.64-.562 0-.937-.202-.937-.64zm3.015 0c0-.922-.859-1.562-2.078-1.562-1.219 0-2.094.64-2.094 1.562 0 .938.875 1.563 2.094 1.563 1.219 0 2.078-.625 2.078-1.563zM1.422-1.047h4.453V.797h1.219v-2.828H1.422zm6.797-4.469H7.094v-2.187H5.875v5.328h1.219v-2.14h1.125zm0 0"/></symbol><symbol overflow="visible" id="ab"><path d="M5.828-4.656h.656v2.14h1.157v-5.187H6.484v2.062h-.656v-1.906h-1.14v4.766h1.14zm-1.14.718c-1.125-.453-1.579-1.359-1.579-2.28v-.985H1.938v.984c0 .969-.47 2.016-1.657 2.532l.64.937c.782-.328 1.313-.938 1.626-1.656.297.61.781 1.125 1.484 1.39zm.078 3.813c-1.11 0-1.72-.219-1.72-.672 0-.453.61-.672 1.72-.672 1.093 0 1.703.219 1.703.672 0 .453-.61.672-1.703.672zm0-2.25c-1.797 0-2.938.594-2.938 1.578 0 1 1.14 1.594 2.938 1.594 1.78 0 2.921-.594 2.921-1.594 0-.984-1.14-1.578-2.921-1.578zm0 0"/></symbol><symbol overflow="visible" id="ac"><path d="M3.563-4.14h-1.61v-1.985h1.61zM6.28-5.517v.735H4.75v-.735zM4.75-3.812h1.531v1.093H7.5v-4.984H6.281v1.219H4.75v-.61h-4v3.907h4zM4.625-.142c-1.11 0-1.688-.234-1.688-.718 0-.485.579-.72 1.688-.72 1.125 0 1.703.235 1.703.72 0 .484-.578.718-1.703.718zm0-2.375c-1.797 0-2.906.61-2.906 1.657C1.719.187 2.829.797 4.625.797c1.813 0 2.922-.61 2.922-1.656 0-1.047-1.11-1.657-2.922-1.657zm0 0"/></symbol><symbol overflow="visible" id="ad"><path d="M4.906-2.922c.235-1.406.235-2.437.235-3.25v-.703H.75v.969h3.188c0 .765-.032 1.672-.22 2.89zm-1.86-1.515H1.845v2.515c-.532.016-1.047.016-1.516.016l.11.984c1.468 0 3.374-.031 5.109-.328l-.078-.89a29.3 29.3 0 0 1-2.422.187zm5.188.14H7.078v-3.422H5.86v8.5h1.22V-3.28h1.155zm0 0"/></symbol><symbol overflow="visible" id="ae"><path d="M.875-6.828v.969h2.828C3.531-3.984 2.578-2.656.422-1.61l.625.968c3.031-1.468 3.906-3.593 3.906-6.187zm5.375-.89v8.5h1.234v-8.5zm0 0"/></symbol><symbol overflow="visible" id="af"><path d="M7.703-5.64C5.797-5.829 4.86-6.689 4.86-7.5v-.172H3.61v.172c0 .813-.921 1.672-2.828 1.86l.39.906c1.47-.157 2.532-.704 3.063-1.485.547.782 1.594 1.328 3.063 1.485zm.375 2.218v-.953H.391v.953h3.234v.547H1.281v.906h4.672v.469H1.281V.734h6.094v-.921H2.5v-.485h4.64v-2.203H4.845v-.547zm0 0"/></symbol><symbol overflow="visible" id="ag"><path d="M1.5-2.625c.484 0 .86-.375.86-.89 0-.516-.376-.876-.86-.876-.469 0-.844.36-.844.875 0 .516.375.891.844.891zm0 0"/></symbol><symbol overflow="visible" id="ah"><path d="M1.656-5c0-.703.469-1.14 1.094-1.14.625 0 1.078.437 1.078 1.14 0 .703-.453 1.14-1.078 1.14S1.656-4.296 1.656-5zm4.625-.563v1.11h-1.36c.048-.172.063-.375.063-.547 0-.203-.03-.39-.062-.563zm0 2.079v2H7.5v-6.22H6.281v1.173h-1.89c-.407-.422-.985-.672-1.641-.672C1.484-7.203.516-6.266.516-5c0 1.266.968 2.203 2.234 2.203.656 0 1.25-.265 1.656-.687zM3.125-.328v-1.766H1.906V.641h5.797v-.97zm0 0"/></symbol><symbol overflow="visible" id="ai"><path d="M4.219-.125C3.079-.125 2.5-.313 2.5-.75c0-.453.578-.656 1.719-.656 1.14 0 1.718.203 1.718.656 0 .438-.578.625-1.718.625zm0-2.203c-1.844 0-2.938.562-2.938 1.578C1.281.234 2.375.797 4.22.797 6.062.797 7.172.234 7.172-.75c0-1.016-1.11-1.578-2.953-1.578zm.64-1.39v-.688h2.36v-.985H2.547v-.984h4.625v-.969H1.344v2.938H3.64v.687H.406v.969h7.688v-.969zm0 0"/></symbol><symbol overflow="visible" id="aj"><path d="M5.406-6.89h-1.89v-.876H2.28v.875H.391v.938h5.015zM1.97-4.14c0-.423.39-.641.937-.641.531 0 .922.218.922.64 0 .407-.39.625-.922.625-.547 0-.937-.218-.937-.625zm3.015 0c0-.907-.859-1.532-2.078-1.532-1.234 0-2.094.625-2.094 1.531 0 .907.86 1.516 2.094 1.516 1.219 0 2.078-.61 2.078-1.516zM4.328-.11c-1.078 0-1.656-.203-1.656-.609 0-.406.578-.594 1.656-.594 1.063 0 1.64.188 1.64.594 0 .406-.577.61-1.64.61zm0-2.109c-1.766 0-2.86.563-2.86 1.5 0 .953 1.095 1.516 2.86 1.516 1.75 0 2.844-.563 2.844-1.516 0-.937-1.094-1.5-2.844-1.5zM8.188-5.5v-.984H7.093v-1.22H5.875v5.391h1.219V-3.64h1.093v-1H7.095V-5.5zm0 0"/></symbol><symbol overflow="visible" id="ak"><path d="M1.172-2.688c1.484-.265 2.547-1 3.078-2.015C4.781-3.72 5.86-3 7.36-2.734l.468-.954C6-3.968 5-4.984 4.891-6.094h2.546v-.968H1.032v.968h2.547C3.468-4.984 2.484-3.922.703-3.64zm3.687 1.5v-1.875H3.641v1.876H.39v1h7.703v-1zm0 0"/></symbol><symbol overflow="visible" id="al"><path d="M3.531-7.063H2.297v1.25c0 1.579-.64 3.204-2.078 3.875l.734.985c.953-.469 1.594-1.36 1.969-2.438.344 1.016.953 1.829 1.828 2.282l.75-.954C4.125-2.75 3.531-4.28 3.531-5.813zm4.766 2.625H7.062v-3.265H5.845v8.5h1.218v-4.219h1.235zm0 0"/></symbol><symbol overflow="visible" id="am"><path d="M5.469-3.86c-1.328-.437-1.89-1.484-1.89-2.546v-.875H2.343v.812c0 1.157-.594 2.282-2 2.735l.64.968c.954-.343 1.61-1 1.985-1.812.36.75.969 1.344 1.875 1.656zM1.703-1.296h4.578V.797H7.5v-3.063H1.703zm4.578-6.406v1.578H4.734v.984h1.547v2.485H7.5v-5.047zm0 0"/></symbol><symbol overflow="visible" id="an"><path d="M8.094-3.438v-.968H7.03c.157-.907.157-1.625.157-2.266v-.672H1.343v.969H6c0 .563-.031 1.188-.188 1.969H.391v.968h3.234v1.188H1.172v.969h4.812V.797H7.22V-2.25H4.844v-1.188zm0 0"/></symbol><symbol overflow="visible" id="ao"><path d="M3.094-5.875h1.234v-.984H.547v.984h1.36v.422C1.906-4 1.468-2.47.233-1.687l.72.89c.765-.484 1.265-1.312 1.562-2.281.265.906.75 1.64 1.515 2.078l.703-.89c-1.218-.72-1.64-2.141-1.64-3.563zm1.734 1.063H3.734v.984h1.094V.406h1.125v-7.984H4.828zM6.531-7.72v8.5h1.157v-8.5zm0 0"/></symbol><symbol overflow="visible" id="ap"><path d="M7.11-2.219c.28-1.719.28-2.89.28-3.937v-.828H1.14v.968h5.032c0 .985 0 2.125-.281 3.672zM5.311-1.203v-2.688H4.125v2.688h-.906v-2.688H2.016v2.688H.39v.969h7.703v-.97zm0 0"/></symbol><symbol overflow="visible" id="aq"><path d="M5.969-5.86H1.297v2.532h6.125v-.969H2.547v-.672h4.672v-2.484H1.28v.969H5.97zm2.125 3.141H.39v.969h1.78V.797h1.22V-1.75h1.718V.797h1.22V-1.75h1.765zm0 0"/></symbol><symbol overflow="visible" id="bf"><path d="M4.234-6.453c1.11 0 1.813.328 1.813.937 0 .61-.703.922-1.813.922-1.125 0-1.828-.312-1.828-.922 0-.609.703-.937 1.828-.937zm0 2.828c1.813 0 3.063-.734 3.063-1.89 0-1.157-1.25-1.907-3.063-1.907-1.828 0-3.078.75-3.078 1.906 0 1.157 1.25 1.891 3.078 1.891zm3.86.64H.39V-2h1.75V.781h1.234V-2h1.703V.781h1.234V-2h1.782zm0 0"/></symbol><symbol overflow="visible" id="bg"><path d="M3.5-4.25H1.844v-1.89H3.5zm1.203-2.844H.641v3.813h4.062zM4.313-.14C3.234-.14 2.64-.375 2.64-.875c0-.484.593-.734 1.671-.734 1.079 0 1.657.25 1.657.734 0 .5-.578.734-1.657.734zm0-2.421c-1.766 0-2.875.624-2.875 1.687C1.438.188 2.546.813 4.313.813c1.75 0 2.875-.625 2.875-1.688S6.063-2.563 4.313-2.563zm2.78-3.25v-1.891H5.876v4.922h1.219v-2.016h1.125v-1.016zm0 0"/></symbol><symbol overflow="visible" id="bh"><path d="M3.516-5.89h1.687v-1H.531v1h1.766v.468c0 1.406-.688 3-2.078 3.656l.672.97c.968-.47 1.656-1.407 2.03-2.516.392 1.015 1.048 1.859 1.985 2.296l.688-.953c-1.407-.656-2.078-2.156-2.078-3.453zm4.78 1.421H7.064v-3.234h-1.22v8.5h1.22V-3.47h1.234zm0 0"/></symbol><symbol overflow="visible" id="bi"><path d="M4.234-6.61c1.172 0 1.829.25 1.829.735 0 .5-.657.734-1.829.734-1.156 0-1.812-.234-1.812-.734 0-.484.656-.734 1.812-.734zm0 2.423c1.875 0 3.094-.641 3.094-1.688 0-1.016-1.219-1.656-3.094-1.656-1.859 0-3.078.64-3.078 1.656 0 1.047 1.219 1.688 3.078 1.688zM5.047-2H3.422v-.781h1.625zm3.031-.781v-.969H.391v.969h1.812V-2H1.25v.953h4.688V.797h1.218V-2H6.25v-.781zm0 0"/></symbol><symbol overflow="visible" id="bj"><path d="M6.281-2.719H7.5v-4.984H6.281v1.547H4.734v.984h1.547zm-.765-1.234c-1.344-.438-1.907-1.469-1.907-2.61v-.703H2.375v.75c0 1.172-.61 2.329-2.047 2.797l.625.969c1.016-.328 1.688-1.016 2.063-1.89.359.765.968 1.343 1.859 1.656zM4.64-.141c-1.125 0-1.704-.234-1.704-.703 0-.5.579-.719 1.704-.719 1.109 0 1.687.22 1.687.72 0 .468-.578.702-1.687.702zm0-2.375c-1.813 0-2.922.61-2.922 1.672 0 1.031 1.11 1.64 2.922 1.64 1.796 0 2.906-.609 2.906-1.64 0-1.062-1.11-1.672-2.906-1.672zm0 0"/></symbol><symbol overflow="visible" id="bk"><path d="M6.297-.266H3.078v-.765h3.219zm0-1.687H3.078v-.813H1.875V.688H7.5v-3.454H6.297zM2.75-4.313c-.625 0-1.078-.375-1.078-1.015 0-.64.453-1.016 1.078-1.016s1.078.375 1.078 1.016c0 .64-.453 1.016-1.078 1.016zm3.531-3.39v1.86H4.938c-.25-.891-1.11-1.516-2.188-1.516-1.281 0-2.234.843-2.234 2.03 0 1.188.953 2.032 2.234 2.032 1.094 0 1.953-.625 2.188-1.547H6.28v1.703H7.5v-4.562zm0 0"/></symbol><symbol overflow="visible" id="bR"><path d="M5.484-3.797C4.125-4.14 3.531-5.016 3.516-5.875h1.687v-.953H3.516v-.906h-1.22v.906H.642v.953h1.656c-.016.969-.61 1.906-1.969 2.297l.594.953c.969-.297 1.64-.906 2.015-1.672.391.672 1.047 1.188 2 1.438zM4.313-.14C3.218-.14 2.64-.344 2.64-.812c0-.47.578-.672 1.671-.672 1.094 0 1.657.203 1.657.671 0 .47-.563.672-1.657.672zm0-2.28c-1.782 0-2.875.593-2.875 1.608C1.438.204 2.53.798 4.313.798c1.765 0 2.875-.594 2.875-1.61 0-1.015-1.11-1.609-2.875-1.609zm2.78-3.298v-1.984H5.876v5.125h1.219v-2.14h1.125v-1zm0 0"/></symbol><symbol overflow="visible" id="bS"><path d="M5.516-3.828c-1.313-.453-1.891-1.469-1.922-2.438H5.25v-.968H.687v.968H2.36C2.344-5.219 1.72-4.14.344-3.672l.625.953c.984-.312 1.656-1 2.031-1.828.36.75 1 1.36 1.938 1.672zM1.703-1.297h4.578V.797H7.5v-3.063H1.703zm4.578-6.406v2.031h-1.25v.969h1.25v2.047H7.5v-5.047zm0 0"/></symbol><symbol overflow="visible" id="bT"><path d="M3.516-4.563H1.844v-.843h1.672zm1.203-2.78H3.516v1.015H1.844v-1.016H.64v3.735h4.078zM2.703-.75h4.39v-2.313H1.485v.922h4.407v.532H1.484V.734h5.844v-.953H2.703zm4.39-5.313v-1.64H5.876v4.312h1.219v-1.687h1.11v-.984zm0 0"/></symbol><symbol overflow="visible" id="bU"><path d="M8.094-3.844v-.953H7.047c.14-.812.14-1.484.14-2.016v-.578H1.345v.954H6c-.016.453-.047.984-.172 1.64H.391v.953h3.234v.781H1.25v.954h4.703v.515H1.266V.734H7.39v-.953H2.484V-.75h4.688v-2.313H4.844v-.78zm0 0"/></symbol><symbol overflow="visible" id="bV"><path d="M3.688-5.89h1.75v-1H.671v1h1.781v.468c0 1.453-.703 3.016-2.125 3.656l.703.97c.985-.454 1.672-1.391 2.047-2.5.39 1.03 1.063 1.858 2.047 2.28l.672-.953c-1.422-.593-2.11-2.062-2.11-3.453zm2.53-1.813v8.5h1.22v-8.5zm0 0"/></symbol><symbol overflow="visible" id="bW"><path d="M4.734-2.766v.829h1.594v.671h1.219v-6.437H6.328v4.937zM3.11-6.53c.563 0 .954.218.954.625 0 .422-.391.64-.954.64-.578 0-.968-.218-.968-.64 0-.407.39-.625.968-.625zm0 2.14c1.235 0 2.11-.609 2.11-1.515 0-.907-.875-1.516-2.11-1.516-1.25 0-2.125.61-2.125 1.516S1.86-4.391 3.11-4.391zM2.656-.328v-1.156h1.172v-1.61c.672-.047 1.36-.125 2.031-.234l-.093-.875c-1.782.234-3.86.25-5.407.266l.157.968a50.7 50.7 0 0 0 2.093-.047v1.125H1.438V.641h6.296v-.97zm0 0"/></symbol><symbol overflow="visible" id="cB"><path d="M1.156-2.828c1-.281 1.672-.844 2.047-1.578.375.687 1.047 1.234 2.031 1.484l.532-.922C4.516-4.172 3.89-4.938 3.812-5.75h1.72v-.969H3.796v-.922H2.578v.922H.875v.969h1.688c-.079.86-.672 1.656-1.938 1.984zm2.64-.25H2.579v1.281c-.781.031-1.515.031-2.14.031l.156.985c1.453 0 3.453-.016 5.281-.375l-.063-.89c-.656.093-1.328.155-2.015.202zm2.47-4.64v8.53h1.218v-8.53zm0 0"/></symbol><symbol overflow="visible" id="cC"><path d="M7.469-7.703H6.234V-1.5H7.47zm-1.86 3.937c-1.39-.437-1.984-1.53-1.984-2.64v-.828H2.391v.828c0 1.125-.61 2.312-2.016 2.797l.61.968c.984-.343 1.656-1.03 2.046-1.89.36.797 1.016 1.422 1.953 1.75zM3.016-.328v-1.766h-1.22V.641h5.876v-.97zm0 0"/></symbol><symbol overflow="visible" id="cD"><path d="M2.422-4.906h3.64v1.187h-3.64zm2.422 3.718V-2.75h2.422v-4.438H6.062v1.329h-3.64v-1.329H1.203v4.438h2.422v1.563H.391v1h7.703v-1zm0 0"/></symbol><symbol overflow="visible" id="cE"><path d="M7.016-2.094c.343-1.812.343-3.015.343-4.078v-.812H1.188v.968H6.14c0 .985-.016 2.172-.344 3.782zm-2.672.89V-4.14H3.125v2.938H.406v.969h7.688v-.97zm0 0"/></symbol><symbol overflow="visible" id="cF"><path d="M3.594-7.063H2.359v1.235c0 1.625-.64 3.266-2.078 3.937l.75.97c.953-.47 1.594-1.36 1.953-2.454.36 1.031.985 1.86 1.907 2.313l.718-.97c-1.406-.624-2.015-2.187-2.015-3.796zm2.719-.656v2.672H4.688v.969h1.625v4.89H7.53v-8.53zm0 0"/></symbol><symbol overflow="visible" id="cG"><path d="M.703-7.078v.969H3.47C3.28-4.906 2.219-3.922.329-3.406l.515.969c2.531-.735 3.953-2.329 3.953-4.641zm2.11 4.844h-1.22V.64h5.782v-.97H2.812zm4.265-3.11v-2.36H5.86v6.079h1.22v-2.719h1.14v-1zm0 0"/></symbol><symbol overflow="visible" id="as"><path d="M1.11-3.016c.968-.343 1.812-1.03 2.156-2.015.359.922 1.218 1.593 2.187 1.922l.219-.375c-1.14-.36-2.156-1.297-2.156-2.485v-.047h2.03v-.406h-2.03V-7.5h-.5v1.078H1.03v.406h1.985v.047c0 1.235-1 2.203-2.141 2.578zm2.406-.28h-.5v1.687c-.875.03-1.72.03-2.438.03l.078.438c1.5 0 3.531 0 5.407-.359l-.032-.36a22.45 22.45 0 0 1-2.515.22zm3.093-4.25V.655h.485v-8.203zm0 0"/></symbol><symbol overflow="visible" id="at"><path d="M7.188-7.547h-.485v6.031h.484zm-1.782 4.25c-1.14-.453-2.14-1.61-2.14-2.953v-.844H2.78v.844c0 1.39-.953 2.625-2.11 3.11l.282.39a3.868 3.868 0 0 0 2.078-2.406c.344 1.031 1.172 1.86 2.11 2.25zM2.531.031v-2.094h-.484v2.5h5.422V.031zm0 0"/></symbol><symbol overflow="visible" id="au"><path d="M1.14-5c0-.89.673-1.578 1.61-1.578.922 0 1.594.687 1.594 1.578 0 .906-.672 1.578-1.594 1.578-.938 0-1.61-.672-1.61-1.578zm5.579-.781v1.547H4.687c.094-.235.141-.5.141-.766a2.48 2.48 0 0 0-.14-.781zm0 1.953v2.375h.484v-6.094H6.72v1.344H4.453a2.135 2.135 0 0 0-1.703-.813C1.547-7.016.672-6.187.672-5c0 1.188.875 2.016 2.078 2.016.734 0 1.344-.329 1.719-.844zM2.562.032v-2.126h-.484V.437h5.375V.031zm0 0"/></symbol><symbol overflow="visible" id="av"><path d="M7.938-3.453H6.655c.235-1.203.235-2.063.235-2.828v-.703H1.5v.406h4.906v.297c0 .765 0 1.64-.265 2.828H.516v.422h3.468V.656h.485V-3.03h3.468zm0 0"/></symbol><symbol overflow="visible" id="aw"><path d="M4.234.234c-1.406 0-2.296-.406-2.296-1.062 0-.672.89-1.063 2.296-1.063 1.407 0 2.297.391 2.297 1.063 0 .656-.89 1.062-2.297 1.062zm0-2.53c-1.734 0-2.796.53-2.796 1.468C1.438.109 2.5.625 4.233.625 5.97.625 7.016.109 7.016-.828c0-.938-1.047-1.469-2.782-1.469zm.22-1.11V-4.5h2.609v-.422h-5.11v-1.844h5.031v-.406h-5.5V-4.5h2.5v1.094H.531v.422h7.407v-.422zm0 0"/></symbol><symbol overflow="visible" id="ax"><path d="M5.406-6.547H3.234V-7.64H2.75v1.094H.547v.406h4.86zM1.5-4.203c0-.625.61-1.047 1.484-1.047.875 0 1.47.422 1.47 1.047s-.595 1.047-1.47 1.047S1.5-3.578 1.5-4.203zm3.406 0c0-.89-.765-1.438-1.922-1.438-1.171 0-1.937.547-1.937 1.438 0 .89.766 1.437 1.937 1.437 1.157 0 1.922-.546 1.922-1.437zM4.313.219c-1.313 0-2.141-.36-2.141-1 0-.61.828-.985 2.14-.985 1.297 0 2.141.375 2.141.985 0 .64-.844 1-2.14 1zm0-2.375c-1.641 0-2.625.5-2.625 1.375 0 .89.984 1.406 2.625 1.406 1.625 0 2.609-.516 2.609-1.406 0-.875-.984-1.375-2.61-1.375zm3.796-3.422V-6H6.844v-1.547h-.485v5.328h.485v-1.625h1.265v-.422H6.844v-1.312zm0 0"/></symbol><symbol overflow="visible" id="ay"><path d="M2.11-6.188h1.624V-2c-.546.047-1.109.047-1.625.063zm2.109 0h1v-.421H.625v.421h1v4.25c-.422.016-.828.016-1.203.016l.078.438c1.469 0 3.469-.016 5.219-.282l-.032-.39c-.468.062-.968.11-1.468.14zm3.984 2H6.766v-3.375h-.5V.642h.5v-4.407h1.437zm0 0"/></symbol><symbol overflow="visible" id="az"><path d="M1.203-5.14c0-.86.688-1.485 1.61-1.485.937 0 1.609.625 1.609 1.484 0 .844-.672 1.47-1.61 1.47-.921 0-1.609-.626-1.609-1.47zm3.703 0c0-1.141-.875-1.923-2.093-1.923-1.22 0-2.079.782-2.079 1.922 0 1.141.86 1.891 2.079 1.891 1.218 0 2.093-.75 2.093-1.89zM1.594-1.829h4.765V.656h.485V-2.25h-5.25zm6.531-3.5H6.844v-2.234h-.485v4.843h.485v-2.187h1.281zm0 0"/></symbol><symbol overflow="visible" id="aA"><path d="M4.234-7.016c1.422 0 2.329.391 2.329 1.047 0 .657-.907 1.047-2.329 1.047-1.437 0-2.343-.39-2.343-1.047 0-.656.906-1.047 2.343-1.047zm0 2.485c1.782 0 2.829-.516 2.829-1.438 0-.922-1.047-1.437-2.829-1.437-1.78 0-2.843.515-2.843 1.437S2.453-4.53 4.234-4.53zM1.954-.938h5v-1.687h-5.5v.406h5.015v.906h-5V.532h5.75V.125H1.953zM.515-3.89v.422h7.421v-.422zm0 0"/></symbol><symbol overflow="visible" id="aB"><path d="M3.219-6.719c.922 0 1.578.516 1.578 1.219 0 .719-.656 1.25-1.578 1.25S1.64-4.781 1.64-5.5c0-.703.656-1.219 1.578-1.219zm0 2.875c1.203 0 2.047-.656 2.047-1.656 0-.969-.844-1.64-2.047-1.64-1.203 0-2.047.671-2.047 1.64 0 1 .844 1.656 2.047 1.656zm2.797.516c-1.844.265-3.954.297-5.532.297l.079.437c.734 0 1.578-.015 2.453-.047V.391h.5v-3.063c.828-.047 1.703-.14 2.546-.281zm.656-4.219V.656h.484v-8.203zm0 0"/></symbol><symbol overflow="visible" id="aC"><path d="M5.406-6.469H3.234v-1.078H2.75v1.078H.547v.407h4.86zM1.5-4c0-.656.61-1.11 1.484-1.11.875 0 1.47.454 1.47 1.11 0 .625-.595 1.094-1.47 1.094S1.5-3.375 1.5-4zm3.406 0c0-.922-.765-1.516-1.922-1.516-1.171 0-1.937.594-1.937 1.516 0 .89.766 1.484 1.937 1.484 1.157 0 1.922-.593 1.922-1.484zM2.328-1.89h-.484V.436H7.25V.031H2.328zm4.516-2.844v-2.813h-.485v6.156h.485v-2.937h1.281v-.406zm0 0"/></symbol><symbol overflow="visible" id="aD"><path d="M4.86-5.203v.406h1.859v3.281h.484v-6.03H6.72v2.343zm.437 1.937c-1.125-.406-2.078-1.437-2.078-2.546v-.594H5.14v-.422H.78v.422H2.75v.593c0 1.235-1.016 2.344-2.156 2.766l.265.39c.954-.374 1.797-1.187 2.125-2.218.344.906 1.141 1.656 2.063 2.016zM2.563.031v-2.094h-.485v2.5h5.375V.031zm0 0"/></symbol><symbol overflow="visible" id="aE"><path d="M6.5-4.781H1.969v-1.953H6.5zm.469-2.36H1.5v2.766h5.469zM2-1.89h-.5V.438h5.625V.03H2zM.516-3.28v.406h3.5v1.828H4.5v-1.828h3.453v-.406zm0 0"/></symbol><symbol overflow="visible" id="aF"><path d="M.984-6.656v.422h3.22c-.126 2-1.345 3.75-3.563 4.843L.92-1c2.61-1.297 3.766-3.406 3.766-5.656zm7.204 2.531H6.766v-3.422h-.5V.641h.5v-4.329h1.421zm0 0"/></symbol><symbol overflow="visible" id="aG"><path d="M2.578-1.75c-.75 0-1.297-.61-1.297-1.406 0-.781.547-1.406 1.297-1.406.75 0 1.297.625 1.297 1.406 0 .797-.547 1.406-1.297 1.406zm0-3.234c-1 0-1.734.75-1.734 1.828s.734 1.828 1.734 1.828c1.016 0 1.75-.75 1.75-1.828s-.734-1.828-1.75-1.828zm.25-2.313h-.484v1.25H.516v.406h4.14v-.406H2.828zm4.094-.25v3.516H5.625v-3.313h-.484V.22h.484V-3.61h1.297V.64h.484v-8.188zm0 0"/></symbol><symbol overflow="visible" id="aH"><path d="M1.5-5.125c0-.844.719-1.453 1.688-1.453.984 0 1.703.61 1.703 1.453 0 .844-.72 1.453-1.704 1.453-.968 0-1.687-.61-1.687-1.453zm1.938 1.86c1.14-.094 1.921-.813 1.921-1.86C5.36-6.25 4.47-7 3.188-7 1.921-7 1.03-6.25 1.03-5.125c0 1.047.782 1.766 1.922 1.86v1.593c-.86.031-1.672.031-2.375.031l.078.422c1.5 0 3.531 0 5.422-.343l-.047-.375c-.828.14-1.718.203-2.593.234zm3.171-4.297V.655h.485v-8.219zm0 0"/></symbol><symbol overflow="visible" id="aI"><path d="M5.406-6.61H3.234v-1H2.75v1H.547v.407h4.86zM1.5-4.202c0-.64.61-1.063 1.484-1.063.875 0 1.47.422 1.47 1.063 0 .625-.595 1.062-1.47 1.062S1.5-3.578 1.5-4.203zm3.406 0c0-.906-.765-1.453-1.922-1.453-1.171 0-1.937.547-1.937 1.453 0 .89.766 1.453 1.937 1.453 1.157 0 1.922-.563 1.922-1.453zM1.594-1.516h4.765V.641h.485v-2.579h-5.25zm6.531-3.687H6.844v-2.36h-.485v5.125h.485V-4.78h1.281zm0 0"/></symbol><symbol overflow="visible" id="aJ"><path d="M7.5-5.047c-1.25-.156-3.016-.937-3.016-2.078v-.39h-.5v.39c0 1.14-1.765 1.922-3.03 2.078l.171.39c1.172-.187 2.61-.78 3.11-1.75.468.97 1.906 1.563 3.093 1.75zm.438 1.453V-4H.516v.406h3.468v.985h-2.53v.39h5.015v.938h-5V.53h5.75V.125H1.953V-.906h5V-2.61H4.47v-.985zm0 0"/></symbol><symbol overflow="visible" id="aK"><path d="M1.344-1.906V-6.11h2.578v-.422H.859v5.047h.5c1.36 0 2.157-.047 3.125-.266l-.078-.422c-.922.219-1.703.266-3.047.266zm5.625-5.64v3.359H5.547v-3.157h-.469V.188h.469v-3.954h1.422V.641h.468v-8.188zm0 0"/></symbol><symbol overflow="visible" id="aL"><path d="M5.766-6.484h-2.25v-1.094h-.5v1.094H.766v.406h5zm-3.97 2.468c0-.656.595-1.109 1.47-1.109.859 0 1.468.453 1.468 1.11 0 .64-.609 1.109-1.468 1.109-.875 0-1.47-.469-1.47-1.11zm1.72 1.485c1.015-.078 1.671-.64 1.671-1.485 0-.921-.78-1.5-1.921-1.5-1.157 0-1.922.579-1.922 1.5 0 .86.656 1.407 1.672 1.485v1.015c-.86.032-1.704.047-2.438.047l.078.422c1.547 0 3.578-.031 5.422-.312l-.031-.375c-.813.109-1.672.171-2.531.203zm3.093-5.016V.641h.485v-8.188zm0 0"/></symbol><symbol overflow="visible" id="aM"><path d="M6.719-5.39v1.421H4.344v.422h2.375v2.14h.5v-6.14h-.5v1.75h-2.11c.094-.344.157-.719.157-1.094H1.078v.407h3.156C4.11-4.844 2.672-3.547.672-2.875l.234.406c1.672-.578 2.985-1.594 3.547-2.922zM2.625.03v-2.047h-.484V.438h5.28V.03zm0 0"/></symbol><symbol overflow="visible" id="aN"><path d="M3.11-6.813h-.485v1.657c0 1.468-1.094 3.047-2.188 3.61l.313.405c.89-.515 1.766-1.625 2.125-2.89.36 1.203 1.25 2.234 2.125 2.703l.313-.375C4.234-2.25 3.108-3.734 3.108-5.156zM8.202-4.14H6.766v-3.421h-.5V.64h.5v-4.36h1.437zm0 0"/></symbol><symbol overflow="visible" id="aO"><path d="M6.719.11H2.562v-1.235H6.72zm0-1.641H2.562V-2.72h-.484V.516h5.125V-2.72H6.72zM2.75-3.844c-.938 0-1.61-.625-1.61-1.453 0-.828.673-1.437 1.61-1.437.922 0 1.594.609 1.594 1.437 0 .828-.672 1.453-1.594 1.453zm3.969-3.703v2.031H4.812c-.125-1-.937-1.64-2.062-1.64-1.219 0-2.078.75-2.078 1.86 0 1.109.86 1.874 2.078 1.874 1.14 0 1.953-.672 2.063-1.672h1.906v1.938h.484v-4.39zm0 0"/></symbol><symbol overflow="visible" id="aP"><path d="M5.203-3.563C4.093-3.969 3.11-5.046 3.11-6.219v-.937h-.468v.906c0 1.344-.938 2.453-2.094 2.922l.25.39a3.7 3.7 0 0 0 2.11-2.265c.327.922 1.124 1.672 2.03 2.031zM4.25.22c-1.297 0-2.156-.39-2.156-1.032 0-.64.86-1.046 2.156-1.046 1.328 0 2.172.406 2.172 1.046C6.422-.171 5.578.22 4.25.22zm0-2.469c-1.64 0-2.64.516-2.64 1.438 0 .921 1 1.437 2.64 1.437 1.656 0 2.656-.516 2.656-1.438 0-.921-1-1.437-2.656-1.437zm2.594-3.063v-2.25h-.485V-2.5h.485v-2.39h1.281v-.423zm0 0"/></symbol><symbol overflow="visible" id="aQ"><path d="M3.266-6.797H2.78v1.64c0 1.532-1.187 3.095-2.265 3.641l.312.391C1.734-1.609 2.656-2.719 3.031-4c.375 1.234 1.313 2.281 2.203 2.75l.313-.39c-1.094-.516-2.281-2.032-2.281-3.516zm3.421-.75V.656h.485v-8.203zm0 0"/></symbol><symbol overflow="visible" id="aR"><path d="M5.281-3.578C4.171-4 3.22-5.031 3.22-6.156v-.422H5.14V-7H.78v.422H2.75v.422c0 1.25-1.016 2.36-2.156 2.781l.265.39c.97-.39 1.797-1.203 2.125-2.218.344.906 1.141 1.64 2.063 2.016zM6.72.109H2.562v-1.218H6.72zm0-1.625H2.562v-1.171h-.5V.515h5.126v-3.204h-.47zm-.016-6.046v2.078H4.86v.421h1.844v1.954h.484v-4.454zm0 0"/></symbol><symbol overflow="visible" id="aS"><path d="M7.5-4.313c-1.234-.203-3.016-1.156-3.016-2.421v-.5h-.5v.5c0 1.296-1.765 2.218-3.03 2.421l.218.407c1.156-.219 2.578-.938 3.062-2.016.5 1.063 1.922 1.797 3.063 2.016zm.438 1.47H.516v.421h3.453V.641h.484v-3.063h3.484zm0 0"/></symbol><symbol overflow="visible" id="aT"><path d="M1.031-6.719v5.235h3.672V-6.72zm3.188.407v4.421H1.5v-4.421zm2.468-1.235V.641h.485v-8.188zm0 0"/></symbol><symbol overflow="visible" id="aU"><path d="M1.297-1.828v-2.094h2.547v-2.703H.797v.422h2.578v1.875H.828v2.922h.516c1.031 0 1.968-.047 3.172-.25l-.063-.422c-1.156.219-2.094.25-3.11.25zm5.672-5.734v3.328H5.547V-7.36h-.469V.203h.469v-4.016h1.422V.641h.468v-8.204zm0 0"/></symbol><symbol overflow="visible" id="aV"><path d="M3.188-6.922c-1.266 0-2.157.75-2.157 1.875 0 1.11.89 1.875 2.157 1.875 1.28 0 2.171-.765 2.171-1.875 0-1.125-.89-1.875-2.171-1.875zm0 .422c.984 0 1.703.61 1.703 1.453 0 .844-.72 1.453-1.704 1.453-.968 0-1.687-.61-1.687-1.453 0-.844.719-1.453 1.688-1.453zm3.421-1.047V.656h.485v-8.203zM.656-1.234c1.5 0 3.531 0 5.422-.344l-.047-.375c-1.828.281-3.922.297-5.453.297zm0 0"/></symbol><symbol overflow="visible" id="aW"><path d="M1.219-3.766c1.218-.187 2.547-.718 3.015-1.703.454.985 1.782 1.516 3 1.703l.172-.39c-1.343-.172-2.922-.89-2.922-2.063h2.672v-.406H4.484v-.969h-.5v.969H1.328v.406h2.64c0 1.172-1.562 1.89-2.921 2.063zM2-1.796h-.5V.437h5.625V.03H2zM.516-3.173v.406h3.5v1.813H4.5v-1.813h3.453v-.406zm0 0"/></symbol><symbol overflow="visible" id="aX"><path d="M5.344-5.219H3.89C3.969-5.64 4-6.047 4-6.469H.875v.407h2.656c-.11 1.765-1.11 3.437-2.953 4.53l.313.376c1.546-.953 2.484-2.235 2.89-3.64h1.563v1.64H3.64v.422h1.703V.187h.468v-7.515h-.468zm1.625-2.328V.641h.468v-8.188zm0 0"/></symbol><symbol overflow="visible" id="aY"><path d="M3.078-6.281H5.36v2.89H3.08zM4.453-.844v-2.125H7.22v-.422H5.844v-2.89h1.375v-.422h-6v.422h1.375v2.89h-1.36v.422H3.97v2.125H.516v.406h7.453v-.406zm0 0"/></symbol><symbol overflow="visible" id="aZ"><path d="M5.188-3.797c-1.313.203-2.375.25-3.704.25H1.36v-1.437h3.094v-2.141H.86v.422h3.125v1.312H.891v2.266h.593c1.344 0 2.391-.047 3.75-.266zM2.405-1.828H6.72V.109H2.406zM1.937.516h5.266v-2.75H1.937zM6.72-7.547v1.906H5.03v.422H6.72v2.485h.484v-4.813zm0 0"/></symbol><symbol overflow="visible" id="ba"><path d="M.844-6.469v.422H3.53C3.437-4.328 2.625-2.64.578-1.53l.297.375C3.235-2.47 4-4.484 4-6.47zm6.125-1.078v3.406h-1.36v-3.187h-.468V.203h.468v-3.922h1.36v4.36h.468v-8.188zm0 0"/></symbol><symbol overflow="visible" id="bb"><path d="M6.719-1.453h.484v-6.094H6.72v1.14H4.187v.423H6.72v1.187H4.187v.406H6.72zM5.25-3.516a19.21 19.21 0 0 1-3.64.313H1.5v-3.719h-.484v4.14h.593c1.188 0 2.313-.062 3.688-.312zM2.547.031v-1.984h-.485v2.39h5.376V.031zm0 0"/></symbol><symbol overflow="visible" id="bc"><path d="M.844 0h3.484v-.469H2.922v-6.265h-.438c-.328.187-.734.328-1.28.421v.36h1.171V-.47H.844zm0 0"/></symbol><symbol overflow="visible" id="bd"><path d="M7.969-3.734v-.422h-1.25c.218-1.032.218-1.813.218-2.422v-.563H1.484v.407H6.47v.156c0 .61 0 1.375-.25 2.422H.516v.422h3.468v1.703H1.313v.422H6.53V.64h.5v-2.672H4.484v-1.703zm0 0"/></symbol><symbol overflow="visible" id="be"><path d="M2.813-6.11h1.624v-.406H.642v.407h1.703v.953c0 1.562-.797 3.062-1.89 3.718l.327.375c.844-.53 1.516-1.578 1.797-2.78.281 1.124.922 2.077 1.75 2.593l.313-.375C3.562-2.25 2.812-3.703 2.812-5.156zm2.5 1.579H3.796v.422h1.515V.187h.485v-7.515h-.484zm1.656-3.016V.641h.468v-8.188zm0 0"/></symbol><symbol overflow="visible" id="bl"><path d="M.984 0h.547v-3.188h2.672v-.484H1.531v-2.594h3.157v-.468H.983zm0 0"/></symbol><symbol overflow="visible" id="bm"><path d="M.984 0h.5v-4.266c0-.562-.03-1.296-.062-1.859h.031l.531 1.5L3.406-.719h.438l1.422-3.906.53-1.5h.032a36.946 36.946 0 0 0-.062 1.86V0h.515v-6.734h-.734L4.172-2.86c-.172.484-.328.984-.5 1.468h-.047l-.516-1.468-1.39-3.875H.984zm0 0"/></symbol><symbol overflow="visible" id="bn"><path d="M.984 0h.547v-6.734H.984zm0 0"/></symbol><symbol overflow="visible" id="bo"><path d="M.984 0H2.97c1.515 0 2.515-.672 2.515-1.969 0-.922-.578-1.468-1.437-1.61v-.046c.672-.203 1.031-.781 1.031-1.469 0-1.14-.89-1.64-2.25-1.64H.984zm.547-3.797V-6.28H2.72c1.187 0 1.812.328 1.812 1.25 0 .765-.547 1.234-1.875 1.234zm0 3.328v-2.89h1.313c1.344 0 2.094.453 2.094 1.39 0 1.047-.797 1.5-2.094 1.5zm0 0"/></symbol><symbol overflow="visible" id="bp"><path d="M2.344.125c.672 0 1.172-.39 1.656-.938h.031L4.078 0h.453v-4.922h-.547v3.594c-.546.672-.953.969-1.53.969-.75 0-1.063-.47-1.063-1.485v-3.078H.844v3.156c0 1.25.469 1.891 1.5 1.891zm0 0"/></symbol><symbol overflow="visible" id="bq"><path d="M2.14.125c1.079 0 1.688-.656 1.688-1.406 0-.953-.844-1.219-1.594-1.5-.578-.219-1.14-.422-1.14-.969 0-.438.328-.844 1.062-.844.469 0 .828.188 1.172.438l.266-.375a2.32 2.32 0 0 0-1.422-.516c-1.031 0-1.625.61-1.625 1.328 0 .844.812 1.156 1.547 1.406.578.204 1.187.47 1.187 1.063 0 .5-.375.922-1.125.922-.672 0-1.125-.25-1.547-.61l-.28.391c.437.36 1.077.672 1.812.672zm0 0"/></symbol><symbol overflow="visible" id="br"><path d="M.922 0h.531v-4.922H.922zm.281-6.078c.234 0 .453-.172.453-.422 0-.281-.218-.438-.453-.438-.25 0-.453.157-.453.438 0 .25.203.422.453.422zm0 0"/></symbol><symbol overflow="visible" id="bs"><path d="M.922 0h.531v-3.688c.578-.593.984-.89 1.563-.89.75 0 1.078.484 1.078 1.5V0h.531v-3.156c0-1.25-.469-1.89-1.5-1.89-.672 0-1.172.39-1.672.874h-.016l-.078-.75H.922zm0 0"/></symbol><symbol overflow="visible" id="bt"><path d="M2.813.125c.703 0 1.171-.234 1.562-.484L4.172-.75c-.375.25-.781.422-1.313.422-1.062 0-1.765-.844-1.796-2.047h3.484c.031-.125.031-.25.031-.39 0-1.438-.703-2.282-1.906-2.282-1.11 0-2.156 1-2.156 2.594 0 1.61 1.03 2.578 2.296 2.578zm-1.75-2.922c.093-1.125.828-1.797 1.625-1.797.859 0 1.406.61 1.406 1.797zm0 0"/></symbol><symbol overflow="visible" id="bu"><path d="M2.766.125c1.312 0 2.171-.797 2.171-1.828 0-1.031-.64-1.453-1.406-1.797l-1.015-.438c-.485-.218-1.141-.5-1.141-1.265 0-.703.578-1.156 1.438-1.156.656 0 1.187.28 1.578.687l.312-.375a2.571 2.571 0 0 0-1.89-.812c-1.157 0-2 .703-2 1.703 0 .984.765 1.406 1.359 1.672l1.015.453c.657.281 1.188.547 1.188 1.36 0 .765-.61 1.296-1.61 1.296a2.576 2.576 0 0 1-1.953-.906l-.343.39C1-.28 1.78.125 2.766.125zm0 0"/></symbol><symbol overflow="visible" id="bv"><path d="M2.766.125c.625 0 1.156-.266 1.578-.64l-.266-.376c-.328.297-.766.547-1.281.547-1.031 0-1.719-.86-1.719-2.11 0-1.265.75-2.124 1.734-2.124.454 0 .813.203 1.126.5l.296-.375c-.343-.297-.78-.594-1.437-.594-1.219 0-2.281.953-2.281 2.594 0 1.625.968 2.578 2.25 2.578zm0 0"/></symbol><symbol overflow="visible" id="bw"><path d="M.922 0h.531v-3.688c.578-.593.984-.89 1.563-.89.75 0 1.078.484 1.078 1.5V0h.531v-3.156c0-1.25-.469-1.89-1.5-1.89-.672 0-1.172.39-1.672.874v-3.172H.922zm0 0"/></symbol><symbol overflow="visible" id="bx"><path d="M2.75.125c1.188 0 2.219-.953 2.219-2.578 0-1.64-1.032-2.594-2.219-2.594-1.203 0-2.234.953-2.234 2.594C.516-.828 1.546.125 2.75.125zm0-.469c-.969 0-1.672-.86-1.672-2.11 0-1.265.703-2.124 1.672-2.124.953 0 1.656.86 1.656 2.125 0 1.25-.703 2.11-1.656 2.11zm0 0"/></symbol><symbol overflow="visible" id="by"><path d="M1.578.125c.172 0 .266-.031.36-.063l-.079-.421c-.109.015-.14.015-.171.015-.141 0-.235-.094-.235-.328v-6.672H.922v6.61c0 .578.219.859.656.859zm0 0"/></symbol><symbol overflow="visible" id="bz"><path d="M5.625-4.828h1.297v2.36h.469v-5.079h-.47v2.313H5.626v-2.157h-.469v4.657h.469zm-1.016 1.25c-1.03-.406-1.75-1.344-1.75-2.266v-1.203h-.484v1.203c0 .922-.75 2.016-1.781 2.469l.281.39c.813-.374 1.453-1.14 1.75-1.953.281.75.906 1.407 1.719 1.735zM4.75.234c-1.344 0-2.203-.406-2.203-1.03 0-.657.86-1.048 2.203-1.048 1.344 0 2.203.39 2.203 1.047 0 .625-.86 1.031-2.203 1.031zm0-2.468c-1.672 0-2.688.515-2.688 1.437C2.063.11 3.079.625 4.75.625c1.672 0 2.688-.516 2.688-1.422 0-.922-1.016-1.437-2.688-1.437zm0 0"/></symbol><symbol overflow="visible" id="bA"><path d="M4.11-3.75H1.405v-2.766H4.11zm2.609-1.984v1.203H4.594v-1.203zM4.594-4.11h2.125v1.437h.484v-4.875H6.72v1.39H4.594v-.765H.937v3.578h3.657zM4.547.219c-1.328 0-2.188-.422-2.188-1.11 0-.687.86-1.125 2.188-1.125 1.344 0 2.219.438 2.219 1.125 0 .688-.875 1.11-2.22 1.11zm0-2.625c-1.656 0-2.688.547-2.688 1.515C1.86.08 2.891.625 4.547.625c1.672 0 2.687-.547 2.687-1.516 0-.968-1.015-1.515-2.687-1.515zm0 0"/></symbol><symbol overflow="visible" id="bB"><path d="M4.75-2.984C5-4.61 5-5.72 5-6.313v-.296H.89v.406h3.626c0 .594-.016 1.672-.266 3.172zM2.812-4.266h-.484v2.579c-.672.015-1.328.015-1.906.015l.094.438c1.468-.016 3.421-.047 5.171-.313l-.03-.36c-.907.11-1.891.173-2.845.204zm5.344.22H6.72v-3.516h-.5V.64h.5v-4.25h1.437zm0 0"/></symbol><symbol overflow="visible" id="bC"><path d="M6.469-4.484H2.016v-1.25h4.453zm.484-2.813H6.47v1.156H2.016v-1.156H1.53v3.219h5.422zM1.984-1.766H1.5V.438h5.625V.03h-5.14zM.516-3.14v.407h3.5V-.97H4.5v-1.765h3.453v-.407zm0 0"/></symbol><symbol overflow="visible" id="bD"><path d="M2.703-1.688c-.906 0-1.547-.984-1.547-2.39 0-1.39.64-2.375 1.547-2.375.89 0 1.531.984 1.531 2.375 0 1.406-.64 2.39-1.53 2.39zm0-5.203C1.516-6.89.688-5.78.688-4.078c0 1.719.828 2.828 2.015 2.828 1.172 0 2-1.11 2-2.828 0-1.703-.828-2.813-2-2.813zm5.469 1.907v-.422H6.766v-2.14h-.5V.64h.5v-3.157h1.406v-.421H6.766v-2.047zm0 0"/></symbol><symbol overflow="visible" id="bE"><path d="M7.516-3.297C6.359-3.53 4.453-4.766 4.453-6.28v-.657h-.5v.657c0 1.531-1.86 2.75-3.031 2.984l.219.422c1.093-.297 2.562-1.203 3.062-2.484.516 1.28 2 2.203 3.078 2.484zm-7 2.36v.406h7.437v-.406zm0 0"/></symbol><symbol overflow="visible" id="bF"><path d="M1.047-7.188v.422h3.078c-.031.36-.11.688-.25 1l-3.234.172.109.422 2.938-.219c-.516.86-1.516 1.516-2.954 1.922l.188.406C3.375-3.765 4.64-5.233 4.64-7.186zM2.266-1.03h4.578v-1.797H1.75v.406h4.61v1.016H1.765V.516h5.406V.109H2.266zm4.578-4.532v-1.984h-.485v4.313h.485v-1.907h1.281v-.421zm0 0"/></symbol><symbol overflow="visible" id="bG"><path d="M1.344-1.797v-2.172H4.5v-2.797H.828v.438h3.188v1.937H.859v3.016h.625c1.657 0 2.72-.063 4.016-.313l-.047-.421c-1.266.25-2.344.312-3.969.312zm6.86-2.39H6.765v-3.36h-.5V.656h.5V-3.78h1.437zm0 0"/></symbol><symbol overflow="visible" id="bH"><path d="M5.61-5.016c-1.126-.265-2.094-.968-2.094-1.89v-.469h-.5v.469c0 .937-.954 1.718-2.063 2.015l.219.391c.969-.281 1.781-.86 2.11-1.656.327.75 1.14 1.281 2.109 1.515zM3.11-2.14h.484v-1.375c.812-.046 1.64-.109 2.437-.25L6-4.14c-1.828.25-3.906.25-5.453.25l.078.422c.719 0 1.594 0 2.484-.031zM6.61.11H2.343V-1h4.265zm0-1.515H2.343v-1.016h-.485V.516h5.235v-2.938h-.485zm0-6.14v4.687h.484v-4.688zm0 0"/></symbol><symbol overflow="visible" id="bI"><path d="M.422-3.281h2.265v-.453H.422zm0 0"/></symbol><symbol overflow="visible" id="bJ"><path d="M2.25 0h.61l2.187-6.734h-.563L3.281-2.86c-.265.812-.437 1.437-.719 2.25h-.03c-.266-.813-.438-1.438-.688-2.25L.625-6.734H.031zm0 0"/></symbol><symbol overflow="visible" id="bK"><path d="M2.313.125c.218 0 .53-.094.812-.188L3-.483c-.172.078-.422.14-.594.14-.656 0-.828-.406-.828-1.015v-3.11h1.406v-.453H1.578v-1.422h-.453l-.063 1.422-.78.047v.406h.765v3.063c0 .922.297 1.531 1.266 1.531zm0 0"/></symbol><symbol overflow="visible" id="bL"><path d="M.922 0h.531v-3.313c.36-.906.89-1.234 1.328-1.234a.91.91 0 0 1 .453.094l.11-.484c-.156-.094-.313-.11-.5-.11-.578 0-1.063.422-1.39 1.047h-.016l-.079-.922H.922zm0 0"/></symbol><symbol overflow="visible" id="bM"><path d="M3.39.125c.876 0 1.5-.36 2.016-.969l-.312-.344c-.469.516-.985.813-1.672.813-1.406 0-2.281-1.172-2.281-3.016 0-1.812.89-2.968 2.312-2.968.625 0 1.094.28 1.453.687l.328-.375a2.377 2.377 0 0 0-1.78-.812C1.75-6.86.546-5.516.546-3.375c0 2.156 1.187 3.5 2.844 3.5zm0 0"/></symbol><symbol overflow="visible" id="bN"><path d="M.922 0h.531v-3.688c.516-.593 1-.89 1.422-.89.734 0 1.063.484 1.063 1.5V0h.546v-3.688c.516-.593.97-.89 1.422-.89.719 0 1.063.484 1.063 1.5V0H7.5v-3.156c0-1.25-.484-1.89-1.484-1.89-.563 0-1.11.39-1.657 1-.171-.61-.578-1-1.359-1-.547 0-1.11.39-1.547.874h-.016l-.078-.75H.922zm0 0"/></symbol><symbol overflow="visible" id="bO"><path d="M.922 2.203h.531V-.484c.5.39.984.609 1.453.609 1.14 0 2.156-.984 2.156-2.672 0-1.5-.656-2.5-1.968-2.5-.594 0-1.156.36-1.64.719h-.016l-.079-.594H.922zM2.859-.344c-.359 0-.875-.172-1.406-.61v-2.843c.578-.5 1.063-.781 1.531-.781 1.11 0 1.516.86 1.516 2.031 0 1.328-.688 2.203-1.64 2.203zm0 0"/></symbol><symbol overflow="visible" id="bP"><path d="M.906-1.75c0-.625.469-1.11 1.031-1.547C2.422-2.469 3.125-1.64 3.829-1c-.422.406-.906.672-1.453.672C1.562-.328.906-.891.906-1.75zm.86-3.594c0-.61.343-1.078.921-1.078.532 0 .72.406.72.828 0 .688-.61 1.14-1.282 1.625-.219-.484-.36-.953-.36-1.375zm4.046 5c-.375-.125-.828-.39-1.28-.734.53-.703.921-1.547 1.187-2.469h-.516c-.234.828-.578 1.578-1.031 2.156-.688-.578-1.39-1.39-1.844-2.203.75-.578 1.547-1.14 1.547-2.015 0-.72-.422-1.25-1.172-1.25-.844 0-1.422.656-1.422 1.515 0 .516.172 1.094.453 1.657C1.031-3.172.36-2.61.36-1.72c0 1.11.86 1.844 1.97 1.844.765 0 1.358-.344 1.858-.828.532.422 1.032.687 1.47.828zm0 0"/></symbol><symbol overflow="visible" id="bQ"><path d="M2.547 2.344c1.437 0 2.36-.813 2.36-1.672 0-.781-.532-1.14-1.641-1.14H2.219c-.703 0-.922-.266-.922-.61 0-.313.187-.516.39-.688.22.125.532.204.797.204.97 0 1.735-.72 1.735-1.735 0-.5-.219-.922-.5-1.187h1.11v-.438H3.14a1.812 1.812 0 0 0-.657-.125c-.968 0-1.765.719-1.765 1.734 0 .594.312 1.094.625 1.344v.032c-.219.171-.547.5-.547.921 0 .391.203.641.453.797v.047C.797.125.516.562.516 1c0 .828.796 1.344 2.03 1.344zM2.484-1.97c-.656 0-1.234-.531-1.234-1.343 0-.813.563-1.313 1.234-1.313.672 0 1.22.5 1.22 1.313 0 .812-.579 1.343-1.22 1.343zm.125 3.907c-1.015 0-1.593-.407-1.593-1 0-.344.187-.704.609-1 .25.062.516.093.625.093h1c.734 0 1.125.188 1.125.719 0 .594-.703 1.188-1.766 1.188zm0 0"/></symbol><symbol overflow="visible" id="bX"><path d="M5.266-3.39C4.14-3.75 3.187-4.688 3.187-5.767v-.296H5.11v-.407H3.188v-1.14h-.485v1.14H.75v.407h1.953v.296c0 1.204-.969 2.204-2.11 2.594l.235.39c.969-.343 1.797-1.093 2.125-2.046.36.844 1.14 1.516 2.078 1.828zM4.25.218c-1.313 0-2.156-.39-2.156-1.032 0-.64.844-1.03 2.156-1.03 1.328 0 2.172.39 2.172 1.03C6.422-.171 5.578.22 4.25.22zm0-2.469c-1.64 0-2.64.516-2.64 1.438 0 .921 1 1.421 2.64 1.421 1.656 0 2.656-.5 2.656-1.421 0-.922-1-1.438-2.656-1.438zm2.594-3.063v-2.234h-.485v5.063h.485v-2.407h1.281v-.421zm0 0"/></symbol><symbol overflow="visible" id="bY"><path d="M1.14-2.75c1.094-.234 2.594-1.094 3.094-2.313.516 1.204 2.032 2.047 3.125 2.297l.22-.39C6.405-3.36 4.483-4.5 4.483-5.906v-.407h2.86v-.421H1.14v.421h2.843v.407c0 1.406-1.89 2.562-3.062 2.781zM4.485-.89v-2.094H4v2.093H.531v.422h7.422V-.89zm0 0"/></symbol><symbol overflow="visible" id="bZ"><path d="M5.297-3.39C4.172-3.798 3.219-4.845 3.219-5.97v-.547H5.14v-.406H.78v.406H2.75v.563c0 1.234-1.016 2.328-2.156 2.766l.265.374c.97-.374 1.797-1.171 2.125-2.203.344.907 1.141 1.641 2.063 2zm-3.5 1.656h4.922V.64h.484v-2.797H1.797zm4.922-5.813v2.234h-1.86v.422h1.86v2.25h.484v-4.906zm0 0"/></symbol><symbol overflow="visible" id="ca"><path d="M4.219-6.969c-1.688 0-2.922.875-2.922 2.188 0 1.343 1.234 2.203 2.922 2.203 1.687 0 2.937-.86 2.937-2.203 0-1.313-1.25-2.188-2.937-2.188zm0 .407c1.422 0 2.484.75 2.484 1.78 0 1.063-1.062 1.813-2.484 1.813-1.407 0-2.469-.75-2.469-1.812 0-1.032 1.063-1.782 2.469-1.782zM.516-.923V-.5h7.437v-.422zm0 0"/></symbol><symbol overflow="visible" id="cb"><path d="M4.469-.844v-1.734h2.718v-.406H1.97v-1.594h5.015v-2.313H1.47v.407h5.047v1.5H1.5v2.406h2.484v1.734H.516v.422h7.453v-.422zm0 0"/></symbol><symbol overflow="visible" id="cc"><path d="M6.719-5.563v1.375H4.562v-1.375zm-2.64 2.204H1.452v-1.672h2.625zm.484-.422h2.156v2.312h.484v-6.078H6.72v1.578H4.562v-1.047h-.484v1.579H1.453v-1.579H.97v4.079h3.594zM2.515.03v-2.094H2.03v2.5h5.375V.031zm0 0"/></symbol><symbol overflow="visible" id="cd"><path d="M1.922-6.438h4.61v2.97h-4.61zM4.469-.875v-2.203h2.547v-3.75H1.453v3.75h2.531v2.203H.516v.406h7.453v-.406zm0 0"/></symbol><symbol overflow="visible" id="ce"><path d="M7.188-7.547h-.5v4.313h.5zm-6.047.36v.421h3.14c-.031.344-.11.704-.25 1l-3.297.172.094.438 3.016-.235c-.531.86-1.547 1.532-3.031 1.922L1-3.063c2.5-.671 3.797-2.14 3.797-4.124zM2.484.125V-1h4.704v-1.781h-5.22v.406h4.735v.984H2V.531h5.5V.125zm0 0"/></symbol><symbol overflow="visible" id="cf"><path d="M7.188-7.547h-.485v4.703h.484zm-4.36.922c.938 0 1.61.61 1.61 1.469 0 .828-.672 1.453-1.61 1.453-.922 0-1.594-.625-1.594-1.453 0-.86.672-1.469 1.594-1.469zm0 3.344c1.219 0 2.078-.766 2.078-1.875 0-1.125-.86-1.89-2.078-1.89-1.219 0-2.078.765-2.078 1.89 0 1.11.86 1.875 2.078 1.875zm3.39.812H5.75v.531c0 .657-.469 1.563-1.297 2.047-.828-.437-1.281-1.265-1.281-2.046v-.532h-.469v.531c0 .797-.719 1.704-1.719 2.094l.25.375C2.016.22 2.625-.39 2.922-1.079A2.61 2.61 0 0 0 4.453.595C5.234.25 5.75-.422 5.984-1.094 6.266-.39 6.875.22 7.704.531l.25-.375c-1.032-.36-1.735-1.234-1.735-2.094zm0 0"/></symbol><symbol overflow="visible" id="cg"><path d="M7.078-4.938H2.062v-2.328h-.5v2.735h5.516zm-5.062 3H1.53V.438h5.594V.017h-5.11zM.516-3.28v.422h7.437v-.422zm0 0"/></symbol><symbol overflow="visible" id="ch"><path d="M5.188-6.625H3.108v-1.016h-.484v1.016H.531v.406h4.657zM1.5-4.156c0-.64.563-1.11 1.36-1.11.812 0 1.343.47 1.343 1.11 0 .64-.531 1.11-1.344 1.11-.796 0-1.359-.47-1.359-1.11zm3.188 0c0-.907-.75-1.5-1.829-1.5-1.078 0-1.812.593-1.812 1.5 0 .922.734 1.5 1.812 1.5 1.079 0 1.829-.578 1.829-1.5zm-2.891 2.75h4.922V.64h.484v-2.454H1.797zm4.922-6.157v2.125H5.125v.407h1.594v1.11h-1.61v.405h1.61v1.157h.484v-5.204zm0 0"/></symbol><symbol overflow="visible" id="ci"><path d="M7.188-7.547h-.485V-1.5h.484zM1.234-4.984c0-.875.688-1.532 1.594-1.532.922 0 1.61.657 1.61 1.532 0 .89-.688 1.562-1.61 1.562-.906 0-1.594-.672-1.594-1.562zm3.672 0c0-1.157-.875-1.97-2.078-1.97-1.187 0-2.078.813-2.078 1.97 0 1.187.89 2 2.078 2 1.203 0 2.078-.813 2.078-2zM2.531.03V-2.14h-.484V.438h5.422V.03zm0 0"/></symbol><symbol overflow="visible" id="cj"><path d="M5.203-3.922c-1.172.25-2.172.313-3.594.313h-.093v-3.5H1.03v3.921h.578c1.438 0 2.454-.078 3.657-.328zm-2.687 2h4.203V.11H2.516zM2.03.516h5.172v-2.844H2.031zM6.72-7.547v1.016H4.187v.406H6.72v1.047H4.187v.406H6.72v1.953h.484v-4.828zm0 0"/></symbol><symbol overflow="visible" id="ck"><path d="M5.125-5.5v.422h1.594v1.156h-1.61v.406h1.61v1.297h.484v-5.344H6.72V-5.5zm.063-1.063H3.108V-7.64h-.484v1.079H.531v.406h4.657zM1.5-4.124c0-.656.563-1.125 1.36-1.125.812 0 1.343.469 1.343 1.125s-.531 1.11-1.344 1.11c-.796 0-1.359-.454-1.359-1.11zm3.188 0c0-.922-.75-1.516-1.829-1.516-1.078 0-1.812.594-1.812 1.516 0 .906.734 1.516 1.812 1.516 1.079 0 1.829-.61 1.829-1.516zM4.563.235c-1.329 0-2.188-.376-2.188-.985 0-.625.86-1 2.188-1 1.343 0 2.203.375 2.203 1 0 .61-.86.984-2.204.984zm0-2.376c-1.688 0-2.688.5-2.688 1.391 0 .875 1 1.375 2.688 1.375 1.687 0 2.703-.5 2.703-1.375 0-.89-1.016-1.39-2.704-1.39zm0 0"/></symbol><symbol overflow="visible" id="cl"><path d="M1.36-1.906v-2.078h2.593v-.407H1.36v-1.765h2.704v-.422H.874v5.094h.516c1.375 0 2.156-.047 3.109-.235l-.063-.422c-.921.204-1.687.235-3.046.235zm5.624-5.657v3.375H5.625v-3.171h-.469V.203h.469V-3.78h1.36V.64h.468v-8.204zm0 0"/></symbol><symbol overflow="visible" id="cm"><path d="M6.484-6.063H1.5v1.625h5.625v-.375H1.969v-.89h5v-1.563H1.484v.375h5zM1.938-.827H7v-1.625H1.437v.39h5.094v.86H1.453V.516h5.828V.125H1.938zM.516-3.672v.39h7.437v-.39zm0 0"/></symbol><symbol overflow="visible" id="cn"><path d="M.906-7v.422H4.11C4-5.031 2.672-3.844.58-3.266l.171.407C3.156-3.516 4.64-5 4.64-7zM4.61-1.937H7v-.407H1.703v.406h2.39v.032C4.094-.828 2.642 0 1.423.234l.203.391C2.719.391 3.922-.25 4.359-1.156 4.797-.266 6 .39 7.094.625l.203-.39C6.078 0 4.609-.845 4.609-1.907zm2.235-3.391v-2.25h-.485v4.797h.485v-2.125h1.281v-.422zm0 0"/></symbol><symbol overflow="visible" id="co"><path d="M1.031-6.656v.422h3.266C4.172-4.204 2.922-2.47.672-1.375l.265.406c2.641-1.297 3.86-3.39 3.86-5.687zm5.672-.89V.64h.484v-8.188zm0 0"/></symbol><symbol overflow="visible" id="cp"><path d="M1.234-2.61c1.188-.265 2.532-.953 3-2.093.47 1.14 1.797 1.828 2.985 2.094l.218-.407c-1.359-.25-2.953-1.171-2.953-2.64v-.094H7.22v-.406H4.484v-1.188h-.5v1.188H1.25v.406h2.734v.094c0 1.468-1.593 2.39-2.953 2.64zm3.25 1.735v-2.031h-.5v2.031H.516v.422h7.437v-.422zm0 0"/></symbol><symbol overflow="visible" id="cq"><path d="M1.156-3.016a.478.478 0 0 0 .469-.5c0-.312-.234-.515-.469-.515-.25 0-.468.203-.468.515 0 .313.218.5.468.5zm0 0"/></symbol><symbol overflow="visible" id="cr"><path d="M1.188-4.25c1.187-.188 2.593-.797 3.046-1.766.438.97 1.844 1.579 3.047 1.766l.188-.406C6.203-4.828 4.53-5.563 4.53-6.672v-.078h2.735v-.406H1.203v.406h2.75v.078c0 1.11-1.687 1.844-2.953 2.016zM6.53-.797c0 .64-.89 1.031-2.297 1.031-1.406 0-2.296-.39-2.296-1.03 0-.641.89-1.016 2.296-1.016 1.407 0 2.297.375 2.297 1.015zM7.938-3.25v-.406H.516v.406h3.468v1.047c-1.609.047-2.546.547-2.546 1.406C1.438.125 2.484.625 4.233.625c1.735 0 2.782-.5 2.782-1.422 0-.86-.938-1.36-2.547-1.406V-3.25zm0 0"/></symbol><symbol overflow="visible" id="cs"><path d="M4.219-6.969c1.422 0 2.343.407 2.343 1.094 0 .688-.921 1.11-2.343 1.11-1.407 0-2.328-.423-2.328-1.11 0-.688.921-1.094 2.328-1.094zm0 2.594c1.765 0 2.843-.531 2.843-1.5 0-.953-1.078-1.5-2.843-1.5-1.75 0-2.828.547-2.828 1.5 0 .969 1.078 1.5 2.828 1.5zm1.25 2.234a7.22 7.22 0 0 0-1.235-.093c-.468 0-.875.03-1.218.093v-1.078h2.453zM6.53-.797c0 .656-.906 1.031-2.297 1.031-1.406 0-2.296-.375-2.296-1.03 0-.641.89-1.048 2.296-1.048 1.391 0 2.297.407 2.297 1.047zm1.407-2.422v-.406H.516v.406h2V-2c-.704.234-1.079.64-1.079 1.203C1.438.125 2.484.625 4.235.625c1.735 0 2.782-.5 2.782-1.422 0-.547-.36-.953-1.063-1.203v-1.219zm0 0"/></symbol><symbol overflow="visible" id="ct"><path d="M1.344-1.453h5.172V.64h.5v-2.5H1.344zm.672-4.469h4.453v1.14H2.016zm2.468 2.703v-1.156h2.47v-3h-.485v1.063H2.016v-1.063H1.53v3h2.453v1.156H.516v.406h7.421v-.406zm0 0"/></symbol><symbol overflow="visible" id="cu"><path d="M5.406-6.64H3.234v-1H2.75v1H.547v.406h4.86zM1.5-4.329c0-.61.594-1.031 1.484-1.031.875 0 1.47.421 1.47 1.046 0 .61-.595 1.032-1.47 1.032S1.5-3.703 1.5-4.328zm3.406 0c0-.875-.765-1.422-1.922-1.422-1.171 0-1.937.547-1.937 1.438 0 .875.766 1.421 1.937 1.421 1.157 0 1.922-.546 1.922-1.437zM6.36.109H2.266V-1h4.093zm0-1.515H2.266v-1.016H1.78V.516h5.063v-2.938h-.485zm1.766-3.985H6.844v-2.171h-.485v4.75h.485V-4.97h1.281zm0 0"/></symbol><symbol overflow="visible" id="cv"><path d="M4.156-4.078h-2.75v-1.453h2.75zm.485-3.156h-.485v1.296h-2.75v-1.296H.922v3.562H4.64zM2.25-1h4.594v-1.828H1.75v.39h4.61v1.047H1.765V.531h5.406V.125H2.25zm4.594-4.688v-1.875h-.485v4.282h.485v-1.985h1.265v-.421zm0 0"/></symbol><symbol overflow="visible" id="cw"><path d="M7.969-4.094v-.422H6.766c.171-.937.171-1.64.171-2.203v-.5H1.484v.407H6.47v.093c0 .547 0 1.235-.188 2.203H.516v.422h3.468v1.235H1.438v.406h5.078v1.047H1.453V.516h5.75V.109H1.937v-1.14H7V-2.86H4.469v-1.235zm0 0"/></symbol><symbol overflow="visible" id="cx"><path d="M2.969-1.703c-.875 0-1.485-.61-1.485-1.422 0-.813.61-1.422 1.485-1.422.86 0 1.484.61 1.484 1.422 0 .813-.625 1.422-1.484 1.422zm0-3.266c-1.14 0-1.953.766-1.953 1.844 0 1.094.812 1.844 1.953 1.844 1.125 0 1.937-.75 1.937-1.844 0-1.078-.812-1.844-1.937-1.844zm.219-2.515h-.485v1.28H.47v.423h4.875v-.422H3.187zm5.015 3.406H6.766v-3.484h-.5V.64h.5v-4.313h1.437zm0 0"/></symbol><symbol overflow="visible" id="cy"><path d="M4.547-3.016c.078-.312.125-.671.125-1.062 0-.406-.047-.813-.14-1.14h2.187v2.202zM2.672-1.687c-.906 0-1.531-.985-1.531-2.391 0-1.39.625-2.375 1.53-2.375.907 0 1.532.984 1.532 2.375 0 1.406-.625 2.39-1.531 2.39zm4.047-5.86v1.906H4.39c-.344-.78-.954-1.25-1.72-1.25C1.5-6.89.689-5.78.689-4.078c0 1.719.812 2.828 1.984 2.828.797 0 1.422-.5 1.75-1.344h2.297V.641h.484v-8.188zm0 0"/></symbol><symbol overflow="visible" id="cz"><path d="M3.297-6.266h2.062v-.421H.781v.421h2.031v1.391c0 1.438-1.203 2.984-2.265 3.531l.312.39c.891-.484 1.844-1.609 2.204-2.843.374 1.188 1.328 2.203 2.234 2.64l.297-.39c-1.11-.5-2.297-1.906-2.297-3.328zm3.39-1.28V.64h.485v-8.188zm0 0"/></symbol><symbol overflow="visible" id="cA"><path d="M4.89-2.656v.39h1.735v.97h.5v-6.25h-.5v4.89zM3.157-6.812c.906 0 1.531.421 1.531 1.015 0 .625-.625 1.047-1.53 1.047-.907 0-1.532-.422-1.532-1.047 0-.594.625-1.016 1.531-1.016zm0 2.437c1.203 0 2-.547 2-1.422 0-.86-.797-1.39-2-1.39-1.203 0-2 .53-2 1.39 0 .875.797 1.422 2 1.422zM2.97-1.641h.5v-1.671c.781-.047 1.61-.11 2.39-.235l-.046-.36c-1.766.22-3.813.235-5.344.235l.078.438c.719 0 1.547 0 2.422-.047zM2.203.031v-1.953H1.72v2.36h5.61V.03zm0 0"/></symbol><symbol overflow="visible" id="cH"><path d="M4.672-3.969C3.64-4.329 2.89-5.219 2.89-6.156v-.735h-.485v.735c0 1.062-.797 2.015-1.86 2.406l.25.39c.891-.359 1.579-1.046 1.86-1.906.281.75.922 1.375 1.75 1.688zm-1.797.375h-.469v1.844c-.734.016-1.437.016-1.984.016l.094.437c1.109 0 2.89-.031 4.28-.281l-.03-.375a17.33 17.33 0 0 1-1.891.172zm3.953-3.969v3.47H5.61v-3.25h-.468V.171h.468v-3.844h1.22V.641h.468v-8.204zm0 0"/></symbol><symbol overflow="visible" id="cI"><path d="M2-1.813h-.484v2.25h5.609V.031H2zm.016-3.828h4.453v1.25H2.016zM4.484-3v-.984h2.47V-7.22h-.485v1.172H2.016v-1.172H1.53v3.235h2.453V-3H.516v.422h7.421V-3zm0 0"/></symbol><symbol overflow="visible" id="cJ"><path d="M3.14-6.266h1.922v-.421H.688v.421h1.97v1.375c0 1.422-1.173 3-2.235 3.532l.297.406c.89-.485 1.828-1.61 2.187-2.86.36 1.157 1.235 2.188 2.125 2.657l.282-.39c-1.079-.532-2.172-2-2.172-3.345zM8.204-4.14H6.766v-3.406h-.5V.641h.5v-4.36h1.437zm0 0"/></symbol><symbol overflow="visible" id="cK"><path d="M4.625-3.328C3.578-3.766 2.859-4.781 2.859-5.86v-.11h1.579v-.422H2.859v-1.078h-.484v1.078H.735v.422h1.64v.11c0 1.14-.703 2.234-1.75 2.687l.266.36c.843-.376 1.468-1.141 1.734-2.047a3.253 3.253 0 0 0 1.734 1.906zM1.969-1.61H6.89V.64h.5v-2.672H1.969zm4.953-5.938v2.25H5.625v-2.11h-.469v4.829h.469v-2.297h1.297v2.36h.469v-5.032zm0 0"/></symbol><symbol overflow="visible" id="cL"><path d="M.89-6.906v.422h3.235C3.985-4.86 2.578-3.578.578-2.922l.219.406C3.078-3.28 4.64-4.844 4.64-6.906zM2.329-2.11h-.484V.437H7.25V.031H2.328zm4.5-2.844v-2.594h-.484v6.063h.484v-3.047h1.297v-.422zm0 0"/></symbol><symbol overflow="visible" id="cM"><path d="M4.469-.875v-2.328h2.593v-.422H2v-2.813h4.969v-.421H1.516v3.656h2.468v2.328H.516v.422h7.437v-.422zm0 0"/></symbol><symbol overflow="visible" id="cN"><path d="M3.266-6.797h-.5v1.64c0 1.485-1.11 3.048-2.188 3.626l.313.39c.906-.515 1.78-1.64 2.125-2.937.359 1.234 1.265 2.312 2.171 2.797l.282-.407c-1.078-.53-2.203-2.03-2.203-3.468zm3.453-.75v2.906H4.594v.407h2.125v4.89h.484v-8.203zm0 0"/></symbol><symbol overflow="visible" id="cO"><path d="M4.781-4.078C5-5.188 5-6 5-6.516v-.375H1.016v.407H4.53c0 .515 0 1.265-.25 2.359zm.922.594a27.3 27.3 0 0 1-2.828.218v-1.843h-.5v1.875c-.672.015-1.297.015-1.86.015l.063.438c1.453-.016 3.453-.047 5.172-.328zM2.297-1.938h-.5V.438h5.281V.031H2.297zm4.515-2.859v-2.75h-.5v6.188h.5v-3.016h1.282v-.422zm0 0"/></symbol><symbol overflow="visible" id="cP"><path d="M6.719.11H2.562v-1.204H6.72zm0-1.61H2.562v-1.156h-.5V.516h5.126v-3.172h-.47zm-2.64-2.344H1.452v-1.5h2.625zm2.64-3.719v2.11H4.562v-1.688h-.484v1.391H1.453v-1.39H.97v3.718h3.594v-1.625h2.156v1.969h.484v-4.485zm0 0"/></symbol><symbol overflow="visible" id="cQ"><path d="M.422 0h4.047v-.484H2.375c-.36 0-.734.03-1.11.062 1.798-1.672 2.876-3.094 2.876-4.5 0-1.156-.688-1.937-1.86-1.937-.812 0-1.39.406-1.89.984l.343.313c.391-.485.907-.844 1.485-.844.953 0 1.375.656 1.375 1.5 0 1.218-.89 2.61-3.172 4.578zm0 0"/></symbol><symbol overflow="visible" id="cR"><path d="M2.469.125c1.219 0 1.984-1.156 1.984-3.516 0-2.328-.766-3.468-1.984-3.468C1.25-6.86.484-5.72.484-3.391.484-1.03 1.25.125 2.47.125zm0-.453c-.875 0-1.438-1.016-1.438-3.063 0-2 .563-3.015 1.438-3.015s1.453 1.015 1.453 3.015c0 2.047-.578 3.063-1.453 3.063zm0 0"/></symbol><symbol overflow="visible" id="cS"><path d="M2.016-2.234H1.53V.437h5.672V.017H2.016zm4.703-1.47c.234-1.202.234-2.062.234-2.765v-.593H1.484v.421H6.47v.172c0 .703 0 1.563-.25 2.766H.516v.422h7.437v-.422zm0 0"/></symbol><symbol overflow="visible" id="cT"><path d="M.922-6.656v.422h3.187C4-4.25 2.875-2.516.58-1.391L.874-1c2.656-1.313 3.719-3.406 3.719-5.656zm5.781-.89v3.359h-2.11v.421h2.11V.641h.484v-8.188zm0 0"/></symbol><symbol overflow="visible" id="cU"><path d="M5.516-3.984c-1.391.218-2.532.28-3.938.28h-.14v-1.358h3.187v-2.079H.922v.422H4.14v1.266H.953v2.172h.625c1.438 0 2.563-.063 4-.281zM6.719.109h-4.25v-1.203h4.25zm0-1.609h-4.25v-1.14h-.485V.515h5.204v-3.157h-.47zm-.016-6.047v4.453h.484v-4.453zm0 0"/></symbol><symbol overflow="visible" id="cV"><path d="M1.203-5.14c0-.876.688-1.5 1.625-1.5.922 0 1.594.624 1.594 1.5 0 .843-.672 1.468-1.594 1.468-.937 0-1.625-.625-1.625-1.469zm3.703 0c0-1.141-.875-1.923-2.078-1.923-1.234 0-2.094.782-2.094 1.922 0 1.125.86 1.891 2.094 1.891 1.203 0 2.078-.766 2.078-1.89zM4.25.218c-1.297 0-2.156-.406-2.156-1.094 0-.656.86-1.078 2.156-1.078 1.328 0 2.172.422 2.172 1.078 0 .688-.844 1.094-2.172 1.094zm0-2.578c-1.625 0-2.64.546-2.64 1.484 0 .953 1.015 1.5 2.64 1.5 1.656 0 2.656-.547 2.656-1.5 0-.938-1-1.484-2.656-1.484zm2.594-3.032v-2.171h-.485v4.906h.485V-4.97h1.281v-.422zm0 0"/></symbol><symbol overflow="visible" id="cW"><path d="M2.375-1.703c-.766 0-1.281-.953-1.281-2.328s.515-2.344 1.281-2.344c.766 0 1.266.969 1.266 2.344s-.5 2.328-1.266 2.328zm3-2.563H4.109c-.062-1.562-.734-2.546-1.734-2.546-1.047 0-1.734 1.078-1.734 2.78 0 1.688.687 2.782 1.734 2.782 1.016 0 1.672-1 1.734-2.594h1.266V.203h.469v-7.562h-.469zm1.61-3.296V.64h.468v-8.204zm0 0"/></symbol><symbol overflow="visible" id="cX"><path d="M5.39-4.594c-1.359.297-2.577.39-3.812.39h-.125v-2.968H.97v3.39h.61c1.25 0 2.468-.093 3.89-.39zM6.36.11H2.265v-1.28h4.093zm0-1.703H2.265v-1.25h-.5V.531h5.078v-3.375h-.485zM8.124-5.64H6.844v-1.906h-.485v4.234h.485v-1.906h1.281zm0 0"/></symbol><symbol overflow="visible" id="cY"><path d="M6.484-4.14H2v-1.423h4.484zM6.97-7.22h-.485v1.25H2v-1.25h-.5v3.5h5.469zm.984 4.61H.516v.406h3.453V.64h.484v-2.844h3.5zm0 0"/></symbol></defs><g fill="#898989"><use xlink:href="#a" x="558.666" y="819.169"/><use xlink:href="#a" x="561.924" y="819.169"/></g><g fill="#595757"><use xlink:href="#b" x="39.637" y="818.993"/><use xlink:href="#c" x="45.03" y="818.993"/><use xlink:href="#d" x="50.424" y="818.993"/><use xlink:href="#e" x="55.817" y="818.993"/><use xlink:href="#f" x="61.211" y="818.993"/><use xlink:href="#g" x="62.769" y="818.993"/><use xlink:href="#h" x="68.162" y="818.993"/><use xlink:href="#i" x="73.556" y="818.993"/><use xlink:href="#j" x="78.949" y="818.993"/><use xlink:href="#k" x="84.342" y="818.993"/><use xlink:href="#l" x="89.736" y="818.993"/><use xlink:href="#b" x="95.129" y="818.993"/><use xlink:href="#c" x="100.523" y="818.993"/></g><g fill="#595757"><use xlink:href="#m" x="105.916" y="818.993"/><use xlink:href="#n" x="107.474" y="818.993"/><use xlink:href="#o" x="112.868" y="818.993"/><use xlink:href="#p" x="118.261" y="818.993"/><use xlink:href="#q" x="123.655" y="818.993"/><use xlink:href="#m" x="129.048" y="818.993"/><use xlink:href="#r" x="130.606" y="818.993"/><use xlink:href="#s" x="136" y="818.993"/><use xlink:href="#t" x="141.393" y="818.993"/><use xlink:href="#m" x="146.786" y="818.993"/><use xlink:href="#u" x="148.345" y="818.993"/></g><g fill="#595757"><use xlink:href="#v" x="151.43" y="818.993"/><use xlink:href="#w" x="154.87" y="818.993"/><use xlink:href="#x" x="156.35" y="818.993"/><use xlink:href="#m" x="157.735" y="818.993"/><use xlink:href="#y" x="159.293" y="818.993"/><use xlink:href="#y" x="162.379" y="818.993"/></g><use xlink:href="#z" x="181.166" y="106.876"/><use xlink:href="#A" x="197.346" y="106.876"/><use xlink:href="#B" x="213.526" y="106.876"/><use xlink:href="#C" x="229.707" y="106.876"/><use xlink:href="#D" x="245.887" y="106.876"/><use xlink:href="#E" x="262.067" y="106.876"/><use xlink:href="#F" x="278.247" y="106.876"/><use xlink:href="#G" x="294.428" y="106.876"/><use xlink:href="#H" x="310.608" y="106.876"/><use xlink:href="#I" x="315.282" y="106.876"/><use xlink:href="#J" x="331.463" y="106.876"/><use xlink:href="#K" x="347.643" y="106.876"/><use xlink:href="#L" x="363.823" y="106.876"/><use xlink:href="#H" x="380.004" y="106.876"/><use xlink:href="#M" x="384.678" y="106.876"/><use xlink:href="#N" x="400.858" y="106.876"/><g fill="#fff"><use xlink:href="#O" x="110.503" y="145.999"/><use xlink:href="#P" x="118.818" y="145.999"/></g><g fill="#fff"><use xlink:href="#Q" x="279.351" y="145.999"/><use xlink:href="#R" x="287.666" y="145.999"/><use xlink:href="#S" x="295.981" y="145.999"/><use xlink:href="#T" x="298.383" y="145.999"/><use xlink:href="#U" x="306.698" y="145.999"/></g><g fill="#fff"><use xlink:href="#V" x="472.894" y="145.999"/><use xlink:href="#W" x="481.209" y="145.999"/></g><g fill="#0c3388"><use xlink:href="#X" x="66.314" y="224.861"/><use xlink:href="#Y" x="74.629" y="224.861"/><use xlink:href="#Z" x="82.944" y="224.861"/><use xlink:href="#aa" x="91.259" y="224.861"/><use xlink:href="#ab" x="99.574" y="224.861"/><use xlink:href="#ac" x="107.889" y="224.861"/><use xlink:href="#ad" x="116.204" y="224.861"/><use xlink:href="#aa" x="124.518" y="224.861"/><use xlink:href="#S" x="132.833" y="224.861"/><use xlink:href="#ae" x="135.235" y="224.861"/><use xlink:href="#af" x="143.55" y="224.861"/><use xlink:href="#ag" x="151.865" y="224.861"/><use xlink:href="#ah" x="154.692" y="224.861"/><use xlink:href="#O" x="163.007" y="224.861"/><use xlink:href="#S" x="171.322" y="224.861"/></g><g fill="#0c3388"><use xlink:href="#ai" x="68.07" y="239.847"/><use xlink:href="#aj" x="76.384" y="239.847"/><use xlink:href="#S" x="84.699" y="239.847"/><use xlink:href="#ak" x="87.101" y="239.847"/><use xlink:href="#al" x="95.416" y="239.847"/><use xlink:href="#ag" x="103.731" y="239.847"/><use xlink:href="#P" x="106.558" y="239.847"/><use xlink:href="#am" x="114.873" y="239.847"/><use xlink:href="#ad" x="123.188" y="239.847"/><use xlink:href="#S" x="131.503" y="239.847"/><use xlink:href="#an" x="133.905" y="239.847"/><use xlink:href="#ao" x="142.22" y="239.847"/><use xlink:href="#S" x="150.535" y="239.847"/><use xlink:href="#ap" x="152.937" y="239.847"/><use xlink:href="#aq" x="161.252" y="239.847"/></g><use xlink:href="#ar" x="246.646" y="173.9"/><use xlink:href="#as" x="249.048" y="173.9"/><use xlink:href="#at" x="257.363" y="173.9"/><use xlink:href="#ar" x="265.677" y="173.9"/><use xlink:href="#au" x="268.08" y="173.9"/><use xlink:href="#av" x="276.394" y="173.9"/><use xlink:href="#aw" x="284.709" y="173.9"/><use xlink:href="#ax" x="293.024" y="173.9"/><use xlink:href="#ar" x="301.339" y="173.9"/><use xlink:href="#ay" x="303.741" y="173.9"/><use xlink:href="#az" x="312.056" y="173.9"/><use xlink:href="#aA" x="320.371" y="173.9"/><use xlink:href="#ar" x="328.686" y="173.9"/><use xlink:href="#aB" x="331.088" y="173.9"/><use xlink:href="#aC" x="339.403" y="173.9"/><use xlink:href="#ar" x="347.718" y="173.9"/><use xlink:href="#aD" x="238.331" y="188.886"/><use xlink:href="#aE" x="246.646" y="188.886"/><use xlink:href="#aF" x="254.961" y="188.886"/><use xlink:href="#ar" x="263.275" y="188.886"/><use xlink:href="#aG" x="265.677" y="188.886"/><use xlink:href="#aH" x="273.992" y="188.886"/><use xlink:href="#ar" x="282.307" y="188.886"/><use xlink:href="#aI" x="284.709" y="188.886"/><use xlink:href="#aJ" x="293.024" y="188.886"/><use xlink:href="#aK" x="301.339" y="188.886"/><use xlink:href="#aL" x="309.654" y="188.886"/><use xlink:href="#ar" x="317.969" y="188.886"/><use xlink:href="#ay" x="320.371" y="188.886"/><use xlink:href="#aM" x="328.686" y="188.886"/><use xlink:href="#ar" x="337.001" y="188.886"/><use xlink:href="#aN" x="339.403" y="188.886"/><use xlink:href="#aO" x="347.718" y="188.886"/><g><use xlink:href="#aP" x="464.579" y="181.393"/><use xlink:href="#aQ" x="472.894" y="181.393"/><use xlink:href="#aR" x="481.209" y="181.393"/><use xlink:href="#aS" x="489.523" y="181.393"/></g><g><use xlink:href="#aT" x="254.406" y="232.354"/><use xlink:href="#aU" x="262.721" y="232.354"/><use xlink:href="#aV" x="271.036" y="232.354"/><use xlink:href="#aI" x="279.351" y="232.354"/><use xlink:href="#aW" x="287.666" y="232.354"/><use xlink:href="#aX" x="295.981" y="232.354"/><use xlink:href="#aY" x="304.296" y="232.354"/><use xlink:href="#aZ" x="312.61" y="232.354"/><use xlink:href="#ar" x="320.925" y="232.354"/><use xlink:href="#ba" x="323.327" y="232.354"/><use xlink:href="#as" x="331.642" y="232.354"/></g><g><use xlink:href="#bb" x="459.802" y="232.354"/><use xlink:href="#ar" x="468.117" y="232.354"/><use xlink:href="#bc" x="470.519" y="232.354"/><use xlink:href="#aL" x="475.277" y="232.354"/><use xlink:href="#ar" x="483.592" y="232.354"/><use xlink:href="#ba" x="485.994" y="232.354"/><use xlink:href="#as" x="494.309" y="232.354"/></g><g><use xlink:href="#aT" x="254.406" y="283.315"/><use xlink:href="#aU" x="262.721" y="283.315"/><use xlink:href="#aV" x="271.036" y="283.315"/><use xlink:href="#aI" x="279.351" y="283.315"/><use xlink:href="#bd" x="287.666" y="283.315"/><use xlink:href="#be" x="295.981" y="283.315"/><use xlink:href="#aY" x="304.296" y="283.315"/><use xlink:href="#aZ" x="312.61" y="283.315"/><use xlink:href="#ar" x="320.925" y="283.315"/><use xlink:href="#ba" x="323.327" y="283.315"/><use xlink:href="#as" x="331.642" y="283.315"/></g><g><use xlink:href="#bb" x="459.802" y="283.315"/><use xlink:href="#ar" x="468.117" y="283.315"/><use xlink:href="#bc" x="470.519" y="283.315"/><use xlink:href="#aL" x="475.277" y="283.315"/><use xlink:href="#ar" x="483.592" y="283.315"/><use xlink:href="#ba" x="485.994" y="283.315"/><use xlink:href="#as" x="494.309" y="283.315"/></g><g fill="#0c3388"><use xlink:href="#X" x="70.684" y="377.745"/><use xlink:href="#Y" x="78.999" y="377.745"/><use xlink:href="#S" x="87.314" y="377.745"/><use xlink:href="#bf" x="89.716" y="377.745"/><use xlink:href="#bg" x="98.031" y="377.745"/><use xlink:href="#S" x="106.346" y="377.745"/><use xlink:href="#Z" x="108.748" y="377.745"/><use xlink:href="#aa" x="117.063" y="377.745"/><use xlink:href="#ab" x="125.378" y="377.745"/><use xlink:href="#ac" x="133.692" y="377.745"/><use xlink:href="#ad" x="142.007" y="377.745"/><use xlink:href="#aa" x="150.322" y="377.745"/><use xlink:href="#bh" x="158.637" y="377.745"/><use xlink:href="#S" x="166.952" y="377.745"/></g><g fill="#0c3388"><use xlink:href="#bi" x="100.987" y="392.73"/><use xlink:href="#bj" x="109.302" y="392.73"/><use xlink:href="#S" x="117.617" y="392.73"/><use xlink:href="#al" x="120.019" y="392.73"/><use xlink:href="#bk" x="128.334" y="392.73"/></g><g><use xlink:href="#bl" x="256.208" y="334.276"/><use xlink:href="#bm" x="260.938" y="334.276"/><use xlink:href="#bn" x="268.024" y="334.276"/><use xlink:href="#ar" x="270.352" y="334.276"/><use xlink:href="#bo" x="272.754" y="334.276"/><use xlink:href="#bp" x="278.501" y="334.276"/><use xlink:href="#bq" x="283.767" y="334.276"/><use xlink:href="#br" x="287.758" y="334.276"/><use xlink:href="#bs" x="289.948" y="334.276"/><use xlink:href="#bt" x="295.242" y="334.276"/><use xlink:href="#bq" x="300.027" y="334.276"/><use xlink:href="#bq" x="304.018" y="334.276"/><use xlink:href="#ar" x="308.009" y="334.276"/><use xlink:href="#bu" x="310.412" y="334.276"/><use xlink:href="#bv" x="315.585" y="334.276"/><use xlink:href="#bw" x="320.011" y="334.276"/><use xlink:href="#bx" x="325.267" y="334.276"/><use xlink:href="#bx" x="330.571" y="334.276"/><use xlink:href="#by" x="335.874" y="334.276"/><use xlink:href="#ar" x="338.156" y="334.276"/></g><g><use xlink:href="#bb" x="459.802" y="334.276"/><use xlink:href="#ar" x="468.117" y="334.276"/><use xlink:href="#bc" x="470.519" y="334.276"/><use xlink:href="#aL" x="475.277" y="334.276"/><use xlink:href="#ar" x="483.592" y="334.276"/><use xlink:href="#ba" x="485.994" y="334.276"/><use xlink:href="#as" x="494.309" y="334.276"/></g><g><use xlink:href="#aV" x="244.89" y="385.237"/><use xlink:href="#aI" x="253.205" y="385.237"/><use xlink:href="#bz" x="261.52" y="385.237"/><use xlink:href="#bA" x="269.835" y="385.237"/><use xlink:href="#bB" x="278.15" y="385.237"/><use xlink:href="#aI" x="286.465" y="385.237"/><use xlink:href="#ar" x="294.78" y="385.237"/><use xlink:href="#bC" x="297.182" y="385.237"/><use xlink:href="#bD" x="305.497" y="385.237"/><use xlink:href="#ar" x="313.811" y="385.237"/><use xlink:href="#bE" x="316.214" y="385.237"/><use xlink:href="#bF" x="324.528" y="385.237"/><use xlink:href="#bG" x="332.843" y="385.237"/><use xlink:href="#bH" x="341.158" y="385.237"/></g><g><use xlink:href="#aP" x="464.579" y="385.237"/><use xlink:href="#aQ" x="472.894" y="385.237"/><use xlink:href="#aR" x="481.209" y="385.237"/><use xlink:href="#aS" x="489.523" y="385.237"/></g><g><use xlink:href="#bo" x="223.567" y="436.198"/><use xlink:href="#br" x="229.314" y="436.198"/><use xlink:href="#bx" x="231.503" y="436.198"/><use xlink:href="#bI" x="236.806" y="436.198"/><use xlink:href="#bJ" x="239.707" y="436.198"/></g><g><use xlink:href="#bt" x="244.465" y="436.198"/><use xlink:href="#bs" x="249.251" y="436.198"/><use xlink:href="#bK" x="254.545" y="436.198"/><use xlink:href="#bp" x="257.612" y="436.198"/><use xlink:href="#bL" x="262.878" y="436.198"/></g><g><use xlink:href="#bt" x="265.908" y="436.198"/><use xlink:href="#ar" x="270.694" y="436.198"/><use xlink:href="#bM" x="273.096" y="436.198"/><use xlink:href="#bx" x="278.704" y="436.198"/><use xlink:href="#bN" x="284.007" y="436.198"/><use xlink:href="#bO" x="292.174" y="436.198"/><use xlink:href="#bt" x="297.579" y="436.198"/></g><g><use xlink:href="#bK" x="302.263" y="436.198"/><use xlink:href="#br" x="305.33" y="436.198"/><use xlink:href="#bK" x="307.52" y="436.198"/><use xlink:href="#br" x="310.587" y="436.198"/><use xlink:href="#bx" x="312.777" y="436.198"/><use xlink:href="#bs" x="318.08" y="436.198"/><use xlink:href="#ar" x="323.374" y="436.198"/><use xlink:href="#bP" x="325.776" y="436.198"/><use xlink:href="#ar" x="331.55" y="436.198"/><use xlink:href="#bM" x="333.952" y="436.198"/><use xlink:href="#bx" x="339.56" y="436.198"/><use xlink:href="#bs" x="344.863" y="436.198"/><use xlink:href="#bQ" x="350.157" y="436.198"/><use xlink:href="#bL" x="354.989" y="436.198"/></g><g><use xlink:href="#bt" x="358.02" y="436.198"/><use xlink:href="#bq" x="362.806" y="436.198"/><use xlink:href="#bq" x="366.797" y="436.198"/><use xlink:href="#ar" x="370.788" y="436.198"/></g><g><use xlink:href="#bb" x="459.793" y="436.198"/><use xlink:href="#ar" x="468.108" y="436.198"/><use xlink:href="#bc" x="470.51" y="436.198"/><use xlink:href="#aL" x="475.268" y="436.198"/><use xlink:href="#ar" x="483.583" y="436.198"/><use xlink:href="#ba" x="485.985" y="436.198"/><use xlink:href="#as" x="494.3" y="436.198"/></g><g fill="#0c3388"><use xlink:href="#X" x="70.675" y="498.07"/><use xlink:href="#Y" x="78.99" y="498.07"/><use xlink:href="#S" x="87.305" y="498.07"/><use xlink:href="#bR" x="89.707" y="498.07"/><use xlink:href="#ak" x="98.022" y="498.07"/><use xlink:href="#bS" x="106.337" y="498.07"/><use xlink:href="#S" x="114.651" y="498.07"/><use xlink:href="#Z" x="117.053" y="498.07"/><use xlink:href="#aa" x="125.368" y="498.07"/><use xlink:href="#ab" x="133.683" y="498.07"/><use xlink:href="#ac" x="141.998" y="498.07"/><use xlink:href="#ad" x="150.313" y="498.07"/><use xlink:href="#aa" x="158.628" y="498.07"/><use xlink:href="#S" x="166.943" y="498.07"/></g><g fill="#0c3388"><use xlink:href="#ah" x="81.946" y="513.055"/><use xlink:href="#O" x="90.261" y="513.055"/><use xlink:href="#S" x="98.576" y="513.055"/><use xlink:href="#bT" x="100.978" y="513.055"/><use xlink:href="#bU" x="109.293" y="513.055"/><use xlink:href="#S" x="117.608" y="513.055"/><use xlink:href="#bV" x="120.01" y="513.055"/><use xlink:href="#bW" x="128.325" y="513.055"/><use xlink:href="#S" x="136.64" y="513.055"/><use xlink:href="#al" x="139.042" y="513.055"/><use xlink:href="#bk" x="147.357" y="513.055"/></g><g><use xlink:href="#aT" x="237.767" y="483.094"/><use xlink:href="#aU" x="246.082" y="483.094"/><use xlink:href="#aV" x="254.397" y="483.094"/><use xlink:href="#aI" x="262.712" y="483.094"/><use xlink:href="#bz" x="271.027" y="483.094"/><use xlink:href="#bA" x="279.342" y="483.094"/><use xlink:href="#bB" x="287.656" y="483.094"/><use xlink:href="#aI" x="295.971" y="483.094"/><use xlink:href="#aA" x="304.286" y="483.094"/><use xlink:href="#ar" x="312.601" y="483.094"/><use xlink:href="#bX" x="315.003" y="483.094"/><use xlink:href="#bY" x="323.318" y="483.094"/><use xlink:href="#bZ" x="331.633" y="483.094"/><use xlink:href="#ca" x="339.948" y="483.094"/><use xlink:href="#cb" x="348.263" y="483.094"/><use xlink:href="#ar" x="356.578" y="483.094"/></g><g><use xlink:href="#cc" x="234.164" y="498.079"/><use xlink:href="#cd" x="242.479" y="498.079"/><use xlink:href="#aQ" x="250.794" y="498.079"/><use xlink:href="#ce" x="259.109" y="498.079"/><use xlink:href="#ar" x="267.424" y="498.079"/><use xlink:href="#aS" x="269.826" y="498.079"/><use xlink:href="#ar" x="278.141" y="498.079"/><use xlink:href="#cf" x="280.543" y="498.079"/><use xlink:href="#cg" x="288.858" y="498.079"/><use xlink:href="#ar" x="297.172" y="498.079"/><use xlink:href="#ch" x="299.574" y="498.079"/><use xlink:href="#at" x="307.889" y="498.079"/><use xlink:href="#bZ" x="316.204" y="498.079"/><use xlink:href="#ci" x="324.519" y="498.079"/><use xlink:href="#ar" x="332.834" y="498.079"/><use xlink:href="#ba" x="335.236" y="498.079"/><use xlink:href="#cj" x="343.551" y="498.079"/><use xlink:href="#bB" x="351.866" y="498.079"/><use xlink:href="#ar" x="360.181" y="498.079"/></g><g><use xlink:href="#ck" x="245.703" y="513.065"/><use xlink:href="#cl" x="254.018" y="513.065"/><use xlink:href="#cm" x="262.333" y="513.065"/><use xlink:href="#ar" x="270.648" y="513.065"/><use xlink:href="#cn" x="273.05" y="513.065"/><use xlink:href="#aW" x="281.365" y="513.065"/><use xlink:href="#ar" x="289.68" y="513.065"/><use xlink:href="#co" x="292.082" y="513.065"/><use xlink:href="#cp" x="300.397" y="513.065"/><use xlink:href="#cq" x="308.712" y="513.065"/><use xlink:href="#cr" x="310.846" y="513.065"/><use xlink:href="#ar" x="319.161" y="513.065"/><use xlink:href="#ba" x="321.563" y="513.065"/><use xlink:href="#cq" x="329.878" y="513.065"/><use xlink:href="#aV" x="332.012" y="513.065"/><use xlink:href="#aI" x="340.327" y="513.065"/><use xlink:href="#ar" x="348.642" y="513.065"/></g><g><use xlink:href="#cs" x="244.881" y="528.05"/><use xlink:href="#ct" x="253.196" y="528.05"/><use xlink:href="#cu" x="261.511" y="528.05"/><use xlink:href="#au" x="269.826" y="528.05"/><use xlink:href="#av" x="278.141" y="528.05"/><use xlink:href="#cm" x="286.455" y="528.05"/><use xlink:href="#ar" x="294.77" y="528.05"/><use xlink:href="#cv" x="297.172" y="528.05"/><use xlink:href="#cw" x="305.487" y="528.05"/><use xlink:href="#cx" x="313.802" y="528.05"/><use xlink:href="#cy" x="322.117" y="528.05"/><use xlink:href="#ar" x="330.432" y="528.05"/><use xlink:href="#cz" x="332.834" y="528.05"/><use xlink:href="#cA" x="341.149" y="528.05"/></g><g><use xlink:href="#aP" x="464.57" y="505.581"/><use xlink:href="#aQ" x="472.884" y="505.581"/><use xlink:href="#aR" x="481.199" y="505.581"/><use xlink:href="#aS" x="489.514" y="505.581"/></g><g fill="#0c3388"><use xlink:href="#X" x="85.549" y="633.991"/><use xlink:href="#Y" x="93.864" y="633.991"/><use xlink:href="#Z" x="102.179" y="633.991"/><use xlink:href="#aa" x="110.494" y="633.991"/><use xlink:href="#ab" x="118.809" y="633.991"/><use xlink:href="#ac" x="127.124" y="633.991"/><use xlink:href="#ad" x="135.439" y="633.991"/><use xlink:href="#aa" x="143.754" y="633.991"/><use xlink:href="#S" x="152.068" y="633.991"/></g><g fill="#0c3388"><use xlink:href="#cB" x="77.789" y="648.976"/><use xlink:href="#cC" x="86.104" y="648.976"/><use xlink:href="#S" x="94.419" y="648.976"/><use xlink:href="#ai" x="96.821" y="648.976"/><use xlink:href="#aj" x="105.135" y="648.976"/><use xlink:href="#S" x="113.45" y="648.976"/><use xlink:href="#cD" x="115.852" y="648.976"/><use xlink:href="#cE" x="124.167" y="648.976"/><use xlink:href="#cF" x="132.482" y="648.976"/><use xlink:href="#S" x="140.797" y="648.976"/><use xlink:href="#bT" x="143.199" y="648.976"/><use xlink:href="#cG" x="151.514" y="648.976"/></g><g><use xlink:href="#aT" x="229.452" y="611.522"/><use xlink:href="#aU" x="237.767" y="611.522"/><use xlink:href="#aV" x="246.082" y="611.522"/><use xlink:href="#aI" x="254.397" y="611.522"/><use xlink:href="#bz" x="262.712" y="611.522"/><use xlink:href="#bA" x="271.027" y="611.522"/><use xlink:href="#bB" x="279.342" y="611.522"/><use xlink:href="#aI" x="287.656" y="611.522"/><use xlink:href="#bC" x="295.971" y="611.522"/><use xlink:href="#bD" x="304.286" y="611.522"/><use xlink:href="#aV" x="312.601" y="611.522"/><use xlink:href="#ar" x="320.916" y="611.522"/><use xlink:href="#as" x="323.318" y="611.522"/><use xlink:href="#at" x="331.633" y="611.522"/><use xlink:href="#aw" x="339.948" y="611.522"/><use xlink:href="#ax" x="348.263" y="611.522"/><use xlink:href="#aA" x="356.578" y="611.522"/><use xlink:href="#ar" x="364.893" y="611.522"/></g><g><use xlink:href="#ci" x="249.038" y="626.507"/><use xlink:href="#cH" x="257.353" y="626.507"/><use xlink:href="#cI" x="265.668" y="626.507"/><use xlink:href="#bB" x="273.983" y="626.507"/><use xlink:href="#ar" x="282.298" y="626.507"/><use xlink:href="#aD" x="284.7" y="626.507"/><use xlink:href="#cJ" x="293.015" y="626.507"/><use xlink:href="#cK" x="301.33" y="626.507"/><use xlink:href="#ca" x="309.645" y="626.507"/><use xlink:href="#cb" x="317.96" y="626.507"/><use xlink:href="#ar" x="326.275" y="626.507"/><use xlink:href="#cv" x="328.677" y="626.507"/><use xlink:href="#cL" x="336.991" y="626.507"/></g><g><use xlink:href="#cM" x="256.753" y="656.469"/><use xlink:href="#cN" x="265.068" y="656.469"/><use xlink:href="#cO" x="273.383" y="656.469"/><use xlink:href="#cP" x="281.697" y="656.469"/><use xlink:href="#ar" x="290.012" y="656.469"/><use xlink:href="#be" x="292.414" y="656.469"/><use xlink:href="#cQ" x="300.729" y="656.469"/><use xlink:href="#cR" x="305.487" y="656.469"/><use xlink:href="#bY" x="310.245" y="656.469"/><use xlink:href="#ar" x="318.56" y="656.469"/><use xlink:href="#cS" x="320.962" y="656.469"/><use xlink:href="#cT" x="329.277" y="656.469"/><use xlink:href="#ar" x="337.592" y="656.469"/></g><g><use xlink:href="#bd" x="254.397" y="671.454"/><use xlink:href="#cU" x="262.712" y="671.454"/><use xlink:href="#cr" x="271.027" y="671.454"/><use xlink:href="#cV" x="279.342" y="671.454"/><use xlink:href="#cM" x="287.656" y="671.454"/><use xlink:href="#cN" x="295.971" y="671.454"/><use xlink:href="#cO" x="304.286" y="671.454"/><use xlink:href="#cW" x="312.601" y="671.454"/><use xlink:href="#ar" x="320.916" y="671.454"/><use xlink:href="#cX" x="323.318" y="671.454"/><use xlink:href="#cY" x="331.633" y="671.454"/></g><g><use xlink:href="#bb" x="459.793" y="641.493"/><use xlink:href="#ar" x="468.108" y="641.493"/><use xlink:href="#cQ" x="470.51" y="641.493"/><use xlink:href="#aL" x="475.268" y="641.493"/><use xlink:href="#ar" x="483.583" y="641.493"/><use xlink:href="#cv" x="485.985" y="641.493"/><use xlink:href="#cL" x="494.3" y="641.493"/></g></svg>