<svg xmlns="http://www.w3.org/2000/svg" xmlns:xlink="http://www.w3.org/1999/xlink" width="793.701" height="1122.52" viewBox="0 0 595.276 841.89" version="1.2"><defs><symbol overflow="visible" id="a"><path d="M1.813-2.453v-.672c.332 0 .554-.04.671-.125.207-.121.313-.332.313-.625a.775.775 0 0 0-.219-.563A.834.834 0 0 0 2-4.64c-.219 0-.395.055-.516.157-.117.105-.199.289-.25.546H.438c.082-.488.25-.847.5-1.078.257-.238.617-.359 1.078-.359.457 0 .832.145 1.125.422.289.273.437.621.437 1.047 0 .48-.195.855-.578 1.125.434.261.656.68.656 1.25 0 .48-.164.87-.484 1.172-.313.293-.723.437-1.219.437C1.316.078.848-.148.547-.609.41-.805.324-1.08.297-1.422h.766c.039.25.14.445.296.578.164.137.375.203.625.203a.868.868 0 0 0 .641-.25.946.946 0 0 0 .25-.671c0-.352-.129-.61-.375-.766-.148-.082-.379-.125-.688-.125zm0 0"/></symbol><symbol overflow="visible" id="b"><path d="M2.969-4.531H.359v-.75h3.938L.969.187l-.64-.406zm0 0"/></symbol><symbol overflow="visible" id="c"><path d="M1.797-4h1.14v-.188H.422V-4h1.187v.688c0 1.124-.53 2-1.265 2.374l.14.157c.594-.328 1.047-.953 1.22-1.813.187.75.624 1.328 1.171 1.64l.14-.155c-.703-.36-1.218-1.204-1.218-2.204zm2.797-.89v2.234h-.969V-4.75h-.203V.11h.203v-2.563h.969v2.86h.203v-5.298zm0 0"/></symbol><symbol overflow="visible" id="d"><path d="M3.484-2.438c-.78.157-1.437.188-2.453.188H.844v-1.969h2.11v-.187H.64v2.343h.39c1.032 0 1.688-.046 2.5-.203zM1.422-1.421h-.203V.266h3.468V.078H1.422zm2.984-1.766v-1.718h-.203v3.843h.203v-1.953h.875v-.171zm0 0"/></symbol><symbol overflow="visible" id="e"><path d="M4.422.14h-2.86v-.859h2.86zm0-1.046h-2.86v-.813h-.187V.313h3.25V-1.72h-.203zM2.734-2.437H.86v-1.047h1.875zm1.704-2.454V-3.5H2.921v-1.11h-.188v.954H.86v-.953H.656v2.359h2.266v-1.063h1.515v1.297h.188V-4.89zm0 0"/></symbol><symbol overflow="visible" id="f"><path d="M4.625-4.89h-.188v3.937h.188zM.703-3.235c0-.594.485-1.079 1.14-1.079.641 0 1.126.485 1.126 1.079 0 .609-.485 1.093-1.125 1.093-.657 0-1.14-.484-1.14-1.093zm2.453 0c0-.735-.547-1.266-1.312-1.266-.782 0-1.328.531-1.328 1.266 0 .75.546 1.265 1.328 1.265.765 0 1.312-.515 1.312-1.265zM1.546.078v-1.453H1.36v1.64h3.47V.079zm0 0"/></symbol><symbol overflow="visible" id="h"><path d="M.703-4.328V-1h2.313v-3.328zm2.125.172v2.984H.891v-2.984zm1.594-.735V.406h.203V-4.89zm0 0"/></symbol><symbol overflow="visible" id="i"><path d="M.75-1.14v-1.454H2.5v-1.672H.547v.188h1.765v1.297H.563V-.97h.329c.671 0 1.28-.031 2.078-.172l-.016-.171c-.781.14-1.406.171-2.062.171zm3.844-3.75v2.171H3.578V-4.75h-.203V.11h.203v-2.641h1.016V.406h.203V-4.89zm0 0"/></symbol><symbol overflow="visible" id="j"><path d="M2.094-4.469c-.828 0-1.39.469-1.39 1.188 0 .703.562 1.187 1.39 1.187.812 0 1.375-.484 1.375-1.187 0-.719-.563-1.188-1.375-1.188zm0 .172c.687 0 1.172.438 1.172 1.016 0 .562-.485 1-1.172 1-.703 0-1.188-.438-1.188-1 0-.578.485-1.016 1.188-1.016zm2.265-.594V.406h.204V-4.89zM.438-.844c.968 0 2.312 0 3.546-.234l-.03-.156c-1.188.203-2.563.203-3.563.203zm0 0"/></symbol><symbol overflow="visible" id="k"><path d="M3.516-4.234h-1.47v-.688H1.86v.688H.391v.171h3.125zm-2.61 1.5c0-.454.406-.766 1.047-.766.625 0 1.047.313 1.047.766 0 .437-.422.75-1.047.75-.64 0-1.047-.313-1.047-.75zm2.281 0c0-.579-.5-.938-1.234-.938-.75 0-1.234.36-1.234.938 0 .562.484.921 1.234.921.734 0 1.234-.359 1.234-.921zM1.063-1.063h3.14v1.47h.203v-1.641H1.063zm4.203-2.28h-.86v-1.548h-.203v3.297h.203v-1.562h.86zm0 0"/></symbol><symbol overflow="visible" id="l"><path d="M.64-3.25c0-.61.485-1.094 1.141-1.094.657 0 1.14.485 1.14 1.094 0 .61-.483 1.11-1.14 1.11-.656 0-1.14-.5-1.14-1.11zm3.797-.547v1.078H3a1.2 1.2 0 0 0 .11-.531A1.55 1.55 0 0 0 3-3.797zm0 1.25v1.61h.188v-3.954h-.188v.922H2.891c-.22-.344-.625-.562-1.11-.562-.765 0-1.328.515-1.328 1.281 0 .766.563 1.281 1.328 1.281.5 0 .907-.218 1.125-.578zM1.563.078v-1.437h-.187V.266h3.438V.078zm0 0"/></symbol><symbol overflow="visible" id="m"><path d="M5.14-2.219h-.874c.171-.781.171-1.344.171-1.844v-.453H1.017v.188h3.218v.266c0 .5 0 1.062-.171 1.843H.358v.172h2.297V.406h.188v-2.453H5.14zm0 0"/></symbol><symbol overflow="visible" id="o"><path d="M.719-1.953c.625-.219 1.187-.688 1.406-1.313.234.594.781 1.032 1.422 1.25l.14-.25c-.75-.234-1.406-.843-1.406-1.609v-.031H3.61v-.266H2.281v-.703H1.97v.703H.672v.266h1.297v.031c0 .797-.657 1.422-1.407 1.672zm1.562-.188H1.97v1.094C1.39-1.03.844-1.03.375-1.03l.047.281c.969 0 2.297 0 3.515-.219l-.015-.25c-.531.094-1.094.125-1.64.157zm2.016-2.765V.422h.312v-5.328zm0 0"/></symbol><symbol overflow="visible" id="p"><path d="M4.672-4.906h-.313v3.922h.313zM3.516-2.141c-.75-.296-1.391-1.046-1.391-1.921v-.547h-.313v.546c0 .907-.625 1.704-1.375 2.016l.188.266c.61-.282 1.14-.86 1.344-1.578a2.462 2.462 0 0 0 1.375 1.468zM1.64.016v-1.36h-.313V.281H4.86V.016zm0 0"/></symbol><symbol overflow="visible" id="q"><path d="M2.75.156c-.906 0-1.5-.265-1.5-.703 0-.422.594-.687 1.5-.687s1.484.265 1.484.687c0 .438-.578.703-1.484.703zm0-1.64c-1.125 0-1.813.343-1.813.937 0 .625.688.953 1.813.953S4.563.078 4.563-.547c0-.594-.688-.937-1.813-.937zm.14-.735v-.703h1.688v-.281H1.266v-1.188h3.28v-.265H.954v1.734h1.64v.703H.344v.281h4.813v-.28zm0 0"/></symbol><symbol overflow="visible" id="r"><path d="M3.516-4.25H2.094v-.719H1.78v.719H.36v.266h3.157zM.984-2.734c0-.391.391-.672.954-.672.578 0 .953.281.953.672 0 .406-.375.687-.954.687-.562 0-.953-.281-.953-.687zm2.204 0c0-.579-.5-.922-1.25-.922-.766 0-1.266.344-1.266.922 0 .578.5.937 1.265.937.75 0 1.25-.36 1.25-.937zM2.796.14c-.844 0-1.39-.235-1.39-.641s.546-.64 1.39-.64c.844 0 1.39.234 1.39.64s-.546.64-1.39.64zm0-1.547c-1.063 0-1.703.328-1.703.906 0 .578.64.906 1.703.906C3.859.406 4.5.078 4.5-.5c0-.578-.64-.906-1.703-.906zM5.28-3.625v-.266h-.828v-1.015h-.328v3.453h.328V-2.5h.828v-.266h-.828v-.859zm0 0"/></symbol><symbol overflow="visible" id="s"><path d="M1.266-3.203H4.25v1.11H1.266zm1.64 2.64v-1.25h1.656v-2.703H4.25v1.032H1.266v-1.032H.937v2.704h1.657v1.25H.344v.265h4.828v-.266zm0 0"/></symbol><symbol overflow="visible" id="t"><path d="M4.188-3.781c0 .64 0 1.36-.188 2.36l.328.046c.188-1.047.188-1.766.188-2.406v-.531H.859v.25h3.329zM2.625-.671V-2.61h-.313v1.937H.345v.281h4.812v-.28zm0 0"/></symbol><symbol overflow="visible" id="u"><path d="M2.125-4.422h-.328v1.063c0 .984-.719 1.984-1.422 2.375l.203.25c.578-.344 1.156-1.079 1.39-1.907.22.797.813 1.485 1.407 1.813l.188-.266c-.704-.36-1.438-1.312-1.438-2.265zm2.234-.484v1.89H2.984v.266H4.36V.422h.329v-5.328zm0 0"/></symbol><symbol overflow="visible" id="v"><path d="M1.453 0h.406l1.422-4.375h-.375l-.781 2.516c-.156.53-.281.937-.453 1.468H1.64c-.172-.53-.282-.937-.454-1.468l-.78-2.516H.03zm0 0"/></symbol><symbol overflow="visible" id="w"><path d="M1.781.078c.782 0 1.453-.61 1.453-1.672 0-1.062-.671-1.687-1.453-1.687-.765 0-1.437.625-1.437 1.687C.344-.53 1.016.078 1.78.078zm0-.297C1.156-.219.703-.78.703-1.594c0-.812.453-1.375 1.078-1.375s1.094.563 1.094 1.375c0 .813-.469 1.375-1.094 1.375zm0 0"/></symbol><symbol overflow="visible" id="x"><path d="M1.031.078c.11 0 .172-.015.235-.031l-.063-.281c-.062.015-.094.015-.11.015-.077 0-.14-.062-.14-.218v-4.329h-.36v4.297c0 .36.141.547.438.547zm0 0"/></symbol><symbol overflow="visible" id="y"><path d="M.75-.156c.156 0 .313-.11.313-.313A.317.317 0 0 0 .75-.797a.317.317 0 0 0-.313.328c0 .203.157.313.313.313zm0 0"/></symbol><symbol overflow="visible" id="z"><path d="M.547 0h2.265v-.313h-.921v-4.062h-.282c-.203.125-.468.219-.828.281v.235h.766v3.546h-1zm0 0"/></symbol><symbol overflow="visible" id="B"><path d="M4-5.172H2.094v-.969H4zm1.36-3.156H4v1.14H2.094v-1.14H.734v4.234H5.36zM3.061-.844h4.985v-2.625H1.672v1.047h5.016v.594h-5V.828h6.64V-.234H3.063zM8.047-6.89V-8.75H6.672v4.906h1.375v-1.922h1.281V-6.89zm0 0"/></symbol><symbol overflow="visible" id="C"><path d="M3.969-3.078H5.64v1.812H3.969zm-.156-3.813H5.78v2.72H3.813zm3.203 5.625v-1.812h1.437v-1.094H7.156V-6.89H8.47v-1.093H1.125v1.093h1.313v2.72h-1.25v1.093h1.406v1.812H.438v1.11h8.75v-1.11zm0 0"/></symbol><symbol overflow="visible" id="D"><path d="M4-6.688h1.906v-1.14H.61v1.14h2v.532c0 1.593-.78 3.406-2.375 4.14l.782 1.11C2.125-1.437 2.89-2.5 3.328-3.75c.422 1.14 1.188 2.11 2.25 2.594l.766-1.094C4.766-2.984 4-4.688 4-6.156zm5.422 1.61H8.016V-8.75H6.625V.906h1.39v-4.843h1.407zm0 0"/></symbol><symbol overflow="visible" id="E"><path d="M2.469 1.469l.953-.407C2.547-.468 2.14-2.25 2.14-3.984c0-1.735.406-3.5 1.28-5.032l-.952-.406C1.484-7.797.906-6.078.906-3.984c0 2.109.578 3.812 1.563 5.453zm0 0"/></symbol><symbol overflow="visible" id="F"><path d="M8.906-4.344c-2.203-.36-3.39-1.812-3.39-3.187v-.688H4.03v.688c0 1.343-1.187 2.828-3.375 3.187l.578 1.14c1.688-.312 2.907-1.218 3.532-2.405.64 1.203 1.875 2.093 3.562 2.406zM5.47-1.359v-2.157H4.094v2.157H.454v1.125h8.733V-1.36zm0 0"/></symbol><symbol overflow="visible" id="G"><path d="M8.703-5.844C6.516-6.109 5.5-7.187 5.5-8.297v-.297H4.094v.297c0 1.078-1.047 2.188-3.219 2.453l.516 1.078C3.016-5 4.187-5.687 4.797-6.64c.61.97 1.781 1.641 3.406 1.875zm-7.281 4.64h5.312v2.11h1.391v-3.203H1.422zM5.5-4.077v-1.25H4.11v1.25H.452v1.094h8.735v-1.094zm0 0"/></symbol><symbol overflow="visible" id="H"><path d="M1.516 1.469C2.5-.171 3.078-1.875 3.078-3.984c0-2.094-.578-3.813-1.562-5.438l-.985.406c.89 1.532 1.297 3.297 1.297 5.032 0 1.734-.406 3.515-1.297 5.046zm0 0"/></symbol><symbol overflow="visible" id="I"><path d="M1.375-3.969c1.688-.234 2.875-.953 3.453-1.937.578.984 1.75 1.703 3.438 1.937l.5-1.078c-1.97-.25-2.985-1.187-3.11-2.11h2.735v-1.109H1.234v1.11H4c-.125.922-1.156 1.86-3.125 2.11zm7.813.547H.467v1.11h3.626V.921h1.39v-3.235h3.704zm0 0"/></symbol><symbol overflow="visible" id="J"><path d="M3.516-6.672h1.406v-1.125H.625v1.125h1.547v.469c0 1.656-.5 3.39-1.906 4.281l.812 1.016c.875-.547 1.438-1.485 1.781-2.578.313 1.015.86 1.843 1.72 2.359l.796-1.016c-1.39-.812-1.86-2.437-1.86-4.062zm1.953 1.203H4.25v1.125h1.219V.47h1.297v-9.063H5.469zm1.953-3.297V.891h1.312v-9.657zm0 0"/></symbol><symbol overflow="visible" id="K"><path d="M4.188-8.016H2.813v1.407c0 1.875-.797 3.75-2.485 4.468L1.156-1c1.157-.547 1.938-1.578 2.36-2.875.437 1.188 1.187 2.14 2.296 2.64l.782-1.109c-1.64-.703-2.407-2.469-2.407-4.265zm2.875-.75V.922h1.39v-9.688zm0 0"/></symbol><symbol overflow="visible" id="L"><path d="M6.14-4.484C4.626-4.954 3.97-6.078 3.97-7.25v-.984H2.563v.875c0 1.312-.641 2.593-2.266 3.14L1.03-3.14c1.094-.375 1.844-1.109 2.266-2.062.406.812 1.11 1.453 2.125 1.797zM4.89-.172C3.657-.172 3-.422 3-.969c0-.531.656-.781 1.89-.781 1.235 0 1.891.25 1.891.781 0 .547-.656.797-1.89.797zm0-2.656c-2 0-3.265.703-3.265 1.86C1.625.202 2.891.905 4.891.905c2.015 0 3.265-.703 3.265-1.875 0-1.156-1.25-1.86-3.265-1.86zm3.157-3.688V-8.75H6.672v5.703h1.375v-2.328h1.281v-1.14zm0 0"/></symbol><symbol overflow="visible" id="M"><path d="M7.14-6.5v.828H5v1.031h2.14v.735h1.391V-8.75h-1.39v1.219H5.375c.031-.282.063-.563.063-.86H1.125v1.11h2.781C3.75-6.156 2.75-5.234.562-4.797l.47 1.11C3.14-4.157 4.515-5.063 5.093-6.5zM3.548-.281v-.61H8.53v-2.656H2.156v1.078h4.985v.547H2.17V.812H8.72V-.28zm0 0"/></symbol><symbol overflow="visible" id="N"><path d="M5.563-3.313c.265-1.593.265-2.765.265-3.703v-.78H.86v1.093h3.61c0 .86-.032 1.906-.25 3.281zM3.453-5.03h-1.36v2.843c-.609.016-1.187.016-1.734.016L.5-1.032c1.672-.015 3.828-.062 5.797-.39l-.078-1c-.875.11-1.828.172-2.766.203zm5.89.156H8.048v-3.89h-1.39V.89h1.39v-4.61h1.297zm0 0"/></symbol><symbol overflow="visible" id="O"><path d="M3.266-6.797h-.5v1.64c0 1.485-1.11 3.048-2.188 3.626l.313.39c.906-.515 1.78-1.64 2.125-2.937.359 1.234 1.265 2.312 2.171 2.797l.282-.407c-1.078-.53-2.203-2.03-2.203-3.468zm3.453-.75v2.906H4.594v.407h2.125v4.89h.484v-8.203zm0 0"/></symbol><symbol overflow="visible" id="P"><path d="M1.14-5.14c0-.844.673-1.485 1.61-1.485.922 0 1.594.64 1.594 1.484 0 .86-.672 1.5-1.594 1.5-.938 0-1.61-.64-1.61-1.5zm5.579-.766v1.531H4.672c.094-.234.156-.484.156-.766 0-.265-.062-.53-.156-.765zm0 1.937v1.297h.484v-4.89H6.72v1.25H4.422c-.375-.454-.969-.735-1.672-.735-1.203 0-2.078.781-2.078 1.906 0 1.141.875 1.922 2.078 1.922.703 0 1.297-.281 1.672-.75zM4.547.22c-1.328 0-2.203-.438-2.203-1.14 0-.688.875-1.141 2.203-1.141 1.344 0 2.219.453 2.219 1.14 0 .703-.875 1.14-2.22 1.14zm0-2.688c-1.672 0-2.688.563-2.688 1.547C1.86.063 2.875.625 4.547.625c1.672 0 2.687-.563 2.687-1.547S6.22-2.469 4.547-2.469zm0 0"/></symbol><symbol overflow="visible" id="Q"><path d="M7.188-7.547h-.485v5.922h.484zm-2.97 4.063h-2.78v-2.922h2.78zm.47-3.329H.953v3.72h3.735zM2.53-.109v-2.094h-.484V.312h5.422v-.421zm0 0"/></symbol><symbol overflow="visible" id="S"><path d="M1.344-1.906V-6.11h2.578v-.422H.859v5.047h.5c1.36 0 2.157-.047 3.125-.266l-.078-.422c-.922.219-1.703.266-3.047.266zm5.625-5.64v3.359H5.547v-3.157h-.469V.188h.469v-3.954h1.422V.641h.468v-8.188zm0 0"/></symbol><symbol overflow="visible" id="T"><path d="M3.219-3.016h2.015v2.188H3.22zm-.14-3.296h2.28v2.875H3.08zm2.64 5.484v-2.188h1.5v-.421H5.844v-2.876h1.375v-.421h-6v.421h1.375v2.875h-1.36v.422h1.5v2.188H.531v.422H7.97v-.422zm0 0"/></symbol><symbol overflow="visible" id="U"><path d="M6.688-7.547V.641h.484v-8.188zm-3.782.656C1.703-6.89.875-5.78.875-4.078c0 1.719.828 2.828 2.031 2.828 1.188 0 2.031-1.11 2.031-2.828 0-1.703-.843-2.813-2.03-2.813zm0 .438c.922 0 1.563.984 1.563 2.375 0 1.406-.64 2.39-1.563 2.39-.922 0-1.562-.984-1.562-2.39 0-1.39.64-2.375 1.562-2.375zm0 0"/></symbol><symbol overflow="visible" id="V"><path d="M3.11-6.813h-.485v1.657c0 1.468-1.094 3.047-2.188 3.61l.313.405c.89-.515 1.766-1.625 2.125-2.89.36 1.203 1.25 2.234 2.125 2.703l.313-.375C4.234-2.25 3.108-3.734 3.108-5.156zM8.202-4.14H6.766v-3.421h-.5V.64h.5v-4.36h1.437zm0 0"/></symbol><symbol overflow="visible" id="W"><path d="M2.234 1.125l.329-.172c-.813-1.297-1.22-2.86-1.22-4.469 0-1.593.407-3.171 1.22-4.453l-.329-.172C1.391-6.78.891-5.312.891-3.516c0 1.813.5 3.282 1.343 4.641zm0 0"/></symbol><symbol overflow="visible" id="X"><path d="M1.203-3.625c1.14-.219 2.547-.953 3.031-2.016.47 1.063 1.875 1.797 3.016 2.016l.188-.406c-1.22-.203-2.954-1.14-2.954-2.375v-.172h2.72V-7h-5.97v.422H3.97v.172c0 1.234-1.75 2.172-2.969 2.375zm6.734.828H.516v.406h3.453V.625h.484v-3.016h3.484zm0 0"/></symbol><symbol overflow="visible" id="Y"><path d="M5.422-3.531C4.282-3.97 3.266-5.078 3.266-6.36v-.813H2.78v.813c0 1.328-.984 2.53-2.125 2.984l.266.39c.937-.406 1.781-1.265 2.11-2.328.359 1.016 1.187 1.782 2.14 2.157zm-3.64 1.797h4.921V.64h.484v-2.797H1.782zm4.921-5.829v4.97h.484v-4.97zm0 0"/></symbol><symbol overflow="visible" id="Z"><path d="M5.766-6.484h-2.25v-1.094h-.5v1.094H.766v.406h5zm-3.97 2.468c0-.656.595-1.109 1.47-1.109.859 0 1.468.453 1.468 1.11 0 .64-.609 1.109-1.468 1.109-.875 0-1.47-.469-1.47-1.11zm1.72 1.485c1.015-.078 1.671-.64 1.671-1.485 0-.921-.78-1.5-1.921-1.5-1.157 0-1.922.579-1.922 1.5 0 .86.656 1.407 1.672 1.485v1.015c-.86.032-1.704.047-2.438.047l.078.422c1.547 0 3.578-.031 5.422-.312l-.031-.375c-.813.109-1.672.171-2.531.203zm3.093-5.016V.641h.485v-8.188zm0 0"/></symbol><symbol overflow="visible" id="aa"><path d="M1.75-4.86c0-1 1.063-1.687 2.469-1.687 1.422 0 2.468.688 2.468 1.688 0 .984-1.046 1.671-2.468 1.671-1.407 0-2.469-.687-2.469-1.671zM4.469-.874v-1.922c1.593-.078 2.687-.875 2.687-2.062 0-1.266-1.218-2.079-2.937-2.079-1.703 0-2.922.813-2.922 2.079 0 1.187 1.094 1.984 2.687 2.062v1.922H.516v.406h7.437v-.406zm0 0"/></symbol><symbol overflow="visible" id="ab"><path d="M2.703-1.688c-.906 0-1.547-.984-1.547-2.39 0-1.39.64-2.375 1.547-2.375.89 0 1.531.984 1.531 2.375 0 1.406-.64 2.39-1.53 2.39zm0-5.203C1.516-6.89.688-5.78.688-4.078c0 1.719.828 2.828 2.015 2.828 1.172 0 2-1.11 2-2.828 0-1.703-.828-2.813-2-2.813zm5.5 2.72H6.766v-3.376h-.5V.641h.5v-4.407h1.437zm0 0"/></symbol><symbol overflow="visible" id="ac"><path d="M1.563-1.86v-4.452H4.89v-.438H1.078v5.313h.625c1.594 0 2.672-.063 4.016-.297l-.063-.422c-1.297.234-2.39.297-3.953.297zm5.125-5.687V.656h.484v-8.203zm0 0"/></symbol><symbol overflow="visible" id="ad"><path d="M.672 1.125c.844-1.36 1.344-2.828 1.344-4.64 0-1.797-.5-3.266-1.344-4.626l-.328.172c.797 1.282 1.219 2.86 1.219 4.453 0 1.61-.422 3.172-1.22 4.47zm0 0"/></symbol><symbol overflow="visible" id="ae"><path d="M7.188-7.547h-.485v6.094h.484zM5.516-3.078c-1.141-.39-2.141-1.375-2.141-2.578v-.313h1.969v-.406H3.375v-1.156h-.5v1.156H.891v.406h1.984v.313c0 1.265-.969 2.328-2.125 2.75l.25.375c.969-.375 1.797-1.14 2.14-2.156.344.937 1.188 1.656 2.141 2.015zM2.53.032v-2.079h-.484V.438h5.422V.03zm0 0"/></symbol><symbol overflow="visible" id="af"><path d="M5.469-6.672h-2.14v-.906h-.485v.906H.719v.39h4.75zM1.687-4.609c0-.532.563-.875 1.391-.875.844 0 1.406.343 1.406.875 0 .53-.562.89-1.406.89-.828 0-1.39-.36-1.39-.89zm4.047 1.734c-.75.11-1.593.172-2.406.219v-.703c.985-.063 1.61-.516 1.61-1.25 0-.782-.735-1.25-1.86-1.25s-1.86.468-1.86 1.25c0 .734.641 1.187 1.626 1.25v.734c-.844.016-1.656.031-2.328.031l.062.422c1.438 0 3.438-.031 5.188-.344zM2.266-1.562h-.5v2h5.328V.03H2.266zM6.78-4.595v-2.953h-.484v6.406h.484v-3.03h1.313v-.423zm0 0"/></symbol><symbol overflow="visible" id="ag"><path d="M6.719-5.5v1.297H4.344v.422h2.375v1.25h.484v-5.016H6.72v1.625H4.594c.093-.297.14-.64.14-.969H1.063v.407h3.14C4.078-4.891 2.656-3.672.656-3.031l.219.406C2.594-3.172 3.906-4.172 4.453-5.5zM4.579.219c-1.345 0-2.22-.453-2.22-1.14 0-.688.875-1.126 2.22-1.126 1.312 0 2.187.438 2.187 1.125 0 .688-.875 1.14-2.188 1.14zm0-2.656c-1.673 0-2.688.562-2.688 1.515C1.89.047 2.906.61 4.578.61c1.64 0 2.656-.562 2.656-1.53 0-.954-1.015-1.516-2.656-1.516zm0 0"/></symbol><symbol overflow="visible" id="ah"><path d="M4.156-3.734h-2.75v-1.547h2.75zm.485-3.313h-.485v1.36h-2.75v-1.36H.922v3.734H4.64zM4.25.22C2.953.219 2.094-.187 2.094-.86c0-.657.86-1.079 2.156-1.079 1.328 0 2.172.422 2.172 1.079 0 .671-.844 1.078-2.172 1.078zm0-2.563c-1.64 0-2.64.547-2.64 1.485 0 .953 1 1.484 2.64 1.484 1.656 0 2.656-.531 2.656-1.484 0-.938-1-1.485-2.656-1.485zm2.594-3.062v-2.14h-.485v4.968h.485v-2.406h1.281v-.422zm0 0"/></symbol><symbol overflow="visible" id="ai"><path d="M1.234-4.484l.079.437 5.109-.297a16.157 16.157 0 0 1-.297 2.14l.484.048c.329-1.61.329-2.703.329-3.719v-.813h-5.5v.422h5.015v.391c0 .375 0 .734-.016 1.156zM4.047-1v-2.219h-.484V-1H.53v.422h7.407V-1zm0 0"/></symbol><symbol overflow="visible" id="aj"><path d="M7.188-7.547h-.485v5.14h.484zM5.609-3.78c-1.171.203-2.14.25-3.968.25H1.5V-4.86h3.172v-.407H1.5v-1.25h3.39v-.421H1v3.812h.64c1.844 0 2.813-.031 4.032-.25zm-1.093 4C3.156.219 2.28-.187 2.28-.828c0-.656.875-1.063 2.235-1.063 1.359 0 2.234.407 2.234 1.063 0 .64-.875 1.047-2.234 1.047zm0-2.516c-1.688 0-2.72.531-2.72 1.469 0 .922 1.032 1.453 2.72 1.453 1.687 0 2.718-.531 2.718-1.453 0-.938-1.03-1.469-2.718-1.469zm0 0"/></symbol><symbol overflow="visible" id="ak"><path d="M1.031-6.656v.422h3.266C4.172-4.204 2.922-2.47.672-1.375l.265.406c2.641-1.297 3.86-3.39 3.86-5.687zm5.672-.89V.64h.484v-8.188zm0 0"/></symbol><symbol overflow="visible" id="al"><path d="M7.5-5.047c-1.25-.156-3.016-.937-3.016-2.078v-.39h-.5v.39c0 1.14-1.765 1.922-3.03 2.078l.171.39c1.172-.187 2.61-.78 3.11-1.75.468.97 1.906 1.563 3.093 1.75zm.438 1.453V-4H.516v.406h3.468v.985h-2.53v.39h5.015v.938h-5V.53h5.75V.125H1.953V-.906h5V-2.61H4.47v-.985zm0 0"/></symbol><symbol overflow="visible" id="am"><path d="M4.234-7.016c1.422 0 2.329.391 2.329 1.047 0 .657-.907 1.047-2.329 1.047-1.437 0-2.343-.39-2.343-1.047 0-.656.906-1.047 2.343-1.047zm0 2.485c1.782 0 2.829-.516 2.829-1.438 0-.922-1.047-1.437-2.829-1.437-1.78 0-2.843.515-2.843 1.437S2.453-4.53 4.234-4.53zM1.954-.938h5v-1.687h-5.5v.406h5.015v.906h-5V.532h5.75V.125H1.953zM.515-3.89v.422h7.421v-.422zm0 0"/></symbol><symbol overflow="visible" id="an"><path d="M4.234.234c-1.406 0-2.296-.39-2.296-1.046 0-.641.89-1.047 2.296-1.047 1.407 0 2.297.406 2.297 1.046 0 .657-.89 1.047-2.297 1.047zm0-2.484c-1.75 0-2.796.516-2.796 1.438C1.438.109 2.484.625 4.233.625 5.97.625 7.016.109 7.016-.813c0-.921-1.047-1.437-2.782-1.437zM2.938-4.531c.374.078.796.125 1.28.125.5 0 .938-.047 1.329-.125v1.125h-2.61zM1.89-5.906c0-.672.921-1.078 2.328-1.078 1.437 0 2.343.406 2.343 1.078s-.906 1.11-2.343 1.11c-1.407 0-2.328-.438-2.328-1.11zm4.125 2.5v-1.266c.671-.25 1.046-.672 1.046-1.234 0-.953-1.078-1.485-2.843-1.485-1.75 0-2.828.532-2.828 1.485 0 .562.375 1 1.062 1.25v1.25H.531v.422h7.407v-.422zm0 0"/></symbol><symbol overflow="visible" id="ao"><path d="M5.406-6.469H3.234v-1.078H2.75v1.078H.547v.407h4.86zM1.5-4c0-.656.61-1.11 1.484-1.11.875 0 1.47.454 1.47 1.11 0 .625-.595 1.094-1.47 1.094S1.5-3.375 1.5-4zm3.406 0c0-.922-.765-1.516-1.922-1.516-1.171 0-1.937.594-1.937 1.516 0 .89.766 1.484 1.937 1.484 1.157 0 1.922-.593 1.922-1.484zM2.328-1.89h-.484V.436H7.25V.031H2.328zm4.516-2.844v-2.813h-.485v6.156h.485v-2.937h1.281v-.406zm0 0"/></symbol><symbol overflow="visible" id="ap"><path d="M.906-7v.422H4.11C4-5.031 2.672-3.828.563-3.234l.187.406C3.156-3.5 4.64-5 4.64-7zM2.25-2.016h4.11V.11H2.25zM1.766.516h5.078v-2.954H1.766zm6.359-5.954H6.844v-2.125h-.485v4.704h.485v-2.157h1.281zm0 0"/></symbol><symbol overflow="visible" id="aq"><path d="M2.453-1.953h4.281V.109h-4.28zM1.97.516h5.234V-2.36H1.97zm2.734-4.97c.078-.218.125-.452.125-.702a1.81 1.81 0 0 0-.14-.735h2.03v1.438zm-1.953.766c-.938 0-1.61-.64-1.61-1.468 0-.844.673-1.5 1.61-1.5.922 0 1.594.656 1.594 1.5 0 .828-.672 1.468-1.594 1.468zm3.969-3.874v1.25H4.453c-.375-.47-.984-.766-1.703-.766-1.203 0-2.078.797-2.078 1.922s.875 1.89 2.078 1.89c.734 0 1.344-.296 1.719-.78h2.25v1.234h.484v-4.75zm0 0"/></symbol><symbol overflow="visible" id="ar"><path d="M3.297-6.266h2.062v-.421H.781v.421h2.031v1.391c0 1.438-1.203 2.984-2.265 3.531l.312.39c.891-.484 1.844-1.609 2.204-2.843.374 1.188 1.328 2.203 2.234 2.64l.297-.39c-1.11-.5-2.297-1.906-2.297-3.328zm3.39-1.28V.64h.485v-8.188zm0 0"/></symbol><symbol overflow="visible" id="as"><path d="M4.86-5.344v.422h1.859v2.25h.484v-4.875H6.72v2.203zm.437 1.922c-1.125-.406-2.078-1.437-2.078-2.547v-.515H5.14v-.407H.78v.407H2.75v.515c0 1.25-1 2.36-2.14 2.797l.25.39c.968-.39 1.812-1.202 2.14-2.25.328.907 1.125 1.657 2.047 2zM4.547.234c-1.328 0-2.188-.421-2.188-1.109 0-.672.86-1.094 2.188-1.094 1.344 0 2.219.422 2.219 1.094 0 .688-.875 1.11-2.22 1.11zm0-2.593c-1.672 0-2.688.53-2.688 1.484 0 .969 1.016 1.5 2.688 1.5 1.672 0 2.687-.531 2.687-1.5 0-.953-1.015-1.484-2.687-1.484zm0 0"/></symbol><symbol overflow="visible" id="at"><path d="M5.125-5.5v.422h1.594v1.156h-1.61v.406h1.61v1.297h.484v-5.344H6.72V-5.5zm.063-1.063H3.108V-7.64h-.484v1.079H.531v.406h4.657zM1.5-4.124c0-.656.563-1.125 1.36-1.125.812 0 1.343.469 1.343 1.125s-.531 1.11-1.344 1.11c-.796 0-1.359-.454-1.359-1.11zm3.188 0c0-.922-.75-1.516-1.829-1.516-1.078 0-1.812.594-1.812 1.516 0 .906.734 1.516 1.812 1.516 1.079 0 1.829-.61 1.829-1.516zM4.563.235c-1.329 0-2.188-.376-2.188-.985 0-.625.86-1 2.188-1 1.343 0 2.203.375 2.203 1 0 .61-.86.984-2.204.984zm0-2.376c-1.688 0-2.688.5-2.688 1.391 0 .875 1 1.375 2.688 1.375 1.687 0 2.703-.5 2.703-1.375 0-.89-1.016-1.39-2.704-1.39zm0 0"/></symbol><symbol overflow="visible" id="au"><path d="M5.36-4.844H3.077v-2.031H5.36zm-2.766 0H1.25v.407h5.938v-.407H5.843v-2.031h1.36v-.406h-5.97v.406h1.36zM6.53.11H1.938v-1.671H6.53zm1.407-3.218v-.407H.516v.407h3.468v1.14h-2.53V.516h5.562V-1.97H4.469v-1.14zm0 0"/></symbol><symbol overflow="visible" id="av"><path d="M.844-6.469v.422H3.53C3.437-4.328 2.625-2.64.578-1.53l.297.375C3.235-2.47 4-4.484 4-6.47zm6.125-1.078v3.406h-1.36v-3.187h-.468V.203h.468v-3.922h1.36v4.36h.468v-8.188zm0 0"/></symbol><symbol overflow="visible" id="aw"><path d="M4.156-4.078h-2.75v-1.453h2.75zm.485-3.156h-.485v1.296h-2.75v-1.296H.922v3.562H4.64zM2.25-1h4.594v-1.828H1.75v.39h4.61v1.047H1.765V.531h5.406V.125H2.25zm4.594-4.688v-1.875h-.485v4.282h.485v-1.985h1.265v-.421zm0 0"/></symbol><symbol overflow="visible" id="aE"><path d="M5.203-3.563C4.093-3.969 3.11-5.046 3.11-6.219v-.937h-.468v.906c0 1.344-.938 2.453-2.094 2.922l.25.39a3.7 3.7 0 0 0 2.11-2.265c.327.922 1.124 1.672 2.03 2.031zM4.25.22c-1.297 0-2.156-.39-2.156-1.032 0-.64.86-1.046 2.156-1.046 1.328 0 2.172.406 2.172 1.046C6.422-.171 5.578.22 4.25.22zm0-2.469c-1.64 0-2.64.516-2.64 1.438 0 .921 1 1.437 2.64 1.437 1.656 0 2.656-.516 2.656-1.438 0-.921-1-1.437-2.656-1.437zm2.594-3.063v-2.25h-.485V-2.5h.485v-2.39h1.281v-.423zm0 0"/></symbol><symbol overflow="visible" id="aF"><path d="M1.938-1.938H6.53V.11H1.938zM1.453.517h5.563v-2.86H1.453zm5.25-4.532c.234-1.078.234-1.843.234-2.5v-.578H1.484v.422H6.47v.156c0 .641 0 1.407-.25 2.5H.516v.422h7.437v-.422zm0 0"/></symbol><symbol overflow="visible" id="aG"><path d="M.844 0h3.484v-.469H2.922v-6.265h-.438c-.328.187-.734.328-1.28.421v.36h1.171V-.47H.844zm0 0"/></symbol><symbol overflow="visible" id="aH"><path d="M2.469.125c1.219 0 1.984-1.156 1.984-3.516 0-2.328-.766-3.468-1.984-3.468C1.25-6.86.484-5.72.484-3.391.484-1.03 1.25.125 2.47.125zm0-.453c-.875 0-1.438-1.016-1.438-3.063 0-2 .563-3.015 1.438-3.015s1.453 1.015 1.453 3.015c0 2.047-.578 3.063-1.453 3.063zm0 0"/></symbol><symbol overflow="visible" id="aI"><path d="M4.14-3.5H1.407v-2.875h2.735zm.47-3.281H.921v3.687h3.687zM2.327-2.094h-.484V.437H7.25V.031H2.328zm4.516-2.89v-2.594h-.485v6.047h.485v-3.047h1.281v-.406zm0 0"/></symbol><symbol overflow="visible" id="aJ"><path d="M4.89-2.656v.39h1.735v.97h.5v-6.25h-.5v4.89zM3.157-6.812c.906 0 1.531.421 1.531 1.015 0 .625-.625 1.047-1.53 1.047-.907 0-1.532-.422-1.532-1.047 0-.594.625-1.016 1.531-1.016zm0 2.437c1.203 0 2-.547 2-1.422 0-.86-.797-1.39-2-1.39-1.203 0-2 .53-2 1.39 0 .875.797 1.422 2 1.422zM2.97-1.641h.5v-1.671c.781-.047 1.61-.11 2.39-.235l-.046-.36c-1.766.22-3.813.235-5.344.235l.078.438c.719 0 1.547 0 2.422-.047zM2.203.031v-1.953H1.72v2.36h5.61V.03zm0 0"/></symbol><symbol overflow="visible" id="aK"><path d="M7.938-3.375H6.625c.25-1.266.25-2.172.25-2.953v-.656H1.5v.406h4.89v.25c0 .766 0 1.687-.265 2.953H.515v.406h2.063v3.61h.5v-3.61h2.297v3.61h.484v-3.61h2.079zm0 0"/></symbol><symbol overflow="visible" id="aL"><path d="M1.14-5.031c0-.875.688-1.547 1.61-1.547.906 0 1.594.672 1.594 1.547 0 .89-.688 1.562-1.594 1.562-.922 0-1.61-.672-1.61-1.562zm5.579.234v3.313h.484v-6.063H6.72v2.328H4.812C4.72-6.28 3.875-7.016 2.75-7.016c-1.203 0-2.078.813-2.078 1.985 0 1.187.875 2 2.078 2 1.11 0 1.953-.735 2.063-1.766zM2.562.031v-2.125h-.484V.437h5.375V.031zm0 0"/></symbol><symbol overflow="visible" id="aM"><path d="M6.469-5.703c0 1.062 0 2.11-.297 3.5l.484.062c.282-1.437.282-2.468.282-3.562v-.953h-5.61v.406h5.14zM5.016-1.031v-2.766H4.53v2.766H2.984v-2.766h-.468v2.766H.53v.422h7.407v-.422zm0 0"/></symbol><symbol overflow="visible" id="aN"><path d="M7.5-4.313c-1.234-.203-3.016-1.156-3.016-2.421v-.5h-.5v.5c0 1.296-1.765 2.218-3.03 2.421l.218.407c1.156-.219 2.578-.938 3.062-2.016.5 1.063 1.922 1.797 3.063 2.016zm.438 1.47H.516v.421h3.453V.641h.484v-3.063h3.484zm0 0"/></symbol><symbol overflow="visible" id="aO"><path d="M4.219-7.063c1.437 0 2.343.391 2.343 1.047 0 .657-.906 1.047-2.343 1.047-1.422 0-2.328-.39-2.328-1.047 0-.656.906-1.046 2.328-1.046zm0 2.485c1.781 0 2.843-.516 2.843-1.438 0-.921-1.062-1.437-2.843-1.437-1.766 0-2.828.516-2.828 1.437 0 .922 1.062 1.438 2.828 1.438zm3.718 1.047v-.406H.532v.406h3.453v.906h-2.53v.406h5.015v.906h-5V.532h5.75V.125H1.953V-.938h5v-1.687H4.47v-.906zm0 0"/></symbol><symbol overflow="visible" id="aP"><path d="M5.406-6.61H3.234v-1H2.75v1H.547v.407h4.86zM1.5-4.202c0-.64.61-1.063 1.484-1.063.875 0 1.47.422 1.47 1.063 0 .625-.595 1.062-1.47 1.062S1.5-3.578 1.5-4.203zm3.406 0c0-.906-.765-1.453-1.922-1.453-1.171 0-1.937.547-1.937 1.453 0 .89.766 1.453 1.937 1.453 1.157 0 1.922-.563 1.922-1.453zM1.594-1.516h4.765V.641h.485v-2.579h-5.25zm6.531-3.687H6.844v-2.36h-.485v5.125h.485V-4.78h1.281zm0 0"/></symbol><symbol overflow="visible" id="aQ"><path d="M6.719-5.719v1.266H4.562V-5.72zm-2.64 2.063H1.452v-1.547h2.625zm.484-.375h2.156v1.468h.484v-4.984H6.72v1.406H4.562v-.921h-.484v1.453H1.453v-1.454H.97v3.829h3.594zM4.546.219c-1.328 0-2.188-.406-2.188-1.094 0-.688.86-1.094 2.188-1.094 1.344 0 2.219.407 2.219 1.094 0 .688-.875 1.094-2.22 1.094zm0-2.594c-1.656 0-2.688.531-2.688 1.5 0 .953 1.032 1.5 2.688 1.5 1.672 0 2.687-.547 2.687-1.5 0-.969-1.015-1.5-2.687-1.5zm0 0"/></symbol><symbol overflow="visible" id="aR"><path d="M.906-7.031v.406h3.188C3.984-5.109 2.64-3.969.578-3.437l.188.406c2.359-.594 3.875-2.016 3.875-4zM6.36.109H2.234v-1.25H6.36zm0-1.64H2.234V-2.72H1.75V.516h5.078V-2.72H6.36zm1.766-3.985H6.828v-2.046h-.484v4.437h.484v-1.969h1.297zm0 0"/></symbol><symbol overflow="visible" id="aS"><path d="M6.719-1.36h.484v-6.187H6.72v2.031H4.75v.422h1.969zM5.25-3.218C4.14-3.656 3.172-4.75 3.172-5.953v-1.11h-.485V-6c0 1.328-.984 2.5-2.109 2.953l.25.39c.969-.405 1.781-1.234 2.11-2.296.343.953 1.14 1.734 2.046 2.11zM2.516.031v-2.125H2.03V.437h5.375V.031zm0 0"/></symbol><symbol overflow="visible" id="aT"><path d="M.094.938H.53L3.578-7.97h-.437zm0 0"/></symbol><symbol overflow="visible" id="aU"><path d="M6.484-4.14H2v-1.423h4.484zM6.97-7.22h-.485v1.25H2v-1.25h-.5v3.5h5.469zm.984 4.61H.516v.406h3.453V.64h.484v-2.844h3.5zm0 0"/></symbol><symbol overflow="visible" id="aV"><path d="M1.188-4.25c1.187-.188 2.593-.797 3.046-1.766.438.97 1.844 1.579 3.047 1.766l.188-.406C6.203-4.828 4.53-5.563 4.53-6.672v-.078h2.735v-.406H1.203v.406h2.75v.078c0 1.11-1.687 1.844-2.953 2.016zM6.53-.797c0 .64-.89 1.031-2.297 1.031-1.406 0-2.296-.39-2.296-1.03 0-.641.89-1.016 2.296-1.016 1.407 0 2.297.375 2.297 1.015zM7.938-3.25v-.406H.516v.406h3.468v1.047c-1.609.047-2.546.547-2.546 1.406C1.438.125 2.484.625 4.233.625c1.735 0 2.782-.5 2.782-1.422 0-.86-.938-1.36-2.547-1.406V-3.25zm0 0"/></symbol><symbol overflow="visible" id="aW"><path d="M7.188-7.563h-.5v4.297h.5zm-1.75 3.61c-1.141-.422-2.172-1.469-2.172-2.719v-.625H2.78v.625c0 1.313-1 2.438-2.14 2.875l.25.406c.968-.406 1.812-1.218 2.14-2.265.36.968 1.203 1.734 2.156 2.093zM2.5.125v-1.11h4.688v-1.828H1.984v.407H6.72v1.031H2.016V.531h5.5V.125zm0 0"/></symbol><symbol overflow="visible" id="aX"><path d="M3.266-6.797H2.78v1.64c0 1.532-1.187 3.095-2.265 3.641l.312.391C1.734-1.609 2.656-2.719 3.031-4c.375 1.234 1.313 2.281 2.203 2.75l.313-.39c-1.094-.516-2.281-2.032-2.281-3.516zm3.421-.75V.656h.485v-8.203zm0 0"/></symbol><symbol overflow="visible" id="aY"><path d="M.89-6.906v.422h3.235C3.985-4.86 2.578-3.578.578-2.922l.219.406C3.078-3.28 4.64-4.844 4.64-6.906zM2.329-2.11h-.484V.437H7.25V.031H2.328zm4.5-2.844v-2.594h-.484v6.063h.484v-3.047h1.297v-.422zm0 0"/></symbol><symbol overflow="visible" id="aZ"><path d="M5.234-3.844c-1.109.203-2.015.235-3.703.235h-.093v-1.329H4.5v-.421H1.437v-1.266h3.204v-.406H.937v3.843h.594c1.703 0 2.625-.046 3.766-.25zM2.266-1.828h4.093V.109H2.266zM1.796.516h5.048v-2.75H1.797zm6.329-5.97H6.844v-2.109h-.485v4.844h.485v-2.328h1.281zm0 0"/></symbol><symbol overflow="visible" id="ba"><path d="M1.328-5.125c0-.844.688-1.453 1.656-1.453.954 0 1.657.61 1.657 1.453 0 .844-.704 1.453-1.657 1.453-.968 0-1.656-.61-1.656-1.453zm1.906 1.86c1.11-.094 1.875-.813 1.875-1.86C5.11-6.25 4.234-7 2.984-7s-2.14.75-2.14 1.875c0 1.047.781 1.766 1.906 1.86v1.578a62.82 62.82 0 0 1-2.328.046l.094.422c1.468.016 3.437-.031 5.187-.312l-.047-.375c-.765.11-1.593.172-2.422.203zm4.922-.813H6.72v-3.484h-.485V.64h.485v-4.297h1.437zm0 0"/></symbol><symbol overflow="visible" id="bb"><path d="M1.938-4.938H6.53v1.72H1.938zm2.53 4.063v-1.922h2.548v-4.14H6.53v1.578H1.938v-1.579h-.485v4.141h2.531v1.922H.516v.422h7.453v-.422zm0 0"/></symbol><symbol overflow="visible" id="bc"><path d="M1.234-3.984c1.188-.204 2.563-.86 3-1.891.438 1.031 1.813 1.688 2.985 1.89l.203-.39c-1.25-.203-2.89-1.016-2.89-2.188v-.156h2.734v-.406H1.203v.406h2.75v.157c0 1.171-1.656 1.984-2.906 2.187zM2-1.86h-.484V.437h5.609V.031H2zm2.469-1.188v-1.5h-.485v1.5H.516v.422h7.453v-.422zm0 0"/></symbol><symbol overflow="visible" id="bd"><path d="M3.219-6.719c.922 0 1.578.516 1.578 1.219 0 .719-.656 1.25-1.578 1.25S1.64-4.781 1.64-5.5c0-.703.656-1.219 1.578-1.219zm0 2.875c1.203 0 2.047-.656 2.047-1.656 0-.969-.844-1.64-2.047-1.64-1.203 0-2.047.671-2.047 1.64 0 1 .844 1.656 2.047 1.656zm2.797.516c-1.844.265-3.954.297-5.532.297l.079.437c.734 0 1.578-.015 2.453-.047V.391h.5v-3.063c.828-.047 1.703-.14 2.546-.281zm.656-4.219V.656h.484v-8.203zm0 0"/></symbol><symbol overflow="visible" id="be"><path d="M4.766-4.36C5-5.374 5-6.124 5-6.61v-.406H1.031v.422h3.485c0 .485 0 1.188-.235 2.188zm.937.594c-.875.125-1.875.188-2.828.22v-1.72h-.5v1.735c-.672.015-1.297.015-1.86.015l.063.438c1.469 0 3.453-.047 5.172-.313zM4.234.22c-1.312 0-2.171-.39-2.171-1.047 0-.64.859-1.031 2.171-1.031 1.313 0 2.157.39 2.157 1.03C6.39-.171 5.547.22 4.234.22zm0-2.485c-1.656 0-2.64.516-2.64 1.438 0 .937.984 1.453 2.64 1.453 1.641 0 2.641-.516 2.641-1.453 0-.922-1-1.438-2.64-1.438zm2.579-2.921v-2.375h-.5v5.187h.5v-2.39h1.28v-.423zm0 0"/></symbol><symbol overflow="visible" id="bf"><path d="M4.156-3.375h-2.75v-1.688h2.75zm.485-3.594h-.485v1.5h-2.75v-1.5H.922v4H4.64zm-2.313 4.86h-.484V.437H7.25V.031H2.328zm4.516-2.86v-2.578h-.485v6h.485v-3h1.281v-.422zm0 0"/></symbol><symbol overflow="visible" id="bg"><path d="M1.14-2.75c1.094-.234 2.594-1.094 3.094-2.313.516 1.204 2.032 2.047 3.125 2.297l.22-.39C6.405-3.36 4.483-4.5 4.483-5.906v-.407h2.86v-.421H1.14v.421h2.843v.407c0 1.406-1.89 2.562-3.062 2.781zM4.485-.89v-2.094H4v2.093H.531v.422h7.422V-.89zm0 0"/></symbol><symbol overflow="visible" id="bi"><path d="M2.344.125c1.062 0 2.094-.828 2.094-2.281 0-1.5-.875-2.172-1.985-2.172-.469 0-.812.14-1.125.328l.188-2.266h2.593v-.468H1.031L.797-3.656l.36.219c.374-.266.702-.438 1.187-.438.937 0 1.547.656 1.547 1.734 0 1.094-.72 1.797-1.579 1.797-.874 0-1.374-.39-1.765-.797L.266-.75c.421.422 1.03.875 2.078.875zm0 0"/></symbol><symbol overflow="visible" id="bj"><path d="M1.11-3.016c.968-.343 1.812-1.03 2.156-2.015.359.922 1.218 1.593 2.187 1.922l.219-.375c-1.14-.36-2.156-1.297-2.156-2.485v-.047h2.03v-.406h-2.03V-7.5h-.5v1.078H1.03v.406h1.985v.047c0 1.235-1 2.203-2.141 2.578zm2.406-.28h-.5v1.687c-.875.03-1.72.03-2.438.03l.078.438c1.5 0 3.531 0 5.407-.359l-.032-.36a22.45 22.45 0 0 1-2.515.22zm3.093-4.25V.655h.485v-8.203zm0 0"/></symbol><symbol overflow="visible" id="bk"><path d="M1.172-4.281c1.203-.172 2.61-.766 3.062-1.735.454.97 1.86 1.563 3.063 1.735l.172-.407C6.203-4.843 4.53-5.563 4.53-6.671v-.078h2.735v-.406H1.203v.406h2.75v.078c0 1.11-1.687 1.828-2.969 1.984zm3.062 4.5c-1.421 0-2.296-.36-2.296-1 0-.61.875-.985 2.296-.985 1.407 0 2.297.375 2.297.985 0 .64-.89 1-2.297 1zm0-2.375c-1.75 0-2.796.5-2.796 1.375C1.438.125 2.484.625 4.233.625c1.735 0 2.782-.5 2.782-1.406 0-.875-1.047-1.375-2.782-1.375zm.235-1.219v-1.281h-.485v1.281H.516v.406h7.421v-.406zm0 0"/></symbol><symbol overflow="visible" id="bl"><path d="M7.188-7.547h-.485v6.063h.484zM4.217-3.39H1.454v-1.703H4.22zm.485-3.593H4.22V-5.5H1.453v-1.484h-.5v4h3.75zM2.453.03v-2.125h-.5V.437h5.438V.031zm0 0"/></symbol><symbol overflow="visible" id="bm"><path d="M5.625-4.828h1.297v2.36h.469v-5.079h-.47v2.313H5.626v-2.157h-.469v4.657h.469zm-1.016 1.25c-1.03-.406-1.75-1.344-1.75-2.266v-1.203h-.484v1.203c0 .922-.75 2.016-1.781 2.469l.281.39c.813-.374 1.453-1.14 1.75-1.953.281.75.906 1.407 1.719 1.735zM4.75.234c-1.344 0-2.203-.406-2.203-1.03 0-.657.86-1.048 2.203-1.048 1.344 0 2.203.39 2.203 1.047 0 .625-.86 1.031-2.203 1.031zm0-2.468c-1.672 0-2.688.515-2.688 1.437C2.063.11 3.079.625 4.75.625c1.672 0 2.688-.516 2.688-1.422 0-.922-1.016-1.437-2.688-1.437zm0 0"/></symbol><symbol overflow="visible" id="bn"><path d="M7.969-3.734v-.422h-1.25c.218-1.032.218-1.813.218-2.422v-.563H1.484v.407H6.47v.156c0 .61 0 1.375-.25 2.422H.516v.422h3.468v1.703H1.313v.422H6.53V.64h.5v-2.672H4.484v-1.703zm0 0"/></symbol><symbol overflow="visible" id="bo"><path d="M4.75-2.984C5-4.61 5-5.72 5-6.313v-.296H.89v.406h3.626c0 .594-.016 1.672-.266 3.172zM2.812-4.266h-.484v2.579c-.672.015-1.328.015-1.906.015l.094.438c1.468-.016 3.421-.047 5.171-.313l-.03-.36c-.907.11-1.891.173-2.845.204zm5.344.22H6.72v-3.516h-.5V.64h.5v-4.25h1.437zm0 0"/></symbol><symbol overflow="visible" id="bp"><path d="M2.406 0h.563v-6.266h2.125v-.468H.297v.468h2.11zm0 0"/></symbol><symbol overflow="visible" id="bq"><path d="M.984 0h.547v-6.734H.984zm0 0"/></symbol><symbol overflow="visible" id="br"><path d="M.984 0h.5v-4.266c0-.562-.03-1.296-.062-1.859h.031l.531 1.5L3.406-.719h.438l1.422-3.906.53-1.5h.032a36.946 36.946 0 0 0-.062 1.86V0h.515v-6.734h-.734L4.172-2.86c-.172.484-.328.984-.5 1.468h-.047l-.516-1.468-1.39-3.875H.984zm0 0"/></symbol><symbol overflow="visible" id="bs"><path d="M.984 0h.547v-2.844h1.235c1.484 0 2.421-.64 2.421-2 0-1.39-.937-1.89-2.468-1.89H.984zm.547-3.313v-2.953H2.61c1.344 0 2.016.344 2.016 1.422 0 1.078-.64 1.532-1.969 1.532zm0 0"/></symbol><symbol overflow="visible" id="bt"><path d="M5.344-3.844c-1.172.235-2.157.281-3.797.281h-.11v-2.843h3.11v-.422H.937v3.703h.61c1.672 0 2.656-.063 3.86-.297zM2.328-2.188h-.484V.438H7.25V.03H2.328zm4.516-2.828v-2.562h-.485v5.969h.485v-2.985h1.281v-.422zm0 0"/></symbol><symbol overflow="visible" id="bu"><path d="M3.594-3.719H1.406V-5.25h2.188zm.484-3.312h-.484v1.375H1.406v-1.375H.938v3.718h3.14zm-2.11 5.375h4.923V.64h.5v-2.72H1.969zm4.954-5.89v2.202H5.625V-7.39h-.469v4.688h.469v-2.235h1.297v2.282h.469v-4.89zm0 0"/></symbol><symbol overflow="visible" id="bv"><path d="M7.188-7.563h-.5v4.282h.5zM5.484-3.874c-1.156-.375-2.171-1.328-2.171-2.5v-.25h2v-.422h-4.5v.422h2.015v.25c0 1.219-1 2.266-2.14 2.672l.234.39c.984-.359 1.828-1.14 2.156-2.14.344.922 1.203 1.625 2.172 1.969zM2.5.125v-1.14h4.688v-1.813H1.984v.39H6.72v1.047H2.016V.531h5.5V.125zm0 0"/></symbol><symbol overflow="visible" id="bw"><path d="M1.797-1.813h4.922v2.47h.484V-2.22H1.797zm.953-1.812c-.922 0-1.61-.656-1.61-1.516 0-.859.688-1.53 1.61-1.53.906 0 1.594.671 1.594 1.53 0 .86-.688 1.516-1.594 1.516zm3.969-3.938v2.204H4.812C4.704-6.391 3.86-7.08 2.75-7.08 1.547-7.078.672-6.28.672-5.14c0 1.141.875 1.922 2.078 1.922 1.125 0 1.953-.703 2.063-1.734h1.906v2.219h.484v-4.829zm0 0"/></symbol><symbol overflow="visible" id="bx"><path d="M2.813-6.11h1.624v-.406H.642v.407h1.703v.953c0 1.562-.797 3.062-1.89 3.718l.327.375c.844-.53 1.516-1.578 1.797-2.78.281 1.124.922 2.077 1.75 2.593l.313-.375C3.562-2.25 2.812-3.703 2.812-5.156zm2.5 1.579H3.796v.422h1.515V.187h.485v-7.515h-.484zm1.656-3.016V.641h.468v-8.188zm0 0"/></symbol><symbol overflow="visible" id="by"><path d="M6.484-6.063H1.5v1.625h5.625v-.375H1.969v-.89h5v-1.563H1.484v.375h5zM1.938-.827H7v-1.625H1.437v.39h5.094v.86H1.453V.516h5.828V.125H1.938zM.516-3.672v.39h7.437v-.39zm0 0"/></symbol><symbol overflow="visible" id="bz"><path d="M4.219-6.797c1.375 0 2.312.547 2.312 1.344 0 .812-.937 1.36-2.312 1.36-1.36 0-2.313-.548-2.313-1.36 0-.797.953-1.344 2.313-1.344zm0 3.11c1.687 0 2.812-.688 2.812-1.766s-1.125-1.75-2.812-1.75c-1.688 0-2.813.672-2.813 1.75 0 1.078 1.125 1.766 2.813 1.766zm3.734.859H.516v.422h2.046V.64h.5v-3.047h2.329V.64h.484v-3.047h2.078zm0 0"/></symbol><symbol overflow="visible" id="bA"><path d="M7.5-6.234H4.484v-1.172h-.5v1.172H.922v.421H7.5zM3.078-2.266c.344.079.719.11 1.156.11.422 0 .813-.031 1.157-.11v1.47H3.078zm-.984-1.39c0-.688.844-1.125 2.14-1.125 1.282 0 2.125.437 2.125 1.125 0 .672-.843 1.11-2.125 1.11-1.296 0-2.14-.438-2.14-1.11zm3.781 2.86v-1.626c.61-.234.984-.672.984-1.234 0-.969-1-1.516-2.625-1.516S1.61-4.625 1.61-3.656c0 .562.36 1 .97 1.234v1.625H.53v.422h7.422v-.422zm0 0"/></symbol><symbol overflow="visible" id="bB"><path d="M6.719-2.672h.484v-4.89H6.72v1.89H4.75v.422h1.969zm-1.453-.844C4.14-3.937 3.172-4.969 3.172-6.172v-.906h-.485v.906c0 1.344-.953 2.438-2.124 2.89l.265.391a3.697 3.697 0 0 0 2.125-2.25c.328.938 1.125 1.657 2.031 2.016zM4.546.22C3.22.219 2.36-.22 2.36-.891c0-.687.86-1.125 2.188-1.125 1.344 0 2.219.438 2.219 1.125 0 .672-.875 1.11-2.22 1.11zm0-2.625c-1.671 0-2.687.547-2.687 1.515C1.86.08 2.875.625 4.547.625c1.672 0 2.687-.547 2.687-1.516 0-.968-1.015-1.515-2.687-1.515zm0 0"/></symbol><symbol overflow="visible" id="bC"><path d="M6.469-4.484H2.016v-1.25h4.453zm.484-2.813H6.47v1.156H2.016v-1.156H1.53v3.219h5.422zM1.984-1.766H1.5V.438h5.625V.03h-5.14zM.516-3.14v.407h3.5V-.97H4.5v-1.765h3.453v-.407zm0 0"/></symbol><symbol overflow="visible" id="bD"><path d="M4.219-6.969c-1.688 0-2.922.875-2.922 2.188 0 1.343 1.234 2.203 2.922 2.203 1.687 0 2.937-.86 2.937-2.203 0-1.313-1.25-2.188-2.937-2.188zm0 .407c1.422 0 2.484.75 2.484 1.78 0 1.063-1.062 1.813-2.484 1.813-1.407 0-2.469-.75-2.469-1.812 0-1.032 1.063-1.782 2.469-1.782zM.516-.923V-.5h7.437v-.422zm0 0"/></symbol><symbol overflow="visible" id="bE"><path d="M4.469-.844v-1.734h2.718v-.406H1.97v-1.594h5.015v-2.313H1.47v.407h5.047v1.5H1.5v2.406h2.484v1.734H.516v.422h7.453v-.422zm0 0"/></symbol><symbol overflow="visible" id="bF"><path d="M3.078-6.281H5.36v2.89H3.08zM4.453-.844v-2.125H7.22v-.422H5.844v-2.89h1.375v-.422h-6v.422h1.375v2.89h-1.36v.422H3.97v2.125H.516v.406h7.453v-.406zm0 0"/></symbol><symbol overflow="visible" id="bG"><path d="M5.406-6.625H3.234v-1.016H2.75v1.016H.547v.422h4.86zM1.5-4.25c0-.61.594-1.047 1.484-1.047.875 0 1.47.438 1.47 1.063s-.595 1.062-1.47 1.062S1.5-3.609 1.5-4.25zm3.406 0c0-.89-.765-1.438-1.922-1.438-1.171 0-1.937.547-1.937 1.454 0 .89.766 1.453 1.937 1.453 1.157 0 1.922-.563 1.922-1.469zm-2.64 2.563h4.093V.109H2.266zM1.796.515h5.048v-2.61H1.797zm6.329-5.813H6.844v-2.266h-.485v4.938h.485v-2.234h1.281zm0 0"/></symbol><symbol overflow="visible" id="bH"><path d="M2.969-1.703c-.875 0-1.485-.61-1.485-1.422 0-.813.61-1.422 1.485-1.422.86 0 1.484.61 1.484 1.422 0 .813-.625 1.422-1.484 1.422zm0-3.266c-1.14 0-1.953.766-1.953 1.844 0 1.094.812 1.844 1.953 1.844 1.125 0 1.937-.75 1.937-1.844 0-1.078-.812-1.844-1.937-1.844zm.219-2.515h-.485v1.28H.47v.423h4.875v-.422H3.187zm5.015 3.406H6.766v-3.484h-.5V.64h.5v-4.313h1.437zm0 0"/></symbol><symbol overflow="visible" id="bI"><path d="M7.078-4.938H2.062v-2.328h-.5v2.735h5.516zm-5.062 3H1.53V.438h5.594V.017h-5.11zM.516-3.28v.422h7.437v-.422zm0 0"/></symbol><symbol overflow="visible" id="bJ"><path d="M7.516-3.297C6.359-3.53 4.453-4.766 4.453-6.28v-.657h-.5v.657c0 1.531-1.86 2.75-3.031 2.984l.219.422c1.093-.297 2.562-1.203 3.062-2.484.516 1.28 2 2.203 3.078 2.484zm-7 2.36v.406h7.437v-.406zm0 0"/></symbol><symbol overflow="visible" id="bK"><path d="M7.39-7.547h-.468v4.469h.469zM5.345-3.172h.484v-4.234h-.484v1.75h-1.25v.422h1.25zm-.89-1c-1 .203-1.829.25-3.032.25h-.016v-1.203h2.297v-.39H1.406v-1.126h2.625v-.406H.938v3.516h.484c1.234 0 2.062-.047 3.094-.25zM2.577.125V-.922h4.813V-2.64H2.094v.391h4.828v.953H2.109V.531h5.625V.125zm0 0"/></symbol><symbol overflow="visible" id="bL"><path d="M1.188-4.188c1.187-.187 2.609-.796 3.046-1.765.438.969 1.844 1.578 3.047 1.766l.188-.407C6.203-4.75 4.53-5.5 4.53-6.609v-.094h2.735v-.406H1.203v.406h2.75v.094C3.953-5.5 2.266-4.75 1-4.594zM4.233.22c-1.406 0-2.296-.39-2.296-1.063 0-.656.89-1.062 2.296-1.062 1.407 0 2.297.406 2.297 1.062 0 .672-.89 1.063-2.297 1.063zm0-2.531c-1.734 0-2.796.53-2.796 1.468C1.438.11 2.5.625 4.233.625 5.97.625 7.016.109 7.016-.844c0-.937-1.047-1.469-2.782-1.469zM.516-3.579v.406h7.421v-.406zm0 0"/></symbol><symbol overflow="visible" id="bM"><path d="M7.484-6.578H4.47v-1.047h-.485v1.047H.922v.406h6.562zM6.297-4.25c0 .594-.797.969-2.078.969-1.266 0-2.063-.375-2.063-.969s.797-.953 2.063-.953c1.281 0 2.078.36 2.078.953zm-4.656 0c0 .86.968 1.344 2.578 1.344 1.625 0 2.593-.485 2.593-1.344 0-.86-.968-1.344-2.593-1.344-1.61 0-2.578.485-2.578 1.344zm6.328 2.016H.516v.421h3.468v2.47h.485v-2.47h3.5zm0 0"/></symbol><symbol overflow="visible" id="bN"><path d="M2-2.063h-.5v2.5h5.64V.031H2zm4.719-1.796c.234-1.125.234-1.938.234-2.625v-.61H1.484v.407H6.47v.203c0 .687 0 1.5-.25 2.625H.516v.421h3.5v2.11H4.5v-2.11h3.453v-.421zm0 0"/></symbol><symbol overflow="visible" id="bO"><path d="M6.484-6.656c0 .531 0 1.11-.171 1.89l.484.047c.172-.781.172-1.39.172-1.937v-.563H1.422v.407h5.062zM1.938-1.031H7v-1.813H1.437v.406h5.079v1.016H1.453V.516h5.75V.109H1.937zm2.296-3.14v-1.563H3.75v1.562H.531v.406h7.407v-.406zm0 0"/></symbol><symbol overflow="visible" id="bP"><path d="M5.203-3.438c-1.125-.39-2.047-1.39-2.047-2.515V-6.5h1.938v-.406H.719v.406h1.953v.563c0 1.25-.969 2.296-2.125 2.718l.25.39c.969-.374 1.781-1.14 2.125-2.155.344.89 1.11 1.593 2.031 1.921zM4.25.22c-1.297 0-2.156-.406-2.156-1.063 0-.656.86-1.062 2.156-1.062 1.328 0 2.172.406 2.172 1.062S5.578.22 4.25.22zm0-2.516c-1.64 0-2.64.531-2.64 1.453 0 .938 1 1.469 2.64 1.469 1.656 0 2.656-.531 2.656-1.469 0-.922-1-1.453-2.656-1.453zm2.594-3.062v-2.188h-.485v4.984h.485v-2.374h1.281v-.422zm0 0"/></symbol><symbol overflow="visible" id="bQ"><path d="M2.375-1.703c-.766 0-1.266-.953-1.266-2.328s.5-2.344 1.266-2.344 1.266.969 1.266 2.344-.5 2.328-1.266 2.328zm0-5.11C1.328-6.813.641-5.734.641-4.03c0 1.687.687 2.781 1.734 2.781s1.734-1.094 1.734-2.781c0-1.703-.687-2.782-1.734-2.782zm4.61-.75v3.329H5.608V-7.36h-.468V.203h.468v-4.016h1.375V.641h.47v-8.204zm0 0"/></symbol><symbol overflow="visible" id="bR"><path d="M3.438-5.672h2v-.406h-2v-1.36h-.485v1.36H.938v.406h2.03v.828c0 1.547-1.077 2.938-2.218 3.485l.297.375c.922-.47 1.812-1.47 2.156-2.704.375 1.172 1.25 2.126 2.188 2.563l.28-.406C4.548-2.016 3.438-3.36 3.438-4.844zm3.25-1.875V.641h.5v-8.188zm0 0"/></symbol><symbol overflow="visible" id="bS"><path d="M3.203-2.578H5.36v1.734H3.203zm2.64 1.734v-1.734h1.345V-3h-5.22v-1.578h5.016v-2.313H1.47v.407h5.047v1.5H1.5v2.406h1.219v1.734H.516v.422h7.453v-.422zm0 0"/></symbol><symbol overflow="visible" id="bT"><path d="M6.703-7.547v4.719h.484v-4.719zM1.984-2.359V.516h5.204V-2.36zm4.735.406V.109h-4.25v-2.062zm-3.89-5.14c-1.22 0-2.079.765-2.079 1.89s.86 1.875 2.078 1.875c1.219 0 2.078-.75 2.078-1.875s-.86-1.89-2.078-1.89zm0 .421c.937 0 1.608.61 1.608 1.469 0 .844-.671 1.469-1.609 1.469-.937 0-1.594-.625-1.594-1.47 0-.859.657-1.468 1.594-1.468zm0 0"/></symbol><symbol overflow="visible" id="bU"><path d="M5.5-6.516H3.281v-1.046h-.5v1.046H.562v.422H5.5zm-3.89 2.5c0-.656.562-1.109 1.421-1.109.86 0 1.438.453 1.438 1.11 0 .64-.578 1.109-1.438 1.109S1.61-3.375 1.61-4.016zM3.28-2.53c1-.078 1.656-.64 1.656-1.485 0-.921-.765-1.5-1.906-1.5-1.125 0-1.875.579-1.875 1.5 0 .844.64 1.407 1.625 1.485V-1.5c-.844.031-1.656.031-2.36.031l.095.422c1.453 0 3.421-.016 5.218-.312l-.03-.391c-.766.125-1.61.188-2.423.219zm4.875-1.453H6.734v-3.563H6.25V.641h.484v-4.204h1.422zm0 0"/></symbol><symbol overflow="visible" id="bV"><path d="M5.406-6.64H3.234v-1H2.75v1H.547v.406h4.86zM1.5-4.329c0-.61.594-1.031 1.484-1.031.875 0 1.47.421 1.47 1.046 0 .61-.595 1.032-1.47 1.032S1.5-3.703 1.5-4.328zm3.406 0c0-.875-.765-1.422-1.922-1.422-1.171 0-1.937.547-1.937 1.438 0 .875.766 1.421 1.937 1.421 1.157 0 1.922-.546 1.922-1.437zM6.36.109H2.266V-1h4.093zm0-1.515H2.266v-1.016H1.78V.516h5.063v-2.938h-.485zm1.766-3.985H6.844v-2.171h-.485v4.75h.485V-4.97h1.281zm0 0"/></symbol><symbol overflow="visible" id="bW"><path d="M6.484-5.234h-4.5v-1.641h4.5zm.485-2.032H1.516v2.438h5.453zm.968 3.704v-.407H.516v.406h3.468v.97h-2.53v.39h5.015v.922h-5V.53h5.75V.125H1.953V-.906h5v-1.688H4.47v-.969zm0 0"/></symbol><symbol overflow="visible" id="bX"><path d="M7.969-4.094v-.422H6.766c.171-.937.171-1.64.171-2.203v-.5H1.484v.407H6.47v.093c0 .547 0 1.235-.188 2.203H.516v.422h3.468v1.235H1.438v.406h5.078v1.047H1.453V.516h5.75V.109H1.937v-1.14H7V-2.86H4.469v-1.235zm0 0"/></symbol><symbol overflow="visible" id="bY"><path d="M.984 0h1.594c2.063 0 3.078-1.328 3.078-3.39 0-2.063-1.015-3.344-3.093-3.344H.984zm.547-.469v-5.797h.985c1.765 0 2.546 1.125 2.546 2.875S4.282-.469 2.517-.469zm0 0"/></symbol><symbol overflow="visible" id="bZ"><path d="M.922 0h.531v-3.313c.36-.906.89-1.234 1.328-1.234a.91.91 0 0 1 .453.094l.11-.484c-.156-.094-.313-.11-.5-.11-.578 0-1.063.422-1.39 1.047h-.016l-.079-.922H.922zm0 0"/></symbol><symbol overflow="visible" id="ca"><path d="M2.344.125c.672 0 1.172-.39 1.656-.938h.031L4.078 0h.453v-4.922h-.547v3.594c-.546.672-.953.969-1.53.969-.75 0-1.063-.47-1.063-1.485v-3.078H.844v3.156c0 1.25.469 1.891 1.5 1.891zm0 0"/></symbol><symbol overflow="visible" id="cb"><path d="M2.547 2.344c1.437 0 2.36-.813 2.36-1.672 0-.781-.532-1.14-1.641-1.14H2.219c-.703 0-.922-.266-.922-.61 0-.313.187-.516.39-.688.22.125.532.204.797.204.97 0 1.735-.72 1.735-1.735 0-.5-.219-.922-.5-1.187h1.11v-.438H3.14a1.812 1.812 0 0 0-.657-.125c-.968 0-1.765.719-1.765 1.734 0 .594.312 1.094.625 1.344v.032c-.219.171-.547.5-.547.921 0 .391.203.641.453.797v.047C.797.125.516.562.516 1c0 .828.796 1.344 2.03 1.344zM2.484-1.97c-.656 0-1.234-.531-1.234-1.343 0-.813.563-1.313 1.234-1.313.672 0 1.22.5 1.22 1.313 0 .812-.579 1.343-1.22 1.343zm.125 3.907c-1.015 0-1.593-.407-1.593-1 0-.344.187-.704.609-1 .25.062.516.093.625.093h1c.734 0 1.125.188 1.125.719 0 .594-.703 1.188-1.766 1.188zm0 0"/></symbol><symbol overflow="visible" id="cc"><path d="M2.813.125c.703 0 1.171-.234 1.562-.484L4.172-.75c-.375.25-.781.422-1.313.422-1.062 0-1.765-.844-1.796-2.047h3.484c.031-.125.031-.25.031-.39 0-1.438-.703-2.282-1.906-2.282-1.11 0-2.156 1-2.156 2.594 0 1.61 1.03 2.578 2.296 2.578zm-1.75-2.922c.093-1.125.828-1.797 1.625-1.797.859 0 1.406.61 1.406 1.797zm0 0"/></symbol><symbol overflow="visible" id="cd"><path d="M.922 2.203h.531V-.484c.5.39.984.609 1.453.609 1.14 0 2.156-.984 2.156-2.672 0-1.5-.656-2.5-1.968-2.5-.594 0-1.156.36-1.64.719h-.016l-.079-.594H.922zM2.859-.344c-.359 0-.875-.172-1.406-.61v-2.843c.578-.5 1.063-.781 1.531-.781 1.11 0 1.516.86 1.516 2.031 0 1.328-.688 2.203-1.64 2.203zm0 0"/></symbol><symbol overflow="visible" id="ce"><path d="M2.75.125c1.188 0 2.219-.953 2.219-2.578 0-1.64-1.032-2.594-2.219-2.594-1.203 0-2.234.953-2.234 2.594C.516-.828 1.546.125 2.75.125zm0-.469c-.969 0-1.672-.86-1.672-2.11 0-1.265.703-2.124 1.672-2.124.953 0 1.656.86 1.656 2.125 0 1.25-.703 2.11-1.656 2.11zm0 0"/></symbol><symbol overflow="visible" id="cf"><path d="M2.14.125c1.079 0 1.688-.656 1.688-1.406 0-.953-.844-1.219-1.594-1.5-.578-.219-1.14-.422-1.14-.969 0-.438.328-.844 1.062-.844.469 0 .828.188 1.172.438l.266-.375a2.32 2.32 0 0 0-1.422-.516c-1.031 0-1.625.61-1.625 1.328 0 .844.812 1.156 1.547 1.406.578.204 1.187.47 1.187 1.063 0 .5-.375.922-1.125.922-.672 0-1.125-.25-1.547-.61l-.28.391c.437.36 1.077.672 1.812.672zm0 0"/></symbol><symbol overflow="visible" id="cg"><path d="M.922 0h.531v-4.922H.922zm.281-6.078c.234 0 .453-.172.453-.422 0-.281-.218-.438-.453-.438-.25 0-.453.157-.453.438 0 .25.203.422.453.422zm0 0"/></symbol><symbol overflow="visible" id="ch"><path d="M2.313.125c.218 0 .53-.094.812-.188L3-.483c-.172.078-.422.14-.594.14-.656 0-.828-.406-.828-1.015v-3.11h1.406v-.453H1.578v-1.422h-.453l-.063 1.422-.78.047v.406h.765v3.063c0 .922.297 1.531 1.266 1.531zm0 0"/></symbol><symbol overflow="visible" id="ci"><path d="M.922 0h.531v-3.688c.578-.593.984-.89 1.563-.89.75 0 1.078.484 1.078 1.5V0h.531v-3.156c0-1.25-.469-1.89-1.5-1.89-.672 0-1.172.39-1.672.874h-.016l-.078-.75H.922zm0 0"/></symbol><symbol overflow="visible" id="cj"><path d="M7.188-7.563h-.5v4.75h.5zm-2.97 3.438h-2.78v-2.484h2.78zm.47-2.89H.953v3.296h3.735zm.25 5.234h2.484v-.39H4.938v-.892h-.5v.891h-2.47v.39h2.47v.079c0 .937-1.61 1.766-2.797 1.922l.171.39C2.938.422 4.235-.187 4.688-1.03 5.141-.203 6.391.422 7.517.609l.171-.39c-1.203-.188-2.75-1-2.75-1.922zm0 0"/></symbol><symbol overflow="visible" id="ck"><path d="M4.86-5.203v.406h1.859v3.281h.484v-6.03H6.72v2.343zm.437 1.937c-1.125-.406-2.078-1.437-2.078-2.546v-.594H5.14v-.422H.78v.422H2.75v.593c0 1.235-1.016 2.344-2.156 2.766l.265.39c.954-.374 1.797-1.187 2.125-2.218.344.906 1.141 1.656 2.063 2.016zM2.563.031v-2.094h-.485v2.5h5.375V.031zm0 0"/></symbol><symbol overflow="visible" id="co"><path d="M2.375.125c1.156 0 2.031-.734 2.031-1.906 0-.953-.656-1.563-1.468-1.735v-.046c.718-.235 1.234-.797 1.234-1.672 0-1.032-.781-1.625-1.813-1.625-.765 0-1.343.359-1.812.796l.328.36c.36-.39.89-.703 1.469-.703.781 0 1.281.484 1.281 1.218 0 .797-.516 1.438-2 1.438v.453c1.61 0 2.234.61 2.234 1.516 0 .86-.625 1.437-1.5 1.437C1.5-.344.984-.75.594-1.156l-.313.36c.438.452 1.063.921 2.094.921zm0 0"/></symbol><symbol overflow="visible" id="ax"><path d="M.75 0h4.11v-1.094H3.577v-5.734h-1c-.437.266-.906.437-1.594.562v.844H2.22v4.328H.75zm0 0"/></symbol><symbol overflow="visible" id="ay"><path d="M7.219-5.375H2.547v-1.14h4.625v-.97H1.344v3.079h5.875zm-3 5.25c-1.14 0-1.719-.203-1.719-.64 0-.438.578-.641 1.719-.641 1.14 0 1.718.203 1.718.64 0 .438-.578.641-1.718.641zm0-2.219c-1.844 0-2.938.578-2.938 1.578S2.375.797 4.22.797c1.843 0 2.953-.563 2.953-1.563s-1.11-1.578-2.953-1.578zM.406-3.828v1h7.688v-1zm0 0"/></symbol><symbol overflow="visible" id="aA"><path d="M1.156-2.828c1-.281 1.672-.844 2.047-1.578.375.687 1.047 1.234 2.031 1.484l.532-.922C4.516-4.172 3.89-4.938 3.812-5.75h1.72v-.969H3.796v-.922H2.578v.922H.875v.969h1.688c-.079.86-.672 1.656-1.938 1.984zm2.64-.25H2.579v1.281c-.781.031-1.515.031-2.14.031l.156.985c1.453 0 3.453-.016 5.281-.375l-.063-.89c-.656.093-1.328.155-2.015.202zm2.47-4.64v8.53h1.218v-8.53zm0 0"/></symbol><symbol overflow="visible" id="aB"><path d="M4.234-6.453c1.11 0 1.813.328 1.813.937 0 .625-.703.954-1.813.954-1.125 0-1.828-.329-1.828-.954 0-.609.703-.937 1.828-.937zm0 2.86c1.813 0 3.063-.75 3.063-1.923 0-1.156-1.25-1.906-3.063-1.906-1.828 0-3.078.75-3.078 1.906 0 1.172 1.25 1.922 3.078 1.922zm3.86.64H.39v.984h3.218V.797h1.22V-1.97h3.265zm0 0"/></symbol><symbol overflow="visible" id="aC"><path d="M7.813-4.688c-1.938-.265-2.907-1.375-2.907-2.375v-.406H3.594v.407c0 1-.969 2.109-2.906 2.375l.468.968c1.485-.219 2.563-.906 3.094-1.828.547.922 1.61 1.61 3.094 1.828zm.28 1.61H.407v.984H3.61v2.89h1.22v-2.89h3.265zm0 0"/></symbol><symbol overflow="visible" id="aD"><path d="M5.406-3.938C4.078-4.359 3.5-5.359 3.5-6.374v-.875H2.266v.766c0 1.156-.579 2.296-2 2.765l.64.953a3.278 3.278 0 0 0 2-1.828c.36.719.969 1.297 1.875 1.594zM4.313-.14C3.218-.14 2.64-.375 2.64-.844c0-.484.578-.703 1.671-.703 1.079 0 1.657.219 1.657.703 0 .469-.578.703-1.657.703zm0-2.343c-1.766 0-2.875.609-2.875 1.64S2.546.796 4.313.796c1.765 0 2.875-.609 2.875-1.64s-1.11-1.64-2.875-1.64zm2.78-3.25v-1.97H5.876v5.032h1.219v-2.062h1.125v-1zm0 0"/></symbol><symbol overflow="visible" id="bh"><path d="M.39 0h4.594v-1.14h-1.5c-.312 0-.765.03-1.109.062 1.25-1.219 2.281-2.547 2.281-3.781 0-1.266-.86-2.11-2.156-2.11-.938 0-1.547.375-2.172 1.047l.75.734c.328-.375.75-.703 1.25-.703.64 0 1.031.422 1.031 1.11 0 1.047-1.109 2.328-2.968 4zm0 0"/></symbol><symbol overflow="visible" id="cl"><path d="M2.531.125c1.297 0 2.406-.719 2.406-1.984 0-.891-.593-1.47-1.375-1.672v-.047c.735-.297 1.141-.828 1.141-1.563 0-1.171-.89-1.828-2.203-1.828-.813 0-1.469.328-2.063.844l.704.828c.406-.36.796-.594 1.28-.61.595.016.923.329.923.86C3.344-4.437 2.938-4 1.688-4v.984c1.484 0 1.875.407 1.875 1.079 0 .609-.47.953-1.157.953-.625 0-1.125-.297-1.531-.704l-.64.86c.484.547 1.218.953 2.296.953zm0 0"/></symbol><symbol overflow="visible" id="cm"><path d="M5.469-3.844C4.125-4.25 3.547-5.204 3.53-6.172h1.656v-.969H.595v.97H2.28c-.015 1.062-.625 2.14-2 2.609l.61.953c1-.329 1.671-1 2.046-1.844.376.703 1.016 1.266 1.954 1.547zM4.312-.14c-1.093 0-1.671-.234-1.671-.703 0-.5.578-.719 1.671-.719 1.079 0 1.657.22 1.657.72 0 .468-.578.702-1.657.702zm0-2.375c-1.765 0-2.875.625-2.875 1.672 0 1.031 1.11 1.64 2.875 1.64 1.766 0 2.875-.609 2.875-1.64 0-1.047-1.109-1.672-2.875-1.672zM7.095-5.75v-1.953H5.875v5.047h1.219V-4.75h1.125v-1zm0 0"/></symbol><symbol overflow="visible" id="cn"><path d="M1.89-3.719H4.47V-7H.672v.969h2.594v1.36H.687v3.593h.688c1.281 0 2.36-.031 3.61-.219l-.094-1a19.624 19.624 0 0 1-3 .203zm4.391-4v1.813h-1.39v.968h1.39v1.344H4.875v.969h1.406V.813h1.235V-7.72zm0 0"/></symbol><symbol overflow="visible" id="cp"><path d="M1.64 0h4.75c2.923 0 5.157-1.234 5.157-3.922 0-1.797-1.063-2.797-2.5-3.14v-.094c1.125-.39 1.812-1.657 1.812-2.875 0-2.485-2.078-3.281-4.812-3.281H1.64zm2.657-7.89v-3.391h1.578c1.61 0 2.39.469 2.39 1.64 0 1.063-.734 1.75-2.421 1.75zm0 5.843v-3.875h1.86c1.827 0 2.796.547 2.796 1.844 0 1.375-.984 2.031-2.797 2.031zm0 0"/></symbol><symbol overflow="visible" id="cq"><path d="M1.422 0h2.625v-10.078H1.422zM2.75-11.688c.906 0 1.563-.609 1.563-1.437 0-.86-.657-1.438-1.563-1.438-.922 0-1.578.579-1.578 1.438 0 .828.656 1.438 1.578 1.438zm0 0"/></symbol><symbol overflow="visible" id="cr"><path d="M5.625.25c2.516 0 4.844-1.938 4.844-5.266 0-3.359-2.328-5.312-4.844-5.312-2.516 0-4.828 1.953-4.828 5.312C.797-1.687 3.109.25 5.625.25zm0-2.156c-1.36 0-2.14-1.219-2.14-3.11 0-1.906.78-3.156 2.14-3.156 1.375 0 2.14 1.25 2.14 3.156 0 1.891-.765 3.11-2.14 3.11zm0 0"/></symbol><symbol overflow="visible" id="cs"><path d="M.875-5.906h4.953v-1.875H.875zm0 0"/></symbol><symbol overflow="visible" id="ct"><path d="M3.969 0H7.14l4.078-13.313H8.53L6.797-6.827C6.39-5.36 6.078-4.031 5.672-2.531h-.094c-.437-1.5-.703-2.828-1.125-4.297l-1.75-6.484H-.094zm0 0"/></symbol><symbol overflow="visible" id="cu"><path d="M5.797.25c1.25 0 2.531-.438 3.516-1.11l-.891-1.624c-.719.453-1.438.703-2.266.703-1.5 0-2.578-.86-2.797-2.516h6.204c.078-.234.124-.719.124-1.203 0-2.797-1.437-4.828-4.203-4.828-2.406 0-4.687 2.031-4.687 5.312 0 3.313 2.187 5.266 5 5.266zM3.328-6.047c.203-1.469 1.125-2.219 2.188-2.219 1.296 0 1.906.86 1.906 2.22zm0 0"/></symbol><symbol overflow="visible" id="cv"><path d="M1.422 0h2.625v-6.922c.75-.734 1.281-1.14 2.11-1.14.984 0 1.421.562 1.421 2.109V0h2.64v-6.281c0-2.532-.937-4.047-3.109-4.047-1.375 0-2.39.719-3.28 1.594h-.063l-.188-1.344H1.422zm0 0"/></symbol><symbol overflow="visible" id="cw"><path d="M5.11.25c.874 0 1.577-.203 2.124-.375l-.437-1.922c-.266.11-.672.219-.984.219-.907 0-1.375-.547-1.375-1.703v-4.453h2.484v-2.094H4.438v-2.688H2.233l-.312 2.688-1.547.125v1.969h1.422v4.453c0 2.265.922 3.781 3.312 3.781zm0 0"/></symbol><symbol overflow="visible" id="cx"><path d="M4.406.25c1.39 0 2.36-.656 3.219-1.688h.078L7.891 0h2.156v-10.078h-2.64v6.812c-.688.891-1.22 1.25-2.048 1.25-.968 0-1.406-.53-1.406-2.109v-5.953h-2.64v6.297C1.313-1.266 2.25.25 4.405.25zm0 0"/></symbol><symbol overflow="visible" id="cy"><path d="M1.422 0h2.625v-6c.578-1.469 1.531-1.984 2.312-1.984.422 0 .704.046 1.047.156l.469-2.281c-.297-.125-.625-.22-1.188-.22-1.046 0-2.125.72-2.859 2.032h-.062l-.188-1.781H1.422zm0 0"/></symbol><symbol overflow="visible" id="cA"><path d="M7.063.25c1.734 0 3.156-.688 4.25-1.953L9.905-3.36c-.719.765-1.61 1.312-2.75 1.312-2.11 0-3.468-1.75-3.468-4.64 0-2.86 1.515-4.594 3.53-4.594 1 0 1.782.469 2.438 1.125l1.406-1.703c-.859-.891-2.218-1.704-3.906-1.704-3.36 0-6.187 2.579-6.187 6.97C.969-2.157 3.703.25 7.062.25zm0 0"/></symbol><symbol overflow="visible" id="cB"><path d="M1.422 0h2.625v-6.922c.719-.75 1.36-1.14 1.937-1.14.954 0 1.407.562 1.407 2.109V0h2.64v-6.922c.719-.75 1.375-1.14 1.953-1.14.954 0 1.391.562 1.391 2.109V0h2.656v-6.281c0-2.532-1-4.047-3.14-4.047-1.313 0-2.282.797-3.204 1.765-.484-1.109-1.328-1.765-2.765-1.765-1.313 0-2.25.719-3.094 1.61h-.062l-.188-1.36H1.422zm0 0"/></symbol><symbol overflow="visible" id="cC"><path d="M1.422 3.86h2.625V.812L3.969-.845C4.75-.14 5.594.25 6.469.25c2.218 0 4.281-2 4.281-5.453 0-3.094-1.469-5.125-3.953-5.125-1.078 0-2.125.578-2.969 1.297h-.062l-.188-1.047H1.422zm4.453-5.782c-.531 0-1.188-.203-1.828-.75v-4.437c.703-.704 1.312-1.032 2-1.032 1.375 0 1.984 1.063 1.984 2.985 0 2.187-.922 3.234-2.156 3.234zm0 0"/></symbol><symbol overflow="visible" id="cD"><path d="M7.188-13.734H4.813v2.406c0 3.219-1.36 6.422-4.25 7.656l1.421 1.969c1.97-.938 3.329-2.719 4.063-4.938.734 2.032 2.016 3.672 3.922 4.532l1.344-1.922C8.5-5.234 7.186-8.25 7.186-11.328zm4.937-1.297v16.61H14.5v-16.61zm0 0"/></symbol><symbol overflow="visible" id="cE"><path d="M10.531-7.672c-2.594-.812-3.719-2.766-3.719-4.75v-1.703H4.406v1.5c0 2.25-1.11 4.453-3.89 5.375l1.25 1.875c1.89-.656 3.156-1.922 3.875-3.563.703 1.407 1.906 2.516 3.656 3.094zM8.406-.282c-2.125 0-3.265-.437-3.265-1.374C5.14-2.578 6.28-3 8.406-3c2.094 0 3.235.422 3.235 1.344 0 .937-1.141 1.375-3.235 1.375zm0-4.562c-3.453 0-5.625 1.188-5.625 3.188 0 2.015 2.172 3.203 5.625 3.203 3.422 0 5.578-1.188 5.578-3.203 0-2-2.156-3.188-5.578-3.188zm5.406-6.328V-15h-2.374v9.781h2.374v-3.984H16v-1.969zm0 0"/></symbol><symbol overflow="visible" id="cF"><path d="M12.25-11.156v1.422H8.578v1.78h3.672v1.25h2.375v-8.312H12.25v2.079H9.203c.078-.454.11-.954.11-1.454H1.921v1.891h4.781C6.422-10.562 4.734-8.969.97-8.234l.797 1.906c3.625-.797 5.968-2.36 6.968-4.828zM6.094-.484v-1.047h8.531v-4.563H3.703v1.875h8.547v.922H3.719v4.688h11.25V-.484zm0 0"/></symbol><symbol overflow="visible" id="cG"><path d="M9.547-5.688C10-8.421 10-10.438 10-12.03v-1.344H1.469v1.89h6.187c0 1.47-.047 3.25-.422 5.61zm-3.61-2.937H3.595v4.89c-1.047.016-2.047.016-2.969.016L.844-1.78c2.875-.016 6.578-.094 9.953-.672l-.125-1.703c-1.516.187-3.14.297-4.735.343zm10.094.266h-2.234v-6.672h-2.375V1.53h2.375V-6.39h2.234zm0 0"/></symbol></defs><g fill="#898989"><use xlink:href="#a" x="557.952" y="819.169"/><use xlink:href="#b" x="561.924" y="819.169"/></g><g fill="#595757"><use xlink:href="#c" x="39.637" y="818.993"/><use xlink:href="#d" x="45.03" y="818.993"/><use xlink:href="#e" x="50.424" y="818.993"/><use xlink:href="#f" x="55.817" y="818.993"/><use xlink:href="#g" x="61.211" y="818.993"/><use xlink:href="#h" x="62.769" y="818.993"/><use xlink:href="#i" x="68.162" y="818.993"/><use xlink:href="#j" x="73.556" y="818.993"/><use xlink:href="#k" x="78.949" y="818.993"/><use xlink:href="#l" x="84.342" y="818.993"/><use xlink:href="#m" x="89.736" y="818.993"/><use xlink:href="#c" x="95.129" y="818.993"/><use xlink:href="#d" x="100.523" y="818.993"/></g><g fill="#595757"><use xlink:href="#n" x="105.916" y="818.993"/><use xlink:href="#o" x="107.474" y="818.993"/><use xlink:href="#p" x="112.868" y="818.993"/><use xlink:href="#q" x="118.261" y="818.993"/><use xlink:href="#r" x="123.655" y="818.993"/><use xlink:href="#n" x="129.048" y="818.993"/><use xlink:href="#s" x="130.606" y="818.993"/><use xlink:href="#t" x="136" y="818.993"/><use xlink:href="#u" x="141.393" y="818.993"/><use xlink:href="#n" x="146.786" y="818.993"/><use xlink:href="#v" x="148.345" y="818.993"/></g><g fill="#595757"><use xlink:href="#w" x="151.43" y="818.993"/><use xlink:href="#x" x="154.87" y="818.993"/><use xlink:href="#y" x="156.35" y="818.993"/><use xlink:href="#n" x="157.735" y="818.993"/><use xlink:href="#z" x="159.293" y="818.993"/><use xlink:href="#z" x="162.379" y="818.993"/></g><g fill="#fff"><use xlink:href="#A" x="60.364" y="125.765"/><use xlink:href="#B" x="63.091" y="125.765"/><use xlink:href="#C" x="72.529" y="125.765"/><use xlink:href="#D" x="81.968" y="125.765"/><use xlink:href="#E" x="91.406" y="125.765"/><use xlink:href="#F" x="95.161" y="125.765"/><use xlink:href="#G" x="104.599" y="125.765"/><use xlink:href="#H" x="114.038" y="125.765"/></g><g fill="#fff"><use xlink:href="#B" x="278.3" y="125.765"/><use xlink:href="#C" x="287.738" y="125.765"/><use xlink:href="#I" x="297.177" y="125.765"/><use xlink:href="#J" x="306.615" y="125.765"/></g><g fill="#fff"><use xlink:href="#A" x="489.324" y="125.765"/><use xlink:href="#A" x="492.051" y="125.765"/><use xlink:href="#K" x="494.777" y="125.765"/><use xlink:href="#L" x="504.216" y="125.765"/><use xlink:href="#M" x="513.654" y="125.765"/><use xlink:href="#N" x="523.093" y="125.765"/></g><use xlink:href="#O" x="58.787" y="149.309"/><use xlink:href="#P" x="67.102" y="149.309"/><use xlink:href="#Q" x="75.417" y="149.309"/><use xlink:href="#R" x="83.732" y="149.309"/><use xlink:href="#S" x="86.134" y="149.309"/><use xlink:href="#T" x="94.449" y="149.309"/><use xlink:href="#U" x="102.764" y="149.309"/><use xlink:href="#V" x="111.079" y="149.309"/><use xlink:href="#W" x="51.914" y="164.295"/><use xlink:href="#X" x="54.63" y="164.295"/><use xlink:href="#Y" x="62.945" y="164.295"/><use xlink:href="#Z" x="71.26" y="164.295"/><use xlink:href="#V" x="79.575" y="164.295"/><use xlink:href="#R" x="87.89" y="164.295"/><use xlink:href="#aa" x="90.292" y="164.295"/><use xlink:href="#ab" x="98.606" y="164.295"/><use xlink:href="#U" x="106.921" y="164.295"/><use xlink:href="#ac" x="115.236" y="164.295"/><use xlink:href="#ad" x="123.551" y="164.295"/><use xlink:href="#ae" x="147.221" y="156.802"/><use xlink:href="#af" x="155.536" y="156.802"/><use xlink:href="#ag" x="163.851" y="156.802"/><use xlink:href="#R" x="172.166" y="156.802"/><use xlink:href="#ah" x="174.568" y="156.802"/><use xlink:href="#aa" x="182.882" y="156.802"/><use xlink:href="#ai" x="191.197" y="156.802"/><use xlink:href="#aj" x="199.512" y="156.802"/><use xlink:href="#ak" x="207.827" y="156.802"/><use xlink:href="#al" x="216.142" y="156.802"/><use xlink:href="#am" x="224.457" y="156.802"/><use xlink:href="#R" x="232.772" y="156.802"/><use xlink:href="#U" x="235.174" y="156.802"/><use xlink:href="#an" x="243.489" y="156.802"/><use xlink:href="#ao" x="251.804" y="156.802"/><use xlink:href="#R" x="260.119" y="156.802"/><use xlink:href="#ap" x="262.521" y="156.802"/><use xlink:href="#aq" x="270.835" y="156.802"/><use xlink:href="#ah" x="279.15" y="156.802"/><use xlink:href="#ar" x="287.465" y="156.802"/><use xlink:href="#R" x="295.78" y="156.802"/><use xlink:href="#as" x="298.182" y="156.802"/><use xlink:href="#at" x="306.497" y="156.802"/><use xlink:href="#an" x="314.812" y="156.802"/><use xlink:href="#au" x="323.127" y="156.802"/><use xlink:href="#R" x="331.442" y="156.802"/><use xlink:href="#av" x="333.844" y="156.802"/><use xlink:href="#aw" x="342.159" y="156.802"/><g><use xlink:href="#ax" x="486.32" y="149.309"/><use xlink:href="#ay" x="491.577" y="149.309"/><use xlink:href="#az" x="499.892" y="149.309"/><use xlink:href="#aA" x="502.294" y="149.309"/><use xlink:href="#aB" x="510.609" y="149.309"/><use xlink:href="#aC" x="518.924" y="149.309"/><use xlink:href="#aD" x="527.239" y="149.309"/></g><g><use xlink:href="#aE" x="483.595" y="164.295"/><use xlink:href="#aF" x="491.91" y="164.295"/><use xlink:href="#R" x="500.225" y="164.295"/><use xlink:href="#aG" x="502.627" y="164.295"/><use xlink:href="#aH" x="507.385" y="164.295"/><use xlink:href="#aH" x="512.143" y="164.295"/><use xlink:href="#aH" x="516.901" y="164.295"/><use xlink:href="#aI" x="521.659" y="164.295"/><use xlink:href="#aJ" x="529.974" y="164.295"/></g><g><use xlink:href="#U" x="67.102" y="190.523"/><use xlink:href="#aK" x="75.417" y="190.523"/><use xlink:href="#aL" x="83.732" y="190.523"/><use xlink:href="#R" x="92.047" y="190.523"/><use xlink:href="#aM" x="94.449" y="190.523"/><use xlink:href="#aN" x="102.764" y="190.523"/></g><g><use xlink:href="#W" x="57.272" y="205.509"/><use xlink:href="#O" x="59.988" y="205.509"/><use xlink:href="#aO" x="68.303" y="205.509"/><use xlink:href="#S" x="76.618" y="205.509"/><use xlink:href="#aP" x="84.933" y="205.509"/><use xlink:href="#aM" x="93.248" y="205.509"/><use xlink:href="#aQ" x="101.563" y="205.509"/><use xlink:href="#aJ" x="109.878" y="205.509"/><use xlink:href="#ad" x="118.193" y="205.509"/></g><g><use xlink:href="#aR" x="147.221" y="190.523"/><use xlink:href="#aE" x="155.536" y="190.523"/><use xlink:href="#aS" x="163.851" y="190.523"/><use xlink:href="#aT" x="172.166" y="190.523"/><use xlink:href="#aU" x="175.63" y="190.523"/><use xlink:href="#aR" x="183.945" y="190.523"/><use xlink:href="#aE" x="192.26" y="190.523"/><use xlink:href="#aS" x="200.575" y="190.523"/><use xlink:href="#R" x="208.89" y="190.523"/><use xlink:href="#aN" x="211.292" y="190.523"/><use xlink:href="#al" x="219.607" y="190.523"/><use xlink:href="#R" x="227.921" y="190.523"/><use xlink:href="#aV" x="230.324" y="190.523"/><use xlink:href="#R" x="238.638" y="190.523"/><use xlink:href="#aW" x="241.04" y="190.523"/><use xlink:href="#aX" x="249.355" y="190.523"/><use xlink:href="#aY" x="257.67" y="190.523"/><use xlink:href="#R" x="265.985" y="190.523"/><use xlink:href="#aU" x="268.387" y="190.523"/><use xlink:href="#aR" x="276.702" y="190.523"/><use xlink:href="#aE" x="285.017" y="190.523"/><use xlink:href="#aS" x="293.332" y="190.523"/><use xlink:href="#R" x="301.647" y="190.523"/><use xlink:href="#aZ" x="304.049" y="190.523"/><use xlink:href="#ar" x="312.364" y="190.523"/><use xlink:href="#ba" x="320.679" y="190.523"/><use xlink:href="#R" x="328.994" y="190.523"/><use xlink:href="#bb" x="331.396" y="190.523"/><use xlink:href="#bc" x="339.71" y="190.523"/><use xlink:href="#am" x="348.025" y="190.523"/><use xlink:href="#R" x="356.34" y="190.523"/><use xlink:href="#bd" x="358.742" y="190.523"/><use xlink:href="#ao" x="367.057" y="190.523"/><use xlink:href="#R" x="375.372" y="190.523"/></g><g><use xlink:href="#at" x="147.221" y="205.509"/><use xlink:href="#be" x="155.536" y="205.509"/><use xlink:href="#P" x="163.851" y="205.509"/><use xlink:href="#aE" x="172.166" y="205.509"/><use xlink:href="#ak" x="180.48" y="205.509"/><use xlink:href="#bf" x="188.795" y="205.509"/><use xlink:href="#R" x="197.11" y="205.509"/><use xlink:href="#aN" x="199.512" y="205.509"/><use xlink:href="#al" x="207.827" y="205.509"/><use xlink:href="#R" x="216.142" y="205.509"/><use xlink:href="#bb" x="218.544" y="205.509"/><use xlink:href="#bg" x="226.859" y="205.509"/><use xlink:href="#ak" x="235.174" y="205.509"/><use xlink:href="#ak" x="243.489" y="205.509"/><use xlink:href="#R" x="251.804" y="205.509"/><use xlink:href="#av" x="254.206" y="205.509"/><use xlink:href="#aw" x="262.521" y="205.509"/></g><g><use xlink:href="#bh" x="490.478" y="190.523"/><use xlink:href="#ay" x="495.735" y="190.523"/><use xlink:href="#az" x="504.05" y="190.523"/><use xlink:href="#aB" x="506.452" y="190.523"/><use xlink:href="#aC" x="514.767" y="190.523"/><use xlink:href="#aD" x="523.081" y="190.523"/></g><g><use xlink:href="#aE" x="485.969" y="205.509"/><use xlink:href="#aF" x="494.284" y="205.509"/><use xlink:href="#R" x="502.599" y="205.509"/><use xlink:href="#bi" x="505.001" y="205.509"/><use xlink:href="#aH" x="509.759" y="205.509"/><use xlink:href="#aH" x="514.517" y="205.509"/><use xlink:href="#aI" x="519.275" y="205.509"/><use xlink:href="#aJ" x="527.59" y="205.509"/></g><g><use xlink:href="#R" x="57.586" y="231.738"/><use xlink:href="#bj" x="59.988" y="231.738"/><use xlink:href="#bk" x="68.303" y="231.738"/><use xlink:href="#bl" x="76.618" y="231.738"/><use xlink:href="#R" x="84.933" y="231.738"/><use xlink:href="#S" x="87.335" y="231.738"/><use xlink:href="#aP" x="95.65" y="231.738"/><use xlink:href="#aJ" x="103.965" y="231.738"/><use xlink:href="#bm" x="112.28" y="231.738"/></g><g><use xlink:href="#W" x="57.272" y="246.723"/><use xlink:href="#ao" x="59.988" y="246.723"/><use xlink:href="#bn" x="68.303" y="246.723"/><use xlink:href="#bo" x="76.618" y="246.723"/><use xlink:href="#aP" x="84.933" y="246.723"/><use xlink:href="#ak" x="93.248" y="246.723"/><use xlink:href="#al" x="101.563" y="246.723"/><use xlink:href="#aJ" x="109.878" y="246.723"/><use xlink:href="#ad" x="118.193" y="246.723"/></g><g><use xlink:href="#bp" x="147.221" y="231.738"/><use xlink:href="#bq" x="152.432" y="231.738"/><use xlink:href="#br" x="154.76" y="231.738"/><use xlink:href="#bs" x="161.846" y="231.738"/><use xlink:href="#R" x="167.315" y="231.738"/><use xlink:href="#bt" x="169.717" y="231.738"/><use xlink:href="#bu" x="178.032" y="231.738"/><use xlink:href="#bv" x="186.347" y="231.738"/><use xlink:href="#R" x="194.662" y="231.738"/><use xlink:href="#bw" x="197.064" y="231.738"/><use xlink:href="#bx" x="205.379" y="231.738"/><use xlink:href="#bx" x="213.694" y="231.738"/><use xlink:href="#by" x="222.009" y="231.738"/><use xlink:href="#R" x="230.324" y="231.738"/><use xlink:href="#bz" x="232.726" y="231.738"/><use xlink:href="#bA" x="241.04" y="231.738"/><use xlink:href="#bB" x="249.355" y="231.738"/><use xlink:href="#bC" x="257.67" y="231.738"/><use xlink:href="#bD" x="265.985" y="231.738"/><use xlink:href="#bE" x="274.3" y="231.738"/><use xlink:href="#R" x="282.615" y="231.738"/><use xlink:href="#bF" x="285.017" y="231.738"/><use xlink:href="#bG" x="293.332" y="231.738"/><use xlink:href="#bH" x="301.647" y="231.738"/><use xlink:href="#bI" x="309.962" y="231.738"/><use xlink:href="#R" x="318.277" y="231.738"/><use xlink:href="#ai" x="320.679" y="231.738"/><use xlink:href="#bJ" x="328.994" y="231.738"/><use xlink:href="#bK" x="337.308" y="231.738"/><use xlink:href="#bE" x="345.623" y="231.738"/><use xlink:href="#R" x="353.938" y="231.738"/><use xlink:href="#bL" x="356.34" y="231.738"/><use xlink:href="#bM" x="364.655" y="231.738"/><use xlink:href="#bN" x="372.97" y="231.738"/><use xlink:href="#R" x="381.285" y="231.738"/><use xlink:href="#bO" x="383.687" y="231.738"/><use xlink:href="#at" x="392.002" y="231.738"/><use xlink:href="#bB" x="400.317" y="231.738"/></g><g><use xlink:href="#bP" x="147.221" y="246.723"/><use xlink:href="#bQ" x="155.536" y="246.723"/><use xlink:href="#R" x="163.851" y="246.723"/><use xlink:href="#bR" x="166.253" y="246.723"/><use xlink:href="#bS" x="174.568" y="246.723"/><use xlink:href="#an" x="182.882" y="246.723"/><use xlink:href="#R" x="191.197" y="246.723"/><use xlink:href="#bT" x="193.599" y="246.723"/><use xlink:href="#aE" x="201.914" y="246.723"/><use xlink:href="#bU" x="210.229" y="246.723"/><use xlink:href="#bV" x="218.544" y="246.723"/><use xlink:href="#bW" x="226.859" y="246.723"/><use xlink:href="#R" x="235.174" y="246.723"/><use xlink:href="#aw" x="237.576" y="246.723"/><use xlink:href="#bX" x="245.891" y="246.723"/><use xlink:href="#am" x="254.206" y="246.723"/><use xlink:href="#R" x="262.521" y="246.723"/><use xlink:href="#bd" x="264.923" y="246.723"/><use xlink:href="#ao" x="273.238" y="246.723"/><use xlink:href="#R" x="281.552" y="246.723"/><use xlink:href="#bY" x="283.955" y="246.723"/><use xlink:href="#bZ" x="289.978" y="246.723"/><use xlink:href="#ca" x="293.11" y="246.723"/><use xlink:href="#cb" x="298.376" y="246.723"/><use xlink:href="#R" x="303.208" y="246.723"/><use xlink:href="#bZ" x="305.61" y="246.723"/></g><g><use xlink:href="#cc" x="308.641" y="246.723"/><use xlink:href="#cd" x="313.426" y="246.723"/><use xlink:href="#ce" x="318.831" y="246.723"/><use xlink:href="#cf" x="324.134" y="246.723"/><use xlink:href="#cg" x="328.125" y="246.723"/><use xlink:href="#ch" x="330.315" y="246.723"/><use xlink:href="#cg" x="333.382" y="246.723"/><use xlink:href="#ce" x="335.572" y="246.723"/><use xlink:href="#ci" x="340.875" y="246.723"/><use xlink:href="#cg" x="346.168" y="246.723"/><use xlink:href="#ci" x="348.358" y="246.723"/><use xlink:href="#cb" x="353.652" y="246.723"/><use xlink:href="#R" x="358.484" y="246.723"/><use xlink:href="#cj" x="360.886" y="246.723"/><use xlink:href="#R" x="369.201" y="246.723"/><use xlink:href="#ck" x="371.603" y="246.723"/><use xlink:href="#bT" x="379.918" y="246.723"/><use xlink:href="#aE" x="388.232" y="246.723"/></g><g><use xlink:href="#cl" x="490.478" y="231.738"/><use xlink:href="#ay" x="495.735" y="231.738"/><use xlink:href="#az" x="504.05" y="231.738"/><use xlink:href="#cm" x="506.452" y="231.738"/><use xlink:href="#cn" x="514.767" y="231.738"/><use xlink:href="#aD" x="523.081" y="231.738"/></g><g><use xlink:href="#aE" x="485.969" y="246.723"/><use xlink:href="#aF" x="494.284" y="246.723"/><use xlink:href="#R" x="502.599" y="246.723"/><use xlink:href="#co" x="505.001" y="246.723"/><use xlink:href="#aH" x="509.759" y="246.723"/><use xlink:href="#aH" x="514.517" y="246.723"/><use xlink:href="#aI" x="519.275" y="246.723"/><use xlink:href="#aJ" x="527.59" y="246.723"/></g><g><use xlink:href="#cp" x="161.461" y="89.889"/><use xlink:href="#cq" x="173.345" y="89.889"/><use xlink:href="#cr" x="178.45" y="89.889"/><use xlink:href="#cs" x="189.345" y="89.889"/><use xlink:href="#ct" x="195.655" y="89.889"/></g><g><use xlink:href="#cu" x="206.047" y="89.889"/><use xlink:href="#cv" x="216.133" y="89.889"/><use xlink:href="#cw" x="227.297" y="89.889"/><use xlink:href="#cx" x="234.488" y="89.889"/><use xlink:href="#cy" x="245.581" y="89.889"/></g><g><use xlink:href="#cu" x="252.844" y="89.889"/><use xlink:href="#cz" x="262.93" y="89.889"/><use xlink:href="#cA" x="267.604" y="89.889"/><use xlink:href="#cr" x="279.056" y="89.889"/><use xlink:href="#cB" x="289.951" y="89.889"/><use xlink:href="#cC" x="306.922" y="89.889"/><use xlink:href="#cu" x="318.14" y="89.889"/></g><g><use xlink:href="#cw" x="328.01" y="89.889"/><use xlink:href="#cq" x="335.202" y="89.889"/><use xlink:href="#cw" x="340.308" y="89.889"/><use xlink:href="#cq" x="347.499" y="89.889"/><use xlink:href="#cr" x="352.605" y="89.889"/><use xlink:href="#cv" x="363.499" y="89.889"/><use xlink:href="#cz" x="374.664" y="89.889"/><use xlink:href="#cD" x="379.338" y="89.889"/><use xlink:href="#cE" x="395.518" y="89.889"/><use xlink:href="#cF" x="411.699" y="89.889"/><use xlink:href="#cG" x="427.879" y="89.889"/></g></svg>