<svg xmlns="http://www.w3.org/2000/svg" xmlns:xlink="http://www.w3.org/1999/xlink" width="793.701" height="1122.52" viewBox="0 0 595.276 841.89" version="1.2"><defs><symbol overflow="visible" id="a"><path d="M1.578.188L.984-.25 2.25-1.969l-.188.032h-.109c-.43 0-.8-.165-1.11-.5A1.634 1.634 0 0 1 .392-3.61c0-.477.171-.891.515-1.235a1.69 1.69 0 0 1 1.235-.515c.488 0 .91.168 1.265.5.352.343.531.746.531 1.203 0 .418-.175.863-.515 1.328zm-.422-3.844a.97.97 0 0 0 .297.719.98.98 0 0 0 .703.28.96.96 0 0 0 .703-.28.963.963 0 0 0 .297-.704.998.998 0 0 0-.297-.718.976.976 0 0 0-.703-.282.996.996 0 0 0-.703.282.96.96 0 0 0-.297.703zm0 0"/></symbol><symbol overflow="visible" id="b"><path d="M1.75-.75h1.969V0H.172L2-2.219c.184-.215.336-.406.453-.562.121-.164.219-.305.281-.422.133-.207.204-.399.204-.578a.814.814 0 0 0-.266-.61.924.924 0 0 0-.64-.25c-.532 0-.84.317-.923.938H.33C.448-4.805 1.007-5.36 2-5.36c.488 0 .895.152 1.219.453.32.304.484.68.484 1.125 0 .293-.074.582-.219.86-.086.136-.199.304-.343.5-.149.198-.336.433-.563.702zm0 0"/></symbol><symbol overflow="visible" id="d"><path d="M1.453 0h.406l1.422-4.375h-.375l-.781 2.516c-.156.53-.281.937-.453 1.468H1.64c-.172-.53-.282-.937-.454-1.468l-.78-2.516H.03zm0 0"/></symbol><symbol overflow="visible" id="e"><path d="M.64 0H1v-4.375H.64zm0 0"/></symbol><symbol overflow="visible" id="f"><path d="M.75-.156c.156 0 .313-.11.313-.313A.317.317 0 0 0 .75-.797a.317.317 0 0 0-.313.328c0 .203.157.313.313.313zm0 0"/></symbol><symbol overflow="visible" id="h"><path d="M.594-4.547v.266h2.078C2.594-3.266 1.734-2.484.359-2.11l.125.265C2.047-2.28 3.016-3.25 3.016-4.547zm.875 3.234h2.656V.063H1.469zM1.14.329h3.312v-1.906H1.141zm4.14-3.86h-.828v-1.374h-.328v3.047h.328v-1.407h.828zm0 0"/></symbol><symbol overflow="visible" id="i"><path d="M2.016-4.422h-.313v1.063C1.703-2.391.984-1.375.281-1l.203.25c.579-.328 1.157-1.047 1.391-1.875.234.781.797 1.453 1.375 1.766l.203-.25c-.703-.36-1.437-1.329-1.437-2.25zm3.312 1.734h-.937v-2.218h-.313V.422h.313v-2.844h.937zm0 0"/></symbol><symbol overflow="visible" id="j"><path d="M2.078-4.5C1.25-4.5.672-4.016.672-3.281c0 .719.578 1.219 1.406 1.219s1.406-.5 1.406-1.22c0-.734-.578-1.218-1.406-1.218zm0 .281c.64 0 1.094.39 1.094.938 0 .547-.453.937-1.094.937-.64 0-1.094-.39-1.094-.937s.454-.938 1.094-.938zm2.219-.687V.422h.312v-5.328zM.422-.796c.969 0 2.297 0 3.531-.235l-.031-.235c-1.188.172-2.547.188-3.547.188zm0 0"/></symbol><symbol overflow="visible" id="k"><path d="M1.25-.703h3.297V-1.97H.937v.266h3.297v.734H.938V.344h3.75V.078H1.25zM4.39-2.86c.126-.641.126-1.125.126-1.485v-.343H.969v.28h3.234v.063c0 .36 0 .828-.125 1.485H.344v.265h4.828v-.265zm0 0"/></symbol><symbol overflow="visible" id="l"><path d="M.063.61h.28l1.985-5.782h-.281zm0 0"/></symbol><symbol overflow="visible" id="m"><path d="M4.86-4.266H2.905v-.687h-.312v.687h-2v.25h4.265zm-.766 1.5c0 .391-.532.625-1.36.625-.812 0-1.343-.234-1.343-.625 0-.39.53-.625 1.343-.625.829 0 1.36.235 1.36.625zm-3.032 0c0 .563.641.875 1.672.875 1.063 0 1.688-.312 1.688-.875 0-.546-.625-.875-1.688-.875-1.03 0-1.671.329-1.671.875zm4.11 1.313H.344v.266h2.25V.421h.312v-1.61h2.266zm0 0"/></symbol><symbol overflow="visible" id="n"><path d="M3.172-1.734v.265h1.14v.625h.313v-4.062h-.313v3.172zM2.047-4.422c.594 0 1 .266 1 .656 0 .407-.406.672-1 .672-.578 0-.985-.265-.985-.672 0-.39.407-.656.985-.656zm0 1.578c.781 0 1.297-.36 1.297-.922 0-.546-.516-.906-1.297-.906-.781 0-1.297.36-1.297.906 0 .563.516.922 1.297.922zm-.11 1.781h.313V-2.14a16.723 16.723 0 0 0 1.547-.156L3.78-2.53c-1.156.14-2.484.156-3.469.156l.047.266c.47 0 1 0 1.579-.016zM1.422.016V-1.25h-.313V.281h3.657V.016zm0 0"/></symbol><symbol overflow="visible" id="o"><path d="M2.047-4.063h1.25v-.28H.453v.28h1.281v.891c0 .922-.78 1.938-1.468 2.297l.203.25c.578-.313 1.187-1.047 1.422-1.86.234.75.796 1.422 1.375 1.735l.187-.266c-.703-.328-1.406-1.28-1.406-2.156zm3.281 1.375h-.937v-2.218h-.313V.422h.313v-2.844h.937zm0 0"/></symbol><symbol overflow="visible" id="p"><path d="M4.906-2.203c-.765-.156-2.015-.922-2.015-1.89v-.423h-.329v.422c0 .969-1.218 1.735-1.984 1.89l.14.267c.72-.172 1.688-.75 2.016-1.563.344.813 1.313 1.39 2.032 1.563zM2.891-.578v-1.36h-.313v1.36H.344v.265h4.828v-.265zm0 0"/></symbol><symbol overflow="visible" id="q"><path d="M.547-4.203v.266h1.75C2.234-2.813 1.703-1.72.375-.985l.188.234c1.546-.86 2.046-2.172 2.046-3.453zm3.984-.703v2.218h-.89v-2.078h-.297V.125h.297v-2.547h.89V.422h.297v-5.328zm0 0"/></symbol><symbol overflow="visible" id="r"><path d="M14.969-13.297H9.438v-1.734H7.062v1.734H1.5v1.86h13.469zm-3.5 5.36c0 .75-1.063 1.078-3.219 1.078-2.156 0-3.203-.329-3.203-1.079 0-.765 1.047-1.093 3.203-1.093 2.156 0 3.219.328 3.219 1.094zm-8.875 0c0 1.828 2.125 2.843 5.656 2.843 3.547 0 5.688-1.015 5.688-2.843 0-1.829-2.141-2.86-5.688-2.86-3.531 0-5.656 1.031-5.656 2.86zm13.172 3.64h-15v1.906h6.296v3.954h2.375v-3.954h6.329zm0 0"/></symbol><symbol overflow="visible" id="s"><path d="M9.219-5.39v1.609h3.125v1.312h2.375v-12.547h-2.375v9.625zm-3.172-7.344c1.094 0 1.86.437 1.86 1.25 0 .796-.766 1.218-1.86 1.218-1.125 0-1.89-.421-1.89-1.218 0-.813.765-1.25 1.89-1.25zm0 4.187c2.406 0 4.11-1.187 4.11-2.937 0-1.766-1.704-2.97-4.11-2.97-2.438 0-4.14 1.204-4.14 2.97 0 1.75 1.702 2.937 4.14 2.937zm-.89 7.922v-2.266h2.296v-3.14a33.285 33.285 0 0 0 3.953-.469l-.172-1.688c-3.484.454-7.515.485-10.53.516L1-5.797c1.25 0 2.64-.016 4.094-.078v2.203H2.78v4.938h12.297V-.625zm0 0"/></symbol><symbol overflow="visible" id="t"><path d="M6.86-11.469h3.28v-1.969H1.048v1.97h3.437v.905c0 2.735-1.359 5.844-4.078 7.11l1.344 1.89c1.89-.906 3.219-2.718 3.953-4.875.734 1.954 2.031 3.61 3.86 4.454l1.312-1.86C8.172-5.109 6.859-8.03 6.859-10.563zm9.296 2.766h-2.422v-6.313H11.36V1.547h2.375V-6.75h2.422zm0 0"/></symbol><symbol overflow="visible" id="v"><path d="M15.266-7.469c-3.782-.61-5.813-3.093-5.813-5.437v-1.188H6.922v1.188c0 2.297-2.047 4.828-5.781 5.437L2.109-5.5c2.891-.531 5-2.094 6.079-4.125C9.265-7.578 11.39-6.031 14.296-5.5zM9.39-2.312v-3.72H7.016v3.72H.766v1.906h15v-1.906zm0 0"/></symbol><symbol overflow="visible" id="w"><path d="M1.406-12.969v1.89h4.188C5.28-7.828 3.89-5.436.562-3.483l1.375 1.656c4.625-2.703 6-6.5 6-11.14zm11.297-2.047v6.235H11.22v-5.797H9.016V.844h2.203v-7.719h1.484v8.422h2.266v-16.563zm0 0"/></symbol><symbol overflow="visible" id="x"><path d="M.344-2.656A3.144 3.144 0 0 0 3.5.484a3.14 3.14 0 0 0 0-6.28 3.144 3.144 0 0 0-3.156 3.14zm6.062 0C6.406-1.046 5.094.266 3.5.266A2.927 2.927 0 0 1 .578-2.656a2.914 2.914 0 0 1 5.828 0zm-4.984 0c0 1.156.922 2.078 2.078 2.078 1.14 0 2.063-.922 2.063-2.078A2.064 2.064 0 0 0 3.5-4.734a2.067 2.067 0 0 0-2.078 2.078zm0 0"/></symbol><symbol overflow="visible" id="z"><path d="M1.344-1.64v.327h3.734V.484h.36V-1.64zM5.078-5.72V-2h.36v-3.719zm-2.937.375c-.922 0-1.563.594-1.563 1.453 0 .86.64 1.438 1.563 1.438.921 0 1.578-.578 1.578-1.438 0-.859-.656-1.453-1.578-1.453zm0 .328c.703 0 1.218.47 1.218 1.125 0 .641-.515 1.125-1.218 1.125-.704 0-1.22-.484-1.22-1.125 0-.656.516-1.125 1.22-1.125zm0 0"/></symbol><symbol overflow="visible" id="A"><path d="M3.11-2.828H1.062v-2.094h2.046zm1.968-1.516v.922h-1.61v-.922zm-1.61 1.235h1.61v1.078h.375V-5.72h-.375v1.063h-1.61v-.578H.704v2.703H3.47zM3.439.17c-1 0-1.657-.327-1.657-.843 0-.515.657-.844 1.657-.844 1.015 0 1.671.329 1.671.844 0 .516-.656.844-1.671.844zm0-2c-1.25 0-2.032.423-2.032 1.157 0 .735.782 1.14 2.032 1.14 1.265 0 2.03-.406 2.03-1.14 0-.734-.765-1.156-2.03-1.156zm0 0"/></symbol><symbol overflow="visible" id="B"><path d="M2.422-5.234c-.969 0-1.64.562-1.64 1.406 0 .86.671 1.422 1.64 1.422.953 0 1.625-.563 1.625-1.422 0-.844-.672-1.406-1.625-1.406zm0 .312c.734 0 1.265.469 1.265 1.094 0 .64-.53 1.11-1.265 1.11-.75 0-1.281-.47-1.281-1.11 0-.625.53-1.094 1.28-1.094zM5-5.719V.5h.375v-6.219zM.5-.937c1.125 0 2.672 0 4.094-.25l-.032-.297c-1.39.218-2.968.234-4.125.234zm0 0"/></symbol><symbol overflow="visible" id="C"><path d="M5.656-4.969H3.375v-.797h-.36v.797H.704v.297h4.953zm-.89 1.75c0 .453-.61.735-1.579.735-.953 0-1.562-.282-1.562-.735s.61-.719 1.563-.719c.968 0 1.578.266 1.578.72zm-3.516 0c0 .656.734 1.016 1.938 1.016 1.234 0 1.953-.36 1.953-1.016 0-.64-.72-1.015-1.954-1.015-1.203 0-1.937.375-1.937 1.015zm4.781 1.531H.391v.313h2.625V.5h.359v-1.875h2.656zm0 0"/></symbol><symbol overflow="visible" id="D"><path d="M3.688-2.016v.297h1.328v.735h.375v-4.72h-.375v3.688zM2.39-5.156c.687 0 1.156.328 1.156.781 0 .469-.469.781-1.156.781-.688 0-1.157-.312-1.157-.781 0-.453.47-.781 1.157-.781zm0 1.843c.906 0 1.5-.406 1.5-1.062s-.594-1.063-1.5-1.063c-.907 0-1.516.407-1.516 1.063 0 .656.61 1.063 1.516 1.063zM2.25-1.233h.375V-2.5c.594-.031 1.219-.078 1.797-.188l-.031-.265c-1.329.172-2.875.187-4.032.187l.047.313c.547 0 1.172 0 1.844-.031zM1.656.016v-1.47h-.36V.329h4.25V.016zm0 0"/></symbol><symbol overflow="visible" id="E"><path d="M2.375-4.734h1.453v-.329H.531v.329h1.485v1.046c0 1.063-.891 2.25-1.704 2.657l.235.312c.672-.375 1.375-1.219 1.64-2.172.282.875.954 1.657 1.626 2.016l.203-.297c-.813-.406-1.641-1.516-1.641-2.516zm3.828 1.609H5.11v-2.594H4.75V.484h.36v-3.296h1.093zm0 0"/></symbol><symbol overflow="visible" id="F"><path d="M.563-4.953v.312h1.046C1.58-3.547 1.33-2.266.47-1.266l.297.188c.968-1.188 1.156-2.688 1.156-3.875zM4.155-3.22h-.984c.094-.64.11-1.265.11-1.734H2.14v.312h.828c-.031 1.079-.156 2.704-1.125 3.844l.312.188c.547-.688.813-1.5.969-2.297h1.031V.14h.36v-5.688h-.36zm1.125-2.5V.484h.36v-6.203zm0 0"/></symbol><symbol overflow="visible" id="G"><path d="M3.375-.656v-1.766h1.969v-.312H1.516v-2.141h3.75v-.313H1.14v2.766h1.875v1.766H.39v.312h5.625v-.312zm0 0"/></symbol><symbol overflow="visible" id="H"><path d="M.688-5.297v.313h2.421C3.031-3.797 2.016-2.891.422-2.454l.156.313C2.391-2.64 3.5-3.78 3.5-5.297zM1.702-1.53h3.11v1.61h-3.11zM1.328.39h3.844v-2.235H1.328zm4.813-4.5h-.97v-1.61h-.359v3.563h.36v-1.64h.969zm0 0"/></symbol><symbol overflow="visible" id="I"><path d="M2.344-5.14h-.36v1.234c0 1.125-.828 2.312-1.656 2.734l.234.313c.688-.391 1.344-1.235 1.61-2.188.281.906.937 1.688 1.61 2.047l.234-.281c-.813-.422-1.672-1.547-1.672-2.625zm3.86 2.015H5.108v-2.594H4.75V.484h.36v-3.296h1.093zm0 0"/></symbol><symbol overflow="visible" id="J"><path d="M5.344-2.672H1.516v-2.125h3.75v-.312H1.14v2.75h4.203zM.39-.719v.313h5.625V-.72zm0 0"/></symbol><symbol overflow="visible" id="K"><path d="M4.172-3.016c-1.063.172-1.906.22-2.984.22h-.11v-1.032H3.5v-1.578H.703v.328h2.422v.953H.719v1.64h.469c1.093 0 1.953-.046 3.03-.218zM5.078.078H1.86v-.906h3.22zm0-1.219H1.86V-2H1.5V.39h3.938V-2h-.36zm0-4.562v3.36h.36v-3.36zm0 0"/></symbol><symbol overflow="visible" id="L"><path d="M1.188-1.484V-5.11h-.36v3.953h.485a15 15 0 0 0 3.046-.297l-.062-.328a14.312 14.312 0 0 1-2.984.297zM5.046-5.72V.484h.36v-6.203zm0 0"/></symbol><symbol overflow="visible" id="M"><path d="M1.047-1.406v-3.375h2.5v-.313H.672v4h.469c1.218 0 2.015-.031 2.984-.218l-.047-.329c-.937.188-1.734.235-2.937.235zm5.156-1.766H5.11v-2.547H4.75V.5h.36v-3.36h1.093zm0 0"/></symbol><symbol overflow="visible" id="N"><path d="M.875-.172c.172 0 .36-.14.36-.375 0-.25-.188-.39-.36-.39-.188 0-.36.14-.36.39 0 .235.172.375.36.375zm0 0"/></symbol><symbol overflow="visible" id="O"><path d="M.469 0h5.453v-1.36H4.156c-.375 0-.922.048-1.328.079 1.485-1.438 2.703-3.032 2.703-4.5 0-1.516-1.015-2.5-2.547-2.5-1.109 0-1.843.437-2.593 1.234l.89.875c.407-.453.89-.844 1.485-.844.765 0 1.218.5 1.218 1.329 0 1.25-1.296 2.78-3.515 4.75zm0 0"/></symbol><symbol overflow="visible" id="P"><path d="M3.234.156c1.657 0 2.75-1.453 2.75-4.25 0-2.797-1.093-4.187-2.75-4.187-1.656 0-2.75 1.375-2.75 4.187 0 2.797 1.094 4.25 2.75 4.25zm0-1.265c-.703 0-1.218-.704-1.218-2.985 0-2.281.515-2.937 1.218-2.937.704 0 1.22.656 1.22 2.937 0 2.282-.516 2.985-1.22 2.985zm0 0"/></symbol><symbol overflow="visible" id="Q"><path d="M.906 0h4.875v-1.313H4.266v-6.812H3.062c-.515.313-1.078.531-1.89.672v1H2.64v5.14H.906zm0 0"/></symbol><symbol overflow="visible" id="R"><path d="M7.484-1.734h1.454v-7.438H7.484v1.125H5.031v1.14h2.453v.75H5.031v1.141h2.453zM6.047-4.531c-1.25.218-2.36.297-3.594.312V-8.53H1.016v5.5h.812c1.516 0 2.86-.063 4.36-.328zM3.719-.391v-2H2.266V.766h6.89V-.391zm0 0"/></symbol><symbol overflow="visible" id="S"><path d="M3.078-4.156c-.703 0-1.156-.453-1.156-1.407 0-1 .5-1.5 1.094-1.5.703 0 1.25.547 1.406 2.032-.406.625-.906.875-1.344.875zm-2.5 3.39a3.053 3.053 0 0 0 2.219.922c1.625 0 3.125-1.328 3.125-4.406 0-2.828-1.39-4.031-2.922-4.031-1.39 0-2.563 1.047-2.563 2.719 0 1.718.985 2.546 2.329 2.546.562 0 1.25-.328 1.671-.89-.062 2.047-.828 2.734-1.734 2.734-.484 0-.984-.25-1.281-.562zm0 0"/></symbol><symbol overflow="visible" id="T"><path d="M3.234.156c1.641 0 2.735-.953 2.735-2.172 0-1.109-.625-1.78-1.36-2.187v-.047c.532-.39 1.032-1.063 1.032-1.86 0-1.296-.922-2.156-2.36-2.156-1.406 0-2.453.829-2.453 2.141 0 .86.453 1.484 1.078 1.922v.062c-.75.407-1.39 1.079-1.39 2.125C.516-.75 1.687.156 3.234.156zM3.75-4.64c-.86-.343-1.484-.718-1.484-1.484 0-.656.437-1.016.984-1.016.688 0 1.078.47 1.078 1.125 0 .485-.187.954-.578 1.375zM3.266-.984c-.75 0-1.36-.47-1.36-1.22 0-.593.313-1.14.75-1.5 1.063.438 1.797.782 1.797 1.626 0 .703-.5 1.094-1.187 1.094zm0 0"/></symbol><symbol overflow="visible" id="U"><path d="M2.047 0h1.64c.126-3.188.376-4.844 2.266-7.156v-.969H.547v1.344h3.656C2.656-4.625 2.187-2.828 2.047 0zm0 0"/></symbol><symbol overflow="visible" id="V"><path d="M3.438-1.063c-.688 0-1.235-.578-1.391-2.062.406-.625.89-.844 1.344-.844.703 0 1.14.438 1.14 1.406 0 .985-.484 1.5-1.093 1.5zm2.468-6.296c-.5-.5-1.234-.922-2.218-.922-1.641 0-3.141 1.297-3.141 4.328 0 2.86 1.375 4.11 2.922 4.11 1.39 0 2.547-1.048 2.547-2.72 0-1.75-.97-2.562-2.329-2.562-.53 0-1.234.328-1.671.875.078-2.031.843-2.734 1.78-2.734.47 0 .954.265 1.25.593zm0 0"/></symbol></defs><g fill="#898989"><use xlink:href="#a" x="28.312" y="819.169"/><use xlink:href="#b" x="32.591" y="819.169"/></g><g fill="#898989"><use xlink:href="#c" x="36.906" y="819.169"/><use xlink:href="#c" x="38.996" y="819.169"/></g><g fill="#595757"><use xlink:href="#d" x="491.753" y="818.993"/><use xlink:href="#e" x="494.929" y="818.993"/><use xlink:href="#e" x="496.439" y="818.993"/><use xlink:href="#f" x="497.949" y="818.993"/><use xlink:href="#g" x="499.334" y="818.993"/><use xlink:href="#h" x="500.892" y="818.993"/><use xlink:href="#i" x="506.285" y="818.993"/><use xlink:href="#j" x="511.679" y="818.993"/><use xlink:href="#g" x="517.072" y="818.993"/><use xlink:href="#k" x="518.63" y="818.993"/><use xlink:href="#l" x="524.024" y="818.993"/><use xlink:href="#m" x="526.271" y="818.993"/><use xlink:href="#n" x="531.664" y="818.993"/><use xlink:href="#o" x="537.058" y="818.993"/><use xlink:href="#g" x="542.451" y="818.993"/><use xlink:href="#p" x="544.009" y="818.993"/><use xlink:href="#q" x="549.403" y="818.993"/></g><path d="M537.637 776.496H45c-9.379 0-16.98-7.601-16.98-16.976V127.094h526.597V759.52c0 9.375-7.601 16.976-16.98 16.976zm0 0" fill="none" stroke-width=".2496975" stroke="#595757" stroke-miterlimit="10"/><use xlink:href="#r" x="248.351" y="101.281"/><use xlink:href="#s" x="264.531" y="101.281"/><use xlink:href="#t" x="280.711" y="101.281"/><use xlink:href="#u" x="296.892" y="101.281"/><use xlink:href="#v" x="301.566" y="101.281"/><use xlink:href="#w" x="317.746" y="101.281"/><use xlink:href="#x" x="27.896" y="791.56"/><use xlink:href="#y" x="34.747" y="791.56"/><use xlink:href="#z" x="36.565" y="791.56"/><use xlink:href="#A" x="42.857" y="791.56"/><use xlink:href="#B" x="49.15" y="791.56"/><use xlink:href="#y" x="55.442" y="791.56"/><use xlink:href="#C" x="57.26" y="791.56"/><use xlink:href="#D" x="63.552" y="791.56"/><use xlink:href="#E" x="69.845" y="791.56"/><use xlink:href="#F" x="76.137" y="791.56"/><use xlink:href="#G" x="82.429" y="791.56"/><use xlink:href="#y" x="88.722" y="791.56"/><use xlink:href="#H" x="90.539" y="791.56"/><use xlink:href="#I" x="96.832" y="791.56"/><use xlink:href="#J" x="103.124" y="791.56"/><use xlink:href="#K" x="109.417" y="791.56"/><use xlink:href="#L" x="115.709" y="791.56"/><use xlink:href="#M" x="122.001" y="791.56"/><use xlink:href="#N" x="128.294" y="791.56"/><g fill="#fff"><use xlink:href="#O" x="274.52" y="138.945"/><use xlink:href="#P" x="280.771" y="138.945"/><use xlink:href="#O" x="287.023" y="138.945"/><use xlink:href="#Q" x="293.274" y="138.945"/><use xlink:href="#R" x="299.526" y="138.945"/></g><g fill="#fff"><use xlink:href="#O" x="273.762" y="252.789"/><use xlink:href="#P" x="280.013" y="252.789"/><use xlink:href="#O" x="286.265" y="252.789"/><use xlink:href="#P" x="292.516" y="252.789"/><use xlink:href="#R" x="298.768" y="252.789"/></g><path d="M45.86 241.234h490.917" fill="none" stroke-width=".2496975" stroke="#000"/><g fill="#fff"><use xlink:href="#O" x="273.762" y="362.498"/><use xlink:href="#P" x="280.013" y="362.498"/><use xlink:href="#Q" x="286.265" y="362.498"/><use xlink:href="#S" x="292.516" y="362.498"/><use xlink:href="#R" x="298.768" y="362.498"/></g><path d="M45.86 350.941h490.917" fill="none" stroke-width=".2496975" stroke="#000"/><g fill="#fff"><use xlink:href="#O" x="273.762" y="487.071"/><use xlink:href="#P" x="280.013" y="487.071"/><use xlink:href="#Q" x="286.265" y="487.071"/><use xlink:href="#T" x="292.516" y="487.071"/><use xlink:href="#R" x="298.768" y="487.071"/></g><path d="M45.86 475.516h490.917" fill="none" stroke-width=".2496975" stroke="#000"/><g fill="#fff"><use xlink:href="#O" x="273.762" y="572.715"/><use xlink:href="#P" x="280.013" y="572.715"/><use xlink:href="#Q" x="286.265" y="572.715"/><use xlink:href="#U" x="292.516" y="572.715"/><use xlink:href="#R" x="298.768" y="572.715"/></g><path d="M45.86 561.156h490.917" fill="none" stroke-width=".2496975" stroke="#000"/><g fill="#fff"><use xlink:href="#O" x="273.762" y="685.963"/><use xlink:href="#P" x="280.013" y="685.963"/><use xlink:href="#Q" x="286.265" y="685.963"/><use xlink:href="#V" x="292.516" y="685.963"/><use xlink:href="#R" x="298.768" y="685.963"/></g><path d="M45.86 674.406h490.917" fill="none" stroke-width=".2496975" stroke="#000"/></svg>