<svg xmlns="http://www.w3.org/2000/svg" xmlns:xlink="http://www.w3.org/1999/xlink" width="793.701" height="1122.52" viewBox="0 0 595.276 841.89" version="1.2"><defs><symbol overflow="visible" id="a"><path d="M3.453-1.469h.563v.719h-.563V0h-.797v-.75H.062l3.391-4.922zm-.797 0v-1.765L1.437-1.47zm0 0"/></symbol><symbol overflow="visible" id="b"><path d="M1.219-2.75A1.28 1.28 0 0 1 .64-3.86c0-.425.144-.785.437-1.078.29-.277.66-.421 1.11-.421.433 0 .8.144 1.093.421.29.282.438.645.438 1.079 0 .46-.196.832-.578 1.109.207.117.375.285.5.5.113.219.171.465.171.734 0 .47-.152.856-.453 1.157-.304.293-.695.437-1.171.437-.493 0-.895-.144-1.204-.437C.66-.66.5-1.04.5-1.5c0-.59.238-1.008.719-1.25zm.172-1.11a.778.778 0 0 0 .78.797.773.773 0 0 0 .563-.234.776.776 0 0 0 0-1.11.79.79 0 0 0-1.125 0 .742.742 0 0 0-.218.548zM1.28-1.53c0 .25.082.46.25.625a.84.84 0 0 0 .625.265.883.883 0 0 0 .625-.25.887.887 0 0 0 .25-.625.835.835 0 0 0-.265-.625.844.844 0 0 0-.61-.25.831.831 0 0 0-.61.25.8.8 0 0 0-.265.61zm0 0"/></symbol><symbol overflow="visible" id="d"><path d="M.64 0H1v-4.375H.64zm0 0"/></symbol><symbol overflow="visible" id="e"><path d="M1.453 0h.406l1.422-4.375h-.375l-.781 2.516c-.156.53-.281.937-.453 1.468H1.64c-.172-.53-.282-.937-.454-1.468l-.78-2.516H.03zm0 0"/></symbol><symbol overflow="visible" id="f"><path d="M.75-.156c.156 0 .313-.11.313-.313A.317.317 0 0 0 .75-.797a.317.317 0 0 0-.313.328c0 .203.157.313.313.313zm0 0"/></symbol><symbol overflow="visible" id="h"><path d="M.266 0h2.64v-.313h-1.36c-.234 0-.484.016-.718.032 1.156-1.078 1.86-2 1.86-2.922 0-.75-.438-1.25-1.204-1.25-.53 0-.906.266-1.234.625l.219.219c.25-.313.594-.547.984-.547.61 0 .89.422.89.968 0 .797-.593 1.688-2.077 2.97zm0 0"/></symbol><symbol overflow="visible" id="i"><path d="M1.61.078c.796 0 1.28-.75 1.28-2.281 0-1.516-.484-2.25-1.28-2.25-.798 0-1.298.734-1.298 2.25C.313-.672.813.078 1.61.078zm0-.297c-.579 0-.938-.656-.938-1.984 0-1.297.36-1.953.937-1.953.563 0 .938.656.938 1.953 0 1.328-.375 1.984-.938 1.984zm0 0"/></symbol><symbol overflow="visible" id="j"><path d="M.547 0h2.265v-.313h-.921v-4.062h-.282c-.203.125-.468.219-.828.281v.235h.766v3.546h-1zm0 0"/></symbol><symbol overflow="visible" id="k"><path d="M4.36-.938h.327v-3.968H4.36v.75H2.72v.265h1.64v.766H2.72v.266h1.64zM3.405-2.28c-.875.156-1.61.203-2.36.203H.985V-4.5H.656v2.688h.39c.766 0 1.5-.032 2.391-.204zM1.656.016v-1.282h-.312V.281h3.5V.016zm0 0"/></symbol><symbol overflow="visible" id="l"><path d="M2.016-4.422h-.313v1.063C1.703-2.391.984-1.375.281-1l.203.25c.579-.328 1.157-1.047 1.391-1.875.234.781.797 1.453 1.375 1.766l.203-.25c-.703-.36-1.437-1.329-1.437-2.25zm3.312 1.734h-.937v-2.218h-.313V.422h.313v-2.844h.937zm0 0"/></symbol><symbol overflow="visible" id="m"><path d="M4.36.078H1.671v-.812h2.687zM4.36-1H1.671v-.766h-.328v2.11h3.343v-2.11H4.36zM1.78-2.5c-.61 0-1.047-.406-1.047-.938 0-.546.438-.937 1.047-.937.61 0 1.047.39 1.047.938 0 .53-.437.937-1.047.937zM4.36-4.906v1.312H3.125c-.078-.64-.61-1.062-1.344-1.062-.797 0-1.343.5-1.343 1.218 0 .72.546 1.22 1.343 1.22.75 0 1.282-.438 1.344-1.095h1.234v1.266h.329v-2.86zm0 0"/></symbol><symbol overflow="visible" id="n"><path d="M1.266-3.203H4.25v1.11H1.266zm1.64 2.64v-1.25h1.656v-2.703H4.25v1.032H1.266v-1.032H.937v2.704h1.657v1.25H.344v.265h4.828v-.266zm0 0"/></symbol><symbol overflow="visible" id="o"><path d="M4.188-3.781c0 .64 0 1.36-.188 2.36l.328.046c.188-1.047.188-1.766.188-2.406v-.531H.859v.25h3.329zM2.625-.671V-2.61h-.313v1.937H.345v.281h4.812v-.28zm0 0"/></symbol><symbol overflow="visible" id="p"><path d="M.516 0h5.937v-1.484H4.531c-.406 0-1 .046-1.437.093 1.61-1.578 2.953-3.312 2.953-4.906 0-1.656-1.125-2.734-2.797-2.734-1.219 0-2 .469-2.813 1.344l.954.953c.437-.485.984-.907 1.625-.907.843 0 1.328.532 1.328 1.438 0 1.36-1.422 3.031-3.828 5.187zm0 0"/></symbol><symbol overflow="visible" id="q"><path d="M3.531.172c1.797 0 3-1.594 3-4.64 0-3.063-1.203-4.563-3-4.563-1.812 0-3 1.5-3 4.562 0 3.047 1.188 4.64 3 4.64zm0-1.375c-.765 0-1.344-.781-1.344-3.266 0-2.484.579-3.203 1.344-3.203.766 0 1.328.719 1.328 3.203 0 2.485-.562 3.266-1.328 3.266zm0 0"/></symbol><symbol overflow="visible" id="r"><path d="M.984 0h5.329v-1.422H4.655v-7.453H3.344c-.563.36-1.172.578-2.063.75v1.094h1.61v5.61H.984zm0 0"/></symbol><symbol overflow="visible" id="w"><path d="M1.094 0h1.765v-8.875H1.094zm0 0"/></symbol><symbol overflow="visible" id="x"><path d="M.953 0h1.75v-4.61c.5-.5.844-.765 1.39-.765.657 0 .954.375.954 1.406V0h1.766v-4.188c0-1.687-.625-2.687-2.079-2.687-.906 0-1.593.469-2.187 1.047H2.5l-.11-.89H.954zm0 0"/></symbol><symbol overflow="visible" id="y"><path d="M3.406.172c.578 0 1.047-.14 1.406-.25l-.28-1.281c-.188.062-.438.14-.657.14-.61 0-.922-.36-.922-1.125v-2.984H4.61v-1.39H2.953v-1.798H1.484l-.203 1.797-1.031.094v1.297h.953v2.984c0 1.5.61 2.516 2.203 2.516zm0 0"/></symbol><symbol overflow="visible" id="z"><path d="M3.86.172c.843 0 1.687-.297 2.343-.75L5.61-1.656c-.484.297-.953.468-1.515.468-.985 0-1.703-.578-1.86-1.671h4.141c.047-.157.078-.485.078-.813 0-1.86-.953-3.203-2.797-3.203-1.61 0-3.125 1.344-3.125 3.531C.531-1.14 1.984.172 3.86.172zM2.218-4.031c.125-.985.75-1.485 1.453-1.485.875 0 1.281.579 1.281 1.485zm0 0"/></symbol><symbol overflow="visible" id="A"><path d="M.953 0h1.75v-4c.375-.969 1.016-1.328 1.547-1.328.266 0 .453.047.688.11l.312-1.516a2.022 2.022 0 0 0-.797-.141c-.687 0-1.406.469-1.906 1.344H2.5L2.39-6.72H.954zm0 0"/></symbol><symbol overflow="visible" id="B"><path d="M2.594.172c.781 0 1.437-.39 2.031-.89h.031l.14.718h1.438v-3.922c0-1.937-.875-2.953-2.578-2.953-1.062 0-2.015.39-2.812.89l.64 1.157c.625-.36 1.22-.64 1.844-.64.828 0 1.125.5 1.14 1.171C1.782-4.016.61-3.266.61-1.828c0 1.14.797 2 1.985 2zm.578-1.375c-.516 0-.89-.234-.89-.766 0-.593.562-1.047 2.187-1.25v1.344c-.422.422-.797.672-1.297.672zm0 0"/></symbol><symbol overflow="visible" id="C"><path d="M.953 0h1.75v-6.719H.953zm.875-7.797c.61 0 1.047-.406 1.047-.953 0-.578-.438-.953-1.047-.953-.61 0-1.047.375-1.047.953 0 .547.438.953 1.047.953zm0 0"/></symbol><symbol overflow="visible" id="D"><path d="M3.75.172c1.672 0 3.219-1.297 3.219-3.516 0-2.234-1.547-3.531-3.219-3.531S.531-5.578.531-3.344C.531-1.125 2.078.172 3.75.172zm0-1.438c-.906 0-1.422-.812-1.422-2.078 0-1.265.516-2.094 1.422-2.094.906 0 1.422.829 1.422 2.094 0 1.266-.516 2.078-1.422 2.078zm0 0"/></symbol><symbol overflow="visible" id="E"><path d="M2.594.172c.422 0 .719-.078.922-.156l-.22-1.313c-.124.031-.171.031-.233.031-.172 0-.36-.14-.36-.53v-7.766H.953v7.687c0 1.234.422 2.047 1.64 2.047zm0 0"/></symbol><symbol overflow="visible" id="G"><path d="M1.094 0h1.765v-3.594h3.157v-1.484H2.859v-2.313h3.704v-1.484h-5.47zm0 0"/></symbol><symbol overflow="visible" id="H"><path d="M2.938.172c.921 0 1.562-.453 2.14-1.125h.047l.14.953h1.438v-6.719H4.937v4.532c-.453.609-.812.843-1.359.843-.656 0-.937-.36-.937-1.406v-3.969H.875v4.203C.875-.844 1.5.172 2.938.172zm0 0"/></symbol><symbol overflow="visible" id="I"><path d="M.953 0h1.75v-4.61c.469-.515.906-.765 1.281-.765.641 0 .938.375.938 1.406V0h1.766v-4.61c.484-.515.906-.765 1.296-.765.625 0 .938.375.938 1.406V0h1.75v-4.188c0-1.687-.656-2.687-2.078-2.687-.875 0-1.516.516-2.14 1.172-.313-.75-.876-1.172-1.845-1.172-.875 0-1.5.469-2.062 1.063H2.5l-.11-.907H.954zm0 0"/></symbol><symbol overflow="visible" id="J"><path d="M1.094 0h1.593v-3.703c0-.844-.14-2.078-.234-2.906H2.5l.719 2.078L4.594-.797h1.015L6.97-4.53l.718-2.078h.047c-.078.828-.203 2.062-.203 2.906V0h1.61v-8.875H7.17L5.704-4.719c-.187.547-.344 1.14-.531 1.703h-.063c-.187-.562-.359-1.156-.546-1.703l-1.5-4.156h-1.97zm0 0"/></symbol><symbol overflow="visible" id="K"><path d="M3.313.172c.687 0 1.359-.39 1.859-.86h.031l.14.688h1.423v-9.563h-1.75v2.36l.062 1.062c-.469-.453-.937-.734-1.703-.734-1.453 0-2.813 1.344-2.813 3.531 0 2.188 1.079 3.516 2.75 3.516zm.453-1.453c-.891 0-1.391-.703-1.391-2.094 0-1.328.64-2.047 1.39-2.047.422 0 .844.125 1.25.5v2.938c-.39.515-.78.703-1.25.703zm0 0"/></symbol><symbol overflow="visible" id="L"><path d="M3.797.172c.75 0 1.562-.25 2.187-.813l-.687-1.171c-.375.312-.828.546-1.313.546-.968 0-1.656-.812-1.656-2.078 0-1.265.688-2.094 1.703-2.094.39 0 .703.157 1.032.438l.843-1.14a2.9 2.9 0 0 0-1.953-.735C2.141-6.875.531-5.578.531-3.344.531-1.125 1.937.172 3.797.172zm0 0"/></symbol><symbol overflow="visible" id="M"><path d="M2.453 0H4.5l2.234-6.719H5.047l-.984 3.344c-.172.672-.375 1.36-.547 2.047h-.047c-.188-.688-.375-1.375-.547-2.047l-.985-3.344H.173zm0 0"/></symbol><symbol overflow="visible" id="N"><path d="M4.86-9.484a3.51 3.51 0 0 0-1.282-.25c-1.687 0-2.328 1.078-2.328 2.484v.547l-.906.078v1.297h.906V0h1.766v-5.328h1.25v-1.39h-1.25v-.563c0-.75.28-1.063.812-1.063.203 0 .469.063.703.14zm0 0"/></symbol><symbol overflow="visible" id="O"><path d="M4.703.172c1.156 0 2.11-.453 2.828-1.313L6.61-2.234c-.484.515-1.078.875-1.843.875-1.391 0-2.313-1.172-2.313-3.094 0-1.906 1.016-3.063 2.36-3.063.671 0 1.171.313 1.625.75l.937-1.125c-.578-.609-1.484-1.14-2.61-1.14-2.234 0-4.124 1.703-4.124 4.64C.64-1.437 2.469.172 4.703.172zm0 0"/></symbol><symbol overflow="visible" id="P"><path d="M2.031-2.453c0-.485.313-.875.735-1.25.562.75 1.25 1.453 2 2.078-.422.266-.86.438-1.297.438-.844 0-1.438-.516-1.438-1.266zm.89-4.328c0-.657.376-1.078.892-1.078.468 0 .671.328.671.765 0 .64-.546 1.078-1.234 1.5-.203-.422-.328-.812-.328-1.187zM8.61-1.266c-.453-.093-.984-.312-1.562-.64.687-.922 1.172-1.953 1.5-3.047H6.953a6.432 6.432 0 0 1-1.094 2.25 11.34 11.34 0 0 1-1.921-1.844c.953-.656 1.906-1.39 1.906-2.562 0-1.157-.797-1.922-2.063-1.922-1.422 0-2.312 1.015-2.312 2.25 0 .578.203 1.25.562 1.922C1.141-4.297.36-3.58.36-2.344.36-.969 1.406.172 3.266.172c1.078 0 1.984-.36 2.718-.938.735.47 1.5.782 2.204.938zm0 0"/></symbol><symbol overflow="visible" id="Q"><path d="M1.094 0H4.25c1.953 0 3.438-.828 3.438-2.61 0-1.203-.704-1.874-1.657-2.093v-.063c.75-.265 1.203-1.109 1.203-1.921 0-1.657-1.39-2.188-3.203-2.188H1.094zm1.765-5.266v-2.25h1.063c1.062 0 1.594.313 1.594 1.094 0 .703-.5 1.156-1.625 1.156zm0 3.907v-2.579h1.235c1.234 0 1.875.36 1.875 1.22 0 .921-.657 1.359-1.875 1.359zm0 0"/></symbol><symbol overflow="visible" id="R"><path d="M2.86 0h1.765v-7.39h2.516v-1.485H.359v1.484h2.5zm0 0"/></symbol><symbol overflow="visible" id="S"><path d="M.953 0h1.75v-4.61c.5-.5.844-.765 1.39-.765.657 0 .954.375.954 1.406V0h1.766v-4.188c0-1.687-.625-2.687-2.079-2.687-.906 0-1.578.469-2.109.984l.078-1.265v-2.407H.953zm0 0"/></symbol><symbol overflow="visible" id="T"><path d="M.953 2.578h1.75V.547l-.047-1.11c.5.47 1.078.735 1.656.735 1.47 0 2.86-1.328 2.86-3.64 0-2.063-.984-3.407-2.64-3.407-.72 0-1.423.375-1.985.86H2.5l-.11-.704H.954zm2.969-3.86c-.36 0-.797-.14-1.219-.5v-2.952c.453-.47.875-.688 1.328-.688.922 0 1.328.703 1.328 1.984 0 1.454-.625 2.157-1.437 2.157zm0 0"/></symbol><symbol overflow="visible" id="U"><path d="M1.531 2.703c1.5 0 2.219-.922 2.813-2.5l2.375-6.922H5.03L4.11-3.594c-.156.625-.328 1.266-.484 1.89h-.047c-.203-.64-.36-1.296-.562-1.89L1.937-6.719H.173l2.61 6.594-.126.406c-.187.578-.578 1.016-1.25 1.016-.156 0-.36-.047-.468-.094l-.329 1.36a2.6 2.6 0 0 0 .922.14zm0 0"/></symbol><symbol overflow="visible" id="t"><path d="M2.203.11c1.094 0 2.063-.75 2.063-2.079 0-1.281-.829-1.875-1.813-1.875-.265 0-.484.063-.719.172l.125-1.25H4v-.984H.844l-.172 2.86.547.358C1.562-2.921 1.75-3 2.094-3c.61 0 1 .375 1 1.063 0 .703-.422 1.093-1.047 1.093-.547 0-.969-.281-1.297-.594l-.547.75c.438.438 1.063.797 2 .797zm0 0"/></symbol><symbol overflow="visible" id="u"><path d="M2.266.11c.39 0 .703-.079.937-.172l-.187-.844a1.368 1.368 0 0 1-.438.094c-.39 0-.61-.235-.61-.75v-1.985h1.11v-.922h-1.11v-1.203H.985L.86-4.469l-.687.047v.875h.625v1.985c0 1 .406 1.671 1.469 1.671zm0 0"/></symbol><symbol overflow="visible" id="v"><path d="M.625 0h1.172v-3.078c.328-.328.562-.5.937-.5.438 0 .625.25.625.937V0h1.172v-2.781c0-1.125-.406-1.797-1.375-1.797-.61 0-1.047.312-1.406.656l.047-.844v-1.609H.625zm0 0"/></symbol><symbol overflow="visible" id="V"><path d="M2.297-3.047l.219-.812c.218-.766.437-1.61.625-2.407h.046c.22.797.422 1.641.641 2.407l.219.812zM4.89 0h1.546L4.063-7.39H2.329L-.047 0h1.5l.531-1.89h2.391zm0 0"/></symbol><symbol overflow="visible" id="W"><path d="M.906 0h2.64c1.626 0 2.86-.688 2.86-2.172 0-1-.578-1.562-1.39-1.75v-.047c.64-.219 1.015-.922 1.015-1.61 0-1.374-1.156-1.812-2.672-1.812H.906zm1.485-4.39v-1.876h.875c.89 0 1.328.266 1.328.907 0 .593-.407.968-1.344.968zm0 3.25v-2.141h1.03c1.017 0 1.548.297 1.548 1.015 0 .766-.547 1.125-1.547 1.125zm0 0"/></symbol><symbol overflow="visible" id="X"><path d="M3.11.14c1.718 0 2.718-1.03 2.718-2.234 0-1.078-.594-1.64-1.484-2.015l-.969-.407c-.625-.25-1.156-.437-1.156-.968 0-.485.422-.782 1.062-.782.61 0 1.11.22 1.578.61l.735-.922C5-7.188 4.14-7.531 3.28-7.531c-1.5 0-2.547.937-2.547 2.14 0 1.079.75 1.672 1.485 1.985l1 .422c.656.28 1.11.453 1.11 1 0 .515-.423.843-1.188.843-.641 0-1.344-.328-1.875-.812L.422-.937A3.93 3.93 0 0 0 3.109.14zm0 0"/></symbol><symbol overflow="visible" id="Y"><path d="M2.375 0h1.484v-6.156h2.094v-1.235H.297v1.235h2.078zm0 0"/></symbol><symbol overflow="visible" id="Z"><path d="M2.39-6.219h.954c.953 0 1.469.266 1.469 1.063 0 .797-.516 1.187-1.47 1.187h-.952zM6.579 0L4.86-3.031c.844-.328 1.407-1.016 1.407-2.125 0-1.688-1.235-2.235-2.782-2.235H.906V0h1.485v-2.797h1.03L4.939 0zm0 0"/></symbol><symbol overflow="visible" id="aa"><path d="M3.922.14c.953 0 1.75-.374 2.36-1.093L5.5-1.86c-.39.421-.89.718-1.531.718-1.156 0-1.922-.968-1.922-2.578 0-1.578.844-2.547 1.953-2.547.563 0 1 .266 1.36.625l.78-.937c-.484-.5-1.234-.953-2.171-.953-1.86 0-3.422 1.437-3.422 3.86C.547-1.204 2.062.14 3.922.14zm0 0"/></symbol><symbol overflow="visible" id="ab"><path d="M1.703 0h1.484v-6.531c0-1.313-.109-2.64-.187-3.89h.078L4.422-7.86 8.953 0h1.61v-12.453h-1.5v6.469c0 1.296.124 2.687.218 3.953h-.094L7.86-4.61l-4.53-7.844H1.702zm0 0"/></symbol><symbol overflow="visible" id="ac"><path d="M5.281.219c1.25 0 2.25-.422 3.063-.953L7.78-1.75c-.687.453-1.406.734-2.312.734-1.75 0-2.953-1.265-3.063-3.234h6.219c.031-.219.078-.547.078-.875 0-2.64-1.328-4.328-3.672-4.328C2.891-9.453.86-7.593.86-4.61.86-1.563 2.844.219 5.281.219zm-2.89-5.563c.187-1.828 1.343-2.875 2.656-2.875 1.437 0 2.297 1 2.297 2.875zm0 0"/></symbol><symbol overflow="visible" id="ad"><path d="M3.016 0h1.828l1.281-4.938c.25-.89.438-1.75.64-2.687h.079c.218.938.39 1.781.625 2.656L8.812 0h1.876l2.468-9.219h-1.453l-1.36 5.328c-.202.891-.374 1.72-.577 2.579h-.063c-.219-.86-.422-1.688-.656-2.579L7.609-9.219H6.094L4.672-3.89c-.234.875-.422 1.72-.625 2.579h-.094c-.172-.86-.36-1.688-.547-2.579L2.031-9.219H.453zm0 0"/></symbol><symbol overflow="visible" id="af"><path d="M1.703 0h3.188c3.75 0 5.812-2.328 5.812-6.266 0-3.953-2.062-6.187-5.875-6.187H1.703zm1.578-1.297v-9.875h1.406c2.938 0 4.375 1.75 4.375 4.906 0 3.141-1.437 4.97-4.374 4.97zm0 0"/></symbol><symbol overflow="visible" id="ag"><path d="M1.563 0h1.546v-5.922C3.72-7.5 4.672-8.047 5.438-8.047c.375 0 .593.031.89.156l.297-1.359c-.297-.156-.578-.203-.984-.203-1.032 0-1.97.734-2.625 1.906h-.047l-.125-1.672H1.563zm0 0"/></symbol><symbol overflow="visible" id="ah"><path d="M4.25.219c1.266 0 2.188-.656 3.047-1.657h.062L7.47 0h1.297v-9.219H7.219v6.531c-.89 1.11-1.547 1.563-2.5 1.563-1.219 0-1.735-.719-1.735-2.438v-5.656H1.438v5.844c0 2.344.875 3.594 2.812 3.594zm0 0"/></symbol><symbol overflow="visible" id="ai"><path d="M4.672 4.25c2.86 0 4.656-1.484 4.656-3.203 0-1.5-1.078-2.188-3.219-2.188H4.313c-1.235 0-1.61-.406-1.61-1 0-.515.25-.812.594-1.109.406.203.922.328 1.375.328 1.86 0 3.36-1.234 3.36-3.203 0-.797-.298-1.484-.75-1.906h1.89V-9.22H5.969a3.701 3.701 0 0 0-1.297-.234c-1.875 0-3.469 1.265-3.469 3.281 0 1.11.594 2 1.203 2.484v.063c-.469.344-1.031.953-1.031 1.719 0 .734.36 1.234.844 1.515v.063C1.359.234.844.984.844 1.766c0 1.593 1.562 2.484 3.828 2.484zm0-8.219c-1.078 0-1.969-.86-1.969-2.203 0-1.36.875-2.156 1.969-2.156 1.078 0 1.953.828 1.953 2.156 0 1.344-.906 2.203-1.953 2.203zm.219 7.156c-1.688 0-2.688-.64-2.688-1.624 0-.547.297-1.094.953-1.563.406.11.86.156 1.188.156h1.593c1.235 0 1.891.281 1.891 1.14 0 .97-1.172 1.891-2.937 1.891zm0 0"/></symbol><symbol overflow="visible" id="aj"><path d="M3.281-11.172H5.36c1.954 0 3.032.578 3.032 2.219 0 1.61-1.079 2.39-3.032 2.39H3.281zM10.328 0L7.141-5.453c1.687-.406 2.812-1.563 2.812-3.5 0-2.594-1.812-3.5-4.344-3.5H1.703V0h1.578v-5.281h2.235L8.546 0zm0 0"/></symbol><symbol overflow="visible" id="ak"><path d="M3.969.219c2.172 0 3.375-1.235 3.375-2.735 0-1.75-1.485-2.296-2.828-2.796-1.032-.391-2.032-.72-2.032-1.594 0-.719.516-1.328 1.672-1.328.844 0 1.485.343 2.125.812l.75-1c-.734-.562-1.734-1.031-2.875-1.031-2 0-3.172 1.14-3.172 2.61 0 1.562 1.47 2.187 2.75 2.671 1.016.39 2.11.813 2.11 1.75 0 .797-.594 1.438-1.813 1.438-1.11 0-1.937-.438-2.734-1.094L.53-1.047C1.406-.328 2.671.22 3.97.22zm0 0"/></symbol><symbol overflow="visible" id="al"><path d="M3.688.219c1.14 0 2.171-.594 3.062-1.328h.047L6.922 0h1.281v-5.672c0-2.281-.953-3.781-3.187-3.781-1.485 0-2.797.656-3.641 1.203l.61 1.063c.734-.485 1.702-.985 2.765-.985 1.516 0 1.906 1.14 1.906 2.328C2.734-5.406.984-4.406.984-2.39.984-.734 2.141.22 3.688.22zm.437-1.235C3.203-1.016 2.5-1.437 2.5-2.5c0-1.188 1.047-1.953 4.156-2.328v2.594c-.906.796-1.625 1.218-2.531 1.218zm0 0"/></symbol><symbol overflow="visible" id="am"><path d="M5.203.219A4.39 4.39 0 0 0 8.172-.953L7.5-1.984c-.578.53-1.313.921-2.172.921-1.687 0-2.844-1.421-2.844-3.546 0-2.11 1.22-3.563 2.875-3.563.75 0 1.313.344 1.86.828l.797-1.031c-.657-.578-1.5-1.078-2.704-1.078C2.954-9.453.86-7.672.86-4.61.86-1.547 2.75.219 5.203.219zm0 0"/></symbol><symbol overflow="visible" id="an"><path d="M1.563 0h1.546v-6.688c.938-.937 1.579-1.421 2.532-1.421 1.218 0 1.75.734 1.75 2.468V0h1.546v-5.844c0-2.36-.89-3.61-2.828-3.61-1.25 0-2.203.688-3.046 1.532l.046-1.89v-3.704H1.563zm0 0"/></symbol><symbol overflow="visible" id="ao"><path d="M1.563 0h1.546v-6.688c.938-.937 1.579-1.421 2.532-1.421 1.218 0 1.75.734 1.75 2.468V0h1.546v-5.844c0-2.36-.89-3.61-2.828-3.61-1.25 0-2.203.688-3.093 1.563h-.047l-.125-1.328H1.563zm0 0"/></symbol><symbol overflow="visible" id="ap"><path d="M4.703.219c1.11 0 2.078-.594 2.797-1.313h.047L7.687 0h1.266v-13.516H7.406v3.547l.078 1.594c-.812-.672-1.5-1.078-2.593-1.078-2.11 0-3.985 1.86-3.985 4.844C.906-1.531 2.391.219 4.703.219zm.344-1.282C3.407-1.063 2.5-2.39 2.5-4.624c0-2.094 1.172-3.531 2.656-3.531.766 0 1.469.281 2.25.969v4.843c-.765.844-1.515 1.281-2.36 1.281zm0 0"/></symbol><symbol overflow="visible" id="aq"><path d="M3.547 0h1.797l3.281-9.219H7.094l-1.75 5.25c-.266.89-.578 1.844-.844 2.719h-.063c-.296-.875-.578-1.828-.875-2.719l-1.734-5.25H.218zm0 0"/></symbol><symbol overflow="visible" id="ar"><path d="M3.188.219c.406 0 .687-.047.906-.14L3.875-1.11c-.172.046-.234.046-.328.046-.235 0-.438-.187-.438-.671v-11.782H1.563v11.688c0 1.297.468 2.047 1.625 2.047zm0 0"/></symbol><symbol overflow="visible" id="as"><path d="M5.14.219c2.266 0 4.282-1.766 4.282-4.828 0-3.063-2.016-4.844-4.281-4.844C2.89-9.453.859-7.672.859-4.61.86-1.547 2.891.219 5.141.219zm0-1.282c-1.593 0-2.656-1.421-2.656-3.546 0-2.11 1.063-3.563 2.657-3.563 1.609 0 2.687 1.453 2.687 3.563 0 2.125-1.078 3.546-2.687 3.546zm0 0"/></symbol><symbol overflow="visible" id="at"><path d="M1.563 3.89h1.546V.767l-.03-1.61C3.905-.172 4.796.22 5.624.22c2.125 0 4-1.813 4-4.969 0-2.844-1.281-4.703-3.656-4.703-1.078 0-2.11.61-2.953 1.281h-.047l-.125-1.047H1.563zm3.796-4.953c-.609 0-1.421-.265-2.25-.968v-4.844c.907-.844 1.704-1.281 2.485-1.281 1.75 0 2.422 1.375 2.422 3.422 0 2.28-1.125 3.671-2.657 3.671zm0 0"/></symbol><symbol overflow="visible" id="au"><path d="M1.563 0h1.546v-6.688c.844-.953 1.625-1.421 2.329-1.421 1.171 0 1.718.734 1.718 2.468V0h1.547v-6.688c.86-.953 1.61-1.421 2.313-1.421 1.171 0 1.718.734 1.718 2.468V0h1.547v-5.844c0-2.36-.89-3.61-2.797-3.61-1.125 0-2.093.72-3.046 1.767-.376-1.094-1.141-1.766-2.547-1.766-1.094 0-2.063.687-2.875 1.578h-.047l-.125-1.344H1.563zm0 0"/></symbol><symbol overflow="visible" id="av"><path d="M4.469.219c.562 0 1.172-.172 1.703-.344l-.313-1.156c-.312.125-.734.25-1.046.25-1.079 0-1.438-.657-1.438-1.782v-5.156h2.5v-1.25h-2.5v-2.578H2.094l-.188 2.578-1.453.078v1.172h1.375v5.11C1.828-1 2.5.219 4.468.219zm0 0"/></symbol><symbol overflow="visible" id="aw"><path d="M5.156.219c2.61 0 4.235-1.563 4.235-3.531 0-1.844-1.125-2.704-2.563-3.329l-1.781-.765c-.969-.407-2.063-.86-2.063-2.078 0-1.11.922-1.829 2.329-1.829 1.156 0 2.078.454 2.843 1.172l.828-1c-.875-.921-2.187-1.546-3.671-1.546-2.25 0-3.922 1.39-3.922 3.312 0 1.813 1.375 2.703 2.53 3.188l1.798.78c1.172.532 2.078.938 2.078 2.22 0 1.218-.984 2.03-2.61 2.03-1.296 0-2.562-.609-3.453-1.546L.797-1.625A5.993 5.993 0 0 0 5.157.219zm0 0"/></symbol><symbol overflow="visible" id="ax"><path d="M1.719 3.969c1.828 0 2.781-1.39 3.422-3.203L8.625-9.22H7.109L5.47-4.094c-.25.813-.532 1.75-.782 2.578H4.61c-.296-.828-.625-1.78-.89-2.578l-1.89-5.125H.218L3.922.016l-.203.703c-.375 1.125-1.031 1.984-2.094 1.984-.234 0-.5-.094-.688-.156L.625 3.78c.297.125.656.188 1.094.188zm0 0"/></symbol><symbol overflow="visible" id="ay"><path d="M1.563 0h1.546v-9.219H1.563zm.78-11.125c.61 0 1.063-.422 1.063-1 0-.625-.453-1-1.062-1-.61 0-1.063.375-1.063 1 0 .578.453 1 1.063 1zm0 0"/></symbol><symbol overflow="visible" id="az"><path d="M1.703 0h1.578v-4.938h2.047c2.719 0 4.594-1.234 4.594-3.859 0-2.719-1.875-3.656-4.672-3.656H1.703zm1.578-6.219v-4.953h1.781c2.188 0 3.297.578 3.297 2.375 0 1.781-1.046 2.578-3.234 2.578zm0 0"/></symbol><symbol overflow="visible" id="aA"><path d="M.797-5.86H5.14v-1.202H.797zm0 0"/></symbol><symbol overflow="visible" id="aB"><path d="M6.406.219c1.61 0 2.828-.64 3.813-1.782l-.86-.984c-.796.86-1.703 1.39-2.89 1.39-2.375 0-3.875-1.968-3.875-5.109 0-3.109 1.562-5.046 3.922-5.046 1.078 0 1.906.5 2.546 1.187l.86-1.016c-.719-.796-1.906-1.546-3.422-1.546-3.156 0-5.516 2.453-5.516 6.468C.984-2.172 3.313.22 6.406.22zm0 0"/></symbol><symbol overflow="visible" id="aC"><path d="M1.703 0h7.36v-1.344H3.28v-4.531H8v-1.344H3.281v-3.906h5.61v-1.328H1.703zm0 0"/></symbol><symbol overflow="visible" id="aD"><path d="M2.36-.156c.609 0 1.14-.469 1.14-1.172s-.531-1.203-1.14-1.203c-.61 0-1.126.5-1.126 1.203 0 .703.516 1.172 1.125 1.172zm0 0"/></symbol><symbol overflow="visible" id="aE"><path d="M2.406 0h.563v-6.266h2.125v-.468H.297v.468h2.11zm0 0"/></symbol><symbol overflow="visible" id="aF"><path d="M.922 0h.531v-3.688c.578-.593.984-.89 1.563-.89.75 0 1.078.484 1.078 1.5V0h.531v-3.156c0-1.25-.469-1.89-1.5-1.89-.672 0-1.172.39-1.672.874v-3.172H.922zm0 0"/></symbol><symbol overflow="visible" id="aG"><path d="M2.813.125c.703 0 1.171-.234 1.562-.484L4.172-.75c-.375.25-.781.422-1.313.422-1.062 0-1.765-.844-1.796-2.047h3.484c.031-.125.031-.25.031-.39 0-1.438-.703-2.282-1.906-2.282-1.11 0-2.156 1-2.156 2.594 0 1.61 1.03 2.578 2.296 2.578zm-1.75-2.922c.093-1.125.828-1.797 1.625-1.797.859 0 1.406.61 1.406 1.797zm0 0"/></symbol><symbol overflow="visible" id="aI"><path d="M.922 0h.531v-4.922H.922zm.281-6.078c.234 0 .453-.172.453-.422 0-.281-.218-.438-.453-.438-.25 0-.453.157-.453.438 0 .25.203.422.453.422zm0 0"/></symbol><symbol overflow="visible" id="aJ"><path d="M.922 0h.531v-3.688c.578-.593.984-.89 1.563-.89.75 0 1.078.484 1.078 1.5V0h.531v-3.156c0-1.25-.469-1.89-1.5-1.89-.672 0-1.172.39-1.672.874h-.016l-.078-.75H.922zm0 0"/></symbol><symbol overflow="visible" id="aK"><path d="M2.313.125c.218 0 .53-.094.812-.188L3-.483c-.172.078-.422.14-.594.14-.656 0-.828-.406-.828-1.015v-3.11h1.406v-.453H1.578v-1.422h-.453l-.063 1.422-.78.047v.406h.765v3.063c0 .922.297 1.531 1.266 1.531zm0 0"/></symbol><symbol overflow="visible" id="aL"><path d="M.922 0h.531v-3.313c.36-.906.89-1.234 1.328-1.234a.91.91 0 0 1 .453.094l.11-.484c-.156-.094-.313-.11-.5-.11-.578 0-1.063.422-1.39 1.047h-.016l-.079-.922H.922zm0 0"/></symbol><symbol overflow="visible" id="aM"><path d="M2.75.125c1.188 0 2.219-.953 2.219-2.578 0-1.64-1.032-2.594-2.219-2.594-1.203 0-2.234.953-2.234 2.594C.516-.828 1.546.125 2.75.125zm0-.469c-.969 0-1.672-.86-1.672-2.11 0-1.265.703-2.124 1.672-2.124.953 0 1.656.86 1.656 2.125 0 1.25-.703 2.11-1.656 2.11zm0 0"/></symbol><symbol overflow="visible" id="aN"><path d="M2.563.125c.624 0 1.171-.344 1.578-.75h.015L4.22 0h.437v-7.344h-.531v2l.047.89c-.484-.374-.89-.593-1.469-.593-1.172 0-2.187 1-2.187 2.594 0 1.656.812 2.578 2.046 2.578zm.093-.469c-1 0-1.562-.844-1.562-2.11 0-1.218.718-2.124 1.656-2.124.469 0 .875.172 1.375.61v2.843c-.484.5-.953.781-1.469.781zm0 0"/></symbol><symbol overflow="visible" id="aO"><path d="M2.344.125c.672 0 1.172-.39 1.656-.938h.031L4.078 0h.453v-4.922h-.547v3.594c-.546.672-.953.969-1.53.969-.75 0-1.063-.47-1.063-1.485v-3.078H.844v3.156c0 1.25.469 1.891 1.5 1.891zm0 0"/></symbol><symbol overflow="visible" id="aP"><path d="M2.766.125c.625 0 1.156-.266 1.578-.64l-.266-.376c-.328.297-.766.547-1.281.547-1.031 0-1.719-.86-1.719-2.11 0-1.265.75-2.124 1.734-2.124.454 0 .813.203 1.126.5l.296-.375c-.343-.297-.78-.594-1.437-.594-1.219 0-2.281.953-2.281 2.594 0 1.625.968 2.578 2.25 2.578zm0 0"/></symbol><symbol overflow="visible" id="aQ"><path d="M3.016-7.297c-.235-.094-.5-.172-.75-.172C1.437-7.469 1-6.937 1-5.953v1.031l-.672.047v.406H1V0h.547v-4.469h1.11v-.453h-1.11v-1c0-.703.219-1.094.75-1.094.187 0 .375.047.578.141zm0 0"/></symbol><symbol overflow="visible" id="aR"><path d="M.984 0h.547v-2.266l1.328-1.53L5.031 0h.64L3.22-4.234l2.14-2.5h-.656L1.547-3.078H1.53v-3.656H.984zm0 0"/></symbol><symbol overflow="visible" id="aS"><path d="M2.016.125c.625 0 1.218-.344 1.718-.75h.016L3.797 0h.453v-3.125c0-1.078-.406-1.922-1.578-1.922-.813 0-1.485.39-1.875.64l.25.391c.344-.265.906-.562 1.547-.562.937 0 1.14.75 1.125 1.484-2.172.25-3.14.766-3.14 1.86 0 .906.64 1.359 1.437 1.359zm.109-.453c-.547 0-1-.266-1-.938 0-.75.656-1.203 2.594-1.437v1.61c-.578.5-1.047.765-1.594.765zm0 0"/></symbol><symbol overflow="visible" id="aT"><path d="M.984 0h1.594c2.063 0 3.078-1.328 3.078-3.39 0-2.063-1.015-3.344-3.093-3.344H.984zm.547-.469v-5.797h.985c1.765 0 2.546 1.125 2.546 2.875S4.282-.469 2.517-.469zm0 0"/></symbol><symbol overflow="visible" id="aU"><path d="M2.547 2.344c1.437 0 2.36-.813 2.36-1.672 0-.781-.532-1.14-1.641-1.14H2.219c-.703 0-.922-.266-.922-.61 0-.313.187-.516.39-.688.22.125.532.204.797.204.97 0 1.735-.72 1.735-1.735 0-.5-.219-.922-.5-1.187h1.11v-.438H3.14a1.812 1.812 0 0 0-.657-.125c-.968 0-1.765.719-1.765 1.734 0 .594.312 1.094.625 1.344v.032c-.219.171-.547.5-.547.921 0 .391.203.641.453.797v.047C.797.125.516.562.516 1c0 .828.796 1.344 2.03 1.344zM2.484-1.97c-.656 0-1.234-.531-1.234-1.343 0-.813.563-1.313 1.234-1.313.672 0 1.22.5 1.22 1.313 0 .812-.579 1.343-1.22 1.343zm.125 3.907c-1.015 0-1.593-.407-1.593-1 0-.344.187-.704.609-1 .25.062.516.093.625.093h1c.734 0 1.125.188 1.125.719 0 .594-.703 1.188-1.766 1.188zm0 0"/></symbol><symbol overflow="visible" id="aV"><path d="M1.953 0h.625l1.813-4.922h-.547L2.78-1.906c-.156.484-.328.984-.484 1.422H2.25a49.737 49.737 0 0 1-.484-1.422L.703-4.922H.125zm0 0"/></symbol><symbol overflow="visible" id="aW"><path d="M1.578.125c.172 0 .266-.031.36-.063l-.079-.421c-.109.015-.14.015-.171.015-.141 0-.235-.094-.235-.328v-6.672H.922v6.61c0 .578.219.859.656.859zm0 0"/></symbol><symbol overflow="visible" id="aX"><path d="M.922 2.203h.531V-.484c.5.39.984.609 1.453.609 1.14 0 2.156-.984 2.156-2.672 0-1.5-.656-2.5-1.968-2.5-.594 0-1.156.36-1.64.719h-.016l-.079-.594H.922zM2.859-.344c-.359 0-.875-.172-1.406-.61v-2.843c.578-.5 1.063-.781 1.531-.781 1.11 0 1.516.86 1.516 2.031 0 1.328-.688 2.203-1.64 2.203zm0 0"/></symbol><symbol overflow="visible" id="aY"><path d="M.922 0h.531v-3.688c.516-.593 1-.89 1.422-.89.734 0 1.063.484 1.063 1.5V0h.546v-3.688c.516-.593.97-.89 1.422-.89.719 0 1.063.484 1.063 1.5V0H7.5v-3.156c0-1.25-.484-1.89-1.484-1.89-.563 0-1.11.39-1.657 1-.171-.61-.578-1-1.359-1-.547 0-1.11.39-1.547.874h-.016l-.078-.75H.922zm0 0"/></symbol><symbol overflow="visible" id="aZ"><path d="M.984 0h.547v-3.188h2.672v-.484H1.531v-2.594h3.157v-.468H.983zm0 0"/></symbol><symbol overflow="visible" id="ba"><path d="M2.234 1.125l.329-.172c-.813-1.297-1.22-2.86-1.22-4.469 0-1.593.407-3.171 1.22-4.453l-.329-.172C1.391-6.78.891-5.312.891-3.516c0 1.813.5 3.282 1.343 4.641zm0 0"/></symbol><symbol overflow="visible" id="bb"><path d="M.672 1.125c.844-1.36 1.344-2.828 1.344-4.64 0-1.797-.5-3.266-1.344-4.626l-.328.172c.797 1.282 1.219 2.86 1.219 4.453 0 1.61-.422 3.172-1.22 4.47zm0 0"/></symbol><symbol overflow="visible" id="bc"><path d="M1.688 0h.64l.797-2.953c.156-.469.266-.938.39-1.422h.047c.126.484.22.938.36 1.406L4.75 0h.703l1.375-4.922h-.516l-.843 3.11c-.125.468-.235.89-.344 1.328h-.031c-.14-.438-.25-.86-.36-1.329l-.89-3.109h-.578l-.891 3.11c-.11.453-.219.89-.344 1.328h-.047c-.093-.438-.203-.86-.312-1.329l-.86-3.109H.235zm0 0"/></symbol><symbol overflow="visible" id="bd"><path d="M2.906.125c1.14 0 2.156-.984 2.156-2.672 0-1.5-.656-2.5-1.968-2.5-.594 0-1.172.344-1.656.75l.015-.937v-2.11H.922V0h.437l.063-.5h.016c.453.375 1 .625 1.468.625zM2.86-.344c-.359 0-.89-.172-1.406-.61v-2.843c.563-.5 1.063-.781 1.531-.781 1.11 0 1.516.86 1.516 2.031 0 1.328-.688 2.203-1.64 2.203zm0 0"/></symbol><symbol overflow="visible" id="be"><path d="M1.531-6.266h1.282c1.171 0 1.812.36 1.812 1.329 0 .968-.64 1.437-1.813 1.437h-1.28zM5.328 0L3.516-3.078c1.015-.156 1.671-.781 1.671-1.86 0-1.312-.906-1.796-2.234-1.796H.984V0h.547v-3.031h1.375L4.703 0zm0 0"/></symbol><symbol overflow="visible" id="bf"><path d="M.906-1.75c0-.625.469-1.11 1.031-1.547C2.422-2.469 3.125-1.64 3.829-1c-.422.406-.906.672-1.453.672C1.562-.328.906-.891.906-1.75zm.86-3.594c0-.61.343-1.078.921-1.078.532 0 .72.406.72.828 0 .688-.61 1.14-1.282 1.625-.219-.484-.36-.953-.36-1.375zm4.046 5c-.375-.125-.828-.39-1.28-.734.53-.703.921-1.547 1.187-2.469h-.516c-.234.828-.578 1.578-1.031 2.156-.688-.578-1.39-1.39-1.844-2.203.75-.578 1.547-1.14 1.547-2.015 0-.72-.422-1.25-1.172-1.25-.844 0-1.422.656-1.422 1.515 0 .516.172 1.094.453 1.657C1.031-3.172.36-2.61.36-1.72c0 1.11.86 1.844 1.97 1.844.765 0 1.358-.344 1.858-.828.532.422 1.032.687 1.47.828zm0 0"/></symbol><symbol overflow="visible" id="bg"><path d="M.781 2.219c.906 0 1.406-.797 1.703-1.64l1.922-5.5H3.86l-1 3.015c-.14.422-.296.937-.453 1.375H2.36C2.188-.97 2-1.484 1.844-1.906L.704-4.922H.124l2.016 5L2 .484c-.234.72-.64 1.25-1.219 1.25-.14 0-.297-.03-.406-.078l-.11.453c.126.063.329.11.516.11zm0 0"/></symbol><symbol overflow="visible" id="bh"><path d="M1.156-.234a.478.478 0 0 0 .469-.5c0-.313-.234-.5-.469-.5-.25 0-.468.187-.468.5 0 .312.218.5.468.5zm0 0"/></symbol><symbol overflow="visible" id="bi"><path d="M2.14.125c1.079 0 1.688-.656 1.688-1.406 0-.953-.844-1.219-1.594-1.5-.578-.219-1.14-.422-1.14-.969 0-.438.328-.844 1.062-.844.469 0 .828.188 1.172.438l.266-.375a2.32 2.32 0 0 0-1.422-.516c-1.031 0-1.625.61-1.625 1.328 0 .844.812 1.156 1.547 1.406.578.204 1.187.47 1.187 1.063 0 .5-.375.922-1.125.922-.672 0-1.125-.25-1.547-.61l-.28.391c.437.36 1.077.672 1.812.672zm0 0"/></symbol><symbol overflow="visible" id="bj"><path d="M.297 0h3.625v-.469H.984L3.828-4.64v-.28H.594v.452h2.531L.297-.28zm0 0"/></symbol><symbol overflow="visible" id="bk"><path d="M1-4.922l-.672.047v.406H1V0h.547v-4.469h1.11v-.453h-1.11v-1c0-.703.219-1.094.75-1.094.187 0 .375.047.578.141l.14-.422c-.234-.094-.5-.172-.75-.172C1.438-7.469 1-6.937 1-5.953zM3.86 0h.53v-4.922h-.53zm.28-6.938c-.25 0-.452.157-.452.438 0 .25.203.422.453.422.234 0 .453-.172.453-.422 0-.281-.219-.438-.453-.438zm0 0"/></symbol><symbol overflow="visible" id="bw"><path d="M3.39.125c.876 0 1.5-.36 2.016-.969l-.312-.344c-.469.516-.985.813-1.672.813-1.406 0-2.281-1.172-2.281-3.016 0-1.812.89-2.968 2.312-2.968.625 0 1.094.28 1.453.687l.328-.375a2.377 2.377 0 0 0-1.78-.812C1.75-6.86.546-5.516.546-3.375c0 2.156 1.187 3.5 2.844 3.5zm0 0"/></symbol><symbol overflow="visible" id="bx"><path d="M.984 0h3.813v-.484H1.53v-2.844h2.672v-.469H1.531v-2.469h3.172v-.468H.984zm0 0"/></symbol><symbol overflow="visible" id="by"><path d="M3.344.125c1.64 0 2.797-1.375 2.797-3.516 0-2.125-1.157-3.468-2.797-3.468C1.719-6.86.547-5.516.547-3.391.547-1.25 1.719.125 3.344.125zm0-.5c-1.328 0-2.203-1.188-2.203-3.016s.875-2.968 2.203-2.968c1.344 0 2.219 1.14 2.219 2.968 0 1.829-.875 3.016-2.22 3.016zm0 0"/></symbol><symbol overflow="visible" id="bz"><path d="M.64 1.281C1.298.938 1.75.328 1.75-.469c0-.469-.203-.765-.547-.765-.266 0-.484.156-.484.453 0 .297.219.469.469.469.046 0 .078 0 .109-.016 0 .578-.313 1-.813 1.25zm0 0"/></symbol><symbol overflow="visible" id="bA"><path d="M1.547-2.703l.406-1.219c.266-.781.5-1.5.734-2.312h.032c.25.812.469 1.53.75 2.312l.406 1.219zM4.766 0h.593L3-6.734h-.578L.078 0h.547l.766-2.266h2.625zm0 0"/></symbol><symbol overflow="visible" id="bl"><path d="M1 0h1.625v-3.516h3.078V0h1.61v-8.125h-1.61v3.188H2.625v-3.188H1zm0 0"/></symbol><symbol overflow="visible" id="bm"><path d="M1.406 2.469c1.375 0 2.032-.828 2.563-2.281l2.187-6.344H4.61l-.843 2.86c-.141.577-.297 1.171-.438 1.733h-.062c-.172-.593-.329-1.187-.516-1.734l-.969-2.86H.156l2.39 6.048-.108.359c-.172.547-.532.938-1.157.938-.14 0-.312-.047-.422-.079L.563 2.344c.234.078.484.125.843.125zm0 0"/></symbol><symbol overflow="visible" id="bn"><path d="M2.688.156c.843 0 1.437-.406 1.968-1.031h.047L4.828 0h1.313v-6.156H4.53V-2c-.422.547-.75.766-1.265.766-.579 0-.844-.329-.844-1.282v-3.64H.797v3.843c0 1.547.578 2.47 1.89 2.47zm0 0"/></symbol><symbol overflow="visible" id="bo"><path d="M.875 0h1.594v-4.234c.469-.438.781-.688 1.281-.688.61 0 .875.344.875 1.281V0h1.61v-3.828c0-1.547-.563-2.485-1.891-2.485-.844 0-1.469.454-2 .97h-.047l-.11-.813H.875zm0 0"/></symbol><symbol overflow="visible" id="bp"><path d="M.531-3.61h3.031v-1.14H.533zm0 0"/></symbol><symbol overflow="visible" id="bq"><path d="M3.422.156c1.89 0 3-1.14 3-2.469 0-1.171-.656-1.796-1.64-2.203l-1.063-.453c-.703-.265-1.281-.484-1.281-1.062 0-.532.468-.86 1.171-.86.672 0 1.22.25 1.735.672l.812-1.015C5.5-7.906 4.563-8.281 3.61-8.281 1.97-8.281.797-7.266.797-5.937c0 1.187.828 1.843 1.656 2.187l1.078.469c.735.297 1.219.484 1.219 1.094 0 .578-.438.937-1.297.937-.703 0-1.469-.36-2.062-.906L.469-1.031A4.338 4.338 0 0 0 3.422.156zm0 0"/></symbol><symbol overflow="visible" id="br"><path d="M2.39.156c.704 0 1.313-.36 1.844-.812h.032L4.39 0h1.328v-3.594c0-1.781-.813-2.719-2.375-2.719-.953 0-1.844.375-2.563.813l.578 1.078c.579-.328 1.125-.594 1.688-.594.765 0 1.031.47 1.047 1.079-2.469.25-3.532.953-3.532 2.265 0 1.047.72 1.828 1.829 1.828zm.516-1.265c-.469 0-.812-.204-.812-.688 0-.547.515-.953 2-1.156v1.234c-.375.39-.719.61-1.188.61zm0 0"/></symbol><symbol overflow="visible" id="bs"><path d="M3.031 2.672c2.047 0 3.344-.953 3.344-2.188 0-1.078-.813-1.53-2.281-1.53H3.047c-.735 0-.969-.188-.969-.516 0-.235.078-.375.266-.532.265.094.547.156.781.156C4.453-1.938 5.5-2.64 5.5-4.03c0-.39-.125-.719-.281-.938h1.047v-1.187h-2.22a3.149 3.149 0 0 0-.921-.157c-1.297 0-2.484.782-2.484 2.235 0 .719.406 1.297.812 1.61v.046c-.36.266-.672.688-.672 1.14 0 .516.235.829.563 1.048v.047C.78.124.469.578.469 1.093c0 1.079 1.11 1.579 2.562 1.579zm.094-5.61c-.531 0-.969-.406-.969-1.14 0-.719.422-1.125.969-1.125.563 0 .969.406.969 1.125 0 .734-.422 1.14-.969 1.14zm.14 4.579c-.89 0-1.468-.297-1.468-.813 0-.25.14-.484.406-.703.219.047.485.078.86.078h.75c.656 0 1.015.11 1.015.563 0 .468-.625.875-1.562.875zm0 0"/></symbol><symbol overflow="visible" id="bu"><path d="M1 0h1.453v-3.39c0-.766-.125-1.907-.203-2.672h.047l.64 1.906L4.204-.734h.938l1.25-3.422.656-1.907h.047c-.078.766-.203 1.907-.203 2.672V0h1.484v-8.125H6.578L5.234-4.328c-.187.5-.328 1.047-.5 1.578h-.062c-.156-.531-.313-1.078-.484-1.578L2.796-8.125H1zm0 0"/></symbol><symbol overflow="visible" id="bv"><path d="M.875 0h1.563v-1.531l.89-1.016L4.828 0h1.734L4.235-3.64l2.141-2.516H4.609L2.484-3.5h-.046v-5.266H.875zm0 0"/></symbol></defs><g fill="#898989"><use xlink:href="#a" x="28.312" y="819.169"/><use xlink:href="#b" x="32.591" y="819.169"/></g><g fill="#898989"><use xlink:href="#c" x="36.906" y="819.169"/><use xlink:href="#c" x="38.996" y="819.169"/></g><g fill="#595757"><use xlink:href="#d" x="506.297" y="818.993"/><use xlink:href="#e" x="507.807" y="818.993"/><use xlink:href="#f" x="510.984" y="818.993"/><use xlink:href="#g" x="512.368" y="818.993"/><use xlink:href="#h" x="513.926" y="818.993"/><use xlink:href="#i" x="517.012" y="818.993"/><use xlink:href="#h" x="520.099" y="818.993"/><use xlink:href="#j" x="523.185" y="818.993"/><use xlink:href="#k" x="526.271" y="818.993"/><use xlink:href="#g" x="531.664" y="818.993"/><use xlink:href="#l" x="533.223" y="818.993"/><use xlink:href="#m" x="538.616" y="818.993"/><use xlink:href="#n" x="544.009" y="818.993"/><use xlink:href="#o" x="549.403" y="818.993"/></g><use xlink:href="#p" x="36.098" y="57.992"/><use xlink:href="#q" x="42.918" y="57.992"/><use xlink:href="#p" x="49.737" y="57.992"/><use xlink:href="#r" x="56.557" y="57.992"/><use xlink:href="#s" x="63.376" y="58.372"/><use xlink:href="#t" x="66.752" y="56.474"/><use xlink:href="#u" x="71.298" y="56.474"/><use xlink:href="#v" x="74.495" y="56.474"/><use xlink:href="#s" x="79.448" y="58.372"/><use xlink:href="#w" x="82.824" y="57.992"/><use xlink:href="#x" x="86.54" y="57.992"/><use xlink:href="#y" x="93.983" y="57.992"/><use xlink:href="#z" x="98.549" y="57.992"/><use xlink:href="#A" x="105.273" y="57.992"/><use xlink:href="#x" x="110.259" y="57.992"/><use xlink:href="#B" x="117.702" y="57.992"/><use xlink:href="#y" x="124.318" y="57.992"/><use xlink:href="#C" x="129.112" y="57.992"/><use xlink:href="#D" x="132.516" y="57.992"/><use xlink:href="#x" x="139.779" y="57.992"/><use xlink:href="#B" x="147.222" y="57.992"/><use xlink:href="#E" x="154.066" y="57.992"/><use xlink:href="#F" x="157.601" y="57.992"/><use xlink:href="#G" x="160.718" y="57.992"/><use xlink:href="#D" x="167.262" y="57.992"/><use xlink:href="#A" x="174.525" y="57.992"/><use xlink:href="#H" x="179.511" y="57.992"/><use xlink:href="#I" x="186.906" y="57.992"/><use xlink:href="#F" x="198.22" y="57.992"/><use xlink:href="#D" x="201.336" y="57.992"/><use xlink:href="#x" x="208.599" y="57.992"/><use xlink:href="#F" x="216.042" y="57.992"/><use xlink:href="#J" x="219.159" y="57.992"/><use xlink:href="#z" x="229.154" y="57.992"/><use xlink:href="#K" x="235.878" y="57.992"/><use xlink:href="#C" x="243.357" y="57.992"/><use xlink:href="#L" x="246.761" y="57.992"/><use xlink:href="#B" x="252.694" y="57.992"/><use xlink:href="#E" x="259.537" y="57.992"/><use xlink:href="#F" x="263.073" y="57.992"/><use xlink:href="#w" x="266.189" y="57.992"/><use xlink:href="#x" x="269.905" y="57.992"/><use xlink:href="#x" x="277.348" y="57.992"/><use xlink:href="#D" x="284.791" y="57.992"/><use xlink:href="#M" x="291.958" y="57.992"/><use xlink:href="#B" x="298.346" y="57.992"/><use xlink:href="#y" x="304.962" y="57.992"/><use xlink:href="#C" x="309.756" y="57.992"/><use xlink:href="#D" x="313.16" y="57.992"/><use xlink:href="#x" x="320.423" y="57.992"/><use xlink:href="#F" x="327.866" y="57.992"/><use xlink:href="#D" x="330.983" y="57.992"/><use xlink:href="#N" x="338.186" y="57.992"/><use xlink:href="#F" x="342.405" y="57.992"/><use xlink:href="#O" x="345.521" y="57.992"/><use xlink:href="#z" x="353.156" y="57.992"/><use xlink:href="#E" x="359.879" y="57.992"/><use xlink:href="#E" x="363.415" y="57.992"/><use xlink:href="#F" x="366.951" y="57.992"/><use xlink:href="#P" x="370.067" y="57.992"/><use xlink:href="#F" x="378.685" y="57.992"/><use xlink:href="#Q" x="381.801" y="57.992"/><use xlink:href="#C" x="389.723" y="57.992"/><use xlink:href="#D" x="393.127" y="57.992"/><use xlink:href="#F" x="400.39" y="57.992"/><use xlink:href="#R" x="403.506" y="57.992"/><use xlink:href="#S" x="410.758" y="57.992"/><use xlink:href="#z" x="418.188" y="57.992"/><use xlink:href="#A" x="424.912" y="57.992"/><use xlink:href="#B" x="429.528" y="57.992"/><use xlink:href="#T" x="436.372" y="57.992"/><use xlink:href="#U" x="443.755" y="57.992"/><g fill="#fff"><use xlink:href="#V" x="483.913" y="57.112"/><use xlink:href="#W" x="490.115" y="57.112"/></g><use xlink:href="#X" x="496.527" y="57.112" fill="#fff"/><g fill="#fff"><use xlink:href="#Y" x="502.33" y="57.112"/><use xlink:href="#Z" x="508.373" y="57.112"/></g><use xlink:href="#V" x="514.905" y="57.112" fill="#fff"/><use xlink:href="#aa" x="520.988" y="57.112" fill="#fff"/><use xlink:href="#Y" x="527.19" y="57.112" fill="#fff"/><use xlink:href="#ab" x="42.468" y="194.236"/><use xlink:href="#ac" x="54.388" y="194.236"/><use xlink:href="#ad" x="63.539" y="194.236"/><use xlink:href="#ae" x="76.817" y="194.236"/><use xlink:href="#af" x="81.232" y="194.236"/><use xlink:href="#ag" x="92.557" y="194.236"/><use xlink:href="#ah" x="98.806" y="194.236"/><use xlink:href="#ai" x="108.772" y="194.236"/><use xlink:href="#ae" x="117.992" y="194.236"/><use xlink:href="#aj" x="122.407" y="194.236"/><use xlink:href="#ac" x="132.664" y="194.236"/><use xlink:href="#ak" x="141.731" y="194.236"/><use xlink:href="#ac" x="149.338" y="194.236"/><use xlink:href="#al" x="158.133" y="194.236"/><use xlink:href="#ag" x="167.37" y="194.236"/><use xlink:href="#am" x="173.431" y="194.236"/><use xlink:href="#an" x="181.734" y="194.236"/><use xlink:href="#ae" x="191.701" y="194.236"/><use xlink:href="#al" x="196.116" y="194.236"/><use xlink:href="#ao" x="205.353" y="194.236"/><use xlink:href="#ap" x="215.387" y="194.236"/><use xlink:href="#ae" x="225.575" y="194.236"/><use xlink:href="#af" x="229.99" y="194.236"/><use xlink:href="#ac" x="241.315" y="194.236"/><use xlink:href="#aq" x="250.467" y="194.236"/><use xlink:href="#ac" x="258.906" y="194.236"/><use xlink:href="#ar" x="267.972" y="194.236"/><use xlink:href="#as" x="272.472" y="194.236"/><use xlink:href="#at" x="282.422" y="194.236"/><use xlink:href="#au" x="292.61" y="194.236"/><use xlink:href="#ac" x="307.993" y="194.236"/><use xlink:href="#ao" x="317.06" y="194.236"/><use xlink:href="#av" x="327.095" y="194.236"/><use xlink:href="#ae" x="333.156" y="194.236"/><use xlink:href="#aw" x="337.571" y="194.236"/><use xlink:href="#av" x="346.909" y="194.236"/><use xlink:href="#ag" x="352.971" y="194.236"/><use xlink:href="#al" x="358.761" y="194.236"/><use xlink:href="#av" x="367.743" y="194.236"/><use xlink:href="#ac" x="373.55" y="194.236"/><use xlink:href="#ai" x="382.43" y="194.236"/><use xlink:href="#ax" x="391.939" y="194.236"/><use xlink:href="#ae" x="400.445" y="194.236"/><g><use xlink:href="#ay" x="42.468" y="218.211"/><use xlink:href="#ao" x="46.798" y="218.211"/><use xlink:href="#ae" x="56.833" y="218.211"/><use xlink:href="#av" x="61.247" y="218.211"/><use xlink:href="#an" x="67.309" y="218.211"/><use xlink:href="#ac" x="77.276" y="218.211"/><use xlink:href="#ae" x="86.343" y="218.211"/><use xlink:href="#az" x="90.757" y="218.211"/></g><g><use xlink:href="#as" x="100.69" y="218.211"/><use xlink:href="#ak" x="110.64" y="218.211"/></g><g><use xlink:href="#av" x="117.873" y="218.211"/><use xlink:href="#aA" x="123.935" y="218.211"/><use xlink:href="#aB" x="129.504" y="218.211"/><use xlink:href="#as" x="139.997" y="218.211"/><use xlink:href="#ag" x="149.947" y="218.211"/></g><g><use xlink:href="#as" x="156.009" y="218.211"/><use xlink:href="#ao" x="165.959" y="218.211"/><use xlink:href="#al" x="175.994" y="218.211"/><use xlink:href="#ae" x="185.23" y="218.211"/><use xlink:href="#aC" x="189.645" y="218.211"/><use xlink:href="#ag" x="199.289" y="218.211"/></g><g><use xlink:href="#al" x="205.079" y="218.211"/><use xlink:href="#aD" x="214.316" y="218.211"/></g><g><use xlink:href="#aE" x="28.312" y="354.465"/><use xlink:href="#aF" x="33.67" y="354.465"/><use xlink:href="#aG" x="39.075" y="354.465"/><use xlink:href="#aH" x="44.009" y="354.465"/></g><g><use xlink:href="#aI" x="47.234" y="354.465"/><use xlink:href="#aJ" x="49.571" y="354.465"/><use xlink:href="#aK" x="55.013" y="354.465"/><use xlink:href="#aL" x="58.228" y="354.465"/></g><g><use xlink:href="#aM" x="61.405" y="354.465"/><use xlink:href="#aN" x="66.856" y="354.465"/><use xlink:href="#aO" x="72.409" y="354.465"/><use xlink:href="#aP" x="77.822" y="354.465"/></g><g><use xlink:href="#aK" x="82.293" y="354.465"/><use xlink:href="#aI" x="85.508" y="354.465"/><use xlink:href="#aM" x="87.846" y="354.465"/><use xlink:href="#aJ" x="93.297" y="354.465"/><use xlink:href="#aH" x="98.738" y="354.465"/></g><g><use xlink:href="#aM" x="101.964" y="354.465"/><use xlink:href="#aQ" x="107.415" y="354.465"/><use xlink:href="#aH" x="110.131" y="354.465"/></g><g><use xlink:href="#aR" x="113.357" y="354.465"/></g><g><use xlink:href="#aM" x="119.038" y="354.465"/><use xlink:href="#aL" x="124.488" y="354.465"/></g><g><use xlink:href="#aG" x="127.666" y="354.465"/></g><g><use xlink:href="#aS" x="132.44" y="354.465"/><use xlink:href="#aH" x="137.457" y="354.465"/></g><g><use xlink:href="#aT" x="140.682" y="354.465"/><use xlink:href="#aL" x="146.854" y="354.465"/><use xlink:href="#aO" x="150.133" y="354.465"/><use xlink:href="#aU" x="155.547" y="354.465"/><use xlink:href="#aH" x="160.527" y="354.465"/></g><g><use xlink:href="#aT" x="163.753" y="354.465"/><use xlink:href="#aG" x="169.925" y="354.465"/></g><g><use xlink:href="#aV" x="174.958" y="354.465"/><use xlink:href="#aG" x="179.439" y="354.465"/><use xlink:href="#aW" x="184.372" y="354.465"/><use xlink:href="#aM" x="186.802" y="354.465"/><use xlink:href="#aX" x="192.253" y="354.465"/><use xlink:href="#aY" x="197.805" y="354.465"/><use xlink:href="#aG" x="206.12" y="354.465"/><use xlink:href="#aJ" x="211.054" y="354.465"/><use xlink:href="#aK" x="216.495" y="354.465"/><use xlink:href="#aH" x="219.711" y="354.465"/></g><g><use xlink:href="#aZ" x="222.936" y="354.465"/></g><g><use xlink:href="#aO" x="227.665" y="354.465"/><use xlink:href="#aJ" x="233.079" y="354.465"/><use xlink:href="#aN" x="238.521" y="354.465"/><use xlink:href="#aH" x="244.073" y="354.465"/></g><g><use xlink:href="#ba" x="247.298" y="354.465"/><use xlink:href="#aR" x="250.162" y="354.465"/><use xlink:href="#aT" x="255.881" y="354.465"/><use xlink:href="#aT" x="262.053" y="354.465"/><use xlink:href="#aZ" x="268.224" y="354.465"/><use xlink:href="#bb" x="273.102" y="354.465"/><use xlink:href="#aH" x="275.966" y="354.465"/></g><g><use xlink:href="#aS" x="279.192" y="354.465"/><use xlink:href="#aJ" x="284.208" y="354.465"/><use xlink:href="#aN" x="289.65" y="354.465"/><use xlink:href="#aH" x="295.202" y="354.465"/></g><g><use xlink:href="#aF" x="298.428" y="354.465"/><use xlink:href="#aM" x="303.833" y="354.465"/><use xlink:href="#bc" x="309.284" y="354.465"/><use xlink:href="#aH" x="316.324" y="354.465"/></g><g><use xlink:href="#aK" x="319.549" y="354.465"/></g><g><use xlink:href="#aM" x="322.643" y="354.465"/><use xlink:href="#aH" x="328.094" y="354.465"/></g><g><use xlink:href="#aP" x="331.319" y="354.465"/></g><g><use xlink:href="#aM" x="335.698" y="354.465"/><use xlink:href="#aW" x="341.149" y="354.465"/><use xlink:href="#aW" x="343.578" y="354.465"/><use xlink:href="#aS" x="346.008" y="354.465"/><use xlink:href="#bd" x="351.025" y="354.465"/><use xlink:href="#aM" x="356.559" y="354.465"/><use xlink:href="#aL" x="362.01" y="354.465"/></g><g><use xlink:href="#aS" x="365.067" y="354.465"/></g><g><use xlink:href="#aK" x="369.962" y="354.465"/></g><g><use xlink:href="#aG" x="373.056" y="354.465"/><use xlink:href="#aH" x="377.99" y="354.465"/></g><g><use xlink:href="#bc" x="381.215" y="354.465"/><use xlink:href="#aI" x="388.255" y="354.465"/><use xlink:href="#aK" x="390.593" y="354.465"/><use xlink:href="#aF" x="393.808" y="354.465"/><use xlink:href="#aH" x="399.212" y="354.465"/></g><g><use xlink:href="#aR" x="402.438" y="354.465"/></g><g><use xlink:href="#aM" x="408.118" y="354.465"/><use xlink:href="#aL" x="413.569" y="354.465"/></g><g><use xlink:href="#aG" x="416.747" y="354.465"/></g><g><use xlink:href="#aS" x="421.522" y="354.465"/><use xlink:href="#aJ" x="426.539" y="354.465"/><use xlink:href="#aH" x="431.98" y="354.465"/></g><g><use xlink:href="#be" x="435.206" y="354.465"/><use xlink:href="#bf" x="440.786" y="354.465"/><use xlink:href="#aT" x="446.708" y="354.465"/><use xlink:href="#aH" x="452.879" y="354.465"/></g><g><use xlink:href="#aP" x="456.105" y="354.465"/></g><g><use xlink:href="#aM" x="460.483" y="354.465"/><use xlink:href="#aY" x="465.934" y="354.465"/><use xlink:href="#aY" x="474.249" y="354.465"/><use xlink:href="#aO" x="482.563" y="354.465"/><use xlink:href="#aJ" x="487.977" y="354.465"/><use xlink:href="#aI" x="493.419" y="354.465"/><use xlink:href="#aK" x="495.756" y="354.465"/><use xlink:href="#bg" x="498.972" y="354.465"/><use xlink:href="#bh" x="503.462" y="354.465"/><use xlink:href="#aH" x="505.744" y="354.465"/></g><g><use xlink:href="#aR" x="508.97" y="354.465"/><use xlink:href="#aT" x="514.689" y="354.465"/><use xlink:href="#aT" x="520.86" y="354.465"/><use xlink:href="#aZ" x="527.032" y="354.465"/><use xlink:href="#aH" x="531.91" y="354.465"/></g><g><use xlink:href="#aF" x="535.135" y="354.465"/><use xlink:href="#aS" x="540.539" y="354.465"/><use xlink:href="#aV" x="545.556" y="354.465"/><use xlink:href="#aG" x="550.037" y="354.465"/></g><g><use xlink:href="#aH" x="554.823" y="354.465"/></g><g><use xlink:href="#bd" x="28.312" y="373.442"/><use xlink:href="#aG" x="33.818" y="373.442"/><use xlink:href="#aG" x="38.724" y="373.442"/><use xlink:href="#aJ" x="43.63" y="373.442"/><use xlink:href="#aH" x="49.044" y="373.442"/></g><g><use xlink:href="#aX" x="52.244" y="373.442"/><use xlink:href="#aW" x="57.769" y="373.442"/><use xlink:href="#aS" x="60.171" y="373.442"/><use xlink:href="#bg" x="65.16" y="373.442"/><use xlink:href="#aI" x="69.622" y="373.442"/><use xlink:href="#aJ" x="71.932" y="373.442"/><use xlink:href="#aU" x="77.346" y="373.442"/><use xlink:href="#aH" x="82.298" y="373.442"/></g><g><use xlink:href="#aS" x="85.498" y="373.442"/><use xlink:href="#aJ" x="90.487" y="373.442"/><use xlink:href="#aH" x="95.901" y="373.442"/></g><g><use xlink:href="#aS" x="99.101" y="373.442"/><use xlink:href="#aP" x="104.09" y="373.442"/></g><g><use xlink:href="#aK" x="108.536" y="373.442"/><use xlink:href="#aI" x="111.723" y="373.442"/><use xlink:href="#aV" x="114.033" y="373.442"/><use xlink:href="#aG" x="118.486" y="373.442"/><use xlink:href="#aH" x="123.392" y="373.442"/></g><g><use xlink:href="#aL" x="126.592" y="373.442"/></g><g><use xlink:href="#aM" x="129.744" y="373.442"/><use xlink:href="#aW" x="135.168" y="373.442"/><use xlink:href="#aG" x="137.57" y="373.442"/><use xlink:href="#aH" x="142.475" y="373.442"/></g><g><use xlink:href="#aK" x="145.676" y="373.442"/></g><g><use xlink:href="#aM" x="148.745" y="373.442"/><use xlink:href="#aH" x="154.168" y="373.442"/></g><g><use xlink:href="#bi" x="157.369" y="373.442"/><use xlink:href="#aO" x="161.48" y="373.442"/><use xlink:href="#aX" x="166.867" y="373.442"/><use xlink:href="#aX" x="172.391" y="373.442"/><use xlink:href="#aM" x="177.916" y="373.442"/><use xlink:href="#aL" x="183.339" y="373.442"/><use xlink:href="#aK" x="186.591" y="373.442"/><use xlink:href="#aH" x="189.779" y="373.442"/></g><g><use xlink:href="#aQ" x="192.979" y="373.442"/></g><g><use xlink:href="#aM" x="195.567" y="373.442"/><use xlink:href="#aL" x="200.99" y="373.442"/></g><g><use xlink:href="#aG" x="204.141" y="373.442"/><use xlink:href="#aI" x="209.047" y="373.442"/><use xlink:href="#aU" x="211.357" y="373.442"/><use xlink:href="#aJ" x="216.309" y="373.442"/><use xlink:href="#aH" x="221.723" y="373.442"/></g><g><use xlink:href="#be" x="224.923" y="373.442"/><use xlink:href="#bf" x="230.476" y="373.442"/><use xlink:href="#aT" x="236.37" y="373.442"/><use xlink:href="#aH" x="242.514" y="373.442"/></g><g><use xlink:href="#aM" x="245.714" y="373.442"/><use xlink:href="#aL" x="251.137" y="373.442"/></g><g><use xlink:href="#aU" x="254.288" y="373.442"/></g><g><use xlink:href="#aS" x="259.094" y="373.442"/><use xlink:href="#aJ" x="264.083" y="373.442"/><use xlink:href="#aI" x="269.497" y="373.442"/><use xlink:href="#bj" x="271.807" y="373.442"/></g><g><use xlink:href="#aS" x="275.651" y="373.442"/></g><g><use xlink:href="#aK" x="280.522" y="373.442"/><use xlink:href="#aI" x="283.709" y="373.442"/><use xlink:href="#aM" x="286.019" y="373.442"/><use xlink:href="#aJ" x="291.442" y="373.442"/><use xlink:href="#aH" x="296.856" y="373.442"/></g><g><use xlink:href="#aI" x="300.056" y="373.442"/><use xlink:href="#aJ" x="302.366" y="373.442"/><use xlink:href="#aH" x="307.78" y="373.442"/></g><g><use xlink:href="#aP" x="310.98" y="373.442"/></g><g><use xlink:href="#aM" x="315.334" y="373.442"/><use xlink:href="#aW" x="320.757" y="373.442"/><use xlink:href="#aW" x="323.159" y="373.442"/><use xlink:href="#aS" x="325.561" y="373.442"/><use xlink:href="#bd" x="330.55" y="373.442"/><use xlink:href="#aM" x="336.056" y="373.442"/><use xlink:href="#aL" x="341.479" y="373.442"/></g><g><use xlink:href="#aS" x="344.511" y="373.442"/></g><g><use xlink:href="#aK" x="349.382" y="373.442"/><use xlink:href="#aI" x="352.569" y="373.442"/><use xlink:href="#aM" x="354.879" y="373.442"/><use xlink:href="#aJ" x="360.302" y="373.442"/><use xlink:href="#aH" x="365.716" y="373.442"/></g><g><use xlink:href="#bc" x="368.917" y="373.442"/><use xlink:href="#aI" x="375.929" y="373.442"/><use xlink:href="#aK" x="378.238" y="373.442"/><use xlink:href="#aF" x="381.426" y="373.442"/><use xlink:href="#aH" x="386.803" y="373.442"/></g><g><use xlink:href="#aR" x="390.003" y="373.442"/></g><g><use xlink:href="#aM" x="395.658" y="373.442"/><use xlink:href="#aL" x="401.081" y="373.442"/></g><g><use xlink:href="#aG" x="404.233" y="373.442"/></g><g><use xlink:href="#aS" x="408.983" y="373.442"/><use xlink:href="#aJ" x="413.972" y="373.442"/><use xlink:href="#aH" x="419.386" y="373.442"/></g><g><use xlink:href="#be" x="422.586" y="373.442"/><use xlink:href="#bf" x="428.139" y="373.442"/><use xlink:href="#aT" x="434.033" y="373.442"/><use xlink:href="#aH" x="440.177" y="373.442"/></g><g><use xlink:href="#aP" x="443.377" y="373.442"/></g><g><use xlink:href="#aM" x="447.73" y="373.442"/><use xlink:href="#aY" x="453.153" y="373.442"/><use xlink:href="#aY" x="461.44" y="373.442"/><use xlink:href="#aO" x="469.727" y="373.442"/><use xlink:href="#aJ" x="475.113" y="373.442"/><use xlink:href="#aI" x="480.527" y="373.442"/><use xlink:href="#aK" x="482.837" y="373.442"/><use xlink:href="#bg" x="486.024" y="373.442"/><use xlink:href="#aH" x="490.487" y="373.442"/></g><g><use xlink:href="#aQ" x="493.687" y="373.442"/><use xlink:href="#aI" x="496.375" y="373.442"/><use xlink:href="#aJ" x="498.685" y="373.442"/><use xlink:href="#aS" x="504.099" y="373.442"/><use xlink:href="#aJ" x="509.088" y="373.442"/><use xlink:href="#aP" x="514.502" y="373.442"/><use xlink:href="#aI" x="519.047" y="373.442"/><use xlink:href="#aS" x="521.357" y="373.442"/><use xlink:href="#aW" x="526.346" y="373.442"/><use xlink:href="#aW" x="528.748" y="373.442"/><use xlink:href="#bg" x="531.15" y="373.442"/><use xlink:href="#aH" x="535.612" y="373.442"/></g><g><use xlink:href="#aS" x="538.813" y="373.442"/><use xlink:href="#aJ" x="543.802" y="373.442"/><use xlink:href="#aN" x="549.216" y="373.442"/></g><g><use xlink:href="#aH" x="554.62" y="373.442"/></g><g><use xlink:href="#bi" x="28.312" y="392.418"/><use xlink:href="#aP" x="32.303" y="392.418"/><use xlink:href="#aI" x="36.728" y="392.418"/><use xlink:href="#aG" x="38.918" y="392.418"/><use xlink:href="#aJ" x="43.704" y="392.418"/><use xlink:href="#aK" x="48.998" y="392.418"/><use xlink:href="#aI" x="52.065" y="392.418"/><use xlink:href="#bk" x="54.254" y="392.418"/><use xlink:href="#aP" x="59.382" y="392.418"/></g><g><use xlink:href="#aS" x="63.706" y="392.418"/><use xlink:href="#aW" x="68.574" y="392.418"/><use xlink:href="#aW" x="70.856" y="392.418"/><use xlink:href="#bg" x="73.138" y="392.418"/><use xlink:href="#bh" x="77.481" y="392.418"/></g><g><use xlink:href="#bl" x="457.603" y="279.089"/><use xlink:href="#bm" x="465.7" y="279.089"/><use xlink:href="#bn" x="471.787" y="279.089"/><use xlink:href="#bo" x="478.566" y="279.089"/><use xlink:href="#bp" x="485.388" y="279.089"/><use xlink:href="#bq" x="489.245" y="279.089"/><use xlink:href="#br" x="495.88" y="279.089"/><use xlink:href="#bo" x="502.154" y="279.089"/><use xlink:href="#bs" x="508.977" y="279.089"/><use xlink:href="#bt" x="515.316" y="279.089"/><use xlink:href="#bu" x="518.172" y="279.089"/><use xlink:href="#bn" x="527.335" y="279.089"/><use xlink:href="#bv" x="534.114" y="279.089"/></g><g><use xlink:href="#bw" x="358.555" y="296.528"/><use xlink:href="#bx" x="364.163" y="296.528"/><use xlink:href="#by" x="369.272" y="296.528"/><use xlink:href="#aH" x="375.794" y="296.528"/><use xlink:href="#ba" x="378.196" y="296.528"/><use xlink:href="#aR" x="380.912" y="296.528"/></g><g><use xlink:href="#aM" x="386.446" y="296.528"/><use xlink:href="#aL" x="391.749" y="296.528"/></g><g><use xlink:href="#aG" x="394.78" y="296.528"/></g><g><use xlink:href="#aS" x="399.408" y="296.528"/><use xlink:href="#aH" x="404.277" y="296.528"/><use xlink:href="#aT" x="406.679" y="296.528"/><use xlink:href="#aL" x="412.703" y="296.528"/><use xlink:href="#aO" x="415.835" y="296.528"/><use xlink:href="#aU" x="421.101" y="296.528"/><use xlink:href="#aH" x="425.933" y="296.528"/><use xlink:href="#aT" x="428.335" y="296.528"/><use xlink:href="#aG" x="434.359" y="296.528"/></g><g><use xlink:href="#aV" x="439.246" y="296.528"/><use xlink:href="#aG" x="443.579" y="296.528"/><use xlink:href="#aW" x="448.365" y="296.528"/><use xlink:href="#aM" x="450.647" y="296.528"/><use xlink:href="#aX" x="455.95" y="296.528"/><use xlink:href="#aY" x="461.354" y="296.528"/><use xlink:href="#aG" x="469.521" y="296.528"/><use xlink:href="#aJ" x="474.307" y="296.528"/><use xlink:href="#aK" x="479.601" y="296.528"/><use xlink:href="#aH" x="482.668" y="296.528"/><use xlink:href="#aZ" x="485.07" y="296.528"/></g><g><use xlink:href="#aO" x="489.653" y="296.528"/><use xlink:href="#aJ" x="494.919" y="296.528"/><use xlink:href="#aN" x="500.213" y="296.528"/><use xlink:href="#bz" x="505.617" y="296.528"/><use xlink:href="#aH" x="507.751" y="296.528"/><use xlink:href="#aR" x="510.153" y="296.528"/></g><g><use xlink:href="#by" x="515.558" y="296.528"/><use xlink:href="#be" x="522.081" y="296.528"/><use xlink:href="#bx" x="527.513" y="296.528"/><use xlink:href="#bA" x="532.622" y="296.528"/><use xlink:href="#bb" x="537.861" y="296.528"/></g><path d="M28.313 792.695h526.6" fill="none" stroke="#1f3d90" stroke-width=".99879"/></svg>