<svg xmlns="http://www.w3.org/2000/svg" xmlns:xlink="http://www.w3.org/1999/xlink" width="793.701" height="1122.52" viewBox="0 0 595.276 841.89" version="1.2"><defs><symbol overflow="visible" id="a"><path d="M1.75-.75h1.969V0H.172L2-2.219c.184-.215.336-.406.453-.562.121-.164.219-.305.281-.422.133-.207.204-.399.204-.578a.814.814 0 0 0-.266-.61.924.924 0 0 0-.64-.25c-.532 0-.84.317-.923.938H.33C.448-4.805 1.007-5.36 2-5.36c.488 0 .895.152 1.219.453.32.304.484.68.484 1.125 0 .293-.074.582-.219.86-.086.136-.199.304-.343.5-.149.198-.336.433-.563.702zm0 0"/></symbol><symbol overflow="visible" id="b"><path d="M2.969-4.531H.359v-.75h3.938L.969.187l-.64-.406zm0 0"/></symbol><symbol overflow="visible" id="c"><path d="M1.797-4h1.14v-.188H.422V-4h1.187v.688c0 1.124-.53 2-1.265 2.374l.14.157c.594-.328 1.047-.953 1.22-1.813.187.75.624 1.328 1.171 1.64l.14-.155c-.703-.36-1.218-1.204-1.218-2.204zm2.797-.89v2.234h-.969V-4.75h-.203V.11h.203v-2.563h.969v2.86h.203v-5.298zm0 0"/></symbol><symbol overflow="visible" id="d"><path d="M3.484-2.438c-.78.157-1.437.188-2.453.188H.844v-1.969h2.11v-.187H.64v2.343h.39c1.032 0 1.688-.046 2.5-.203zM1.422-1.421h-.203V.266h3.468V.078H1.422zm2.984-1.766v-1.718h-.203v3.843h.203v-1.953h.875v-.171zm0 0"/></symbol><symbol overflow="visible" id="e"><path d="M4.422.14h-2.86v-.859h2.86zm0-1.046h-2.86v-.813h-.187V.313h3.25V-1.72h-.203zM2.734-2.437H.86v-1.047h1.875zm1.704-2.454V-3.5H2.921v-1.11h-.188v.954H.86v-.953H.656v2.359h2.266v-1.063h1.515v1.297h.188V-4.89zm0 0"/></symbol><symbol overflow="visible" id="f"><path d="M4.625-4.89h-.188v3.937h.188zM.703-3.235c0-.594.485-1.079 1.14-1.079.641 0 1.126.485 1.126 1.079 0 .609-.485 1.093-1.125 1.093-.657 0-1.14-.484-1.14-1.093zm2.453 0c0-.735-.547-1.266-1.312-1.266-.782 0-1.328.531-1.328 1.266 0 .75.546 1.265 1.328 1.265.765 0 1.312-.515 1.312-1.265zM1.546.078v-1.453H1.36v1.64h3.47V.079zm0 0"/></symbol><symbol overflow="visible" id="h"><path d="M.703-4.328V-1h2.313v-3.328zm2.125.172v2.984H.891v-2.984zm1.594-.735V.406h.203V-4.89zm0 0"/></symbol><symbol overflow="visible" id="i"><path d="M.75-1.14v-1.454H2.5v-1.672H.547v.188h1.765v1.297H.563V-.97h.329c.671 0 1.28-.031 2.078-.172l-.016-.171c-.781.14-1.406.171-2.062.171zm3.844-3.75v2.171H3.578V-4.75h-.203V.11h.203v-2.641h1.016V.406h.203V-4.89zm0 0"/></symbol><symbol overflow="visible" id="j"><path d="M2.094-4.469c-.828 0-1.39.469-1.39 1.188 0 .703.562 1.187 1.39 1.187.812 0 1.375-.484 1.375-1.187 0-.719-.563-1.188-1.375-1.188zm0 .172c.687 0 1.172.438 1.172 1.016 0 .562-.485 1-1.172 1-.703 0-1.188-.438-1.188-1 0-.578.485-1.016 1.188-1.016zm2.265-.594V.406h.204V-4.89zM.438-.844c.968 0 2.312 0 3.546-.234l-.03-.156c-1.188.203-2.563.203-3.563.203zm0 0"/></symbol><symbol overflow="visible" id="k"><path d="M3.516-4.234h-1.47v-.688H1.86v.688H.391v.171h3.125zm-2.61 1.5c0-.454.406-.766 1.047-.766.625 0 1.047.313 1.047.766 0 .437-.422.75-1.047.75-.64 0-1.047-.313-1.047-.75zm2.281 0c0-.579-.5-.938-1.234-.938-.75 0-1.234.36-1.234.938 0 .562.484.921 1.234.921.734 0 1.234-.359 1.234-.921zM1.063-1.063h3.14v1.47h.203v-1.641H1.063zm4.203-2.28h-.86v-1.548h-.203v3.297h.203v-1.562h.86zm0 0"/></symbol><symbol overflow="visible" id="l"><path d="M.64-3.25c0-.61.485-1.094 1.141-1.094.657 0 1.14.485 1.14 1.094 0 .61-.483 1.11-1.14 1.11-.656 0-1.14-.5-1.14-1.11zm3.797-.547v1.078H3a1.2 1.2 0 0 0 .11-.531A1.55 1.55 0 0 0 3-3.797zm0 1.25v1.61h.188v-3.954h-.188v.922H2.891c-.22-.344-.625-.562-1.11-.562-.765 0-1.328.515-1.328 1.281 0 .766.563 1.281 1.328 1.281.5 0 .907-.218 1.125-.578zM1.563.078v-1.437h-.187V.266h3.438V.078zm0 0"/></symbol><symbol overflow="visible" id="m"><path d="M5.14-2.219h-.874c.171-.781.171-1.344.171-1.844v-.453H1.017v.188h3.218v.266c0 .5 0 1.062-.171 1.843H.358v.172h2.297V.406h.188v-2.453H5.14zm0 0"/></symbol><symbol overflow="visible" id="o"><path d="M.719-1.953c.625-.219 1.187-.688 1.406-1.313.234.594.781 1.032 1.422 1.25l.14-.25c-.75-.234-1.406-.843-1.406-1.609v-.031H3.61v-.266H2.281v-.703H1.97v.703H.672v.266h1.297v.031c0 .797-.657 1.422-1.407 1.672zm1.562-.188H1.97v1.094C1.39-1.03.844-1.03.375-1.03l.047.281c.969 0 2.297 0 3.515-.219l-.015-.25c-.531.094-1.094.125-1.64.157zm2.016-2.765V.422h.312v-5.328zm0 0"/></symbol><symbol overflow="visible" id="p"><path d="M4.672-4.906h-.313v3.922h.313zM3.516-2.141c-.75-.296-1.391-1.046-1.391-1.921v-.547h-.313v.546c0 .907-.625 1.704-1.375 2.016l.188.266c.61-.282 1.14-.86 1.344-1.578a2.462 2.462 0 0 0 1.375 1.468zM1.64.016v-1.36h-.313V.281H4.86V.016zm0 0"/></symbol><symbol overflow="visible" id="q"><path d="M2.75.156c-.906 0-1.5-.265-1.5-.703 0-.422.594-.687 1.5-.687s1.484.265 1.484.687c0 .438-.578.703-1.484.703zm0-1.64c-1.125 0-1.813.343-1.813.937 0 .625.688.953 1.813.953S4.563.078 4.563-.547c0-.594-.688-.937-1.813-.937zm.14-.735v-.703h1.688v-.281H1.266v-1.188h3.28v-.265H.954v1.734h1.64v.703H.344v.281h4.813v-.28zm0 0"/></symbol><symbol overflow="visible" id="r"><path d="M3.516-4.25H2.094v-.719H1.78v.719H.36v.266h3.157zM.984-2.734c0-.391.391-.672.954-.672.578 0 .953.281.953.672 0 .406-.375.687-.954.687-.562 0-.953-.281-.953-.687zm2.204 0c0-.579-.5-.922-1.25-.922-.766 0-1.266.344-1.266.922 0 .578.5.937 1.265.937.75 0 1.25-.36 1.25-.937zM2.796.14c-.844 0-1.39-.235-1.39-.641s.546-.64 1.39-.64c.844 0 1.39.234 1.39.64s-.546.64-1.39.64zm0-1.547c-1.063 0-1.703.328-1.703.906 0 .578.64.906 1.703.906C3.859.406 4.5.078 4.5-.5c0-.578-.64-.906-1.703-.906zM5.28-3.625v-.266h-.828v-1.015h-.328v3.453h.328V-2.5h.828v-.266h-.828v-.859zm0 0"/></symbol><symbol overflow="visible" id="s"><path d="M1.266-3.203H4.25v1.11H1.266zm1.64 2.64v-1.25h1.656v-2.703H4.25v1.032H1.266v-1.032H.937v2.704h1.657v1.25H.344v.265h4.828v-.266zm0 0"/></symbol><symbol overflow="visible" id="t"><path d="M4.188-3.781c0 .64 0 1.36-.188 2.36l.328.046c.188-1.047.188-1.766.188-2.406v-.531H.859v.25h3.329zM2.625-.671V-2.61h-.313v1.937H.345v.281h4.812v-.28zm0 0"/></symbol><symbol overflow="visible" id="u"><path d="M2.125-4.422h-.328v1.063c0 .984-.719 1.984-1.422 2.375l.203.25c.578-.344 1.156-1.079 1.39-1.907.22.797.813 1.485 1.407 1.813l.188-.266c-.704-.36-1.438-1.312-1.438-2.265zm2.234-.484v1.89H2.984v.266H4.36V.422h.329v-5.328zm0 0"/></symbol><symbol overflow="visible" id="v"><path d="M1.453 0h.406l1.422-4.375h-.375l-.781 2.516c-.156.53-.281.937-.453 1.468H1.64c-.172-.53-.282-.937-.454-1.468l-.78-2.516H.03zm0 0"/></symbol><symbol overflow="visible" id="w"><path d="M1.781.078c.782 0 1.453-.61 1.453-1.672 0-1.062-.671-1.687-1.453-1.687-.765 0-1.437.625-1.437 1.687C.344-.53 1.016.078 1.78.078zm0-.297C1.156-.219.703-.78.703-1.594c0-.812.453-1.375 1.078-1.375s1.094.563 1.094 1.375c0 .813-.469 1.375-1.094 1.375zm0 0"/></symbol><symbol overflow="visible" id="x"><path d="M1.031.078c.11 0 .172-.015.235-.031l-.063-.281c-.062.015-.094.015-.11.015-.077 0-.14-.062-.14-.218v-4.329h-.36v4.297c0 .36.141.547.438.547zm0 0"/></symbol><symbol overflow="visible" id="y"><path d="M.75-.156c.156 0 .313-.11.313-.313A.317.317 0 0 0 .75-.797a.317.317 0 0 0-.313.328c0 .203.157.313.313.313zm0 0"/></symbol><symbol overflow="visible" id="z"><path d="M.547 0h2.265v-.313h-.921v-4.062h-.282c-.203.125-.468.219-.828.281v.235h.766v3.546h-1zm0 0"/></symbol><symbol overflow="visible" id="A"><path d="M11.5-9.75H4.094v-1.453H11.5zm1.375-3.953H11.5v1.437H4.094v-1.437H2.719v5.031h10.156zM3.953-1.5h8.953v-3.39H2.546v1.046h8.985V-2.5H2.594v3.594h10.765V.016H3.953zM.891-7.39v1.109h13.78v-1.11zm0 0"/></symbol><symbol overflow="visible" id="B"><path d="M2.422-2.156h9.219v3.281h1.39v-4.422H2.421zM8.516-5.61v-1.594h4.75v-1.078h-9.22v-1.61h8.892v-3.703H2.624v1.094h8.938v1.578H2.671v3.719h4.422v1.594H.89v1.14h13.812v-1.14zm0 0"/></symbol><symbol overflow="visible" id="C"><path d="M5.328-10.016h2.828v-1.156H5.344v-2.265H4.016v2.265H1.187v1.156h2.829v.72c0 2.5-1.172 5.171-3.235 6.39l.813 1.031c1.5-.89 2.562-2.594 3.093-4.531.563 1.843 1.641 3.39 3.125 4.218L8.61-3.25C6.563-4.344 5.33-6.86 5.33-9.297zm4.11 2.047H7.108v1.157h2.329V.452h1.328v-14.078H9.437zm3.062-6.015V1.234h1.344v-15.218zm0 0"/></symbol><symbol overflow="visible" id="D"><path d="M13.406-13.969h-1.39v11.125h1.39zM2.61-9.172c0-1.484 1.125-2.531 2.61-2.531 1.5 0 2.625 1.047 2.625 2.531 0 1.516-1.125 2.563-2.625 2.563-1.485 0-2.61-1.047-2.61-2.563zm6.594 0c0-2.187-1.719-3.734-3.984-3.734-2.266 0-3.969 1.547-3.969 3.734 0 2.203 1.703 3.766 3.969 3.766 2.265 0 3.984-1.563 3.984-3.766zM5-.219v-3.75H3.594v4.89h10.265v-1.14zm0 0"/></symbol><symbol overflow="visible" id="E"><path d="M8.844-5.438c.437-2.828.437-4.828.437-6.046v-.829H1.578v1.141h6.344c0 1.219-.047 3.063-.469 5.594zm-3.5-2.53H3.969v4.687c-1.125.031-2.25.047-3.219.047l.156 1.156c2.688 0 6.282-.063 9.438-.578l-.078-1.016c-1.547.203-3.25.297-4.922.36zm9.672.359h-2.438v-6.375h-1.39V1.25h1.39v-7.688h2.438zm0 0"/></symbol><symbol overflow="visible" id="G"><path d="M7.234-3.547H2.891v-4.015h4.343zm0-5.11H2.891v-4.03H1.516v10.28h7.078v-10.28h-1.36zm7.907.673h-2.516v-5.985h-1.39V1.234h1.39v-8.046h2.516zm0 0"/></symbol><symbol overflow="visible" id="H"><path d="M11.969-13.984v15.28h1.39v-15.28zm-6.64 1.171c-2.25 0-3.876 2.079-3.876 5.329 0 3.234 1.625 5.312 3.875 5.312 2.266 0 3.875-2.078 3.875-5.312 0-3.25-1.61-5.329-3.875-5.329zm0 1.266c1.484 0 2.53 1.594 2.53 4.063 0 2.468-1.046 4.078-2.53 4.078-1.485 0-2.548-1.61-2.548-4.078 0-2.47 1.063-4.063 2.547-4.063zm0 0"/></symbol><symbol overflow="visible" id="I"><path d="M3.578-8.984c0-1.75 1.781-2.891 4.219-2.891 2.422 0 4.187 1.14 4.187 2.89 0 1.75-1.765 2.891-4.187 2.891-2.438 0-4.219-1.14-4.219-2.89zM8.5-1.844V-5.03c2.828-.203 4.813-1.719 4.813-3.953 0-2.422-2.313-3.985-5.516-3.985-3.234 0-5.563 1.563-5.563 3.985 0 2.234 2.016 3.75 4.844 3.953v3.187H.891v1.14h13.828v-1.14zm0 0"/></symbol><symbol overflow="visible" id="J"><path d="M13.75-13.969h-1.328v11.547h1.328zM6.187-6.422h-3.28v-2.672h3.28zm1.297-2h2.047v5.547h1.313v-10.797H9.53v4.11H7.484v-3.188H6.188v2.563H2.905v-2.563H1.578v7.453h5.906zM5.22-.219v-3.734h-1.39V.922h10.374v-1.14zm0 0"/></symbol><symbol overflow="visible" id="K"><path d="M6.172-10.219h3.375v-1.125H6.172v-2.36H4.766v2.36H1.344v1.125h3.453v1.172c0 2.625-1.64 5.219-3.875 6.297l.781 1.063c1.734-.844 3.14-2.61 3.781-4.735.688 2 2.094 3.656 3.829 4.453l.765-1.078c-2.25-1-3.906-3.469-3.906-6zM12.062-14v6.14H8.767v1.141h3.296v8.016h1.391V-14zm0 0"/></symbol><symbol overflow="visible" id="L"><path d="M1.719-12.344v1.156h5.578C6.984-7.594 4.89-4.671 1-2.717l.766 1.093c4.921-2.469 6.906-6.39 6.906-10.719zm13.344 4.547h-2.438v-6.187h-1.39V1.25h1.39v-7.89h2.438zm0 0"/></symbol><symbol overflow="visible" id="M"><path d="M7.172-6.672H2.89V-11.5h4.28zm1.36-5.953h-7v7.047h7zM4.64-3.875H3.25V.922h10.156v-1.14H4.641zm8.078-5.469V-14h-1.39v11.156h1.39v-5.328h2.265v-1.172zm0 0"/></symbol><symbol overflow="visible" id="N"><path d="M2.89-12.5H1.517v9.906h1.203c2.328 0 4.656-.172 7.25-.703l-.172-1.156c-2.453.5-4.719.687-6.906.687zm12.172 4.61h-2.437v-6.094h-1.39V1.25h1.39v-8h2.438zm0 0"/></symbol><symbol overflow="visible" id="O"><path d="M7.188-6.64h-4.22v-4.891h4.22zm4.859-3.516v2.125h-3.5v-2.125zm-3.5 3.265h3.5v4.032h1.406v-11.11h-1.406v2.672h-3.5v-1.344H1.594v7.11h6.953zm-3.5 6.672v-3.625h-1.39V.922h10.155v-1.14zm0 0"/></symbol><symbol overflow="visible" id="P"><path d="M3.016-3.86h1.39c-.297-2.624 2.75-3.64 2.75-6.109 0-1.875-1.25-3.047-3.187-3.047-1.36 0-2.453.688-3.235 1.563l.875.828c.594-.672 1.36-1.078 2.188-1.078 1.234 0 1.844.797 1.844 1.828 0 2.016-3.016 3.094-2.625 6.016zm.75 3.97c.609 0 1.125-.485 1.125-1.204 0-.703-.516-1.187-1.125-1.187-.625 0-1.11.484-1.11 1.187 0 .719.485 1.203 1.11 1.203zm0 0"/></symbol><symbol overflow="visible" id="Q"><path d="M.844 0h3.484v-.469H2.922v-6.265h-.438c-.328.187-.734.328-1.28.421v.36h1.171V-.47H.844zm0 0"/></symbol><symbol overflow="visible" id="R"><path d="M1.156-.234a.478.478 0 0 0 .469-.5c0-.313-.234-.5-.469-.5-.25 0-.468.187-.468.5 0 .312.218.5.468.5zm0 0"/></symbol><symbol overflow="visible" id="T"><path d="M6.469-5.14H2.016v-.97h4.453zm.484-2.282H6.47v.922H2.016v-.922H1.53v2.688h5.422zm-5 6.531h5v-1.671h-5.5v.39H6.47v.906h-5V.531h5.75V.125H1.953zm-1.437-3v.407h7.421v-.407zm0 0"/></symbol><symbol overflow="visible" id="U"><path d="M1.344-1.406H6.53V.53h.485v-2.36H1.344zm3.14-1.563V-4h2.672v-.406H1.97V-5.47h5v-1.843H1.484v.39h5v1.063H1.5V-4h2.484v1.031H.516v.406h7.437v-.406zm0 0"/></symbol><symbol overflow="visible" id="V"><path d="M2.813-5.547h1.671v-.422H2.828v-1.297h-.484v1.297H.672v.422h1.672v.531c0 1.391-.781 2.891-1.844 3.532l.313.359c.843-.516 1.5-1.531 1.765-2.688.297 1.094.985 2.047 1.797 2.532l.313-.39c-1.079-.579-1.875-2-1.875-3.345zm2.5 1.313H3.875v.406h1.438V.187h.484v-7.53h-.484zm1.656-3.329V.642h.468v-8.204zm0 0"/></symbol><symbol overflow="visible" id="W"><path d="M7.188-7.547h-.485V-1.5h.484zM1.234-4.984c0-.875.688-1.532 1.594-1.532.922 0 1.61.657 1.61 1.532 0 .89-.688 1.562-1.61 1.562-.906 0-1.594-.672-1.594-1.562zm3.672 0c0-1.157-.875-1.97-2.078-1.97-1.187 0-2.078.813-2.078 1.97 0 1.187.89 2 2.078 2 1.203 0 2.078-.813 2.078-2zM2.531.03V-2.14h-.484V.438h5.422V.03zm0 0"/></symbol><symbol overflow="visible" id="X"><path d="M6.688-7.547V.641h.484v-8.188zm-3.782.656C1.703-6.89.875-5.78.875-4.078c0 1.719.828 2.828 2.031 2.828 1.188 0 2.031-1.11 2.031-2.828 0-1.703-.843-2.813-2.03-2.813zm0 .438c.922 0 1.563.984 1.563 2.375 0 1.406-.64 2.39-1.563 2.39-.922 0-1.562-.984-1.562-2.39 0-1.39.64-2.375 1.562-2.375zm0 0"/></symbol><symbol overflow="visible" id="Y"><path d="M5.422-3.547c-1.375.235-2.469.281-3.89.281h-.126v-1.53h3.14V-7H.892v.422h3.187v1.39H.922v2.329h.61c1.437 0 2.546-.047 3.937-.266zM2.39-1.969h-.485V.438h5.36V.03H2.39zm4.453-2.968v-2.61h-.485v6.031h.485v-3h1.281v-.421zm0 0"/></symbol><symbol overflow="visible" id="Z"><path d="M6.484-4.344H2v-2.328h4.484zm.485-2.734H1.516v3.14h5.453zm.984 4.39H.516v.422h3.453V.641h.484v-2.907h3.5zm0 0"/></symbol><symbol overflow="visible" id="aa"><path d="M1.14-5.031c0-.86.673-1.532 1.61-1.532.922 0 1.594.672 1.594 1.532 0 .875-.672 1.531-1.594 1.531-.938 0-1.61-.656-1.61-1.531zm5.579.218v2.954h.484v-5.688H6.72v2.313H4.812c-.109-1.032-.937-1.75-2.062-1.75-1.203 0-2.078.796-2.078 1.953 0 1.156.875 1.968 2.078 1.968 1.11 0 1.953-.718 2.063-1.75zM4.89-2.578h-.516v.36c0 1.296-1.563 2.171-2.844 2.421l.203.39C2.891.36 4.172-.311 4.625-1.39 5.094-.312 6.375.36 7.531.594l.203-.39c-1.28-.25-2.843-1.11-2.843-2.423zm0 0"/></symbol><symbol overflow="visible" id="ab"><path d="M.984-6.656v.422h3.22c-.126 2-1.345 3.75-3.563 4.843L.92-1c2.61-1.297 3.766-3.406 3.766-5.656zm7.204 2.531H6.766v-3.422h-.5V.641h.5v-4.329h1.421zm0 0"/></symbol><symbol overflow="visible" id="ac"><path d="M1.656-1.953h.485c-.188-1.531 1.5-2.14 1.5-3.516 0-.906-.594-1.578-1.594-1.578-.703 0-1.266.36-1.672.797l.328.297c.328-.39.797-.625 1.281-.625.782 0 1.125.531 1.125 1.14 0 1.235-1.671 1.813-1.453 3.485zM1.938.03a.478.478 0 0 0 .468-.5c0-.312-.234-.515-.469-.515-.25 0-.468.203-.468.515 0 .313.218.5.468.5zm0 0"/></symbol><symbol overflow="visible" id="ad"><path d="M.422 0h4.047v-.484H2.375c-.36 0-.734.03-1.11.062 1.798-1.672 2.876-3.094 2.876-4.5 0-1.156-.688-1.937-1.86-1.937-.812 0-1.39.406-1.89.984l.343.313c.391-.485.907-.844 1.485-.844.953 0 1.375.656 1.375 1.5 0 1.218-.89 2.61-3.172 4.578zm0 0"/></symbol><symbol overflow="visible" id="ae"><path d="M4.14-1.781H1.39v-2.39h2.75zm0-2.797H1.39v-2.266h-.5v5.485h3.735v-5.485h-.484zm4.063.344H6.766v-3.313h-.5V.641h.5v-4.422h1.437zm0 0"/></symbol><symbol overflow="visible" id="af"><path d="M1.75-4.86c0-1 1.063-1.687 2.469-1.687 1.422 0 2.468.688 2.468 1.688 0 .984-1.046 1.671-2.468 1.671-1.407 0-2.469-.687-2.469-1.671zM4.469-.874v-1.922c1.593-.078 2.687-.875 2.687-2.062 0-1.266-1.218-2.079-2.937-2.079-1.703 0-2.922.813-2.922 2.079 0 1.187 1.094 1.984 2.687 2.062v1.922H.516v.406h7.437v-.406zm0 0"/></symbol><symbol overflow="visible" id="ag"><path d="M.094.938H.53L3.578-7.97h-.437zm0 0"/></symbol><symbol overflow="visible" id="ah"><path d="M7.39-7.547h-.468v4.625h.469zm-2.952 2.25v.406h1.046v1.875h.47v-4.406h-.47v2.125zm.218-1.36H2.813v-.921h-.485v.922H.484v.39h4.172zM1.313-4.483c0-.579.5-.985 1.25-.985s1.25.407 1.25.985c0 .578-.5.984-1.25.984s-1.25-.406-1.25-.984zm2.937 0c0-.844-.688-1.375-1.688-1.375S.875-5.33.875-4.484c0 .828.688 1.359 1.688 1.359s1.687-.531 1.687-1.36zM2.578.125v-.969h4.813V-2.53H2.094v.39h4.828v.907H2.109V.53h5.61V.125zm0 0"/></symbol><symbol overflow="visible" id="ai"><path d="M7.516-3.297C6.359-3.53 4.453-4.766 4.453-6.28v-.657h-.5v.657c0 1.531-1.86 2.75-3.031 2.984l.219.422c1.093-.297 2.562-1.203 3.062-2.484.516 1.28 2 2.203 3.078 2.484zm-7 2.36v.406h7.437v-.406zm0 0"/></symbol><symbol overflow="visible" id="aj"><path d="M5.266-4.234H3.719a7.116 7.116 0 0 0 .375-2.329H.984v.407H3.61c-.03.515-.093 1.031-.25 1.531l-2.78.188.093.453 2.547-.25C2.797-3.188 2-2.204.625-1.484l.281.375c1.344-.735 2.172-1.688 2.64-2.72h1.72V.189h.484v-7.516h-.484zm1.703-3.329V.642h.468v-8.204zm0 0"/></symbol><symbol overflow="visible" id="ak"><path d="M2.672-1.688c-.906 0-1.531-.984-1.531-2.39 0-1.39.625-2.375 1.53-2.375.907 0 1.532.984 1.532 2.375 0 1.406-.625 2.39-1.531 2.39zm4.047-5.859v3.219H4.656c-.078-1.563-.875-2.563-1.984-2.563C1.5-6.89.687-5.78.687-4.078c0 1.719.813 2.828 1.985 2.828 1.14 0 1.953-1.047 2-2.672h2.047V.641h.484v-8.188zm0 0"/></symbol><symbol overflow="visible" id="al"><path d="M1.14-5.14c0-.844.673-1.485 1.61-1.485.922 0 1.594.64 1.594 1.484 0 .86-.672 1.5-1.594 1.5-.938 0-1.61-.64-1.61-1.5zm5.579-.766v1.531H4.672c.094-.234.156-.484.156-.766 0-.265-.062-.53-.156-.765zm0 1.937v1.297h.484v-4.89H6.72v1.25H4.422c-.375-.454-.969-.735-1.672-.735-1.203 0-2.078.781-2.078 1.906 0 1.141.875 1.922 2.078 1.922.703 0 1.297-.281 1.672-.75zM4.547.22c-1.328 0-2.203-.438-2.203-1.14 0-.688.875-1.141 2.203-1.141 1.344 0 2.219.453 2.219 1.14 0 .703-.875 1.14-2.22 1.14zm0-2.688c-1.672 0-2.688.563-2.688 1.547C1.86.063 2.875.625 4.547.625c1.672 0 2.687-.563 2.687-1.547S6.22-2.469 4.547-2.469zm0 0"/></symbol><symbol overflow="visible" id="am"><path d="M1.797-1.813h4.922V.642h.484v-2.875H1.797zm2.89-2.593c.094-.219.141-.469.141-.735 0-.265-.047-.515-.14-.734h2.03v1.469zm-1.937.781c-.938 0-1.61-.656-1.61-1.516 0-.859.673-1.53 1.61-1.53.922 0 1.594.671 1.594 1.53 0 .86-.672 1.516-1.594 1.516zm3.969-3.938v1.282H4.453c-.36-.5-.984-.797-1.703-.797-1.203 0-2.078.797-2.078 1.937 0 1.141.875 1.922 2.078 1.922.719 0 1.344-.297 1.703-.781H6.72v1.266h.484v-4.829zm0 0"/></symbol><symbol overflow="visible" id="an"><path d="M2.375-1.703c-.766 0-1.281-.953-1.281-2.328s.515-2.344 1.281-2.344c.766 0 1.266.969 1.266 2.344s-.5 2.328-1.266 2.328zm3-2.563H4.109c-.062-1.562-.734-2.546-1.734-2.546-1.047 0-1.734 1.078-1.734 2.78 0 1.688.687 2.782 1.734 2.782 1.016 0 1.672-1 1.734-2.594h1.266V.203h.469v-7.562h-.469zm1.61-3.296V.64h.468v-8.204zm0 0"/></symbol><symbol overflow="visible" id="ao"><path d="M3.266-6.797h-.5v1.64c0 1.485-1.11 3.048-2.188 3.626l.313.39c.906-.515 1.78-1.64 2.125-2.937.359 1.234 1.265 2.312 2.171 2.797l.282-.407c-1.078-.53-2.203-2.03-2.203-3.468zm3.453-.75v2.906H4.594v.407h2.125v4.89h.484v-8.203zm0 0"/></symbol><symbol overflow="visible" id="ap"><path d="M3.188-6.922c-1.266 0-2.157.75-2.157 1.875 0 1.11.89 1.875 2.157 1.875 1.28 0 2.171-.765 2.171-1.875 0-1.125-.89-1.875-2.171-1.875zm0 .422c.984 0 1.703.61 1.703 1.453 0 .844-.72 1.453-1.704 1.453-.968 0-1.687-.61-1.687-1.453 0-.844.719-1.453 1.688-1.453zm3.421-1.047V.656h.485v-8.203zM.656-1.234c1.5 0 3.531 0 5.422-.344l-.047-.375c-1.828.281-3.922.297-5.453.297zm0 0"/></symbol><symbol overflow="visible" id="aq"><path d="M5.469-6.86h-2.14v-.78h-.485v.78H.719v.376h4.75zM1.687-5.061c0-.454.563-.75 1.391-.75.844 0 1.406.296 1.406.75 0 .421-.562.718-1.406.718-.828 0-1.39-.297-1.39-.718zm4.047 1.437a23.73 23.73 0 0 1-2.406.219V-4c1-.063 1.61-.453 1.61-1.063 0-.687-.735-1.093-1.86-1.093s-1.86.406-1.86 1.093c0 .61.626 1 1.626 1.063v.61c-.844.03-1.656.03-2.328.03l.062.391c1.438 0 3.422 0 5.188-.312zM2.11-.75h4.672v-1.547H1.61v.375h4.704v.797H1.625V.531h5.5v-.39H2.109zm4.672-4.61v-2.187h-.484v4.844h.484v-2.235h1.313v-.421zm0 0"/></symbol><symbol overflow="visible" id="ar"><path d="M4.234.234c-1.406 0-2.296-.39-2.296-1.046 0-.641.89-1.047 2.296-1.047 1.407 0 2.297.406 2.297 1.046 0 .657-.89 1.047-2.297 1.047zm0-2.484c-1.75 0-2.796.516-2.796 1.438C1.438.109 2.484.625 4.233.625 5.97.625 7.016.109 7.016-.813c0-.921-1.047-1.437-2.782-1.437zM2.938-4.531c.374.078.796.125 1.28.125.5 0 .938-.047 1.329-.125v1.125h-2.61zM1.89-5.906c0-.672.921-1.078 2.328-1.078 1.437 0 2.343.406 2.343 1.078s-.906 1.11-2.343 1.11c-1.407 0-2.328-.438-2.328-1.11zm4.125 2.5v-1.266c.671-.25 1.046-.672 1.046-1.234 0-.953-1.078-1.485-2.843-1.485-1.75 0-2.828.532-2.828 1.485 0 .562.375 1 1.062 1.25v1.25H.531v.422h7.407v-.422zm0 0"/></symbol><symbol overflow="visible" id="as"><path d="M4.156-3.734h-2.75v-1.547h2.75zm.485-3.313h-.485v1.36h-2.75v-1.36H.922v3.734H4.64zM4.25.22C2.953.219 2.094-.187 2.094-.86c0-.657.86-1.079 2.156-1.079 1.328 0 2.172.422 2.172 1.079 0 .671-.844 1.078-2.172 1.078zm0-2.563c-1.64 0-2.64.547-2.64 1.485 0 .953 1 1.484 2.64 1.484 1.656 0 2.656-.531 2.656-1.484 0-.938-1-1.485-2.656-1.485zm2.594-3.062v-2.14h-.485v4.968h.485v-2.406h1.281v-.422zm0 0"/></symbol><symbol overflow="visible" id="at"><path d="M1.203-4.969c0-.89.703-1.547 1.625-1.547.906 0 1.594.657 1.594 1.547 0 .89-.688 1.547-1.594 1.547-.922 0-1.625-.656-1.625-1.547zm3.703 0c0-1.172-.89-1.984-2.078-1.984-1.219 0-2.094.812-2.094 1.984s.875 1.985 2.094 1.985c1.188 0 2.078-.813 2.078-1.985zM2.328-2.094h-.484V.437H7.25V.031H2.328zm4.516-2.89v-2.579h-.485v6.079h.485v-3.079h1.281v-.421zm0 0"/></symbol><symbol overflow="visible" id="au"><path d="M4.234-6.86c1.407 0 2.329.47 2.329 1.204S5.64-4.453 4.233-4.453c-1.406 0-2.343-.469-2.343-1.203 0-.735.937-1.203 2.343-1.203zm0 2.813c1.735 0 2.829-.594 2.829-1.61 0-1.015-1.094-1.609-2.829-1.609-1.75 0-2.843.594-2.843 1.61 0 1.015 1.093 1.61 2.843 1.61zM2-1.937h-.484V.438h5.609V.03H2zM.516-3.173v.422h7.421v-.422zm0 0"/></symbol><symbol overflow="visible" id="av"><path d="M2.375.125c1.156 0 2.031-.734 2.031-1.906 0-.953-.656-1.563-1.468-1.735v-.046c.718-.235 1.234-.797 1.234-1.672 0-1.032-.781-1.625-1.813-1.625-.765 0-1.343.359-1.812.796l.328.36c.36-.39.89-.703 1.469-.703.781 0 1.281.484 1.281 1.218 0 .797-.516 1.438-2 1.438v.453c1.61 0 2.234.61 2.234 1.516 0 .86-.625 1.437-1.5 1.437C1.5-.344.984-.75.594-1.156l-.313.36c.438.452 1.063.921 2.094.921zm0 0"/></symbol><symbol overflow="visible" id="aw"><path d="M5.234-3.281c-1.14-.422-2.109-1.5-2.109-2.672v-1.11h-.469v1.079c0 1.359-.937 2.468-2.11 2.921l.266.407c.97-.406 1.766-1.203 2.094-2.281C3.25-4 4.062-3.25 4.984-2.892zM2.36-2.047h-.5V.438h5.375V.03H2.36zm4.485-2.922v-2.593h-.485v6.109h.485v-3.094h1.281v-.422zm0 0"/></symbol><symbol overflow="visible" id="ax"><path d="M6.719.11H2.562v-1.235H6.72zm0-1.641H2.562V-2.72h-.484V.516h5.125V-2.72H6.72zM2.75-3.844c-.938 0-1.61-.625-1.61-1.453 0-.828.673-1.437 1.61-1.437.922 0 1.594.609 1.594 1.437 0 .828-.672 1.453-1.594 1.453zm3.969-3.703v2.031H4.812c-.125-1-.937-1.64-2.062-1.64-1.219 0-2.078.75-2.078 1.86 0 1.109.86 1.874 2.078 1.874 1.14 0 1.953-.672 2.063-1.672h1.906v1.938h.484v-4.39zm0 0"/></symbol><symbol overflow="visible" id="ay"><path d="M4.156-4.078h-2.75v-1.453h2.75zm.485-3.156h-.485v1.296h-2.75v-1.296H.922v3.562H4.64zM2.25-1h4.594v-1.828H1.75v.39h4.61v1.047H1.765V.531h5.406V.125H2.25zm4.594-4.688v-1.875h-.485v4.282h.485v-1.985h1.265v-.421zm0 0"/></symbol><symbol overflow="visible" id="az"><path d="M4.86-5.203v.406h1.859v3.281h.484v-6.03H6.72v2.343zm.437 1.937c-1.125-.406-2.078-1.437-2.078-2.546v-.594H5.14v-.422H.78v.422H2.75v.593c0 1.235-1.016 2.344-2.156 2.766l.265.39c.954-.374 1.797-1.187 2.125-2.218.344.906 1.141 1.656 2.063 2.016zM2.563.031v-2.094h-.485v2.5h5.375V.031zm0 0"/></symbol><symbol overflow="visible" id="aA"><path d="M4.234-7.016c1.422 0 2.329.391 2.329 1.047 0 .657-.907 1.047-2.329 1.047-1.437 0-2.343-.39-2.343-1.047 0-.656.906-1.047 2.343-1.047zm0 2.485c1.782 0 2.829-.516 2.829-1.438 0-.922-1.047-1.437-2.829-1.437-1.78 0-2.843.515-2.843 1.437S2.453-4.53 4.234-4.53zM1.954-.938h5v-1.687h-5.5v.406h5.015v.906h-5V.532h5.75V.125H1.953zM.515-3.89v.422h7.421v-.422zm0 0"/></symbol><symbol overflow="visible" id="aB"><path d="M3.219-6.719c.922 0 1.578.516 1.578 1.219 0 .719-.656 1.25-1.578 1.25S1.64-4.781 1.64-5.5c0-.703.656-1.219 1.578-1.219zm0 2.875c1.203 0 2.047-.656 2.047-1.656 0-.969-.844-1.64-2.047-1.64-1.203 0-2.047.671-2.047 1.64 0 1 .844 1.656 2.047 1.656zm2.797.516c-1.844.265-3.954.297-5.532.297l.079.437c.734 0 1.578-.015 2.453-.047V.391h.5v-3.063c.828-.047 1.703-.14 2.546-.281zm.656-4.219V.656h.484v-8.203zm0 0"/></symbol><symbol overflow="visible" id="aC"><path d="M2.578-1.75c-.75 0-1.297-.61-1.297-1.406 0-.781.547-1.406 1.297-1.406.75 0 1.297.625 1.297 1.406 0 .797-.547 1.406-1.297 1.406zm0-3.234c-1 0-1.734.75-1.734 1.828s.734 1.828 1.734 1.828c1.016 0 1.75-.75 1.75-1.828s-.734-1.828-1.75-1.828zm.25-2.313h-.484v1.25H.516v.406h4.14v-.406H2.828zm4.094-.25v3.516H5.625v-3.313h-.484V.22h.484V-3.61h1.297V.64h.484v-8.188zm0 0"/></symbol><symbol overflow="visible" id="aD"><path d="M6.719-5.86v1.141H4.375v.407h2.344v.984h.484v-4.219H6.72v1.281H4.625c.063-.265.11-.546.11-.828H1.077v.422h3.125c-.11 1.5-1.453 2.594-3.516 3.11l.188.406C2.672-3.61 4-4.546 4.5-5.86zM2.516.157v-1.203h4.687v-1.86H2v.407h4.719v1.047H2.03V.563h5.5V.156zm0 0"/></symbol><symbol overflow="visible" id="aE"><path d="M2.703-1.688c-.906 0-1.547-.984-1.547-2.39 0-1.39.64-2.375 1.547-2.375.89 0 1.531.984 1.531 2.375 0 1.406-.64 2.39-1.53 2.39zm0-5.203C1.516-6.89.688-5.78.688-4.078c0 1.719.828 2.828 2.015 2.828 1.172 0 2-1.11 2-2.828 0-1.703-.828-2.813-2-2.813zm5.469 1.907v-.422H6.766v-2.14h-.5V.64h.5v-3.157h1.406v-.421H6.766v-2.047zm0 0"/></symbol><symbol overflow="visible" id="aF"><path d="M2.969-1.703c-.875 0-1.485-.61-1.485-1.422 0-.813.61-1.422 1.485-1.422.86 0 1.484.61 1.484 1.422 0 .813-.625 1.422-1.484 1.422zm0-3.266c-1.14 0-1.953.766-1.953 1.844 0 1.094.812 1.844 1.953 1.844 1.125 0 1.937-.75 1.937-1.844 0-1.078-.812-1.844-1.937-1.844zm.219-2.515h-.485v1.28H.47v.423h4.875v-.422H3.187zm5.015 3.406H6.766v-3.484h-.5V.64h.5v-4.313h1.437zm0 0"/></symbol><symbol overflow="visible" id="aG"><path d="M7.078-4.938H2.062v-2.328h-.5v2.735h5.516zm-5.062 3H1.53V.438h5.594V.017h-5.11zM.516-3.28v.422h7.437v-.422zm0 0"/></symbol><symbol overflow="visible" id="aH"><path d="M7.469-4.781C6.266-4.953 4.484-5.86 4.484-7.016v-.437h-.5v.437c0 1.172-1.765 2.063-3 2.235l.204.406c1.156-.219 2.562-.875 3.046-1.89.5 1 1.922 1.671 3.047 1.89zm.468 1.61v-.423H.516v.422h3.468v1.188h-2.64v.421h5.172V.642h.5v-2.625H4.469v-1.188zm0 0"/></symbol><symbol overflow="visible" id="aI"><path d="M2.813-6.11h1.624v-.406H.642v.407h1.703v.953c0 1.562-.797 3.062-1.89 3.718l.327.375c.844-.53 1.516-1.578 1.797-2.78.281 1.124.922 2.077 1.75 2.593l.313-.375C3.562-2.25 2.812-3.703 2.812-5.156zm2.5 1.579H3.796v.422h1.515V.187h.485v-7.515h-.484zm1.656-3.016V.641h.468v-8.188zm0 0"/></symbol><symbol overflow="visible" id="aJ"><path d="M7.047-5.203h-5v-1.61h4.906v-.406H1.547v2.438h5.5zM1.953-.922h5v-1.781h-5.5v.406H6.47v.985h-5V.516h5.75V.125H1.953zM.531-3.984v.421h7.407v-.421zm0 0"/></symbol><symbol overflow="visible" id="aV"><path d="M7.969-3.734v-.422h-1.25c.218-1.032.218-1.813.218-2.422v-.563H1.484v.407H6.47v.156c0 .61 0 1.375-.25 2.422H.516v.422h3.468v1.703H1.313v.422H6.53V.64h.5v-2.672H4.484v-1.703zm0 0"/></symbol><symbol overflow="visible" id="aW"><path d="M1.469-6.516H.984v4.97h.485c.922 0 1.843-.063 3-.298l-.063-.422C3.296-2.046 2.36-2 1.47-2zm5.5-1.046v3.437H5.547v-3.234h-.484V.203h.484v-3.89h1.422V.64h.468v-8.204zm0 0"/></symbol><symbol overflow="visible" id="aX"><path d="M1.344-1.906V-6.11h2.578v-.422H.859v5.047h.5c1.36 0 2.157-.047 3.125-.266l-.078-.422c-.922.219-1.703.266-3.047.266zm5.625-5.64v3.359H5.547v-3.157h-.469V.188h.469v-3.954h1.422V.641h.468v-8.188zm0 0"/></symbol><symbol overflow="visible" id="aY"><path d="M1.031-6.656v.422h3.266C4.172-4.204 2.922-2.47.672-1.375l.265.406c2.641-1.297 3.86-3.39 3.86-5.687zm5.672-.89V.64h.484v-8.188zm0 0"/></symbol><symbol overflow="visible" id="aZ"><path d="M2.25 0h.61l2.187-6.734h-.563L3.281-2.86c-.265.812-.437 1.437-.719 2.25h-.03c-.266-.813-.438-1.438-.688-2.25L.625-6.734H.031zm0 0"/></symbol><symbol overflow="visible" id="ba"><path d="M3.39.125c.876 0 1.5-.36 2.016-.969l-.312-.344c-.469.516-.985.813-1.672.813-1.406 0-2.281-1.172-2.281-3.016 0-1.812.89-2.968 2.312-2.968.625 0 1.094.28 1.453.687l.328-.375a2.377 2.377 0 0 0-1.78-.812C1.75-6.86.546-5.516.546-3.375c0 2.156 1.187 3.5 2.844 3.5zm0 0"/></symbol><symbol overflow="visible" id="bb"><path d="M7.5-4.313c-1.234-.203-3.016-1.156-3.016-2.421v-.5h-.5v.5c0 1.296-1.765 2.218-3.03 2.421l.218.407c1.156-.219 2.578-.938 3.062-2.016.5 1.063 1.922 1.797 3.063 2.016zm.438 1.47H.516v.421h3.453V.641h.484v-3.063h3.484zm0 0"/></symbol><symbol overflow="visible" id="bc"><path d="M5.25-3.531c-1.125-.438-2.094-1.5-2.094-2.688v-.937h-.484v.906c0 1.344-.938 2.469-2.094 2.922l.25.39a3.658 3.658 0 0 0 2.11-2.265c.328.937 1.14 1.687 2.046 2.062zM1.797-1.812h4.922V.64h.484v-2.86H1.797zm4.922-5.75v1.828H4.75v.421h1.969v2.579h.484v-4.829zm0 0"/></symbol><symbol overflow="visible" id="bd"><path d="M5.438-3.672c-1.141-.422-2.172-1.484-2.172-2.75v-.812H2.78v.812c0 1.313-.984 2.453-2.14 2.906l.25.391c.968-.406 1.812-1.234 2.14-2.281.36.984 1.203 1.75 2.156 2.125zm-2.97 1.719h4.25V.109h-4.25zM1.985.516h5.204V-2.36H1.984zm4.72-8.063v4.672h.484v-4.672zm0 0"/></symbol><symbol overflow="visible" id="be"><path d="M3.11-6.813h-.485v1.657c0 1.468-1.094 3.047-2.188 3.61l.313.405c.89-.515 1.766-1.625 2.125-2.89.36 1.203 1.25 2.234 2.125 2.703l.313-.375C4.234-2.25 3.108-3.734 3.108-5.156zM8.202-4.14H6.766v-3.421h-.5V.64h.5v-4.36h1.437zm0 0"/></symbol><symbol overflow="visible" id="aK"><path d="M1.11-8.594v1.14h3.124C4.031-6.108 2.766-5 .531-4.437l.547 1.125c3.016-.765 4.703-2.593 4.703-5.28zm2.5 6.625h3.843v1.657H3.61zM2.187.828h6.687v-3.937H2.187zm5.234-9.984v5.625h1.453v-5.625zm0 0"/></symbol><symbol overflow="visible" id="aL"><path d="M1.031-8.125v1.156h3.375C4.203-4.734 3.078-3.156.5-1.906l.75 1.14C4.844-2.5 5.89-5.03 5.89-8.125zm6.407-1.063V.938H8.89V-9.188zm0 0"/></symbol><symbol overflow="visible" id="aM"><path d="M1.984-6.156c0-.782.532-1.25 1.282-1.25s1.296.468 1.296 1.25c0 .781-.546 1.25-1.296 1.25s-1.282-.469-1.282-1.25zm5.5-.547v1.094H5.86c.047-.172.079-.36.079-.547 0-.188-.032-.375-.063-.547zm0 2.25v1.219h1.454v-5.938H7.484v1.313H5.25c-.484-.485-1.172-.782-1.984-.782-1.5 0-2.657 1.047-2.657 2.485 0 1.437 1.157 2.468 2.657 2.468.78 0 1.484-.28 1.968-.765zM5.5-.172c-1.328 0-2.031-.281-2.031-.875s.703-.875 2.031-.875c1.328 0 2.047.281 2.047.875s-.719.875-2.047.875zm0-2.875c-2.125 0-3.453.735-3.453 2 0 1.25 1.328 2 3.453 2 2.14 0 3.469-.75 3.469-2 0-1.266-1.328-2-3.469-2zm0 0"/></symbol><symbol overflow="visible" id="aO"><path d="M1.125 0h2c2.438 0 3.734-1.531 3.734-4.047 0-2.531-1.296-4-3.765-4H1.125zm.906-.75v-6.547h.985c1.953 0 2.906 1.188 2.906 3.25C5.922-2 4.969-.75 3.016-.75zm0 0"/></symbol><symbol overflow="visible" id="aP"><path d="M1.047 0h.89v-5.938h-.89zM1.5-7.203c.344 0 .64-.25.64-.61 0-.375-.296-.609-.64-.609-.375 0-.656.235-.656.61 0 .359.281.609.656.609zm0 0"/></symbol><symbol overflow="visible" id="aQ"><path d="M1.047 0h.89v-3.86c.407-1.046 1.016-1.406 1.516-1.406.235 0 .375.032.563.094l.187-.781c-.203-.094-.375-.125-.64-.125-.657 0-1.266.484-1.672 1.234h-.032l-.093-1.093h-.72zm0 0"/></symbol><symbol overflow="visible" id="aR"><path d="M3.39.14c.829 0 1.438-.265 1.954-.609l-.328-.578c-.454.281-.922.469-1.516.469-1.188 0-1.969-.875-2.031-2.188H5.53c.032-.14.032-.343.032-.546 0-1.704-.844-2.766-2.329-2.766-1.359 0-2.656 1.187-2.656 3.125C.578-1.016 1.828.14 3.391.14zM1.454-3.421c.125-1.219.906-1.937 1.781-1.937.97 0 1.547.671 1.547 1.937zm0 0"/></symbol><symbol overflow="visible" id="aS"><path d="M3.344.14c.719 0 1.375-.28 1.906-.75l-.39-.593c-.376.328-.891.594-1.438.594-1.14 0-1.922-.938-1.922-2.344 0-1.422.828-2.375 1.938-2.375.5 0 .874.219 1.234.547l.469-.594c-.422-.375-.954-.703-1.735-.703-1.5 0-2.828 1.14-2.828 3.125C.578-1 1.781.14 3.344.14zm0 0"/></symbol><symbol overflow="visible" id="aT"><path d="M2.844.14c.328 0 .719-.109 1.062-.218L3.72-.75a2.009 2.009 0 0 1-.688.156c-.719 0-.937-.437-.937-1.156v-3.453h1.64v-.734h-1.64V-7.61h-.75l-.11 1.671-.921.063v.672h.89v3.406c0 1.172.406 1.938 1.64 1.938zm0 0"/></symbol><symbol overflow="visible" id="aU"><path d="M3.313.14C4.75.14 6.046-1 6.046-2.952c0-1.985-1.297-3.125-2.734-3.125-1.454 0-2.735 1.14-2.735 3.125C.578-1 1.86.14 3.313.14zm0-.75C2.234-.61 1.5-1.546 1.5-2.952c0-1.422.734-2.375 1.813-2.375 1.062 0 1.812.953 1.812 2.375 0 1.406-.75 2.344-1.813 2.344zm0 0"/></symbol><symbol overflow="visible" id="bf"><path d="M2.672-5.078H3.75v-.86H.469v.86h1.187v.36c0 1.265-.39 2.577-1.453 3.25l.625.78c.656-.421 1.094-1.14 1.344-1.968.234.765.656 1.406 1.312 1.797l.61-.766C3.03-2.25 2.672-3.485 2.672-4.719zm1.5.922h-.938v.843h.938V.345h.984v-6.89h-.984zm1.484-2.516V.672h1v-7.344zm0 0"/></symbol><symbol overflow="visible" id="bg"><path d="M2.203.11c1.094 0 2.063-.75 2.063-2.079 0-1.281-.829-1.875-1.813-1.875-.265 0-.484.063-.719.172l.125-1.25H4v-.984H.844l-.172 2.86.547.358C1.562-2.921 1.75-3 2.094-3c.61 0 1 .375 1 1.063 0 .703-.422 1.093-1.047 1.093-.547 0-.969-.281-1.297-.594l-.547.75c.438.438 1.063.797 2 .797zm0 0"/></symbol><symbol overflow="visible" id="bh"><path d="M4.938-5.86H3.266v-.78H2.219v.78H.53v.829h4.407zm-3.016 2.5c0-.374.328-.578.812-.578.5 0 .829.204.829.579s-.329.593-.829.593c-.484 0-.812-.218-.812-.593zM3.266-2.03c.78-.156 1.296-.64 1.296-1.328 0-.829-.75-1.391-1.828-1.391S.906-4.187.906-3.36c0 .688.516 1.172 1.313 1.329v.625c-.656.015-1.281.015-1.828.015l.125.86c1.296 0 3-.016 4.609-.313l-.094-.75c-.562.078-1.172.11-1.765.157zm2.156-4.64V.687h1.047v-7.36zm0 0"/></symbol><symbol overflow="visible" id="bj"><path d="M1.438-9.438v7.344h5.171v-7.344zm4.5.563v6.219H2.108v-6.219zm3.468-1.75V.906h.688v-11.531zm0 0"/></symbol><symbol overflow="visible" id="bk"><path d="M1.828-2.578V-5.5h3.594v-3.813H1.125v.594H4.75v2.625H1.156v4.125h.719c1.469 0 2.781-.062 4.469-.375l-.078-.578c-1.625.297-2.954.344-4.391.344zm7.969-8.063v4.688h-2v-4.39H7.14V.28h.656v-5.64h2V.906h.672V-10.64zm0 0"/></symbol><symbol overflow="visible" id="bl"><path d="M4.5-9.734c-1.797 0-3.047 1.062-3.047 2.625 0 1.578 1.25 2.64 3.047 2.64 1.781 0 3.031-1.062 3.031-2.64 0-1.563-1.25-2.625-3.031-2.625zm0 .593c1.375 0 2.375.86 2.375 2.032 0 1.187-1 2.046-2.375 2.046-1.39 0-2.39-.859-2.39-2.046 0-1.172 1-2.032 2.39-2.032zm4.797-1.484V.922h.687v-11.547zM.922-1.735c2.11 0 4.969 0 7.625-.484l-.063-.531c-2.578.406-5.53.406-7.671.406zm0 0"/></symbol><symbol overflow="visible" id="bm"><path d="M7.61-9.281H4.546v-1.422h-.688v1.422H.781v.562H7.61zm-5.5 3.375c0-.89.843-1.5 2.078-1.5 1.234 0 2.078.61 2.078 1.5 0 .875-.844 1.484-2.079 1.484-1.234 0-2.078-.61-2.078-1.484zm4.796 0c0-1.282-1.078-2.047-2.718-2.047-1.625 0-2.72.766-2.72 2.047 0 1.265 1.095 2.047 2.72 2.047 1.64 0 2.718-.782 2.718-2.047zM2.25-2.125h6.688V.891h.687v-3.61H2.25zm9.172-5.203H9.625v-3.313h-.688v7.22h.688V-6.72h1.797zm0 0"/></symbol><symbol overflow="visible" id="bn"><path d="M1.719-5.297c1.703-.266 3.578-1.016 4.234-2.39.64 1.375 2.516 2.125 4.219 2.39l.234-.547c-1.875-.25-4.094-1.25-4.094-2.906h3.75v-.578H6.297v-1.36h-.688v1.36H1.86v.578h3.72c0 1.656-2.204 2.656-4.095 2.906zm1.078 2.781h-.688V.625h7.922V.031H2.797zM.719-4.453v.578H5.64v2.531h.703v-2.531h4.843v-.578zm0 0"/></symbol><symbol overflow="visible" id="bo"><path d="M7.516-7.344H5.469c.093-.578.172-1.156.172-1.765H1.234v.593h3.72C4.796-6.03 3.405-3.687.812-2.14l.437.5c2.172-1.312 3.5-3.125 4.063-5.109h2.203v2.328H5.125v.578h2.39v4.11h.673v-10.563h-.672zm2.28-3.281V.906h.673v-11.531zm0 0"/></symbol><symbol overflow="visible" id="bp"><path d="M4.328-8.844h3.203v4.078H4.328zm1.938 7.656v-3h3.875v-.578H8.219v-4.078h1.922v-.578H1.719v.578h1.937v4.078H1.734v.579h3.844v3H.734v.578h10.47v-.579zm0 0"/></symbol><symbol overflow="visible" id="bq"><path d="M7.297-5.344c-1.86.297-3.344.36-5.219.36h-.156v-2.032h4.344v-3H1.203v.594h4.39v1.86H1.25v3.156h.828c1.89 0 3.375-.063 5.281-.36zM3.39-2.578h6.062V.14H3.391zM2.719.734h7.406V-3.14H2.719zm6.719-11.343v2.687h-2.36v.578h2.36v3.5h.687v-6.765zm0 0"/></symbol><symbol overflow="visible" id="bs"><path d="M4.875-7.531h2.39v-1.36H4.892v-1.671H3.187v1.671H.75v1.36h2.438v.422c0 1.78-.907 3.812-2.844 4.703l.922 1.312c1.343-.593 2.265-1.797 2.78-3.234.5 1.328 1.376 2.453 2.641 3.031l.907-1.297C5.719-3.5 4.875-5.422 4.875-7.109zm6.781 1.343H9.922v-4.64H8.203V1.109h1.719v-5.89h1.734zm0 0"/></symbol><symbol overflow="visible" id="bt"><path d="M4.375-9.797h-1.64v2c0 2.047-.641 4.188-2.391 5.25l1.015 1.281c1.079-.64 1.782-1.78 2.204-3.109.374 1.203 1.015 2.219 2.015 2.844l.938-1.328c-1.625-1.079-2.141-3.063-2.141-5zm2.39 3h-1.5v1.375h1.5v6H8.36V-10.64H6.766zm2.423-4.047V1.11h1.624v-11.953zm0 0"/></symbol><symbol overflow="visible" id="bu"><path d="M2.578-8.078h2.75v-1.39H.891v7.89h.843c1.532 0 2.797-.047 4.25-.313L5.86-3.28c-1.14.203-2.156.265-3.28.297zm6.61-2.781v4.609H8.108v-4.375H6.516V.563h1.593v-5.438h1.079v5.984h1.624v-11.968zm0 0"/></symbol><symbol overflow="visible" id="bv"><path d="M5.031-3.016H2.625v-2.64h2.406zm0-3.984H2.625v-2.89H.922v8.234h5.797v-8.235H5.03zm6.625.61H9.922v-4.438H8.203V1.109h1.719v-6.062h1.734zm0 0"/></symbol><symbol overflow="visible" id="bw"><path d="M8.75-10.86v12h1.719v-12zm-4.719.844c-1.797 0-3.14 1.641-3.14 4.266 0 2.64 1.343 4.281 3.14 4.281 1.813 0 3.157-1.64 3.157-4.281 0-2.625-1.344-4.266-3.157-4.266zm0 1.547c.89 0 1.5.953 1.5 2.719 0 1.781-.61 2.719-1.5 2.719-.875 0-1.484-.938-1.484-2.719 0-1.766.61-2.719 1.484-2.719zm0 0"/></symbol><symbol overflow="visible" id="bx"><path d="M3.188-6.938c0-1.218 1.14-1.937 2.765-1.937 1.656 0 2.781.719 2.781 1.938C8.734-5.72 7.61-5 5.954-5c-1.626 0-2.766-.719-2.766-1.938zm3.624 5.282v-2.032c2.125-.25 3.61-1.468 3.61-3.25 0-2-1.906-3.296-4.469-3.296-2.531 0-4.453 1.296-4.453 3.296 0 1.782 1.5 2.985 3.61 3.25v2.032H.561v1.39h10.829v-1.39zm0 0"/></symbol><symbol overflow="visible" id="by"><path d="M7.156-9.813H4.813v-1.124H3.109v1.124H.594v1.329h6.562zM2.75-5.78c0-.625.516-.985 1.203-.985.688 0 1.219.36 1.219.985s-.531 1-1.219 1c-.687 0-1.203-.375-1.203-1zm4 0c0-1.328-1.188-2.282-2.797-2.282-1.594 0-2.797.954-2.797 2.282S2.36-3.5 3.953-3.5c1.61 0 2.797-.953 2.797-2.281zM2.422-1.344h6.422v2.469h1.719v-3.828H2.421zm6.422-9.5v2.672H7.313v1.375h1.53v.922H7.267V-4.5h1.578v1.266h1.719v-7.61zm0 0"/></symbol><symbol overflow="visible" id="bz"><path d="M10.484-10.828H8.766v8.719h1.718zM7.875-5.281c-1.938-.625-2.766-2.157-2.766-3.735v-1.156H3.36v1.156C3.36-7.422 2.5-5.75.516-5.078l.875 1.36c1.39-.47 2.328-1.454 2.875-2.657.515 1.11 1.421 2 2.75 2.453zM4.25-.453v-2.5H2.531v3.86h8.266v-1.36zm0 0"/></symbol><symbol overflow="visible" id="bA"><path d="M1.219-9.61v1.36h3.984C4.953-5.594 3.641-3.719.578-2.266l.906 1.36c4.235-2.047 5.47-5.047 5.47-8.703zm7.578-1.25V1.11h1.719v-11.97zm0 0"/></symbol><symbol overflow="visible" id="bB"><path d="M10.828-7.938c-2.687-.25-3.984-1.468-3.984-2.625v-.218H5.078v.219c0 1.156-1.297 2.374-3.984 2.624l.562 1.297c2.063-.234 3.547-1 4.297-2.093.766 1.093 2.234 1.859 4.297 2.093zm.531 3.141v-1.36H.563v1.36h4.53v.766H1.798v1.265h6.562v.657H1.813v3.14h8.546V-.266H3.5v-.671h6.547v-3.094h-3.25v-.766zm0 0"/></symbol><symbol overflow="visible" id="bC"><path d="M4.406-10.047c-1.875 0-3.297 1.235-3.297 2.938 0 1.734 1.422 2.953 3.297 2.953 1.86 0 3.297-1.219 3.297-2.953 0-1.704-1.437-2.938-3.297-2.938zm0 1.469c.922 0 1.625.547 1.625 1.469 0 .937-.703 1.484-1.625 1.484s-1.625-.547-1.625-1.484c0-.922.703-1.47 1.625-1.47zm4.407-2.281v12h1.718v-12zM.827-1.281c2.063 0 4.875-.032 7.438-.547l-.094-1.234c-2.531.374-5.453.39-7.563.39zm0 0"/></symbol><symbol overflow="visible" id="bD"><path d="M1.64-3.984C3.032-4.36 3.97-5.172 4.5-6.204c.531.985 1.469 1.75 2.844 2.095l.765-1.297C6.344-5.86 5.484-6.938 5.36-8.078h2.422v-1.36H5.344v-1.296H3.625v1.296H1.219v1.36h2.39C3.5-6.875 2.656-5.766.875-5.297zm3.704-.36H3.625v1.828c-1.094.032-2.125.032-3.016.032l.22 1.39c2.046-.015 4.874-.015 7.437-.547l-.094-1.234c-.906.14-1.86.219-2.828.281zm3.468-6.515v12h1.72v-12zm0 0"/></symbol><symbol overflow="visible" id="bE"><path d="M5.938-.172c-1.594 0-2.422-.266-2.422-.89 0-.625.828-.907 2.421-.907 1.594 0 2.407.282 2.407.907s-.813.89-2.406.89zm0-3.094c-2.594 0-4.141.782-4.141 2.204 0 1.406 1.547 2.187 4.14 2.187 2.579 0 4.157-.781 4.157-2.188 0-1.421-1.578-2.203-4.156-2.203zm.89-1.953v-.984h3.328v-1.36H3.578v-1.406h6.516v-1.36H1.875v4.126h3.234v.984H.58v1.36H11.39v-1.36zm0 0"/></symbol><symbol overflow="visible" id="bF"><path d="M7.594-9.703H4.937v-1.219H3.204v1.219H.563v1.344h7.03zM2.78-5.828c0-.594.531-.89 1.297-.89.766 0 1.297.296 1.297.89 0 .578-.531.89-1.297.89-.766 0-1.297-.312-1.297-.89zm4.235 0c0-1.281-1.22-2.14-2.938-2.14-1.734 0-2.937.859-2.937 2.14 0 1.266 1.203 2.125 2.937 2.125 1.719 0 2.938-.86 2.938-2.125zM6.078-.156c-1.5 0-2.312-.266-2.312-.844s.812-.844 2.312-.844c1.5 0 2.313.266 2.313.844s-.813.844-2.313.844zm0-2.969c-2.469 0-4.016.781-4.016 2.125 0 1.328 1.547 2.125 4.016 2.125 2.469 0 4.016-.797 4.016-2.125 0-1.344-1.547-2.125-4.016-2.125zM11.5-7.719v-1.406H9.969v-1.703H8.266v7.562h1.703v-1.859H11.5v-1.39H9.969V-7.72zm0 0"/></symbol><symbol overflow="visible" id="bG"><path d="M6.89-4.11c.329-1.968.329-3.421.329-4.577v-.97H1.062v1.36h4.47c0 1.063-.032 2.344-.313 4.047zM4.282-6.233H2.594v3.53c-.75.017-1.485.017-2.14.017l.155 1.406c2.079-.016 4.75-.063 7.188-.485L7.703-3a47.587 47.587 0 0 1-3.422.25zm7.282.203h-1.61v-4.828H8.25V1.109h1.703v-5.718h1.61zm0 0"/></symbol><symbol overflow="visible" id="bH"><path d="M8.75-10.86v12h1.719v-12zm-7.61.97v8.234h5.891v-8.235H5.344V-7h-2.5v-2.89zm1.704 4.234h2.5v2.64h-2.5zm0 0"/></symbol><symbol overflow="visible" id="bI"><path d="M6.969-7.75v1.39h1.875v4.25h1.719v-8.734h-1.72v3.094zM7.766-5c-1.891-.64-2.704-2.11-2.704-3.516v-.156h2.329v-1.36H.953v1.36h2.36v.172c0 1.5-.86 3.078-2.813 3.703l.844 1.375c1.406-.469 2.343-1.422 2.875-2.61.5 1.079 1.406 1.938 2.718 2.376zM4.39-.453v-2.39H2.67v3.75h8.157v-1.36zm0 0"/></symbol></defs><g fill="#898989"><use xlink:href="#a" x="557.826" y="819.169"/><use xlink:href="#b" x="561.923" y="819.169"/></g><g fill="#595757"><use xlink:href="#c" x="39.637" y="818.993"/><use xlink:href="#d" x="45.03" y="818.993"/><use xlink:href="#e" x="50.424" y="818.993"/><use xlink:href="#f" x="55.817" y="818.993"/><use xlink:href="#g" x="61.211" y="818.993"/><use xlink:href="#h" x="62.769" y="818.993"/><use xlink:href="#i" x="68.162" y="818.993"/><use xlink:href="#j" x="73.556" y="818.993"/><use xlink:href="#k" x="78.949" y="818.993"/><use xlink:href="#l" x="84.342" y="818.993"/><use xlink:href="#m" x="89.736" y="818.993"/><use xlink:href="#c" x="95.129" y="818.993"/><use xlink:href="#d" x="100.523" y="818.993"/></g><g fill="#595757"><use xlink:href="#n" x="105.916" y="818.993"/><use xlink:href="#o" x="107.474" y="818.993"/><use xlink:href="#p" x="112.868" y="818.993"/><use xlink:href="#q" x="118.261" y="818.993"/><use xlink:href="#r" x="123.655" y="818.993"/><use xlink:href="#n" x="129.048" y="818.993"/><use xlink:href="#s" x="130.606" y="818.993"/><use xlink:href="#t" x="136" y="818.993"/><use xlink:href="#u" x="141.393" y="818.993"/><use xlink:href="#n" x="146.786" y="818.993"/><use xlink:href="#v" x="148.345" y="818.993"/></g><g fill="#595757"><use xlink:href="#w" x="151.43" y="818.993"/><use xlink:href="#x" x="154.87" y="818.993"/><use xlink:href="#y" x="156.35" y="818.993"/><use xlink:href="#n" x="157.735" y="818.993"/><use xlink:href="#z" x="159.293" y="818.993"/><use xlink:href="#z" x="162.379" y="818.993"/></g><use xlink:href="#A" x="53.793" y="194.236"/><use xlink:href="#B" x="69.074" y="194.236"/><use xlink:href="#C" x="84.356" y="194.236"/><use xlink:href="#D" x="99.637" y="194.236"/><use xlink:href="#E" x="114.919" y="194.236"/><use xlink:href="#F" x="130.2" y="194.236"/><use xlink:href="#G" x="134.615" y="194.236"/><use xlink:href="#H" x="149.896" y="194.236"/><use xlink:href="#I" x="165.177" y="194.236"/><use xlink:href="#J" x="180.459" y="194.236"/><use xlink:href="#K" x="195.74" y="194.236"/><use xlink:href="#L" x="211.022" y="194.236"/><use xlink:href="#F" x="226.303" y="194.236"/><use xlink:href="#M" x="230.718" y="194.236"/><use xlink:href="#N" x="245.999" y="194.236"/><use xlink:href="#O" x="261.281" y="194.236"/><use xlink:href="#P" x="276.562" y="194.236"/><g><use xlink:href="#Q" x="39.637" y="354.465"/><use xlink:href="#R" x="44.395" y="354.465"/><use xlink:href="#S" x="46.529" y="354.465"/><use xlink:href="#T" x="48.931" y="354.465"/><use xlink:href="#U" x="57.246" y="354.465"/><use xlink:href="#V" x="65.561" y="354.465"/><use xlink:href="#W" x="73.876" y="354.465"/><use xlink:href="#X" x="82.191" y="354.465"/><use xlink:href="#Y" x="90.505" y="354.465"/><use xlink:href="#S" x="98.82" y="354.465"/><use xlink:href="#Z" x="101.222" y="354.465"/><use xlink:href="#aa" x="109.537" y="354.465"/><use xlink:href="#W" x="117.852" y="354.465"/><use xlink:href="#ab" x="126.167" y="354.465"/><use xlink:href="#ac" x="134.482" y="354.465"/></g><g><use xlink:href="#ad" x="39.637" y="373.442"/><use xlink:href="#R" x="44.395" y="373.442"/><use xlink:href="#S" x="46.529" y="373.442"/><use xlink:href="#ae" x="48.931" y="373.442"/><use xlink:href="#X" x="57.246" y="373.442"/><use xlink:href="#af" x="65.561" y="373.442"/><use xlink:href="#ag" x="73.876" y="373.442"/><use xlink:href="#ah" x="77.34" y="373.442"/><use xlink:href="#ai" x="85.655" y="373.442"/><use xlink:href="#aj" x="93.97" y="373.442"/><use xlink:href="#ak" x="102.285" y="373.442"/><use xlink:href="#S" x="110.6" y="373.442"/><use xlink:href="#al" x="113.002" y="373.442"/><use xlink:href="#am" x="121.317" y="373.442"/><use xlink:href="#an" x="129.632" y="373.442"/><use xlink:href="#ao" x="137.946" y="373.442"/><use xlink:href="#S" x="146.261" y="373.442"/><use xlink:href="#T" x="148.663" y="373.442"/><use xlink:href="#U" x="156.978" y="373.442"/><use xlink:href="#V" x="165.293" y="373.442"/><use xlink:href="#W" x="173.608" y="373.442"/><use xlink:href="#ap" x="181.923" y="373.442"/><use xlink:href="#S" x="190.238" y="373.442"/><use xlink:href="#aq" x="192.64" y="373.442"/><use xlink:href="#ar" x="200.955" y="373.442"/><use xlink:href="#S" x="209.27" y="373.442"/><use xlink:href="#as" x="211.672" y="373.442"/><use xlink:href="#at" x="219.987" y="373.442"/><use xlink:href="#au" x="228.302" y="373.442"/><use xlink:href="#ac" x="236.616" y="373.442"/><use xlink:href="#S" x="240.598" y="373.442"/></g><g><use xlink:href="#av" x="39.637" y="392.418"/><use xlink:href="#R" x="44.395" y="392.418"/><use xlink:href="#S" x="46.529" y="392.418"/><use xlink:href="#aw" x="48.931" y="392.418"/><use xlink:href="#ax" x="57.246" y="392.418"/><use xlink:href="#S" x="65.561" y="392.418"/><use xlink:href="#ay" x="67.963" y="392.418"/><use xlink:href="#az" x="76.278" y="392.418"/><use xlink:href="#aA" x="84.593" y="392.418"/><use xlink:href="#S" x="92.908" y="392.418"/><use xlink:href="#aB" x="95.31" y="392.418"/><use xlink:href="#aC" x="103.624" y="392.418"/><use xlink:href="#S" x="111.939" y="392.418"/><use xlink:href="#aC" x="114.341" y="392.418"/><use xlink:href="#aD" x="122.656" y="392.418"/><use xlink:href="#aC" x="130.971" y="392.418"/><use xlink:href="#aE" x="139.286" y="392.418"/><use xlink:href="#S" x="147.601" y="392.418"/><use xlink:href="#aF" x="150.003" y="392.418"/><use xlink:href="#aG" x="158.318" y="392.418"/><use xlink:href="#S" x="166.633" y="392.418"/><use xlink:href="#aH" x="169.035" y="392.418"/><use xlink:href="#aI" x="177.35" y="392.418"/><use xlink:href="#aJ" x="185.665" y="392.418"/><use xlink:href="#au" x="193.98" y="392.418"/><use xlink:href="#ac" x="202.294" y="392.418"/></g><g><use xlink:href="#aK" x="480.463" y="279.089"/><use xlink:href="#aL" x="490.351" y="279.089"/><use xlink:href="#aM" x="500.239" y="279.089"/><use xlink:href="#aN" x="510.127" y="279.089"/></g><g><use xlink:href="#aO" x="512.983" y="279.089"/><use xlink:href="#aP" x="520.267" y="279.089"/><use xlink:href="#aQ" x="523.003" y="279.089"/></g><g><use xlink:href="#aR" x="526.826" y="279.089"/><use xlink:href="#aS" x="532.638" y="279.089"/></g><g><use xlink:href="#aT" x="537.857" y="279.089"/></g><g><use xlink:href="#aU" x="541.526" y="279.089"/><use xlink:href="#aQ" x="547.921" y="279.089"/></g><g><use xlink:href="#aV" x="455.946" y="296.528"/><use xlink:href="#aW" x="464.261" y="296.528"/><use xlink:href="#aX" x="472.576" y="296.528"/><use xlink:href="#aY" x="480.891" y="296.528"/><use xlink:href="#ax" x="489.206" y="296.528"/><use xlink:href="#aZ" x="497.52" y="296.528"/></g><g><use xlink:href="#ba" x="502.315" y="296.528"/><use xlink:href="#S" x="507.923" y="296.528"/><use xlink:href="#bb" x="510.325" y="296.528"/><use xlink:href="#bc" x="518.64" y="296.528"/><use xlink:href="#bd" x="526.955" y="296.528"/><use xlink:href="#be" x="535.27" y="296.528"/><use xlink:href="#am" x="543.585" y="296.528"/></g><g><use xlink:href="#bf" x="47.989" y="56.474"/><use xlink:href="#bg" x="55.18" y="56.474"/><use xlink:href="#bh" x="59.727" y="56.474"/></g><g><use xlink:href="#bi" x="66.918" y="55.715"/></g><g><use xlink:href="#bj" x="68.476" y="58.372"/><use xlink:href="#bk" x="80.162" y="58.372"/><use xlink:href="#bl" x="91.847" y="58.372"/><use xlink:href="#bm" x="103.533" y="58.372"/><use xlink:href="#bn" x="115.219" y="58.372"/><use xlink:href="#bo" x="126.905" y="58.372"/><use xlink:href="#bp" x="138.591" y="58.372"/><use xlink:href="#bq" x="150.276" y="58.372"/></g><g><use xlink:href="#br" x="161.962" y="58.372"/><use xlink:href="#bs" x="165.338" y="58.372"/><use xlink:href="#bt" x="177.024" y="58.372"/><use xlink:href="#bu" x="188.71" y="58.372"/><use xlink:href="#br" x="200.395" y="58.372"/><use xlink:href="#bv" x="203.771" y="58.372"/><use xlink:href="#bw" x="215.457" y="58.372"/><use xlink:href="#bx" x="227.143" y="58.372"/><use xlink:href="#br" x="238.829" y="58.372"/><use xlink:href="#by" x="242.205" y="58.372"/><use xlink:href="#bz" x="253.89" y="58.372"/><use xlink:href="#br" x="265.576" y="58.372"/><use xlink:href="#bA" x="268.952" y="58.372"/><use xlink:href="#bB" x="280.638" y="58.372"/><use xlink:href="#bC" x="292.324" y="58.372"/><use xlink:href="#br" x="304.009" y="58.372"/><use xlink:href="#bD" x="307.385" y="58.372"/><use xlink:href="#bz" x="319.071" y="58.372"/><use xlink:href="#bE" x="330.757" y="58.372"/><use xlink:href="#bF" x="342.443" y="58.372"/><use xlink:href="#bG" x="354.128" y="58.372"/><use xlink:href="#br" x="365.814" y="58.372"/><use xlink:href="#bH" x="369.19" y="58.372"/><use xlink:href="#bI" x="380.876" y="58.372"/></g><path d="M39.637 792.695h526.605" fill="none" stroke="#1f3d90" stroke-width=".99879"/></svg>