<svg xmlns="http://www.w3.org/2000/svg" xmlns:xlink="http://www.w3.org/1999/xlink" width="793.701" height="1122.52" viewBox="0 0 595.276 841.89" version="1.2"><defs><symbol overflow="visible" id="a"><path d="M1.578.188L.984-.25 2.25-1.969l-.188.032h-.109c-.43 0-.8-.165-1.11-.5A1.634 1.634 0 0 1 .392-3.61c0-.477.171-.891.515-1.235a1.69 1.69 0 0 1 1.235-.515c.488 0 .91.168 1.265.5.352.343.531.746.531 1.203 0 .418-.175.863-.515 1.328zm-.422-3.844a.97.97 0 0 0 .297.719.98.98 0 0 0 .703.28.96.96 0 0 0 .703-.28.963.963 0 0 0 .297-.704.998.998 0 0 0-.297-.718.976.976 0 0 0-.703-.282.996.996 0 0 0-.703.282.96.96 0 0 0-.297.703zm0 0"/></symbol><symbol overflow="visible" id="b"><path d="M1.219-2.75A1.28 1.28 0 0 1 .64-3.86c0-.425.144-.785.437-1.078.29-.277.66-.421 1.11-.421.433 0 .8.144 1.093.421.29.282.438.645.438 1.079 0 .46-.196.832-.578 1.109.207.117.375.285.5.5.113.219.171.465.171.734 0 .47-.152.856-.453 1.157-.304.293-.695.437-1.171.437-.493 0-.895-.144-1.204-.437C.66-.66.5-1.04.5-1.5c0-.59.238-1.008.719-1.25zm.172-1.11a.778.778 0 0 0 .78.797.773.773 0 0 0 .563-.234.776.776 0 0 0 0-1.11.79.79 0 0 0-1.125 0 .742.742 0 0 0-.218.548zM1.28-1.53c0 .25.082.46.25.625a.84.84 0 0 0 .625.265.883.883 0 0 0 .625-.25.887.887 0 0 0 .25-.625.835.835 0 0 0-.265-.625.844.844 0 0 0-.61-.25.831.831 0 0 0-.61.25.8.8 0 0 0-.265.61zm0 0"/></symbol><symbol overflow="visible" id="d"><path d="M1.453 0h.406l1.422-4.375h-.375l-.781 2.516c-.156.53-.281.937-.453 1.468H1.64c-.172-.53-.282-.937-.454-1.468l-.78-2.516H.03zm0 0"/></symbol><symbol overflow="visible" id="e"><path d="M.64 0H1v-4.375H.64zm0 0"/></symbol><symbol overflow="visible" id="f"><path d="M.75-.156c.156 0 .313-.11.313-.313A.317.317 0 0 0 .75-.797a.317.317 0 0 0-.313.328c0 .203.157.313.313.313zm0 0"/></symbol><symbol overflow="visible" id="h"><path d="M4.86-4.266H2.905v-.687h-.312v.687h-2v.25h4.265zm-.766 1.5c0 .391-.532.625-1.36.625-.812 0-1.343-.234-1.343-.625 0-.39.53-.625 1.343-.625.829 0 1.36.235 1.36.625zm-3.032 0c0 .563.641.875 1.672.875 1.063 0 1.688-.312 1.688-.875 0-.546-.625-.875-1.688-.875-1.03 0-1.671.329-1.671.875zm4.11 1.313H.344v.266h2.25V.421h.312v-1.61h2.266zm0 0"/></symbol><symbol overflow="visible" id="i"><path d="M3.172-1.734v.265h1.14v.625h.313v-4.062h-.313v3.172zM2.047-4.422c.594 0 1 .266 1 .656 0 .407-.406.672-1 .672-.578 0-.985-.265-.985-.672 0-.39.407-.656.985-.656zm0 1.578c.781 0 1.297-.36 1.297-.922 0-.546-.516-.906-1.297-.906-.781 0-1.297.36-1.297.906 0 .563.516.922 1.297.922zm-.11 1.781h.313V-2.14a16.723 16.723 0 0 0 1.547-.156L3.78-2.53c-1.156.14-2.484.156-3.469.156l.047.266c.47 0 1 0 1.579-.016zM1.422.016V-1.25h-.313V.281h3.657V.016zm0 0"/></symbol><symbol overflow="visible" id="j"><path d="M.781-3.234c0-.563.453-1 1.063-1 .578 0 1.031.437 1.031 1 0 .578-.453 1.015-1.031 1.015-.61 0-1.063-.437-1.063-1.015zm2.406 0c0-.75-.578-1.282-1.343-1.282-.797 0-1.36.532-1.36 1.282 0 .765.563 1.296 1.36 1.296.765 0 1.343-.53 1.343-1.296zM1.516-1.36h-.329V.28h3.516V.016H1.516zm2.937-1.875v-1.672h-.328v3.953h.328V-2.97h.828v-.265zm0 0"/></symbol><symbol overflow="visible" id="k"><path d="M.953-4.234H.641v3.218h.312c.594 0 1.203-.03 1.953-.171L2.86-1.47a9.572 9.572 0 0 1-1.906.172zm3.578-.672v2.234h-.937v-2.11h-.297V.126h.297v-2.516h.937V.422h.297v-5.328zm0 0"/></symbol></defs><g fill="#898989"><use xlink:href="#a" x="28.312" y="819.169"/><use xlink:href="#b" x="32.591" y="819.169"/></g><g fill="#898989"><use xlink:href="#c" x="36.906" y="819.169"/><use xlink:href="#c" x="38.996" y="819.169"/></g><g fill="#595757"><use xlink:href="#d" x="522.573" y="818.993"/><use xlink:href="#e" x="525.749" y="818.993"/><use xlink:href="#e" x="527.26" y="818.993"/><use xlink:href="#e" x="528.77" y="818.993"/><use xlink:href="#f" x="530.28" y="818.993"/><use xlink:href="#g" x="531.664" y="818.993"/><use xlink:href="#h" x="533.222" y="818.993"/><use xlink:href="#i" x="538.616" y="818.993"/><use xlink:href="#j" x="544.009" y="818.993"/><use xlink:href="#k" x="549.403" y="818.993"/></g></svg>