<svg xmlns="http://www.w3.org/2000/svg" xmlns:xlink="http://www.w3.org/1999/xlink" width="793.701" height="1122.52" viewBox="0 0 595.276 841.89" version="1.2"><defs><symbol overflow="visible" id="a"><path d="M1.578.188L.984-.25 2.25-1.969l-.188.032h-.109c-.43 0-.8-.165-1.11-.5A1.634 1.634 0 0 1 .392-3.61c0-.477.171-.891.515-1.235a1.69 1.69 0 0 1 1.235-.515c.488 0 .91.168 1.265.5.352.343.531.746.531 1.203 0 .418-.175.863-.515 1.328zm-.422-3.844a.97.97 0 0 0 .297.719.98.98 0 0 0 .703.28.96.96 0 0 0 .703-.28.963.963 0 0 0 .297-.704.998.998 0 0 0-.297-.718.976.976 0 0 0-.703-.282.996.996 0 0 0-.703.282.96.96 0 0 0-.297.703zm0 0"/></symbol><symbol overflow="visible" id="b"><path d="M.297-2.672c0-.84.195-1.515.594-2.015.34-.446.765-.672 1.265-.672.496 0 .926.226 1.281.671.383.5.579 1.184.579 2.047 0 .868-.196 1.551-.579 2.047-.355.45-.785.672-1.28.672-.493 0-.915-.223-1.266-.672C.492-1.09.297-1.785.297-2.672zm.781 0c0 .586.102 1.074.313 1.469.195.375.453.562.765.562.309 0 .57-.187.781-.562.208-.383.313-.863.313-1.438 0-.57-.105-1.05-.313-1.437-.21-.371-.472-.563-.78-.563-.305 0-.56.192-.766.563-.211.375-.313.848-.313 1.406zm0 0"/></symbol><symbol overflow="visible" id="d"><path d="M1.453 0h.406l1.422-4.375h-.375l-.781 2.516c-.156.53-.281.937-.453 1.468H1.64c-.172-.53-.282-.937-.454-1.468l-.78-2.516H.03zm0 0"/></symbol><symbol overflow="visible" id="e"><path d="M.64 0H1v-4.375H.64zm0 0"/></symbol><symbol overflow="visible" id="f"><path d="M.75-.156c.156 0 .313-.11.313-.313A.317.317 0 0 0 .75-.797a.317.317 0 0 0-.313.328c0 .203.157.313.313.313zm0 0"/></symbol><symbol overflow="visible" id="h"><path d="M2.906-.563v-1.515h1.672v-.281H1.297v-1.829H4.53v-.265H.984v2.375h1.61v1.515H.344v.266h4.828v-.266zm0 0"/></symbol><symbol overflow="visible" id="i"><path d="M2.734-4.531c.938 0 1.532.265 1.532.718 0 .454-.594.72-1.532.72-.906 0-1.5-.266-1.5-.72 0-.453.594-.718 1.5-.718zm0 1.703c1.157 0 1.86-.36 1.86-.985 0-.624-.703-.984-1.86-.984-1.125 0-1.828.36-1.828.984 0 .626.703.985 1.828.985zM4.25.062h-3v-1.171h3zm.906-2.124v-.266H.344v.265h2.25v.688H.954V.344h3.609v-1.719H2.905v-.688zm0 0"/></symbol><symbol overflow="visible" id="j"><path d="M.781-2.36c.735-.14 1.656-.609 1.969-1.312.297.703 1.219 1.172 1.953 1.313l.14-.25c-.796-.141-1.921-.75-1.921-1.547v-.125h1.765v-.266H.797v.266h1.781v.125c0 .797-1.125 1.406-1.922 1.547zm4.375.547H.344v.266h2.234V.406h.313v-1.953h2.265zm0 0"/></symbol><symbol overflow="visible" id="k"><path d="M4.672-4.906h-.313v3.922h.313zM3.516-2.141c-.75-.296-1.391-1.046-1.391-1.921v-.547h-.313v.546c0 .907-.625 1.704-1.375 2.016l.188.266c.61-.282 1.14-.86 1.344-1.578a2.462 2.462 0 0 0 1.375 1.468zM1.64.016v-1.36h-.313V.281H4.86V.016zm0 0"/></symbol><symbol overflow="visible" id="l"><path d="M4.203-2.922h-2.89v-.797h2.89zm.313-1.828h-.313v.766h-2.89v-.766H.984v2.11h3.532zm-3.22 3.61H.985V.28h3.641V.016H1.297zm-.968-.907v.266H2.61v1.156h.313v-1.156h2.25v-.266zm0 0"/></symbol><symbol overflow="visible" id="m"><path d="M4.578-3.375h-3.25v-1.047h3.188v-.266h-3.5v1.579h3.562zM1.266-.594h3.25V-1.75H.937v.266h3.266v.625H.953V.344h3.735V.078H1.265zm-.922-2v.281h4.812v-.28zm0 0"/></symbol><symbol overflow="visible" id="n"><path d="M4.672-4.906h-.313V-.97h.313zM.797-3.234c0-.563.453-1 1.047-1 .593 0 1.047.437 1.047 1 0 .578-.454 1.015-1.047 1.015-.594 0-1.047-.437-1.047-1.015zm2.39 0c0-.75-.562-1.282-1.343-1.282-.782 0-1.36.532-1.36 1.282 0 .765.579 1.296 1.36 1.296.781 0 1.343-.53 1.343-1.296zM1.641.016v-1.407h-.313V.281H4.86V.016zm0 0"/></symbol><symbol overflow="visible" id="o"><path d="M4.219-3.39H1.297V-4.47h2.922zM4.53-4.72H.984v1.594h3.547zm.625 2.407v-.266H.344v.265h2.25v.626H.938v.265h3.265v.594H.953V.344h3.735V.078H1.265v-.672h3.25v-1.094h-1.61v-.625zm0 0"/></symbol><symbol overflow="visible" id="p"><path d="M4.906-2.203c-.765-.156-2.015-.922-2.015-1.89v-.423h-.329v.422c0 .969-1.218 1.735-1.984 1.89l.14.267c.72-.172 1.688-.75 2.016-1.563.344.813 1.313 1.39 2.032 1.563zM2.891-.578v-1.36h-.313v1.36H.344v.265h4.828v-.265zm0 0"/></symbol><symbol overflow="visible" id="q"><path d="M.547-4.203v.266h1.75C2.234-2.813 1.703-1.72.375-.985l.188.234c1.546-.86 2.046-2.172 2.046-3.453zm3.984-.703v2.218h-.89v-2.078h-.297V.125h.297v-2.547h.89V.422h.297v-5.328zm0 0"/></symbol><symbol overflow="visible" id="r"><path d="M2.656 0H4.75l2.734-8.875H5.688L4.53-4.547c-.281.969-.484 1.86-.75 2.86H3.72c-.297-1-.469-1.891-.75-2.86L1.797-8.875h-1.86zm0 0"/></symbol><symbol overflow="visible" id="s"><path d="M1.094 0h1.765v-8.875H1.094zm0 0"/></symbol><symbol overflow="visible" id="t"><path d="M1.953.234c.625 0 1.11-.5 1.11-1.156 0-.656-.485-1.156-1.11-1.156-.625 0-1.11.5-1.11 1.156 0 .656.485 1.156 1.11 1.156zm0 0"/></symbol><symbol overflow="visible" id="v"><path d="M.922-9.375v1.266h3.5C4.188-6.656 2.859-5.453.39-4.844l.625 1.25c3.28-.86 5.125-2.844 5.125-5.781zm2.672 7.203H7.64v1.844H3.594zM2.047.906h7.156v-4.328H2.047zm8.625-8.515H9.203V-10H7.625v6.14h1.578v-2.453h1.469zm0 0"/></symbol><symbol overflow="visible" id="w"><path d="M4.578-9.156H2.984v1.61c0 2.046-.843 4.155-2.703 5.03l.953 1.282c1.25-.61 2.079-1.782 2.547-3.172.469 1.312 1.235 2.375 2.39 2.968l.954-1.25c-1.766-.874-2.547-2.874-2.547-4.859zm6.188 3.39h-1.61V-10H7.578V1.031h1.578v-5.484h1.61zm0 0"/></symbol><symbol overflow="visible" id="x"><path d="M4.063-9.281c-1.72 0-3.032 1.14-3.032 2.719 0 1.593 1.313 2.734 3.032 2.734 1.718 0 3.046-1.14 3.046-2.735 0-1.578-1.328-2.718-3.046-2.718zm0 1.36c.843 0 1.5.5 1.5 1.359 0 .875-.657 1.375-1.5 1.375-.844 0-1.5-.5-1.5-1.375 0-.86.656-1.36 1.5-1.36zm4.078-2.095V1.047h1.578v-11.063zM.766-1.187c1.906 0 4.5-.016 6.875-.5l-.11-1.141c-2.312.344-5.031.36-6.968.36zm0 0"/></symbol><symbol overflow="visible" id="y"><path d="M3.219-1.016h6.094v-3.109H1.625v1.219h6.11v.719H1.64v3.14h7.953V-.28H3.219zm5.906-5.109c.203-1.094.203-1.984.203-2.703v-.75H1.75v1.265h6.031c-.015.61-.047 1.297-.234 2.188H.516v1.25h10v-1.25zm0 0"/></symbol><symbol overflow="visible" id="z"><path d="M.172 1.375h1.172l3-11.875H3.172zm0 0"/></symbol><symbol overflow="visible" id="A"><path d="M9.969-8.86H6.297v-1.156H4.703v1.157H1v1.234h8.969zM7.64-5.28c0 .484-.704.718-2.141.718-1.438 0-2.125-.234-2.125-.718 0-.516.688-.735 2.125-.735 1.438 0 2.14.22 2.14.735zm-5.922 0c0 1.203 1.422 1.89 3.781 1.89 2.36 0 3.781-.687 3.781-1.89C9.281-6.5 7.86-7.188 5.5-7.188c-2.36 0-3.781.688-3.781 1.907zm8.797 2.422h-10v1.265h4.187v2.64h1.594v-2.64h4.219zm0 0"/></symbol><symbol overflow="visible" id="B"><path d="M6.14-3.594v1.078H8.22v.875h1.578V-10H8.219v6.406zm-2.109-4.89c.719 0 1.235.28 1.235.828 0 .531-.516.812-1.235.812-.75 0-1.265-.281-1.265-.812 0-.547.515-.828 1.265-.828zm0 2.796c1.594 0 2.735-.796 2.735-1.968S5.625-9.641 4.03-9.641c-1.625 0-2.765.813-2.765 1.985 0 1.172 1.14 1.968 2.765 1.968zM3.438-.421v-1.5h1.53v-2.094a24.554 24.554 0 0 0 2.626-.312l-.11-1.125c-2.312.297-5 .328-7.015.328l.203 1.266c.828 0 1.75-.016 2.719-.063v1.485H1.859v3.28h8.188V-.421zm0 0"/></symbol><symbol overflow="visible" id="C"><path d="M4.563-7.64h2.203v-1.313H.687v1.312h2.297v.61c0 1.812-.906 3.89-2.703 4.734l.875 1.25c1.266-.594 2.157-1.812 2.64-3.25.5 1.313 1.36 2.422 2.579 2.984l.875-1.25C5.437-3.405 4.562-5.358 4.562-7.03zm6.203 1.843h-1.61V-10H7.578V1.031h1.578V-4.5h1.61zm0 0"/></symbol><symbol overflow="visible" id="D"><path d="M10.172-4.969c-2.516-.406-3.875-2.062-3.875-3.64v-.782H4.609v.782C4.61-7.08 3.25-5.375.75-4.97l.656 1.297c1.922-.344 3.328-1.39 4.047-2.734.719 1.36 2.14 2.39 4.078 2.734zM6.25-1.547v-2.469H4.672v2.47H.516v1.265h10v-1.266zm0 0"/></symbol><symbol overflow="visible" id="E"><path d="M.938-8.64v1.265h2.796c-.218 2.156-1.14 3.75-3.359 5.047l.922 1.11C4.375-3.017 5.28-5.548 5.28-8.642zM8.468-10v4.156h-.984v-3.875H6V.562h1.484v-5.14h.985v5.61h1.5V-10zm0 0"/></symbol><symbol overflow="visible" id="F"><path d="M2.14-6.5c0-.89.626-1.438 1.454-1.438.812 0 1.453.547 1.453 1.438 0 .906-.64 1.438-1.453 1.438-.828 0-1.453-.532-1.453-1.438zm4.438 0c0-1.625-1.312-2.797-2.984-2.797-1.688 0-3 1.172-3 2.797 0 1.625 1.312 2.813 3 2.813 1.672 0 2.984-1.188 2.984-2.813zM3.672-2.797H2.078v3.64h7.516V-.421H3.672zm5.531-4.047V-10H7.625v8.016h1.578v-3.563h1.469v-1.297zm0 0"/></symbol><symbol overflow="visible" id="G"><path d="M2.531-8.781H.953v7.125h.766c1.093 0 2.375-.063 3.812-.328l-.14-1.329c-1.047.204-2 .266-2.86.297zm5.938-1.235v4.25h-1v-4.046H5.984V.5H7.47v-4.984h1v5.5h1.5v-11.032zm0 0"/></symbol><symbol overflow="visible" id="I"><path d="M2.64-6.438c2.25-.609 3.782-1.906 4.641-3.578.86 1.594 2.36 2.829 4.594 3.391l1.203-2.094c-2.828-.734-4.234-2.484-4.422-4.328h3.906v-2.203H8.642v-2.094H5.844v2.094H1.969v2.203h3.86C5.64-11.109 4.28-9.312 1.405-8.562zm6-.562H5.845v2.938C4.094-4 2.406-4 .984-4l.36 2.234c3.312-.015 7.86-.03 12.015-.875l-.171-2.015c-1.47.234-3 .36-4.547.468zm5.594-10.531V1.844H17v-19.375zm0 0"/></symbol><symbol overflow="visible" id="J"><path d="M16.938-17.484h-2.782v14.062h2.781zm-4.204 8.953c-3.156-1.016-4.5-3.485-4.5-6.016v-1.89H5.438v1.89c0 2.547-1.391 5.25-4.594 6.344L2.25-6C4.484-6.766 6-8.344 6.875-10.297c.844 1.797 2.313 3.235 4.453 3.969zM6.86-.734v-4.032H4.094V1.47h13.328V-.734zm0 0"/></symbol><symbol overflow="visible" id="K"><path d="M9.578-.266c-2.578 0-3.89-.453-3.89-1.453S7-3.187 9.578-3.187c2.578 0 3.906.468 3.906 1.468S12.156-.266 9.578-.266zm0-5.015C5.406-5.281 2.891-4 2.891-1.72c0 2.266 2.515 3.547 6.687 3.547 4.172 0 6.719-1.281 6.719-3.547C16.297-4 13.75-5.28 9.578-5.28zm1.453-3.14v-1.595h5.36v-2.203H5.78v-2.265h10.516v-2.204H3.047v6.672h5.219v1.594H.922v2.188H18.39v-2.188zm0 0"/></symbol><symbol overflow="visible" id="L"><path d="M12.266-15.656H7.969v-1.985H5.172v1.985H.906v2.156h11.36zM4.484-9.422c0-.937.86-1.437 2.094-1.437 1.25 0 2.11.5 2.11 1.437 0 .953-.86 1.453-2.11 1.453-1.234 0-2.094-.5-2.094-1.453zm6.844 0c0-2.047-1.953-3.453-4.75-3.453-2.781 0-4.734 1.406-4.734 3.453 0 2.063 1.953 3.453 4.734 3.453 2.797 0 4.75-1.39 4.75-3.453zM9.813-.25c-2.438 0-3.735-.438-3.735-1.36 0-.952 1.297-1.374 3.734-1.374 2.438 0 3.735.421 3.735 1.375 0 .921-1.297 1.359-3.735 1.359zm0-4.797c-3.985 0-6.485 1.266-6.485 3.438 0 2.14 2.5 3.437 6.485 3.437 3.984 0 6.484-1.297 6.484-3.437 0-2.172-2.5-3.438-6.485-3.438zm8.765-7.422v-2.265H16.11v-2.75h-2.765v12.218h2.765V-8.28h2.47v-2.25h-2.47v-1.938zm0 0"/></symbol><symbol overflow="visible" id="N"><path d="M5.5-11.14h8.25v2.718H5.5zm5.516 8.453v-3.547h5.468v-10.079H13.75v3H5.5v-3H2.75v10.079h5.484v3.546H.906v2.25h17.485v-2.25zm0 0"/></symbol><symbol overflow="visible" id="O"><path d="M15.938-4.766c.78-4.109.78-6.828.78-9.234v-1.86H2.689v2.204h11.25c0 2.25-.032 4.937-.766 8.578zM9.858-2.75v-6.64H7.094v6.64H.922v2.219H18.39V-2.75zm0 0"/></symbol><symbol overflow="visible" id="P"><path d="M8.156-16.016H5.375v2.782c0 3.671-1.469 7.421-4.75 8.937l1.719 2.219c2.172-1.094 3.61-3.094 4.453-5.578.797 2.328 2.203 4.218 4.312 5.25L12.75-4.61c-3.188-1.422-4.594-4.97-4.594-8.625zm6.188-1.515v6.062h-3.719v2.219h3.719V1.844h2.765v-19.375zm0 0"/></symbol><symbol overflow="visible" id="Q"><path d="M.906 0h10.39v-2.594H7.923c-.703 0-1.734.078-2.516.156 2.828-2.765 5.157-5.78 5.157-8.593 0-2.89-1.938-4.781-4.876-4.781-2.125 0-3.5.843-4.937 2.343l1.688 1.688c.765-.86 1.718-1.594 2.843-1.594 1.469 0 2.328.938 2.328 2.516 0 2.39-2.5 5.296-6.703 9.078zm0 0"/></symbol><symbol overflow="visible" id="R"><path d="M6.188.297c3.14 0 5.234-2.766 5.234-8.125 0-5.344-2.094-7.984-5.235-7.984-3.171 0-5.265 2.624-5.265 7.984 0 5.36 2.094 8.125 5.266 8.125zm0-2.422c-1.344 0-2.344-1.328-2.344-5.703 0-4.328 1-5.594 2.344-5.594 1.312 0 2.328 1.266 2.328 5.594 0 4.375-1.016 5.703-2.329 5.703zm0 0"/></symbol><symbol overflow="visible" id="S"><path d="M1.719 0h9.328v-2.5H8.14v-13.016H5.844c-.985.61-2.047 1-3.594 1.297v1.906h2.797V-2.5H1.719zm0 0"/></symbol><symbol overflow="visible" id="T"><path d="M5.11-3.14c.234-1.626.234-2.782.234-3.485v-.484H.906v.656h3.656c0 .719-.015 1.781-.265 3.234zM3.093-4.595h-.797v2.703c-.656.016-1.313.032-1.86.032l.079.671c1.562 0 3.625-.046 5.453-.343l-.047-.578c-.89.109-1.875.156-2.828.203zm5.562.203h-1.39v-3.671h-.813v8.78h.813v-4.437h1.39zm0 0"/></symbol><symbol overflow="visible" id="U"><path d="M5.734-7.125H3.531v-.984h-.797v.984H.547v.64h5.187zM1.797-4.437c0-.594.531-.97 1.344-.97.796 0 1.343.376 1.343.954 0 .594-.546.969-1.343.969-.813 0-1.344-.36-1.344-.954zm3.437 0c0-.97-.843-1.594-2.093-1.594s-2.11.625-2.11 1.578c0 .969.86 1.594 2.11 1.594s2.093-.625 2.093-1.579zm-3.593 3h4.89V.733h.813v-2.828H1.64zm7-4.204H7.344v-2.406H6.53v5.485h.813V-4.97H8.64zm0 0"/></symbol><symbol overflow="visible" id="V"><path d="M1.031-7.11v.641h3.313C4.172-4.375 3-2.687.64-1.562l.421.656C3.985-2.344 5.157-4.578 5.157-7.11zm5.89-.952v8.78h.813v-8.78zm0 0"/></symbol><symbol overflow="visible" id="W"><path d="M8.031-5.578c-1.594-.188-3.125-1.047-3.125-2.11v-.343h-.828v.344c0 1.062-1.547 1.921-3.14 2.109l.28.594c1.391-.172 2.72-.782 3.266-1.72.563.938 1.891 1.548 3.282 1.72zM8.47-3.75v-.656H.516v.656h3.562v.875h-2.61v.61h5.188v.812H1.5V.625h6.203V0H2.281v-.875h5.172v-2H4.891v-.875zm0 0"/></symbol><symbol overflow="visible" id="X"><path d="M5.219-5.781v.656h1.734v2.297h.813v-5.219h-.813v2.266zm.484 2c-1.281-.453-2.14-1.563-2.14-2.688v-.297H5.5v-.656H.797v.656h1.969v.297c0 1.266-.907 2.453-2.22 2.938l.423.625a3.776 3.776 0 0 0 2.219-2.235 3.577 3.577 0 0 0 2.109 1.985zM4.86.094c-1.328 0-2.125-.375-2.125-1 0-.64.797-1.031 2.125-1.031 1.329 0 2.125.39 2.125 1.03 0 .626-.796 1-2.125 1zm0-2.64c-1.796 0-2.921.593-2.921 1.64C1.938.125 3.063.719 4.858.719c1.797 0 2.922-.594 2.922-1.625 0-1.047-1.125-1.64-2.922-1.64zm0 0"/></symbol><symbol overflow="visible" id="Y"><path d="M2.25-5.219h4.484v1.625H2.25zm2.64 4.157v-1.891h2.641v-4.485h-.797v1.563H2.25v-1.563h-.797v4.485h2.625v1.89H.516v.657h7.968v-.656zm0 0"/></symbol><symbol overflow="visible" id="Z"><path d="M4.484.11c-1.406 0-2.203-.282-2.203-.813 0-.516.797-.797 2.203-.797 1.422 0 2.204.281 2.204.797 0 .531-.782.812-2.204.812zm0-2.204c-1.906 0-3 .485-3 1.39 0 .923 1.094 1.423 3 1.423C6.391.719 7.5.219 7.5-.703c0-.906-1.11-1.39-3.016-1.39zm.407-1.312v-.86h2.64v-.625H2.36v-.875H7.25v-.609H2.36v-.813h5.124v-.625H1.563v3.547h2.515v.86H.516v.64h7.953v-.64zm0 0"/></symbol><symbol overflow="visible" id="aa"><path d="M7.734-8.063h-.812v6.454h.812zM5.813-3.686c-1.313-.47-2.204-1.672-2.204-3v-.891h-.796v.89A3.404 3.404 0 0 1 .608-3.53l.422.656c1.032-.422 1.813-1.281 2.188-2.344.39 1 1.172 1.797 2.172 2.172zM2.874-.126v-2.094h-.797v2.75H8v-.656zm0 0"/></symbol><symbol overflow="visible" id="ab"><path d="M6.672-4.563h-4.36v-1.296h4.36zm.797-3.14h-.797V-6.5h-4.36v-1.203h-.796v3.797h5.953zm1.015 4.86H.516v.64h3.562V.734h.797v-2.937h3.61zm0 0"/></symbol><symbol overflow="visible" id="ad"><path d="M8.11-3.766c-1.547-.28-3.22-1.578-3.22-3.03v-.673h-.843v.672c0 1.453-1.672 2.75-3.203 3.031l.328.657c1.36-.282 2.734-1.188 3.297-2.454.562 1.266 1.953 2.172 3.297 2.454zM4.874-1.078v-2.14h-.813v2.14H.517v.656H8.5v-.656zm0 0"/></symbol><symbol overflow="visible" id="ae"><path d="M5.14-4.313c.22-1.156.22-2.03.22-2.609v-.453H.983v.656h3.594c0 .563-.031 1.313-.234 2.313zm.829.532c-.89.125-1.89.203-2.86.234v-1.875h-.78v1.906C1.655-3.5 1.015-3.5.452-3.5l.078.656c1.563 0 3.672-.047 5.5-.344zm-3.36 1.734h-.812V.531H7.64v-.656H2.609zm4.75-3.156v-2.86h-.812v6.626h.812v-3.094h1.266v-.672zm0 0"/></symbol><symbol overflow="visible" id="af"><path d="M6.906-8.063V.735h.797v-8.796zm-5.89.75v5.922h4.14v-5.921H4.36V-5H1.813v-2.313zm.796 2.954H4.36v2.312H1.813zm0 0"/></symbol><symbol overflow="visible" id="ag"><path d="M1.422-5.453c0-.813.64-1.406 1.5-1.406s1.484.593 1.484 1.406c0 .812-.625 1.406-1.484 1.406-.86 0-1.5-.594-1.5-1.406zm5.531-.688v1.375h-1.89c.078-.218.109-.453.109-.687 0-.266-.031-.484-.11-.688zm0 2.032v1.25h.813v-5.204h-.813v1.266H4.687c-.39-.453-1.03-.734-1.765-.734-1.313 0-2.266.843-2.266 2.078 0 1.234.953 2.094 2.266 2.094.734 0 1.375-.282 1.765-.75zM4.843.078C3.532.078 2.72-.312 2.72-.969c0-.672.812-1.062 2.125-1.062C6.187-2.031 7-1.641 7-.97 7-.313 6.187.078 4.844.078zm0-2.734c-1.796 0-2.905.625-2.905 1.687C1.938.094 3.046.72 4.844.72 6.656.719 7.78.094 7.78-.97c0-1.062-1.125-1.687-2.937-1.687zm0 0"/></symbol><symbol overflow="visible" id="ah"><path d="M1.828-4.11h3.25v-3.14H1v.656h3.266v1.828H1.03v3.375h.719c1.516 0 2.844-.062 4.438-.328l-.079-.656c-1.546.25-2.843.313-4.28.313zm5.094-3.968V.734h.812v-8.812zm0 0"/></symbol><symbol overflow="visible" id="ai"><path d="M6.953-.047H2.922V-1.14h4.031zm0-1.719H2.922v-1.062h-.797V.594H7.75v-3.422h-.797zM4.125-4.234H1.75v-1.407h2.375zm2.828-3.813v2.156H4.922v-1.718h-.797v1.343H1.75v-1.343H.953v4.03h3.969v-1.655h2.031v1.984h.813v-4.797zm0 0"/></symbol><symbol overflow="visible" id="aj"><path d="M7.734-8.047h-.812v6.406h.812zm-6.218 2.75c0-.844.64-1.453 1.484-1.453.875 0 1.531.61 1.531 1.453 0 .875-.656 1.484-1.531 1.484-.844 0-1.484-.609-1.484-1.484zm3.796 0c0-1.25-.984-2.156-2.312-2.156-1.297 0-2.281.906-2.281 2.156 0 1.281.984 2.188 2.281 2.188 1.328 0 2.313-.907 2.313-2.188zM2.876-.125v-2.172h-.797V.531H8v-.656zm0 0"/></symbol><symbol overflow="visible" id="ak"><path d="M7-8.188v3.454h-.734v-3.313H5.062v5.844c-1.328-.703-1.78-2.203-1.78-3.766v-.25H4.64v-1.047H.547v1.047H2.03v.25c0 1.735-.437 3.328-1.781 4.11l.781.984c.844-.5 1.375-1.36 1.657-2.39.328.89.843 1.624 1.656 2.046l.718-.968V.437h1.204v-4.109H7v4.5h1.234v-9.015zm0 0"/></symbol><symbol overflow="visible" id="al"><path d="M5.531-4.438c-.984.204-1.875.266-3.484.282v-2.282h2.75v-1.03H.766v4.343h.75c2 0 3.03-.047 4.14-.297zM3-2.344H1.703V.687h6.14v-1.03H3zm4.531-3.375v-2.468H6.234v6.53h1.297v-3H8.72v-1.062zm0 0"/></symbol><symbol overflow="visible" id="am"><path d="M6.688-.297H3.265v-.766h3.421zm0-1.75H3.265v-.797H1.984V.72H7.97v-3.563H6.687zM3.796-4.53H2.094v-1.063h1.703zm2.875-3.657v2.063h-1.61v-1.594H3.798v1.14H2.094v-1.14H.797V-3.5h4.266v-1.578h1.609v1.844h1.297v-4.954zm0 0"/></symbol><symbol overflow="visible" id="an"><path d="M7.922-8.172H6.609v6.485h1.313zm-6.11 2.86c0-.735.532-1.172 1.188-1.172.688 0 1.188.437 1.188 1.171 0 .735-.5 1.172-1.188 1.172-.656 0-1.188-.437-1.188-1.171zm3.641 0C5.453-6.641 4.391-7.61 3-7.61c-1.375 0-2.453.968-2.453 2.296C.547-4 1.625-3.03 3-3.03c1.39 0 2.453-.969 2.453-2.281zM3.203-.345v-1.984H1.906V.687h6.235v-1.03zm0 0"/></symbol><symbol overflow="visible" id="ap"><path d="M.86-7.375v6.078h4.343v-6.078zm3.062 1.031v4.016H2.14v-4.016zm2.687-1.843V.858h1.282v-9.046zm0 0"/></symbol><symbol overflow="visible" id="aq"><path d="M1.922-3.813h2.14v-3.5H.656v1.047h2.172v1.438H.672v3.672h.625c1.094 0 2.078-.032 3.234-.219l-.11-1.047c-.89.14-1.671.188-2.5.203zm5.016-4.374v3.406h-.813v-3.25H4.922V.406h1.203V-3.75h.813V.828h1.218v-9.015zm0 0"/></symbol><symbol overflow="visible" id="ar"><path d="M3.328-7.578c-1.422 0-2.484.922-2.484 2.219 0 1.296 1.062 2.218 2.484 2.218 1.406 0 2.485-.921 2.485-2.218S4.734-7.58 3.328-7.58zm0 1.11c.688 0 1.219.405 1.219 1.109 0 .703-.531 1.125-1.219 1.125-.703 0-1.234-.422-1.234-1.125 0-.704.531-1.11 1.234-1.11zm3.328-1.72V.86h1.282v-9.046zM.625-.968c1.563 0 3.672-.016 5.61-.407l-.079-.938c-1.89.282-4.11.297-5.703.297zm0 0"/></symbol><symbol overflow="visible" id="as"><path d="M5.734-7.39H3.72v-.844H2.422v.843h-2v1.016h5.312zm-3.64 2.968c0-.453.39-.687.984-.687.578 0 .985.234.985.687 0 .453-.407.672-.985.672-.594 0-.984-.219-.984-.672zm3.203 0c0-.984-.922-1.656-2.219-1.656-1.297 0-2.219.672-2.219 1.656 0 .984.922 1.656 2.22 1.656 1.296 0 2.218-.671 2.218-1.656zM1.516-1.109h4.718V.859h1.297v-3.015H1.516zm7.203-4.75H7.53v-2.329H6.234v5.657h1.297v-2.266H8.72zm0 0"/></symbol><symbol overflow="visible" id="at"><path d="M1.766-5.313c0-.734.484-1.203 1.14-1.203.672 0 1.156.47 1.156 1.204 0 .75-.484 1.218-1.156 1.218-.656 0-1.14-.468-1.14-1.218zm4.906-.578v1.157H5.219c.047-.172.078-.375.078-.579 0-.203-.031-.406-.078-.578zm0 2.188v2.125h1.297v-6.61H6.672v1.266H4.656c-.437-.453-1.047-.719-1.75-.719-1.328 0-2.375.985-2.375 2.329 0 1.359 1.047 2.343 2.375 2.343.703 0 1.328-.281 1.781-.734zm-3.36 3.36V-2.22H2.016V.687h6.156v-1.03zm0 0"/></symbol><symbol overflow="visible" id="au"><path d="M8.578-3.828H7.391c.234-1.25.234-2.172.234-3.016v-.812H1.359v1.031h5c0 .781-.015 1.656-.25 2.797H.438v1.047h3.359V.844h1.312v-3.625h3.47zm0 0"/></symbol></defs><g fill="#898989"><use xlink:href="#a" x="28.312" y="819.169"/><use xlink:href="#b" x="32.591" y="819.169"/></g><g fill="#898989"><use xlink:href="#c" x="36.906" y="819.169"/><use xlink:href="#c" x="38.996" y="819.169"/></g><g fill="#595757"><use xlink:href="#d" x="488.559" y="818.993"/><use xlink:href="#e" x="491.735" y="818.993"/><use xlink:href="#f" x="493.245" y="818.993"/><use xlink:href="#g" x="494.629" y="818.993"/><use xlink:href="#h" x="496.187" y="818.993"/><use xlink:href="#i" x="501.581" y="818.993"/><use xlink:href="#j" x="506.974" y="818.993"/><use xlink:href="#k" x="512.368" y="818.993"/><use xlink:href="#g" x="517.761" y="818.993"/><use xlink:href="#l" x="519.319" y="818.993"/><use xlink:href="#m" x="524.713" y="818.993"/><use xlink:href="#g" x="530.106" y="818.993"/><use xlink:href="#n" x="531.664" y="818.993"/><use xlink:href="#o" x="537.058" y="818.993"/><use xlink:href="#g" x="542.451" y="818.993"/><use xlink:href="#p" x="544.009" y="818.993"/><use xlink:href="#q" x="549.403" y="818.993"/><use xlink:href="#g" x="554.796" y="818.993"/><use xlink:href="#g" x="556.354" y="818.993"/><use xlink:href="#g" x="557.912" y="818.993"/></g><use xlink:href="#r" x="229.76" y="403.236"/><use xlink:href="#s" x="236.927" y="403.236"/><use xlink:href="#s" x="240.643" y="403.236"/><use xlink:href="#t" x="244.358" y="403.236"/><use xlink:href="#u" x="248.026" y="403.236"/><use xlink:href="#v" x="251.142" y="403.236"/><use xlink:href="#w" x="261.929" y="403.236"/><use xlink:href="#x" x="272.716" y="403.236"/><use xlink:href="#u" x="283.503" y="403.236"/><use xlink:href="#y" x="286.619" y="403.236"/><use xlink:href="#z" x="297.406" y="403.236"/><use xlink:href="#A" x="301.84" y="403.236"/><use xlink:href="#B" x="312.627" y="403.236"/><use xlink:href="#C" x="323.414" y="403.236"/><use xlink:href="#u" x="334.201" y="403.236"/><use xlink:href="#D" x="337.317" y="403.236"/><use xlink:href="#E" x="348.104" y="403.236"/><use xlink:href="#u" x="358.891" y="403.236"/><use xlink:href="#u" x="362.007" y="403.236"/><g><use xlink:href="#r" x="260.203" y="426.212"/><use xlink:href="#s" x="267.37" y="426.212"/><use xlink:href="#s" x="271.086" y="426.212"/><use xlink:href="#s" x="274.801" y="426.212"/><use xlink:href="#t" x="278.517" y="426.212"/><use xlink:href="#u" x="282.184" y="426.212"/><use xlink:href="#A" x="285.301" y="426.212"/><use xlink:href="#B" x="296.087" y="426.212"/><use xlink:href="#F" x="306.874" y="426.212"/><use xlink:href="#G" x="317.661" y="426.212"/><use xlink:href="#u" x="328.448" y="426.212"/><use xlink:href="#u" x="331.564" y="426.212"/></g><g><use xlink:href="#H" x="166.333" y="449.188"/></g><g fill="#595757"><use xlink:href="#I" x="198.844" y="342.379"/><use xlink:href="#J" x="217.721" y="342.379"/><use xlink:href="#K" x="236.598" y="342.379"/><use xlink:href="#L" x="255.475" y="342.379"/><use xlink:href="#M" x="274.352" y="342.379"/><use xlink:href="#N" x="279.805" y="342.379"/><use xlink:href="#O" x="298.682" y="342.379"/><use xlink:href="#P" x="317.559" y="342.379"/><use xlink:href="#M" x="336.437" y="342.379"/><use xlink:href="#Q" x="341.89" y="342.379"/><use xlink:href="#R" x="353.824" y="342.379"/><use xlink:href="#Q" x="365.759" y="342.379"/><use xlink:href="#S" x="377.693" y="342.379"/></g><g fill="#595757"><use xlink:href="#T" x="167.432" y="308.707"/><use xlink:href="#U" x="176.144" y="308.707"/><use xlink:href="#V" x="184.857" y="308.707"/><use xlink:href="#W" x="193.569" y="308.707"/><use xlink:href="#X" x="202.281" y="308.707"/><use xlink:href="#Y" x="210.993" y="308.707"/><use xlink:href="#Z" x="219.706" y="308.707"/><use xlink:href="#aa" x="228.418" y="308.707"/><use xlink:href="#ab" x="237.13" y="308.707"/><use xlink:href="#ac" x="245.843" y="308.707"/><use xlink:href="#ad" x="248.29" y="308.707"/><use xlink:href="#ae" x="257.002" y="308.707"/><use xlink:href="#ac" x="265.714" y="308.707"/><use xlink:href="#af" x="268.162" y="308.707"/><use xlink:href="#ag" x="276.874" y="308.707"/><use xlink:href="#ah" x="285.586" y="308.707"/><use xlink:href="#ai" x="294.299" y="308.707"/><use xlink:href="#aj" x="303.011" y="308.707"/><use xlink:href="#ac" x="311.723" y="308.707"/></g><g fill="#595757"><use xlink:href="#ak" x="314.17" y="308.707"/><use xlink:href="#al" x="322.883" y="308.707"/><use xlink:href="#am" x="331.595" y="308.707"/><use xlink:href="#an" x="340.307" y="308.707"/><use xlink:href="#ao" x="349.02" y="308.707"/><use xlink:href="#ap" x="351.467" y="308.707"/><use xlink:href="#aq" x="360.179" y="308.707"/><use xlink:href="#ar" x="368.892" y="308.707"/><use xlink:href="#as" x="377.604" y="308.707"/><use xlink:href="#at" x="386.316" y="308.707"/><use xlink:href="#au" x="395.028" y="308.707"/><use xlink:href="#ak" x="403.741" y="308.707"/><use xlink:href="#al" x="412.453" y="308.707"/></g><path d="M166.332 358.234h256.223" fill="none" stroke-width=".20175558000000002" stroke="#9d9d9e"/></svg>