<svg xmlns="http://www.w3.org/2000/svg" xmlns:xlink="http://www.w3.org/1999/xlink" width="793.701" height="1122.52" viewBox="0 0 595.276 841.89" version="1.2"><defs><symbol overflow="visible" id="a"><path d="M3.688-4.531H2.046l-.25.875a.613.613 0 0 1 .11-.016H2c.508 0 .93.176 1.266.516.332.344.5.789.5 1.328 0 .555-.192 1.012-.563 1.375-.375.355-.851.531-1.422.531C1.082.078.535-.25.141-.906l.593-.5c.164.281.332.48.5.593.164.118.375.172.625.172.309 0 .579-.109.797-.328.215-.226.328-.508.328-.844 0-.332-.113-.609-.328-.828a1.075 1.075 0 0 0-.797-.328c-.355 0-.664.16-.921.469H.671L1.5-5.281h2.188zm0 0"/></symbol><symbol overflow="visible" id="b"><path d="M1.75-.75h1.969V0H.172L2-2.219c.184-.215.336-.406.453-.562.121-.164.219-.305.281-.422.133-.207.204-.399.204-.578a.814.814 0 0 0-.266-.61.924.924 0 0 0-.64-.25c-.532 0-.84.317-.923.938H.33C.448-4.805 1.007-5.36 2-5.36c.488 0 .895.152 1.219.453.32.304.484.68.484 1.125 0 .293-.074.582-.219.86-.086.136-.199.304-.343.5-.149.198-.336.433-.563.702zm0 0"/></symbol><symbol overflow="visible" id="d"><path d="M.64 0H1v-4.375H.64zm0 0"/></symbol><symbol overflow="visible" id="e"><path d="M1.453 0h.406l1.422-4.375h-.375l-.781 2.516c-.156.53-.281.937-.453 1.468H1.64c-.172-.53-.282-.937-.454-1.468l-.78-2.516H.03zm0 0"/></symbol><symbol overflow="visible" id="f"><path d="M.75-.156c.156 0 .313-.11.313-.313A.317.317 0 0 0 .75-.797a.317.317 0 0 0-.313.328c0 .203.157.313.313.313zm0 0"/></symbol><symbol overflow="visible" id="h"><path d="M.266 0h2.64v-.313h-1.36c-.234 0-.484.016-.718.032 1.156-1.078 1.86-2 1.86-2.922 0-.75-.438-1.25-1.204-1.25-.53 0-.906.266-1.234.625l.219.219c.25-.313.594-.547.984-.547.61 0 .89.422.89.968 0 .797-.593 1.688-2.077 2.97zm0 0"/></symbol><symbol overflow="visible" id="i"><path d="M1.61.078c.796 0 1.28-.75 1.28-2.281 0-1.516-.484-2.25-1.28-2.25-.798 0-1.298.734-1.298 2.25C.313-.672.813.078 1.61.078zm0-.297c-.579 0-.938-.656-.938-1.984 0-1.297.36-1.953.937-1.953.563 0 .938.656.938 1.953 0 1.328-.375 1.984-.938 1.984zm0 0"/></symbol><symbol overflow="visible" id="j"><path d="M.547 0h2.265v-.313h-.921v-4.062h-.282c-.203.125-.468.219-.828.281v.235h.766v3.546h-1zm0 0"/></symbol><symbol overflow="visible" id="k"><path d="M4.36-.938h.327v-3.968H4.36v.75H2.72v.265h1.64v.766H2.72v.266h1.64zM3.405-2.28c-.875.156-1.61.203-2.36.203H.985V-4.5H.656v2.688h.39c.766 0 1.5-.032 2.391-.204zM1.656.016v-1.282h-.312V.281h3.5V.016zm0 0"/></symbol><symbol overflow="visible" id="l"><path d="M2.016-4.422h-.313v1.063C1.703-2.391.984-1.375.281-1l.203.25c.579-.328 1.157-1.047 1.391-1.875.234.781.797 1.453 1.375 1.766l.203-.25c-.703-.36-1.437-1.329-1.437-2.25zm3.312 1.734h-.937v-2.218h-.313V.422h.313v-2.844h.937zm0 0"/></symbol><symbol overflow="visible" id="m"><path d="M4.36.078H1.671v-.812h2.687zM4.36-1H1.671v-.766h-.328v2.11h3.343v-2.11H4.36zM1.78-2.5c-.61 0-1.047-.406-1.047-.938 0-.546.438-.937 1.047-.937.61 0 1.047.39 1.047.938 0 .53-.437.937-1.047.937zM4.36-4.906v1.312H3.125c-.078-.64-.61-1.062-1.344-1.062-.797 0-1.343.5-1.343 1.218 0 .72.546 1.22 1.343 1.22.75 0 1.282-.438 1.344-1.095h1.234v1.266h.329v-2.86zm0 0"/></symbol><symbol overflow="visible" id="n"><path d="M1.266-3.203H4.25v1.11H1.266zm1.64 2.64v-1.25h1.656v-2.703H4.25v1.032H1.266v-1.032H.937v2.704h1.657v1.25H.344v.265h4.828v-.266zm0 0"/></symbol><symbol overflow="visible" id="o"><path d="M4.188-3.781c0 .64 0 1.36-.188 2.36l.328.046c.188-1.047.188-1.766.188-2.406v-.531H.859v.25h3.329zM2.625-.671V-2.61h-.313v1.937H.345v.281h4.812v-.28zm0 0"/></symbol><symbol overflow="visible" id="p"><path d="M.516 0h5.937v-1.484H4.531c-.406 0-1 .046-1.437.093 1.61-1.578 2.953-3.312 2.953-4.906 0-1.656-1.125-2.734-2.797-2.734-1.219 0-2 .469-2.813 1.344l.954.953c.437-.485.984-.907 1.625-.907.843 0 1.328.532 1.328 1.438 0 1.36-1.422 3.031-3.828 5.187zm0 0"/></symbol><symbol overflow="visible" id="q"><path d="M3.531.172c1.797 0 3-1.594 3-4.64 0-3.063-1.203-4.563-3-4.563-1.812 0-3 1.5-3 4.562 0 3.047 1.188 4.64 3 4.64zm0-1.375c-.765 0-1.344-.781-1.344-3.266 0-2.484.579-3.203 1.344-3.203.766 0 1.328.719 1.328 3.203 0 2.485-.562 3.266-1.328 3.266zm0 0"/></symbol><symbol overflow="visible" id="r"><path d="M.984 0h5.329v-1.422H4.655v-7.453H3.344c-.563.36-1.172.578-2.063.75v1.094h1.61v5.61H.984zm0 0"/></symbol><symbol overflow="visible" id="w"><path d="M1.094 0h1.765v-8.875H1.094zm0 0"/></symbol><symbol overflow="visible" id="x"><path d="M.953 0h1.75v-4.61c.5-.5.844-.765 1.39-.765.657 0 .954.375.954 1.406V0h1.766v-4.188c0-1.687-.625-2.687-2.079-2.687-.906 0-1.593.469-2.187 1.047H2.5l-.11-.89H.954zm0 0"/></symbol><symbol overflow="visible" id="y"><path d="M3.406.172c.578 0 1.047-.14 1.406-.25l-.28-1.281c-.188.062-.438.14-.657.14-.61 0-.922-.36-.922-1.125v-2.984H4.61v-1.39H2.953v-1.798H1.484l-.203 1.797-1.031.094v1.297h.953v2.984c0 1.5.61 2.516 2.203 2.516zm0 0"/></symbol><symbol overflow="visible" id="z"><path d="M3.86.172c.843 0 1.687-.297 2.343-.75L5.61-1.656c-.484.297-.953.468-1.515.468-.985 0-1.703-.578-1.86-1.671h4.141c.047-.157.078-.485.078-.813 0-1.86-.953-3.203-2.797-3.203-1.61 0-3.125 1.344-3.125 3.531C.531-1.14 1.984.172 3.86.172zM2.218-4.031c.125-.985.75-1.485 1.453-1.485.875 0 1.281.579 1.281 1.485zm0 0"/></symbol><symbol overflow="visible" id="A"><path d="M.953 0h1.75v-4c.375-.969 1.016-1.328 1.547-1.328.266 0 .453.047.688.11l.312-1.516a2.022 2.022 0 0 0-.797-.141c-.687 0-1.406.469-1.906 1.344H2.5L2.39-6.72H.954zm0 0"/></symbol><symbol overflow="visible" id="B"><path d="M2.594.172c.781 0 1.437-.39 2.031-.89h.031l.14.718h1.438v-3.922c0-1.937-.875-2.953-2.578-2.953-1.062 0-2.015.39-2.812.89l.64 1.157c.625-.36 1.22-.64 1.844-.64.828 0 1.125.5 1.14 1.171C1.782-4.016.61-3.266.61-1.828c0 1.14.797 2 1.985 2zm.578-1.375c-.516 0-.89-.234-.89-.766 0-.593.562-1.047 2.187-1.25v1.344c-.422.422-.797.672-1.297.672zm0 0"/></symbol><symbol overflow="visible" id="C"><path d="M.953 0h1.75v-6.719H.953zm.875-7.797c.61 0 1.047-.406 1.047-.953 0-.578-.438-.953-1.047-.953-.61 0-1.047.375-1.047.953 0 .547.438.953 1.047.953zm0 0"/></symbol><symbol overflow="visible" id="D"><path d="M3.75.172c1.672 0 3.219-1.297 3.219-3.516 0-2.234-1.547-3.531-3.219-3.531S.531-5.578.531-3.344C.531-1.125 2.078.172 3.75.172zm0-1.438c-.906 0-1.422-.812-1.422-2.078 0-1.265.516-2.094 1.422-2.094.906 0 1.422.829 1.422 2.094 0 1.266-.516 2.078-1.422 2.078zm0 0"/></symbol><symbol overflow="visible" id="E"><path d="M2.594.172c.422 0 .719-.078.922-.156l-.22-1.313c-.124.031-.171.031-.233.031-.172 0-.36-.14-.36-.53v-7.766H.953v7.687c0 1.234.422 2.047 1.64 2.047zm0 0"/></symbol><symbol overflow="visible" id="G"><path d="M1.094 0h1.765v-3.594h3.157v-1.484H2.859v-2.313h3.704v-1.484h-5.47zm0 0"/></symbol><symbol overflow="visible" id="H"><path d="M2.938.172c.921 0 1.562-.453 2.14-1.125h.047l.14.953h1.438v-6.719H4.937v4.532c-.453.609-.812.843-1.359.843-.656 0-.937-.36-.937-1.406v-3.969H.875v4.203C.875-.844 1.5.172 2.938.172zm0 0"/></symbol><symbol overflow="visible" id="I"><path d="M.953 0h1.75v-4.61c.469-.515.906-.765 1.281-.765.641 0 .938.375.938 1.406V0h1.766v-4.61c.484-.515.906-.765 1.296-.765.625 0 .938.375.938 1.406V0h1.75v-4.188c0-1.687-.656-2.687-2.078-2.687-.875 0-1.516.516-2.14 1.172-.313-.75-.876-1.172-1.845-1.172-.875 0-1.5.469-2.062 1.063H2.5l-.11-.907H.954zm0 0"/></symbol><symbol overflow="visible" id="J"><path d="M1.094 0h1.593v-3.703c0-.844-.14-2.078-.234-2.906H2.5l.719 2.078L4.594-.797h1.015L6.97-4.53l.718-2.078h.047c-.078.828-.203 2.062-.203 2.906V0h1.61v-8.875H7.17L5.704-4.719c-.187.547-.344 1.14-.531 1.703h-.063c-.187-.562-.359-1.156-.546-1.703l-1.5-4.156h-1.97zm0 0"/></symbol><symbol overflow="visible" id="K"><path d="M3.313.172c.687 0 1.359-.39 1.859-.86h.031l.14.688h1.423v-9.563h-1.75v2.36l.062 1.062c-.469-.453-.937-.734-1.703-.734-1.453 0-2.813 1.344-2.813 3.531 0 2.188 1.079 3.516 2.75 3.516zm.453-1.453c-.891 0-1.391-.703-1.391-2.094 0-1.328.64-2.047 1.39-2.047.422 0 .844.125 1.25.5v2.938c-.39.515-.78.703-1.25.703zm0 0"/></symbol><symbol overflow="visible" id="L"><path d="M3.797.172c.75 0 1.562-.25 2.187-.813l-.687-1.171c-.375.312-.828.546-1.313.546-.968 0-1.656-.812-1.656-2.078 0-1.265.688-2.094 1.703-2.094.39 0 .703.157 1.032.438l.843-1.14a2.9 2.9 0 0 0-1.953-.735C2.141-6.875.531-5.578.531-3.344.531-1.125 1.937.172 3.797.172zm0 0"/></symbol><symbol overflow="visible" id="M"><path d="M2.453 0H4.5l2.234-6.719H5.047l-.984 3.344c-.172.672-.375 1.36-.547 2.047h-.047c-.188-.688-.375-1.375-.547-2.047l-.985-3.344H.173zm0 0"/></symbol><symbol overflow="visible" id="N"><path d="M4.86-9.484a3.51 3.51 0 0 0-1.282-.25c-1.687 0-2.328 1.078-2.328 2.484v.547l-.906.078v1.297h.906V0h1.766v-5.328h1.25v-1.39h-1.25v-.563c0-.75.28-1.063.812-1.063.203 0 .469.063.703.14zm0 0"/></symbol><symbol overflow="visible" id="O"><path d="M4.703.172c1.156 0 2.11-.453 2.828-1.313L6.61-2.234c-.484.515-1.078.875-1.843.875-1.391 0-2.313-1.172-2.313-3.094 0-1.906 1.016-3.063 2.36-3.063.671 0 1.171.313 1.625.75l.937-1.125c-.578-.609-1.484-1.14-2.61-1.14-2.234 0-4.124 1.703-4.124 4.64C.64-1.437 2.469.172 4.703.172zm0 0"/></symbol><symbol overflow="visible" id="P"><path d="M2.031-2.453c0-.485.313-.875.735-1.25.562.75 1.25 1.453 2 2.078-.422.266-.86.438-1.297.438-.844 0-1.438-.516-1.438-1.266zm.89-4.328c0-.657.376-1.078.892-1.078.468 0 .671.328.671.765 0 .64-.546 1.078-1.234 1.5-.203-.422-.328-.812-.328-1.187zM8.61-1.266c-.453-.093-.984-.312-1.562-.64.687-.922 1.172-1.953 1.5-3.047H6.953a6.432 6.432 0 0 1-1.094 2.25 11.34 11.34 0 0 1-1.921-1.844c.953-.656 1.906-1.39 1.906-2.562 0-1.157-.797-1.922-2.063-1.922-1.422 0-2.312 1.015-2.312 2.25 0 .578.203 1.25.562 1.922C1.141-4.297.36-3.58.36-2.344.36-.969 1.406.172 3.266.172c1.078 0 1.984-.36 2.718-.938.735.47 1.5.782 2.204.938zm0 0"/></symbol><symbol overflow="visible" id="Q"><path d="M1.094 0H4.25c1.953 0 3.438-.828 3.438-2.61 0-1.203-.704-1.874-1.657-2.093v-.063c.75-.265 1.203-1.109 1.203-1.921 0-1.657-1.39-2.188-3.203-2.188H1.094zm1.765-5.266v-2.25h1.063c1.062 0 1.594.313 1.594 1.094 0 .703-.5 1.156-1.625 1.156zm0 3.907v-2.579h1.235c1.234 0 1.875.36 1.875 1.22 0 .921-.657 1.359-1.875 1.359zm0 0"/></symbol><symbol overflow="visible" id="R"><path d="M2.86 0h1.765v-7.39h2.516v-1.485H.359v1.484h2.5zm0 0"/></symbol><symbol overflow="visible" id="S"><path d="M.953 0h1.75v-4.61c.5-.5.844-.765 1.39-.765.657 0 .954.375.954 1.406V0h1.766v-4.188c0-1.687-.625-2.687-2.079-2.687-.906 0-1.578.469-2.109.984l.078-1.265v-2.407H.953zm0 0"/></symbol><symbol overflow="visible" id="T"><path d="M.953 2.578h1.75V.547l-.047-1.11c.5.47 1.078.735 1.656.735 1.47 0 2.86-1.328 2.86-3.64 0-2.063-.984-3.407-2.64-3.407-.72 0-1.423.375-1.985.86H2.5l-.11-.704H.954zm2.969-3.86c-.36 0-.797-.14-1.219-.5v-2.952c.453-.47.875-.688 1.328-.688.922 0 1.328.703 1.328 1.984 0 1.454-.625 2.157-1.437 2.157zm0 0"/></symbol><symbol overflow="visible" id="U"><path d="M1.531 2.703c1.5 0 2.219-.922 2.813-2.5l2.375-6.922H5.03L4.11-3.594c-.156.625-.328 1.266-.484 1.89h-.047c-.203-.64-.36-1.296-.562-1.89L1.937-6.719H.173l2.61 6.594-.126.406c-.187.578-.578 1.016-1.25 1.016-.156 0-.36-.047-.468-.094l-.329 1.36a2.6 2.6 0 0 0 .922.14zm0 0"/></symbol><symbol overflow="visible" id="t"><path d="M2.203.11c1.094 0 2.063-.75 2.063-2.079 0-1.281-.829-1.875-1.813-1.875-.265 0-.484.063-.719.172l.125-1.25H4v-.984H.844l-.172 2.86.547.358C1.562-2.921 1.75-3 2.094-3c.61 0 1 .375 1 1.063 0 .703-.422 1.093-1.047 1.093-.547 0-.969-.281-1.297-.594l-.547.75c.438.438 1.063.797 2 .797zm0 0"/></symbol><symbol overflow="visible" id="u"><path d="M2.266.11c.39 0 .703-.079.937-.172l-.187-.844a1.368 1.368 0 0 1-.438.094c-.39 0-.61-.235-.61-.75v-1.985h1.11v-.922h-1.11v-1.203H.985L.86-4.469l-.687.047v.875h.625v1.985c0 1 .406 1.671 1.469 1.671zm0 0"/></symbol><symbol overflow="visible" id="v"><path d="M.625 0h1.172v-3.078c.328-.328.562-.5.937-.5.438 0 .625.25.625.937V0h1.172v-2.781c0-1.125-.406-1.797-1.375-1.797-.61 0-1.047.312-1.406.656l.047-.844v-1.609H.625zm0 0"/></symbol><symbol overflow="visible" id="V"><path d="M2.297-3.047l.219-.812c.218-.766.437-1.61.625-2.407h.046c.22.797.422 1.641.641 2.407l.219.812zM4.89 0h1.546L4.063-7.39H2.329L-.047 0h1.5l.531-1.89h2.391zm0 0"/></symbol><symbol overflow="visible" id="W"><path d="M.906 0h2.64c1.626 0 2.86-.688 2.86-2.172 0-1-.578-1.562-1.39-1.75v-.047c.64-.219 1.015-.922 1.015-1.61 0-1.374-1.156-1.812-2.672-1.812H.906zm1.485-4.39v-1.876h.875c.89 0 1.328.266 1.328.907 0 .593-.407.968-1.344.968zm0 3.25v-2.141h1.03c1.017 0 1.548.297 1.548 1.015 0 .766-.547 1.125-1.547 1.125zm0 0"/></symbol><symbol overflow="visible" id="X"><path d="M3.11.14c1.718 0 2.718-1.03 2.718-2.234 0-1.078-.594-1.64-1.484-2.015l-.969-.407c-.625-.25-1.156-.437-1.156-.968 0-.485.422-.782 1.062-.782.61 0 1.11.22 1.578.61l.735-.922C5-7.188 4.14-7.531 3.28-7.531c-1.5 0-2.547.937-2.547 2.14 0 1.079.75 1.672 1.485 1.985l1 .422c.656.28 1.11.453 1.11 1 0 .515-.423.843-1.188.843-.641 0-1.344-.328-1.875-.812L.422-.937A3.93 3.93 0 0 0 3.109.14zm0 0"/></symbol><symbol overflow="visible" id="Y"><path d="M2.375 0h1.484v-6.156h2.094v-1.235H.297v1.235h2.078zm0 0"/></symbol><symbol overflow="visible" id="Z"><path d="M2.39-6.219h.954c.953 0 1.469.266 1.469 1.063 0 .797-.516 1.187-1.47 1.187h-.952zM6.579 0L4.86-3.031c.844-.328 1.407-1.016 1.407-2.125 0-1.688-1.235-2.235-2.782-2.235H.906V0h1.485v-2.797h1.03L4.939 0zm0 0"/></symbol><symbol overflow="visible" id="aa"><path d="M3.922.14c.953 0 1.75-.374 2.36-1.093L5.5-1.86c-.39.421-.89.718-1.531.718-1.156 0-1.922-.968-1.922-2.578 0-1.578.844-2.547 1.953-2.547.563 0 1 .266 1.36.625l.78-.937c-.484-.5-1.234-.953-2.171-.953-1.86 0-3.422 1.437-3.422 3.86C.547-1.204 2.062.14 3.922.14zm0 0"/></symbol><symbol overflow="visible" id="ab"><path d="M1.703 0h3.969c2.781 0 4.719-1.203 4.719-3.656 0-1.688-1.047-2.672-2.547-2.969v-.078c1.172-.375 1.843-1.469 1.843-2.703 0-2.188-1.75-3.047-4.28-3.047H1.702zm1.578-7.156v-4.047h1.922c1.938 0 2.938.531 2.938 2 0 1.25-.875 2.047-3.016 2.047zm0 5.906v-4.688h2.172c2.172 0 3.39.688 3.39 2.235 0 1.687-1.25 2.453-3.39 2.453zm0 0"/></symbol><symbol overflow="visible" id="ac"><path d="M1.563 0h1.546v-5.922C3.72-7.5 4.672-8.047 5.438-8.047c.375 0 .593.031.89.156l.297-1.359c-.297-.156-.578-.203-.984-.203-1.032 0-1.97.734-2.625 1.906h-.047l-.125-1.672H1.563zm0 0"/></symbol><symbol overflow="visible" id="ad"><path d="M5.281.219c1.25 0 2.25-.422 3.063-.953L7.78-1.75c-.687.453-1.406.734-2.312.734-1.75 0-2.953-1.265-3.063-3.234h6.219c.031-.219.078-.547.078-.875 0-2.64-1.328-4.328-3.672-4.328C2.891-9.453.86-7.593.86-4.61.86-1.563 2.844.219 5.281.219zm-2.89-5.563c.187-1.828 1.343-2.875 2.656-2.875 1.437 0 2.297 1 2.297 2.875zm0 0"/></symbol><symbol overflow="visible" id="ae"><path d="M3.688.219c1.14 0 2.171-.594 3.062-1.328h.047L6.922 0h1.281v-5.672c0-2.281-.953-3.781-3.187-3.781-1.485 0-2.797.656-3.641 1.203l.61 1.063c.734-.485 1.702-.985 2.765-.985 1.516 0 1.906 1.14 1.906 2.328C2.734-5.406.984-4.406.984-2.39.984-.734 2.141.22 3.688.22zm.437-1.235C3.203-1.016 2.5-1.437 2.5-2.5c0-1.188 1.047-1.953 4.156-2.328v2.594c-.906.796-1.625 1.218-2.531 1.218zm0 0"/></symbol><symbol overflow="visible" id="af"><path d="M1.563 0h1.53v-2.422l1.735-2.031L7.531 0h1.672l-3.5-5.516 3.094-3.703H7.078L3.125-4.344h-.031v-9.172H1.563zm0 0"/></symbol><symbol overflow="visible" id="ag"><path d="M4.469.219c.562 0 1.172-.172 1.703-.344l-.313-1.156c-.312.125-.734.25-1.046.25-1.079 0-1.438-.657-1.438-1.782v-5.156h2.5v-1.25h-2.5v-2.578H2.094l-.188 2.578-1.453.078v1.172h1.375v5.11C1.828-1 2.5.219 4.468.219zm0 0"/></symbol><symbol overflow="visible" id="ah"><path d="M1.563 0h1.546v-6.688c.938-.937 1.579-1.421 2.532-1.421 1.218 0 1.75.734 1.75 2.468V0h1.546v-5.844c0-2.36-.89-3.61-2.828-3.61-1.25 0-2.203.688-3.046 1.532l.046-1.89v-3.704H1.563zm0 0"/></symbol><symbol overflow="visible" id="ai"><path d="M5.14.219c2.266 0 4.282-1.766 4.282-4.828 0-3.063-2.016-4.844-4.281-4.844C2.89-9.453.859-7.672.859-4.61.86-1.547 2.891.219 5.141.219zm0-1.282c-1.593 0-2.656-1.421-2.656-3.546 0-2.11 1.063-3.563 2.657-3.563 1.609 0 2.687 1.453 2.687 3.563 0 2.125-1.078 3.546-2.687 3.546zm0 0"/></symbol><symbol overflow="visible" id="aj"><path d="M4.25.219c1.266 0 2.188-.656 3.047-1.657h.062L7.47 0h1.297v-9.219H7.219v6.531c-.89 1.11-1.547 1.563-2.5 1.563-1.219 0-1.735-.719-1.735-2.438v-5.656H1.438v5.844c0 2.344.875 3.594 2.812 3.594zm0 0"/></symbol><symbol overflow="visible" id="ak"><path d="M4.672 4.25c2.86 0 4.656-1.484 4.656-3.203 0-1.5-1.078-2.188-3.219-2.188H4.313c-1.235 0-1.61-.406-1.61-1 0-.515.25-.812.594-1.109.406.203.922.328 1.375.328 1.86 0 3.36-1.234 3.36-3.203 0-.797-.298-1.484-.75-1.906h1.89V-9.22H5.969a3.701 3.701 0 0 0-1.297-.234c-1.875 0-3.469 1.265-3.469 3.281 0 1.11.594 2 1.203 2.484v.063c-.469.344-1.031.953-1.031 1.719 0 .734.36 1.234.844 1.515v.063C1.359.234.844.984.844 1.766c0 1.593 1.562 2.484 3.828 2.484zm0-8.219c-1.078 0-1.969-.86-1.969-2.203 0-1.36.875-2.156 1.969-2.156 1.078 0 1.953.828 1.953 2.156 0 1.344-.906 2.203-1.953 2.203zm.219 7.156c-1.688 0-2.688-.64-2.688-1.624 0-.547.297-1.094.953-1.563.406.11.86.156 1.188.156h1.593c1.235 0 1.891.281 1.891 1.14 0 .97-1.172 1.891-2.937 1.891zm0 0"/></symbol><symbol overflow="visible" id="am"><path d="M4.297 0h1.578v-11.125h3.766v-1.328H.53v1.328h3.766zm0 0"/></symbol><symbol overflow="visible" id="an"><path d="M5.203.219A4.39 4.39 0 0 0 8.172-.953L7.5-1.984c-.578.53-1.313.921-2.172.921-1.687 0-2.844-1.421-2.844-3.546 0-2.11 1.22-3.563 2.875-3.563.75 0 1.313.344 1.86.828l.797-1.031c-.657-.578-1.5-1.078-2.704-1.078C2.954-9.453.86-7.672.86-4.61.86-1.547 2.75.219 5.203.219zm0 0"/></symbol><symbol overflow="visible" id="ao"><path d="M1.563 0h1.546v-6.688c.938-.937 1.579-1.421 2.532-1.421 1.218 0 1.75.734 1.75 2.468V0h1.546v-5.844c0-2.36-.89-3.61-2.828-3.61-1.25 0-2.203.688-3.093 1.563h-.047l-.125-1.328H1.563zm0 0"/></symbol><symbol overflow="visible" id="ap"><path d="M3.188.219c.406 0 .687-.047.906-.14L3.875-1.11c-.172.046-.234.046-.328.046-.235 0-.438-.187-.438-.671v-11.782H1.563v11.688c0 1.297.468 2.047 1.625 2.047zm0 0"/></symbol><symbol overflow="visible" id="aq"><path d="M1.563 0h1.546v-9.219H1.563zm.78-11.125c.61 0 1.063-.422 1.063-1 0-.625-.453-1-1.062-1-.61 0-1.063.375-1.063 1 0 .578.453 1 1.063 1zm0 0"/></symbol><symbol overflow="visible" id="ar"><path d="M3.969.219c2.172 0 3.375-1.235 3.375-2.735 0-1.75-1.485-2.296-2.828-2.796-1.032-.391-2.032-.72-2.032-1.594 0-.719.516-1.328 1.672-1.328.844 0 1.485.343 2.125.812l.75-1c-.734-.562-1.734-1.031-2.875-1.031-2 0-3.172 1.14-3.172 2.61 0 1.562 1.47 2.187 2.75 2.671 1.016.39 2.11.813 2.11 1.75 0 .797-.594 1.438-1.813 1.438-1.11 0-1.937-.438-2.734-1.094L.53-1.047C1.406-.328 2.671.22 3.97.22zm0 0"/></symbol><symbol overflow="visible" id="as"><path d="M4.703.219c1.11 0 2.078-.594 2.797-1.313h.047L7.687 0h1.266v-13.516H7.406v3.547l.078 1.594c-.812-.672-1.5-1.078-2.593-1.078-2.11 0-3.985 1.86-3.985 4.844C.906-1.531 2.391.219 4.703.219zm.344-1.282C3.407-1.063 2.5-2.39 2.5-4.624c0-2.094 1.172-3.531 2.656-3.531.766 0 1.469.281 2.25.969v4.843c-.765.844-1.515 1.281-2.36 1.281zm0 0"/></symbol><symbol overflow="visible" id="at"><path d="M1.703 0h3.188c3.75 0 5.812-2.328 5.812-6.266 0-3.953-2.062-6.187-5.875-6.187H1.703zm1.578-1.297v-9.875h1.406c2.938 0 4.375 1.75 4.375 4.906 0 3.141-1.437 4.97-4.374 4.97zm0 0"/></symbol><symbol overflow="visible" id="au"><path d="M1.703 0h1.578v-5.875h5.813V0h1.562v-12.453H9.094v5.219H3.28v-5.22H1.703zm0 0"/></symbol><symbol overflow="visible" id="av"><path d="M1.703 0h1.578v-3.938l2.14-2.546L9.142 0h1.765l-4.5-7.719 3.89-4.734H8.532l-5.203 6.25h-.047v-6.25H1.703zm0 0"/></symbol><symbol overflow="visible" id="aw"><path d="M2.36-10.125c.609 0 1.14-.469 1.14-1.172 0-.719-.531-1.203-1.14-1.203-.61 0-1.126.484-1.126 1.203 0 .703.516 1.172 1.125 1.172zm0 8.766c.609 0 1.14-.47 1.14-1.172 0-.719-.531-1.203-1.14-1.203-.61 0-1.126.484-1.126 1.203 0 .703.516 1.172 1.125 1.172zm0 0"/></symbol><symbol overflow="visible" id="ax"><path d="M3.25-5.063l.61-1.906c.437-1.406.843-2.75 1.234-4.203h.062c.422 1.438.813 2.797 1.266 4.203l.594 1.907zM8.594 0h1.672L6.03-12.453h-1.75L.047 0H1.64l1.218-3.797h4.547zm0 0"/></symbol><symbol overflow="visible" id="ay"><path d="M1.703 0h1.578v-5.594h4.75v-1.312h-4.75v-4.219h5.61v-1.328H1.703zm0 0"/></symbol><symbol overflow="visible" id="az"><path d="M3.281-11.172H5.36c1.954 0 3.032.578 3.032 2.219 0 1.61-1.079 2.39-3.032 2.39H3.281zM10.328 0L7.141-5.453c1.687-.406 2.812-1.563 2.812-3.5 0-2.594-1.812-3.5-4.344-3.5H1.703V0h1.578v-5.281h2.235L8.546 0zm0 0"/></symbol><symbol overflow="visible" id="aA"><path d="M1.563 0h1.546v-6.688c.844-.953 1.625-1.421 2.329-1.421 1.171 0 1.718.734 1.718 2.468V0h1.547v-6.688c.86-.953 1.61-1.421 2.313-1.421 1.171 0 1.718.734 1.718 2.468V0h1.547v-5.844c0-2.36-.89-3.61-2.797-3.61-1.125 0-2.093.72-3.046 1.767-.376-1.094-1.141-1.766-2.547-1.766-1.094 0-2.063.687-2.875 1.578h-.047l-.125-1.344H1.563zm0 0"/></symbol><symbol overflow="visible" id="aB"><path d="M5.625.219c2.125 0 4-1.813 4-4.985 0-2.828-1.281-4.687-3.688-4.687-1.015 0-2.046.562-2.875 1.297l.047-1.656v-3.704H1.563V0h1.234l.14-.953h.047C3.797-.203 4.766.219 5.625.219zm-.266-1.282c-.609 0-1.437-.265-2.25-.968v-4.844c.875-.844 1.704-1.281 2.485-1.281 1.75 0 2.422 1.375 2.422 3.422 0 2.28-1.125 3.671-2.657 3.671zm0 0"/></symbol><symbol overflow="visible" id="aC"><path d="M1.703 0h1.578v-4.938h2.047c2.719 0 4.594-1.234 4.594-3.859 0-2.719-1.875-3.656-4.672-3.656H1.703zm1.578-6.219v-4.953h1.781c2.188 0 3.297.578 3.297 2.375 0 1.781-1.046 2.578-3.234 2.578zm0 0"/></symbol><symbol overflow="visible" id="aD"><path d="M2.406 0h.563v-6.266h2.125v-.468H.297v.468h2.11zm0 0"/></symbol><symbol overflow="visible" id="aE"><path d="M.922 0h.531v-3.688c.578-.593.984-.89 1.563-.89.75 0 1.078.484 1.078 1.5V0h.531v-3.156c0-1.25-.469-1.89-1.5-1.89-.672 0-1.172.39-1.672.874v-3.172H.922zm0 0"/></symbol><symbol overflow="visible" id="aF"><path d="M2.813.125c.703 0 1.171-.234 1.562-.484L4.172-.75c-.375.25-.781.422-1.313.422-1.062 0-1.765-.844-1.796-2.047h3.484c.031-.125.031-.25.031-.39 0-1.438-.703-2.282-1.906-2.282-1.11 0-2.156 1-2.156 2.594 0 1.61 1.03 2.578 2.296 2.578zm-1.75-2.922c.093-1.125.828-1.797 1.625-1.797.859 0 1.406.61 1.406 1.797zm0 0"/></symbol><symbol overflow="visible" id="aH"><path d="M2.016.125c.625 0 1.218-.344 1.718-.75h.016L3.797 0h.453v-3.125c0-1.078-.406-1.922-1.578-1.922-.813 0-1.485.39-1.875.64l.25.391c.344-.265.906-.562 1.547-.562.937 0 1.14.75 1.125 1.484-2.172.25-3.14.766-3.14 1.86 0 .906.64 1.359 1.437 1.359zm.109-.453c-.547 0-1-.266-1-.938 0-.75.656-1.203 2.594-1.437v1.61c-.578.5-1.047.765-1.594.765zm0 0"/></symbol><symbol overflow="visible" id="aI"><path d="M1.578.125c.172 0 .266-.031.36-.063l-.079-.421c-.109.015-.14.015-.171.015-.141 0-.235-.094-.235-.328v-6.672H.922v6.61c0 .578.219.859.656.859zm0 0"/></symbol><symbol overflow="visible" id="aJ"><path d="M2.313.125c.218 0 .53-.094.812-.188L3-.483c-.172.078-.422.14-.594.14-.656 0-.828-.406-.828-1.015v-3.11h1.406v-.453H1.578v-1.422h-.453l-.063 1.422-.78.047v.406h.765v3.063c0 .922.297 1.531 1.266 1.531zm0 0"/></symbol><symbol overflow="visible" id="aK"><path d="M2.766.125c.625 0 1.156-.266 1.578-.64l-.266-.376c-.328.297-.766.547-1.281.547-1.031 0-1.719-.86-1.719-2.11 0-1.265.75-2.124 1.734-2.124.454 0 .813.203 1.126.5l.296-.375c-.343-.297-.78-.594-1.437-.594-1.219 0-2.281.953-2.281 2.594 0 1.625.968 2.578 2.25 2.578zm0 0"/></symbol><symbol overflow="visible" id="aL"><path d="M.922 0h.531v-3.313c.36-.906.89-1.234 1.328-1.234a.91.91 0 0 1 .453.094l.11-.484c-.156-.094-.313-.11-.5-.11-.578 0-1.063.422-1.39 1.047h-.016l-.079-.922H.922zm0 0"/></symbol><symbol overflow="visible" id="aM"><path d="M.922 0h.531v-4.922H.922zm.281-6.078c.234 0 .453-.172.453-.422 0-.281-.218-.438-.453-.438-.25 0-.453.157-.453.438 0 .25.203.422.453.422zm0 0"/></symbol><symbol overflow="visible" id="aN"><path d="M.922 0h.531v-3.688c.578-.593.984-.89 1.563-.89.75 0 1.078.484 1.078 1.5V0h.531v-3.156c0-1.25-.469-1.89-1.5-1.89-.672 0-1.172.39-1.672.874h-.016l-.078-.75H.922zm0 0"/></symbol><symbol overflow="visible" id="aO"><path d="M2.563.125c.624 0 1.171-.344 1.578-.75h.015L4.22 0h.437v-7.344h-.531v2l.047.89c-.484-.374-.89-.593-1.469-.593-1.172 0-2.187 1-2.187 2.594 0 1.656.812 2.578 2.046 2.578zm.093-.469c-1 0-1.562-.844-1.562-2.11 0-1.218.718-2.124 1.656-2.124.469 0 .875.172 1.375.61v2.843c-.484.5-.953.781-1.469.781zm0 0"/></symbol><symbol overflow="visible" id="aP"><path d="M2.344.125c.672 0 1.172-.39 1.656-.938h.031L4.078 0h.453v-4.922h-.547v3.594c-.546.672-.953.969-1.53.969-.75 0-1.063-.47-1.063-1.485v-3.078H.844v3.156c0 1.25.469 1.891 1.5 1.891zm0 0"/></symbol><symbol overflow="visible" id="aQ"><path d="M2.14.125c1.079 0 1.688-.656 1.688-1.406 0-.953-.844-1.219-1.594-1.5-.578-.219-1.14-.422-1.14-.969 0-.438.328-.844 1.062-.844.469 0 .828.188 1.172.438l.266-.375a2.32 2.32 0 0 0-1.422-.516c-1.031 0-1.625.61-1.625 1.328 0 .844.812 1.156 1.547 1.406.578.204 1.187.47 1.187 1.063 0 .5-.375.922-1.125.922-.672 0-1.125-.25-1.547-.61l-.28.391c.437.36 1.077.672 1.812.672zm0 0"/></symbol><symbol overflow="visible" id="aR"><path d="M.781 2.219c.906 0 1.406-.797 1.703-1.64l1.922-5.5H3.86l-1 3.015c-.14.422-.296.937-.453 1.375H2.36C2.188-.97 2-1.484 1.844-1.906L.704-4.922H.124l2.016 5L2 .484c-.234.72-.64 1.25-1.219 1.25-.14 0-.297-.03-.406-.078l-.11.453c.126.063.329.11.516.11zm0 0"/></symbol><symbol overflow="visible" id="aS"><path d="M2.547 2.344c1.437 0 2.36-.813 2.36-1.672 0-.781-.532-1.14-1.641-1.14H2.219c-.703 0-.922-.266-.922-.61 0-.313.187-.516.39-.688.22.125.532.204.797.204.97 0 1.735-.72 1.735-1.735 0-.5-.219-.922-.5-1.187h1.11v-.438H3.14a1.812 1.812 0 0 0-.657-.125c-.968 0-1.765.719-1.765 1.734 0 .594.312 1.094.625 1.344v.032c-.219.171-.547.5-.547.921 0 .391.203.641.453.797v.047C.797.125.516.562.516 1c0 .828.796 1.344 2.03 1.344zM2.484-1.97c-.656 0-1.234-.531-1.234-1.343 0-.813.563-1.313 1.234-1.313.672 0 1.22.5 1.22 1.313 0 .812-.579 1.343-1.22 1.343zm.125 3.907c-1.015 0-1.593-.407-1.593-1 0-.344.187-.704.609-1 .25.062.516.093.625.093h1c.734 0 1.125.188 1.125.719 0 .594-.703 1.188-1.766 1.188zm0 0"/></symbol><symbol overflow="visible" id="aT"><path d="M2.75.125c1.188 0 2.219-.953 2.219-2.578 0-1.64-1.032-2.594-2.219-2.594-1.203 0-2.234.953-2.234 2.594C.516-.828 1.546.125 2.75.125zm0-.469c-.969 0-1.672-.86-1.672-2.11 0-1.265.703-2.124 1.672-2.124.953 0 1.656.86 1.656 2.125 0 1.25-.703 2.11-1.656 2.11zm0 0"/></symbol><symbol overflow="visible" id="aU"><path d="M3.016-7.297c-.235-.094-.5-.172-.75-.172C1.437-7.469 1-6.937 1-5.953v1.031l-.672.047v.406H1V0h.547v-4.469h1.11v-.453h-1.11v-1c0-.703.219-1.094.75-1.094.187 0 .375.047.578.141zm0 0"/></symbol><symbol overflow="visible" id="aV"><path d="M1.953 0h.625l1.813-4.922h-.547L2.78-1.906c-.156.484-.328.984-.484 1.422H2.25a49.737 49.737 0 0 1-.484-1.422L.703-4.922H.125zm0 0"/></symbol><symbol overflow="visible" id="aW"><path d="M.64 1.281C1.298.938 1.75.328 1.75-.469c0-.469-.203-.765-.547-.765-.266 0-.484.156-.484.453 0 .297.219.469.469.469.046 0 .078 0 .109-.016 0 .578-.313 1-.813 1.25zm0 0"/></symbol><symbol overflow="visible" id="aX"><path d="M1.688 0h.64l.797-2.953c.156-.469.266-.938.39-1.422h.047c.126.484.22.938.36 1.406L4.75 0h.703l1.375-4.922h-.516l-.843 3.11c-.125.468-.235.89-.344 1.328h-.031c-.14-.438-.25-.86-.36-1.329l-.89-3.109h-.578l-.891 3.11c-.11.453-.219.89-.344 1.328h-.047c-.093-.438-.203-.86-.312-1.329l-.86-3.109H.235zm0 0"/></symbol><symbol overflow="visible" id="aY"><path d="M2.906.125c1.14 0 2.156-.984 2.156-2.672 0-1.5-.656-2.5-1.968-2.5-.594 0-1.172.344-1.656.75l.015-.937v-2.11H.922V0h.437l.063-.5h.016c.453.375 1 .625 1.468.625zM2.86-.344c-.359 0-.89-.172-1.406-.61v-2.843c.563-.5 1.063-.781 1.531-.781 1.11 0 1.516.86 1.516 2.031 0 1.328-.688 2.203-1.64 2.203zm0 0"/></symbol><symbol overflow="visible" id="aZ"><path d="M1-4.922l-.672.047v.406H1V0h.547v-4.469h1.11v-.453h-1.11v-1c0-.703.219-1.094.75-1.094.187 0 .375.047.578.141l.14-.422c-.234-.094-.5-.172-.75-.172C1.438-7.469 1-6.937 1-5.953zM3.86 0h.53v-4.922h-.53zm.28-6.938c-.25 0-.452.157-.452.438 0 .25.203.422.453.422.234 0 .453-.172.453-.422 0-.281-.219-.438-.453-.438zm0 0"/></symbol><symbol overflow="visible" id="ba"><path d="M.922 2.203h.531V-.484c.5.39.984.609 1.453.609 1.14 0 2.156-.984 2.156-2.672 0-1.5-.656-2.5-1.968-2.5-.594 0-1.156.36-1.64.719h-.016l-.079-.594H.922zM2.859-.344c-.359 0-.875-.172-1.406-.61v-2.843c.578-.5 1.063-.781 1.531-.781 1.11 0 1.516.86 1.516 2.031 0 1.328-.688 2.203-1.64 2.203zm0 0"/></symbol><symbol overflow="visible" id="bb"><path d="M1.156-.234a.478.478 0 0 0 .469-.5c0-.313-.234-.5-.469-.5-.25 0-.468.187-.468.5 0 .312.218.5.468.5zm0 0"/></symbol><symbol overflow="visible" id="bc"><path d="M.984 0h.547v-2.266l1.328-1.53L5.031 0h.64L3.22-4.234l2.14-2.5h-.656L1.547-3.078H1.53v-3.656H.984zm0 0"/></symbol><symbol overflow="visible" id="bd"><path d="M.922 0h.531v-3.688c.516-.593 1-.89 1.422-.89.734 0 1.063.484 1.063 1.5V0h.546v-3.688c.516-.593.97-.89 1.422-.89.719 0 1.063.484 1.063 1.5V0H7.5v-3.156c0-1.25-.484-1.89-1.484-1.89-.563 0-1.11.39-1.657 1-.171-.61-.578-1-1.359-1-.547 0-1.11.39-1.547.874h-.016l-.078-.75H.922zm0 0"/></symbol><symbol overflow="visible" id="be"><path d="M1.547-2.703l.406-1.219c.266-.781.5-1.5.734-2.312h.032c.25.812.469 1.53.75 2.312l.406 1.219zM4.766 0h.593L3-6.734h-.578L.078 0h.547l.766-2.266h2.625zm0 0"/></symbol><symbol overflow="visible" id="bf"><path d="M.984 0h.547v-2.844h1.235c1.484 0 2.421-.64 2.421-2 0-1.39-.937-1.89-2.468-1.89H.984zm.547-3.313v-2.953H2.61c1.344 0 2.016.344 2.016 1.422 0 1.078-.64 1.532-1.969 1.532zm0 0"/></symbol><symbol overflow="visible" id="bg"><path d="M3.39.125c.876 0 1.5-.36 2.016-.969l-.312-.344c-.469.516-.985.813-1.672.813-1.406 0-2.281-1.172-2.281-3.016 0-1.812.89-2.968 2.312-2.968.625 0 1.094.28 1.453.687l.328-.375a2.377 2.377 0 0 0-1.78-.812C1.75-6.86.546-5.516.546-3.375c0 2.156 1.187 3.5 2.844 3.5zm0 0"/></symbol><symbol overflow="visible" id="bh"><path d="M.984 0h.547v-6.734H.984zm0 0"/></symbol><symbol overflow="visible" id="bi"><path d="M2.375.125c1.156 0 2.031-.734 2.031-1.906 0-.953-.656-1.563-1.468-1.735v-.046c.718-.235 1.234-.797 1.234-1.672 0-1.032-.781-1.625-1.813-1.625-.765 0-1.343.359-1.812.796l.328.36c.36-.39.89-.703 1.469-.703.781 0 1.281.484 1.281 1.218 0 .797-.516 1.438-2 1.438v.453c1.61 0 2.234.61 2.234 1.516 0 .86-.625 1.437-1.5 1.437C1.5-.344.984-.75.594-1.156l-.313.36c.438.452 1.063.921 2.094.921zm0 0"/></symbol><symbol overflow="visible" id="bj"><path d="M.984 0h1.594c2.063 0 3.078-1.328 3.078-3.39 0-2.063-1.015-3.344-3.093-3.344H.984zm.547-.469v-5.797h.985c1.765 0 2.546 1.125 2.546 2.875S4.282-.469 2.517-.469zm0 0"/></symbol><symbol overflow="visible" id="bk"><path d="M.984 0h.547v-3.328h3.5V0h.547v-6.734h-.547v2.921h-3.5v-2.921H.984zm0 0"/></symbol><symbol overflow="visible" id="bl"><path d="M.922 0h.531v-1.328l1.063-1.25L4.109 0h.594L2.828-2.969l1.61-1.953h-.61L1.484-2.016h-.03v-5.328H.921zm0 0"/></symbol><symbol overflow="visible" id="bm"><path d="M3.781-4.922H1.547v-.828c0-.734.297-1.156.86-1.156.218 0 .452.047.687.156l.14-.438a2.28 2.28 0 0 0-.859-.171C1.5-7.36 1-6.813 1-5.781v.86l-.672.046v.406H1V0h.547v-4.469H3.78V0h.531v-4.469h1.125v-.453H4.313v-1c0-.703.235-1.094.75-1.094.188 0 .391.047.594.141l.125-.422c-.234-.094-.484-.172-.734-.172-.844 0-1.266.532-1.266 1.516zM6.453 0h.531v-4.922h-.53zm.266-6.938c-.25 0-.453.157-.453.438 0 .25.203.422.453.422s.453-.172.453-.422c0-.281-.203-.438-.453-.438zm0 0"/></symbol><symbol overflow="visible" id="bw"><path d="M2.234 1.125l.329-.172c-.813-1.297-1.22-2.86-1.22-4.469 0-1.593.407-3.171 1.22-4.453l-.329-.172C1.391-6.78.891-5.312.891-3.516c0 1.813.5 3.282 1.343 4.641zm0 0"/></symbol><symbol overflow="visible" id="bx"><path d="M3.469.125c.906 0 1.594-.313 2.031-.766v-2.718H3.39v.484h1.563v2.016c-.297.312-.86.484-1.422.484-1.515 0-2.39-1.172-2.39-3.016 0-1.812.921-2.968 2.421-2.968.735 0 1.188.312 1.532.687l.328-.375c-.375-.375-.953-.812-1.86-.812-1.78 0-3.015 1.343-3.015 3.484 0 2.156 1.187 3.5 2.922 3.5zm0 0"/></symbol><symbol overflow="visible" id="by"><path d="M5.781-7.297c-.234-.094-.484-.172-.734-.172-.844 0-1.266.532-1.266 1.516v1.031H1.547v-.828c0-.734.297-1.156.86-1.156.218 0 .452.047.687.156l.14-.438a2.28 2.28 0 0 0-.859-.171C1.5-7.36 1-6.813 1-5.781v.86l-.672.046v.406H1V0h.547v-4.469H3.78V0h.531v-4.469h1.125v-.453H4.313v-1c0-.703.235-1.094.75-1.094.188 0 .391.047.594.141zm0 0"/></symbol><symbol overflow="visible" id="bz"><path d="M2.25 0h.61l2.187-6.734h-.563L3.281-2.86c-.265.812-.437 1.437-.719 2.25h-.03c-.266-.813-.438-1.438-.688-2.25L.625-6.734H.031zm0 0"/></symbol><symbol overflow="visible" id="bA"><path d="M2.766.125c1.312 0 2.171-.797 2.171-1.828 0-1.031-.64-1.453-1.406-1.797l-1.015-.438c-.485-.218-1.141-.5-1.141-1.265 0-.703.578-1.156 1.438-1.156.656 0 1.187.28 1.578.687l.312-.375a2.571 2.571 0 0 0-1.89-.812c-1.157 0-2 .703-2 1.703 0 .984.765 1.406 1.359 1.672l1.015.453c.657.281 1.188.547 1.188 1.36 0 .765-.61 1.296-1.61 1.296a2.576 2.576 0 0 1-1.953-.906l-.343.39C1-.28 1.78.125 2.766.125zm0 0"/></symbol><symbol overflow="visible" id="bB"><path d="M3.344.125c1.64 0 2.797-1.375 2.797-3.516 0-2.125-1.157-3.468-2.797-3.468C1.719-6.86.547-5.516.547-3.391.547-1.25 1.719.125 3.344.125zm0-.5c-1.328 0-2.203-1.188-2.203-3.016s.875-2.968 2.203-2.968c1.344 0 2.219 1.14 2.219 2.968 0 1.829-.875 3.016-2.22 3.016zm0 0"/></symbol><symbol overflow="visible" id="bC"><path d="M1.531-6.266h1.282c1.171 0 1.812.36 1.812 1.329 0 .968-.64 1.437-1.813 1.437h-1.28zM5.328 0L3.516-3.078c1.015-.156 1.671-.781 1.671-1.86 0-1.312-.906-1.796-2.234-1.796H.984V0h.547v-3.031h1.375L4.703 0zm0 0"/></symbol><symbol overflow="visible" id="bD"><path d="M.984 0h3.813v-.484H1.53v-2.844h2.672v-.469H1.531v-2.469h3.172v-.468H.984zm0 0"/></symbol><symbol overflow="visible" id="bE"><path d="M.672 1.125c.844-1.36 1.344-2.828 1.344-4.64 0-1.797-.5-3.266-1.344-4.626l-.328.172c.797 1.282 1.219 2.86 1.219 4.453 0 1.61-.422 3.172-1.22 4.47zm0 0"/></symbol><symbol overflow="visible" id="bn"><path d="M1 0h1.625v-3.516h3.078V0h1.61v-8.125h-1.61v3.188H2.625v-3.188H1zm0 0"/></symbol><symbol overflow="visible" id="bo"><path d="M1.89 0h1.844l.625-2.688c.141-.562.22-1.14.344-1.78h.047c.125.64.219 1.202.36 1.78L5.75 0h1.906l1.516-6.156h-1.5L7.016-3.11c-.125.593-.204 1.187-.313 1.796h-.062c-.125-.609-.235-1.203-.375-1.796L5.5-6.156H4.047L3.313-3.11c-.157.578-.266 1.187-.376 1.796h-.046c-.11-.609-.188-1.203-.313-1.796l-.672-3.047H.296zm0 0"/></symbol><symbol overflow="visible" id="bp"><path d="M2.39.156c.704 0 1.313-.36 1.844-.812h.032L4.39 0h1.328v-3.594c0-1.781-.813-2.719-2.375-2.719-.953 0-1.844.375-2.563.813l.578 1.078c.579-.328 1.125-.594 1.688-.594.765 0 1.031.47 1.047 1.079-2.469.25-3.532.953-3.532 2.265 0 1.047.72 1.828 1.829 1.828zm.516-1.265c-.469 0-.812-.204-.812-.688 0-.547.515-.953 2-1.156v1.234c-.375.39-.719.61-1.188.61zm0 0"/></symbol><symbol overflow="visible" id="bq"><path d="M.531-3.61h3.031v-1.14H.533zm0 0"/></symbol><symbol overflow="visible" id="br"><path d="M3.422.156c1.89 0 3-1.14 3-2.469 0-1.171-.656-1.796-1.64-2.203l-1.063-.453c-.703-.265-1.281-.484-1.281-1.062 0-.532.468-.86 1.171-.86.672 0 1.22.25 1.735.672l.812-1.015C5.5-7.906 4.563-8.281 3.61-8.281 1.97-8.281.797-7.266.797-5.937c0 1.187.828 1.843 1.656 2.187l1.078.469c.735.297 1.219.484 1.219 1.094 0 .578-.438.937-1.297.937-.703 0-1.469-.36-2.062-.906L.469-1.031A4.338 4.338 0 0 0 3.422.156zm0 0"/></symbol><symbol overflow="visible" id="bs"><path d="M2.688.156c.843 0 1.437-.406 1.968-1.031h.047L4.828 0h1.313v-6.156H4.53V-2c-.422.547-.75.766-1.265.766-.579 0-.844-.329-.844-1.282v-3.64H.797v3.843c0 1.547.578 2.47 1.89 2.47zm0 0"/></symbol><symbol overflow="visible" id="bt"><path d="M.875 0h1.563v-1.531l.89-1.016L4.828 0h1.734L4.235-3.64l2.141-2.516H4.609L2.484-3.5h-.046v-5.266H.875zm0 0"/></symbol><symbol overflow="visible" id="bv"><path d="M.875 0h1.594v-4.234c.469-.438.781-.688 1.281-.688.61 0 .875.344.875 1.281V0h1.61v-3.828c0-1.547-.563-2.485-1.891-2.485-.844 0-1.438.454-1.938.907l.063-1.157v-2.203H.875zm0 0"/></symbol></defs><g fill="#898989"><use xlink:href="#a" x="28.312" y="819.169"/><use xlink:href="#b" x="32.591" y="819.169"/></g><g fill="#898989"><use xlink:href="#c" x="36.906" y="819.169"/><use xlink:href="#c" x="38.996" y="819.169"/></g><g fill="#595757"><use xlink:href="#d" x="506.297" y="818.993"/><use xlink:href="#e" x="507.807" y="818.993"/><use xlink:href="#f" x="510.984" y="818.993"/><use xlink:href="#g" x="512.368" y="818.993"/><use xlink:href="#h" x="513.926" y="818.993"/><use xlink:href="#i" x="517.012" y="818.993"/><use xlink:href="#h" x="520.099" y="818.993"/><use xlink:href="#j" x="523.185" y="818.993"/><use xlink:href="#k" x="526.271" y="818.993"/><use xlink:href="#g" x="531.664" y="818.993"/><use xlink:href="#l" x="533.223" y="818.993"/><use xlink:href="#m" x="538.616" y="818.993"/><use xlink:href="#n" x="544.009" y="818.993"/><use xlink:href="#o" x="549.403" y="818.993"/></g><use xlink:href="#p" x="36.098" y="57.992"/><use xlink:href="#q" x="42.918" y="57.992"/><use xlink:href="#p" x="49.737" y="57.992"/><use xlink:href="#r" x="56.557" y="57.992"/><use xlink:href="#s" x="63.376" y="58.372"/><use xlink:href="#t" x="66.752" y="56.474"/><use xlink:href="#u" x="71.298" y="56.474"/><use xlink:href="#v" x="74.495" y="56.474"/><use xlink:href="#s" x="79.448" y="58.372"/><use xlink:href="#w" x="82.824" y="57.992"/><use xlink:href="#x" x="86.54" y="57.992"/><use xlink:href="#y" x="93.983" y="57.992"/><use xlink:href="#z" x="98.549" y="57.992"/><use xlink:href="#A" x="105.273" y="57.992"/><use xlink:href="#x" x="110.259" y="57.992"/><use xlink:href="#B" x="117.702" y="57.992"/><use xlink:href="#y" x="124.318" y="57.992"/><use xlink:href="#C" x="129.112" y="57.992"/><use xlink:href="#D" x="132.516" y="57.992"/><use xlink:href="#x" x="139.779" y="57.992"/><use xlink:href="#B" x="147.222" y="57.992"/><use xlink:href="#E" x="154.066" y="57.992"/><use xlink:href="#F" x="157.601" y="57.992"/><use xlink:href="#G" x="160.718" y="57.992"/><use xlink:href="#D" x="167.262" y="57.992"/><use xlink:href="#A" x="174.525" y="57.992"/><use xlink:href="#H" x="179.511" y="57.992"/><use xlink:href="#I" x="186.906" y="57.992"/><use xlink:href="#F" x="198.22" y="57.992"/><use xlink:href="#D" x="201.336" y="57.992"/><use xlink:href="#x" x="208.599" y="57.992"/><use xlink:href="#F" x="216.042" y="57.992"/><use xlink:href="#J" x="219.159" y="57.992"/><use xlink:href="#z" x="229.154" y="57.992"/><use xlink:href="#K" x="235.878" y="57.992"/><use xlink:href="#C" x="243.357" y="57.992"/><use xlink:href="#L" x="246.761" y="57.992"/><use xlink:href="#B" x="252.694" y="57.992"/><use xlink:href="#E" x="259.537" y="57.992"/><use xlink:href="#F" x="263.073" y="57.992"/><use xlink:href="#w" x="266.189" y="57.992"/><use xlink:href="#x" x="269.905" y="57.992"/><use xlink:href="#x" x="277.348" y="57.992"/><use xlink:href="#D" x="284.791" y="57.992"/><use xlink:href="#M" x="291.958" y="57.992"/><use xlink:href="#B" x="298.346" y="57.992"/><use xlink:href="#y" x="304.962" y="57.992"/><use xlink:href="#C" x="309.756" y="57.992"/><use xlink:href="#D" x="313.16" y="57.992"/><use xlink:href="#x" x="320.423" y="57.992"/><use xlink:href="#F" x="327.866" y="57.992"/><use xlink:href="#D" x="330.983" y="57.992"/><use xlink:href="#N" x="338.186" y="57.992"/><use xlink:href="#F" x="342.405" y="57.992"/><use xlink:href="#O" x="345.521" y="57.992"/><use xlink:href="#z" x="353.156" y="57.992"/><use xlink:href="#E" x="359.879" y="57.992"/><use xlink:href="#E" x="363.415" y="57.992"/><use xlink:href="#F" x="366.951" y="57.992"/><use xlink:href="#P" x="370.067" y="57.992"/><use xlink:href="#F" x="378.685" y="57.992"/><use xlink:href="#Q" x="381.801" y="57.992"/><use xlink:href="#C" x="389.723" y="57.992"/><use xlink:href="#D" x="393.127" y="57.992"/><use xlink:href="#F" x="400.39" y="57.992"/><use xlink:href="#R" x="403.506" y="57.992"/><use xlink:href="#S" x="410.758" y="57.992"/><use xlink:href="#z" x="418.188" y="57.992"/><use xlink:href="#A" x="424.912" y="57.992"/><use xlink:href="#B" x="429.528" y="57.992"/><use xlink:href="#T" x="436.372" y="57.992"/><use xlink:href="#U" x="443.755" y="57.992"/><g fill="#fff"><use xlink:href="#V" x="483.913" y="57.112"/><use xlink:href="#W" x="490.115" y="57.112"/></g><use xlink:href="#X" x="496.527" y="57.112" fill="#fff"/><g fill="#fff"><use xlink:href="#Y" x="502.33" y="57.112"/><use xlink:href="#Z" x="508.373" y="57.112"/></g><use xlink:href="#V" x="514.905" y="57.112" fill="#fff"/><use xlink:href="#aa" x="520.988" y="57.112" fill="#fff"/><use xlink:href="#Y" x="527.19" y="57.112" fill="#fff"/><use xlink:href="#ab" x="42.468" y="194.236"/><use xlink:href="#ac" x="53.284" y="194.236"/><use xlink:href="#ad" x="59.346" y="194.236"/><use xlink:href="#ae" x="68.141" y="194.236"/><use xlink:href="#af" x="77.378" y="194.236"/><use xlink:href="#ag" x="86.02" y="194.236"/><use xlink:href="#ah" x="92.082" y="194.236"/><use xlink:href="#ac" x="102.049" y="194.236"/><use xlink:href="#ai" x="108.11" y="194.236"/><use xlink:href="#aj" x="118.06" y="194.236"/><use xlink:href="#ak" x="128.027" y="194.236"/><use xlink:href="#ah" x="137.247" y="194.236"/><use xlink:href="#al" x="147.214" y="194.236"/><use xlink:href="#am" x="151.628" y="194.236"/><use xlink:href="#ad" x="160.203" y="194.236"/><use xlink:href="#an" x="169.27" y="194.236"/><use xlink:href="#ah" x="177.573" y="194.236"/><use xlink:href="#ao" x="187.54" y="194.236"/><use xlink:href="#ai" x="197.574" y="194.236"/><use xlink:href="#ap" x="207.524" y="194.236"/><use xlink:href="#ai" x="212.024" y="194.236"/><use xlink:href="#ak" x="221.974" y="194.236"/><use xlink:href="#aq" x="231.194" y="194.236"/><use xlink:href="#ad" x="235.523" y="194.236"/><use xlink:href="#ar" x="244.59" y="194.236"/><use xlink:href="#al" x="252.197" y="194.236"/><use xlink:href="#ae" x="256.612" y="194.236"/><use xlink:href="#ao" x="265.848" y="194.236"/><use xlink:href="#as" x="275.883" y="194.236"/><use xlink:href="#al" x="286.071" y="194.236"/><use xlink:href="#at" x="290.485" y="194.236"/><use xlink:href="#aq" x="301.811" y="194.236"/><use xlink:href="#ak" x="306.14" y="194.236"/><use xlink:href="#aq" x="315.36" y="194.236"/><use xlink:href="#ag" x="319.69" y="194.236"/><use xlink:href="#ae" x="325.344" y="194.236"/><use xlink:href="#ap" x="334.581" y="194.236"/><use xlink:href="#al" x="339.08" y="194.236"/><use xlink:href="#au" x="343.495" y="194.236"/><use xlink:href="#ad" x="355.516" y="194.236"/><use xlink:href="#ae" x="364.312" y="194.236"/><use xlink:href="#ap" x="373.548" y="194.236"/><use xlink:href="#ag" x="378.048" y="194.236"/><use xlink:href="#ah" x="384.11" y="194.236"/><use xlink:href="#al" x="394.076" y="194.236"/><use xlink:href="#aq" x="398.491" y="194.236"/><use xlink:href="#ao" x="402.821" y="194.236"/><use xlink:href="#al" x="412.856" y="194.236"/><use xlink:href="#av" x="417.27" y="194.236"/><use xlink:href="#ai" x="427.763" y="194.236"/><use xlink:href="#ac" x="437.713" y="194.236"/><use xlink:href="#ad" x="443.775" y="194.236"/><use xlink:href="#ae" x="452.57" y="194.236"/><use xlink:href="#aw" x="461.807" y="194.236"/><use xlink:href="#al" x="466.205" y="194.236"/><use xlink:href="#ax" x="42.468" y="218.211"/><use xlink:href="#al" x="52.435" y="218.211"/><use xlink:href="#ay" x="56.85" y="218.211"/><use xlink:href="#ai" x="65.628" y="218.211"/><use xlink:href="#an" x="75.578" y="218.211"/><use xlink:href="#aj" x="83.881" y="218.211"/><use xlink:href="#ar" x="93.848" y="218.211"/><use xlink:href="#al" x="101.454" y="218.211"/><use xlink:href="#ai" x="105.869" y="218.211"/><use xlink:href="#ao" x="115.819" y="218.211"/><use xlink:href="#al" x="125.854" y="218.211"/><use xlink:href="#az" x="130.268" y="218.211"/><use xlink:href="#ad" x="140.524" y="218.211"/><use xlink:href="#aq" x="149.591" y="218.211"/><use xlink:href="#aA" x="153.92" y="218.211"/><use xlink:href="#aB" x="169.304" y="218.211"/><use xlink:href="#aj" x="179.457" y="218.211"/><use xlink:href="#ac" x="189.424" y="218.211"/><use xlink:href="#ar" x="195.605" y="218.211"/><use xlink:href="#ad" x="203.212" y="218.211"/><use xlink:href="#aA" x="212.279" y="218.211"/><use xlink:href="#ad" x="227.662" y="218.211"/><use xlink:href="#ao" x="236.729" y="218.211"/><use xlink:href="#ag" x="246.764" y="218.211"/><use xlink:href="#al" x="252.825" y="218.211"/><use xlink:href="#ae" x="257.24" y="218.211"/><use xlink:href="#ao" x="266.477" y="218.211"/><use xlink:href="#as" x="276.511" y="218.211"/><use xlink:href="#al" x="286.699" y="218.211"/><use xlink:href="#aC" x="291.114" y="218.211"/><use xlink:href="#ae" x="300.69" y="218.211"/><use xlink:href="#ag" x="309.672" y="218.211"/><use xlink:href="#aq" x="315.734" y="218.211"/><use xlink:href="#ad" x="320.063" y="218.211"/><use xlink:href="#ao" x="329.13" y="218.211"/><use xlink:href="#ag" x="339.165" y="218.211"/><use xlink:href="#al" x="345.227" y="218.211"/><use xlink:href="#ax" x="349.641" y="218.211"/><use xlink:href="#an" x="359.608" y="218.211"/><use xlink:href="#an" x="367.504" y="218.211"/><use xlink:href="#ad" x="375.399" y="218.211"/><use xlink:href="#ar" x="384.466" y="218.211"/><use xlink:href="#ar" x="392.073" y="218.211"/><use xlink:href="#aD" x="28.312" y="354.465"/><use xlink:href="#aE" x="33.523" y="354.465"/><use xlink:href="#aF" x="38.779" y="354.465"/><use xlink:href="#aG" x="43.565" y="354.465"/><use xlink:href="#aE" x="46.645" y="354.465"/><use xlink:href="#aF" x="51.902" y="354.465"/><use xlink:href="#aH" x="56.533" y="354.465"/><use xlink:href="#aI" x="61.402" y="354.465"/><use xlink:href="#aJ" x="63.683" y="354.465"/><use xlink:href="#aE" x="66.751" y="354.465"/><use xlink:href="#aK" x="72.008" y="354.465"/><use xlink:href="#aH" x="76.333" y="354.465"/><use xlink:href="#aL" x="81.202" y="354.465"/><use xlink:href="#aF" x="84.234" y="354.465"/><use xlink:href="#aG" x="89.02" y="354.465"/><use xlink:href="#aM" x="92.1" y="354.465"/><use xlink:href="#aN" x="94.29" y="354.465"/><use xlink:href="#aO" x="99.583" y="354.465"/><use xlink:href="#aP" x="104.988" y="354.465"/><use xlink:href="#aQ" x="110.254" y="354.465"/><use xlink:href="#aJ" x="114.044" y="354.465"/><use xlink:href="#aL" x="117.111" y="354.465"/><use xlink:href="#aR" x="120.587" y="354.465"/><use xlink:href="#aG" x="124.929" y="354.465"/><use xlink:href="#aM" x="128.009" y="354.465"/><use xlink:href="#aQ" x="130.199" y="354.465"/><use xlink:href="#aG" x="134.19" y="354.465"/><use xlink:href="#aF" x="137.27" y="354.465"/><use xlink:href="#aN" x="142.056" y="354.465"/><use xlink:href="#aJ" x="147.35" y="354.465"/><use xlink:href="#aF" x="150.299" y="354.465"/><use xlink:href="#aL" x="155.084" y="354.465"/><use xlink:href="#aM" x="158.216" y="354.465"/><use xlink:href="#aN" x="160.406" y="354.465"/><use xlink:href="#aS" x="165.7" y="354.465"/><use xlink:href="#aG" x="170.532" y="354.465"/><use xlink:href="#aJ" x="173.612" y="354.465"/><use xlink:href="#aE" x="176.679" y="354.465"/><use xlink:href="#aF" x="181.936" y="354.465"/><use xlink:href="#aG" x="186.722" y="354.465"/><use xlink:href="#aF" x="189.802" y="354.465"/><use xlink:href="#aL" x="194.588" y="354.465"/><use xlink:href="#aH" x="197.5" y="354.465"/><use xlink:href="#aG" x="202.368" y="354.465"/><use xlink:href="#aT" x="205.449" y="354.465"/><use xlink:href="#aU" x="210.752" y="354.465"/><use xlink:href="#aG" x="213.32" y="354.465"/><use xlink:href="#aO" x="216.4" y="354.465"/><use xlink:href="#aM" x="221.805" y="354.465"/><use xlink:href="#aS" x="223.995" y="354.465"/><use xlink:href="#aM" x="228.826" y="354.465"/><use xlink:href="#aJ" x="231.016" y="354.465"/><use xlink:href="#aH" x="233.863" y="354.465"/><use xlink:href="#aI" x="238.732" y="354.465"/><use xlink:href="#aG" x="241.014" y="354.465"/><use xlink:href="#aM" x="244.095" y="354.465"/><use xlink:href="#aN" x="246.285" y="354.465"/><use xlink:href="#aN" x="251.579" y="354.465"/><use xlink:href="#aT" x="256.873" y="354.465"/><use xlink:href="#aV" x="262.176" y="354.465"/><use xlink:href="#aH" x="266.307" y="354.465"/><use xlink:href="#aJ" x="271.058" y="354.465"/><use xlink:href="#aM" x="274.125" y="354.465"/><use xlink:href="#aT" x="276.315" y="354.465"/><use xlink:href="#aN" x="281.618" y="354.465"/><use xlink:href="#aW" x="286.911" y="354.465"/><use xlink:href="#aG" x="289.046" y="354.465"/><use xlink:href="#aX" x="292.126" y="354.465"/><use xlink:href="#aE" x="299.018" y="354.465"/><use xlink:href="#aM" x="304.275" y="354.465"/><use xlink:href="#aK" x="306.464" y="354.465"/><use xlink:href="#aE" x="310.89" y="354.465"/><use xlink:href="#aG" x="316.147" y="354.465"/><use xlink:href="#aX" x="319.228" y="354.465"/><use xlink:href="#aT" x="326.12" y="354.465"/><use xlink:href="#aP" x="331.423" y="354.465"/><use xlink:href="#aI" x="336.689" y="354.465"/><use xlink:href="#aO" x="338.971" y="354.465"/><use xlink:href="#aG" x="344.376" y="354.465"/><use xlink:href="#aY" x="347.457" y="354.465"/><use xlink:href="#aL" x="352.843" y="354.465"/><use xlink:href="#aM" x="355.975" y="354.465"/><use xlink:href="#aN" x="358.164" y="354.465"/><use xlink:href="#aS" x="363.458" y="354.465"/><use xlink:href="#aG" x="368.29" y="354.465"/><use xlink:href="#aY" x="371.37" y="354.465"/><use xlink:href="#aF" x="376.757" y="354.465"/><use xlink:href="#aN" x="381.542" y="354.465"/><use xlink:href="#aF" x="386.836" y="354.465"/><use xlink:href="#aZ" x="391.622" y="354.465"/><use xlink:href="#aJ" x="396.749" y="354.465"/><use xlink:href="#aQ" x="399.717" y="354.465"/><use xlink:href="#aG" x="403.708" y="354.465"/><use xlink:href="#aJ" x="406.789" y="354.465"/><use xlink:href="#aT" x="409.737" y="354.465"/><use xlink:href="#aG" x="415.04" y="354.465"/><use xlink:href="#ba" x="418.121" y="354.465"/><use xlink:href="#aH" x="423.371" y="354.465"/><use xlink:href="#aJ" x="428.121" y="354.465"/><use xlink:href="#aM" x="431.189" y="354.465"/><use xlink:href="#aF" x="433.378" y="354.465"/><use xlink:href="#aN" x="438.164" y="354.465"/><use xlink:href="#aJ" x="443.458" y="354.465"/><use xlink:href="#aQ" x="446.425" y="354.465"/><use xlink:href="#bb" x="450.416" y="354.465"/><use xlink:href="#aG" x="452.55" y="354.465"/><use xlink:href="#aD" x="455.632" y="354.465"/><use xlink:href="#aE" x="460.842" y="354.465"/><use xlink:href="#aF" x="466.099" y="354.465"/><use xlink:href="#aG" x="470.885" y="354.465"/><use xlink:href="#bc" x="473.966" y="354.465"/><use xlink:href="#aT" x="479.502" y="354.465"/><use xlink:href="#aL" x="484.805" y="354.465"/><use xlink:href="#aF" x="487.836" y="354.465"/><use xlink:href="#aH" x="492.467" y="354.465"/><use xlink:href="#aN" x="497.335" y="354.465"/><use xlink:href="#aG" x="502.629" y="354.465"/><use xlink:href="#aS" x="505.71" y="354.465"/><use xlink:href="#aT" x="510.423" y="354.465"/><use xlink:href="#aV" x="515.726" y="354.465"/><use xlink:href="#aF" x="520.059" y="354.465"/><use xlink:href="#aL" x="524.845" y="354.465"/><use xlink:href="#aN" x="527.977" y="354.465"/><use xlink:href="#bd" x="533.27" y="354.465"/><use xlink:href="#aF" x="541.438" y="354.465"/><use xlink:href="#aN" x="546.223" y="354.465"/><use xlink:href="#aJ" x="551.517" y="354.465"/><use xlink:href="#aG" x="554.584" y="354.465"/><use xlink:href="#aM" x="28.312" y="373.442"/><use xlink:href="#aQ" x="30.539" y="373.442"/><use xlink:href="#aG" x="34.562" y="373.442"/><use xlink:href="#bd" x="37.674" y="373.442"/><use xlink:href="#aT" x="45.878" y="373.442"/><use xlink:href="#aV" x="51.218" y="373.442"/><use xlink:href="#aM" x="55.583" y="373.442"/><use xlink:href="#aN" x="57.809" y="373.442"/><use xlink:href="#aS" x="63.136" y="373.442"/><use xlink:href="#aG" x="68.004" y="373.442"/><g><use xlink:href="#aJ" x="71.116" y="373.442"/></g><g><use xlink:href="#aT" x="74.097" y="373.442"/><use xlink:href="#aX" x="79.437" y="373.442"/></g><g><use xlink:href="#aH" x="86.259" y="373.442"/><use xlink:href="#aL" x="91.165" y="373.442"/></g><g><use xlink:href="#aO" x="94.229" y="373.442"/></g><g><use xlink:href="#aQ" x="99.666" y="373.442"/><use xlink:href="#aG" x="103.694" y="373.442"/></g><g><use xlink:href="#aF" x="106.805" y="373.442"/><use xlink:href="#aN" x="111.628" y="373.442"/></g><g><use xlink:href="#aK" x="116.954" y="373.442"/></g><g><use xlink:href="#aT" x="121.219" y="373.442"/><use xlink:href="#aP" x="126.559" y="373.442"/></g><g><use xlink:href="#aL" x="131.857" y="373.442"/></g><g><use xlink:href="#aH" x="134.801" y="373.442"/><use xlink:href="#aS" x="139.707" y="373.442"/></g><g><use xlink:href="#aM" x="144.571" y="373.442"/><use xlink:href="#aN" x="146.797" y="373.442"/></g><g><use xlink:href="#aS" x="152.123" y="373.442"/><use xlink:href="#aG" x="156.992" y="373.442"/></g><g><use xlink:href="#aF" x="160.104" y="373.442"/><use xlink:href="#bd" x="164.926" y="373.442"/><use xlink:href="#aF" x="173.131" y="373.442"/></g><g><use xlink:href="#aL" x="177.949" y="373.442"/></g><g><use xlink:href="#aS" x="181.012" y="373.442"/><use xlink:href="#aM" x="185.881" y="373.442"/></g><g><use xlink:href="#aN" x="188.103" y="373.442"/><use xlink:href="#aS" x="193.434" y="373.442"/></g><g><use xlink:href="#aG" x="198.298" y="373.442"/></g><g><use xlink:href="#aH" x="201.41" y="373.442"/></g><g><use xlink:href="#aN" x="206.312" y="373.442"/><use xlink:href="#aO" x="211.642" y="373.442"/></g><g><use xlink:href="#aG" x="217.079" y="373.442"/></g><g><use xlink:href="#aO" x="220.192" y="373.442"/></g><g><use xlink:href="#aM" x="225.629" y="373.442"/><use xlink:href="#aS" x="227.855" y="373.442"/></g><g><use xlink:href="#aM" x="232.72" y="373.442"/><use xlink:href="#aJ" x="234.946" y="373.442"/></g><g><use xlink:href="#aH" x="237.825" y="373.442"/></g><g><use xlink:href="#aI" x="242.726" y="373.442"/><use xlink:href="#aG" x="245.045" y="373.442"/></g><g><use xlink:href="#aQ" x="248.157" y="373.442"/><use xlink:href="#aT" x="252.185" y="373.442"/></g><g><use xlink:href="#aI" x="257.52" y="373.442"/><use xlink:href="#aP" x="259.839" y="373.442"/><use xlink:href="#aJ" x="265.142" y="373.442"/></g><g><use xlink:href="#aM" x="268.242" y="373.442"/><use xlink:href="#aT" x="270.468" y="373.442"/><use xlink:href="#aN" x="275.808" y="373.442"/></g><g><use xlink:href="#aQ" x="281.134" y="373.442"/><use xlink:href="#aG" x="285.163" y="373.442"/></g><g><use xlink:href="#aH" x="288.274" y="373.442"/><use xlink:href="#aN" x="293.18" y="373.442"/></g><g><use xlink:href="#aO" x="298.506" y="373.442"/><use xlink:href="#aG" x="303.948" y="373.442"/></g><g><use xlink:href="#bc" x="307.059" y="373.442"/></g><g><use xlink:href="#aT" x="312.627" y="373.442"/></g><g><use xlink:href="#aL" x="317.962" y="373.442"/></g><g><use xlink:href="#aF" x="321.026" y="373.442"/></g><g><use xlink:href="#aH" x="325.687" y="373.442"/></g><g><use xlink:href="#aG" x="330.589" y="373.442"/></g><g><use xlink:href="#aY" x="333.701" y="373.442"/></g><g><use xlink:href="#aF" x="339.12" y="373.442"/><use xlink:href="#aK" x="343.942" y="373.442"/></g><g><use xlink:href="#aH" x="348.299" y="373.442"/></g><g><use xlink:href="#bd" x="353.2" y="373.442"/><use xlink:href="#aF" x="361.404" y="373.442"/></g><g><use xlink:href="#aG" x="366.223" y="373.442"/></g><g><use xlink:href="#aJ" x="369.335" y="373.442"/></g><g><use xlink:href="#aE" x="372.435" y="373.442"/><use xlink:href="#aF" x="377.728" y="373.442"/></g><g><use xlink:href="#aG" x="382.546" y="373.442"/></g><g><use xlink:href="#aT" x="385.659" y="373.442"/></g><g><use xlink:href="#aN" x="390.994" y="373.442"/><use xlink:href="#aI" x="396.325" y="373.442"/></g><g><use xlink:href="#aR" x="398.639" y="373.442"/><use xlink:href="#aG" x="403.019" y="373.442"/></g><g><use xlink:href="#aK" x="406.13" y="373.442"/></g><g><use xlink:href="#aT" x="410.395" y="373.442"/><use xlink:href="#aP" x="415.735" y="373.442"/></g><g><use xlink:href="#aN" x="421.033" y="373.442"/><use xlink:href="#aJ" x="426.364" y="373.442"/></g><g><use xlink:href="#aL" x="429.464" y="373.442"/></g><g><use xlink:href="#aR" x="432.971" y="373.442"/></g><g><use xlink:href="#aG" x="437.345" y="373.442"/></g><g><use xlink:href="#aM" x="440.457" y="373.442"/><use xlink:href="#aN" x="442.683" y="373.442"/><use xlink:href="#aG" x="448.014" y="373.442"/></g><g><use xlink:href="#be" x="451.126" y="373.442"/></g><g><use xlink:href="#bf" x="456.397" y="373.442"/></g><g><use xlink:href="#be" x="461.391" y="373.442"/></g><g><use xlink:href="#bg" x="466.561" y="373.442"/></g><g><use xlink:href="#aG" x="472.201" y="373.442"/></g><g><use xlink:href="#aJ" x="475.314" y="373.442"/></g><g><use xlink:href="#aE" x="478.413" y="373.442"/><use xlink:href="#aH" x="483.707" y="373.442"/></g><g><use xlink:href="#aJ" x="488.489" y="373.442"/></g><g><use xlink:href="#aG" x="491.589" y="373.442"/></g><g><use xlink:href="#aE" x="494.7" y="373.442"/><use xlink:href="#aH" x="499.994" y="373.442"/><use xlink:href="#aQ" x="504.9" y="373.442"/></g><g><use xlink:href="#aG" x="508.924" y="373.442"/></g><g><use xlink:href="#aO" x="512.036" y="373.442"/></g><g><use xlink:href="#aF" x="517.473" y="373.442"/></g><g><use xlink:href="#aV" x="522.394" y="373.442"/></g><g><use xlink:href="#aF" x="526.759" y="373.442"/><use xlink:href="#aI" x="531.582" y="373.442"/><use xlink:href="#aT" x="533.901" y="373.442"/></g><g><use xlink:href="#ba" x="539.236" y="373.442"/><use xlink:href="#aF" x="544.678" y="373.442"/></g><g><use xlink:href="#aO" x="549.496" y="373.442"/></g><g><use xlink:href="#aG" x="554.9" y="373.442"/></g><g><use xlink:href="#aV" x="28.312" y="392.418"/></g><g><use xlink:href="#aH" x="32.514" y="392.418"/><use xlink:href="#aI" x="37.456" y="392.418"/><use xlink:href="#aP" x="39.812" y="392.418"/><use xlink:href="#aF" x="45.152" y="392.418"/><use xlink:href="#aQ" x="50.012" y="392.418"/><use xlink:href="#aG" x="54.077" y="392.418"/></g><g><use xlink:href="#aH" x="57.228" y="392.418"/><use xlink:href="#aQ" x="62.171" y="392.418"/><use xlink:href="#aQ" x="66.236" y="392.418"/><use xlink:href="#aF" x="70.301" y="392.418"/><use xlink:href="#aQ" x="75.161" y="392.418"/><use xlink:href="#aQ" x="79.226" y="392.418"/><use xlink:href="#bd" x="83.291" y="392.418"/><use xlink:href="#aF" x="91.532" y="392.418"/><use xlink:href="#aN" x="96.391" y="392.418"/><use xlink:href="#aJ" x="101.759" y="392.418"/><use xlink:href="#aG" x="104.9" y="392.418"/></g><g><use xlink:href="#aS" x="108.052" y="392.418"/><use xlink:href="#aP" x="112.958" y="392.418"/><use xlink:href="#aM" x="118.298" y="392.418"/><use xlink:href="#aO" x="120.561" y="392.418"/><use xlink:href="#aF" x="126.04" y="392.418"/><use xlink:href="#aI" x="130.899" y="392.418"/><use xlink:href="#aM" x="133.255" y="392.418"/><use xlink:href="#aN" x="135.519" y="392.418"/><use xlink:href="#aF" x="140.886" y="392.418"/><use xlink:href="#aQ" x="145.746" y="392.418"/><use xlink:href="#aG" x="149.811" y="392.418"/></g><g><use xlink:href="#aU" x="152.962" y="392.418"/></g><g><use xlink:href="#aT" x="155.5" y="392.418"/><use xlink:href="#aL" x="160.877" y="392.418"/><use xlink:href="#aG" x="164.083" y="392.418"/></g><g><use xlink:href="#aM" x="167.234" y="392.418"/><use xlink:href="#aN" x="169.498" y="392.418"/><use xlink:href="#aN" x="174.866" y="392.418"/><use xlink:href="#aT" x="180.233" y="392.418"/><use xlink:href="#aV" x="185.61" y="392.418"/></g><g><use xlink:href="#aH" x="189.812" y="392.418"/></g><g><use xlink:href="#aJ" x="194.633" y="392.418"/><use xlink:href="#aM" x="197.774" y="392.418"/><use xlink:href="#aT" x="200.037" y="392.418"/><use xlink:href="#aN" x="205.414" y="392.418"/><use xlink:href="#aQ" x="210.782" y="392.418"/><use xlink:href="#aG" x="214.847" y="392.418"/></g><g><use xlink:href="#aM" x="217.998" y="392.418"/><use xlink:href="#aN" x="220.261" y="392.418"/><use xlink:href="#aK" x="225.629" y="392.418"/><use xlink:href="#aI" x="230.128" y="392.418"/><use xlink:href="#aP" x="232.484" y="392.418"/><use xlink:href="#aO" x="237.824" y="392.418"/><use xlink:href="#aM" x="243.303" y="392.418"/><use xlink:href="#aN" x="245.566" y="392.418"/><use xlink:href="#aS" x="250.934" y="392.418"/><use xlink:href="#aG" x="255.84" y="392.418"/></g><g><use xlink:href="#be" x="258.99" y="392.418"/><use xlink:href="#bh" x="264.302" y="392.418"/><use xlink:href="#aG" x="266.704" y="392.418"/></g><g><use xlink:href="#aH" x="269.856" y="392.418"/><use xlink:href="#aN" x="274.798" y="392.418"/><use xlink:href="#aO" x="280.166" y="392.418"/><use xlink:href="#aG" x="285.645" y="392.418"/></g><g><use xlink:href="#bi" x="288.795" y="392.418"/><use xlink:href="#bj" x="293.627" y="392.418"/><use xlink:href="#aG" x="299.725" y="392.418"/></g><g><use xlink:href="#ba" x="302.876" y="392.418"/><use xlink:href="#aL" x="308.355" y="392.418"/><use xlink:href="#aM" x="311.56" y="392.418"/><use xlink:href="#aN" x="313.824" y="392.418"/><use xlink:href="#aJ" x="319.192" y="392.418"/><use xlink:href="#aM" x="322.333" y="392.418"/><use xlink:href="#aN" x="324.596" y="392.418"/><use xlink:href="#aS" x="329.964" y="392.418"/><use xlink:href="#aG" x="334.87" y="392.418"/></g><g><use xlink:href="#aJ" x="338.021" y="392.418"/></g><g><use xlink:href="#aF" x="341.04" y="392.418"/><use xlink:href="#aK" x="345.9" y="392.418"/><use xlink:href="#aE" x="350.399" y="392.418"/><use xlink:href="#aN" x="355.73" y="392.418"/><use xlink:href="#aT" x="361.098" y="392.418"/><use xlink:href="#aI" x="366.475" y="392.418"/><use xlink:href="#aT" x="368.831" y="392.418"/><use xlink:href="#aS" x="374.208" y="392.418"/><use xlink:href="#aM" x="379.113" y="392.418"/><use xlink:href="#aF" x="381.377" y="392.418"/><use xlink:href="#aQ" x="386.236" y="392.418"/><use xlink:href="#bb" x="390.301" y="392.418"/><use xlink:href="#aG" x="392.51" y="392.418"/></g><g><use xlink:href="#bk" x="395.66" y="392.418"/><use xlink:href="#aT" x="402.109" y="392.418"/><use xlink:href="#aX" x="407.486" y="392.418"/><use xlink:href="#aF" x="414.452" y="392.418"/></g><g><use xlink:href="#aV" x="419.41" y="392.418"/><use xlink:href="#aF" x="423.817" y="392.418"/><use xlink:href="#aL" x="428.677" y="392.418"/><use xlink:href="#aW" x="431.882" y="392.418"/><use xlink:href="#aG" x="434.09" y="392.418"/></g><g><use xlink:href="#aL" x="437.241" y="392.418"/></g><g><use xlink:href="#aF" x="440.343" y="392.418"/><use xlink:href="#aM" x="445.203" y="392.418"/><use xlink:href="#bd" x="447.466" y="392.418"/><use xlink:href="#aY" x="455.707" y="392.418"/><use xlink:href="#aP" x="461.167" y="392.418"/><use xlink:href="#aL" x="466.507" y="392.418"/><use xlink:href="#aQ" x="469.713" y="392.418"/><use xlink:href="#aF" x="473.778" y="392.418"/><use xlink:href="#bd" x="478.638" y="392.418"/><use xlink:href="#aF" x="486.879" y="392.418"/><use xlink:href="#aN" x="491.739" y="392.418"/><use xlink:href="#aJ" x="497.106" y="392.418"/><use xlink:href="#aG" x="500.247" y="392.418"/></g><g><use xlink:href="#aL" x="503.399" y="392.418"/></g><g><use xlink:href="#aF" x="506.501" y="392.418"/><use xlink:href="#bd" x="511.361" y="392.418"/><use xlink:href="#aH" x="519.602" y="392.418"/><use xlink:href="#aM" x="524.544" y="392.418"/><use xlink:href="#aN" x="526.808" y="392.418"/><use xlink:href="#aQ" x="532.176" y="392.418"/><use xlink:href="#aG" x="536.241" y="392.418"/></g><g><use xlink:href="#aT" x="539.391" y="392.418"/><use xlink:href="#aN" x="544.768" y="392.418"/><use xlink:href="#aF" x="550.136" y="392.418"/></g><g><use xlink:href="#aG" x="554.921" y="392.418"/></g><g><use xlink:href="#aT" x="28.312" y="411.395"/><use xlink:href="#aU" x="33.661" y="411.395"/></g><g><use xlink:href="#aG" x="36.271" y="411.395"/></g><g><use xlink:href="#aJ" x="39.392" y="411.395"/><use xlink:href="#aE" x="42.505" y="411.395"/></g><g><use xlink:href="#aF" x="47.804" y="411.395"/><use xlink:href="#aG" x="52.636" y="411.395"/></g><g><use xlink:href="#aQ" x="55.757" y="411.395"/></g><g><use xlink:href="#aM" x="59.789" y="411.395"/><use xlink:href="#aN" x="62.025" y="411.395"/></g><g><use xlink:href="#aS" x="67.361" y="411.395"/><use xlink:href="#aI" x="72.239" y="411.395"/><use xlink:href="#aF" x="74.567" y="411.395"/></g><g><use xlink:href="#aG" x="79.394" y="411.395"/></g><g><use xlink:href="#aI" x="82.515" y="411.395"/><use xlink:href="#aH" x="84.843" y="411.395"/></g><g><use xlink:href="#aL" x="89.753" y="411.395"/></g><g><use xlink:href="#aS" x="92.826" y="411.395"/></g><g><use xlink:href="#aF" x="97.581" y="411.395"/></g><g><use xlink:href="#aQ" x="102.408" y="411.395"/></g><g><use xlink:href="#aJ" x="106.238" y="411.395"/><use xlink:href="#aG" x="109.352" y="411.395"/></g><g><use xlink:href="#aY" x="112.472" y="411.395"/></g><g><use xlink:href="#aH" x="117.743" y="411.395"/><use xlink:href="#aL" x="122.658" y="411.395"/></g><g><use xlink:href="#aL" x="125.832" y="411.395"/><use xlink:href="#aM" x="129.01" y="411.395"/></g><g><use xlink:href="#aF" x="131.241" y="411.395"/><use xlink:href="#aL" x="136.073" y="411.395"/></g><g><use xlink:href="#aQ" x="139.246" y="411.395"/><use xlink:href="#aG" x="143.284" y="411.395"/></g><g><use xlink:href="#aJ" x="146.405" y="411.395"/></g><g><use xlink:href="#aT" x="149.394" y="411.395"/></g><g><use xlink:href="#aG" x="154.739" y="411.395"/></g><g><use xlink:href="#aH" x="157.86" y="411.395"/><use xlink:href="#aO" x="162.775" y="411.395"/><use xlink:href="#aH" x="168.226" y="411.395"/></g><g><use xlink:href="#ba" x="173.136" y="411.395"/></g><g><use xlink:href="#aJ" x="178.445" y="411.395"/></g><g><use xlink:href="#aH" x="181.332" y="411.395"/></g><g><use xlink:href="#aJ" x="186.123" y="411.395"/><use xlink:href="#aM" x="189.236" y="411.395"/></g><g><use xlink:href="#aT" x="191.468" y="411.395"/><use xlink:href="#aN" x="196.817" y="411.395"/></g><g><use xlink:href="#aG" x="202.152" y="411.395"/></g><g><use xlink:href="#aT" x="205.273" y="411.395"/><use xlink:href="#aU" x="210.622" y="411.395"/></g><g><use xlink:href="#aG" x="213.232" y="411.395"/></g><g><use xlink:href="#aO" x="216.353" y="411.395"/><use xlink:href="#aM" x="221.804" y="411.395"/></g><g><use xlink:href="#aS" x="224.035" y="411.395"/><use xlink:href="#aM" x="228.913" y="411.395"/><use xlink:href="#aJ" x="231.149" y="411.395"/></g><g><use xlink:href="#aH" x="234.036" y="411.395"/><use xlink:href="#aI" x="238.951" y="411.395"/></g><g><use xlink:href="#aG" x="241.275" y="411.395"/></g><g><use xlink:href="#aH" x="244.396" y="411.395"/></g><g><use xlink:href="#aN" x="249.307" y="411.395"/><use xlink:href="#aO" x="254.647" y="411.395"/></g><g><use xlink:href="#aG" x="260.093" y="411.395"/></g><g><use xlink:href="#aF" x="263.214" y="411.395"/><use xlink:href="#bd" x="268.046" y="411.395"/></g><g><use xlink:href="#aF" x="276.255" y="411.395"/><use xlink:href="#aL" x="281.086" y="411.395"/></g><g><use xlink:href="#aS" x="284.159" y="411.395"/></g><g><use xlink:href="#aM" x="289.033" y="411.395"/><use xlink:href="#aN" x="291.268" y="411.395"/></g><g><use xlink:href="#aS" x="296.604" y="411.395"/><use xlink:href="#aG" x="301.482" y="411.395"/></g><g><use xlink:href="#aJ" x="304.603" y="411.395"/></g><g><use xlink:href="#aF" x="307.591" y="411.395"/><use xlink:href="#aK" x="312.423" y="411.395"/><use xlink:href="#aE" x="316.895" y="411.395"/></g><g><use xlink:href="#aN" x="322.193" y="411.395"/></g><g><use xlink:href="#aT" x="327.529" y="411.395"/><use xlink:href="#aI" x="332.878" y="411.395"/><use xlink:href="#aT" x="335.206" y="411.395"/></g><g><use xlink:href="#aS" x="340.551" y="411.395"/><use xlink:href="#aM" x="345.429" y="411.395"/></g><g><use xlink:href="#aF" x="347.66" y="411.395"/><use xlink:href="#aQ" x="352.492" y="411.395"/></g><g><use xlink:href="#aG" x="356.525" y="411.395"/></g><g><use xlink:href="#aM" x="359.646" y="411.395"/></g><g><use xlink:href="#aN" x="361.878" y="411.395"/></g><g><use xlink:href="#aG" x="367.213" y="411.395"/></g><g><use xlink:href="#aJ" x="370.335" y="411.395"/></g><g><use xlink:href="#aF" x="373.323" y="411.395"/><use xlink:href="#aL" x="378.155" y="411.395"/></g><g><use xlink:href="#bd" x="381.329" y="411.395"/><use xlink:href="#aQ" x="389.542" y="411.395"/></g><g><use xlink:href="#aG" x="393.575" y="411.395"/></g><g><use xlink:href="#aT" x="396.697" y="411.395"/></g><g><use xlink:href="#aU" x="402.041" y="411.395"/><use xlink:href="#aG" x="404.656" y="411.395"/></g><g><use xlink:href="#aV" x="407.777" y="411.395"/></g><g><use xlink:href="#aH" x="411.948" y="411.395"/><use xlink:href="#aI" x="416.863" y="411.395"/><use xlink:href="#aP" x="419.191" y="411.395"/></g><g><use xlink:href="#aF" x="424.499" y="411.395"/><use xlink:href="#aG" x="429.331" y="411.395"/></g><g><use xlink:href="#aL" x="432.452" y="411.395"/></g><g><use xlink:href="#aF" x="435.524" y="411.395"/></g><g><use xlink:href="#aK" x="440.352" y="411.395"/></g><g><use xlink:href="#aT" x="444.625" y="411.395"/></g><g><use xlink:href="#aS" x="449.97" y="411.395"/><use xlink:href="#aN" x="454.848" y="411.395"/></g><g><use xlink:href="#aM" x="460.184" y="411.395"/><use xlink:href="#aJ" x="462.419" y="411.395"/></g><g><use xlink:href="#aM" x="465.528" y="411.395"/><use xlink:href="#aT" x="467.764" y="411.395"/></g><g><use xlink:href="#aN" x="473.109" y="411.395"/><use xlink:href="#bb" x="478.449" y="411.395"/></g><g><use xlink:href="#aG" x="480.624" y="411.395"/></g><g><use xlink:href="#aD" x="483.745" y="411.395"/><use xlink:href="#aE" x="489.002" y="411.395"/></g><g><use xlink:href="#aM" x="494.3" y="411.395"/><use xlink:href="#aQ" x="496.536" y="411.395"/><use xlink:href="#aG" x="500.574" y="411.395"/></g><g><use xlink:href="#ba" x="503.694" y="411.395"/></g><g><use xlink:href="#aL" x="509.141" y="411.395"/></g><g><use xlink:href="#aF" x="512.213" y="411.395"/></g><g><use xlink:href="#aQ" x="517.041" y="411.395"/><use xlink:href="#aF" x="521.078" y="411.395"/><use xlink:href="#aN" x="525.91" y="411.395"/></g><g><use xlink:href="#aJ" x="531.245" y="411.395"/></g><g><use xlink:href="#aH" x="534.133" y="411.395"/></g><g><use xlink:href="#aJ" x="538.924" y="411.395"/><use xlink:href="#aM" x="542.037" y="411.395"/></g><g><use xlink:href="#aT" x="544.268" y="411.395"/><use xlink:href="#aN" x="549.618" y="411.395"/></g><g><use xlink:href="#aG" x="554.911" y="411.395"/></g><g><use xlink:href="#aO" x="28.312" y="430.371"/><use xlink:href="#aM" x="33.892" y="430.371"/><use xlink:href="#aQ" x="36.257" y="430.371"/><use xlink:href="#aK" x="40.424" y="430.371"/><use xlink:href="#aP" x="45.025" y="430.371"/><use xlink:href="#aQ" x="50.467" y="430.371"/><use xlink:href="#aQ" x="54.633" y="430.371"/><use xlink:href="#aF" x="58.8" y="430.371"/><use xlink:href="#aQ" x="63.761" y="430.371"/><use xlink:href="#aG" x="67.928" y="430.371"/></g><g><use xlink:href="#aE" x="71.184" y="430.371"/><use xlink:href="#aT" x="76.616" y="430.371"/><use xlink:href="#aX" x="82.095" y="430.371"/><use xlink:href="#aG" x="89.162" y="430.371"/></g><g><use xlink:href="#aJ" x="92.418" y="430.371"/><use xlink:href="#aE" x="95.661" y="430.371"/><use xlink:href="#aF" x="101.093" y="430.371"/><use xlink:href="#aG" x="106.054" y="430.371"/></g><g><use xlink:href="#aS" x="109.31" y="430.371"/></g><g><use xlink:href="#aT" x="114.198" y="430.371"/><use xlink:href="#aV" x="119.677" y="430.371"/><use xlink:href="#aF" x="124.185" y="430.371"/><use xlink:href="#aL" x="129.147" y="430.371"/><use xlink:href="#aN" x="132.454" y="430.371"/><use xlink:href="#bd" x="137.923" y="430.371"/><use xlink:href="#aF" x="146.266" y="430.371"/><use xlink:href="#aN" x="151.227" y="430.371"/><use xlink:href="#aJ" x="156.697" y="430.371"/><use xlink:href="#aG" x="159.939" y="430.371"/></g><g><use xlink:href="#aM" x="163.194" y="430.371"/><use xlink:href="#aQ" x="165.559" y="430.371"/><use xlink:href="#aG" x="169.726" y="430.371"/></g><g><use xlink:href="#ba" x="172.981" y="430.371"/><use xlink:href="#aL" x="178.561" y="430.371"/></g><g><use xlink:href="#aF" x="181.769" y="430.371"/><use xlink:href="#ba" x="186.73" y="430.371"/></g><g><use xlink:href="#aH" x="192.154" y="430.371"/><use xlink:href="#aL" x="197.198" y="430.371"/><use xlink:href="#aM" x="200.506" y="430.371"/><use xlink:href="#aN" x="202.871" y="430.371"/><use xlink:href="#aS" x="208.34" y="430.371"/><use xlink:href="#aG" x="213.348" y="430.371"/></g><g><use xlink:href="#aJ" x="216.603" y="430.371"/></g><g><use xlink:href="#aT" x="219.727" y="430.371"/><use xlink:href="#aG" x="225.206" y="430.371"/></g><g><use xlink:href="#aY" x="228.461" y="430.371"/><use xlink:href="#aP" x="234.023" y="430.371"/><use xlink:href="#aM" x="239.465" y="430.371"/><use xlink:href="#aI" x="241.83" y="430.371"/><use xlink:href="#aO" x="244.287" y="430.371"/><use xlink:href="#aG" x="249.868" y="430.371"/></g><g><use xlink:href="#aH" x="253.123" y="430.371"/><use xlink:href="#ba" x="258.168" y="430.371"/><use xlink:href="#ba" x="263.748" y="430.371"/><use xlink:href="#aL" x="269.328" y="430.371"/></g><g><use xlink:href="#aT" x="272.535" y="430.371"/><use xlink:href="#ba" x="278.014" y="430.371"/><use xlink:href="#aL" x="283.594" y="430.371"/><use xlink:href="#aM" x="286.901" y="430.371"/><use xlink:href="#aH" x="289.266" y="430.371"/></g><g><use xlink:href="#aJ" x="294.192" y="430.371"/></g><g><use xlink:href="#aF" x="297.316" y="430.371"/><use xlink:href="#aG" x="302.277" y="430.371"/></g><g><use xlink:href="#aV" x="305.533" y="430.371"/></g><g><use xlink:href="#aH" x="309.839" y="430.371"/><use xlink:href="#aI" x="314.884" y="430.371"/><use xlink:href="#aP" x="317.341" y="430.371"/><use xlink:href="#aF" x="322.783" y="430.371"/><use xlink:href="#aG" x="327.744" y="430.371"/></g><g><use xlink:href="#aH" x="330.999" y="430.371"/><use xlink:href="#aQ" x="336.043" y="430.371"/><use xlink:href="#aQ" x="340.21" y="430.371"/><use xlink:href="#aF" x="344.377" y="430.371"/><use xlink:href="#aQ" x="349.338" y="430.371"/><use xlink:href="#aQ" x="353.504" y="430.371"/><use xlink:href="#bd" x="357.671" y="430.371"/><use xlink:href="#aF" x="366.014" y="430.371"/><use xlink:href="#aN" x="370.975" y="430.371"/><use xlink:href="#aJ" x="376.444" y="430.371"/><use xlink:href="#aG" x="379.687" y="430.371"/></g><g><use xlink:href="#aH" x="382.943" y="430.371"/><use xlink:href="#aN" x="387.987" y="430.371"/><use xlink:href="#aO" x="393.457" y="430.371"/><use xlink:href="#aG" x="399.037" y="430.371"/></g><g><use xlink:href="#aL" x="402.292" y="430.371"/></g><g><use xlink:href="#aF" x="405.499" y="430.371"/><use xlink:href="#aM" x="410.46" y="430.371"/><use xlink:href="#bd" x="412.826" y="430.371"/><use xlink:href="#aY" x="421.168" y="430.371"/><use xlink:href="#aP" x="426.73" y="430.371"/><use xlink:href="#aL" x="432.172" y="430.371"/><use xlink:href="#aQ" x="435.479" y="430.371"/><use xlink:href="#aF" x="439.646" y="430.371"/><use xlink:href="#bd" x="444.607" y="430.371"/><use xlink:href="#aF" x="452.95" y="430.371"/><use xlink:href="#aN" x="457.911" y="430.371"/><use xlink:href="#aJ" x="463.38" y="430.371"/><use xlink:href="#aG" x="466.623" y="430.371"/></g><g><use xlink:href="#aU" x="469.879" y="430.371"/><use xlink:href="#aL" x="472.623" y="430.371"/></g><g><use xlink:href="#aH" x="475.709" y="430.371"/><use xlink:href="#bd" x="480.754" y="430.371"/><use xlink:href="#aF" x="489.096" y="430.371"/></g><g><use xlink:href="#aX" x="494.16" y="430.371"/><use xlink:href="#aT" x="501.228" y="430.371"/><use xlink:href="#aL" x="506.706" y="430.371"/><use xlink:href="#bl" x="510.014" y="430.371"/><use xlink:href="#aQ" x="514.818" y="430.371"/><use xlink:href="#aG" x="518.985" y="430.371"/></g><g><use xlink:href="#aJ" x="522.24" y="430.371"/></g><g><use xlink:href="#aT" x="525.364" y="430.371"/><use xlink:href="#aG" x="530.842" y="430.371"/></g><g><use xlink:href="#aO" x="534.097" y="430.371"/><use xlink:href="#aL" x="539.678" y="430.371"/><use xlink:href="#aM" x="542.985" y="430.371"/><use xlink:href="#aV" x="545.35" y="430.371"/><use xlink:href="#aF" x="549.859" y="430.371"/></g><g><use xlink:href="#aG" x="554.644" y="430.371"/></g><g><use xlink:href="#aK" x="28.312" y="449.347"/></g><g><use xlink:href="#aT" x="32.543" y="449.347"/><use xlink:href="#aV" x="37.846" y="449.347"/><use xlink:href="#aF" x="42.179" y="449.347"/><use xlink:href="#aL" x="46.965" y="449.347"/></g><g><use xlink:href="#aH" x="49.875" y="449.347"/><use xlink:href="#aS" x="54.744" y="449.347"/></g><g><use xlink:href="#aF" x="59.456" y="449.347"/><use xlink:href="#aG" x="64.242" y="449.347"/><use xlink:href="#aU" x="66.644" y="449.347"/></g><g><use xlink:href="#aT" x="69.11" y="449.347"/><use xlink:href="#aL" x="74.413" y="449.347"/><use xlink:href="#aG" x="77.545" y="449.347"/><use xlink:href="#aJ" x="79.947" y="449.347"/><use xlink:href="#aE" x="83.015" y="449.347"/><use xlink:href="#aF" x="88.272" y="449.347"/><use xlink:href="#aG" x="93.057" y="449.347"/><use xlink:href="#aH" x="95.459" y="449.347"/><use xlink:href="#aO" x="100.328" y="449.347"/><use xlink:href="#aT" x="105.733" y="449.347"/><use xlink:href="#ba" x="111.036" y="449.347"/></g><g><use xlink:href="#aJ" x="116.302" y="449.347"/><use xlink:href="#aM" x="119.369" y="449.347"/><use xlink:href="#aT" x="121.559" y="449.347"/><use xlink:href="#aN" x="126.862" y="449.347"/><use xlink:href="#aG" x="132.156" y="449.347"/><use xlink:href="#aH" x="134.558" y="449.347"/><use xlink:href="#aN" x="139.427" y="449.347"/><use xlink:href="#aO" x="144.72" y="449.347"/><use xlink:href="#aG" x="150.125" y="449.347"/><use xlink:href="#aF" x="152.527" y="449.347"/><use xlink:href="#bm" x="157.313" y="449.347"/><use xlink:href="#aK" x="165.027" y="449.347"/></g><g><use xlink:href="#aH" x="169.351" y="449.347"/><use xlink:href="#aK" x="174.22" y="449.347"/><use xlink:href="#aM" x="178.645" y="449.347"/><use xlink:href="#aF" x="180.835" y="449.347"/><use xlink:href="#aQ" x="185.62" y="449.347"/><use xlink:href="#aG" x="189.612" y="449.347"/><use xlink:href="#aT" x="192.014" y="449.347"/><use xlink:href="#aU" x="197.317" y="449.347"/><use xlink:href="#aG" x="199.885" y="449.347"/><use xlink:href="#aO" x="202.287" y="449.347"/><use xlink:href="#aM" x="207.692" y="449.347"/><use xlink:href="#aS" x="209.881" y="449.347"/><use xlink:href="#aM" x="214.713" y="449.347"/><use xlink:href="#aJ" x="216.903" y="449.347"/></g><g><use xlink:href="#aH" x="219.748" y="449.347"/><use xlink:href="#aI" x="224.617" y="449.347"/><use xlink:href="#aG" x="226.899" y="449.347"/><use xlink:href="#aE" x="229.301" y="449.347"/><use xlink:href="#aF" x="234.558" y="449.347"/></g><g><use xlink:href="#aH" x="239.187" y="449.347"/><use xlink:href="#aI" x="244.056" y="449.347"/><use xlink:href="#aJ" x="246.338" y="449.347"/><use xlink:href="#aE" x="249.405" y="449.347"/><use xlink:href="#bb" x="254.662" y="449.347"/></g><g><use xlink:href="#bn" x="470.259" y="264.933"/><use xlink:href="#bo" x="478.356" y="264.933"/></g><g><use xlink:href="#bp" x="487.486" y="264.933"/><use xlink:href="#bq" x="493.76" y="264.933"/><use xlink:href="#br" x="497.616" y="264.933"/><use xlink:href="#bs" x="504.252" y="264.933"/><use xlink:href="#bt" x="511.031" y="264.933"/><use xlink:href="#bu" x="517.458" y="264.933"/><use xlink:href="#br" x="520.314" y="264.933"/><use xlink:href="#bs" x="526.95" y="264.933"/><use xlink:href="#bv" x="533.729" y="264.933"/></g><g><use xlink:href="#bf" x="327.624" y="282.372"/><use xlink:href="#aE" x="333.094" y="282.372"/><use xlink:href="#bb" x="338.351" y="282.372"/><use xlink:href="#bj" x="340.485" y="282.372"/><use xlink:href="#bb" x="346.508" y="282.372"/><use xlink:href="#aG" x="348.643" y="282.372"/><use xlink:href="#bw" x="351.045" y="282.372"/><use xlink:href="#bk" x="353.761" y="282.372"/><use xlink:href="#aF" x="360.136" y="282.372"/></g><g><use xlink:href="#aH" x="364.764" y="282.372"/><use xlink:href="#aO" x="369.633" y="282.372"/><use xlink:href="#aG" x="375.038" y="282.372"/><use xlink:href="#aT" x="377.44" y="282.372"/><use xlink:href="#aU" x="382.743" y="282.372"/><use xlink:href="#aG" x="385.311" y="282.372"/><use xlink:href="#bx" x="387.713" y="282.372"/><use xlink:href="#aT" x="393.746" y="282.372"/><use xlink:href="#aV" x="399.049" y="282.372"/><use xlink:href="#aF" x="403.382" y="282.372"/><use xlink:href="#aL" x="408.168" y="282.372"/><use xlink:href="#aN" x="411.3" y="282.372"/><use xlink:href="#bd" x="416.594" y="282.372"/><use xlink:href="#aF" x="424.761" y="282.372"/><use xlink:href="#aN" x="429.546" y="282.372"/><use xlink:href="#aJ" x="434.84" y="282.372"/><use xlink:href="#aG" x="437.907" y="282.372"/><use xlink:href="#be" x="440.31" y="282.372"/></g><g><use xlink:href="#by" x="445.446" y="282.372"/></g><g><use xlink:href="#aH" x="450.584" y="282.372"/><use xlink:href="#aM" x="455.453" y="282.372"/><use xlink:href="#aL" x="457.642" y="282.372"/><use xlink:href="#aQ" x="460.774" y="282.372"/><use xlink:href="#aW" x="464.765" y="282.372"/><use xlink:href="#aG" x="466.9" y="282.372"/><use xlink:href="#bz" x="469.302" y="282.372"/></g><g><use xlink:href="#aH" x="474.032" y="282.372"/><use xlink:href="#aL" x="478.901" y="282.372"/><use xlink:href="#aM" x="482.033" y="282.372"/><use xlink:href="#aH" x="484.222" y="282.372"/><use xlink:href="#aN" x="489.091" y="282.372"/><use xlink:href="#aW" x="494.385" y="282.372"/><use xlink:href="#aG" x="496.519" y="282.372"/><use xlink:href="#aH" x="498.921" y="282.372"/><use xlink:href="#aG" x="503.79" y="282.372"/><use xlink:href="#bA" x="506.192" y="282.372"/><use xlink:href="#aM" x="511.366" y="282.372"/><use xlink:href="#aF" x="513.555" y="282.372"/><use xlink:href="#bd" x="518.341" y="282.372"/><use xlink:href="#aF" x="526.508" y="282.372"/><use xlink:href="#aN" x="531.294" y="282.372"/><use xlink:href="#aQ" x="536.588" y="282.372"/><use xlink:href="#aG" x="540.579" y="282.372"/></g><g><use xlink:href="#bk" x="415.106" y="298.355"/><use xlink:href="#aF" x="421.481" y="298.355"/></g><g><use xlink:href="#aH" x="426.11" y="298.355"/><use xlink:href="#aI" x="430.978" y="298.355"/><use xlink:href="#aJ" x="433.26" y="298.355"/><use xlink:href="#aE" x="436.328" y="298.355"/><use xlink:href="#aM" x="441.584" y="298.355"/><use xlink:href="#aN" x="443.774" y="298.355"/><use xlink:href="#aF" x="449.068" y="298.355"/><use xlink:href="#aF" x="453.854" y="298.355"/><use xlink:href="#aL" x="458.639" y="298.355"/><use xlink:href="#aQ" x="461.771" y="298.355"/><use xlink:href="#aG" x="465.762" y="298.355"/><use xlink:href="#aK" x="468.164" y="298.355"/></g><g><use xlink:href="#aT" x="472.396" y="298.355"/><use xlink:href="#bd" x="477.699" y="298.355"/><use xlink:href="#ba" x="485.866" y="298.355"/></g><g><use xlink:href="#aH" x="491.113" y="298.355"/><use xlink:href="#aN" x="495.982" y="298.355"/><use xlink:href="#aR" x="501.276" y="298.355"/><use xlink:href="#aW" x="505.618" y="298.355"/><use xlink:href="#aG" x="507.752" y="298.355"/><use xlink:href="#bc" x="510.155" y="298.355"/></g><g><use xlink:href="#bB" x="515.559" y="298.355"/><use xlink:href="#bC" x="522.082" y="298.355"/><use xlink:href="#bD" x="527.514" y="298.355"/><use xlink:href="#be" x="532.623" y="298.355"/><use xlink:href="#bE" x="537.862" y="298.355"/></g><path d="M28.313 792.695h526.6" fill="none" stroke="#1f3d90" stroke-width=".99879"/></svg>