<svg xmlns="http://www.w3.org/2000/svg" xmlns:xlink="http://www.w3.org/1999/xlink" width="793.701" height="1122.52" viewBox="0 0 595.276 841.89" version="1.2"><defs><symbol overflow="visible" id="a"><path d="M1.89-4.531H.985l.438-.75h1.266V0H1.89zm0 0"/></symbol><symbol overflow="visible" id="b"><path d="M2.75-5.469l.578.438-1.25 1.718c.059-.007.113-.015.156-.015.051-.008.094-.016.125-.016.426 0 .797.168 1.11.5.308.324.469.715.469 1.172 0 .48-.176.895-.516 1.234a1.704 1.704 0 0 1-1.25.516c-.48 0-.899-.164-1.25-.5C.566-.762.39-1.164.39-1.625c0-.414.171-.86.515-1.328zm.406 3.844a.976.976 0 0 0-.281-.703.998.998 0 0 0-.719-.297.963.963 0 0 0-.703.297.908.908 0 0 0-.297.687.97.97 0 0 0 .297.72.98.98 0 0 0 .703.28.93.93 0 0 0 .703-.296.91.91 0 0 0 .297-.688zm0 0"/></symbol><symbol overflow="visible" id="d"><path d="M.64 0H1v-4.375H.64zm0 0"/></symbol><symbol overflow="visible" id="e"><path d="M.75-.156c.156 0 .313-.11.313-.313A.317.317 0 0 0 .75-.797a.317.317 0 0 0-.313.328c0 .203.157.313.313.313zm0 0"/></symbol><symbol overflow="visible" id="g"><path d="M.75-1.781c.703-.157 1.688-.719 2-1.516.328.781 1.313 1.344 2.031 1.5l.14-.25c-.765-.14-2-.875-2-1.797v-.265h1.845v-.266H.734v.266h1.86v.265c0 .922-1.235 1.672-2 1.813zM2.922-.578v-1.36h-.328v1.36H.344v.265h4.828v-.265zm0 0"/></symbol><symbol overflow="visible" id="h"><path d="M3.563-2.203c-.75-.25-1.407-.906-1.407-1.672v-.36h1.297V-4.5H.531v.266h1.313v.359c0 .813-.657 1.5-1.407 1.781l.172.25c.625-.25 1.172-.75 1.391-1.422.219.625.781 1.094 1.406 1.313zM1.155-1.11H4.36V.42h.313v-1.796H1.156zM4.36-4.906v3.218h.313v-3.218zm0 0"/></symbol><symbol overflow="visible" id="i"><path d="M8.078-10.016V1.047h1.578v-11.063zm-4.344.782c-1.671 0-2.906 1.5-2.906 3.921 0 2.438 1.235 3.954 2.906 3.954 1.657 0 2.891-1.516 2.891-3.954 0-2.421-1.234-3.921-2.89-3.921zm0 1.421c.813 0 1.375.875 1.375 2.5 0 1.641-.562 2.516-1.375 2.516-.828 0-1.39-.875-1.39-2.515 0-1.625.562-2.5 1.39-2.5zm0 0"/></symbol><symbol overflow="visible" id="j"><path d="M4.578-9.156H2.984v1.61c0 2.046-.843 4.155-2.703 5.03l.953 1.282c1.25-.61 2.079-1.782 2.547-3.172.469 1.312 1.235 2.375 2.39 2.968l.954-1.25c-1.766-.874-2.547-2.874-2.547-4.859zm6.188 3.39h-1.61V-10H7.578V1.031h1.578v-5.484h1.61zm0 0"/></symbol><symbol overflow="visible" id="l"><path d="M1.016-7.813v1.047h2.843C3.672-5.546 2.516-4.546.484-4.03L.984-3c2.735-.703 4.282-2.36 4.282-4.813zM3.28-1.78h3.485v1.5H3.28zM1.984.75h6.079v-3.578H1.984zm4.75-9.078v5.11h1.329v-5.11zm0 0"/></symbol><symbol overflow="visible" id="m"><path d="M8.75-3.89H7.422c.266-1.5.266-2.563.266-3.344v-.594H1.405v1.062h4.969c0 .72-.047 1.657-.281 2.875H.437v1.079h1.86V.874h1.312v-3.688h1.875V.876h1.313v-3.688H8.75zm0 0"/></symbol><symbol overflow="visible" id="n"><path d="M5.125-3v.906h1.719v.719h1.328v-6.969H6.844V-3zM3.359-7.063c.61 0 1.032.235 1.032.688 0 .438-.422.672-1.032.672-.625 0-1.046-.234-1.046-.672 0-.453.421-.688 1.046-.688zm0 2.313c1.329 0 2.282-.656 2.282-1.625 0-.984-.954-1.656-2.282-1.656-1.359 0-2.296.672-2.296 1.656 0 .969.937 1.625 2.296 1.625zm-.5 4.406v-1.265h1.282v-1.735a17.064 17.064 0 0 0 2.187-.265l-.094-.938c-1.937.25-4.171.281-5.843.281l.171 1.047c.688 0 1.454 0 2.266-.047v1.235H1.547V.703h6.812V-.344zm0 0"/></symbol><symbol overflow="visible" id="D"><path d="M1.266-2.906C2.859-3.187 4.03-4 4.594-5.094c.578 1.078 1.75 1.844 3.36 2.14L8.453-4c-1.97-.281-3.048-1.39-3.157-2.594h2.75V-7.64H1.125v1.047h2.75C3.75-5.39 2.687-4.25.765-3.937zM5.25-1.281v-2.032H3.937v2.032H.422v1.078H8.75v-1.078zm0 0"/></symbol><symbol overflow="visible" id="E"><path d="M6.797-1.328h1.328v-7.016H6.797v2.297H5.594V-5h1.203v.922H5.594v1.047h1.203zM5.5-7.375H3.703v-.984H2.391v.984H.453v1.031H5.5zM2.125-4.219c0-.5.375-.781.922-.781.531 0 .906.281.906.781 0 .532-.375.797-.906.797-.547 0-.922-.265-.922-.797zm3.063 0c0-1.047-.891-1.797-2.141-1.797-1.266 0-2.156.75-2.156 1.797 0 1.078.89 1.828 2.156 1.828 1.25 0 2.14-.75 2.14-1.828zM3.359-.344V-1.89H2.047V.703h6.265V-.344zm0 0"/></symbol><symbol overflow="visible" id="F"><path d="M7.14-8.344v3.516h-.75v-3.375H5.157v5.953c-1.36-.703-1.812-2.234-1.812-3.844v-.25h1.375v-1.062H.562v1.062h1.5v.25c0 1.766-.437 3.39-1.796 4.203l.78.985c.86-.5 1.407-1.375 1.704-2.422.328.906.86 1.656 1.672 2.094l.734-.985V.437h1.235V-3.75h.75V.844h1.25v-9.188zm0 0"/></symbol><symbol overflow="visible" id="Z"><path d="M1.797-5.594c0-.718.484-1.14 1.172-1.14.672 0 1.172.421 1.172 1.14 0 .719-.5 1.14-1.172 1.14-.688 0-1.172-.421-1.172-1.14zm5-.5v1H5.328c.047-.172.063-.328.063-.5s-.016-.343-.047-.5zm0 2.047v1.094h1.328v-5.39H6.797v1.202H4.766c-.438-.437-1.063-.703-1.797-.703-1.36 0-2.422.938-2.422 2.25 0 1.297 1.062 2.25 2.422 2.25.719 0 1.344-.265 1.781-.703zM5-.157c-1.203 0-1.844-.25-1.844-.796 0-.531.64-.797 1.844-.797 1.203 0 1.86.266 1.86.797 0 .547-.657.797-1.86.797zm0-2.609c-1.938 0-3.14.672-3.14 1.813C1.86.187 3.061.875 5 .875c1.953 0 3.156-.688 3.156-1.828 0-1.14-1.203-1.813-3.156-1.813zm0 0"/></symbol><symbol overflow="visible" id="aa"><path d="M8.484-4.14C6.375-4.485 5.25-5.86 5.25-7.173v-.656H3.844v.656c0 1.281-1.14 2.688-3.219 3.031l.547 1.079c1.61-.282 2.766-1.157 3.375-2.282.594 1.14 1.766 2 3.39 2.282zM5.22-1.282v-2.063H3.89v2.063H.42v1.047H8.75v-1.047zm0 0"/></symbol><symbol overflow="visible" id="ao"><path d="M5.14-3.438v1.016h1.782v1h1.312v-6.922H6.922v4.906zM2.939-.344v-1.64h1.156v-1.97a22.208 22.208 0 0 0 2.281-.296l-.094-.922c-.281.047-.562.078-.86.11.157-1.157.157-2 .157-2.5v-.313H1.203v1.047h3.063a17.01 17.01 0 0 1-.172 1.86c-1.344.093-2.657.093-3.735.093l.157 1.047c.687 0 1.453 0 2.265-.047v1.766H1.625V.703h6.813V-.344zm0 0"/></symbol><symbol overflow="visible" id="ap"><path d="M4.578-6.984c1.188 0 1.969.359 1.969 1.015 0 .657-.781 1-1.969 1-1.219 0-1.984-.343-1.984-1 0-.656.765-1.015 1.984-1.015zm0 3.078c1.953 0 3.313-.813 3.313-2.063 0-1.25-1.36-2.062-3.313-2.062-1.969 0-3.328.812-3.328 2.062 0 1.25 1.36 2.063 3.328 2.063zm4.172.687H.422v1.063h1.89v3h1.329v-3h1.843v3h1.344v-3H8.75zm0 0"/></symbol><symbol overflow="visible" id="aq"><path d="M4.578-7.125c1.266 0 1.984.266 1.984.797s-.718.797-1.984.797c-1.25 0-1.969-.266-1.969-.797s.72-.797 1.97-.797zm0 2.61c2.031 0 3.344-.688 3.344-1.813S6.609-8.141 4.578-8.141c-2.016 0-3.312.688-3.312 1.813s1.296 1.812 3.312 1.812zM8.734-2.97v-1.047H.422v1.047h3.484v.797H1.344v1.031h5.078V.875h1.312v-3.047h-2.5v-.797zm0 0"/></symbol><symbol overflow="visible" id="ar"><path d="M3.172-4.328H1.984v-1.125h1.188zM4.39-7.75H3.17v1.297H1.985V-7.75H.75v4.438h3.64zM1.937-1.328h5.016V.875h1.313v-3.25H1.937zm5.079-7.016v2.25h-.72v-2.078H5.079v5.344h1.219v-2.203h.719v2.218h1.25v-5.53zm0 0"/></symbol><symbol overflow="visible" id="as"><path d="M6.797-2.953h1.328v-5.39H6.797v1.687H5.125v1.062h1.672zm-.844-1.313C4.5-4.75 3.906-5.859 3.906-7.094v-.765H2.562v.812c0 1.281-.64 2.531-2.218 3.016L1.03-2.97c1.094-.36 1.828-1.11 2.235-2.047a3.295 3.295 0 0 0 2 1.782zm-.937 4.11c-1.22 0-1.844-.25-1.844-.766 0-.531.625-.781 1.844-.781 1.187 0 1.828.25 1.828.781 0 .516-.64.766-1.828.766zm0-2.563c-1.954 0-3.157.656-3.157 1.797C1.86.203 3.063.86 5.016.86c1.937 0 3.14-.656 3.14-1.78 0-1.141-1.203-1.798-3.14-1.798zm0 0"/></symbol><symbol overflow="visible" id="at"><path d="M6.188-7.219h-2.11v-1.015H2.75v1.015H.672v1.032h5.516zm-1.75 3.14c0 .47-.407.735-1 .735-.61 0-1.016-.265-1.016-.734 0-.5.406-.75 1.015-.75.594 0 1 .25 1 .75zm-3.266 0c0 1.016.937 1.735 2.266 1.735 1.312 0 2.25-.719 2.25-1.734 0-1.047-.938-1.75-2.25-1.75-1.329 0-2.266.703-2.266 1.75zM.64-.718c1.625.016 3.718.016 5.765-.36l-.093-.952c-1.938.25-4.157.25-5.829.25zm6.14-7.625V.86h1.313v-9.203zm0 0"/></symbol><symbol overflow="visible" id="aD"><path d="M1.313-3.781C2.921-4 4.046-4.687 4.592-5.625 5.142-4.687 6.267-4 7.876-3.781l.469-1.031c-1.86-.235-2.828-1.125-2.969-2h2.61v-1.063H1.171v1.063h2.64c-.124.875-1.109 1.765-2.984 2zm7.437.531H.437v1.047h3.47V.875h1.312v-3.078H8.75zm0 0"/></symbol><symbol overflow="visible" id="aE"><path d="M8.328-5.375c-2.031-.281-3.062-1.422-3.062-2.438v-.28h-1.36v.28c0 1.047-1.031 2.188-3.062 2.454l.5 1.046c1.547-.25 2.672-.953 3.25-1.89.578.922 1.703 1.625 3.234 1.86zm-5.625 3.39H1.391V.704h6.437V-.344H2.703zM.422-3.811v1.03h3.625v1.579h1.312v-1.578H8.75v-1.031zm0 0"/></symbol><symbol overflow="visible" id="aF"><path d="M6.063-4.328c-1.485-.469-2.141-1.563-2.141-2.719v-.875H2.594v.875c0 1.172-.672 2.375-2.203 2.86l.64 1.046C2.11-3.5 2.86-4.219 3.281-5.109c.406.843 1.11 1.484 2.14 1.812zM1.796-1.391h4.937V.875h1.329v-3.328H1.796zm4.937-6.953v5.485h1.329v-5.485zm0 0"/></symbol><symbol overflow="visible" id="aS"><path d="M2.453-5.328c0-.938.875-1.484 2.125-1.484 1.266 0 2.14.546 2.14 1.484 0 .937-.874 1.484-2.14 1.484-1.25 0-2.125-.547-2.125-1.484zm2.781 4.047v-1.547c1.641-.203 2.782-1.14 2.782-2.5 0-1.547-1.47-2.547-3.438-2.547-1.953 0-3.422 1-3.422 2.547 0 1.36 1.157 2.297 2.766 2.5v1.547h-3.5v1.078H8.75v-1.078zm0 0"/></symbol><symbol overflow="visible" id="aT"><path d="M8.75-3.89H7.531c.235-1.297.235-2.235.235-3.094v-.829H1.39v1.063h5.093c0 .797-.03 1.688-.25 2.86H.438v1.062h3.437V.859h1.344v-3.687H8.75zm0 0"/></symbol><symbol overflow="visible" id="aU"><path d="M4.563-4.328C3.719-4.203 3-4.156 2-4.141v-.78h2.266v-1H2v-.75h2.36V-7.72H.733v4.64h.641c1.375 0 2.266-.03 3.313-.202zM1.938-1.281h5.015V.875h1.313v-3.203H1.937zm5.078-7.063v2.266H6.28v-2.094H5.047v5.39H6.28v-2.25h.735v2.313h1.25v-5.625zm0 0"/></symbol><symbol overflow="visible" id="o"><path d="M1.266-1.344c.468 0 .906-.375.906-.984 0-.61-.438-1-.906-1-.47 0-.922.39-.922 1s.453.984.922.984zm0 0"/></symbol><symbol overflow="visible" id="q"><path d="M5.594-3.875h-3.86v-1.078h3.86zm.422-2.438h-.422v1h-3.86v-1h-.421v2.797h4.703zM1.719-1.53h-.422V.39h4.86V.03H1.718zM.437-2.72v.36H3.47v1.515h.422v-1.515h2.984v-.36zm0 0"/></symbol><symbol overflow="visible" id="r"><path d="M2.719-5.406H4.39v-.375H.594v.375h1.703v1.187C2.297-3 1.28-1.64.359-1.172l.266.344c.766-.422 1.578-1.39 1.875-2.469.313 1 1.078 1.89 1.844 2.297l.25-.344c-.922-.453-1.875-1.718-1.875-2.875zm4.375 1.828h-1.25v-2.953h-.422V.562h.422v-3.78h1.25zm0 0"/></symbol><symbol overflow="visible" id="s"><path d="M4.86-4.172h1.124v2.047h.407v-4.406h-.407v2H4.86v-1.86h-.406v4.032h.406zm-.876 1.078C3.094-3.438 2.47-4.25 2.47-5.047v-1.047h-.406v1.047c0 .797-.657 1.734-1.547 2.125l.234.328c.719-.312 1.266-.969 1.516-1.672a2.67 2.67 0 0 0 1.5 1.5zM4.11.203c-1.156 0-1.906-.344-1.906-.89 0-.563.75-.907 1.906-.907 1.157 0 1.907.344 1.907.907 0 .546-.75.89-1.907.89zm0-2.14c-1.453 0-2.328.453-2.328 1.25C1.781.093 2.656.53 4.11.53c1.438 0 2.313-.437 2.313-1.219 0-.796-.875-1.25-2.313-1.25zm0 0"/></symbol><symbol overflow="visible" id="t"><path d="M5.61-4.516H1.718v-1.421h3.89zm.406-1.765H1.312v2.11h4.704zm.843 3.203v-.36H.453v.36h2.985v.828H1.25v.344h4.344v.797H1.266V.453H6.25V.11H1.687v-.89h4.329V-2.25H3.859v-.828zm0 0"/></symbol><symbol overflow="visible" id="u"><path d="M4.672-5.703H2.797v-.875h-.422v.875H.485v.344h4.187zM1.297-3.641c0-.546.531-.921 1.281-.921.766 0 1.266.375 1.266.921 0 .547-.5.922-1.266.922-.75 0-1.281-.375-1.281-.922zm2.953 0c0-.78-.672-1.25-1.672-1.25-1 0-1.672.47-1.672 1.25 0 .782.672 1.266 1.672 1.266 1 0 1.672-.484 1.672-1.266zM1.375-1.312H5.5V.546h.422v-2.219H1.375zM7.031-4.5h-1.11v-2.047H5.5v4.438h.422v-2.032h1.11zm0 0"/></symbol><symbol overflow="visible" id="v"><path d="M3.594-3.14H1.219v-1.391h2.375zm.422-2.954h-.422v1.219H1.219v-1.219H.797v3.297h3.219zM1.375-1.469H5.5V.563h.422v-2.391H1.375zm5.656-3.156h-1.11v-1.906H5.5v4.281h.422v-2h1.11zm0 0"/></symbol><symbol overflow="visible" id="w"><path d="M2.688-5.89H2.28v1.421c0 1.282-.969 2.64-1.89 3.14l.25.345c.78-.438 1.546-1.407 1.843-2.5.313 1.03 1.079 1.921 1.844 2.343l.266-.328c-.922-.484-1.907-1.765-1.907-3zm4.406 2.312h-1.25v-2.969h-.422v7.11h.422V-3.22h1.25zm0 0"/></symbol><symbol overflow="visible" id="x"><path d="M2.813-5.875H2.39v1.406c0 1.297-.97 2.64-1.891 3.157l.266.328c.78-.438 1.546-1.422 1.843-2.532.313 1.063 1.094 1.985 1.875 2.407l.25-.344c-.937-.469-1.921-1.75-1.921-3.016zm2.984-.656v2.515H3.969v.36h1.828V.563h.437v-7.094zm0 0"/></symbol><symbol overflow="visible" id="y"><path d="M3.656-6.11c1.235 0 2.016.344 2.016.907 0 .562-.781.906-2.016.906-1.234 0-2.015-.344-2.015-.906 0-.563.78-.906 2.015-.906zm0 2.157c1.531 0 2.453-.453 2.453-1.25 0-.797-.921-1.234-2.453-1.234-1.547 0-2.453.437-2.453 1.234 0 .797.906 1.25 2.453 1.25zm3.203.906v-.36H.453v.36h2.985v.781H1.265v.344h4.328v.781H1.266V.453H6.25V.11H1.687v-.921h4.329v-1.454H3.859v-.78zm0 0"/></symbol><symbol overflow="visible" id="z"><path d="M1.156-1.656v-3.625h2.235v-.375H.75v4.375h.438c1.156 0 1.843-.047 2.687-.235l-.063-.359c-.796.188-1.484.219-2.64.219zm4.86-4.875v2.922h-1.22v-2.75h-.405V.17h.406V-3.25h1.219V.547h.421v-7.078zm0 0"/></symbol><symbol overflow="visible" id="A"><path d="M5.594-4.922c0 .906 0 1.813-.266 3.016l.422.047C6-3.094 6-3.984 6-4.922v-.828H1.14v.36h4.454zM4.328-.89v-2.406h-.406V-.89H2.594v-2.406h-.422V-.89H.453v.36H6.86v-.36zm0 0"/></symbol><symbol overflow="visible" id="B"><path d="M1.047-4.453c0-.734.594-1.281 1.39-1.281.797 0 1.391.546 1.391 1.28 0 .735-.594 1.282-1.39 1.282-.797 0-1.391-.547-1.391-1.281zm3.187 0c0-.984-.75-1.64-1.796-1.64-1.063 0-1.797.655-1.797 1.64 0 .984.734 1.64 1.796 1.64 1.047 0 1.797-.656 1.797-1.64zM1.375-1.578H5.5v2.14h.422v-2.5H1.375zM7.015-5v-.36H5.923v-1.187H5.5v4.234h.422v-1.171h1.094v-.36H5.922V-5zm0 0"/></symbol><symbol overflow="visible" id="C"><path d="M6.484-3.734c-1.062-.172-2.609-1-2.609-2.094v-.438h-.438v.438c0 1.125-1.515 1.922-2.609 2.094l.188.359c1-.188 2.218-.813 2.656-1.75.422.922 1.656 1.563 2.64 1.75zm.375 1.28H.453v.36h2.985v2.64h.421v-2.64h3zm0 0"/></symbol><symbol overflow="visible" id="G"><path d="M5.781-6.531V.562h.422V-6.53zm-3.265.578C1.484-5.953.75-5 .75-3.516c0 1.485.734 2.438 1.766 2.438 1.03 0 1.75-.953 1.75-2.438 0-1.484-.72-2.437-1.75-2.437zm0 .375c.796 0 1.343.844 1.343 2.062 0 1.204-.546 2.063-1.343 2.063-.797 0-1.36-.86-1.36-2.063 0-1.218.563-2.062 1.36-2.062zm0 0"/></symbol><symbol overflow="visible" id="H"><path d="M2.766-5.984c-1.11 0-1.875.656-1.875 1.609 0 .969.765 1.625 1.875 1.625 1.093 0 1.859-.656 1.859-1.625 0-.953-.766-1.61-1.86-1.61zm0 .359c.843 0 1.453.531 1.453 1.25 0 .734-.61 1.266-1.453 1.266-.844 0-1.47-.532-1.47-1.266 0-.719.626-1.25 1.47-1.25zm2.953-.906V.562h.422V-6.53zM.562-1.063c1.297 0 3.063 0 4.688-.296l-.031-.329c-1.578.25-3.39.25-4.719.25zm0 0"/></symbol><symbol overflow="visible" id="I"><path d="M5.797-4.953v1.11h-1.86v-1.11zM3.53-3.156H1.266V-4.5H3.53zm.406-.328h1.86v1.265h.437V-6.53h-.437v1.218h-1.86v-.78h-.406v1.25H1.266v-1.25H.844v3.296h3.094zm0 3.671c-1.156 0-1.906-.359-1.906-.953 0-.578.75-.937 1.906-.937 1.157 0 1.907.36 1.907.937 0 .594-.75.954-1.907.954zm0-2.234c-1.437 0-2.328.453-2.328 1.281C1.61.078 2.5.531 3.938.531c1.437 0 2.328-.453 2.328-1.297 0-.828-.891-1.28-2.329-1.28zm0 0"/></symbol><symbol overflow="visible" id="J"><path d="M4.219-2.297v.328h1.515v.844h.422v-5.39h-.422v4.218zM2.734-5.89c.782 0 1.329.36 1.329.891s-.547.89-1.329.89c-.78 0-1.328-.359-1.328-.89s.547-.89 1.328-.89zm0 2.11c1.032 0 1.72-.469 1.72-1.219 0-.75-.688-1.219-1.72-1.219C1.688-6.219 1-5.75 1-5c0 .75.688 1.219 1.734 1.219zm-.156 2.375H3V-2.86c.688-.032 1.39-.094 2.063-.204l-.047-.312c-1.516.188-3.297.203-4.61.203l.063.375c.625 0 1.328 0 2.11-.031zM1.906.03v-1.687h-.422V.39h4.86V.03zm0 0"/></symbol><symbol overflow="visible" id="K"><path d="M6.438-3.906c-1.047-.188-2.563-1-2.563-2.031v-.422h-.438v.421c0 1.047-1.5 1.844-2.562 2.032l.172.328c.984-.188 2.187-.797 2.61-1.688.421.875 1.64 1.5 2.609 1.688zm-4.72 2.265h-.421V.391h4.86V.03H1.718zM.439-2.844v.36h3.03v1.578h.423v-1.578h2.984v-.36zm0 0"/></symbol><symbol overflow="visible" id="L"><path d="M4.734-5.766H2.875v-.796h-.422v.796H.61v.344h4.125zm-3.28 1.782c0-.454.484-.766 1.218-.766.719 0 1.203.313 1.203.766 0 .468-.484.78-1.203.78-.735 0-1.219-.312-1.219-.78zm3.5 1.5c-.657.093-1.376.156-2.079.187v-.594c.86-.062 1.39-.468 1.39-1.093 0-.672-.624-1.079-1.593-1.079-.985 0-1.625.407-1.625 1.079 0 .64.562 1.03 1.406 1.093v.61c-.719.031-1.422.031-2.015.031l.062.375c1.25-.016 2.969-.031 4.484-.313zm-3 1.14H1.53V.391h4.594V.03H1.953zm3.921-2.625V-6.53h-.422v5.547h.422V-3.61H7v-.36zm0 0"/></symbol><symbol overflow="visible" id="M"><path d="M.89-5.75v.36H3.72C3.609-3.64 2.53-2.126.579-1.189l.234.344C3.092-1.969 4.14-3.766 4.14-5.75zm4.907-.781V.562h.422V-6.53zm0 0"/></symbol><symbol overflow="visible" id="N"><path d="M1.266-5.64H.844v4.296h.422c.796 0 1.593-.047 2.593-.25l-.046-.375c-.97.203-1.782.25-2.547.25zm4.75-.907v2.984h-1.22v-2.796h-.405V.17h.406v-3.358h1.219v3.75h.406v-7.11zm0 0"/></symbol><symbol overflow="visible" id="O"><path d="M4.11-2.578c.202-1.406.202-2.375.202-2.875v-.266H.783v.36h3.124c0 .515-.015 1.453-.219 2.734zm-1.688-1.11h-.406v2.22c-.594.03-1.141.03-1.641.03l.063.375c1.28-.015 2.968-.046 4.484-.265l-.031-.328c-.782.11-1.641.156-2.47.172zm4.625.188h-1.25v-3.047h-.422v7.11h.422v-3.688h1.25zm0 0"/></symbol><symbol overflow="visible" id="P"><path d="M3.547-3.234H1.219v-2.391h2.328zm2.25-1.72v1.048H3.969v-1.047zM3.969-3.546h1.828v1.235h.437v-4.22h-.437v1.22H3.969v-.672H.813v3.093h3.156zM3.938.188c-1.157 0-1.907-.36-1.907-.97 0-.577.75-.952 1.906-.952 1.157 0 1.907.375 1.907.953 0 .61-.75.969-1.907.969zm0-2.266c-1.438 0-2.329.469-2.329 1.297C1.61.063 2.5.53 3.938.53 5.375.531 6.265.062 6.265-.78c0-.828-.891-1.297-2.329-1.297zm0 0"/></symbol><symbol overflow="visible" id="Q"><path d="M.984-4.328c0-.766.594-1.36 1.391-1.36s1.39.594 1.39 1.36c0 .781-.593 1.375-1.39 1.375-.797 0-1.39-.594-1.39-1.375zM5.797-5v1.328H4.063c.062-.187.109-.422.109-.656 0-.234-.047-.469-.125-.672zm0 1.688v2.046h.437V-6.53h-.437v1.172H3.859a1.862 1.862 0 0 0-1.484-.704c-1.047 0-1.797.72-1.797 1.735 0 1.031.75 1.734 1.797 1.734.64 0 1.172-.265 1.484-.719zM2.219.03v-1.843h-.422V.39h4.64V.03zm0 0"/></symbol><symbol overflow="visible" id="R"><path d="M6.86-2.984H5.75c.203-1.047.203-1.797.203-2.454v-.609H1.297v.36h4.25v.25c0 .656 0 1.421-.234 2.453H.452v.359h2.985V.563h.421v-3.188h3zm0 0"/></symbol><symbol overflow="visible" id="S"><path d="M1.016-3.688c1.046-.156 2.265-.671 2.64-1.515.39.844 1.61 1.36 2.64 1.516l.157-.344c-1.094-.14-2.547-.782-2.547-1.735v-.078h2.375v-.343H1.047v.343h2.375v.078c0 .954-1.453 1.594-2.563 1.735zm4.625 3c0 .547-.766.891-1.97.891-1.233 0-2-.344-2-.89 0-.547.766-.875 2-.875 1.204 0 1.97.328 1.97.875zm1.218-2.125v-.343H.453v.344h2.985v.906C2.062-1.86 1.25-1.438 1.25-.688c0 .797.89 1.22 2.406 1.22S6.062.108 6.062-.689c0-.75-.812-1.187-2.203-1.218v-.907zm0 0"/></symbol><symbol overflow="visible" id="T"><path d="M.734-5.594v.36h2.313C2.969-3.734 2.28-2.281.5-1.313L.766-1c2.03-1.14 2.703-2.875 2.703-4.594zm5.282-.937v2.953H4.844v-2.766h-.407V.172h.407v-3.39h1.172v3.78h.406V-6.53zm0 0"/></symbol><symbol overflow="visible" id="U"><path d="M6.516-2.938C5.5-3.14 3.859-4.155 3.859-5.453v-.563h-.437v.563c0 1.297-1.64 2.312-2.656 2.516l.187.343c.953-.219 2.25-.969 2.688-2.062.453 1.093 1.734 1.843 2.687 2.062zM3.844-.78v-1.813h-.422V-.78H.453v.36h6.422v-.36zm0 0"/></symbol><symbol overflow="visible" id="V"><path d="M6.219-6.547H5.78v3.734h.438zM4.703-3.422c-.984-.36-1.875-1.265-1.875-2.344v-.546h-.422v.546c0 1.125-.86 2.11-1.86 2.485l.235.344c.828-.344 1.563-1.047 1.844-1.954.313.844 1.047 1.5 1.86 1.813zM2.156.11v-.968H6.22v-1.563h-4.5v.344h4.078v.89H1.734V.454H6.5V.11zm0 0"/></symbol><symbol overflow="visible" id="W"><path d="M4.531-5.719H2.703v-.89h-.422v.89H.453v.344h4.078zm-3.25 2.047c0-.531.5-.906 1.203-.906.704 0 1.22.375 1.22.906s-.517.922-1.22.922-1.203-.39-1.203-.922zm2.813 0c0-.75-.657-1.25-1.61-1.25-.921 0-1.593.5-1.593 1.25 0 .766.671 1.266 1.593 1.266.954 0 1.61-.5 1.61-1.266zM2.109-1.469h3.72V.094h-3.72zM1.703.453h4.531v-2.265h-4.53zm4.094-7v2.219H4.453v.36h1.344v1.734h.437v-4.313zm0 0"/></symbol><symbol overflow="visible" id="X"><path d="M5.61-3.578H1.718v-1.235h3.89zM6.03-6.25H5.61v1.078H1.72V-6.25h-.422v3.031H6.03zm.844 3.984H.437v.36h3V.562h.422v-2.468h3.016zm0 0"/></symbol><symbol overflow="visible" id="Y"><path d="M4.5-2.984c-.984-.329-1.781-1.188-1.781-2.157v-.484h1.687v-.344H.625v.344h1.688v.484c0 1.079-.844 2-1.844 2.36l.219.328c.843-.313 1.546-.985 1.843-1.844.281.766.953 1.36 1.75 1.656zM3.687.187c-1.14 0-1.874-.343-1.874-.921 0-.563.734-.907 1.875-.907 1.14 0 1.874.344 1.874.907 0 .578-.734.921-1.875.921zm0-2.171c-1.421 0-2.296.453-2.296 1.25C1.39.078 2.266.53 3.687.53 5.11.531 5.97.078 5.97-.734c0-.797-.86-1.25-2.282-1.25zm2.235-2.641v-1.906H5.5v4.312h.422v-2.047h1.11v-.359zm0 0"/></symbol><symbol overflow="visible" id="ab"><path d="M3.656.188c-1.219 0-1.984-.344-1.984-.938 0-.563.766-.922 1.984-.922 1.219 0 1.985.36 1.985.922 0 .594-.766.938-1.985.938zm0-2.204c-1.5 0-2.406.454-2.406 1.266 0 .828.906 1.281 2.406 1.281S6.062.078 6.062-.75c0-.813-.906-1.266-2.406-1.266zm.219-1v-1.062h2.25v-.36H1.781v-1.937H1.36v2.297h2.094v1.062H.47v.36h6.39v-.36zm0 0"/></symbol><symbol overflow="visible" id="ac"><path d="M1.188-5.453H3.53v3.812H1.187zM.78-1.297h3.156v-4.5H.781zm6.313-2.312h-1.25v-2.922h-.422V.547h.422V-3.25h1.25zm0 0"/></symbol><symbol overflow="visible" id="ad"><path d="M1.063-5.016l.078.36 4.437-.219a9.165 9.165 0 0 1-.125 1l.406.031c.172-.844.172-1.5.172-2v-.437H1.234v.343H5.61v.751zm.625 4.25h4.328V-2.25H1.25v.328h4.344v.828H1.266V.438H6.25V.094H1.687zm1.921-2.593v-.954h-.421v.954H.453V-3H6.86v-.36zm0 0"/></symbol><symbol overflow="visible" id="ae"><path d="M.86-5.766v.36h2.734c-.031.484-.11.968-.266 1.406L.5-3.781l.094.375 2.594-.25C2.733-2.61 1.89-1.687.5-1.016l.25.344C3.203-1.89 4.016-3.797 4.016-5.766zm4.937-.765v2.922H3.969v.359h1.828V.547h.422v-7.078zm0 0"/></symbol><symbol overflow="visible" id="af"><path d="M5.61-3.766H1.718V-5.78h3.89zm.406-2.359H1.312v2.703h4.704zm.859 3.781H.437v.36h1.75V.625h.422v-2.61h2.11v2.61h.422v-2.61h1.734zm0 0"/></symbol><symbol overflow="visible" id="ag"><path d="M1.36-1.688v-4.156H.952v4.532H1.5c1.156 0 2.234-.094 3.484-.36l-.062-.36c-1.203.25-2.313.345-3.422.345zM5.765-6.53V.562h.421V-6.53zm0 0"/></symbol><symbol overflow="visible" id="ah"><path d="M4.563-3.656h-1.36a5.988 5.988 0 0 0 .328-2.016H.844v.36h2.281A5.523 5.523 0 0 1 2.891-4L.5-3.828l.078.375 2.203-.219c-.36.922-1.062 1.766-2.25 2.39l.25.329c1.172-.64 1.875-1.469 2.281-2.36h1.5V.172h.407v-6.516h-.407zm1.468-2.89V.562h.407v-7.11zm0 0"/></symbol><symbol overflow="visible" id="ai"><path d="M5.797-1.219h.437v-5.297h-.437v1.11H4.219v.36h1.578v1.14H4.219v.36h1.578zm-1.266-1.5c-.968-.39-1.797-1.39-1.797-2.453v-.969h-.406v.97C2.328-4.017 1.484-3 .5-2.595l.234.344a3.263 3.263 0 0 0 1.813-2.031c.281.86.969 1.562 1.734 1.89zM2.188.031V-1.78H1.75V.39h4.656V.03zm0 0"/></symbol><symbol overflow="visible" id="aj"><path d="M4.078-4.203v.36h1.719v2.609h.437v-5.282h-.437v2.313zM.968-5.937v.359h2.657a3.466 3.466 0 0 1-.219.984l-2.781.125.078.375L3.25-4.28c-.438.812-1.266 1.453-2.563 1.89l.188.344c2.203-.75 3.203-2.14 3.203-3.89zM2.314.03V-1.78H1.89V.39h4.562V.03zm0 0"/></symbol><symbol overflow="visible" id="ak"><path d="M5.797-2.844h.437v-3.703h-.437v1.438H4.109v.375h1.688zm-1.25-.515c-.969-.344-1.828-1.22-1.828-2.204v-.765h-.406v.766c0 1.109-.829 2.015-1.829 2.375l.22.343c.827-.328 1.546-.984 1.827-1.844.297.766 1 1.36 1.781 1.657zM2.172.094V-.86h4.062v-1.579h-4.5v.36h4.079v.875H1.75V.453h4.781v-.36zm0 0"/></symbol><symbol overflow="visible" id="al"><path d="M6.219-6.516h-.422v4.438h.422zm-1.375 3.25c-1 .172-1.844.22-3.422.22h-.125v-1.157h2.75v-.36h-2.75V-5.64h2.937V-6H.875v3.297h.547c1.594 0 2.437-.031 3.484-.219zM3.906.188C2.734.188 1.97-.156 1.97-.72c0-.562.765-.906 1.937-.906 1.172 0 1.938.344 1.938.906 0 .563-.766.906-1.938.906zm0-2.172c-1.469 0-2.36.453-2.36 1.265 0 .797.891 1.25 2.36 1.25 1.453 0 2.36-.453 2.36-1.25 0-.812-.907-1.265-2.36-1.265zm0 0"/></symbol><symbol overflow="visible" id="am"><path d="M5.578-5.031c0 .843 0 1.812-.25 3.14l.422.063C6-3.218 6-4.172 6-5.031v-.719H1.156v.36h4.422zM3.5-.891v-2.593h-.422v2.593H.453v.36H6.86v-.36zm0 0"/></symbol><symbol overflow="visible" id="an"><path d="M5.625-4.14H1.703v-1.688h3.922zm.406-2.048H1.297v2.407H6.03zM1.72-1.64h-.422V.391h4.86V.03H1.718zM.437-2.844v.36H3.47v1.578h.422v-1.578h2.984v-.36zm0 0"/></symbol><symbol overflow="visible" id="au"><path d="M6.469-5.688h-2.61v-.906h-.421v.907H.796v.359h5.672zM5.453-3.671c0 .516-.703.828-1.797.828-1.094 0-1.797-.312-1.797-.828 0-.515.704-.828 1.797-.828 1.094 0 1.797.313 1.797.828zm-4.031 0c0 .735.844 1.156 2.234 1.156 1.39 0 2.235-.421 2.235-1.156 0-.75-.844-1.172-2.235-1.172-1.39 0-2.234.422-2.234 1.172zM6.89-1.937H.453v.359h2.985v2.14h.421v-2.14h3.032zm0 0"/></symbol><symbol overflow="visible" id="av"><path d="M5.797-2.313h.437v-4.234h-.437v1.64H4.109v.36h1.688zM4.563-3.03c-.985-.375-1.829-1.266-1.829-2.313v-.765h-.406v.78c0 1.157-.828 2.11-1.844 2.485l.22.344c.859-.344 1.562-1.031 1.843-1.953.297.812.984 1.437 1.765 1.75zM3.938.188C2.78.188 2.03-.189 2.03-.782c0-.577.75-.952 1.906-.952 1.157 0 1.907.375 1.907.953 0 .594-.75.969-1.907.969zm0-2.266c-1.454 0-2.329.469-2.329 1.297C1.61.063 2.484.53 3.938.53 5.375.531 6.265.062 6.265-.78c0-.828-.891-1.297-2.329-1.297zm0 0"/></symbol><symbol overflow="visible" id="aw"><path d="M3.656-5.875c1.172 0 2 .469 2 1.172 0 .687-.828 1.172-2 1.172-1.187 0-2-.485-2-1.172 0-.703.813-1.172 2-1.172zm0 2.688c1.453 0 2.422-.594 2.422-1.516 0-.938-.969-1.531-2.422-1.531-1.469 0-2.437.593-2.437 1.53 0 .923.968 1.516 2.437 1.516zm3.219.75H.453v.359H2.22V.547h.437v-2.625h2V.547h.438v-2.625h1.781zm0 0"/></symbol><symbol overflow="visible" id="ax"><path d="M4.203-4.5v.36h1.594v2.827h.437V-6.53h-.437V-4.5zm.375 1.688c-.969-.36-1.797-1.25-1.797-2.22v-.515h1.672v-.36H.672v.36h1.703v.531C2.375-3.953 1.5-3 .515-2.64l.235.344c.828-.328 1.547-1.031 1.844-1.922.281.797.969 1.438 1.765 1.75zM2.218.03V-1.78h-.421V.39h4.64V.03zm0 0"/></symbol><symbol overflow="visible" id="ay"><path d="M1.063-3.875l.078.375 4.406-.25a11.636 11.636 0 0 1-.25 1.844l.422.047C6-3.25 6-4.203 6-5.08v-.702H1.25v.36h4.328v.343c0 .312 0 .64-.016 1zM3.5-.859v-1.922h-.422V-.86H.453V-.5H6.86v-.36zm0 0"/></symbol><symbol overflow="visible" id="az"><path d="M6.094-3.047H1.719v-2.437H6.03v-.36H1.313v3.157h4.78zM.454-.828v.36h6.421v-.36zm0 0"/></symbol><symbol overflow="visible" id="aA"><path d="M6.219-6.547H5.78v4.11h.438zM3.656-3.563H1.25v-2.14h2.406zm.406-2.5H.829v2.844h3.235zm.204 4.516h2.156v-.344H4.266v-.765h-.422v.765h-2.14v.344h2.14v.078c0 .813-1.39 1.516-2.422 1.657l.156.343C2.531.36 3.656-.172 4.062-.89 4.454-.17 5.532.36 6.5.531l.156-.344C5.61.032 4.266-.671 4.266-1.468zm0 0"/></symbol><symbol overflow="visible" id="aB"><path d="M6.219-6.547H5.78v3.719h.438zM4.75-3.344c-1-.328-1.89-1.156-1.89-2.172v-.218h1.734v-.36H.704v.36h1.734v.218c0 1.063-.86 1.97-1.844 2.313l.203.344c.844-.313 1.578-.985 1.875-1.844.297.797 1.031 1.39 1.86 1.687zM2.156.11v-.984H6.22v-1.578h-4.5v.344h4.078v.906H1.734V.453H6.5V.11zm0 0"/></symbol><symbol overflow="visible" id="aC"><path d="M4.625-3.328c-1.016.203-1.875.25-3.281.25h-.11v-2.469h2.688v-.36H.812v3.204h.532c1.437 0 2.297-.063 3.328-.266zm-2.61 1.437h-.421V.391h4.672V.03h-4.25zm3.907-2.437v-2.219H5.5v5.156h.422v-2.578h1.11v-.36zm0 0"/></symbol><symbol overflow="visible" id="aH"><path d="M5.797-4.766v1.125H3.766v.36h2.03v1.094h.438v-4.329h-.437v1.391H3.969c.078-.25.125-.547.125-.844H.922v.36H3.64C3.516-4.22 2.297-3.172.562-2.625l.204.344C2.25-2.75 3.375-3.594 3.844-4.766zM3.953.188c-1.156 0-1.906-.391-1.906-.985s.75-.969 1.906-.969c1.14 0 1.906.375 1.906.97 0 .593-.765.984-1.906.984zm0-2.297c-1.437 0-2.328.484-2.328 1.312 0 .844.89 1.328 2.328 1.328 1.422 0 2.313-.484 2.313-1.328 0-.828-.891-1.312-2.313-1.312zm0 0"/></symbol><symbol overflow="visible" id="aI"><path d="M2.422-5.281h1.422v-.36H.547v.36h1.469v.828c0 1.344-.672 2.656-1.625 3.219l.28.312c.735-.453 1.313-1.36 1.563-2.406.235.969.797 1.797 1.516 2.25l.266-.328c-.938-.532-1.594-1.797-1.594-3.047zm2.172 1.36H3.28v.374h1.313V.172H5v-6.516h-.406zm1.422-2.61V.562h.421V-6.53zm0 0"/></symbol><symbol overflow="visible" id="aJ"><path d="M1.375-1.578v-.953h2.031v.953zm2.031-2.25v.969H1.375v-.97zm.375-.344H1.016V.547h.359V-1.25h2.031V.047c0 .11-.031.14-.156.14-.11.016-.5.016-.953 0 .047.11.094.266.125.36.578 0 .922 0 1.11-.078.187-.063.25-.172.25-.422zM6.547.031c0 .11-.047.14-.172.157h-1.11c.063.093.126.265.157.374.625 0 1-.015 1.219-.078.203-.062.28-.187.28-.468V-4.36h-.374zM5.28-4.094h-.36v3.25h.36zM1.797-6.516c.312.36.656.86.797 1.172l.375-.156a6.332 6.332 0 0 0-.844-1.156zm3.719 1.172c.25-.36.53-.812.765-1.203l-.39-.156a9.963 9.963 0 0 1-.797 1.36H.469v.359H7.5v-.36zm0 0"/></symbol><symbol overflow="visible" id="aK"><path d="M5.797.094H2.219V-.953h3.578zm0-1.39H2.219v-1H1.78v2.75H6.22v-2.75h-.422zM3.53-3.329H1.266v-1.297H3.53zm2.266-3.219v1.828h-1.86v-1.453h-.406v1.203H1.266v-1.203H.844v3.203h3.094v-1.39h1.859v1.703h.437v-3.89zm0 0"/></symbol><symbol overflow="visible" id="aL"><path d="M5.61-3.766H1.718v-2h3.89zm.406-2.343H1.312v2.703h4.704zm.859 3.78H.437v.36h3V.547h.422V-1.97h3.016zm0 0"/></symbol><symbol overflow="visible" id="aM"><path d="M6.219-6.516h-.422v5.22h.422zm-5.157 2.22c0-.766.594-1.345 1.391-1.345.781 0 1.39.579 1.39 1.344 0 .766-.609 1.344-1.39 1.344-.797 0-1.39-.578-1.39-1.344zm3.188 0c0-1.016-.766-1.72-1.797-1.72-1.047 0-1.797.704-1.797 1.72 0 1 .75 1.718 1.797 1.718 1.031 0 1.797-.719 1.797-1.719zM2.187.03v-1.875h-.421V.391h4.687V.03zm0 0"/></symbol><symbol overflow="visible" id="aN"><path d="M1.938.969l.28-.14c-.702-1.126-1.046-2.47-1.046-3.86 0-1.39.344-2.75 1.047-3.86l-.281-.14c-.735 1.156-1.172 2.437-1.172 4 0 1.547.437 2.828 1.171 4zm0 0"/></symbol><symbol overflow="visible" id="aO"><path d="M4.672-5.594H2.797v-.922h-.422v.922H.485v.36h4.187zM1.297-3.469c0-.562.531-.953 1.281-.953.766 0 1.266.39 1.266.953 0 .547-.5.953-1.266.953-.75 0-1.281-.406-1.281-.953zm2.953 0c0-.781-.672-1.297-1.672-1.297-1 0-1.672.516-1.672 1.297 0 .781.672 1.297 1.672 1.297 1 0 1.672-.515 1.672-1.297zM2.016-1.64h-.422V.391h4.672V.03h-4.25zm3.906-2.453v-2.422H5.5v5.313h.422v-2.531h1.11v-.36zm0 0"/></symbol><symbol overflow="visible" id="aP"><path d="M.578.969c.735-1.172 1.172-2.453 1.172-4 0-1.563-.438-2.844-1.172-4l-.281.14c.687 1.11 1.047 2.47 1.047 3.86 0 1.39-.36 2.734-1.047 3.86zm0 0"/></symbol><symbol overflow="visible" id="aQ"><path d="M3.656-6.11c1.235 0 2.016.344 2.016.907 0 .562-.781.906-2.016.906-1.25 0-2.015-.344-2.015-.906 0-.563.765-.906 2.015-.906zm0 2.157c1.531 0 2.453-.453 2.453-1.25 0-.797-.921-1.234-2.453-1.234-1.547 0-2.453.437-2.453 1.234 0 .797.906 1.25 2.453 1.25zm.89 1.687H2.688v-.812h1.86zm2.313-.812v-.36H.453v.36h1.813v.812h-1v.344h4.328v.781H1.266V.453H6.25V.11H1.687v-.921h4.329v-1.454H4.969v-.812zm0 0"/></symbol><symbol overflow="visible" id="aR"><path d="M1.047-3.25c1.062-.156 2.203-.625 2.61-1.469.405.844 1.546 1.313 2.609 1.469l.14-.344c-1.156-.156-2.531-.75-2.531-1.781h2.313v-.36H3.874v-.843h-.422v.844H1.141v.359h2.296c0 1.031-1.359 1.625-2.53 1.781zm.687 1.703h-.421V.391h4.843V.03H1.734zm2.141-1.016v-1.015h-.422v1.015h-3v.36H6.86v-.36zm0 0"/></symbol><symbol overflow="visible" id="aV"><path d="M4.766-5.625H2.828v-.922h-.422v.922H.484v.36h4.282zM1.39-3.469c0-.578.5-.969 1.234-.969s1.234.391 1.234.97c0 .546-.5.952-1.234.952s-1.234-.406-1.234-.953zm1.437 1.281c.875-.078 1.438-.546 1.438-1.28 0-.798-.672-1.313-1.641-1.313C1.641-4.781 1-4.266 1-3.47c0 .735.563 1.203 1.406 1.281v.891c-.734.031-1.437.031-2.031.031l.078.36c1.25 0 2.953-.016 4.5-.281l-.031-.329c-.656.11-1.375.157-2.094.204zm4.219-1.25H5.828V-6.53h-.437V.547h.437v-3.625h1.219zm0 0"/></symbol><symbol overflow="visible" id="aW"><path d="M3.938-2.61a3.98 3.98 0 0 0-.016-1.906h1.875v1.907zM2.312-1.452c-.78 0-1.328-.86-1.328-2.063 0-1.218.547-2.062 1.329-2.062.78 0 1.328.844 1.328 2.062 0 1.204-.547 2.063-1.329 2.063zm3.485-5.078v1.656h-2c-.297-.672-.813-1.078-1.485-1.078C1.298-5.953.595-5 .595-3.516c0 1.485.703 2.438 1.719 2.438.687 0 1.218-.438 1.515-1.172h1.969V.563h.437v-7.094zm0 0"/></symbol></defs><g fill="#898989"><use xlink:href="#a" x="28.312" y="819.169"/><use xlink:href="#b" x="31.976" y="819.169"/></g><g fill="#898989"><use xlink:href="#c" x="36.291" y="819.169"/><use xlink:href="#c" x="38.381" y="819.169"/></g><g fill="#595757"><use xlink:href="#d" x="536.536" y="818.993"/><use xlink:href="#d" x="538.046" y="818.993"/><use xlink:href="#d" x="539.557" y="818.993"/><use xlink:href="#e" x="541.067" y="818.993"/><use xlink:href="#f" x="542.451" y="818.993"/><use xlink:href="#g" x="544.009" y="818.993"/><use xlink:href="#h" x="549.403" y="818.993"/></g><g fill="#fff"><use xlink:href="#i" x="30.093" y="54.085"/><use xlink:href="#j" x="40.88" y="54.085"/><use xlink:href="#k" x="51.667" y="54.085"/></g><use xlink:href="#l" x="42.468" y="238.573"/><use xlink:href="#m" x="51.457" y="238.573"/><use xlink:href="#n" x="60.446" y="238.573"/><use xlink:href="#o" x="42.468" y="254.794"/><use xlink:href="#p" x="44.841" y="254.794"/><use xlink:href="#q" x="46.919" y="254.794"/><use xlink:href="#r" x="54.11" y="254.794"/><use xlink:href="#s" x="61.301" y="254.794"/><use xlink:href="#t" x="68.492" y="254.794"/><use xlink:href="#u" x="75.684" y="254.794"/><use xlink:href="#p" x="82.875" y="254.794"/><use xlink:href="#v" x="84.952" y="254.794"/><use xlink:href="#w" x="92.144" y="254.794"/><use xlink:href="#p" x="99.335" y="254.794"/><use xlink:href="#o" x="42.468" y="269.775"/><use xlink:href="#p" x="44.841" y="269.775"/><use xlink:href="#x" x="46.919" y="269.775"/><use xlink:href="#y" x="54.11" y="269.775"/><use xlink:href="#z" x="61.301" y="269.775"/><use xlink:href="#u" x="68.492" y="269.775"/><use xlink:href="#A" x="75.684" y="269.775"/><use xlink:href="#p" x="82.875" y="269.775"/><use xlink:href="#B" x="84.952" y="269.775"/><use xlink:href="#u" x="92.144" y="269.775"/><use xlink:href="#z" x="99.335" y="269.775"/><use xlink:href="#u" x="106.526" y="269.775"/><use xlink:href="#p" x="113.717" y="269.775"/><use xlink:href="#A" x="115.795" y="269.775"/><use xlink:href="#C" x="122.986" y="269.775"/><g><use xlink:href="#D" x="231.097" y="238.573"/><use xlink:href="#E" x="240.086" y="238.573"/><use xlink:href="#F" x="249.075" y="238.573"/></g><g><use xlink:href="#o" x="231.097" y="254.794"/><use xlink:href="#p" x="233.47" y="254.794"/><use xlink:href="#G" x="235.547" y="254.794"/><use xlink:href="#u" x="242.739" y="254.794"/><use xlink:href="#p" x="249.93" y="254.794"/><use xlink:href="#H" x="252.007" y="254.794"/><use xlink:href="#u" x="259.199" y="254.794"/><use xlink:href="#p" x="266.39" y="254.794"/><use xlink:href="#v" x="268.467" y="254.794"/><use xlink:href="#w" x="275.659" y="254.794"/></g><g><use xlink:href="#o" x="231.097" y="269.775"/><use xlink:href="#p" x="233.47" y="269.775"/><use xlink:href="#x" x="235.547" y="269.775"/><use xlink:href="#y" x="242.739" y="269.775"/><use xlink:href="#z" x="249.93" y="269.775"/><use xlink:href="#u" x="257.121" y="269.775"/><use xlink:href="#A" x="264.312" y="269.775"/><use xlink:href="#I" x="271.504" y="269.775"/><use xlink:href="#J" x="278.695" y="269.775"/><use xlink:href="#p" x="285.886" y="269.775"/><use xlink:href="#K" x="287.964" y="269.775"/><use xlink:href="#L" x="295.155" y="269.775"/><use xlink:href="#M" x="302.346" y="269.775"/><use xlink:href="#N" x="309.537" y="269.775"/><use xlink:href="#O" x="316.729" y="269.775"/><use xlink:href="#p" x="323.92" y="269.775"/><use xlink:href="#A" x="325.997" y="269.775"/><use xlink:href="#C" x="333.189" y="269.775"/></g><g><use xlink:href="#o" x="231.097" y="284.757"/><use xlink:href="#p" x="233.47" y="284.757"/><use xlink:href="#H" x="235.547" y="284.757"/><use xlink:href="#s" x="242.739" y="284.757"/><use xlink:href="#P" x="249.93" y="284.757"/><use xlink:href="#Q" x="257.121" y="284.757"/><use xlink:href="#R" x="264.312" y="284.757"/><use xlink:href="#J" x="271.504" y="284.757"/><use xlink:href="#p" x="278.695" y="284.757"/><use xlink:href="#S" x="280.772" y="284.757"/><use xlink:href="#T" x="287.964" y="284.757"/><use xlink:href="#H" x="295.155" y="284.757"/><use xlink:href="#u" x="302.346" y="284.757"/><use xlink:href="#Q" x="309.537" y="284.757"/><use xlink:href="#R" x="316.729" y="284.757"/><use xlink:href="#U" x="323.92" y="284.757"/><use xlink:href="#p" x="331.111" y="284.757"/><use xlink:href="#Q" x="333.189" y="284.757"/><use xlink:href="#R" x="340.38" y="284.757"/><use xlink:href="#p" x="347.571" y="284.757"/><use xlink:href="#V" x="349.649" y="284.757"/><use xlink:href="#W" x="356.84" y="284.757"/><use xlink:href="#X" x="364.031" y="284.757"/><use xlink:href="#p" x="371.222" y="284.757"/><use xlink:href="#X" x="373.3" y="284.757"/><use xlink:href="#Y" x="380.491" y="284.757"/></g><g><use xlink:href="#l" x="419.726" y="238.573"/><use xlink:href="#Z" x="428.715" y="238.573"/><use xlink:href="#aa" x="437.704" y="238.573"/></g><g><use xlink:href="#o" x="419.726" y="254.794"/><use xlink:href="#p" x="422.099" y="254.794"/><use xlink:href="#ab" x="424.176" y="254.794"/><use xlink:href="#u" x="431.368" y="254.794"/><use xlink:href="#p" x="438.559" y="254.794"/><use xlink:href="#v" x="440.636" y="254.794"/><use xlink:href="#w" x="447.828" y="254.794"/><use xlink:href="#p" x="455.019" y="254.794"/></g><g><use xlink:href="#o" x="419.726" y="269.775"/><use xlink:href="#p" x="422.099" y="269.775"/><use xlink:href="#ac" x="424.176" y="269.775"/><use xlink:href="#ad" x="431.368" y="269.775"/><use xlink:href="#ae" x="438.559" y="269.775"/><use xlink:href="#af" x="445.75" y="269.775"/><use xlink:href="#ag" x="452.941" y="269.775"/><use xlink:href="#ah" x="460.133" y="269.775"/><use xlink:href="#G" x="467.324" y="269.775"/><use xlink:href="#ai" x="474.515" y="269.775"/><use xlink:href="#p" x="481.706" y="269.775"/><use xlink:href="#aj" x="483.784" y="269.775"/><use xlink:href="#ak" x="490.975" y="269.775"/><use xlink:href="#al" x="498.166" y="269.775"/><use xlink:href="#p" x="505.358" y="269.775"/><use xlink:href="#am" x="507.435" y="269.775"/><use xlink:href="#an" x="514.626" y="269.775"/></g><g><use xlink:href="#ao" x="42.468" y="761.032"/><use xlink:href="#ap" x="51.457" y="761.032"/><use xlink:href="#aq" x="60.446" y="761.032"/></g><g><use xlink:href="#p" x="69.435" y="760.273"/></g><g><use xlink:href="#o" x="42.468" y="777.253"/><use xlink:href="#p" x="44.841" y="777.253"/><use xlink:href="#q" x="46.919" y="777.253"/><use xlink:href="#r" x="54.11" y="777.253"/><use xlink:href="#s" x="61.301" y="777.253"/><use xlink:href="#t" x="68.492" y="777.253"/><use xlink:href="#u" x="75.684" y="777.253"/><use xlink:href="#p" x="82.875" y="777.253"/><use xlink:href="#v" x="84.952" y="777.253"/><use xlink:href="#w" x="92.144" y="777.253"/></g><g><use xlink:href="#o" x="42.468" y="792.235"/><use xlink:href="#p" x="44.841" y="792.235"/><use xlink:href="#x" x="46.919" y="792.235"/><use xlink:href="#y" x="54.11" y="792.235"/><use xlink:href="#z" x="61.301" y="792.235"/><use xlink:href="#u" x="68.492" y="792.235"/><use xlink:href="#A" x="75.684" y="792.235"/><use xlink:href="#I" x="82.875" y="792.235"/><use xlink:href="#J" x="90.066" y="792.235"/><use xlink:href="#p" x="97.257" y="792.235"/><use xlink:href="#H" x="99.335" y="792.235"/><use xlink:href="#s" x="106.526" y="792.235"/><use xlink:href="#P" x="113.717" y="792.235"/><use xlink:href="#Q" x="120.909" y="792.235"/><use xlink:href="#R" x="128.1" y="792.235"/><use xlink:href="#J" x="135.291" y="792.235"/><use xlink:href="#p" x="142.482" y="792.235"/><use xlink:href="#A" x="144.56" y="792.235"/><use xlink:href="#C" x="151.751" y="792.235"/></g><g><use xlink:href="#ar" x="42.468" y="492.732"/><use xlink:href="#as" x="51.457" y="492.732"/><use xlink:href="#at" x="60.446" y="492.732"/></g><g><use xlink:href="#o" x="42.468" y="508.953"/><use xlink:href="#p" x="44.841" y="508.953"/><use xlink:href="#G" x="46.919" y="508.953"/><use xlink:href="#u" x="54.11" y="508.953"/><use xlink:href="#p" x="61.301" y="508.953"/><use xlink:href="#v" x="63.379" y="508.953"/><use xlink:href="#w" x="70.57" y="508.953"/></g><g><use xlink:href="#o" x="42.468" y="523.934"/><use xlink:href="#p" x="44.841" y="523.934"/><use xlink:href="#x" x="46.919" y="523.934"/><use xlink:href="#y" x="54.11" y="523.934"/><use xlink:href="#z" x="61.301" y="523.934"/><use xlink:href="#u" x="68.492" y="523.934"/><use xlink:href="#A" x="75.684" y="523.934"/><use xlink:href="#p" x="82.875" y="523.934"/><use xlink:href="#r" x="84.952" y="523.934"/><use xlink:href="#Q" x="92.144" y="523.934"/><use xlink:href="#O" x="99.335" y="523.934"/><use xlink:href="#u" x="106.526" y="523.934"/><use xlink:href="#z" x="113.717" y="523.934"/><use xlink:href="#u" x="120.909" y="523.934"/><use xlink:href="#p" x="128.1" y="523.934"/><use xlink:href="#s" x="130.177" y="523.934"/><use xlink:href="#P" x="137.369" y="523.934"/><use xlink:href="#O" x="144.56" y="523.934"/><use xlink:href="#u" x="151.751" y="523.934"/><use xlink:href="#X" x="158.942" y="523.934"/><use xlink:href="#p" x="166.134" y="523.934"/><use xlink:href="#A" x="168.211" y="523.934"/><use xlink:href="#C" x="175.402" y="523.934"/></g><g><use xlink:href="#o" x="42.468" y="538.916"/><use xlink:href="#p" x="44.841" y="538.916"/><use xlink:href="#au" x="46.919" y="538.916"/><use xlink:href="#av" x="54.11" y="538.916"/><use xlink:href="#aw" x="61.301" y="538.916"/><use xlink:href="#ax" x="68.492" y="538.916"/><use xlink:href="#ay" x="75.684" y="538.916"/><use xlink:href="#az" x="82.875" y="538.916"/><use xlink:href="#p" x="90.066" y="538.916"/><use xlink:href="#aA" x="92.144" y="538.916"/><use xlink:href="#p" x="99.335" y="538.916"/><use xlink:href="#aB" x="101.412" y="538.916"/><use xlink:href="#L" x="108.604" y="538.916"/><use xlink:href="#p" x="115.795" y="538.916"/><use xlink:href="#Q" x="117.872" y="538.916"/><use xlink:href="#R" x="125.064" y="538.916"/><use xlink:href="#aC" x="132.255" y="538.916"/><use xlink:href="#p" x="139.446" y="538.916"/><use xlink:href="#aC" x="141.524" y="538.916"/><use xlink:href="#Y" x="148.715" y="538.916"/></g><g><use xlink:href="#aD" x="419.726" y="492.732"/><use xlink:href="#aE" x="428.715" y="492.732"/><use xlink:href="#aF" x="437.704" y="492.732"/><use xlink:href="#aG" x="446.693" y="492.732"/></g><g><use xlink:href="#o" x="419.726" y="508.953"/><use xlink:href="#p" x="422.099" y="508.953"/><use xlink:href="#aH" x="424.176" y="508.953"/><use xlink:href="#aI" x="431.368" y="508.953"/><use xlink:href="#u" x="438.559" y="508.953"/><use xlink:href="#p" x="445.75" y="508.953"/><use xlink:href="#v" x="447.828" y="508.953"/><use xlink:href="#w" x="455.019" y="508.953"/></g><g><use xlink:href="#o" x="419.726" y="523.934"/><use xlink:href="#p" x="422.099" y="523.934"/><use xlink:href="#aJ" x="424.176" y="523.934"/><use xlink:href="#p" x="432.007" y="523.934"/><use xlink:href="#aK" x="434.084" y="523.934"/><use xlink:href="#aL" x="441.276" y="523.934"/><use xlink:href="#aK" x="448.467" y="523.934"/><use xlink:href="#aM" x="455.658" y="523.934"/><use xlink:href="#aN" x="462.849" y="523.934"/><use xlink:href="#aw" x="465.198" y="523.934"/><use xlink:href="#aO" x="472.39" y="523.934"/><use xlink:href="#aP" x="479.581" y="523.934"/><use xlink:href="#p" x="481.93" y="523.934"/><use xlink:href="#aQ" x="484.008" y="523.934"/><use xlink:href="#aR" x="491.199" y="523.934"/><use xlink:href="#p" x="498.39" y="523.934"/><use xlink:href="#am" x="500.468" y="523.934"/><use xlink:href="#an" x="507.659" y="523.934"/></g><g><use xlink:href="#aS" x="231.097" y="492.732"/><use xlink:href="#aT" x="240.086" y="492.732"/><use xlink:href="#aU" x="249.075" y="492.732"/></g><g><use xlink:href="#p" x="231.097" y="508.953"/><use xlink:href="#o" x="233.174" y="508.953"/><use xlink:href="#p" x="235.548" y="508.953"/><use xlink:href="#C" x="237.625" y="508.953"/><use xlink:href="#H" x="244.816" y="508.953"/><use xlink:href="#u" x="252.007" y="508.953"/><use xlink:href="#p" x="259.199" y="508.953"/><use xlink:href="#v" x="261.276" y="508.953"/><use xlink:href="#w" x="268.467" y="508.953"/></g><g><use xlink:href="#p" x="231.097" y="523.934"/><use xlink:href="#o" x="233.174" y="523.934"/><use xlink:href="#p" x="235.548" y="523.934"/><use xlink:href="#G" x="237.625" y="523.934"/><use xlink:href="#aV" x="244.816" y="523.934"/><use xlink:href="#aW" x="252.007" y="523.934"/><use xlink:href="#r" x="259.199" y="523.934"/><use xlink:href="#z" x="266.39" y="523.934"/><use xlink:href="#u" x="273.581" y="523.934"/><use xlink:href="#A" x="280.773" y="523.934"/><use xlink:href="#p" x="287.964" y="523.934"/><use xlink:href="#r" x="290.041" y="523.934"/><use xlink:href="#Q" x="297.232" y="523.934"/><use xlink:href="#O" x="304.424" y="523.934"/><use xlink:href="#u" x="311.615" y="523.934"/><use xlink:href="#z" x="318.806" y="523.934"/><use xlink:href="#u" x="325.998" y="523.934"/><use xlink:href="#p" x="333.189" y="523.934"/><use xlink:href="#s" x="335.266" y="523.934"/><use xlink:href="#P" x="342.457" y="523.934"/><use xlink:href="#O" x="349.649" y="523.934"/><use xlink:href="#u" x="356.84" y="523.934"/><use xlink:href="#O" x="364.031" y="523.934"/><use xlink:href="#p" x="371.223" y="523.934"/><use xlink:href="#A" x="373.3" y="523.934"/><use xlink:href="#C" x="380.491" y="523.934"/></g></svg>