<svg xmlns="http://www.w3.org/2000/svg" xmlns:xlink="http://www.w3.org/1999/xlink" width="793.701" height="1122.52" viewBox="0 0 595.276 841.89" version="1.2"><defs><symbol overflow="visible" id="a"><path d="M1.89-4.531H.985l.438-.75h1.266V0H1.89zm0 0"/></symbol><symbol overflow="visible" id="b"><path d="M1.219-2.75A1.28 1.28 0 0 1 .64-3.86c0-.425.144-.785.437-1.078.29-.277.66-.421 1.11-.421.433 0 .8.144 1.093.421.29.282.438.645.438 1.079 0 .46-.196.832-.578 1.109.207.117.375.285.5.5.113.219.171.465.171.734 0 .47-.152.856-.453 1.157-.304.293-.695.437-1.171.437-.493 0-.895-.144-1.204-.437C.66-.66.5-1.04.5-1.5c0-.59.238-1.008.719-1.25zm.172-1.11a.778.778 0 0 0 .78.797.773.773 0 0 0 .563-.234.776.776 0 0 0 0-1.11.79.79 0 0 0-1.125 0 .742.742 0 0 0-.218.548zM1.28-1.53c0 .25.082.46.25.625a.84.84 0 0 0 .625.265.883.883 0 0 0 .625-.25.887.887 0 0 0 .25-.625.835.835 0 0 0-.265-.625.844.844 0 0 0-.61-.25.831.831 0 0 0-.61.25.8.8 0 0 0-.265.61zm0 0"/></symbol><symbol overflow="visible" id="d"><path d="M.64 0H1v-4.375H.64zm0 0"/></symbol><symbol overflow="visible" id="e"><path d="M.75-.156c.156 0 .313-.11.313-.313A.317.317 0 0 0 .75-.797a.317.317 0 0 0-.313.328c0 .203.157.313.313.313zm0 0"/></symbol><symbol overflow="visible" id="g"><path d="M.75-1.781c.703-.157 1.688-.719 2-1.516.328.781 1.313 1.344 2.031 1.5l.14-.25c-.765-.14-2-.875-2-1.797v-.265h1.845v-.266H.734v.266h1.86v.265c0 .922-1.235 1.672-2 1.813zM2.922-.578v-1.36h-.328v1.36H.344v.265h4.828v-.265zm0 0"/></symbol><symbol overflow="visible" id="h"><path d="M3.563-2.203c-.75-.25-1.407-.906-1.407-1.672v-.36h1.297V-4.5H.531v.266h1.313v.359c0 .813-.657 1.5-1.407 1.781l.172.25c.625-.25 1.172-.75 1.391-1.422.219.625.781 1.094 1.406 1.313zM1.155-1.11H4.36V.42h.313v-1.796H1.156zM4.36-4.906v3.218h.313v-3.218zm0 0"/></symbol><symbol overflow="visible" id="i"><path d="M1.016-7.813v1.047h2.843C3.672-5.546 2.516-4.546.484-4.03L.984-3c2.735-.703 4.282-2.36 4.282-4.813zM3.28-1.78h3.485v1.5H3.28zM1.984.75h6.079v-3.578H1.984zm4.75-9.078v5.11h1.329v-5.11zm0 0"/></symbol><symbol overflow="visible" id="j"><path d="M8.063-8.344H6.734v6.656h1.329zM6.155-3.828C4.672-4.328 4-5.453 4-6.531v-.11h1.828v-1.03H.812v1.03h1.86v.11c0 1.156-.672 2.36-2.203 2.843l.672 1.016c1.062-.344 1.812-1.047 2.218-1.953.422.828 1.11 1.484 2.125 1.797zM3.266-.344V-2.28H1.953V.703h6.344V-.344zm0 0"/></symbol><symbol overflow="visible" id="k"><path d="M5.922-4.172c-1.453-.484-2.063-1.594-2.063-2.75v-.953H2.531V-7c0 1.25-.64 2.469-2.156 2.969L1.063-3c1.03-.36 1.75-1.063 2.14-1.953.39.812 1.047 1.453 2.031 1.797zM1.844-1.406h4.953V.875h1.328v-3.328H1.844zm4.953-6.938v1.719H5.125v1.078h1.672v2.688h1.328v-5.485zm0 0"/></symbol><symbol overflow="visible" id="R"><path d="M1.234-4.516c1.735-.171 2.86-.812 3.344-1.687.484.875 1.625 1.516 3.344 1.687l.469-1.03c-1.72-.141-2.625-.75-2.844-1.36h2.437v-1.047H1.188v1.047h2.437c-.234.61-1.125 1.218-2.844 1.36zM4.563-.125c-1.235 0-1.86-.188-1.86-.64 0-.438.625-.626 1.86-.626 1.234 0 1.859.188 1.859.625 0 .454-.625.641-1.86.641zm0-2.266c-2 0-3.188.594-3.188 1.625C1.375.281 2.563.875 4.563.875S7.765.281 7.765-.765c0-1.032-1.204-1.626-3.204-1.626zm.671-1.546v-1.11H3.906v1.11H.422v1.046h8.312v-1.046zm0 0"/></symbol><symbol overflow="visible" id="S"><path d="M8.094-8.328H6.766v4.703h1.328zM2.813-6.766h.968v1.86c-.312.031-.64.031-.969.047zm3.312 1.688c-.36.047-.703.078-1.078.11v-1.798h.719V-7.78H.812v1.015h.735v1.922l-.953.016.125 1.047c1.594-.016 3.656-.063 5.468-.36zM3.187-.234v-.547h4.907V-3.25H1.859v1h4.922v.531H1.875v2.5h6.469V-.234zm0 0"/></symbol><symbol overflow="visible" id="ag"><path d="M3.797-4.328H2v-1.203h1.797zM5.109-7.75H3.797v1.203H2V-7.75H.703v4.469H5.11zM1.531-1.375h4.813v2.25h1.328v-3.297h-6.14zm7.36-4.719H7.67v-2.25H6.345v5.516h1.328v-2.188H8.89zm0 0"/></symbol><symbol overflow="visible" id="ah"><path d="M6.797-5.828v.844H4.766v1.062h2.03v.875h1.329v-5.297H6.797v1.469h-1.64c.03-.281.062-.547.062-.844H1v1.063h2.781C3.61-5.406 2.594-4.422.5-3.86l.516 1.03c2.015-.562 3.312-1.562 3.875-3zM5.078-.203c-1.14 0-1.797-.297-1.797-.86 0-.562.656-.843 1.797-.843 1.125 0 1.797.281 1.797.843 0 .563-.672.86-1.797.86zm0-2.719c-1.875 0-3.094.719-3.094 1.86C1.984.093 3.204.813 5.078.813c1.875 0 3.094-.72 3.094-1.875 0-1.141-1.219-1.86-3.094-1.86zm0 0"/></symbol><symbol overflow="visible" id="ai"><path d="M4.578-6.984c1.188 0 1.969.359 1.969 1.03 0 .657-.781 1.016-1.969 1.016-1.219 0-1.984-.359-1.984-1.015 0-.672.765-1.031 1.984-1.031zm0 3.093c1.953 0 3.313-.796 3.313-2.062 0-1.25-1.36-2.078-3.313-2.078-1.969 0-3.328.828-3.328 2.078 0 1.266 1.36 2.062 3.328 2.062zm4.172.704H.422v1.046h3.484V.875H5.22v-3.016H8.75zm0 0"/></symbol><symbol overflow="visible" id="aD"><path d="M5.422-6.125v1.078h1.375v2.188h1.328v-5.485H6.797v2.219zm.547 1.984c-1.39-.468-2.032-1.546-2.078-2.593h1.796v-1.047H.734v1.047h1.813C2.5-5.578 1.844-4.406.375-3.906l.672 1.047c1.062-.36 1.797-1.11 2.203-2.047.39.812 1.078 1.468 2.078 1.797zM5.016-.125c-1.22 0-1.844-.25-1.844-.781 0-.516.625-.766 1.844-.766 1.187 0 1.828.25 1.828.766 0 .531-.64.781-1.828.781zm0-2.547c-1.954 0-3.157.656-3.157 1.766C1.86.219 3.063.875 5.016.875c1.937 0 3.14-.656 3.14-1.781 0-1.11-1.203-1.766-3.14-1.766zm0 0"/></symbol><symbol overflow="visible" id="aE"><path d="M5.938-4.11c-1.47-.374-2.11-1.312-2.141-2.234h1.828v-1.031H3.797v-.984H2.484v.984H.688v1.031h1.796C2.47-5.312 1.828-4.28.36-3.875l.625 1.031c1.063-.312 1.797-.969 2.188-1.797.422.72 1.125 1.282 2.156 1.563zM4.655-.155C3.47-.156 2.86-.375 2.86-.875s.61-.734 1.797-.734c1.188 0 1.797.234 1.797.734s-.61.719-1.797.719zm0-2.469c-1.922 0-3.11.64-3.11 1.75C1.547.219 2.735.859 4.657.859s3.11-.64 3.11-1.734c0-1.11-1.188-1.75-3.11-1.75zm3.016-3.563v-2.156H6.344v5.547h1.328v-2.312H8.89v-1.079zm0 0"/></symbol><symbol overflow="visible" id="aF"><path d="M4.578-7.125c1.266 0 1.984.266 1.984.797s-.718.797-1.984.797c-1.25 0-1.969-.266-1.969-.797s.72-.797 1.97-.797zm0 2.61c2.031 0 3.344-.688 3.344-1.813S6.609-8.141 4.578-8.141c-2.016 0-3.312.688-3.312 1.813s1.296 1.812 3.312 1.812zM8.734-2.97v-1.047H.422v1.047h3.484v.797H1.344v1.031h5.078V.875h1.312v-3.047h-2.5v-.797zm0 0"/></symbol><symbol overflow="visible" id="aV"><path d="M8.75-3.89H7.531c.235-1.297.235-2.235.235-3.094v-.829H1.39v1.063h5.093c0 .797-.03 1.688-.25 2.86H.438v1.062h3.437V.859h1.344v-3.687H8.75zm0 0"/></symbol><symbol overflow="visible" id="aW"><path d="M2.75-1.89H1.437V.702h6.375V-.344H2.75zm.047-4.204h3.578v.797H2.797zm2.437 2.61v-.766h2.454V-8H6.375v.89H2.797V-8H1.484v3.75h2.422v.766H.422v1.046H8.75v-1.046zm0 0"/></symbol><symbol overflow="visible" id="aX"><path d="M5.14-3.438v1.016h1.782v1h1.312v-6.922H6.922v4.906zM2.939-.344v-1.64h1.156v-1.97a22.208 22.208 0 0 0 2.281-.296l-.094-.922c-.281.047-.562.078-.86.11.157-1.157.157-2 .157-2.5v-.313H1.203v1.047h3.063a17.01 17.01 0 0 1-.172 1.86c-1.344.093-2.657.093-3.735.093l.157 1.047c.687 0 1.453 0 2.265-.047v1.766H1.625V.703h6.813V-.344zm0 0"/></symbol><symbol overflow="visible" id="bb"><path d="M8.063-8.344H6.734v6.547h1.329zm-4 4.14H2.188v-2.359h1.874zm1.296-3.405H.891v4.437h4.468zM3.266-.391v-1.984H1.953V.672h6.344V-.391zm0 0"/></symbol><symbol overflow="visible" id="bd"><path d="M3.984-6.375h1.891v-1.078H.735v1.078H2.64v.516c0 1.562-.75 3.25-2.282 3.937l.75 1.047c1.079-.484 1.813-1.484 2.22-2.688.421 1.11 1.14 2 2.218 2.47l.719-1.048c-1.547-.64-2.282-2.218-2.282-3.718zm2.75-1.969V.86h1.313v-9.203zm0 0"/></symbol><symbol overflow="visible" id="be"><path d="M1.797-5.594c0-.718.484-1.14 1.172-1.14.672 0 1.172.421 1.172 1.14 0 .719-.5 1.14-1.172 1.14-.688 0-1.172-.421-1.172-1.14zm5-.5v1H5.328c.047-.172.063-.328.063-.5s-.016-.343-.047-.5zm0 2.047v1.094h1.328v-5.39H6.797v1.202H4.766c-.438-.437-1.063-.703-1.797-.703-1.36 0-2.422.938-2.422 2.25 0 1.297 1.062 2.25 2.422 2.25.719 0 1.344-.265 1.781-.703zM5-.157c-1.203 0-1.844-.25-1.844-.796 0-.531.64-.797 1.844-.797 1.203 0 1.86.266 1.86.797 0 .547-.657.797-1.86.797zm0-2.609c-1.938 0-3.14.672-3.14 1.813C1.86.187 3.061.875 5 .875c1.953 0 3.156-.688 3.156-1.828 0-1.14-1.203-1.813-3.156-1.813zm0 0"/></symbol><symbol overflow="visible" id="bm"><path d="M.781-7.734v1.046h2.906C3.5-5.438 2.36-4.39.36-3.858l.532 1.062c2.718-.75 4.25-2.469 4.25-4.937zM4.687-.156c-1.125 0-1.796-.297-1.796-.86 0-.578.671-.859 1.796-.859 1.11 0 1.782.281 1.782.86 0 .562-.672.859-1.782.859zm0-2.75c-1.859 0-3.093.734-3.093 1.89C1.594.141 2.828.875 4.687.875c1.86 0 3.079-.734 3.079-1.89 0-1.157-1.22-1.891-3.079-1.891zm2.985-3.281v-2.157H6.344v5.313h1.328V-5.11H8.89v-1.079zm0 0"/></symbol><symbol overflow="visible" id="bn"><path d="M6.797-1.328h1.328v-7.016H6.797v2.297H5.594V-5h1.203v.922H5.594v1.047h1.203zM5.5-7.375H3.703v-.984H2.391v.984H.453v1.031H5.5zM2.125-4.219c0-.5.375-.781.922-.781.531 0 .906.281.906.781 0 .532-.375.797-.906.797-.547 0-.922-.265-.922-.797zm3.063 0c0-1.047-.891-1.797-2.141-1.797-1.266 0-2.156.75-2.156 1.797 0 1.078.89 1.828 2.156 1.828 1.25 0 2.14-.75 2.14-1.828zM3.359-.344V-1.89H2.047V.703h6.265V-.344zm0 0"/></symbol><symbol overflow="visible" id="bo"><path d="M7.14-8.344v3.516h-.75v-3.375H5.157v5.953c-1.36-.703-1.812-2.234-1.812-3.844v-.25h1.375v-1.062H.562v1.062h1.5v.25c0 1.766-.437 3.39-1.796 4.203l.78.985c.86-.5 1.407-1.375 1.704-2.422.328.906.86 1.656 1.672 2.094l.734-.985V.437h1.235V-3.75h.75V.844h1.25v-9.188zm0 0"/></symbol><symbol overflow="visible" id="bw"><path d="M6.734-8.344V.875h1.313v-9.219zm-3.625.64C1.72-7.703.688-6.437.688-4.421c0 2.031 1.03 3.297 2.421 3.297 1.391 0 2.407-1.266 2.407-3.297 0-2.016-1.016-3.281-2.407-3.281zm0 1.188c.672 0 1.141.735 1.141 2.094 0 1.36-.469 2.094-1.14 2.094-.688 0-1.157-.735-1.157-2.094 0-1.36.469-2.094 1.156-2.094zm0 0"/></symbol><symbol overflow="visible" id="bx"><path d="M3.813-7.625H2.484v1.328c0 1.719-.703 3.469-2.25 4.203l.797 1.063c1.032-.5 1.719-1.469 2.125-2.64.375 1.093 1.031 1.983 1.985 2.468l.796-1.031C4.47-2.97 3.813-4.625 3.813-6.297zm5.156 2.828H7.625v-3.547H6.312V.86h1.313v-4.562h1.344zm0 0"/></symbol><symbol overflow="visible" id="by"><path d="M5.719-4.531c-1.14.203-2.157.265-3.657.281v-.828h2.876v-2.797H.75v1.047h2.89v.766H.767v2.875h.78c1.845 0 3-.047 4.282-.282zm-2.75 3.078h3.406v1.172H2.969zM1.672.766h6v-3.25h-6zM8.89-6.172H7.67v-2.172H6.345v5.485h1.328v-2.235H8.89zm0 0"/></symbol><symbol overflow="visible" id="u"><path d="M1.266-1.344c.468 0 .906-.375.906-.984 0-.61-.438-1-.906-1-.47 0-.922.39-.922 1s.453.984.922.984zm0 0"/></symbol><symbol overflow="visible" id="v"><path d="M1.047-4.453c0-.734.594-1.281 1.39-1.281.797 0 1.391.546 1.391 1.28 0 .735-.594 1.282-1.39 1.282-.797 0-1.391-.547-1.391-1.281zm3.187 0c0-.984-.75-1.64-1.796-1.64-1.063 0-1.797.655-1.797 1.64 0 .984.734 1.64 1.796 1.64 1.047 0 1.797-.656 1.797-1.64zM1.375-1.578H5.5v2.14h.422v-2.5H1.375zM7.015-5v-.36H5.923v-1.187H5.5v4.234h.422v-1.171h1.094v-.36H5.922V-5zm0 0"/></symbol><symbol overflow="visible" id="w"><path d="M4.672-5.703H2.797v-.875h-.422v.875H.485v.344h4.187zM1.297-3.641c0-.546.531-.921 1.281-.921.766 0 1.266.375 1.266.921 0 .547-.5.922-1.266.922-.75 0-1.281-.375-1.281-.922zm2.953 0c0-.78-.672-1.25-1.672-1.25-1 0-1.672.47-1.672 1.25 0 .782.672 1.266 1.672 1.266 1 0 1.672-.484 1.672-1.266zM1.375-1.312H5.5V.546h.422v-2.219H1.375zM7.031-4.5h-1.11v-2.047H5.5v4.438h.422v-2.032h1.11zm0 0"/></symbol><symbol overflow="visible" id="x"><path d="M3.594-3.14H1.219v-1.391h2.375zm.422-2.954h-.422v1.219H1.219v-1.219H.797v3.297h3.219zM1.375-1.469H5.5V.563h.422v-2.391H1.375zm5.656-3.156h-1.11v-1.906H5.5v4.281h.422v-2h1.11zm0 0"/></symbol><symbol overflow="visible" id="y"><path d="M2.688-5.89H2.28v1.421c0 1.282-.969 2.64-1.89 3.14l.25.345c.78-.438 1.546-1.407 1.843-2.5.313 1.03 1.079 1.921 1.844 2.343l.266-.328c-.922-.484-1.907-1.765-1.907-3zm4.406 2.312h-1.25v-2.969h-.422v7.11h.422V-3.22h1.25zm0 0"/></symbol><symbol overflow="visible" id="z"><path d="M6.453-4.125c-1.047-.156-2.578-.938-2.578-1.938v-.375h-.438v.375c0 1.016-1.515 1.782-2.578 1.938l.157.344c1-.188 2.218-.766 2.64-1.64.438.859 1.656 1.452 2.64 1.64zM6.86-2.75v-.36H.453v.36h2.985v1.031H1.171v.36H5.64V.562h.421v-2.28H3.86V-2.75zm0 0"/></symbol><symbol overflow="visible" id="A"><path d="M3.547-3.234H1.219v-2.391h2.328zm2.25-1.72v1.048H3.969v-1.047zM3.969-3.546h1.828v1.235h.437v-4.22h-.437v1.22H3.969v-.672H.813v3.093h3.156zM3.938.188c-1.157 0-1.907-.36-1.907-.97 0-.577.75-.952 1.906-.952 1.157 0 1.907.375 1.907.953 0 .61-.75.969-1.907.969zm0-2.266c-1.438 0-2.329.469-2.329 1.297C1.61.063 2.5.53 3.938.53 5.375.531 6.265.062 6.265-.78c0-.828-.891-1.297-2.329-1.297zm0 0"/></symbol><symbol overflow="visible" id="B"><path d="M3.938-2.61a3.98 3.98 0 0 0-.016-1.906h1.875v1.907zM2.312-1.452c-.78 0-1.328-.86-1.328-2.063 0-1.218.547-2.062 1.329-2.062.78 0 1.328.844 1.328 2.062 0 1.204-.547 2.063-1.329 2.063zm3.485-5.078v1.656h-2c-.297-.672-.813-1.078-1.485-1.078C1.298-5.953.595-5 .595-3.516c0 1.485.703 2.438 1.719 2.438.687 0 1.218-.438 1.515-1.172h1.969V.563h.437v-7.094zm0 0"/></symbol><symbol overflow="visible" id="C"><path d="M2.719-5.406H4.39v-.375H.594v.375h1.703v1.187C2.297-3 1.28-1.64.359-1.172l.266.344c.766-.422 1.578-1.39 1.875-2.469.313 1 1.078 1.89 1.844 2.297l.25-.344c-.922-.453-1.875-1.718-1.875-2.875zm4.375 1.828h-1.25v-2.953h-.422V.562h.422v-3.78h1.25zm0 0"/></symbol><symbol overflow="visible" id="D"><path d="M1.156-1.656v-3.625h2.235v-.375H.75v4.375h.438c1.156 0 1.843-.047 2.687-.235l-.063-.359c-.796.188-1.484.219-2.64.219zm4.86-4.875v2.922h-1.22v-2.75h-.405V.17h.406V-3.25h1.219V.547h.421v-7.078zm0 0"/></symbol><symbol overflow="visible" id="E"><path d="M5.594-4.922c0 .906 0 1.813-.266 3.016l.422.047C6-3.094 6-3.984 6-4.922v-.828H1.14v.36h4.454zM4.328-.89v-2.406h-.406V-.89H2.594v-2.406h-.422V-.89H.453v.36H6.86v-.36zm0 0"/></symbol><symbol overflow="visible" id="F"><path d="M6.484-3.734c-1.062-.172-2.609-1-2.609-2.094v-.438h-.438v.438c0 1.125-1.515 1.922-2.609 2.094l.188.359c1-.188 2.218-.813 2.656-1.75.422.922 1.656 1.563 2.64 1.75zm.375 1.28H.453v.36h2.985v2.64h.421v-2.64h3zm0 0"/></symbol><symbol overflow="visible" id="G"><path d="M4.688-3.063c-.985-.374-1.86-1.328-1.86-2.437v-.703h-.422v.703c0 1.156-.844 2.188-1.844 2.578l.235.344a3.39 3.39 0 0 0 1.828-2.016c.313.875 1.031 1.547 1.844 1.875zM1.546-1.5h4.25V.547h.422V-1.86H1.547zm4.25-5.047v4.297h.422v-4.297zm0 0"/></symbol><symbol overflow="visible" id="H"><path d="M4.625-4.188H2.656v-1.75h1.969zm-2.375 0H1.078v.344h5.14v-.344H5.048v-1.75h1.187v-.359H1.063v.36H2.25zM5.656.095H1.672V-1.36h3.984zM6.86-2.687v-.36H.453v.36h3v.984H1.266V.453h4.796v-2.156H3.86v-.984zm0 0"/></symbol><symbol overflow="visible" id="I"><path d="M2.766-5.984c-1.11 0-1.875.656-1.875 1.609 0 .969.765 1.625 1.875 1.625 1.093 0 1.859-.656 1.859-1.625 0-.953-.766-1.61-1.86-1.61zm0 .359c.843 0 1.453.531 1.453 1.25 0 .734-.61 1.266-1.453 1.266-.844 0-1.47-.532-1.47-1.266 0-.719.626-1.25 1.47-1.25zm2.953-.906V.562h.422V-6.53zM.562-1.063c1.297 0 3.063 0 4.688-.296l-.031-.329c-1.578.25-3.39.25-4.719.25zm0 0"/></symbol><symbol overflow="visible" id="J"><path d="M1.047-4.297c0-.766.594-1.344 1.39-1.344.782 0 1.391.579 1.391 1.344 0 .766-.61 1.344-1.39 1.344-.797 0-1.391-.578-1.391-1.344zm3.187 0c0-1.016-.765-1.719-1.796-1.719-1.047 0-1.797.704-1.797 1.72 0 1 .75 1.718 1.796 1.718 1.032 0 1.797-.719 1.797-1.719zM2.016-1.813h-.422V.392h4.672V.03h-4.25zm3.906-2.5v-2.234H5.5v5.266h.422v-2.657h1.11v-.374zm0 0"/></symbol><symbol overflow="visible" id="K"><path d="M4.203-4.5v.36h1.594v2.827h.437V-6.53h-.437V-4.5zm.375 1.688c-.969-.36-1.797-1.25-1.797-2.22v-.515h1.672v-.36H.672v.36h1.703v.531C2.375-3.953 1.5-3 .515-2.64l.235.344c.828-.328 1.547-1.031 1.844-1.922.281.797.969 1.438 1.765 1.75zM2.218.03V-1.78h-.421V.39h4.64V.03zm0 0"/></symbol><symbol overflow="visible" id="L"><path d="M2.781-4.906h1.672v-.36H2.781v-1.156H2.36v1.156H.672v.36h1.703v.718c0 1.313-.89 2.532-1.875 3l.266.344c.796-.422 1.515-1.297 1.812-2.375.297 1.016 1.047 1.844 1.844 2.235l.25-.329c-.969-.453-1.89-1.625-1.89-2.875zm3.016-1.625v2.906H4.109v.375h1.688V.563h.422v-7.094zm0 0"/></symbol><symbol overflow="visible" id="M"><path d="M1.016-3.688c1.046-.156 2.265-.671 2.64-1.515.39.844 1.61 1.36 2.64 1.516l.157-.344c-1.094-.14-2.547-.782-2.547-1.735v-.078h2.375v-.343H1.047v.343h2.375v.078c0 .954-1.453 1.594-2.563 1.735zm4.625 3c0 .547-.766.891-1.97.891-1.233 0-2-.344-2-.89 0-.547.766-.875 2-.875 1.204 0 1.97.328 1.97.875zm1.218-2.125v-.343H.453v.344h2.985v.906C2.062-1.86 1.25-1.438 1.25-.688c0 .797.89 1.22 2.406 1.22S6.062.108 6.062-.689c0-.75-.812-1.187-2.203-1.218v-.907zm0 0"/></symbol><symbol overflow="visible" id="N"><path d="M1.047-4.453c0-.75.594-1.281 1.39-1.281.797 0 1.391.53 1.391 1.28 0 .735-.594 1.282-1.39 1.282-.797 0-1.391-.547-1.391-1.281zm3.187 0c0-.969-.75-1.64-1.796-1.64-1.063 0-1.797.671-1.797 1.64 0 .984.734 1.64 1.796 1.64 1.047 0 1.797-.656 1.797-1.64zM3.688.187c-1.141 0-1.876-.359-1.876-.937 0-.578.735-.938 1.875-.938 1.141 0 1.876.36 1.876.938s-.735.938-1.875.938zm0-2.218c-1.422 0-2.297.469-2.297 1.281 0 .828.875 1.281 2.296 1.281C5.11.531 5.97.078 5.97-.75c0-.813-.86-1.281-2.282-1.281zm2.234-2.625v-1.89H5.5v4.25h.422v-2h1.11v-.36zm0 0"/></symbol><symbol overflow="visible" id="O"><path d="M4.703-3.172c-.984-.36-1.875-1.297-1.875-2.39v-.688h-.422v.688c0 1.14-.86 2.125-1.844 2.515l.22.344c.827-.344 1.562-1.063 1.843-1.969.313.844 1.047 1.516 1.86 1.828zM2.125-1.687h3.672v1.78H2.125zM1.719.453h4.5V-2.03h-4.5zM5.797-6.53v4.047h.422v-4.047zm0 0"/></symbol><symbol overflow="visible" id="P"><path d="M2.781-5.813c.797 0 1.375.454 1.375 1.063 0 .61-.578 1.063-1.375 1.063s-1.36-.454-1.36-1.063c0-.61.563-1.063 1.36-1.063zm0 2.485c1.047 0 1.781-.563 1.781-1.422 0-.844-.734-1.422-1.78-1.422-1.048 0-1.766.578-1.766 1.422 0 .86.718 1.422 1.765 1.422zm2.422.453c-1.594.234-3.422.25-4.781.25l.062.375c.641 0 1.36 0 2.125-.031v2.61h.422v-2.642c.735-.03 1.485-.109 2.203-.234zm.563-3.64V.561h.421v-7.078zm0 0"/></symbol><symbol overflow="visible" id="Q"><path d="M4.219-2.297v.328h1.515v.844h.422v-5.39h-.422v4.218zM2.734-5.89c.782 0 1.329.36 1.329.891s-.547.89-1.329.89c-.78 0-1.328-.359-1.328-.89s.547-.89 1.328-.89zm0 2.11c1.032 0 1.72-.469 1.72-1.219 0-.75-.688-1.219-1.72-1.219C1.688-6.219 1-5.75 1-5c0 .75.688 1.219 1.734 1.219zm-.156 2.375H3V-2.86c.688-.032 1.39-.094 2.063-.204l-.047-.312c-1.516.188-3.297.203-4.61.203l.063.375c.625 0 1.328 0 2.11-.031zM1.906.03v-1.687h-.422V.39h4.86V.03zm0 0"/></symbol><symbol overflow="visible" id="U"><path d="M6.219-6.516h-.422v5.204h.422zM4.672-2.844c-.984-.39-1.844-1.406-1.844-2.547v-.734h-.422v.734c0 1.188-.828 2.25-1.828 2.672l.25.344c.813-.36 1.516-1.125 1.797-2.094a3.236 3.236 0 0 0 1.828 1.953zM2.188.031V-1.78h-.422V.39h4.687V.03zm0 0"/></symbol><symbol overflow="visible" id="V"><path d="M5.797-4.766v1.125H3.766v.36h2.03v1.094h.438v-4.329h-.437v1.391H3.969c.078-.25.125-.547.125-.844H.922v.36H3.64C3.516-4.22 2.297-3.172.562-2.625l.204.344C2.25-2.75 3.375-3.594 3.844-4.766zM3.953.188c-1.156 0-1.906-.391-1.906-.985s.75-.969 1.906-.969c1.14 0 1.906.375 1.906.97 0 .593-.765.984-1.906.984zm0-2.297c-1.437 0-2.328.484-2.328 1.312 0 .844.89 1.328 2.328 1.328 1.422 0 2.313-.484 2.313-1.328 0-.828-.891-1.312-2.313-1.312zm0 0"/></symbol><symbol overflow="visible" id="W"><path d="M2.438-5.844h-.391v1.453c0 1.235-.719 2.5-1.64 3.032l.265.328C1.406-1.484 2-2.36 2.25-3.36c.25.921.828 1.75 1.516 2.171l.28-.328c-.921-.53-1.609-1.765-1.609-2.875zm2.14 1.953H3.25v.36h1.328V.188h.406V-6.36h-.406zm1.453-2.64V.562h.407V-6.53zm0 0"/></symbol><symbol overflow="visible" id="X"><path d="M2.656-5.438h1.969v2.5H2.656zM3.86-.734v-1.844h2.375v-.36H5.047v-2.5h1.187v-.359H1.047v.36H2.25v2.5H1.062v.359h2.375v1.844H.454v.359h6.438v-.36zm0 0"/></symbol><symbol overflow="visible" id="Y"><path d="M3.656.203c-1.219 0-1.984-.344-1.984-.922 0-.578.766-.922 1.984-.922 1.219 0 1.985.344 1.985.922 0 .578-.766.922-1.985.922zm0-2.187c-1.5 0-2.406.453-2.406 1.265 0 .813.906 1.266 2.406 1.266S6.062.094 6.062-.72c0-.812-.906-1.265-2.406-1.265zm.203-.97v-.937h2.235v-.359H1.687v-1.594h4.36v-.36H1.28v2.313h2.157v.938H.453v.36H6.86v-.36zm0 0"/></symbol><symbol overflow="visible" id="Z"><path d="M6.89-3.234v-.36H5.814C6-4.484 6-5.156 6-5.688v-.5H1.281v.36h4.313v.14c0 .532 0 1.188-.219 2.094H.453v.36h3v1.484H1.141v.36h4.515V.561h.422V-1.75H3.875v-1.484zm0 0"/></symbol><symbol overflow="visible" id="aa"><path d="M2.438-5.266h1.437v-.359H.547v.36h1.5v.765c0 1.469-.656 2.656-1.64 3.203l.28.328c.782-.453 1.329-1.265 1.579-2.344.234.954.78 1.688 1.5 2.094l.265-.328c-.968-.5-1.593-1.625-1.593-2.953zM6.03-6.53v2.937H4.875v-2.765h-.406V.17h.406v-3.39h1.156V.562h.407V-6.53zm0 0"/></symbol><symbol overflow="visible" id="ab"><path d="M4.86-4.172h1.124v2.047h.407v-4.406h-.407v2H4.86v-1.86h-.406v4.032h.406zm-.876 1.078C3.094-3.438 2.47-4.25 2.47-5.047v-1.047h-.406v1.047c0 .797-.657 1.734-1.547 2.125l.234.328c.719-.312 1.266-.969 1.516-1.672a2.67 2.67 0 0 0 1.5 1.5zM4.11.203c-1.156 0-1.906-.344-1.906-.89 0-.563.75-.907 1.906-.907 1.157 0 1.907.344 1.907.907 0 .546-.75.89-1.907.89zm0-2.14c-1.453 0-2.328.453-2.328 1.25C1.781.093 2.656.53 4.11.53c1.438 0 2.313-.437 2.313-1.219 0-.796-.875-1.25-2.313-1.25zm0 0"/></symbol><symbol overflow="visible" id="ac"><path d="M5.61-5.531c0 .562 0 1.078-.204 1.797l.422.062c.188-.734.188-1.281.188-1.86v-.609H1.234v.36H5.61zM3.64.187c-1.203 0-2.015-.359-2.015-.937 0-.563.813-.938 2.016-.938s2.03.375 2.03.938c0 .578-.827.938-2.03.938zm0-2.218c-1.5 0-2.437.484-2.437 1.281 0 .813.938 1.281 2.438 1.281 1.5 0 2.437-.469 2.437-1.281 0-.797-.937-1.281-2.437-1.281zm.032-1.125v-1.438h-.438v1.438H.47v.36h6.39v-.36zm0 0"/></symbol><symbol overflow="visible" id="ad"><path d="M6.39-6.531h-.406v5.328h.407zM4.61-1.406h.406v-4.969h-.407v1.734H3.344v.36h1.265zm-.673-1.407c-.874-.374-1.484-1.234-1.484-2.078v-1.125h-.39v1.125c0 .844-.657 1.844-1.532 2.266l.25.344c.703-.344 1.235-1.047 1.485-1.797.234.687.75 1.297 1.453 1.61zM2.282.031v-1.906H1.86V.391h4.766V.03zm0 0"/></symbol><symbol overflow="visible" id="ae"><path d="M1.203-1.563v-1.921H3.72v-.36H1.203V-5.5h2.86v-.36H.78v4.657h.531c1.438 0 2.282-.047 3.282-.234l-.032-.36c-1 .188-1.812.234-3.25.234zm4.594-4.984v2.781H4.172v.375h1.625V.563h.437v-7.11zm0 0"/></symbol><symbol overflow="visible" id="af"><path d="M4.5-2.984c-.984-.329-1.781-1.188-1.781-2.157v-.484h1.687v-.344H.625v.344h1.688v.484c0 1.079-.844 2-1.844 2.36l.219.328c.843-.313 1.546-.985 1.843-1.844.281.766.953 1.36 1.75 1.656zM3.687.187c-1.14 0-1.874-.343-1.874-.921 0-.563.734-.907 1.875-.907 1.14 0 1.874.344 1.874.907 0 .578-.734.921-1.875.921zm0-2.171c-1.421 0-2.296.453-2.296 1.25C1.39.078 2.266.53 3.687.53 5.11.531 5.97.078 5.97-.734c0-.797-.86-1.25-2.282-1.25zm2.235-2.641v-1.906H5.5v4.312h.422v-2.047h1.11v-.359zm0 0"/></symbol><symbol overflow="visible" id="aj"><path d="M5.781-6.531V.562h.422V-6.53zm-3.265.578C1.484-5.953.75-5 .75-3.516c0 1.485.734 2.438 1.766 2.438 1.03 0 1.75-.953 1.75-2.438 0-1.484-.72-2.437-1.75-2.437zm0 .375c.796 0 1.343.844 1.343 2.062 0 1.204-.546 2.063-1.343 2.063-.797 0-1.36-.86-1.36-2.063 0-1.218.563-2.062 1.36-2.062zm0 0"/></symbol><symbol overflow="visible" id="ak"><path d="M.563 1.11c.562-.298.953-.829.953-1.516 0-.406-.172-.656-.485-.656-.218 0-.406.125-.406.39 0 .25.188.406.406.406.032 0 .063 0 .094-.015 0 .5-.281.86-.703 1.078zm0 0"/></symbol><symbol overflow="visible" id="al"><path d="M.984-4.453c0-.719.594-1.281 1.391-1.281s1.39.562 1.39 1.28c0 .75-.593 1.298-1.39 1.298-.797 0-1.39-.547-1.39-1.297zm4.813-.656v1.328h-1.75a1.837 1.837 0 0 0 0-1.328zm0 1.687v1.11h.437v-4.235h-.437v1.094H3.828c-.328-.406-.844-.64-1.453-.64-1.047 0-1.797.687-1.797 1.64 0 .984.75 1.672 1.797 1.672.61 0 1.125-.25 1.453-.64zM3.922.188c-1.14 0-1.89-.376-1.89-.985 0-.594.75-.984 1.89-.984 1.172 0 1.922.39 1.922.984 0 .61-.75.985-1.922.985zm0-2.313c-1.438 0-2.313.484-2.313 1.328 0 .844.875 1.328 2.313 1.328 1.453 0 2.344-.484 2.344-1.328 0-.844-.891-1.328-2.344-1.328zm0 0"/></symbol><symbol overflow="visible" id="am"><path d="M4.531-3.063c-.968-.359-1.812-1.28-1.812-2.312v-.813h-.406v.797C2.313-4.234 1.5-3.28.5-2.875l.219.344A3.152 3.152 0 0 0 2.53-4.5c.297.813.985 1.453 1.766 1.781zM1.547-1.577h4.25v2.14h.437v-2.484H1.547zm4.25-4.969v1.594H4.109v.36h1.688v2.234h.437v-4.188zm0 0"/></symbol><symbol overflow="visible" id="an"><path d="M2.813-5.875H2.39v1.406c0 1.297-.97 2.64-1.891 3.157l.266.328c.78-.438 1.546-1.422 1.843-2.532.313 1.063 1.094 1.985 1.875 2.407l.25-.344c-.937-.469-1.921-1.75-1.921-3.016zm2.984-.656v2.515H3.969v.36h1.828V.563h.437v-7.094zm0 0"/></symbol><symbol overflow="visible" id="ao"><path d="M3.656-6.11c1.235 0 2.016.344 2.016.907 0 .562-.781.906-2.016.906-1.234 0-2.015-.344-2.015-.906 0-.563.78-.906 2.015-.906zm0 2.157c1.531 0 2.453-.453 2.453-1.25 0-.797-.921-1.234-2.453-1.234-1.547 0-2.453.437-2.453 1.234 0 .797.906 1.25 2.453 1.25zm3.203.906v-.36H.453v.36h2.985v.781H1.265v.344h4.328v.781H1.266V.453H6.25V.11H1.687v-.921h4.329v-1.454H3.859v-.78zm0 0"/></symbol><symbol overflow="visible" id="ap"><path d="M5.797-4.953v1.11h-1.86v-1.11zM3.53-3.156H1.266V-4.5H3.53zm.406-.328h1.86v1.265h.437V-6.53h-.437v1.218h-1.86v-.78h-.406v1.25H1.266v-1.25H.844v3.296h3.094zm0 3.671c-1.156 0-1.906-.359-1.906-.953 0-.578.75-.937 1.906-.937 1.157 0 1.907.36 1.907.937 0 .594-.75.954-1.907.954zm0-2.234c-1.437 0-2.328.453-2.328 1.281C1.61.078 2.5.531 3.938.531c1.437 0 2.328-.453 2.328-1.297 0-.828-.891-1.28-2.329-1.28zm0 0"/></symbol><symbol overflow="visible" id="aq"><path d="M6.438-3.906c-1.047-.188-2.563-1-2.563-2.031v-.422h-.438v.421c0 1.047-1.5 1.844-2.562 2.032l.172.328c.984-.188 2.187-.797 2.61-1.688.421.875 1.64 1.5 2.609 1.688zm-4.72 2.265h-.421V.391h4.86V.03H1.718zM.439-2.844v.36h3.03v1.578h.423v-1.578h2.984v-.36zm0 0"/></symbol><symbol overflow="visible" id="ar"><path d="M4.734-5.766H2.875v-.796h-.422v.796H.61v.344h4.125zm-3.28 1.782c0-.454.484-.766 1.218-.766.719 0 1.203.313 1.203.766 0 .468-.484.78-1.203.78-.735 0-1.219-.312-1.219-.78zm3.5 1.5c-.657.093-1.376.156-2.079.187v-.594c.86-.062 1.39-.468 1.39-1.093 0-.672-.624-1.079-1.593-1.079-.985 0-1.625.407-1.625 1.079 0 .64.562 1.03 1.406 1.093v.61c-.719.031-1.422.031-2.015.031l.062.375c1.25-.016 2.969-.031 4.484-.313zm-3 1.14H1.53V.391h4.594V.03H1.953zm3.921-2.625V-6.53h-.422v5.547h.422V-3.61H7v-.36zm0 0"/></symbol><symbol overflow="visible" id="as"><path d="M.89-5.75v.36H3.72C3.609-3.64 2.53-2.126.579-1.189l.234.344C3.092-1.969 4.14-3.766 4.14-5.75zm4.907-.781V.562h.422V-6.53zm0 0"/></symbol><symbol overflow="visible" id="at"><path d="M1.266-5.64H.844v4.296h.422c.796 0 1.593-.047 2.593-.25l-.046-.375c-.97.203-1.782.25-2.547.25zm4.75-.907v2.984h-1.22v-2.796h-.405V.17h.406v-3.358h1.219v3.75h.406v-7.11zm0 0"/></symbol><symbol overflow="visible" id="au"><path d="M4.11-2.578c.202-1.406.202-2.375.202-2.875v-.266H.783v.36h3.124c0 .515-.015 1.453-.219 2.734zm-1.688-1.11h-.406v2.22c-.594.03-1.141.03-1.641.03l.063.375c1.28-.015 2.968-.046 4.484-.265l-.031-.328c-.782.11-1.641.156-2.47.172zm4.625.188h-1.25v-3.047h-.422v7.11h.422v-3.688h1.25zm0 0"/></symbol><symbol overflow="visible" id="av"><path d="M6.39-6.516h-.406v3.985h.407zM3.845-4.578v.344h.906v1.625h.406v-3.797H4.75v1.828zM4.03-5.75H2.438v-.813h-.422v.813H.422v.344h3.61zm-2.89 1.875c0-.516.437-.86 1.078-.86.64 0 1.078.344 1.078.86 0 .5-.438.844-1.078.844-.64 0-1.078-.344-1.078-.844zm2.546 0c0-.734-.609-1.188-1.468-1.188-.875 0-1.469.454-1.469 1.188 0 .719.594 1.172 1.469 1.172.86 0 1.469-.453 1.469-1.172zM2.234.109v-.843h4.157v-1.454H1.797v.329h4.187v.796H1.828V.454h4.844V.11zm0 0"/></symbol><symbol overflow="visible" id="aw"><path d="M6.5-2.844c-1-.203-2.64-1.281-2.64-2.578V-6h-.438v.578c0 1.313-1.625 2.36-2.625 2.578l.187.36c.954-.25 2.22-1.032 2.657-2.141.437 1.11 1.718 1.89 2.656 2.14zM.453-.813v.36h6.422v-.36zm0 0"/></symbol><symbol overflow="visible" id="ax"><path d="M4.563-3.656h-1.36a5.988 5.988 0 0 0 .328-2.016H.844v.36h2.281A5.523 5.523 0 0 1 2.891-4L.5-3.828l.078.375 2.203-.219c-.36.922-1.062 1.766-2.25 2.39l.25.329c1.172-.64 1.875-1.469 2.281-2.36h1.5V.172h.407v-6.516h-.407zm1.468-2.89V.562h.407v-7.11zm0 0"/></symbol><symbol overflow="visible" id="ay"><path d="M2.313-1.453c-.782 0-1.329-.86-1.329-2.063 0-1.218.547-2.062 1.329-2.062.78 0 1.328.844 1.328 2.062 0 1.204-.547 2.063-1.329 2.063zm3.484-5.078v2.781H4.03c-.078-1.344-.75-2.203-1.718-2.203-1.016 0-1.72.953-1.72 2.437 0 1.485.704 2.438 1.72 2.438.984 0 1.687-.906 1.734-2.313h1.75V.563h.437v-7.094zm0 0"/></symbol><symbol overflow="visible" id="az"><path d="M2.813-5.875h-.407v1.406c0 1.328-1.031 2.688-1.953 3.157l.25.343C1.5-1.39 2.297-2.344 2.625-3.453c.328 1.062 1.125 1.969 1.906 2.375l.266-.344c-.953-.453-1.984-1.75-1.984-3.047zm2.968-.656V.562h.422V-6.53zm0 0"/></symbol><symbol overflow="visible" id="aA"><path d="M4.625-2.328h.406v-4.078h-.406v1.703H3.531v.344h1.094zm-.781-1.016c-.781.188-1.453.219-2.61.219H1.22v-1.156h1.968v-.344H1.22v-1.063h2.265v-.359H.813v3.281h.421c1.188 0 1.844-.03 2.672-.218zm-1.61 1.828h3.75v1.61h-3.75zM1.828.454h4.563v-2.329H1.828zm4.156-7v4.312h.407v-4.313zm0 0"/></symbol><symbol overflow="visible" id="aB"><path d="M.781-5.969v.36h2.766C3.453-4.234 2.28-3.172.5-2.625l.172.36C2.703-2.892 4.016-4.22 4.016-5.97zM3.72.188c-1.11 0-1.844-.391-1.844-.985s.734-.969 1.844-.969c1.125 0 1.86.375 1.86.97 0 .593-.735.984-1.86.984zm0-2.313c-1.375 0-2.25.5-2.25 1.328 0 .844.875 1.328 2.25 1.328C5.125.531 6 .047 6-.797c0-.828-.875-1.328-2.281-1.328zm2.203-2.469V-6.53H5.5v4.312h.422v-2.015h1.11v-.36zm0 0"/></symbol><symbol overflow="visible" id="aC"><path d="M4.656-3.844a16.42 16.42 0 0 1-3.297.313H1.25v-2.625H.844v3h.515c1.094 0 2.141-.094 3.375-.328zm-2.718 2.11H5.5V.094H1.937zM1.53.437h4.39v-2.53h-4.39zm5.5-5.265h-1.11v-1.688H5.5v4h.422v-1.953h1.11zm0 0"/></symbol><symbol overflow="visible" id="aG"><path d="M5.781-6.547v7.11h.422v-7.11zm-4.89.625v4.734h3.25v-4.734h-.422v1.969H1.313v-1.969zm.421 2.328H3.72v2.047H1.313zm0 0"/></symbol><symbol overflow="visible" id="aH"><path d="M2.781-2.813h1.813v2H2.78zm2.235 2v-2h1.109v-.359H1.672v-2.703H1.25v3.063h1.11v2H.452v.359h6.422v-.36zm0 0"/></symbol><symbol overflow="visible" id="aI"><path d="M6.219-6.547H5.78v3.734h.438zM4.703-3.422c-.984-.36-1.875-1.265-1.875-2.344v-.546h-.422v.546c0 1.125-.86 2.11-1.86 2.485l.235.344c.828-.344 1.563-1.047 1.844-1.954.313.844 1.047 1.5 1.86 1.813zM2.156.11v-.968H6.22v-1.563h-4.5v.344h4.078v.89H1.734V.454H6.5V.11zm0 0"/></symbol><symbol overflow="visible" id="aJ"><path d="M5.61-3.578H1.718v-1.235h3.89zM6.03-6.25H5.61v1.078H1.72V-6.25h-.422v3.031H6.03zm.844 3.984H.437v.36h3V.562h.422v-2.468h3.016zm0 0"/></symbol><symbol overflow="visible" id="aK"><path d="M4.203-4.61v.36h1.594v1.938h.437v-4.22h-.437v1.923zm.375 1.657c-.969-.36-1.797-1.25-1.797-2.219v-.437h1.672v-.36H.672v.36h1.703v.453c0 1.078-.86 2.031-1.844 2.406l.219.344c.828-.328 1.563-1.047 1.844-1.938.281.782.969 1.422 1.765 1.719zM3.938.203C2.78.203 2.03-.157 2.03-.75c0-.594.75-.953 1.906-.953 1.157 0 1.907.36 1.907.953 0 .594-.75.953-1.907.953zm0-2.25c-1.454 0-2.329.469-2.329 1.297S2.484.547 3.938.547C5.375.547 6.265.078 6.265-.75s-.891-1.297-2.329-1.297zm0 0"/></symbol><symbol overflow="visible" id="aL"><path d="M1.672-4.266h3.984v1.485H1.672zM3.859-.75v-1.672h2.204V-6h-.407v1.375H1.672V-6H1.25v3.578h2.188V-.75H.453v.36h6.438v-.36zm0 0"/></symbol><symbol overflow="visible" id="aM"><path d="M4.766-5.625H2.828v-.922h-.422v.922H.484v.36h4.282zM1.39-3.469c0-.578.5-.969 1.234-.969s1.234.391 1.234.97c0 .546-.5.952-1.234.952s-1.234-.406-1.234-.953zm1.437 1.281c.875-.078 1.438-.546 1.438-1.28 0-.798-.672-1.313-1.641-1.313C1.641-4.781 1-4.266 1-3.47c0 .735.563 1.203 1.406 1.281v.891c-.734.031-1.437.031-2.031.031l.078.36c1.25 0 2.953-.016 4.5-.281l-.031-.329c-.656.11-1.375.157-2.094.204zm4.219-1.25H5.828V-6.53h-.437V.547h.437v-3.625h1.219zm0 0"/></symbol><symbol overflow="visible" id="aN"><path d="M4.484-5.734H2.688v-.875h-.422v.875H.453v.359h4.031zm-3.187 2.14c0-.562.484-.969 1.172-.969.703 0 1.172.407 1.172.97 0 .562-.47.952-1.172.952-.688 0-1.172-.39-1.172-.953zm2.75 0c0-.797-.64-1.297-1.578-1.297-.922 0-1.563.5-1.563 1.297 0 .797.64 1.297 1.563 1.297.937 0 1.578-.5 1.578-1.297zm-2.5 2.375h4.25V.563h.437v-2.141H1.547zm4.25-5.328v1.844h-1.36v.36h1.36v.952H4.422v.36h1.375v.984h.437v-4.5zm0 0"/></symbol><symbol overflow="visible" id="aO"><path d="M2.766-2.234h1.859v1.5h-1.86zm2.28 1.5v-1.5H6.22v-.36H1.703v-1.36h4.344v-2.015H1.266v.36h4.359v1.312H1.297v2.063h1.062v1.5H.453v.359h6.438v-.36zm0 0"/></symbol><symbol overflow="visible" id="aP"><path d="M6.484-4.375C5.391-4.5 3.875-5.172 3.875-6.156V-6.5h-.438v.344c0 .984-1.515 1.656-2.609 1.781l.14.344c1.016-.157 2.266-.672 2.688-1.516.422.844 1.656 1.36 2.672 1.516zm.375 1.266v-.36H.453v.36h2.985v.843H1.25v.344h4.344v.813H1.266V.453H6.25V.11H1.687v-.89h4.329v-1.485H3.859v-.843zm0 0"/></symbol><symbol overflow="visible" id="aQ"><path d="M.984-4.328c0-.766.594-1.36 1.391-1.36s1.39.594 1.39 1.36c0 .781-.593 1.375-1.39 1.375-.797 0-1.39-.594-1.39-1.375zM5.797-5v1.328H4.063c.062-.187.109-.422.109-.656 0-.234-.047-.469-.125-.672zm0 1.688v2.046h.437V-6.53h-.437v1.172H3.859a1.862 1.862 0 0 0-1.484-.704c-1.047 0-1.797.72-1.797 1.735 0 1.031.75 1.734 1.797 1.734.64 0 1.172-.265 1.484-.719zM2.219.03v-1.843h-.422V.39h4.64V.03zm0 0"/></symbol><symbol overflow="visible" id="aR"><path d="M6.86-2.984H5.75c.203-1.047.203-1.797.203-2.454v-.609H1.297v.36h4.25v.25c0 .656 0 1.421-.234 2.453H.452v.359h2.985V.563h.421v-3.188h3zm0 0"/></symbol><symbol overflow="visible" id="aS"><path d="M6.516-2.938C5.5-3.14 3.859-4.155 3.859-5.453v-.563h-.437v.563c0 1.297-1.64 2.312-2.656 2.516l.187.343c.953-.219 2.25-.969 2.688-2.062.453 1.093 1.734 1.843 2.687 2.062zM3.844-.78v-1.813h-.422V-.78H.453v.36h6.422v-.36zm0 0"/></symbol><symbol overflow="visible" id="aT"><path d="M1.172-1.594v-3.672H3.39v-.359H.75v4.39h.438c1.187 0 1.859-.03 2.671-.202l-.046-.375c-.797.187-1.454.218-2.626.218zm3.437-2.172H2.922v.36h1.687V.172h.407v-6.516h-.407zM6.016-6.53V.562h.421V-6.53zm0 0"/></symbol><symbol overflow="visible" id="aU"><path d="M.984-4.344c0-.765.594-1.343 1.391-1.343.781 0 1.39.578 1.39 1.343C3.766-3.578 3.157-3 2.376-3c-.797 0-1.39-.578-1.39-1.344zm4.813.188v2.875h.437v-5.25h-.437v2.015h-1.64c-.079-.906-.813-1.546-1.782-1.546-1.047 0-1.797.703-1.797 1.718 0 1.016.75 1.719 1.797 1.719.969 0 1.688-.625 1.781-1.531zM2.219.03v-1.843h-.422V.39h4.64V.03zm0 0"/></symbol><symbol overflow="visible" id="aY"><path d="M5.594-3.875h-3.86v-1.078h3.86zm.422-2.438h-.422v1h-3.86v-1h-.421v2.797h4.703zM1.719-1.53h-.422V.39h4.86V.03H1.718zM.437-2.72v.36H3.47v1.515h.422v-1.515h2.984v-.36zm0 0"/></symbol><symbol overflow="visible" id="aZ"><path d="M4.438-4.86v.36h1.359v.89H4.422v.36h1.375v.703h.422V-6.53h-.422v1.672zm.046-.984H2.688v-.797h-.422v.797H.453v.344h4.031zM1.313-3.859c0-.516.468-.875 1.156-.875.703 0 1.172.359 1.172.875 0 .515-.47.875-1.172.875-.688 0-1.156-.36-1.156-.875zm2.734 0c0-.735-.64-1.204-1.578-1.204-.922 0-1.563.47-1.563 1.204s.64 1.203 1.563 1.203c.937 0 1.578-.469 1.578-1.203zM2.157.109V-.75h4.062v-1.39H1.734v.343h4.063v.734H1.75V.454h4.688V.11zm0 0"/></symbol><symbol overflow="visible" id="ba"><path d="M4.125-3.516c.203-.968.203-1.671.203-2.109v-.328H.875v.344h3.031c0 .437 0 1.093-.203 2.046zm.813.5c-.782.11-1.625.172-2.454.204v-1.61h-.421v1.625C1.484-2.78.921-2.78.437-2.78l.063.375c1.25-.016 2.984-.047 4.469-.281zM1.983-1.672h-.421V.391h4.546V.03H1.984zM5.891-4.14v-2.39h-.422v5.36h.422v-2.61H7v-.36zm0 0"/></symbol><symbol overflow="visible" id="bc"><path d="M4.5-3.078c-.969-.36-1.813-1.281-1.813-2.297v-.813h-.406v.797c0 1.157-.812 2.11-1.812 2.516l.219.344A3.152 3.152 0 0 0 2.5-4.5c.297.797.984 1.453 1.766 1.766zM3.687.187c-1.14 0-1.874-.343-1.874-.89 0-.563.734-.906 1.875-.906 1.14 0 1.874.343 1.874.906 0 .547-.734.89-1.875.89zm0-2.14c-1.437 0-2.296.453-2.296 1.25C1.39.094 2.25.53 3.687.53 5.11.531 5.97.094 5.97-.703c0-.797-.86-1.25-2.282-1.25zm2.235-2.64v-1.954H5.5v4.39h.422v-2.062h1.11v-.375zm0 0"/></symbol><symbol overflow="visible" id="bf"><path d="M4.516-2.844c-.97-.36-1.813-1.281-1.813-2.297v-.968h-.406v.937C2.297-4 1.484-3.032.484-2.64l.22.344a3.114 3.114 0 0 0 1.812-1.969c.296.813 1 1.454 1.796 1.766zM2.03-1.766H1.61V.391h4.657V.03H2.03zm3.89-2.53v-2.25H5.5v5.28h.422v-2.656h1.11v-.375zm0 0"/></symbol><symbol overflow="visible" id="bg"><path d="M4.484-5.75H2.688v-.86h-.422v.86H.453v.36h4.031zM1.297-3.703c0-.531.484-.922 1.172-.922.703 0 1.172.39 1.172.922 0 .547-.47.937-1.172.937-.688 0-1.172-.39-1.172-.937zm2.75 0c0-.766-.64-1.25-1.578-1.25-.922 0-1.563.484-1.563 1.25 0 .781.64 1.265 1.563 1.265.937 0 1.578-.484 1.578-1.265zM5.813.094H2.155v-.922h3.656zm0-1.266H2.155v-.86h-.422V.454h4.5V-2.03h-.421zm-.016-5.36v1.735h-1.36v.36h1.36v1.015H4.422v.36h1.375v.703h.437v-4.172zm0 0"/></symbol><symbol overflow="visible" id="bh"><path d="M4.266-3.11c-.86.141-1.563.172-3 .172h-.079v-1.296h2.579v-1.86H.75v.36h2.61v1.156H.765v2h.5c1.437 0 2.156-.031 3.046-.172zm-2.72 1.704h4.25V.578h.438v-2.344H1.547zm4.25-5.125v1.093h-1.53v.36h1.53V-4h-1.53v.36h1.53v1.453h.438v-4.344zm0 0"/></symbol><symbol overflow="visible" id="bi"><path d="M4.625-3.328c-1.016.203-1.875.25-3.281.25h-.11v-2.469h2.688v-.36H.812v3.204h.532c1.437 0 2.297-.063 3.328-.266zm-2.61 1.437h-.421V.391h4.672V.03h-4.25zm3.907-2.437v-2.219H5.5v5.156h.422v-2.578h1.11v-.36zm0 0"/></symbol><symbol overflow="visible" id="bj"><path d="M5.625-4.14H1.703v-1.688h3.922zm.406-2.048H1.297v2.407H6.03zM1.72-1.64h-.422V.391h4.86V.03H1.718zM.437-2.844v.36H3.47v1.578h.422v-1.578h2.984v-.36zm0 0"/></symbol><symbol overflow="visible" id="bk"><path d="M5.797-4.813v1.188h-1.86v-1.188zM3.53-2.89H1.266v-1.453H3.53zm.406-.39h1.86v2.015h.437V-6.53h-.437v1.36h-1.86v-.891h-.406v1.359H1.266v-1.36H.844v3.532h3.094zM2.188.03V-1.78H1.75V.39h4.656V.03zm0 0"/></symbol><symbol overflow="visible" id="bl"><path d="M1.297-1.547v-1.89h2.797v-2.407H.859v.36h2.829v1.687H.874v2.61h.563c1.171 0 2.265-.047 3.625-.266l-.047-.36a22.605 22.605 0 0 1-3.579.266zM5.78-6.53V.562h.438V-6.53zm0 0"/></symbol><symbol overflow="visible" id="bp"><path d="M4.078-4.266v.36h1.719v2.656h.437v-5.266h-.437v2.25zM.922-5.969v.36H3.64C3.516-4.188 2.28-3.08.578-2.484l.188.343c1.968-.671 3.328-2.046 3.328-3.828zm1.344 6v-1.828h-.422V.391h4.562V.03zm0 0"/></symbol><symbol overflow="visible" id="bq"><path d="M6.219-6.531h-.422v5.234h.422zM4.734-2.734C3.75-3.078 2.86-3.938 2.86-4.97v-.578h1.735v-.36H.704v.36h1.734v.578c0 1.094-.844 2-1.844 2.375l.219.328c.843-.328 1.562-.984 1.859-1.875.297.813 1.031 1.454 1.86 1.735zM2.188.03v-1.828h-.422V.391h4.687V.03zm0 0"/></symbol><symbol overflow="visible" id="br"><path d="M6.469-5.875H3.875v-.797h-.422v.797H.797v.344h5.672zM5.453-4.141c0 .438-.687.704-1.797.704-1.11 0-1.797-.266-1.797-.704 0-.437.688-.718 1.797-.718 1.11 0 1.797.28 1.797.718zm-4.031 0c0 .672.812 1.032 2.234 1.032s2.235-.36 2.235-1.032c0-.671-.813-1.03-2.235-1.03s-2.234.359-2.234 1.03zM3.656.203c-1.234 0-1.984-.266-1.984-.75s.75-.765 1.984-.765c1.235 0 1.985.28 1.985.765s-.75.75-1.985.75zm0-1.844c-1.547 0-2.406.375-2.406 1.094 0 .719.86 1.094 2.406 1.094 1.531 0 2.406-.375 2.406-1.094 0-.719-.875-1.094-2.406-1.094zM.453-2.562v.343H6.86v-.344zm0 0"/></symbol><symbol overflow="visible" id="bs"><path d="M3.063-3.156h1.64v-.36H1.5V-5.78h-.422v2.625h1.563v1.687c-.75.047-1.5.047-2.157.047l.079.375c1.359 0 3.109-.031 4.687-.281l-.031-.328c-.688.093-1.422.14-2.157.172zm2.656-3.375V.562h.422V-6.53zm0 0"/></symbol><symbol overflow="visible" id="bt"><path d="M6.219-6.547H5.78v3.719h.438zM4.75-3.344c-1-.328-1.89-1.156-1.89-2.172v-.218h1.734v-.36H.704v.36h1.734v.218c0 1.063-.86 1.97-1.844 2.313l.203.344c.844-.313 1.578-.985 1.875-1.844.297.797 1.031 1.39 1.86 1.687zM2.156.11v-.984H6.22v-1.578h-4.5v.344h4.078v.906H1.734V.453H6.5V.11zm0 0"/></symbol><symbol overflow="visible" id="bu"><path d="M2.844-5.406H4.64v-.375H.67v.375h1.766v1.187c0 1.235-1.046 2.594-1.953 3.047l.266.344c.766-.422 1.578-1.39 1.89-2.453C2.97-2.25 3.798-1.375 4.579-1l.266-.328c-.969-.438-2-1.656-2-2.89zM5.78-6.531V.562h.422V-6.53zm0 0"/></symbol><symbol overflow="visible" id="bv"><path d="M4-2.875c-.906-.375-1.531-1.266-1.531-2.188v-.109h1.36v-.36h-1.36v-.921h-.422v.922H.64v.36h1.406v.109c0 .984-.61 1.921-1.5 2.312l.234.328c.719-.344 1.25-1 1.485-1.781.25.719.78 1.328 1.5 1.64zM1.703-1.391H5.97V.563h.422V-1.75H1.703zm4.281-5.14v1.953H4.86v-1.828h-.406v4.172h.406V-4.22h1.125v2.032h.407v-4.344zm0 0"/></symbol><symbol overflow="visible" id="bz"><path d="M3.656-6.031c1.219 0 2.016.36 2.016.953 0 .594-.797.953-2.016.953-1.219 0-2.015-.36-2.015-.953 0-.594.796-.953 2.015-.953zm0 2.25c1.516 0 2.453-.469 2.453-1.297s-.937-1.297-2.453-1.297c-1.531 0-2.453.469-2.453 1.297s.922 1.297 2.453 1.297zm1.078 1.937a5.539 5.539 0 0 0-1.078-.093 5.1 5.1 0 0 0-1.047.093v-.937h2.125zm.907 1.157c0 .562-.782.89-1.985.89s-1.984-.328-1.984-.89c0-.563.781-.907 1.984-.907 1.203 0 1.985.344 1.985.907zm1.218-2.094v-.36H.453v.36h1.734v1.047c-.609.203-.937.562-.937 1.046C1.25.11 2.14.548 3.656.548S6.062.109 6.062-.688c0-.484-.312-.828-.906-1.03v-1.063zm0 0"/></symbol><symbol overflow="visible" id="bA"><path d="M4.672-5.734H2.797v-.875h-.422v.875H.485v.343h4.187zm-3.375 2c0-.532.516-.891 1.281-.891.766 0 1.266.36 1.266.89 0 .532-.5.907-1.266.907-.75 0-1.281-.375-1.281-.906zm2.953 0c0-.766-.672-1.235-1.672-1.235-1.015 0-1.672.469-1.672 1.235 0 .765.656 1.234 1.672 1.234 1 0 1.672-.469 1.672-1.234zM5.5.094H1.969v-.969H5.5zm0-1.313H1.969v-.875h-.422V.453h4.375v-2.547H5.5zm1.531-3.437h-1.11v-1.89H5.5v4.124h.422v-1.875h1.11zm0 0"/></symbol><symbol overflow="visible" id="m"><path d="M5.25-5.625v.438h2.016v3.546h.515v-6.53h-.515v2.546zm.469 2.094C4.516-3.97 3.484-5.078 3.484-6.297v-.625h2.079v-.453H.843v.453H2.97v.64c0 1.345-1.094 2.532-2.313 2.985l.266.438c1.047-.422 1.953-1.297 2.312-2.407.375.985 1.22 1.782 2.22 2.172zM2.78.03v-2.265H2.25V.484h5.813V.031zm0 0"/></symbol><symbol overflow="visible" id="n"><path d="M7.031-5.172h-4.89v-2.11h4.89zm.5-2.562H1.625v3h5.906zM2.156-2.047h-.531V.484h6.078V.031H2.156zm-1.61-1.5v.438h3.798v1.984h.531v-1.984h3.734v-.438zm0 0"/></symbol><symbol overflow="visible" id="o"><path d="M5.875-3.969c-1.234-.453-2.344-1.61-2.344-2.984v-.86h-.515v.86c0 1.422-1.079 2.656-2.313 3.156l.266.406c1.047-.421 1.953-1.328 2.312-2.453.39 1.063 1.297 1.89 2.313 2.297zm-3.203 1.86h4.594V.109H2.672zM2.14.562h5.64v-3.109h-5.64zM7.25-8.171v5.063h.531v-5.063zm0 0"/></symbol><symbol overflow="visible" id="p"><path d="M3.453-7.484c-1.375 0-2.328.812-2.328 2.015 0 1.219.953 2.032 2.328 2.032S5.797-4.25 5.797-5.47c0-1.203-.969-2.015-2.344-2.015zm0 .453c1.063 0 1.828.656 1.828 1.562 0 .922-.765 1.578-1.828 1.578-1.062 0-1.828-.656-1.828-1.578 0-.906.766-1.562 1.828-1.562zm3.703-1.14V.702h.516v-8.875zM.703-1.345c1.625 0 3.828 0 5.86-.36l-.047-.405c-1.97.296-4.235.312-5.891.312zm0 0"/></symbol><symbol overflow="visible" id="q"><path d="M3.469-7.266c1 0 1.719.563 1.719 1.329 0 .765-.72 1.328-1.72 1.328-.984 0-1.687-.563-1.687-1.329 0-.765.703-1.328 1.688-1.328zm0 3.11c1.312 0 2.234-.719 2.234-1.782 0-1.062-.922-1.78-2.234-1.78-1.297 0-2.203.718-2.203 1.78 0 1.063.906 1.782 2.203 1.782zm3.047.547c-2 .296-4.297.328-6 .328l.093.469c.782 0 1.704 0 2.657-.047V.42h.53V-2.89c.907-.046 1.845-.14 2.75-.296zm.687-4.547v8.86h.531v-8.86zm0 0"/></symbol><symbol overflow="visible" id="r"><path d="M5.281-2.875v.422h1.89v1.047h.532v-6.75h-.531v5.281zm-1.86-4.5c.97 0 1.657.469 1.657 1.11 0 .671-.687 1.124-1.656 1.124-.985 0-1.672-.453-1.672-1.125 0-.64.688-1.109 1.672-1.109zm0 2.64c1.298 0 2.157-.593 2.157-1.53 0-.923-.86-1.516-2.156-1.516-1.313 0-2.172.593-2.172 1.515 0 .938.86 1.532 2.172 1.532zm-.202 2.97h.531v-1.813c.86-.047 1.734-.11 2.578-.25l-.047-.39c-1.906.234-4.125.25-5.765.25l.078.468c.781 0 1.656 0 2.625-.047zM2.375.03v-2.11h-.516V.485h6.063V.031zm0 0"/></symbol><symbol overflow="visible" id="s"><path d="M5.625-3.719c-1.219-.422-2.219-1.5-2.219-2.719v-.593H5.5v-.438H.781v.438h2.11v.61c0 1.343-1.047 2.484-2.297 2.937l.281.421c1.031-.406 1.922-1.234 2.297-2.312.36.953 1.187 1.703 2.187 2.063zM4.609.234c-1.421 0-2.343-.437-2.343-1.14 0-.719.921-1.156 2.343-1.156s2.344.437 2.344 1.156c0 .703-.922 1.14-2.344 1.14zm0-2.718c-1.78 0-2.859.562-2.859 1.578 0 1 1.078 1.578 2.86 1.578 1.765 0 2.859-.578 2.859-1.578 0-1.016-1.094-1.578-2.86-1.578zm2.797-3.313v-2.375h-.531v5.39h.531v-2.546h1.375v-.469zm0 0"/></symbol><symbol overflow="visible" id="bB"><path d="M6.438-7.156v1.281h1.718v3.922H9.75V-10H8.156v2.844zm.734 2.547c-1.75-.594-2.5-1.954-2.5-3.25V-8h2.14v-1.266H.891V-8h2.171v.156c0 1.39-.796 2.828-2.609 3.422l.797 1.266a4.31 4.31 0 0 0 2.64-2.406c.47 1 1.297 1.78 2.516 2.187zM4.047-.422v-2.203H2.469V.844H10V-.422zm0 0"/></symbol><symbol overflow="visible" id="bC"><path d="M7.672-6.672H3.297v-1.64h4.375zm1.562-2.875h-7.5v4.125h7.5zM3.25-2.359H1.672V.844H9.39V-.422H3.25zM.5-4.547v1.234h4.36v1.891h1.577v-1.89H10.5v-1.235zm0 0"/></symbol><symbol overflow="visible" id="bD"><path d="M7.281-5.39c-1.797-.516-2.578-1.813-2.578-3.141v-1.063H3.11v1.063c0 1.36-.796 2.75-2.64 3.328l.765 1.25c1.297-.406 2.188-1.25 2.704-2.297.484.969 1.328 1.719 2.578 2.094zm-3.39 3.359h4.25v1.703H3.89zM2.344.906h7.344v-4.172H2.343zM8.094-10v6.219h1.594V-10zm0 0"/></symbol><symbol overflow="visible" id="bE"><path d="M4.063-9.281c-1.72 0-3.032 1.14-3.032 2.719 0 1.593 1.313 2.734 3.032 2.734 1.718 0 3.046-1.14 3.046-2.735 0-1.578-1.328-2.718-3.046-2.718zm0 1.36c.843 0 1.5.5 1.5 1.359 0 .875-.657 1.375-1.5 1.375-.844 0-1.5-.5-1.5-1.375 0-.86.656-1.36 1.5-1.36zm4.078-2.095V1.047h1.578v-11.063zM.766-1.187c1.906 0 4.5-.016 6.875-.5l-.11-1.141c-2.312.344-5.031.36-6.968.36zm0 0"/></symbol><symbol overflow="visible" id="bF"><path d="M4.094-8.281c.812 0 1.39.39 1.39 1.078 0 .672-.578 1.062-1.39 1.062-.797 0-1.375-.39-1.375-1.062 0-.688.578-1.078 1.375-1.078zm0 3.422c1.672 0 2.89-.985 2.89-2.344 0-1.39-1.218-2.36-2.89-2.36-1.657 0-2.89.97-2.89 2.36 0 1.36 1.234 2.344 2.89 2.344zm3.453.28c-2.328.345-5.063.376-7 .376l.187 1.297c.782 0 1.672-.016 2.625-.047v3.64h1.579v-3.75a22.046 22.046 0 0 0 2.703-.359zM8.172-10V1.016H9.75V-10zm0 0"/></symbol><symbol overflow="visible" id="bG"><path d="M6.14-3.594v1.078H8.22v.875h1.578V-10H8.219v6.406zm-2.109-4.89c.719 0 1.235.28 1.235.828 0 .531-.516.812-1.235.812-.75 0-1.265-.281-1.265-.812 0-.547.515-.828 1.265-.828zm0 2.796c1.594 0 2.735-.796 2.735-1.968S5.625-9.641 4.03-9.641c-1.625 0-2.765.813-2.765 1.985 0 1.172 1.14 1.968 2.765 1.968zM3.438-.421v-1.5h1.53v-2.094a24.554 24.554 0 0 0 2.626-.312l-.11-1.125c-2.312.297-5 .328-7.015.328l.203 1.266c.828 0 1.75-.016 2.719-.063v1.485H1.859v3.28h8.188V-.421zm0 0"/></symbol></defs><g fill="#898989"><use xlink:href="#a" x="28.312" y="819.169"/><use xlink:href="#b" x="32.066" y="819.169"/></g><g fill="#898989"><use xlink:href="#c" x="36.382" y="819.169"/><use xlink:href="#c" x="38.472" y="819.169"/></g><g fill="#595757"><use xlink:href="#d" x="536.536" y="818.993"/><use xlink:href="#d" x="538.046" y="818.993"/><use xlink:href="#d" x="539.557" y="818.993"/><use xlink:href="#e" x="541.067" y="818.993"/><use xlink:href="#f" x="542.451" y="818.993"/><use xlink:href="#g" x="544.009" y="818.993"/><use xlink:href="#h" x="549.403" y="818.993"/></g><use xlink:href="#i" x="42.468" y="238.573"/><use xlink:href="#j" x="51.457" y="238.573"/><use xlink:href="#k" x="60.446" y="238.573"/><use xlink:href="#l" x="69.435" y="237.814"/><use xlink:href="#m" x="71.513" y="238.573"/><use xlink:href="#n" x="80.502" y="238.573"/><use xlink:href="#o" x="89.491" y="238.573"/><use xlink:href="#p" x="98.48" y="238.573"/><use xlink:href="#q" x="107.469" y="238.573"/><use xlink:href="#r" x="116.458" y="238.573"/><use xlink:href="#s" x="125.447" y="238.573"/><use xlink:href="#t" x="134.436" y="238.573"/><use xlink:href="#u" x="42.468" y="254.794"/><use xlink:href="#l" x="44.841" y="254.794"/><use xlink:href="#v" x="46.919" y="254.794"/><use xlink:href="#w" x="54.11" y="254.794"/><use xlink:href="#l" x="61.301" y="254.794"/><use xlink:href="#x" x="63.379" y="254.794"/><use xlink:href="#y" x="70.57" y="254.794"/><use xlink:href="#u" x="42.468" y="269.775"/><use xlink:href="#l" x="44.841" y="269.775"/><use xlink:href="#z" x="46.919" y="269.775"/><use xlink:href="#A" x="54.11" y="269.775"/><use xlink:href="#B" x="61.301" y="269.775"/><use xlink:href="#C" x="68.492" y="269.775"/><use xlink:href="#D" x="75.684" y="269.775"/><use xlink:href="#w" x="82.875" y="269.775"/><use xlink:href="#E" x="90.066" y="269.775"/><use xlink:href="#l" x="97.257" y="269.775"/><use xlink:href="#v" x="99.335" y="269.775"/><use xlink:href="#w" x="106.526" y="269.775"/><use xlink:href="#D" x="113.717" y="269.775"/><use xlink:href="#w" x="120.909" y="269.775"/><use xlink:href="#l" x="128.1" y="269.775"/><use xlink:href="#E" x="130.177" y="269.775"/><use xlink:href="#F" x="137.369" y="269.775"/><use xlink:href="#l" x="144.56" y="269.775"/><use xlink:href="#u" x="42.468" y="284.757"/><use xlink:href="#l" x="44.841" y="284.757"/><use xlink:href="#G" x="46.919" y="284.757"/><use xlink:href="#H" x="54.11" y="284.757"/><use xlink:href="#I" x="61.301" y="284.757"/><use xlink:href="#v" x="68.492" y="284.757"/><use xlink:href="#H" x="75.684" y="284.757"/><use xlink:href="#J" x="82.875" y="284.757"/><use xlink:href="#K" x="90.066" y="284.757"/><use xlink:href="#L" x="97.257" y="284.757"/><use xlink:href="#l" x="104.449" y="284.757"/><use xlink:href="#M" x="106.526" y="284.757"/><use xlink:href="#N" x="113.717" y="284.757"/><use xlink:href="#v" x="120.909" y="284.757"/><use xlink:href="#y" x="128.1" y="284.757"/><use xlink:href="#l" x="135.291" y="284.757"/><use xlink:href="#O" x="137.369" y="284.757"/><use xlink:href="#I" x="144.56" y="284.757"/><use xlink:href="#P" x="151.751" y="284.757"/><use xlink:href="#Q" x="158.942" y="284.757"/><g><use xlink:href="#i" x="231.097" y="238.573"/><use xlink:href="#R" x="240.086" y="238.573"/><use xlink:href="#S" x="249.075" y="238.573"/><use xlink:href="#T" x="258.064" y="238.573"/></g><g><use xlink:href="#u" x="231.097" y="254.794"/><use xlink:href="#l" x="233.47" y="254.794"/><use xlink:href="#U" x="235.547" y="254.794"/><use xlink:href="#V" x="242.739" y="254.794"/><use xlink:href="#W" x="249.93" y="254.794"/><use xlink:href="#X" x="257.121" y="254.794"/><use xlink:href="#w" x="264.312" y="254.794"/><use xlink:href="#l" x="271.504" y="254.794"/><use xlink:href="#x" x="273.581" y="254.794"/><use xlink:href="#y" x="280.772" y="254.794"/></g><g><use xlink:href="#u" x="231.097" y="269.775"/><use xlink:href="#l" x="233.47" y="269.775"/><use xlink:href="#Y" x="235.547" y="269.775"/><use xlink:href="#Z" x="242.739" y="269.775"/><use xlink:href="#D" x="249.93" y="269.775"/><use xlink:href="#w" x="257.121" y="269.775"/><use xlink:href="#E" x="264.312" y="269.775"/><use xlink:href="#l" x="271.504" y="269.775"/><use xlink:href="#E" x="273.581" y="269.775"/><use xlink:href="#F" x="280.772" y="269.775"/><use xlink:href="#l" x="287.964" y="269.775"/></g><g><use xlink:href="#u" x="231.097" y="284.757"/><use xlink:href="#l" x="233.47" y="284.757"/><use xlink:href="#Y" x="235.547" y="284.757"/><use xlink:href="#Z" x="242.739" y="284.757"/><use xlink:href="#D" x="249.93" y="284.757"/><use xlink:href="#w" x="257.121" y="284.757"/><use xlink:href="#E" x="264.312" y="284.757"/><use xlink:href="#l" x="271.504" y="284.757"/><use xlink:href="#aa" x="273.581" y="284.757"/><use xlink:href="#ab" x="280.772" y="284.757"/><use xlink:href="#I" x="287.964" y="284.757"/><use xlink:href="#ac" x="295.155" y="284.757"/><use xlink:href="#w" x="302.346" y="284.757"/><use xlink:href="#ad" x="309.537" y="284.757"/><use xlink:href="#ae" x="316.729" y="284.757"/><use xlink:href="#af" x="323.92" y="284.757"/></g><g><use xlink:href="#ag" x="419.726" y="238.573"/><use xlink:href="#ah" x="428.715" y="238.573"/><use xlink:href="#ai" x="437.704" y="238.573"/><use xlink:href="#T" x="446.693" y="238.573"/></g><g><use xlink:href="#u" x="419.726" y="254.794"/><use xlink:href="#l" x="422.099" y="254.794"/><use xlink:href="#aj" x="424.176" y="254.794"/><use xlink:href="#w" x="431.368" y="254.794"/><use xlink:href="#l" x="438.559" y="254.794"/><use xlink:href="#I" x="440.636" y="254.794"/><use xlink:href="#w" x="447.828" y="254.794"/><use xlink:href="#l" x="455.019" y="254.794"/><use xlink:href="#x" x="457.096" y="254.794"/><use xlink:href="#y" x="464.288" y="254.794"/><use xlink:href="#ak" x="471.479" y="254.794"/><use xlink:href="#l" x="473.325" y="254.794"/><use xlink:href="#V" x="475.402" y="254.794"/><use xlink:href="#al" x="482.593" y="254.794"/><use xlink:href="#w" x="489.785" y="254.794"/><use xlink:href="#l" x="496.976" y="254.794"/><use xlink:href="#am" x="499.053" y="254.794"/><use xlink:href="#y" x="506.244" y="254.794"/><use xlink:href="#l" x="513.436" y="254.794"/></g><g><use xlink:href="#u" x="419.726" y="269.775"/><use xlink:href="#l" x="422.099" y="269.775"/><use xlink:href="#an" x="424.176" y="269.775"/><use xlink:href="#ao" x="431.368" y="269.775"/><use xlink:href="#D" x="438.559" y="269.775"/><use xlink:href="#w" x="445.75" y="269.775"/><use xlink:href="#E" x="452.941" y="269.775"/><use xlink:href="#ap" x="460.133" y="269.775"/><use xlink:href="#Q" x="467.324" y="269.775"/><use xlink:href="#l" x="474.515" y="269.775"/><use xlink:href="#aq" x="476.593" y="269.775"/><use xlink:href="#ar" x="483.784" y="269.775"/><use xlink:href="#as" x="490.975" y="269.775"/><use xlink:href="#at" x="498.166" y="269.775"/><use xlink:href="#au" x="505.358" y="269.775"/><use xlink:href="#l" x="512.549" y="269.775"/><use xlink:href="#E" x="514.626" y="269.775"/><use xlink:href="#F" x="521.818" y="269.775"/><use xlink:href="#l" x="529.009" y="269.775"/></g><g><use xlink:href="#u" x="419.726" y="284.757"/><use xlink:href="#l" x="422.099" y="284.757"/><use xlink:href="#an" x="424.176" y="284.757"/><use xlink:href="#ao" x="431.368" y="284.757"/><use xlink:href="#D" x="438.559" y="284.757"/><use xlink:href="#w" x="445.75" y="284.757"/><use xlink:href="#E" x="452.941" y="284.757"/><use xlink:href="#ap" x="460.133" y="284.757"/><use xlink:href="#Q" x="467.324" y="284.757"/><use xlink:href="#av" x="474.515" y="284.757"/><use xlink:href="#aw" x="481.706" y="284.757"/><use xlink:href="#ax" x="488.898" y="284.757"/><use xlink:href="#ay" x="496.089" y="284.757"/><use xlink:href="#az" x="503.28" y="284.757"/><use xlink:href="#aw" x="510.471" y="284.757"/><use xlink:href="#aA" x="517.663" y="284.757"/></g><g><use xlink:href="#l" x="419.726" y="299.739"/><use xlink:href="#l" x="421.803" y="299.739"/><use xlink:href="#aB" x="423.881" y="299.739"/><use xlink:href="#aC" x="431.072" y="299.739"/><use xlink:href="#ad" x="438.263" y="299.739"/><use xlink:href="#ae" x="445.454" y="299.739"/><use xlink:href="#Q" x="452.646" y="299.739"/><use xlink:href="#af" x="459.837" y="299.739"/></g><g><use xlink:href="#aD" x="42.468" y="716.087"/><use xlink:href="#aE" x="51.457" y="716.087"/><use xlink:href="#aF" x="60.446" y="716.087"/></g><g><use xlink:href="#u" x="42.468" y="732.307"/><use xlink:href="#l" x="44.841" y="732.307"/><use xlink:href="#an" x="46.919" y="732.307"/><use xlink:href="#ao" x="54.11" y="732.307"/><use xlink:href="#D" x="61.301" y="732.307"/><use xlink:href="#w" x="68.492" y="732.307"/><use xlink:href="#E" x="75.684" y="732.307"/><use xlink:href="#l" x="82.875" y="732.307"/><use xlink:href="#I" x="84.952" y="732.307"/><use xlink:href="#au" x="92.144" y="732.307"/><use xlink:href="#D" x="99.335" y="732.307"/><use xlink:href="#w" x="106.526" y="732.307"/><use xlink:href="#l" x="113.717" y="732.307"/><use xlink:href="#aG" x="115.795" y="732.307"/><use xlink:href="#aH" x="122.986" y="732.307"/><use xlink:href="#I" x="130.177" y="732.307"/><use xlink:href="#w" x="137.369" y="732.307"/><use xlink:href="#E" x="144.56" y="732.307"/><use xlink:href="#aI" x="151.751" y="732.307"/><use xlink:href="#l" x="158.942" y="732.307"/><use xlink:href="#aJ" x="161.02" y="732.307"/><use xlink:href="#E" x="168.211" y="732.307"/><use xlink:href="#F" x="175.402" y="732.307"/></g><g><use xlink:href="#u" x="42.468" y="747.289"/><use xlink:href="#l" x="44.841" y="747.289"/><use xlink:href="#an" x="46.919" y="747.289"/><use xlink:href="#ao" x="54.11" y="747.289"/><use xlink:href="#D" x="61.301" y="747.289"/><use xlink:href="#w" x="68.492" y="747.289"/><use xlink:href="#E" x="75.684" y="747.289"/><use xlink:href="#ap" x="82.875" y="747.289"/><use xlink:href="#Q" x="90.066" y="747.289"/><use xlink:href="#l" x="97.257" y="747.289"/><use xlink:href="#aG" x="99.335" y="747.289"/><use xlink:href="#aH" x="106.526" y="747.289"/><use xlink:href="#I" x="113.717" y="747.289"/><use xlink:href="#w" x="120.909" y="747.289"/><use xlink:href="#au" x="128.1" y="747.289"/><use xlink:href="#l" x="135.291" y="747.289"/><use xlink:href="#aJ" x="137.369" y="747.289"/><use xlink:href="#E" x="144.56" y="747.289"/><use xlink:href="#F" x="151.751" y="747.289"/><use xlink:href="#l" x="158.942" y="747.289"/></g><g><use xlink:href="#u" x="42.468" y="762.271"/><use xlink:href="#l" x="44.841" y="762.271"/><use xlink:href="#an" x="46.919" y="762.271"/><use xlink:href="#ao" x="54.11" y="762.271"/><use xlink:href="#D" x="61.301" y="762.271"/><use xlink:href="#w" x="68.492" y="762.271"/><use xlink:href="#E" x="75.684" y="762.271"/><use xlink:href="#ap" x="82.875" y="762.271"/><use xlink:href="#Q" x="90.066" y="762.271"/><use xlink:href="#l" x="97.257" y="762.271"/><use xlink:href="#aK" x="99.335" y="762.271"/><use xlink:href="#aL" x="106.526" y="762.271"/><use xlink:href="#aM" x="113.717" y="762.271"/><use xlink:href="#aI" x="120.909" y="762.271"/><use xlink:href="#l" x="128.1" y="762.271"/><use xlink:href="#aJ" x="130.177" y="762.271"/><use xlink:href="#aI" x="137.369" y="762.271"/><use xlink:href="#af" x="144.56" y="762.271"/><use xlink:href="#l" x="151.751" y="762.271"/></g><g><use xlink:href="#u" x="42.468" y="777.253"/><use xlink:href="#l" x="44.841" y="777.253"/><use xlink:href="#an" x="46.919" y="777.253"/><use xlink:href="#ao" x="54.11" y="777.253"/><use xlink:href="#D" x="61.301" y="777.253"/><use xlink:href="#w" x="68.492" y="777.253"/><use xlink:href="#E" x="75.684" y="777.253"/><use xlink:href="#ap" x="82.875" y="777.253"/><use xlink:href="#Q" x="90.066" y="777.253"/><use xlink:href="#l" x="97.257" y="777.253"/><use xlink:href="#aN" x="99.335" y="777.253"/><use xlink:href="#U" x="106.526" y="777.253"/><use xlink:href="#I" x="113.717" y="777.253"/><use xlink:href="#aO" x="120.909" y="777.253"/><use xlink:href="#as" x="128.1" y="777.253"/><use xlink:href="#aP" x="135.291" y="777.253"/><use xlink:href="#aQ" x="142.482" y="777.253"/><use xlink:href="#aR" x="149.674" y="777.253"/><use xlink:href="#aS" x="156.865" y="777.253"/></g><g><use xlink:href="#l" x="42.468" y="792.235"/><use xlink:href="#l" x="44.546" y="792.235"/><use xlink:href="#l" x="46.623" y="792.235"/><use xlink:href="#aT" x="48.7" y="792.235"/><use xlink:href="#aj" x="55.892" y="792.235"/><use xlink:href="#ae" x="63.083" y="792.235"/><use xlink:href="#y" x="70.274" y="792.235"/><use xlink:href="#aj" x="77.465" y="792.235"/><use xlink:href="#aU" x="84.657" y="792.235"/><use xlink:href="#aw" x="91.848" y="792.235"/><use xlink:href="#l" x="99.039" y="792.235"/><use xlink:href="#aQ" x="101.117" y="792.235"/><use xlink:href="#aR" x="108.308" y="792.235"/><use xlink:href="#aJ" x="115.499" y="792.235"/><use xlink:href="#af" x="122.69" y="792.235"/></g><g><use xlink:href="#aV" x="42.468" y="470.791"/><use xlink:href="#aW" x="51.457" y="470.791"/><use xlink:href="#aX" x="60.446" y="470.791"/></g><g><use xlink:href="#u" x="42.468" y="487.011"/><use xlink:href="#l" x="44.841" y="487.011"/><use xlink:href="#aj" x="46.919" y="487.011"/><use xlink:href="#w" x="54.11" y="487.011"/><use xlink:href="#l" x="61.301" y="487.011"/><use xlink:href="#I" x="63.379" y="487.011"/><use xlink:href="#w" x="70.57" y="487.011"/><use xlink:href="#l" x="77.761" y="487.011"/><use xlink:href="#x" x="79.839" y="487.011"/><use xlink:href="#y" x="87.03" y="487.011"/></g><g><use xlink:href="#u" x="42.468" y="501.993"/><use xlink:href="#l" x="44.841" y="501.993"/><use xlink:href="#an" x="46.919" y="501.993"/><use xlink:href="#ao" x="54.11" y="501.993"/><use xlink:href="#D" x="61.301" y="501.993"/><use xlink:href="#w" x="68.492" y="501.993"/><use xlink:href="#E" x="75.684" y="501.993"/><use xlink:href="#ap" x="82.875" y="501.993"/><use xlink:href="#Q" x="90.066" y="501.993"/><use xlink:href="#l" x="97.257" y="501.993"/><use xlink:href="#aq" x="99.335" y="501.993"/><use xlink:href="#ar" x="106.526" y="501.993"/><use xlink:href="#as" x="113.717" y="501.993"/><use xlink:href="#at" x="120.909" y="501.993"/><use xlink:href="#au" x="128.1" y="501.993"/><use xlink:href="#l" x="135.291" y="501.993"/><use xlink:href="#E" x="137.369" y="501.993"/><use xlink:href="#F" x="144.56" y="501.993"/><use xlink:href="#l" x="151.751" y="501.993"/></g><g><use xlink:href="#u" x="42.468" y="516.974"/><use xlink:href="#l" x="44.841" y="516.974"/><use xlink:href="#an" x="46.919" y="516.974"/><use xlink:href="#ao" x="54.11" y="516.974"/><use xlink:href="#D" x="61.301" y="516.974"/><use xlink:href="#w" x="68.492" y="516.974"/><use xlink:href="#E" x="75.684" y="516.974"/><use xlink:href="#ap" x="82.875" y="516.974"/><use xlink:href="#Q" x="90.066" y="516.974"/><use xlink:href="#l" x="97.257" y="516.974"/><use xlink:href="#aq" x="99.335" y="516.974"/><use xlink:href="#ar" x="106.526" y="516.974"/><use xlink:href="#as" x="113.717" y="516.974"/><use xlink:href="#at" x="120.909" y="516.974"/><use xlink:href="#au" x="128.1" y="516.974"/><use xlink:href="#l" x="135.291" y="516.974"/><use xlink:href="#aY" x="137.369" y="516.974"/><use xlink:href="#au" x="144.56" y="516.974"/><use xlink:href="#af" x="151.751" y="516.974"/><use xlink:href="#l" x="158.942" y="516.974"/></g><g><use xlink:href="#u" x="42.468" y="531.956"/><use xlink:href="#l" x="44.841" y="531.956"/><use xlink:href="#an" x="46.919" y="531.956"/><use xlink:href="#ao" x="54.11" y="531.956"/><use xlink:href="#D" x="61.301" y="531.956"/><use xlink:href="#w" x="68.492" y="531.956"/><use xlink:href="#E" x="75.684" y="531.956"/><use xlink:href="#ap" x="82.875" y="531.956"/><use xlink:href="#Q" x="90.066" y="531.956"/><use xlink:href="#l" x="97.257" y="531.956"/><use xlink:href="#O" x="99.335" y="531.956"/><use xlink:href="#aZ" x="106.526" y="531.956"/><use xlink:href="#ba" x="113.717" y="531.956"/><use xlink:href="#ad" x="120.909" y="531.956"/><use xlink:href="#ae" x="128.1" y="531.956"/><use xlink:href="#aS" x="135.291" y="531.956"/><use xlink:href="#af" x="142.482" y="531.956"/></g><g><use xlink:href="#ag" x="419.726" y="470.791"/><use xlink:href="#aE" x="428.715" y="470.791"/><use xlink:href="#bb" x="437.704" y="470.791"/></g><g><use xlink:href="#u" x="419.726" y="487.011"/><use xlink:href="#l" x="422.099" y="487.011"/><use xlink:href="#an" x="424.176" y="487.011"/><use xlink:href="#ao" x="431.368" y="487.011"/><use xlink:href="#D" x="438.559" y="487.011"/><use xlink:href="#w" x="445.75" y="487.011"/><use xlink:href="#E" x="452.941" y="487.011"/><use xlink:href="#ap" x="460.133" y="487.011"/><use xlink:href="#Q" x="467.324" y="487.011"/><use xlink:href="#l" x="474.515" y="487.011"/><use xlink:href="#al" x="476.593" y="487.011"/><use xlink:href="#bc" x="483.784" y="487.011"/><use xlink:href="#I" x="490.975" y="487.011"/><use xlink:href="#w" x="498.166" y="487.011"/><use xlink:href="#au" x="505.358" y="487.011"/><use xlink:href="#l" x="512.549" y="487.011"/><use xlink:href="#aJ" x="514.626" y="487.011"/><use xlink:href="#E" x="521.818" y="487.011"/><use xlink:href="#F" x="529.009" y="487.011"/></g><g><use xlink:href="#ag" x="419.726" y="716.087"/><use xlink:href="#bd" x="428.715" y="716.087"/><use xlink:href="#be" x="437.704" y="716.087"/></g><g><use xlink:href="#u" x="419.726" y="732.307"/><use xlink:href="#l" x="422.099" y="732.307"/><use xlink:href="#an" x="424.176" y="732.307"/><use xlink:href="#ao" x="431.368" y="732.307"/><use xlink:href="#D" x="438.559" y="732.307"/><use xlink:href="#w" x="445.75" y="732.307"/><use xlink:href="#E" x="452.941" y="732.307"/><use xlink:href="#l" x="460.133" y="732.307"/><use xlink:href="#bf" x="462.21" y="732.307"/><use xlink:href="#w" x="469.401" y="732.307"/><use xlink:href="#bg" x="476.593" y="732.307"/><use xlink:href="#bh" x="483.784" y="732.307"/><use xlink:href="#bi" x="490.975" y="732.307"/><use xlink:href="#l" x="498.166" y="732.307"/><use xlink:href="#K" x="500.244" y="732.307"/><use xlink:href="#bj" x="507.435" y="732.307"/><use xlink:href="#P" x="514.626" y="732.307"/><use xlink:href="#Q" x="521.818" y="732.307"/></g><g><use xlink:href="#u" x="419.726" y="747.289"/><use xlink:href="#l" x="422.099" y="747.289"/><use xlink:href="#bk" x="424.176" y="747.289"/><use xlink:href="#bl" x="431.368" y="747.289"/><use xlink:href="#y" x="438.559" y="747.289"/></g><g><use xlink:href="#bm" x="231.097" y="470.791"/><use xlink:href="#bn" x="240.086" y="470.791"/><use xlink:href="#bo" x="249.075" y="470.791"/><use xlink:href="#T" x="258.064" y="470.791"/></g><g><use xlink:href="#u" x="231.097" y="487.011"/><use xlink:href="#l" x="233.47" y="487.011"/><use xlink:href="#aj" x="235.547" y="487.011"/><use xlink:href="#w" x="242.739" y="487.011"/><use xlink:href="#l" x="249.93" y="487.011"/><use xlink:href="#I" x="252.007" y="487.011"/><use xlink:href="#w" x="259.199" y="487.011"/><use xlink:href="#l" x="266.39" y="487.011"/><use xlink:href="#x" x="268.467" y="487.011"/><use xlink:href="#y" x="275.659" y="487.011"/></g><g><use xlink:href="#u" x="231.097" y="501.993"/><use xlink:href="#l" x="233.47" y="501.993"/><use xlink:href="#an" x="235.547" y="501.993"/><use xlink:href="#ao" x="242.739" y="501.993"/><use xlink:href="#D" x="249.93" y="501.993"/><use xlink:href="#w" x="257.121" y="501.993"/><use xlink:href="#E" x="264.312" y="501.993"/><use xlink:href="#l" x="271.504" y="501.993"/><use xlink:href="#aq" x="273.581" y="501.993"/><use xlink:href="#ar" x="280.772" y="501.993"/><use xlink:href="#as" x="287.964" y="501.993"/><use xlink:href="#at" x="295.155" y="501.993"/><use xlink:href="#au" x="302.346" y="501.993"/><use xlink:href="#l" x="309.537" y="501.993"/><use xlink:href="#E" x="311.615" y="501.993"/><use xlink:href="#F" x="318.806" y="501.993"/></g><g><use xlink:href="#u" x="231.097" y="516.974"/><use xlink:href="#l" x="233.47" y="516.974"/><use xlink:href="#I" x="235.547" y="516.974"/><use xlink:href="#ab" x="242.739" y="516.974"/><use xlink:href="#A" x="249.93" y="516.974"/><use xlink:href="#aQ" x="257.121" y="516.974"/><use xlink:href="#aR" x="264.312" y="516.974"/><use xlink:href="#Q" x="271.504" y="516.974"/><use xlink:href="#l" x="278.695" y="516.974"/><use xlink:href="#I" x="280.772" y="516.974"/><use xlink:href="#w" x="287.964" y="516.974"/><use xlink:href="#aQ" x="295.155" y="516.974"/><use xlink:href="#aR" x="302.346" y="516.974"/><use xlink:href="#bg" x="309.537" y="516.974"/><use xlink:href="#bh" x="316.729" y="516.974"/><use xlink:href="#ad" x="323.92" y="516.974"/><use xlink:href="#ae" x="331.111" y="516.974"/><use xlink:href="#l" x="338.302" y="516.974"/><use xlink:href="#ad" x="340.38" y="516.974"/><use xlink:href="#ae" x="347.571" y="516.974"/><use xlink:href="#af" x="354.762" y="516.974"/></g><g><use xlink:href="#u" x="231.097" y="531.956"/><use xlink:href="#l" x="233.47" y="531.956"/><use xlink:href="#ac" x="235.547" y="531.956"/><use xlink:href="#ac" x="242.739" y="531.956"/><use xlink:href="#aL" x="249.93" y="531.956"/><use xlink:href="#bp" x="257.121" y="531.956"/><use xlink:href="#I" x="264.312" y="531.956"/><use xlink:href="#aO" x="271.504" y="531.956"/><use xlink:href="#bq" x="278.695" y="531.956"/><use xlink:href="#br" x="285.886" y="531.956"/><use xlink:href="#Q" x="293.077" y="531.956"/><use xlink:href="#l" x="300.269" y="531.956"/><use xlink:href="#O" x="302.346" y="531.956"/><use xlink:href="#bs" x="309.537" y="531.956"/><use xlink:href="#aZ" x="316.729" y="531.956"/><use xlink:href="#ba" x="323.92" y="531.956"/><use xlink:href="#bt" x="331.111" y="531.956"/><use xlink:href="#ar" x="338.302" y="531.956"/><use xlink:href="#ba" x="345.494" y="531.956"/><use xlink:href="#bl" x="352.685" y="531.956"/><use xlink:href="#M" x="359.876" y="531.956"/><use xlink:href="#N" x="367.067" y="531.956"/><use xlink:href="#bu" x="374.259" y="531.956"/><use xlink:href="#Q" x="381.45" y="531.956"/><use xlink:href="#bi" x="388.641" y="531.956"/><use xlink:href="#l" x="395.832" y="531.956"/></g><g><use xlink:href="#l" x="231.097" y="546.938"/><use xlink:href="#l" x="233.174" y="546.938"/><use xlink:href="#l" x="235.252" y="546.938"/><use xlink:href="#aK" x="237.329" y="546.938"/><use xlink:href="#bv" x="244.521" y="546.938"/><use xlink:href="#bu" x="251.712" y="546.938"/><use xlink:href="#Q" x="258.903" y="546.938"/><use xlink:href="#aY" x="266.094" y="546.938"/><use xlink:href="#au" x="273.286" y="546.938"/><use xlink:href="#l" x="280.477" y="546.938"/><use xlink:href="#aY" x="282.554" y="546.938"/><use xlink:href="#au" x="289.745" y="546.938"/><use xlink:href="#af" x="296.937" y="546.938"/></g><g><use xlink:href="#bw" x="231.097" y="716.087"/><use xlink:href="#bx" x="240.086" y="716.087"/><use xlink:href="#by" x="249.075" y="716.087"/></g><g><use xlink:href="#u" x="231.097" y="732.307"/><use xlink:href="#l" x="233.47" y="732.307"/><use xlink:href="#an" x="235.547" y="732.307"/><use xlink:href="#ao" x="242.739" y="732.307"/><use xlink:href="#D" x="249.93" y="732.307"/><use xlink:href="#w" x="257.121" y="732.307"/><use xlink:href="#E" x="264.312" y="732.307"/><use xlink:href="#ap" x="271.504" y="732.307"/><use xlink:href="#Q" x="278.695" y="732.307"/><use xlink:href="#l" x="285.886" y="732.307"/><use xlink:href="#bz" x="287.964" y="732.307"/><use xlink:href="#bA" x="295.155" y="732.307"/><use xlink:href="#I" x="302.346" y="732.307"/><use xlink:href="#w" x="309.537" y="732.307"/><use xlink:href="#au" x="316.729" y="732.307"/><use xlink:href="#l" x="323.92" y="732.307"/><use xlink:href="#aJ" x="325.997" y="732.307"/><use xlink:href="#E" x="333.189" y="732.307"/><use xlink:href="#F" x="340.38" y="732.307"/></g><g fill="#fff"><use xlink:href="#bB" x="30.093" y="54.085"/><use xlink:href="#bC" x="40.88" y="54.085"/><use xlink:href="#bD" x="51.667" y="54.085"/><use xlink:href="#bE" x="62.454" y="54.085"/><use xlink:href="#bF" x="73.24" y="54.085"/><use xlink:href="#bG" x="84.027" y="54.085"/></g></svg>