<svg xmlns="http://www.w3.org/2000/svg" xmlns:xlink="http://www.w3.org/1999/xlink" width="793.701" height="1122.52" viewBox="0 0 595.276 841.89" version="1.2"><defs><symbol overflow="visible" id="a"><path d="M3.688-4.531H2.046l-.25.875a.613.613 0 0 1 .11-.016H2c.508 0 .93.176 1.266.516.332.344.5.789.5 1.328 0 .555-.192 1.012-.563 1.375-.375.355-.851.531-1.422.531C1.082.078.535-.25.141-.906l.593-.5c.164.281.332.48.5.593.164.118.375.172.625.172.309 0 .579-.109.797-.328.215-.226.328-.508.328-.844 0-.332-.113-.609-.328-.828a1.075 1.075 0 0 0-.797-.328c-.355 0-.664.16-.921.469H.671L1.5-5.281h2.188zm0 0"/></symbol><symbol overflow="visible" id="b"><path d="M.297-2.672c0-.84.195-1.515.594-2.015.34-.446.765-.672 1.265-.672.496 0 .926.226 1.281.671.383.5.579 1.184.579 2.047 0 .868-.196 1.551-.579 2.047-.355.45-.785.672-1.28.672-.493 0-.915-.223-1.266-.672C.492-1.09.297-1.785.297-2.672zm.781 0c0 .586.102 1.074.313 1.469.195.375.453.562.765.562.309 0 .57-.187.781-.562.208-.383.313-.863.313-1.438 0-.57-.105-1.05-.313-1.437-.21-.371-.472-.563-.78-.563-.305 0-.56.192-.766.563-.211.375-.313.848-.313 1.406zm0 0"/></symbol><symbol overflow="visible" id="d"><path d="M.64 0H1v-4.375H.64zm0 0"/></symbol><symbol overflow="visible" id="e"><path d="M1.453 0h.406l1.422-4.375h-.375l-.781 2.516c-.156.53-.281.937-.453 1.468H1.64c-.172-.53-.282-.937-.454-1.468l-.78-2.516H.03zm0 0"/></symbol><symbol overflow="visible" id="f"><path d="M.75-.156c.156 0 .313-.11.313-.313A.317.317 0 0 0 .75-.797a.317.317 0 0 0-.313.328c0 .203.157.313.313.313zm0 0"/></symbol><symbol overflow="visible" id="h"><path d="M.266 0h2.64v-.313h-1.36c-.234 0-.484.016-.718.032 1.156-1.078 1.86-2 1.86-2.922 0-.75-.438-1.25-1.204-1.25-.53 0-.906.266-1.234.625l.219.219c.25-.313.594-.547.984-.547.61 0 .89.422.89.968 0 .797-.593 1.688-2.077 2.97zm0 0"/></symbol><symbol overflow="visible" id="i"><path d="M1.61.078c.796 0 1.28-.75 1.28-2.281 0-1.516-.484-2.25-1.28-2.25-.798 0-1.298.734-1.298 2.25C.313-.672.813.078 1.61.078zm0-.297c-.579 0-.938-.656-.938-1.984 0-1.297.36-1.953.937-1.953.563 0 .938.656.938 1.953 0 1.328-.375 1.984-.938 1.984zm0 0"/></symbol><symbol overflow="visible" id="j"><path d="M.547 0h2.265v-.313h-.921v-4.062h-.282c-.203.125-.468.219-.828.281v.235h.766v3.546h-1zm0 0"/></symbol><symbol overflow="visible" id="k"><path d="M4.36-.938h.327v-3.968H4.36v.75H2.72v.265h1.64v.766H2.72v.266h1.64zM3.405-2.28c-.875.156-1.61.203-2.36.203H.985V-4.5H.656v2.688h.39c.766 0 1.5-.032 2.391-.204zM1.656.016v-1.282h-.312V.281h3.5V.016zm0 0"/></symbol><symbol overflow="visible" id="l"><path d="M2.016-4.422h-.313v1.063C1.703-2.391.984-1.375.281-1l.203.25c.579-.328 1.157-1.047 1.391-1.875.234.781.797 1.453 1.375 1.766l.203-.25c-.703-.36-1.437-1.329-1.437-2.25zm3.312 1.734h-.937v-2.218h-.313V.422h.313v-2.844h.937zm0 0"/></symbol><symbol overflow="visible" id="m"><path d="M4.36.078H1.671v-.812h2.687zM4.36-1H1.671v-.766h-.328v2.11h3.343v-2.11H4.36zM1.78-2.5c-.61 0-1.047-.406-1.047-.938 0-.546.438-.937 1.047-.937.61 0 1.047.39 1.047.938 0 .53-.437.937-1.047.937zM4.36-4.906v1.312H3.125c-.078-.64-.61-1.062-1.344-1.062-.797 0-1.343.5-1.343 1.218 0 .72.546 1.22 1.343 1.22.75 0 1.282-.438 1.344-1.095h1.234v1.266h.329v-2.86zm0 0"/></symbol><symbol overflow="visible" id="n"><path d="M1.266-3.203H4.25v1.11H1.266zm1.64 2.64v-1.25h1.656v-2.703H4.25v1.032H1.266v-1.032H.937v2.704h1.657v1.25H.344v.265h4.828v-.266zm0 0"/></symbol><symbol overflow="visible" id="o"><path d="M4.188-3.781c0 .64 0 1.36-.188 2.36l.328.046c.188-1.047.188-1.766.188-2.406v-.531H.859v.25h3.329zM2.625-.671V-2.61h-.313v1.937H.345v.281h4.812v-.28zm0 0"/></symbol><symbol overflow="visible" id="p"><path d="M2.766.125c.625 0 1.156-.266 1.578-.64l-.266-.376c-.328.297-.766.547-1.281.547-1.031 0-1.719-.86-1.719-2.11 0-1.265.75-2.124 1.734-2.124.454 0 .813.203 1.126.5l.296-.375c-.343-.297-.78-.594-1.437-.594-1.219 0-2.281.953-2.281 2.594 0 1.625.968 2.578 2.25 2.578zm0 0"/></symbol><symbol overflow="visible" id="q"><path d="M2.016.125c.625 0 1.218-.344 1.718-.75h.016L3.797 0h.453v-3.125c0-1.078-.406-1.922-1.578-1.922-.813 0-1.485.39-1.875.64l.25.391c.344-.265.906-.562 1.547-.562.937 0 1.14.75 1.125 1.484-2.172.25-3.14.766-3.14 1.86 0 .906.64 1.359 1.437 1.359zm.109-.453c-.547 0-1-.266-1-.938 0-.75.656-1.203 2.594-1.437v1.61c-.578.5-1.047.765-1.594.765zm0 0"/></symbol><symbol overflow="visible" id="r"><path d="M1.578.125c.172 0 .266-.031.36-.063l-.079-.421c-.109.015-.14.015-.171.015-.141 0-.235-.094-.235-.328v-6.672H.922v6.61c0 .578.219.859.656.859zm0 0"/></symbol><symbol overflow="visible" id="s"><path d="M2.813.125c.703 0 1.171-.234 1.562-.484L4.172-.75c-.375.25-.781.422-1.313.422-1.062 0-1.765-.844-1.796-2.047h3.484c.031-.125.031-.25.031-.39 0-1.438-.703-2.282-1.906-2.282-1.11 0-2.156 1-2.156 2.594 0 1.61 1.03 2.578 2.296 2.578zm-1.75-2.922c.093-1.125.828-1.797 1.625-1.797.859 0 1.406.61 1.406 1.797zm0 0"/></symbol><symbol overflow="visible" id="t"><path d="M2.563.125c.624 0 1.171-.344 1.578-.75h.015L4.22 0h.437v-7.344h-.531v2l.047.89c-.484-.374-.89-.593-1.469-.593-1.172 0-2.187 1-2.187 2.594 0 1.656.812 2.578 2.046 2.578zm.093-.469c-1 0-1.562-.844-1.562-2.11 0-1.218.718-2.124 1.656-2.124.469 0 .875.172 1.375.61v2.843c-.484.5-.953.781-1.469.781zm0 0"/></symbol><symbol overflow="visible" id="v"><path d="M.984 0h.547v-3.188h2.672v-.484H1.531v-2.594h3.157v-.468H.983zm0 0"/></symbol><symbol overflow="visible" id="w"><path d="M.984 0H2.97c1.515 0 2.515-.672 2.515-1.969 0-.922-.578-1.468-1.437-1.61v-.046c.672-.203 1.031-.781 1.031-1.469 0-1.14-.89-1.64-2.25-1.64H.984zm.547-3.797V-6.28H2.72c1.187 0 1.812.328 1.812 1.25 0 .765-.547 1.234-1.875 1.234zm0 3.328v-2.89h1.313c1.344 0 2.094.453 2.094 1.39 0 1.047-.797 1.5-2.094 1.5zm0 0"/></symbol><symbol overflow="visible" id="x"><path d="M.984 0H1.5v-4.031c0-.672-.047-1.313-.063-1.953h.047l.75 1.343L4.984 0h.563v-6.734H5.03v3.984c0 .656.032 1.344.063 2h-.047l-.75-1.36-2.75-4.624H.984zm0 0"/></symbol><symbol overflow="visible" id="y"><path d="M1.547-2.703l.406-1.219c.266-.781.5-1.5.734-2.312h.032c.25.812.469 1.53.75 2.312l.406 1.219zM4.766 0h.593L3-6.734h-.578L.078 0h.547l.766-2.266h2.625zm0 0"/></symbol><symbol overflow="visible" id="z"><path d="M.64 1.281C1.298.938 1.75.328 1.75-.469c0-.469-.203-.765-.547-.765-.266 0-.484.156-.484.453 0 .297.219.469.469.469.046 0 .078 0 .109-.016 0 .578-.313 1-.813 1.25zm0 0"/></symbol><symbol overflow="visible" id="A"><path d="M.922 0h.531v-3.688c.578-.593.984-.89 1.563-.89.75 0 1.078.484 1.078 1.5V0h.531v-3.156c0-1.25-.469-1.89-1.5-1.89-.672 0-1.172.39-1.672.874h-.016l-.078-.75H.922zm0 0"/></symbol><symbol overflow="visible" id="B"><path d="M2.14.125c1.079 0 1.688-.656 1.688-1.406 0-.953-.844-1.219-1.594-1.5-.578-.219-1.14-.422-1.14-.969 0-.438.328-.844 1.062-.844.469 0 .828.188 1.172.438l.266-.375a2.32 2.32 0 0 0-1.422-.516c-1.031 0-1.625.61-1.625 1.328 0 .844.812 1.156 1.547 1.406.578.204 1.187.47 1.187 1.063 0 .5-.375.922-1.125.922-.672 0-1.125-.25-1.547-.61l-.28.391c.437.36 1.077.672 1.812.672zm0 0"/></symbol><symbol overflow="visible" id="C"><path d="M.922 0h.531v-3.688c.578-.593.984-.89 1.563-.89.75 0 1.078.484 1.078 1.5V0h.531v-3.156c0-1.25-.469-1.89-1.5-1.89-.672 0-1.172.39-1.672.874v-3.172H.922zm0 0"/></symbol><symbol overflow="visible" id="D"><path d="M2.75.125c1.188 0 2.219-.953 2.219-2.578 0-1.64-1.032-2.594-2.219-2.594-1.203 0-2.234.953-2.234 2.594C.516-.828 1.546.125 2.75.125zm0-.469c-.969 0-1.672-.86-1.672-2.11 0-1.265.703-2.124 1.672-2.124.953 0 1.656.86 1.656 2.125 0 1.25-.703 2.11-1.656 2.11zm0 0"/></symbol><symbol overflow="visible" id="E"><path d="M1.688 0h.64l.797-2.953c.156-.469.266-.938.39-1.422h.047c.126.484.22.938.36 1.406L4.75 0h.703l1.375-4.922h-.516l-.843 3.11c-.125.468-.235.89-.344 1.328h-.031c-.14-.438-.25-.86-.36-1.329l-.89-3.109h-.578l-.891 3.11c-.11.453-.219.89-.344 1.328h-.047c-.093-.438-.203-.86-.312-1.329l-.86-3.109H.235zm0 0"/></symbol><symbol overflow="visible" id="F"><path d="M2.313.125c.218 0 .53-.094.812-.188L3-.483c-.172.078-.422.14-.594.14-.656 0-.828-.406-.828-1.015v-3.11h1.406v-.453H1.578v-1.422h-.453l-.063 1.422-.78.047v.406h.765v3.063c0 .922.297 1.531 1.266 1.531zm0 0"/></symbol><symbol overflow="visible" id="G"><path d="M3.781-4.922H1.547v-.828c0-.734.297-1.156.86-1.156.218 0 .452.047.687.156l.14-.438a2.28 2.28 0 0 0-.859-.171C1.5-7.36 1-6.813 1-5.781v.86l-.672.046v.406H1V0h.547v-4.469H3.78V0h.531v-4.469h1.125v-.453H4.313v-1c0-.703.235-1.094.75-1.094.188 0 .391.047.594.141l.125-.422c-.234-.094-.484-.172-.734-.172-.844 0-1.266.532-1.266 1.516zM6.453 0h.531v-4.922h-.53zm.266-6.938c-.25 0-.453.157-.453.438 0 .25.203.422.453.422s.453-.172.453-.422c0-.281-.203-.438-.453-.438zm0 0"/></symbol><symbol overflow="visible" id="H"><path d="M.922 0h.531v-4.922H.922zm.281-6.078c.234 0 .453-.172.453-.422 0-.281-.218-.438-.453-.438-.25 0-.453.157-.453.438 0 .25.203.422.453.422zm0 0"/></symbol><symbol overflow="visible" id="I"><path d="M.781 2.219c.906 0 1.406-.797 1.703-1.64l1.922-5.5H3.86l-1 3.015c-.14.422-.296.937-.453 1.375H2.36C2.188-.97 2-1.484 1.844-1.906L.704-4.922H.124l2.016 5L2 .484c-.234.72-.64 1.25-1.219 1.25-.14 0-.297-.03-.406-.078l-.11.453c.126.063.329.11.516.11zm0 0"/></symbol><symbol overflow="visible" id="J"><path d="M3.016-7.297c-.235-.094-.5-.172-.75-.172C1.437-7.469 1-6.937 1-5.953v1.031l-.672.047v.406H1V0h.547v-4.469h1.11v-.453h-1.11v-1c0-.703.219-1.094.75-1.094.187 0 .375.047.578.141zm0 0"/></symbol><symbol overflow="visible" id="K"><path d="M.922 2.203h.531V-.484c.5.39.984.609 1.453.609 1.14 0 2.156-.984 2.156-2.672 0-1.5-.656-2.5-1.968-2.5-.594 0-1.156.36-1.64.719h-.016l-.079-.594H.922zM2.859-.344c-.359 0-.875-.172-1.406-.61v-2.843c.578-.5 1.063-.781 1.531-.781 1.11 0 1.516.86 1.516 2.031 0 1.328-.688 2.203-1.64 2.203zm0 0"/></symbol><symbol overflow="visible" id="L"><path d="M.922 0h.531v-3.313c.36-.906.89-1.234 1.328-1.234a.91.91 0 0 1 .453.094l.11-.484c-.156-.094-.313-.11-.5-.11-.578 0-1.063.422-1.39 1.047h-.016l-.079-.922H.922zm0 0"/></symbol><symbol overflow="visible" id="M"><path d="M2.906.125c1.14 0 2.156-.984 2.156-2.672 0-1.5-.656-2.5-1.968-2.5-.594 0-1.172.344-1.656.75l.015-.937v-2.11H.922V0h.437l.063-.5h.016c.453.375 1 .625 1.468.625zM2.86-.344c-.359 0-.89-.172-1.406-.61v-2.843c.563-.5 1.063-.781 1.531-.781 1.11 0 1.516.86 1.516 2.031 0 1.328-.688 2.203-1.64 2.203zm0 0"/></symbol><symbol overflow="visible" id="N"><path d="M2.547 2.344c1.437 0 2.36-.813 2.36-1.672 0-.781-.532-1.14-1.641-1.14H2.219c-.703 0-.922-.266-.922-.61 0-.313.187-.516.39-.688.22.125.532.204.797.204.97 0 1.735-.72 1.735-1.735 0-.5-.219-.922-.5-1.187h1.11v-.438H3.14a1.812 1.812 0 0 0-.657-.125c-.968 0-1.765.719-1.765 1.734 0 .594.312 1.094.625 1.344v.032c-.219.171-.547.5-.547.921 0 .391.203.641.453.797v.047C.797.125.516.562.516 1c0 .828.796 1.344 2.03 1.344zM2.484-1.97c-.656 0-1.234-.531-1.234-1.343 0-.813.563-1.313 1.234-1.313.672 0 1.22.5 1.22 1.313 0 .812-.579 1.343-1.22 1.343zm.125 3.907c-1.015 0-1.593-.407-1.593-1 0-.344.187-.704.609-1 .25.062.516.093.625.093h1c.734 0 1.125.188 1.125.719 0 .594-.703 1.188-1.766 1.188zm0 0"/></symbol><symbol overflow="visible" id="O"><path d="M.922 0h.531v-3.688c.516-.593 1-.89 1.422-.89.734 0 1.063.484 1.063 1.5V0h.546v-3.688c.516-.593.97-.89 1.422-.89.719 0 1.063.484 1.063 1.5V0H7.5v-3.156c0-1.25-.484-1.89-1.484-1.89-.563 0-1.11.39-1.657 1-.171-.61-.578-1-1.359-1-.547 0-1.11.39-1.547.874h-.016l-.078-.75H.922zm0 0"/></symbol><symbol overflow="visible" id="P"><path d="M1.516-8.094c-.594.39-.922.906-.922 1.64 0 .485.187.75.5.75.25 0 .437-.155.437-.452 0-.266-.234-.407-.437-.407H1c0-.562.234-.906.703-1.25zm1.515 0c-.578.39-.922.906-.922 1.64 0 .485.188.75.5.75.25 0 .422-.155.422-.452 0-.266-.219-.407-.422-.407h-.078c0-.562.235-.906.688-1.25zm0 0"/></symbol><symbol overflow="visible" id="Q"><path d="M.797-5.688c.578-.375.937-.89.937-1.64 0-.469-.203-.75-.515-.75-.25 0-.422.172-.422.453 0 .266.203.406.422.406h.093c0 .563-.234.907-.718 1.25zm1.515 0c.594-.375.938-.89.938-1.64 0-.469-.203-.75-.5-.75-.25 0-.438.172-.438.453 0 .266.22.406.438.406h.078c0 .563-.234.907-.703 1.25zm0 0"/></symbol><symbol overflow="visible" id="R"><path d="M1.156-.234a.478.478 0 0 0 .469-.5c0-.313-.234-.5-.469-.5-.25 0-.468.187-.468.5 0 .312.218.5.468.5zm0 0"/></symbol><symbol overflow="visible" id="S"><path d="M1.781 0h.625l1.156-4.5c.126-.531.266-1 .376-1.516h.03c.126.516.235.985.36 1.516L5.516 0h.625l1.484-6.734h-.547l-.812 3.906a49.18 49.18 0 0 0-.422 2.187h-.047c-.188-.734-.344-1.468-.531-2.187L4.234-6.734h-.546L2.671-2.828c-.172.719-.36 1.453-.516 2.187H2.11a90.069 90.069 0 0 0-.453-2.187L.844-6.734H.28zm0 0"/></symbol><symbol overflow="visible" id="T"><path d="M2.344.125c.672 0 1.172-.39 1.656-.938h.031L4.078 0h.453v-4.922h-.547v3.594c-.546.672-.953.969-1.53.969-.75 0-1.063-.47-1.063-1.485v-3.078H.844v3.156c0 1.25.469 1.891 1.5 1.891zm0 0"/></symbol><symbol overflow="visible" id="U"><path d="M4.125 2.203h.531v-7.125h-.422l-.062.469H4.14c-.454-.375-.86-.594-1.438-.594-1.172 0-2.187 1-2.187 2.594 0 1.656.812 2.578 2.046 2.578.626 0 1.172-.344 1.61-.766l-.047.97zM2.656-.344c-1 0-1.562-.844-1.562-2.11 0-1.218.718-2.124 1.656-2.124.469 0 .875.172 1.375.61v2.843c-.484.5-.953.781-1.469.781zm0 0"/></symbol><symbol overflow="visible" id="V"><path d="M.422-3.281h2.265v-.453H.422zm0 0"/></symbol><symbol overflow="visible" id="W"><path d="M.984 0h.547v-3.328h3.5V0h.547v-6.734h-.547v2.921h-3.5v-2.921H.984zm0 0"/></symbol><symbol overflow="visible" id="X"><path d="M2.047 0h.547v-2.703l2.031-4.031h-.578l-.984 2.062c-.22.484-.47.953-.72 1.453h-.046c-.25-.5-.453-.969-.703-1.453L.609-6.734H.016l2.03 4.03zm0 0"/></symbol><symbol overflow="visible" id="Y"><path d="M.984 0h.547v-2.844h1.235c1.484 0 2.421-.64 2.421-2 0-1.39-.937-1.89-2.468-1.89H.984zm.547-3.313v-2.953H2.61c1.344 0 2.016.344 2.016 1.422 0 1.078-.64 1.532-1.969 1.532zm0 0"/></symbol><symbol overflow="visible" id="Z"><path d="M.422 0h4.047v-.484H2.375c-.36 0-.734.03-1.11.062 1.798-1.672 2.876-3.094 2.876-4.5 0-1.156-.688-1.937-1.86-1.937-.812 0-1.39.406-1.89.984l.343.313c.391-.485.907-.844 1.485-.844.953 0 1.375.656 1.375 1.5 0 1.218-.89 2.61-3.172 4.578zm0 0"/></symbol><symbol overflow="visible" id="aa"><path d="M.313 2.313c.796 0 1.156-.5 1.156-1.485v-5.75H.922V.812c0 .625-.094 1.047-.64 1.047a1.52 1.52 0 0 1-.516-.093l-.11.421c.156.079.406.126.656.126zm.89-8.391c.25 0 .453-.172.453-.422 0-.281-.203-.438-.453-.438S.75-6.78.75-6.5c0 .25.203.422.453.422zm0 0"/></symbol><symbol overflow="visible" id="ab"><path d="M.844 0h3.484v-.469H2.922v-6.265h-.438c-.328.187-.734.328-1.28.421v.36h1.171V-.47H.844zm0 0"/></symbol><symbol overflow="visible" id="ac"><path d="M2.234 1.125l.329-.172c-.813-1.297-1.22-2.86-1.22-4.469 0-1.593.407-3.171 1.22-4.453l-.329-.172C1.391-6.78.891-5.312.891-3.516c0 1.813.5 3.282 1.343 4.641zm0 0"/></symbol><symbol overflow="visible" id="ad"><path d="M.5 0h4.531v-.484H1.188l3.796-5.922v-.328H.844v.468h3.453L.5-.328zm0 0"/></symbol><symbol overflow="visible" id="ae"><path d="M3.344.125c1.64 0 2.797-1.375 2.797-3.516 0-2.125-1.157-3.468-2.797-3.468C1.719-6.86.547-5.516.547-3.391.547-1.25 1.719.125 3.344.125zm0-.5c-1.328 0-2.203-1.188-2.203-3.016s.875-2.968 2.203-2.968c1.344 0 2.219 1.14 2.219 2.968 0 1.829-.875 3.016-2.22 3.016zm0 0"/></symbol><symbol overflow="visible" id="af"><path d="M.672 1.125c.844-1.36 1.344-2.828 1.344-4.64 0-1.797-.5-3.266-1.344-4.626l-.328.172c.797 1.282 1.219 2.86 1.219 4.453 0 1.61-.422 3.172-1.22 4.47zm0 0"/></symbol><symbol overflow="visible" id="ag"><path d="M.922 0h.531v-1.328l1.063-1.25L4.109 0h.594L2.828-2.969l1.61-1.953h-.61L1.484-2.016h-.03v-5.328H.921zm0 0"/></symbol><symbol overflow="visible" id="ah"><path d="M.797-5.688c.578-.375.937-.89.937-1.64 0-.469-.203-.75-.515-.75-.25 0-.422.172-.422.453 0 .266.203.406.422.406h.093c0 .563-.234.907-.718 1.25zm0 0"/></symbol><symbol overflow="visible" id="ai"><path d="M.984 0h.5v-4.266c0-.562-.03-1.296-.062-1.859h.031l.531 1.5L3.406-.719h.438l1.422-3.906.53-1.5h.032a36.946 36.946 0 0 0-.062 1.86V0h.515v-6.734h-.734L4.172-2.86c-.172.484-.328.984-.5 1.468h-.047l-.516-1.468-1.39-3.875H.984zm0 0"/></symbol><symbol overflow="visible" id="aj"><path d="M3.469.125c.906 0 1.594-.313 2.031-.766v-2.718H3.39v.484h1.563v2.016c-.297.312-.86.484-1.422.484-1.515 0-2.39-1.172-2.39-3.016 0-1.812.921-2.968 2.421-2.968.735 0 1.188.312 1.532.687l.328-.375c-.375-.375-.953-.812-1.86-.812-1.78 0-3.015 1.343-3.015 3.484 0 2.156 1.187 3.5 2.922 3.5zm0 0"/></symbol><symbol overflow="visible" id="ak"><path d="M3.25.125c1.203 0 2.313-.64 2.313-2.75v-4.11H5.03v4.079c0 1.75-.828 2.281-1.781 2.281-.938 0-1.75-.531-1.75-2.281v-4.078H.953v4.109c0 2.11 1.094 2.75 2.297 2.75zm0 0"/></symbol><symbol overflow="visible" id="al"><path d="M.984 0h.547v-2.266l1.328-1.53L5.031 0h.64L3.22-4.234l2.14-2.5h-.656L1.547-3.078H1.53v-3.656H.984zm0 0"/></symbol><symbol overflow="visible" id="am"><path d="M.14 0H.72L1.5-1.297c.203-.312.375-.61.563-.906h.046c.204.297.391.594.563.906L3.516 0h.593L2.453-2.516 3.97-4.922h-.563l-.734 1.203c-.156.281-.313.547-.485.813h-.03c-.188-.266-.36-.531-.532-.813l-.75-1.203H.281l1.516 2.344zm0 0"/></symbol><symbol overflow="visible" id="an"><path d="M1.953 0h.625l1.813-4.922h-.547L2.78-1.906c-.156.484-.328.984-.484 1.422H2.25a49.737 49.737 0 0 1-.484-1.422L.703-4.922H.125zm0 0"/></symbol><symbol overflow="visible" id="ao"><path d="M.984 0h1.594c2.063 0 3.078-1.328 3.078-3.39 0-2.063-1.015-3.344-3.093-3.344H.984zm.547-.469v-5.797h.985c1.765 0 2.546 1.125 2.546 2.875S4.282-.469 2.517-.469zm0 0"/></symbol><symbol overflow="visible" id="ap"><path d="M.984 0h3.61v-.484H1.53v-6.25H.984zm0 0"/></symbol><symbol overflow="visible" id="aq"><path d="M.984 0h.547v-6.734H.984zm0 0"/></symbol><symbol overflow="visible" id="ar"><path d="M.094.938H.53L3.578-7.97h-.437zm0 0"/></symbol><symbol overflow="visible" id="as"><path d="M5.781-7.297c-.234-.094-.484-.172-.734-.172-.844 0-1.266.532-1.266 1.516v1.031H1.547v-.828c0-.734.297-1.156.86-1.156.218 0 .452.047.687.156l.14-.438a2.28 2.28 0 0 0-.859-.171C1.5-7.36 1-6.813 1-5.781v.86l-.672.046v.406H1V0h.547v-4.469H3.78V0h.531v-4.469h1.125v-.453H4.313v-1c0-.703.235-1.094.75-1.094.188 0 .391.047.594.141zm0 0"/></symbol><symbol overflow="visible" id="at"><path d="M3.39.125c.876 0 1.5-.36 2.016-.969l-.312-.344c-.469.516-.985.813-1.672.813-1.406 0-2.281-1.172-2.281-3.016 0-1.812.89-2.968 2.312-2.968.625 0 1.094.28 1.453.687l.328-.375a2.377 2.377 0 0 0-1.78-.812C1.75-6.86.546-5.516.546-3.375c0 2.156 1.187 3.5 2.844 3.5zm0 0"/></symbol><symbol overflow="visible" id="au"><path d="M2.344.125c1.062 0 2.094-.828 2.094-2.281 0-1.5-.875-2.172-1.985-2.172-.469 0-.812.14-1.125.328l.188-2.266h2.593v-.468H1.031L.797-3.656l.36.219c.374-.266.702-.438 1.187-.438.937 0 1.547.656 1.547 1.734 0 1.094-.72 1.797-1.579 1.797-.874 0-1.374-.39-1.765-.797L.266-.75c.421.422 1.03.875 2.078.875zm0 0"/></symbol><symbol overflow="visible" id="av"><path d="M2.469.125c1.219 0 1.984-1.156 1.984-3.516 0-2.328-.766-3.468-1.984-3.468C1.25-6.86.484-5.72.484-3.391.484-1.03 1.25.125 2.47.125zm0-.453c-.875 0-1.438-1.016-1.438-3.063 0-2 .563-3.015 1.438-3.015s1.453 1.015 1.453 3.015c0 2.047-.578 3.063-1.453 3.063zm0 0"/></symbol><symbol overflow="visible" id="aw"><path d="M.922 1.844h.547C1.406 1.03 1.406.609 1.406-.47c.266.485.64.578 1.11.578.593 0 1.109-.312 1.515-1h.016c.031.704.203 1.016.703 1.016.203 0 .36-.047.469-.11L5.14-.405a.778.778 0 0 1-.297.062c-.188 0-.313-.125-.313-.375 0-1.36.016-2.781.032-4.203H4.03v3.469C3.47-.5 3-.36 2.5-.36c-.734 0-1.047-.532-1.047-1.485v-3.078H.922zm0 0"/></symbol><symbol overflow="visible" id="aG"><path d="M2.406 0h.563v-6.266h2.125v-.468H.297v.468h2.11zm0 0"/></symbol><symbol overflow="visible" id="aH"><path d="M1.89 0h.579c.11-2.625.437-4.313 2.031-6.406v-.328H.437v.468h3.407C2.516-4.39 2-2.687 1.89 0zm0 0"/></symbol><symbol overflow="visible" id="aI"><path d="M2.5.125c1.203 0 2.016-.766 2.016-1.719 0-.922-.579-1.406-1.141-1.75v-.047c.375-.296.922-.937.922-1.671 0-1.016-.672-1.766-1.781-1.766-.985 0-1.735.687-1.735 1.672 0 .703.438 1.203.922 1.531v.031c-.625.344-1.281 1-1.281 1.922C.422-.64 1.297.125 2.5.125zm.469-3.656c-.828-.344-1.672-.719-1.672-1.625 0-.719.5-1.235 1.203-1.235.828 0 1.297.625 1.297 1.344 0 .563-.281 1.063-.828 1.516zM2.5-.312c-.906 0-1.578-.61-1.578-1.391 0-.719.469-1.313 1.094-1.688 1.015.407 1.968.766 1.968 1.797 0 .719-.593 1.282-1.484 1.282zm0 0"/></symbol><symbol overflow="visible" id="aJ"><path d="M.797-2.375l1.828-2.672c.188-.297.375-.625.531-.922h.047a13.45 13.45 0 0 0-.047 1.11v2.484zm3.828 0h-.953v-4.36h-.516L.172-2.264v.343h2.984V0h.516v-1.922h.953zm0 0"/></symbol><symbol overflow="visible" id="aK"><path d="M1.156-5.688a.478.478 0 0 0 .469-.5c0-.296-.234-.5-.469-.5-.25 0-.468.204-.468.5 0 .313.218.5.468.5zm0 4.829a.478.478 0 0 0 .469-.5c0-.313-.234-.5-.469-.5-.25 0-.468.187-.468.5 0 .312.218.5.468.5zm0 0"/></symbol><symbol overflow="visible" id="aL"><path d="M2.375.125c1.156 0 2.031-.734 2.031-1.906 0-.953-.656-1.563-1.468-1.735v-.046c.718-.235 1.234-.797 1.234-1.672 0-1.032-.781-1.625-1.813-1.625-.765 0-1.343.359-1.812.796l.328.36c.36-.39.89-.703 1.469-.703.781 0 1.281.484 1.281 1.218 0 .797-.516 1.438-2 1.438v.453c1.61 0 2.234.61 2.234 1.516 0 .86-.625 1.437-1.5 1.437C1.5-.344.984-.75.594-1.156l-.313.36c.438.452 1.063.921 2.094.921zm0 0"/></symbol><symbol overflow="visible" id="aM"><path d="M2.094.125c1.25 0 1.719-.875 1.719-1.984v-4.875h-.547v4.812c0 1.078-.391 1.547-1.188 1.547-.547 0-.937-.219-1.281-.781L.39-.891C.75-.234 1.328.125 2.094.125zm0 0"/></symbol><symbol overflow="visible" id="aN"><path d="M2.313-3.016c-.938 0-1.36-.718-1.36-1.687 0-.969.547-1.703 1.281-1.703 1.047 0 1.594.937 1.641 2.406-.5.688-1.063.984-1.563.984zM.563-.53c.359.39.828.656 1.484.656 1.234 0 2.36-1.016 2.36-3.86 0-2.03-.86-3.124-2.157-3.124-.984 0-1.828.89-1.828 2.156 0 1.375.703 2.125 1.828 2.125.625 0 1.188-.375 1.64-.906-.062 2.328-.906 3.14-1.828 3.14-.468 0-.874-.187-1.171-.531zm0 0"/></symbol><symbol overflow="visible" id="aO"><path d="M1.156-5.688a.478.478 0 0 0 .469-.5c0-.296-.234-.5-.469-.5-.25 0-.468.204-.468.5 0 .313.218.5.468.5zM.641.641C1.297.312 1.75-.313 1.75-1.094c0-.468-.203-.765-.547-.765-.266 0-.484.156-.484.453 0 .297.219.468.469.468.046 0 .078 0 .109-.015 0 .578-.313 1-.813 1.25zm0 0"/></symbol><symbol overflow="visible" id="ax"><path d="M.797 0h1.656v-2.625h2.344V-4H2.453v-1.5h2.735v-1.375H.796zm0 0"/></symbol><symbol overflow="visible" id="ay"><path d="M.672 0h1.625v-5.25H.672zm.812-5.984c.547 0 .938-.344.938-.844s-.39-.844-.938-.844c-.546 0-.937.344-.937.844s.39.844.937.844zm0 0"/></symbol><symbol overflow="visible" id="az"><path d="M2.547 2.203c1.828 0 2.969-.781 2.969-1.89 0-.954-.72-1.344-2.016-1.344h-.828c-.563 0-.781-.11-.781-.36 0-.171.046-.25.171-.359.235.063.438.094.61.094 1.172 0 2.11-.547 2.11-1.766 0-.25-.079-.5-.157-.64h.813V-5.25H3.516a2.39 2.39 0 0 0-.844-.14C1.547-5.39.484-4.75.484-3.47c0 .61.344 1.094.704 1.36v.03c-.344.235-.579.61-.579.985 0 .438.204.719.485.907v.046C.594.11.344.453.344.891c0 .937 1 1.312 2.203 1.312zm.125-4.86c-.375 0-.656-.265-.656-.812 0-.531.28-.812.656-.812.39 0 .672.281.672.812 0 .547-.281.813-.672.813zm.14 3.845c-.671 0-1.124-.188-1.124-.563 0-.172.078-.313.25-.469.171.047.375.063.75.063h.5c.484 0 .765.062.765.375 0 .344-.469.594-1.14.594zm0 0"/></symbol><symbol overflow="visible" id="aA"><path d="M2.25.125c.719 0 1.203-.328 1.64-.844h.032L4.047 0H5.39v-5.25H3.734v3.438c-.265.39-.5.53-.875.53-.406 0-.609-.202-.609-.921V-5.25H.61V-2C.61-.687 1.093.125 2.25.125zm0 0"/></symbol><symbol overflow="visible" id="aB"><path d="M.672 0h1.625v-3c.281-.688.75-.938 1.14-.938.235 0 .391.032.563.079l.281-1.407c-.14-.078-.312-.125-.64-.125-.516 0-1.094.344-1.485 1.047H2.11L2-5.25H.672zm0 0"/></symbol><symbol overflow="visible" id="aC"><path d="M3.031.125c.625 0 1.344-.203 1.89-.594l-.546-.984c-.375.219-.734.328-1.11.328-.656 0-1.156-.297-1.312-1.016h3.094c.031-.125.062-.421.062-.703 0-1.437-.734-2.547-2.25-2.547C1.594-5.39.375-4.328.375-2.625c0 1.734 1.156 2.75 2.656 2.75zM1.937-3.219c.11-.625.5-.906.954-.906.593 0 .828.39.828.906zm0 0"/></symbol><symbol overflow="visible" id="aE"><path d="M.719 0h4.343v-1.328H3.829v-5.547H2.61c-.468.297-.953.484-1.687.625v1.016h1.25v3.906H.719zm0 0"/></symbol><symbol overflow="visible" id="aF"><path d="M1.625.313c.563 0 .984-.438.984-1.016 0-.578-.421-1.031-.984-1.031s-.984.453-.984 1.03c0 .579.421 1.016.984 1.016zm0 0"/></symbol></defs><g fill="#898989"><use xlink:href="#a" x="28.312" y="819.169"/><use xlink:href="#b" x="32.591" y="819.169"/></g><g fill="#898989"><use xlink:href="#c" x="36.906" y="819.169"/><use xlink:href="#c" x="38.996" y="819.169"/></g><g fill="#595757"><use xlink:href="#d" x="506.297" y="818.993"/><use xlink:href="#e" x="507.807" y="818.993"/><use xlink:href="#f" x="510.984" y="818.993"/><use xlink:href="#g" x="512.368" y="818.993"/><use xlink:href="#h" x="513.926" y="818.993"/><use xlink:href="#i" x="517.012" y="818.993"/><use xlink:href="#h" x="520.099" y="818.993"/><use xlink:href="#j" x="523.185" y="818.993"/><use xlink:href="#k" x="526.271" y="818.993"/><use xlink:href="#g" x="531.664" y="818.993"/><use xlink:href="#l" x="533.223" y="818.993"/><use xlink:href="#m" x="538.616" y="818.993"/><use xlink:href="#n" x="544.009" y="818.993"/><use xlink:href="#o" x="549.403" y="818.993"/></g><path d="M28.313 792.695h526.6" fill="none" stroke="#1f3d90" stroke-width=".99879"/><use xlink:href="#p" x="28.312" y="105.32"/><use xlink:href="#q" x="32.693" y="105.32"/><use xlink:href="#r" x="37.617" y="105.32"/><use xlink:href="#r" x="39.955" y="105.32"/><use xlink:href="#s" x="42.292" y="105.32"/><use xlink:href="#t" x="47.133" y="105.32"/><use xlink:href="#u" x="52.593" y="105.32"/><use xlink:href="#v" x="55.729" y="105.32"/><use xlink:href="#w" x="60.515" y="105.32"/><use xlink:href="#w" x="66.317" y="105.32"/><use xlink:href="#x" x="72.118" y="105.32"/><use xlink:href="#y" x="78.521" y="105.32"/><use xlink:href="#z" x="83.815" y="105.32"/><use xlink:href="#u" x="86.004" y="105.32"/><use xlink:href="#q" x="89.141" y="105.32"/><use xlink:href="#A" x="94.065" y="105.32"/><use xlink:href="#t" x="99.414" y="105.32"/><use xlink:href="#u" x="104.875" y="105.32"/><use xlink:href="#B" x="108.011" y="105.32"/><use xlink:href="#C" x="112.058" y="105.32"/><use xlink:href="#D" x="117.37" y="105.32"/><use xlink:href="#E" x="122.728" y="105.32"/><use xlink:href="#u" x="129.676" y="105.32"/><use xlink:href="#F" x="132.813" y="105.32"/><use xlink:href="#C" x="135.935" y="105.32"/><use xlink:href="#q" x="141.248" y="105.32"/><use xlink:href="#F" x="146.054" y="105.32"/><use xlink:href="#u" x="149.176" y="105.32"/><use xlink:href="#F" x="152.313" y="105.32"/><use xlink:href="#C" x="155.436" y="105.32"/><use xlink:href="#s" x="160.748" y="105.32"/><use xlink:href="#u" x="165.589" y="105.32"/><use xlink:href="#q" x="168.725" y="105.32"/><use xlink:href="#G" x="173.65" y="105.32"/><use xlink:href="#A" x="181.42" y="105.32"/><use xlink:href="#H" x="186.769" y="105.32"/><use xlink:href="#F" x="189.014" y="105.32"/><use xlink:href="#I" x="192.136" y="105.32"/><use xlink:href="#u" x="196.534" y="105.32"/><use xlink:href="#D" x="199.67" y="105.32"/><use xlink:href="#J" x="205.028" y="105.32"/><use xlink:href="#u" x="207.652" y="105.32"/><use xlink:href="#F" x="210.788" y="105.32"/><use xlink:href="#C" x="213.91" y="105.32"/><use xlink:href="#H" x="219.223" y="105.32"/><use xlink:href="#B" x="221.468" y="105.32"/><use xlink:href="#u" x="225.514" y="105.32"/><use xlink:href="#K" x="228.65" y="105.32"/><use xlink:href="#L" x="234.11" y="105.32"/><use xlink:href="#D" x="237.198" y="105.32"/><use xlink:href="#M" x="242.556" y="105.32"/><use xlink:href="#s" x="247.998" y="105.32"/><use xlink:href="#u" x="252.839" y="105.32"/><use xlink:href="#J" x="255.974" y="105.32"/><use xlink:href="#D" x="258.499" y="105.32"/><use xlink:href="#L" x="263.857" y="105.32"/><use xlink:href="#u" x="267.044" y="105.32"/><use xlink:href="#K" x="270.18" y="105.32"/><use xlink:href="#L" x="275.64" y="105.32"/><use xlink:href="#D" x="278.728" y="105.32"/><use xlink:href="#F" x="283.949" y="105.32"/><use xlink:href="#s" x="286.954" y="105.32"/><use xlink:href="#H" x="291.795" y="105.32"/><use xlink:href="#A" x="294.04" y="105.32"/><use xlink:href="#B" x="299.389" y="105.32"/><use xlink:href="#u" x="303.436" y="105.32"/><use xlink:href="#H" x="306.572" y="105.32"/><use xlink:href="#B" x="308.817" y="105.32"/><use xlink:href="#u" x="312.863" y="105.32"/><use xlink:href="#B" x="315.999" y="105.32"/><use xlink:href="#F" x="319.844" y="105.32"/><use xlink:href="#L" x="322.967" y="105.32"/><use xlink:href="#D" x="326.054" y="105.32"/><use xlink:href="#A" x="331.413" y="105.32"/><use xlink:href="#N" x="336.762" y="105.32"/><use xlink:href="#r" x="341.649" y="105.32"/><use xlink:href="#I" x="343.987" y="105.32"/><use xlink:href="#u" x="348.384" y="105.32"/><use xlink:href="#t" x="351.521" y="105.32"/><use xlink:href="#s" x="356.981" y="105.32"/><use xlink:href="#K" x="361.822" y="105.32"/><use xlink:href="#s" x="367.282" y="105.32"/><use xlink:href="#A" x="372.123" y="105.32"/><use xlink:href="#t" x="377.473" y="105.32"/><use xlink:href="#s" x="382.933" y="105.32"/><use xlink:href="#A" x="387.774" y="105.32"/><use xlink:href="#F" x="393.123" y="105.32"/><use xlink:href="#u" x="396.246" y="105.32"/><use xlink:href="#D" x="399.381" y="105.32"/><use xlink:href="#A" x="404.74" y="105.32"/><use xlink:href="#u" x="410.089" y="105.32"/><use xlink:href="#C" x="413.225" y="105.32"/><use xlink:href="#I" x="418.537" y="105.32"/><use xlink:href="#t" x="422.935" y="105.32"/><use xlink:href="#L" x="428.395" y="105.32"/><use xlink:href="#D" x="431.482" y="105.32"/><use xlink:href="#K" x="436.841" y="105.32"/><use xlink:href="#C" x="442.301" y="105.32"/><use xlink:href="#D" x="447.613" y="105.32"/><use xlink:href="#M" x="452.972" y="105.32"/><use xlink:href="#H" x="458.413" y="105.32"/><use xlink:href="#p" x="460.658" y="105.32"/><use xlink:href="#u" x="465.139" y="105.32"/><use xlink:href="#O" x="468.275" y="105.32"/><use xlink:href="#D" x="476.497" y="105.32"/><use xlink:href="#H" x="481.856" y="105.32"/><use xlink:href="#s" x="484.101" y="105.32"/><use xlink:href="#F" x="488.842" y="105.32"/><use xlink:href="#H" x="491.965" y="105.32"/><use xlink:href="#s" x="494.21" y="105.32"/><use xlink:href="#B" x="499.051" y="105.32"/><use xlink:href="#u" x="503.098" y="105.32"/><use xlink:href="#F" x="506.234" y="105.32"/><use xlink:href="#C" x="509.357" y="105.32"/><use xlink:href="#q" x="514.669" y="105.32"/><use xlink:href="#F" x="519.476" y="105.32"/><use xlink:href="#u" x="522.599" y="105.32"/><use xlink:href="#E" x="525.735" y="105.32"/><use xlink:href="#s" x="532.683" y="105.32"/><use xlink:href="#u" x="537.524" y="105.32"/><use xlink:href="#p" x="540.66" y="105.32"/><use xlink:href="#q" x="545.041" y="105.32"/><use xlink:href="#r" x="549.965" y="105.32"/><use xlink:href="#r" x="552.302" y="105.32"/><use xlink:href="#u" x="554.584" y="105.32"/><use xlink:href="#P" x="28.312" y="124.296"/><use xlink:href="#C" x="31.971" y="124.296"/><use xlink:href="#I" x="37.227" y="124.296"/><use xlink:href="#t" x="41.57" y="124.296"/><use xlink:href="#L" x="46.974" y="124.296"/><use xlink:href="#D" x="50.005" y="124.296"/><use xlink:href="#K" x="55.308" y="124.296"/><use xlink:href="#C" x="60.712" y="124.296"/><use xlink:href="#D" x="65.969" y="124.296"/><use xlink:href="#M" x="71.272" y="124.296"/><use xlink:href="#H" x="76.658" y="124.296"/><use xlink:href="#p" x="78.848" y="124.296"/><use xlink:href="#u" x="83.273" y="124.296"/><use xlink:href="#p" x="86.155" y="124.296"/><use xlink:href="#r" x="90.58" y="124.296"/><use xlink:href="#q" x="92.862" y="124.296"/><use xlink:href="#O" x="97.731" y="124.296"/><use xlink:href="#K" x="105.898" y="124.296"/><use xlink:href="#B" x="111.303" y="124.296"/><use xlink:href="#Q" x="115.294" y="124.296"/><use xlink:href="#R" x="118.953" y="124.296"/><use xlink:href="#u" x="121.087" y="124.296"/><use xlink:href="#S" x="123.968" y="124.296"/><use xlink:href="#s" x="131.701" y="124.296"/><use xlink:href="#u" x="136.487" y="124.296"/><use xlink:href="#t" x="139.369" y="124.296"/><use xlink:href="#s" x="144.774" y="124.296"/><use xlink:href="#O" x="149.56" y="124.296"/><use xlink:href="#D" x="157.727" y="124.296"/><use xlink:href="#A" x="163.03" y="124.296"/><use xlink:href="#B" x="168.324" y="124.296"/><use xlink:href="#F" x="172.111" y="124.296"/><use xlink:href="#L" x="175.179" y="124.296"/><use xlink:href="#q" x="178.089" y="124.296"/><use xlink:href="#F" x="182.838" y="124.296"/><use xlink:href="#s" x="185.785" y="124.296"/><use xlink:href="#u" x="190.571" y="124.296"/><use xlink:href="#F" x="193.452" y="124.296"/><use xlink:href="#C" x="196.519" y="124.296"/><use xlink:href="#s" x="201.776" y="124.296"/><use xlink:href="#u" x="206.562" y="124.296"/><use xlink:href="#T" x="209.444" y="124.296"/><use xlink:href="#F" x="214.71" y="124.296"/><use xlink:href="#H" x="217.778" y="124.296"/><use xlink:href="#r" x="219.967" y="124.296"/><use xlink:href="#H" x="222.249" y="124.296"/><use xlink:href="#F" x="224.439" y="124.296"/><use xlink:href="#I" x="227.506" y="124.296"/><use xlink:href="#u" x="231.848" y="124.296"/><use xlink:href="#D" x="234.731" y="124.296"/><use xlink:href="#J" x="240.034" y="124.296"/><use xlink:href="#u" x="242.602" y="124.296"/><use xlink:href="#F" x="245.484" y="124.296"/><use xlink:href="#C" x="248.551" y="124.296"/><use xlink:href="#H" x="253.808" y="124.296"/><use xlink:href="#B" x="255.998" y="124.296"/><use xlink:href="#u" x="259.989" y="124.296"/><use xlink:href="#K" x="262.87" y="124.296"/><use xlink:href="#L" x="268.275" y="124.296"/><use xlink:href="#D" x="271.305" y="124.296"/><use xlink:href="#M" x="276.608" y="124.296"/><use xlink:href="#s" x="281.995" y="124.296"/><use xlink:href="#u" x="286.78" y="124.296"/><use xlink:href="#M" x="289.663" y="124.296"/><use xlink:href="#I" x="295.049" y="124.296"/><use xlink:href="#u" x="299.391" y="124.296"/><use xlink:href="#B" x="302.273" y="124.296"/><use xlink:href="#s" x="306.264" y="124.296"/><use xlink:href="#U" x="311.05" y="124.296"/><use xlink:href="#T" x="316.454" y="124.296"/><use xlink:href="#s" x="321.72" y="124.296"/><use xlink:href="#A" x="326.506" y="124.296"/><use xlink:href="#p" x="331.8" y="124.296"/><use xlink:href="#H" x="336.225" y="124.296"/><use xlink:href="#A" x="338.415" y="124.296"/><use xlink:href="#N" x="343.709" y="124.296"/><use xlink:href="#u" x="348.54" y="124.296"/><use xlink:href="#F" x="351.422" y="124.296"/><use xlink:href="#C" x="354.489" y="124.296"/><use xlink:href="#s" x="359.746" y="124.296"/><use xlink:href="#u" x="364.532" y="124.296"/><use xlink:href="#L" x="367.414" y="124.296"/><use xlink:href="#s" x="370.445" y="124.296"/><use xlink:href="#N" x="375.129" y="124.296"/><use xlink:href="#H" x="379.961" y="124.296"/><use xlink:href="#D" x="382.15" y="124.296"/><use xlink:href="#A" x="387.453" y="124.296"/><use xlink:href="#B" x="392.747" y="124.296"/><use xlink:href="#u" x="396.738" y="124.296"/><use xlink:href="#D" x="399.62" y="124.296"/><use xlink:href="#J" x="404.923" y="124.296"/><use xlink:href="#u" x="407.491" y="124.296"/><use xlink:href="#K" x="410.373" y="124.296"/><use xlink:href="#L" x="415.777" y="124.296"/><use xlink:href="#D" x="418.808" y="124.296"/><use xlink:href="#F" x="423.973" y="124.296"/><use xlink:href="#s" x="426.92" y="124.296"/><use xlink:href="#H" x="431.706" y="124.296"/><use xlink:href="#A" x="433.896" y="124.296"/><use xlink:href="#V" x="439.189" y="124.296"/><use xlink:href="#K" x="442.09" y="124.296"/><use xlink:href="#L" x="447.495" y="124.296"/><use xlink:href="#D" x="450.526" y="124.296"/><use xlink:href="#F" x="455.69" y="124.296"/><use xlink:href="#s" x="458.638" y="124.296"/><use xlink:href="#H" x="463.424" y="124.296"/><use xlink:href="#A" x="465.613" y="124.296"/><use xlink:href="#u" x="470.907" y="124.296"/><use xlink:href="#H" x="473.789" y="124.296"/><use xlink:href="#A" x="475.979" y="124.296"/><use xlink:href="#F" x="481.273" y="124.296"/><use xlink:href="#s" x="484.22" y="124.296"/><use xlink:href="#L" x="489.006" y="124.296"/><use xlink:href="#q" x="491.916" y="124.296"/><use xlink:href="#p" x="496.785" y="124.296"/><use xlink:href="#F" x="501.108" y="124.296"/><use xlink:href="#H" x="504.176" y="124.296"/><use xlink:href="#D" x="506.365" y="124.296"/><use xlink:href="#A" x="511.668" y="124.296"/><use xlink:href="#u" x="516.962" y="124.296"/><use xlink:href="#M" x="519.844" y="124.296"/><use xlink:href="#s" x="525.23" y="124.296"/><use xlink:href="#F" x="529.914" y="124.296"/><use xlink:href="#E" x="532.981" y="124.296"/><use xlink:href="#s" x="539.873" y="124.296"/><use xlink:href="#s" x="544.659" y="124.296"/><use xlink:href="#A" x="549.445" y="124.296"/><use xlink:href="#u" x="554.739" y="124.296"/><use xlink:href="#W" x="28.312" y="143.272"/><use xlink:href="#H" x="34.816" y="143.272"/><use xlink:href="#K" x="37.135" y="143.272"/><use xlink:href="#K" x="42.669" y="143.272"/><use xlink:href="#D" x="48.203" y="143.272"/><use xlink:href="#u" x="53.635" y="143.272"/><use xlink:href="#K" x="56.84" y="143.272"/><use xlink:href="#q" x="62.214" y="143.272"/><use xlink:href="#F" x="67.089" y="143.272"/><use xlink:href="#C" x="70.286" y="143.272"/><use xlink:href="#E" x="75.672" y="143.272"/><use xlink:href="#q" x="82.588" y="143.272"/><use xlink:href="#I" x="87.586" y="143.272"/><use xlink:href="#u" x="92.058" y="143.272"/><use xlink:href="#K" x="95.263" y="143.272"/><use xlink:href="#L" x="100.797" y="143.272"/><use xlink:href="#D" x="103.952" y="143.272"/><use xlink:href="#F" x="109.243" y="143.272"/><use xlink:href="#s" x="112.315" y="143.272"/><use xlink:href="#H" x="117.23" y="143.272"/><use xlink:href="#A" x="119.545" y="143.272"/><use xlink:href="#u" x="124.968" y="143.272"/><use xlink:href="#X" x="128.172" y="143.272"/><use xlink:href="#y" x="132.631" y="143.272"/><use xlink:href="#Y" x="137.998" y="143.272"/><use xlink:href="#Z" x="143.597" y="143.272"/><use xlink:href="#u" x="148.484" y="143.272"/><use xlink:href="#q" x="151.688" y="143.272"/><use xlink:href="#A" x="156.686" y="143.272"/><use xlink:href="#t" x="162.11" y="143.272"/><use xlink:href="#u" x="167.644" y="143.272"/><use xlink:href="#F" x="170.849" y="143.272"/><use xlink:href="#H" x="174.041" y="143.272"/><use xlink:href="#N" x="176.359" y="143.272"/><use xlink:href="#C" x="181.321" y="143.272"/><use xlink:href="#F" x="186.707" y="143.272"/><use xlink:href="#u" x="189.903" y="143.272"/><use xlink:href="#aa" x="193.108" y="143.272"/><use xlink:href="#T" x="195.437" y="143.272"/><use xlink:href="#A" x="200.832" y="143.272"/><use xlink:href="#p" x="206.255" y="143.272"/><use xlink:href="#F" x="210.705" y="143.272"/><use xlink:href="#H" x="213.901" y="143.272"/><use xlink:href="#D" x="216.22" y="143.272"/><use xlink:href="#A" x="221.652" y="143.272"/><use xlink:href="#u" x="227.076" y="143.272"/><use xlink:href="#K" x="230.281" y="143.272"/><use xlink:href="#L" x="235.815" y="143.272"/><use xlink:href="#D" x="238.971" y="143.272"/><use xlink:href="#F" x="244.261" y="143.272"/><use xlink:href="#s" x="247.334" y="143.272"/><use xlink:href="#H" x="252.249" y="143.272"/><use xlink:href="#A" x="254.568" y="143.272"/><use xlink:href="#u" x="259.992" y="143.272"/><use xlink:href="#ab" x="263.196" y="143.272"/><use xlink:href="#u" x="268.083" y="143.272"/><use xlink:href="#ac" x="271.288" y="143.272"/><use xlink:href="#ad" x="274.133" y="143.272"/><use xlink:href="#ae" x="279.386" y="143.272"/><use xlink:href="#V" x="286.038" y="143.272"/><use xlink:href="#ab" x="289.069" y="143.272"/><use xlink:href="#af" x="293.956" y="143.272"/><use xlink:href="#z" x="296.802" y="143.272"/><use xlink:href="#u" x="299.065" y="143.272"/><use xlink:href="#B" x="302.27" y="143.272"/><use xlink:href="#C" x="306.39" y="143.272"/><use xlink:href="#D" x="311.777" y="143.272"/><use xlink:href="#E" x="317.209" y="143.272"/><use xlink:href="#H" x="324.23" y="143.272"/><use xlink:href="#A" x="326.549" y="143.272"/><use xlink:href="#N" x="331.973" y="143.272"/><use xlink:href="#u" x="336.934" y="143.272"/><use xlink:href="#H" x="340.139" y="143.272"/><use xlink:href="#A" x="342.458" y="143.272"/><use xlink:href="#F" x="347.881" y="143.272"/><use xlink:href="#s" x="350.954" y="143.272"/><use xlink:href="#L" x="355.869" y="143.272"/><use xlink:href="#q" x="358.905" y="143.272"/><use xlink:href="#p" x="363.904" y="143.272"/><use xlink:href="#F" x="368.353" y="143.272"/><use xlink:href="#H" x="371.55" y="143.272"/><use xlink:href="#D" x="373.869" y="143.272"/><use xlink:href="#A" x="379.301" y="143.272"/><use xlink:href="#B" x="384.724" y="143.272"/><use xlink:href="#u" x="388.845" y="143.272"/><use xlink:href="#F" x="392.049" y="143.272"/><use xlink:href="#C" x="395.246" y="143.272"/><use xlink:href="#L" x="400.632" y="143.272"/><use xlink:href="#D" x="403.788" y="143.272"/><use xlink:href="#T" x="409.221" y="143.272"/><use xlink:href="#N" x="414.616" y="143.272"/><use xlink:href="#C" x="419.577" y="143.272"/><use xlink:href="#u" x="424.963" y="143.272"/><use xlink:href="#F" x="428.167" y="143.272"/><use xlink:href="#C" x="431.364" y="143.272"/><use xlink:href="#s" x="436.75" y="143.272"/><use xlink:href="#u" x="441.665" y="143.272"/><use xlink:href="#ag" x="444.87" y="143.272"/><use xlink:href="#A" x="449.628" y="143.272"/><use xlink:href="#D" x="455.051" y="143.272"/><use xlink:href="#E" x="460.484" y="143.272"/><use xlink:href="#A" x="467.501" y="143.272"/><use xlink:href="#u" x="472.924" y="143.272"/><use xlink:href="#M" x="476.128" y="143.272"/><use xlink:href="#H" x="481.643" y="143.272"/><use xlink:href="#A" x="483.962" y="143.272"/><use xlink:href="#t" x="489.385" y="143.272"/><use xlink:href="#H" x="494.919" y="143.272"/><use xlink:href="#A" x="497.234" y="143.272"/><use xlink:href="#N" x="502.657" y="143.272"/><use xlink:href="#u" x="507.618" y="143.272"/><g><use xlink:href="#t" x="510.822" y="143.272"/><use xlink:href="#D" x="516.356" y="143.272"/><use xlink:href="#O" x="521.789" y="143.272"/><use xlink:href="#q" x="530.085" y="143.272"/><use xlink:href="#H" x="535.083" y="143.272"/><use xlink:href="#A" x="537.402" y="143.272"/><use xlink:href="#u" x="542.825" y="143.272"/></g><g><use xlink:href="#q" x="546.03" y="143.272"/><use xlink:href="#B" x="551.028" y="143.272"/></g><g><use xlink:href="#u" x="555.019" y="143.272"/></g><g><use xlink:href="#E" x="28.312" y="162.249"/><use xlink:href="#s" x="35.204" y="162.249"/><use xlink:href="#r" x="39.99" y="162.249"/><use xlink:href="#r" x="42.272" y="162.249"/><use xlink:href="#u" x="44.554" y="162.249"/></g><g><use xlink:href="#q" x="47.612" y="162.249"/><use xlink:href="#B" x="52.481" y="162.249"/><use xlink:href="#u" x="56.472" y="162.249"/></g><g><use xlink:href="#ad" x="59.53" y="162.249"/></g><g><use xlink:href="#ae" x="64.657" y="162.249"/><use xlink:href="#V" x="71.18" y="162.249"/><use xlink:href="#ab" x="74.081" y="162.249"/><use xlink:href="#ah" x="78.839" y="162.249"/><use xlink:href="#B" x="80.973" y="162.249"/><use xlink:href="#u" x="84.964" y="162.249"/></g><g><use xlink:href="#ai" x="88.022" y="162.249"/><use xlink:href="#y" x="95.108" y="162.249"/></g><g><use xlink:href="#aj" x="100.245" y="162.249"/><use xlink:href="#ak" x="106.278" y="162.249"/><use xlink:href="#al" x="112.606" y="162.249"/><use xlink:href="#u" x="118.177" y="162.249"/></g><g><use xlink:href="#t" x="121.235" y="162.249"/><use xlink:href="#D" x="126.64" y="162.249"/><use xlink:href="#O" x="131.943" y="162.249"/><use xlink:href="#q" x="140.11" y="162.249"/><use xlink:href="#H" x="144.979" y="162.249"/><use xlink:href="#A" x="147.169" y="162.249"/><use xlink:href="#u" x="152.462" y="162.249"/></g><g><use xlink:href="#q" x="155.52" y="162.249"/><use xlink:href="#A" x="160.389" y="162.249"/><use xlink:href="#t" x="165.683" y="162.249"/><use xlink:href="#u" x="171.088" y="162.249"/></g><g><use xlink:href="#X" x="174.146" y="162.249"/></g><g><use xlink:href="#y" x="178.479" y="162.249"/><use xlink:href="#Y" x="183.717" y="162.249"/><use xlink:href="#ah" x="189.187" y="162.249"/><use xlink:href="#B" x="191.321" y="162.249"/><use xlink:href="#u" x="195.312" y="162.249"/></g><g><use xlink:href="#x" x="198.37" y="162.249"/><use xlink:href="#V" x="204.717" y="162.249"/><use xlink:href="#F" x="207.618" y="162.249"/></g><g><use xlink:href="#s" x="210.565" y="162.249"/><use xlink:href="#L" x="215.351" y="162.249"/><use xlink:href="#O" x="218.483" y="162.249"/><use xlink:href="#H" x="226.65" y="162.249"/><use xlink:href="#A" x="228.839" y="162.249"/><use xlink:href="#q" x="234.133" y="162.249"/><use xlink:href="#r" x="239.002" y="162.249"/><use xlink:href="#u" x="241.284" y="162.249"/></g><g><use xlink:href="#K" x="244.342" y="162.249"/><use xlink:href="#L" x="249.747" y="162.249"/></g><g><use xlink:href="#D" x="252.778" y="162.249"/><use xlink:href="#r" x="258.081" y="162.249"/><use xlink:href="#H" x="260.363" y="162.249"/><use xlink:href="#A" x="262.552" y="162.249"/><use xlink:href="#s" x="267.846" y="162.249"/><use xlink:href="#V" x="272.632" y="162.249"/><use xlink:href="#L" x="275.533" y="162.249"/><use xlink:href="#H" x="278.665" y="162.249"/><use xlink:href="#p" x="280.854" y="162.249"/><use xlink:href="#C" x="285.28" y="162.249"/><use xlink:href="#u" x="290.537" y="162.249"/></g><g><use xlink:href="#t" x="293.595" y="162.249"/><use xlink:href="#D" x="298.999" y="162.249"/><use xlink:href="#O" x="304.302" y="162.249"/><use xlink:href="#q" x="312.47" y="162.249"/><use xlink:href="#H" x="317.338" y="162.249"/><use xlink:href="#A" x="319.528" y="162.249"/><use xlink:href="#R" x="324.822" y="162.249"/><use xlink:href="#u" x="326.956" y="162.249"/></g><g><use xlink:href="#y" x="330.014" y="162.249"/><use xlink:href="#t" x="335.252" y="162.249"/><use xlink:href="#t" x="340.657" y="162.249"/><use xlink:href="#H" x="346.062" y="162.249"/><use xlink:href="#F" x="348.251" y="162.249"/><use xlink:href="#H" x="351.319" y="162.249"/><use xlink:href="#D" x="353.508" y="162.249"/><use xlink:href="#A" x="358.811" y="162.249"/><use xlink:href="#q" x="364.105" y="162.249"/><use xlink:href="#r" x="368.974" y="162.249"/><use xlink:href="#r" x="371.256" y="162.249"/><use xlink:href="#I" x="373.538" y="162.249"/><use xlink:href="#z" x="377.88" y="162.249"/><use xlink:href="#u" x="380.014" y="162.249"/></g><g><use xlink:href="#E" x="383.072" y="162.249"/><use xlink:href="#s" x="389.964" y="162.249"/><use xlink:href="#u" x="394.75" y="162.249"/></g><g><use xlink:href="#s" x="397.808" y="162.249"/><use xlink:href="#O" x="402.594" y="162.249"/><use xlink:href="#D" x="410.761" y="162.249"/><use xlink:href="#A" x="416.064" y="162.249"/><use xlink:href="#B" x="421.358" y="162.249"/></g><g><use xlink:href="#F" x="425.146" y="162.249"/><use xlink:href="#L" x="428.214" y="162.249"/></g><g><use xlink:href="#q" x="431.125" y="162.249"/></g><g><use xlink:href="#F" x="435.874" y="162.249"/></g><g><use xlink:href="#s" x="438.821" y="162.249"/><use xlink:href="#u" x="443.606" y="162.249"/></g><g><use xlink:href="#C" x="446.664" y="162.249"/><use xlink:href="#D" x="451.921" y="162.249"/><use xlink:href="#E" x="457.224" y="162.249"/><use xlink:href="#u" x="464.116" y="162.249"/></g><g><use xlink:href="#L" x="467.174" y="162.249"/></g><g><use xlink:href="#s" x="470.205" y="162.249"/><use xlink:href="#B" x="474.99" y="162.249"/><use xlink:href="#H" x="478.982" y="162.249"/><use xlink:href="#t" x="481.171" y="162.249"/><use xlink:href="#T" x="486.576" y="162.249"/><use xlink:href="#s" x="491.842" y="162.249"/><use xlink:href="#B" x="496.628" y="162.249"/><use xlink:href="#u" x="500.619" y="162.249"/></g><g><use xlink:href="#K" x="503.677" y="162.249"/><use xlink:href="#L" x="509.082" y="162.249"/></g><g><use xlink:href="#s" x="512.112" y="162.249"/><use xlink:href="#t" x="516.898" y="162.249"/><use xlink:href="#H" x="522.302" y="162.249"/><use xlink:href="#p" x="524.492" y="162.249"/></g><g><use xlink:href="#F" x="528.816" y="162.249"/></g><g><use xlink:href="#s" x="531.763" y="162.249"/><use xlink:href="#t" x="536.548" y="162.249"/><use xlink:href="#u" x="541.953" y="162.249"/></g><g><use xlink:href="#M" x="545.011" y="162.249"/><use xlink:href="#I" x="550.397" y="162.249"/><use xlink:href="#u" x="554.739" y="162.249"/></g><g><use xlink:href="#K" x="28.312" y="181.225"/><use xlink:href="#L" x="33.781" y="181.225"/></g><g><use xlink:href="#D" x="36.875" y="181.225"/></g><g><use xlink:href="#F" x="42.103" y="181.225"/></g><g><use xlink:href="#s" x="45.114" y="181.225"/><use xlink:href="#H" x="49.964" y="181.225"/><use xlink:href="#A" x="52.218" y="181.225"/><use xlink:href="#u" x="57.577" y="181.225"/></g><g><use xlink:href="#K" x="60.718" y="181.225"/></g><g><use xlink:href="#q" x="66.029" y="181.225"/><use xlink:href="#H" x="70.963" y="181.225"/><use xlink:href="#A" x="73.217" y="181.225"/><use xlink:href="#F" x="78.575" y="181.225"/><use xlink:href="#H" x="81.707" y="181.225"/><use xlink:href="#A" x="83.962" y="181.225"/><use xlink:href="#N" x="89.32" y="181.225"/><use xlink:href="#u" x="94.217" y="181.225"/></g><g><use xlink:href="#q" x="97.359" y="181.225"/><use xlink:href="#L" x="102.292" y="181.225"/></g><g><use xlink:href="#s" x="105.385" y="181.225"/><use xlink:href="#u" x="110.236" y="181.225"/></g><g><use xlink:href="#J" x="113.378" y="181.225"/></g><g><use xlink:href="#D" x="115.908" y="181.225"/><use xlink:href="#T" x="121.276" y="181.225"/><use xlink:href="#A" x="126.607" y="181.225"/><use xlink:href="#t" x="131.965" y="181.225"/><use xlink:href="#u" x="137.435" y="181.225"/></g><g><use xlink:href="#s" x="140.577" y="181.225"/></g><g><use xlink:href="#am" x="145.388" y="181.225"/></g><g><use xlink:href="#p" x="149.379" y="181.225"/><use xlink:href="#r" x="153.869" y="181.225"/><use xlink:href="#T" x="156.215" y="181.225"/><use xlink:href="#B" x="161.546" y="181.225"/><use xlink:href="#H" x="165.602" y="181.225"/><use xlink:href="#an" x="167.856" y="181.225"/><use xlink:href="#s" x="172.254" y="181.225"/><use xlink:href="#r" x="177.104" y="181.225"/><use xlink:href="#I" x="179.451" y="181.225"/><use xlink:href="#u" x="183.858" y="181.225"/></g><g><use xlink:href="#H" x="187" y="181.225"/><use xlink:href="#A" x="189.254" y="181.225"/><use xlink:href="#u" x="194.612" y="181.225"/></g><g><use xlink:href="#F" x="197.755" y="181.225"/><use xlink:href="#C" x="200.887" y="181.225"/><use xlink:href="#s" x="206.208" y="181.225"/><use xlink:href="#u" x="211.058" y="181.225"/></g><g><use xlink:href="#p" x="214.201" y="181.225"/></g><g><use xlink:href="#D" x="218.495" y="181.225"/><use xlink:href="#O" x="223.862" y="181.225"/><use xlink:href="#K" x="232.094" y="181.225"/><use xlink:href="#r" x="237.563" y="181.225"/><use xlink:href="#s" x="239.91" y="181.225"/></g><g><use xlink:href="#am" x="244.723" y="181.225"/><use xlink:href="#u" x="248.852" y="181.225"/></g><g><use xlink:href="#H" x="251.994" y="181.225"/><use xlink:href="#A" x="254.249" y="181.225"/><use xlink:href="#F" x="259.607" y="181.225"/></g><g><use xlink:href="#s" x="262.617" y="181.225"/><use xlink:href="#L" x="267.468" y="181.225"/><use xlink:href="#J" x="270.664" y="181.225"/></g><g><use xlink:href="#q" x="273.092" y="181.225"/><use xlink:href="#p" x="278.026" y="181.225"/></g><g><use xlink:href="#s" x="282.32" y="181.225"/><use xlink:href="#z" x="287.17" y="181.225"/><use xlink:href="#u" x="289.369" y="181.225"/></g><g><use xlink:href="#q" x="292.511" y="181.225"/><use xlink:href="#A" x="297.445" y="181.225"/><use xlink:href="#t" x="302.803" y="181.225"/><use xlink:href="#u" x="308.272" y="181.225"/></g><g><use xlink:href="#C" x="311.414" y="181.225"/><use xlink:href="#D" x="316.736" y="181.225"/><use xlink:href="#E" x="322.104" y="181.225"/><use xlink:href="#u" x="329.061" y="181.225"/></g><g><use xlink:href="#F" x="332.203" y="181.225"/><use xlink:href="#C" x="335.335" y="181.225"/><use xlink:href="#s" x="340.656" y="181.225"/><use xlink:href="#B" x="345.506" y="181.225"/><use xlink:href="#s" x="349.562" y="181.225"/><use xlink:href="#u" x="354.413" y="181.225"/></g><g><use xlink:href="#L" x="357.555" y="181.225"/></g><g><use xlink:href="#s" x="360.649" y="181.225"/><use xlink:href="#B" x="365.499" y="181.225"/><use xlink:href="#H" x="369.555" y="181.225"/><use xlink:href="#t" x="371.809" y="181.225"/><use xlink:href="#T" x="377.279" y="181.225"/><use xlink:href="#s" x="382.609" y="181.225"/><use xlink:href="#B" x="387.46" y="181.225"/><use xlink:href="#u" x="391.515" y="181.225"/></g><g><use xlink:href="#p" x="394.658" y="181.225"/></g><g><use xlink:href="#q" x="399.045" y="181.225"/><use xlink:href="#A" x="403.979" y="181.225"/><use xlink:href="#u" x="409.337" y="181.225"/></g><g><use xlink:href="#N" x="412.479" y="181.225"/><use xlink:href="#T" x="417.376" y="181.225"/><use xlink:href="#H" x="422.706" y="181.225"/><use xlink:href="#t" x="424.961" y="181.225"/><use xlink:href="#s" x="430.43" y="181.225"/><use xlink:href="#u" x="435.28" y="181.225"/></g><g><use xlink:href="#F" x="438.423" y="181.225"/><use xlink:href="#C" x="441.554" y="181.225"/><use xlink:href="#s" x="446.876" y="181.225"/><use xlink:href="#u" x="451.726" y="181.225"/></g><g><use xlink:href="#t" x="454.868" y="181.225"/><use xlink:href="#s" x="460.338" y="181.225"/></g><g><use xlink:href="#an" x="465.288" y="181.225"/><use xlink:href="#s" x="469.686" y="181.225"/><use xlink:href="#r" x="474.536" y="181.225"/><use xlink:href="#D" x="476.883" y="181.225"/><use xlink:href="#K" x="482.25" y="181.225"/><use xlink:href="#O" x="487.72" y="181.225"/><use xlink:href="#s" x="495.951" y="181.225"/><use xlink:href="#A" x="500.802" y="181.225"/><use xlink:href="#F" x="506.16" y="181.225"/><use xlink:href="#u" x="509.292" y="181.225"/></g><g><use xlink:href="#D" x="512.434" y="181.225"/><use xlink:href="#J" x="517.802" y="181.225"/><use xlink:href="#u" x="520.435" y="181.225"/></g><g><use xlink:href="#K" x="523.577" y="181.225"/><use xlink:href="#s" x="529.046" y="181.225"/><use xlink:href="#K" x="533.897" y="181.225"/></g><g><use xlink:href="#F" x="539.226" y="181.225"/><use xlink:href="#H" x="542.358" y="181.225"/><use xlink:href="#t" x="544.612" y="181.225"/><use xlink:href="#s" x="550.081" y="181.225"/></g><g><use xlink:href="#u" x="554.867" y="181.225"/></g><g><use xlink:href="#H" x="28.312" y="200.202"/><use xlink:href="#A" x="30.502" y="200.202"/><use xlink:href="#C" x="35.795" y="200.202"/><use xlink:href="#H" x="41.052" y="200.202"/><use xlink:href="#M" x="43.242" y="200.202"/><use xlink:href="#H" x="48.628" y="200.202"/><use xlink:href="#F" x="50.818" y="200.202"/></g><g><use xlink:href="#D" x="53.765" y="200.202"/><use xlink:href="#L" x="59.068" y="200.202"/><use xlink:href="#B" x="62.2" y="200.202"/><use xlink:href="#u" x="66.191" y="200.202"/></g><g><use xlink:href="#T" x="68.946" y="200.202"/><use xlink:href="#B" x="74.212" y="200.202"/><use xlink:href="#H" x="78.203" y="200.202"/><use xlink:href="#A" x="80.393" y="200.202"/><use xlink:href="#N" x="85.687" y="200.202"/><use xlink:href="#u" x="90.518" y="200.202"/></g><g><use xlink:href="#q" x="93.274" y="200.202"/><use xlink:href="#u" x="98.143" y="200.202"/></g><g><use xlink:href="#p" x="100.899" y="200.202"/></g><g><use xlink:href="#q" x="105.223" y="200.202"/><use xlink:href="#B" x="110.092" y="200.202"/><use xlink:href="#s" x="114.083" y="200.202"/><use xlink:href="#u" x="118.868" y="200.202"/></g><g><use xlink:href="#B" x="121.624" y="200.202"/></g><g><use xlink:href="#F" x="125.412" y="200.202"/><use xlink:href="#T" x="128.48" y="200.202"/><use xlink:href="#t" x="133.746" y="200.202"/><use xlink:href="#I" x="139.15" y="200.202"/><use xlink:href="#u" x="143.493" y="200.202"/></g><g><use xlink:href="#D" x="146.248" y="200.202"/><use xlink:href="#J" x="151.552" y="200.202"/><use xlink:href="#u" x="154.12" y="200.202"/></g><g><use xlink:href="#Y" x="156.876" y="200.202"/><use xlink:href="#ao" x="162.345" y="200.202"/><use xlink:href="#V" x="168.369" y="200.202"/><use xlink:href="#ab" x="171.27" y="200.202"/><use xlink:href="#u" x="176.028" y="200.202"/></g><g><use xlink:href="#q" x="178.784" y="200.202"/><use xlink:href="#A" x="183.653" y="200.202"/><use xlink:href="#t" x="188.946" y="200.202"/><use xlink:href="#u" x="194.351" y="200.202"/></g><g><use xlink:href="#Y" x="197.107" y="200.202"/><use xlink:href="#ao" x="202.576" y="200.202"/><use xlink:href="#V" x="208.6" y="200.202"/><use xlink:href="#ap" x="211.501" y="200.202"/><use xlink:href="#ab" x="216.139" y="200.202"/><use xlink:href="#R" x="220.897" y="200.202"/><use xlink:href="#u" x="223.031" y="200.202"/></g><g><use xlink:href="#aq" x="225.787" y="200.202"/><use xlink:href="#A" x="228.115" y="200.202"/><use xlink:href="#C" x="233.409" y="200.202"/><use xlink:href="#H" x="238.666" y="200.202"/><use xlink:href="#M" x="240.855" y="200.202"/><use xlink:href="#H" x="246.241" y="200.202"/><use xlink:href="#F" x="248.431" y="200.202"/></g><g><use xlink:href="#D" x="251.378" y="200.202"/><use xlink:href="#L" x="256.681" y="200.202"/><use xlink:href="#B" x="259.813" y="200.202"/><use xlink:href="#u" x="263.804" y="200.202"/></g><g><use xlink:href="#t" x="266.56" y="200.202"/><use xlink:href="#s" x="271.965" y="200.202"/><use xlink:href="#B" x="276.751" y="200.202"/><use xlink:href="#H" x="280.742" y="200.202"/><use xlink:href="#N" x="282.931" y="200.202"/><use xlink:href="#A" x="287.763" y="200.202"/><use xlink:href="#s" x="293.057" y="200.202"/><use xlink:href="#t" x="297.843" y="200.202"/><use xlink:href="#u" x="303.247" y="200.202"/></g><g><use xlink:href="#q" x="306.003" y="200.202"/><use xlink:href="#L" x="310.872" y="200.202"/></g><g><use xlink:href="#D" x="313.902" y="200.202"/><use xlink:href="#T" x="319.206" y="200.202"/><use xlink:href="#A" x="324.472" y="200.202"/><use xlink:href="#t" x="329.765" y="200.202"/><use xlink:href="#u" x="335.17" y="200.202"/></g><g><use xlink:href="#F" x="337.926" y="200.202"/><use xlink:href="#C" x="340.993" y="200.202"/><use xlink:href="#s" x="346.25" y="200.202"/><use xlink:href="#u" x="351.036" y="200.202"/></g><g><use xlink:href="#Y" x="353.792" y="200.202"/><use xlink:href="#ao" x="359.261" y="200.202"/><use xlink:href="#V" x="365.285" y="200.202"/><use xlink:href="#ab" x="368.186" y="200.202"/><use xlink:href="#ar" x="372.944" y="200.202"/><use xlink:href="#Y" x="376.408" y="200.202"/><use xlink:href="#ao" x="381.878" y="200.202"/><use xlink:href="#V" x="387.901" y="200.202"/><use xlink:href="#ap" x="390.802" y="200.202"/><use xlink:href="#ab" x="395.44" y="200.202"/><use xlink:href="#u" x="400.198" y="200.202"/></g><g><use xlink:href="#K" x="402.953" y="200.202"/><use xlink:href="#L" x="408.358" y="200.202"/></g><g><use xlink:href="#D" x="411.389" y="200.202"/></g><g><use xlink:href="#F" x="416.553" y="200.202"/></g><g><use xlink:href="#s" x="419.501" y="200.202"/><use xlink:href="#H" x="424.286" y="200.202"/><use xlink:href="#A" x="426.476" y="200.202"/><use xlink:href="#u" x="431.77" y="200.202"/></g><g><use xlink:href="#K" x="434.525" y="200.202"/></g><g><use xlink:href="#q" x="439.772" y="200.202"/><use xlink:href="#H" x="444.641" y="200.202"/><use xlink:href="#A" x="446.831" y="200.202"/><use xlink:href="#F" x="452.125" y="200.202"/><use xlink:href="#H" x="455.192" y="200.202"/><use xlink:href="#A" x="457.381" y="200.202"/><use xlink:href="#N" x="462.675" y="200.202"/><use xlink:href="#u" x="467.507" y="200.202"/></g><g><use xlink:href="#C" x="470.263" y="200.202"/><use xlink:href="#H" x="475.52" y="200.202"/><use xlink:href="#F" x="477.709" y="200.202"/><use xlink:href="#u" x="480.777" y="200.202"/></g><g><use xlink:href="#s" x="483.533" y="200.202"/><use xlink:href="#as" x="488.318" y="200.202"/></g><g><use xlink:href="#s" x="493.558" y="200.202"/><use xlink:href="#p" x="498.343" y="200.202"/></g><g><use xlink:href="#F" x="502.668" y="200.202"/><use xlink:href="#H" x="505.735" y="200.202"/><use xlink:href="#an" x="507.925" y="200.202"/><use xlink:href="#s" x="512.258" y="200.202"/><use xlink:href="#r" x="517.043" y="200.202"/><use xlink:href="#I" x="519.325" y="200.202"/><use xlink:href="#u" x="523.668" y="200.202"/></g><g><use xlink:href="#t" x="526.424" y="200.202"/><use xlink:href="#H" x="531.828" y="200.202"/><use xlink:href="#B" x="534.018" y="200.202"/><use xlink:href="#L" x="538.009" y="200.202"/><use xlink:href="#T" x="541.141" y="200.202"/><use xlink:href="#K" x="546.407" y="200.202"/></g><g><use xlink:href="#F" x="551.673" y="200.202"/><use xlink:href="#u" x="554.74" y="200.202"/></g><g><use xlink:href="#p" x="28.312" y="219.178"/></g><g><use xlink:href="#D" x="32.543" y="219.178"/><use xlink:href="#O" x="37.846" y="219.178"/><use xlink:href="#K" x="46.013" y="219.178"/><use xlink:href="#r" x="51.418" y="219.178"/><use xlink:href="#s" x="53.7" y="219.178"/></g><g><use xlink:href="#am" x="58.449" y="219.178"/><use xlink:href="#u" x="62.514" y="219.178"/><use xlink:href="#J" x="64.916" y="219.178"/></g><g><use xlink:href="#D" x="67.383" y="219.178"/><use xlink:href="#L" x="72.686" y="219.178"/><use xlink:href="#O" x="75.818" y="219.178"/><use xlink:href="#q" x="83.985" y="219.178"/></g><g><use xlink:href="#F" x="88.733" y="219.178"/><use xlink:href="#H" x="91.801" y="219.178"/><use xlink:href="#D" x="93.99" y="219.178"/><use xlink:href="#A" x="99.293" y="219.178"/><use xlink:href="#z" x="104.587" y="219.178"/><use xlink:href="#u" x="106.721" y="219.178"/><use xlink:href="#E" x="109.123" y="219.178"/><use xlink:href="#H" x="116.016" y="219.178"/><use xlink:href="#F" x="118.205" y="219.178"/><use xlink:href="#C" x="121.272" y="219.178"/><use xlink:href="#u" x="126.529" y="219.178"/><use xlink:href="#F" x="128.931" y="219.178"/><use xlink:href="#C" x="131.999" y="219.178"/><use xlink:href="#s" x="137.255" y="219.178"/><use xlink:href="#u" x="142.041" y="219.178"/><use xlink:href="#O" x="144.443" y="219.178"/><use xlink:href="#D" x="152.61" y="219.178"/><use xlink:href="#B" x="157.913" y="219.178"/></g><g><use xlink:href="#F" x="161.701" y="219.178"/><use xlink:href="#u" x="164.769" y="219.178"/><use xlink:href="#K" x="167.171" y="219.178"/><use xlink:href="#D" x="172.575" y="219.178"/></g><g><use xlink:href="#F" x="177.741" y="219.178"/></g><g><use xlink:href="#s" x="180.688" y="219.178"/><use xlink:href="#A" x="185.473" y="219.178"/><use xlink:href="#F" x="190.767" y="219.178"/><use xlink:href="#u" x="193.835" y="219.178"/><use xlink:href="#H" x="196.237" y="219.178"/><use xlink:href="#A" x="198.426" y="219.178"/><use xlink:href="#C" x="203.72" y="219.178"/><use xlink:href="#H" x="208.977" y="219.178"/><use xlink:href="#M" x="211.166" y="219.178"/><use xlink:href="#H" x="216.553" y="219.178"/><use xlink:href="#F" x="218.742" y="219.178"/></g><g><use xlink:href="#D" x="221.689" y="219.178"/><use xlink:href="#L" x="226.992" y="219.178"/><use xlink:href="#u" x="230.124" y="219.178"/><use xlink:href="#C" x="232.527" y="219.178"/><use xlink:href="#q" x="237.783" y="219.178"/><use xlink:href="#an" x="242.652" y="219.178"/><use xlink:href="#H" x="246.985" y="219.178"/><use xlink:href="#A" x="249.175" y="219.178"/><use xlink:href="#N" x="254.469" y="219.178"/><use xlink:href="#u" x="259.3" y="219.178"/><use xlink:href="#q" x="261.703" y="219.178"/><use xlink:href="#A" x="266.571" y="219.178"/><use xlink:href="#u" x="271.865" y="219.178"/><use xlink:href="#aq" x="274.267" y="219.178"/><use xlink:href="#at" x="276.595" y="219.178"/><use xlink:href="#au" x="282.203" y="219.178"/><use xlink:href="#av" x="286.961" y="219.178"/><use xlink:href="#u" x="291.719" y="219.178"/><use xlink:href="#D" x="294.121" y="219.178"/><use xlink:href="#J" x="299.424" y="219.178"/><use xlink:href="#u" x="301.993" y="219.178"/><use xlink:href="#au" x="304.395" y="219.178"/><use xlink:href="#u" x="309.153" y="219.178"/><use xlink:href="#aw" x="311.555" y="219.178"/><use xlink:href="#ai" x="316.969" y="219.178"/><use xlink:href="#R" x="324.055" y="219.178"/></g><g><use xlink:href="#ax" x="28.312" y="560.671"/><use xlink:href="#ay" x="33.707" y="560.671"/><use xlink:href="#az" x="36.488" y="560.671"/><use xlink:href="#aA" x="41.995" y="560.671"/><use xlink:href="#aB" x="47.852" y="560.671"/></g><g><use xlink:href="#aC" x="51.843" y="560.671"/><use xlink:href="#aD" x="57.165" y="560.671"/></g><g><use xlink:href="#aE" x="60.18" y="560.671"/><use xlink:href="#aF" x="65.622" y="560.671"/></g><g><use xlink:href="#u" x="68.698" y="560.671"/></g><g><use xlink:href="#Y" x="71.695" y="560.671"/><use xlink:href="#L" x="77.165" y="560.671"/></g><g><use xlink:href="#D" x="80.195" y="560.671"/></g><g><use xlink:href="#F" x="85.359" y="560.671"/></g><g><use xlink:href="#s" x="88.307" y="560.671"/><use xlink:href="#H" x="93.092" y="560.671"/><use xlink:href="#A" x="95.282" y="560.671"/><use xlink:href="#u" x="100.576" y="560.671"/></g><g><use xlink:href="#K" x="103.572" y="560.671"/></g><g><use xlink:href="#q" x="108.819" y="560.671"/><use xlink:href="#H" x="113.688" y="560.671"/><use xlink:href="#A" x="115.878" y="560.671"/><use xlink:href="#F" x="121.172" y="560.671"/><use xlink:href="#H" x="124.239" y="560.671"/><use xlink:href="#A" x="126.429" y="560.671"/><use xlink:href="#N" x="131.722" y="560.671"/><use xlink:href="#u" x="136.554" y="560.671"/></g><g><use xlink:href="#O" x="139.55" y="560.671"/><use xlink:href="#s" x="147.717" y="560.671"/></g><g><use xlink:href="#F" x="152.401" y="560.671"/><use xlink:href="#C" x="155.469" y="560.671"/><use xlink:href="#D" x="160.726" y="560.671"/><use xlink:href="#t" x="166.029" y="560.671"/><use xlink:href="#B" x="171.433" y="560.671"/><use xlink:href="#u" x="175.424" y="560.671"/></g><g><use xlink:href="#L" x="178.421" y="560.671"/></g><g><use xlink:href="#s" x="181.452" y="560.671"/></g><g><use xlink:href="#an" x="186.338" y="560.671"/><use xlink:href="#s" x="190.671" y="560.671"/></g><g><use xlink:href="#q" x="195.3" y="560.671"/><use xlink:href="#r" x="200.169" y="560.671"/><use xlink:href="#u" x="202.451" y="560.671"/></g><g><use xlink:href="#K" x="205.448" y="560.671"/><use xlink:href="#L" x="210.852" y="560.671"/></g><g><use xlink:href="#D" x="213.883" y="560.671"/></g><g><use xlink:href="#F" x="219.047" y="560.671"/></g><g><use xlink:href="#s" x="221.994" y="560.671"/><use xlink:href="#H" x="226.78" y="560.671"/><use xlink:href="#A" x="228.97" y="560.671"/><use xlink:href="#V" x="234.263" y="560.671"/><use xlink:href="#K" x="237.164" y="560.671"/><use xlink:href="#L" x="242.569" y="560.671"/></g><g><use xlink:href="#D" x="245.599" y="560.671"/></g><g><use xlink:href="#F" x="250.764" y="560.671"/></g><g><use xlink:href="#s" x="253.711" y="560.671"/><use xlink:href="#H" x="258.497" y="560.671"/><use xlink:href="#A" x="260.686" y="560.671"/><use xlink:href="#u" x="265.98" y="560.671"/></g><g><use xlink:href="#H" x="268.976" y="560.671"/><use xlink:href="#A" x="271.166" y="560.671"/><use xlink:href="#F" x="276.46" y="560.671"/></g><g><use xlink:href="#s" x="279.407" y="560.671"/><use xlink:href="#L" x="284.192" y="560.671"/></g><g><use xlink:href="#q" x="287.103" y="560.671"/><use xlink:href="#p" x="291.971" y="560.671"/></g><g><use xlink:href="#F" x="296.295" y="560.671"/><use xlink:href="#H" x="299.363" y="560.671"/><use xlink:href="#D" x="301.552" y="560.671"/><use xlink:href="#A" x="306.855" y="560.671"/><use xlink:href="#u" x="312.149" y="560.671"/></g><g><use xlink:href="#C" x="315.145" y="560.671"/><use xlink:href="#D" x="320.402" y="560.671"/></g><g><use xlink:href="#F" x="325.566" y="560.671"/></g><g><use xlink:href="#B" x="328.532" y="560.671"/><use xlink:href="#K" x="332.523" y="560.671"/><use xlink:href="#D" x="337.928" y="560.671"/></g><g><use xlink:href="#F" x="343.092" y="560.671"/></g><g><use xlink:href="#B" x="346.058" y="560.671"/><use xlink:href="#u" x="350.049" y="560.671"/></g><g><use xlink:href="#M" x="353.046" y="560.671"/><use xlink:href="#I" x="358.432" y="560.671"/><use xlink:href="#u" x="362.775" y="560.671"/></g><g><use xlink:href="#M" x="365.771" y="560.671"/><use xlink:href="#r" x="371.157" y="560.671"/><use xlink:href="#D" x="373.439" y="560.671"/><use xlink:href="#p" x="378.742" y="560.671"/><use xlink:href="#ag" x="383.167" y="560.671"/><use xlink:href="#H" x="387.796" y="560.671"/><use xlink:href="#A" x="389.986" y="560.671"/><use xlink:href="#N" x="395.279" y="560.671"/><use xlink:href="#u" x="400.111" y="560.671"/></g><g><use xlink:href="#F" x="403.107" y="560.671"/><use xlink:href="#L" x="406.175" y="560.671"/></g><g><use xlink:href="#I" x="409.648" y="560.671"/><use xlink:href="#K" x="413.991" y="560.671"/></g><g><use xlink:href="#F" x="419.257" y="560.671"/><use xlink:href="#H" x="422.324" y="560.671"/><use xlink:href="#p" x="424.514" y="560.671"/><use xlink:href="#u" x="428.939" y="560.671"/></g><g><use xlink:href="#p" x="431.935" y="560.671"/><use xlink:href="#r" x="436.36" y="560.671"/><use xlink:href="#s" x="438.642" y="560.671"/></g><g><use xlink:href="#q" x="443.271" y="560.671"/><use xlink:href="#an" x="448.14" y="560.671"/></g><g><use xlink:href="#q" x="452.27" y="560.671"/><use xlink:href="#N" x="457.138" y="560.671"/></g><g><use xlink:href="#s" x="461.85" y="560.671"/><use xlink:href="#u" x="466.636" y="560.671"/></g><g><use xlink:href="#B" x="469.633" y="560.671"/><use xlink:href="#H" x="473.624" y="560.671"/><use xlink:href="#F" x="475.814" y="560.671"/></g><g><use xlink:href="#s" x="478.761" y="560.671"/><use xlink:href="#B" x="483.546" y="560.671"/><use xlink:href="#u" x="487.538" y="560.671"/></g><g><use xlink:href="#q" x="490.534" y="560.671"/></g><g><use xlink:href="#F" x="495.282" y="560.671"/><use xlink:href="#u" x="498.35" y="560.671"/></g><g><use xlink:href="#A" x="501.346" y="560.671"/><use xlink:href="#D" x="506.64" y="560.671"/><use xlink:href="#A" x="511.943" y="560.671"/><use xlink:href="#V" x="517.237" y="560.671"/><use xlink:href="#H" x="520.138" y="560.671"/><use xlink:href="#A" x="522.327" y="560.671"/><use xlink:href="#F" x="527.621" y="560.671"/></g><g><use xlink:href="#s" x="530.568" y="560.671"/><use xlink:href="#L" x="535.354" y="560.671"/><use xlink:href="#J" x="538.486" y="560.671"/></g><g><use xlink:href="#q" x="540.851" y="560.671"/><use xlink:href="#p" x="545.72" y="560.671"/></g><g><use xlink:href="#s" x="549.951" y="560.671"/><use xlink:href="#u" x="554.737" y="560.671"/></g><g><use xlink:href="#L" x="28.312" y="579.647"/></g><g><use xlink:href="#s" x="31.342" y="579.647"/></g><g><use xlink:href="#N" x="36.026" y="579.647"/><use xlink:href="#H" x="40.858" y="579.647"/><use xlink:href="#D" x="43.048" y="579.647"/><use xlink:href="#A" x="48.351" y="579.647"/><use xlink:href="#B" x="53.645" y="579.647"/><use xlink:href="#u" x="57.636" y="579.647"/><use xlink:href="#T" x="60.038" y="579.647"/><use xlink:href="#B" x="65.304" y="579.647"/><use xlink:href="#H" x="69.295" y="579.647"/><use xlink:href="#A" x="71.485" y="579.647"/><use xlink:href="#N" x="76.779" y="579.647"/><use xlink:href="#u" x="81.61" y="579.647"/><use xlink:href="#O" x="84.012" y="579.647"/><use xlink:href="#D" x="92.18" y="579.647"/><use xlink:href="#r" x="97.483" y="579.647"/><use xlink:href="#s" x="99.765" y="579.647"/><use xlink:href="#p" x="104.55" y="579.647"/><use xlink:href="#T" x="108.976" y="579.647"/><use xlink:href="#r" x="114.242" y="579.647"/><use xlink:href="#q" x="116.524" y="579.647"/><use xlink:href="#L" x="121.393" y="579.647"/><use xlink:href="#u" x="124.524" y="579.647"/><use xlink:href="#t" x="126.927" y="579.647"/><use xlink:href="#I" x="132.331" y="579.647"/><use xlink:href="#s" x="136.673" y="579.647"/><use xlink:href="#B" x="141.459" y="579.647"/><use xlink:href="#R" x="145.45" y="579.647"/></g><g><use xlink:href="#y" x="28.312" y="598.623"/><use xlink:href="#af" x="33.541" y="598.623"/><use xlink:href="#u" x="36.248" y="598.623"/><use xlink:href="#Y" x="38.641" y="598.623"/><use xlink:href="#L" x="44.101" y="598.623"/></g><g><use xlink:href="#s" x="47.121" y="598.623"/><use xlink:href="#V" x="51.898" y="598.623"/><use xlink:href="#J" x="54.789" y="598.623"/></g><g><use xlink:href="#D" x="57.246" y="598.623"/><use xlink:href="#L" x="62.54" y="598.623"/><use xlink:href="#O" x="65.662" y="598.623"/><use xlink:href="#s" x="73.82" y="598.623"/><use xlink:href="#t" x="78.597" y="598.623"/><use xlink:href="#u" x="83.992" y="598.623"/><use xlink:href="#K" x="86.385" y="598.623"/><use xlink:href="#L" x="91.78" y="598.623"/></g><g><use xlink:href="#D" x="94.801" y="598.623"/></g><g><use xlink:href="#F" x="99.954" y="598.623"/></g><g><use xlink:href="#s" x="102.891" y="598.623"/><use xlink:href="#H" x="107.667" y="598.623"/><use xlink:href="#A" x="109.848" y="598.623"/><use xlink:href="#u" x="115.132" y="598.623"/><use xlink:href="#p" x="117.525" y="598.623"/></g><g><use xlink:href="#D" x="121.745" y="598.623"/><use xlink:href="#O" x="127.039" y="598.623"/><use xlink:href="#K" x="135.197" y="598.623"/><use xlink:href="#r" x="140.593" y="598.623"/><use xlink:href="#s" x="142.865" y="598.623"/></g><g><use xlink:href="#am" x="147.604" y="598.623"/></g><g><use xlink:href="#s" x="151.519" y="598.623"/><use xlink:href="#B" x="156.296" y="598.623"/><use xlink:href="#u" x="160.278" y="598.623"/><use xlink:href="#q" x="162.67" y="598.623"/><use xlink:href="#L" x="167.53" y="598.623"/></g><g><use xlink:href="#s" x="170.549" y="598.623"/><use xlink:href="#u" x="175.326" y="598.623"/><use xlink:href="#K" x="177.718" y="598.623"/><use xlink:href="#T" x="183.114" y="598.623"/><use xlink:href="#r" x="188.371" y="598.623"/><use xlink:href="#B" x="190.644" y="598.623"/><use xlink:href="#s" x="194.625" y="598.623"/><use xlink:href="#t" x="199.402" y="598.623"/><use xlink:href="#u" x="204.797" y="598.623"/><use xlink:href="#E" x="207.19" y="598.623"/><use xlink:href="#H" x="214.073" y="598.623"/><use xlink:href="#F" x="216.253" y="598.623"/><use xlink:href="#C" x="219.311" y="598.623"/><use xlink:href="#u" x="224.559" y="598.623"/><use xlink:href="#q" x="226.952" y="598.623"/><use xlink:href="#u" x="231.811" y="598.623"/><use xlink:href="#N" x="234.204" y="598.623"/><use xlink:href="#L" x="239.027" y="598.623"/></g><g><use xlink:href="#s" x="242.046" y="598.623"/></g><g><use xlink:href="#q" x="246.665" y="598.623"/></g><g><use xlink:href="#F" x="251.402" y="598.623"/><use xlink:href="#u" x="254.46" y="598.623"/><use xlink:href="#O" x="256.853" y="598.623"/><use xlink:href="#D" x="265.011" y="598.623"/><use xlink:href="#r" x="270.305" y="598.623"/><use xlink:href="#q" x="272.577" y="598.623"/><use xlink:href="#L" x="277.437" y="598.623"/><use xlink:href="#u" x="280.56" y="598.623"/><use xlink:href="#s" x="282.953" y="598.623"/></g><g><use xlink:href="#am" x="287.69" y="598.623"/></g><g><use xlink:href="#p" x="291.607" y="598.623"/></g><g><use xlink:href="#s" x="295.827" y="598.623"/><use xlink:href="#B" x="300.603" y="598.623"/><use xlink:href="#B" x="304.585" y="598.623"/><use xlink:href="#u" x="308.567" y="598.623"/><use xlink:href="#D" x="310.96" y="598.623"/><use xlink:href="#J" x="316.254" y="598.623"/><use xlink:href="#u" x="318.813" y="598.623"/><use xlink:href="#B" x="321.206" y="598.623"/><use xlink:href="#O" x="325.188" y="598.623"/><use xlink:href="#q" x="333.345" y="598.623"/><use xlink:href="#r" x="338.205" y="598.623"/><use xlink:href="#r" x="340.478" y="598.623"/><use xlink:href="#u" x="342.751" y="598.623"/><use xlink:href="#O" x="345.143" y="598.623"/><use xlink:href="#D" x="353.301" y="598.623"/><use xlink:href="#r" x="358.595" y="598.623"/><use xlink:href="#s" x="360.868" y="598.623"/><use xlink:href="#p" x="365.644" y="598.623"/><use xlink:href="#T" x="370.06" y="598.623"/><use xlink:href="#r" x="375.317" y="598.623"/><use xlink:href="#q" x="377.59" y="598.623"/><use xlink:href="#L" x="382.449" y="598.623"/><use xlink:href="#u" x="385.572" y="598.623"/><use xlink:href="#t" x="387.965" y="598.623"/><use xlink:href="#I" x="393.36" y="598.623"/><use xlink:href="#s" x="397.693" y="598.623"/><use xlink:href="#B" x="402.47" y="598.623"/><use xlink:href="#R" x="406.452" y="598.623"/><use xlink:href="#u" x="408.577" y="598.623"/><use xlink:href="#aG" x="410.97" y="598.623"/><use xlink:href="#C" x="416.171" y="598.623"/><use xlink:href="#s" x="421.419" y="598.623"/><use xlink:href="#B" x="426.195" y="598.623"/><use xlink:href="#s" x="430.177" y="598.623"/><use xlink:href="#u" x="434.953" y="598.623"/><use xlink:href="#t" x="437.346" y="598.623"/><use xlink:href="#I" x="442.742" y="598.623"/><use xlink:href="#s" x="447.075" y="598.623"/><use xlink:href="#B" x="451.851" y="598.623"/><use xlink:href="#u" x="455.833" y="598.623"/><use xlink:href="#p" x="458.226" y="598.623"/></g><g><use xlink:href="#D" x="462.446" y="598.623"/><use xlink:href="#an" x="467.74" y="598.623"/><use xlink:href="#s" x="472.064" y="598.623"/><use xlink:href="#L" x="476.84" y="598.623"/><use xlink:href="#u" x="479.963" y="598.623"/><use xlink:href="#B" x="482.356" y="598.623"/><use xlink:href="#D" x="486.338" y="598.623"/><use xlink:href="#r" x="491.631" y="598.623"/><use xlink:href="#an" x="493.904" y="598.623"/><use xlink:href="#s" x="498.228" y="598.623"/><use xlink:href="#A" x="503.004" y="598.623"/><use xlink:href="#F" x="508.289" y="598.623"/><use xlink:href="#V" x="511.347" y="598.623"/><use xlink:href="#q" x="514.239" y="598.623"/><use xlink:href="#p" x="519.098" y="598.623"/></g><g><use xlink:href="#p" x="523.318" y="598.623"/></g><g><use xlink:href="#s" x="527.54" y="598.623"/><use xlink:href="#B" x="532.316" y="598.623"/><use xlink:href="#B" x="536.298" y="598.623"/><use xlink:href="#H" x="540.28" y="598.623"/><use xlink:href="#M" x="542.46" y="598.623"/><use xlink:href="#r" x="547.837" y="598.623"/><use xlink:href="#s" x="550.11" y="598.623"/></g><g><use xlink:href="#u" x="554.896" y="598.623"/></g><g><use xlink:href="#B" x="28.312" y="617.6"/><use xlink:href="#T" x="32.303" y="617.6"/><use xlink:href="#L" x="37.569" y="617.6"/><use xlink:href="#J" x="40.701" y="617.6"/></g><g><use xlink:href="#q" x="43.066" y="617.6"/><use xlink:href="#p" x="47.935" y="617.6"/></g><g><use xlink:href="#s" x="52.166" y="617.6"/><use xlink:href="#u" x="56.952" y="617.6"/><use xlink:href="#L" x="59.354" y="617.6"/></g><g><use xlink:href="#s" x="62.385" y="617.6"/></g><g><use xlink:href="#N" x="67.069" y="617.6"/><use xlink:href="#H" x="71.9" y="617.6"/><use xlink:href="#D" x="74.09" y="617.6"/><use xlink:href="#A" x="79.393" y="617.6"/><use xlink:href="#B" x="84.687" y="617.6"/><use xlink:href="#u" x="88.678" y="617.6"/><use xlink:href="#D" x="91.08" y="617.6"/><use xlink:href="#J" x="96.383" y="617.6"/><use xlink:href="#u" x="98.952" y="617.6"/><use xlink:href="#F" x="101.354" y="617.6"/><use xlink:href="#C" x="104.421" y="617.6"/><use xlink:href="#s" x="109.678" y="617.6"/><use xlink:href="#u" x="114.463" y="617.6"/><use xlink:href="#K" x="116.866" y="617.6"/><use xlink:href="#L" x="122.27" y="617.6"/></g><g><use xlink:href="#D" x="125.301" y="617.6"/></g><g><use xlink:href="#F" x="130.465" y="617.6"/></g><g><use xlink:href="#s" x="133.412" y="617.6"/><use xlink:href="#H" x="138.198" y="617.6"/><use xlink:href="#A" x="140.387" y="617.6"/><use xlink:href="#u" x="145.681" y="617.6"/><use xlink:href="#p" x="148.083" y="617.6"/></g><g><use xlink:href="#D" x="152.315" y="617.6"/><use xlink:href="#O" x="157.618" y="617.6"/><use xlink:href="#K" x="165.785" y="617.6"/><use xlink:href="#r" x="171.189" y="617.6"/><use xlink:href="#s" x="173.471" y="617.6"/></g><g><use xlink:href="#am" x="178.22" y="617.6"/><use xlink:href="#z" x="182.285" y="617.6"/><use xlink:href="#u" x="184.419" y="617.6"/><use xlink:href="#M" x="186.821" y="617.6"/><use xlink:href="#T" x="192.208" y="617.6"/><use xlink:href="#F" x="197.474" y="617.6"/><use xlink:href="#u" x="200.541" y="617.6"/><use xlink:href="#p" x="202.943" y="617.6"/></g><g><use xlink:href="#q" x="207.267" y="617.6"/><use xlink:href="#A" x="212.136" y="617.6"/><use xlink:href="#A" x="217.429" y="617.6"/><use xlink:href="#D" x="222.723" y="617.6"/></g><g><use xlink:href="#F" x="227.888" y="617.6"/><use xlink:href="#u" x="230.955" y="617.6"/><use xlink:href="#M" x="233.357" y="617.6"/><use xlink:href="#H" x="238.743" y="617.6"/><use xlink:href="#A" x="240.933" y="617.6"/><use xlink:href="#t" x="246.227" y="617.6"/><use xlink:href="#u" x="251.631" y="617.6"/><use xlink:href="#F" x="254.033" y="617.6"/></g><g><use xlink:href="#D" x="256.982" y="617.6"/><use xlink:href="#u" x="262.285" y="617.6"/><use xlink:href="#F" x="264.687" y="617.6"/><use xlink:href="#C" x="267.754" y="617.6"/><use xlink:href="#s" x="273.011" y="617.6"/><use xlink:href="#u" x="277.796" y="617.6"/><use xlink:href="#B" x="280.199" y="617.6"/><use xlink:href="#D" x="284.19" y="617.6"/><use xlink:href="#r" x="289.493" y="617.6"/><use xlink:href="#an" x="291.775" y="617.6"/><use xlink:href="#s" x="296.108" y="617.6"/><use xlink:href="#A" x="300.893" y="617.6"/><use xlink:href="#F" x="306.187" y="617.6"/><use xlink:href="#V" x="309.254" y="617.6"/><use xlink:href="#H" x="312.155" y="617.6"/><use xlink:href="#A" x="314.345" y="617.6"/><use xlink:href="#q" x="319.639" y="617.6"/><use xlink:href="#p" x="324.508" y="617.6"/></g><g><use xlink:href="#p" x="328.739" y="617.6"/></g><g><use xlink:href="#s" x="332.97" y="617.6"/><use xlink:href="#B" x="337.756" y="617.6"/><use xlink:href="#B" x="341.747" y="617.6"/><use xlink:href="#H" x="345.738" y="617.6"/><use xlink:href="#M" x="347.928" y="617.6"/><use xlink:href="#r" x="353.314" y="617.6"/><use xlink:href="#s" x="355.596" y="617.6"/><use xlink:href="#u" x="360.382" y="617.6"/><use xlink:href="#H" x="362.784" y="617.6"/><use xlink:href="#A" x="364.973" y="617.6"/><use xlink:href="#F" x="370.267" y="617.6"/></g><g><use xlink:href="#s" x="373.214" y="617.6"/><use xlink:href="#L" x="378" y="617.6"/><use xlink:href="#J" x="381.132" y="617.6"/></g><g><use xlink:href="#q" x="383.497" y="617.6"/><use xlink:href="#p" x="388.366" y="617.6"/></g><g><use xlink:href="#s" x="392.597" y="617.6"/><use xlink:href="#u" x="397.383" y="617.6"/><use xlink:href="#L" x="399.785" y="617.6"/></g><g><use xlink:href="#s" x="402.815" y="617.6"/></g><g><use xlink:href="#N" x="407.499" y="617.6"/><use xlink:href="#H" x="412.331" y="617.6"/><use xlink:href="#D" x="414.521" y="617.6"/><use xlink:href="#A" x="419.824" y="617.6"/><use xlink:href="#B" x="425.118" y="617.6"/><use xlink:href="#R" x="429.109" y="617.6"/></g><g><use xlink:href="#w" x="28.312" y="636.576"/><use xlink:href="#af" x="34.132" y="636.576"/><use xlink:href="#u" x="36.922" y="636.576"/></g><g><use xlink:href="#aG" x="40.078" y="636.576"/></g><g><use xlink:href="#L" x="44.866" y="636.576"/></g><g><use xlink:href="#I" x="48.416" y="636.576"/><use xlink:href="#K" x="52.832" y="636.576"/><use xlink:href="#B" x="58.31" y="636.576"/><use xlink:href="#H" x="62.375" y="636.576"/><use xlink:href="#A" x="64.639" y="636.576"/><use xlink:href="#u" x="70.007" y="636.576"/></g><g><use xlink:href="#p" x="73.162" y="636.576"/><use xlink:href="#r" x="77.661" y="636.576"/><use xlink:href="#s" x="80.017" y="636.576"/></g><g><use xlink:href="#q" x="84.721" y="636.576"/><use xlink:href="#an" x="89.664" y="636.576"/></g><g><use xlink:href="#q" x="93.87" y="636.576"/><use xlink:href="#N" x="98.813" y="636.576"/></g><g><use xlink:href="#s" x="103.6" y="636.576"/><use xlink:href="#u" x="108.46" y="636.576"/></g><g><use xlink:href="#D" x="111.614" y="636.576"/><use xlink:href="#J" x="116.991" y="636.576"/><use xlink:href="#u" x="119.633" y="636.576"/></g><g><use xlink:href="#q" x="122.788" y="636.576"/><use xlink:href="#L" x="127.731" y="636.576"/></g><g><use xlink:href="#N" x="130.837" y="636.576"/><use xlink:href="#H" x="135.743" y="636.576"/><use xlink:href="#A" x="138.007" y="636.576"/><use xlink:href="#H" x="143.374" y="636.576"/><use xlink:href="#A" x="145.638" y="636.576"/><use xlink:href="#s" x="151.006" y="636.576"/><use xlink:href="#u" x="155.865" y="636.576"/></g><g><use xlink:href="#D" x="159.02" y="636.576"/><use xlink:href="#L" x="164.397" y="636.576"/><use xlink:href="#u" x="167.603" y="636.576"/></g><g><use xlink:href="#r" x="170.758" y="636.576"/><use xlink:href="#I" x="173.114" y="636.576"/><use xlink:href="#B" x="177.53" y="636.576"/><use xlink:href="#H" x="181.595" y="636.576"/><use xlink:href="#A" x="183.859" y="636.576"/><use xlink:href="#s" x="189.226" y="636.576"/><use xlink:href="#u" x="194.086" y="636.576"/></g><g><use xlink:href="#L" x="197.241" y="636.576"/></g><g><use xlink:href="#s" x="200.347" y="636.576"/><use xlink:href="#B" x="205.207" y="636.576"/><use xlink:href="#H" x="209.272" y="636.576"/><use xlink:href="#t" x="211.535" y="636.576"/><use xlink:href="#T" x="217.014" y="636.576"/><use xlink:href="#s" x="222.354" y="636.576"/><use xlink:href="#B" x="227.213" y="636.576"/><use xlink:href="#u" x="231.278" y="636.576"/></g><g><use xlink:href="#F" x="234.433" y="636.576"/><use xlink:href="#C" x="237.575" y="636.576"/><use xlink:href="#q" x="242.905" y="636.576"/></g><g><use xlink:href="#F" x="247.73" y="636.576"/><use xlink:href="#u" x="250.871" y="636.576"/></g><g><use xlink:href="#q" x="254.025" y="636.576"/><use xlink:href="#L" x="258.968" y="636.576"/></g><g><use xlink:href="#s" x="262.074" y="636.576"/><use xlink:href="#u" x="266.934" y="636.576"/></g><g><use xlink:href="#M" x="270.089" y="636.576"/><use xlink:href="#D" x="275.549" y="636.576"/></g><g><use xlink:href="#F" x="280.79" y="636.576"/><use xlink:href="#u" x="283.931" y="636.576"/></g><g><use xlink:href="#t" x="287.085" y="636.576"/><use xlink:href="#I" x="292.564" y="636.576"/><use xlink:href="#s" x="296.98" y="636.576"/><use xlink:href="#V" x="301.839" y="636.576"/><use xlink:href="#M" x="304.814" y="636.576"/><use xlink:href="#D" x="310.274" y="636.576"/><use xlink:href="#T" x="315.651" y="636.576"/><use xlink:href="#A" x="320.991" y="636.576"/><use xlink:href="#t" x="326.359" y="636.576"/><use xlink:href="#u" x="331.838" y="636.576"/></g><g><use xlink:href="#ac" x="334.993" y="636.576"/><use xlink:href="#B" x="337.783" y="636.576"/><use xlink:href="#T" x="341.848" y="636.576"/><use xlink:href="#p" x="347.188" y="636.576"/><use xlink:href="#C" x="351.687" y="636.576"/><use xlink:href="#u" x="357.018" y="636.576"/></g><g><use xlink:href="#q" x="360.173" y="636.576"/><use xlink:href="#B" x="365.116" y="636.576"/><use xlink:href="#u" x="369.181" y="636.576"/></g><g><use xlink:href="#al" x="372.336" y="636.576"/><use xlink:href="#aH" x="377.981" y="636.576"/><use xlink:href="#aI" x="382.813" y="636.576"/><use xlink:href="#u" x="387.644" y="636.576"/></g><g><use xlink:href="#D" x="390.799" y="636.576"/><use xlink:href="#J" x="396.176" y="636.576"/><use xlink:href="#u" x="398.819" y="636.576"/></g><g><use xlink:href="#Y" x="401.974" y="636.576"/><use xlink:href="#ao" x="407.517" y="636.576"/><use xlink:href="#V" x="413.615" y="636.576"/><use xlink:href="#ab" x="416.589" y="636.576"/><use xlink:href="#af" x="421.421" y="636.576"/><use xlink:href="#u" x="424.211" y="636.576"/></g><g><use xlink:href="#I" x="427.366" y="636.576"/><use xlink:href="#H" x="431.783" y="636.576"/><use xlink:href="#s" x="434.046" y="636.576"/><use xlink:href="#r" x="438.906" y="636.576"/><use xlink:href="#t" x="441.262" y="636.576"/><use xlink:href="#B" x="446.74" y="636.576"/><use xlink:href="#u" x="450.805" y="636.576"/></g><g><use xlink:href="#F" x="453.96" y="636.576"/><use xlink:href="#L" x="457.101" y="636.576"/></g><g><use xlink:href="#I" x="460.651" y="636.576"/><use xlink:href="#K" x="465.067" y="636.576"/></g><g><use xlink:href="#F" x="470.409" y="636.576"/><use xlink:href="#H" x="473.55" y="636.576"/><use xlink:href="#p" x="475.814" y="636.576"/><use xlink:href="#u" x="480.313" y="636.576"/></g><g><use xlink:href="#K" x="483.468" y="636.576"/><use xlink:href="#s" x="488.947" y="636.576"/><use xlink:href="#K" x="493.806" y="636.576"/></g><g><use xlink:href="#F" x="499.148" y="636.576"/><use xlink:href="#H" x="502.289" y="636.576"/><use xlink:href="#t" x="504.553" y="636.576"/><use xlink:href="#s" x="510.031" y="636.576"/><use xlink:href="#B" x="514.891" y="636.576"/><use xlink:href="#u" x="518.956" y="636.576"/></g><g><use xlink:href="#F" x="522.111" y="636.576"/><use xlink:href="#C" x="525.252" y="636.576"/><use xlink:href="#q" x="530.583" y="636.576"/></g><g><use xlink:href="#F" x="535.408" y="636.576"/><use xlink:href="#u" x="538.549" y="636.576"/></g><g><use xlink:href="#q" x="541.705" y="636.576"/><use xlink:href="#L" x="546.647" y="636.576"/></g><g><use xlink:href="#s" x="549.753" y="636.576"/></g><g><use xlink:href="#u" x="554.539" y="636.576"/></g><g><use xlink:href="#B" x="28.312" y="655.553"/><use xlink:href="#s" x="32.303" y="655.553"/><use xlink:href="#U" x="37.089" y="655.553"/><use xlink:href="#T" x="42.493" y="655.553"/><use xlink:href="#s" x="47.76" y="655.553"/><use xlink:href="#A" x="52.545" y="655.553"/><use xlink:href="#p" x="57.839" y="655.553"/></g><g><use xlink:href="#s" x="62.07" y="655.553"/><use xlink:href="#t" x="66.856" y="655.553"/><use xlink:href="#u" x="72.261" y="655.553"/><use xlink:href="#M" x="74.663" y="655.553"/><use xlink:href="#I" x="80.049" y="655.553"/><use xlink:href="#u" x="84.391" y="655.553"/><use xlink:href="#B" x="86.793" y="655.553"/><use xlink:href="#T" x="90.784" y="655.553"/><use xlink:href="#M" x="96.051" y="655.553"/><use xlink:href="#B" x="101.437" y="655.553"/><use xlink:href="#s" x="105.428" y="655.553"/><use xlink:href="#U" x="110.214" y="655.553"/><use xlink:href="#T" x="115.618" y="655.553"/><use xlink:href="#s" x="120.884" y="655.553"/><use xlink:href="#A" x="125.67" y="655.553"/><use xlink:href="#F" x="130.964" y="655.553"/><use xlink:href="#u" x="134.031" y="655.553"/><use xlink:href="#O" x="136.433" y="655.553"/><use xlink:href="#q" x="144.6" y="655.553"/><use xlink:href="#B" x="149.469" y="655.553"/><use xlink:href="#B" x="153.46" y="655.553"/><use xlink:href="#u" x="157.451" y="655.553"/><use xlink:href="#B" x="159.853" y="655.553"/><use xlink:href="#K" x="163.845" y="655.553"/><use xlink:href="#s" x="169.249" y="655.553"/><use xlink:href="#p" x="174.035" y="655.553"/></g><g><use xlink:href="#F" x="178.359" y="655.553"/><use xlink:href="#L" x="181.426" y="655.553"/></g><g><use xlink:href="#D" x="184.456" y="655.553"/><use xlink:href="#O" x="189.759" y="655.553"/><use xlink:href="#s" x="197.926" y="655.553"/></g><g><use xlink:href="#F" x="202.61" y="655.553"/><use xlink:href="#L" x="205.678" y="655.553"/></g><g><use xlink:href="#I" x="209.152" y="655.553"/><use xlink:href="#R" x="213.494" y="655.553"/></g><g><use xlink:href="#ab" x="126.114" y="693.505"/><use xlink:href="#R" x="130.871" y="693.505"/><use xlink:href="#u" x="133.006" y="693.505"/><use xlink:href="#ap" x="135.408" y="693.505"/></g><g><use xlink:href="#T" x="139.944" y="693.505"/><use xlink:href="#p" x="145.21" y="693.505"/><use xlink:href="#C" x="149.635" y="693.505"/><use xlink:href="#H" x="154.892" y="693.505"/><use xlink:href="#A" x="157.082" y="693.505"/><use xlink:href="#H" x="162.376" y="693.505"/><use xlink:href="#u" x="164.565" y="693.505"/><use xlink:href="#y" x="166.967" y="693.505"/><use xlink:href="#z" x="172.206" y="693.505"/><use xlink:href="#u" x="174.34" y="693.505"/><use xlink:href="#s" x="176.742" y="693.505"/></g><g><use xlink:href="#F" x="181.426" y="693.505"/><use xlink:href="#u" x="184.493" y="693.505"/><use xlink:href="#q" x="186.895" y="693.505"/><use xlink:href="#r" x="191.764" y="693.505"/><use xlink:href="#u" x="194.046" y="693.505"/><use xlink:href="#x" x="196.448" y="693.505"/><use xlink:href="#q" x="202.795" y="693.505"/></g><g><use xlink:href="#F" x="207.544" y="693.505"/><use xlink:href="#T" x="210.611" y="693.505"/><use xlink:href="#L" x="215.877" y="693.505"/></g><g><use xlink:href="#s" x="218.908" y="693.505"/><use xlink:href="#u" x="223.693" y="693.505"/><use xlink:href="#at" x="226.095" y="693.505"/><use xlink:href="#D" x="231.703" y="693.505"/><use xlink:href="#O" x="237.006" y="693.505"/><use xlink:href="#O" x="245.173" y="693.505"/><use xlink:href="#T" x="253.341" y="693.505"/><use xlink:href="#A" x="258.607" y="693.505"/><use xlink:href="#H" x="263.9" y="693.505"/><use xlink:href="#p" x="266.09" y="693.505"/></g><g><use xlink:href="#q" x="270.414" y="693.505"/></g><g><use xlink:href="#F" x="275.162" y="693.505"/><use xlink:href="#H" x="278.23" y="693.505"/><use xlink:href="#D" x="280.419" y="693.505"/><use xlink:href="#A" x="285.722" y="693.505"/><use xlink:href="#B" x="291.016" y="693.505"/><use xlink:href="#z" x="295.007" y="693.505"/><use xlink:href="#u" x="297.142" y="693.505"/><use xlink:href="#Z" x="299.544" y="693.505"/><use xlink:href="#av" x="304.302" y="693.505"/><use xlink:href="#ab" x="309.06" y="693.505"/><use xlink:href="#aJ" x="313.817" y="693.505"/><use xlink:href="#z" x="318.575" y="693.505"/><use xlink:href="#u" x="320.71" y="693.505"/><use xlink:href="#au" x="323.112" y="693.505"/><use xlink:href="#aK" x="327.87" y="693.505"/><use xlink:href="#aJ" x="330.004" y="693.505"/><use xlink:href="#aJ" x="334.762" y="693.505"/><use xlink:href="#ab" x="339.52" y="693.505"/><use xlink:href="#aL" x="344.278" y="693.505"/><use xlink:href="#z" x="349.036" y="693.505"/><use xlink:href="#u" x="351.17" y="693.505"/><use xlink:href="#t" x="353.572" y="693.505"/><use xlink:href="#D" x="358.977" y="693.505"/><use xlink:href="#H" x="364.28" y="693.505"/><use xlink:href="#aK" x="366.469" y="693.505"/><use xlink:href="#ab" x="368.603" y="693.505"/><use xlink:href="#av" x="373.361" y="693.505"/><use xlink:href="#R" x="378.119" y="693.505"/><use xlink:href="#ab" x="380.253" y="693.505"/><use xlink:href="#av" x="385.011" y="693.505"/><use xlink:href="#aL" x="389.769" y="693.505"/><use xlink:href="#aI" x="394.527" y="693.505"/><use xlink:href="#ar" x="399.285" y="693.505"/><use xlink:href="#A" x="402.75" y="693.505"/><use xlink:href="#p" x="408.044" y="693.505"/></g><g><use xlink:href="#D" x="412.275" y="693.505"/><use xlink:href="#O" x="417.578" y="693.505"/><use xlink:href="#O" x="425.745" y="693.505"/><use xlink:href="#B" x="433.912" y="693.505"/><use xlink:href="#au" x="437.903" y="693.505"/><use xlink:href="#aJ" x="442.661" y="693.505"/><use xlink:href="#ab" x="447.419" y="693.505"/><use xlink:href="#aL" x="452.177" y="693.505"/><use xlink:href="#u" x="456.935" y="693.505"/></g><g><use xlink:href="#Z" x="158.625" y="712.482"/><use xlink:href="#R" x="163.383" y="712.482"/><use xlink:href="#u" x="165.517" y="712.482"/><use xlink:href="#W" x="167.919" y="712.482"/><use xlink:href="#q" x="174.294" y="712.482"/><use xlink:href="#I" x="179.162" y="712.482"/><use xlink:href="#O" x="183.505" y="712.482"/><use xlink:href="#D" x="191.672" y="712.482"/><use xlink:href="#A" x="196.975" y="712.482"/><use xlink:href="#t" x="202.269" y="712.482"/><use xlink:href="#u" x="207.673" y="712.482"/><use xlink:href="#y" x="210.075" y="712.482"/><use xlink:href="#z" x="215.314" y="712.482"/><use xlink:href="#u" x="217.448" y="712.482"/><use xlink:href="#s" x="219.85" y="712.482"/></g><g><use xlink:href="#F" x="224.534" y="712.482"/><use xlink:href="#u" x="227.601" y="712.482"/><use xlink:href="#q" x="230.003" y="712.482"/><use xlink:href="#r" x="234.872" y="712.482"/><use xlink:href="#u" x="237.154" y="712.482"/><use xlink:href="#aM" x="239.556" y="712.482"/><use xlink:href="#u" x="244.148" y="712.482"/><use xlink:href="#w" x="246.55" y="712.482"/><use xlink:href="#H" x="252.297" y="712.482"/><use xlink:href="#D" x="254.486" y="712.482"/><use xlink:href="#r" x="259.789" y="712.482"/><use xlink:href="#u" x="262.071" y="712.482"/><use xlink:href="#at" x="264.473" y="712.482"/><use xlink:href="#C" x="270.081" y="712.482"/><use xlink:href="#s" x="275.338" y="712.482"/><use xlink:href="#O" x="280.124" y="712.482"/><use xlink:href="#R" x="288.291" y="712.482"/><use xlink:href="#u" x="290.425" y="712.482"/><use xlink:href="#Z" x="292.827" y="712.482"/><use xlink:href="#av" x="297.585" y="712.482"/><use xlink:href="#ab" x="302.343" y="712.482"/><use xlink:href="#aN" x="307.101" y="712.482"/><use xlink:href="#u" x="311.859" y="712.482"/><use xlink:href="#aM" x="314.261" y="712.482"/><use xlink:href="#T" x="318.853" y="712.482"/><use xlink:href="#r" x="324.119" y="712.482"/><use xlink:href="#u" x="326.401" y="712.482"/><use xlink:href="#ab" x="328.803" y="712.482"/><use xlink:href="#aN" x="333.561" y="712.482"/><use xlink:href="#aO" x="338.319" y="712.482"/><use xlink:href="#Z" x="340.453" y="712.482"/><use xlink:href="#aN" x="345.211" y="712.482"/><use xlink:href="#aJ" x="349.969" y="712.482"/><use xlink:href="#ac" x="354.727" y="712.482"/><use xlink:href="#Z" x="357.443" y="712.482"/><use xlink:href="#aN" x="362.201" y="712.482"/><use xlink:href="#af" x="366.959" y="712.482"/><use xlink:href="#aK" x="369.675" y="712.482"/><use xlink:href="#ab" x="371.809" y="712.482"/><use xlink:href="#ab" x="376.567" y="712.482"/><use xlink:href="#ab" x="381.325" y="712.482"/><use xlink:href="#aI" x="386.083" y="712.482"/><use xlink:href="#av" x="390.841" y="712.482"/><use xlink:href="#V" x="395.599" y="712.482"/><use xlink:href="#ab" x="398.5" y="712.482"/><use xlink:href="#ab" x="403.258" y="712.482"/><use xlink:href="#ab" x="408.016" y="712.482"/><use xlink:href="#aN" x="412.774" y="712.482"/><use xlink:href="#aI" x="417.532" y="712.482"/><use xlink:href="#R" x="422.29" y="712.482"/></g></svg>