<svg xmlns="http://www.w3.org/2000/svg" xmlns:xlink="http://www.w3.org/1999/xlink" width="793.701" height="1122.52" viewBox="0 0 595.276 841.89" version="1.2"><defs><clipPath id="s"><path d="M26 39h568.555v756H26zm0 0"/></clipPath><clipPath id="aB"><path d="M141 326h413.918v363H141zm0 0"/></clipPath><symbol overflow="visible" id="a"><path d="M.297-2.672c0-.84.195-1.515.594-2.015.34-.446.765-.672 1.265-.672.496 0 .926.226 1.281.671.383.5.579 1.184.579 2.047 0 .868-.196 1.551-.579 2.047-.355.45-.785.672-1.28.672-.493 0-.915-.223-1.266-.672C.492-1.09.297-1.785.297-2.672zm.781 0c0 .586.102 1.074.313 1.469.195.375.453.562.765.562.309 0 .57-.187.781-.562.208-.383.313-.863.313-1.438 0-.57-.105-1.05-.313-1.437-.21-.371-.472-.563-.78-.563-.305 0-.56.192-.766.563-.211.375-.313.848-.313 1.406zm0 0"/></symbol><symbol overflow="visible" id="b"><path d="M1.219-2.75A1.28 1.28 0 0 1 .64-3.86c0-.425.144-.785.437-1.078.29-.277.66-.421 1.11-.421.433 0 .8.144 1.093.421.29.282.438.645.438 1.079 0 .46-.196.832-.578 1.109.207.117.375.285.5.5.113.219.171.465.171.734 0 .47-.152.856-.453 1.157-.304.293-.695.437-1.171.437-.493 0-.895-.144-1.204-.437C.66-.66.5-1.04.5-1.5c0-.59.238-1.008.719-1.25zm.172-1.11a.778.778 0 0 0 .78.797.773.773 0 0 0 .563-.234.776.776 0 0 0 0-1.11.79.79 0 0 0-1.125 0 .742.742 0 0 0-.218.548zM1.28-1.53c0 .25.082.46.25.625a.84.84 0 0 0 .625.265.883.883 0 0 0 .625-.25.887.887 0 0 0 .25-.625.835.835 0 0 0-.265-.625.844.844 0 0 0-.61-.25.831.831 0 0 0-.61.25.8.8 0 0 0-.265.61zm0 0"/></symbol><symbol overflow="visible" id="d"><path d="M.64 0H1v-4.375H.64zm0 0"/></symbol><symbol overflow="visible" id="e"><path d="M.75-.156c.156 0 .313-.11.313-.313A.317.317 0 0 0 .75-.797a.317.317 0 0 0-.313.328c0 .203.157.313.313.313zm0 0"/></symbol><symbol overflow="visible" id="g"><path d="M1.844-3.953h1.078v-.281H.406v.28h1.125v.563c0 1.11-.484 2.016-1.218 2.407l.203.25c.578-.329 1-.954 1.187-1.75.188.718.578 1.265 1.125 1.578l.203-.25c-.734-.375-1.187-1.235-1.187-2.235zm2.687-.953v2.203h-.86v-2.078H3.36V.125h.313v-2.547h.86V.422h.312v-5.328zm0 0"/></symbol><symbol overflow="visible" id="h"><path d="M3.469-2.5c-.75.156-1.406.188-2.453.188H.937v-1.844h2.016v-.282H.61v2.407h.407c1.078 0 1.718-.047 2.5-.188zM1.516-1.422h-.329V.281h3.516V.016H1.516zm2.937-1.844v-1.656h-.328v3.875h.328v-1.937h.828v-.282zm0 0"/></symbol><symbol overflow="visible" id="i"><path d="M4.36.063H1.655V-.72H4.36zm0-1.047H1.655v-.735h-.312V.344h3.328V-1.72h-.313zM2.655-2.5H.953v-.969h1.703zM4.36-4.906v1.36H2.97v-1.095h-.313v.907H.953v-.907H.625v2.422h2.344V-3.28h1.39V-2h.329v-2.906zm0 0"/></symbol><symbol overflow="visible" id="j"><path d="M4.672-4.906h-.313V-.97h.313zM.797-3.234c0-.563.453-1 1.047-1 .593 0 1.047.437 1.047 1 0 .578-.454 1.015-1.047 1.015-.594 0-1.047-.437-1.047-1.015zm2.39 0c0-.75-.562-1.282-1.343-1.282-.782 0-1.36.532-1.36 1.282 0 .765.579 1.296 1.36 1.296.781 0 1.343-.53 1.343-1.296zM1.641.016v-1.407h-.313V.281H4.86V.016zm0 0"/></symbol><symbol overflow="visible" id="k"><path d="M.672-4.36v3.391h2.375v-3.39zm2.062.266v2.86H.984v-2.86zm1.61-.812V.422h.312v-5.328zm0 0"/></symbol><symbol overflow="visible" id="l"><path d="M.844-1.188v-1.359H2.5v-1.75H.516v.266h1.687v1.218H.531v1.907h.344c.672 0 1.281-.031 2.063-.172l-.047-.266c-.75.125-1.36.157-2.016.157zM4.53-4.905v2.156H3.61v-2.031h-.312V.125h.312v-2.61h.922V.423h.313v-5.328zm0 0"/></symbol><symbol overflow="visible" id="m"><path d="M2.078-4.5C1.25-4.5.672-4.016.672-3.281c0 .719.578 1.219 1.406 1.219s1.406-.5 1.406-1.22c0-.734-.578-1.218-1.406-1.218zm0 .281c.64 0 1.094.39 1.094.938 0 .547-.453.937-1.094.937-.64 0-1.094-.39-1.094-.937s.454-.938 1.094-.938zm2.219-.687V.422h.312v-5.328zM.422-.796c.969 0 2.297 0 3.531-.235l-.031-.235c-1.188.172-2.547.188-3.547.188zm0 0"/></symbol><symbol overflow="visible" id="n"><path d="M3.516-4.297H2.094v-.64H1.78v.64H.36v.266h3.157zM.984-2.734c0-.407.391-.688.954-.688.578 0 .953.281.953.688 0 .406-.375.687-.954.687-.562 0-.953-.281-.953-.687zm2.204 0c0-.579-.5-.938-1.25-.938s-1.266.36-1.266.938c0 .593.515.953 1.265.953.75 0 1.25-.36 1.25-.953zM1.03-.984h3.094v1.39h.328V-1.25H1.031zm4.25-2.407h-.828v-1.515h-.328v3.328h.328V-3.11h.828zm0 0"/></symbol><symbol overflow="visible" id="o"><path d="M.734-3.25c0-.578.454-1.016 1.047-1.016.594 0 1.047.438 1.047 1.016 0 .594-.453 1.031-1.047 1.031-.593 0-1.047-.437-1.047-1.031zm3.625-.5v1H3.047c.062-.156.078-.328.078-.5 0-.188-.031-.36-.078-.5zm0 1.266v1.53h.329v-3.952h-.329v.875H2.891c-.235-.313-.641-.516-1.11-.516C1-4.547.438-4.016.438-3.25c0 .766.562 1.313 1.343 1.313.485 0 .875-.204 1.125-.547zM1.672.016V-1.36h-.328V.28h3.5V.016zm0 0"/></symbol><symbol overflow="visible" id="p"><path d="M5.156-2.25h-.843c.156-.781.156-1.344.156-1.844v-.453h-3.5v.266h3.187v.187c0 .5 0 1.078-.172 1.844H.344v.281h2.25v2.39h.312v-2.39h2.25zm0 0"/></symbol><symbol overflow="visible" id="q"><path d="M4.906-2.203c-.765-.156-2.015-.922-2.015-1.89v-.423h-.329v.422c0 .969-1.218 1.735-1.984 1.89l.14.267c.72-.172 1.688-.75 2.016-1.563.344.813 1.313 1.39 2.032 1.563zM2.891-.578v-1.36h-.313v1.36H.344v.265h4.828v-.265zm0 0"/></symbol><symbol overflow="visible" id="r"><path d="M.547-4.203v.266h1.75C2.234-2.813 1.703-1.72.375-.985l.188.234c1.546-.86 2.046-2.172 2.046-3.453zm3.984-.703v2.218h-.89v-2.078h-.297V.125h.297v-2.547h.89V.422h.297v-5.328zm0 0"/></symbol><symbol overflow="visible" id="t"><path d="M1.906-13.063v1.188H7.97c-.313 3.844-2.469 6.922-6.797 9l.781 1.203c5.36-2.625 7.5-6.734 7.5-11.39zm10.813-1.734V1.328h1.469v-16.125zm0 0"/></symbol><symbol overflow="visible" id="u"><path d="M14.75-10.25c-2.938-.328-5.734-1.906-5.734-3.875v-.61H7.5v.61c0 1.969-2.844 3.547-5.781 3.875l.515 1.11c2.563-.313 5-1.454 6-3.172 1.032 1.718 3.454 2.859 6.016 3.171zm.781 3.36v-1.188H.937v1.187H7.5v1.61H2.703v1.125h9.516v1.484H2.75v3.828h11.406V0H4.187v-1.594h9.485V-5.28H8.969v-1.61zm0 0"/></symbol><symbol overflow="visible" id="v"><path d="M14.172-14.781h-1.469v8.344h1.469zm-3.453 6.719c-2.39-.782-4.078-2.797-4.078-5.032v-1.219H5.156v1.22c0 2.343-1.672 4.5-4.093 5.343l.75 1.156a6.91 6.91 0 0 0 4.109-4.015c.734 1.703 2.203 3.062 4.062 3.703zM5.234-.017V-1.75h8.954v-3.875H3.733v1.172h9v1.594H3.781v4.015h10.953V-.016zm0 0"/></symbol><symbol overflow="visible" id="w"><path d="M8.234.188c-2.53 0-4.03-.641-4.03-1.735s1.5-1.719 4.03-1.719c2.516 0 4.032.625 4.032 1.72 0 1.093-1.516 1.734-4.032 1.734zm0-4.61c-3.453 0-5.515 1.016-5.515 2.875 0 1.86 2.062 2.86 5.515 2.86 3.47 0 5.532-1 5.532-2.86 0-1.86-2.063-2.875-5.532-2.875zM6-8.703c.672.11 1.422.172 2.234.172.829 0 1.579-.063 2.25-.172v1.89H6zm-1.922-2.813c0-1.156 1.594-1.843 4.156-1.843 2.579 0 4.157.687 4.157 1.843 0 1.157-1.579 1.86-4.157 1.86-2.562 0-4.156-.703-4.156-1.86zm7.86 4.704v-2.282c1.25-.515 1.968-1.344 1.968-2.422 0-1.875-2.156-3-5.672-3-3.484 0-5.656 1.125-5.656 3 0 1.11.688 1.907 1.969 2.438v2.265H.937v1.188h14.594v-1.188zm0 0"/></symbol><symbol overflow="visible" id="x"><path d="M10.688-12.844H6.625v-1.937H5.141v1.937H1.047v1.172h9.64zm-7.22 5.11c0-1.11.97-1.844 2.407-1.844 1.438 0 2.422.734 2.422 1.844 0 1.109-.985 1.828-2.422 1.828-1.438 0-2.406-.719-2.406-1.828zm3.157 2.953c1.844-.235 3.063-1.344 3.063-2.953 0-1.813-1.563-2.985-3.813-2.985-2.234 0-3.813 1.172-3.813 2.985 0 1.609 1.235 2.718 3.079 2.953v1.765c-1.563.047-3.079.047-4.375.047l.203 1.25c2.828 0 6.625-.047 10.078-.656l-.094-1.094c-1.39.219-2.875.328-4.328.39zm9.266-3.172h-2.516v-6.844h-1.469V1.328h1.469v-8.031h2.516zm0 0"/></symbol><symbol overflow="visible" id="y"><path d="M12.25-11.984H2.828v3.453h11.156v-1.047H4.281v-1.39h9.422v-3.36H2.781v1.031h9.469zM4.187-1.438h9.579v-3.437H2.703v1.063h9.594v1.343H2.734V1.11h11.532V.047H4.187zM.954-7.296v1.11h14.625v-1.11zm0 0"/></symbol><symbol overflow="visible" id="A"><path d="M9.406-5.266v1.094h3.266v1.656h1.484v-12.28h-1.484v9.53zM6.11-13.062c1.532 0 2.579.687 2.579 1.718S7.64-9.625 6.108-9.625c-1.515 0-2.562-.688-2.562-1.719 0-1.031 1.047-1.719 2.562-1.719zm0 4.53c2.36 0 3.985-1.093 3.985-2.812 0-1.687-1.625-2.812-3.985-2.812-2.343 0-3.968 1.125-3.968 2.812 0 1.719 1.625 2.813 3.968 2.813zm-.562 5.438h1.469V-6.28a45.107 45.107 0 0 0 4.375-.469l-.125-1.063c-3.422.438-7.422.47-10.407.47l.204 1.234a92.65 92.65 0 0 0 4.484-.094zM4.64-.234V-3.72H3.17V.97h11.392V-.234zm0 0"/></symbol><symbol overflow="visible" id="B"><path d="M5.688-3.484c-1.47 0-2.516-1.047-2.516-2.485 0-1.453 1.047-2.5 2.515-2.5 1.47 0 2.532 1.047 2.532 2.5 0 1.438-1.063 2.485-2.531 2.485zm0-6.204c-2.266 0-3.907 1.547-3.907 3.72 0 2.187 1.64 3.702 3.907 3.702 2.296 0 3.937-1.515 3.937-3.703 0-2.172-1.64-3.718-3.938-3.718zm.718-4.921H4.922v2.39H.859v1.188h9.516v-1.188H6.406zm9.625 6.437h-2.656v-6.61h-1.469v16.11h1.469v-8.25h2.656zm0 0"/></symbol><symbol overflow="visible" id="C"><path d="M13.89-9.953h-9.5v-4.25H2.907v5.469h10.985zM4.282-3.781H2.813V.938h11.156V-.266H4.28zM.938-6.578v1.187h14.624v-1.187zm0 0"/></symbol><symbol overflow="visible" id="D"><path d="M7.89-5.984c.094-.579.141-1.172.141-1.86 0-.687-.047-1.281-.14-1.843h2.203v3.703zM4.595-3.578c-1.282 0-2.11-1.64-2.11-4.266 0-2.61.829-4.234 2.11-4.234s2.093 1.625 2.093 4.234c0 2.625-.812 4.266-2.093 4.266zm5.5-7.328h-2.5c-.563-1.61-1.61-2.547-3-2.547-2.094 0-3.438 2.156-3.438 5.61 0 3.468 1.344 5.624 3.438 5.624 1.39 0 2.422-.922 3-2.547h2.5V.547h1.39v-14.985h-1.39zm3.156-3.89V1.327h1.406v-16.125zm0 0"/></symbol><symbol overflow="visible" id="E"><path d="M12.672-14.797v16.14h1.484v-16.14zm-10.797 1.36v10.89h7.578v-10.89H8v4.265H3.328v-4.265zM3.328-8H8v4.234H3.328zm0 0"/></symbol><symbol overflow="visible" id="F"><path d="M10.39-6.89c-2.374-.704-3.937-2.485-3.937-4.438v-.328h3.563v-1.188H6.453v-2.031H4.984v2.031H1.406v1.188h3.578v.328C4.984-9.172 3.36-7.234.97-6.5l.734 1.172c1.89-.64 3.344-1.969 4.031-3.688.72 1.532 2.141 2.704 3.954 3.282zM8.345.155C5.938.156 4.5-.484 4.5-1.594c0-1.125 1.438-1.765 3.844-1.765 2.375 0 3.828.64 3.828 1.765 0 1.11-1.453 1.75-3.828 1.75zm0-4.672c-3.328 0-5.328 1.047-5.328 2.922 0 1.844 2 2.89 5.328 2.89 3.297 0 5.312-1.046 5.312-2.89 0-1.875-2.015-2.922-5.312-2.922zm5.125-6.109v-4.172H12v9.89h1.469v-4.5h2.39v-1.218zm0 0"/></symbol><symbol overflow="visible" id="G"><path d="M12.766-.078H5.375v-2.078h7.39zm0-3.235H5.375v-2.03H3.922v6.452H14.25v-6.453h-1.484zm-7.407-4.5c-1.593 0-2.75-1.03-2.75-2.515 0-1.469 1.157-2.5 2.75-2.5 1.594 0 2.75 1.031 2.75 2.5 0 1.484-1.156 2.515-2.75 2.515zm7.391-6.968v3.828H9.453c-.297-1.875-1.922-3.094-4.094-3.094-2.406 0-4.156 1.516-4.156 3.719 0 2.234 1.75 3.75 4.156 3.75 2.22 0 3.829-1.266 4.125-3.172h3.266v3.625h1.5v-8.656zm0 0"/></symbol><symbol overflow="visible" id="H"><path d="M6.39-11.922H9.97v-1.219H1.234v1.22h3.688v2.046c0 2.734-1.938 5.797-4.234 6.938l.859 1.171c1.812-.937 3.375-2.984 4.125-5.343.734 2.156 2.234 4.046 4.047 4.953l.844-1.188C8.219-4.438 6.39-7.297 6.39-9.875zm9.641 3.625H13.36v-6.484h-1.468v16.11h1.468v-8.376h2.672zm0 0"/></symbol><symbol overflow="visible" id="I"><path d="M1.344 3.016C2.969 2.359 3.969.984 3.969-.75c0-1.172-.5-1.922-1.375-1.922-.672 0-1.25.422-1.25 1.14 0 .735.578 1.157 1.203 1.157.078 0 .125 0 .203-.016 0 1.094-.688 1.97-1.797 2.454zm0 0"/></symbol><symbol overflow="visible" id="J"><path d="M8.234-13.422c2.641 0 4.157.61 4.157 1.703 0 1.078-1.516 1.688-4.157 1.688-2.64 0-4.156-.61-4.156-1.688 0-1.094 1.516-1.703 4.156-1.703zm0 4.485c3.547 0 5.672-.97 5.672-2.782 0-1.828-2.125-2.812-5.672-2.812-3.546 0-5.656.984-5.656 2.812 0 1.813 2.11 2.781 5.656 2.781zM4.188-1.641h9.484v-3.625H2.703v1.11h9.516v1.437H2.75v3.875h11.406V0H4.187zM.938-7.844v1.188H15.53v-1.188zm0 0"/></symbol><symbol overflow="visible" id="K"><path d="M6.234-12.828c1.579 0 2.688.844 2.688 2.11 0 1.265-1.11 2.109-2.688 2.109s-2.687-.844-2.687-2.11c0-1.265 1.11-2.11 2.687-2.11zm0 5.422c2.391 0 4.11-1.36 4.11-3.313 0-1.984-1.719-3.328-4.11-3.328-2.406 0-4.109 1.344-4.109 3.328 0 1.953 1.703 3.313 4.11 3.313zm5.313.781C8-6.078 3.922-6.047.922-6.047l.187 1.25c1.344 0 2.86-.016 4.47-.094V.83h1.468v-5.813a42.34 42.34 0 0 0 4.625-.532zm1.172-8.156V1.344h1.469v-16.125zm0 0"/></symbol><symbol overflow="visible" id="L"><path d="M10.516-12.828H6.5v-1.953H5.016v1.953H1v1.187h9.516zM3.312-7.75c0-1.11.97-1.828 2.438-1.828 1.469 0 2.469.719 2.469 1.828 0 1.125-1 1.844-2.469 1.844-1.469 0-2.438-.719-2.438-1.844zm6.313 0c0-1.797-1.594-2.984-3.875-2.984-2.281 0-3.844 1.187-3.844 2.984 0 1.813 1.563 3 3.844 3 2.281 0 3.875-1.188 3.875-3zM4.906-3.656H3.438V.969h10.75V-.234H4.905zm8.563-5.828v-5.297H12v12.078h1.469v-5.531h2.39v-1.25zm0 0"/></symbol><symbol overflow="visible" id="M"><path d="M12.86-15.031v6.344h-1.344v-6.079h-2.22v10.72C6.86-5.329 6.032-8.079 6.032-10.97v-.453H8.5v-1.922H1v1.922h2.719v.453c0 3.188-.781 6.11-3.25 7.547L1.89-1.625C3.437-2.531 4.406-4.094 4.953-6 5.547-4.36 6.5-3.016 7.97-2.234l1.328-1.782V.797h2.219V-6.75h1.343v8.281h2.25V-15.03zm0 0"/></symbol><symbol overflow="visible" id="N"><path d="M10.14-8.14c-1.796.374-3.437.484-6.374.5v-4.173h5.046v-1.89H1.407v7.969h1.375c3.672 0 5.563-.094 7.594-.547zM5.5-4.298H3.125v5.563h11.281V-.625H5.5zm8.313-6.203v-4.516h-2.376v11.97h2.376v-5.517H16V-10.5zm0 0"/></symbol><symbol overflow="visible" id="O"><path d="M12.266-.547H5.984v-1.39h6.282zm0-3.219H5.984v-1.468H3.656v6.562h10.969v-6.562h-2.36zM6.984-8.312H3.828v-1.954h3.156zm5.266-6.704v3.782H9.297v-2.938H6.984v2.094H3.828v-2.094h-2.36v7.75h7.829v-2.906h2.953v3.39h2.375v-9.078zm0 0"/></symbol><symbol overflow="visible" id="P"><path d="M14.531-15h-2.39v11.89h2.39zM3.328-9.75c0-1.36.969-2.156 2.188-2.156 1.25 0 2.187.797 2.187 2.156 0 1.328-.937 2.14-2.187 2.14-1.22 0-2.188-.812-2.188-2.14zm6.688 0c0-2.438-1.954-4.203-4.5-4.203C2.984-13.953 1-12.188 1-9.75c0 2.406 1.984 4.188 4.516 4.188 2.546 0 4.5-1.782 4.5-4.188zM5.875-.625v-3.656H3.5v5.547h11.438V-.625zm0 0"/></symbol><symbol overflow="visible" id="R"><path d="M1.578-13.531v11.14h7.969v-11.14zm5.64 1.875v7.39H3.923v-7.39zm4.907-3.36V1.578H14.5v-16.594zm0 0"/></symbol><symbol overflow="visible" id="S"><path d="M3.531-7H7.47v-6.422H1.203v1.906h3.969v2.657H1.219v6.734H2.39c2 0 3.796-.047 5.921-.39l-.187-1.922a34.5 34.5 0 0 1-4.594.375zm9.203-8.031v6.25h-1.5v-5.953H9.031V.75h2.203v-7.625h1.5v8.406h2.25V-15.03zm0 0"/></symbol><symbol overflow="visible" id="T"><path d="M6.094-13.922c-2.594 0-4.547 1.703-4.547 4.078 0 2.39 1.953 4.094 4.547 4.094 2.593 0 4.578-1.703 4.578-4.094 0-2.375-1.985-4.078-4.578-4.078zm0 2.031c1.281 0 2.25.766 2.25 2.047 0 1.297-.969 2.063-2.25 2.063-1.282 0-2.25-.766-2.25-2.063 0-1.281.969-2.047 2.25-2.047zm6.125-3.14v16.61h2.36v-16.61zM1.156-1.781c2.86 0 6.735-.032 10.297-.75l-.14-1.719c-3.485.531-7.547.547-10.47.547zm0 0"/></symbol><symbol overflow="visible" id="U"><path d="M10.516-13.563H6.828v-1.546h-2.39v1.546H.765v1.876h9.75zM3.844-8.125c0-.828.719-1.25 1.797-1.25 1.062 0 1.812.422 1.812 1.25 0 .844-.75 1.25-1.812 1.25-1.079 0-1.797-.406-1.797-1.25zm5.875 0c0-1.797-1.688-3.047-4.078-3.047-2.375 0-4.063 1.25-4.063 3.047 0 1.813 1.688 3.047 4.063 3.047 2.39 0 4.078-1.234 4.078-3.047zM2.766-2.047h8.671v3.61h2.376v-5.516H2.765zM16-10.75h-2.188v-4.266h-2.374V-4.64h2.374v-4.156H16zm0 0"/></symbol><symbol overflow="visible" id="V"><path d="M3.234-9.75c0-1.36.907-2.203 2.11-2.203 1.218 0 2.125.844 2.125 2.203 0 1.39-.907 2.234-2.125 2.234-1.203 0-2.11-.843-2.11-2.234zm9.016-1.078v2.14H9.578c.094-.328.14-.703.14-1.062 0-.375-.062-.734-.14-1.078zm0 4.031v3.906h2.375v-12.125H12.25v2.297H8.562c-.812-.828-1.921-1.312-3.218-1.312-2.453 0-4.36 1.812-4.36 4.281 0 2.484 1.907 4.297 4.36 4.297 1.297 0 2.437-.5 3.25-1.344zM6.078-.625v-3.453H3.703v5.344H15V-.625zm0 0"/></symbol><symbol overflow="visible" id="W"><path d="M15.75-7.016h-2.172c.406-2.312.406-4.015.406-5.562v-1.485H2.5v1.907h9.172c0 1.422-.031 3.031-.453 5.14H.797v1.907h6.187v6.656h2.407V-5.11h6.359zm0 0"/></symbol><symbol overflow="visible" id="X"><path d="M1.266 0h3.703C7.25 0 8.984-.969 8.984-3.047c0-1.406-.828-2.187-1.953-2.453v-.063c.89-.312 1.422-1.296 1.422-2.234 0-1.937-1.625-2.547-3.75-2.547H1.266zm2.078-6.14v-2.626h1.234c1.234 0 1.86.36 1.86 1.266 0 .828-.579 1.36-1.891 1.36zm0 4.546v-3H4.78c1.422 0 2.188.407 2.188 1.422 0 1.078-.782 1.578-2.188 1.578zm0 0"/></symbol><symbol overflow="visible" id="Y"><path d="M1.266 0h2.078v-10.344H1.266zm0 0"/></symbol><symbol overflow="visible" id="Z"><path d="M.594 0h7.422v-1.734H3.14l4.812-7.391v-1.219h-6.89v1.719h4.359L.594-1.25zm0 0"/></symbol><symbol overflow="visible" id="ab"><path d="M1.266 0h1.859v-4.328c0-.969-.156-2.406-.266-3.39h.063l.828 2.437L5.36-.938h1.187L8.14-5.28l.843-2.438h.047c-.094.985-.25 2.422-.25 3.39V0h1.89v-10.344H8.376L6.656-5.516c-.218.657-.406 1.329-.625 2h-.078c-.203-.671-.406-1.343-.625-2l-1.766-4.828H1.267zm0 0"/></symbol><symbol overflow="visible" id="ac"><path d="M5.39.203c2.735 0 4.626-2.062 4.626-5.422s-1.891-5.328-4.625-5.328C2.64-10.547.75-8.594.75-5.219.75-1.859 2.64.203 5.39.203zm0-1.797C3.845-1.594 2.86-3 2.86-5.219c0-2.218.984-3.547 2.53-3.547 1.532 0 2.516 1.329 2.516 3.547 0 2.219-.984 3.625-2.515 3.625zm0 0"/></symbol><symbol overflow="visible" id="ad"><path d="M1.266 0h2.953c3.047 0 5.015-1.734 5.015-5.219 0-3.5-1.968-5.125-5.125-5.125H1.266zm2.078-1.672v-7.031h.64c1.938 0 3.141.953 3.141 3.484 0 2.516-1.203 3.547-3.14 3.547zm0 0"/></symbol><symbol overflow="visible" id="ae"><path d="M1.266 0H7.78v-1.734H3.344V-4.5h3.64v-1.734h-3.64v-2.391h4.281v-1.719h-6.36zm0 0"/></symbol><symbol overflow="visible" id="af"><path d="M1.266 0H7.53v-1.734H3.344v-8.61H1.266zm0 0"/></symbol><symbol overflow="visible" id="ag"><path d="M2.281-7.86c.719 0 1.281-.577 1.281-1.327 0-.782-.562-1.36-1.28-1.36-.735 0-1.282.578-1.282 1.36 0 .75.547 1.328 1.281 1.328zm0 7.048c.719 0 1.281-.563 1.281-1.329 0-.765-.562-1.343-1.28-1.343C1.546-3.484 1-2.906 1-2.141c0 .766.547 1.329 1.281 1.329zm0 0"/></symbol><symbol overflow="visible" id="ah"><path d="M5.25.203c2.531 0 4-1.422 4-4.86v-5.687H7.266v5.875c0 2.14-.797 2.875-2.016 2.875-1.219 0-1.969-.734-1.969-2.875v-5.875H1.22v5.688c0 3.437 1.515 4.86 4.031 4.86zm0 0"/></symbol><symbol overflow="visible" id="ai"><path d="M3.328 0h2.063v-8.625h2.937v-1.719H.422v1.719h2.906zm0 0"/></symbol><symbol overflow="visible" id="aj"><path d="M4.36.203c2.39 0 3.812-1.453 3.812-3.14 0-1.5-.828-2.297-2.094-2.813l-1.344-.578c-.89-.344-1.625-.61-1.625-1.344 0-.687.579-1.094 1.485-1.094.86 0 1.547.313 2.203.844l1.047-1.297c-.844-.844-2.047-1.328-3.25-1.328-2.094 0-3.578 1.297-3.578 3 0 1.5 1.046 2.344 2.109 2.781l1.375.579c.922.39 1.563.64 1.563 1.406 0 .719-.579 1.187-1.657 1.187-.906 0-1.89-.468-2.625-1.14L.594-1.313c1 .97 2.39 1.516 3.765 1.516zm0 0"/></symbol><symbol overflow="visible" id="ak"><path d="M1.266 0h1.968v-4.156c0-1.188-.156-2.485-.25-3.61h.063L4.094-5.53l3 5.531h2.093v-10.344H7.234v4.125c0 1.172.157 2.547.266 3.625h-.078L6.39-4.844l-3-5.5H1.266zm0 0"/></symbol><symbol overflow="visible" id="al"><path d="M1.266 0h2.078v-3.672h1.39c2.22 0 3.985-1.062 3.985-3.437 0-2.438-1.75-3.235-4.047-3.235H1.266zm2.078-5.313v-3.406h1.172c1.421 0 2.187.406 2.187 1.61 0 1.187-.687 1.796-2.11 1.796zm0 0"/></symbol><symbol overflow="visible" id="am"><path d="M3.219-4.266L3.53-5.39c.297-1.078.61-2.265.875-3.39h.063c.297 1.125.578 2.312.906 3.39l.297 1.125zM6.859 0h2.157L5.687-10.344H3.267L-.063 0h2.11l.719-2.656h3.359zm0 0"/></symbol><symbol overflow="visible" id="an"><path d="M3.281 1.953l1.297-.547C3.391-.625 2.86-3 2.86-5.312c0-2.313.532-4.672 1.72-6.72l-1.298-.546C1.97-10.406 1.203-8.11 1.203-5.313c0 2.813.766 5.094 2.078 7.266zm0 0"/></symbol><symbol overflow="visible" id="ao"><path d="M1.11 0h2.03v-5.39c.594-.563 1-.876 1.641-.876.766 0 1.11.438 1.11 1.641V0h2.046v-4.875c0-1.984-.718-3.156-2.406-3.156-1.062 0-1.875.562-2.547 1.234h-.062l-.14-1.031H1.108zm0 0"/></symbol><symbol overflow="visible" id="ap"><path d="M1.11 0h2.03v-7.828H1.11zm1.03-9.094c.704 0 1.22-.469 1.22-1.11 0-.671-.516-1.124-1.22-1.124-.718 0-1.234.453-1.234 1.125 0 .64.516 1.11 1.235 1.11zm0 0"/></symbol><symbol overflow="visible" id="aq"><path d="M2.86 0h2.39l2.61-7.828H5.89L4.735-3.922c-.203.766-.421 1.578-.625 2.375h-.062c-.219-.797-.438-1.61-.64-2.375L2.265-7.828H.203zm0 0"/></symbol><symbol overflow="visible" id="ar"><path d="M4.5.203c.984 0 1.969-.344 2.75-.875l-.703-1.265c-.563.359-1.125.546-1.766.546-1.156 0-2-.671-2.172-1.953h4.829c.062-.187.093-.562.093-.937 0-2.172-1.11-3.75-3.265-3.75C2.39-8.031.609-6.453.609-3.906.61-1.328 2.33.204 4.5.204zM2.594-4.703c.14-1.14.875-1.734 1.703-1.734 1 0 1.484.671 1.484 1.734zm0 0"/></symbol><symbol overflow="visible" id="as"><path d="M1.11 0h2.03v-4.672c.454-1.125 1.188-1.531 1.813-1.531.313 0 .547.031.813.125l.359-1.781a2.243 2.243 0 0 0-.922-.172c-.812 0-1.656.562-2.219 1.578h-.062l-.14-1.375H1.108zm0 0"/></symbol><symbol overflow="visible" id="at"><path d="M3.344.203c2.047 0 3.11-1.11 3.11-2.484 0-1.453-1.141-1.969-2.173-2.36-.828-.312-1.593-.515-1.593-1.093 0-.454.328-.75 1.03-.75.595 0 1.141.28 1.688.671l.922-1.25c-.656-.484-1.516-.968-2.672-.968-1.75 0-2.906 1-2.906 2.406 0 1.297 1.156 1.906 2.14 2.281.829.328 1.641.594 1.641 1.172 0 .5-.343.828-1.14.828-.72 0-1.391-.312-2.094-.86L.359-.905c.766.64 1.938 1.11 2.985 1.11zm0 0"/></symbol><symbol overflow="visible" id="au"><path d="M3.031.203c.89 0 1.688-.453 2.36-1.047h.046L5.595 0h1.672v-4.578c0-2.266-1.016-3.453-3-3.453C3.03-8.031 1.922-7.562 1-7l.734 1.36c.735-.423 1.422-.735 2.157-.735.968 0 1.296.578 1.328 1.36-3.157.327-4.5 1.218-4.5 2.89C.719-.797 1.64.203 3.03.203zm.672-1.61c-.594 0-1.031-.265-1.031-.89 0-.703.64-1.219 2.547-1.469v1.579c-.485.5-.922.78-1.516.78zm0 0"/></symbol><symbol overflow="visible" id="av"><path d="M3.031.203c.485 0 .828-.094 1.063-.187l-.25-1.532c-.14.032-.188.032-.281.032-.188 0-.422-.157-.422-.61v-9.062H1.109v8.953c0 1.469.5 2.406 1.922 2.406zm0 0"/></symbol><symbol overflow="visible" id="aw"><path d="M4.438.203C5.296.203 6.25-.094 7-.75l-.813-1.36c-.437.36-.968.626-1.53.626-1.126 0-1.938-.954-1.938-2.422 0-1.485.812-2.438 2-2.438.437 0 .812.172 1.203.516l.969-1.328a3.353 3.353 0 0 0-2.282-.875c-2.125 0-4 1.515-4 4.125 0 2.594 1.657 4.11 3.829 4.11zm0 0"/></symbol><symbol overflow="visible" id="ax"><path d="M1.11 0h2.03v-5.39c.594-.563 1-.876 1.641-.876.766 0 1.11.438 1.11 1.641V0h2.046v-4.875c0-1.984-.718-3.156-2.406-3.156-1.062 0-1.843.562-2.468 1.156l.078-1.469v-2.812H1.109zm0 0"/></symbol><symbol overflow="visible" id="ay"><path d="M3.86 3.39c2.609 0 4.25-1.187 4.25-2.78 0-1.36-1.016-1.954-2.907-1.954H3.875c-.922 0-1.234-.218-1.234-.64 0-.313.109-.485.343-.672.329.11.688.187 1 .187C5.656-2.469 7-3.375 7-5.125c0-.5-.14-.938-.36-1.203h1.344v-1.5H5.156a3.66 3.66 0 0 0-1.172-.203c-1.656 0-3.156 1-3.156 2.844A2.6 2.6 0 0 0 1.86-3.142v.047C1.406-2.75 1-2.204 1-1.625c0 .64.297 1.047.703 1.313v.078C1 .172.593.734.593 1.39c0 1.375 1.423 2 3.266 2zm.124-7.14c-.687 0-1.234-.516-1.234-1.438 0-.921.531-1.437 1.234-1.437.704 0 1.22.516 1.22 1.438 0 .921-.532 1.437-1.22 1.437zm.188 5.844c-1.156 0-1.875-.375-1.875-1.031 0-.329.172-.625.515-.907.282.063.61.11 1.094.11h.953c.829 0 1.297.14 1.297.703 0 .61-.812 1.125-1.984 1.125zm0 0"/></symbol><symbol overflow="visible" id="az"><path d="M.578 0H6.75v-1.625H3.125l3.516-5.094v-1.11H.969v1.626h3.094L.578-1.11zm0 0"/></symbol><symbol overflow="visible" id="aA"><path d="M2.016 1.953C3.344-.219 4.109-2.5 4.109-5.313c0-2.796-.765-5.093-2.093-7.265l-1.297.547c1.187 2.047 1.734 4.406 1.734 6.719C2.453-3 1.906-.625.72 1.405zm0 0"/></symbol><symbol overflow="visible" id="aC"><path d="M2.516-8.422c0-1.281.906-2.156 2.14-2.156 1.203 0 2.125.875 2.125 2.156 0 1.297-.922 2.172-2.125 2.172-1.234 0-2.14-.875-2.14-2.172zm8.328-1.047v2.078H8.14c.109-.328.156-.656.156-1.03 0-.376-.047-.72-.156-1.048zm0 3.39v3.563h1.61v-10.343h-1.61v2.078H7.469C6.812-11.531 5.812-12 4.656-12 2.578-12 .984-10.5.984-8.422c0 2.063 1.594 3.563 3.672 3.563 1.157.015 2.157-.454 2.813-1.22zM4.938-.374v-3.172h-1.61V.938h9.485V-.375zm0 0"/></symbol><symbol overflow="visible" id="aD"><path d="M13.516-6h-1.954c.36-1.984.36-3.453.36-4.781v-1.235H2.328v1.297h8.016c0 1.297 0 2.766-.406 4.719H.796v1.328h5.5v5.875h1.61v-5.875h5.609zm0 0"/></symbol><symbol overflow="visible" id="aE"><path d="M5.719-10.14h2.968v-1.329h-7.64v1.328h3.062v1.36c0 2.328-1.437 5-3.578 6.031l.922 1.266c1.61-.797 2.86-2.47 3.484-4.438.641 1.781 1.844 3.328 3.407 4.078l.89-1.25C7.11-4.109 5.72-6.609 5.72-8.78zm8.156 2.812h-2.188v-5.547h-1.609V1.203h1.61V-6h2.187zm0 0"/></symbol><symbol overflow="visible" id="aF"><path d="M3.813-8.266h6.671v2.297H3.813zm4.124 6.422v-2.828h4.141v-7.266h-1.594v2.376H3.813v-2.376H2.234v7.266h4.11v2.828H.797v1.328H13.53v-1.328zm0 0"/></symbol><symbol overflow="visible" id="aG"><path d="M8.063-8.64v1.312h2.78v4.812h1.61v-10.359h-1.61v4.234zm-6.36-3.157v1.313h4.719C6.125-8.172 4.062-6.313.969-5.297l.703 1.281c4-1.312 6.469-4.062 6.469-7.78zM5.031-.375v-3.172h-1.61V.938h9.392V-.375zm0 0"/></symbol><symbol overflow="visible" id="aH"><path d="M5.328-11.89c-2.203 0-3.812 1.39-3.812 3.39 0 1.984 1.609 3.375 3.812 3.375S9.156-6.515 9.156-8.5c0-2-1.625-3.39-3.828-3.39zm0 1.374c1.313 0 2.266.782 2.266 2.016 0 1.203-.953 2-2.266 2-1.297 0-2.25-.797-2.25-2 0-1.234.953-2.016 2.25-2.016zm5.422-2.375V1.22h1.625v-14.11zM1.062-1.766c2.485 0 5.86-.03 8.954-.625l-.11-1.156c-3.015.453-6.531.469-9.047.469zm0 0"/></symbol><symbol overflow="visible" id="aI"><path d="M5.797-4.203h2.875v2.422H5.797zm4.469 2.422v-2.422h2.078V-5.5H3.906v-1.953h8.125v-4.438H2.312v1.297h8.126v1.875H2.344v4.516h1.86v2.422H.796v1.328H13.53v-1.328zm0 0"/></symbol><symbol overflow="visible" id="aJ"><path d="M1.594-11.39v1.312h5.015C6.33-6.844 4.58-4.36.891-2.594l.859 1.281c4.828-2.328 6.5-5.89 6.5-10.078zm9.203-1.485V1.203h1.61v-14.078zm0 0"/></symbol><symbol overflow="visible" id="aK"><path d="M8.219-6.844c.344-1.812.344-3.203.344-4.156v-.813H1.5v1.313H7a19.783 19.783 0 0 1-.344 3.484zm1.172.703C8-5.92 6.5-5.828 5.03-5.766v-2.828H3.438v2.875c-.985.032-1.954.032-2.797.032l.171 1.312c2.438 0 5.766-.078 8.688-.594zM4.375-3.234H2.75V.937h9.578V-.375H4.375zm7.5-5.172v-4.469H10.25v10.563h1.625v-4.782h1.86v-1.312zm0 0"/></symbol><symbol overflow="visible" id="aL"><path d="M6.375-3.406h-3.5V-6.86h3.5zm0-4.719h-3.5v-3.594H1.281v9.594h6.672v-9.594H6.375zm7.5.656h-2.188v-5.406h-1.609V1.219h1.61v-7.344h2.187zm0 0"/></symbol><symbol overflow="visible" id="aM"><path d="M10.75-12.89V1.233h1.625V-12.89zm-5.875 1.046c-2.094 0-3.61 1.938-3.61 4.953 0 3.063 1.516 4.97 3.61 4.97 2.11 0 3.625-1.907 3.625-4.97 0-3.015-1.516-4.953-3.625-4.953zm0 1.453c1.234 0 2.094 1.329 2.094 3.5 0 2.22-.86 3.547-2.094 3.547-1.219 0-2.078-1.328-2.078-3.547 0-2.171.86-3.5 2.078-3.5zm0 0"/></symbol><symbol overflow="visible" id="aN"><path d="M3.531-8.266c0-1.53 1.516-2.5 3.625-2.5 2.078 0 3.594.97 3.594 2.5 0 1.516-1.516 2.485-3.594 2.485-2.11 0-3.625-.969-3.625-2.485zm4.406 6.422v-2.672c2.579-.234 4.391-1.671 4.391-3.75 0-2.296-2.203-3.78-5.172-3.78-3 0-5.172 1.483-5.172 3.78 0 2.079 1.782 3.5 4.36 3.735v2.687H.797V-.53H13.53v-1.313zm0 0"/></symbol><symbol overflow="visible" id="aO"><path d="M12.703-12.875h-1.531v10.656h1.531zM5.36-6.047h-2.5v-2.187h2.5zm1.5-1.531h1.579v4.953h1.515v-9.984H8.438v3.734H6.859v-2.89h-1.5v2.28h-2.5v-2.28h-1.5v7h5.5zM5.016-.375v-3.234H3.39V.937h9.687V-.375zm0 0"/></symbol><symbol overflow="visible" id="aP"><path d="M5.828-9.203h2.969V-10.5H5.844v-2.094H4.219v2.094H1.203v1.297h3.031v.812c0 2.297-1.328 4.688-3.468 5.704l.89 1.234c1.61-.766 2.782-2.297 3.39-4.14.626 1.734 1.829 3.155 3.407 3.89l.844-1.219C7.172-3.906 5.828-6.203 5.828-8.39zm5.031-3.703v5.562H8.063v1.313h2.796v7.265h1.61v-14.14zm0 0"/></symbol><symbol overflow="visible" id="aQ"><path d="M3.406-7.39c0-1.298 1.203-2.063 2.953-2.063 1.75 0 2.954.765 2.954 2.062 0 1.297-1.204 2.063-2.954 2.063-1.75 0-2.953-.766-2.953-2.063zm3.86 5.624v-2.171c2.265-.25 3.843-1.563 3.843-3.454 0-2.14-2.03-3.515-4.75-3.515-2.718 0-4.75 1.375-4.75 3.515 0 1.891 1.594 3.188 3.829 3.454v2.171H.593v1.47H12.14v-1.47zm0 0"/></symbol><symbol overflow="visible" id="aR"><path d="M7.656-7.438h-2.61v-2.14h2.61zm-4.437 0H1.688v1.454h9.296v-1.454H9.47v-2.14h1.625v-1.438H1.609v1.438h1.61zm.61 4.75H2V.97h8.828V-.484h-7zM.593-4.983v1.453h11.515v-1.453zm0 0"/></symbol><symbol overflow="visible" id="aT"><path d="M9.328-11.578V1.219h1.828v-12.797zm-5.015.906c-1.938 0-3.36 1.75-3.36 4.547 0 2.797 1.422 4.563 3.36 4.563 1.921 0 3.343-1.766 3.343-4.563 0-2.797-1.422-4.547-3.343-4.547zm0 1.64c.937 0 1.578 1.016 1.578 2.907 0 1.89-.641 2.906-1.579 2.906-.953 0-1.593-1.015-1.593-2.906 0-1.89.64-2.906 1.594-2.906zm0 0"/></symbol><symbol overflow="visible" id="aU"><path d="M7.281-1.719v-2.906h3.64v-1.453H3.72v-4.516H1.89v5.969h3.562v2.906H.593v1.485h11.548V-1.72zm0 0"/></symbol><symbol overflow="visible" id="aV"><path d="M4.328-3.281H2.672v-2.75h1.656zm2.89-3.61H6.017v-3.5H4.328v2.922H2.672v-2.937H.953v8.578h5.063v-3.594h1.203V.641h1.703v-11.985H7.219zm2.579-4.687v12.75h1.734v-12.75zm0 0"/></symbol><symbol overflow="visible" id="aW"><path d="M9.422-2.125h1.828v-9.438H9.422v1.672h-2.11v1.454h2.11v.984h-2.11v1.469h2.11zM8.203-5.109C6.188-5.875 5.36-7.61 5.36-9.36v-1.485H3.5v1.485C3.5-7.5 2.625-5.72.531-4.97l.953 1.422c1.454-.531 2.422-1.578 2.954-2.875.53 1.219 1.437 2.203 2.765 2.719zM4.672-.484V-2.97H2.844V.97h8.687V-.484zm0 0"/></symbol><symbol overflow="visible" id="aX"><path d="M2.484-7.5c0-1.063.704-1.703 1.625-1.703.938 0 1.641.64 1.641 1.703 0 1.063-.703 1.719-1.64 1.719-.923 0-1.626-.657-1.626-1.719zm6.938-.828v1.64H7.375c.078-.25.094-.53.094-.812 0-.297-.032-.578-.094-.828zm0 3.094v3h1.828v-9.329H9.422v1.782H6.594c-.625-.64-1.485-1.016-2.485-1.016-1.875 0-3.343 1.39-3.343 3.297 0 1.906 1.468 3.313 3.343 3.313 1 0 1.891-.391 2.516-1.047zm-4.75 4.75v-2.657H2.859V.97h8.688V-.484zm0 0"/></symbol><symbol overflow="visible" id="aY"><path d="M12.125-5.406h-1.672c.313-1.782.313-3.078.313-4.266v-1.156H1.922v1.469h7.062c0 1.093-.03 2.343-.343 3.953H.609v1.468h4.766v5.126h1.844v-5.125h4.906zm0 0"/></symbol><symbol overflow="visible" id="aZ"><path d="M5.281-6.844H2.766v-1.265H5.28zM7.078-11H5.281v1.516H2.766V-11H.969v5.594h6.11zM4.047-1.125h6.578v-3.453H2.219v1.375h6.61v.781H2.233v3.516h8.75V-.313H4.047zm6.578-7.969v-2.469H8.797v6.485h1.828V-7.61h1.688v-1.485zm0 0"/></symbol><symbol overflow="visible" id="ba"><path d="M12.14-5.766v-1.421h-1.578c.22-1.235.22-2.22.22-3.032v-.875H2.015v1.438h6.968a14.593 14.593 0 0 1-.25 2.469H.594v1.421h4.843v1.188H1.876v1.422h7.047v.781H1.89v3.469h9.187V-.313h-7.36v-.828h7.032v-3.437H7.266v-1.188zm0 0"/></symbol><symbol overflow="visible" id="bb"><path d="M5.531-8.828h2.625v-1.516h-7.14v1.516h2.656v.703c0 2.172-1.047 4.516-3.172 5.469l1.031 1.453c1.5-.672 2.532-2.078 3.094-3.734.563 1.53 1.578 2.78 3.063 3.421l1-1.453C6.546-3.844 5.53-6.047 5.53-8.125zm3.797-2.735v12.75h1.828v-12.75zm0 0"/></symbol><symbol overflow="visible" id="bc"><path d="M7.11-4.156v1.25H9.5v1.015h1.828v-9.671H9.5v7.406zm-2.454-5.64c.844 0 1.438.327 1.438.952s-.594.938-1.438.938c-.86 0-1.453-.313-1.453-.938s.594-.953 1.453-.953zm0 3.218c1.844 0 3.172-.906 3.172-2.266 0-1.36-1.328-2.281-3.172-2.281-1.875 0-3.187.922-3.187 2.281 0 1.36 1.312 2.266 3.187 2.266zM3.97-.484v-1.75h1.765v-2.407A24.93 24.93 0 0 0 8.781-5l-.125-1.297c-2.687.344-5.797.375-8.11.39l.235 1.454c.953 0 2.016-.016 3.14-.078v1.703h-1.78V.969h9.453V-.484zm0 0"/></symbol><symbol overflow="visible" id="bd"><path d="M5.281-10.578H3.453v1.86c0 2.359-.969 4.796-3.125 5.812l1.094 1.484c1.437-.703 2.406-2.047 2.953-3.672.531 1.516 1.422 2.75 2.75 3.438l1.11-1.438C6.187-4.109 5.28-6.422 5.28-8.719zm7.157 3.922h-1.86v-4.907H8.75v12.75h1.828V-5.14h1.86zm0 0"/></symbol><symbol overflow="visible" id="be"><path d="M9.438-.406H4.625v-1.14h4.813zm0-2.531H4.625v-1.22H2.812v5.188h8.438v-5.187H9.437zM4.109-6.47c-.921 0-1.609-.562-1.609-1.515 0-.954.688-1.532 1.61-1.532.937 0 1.624.579 1.624 1.532 0 .953-.687 1.515-1.625 1.515zm5.313-5.093v2.812H7.39c-.36-1.36-1.657-2.281-3.282-2.281-1.906 0-3.343 1.265-3.343 3.047 0 1.765 1.437 3.046 3.343 3.046 1.657 0 2.954-.953 3.297-2.328h2.016v2.563h1.828v-6.86zm0 0"/></symbol><symbol overflow="visible" id="bf"><path d="M4.094-2.75h3.062v-3.063H4.094zm0 0"/></symbol><symbol overflow="visible" id="bg"><path d="M1.188-8.266v6.563h4.625v-6.563zm3.734.735v5.093H2.078V-7.53zm3.016-1.735V.86h.921V-9.266zm0 0"/></symbol><symbol overflow="visible" id="bh"><path d="M1.828-4.61h2.86v-3.546H.905v.75h2.89v2.047H.939v3.765h.656c1.25 0 2.39-.031 3.781-.281l-.063-.75c-1.28.219-2.343.266-3.484.281zm6.453-4.656v3.985H6.844v-3.75h-.86V.313h.86v-4.829H8.28V.828h.89V-9.266zm0 0"/></symbol><symbol overflow="visible" id="bi"><path d="M3.875-8.516c-1.563 0-2.703.954-2.703 2.375 0 1.407 1.14 2.375 2.703 2.375s2.688-.968 2.688-2.375c0-1.421-1.125-2.375-2.688-2.375zm0 .782c1.047 0 1.797.64 1.797 1.593 0 .938-.75 1.579-1.797 1.579s-1.813-.641-1.813-1.579c0-.953.766-1.593 1.813-1.593zm4.016-1.532V.86h.921V-9.266zM.78-1.359c1.813 0 4.266-.016 6.532-.438l-.079-.687c-2.203.328-4.734.343-6.578.343zm0 0"/></symbol><symbol overflow="visible" id="bj"><path d="M6.578-8.188H4.062v-1.124h-.921v1.124H.625v.735h5.953zM2.062-5.094c0-.672.61-1.11 1.532-1.11s1.547.438 1.547 1.095C5.14-4.438 4.516-4 3.594-4c-.922 0-1.531-.422-1.531-1.094zm3.954 0c0-1.11-.97-1.843-2.422-1.843-1.422 0-2.406.734-2.406 1.828 0 1.109.984 1.828 2.406 1.828 1.453 0 2.422-.719 2.422-1.813zM1.875-1.64H7.5V.844h.922v-3.235H1.875zm8.047-4.828h-1.5V-9.25H7.5v6.297h.922v-2.75h1.5zm0 0"/></symbol><symbol overflow="visible" id="bl"><path d="M1.438-4.547c1.656-.172 3.109-.812 3.718-1.86.61 1.048 2.047 1.688 3.703 1.86l.297-.703c-1.875-.188-3.406-1.016-3.5-2.203h3.125v-.719H5.625v-1.094h-.922v1.094H1.531v.719h3.125C4.563-6.266 3.031-5.437 1.141-5.25zm1.234 2.375H1.75V.61h6.969v-.75H2.672zM.578-3.937v.75h4.188v1.984h.921v-1.984h4.047v-.75zm0 0"/></symbol><symbol overflow="visible" id="bm"><path d="M6.266-6.453h-1.5c.093-.5.14-1 .14-1.516H1.031v.75H4C3.844-5.109 2.75-3.297.578-2l.547.656c1.906-1.14 3-2.656 3.469-4.36h1.672v1.782H4.437v.75h1.829V.313h.875v-9.297h-.875zm2.03-2.813V.828h.876V-9.266zm0 0"/></symbol><symbol overflow="visible" id="bn"><path d="M3.89-7.547h2.516v3.313H3.891zm1.72 6.36V-3.5h3.25v-.734H7.327v-3.313h1.563v-.75H1.406v.75H2.97v3.313H1.422v.734h3.266v2.313H.593v.765H9.75v-.766zm0 0"/></symbol><symbol overflow="visible" id="bo"><path d="M6.281-4.781c-1.484.234-2.718.297-4.36.297v-1.454H5.47v-2.796H.984V-8h3.579v1.344H1.03v2.922h.75c1.735 0 3.016-.047 4.594-.297zm-3.078 2.75H8v1.984H3.203zM2.313.703h6.593V-2.78H2.312zM7.968-9.25V-7h-1.86v.75h1.86v2.938h.937V-9.25zm0 0"/></symbol><symbol overflow="visible" id="bp"><path d="M9.75-4.422v-.75H8.328c.25-1.203.25-2.125.25-2.875v-.734H1.766v.75h5.89c0 .75 0 1.64-.265 2.86H.594v.75h4.11v1.843H1.562v.75h6.14V.828h.922v-3.406h-3v-1.844zm0 0"/></symbol><symbol overflow="visible" id="bq"><path d="M3.563-7.328h1.796v-.75H.75v.75h1.922v.922c0 1.843-.797 3.687-2.203 4.531l.562.688c1-.641 1.735-1.813 2.078-3.204.36 1.282 1.047 2.36 2.032 2.954l.562-.672c-1.39-.797-2.14-2.547-2.14-4.297zM6.25-5.641H4.594v.766H6.25V.297h.875v-9.328H6.25zm2.031-3.625V.828h.89V-9.266zm0 0"/></symbol><symbol overflow="visible" id="br"><path d="M4.797-2.344h-2.89V-5h2.89zm0-3.39h-2.89v-2.672H1v6.812h4.688v-6.812h-.891zm5.234.453H8.36V-9.25h-.921V.828h.921v-5.344h1.672zm0 0"/></symbol><symbol overflow="visible" id="bs"><path d="M7.938-9.266V.86h.921V-9.266zm-4.407.782C2.031-8.484.97-7.11.97-4.97c0 2.157 1.062 3.532 2.562 3.532 1.5 0 2.563-1.375 2.563-3.532 0-2.14-1.063-3.515-2.563-3.515zm0 .828c.985 0 1.672 1.062 1.672 2.687 0 1.657-.687 2.703-1.672 2.703-.984 0-1.687-1.046-1.687-2.703 0-1.625.703-2.687 1.687-2.687zm0 0"/></symbol><symbol overflow="visible" id="bt"><path d="M2.375-5.953c0-1.156 1.188-1.906 2.781-1.906 1.61 0 2.782.75 2.782 1.906S6.766-4.031 5.155-4.031c-1.593 0-2.781-.766-2.781-1.922zm3.25 4.734v-2.11c1.875-.14 3.188-1.14 3.188-2.624 0-1.61-1.516-2.64-3.657-2.64-2.125 0-3.672 1.03-3.672 2.64 0 1.484 1.329 2.484 3.204 2.625v2.11H.577v.75H9.75v-.75zm0 0"/></symbol><symbol overflow="visible" id="bu"><path d="M9.11-9.25h-.891v7.64h.89zm-5.016 5H1.922v-1.766h2.172zm.875-1.328h1.343v3.672h.86v-7.157h-.86v2.735H4.97v-2.125h-.875v1.703H1.922v-1.703h-.875v4.937h3.922zM3.453-.141v-2.484h-.922V.609h6.875v-.75zm0 0"/></symbol><symbol overflow="visible" id="bv"><path d="M4.078-6.766h2.25v-.75h-2.25v-1.562h-.922v1.562H.891v.75h2.28V-6c0 1.75-1.077 3.469-2.562 4.172l.516.719c1.14-.563 2.078-1.735 2.516-3.141.437 1.328 1.375 2.422 2.53 2.938l.5-.704C5.188-2.672 4.079-4.312 4.079-6zm3.906-2.5v4.063H5.813v.75h2.171V.859h.922V-9.266zm0 0"/></symbol><symbol overflow="visible" id="bw"><path d="M7.969-6.656v1.36h-2.64v.75h2.64v1.327h.937V-9.25H7.97v1.844H5.687c.079-.344.125-.719.125-1.094H1.25v.75h3.547C4.64-6 3.14-4.672.734-3.953l.375.734c2.172-.625 3.688-1.812 4.344-3.437zM5.609.062c-1.484 0-2.421-.453-2.421-1.218 0-.75.937-1.219 2.421-1.219 1.485 0 2.438.469 2.438 1.219 0 .765-.953 1.218-2.438 1.218zm0-3.171c-2.03 0-3.343.734-3.343 1.953C2.266.062 3.578.78 5.609.78c2.047 0 3.344-.719 3.344-1.937 0-1.219-1.297-1.953-3.344-1.953zm0 0"/></symbol><symbol overflow="visible" id="bx"><path d="M1.625-6.094c0-1 .734-1.718 1.734-1.718.97 0 1.704.718 1.704 1.718 0 1.016-.735 1.735-1.704 1.735-1 0-1.734-.72-1.734-1.735zm6.344-.843v1.687H5.812c.079-.266.125-.547.125-.844 0-.297-.046-.578-.125-.843zm0 2.421v2.72h.937V-9.25H7.97v1.578H5.406c-.468-.578-1.187-.953-2.047-.953C1.875-8.625.75-7.562.75-6.094c0 1.485 1.125 2.532 2.61 2.532.859 0 1.593-.36 2.062-.954zM3.39-.14v-2.421h-.938V.608h6.735v-.75zm0 0"/></symbol><symbol overflow="visible" id="by"><path d="M1.875-7.281h2.844v-.75H.953v6.375h.672c1.5 0 2.531-.047 3.734-.297l-.078-.766c-1.11.235-2.062.281-3.406.297zm6.406-1.985v4.063H6.844v-3.828h-.86v9.36h.86v-4.782H8.28V.828h.89V-9.266zm0 0"/></symbol><symbol overflow="visible" id="bz"><path d="M7-8.016H4.406V-9.25H3.47v1.234H.859v.735H7zM2.39-4.844C2.39-5.547 3.017-6 3.938-6c.907 0 1.547.453 1.547 1.156 0 .703-.64 1.157-1.546 1.157-.922 0-1.547-.454-1.547-1.157zM4.407-3c1.188-.14 1.953-.844 1.953-1.844 0-1.125-.984-1.86-2.421-1.86-1.438 0-2.438.735-2.438 1.86 0 1.016.781 1.719 1.969 1.86v1.078c-1 .031-1.969.047-2.813.047l.125.78c1.86 0 4.297-.03 6.547-.405l-.078-.688c-.922.125-1.89.188-2.844.235zm3.485-6.25V.828h.921V-9.25zm0 0"/></symbol><symbol overflow="visible" id="bA"><path d="M6.484-4.188C5-4.718 4-6 4-7.374v-1.281h-.922v1.25c0 1.562-.984 2.922-2.531 3.468l.484.735a4.235 4.235 0 0 0 2.532-2.563C4-4.719 4.875-3.875 6.015-3.453zm-3.39 1.672h-.922V.61h6.687v-.75H3.094zm5.328-3.656v-3.094H7.5v7.454h.922v-3.594h1.5v-.766zm0 0"/></symbol><symbol overflow="visible" id="bB"><path d="M1.828-7.36h2.11v4.75h-2.11zM.953-1.874h3.844v-6.219H.953zm7.344-7.39v4h-1.36v-3.766h-.875v9.36h.875v-4.845h1.36V.828h.875V-9.266zm0 0"/></symbol><symbol overflow="visible" id="bC"><path d="M8.875-9.25h-.922v6.172h.922zM6.828-4.312C5.328-4.75 4.25-5.891 4.25-7.156v-.125h2.281v-.735H4.266v-1.25h-.922v1.25H1.047v.735h2.297v.125c0 1.375-1.047 2.593-2.547 3.078l.453.734c1.188-.406 2.14-1.25 2.563-2.36.484.985 1.406 1.75 2.593 2.11zM5.531.093C4 .094 3.047-.312 3.047-1.016c0-.718.953-1.125 2.484-1.125 1.516 0 2.453.407 2.453 1.125 0 .704-.937 1.11-2.453 1.11zm0-2.953c-2.11 0-3.39.671-3.39 1.843S3.42.828 5.53.828c2.094 0 3.375-.672 3.375-1.844 0-1.171-1.281-1.843-3.375-1.843zm0 0"/></symbol><symbol overflow="visible" id="bD"><path d="M3.984-8.375h-.906v1.813c0 1.828-1.156 3.765-2.61 4.5l.563.75c1.125-.61 2.063-1.875 2.5-3.344C4-3.281 4.906-2.094 5.97-1.516l.578-.734c-1.422-.703-2.563-2.547-2.563-4.313zm6.047 3.219H8.36V-9.25h-.921V.828h.921v-5.234h1.672zm0 0"/></symbol><symbol overflow="visible" id="bE"><path d="M1.625-6.094c0-1 .734-1.718 1.734-1.718.97 0 1.72.718 1.72 1.718 0 .985-.75 1.672-1.72 1.672-1 0-1.734-.687-1.734-1.672zm6.344.39v3.876h.937v-7.438H7.97v2.813H5.922c-.156-1.281-1.203-2.172-2.563-2.172C1.875-8.625.75-7.578.75-6.094c0 1.453 1.125 2.485 2.61 2.485 1.343 0 2.359-.86 2.562-2.094zM3.39-.14v-2.421h-.938V.608h6.735v-.75zm0 0"/></symbol><symbol overflow="visible" id="bF"><path d="M9.297-4.188C7.53-4.516 5.609-6.046 5.609-7.78v-.766h-.968v.766c0 1.734-1.891 3.25-3.657 3.593l.407.766c1.515-.36 3.093-1.437 3.734-2.906.64 1.484 2.219 2.562 3.75 2.906zM.594-1.28v.765H9.75v-.765zm0 0"/></symbol><symbol overflow="visible" id="bG"><path d="M5.14-8.11c1.548 0 2.594.563 2.594 1.454 0 .89-1.046 1.453-2.593 1.453-1.532 0-2.579-.563-2.579-1.453 0-.89 1.047-1.453 2.579-1.453zm0 3.657c2.11 0 3.532-.86 3.532-2.203 0-1.36-1.422-2.203-3.531-2.203-2.094 0-3.516.843-3.516 2.203 0 1.343 1.422 2.203 3.516 2.203zm4.594.937H.594v.766h2.36V.828h.921V-2.75h2.531V.828h.938V-2.75h2.39zm0 0"/></symbol><symbol overflow="visible" id="bH"><path d="M4.75-4.89H1.906v-2.86H4.75zm.89-3.61H1.017v4.344H5.64zM5.204.094c-1.484 0-2.39-.438-2.39-1.157 0-.718.906-1.156 2.39-1.156 1.5 0 2.406.438 2.406 1.156 0 .72-.906 1.157-2.406 1.157zm0-3.047c-2.031 0-3.312.687-3.312 1.89C1.89.141 3.17.829 5.203.829c2.047 0 3.328-.687 3.328-1.89 0-1.204-1.281-1.891-3.328-1.891zm3.219-3.781V-9.25H7.5v5.953h.922v-2.672h1.5v-.765zm0 0"/></symbol><symbol overflow="visible" id="bI"><path d="M9.734-4.266h-1.5c.282-1.453.282-2.515.282-3.468v-.875H1.75v.75h5.86v.125c0 .953 0 2.015-.313 3.468H.609v.75h4.079v4.36h.921v-4.36h4.125zm0 0"/></symbol><symbol overflow="visible" id="bJ"><path d="M4.781-5.172h-2.86v-1.516h2.86zm.907-3.672H4.78v1.453h-2.86v-1.453h-.905v4.406h4.671zM2.953-1.109h5.469v-2.454H2.016v.735h5.5v1.031h-5.47V.72h6.75v-.735H2.954zm5.469-5.985V-9.25H7.5v5.219h.922v-2.297h1.5v-.766zm0 0"/></symbol><symbol overflow="visible" id="bK"><path d="M9.75-4.875v-.75H8.375c.203-1.078.203-1.938.203-2.594v-.64H1.766v.734h5.89c0 .656 0 1.438-.218 2.5H.593v.75h4.093v1.297H1.672v.734h6.016v1.047H1.702v2.5H8.86v-.719H2.625V-1.14h5.984v-2.437H5.625v-1.297zm0 0"/></symbol><symbol overflow="visible" id="bL"><path d="M.594-4.281c0 .453.36.812.812.812a.804.804 0 1 0 0-1.61.804.804 0 0 0-.812.798zm0 0"/></symbol><symbol overflow="visible" id="bM"><path d="M4.203-7.453h2.36v-.766H.938v.766H3.28v1.281c0 1.734-1.234 3.64-2.687 4.328l.547.735c1.14-.579 2.14-1.844 2.593-3.329.485 1.391 1.47 2.547 2.641 3.094l.516-.75c-1.485-.625-2.688-2.375-2.688-4.078zM7.937-9.25V.828h.922V-9.25zm0 0"/></symbol><symbol overflow="visible" id="bN"><path d="M5.89-3.297v.688h2.048v1.03h.921v-7.687h-.921v5.97zM3.829-8.172c.953 0 1.61.438 1.61 1.078 0 .64-.657 1.078-1.61 1.078-.953 0-1.61-.437-1.61-1.078 0-.64.657-1.078 1.61-1.078zm0 2.844c1.469 0 2.485-.688 2.485-1.766 0-1.062-1.016-1.765-2.485-1.765-1.484 0-2.484.703-2.484 1.765 0 1.078 1 1.766 2.484 1.766zm-.36 3.39h.923v-1.984a31.792 31.792 0 0 0 2.734-.297l-.078-.656c-2.14.266-4.64.281-6.5.281l.11.766c.843 0 1.812-.016 2.812-.047zM2.907-.14v-2.187h-.922V.609H9.11v-.75zm0 0"/></symbol><symbol overflow="visible" id="bO"><path d="M7.984-.047H3.36v-1.297h4.625zm0-2.015H3.36v-1.282h-.906V.703h6.453v-4.047h-.922zM3.36-4.876c-1.015 0-1.734-.656-1.734-1.578s.719-1.563 1.734-1.563c1 0 1.72.641 1.72 1.563 0 .922-.72 1.578-1.72 1.578zM7.97-9.25v2.406H5.922C5.719-8.016 4.719-8.78 3.359-8.78 1.844-8.781.75-7.844.75-6.453c0 1.39 1.094 2.328 2.61 2.328 1.374 0 2.39-.781 2.562-1.969h2.047v2.25h.937V-9.25zm0 0"/></symbol><symbol overflow="visible" id="bP"><path d="M8.86-9.25h-.922v5.219h.921zM6.702-5.047c-1.5-.484-2.547-1.75-2.547-3.14v-.766h-.922v.765c0 1.454-1.046 2.813-2.578 3.344l.485.719a4.334 4.334 0 0 0 2.562-2.516c.453 1.079 1.375 1.922 2.547 2.329zM3.281-.016v-1.078h5.594v-2.422H2.344v.72h5.625v1.015h-5.61v2.5h6.86v-.735zm0 0"/></symbol><symbol overflow="visible" id="bQ"><path d="M5.156.11C3.563.11 2.625-.282 2.625-.97c0-.687.938-1.078 2.531-1.078 1.578 0 2.516.39 2.516 1.078C7.672-.28 6.734.11 5.156.11zm0-2.876c-2.156 0-3.453.641-3.453 1.797S3 .828 5.156.828C7.328.828 8.61.188 8.61-.969c0-1.156-1.28-1.797-3.453-1.797zM3.75-5.437c.422.062.89.109 1.406.109.516 0 .985-.047 1.407-.11v1.172H3.75zM2.547-7.204c0-.734 1-1.156 2.61-1.156 1.609 0 2.593.421 2.593 1.156 0 .719-.984 1.156-2.594 1.156-1.61 0-2.61-.437-2.61-1.156zm4.922 2.937v-1.421C8.25-6 8.703-6.532 8.703-7.204c0-1.172-1.36-1.875-3.547-1.875-2.187 0-3.547.703-3.547 1.875 0 .687.438 1.203 1.235 1.516v1.421H.578v.75h9.14v-.75zm0 0"/></symbol><symbol overflow="visible" id="bR"><path d="M6.688-8.031H4.14V-9.25h-.922v1.219H.656v.734h6.032zM2.171-4.844c0-.687.61-1.156 1.5-1.156.906 0 1.515.469 1.515 1.156 0 .703-.609 1.157-1.515 1.157-.89 0-1.5-.454-1.5-1.157zM4.14-3c1.156-.14 1.921-.844 1.921-1.844 0-1.125-.984-1.86-2.39-1.86-1.406 0-2.375.735-2.375 1.86 0 1 .766 1.703 1.922 1.844v1.11c-.985.03-1.922.03-2.735.03l.125.782c1.766 0 4.141-.031 6.297-.406l-.062-.688c-.86.14-1.797.203-2.703.25zm5.796-1.969H8.376v-4.297h-.922V.828h.922v-5.031h1.563zm0 0"/></symbol><symbol overflow="visible" id="bS"><path d="M8.875-9.25h-.922v7.375h.922zm-2.11 5.219c-1.484-.5-2.53-1.735-2.53-3.094v-.547h2.28v-.75H.986v.75H3.28v.547c0 1.438-1.015 2.766-2.547 3.281l.485.735c1.187-.438 2.125-1.344 2.547-2.5.468 1.062 1.39 1.89 2.546 2.296zM3.314-.141v-2.421H2.39V.608h6.796v-.75zm0 0"/></symbol><symbol overflow="visible" id="bT"><path d="M7.953-9.25v5.406h.922V-9.25zM2.375-3.344V.703h6.5v-4.047h-.906v1.235H3.28v-1.235zm.906 1.953H7.97v1.344H3.28zm.172-7.39c-1.515 0-2.625.953-2.625 2.328 0 1.39 1.11 2.328 2.625 2.328 1.531 0 2.64-.938 2.64-2.328 0-1.375-1.109-2.328-2.64-2.328zm0 .765c1.031 0 1.75.641 1.75 1.563 0 .922-.719 1.562-1.75 1.562-1 0-1.719-.64-1.719-1.562s.72-1.563 1.72-1.563zm0 0"/></symbol><symbol overflow="visible" id="bU"><path d="M5.156-8.39c1.657 0 2.594.374 2.594 1.062 0 .672-.938 1.047-2.594 1.047s-2.61-.375-2.61-1.047c0-.688.954-1.063 2.61-1.063zm0 2.796c2.219 0 3.547-.61 3.547-1.734 0-1.14-1.328-1.766-3.547-1.766-2.218 0-3.547.625-3.547 1.766 0 1.125 1.329 1.734 3.547 1.734zM2.625-1.03h5.922v-2.266h-6.86v.703h5.954v.89H1.719V.72h7.14V0H2.625zM.578-4.906v.75h9.14v-.75zm0 0"/></symbol><symbol overflow="visible" id="bV"><path d="M3.906-8.016c.969 0 1.672.516 1.672 1.313 0 .781-.703 1.312-1.672 1.312-1 0-1.687-.53-1.687-1.312 0-.797.687-1.313 1.687-1.313zm0 3.375c1.5 0 2.563-.843 2.563-2.062 0-1.234-1.063-2.078-2.563-2.078-1.515 0-2.578.844-2.578 2.078 0 1.219 1.063 2.062 2.578 2.062zm3.313.5c-2.219.344-4.766.36-6.64.36L.702-3c.828 0 1.781-.016 2.781-.063V.517h.922V-3.11a26.027 26.027 0 0 0 2.89-.344zm.734-5.109V.844h.922V-9.25zm0 0"/></symbol><symbol overflow="visible" id="bW"><path d="M6.578-8.016H4.062V-9.25h-.921v1.234H.625v.735h5.953zM2.062-4.844c0-.703.61-1.156 1.532-1.156s1.547.453 1.547 1.156c0 .703-.625 1.157-1.547 1.157-.922 0-1.531-.454-1.531-1.157zm3.954 0c0-1.125-.985-1.875-2.422-1.875-1.422 0-2.406.75-2.406 1.875s.984 1.875 2.406 1.875c1.437 0 2.422-.75 2.422-1.875zM3.078-2.28h-.922v2.89h6.719v-.75H3.078zm5.344-3.64V-9.25H7.5v7.563h.922v-3.47h1.5v-.765zm0 0"/></symbol><symbol overflow="visible" id="bX"><path d="M7.953-9.25v5.781h.922V-9.25zm-5.61 6.313v3.64h6.532v-3.64zm5.626.734v2.156H3.25v-2.156zM3.453-8.72c-1.515 0-2.625.953-2.625 2.344 0 1.406 1.11 2.36 2.625 2.36 1.531 0 2.64-.954 2.64-2.36 0-1.39-1.109-2.344-2.64-2.344zm0 .766c1.016 0 1.75.656 1.75 1.578 0 .938-.734 1.594-1.75 1.594-1 0-1.719-.657-1.719-1.594 0-.922.72-1.578 1.72-1.578zm0 0"/></symbol><symbol overflow="visible" id="bY"><path d="M6.422-4.516C4.969-5 3.984-6.266 3.984-7.625v-1.11h-.921v1.032c0 1.531-.985 2.906-2.516 3.469l.484.718a4.162 4.162 0 0 0 2.5-2.546 4.24 4.24 0 0 0 2.406 2.265zM5.219.094c-1.5 0-2.407-.406-2.407-1.11 0-.703.907-1.125 2.407-1.125 1.484 0 2.39.422 2.39 1.125 0 .704-.906 1.11-2.39 1.11zm0-2.953c-2.063 0-3.328.671-3.328 1.843S3.156.828 5.219.828C7.266.828 8.53.156 8.53-1.016c0-1.171-1.265-1.843-3.312-1.843zm3.203-3.797V-9.25H7.5v6.11h.922v-2.75h1.5v-.766zm0 0"/></symbol></defs><g fill="#898989"><use xlink:href="#a" x="28.312" y="819.169"/><use xlink:href="#b" x="32.591" y="819.169"/></g><g fill="#898989"><use xlink:href="#c" x="36.906" y="819.169"/><use xlink:href="#c" x="38.996" y="819.169"/></g><g fill="#595757"><use xlink:href="#d" x="471.719" y="818.993"/><use xlink:href="#e" x="473.229" y="818.993"/><use xlink:href="#f" x="474.614" y="818.993"/><use xlink:href="#g" x="476.172" y="818.993"/><use xlink:href="#h" x="481.565" y="818.993"/><use xlink:href="#i" x="486.959" y="818.993"/><use xlink:href="#j" x="492.352" y="818.993"/><use xlink:href="#f" x="497.745" y="818.993"/><use xlink:href="#k" x="499.304" y="818.993"/><use xlink:href="#l" x="504.697" y="818.993"/><use xlink:href="#m" x="510.09" y="818.993"/><use xlink:href="#n" x="515.484" y="818.993"/><use xlink:href="#o" x="520.877" y="818.993"/><use xlink:href="#p" x="526.271" y="818.993"/><use xlink:href="#g" x="531.664" y="818.993"/><use xlink:href="#h" x="537.058" y="818.993"/><use xlink:href="#f" x="542.451" y="818.993"/><use xlink:href="#q" x="544.009" y="818.993"/><use xlink:href="#r" x="549.403" y="818.993"/></g><g clip-path="url(#s)"><path d="M28.312 793.191h1132.48V40.567H28.313zm0 0" fill="none" stroke-width="2.9963699999999998" stroke="#e2e2e2"/></g><use xlink:href="#t" x="110.336" y="142.738"/><use xlink:href="#u" x="126.517" y="142.738"/><use xlink:href="#v" x="142.697" y="142.738"/><use xlink:href="#w" x="158.877" y="142.738"/><use xlink:href="#x" x="175.057" y="142.738"/><use xlink:href="#y" x="191.238" y="142.738"/><use xlink:href="#z" x="207.418" y="142.738"/><use xlink:href="#A" x="212.092" y="142.738"/><use xlink:href="#B" x="228.273" y="142.738"/><use xlink:href="#C" x="244.453" y="142.738"/><use xlink:href="#z" x="260.633" y="142.738"/><use xlink:href="#D" x="265.308" y="142.738"/><use xlink:href="#E" x="281.488" y="142.738"/><use xlink:href="#F" x="297.668" y="142.738"/><use xlink:href="#G" x="313.849" y="142.738"/><use xlink:href="#H" x="330.029" y="142.738"/><use xlink:href="#I" x="346.209" y="142.738"/><use xlink:href="#z" x="350.866" y="142.738"/><use xlink:href="#F" x="355.54" y="142.738"/><use xlink:href="#G" x="371.72" y="142.738"/><use xlink:href="#t" x="387.901" y="142.738"/><use xlink:href="#G" x="404.081" y="142.738"/><use xlink:href="#J" x="420.261" y="142.738"/><use xlink:href="#z" x="436.442" y="142.738"/><use xlink:href="#K" x="441.116" y="142.738"/><use xlink:href="#L" x="457.296" y="142.738"/><use xlink:href="#M" x="192.478" y="167.709"/><use xlink:href="#N" x="208.659" y="167.709"/><use xlink:href="#O" x="224.839" y="167.709"/><use xlink:href="#P" x="241.019" y="167.709"/><use xlink:href="#Q" x="257.2" y="167.709"/><use xlink:href="#R" x="261.874" y="167.709"/><use xlink:href="#S" x="278.054" y="167.709"/><use xlink:href="#T" x="294.235" y="167.709"/><use xlink:href="#U" x="310.415" y="167.709"/><use xlink:href="#V" x="326.595" y="167.709"/><use xlink:href="#W" x="342.776" y="167.709"/><use xlink:href="#M" x="358.956" y="167.709"/><use xlink:href="#N" x="375.136" y="167.709"/><g fill="#595757"><use xlink:href="#X" x="68.893" y="235.955"/><use xlink:href="#Y" x="78.135" y="235.955"/><use xlink:href="#Z" x="82.47" y="235.955"/><use xlink:href="#aa" x="90.762" y="235.955"/><use xlink:href="#ab" x="94.398" y="235.955"/><use xlink:href="#ac" x="106.059" y="235.955"/><use xlink:href="#ad" x="116.547" y="235.955"/><use xlink:href="#ae" x="126.251" y="235.955"/><use xlink:href="#af" x="134.571" y="235.955"/><use xlink:href="#aa" x="142.359" y="235.955"/><use xlink:href="#ag" x="145.995" y="235.955"/><use xlink:href="#aa" x="150.274" y="235.955"/><use xlink:href="#ah" x="153.909" y="235.955"/><use xlink:href="#ai" x="164.089" y="235.955"/></g><g fill="#595757"><use xlink:href="#ac" x="172.115" y="235.955"/><use xlink:href="#aa" x="182.602" y="235.955"/><use xlink:href="#X" x="186.238" y="235.955"/><use xlink:href="#ah" x="195.481" y="235.955"/></g><g fill="#595757"><use xlink:href="#aj" x="205.492" y="235.955"/><use xlink:href="#Y" x="213.938" y="235.955"/><use xlink:href="#ak" x="218.273" y="235.955"/><use xlink:href="#ae" x="228.467" y="235.955"/><use xlink:href="#aj" x="236.786" y="235.955"/></g><g fill="#595757"><use xlink:href="#aj" x="244.968" y="235.955"/><use xlink:href="#aa" x="253.414" y="235.955"/><use xlink:href="#al" x="257.049" y="235.955"/><use xlink:href="#af" x="266.096" y="235.955"/></g><g fill="#595757"><use xlink:href="#am" x="273.816" y="235.955"/><use xlink:href="#ak" x="282.5" y="235.955"/><use xlink:href="#an" x="292.693" y="235.955"/><use xlink:href="#ah" x="297.699" y="235.955"/><use xlink:href="#ao" x="307.879" y="235.955"/><use xlink:href="#ap" x="316.562" y="235.955"/><use xlink:href="#aq" x="320.533" y="235.955"/></g><g fill="#595757"><use xlink:href="#ar" x="328.196" y="235.955"/><use xlink:href="#as" x="336.04" y="235.955"/></g><g fill="#595757"><use xlink:href="#at" x="341.746" y="235.955"/><use xlink:href="#au" x="348.387" y="235.955"/><use xlink:href="#av" x="356.372" y="235.955"/><use xlink:href="#aa" x="360.497" y="235.955"/><use xlink:href="#ai" x="364.132" y="235.955"/></g><g fill="#595757"><use xlink:href="#ar" x="371.431" y="235.955"/><use xlink:href="#aw" x="379.276" y="235.955"/><use xlink:href="#ax" x="386.365" y="235.955"/><use xlink:href="#aa" x="395.035" y="235.955"/><use xlink:href="#ac" x="398.67" y="235.955"/><use xlink:href="#as" x="409.158" y="235.955"/></g><g fill="#595757"><use xlink:href="#ay" x="414.807" y="235.955"/></g><g fill="#595757"><use xlink:href="#au" x="422.581" y="235.955"/><use xlink:href="#ao" x="430.566" y="235.955"/><use xlink:href="#ap" x="439.249" y="235.955"/><use xlink:href="#az" x="443.22" y="235.955"/></g><g fill="#595757"><use xlink:href="#ar" x="449.918" y="235.955"/><use xlink:href="#as" x="457.762" y="235.955"/><use xlink:href="#aA" x="463.579" y="235.955"/></g><g clip-path="url(#aB)"><path d="M869.41 688.516H167.883c-14.09 0-25.512-11.418-25.512-25.508V352.383c0-14.086 11.422-25.508 25.512-25.508H869.41c14.086 0 25.508 11.422 25.508 25.508v310.625c0 14.09-11.422 25.508-25.508 25.508zm0 0" fill="none" stroke-width=".86495214" stroke-linejoin="round" stroke="#1e3d90" stroke-dasharray="2.598,2.598"/></g><g fill="#002b43"><use xlink:href="#aC" x="123.343" y="407.833"/><use xlink:href="#aD" x="137.674" y="407.833"/><use xlink:href="#aE" x="152.006" y="407.833"/></g><g fill="#002b43"><use xlink:href="#aF" x="101.845" y="503.621"/><use xlink:href="#aG" x="116.177" y="503.621"/><use xlink:href="#aH" x="130.508" y="503.621"/><use xlink:href="#aI" x="144.84" y="503.621"/><use xlink:href="#aJ" x="159.172" y="503.621"/><use xlink:href="#aK" x="173.503" y="503.621"/></g><g fill="#002b43"><use xlink:href="#aL" x="109.011" y="599.408"/><use xlink:href="#aM" x="123.343" y="599.408"/><use xlink:href="#aN" x="137.674" y="599.408"/><use xlink:href="#aO" x="152.006" y="599.408"/><use xlink:href="#aP" x="166.337" y="599.408"/></g><g fill="#fff"><use xlink:href="#aQ" x="292.967" y="376.447"/><use xlink:href="#aR" x="305.706" y="376.447"/><use xlink:href="#aS" x="318.445" y="376.447"/><use xlink:href="#aT" x="321.588" y="376.447"/><use xlink:href="#aU" x="334.328" y="376.447"/><use xlink:href="#aV" x="347.067" y="376.447"/><use xlink:href="#aT" x="359.806" y="376.447"/><use xlink:href="#aW" x="372.545" y="376.447"/></g><g fill="#fff"><use xlink:href="#aX" x="288.176" y="557.897"/><use xlink:href="#aY" x="300.915" y="557.897"/><use xlink:href="#aZ" x="313.654" y="557.897"/><use xlink:href="#ba" x="326.393" y="557.897"/><use xlink:href="#bb" x="339.133" y="557.897"/><use xlink:href="#bc" x="351.872" y="557.897"/><use xlink:href="#bd" x="364.611" y="557.897"/><use xlink:href="#be" x="377.35" y="557.897"/></g><g><use xlink:href="#bf" x="262.282" y="412.802"/></g><g><use xlink:href="#bg" x="273.589" y="412.802"/><use xlink:href="#bh" x="283.939" y="412.802"/><use xlink:href="#bi" x="294.29" y="412.802"/><use xlink:href="#bj" x="304.64" y="412.802"/><use xlink:href="#bk" x="314.991" y="412.802"/><use xlink:href="#bl" x="317.511" y="412.802"/><use xlink:href="#bm" x="327.862" y="412.802"/><use xlink:href="#bn" x="338.212" y="412.802"/><use xlink:href="#bo" x="348.563" y="412.802"/></g><g><use xlink:href="#bf" x="262.282" y="431.838"/></g><g><use xlink:href="#bg" x="273.589" y="431.838"/><use xlink:href="#bh" x="283.939" y="431.838"/><use xlink:href="#bi" x="294.29" y="431.838"/><use xlink:href="#bj" x="304.64" y="431.838"/><use xlink:href="#bk" x="314.991" y="431.838"/><use xlink:href="#bp" x="317.511" y="431.838"/><use xlink:href="#bq" x="327.862" y="431.838"/><use xlink:href="#bn" x="338.212" y="431.838"/><use xlink:href="#bo" x="348.563" y="431.838"/></g><g><use xlink:href="#bf" x="262.282" y="450.874"/></g><g><use xlink:href="#br" x="273.589" y="450.874"/><use xlink:href="#bs" x="283.939" y="450.874"/><use xlink:href="#bt" x="294.29" y="450.874"/><use xlink:href="#bk" x="304.64" y="450.874"/><use xlink:href="#bu" x="307.161" y="450.874"/><use xlink:href="#bv" x="317.511" y="450.874"/><use xlink:href="#bk" x="327.862" y="450.874"/><use xlink:href="#bw" x="330.382" y="450.874"/><use xlink:href="#bx" x="340.732" y="450.874"/><use xlink:href="#by" x="351.083" y="450.874"/><use xlink:href="#bz" x="361.434" y="450.874"/></g><g><use xlink:href="#bf" x="262.282" y="469.91"/></g><g><use xlink:href="#bA" x="273.589" y="469.91"/><use xlink:href="#bj" x="283.939" y="469.91"/><use xlink:href="#bx" x="294.29" y="469.91"/><use xlink:href="#bk" x="304.64" y="469.91"/><use xlink:href="#bB" x="307.161" y="469.91"/><use xlink:href="#bC" x="317.511" y="469.91"/><use xlink:href="#bk" x="327.862" y="469.91"/><use xlink:href="#bD" x="330.382" y="469.91"/><use xlink:href="#bs" x="340.732" y="469.91"/><use xlink:href="#bE" x="351.083" y="469.91"/><use xlink:href="#bF" x="361.434" y="469.91"/><use xlink:href="#bk" x="371.784" y="469.91"/><use xlink:href="#bn" x="374.304" y="469.91"/><use xlink:href="#bo" x="384.655" y="469.91"/></g><g><use xlink:href="#bf" x="262.282" y="597.402"/><use xlink:href="#bg" x="273.589" y="597.402"/><use xlink:href="#bh" x="283.996" y="597.402"/><use xlink:href="#bk" x="294.402" y="597.402"/><use xlink:href="#bG" x="296.979" y="597.402"/><use xlink:href="#bH" x="307.386" y="597.402"/><use xlink:href="#bk" x="317.792" y="597.402"/><use xlink:href="#bx" x="320.369" y="597.402"/><use xlink:href="#bI" x="330.776" y="597.402"/><use xlink:href="#bk" x="341.182" y="597.402"/><use xlink:href="#bJ" x="343.759" y="597.402"/><use xlink:href="#bK" x="354.166" y="597.402"/><use xlink:href="#bL" x="364.573" y="597.402"/><use xlink:href="#bM" x="367.441" y="597.402"/><use xlink:href="#bN" x="377.848" y="597.402"/><use xlink:href="#bk" x="388.255" y="597.402"/><use xlink:href="#bD" x="390.831" y="597.402"/><use xlink:href="#bO" x="401.238" y="597.402"/></g><g><use xlink:href="#bf" x="262.282" y="616.438"/><use xlink:href="#bP" x="273.589" y="616.438"/><use xlink:href="#bQ" x="283.996" y="616.438"/><use xlink:href="#bR" x="294.402" y="616.438"/><use xlink:href="#bk" x="304.809" y="616.438"/><use xlink:href="#bS" x="307.386" y="616.438"/><use xlink:href="#bT" x="317.792" y="616.438"/><use xlink:href="#bU" x="328.199" y="616.438"/><use xlink:href="#bk" x="338.606" y="616.438"/><use xlink:href="#bV" x="341.182" y="616.438"/><use xlink:href="#bW" x="351.589" y="616.438"/><use xlink:href="#bk" x="361.996" y="616.438"/><use xlink:href="#bX" x="364.573" y="616.438"/><use xlink:href="#bY" x="374.979" y="616.438"/><use xlink:href="#bk" x="385.386" y="616.438"/><use xlink:href="#bx" x="387.963" y="616.438"/><use xlink:href="#bI" x="398.369" y="616.438"/><use xlink:href="#bk" x="408.776" y="616.438"/><use xlink:href="#bx" x="411.353" y="616.438"/><use xlink:href="#bm" x="421.759" y="616.438"/><use xlink:href="#bk" x="432.166" y="616.438"/><use xlink:href="#bM" x="434.743" y="616.438"/><use xlink:href="#bN" x="445.149" y="616.438"/></g></svg>