<svg xmlns="http://www.w3.org/2000/svg" xmlns:xlink="http://www.w3.org/1999/xlink" width="793.701" height="1122.52" viewBox="0 0 595.276 841.89" version="1.2"><defs><symbol overflow="visible" id="a"><path d="M1.89-4.531H.985l.438-.75h1.266V0H1.89zm0 0"/></symbol><symbol overflow="visible" id="b"><path d="M1.578.188L.984-.25 2.25-1.969l-.188.032h-.109c-.43 0-.8-.165-1.11-.5A1.634 1.634 0 0 1 .392-3.61c0-.477.171-.891.515-1.235a1.69 1.69 0 0 1 1.235-.515c.488 0 .91.168 1.265.5.352.343.531.746.531 1.203 0 .418-.175.863-.515 1.328zm-.422-3.844a.97.97 0 0 0 .297.719.98.98 0 0 0 .703.28.96.96 0 0 0 .703-.28.963.963 0 0 0 .297-.704.998.998 0 0 0-.297-.718.976.976 0 0 0-.703-.282.996.996 0 0 0-.703.282.96.96 0 0 0-.297.703zm0 0"/></symbol><symbol overflow="visible" id="c"><path d="M1.797-4h1.14v-.188H.422V-4h1.187v.688c0 1.124-.53 2-1.265 2.374l.14.157c.594-.328 1.047-.953 1.22-1.813.187.75.624 1.328 1.171 1.64l.14-.155c-.703-.36-1.218-1.204-1.218-2.204zm2.797-.89v2.234h-.969V-4.75h-.203V.11h.203v-2.563h.969v2.86h.203v-5.298zm0 0"/></symbol><symbol overflow="visible" id="d"><path d="M3.484-2.438c-.78.157-1.437.188-2.453.188H.844v-1.969h2.11v-.187H.64v2.343h.39c1.032 0 1.688-.046 2.5-.203zM1.422-1.421h-.203V.266h3.468V.078H1.422zm2.984-1.766v-1.718h-.203v3.843h.203v-1.953h.875v-.171zm0 0"/></symbol><symbol overflow="visible" id="e"><path d="M4.422.14h-2.86v-.859h2.86zm0-1.046h-2.86v-.813h-.187V.313h3.25V-1.72h-.203zM2.734-2.437H.86v-1.047h1.875zm1.704-2.454V-3.5H2.921v-1.11h-.188v.954H.86v-.953H.656v2.359h2.266v-1.063h1.515v1.297h.188V-4.89zm0 0"/></symbol><symbol overflow="visible" id="f"><path d="M4.625-4.89h-.188v3.937h.188zM.703-3.235c0-.594.485-1.079 1.14-1.079.641 0 1.126.485 1.126 1.079 0 .609-.485 1.093-1.125 1.093-.657 0-1.14-.484-1.14-1.093zm2.453 0c0-.735-.547-1.266-1.312-1.266-.782 0-1.328.531-1.328 1.266 0 .75.546 1.265 1.328 1.265.765 0 1.312-.515 1.312-1.265zM1.546.078v-1.453H1.36v1.64h3.47V.079zm0 0"/></symbol><symbol overflow="visible" id="h"><path d="M.703-4.328V-1h2.313v-3.328zm2.125.172v2.984H.891v-2.984zm1.594-.735V.406h.203V-4.89zm0 0"/></symbol><symbol overflow="visible" id="i"><path d="M.75-1.14v-1.454H2.5v-1.672H.547v.188h1.765v1.297H.563V-.97h.329c.671 0 1.28-.031 2.078-.172l-.016-.171c-.781.14-1.406.171-2.062.171zm3.844-3.75v2.171H3.578V-4.75h-.203V.11h.203v-2.641h1.016V.406h.203V-4.89zm0 0"/></symbol><symbol overflow="visible" id="j"><path d="M2.094-4.469c-.828 0-1.39.469-1.39 1.188 0 .703.562 1.187 1.39 1.187.812 0 1.375-.484 1.375-1.187 0-.719-.563-1.188-1.375-1.188zm0 .172c.687 0 1.172.438 1.172 1.016 0 .562-.485 1-1.172 1-.703 0-1.188-.438-1.188-1 0-.578.485-1.016 1.188-1.016zm2.265-.594V.406h.204V-4.89zM.438-.844c.968 0 2.312 0 3.546-.234l-.03-.156c-1.188.203-2.563.203-3.563.203zm0 0"/></symbol><symbol overflow="visible" id="k"><path d="M3.516-4.234h-1.47v-.688H1.86v.688H.391v.171h3.125zm-2.61 1.5c0-.454.406-.766 1.047-.766.625 0 1.047.313 1.047.766 0 .437-.422.75-1.047.75-.64 0-1.047-.313-1.047-.75zm2.281 0c0-.579-.5-.938-1.234-.938-.75 0-1.234.36-1.234.938 0 .562.484.921 1.234.921.734 0 1.234-.359 1.234-.921zM1.063-1.063h3.14v1.47h.203v-1.641H1.063zm4.203-2.28h-.86v-1.548h-.203v3.297h.203v-1.562h.86zm0 0"/></symbol><symbol overflow="visible" id="l"><path d="M.64-3.25c0-.61.485-1.094 1.141-1.094.657 0 1.14.485 1.14 1.094 0 .61-.483 1.11-1.14 1.11-.656 0-1.14-.5-1.14-1.11zm3.797-.547v1.078H3a1.2 1.2 0 0 0 .11-.531A1.55 1.55 0 0 0 3-3.797zm0 1.25v1.61h.188v-3.954h-.188v.922H2.891c-.22-.344-.625-.562-1.11-.562-.765 0-1.328.515-1.328 1.281 0 .766.563 1.281 1.328 1.281.5 0 .907-.218 1.125-.578zM1.563.078v-1.437h-.187V.266h3.438V.078zm0 0"/></symbol><symbol overflow="visible" id="m"><path d="M5.14-2.219h-.874c.171-.781.171-1.344.171-1.844v-.453H1.017v.188h3.218v.266c0 .5 0 1.062-.171 1.843H.358v.172h2.297V.406h.188v-2.453H5.14zm0 0"/></symbol><symbol overflow="visible" id="o"><path d="M.719-1.953c.625-.219 1.187-.688 1.406-1.313.234.594.781 1.032 1.422 1.25l.14-.25c-.75-.234-1.406-.843-1.406-1.609v-.031H3.61v-.266H2.281v-.703H1.97v.703H.672v.266h1.297v.031c0 .797-.657 1.422-1.407 1.672zm1.562-.188H1.97v1.094C1.39-1.03.844-1.03.375-1.03l.047.281c.969 0 2.297 0 3.515-.219l-.015-.25c-.531.094-1.094.125-1.64.157zm2.016-2.765V.422h.312v-5.328zm0 0"/></symbol><symbol overflow="visible" id="p"><path d="M4.672-4.906h-.313v3.922h.313zM3.516-2.141c-.75-.296-1.391-1.046-1.391-1.921v-.547h-.313v.546c0 .907-.625 1.704-1.375 2.016l.188.266c.61-.282 1.14-.86 1.344-1.578a2.462 2.462 0 0 0 1.375 1.468zM1.64.016v-1.36h-.313V.281H4.86V.016zm0 0"/></symbol><symbol overflow="visible" id="q"><path d="M2.75.156c-.906 0-1.5-.265-1.5-.703 0-.422.594-.687 1.5-.687s1.484.265 1.484.687c0 .438-.578.703-1.484.703zm0-1.64c-1.125 0-1.813.343-1.813.937 0 .625.688.953 1.813.953S4.563.078 4.563-.547c0-.594-.688-.937-1.813-.937zm.14-.735v-.703h1.688v-.281H1.266v-1.188h3.28v-.265H.954v1.734h1.64v.703H.344v.281h4.813v-.28zm0 0"/></symbol><symbol overflow="visible" id="r"><path d="M3.516-4.25H2.094v-.719H1.78v.719H.36v.266h3.157zM.984-2.734c0-.391.391-.672.954-.672.578 0 .953.281.953.672 0 .406-.375.687-.954.687-.562 0-.953-.281-.953-.687zm2.204 0c0-.579-.5-.922-1.25-.922-.766 0-1.266.344-1.266.922 0 .578.5.937 1.265.937.75 0 1.25-.36 1.25-.937zM2.796.14c-.844 0-1.39-.235-1.39-.641s.546-.64 1.39-.64c.844 0 1.39.234 1.39.64s-.546.64-1.39.64zm0-1.547c-1.063 0-1.703.328-1.703.906 0 .578.64.906 1.703.906C3.859.406 4.5.078 4.5-.5c0-.578-.64-.906-1.703-.906zM5.28-3.625v-.266h-.828v-1.015h-.328v3.453h.328V-2.5h.828v-.266h-.828v-.859zm0 0"/></symbol><symbol overflow="visible" id="s"><path d="M1.266-3.203H4.25v1.11H1.266zm1.64 2.64v-1.25h1.656v-2.703H4.25v1.032H1.266v-1.032H.937v2.704h1.657v1.25H.344v.265h4.828v-.266zm0 0"/></symbol><symbol overflow="visible" id="t"><path d="M4.188-3.781c0 .64 0 1.36-.188 2.36l.328.046c.188-1.047.188-1.766.188-2.406v-.531H.859v.25h3.329zM2.625-.671V-2.61h-.313v1.937H.345v.281h4.812v-.28zm0 0"/></symbol><symbol overflow="visible" id="u"><path d="M2.125-4.422h-.328v1.063c0 .984-.719 1.984-1.422 2.375l.203.25c.578-.344 1.156-1.079 1.39-1.907.22.797.813 1.485 1.407 1.813l.188-.266c-.704-.36-1.438-1.312-1.438-2.265zm2.234-.484v1.89H2.984v.266H4.36V.422h.329v-5.328zm0 0"/></symbol><symbol overflow="visible" id="v"><path d="M1.453 0h.406l1.422-4.375h-.375l-.781 2.516c-.156.53-.281.937-.453 1.468H1.64c-.172-.53-.282-.937-.454-1.468l-.78-2.516H.03zm0 0"/></symbol><symbol overflow="visible" id="w"><path d="M1.781.078c.782 0 1.453-.61 1.453-1.672 0-1.062-.671-1.687-1.453-1.687-.765 0-1.437.625-1.437 1.687C.344-.53 1.016.078 1.78.078zm0-.297C1.156-.219.703-.78.703-1.594c0-.812.453-1.375 1.078-1.375s1.094.563 1.094 1.375c0 .813-.469 1.375-1.094 1.375zm0 0"/></symbol><symbol overflow="visible" id="x"><path d="M1.031.078c.11 0 .172-.015.235-.031l-.063-.281c-.062.015-.094.015-.11.015-.077 0-.14-.062-.14-.218v-4.329h-.36v4.297c0 .36.141.547.438.547zm0 0"/></symbol><symbol overflow="visible" id="y"><path d="M.75-.156c.156 0 .313-.11.313-.313A.317.317 0 0 0 .75-.797a.317.317 0 0 0-.313.328c0 .203.157.313.313.313zm0 0"/></symbol><symbol overflow="visible" id="z"><path d="M.547 0h2.265v-.313h-.921v-4.062h-.282c-.203.125-.468.219-.828.281v.235h.766v3.546h-1zm0 0"/></symbol><symbol overflow="visible" id="A"><path d="M1.016-7.813v1.047h2.843C3.672-5.546 2.516-4.546.484-4.03L.984-3c2.735-.703 4.282-2.36 4.282-4.813zM3.28-1.78h3.485v1.5H3.28zM1.984.75h6.079v-3.578H1.984zm4.75-9.078v5.11h1.329v-5.11zm0 0"/></symbol><symbol overflow="visible" id="B"><path d="M6.797-1.328h1.328v-7.016H6.797v2.297H5.594V-5h1.203v.922H5.594v1.047h1.203zM5.5-7.375H3.703v-.984H2.391v.984H.453v1.031H5.5zM2.125-4.219c0-.5.375-.781.922-.781.531 0 .906.281.906.781 0 .532-.375.797-.906.797-.547 0-.922-.265-.922-.797zm3.063 0c0-1.047-.891-1.797-2.141-1.797-1.266 0-2.156.75-2.156 1.797 0 1.078.89 1.828 2.156 1.828 1.25 0 2.14-.75 2.14-1.828zM3.359-.344V-1.89H2.047V.703h6.265V-.344zm0 0"/></symbol><symbol overflow="visible" id="C"><path d="M5.406-6.188v1.047h1.39v1.563h1.329v-4.766H6.797v2.156zm.547 1.61C4.5-4.875 3.797-5.688 3.797-6.516v-.03h1.828v-1.032H3.797v-.781H2.484v.78H.688v1.032h1.796v.031c0 .891-.656 1.766-2.14 2.094l.578 1.016C2-3.672 2.766-4.25 3.172-4.984c.437.671 1.187 1.187 2.234 1.406zM3.36-.203v-.563h4.766v-2.453H2.047v1h4.765v.516h-4.75V.78h6.313v-.984zm0 0"/></symbol><symbol overflow="visible" id="ac"><path d="M.781-7.734v1.046h2.906C3.5-5.438 2.36-4.39.36-3.858l.532 1.062c2.718-.75 4.25-2.469 4.25-4.937zM4.687-.156c-1.125 0-1.796-.297-1.796-.86 0-.578.671-.859 1.796-.859 1.11 0 1.782.281 1.782.86 0 .562-.672.859-1.782.859zm0-2.75c-1.859 0-3.093.734-3.093 1.89C1.594.141 2.828.875 4.687.875c1.86 0 3.079-.734 3.079-1.89 0-1.157-1.22-1.891-3.079-1.891zm2.985-3.281v-2.157H6.344v5.313h1.328V-5.11H8.89v-1.079zm0 0"/></symbol><symbol overflow="visible" id="ad"><path d="M6.797-5.953v.844h-1.64v-.844zM3.875-4.406h-1.75v-1.14h1.75zm1.281.343h1.64v1.22h1.329v-5.5H6.797V-7h-1.64v-.781H3.874v1.234h-1.75V-7.78H.812v4.422h4.344zM5-.14c-1.203 0-1.828-.25-1.828-.765 0-.516.625-.766 1.828-.766s1.844.25 1.844.766c0 .515-.64.765-1.844.765zm0-2.53c-1.938 0-3.14.64-3.14 1.765C1.86.204 3.061.875 5 .875c1.953 0 3.156-.672 3.156-1.781 0-1.125-1.203-1.766-3.156-1.766zm0 0"/></symbol><symbol overflow="visible" id="ae"><path d="M5.922-4.172c-1.453-.484-2.063-1.594-2.063-2.75v-.953H2.531V-7c0 1.25-.64 2.469-2.156 2.969L1.063-3c1.03-.36 1.75-1.063 2.14-1.953.39.812 1.047 1.453 2.031 1.797zM1.844-1.406h4.953V.875h1.328v-3.328H1.844zm4.953-6.938v1.719H5.125v1.078h1.672v2.688h1.328v-5.485zm0 0"/></symbol><symbol overflow="visible" id="as"><path d="M5.422-6.125v1.078h1.375v2.188h1.328v-5.485H6.797v2.219zm.547 1.984c-1.39-.468-2.032-1.546-2.078-2.593h1.796v-1.047H.734v1.047h1.813C2.5-5.578 1.844-4.406.375-3.906l.672 1.047c1.062-.36 1.797-1.11 2.203-2.047.39.812 1.078 1.468 2.078 1.797zM5.016-.125c-1.22 0-1.844-.25-1.844-.781 0-.516.625-.766 1.844-.766 1.187 0 1.828.25 1.828.766 0 .531-.64.781-1.828.781zm0-2.547c-1.954 0-3.157.656-3.157 1.766C1.86.219 3.063.875 5.016.875c1.937 0 3.14-.656 3.14-1.781 0-1.11-1.203-1.766-3.14-1.766zm0 0"/></symbol><symbol overflow="visible" id="at"><path d="M8.375-7.188h-3.14V-8.25H3.905v1.063H.781v1.046h7.594zM2.812-3.953c0-.516.61-.781 1.75-.781 1.157 0 1.782.265 1.782.78 0 .532-.625.767-1.782.767-1.14 0-1.75-.235-1.75-.766zm2.422 2.828v-1.063c1.532-.156 2.454-.78 2.454-1.765 0-1.125-1.204-1.797-3.125-1.797-1.907 0-3.11.672-3.11 1.797 0 .984.938 1.625 2.453 1.765v1.063H.422v1.063h8.344v-1.063zm0 0"/></symbol><symbol overflow="visible" id="aD"><path d="M.938-7.39v1.046H4C3.812-4.297 2.797-2.859.453-1.734l.688 1.03C4.406-2.28 5.359-4.577 5.359-7.39zm5.828-.954V.844h1.328v-9.188zm0 0"/></symbol><symbol overflow="visible" id="aE"><path d="M1.797-5.594c0-.718.484-1.14 1.172-1.14.672 0 1.172.421 1.172 1.14 0 .719-.5 1.14-1.172 1.14-.688 0-1.172-.421-1.172-1.14zm5-.5v1H5.328c.047-.172.063-.328.063-.5s-.016-.343-.047-.5zm0 2.047v1.094h1.328v-5.39H6.797v1.202H4.766c-.438-.437-1.063-.703-1.797-.703-1.36 0-2.422.938-2.422 2.25 0 1.297 1.062 2.25 2.422 2.25.719 0 1.344-.265 1.781-.703zM5-.157c-1.203 0-1.844-.25-1.844-.796 0-.531.64-.797 1.844-.797 1.203 0 1.86.266 1.86.797 0 .547-.657.797-1.86.797zm0-2.609c-1.938 0-3.14.672-3.14 1.813C1.86.187 3.061.875 5 .875c1.953 0 3.156-.688 3.156-1.828 0-1.14-1.203-1.813-3.156-1.813zm0 0"/></symbol><symbol overflow="visible" id="aU"><path d="M8.063-8.328H6.734v6.703h1.329zm-2 4.265c-1.5-.484-2.141-1.656-2.141-2.859v-.906H2.594v.906c0 1.203-.672 2.5-2.188 3.016l.656 1.047c1.079-.36 1.797-1.11 2.22-2.047a3.486 3.486 0 0 0 2.109 1.89zM3.265-.342v-1.923H1.953v2.97h6.344V-.345zm0 0"/></symbol><symbol overflow="visible" id="aV"><path d="M5.344-4.828c.203-1 .203-1.797.203-2.406v-.61H.844v1.047H4.25c0 .516-.047 1.11-.188 1.875zm.61.422c-.86.11-1.782.156-2.688.203v-1.578H1.984v1.61c-.593.015-1.171.015-1.687.015L.422-3.11c1.64 0 3.719-.047 5.61-.36zM4.671-.188c-1.203 0-1.844-.218-1.844-.703 0-.484.64-.718 1.844-.718 1.172 0 1.828.234 1.828.718 0 .485-.656.704-1.828.704zm0-2.437c-1.969 0-3.188.64-3.188 1.734C1.484.203 2.704.844 4.672.844c1.953 0 3.172-.64 3.172-1.735 0-1.093-1.219-1.734-3.172-1.734zm3.094-3.453v-2.266H6.453v5.625h1.313V-5h1.109v-1.078zm0 0"/></symbol><symbol overflow="visible" id="aW"><path d="M8.453-5.078C6.36-5.36 5.297-6.562 5.297-7.625v-.438H3.89v.438c0 1.078-1.047 2.266-3.141 2.547l.5 1.062C2.86-4.25 4.016-5 4.61-5.984 5.186-5 6.343-4.25 7.952-4.016zm.297 1.75H.437v1.062h3.47V.875h1.312v-3.14H8.75zm0 0"/></symbol><symbol overflow="visible" id="bq"><path d="M3.797-4.328H2v-1.203h1.797zM5.109-7.75H3.797v1.203H2V-7.75H.703v4.469H5.11zM1.531-1.375h4.813v2.25h1.328v-3.297h-6.14zm7.36-4.719H7.67v-2.25H6.345v5.516h1.328v-2.188H8.89zm0 0"/></symbol><symbol overflow="visible" id="br"><path d="M1.266-4.188c1.718-.203 2.843-.906 3.312-1.843.5.937 1.61 1.64 3.313 1.843l.484-1.03c-1.797-.204-2.703-.938-2.86-1.688H8v-1.047H1.187v1.047h2.47C3.5-6.172 2.577-5.422.796-5.22zm1.437 2.235H1.391V.703h6.437V-.344H2.703zM.422-3.75v1.031h3.625v1.563h1.312V-2.72H8.75V-3.75zm0 0"/></symbol><symbol overflow="visible" id="bs"><path d="M8.75-3.89H7.422c.266-1.5.266-2.563.266-3.344v-.594H1.405v1.062h4.969c0 .72-.047 1.657-.281 2.875H.437v1.079h1.86V.874h1.312v-3.688h1.875V.876h1.313v-3.688H8.75zm0 0"/></symbol><symbol overflow="visible" id="bx"><path d="M1.313-3.781C2.921-4 4.046-4.687 4.592-5.625 5.142-4.687 6.267-4 7.876-3.781l.469-1.031c-1.86-.235-2.828-1.125-2.969-2h2.61v-1.063H1.171v1.063h2.64c-.124.875-1.109 1.765-2.984 2zm7.437.531H.437v1.047h3.47V.875h1.312v-3.078H8.75zm0 0"/></symbol><symbol overflow="visible" id="by"><path d="M1.797-5.406c0-.766.5-1.235 1.172-1.235.672 0 1.172.47 1.172 1.235 0 .765-.5 1.234-1.172 1.234-.672 0-1.172-.469-1.172-1.234zm5-.61v1.188H5.328c.047-.172.063-.39.063-.578 0-.219-.032-.422-.063-.61zm0 2.235v2.172h1.328v-6.735H6.797v1.281H4.75c-.453-.453-1.063-.718-1.781-.718-1.36 0-2.422 1-2.422 2.375s1.062 2.375 2.422 2.375c.719 0 1.36-.281 1.797-.75zM3.375-.344v-1.922H2.062v2.97h6.266V-.345zm0 0"/></symbol><symbol overflow="visible" id="bT"><path d="M6.734-8.344V.875h1.313v-9.219zm-3.625.64C1.72-7.703.688-6.437.688-4.421c0 2.031 1.03 3.297 2.421 3.297 1.391 0 2.407-1.266 2.407-3.297 0-2.016-1.016-3.281-2.407-3.281zm0 1.188c.672 0 1.141.735 1.141 2.094 0 1.36-.469 2.094-1.14 2.094-.688 0-1.157-.735-1.157-2.094 0-1.36.469-2.094 1.156-2.094zm0 0"/></symbol><symbol overflow="visible" id="bU"><path d="M.875-7.516v6.188h4.422v-6.188zM4-6.469v4.11H2.172v-4.11zm2.734-1.875V.875h1.313v-9.219zm0 0"/></symbol><symbol overflow="visible" id="cf"><path d="M5.234-1.266v-1.906h2.641v-1.062H2.719v-2.422h5.078v-1.047H1.39v4.531h2.53v1.906h-3.5v1.079H8.75v-1.079zm0 0"/></symbol><symbol overflow="visible" id="cg"><path d="M2.61-2.313H1.296V.704h6.75V-.344H2.609zm5-2.203c.171-1.03.171-1.859.171-2.609v-.781h-6.36v1.047h5.063c0 .687-.015 1.406-.187 2.343H.422v1.047h2.765v2h1.297v-2h.922v2h1.297v-2H8.75v-1.047zm0 0"/></symbol><symbol overflow="visible" id="E"><path d="M1.266-1.344c.468 0 .906-.375.906-.984 0-.61-.438-1-.906-1-.47 0-.922.39-.922 1s.453.984.922.984zm0 0"/></symbol><symbol overflow="visible" id="G"><path d="M5.781-6.531V.562h.422V-6.53zm-3.265.578C1.484-5.953.75-5 .75-3.516c0 1.485.734 2.438 1.766 2.438 1.03 0 1.75-.953 1.75-2.438 0-1.484-.72-2.437-1.75-2.437zm0 .375c.796 0 1.343.844 1.343 2.062 0 1.204-.546 2.063-1.343 2.063-.797 0-1.36-.86-1.36-2.063 0-1.218.563-2.062 1.36-2.062zm0 0"/></symbol><symbol overflow="visible" id="H"><path d="M4.672-5.703H2.797v-.875h-.422v.875H.485v.344h4.187zM1.297-3.641c0-.546.531-.921 1.281-.921.766 0 1.266.375 1.266.921 0 .547-.5.922-1.266.922-.75 0-1.281-.375-1.281-.922zm2.953 0c0-.78-.672-1.25-1.672-1.25-1 0-1.672.47-1.672 1.25 0 .782.672 1.266 1.672 1.266 1 0 1.672-.484 1.672-1.266zM1.375-1.312H5.5V.546h.422v-2.219H1.375zM7.031-4.5h-1.11v-2.047H5.5v4.438h.422v-2.032h1.11zm0 0"/></symbol><symbol overflow="visible" id="I"><path d="M3.594-3.14H1.219v-1.391h2.375zm.422-2.954h-.422v1.219H1.219v-1.219H.797v3.297h3.219zM1.375-1.469H5.5V.563h.422v-2.391H1.375zm5.656-3.156h-1.11v-1.906H5.5v4.281h.422v-2h1.11zm0 0"/></symbol><symbol overflow="visible" id="J"><path d="M2.688-5.89H2.28v1.421c0 1.282-.969 2.64-1.89 3.14l.25.345c.78-.438 1.546-1.407 1.843-2.5.313 1.03 1.079 1.921 1.844 2.343l.266-.328c-.922-.484-1.907-1.765-1.907-3zm4.406 2.312h-1.25v-2.969h-.422v7.11h.422V-3.22h1.25zm0 0"/></symbol><symbol overflow="visible" id="K"><path d="M4.672-5.594H2.797v-.922h-.422v.922H.485v.36h4.187zM1.297-3.469c0-.562.531-.953 1.281-.953.766 0 1.266.39 1.266.953 0 .547-.5.953-1.266.953-.75 0-1.281-.406-1.281-.953zm2.953 0c0-.781-.672-1.297-1.672-1.297-1 0-1.672.516-1.672 1.297 0 .781.672 1.297 1.672 1.297 1 0 1.672-.515 1.672-1.297zM2.016-1.64h-.422V.391h4.672V.03h-4.25zm3.906-2.453v-2.422H5.5v5.313h.422v-2.531h1.11v-.36zm0 0"/></symbol><symbol overflow="visible" id="L"><path d="M6.89-3.234v-.36H5.814C6-4.484 6-5.156 6-5.688v-.5H1.281v.36h4.313v.14c0 .532 0 1.188-.219 2.094H.453v.36h3v1.484H1.141v.36h4.515V.561h.422V-1.75H3.875v-1.484zm0 0"/></symbol><symbol overflow="visible" id="M"><path d="M1.672-4.266h3.984v1.485H1.672zM3.859-.75v-1.672h2.204V-6h-.407v1.375H1.672V-6H1.25v3.578h2.188V-.75H.453v.36h6.438v-.36zm0 0"/></symbol><symbol overflow="visible" id="N"><path d="M4.078-4.266v.36h1.719v2.656h.437v-5.266h-.437v2.25zM.922-5.969v.36H3.64C3.516-4.188 2.28-3.08.578-2.484l.188.343c1.968-.671 3.328-2.046 3.328-3.828zm1.344 6v-1.828h-.422V.391h4.562V.03zm0 0"/></symbol><symbol overflow="visible" id="O"><path d="M4.516-2.844c-.97-.36-1.813-1.281-1.813-2.297v-.968h-.406v.937C2.297-4 1.484-3.032.484-2.64l.22.344a3.114 3.114 0 0 0 1.812-1.969c.296.813 1 1.454 1.796 1.766zM2.03-1.766H1.61V.391h4.657V.03H2.03zm3.89-2.53v-2.25H5.5v5.28h.422v-2.656h1.11v-.375zm0 0"/></symbol><symbol overflow="visible" id="P"><path d="M5.797.094H2.219V-.97h3.578zm0-1.422H2.219V-2.36h-.422V.453h4.437v-2.812h-.437zm-3.422-2c-.813 0-1.39-.531-1.39-1.25s.578-1.25 1.39-1.25c.797 0 1.39.531 1.39 1.25s-.593 1.25-1.39 1.25zm3.422-3.203v1.75h-1.64c-.095-.844-.813-1.407-1.782-1.407-1.063 0-1.797.641-1.797 1.61 0 .969.735 1.61 1.797 1.61.984 0 1.703-.563 1.781-1.438h1.64v1.672h.438v-3.797zm0 0"/></symbol><symbol overflow="visible" id="Q"><path d="M6.219-6.531h-.422v5.234h.422zM4.734-2.734C3.75-3.078 2.86-3.938 2.86-4.97v-.578h1.735v-.36H.704v.36h1.734v.578c0 1.094-.844 2-1.844 2.375l.219.328c.843-.328 1.562-.984 1.859-1.875.297.813 1.031 1.454 1.86 1.735zM2.188.03v-1.828h-.422V.391h4.687V.03zm0 0"/></symbol><symbol overflow="visible" id="R"><path d="M6.469-5.875H3.875v-.797h-.422v.797H.797v.344h5.672zM5.453-4.141c0 .438-.687.704-1.797.704-1.11 0-1.797-.266-1.797-.704 0-.437.688-.718 1.797-.718 1.11 0 1.797.28 1.797.718zm-4.031 0c0 .672.812 1.032 2.234 1.032s2.235-.36 2.235-1.032c0-.671-.813-1.03-2.235-1.03s-2.234.359-2.234 1.03zM3.656.203c-1.234 0-1.984-.266-1.984-.75s.75-.765 1.984-.765c1.235 0 1.985.28 1.985.765s-.75.75-1.985.75zm0-1.844c-1.547 0-2.406.375-2.406 1.094 0 .719.86 1.094 2.406 1.094 1.531 0 2.406-.375 2.406-1.094 0-.719-.875-1.094-2.406-1.094zM.453-2.562v.343H6.86v-.344zm0 0"/></symbol><symbol overflow="visible" id="S"><path d="M4.219-2.297v.328h1.515v.844h.422v-5.39h-.422v4.218zM2.734-5.89c.782 0 1.329.36 1.329.891s-.547.89-1.329.89c-.78 0-1.328-.359-1.328-.89s.547-.89 1.328-.89zm0 2.11c1.032 0 1.72-.469 1.72-1.219 0-.75-.688-1.219-1.72-1.219C1.688-6.219 1-5.75 1-5c0 .75.688 1.219 1.734 1.219zm-.156 2.375H3V-2.86c.688-.032 1.39-.094 2.063-.204l-.047-.312c-1.516.188-3.297.203-4.61.203l.063.375c.625 0 1.328 0 2.11-.031zM1.906.03v-1.687h-.422V.39h4.86V.03zm0 0"/></symbol><symbol overflow="visible" id="T"><path d="M1.328-5.422h1.11c1 0 1.562.313 1.562 1.156 0 .844-.563 1.235-1.563 1.235H1.329zM4.61 0L3.031-2.672c.89-.125 1.453-.672 1.453-1.594 0-1.125-.78-1.562-1.937-1.562H.844V0h.484v-2.625h1.188L4.062 0zm0 0"/></symbol><symbol overflow="visible" id="U"><path d="M.781-1.516c0-.53.406-.953.89-1.328.423.719 1.032 1.422 1.641 1.969-.359.36-.796.594-1.25.594-.703 0-1.28-.5-1.28-1.235zm.75-3.109c0-.516.297-.938.797-.938.453 0 .625.36.625.735 0 .578-.531.984-1.11 1.39-.202-.406-.312-.812-.312-1.187zm3.5 4.328c-.328-.11-.718-.328-1.125-.64.469-.61.797-1.344 1.031-2.125H4.5c-.203.718-.5 1.359-.906 1.859-.578-.5-1.188-1.203-1.578-1.906.656-.485 1.328-.985 1.328-1.75 0-.61-.36-1.063-1-1.063-.735 0-1.235.563-1.235 1.313 0 .437.141.921.391 1.421C.89-2.75.312-2.25.312-1.484c0 .953.735 1.593 1.704 1.593.656 0 1.171-.296 1.609-.718.453.359.89.593 1.266.718zm0 0"/></symbol><symbol overflow="visible" id="V"><path d="M.844 0h1.39c1.782 0 2.657-1.156 2.657-2.938 0-1.765-.875-2.89-2.672-2.89H.844zm.484-.406v-5.016h.844c1.531 0 2.219.984 2.219 2.484 0 1.516-.688 2.532-2.22 2.532zm0 0"/></symbol><symbol overflow="visible" id="W"><path d="M4.203-4.5v.36h1.594v2.827h.437V-6.53h-.437V-4.5zm.375 1.688c-.969-.36-1.797-1.25-1.797-2.22v-.515h1.672v-.36H.672v.36h1.703v.531C2.375-3.953 1.5-3 .515-2.64l.235.344c.828-.328 1.547-1.031 1.844-1.922.281.797.969 1.438 1.765 1.75zM2.218.03V-1.78h-.421V.39h4.64V.03zm0 0"/></symbol><symbol overflow="visible" id="X"><path d="M4.688-3.281c-1.188.203-2.141.25-3.36.25h-.11v-1.235h2.72v-1.828H.78v.36h2.75v1.125H.797v1.937h.531c1.25 0 2.203-.047 3.406-.234zM1.374-1.47H5.5V.547h.422v-2.375H1.375zm5.656-3.484v-.36h-1.11V-6.53H5.5v4.312h.422v-1.25h1.11v-.375h-1.11v-1.11zm0 0"/></symbol><symbol overflow="visible" id="Y"><path d="M4.625-3.328c-1.016.203-1.875.25-3.281.25h-.11v-2.469h2.688v-.36H.812v3.204h.532c1.437 0 2.297-.063 3.328-.266zm-2.61 1.437h-.421V.391h4.672V.03h-4.25zm3.907-2.437v-2.219H5.5v5.156h.422v-2.578h1.11v-.36zm0 0"/></symbol><symbol overflow="visible" id="Z"><path d="M4.5-2.984c-.984-.329-1.781-1.188-1.781-2.157v-.484h1.687v-.344H.625v.344h1.688v.484c0 1.079-.844 2-1.844 2.36l.219.328c.843-.313 1.546-.985 1.843-1.844.281.766.953 1.36 1.75 1.656zM3.687.187c-1.14 0-1.874-.343-1.874-.921 0-.563.734-.907 1.875-.907 1.14 0 1.874.344 1.874.907 0 .578-.734.921-1.875.921zm0-2.171c-1.421 0-2.296.453-2.296 1.25C1.39.078 2.266.53 3.687.53 5.11.531 5.97.078 5.97-.734c0-.797-.86-1.25-2.282-1.25zm2.235-2.641v-1.906H5.5v4.312h.422v-2.047h1.11v-.359zm0 0"/></symbol><symbol overflow="visible" id="aa"><path d="M.89-5.75v.36H3.72C3.609-3.64 2.53-2.126.579-1.189l.234.344C3.092-1.969 4.14-3.766 4.14-5.75zm4.907-.781V.562h.422V-6.53zm0 0"/></symbol><symbol overflow="visible" id="ab"><path d="M6.484-4.375C5.391-4.5 3.875-5.172 3.875-6.156V-6.5h-.438v.344c0 .984-1.515 1.656-2.609 1.781l.14.344c1.016-.157 2.266-.672 2.688-1.516.422.844 1.656 1.36 2.672 1.516zm.375 1.266v-.36H.453v.36h2.985v.843H1.25v.344h4.344v.813H1.266V.453H6.25V.11H1.687v-.89h4.329v-1.485H3.859v-.843zm0 0"/></symbol><symbol overflow="visible" id="af"><path d="M5.797-4.766v1.125H3.766v.36h2.03v1.094h.438v-4.329h-.437v1.391H3.969c.078-.25.125-.547.125-.844H.922v.36H3.64C3.516-4.22 2.297-3.172.562-2.625l.204.344C2.25-2.75 3.375-3.594 3.844-4.766zM3.953.188c-1.156 0-1.906-.391-1.906-.985s.75-.969 1.906-.969c1.14 0 1.906.375 1.906.97 0 .593-.765.984-1.906.984zm0-2.297c-1.437 0-2.328.484-2.328 1.312 0 .844.89 1.328 2.328 1.328 1.422 0 2.313-.484 2.313-1.328 0-.828-.891-1.312-2.313-1.312zm0 0"/></symbol><symbol overflow="visible" id="ag"><path d="M.984-4.453c0-.719.594-1.281 1.391-1.281s1.39.562 1.39 1.28c0 .75-.593 1.298-1.39 1.298-.797 0-1.39-.547-1.39-1.297zm4.813-.656v1.328h-1.75a1.837 1.837 0 0 0 0-1.328zm0 1.687v1.11h.437v-4.235h-.437v1.094H3.828c-.328-.406-.844-.64-1.453-.64-1.047 0-1.797.687-1.797 1.64 0 .984.75 1.672 1.797 1.672.61 0 1.125-.25 1.453-.64zM3.922.188c-1.14 0-1.89-.376-1.89-.985 0-.594.75-.984 1.89-.984 1.172 0 1.922.39 1.922.984 0 .61-.75.985-1.922.985zm0-2.313c-1.438 0-2.313.484-2.313 1.328 0 .844.875 1.328 2.313 1.328 1.453 0 2.344-.484 2.344-1.328 0-.844-.891-1.328-2.344-1.328zm0 0"/></symbol><symbol overflow="visible" id="ah"><path d="M1.156-1.656v-3.625h2.235v-.375H.75v4.375h.438c1.156 0 1.843-.047 2.687-.235l-.063-.359c-.796.188-1.484.219-2.64.219zm4.86-4.875v2.922h-1.22v-2.75h-.405V.17h.406V-3.25h1.219V.547h.421v-7.078zm0 0"/></symbol><symbol overflow="visible" id="ai"><path d="M1.516-4.203c0-.86.906-1.453 2.14-1.453 1.219 0 2.125.593 2.125 1.453 0 .844-.906 1.453-2.125 1.453-1.234 0-2.14-.61-2.14-1.453zM3.859-.766v-1.656c1.375-.062 2.329-.75 2.329-1.781C6.188-5.297 5.14-6 3.655-6c-1.484 0-2.531.703-2.531 1.797 0 1.031.938 1.719 2.313 1.781v1.656H.453v.36h6.422v-.36zm0 0"/></symbol><symbol overflow="visible" id="aj"><path d="M6.438-4.078c-1.063-.156-2.563-.953-2.563-1.984v-.375h-.438v.375c0 1.046-1.5 1.828-2.562 1.984l.156.344c1-.188 2.203-.766 2.625-1.657.438.875 1.64 1.47 2.625 1.657zM3.655.188c-1.219 0-1.984-.313-1.984-.86 0-.531.766-.86 1.984-.86 1.219 0 1.985.329 1.985.86 0 .547-.766.86-1.985.86zm0-2.063c-1.515 0-2.406.438-2.406 1.203C1.25.11 2.14.531 3.656.531S6.062.11 6.062-.672c0-.765-.89-1.203-2.406-1.203zm.203-1.063v-1.14h-.421v1.14H.453v.36H6.86v-.36zm0 0"/></symbol><symbol overflow="visible" id="ak"><path d="M4.61-2.984c-.985-.297-1.86-1.079-1.86-2.047v-.235h1.672v-.359H2.766v-.953h-.422v.953H.64v.36h1.703v.234c0 1.015-.86 1.86-1.86 2.203l.22.328c.843-.297 1.562-.906 1.859-1.734.296.765 1.03 1.328 1.843 1.593zm-2.5 1.421h3.718V.095H2.11zM1.702.454h4.531v-2.36h-4.53zM5.797-6.53v2.062H4.203v.36h1.594v1.796h.437V-6.53zm0 0"/></symbol><symbol overflow="visible" id="al"><path d="M2.766-5.984c-1.11 0-1.875.656-1.875 1.609 0 .969.765 1.625 1.875 1.625 1.093 0 1.859-.656 1.859-1.625 0-.953-.766-1.61-1.86-1.61zm0 .359c.843 0 1.453.531 1.453 1.25 0 .734-.61 1.266-1.453 1.266-.844 0-1.47-.532-1.47-1.266 0-.719.626-1.25 1.47-1.25zm2.953-.906V.562h.422V-6.53zM.562-1.063c1.297 0 3.063 0 4.688-.296l-.031-.329c-1.578.25-3.39.25-4.719.25zm0 0"/></symbol><symbol overflow="visible" id="am"><path d="M2.766-2.234h1.859v1.5h-1.86zm2.28 1.5v-1.5H6.22v-.36H1.703v-1.36h4.344v-2.015H1.266v.36h4.359v1.312H1.297v2.063h1.062v1.5H.453v.359h6.438v-.36zm0 0"/></symbol><symbol overflow="visible" id="an"><path d="M2.438-5.266h1.437v-.359H.547v.36h1.5v.765c0 1.469-.656 2.656-1.64 3.203l.28.328c.782-.453 1.329-1.265 1.579-2.344.234.954.78 1.688 1.5 2.094l.265-.328c-.968-.5-1.593-1.625-1.593-2.953zM6.03-6.53v2.937H4.875v-2.765h-.406V.17h.406v-3.39h1.156V.562h.407V-6.53zm0 0"/></symbol><symbol overflow="visible" id="ao"><path d="M5.797-1.188h.437V-6.53h-.437v1.75H4.109v.375h1.688zM4.547-2.78c-.969-.375-1.813-1.328-1.813-2.36v-.968h-.406v.921C2.328-4.046 1.484-3.03.5-2.64l.219.344A3.22 3.22 0 0 0 2.53-4.28c.297.828.985 1.5 1.781 1.828zM2.187.03v-1.843H1.75V.39h4.656V.03zm0 0"/></symbol><symbol overflow="visible" id="ap"><path d="M5.797-6.531v4.078h.422v-4.078zm-4.078 4.5V.453h4.5V-2.03zm4.078.344v1.78H2.125v-1.78zm-3.36-4.438c-1.046 0-1.78.64-1.78 1.625 0 .969.734 1.625 1.78 1.625C3.5-2.875 4.25-3.531 4.25-4.5c0-.984-.75-1.625-1.813-1.625zm0 .36c.813 0 1.407.53 1.407 1.265 0 .734-.594 1.266-1.406 1.266-.797 0-1.376-.532-1.376-1.266s.579-1.266 1.375-1.266zm0 0"/></symbol><symbol overflow="visible" id="aq"><path d="M.984-4.328c0-.766.594-1.36 1.391-1.36s1.39.594 1.39 1.36c0 .781-.593 1.375-1.39 1.375-.797 0-1.39-.594-1.39-1.375zM5.797-5v1.328H4.063c.062-.187.109-.422.109-.656 0-.234-.047-.469-.125-.672zm0 1.688v2.046h.437V-6.53h-.437v1.172H3.859a1.862 1.862 0 0 0-1.484-.704c-1.047 0-1.797.72-1.797 1.735 0 1.031.75 1.734 1.797 1.734.64 0 1.172-.265 1.484-.719zM2.219.03v-1.843h-.422V.39h4.64V.03zm0 0"/></symbol><symbol overflow="visible" id="ar"><path d="M6.86-2.984H5.75c.203-1.047.203-1.797.203-2.454v-.609H1.297v.36h4.25v.25c0 .656 0 1.421-.234 2.453H.452v.359h2.985V.563h.421v-3.188h3zm0 0"/></symbol><symbol overflow="visible" id="au"><path d="M1.938.969l.28-.14c-.702-1.126-1.046-2.47-1.046-3.86 0-1.39.344-2.75 1.047-3.86l-.281-.14c-.735 1.156-1.172 2.437-1.172 4 0 1.547.437 2.828 1.171 4zm0 0"/></symbol><symbol overflow="visible" id="av"><path d="M1.031-3.125c.985-.203 2.203-.828 2.625-1.75.406.922 1.625 1.547 2.61 1.75l.171-.36c-1.062-.171-2.562-.984-2.562-2.046v-.157h2.36v-.359H1.061v.36h2.36v.156c0 1.062-1.5 1.875-2.547 2.047zm5.828.703H.453v.36h2.985V.546h.421v-2.61h3zm0 0"/></symbol><symbol overflow="visible" id="aw"><path d="M.578.969c.735-1.172 1.172-2.453 1.172-4 0-1.563-.438-2.844-1.172-4l-.281.14c.687 1.11 1.047 2.47 1.047 3.86 0 1.39-.36 2.734-1.047 3.86zm0 0"/></symbol><symbol overflow="visible" id="ax"><path d="M6.078-4.047h-4.36V-6.14h-.421v2.454h4.781zm.781 1.531H.453v.36H2.22V.563h.422v-2.72h2.015v2.72h.438v-2.72h1.765zm0 0"/></symbol><symbol overflow="visible" id="ay"><path d="M4.625-4.328H2.656v-1.64h1.969zm-2.375 0H1.078V-4h5.14v-.328H5.048v-1.64h1.187v-.345H1.063v.344H2.25zm-.563 3.61h4.329v-1.423H1.25v.344h4.344v.75H1.266v1.5H6.25V.11H1.687zM.454-3.25v.344H6.86v-.344zm0 0"/></symbol><symbol overflow="visible" id="az"><path d="M1.156-1.547v-1.875h2.735v-2.422H.719v.36h2.75v1.687H.75v2.61h.531c1.438 0 2.36-.063 3.485-.266l-.047-.375c-1.11.219-2.032.281-3.438.281zm5.938-2.078h-1.25v-2.906h-.422V.562h.422v-3.828h1.25zm0 0"/></symbol><symbol overflow="visible" id="aA"><path d="M6.11-2.61H1.75v-1.312h4.14v-.344H1.75v-1.25h4.297v-.359H1.313v3.625h4.796zM.452-.78v.36h6.422v-.36zm0 0"/></symbol><symbol overflow="visible" id="aB"><path d="M3.578-1.547H1.203v-2.047h2.375zm0-2.406H1.203v-1.969H.781v4.734H4v-4.734h-.422zm3.516.297h-1.25v-2.875h-.422V.562h.422V-3.28h1.25zm0 0"/></symbol><symbol overflow="visible" id="aC"><path d="M5.61-3.578H1.718v-1.235h3.89zM6.03-6.25H5.61v1.078H1.72V-6.25h-.422v3.031H6.03zm.844 3.984H.437v.36h3V.562h.422v-2.468h3.016zm0 0"/></symbol><symbol overflow="visible" id="aF"><path d="M1.266-5.64H.844v4.296h.422c.796 0 1.593-.047 2.593-.25l-.046-.375c-.97.203-1.782.25-2.547.25zm4.75-.907v2.984h-1.22v-2.796h-.405V.17h.406v-3.358h1.219v3.75h.406v-7.11zm0 0"/></symbol><symbol overflow="visible" id="aG"><path d="M1.688 0h.546l1.563-4.25h-.469l-.922 2.61c-.14.406-.297.843-.422 1.218h-.03A13.953 13.953 0 0 1 1.53-1.64L.61-4.25h-.5zm0 0"/></symbol><symbol overflow="visible" id="aH"><path d="M2.39.11c.547 0 1-.235 1.36-.563l-.219-.313c-.297.25-.672.47-1.11.47-.89 0-1.483-.735-1.483-1.829 0-1.078.64-1.828 1.484-1.828.406 0 .719.172.984.422l.266-.313c-.297-.265-.688-.531-1.25-.531-1.063 0-1.969.828-1.969 2.25 0 1.422.828 2.234 1.938 2.234zm0 0"/></symbol><symbol overflow="visible" id="aI"><path d="M6.484-3.734c-1.062-.172-2.609-1-2.609-2.094v-.438h-.438v.438c0 1.125-1.515 1.922-2.609 2.094l.188.359c1-.188 2.218-.813 2.656-1.75.422.922 1.656 1.563 2.64 1.75zm.375 1.28H.453v.36h2.985v2.64h.421v-2.64h3zm0 0"/></symbol><symbol overflow="visible" id="aJ"><path d="M4.531-3.063c-.968-.359-1.812-1.28-1.812-2.312v-.813h-.406v.797C2.313-4.234 1.5-3.28.5-2.875l.219.344A3.152 3.152 0 0 0 2.53-4.5c.297.813.985 1.453 1.766 1.781zM1.547-1.577h4.25v2.14h.437v-2.484H1.547zm4.25-4.969v1.594H4.109v.36h1.688v2.234h.437v-4.188zm0 0"/></symbol><symbol overflow="visible" id="aK"><path d="M4.703-3.172c-.984-.36-1.875-1.297-1.875-2.39v-.688h-.422v.688c0 1.14-.86 2.125-1.844 2.515l.22.344c.827-.344 1.562-1.063 1.843-1.969.313.844 1.047 1.516 1.86 1.828zM2.125-1.687h3.672v1.78H2.125zM1.719.453h4.5V-2.03h-4.5zM5.797-6.53v4.047h.422v-4.047zm0 0"/></symbol><symbol overflow="visible" id="aL"><path d="M1.547-1.578h4.25v2.14h.437v-2.5H1.547zm2.516-2.234c.062-.188.109-.407.109-.641 0-.219-.047-.438-.11-.625h1.735v1.266zm-1.688.671c-.797 0-1.39-.562-1.39-1.312 0-.734.593-1.313 1.39-1.313.797 0 1.39.579 1.39 1.313 0 .75-.593 1.312-1.39 1.312zm3.422-3.406v1.11H3.859c-.328-.438-.859-.688-1.484-.688-1.047 0-1.797.688-1.797 1.672 0 1 .75 1.672 1.797 1.672.625 0 1.156-.25 1.484-.672h1.938v1.094h.437v-4.188zm0 0"/></symbol><symbol overflow="visible" id="aM"><path d="M1.016-3.438c1.062-.14 2.234-.593 2.64-1.39.406.797 1.578 1.25 2.64 1.39l.126-.343c-1.156-.125-2.547-.703-2.547-1.672h2.313v-.344H3.874v-.797h-.422v.797H1.141v.344h2.296c0 .969-1.39 1.547-2.546 1.672zM3.656.204c-1.219 0-1.984-.312-1.984-.828s.766-.828 1.984-.828c1.219 0 1.985.312 1.985.828s-.766.828-1.985.828zm0-1.984c-1.515 0-2.406.406-2.406 1.156 0 .75.89 1.156 2.406 1.156S6.062.125 6.062-.625c0-.75-.89-1.156-2.406-1.156zm.219-1.016v-1h-.422v1h-3v.36H6.86v-.36zm0 0"/></symbol><symbol overflow="visible" id="aN"><path d="M4.125-3.953c.188-.844.188-1.469.188-1.844v-.297H.89v.36h3.015c0 .375-.015.921-.203 1.734zm.813.422c-.766.11-1.625.156-2.454.187v-1.36h-.421v1.376c-.563.015-1.126.015-1.61.015l.047.36c1.266 0 2.984-.031 4.469-.266zM1.828-.828h4.063v-1.516H1.375V-2h4.094v.844H1.406V.469h4.766V.125H1.828zM5.891-4.75v-1.797h-.422v3.86h.422v-1.704H7v-.359zm0 0"/></symbol><symbol overflow="visible" id="aO"><path d="M4.844-3.36c-1 .172-1.844.22-3.422.22h-.125v-1.157h2.75v-.344h-2.75v-1.093h2.937v-.36H.875v3.297h.547c1.594 0 2.437-.031 3.484-.219zM2.125-1.546h3.672v1.64H2.125zm-.406 2h4.5v-2.36h-4.5zM5.797-6.53v4.234h.422V-6.53zm0 0"/></symbol><symbol overflow="visible" id="aP"><path d="M5.594-4.438h-3.86v-.843h3.86zm.422-1.968h-.422v.781h-3.86v-.781h-.421v2.312h4.703zM1.687-.766h4.329v-1.453H1.25v.328h4.344v.797H1.266V.453H6.25V.11H1.687zM.454-3.359v.343H6.86v-.343zm0 0"/></symbol><symbol overflow="visible" id="aQ"><path d="M1.172-1.219H5.64V.47h.421v-2.047h-4.89zm2.703-1.36v-.89h2.313v-.344H1.702v-.921h4.328v-1.594h-4.75v.344H5.61v.921H1.297v1.594h2.156v.89H.438v.36h6.437v-.36zm0 0"/></symbol><symbol overflow="visible" id="aR"><path d="M1.344-1.61v-3.859h2.89v-.375H.922v4.61h.562c1.36 0 2.297-.063 3.47-.266l-.063-.375c-1.125.219-2.063.266-3.407.266zM5.78-6.53V.562h.422V-6.53zm0 0"/></symbol><symbol overflow="visible" id="aS"><path d="M2.438-5.844h-.391v1.453c0 1.235-.719 2.5-1.64 3.032l.265.328C1.406-1.484 2-2.36 2.25-3.36c.25.921.828 1.75 1.516 2.171l.28-.328c-.921-.53-1.609-1.765-1.609-2.875zm2.14 1.953H3.25v.36h1.328V.188h.406V-6.36h-.406zm1.453-2.64V.562h.407V-6.53zm0 0"/></symbol><symbol overflow="visible" id="aT"><path d="M1.297-4.438c0-.718.625-1.25 1.469-1.25.843 0 1.453.532 1.453 1.25 0 .735-.61 1.266-1.453 1.266-.844 0-1.47-.531-1.47-1.265zm1.687 1.625c.97-.078 1.641-.703 1.641-1.624 0-.954-.766-1.61-1.86-1.61-1.109 0-1.874.656-1.874 1.61 0 .921.687 1.546 1.671 1.625v1.374c-.75.016-1.453.016-2.062.016l.063.375c1.296 0 3.062 0 4.687-.297l-.031-.328c-.719.11-1.485.172-2.235.203zM5.72-6.546v7.11h.422v-7.11zm0 0"/></symbol><symbol overflow="visible" id="aX"><path d="M2.422-5.281h1.422v-.36H.547v.36h1.469v.828c0 1.344-.672 2.656-1.625 3.219l.28.312c.735-.453 1.313-1.36 1.563-2.406.235.969.797 1.797 1.516 2.25l.266-.328c-.938-.532-1.594-1.797-1.594-3.047zm2.172 1.36H3.28v.374h1.313V.172H5v-6.516h-.406zm1.422-2.61V.562h.421V-6.53zm0 0"/></symbol><symbol overflow="visible" id="aY"><path d="M1.016-3.453c1.062-.14 2.234-.578 2.64-1.39.406.812 1.578 1.25 2.64 1.39l.126-.328c-1.156-.125-2.531-.703-2.547-1.672h2.313v-.344H3.874v-.797h-.422v.797H1.141v.344h2.296c-.015.969-1.39 1.547-2.546 1.672zM5.64-.625c0 .516-.766.828-1.985.828S1.672-.109 1.672-.625s.766-.828 1.984-.828c1.219 0 1.985.312 1.985.828zm1.218-2v-.36H.453v.36h3v.844c-1.406.047-2.203.437-2.203 1.156 0 .75.89 1.156 2.406 1.156S6.062.125 6.062-.625c0-.719-.796-1.11-2.203-1.156v-.844zm0 0"/></symbol><symbol overflow="visible" id="aZ"><path d="M5.594-4.14h-3.86v-.985h3.86zm.422-2.235h-.422v.906h-3.86v-.906h-.421v2.594h4.703zm.843 3.719v-.36H.453v.36h2.985v.984H1.171v.344H5.64v1.89h.421v-2.234H3.86v-.984zm0 0"/></symbol><symbol overflow="visible" id="ba"><path d="M5.594-4.922c0 .906 0 1.813-.266 3.016l.422.047C6-3.094 6-3.984 6-4.922v-.828H1.14v.36h4.454zM4.328-.89v-2.406h-.406V-.89H2.594v-2.406h-.422V-.89H.453v.36H6.86v-.36zm0 0"/></symbol><symbol overflow="visible" id="bb"><path d="M4.11-2.578c.202-1.406.202-2.375.202-2.875v-.266H.783v.36h3.124c0 .515-.015 1.453-.219 2.734zm-1.688-1.11h-.406v2.22c-.594.03-1.141.03-1.641.03l.063.375c1.28-.015 2.968-.046 4.484-.265l-.031-.328c-.782.11-1.641.156-2.47.172zm4.625.188h-1.25v-3.047h-.422v7.11h.422v-3.688h1.25zm0 0"/></symbol><symbol overflow="visible" id="bc"><path d="M.078.813h.375l2.64-7.704H2.72zm0 0"/></symbol><symbol overflow="visible" id="bd"><path d="M4.86-4.172h1.124v2.047h.407v-4.406h-.407v2H4.86v-1.86h-.406v4.032h.406zm-.876 1.078C3.094-3.438 2.47-4.25 2.47-5.047v-1.047h-.406v1.047c0 .797-.657 1.734-1.547 2.125l.234.328c.719-.312 1.266-.969 1.516-1.672a2.67 2.67 0 0 0 1.5 1.5zM4.11.203c-1.156 0-1.906-.344-1.906-.89 0-.563.75-.907 1.906-.907 1.157 0 1.907.344 1.907.907 0 .546-.75.89-1.907.89zm0-2.14c-1.453 0-2.328.453-2.328 1.25C1.781.093 2.656.53 4.11.53c1.438 0 2.313-.437 2.313-1.219 0-.796-.875-1.25-2.313-1.25zm0 0"/></symbol><symbol overflow="visible" id="be"><path d="M3.547-3.234H1.219v-2.391h2.328zm2.25-1.72v1.048H3.969v-1.047zM3.969-3.546h1.828v1.235h.437v-4.22h-.437v1.22H3.969v-.672H.813v3.093h3.156zM3.938.188c-1.157 0-1.907-.36-1.907-.97 0-.577.75-.952 1.906-.952 1.157 0 1.907.375 1.907.953 0 .61-.75.969-1.907.969zm0-2.266c-1.438 0-2.329.469-2.329 1.297C1.61.063 2.5.53 3.938.53 5.375.531 6.265.062 6.265-.78c0-.828-.891-1.297-2.329-1.297zm0 0"/></symbol><symbol overflow="visible" id="bf"><path d="M3.656-6.031c1.219 0 2.016.36 2.016.953 0 .594-.797.953-2.016.953-1.219 0-2.015-.36-2.015-.953 0-.594.796-.953 2.015-.953zm0 2.25c1.516 0 2.453-.469 2.453-1.297s-.937-1.297-2.453-1.297c-1.531 0-2.453.469-2.453 1.297s.922 1.297 2.453 1.297zm1.078 1.937a5.539 5.539 0 0 0-1.078-.093 5.1 5.1 0 0 0-1.047.093v-.937h2.125zm.907 1.157c0 .562-.782.89-1.985.89s-1.984-.328-1.984-.89c0-.563.781-.907 1.984-.907 1.203 0 1.985.344 1.985.907zm1.218-2.094v-.36H.453v.36h1.734v1.047c-.609.203-.937.562-.937 1.046C1.25.11 2.14.548 3.656.548S6.062.109 6.062-.688c0-.484-.312-.828-.906-1.03v-1.063zm0 0"/></symbol><symbol overflow="visible" id="bg"><path d="M4.672-5.734H2.797v-.875h-.422v.875H.485v.343h4.187zm-3.375 2c0-.532.516-.891 1.281-.891.766 0 1.266.36 1.266.89 0 .532-.5.907-1.266.907-.75 0-1.281-.375-1.281-.906zm2.953 0c0-.766-.672-1.235-1.672-1.235-1.015 0-1.672.469-1.672 1.235 0 .765.656 1.234 1.672 1.234 1 0 1.672-.469 1.672-1.234zM5.5.094H1.969v-.969H5.5zm0-1.313H1.969v-.875h-.422V.453h4.375v-2.547H5.5zm1.531-3.437h-1.11v-1.89H5.5v4.124h.422v-1.875h1.11zm0 0"/></symbol><symbol overflow="visible" id="bh"><path d="M2.844-5.406H4.64v-.375H.67v.375h1.766v1.187c0 1.235-1.046 2.594-1.953 3.047l.266.344c.766-.422 1.578-1.39 1.89-2.453C2.97-2.25 3.798-1.375 4.579-1l.266-.328c-.969-.438-2-1.656-2-2.89zM5.78-6.531V.562h.422V-6.53zm0 0"/></symbol><symbol overflow="visible" id="bi"><path d="M5.797-2.656h.422v-3.89h-.422v1.718H4.344v.36h1.453zm-1.375-.922c-.938.172-1.688.187-3.094.187H1.25v-1.03h2.547v-.345H1.25v-.953h2.719v-.343H.829v3.03h.5c1.421 0 2.187-.03 3.14-.187zM2.156.109v-.906H6.22v-1.5H1.734v.344h4.063v.828H1.75V.453h4.766V.11zm0 0"/></symbol><symbol overflow="visible" id="bj"><path d="M6.39-6.516h-.406v3.985h.407zM3.845-4.578v.344h.906v1.625h.406v-3.797H4.75v1.828zM4.03-5.75H2.438v-.813h-.422v.813H.422v.344h3.61zm-2.89 1.875c0-.516.437-.86 1.078-.86.64 0 1.078.344 1.078.86 0 .5-.438.844-1.078.844-.64 0-1.078-.344-1.078-.844zm2.546 0c0-.734-.609-1.188-1.468-1.188-.875 0-1.469.454-1.469 1.188 0 .719.594 1.172 1.469 1.172.86 0 1.469-.453 1.469-1.172zM2.234.109v-.843h4.157v-1.454H1.797v.329h4.187v.796H1.828V.454h4.844V.11zm0 0"/></symbol><symbol overflow="visible" id="bk"><path d="M6.5-2.844c-1-.203-2.64-1.281-2.64-2.578V-6h-.438v.578c0 1.313-1.625 2.36-2.625 2.578l.187.36c.954-.25 2.22-1.032 2.657-2.141.437 1.11 1.718 1.89 2.656 2.14zM.453-.813v.36h6.422v-.36zm0 0"/></symbol><symbol overflow="visible" id="bl"><path d="M4.563-3.656h-1.36a5.988 5.988 0 0 0 .328-2.016H.844v.36h2.281A5.523 5.523 0 0 1 2.891-4L.5-3.828l.078.375 2.203-.219c-.36.922-1.062 1.766-2.25 2.39l.25.329c1.172-.64 1.875-1.469 2.281-2.36h1.5V.172h.407v-6.516h-.407zm1.468-2.89V.562h.407v-7.11zm0 0"/></symbol><symbol overflow="visible" id="bm"><path d="M2.313-1.453c-.782 0-1.329-.86-1.329-2.063 0-1.218.547-2.062 1.329-2.062.78 0 1.328.844 1.328 2.062 0 1.204-.547 2.063-1.329 2.063zm3.484-5.078v2.781H4.03c-.078-1.344-.75-2.203-1.718-2.203-1.016 0-1.72.953-1.72 2.437 0 1.485.704 2.438 1.72 2.438.984 0 1.687-.906 1.734-2.313h1.75V.563h.437v-7.094zm0 0"/></symbol><symbol overflow="visible" id="bn"><path d="M2.656-5.438h1.969v2.5H2.656zM3.86-.734v-1.844h2.375v-.36H5.047v-2.5h1.187v-.359H1.047v.36H2.25v2.5H1.062v.359h2.375v1.844H.454v.359h6.438v-.36zm0 0"/></symbol><symbol overflow="visible" id="bo"><path d="M4.484-3.297c-1.14.188-2.062.235-3.203.235h-.093v-1.25h2.671v-1.844H.75v.36h2.688v1.14H.765v1.953h.515c1.157 0 2.078-.047 3.25-.235zM2.078-1.578h3.735V.094H2.078zM1.672.453h4.562v-2.39H1.672zm4.125-6.969v1.641H4.344v.36h1.453v2.156h.437v-4.157zm0 0"/></symbol><symbol overflow="visible" id="bp"><path d="M5.797.094H2.219V-.953h3.578zm0-1.39H2.219v-1H1.78v2.75H6.22v-2.75h-.422zM3.53-3.329H1.266v-1.297H3.53zm2.266-3.219v1.828h-1.86v-1.453h-.406v1.203H1.266v-1.203H.844v3.203h3.094v-1.39h1.859v1.703h.437v-3.89zm0 0"/></symbol><symbol overflow="visible" id="bt"><path d="M5.61-5.531c0 .562 0 1.078-.204 1.797l.422.062c.188-.734.188-1.281.188-1.86v-.609H1.234v.36H5.61zM3.64.187c-1.203 0-2.015-.359-2.015-.937 0-.563.813-.938 2.016-.938s2.03.375 2.03.938c0 .578-.827.938-2.03.938zm0-2.218c-1.5 0-2.437.484-2.437 1.281 0 .813.938 1.281 2.438 1.281 1.5 0 2.437-.469 2.437-1.281 0-.797-.937-1.281-2.437-1.281zm.032-1.125v-1.438h-.438v1.438H.47v.36h6.39v-.36zm0 0"/></symbol><symbol overflow="visible" id="bu"><path d="M2.813-5.875h-.407v1.406c0 1.328-1.031 2.688-1.953 3.157l.25.343C1.5-1.39 2.297-2.344 2.625-3.453c.328 1.062 1.125 1.969 1.906 2.375l.266-.344c-.953-.453-1.984-1.75-1.984-3.047zm2.968-.656V.562h.422V-6.53zm0 0"/></symbol><symbol overflow="visible" id="bv"><path d="M5.797-2.844h.437v-3.703h-.437v1.438H4.109v.375h1.688zm-1.25-.515c-.969-.344-1.828-1.22-1.828-2.204v-.765h-.406v.766c0 1.109-.829 2.015-1.829 2.375l.22.343c.827-.328 1.546-.984 1.827-1.844.297.766 1 1.36 1.781 1.657zM2.172.094V-.86h4.062v-1.579h-4.5v.36h4.079v.875H1.75V.453h4.781v-.36zm0 0"/></symbol><symbol overflow="visible" id="bw"><path d="M6.516-2.938C5.5-3.14 3.859-4.155 3.859-5.453v-.563h-.437v.563c0 1.297-1.64 2.312-2.656 2.516l.187.343c.953-.219 2.25-.969 2.688-2.062.453 1.093 1.734 1.843 2.687 2.062zM3.844-.78v-1.813h-.422V-.78H.453v.36h6.422v-.36zm0 0"/></symbol><symbol overflow="visible" id="bz"><path d="M5.781-6.547v7.11h.422v-7.11zm-4.89.625v4.734h3.25v-4.734h-.422v1.969H1.313v-1.969zm.421 2.328H3.72v2.047H1.313zm0 0"/></symbol><symbol overflow="visible" id="bA"><path d="M6.125-3.406h-4.36V-4.47h4.11v-.343h-4.11v-1.016h4.282v-.344H1.344v3.125h4.781zm.75 1.203H.453v.36h3V.561h.422v-2.406h3zm0 0"/></symbol><symbol overflow="visible" id="bB"><path d="M6.125-6.531h-.422v5.39h.422zm-3.313.656c.797 0 1.36.39 1.36.953s-.563.953-1.36.953c-.812 0-1.359-.39-1.359-.953 0-.562.547-.953 1.36-.953zm0 2.234c1.063 0 1.75-.484 1.75-1.28 0-.782-.687-1.282-1.75-1.282-1.062 0-1.765.5-1.765 1.281 0 .797.703 1.281 1.766 1.281zM2.72-1.39h.422v-1.296a17.533 17.533 0 0 0 2.03-.204l-.03-.328C3.594-3 1.797-2.984.469-2.984l.062.375a56.4 56.4 0 0 0 2.188-.047zM1.953.031V-1.64h-.422V.391h4.844V.03zm0 0"/></symbol><symbol overflow="visible" id="bC"><path d="M1.828-5.344h1.406v3.625c-.468.032-.953.032-1.406.047zm1.828 0h.86v-.36H.546v.36h.86v3.672c-.375.016-.718.016-1.031.016l.063.375c1.265 0 2.984-.016 4.5-.25l-.016-.328c-.406.062-.844.093-1.266.109zm3.438 1.735h-1.25v-2.938h-.422V.547h.422V-3.25h1.25zm0 0"/></symbol><symbol overflow="visible" id="bD"><path d="M1.266-1.547v-4.172H.844v4.532h.515c1.188 0 2.125-.063 3.25-.282l-.078-.375c-1.062.235-2.015.297-3.172.297zM5.812-6.53v2.422H3.47v.359h2.344V.563h.421v-7.094zm0 0"/></symbol><symbol overflow="visible" id="bE"><path d="M2.781-2.61h1.735v1.907H2.78zm-.125-2.859h1.969v2.5H2.656zM4.937-.703V-2.61h1.297v-.36H5.047v-2.5h1.187v-.36H1.047v.36H2.25v2.5H1.062v.36H2.36v1.906H.453v.36h6.438v-.36zm0 0"/></symbol><symbol overflow="visible" id="bF"><path d="M5.797-4.813v1.188h-1.86v-1.188zM3.53-2.89H1.266v-1.453H3.53zm.406-.39h1.86v2.015h.437V-6.53h-.437v1.36h-1.86v-.891h-.406v1.359H1.266v-1.36H.844v3.532h3.094zM2.188.03V-1.78H1.75V.39h4.656V.03zm0 0"/></symbol><symbol overflow="visible" id="bG"><path d="M1.297-1.547v-1.89h2.797v-2.407H.859v.36h2.829v1.687H.874v2.61h.563c1.171 0 2.265-.047 3.625-.266l-.047-.36a22.605 22.605 0 0 1-3.579.266zM5.78-6.53V.562h.438V-6.53zm0 0"/></symbol><symbol overflow="visible" id="bH"><path d="M.563 1.11c.562-.298.953-.829.953-1.516 0-.406-.172-.656-.485-.656-.218 0-.406.125-.406.39 0 .25.188.406.406.406.032 0 .063 0 .094-.015 0 .5-.281.86-.703 1.078zm0 0"/></symbol><symbol overflow="visible" id="bI"><path d="M.86-5.75v.36h2.78C3.517-3.673 2.47-2.14.563-1.204l.235.344c2.25-1.125 3.25-2.954 3.25-4.891zm6.218 2.188H5.844v-2.97h-.422V.564h.422v-3.75h1.234zm0 0"/></symbol><symbol overflow="visible" id="bJ"><path d="M2.969-4.906h1.719v-.36H2.984v-1.156h-.421v1.156H.813v.36h1.75v.718c0 1.344-.922 2.547-1.907 3.016l.25.328a3.872 3.872 0 0 0 1.86-2.344c.328 1.016 1.093 1.829 1.89 2.22l.25-.345C3.922-1.75 2.97-2.89 2.97-4.188zM5.78-6.531V.562h.438V-6.53zm0 0"/></symbol><symbol overflow="visible" id="bK"><path d="M5.797-2.125h.437v-4.406h-.437v1.343h-1.36v.36h1.36v.875h-1.36v.36h1.36zM1.89-5.594h1.312v2.5c-.453.031-.89.031-1.312.047zm2.812 2.375c-.344.047-.703.078-1.094.094v-2.469h.813v-.36H.688v.36h.78v2.547c-.343.016-.687.016-.984.016l.063.375c1.156 0 2.797-.016 4.187-.235zM3.922.187c-1.156 0-1.89-.343-1.89-.906 0-.562.734-.906 1.89-.906 1.172 0 1.922.344 1.922.906 0 .563-.75.906-1.922.906zm0-2.156c-1.438 0-2.313.453-2.313 1.25 0 .813.875 1.25 2.313 1.25 1.453 0 2.344-.437 2.344-1.25 0-.797-.891-1.25-2.344-1.25zm0 0"/></symbol><symbol overflow="visible" id="bL"><path d="M.797-5.75v.36h2.75C3.453-3.689 2.484-2.173.5-1.204l.25.328C3.047-2 3.969-3.813 3.969-5.75zm5-.781v2.922H3.969v.359h1.828V.547h.422v-7.078zm0 0"/></symbol><symbol overflow="visible" id="bM"><path d="M1.125-1.578v-1.813h2.203v-2.328H.688v.36h2.234v1.609H.703v2.531h.453c.89 0 1.703-.031 2.75-.218l-.047-.36c-1.015.188-1.828.219-2.703.219zm4.89-4.969v2.89H4.798v-2.702H4.39V.17h.406v-3.468h1.219v3.86h.421v-7.11zm0 0"/></symbol><symbol overflow="visible" id="bN"><path d="M.844 0h.437v-3.688c0-.484-.031-1.124-.047-1.609h.032L1.719-4 2.953-.625h.375L4.547-4 5-5.297h.031c-.015.484-.047 1.125-.047 1.61V0h.454v-5.828h-.641l-1.203 3.36c-.14.421-.266.843-.422 1.265H3.14L2.687-2.47l-1.203-3.36h-.64zm0 0"/></symbol><symbol overflow="visible" id="bO"><path d="M.844 0h1.734C3.875 0 4.75-.578 4.75-1.703c0-.797-.5-1.266-1.25-1.39v-.048c.578-.171.89-.671.89-1.265 0-.985-.765-1.422-1.937-1.422H.843zm.484-3.281v-2.14h1.016c1.031 0 1.562.28 1.562 1.077 0 .657-.453 1.063-1.61 1.063zm0 2.875v-2.485h1.125c1.156 0 1.813.375 1.813 1.188 0 .906-.688 1.297-1.813 1.297zm0 0"/></symbol><symbol overflow="visible" id="bP"><path d="M1.328-2.344l.36-1.047c.234-.687.437-1.296.64-2h.031c.204.704.391 1.313.641 2l.344 1.047zM4.125 0h.5L2.594-5.828h-.5L.063 0h.484l.656-1.953H3.47zm0 0"/></symbol><symbol overflow="visible" id="bQ"><path d="M5.625-4.14H1.703v-1.688h3.922zm.406-2.048H1.297v2.407H6.03zM1.72-1.64h-.422V.391h4.86V.03H1.718zM.437-2.844v.36H3.47v1.578h.422v-1.578h2.984v-.36zm0 0"/></symbol><symbol overflow="visible" id="bR"><path d="M1.938 0h.53L4.36-5.828h-.484l-1.047 3.36c-.219.702-.375 1.234-.61 1.937h-.03a45.818 45.818 0 0 1-.594-1.938L.547-5.829H.03zm0 0"/></symbol><symbol overflow="visible" id="bS"><path d="M2.938.11c.75 0 1.296-.313 1.734-.844l-.266-.297c-.406.453-.86.703-1.437.703-1.235 0-1.985-1.016-1.985-2.61 0-1.562.766-2.562 2-2.562.532 0 .954.234 1.266.594l.266-.313a1.985 1.985 0 0 0-1.532-.703c-1.468 0-2.5 1.14-2.5 3C.484-1.047 1.5.11 2.938.11zm0 0"/></symbol><symbol overflow="visible" id="bV"><path d="M1.047-4.453c0-.734.594-1.281 1.39-1.281.797 0 1.391.546 1.391 1.28 0 .735-.594 1.282-1.39 1.282-.797 0-1.391-.547-1.391-1.281zm3.187 0c0-.984-.75-1.64-1.796-1.64-1.063 0-1.797.655-1.797 1.64 0 .984.734 1.64 1.796 1.64 1.047 0 1.797-.656 1.797-1.64zM1.375-1.578H5.5v2.14h.422v-2.5H1.375zM7.015-5v-.36H5.923v-1.187H5.5v4.234h.422v-1.171h1.094v-.36H5.922V-5zm0 0"/></symbol><symbol overflow="visible" id="bW"><path d="M.89-5.797v4.516h3.172v-4.516zm2.766.344v3.812h-2.36v-3.812zm2.125-1.078V.562h.422V-6.53zm0 0"/></symbol><symbol overflow="visible" id="bX"><path d="M4.625-4.188H2.656v-1.75h1.969zm-2.375 0H1.078v.344h5.14v-.344H5.048v-1.75h1.187v-.359H1.063v.36H2.25zM5.656.095H1.672V-1.36h3.984zM6.86-2.687v-.36H.453v.36h3v.984H1.266V.453h4.796v-2.156H3.86v-.984zm0 0"/></symbol><symbol overflow="visible" id="bY"><path d="M5.61-3.766H1.718v-2h3.89zm.406-2.343H1.312v2.703h4.704zm.859 3.78H.437v.36h3V.547h.422V-1.97h3.016zm0 0"/></symbol><symbol overflow="visible" id="bZ"><path d="M.844 0h3.125v-.422h-2.64v-5.406H.843zm0 0"/></symbol><symbol overflow="visible" id="ca"><path d="M.797 0h.469v-4.25h-.47zm.234-5.25c.219 0 .39-.156.39-.375 0-.234-.171-.375-.39-.375-.203 0-.39.14-.39.375 0 .219.187.375.39.375zm0 0"/></symbol><symbol overflow="visible" id="cb"><path d="M2.422.11c.625 0 1.015-.204 1.36-.422l-.173-.344a1.916 1.916 0 0 1-1.14.375c-.906 0-1.531-.735-1.547-1.766h3.015c.016-.11.016-.219.016-.344 0-1.25-.61-1.984-1.64-1.984-.97 0-1.86.875-1.86 2.25 0 1.39.875 2.234 1.969 2.234zm-1.5-2.532C1-3.39 1.625-3.969 2.328-3.969c.735 0 1.203.516 1.203 1.547zm0 0"/></symbol><symbol overflow="visible" id="cc"><path d="M.797 0h.469v-3.188c.484-.515.843-.765 1.343-.765.641 0 .922.406.922 1.297V0H4v-2.719c0-1.094-.406-1.656-1.297-1.656-.578 0-1.015.344-1.453.766h-.016l-.046-.641H.796zm0 0"/></symbol><symbol overflow="visible" id="cd"><path d="M1.844.11c.937 0 1.468-.563 1.468-1.22 0-.827-.718-1.046-1.374-1.296-.5-.188-1-.36-1-.828 0-.391.296-.735.921-.735.422 0 .735.156 1.016.375l.234-.312a1.968 1.968 0 0 0-1.234-.469c-.89 0-1.39.531-1.39 1.156 0 .735.703 1 1.328 1.219.5.172 1.03.406 1.03.922 0 .437-.327.797-.968.797C1.281-.281.891-.5.531-.812l-.25.328c.375.328.938.593 1.563.593zm0 0"/></symbol><symbol overflow="visible" id="ce"><path d="M2.203 2.031c1.235 0 2.031-.703 2.031-1.453 0-.672-.453-.984-1.421-.984h-.891c-.61 0-.797-.219-.797-.531 0-.266.156-.438.344-.594.187.125.453.187.672.187.843 0 1.515-.625 1.515-1.5 0-.437-.187-.812-.453-1.031h.969v-.375H2.719a1.443 1.443 0 0 0-.578-.125c-.829 0-1.516.625-1.516 1.516 0 .515.266.937.547 1.156v.031c-.203.14-.484.422-.484.797a.77.77 0 0 0 .39.688v.03C.688.11.438.485.438.86c0 .72.703 1.172 1.765 1.172zm-.062-3.734c-.563 0-1.063-.453-1.063-1.156C1.078-3.563 1.562-4 2.141-4c.578 0 1.062.438 1.062 1.14 0 .704-.5 1.157-1.062 1.157zm.109 3.375c-.875 0-1.375-.344-1.375-.86 0-.296.156-.609.531-.859.219.047.438.078.532.078h.875c.624 0 .968.157.968.61 0 .515-.61 1.03-1.531 1.03zm0 0"/></symbol><symbol overflow="visible" id="ch"><path d="M1.813.11c1.078 0 1.484-.766 1.484-1.72v-4.218h-.485v4.172c0 .922-.328 1.328-1.015 1.328C1.313-.328.984-.516.687-1l-.359.234c.313.563.813.875 1.484.875zm0 0"/></symbol><symbol overflow="visible" id="ci"><path d="M.844 0h.484v-5.828H.844zm0 0"/></symbol><symbol overflow="visible" id="cj"><path d="M2.375.11c1.031 0 1.922-.813 1.922-2.235s-.89-2.25-1.922-2.25c-1.031 0-1.922.828-1.922 2.25 0 1.422.89 2.234 1.922 2.234zm0-.407C1.547-.297.937-1.03.937-2.125c0-1.078.61-1.828 1.438-1.828s1.438.75 1.438 1.828c0 1.094-.61 1.828-1.438 1.828zm0 0"/></symbol><symbol overflow="visible" id="ck"><path d="M2.016.11c.593 0 1.03-.329 1.437-.813h.031L3.516 0h.39v-4.25h-.453v3.11c-.484.577-.828.827-1.328.827-.656 0-.922-.406-.922-1.28V-4.25H.734v2.719c0 1.093.407 1.64 1.282 1.64zm0 0"/></symbol><symbol overflow="visible" id="cl"><path d="M1.36.11c.156 0 .234-.032.312-.048l-.063-.374c-.093.015-.125.015-.156.015-.11 0-.187-.094-.187-.281v-5.766h-.47v5.719c0 .484.188.734.563.734zm0 0"/></symbol><symbol overflow="visible" id="cm"><path d="M2 .11c.188 0 .453-.079.703-.172l-.11-.36a1.25 1.25 0 0 1-.515.125c-.562 0-.719-.344-.719-.89V-3.86h1.235v-.391H1.359v-1.234H.97L.922-4.25l-.688.031v.36h.672v2.64C.906-.422 1.156.11 2 .11zm0 0"/></symbol><symbol overflow="visible" id="cn"><path d="M4.078-4.203v.36h1.719v2.609h.437v-5.282h-.437v2.313zM.968-5.937v.359h2.657a3.466 3.466 0 0 1-.219.984l-2.781.125.078.375L3.25-4.28c-.438.812-1.266 1.453-2.563 1.89l.188.344c2.203-.75 3.203-2.14 3.203-3.89zM2.314.03V-1.78H1.89V.39h4.562V.03zm0 0"/></symbol><symbol overflow="visible" id="co"><path d="M5.797-1.25h.437v-5.266h-.437V-4.5H4.328v.36h1.469zM4.422-3.047c-.938.188-1.688.203-3.094.203H1.25v-1.25h2.547v-.343H1.25V-5.61h2.719v-.36H.829v3.485h.5c1.421 0 2.187-.016 3.14-.204zM2.203.031v-1.718h-.422V.39h4.657V.03zm0 0"/></symbol><symbol overflow="visible" id="cp"><path d="M2.719-5.406H4.39v-.375H.594v.375h1.703v1.187C2.297-3 1.28-1.64.359-1.172l.266.344c.766-.422 1.578-1.39 1.875-2.469.313 1 1.078 1.89 1.844 2.297l.25-.344c-.922-.453-1.875-1.718-1.875-2.875zm4.375 1.828h-1.25v-2.953h-.422V.562h.422v-3.78h1.25zm0 0"/></symbol><symbol overflow="visible" id="cq"><path d="M.906-6.219v.36h2.656c-.03.312-.093.609-.203.875l-2.796.14.078.375 2.546-.187C2.735-3.922 1.891-3.344.626-3l.172.344c2.125-.594 3.219-1.86 3.219-3.563zM1.953-.89h3.969v-1.546H1.516v.343H5.5v.875H1.531V.453h4.672v-.36h-4.25zm3.969-3.921v-1.72H5.5v3.735h.422v-1.64h1.11v-.375zm0 0"/></symbol><symbol overflow="visible" id="cr"><path d="M1.36-1.688v-4.156H.952v4.532H1.5c1.156 0 2.234-.094 3.484-.36l-.062-.36c-1.203.25-2.313.345-3.422.345zM5.765-6.53V.562h.421V-6.53zm0 0"/></symbol><symbol overflow="visible" id="cs"><path d="M6.39-6.531h-.406v5.328h.407zm-1.765 5.14h.406v-5h-.406v1.907H3.531v.359h1.094zm-.781-1.671c-.781.187-1.453.218-2.61.218H1.22v-1.219h1.968v-.359H1.22v-1.14h2.265v-.36H.813v3.438h.421c1.188 0 1.844-.047 2.672-.22zM2.28.03v-1.828h-.406V.391h4.75V.03zm0 0"/></symbol><symbol overflow="visible" id="ct"><path d="M1.125-2.11c1.016-.25 2.125-.874 2.547-1.921.39 1.047 1.515 1.672 2.531 1.922l.188-.344c-1.157-.25-2.516-1.094-2.516-2.422v-.078h2.36v-.36h-2.36v-1.03h-.422v1.03H1.078v.36h2.375v.078c0 1.328-1.375 2.172-2.515 2.422zM.453-.765v.36h6.422v-.36zm0 0"/></symbol><symbol overflow="visible" id="cu"><path d="M4.563-7.64h2.203v-1.313H.687v1.312h2.297v.61c0 1.812-.906 3.89-2.703 4.734l.875 1.25c1.266-.594 2.157-1.812 2.64-3.25.5 1.313 1.36 2.422 2.579 2.984l.875-1.25C5.437-3.405 4.562-5.358 4.562-7.03zm6.203 1.843h-1.61V-10H7.578V1.031h1.578V-4.5h1.61zm0 0"/></symbol><symbol overflow="visible" id="cv"><path d="M7.672-6.672H3.297v-1.64h4.375zm1.562-2.875h-7.5v4.125h7.5zM3.25-2.359H1.672V.844H9.39V-.422H3.25zM.5-4.547v1.234h4.36v1.891h1.577v-1.89H10.5v-1.235zm0 0"/></symbol><symbol overflow="visible" id="cx"><path d="M4.094-8.281c.812 0 1.39.39 1.39 1.078 0 .672-.578 1.062-1.39 1.062-.797 0-1.375-.39-1.375-1.062 0-.688.578-1.078 1.375-1.078zm0 3.422c1.672 0 2.89-.985 2.89-2.344 0-1.39-1.218-2.36-2.89-2.36-1.657 0-2.89.97-2.89 2.36 0 1.36 1.234 2.344 2.89 2.344zm3.453.28c-2.328.345-5.063.376-7 .376l.187 1.297c.782 0 1.672-.016 2.625-.047v3.64h1.579v-3.75a22.046 22.046 0 0 0 2.703-.359zM8.172-10V1.016H9.75V-10zm0 0"/></symbol><symbol overflow="visible" id="cy"><path d="M6.14-3.594v1.078H8.22v.875h1.578V-10H8.219v6.406zm-2.109-4.89c.719 0 1.235.28 1.235.828 0 .531-.516.812-1.235.812-.75 0-1.265-.281-1.265-.812 0-.547.515-.828 1.265-.828zm0 2.796c1.594 0 2.735-.796 2.735-1.968S5.625-9.641 4.03-9.641c-1.625 0-2.765.813-2.765 1.985 0 1.172 1.14 1.968 2.765 1.968zM3.438-.421v-1.5h1.53v-2.094a24.554 24.554 0 0 0 2.626-.312l-.11-1.125c-2.312.297-5 .328-7.015.328l.203 1.266c.828 0 1.75-.016 2.719-.063v1.485H1.859v3.28h8.188V-.421zm0 0"/></symbol></defs><g fill="#898989"><use xlink:href="#a" x="558.212" y="819.169"/><use xlink:href="#b" x="561.924" y="819.169"/></g><g fill="#595757"><use xlink:href="#c" x="39.637" y="818.993"/><use xlink:href="#d" x="45.03" y="818.993"/><use xlink:href="#e" x="50.424" y="818.993"/><use xlink:href="#f" x="55.817" y="818.993"/><use xlink:href="#g" x="61.211" y="818.993"/><use xlink:href="#h" x="62.769" y="818.993"/><use xlink:href="#i" x="68.162" y="818.993"/><use xlink:href="#j" x="73.556" y="818.993"/><use xlink:href="#k" x="78.949" y="818.993"/><use xlink:href="#l" x="84.342" y="818.993"/><use xlink:href="#m" x="89.736" y="818.993"/><use xlink:href="#c" x="95.129" y="818.993"/><use xlink:href="#d" x="100.523" y="818.993"/></g><g fill="#595757"><use xlink:href="#n" x="105.916" y="818.993"/><use xlink:href="#o" x="107.474" y="818.993"/><use xlink:href="#p" x="112.868" y="818.993"/><use xlink:href="#q" x="118.261" y="818.993"/><use xlink:href="#r" x="123.655" y="818.993"/><use xlink:href="#n" x="129.048" y="818.993"/><use xlink:href="#s" x="130.606" y="818.993"/><use xlink:href="#t" x="136" y="818.993"/><use xlink:href="#u" x="141.393" y="818.993"/><use xlink:href="#n" x="146.786" y="818.993"/><use xlink:href="#v" x="148.345" y="818.993"/></g><g fill="#595757"><use xlink:href="#w" x="151.43" y="818.993"/><use xlink:href="#x" x="154.87" y="818.993"/><use xlink:href="#y" x="156.35" y="818.993"/><use xlink:href="#n" x="157.735" y="818.993"/><use xlink:href="#z" x="159.293" y="818.993"/><use xlink:href="#z" x="162.379" y="818.993"/></g><use xlink:href="#A" x="53.793" y="238.573"/><use xlink:href="#B" x="62.782" y="238.573"/><use xlink:href="#C" x="71.771" y="238.573"/><use xlink:href="#D" x="80.76" y="238.573"/><use xlink:href="#E" x="53.793" y="254.794"/><use xlink:href="#F" x="56.166" y="254.794"/><use xlink:href="#G" x="58.243" y="254.794"/><use xlink:href="#H" x="65.435" y="254.794"/><use xlink:href="#I" x="72.626" y="254.794"/><use xlink:href="#J" x="79.817" y="254.794"/><use xlink:href="#E" x="53.793" y="269.775"/><use xlink:href="#F" x="56.166" y="269.775"/><use xlink:href="#K" x="58.243" y="269.775"/><use xlink:href="#L" x="65.435" y="269.775"/><use xlink:href="#M" x="72.626" y="269.775"/><use xlink:href="#N" x="79.817" y="269.775"/><use xlink:href="#O" x="87.008" y="269.775"/><use xlink:href="#P" x="94.2" y="269.775"/><use xlink:href="#Q" x="101.391" y="269.775"/><use xlink:href="#R" x="108.582" y="269.775"/><use xlink:href="#S" x="115.773" y="269.775"/><use xlink:href="#F" x="122.965" y="269.775"/><use xlink:href="#T" x="125.042" y="269.775"/><use xlink:href="#U" x="129.741" y="269.775"/><use xlink:href="#V" x="134.734" y="269.775"/><use xlink:href="#W" x="139.944" y="269.775"/><use xlink:href="#X" x="147.135" y="269.775"/><use xlink:href="#Y" x="154.327" y="269.775"/><use xlink:href="#Z" x="161.518" y="269.775"/><use xlink:href="#F" x="168.709" y="269.775"/><use xlink:href="#E" x="53.793" y="284.757"/><use xlink:href="#F" x="56.166" y="284.757"/><use xlink:href="#O" x="58.243" y="284.757"/><use xlink:href="#P" x="65.435" y="284.757"/><use xlink:href="#aa" x="72.626" y="284.757"/><use xlink:href="#ab" x="79.817" y="284.757"/><use xlink:href="#F" x="87.008" y="284.757"/><use xlink:href="#T" x="89.086" y="284.757"/><use xlink:href="#U" x="93.784" y="284.757"/><use xlink:href="#V" x="98.778" y="284.757"/><use xlink:href="#F" x="103.988" y="284.757"/><use xlink:href="#W" x="106.065" y="284.757"/><use xlink:href="#X" x="113.257" y="284.757"/><use xlink:href="#Y" x="120.448" y="284.757"/><use xlink:href="#Z" x="127.639" y="284.757"/><g><use xlink:href="#ac" x="242.422" y="238.573"/><use xlink:href="#ad" x="251.411" y="238.573"/><use xlink:href="#ae" x="260.4" y="238.573"/></g><g><use xlink:href="#E" x="242.422" y="254.794"/><use xlink:href="#F" x="244.795" y="254.794"/><use xlink:href="#af" x="246.872" y="254.794"/><use xlink:href="#ag" x="254.064" y="254.794"/><use xlink:href="#ah" x="261.255" y="254.794"/><use xlink:href="#H" x="268.446" y="254.794"/><use xlink:href="#S" x="275.637" y="254.794"/><use xlink:href="#F" x="282.829" y="254.794"/><use xlink:href="#I" x="284.906" y="254.794"/><use xlink:href="#J" x="292.097" y="254.794"/><use xlink:href="#F" x="299.289" y="254.794"/></g><g><use xlink:href="#E" x="242.422" y="269.775"/><use xlink:href="#F" x="244.795" y="269.775"/><use xlink:href="#ai" x="246.872" y="269.775"/><use xlink:href="#aj" x="254.064" y="269.775"/><use xlink:href="#ak" x="261.255" y="269.775"/><use xlink:href="#Y" x="268.446" y="269.775"/><use xlink:href="#al" x="275.637" y="269.775"/><use xlink:href="#am" x="282.829" y="269.775"/><use xlink:href="#O" x="290.02" y="269.775"/><use xlink:href="#P" x="297.211" y="269.775"/><use xlink:href="#Q" x="304.402" y="269.775"/><use xlink:href="#R" x="311.594" y="269.775"/><use xlink:href="#an" x="318.785" y="269.775"/><use xlink:href="#Y" x="325.976" y="269.775"/><use xlink:href="#F" x="333.167" y="269.775"/><use xlink:href="#ao" x="335.245" y="269.775"/><use xlink:href="#ap" x="342.436" y="269.775"/><use xlink:href="#aq" x="349.627" y="269.775"/><use xlink:href="#ar" x="356.819" y="269.775"/><use xlink:href="#S" x="364.01" y="269.775"/></g><g><use xlink:href="#as" x="431.051" y="238.573"/><use xlink:href="#B" x="440.04" y="238.573"/><use xlink:href="#at" x="449.029" y="238.573"/><use xlink:href="#D" x="458.018" y="238.573"/></g><g><use xlink:href="#E" x="431.051" y="254.794"/><use xlink:href="#F" x="433.424" y="254.794"/><use xlink:href="#G" x="435.501" y="254.794"/><use xlink:href="#H" x="442.692" y="254.794"/><use xlink:href="#I" x="449.884" y="254.794"/><use xlink:href="#J" x="457.075" y="254.794"/></g><g><use xlink:href="#E" x="431.051" y="269.775"/><use xlink:href="#F" x="433.424" y="269.775"/><use xlink:href="#au" x="435.501" y="269.775"/><use xlink:href="#av" x="437.85" y="269.775"/><use xlink:href="#aw" x="445.042" y="269.775"/><use xlink:href="#ax" x="447.391" y="269.775"/><use xlink:href="#ay" x="454.582" y="269.775"/><use xlink:href="#az" x="461.773" y="269.775"/><use xlink:href="#G" x="468.964" y="269.775"/><use xlink:href="#aA" x="476.156" y="269.775"/><use xlink:href="#F" x="483.347" y="269.775"/><use xlink:href="#aB" x="485.424" y="269.775"/><use xlink:href="#G" x="492.616" y="269.775"/><use xlink:href="#ai" x="499.807" y="269.775"/><use xlink:href="#J" x="506.998" y="269.775"/><use xlink:href="#P" x="514.189" y="269.775"/><use xlink:href="#aC" x="521.381" y="269.775"/><use xlink:href="#F" x="528.572" y="269.775"/><use xlink:href="#G" x="530.649" y="269.775"/><use xlink:href="#J" x="537.841" y="269.775"/></g><g><use xlink:href="#A" x="53.793" y="716.087"/><use xlink:href="#aD" x="62.782" y="716.087"/><use xlink:href="#aE" x="71.771" y="716.087"/></g><g><use xlink:href="#E" x="53.793" y="732.307"/><use xlink:href="#F" x="56.166" y="732.307"/><use xlink:href="#L" x="58.243" y="732.307"/><use xlink:href="#aF" x="65.435" y="732.307"/><use xlink:href="#F" x="72.626" y="732.307"/><use xlink:href="#ah" x="74.703" y="732.307"/><use xlink:href="#aa" x="81.895" y="732.307"/><use xlink:href="#P" x="89.086" y="732.307"/><use xlink:href="#F" x="96.277" y="732.307"/><use xlink:href="#aG" x="98.355" y="732.307"/><use xlink:href="#aH" x="102.102" y="732.307"/><use xlink:href="#F" x="105.929" y="732.307"/><use xlink:href="#aI" x="108.007" y="732.307"/><use xlink:href="#aJ" x="115.198" y="732.307"/><use xlink:href="#aK" x="122.389" y="732.307"/><use xlink:href="#J" x="129.581" y="732.307"/><use xlink:href="#aL" x="136.772" y="732.307"/><use xlink:href="#F" x="143.963" y="732.307"/><use xlink:href="#aM" x="146.041" y="732.307"/><use xlink:href="#aN" x="153.232" y="732.307"/><use xlink:href="#aO" x="160.423" y="732.307"/><use xlink:href="#Z" x="167.614" y="732.307"/></g><g><use xlink:href="#E" x="53.793" y="747.289"/><use xlink:href="#F" x="56.166" y="747.289"/><use xlink:href="#aP" x="58.243" y="747.289"/><use xlink:href="#aQ" x="65.435" y="747.289"/><use xlink:href="#ai" x="72.626" y="747.289"/><use xlink:href="#aR" x="79.817" y="747.289"/><use xlink:href="#aS" x="87.008" y="747.289"/><use xlink:href="#G" x="94.2" y="747.289"/><use xlink:href="#F" x="101.391" y="747.289"/><use xlink:href="#J" x="103.468" y="747.289"/><use xlink:href="#aT" x="110.66" y="747.289"/><use xlink:href="#G" x="117.851" y="747.289"/><use xlink:href="#J" x="125.042" y="747.289"/></g><g><use xlink:href="#aU" x="53.793" y="470.791"/><use xlink:href="#aV" x="62.782" y="470.791"/><use xlink:href="#aW" x="71.771" y="470.791"/></g><g><use xlink:href="#E" x="53.793" y="487.011"/><use xlink:href="#F" x="56.166" y="487.011"/><use xlink:href="#af" x="58.243" y="487.011"/><use xlink:href="#aX" x="65.435" y="487.011"/><use xlink:href="#H" x="72.626" y="487.011"/><use xlink:href="#F" x="79.817" y="487.011"/><use xlink:href="#I" x="81.895" y="487.011"/><use xlink:href="#J" x="89.086" y="487.011"/></g><g><use xlink:href="#E" x="53.793" y="501.993"/><use xlink:href="#F" x="56.166" y="501.993"/><use xlink:href="#aY" x="58.243" y="501.993"/><use xlink:href="#aZ" x="65.435" y="501.993"/><use xlink:href="#ah" x="72.626" y="501.993"/><use xlink:href="#H" x="79.817" y="501.993"/><use xlink:href="#ba" x="87.008" y="501.993"/><use xlink:href="#F" x="94.2" y="501.993"/><use xlink:href="#al" x="96.277" y="501.993"/><use xlink:href="#bb" x="103.468" y="501.993"/><use xlink:href="#ah" x="110.66" y="501.993"/><use xlink:href="#H" x="117.851" y="501.993"/><use xlink:href="#F" x="125.042" y="501.993"/><use xlink:href="#al" x="127.12" y="501.993"/><use xlink:href="#H" x="134.311" y="501.993"/><use xlink:href="#bb" x="141.502" y="501.993"/></g><g><use xlink:href="#F" x="53.793" y="516.974"/><use xlink:href="#F" x="55.87" y="516.974"/><use xlink:href="#F" x="57.948" y="516.974"/><use xlink:href="#bc" x="60.025" y="516.974"/><use xlink:href="#al" x="63.022" y="516.974"/><use xlink:href="#bd" x="70.213" y="516.974"/><use xlink:href="#be" x="77.404" y="516.974"/><use xlink:href="#bf" x="84.595" y="516.974"/><use xlink:href="#bg" x="91.787" y="516.974"/><use xlink:href="#ah" x="98.978" y="516.974"/><use xlink:href="#H" x="106.169" y="516.974"/><use xlink:href="#S" x="113.36" y="516.974"/><use xlink:href="#F" x="120.552" y="516.974"/><use xlink:href="#aC" x="122.629" y="516.974"/><use xlink:href="#ba" x="129.82" y="516.974"/><use xlink:href="#aI" x="137.012" y="516.974"/><use xlink:href="#Z" x="144.203" y="516.974"/><use xlink:href="#F" x="151.394" y="516.974"/></g><g><use xlink:href="#E" x="53.793" y="531.956"/><use xlink:href="#F" x="56.166" y="531.956"/><use xlink:href="#aR" x="58.243" y="531.956"/><use xlink:href="#bh" x="65.435" y="531.956"/><use xlink:href="#bi" x="72.626" y="531.956"/><use xlink:href="#bj" x="79.817" y="531.956"/><use xlink:href="#bk" x="87.008" y="531.956"/><use xlink:href="#bl" x="94.2" y="531.956"/><use xlink:href="#bm" x="101.391" y="531.956"/><use xlink:href="#aq" x="108.582" y="531.956"/><use xlink:href="#bg" x="115.773" y="531.956"/><use xlink:href="#bn" x="122.965" y="531.956"/><use xlink:href="#bo" x="130.156" y="531.956"/><use xlink:href="#F" x="137.347" y="531.956"/><use xlink:href="#bp" x="139.425" y="531.956"/><use xlink:href="#aX" x="146.616" y="531.956"/><use xlink:href="#G" x="153.807" y="531.956"/><use xlink:href="#J" x="160.998" y="531.956"/></g><g><use xlink:href="#bq" x="431.051" y="470.791"/><use xlink:href="#br" x="440.04" y="470.791"/><use xlink:href="#bs" x="449.029" y="470.791"/></g><g><use xlink:href="#F" x="431.051" y="487.011"/><use xlink:href="#E" x="433.128" y="487.011"/><use xlink:href="#F" x="435.501" y="487.011"/><use xlink:href="#bt" x="437.579" y="487.011"/><use xlink:href="#H" x="444.77" y="487.011"/><use xlink:href="#I" x="451.961" y="487.011"/><use xlink:href="#J" x="459.152" y="487.011"/></g><g><use xlink:href="#F" x="431.051" y="501.993"/><use xlink:href="#E" x="433.128" y="501.993"/><use xlink:href="#F" x="435.501" y="501.993"/><use xlink:href="#au" x="437.579" y="501.993"/><use xlink:href="#av" x="439.928" y="501.993"/><use xlink:href="#aw" x="447.119" y="501.993"/><use xlink:href="#bu" x="449.468" y="501.993"/><use xlink:href="#bh" x="456.659" y="501.993"/><use xlink:href="#aB" x="463.851" y="501.993"/><use xlink:href="#G" x="471.042" y="501.993"/><use xlink:href="#ai" x="478.233" y="501.993"/><use xlink:href="#F" x="485.424" y="501.993"/><use xlink:href="#aC" x="487.502" y="501.993"/><use xlink:href="#bv" x="494.693" y="501.993"/><use xlink:href="#aq" x="501.884" y="501.993"/><use xlink:href="#ar" x="509.076" y="501.993"/><use xlink:href="#bw" x="516.267" y="501.993"/><use xlink:href="#F" x="523.458" y="501.993"/><use xlink:href="#aO" x="525.536" y="501.993"/><use xlink:href="#Z" x="532.727" y="501.993"/></g><g><use xlink:href="#A" x="431.051" y="716.087"/><use xlink:href="#bx" x="440.04" y="716.087"/><use xlink:href="#by" x="449.029" y="716.087"/><use xlink:href="#D" x="458.018" y="716.087"/></g><g><use xlink:href="#E" x="431.051" y="732.307"/><use xlink:href="#F" x="433.424" y="732.307"/><use xlink:href="#au" x="435.501" y="732.307"/><use xlink:href="#av" x="437.85" y="732.307"/><use xlink:href="#aw" x="445.042" y="732.307"/><use xlink:href="#bz" x="447.391" y="732.307"/><use xlink:href="#bA" x="454.582" y="732.307"/><use xlink:href="#bB" x="461.773" y="732.307"/><use xlink:href="#bC" x="468.964" y="732.307"/><use xlink:href="#aA" x="476.156" y="732.307"/><use xlink:href="#bD" x="483.347" y="732.307"/><use xlink:href="#bk" x="490.538" y="732.307"/><use xlink:href="#F" x="497.729" y="732.307"/><use xlink:href="#ah" x="499.807" y="732.307"/><use xlink:href="#bE" x="506.998" y="732.307"/><use xlink:href="#F" x="514.189" y="732.307"/></g><g><use xlink:href="#E" x="431.051" y="747.289"/><use xlink:href="#F" x="433.424" y="747.289"/><use xlink:href="#bF" x="435.501" y="747.289"/><use xlink:href="#bG" x="442.692" y="747.289"/><use xlink:href="#J" x="449.884" y="747.289"/><use xlink:href="#bH" x="457.075" y="747.289"/><use xlink:href="#F" x="458.921" y="747.289"/><use xlink:href="#aa" x="460.998" y="747.289"/><use xlink:href="#P" x="468.189" y="747.289"/><use xlink:href="#aa" x="475.381" y="747.289"/><use xlink:href="#ab" x="482.572" y="747.289"/><use xlink:href="#bI" x="489.763" y="747.289"/><use xlink:href="#bJ" x="496.954" y="747.289"/><use xlink:href="#bK" x="504.146" y="747.289"/><use xlink:href="#bI" x="511.337" y="747.289"/><use xlink:href="#J" x="518.528" y="747.289"/><use xlink:href="#bH" x="525.719" y="747.289"/><use xlink:href="#F" x="527.565" y="747.289"/></g><g><use xlink:href="#F" x="431.051" y="762.271"/><use xlink:href="#F" x="433.128" y="762.271"/><use xlink:href="#aa" x="435.205" y="762.271"/><use xlink:href="#ab" x="442.397" y="762.271"/><use xlink:href="#bL" x="449.588" y="762.271"/><use xlink:href="#bM" x="456.779" y="762.271"/><use xlink:href="#J" x="463.97" y="762.271"/><use xlink:href="#bH" x="471.162" y="762.271"/><use xlink:href="#F" x="473.008" y="762.271"/><use xlink:href="#bN" x="475.085" y="762.271"/><use xlink:href="#bO" x="481.214" y="762.271"/><use xlink:href="#bP" x="486.183" y="762.271"/><use xlink:href="#bH" x="490.714" y="762.271"/><use xlink:href="#F" x="492.56" y="762.271"/><use xlink:href="#W" x="494.637" y="762.271"/><use xlink:href="#bQ" x="501.828" y="762.271"/><use xlink:href="#bR" x="509.02" y="762.271"/></g><g><use xlink:href="#bS" x="513.167" y="762.271"/><use xlink:href="#S" x="518.017" y="762.271"/></g><g><use xlink:href="#bT" x="242.422" y="470.791"/><use xlink:href="#aE" x="251.411" y="470.791"/><use xlink:href="#bU" x="260.4" y="470.791"/></g><g><use xlink:href="#E" x="242.422" y="487.011"/><use xlink:href="#F" x="244.795" y="487.011"/><use xlink:href="#bV" x="246.872" y="487.011"/><use xlink:href="#H" x="254.063" y="487.011"/><use xlink:href="#I" x="261.255" y="487.011"/><use xlink:href="#J" x="268.446" y="487.011"/></g><g><use xlink:href="#E" x="242.422" y="501.993"/><use xlink:href="#F" x="244.795" y="501.993"/><use xlink:href="#K" x="246.872" y="501.993"/><use xlink:href="#bW" x="254.063" y="501.993"/><use xlink:href="#bV" x="261.255" y="501.993"/><use xlink:href="#bX" x="268.446" y="501.993"/><use xlink:href="#F" x="275.637" y="501.993"/><use xlink:href="#W" x="277.715" y="501.993"/><use xlink:href="#bY" x="284.906" y="501.993"/><use xlink:href="#F" x="292.097" y="501.993"/><use xlink:href="#T" x="294.175" y="501.993"/><use xlink:href="#U" x="298.873" y="501.993"/><use xlink:href="#bO" x="303.867" y="501.993"/><use xlink:href="#V" x="308.837" y="501.993"/><use xlink:href="#bH" x="314.047" y="501.993"/><use xlink:href="#F" x="315.892" y="501.993"/><use xlink:href="#bZ" x="317.97" y="501.993"/><use xlink:href="#ca" x="321.981" y="501.993"/><use xlink:href="#aH" x="323.875" y="501.993"/></g><g><use xlink:href="#cb" x="327.534" y="501.993"/><use xlink:href="#cc" x="331.673" y="501.993"/><use xlink:href="#cd" x="336.252" y="501.993"/><use xlink:href="#ca" x="339.703" y="501.993"/><use xlink:href="#cc" x="341.597" y="501.993"/><use xlink:href="#ce" x="346.175" y="501.993"/><use xlink:href="#F" x="350.354" y="501.993"/><use xlink:href="#aM" x="352.432" y="501.993"/><use xlink:href="#aN" x="359.623" y="501.993"/></g><g><use xlink:href="#A" x="242.422" y="716.087"/><use xlink:href="#cf" x="251.411" y="716.087"/><use xlink:href="#cg" x="260.4" y="716.087"/></g><g><use xlink:href="#E" x="242.422" y="732.307"/><use xlink:href="#F" x="244.795" y="732.307"/><use xlink:href="#ch" x="246.872" y="732.307"/><use xlink:href="#bN" x="250.843" y="732.307"/><use xlink:href="#ci" x="256.972" y="732.307"/><use xlink:href="#F" x="258.986" y="732.307"/><use xlink:href="#bS" x="261.063" y="732.307"/><use xlink:href="#cj" x="265.913" y="732.307"/><use xlink:href="#cc" x="270.5" y="732.307"/><use xlink:href="#cd" x="275.078" y="732.307"/><use xlink:href="#ck" x="278.53" y="732.307"/><use xlink:href="#cl" x="283.084" y="732.307"/><use xlink:href="#cm" x="285.058" y="732.307"/><use xlink:href="#ca" x="287.711" y="732.307"/><use xlink:href="#cc" x="289.604" y="732.307"/><use xlink:href="#ce" x="294.183" y="732.307"/><use xlink:href="#bH" x="298.362" y="732.307"/><use xlink:href="#F" x="300.207" y="732.307"/><use xlink:href="#af" x="302.285" y="732.307"/><use xlink:href="#ag" x="309.476" y="732.307"/><use xlink:href="#W" x="316.667" y="732.307"/><use xlink:href="#X" x="323.859" y="732.307"/><use xlink:href="#F" x="331.05" y="732.307"/><use xlink:href="#cn" x="333.127" y="732.307"/><use xlink:href="#bv" x="340.319" y="732.307"/><use xlink:href="#co" x="347.51" y="732.307"/><use xlink:href="#aA" x="354.701" y="732.307"/></g><g><use xlink:href="#E" x="242.422" y="747.289"/><use xlink:href="#F" x="244.795" y="747.289"/><use xlink:href="#K" x="246.872" y="747.289"/><use xlink:href="#L" x="254.063" y="747.289"/><use xlink:href="#af" x="261.255" y="747.289"/><use xlink:href="#ag" x="268.446" y="747.289"/><use xlink:href="#cp" x="275.637" y="747.289"/><use xlink:href="#bQ" x="282.829" y="747.289"/><use xlink:href="#S" x="290.02" y="747.289"/><use xlink:href="#F" x="297.211" y="747.289"/><use xlink:href="#cq" x="299.288" y="747.289"/><use xlink:href="#bo" x="306.48" y="747.289"/><use xlink:href="#cr" x="313.671" y="747.289"/><use xlink:href="#bk" x="320.862" y="747.289"/><use xlink:href="#aA" x="328.054" y="747.289"/><use xlink:href="#F" x="335.245" y="747.289"/></g><g><use xlink:href="#F" x="242.422" y="762.271"/><use xlink:href="#F" x="244.499" y="762.271"/><use xlink:href="#bc" x="246.577" y="762.271"/><use xlink:href="#af" x="249.573" y="762.271"/><use xlink:href="#ag" x="256.764" y="762.271"/><use xlink:href="#W" x="263.955" y="762.271"/><use xlink:href="#X" x="271.147" y="762.271"/><use xlink:href="#F" x="278.338" y="762.271"/><use xlink:href="#cn" x="280.415" y="762.271"/><use xlink:href="#cs" x="287.607" y="762.271"/><use xlink:href="#ct" x="294.798" y="762.271"/><use xlink:href="#F" x="301.989" y="762.271"/><use xlink:href="#bC" x="304.067" y="762.271"/><use xlink:href="#aA" x="311.258" y="762.271"/><use xlink:href="#bD" x="318.449" y="762.271"/></g><g fill="#fff"><use xlink:href="#cu" x="42.468" y="54.085"/><use xlink:href="#cv" x="53.255" y="54.085"/><use xlink:href="#cw" x="64.042" y="54.085"/><use xlink:href="#cx" x="67.158" y="54.085"/><use xlink:href="#cy" x="77.945" y="54.085"/></g></svg>