<svg xmlns="http://www.w3.org/2000/svg" xmlns:xlink="http://www.w3.org/1999/xlink" width="793.701" height="1122.52" viewBox="0 0 595.276 841.89" version="1.2"><defs><symbol overflow="visible" id="a"><path d="M2.75-5.469l.578.438-1.25 1.718c.059-.007.113-.015.156-.015.051-.008.094-.016.125-.016.426 0 .797.168 1.11.5.308.324.469.715.469 1.172 0 .48-.176.895-.516 1.234a1.704 1.704 0 0 1-1.25.516c-.48 0-.899-.164-1.25-.5C.566-.762.39-1.164.39-1.625c0-.414.171-.86.515-1.328zm.406 3.844a.976.976 0 0 0-.281-.703.998.998 0 0 0-.719-.297.963.963 0 0 0-.703.297.908.908 0 0 0-.297.687.97.97 0 0 0 .297.72.98.98 0 0 0 .703.28.93.93 0 0 0 .703-.296.91.91 0 0 0 .297-.688zm0 0"/></symbol><symbol overflow="visible" id="b"><path d="M1.75-.75h1.969V0H.172L2-2.219c.184-.215.336-.406.453-.562.121-.164.219-.305.281-.422.133-.207.204-.399.204-.578a.814.814 0 0 0-.266-.61.924.924 0 0 0-.64-.25c-.532 0-.84.317-.923.938H.33C.448-4.805 1.007-5.36 2-5.36c.488 0 .895.152 1.219.453.32.304.484.68.484 1.125 0 .293-.074.582-.219.86-.086.136-.199.304-.343.5-.149.198-.336.433-.563.702zm0 0"/></symbol><symbol overflow="visible" id="d"><path d="M1.453 0h.406l1.422-4.375h-.375l-.781 2.516c-.156.53-.281.937-.453 1.468H1.64c-.172-.53-.282-.937-.454-1.468l-.78-2.516H.03zm0 0"/></symbol><symbol overflow="visible" id="e"><path d="M.75-.156c.156 0 .313-.11.313-.313A.317.317 0 0 0 .75-.797a.317.317 0 0 0-.313.328c0 .203.157.313.313.313zm0 0"/></symbol><symbol overflow="visible" id="g"><path d="M1.844-3.953h1.078v-.281H.406v.28h1.125v.563c0 1.11-.484 2.016-1.218 2.407l.203.25c.578-.329 1-.954 1.187-1.75.188.718.578 1.265 1.125 1.578l.203-.25c-.734-.375-1.187-1.235-1.187-2.235zm2.687-.953v2.203h-.86v-2.078H3.36V.125h.313v-2.547h.86V.422h.312v-5.328zm0 0"/></symbol><symbol overflow="visible" id="h"><path d="M3.469-2.5c-.75.156-1.406.188-2.453.188H.937v-1.844h2.016v-.282H.61v2.407h.407c1.078 0 1.718-.047 2.5-.188zM1.516-1.422h-.329V.281h3.516V.016H1.516zm2.937-1.844v-1.656h-.328v3.875h.328v-1.937h.828v-.282zm0 0"/></symbol><symbol overflow="visible" id="i"><path d="M2.078-4.5C1.25-4.5.672-4.016.672-3.281c0 .719.578 1.219 1.406 1.219s1.406-.5 1.406-1.22c0-.734-.578-1.218-1.406-1.218zm0 .281c.64 0 1.094.39 1.094.938 0 .547-.453.937-1.094.937-.64 0-1.094-.39-1.094-.937s.454-.938 1.094-.938zm2.219-.687V.422h.312v-5.328zM.422-.796c.969 0 2.297 0 3.531-.235l-.031-.235c-1.188.172-2.547.188-3.547.188zm0 0"/></symbol><symbol overflow="visible" id="j"><path d="M.734-1.734v-.547h.922v.547zm0-1.297h.922v.515H.734zm2.157 0v.515h-.97v-.515zm0 1.297h-.97v-.547h.97zm2.703-1.829H4.28c.016-.453.016-.906.016-1.374h-.281c0 .468 0 .921-.016 1.375h-.797v.265H4c-.063 1.172-.234 2.235-.813 2.985v-.063c-.421.047-.859.094-1.265.14v-.593h1.234v-.235H1.922v-.453H3.14v-1.75H1.92v-.453h1.345v-.25H1.922V-4.5c.469-.047.89-.11 1.219-.188l-.172-.218c-.594.125-1.703.234-2.594.281.031.063.063.172.078.234.375-.015.797-.046 1.203-.078v.5H.281v.25h1.375v.453H.47v1.75h1.187v.454H.47v.234h1.187v.625c-.515.062-.984.11-1.36.14l.048.266C1.063.125 2.063 0 3.03-.109c-.14.14-.281.265-.437.375.062.046.172.125.219.187 1.109-.797 1.374-2.156 1.453-3.75h1.03C5.22-.953 5.157-.125 5 .063c-.063.062-.11.078-.219.078-.11 0-.406 0-.718-.032a.993.993 0 0 1 .093.282c.266.015.563.015.719.015.172-.015.281-.047.375-.187.188-.25.266-1.063.344-3.625zm0 0"/></symbol><symbol overflow="visible" id="k"><path d="M5.094-4.906c-.39.125-1.047.234-1.64.312l-.22-.047c-.109.422-.312.985-.578 1.344.063.031.172.094.219.14.234-.312.422-.78.563-1.187.624-.062 1.374-.187 1.859-.36zm-.25.531c.25.36.547.844.672 1.14l.234-.109c-.125-.297-.422-.765-.688-1.125zm-.407 1.016a3.494 3.494 0 0 0-.296-.891l-.25.047c.125.297.234.672.265.922zm-1.593.28h-1.14v-.483h.952v-.235h-.953v-.453h1.031v-.234h-1.03V-5h-.282v.516h-1v.234h1v.453H.516v.235h.906v.484H.282v.234h2.562zM1.688-1.25v-.953h.656v.953zm-.86-.953h.625v.953H.828zm1.781-.235H.563V.438h.265V-1h1.516V.11c0 .046-.016.077-.078.077H1.78c.032.063.078.172.094.235.313 0 .484 0 .594-.047.11-.047.14-.125.14-.266zm2.5 1.25H4.25v-.703h.86zm-.859-1.64h.86v.687h-.86zm1.516.687h-.391v-.937H3.094v.25h.89v.687h-1.25v.25h1.25v.704h-.937v.25h.937V.077c0 .063-.03.078-.109.094h-.703a.956.956 0 0 1 .11.266c.39 0 .64 0 .78-.047.141-.047.188-.141.188-.329v-1h.86v.282h.265v-1.235h.39zm0 0"/></symbol><symbol overflow="visible" id="l"><path d="M1.438-3.422h.609v-.281h-.61V-5h-.28v1.297H.343v.281h.765C.953-2.532.594-1.516.22-.984c.062.062.14.171.172.234.296-.438.578-1.188.765-1.922V.422h.282v-2.828c.187.203.406.484.5.625l.171-.235c-.093-.125-.5-.578-.671-.718zm1.937-1.031v.484h-.953v-.484zm-.953 1.219v-.5h.953v.5zm1.203.25v-1.72H2.156V.454h.266v-3.437zm.578 1.828c.078-.14.156-.297.25-.485l-.187-.078c-.047.14-.157.344-.22.485zm-1.016-.485c.094.157.172.344.204.485l.171-.063c-.015-.125-.109-.328-.203-.468zm-.156-.187h.672v.766h-.672zm1.61.766h-.72v-.766h.72zm.218.203v-1.172h-.921v-.328h1.046v-.235H3.938v-.312h-.235v.312H2.688v.235h1.015v.328h-.89V-.86h.765a2.768 2.768 0 0 1-.969.843c.063.047.141.125.188.172.297-.172.64-.5.906-.828v.938h.235v-.954c.25.297.593.625.843.797.047-.046.125-.14.188-.187a3.025 3.025 0 0 1-.907-.781zm-.593-2.375v-.5h1v.5zm1-1.22v.485h-1v-.484zm.265-.25H4.016v1.72h1.25V.094c0 .062-.016.093-.079.093h-.53c.03.063.077.172.093.25.313 0 .516-.015.625-.046.125-.047.156-.125.156-.313zm0 0"/></symbol><symbol overflow="visible" id="m"><path d="M.36 0h3.5v-.422H2.046c-.297 0-.64.031-.953.047C2.64-1.813 3.578-3.031 3.578-4.25c0-1.016-.594-1.672-1.61-1.672-.702 0-1.187.344-1.64.828l.297.282c.344-.407.797-.72 1.297-.72.828 0 1.187.563 1.187 1.298 0 1.046-.78 2.25-2.75 3.953zm0 0"/></symbol><symbol overflow="visible" id="n"><path d="M.734 0h3v-.406H2.516v-5.422H2.14c-.266.172-.625.297-1.11.375v.312h1.016v4.735H.734zm0 0"/></symbol><symbol overflow="visible" id="o"><path d="M1-.203a.407.407 0 0 0 .406-.422c0-.281-.203-.438-.406-.438-.219 0-.406.157-.406.438 0 .266.187.422.406.422zm0 0"/></symbol><symbol overflow="visible" id="p"><path d="M2.14.11c1.047 0 1.704-1 1.704-3.047 0-2.016-.656-2.985-1.703-2.985-1.063 0-1.72.969-1.72 2.984C.422-.89 1.079.11 2.142.11zm0-.391c-.765 0-1.25-.89-1.25-2.656 0-1.72.485-2.594 1.25-2.594.75 0 1.25.875 1.25 2.593 0 1.766-.5 2.657-1.25 2.657zm0 0"/></symbol><symbol overflow="visible" id="q"><path d="M2.016.11c.937 0 1.828-.72 1.828-1.985 0-1.281-.766-1.86-1.735-1.86-.39 0-.687.11-.968.282l.171-1.953h2.235v-.422H.89L.687-3.156 1-2.984c.328-.22.61-.36 1.031-.36.813 0 1.328.563 1.328 1.485C3.36-.906 2.734-.297 2-.297 1.25-.297.812-.625.484-.984L.22-.656c.375.375.906.765 1.797.765zm0 0"/></symbol><symbol overflow="visible" id="r"><path d="M1.64 0h.5c.094-2.281.376-3.734 1.75-5.547v-.281H.39v.422h2.938C2.172-3.796 1.734-2.328 1.641 0zm0 0"/></symbol><symbol overflow="visible" id="t"><path d="M.844 2.219h.344v-8.86H.844zm0 0"/></symbol><symbol overflow="visible" id="u"><path d="M2.438-5.266h1.437v-.359H.547v.36h1.5v.765c0 1.469-.656 2.656-1.64 3.203l.28.328c.782-.453 1.329-1.265 1.579-2.344.234.954.78 1.688 1.5 2.094l.265-.328c-.968-.5-1.593-1.625-1.593-2.953zM6.03-6.53v2.937H4.875v-2.765h-.406V.17h.406v-3.39h1.156V.562h.407V-6.53zm0 0"/></symbol><symbol overflow="visible" id="v"><path d="M4.625-3.328c-1.016.203-1.875.25-3.281.25h-.11v-2.469h2.688v-.36H.812v3.204h.532c1.437 0 2.297-.063 3.328-.266zm-2.61 1.437h-.421V.391h4.672V.03h-4.25zm3.907-2.437v-2.219H5.5v5.156h.422v-2.578h1.11v-.36zm0 0"/></symbol><symbol overflow="visible" id="w"><path d="M5.797.094H2.219V-.953h3.578zm0-1.39H2.219v-1H1.78v2.75H6.22v-2.75h-.422zM3.53-3.329H1.266v-1.297H3.53zm2.266-3.219v1.828h-1.86v-1.453h-.406v1.203H1.266v-1.203H.844v3.203h3.094v-1.39h1.859v1.703h.437v-3.89zm0 0"/></symbol><symbol overflow="visible" id="x"><path d="M6.219-6.516h-.422v5.22h.422zm-5.157 2.22c0-.766.594-1.345 1.391-1.345.781 0 1.39.579 1.39 1.344 0 .766-.609 1.344-1.39 1.344-.797 0-1.39-.578-1.39-1.344zm3.188 0c0-1.016-.766-1.72-1.797-1.72-1.047 0-1.797.704-1.797 1.72 0 1 .75 1.718 1.797 1.718 1.031 0 1.797-.719 1.797-1.719zM2.187.03v-1.875h-.421V.391h4.687V.03zm0 0"/></symbol><symbol overflow="visible" id="y"><path d="M.89-5.797v4.516h3.172v-4.516zm2.766.344v3.812h-2.36v-3.812zm2.125-1.078V.562h.422V-6.53zm0 0"/></symbol><symbol overflow="visible" id="z"><path d="M1.125-1.578v-1.813h2.203v-2.328H.688v.36h2.234v1.609H.703v2.531h.453c.89 0 1.703-.031 2.75-.218l-.047-.36c-1.015.188-1.828.219-2.703.219zm4.89-4.969v2.89H4.798v-2.702H4.39V.17h.406v-3.468h1.219v3.86h.421v-7.11zm0 0"/></symbol><symbol overflow="visible" id="A"><path d="M2.766-5.984c-1.11 0-1.875.656-1.875 1.609 0 .969.765 1.625 1.875 1.625 1.093 0 1.859-.656 1.859-1.625 0-.953-.766-1.61-1.86-1.61zm0 .359c.843 0 1.453.531 1.453 1.25 0 .734-.61 1.266-1.453 1.266-.844 0-1.47-.532-1.47-1.266 0-.719.626-1.25 1.47-1.25zm2.953-.906V.562h.422V-6.53zM.562-1.063c1.297 0 3.063 0 4.688-.296l-.031-.329c-1.578.25-3.39.25-4.719.25zm0 0"/></symbol><symbol overflow="visible" id="B"><path d="M4.672-5.703H2.797v-.875h-.422v.875H.485v.344h4.187zM1.297-3.641c0-.546.531-.921 1.281-.921.766 0 1.266.375 1.266.921 0 .547-.5.922-1.266.922-.75 0-1.281-.375-1.281-.922zm2.953 0c0-.78-.672-1.25-1.672-1.25-1 0-1.672.47-1.672 1.25 0 .782.672 1.266 1.672 1.266 1 0 1.672-.484 1.672-1.266zM1.375-1.312H5.5V.546h.422v-2.219H1.375zM7.031-4.5h-1.11v-2.047H5.5v4.438h.422v-2.032h1.11zm0 0"/></symbol><symbol overflow="visible" id="C"><path d="M.984-4.328c0-.766.594-1.36 1.391-1.36s1.39.594 1.39 1.36c0 .781-.593 1.375-1.39 1.375-.797 0-1.39-.594-1.39-1.375zM5.797-5v1.328H4.063c.062-.187.109-.422.109-.656 0-.234-.047-.469-.125-.672zm0 1.688v2.046h.437V-6.53h-.437v1.172H3.859a1.862 1.862 0 0 0-1.484-.704c-1.047 0-1.797.72-1.797 1.735 0 1.031.75 1.734 1.797 1.734.64 0 1.172-.265 1.484-.719zM2.219.03v-1.843h-.422V.39h4.64V.03zm0 0"/></symbol><symbol overflow="visible" id="D"><path d="M6.86-2.984H5.75c.203-1.047.203-1.797.203-2.454v-.609H1.297v.36h4.25v.25c0 .656 0 1.421-.234 2.453H.452v.359h2.985V.563h.421v-3.188h3zm0 0"/></symbol><symbol overflow="visible" id="E"><path d="M2.422-5.281h1.422v-.36H.547v.36h1.469v.828c0 1.344-.672 2.656-1.625 3.219l.28.312c.735-.453 1.313-1.36 1.563-2.406.235.969.797 1.797 1.516 2.25l.266-.328c-.938-.532-1.594-1.797-1.594-3.047zm2.172 1.36H3.28v.374h1.313V.172H5v-6.516h-.406zm1.422-2.61V.562h.421V-6.53zm0 0"/></symbol><symbol overflow="visible" id="F"><path d="M4.984-5.61H3.031v-.937H2.61v.938H.656v.343h4.328zM1.563-3.468c0-.578.5-.969 1.25-.969s1.28.391 1.28.97c0 .546-.53.952-1.28.952s-1.25-.406-1.25-.953zm1.484 1.281c.875-.078 1.437-.546 1.437-1.28 0-.798-.671-1.313-1.671-1.313-.985 0-1.657.515-1.657 1.312 0 .735.563 1.219 1.453 1.281v.876c-.75.03-1.468.046-2.109.046l.063.36c1.343 0 3.093-.016 4.687-.281L5.219-1.5c-.688.094-1.438.14-2.172.172zM5.719-6.53V.547h.422v-7.078zm0 0"/></symbol><symbol overflow="visible" id="G"><path d="M1.047-3.25c1.062-.172 2.203-.625 2.61-1.484.405.859 1.546 1.312 2.609 1.484l.14-.344C5.25-3.75 3.875-4.359 3.875-5.375h2.313v-.36H3.874v-.843h-.422v.844H1.141v.359h2.296c0 1.016-1.359 1.625-2.53 1.781zm.672 1.703h-.422V.391h4.86V.03H1.718zM.437-2.734v.343H3.47v1.563h.422v-1.563h2.984v-.343zm0 0"/></symbol><symbol overflow="visible" id="H"><path d="M4.625-4.516H3.359c.063-.359.11-.718.11-1.078H.766v.36h2.28C2.954-3.72 2.095-2.266.5-1.313L.766-1c1.343-.828 2.156-1.938 2.5-3.156h1.359v1.437H3.156v.36h1.469V.17h.406v-6.5h-.406zM6.031-6.53V.562h.407V-6.53zm0 0"/></symbol><symbol overflow="visible" id="I"><path d="M2.656-5.438h1.969v2.5H2.656zM3.86-.734v-1.844h2.375v-.36H5.047v-2.5h1.187v-.359H1.047v.36H2.25v2.5H1.062v.359h2.375v1.844H.454v.359h6.438v-.36zm0 0"/></symbol><symbol overflow="visible" id="J"><path d="M4.484-3.297c-1.14.188-2.062.235-3.203.235h-.093v-1.25h2.671v-1.844H.75v.36h2.688v1.14H.765v1.953h.515c1.157 0 2.078-.047 3.25-.235zM2.078-1.578h3.735V.094H2.078zM1.672.453h4.562v-2.39H1.672zm4.125-6.969v1.641H4.344v.36h1.453v2.156h.437v-4.157zm0 0"/></symbol></defs><g fill="#898989"><use xlink:href="#a" x="28.312" y="819.169"/><use xlink:href="#b" x="32.591" y="819.169"/></g><g fill="#898989"><use xlink:href="#c" x="36.906" y="819.169"/><use xlink:href="#c" x="38.996" y="819.169"/></g><g fill="#595757"><use xlink:href="#d" x="513.32" y="818.993"/><use xlink:href="#e" x="516.497" y="818.993"/><use xlink:href="#f" x="517.881" y="818.993"/><use xlink:href="#g" x="519.439" y="818.993"/><use xlink:href="#h" x="524.832" y="818.993"/><use xlink:href="#i" x="530.226" y="818.993"/><use xlink:href="#f" x="535.619" y="818.993"/><use xlink:href="#j" x="537.177" y="818.993"/><use xlink:href="#k" x="543.05" y="818.993"/><use xlink:href="#l" x="548.923" y="818.993"/><use xlink:href="#f" x="554.796" y="818.993"/></g><use xlink:href="#m" x="28.312" y="47.125"/><use xlink:href="#n" x="32.427" y="47.125"/><use xlink:href="#o" x="36.542" y="47.125"/><use xlink:href="#p" x="38.388" y="47.125"/><use xlink:href="#q" x="42.503" y="47.125"/><use xlink:href="#o" x="46.618" y="47.125"/><use xlink:href="#p" x="48.464" y="47.125"/><use xlink:href="#r" x="52.579" y="47.125"/><use xlink:href="#s" x="56.694" y="47.125"/><use xlink:href="#t" x="58.771" y="47.125"/><use xlink:href="#s" x="60.641" y="47.125"/><use xlink:href="#u" x="62.718" y="47.125"/><use xlink:href="#v" x="69.909" y="47.125"/><use xlink:href="#w" x="77.101" y="47.125"/><use xlink:href="#x" x="84.292" y="47.125"/><use xlink:href="#s" x="91.483" y="47.125"/><use xlink:href="#y" x="93.561" y="47.125"/><use xlink:href="#z" x="100.752" y="47.125"/><use xlink:href="#A" x="107.943" y="47.125"/><use xlink:href="#B" x="115.134" y="47.125"/><use xlink:href="#C" x="122.326" y="47.125"/><use xlink:href="#D" x="129.517" y="47.125"/><use xlink:href="#u" x="136.708" y="47.125"/><use xlink:href="#v" x="143.899" y="47.125"/><use xlink:href="#s" x="151.091" y="47.125"/><use xlink:href="#E" x="153.168" y="47.125"/><use xlink:href="#q" x="160.359" y="47.125"/><use xlink:href="#F" x="164.474" y="47.125"/><use xlink:href="#s" x="171.666" y="47.125"/><use xlink:href="#G" x="173.743" y="47.125"/><use xlink:href="#H" x="180.934" y="47.125"/><use xlink:href="#I" x="188.126" y="47.125"/><use xlink:href="#J" x="195.317" y="47.125"/></svg>