<svg xmlns="http://www.w3.org/2000/svg" xmlns:xlink="http://www.w3.org/1999/xlink" width="793.701" height="1122.52" viewBox="0 0 595.276 841.89" version="1.2"><defs><symbol overflow="visible" id="a"><path d="M2.75-5.469l.578.438-1.25 1.718c.059-.007.113-.015.156-.015.051-.008.094-.016.125-.016.426 0 .797.168 1.11.5.308.324.469.715.469 1.172 0 .48-.176.895-.516 1.234a1.704 1.704 0 0 1-1.25.516c-.48 0-.899-.164-1.25-.5C.566-.762.39-1.164.39-1.625c0-.414.171-.86.515-1.328zm.406 3.844a.976.976 0 0 0-.281-.703.998.998 0 0 0-.719-.297.963.963 0 0 0-.703.297.908.908 0 0 0-.297.687.97.97 0 0 0 .297.72.98.98 0 0 0 .703.28.93.93 0 0 0 .703-.296.91.91 0 0 0 .297-.688zm0 0"/></symbol><symbol overflow="visible" id="b"><path d="M1.89-4.531H.985l.438-.75h1.266V0H1.89zm0 0"/></symbol><symbol overflow="visible" id="c"><path d="M1.797-4h1.14v-.188H.422V-4h1.187v.688c0 1.124-.53 2-1.265 2.374l.14.157c.594-.328 1.047-.953 1.22-1.813.187.75.624 1.328 1.171 1.64l.14-.155c-.703-.36-1.218-1.204-1.218-2.204zm2.797-.89v2.234h-.969V-4.75h-.203V.11h.203v-2.563h.969v2.86h.203v-5.298zm0 0"/></symbol><symbol overflow="visible" id="d"><path d="M3.484-2.438c-.78.157-1.437.188-2.453.188H.844v-1.969h2.11v-.187H.64v2.343h.39c1.032 0 1.688-.046 2.5-.203zM1.422-1.421h-.203V.266h3.468V.078H1.422zm2.984-1.766v-1.718h-.203v3.843h.203v-1.953h.875v-.171zm0 0"/></symbol><symbol overflow="visible" id="e"><path d="M4.422.14h-2.86v-.859h2.86zm0-1.046h-2.86v-.813h-.187V.313h3.25V-1.72h-.203zM2.734-2.437H.86v-1.047h1.875zm1.704-2.454V-3.5H2.921v-1.11h-.188v.954H.86v-.953H.656v2.359h2.266v-1.063h1.515v1.297h.188V-4.89zm0 0"/></symbol><symbol overflow="visible" id="f"><path d="M4.625-4.89h-.188v3.937h.188zM.703-3.235c0-.594.485-1.079 1.14-1.079.641 0 1.126.485 1.126 1.079 0 .609-.485 1.093-1.125 1.093-.657 0-1.14-.484-1.14-1.093zm2.453 0c0-.735-.547-1.266-1.312-1.266-.782 0-1.328.531-1.328 1.266 0 .75.546 1.265 1.328 1.265.765 0 1.312-.515 1.312-1.265zM1.546.078v-1.453H1.36v1.64h3.47V.079zm0 0"/></symbol><symbol overflow="visible" id="h"><path d="M.703-4.328V-1h2.313v-3.328zm2.125.172v2.984H.891v-2.984zm1.594-.735V.406h.203V-4.89zm0 0"/></symbol><symbol overflow="visible" id="i"><path d="M.75-1.14v-1.454H2.5v-1.672H.547v.188h1.765v1.297H.563V-.97h.329c.671 0 1.28-.031 2.078-.172l-.016-.171c-.781.14-1.406.171-2.062.171zm3.844-3.75v2.171H3.578V-4.75h-.203V.11h.203v-2.641h1.016V.406h.203V-4.89zm0 0"/></symbol><symbol overflow="visible" id="j"><path d="M2.094-4.469c-.828 0-1.39.469-1.39 1.188 0 .703.562 1.187 1.39 1.187.812 0 1.375-.484 1.375-1.187 0-.719-.563-1.188-1.375-1.188zm0 .172c.687 0 1.172.438 1.172 1.016 0 .562-.485 1-1.172 1-.703 0-1.188-.438-1.188-1 0-.578.485-1.016 1.188-1.016zm2.265-.594V.406h.204V-4.89zM.438-.844c.968 0 2.312 0 3.546-.234l-.03-.156c-1.188.203-2.563.203-3.563.203zm0 0"/></symbol><symbol overflow="visible" id="k"><path d="M3.516-4.234h-1.47v-.688H1.86v.688H.391v.171h3.125zm-2.61 1.5c0-.454.406-.766 1.047-.766.625 0 1.047.313 1.047.766 0 .437-.422.75-1.047.75-.64 0-1.047-.313-1.047-.75zm2.281 0c0-.579-.5-.938-1.234-.938-.75 0-1.234.36-1.234.938 0 .562.484.921 1.234.921.734 0 1.234-.359 1.234-.921zM1.063-1.063h3.14v1.47h.203v-1.641H1.063zm4.203-2.28h-.86v-1.548h-.203v3.297h.203v-1.562h.86zm0 0"/></symbol><symbol overflow="visible" id="l"><path d="M.64-3.25c0-.61.485-1.094 1.141-1.094.657 0 1.14.485 1.14 1.094 0 .61-.483 1.11-1.14 1.11-.656 0-1.14-.5-1.14-1.11zm3.797-.547v1.078H3a1.2 1.2 0 0 0 .11-.531A1.55 1.55 0 0 0 3-3.797zm0 1.25v1.61h.188v-3.954h-.188v.922H2.891c-.22-.344-.625-.562-1.11-.562-.765 0-1.328.515-1.328 1.281 0 .766.563 1.281 1.328 1.281.5 0 .907-.218 1.125-.578zM1.563.078v-1.437h-.187V.266h3.438V.078zm0 0"/></symbol><symbol overflow="visible" id="m"><path d="M5.14-2.219h-.874c.171-.781.171-1.344.171-1.844v-.453H1.017v.188h3.218v.266c0 .5 0 1.062-.171 1.843H.358v.172h2.297V.406h.188v-2.453H5.14zm0 0"/></symbol><symbol overflow="visible" id="o"><path d="M.719-1.953c.625-.219 1.187-.688 1.406-1.313.234.594.781 1.032 1.422 1.25l.14-.25c-.75-.234-1.406-.843-1.406-1.609v-.031H3.61v-.266H2.281v-.703H1.97v.703H.672v.266h1.297v.031c0 .797-.657 1.422-1.407 1.672zm1.562-.188H1.97v1.094C1.39-1.03.844-1.03.375-1.03l.047.281c.969 0 2.297 0 3.515-.219l-.015-.25c-.531.094-1.094.125-1.64.157zm2.016-2.765V.422h.312v-5.328zm0 0"/></symbol><symbol overflow="visible" id="p"><path d="M4.672-4.906h-.313v3.922h.313zM3.516-2.141c-.75-.296-1.391-1.046-1.391-1.921v-.547h-.313v.546c0 .907-.625 1.704-1.375 2.016l.188.266c.61-.282 1.14-.86 1.344-1.578a2.462 2.462 0 0 0 1.375 1.468zM1.64.016v-1.36h-.313V.281H4.86V.016zm0 0"/></symbol><symbol overflow="visible" id="q"><path d="M2.75.156c-.906 0-1.5-.265-1.5-.703 0-.422.594-.687 1.5-.687s1.484.265 1.484.687c0 .438-.578.703-1.484.703zm0-1.64c-1.125 0-1.813.343-1.813.937 0 .625.688.953 1.813.953S4.563.078 4.563-.547c0-.594-.688-.937-1.813-.937zm.14-.735v-.703h1.688v-.281H1.266v-1.188h3.28v-.265H.954v1.734h1.64v.703H.344v.281h4.813v-.28zm0 0"/></symbol><symbol overflow="visible" id="r"><path d="M3.516-4.25H2.094v-.719H1.78v.719H.36v.266h3.157zM.984-2.734c0-.391.391-.672.954-.672.578 0 .953.281.953.672 0 .406-.375.687-.954.687-.562 0-.953-.281-.953-.687zm2.204 0c0-.579-.5-.922-1.25-.922-.766 0-1.266.344-1.266.922 0 .578.5.937 1.265.937.75 0 1.25-.36 1.25-.937zM2.796.14c-.844 0-1.39-.235-1.39-.641s.546-.64 1.39-.64c.844 0 1.39.234 1.39.64s-.546.64-1.39.64zm0-1.547c-1.063 0-1.703.328-1.703.906 0 .578.64.906 1.703.906C3.859.406 4.5.078 4.5-.5c0-.578-.64-.906-1.703-.906zM5.28-3.625v-.266h-.828v-1.015h-.328v3.453h.328V-2.5h.828v-.266h-.828v-.859zm0 0"/></symbol><symbol overflow="visible" id="s"><path d="M1.266-3.203H4.25v1.11H1.266zm1.64 2.64v-1.25h1.656v-2.703H4.25v1.032H1.266v-1.032H.937v2.704h1.657v1.25H.344v.265h4.828v-.266zm0 0"/></symbol><symbol overflow="visible" id="t"><path d="M4.188-3.781c0 .64 0 1.36-.188 2.36l.328.046c.188-1.047.188-1.766.188-2.406v-.531H.859v.25h3.329zM2.625-.671V-2.61h-.313v1.937H.345v.281h4.812v-.28zm0 0"/></symbol><symbol overflow="visible" id="u"><path d="M2.125-4.422h-.328v1.063c0 .984-.719 1.984-1.422 2.375l.203.25c.578-.344 1.156-1.079 1.39-1.907.22.797.813 1.485 1.407 1.813l.188-.266c-.704-.36-1.438-1.312-1.438-2.265zm2.234-.484v1.89H2.984v.266H4.36V.422h.329v-5.328zm0 0"/></symbol><symbol overflow="visible" id="v"><path d="M1.453 0h.406l1.422-4.375h-.375l-.781 2.516c-.156.53-.281.937-.453 1.468H1.64c-.172-.53-.282-.937-.454-1.468l-.78-2.516H.03zm0 0"/></symbol><symbol overflow="visible" id="w"><path d="M1.781.078c.782 0 1.453-.61 1.453-1.672 0-1.062-.671-1.687-1.453-1.687-.765 0-1.437.625-1.437 1.687C.344-.53 1.016.078 1.78.078zm0-.297C1.156-.219.703-.78.703-1.594c0-.812.453-1.375 1.078-1.375s1.094.563 1.094 1.375c0 .813-.469 1.375-1.094 1.375zm0 0"/></symbol><symbol overflow="visible" id="x"><path d="M1.031.078c.11 0 .172-.015.235-.031l-.063-.281c-.062.015-.094.015-.11.015-.077 0-.14-.062-.14-.218v-4.329h-.36v4.297c0 .36.141.547.438.547zm0 0"/></symbol><symbol overflow="visible" id="y"><path d="M.75-.156c.156 0 .313-.11.313-.313A.317.317 0 0 0 .75-.797a.317.317 0 0 0-.313.328c0 .203.157.313.313.313zm0 0"/></symbol><symbol overflow="visible" id="z"><path d="M.547 0h2.265v-.313h-.921v-4.062h-.282c-.203.125-.468.219-.828.281v.235h.766v3.546h-1zm0 0"/></symbol><symbol overflow="visible" id="A"><path d="M.36 0h3.5v-.422H2.046c-.297 0-.64.031-.953.047C2.64-1.813 3.578-3.031 3.578-4.25c0-1.016-.594-1.672-1.61-1.672-.702 0-1.187.344-1.64.828l.297.282c.344-.407.797-.72 1.297-.72.828 0 1.187.563 1.187 1.298 0 1.046-.78 2.25-2.75 3.953zm0 0"/></symbol><symbol overflow="visible" id="B"><path d="M.734 0h3v-.406H2.516v-5.422H2.14c-.266.172-.625.297-1.11.375v.312h1.016v4.735H.734zm0 0"/></symbol><symbol overflow="visible" id="C"><path d="M1-.203a.407.407 0 0 0 .406-.422c0-.281-.203-.438-.406-.438-.219 0-.406.157-.406.438 0 .266.187.422.406.422zm0 0"/></symbol><symbol overflow="visible" id="D"><path d="M2.14.11c1.047 0 1.704-1 1.704-3.047 0-2.016-.656-2.985-1.703-2.985-1.063 0-1.72.969-1.72 2.984C.422-.89 1.079.11 2.142.11zm0-.391c-.765 0-1.25-.89-1.25-2.656 0-1.72.485-2.594 1.25-2.594.75 0 1.25.875 1.25 2.593 0 1.766-.5 2.657-1.25 2.657zm0 0"/></symbol><symbol overflow="visible" id="E"><path d="M.688-2.047l1.578-2.312c.171-.266.328-.547.468-.813h.032c-.016.281-.047.703-.047.969v2.156zm3.312 0h-.828v-3.781h-.453L.156-1.953v.297H2.72V0h.453v-1.656H4zm0 0"/></symbol><symbol overflow="visible" id="F"><path d="M2-2.61c-.813 0-1.172-.609-1.172-1.453 0-.843.469-1.484 1.11-1.484.906 0 1.375.813 1.421 2.078-.437.61-.937.86-1.359.86zM.484-.452c.313.328.72.562 1.282.562 1.062 0 2.046-.89 2.046-3.328 0-1.765-.75-2.703-1.874-2.703-.844 0-1.563.766-1.563 1.86 0 1.187.594 1.828 1.563 1.828.546 0 1.046-.313 1.421-.782C3.313-1 2.594-.296 1.781-.296c-.406 0-.75-.157-1.015-.47zm0 0"/></symbol><symbol overflow="visible" id="H"><path d="M.844 2.219h.344v-8.86H.844zm0 0"/></symbol><symbol overflow="visible" id="I"><path d="M2.422-5.281h1.422v-.36H.547v.36h1.469v.828c0 1.344-.672 2.656-1.625 3.219l.28.312c.735-.453 1.313-1.36 1.563-2.406.235.969.797 1.797 1.516 2.25l.266-.328c-.938-.532-1.594-1.797-1.594-3.047zm2.172 1.36H3.28v.374h1.313V.172H5v-6.516h-.406zm1.422-2.61V.562h.421V-6.53zm0 0"/></symbol><symbol overflow="visible" id="J"><path d="M4.984-5.61H3.031v-.937H2.61v.938H.656v.343h4.328zM1.563-3.468c0-.578.5-.969 1.25-.969s1.28.391 1.28.97c0 .546-.53.952-1.28.952s-1.25-.406-1.25-.953zm1.484 1.281c.875-.078 1.437-.546 1.437-1.28 0-.798-.671-1.313-1.671-1.313-.985 0-1.657.515-1.657 1.312 0 .735.563 1.219 1.453 1.281v.876c-.75.03-1.468.046-2.109.046l.063.36c1.343 0 3.093-.016 4.687-.281L5.219-1.5c-.688.094-1.438.14-2.172.172zM5.719-6.53V.547h.422v-7.078zm0 0"/></symbol><symbol overflow="visible" id="K"><path d="M2.688-5.89H2.28v1.421c0 1.282-.969 2.64-1.89 3.14l.25.345c.78-.438 1.546-1.407 1.843-2.5.313 1.03 1.079 1.921 1.844 2.343l.266-.328c-.922-.484-1.907-1.765-1.907-3zm4.406 2.312h-1.25v-2.969h-.422v7.11h.422V-3.22h1.25zm0 0"/></symbol><symbol overflow="visible" id="L"><path d="M5.781-6.531V.562h.422V-6.53zm-3.265.578C1.484-5.953.75-5 .75-3.516c0 1.485.734 2.438 1.766 2.438 1.03 0 1.75-.953 1.75-2.438 0-1.484-.72-2.437-1.75-2.437zm0 .375c.796 0 1.343.844 1.343 2.062 0 1.204-.546 2.063-1.343 2.063-.797 0-1.36-.86-1.36-2.063 0-1.218.563-2.062 1.36-2.062zm0 0"/></symbol><symbol overflow="visible" id="M"><path d="M.984-4.344c0-.765.594-1.343 1.391-1.343.781 0 1.39.578 1.39 1.343C3.766-3.578 3.157-3 2.376-3c-.797 0-1.39-.578-1.39-1.344zm4.813.188v2.875h.437v-5.25h-.437v2.015h-1.64c-.079-.906-.813-1.546-1.782-1.546-1.047 0-1.797.703-1.797 1.718 0 1.016.75 1.719 1.797 1.719.969 0 1.688-.625 1.781-1.531zM2.219.03v-1.843h-.422V.39h4.64V.03zm0 0"/></symbol><symbol overflow="visible" id="N"><path d="M6.5-2.844c-1-.203-2.64-1.281-2.64-2.578V-6h-.438v.578c0 1.313-1.625 2.36-2.625 2.578l.187.36c.954-.25 2.22-1.032 2.657-2.141.437 1.11 1.718 1.89 2.656 2.14zM.453-.813v.36h6.422v-.36zm0 0"/></symbol><symbol overflow="visible" id="O"><path d="M2.656-5.438h1.969v2.5H2.656zM3.86-.734v-1.844h2.375v-.36H5.047v-2.5h1.187v-.359H1.047v.36H2.25v2.5H1.062v.359h2.375v1.844H.454v.359h6.438v-.36zm0 0"/></symbol><symbol overflow="visible" id="P"><path d="M4.484-3.297c-1.14.188-2.062.235-3.203.235h-.093v-1.25h2.671v-1.844H.75v.36h2.688v1.14H.765v1.953h.515c1.157 0 2.078-.047 3.25-.235zM2.078-1.578h3.735V.094H2.078zM1.672.453h4.562v-2.39H1.672zm4.125-6.969v1.641H4.344v.36h1.453v2.156h.437v-4.157zm0 0"/></symbol></defs><g fill="#898989"><use xlink:href="#a" x="558.338" y="819.169"/><use xlink:href="#b" x="561.925" y="819.169"/></g><g fill="#595757"><use xlink:href="#c" x="39.637" y="818.993"/><use xlink:href="#d" x="45.03" y="818.993"/><use xlink:href="#e" x="50.424" y="818.993"/><use xlink:href="#f" x="55.817" y="818.993"/><use xlink:href="#g" x="61.211" y="818.993"/><use xlink:href="#h" x="62.769" y="818.993"/><use xlink:href="#i" x="68.162" y="818.993"/><use xlink:href="#j" x="73.556" y="818.993"/><use xlink:href="#k" x="78.949" y="818.993"/><use xlink:href="#l" x="84.342" y="818.993"/><use xlink:href="#m" x="89.736" y="818.993"/><use xlink:href="#c" x="95.129" y="818.993"/><use xlink:href="#d" x="100.523" y="818.993"/></g><g fill="#595757"><use xlink:href="#n" x="105.916" y="818.993"/><use xlink:href="#o" x="107.474" y="818.993"/><use xlink:href="#p" x="112.868" y="818.993"/><use xlink:href="#q" x="118.261" y="818.993"/><use xlink:href="#r" x="123.655" y="818.993"/><use xlink:href="#n" x="129.048" y="818.993"/><use xlink:href="#s" x="130.606" y="818.993"/><use xlink:href="#t" x="136" y="818.993"/><use xlink:href="#u" x="141.393" y="818.993"/><use xlink:href="#n" x="146.786" y="818.993"/><use xlink:href="#v" x="148.345" y="818.993"/></g><g fill="#595757"><use xlink:href="#w" x="151.43" y="818.993"/><use xlink:href="#x" x="154.87" y="818.993"/><use xlink:href="#y" x="156.35" y="818.993"/><use xlink:href="#n" x="157.735" y="818.993"/><use xlink:href="#z" x="159.293" y="818.993"/><use xlink:href="#z" x="162.379" y="818.993"/></g><use xlink:href="#A" x="39.637" y="62.225"/><use xlink:href="#B" x="43.752" y="62.225"/><use xlink:href="#C" x="47.867" y="62.225"/><use xlink:href="#D" x="49.713" y="62.225"/><use xlink:href="#E" x="53.828" y="62.225"/><use xlink:href="#C" x="57.943" y="62.225"/><use xlink:href="#D" x="59.788" y="62.225"/><use xlink:href="#F" x="63.903" y="62.225"/><use xlink:href="#G" x="68.018" y="62.225"/><use xlink:href="#H" x="70.096" y="62.225"/><use xlink:href="#G" x="71.965" y="62.225"/><use xlink:href="#I" x="74.043" y="62.225"/><use xlink:href="#B" x="81.234" y="62.225"/><use xlink:href="#J" x="85.349" y="62.225"/><use xlink:href="#G" x="92.54" y="62.225"/><use xlink:href="#K" x="94.618" y="62.225"/><use xlink:href="#L" x="101.809" y="62.225"/><use xlink:href="#M" x="109" y="62.225"/><use xlink:href="#N" x="116.192" y="62.225"/><use xlink:href="#G" x="123.383" y="62.225"/><use xlink:href="#O" x="125.46" y="62.225"/><use xlink:href="#P" x="132.652" y="62.225"/></svg>