<svg xmlns="http://www.w3.org/2000/svg" xmlns:xlink="http://www.w3.org/1999/xlink" width="793.701" height="1122.52" viewBox="0 0 595.276 841.89" version="1.2"><defs><symbol overflow="visible" id="a"><path d="M2.75-5.469l.578.438-1.25 1.718c.059-.007.113-.015.156-.015.051-.008.094-.016.125-.016.426 0 .797.168 1.11.5.308.324.469.715.469 1.172 0 .48-.176.895-.516 1.234a1.704 1.704 0 0 1-1.25.516c-.48 0-.899-.164-1.25-.5C.566-.762.39-1.164.39-1.625c0-.414.171-.86.515-1.328zm.406 3.844a.976.976 0 0 0-.281-.703.998.998 0 0 0-.719-.297.963.963 0 0 0-.703.297.908.908 0 0 0-.297.687.97.97 0 0 0 .297.72.98.98 0 0 0 .703.28.93.93 0 0 0 .703-.296.91.91 0 0 0 .297-.688zm0 0"/></symbol><symbol overflow="visible" id="b"><path d="M1.813-2.453v-.672c.332 0 .554-.04.671-.125.207-.121.313-.332.313-.625a.775.775 0 0 0-.219-.563A.834.834 0 0 0 2-4.64c-.219 0-.395.055-.516.157-.117.105-.199.289-.25.546H.438c.082-.488.25-.847.5-1.078.257-.238.617-.359 1.078-.359.457 0 .832.145 1.125.422.289.273.437.621.437 1.047 0 .48-.195.855-.578 1.125.434.261.656.68.656 1.25 0 .48-.164.87-.484 1.172-.313.293-.723.437-1.219.437C1.316.078.848-.148.547-.609.41-.805.324-1.08.297-1.422h.766c.039.25.14.445.296.578.164.137.375.203.625.203a.868.868 0 0 0 .641-.25.946.946 0 0 0 .25-.671c0-.352-.129-.61-.375-.766-.148-.082-.379-.125-.688-.125zm0 0"/></symbol><symbol overflow="visible" id="c"><path d="M1.797-4h1.14v-.188H.422V-4h1.187v.688c0 1.124-.53 2-1.265 2.374l.14.157c.594-.328 1.047-.953 1.22-1.813.187.75.624 1.328 1.171 1.64l.14-.155c-.703-.36-1.218-1.204-1.218-2.204zm2.797-.89v2.234h-.969V-4.75h-.203V.11h.203v-2.563h.969v2.86h.203v-5.298zm0 0"/></symbol><symbol overflow="visible" id="d"><path d="M3.484-2.438c-.78.157-1.437.188-2.453.188H.844v-1.969h2.11v-.187H.64v2.343h.39c1.032 0 1.688-.046 2.5-.203zM1.422-1.421h-.203V.266h3.468V.078H1.422zm2.984-1.766v-1.718h-.203v3.843h.203v-1.953h.875v-.171zm0 0"/></symbol><symbol overflow="visible" id="e"><path d="M4.422.14h-2.86v-.859h2.86zm0-1.046h-2.86v-.813h-.187V.313h3.25V-1.72h-.203zM2.734-2.437H.86v-1.047h1.875zm1.704-2.454V-3.5H2.921v-1.11h-.188v.954H.86v-.953H.656v2.359h2.266v-1.063h1.515v1.297h.188V-4.89zm0 0"/></symbol><symbol overflow="visible" id="f"><path d="M4.625-4.89h-.188v3.937h.188zM.703-3.235c0-.594.485-1.079 1.14-1.079.641 0 1.126.485 1.126 1.079 0 .609-.485 1.093-1.125 1.093-.657 0-1.14-.484-1.14-1.093zm2.453 0c0-.735-.547-1.266-1.312-1.266-.782 0-1.328.531-1.328 1.266 0 .75.546 1.265 1.328 1.265.765 0 1.312-.515 1.312-1.265zM1.546.078v-1.453H1.36v1.64h3.47V.079zm0 0"/></symbol><symbol overflow="visible" id="h"><path d="M.703-4.328V-1h2.313v-3.328zm2.125.172v2.984H.891v-2.984zm1.594-.735V.406h.203V-4.89zm0 0"/></symbol><symbol overflow="visible" id="i"><path d="M.75-1.14v-1.454H2.5v-1.672H.547v.188h1.765v1.297H.563V-.97h.329c.671 0 1.28-.031 2.078-.172l-.016-.171c-.781.14-1.406.171-2.062.171zm3.844-3.75v2.171H3.578V-4.75h-.203V.11h.203v-2.641h1.016V.406h.203V-4.89zm0 0"/></symbol><symbol overflow="visible" id="j"><path d="M2.094-4.469c-.828 0-1.39.469-1.39 1.188 0 .703.562 1.187 1.39 1.187.812 0 1.375-.484 1.375-1.187 0-.719-.563-1.188-1.375-1.188zm0 .172c.687 0 1.172.438 1.172 1.016 0 .562-.485 1-1.172 1-.703 0-1.188-.438-1.188-1 0-.578.485-1.016 1.188-1.016zm2.265-.594V.406h.204V-4.89zM.438-.844c.968 0 2.312 0 3.546-.234l-.03-.156c-1.188.203-2.563.203-3.563.203zm0 0"/></symbol><symbol overflow="visible" id="k"><path d="M3.516-4.234h-1.47v-.688H1.86v.688H.391v.171h3.125zm-2.61 1.5c0-.454.406-.766 1.047-.766.625 0 1.047.313 1.047.766 0 .437-.422.75-1.047.75-.64 0-1.047-.313-1.047-.75zm2.281 0c0-.579-.5-.938-1.234-.938-.75 0-1.234.36-1.234.938 0 .562.484.921 1.234.921.734 0 1.234-.359 1.234-.921zM1.063-1.063h3.14v1.47h.203v-1.641H1.063zm4.203-2.28h-.86v-1.548h-.203v3.297h.203v-1.562h.86zm0 0"/></symbol><symbol overflow="visible" id="l"><path d="M.64-3.25c0-.61.485-1.094 1.141-1.094.657 0 1.14.485 1.14 1.094 0 .61-.483 1.11-1.14 1.11-.656 0-1.14-.5-1.14-1.11zm3.797-.547v1.078H3a1.2 1.2 0 0 0 .11-.531A1.55 1.55 0 0 0 3-3.797zm0 1.25v1.61h.188v-3.954h-.188v.922H2.891c-.22-.344-.625-.562-1.11-.562-.765 0-1.328.515-1.328 1.281 0 .766.563 1.281 1.328 1.281.5 0 .907-.218 1.125-.578zM1.563.078v-1.437h-.187V.266h3.438V.078zm0 0"/></symbol><symbol overflow="visible" id="m"><path d="M5.14-2.219h-.874c.171-.781.171-1.344.171-1.844v-.453H1.017v.188h3.218v.266c0 .5 0 1.062-.171 1.843H.358v.172h2.297V.406h.188v-2.453H5.14zm0 0"/></symbol><symbol overflow="visible" id="o"><path d="M.719-1.953c.625-.219 1.187-.688 1.406-1.313.234.594.781 1.032 1.422 1.25l.14-.25c-.75-.234-1.406-.843-1.406-1.609v-.031H3.61v-.266H2.281v-.703H1.97v.703H.672v.266h1.297v.031c0 .797-.657 1.422-1.407 1.672zm1.562-.188H1.97v1.094C1.39-1.03.844-1.03.375-1.03l.047.281c.969 0 2.297 0 3.515-.219l-.015-.25c-.531.094-1.094.125-1.64.157zm2.016-2.765V.422h.312v-5.328zm0 0"/></symbol><symbol overflow="visible" id="p"><path d="M4.672-4.906h-.313v3.922h.313zM3.516-2.141c-.75-.296-1.391-1.046-1.391-1.921v-.547h-.313v.546c0 .907-.625 1.704-1.375 2.016l.188.266c.61-.282 1.14-.86 1.344-1.578a2.462 2.462 0 0 0 1.375 1.468zM1.64.016v-1.36h-.313V.281H4.86V.016zm0 0"/></symbol><symbol overflow="visible" id="q"><path d="M2.75.156c-.906 0-1.5-.265-1.5-.703 0-.422.594-.687 1.5-.687s1.484.265 1.484.687c0 .438-.578.703-1.484.703zm0-1.64c-1.125 0-1.813.343-1.813.937 0 .625.688.953 1.813.953S4.563.078 4.563-.547c0-.594-.688-.937-1.813-.937zm.14-.735v-.703h1.688v-.281H1.266v-1.188h3.28v-.265H.954v1.734h1.64v.703H.344v.281h4.813v-.28zm0 0"/></symbol><symbol overflow="visible" id="r"><path d="M3.516-4.25H2.094v-.719H1.78v.719H.36v.266h3.157zM.984-2.734c0-.391.391-.672.954-.672.578 0 .953.281.953.672 0 .406-.375.687-.954.687-.562 0-.953-.281-.953-.687zm2.204 0c0-.579-.5-.922-1.25-.922-.766 0-1.266.344-1.266.922 0 .578.5.937 1.265.937.75 0 1.25-.36 1.25-.937zM2.796.14c-.844 0-1.39-.235-1.39-.641s.546-.64 1.39-.64c.844 0 1.39.234 1.39.64s-.546.64-1.39.64zm0-1.547c-1.063 0-1.703.328-1.703.906 0 .578.64.906 1.703.906C3.859.406 4.5.078 4.5-.5c0-.578-.64-.906-1.703-.906zM5.28-3.625v-.266h-.828v-1.015h-.328v3.453h.328V-2.5h.828v-.266h-.828v-.859zm0 0"/></symbol><symbol overflow="visible" id="s"><path d="M1.266-3.203H4.25v1.11H1.266zm1.64 2.64v-1.25h1.656v-2.703H4.25v1.032H1.266v-1.032H.937v2.704h1.657v1.25H.344v.265h4.828v-.266zm0 0"/></symbol><symbol overflow="visible" id="t"><path d="M4.188-3.781c0 .64 0 1.36-.188 2.36l.328.046c.188-1.047.188-1.766.188-2.406v-.531H.859v.25h3.329zM2.625-.671V-2.61h-.313v1.937H.345v.281h4.812v-.28zm0 0"/></symbol><symbol overflow="visible" id="u"><path d="M2.125-4.422h-.328v1.063c0 .984-.719 1.984-1.422 2.375l.203.25c.578-.344 1.156-1.079 1.39-1.907.22.797.813 1.485 1.407 1.813l.188-.266c-.704-.36-1.438-1.312-1.438-2.265zm2.234-.484v1.89H2.984v.266H4.36V.422h.329v-5.328zm0 0"/></symbol><symbol overflow="visible" id="v"><path d="M1.453 0h.406l1.422-4.375h-.375l-.781 2.516c-.156.53-.281.937-.453 1.468H1.64c-.172-.53-.282-.937-.454-1.468l-.78-2.516H.03zm0 0"/></symbol><symbol overflow="visible" id="w"><path d="M1.781.078c.782 0 1.453-.61 1.453-1.672 0-1.062-.671-1.687-1.453-1.687-.765 0-1.437.625-1.437 1.687C.344-.53 1.016.078 1.78.078zm0-.297C1.156-.219.703-.78.703-1.594c0-.812.453-1.375 1.078-1.375s1.094.563 1.094 1.375c0 .813-.469 1.375-1.094 1.375zm0 0"/></symbol><symbol overflow="visible" id="x"><path d="M1.031.078c.11 0 .172-.015.235-.031l-.063-.281c-.062.015-.094.015-.11.015-.077 0-.14-.062-.14-.218v-4.329h-.36v4.297c0 .36.141.547.438.547zm0 0"/></symbol><symbol overflow="visible" id="y"><path d="M.75-.156c.156 0 .313-.11.313-.313A.317.317 0 0 0 .75-.797a.317.317 0 0 0-.313.328c0 .203.157.313.313.313zm0 0"/></symbol><symbol overflow="visible" id="z"><path d="M.547 0h2.265v-.313h-.921v-4.062h-.282c-.203.125-.468.219-.828.281v.235h.766v3.546h-1zm0 0"/></symbol><symbol overflow="visible" id="A"><path d="M.36 0h3.5v-.422H2.046c-.297 0-.64.031-.953.047C2.64-1.813 3.578-3.031 3.578-4.25c0-1.016-.594-1.672-1.61-1.672-.702 0-1.187.344-1.64.828l.297.282c.344-.407.797-.72 1.297-.72.828 0 1.187.563 1.187 1.298 0 1.046-.78 2.25-2.75 3.953zm0 0"/></symbol><symbol overflow="visible" id="B"><path d="M.734 0h3v-.406H2.516v-5.422H2.14c-.266.172-.625.297-1.11.375v.312h1.016v4.735H.734zm0 0"/></symbol><symbol overflow="visible" id="C"><path d="M1-.203a.407.407 0 0 0 .406-.422c0-.281-.203-.438-.406-.438-.219 0-.406.157-.406.438 0 .266.187.422.406.422zm0 0"/></symbol><symbol overflow="visible" id="D"><path d="M2.14.11c1.047 0 1.704-1 1.704-3.047 0-2.016-.656-2.985-1.703-2.985-1.063 0-1.72.969-1.72 2.984C.422-.89 1.079.11 2.142.11zm0-.391c-.765 0-1.25-.89-1.25-2.656 0-1.72.485-2.594 1.25-2.594.75 0 1.25.875 1.25 2.593 0 1.766-.5 2.657-1.25 2.657zm0 0"/></symbol><symbol overflow="visible" id="E"><path d="M2.016.11c.937 0 1.828-.72 1.828-1.985 0-1.281-.766-1.86-1.735-1.86-.39 0-.687.11-.968.282l.171-1.953h2.235v-.422H.89L.687-3.156 1-2.984c.328-.22.61-.36 1.031-.36.813 0 1.328.563 1.328 1.485C3.36-.906 2.734-.297 2-.297 1.25-.297.812-.625.484-.984L.22-.656c.375.375.906.765 1.797.765zm0 0"/></symbol><symbol overflow="visible" id="G"><path d="M.844 2.219h.344v-8.86H.844zm0 0"/></symbol><symbol overflow="visible" id="H"><path d="M.89-5.797v4.516h3.172v-4.516zm2.766.344v3.812h-2.36v-3.812zm2.125-1.078V.562h.422V-6.53zm0 0"/></symbol><symbol overflow="visible" id="I"><path d="M1.125-1.578v-1.813h2.203v-2.328H.688v.36h2.234v1.609H.703v2.531h.453c.89 0 1.703-.031 2.75-.218l-.047-.36c-1.015.188-1.828.219-2.703.219zm4.89-4.969v2.89H4.798v-2.702H4.39V.17h.406v-3.468h1.219v3.86h.421v-7.11zm0 0"/></symbol><symbol overflow="visible" id="J"><path d="M2.766-5.984c-1.11 0-1.875.656-1.875 1.609 0 .969.765 1.625 1.875 1.625 1.093 0 1.859-.656 1.859-1.625 0-.953-.766-1.61-1.86-1.61zm0 .359c.843 0 1.453.531 1.453 1.25 0 .734-.61 1.266-1.453 1.266-.844 0-1.47-.532-1.47-1.266 0-.719.626-1.25 1.47-1.25zm2.953-.906V.562h.422V-6.53zM.562-1.063c1.297 0 3.063 0 4.688-.296l-.031-.329c-1.578.25-3.39.25-4.719.25zm0 0"/></symbol><symbol overflow="visible" id="K"><path d="M4.672-5.703H2.797v-.875h-.422v.875H.485v.344h4.187zM1.297-3.641c0-.546.531-.921 1.281-.921.766 0 1.266.375 1.266.921 0 .547-.5.922-1.266.922-.75 0-1.281-.375-1.281-.922zm2.953 0c0-.78-.672-1.25-1.672-1.25-1 0-1.672.47-1.672 1.25 0 .782.672 1.266 1.672 1.266 1 0 1.672-.484 1.672-1.266zM1.375-1.312H5.5V.546h.422v-2.219H1.375zM7.031-4.5h-1.11v-2.047H5.5v4.438h.422v-2.032h1.11zm0 0"/></symbol><symbol overflow="visible" id="L"><path d="M.984-4.328c0-.766.594-1.36 1.391-1.36s1.39.594 1.39 1.36c0 .781-.593 1.375-1.39 1.375-.797 0-1.39-.594-1.39-1.375zM5.797-5v1.328H4.063c.062-.187.109-.422.109-.656 0-.234-.047-.469-.125-.672zm0 1.688v2.046h.437V-6.53h-.437v1.172H3.859a1.862 1.862 0 0 0-1.484-.704c-1.047 0-1.797.72-1.797 1.735 0 1.031.75 1.734 1.797 1.734.64 0 1.172-.265 1.484-.719zM2.219.03v-1.843h-.422V.39h4.64V.03zm0 0"/></symbol><symbol overflow="visible" id="M"><path d="M6.86-2.984H5.75c.203-1.047.203-1.797.203-2.454v-.609H1.297v.36h4.25v.25c0 .656 0 1.421-.234 2.453H.452v.359h2.985V.563h.421v-3.188h3zm0 0"/></symbol><symbol overflow="visible" id="N"><path d="M2.438-5.266h1.437v-.359H.547v.36h1.5v.765c0 1.469-.656 2.656-1.64 3.203l.28.328c.782-.453 1.329-1.265 1.579-2.344.234.954.78 1.688 1.5 2.094l.265-.328c-.968-.5-1.593-1.625-1.593-2.953zM6.03-6.53v2.937H4.875v-2.765h-.406V.17h.406v-3.39h1.156V.562h.407V-6.53zm0 0"/></symbol><symbol overflow="visible" id="O"><path d="M4.625-3.328c-1.016.203-1.875.25-3.281.25h-.11v-2.469h2.688v-.36H.812v3.204h.532c1.437 0 2.297-.063 3.328-.266zm-2.61 1.437h-.421V.391h4.672V.03h-4.25zm3.907-2.437v-2.219H5.5v5.156h.422v-2.578h1.11v-.36zm0 0"/></symbol><symbol overflow="visible" id="P"><path d="M.36-2.844h1.968v-.39H.36zm0 0"/></symbol><symbol overflow="visible" id="Q"><path d="M2.422-5.281h1.422v-.36H.547v.36h1.469v.828c0 1.344-.672 2.656-1.625 3.219l.28.312c.735-.453 1.313-1.36 1.563-2.406.235.969.797 1.797 1.516 2.25l.266-.328c-.938-.532-1.594-1.797-1.594-3.047zm2.172 1.36H3.28v.374h1.313V.172H5v-6.516h-.406zm1.422-2.61V.562h.421V-6.53zm0 0"/></symbol><symbol overflow="visible" id="R"><path d="M4.594-2.469H5v-3.906h-.406v1.36H2.937v.359h1.657zM3.828-3.53c-.969.187-1.765.219-2.547.219v-2.72H.86v3.079h.422c.813 0 1.61-.031 2.61-.219zm-2.14 1.875h4.296V.562h.422v-2.578H1.688zm4.296-4.86v4.125h.422v-4.125zm0 0"/></symbol><symbol overflow="visible" id="S"><path d="M6.219-6.516h-.422v5.204h.422zM4.672-2.844c-.984-.39-1.844-1.406-1.844-2.547v-.734h-.422v.734c0 1.188-.828 2.25-1.828 2.672l.25.344c.813-.36 1.516-1.125 1.797-2.094a3.236 3.236 0 0 0 1.828 1.953zM2.188.031V-1.78h-.422V.39h4.687V.03zm0 0"/></symbol><symbol overflow="visible" id="T"><path d="M.844 0h.437v-3.688c0-.484-.031-1.124-.047-1.609h.032L1.719-4 2.953-.625h.375L4.547-4 5-5.297h.031c-.015.484-.047 1.125-.047 1.61V0h.454v-5.828h-.641l-1.203 3.36c-.14.421-.266.843-.422 1.265H3.14L2.687-2.47l-1.203-3.36h-.64zm0 0"/></symbol><symbol overflow="visible" id="U"><path d="M2.89.11c1.422 0 2.422-1.188 2.422-3.047 0-1.844-1-2.985-2.421-2.985-1.407 0-2.407 1.14-2.407 2.984 0 1.86 1 3.047 2.407 3.047zm0-.438C1.735-.328.985-1.344.985-2.938c0-1.578.75-2.562 1.907-2.562 1.156 0 1.921.984 1.921 2.563 0 1.593-.765 2.609-1.921 2.609zm0 0"/></symbol><symbol overflow="visible" id="V"><path d="M2.813.11c1.046 0 2-.547 2-2.391v-3.547h-.47v3.531c0 1.516-.702 1.969-1.53 1.969-.813 0-1.516-.453-1.516-1.969v-3.531H.828v3.547c0 1.844.938 2.39 1.985 2.39zm0 0"/></symbol><symbol overflow="visible" id="W"><path d="M2.438-4.797h1.437v-.36H2.437V-6.28h-.406v1.125H.578v.36h1.453v.468c0 1.203-.672 2.484-1.594 3.047l.266.312C1.422-1.422 2-2.297 2.234-3.297c.25.938.844 1.766 1.547 2.188l.266-.329c-.922-.515-1.61-1.734-1.61-2.89zm2.156 1.125h-1.25v.36h1.25V.171H5v-6.516h-.406zm1.422-2.875v7.11h.421v-7.11zm0 0"/></symbol><symbol overflow="visible" id="X"><path d="M5.797-5.063v.985H3.78v.344h2.016v.859h.437v-3.656h-.437v1.11H4c.063-.22.094-.47.094-.704H.922v.36H3.64C3.53-4.47 2.375-3.516.594-3.079l.156.36c1.563-.407 2.719-1.204 3.14-2.345zM2.172.141V-.906h4.062v-1.61h-4.5v.36h4.079v.906H1.75V.484h4.766V.141zm0 0"/></symbol><symbol overflow="visible" id="Y"><path d="M1.64 0h.5c.094-2.281.376-3.734 1.75-5.547v-.281H.39v.422h2.938C2.172-3.796 1.734-2.328 1.641 0zm0 0"/></symbol><symbol overflow="visible" id="Z"><path d="M4.672-5.594H2.797v-.922h-.422v.922H.485v.36h4.187zM1.297-3.469c0-.562.531-.953 1.281-.953.766 0 1.266.39 1.266.953 0 .547-.5.953-1.266.953-.75 0-1.281-.406-1.281-.953zm2.953 0c0-.781-.672-1.297-1.672-1.297-1 0-1.672.516-1.672 1.297 0 .781.672 1.297 1.672 1.297 1 0 1.672-.515 1.672-1.297zM2.016-1.64h-.422V.391h4.672V.03h-4.25zm3.906-2.453v-2.422H5.5v5.313h.422v-2.531h1.11v-.36zm0 0"/></symbol><symbol overflow="visible" id="aa"><path d="M6.89-3.234v-.36H5.814C6-4.484 6-5.156 6-5.688v-.5H1.281v.36h4.313v.14c0 .532 0 1.188-.219 2.094H.453v.36h3v1.484H1.141v.36h4.515V.561h.422V-1.75H3.875v-1.484zm0 0"/></symbol><symbol overflow="visible" id="ab"><path d="M.984-2.375c.954-.219 2.25-.953 2.688-2.016.437 1.047 1.734 1.782 2.687 2l.188-.343C5.53-2.906 3.875-3.891 3.875-5.11v-.36h2.469v-.36H.984v.36h2.47v.36c0 1.218-1.657 2.218-2.657 2.406zm2.891 1.61v-1.813h-.422v1.812h-3v.36h6.422v-.36zm0 0"/></symbol><symbol overflow="visible" id="ac"><path d="M2.844-5.406H4.64v-.375H.67v.375h1.766v1.187c0 1.235-1.046 2.594-1.953 3.047l.266.344c.766-.422 1.578-1.39 1.89-2.453C2.97-2.25 3.798-1.375 4.579-1l.266-.328c-.969-.438-2-1.656-2-2.89zM5.78-6.531V.562h.422V-6.53zm0 0"/></symbol><symbol overflow="visible" id="ad"><path d="M2.984-1.766H1.141v-3.546h1.843zm1.657-2.046H3.39v-1.844H.75v4.234h2.64v-2.031h1.25v3.64h.407v-6.546H4.64zm1.39-2.72V.564h.407v-7.094zm0 0"/></symbol><symbol overflow="visible" id="ae"><path d="M5.781-6.531V.562h.422V-6.53zm-3.265.578C1.484-5.953.75-5 .75-3.516c0 1.485.734 2.438 1.766 2.438 1.03 0 1.75-.953 1.75-2.438 0-1.484-.72-2.437-1.75-2.437zm0 .375c.796 0 1.343.844 1.343 2.062 0 1.204-.546 2.063-1.343 2.063-.797 0-1.36-.86-1.36-2.063 0-1.218.563-2.062 1.36-2.062zm0 0"/></symbol><symbol overflow="visible" id="af"><path d="M6.422-3.86C5.39-4.046 3.875-4.89 3.875-5.921v-.422h-.438v.422c0 1.063-1.484 1.875-2.546 2.063l.156.343c1-.203 2.187-.812 2.61-1.734.421.906 1.624 1.547 2.593 1.734zM1.734-1.624h-.421V.391h4.843V.03H1.734zM.454-2.781v.36h6.405v-.36zm0 0"/></symbol><symbol overflow="visible" id="ag"><path d="M1.156-1.656v-3.625h2.235v-.375H.75v4.375h.438c1.156 0 1.843-.047 2.687-.235l-.063-.359c-.796.188-1.484.219-2.64.219zm4.86-4.875v2.922h-1.22v-2.75h-.405V.17h.406V-3.25h1.219V.547h.421v-7.078zm0 0"/></symbol><symbol overflow="visible" id="ah"><path d="M5.594-4.922c0 .906 0 1.813-.266 3.016l.422.047C6-3.094 6-3.984 6-4.922v-.828H1.14v.36h4.454zM4.328-.89v-2.406h-.406V-.89H2.594v-2.406h-.422V-.89H.453v.36H6.86v-.36zm0 0"/></symbol><symbol overflow="visible" id="ai"><path d="M2.063.11c.984 0 1.75-.641 1.75-1.657 0-.812-.579-1.344-1.282-1.5v-.031c.625-.219 1.078-.688 1.078-1.438 0-.906-.671-1.406-1.578-1.421-.656.015-1.156.312-1.547.687l.266.328c.313-.344.781-.61 1.281-.625.672.016 1.094.422 1.094 1.063 0 .687-.438 1.25-1.719 1.25v.39c1.39 0 1.938.516 1.938 1.297 0 .75-.547 1.25-1.297 1.25C1.297-.297.844-.64.516-1L.25-.687c.36.39.906.796 1.813.796zm0 0"/></symbol><symbol overflow="visible" id="aj"><path d="M3.656-5.875c1.172 0 2 .469 2 1.172 0 .687-.828 1.172-2 1.172-1.187 0-2-.485-2-1.172 0-.703.813-1.172 2-1.172zm0 2.688c1.453 0 2.422-.594 2.422-1.516 0-.938-.969-1.531-2.422-1.531-1.469 0-2.437.593-2.437 1.53 0 .923.968 1.516 2.437 1.516zm3.219.75H.453v.359H2.22V.547h.437v-2.625h2V.547h.438v-2.625h1.781zm0 0"/></symbol><symbol overflow="visible" id="ak"><path d="M.984-4.453c0-.719.594-1.281 1.391-1.281s1.39.562 1.39 1.28c0 .75-.593 1.298-1.39 1.298-.797 0-1.39-.547-1.39-1.297zm4.813-.656v1.328h-1.75a1.837 1.837 0 0 0 0-1.328zm0 1.687v1.11h.437v-4.235h-.437v1.094H3.828c-.328-.406-.844-.64-1.453-.64-1.047 0-1.797.687-1.797 1.64 0 .984.75 1.672 1.797 1.672.61 0 1.125-.25 1.453-.64zM3.922.188c-1.14 0-1.89-.376-1.89-.985 0-.594.75-.984 1.89-.984 1.172 0 1.922.39 1.922.984 0 .61-.75.985-1.922.985zm0-2.313c-1.438 0-2.313.484-2.313 1.328 0 .844.875 1.328 2.313 1.328 1.453 0 2.344-.484 2.344-1.328 0-.844-.891-1.328-2.344-1.328zm0 0"/></symbol><symbol overflow="visible" id="al"><path d="M1.047-4.453c0-.734.594-1.281 1.39-1.281.797 0 1.391.546 1.391 1.28 0 .735-.594 1.282-1.39 1.282-.797 0-1.391-.547-1.391-1.281zm3.187 0c0-.984-.75-1.64-1.796-1.64-1.063 0-1.797.655-1.797 1.64 0 .984.734 1.64 1.796 1.64 1.047 0 1.797-.656 1.797-1.64zM1.375-1.578H5.5v2.14h.422v-2.5H1.375zM7.015-5v-.36H5.923v-1.187H5.5v4.234h.422v-1.171h1.094v-.36H5.922V-5zm0 0"/></symbol></defs><g fill="#898989"><use xlink:href="#a" x="557.645" y="819.169"/><use xlink:href="#b" x="561.924" y="819.169"/></g><g fill="#595757"><use xlink:href="#c" x="39.637" y="818.993"/><use xlink:href="#d" x="45.03" y="818.993"/><use xlink:href="#e" x="50.424" y="818.993"/><use xlink:href="#f" x="55.817" y="818.993"/><use xlink:href="#g" x="61.211" y="818.993"/><use xlink:href="#h" x="62.769" y="818.993"/><use xlink:href="#i" x="68.162" y="818.993"/><use xlink:href="#j" x="73.556" y="818.993"/><use xlink:href="#k" x="78.949" y="818.993"/><use xlink:href="#l" x="84.342" y="818.993"/><use xlink:href="#m" x="89.736" y="818.993"/><use xlink:href="#c" x="95.129" y="818.993"/><use xlink:href="#d" x="100.523" y="818.993"/></g><g fill="#595757"><use xlink:href="#n" x="105.916" y="818.993"/><use xlink:href="#o" x="107.474" y="818.993"/><use xlink:href="#p" x="112.868" y="818.993"/><use xlink:href="#q" x="118.261" y="818.993"/><use xlink:href="#r" x="123.655" y="818.993"/><use xlink:href="#n" x="129.048" y="818.993"/><use xlink:href="#s" x="130.606" y="818.993"/><use xlink:href="#t" x="136" y="818.993"/><use xlink:href="#u" x="141.393" y="818.993"/><use xlink:href="#n" x="146.786" y="818.993"/><use xlink:href="#v" x="148.345" y="818.993"/></g><g fill="#595757"><use xlink:href="#w" x="151.43" y="818.993"/><use xlink:href="#x" x="154.87" y="818.993"/><use xlink:href="#y" x="156.35" y="818.993"/><use xlink:href="#n" x="157.735" y="818.993"/><use xlink:href="#z" x="159.293" y="818.993"/><use xlink:href="#z" x="162.379" y="818.993"/></g><use xlink:href="#A" x="39.637" y="47.125"/><use xlink:href="#B" x="43.752" y="47.125"/><use xlink:href="#C" x="47.867" y="47.125"/><use xlink:href="#D" x="49.713" y="47.125"/><use xlink:href="#E" x="53.828" y="47.125"/><use xlink:href="#C" x="57.943" y="47.125"/><use xlink:href="#A" x="59.788" y="47.125"/><use xlink:href="#B" x="63.903" y="47.125"/><use xlink:href="#F" x="68.018" y="47.125"/><use xlink:href="#G" x="70.096" y="47.125"/><use xlink:href="#F" x="71.965" y="47.125"/><use xlink:href="#H" x="74.043" y="47.125"/><use xlink:href="#I" x="81.234" y="47.125"/><use xlink:href="#J" x="88.425" y="47.125"/><use xlink:href="#K" x="95.617" y="47.125"/><use xlink:href="#L" x="102.808" y="47.125"/><use xlink:href="#M" x="109.999" y="47.125"/><use xlink:href="#N" x="117.19" y="47.125"/><use xlink:href="#O" x="124.382" y="47.125"/><use xlink:href="#P" x="131.573" y="47.125"/><use xlink:href="#Q" x="134.082" y="47.125"/><use xlink:href="#R" x="141.273" y="47.125"/><use xlink:href="#S" x="148.464" y="47.125"/><use xlink:href="#F" x="155.656" y="47.125"/><use xlink:href="#T" x="157.733" y="47.125"/><use xlink:href="#U" x="163.862" y="47.125"/><use xlink:href="#V" x="169.503" y="47.125"/><use xlink:href="#F" x="174.976" y="47.125"/><use xlink:href="#W" x="177.054" y="47.125"/><use xlink:href="#X" x="184.245" y="47.125"/><g><use xlink:href="#A" x="39.637" y="290.101"/><use xlink:href="#B" x="43.752" y="290.101"/><use xlink:href="#C" x="47.867" y="290.101"/><use xlink:href="#D" x="49.713" y="290.101"/><use xlink:href="#Y" x="53.828" y="290.101"/><use xlink:href="#C" x="57.943" y="290.101"/><use xlink:href="#B" x="59.788" y="290.101"/><use xlink:href="#F" x="63.903" y="290.101"/><use xlink:href="#G" x="65.981" y="290.101"/><use xlink:href="#F" x="67.85" y="290.101"/><use xlink:href="#H" x="69.928" y="290.101"/><use xlink:href="#I" x="77.119" y="290.101"/><use xlink:href="#J" x="84.31" y="290.101"/><use xlink:href="#K" x="91.502" y="290.101"/><use xlink:href="#L" x="98.693" y="290.101"/><use xlink:href="#M" x="105.884" y="290.101"/><use xlink:href="#N" x="113.075" y="290.101"/><use xlink:href="#O" x="120.267" y="290.101"/><use xlink:href="#P" x="127.458" y="290.101"/><use xlink:href="#Z" x="129.967" y="290.101"/><use xlink:href="#aa" x="137.158" y="290.101"/><use xlink:href="#ab" x="144.349" y="290.101"/><use xlink:href="#ac" x="151.541" y="290.101"/><use xlink:href="#ad" x="158.732" y="290.101"/><use xlink:href="#ae" x="165.923" y="290.101"/><use xlink:href="#af" x="173.114" y="290.101"/><use xlink:href="#ag" x="180.306" y="290.101"/><use xlink:href="#K" x="187.497" y="290.101"/><use xlink:href="#ah" x="194.688" y="290.101"/><use xlink:href="#F" x="201.879" y="290.101"/><use xlink:href="#T" x="203.957" y="290.101"/><use xlink:href="#U" x="210.085" y="290.101"/><use xlink:href="#V" x="215.727" y="290.101"/><use xlink:href="#F" x="221.2" y="290.101"/><use xlink:href="#W" x="223.277" y="290.101"/><use xlink:href="#X" x="230.469" y="290.101"/></g><g><use xlink:href="#A" x="39.637" y="533.078"/><use xlink:href="#B" x="43.752" y="533.078"/><use xlink:href="#C" x="47.867" y="533.078"/><use xlink:href="#D" x="49.713" y="533.078"/><use xlink:href="#E" x="53.828" y="533.078"/><use xlink:href="#C" x="57.943" y="533.078"/><use xlink:href="#ai" x="59.788" y="533.078"/><use xlink:href="#B" x="63.903" y="533.078"/><use xlink:href="#F" x="68.018" y="533.078"/><use xlink:href="#G" x="70.096" y="533.078"/><use xlink:href="#F" x="71.965" y="533.078"/><use xlink:href="#H" x="74.043" y="533.078"/><use xlink:href="#I" x="81.234" y="533.078"/><use xlink:href="#J" x="88.425" y="533.078"/><use xlink:href="#K" x="95.617" y="533.078"/><use xlink:href="#L" x="102.808" y="533.078"/><use xlink:href="#M" x="109.999" y="533.078"/><use xlink:href="#N" x="117.19" y="533.078"/><use xlink:href="#O" x="124.382" y="533.078"/><use xlink:href="#P" x="131.573" y="533.078"/><use xlink:href="#aj" x="134.082" y="533.078"/><use xlink:href="#ak" x="141.273" y="533.078"/><use xlink:href="#Q" x="148.464" y="533.078"/><use xlink:href="#al" x="155.656" y="533.078"/><use xlink:href="#F" x="162.847" y="533.078"/><use xlink:href="#T" x="164.924" y="533.078"/><use xlink:href="#U" x="171.053" y="533.078"/><use xlink:href="#V" x="176.694" y="533.078"/><use xlink:href="#F" x="182.167" y="533.078"/><use xlink:href="#W" x="184.245" y="533.078"/><use xlink:href="#X" x="191.436" y="533.078"/></g></svg>