<svg xmlns="http://www.w3.org/2000/svg" xmlns:xlink="http://www.w3.org/1999/xlink" width="793.701" height="1122.52" viewBox="0 0 595.276 841.89" version="1.2"><defs><symbol overflow="visible" id="a"><path d="M1.75-.75h1.969V0H.172L2-2.219c.184-.215.336-.406.453-.562.121-.164.219-.305.281-.422.133-.207.204-.399.204-.578a.814.814 0 0 0-.266-.61.924.924 0 0 0-.64-.25c-.532 0-.84.317-.923.938H.33C.448-4.805 1.007-5.36 2-5.36c.488 0 .895.152 1.219.453.32.304.484.68.484 1.125 0 .293-.074.582-.219.86-.086.136-.199.304-.343.5-.149.198-.336.433-.563.702zm0 0"/></symbol><symbol overflow="visible" id="b"><path d="M3.688-4.531H2.046l-.25.875a.613.613 0 0 1 .11-.016H2c.508 0 .93.176 1.266.516.332.344.5.789.5 1.328 0 .555-.192 1.012-.563 1.375-.375.355-.851.531-1.422.531C1.082.078.535-.25.141-.906l.593-.5c.164.281.332.48.5.593.164.118.375.172.625.172.309 0 .579-.109.797-.328.215-.226.328-.508.328-.844 0-.332-.113-.609-.328-.828a1.075 1.075 0 0 0-.797-.328c-.355 0-.664.16-.921.469H.671L1.5-5.281h2.188zm0 0"/></symbol><symbol overflow="visible" id="c"><path d="M1.797-4h1.14v-.188H.422V-4h1.187v.688c0 1.124-.53 2-1.265 2.374l.14.157c.594-.328 1.047-.953 1.22-1.813.187.75.624 1.328 1.171 1.64l.14-.155c-.703-.36-1.218-1.204-1.218-2.204zm2.797-.89v2.234h-.969V-4.75h-.203V.11h.203v-2.563h.969v2.86h.203v-5.298zm0 0"/></symbol><symbol overflow="visible" id="d"><path d="M3.484-2.438c-.78.157-1.437.188-2.453.188H.844v-1.969h2.11v-.187H.64v2.343h.39c1.032 0 1.688-.046 2.5-.203zM1.422-1.421h-.203V.266h3.468V.078H1.422zm2.984-1.766v-1.718h-.203v3.843h.203v-1.953h.875v-.171zm0 0"/></symbol><symbol overflow="visible" id="e"><path d="M4.422.14h-2.86v-.859h2.86zm0-1.046h-2.86v-.813h-.187V.313h3.25V-1.72h-.203zM2.734-2.437H.86v-1.047h1.875zm1.704-2.454V-3.5H2.921v-1.11h-.188v.954H.86v-.953H.656v2.359h2.266v-1.063h1.515v1.297h.188V-4.89zm0 0"/></symbol><symbol overflow="visible" id="f"><path d="M4.625-4.89h-.188v3.937h.188zM.703-3.235c0-.594.485-1.079 1.14-1.079.641 0 1.126.485 1.126 1.079 0 .609-.485 1.093-1.125 1.093-.657 0-1.14-.484-1.14-1.093zm2.453 0c0-.735-.547-1.266-1.312-1.266-.782 0-1.328.531-1.328 1.266 0 .75.546 1.265 1.328 1.265.765 0 1.312-.515 1.312-1.265zM1.546.078v-1.453H1.36v1.64h3.47V.079zm0 0"/></symbol><symbol overflow="visible" id="h"><path d="M.703-4.328V-1h2.313v-3.328zm2.125.172v2.984H.891v-2.984zm1.594-.735V.406h.203V-4.89zm0 0"/></symbol><symbol overflow="visible" id="i"><path d="M.75-1.14v-1.454H2.5v-1.672H.547v.188h1.765v1.297H.563V-.97h.329c.671 0 1.28-.031 2.078-.172l-.016-.171c-.781.14-1.406.171-2.062.171zm3.844-3.75v2.171H3.578V-4.75h-.203V.11h.203v-2.641h1.016V.406h.203V-4.89zm0 0"/></symbol><symbol overflow="visible" id="j"><path d="M2.094-4.469c-.828 0-1.39.469-1.39 1.188 0 .703.562 1.187 1.39 1.187.812 0 1.375-.484 1.375-1.187 0-.719-.563-1.188-1.375-1.188zm0 .172c.687 0 1.172.438 1.172 1.016 0 .562-.485 1-1.172 1-.703 0-1.188-.438-1.188-1 0-.578.485-1.016 1.188-1.016zm2.265-.594V.406h.204V-4.89zM.438-.844c.968 0 2.312 0 3.546-.234l-.03-.156c-1.188.203-2.563.203-3.563.203zm0 0"/></symbol><symbol overflow="visible" id="k"><path d="M3.516-4.234h-1.47v-.688H1.86v.688H.391v.171h3.125zm-2.61 1.5c0-.454.406-.766 1.047-.766.625 0 1.047.313 1.047.766 0 .437-.422.75-1.047.75-.64 0-1.047-.313-1.047-.75zm2.281 0c0-.579-.5-.938-1.234-.938-.75 0-1.234.36-1.234.938 0 .562.484.921 1.234.921.734 0 1.234-.359 1.234-.921zM1.063-1.063h3.14v1.47h.203v-1.641H1.063zm4.203-2.28h-.86v-1.548h-.203v3.297h.203v-1.562h.86zm0 0"/></symbol><symbol overflow="visible" id="l"><path d="M.64-3.25c0-.61.485-1.094 1.141-1.094.657 0 1.14.485 1.14 1.094 0 .61-.483 1.11-1.14 1.11-.656 0-1.14-.5-1.14-1.11zm3.797-.547v1.078H3a1.2 1.2 0 0 0 .11-.531A1.55 1.55 0 0 0 3-3.797zm0 1.25v1.61h.188v-3.954h-.188v.922H2.891c-.22-.344-.625-.562-1.11-.562-.765 0-1.328.515-1.328 1.281 0 .766.563 1.281 1.328 1.281.5 0 .907-.218 1.125-.578zM1.563.078v-1.437h-.187V.266h3.438V.078zm0 0"/></symbol><symbol overflow="visible" id="m"><path d="M5.14-2.219h-.874c.171-.781.171-1.344.171-1.844v-.453H1.017v.188h3.218v.266c0 .5 0 1.062-.171 1.843H.358v.172h2.297V.406h.188v-2.453H5.14zm0 0"/></symbol><symbol overflow="visible" id="o"><path d="M.719-1.953c.625-.219 1.187-.688 1.406-1.313.234.594.781 1.032 1.422 1.25l.14-.25c-.75-.234-1.406-.843-1.406-1.609v-.031H3.61v-.266H2.281v-.703H1.97v.703H.672v.266h1.297v.031c0 .797-.657 1.422-1.407 1.672zm1.562-.188H1.97v1.094C1.39-1.03.844-1.03.375-1.03l.047.281c.969 0 2.297 0 3.515-.219l-.015-.25c-.531.094-1.094.125-1.64.157zm2.016-2.765V.422h.312v-5.328zm0 0"/></symbol><symbol overflow="visible" id="p"><path d="M4.672-4.906h-.313v3.922h.313zM3.516-2.141c-.75-.296-1.391-1.046-1.391-1.921v-.547h-.313v.546c0 .907-.625 1.704-1.375 2.016l.188.266c.61-.282 1.14-.86 1.344-1.578a2.462 2.462 0 0 0 1.375 1.468zM1.64.016v-1.36h-.313V.281H4.86V.016zm0 0"/></symbol><symbol overflow="visible" id="q"><path d="M2.75.156c-.906 0-1.5-.265-1.5-.703 0-.422.594-.687 1.5-.687s1.484.265 1.484.687c0 .438-.578.703-1.484.703zm0-1.64c-1.125 0-1.813.343-1.813.937 0 .625.688.953 1.813.953S4.563.078 4.563-.547c0-.594-.688-.937-1.813-.937zm.14-.735v-.703h1.688v-.281H1.266v-1.188h3.28v-.265H.954v1.734h1.64v.703H.344v.281h4.813v-.28zm0 0"/></symbol><symbol overflow="visible" id="r"><path d="M3.516-4.25H2.094v-.719H1.78v.719H.36v.266h3.157zM.984-2.734c0-.391.391-.672.954-.672.578 0 .953.281.953.672 0 .406-.375.687-.954.687-.562 0-.953-.281-.953-.687zm2.204 0c0-.579-.5-.922-1.25-.922-.766 0-1.266.344-1.266.922 0 .578.5.937 1.265.937.75 0 1.25-.36 1.25-.937zM2.796.14c-.844 0-1.39-.235-1.39-.641s.546-.64 1.39-.64c.844 0 1.39.234 1.39.64s-.546.64-1.39.64zm0-1.547c-1.063 0-1.703.328-1.703.906 0 .578.64.906 1.703.906C3.859.406 4.5.078 4.5-.5c0-.578-.64-.906-1.703-.906zM5.28-3.625v-.266h-.828v-1.015h-.328v3.453h.328V-2.5h.828v-.266h-.828v-.859zm0 0"/></symbol><symbol overflow="visible" id="s"><path d="M1.266-3.203H4.25v1.11H1.266zm1.64 2.64v-1.25h1.656v-2.703H4.25v1.032H1.266v-1.032H.937v2.704h1.657v1.25H.344v.265h4.828v-.266zm0 0"/></symbol><symbol overflow="visible" id="t"><path d="M4.188-3.781c0 .64 0 1.36-.188 2.36l.328.046c.188-1.047.188-1.766.188-2.406v-.531H.859v.25h3.329zM2.625-.671V-2.61h-.313v1.937H.345v.281h4.812v-.28zm0 0"/></symbol><symbol overflow="visible" id="u"><path d="M2.125-4.422h-.328v1.063c0 .984-.719 1.984-1.422 2.375l.203.25c.578-.344 1.156-1.079 1.39-1.907.22.797.813 1.485 1.407 1.813l.188-.266c-.704-.36-1.438-1.312-1.438-2.265zm2.234-.484v1.89H2.984v.266H4.36V.422h.329v-5.328zm0 0"/></symbol><symbol overflow="visible" id="v"><path d="M1.453 0h.406l1.422-4.375h-.375l-.781 2.516c-.156.53-.281.937-.453 1.468H1.64c-.172-.53-.282-.937-.454-1.468l-.78-2.516H.03zm0 0"/></symbol><symbol overflow="visible" id="w"><path d="M1.781.078c.782 0 1.453-.61 1.453-1.672 0-1.062-.671-1.687-1.453-1.687-.765 0-1.437.625-1.437 1.687C.344-.53 1.016.078 1.78.078zm0-.297C1.156-.219.703-.78.703-1.594c0-.812.453-1.375 1.078-1.375s1.094.563 1.094 1.375c0 .813-.469 1.375-1.094 1.375zm0 0"/></symbol><symbol overflow="visible" id="x"><path d="M1.031.078c.11 0 .172-.015.235-.031l-.063-.281c-.062.015-.094.015-.11.015-.077 0-.14-.062-.14-.218v-4.329h-.36v4.297c0 .36.141.547.438.547zm0 0"/></symbol><symbol overflow="visible" id="y"><path d="M.75-.156c.156 0 .313-.11.313-.313A.317.317 0 0 0 .75-.797a.317.317 0 0 0-.313.328c0 .203.157.313.313.313zm0 0"/></symbol><symbol overflow="visible" id="z"><path d="M.547 0h2.265v-.313h-.921v-4.062h-.282c-.203.125-.468.219-.828.281v.235h.766v3.546h-1zm0 0"/></symbol><symbol overflow="visible" id="A"><path d="M2.672-5.078H3.75v-.86H.469v.86h1.187v.36c0 1.265-.39 2.577-1.453 3.25l.625.78c.656-.421 1.094-1.14 1.344-1.968.234.765.656 1.406 1.312 1.797l.61-.766C3.03-2.25 2.672-3.485 2.672-4.719zm1.5.922h-.938v.843h.938V.345h.984v-6.89h-.984zm1.484-2.516V.672h1v-7.344zm0 0"/></symbol><symbol overflow="visible" id="B"><path d="M2.203.11c1.094 0 2.063-.75 2.063-2.079 0-1.281-.829-1.875-1.813-1.875-.265 0-.484.063-.719.172l.125-1.25H4v-.984H.844l-.172 2.86.547.358C1.562-2.921 1.75-3 2.094-3c.61 0 1 .375 1 1.063 0 .703-.422 1.093-1.047 1.093-.547 0-.969-.281-1.297-.594l-.547.75c.438.438 1.063.797 2 .797zm0 0"/></symbol><symbol overflow="visible" id="C"><path d="M4.938-5.86H3.266v-.78H2.219v.78H.53v.829h4.407zm-3.016 2.5c0-.374.328-.578.812-.578.5 0 .829.204.829.579s-.329.593-.829.593c-.484 0-.812-.218-.812-.593zM3.266-2.03c.78-.156 1.296-.64 1.296-1.328 0-.829-.75-1.391-1.828-1.391S.906-4.187.906-3.36c0 .688.516 1.172 1.313 1.329v.625c-.656.015-1.281.015-1.828.015l.125.86c1.296 0 3-.016 4.609-.313l-.094-.75c-.562.078-1.172.11-1.765.157zm2.156-4.64V.687h1.047v-7.36zm0 0"/></symbol><symbol overflow="visible" id="E"><path d="M1.438-9.438v7.344h5.171v-7.344zm4.5.563v6.219H2.108v-6.219zm3.468-1.75V.906h.688v-11.531zm0 0"/></symbol><symbol overflow="visible" id="F"><path d="M1.828-2.578V-5.5h3.594v-3.813H1.125v.594H4.75v2.625H1.156v4.125h.719c1.469 0 2.781-.062 4.469-.375l-.078-.578c-1.625.297-2.954.344-4.391.344zm7.969-8.063v4.688h-2v-4.39H7.14V.28h.656v-5.64h2V.906h.672V-10.64zm0 0"/></symbol><symbol overflow="visible" id="G"><path d="M4.5-9.734c-1.797 0-3.047 1.062-3.047 2.625 0 1.578 1.25 2.64 3.047 2.64 1.781 0 3.031-1.062 3.031-2.64 0-1.563-1.25-2.625-3.031-2.625zm0 .593c1.375 0 2.375.86 2.375 2.032 0 1.187-1 2.046-2.375 2.046-1.39 0-2.39-.859-2.39-2.046 0-1.172 1-2.032 2.39-2.032zm4.797-1.484V.922h.687v-11.547zM.922-1.735c2.11 0 4.969 0 7.625-.484l-.063-.531c-2.578.406-5.53.406-7.671.406zm0 0"/></symbol><symbol overflow="visible" id="H"><path d="M7.61-9.281H4.546v-1.422h-.688v1.422H.781v.562H7.61zm-5.5 3.375c0-.89.843-1.5 2.078-1.5 1.234 0 2.078.61 2.078 1.5 0 .875-.844 1.484-2.079 1.484-1.234 0-2.078-.61-2.078-1.484zm4.796 0c0-1.282-1.078-2.047-2.718-2.047-1.625 0-2.72.766-2.72 2.047 0 1.265 1.095 2.047 2.72 2.047 1.64 0 2.718-.782 2.718-2.047zM2.25-2.125h6.688V.891h.687v-3.61H2.25zm9.172-5.203H9.625v-3.313h-.688v7.22h.688V-6.72h1.797zm0 0"/></symbol><symbol overflow="visible" id="I"><path d="M1.719-5.297c1.703-.266 3.578-1.016 4.234-2.39.64 1.375 2.516 2.125 4.219 2.39l.234-.547c-1.875-.25-4.094-1.25-4.094-2.906h3.75v-.578H6.297v-1.36h-.688v1.36H1.86v.578h3.72c0 1.656-2.204 2.656-4.095 2.906zm1.078 2.781h-.688V.625h7.922V.031H2.797zM.719-4.453v.578H5.64v2.531h.703v-2.531h4.843v-.578zm0 0"/></symbol><symbol overflow="visible" id="J"><path d="M7.516-7.344H5.469c.093-.578.172-1.156.172-1.765H1.234v.593h3.72C4.796-6.03 3.405-3.687.812-2.14l.437.5c2.172-1.312 3.5-3.125 4.063-5.109h2.203v2.328H5.125v.578h2.39v4.11h.673v-10.563h-.672zm2.28-3.281V.906h.673v-11.531zm0 0"/></symbol><symbol overflow="visible" id="K"><path d="M4.328-8.844h3.203v4.078H4.328zm1.938 7.656v-3h3.875v-.578H8.219v-4.078h1.922v-.578H1.719v.578h1.937v4.078H1.734v.579h3.844v3H.734v.578h10.47v-.579zm0 0"/></symbol><symbol overflow="visible" id="L"><path d="M7.297-5.344c-1.86.297-3.344.36-5.219.36h-.156v-2.032h4.344v-3H1.203v.594h4.39v1.86H1.25v3.156h.828c1.89 0 3.375-.063 5.281-.36zM3.39-2.578h6.062V.14H3.391zM2.719.734h7.406V-3.14H2.719zm6.719-11.343v2.687h-2.36v.578h2.36v3.5h.687v-6.765zm0 0"/></symbol><symbol overflow="visible" id="N"><path d="M4.875-7.531h2.39v-1.36H4.892v-1.671H3.187v1.671H.75v1.36h2.438v.422c0 1.78-.907 3.812-2.844 4.703l.922 1.312c1.343-.593 2.265-1.797 2.78-3.234.5 1.328 1.376 2.453 2.641 3.031l.907-1.297C5.719-3.5 4.875-5.422 4.875-7.109zm6.781 1.343H9.922v-4.64H8.203V1.109h1.719v-5.89h1.734zm0 0"/></symbol><symbol overflow="visible" id="O"><path d="M4.375-9.797h-1.64v2c0 2.047-.641 4.188-2.391 5.25l1.015 1.281c1.079-.64 1.782-1.78 2.204-3.109.374 1.203 1.015 2.219 2.015 2.844l.938-1.328c-1.625-1.079-2.141-3.063-2.141-5zm2.39 3h-1.5v1.375h1.5v6H8.36V-10.64H6.766zm2.423-4.047V1.11h1.624v-11.953zm0 0"/></symbol><symbol overflow="visible" id="P"><path d="M2.578-8.078h2.75v-1.39H.891v7.89h.843c1.532 0 2.797-.047 4.25-.313L5.86-3.28c-1.14.203-2.156.265-3.28.297zm6.61-2.781v4.609H8.108v-4.375H6.516V.563h1.593v-5.438h1.079v5.984h1.624v-11.968zm0 0"/></symbol><symbol overflow="visible" id="Q"><path d="M5.031-3.016H2.625v-2.64h2.406zm0-3.984H2.625v-2.89H.922v8.234h5.797v-8.235H5.03zm6.625.61H9.922v-4.438H8.203V1.109h1.719v-6.062h1.734zm0 0"/></symbol><symbol overflow="visible" id="R"><path d="M8.75-10.86v12h1.719v-12zm-4.719.844c-1.797 0-3.14 1.641-3.14 4.266 0 2.64 1.343 4.281 3.14 4.281 1.813 0 3.157-1.64 3.157-4.281 0-2.625-1.344-4.266-3.157-4.266zm0 1.547c.89 0 1.5.953 1.5 2.719 0 1.781-.61 2.719-1.5 2.719-.875 0-1.484-.938-1.484-2.719 0-1.766.61-2.719 1.484-2.719zm0 0"/></symbol><symbol overflow="visible" id="S"><path d="M3.188-6.938c0-1.218 1.14-1.937 2.765-1.937 1.656 0 2.781.719 2.781 1.938C8.734-5.72 7.61-5 5.954-5c-1.626 0-2.766-.719-2.766-1.938zm3.624 5.282v-2.032c2.125-.25 3.61-1.468 3.61-3.25 0-2-1.906-3.296-4.469-3.296-2.531 0-4.453 1.296-4.453 3.296 0 1.782 1.5 2.985 3.61 3.25v2.032H.561v1.39h10.829v-1.39zm0 0"/></symbol><symbol overflow="visible" id="T"><path d="M7.156-9.813H4.813v-1.124H3.109v1.124H.594v1.329h6.562zM2.75-5.78c0-.625.516-.985 1.203-.985.688 0 1.219.36 1.219.985s-.531 1-1.219 1c-.687 0-1.203-.375-1.203-1zm4 0c0-1.328-1.188-2.282-2.797-2.282-1.594 0-2.797.954-2.797 2.282S2.36-3.5 3.953-3.5c1.61 0 2.797-.953 2.797-2.281zM2.422-1.344h6.422v2.469h1.719v-3.828H2.421zm6.422-9.5v2.672H7.313v1.375h1.53v.922H7.267V-4.5h1.578v1.266h1.719v-7.61zm0 0"/></symbol><symbol overflow="visible" id="U"><path d="M10.484-10.828H8.766v8.719h1.718zM7.875-5.281c-1.938-.625-2.766-2.157-2.766-3.735v-1.156H3.36v1.156C3.36-7.422 2.5-5.75.516-5.078l.875 1.36c1.39-.47 2.328-1.454 2.875-2.657.515 1.11 1.421 2 2.75 2.453zM4.25-.453v-2.5H2.531v3.86h8.266v-1.36zm0 0"/></symbol><symbol overflow="visible" id="V"><path d="M1.219-9.61v1.36h3.984C4.953-5.594 3.641-3.719.578-2.266l.906 1.36c4.235-2.047 5.47-5.047 5.47-8.703zm7.578-1.25V1.11h1.719v-11.97zm0 0"/></symbol><symbol overflow="visible" id="W"><path d="M10.828-7.938c-2.687-.25-3.984-1.468-3.984-2.625v-.218H5.078v.219c0 1.156-1.297 2.374-3.984 2.624l.562 1.297c2.063-.234 3.547-1 4.297-2.093.766 1.093 2.234 1.859 4.297 2.093zm.531 3.141v-1.36H.563v1.36h4.53v.766H1.798v1.265h6.562v.657H1.813v3.14h8.546V-.266H3.5v-.671h6.547v-3.094h-3.25v-.766zm0 0"/></symbol><symbol overflow="visible" id="X"><path d="M4.406-10.047c-1.875 0-3.297 1.235-3.297 2.938 0 1.734 1.422 2.953 3.297 2.953 1.86 0 3.297-1.219 3.297-2.953 0-1.704-1.437-2.938-3.297-2.938zm0 1.469c.922 0 1.625.547 1.625 1.469 0 .937-.703 1.484-1.625 1.484s-1.625-.547-1.625-1.484c0-.922.703-1.47 1.625-1.47zm4.407-2.281v12h1.718v-12zM.827-1.281c2.063 0 4.875-.032 7.438-.547l-.094-1.234c-2.531.374-5.453.39-7.563.39zm0 0"/></symbol><symbol overflow="visible" id="Y"><path d="M1.64-3.984C3.032-4.36 3.97-5.172 4.5-6.204c.531.985 1.469 1.75 2.844 2.095l.765-1.297C6.344-5.86 5.484-6.938 5.36-8.078h2.422v-1.36H5.344v-1.296H3.625v1.296H1.219v1.36h2.39C3.5-6.875 2.656-5.766.875-5.297zm3.704-.36H3.625v1.828c-1.094.032-2.125.032-3.016.032l.22 1.39c2.046-.015 4.874-.015 7.437-.547l-.094-1.234c-.906.14-1.86.219-2.828.281zm3.468-6.515v12h1.72v-12zm0 0"/></symbol><symbol overflow="visible" id="Z"><path d="M5.938-.172c-1.594 0-2.422-.266-2.422-.89 0-.625.828-.907 2.421-.907 1.594 0 2.407.282 2.407.907s-.813.89-2.406.89zm0-3.094c-2.594 0-4.141.782-4.141 2.204 0 1.406 1.547 2.187 4.14 2.187 2.579 0 4.157-.781 4.157-2.188 0-1.421-1.578-2.203-4.156-2.203zm.89-1.953v-.984h3.328v-1.36H3.578v-1.406h6.516v-1.36H1.875v4.126h3.234v.984H.58v1.36H11.39v-1.36zm0 0"/></symbol><symbol overflow="visible" id="aa"><path d="M7.594-9.703H4.937v-1.219H3.204v1.219H.563v1.344h7.03zM2.78-5.828c0-.594.531-.89 1.297-.89.766 0 1.297.296 1.297.89 0 .578-.531.89-1.297.89-.766 0-1.297-.312-1.297-.89zm4.235 0c0-1.281-1.22-2.14-2.938-2.14-1.734 0-2.937.859-2.937 2.14 0 1.266 1.203 2.125 2.937 2.125 1.719 0 2.938-.86 2.938-2.125zM6.078-.156c-1.5 0-2.312-.266-2.312-.844s.812-.844 2.312-.844c1.5 0 2.313.266 2.313.844s-.813.844-2.313.844zm0-2.969c-2.469 0-4.016.781-4.016 2.125 0 1.328 1.547 2.125 4.016 2.125 2.469 0 4.016-.797 4.016-2.125 0-1.344-1.547-2.125-4.016-2.125zM11.5-7.719v-1.406H9.969v-1.703H8.266v7.562h1.703v-1.859H11.5v-1.39H9.969V-7.72zm0 0"/></symbol><symbol overflow="visible" id="ab"><path d="M6.89-4.11c.329-1.968.329-3.421.329-4.577v-.97H1.062v1.36h4.47c0 1.063-.032 2.344-.313 4.047zM4.282-6.233H2.594v3.53c-.75.017-1.485.017-2.14.017l.155 1.406c2.079-.016 4.75-.063 7.188-.485L7.703-3a47.587 47.587 0 0 1-3.422.25zm7.282.203h-1.61v-4.828H8.25V1.109h1.703v-5.718h1.61zm0 0"/></symbol><symbol overflow="visible" id="ac"><path d="M8.75-10.86v12h1.719v-12zm-7.61.97v8.234h5.891v-8.235H5.344V-7h-2.5v-2.89zm1.704 4.234h2.5v2.64h-2.5zm0 0"/></symbol><symbol overflow="visible" id="ad"><path d="M6.969-7.75v1.39h1.875v4.25h1.719v-8.734h-1.72v3.094zM7.766-5c-1.891-.64-2.704-2.11-2.704-3.516v-.156h2.329v-1.36H.953v1.36h2.36v.172c0 1.5-.86 3.078-2.813 3.703l.844 1.375c1.406-.469 2.343-1.422 2.875-2.61.5 1.079 1.406 1.938 2.718 2.376zM4.39-.453v-2.39H2.67v3.75h8.157v-1.36zm0 0"/></symbol><symbol overflow="visible" id="ae"><path d="M2.297-3.047l.219-.812c.218-.766.437-1.61.625-2.407h.046c.22.797.422 1.641.641 2.407l.219.812zM4.89 0h1.546L4.063-7.39H2.329L-.047 0h1.5l.531-1.89h2.391zm0 0"/></symbol><symbol overflow="visible" id="af"><path d="M.906 0h2.64c1.626 0 2.86-.688 2.86-2.172 0-1-.578-1.562-1.39-1.75v-.047c.64-.219 1.015-.922 1.015-1.61 0-1.374-1.156-1.812-2.672-1.812H.906zm1.485-4.39v-1.876h.875c.89 0 1.328.266 1.328.907 0 .593-.407.968-1.344.968zm0 3.25v-2.141h1.03c1.017 0 1.548.297 1.548 1.015 0 .766-.547 1.125-1.547 1.125zm0 0"/></symbol><symbol overflow="visible" id="ag"><path d="M3.11.14c1.718 0 2.718-1.03 2.718-2.234 0-1.078-.594-1.64-1.484-2.015l-.969-.407c-.625-.25-1.156-.437-1.156-.968 0-.485.422-.782 1.062-.782.61 0 1.11.22 1.578.61l.735-.922C5-7.188 4.14-7.531 3.28-7.531c-1.5 0-2.547.937-2.547 2.14 0 1.079.75 1.672 1.485 1.985l1 .422c.656.28 1.11.453 1.11 1 0 .515-.423.843-1.188.843-.641 0-1.344-.328-1.875-.812L.422-.937A3.93 3.93 0 0 0 3.109.14zm0 0"/></symbol><symbol overflow="visible" id="ah"><path d="M2.375 0h1.484v-6.156h2.094v-1.235H.297v1.235h2.078zm0 0"/></symbol><symbol overflow="visible" id="ai"><path d="M2.39-6.219h.954c.953 0 1.469.266 1.469 1.063 0 .797-.516 1.187-1.47 1.187h-.952zM6.579 0L4.86-3.031c.844-.328 1.407-1.016 1.407-2.125 0-1.688-1.235-2.235-2.782-2.235H.906V0h1.485v-2.797h1.03L4.939 0zm0 0"/></symbol><symbol overflow="visible" id="aj"><path d="M3.922.14c.953 0 1.75-.374 2.36-1.093L5.5-1.86c-.39.421-.89.718-1.531.718-1.156 0-1.922-.968-1.922-2.578 0-1.578.844-2.547 1.953-2.547.563 0 1 .266 1.36.625l.78-.937c-.484-.5-1.234-.953-2.171-.953-1.86 0-3.422 1.437-3.422 3.86C.547-1.204 2.062.14 3.922.14zm0 0"/></symbol><symbol overflow="visible" id="ak"><path d="M2.266-6.578c2.359-.406 4.593-1.672 5.53-3.484.923 1.812 3.173 3.078 5.532 3.484l.547-1.094c-2.688-.39-5.313-2.14-5.313-4.156v-.078h4.766v-1.125H2.203v1.125h4.813v.078c0 2.015-2.641 3.765-5.282 4.156zm12.406 1.281H.922v1.14h6.14V1.25h1.391v-5.406h6.235zm0 0"/></symbol><symbol overflow="visible" id="al"><path d="M10.094-6.813c-2.266-.78-3.828-2.765-3.828-4.953v-1.5H4.875v1.5c0 2.266-1.547 4.391-3.844 5.235l.719 1.093c1.781-.671 3.172-2.093 3.844-3.89.672 1.687 2.047 3 3.797 3.625zm-6.89 3.907h8.812V1.28h1.39V-4.03H3.203zm8.812-11.063v9.156h1.39v-9.156zm0 0"/></symbol><symbol overflow="visible" id="am"><path d="M6.297-12.656H4.922v2.734c0 2.89-1.844 5.813-4.094 6.875l.86 1.14c1.78-.905 3.234-2.812 3.937-5.109.734 2.172 2.188 3.97 3.922 4.829l.828-1.126C8.125-4.327 6.297-7.14 6.297-9.921zm5.672-1.328v15.28h1.39v-15.28zm0 0"/></symbol><symbol overflow="visible" id="an"><path d="M9.734-6.61c-2.25-.75-3.687-2.53-3.687-4.515v-.594h3.36v-1.125H1.233v1.125h3.422v.594c0 2.188-1.531 4.156-3.828 4.953l.719 1.11c1.812-.641 3.187-2 3.844-3.735.64 1.516 1.953 2.719 3.671 3.281zM7.875.14C5.609.14 4.25-.5 4.25-1.577c0-1.078 1.36-1.703 3.625-1.703 2.25 0 3.625.625 3.625 1.703S10.125.14 7.875.14zm0-4.515c-3.125 0-5.016 1.031-5.016 2.797 0 1.781 1.891 2.812 5.016 2.812 3.094 0 5.016-1.03 5.016-2.812 0-1.766-1.922-2.797-5.016-2.797zm4.844-5.75v-3.844h-1.39v9.203h1.39v-4.187h2.265v-1.172zm0 0"/></symbol><symbol overflow="visible" id="ao"><path d="M4.344-3.375c-1.219 0-1.985-1.547-1.985-4.047 0-2.453.766-3.984 1.985-3.984 1.187 0 1.968 1.531 1.968 3.984 0 2.5-.78 4.047-1.968 4.047zM9.5-8.047H7.578c-.172-2.875-1.39-4.656-3.234-4.656-1.985 0-3.25 2.031-3.25 5.281 0 3.297 1.265 5.328 3.25 5.328 1.875 0 3.11-1.828 3.234-4.812H9.5V.516h1.313v-14.157H9.5zm3.016-5.937V1.25h1.328v-15.234zm0 0"/></symbol><symbol overflow="visible" id="ap"><path d="M6.234-12.672h-1.39v2.735c0 2.828-1.735 5.765-3.938 6.859l.844 1.11c1.719-.923 3.125-2.845 3.781-5.095.703 2.141 2.094 3.954 3.828 4.829l.813-1.11C7.969-4.406 6.234-7.172 6.234-9.938zm5.829-1.312v5.171H8.53v1.141h3.531v8.953h1.391v-15.265zm0 0"/></symbol><symbol overflow="visible" id="ar"><path d="M3.906-9.031h7.781v2.797h-7.78zM8.5-1.828V-5.11h4.547v-7.782h-1.36v2.72h-7.78v-2.72H2.53v7.782h4.547v3.28H.906v1.126h13.797v-1.125zm0 0"/></symbol><symbol overflow="visible" id="as"><path d="M13.11-9.39H4.14v-4.032H2.75v5.172h10.36zM4.046-3.563h-1.39V.89h10.546V-.25H4.047zM.89-6.22v1.125h13.796v-1.125zm0 0"/></symbol><symbol overflow="visible" id="at"><path d="M13.406-13.984h-1.39v11.187h1.39zm-3.328 7.593c-2.265-.828-3.812-2.906-3.812-5.187v-1.547H4.875v1.547C4.875-9.203 3.344-7 1.047-6.11l.734 1.14c1.782-.75 3.157-2.234 3.813-4.078.672 1.735 2.015 3.11 3.75 3.766zM5-.219v-3.625H3.594V.922h10.265v-1.14zm0 0"/></symbol><symbol overflow="visible" id="au"><path d="M2.547-9.453c0-1.453 1.094-2.438 2.61-2.438 1.515 0 2.624.985 2.624 2.438 0 1.422-1.11 2.422-2.625 2.422s-2.61-1-2.61-2.422zm6.594 0c0-2.14-1.688-3.61-3.985-3.61-2.297 0-3.968 1.47-3.968 3.61 0 2.11 1.671 3.594 3.968 3.594 2.297 0 3.985-1.485 3.985-3.594zM2.812-3.078h8.516V1.25h1.39v-5.469H2.814zM14.954-10.5v-1.156H12.72v-2.313h-1.39v9.047h1.39V-7.25h2.234v-1.14H12.72v-2.11zm0 0"/></symbol><symbol overflow="visible" id="av"><path d="M1.484-12.016v1.141h4.563C5.844-7.719 4.407-4.953.907-3l.812 1c4.328-2.453 5.703-6.078 5.703-10.016zm11-1.968v6.14h-2.078v-5.734H9.11V.5h1.297v-7.203h2.078V1.25h1.344v-15.234zm0 0"/></symbol><symbol overflow="visible" id="aw"><path d="M7.219-7.813H2.906v-2.28H7.22zm1.36-5.53h-1.36v2.187H2.906v-2.188H1.531v6.656h7.047zM4.452-1.689h8.266V-5.39H3.047v1.11h8.297v1.562h-8.25v3.813H13.28v-1.11H4.453zm8.266-9.015v-3.266h-1.39v7.875h1.39v-3.453h2.265v-1.156zm0 0"/></symbol><symbol overflow="visible" id="ax"><path d="M7.188-7.563h-.485v4.282h.484zM1.234-5.438c0-.78.672-1.375 1.594-1.375.906 0 1.578.594 1.578 1.375 0 .797-.672 1.375-1.578 1.375-.922 0-1.594-.578-1.594-1.375zm3.657 0c0-1.062-.86-1.796-2.063-1.796C1.61-7.234.75-6.5.75-5.438c0 1.063.86 1.782 2.078 1.782 1.203 0 2.063-.719 2.063-1.781zM2.5.11v-1.14h4.688v-1.813H1.984v.406H6.72v1.032H2.016V.516h5.5V.109zm0 0"/></symbol><symbol overflow="visible" id="ay"><path d="M2-1.813h-.484v2.25h5.609V.031H2zm.016-3.828h4.453v1.25H2.016zM4.484-3v-.984h2.47V-7.22h-.485v1.172H2.016v-1.172H1.53v3.235h2.453V-3H.516v.422h7.421V-3zm0 0"/></symbol><symbol overflow="visible" id="az"><path d="M4.75-2.984C5-4.61 5-5.72 5-6.313v-.296H.89v.406h3.626c0 .594-.016 1.672-.266 3.172zM2.812-4.266h-.484v2.579c-.672.015-1.328.015-1.906.015l.094.438c1.468-.016 3.421-.047 5.171-.313l-.03-.36c-.907.11-1.891.173-2.845.204zm5.344.22H6.72v-3.516h-.5V.64h.5v-4.25h1.437zm0 0"/></symbol><symbol overflow="visible" id="aB"><path d="M7.969-3.734v-.422h-1.25c.218-1.032.218-1.813.218-2.422v-.563H1.484v.407H6.47v.156c0 .61 0 1.375-.25 2.422H.516v.422h3.468v1.703H1.313v.422H6.53V.64h.5v-2.672H4.484v-1.703zm0 0"/></symbol><symbol overflow="visible" id="aC"><path d="M1.469-6.516H.984v4.97h.485c.922 0 1.843-.063 3-.298l-.063-.422C3.296-2.046 2.36-2 1.47-2zm5.5-1.046v3.437H5.547v-3.234h-.484V.203h.484v-3.89h1.422V.64h.468v-8.204zm0 0"/></symbol><symbol overflow="visible" id="aD"><path d="M5.203-3.563C4.093-3.969 3.11-5.046 3.11-6.219v-.937h-.468v.906c0 1.344-.938 2.453-2.094 2.922l.25.39a3.7 3.7 0 0 0 2.11-2.265c.327.922 1.124 1.672 2.03 2.031zM4.25.22c-1.297 0-2.156-.39-2.156-1.032 0-.64.86-1.046 2.156-1.046 1.328 0 2.172.406 2.172 1.046C6.422-.171 5.578.22 4.25.22zm0-2.469c-1.64 0-2.64.516-2.64 1.438 0 .921 1 1.437 2.64 1.437 1.656 0 2.656-.516 2.656-1.438 0-.921-1-1.437-2.656-1.437zm2.594-3.063v-2.25h-.485V-2.5h.485v-2.39h1.281v-.423zm0 0"/></symbol><symbol overflow="visible" id="aE"><path d="M3.219-6.719c.922 0 1.578.516 1.578 1.219 0 .719-.656 1.25-1.578 1.25S1.64-4.781 1.64-5.5c0-.703.656-1.219 1.578-1.219zm0 2.875c1.203 0 2.047-.656 2.047-1.656 0-.969-.844-1.64-2.047-1.64-1.203 0-2.047.671-2.047 1.64 0 1 .844 1.656 2.047 1.656zm2.797.516c-1.844.265-3.954.297-5.532.297l.079.437c.734 0 1.578-.015 2.453-.047V.391h.5v-3.063c.828-.047 1.703-.14 2.546-.281zm.656-4.219V.656h.484v-8.203zm0 0"/></symbol><symbol overflow="visible" id="aF"><path d="M2.813-6.11h1.624v-.406H.642v.407h1.703v.953c0 1.562-.797 3.062-1.89 3.718l.327.375c.844-.53 1.516-1.578 1.797-2.78.281 1.124.922 2.077 1.75 2.593l.313-.375C3.562-2.25 2.812-3.703 2.812-5.156zm2.5 1.579H3.796v.422h1.515V.187h.485v-7.515h-.484zm1.656-3.016V.641h.468v-8.188zm0 0"/></symbol><symbol overflow="visible" id="aG"><path d="M1.203-5.14c0-.86.688-1.485 1.61-1.485.937 0 1.609.625 1.609 1.484 0 .844-.672 1.47-1.61 1.47-.921 0-1.609-.626-1.609-1.47zm3.703 0c0-1.141-.875-1.923-2.093-1.923-1.22 0-2.079.782-2.079 1.922 0 1.141.86 1.891 2.079 1.891 1.218 0 2.093-.75 2.093-1.89zM1.594-1.829h4.765V.64h.485V-2.25h-5.25zm6.515-3.953v-.422H6.844v-1.36h-.485v4.891h.485v-1.36h1.265v-.421H6.844v-1.328zm0 0"/></symbol><symbol overflow="visible" id="aH"><path d="M3.11-6.813h-.485v1.657c0 1.468-1.094 3.047-2.188 3.61l.313.405c.89-.515 1.766-1.625 2.125-2.89.36 1.203 1.25 2.234 2.125 2.703l.313-.375C4.234-2.25 3.108-3.734 3.108-5.156zM8.202-4.14H6.766v-3.421h-.5V.64h.5v-4.36h1.437zm0 0"/></symbol><symbol overflow="visible" id="aI"><path d="M3.188-6.922c-1.266 0-2.157.75-2.157 1.875 0 1.11.89 1.875 2.157 1.875 1.28 0 2.171-.765 2.171-1.875 0-1.125-.89-1.875-2.171-1.875zm0 .422c.984 0 1.703.61 1.703 1.453 0 .844-.72 1.453-1.704 1.453-.968 0-1.687-.61-1.687-1.453 0-.844.719-1.453 1.688-1.453zm3.421-1.047V.656h.485v-8.203zM.656-1.234c1.5 0 3.531 0 5.422-.344l-.047-.375c-1.828.281-3.922.297-5.453.297zm0 0"/></symbol><symbol overflow="visible" id="aJ"><path d="M7.188-7.547h-.485v6.031h.484zm-1.782 4.25c-1.14-.453-2.14-1.61-2.14-2.953v-.844H2.78v.844c0 1.39-.953 2.625-2.11 3.11l.282.39a3.868 3.868 0 0 0 2.078-2.406c.344 1.031 1.172 1.86 2.11 2.25zM2.531.031v-2.094h-.484v2.5h5.422V.031zm0 0"/></symbol><symbol overflow="visible" id="aK"><path d="M.844-6.469v.422H3.53C3.437-4.328 2.625-2.64.578-1.53l.297.375C3.235-2.47 4-4.484 4-6.47zm6.125-1.078v3.406h-1.36v-3.187h-.468V.203h.468v-3.922h1.36v4.36h.468v-8.188zm0 0"/></symbol><symbol overflow="visible" id="aL"><path d="M4.156-4.078h-2.75v-1.453h2.75zm.485-3.156h-.485v1.296h-2.75v-1.296H.922v3.562H4.64zM2.25-1h4.594v-1.828H1.75v.39h4.61v1.047H1.765V.531h5.406V.125H2.25zm4.594-4.688v-1.875h-.485v4.282h.485v-1.985h1.265v-.421zm0 0"/></symbol><symbol overflow="visible" id="aM"><path d="M5.125-5.297v.422h1.594v1.297H5.125v.406h1.594v1.875h.484v-6.25H6.72v2.25zm.063-1.172H3.108v-1.078h-.484v1.078H.531v.407h4.657zm-3.672 2.5c0-.672.546-1.14 1.343-1.14.813 0 1.344.468 1.344 1.14 0 .672-.531 1.14-1.344 1.14-.796 0-1.343-.468-1.343-1.14zm3.171 0c0-.937-.75-1.547-1.828-1.547s-1.812.61-1.812 1.547c0 .938.734 1.547 1.812 1.547 1.079 0 1.829-.61 1.829-1.547zm-2.171 4v-1.875H2.03V.438h5.375V.03zm0 0"/></symbol><symbol overflow="visible" id="aN"><path d="M5.469-6.781h-2.14v-.844h-.485v.844H.719v.39h4.75zM1.687-4.797c0-.469.563-.797 1.391-.797.844 0 1.406.328 1.406.797 0 .469-.562.797-1.406.797-.828 0-1.39-.328-1.39-.797zM5.72-3.125c-.735.11-1.578.172-2.39.219v-.735c1-.078 1.608-.484 1.608-1.156 0-.719-.734-1.156-1.859-1.156s-1.86.437-1.86 1.156c0 .672.626 1.094 1.626 1.156v.75c-.844.032-1.656.032-2.328.032l.062.437c1.438 0 3.438-.031 5.188-.344zM4.234.25C2.906.25 2.11-.078 2.11-.61c0-.53.797-.874 2.125-.874 1.313 0 2.125.343 2.125.875 0 .53-.812.859-2.125.859zm0-2.11c-1.656 0-2.625.454-2.625 1.25 0 .797.97 1.235 2.625 1.235C5.875.625 6.86.187 6.86-.609c0-.797-.984-1.25-2.625-1.25zM6.781-5v-2.547h-.484v5.563h.484v-2.594h1.313V-5zm0 0"/></symbol><symbol overflow="visible" id="aO"><path d="M6.719.11H2.562v-1.235H6.72zm0-1.641H2.562V-2.72h-.484V.516h5.125V-2.72H6.72zM2.75-3.844c-.938 0-1.61-.625-1.61-1.453 0-.828.673-1.437 1.61-1.437.922 0 1.594.609 1.594 1.437 0 .828-.672 1.453-1.594 1.453zm3.969-3.703v2.031H4.812c-.125-1-.937-1.64-2.062-1.64-1.219 0-2.078.75-2.078 1.86 0 1.109.86 1.874 2.078 1.874 1.14 0 1.953-.672 2.063-1.672h1.906v1.938h.484v-4.39zm0 0"/></symbol><symbol overflow="visible" id="aP"><path d="M2.813-5.547h1.671v-.422H2.828v-1.297h-.484v1.297H.672v.422h1.672v.531c0 1.391-.781 2.891-1.844 3.532l.313.359c.843-.516 1.5-1.531 1.765-2.688.297 1.094.985 2.047 1.797 2.532l.313-.39c-1.079-.579-1.875-2-1.875-3.345zm2.5 1.313H3.875v.406h1.438V.187h.484v-7.53h-.484zm1.656-3.329V.642h.468v-8.204zm0 0"/></symbol><symbol overflow="visible" id="aQ"><path d="M2.375-1.703c-.766 0-1.281-.953-1.281-2.328s.515-2.344 1.281-2.344c.766 0 1.266.969 1.266 2.344s-.5 2.328-1.266 2.328zm3-2.563H4.109c-.062-1.562-.734-2.546-1.734-2.546-1.047 0-1.734 1.078-1.734 2.78 0 1.688.687 2.782 1.734 2.782 1.016 0 1.672-1 1.734-2.594h1.266V.203h.469v-7.562h-.469zm1.61-3.296V.64h.468v-8.204zm0 0"/></symbol><symbol overflow="visible" id="aR"><path d="M1.344-1.906V-6.11h2.578v-.422H.859v5.047h.5c1.36 0 2.157-.047 3.125-.266l-.078-.422c-.922.219-1.703.266-3.047.266zm5.625-5.64v3.359H5.547v-3.157h-.469V.188h.469v-3.954h1.422V.641h.468v-8.188zm0 0"/></symbol><symbol overflow="visible" id="aS"><path d="M5.406-6.469H3.234v-1.078H2.75v1.078H.547v.407h4.86zM1.5-4c0-.656.61-1.11 1.484-1.11.875 0 1.47.454 1.47 1.11 0 .625-.595 1.094-1.47 1.094S1.5-3.375 1.5-4zm3.406 0c0-.922-.765-1.516-1.922-1.516-1.171 0-1.937.594-1.937 1.516 0 .89.766 1.484 1.937 1.484 1.157 0 1.922-.593 1.922-1.484zM2.328-1.89h-.484V.436H7.25V.031H2.328zm4.516-2.844v-2.813h-.485v6.156h.485v-2.937h1.281v-.406zm0 0"/></symbol><symbol overflow="visible" id="aT"><path d="M1.203-3.625c1.14-.219 2.547-.953 3.031-2.016.47 1.063 1.875 1.797 3.016 2.016l.188-.406c-1.22-.203-2.954-1.14-2.954-2.375v-.172h2.72V-7h-5.97v.422H3.97v.172c0 1.234-1.75 2.172-2.969 2.375zm6.734.828H.516v.406h3.453V.625h.484v-3.016h3.484zm0 0"/></symbol><symbol overflow="visible" id="aU"><path d="M5.422-3.531C4.282-3.97 3.266-5.078 3.266-6.36v-.813H2.78v.813c0 1.328-.984 2.53-2.125 2.984l.266.39c.937-.406 1.781-1.265 2.11-2.328.359 1.016 1.187 1.782 2.14 2.157zm-3.64 1.797h4.921V.64h.484v-2.797H1.782zm4.921-5.829v4.97h.484v-4.97zm0 0"/></symbol><symbol overflow="visible" id="aV"><path d="M3.266-6.797H2.78v1.64c0 1.532-1.187 3.095-2.265 3.641l.312.391C1.734-1.609 2.656-2.719 3.031-4c.375 1.234 1.313 2.281 2.203 2.75l.313-.39c-1.094-.516-2.281-2.032-2.281-3.516zm3.421-.75V.656h.485v-8.203zm0 0"/></symbol><symbol overflow="visible" id="aW"><path d="M5.203-3.438c-1.125-.39-2.047-1.39-2.047-2.515V-6.5h1.938v-.406H.719v.406h1.953v.563c0 1.25-.969 2.296-2.125 2.718l.25.39c.969-.374 1.781-1.14 2.125-2.155.344.89 1.11 1.593 2.031 1.921zM4.25.22c-1.297 0-2.156-.406-2.156-1.063 0-.656.86-1.062 2.156-1.062 1.328 0 2.172.406 2.172 1.062S5.578.22 4.25.22zm0-2.516c-1.64 0-2.64.531-2.64 1.453 0 .938 1 1.469 2.64 1.469 1.656 0 2.656-.531 2.656-1.469 0-.922-1-1.453-2.656-1.453zm2.594-3.062v-2.188h-.485v4.984h.485v-2.374h1.281v-.422zm0 0"/></symbol><symbol overflow="visible" id="aX"><path d="M.89-7v.422h3.22C4-5.031 2.655-3.828.561-3.25l.188.39C3.14-3.515 4.625-5 4.625-7zm.704 5.094h4.765V.64h.485v-2.954h-5.25zm6.531-3.469H6.844v-2.188h-.485v4.844h.485v-2.234h1.281zm0 0"/></symbol><symbol overflow="visible" id="aY"><path d="M6.719-5.563v1.375H4.562v-1.375zm-2.64 2.204H1.452v-1.672h2.625zm.484-.422h2.156v2.312h.484v-6.078H6.72v1.578H4.562v-1.047h-.484v1.579H1.453v-1.579H.97v4.079h3.594zM2.515.03v-2.094H2.03v2.5h5.375V.031zm0 0"/></symbol><symbol overflow="visible" id="aZ"><path d="M5.5-6.516H3.281v-1.046h-.5v1.046H.562v.422H5.5zm-3.89 2.5c0-.656.562-1.109 1.421-1.109.86 0 1.438.453 1.438 1.11 0 .64-.578 1.109-1.438 1.109S1.61-3.375 1.61-4.016zM3.28-2.53c1-.078 1.656-.64 1.656-1.485 0-.921-.765-1.5-1.906-1.5-1.125 0-1.875.579-1.875 1.5 0 .844.64 1.407 1.625 1.485V-1.5c-.844.031-1.656.031-2.36.031l.095.422c1.453 0 3.421-.016 5.218-.312l-.03-.391c-.766.125-1.61.188-2.423.219zm4.875-1.453H6.734v-3.563H6.25V.641h.484v-4.204h1.422zm0 0"/></symbol><symbol overflow="visible" id="ba"><path d="M7.063-4.89h-5.11v-1.86h5.031v-.422h-5.5v2.703h5.579zM4.233.218c-1.406 0-2.296-.39-2.296-1.063 0-.656.89-1.062 2.296-1.062 1.407 0 2.297.406 2.297 1.062 0 .672-.89 1.063-2.297 1.063zm0-2.516c-1.734 0-2.796.531-2.796 1.453C1.438.11 2.5.625 4.233.625 5.97.625 7.016.109 7.016-.844c0-.922-1.047-1.453-2.782-1.453zM.531-3.562v.421h7.407v-.421zm0 0"/></symbol><symbol overflow="visible" id="bb"><path d="M4.234-7.016c1.422 0 2.329.391 2.329 1.047 0 .657-.907 1.047-2.329 1.047-1.437 0-2.343-.39-2.343-1.047 0-.656.906-1.047 2.343-1.047zm0 2.485c1.782 0 2.829-.516 2.829-1.438 0-.922-1.047-1.437-2.829-1.437-1.78 0-2.843.515-2.843 1.437S2.453-4.53 4.234-4.53zM1.954-.938h5v-1.687h-5.5v.406h5.015v.906h-5V.532h5.75V.125H1.953zM.515-3.89v.422h7.421v-.422zm0 0"/></symbol><symbol overflow="visible" id="bc"><path d="M5.219-4.031c-1.14-.39-2.094-1.36-2.094-2.547v-.719h-.484v.734c0 1.313-.954 2.36-2.125 2.782l.25.406c.984-.39 1.796-1.156 2.14-2.188.328.907 1.125 1.579 2.047 1.922zM2.25-1h4.594v-1.828H1.75v.406h4.61v1.016H1.765V.53h5.406V.125H2.25zm4.594-4.656v-1.907h-.485v4.329h.485v-2h1.265v-.422zm0 0"/></symbol><symbol overflow="visible" id="bd"><path d="M2.11-6.219h1.593v4.266c-.531.016-1.078.047-1.594.047zm2.078 0h1v-.406H.718v.406h.923v4.328H.437l.079.438c1.39 0 3.312-.016 4.968-.281l-.03-.36c-.407.047-.829.094-1.266.11zm2.53-1.343v2.156H5.048v.422h1.672v1.593H5.047v.422h1.672v3.61h.484v-8.204zm0 0"/></symbol><symbol overflow="visible" id="be"><path d="M1.938-1.64H6.53V.11H1.938zM1.453.515h5.563v-2.563H1.453zm.563-6.47h4.453v1.11H2.016zm2.468 2.595v-1.079h2.47V-7.39h-.485v1.032H2.016v-1.032H1.53v2.954h2.453v1.078H.516v.421h7.421v-.421zm0 0"/></symbol><symbol overflow="visible" id="bo"><path d="M1.031-6.719v5.235h3.672V-6.72zm3.188.407v4.421H1.5v-4.421zm2.468-1.235V.641h.485v-8.188zm0 0"/></symbol><symbol overflow="visible" id="bp"><path d="M1.297-1.828v-2.094h2.547v-2.703H.797v.422h2.578v1.875H.828v2.922h.516c1.031 0 1.968-.047 3.172-.25l-.063-.422c-1.156.219-2.094.25-3.11.25zm5.672-5.734v3.328H5.547V-7.36h-.469V.203h.469v-4.016h1.422V.641h.468v-8.204zm0 0"/></symbol><symbol overflow="visible" id="bq"><path d="M7.39-7.547h-.468v5.594h.469zm-2.046 4.86h.468v-4.688h-.468v1.813H3.875v.421h1.469zm-.766-.891C3.562-4 2.844-4.968 2.844-5.922v-1.14h-.469v1.14c0 .938-.75 2.047-1.781 2.516l.281.39C1.703-3.406 2.328-4.172 2.609-5c.282.781.891 1.453 1.704 1.797zm.406 1.234H4.5v.313C4.5-.844 2.844.016 1.594.219l.203.39C2.953.391 4.28-.266 4.75-1.25 5.203-.266 6.531.39 7.688.61l.187-.391c-1.25-.203-2.89-1.063-2.89-2.25zm0 0"/></symbol><symbol overflow="visible" id="br"><path d="M4.219-6.797c1.375 0 2.312.547 2.312 1.36 0 .812-.937 1.375-2.312 1.375-1.36 0-2.313-.563-2.313-1.375 0-.813.953-1.36 2.313-1.36zm0 3.14c1.687 0 2.812-.687 2.812-1.78 0-1.079-1.125-1.766-2.812-1.766-1.672 0-2.813.687-2.813 1.766 0 1.093 1.14 1.78 2.813 1.78zm3.734.86H.516v.422h3.453V.641h.484v-3.016h3.5zm0 0"/></symbol><symbol overflow="visible" id="bs"><path d="M1.5-1.797v-2.187h3.234v-2.782H.984v.438H4.25v1.937H1.016v3.016h.656c1.344 0 2.61-.063 4.187-.313l-.046-.406a26.586 26.586 0 0 1-4.141.297zm5.188-5.75V.656h.5v-8.203zm0 0"/></symbol><symbol overflow="visible" id="bt"><path d="M3.266-6.797h-.5v1.64c0 1.485-1.11 3.048-2.188 3.626l.313.39c.906-.515 1.78-1.64 2.125-2.937.359 1.234 1.265 2.312 2.171 2.797l.282-.407c-1.078-.53-2.203-2.03-2.203-3.468zm3.453-.75v2.906H4.594v.407h2.125v4.89h.484v-8.203zm0 0"/></symbol><symbol overflow="visible" id="bu"><path d="M3.438-5.672h2v-.406h-2v-1.36h-.485v1.36H.938v.406h2.03v.828c0 1.547-1.077 2.938-2.218 3.485l.297.375c.922-.47 1.812-1.47 2.156-2.704.375 1.172 1.25 2.126 2.188 2.563l.28-.406C4.548-2.016 3.438-3.36 3.438-4.844zm3.25-1.875V.641h.5v-8.188zm0 0"/></symbol><symbol overflow="visible" id="bv"><path d="M7.39-7.547h-.468v6.156h.469zM5.345-1.625h.468v-5.75h-.468v2.016H3.875v.406h1.469zM4.562-3.25c-1.015-.438-1.718-1.438-1.718-2.406V-6.97h-.469v1.313c0 .968-.734 2.14-1.75 2.625l.266.39c.812-.39 1.453-1.203 1.718-2.062.282.781.875 1.484 1.688 1.844zM2.625.031v-2.187h-.484V.438h5.53V.03zm0 0"/></symbol><symbol overflow="visible" id="bw"><path d="M1.39-1.813V-4.03h2.907v-.422H1.39V-6.36h3.296v-.422H.908v5.39h.609c1.671 0 2.64-.062 3.796-.28l-.046-.423c-1.141.235-2.094.281-3.75.281zm5.329-5.75v3.22h-1.89v.421h1.89V.656h.484v-8.219zm0 0"/></symbol><symbol overflow="visible" id="bf"><path d="M1.11-8.594v1.14h3.124C4.031-6.108 2.766-5 .531-4.437l.547 1.125c3.016-.765 4.703-2.593 4.703-5.28zm2.5 6.625h3.843v1.657H3.61zM2.187.828h6.687v-3.937H2.187zm5.234-9.984v5.625h1.453v-5.625zm0 0"/></symbol><symbol overflow="visible" id="bg"><path d="M2.188-4.36h2.5v-1.124h-2.5V-6.97h2.718v-1.156H.813v6.766h.703c1.515 0 2.515-.032 3.687-.22l-.14-1.171c-.938.14-1.75.188-2.875.203zM7.78-9.186v3.921H6.97v-3.75h-1.36V.5h1.36v-4.594h.812V.938h1.375V-9.188zm0 0"/></symbol><symbol overflow="visible" id="bh"><path d="M6.797-7.938H4.484v-1.109H3.031v1.11H.734v1.125h6.063zM4.89-4.5c0 .531-.454.813-1.11.813-.672 0-1.125-.282-1.125-.813 0-.531.453-.813 1.125-.813.656 0 1.11.282 1.11.813zm-3.61 0c0 1.14 1.032 1.922 2.5 1.922 1.453 0 2.485-.781 2.485-1.922 0-1.14-1.032-1.922-2.485-1.922-1.469 0-2.5.781-2.5 1.922zM.703-.797c1.797.016 4.094.031 6.344-.39l-.11-1.047c-2.125.28-4.562.265-6.406.265zm6.75-8.375V.938h1.453v-10.11zm0 0"/></symbol><symbol overflow="visible" id="bj"><path d="M7.86-1.656h.796V-9H7.86v2.328H5.641V-6h2.218zM6.311-3.953c-1.39-.531-2.421-1.813-2.421-3.203v-1.266h-.797v1.235c0 1.515-1.047 2.921-2.485 3.453l.438.64A4.34 4.34 0 0 0 3.5-5.719a4.233 4.233 0 0 0 2.39 2.39zm-3.14 3.86v-2.391h-.797V.578h6.516v-.672zm0 0"/></symbol><symbol overflow="visible" id="bk"><path d="M7.828-9v5.594h.813V-9zM2.312-2.86V.657h6.329v-3.515zm5.547.657V0H3.094v-2.203zM3.375-8.484c-1.469 0-2.547.921-2.547 2.28 0 1.345 1.078 2.266 2.547 2.266 1.484 0 2.547-.921 2.547-2.265 0-1.36-1.063-2.281-2.547-2.281zm0 .656c1.031 0 1.766.672 1.766 1.625 0 .937-.735 1.594-1.766 1.594-1.031 0-1.766-.657-1.766-1.594 0-.953.735-1.625 1.766-1.625zm0 0"/></symbol><symbol overflow="visible" id="bl"><path d="M1.516-5.938c0-1 .75-1.75 1.75-1.75s1.75.75 1.75 1.75-.75 1.735-1.75 1.735-1.75-.734-1.75-1.734zm6.343-.843v1.672H5.656c.078-.25.125-.532.125-.829a2.89 2.89 0 0 0-.14-.843zm0 2.343v2.688h.797V-9H7.86v1.547H5.281c-.437-.594-1.156-.938-2.015-.938-1.438 0-2.5 1.016-2.5 2.454C.766-4.5 1.828-3.5 3.266-3.5c.859 0 1.593-.344 2.03-.938zM3.22-.093V-2.5h-.797V.578h6.515v-.672zm0 0"/></symbol><symbol overflow="visible" id="bm"><path d="M9.484-4.156H8c.281-1.407.281-2.438.281-3.375v-.844H1.734v.656h5.75v.188c0 .937 0 1.968-.296 3.375H.609v.672h4.016V.812h.797v-4.296h4.062zm0 0"/></symbol><symbol overflow="visible" id="bn"><path d="M5.781-3.203v.61h2v1.062h.813v-7.485H7.78v5.813zM3.734-8c.985 0 1.657.438 1.657 1.094 0 .656-.672 1.078-1.657 1.078-.984 0-1.64-.422-1.64-1.078C2.094-7.563 2.75-8 3.734-8zm0 2.797c1.438 0 2.422-.672 2.422-1.703 0-1.032-.984-1.719-2.422-1.719-1.421 0-2.406.688-2.406 1.719 0 1.031.984 1.703 2.406 1.703zm-.312 3.297h.812V-3.86a31.41 31.41 0 0 0 2.72-.282l-.063-.593c-2.094.28-4.532.296-6.36.296l.125.672c.813 0 1.766-.015 2.766-.062zM2.766-.094V-2.28h-.797v2.86h6.875v-.673zm0 0"/></symbol></defs><g fill="#898989"><use xlink:href="#a" x="557.645" y="819.169"/><use xlink:href="#b" x="561.924" y="819.169"/></g><g fill="#595757"><use xlink:href="#c" x="39.637" y="818.993"/><use xlink:href="#d" x="45.03" y="818.993"/><use xlink:href="#e" x="50.424" y="818.993"/><use xlink:href="#f" x="55.817" y="818.993"/><use xlink:href="#g" x="61.211" y="818.993"/><use xlink:href="#h" x="62.769" y="818.993"/><use xlink:href="#i" x="68.162" y="818.993"/><use xlink:href="#j" x="73.556" y="818.993"/><use xlink:href="#k" x="78.949" y="818.993"/><use xlink:href="#l" x="84.342" y="818.993"/><use xlink:href="#m" x="89.736" y="818.993"/><use xlink:href="#c" x="95.129" y="818.993"/><use xlink:href="#d" x="100.523" y="818.993"/></g><g fill="#595757"><use xlink:href="#n" x="105.916" y="818.993"/><use xlink:href="#o" x="107.474" y="818.993"/><use xlink:href="#p" x="112.868" y="818.993"/><use xlink:href="#q" x="118.261" y="818.993"/><use xlink:href="#r" x="123.655" y="818.993"/><use xlink:href="#n" x="129.048" y="818.993"/><use xlink:href="#s" x="130.606" y="818.993"/><use xlink:href="#t" x="136" y="818.993"/><use xlink:href="#u" x="141.393" y="818.993"/><use xlink:href="#n" x="146.786" y="818.993"/><use xlink:href="#v" x="148.345" y="818.993"/></g><g fill="#595757"><use xlink:href="#w" x="151.43" y="818.993"/><use xlink:href="#x" x="154.87" y="818.993"/><use xlink:href="#y" x="156.35" y="818.993"/><use xlink:href="#n" x="157.735" y="818.993"/><use xlink:href="#z" x="159.293" y="818.993"/><use xlink:href="#z" x="162.379" y="818.993"/></g><use xlink:href="#A" x="47.989" y="56.474"/><use xlink:href="#B" x="55.18" y="56.474"/><use xlink:href="#C" x="59.727" y="56.474"/><use xlink:href="#D" x="66.918" y="55.715"/><use xlink:href="#E" x="68.476" y="58.372"/><use xlink:href="#F" x="80.162" y="58.372"/><use xlink:href="#G" x="91.847" y="58.372"/><use xlink:href="#H" x="103.533" y="58.372"/><use xlink:href="#I" x="115.219" y="58.372"/><use xlink:href="#J" x="126.905" y="58.372"/><use xlink:href="#K" x="138.591" y="58.372"/><use xlink:href="#L" x="150.276" y="58.372"/><use xlink:href="#M" x="161.962" y="58.372"/><use xlink:href="#N" x="165.338" y="58.372"/><use xlink:href="#O" x="177.024" y="58.372"/><use xlink:href="#P" x="188.71" y="58.372"/><use xlink:href="#M" x="200.395" y="58.372"/><use xlink:href="#Q" x="203.771" y="58.372"/><use xlink:href="#R" x="215.457" y="58.372"/><use xlink:href="#S" x="227.143" y="58.372"/><use xlink:href="#M" x="238.829" y="58.372"/><use xlink:href="#T" x="242.205" y="58.372"/><use xlink:href="#U" x="253.89" y="58.372"/><use xlink:href="#M" x="265.576" y="58.372"/><use xlink:href="#V" x="268.952" y="58.372"/><use xlink:href="#W" x="280.638" y="58.372"/><use xlink:href="#X" x="292.324" y="58.372"/><use xlink:href="#M" x="304.009" y="58.372"/><use xlink:href="#Y" x="307.385" y="58.372"/><use xlink:href="#U" x="319.071" y="58.372"/><use xlink:href="#Z" x="330.757" y="58.372"/><use xlink:href="#aa" x="342.443" y="58.372"/><use xlink:href="#ab" x="354.128" y="58.372"/><use xlink:href="#M" x="365.814" y="58.372"/><use xlink:href="#ac" x="369.19" y="58.372"/><use xlink:href="#ad" x="380.876" y="58.372"/><g fill="#fff"><use xlink:href="#ae" x="495.804" y="57.112"/><use xlink:href="#af" x="502.006" y="57.112"/></g><g fill="#fff"><use xlink:href="#ag" x="508.419" y="57.112"/></g><g fill="#fff"><use xlink:href="#ah" x="514.221" y="57.112"/><use xlink:href="#ai" x="520.264" y="57.112"/></g><g fill="#fff"><use xlink:href="#ae" x="526.796" y="57.112"/></g><g fill="#fff"><use xlink:href="#aj" x="532.879" y="57.112"/></g><g fill="#fff"><use xlink:href="#ah" x="539.081" y="57.112"/></g><g><use xlink:href="#ak" x="53.793" y="194.236"/><use xlink:href="#al" x="69.074" y="194.236"/><use xlink:href="#am" x="84.356" y="194.236"/><use xlink:href="#an" x="99.637" y="194.236"/><use xlink:href="#ao" x="114.919" y="194.236"/><use xlink:href="#ap" x="130.2" y="194.236"/><use xlink:href="#aq" x="145.481" y="194.236"/><use xlink:href="#ar" x="149.896" y="194.236"/><use xlink:href="#as" x="165.177" y="194.236"/><use xlink:href="#aq" x="180.459" y="194.236"/><use xlink:href="#at" x="184.873" y="194.236"/><use xlink:href="#au" x="200.155" y="194.236"/><use xlink:href="#aq" x="215.436" y="194.236"/><use xlink:href="#av" x="219.851" y="194.236"/><use xlink:href="#aw" x="235.132" y="194.236"/></g><g><use xlink:href="#ax" x="39.637" y="354.465"/><use xlink:href="#ay" x="47.952" y="354.465"/><use xlink:href="#az" x="56.267" y="354.465"/><use xlink:href="#aA" x="64.581" y="354.465"/><use xlink:href="#aB" x="66.984" y="354.465"/><use xlink:href="#aC" x="75.298" y="354.465"/><use xlink:href="#aA" x="83.613" y="354.465"/><use xlink:href="#aD" x="86.015" y="354.465"/><use xlink:href="#aE" x="94.33" y="354.465"/><use xlink:href="#aA" x="102.645" y="354.465"/><use xlink:href="#aF" x="105.047" y="354.465"/><use xlink:href="#aG" x="113.362" y="354.465"/><use xlink:href="#aH" x="121.677" y="354.465"/><use xlink:href="#aI" x="129.992" y="354.465"/><use xlink:href="#aA" x="138.307" y="354.465"/><use xlink:href="#aJ" x="140.709" y="354.465"/><use xlink:href="#aG" x="149.024" y="354.465"/><use xlink:href="#aA" x="157.339" y="354.465"/><use xlink:href="#aK" x="159.741" y="354.465"/><use xlink:href="#aL" x="168.056" y="354.465"/><use xlink:href="#aA" x="176.37" y="354.465"/><use xlink:href="#aM" x="178.773" y="354.465"/><use xlink:href="#aN" x="187.087" y="354.465"/></g><g><use xlink:href="#aJ" x="39.637" y="373.442"/><use xlink:href="#aG" x="47.952" y="373.442"/><use xlink:href="#aA" x="56.267" y="373.442"/><use xlink:href="#aK" x="58.669" y="373.442"/><use xlink:href="#aL" x="66.984" y="373.442"/><use xlink:href="#aO" x="75.298" y="373.442"/><use xlink:href="#aP" x="83.613" y="373.442"/><use xlink:href="#aQ" x="91.928" y="373.442"/><use xlink:href="#aA" x="100.243" y="373.442"/><use xlink:href="#aR" x="102.645" y="373.442"/><use xlink:href="#aS" x="110.96" y="373.442"/><use xlink:href="#aA" x="119.275" y="373.442"/><use xlink:href="#aT" x="121.677" y="373.442"/><use xlink:href="#aU" x="129.992" y="373.442"/><use xlink:href="#aV" x="138.307" y="373.442"/><use xlink:href="#aW" x="146.622" y="373.442"/><use xlink:href="#aI" x="154.937" y="373.442"/><use xlink:href="#aA" x="163.251" y="373.442"/><use xlink:href="#aV" x="165.654" y="373.442"/><use xlink:href="#aX" x="173.968" y="373.442"/><use xlink:href="#aA" x="182.283" y="373.442"/><use xlink:href="#aY" x="184.685" y="373.442"/><use xlink:href="#aZ" x="193" y="373.442"/><use xlink:href="#aA" x="201.315" y="373.442"/><use xlink:href="#ba" x="203.717" y="373.442"/><use xlink:href="#bb" x="212.032" y="373.442"/><use xlink:href="#aA" x="220.347" y="373.442"/><use xlink:href="#bc" x="222.749" y="373.442"/><use xlink:href="#bd" x="231.064" y="373.442"/><use xlink:href="#be" x="239.379" y="373.442"/></g><g><use xlink:href="#bf" x="469.905" y="279.089"/><use xlink:href="#bg" x="479.793" y="279.089"/><use xlink:href="#bh" x="489.681" y="279.089"/><use xlink:href="#bi" x="499.569" y="279.089"/></g><g><use xlink:href="#bj" x="502.425" y="279.089"/><use xlink:href="#bk" x="512.313" y="279.089"/><use xlink:href="#bl" x="522.201" y="279.089"/><use xlink:href="#bm" x="532.089" y="279.089"/><use xlink:href="#bn" x="541.977" y="279.089"/></g><g><use xlink:href="#bo" x="458.034" y="296.528"/><use xlink:href="#bp" x="466.349" y="296.528"/><use xlink:href="#aQ" x="474.664" y="296.528"/><use xlink:href="#bq" x="482.979" y="296.528"/><use xlink:href="#aR" x="491.294" y="296.528"/><use xlink:href="#br" x="499.609" y="296.528"/><use xlink:href="#aA" x="507.923" y="296.528"/><use xlink:href="#bs" x="510.326" y="296.528"/><use xlink:href="#bt" x="518.64" y="296.528"/><use xlink:href="#bu" x="526.955" y="296.528"/><use xlink:href="#bv" x="535.27" y="296.528"/><use xlink:href="#bw" x="543.585" y="296.528"/></g><path d="M39.637 792.695h526.605" fill="none" stroke="#1f3d90" stroke-width=".99879"/></svg>