<svg xmlns="http://www.w3.org/2000/svg" xmlns:xlink="http://www.w3.org/1999/xlink" width="793.701" height="1122.52" viewBox="0 0 595.276 841.89" version="1.2"><defs><symbol overflow="visible" id="a"><path d="M1.813-2.453v-.672c.332 0 .554-.04.671-.125.207-.121.313-.332.313-.625a.775.775 0 0 0-.219-.563A.834.834 0 0 0 2-4.64c-.219 0-.395.055-.516.157-.117.105-.199.289-.25.546H.438c.082-.488.25-.847.5-1.078.257-.238.617-.359 1.078-.359.457 0 .832.145 1.125.422.289.273.437.621.437 1.047 0 .48-.195.855-.578 1.125.434.261.656.68.656 1.25 0 .48-.164.87-.484 1.172-.313.293-.723.437-1.219.437C1.316.078.848-.148.547-.609.41-.805.324-1.08.297-1.422h.766c.039.25.14.445.296.578.164.137.375.203.625.203a.868.868 0 0 0 .641-.25.946.946 0 0 0 .25-.671c0-.352-.129-.61-.375-.766-.148-.082-.379-.125-.688-.125zm0 0"/></symbol><symbol overflow="visible" id="b"><path d="M1.219-2.75A1.28 1.28 0 0 1 .64-3.86c0-.425.144-.785.437-1.078.29-.277.66-.421 1.11-.421.433 0 .8.144 1.093.421.29.282.438.645.438 1.079 0 .46-.196.832-.578 1.109.207.117.375.285.5.5.113.219.171.465.171.734 0 .47-.152.856-.453 1.157-.304.293-.695.437-1.171.437-.493 0-.895-.144-1.204-.437C.66-.66.5-1.04.5-1.5c0-.59.238-1.008.719-1.25zm.172-1.11a.778.778 0 0 0 .78.797.773.773 0 0 0 .563-.234.776.776 0 0 0 0-1.11.79.79 0 0 0-1.125 0 .742.742 0 0 0-.218.548zM1.28-1.53c0 .25.082.46.25.625a.84.84 0 0 0 .625.265.883.883 0 0 0 .625-.25.887.887 0 0 0 .25-.625.835.835 0 0 0-.265-.625.844.844 0 0 0-.61-.25.831.831 0 0 0-.61.25.8.8 0 0 0-.265.61zm0 0"/></symbol><symbol overflow="visible" id="d"><path d="M.64 0H1v-4.375H.64zm0 0"/></symbol><symbol overflow="visible" id="e"><path d="M1.453 0h.406l1.422-4.375h-.375l-.781 2.516c-.156.53-.281.937-.453 1.468H1.64c-.172-.53-.282-.937-.454-1.468l-.78-2.516H.03zm0 0"/></symbol><symbol overflow="visible" id="f"><path d="M.75-.156c.156 0 .313-.11.313-.313A.317.317 0 0 0 .75-.797a.317.317 0 0 0-.313.328c0 .203.157.313.313.313zm0 0"/></symbol><symbol overflow="visible" id="h"><path d="M.266 0h2.64v-.313h-1.36c-.234 0-.484.016-.718.032 1.156-1.078 1.86-2 1.86-2.922 0-.75-.438-1.25-1.204-1.25-.53 0-.906.266-1.234.625l.219.219c.25-.313.594-.547.984-.547.61 0 .89.422.89.968 0 .797-.593 1.688-2.077 2.97zm0 0"/></symbol><symbol overflow="visible" id="i"><path d="M1.61.078c.796 0 1.28-.75 1.28-2.281 0-1.516-.484-2.25-1.28-2.25-.798 0-1.298.734-1.298 2.25C.313-.672.813.078 1.61.078zm0-.297c-.579 0-.938-.656-.938-1.984 0-1.297.36-1.953.937-1.953.563 0 .938.656.938 1.953 0 1.328-.375 1.984-.938 1.984zm0 0"/></symbol><symbol overflow="visible" id="j"><path d="M.547 0h2.265v-.313h-.921v-4.062h-.282c-.203.125-.468.219-.828.281v.235h.766v3.546h-1zm0 0"/></symbol><symbol overflow="visible" id="k"><path d="M4.36-.938h.327v-3.968H4.36v.75H2.72v.265h1.64v.766H2.72v.266h1.64zM3.405-2.28c-.875.156-1.61.203-2.36.203H.985V-4.5H.656v2.688h.39c.766 0 1.5-.032 2.391-.204zM1.656.016v-1.282h-.312V.281h3.5V.016zm0 0"/></symbol><symbol overflow="visible" id="l"><path d="M2.016-4.422h-.313v1.063C1.703-2.391.984-1.375.281-1l.203.25c.579-.328 1.157-1.047 1.391-1.875.234.781.797 1.453 1.375 1.766l.203-.25c-.703-.36-1.437-1.329-1.437-2.25zm3.312 1.734h-.937v-2.218h-.313V.422h.313v-2.844h.937zm0 0"/></symbol><symbol overflow="visible" id="m"><path d="M4.36.078H1.671v-.812h2.687zM4.36-1H1.671v-.766h-.328v2.11h3.343v-2.11H4.36zM1.78-2.5c-.61 0-1.047-.406-1.047-.938 0-.546.438-.937 1.047-.937.61 0 1.047.39 1.047.938 0 .53-.437.937-1.047.937zM4.36-4.906v1.312H3.125c-.078-.64-.61-1.062-1.344-1.062-.797 0-1.343.5-1.343 1.218 0 .72.546 1.22 1.343 1.22.75 0 1.282-.438 1.344-1.095h1.234v1.266h.329v-2.86zm0 0"/></symbol><symbol overflow="visible" id="n"><path d="M1.266-3.203H4.25v1.11H1.266zm1.64 2.64v-1.25h1.656v-2.703H4.25v1.032H1.266v-1.032H.937v2.704h1.657v1.25H.344v.265h4.828v-.266zm0 0"/></symbol><symbol overflow="visible" id="o"><path d="M4.188-3.781c0 .64 0 1.36-.188 2.36l.328.046c.188-1.047.188-1.766.188-2.406v-.531H.859v.25h3.329zM2.625-.671V-2.61h-.313v1.937H.345v.281h4.812v-.28zm0 0"/></symbol><symbol overflow="visible" id="p"><path d="M.563 0H7v-1.61H4.906c-.437 0-1.078.048-1.562.11 1.765-1.719 3.203-3.594 3.203-5.328 0-1.797-1.203-2.969-3.031-2.969-1.313 0-2.172.531-3.047 1.469L1.5-7.297c.484-.531 1.078-.984 1.766-.984.921 0 1.453.578 1.453 1.562 0 1.469-1.547 3.282-4.157 5.61zm0 0"/></symbol><symbol overflow="visible" id="q"><path d="M3.828.188c1.953 0 3.25-1.72 3.25-5.032 0-3.312-1.297-4.953-3.25-4.953S.578-8.172.578-4.844C.578-1.53 1.875.188 3.828.188zm0-1.5c-.828 0-1.453-.829-1.453-3.532 0-2.687.625-3.468 1.453-3.468.813 0 1.438.78 1.438 3.468 0 2.703-.625 3.532-1.438 3.532zm0 0"/></symbol><symbol overflow="visible" id="r"><path d="M1.063 0h5.78v-1.547H5.032v-8.062H3.625c-.61.375-1.281.625-2.234.812v1.172h1.734v6.078H1.062zm0 0"/></symbol><symbol overflow="visible" id="w"><path d="M1.188 0h3.421c2.11 0 3.72-.89 3.72-2.828 0-1.297-.767-2.031-1.798-2.281v-.063c.813-.281 1.313-1.187 1.313-2.078 0-1.781-1.5-2.36-3.485-2.36H1.188zm1.921-5.703v-2.438H4.25c1.156 0 1.719.344 1.719 1.188 0 .766-.532 1.25-1.75 1.25zm0 4.219v-2.782h1.329c1.328 0 2.03.391 2.03 1.313 0 1-.718 1.469-2.03 1.469zm0 0"/></symbol><symbol overflow="visible" id="x"><path d="M1.031 0h1.89v-7.266h-1.89zm.953-8.438c.657 0 1.125-.437 1.125-1.046 0-.625-.468-1.032-1.125-1.032-.656 0-1.14.407-1.14 1.032 0 .609.484 1.046 1.14 1.046zm0 0"/></symbol><symbol overflow="visible" id="y"><path d="M4.063.188c1.812 0 3.5-1.407 3.5-3.813 0-2.422-1.688-3.828-3.5-3.828C2.25-7.453.578-6.047.578-3.625.578-1.219 2.25.188 4.063.188zm0-1.563c-.985 0-1.547-.89-1.547-2.25 0-1.375.562-2.266 1.546-2.266.985 0 1.547.891 1.547 2.266 0 1.36-.562 2.25-1.546 2.25zm0 0"/></symbol><symbol overflow="visible" id="z"><path d="M.64-4.266h3.563v-1.359H.641zm0 0"/></symbol><symbol overflow="visible" id="A"><path d="M2.875 0h2.281L8.11-9.61H6.156l-1.25 4.672c-.297 1.063-.515 2.032-.812 3.11H4.03c-.312-1.078-.515-2.047-.812-3.11L1.953-9.608H-.063zm0 0"/></symbol><symbol overflow="visible" id="B"><path d="M4.188.188c.906 0 1.828-.313 2.53-.813l-.64-1.172c-.516.328-1.047.516-1.64.516-1.079 0-1.86-.625-2.016-1.828h4.484c.047-.157.094-.516.094-.86 0-2.015-1.047-3.484-3.047-3.484C2.22-7.453.578-5.984.578-3.625c0 2.39 1.578 3.813 3.61 3.813zM2.405-4.36c.14-1.063.813-1.61 1.578-1.61.938 0 1.375.625 1.375 1.61zm0 0"/></symbol><symbol overflow="visible" id="C"><path d="M1.031 0h1.89v-5c.548-.531.923-.813 1.517-.813.718 0 1.03.391 1.03 1.516V0h1.907v-4.531c0-1.828-.672-2.922-2.25-2.922-.984 0-1.719.516-2.36 1.14H2.72l-.14-.953H1.03zm0 0"/></symbol><symbol overflow="visible" id="D"><path d="M3.688.188c.64 0 1.14-.157 1.53-.282l-.312-1.39a2.104 2.104 0 0 1-.718.156c-.641 0-.985-.39-.985-1.219v-3.219H5v-1.5H3.203v-1.953H1.61l-.218 1.953-1.125.079v1.421h1.03v3.22c0 1.64.657 2.733 2.391 2.733zm0 0"/></symbol><symbol overflow="visible" id="E"><path d="M3.188.188c1 0 1.687-.485 2.312-1.22h.063L5.702 0h1.563v-7.266H5.344v4.907c-.485.64-.875.906-1.469.906-.703 0-1.016-.39-1.016-1.516v-4.297H.953v4.532c0 1.828.672 2.921 2.235 2.921zm0 0"/></symbol><symbol overflow="visible" id="F"><path d="M1.031 0h1.89v-4.344c.423-1.047 1.11-1.422 1.673-1.422.297 0 .515.047.75.125l.343-1.656c-.218-.094-.453-.156-.859-.156-.75 0-1.531.516-2.062 1.469h-.047l-.14-1.282H1.03zm0 0"/></symbol><symbol overflow="visible" id="G"><path d="M5.11.188c1.234 0 2.265-.5 3.062-1.422L7.156-2.422c-.515.547-1.172.938-1.984.938-1.516 0-2.516-1.25-2.516-3.344 0-2.063 1.094-3.313 2.547-3.313.734 0 1.281.344 1.766.797l1.015-1.218c-.625-.641-1.593-1.235-2.812-1.235-2.438 0-4.469 1.86-4.469 5.031C.703-1.562 2.672.188 5.11.188zm0 0"/></symbol><symbol overflow="visible" id="H"><path d="M1.031 0h1.89v-5c.517-.547.985-.813 1.407-.813.688 0 1.016.391 1.016 1.516V0H7.25v-5c.516-.547.984-.813 1.39-.813.688 0 1.016.391 1.016 1.516V0h1.906v-4.531c0-1.828-.703-2.922-2.25-2.922-.953 0-1.656.578-2.312 1.266-.36-.797-.969-1.266-2-1.266-.953 0-1.625.516-2.234 1.156h-.047l-.14-.969H1.03zm0 0"/></symbol><symbol overflow="visible" id="I"><path d="M1.031 2.797h1.89V.578L2.876-.609c.547.5 1.156.796 1.797.796 1.594 0 3.094-1.453 3.094-3.937 0-2.234-1.063-3.703-2.86-3.703-.781 0-1.531.422-2.14.937h-.047l-.14-.75H1.03zM4.25-1.391c-.39 0-.86-.14-1.328-.546v-3.188c.5-.516.953-.75 1.437-.75 1 0 1.438.766 1.438 2.156 0 1.578-.672 2.328-1.547 2.328zm0 0"/></symbol><symbol overflow="visible" id="J"><path d="M2.203-2.656c0-.531.328-.953.797-1.36.61.813 1.344 1.579 2.172 2.25-.453.297-.938.485-1.406.485-.922 0-1.563-.563-1.563-1.375zm.969-4.688c0-.718.406-1.172.953-1.172.516 0 .734.344.734.829 0 .703-.593 1.171-1.343 1.625-.22-.454-.344-.891-.344-1.282zm6.156 5.969c-.484-.094-1.062-.344-1.687-.688A10.6 10.6 0 0 0 9.25-5.358H7.531c-.265.937-.672 1.765-1.187 2.437a12.028 12.028 0 0 1-2.078-2c1.03-.719 2.078-1.5 2.078-2.781 0-1.25-.875-2.094-2.235-2.094-1.546 0-2.53 1.11-2.53 2.453 0 .625.234 1.344.609 2.078C1.234-4.656.39-3.875.39-2.546c0 1.5 1.125 2.733 3.14 2.733 1.188 0 2.156-.39 2.953-1.015.797.5 1.625.844 2.391 1.015zm0 0"/></symbol><symbol overflow="visible" id="K"><path d="M3.578 3.156c2.438 0 3.953-1.125 3.953-2.578 0-1.281-.953-1.828-2.703-1.828H3.594c-.86 0-1.14-.203-1.14-.594 0-.281.108-.453.312-.625.312.11.656.172.937.172 1.563 0 2.797-.828 2.797-2.469 0-.453-.14-.859-.328-1.109h1.234v-1.39h-2.61a3.262 3.262 0 0 0-1.093-.188c-1.547 0-2.937.922-2.937 2.64 0 .844.468 1.532.968 1.891v.047c-.437.313-.812.828-.812 1.375 0 .594.281.969.656 1.219v.062C.922.156.547.671.547 1.281c0 1.297 1.328 1.875 3.031 1.875zm.125-6.64c-.64 0-1.14-.47-1.14-1.329s.484-1.343 1.14-1.343c.64 0 1.125.484 1.125 1.343 0 .86-.484 1.329-1.125 1.329zm.172 5.437c-1.078 0-1.75-.36-1.75-.969 0-.296.156-.578.484-.843.266.062.579.109 1.016.109H4.5c.781 0 1.219.125 1.219.64 0 .579-.766 1.063-1.844 1.063zm0 0"/></symbol><symbol overflow="visible" id="L"><path d="M3.11.188C5 .188 6-.845 6-2.11c0-1.36-1.063-1.844-2.031-2.204-.766-.28-1.469-.484-1.469-1.015 0-.406.297-.703.953-.703.547 0 1.047.265 1.578.625l.844-1.157c-.61-.453-1.406-.89-2.469-.89-1.64 0-2.703.922-2.703 2.234 0 1.203 1.063 1.766 1.985 2.11.765.312 1.515.546 1.515 1.093 0 .454-.328.766-1.047.766-.672 0-1.297-.281-1.953-.781L.343-.844C1.048-.25 2.126.187 3.11.187zm0 0"/></symbol><symbol overflow="visible" id="t"><path d="M.344 0h3.953v-.984H3.016c-.266 0-.657.03-.954.062 1.079-1.062 1.97-2.203 1.97-3.281 0-1.094-.75-1.813-1.876-1.813-.797 0-1.328.313-1.875.891l.64.64c.298-.327.657-.609 1.095-.609.562 0 .875.36.875.953 0 .922-.938 2.032-2.547 3.47zm0 0"/></symbol><symbol overflow="visible" id="u"><path d="M.625 0h1.172v-3.078c.328-.328.562-.5.937-.5.438 0 .625.25.625.937V0h1.172v-2.781c0-1.125-.406-1.797-1.375-1.797-.61 0-1.062.312-1.453.703h-.031l-.078-.594H.625zm0 0"/></symbol><symbol overflow="visible" id="v"><path d="M2.203.11c.469 0 .906-.25 1.235-.579h.03L3.564 0h.953v-6.375H3.344v1.578l.047.703c-.329-.297-.641-.484-1.141-.484-.969 0-1.875.89-1.875 2.344 0 1.468.719 2.343 1.828 2.343zM2.5-.86c-.578 0-.922-.453-.922-1.39 0-.89.422-1.36.922-1.36.281 0 .563.079.844.329v1.969c-.266.328-.531.453-.844.453zm0 0"/></symbol><symbol overflow="visible" id="M"><path d="M2.297-3.047l.219-.812c.218-.766.437-1.61.625-2.407h.046c.22.797.422 1.641.641 2.407l.219.812zM4.89 0h1.546L4.063-7.39H2.329L-.047 0h1.5l.531-1.89h2.391zm0 0"/></symbol><symbol overflow="visible" id="N"><path d="M.906 0h2.64c1.626 0 2.86-.688 2.86-2.172 0-1-.578-1.562-1.39-1.75v-.047c.64-.219 1.015-.922 1.015-1.61 0-1.374-1.156-1.812-2.672-1.812H.906zm1.485-4.39v-1.876h.875c.89 0 1.328.266 1.328.907 0 .593-.407.968-1.344.968zm0 3.25v-2.141h1.03c1.017 0 1.548.297 1.548 1.015 0 .766-.547 1.125-1.547 1.125zm0 0"/></symbol><symbol overflow="visible" id="O"><path d="M3.11.14c1.718 0 2.718-1.03 2.718-2.234 0-1.078-.594-1.64-1.484-2.015l-.969-.407c-.625-.25-1.156-.437-1.156-.968 0-.485.422-.782 1.062-.782.61 0 1.11.22 1.578.61l.735-.922C5-7.188 4.14-7.531 3.28-7.531c-1.5 0-2.547.937-2.547 2.14 0 1.079.75 1.672 1.485 1.985l1 .422c.656.28 1.11.453 1.11 1 0 .515-.423.843-1.188.843-.641 0-1.344-.328-1.875-.812L.422-.937A3.93 3.93 0 0 0 3.109.14zm0 0"/></symbol><symbol overflow="visible" id="P"><path d="M2.375 0h1.484v-6.156h2.094v-1.235H.297v1.235h2.078zm0 0"/></symbol><symbol overflow="visible" id="Q"><path d="M2.39-6.219h.954c.953 0 1.469.266 1.469 1.063 0 .797-.516 1.187-1.47 1.187h-.952zM6.579 0L4.86-3.031c.844-.328 1.407-1.016 1.407-2.125 0-1.688-1.235-2.235-2.782-2.235H.906V0h1.485v-2.797h1.03L4.939 0zm0 0"/></symbol><symbol overflow="visible" id="R"><path d="M3.922.14c.953 0 1.75-.374 2.36-1.093L5.5-1.86c-.39.421-.89.718-1.531.718-1.156 0-1.922-.968-1.922-2.578 0-1.578.844-2.547 1.953-2.547.563 0 1 .266 1.36.625l.78-.937c-.484-.5-1.234-.953-2.171-.953-1.86 0-3.422 1.437-3.422 3.86C.547-1.204 2.062.14 3.922.14zm0 0"/></symbol><symbol overflow="visible" id="S"><path d="M8.5-1.844v-4.078h4.64v-1.125H3.97v-5.625h-1.39v6.75h4.515v4.078H.89v1.125h13.828v-1.125zm0 0"/></symbol><symbol overflow="visible" id="T"><path d="M7.797.172C5.39.172 3.969-.422 3.969-1.5c0-1.063 1.422-1.656 3.828-1.656 2.375 0 3.781.594 3.781 1.656 0 1.078-1.406 1.672-3.781 1.672zm0-4.422c-3.266 0-5.234.984-5.234 2.75S4.53 1.25 7.796 1.25C11.016 1.25 13 .266 13-1.5s-1.984-2.75-5.203-2.75zM8.5-6.453V-8.22h4.578v-1.125H4.031v-2.812h8.938v-1.125H2.625v5.062h4.469v1.766H.906v1.125h13.781v-1.125zm0 0"/></symbol><symbol overflow="visible" id="U"><path d="M5.844-12.86c-2.36 0-4.078 1.454-4.078 3.579s1.718 3.594 4.078 3.594c2.375 0 4.078-1.47 4.078-3.594 0-2.125-1.703-3.578-4.078-3.578zm0 1.188c1.578 0 2.718.969 2.718 2.39 0 1.423-1.14 2.407-2.718 2.407s-2.719-.984-2.719-2.406c0-1.422 1.14-2.39 2.719-2.39zm6.078-2.312v15.28h1.39v-15.28zM1.172-2.063c2.75 0 6.437-.015 9.875-.656l-.125-1.031c-3.328.5-7.156.516-9.922.516zm0 0"/></symbol><symbol overflow="visible" id="W"><path d="M1.781-12.484v9.906h7v-9.906zm5.64 1.125v7.671h-4.28v-7.671zm4.548-2.625v15.28h1.39v-15.28zm0 0"/></symbol><symbol overflow="visible" id="X"><path d="M2.75-6.969h4.328v-5.343H1.36v1.14h4.36v3.063H1.406v5.718h1c1.89 0 3.61-.078 5.719-.421l-.11-1.157c-1.937.328-3.53.406-5.265.422zm9.75-7.015v6.015h-2.156v-5.672H9.03V.47h1.313v-7.297H12.5v8.062h1.344v-15.218zm0 0"/></symbol><symbol overflow="visible" id="Y"><path d="M7.547-3.39c-1.188-.235-3.094-1.422-3.094-2.907v-.656h-.5v.656c0 1.5-1.89 2.672-3.062 2.906l.218.407c1.094-.266 2.594-1.141 3.094-2.407.531 1.266 2.016 2.141 3.125 2.407zM4.453-.89v-2.094H3.97v2.093H.516v.407h7.437v-.407zm0 0"/></symbol><symbol overflow="visible" id="Z"><path d="M7.063-4.984H1.968v-1.829h5.015v-.421h-5.5v2.671h5.579zm-5.72 3.453h5.173V.687h.5v-2.625H1.344zM.532-3.5v.406h7.407V-3.5zm0 0"/></symbol><symbol overflow="visible" id="aa"><path d="M6.469-4.484H2.016v-1.25h4.453zm.484-2.813H6.47v1.156H2.016v-1.156H1.53v3.219h5.422zM1.984-1.766H1.5V.438h5.625V.03h-5.14zM.516-3.14v.407h3.5V-.97H4.5v-1.765h3.453v-.407zm0 0"/></symbol><symbol overflow="visible" id="ab"><path d="M3.469-1.89h-2.14v-2.344h2.14zm0-2.766h-2.14v-2.11h-.47v5.282h3.063v-5.282h-.453zm3.515-2.89v3.312H5.61v-3.11h-.468V.203h.468v-4.016h1.375V.641h.47v-8.188zm0 0"/></symbol><symbol overflow="visible" id="ac"><path d="M3.188-6.922c-1.266 0-2.157.75-2.157 1.875 0 1.11.89 1.875 2.157 1.875 1.28 0 2.171-.765 2.171-1.875 0-1.125-.89-1.875-2.171-1.875zm0 .422c.984 0 1.703.61 1.703 1.453 0 .844-.72 1.453-1.704 1.453-.968 0-1.687-.61-1.687-1.453 0-.844.719-1.453 1.688-1.453zm3.421-1.047V.656h.485v-8.203zM.656-1.234c1.5 0 3.531 0 5.422-.344l-.047-.375c-1.828.281-3.922.297-5.453.297zm0 0"/></symbol><symbol overflow="visible" id="ae"><path d="M1.203-5.14c0-.86.688-1.5 1.625-1.5.922 0 1.594.64 1.594 1.5 0 .843-.672 1.468-1.594 1.468-.937 0-1.625-.625-1.625-1.469zm3.703 0c0-1.141-.875-1.923-2.078-1.923-1.234 0-2.094.782-2.094 1.922 0 1.125.86 1.891 2.094 1.891 1.203 0 2.078-.766 2.078-1.89zM4.25.218c-1.297 0-2.156-.406-2.156-1.094 0-.656.86-1.078 2.156-1.078 1.328 0 2.172.422 2.172 1.078 0 .688-.844 1.094-2.172 1.094zm0-2.578c-1.625 0-2.64.546-2.64 1.484 0 .953 1.015 1.5 2.64 1.5 1.656 0 2.656-.547 2.656-1.5 0-.938-1-1.484-2.656-1.484zm3.86-3.422v-.422H6.843v-1.36h-.485v4.907h.485v-1.39h1.265v-.423H6.844V-5.78zm0 0"/></symbol><symbol overflow="visible" id="af"><path d="M1.328-1.813h5.203v2.5h.5v-2.921H1.328zm5.39-2.218c.22-1.11.22-1.907.22-2.563v-.547H1.484v.407H6.47v.14c0 .657 0 1.438-.25 2.563H.53v.422h7.422v-.422zm0 0"/></symbol><symbol overflow="visible" id="ag"><path d="M5.5-6.516H3.281v-1.046h-.5v1.046H.562v.422H5.5zm-3.89 2.5c0-.656.562-1.109 1.421-1.109.86 0 1.438.453 1.438 1.11 0 .64-.578 1.109-1.438 1.109S1.61-3.375 1.61-4.016zM3.28-2.53c1-.078 1.656-.64 1.656-1.485 0-.921-.765-1.5-1.906-1.5-1.125 0-1.875.579-1.875 1.5 0 .844.64 1.407 1.625 1.485V-1.5c-.844.031-1.656.031-2.36.031l.095.422c1.453 0 3.421-.016 5.218-.312l-.03-.391c-.766.125-1.61.188-2.423.219zm4.875-1.453H6.734v-3.563H6.25V.641h.484v-4.204h1.422zm0 0"/></symbol><symbol overflow="visible" id="ah"><path d="M6.484-6.063H1.5v1.625h5.625v-.375H1.969v-.89h5v-1.563H1.484v.375h5zM1.938-.827H7v-1.625H1.437v.39h5.094v.86H1.453V.516h5.828V.125H1.938zM.516-3.672v.39h7.437v-.39zm0 0"/></symbol><symbol overflow="visible" id="ai"><path d="M6.719-3.281h.484v-4.281H6.72v1.656H4.75v.437h1.969zm-1.469-.61c-1.11-.39-2.11-1.406-2.11-2.546v-.875h-.468v.875c0 1.28-.969 2.343-2.11 2.75l.266.39c.938-.375 1.766-1.14 2.094-2.14.36.89 1.172 1.593 2.078 1.921zm-2.734 4V-1h4.687v-1.813H2v.407h4.719v1.015H2.03V.516h5.516V.109zm0 0"/></symbol><symbol overflow="visible" id="aj"><path d="M4.11-3.75H1.405v-2.766H4.11zm2.609-1.984v1.203H4.594v-1.203zM4.594-4.11h2.125v1.437h.484v-4.875H6.72v1.39H4.594v-.765H.937v3.578h3.657zM4.547.219c-1.328 0-2.188-.422-2.188-1.11 0-.687.86-1.125 2.188-1.125 1.344 0 2.219.438 2.219 1.125 0 .688-.875 1.11-2.22 1.11zm0-2.625c-1.656 0-2.688.547-2.688 1.515C1.86.08 2.891.625 4.547.625c1.672 0 2.687-.547 2.687-1.516 0-.968-1.015-1.515-2.687-1.515zm0 0"/></symbol><symbol overflow="visible" id="ak"><path d="M2.969-1.703c-.875 0-1.485-.61-1.485-1.422 0-.813.61-1.422 1.485-1.422.86 0 1.484.61 1.484 1.422 0 .813-.625 1.422-1.484 1.422zm0-3.266c-1.14 0-1.953.766-1.953 1.844 0 1.094.812 1.844 1.953 1.844 1.125 0 1.937-.75 1.937-1.844 0-1.078-.812-1.844-1.937-1.844zm.219-2.515h-.485v1.28H.47v.423h4.875v-.422H3.187zm5.015 3.406H6.766v-3.484h-.5V.64h.5v-4.313h1.437zm0 0"/></symbol><symbol overflow="visible" id="al"><path d="M7.078-4.938H2.062v-2.328h-.5v2.735h5.516zm-5.062 3H1.53V.438h5.594V.017h-5.11zM.516-3.28v.422h7.437v-.422zm0 0"/></symbol><symbol overflow="visible" id="am"><path d="M4.219-6.797c1.375 0 2.312.547 2.312 1.344 0 .812-.937 1.36-2.312 1.36-1.36 0-2.313-.548-2.313-1.36 0-.797.953-1.344 2.313-1.344zm0 3.11c1.687 0 2.812-.688 2.812-1.766s-1.125-1.75-2.812-1.75c-1.688 0-2.813.672-2.813 1.75 0 1.078 1.125 1.766 2.813 1.766zm3.734.859H.516v.422h2.046V.64h.5v-3.047h2.329V.64h.484v-3.047h2.078zm0 0"/></symbol><symbol overflow="visible" id="an"><path d="M4.938-3.594c-1 .172-1.813.203-3.485.203H1.36v-1.5h3v-2.171H.86v.421h3.016v1.344H.891v2.313h.562c1.672 0 2.5-.032 3.531-.204zM1.796-1.625h4.922V.672h.484v-2.719H1.797zm4.922-5.922v1.266H4.937v.406H6.72v1.25H4.937v.422H6.72v1.687h.484v-5.03zm0 0"/></symbol><symbol overflow="visible" id="ao"><path d="M5.406-6.469H3.234v-1.078H2.75v1.078H.547v.407h4.86zM1.5-4c0-.656.61-1.11 1.484-1.11.875 0 1.47.454 1.47 1.11 0 .625-.595 1.094-1.47 1.094S1.5-3.375 1.5-4zm3.406 0c0-.922-.765-1.516-1.922-1.516-1.171 0-1.937.594-1.937 1.516 0 .89.766 1.484 1.937 1.484 1.157 0 1.922-.593 1.922-1.484zM2.328-1.89h-.484V.436H7.25V.031H2.328zm4.516-2.844v-2.813h-.485v6.156h.485v-2.937h1.281v-.406zm0 0"/></symbol><symbol overflow="visible" id="ap"><path d="M6.688-7.547V.641h.484v-8.188zm-3.782.656C1.703-6.89.875-5.78.875-4.078c0 1.719.828 2.828 2.031 2.828 1.188 0 2.031-1.11 2.031-2.828 0-1.703-.843-2.813-2.03-2.813zm0 .438c.922 0 1.563.984 1.563 2.375 0 1.406-.64 2.39-1.563 2.39-.922 0-1.562-.984-1.562-2.39 0-1.39.64-2.375 1.562-2.375zm0 0"/></symbol><symbol overflow="visible" id="aq"><path d="M2.016-1.75H1.53V.484h5.61V.078H2.016zm2.468-1.031v-1.063h2.672v-.406H1.97v-1.11h5v-1.89H1.484v.406h5v1.11H1.5v1.89h2.484v1.063H.516v.406h7.437v-.406zm0 0"/></symbol><symbol overflow="visible" id="ar"><path d="M4.234-6.86c1.407 0 2.329.47 2.329 1.204S5.64-4.453 4.233-4.453c-1.406 0-2.343-.469-2.343-1.203 0-.735.937-1.203 2.343-1.203zm0 2.813c1.735 0 2.829-.594 2.829-1.61 0-1.015-1.094-1.609-2.829-1.609-1.75 0-2.843.594-2.843 1.61 0 1.015 1.093 1.61 2.843 1.61zM2-1.937h-.484V.438h5.609V.03H2zM.516-3.173v.422h7.421v-.422zm0 0"/></symbol><symbol overflow="visible" id="as"><path d="M6.469-5.703c0 1.062 0 2.11-.297 3.5l.484.062c.282-1.437.282-2.468.282-3.562v-.953h-5.61v.406h5.14zM5.016-1.031v-2.766H4.53v2.766H2.984v-2.766h-.468v2.766H.53v.422h7.407v-.422zm0 0"/></symbol><symbol overflow="visible" id="at"><path d="M4.219-6.938c1.422 0 2.343.422 2.343 1.125 0 .704-.921 1.157-2.343 1.157-1.407 0-2.328-.453-2.328-1.157 0-.703.921-1.125 2.328-1.125zm0 2.672c1.765 0 2.843-.562 2.843-1.546 0-.97-1.078-1.532-2.843-1.532-1.75 0-2.828.563-2.828 1.532 0 .984 1.078 1.546 2.828 1.546zm1.156 2.329H3.094V-3.11h2.281zM7.938-3.11v-.422H.53v.422H2.61v1.171H1.344v.422h5.172V.641h.5v-2.579H5.859v-1.171zm0 0"/></symbol><symbol overflow="visible" id="au"><path d="M4.75-2.984C5-4.61 5-5.72 5-6.313v-.296H.89v.406h3.626c0 .594-.016 1.672-.266 3.172zM2.812-4.266h-.484v2.579c-.672.015-1.328.015-1.906.015l.094.438c1.468-.016 3.421-.047 5.171-.313l-.03-.36c-.907.11-1.891.173-2.845.204zm5.344.22H6.72v-3.516h-.5V.64h.5v-4.25h1.437zm0 0"/></symbol><symbol overflow="visible" id="av"><path d="M1.031-6.656v.422h3.266C4.172-4.204 2.922-2.47.672-1.375l.265.406c2.641-1.297 3.86-3.39 3.86-5.687zm5.672-.89V.64h.484v-8.188zm0 0"/></symbol><symbol overflow="visible" id="aw"><path d="M7.5-5.047c-1.25-.156-3.016-.937-3.016-2.078v-.39h-.5v.39c0 1.14-1.765 1.922-3.03 2.078l.171.39c1.172-.187 2.61-.78 3.11-1.75.468.97 1.906 1.563 3.093 1.75zm.438 1.453V-4H.516v.406h3.468v.985h-2.53v.39h5.015v.938h-5V.53h5.75V.125H1.953V-.906h5V-2.61H4.47v-.985zm0 0"/></symbol><symbol overflow="visible" id="ax"><path d="M6.719-5.5v1.297H4.344v.422h2.375v1.25h.484v-5.016H6.72v1.625H4.594c.093-.297.14-.64.14-.969H1.063v.407h3.14C4.078-4.891 2.656-3.672.656-3.031l.219.406C2.594-3.172 3.906-4.172 4.453-5.5zM4.579.219c-1.345 0-2.22-.453-2.22-1.14 0-.688.875-1.126 2.22-1.126 1.312 0 2.187.438 2.187 1.125 0 .688-.875 1.14-2.188 1.14zm0-2.656c-1.673 0-2.688.562-2.688 1.515C1.89.047 2.906.61 4.578.61c1.64 0 2.656-.562 2.656-1.53 0-.954-1.015-1.516-2.656-1.516zm0 0"/></symbol><symbol overflow="visible" id="ay"><path d="M1.203-3.625c1.14-.219 2.547-.953 3.031-2.016.47 1.063 1.875 1.797 3.016 2.016l.188-.406c-1.22-.203-2.954-1.14-2.954-2.375v-.172h2.72V-7h-5.97v.422H3.97v.172c0 1.234-1.75 2.172-2.969 2.375zm6.734.828H.516v.406h3.453V.625h.484v-3.016h3.484zm0 0"/></symbol><symbol overflow="visible" id="az"><path d="M2.234 1.125l.329-.172c-.813-1.297-1.22-2.86-1.22-4.469 0-1.593.407-3.171 1.22-4.453l-.329-.172C1.391-6.78.891-5.312.891-3.516c0 1.813.5 3.282 1.343 4.641zm0 0"/></symbol><symbol overflow="visible" id="aA"><path d="M2.313.125c.218 0 .53-.094.812-.188L3-.483c-.172.078-.422.14-.594.14-.656 0-.828-.406-.828-1.015v-3.11h1.406v-.453H1.578v-1.422h-.453l-.063 1.422-.78.047v.406h.765v3.063c0 .922.297 1.531 1.266 1.531zm0 0"/></symbol><symbol overflow="visible" id="aB"><path d="M.922 0h.531v-3.688c.578-.593.984-.89 1.563-.89.75 0 1.078.484 1.078 1.5V0h.531v-3.156c0-1.25-.469-1.89-1.5-1.89-.672 0-1.172.39-1.672.874v-3.172H.922zm0 0"/></symbol><symbol overflow="visible" id="aC"><path d="M2.813.125c.703 0 1.171-.234 1.562-.484L4.172-.75c-.375.25-.781.422-1.313.422-1.062 0-1.765-.844-1.796-2.047h3.484c.031-.125.031-.25.031-.39 0-1.438-.703-2.282-1.906-2.282-1.11 0-2.156 1-2.156 2.594 0 1.61 1.03 2.578 2.296 2.578zm-1.75-2.922c.093-1.125.828-1.797 1.625-1.797.859 0 1.406.61 1.406 1.797zm0 0"/></symbol><symbol overflow="visible" id="aD"><path d="M.922 0h.531v-3.313c.36-.906.89-1.234 1.328-1.234a.91.91 0 0 1 .453.094l.11-.484c-.156-.094-.313-.11-.5-.11-.578 0-1.063.422-1.39 1.047h-.016l-.079-.922H.922zm0 0"/></symbol><symbol overflow="visible" id="aE"><path d="M2.016.125c.625 0 1.218-.344 1.718-.75h.016L3.797 0h.453v-3.125c0-1.078-.406-1.922-1.578-1.922-.813 0-1.485.39-1.875.64l.25.391c.344-.265.906-.562 1.547-.562.937 0 1.14.75 1.125 1.484-2.172.25-3.14.766-3.14 1.86 0 .906.64 1.359 1.437 1.359zm.109-.453c-.547 0-1-.266-1-.938 0-.75.656-1.203 2.594-1.437v1.61c-.578.5-1.047.765-1.594.765zm0 0"/></symbol><symbol overflow="visible" id="aF"><path d="M2.766.125c.625 0 1.156-.266 1.578-.64l-.266-.376c-.328.297-.766.547-1.281.547-1.031 0-1.719-.86-1.719-2.11 0-1.265.75-2.124 1.734-2.124.454 0 .813.203 1.126.5l.296-.375c-.343-.297-.78-.594-1.437-.594-1.219 0-2.281.953-2.281 2.594 0 1.625.968 2.578 2.25 2.578zm0 0"/></symbol><symbol overflow="visible" id="aG"><path d="M2.906.125c1.14 0 2.156-.984 2.156-2.672 0-1.5-.656-2.5-1.968-2.5-.594 0-1.172.344-1.656.75l.015-.937v-2.11H.922V0h.437l.063-.5h.016c.453.375 1 .625 1.468.625zM2.86-.344c-.359 0-.89-.172-1.406-.61v-2.843c.563-.5 1.063-.781 1.531-.781 1.11 0 1.516.86 1.516 2.031 0 1.328-.688 2.203-1.64 2.203zm0 0"/></symbol><symbol overflow="visible" id="aH"><path d="M1.688 0h.64l.797-2.953c.156-.469.266-.938.39-1.422h.047c.126.484.22.938.36 1.406L4.75 0h.703l1.375-4.922h-.516l-.843 3.11c-.125.468-.235.89-.344 1.328h-.031c-.14-.438-.25-.86-.36-1.329l-.89-3.109h-.578l-.891 3.11c-.11.453-.219.89-.344 1.328h-.047c-.093-.438-.203-.86-.312-1.329l-.86-3.109H.235zm0 0"/></symbol><symbol overflow="visible" id="aI"><path d="M.922 0h.531v-3.688c.578-.593.984-.89 1.563-.89.75 0 1.078.484 1.078 1.5V0h.531v-3.156c0-1.25-.469-1.89-1.5-1.89-.672 0-1.172.39-1.672.874h-.016l-.078-.75H.922zm0 0"/></symbol><symbol overflow="visible" id="aJ"><path d="M2.563.125c.624 0 1.171-.344 1.578-.75h.015L4.22 0h.437v-7.344h-.531v2l.047.89c-.484-.374-.89-.593-1.469-.593-1.172 0-2.187 1-2.187 2.594 0 1.656.812 2.578 2.046 2.578zm.093-.469c-1 0-1.562-.844-1.562-2.11 0-1.218.718-2.124 1.656-2.124.469 0 .875.172 1.375.61v2.843c-.484.5-.953.781-1.469.781zm0 0"/></symbol><symbol overflow="visible" id="aK"><path d="M2.344.125c.672 0 1.172-.39 1.656-.938h.031L4.078 0h.453v-4.922h-.547v3.594c-.546.672-.953.969-1.53.969-.75 0-1.063-.47-1.063-1.485v-3.078H.844v3.156c0 1.25.469 1.891 1.5 1.891zm0 0"/></symbol><symbol overflow="visible" id="aL"><path d="M.922 0h.531v-4.922H.922zm.281-6.078c.234 0 .453-.172.453-.422 0-.281-.218-.438-.453-.438-.25 0-.453.157-.453.438 0 .25.203.422.453.422zm0 0"/></symbol><symbol overflow="visible" id="aM"><path d="M2.75.125c1.188 0 2.219-.953 2.219-2.578 0-1.64-1.032-2.594-2.219-2.594-1.203 0-2.234.953-2.234 2.594C.516-.828 1.546.125 2.75.125zm0-.469c-.969 0-1.672-.86-1.672-2.11 0-1.265.703-2.124 1.672-2.124.953 0 1.656.86 1.656 2.125 0 1.25-.703 2.11-1.656 2.11zm0 0"/></symbol><symbol overflow="visible" id="aN"><path d="M1.578.125c.172 0 .266-.031.36-.063l-.079-.421c-.109.015-.14.015-.171.015-.141 0-.235-.094-.235-.328v-6.672H.922v6.61c0 .578.219.859.656.859zm0 0"/></symbol><symbol overflow="visible" id="aO"><path d="M2.547 2.344c1.437 0 2.36-.813 2.36-1.672 0-.781-.532-1.14-1.641-1.14H2.219c-.703 0-.922-.266-.922-.61 0-.313.187-.516.39-.688.22.125.532.204.797.204.97 0 1.735-.72 1.735-1.735 0-.5-.219-.922-.5-1.187h1.11v-.438H3.14a1.812 1.812 0 0 0-.657-.125c-.968 0-1.765.719-1.765 1.734 0 .594.312 1.094.625 1.344v.032c-.219.171-.547.5-.547.921 0 .391.203.641.453.797v.047C.797.125.516.562.516 1c0 .828.796 1.344 2.03 1.344zM2.484-1.97c-.656 0-1.234-.531-1.234-1.343 0-.813.563-1.313 1.234-1.313.672 0 1.22.5 1.22 1.313 0 .812-.579 1.343-1.22 1.343zm.125 3.907c-1.015 0-1.593-.407-1.593-1 0-.344.187-.704.609-1 .25.062.516.093.625.093h1c.734 0 1.125.188 1.125.719 0 .594-.703 1.188-1.766 1.188zm0 0"/></symbol><symbol overflow="visible" id="aP"><path d="M.781 2.219c.906 0 1.406-.797 1.703-1.64l1.922-5.5H3.86l-1 3.015c-.14.422-.296.937-.453 1.375H2.36C2.188-.97 2-1.484 1.844-1.906L.704-4.922H.124l2.016 5L2 .484c-.234.72-.64 1.25-1.219 1.25-.14 0-.297-.03-.406-.078l-.11.453c.126.063.329.11.516.11zm0 0"/></symbol><symbol overflow="visible" id="aQ"><path d="M.672 1.125c.844-1.36 1.344-2.828 1.344-4.64 0-1.797-.5-3.266-1.344-4.626l-.328.172c.797 1.282 1.219 2.86 1.219 4.453 0 1.61-.422 3.172-1.22 4.47zm0 0"/></symbol><symbol overflow="visible" id="aR"><path d="M2.75-6.672c.922 0 1.594.656 1.594 1.5S3.672-3.688 2.75-3.688s-1.594-.64-1.594-1.484.672-1.5 1.594-1.5zm3.969.75v1.469H4.687a2.1 2.1 0 0 0 .125-.719c0-.266-.062-.531-.14-.75zm0 1.875v1.219h.484v-4.735H6.72v1.235H4.437c-.375-.469-.968-.75-1.687-.75-1.203 0-2.063.781-2.063 1.906s.86 1.906 2.063 1.906c.734 0 1.344-.296 1.703-.78zM6.25-2.594h-.484v.672c0 .64-.47 1.563-1.297 2.047-.828-.438-1.282-1.266-1.282-2.047v-.672H2.72v.672C2.719-1.14 2-.219 1 .172l.25.375c.797-.313 1.406-.922 1.688-1.61A2.7 2.7 0 0 0 4.484.625C5.25.265 5.766-.422 6-1.094c.281.719.89 1.328 1.719 1.64l.25-.374C6.937-.188 6.25-1.078 6.25-1.922zm0 0"/></symbol><symbol overflow="visible" id="aS"><path d="M1.39-1.86v-4.468h3.298v-.406H.89v5.296h.625c1.609 0 2.656-.062 3.937-.296l-.062-.422c-1.235.219-2.282.297-3.875.297zm6.813-2.327H6.766v-3.36h-.5V.656h.5V-3.78h1.437zm0 0"/></symbol><symbol overflow="visible" id="aT"><path d="M1.156-.234a.478.478 0 0 0 .469-.5c0-.313-.234-.5-.469-.5-.25 0-.468.187-.468.5 0 .312.218.5.468.5zm0 0"/></symbol><symbol overflow="visible" id="aU"><path d="M6.406-5.89c0 .952 0 2.218-.328 3.952l.484.063c.329-1.828.329-3.031.329-4.016v-.734H1.359v.422h5.047zM.516-1.048v.406h7.421v-.406zm0 0"/></symbol><symbol overflow="visible" id="aV"><path d="M1.328-1.766V-4h3.14v-2.766H.829v.438h3.156v1.906H.844v3.063h.594c1.546 0 2.562-.047 3.812-.282l-.047-.421c-1.219.234-2.234.296-3.766.296zm5.375-5.78v3.265H4.984v.406h1.72V.656h.484v-8.203zm0 0"/></symbol><symbol overflow="visible" id="aW"><path d="M1.39-1.906v-4.86h-.5v5.282h.626c1.265 0 2.484-.094 3.921-.375l-.078-.407a19.79 19.79 0 0 1-3.843.36zm6.798-2.282H6.766v-3.375h-.5V.642h.5v-4.407h1.421zm0 0"/></symbol><symbol overflow="visible" id="aX"><path d="M1.11-3.016c.968-.343 1.812-1.03 2.156-2.015.359.922 1.218 1.593 2.187 1.922l.219-.375c-1.14-.36-2.156-1.297-2.156-2.485v-.047h2.03v-.406h-2.03V-7.5h-.5v1.078H1.03v.406h1.985v.047c0 1.235-1 2.203-2.141 2.578zm2.406-.28h-.5v1.687c-.875.03-1.72.03-2.438.03l.078.438c1.5 0 3.531 0 5.407-.359l-.032-.36a22.45 22.45 0 0 1-2.515.22zm3.093-4.25V.655h.485v-8.203zm0 0"/></symbol><symbol overflow="visible" id="aY"><path d="M2.016-2.234H1.53V.437h5.672V.017H2.016zm4.703-1.47c.234-1.202.234-2.062.234-2.765v-.593H1.484v.421H6.47v.172c0 .703 0 1.563-.25 2.766H.516v.422h7.437v-.422zm0 0"/></symbol><symbol overflow="visible" id="aZ"><path d="M1.547-2.703l.406-1.219c.266-.781.5-1.5.734-2.312h.032c.25.812.469 1.53.75 2.312l.406 1.219zM4.766 0h.593L3-6.734h-.578L.078 0h.547l.766-2.266h2.625zm0 0"/></symbol><symbol overflow="visible" id="ba"><path d="M.984 0h.547v-6.734H.984zm0 0"/></symbol><symbol overflow="visible" id="bb"><path d="M7.063-4.89h-5.11v-1.86h5.031v-.422h-5.5v2.703h5.579zM4.233.218c-1.406 0-2.296-.39-2.296-1.063 0-.656.89-1.062 2.296-1.062 1.407 0 2.297.406 2.297 1.062 0 .672-.89 1.063-2.297 1.063zm0-2.516c-1.734 0-2.796.531-2.796 1.453C1.438.11 2.5.625 4.233.625 5.97.625 7.016.109 7.016-.844c0-.922-1.047-1.453-2.782-1.453zM.531-3.562v.421h7.407v-.421zm0 0"/></symbol><symbol overflow="visible" id="bc"><path d="M4.156-4.078h-2.75v-1.453h2.75zm.485-3.156h-.485v1.296h-2.75v-1.296H.922v3.562H4.64zM2.25-1h4.594v-1.828H1.75v.39h4.61v1.047H1.765V.531h5.406V.125H2.25zm4.594-4.688v-1.875h-.485v4.282h.485v-1.985h1.265v-.421zm0 0"/></symbol><symbol overflow="visible" id="bd"><path d="M4.86-5.203v.406h1.859v3.281h.484v-6.03H6.72v2.343zm.437 1.937c-1.125-.406-2.078-1.437-2.078-2.546v-.594H5.14v-.422H.78v.422H2.75v.593c0 1.235-1.016 2.344-2.156 2.766l.265.39c.954-.374 1.797-1.187 2.125-2.218.344.906 1.141 1.656 2.063 2.016zM2.563.031v-2.094h-.485v2.5h5.375V.031zm0 0"/></symbol><symbol overflow="visible" id="be"><path d="M2.375-1.703c-.766 0-1.281-.953-1.281-2.328s.515-2.344 1.281-2.344c.766 0 1.266.969 1.266 2.344s-.5 2.328-1.266 2.328zm3-2.563H4.109c-.062-1.562-.734-2.546-1.734-2.546-1.047 0-1.734 1.078-1.734 2.78 0 1.688.687 2.782 1.734 2.782 1.016 0 1.672-1 1.734-2.594h1.266V.203h.469v-7.562h-.469zm1.61-3.296V.64h.468v-8.204zm0 0"/></symbol><symbol overflow="visible" id="bf"><path d="M1.297-6.25h1.562v-.422H.813v5.078h.328c.406 0 1.062 0 1.89-.187l-.062-.422A8.812 8.812 0 0 1 1.297-2zm2.531 0H5.5v-.422H3.36v5.078h.359c.765 0 1.39-.015 2.187-.203l-.062-.422C5.14-2.047 4.5-2 3.828-2zm4.36 2.016H6.875v-3.329h-.5V.642h.5v-4.47h1.313zm0 0"/></symbol><symbol overflow="visible" id="bg"><path d="M1.344-1.797v-2.172H4.5v-2.797H.828v.438h3.188v1.937H.859v3.016h.625c1.657 0 2.72-.063 4.016-.313l-.047-.421c-1.266.25-2.344.312-3.969.312zm6.86-2.39H6.765v-3.36h-.5V.656h.5V-3.78h1.437zm0 0"/></symbol><symbol overflow="visible" id="bh"><path d="M5.344-5.219H3.89C3.969-5.64 4-6.047 4-6.469H.875v.407h2.656c-.11 1.765-1.11 3.437-2.953 4.53l.313.376c1.546-.953 2.484-2.235 2.89-3.64h1.563v1.64H3.64v.422h1.703V.187h.468v-7.515h-.468zm1.625-2.328V.641h.468v-8.188zm0 0"/></symbol><symbol overflow="visible" id="bi"><path d="M1.328-5.125c0-.844.688-1.453 1.656-1.453.954 0 1.657.61 1.657 1.453 0 .844-.704 1.453-1.657 1.453-.968 0-1.656-.61-1.656-1.453zm1.906 1.86c1.11-.094 1.875-.813 1.875-1.86C5.11-6.25 4.234-7 2.984-7s-2.14.75-2.14 1.875c0 1.047.781 1.766 1.906 1.86v1.578a62.82 62.82 0 0 1-2.328.046l.094.422c1.468.016 3.437-.031 5.187-.312l-.047-.375c-.765.11-1.593.172-2.422.203zm4.922-.813H6.72v-3.484h-.485V.64h.485v-4.297h1.437zm0 0"/></symbol><symbol overflow="visible" id="bj"><path d="M7.188-7.547h-.485V-1.5h.484zM1.234-4.984c0-.875.688-1.532 1.594-1.532.922 0 1.61.657 1.61 1.532 0 .89-.688 1.562-1.61 1.562-.906 0-1.594-.672-1.594-1.562zm3.672 0c0-1.157-.875-1.97-2.078-1.97-1.187 0-2.078.813-2.078 1.97 0 1.187.89 2 2.078 2 1.203 0 2.078-.813 2.078-2zM2.531.03V-2.14h-.484V.438h5.422V.03zm0 0"/></symbol><symbol overflow="visible" id="bk"><path d="M.89-6.906v.422h3.235C3.985-4.86 2.578-3.578.578-2.922l.219.406C3.078-3.28 4.64-4.844 4.64-6.906zM2.329-2.11h-.484V.437H7.25V.031H2.328zm4.5-2.844v-2.594h-.484v6.063h.484v-3.047h1.297v-.422zm0 0"/></symbol><symbol overflow="visible" id="bl"><path d="M.922 0h.531v-3.688c.516-.593 1-.89 1.422-.89.734 0 1.063.484 1.063 1.5V0h.546v-3.688c.516-.593.97-.89 1.422-.89.719 0 1.063.484 1.063 1.5V0H7.5v-3.156c0-1.25-.484-1.89-1.484-1.89-.563 0-1.11.39-1.657 1-.171-.61-.578-1-1.359-1-.547 0-1.11.39-1.547.874h-.016l-.078-.75H.922zm0 0"/></symbol><symbol overflow="visible" id="bm"><path d="M.984-6.656v.422h3.22c-.126 2-1.345 3.75-3.563 4.843L.92-1c2.61-1.297 3.766-3.406 3.766-5.656zm7.204 2.531H6.766v-3.422h-.5V.641h.5v-4.329h1.421zm0 0"/></symbol><symbol overflow="visible" id="bn"><path d="M2-1.969h-.484V.438H7.14V.03H2zm2.469-1.187V-4.47h2.61v-.406H2.062v-2.344h-.485v2.75h2.406v1.313H.531v.406h7.407v-.406zm0 0"/></symbol><symbol overflow="visible" id="bo"><path d="M3.484-3.484h1.891v-.407H1.719v-2.437h3.625v-.438h-4.11v3.282h1.75v1.78c-.843.032-1.671.048-2.406.048l.078.422c1.578 0 3.61-.047 5.407-.313l-.032-.36c-.828.095-1.687.157-2.547.188zM6.61-7.547V.656h.485v-8.203zm0 0"/></symbol><symbol overflow="visible" id="bp"><path d="M3.266-6.797H2.78v1.64c0 1.532-1.187 3.095-2.265 3.641l.312.391C1.734-1.609 2.656-2.719 3.031-4c.375 1.234 1.313 2.281 2.203 2.75l.313-.39c-1.094-.516-2.281-2.032-2.281-3.516zm3.421-.75V.656h.485v-8.203zm0 0"/></symbol><symbol overflow="visible" id="bq"><path d="M5.203-3.39C4.078-3.798 3.156-4.813 3.156-5.97v-.547h1.938v-.406H.719v.406h1.953v.547c0 1.266-.985 2.328-2.125 2.75l.25.39c.969-.374 1.781-1.155 2.125-2.155.344.906 1.11 1.625 2.031 1.984zm-3.61 1.656H6.36V.64h.485v-2.782h-5.25zm6.532-3.563H6.844v-2.25h-.485v4.922h.485v-2.25h1.281zm0 0"/></symbol><symbol overflow="visible" id="br"><path d="M4.469-.906v-2.406h2.61v-.407h-5.11v-3.11h-.485v3.516h2.5v2.407H.516v.422h7.437v-.422zm0 0"/></symbol><symbol overflow="visible" id="bs"><path d="M4.234.234c-1.406 0-2.296-.406-2.296-1.062 0-.672.89-1.063 2.296-1.063 1.407 0 2.297.391 2.297 1.063 0 .656-.89 1.062-2.297 1.062zm0-2.53c-1.734 0-2.796.53-2.796 1.468C1.438.109 2.5.625 4.233.625 5.97.625 7.016.109 7.016-.828c0-.938-1.047-1.469-2.782-1.469zm.22-1.11V-4.5h2.609v-.422h-5.11v-1.844h5.031v-.406h-5.5V-4.5h2.5v1.094H.531v.422h7.407v-.422zm0 0"/></symbol><symbol overflow="visible" id="bt"><path d="M1.172-4.281c1.203-.172 2.61-.766 3.062-1.735.454.97 1.86 1.563 3.063 1.735l.172-.407C6.203-4.843 4.53-5.563 4.53-6.671v-.078h2.735v-.406H1.203v.406h2.75v.078c0 1.11-1.687 1.828-2.969 1.984zm3.062 4.5c-1.421 0-2.296-.36-2.296-1 0-.61.875-.985 2.296-.985 1.407 0 2.297.375 2.297.985 0 .64-.89 1-2.297 1zm0-2.375c-1.75 0-2.796.5-2.796 1.375C1.438.125 2.484.625 4.233.625c1.735 0 2.782-.5 2.782-1.406 0-.875-1.047-1.375-2.782-1.375zm.235-1.219v-1.281h-.485v1.281H.516v.406h7.421v-.406zm0 0"/></symbol><symbol overflow="visible" id="bu"><path d="M4.14-4.234H1.407v-2.422h2.735zm.47-2.829H.921v3.235h3.687zM2.25-1.046h4.594v-1.86H1.75v.407h4.61v1.063H1.765V.516h5.406V.109H2.25zm4.594-4.625v-1.89h-.485v4.234h.485v-1.938h1.265v-.406zm0 0"/></symbol><symbol overflow="visible" id="bv"><path d="M1.203-5.14c0-.876.688-1.5 1.61-1.5.937 0 1.609.624 1.609 1.5 0 .843-.672 1.468-1.61 1.468-.921 0-1.609-.625-1.609-1.469zm3.703 0c0-1.141-.875-1.923-2.093-1.923-1.22 0-2.079.782-2.079 1.922 0 1.125.86 1.891 2.079 1.891 1.218 0 2.093-.766 2.093-1.89zm-2.64 3.187h4.093V.109H2.266zM1.796.516h5.048V-2.36H1.797zm6.329-5.954H6.844v-2.125h-.485v4.782h.485v-2.235h1.281zm0 0"/></symbol><symbol overflow="visible" id="bw"><path d="M4.219-7.063c1.437 0 2.343.391 2.343 1.047 0 .657-.906 1.047-2.343 1.047-1.422 0-2.328-.39-2.328-1.047 0-.656.906-1.046 2.328-1.046zm0 2.485c1.781 0 2.843-.516 2.843-1.438 0-.921-1.062-1.437-2.843-1.437-1.766 0-2.828.516-2.828 1.437 0 .922 1.062 1.438 2.828 1.438zm3.718 1.047v-.406H.532v.406h3.453v.906h-2.53v.406h5.015v.906h-5V.532h5.75V.125H1.953V-.938h5v-1.687H4.47v-.906zm0 0"/></symbol><symbol overflow="visible" id="bx"><path d="M6.688-7.563v8.22h.484v-8.22zm-5.657.72v5.484h3.766v-5.485h-.5v2.266H1.516v-2.266zm.485 2.671h2.78v2.39h-2.78zm0 0"/></symbol><symbol overflow="visible" id="by"><path d="M2.828-6.75h-.453v1.688c0 1.406-.828 2.89-1.906 3.5l.328.359c.828-.5 1.515-1.516 1.812-2.672.297 1.063.954 2 1.766 2.484l.313-.375c-1.063-.593-1.86-2.015-1.86-3.328zm4.156-.797v3.36H5.625v-3.157h-.469V.22h.469v-4h1.36V.64h.468v-8.188zm0 0"/></symbol><symbol overflow="visible" id="bz"><path d="M4.469-.844v-1.734h2.718v-.406H1.97v-1.594h5.015v-2.313H1.47v.407h5.047v1.5H1.5v2.406h2.484v1.734H.516v.422h7.453v-.422zm0 0"/></symbol><symbol overflow="visible" id="bA"><path d="M4.219-6.906c1.39 0 2.328.484 2.328 1.203 0 .719-.938 1.203-2.328 1.203-1.36 0-2.313-.484-2.313-1.203 0-.719.953-1.203 2.313-1.203zm0 2.812c1.734 0 2.843-.61 2.843-1.61S5.954-7.312 4.22-7.312c-1.703 0-2.813.61-2.813 1.61s1.11 1.61 2.813 1.61zM2-1.906h-.484V.437H7.14V.017H2zM.516-3.281v.406h3.53v1.828h.5v-1.828h3.407v-.406zm0 0"/></symbol><symbol overflow="visible" id="bB"><path d="M6.719-1.938h.484v-5.609H6.72v2.39H4.734v.423H6.72zM1.062-6.89v.422h3.141c-.125 1.61-1.531 2.86-3.516 3.5l.22.406c2.28-.75 3.812-2.28 3.812-4.328zM4.86-2.703h-.484v.437c0 1.344-1.563 2.235-2.844 2.5l.219.391C2.875.359 4.156-.313 4.625-1.391 5.094-.328 6.359.344 7.485.594l.202-.375C6.407-.062 4.86-.938 4.86-2.266zm0 0"/></symbol><symbol overflow="visible" id="bC"><path d="M2.703-1.688c-.906 0-1.547-.984-1.547-2.39 0-1.39.64-2.375 1.547-2.375.89 0 1.531.984 1.531 2.375 0 1.406-.64 2.39-1.53 2.39zm0-5.203C1.516-6.89.688-5.78.688-4.078c0 1.719.828 2.828 2.015 2.828 1.172 0 2-1.11 2-2.828 0-1.703-.828-2.813-2-2.813zm5.5 2.72H6.766v-3.376h-.5V.641h.5v-4.407h1.437zm0 0"/></symbol><symbol overflow="visible" id="bD"><path d="M1.578-1.953V-6.75h-.484v5.219h.64c1.329 0 2.594-.11 4.032-.407l-.079-.421c-1.39.296-2.671.406-3.953.406zm5.094-5.594V.641h.484v-8.188zm0 0"/></symbol><symbol overflow="visible" id="bE"><path d="M3.297-6.266h2.062v-.421H.781v.421h2.031v1.391c0 1.438-1.203 2.984-2.265 3.531l.312.39c.891-.484 1.844-1.609 2.204-2.843.374 1.188 1.328 2.203 2.234 2.64l.297-.39c-1.11-.5-2.297-1.906-2.297-3.328zm3.39-1.28V.64h.485v-8.188zm0 0"/></symbol><symbol overflow="visible" id="bF"><path d="M4.14-3.5H1.407v-2.875h2.735zm.47-3.281H.921v3.687h3.687zM2.327-2.094h-.484V.437H7.25V.031H2.328zm4.516-2.89v-2.594h-.485v6.047h.485v-3.047h1.281v-.406zm0 0"/></symbol><symbol overflow="visible" id="bG"><path d="M.64 1.281C1.298.938 1.75.328 1.75-.469c0-.469-.203-.765-.547-.765-.266 0-.484.156-.484.453 0 .297.219.469.469.469.046 0 .078 0 .109-.016 0 .578-.313 1-.813 1.25zm0 0"/></symbol><symbol overflow="visible" id="bH"><path d="M6.453-5.828c0 .984 0 2.11-.297 3.64l.5.079c.282-1.61.282-2.72.282-3.72v-.827h-5.61v.406h5.125zM4.047-1.031v-3h-.484v3H.53v.422h7.407v-.422zm0 0"/></symbol><symbol overflow="visible" id="bI"><path d="M4.469-.875v-2.328h2.593v-.422H2v-2.813h4.969v-.421H1.516v3.656h2.468v2.328H.516v.422h7.437v-.422zm0 0"/></symbol><symbol overflow="visible" id="bJ"><path d="M7.469-4.781C6.266-4.953 4.484-5.86 4.484-7.016v-.437h-.5v.437c0 1.172-1.765 2.063-3 2.235l.204.406c1.156-.219 2.562-.875 3.046-1.89.5 1 1.922 1.671 3.047 1.89zm.468 1.61v-.423H.516v.422h3.468v1.188h-2.64v.421h5.172V.642h.5v-2.625H4.469v-1.188zm0 0"/></symbol><symbol overflow="visible" id="bK"><path d="M6.719-1.531h.484v-6.016H6.72v1.453H4.953v.422H6.72v1.422H4.953v.406H6.72zM4.953-3.313c-1.016.172-1.844.204-3.5.204H1.36v-1.594h2.985V-6.97H.859v.407h3v1.453H.875v2.421h.578c1.656 0 2.5-.03 3.563-.218zM2.5-.03v-1.922h-.484V.39h5.468v-.422zm0 0"/></symbol><symbol overflow="visible" id="bL"><path d="M.781-6.656v.422h1.781C2.47-4.625 1.875-2.875.579-1.563l.406.282C2.47-2.844 3.016-4.86 3.016-6.656zm2.485 0v.422H4.78c-.062 1.64-.484 3.734-1.86 5.25l.423.265c1.562-1.797 1.89-4.187 1.89-5.937zm4.968 2.578H6.922v-3.484h-.5V.64h.5v-4.297h1.312zm0 0"/></symbol><symbol overflow="visible" id="bM"><path d="M2.578-1.75c-.75 0-1.297-.61-1.297-1.406 0-.781.547-1.406 1.297-1.406.75 0 1.297.625 1.297 1.406 0 .797-.547 1.406-1.297 1.406zm0-3.234c-1 0-1.734.75-1.734 1.828s.734 1.828 1.734 1.828c1.016 0 1.75-.75 1.75-1.828s-.734-1.828-1.75-1.828zm.25-2.313h-.484v1.25H.516v.406h4.14v-.406H2.828zm4.094-.25v3.516H5.625v-3.313h-.484V.22h.484V-3.61h1.297V.64h.484v-8.188zm0 0"/></symbol><symbol overflow="visible" id="bN"><path d="M2.813-5.547h1.671v-.422H2.828v-1.297h-.484v1.297H.672v.422h1.672v.531c0 1.391-.781 2.891-1.844 3.532l.313.359c.843-.516 1.5-1.531 1.765-2.688.297 1.094.985 2.047 1.797 2.532l.313-.39c-1.079-.579-1.875-2-1.875-3.345zm2.5 1.313H3.875v.406h1.438V.187h.484v-7.53h-.484zm1.656-3.329V.642h.468v-8.204zm0 0"/></symbol><symbol overflow="visible" id="bO"><path d="M7.172-7.547h-.484v4.469h.484zm-1.25 3.5c-.766.11-1.594.156-2.422.203v-1.015h1.734v-.407H1.828v-1.53h3.313v-.407H1.328v2.344h1.688v1.03c-.86.032-1.688.048-2.438.048l.063.422c1.562 0 3.562-.063 5.312-.313zM2.359.125V-.906h4.813v-1.75H1.859v.406h4.829v.953H1.89V.531H7.5V.125zm0 0"/></symbol><symbol overflow="visible" id="bP"><path d="M4-3c.078-.313.11-.656.11-1.031 0-.375-.032-.719-.11-1.032h1.39V-3zM2.375-1.703c-.766 0-1.281-.953-1.281-2.328s.515-2.344 1.281-2.344c.766 0 1.266.969 1.266 2.344s-.5 2.328-1.266 2.328zM5.391-5.47H3.906c-.281-.843-.828-1.343-1.531-1.343-1.047 0-1.734 1.078-1.734 2.78 0 1.688.687 2.782 1.734 2.782.703 0 1.25-.5 1.531-1.328h1.485V.203h.468v-7.562h-.468zm1.593-2.093V.64h.47v-8.204zm0 0"/></symbol><symbol overflow="visible" id="bQ"><path d="M1.203-3.922c1.219-.172 2.563-.687 3.031-1.64.454.953 1.797 1.468 3.032 1.64l.156-.39C6.078-4.47 4.5-5.141 4.484-6.282h2.672v-.405H4.484v-.938h-.5v.938H1.328v.406h2.64c0 1.14-1.593 1.812-2.921 1.968zm.14 2.39h5.173V.642h.5v-2.579H1.344zM.517-3.374v.406h7.421v-.406zm0 0"/></symbol><symbol overflow="visible" id="bR"><path d="M4.484-3.234V-5.11H6.72v1.875zM4-1.891H1.344v-4.406H4zm2.719-5.656v2.016H4.484v-1.172H.875v5.219h3.61v-1.344h2.234V.64h.484v-8.188zm0 0"/></symbol><symbol overflow="visible" id="bS"><path d="M1.031-6.719v5.235h3.672V-6.72zm3.188.407v4.421H1.5v-4.421zm2.468-1.235V.641h.485v-8.188zm0 0"/></symbol><symbol overflow="visible" id="bT"><path d="M5.125-5.297v.422h1.594v1.297H5.125v.406h1.594v1.875h.484v-6.25H6.72v2.25zm.063-1.172H3.108v-1.078h-.484v1.078H.531v.407h4.657zm-3.672 2.5c0-.672.546-1.14 1.343-1.14.813 0 1.344.468 1.344 1.14 0 .672-.531 1.14-1.344 1.14-.796 0-1.343-.468-1.343-1.14zm3.171 0c0-.937-.75-1.547-1.828-1.547s-1.812.61-1.812 1.547c0 .938.734 1.547 1.812 1.547 1.079 0 1.829-.61 1.829-1.547zm-2.171 4v-1.875H2.03V.438h5.375V.03zm0 0"/></symbol><symbol overflow="visible" id="bU"><path d="M7.188-7.563h-.5v4.297h.5zm-1.75 3.61c-1.141-.422-2.172-1.469-2.172-2.719v-.625H2.78v.625c0 1.313-1 2.438-2.14 2.875l.25.406c.968-.406 1.812-1.218 2.14-2.265.36.968 1.203 1.734 2.156 2.093zM2.5.125v-1.11h4.688v-1.828H1.984v.407H6.72v1.031H2.016V.531h5.5V.125zm0 0"/></symbol><symbol overflow="visible" id="bV"><path d="M7.188-7.547h-.485v4.703h.484zm-4.36.922c.938 0 1.61.61 1.61 1.469 0 .828-.672 1.453-1.61 1.453-.922 0-1.594-.625-1.594-1.453 0-.86.672-1.469 1.594-1.469zm0 3.344c1.219 0 2.078-.766 2.078-1.875 0-1.125-.86-1.89-2.078-1.89-1.219 0-2.078.765-2.078 1.89 0 1.11.86 1.875 2.078 1.875zm3.39.812H5.75v.531c0 .657-.469 1.563-1.297 2.047-.828-.437-1.281-1.265-1.281-2.046v-.532h-.469v.531c0 .797-.719 1.704-1.719 2.094l.25.375C2.016.22 2.625-.39 2.922-1.079A2.61 2.61 0 0 0 4.453.595C5.234.25 5.75-.422 5.984-1.094 6.266-.39 6.875.22 7.704.531l.25-.375c-1.032-.36-1.735-1.234-1.735-2.094zm0 0"/></symbol><symbol overflow="visible" id="bW"><path d="M6.484-4.344H2v-2.328h4.484zm.485-2.734H1.516v3.14h5.453zm.984 4.39H.516v.422h3.453V.641h.484v-2.907h3.5zm0 0"/></symbol><symbol overflow="visible" id="bX"><path d="M1.14-5.031c0-.86.673-1.532 1.61-1.532.922 0 1.594.672 1.594 1.532 0 .875-.672 1.531-1.594 1.531-.938 0-1.61-.656-1.61-1.531zm5.579.218v2.954h.484v-5.688H6.72v2.313H4.812c-.109-1.032-.937-1.75-2.062-1.75-1.203 0-2.078.796-2.078 1.953 0 1.156.875 1.968 2.078 1.968 1.11 0 1.953-.718 2.063-1.75zM4.89-2.578h-.516v.36c0 1.296-1.563 2.171-2.844 2.421l.203.39C2.891.36 4.172-.311 4.625-1.39 5.094-.312 6.375.36 7.531.594l.203-.39c-1.28-.25-2.843-1.11-2.843-2.423zm0 0"/></symbol><symbol overflow="visible" id="bY"><path d="M2.672-1.688c-.906 0-1.531-.984-1.531-2.39 0-1.39.625-2.375 1.53-2.375.907 0 1.532.984 1.532 2.375 0 1.406-.625 2.39-1.531 2.39zm4.047-5.859v3.219H4.656c-.078-1.563-.875-2.563-1.984-2.563C1.5-6.89.687-5.78.687-4.078c0 1.719.813 2.828 1.985 2.828 1.14 0 1.953-1.047 2-2.672h2.047V.641h.484v-8.188zm0 0"/></symbol><symbol overflow="visible" id="bZ"><path d="M2.703-1.688c-.906 0-1.547-.984-1.547-2.39 0-1.39.64-2.375 1.547-2.375.89 0 1.531.984 1.531 2.375 0 1.406-.64 2.39-1.53 2.39zm0-5.203C1.516-6.89.688-5.78.688-4.078c0 1.719.828 2.828 2.015 2.828 1.172 0 2-1.11 2-2.828 0-1.703-.828-2.813-2-2.813zm5.469 1.907v-.422H6.766v-2.14h-.5V.64h.5v-3.157h1.406v-.421H6.766v-2.047zm0 0"/></symbol><symbol overflow="visible" id="ca"><path d="M5.094-5.25v.406h1.718v3.282h.485v-5.985h-.484v2.297zm.86 1.64c-.782.172-1.438.204-2.173.204v-3.031h1.781v-.407h-2.25v3.86h.376c.796 0 1.468-.032 2.312-.204zm-3 .016c-.673.156-1.298.172-1.673.188v-3.031h1.547v-.407H.797v3.86h.328a8.22 8.22 0 0 0 1.89-.204zM2.436.031v-2.094h-.484v2.5H7.5V.031zm0 0"/></symbol><symbol overflow="visible" id="cb"><path d="M1.922-6.438h4.61v2.97h-4.61zM4.469-.875v-2.203h2.547v-3.75H1.453v3.75h2.531v2.203H.516v.406h7.453v-.406zm0 0"/></symbol><symbol overflow="visible" id="cc"><path d="M7.484-4.844c-1.218-.156-3-1.062-3-2.187v-.438h-.5v.438c0 1.172-1.765 2.015-3 2.187l.188.407c1.156-.204 2.578-.86 3.062-1.875.485 1 1.907 1.671 3.047 1.875zM6.47.11H1.984v-1.234H6.47zm0-1.64H1.984v-1.125H1.5V.516h5.438v-3.172h-.47zM.516-3.734v.421h7.421v-.421zm0 0"/></symbol><symbol overflow="visible" id="cd"><path d="M4.234-7.016c1.422 0 2.329.391 2.329 1.047 0 .657-.907 1.047-2.329 1.047-1.437 0-2.343-.39-2.343-1.047 0-.656.906-1.047 2.343-1.047zm0 2.485c1.782 0 2.829-.516 2.829-1.438 0-.922-1.047-1.437-2.829-1.437-1.78 0-2.843.515-2.843 1.437S2.453-4.53 4.234-4.53zM1.954-.938h5v-1.687h-5.5v.406h5.015v.906h-5V.532h5.75V.125H1.953zM.515-3.89v.422h7.421v-.422zm0 0"/></symbol><symbol overflow="visible" id="ce"><path d="M4.14-1.781H1.39v-2.39h2.75zm0-2.797H1.39v-2.266h-.5v5.485h3.735v-5.485h-.484zm4.063.344H6.766v-3.313h-.5V.641h.5v-4.422h1.437zm0 0"/></symbol><symbol overflow="visible" id="cf"><path d="M5.422-3.86c-1.375.235-2.469.282-3.89.282h-.126v-1.406h3.14v-2.11H.892v.407h3.187v1.296H.922v2.235h.61c1.437 0 2.546-.063 3.937-.281zM2.25-1.812h4.11V.11H2.25zM1.766.517h5.078V-2.22H1.766zm6.359-5.86H6.844v-2.203h-.485v4.89h.485v-2.28h1.281zm0 0"/></symbol><symbol overflow="visible" id="cg"><path d="M5.469-3.39c-1.14-.391-2.157-1.391-2.157-2.579v-.547h2v-.406h-4.5v.406h2.016v.547c0 1.25-1 2.313-2.14 2.735l.25.39C1.905-3.219 2.75-4 3.078-5.03 3.422-4.078 4.281-3.344 5.234-3zM1.78-1.704h4.922V.64h.484v-2.75H1.782zm4.922-5.844v4.969h.484v-4.969zm0 0"/></symbol><symbol overflow="visible" id="ch"><path d="M6.719-3h.484v-4.547H6.72v1.719H5.03v.406H6.72zM5.187-4.328c-1.296.25-2.343.297-3.703.297H1.36v-1.203h3.094v-1.938H.86v.406h3.11v1.141H.875v2h.61c1.39 0 2.437-.063 3.75-.281zM4.579.25c-1.094 0-1.766-.297-1.766-.781 0-.5.672-.797 1.766-.797 1.094 0 1.781.297 1.781.797 0 .484-.687.781-1.78.781zm0-1.938c-1.406 0-2.25.407-2.25 1.157 0 .734.844 1.156 2.25 1.156C6 .625 6.828.203 6.828-.531c0-.75-.828-1.156-2.25-1.156zm.25-.812v-.875h-.484v.875h-2.61v.406h5.688V-2.5zm0 0"/></symbol><symbol overflow="visible" id="ci"><path d="M5.266-4.078h-1.75A6.055 6.055 0 0 0 4-6.468H.875v.405h2.656C3.421-4.296 2.421-2.624.578-1.53l.313.375c1.125-.688 1.921-1.563 2.437-2.516h1.938v3.86h.468v-7.516h-.468zm1.703-3.469V.641h.468v-8.188zm0 0"/></symbol><symbol overflow="visible" id="cj"><path d="M6.719-5.86v1.141H4.375v.407h2.344v.984h.484v-4.219H6.72v1.281H4.625c.063-.265.11-.546.11-.828H1.077v.422h3.125c-.11 1.5-1.453 2.594-3.516 3.11l.188.406C2.672-3.61 4-4.546 4.5-5.86zM2.516.157v-1.203h4.687v-1.86H2v.407h4.719v1.047H2.03V.563h5.5V.156zm0 0"/></symbol><symbol overflow="visible" id="ck"><path d="M4.86-5.344v.422h1.859v2.25h.484v-4.875H6.72v2.203zm.437 1.922c-1.125-.406-2.078-1.437-2.078-2.547v-.515H5.14v-.407H.78v.407H2.75v.515c0 1.25-1 2.36-2.14 2.797l.25.39c.968-.39 1.812-1.202 2.14-2.25.328.907 1.125 1.657 2.047 2zM4.547.234c-1.328 0-2.188-.421-2.188-1.109 0-.672.86-1.094 2.188-1.094 1.344 0 2.219.422 2.219 1.094 0 .688-.875 1.11-2.22 1.11zm0-2.593c-1.672 0-2.688.53-2.688 1.484 0 .969 1.016 1.5 2.688 1.5 1.672 0 2.687-.531 2.687-1.5 0-.953-1.015-1.484-2.687-1.484zm0 0"/></symbol><symbol overflow="visible" id="cl"><path d="M7.156-7.547h-.484v6.11h.484zm-1.25 4.313c-.75.093-1.593.156-2.422.187v-1.312h1.75v-.422H1.813v-1.813h3.375V-7h-3.86v2.64H3v1.344c-.86.032-1.703.047-2.453.047l.094.422c1.546 0 3.546-.062 5.296-.312zM2.5.03v-1.86H2V.438h5.469V.031zm0 0"/></symbol><symbol overflow="visible" id="cm"><path d="M7.047-5.203h-5v-1.61h4.906v-.406H1.547v2.438h5.5zM1.953-.922h5v-1.781h-5.5v.406H6.47v.985h-5V.516h5.75V.125H1.953zM.531-3.984v.421h7.407v-.421zm0 0"/></symbol><symbol overflow="visible" id="cn"><path d="M3.266-6.797h-.5v1.64c0 1.485-1.11 3.048-2.188 3.626l.313.39c.906-.515 1.78-1.64 2.125-2.937.359 1.234 1.265 2.312 2.171 2.797l.282-.407c-1.078-.53-2.203-2.03-2.203-3.468zm3.453-.75v2.906H4.594v.407h2.125v4.89h.484v-8.203zm0 0"/></symbol><symbol overflow="visible" id="co"><path d="M4.781-4.078C5-5.188 5-6 5-6.516v-.375H1.016v.407H4.53c0 .515 0 1.265-.25 2.359zm.922.594a27.3 27.3 0 0 1-2.828.218v-1.843h-.5v1.875c-.672.015-1.297.015-1.86.015l.063.438c1.453-.016 3.453-.047 5.172-.328zM2.297-1.938h-.5V.438h5.281V.031H2.297zm4.515-2.859v-2.75h-.5v6.188h.5v-3.016h1.282v-.422zm0 0"/></symbol><symbol overflow="visible" id="cp"><path d="M4.86-5.453v.422h1.843v1.797h.484v-4.313h-.484v2.094zm.53 1.61c-1.156-.298-2.202-1.095-2.202-2.11v-.297h1.921v-.406H3.188v-.953h-.485v.953H.75v.406h1.953v.297c0 1.062-1.031 1.937-2.172 2.266l.235.374c.968-.28 1.843-.937 2.203-1.828.344.813 1.219 1.407 2.203 1.672zM2.5.124v-1.11h4.688V-2.78H2v.406h4.719v1H2.016V.531h5.53V.125zm0 0"/></symbol><symbol overflow="visible" id="cq"><path d="M1.156-6.672v.422h3.188a5.355 5.355 0 0 1-.313 1.64L.75-4.374l.125.453 3-.281C3.359-3 2.359-1.937.75-1.172l.281.406c2.86-1.406 3.797-3.609 3.797-5.906zm5.547-.875V.641h.484v-8.188zm0 0"/></symbol><symbol overflow="visible" id="cr"><path d="M7.063-4.828H1.968v-1.938h5.015v-.406h-5.5v2.766h5.579zM2-1.938h-.484V.438H7.14V.017H2zM.531-3.359v.406h7.407v-.406zm0 0"/></symbol><symbol overflow="visible" id="cs"><path d="M5.266-4.422c-1.188.25-2.235.328-3.641.328H1.5v-3.015h-.484v3.437h.609c1.422 0 2.469-.078 3.719-.328zM2.016-.984h2.093V-2.72H1.531v.39h2.11v.97H1.547V.547h.406C3 .547 3.593.53 4.375.39l-.047-.407c-.75.141-1.312.157-2.312.157zM6.734.14H5.125v-1.375h1.61zm0-1.766H5.125v-1.188h-.469v3.36h2.547v-3.36h-.469zM6.72-7.547v1.484H4.187v.407H6.72v2.5h.484v-4.39zm0 0"/></symbol><symbol overflow="visible" id="ct"><path d="M3.438-5.672h2v-.406h-2v-1.36h-.485v1.36H.938v.406h2.03v.828c0 1.547-1.077 2.938-2.218 3.485l.297.375c.922-.47 1.812-1.47 2.156-2.704.375 1.172 1.25 2.126 2.188 2.563l.28-.406C4.548-2.016 3.438-3.36 3.438-4.844zm3.25-1.875V.641h.5v-8.188zm0 0"/></symbol><symbol overflow="visible" id="cu"><path d="M5.297-3.39C4.172-3.798 3.219-4.845 3.219-5.97v-.547H5.14v-.406H.78v.406H2.75v.563c0 1.234-1.016 2.328-2.156 2.766l.265.374c.97-.374 1.797-1.171 2.125-2.203.344.907 1.141 1.641 2.063 2zm-3.5 1.656h4.922V.64h.484v-2.797H1.797zm4.922-5.813v2.234h-1.86v.422h1.86v2.25h.484v-4.906zm0 0"/></symbol><symbol overflow="visible" id="cv"><path d="M7.188-7.547h-.485v4.266h.484zm-4.891.984H3.89v2.391c-.532.047-1.079.063-1.594.078zm3.437 2.235c-.437.062-.89.11-1.359.14v-2.375h.922v-.406H.89v.407h.921v2.484c-.406 0-.78.016-1.14.016l.062.421c1.438 0 3.391-.078 5.032-.296zM2.484.125V-1h4.704v-1.828h-5.22v.406h4.75v1.031H2V.531h5.547V.125zm0 0"/></symbol><symbol overflow="visible" id="cw"><path d="M2.953-3.047c.375.11.797.172 1.266.172.484 0 .922-.063 1.297-.172v2.172H2.953zM1.75-4.907c0-.984 1.063-1.655 2.469-1.655 1.422 0 2.468.671 2.468 1.656 0 .968-1.046 1.64-2.468 1.64-1.407 0-2.469-.671-2.469-1.64zM6.016-.874v-2.36c.703-.359 1.14-.953 1.14-1.671 0-1.266-1.218-2.063-2.937-2.063-1.703 0-2.922.797-2.922 2.063 0 .734.437 1.328 1.156 1.672v2.359H.516v.406h7.437v-.406zm0 0"/></symbol><symbol overflow="visible" id="cE"><path d="M1.188-3.984c1.218-.172 2.578-.672 3.046-1.61.47.938 1.813 1.438 3.047 1.61l.157-.391c-1.36-.156-2.938-.813-2.954-1.938h2.672v-.406H4.484v-.906h-.5v.906H1.328v.407h2.64c0 1.125-1.593 1.78-2.937 1.937zM6.53-.72c0 .594-.89.953-2.297.953-1.421 0-2.296-.359-2.296-.953 0-.61.875-.969 2.296-.969 1.407 0 2.297.36 2.297.97zM7.938-3.03v-.422H.516v.422h3.468v.969c-1.609.046-2.546.515-2.546 1.343 0 .86 1.03 1.344 2.796 1.344 1.75 0 2.782-.484 2.782-1.344 0-.828-.938-1.297-2.547-1.344v-.968zm0 0"/></symbol><symbol overflow="visible" id="cF"><path d="M5.39-4.453a18.31 18.31 0 0 1-3.812.375h-.125v-3.047H.97v3.469h.61c1.25 0 2.468-.11 3.89-.375zM2.25-2.016h4.11V.11H2.25zM1.766.516h5.078v-2.938H1.766zm6.359-6.094H6.844v-1.969h-.485v4.64h.485v-2.25h1.281zm0 0"/></symbol><symbol overflow="visible" id="cG"><path d="M1.344-1.906V-6.11h2.578v-.422H.859v5.047h.5c1.36 0 2.157-.047 3.125-.266l-.078-.422c-.922.219-1.703.266-3.047.266zm5.625-5.64v3.359H5.547v-3.157h-.469V.188h.469v-3.954h1.422V.641h.468v-8.188zm0 0"/></symbol><symbol overflow="visible" id="cH"><path d="M5.406-6.61H3.234v-1H2.75v1H.547v.407h4.86zM1.5-4.202c0-.64.61-1.063 1.484-1.063.875 0 1.47.422 1.47 1.063 0 .625-.595 1.062-1.47 1.062S1.5-3.578 1.5-4.203zm3.406 0c0-.906-.765-1.453-1.922-1.453-1.171 0-1.937.547-1.937 1.453 0 .89.766 1.453 1.937 1.453 1.157 0 1.922-.563 1.922-1.453zM1.594-1.516h4.765V.641h.485v-2.579h-5.25zm6.531-3.687H6.844v-2.36h-.485v5.125h.485V-4.78h1.281zm0 0"/></symbol><symbol overflow="visible" id="cI"><path d="M2.813-6.11h1.624v-.406H.642v.407h1.703v.953c0 1.562-.797 3.062-1.89 3.718l.327.375c.844-.53 1.516-1.578 1.797-2.78.281 1.124.922 2.077 1.75 2.593l.313-.375C3.562-2.25 2.812-3.703 2.812-5.156zm2.5 1.579H3.796v.422h1.515V.187h.485v-7.515h-.484zm1.656-3.016V.641h.468v-8.188zm0 0"/></symbol><symbol overflow="visible" id="cx"><path d="M7.11-6.969H1.53v3.016h7.297V-5.11H3.016v-.797h5.562V-8.86H1.531v1.14H7.11zm2.53 3.735H.47v1.14h2.11V.953h1.468v-3.047h2.031V.953h1.453v-3.047h2.11zm0 0"/></symbol><symbol overflow="visible" id="cy"><path d="M5.016-.14c-1.344 0-2.032-.235-2.032-.766 0-.516.688-.766 2.032-.766 1.359 0 2.046.25 2.046.766 0 .531-.687.765-2.046.765zm0-2.626c-2.188 0-3.5.672-3.5 1.86 0 1.187 1.312 1.86 3.5 1.86C7.203.953 8.53.28 8.53-.907c0-1.188-1.328-1.86-3.515-1.86zm.765-1.656v-.828h2.813v-1.156H3.03v-1.188h5.5V-8.75H1.594v3.5h2.734v.828H.484v1.156h9.157v-1.156zm0 0"/></symbol><symbol overflow="visible" id="cz"><path d="M8.875-9.172H7.422v7.188h1.453zM4.469-4.625H2.406v-2.61H4.47zm1.422-3.75H.984v4.89h4.907zM3.594-.422v-2.187H2.14V.734h6.984V-.422zm0 0"/></symbol><symbol overflow="visible" id="cB"><path d="M7.594-6.906c0 1.234 0 2.515-.36 4.234l.813.094c.328-1.797.328-3.063.328-4.328V-8H1.531v.656h6.063zM6.047-1.281v-3.282h-.781v3.282H3.625v-3.282h-.797v3.282H.594v.672h8.875v-.672zm0 0"/></symbol><symbol overflow="visible" id="cC"><path d="M9.016-5.234C7.344-5.5 5.469-6.688 5.469-8.11v-.563h-.844v.563c0 1.437-1.844 2.609-3.547 2.875l.313.64c1.515-.265 3.046-1.11 3.656-2.343.625 1.218 2.172 2.078 3.656 2.343zm.468 1.78H.61v.657h4.016V.797h.797v-3.594h4.062zm0 0"/></symbol></defs><g fill="#898989"><use xlink:href="#a" x="28.312" y="819.169"/><use xlink:href="#b" x="32.591" y="819.169"/></g><g fill="#898989"><use xlink:href="#c" x="36.906" y="819.169"/><use xlink:href="#c" x="38.996" y="819.169"/></g><g fill="#595757"><use xlink:href="#d" x="506.297" y="818.993"/><use xlink:href="#e" x="507.807" y="818.993"/><use xlink:href="#f" x="510.984" y="818.993"/><use xlink:href="#g" x="512.368" y="818.993"/><use xlink:href="#h" x="513.926" y="818.993"/><use xlink:href="#i" x="517.012" y="818.993"/><use xlink:href="#h" x="520.099" y="818.993"/><use xlink:href="#j" x="523.185" y="818.993"/><use xlink:href="#k" x="526.271" y="818.993"/><use xlink:href="#g" x="531.664" y="818.993"/><use xlink:href="#l" x="533.223" y="818.993"/><use xlink:href="#m" x="538.616" y="818.993"/><use xlink:href="#n" x="544.009" y="818.993"/><use xlink:href="#o" x="549.403" y="818.993"/></g><use xlink:href="#p" x="36.098" y="58.372"/><use xlink:href="#q" x="43.486" y="58.372"/><use xlink:href="#p" x="50.874" y="58.372"/><use xlink:href="#r" x="58.262" y="58.372"/><use xlink:href="#s" x="65.65" y="58.372"/><use xlink:href="#t" x="69.025" y="56.474"/><use xlink:href="#u" x="73.572" y="56.474"/><use xlink:href="#v" x="78.534" y="56.474"/><use xlink:href="#s" x="83.519" y="58.372"/><use xlink:href="#w" x="86.895" y="58.372"/><use xlink:href="#x" x="95.478" y="58.372"/><use xlink:href="#y" x="99.165" y="58.372"/><use xlink:href="#z" x="107.034" y="58.372"/><use xlink:href="#A" x="111.591" y="58.372"/><use xlink:href="#B" x="119.096" y="58.372"/><use xlink:href="#C" x="126.38" y="58.372"/><use xlink:href="#D" x="134.443" y="58.372"/><use xlink:href="#E" x="139.637" y="58.372"/><use xlink:href="#F" x="147.648" y="58.372"/><use xlink:href="#B" x="152.894" y="58.372"/><use xlink:href="#s" x="160.178" y="58.372"/><use xlink:href="#G" x="163.554" y="58.372"/><use xlink:href="#y" x="171.825" y="58.372"/><use xlink:href="#H" x="179.693" y="58.372"/><use xlink:href="#I" x="191.951" y="58.372"/><use xlink:href="#B" x="200.053" y="58.372"/><use xlink:href="#D" x="207.181" y="58.372"/><use xlink:href="#x" x="212.375" y="58.372"/><use xlink:href="#D" x="216.062" y="58.372"/><use xlink:href="#x" x="221.256" y="58.372"/><use xlink:href="#y" x="224.943" y="58.372"/><use xlink:href="#C" x="232.812" y="58.372"/><use xlink:href="#s" x="240.875" y="58.372"/><use xlink:href="#J" x="244.251" y="58.372"/><use xlink:href="#s" x="253.587" y="58.372"/><use xlink:href="#G" x="256.962" y="58.372"/><use xlink:href="#y" x="265.233" y="58.372"/><use xlink:href="#C" x="273.102" y="58.372"/><use xlink:href="#K" x="281.165" y="58.372"/><use xlink:href="#F" x="288.657" y="58.372"/><use xlink:href="#B" x="293.904" y="58.372"/><use xlink:href="#L" x="301.188" y="58.372"/><use xlink:href="#L" x="307.355" y="58.372"/><g fill="#fff"><use xlink:href="#M" x="483.913" y="57.112"/><use xlink:href="#N" x="490.115" y="57.112"/></g><use xlink:href="#O" x="496.527" y="57.112" fill="#fff"/><g fill="#fff"><use xlink:href="#P" x="502.33" y="57.112"/><use xlink:href="#Q" x="508.373" y="57.112"/></g><use xlink:href="#M" x="514.905" y="57.112" fill="#fff"/><use xlink:href="#R" x="520.988" y="57.112" fill="#fff"/><use xlink:href="#P" x="527.19" y="57.112" fill="#fff"/><use xlink:href="#S" x="42.468" y="194.236"/><use xlink:href="#T" x="57.749" y="194.236"/><use xlink:href="#U" x="73.031" y="194.236"/><use xlink:href="#V" x="88.312" y="194.236"/><use xlink:href="#W" x="92.727" y="194.236"/><use xlink:href="#X" x="108.008" y="194.236"/><use xlink:href="#Y" x="28.312" y="354.465"/><use xlink:href="#Z" x="36.627" y="354.465"/><use xlink:href="#aa" x="44.942" y="354.465"/><use xlink:href="#ab" x="53.257" y="354.465"/><use xlink:href="#ac" x="61.572" y="354.465"/><use xlink:href="#ad" x="69.886" y="354.465"/><use xlink:href="#ae" x="72.775" y="354.465"/><use xlink:href="#af" x="81.09" y="354.465"/><use xlink:href="#ag" x="89.405" y="354.465"/><use xlink:href="#ah" x="97.72" y="354.465"/><use xlink:href="#ad" x="106.035" y="354.465"/><use xlink:href="#ai" x="108.924" y="354.465"/><use xlink:href="#aj" x="117.239" y="354.465"/><use xlink:href="#ak" x="125.554" y="354.465"/><use xlink:href="#al" x="133.869" y="354.465"/><use xlink:href="#ad" x="142.183" y="354.465"/><g><use xlink:href="#am" x="145.072" y="354.465"/><use xlink:href="#an" x="153.387" y="354.465"/><use xlink:href="#ao" x="161.702" y="354.465"/><use xlink:href="#ad" x="170.017" y="354.465"/></g><g><use xlink:href="#ap" x="172.907" y="354.465"/><use xlink:href="#aq" x="181.222" y="354.465"/><use xlink:href="#ar" x="189.537" y="354.465"/><use xlink:href="#ad" x="197.852" y="354.465"/></g><g><use xlink:href="#as" x="200.741" y="354.465"/><use xlink:href="#at" x="209.055" y="354.465"/><use xlink:href="#au" x="217.37" y="354.465"/><use xlink:href="#ad" x="225.685" y="354.465"/></g><g><use xlink:href="#av" x="228.575" y="354.465"/><use xlink:href="#aw" x="236.89" y="354.465"/><use xlink:href="#ac" x="245.205" y="354.465"/><use xlink:href="#ad" x="253.52" y="354.465"/></g><g><use xlink:href="#ax" x="256.409" y="354.465"/><use xlink:href="#ay" x="264.724" y="354.465"/><use xlink:href="#az" x="273.038" y="354.465"/><use xlink:href="#aA" x="275.755" y="354.465"/><use xlink:href="#aB" x="278.822" y="354.465"/><use xlink:href="#aC" x="284.079" y="354.465"/><use xlink:href="#ad" x="288.864" y="354.465"/></g><g><use xlink:href="#aD" x="291.753" y="354.465"/></g><g><use xlink:href="#aE" x="294.664" y="354.465"/><use xlink:href="#aF" x="299.532" y="354.465"/></g><g><use xlink:href="#aC" x="303.764" y="354.465"/><use xlink:href="#ad" x="308.55" y="354.465"/></g><g><use xlink:href="#aG" x="311.439" y="354.465"/><use xlink:href="#aC" x="316.826" y="354.465"/></g><g><use xlink:href="#aA" x="321.51" y="354.465"/><use xlink:href="#aH" x="324.577" y="354.465"/><use xlink:href="#aC" x="331.469" y="354.465"/><use xlink:href="#aC" x="336.255" y="354.465"/><use xlink:href="#aI" x="341.04" y="354.465"/><use xlink:href="#ad" x="346.334" y="354.465"/></g><g><use xlink:href="#aC" x="349.223" y="354.465"/><use xlink:href="#aJ" x="354.009" y="354.465"/><use xlink:href="#aK" x="359.414" y="354.465"/><use xlink:href="#aF" x="364.68" y="354.465"/></g><g><use xlink:href="#aE" x="369.003" y="354.465"/></g><g><use xlink:href="#aA" x="373.752" y="354.465"/><use xlink:href="#aL" x="376.819" y="354.465"/><use xlink:href="#aM" x="379.009" y="354.465"/><use xlink:href="#aI" x="384.312" y="354.465"/><use xlink:href="#ad" x="389.606" y="354.465"/></g><g><use xlink:href="#aE" x="392.495" y="354.465"/><use xlink:href="#aI" x="397.364" y="354.465"/><use xlink:href="#aJ" x="402.657" y="354.465"/><use xlink:href="#ad" x="408.062" y="354.465"/></g><g><use xlink:href="#aA" x="410.952" y="354.465"/></g><g><use xlink:href="#aC" x="413.899" y="354.465"/><use xlink:href="#aF" x="418.685" y="354.465"/><use xlink:href="#aB" x="423.11" y="354.465"/><use xlink:href="#aI" x="428.367" y="354.465"/><use xlink:href="#aM" x="433.661" y="354.465"/><use xlink:href="#aN" x="438.964" y="354.465"/><use xlink:href="#aM" x="441.246" y="354.465"/><use xlink:href="#aO" x="446.549" y="354.465"/></g><g><use xlink:href="#aP" x="451.584" y="354.465"/><use xlink:href="#aQ" x="455.926" y="354.465"/><use xlink:href="#aR" x="458.642" y="354.465"/><use xlink:href="#aS" x="466.957" y="354.465"/><use xlink:href="#aT" x="475.272" y="354.465"/><use xlink:href="#ad" x="477.406" y="354.465"/></g><g><use xlink:href="#aU" x="480.296" y="354.465"/><use xlink:href="#aV" x="488.611" y="354.465"/><use xlink:href="#aW" x="496.926" y="354.465"/><use xlink:href="#ad" x="505.241" y="354.465"/></g><g><use xlink:href="#aX" x="508.13" y="354.465"/><use xlink:href="#aY" x="516.445" y="354.465"/><use xlink:href="#ad" x="524.76" y="354.465"/></g><g><use xlink:href="#aZ" x="527.649" y="354.465"/><use xlink:href="#ba" x="532.887" y="354.465"/><use xlink:href="#ad" x="535.215" y="354.465"/></g><g><use xlink:href="#bb" x="538.105" y="354.465"/><use xlink:href="#ac" x="546.42" y="354.465"/><use xlink:href="#ad" x="554.735" y="354.465"/></g><g><use xlink:href="#bc" x="28.312" y="373.442"/><use xlink:href="#bd" x="36.627" y="373.442"/><use xlink:href="#be" x="44.942" y="373.442"/><use xlink:href="#ad" x="53.257" y="373.442"/><use xlink:href="#bf" x="55.659" y="373.442"/><use xlink:href="#bg" x="63.974" y="373.442"/><use xlink:href="#ad" x="72.288" y="373.442"/><use xlink:href="#av" x="74.691" y="373.442"/><use xlink:href="#bh" x="83.005" y="373.442"/><use xlink:href="#bi" x="91.32" y="373.442"/><use xlink:href="#ad" x="99.635" y="373.442"/><use xlink:href="#bj" x="102.037" y="373.442"/><use xlink:href="#bk" x="110.352" y="373.442"/><use xlink:href="#ac" x="118.667" y="373.442"/><use xlink:href="#ad" x="126.982" y="373.442"/><use xlink:href="#ax" x="129.384" y="373.442"/><use xlink:href="#ay" x="137.699" y="373.442"/><use xlink:href="#az" x="146.014" y="373.442"/><use xlink:href="#aA" x="148.73" y="373.442"/><use xlink:href="#aB" x="151.797" y="373.442"/><use xlink:href="#aC" x="157.054" y="373.442"/><use xlink:href="#ad" x="161.84" y="373.442"/><use xlink:href="#aD" x="164.242" y="373.442"/></g><g><use xlink:href="#aE" x="167.152" y="373.442"/><use xlink:href="#aF" x="172.021" y="373.442"/></g><g><use xlink:href="#aC" x="176.252" y="373.442"/><use xlink:href="#ad" x="181.038" y="373.442"/><use xlink:href="#aG" x="183.44" y="373.442"/><use xlink:href="#aC" x="188.826" y="373.442"/></g><g><use xlink:href="#aA" x="193.51" y="373.442"/><use xlink:href="#aH" x="196.578" y="373.442"/><use xlink:href="#aC" x="203.47" y="373.442"/><use xlink:href="#aC" x="208.255" y="373.442"/><use xlink:href="#aI" x="213.041" y="373.442"/><use xlink:href="#ad" x="218.335" y="373.442"/><use xlink:href="#bl" x="220.737" y="373.442"/><use xlink:href="#aE" x="228.904" y="373.442"/><use xlink:href="#aI" x="233.773" y="373.442"/><use xlink:href="#ad" x="239.067" y="373.442"/><use xlink:href="#aE" x="241.469" y="373.442"/><use xlink:href="#aI" x="246.338" y="373.442"/><use xlink:href="#aJ" x="251.631" y="373.442"/><use xlink:href="#ad" x="257.036" y="373.442"/><use xlink:href="#bl" x="259.438" y="373.442"/><use xlink:href="#aE" x="267.605" y="373.442"/><use xlink:href="#aF" x="272.474" y="373.442"/><use xlink:href="#aB" x="276.899" y="373.442"/><use xlink:href="#aL" x="282.156" y="373.442"/><use xlink:href="#aI" x="284.346" y="373.442"/><use xlink:href="#aC" x="289.64" y="373.442"/><use xlink:href="#aQ" x="294.425" y="373.442"/><use xlink:href="#bm" x="297.142" y="373.442"/><use xlink:href="#ad" x="305.456" y="373.442"/><use xlink:href="#bn" x="307.858" y="373.442"/><use xlink:href="#ac" x="316.173" y="373.442"/><use xlink:href="#bo" x="324.488" y="373.442"/><use xlink:href="#av" x="332.803" y="373.442"/><use xlink:href="#ad" x="341.118" y="373.442"/><use xlink:href="#bp" x="343.52" y="373.442"/><use xlink:href="#bq" x="351.835" y="373.442"/><use xlink:href="#ak" x="360.15" y="373.442"/><use xlink:href="#aR" x="368.465" y="373.442"/><use xlink:href="#aS" x="376.78" y="373.442"/><use xlink:href="#aT" x="385.095" y="373.442"/></g><g><use xlink:href="#br" x="28.312" y="411.395"/><use xlink:href="#bs" x="36.627" y="411.395"/><use xlink:href="#ac" x="44.942" y="411.395"/><use xlink:href="#ad" x="53.257" y="411.395"/><use xlink:href="#bt" x="55.659" y="411.395"/><use xlink:href="#bu" x="63.974" y="411.395"/><use xlink:href="#ap" x="72.288" y="411.395"/><use xlink:href="#bg" x="80.603" y="411.395"/><use xlink:href="#al" x="88.918" y="411.395"/><use xlink:href="#ad" x="97.233" y="411.395"/><use xlink:href="#bv" x="99.635" y="411.395"/><use xlink:href="#bw" x="107.95" y="411.395"/><use xlink:href="#ao" x="116.265" y="411.395"/><use xlink:href="#ad" x="124.58" y="411.395"/><use xlink:href="#bx" x="126.982" y="411.395"/><use xlink:href="#bd" x="135.297" y="411.395"/><use xlink:href="#ar" x="143.612" y="411.395"/><use xlink:href="#ad" x="151.927" y="411.395"/><use xlink:href="#by" x="154.329" y="411.395"/><use xlink:href="#bz" x="162.644" y="411.395"/><use xlink:href="#bA" x="170.958" y="411.395"/><use xlink:href="#ad" x="179.273" y="411.395"/><use xlink:href="#bB" x="181.675" y="411.395"/><use xlink:href="#ap" x="189.99" y="411.395"/><use xlink:href="#ad" x="198.305" y="411.395"/><use xlink:href="#bC" x="200.707" y="411.395"/><use xlink:href="#bD" x="209.022" y="411.395"/><use xlink:href="#bE" x="217.337" y="411.395"/><use xlink:href="#bF" x="225.652" y="411.395"/><use xlink:href="#bG" x="233.967" y="411.395"/><use xlink:href="#ad" x="236.101" y="411.395"/><use xlink:href="#bH" x="238.503" y="411.395"/><use xlink:href="#bI" x="246.818" y="411.395"/><use xlink:href="#ac" x="255.133" y="411.395"/><use xlink:href="#ad" x="263.448" y="411.395"/><use xlink:href="#bJ" x="265.85" y="411.395"/><use xlink:href="#bK" x="274.165" y="411.395"/><use xlink:href="#br" x="282.48" y="411.395"/><use xlink:href="#bs" x="290.794" y="411.395"/><use xlink:href="#bL" x="299.109" y="411.395"/><use xlink:href="#bE" x="307.424" y="411.395"/><use xlink:href="#bI" x="315.739" y="411.395"/><use xlink:href="#ad" x="324.054" y="411.395"/><use xlink:href="#bM" x="326.456" y="411.395"/><use xlink:href="#bN" x="334.771" y="411.395"/><use xlink:href="#bO" x="343.086" y="411.395"/><use xlink:href="#ad" x="351.401" y="411.395"/><use xlink:href="#bB" x="353.803" y="411.395"/><use xlink:href="#ap" x="362.118" y="411.395"/><use xlink:href="#bg" x="370.433" y="411.395"/><use xlink:href="#al" x="378.748" y="411.395"/><use xlink:href="#ad" x="387.062" y="411.395"/><use xlink:href="#bP" x="389.464" y="411.395"/><use xlink:href="#bQ" x="397.779" y="411.395"/><use xlink:href="#ar" x="406.094" y="411.395"/><use xlink:href="#ad" x="414.409" y="411.395"/><use xlink:href="#by" x="416.811" y="411.395"/><use xlink:href="#bz" x="425.126" y="411.395"/><use xlink:href="#bA" x="433.441" y="411.395"/><use xlink:href="#ad" x="441.756" y="411.395"/><use xlink:href="#bB" x="444.158" y="411.395"/><use xlink:href="#ap" x="452.473" y="411.395"/><use xlink:href="#bR" x="460.788" y="411.395"/></g><g><use xlink:href="#ad" x="469.103" y="411.395"/><use xlink:href="#ap" x="471.505" y="411.395"/><use xlink:href="#bS" x="479.82" y="411.395"/><use xlink:href="#ad" x="488.134" y="411.395"/><use xlink:href="#bT" x="490.537" y="411.395"/><use xlink:href="#bU" x="498.851" y="411.395"/><use xlink:href="#ag" x="507.166" y="411.395"/><use xlink:href="#ak" x="515.481" y="411.395"/><use xlink:href="#bH" x="523.796" y="411.395"/><use xlink:href="#ad" x="532.111" y="411.395"/><use xlink:href="#bV" x="534.513" y="411.395"/><use xlink:href="#aS" x="542.828" y="411.395"/><use xlink:href="#aT" x="551.143" y="411.395"/></g><g><use xlink:href="#bj" x="28.312" y="449.347"/><use xlink:href="#bk" x="36.627" y="449.347"/><use xlink:href="#ac" x="44.942" y="449.347"/><use xlink:href="#ad" x="53.257" y="449.347"/></g><g><use xlink:href="#br" x="55.966" y="449.347"/><use xlink:href="#bs" x="64.281" y="449.347"/><use xlink:href="#ar" x="72.596" y="449.347"/><use xlink:href="#ad" x="80.911" y="449.347"/></g><g><use xlink:href="#bW" x="83.622" y="449.347"/><use xlink:href="#bX" x="91.937" y="449.347"/><use xlink:href="#ap" x="100.251" y="449.347"/><use xlink:href="#bY" x="108.566" y="449.347"/><use xlink:href="#bZ" x="116.881" y="449.347"/><use xlink:href="#ad" x="125.196" y="449.347"/></g><g><use xlink:href="#ak" x="127.906" y="449.347"/><use xlink:href="#al" x="136.221" y="449.347"/><use xlink:href="#bE" x="144.536" y="449.347"/><use xlink:href="#bG" x="152.85" y="449.347"/><use xlink:href="#ad" x="154.985" y="449.347"/></g><g><use xlink:href="#aU" x="157.694" y="449.347"/><use xlink:href="#ad" x="166.009" y="449.347"/></g><g><use xlink:href="#ac" x="168.72" y="449.347"/><use xlink:href="#bS" x="177.035" y="449.347"/><use xlink:href="#al" x="185.35" y="449.347"/><use xlink:href="#ad" x="193.665" y="449.347"/></g><g><use xlink:href="#bW" x="196.374" y="449.347"/><use xlink:href="#bX" x="204.689" y="449.347"/><use xlink:href="#bj" x="213.004" y="449.347"/><use xlink:href="#bE" x="221.319" y="449.347"/><use xlink:href="#bG" x="229.634" y="449.347"/><use xlink:href="#ad" x="231.768" y="449.347"/></g><g><use xlink:href="#bY" x="234.478" y="449.347"/><use xlink:href="#ca" x="242.793" y="449.347"/><use xlink:href="#ad" x="251.108" y="449.347"/></g><g><use xlink:href="#cb" x="253.818" y="449.347"/><use xlink:href="#cc" x="262.133" y="449.347"/><use xlink:href="#cd" x="270.448" y="449.347"/><use xlink:href="#ad" x="278.763" y="449.347"/></g><g><use xlink:href="#ak" x="281.473" y="449.347"/><use xlink:href="#al" x="289.787" y="449.347"/><use xlink:href="#ad" x="298.102" y="449.347"/></g><g><use xlink:href="#bB" x="300.812" y="449.347"/><use xlink:href="#ap" x="309.127" y="449.347"/><use xlink:href="#ad" x="317.442" y="449.347"/></g><g><use xlink:href="#ce" x="320.152" y="449.347"/><use xlink:href="#cf" x="328.467" y="449.347"/><use xlink:href="#cg" x="336.782" y="449.347"/><use xlink:href="#ao" x="345.097" y="449.347"/><use xlink:href="#bE" x="353.412" y="449.347"/><use xlink:href="#bG" x="361.727" y="449.347"/><use xlink:href="#ad" x="363.861" y="449.347"/></g><g><use xlink:href="#aW" x="366.571" y="449.347"/><use xlink:href="#bC" x="374.886" y="449.347"/><use xlink:href="#bm" x="383.201" y="449.347"/><use xlink:href="#ad" x="391.515" y="449.347"/></g><g><use xlink:href="#aU" x="394.225" y="449.347"/><use xlink:href="#ch" x="402.54" y="449.347"/><use xlink:href="#ci" x="410.855" y="449.347"/><use xlink:href="#ad" x="419.17" y="449.347"/></g><g><use xlink:href="#cj" x="421.88" y="449.347"/><use xlink:href="#ck" x="430.194" y="449.347"/><use xlink:href="#cl" x="438.509" y="449.347"/><use xlink:href="#ad" x="446.824" y="449.347"/></g><g><use xlink:href="#ac" x="449.534" y="449.347"/><use xlink:href="#bS" x="457.849" y="449.347"/><use xlink:href="#cm" x="466.164" y="449.347"/><use xlink:href="#cd" x="474.479" y="449.347"/><use xlink:href="#ad" x="482.794" y="449.347"/></g><g><use xlink:href="#bT" x="485.503" y="449.347"/><use xlink:href="#bU" x="493.818" y="449.347"/><use xlink:href="#be" x="502.133" y="449.347"/><use xlink:href="#cn" x="510.448" y="449.347"/><use xlink:href="#ad" x="518.763" y="449.347"/></g><g><use xlink:href="#co" x="521.473" y="449.347"/><use xlink:href="#cp" x="529.788" y="449.347"/><use xlink:href="#bp" x="538.103" y="449.347"/><use xlink:href="#cq" x="546.418" y="449.347"/></g><g><use xlink:href="#al" x="28.312" y="468.324"/><use xlink:href="#ad" x="36.627" y="468.324"/><use xlink:href="#bB" x="39.029" y="468.324"/><use xlink:href="#bG" x="47.344" y="468.324"/><use xlink:href="#ad" x="49.478" y="468.324"/><use xlink:href="#ap" x="51.88" y="468.324"/><use xlink:href="#ad" x="60.195" y="468.324"/><use xlink:href="#cb" x="62.597" y="468.324"/><use xlink:href="#cr" x="70.912" y="468.324"/><use xlink:href="#ad" x="79.227" y="468.324"/><use xlink:href="#bB" x="81.629" y="468.324"/><use xlink:href="#ar" x="89.944" y="468.324"/><use xlink:href="#ad" x="98.259" y="468.324"/><use xlink:href="#cs" x="100.661" y="468.324"/><use xlink:href="#ar" x="108.976" y="468.324"/><use xlink:href="#ad" x="117.29" y="468.324"/><use xlink:href="#ac" x="119.693" y="468.324"/><use xlink:href="#bS" x="128.007" y="468.324"/><use xlink:href="#ac" x="136.322" y="468.324"/><use xlink:href="#ad" x="144.637" y="468.324"/><use xlink:href="#ck" x="147.039" y="468.324"/><use xlink:href="#ct" x="155.354" y="468.324"/><use xlink:href="#cu" x="163.669" y="468.324"/><use xlink:href="#ad" x="171.984" y="468.324"/><use xlink:href="#au" x="174.386" y="468.324"/><use xlink:href="#ck" x="182.701" y="468.324"/><use xlink:href="#cd" x="191.016" y="468.324"/><use xlink:href="#ad" x="199.331" y="468.324"/><use xlink:href="#cv" x="201.733" y="468.324"/><use xlink:href="#cw" x="210.048" y="468.324"/><use xlink:href="#bz" x="218.363" y="468.324"/><use xlink:href="#ad" x="226.677" y="468.324"/><use xlink:href="#ao" x="229.08" y="468.324"/><use xlink:href="#aS" x="237.394" y="468.324"/><use xlink:href="#aT" x="245.709" y="468.324"/></g><g><use xlink:href="#cx" x="488.244" y="279.089"/><use xlink:href="#cy" x="498.132" y="279.089"/><use xlink:href="#cz" x="508.02" y="279.089"/><use xlink:href="#cA" x="517.907" y="279.089"/></g><g><use xlink:href="#cB" x="520.764" y="279.089"/><use xlink:href="#cC" x="530.652" y="279.089"/><use xlink:href="#cD" x="540.54" y="279.089"/></g><g><use xlink:href="#cE" x="463.339" y="296.528"/><use xlink:href="#cF" x="471.654" y="296.528"/><use xlink:href="#cG" x="479.969" y="296.528"/><use xlink:href="#cH" x="488.284" y="296.528"/><use xlink:href="#as" x="496.599" y="296.528"/><use xlink:href="#ad" x="504.913" y="296.528"/><use xlink:href="#ax" x="507.315" y="296.528"/><use xlink:href="#cI" x="515.63" y="296.528"/><use xlink:href="#cH" x="523.945" y="296.528"/><use xlink:href="#au" x="532.26" y="296.528"/></g><path d="M28.313 792.695h526.6" fill="none" stroke="#1f3d90" stroke-width=".99879"/></svg>