<svg xmlns="http://www.w3.org/2000/svg" xmlns:xlink="http://www.w3.org/1999/xlink" width="793.701" height="1122.52" viewBox="0 0 595.276 841.89" version="1.2"><defs><symbol overflow="visible" id="a"><path d="M.297-2.672c0-.84.195-1.515.594-2.015.34-.446.765-.672 1.265-.672.496 0 .926.226 1.281.671.383.5.579 1.184.579 2.047 0 .868-.196 1.551-.579 2.047-.355.45-.785.672-1.28.672-.493 0-.915-.223-1.266-.672C.492-1.09.297-1.785.297-2.672zm.781 0c0 .586.102 1.074.313 1.469.195.375.453.562.765.562.309 0 .57-.187.781-.562.208-.383.313-.863.313-1.438 0-.57-.105-1.05-.313-1.437-.21-.371-.472-.563-.78-.563-.305 0-.56.192-.766.563-.211.375-.313.848-.313 1.406zm0 0"/></symbol><symbol overflow="visible" id="b"><path d="M1.75-.75h1.969V0H.172L2-2.219c.184-.215.336-.406.453-.562.121-.164.219-.305.281-.422.133-.207.204-.399.204-.578a.814.814 0 0 0-.266-.61.924.924 0 0 0-.64-.25c-.532 0-.84.317-.923.938H.33C.448-4.805 1.007-5.36 2-5.36c.488 0 .895.152 1.219.453.32.304.484.68.484 1.125 0 .293-.074.582-.219.86-.086.136-.199.304-.343.5-.149.198-.336.433-.563.702zm0 0"/></symbol><symbol overflow="visible" id="d"><path d="M.64 0H1v-4.375H.64zm0 0"/></symbol><symbol overflow="visible" id="e"><path d="M.75-.156c.156 0 .313-.11.313-.313A.317.317 0 0 0 .75-.797a.317.317 0 0 0-.313.328c0 .203.157.313.313.313zm0 0"/></symbol><symbol overflow="visible" id="g"><path d="M1.844-3.953h1.078v-.281H.406v.28h1.125v.563c0 1.11-.484 2.016-1.218 2.407l.203.25c.578-.329 1-.954 1.187-1.75.188.718.578 1.265 1.125 1.578l.203-.25c-.734-.375-1.187-1.235-1.187-2.235zm2.687-.953v2.203h-.86v-2.078H3.36V.125h.313v-2.547h.86V.422h.312v-5.328zm0 0"/></symbol><symbol overflow="visible" id="h"><path d="M3.469-2.5c-.75.156-1.406.188-2.453.188H.937v-1.844h2.016v-.282H.61v2.407h.407c1.078 0 1.718-.047 2.5-.188zM1.516-1.422h-.329V.281h3.516V.016H1.516zm2.937-1.844v-1.656h-.328v3.875h.328v-1.937h.828v-.282zm0 0"/></symbol><symbol overflow="visible" id="i"><path d="M4.36.063H1.655V-.72H4.36zm0-1.047H1.655v-.735h-.312V.344h3.328V-1.72h-.313zM2.655-2.5H.953v-.969h1.703zM4.36-4.906v1.36H2.97v-1.095h-.313v.907H.953v-.907H.625v2.422h2.344V-3.28h1.39V-2h.329v-2.906zm0 0"/></symbol><symbol overflow="visible" id="j"><path d="M4.672-4.906h-.313V-.97h.313zM.797-3.234c0-.563.453-1 1.047-1 .593 0 1.047.437 1.047 1 0 .578-.454 1.015-1.047 1.015-.594 0-1.047-.437-1.047-1.015zm2.39 0c0-.75-.562-1.282-1.343-1.282-.782 0-1.36.532-1.36 1.282 0 .765.579 1.296 1.36 1.296.781 0 1.343-.53 1.343-1.296zM1.641.016v-1.407h-.313V.281H4.86V.016zm0 0"/></symbol><symbol overflow="visible" id="k"><path d="M.672-4.36v3.391h2.375v-3.39zm2.062.266v2.86H.984v-2.86zm1.61-.812V.422h.312v-5.328zm0 0"/></symbol><symbol overflow="visible" id="l"><path d="M.844-1.188v-1.359H2.5v-1.75H.516v.266h1.687v1.218H.531v1.907h.344c.672 0 1.281-.031 2.063-.172l-.047-.266c-.75.125-1.36.157-2.016.157zM4.53-4.905v2.156H3.61v-2.031h-.312V.125h.312v-2.61h.922V.423h.313v-5.328zm0 0"/></symbol><symbol overflow="visible" id="m"><path d="M2.078-4.5C1.25-4.5.672-4.016.672-3.281c0 .719.578 1.219 1.406 1.219s1.406-.5 1.406-1.22c0-.734-.578-1.218-1.406-1.218zm0 .281c.64 0 1.094.39 1.094.938 0 .547-.453.937-1.094.937-.64 0-1.094-.39-1.094-.937s.454-.938 1.094-.938zm2.219-.687V.422h.312v-5.328zM.422-.796c.969 0 2.297 0 3.531-.235l-.031-.235c-1.188.172-2.547.188-3.547.188zm0 0"/></symbol><symbol overflow="visible" id="n"><path d="M3.516-4.297H2.094v-.64H1.78v.64H.36v.266h3.157zM.984-2.734c0-.407.391-.688.954-.688.578 0 .953.281.953.688 0 .406-.375.687-.954.687-.562 0-.953-.281-.953-.687zm2.204 0c0-.579-.5-.938-1.25-.938s-1.266.36-1.266.938c0 .593.515.953 1.265.953.75 0 1.25-.36 1.25-.953zM1.03-.984h3.094v1.39h.328V-1.25H1.031zm4.25-2.407h-.828v-1.515h-.328v3.328h.328V-3.11h.828zm0 0"/></symbol><symbol overflow="visible" id="o"><path d="M.734-3.25c0-.578.454-1.016 1.047-1.016.594 0 1.047.438 1.047 1.016 0 .594-.453 1.031-1.047 1.031-.593 0-1.047-.437-1.047-1.031zm3.625-.5v1H3.047c.062-.156.078-.328.078-.5 0-.188-.031-.36-.078-.5zm0 1.266v1.53h.329v-3.952h-.329v.875H2.891c-.235-.313-.641-.516-1.11-.516C1-4.547.438-4.016.438-3.25c0 .766.562 1.313 1.343 1.313.485 0 .875-.204 1.125-.547zM1.672.016V-1.36h-.328V.28h3.5V.016zm0 0"/></symbol><symbol overflow="visible" id="p"><path d="M5.156-2.25h-.843c.156-.781.156-1.344.156-1.844v-.453h-3.5v.266h3.187v.187c0 .5 0 1.078-.172 1.844H.344v.281h2.25v2.39h.312v-2.39h2.25zm0 0"/></symbol><symbol overflow="visible" id="q"><path d="M4.906-2.203c-.765-.156-2.015-.922-2.015-1.89v-.423h-.329v.422c0 .969-1.218 1.735-1.984 1.89l.14.267c.72-.172 1.688-.75 2.016-1.563.344.813 1.313 1.39 2.032 1.563zM2.891-.578v-1.36h-.313v1.36H.344v.265h4.828v-.265zm0 0"/></symbol><symbol overflow="visible" id="r"><path d="M.547-4.203v.266h1.75C2.234-2.813 1.703-1.72.375-.985l.188.234c1.546-.86 2.046-2.172 2.046-3.453zm3.984-.703v2.218h-.89v-2.078h-.297V.125h.297v-2.547h.89V.422h.297v-5.328zm0 0"/></symbol><symbol overflow="visible" id="s"><path d="M2.469 0h.39L5.25-7.25h-.375l-1.39 4.328C3.187-2.016 3-1.359 2.687-.469H2.64c-.297-.89-.5-1.547-.782-2.453L.453-7.25h-.39zm0 0"/></symbol><symbol overflow="visible" id="t"><path d="M2.922.125c1.265 0 2.344-1 2.344-2.734 0-1.782-1.079-2.782-2.344-2.782-1.25 0-2.328 1-2.328 2.782C.594-.875 1.672.125 2.922.125zm0-.328C1.812-.203.969-1.172.969-2.61c0-1.454.844-2.454 1.953-2.454 1.125 0 1.969 1 1.969 2.454 0 1.437-.844 2.406-1.97 2.406zm0 0"/></symbol><symbol overflow="visible" id="u"><path d="M1.594.125c.14 0 .203-.016.297-.031L1.812-.22c-.109.016-.14.016-.187.016-.14 0-.219-.11-.219-.328v-7.39h-.36v7.327c0 .516.204.719.548.719zm0 0"/></symbol><symbol overflow="visible" id="v"><path d="M1.156-.36a.416.416 0 0 0 .407-.421c0-.297-.22-.453-.407-.453-.203 0-.406.156-.406.453 0 .265.203.422.406.422zm0 0"/></symbol><symbol overflow="visible" id="x"><path d="M.953 0h3.563v-.328H2.969V-7.25h-.313c-.312.188-.75.328-1.312.422v.266h1.265v6.234H.953zm0 0"/></symbol><symbol overflow="visible" id="y"><path d="M2.64-6.438c2.25-.609 3.782-1.906 4.641-3.578.86 1.594 2.36 2.829 4.594 3.391l1.203-2.094c-2.828-.734-4.234-2.484-4.422-4.328h3.906v-2.203H8.642v-2.094H5.844v2.094H1.969v2.203h3.86C5.64-11.109 4.28-9.312 1.405-8.562zm6-.562H5.845v2.938C4.094-4 2.406-4 .984-4l.36 2.234c3.312-.015 7.86-.03 12.015-.875l-.171-2.015c-1.47.234-3 .36-4.547.468zm5.594-10.531V1.844H17v-19.375zm0 0"/></symbol><symbol overflow="visible" id="z"><path d="M16.938-17.484h-2.782v14.062h2.781zm-4.204 8.953c-3.156-1.016-4.5-3.485-4.5-6.016v-1.89H5.438v1.89c0 2.547-1.391 5.25-4.594 6.344L2.25-6C4.484-6.766 6-8.344 6.875-10.297c.844 1.797 2.313 3.235 4.453 3.969zM6.86-.734v-4.032H4.094V1.47h13.328V-.734zm0 0"/></symbol><symbol overflow="visible" id="A"><path d="M9.578-.266c-2.578 0-3.89-.453-3.89-1.453S7-3.187 9.578-3.187c2.578 0 3.906.468 3.906 1.468S12.156-.266 9.578-.266zm0-5.015C5.406-5.281 2.891-4 2.891-1.72c0 2.266 2.515 3.547 6.687 3.547 4.172 0 6.719-1.281 6.719-3.547C16.297-4 13.75-5.28 9.578-5.28zm1.453-3.14v-1.595h5.36v-2.203H5.78v-2.265h10.516v-2.204H3.047v6.672h5.219v1.594H.922v2.188H18.39v-2.188zm0 0"/></symbol><symbol overflow="visible" id="B"><path d="M12.266-15.656H7.969v-1.985H5.172v1.985H.906v2.156h11.36zM4.484-9.422c0-.937.86-1.437 2.094-1.437 1.25 0 2.11.5 2.11 1.437 0 .953-.86 1.453-2.11 1.453-1.234 0-2.094-.5-2.094-1.453zm6.844 0c0-2.047-1.953-3.453-4.75-3.453-2.781 0-4.734 1.406-4.734 3.453 0 2.063 1.953 3.453 4.734 3.453 2.797 0 4.75-1.39 4.75-3.453zM9.813-.25c-2.438 0-3.735-.438-3.735-1.36 0-.952 1.297-1.374 3.734-1.374 2.438 0 3.735.421 3.735 1.375 0 .921-1.297 1.359-3.735 1.359zm0-4.797c-3.985 0-6.485 1.266-6.485 3.438 0 2.14 2.5 3.437 6.485 3.437 3.984 0 6.484-1.297 6.484-3.437 0-2.172-2.5-3.438-6.485-3.438zm8.765-7.422v-2.265H16.11v-2.75h-2.765v12.218h2.765V-8.28h2.47v-2.25h-2.47v-1.938zm0 0"/></symbol><symbol overflow="visible" id="D"><path d="M5.5-11.14h8.25v2.718H5.5zm5.516 8.453v-3.547h5.468v-10.079H13.75v3H5.5v-3H2.75v10.079h5.484v3.546H.906v2.25h17.485v-2.25zm0 0"/></symbol><symbol overflow="visible" id="E"><path d="M15.938-4.766c.78-4.109.78-6.828.78-9.234v-1.86H2.689v2.204h11.25c0 2.25-.032 4.937-.766 8.578zM9.858-2.75v-6.64H7.094v6.64H.922v2.219H18.39V-2.75zm0 0"/></symbol><symbol overflow="visible" id="F"><path d="M8.156-16.016H5.375v2.782c0 3.671-1.469 7.421-4.75 8.937l1.719 2.219c2.172-1.094 3.61-3.094 4.453-5.578.797 2.328 2.203 4.218 4.312 5.25L12.75-4.61c-3.188-1.422-4.594-4.97-4.594-8.625zm6.188-1.515v6.062h-3.719v2.219h3.719V1.844h2.765v-19.375zm0 0"/></symbol><symbol overflow="visible" id="G"><path d="M.906 0h10.39v-2.594H7.923c-.703 0-1.734.078-2.516.156 2.828-2.765 5.157-5.78 5.157-8.593 0-2.89-1.938-4.781-4.876-4.781-2.125 0-3.5.843-4.937 2.343l1.688 1.688c.765-.86 1.718-1.594 2.843-1.594 1.469 0 2.328.938 2.328 2.516 0 2.39-2.5 5.296-6.703 9.078zm0 0"/></symbol><symbol overflow="visible" id="H"><path d="M6.188.297c3.14 0 5.234-2.766 5.234-8.125 0-5.344-2.094-7.984-5.235-7.984-3.171 0-5.265 2.624-5.265 7.984 0 5.36 2.094 8.125 5.266 8.125zm0-2.422c-1.344 0-2.344-1.328-2.344-5.703 0-4.328 1-5.594 2.344-5.594 1.312 0 2.328 1.266 2.328 5.594 0 4.375-1.016 5.703-2.329 5.703zm0 0"/></symbol><symbol overflow="visible" id="I"><path d="M1.719 0h9.328v-2.5H8.14v-13.016H5.844c-.985.61-2.047 1-3.594 1.297v1.906h2.797V-2.5H1.719zm0 0"/></symbol><symbol overflow="visible" id="J"><path d="M5.11-3.14c.234-1.626.234-2.782.234-3.485v-.484H.906v.656h3.656c0 .719-.015 1.781-.265 3.234zM3.093-4.595h-.797v2.703c-.656.016-1.313.032-1.86.032l.079.671c1.562 0 3.625-.046 5.453-.343l-.047-.578c-.89.109-1.875.156-2.828.203zm5.562.203h-1.39v-3.671h-.813v8.78h.813v-4.437h1.39zm0 0"/></symbol><symbol overflow="visible" id="K"><path d="M5.734-7.125H3.531v-.984h-.797v.984H.547v.64h5.187zM1.797-4.437c0-.594.531-.97 1.344-.97.796 0 1.343.376 1.343.954 0 .594-.546.969-1.343.969-.813 0-1.344-.36-1.344-.954zm3.437 0c0-.97-.843-1.594-2.093-1.594s-2.11.625-2.11 1.578c0 .969.86 1.594 2.11 1.594s2.093-.625 2.093-1.579zm-3.593 3h4.89V.733h.813v-2.828H1.64zm7-4.204H7.344v-2.406H6.53v5.485h.813V-4.97H8.64zm0 0"/></symbol><symbol overflow="visible" id="L"><path d="M1.031-7.11v.641h3.313C4.172-4.375 3-2.687.64-1.562l.421.656C3.985-2.344 5.157-4.578 5.157-7.11zm5.89-.952v8.78h.813v-8.78zm0 0"/></symbol><symbol overflow="visible" id="M"><path d="M8.031-5.578c-1.594-.188-3.125-1.047-3.125-2.11v-.343h-.828v.344c0 1.062-1.547 1.921-3.14 2.109l.28.594c1.391-.172 2.72-.782 3.266-1.72.563.938 1.891 1.548 3.282 1.72zM8.47-3.75v-.656H.516v.656h3.562v.875h-2.61v.61h5.188v.812H1.5V.625h6.203V0H2.281v-.875h5.172v-2H4.891v-.875zm0 0"/></symbol><symbol overflow="visible" id="N"><path d="M5.219-5.781v.656h1.734v2.297h.813v-5.219h-.813v2.266zm.484 2c-1.281-.453-2.14-1.563-2.14-2.688v-.297H5.5v-.656H.797v.656h1.969v.297c0 1.266-.907 2.453-2.22 2.938l.423.625a3.776 3.776 0 0 0 2.219-2.235 3.577 3.577 0 0 0 2.109 1.985zM4.86.094c-1.328 0-2.125-.375-2.125-1 0-.64.797-1.031 2.125-1.031 1.329 0 2.125.39 2.125 1.03 0 .626-.796 1-2.125 1zm0-2.64c-1.796 0-2.921.593-2.921 1.64C1.938.125 3.063.719 4.858.719c1.797 0 2.922-.594 2.922-1.625 0-1.047-1.125-1.64-2.922-1.64zm0 0"/></symbol><symbol overflow="visible" id="O"><path d="M2.25-5.219h4.484v1.625H2.25zm2.64 4.157v-1.891h2.641v-4.485h-.797v1.563H2.25v-1.563h-.797v4.485h2.625v1.89H.516v.657h7.968v-.656zm0 0"/></symbol><symbol overflow="visible" id="P"><path d="M4.484.11c-1.406 0-2.203-.282-2.203-.813 0-.516.797-.797 2.203-.797 1.422 0 2.204.281 2.204.797 0 .531-.782.812-2.204.812zm0-2.204c-1.906 0-3 .485-3 1.39 0 .923 1.094 1.423 3 1.423C6.391.719 7.5.219 7.5-.703c0-.906-1.11-1.39-3.016-1.39zm.407-1.312v-.86h2.64v-.625H2.36v-.875H7.25v-.609H2.36v-.813h5.124v-.625H1.563v3.547h2.515v.86H.516v.64h7.953v-.64zm0 0"/></symbol><symbol overflow="visible" id="Q"><path d="M7.734-8.063h-.812v6.454h.812zM5.813-3.686c-1.313-.47-2.204-1.672-2.204-3v-.891h-.796v.89A3.404 3.404 0 0 1 .608-3.53l.422.656c1.032-.422 1.813-1.281 2.188-2.344.39 1 1.172 1.797 2.172 2.172zM2.874-.126v-2.094h-.797v2.75H8v-.656zm0 0"/></symbol><symbol overflow="visible" id="R"><path d="M6.672-4.563h-4.36v-1.296h4.36zm.797-3.14h-.797V-6.5h-4.36v-1.203h-.796v3.797h5.953zm1.015 4.86H.516v.64h3.562V.734h.797v-2.937h3.61zm0 0"/></symbol><symbol overflow="visible" id="T"><path d="M8.11-3.766c-1.547-.28-3.22-1.578-3.22-3.03v-.673h-.843v.672c0 1.453-1.672 2.75-3.203 3.031l.328.657c1.36-.282 2.734-1.188 3.297-2.454.562 1.266 1.953 2.172 3.297 2.454zM4.874-1.078v-2.14h-.813v2.14H.517v.656H8.5v-.656zm0 0"/></symbol><symbol overflow="visible" id="U"><path d="M5.14-4.313c.22-1.156.22-2.03.22-2.609v-.453H.983v.656h3.594c0 .563-.031 1.313-.234 2.313zm.829.532c-.89.125-1.89.203-2.86.234v-1.875h-.78v1.906C1.655-3.5 1.015-3.5.452-3.5l.078.656c1.563 0 3.672-.047 5.5-.344zm-3.36 1.734h-.812V.531H7.64v-.656H2.609zm4.75-3.156v-2.86h-.812v6.626h.812v-3.094h1.266v-.672zm0 0"/></symbol><symbol overflow="visible" id="V"><path d="M6.906-8.063V.735h.797v-8.796zm-5.89.75v5.922h4.14v-5.921H4.36V-5H1.813v-2.313zm.796 2.954H4.36v2.312H1.813zm0 0"/></symbol><symbol overflow="visible" id="W"><path d="M1.422-5.453c0-.813.64-1.406 1.5-1.406s1.484.593 1.484 1.406c0 .812-.625 1.406-1.484 1.406-.86 0-1.5-.594-1.5-1.406zm5.531-.688v1.375h-1.89c.078-.218.109-.453.109-.687 0-.266-.031-.484-.11-.688zm0 2.032v1.25h.813v-5.204h-.813v1.266H4.687c-.39-.453-1.03-.734-1.765-.734-1.313 0-2.266.843-2.266 2.078 0 1.234.953 2.094 2.266 2.094.734 0 1.375-.282 1.765-.75zM4.843.078C3.532.078 2.72-.312 2.72-.969c0-.672.812-1.062 2.125-1.062C6.187-2.031 7-1.641 7-.97 7-.313 6.187.078 4.844.078zm0-2.734c-1.796 0-2.905.625-2.905 1.687C1.938.094 3.046.72 4.844.72 6.656.719 7.78.094 7.78-.97c0-1.062-1.125-1.687-2.937-1.687zm0 0"/></symbol><symbol overflow="visible" id="X"><path d="M1.828-4.11h3.25v-3.14H1v.656h3.266v1.828H1.03v3.375h.719c1.516 0 2.844-.062 4.438-.328l-.079-.656c-1.546.25-2.843.313-4.28.313zm5.094-3.968V.734h.812v-8.812zm0 0"/></symbol><symbol overflow="visible" id="Y"><path d="M6.953-.047H2.922V-1.14h4.031zm0-1.719H2.922v-1.062h-.797V.594H7.75v-3.422h-.797zM4.125-4.234H1.75v-1.407h2.375zm2.828-3.813v2.156H4.922v-1.718h-.797v1.343H1.75v-1.343H.953v4.03h3.969v-1.655h2.031v1.984h.813v-4.797zm0 0"/></symbol><symbol overflow="visible" id="Z"><path d="M7.734-8.047h-.812v6.406h.812zm-6.218 2.75c0-.844.64-1.453 1.484-1.453.875 0 1.531.61 1.531 1.453 0 .875-.656 1.484-1.531 1.484-.844 0-1.484-.609-1.484-1.484zm3.796 0c0-1.25-.984-2.156-2.312-2.156-1.297 0-2.281.906-2.281 2.156 0 1.281.984 2.188 2.281 2.188 1.328 0 2.313-.907 2.313-2.188zM2.876-.125v-2.172h-.797V.531H8v-.656zm0 0"/></symbol><symbol overflow="visible" id="aa"><path d="M7-8.188v3.454h-.734v-3.313H5.062v5.844c-1.328-.703-1.78-2.203-1.78-3.766v-.25H4.64v-1.047H.547v1.047H2.03v.25c0 1.735-.437 3.328-1.781 4.11l.781.984c.844-.5 1.375-1.36 1.657-2.39.328.89.843 1.624 1.656 2.046l.718-.968V.437h1.204v-4.109H7v4.5h1.234v-9.015zm0 0"/></symbol><symbol overflow="visible" id="ab"><path d="M5.531-4.438c-.984.204-1.875.266-3.484.282v-2.282h2.75v-1.03H.766v4.343h.75c2 0 3.03-.047 4.14-.297zM3-2.344H1.703V.687h6.14v-1.03H3zm4.531-3.375v-2.468H6.234v6.53h1.297v-3H8.72v-1.062zm0 0"/></symbol><symbol overflow="visible" id="ac"><path d="M6.688-.297H3.265v-.766h3.421zm0-1.75H3.265v-.797H1.984V.72H7.97v-3.563H6.687zM3.796-4.53H2.094v-1.063h1.703zm2.875-3.657v2.063h-1.61v-1.594H3.798v1.14H2.094v-1.14H.797V-3.5h4.266v-1.578h1.609v1.844h1.297v-4.954zm0 0"/></symbol><symbol overflow="visible" id="ad"><path d="M7.922-8.172H6.609v6.485h1.313zm-6.11 2.86c0-.735.532-1.172 1.188-1.172.688 0 1.188.437 1.188 1.171 0 .735-.5 1.172-1.188 1.172-.656 0-1.188-.437-1.188-1.171zm3.641 0C5.453-6.641 4.391-7.61 3-7.61c-1.375 0-2.453.968-2.453 2.296C.547-4 1.625-3.03 3-3.03c1.39 0 2.453-.969 2.453-2.281zM3.203-.345v-1.984H1.906V.687h6.235v-1.03zm0 0"/></symbol><symbol overflow="visible" id="af"><path d="M.86-7.375v6.078h4.343v-6.078zm3.062 1.031v4.016H2.14v-4.016zm2.687-1.843V.858h1.282v-9.046zm0 0"/></symbol><symbol overflow="visible" id="ag"><path d="M1.922-3.813h2.14v-3.5H.656v1.047h2.172v1.438H.672v3.672h.625c1.094 0 2.078-.032 3.234-.219l-.11-1.047c-.89.14-1.671.188-2.5.203zm5.016-4.374v3.406h-.813v-3.25H4.922V.406h1.203V-3.75h.813V.828h1.218v-9.015zm0 0"/></symbol><symbol overflow="visible" id="ah"><path d="M3.328-7.578c-1.422 0-2.484.922-2.484 2.219 0 1.296 1.062 2.218 2.484 2.218 1.406 0 2.485-.921 2.485-2.218S4.734-7.58 3.328-7.58zm0 1.11c.688 0 1.219.405 1.219 1.109 0 .703-.531 1.125-1.219 1.125-.703 0-1.234-.422-1.234-1.125 0-.704.531-1.11 1.234-1.11zm3.328-1.72V.86h1.282v-9.046zM.625-.968c1.563 0 3.672-.016 5.61-.407l-.079-.938c-1.89.282-4.11.297-5.703.297zm0 0"/></symbol><symbol overflow="visible" id="ai"><path d="M5.734-7.39H3.72v-.844H2.422v.843h-2v1.016h5.312zm-3.64 2.968c0-.453.39-.687.984-.687.578 0 .985.234.985.687 0 .453-.407.672-.985.672-.594 0-.984-.219-.984-.672zm3.203 0c0-.984-.922-1.656-2.219-1.656-1.297 0-2.219.672-2.219 1.656 0 .984.922 1.656 2.22 1.656 1.296 0 2.218-.671 2.218-1.656zM1.516-1.109h4.718V.859h1.297v-3.015H1.516zm7.203-4.75H7.53v-2.329H6.234v5.657h1.297v-2.266H8.72zm0 0"/></symbol><symbol overflow="visible" id="aj"><path d="M1.766-5.313c0-.734.484-1.203 1.14-1.203.672 0 1.156.47 1.156 1.204 0 .75-.484 1.218-1.156 1.218-.656 0-1.14-.468-1.14-1.218zm4.906-.578v1.157H5.219c.047-.172.078-.375.078-.579 0-.203-.031-.406-.078-.578zm0 2.188v2.125h1.297v-6.61H6.672v1.266H4.656c-.437-.453-1.047-.719-1.75-.719-1.328 0-2.375.985-2.375 2.329 0 1.359 1.047 2.343 2.375 2.343.703 0 1.328-.281 1.781-.734zm-3.36 3.36V-2.22H2.016V.687h6.156v-1.03zm0 0"/></symbol><symbol overflow="visible" id="ak"><path d="M8.578-3.828H7.391c.234-1.25.234-2.172.234-3.016v-.812H1.359v1.031h5c0 .781-.015 1.656-.25 2.797H.438v1.047h3.359V.844h1.312v-3.625h3.47zm0 0"/></symbol></defs><g fill="#898989"><use xlink:href="#a" x="28.312" y="819.169"/><use xlink:href="#b" x="32.591" y="819.169"/></g><g fill="#898989"><use xlink:href="#c" x="36.906" y="819.169"/><use xlink:href="#c" x="38.996" y="819.169"/></g><g fill="#595757"><use xlink:href="#d" x="471.719" y="818.993"/><use xlink:href="#e" x="473.229" y="818.993"/><use xlink:href="#f" x="474.614" y="818.993"/><use xlink:href="#g" x="476.172" y="818.993"/><use xlink:href="#h" x="481.565" y="818.993"/><use xlink:href="#i" x="486.959" y="818.993"/><use xlink:href="#j" x="492.352" y="818.993"/><use xlink:href="#f" x="497.745" y="818.993"/><use xlink:href="#k" x="499.304" y="818.993"/><use xlink:href="#l" x="504.697" y="818.993"/><use xlink:href="#m" x="510.09" y="818.993"/><use xlink:href="#n" x="515.484" y="818.993"/><use xlink:href="#o" x="520.877" y="818.993"/><use xlink:href="#p" x="526.271" y="818.993"/><use xlink:href="#g" x="531.664" y="818.993"/><use xlink:href="#h" x="537.058" y="818.993"/><use xlink:href="#f" x="542.451" y="818.993"/><use xlink:href="#q" x="544.009" y="818.993"/><use xlink:href="#r" x="549.403" y="818.993"/></g><use xlink:href="#s" x="512.874" y="418.779" fill="#595757"/><g fill="#595757"><use xlink:href="#t" x="517.858" y="418.779"/><use xlink:href="#u" x="523.511" y="418.779"/><use xlink:href="#v" x="525.848" y="418.779"/><use xlink:href="#w" x="527.955" y="418.779"/><use xlink:href="#x" x="530.552" y="418.779"/><use xlink:href="#x" x="535.556" y="418.779"/></g><g fill="#595757"><use xlink:href="#y" x="351.039" y="399.192"/><use xlink:href="#z" x="369.916" y="399.192"/><use xlink:href="#A" x="388.793" y="399.192"/><use xlink:href="#B" x="407.67" y="399.192"/><use xlink:href="#C" x="426.547" y="399.192"/><use xlink:href="#D" x="432.001" y="399.192"/><use xlink:href="#E" x="450.878" y="399.192"/><use xlink:href="#F" x="469.755" y="399.192"/><use xlink:href="#C" x="488.632" y="399.192"/><use xlink:href="#G" x="494.085" y="399.192"/><use xlink:href="#H" x="506.02" y="399.192"/><use xlink:href="#G" x="517.954" y="399.192"/><use xlink:href="#I" x="529.889" y="399.192"/></g><g fill="#595757"><use xlink:href="#J" x="89.655" y="395.011"/><use xlink:href="#K" x="98.367" y="395.011"/><use xlink:href="#L" x="107.079" y="395.011"/><use xlink:href="#M" x="115.792" y="395.011"/><use xlink:href="#N" x="124.504" y="395.011"/><use xlink:href="#O" x="133.216" y="395.011"/><use xlink:href="#P" x="141.928" y="395.011"/><use xlink:href="#Q" x="150.641" y="395.011"/><use xlink:href="#R" x="159.353" y="395.011"/><use xlink:href="#S" x="168.065" y="395.011"/><use xlink:href="#T" x="170.513" y="395.011"/><use xlink:href="#U" x="179.225" y="395.011"/><use xlink:href="#S" x="187.937" y="395.011"/><use xlink:href="#V" x="190.384" y="395.011"/><use xlink:href="#W" x="199.097" y="395.011"/><use xlink:href="#X" x="207.809" y="395.011"/><use xlink:href="#Y" x="216.521" y="395.011"/><use xlink:href="#Z" x="225.234" y="395.011"/><use xlink:href="#S" x="233.946" y="395.011"/></g><g fill="#595757"><use xlink:href="#aa" x="236.393" y="395.011"/><use xlink:href="#ab" x="245.105" y="395.011"/><use xlink:href="#ac" x="253.818" y="395.011"/><use xlink:href="#ad" x="262.53" y="395.011"/><use xlink:href="#ae" x="271.242" y="395.011"/><use xlink:href="#af" x="273.69" y="395.011"/><use xlink:href="#ag" x="282.402" y="395.011"/><use xlink:href="#ah" x="291.114" y="395.011"/><use xlink:href="#ai" x="299.827" y="395.011"/><use xlink:href="#aj" x="308.539" y="395.011"/><use xlink:href="#ak" x="317.251" y="395.011"/><use xlink:href="#aa" x="325.963" y="395.011"/><use xlink:href="#ab" x="334.676" y="395.011"/></g></svg>