<svg xmlns="http://www.w3.org/2000/svg" xmlns:xlink="http://www.w3.org/1999/xlink" width="793.701" height="1122.52" viewBox="0 0 595.276 841.89" version="1.2"><defs><symbol overflow="visible" id="a"><path d="M2.75-5.469l.578.438-1.25 1.718c.059-.007.113-.015.156-.015.051-.008.094-.016.125-.016.426 0 .797.168 1.11.5.308.324.469.715.469 1.172 0 .48-.176.895-.516 1.234a1.704 1.704 0 0 1-1.25.516c-.48 0-.899-.164-1.25-.5C.566-.762.39-1.164.39-1.625c0-.414.171-.86.515-1.328zm.406 3.844a.976.976 0 0 0-.281-.703.998.998 0 0 0-.719-.297.963.963 0 0 0-.703.297.908.908 0 0 0-.297.687.97.97 0 0 0 .297.72.98.98 0 0 0 .703.28.93.93 0 0 0 .703-.296.91.91 0 0 0 .297-.688zm0 0"/></symbol><symbol overflow="visible" id="b"><path d="M3.453-1.469h.563v.719h-.563V0h-.797v-.75H.062l3.391-4.922zm-.797 0v-1.765L1.437-1.47zm0 0"/></symbol><symbol overflow="visible" id="d"><path d="M1.453 0h.406l1.422-4.375h-.375l-.781 2.516c-.156.53-.281.937-.453 1.468H1.64c-.172-.53-.282-.937-.454-1.468l-.78-2.516H.03zm0 0"/></symbol><symbol overflow="visible" id="e"><path d="M.75-.156c.156 0 .313-.11.313-.313A.317.317 0 0 0 .75-.797a.317.317 0 0 0-.313.328c0 .203.157.313.313.313zm0 0"/></symbol><symbol overflow="visible" id="g"><path d="M1.844-3.953h1.078v-.281H.406v.28h1.125v.563c0 1.11-.484 2.016-1.218 2.407l.203.25c.578-.329 1-.954 1.187-1.75.188.718.578 1.265 1.125 1.578l.203-.25c-.734-.375-1.187-1.235-1.187-2.235zm2.687-.953v2.203h-.86v-2.078H3.36V.125h.313v-2.547h.86V.422h.312v-5.328zm0 0"/></symbol><symbol overflow="visible" id="h"><path d="M3.469-2.5c-.75.156-1.406.188-2.453.188H.937v-1.844h2.016v-.282H.61v2.407h.407c1.078 0 1.718-.047 2.5-.188zM1.516-1.422h-.329V.281h3.516V.016H1.516zm2.937-1.844v-1.656h-.328v3.875h.328v-1.937h.828v-.282zm0 0"/></symbol><symbol overflow="visible" id="i"><path d="M2.078-4.5C1.25-4.5.672-4.016.672-3.281c0 .719.578 1.219 1.406 1.219s1.406-.5 1.406-1.22c0-.734-.578-1.218-1.406-1.218zm0 .281c.64 0 1.094.39 1.094.938 0 .547-.453.937-1.094.937-.64 0-1.094-.39-1.094-.937s.454-.938 1.094-.938zm2.219-.687V.422h.312v-5.328zM.422-.796c.969 0 2.297 0 3.531-.235l-.031-.235c-1.188.172-2.547.188-3.547.188zm0 0"/></symbol><symbol overflow="visible" id="j"><path d="M.734-1.734v-.547h.922v.547zm0-1.297h.922v.515H.734zm2.157 0v.515h-.97v-.515zm0 1.297h-.97v-.547h.97zm2.703-1.829H4.28c.016-.453.016-.906.016-1.374h-.281c0 .468 0 .921-.016 1.375h-.797v.265H4c-.063 1.172-.234 2.235-.813 2.985v-.063c-.421.047-.859.094-1.265.14v-.593h1.234v-.235H1.922v-.453H3.14v-1.75H1.92v-.453h1.345v-.25H1.922V-4.5c.469-.047.89-.11 1.219-.188l-.172-.218c-.594.125-1.703.234-2.594.281.031.063.063.172.078.234.375-.015.797-.046 1.203-.078v.5H.281v.25h1.375v.453H.47v1.75h1.187v.454H.47v.234h1.187v.625c-.515.062-.984.11-1.36.14l.048.266C1.063.125 2.063 0 3.03-.109c-.14.14-.281.265-.437.375.062.046.172.125.219.187 1.109-.797 1.374-2.156 1.453-3.75h1.03C5.22-.953 5.157-.125 5 .063c-.063.062-.11.078-.219.078-.11 0-.406 0-.718-.032a.993.993 0 0 1 .093.282c.266.015.563.015.719.015.172-.015.281-.047.375-.187.188-.25.266-1.063.344-3.625zm0 0"/></symbol><symbol overflow="visible" id="k"><path d="M5.094-4.906c-.39.125-1.047.234-1.64.312l-.22-.047c-.109.422-.312.985-.578 1.344.063.031.172.094.219.14.234-.312.422-.78.563-1.187.624-.062 1.374-.187 1.859-.36zm-.25.531c.25.36.547.844.672 1.14l.234-.109c-.125-.297-.422-.765-.688-1.125zm-.407 1.016a3.494 3.494 0 0 0-.296-.891l-.25.047c.125.297.234.672.265.922zm-1.593.28h-1.14v-.483h.952v-.235h-.953v-.453h1.031v-.234h-1.03V-5h-.282v.516h-1v.234h1v.453H.516v.235h.906v.484H.282v.234h2.562zM1.688-1.25v-.953h.656v.953zm-.86-.953h.625v.953H.828zm1.781-.235H.563V.438h.265V-1h1.516V.11c0 .046-.016.077-.078.077H1.78c.032.063.078.172.094.235.313 0 .484 0 .594-.047.11-.047.14-.125.14-.266zm2.5 1.25H4.25v-.703h.86zm-.859-1.64h.86v.687h-.86zm1.516.687h-.391v-.937H3.094v.25h.89v.687h-1.25v.25h1.25v.704h-.937v.25h.937V.077c0 .063-.03.078-.109.094h-.703a.956.956 0 0 1 .11.266c.39 0 .64 0 .78-.047.141-.047.188-.141.188-.329v-1h.86v.282h.265v-1.235h.39zm0 0"/></symbol><symbol overflow="visible" id="l"><path d="M1.438-3.422h.609v-.281h-.61V-5h-.28v1.297H.343v.281h.765C.953-2.532.594-1.516.22-.984c.062.062.14.171.172.234.296-.438.578-1.188.765-1.922V.422h.282v-2.828c.187.203.406.484.5.625l.171-.235c-.093-.125-.5-.578-.671-.718zm1.937-1.031v.484h-.953v-.484zm-.953 1.219v-.5h.953v.5zm1.203.25v-1.72H2.156V.454h.266v-3.437zm.578 1.828c.078-.14.156-.297.25-.485l-.187-.078c-.047.14-.157.344-.22.485zm-1.016-.485c.094.157.172.344.204.485l.171-.063c-.015-.125-.109-.328-.203-.468zm-.156-.187h.672v.766h-.672zm1.61.766h-.72v-.766h.72zm.218.203v-1.172h-.921v-.328h1.046v-.235H3.938v-.312h-.235v.312H2.688v.235h1.015v.328h-.89V-.86h.765a2.768 2.768 0 0 1-.969.843c.063.047.141.125.188.172.297-.172.64-.5.906-.828v.938h.235v-.954c.25.297.593.625.843.797.047-.046.125-.14.188-.187a3.025 3.025 0 0 1-.907-.781zm-.593-2.375v-.5h1v.5zm1-1.22v.485h-1v-.484zm.265-.25H4.016v1.72h1.25V.094c0 .062-.016.093-.079.093h-.53c.03.063.077.172.093.25.313 0 .516-.015.625-.046.125-.047.156-.125.156-.313zm0 0"/></symbol><symbol overflow="visible" id="m"><path d="M.844 0h.484v-2.766h2.313v-.406H1.328v-2.234h2.734v-.422H.845zm0 0"/></symbol><symbol overflow="visible" id="n"><path d="M.844 0h.437v-3.688c0-.484-.031-1.124-.047-1.609h.032L1.719-4 2.953-.625h.375L4.547-4 5-5.297h.031c-.015.484-.047 1.125-.047 1.61V0h.454v-5.828h-.641l-1.203 3.36c-.14.421-.266.843-.422 1.265H3.14L2.687-2.47l-1.203-3.36h-.64zm0 0"/></symbol><symbol overflow="visible" id="o"><path d="M.844 0h.484v-5.828H.844zm0 0"/></symbol><symbol overflow="visible" id="q"><path d="M5.781-6.547v7.11h.422v-7.11zm-4.89.625v4.734h3.25v-4.734h-.422v1.969H1.313v-1.969zm.421 2.328H3.72v2.047H1.313zm0 0"/></symbol><symbol overflow="visible" id="r"><path d="M.984-2.156c.954-.219 2.25-.953 2.688-2.016.437 1.047 1.734 1.781 2.687 2l.188-.344C5.53-2.687 3.875-3.672 3.875-4.89v-.5h2.469v-.359H.984v.36h2.47v.5c0 1.218-1.657 2.218-2.657 2.406zm-.53 1.36v.359h6.421v-.36zm0 0"/></symbol><symbol overflow="visible" id="s"><path d="M1.36-1.688v-4.156H.952v4.532H1.5c1.156 0 2.234-.094 3.484-.36l-.062-.36c-1.203.25-2.313.345-3.422.345zM5.765-6.53V.562h.421V-6.53zm0 0"/></symbol><symbol overflow="visible" id="t"><path d="M6.5-2.844c-1-.203-2.64-1.281-2.64-2.578V-6h-.438v.578c0 1.313-1.625 2.36-2.625 2.578l.187.36c.954-.25 2.22-1.032 2.657-2.141.437 1.11 1.718 1.89 2.656 2.14zM.453-.813v.36h6.422v-.36zm0 0"/></symbol><symbol overflow="visible" id="u"><path d="M6.86-3.234v-.36H5.827C6-4.5 6-5.172 6-5.688v-.484H1.281v.36h4.313v.125c0 .203 0 .437-.016.703l-4.453.156.063.36 4.375-.204a8.878 8.878 0 0 1-.172 1.078H.453v.36h3v.89H1.234V-2h4.422v.828H1.25V.453h5.078v-.36H1.672v-.921h4.39v-1.516H3.86v-.89zm0 0"/></symbol><symbol overflow="visible" id="v"><path d="M.844 2.219h.344v-8.86H.844zm0 0"/></symbol><symbol overflow="visible" id="w"><path d="M.984-4.453c0-.719.594-1.281 1.391-1.281s1.39.562 1.39 1.28c0 .75-.593 1.298-1.39 1.298-.797 0-1.39-.547-1.39-1.297zm4.813-.656v1.328h-1.75a1.837 1.837 0 0 0 0-1.328zm0 1.687v1.11h.437v-4.235h-.437v1.094H3.828c-.328-.406-.844-.64-1.453-.64-1.047 0-1.797.687-1.797 1.64 0 .984.75 1.672 1.797 1.672.61 0 1.125-.25 1.453-.64zM3.922.188c-1.14 0-1.89-.376-1.89-.985 0-.594.75-.984 1.89-.984 1.172 0 1.922.39 1.922.984 0 .61-.75.985-1.922.985zm0-2.313c-1.438 0-2.313.484-2.313 1.328 0 .844.875 1.328 2.313 1.328 1.453 0 2.344-.484 2.344-1.328 0-.844-.891-1.328-2.344-1.328zm0 0"/></symbol><symbol overflow="visible" id="x"><path d="M2.313-1.453c-.782 0-1.329-.86-1.329-2.063 0-1.218.547-2.062 1.329-2.062.78 0 1.328.844 1.328 2.062 0 1.204-.547 2.063-1.329 2.063zm3.484-5.078v2.781H4.03c-.078-1.344-.75-2.203-1.718-2.203-1.016 0-1.72.953-1.72 2.437 0 1.485.704 2.438 1.72 2.438.984 0 1.687-.906 1.734-2.313h1.75V.563h.437v-7.094zm0 0"/></symbol><symbol overflow="visible" id="y"><path d="M2.328-1.453C1.547-1.453 1-2.313 1-3.516c0-1.218.547-2.062 1.328-2.062s1.344.844 1.344 2.062c0 1.204-.563 2.063-1.344 2.063zm0-4.5C1.313-5.953.594-5 .594-3.516c0 1.485.719 2.438 1.734 2.438 1.031 0 1.735-.953 1.735-2.438 0-1.484-.704-2.437-1.735-2.437zM7.094-3.61h-1.25v-2.922h-.422V.562h.422V-3.25h1.25zm0 0"/></symbol><symbol overflow="visible" id="z"><path d="M.938-5.766v.36h2.734c-.016.484-.11.968-.266 1.406l-2.828.219.094.39 2.61-.25C2.827-2.609 1.968-1.687.577-1.016l.25.344C3.297-1.89 4.094-3.797 4.094-5.766zm6.14 2.204H5.844v-2.97h-.422V.564h.422v-3.75h1.234zm0 0"/></symbol><symbol overflow="visible" id="A"><path d="M1.172-1.594v-3.672H3.39v-.359H.75v4.39h.438c1.187 0 1.859-.03 2.671-.202l-.046-.375c-.797.187-1.454.218-2.626.218zm3.437-2.172H2.922v.36h1.687V.172h.407v-6.516h-.407zM6.016-6.53V.562h.421V-6.53zm0 0"/></symbol><symbol overflow="visible" id="B"><path d="M.89-5.797v4.516h3.172v-4.516zm2.766.344v3.812h-2.36v-3.812zm2.125-1.078V.562h.422V-6.53zm0 0"/></symbol><symbol overflow="visible" id="C"><path d="M6.063-3.906H1.75v-.906h4.094v-.344H1.75v-.828h4.281v-.344H1.328v2.766h4.734zM1.171-1.22h4.406V.563H6v-2.141H1.172zM.453-2.75v.36H6.86v-.36zm0 0"/></symbol><symbol overflow="visible" id="D"><path d="M4.656-5.36h-1.89v-1.109h-.422v1.11H.438V-5h4.218zM2.563-1.483c-.72 0-1.25-.516-1.25-1.22 0-.687.53-1.218 1.25-1.218.703 0 1.234.531 1.234 1.219 0 .703-.531 1.219-1.235 1.219zm0-2.813c-.954 0-1.641.656-1.641 1.594 0 .937.687 1.594 1.64 1.594.938 0 1.626-.657 1.626-1.594 0-.938-.688-1.594-1.625-1.594zm3.234-2.25v3.094H4.5v.36h1.297v3.64h.437v-7.094zm0 0"/></symbol><symbol overflow="visible" id="E"><path d="M.89-5.75v.36H3.72C3.609-3.64 2.53-2.126.579-1.189l.234.344C3.092-1.969 4.14-3.766 4.14-5.75zm4.907-.781V.562h.422V-6.53zm0 0"/></symbol><symbol overflow="visible" id="F"><path d="M6.484-4.375C5.391-4.5 3.875-5.172 3.875-6.156V-6.5h-.438v.344c0 .984-1.515 1.656-2.609 1.781l.14.344c1.016-.157 2.266-.672 2.688-1.516.422.844 1.656 1.36 2.672 1.516zm.375 1.266v-.36H.453v.36h2.985v.843H1.25v.344h4.344v.813H1.266V.453H6.25V.11H1.687v-.89h4.329v-1.485H3.859v-.843zm0 0"/></symbol><symbol overflow="visible" id="G"><path d="M2.688-5.89H2.28v1.421c0 1.282-.969 2.64-1.89 3.14l.25.345c.78-.438 1.546-1.407 1.843-2.5.313 1.03 1.079 1.921 1.844 2.343l.266-.328c-.922-.484-1.907-1.765-1.907-3zm4.406 2.312h-1.25v-2.969h-.422v7.11h.422V-3.22h1.25zm0 0"/></symbol><symbol overflow="visible" id="H"><path d="M5.797.094H2.219V-.97h3.578zm0-1.422H2.219V-2.36h-.422V.453h4.437v-2.812h-.437zm-3.422-2c-.813 0-1.39-.531-1.39-1.25s.578-1.25 1.39-1.25c.797 0 1.39.531 1.39 1.25s-.593 1.25-1.39 1.25zm3.422-3.203v1.75h-1.64c-.095-.844-.813-1.407-1.782-1.407-1.063 0-1.797.641-1.797 1.61 0 .969.735 1.61 1.797 1.61.984 0 1.703-.563 1.781-1.438h1.64v1.672h.438v-3.797zm0 0"/></symbol><symbol overflow="visible" id="I"><path d="M4.766-5.625H2.828v-.922h-.422v.922H.484v.36h4.282zM1.39-3.469c0-.578.5-.969 1.234-.969s1.234.391 1.234.97c0 .546-.5.952-1.234.952s-1.234-.406-1.234-.953zm1.437 1.281c.875-.078 1.438-.546 1.438-1.28 0-.798-.672-1.313-1.641-1.313C1.641-4.781 1-4.266 1-3.47c0 .735.563 1.203 1.406 1.281v.891c-.734.031-1.437.031-2.031.031l.078.36c1.25 0 2.953-.016 4.5-.281l-.031-.329c-.656.11-1.375.157-2.094.204zm4.219-1.25H5.828V-6.53h-.437V.547h.437v-3.625h1.219zm0 0"/></symbol><symbol overflow="visible" id="J"><path d="M4.203-4.5v.36h1.594v2.827h.437V-6.53h-.437V-4.5zm.375 1.688c-.969-.36-1.797-1.25-1.797-2.22v-.515h1.672v-.36H.672v.36h1.703v.531C2.375-3.953 1.5-3 .515-2.64l.235.344c.828-.328 1.547-1.031 1.844-1.922.281.797.969 1.438 1.765 1.75zM2.218.03V-1.78h-.421V.39h4.64V.03zm0 0"/></symbol><symbol overflow="visible" id="K"><path d="M4.688-3.281c-1.188.203-2.141.25-3.36.25h-.11v-1.235h2.72v-1.828H.78v.36h2.75v1.125H.797v1.937h.531c1.25 0 2.203-.047 3.406-.234zM1.374-1.47H5.5V.547h.422v-2.375H1.375zm5.656-3.484v-.36h-1.11V-6.53H5.5v4.312h.422v-1.25h1.11v-.375h-1.11v-1.11zm0 0"/></symbol><symbol overflow="visible" id="L"><path d="M3.578-1.547H1.203v-2.047h2.375zm0-2.406H1.203v-1.969H.781v4.734H4v-4.734h-.422zm3.516.297h-1.25v-2.875h-.422V.562h.422V-3.28h1.25zm0 0"/></symbol><symbol overflow="visible" id="M"><path d="M5.781-6.531V.562h.422V-6.53zm-3.265.578C1.484-5.953.75-5 .75-3.516c0 1.485.734 2.438 1.766 2.438 1.03 0 1.75-.953 1.75-2.438 0-1.484-.72-2.437-1.75-2.437zm0 .375c.796 0 1.343.844 1.343 2.062 0 1.204-.546 2.063-1.343 2.063-.797 0-1.36-.86-1.36-2.063 0-1.218.563-2.062 1.36-2.062zm0 0"/></symbol><symbol overflow="visible" id="N"><path d="M1.516-4.203c0-.86.906-1.453 2.14-1.453 1.219 0 2.125.593 2.125 1.453 0 .844-.906 1.453-2.125 1.453-1.234 0-2.14-.61-2.14-1.453zM3.859-.766v-1.656c1.375-.062 2.329-.75 2.329-1.781C6.188-5.297 5.14-6 3.655-6c-1.484 0-2.531.703-2.531 1.797 0 1.031.938 1.719 2.313 1.781v1.656H.453v.36h6.422v-.36zm0 0"/></symbol><symbol overflow="visible" id="O"><path d="M3.594-2.922H1.219V-4.39h2.375zm.422-3.094h-.422v1.282H1.219v-1.282H.797v3.454h3.219zm-2 4.188h-.422V.39h4.672V.03h-4.25zm3.906-2.469V-6.53H5.5v5.203h.422v-2.61h1.11v-.359zm0 0"/></symbol><symbol overflow="visible" id="P"><path d="M4.547-2.938C3.578-3.233 2.75-4.046 2.75-4.983v-.266h1.672v-.344H2.766v-.984h-.422v.984H.656v.344h1.688v.266c0 1.046-.844 1.906-1.828 2.25l.203.328c.828-.297 1.547-.938 1.844-1.766.296.734.984 1.313 1.78 1.578zM3.687.188c-1.156 0-1.874-.344-1.874-.891 0-.563.718-.89 1.875-.89 1.14 0 1.874.327 1.874.89 0 .547-.734.89-1.875.89zm0-2.126c-1.437 0-2.296.438-2.296 1.235C1.39.094 2.25.53 3.687.53 5.11.531 5.97.094 5.97-.703c0-.797-.86-1.235-2.282-1.235zm2.235-2.656V-6.53H5.5v4.39h.422v-2.093h1.11v-.36zm0 0"/></symbol></defs><g fill="#898989"><use xlink:href="#a" x="28.312" y="819.169"/><use xlink:href="#b" x="32.528" y="819.169"/></g><g fill="#898989"><use xlink:href="#c" x="36.843" y="819.169"/><use xlink:href="#c" x="38.933" y="819.169"/></g><g fill="#595757"><use xlink:href="#d" x="513.32" y="818.993"/><use xlink:href="#e" x="516.497" y="818.993"/><use xlink:href="#f" x="517.881" y="818.993"/><use xlink:href="#g" x="519.439" y="818.993"/><use xlink:href="#h" x="524.832" y="818.993"/><use xlink:href="#i" x="530.226" y="818.993"/><use xlink:href="#f" x="535.619" y="818.993"/><use xlink:href="#j" x="537.177" y="818.993"/><use xlink:href="#k" x="543.05" y="818.993"/><use xlink:href="#l" x="548.923" y="818.993"/><use xlink:href="#f" x="554.796" y="818.993"/></g><use xlink:href="#m" x="28.312" y="47.125"/><use xlink:href="#n" x="32.403" y="47.125"/><use xlink:href="#o" x="38.532" y="47.125"/><use xlink:href="#p" x="40.545" y="47.125"/><use xlink:href="#q" x="42.623" y="47.125"/><use xlink:href="#r" x="49.814" y="47.125"/><use xlink:href="#s" x="57.005" y="47.125"/><use xlink:href="#t" x="64.196" y="47.125"/><use xlink:href="#p" x="71.388" y="47.125"/><use xlink:href="#t" x="73.465" y="47.125"/><use xlink:href="#u" x="80.656" y="47.125"/><use xlink:href="#p" x="87.848" y="47.125"/><use xlink:href="#v" x="89.925" y="47.125"/><use xlink:href="#p" x="91.795" y="47.125"/><use xlink:href="#q" x="93.872" y="47.125"/><use xlink:href="#r" x="101.064" y="47.125"/><use xlink:href="#s" x="108.255" y="47.125"/><use xlink:href="#t" x="115.446" y="47.125"/><use xlink:href="#p" x="122.637" y="47.125"/><use xlink:href="#w" x="124.715" y="47.125"/><use xlink:href="#x" x="131.906" y="47.125"/><use xlink:href="#p" x="139.097" y="47.125"/><use xlink:href="#y" x="141.175" y="47.125"/><use xlink:href="#z" x="148.366" y="47.125"/><use xlink:href="#A" x="155.557" y="47.125"/><use xlink:href="#B" x="162.749" y="47.125"/><g><use xlink:href="#m" x="28.312" y="321.752"/><use xlink:href="#n" x="32.403" y="321.752"/><use xlink:href="#o" x="38.532" y="321.752"/><use xlink:href="#p" x="40.545" y="321.752"/><use xlink:href="#q" x="42.623" y="321.752"/><use xlink:href="#r" x="49.814" y="321.752"/><use xlink:href="#s" x="57.005" y="321.752"/><use xlink:href="#t" x="64.196" y="321.752"/><use xlink:href="#p" x="71.388" y="321.752"/><use xlink:href="#t" x="73.465" y="321.752"/><use xlink:href="#u" x="80.656" y="321.752"/><use xlink:href="#p" x="87.848" y="321.752"/><use xlink:href="#v" x="89.925" y="321.752"/><use xlink:href="#p" x="91.795" y="321.752"/><use xlink:href="#C" x="93.872" y="321.752"/><use xlink:href="#D" x="101.064" y="321.752"/><use xlink:href="#E" x="108.255" y="321.752"/><use xlink:href="#F" x="115.446" y="321.752"/><use xlink:href="#p" x="122.637" y="321.752"/><use xlink:href="#G" x="124.715" y="321.752"/><use xlink:href="#H" x="131.906" y="321.752"/><use xlink:href="#I" x="139.097" y="321.752"/><use xlink:href="#p" x="146.289" y="321.752"/><use xlink:href="#J" x="148.366" y="321.752"/><use xlink:href="#K" x="155.557" y="321.752"/><use xlink:href="#p" x="162.749" y="321.752"/><use xlink:href="#y" x="164.826" y="321.752"/><use xlink:href="#z" x="172.017" y="321.752"/><use xlink:href="#A" x="179.209" y="321.752"/><use xlink:href="#B" x="186.4" y="321.752"/></g><g><use xlink:href="#m" x="28.312" y="616.197"/><use xlink:href="#n" x="32.403" y="616.197"/><use xlink:href="#o" x="38.532" y="616.197"/><use xlink:href="#p" x="40.545" y="616.197"/><use xlink:href="#q" x="42.623" y="616.197"/><use xlink:href="#r" x="49.814" y="616.197"/><use xlink:href="#s" x="57.005" y="616.197"/><use xlink:href="#t" x="64.196" y="616.197"/><use xlink:href="#p" x="71.388" y="616.197"/><use xlink:href="#t" x="73.465" y="616.197"/><use xlink:href="#u" x="80.656" y="616.197"/><use xlink:href="#p" x="87.848" y="616.197"/><use xlink:href="#v" x="89.925" y="616.197"/><use xlink:href="#p" x="91.795" y="616.197"/><use xlink:href="#L" x="93.872" y="616.197"/><use xlink:href="#M" x="101.064" y="616.197"/><use xlink:href="#N" x="108.255" y="616.197"/><use xlink:href="#p" x="115.446" y="616.197"/><use xlink:href="#E" x="117.524" y="616.197"/><use xlink:href="#F" x="124.715" y="616.197"/><use xlink:href="#p" x="131.906" y="616.197"/><use xlink:href="#E" x="133.984" y="616.197"/><use xlink:href="#O" x="141.175" y="616.197"/><use xlink:href="#p" x="148.366" y="616.197"/><use xlink:href="#P" x="150.444" y="616.197"/><use xlink:href="#H" x="157.635" y="616.197"/><use xlink:href="#p" x="164.826" y="616.197"/><use xlink:href="#y" x="166.904" y="616.197"/><use xlink:href="#z" x="174.095" y="616.197"/><use xlink:href="#A" x="181.286" y="616.197"/><use xlink:href="#B" x="188.477" y="616.197"/></g></svg>