<svg xmlns="http://www.w3.org/2000/svg" xmlns:xlink="http://www.w3.org/1999/xlink" width="793.701" height="1122.52" viewBox="0 0 595.276 841.89" version="1.2"><defs><symbol overflow="visible" id="a"><path d="M1.89-4.531H.985l.438-.75h1.266V0H1.89zm0 0"/></symbol><symbol overflow="visible" id="b"><path d="M.297-2.672c0-.84.195-1.515.594-2.015.34-.446.765-.672 1.265-.672.496 0 .926.226 1.281.671.383.5.579 1.184.579 2.047 0 .868-.196 1.551-.579 2.047-.355.45-.785.672-1.28.672-.493 0-.915-.223-1.266-.672C.492-1.09.297-1.785.297-2.672zm.781 0c0 .586.102 1.074.313 1.469.195.375.453.562.765.562.309 0 .57-.187.781-.562.208-.383.313-.863.313-1.438 0-.57-.105-1.05-.313-1.437-.21-.371-.472-.563-.78-.563-.305 0-.56.192-.766.563-.211.375-.313.848-.313 1.406zm0 0"/></symbol><symbol overflow="visible" id="d"><path d="M.64 0H1v-4.375H.64zm0 0"/></symbol><symbol overflow="visible" id="e"><path d="M.75-.156c.156 0 .313-.11.313-.313A.317.317 0 0 0 .75-.797a.317.317 0 0 0-.313.328c0 .203.157.313.313.313zm0 0"/></symbol><symbol overflow="visible" id="g"><path d="M1.844-3.953h1.078v-.281H.406v.28h1.125v.563c0 1.11-.484 2.016-1.218 2.407l.203.25c.578-.329 1-.954 1.187-1.75.188.718.578 1.265 1.125 1.578l.203-.25c-.734-.375-1.187-1.235-1.187-2.235zm2.687-.953v2.203h-.86v-2.078H3.36V.125h.313v-2.547h.86V.422h.312v-5.328zm0 0"/></symbol><symbol overflow="visible" id="h"><path d="M3.469-2.5c-.75.156-1.406.188-2.453.188H.937v-1.844h2.016v-.282H.61v2.407h.407c1.078 0 1.718-.047 2.5-.188zM1.516-1.422h-.329V.281h3.516V.016H1.516zm2.937-1.844v-1.656h-.328v3.875h.328v-1.937h.828v-.282zm0 0"/></symbol><symbol overflow="visible" id="i"><path d="M4.36.063H1.655V-.72H4.36zm0-1.047H1.655v-.735h-.312V.344h3.328V-1.72h-.313zM2.655-2.5H.953v-.969h1.703zM4.36-4.906v1.36H2.97v-1.095h-.313v.907H.953v-.907H.625v2.422h2.344V-3.28h1.39V-2h.329v-2.906zm0 0"/></symbol><symbol overflow="visible" id="j"><path d="M4.672-4.906h-.313V-.97h.313zM.797-3.234c0-.563.453-1 1.047-1 .593 0 1.047.437 1.047 1 0 .578-.454 1.015-1.047 1.015-.594 0-1.047-.437-1.047-1.015zm2.39 0c0-.75-.562-1.282-1.343-1.282-.782 0-1.36.532-1.36 1.282 0 .765.579 1.296 1.36 1.296.781 0 1.343-.53 1.343-1.296zM1.641.016v-1.407h-.313V.281H4.86V.016zm0 0"/></symbol><symbol overflow="visible" id="k"><path d="M.672-4.36v3.391h2.375v-3.39zm2.062.266v2.86H.984v-2.86zm1.61-.812V.422h.312v-5.328zm0 0"/></symbol><symbol overflow="visible" id="l"><path d="M.844-1.188v-1.359H2.5v-1.75H.516v.266h1.687v1.218H.531v1.907h.344c.672 0 1.281-.031 2.063-.172l-.047-.266c-.75.125-1.36.157-2.016.157zM4.53-4.905v2.156H3.61v-2.031h-.312V.125h.312v-2.61h.922V.423h.313v-5.328zm0 0"/></symbol><symbol overflow="visible" id="m"><path d="M2.078-4.5C1.25-4.5.672-4.016.672-3.281c0 .719.578 1.219 1.406 1.219s1.406-.5 1.406-1.22c0-.734-.578-1.218-1.406-1.218zm0 .281c.64 0 1.094.39 1.094.938 0 .547-.453.937-1.094.937-.64 0-1.094-.39-1.094-.937s.454-.938 1.094-.938zm2.219-.687V.422h.312v-5.328zM.422-.796c.969 0 2.297 0 3.531-.235l-.031-.235c-1.188.172-2.547.188-3.547.188zm0 0"/></symbol><symbol overflow="visible" id="n"><path d="M3.516-4.297H2.094v-.64H1.78v.64H.36v.266h3.157zM.984-2.734c0-.407.391-.688.954-.688.578 0 .953.281.953.688 0 .406-.375.687-.954.687-.562 0-.953-.281-.953-.687zm2.204 0c0-.579-.5-.938-1.25-.938s-1.266.36-1.266.938c0 .593.515.953 1.265.953.75 0 1.25-.36 1.25-.953zM1.03-.984h3.094v1.39h.328V-1.25H1.031zm4.25-2.407h-.828v-1.515h-.328v3.328h.328V-3.11h.828zm0 0"/></symbol><symbol overflow="visible" id="o"><path d="M.734-3.25c0-.578.454-1.016 1.047-1.016.594 0 1.047.438 1.047 1.016 0 .594-.453 1.031-1.047 1.031-.593 0-1.047-.437-1.047-1.031zm3.625-.5v1H3.047c.062-.156.078-.328.078-.5 0-.188-.031-.36-.078-.5zm0 1.266v1.53h.329v-3.952h-.329v.875H2.891c-.235-.313-.641-.516-1.11-.516C1-4.547.438-4.016.438-3.25c0 .766.562 1.313 1.343 1.313.485 0 .875-.204 1.125-.547zM1.672.016V-1.36h-.328V.28h3.5V.016zm0 0"/></symbol><symbol overflow="visible" id="p"><path d="M5.156-2.25h-.843c.156-.781.156-1.344.156-1.844v-.453h-3.5v.266h3.187v.187c0 .5 0 1.078-.172 1.844H.344v.281h2.25v2.39h.312v-2.39h2.25zm0 0"/></symbol><symbol overflow="visible" id="q"><path d="M4.906-2.203c-.765-.156-2.015-.922-2.015-1.89v-.423h-.329v.422c0 .969-1.218 1.735-1.984 1.89l.14.267c.72-.172 1.688-.75 2.016-1.563.344.813 1.313 1.39 2.032 1.563zM2.891-.578v-1.36h-.313v1.36H.344v.265h4.828v-.265zm0 0"/></symbol><symbol overflow="visible" id="r"><path d="M.547-4.203v.266h1.75C2.234-2.813 1.703-1.72.375-.985l.188.234c1.546-.86 2.046-2.172 2.046-3.453zm3.984-.703v2.218h-.89v-2.078h-.297V.125h.297v-2.547h.89V.422h.297v-5.328zm0 0"/></symbol><symbol overflow="visible" id="s"><path d="M8.234-12.578c2.157 0 3.547.656 3.547 1.828 0 1.188-1.39 1.813-3.547 1.813-2.171 0-3.562-.626-3.562-1.813 0-1.172 1.39-1.828 3.562-1.828zm0 5.531c3.532 0 5.985-1.437 5.985-3.703 0-2.25-2.453-3.703-5.985-3.703-3.546 0-5.984 1.453-5.984 3.703 0 2.266 2.438 3.703 5.984 3.703zm7.532 1.234h-15v1.922h3.406v5.422h2.39V-3.89h3.329v5.422h2.406V-3.89h3.469zm0 0"/></symbol><symbol overflow="visible" id="t"><path d="M9.625-7.906C10-10 10-11.641 10-12.781v-1.031H1.5v1.89h6.156a22.02 22.02 0 0 1-.36 3.735zm1.094.656c-1.547.219-3.203.344-4.844.422v-3.14H3.562v3.218c-1.078.031-2.109.031-3.015.031L.75-4.844c2.844-.015 6.703-.078 10.11-.718zm-5.39 3.531H2.952v4.985h11.563V-.625H5.328zm8.655-6.265v-5.047h-2.359v12.406h2.36v-5.39h1.984v-1.97zm0 0"/></symbol><symbol overflow="visible" id="v"><path d="M11.547-11.531c0 2.25 0 4.61-.594 7.765l2.36.22c.609-3.392.609-5.657.609-7.985v-1.953H2.312v1.89h9.235zM.766-2.547v1.938H15.75v-1.938zm0 0"/></symbol><symbol overflow="visible" id="w"><path d="M11.594-12.156H2.64v4.328H14.25v-1.75H4.984v-.922h8.954v-4.266H2.608V-13h8.985zm.047 11.75H4.984v-1h6.657zm0-2.703H4.984v-1.313H2.641v5.766h11.343v-5.766h-2.343zM.766-7v1.86h6.28v1.406h2.376v-1.407h6.344V-7zm0 0"/></symbol><symbol overflow="visible" id="x"><path d="M1.64 0h2.391v-5.563c0-1.25-.218-3.109-.343-4.359h.078l1.046 3.125 2.079 5.594h1.53l2.048-5.594 1.078-3.125h.078c-.14 1.25-.328 3.11-.328 4.36V0h2.422v-13.313h-2.953L8.562-7.077c-.296.812-.53 1.703-.812 2.562h-.094c-.265-.859-.515-1.75-.797-2.562l-2.265-6.234H1.64zm0 0"/></symbol><symbol overflow="visible" id="y"><path d="M6.922.25c3.531 0 5.953-2.64 5.953-6.953 0-4.328-2.422-6.86-5.953-6.86-3.516 0-5.953 2.516-5.953 6.86C.969-2.391 3.406.25 6.922.25zm0-2.297c-1.969 0-3.234-1.812-3.234-4.656 0-2.86 1.265-4.578 3.234-4.578 1.984 0 3.234 1.719 3.234 4.578 0 2.844-1.25 4.656-3.234 4.656zm0 0"/></symbol><symbol overflow="visible" id="z"><path d="M6.75.25c3.25 0 5.14-1.813 5.14-6.234v-7.329H9.329v7.563c0 2.766-1 3.703-2.578 3.703-1.578 0-2.531-.937-2.531-3.703v-7.563H1.562v7.329C1.563-1.563 3.5.25 6.75.25zm0 0"/></symbol><symbol overflow="visible" id="A"><path d="M5.922-10.344h2.531v-1.906H5.922v-2.234h-2.25v2.234H1.078v1.906h2.594V-10c0 2.547-.844 5.266-3.203 6.656l1.328 1.781c1.5-.859 2.469-2.343 3.016-4.062.593 1.578 1.546 2.89 3.015 3.672L9.094-3.72C6.766-4.969 5.922-7.5 5.922-10zM9.39-8.766H7.5v1.938h1.89V.797h2.204V-14.75H9.39zm3.343-6.265V1.53h2.25V-15.03zm0 0"/></symbol><symbol overflow="visible" id="B"><path d="M12.25-11.156v1.422H8.578v1.78h3.672v1.25h2.375v-8.312H12.25v2.079H9.203c.078-.454.11-.954.11-1.454H1.921v1.891h4.781C6.422-10.562 4.734-8.969.97-8.234l.797 1.906c3.625-.797 5.968-2.36 6.968-4.828zM6.094-.484v-1.047h8.531v-4.563H3.703v1.875h8.547v.922H3.719v4.688h11.25V-.484zm0 0"/></symbol><symbol overflow="visible" id="C"><path d="M1.688-13.313v1.891h5.53C6.876-7.75 5.032-5.156.814-3.125l1.234 1.86c5.89-2.829 7.594-6.97 7.594-12.047zm10.484-1.718V1.53h2.39V-15.03zm0 0"/></symbol><symbol overflow="visible" id="D"><path d="M3.844 2.016l.812-.375C3.266-.625 2.578-3.33 2.578-6.08s.688-5.452 2.078-7.702l-.812-.375C2.375-11.781 1.5-9.22 1.5-6.078c0 3.14.875 5.703 2.344 8.094zm0 0"/></symbol><symbol overflow="visible" id="E"><path d="M2.031-6.844c2.281-.234 4.438-1.093 5.297-2.578.86 1.485 3.016 2.344 5.313 2.578l.359-.89c-2.563-.25-4.938-1.344-5.047-3.016h4.5v-.969H7.906v-1.484H6.75v1.484H2.219v.969h4.484c-.11 1.672-2.484 2.766-5.047 3.016zM7.328.234c-2.344 0-3.719-.53-3.719-1.453 0-.937 1.375-1.468 3.72-1.468 2.327 0 3.702.53 3.702 1.468 0 .922-1.375 1.453-3.703 1.453zm0-3.828c-3.094 0-4.875.844-4.875 2.375 0 1.516 1.781 2.36 4.875 2.36 3.078 0 4.89-.844 4.89-2.36 0-1.531-1.812-2.375-4.89-2.375zm.578-2.094V-7.53H6.75v1.843H.875v.954h12.922v-.954zm0 0"/></symbol><symbol overflow="visible" id="F"><path d="M.719 0h7.234v-1.125H4.61c-.593 0-1.296.031-1.921.11 2.859-2.688 4.718-5.11 4.718-7.47 0-2.078-1.281-3.421-3.36-3.421-1.452 0-2.468.687-3.405 1.703l.765.734c.672-.781 1.516-1.39 2.5-1.39 1.5 0 2.219 1.046 2.219 2.421 0 2.032-1.672 4.391-5.406 7.657zm0 0"/></symbol><symbol overflow="visible" id="G"><path d="M3.203 0h1.36c.187-4.578.703-7.36 3.468-10.922v-.781H.781v1.125h5.735C4.219-7.391 3.39-4.5 3.203 0zm0 0"/></symbol><symbol overflow="visible" id="H"><path d="M1.422-11.266v.97h4.39C5.625-7.345 4.266-4.642.907-2.767l.688.844c4.078-2.312 5.375-5.75 5.375-9.344zm10.406-1.859v5.781H9.766v-5.39h-1.11V.437h1.11v-6.796h2.062v7.53h1.125v-14.296zm0 0"/></symbol><symbol overflow="visible" id="I"><path d="M1.703-11.594v.969h5.469C6.938-7.187 4.938-4.344 1.078-2.5l.61.953C6.405-3.859 8.358-7.5 8.358-11.594zm9.688-1.547V1.172h1.171v-14.313zm0 0"/></symbol><symbol overflow="visible" id="J"><path d="M8.328-7.031c.375-1.907.375-3.344.375-4.25v-.735H1.656v.97h5.907c0 .905-.032 2.155-.391 3.89zm1.438.89c-1.485.204-3.11.329-4.72.391v-3.094h-1.14v3.14c-1.11.016-2.156.032-3.11.032l.126.969c2.531 0 5.953-.078 8.922-.578zm-5.61 2.782H2.984V.844h9.407v-.969H4.156zm7.766-5.063v-4.719h-1.156v10.797h1.156v-5.11h2.125v-.968zm0 0"/></symbol><symbol overflow="visible" id="K"><path d="M8.922-11.656H5.547v-1.61H4.375v1.61H.891v.969h8.03zM2.828-7.391c0-1 .844-1.656 2.125-1.656 1.25 0 2.11.656 2.11 1.656 0 1-.86 1.672-2.11 1.672-1.281 0-2.125-.672-2.125-1.672zm5.328 0c0-1.546-1.297-2.562-3.203-2.562-1.922 0-3.234 1.015-3.234 2.562 0 1.563 1.312 2.563 3.234 2.563 1.906 0 3.203-1 3.203-2.563zM11.437.016H4.564v-1.594h6.875zm0-2.532H4.564v-1.562H3.405V.953h9.188v-5.031h-1.156zm-.015-10.609v3.39H8.906v.954h2.516v1.797H8.89v.968h2.53v1.313h1.173v-8.422zm0 0"/></symbol><symbol overflow="visible" id="L"><path d="M2.297-8.906c0-1.39 1.078-2.36 2.562-2.36 1.485 0 2.579.97 2.579 2.36 0 1.375-1.094 2.375-2.579 2.375-1.484 0-2.562-1-2.562-2.375zm6.265 0c0-2-1.546-3.36-3.703-3.36-2.14 0-3.687 1.36-3.687 3.36 0 1.984 1.547 3.36 3.687 3.36 2.157 0 3.704-1.376 3.704-3.36zM2.689-2.97h8.062v4.14h1.172v-5.109H2.687zm11.359-6.937v-.985h-2.125v-2.234H10.75v8.484h1.172v-2.234h2.125v-.969h-2.125v-2.062zm0 0"/></symbol><symbol overflow="visible" id="M"><path d="M2.781-9.64c0-1.126.985-1.907 2.422-1.907 1.422 0 2.406.781 2.406 1.906S6.625-7.75 5.203-7.75c-1.437 0-2.422-.766-2.422-1.89zm7.016 3.843c-1.266.203-2.64.297-3.985.36V-6.86c1.72-.22 2.891-1.282 2.891-2.782 0-1.687-1.453-2.812-3.5-2.812-2.062 0-3.516 1.125-3.516 2.812 0 1.516 1.188 2.594 2.97 2.782v1.484c-1.376.047-2.673.047-3.798.047l.157.984c2.468 0 5.859-.047 8.875-.593zM4.109-3.094H2.938V.828h9.468V-.14H4.11zm7.782-5.14v-4.875h-1.172v10.921h1.172V-7.25h2.14v-.984zm0 0"/></symbol><symbol overflow="visible" id="N"><path d="M5.688-4.406h3.421v2.797H5.688zm4.578 2.797v-2.797h2.25v-.985h-8.86v-2.406h8.531v-4.25H2.485v.969h8.563v2.312H2.516v4.36h2.046v2.797H.86v.968h12.97v-.968zm0 0"/></symbol><symbol overflow="visible" id="O"><path d="M1.188 2.547C2.516 1.953 3.39.78 3.39-.703c0-.969-.438-1.594-1.157-1.594-.546 0-1.015.328-1.015.953 0 .61.453.938.984.938.063 0 .125 0 .188-.016-.016 1-.594 1.75-1.547 2.188zm0 0"/></symbol><symbol overflow="visible" id="Q"><path d="M9.406-11.797H5.86v-1.453H4.72v1.453H1.172v.906h8.234zM3.062-8.203c0-.781.891-1.297 2.235-1.297 1.328 0 2.187.516 2.187 1.297 0 .781-.859 1.312-2.187 1.312-1.344 0-2.234-.53-2.234-1.312zm6.766 2.781c-1.265.172-2.61.313-3.969.36V-6.11c1.672-.141 2.72-.907 2.72-2.094 0-1.313-1.313-2.11-3.282-2.11-2.016 0-3.328.797-3.328 2.11 0 1.203 1.062 1.953 2.75 2.11v1.077c-1.407.047-2.75.047-3.907.047l.157.953c2.484 0 5.906-.015 8.953-.578zM2.563-1.875h8.156v3.047h1.172v-3.984H2.562zM14.03-8.75h-2.14v-4.375h-1.172v9.563h1.172v-4.204h2.14zm0 0"/></symbol><symbol overflow="visible" id="R"><path d="M2.547-10.406h4.187v-.969H1.391v8.969h.921c2.22 0 3.657-.094 5.344-.453l-.11-.954c-1.577.329-2.952.422-5 .422zm9.297-2.719v5.75h-2.14v-5.422h-1.11V.438h1.11v-6.829h2.14v7.563h1.125v-14.297zm0 0"/></symbol><symbol overflow="visible" id="S"><path d="M2.047-7.344c2.281-.297 4.5-1.328 5.297-2.953.765 1.625 3 2.656 5.281 2.953l.422-.922c-2.453-.265-4.938-1.546-4.969-3.25h4.547v-.953H2.062v.953h4.516c-.031 1.704-2.5 2.985-4.953 3.25zm8.984 5.985c0 .984-1.406 1.578-3.703 1.578C5.016.219 3.61-.375 3.61-1.36c0-1 1.407-1.579 3.72-1.579 2.296 0 3.702.579 3.702 1.579zm2.766-4.094v-.969H.875v.969H6.75v1.594c-2.703.125-4.297 1-4.297 2.5 0 1.578 1.813 2.5 4.875 2.5 3.063 0 4.89-.922 4.89-2.5 0-1.5-1.609-2.375-4.312-2.5v-1.594zm0 0"/></symbol><symbol overflow="visible" id="T"><path d="M1.453 2.016c1.469-2.391 2.36-4.954 2.36-8.094 0-3.14-.891-5.703-2.36-8.078l-.812.375c1.39 2.25 2.078 4.953 2.078 7.703S2.03-.625.64 1.64zm0 0"/></symbol></defs><g fill="#898989"><use xlink:href="#a" x="28.312" y="819.169"/><use xlink:href="#b" x="32.171" y="819.169"/></g><g fill="#898989"><use xlink:href="#c" x="36.486" y="819.169"/><use xlink:href="#c" x="38.577" y="819.169"/></g><g fill="#595757"><use xlink:href="#d" x="471.719" y="818.993"/><use xlink:href="#e" x="473.229" y="818.993"/><use xlink:href="#f" x="474.614" y="818.993"/><use xlink:href="#g" x="476.172" y="818.993"/><use xlink:href="#h" x="481.565" y="818.993"/><use xlink:href="#i" x="486.959" y="818.993"/><use xlink:href="#j" x="492.352" y="818.993"/><use xlink:href="#f" x="497.745" y="818.993"/><use xlink:href="#k" x="499.304" y="818.993"/><use xlink:href="#l" x="504.697" y="818.993"/><use xlink:href="#m" x="510.09" y="818.993"/><use xlink:href="#n" x="515.484" y="818.993"/><use xlink:href="#o" x="520.877" y="818.993"/><use xlink:href="#p" x="526.271" y="818.993"/><use xlink:href="#g" x="531.664" y="818.993"/><use xlink:href="#h" x="537.058" y="818.993"/><use xlink:href="#f" x="542.451" y="818.993"/><use xlink:href="#q" x="544.009" y="818.993"/><use xlink:href="#r" x="549.403" y="818.993"/></g><path d="M537.637 793.191H45c-9.379 0-16.98-7.601-16.98-16.976V362.852h526.597v413.363c0 9.375-7.601 16.976-16.98 16.976zm0 0" fill="none" stroke-width=".2496975" stroke="#595757" stroke-miterlimit="10"/><use xlink:href="#s" x="256.441" y="106.876"/><use xlink:href="#t" x="272.621" y="106.876"/><use xlink:href="#u" x="288.801" y="106.876"/><use xlink:href="#v" x="293.476" y="106.876"/><use xlink:href="#w" x="309.656" y="106.876"/><g><use xlink:href="#x" x="127.034" y="339.028"/><use xlink:href="#y" x="142.028" y="339.028"/><use xlink:href="#z" x="155.512" y="339.028"/><use xlink:href="#A" x="168.6" y="339.028"/><use xlink:href="#B" x="184.78" y="339.028"/><use xlink:href="#C" x="200.96" y="339.028"/><use xlink:href="#t" x="217.141" y="339.028"/></g><g><use xlink:href="#D" x="233.317" y="338.275"/><use xlink:href="#E" x="238.287" y="338.275"/><use xlink:href="#F" x="252.669" y="338.275"/><use xlink:href="#G" x="261.123" y="338.275"/><use xlink:href="#H" x="269.577" y="338.275"/><use xlink:href="#I" x="283.959" y="338.275"/><use xlink:href="#J" x="298.342" y="338.275"/><use xlink:href="#K" x="312.724" y="338.275"/><use xlink:href="#L" x="327.107" y="338.275"/><use xlink:href="#M" x="341.489" y="338.275"/><use xlink:href="#N" x="355.872" y="338.275"/><use xlink:href="#O" x="370.254" y="338.275"/><use xlink:href="#P" x="374.25" y="338.275"/><use xlink:href="#K" x="378.404" y="338.275"/><use xlink:href="#L" x="392.787" y="338.275"/><use xlink:href="#Q" x="407.169" y="338.275"/><use xlink:href="#R" x="421.552" y="338.275"/><use xlink:href="#S" x="435.934" y="338.275"/><use xlink:href="#T" x="450.317" y="338.275"/></g><path d="M537.637 279.32H45c-9.379 0-16.98-7.601-16.98-16.976v-129.64h526.597v129.64c0 9.375-7.601 16.976-16.98 16.976zm0 0" fill="none" stroke-width=".2496975" stroke="#595757" stroke-miterlimit="10"/></svg>