<svg xmlns="http://www.w3.org/2000/svg" xmlns:xlink="http://www.w3.org/1999/xlink" width="793.701" height="1122.52" viewBox="0 0 595.276 841.89" version="1.2"><defs><symbol overflow="visible" id="a"><path d="M1.89-4.531H.985l.438-.75h1.266V0H1.89zm0 0"/></symbol><symbol overflow="visible" id="b"><path d="M3.453-1.469h.563v.719h-.563V0h-.797v-.75H.062l3.391-4.922zm-.797 0v-1.765L1.437-1.47zm0 0"/></symbol><symbol overflow="visible" id="d"><path d="M.64 0H1v-4.375H.64zm0 0"/></symbol><symbol overflow="visible" id="e"><path d="M.75-.156c.156 0 .313-.11.313-.313A.317.317 0 0 0 .75-.797a.317.317 0 0 0-.313.328c0 .203.157.313.313.313zm0 0"/></symbol><symbol overflow="visible" id="g"><path d="M.734-3.25c0-.578.454-1.016 1.047-1.016.594 0 1.047.438 1.047 1.016 0 .594-.453 1.031-1.047 1.031-.593 0-1.047-.437-1.047-1.031zm3.625-.5v1H3.047c.062-.156.078-.328.078-.5 0-.188-.031-.36-.078-.5zm0 1.266v1.53h.329v-3.952h-.329v.875H2.891c-.235-.313-.641-.516-1.11-.516C1-4.547.438-4.016.438-3.25c0 .766.562 1.313 1.343 1.313.485 0 .875-.204 1.125-.547zM1.672.016V-1.36h-.328V.28h3.5V.016zm0 0"/></symbol><symbol overflow="visible" id="h"><path d="M3.36-4.313H2.015v-.656h-.313v.657H.343v.265H3.36zM.983-2.702c0-.422.36-.719.875-.719.516 0 .875.297.875.719s-.359.719-.875.719c-.515 0-.875-.297-.875-.72zm2.063 0c0-.594-.485-.969-1.188-.969s-1.187.375-1.187.969.484.984 1.187.984c.704 0 1.188-.39 1.188-.984zM1.157-.922h3.202V.422h.329v-1.61H1.155zm3.202-3.984v1.375H3.33v.265h1.03v.72H3.33v.265h1.03v.75h.329v-3.375zm0 0"/></symbol><symbol overflow="visible" id="i"><path d="M7.14-1.656h1.391V-8.75h-1.39v1.063H4.797v1.093H7.14v.719H4.797v1.078H7.14zM5.767-4.328c-1.188.203-2.25.281-3.422.297v-4.11H.969v5.25h.781c1.453 0 2.734-.062 4.156-.312zM3.546-.36v-1.922h-1.39V.734H8.75V-.359zm0 0"/></symbol><symbol overflow="visible" id="j"><path d="M5.5-1.328v-2h2.766v-1.125H2.859v-2.531h5.329v-1.11h-6.72v4.766h2.657v2H.453v1.14h8.735v-1.14zm0 0"/></symbol><symbol overflow="visible" id="k"><path d="M2.219-7.688H.829v6.235H1.5c.969 0 2.078-.047 3.328-.281l-.11-1.157c-.921.172-1.75.235-2.5.25zm5.187-1.078v3.72h-.875v-3.548H5.25V.437h1.281v-4.359h.875V.891H8.72v-9.657zm0 0"/></symbol><symbol overflow="visible" id="l"><path d="M4.797-.14C3.5-.14 2.844-.36 2.844-.845c0-.5.656-.703 1.953-.703 1.281 0 1.937.203 1.937.703 0 .485-.656.703-1.937.703zm0-2.454c-2.094 0-3.344.625-3.344 1.75 0 1.11 1.25 1.75 3.344 1.75 2.078 0 3.344-.64 3.344-1.75 0-1.125-1.266-1.75-3.344-1.75zm-1-2.39c.312.046.656.062 1.015.062.36 0 .688-.016 1-.047v.797H3.797zm1.015-2.579c1.329 0 2.079.266 2.079.813 0 .516-.75.797-2.079.797-1.312 0-2.062-.281-2.062-.797 0-.547.75-.813 2.063-.813zm2.375 3.391v-1.156c.72-.313 1.125-.797 1.125-1.422 0-1.156-1.359-1.86-3.5-1.86-2.125 0-3.484.704-3.484 1.86 0 .61.39 1.094 1.078 1.406v1.172H.453v1.094h8.719v-1.094zm0 0"/></symbol><symbol overflow="visible" id="m"><path d="M.39 0h4.594v-1.14h-1.5c-.312 0-.765.03-1.109.062 1.25-1.219 2.281-2.547 2.281-3.781 0-1.266-.86-2.11-2.156-2.11-.938 0-1.547.375-2.172 1.047l.75.734c.328-.375.75-.703 1.25-.703.64 0 1.031.422 1.031 1.11 0 1.047-1.109 2.328-2.968 4zm0 0"/></symbol><symbol overflow="visible" id="n"><path d="M2.719.125c1.39 0 2.312-1.219 2.312-3.563 0-2.359-.922-3.53-2.312-3.53-1.39 0-2.313 1.155-2.313 3.53 0 2.344.922 3.563 2.313 3.563zm0-1.063c-.578 0-1.031-.593-1.031-2.5 0-1.921.453-2.468 1.03-2.468.595 0 1.032.547 1.032 2.468 0 1.907-.438 2.5-1.031 2.5zm0 0"/></symbol><symbol overflow="visible" id="o"><path d="M.75 0h4.11v-1.094H3.577v-5.734h-1c-.437.266-.906.437-1.594.562v.844H2.22v4.328H.75zm0 0"/></symbol><symbol overflow="visible" id="p"><path d="M6.281-1.453H7.5v-6.25H6.281v.937H4.234v.954h2.047v.625H4.234v.968h2.047zm-1.203-2.36c-1.047.188-1.984.25-3.016.266v-3.625H.86v4.625h.688c1.266 0 2.39-.047 3.656-.281zM3.125-.328v-1.688H1.906V.641h5.797v-.97zm0 0"/></symbol><symbol overflow="visible" id="K"><path d="M2.578-3.5C2-3.5 1.61-3.875 1.61-4.688c0-.828.422-1.25.938-1.25.578 0 1.047.47 1.172 1.704-.344.53-.766.734-1.14.734zM.484-.64A2.578 2.578 0 0 0 2.36.124c1.36 0 2.625-1.11 2.625-3.703 0-2.375-1.171-3.39-2.468-3.39-1.172 0-2.141.89-2.141 2.28 0 1.454.813 2.157 1.953 2.157.469 0 1.047-.281 1.406-.75-.062 1.719-.703 2.297-1.468 2.297-.407 0-.829-.204-1.079-.47zm0 0"/></symbol><symbol overflow="visible" id="am"><path d="M2.719.125c1.375 0 2.297-.797 2.297-1.828 0-.922-.516-1.484-1.141-1.828v-.047c.453-.313.875-.875.875-1.563 0-1.078-.781-1.812-1.984-1.812-1.204 0-2.063.703-2.063 1.797 0 .734.375 1.25.906 1.625v.047c-.64.343-1.171.906-1.171 1.78 0 1.079.968 1.829 2.28 1.829zm.437-4.031c-.734-.281-1.25-.594-1.25-1.25 0-.547.36-.844.828-.844.579 0 .907.39.907.953 0 .406-.157.797-.485 1.14zM2.75-.828c-.64 0-1.14-.406-1.14-1.016 0-.515.25-.968.624-1.265.891.359 1.516.656 1.516 1.359 0 .594-.422.922-1 .922zm0 0"/></symbol><symbol overflow="visible" id="aS"><path d="M1.719 0h1.375c.11-2.672.328-4.078 1.906-6.016v-.812H.469v1.125H3.53C2.234-3.891 1.844-2.375 1.72 0zm0 0"/></symbol><symbol overflow="visible" id="bu"><path d="M2.89-.89c-.578 0-1.03-.485-1.156-1.735.329-.531.735-.719 1.11-.719.594 0 .969.375.969 1.188 0 .828-.422 1.265-.922 1.265zm2.063-5.298a2.505 2.505 0 0 0-1.844-.78c-1.375 0-2.64 1.093-2.64 3.64C.469-.922 1.609.125 2.922.125c1.156 0 2.14-.875 2.14-2.281 0-1.469-.812-2.14-1.953-2.14-.453 0-1.046.265-1.406.718.047-1.703.703-2.297 1.484-2.297.391 0 .813.219 1.047.5zm0 0"/></symbol><symbol overflow="visible" id="bG"><path d="M1.516-2.813L2.578-4.5c.188-.375.375-.75.547-1.11h.031c-.015.391-.047 1.016-.047 1.407v1.39zm3.671 0h-.812v-4.015H2.75L.187-2.703v.937H3.11V0h1.266v-1.766h.813zm0 0"/></symbol><symbol overflow="visible" id="bN"><path d="M2.531.125c1.297 0 2.406-.719 2.406-1.984 0-.891-.593-1.47-1.375-1.672v-.047c.735-.297 1.141-.828 1.141-1.563 0-1.171-.89-1.828-2.203-1.828-.813 0-1.469.328-2.063.844l.704.828c.406-.36.796-.594 1.28-.61.595.016.923.329.923.86C3.344-4.437 2.938-4 1.688-4v.984c1.484 0 1.875.407 1.875 1.079 0 .609-.47.953-1.157.953-.625 0-1.125-.297-1.531-.704l-.64.86c.484.547 1.218.953 2.296.953zm0 0"/></symbol><symbol overflow="visible" id="q"><path d="M1.469-1.547C2-1.547 2.516-2 2.516-2.703c0-.688-.516-1.14-1.047-1.14-.547 0-1.063.452-1.063 1.14 0 .703.516 1.156 1.063 1.156zm0 0"/></symbol><symbol overflow="visible" id="s"><path d="M4.75-2.984C5-4.61 5-5.72 5-6.313v-.296H.89v.406h3.626c0 .594-.016 1.672-.266 3.172zM2.812-4.266h-.484v2.579c-.672.015-1.328.015-1.906.015l.094.438c1.468-.016 3.421-.047 5.171-.313l-.03-.36c-.907.11-1.891.173-2.845.204zm5.344.22H6.72v-3.516h-.5V.64h.5v-4.25h1.437zm0 0"/></symbol><symbol overflow="visible" id="t"><path d="M5.406-6.61H3.234v-1H2.75v1H.547v.407h4.86zM1.5-4.202c0-.64.61-1.063 1.484-1.063.875 0 1.47.422 1.47 1.063 0 .625-.595 1.062-1.47 1.062S1.5-3.578 1.5-4.203zm3.406 0c0-.906-.765-1.453-1.922-1.453-1.171 0-1.937.547-1.937 1.453 0 .89.766 1.453 1.937 1.453 1.157 0 1.922-.563 1.922-1.453zM1.594-1.516h4.765V.641h.485v-2.579h-5.25zm6.531-3.687H6.844v-2.36h-.485v5.125h.485V-4.78h1.281zm0 0"/></symbol><symbol overflow="visible" id="u"><path d="M1.031-6.656v.422h3.266C4.172-4.204 2.922-2.47.672-1.375l.265.406c2.641-1.297 3.86-3.39 3.86-5.687zm5.672-.89V.64h.484v-8.188zm0 0"/></symbol><symbol overflow="visible" id="v"><path d="M7.5-5.047c-1.25-.156-3.016-.937-3.016-2.078v-.39h-.5v.39c0 1.14-1.765 1.922-3.03 2.078l.171.39c1.172-.187 2.61-.78 3.11-1.75.468.97 1.906 1.563 3.093 1.75zm.438 1.453V-4H.516v.406h3.468v.985h-2.53v.39h5.015v.938h-5V.53h5.75V.125H1.953V-.906h5V-2.61H4.47v-.985zm0 0"/></symbol><symbol overflow="visible" id="w"><path d="M4.86-5.344v.422h1.859v2.25h.484v-4.875H6.72v2.203zm.437 1.922c-1.125-.406-2.078-1.437-2.078-2.547v-.515H5.14v-.407H.78v.407H2.75v.515c0 1.25-1 2.36-2.14 2.797l.25.39c.968-.39 1.812-1.202 2.14-2.25.328.907 1.125 1.657 2.047 2zM4.547.234c-1.328 0-2.188-.421-2.188-1.109 0-.672.86-1.094 2.188-1.094 1.344 0 2.219.422 2.219 1.094 0 .688-.875 1.11-2.22 1.11zm0-2.593c-1.672 0-2.688.53-2.688 1.484 0 .969 1.016 1.5 2.688 1.5 1.672 0 2.687-.531 2.687-1.5 0-.953-1.015-1.484-2.687-1.484zm0 0"/></symbol><symbol overflow="visible" id="x"><path d="M1.938-4.938H6.53v1.72H1.938zm2.53 4.063v-1.922h2.548v-4.14H6.53v1.578H1.938v-1.579h-.485v4.141h2.531v1.922H.516v.422h7.453v-.422zm0 0"/></symbol><symbol overflow="visible" id="y"><path d="M4.234.234c-1.437 0-2.296-.328-2.296-.906 0-.562.859-.906 2.296-.906 1.422 0 2.297.344 2.297.906 0 .578-.875.906-2.297.906zm0-2.187c-1.78 0-2.796.437-2.796 1.281C1.438.172 2.452.625 4.233.625c1.782 0 2.782-.453 2.782-1.297 0-.844-1-1.281-2.782-1.281zm.235-1.188v-1h2.547v-.39h-5v-1.016H6.75v-.406H2.016v-.953h4.968v-.39H1.531v3.155h2.453v1H.531v.422h7.407v-.422zm0 0"/></symbol><symbol overflow="visible" id="z"><path d="M7.188-7.547h-.485v6.031h.484zm-1.782 4.25c-1.14-.453-2.14-1.61-2.14-2.953v-.844H2.78v.844c0 1.39-.953 2.625-2.11 3.11l.282.39a3.868 3.868 0 0 0 2.078-2.406c.344 1.031 1.172 1.86 2.11 2.25zM2.531.031v-2.094h-.484v2.5h5.422V.031zm0 0"/></symbol><symbol overflow="visible" id="A"><path d="M6.484-4.14H2v-1.423h4.484zM6.97-7.22h-.485v1.25H2v-1.25h-.5v3.5h5.469zm.984 4.61H.516v.406h3.453V.64h.484v-2.844h3.5zm0 0"/></symbol><symbol overflow="visible" id="B"><path d="M1.14-4.547c1.204-.14 2.626-.687 3.094-1.61.47.923 1.891 1.47 3.094 1.61l.172-.39c-1.297-.125-3-.829-3-1.875v-.032h2.766v-.406H1.203v.406H3.97v.032c0 1.062-1.719 1.75-3.016 1.875zm6.798.922v-.406H.516v.406h3.468v1h-2.53v.39h5.015v.97h-5V.53h5.75V.125H1.953V-.891h5v-1.734H4.47v-1zm0 0"/></symbol><symbol overflow="visible" id="C"><path d="M2.828-6.75H2.36v1.688c0 1.406-.812 2.875-1.89 3.5l.312.359C1.625-1.72 2.312-2.72 2.61-3.891c.297 1.063.954 2.032 1.75 2.516l.313-.375c-1.063-.625-1.844-2.031-1.844-3.328zM5.297-4.5H3.766v.406h1.53V.22h.47v-7.563h-.47zm1.687-3.047V.641h.47v-8.188zm0 0"/></symbol><symbol overflow="visible" id="D"><path d="M3.078-6.281H5.36v2.89H3.08zM4.453-.844v-2.125H7.22v-.422H5.844v-2.89h1.375v-.422h-6v.422h1.375v2.89h-1.36v.422H3.97v2.125H.516v.406h7.453v-.406zm0 0"/></symbol><symbol overflow="visible" id="E"><path d="M4.219-6.797c1.375 0 2.312.547 2.312 1.344 0 .812-.937 1.36-2.312 1.36-1.36 0-2.313-.548-2.313-1.36 0-.797.953-1.344 2.313-1.344zm0 3.11c1.687 0 2.812-.688 2.812-1.766s-1.125-1.75-2.812-1.75c-1.688 0-2.813.672-2.813 1.75 0 1.078 1.125 1.766 2.813 1.766zm3.734.859H.516v.422h2.046V.64h.5v-3.047h2.329V.64h.484v-3.047h2.078zm0 0"/></symbol><symbol overflow="visible" id="F"><path d="M4.14-3.89H1.407V-6.5h2.735zm.47-3.016H.921v3.422h3.687zM4.25.219C2.953.219 2.094-.187 2.094-.86s.86-1.079 2.156-1.079c1.328 0 2.172.407 2.172 1.079 0 .671-.844 1.078-2.172 1.078zm0-2.563c-1.64 0-2.64.547-2.64 1.485 0 .953 1 1.484 2.64 1.484 1.656 0 2.656-.531 2.656-1.484 0-.938-1-1.485-2.656-1.485zM6.844-5.39v-2.156h-.485v4.875h.485v-2.312h1.281v-.407zm0 0"/></symbol><symbol overflow="visible" id="G"><path d="M1.14-5c0-.89.673-1.578 1.61-1.578.922 0 1.594.687 1.594 1.578 0 .906-.672 1.578-1.594 1.578-.938 0-1.61-.672-1.61-1.578zm5.579-.781v1.547H4.687c.094-.235.141-.5.141-.766a2.48 2.48 0 0 0-.14-.781zm0 1.953v2.375h.484v-6.094H6.72v1.344H4.453a2.135 2.135 0 0 0-1.703-.813C1.547-7.016.672-6.187.672-5c0 1.188.875 2.016 2.078 2.016.734 0 1.344-.329 1.719-.844zM2.562.032v-2.126h-.484V.437h5.375V.031zm0 0"/></symbol><symbol overflow="visible" id="H"><path d="M7.938-3.453H6.655c.235-1.203.235-2.063.235-2.828v-.703H1.5v.406h4.906v.297c0 .765 0 1.64-.265 2.828H.516v.422h3.468V.656h.485V-3.03h3.468zm0 0"/></symbol><symbol overflow="visible" id="I"><path d="M5.61-3.89c-1.173.203-2.141.25-3.97.25H1.5V-4.97h3.172v-.406H1.5v-1.25h3.39v-.422H1v3.813h.64c1.844 0 2.813-.032 4.032-.25zM2.468-1.798h4.25V.11h-4.25zM1.984.516h5.204v-2.72H1.984zm4.72-8.063v4.89h.484v-4.89zm0 0"/></symbol><symbol overflow="visible" id="J"><path d="M6.719-1.36h.484v-6.187H6.72v2.031H4.75v.422h1.969zM5.25-3.218C4.14-3.656 3.172-4.75 3.172-5.953v-1.11h-.485V-6c0 1.328-.984 2.5-2.109 2.953l.25.39c.969-.405 1.781-1.234 2.11-2.296.343.953 1.14 1.734 2.046 2.11zM2.516.031v-2.125H2.03V.437h5.375V.031zm0 0"/></symbol><symbol overflow="visible" id="L"><path d="M3.297-6.266h2.062v-.421H.781v.421h2.031v1.391c0 1.438-1.203 2.984-2.265 3.531l.312.39c.891-.484 1.844-1.609 2.204-2.843.374 1.188 1.328 2.203 2.234 2.64l.297-.39c-1.11-.5-2.297-1.906-2.297-3.328zm3.39-1.28V.64h.485v-8.188zm0 0"/></symbol><symbol overflow="visible" id="M"><path d="M1.781 0h.625l1.156-4.5c.126-.531.266-1 .376-1.516h.03c.126.516.235.985.36 1.516L5.516 0h.625l1.484-6.734h-.547l-.812 3.906a49.18 49.18 0 0 0-.422 2.187h-.047c-.188-.734-.344-1.468-.531-2.187L4.234-6.734h-.546L2.671-2.828c-.172.719-.36 1.453-.516 2.187H2.11a90.069 90.069 0 0 0-.453-2.187L.844-6.734H.28zm0 0"/></symbol><symbol overflow="visible" id="N"><path d="M2.75.125c1.188 0 2.219-.953 2.219-2.578 0-1.64-1.032-2.594-2.219-2.594-1.203 0-2.234.953-2.234 2.594C.516-.828 1.546.125 2.75.125zm0-.469c-.969 0-1.672-.86-1.672-2.11 0-1.265.703-2.124 1.672-2.124.953 0 1.656.86 1.656 2.125 0 1.25-.703 2.11-1.656 2.11zm0 0"/></symbol><symbol overflow="visible" id="O"><path d="M.922 0h.531v-3.313c.36-.906.89-1.234 1.328-1.234a.91.91 0 0 1 .453.094l.11-.484c-.156-.094-.313-.11-.5-.11-.578 0-1.063.422-1.39 1.047h-.016l-.079-.922H.922zm0 0"/></symbol><symbol overflow="visible" id="P"><path d="M1.578.125c.172 0 .266-.031.36-.063l-.079-.421c-.109.015-.14.015-.171.015-.141 0-.235-.094-.235-.328v-6.672H.922v6.61c0 .578.219.859.656.859zm0 0"/></symbol><symbol overflow="visible" id="Q"><path d="M2.563.125c.624 0 1.171-.344 1.578-.75h.015L4.22 0h.437v-7.344h-.531v2l.047.89c-.484-.374-.89-.593-1.469-.593-1.172 0-2.187 1-2.187 2.594 0 1.656.812 2.578 2.046 2.578zm.093-.469c-1 0-1.562-.844-1.562-2.11 0-1.218.718-2.124 1.656-2.124.469 0 .875.172 1.375.61v2.843c-.484.5-.953.781-1.469.781zm0 0"/></symbol><symbol overflow="visible" id="R"><path d="M.422-3.281h2.265v-.453H.422zm0 0"/></symbol><symbol overflow="visible" id="S"><path d="M3.39.125c.876 0 1.5-.36 2.016-.969l-.312-.344c-.469.516-.985.813-1.672.813-1.406 0-2.281-1.172-2.281-3.016 0-1.812.89-2.968 2.312-2.968.625 0 1.094.28 1.453.687l.328-.375a2.377 2.377 0 0 0-1.78-.812C1.75-6.86.546-5.516.546-3.375c0 2.156 1.187 3.5 2.844 3.5zm0 0"/></symbol><symbol overflow="visible" id="T"><path d="M2.016.125c.625 0 1.218-.344 1.718-.75h.016L3.797 0h.453v-3.125c0-1.078-.406-1.922-1.578-1.922-.813 0-1.485.39-1.875.64l.25.391c.344-.265.906-.562 1.547-.562.937 0 1.14.75 1.125 1.484-2.172.25-3.14.766-3.14 1.86 0 .906.64 1.359 1.437 1.359zm.109-.453c-.547 0-1-.266-1-.938 0-.75.656-1.203 2.594-1.437v1.61c-.578.5-1.047.765-1.594.765zm0 0"/></symbol><symbol overflow="visible" id="U"><path d="M2.14.125c1.079 0 1.688-.656 1.688-1.406 0-.953-.844-1.219-1.594-1.5-.578-.219-1.14-.422-1.14-.969 0-.438.328-.844 1.062-.844.469 0 .828.188 1.172.438l.266-.375a2.32 2.32 0 0 0-1.422-.516c-1.031 0-1.625.61-1.625 1.328 0 .844.812 1.156 1.547 1.406.578.204 1.187.47 1.187 1.063 0 .5-.375.922-1.125.922-.672 0-1.125-.25-1.547-.61l-.28.391c.437.36 1.077.672 1.812.672zm0 0"/></symbol><symbol overflow="visible" id="V"><path d="M3.25.125c1.203 0 2.313-.64 2.313-2.75v-4.11H5.03v4.079c0 1.75-.828 2.281-1.781 2.281-.938 0-1.75-.531-1.75-2.281v-4.078H.953v4.109c0 2.11 1.094 2.75 2.297 2.75zm0 0"/></symbol><symbol overflow="visible" id="W"><path d="M.922 0h.531v-3.688c.578-.593.984-.89 1.563-.89.75 0 1.078.484 1.078 1.5V0h.531v-3.156c0-1.25-.469-1.89-1.5-1.89-.672 0-1.172.39-1.672.874h-.016l-.078-.75H.922zm0 0"/></symbol><symbol overflow="visible" id="X"><path d="M.922 0h.531v-4.922H.922zm.281-6.078c.234 0 .453-.172.453-.422 0-.281-.218-.438-.453-.438-.25 0-.453.157-.453.438 0 .25.203.422.453.422zm0 0"/></symbol><symbol overflow="visible" id="Y"><path d="M1.953 0h.625l1.813-4.922h-.547L2.78-1.906c-.156.484-.328.984-.484 1.422H2.25a49.737 49.737 0 0 1-.484-1.422L.703-4.922H.125zm0 0"/></symbol><symbol overflow="visible" id="Z"><path d="M2.813.125c.703 0 1.171-.234 1.562-.484L4.172-.75c-.375.25-.781.422-1.313.422-1.062 0-1.765-.844-1.796-2.047h3.484c.031-.125.031-.25.031-.39 0-1.438-.703-2.282-1.906-2.282-1.11 0-2.156 1-2.156 2.594 0 1.61 1.03 2.578 2.296 2.578zm-1.75-2.922c.093-1.125.828-1.797 1.625-1.797.859 0 1.406.61 1.406 1.797zm0 0"/></symbol><symbol overflow="visible" id="aa"><path d="M2.313.125c.218 0 .53-.094.812-.188L3-.483c-.172.078-.422.14-.594.14-.656 0-.828-.406-.828-1.015v-3.11h1.406v-.453H1.578v-1.422h-.453l-.063 1.422-.78.047v.406h.765v3.063c0 .922.297 1.531 1.266 1.531zm0 0"/></symbol><symbol overflow="visible" id="ab"><path d="M.781 2.219c.906 0 1.406-.797 1.703-1.64l1.922-5.5H3.86l-1 3.015c-.14.422-.296.937-.453 1.375H2.36C2.188-.97 2-1.484 1.844-1.906L.704-4.922H.124l2.016 5L2 .484c-.234.72-.64 1.25-1.219 1.25-.14 0-.297-.03-.406-.078l-.11.453c.126.063.329.11.516.11zm0 0"/></symbol><symbol overflow="visible" id="ac"><path d="M5.36-3.172H3.077V-6.25H5.36zm-2.766 0h-1.36v.422H7.22v-.422H5.844V-6.25h1.375v-.422h-6v.422h1.375zM.516-.89v.422h7.453V-.89zm0 0"/></symbol><symbol overflow="visible" id="ad"><path d="M4.469-.844v-1.734h2.718v-.406H1.97v-1.594h5.015v-2.313H1.47v.407h5.047v1.5H1.5v2.406h2.484v1.734H.516v.422h7.453v-.422zm0 0"/></symbol><symbol overflow="visible" id="ae"><path d="M6.406-5.89c0 .952 0 2.218-.328 3.952l.484.063c.329-1.828.329-3.031.329-4.016v-.734H1.359v.422h5.047zM.516-1.048v.406h7.421v-.406zm0 0"/></symbol><symbol overflow="visible" id="af"><path d="M4.547-3.734c-1.063.218-1.969.28-3.11.28h-.03V-4.89h2.562v-2.093H.906v.406H3.5v1.297H.937v2.234h.5c1.172 0 2.063-.062 3.172-.281zM2.578-1.797h4.344V.11H2.578zM2.11.516h5.282v-2.72H2.109zm4.813-8.063v2.172H5.547v-2.016h-.484v4.625h.484v-2.187h1.375v2.328h.469v-4.922zm0 0"/></symbol><symbol overflow="visible" id="ag"><path d="M.64 1.281C1.298.938 1.75.328 1.75-.469c0-.469-.203-.765-.547-.765-.266 0-.484.156-.484.453 0 .297.219.469.469.469.046 0 .078 0 .109-.016 0 .578-.313 1-.813 1.25zm0 0"/></symbol><symbol overflow="visible" id="ah"><path d="M.984 0h.5v-4.266c0-.562-.03-1.296-.062-1.859h.031l.531 1.5L3.406-.719h.438l1.422-3.906.53-1.5h.032a36.946 36.946 0 0 0-.062 1.86V0h.515v-6.734h-.734L4.172-2.86c-.172.484-.328.984-.5 1.468h-.047l-.516-1.468-1.39-3.875H.984zm0 0"/></symbol><symbol overflow="visible" id="ai"><path d="M.984 0H2.97c1.515 0 2.515-.672 2.515-1.969 0-.922-.578-1.468-1.437-1.61v-.046c.672-.203 1.031-.781 1.031-1.469 0-1.14-.89-1.64-2.25-1.64H.984zm.547-3.797V-6.28H2.72c1.187 0 1.812.328 1.812 1.25 0 .765-.547 1.234-1.875 1.234zm0 3.328v-2.89h1.313c1.344 0 2.094.453 2.094 1.39 0 1.047-.797 1.5-2.094 1.5zm0 0"/></symbol><symbol overflow="visible" id="aj"><path d="M2.766.125c1.312 0 2.171-.797 2.171-1.828 0-1.031-.64-1.453-1.406-1.797l-1.015-.438c-.485-.218-1.141-.5-1.141-1.265 0-.703.578-1.156 1.438-1.156.656 0 1.187.28 1.578.687l.312-.375a2.571 2.571 0 0 0-1.89-.812c-1.157 0-2 .703-2 1.703 0 .984.765 1.406 1.359 1.672l1.015.453c.657.281 1.188.547 1.188 1.36 0 .765-.61 1.296-1.61 1.296a2.576 2.576 0 0 1-1.953-.906l-.343.39C1-.28 1.78.125 2.766.125zm0 0"/></symbol><symbol overflow="visible" id="ak"><path d="M5.266-3.39C4.14-3.75 3.187-4.688 3.187-5.767v-.296H5.11v-.407H3.188v-1.14h-.485v1.14H.75v.407h1.953v.296c0 1.204-.969 2.204-2.11 2.594l.235.39c.969-.343 1.797-1.093 2.125-2.046.36.844 1.14 1.516 2.078 1.828zM4.25.218c-1.313 0-2.156-.39-2.156-1.032 0-.64.844-1.03 2.156-1.03 1.328 0 2.172.39 2.172 1.03C6.422-.171 5.578.22 4.25.22zm0-2.469c-1.64 0-2.64.516-2.64 1.438 0 .921 1 1.421 2.64 1.421 1.656 0 2.656-.5 2.656-1.421 0-.922-1-1.438-2.656-1.438zm2.594-3.063v-2.234h-.485v5.063h.485v-2.407h1.281v-.421zm0 0"/></symbol><symbol overflow="visible" id="al"><path d="M6.719-3.281h.484v-4.281H6.72v1.656H4.75v.437h1.969zm-1.469-.61c-1.11-.39-2.11-1.406-2.11-2.546v-.875h-.468v.875c0 1.28-.969 2.343-2.11 2.75l.266.39c.938-.375 1.766-1.14 2.094-2.14.36.89 1.172 1.593 2.078 1.921zm-2.734 4V-1h4.687v-1.813H2v.407h4.719v1.015H2.03V.516h5.516V.109zm0 0"/></symbol><symbol overflow="visible" id="an"><path d="M.984 0h3.61v-.484H1.53v-6.25H.984zm0 0"/></symbol><symbol overflow="visible" id="ao"><path d="M3.469.125c.906 0 1.594-.313 2.031-.766v-2.718H3.39v.484h1.563v2.016c-.297.312-.86.484-1.422.484-1.515 0-2.39-1.172-2.39-3.016 0-1.812.921-2.968 2.421-2.968.735 0 1.188.312 1.532.687l.328-.375c-.375-.375-.953-.812-1.86-.812-1.78 0-3.015 1.343-3.015 3.484 0 2.156 1.187 3.5 2.922 3.5zm0 0"/></symbol><symbol overflow="visible" id="ap"><path d="M5.625-4.828h1.297v2.36h.469v-5.079h-.47v2.313H5.626v-2.157h-.469v4.657h.469zm-1.016 1.25c-1.03-.406-1.75-1.344-1.75-2.266v-1.203h-.484v1.203c0 .922-.75 2.016-1.781 2.469l.281.39c.813-.374 1.453-1.14 1.75-1.953.281.75.906 1.407 1.719 1.735zM4.75.234c-1.344 0-2.203-.406-2.203-1.03 0-.657.86-1.048 2.203-1.048 1.344 0 2.203.39 2.203 1.047 0 .625-.86 1.031-2.203 1.031zm0-2.468c-1.672 0-2.688.515-2.688 1.437C2.063.11 3.079.625 4.75.625c1.672 0 2.688-.516 2.688-1.422 0-.922-1.016-1.437-2.688-1.437zm0 0"/></symbol><symbol overflow="visible" id="aq"><path d="M4.11-3.75H1.405v-2.766H4.11zm2.609-1.984v1.203H4.594v-1.203zM4.594-4.11h2.125v1.437h.484v-4.875H6.72v1.39H4.594v-.765H.937v3.578h3.657zM4.547.219c-1.328 0-2.188-.422-2.188-1.11 0-.687.86-1.125 2.188-1.125 1.344 0 2.219.438 2.219 1.125 0 .688-.875 1.11-2.22 1.11zm0-2.625c-1.656 0-2.688.547-2.688 1.515C1.86.08 2.891.625 4.547.625c1.672 0 2.687-.547 2.687-1.516 0-.968-1.015-1.515-2.687-1.515zm0 0"/></symbol><symbol overflow="visible" id="ar"><path d="M3.438-5.672h2v-.406h-2v-1.36h-.485v1.36H.938v.406h2.03v.828c0 1.547-1.077 2.938-2.218 3.485l.297.375c.922-.47 1.812-1.47 2.156-2.704.375 1.172 1.25 2.126 2.188 2.563l.28-.406C4.548-2.016 3.438-3.36 3.438-4.844zm3.25-1.875V.641h.5v-8.188zm0 0"/></symbol><symbol overflow="visible" id="as"><path d="M3.203-2.578H5.36v1.734H3.203zm2.64 1.734v-1.734h1.345V-3h-5.22v-1.578h5.016v-2.313H1.47v.407h5.047v1.5H1.5v2.406h1.219v1.734H.516v.422h7.453v-.422zm0 0"/></symbol><symbol overflow="visible" id="at"><path d="M2.813-6.11h1.624v-.406H.642v.407h1.703v.953c0 1.562-.797 3.062-1.89 3.718l.327.375c.844-.53 1.516-1.578 1.797-2.78.281 1.124.922 2.077 1.75 2.593l.313-.375C3.562-2.25 2.812-3.703 2.812-5.156zm2.5 1.579H3.796v.422h1.515V.187h.485v-7.515h-.484zm1.656-3.016V.641h.468v-8.188zm0 0"/></symbol><symbol overflow="visible" id="au"><path d="M6.484-6.406c0 .656 0 1.265-.218 2.093l.468.063c.22-.844.22-1.484.22-2.156v-.703H1.437v.421h5.046zM4.204.219C2.812.219 1.874-.203 1.874-.86c0-.657.938-1.094 2.328-1.094 1.406 0 2.36.437 2.36 1.094 0 .656-.954 1.078-2.36 1.078zm0-2.563c-1.735 0-2.813.547-2.813 1.485C1.39.078 2.469.625 4.203.625c1.75 0 2.828-.547 2.828-1.484 0-.938-1.078-1.485-2.828-1.485zm.03-1.297v-1.671H3.75v1.671H.531v.407h7.407v-.407zm0 0"/></symbol><symbol overflow="visible" id="av"><path d="M4.234.234c-1.406 0-2.296-.406-2.296-1.062 0-.672.89-1.063 2.296-1.063 1.407 0 2.297.391 2.297 1.063 0 .656-.89 1.062-2.297 1.062zm0-2.53c-1.734 0-2.796.53-2.796 1.468C1.438.109 2.5.625 4.233.625 5.97.625 7.016.109 7.016-.828c0-.938-1.047-1.469-2.782-1.469zm.22-1.11V-4.5h2.609v-.422h-5.11v-1.844h5.031v-.406h-5.5V-4.5h2.5v1.094H.531v.422h7.407v-.422zm0 0"/></symbol><symbol overflow="visible" id="aw"><path d="M7.188-7.563h-.5v4.75h.5zm-2.97 3.438h-2.78v-2.484h2.78zm.47-2.89H.953v3.296h3.735zm.25 5.234h2.484v-.39H4.938v-.892h-.5v.891h-2.47v.39h2.47v.079c0 .937-1.61 1.766-2.797 1.922l.171.39C2.938.422 4.235-.187 4.688-1.03 5.141-.203 6.391.422 7.517.609l.171-.39c-1.203-.188-2.75-1-2.75-1.922zm0 0"/></symbol><symbol overflow="visible" id="ax"><path d="M5.203-3.563C4.093-3.969 3.11-5.046 3.11-6.219v-.937h-.468v.906c0 1.344-.938 2.453-2.094 2.922l.25.39a3.7 3.7 0 0 0 2.11-2.265c.327.922 1.124 1.672 2.03 2.031zM4.25.22c-1.297 0-2.156-.39-2.156-1.032 0-.64.86-1.046 2.156-1.046 1.328 0 2.172.406 2.172 1.046C6.422-.171 5.578.22 4.25.22zm0-2.469c-1.64 0-2.64.516-2.64 1.438 0 .921 1 1.437 2.64 1.437 1.656 0 2.656-.516 2.656-1.438 0-.921-1-1.437-2.656-1.437zm2.594-3.063v-2.25h-.485V-2.5h.485v-2.39h1.281v-.423zm0 0"/></symbol><symbol overflow="visible" id="ay"><path d="M4.234.234c-1.406 0-2.296-.39-2.296-1.046 0-.641.89-1.047 2.296-1.047 1.407 0 2.297.406 2.297 1.046 0 .657-.89 1.047-2.297 1.047zm0-2.484c-1.75 0-2.796.516-2.796 1.438C1.438.109 2.484.625 4.233.625 5.97.625 7.016.109 7.016-.813c0-.921-1.047-1.437-2.782-1.437zM2.938-4.531c.374.078.796.125 1.28.125.5 0 .938-.047 1.329-.125v1.125h-2.61zM1.89-5.906c0-.672.921-1.078 2.328-1.078 1.437 0 2.343.406 2.343 1.078s-.906 1.11-2.343 1.11c-1.407 0-2.328-.438-2.328-1.11zm4.125 2.5v-1.266c.671-.25 1.046-.672 1.046-1.234 0-.953-1.078-1.485-2.843-1.485-1.75 0-2.828.532-2.828 1.485 0 .562.375 1 1.062 1.25v1.25H.531v.422h7.407v-.422zm0 0"/></symbol><symbol overflow="visible" id="az"><path d="M5.5-6.516H3.281v-1.046h-.5v1.046H.562v.422H5.5zm-3.89 2.5c0-.656.562-1.109 1.421-1.109.86 0 1.438.453 1.438 1.11 0 .64-.578 1.109-1.438 1.109S1.61-3.375 1.61-4.016zM3.28-2.53c1-.078 1.656-.64 1.656-1.485 0-.921-.765-1.5-1.906-1.5-1.125 0-1.875.579-1.875 1.5 0 .844.64 1.407 1.625 1.485V-1.5c-.844.031-1.656.031-2.36.031l.095.422c1.453 0 3.421-.016 5.218-.312l-.03-.391c-.766.125-1.61.188-2.423.219zm4.875-1.453H6.734v-3.563H6.25V.641h.484v-4.204h1.422zm0 0"/></symbol><symbol overflow="visible" id="aA"><path d="M4.156-4.078h-2.75v-1.453h2.75zm.485-3.156h-.485v1.296h-2.75v-1.296H.922v3.562H4.64zM2.25-1h4.594v-1.828H1.75v.39h4.61v1.047H1.765V.531h5.406V.125H2.25zm4.594-4.688v-1.875h-.485v4.282h.485v-1.985h1.265v-.421zm0 0"/></symbol><symbol overflow="visible" id="aB"><path d="M7.969-4.094v-.422H6.766c.171-.937.171-1.64.171-2.203v-.5H1.484v.407H6.47v.093c0 .547 0 1.235-.188 2.203H.516v.422h3.468v1.235H1.438v.406h5.078v1.047H1.453V.516h5.75V.109H1.937v-1.14H7V-2.86H4.469v-1.235zm0 0"/></symbol><symbol overflow="visible" id="aC"><path d="M2.234 1.125l.329-.172c-.813-1.297-1.22-2.86-1.22-4.469 0-1.593.407-3.171 1.22-4.453l-.329-.172C1.391-6.78.891-5.312.891-3.516c0 1.813.5 3.282 1.343 4.641zm0 0"/></symbol><symbol overflow="visible" id="aD"><path d="M3.344.125c1.64 0 2.797-1.375 2.797-3.516 0-2.125-1.157-3.468-2.797-3.468C1.719-6.86.547-5.516.547-3.391.547-1.25 1.719.125 3.344.125zm0-.5c-1.328 0-2.203-1.188-2.203-3.016s.875-2.968 2.203-2.968c1.344 0 2.219 1.14 2.219 2.968 0 1.829-.875 3.016-2.22 3.016zm0 0"/></symbol><symbol overflow="visible" id="aE"><path d="M.672 1.125c.844-1.36 1.344-2.828 1.344-4.64 0-1.797-.5-3.266-1.344-4.626l-.328.172c.797 1.282 1.219 2.86 1.219 4.453 0 1.61-.422 3.172-1.22 4.47zm0 0"/></symbol><symbol overflow="visible" id="aF"><path d="M2.813-5.547h1.671v-.422H2.828v-1.297h-.484v1.297H.672v.422h1.672v.531c0 1.391-.781 2.891-1.844 3.532l.313.359c.843-.516 1.5-1.531 1.765-2.688.297 1.094.985 2.047 1.797 2.532l.313-.39c-1.079-.579-1.875-2-1.875-3.345zm2.5 1.313H3.875v.406h1.438V.187h.484v-7.53h-.484zm1.656-3.329V.642h.468v-8.204zm0 0"/></symbol><symbol overflow="visible" id="aG"><path d="M6.719-5.86v1.141H4.375v.407h2.344v.984h.484v-4.219H6.72v1.281H4.625c.063-.265.11-.546.11-.828H1.077v.422h3.125c-.11 1.5-1.453 2.594-3.516 3.11l.188.406C2.672-3.61 4-4.546 4.5-5.86zM2.516.157v-1.203h4.687v-1.86H2v.407h4.719v1.047H2.03V.563h5.5V.156zm0 0"/></symbol><symbol overflow="visible" id="aH"><path d="M.844 0h3.484v-.469H2.922v-6.265h-.438c-.328.187-.734.328-1.28.421v.36h1.171V-.47H.844zm0 0"/></symbol><symbol overflow="visible" id="aI"><path d="M5.766-6.484h-2.25v-1.094h-.5v1.094H.766v.406h5zm-3.97 2.468c0-.656.595-1.109 1.47-1.109.859 0 1.468.453 1.468 1.11 0 .64-.609 1.109-1.468 1.109-.875 0-1.47-.469-1.47-1.11zm1.72 1.485c1.015-.078 1.671-.64 1.671-1.485 0-.921-.78-1.5-1.921-1.5-1.157 0-1.922.579-1.922 1.5 0 .86.656 1.407 1.672 1.485v1.015c-.86.032-1.704.047-2.438.047l.078.422c1.547 0 3.578-.031 5.422-.312l-.031-.375c-.813.109-1.672.171-2.531.203zm3.093-5.016V.641h.485v-8.188zm0 0"/></symbol><symbol overflow="visible" id="aJ"><path d="M2.703-1.688c-.906 0-1.547-.984-1.547-2.39 0-1.39.64-2.375 1.547-2.375.89 0 1.531.984 1.531 2.375 0 1.406-.64 2.39-1.53 2.39zm0-5.203C1.516-6.89.688-5.78.688-4.078c0 1.719.828 2.828 2.015 2.828 1.172 0 2-1.11 2-2.828 0-1.703-.828-2.813-2-2.813zm5.5 2.72H6.766v-3.376h-.5V.641h.5v-4.407h1.437zm0 0"/></symbol><symbol overflow="visible" id="aK"><path d="M5.234-3.281c-1.14-.422-2.109-1.5-2.109-2.672v-1.11h-.469v1.079c0 1.359-.937 2.468-2.11 2.921l.266.407c.97-.406 1.766-1.203 2.094-2.281C3.25-4 4.062-3.25 4.984-2.892zM2.36-2.047h-.5V.438h5.375V.03H2.36zm4.485-2.922v-2.593h-.485v6.109h.485v-3.094h1.281v-.422zm0 0"/></symbol><symbol overflow="visible" id="aL"><path d="M3.188-6.922c-1.266 0-2.157.75-2.157 1.875 0 1.11.89 1.875 2.157 1.875 1.28 0 2.171-.765 2.171-1.875 0-1.125-.89-1.875-2.171-1.875zm0 .422c.984 0 1.703.61 1.703 1.453 0 .844-.72 1.453-1.704 1.453-.968 0-1.687-.61-1.687-1.453 0-.844.719-1.453 1.688-1.453zm3.421-1.047V.656h.485v-8.203zM.656-1.234c1.5 0 3.531 0 5.422-.344l-.047-.375c-1.828.281-3.922.297-5.453.297zm0 0"/></symbol><symbol overflow="visible" id="aM"><path d="M1.344-1.906V-6.11h2.578v-.422H.859v5.047h.5c1.36 0 2.157-.047 3.125-.266l-.078-.422c-.922.219-1.703.266-3.047.266zm5.625-5.64v3.359H5.547v-3.157h-.469V.188h.469v-3.954h1.422V.641h.468v-8.188zm0 0"/></symbol><symbol overflow="visible" id="aN"><path d="M7.5-4.313c-1.234-.203-3.016-1.156-3.016-2.421v-.5h-.5v.5c0 1.296-1.765 2.218-3.03 2.421l.218.407c1.156-.219 2.578-.938 3.062-2.016.5 1.063 1.922 1.797 3.063 2.016zm.438 1.47H.516v.421h3.453V.641h.484v-3.063h3.484zm0 0"/></symbol><symbol overflow="visible" id="aO"><path d="M1.156-5.688a.478.478 0 0 0 .469-.5c0-.296-.234-.5-.469-.5-.25 0-.468.204-.468.5 0 .313.218.5.468.5zm0 4.829a.478.478 0 0 0 .469-.5c0-.313-.234-.5-.469-.5-.25 0-.468.187-.468.5 0 .312.218.5.468.5zm0 0"/></symbol><symbol overflow="visible" id="aP"><path d="M1.047-7v.422H4.28c-.11 1.562-1.515 2.75-3.64 3.312l.203.407C3.234-3.5 4.797-4.97 4.797-7zm1.406 4.938H6.72V.108H2.453zM1.97.515h5.218v-2.97H1.97zm4.734-8.063v4.656h.484v-4.656zm0 0"/></symbol><symbol overflow="visible" id="aQ"><path d="M7.5-6.234H4.484v-1.172h-.5v1.172H.922v.421H7.5zM3.078-2.266c.344.079.719.11 1.156.11.422 0 .813-.031 1.157-.11v1.47H3.078zm-.984-1.39c0-.688.844-1.125 2.14-1.125 1.282 0 2.125.437 2.125 1.125 0 .672-.843 1.11-2.125 1.11-1.296 0-2.14-.438-2.14-1.11zm3.781 2.86v-1.626c.61-.234.984-.672.984-1.234 0-.969-1-1.516-2.625-1.516S1.61-4.625 1.61-3.656c0 .562.36 1 .97 1.234v1.625H.53v.422h7.422v-.422zm0 0"/></symbol><symbol overflow="visible" id="aR"><path d="M6.469-5.703c0 1.062 0 2.11-.297 3.5l.484.062c.282-1.437.282-2.468.282-3.562v-.953h-5.61v.406h5.14zM5.016-1.031v-2.766H4.53v2.766H2.984v-2.766h-.468v2.766H.53v.422h7.407v-.422zm0 0"/></symbol><symbol overflow="visible" id="aT"><path d="M4.781-4.078C5-5.188 5-6 5-6.516v-.375H1.016v.407H4.53c0 .515 0 1.265-.25 2.359zm.922.594a27.3 27.3 0 0 1-2.828.218v-1.843h-.5v1.875c-.672.015-1.297.015-1.86.015l.063.438c1.453-.016 3.453-.047 5.172-.328zM2.297-1.938h-.5V.438h5.281V.031H2.297zm4.515-2.859v-2.75h-.5v6.188h.5v-3.016h1.282v-.422zm0 0"/></symbol><symbol overflow="visible" id="aU"><path d="M3.594-3.781H1.406V-6.47h2.188zm.453-3.078H.937v3.484h3.11zM1.969-1.75H6.89V.64h.5v-2.812H1.969zm4.953-5.797v2.188H5.625v-2.047h-.469v4.656h.469v-2.203h1.297v2.266h.469v-4.86zm0 0"/></symbol><symbol overflow="visible" id="aV"><path d="M7.516-3.297C6.359-3.53 4.453-4.766 4.453-6.28v-.657h-.5v.657c0 1.531-1.86 2.75-3.031 2.984l.219.422c1.093-.297 2.562-1.203 3.062-2.484.516 1.28 2 2.203 3.078 2.484zm-7 2.36v.406h7.437v-.406zm0 0"/></symbol><symbol overflow="visible" id="aW"><path d="M7.39-7.547h-.468v6.156h.469zM5.345-1.609h.484v-5.782h-.484v2.204h-1.25v.421h1.25zm-.89-1.922c-.923.203-1.688.234-3.016.234h-.032v-1.406h2.282v-.406H1.405v-1.329h2.625v-.421H.938v3.984h.5c1.359 0 2.125-.047 3.078-.25zM2.64.03v-2.125h-.485V.437h5.516V.031zm0 0"/></symbol><symbol overflow="visible" id="aX"><path d="M7.078-3.016H2.016V-4.53h4.796v-.407H2.016v-1.437h4.968v-.422H1.531v4.188h5.547zM.516-.89v.407h7.437v-.407zm0 0"/></symbol><symbol overflow="visible" id="aY"><path d="M2.828-6.094h1.656v-.422H.625v.422h1.734v.89C2.36-3.5 1.61-2.124.47-1.5l.328.375c.89-.516 1.547-1.453 1.812-2.703.297 1.11.907 1.953 1.75 2.422l.297-.39c-1.11-.563-1.828-1.876-1.828-3.407zm4.14-1.453v3.39H5.642v-3.187h-.47V.203h.47v-3.922h1.328v4.36h.484v-8.188zm0 0"/></symbol><symbol overflow="visible" id="aZ"><path d="M4.156-3.734h-2.75v-1.547h2.75zm.485-3.313h-.485v1.36h-2.75v-1.36H.922v3.734H4.64zM4.25.22C2.953.219 2.094-.187 2.094-.86c0-.657.86-1.079 2.156-1.079 1.328 0 2.172.422 2.172 1.079 0 .671-.844 1.078-2.172 1.078zm0-2.563c-1.64 0-2.64.547-2.64 1.485 0 .953 1 1.484 2.64 1.484 1.656 0 2.656-.531 2.656-1.484 0-.938-1-1.485-2.656-1.485zm2.594-3.062v-2.14h-.485v4.968h.485v-2.406h1.281v-.422zm0 0"/></symbol><symbol overflow="visible" id="ba"><path d="M6.719.11H2.562v-1.204H6.72zm0-1.61H2.562v-1.156h-.5V.516h5.126v-3.172h-.47zm-2.64-2.344H1.452v-1.5h2.625zm2.64-3.719v2.11H4.562v-1.688h-.484v1.391H1.453v-1.39H.97v3.718h3.594v-1.625h2.156v1.969h.484v-4.485zm0 0"/></symbol><symbol overflow="visible" id="bb"><path d="M1.11-3.016c.968-.343 1.812-1.03 2.156-2.015.359.922 1.218 1.593 2.187 1.922l.219-.375c-1.14-.36-2.156-1.297-2.156-2.485v-.047h2.03v-.406h-2.03V-7.5h-.5v1.078H1.03v.406h1.985v.047c0 1.235-1 2.203-2.141 2.578zm2.406-.28h-.5v1.687c-.875.03-1.72.03-2.438.03l.078.438c1.5 0 3.531 0 5.407-.359l-.032-.36a22.45 22.45 0 0 1-2.515.22zm3.093-4.25V.655h.485v-8.203zm0 0"/></symbol><symbol overflow="visible" id="bc"><path d="M1.234-2.61c1.188-.265 2.532-.953 3-2.093.47 1.14 1.797 1.828 2.985 2.094l.218-.407c-1.359-.25-2.953-1.171-2.953-2.64v-.094H7.22v-.406H4.484v-1.188h-.5v1.188H1.25v.406h2.734v.094c0 1.468-1.593 2.39-2.953 2.64zm3.25 1.735v-2.031h-.5v2.031H.516v.422h7.437v-.422zm0 0"/></symbol><symbol overflow="visible" id="bd"><path d="M.844-6.469v.422H3.53C3.437-4.328 2.625-2.64.578-1.53l.297.375C3.235-2.47 4-4.484 4-6.47zm6.125-1.078v3.406h-1.36v-3.187h-.468V.203h.468v-3.922h1.36v4.36h.468v-8.188zm0 0"/></symbol><symbol overflow="visible" id="be"><path d="M2.766.125c.625 0 1.156-.266 1.578-.64l-.266-.376c-.328.297-.766.547-1.281.547-1.031 0-1.719-.86-1.719-2.11 0-1.265.75-2.124 1.734-2.124.454 0 .813.203 1.126.5l.296-.375c-.343-.297-.78-.594-1.437-.594-1.219 0-2.281.953-2.281 2.594 0 1.625.968 2.578 2.25 2.578zm0 0"/></symbol><symbol overflow="visible" id="bf"><path d="M2.375-1.703c-.766 0-1.281-.953-1.281-2.328s.515-2.344 1.281-2.344c.766 0 1.266.969 1.266 2.344s-.5 2.328-1.266 2.328zm3-2.563H4.109c-.062-1.562-.734-2.546-1.734-2.546-1.047 0-1.734 1.078-1.734 2.78 0 1.688.687 2.782 1.734 2.782 1.016 0 1.672-1 1.734-2.594h1.266V.203h.469v-7.562h-.469zm1.61-3.296V.64h.468v-8.204zm0 0"/></symbol><symbol overflow="visible" id="bg"><path d="M3.219-3.016h2.015v2.188H3.22zm-.14-3.296h2.28v2.875H3.08zm2.64 5.484v-2.188h1.5v-.421H5.844v-2.876h1.375v-.421h-6v.421h1.375v2.875h-1.36v.422h1.5v2.188H.531v.422H7.97v-.422zm0 0"/></symbol><symbol overflow="visible" id="bh"><path d="M4.719-4.938v.422h2v3.063h.484v-6.094H6.72v2.61zM1.062-6.905v.422h3.141C4.078-4.844 2.641-3.563.672-2.875l.219.39c2.28-.78 3.843-2.359 3.843-4.421zM2.625.03v-2.11h-.484V.439h5.28V.03zm0 0"/></symbol><symbol overflow="visible" id="bi"><path d="M1.344-1.453h5.172V.64h.5v-2.5H1.344zm.672-4.469h4.453v1.14H2.016zm2.468 2.703v-1.156h2.47v-3h-.485v1.063H2.016v-1.063H1.53v3h2.453v1.156H.516v.406h7.421v-.406zm0 0"/></symbol><symbol overflow="visible" id="bj"><path d="M5.188-6.625H3.108v-1.016h-.484v1.016H.531v.406h4.657zM1.5-4.156c0-.64.563-1.11 1.36-1.11.812 0 1.343.47 1.343 1.11 0 .64-.531 1.11-1.344 1.11-.796 0-1.359-.47-1.359-1.11zm3.188 0c0-.907-.75-1.5-1.829-1.5-1.078 0-1.812.593-1.812 1.5 0 .922.734 1.5 1.812 1.5 1.079 0 1.829-.578 1.829-1.5zm-2.891 2.75h4.922V.64h.484v-2.454H1.797zm4.922-6.157v2.125H5.125v.407h1.594v1.11h-1.61v.405h1.61v1.157h.484v-5.204zm0 0"/></symbol><symbol overflow="visible" id="bk"><path d="M5.125-5.5v.422h1.594v1.156h-1.61v.406h1.61v1.297h.484v-5.344H6.72V-5.5zm.063-1.063H3.108V-7.64h-.484v1.079H.531v.406h4.657zM1.5-4.124c0-.656.563-1.125 1.36-1.125.812 0 1.343.469 1.343 1.125s-.531 1.11-1.344 1.11c-.796 0-1.359-.454-1.359-1.11zm3.188 0c0-.922-.75-1.516-1.829-1.516-1.078 0-1.812.594-1.812 1.516 0 .906.734 1.516 1.812 1.516 1.079 0 1.829-.61 1.829-1.516zM4.563.235c-1.329 0-2.188-.376-2.188-.985 0-.625.86-1 2.188-1 1.343 0 2.203.375 2.203 1 0 .61-.86.984-2.204.984zm0-2.376c-1.688 0-2.688.5-2.688 1.391 0 .875 1 1.375 2.688 1.375 1.687 0 2.703-.5 2.703-1.375 0-.89-1.016-1.39-2.704-1.39zm0 0"/></symbol><symbol overflow="visible" id="bl"><path d="M1.188-4.25c1.187-.188 2.593-.797 3.046-1.766.438.97 1.844 1.579 3.047 1.766l.188-.406C6.203-4.828 4.53-5.563 4.53-6.672v-.078h2.735v-.406H1.203v.406h2.75v.078c0 1.11-1.687 1.844-2.953 2.016zM6.53-.797c0 .64-.89 1.031-2.297 1.031-1.406 0-2.296-.39-2.296-1.03 0-.641.89-1.016 2.296-1.016 1.407 0 2.297.375 2.297 1.015zM7.938-3.25v-.406H.516v.406h3.468v1.047c-1.609.047-2.546.547-2.546 1.406C1.438.125 2.484.625 4.233.625c1.735 0 2.782-.5 2.782-1.422 0-.86-.938-1.36-2.547-1.406V-3.25zm0 0"/></symbol><symbol overflow="visible" id="bm"><path d="M5.438-3.672c-1.141-.422-2.172-1.484-2.172-2.75v-.812H2.78v.812c0 1.313-.984 2.453-2.14 2.906l.25.391c.968-.406 1.812-1.234 2.14-2.281.36.984 1.203 1.75 2.156 2.125zm-2.97 1.719h4.25V.109h-4.25zM1.985.516h5.204V-2.36H1.984zm4.72-8.063v4.672h.484v-4.672zm0 0"/></symbol><symbol overflow="visible" id="bn"><path d="M6.719-5.719v1.266H4.562V-5.72zm-2.64 2.063H1.452v-1.547h2.625zm.484-.375h2.156v1.468h.484v-4.984H6.72v1.406H4.562v-.921h-.484v1.453H1.453v-1.454H.97v3.829h3.594zM4.546.219c-1.328 0-2.188-.406-2.188-1.094 0-.688.86-1.094 2.188-1.094 1.344 0 2.219.407 2.219 1.094 0 .688-.875 1.094-2.22 1.094zm0-2.594c-1.656 0-2.688.531-2.688 1.5 0 .953 1.032 1.5 2.688 1.5 1.672 0 2.687-.547 2.687-1.5 0-.969-1.015-1.5-2.687-1.5zm0 0"/></symbol><symbol overflow="visible" id="bo"><path d="M4.89-2.656v.39h1.735v.97h.5v-6.25h-.5v4.89zM3.157-6.812c.906 0 1.531.421 1.531 1.015 0 .625-.625 1.047-1.53 1.047-.907 0-1.532-.422-1.532-1.047 0-.594.625-1.016 1.531-1.016zm0 2.437c1.203 0 2-.547 2-1.422 0-.86-.797-1.39-2-1.39-1.203 0-2 .53-2 1.39 0 .875.797 1.422 2 1.422zM2.97-1.641h.5v-1.671c.781-.047 1.61-.11 2.39-.235l-.046-.36c-1.766.22-3.813.235-5.344.235l.078.438c.719 0 1.547 0 2.422-.047zM2.203.031v-1.953H1.72v2.36h5.61V.03zm0 0"/></symbol><symbol overflow="visible" id="bp"><path d="M3.11-6.813h-.485v1.657c0 1.468-1.094 3.047-2.188 3.61l.313.405c.89-.515 1.766-1.625 2.125-2.89.36 1.203 1.25 2.234 2.125 2.703l.313-.375C4.234-2.25 3.108-3.734 3.108-5.156zM8.202-4.14H6.766v-3.421h-.5V.64h.5v-4.36h1.437zm0 0"/></symbol><symbol overflow="visible" id="bq"><path d="M6.719.11H2.562v-1.235H6.72zm0-1.641H2.562V-2.72h-.484V.516h5.125V-2.72H6.72zM2.75-3.844c-.938 0-1.61-.625-1.61-1.453 0-.828.673-1.437 1.61-1.437.922 0 1.594.609 1.594 1.437 0 .828-.672 1.453-1.594 1.453zm3.969-3.703v2.031H4.812c-.125-1-.937-1.64-2.062-1.64-1.219 0-2.078.75-2.078 1.86 0 1.109.86 1.874 2.078 1.874 1.14 0 1.953-.672 2.063-1.672h1.906v1.938h.484v-4.39zm0 0"/></symbol><symbol overflow="visible" id="br"><path d="M5.344-3.844c-1.172.235-2.157.281-3.797.281h-.11v-2.843h3.11v-.422H.937v3.703h.61c1.672 0 2.656-.063 3.86-.297zM2.328-2.188h-.484V.438H7.25V.03H2.328zm4.516-2.828v-2.562h-.485v5.969h.485v-2.985h1.281v-.422zm0 0"/></symbol><symbol overflow="visible" id="bs"><path d="M1.14-4.281c1.235-.125 2.626-.594 3.094-1.485.47.891 1.844 1.36 3.094 1.485l.156-.39c-1.343-.126-2.937-.673-3-1.735h2.672v-.39H4.484v-.845h-.5v.844H1.328v.39h2.64C3.923-5.343 2.314-4.796.985-4.671zm6.798.86v-.392H.53v.391h3.453v.906h-2.53v.375h5.015v.907h-5V.53h5.75V.125H1.953v-.984h5v-1.657H4.47v-.906zm0 0"/></symbol><symbol overflow="visible" id="bt"><path d="M2.453-1.938h4.281V.11h-4.28zM1.97.517h5.234v-2.86H1.97zm2.11-4.25H1.452v-1.532h2.625zm2.64-3.829v2.172H4.562v-1.703h-.484v1.422H1.453v-1.437H.97v3.78h3.594v-1.655h2.156v2.187h.484v-4.75zm0 0"/></symbol><symbol overflow="visible" id="bv"><path d="M.906-6.906v.422H4.11C3.984-4.891 2.625-3.672.58-3.031l.202.406c2.344-.719 3.86-2.25 3.86-4.281zM4.296.219c-1.28 0-2.124-.453-2.124-1.14 0-.688.844-1.126 2.125-1.126 1.312 0 2.156.438 2.156 1.125 0 .688-.844 1.14-2.156 1.14zm0-2.672c-1.593 0-2.609.562-2.609 1.531C1.688.047 2.704.61 4.297.61c1.625 0 2.64-.562 2.64-1.53 0-.97-1.015-1.532-2.64-1.532zm2.548-2.86v-2.234h-.485v4.984h.485V-4.89h1.281v-.421zm0 0"/></symbol><symbol overflow="visible" id="bw"><path d="M4.219-6.906c1.375 0 2.328.484 2.328 1.187 0 .719-.953 1.188-2.328 1.188S1.906-5 1.906-5.72c0-.703.938-1.187 2.313-1.187zm0 2.797c1.718 0 2.843-.61 2.843-1.61S5.938-7.312 4.22-7.312c-1.703 0-2.813.593-2.813 1.593s1.11 1.61 2.813 1.61zM1.953-1.797H1.47V.437h5.687V.031H1.953zM.531-3.375v.422h2.61v1.86h.484v-1.86h1.828v1.86h.5v-1.86h1.984v-.422zm0 0"/></symbol><symbol overflow="visible" id="bx"><path d="M5.469-6.672h-2.14v-.906h-.485v.906H.719v.39h4.75zM1.687-4.609c0-.532.563-.875 1.391-.875.844 0 1.406.343 1.406.875 0 .53-.562.89-1.406.89-.828 0-1.39-.36-1.39-.89zm4.047 1.734c-.75.11-1.593.172-2.406.219v-.703c.985-.063 1.61-.516 1.61-1.25 0-.782-.735-1.25-1.86-1.25s-1.86.468-1.86 1.25c0 .734.641 1.187 1.626 1.25v.734c-.844.016-1.656.031-2.328.031l.062.422c1.438 0 3.438-.031 5.188-.344zM2.266-1.562h-.5v2h5.328V.03H2.266zM6.78-4.595v-2.953h-.484v6.406h.484v-3.03h1.313v-.423zm0 0"/></symbol><symbol overflow="visible" id="by"><path d="M6.469-4.484H2.016v-1.25h4.453zm.484-2.813H6.47v1.156H2.016v-1.156H1.53v3.219h5.422zM1.984-1.766H1.5V.438h5.625V.03h-5.14zM.516-3.14v.407h3.5V-.97H4.5v-1.765h3.453v-.407zm0 0"/></symbol><symbol overflow="visible" id="bz"><path d="M5.547-4.563c-1.14-.296-2.11-1.078-2.11-2.093v-.547h-.484v.547c0 1.093-1 1.968-2.156 2.312l.265.39c.954-.312 1.797-.952 2.141-1.843.36.797 1.156 1.36 2.094 1.625zm.469 1.204c-1.829.25-3.938.28-5.532.28l.079.423c.734 0 1.578 0 2.453-.047V.39h.5v-3.11c.828-.047 1.703-.14 2.546-.265zm.656-4.188V.656h.484v-8.203zm0 0"/></symbol><symbol overflow="visible" id="bA"><path d="M5.281-3.781c-1.093-.39-2.062-1.36-2.062-2.422v-.406h1.937v-.407H.796v.407h1.938v.406c0 1.156-1 2.219-2.109 2.625l.25.39c.953-.374 1.781-1.14 2.11-2.109.343.875 1.14 1.563 2.062 1.906zM2.016-1h2.093v-1.781H1.531v.406h2.11v.984H1.547V.563h.406C3 .563 3.578.546 4.375.405l-.047-.39c-.75.125-1.312.14-2.312.14zm3.093-1.39H6.75V.202H5.11zM4.672.593h2.516v-3.375H4.671zm2.031-8.156v2H4.86v.406h1.844v1.937h.484v-4.344zm0 0"/></symbol><symbol overflow="visible" id="bB"><path d="M4.234-6.86c1.407 0 2.329.47 2.329 1.204S5.64-4.453 4.233-4.453c-1.406 0-2.343-.469-2.343-1.203 0-.735.937-1.203 2.343-1.203zm0 2.813c1.735 0 2.829-.594 2.829-1.61 0-1.015-1.094-1.609-2.829-1.609-1.75 0-2.843.594-2.843 1.61 0 1.015 1.093 1.61 2.843 1.61zM2-1.937h-.484V.438h5.609V.03H2zM.516-3.173v.422h7.421v-.422zm0 0"/></symbol><symbol overflow="visible" id="bC"><path d="M3.14-6.266h1.922v-.421H.688v.421h1.97v1.375c0 1.422-1.173 3-2.235 3.532l.297.406c.89-.485 1.828-1.61 2.187-2.86.36 1.157 1.235 2.188 2.125 2.657l.282-.39c-1.079-.532-2.172-2-2.172-3.345zM8.204-4.14H6.766v-3.406h-.5V.641h.5v-4.36h1.437zm0 0"/></symbol><symbol overflow="visible" id="bD"><path d="M6.703-7.547v4.719h.484v-4.719zM1.984-2.359V.516h5.204V-2.36zm4.735.406V.109h-4.25v-2.062zm-3.89-5.14c-1.22 0-2.079.765-2.079 1.89s.86 1.875 2.078 1.875c1.219 0 2.078-.75 2.078-1.875s-.86-1.89-2.078-1.89zm0 .421c.937 0 1.608.61 1.608 1.469 0 .844-.671 1.469-1.609 1.469-.937 0-1.594-.625-1.594-1.47 0-.859.657-1.468 1.594-1.468zm0 0"/></symbol><symbol overflow="visible" id="bE"><path d="M6.5-4.781H1.969v-1.953H6.5zm.469-2.36H1.5v2.766h5.469zM2-1.89h-.5V.438h5.625V.03H2zM.516-3.28v.406h3.5v1.828H4.5v-1.828h3.453v-.406zm0 0"/></symbol><symbol overflow="visible" id="bF"><path d="M5.125-5.297v.422h1.594v1.297H5.125v.406h1.594v1.875h.484v-6.25H6.72v2.25zm.063-1.172H3.108v-1.078h-.484v1.078H.531v.407h4.657zm-3.672 2.5c0-.672.546-1.14 1.343-1.14.813 0 1.344.468 1.344 1.14 0 .672-.531 1.14-1.344 1.14-.796 0-1.343-.468-1.343-1.14zm3.171 0c0-.937-.75-1.547-1.828-1.547s-1.812.61-1.812 1.547c0 .938.734 1.547 1.812 1.547 1.079 0 1.829-.61 1.829-1.547zm-2.171 4v-1.875H2.03V.438h5.375V.03zm0 0"/></symbol><symbol overflow="visible" id="bH"><path d="M7.969-3.734v-.422h-1.25c.218-1.032.218-1.813.218-2.422v-.563H1.484v.407H6.47v.156c0 .61 0 1.375-.25 2.422H.516v.422h3.468v1.703H1.313v.422H6.53V.64h.5v-2.672H4.484v-1.703zm0 0"/></symbol><symbol overflow="visible" id="bI"><path d="M.984-6.656v.422h3.22c-.126 2-1.345 3.75-3.563 4.843L.92-1c2.61-1.297 3.766-3.406 3.766-5.656zm7.204 2.531H6.766v-3.422h-.5V.641h.5v-4.329h1.421zm0 0"/></symbol><symbol overflow="visible" id="bJ"><path d="M7.188-7.563h-.5v4.297h.5zm-1.75 3.61c-1.141-.422-2.172-1.469-2.172-2.719v-.625H2.78v.625c0 1.313-1 2.438-2.14 2.875l.25.406c.968-.406 1.812-1.218 2.14-2.265.36.968 1.203 1.734 2.156 2.093zM2.5.125v-1.11h4.688v-1.828H1.984v.407H6.72v1.031H2.016V.531h5.5V.125zm0 0"/></symbol><symbol overflow="visible" id="bK"><path d="M1.328-6.156h2.125v4.11H1.328zM.86-1.641h3.063v-4.906H.859zm6.125-5.906v3.313H5.61v-3.11h-.468V.22h.468v-4.032h1.375V.641h.47v-8.188zm0 0"/></symbol><symbol overflow="visible" id="bL"><path d="M5.469-3.39c-1.14-.391-2.157-1.391-2.157-2.579v-.547h2v-.406h-4.5v.406h2.016v.547c0 1.25-1 2.313-2.14 2.735l.25.39C1.905-3.219 2.75-4 3.078-5.03 3.422-4.078 4.281-3.344 5.234-3zM1.78-1.704h4.922V.64h.484v-2.75H1.782zm4.922-5.844v4.969h.484v-4.969zm0 0"/></symbol><symbol overflow="visible" id="bM"><path d="M7.39-7.547h-.468v4.422h.469zM5.345-3.219h.468v-4.156h-.468v1.531H3.875v.407h1.469zm-.782-.672c-1-.39-1.703-1.343-1.703-2.234v-1.063h-.484v1.016c0 .938-.75 2.078-1.781 2.531l.281.375c.813-.375 1.453-1.14 1.734-2A3.07 3.07 0 0 0 4.297-3.5zM2.579.125V-.953h4.813v-1.75H2.094v.406h4.828v.953H2.109V.531h5.625V.125zm0 0"/></symbol><symbol overflow="visible" id="bO"><path d="M2.016-2.234H1.53V.437h5.672V.017H2.016zm4.703-1.47c.234-1.202.234-2.062.234-2.765v-.593H1.484v.421H6.47v.172c0 .703 0 1.563-.25 2.766H.516v.422h7.437v-.422zm0 0"/></symbol><symbol overflow="visible" id="bP"><path d="M6.719-5.5v1.297H4.344v.422h2.375v1.25h.484v-5.016H6.72v1.625H4.594c.093-.297.14-.64.14-.969H1.063v.407h3.14C4.078-4.891 2.656-3.672.656-3.031l.219.406C2.594-3.172 3.906-4.172 4.453-5.5zM4.579.219c-1.345 0-2.22-.453-2.22-1.14 0-.688.875-1.126 2.22-1.126 1.312 0 2.187.438 2.187 1.125 0 .688-.875 1.14-2.188 1.14zm0-2.656c-1.673 0-2.688.562-2.688 1.515C1.89.047 2.906.61 4.578.61c1.64 0 2.656-.562 2.656-1.53 0-.954-1.015-1.516-2.656-1.516zm0 0"/></symbol><symbol overflow="visible" id="bQ"><path d="M4.594-3.531C3.578-3.937 2.859-4.906 2.859-5.86v-1.188h-.484v1.188c0 .937-.734 2.062-1.781 2.53l.281.376c.828-.375 1.469-1.156 1.75-1.985.281.782.89 1.438 1.719 1.782zM1.969-1.687H6.89V.64h.5v-2.75H1.969zm4.953-5.86v2.219H5.625v-2.078h-.469v4.75h.469v-2.25h1.297v2.297h.469v-4.938zm0 0"/></symbol><symbol overflow="visible" id="bR"><path d="M1.188-4.188c1.187-.187 2.609-.796 3.046-1.765.438.969 1.844 1.578 3.047 1.766l.188-.407C6.203-4.75 4.53-5.5 4.53-6.609v-.094h2.735v-.406H1.203v.406h2.75v.094C3.953-5.5 2.266-4.75 1-4.594zM4.233.22c-1.406 0-2.296-.39-2.296-1.063 0-.656.89-1.062 2.296-1.062 1.407 0 2.297.406 2.297 1.062 0 .672-.89 1.063-2.297 1.063zm0-2.531c-1.734 0-2.796.53-2.796 1.468C1.438.11 2.5.625 4.233.625 5.97.625 7.016.109 7.016-.844c0-.937-1.047-1.469-2.782-1.469zM.516-3.579v.406h7.421v-.406zm0 0"/></symbol><symbol overflow="visible" id="bS"><path d="M3.266-6.797H2.78v1.64c0 1.532-1.187 3.095-2.265 3.641l.312.391C1.734-1.609 2.656-2.719 3.031-4c.375 1.234 1.313 2.281 2.203 2.75l.313-.39c-1.094-.516-2.281-2.032-2.281-3.516zm3.421-.75V.656h.485v-8.203zm0 0"/></symbol><symbol overflow="visible" id="bT"><path d="M5.203-3.39C4.078-3.798 3.156-4.813 3.156-5.97v-.547h1.938v-.406H.719v.406h1.953v.547c0 1.266-.985 2.328-2.125 2.75l.25.39c.969-.374 1.781-1.155 2.125-2.155.344.906 1.11 1.625 2.031 1.984zm-3.61 1.656H6.36V.64h.485v-2.782h-5.25zm6.532-3.563H6.844v-2.25h-.485v4.922h.485v-2.25h1.281zm0 0"/></symbol><symbol overflow="visible" id="bU"><path d="M2.094 0h.703v-13.781h-.703zm0 0"/></symbol><symbol overflow="visible" id="bV"><path d="M.828-6.89h4.547v-.673H.828zm0 0"/></symbol><symbol overflow="visible" id="bW"><path d="M.875 0h8.063v-.625H4.266c-.735 0-1.5.031-2.25.094C6-4.22 8.266-7.141 8.266-10.156c0-2.328-1.36-3.875-3.688-3.875-1.61 0-2.781.875-3.75 1.953l.485.437c.828-1.046 1.968-1.765 3.203-1.765 2.109 0 3.015 1.469 3.015 3.25 0 2.594-1.765 5.531-6.656 9.719zm0 0"/></symbol><symbol overflow="visible" id="bX"><path d="M2.203-.688c.36 0 .766-.28.766-.812 0-.547-.406-.86-.766-.86-.406 0-.781.313-.781.86 0 .531.375.813.781.813zm0 0"/></symbol><symbol overflow="visible" id="bZ"><path d="M6.531-13.875h-.625v3.578c0 3.031-2.531 6.235-4.578 7.36l.422.484C3.516-3.5 5.578-5.97 6.234-8.625 6.906-6.094 9-3.765 10.828-2.75l.36-.531C9.124-4.344 6.53-7.391 6.53-10.297zm7.485-1.61v6.141H9.422v.547h4.594V1.266h.625v-16.75zm0 0"/></symbol><symbol overflow="visible" id="ca"><path d="M8.672-14.688c3.078 0 5.094.922 5.094 2.391 0 1.469-2.016 2.406-5.094 2.406-3.047 0-5.078-.937-5.078-2.406s2.031-2.39 5.078-2.39zm0 5.344c3.578 0 5.719-1.062 5.719-2.953 0-1.89-2.141-2.953-5.72-2.953-3.562 0-5.702 1.063-5.702 2.953s2.14 2.953 5.703 2.953zm7.578 2.031v-.562H1.125v.563h7.25v2.03H3.062v.548h10.532v2.14H3.109V1h11.657V.437H3.719v-2.484h10.484V-5.28H9v-2.032zm0 0"/></symbol><symbol overflow="visible" id="cb"><path d="M2.484-3.797v-8.984h5.657v-.563H1.859v10.11h1c2.938 0 4.5-.094 6.485-.547l-.125-.563c-1.875.453-3.469.547-6.375.547zm12.063-11.672v6.985h-3.235v-6.532h-.624V.344h.624v-8.266h3.235v9.188h.625V-15.47zm0 0"/></symbol><symbol overflow="visible" id="cc"><path d="M11.14-13.406H6.5v-2.156h-.64v2.156H1.218v.578h9.922zm-8.296 4.75c0-1.406 1.328-2.406 3.328-2.406 1.969 0 3.297 1 3.297 2.406 0 1.39-1.328 2.39-3.297 2.39-2 0-3.328-1-3.328-2.39zm7.219 0c0-1.828-1.532-2.969-3.891-2.969-2.375 0-3.906 1.14-3.906 2.969 0 1.797 1.53 2.937 3.906 2.937 2.36 0 3.89-1.14 3.89-2.937zM3.359-3.344h9.954v4.61h.624v-5.172H3.36zm13.313-7.219h-2.735v-4.906h-.624v10.422h.624v-4.922h2.735zm0 0"/></symbol><symbol overflow="visible" id="cd"><path d="M13.453-11.484c0 2.203 0 4.265-.594 7.015l.625.125c.579-2.843.579-4.875.579-7.14v-2.047H2.796v.562h10.656zM10.156-2v-5.781h-.625V-2H6.016v-5.781H5.39V-2H1.125v.578H16.25V-2zm0 0"/></symbol><symbol overflow="visible" id="ce"><path d="M14.031-11.89v2.874H9.266v-2.875zm-5.39 4.578H2.703v-3.438h5.938zm.625-1.141h4.765v3.234h.625v-10.25h-.625v3.016H9.266v-2H8.64v3.14H2.703v-3.14h-.64v7.719h7.203zM9.328.64C6.438.64 4.5-.33 4.5-1.797c0-1.5 1.938-2.469 4.828-2.469 2.86 0 4.797.97 4.797 2.47C14.125-.329 12.187.64 9.328.64zm0-5.47c-3.39 0-5.437 1.11-5.437 3.032 0 1.89 2.046 3 5.437 3 3.36 0 5.406-1.11 5.406-3 0-1.922-2.046-3.031-5.406-3.031zm0 0"/></symbol><symbol overflow="visible" id="cf"><path d="M10.14-5.406v.562h3.657v2.14h.625v-12.75h-.625v10.048zm-3.624-8.75c2.03 0 3.453.984 3.453 2.312 0 1.344-1.422 2.313-3.453 2.313-2.032 0-3.454-.969-3.454-2.313 0-1.328 1.422-2.312 3.454-2.312zm0 5.156c2.421 0 4.062-1.094 4.062-2.844 0-1.734-1.64-2.844-4.062-2.844-2.454 0-4.063 1.11-4.063 2.844C2.453-10.094 4.063-9 6.516-9zM6.28-3.437h.625v-3.454c1.719-.093 3.453-.234 5.125-.5l-.078-.484C8.36-7.422 4.141-7.391 1-7.391l.125.61c1.516 0 3.313 0 5.156-.094zM4.297.25v-4.219h-.64V.812H14.89V.25zm0 0"/></symbol><symbol overflow="visible" id="cg"><path d="M11.094-7.313C8.859-8.188 6.53-10.421 6.53-13.14v-1.64h-.593v1.64c0 2.844-2.25 5.25-4.47 6.172l.329.516c1.937-.875 3.828-2.672 4.453-5.016.672 2.188 2.578 3.86 4.469 4.656zM4.78-4.203h9.266v4.64H4.78zM4.171 1h10.485v-5.75H4.172zm9.86-16.469v9.563h.625v-9.563zm0 0"/></symbol><symbol overflow="visible" id="ch"><path d="M10.5-11.313v.563h3.516v2.36H10.5v.562h3.516v1.812h.625v-9.468h-.625v4.171zm.188-2.406H6.25v-2.031h-.625v2.031h-4.5v.563h9.563zM2.859-9.125c0-1.375 1.22-2.328 3.063-2.328 1.812 0 3.016.953 3.016 2.328 0 1.328-1.204 2.297-3.016 2.297-1.844 0-3.063-.969-3.063-2.297zm6.688 0C9.547-10.922 8.094-12 5.922-12c-2.203 0-3.656 1.078-3.656 2.875 0 1.734 1.453 2.828 3.656 2.828 2.172 0 3.625-1.094 3.625-2.828zM4.828.438V-1.86h9.813v-3.11H4.156v.547h9.875v2.016H4.22V1h10.953V.437zm0 0"/></symbol><symbol overflow="visible" id="ci"><path d="M9.61-13.39c0 1.015 0 2.609-.516 4.968l.64.047c.485-2.313.485-4 .485-5.016v-.718H2.203v.578H9.61zm2.218 6.343c-1.906.266-3.984.406-6 .484v-3.968h-.625v3.984c-1.469.031-2.844.047-4.062.047l.109.61c3 0 7.14-.094 10.64-.641zm-7.39 3.078h-.625V.812h10.546V.25H4.438zm9.359-5.719v-5.796h-.625v12.687h.625v-6.312h2.812v-.579zm0 0"/></symbol><symbol overflow="visible" id="cj"><path d="M2.047-10.297c0-1.922 1.515-3.469 3.594-3.469 2.046 0 3.578 1.547 3.578 3.47 0 1.968-1.531 3.5-3.578 3.5-2.079 0-3.594-1.532-3.594-3.5zM14.03-12v3.375H9.516a4.367 4.367 0 0 0 .312-1.672c0-.625-.125-1.187-.344-1.703zm0 3.953v5.078h.625v-12.5h-.625v2.906h-4.86c-.702-1.093-2-1.765-3.53-1.765-2.454 0-4.204 1.64-4.204 4.031 0 2.422 1.75 4.047 4.204 4.047 1.546 0 2.859-.672 3.562-1.797zM4.953.25v-4.563h-.625V.813h10.875V.25zm0 0"/></symbol><symbol overflow="visible" id="ck"><path d="M16.25-7.031h-2.734c.515-2.453.515-4.219.515-5.828v-1.422H3.187v.578h10.235v.844c0 1.609 0 3.39-.563 5.828H1.141v.578h7.25v7.75h.625v-7.75h7.234zm0 0"/></symbol><symbol overflow="visible" id="cl"><path d="M11.047-7.734c-2.485.5-4.547.609-7.797.609h-.594v-6.234h6.688v-.579H2.03v7.407H3.25c3.281 0 5.328-.125 7.906-.625zM4.5-4.5h-.625V.813h10.969V.25H4.5zm9.438-5.594v-5.422h-.626v12.172h.626V-9.53h2.75v-.563zm0 0"/></symbol><symbol overflow="visible" id="cm"><path d="M10.688-13.453H6.25v-2.188h-.625v2.188h-4.5v.562h9.563zm-7.829 4.89c0-1.437 1.22-2.5 3.063-2.5 1.812 0 3.016 1.063 3.016 2.5 0 1.438-1.204 2.5-3.016 2.5-1.844 0-3.063-1.062-3.063-2.5zm6.688 0c0-1.859-1.453-3.062-3.625-3.062-2.203 0-3.656 1.203-3.656 3.063 0 1.859 1.453 3.062 3.656 3.062 2.172 0 3.625-1.203 3.625-3.063zM3.719-3.109H14.03v4.375h.625v-4.954H3.72zM14.03-15.484v4.5H10.5v.562h3.531v2.485H10.5v.578h3.531v2.5h.625v-10.625zm0 0"/></symbol></defs><g fill="#898989"><use xlink:href="#a" x="28.312" y="819.169"/><use xlink:href="#b" x="32.038" y="819.169"/></g><g fill="#898989"><use xlink:href="#c" x="36.354" y="819.169"/><use xlink:href="#c" x="38.444" y="819.169"/></g><g fill="#595757"><use xlink:href="#d" x="538.046" y="818.993"/><use xlink:href="#d" x="539.556" y="818.993"/><use xlink:href="#e" x="541.067" y="818.993"/><use xlink:href="#f" x="542.451" y="818.993"/><use xlink:href="#g" x="544.009" y="818.993"/><use xlink:href="#h" x="549.402" y="818.993"/></g><g fill="#fff"><use xlink:href="#i" x="41.418" y="144.586"/><use xlink:href="#j" x="50.857" y="144.586"/></g><g fill="#fff"><use xlink:href="#k" x="304.721" y="144.586"/><use xlink:href="#l" x="314.16" y="144.586"/></g><g fill="#0c3388"><use xlink:href="#m" x="36.198" y="179.502"/><use xlink:href="#n" x="41.455" y="179.502"/><use xlink:href="#o" x="46.712" y="179.502"/><use xlink:href="#n" x="51.969" y="179.502"/><use xlink:href="#p" x="57.226" y="179.502"/></g><use xlink:href="#q" x="82.106" y="179.502"/><use xlink:href="#r" x="84.85" y="179.502"/><use xlink:href="#s" x="87.252" y="179.502"/><use xlink:href="#t" x="95.567" y="179.502"/><use xlink:href="#u" x="103.881" y="179.502"/><use xlink:href="#v" x="112.196" y="179.502"/><use xlink:href="#w" x="120.511" y="179.502"/><use xlink:href="#x" x="128.826" y="179.502"/><use xlink:href="#y" x="137.141" y="179.502"/><use xlink:href="#z" x="145.456" y="179.502"/><use xlink:href="#A" x="153.771" y="179.502"/><use xlink:href="#r" x="162.086" y="179.502"/><use xlink:href="#B" x="164.488" y="179.502"/><use xlink:href="#u" x="172.803" y="179.502"/><use xlink:href="#C" x="181.118" y="179.502"/><use xlink:href="#D" x="189.432" y="179.502"/><use xlink:href="#r" x="197.747" y="179.502"/><use xlink:href="#E" x="200.149" y="179.502"/><use xlink:href="#F" x="208.464" y="179.502"/><use xlink:href="#r" x="216.779" y="179.502"/><use xlink:href="#G" x="219.181" y="179.502"/><use xlink:href="#H" x="227.496" y="179.502"/><use xlink:href="#I" x="235.811" y="179.502"/><use xlink:href="#r" x="244.126" y="179.502"/><use xlink:href="#J" x="246.528" y="179.502"/><use xlink:href="#w" x="254.843" y="179.502"/><g fill="#0c3388"><use xlink:href="#m" x="36.198" y="230.463"/><use xlink:href="#n" x="41.455" y="230.463"/><use xlink:href="#n" x="46.712" y="230.463"/><use xlink:href="#K" x="51.969" y="230.463"/><use xlink:href="#p" x="57.226" y="230.463"/></g><g><use xlink:href="#q" x="82.106" y="230.463"/><use xlink:href="#r" x="84.85" y="230.463"/><use xlink:href="#s" x="87.252" y="230.463"/><use xlink:href="#t" x="95.567" y="230.463"/><use xlink:href="#u" x="103.881" y="230.463"/><use xlink:href="#v" x="112.196" y="230.463"/><use xlink:href="#A" x="120.511" y="230.463"/><use xlink:href="#L" x="128.826" y="230.463"/><use xlink:href="#w" x="137.141" y="230.463"/><use xlink:href="#r" x="145.456" y="230.463"/><use xlink:href="#M" x="147.858" y="230.463"/><use xlink:href="#N" x="155.591" y="230.463"/><use xlink:href="#O" x="160.894" y="230.463"/><use xlink:href="#P" x="164.026" y="230.463"/><use xlink:href="#Q" x="166.308" y="230.463"/><use xlink:href="#R" x="171.712" y="230.463"/><use xlink:href="#S" x="174.613" y="230.463"/><use xlink:href="#P" x="180.221" y="230.463"/><use xlink:href="#T" x="182.503" y="230.463"/><use xlink:href="#U" x="187.372" y="230.463"/><use xlink:href="#U" x="191.363" y="230.463"/><use xlink:href="#r" x="195.354" y="230.463"/><use xlink:href="#V" x="197.757" y="230.463"/><use xlink:href="#W" x="204.085" y="230.463"/><use xlink:href="#X" x="209.379" y="230.463"/><use xlink:href="#Y" x="211.568" y="230.463"/><use xlink:href="#Z" x="215.901" y="230.463"/><use xlink:href="#O" x="220.687" y="230.463"/><use xlink:href="#U" x="223.819" y="230.463"/><use xlink:href="#X" x="227.81" y="230.463"/><use xlink:href="#aa" x="230" y="230.463"/><use xlink:href="#ab" x="233.067" y="230.463"/><use xlink:href="#r" x="237.409" y="230.463"/><use xlink:href="#ac" x="239.811" y="230.463"/><use xlink:href="#ad" x="248.126" y="230.463"/><use xlink:href="#ae" x="256.441" y="230.463"/><use xlink:href="#af" x="264.756" y="230.463"/><use xlink:href="#r" x="273.071" y="230.463"/><use xlink:href="#J" x="275.473" y="230.463"/><use xlink:href="#w" x="283.788" y="230.463"/><use xlink:href="#ag" x="292.103" y="230.463"/><use xlink:href="#r" x="294.237" y="230.463"/><use xlink:href="#ah" x="296.639" y="230.463"/><use xlink:href="#ah" x="303.725" y="230.463"/><use xlink:href="#ai" x="310.811" y="230.463"/></g><g><use xlink:href="#aj" x="316.438" y="230.463"/><use xlink:href="#r" x="321.611" y="230.463"/><use xlink:href="#t" x="324.013" y="230.463"/><use xlink:href="#s" x="332.328" y="230.463"/><use xlink:href="#r" x="340.643" y="230.463"/><use xlink:href="#ak" x="343.045" y="230.463"/><use xlink:href="#al" x="351.36" y="230.463"/></g><g fill="#0c3388"><use xlink:href="#m" x="36.198" y="281.424"/><use xlink:href="#n" x="41.455" y="281.424"/><use xlink:href="#n" x="46.712" y="281.424"/><use xlink:href="#am" x="51.969" y="281.424"/><use xlink:href="#p" x="57.226" y="281.424"/></g><g><use xlink:href="#q" x="82.106" y="273.931"/><use xlink:href="#r" x="84.85" y="273.931"/><use xlink:href="#an" x="87.252" y="273.931"/></g><g><use xlink:href="#ao" x="91.668" y="273.931"/><use xlink:href="#r" x="97.701" y="273.931"/><use xlink:href="#ap" x="100.103" y="273.931"/><use xlink:href="#aq" x="108.418" y="273.931"/><use xlink:href="#s" x="116.733" y="273.931"/><use xlink:href="#t" x="125.047" y="273.931"/><use xlink:href="#s" x="133.362" y="273.931"/><use xlink:href="#r" x="141.677" y="273.931"/><use xlink:href="#C" x="144.079" y="273.931"/><use xlink:href="#D" x="152.394" y="273.931"/><use xlink:href="#ar" x="160.709" y="273.931"/><use xlink:href="#as" x="169.024" y="273.931"/><use xlink:href="#at" x="177.339" y="273.931"/><use xlink:href="#r" x="185.654" y="273.931"/><use xlink:href="#au" x="188.056" y="273.931"/><use xlink:href="#av" x="196.371" y="273.931"/><use xlink:href="#r" x="204.686" y="273.931"/><use xlink:href="#G" x="207.088" y="273.931"/><use xlink:href="#H" x="215.403" y="273.931"/><use xlink:href="#r" x="223.717" y="273.931"/><use xlink:href="#aw" x="226.12" y="273.931"/><use xlink:href="#r" x="234.434" y="273.931"/><use xlink:href="#ax" x="236.836" y="273.931"/><use xlink:href="#ay" x="245.151" y="273.931"/><use xlink:href="#az" x="253.466" y="273.931"/><use xlink:href="#r" x="261.781" y="273.931"/><use xlink:href="#s" x="264.183" y="273.931"/><use xlink:href="#at" x="272.498" y="273.931"/><use xlink:href="#r" x="280.813" y="273.931"/><use xlink:href="#aA" x="283.215" y="273.931"/><use xlink:href="#aB" x="291.53" y="273.931"/><use xlink:href="#r" x="299.845" y="273.931"/><use xlink:href="#aC" x="302.247" y="273.931"/><use xlink:href="#ah" x="304.963" y="273.931"/><use xlink:href="#aD" x="312.049" y="273.931"/><use xlink:href="#V" x="318.572" y="273.931"/><use xlink:href="#aE" x="324.9" y="273.931"/><use xlink:href="#r" x="327.617" y="273.931"/><use xlink:href="#aF" x="330.019" y="273.931"/><use xlink:href="#aG" x="338.334" y="273.931"/><use xlink:href="#r" x="346.648" y="273.931"/></g><g><use xlink:href="#q" x="82.106" y="288.917"/><use xlink:href="#r" x="84.85" y="288.917"/><use xlink:href="#at" x="87.252" y="288.917"/><use xlink:href="#aH" x="95.567" y="288.917"/><use xlink:href="#aI" x="100.325" y="288.917"/><use xlink:href="#r" x="108.639" y="288.917"/><use xlink:href="#aJ" x="111.041" y="288.917"/><use xlink:href="#aK" x="119.356" y="288.917"/><use xlink:href="#aL" x="127.671" y="288.917"/><use xlink:href="#t" x="135.986" y="288.917"/><use xlink:href="#ax" x="144.301" y="288.917"/><use xlink:href="#r" x="152.616" y="288.917"/><use xlink:href="#aM" x="155.018" y="288.917"/><use xlink:href="#ax" x="163.333" y="288.917"/><use xlink:href="#r" x="171.648" y="288.917"/><use xlink:href="#aN" x="174.05" y="288.917"/><use xlink:href="#ax" x="182.365" y="288.917"/><use xlink:href="#aO" x="190.68" y="288.917"/><use xlink:href="#r" x="192.814" y="288.917"/><use xlink:href="#aP" x="195.216" y="288.917"/><use xlink:href="#aQ" x="203.531" y="288.917"/><use xlink:href="#aN" x="211.846" y="288.917"/><use xlink:href="#r" x="220.161" y="288.917"/><use xlink:href="#aR" x="222.563" y="288.917"/><use xlink:href="#aN" x="230.877" y="288.917"/></g><g fill="#0c3388"><use xlink:href="#m" x="36.198" y="332.385"/><use xlink:href="#n" x="41.455" y="332.385"/><use xlink:href="#n" x="46.712" y="332.385"/><use xlink:href="#aS" x="51.969" y="332.385"/><use xlink:href="#p" x="57.226" y="332.385"/></g><g><use xlink:href="#q" x="82.106" y="324.892"/><use xlink:href="#r" x="84.85" y="324.892"/><use xlink:href="#aT" x="87.252" y="324.892"/><use xlink:href="#av" x="95.567" y="324.892"/><use xlink:href="#aU" x="103.881" y="324.892"/><use xlink:href="#aV" x="112.196" y="324.892"/><use xlink:href="#aW" x="120.511" y="324.892"/><use xlink:href="#aX" x="128.826" y="324.892"/><use xlink:href="#r" x="137.141" y="324.892"/><use xlink:href="#aY" x="139.543" y="324.892"/><use xlink:href="#aA" x="147.858" y="324.892"/><use xlink:href="#aZ" x="156.173" y="324.892"/><use xlink:href="#L" x="164.488" y="324.892"/><use xlink:href="#ba" x="172.803" y="324.892"/><use xlink:href="#r" x="181.118" y="324.892"/><use xlink:href="#bb" x="183.52" y="324.892"/><use xlink:href="#bc" x="191.834" y="324.892"/><use xlink:href="#bd" x="200.149" y="324.892"/><use xlink:href="#aA" x="208.464" y="324.892"/><use xlink:href="#r" x="216.779" y="324.892"/><use xlink:href="#an" x="219.181" y="324.892"/><use xlink:href="#T" x="223.819" y="324.892"/><use xlink:href="#W" x="228.688" y="324.892"/><use xlink:href="#be" x="233.982" y="324.892"/></g><g><use xlink:href="#Z" x="238.213" y="324.892"/></g><g><use xlink:href="#aa" x="242.897" y="324.892"/><use xlink:href="#L" x="245.964" y="324.892"/><use xlink:href="#bf" x="254.279" y="324.892"/><use xlink:href="#r" x="262.594" y="324.892"/><use xlink:href="#aA" x="264.996" y="324.892"/><use xlink:href="#bg" x="273.311" y="324.892"/><use xlink:href="#r" x="281.626" y="324.892"/></g><g><use xlink:href="#q" x="82.106" y="339.878"/><use xlink:href="#r" x="84.85" y="339.878"/><use xlink:href="#x" x="87.252" y="339.878"/><use xlink:href="#bh" x="95.567" y="339.878"/><use xlink:href="#bi" x="103.881" y="339.878"/><use xlink:href="#L" x="112.196" y="339.878"/><use xlink:href="#A" x="120.511" y="339.878"/><use xlink:href="#L" x="128.826" y="339.878"/><use xlink:href="#w" x="137.141" y="339.878"/><use xlink:href="#r" x="145.456" y="339.878"/><use xlink:href="#bj" x="147.858" y="339.878"/><use xlink:href="#z" x="156.173" y="339.878"/><use xlink:href="#bk" x="164.488" y="339.878"/><use xlink:href="#r" x="172.803" y="339.878"/><use xlink:href="#C" x="175.205" y="339.878"/><use xlink:href="#D" x="183.52" y="339.878"/><use xlink:href="#ar" x="191.834" y="339.878"/><use xlink:href="#as" x="200.149" y="339.878"/><use xlink:href="#r" x="208.464" y="339.878"/><use xlink:href="#G" x="210.866" y="339.878"/><use xlink:href="#H" x="219.181" y="339.878"/><use xlink:href="#bl" x="227.496" y="339.878"/><use xlink:href="#bm" x="235.811" y="339.878"/><use xlink:href="#bn" x="244.126" y="339.878"/><use xlink:href="#bo" x="252.441" y="339.878"/><use xlink:href="#bp" x="260.756" y="339.878"/><use xlink:href="#bq" x="269.071" y="339.878"/><use xlink:href="#br" x="277.385" y="339.878"/><use xlink:href="#r" x="285.7" y="339.878"/><use xlink:href="#J" x="288.102" y="339.878"/><use xlink:href="#w" x="296.417" y="339.878"/><use xlink:href="#r" x="304.732" y="339.878"/><use xlink:href="#aw" x="307.134" y="339.878"/><use xlink:href="#r" x="315.449" y="339.878"/><use xlink:href="#bs" x="317.851" y="339.878"/><use xlink:href="#bt" x="326.166" y="339.878"/></g><g fill="#0c3388"><use xlink:href="#m" x="36.198" y="383.346"/><use xlink:href="#n" x="41.455" y="383.346"/><use xlink:href="#n" x="46.712" y="383.346"/><use xlink:href="#bu" x="51.969" y="383.346"/><use xlink:href="#p" x="57.226" y="383.346"/></g><g><use xlink:href="#q" x="82.106" y="375.853"/><use xlink:href="#r" x="84.85" y="375.853"/><use xlink:href="#at" x="87.252" y="375.853"/><use xlink:href="#aH" x="95.567" y="375.853"/><use xlink:href="#aI" x="100.325" y="375.853"/><use xlink:href="#r" x="108.639" y="375.853"/><use xlink:href="#G" x="111.041" y="375.853"/><use xlink:href="#bv" x="119.356" y="375.853"/><use xlink:href="#t" x="127.671" y="375.853"/><use xlink:href="#v" x="135.986" y="375.853"/><use xlink:href="#ax" x="144.301" y="375.853"/><use xlink:href="#r" x="152.616" y="375.853"/><use xlink:href="#aO" x="155.018" y="375.853"/><use xlink:href="#r" x="157.152" y="375.853"/><use xlink:href="#bw" x="159.554" y="375.853"/><use xlink:href="#ak" x="167.869" y="375.853"/><use xlink:href="#bx" x="176.184" y="375.853"/><use xlink:href="#r" x="184.499" y="375.853"/><use xlink:href="#aR" x="186.901" y="375.853"/><use xlink:href="#aN" x="195.216" y="375.853"/></g><g><use xlink:href="#q" x="82.106" y="390.839"/><use xlink:href="#r" x="84.85" y="390.839"/><use xlink:href="#by" x="87.252" y="390.839"/><use xlink:href="#bz" x="95.567" y="390.839"/><use xlink:href="#aL" x="103.881" y="390.839"/><use xlink:href="#t" x="112.196" y="390.839"/><use xlink:href="#ax" x="120.511" y="390.839"/><use xlink:href="#r" x="128.826" y="390.839"/><use xlink:href="#bA" x="131.228" y="390.839"/><use xlink:href="#bB" x="139.543" y="390.839"/><use xlink:href="#r" x="147.858" y="390.839"/><use xlink:href="#G" x="150.26" y="390.839"/><use xlink:href="#H" x="158.575" y="390.839"/><use xlink:href="#bC" x="166.89" y="390.839"/><use xlink:href="#ax" x="175.205" y="390.839"/><use xlink:href="#r" x="183.52" y="390.839"/><use xlink:href="#bD" x="185.922" y="390.839"/><use xlink:href="#ax" x="194.237" y="390.839"/><use xlink:href="#A" x="202.551" y="390.839"/><use xlink:href="#bE" x="210.866" y="390.839"/><use xlink:href="#r" x="219.181" y="390.839"/><use xlink:href="#aO" x="221.583" y="390.839"/><use xlink:href="#r" x="223.717" y="390.839"/><use xlink:href="#bv" x="226.12" y="390.839"/><use xlink:href="#bF" x="234.434" y="390.839"/><use xlink:href="#aY" x="242.749" y="390.839"/><use xlink:href="#r" x="251.064" y="390.839"/><use xlink:href="#aR" x="253.466" y="390.839"/><use xlink:href="#aN" x="261.781" y="390.839"/></g><g fill="#0c3388"><use xlink:href="#m" x="36.198" y="434.307"/><use xlink:href="#n" x="41.455" y="434.307"/><use xlink:href="#n" x="46.712" y="434.307"/><use xlink:href="#bG" x="51.969" y="434.307"/><use xlink:href="#p" x="57.226" y="434.307"/></g><g><use xlink:href="#q" x="82.106" y="426.814"/><use xlink:href="#r" x="84.85" y="426.814"/><use xlink:href="#s" x="87.252" y="426.814"/><use xlink:href="#t" x="95.567" y="426.814"/><use xlink:href="#u" x="103.881" y="426.814"/><use xlink:href="#v" x="112.196" y="426.814"/><use xlink:href="#A" x="120.511" y="426.814"/><use xlink:href="#L" x="128.826" y="426.814"/><use xlink:href="#w" x="137.141" y="426.814"/><use xlink:href="#r" x="145.456" y="426.814"/><use xlink:href="#bH" x="147.858" y="426.814"/><use xlink:href="#bI" x="156.173" y="426.814"/><use xlink:href="#L" x="164.488" y="426.814"/><use xlink:href="#w" x="172.803" y="426.814"/><use xlink:href="#G" x="181.118" y="426.814"/><use xlink:href="#H" x="189.432" y="426.814"/><use xlink:href="#bJ" x="197.747" y="426.814"/><use xlink:href="#r" x="206.062" y="426.814"/><use xlink:href="#J" x="208.464" y="426.814"/><use xlink:href="#w" x="216.779" y="426.814"/></g><g><use xlink:href="#q" x="82.106" y="441.8"/><use xlink:href="#r" x="84.85" y="441.8"/><use xlink:href="#bK" x="87.252" y="441.8"/><use xlink:href="#bL" x="95.567" y="441.8"/><use xlink:href="#bM" x="103.881" y="441.8"/><use xlink:href="#r" x="112.196" y="441.8"/><use xlink:href="#G" x="114.598" y="441.8"/><use xlink:href="#H" x="122.913" y="441.8"/><use xlink:href="#r" x="131.228" y="441.8"/><use xlink:href="#bb" x="133.63" y="441.8"/><use xlink:href="#bc" x="141.945" y="441.8"/><use xlink:href="#r" x="150.26" y="441.8"/><use xlink:href="#aG" x="152.662" y="441.8"/><use xlink:href="#s" x="160.977" y="441.8"/><use xlink:href="#r" x="169.292" y="441.8"/><use xlink:href="#an" x="171.694" y="441.8"/><use xlink:href="#T" x="176.332" y="441.8"/><use xlink:href="#W" x="181.201" y="441.8"/><use xlink:href="#be" x="186.494" y="441.8"/></g><g><use xlink:href="#Z" x="190.726" y="441.8"/></g><g><use xlink:href="#aa" x="195.41" y="441.8"/><use xlink:href="#L" x="198.477" y="441.8"/><use xlink:href="#bf" x="206.792" y="441.8"/><use xlink:href="#r" x="215.107" y="441.8"/><use xlink:href="#aA" x="217.509" y="441.8"/><use xlink:href="#bg" x="225.824" y="441.8"/></g><g fill="#0c3388"><use xlink:href="#m" x="36.198" y="485.268"/><use xlink:href="#n" x="41.455" y="485.268"/><use xlink:href="#n" x="46.712" y="485.268"/><use xlink:href="#bN" x="51.969" y="485.268"/><use xlink:href="#p" x="57.226" y="485.268"/></g><g><use xlink:href="#q" x="82.106" y="485.268"/><use xlink:href="#r" x="84.85" y="485.268"/><use xlink:href="#bm" x="87.252" y="485.268"/><use xlink:href="#bO" x="95.567" y="485.268"/><use xlink:href="#bP" x="103.881" y="485.268"/><use xlink:href="#bQ" x="112.196" y="485.268"/><use xlink:href="#bR" x="120.511" y="485.268"/><use xlink:href="#r" x="128.826" y="485.268"/><use xlink:href="#C" x="131.228" y="485.268"/><use xlink:href="#D" x="139.543" y="485.268"/><use xlink:href="#ar" x="147.858" y="485.268"/><use xlink:href="#as" x="156.173" y="485.268"/><use xlink:href="#ba" x="164.488" y="485.268"/><use xlink:href="#r" x="172.803" y="485.268"/><use xlink:href="#bK" x="175.205" y="485.268"/><use xlink:href="#bL" x="183.52" y="485.268"/><use xlink:href="#bM" x="191.834" y="485.268"/><use xlink:href="#r" x="200.149" y="485.268"/><use xlink:href="#G" x="202.551" y="485.268"/><use xlink:href="#H" x="210.866" y="485.268"/><use xlink:href="#r" x="219.181" y="485.268"/><use xlink:href="#bS" x="221.583" y="485.268"/><use xlink:href="#bT" x="229.898" y="485.268"/></g><g><use xlink:href="#bU" x="40.581" y="56.793"/><use xlink:href="#bU" x="45.078" y="56.793"/><use xlink:href="#bV" x="49.576" y="56.793"/><use xlink:href="#bW" x="55.364" y="56.793"/><use xlink:href="#bX" x="64.871" y="56.793"/><use xlink:href="#bY" x="68.875" y="56.793"/><use xlink:href="#bZ" x="73.809" y="56.793"/><use xlink:href="#ca" x="90.888" y="56.793"/><use xlink:href="#cb" x="107.968" y="56.793"/><use xlink:href="#cc" x="125.047" y="56.793"/><use xlink:href="#cd" x="142.126" y="56.793"/><use xlink:href="#ce" x="159.205" y="56.793"/><use xlink:href="#cf" x="176.284" y="56.793"/><use xlink:href="#bY" x="193.364" y="56.793"/><use xlink:href="#cg" x="198.298" y="56.793"/><use xlink:href="#ch" x="215.377" y="56.793"/><use xlink:href="#ci" x="232.456" y="56.793"/><use xlink:href="#bY" x="249.535" y="56.793"/><use xlink:href="#cj" x="254.469" y="56.793"/><use xlink:href="#ck" x="271.549" y="56.793"/><use xlink:href="#cl" x="288.628" y="56.793"/><use xlink:href="#bY" x="305.707" y="56.793"/><use xlink:href="#cj" x="310.641" y="56.793"/><use xlink:href="#cm" x="327.72" y="56.793"/></g></svg>