<?xml version="1.0" encoding="utf-8"?>
<!-- Generator: Adobe Illustrator 16.0.0, SVG Export Plug-In . SVG Version: 6.00 Build 0)  -->
<!DOCTYPE svg PUBLIC "-//W3C//DTD SVG 1.1//EN" "http://www.w3.org/Graphics/SVG/1.1/DTD/svg11.dtd">
<svg version="1.1" id="Layer_1" xmlns="http://www.w3.org/2000/svg" xmlns:xlink="http://www.w3.org/1999/xlink" x="0px" y="0px"
	 width="48px" height="48px" viewBox="0 0 48 48" enable-background="new 0 0 48 48" xml:space="preserve">
<path id="arrow-thin-right" d="M7.178,24.523c-0.45-0.449-0.621-1.126-0.44-1.737c0.159-0.541,0.606-0.907,0.99-1.292
	c0.488-0.49,0.979-0.98,1.467-1.47c0.586-0.588,1.174-1.177,1.762-1.766c0.638-0.639,1.273-1.278,1.912-1.918
	c0.826-0.827,1.65-1.654,2.476-2.481c0.709-0.712,1.419-1.424,2.129-2.136c0.338-0.339,0.685-0.776,1.122-0.988
	c0.588-0.286,1.306-0.216,1.826,0.179c0.519,0.391,0.779,1.051,0.672,1.691c-0.113,0.68-0.646,1.108-1.105,1.567
	c-0.435,0.436-0.869,0.872-1.305,1.308c-0.674,0.675-1.348,1.351-2.021,2.027c-0.67,0.674-1.342,1.346-2.014,2.019
	c-0.666,0.668-1.332,1.335-1.997,2.003c0.214,0,0.427,0,0.64,0c1.182,0,2.363,0,3.545,0c0.74,0,1.48,0,2.221,0
	c0.798,0,1.598,0,2.395,0c1.157,0,2.315,0,3.473,0c0.463,0,0.927,0,1.39,0c1.204,0,2.408,0,3.612,0c0.655,0,1.312,0,1.967,0
	c0.894,0,1.788,0,2.683,0c1.107,0,2.215,0,3.322,0c0.456,0,0.889,0.012,1.297,0.267c0.482,0.303,0.795,0.834,0.821,1.403
	c0.028,0.582-0.24,1.149-0.707,1.494c-0.31,0.232-0.685,0.346-1.069,0.348c-0.103,0-0.205,0-0.308,0c-0.464,0-0.929,0-1.392,0
	c-1.217,0-2.436,0-3.653,0c-0.478,0-0.955,0-1.433,0c-1.125,0-2.25,0-3.373,0c-0.869,0-1.735,0-2.604,0c-0.673,0-1.347,0-2.02,0
	c-1.204,0-2.409,0-3.612,0c-0.458,0-0.916,0-1.374,0c-1.164,0-2.327,0-3.491,0c-0.775,0-1.553,0-2.329,0
	c0.097,0.098,0.194,0.193,0.292,0.293c0.663,0.664,1.325,1.329,1.988,1.994c0.663,0.664,1.326,1.329,1.988,1.994
	c0.66,0.66,1.318,1.32,1.978,1.982c0.455,0.454,0.911,0.911,1.365,1.367c0.114,0.115,0.229,0.229,0.342,0.344
	c0.416,0.426,0.601,1.032,0.472,1.617c-0.133,0.611-0.597,1.115-1.193,1.299c-0.622,0.192-1.301,0.016-1.762-0.437
	c-0.278-0.272-0.549-0.552-0.824-0.827c-0.659-0.66-1.318-1.32-1.977-1.98c-0.81-0.813-1.619-1.623-2.428-2.434
	c-0.598-0.6-1.193-1.197-1.791-1.797c-0.563-0.563-1.123-1.126-1.686-1.688C8.669,26.02,7.924,25.271,7.178,24.523"/>
</svg>
