<?xml version="1.0" encoding="utf-8"?>
<!-- Generator: Adobe Illustrator 16.0.0, SVG Export Plug-In . SVG Version: 6.00 Build 0)  -->
<!DOCTYPE svg PUBLIC "-//W3C//DTD SVG 1.1//EN" "http://www.w3.org/Graphics/SVG/1.1/DTD/svg11.dtd">
<svg version="1.1" id="Layer_1" xmlns="http://www.w3.org/2000/svg" xmlns:xlink="http://www.w3.org/1999/xlink" x="0px" y="0px"
	 width="24px" height="24px" viewBox="0 0 24 24" enable-background="new 0 0 24 24" xml:space="preserve">
<path fill="none" d="M0,0h24v24H0V0z"/>
<path fill="#FFEDBE" d="M15.522,23.489H3.621c-0.495,0-0.897-0.401-0.897-0.897V1.897C2.724,1.401,3.126,1,3.621,1h16.507
	c0.495,0,0.896,0.401,0.896,0.897v16.091c0,0.237-0.095,0.465-0.262,0.634l-4.605,4.604C15.989,23.395,15.761,23.489,15.522,23.489z
	"/>
<path fill="#FFE49C" d="M20.128,1h-8.253v22.489h3.648c0.238,0,0.467-0.095,0.635-0.263l4.605-4.604
	c0.167-0.169,0.262-0.396,0.262-0.634V1.897C21.024,1.401,20.623,1,20.128,1z"/>
<path fill="#FF5E5B" d="M11.361,16.081h-1.344v-1.344c0-0.495-0.402-0.897-0.897-0.897s-0.897,0.402-0.897,0.897v1.344H6.878
	c-0.496,0-0.897,0.401-0.897,0.897c0,0.495,0.401,0.897,0.897,0.897h1.345v1.344c0,0.495,0.401,0.897,0.897,0.897
	s0.897-0.402,0.897-0.897v-1.344h1.344c0.495,0,0.897-0.402,0.897-0.897C12.258,16.482,11.856,16.081,11.361,16.081z"/>
<g>
	<path fill="#FFBE00" d="M11.516,11.944H6.878c-0.496,0-0.897-0.402-0.897-0.898c0-0.495,0.401-0.897,0.897-0.897h4.637
		c0.496,0,0.897,0.402,0.897,0.897C12.413,11.542,12.011,11.944,11.516,11.944z"/>
	<path fill="#FFBE00" d="M16.871,9.19H6.878c-0.496,0-0.897-0.402-0.897-0.897c0-0.496,0.401-0.897,0.897-0.897h9.993
		c0.495,0,0.896,0.401,0.896,0.897C17.768,8.789,17.366,9.19,16.871,9.19z"/>
	<path fill="#FFBE00" d="M16.871,6.437H6.878c-0.496,0-0.897-0.402-0.897-0.897c0-0.495,0.401-0.897,0.897-0.897h9.993
		c0.495,0,0.896,0.402,0.896,0.897C17.768,6.035,17.366,6.437,16.871,6.437z"/>
</g>
<path fill="#FF423D" d="M12.258,16.979c0-0.305-0.152-0.573-0.384-0.735v1.47C12.107,17.551,12.258,17.282,12.258,16.979z"/>
<g>
	<path fill="#FFB700" d="M12.413,11.046c0-0.367-0.222-0.683-0.539-0.822v1.645C12.191,11.73,12.413,11.415,12.413,11.046z"/>
	<path fill="#FFB700" d="M16.871,7.396h-4.997V9.19h4.997c0.495,0,0.896-0.402,0.896-0.897C17.768,7.798,17.366,7.396,16.871,7.396z
		"/>
	<path fill="#FFB700" d="M16.871,4.643h-4.997v1.794h4.997c0.495,0,0.896-0.402,0.896-0.897C17.768,5.044,17.366,4.643,16.871,4.643
		z"/>
	<path fill="#FFB700" d="M15.522,23.489c-0.493,0-0.896-0.399-0.896-0.897v-4.604c0-0.496,0.402-0.897,0.896-0.897h4.605
		c0.795,0,1.199,0.966,0.635,1.531l-4.605,4.604C15.985,23.398,15.757,23.489,15.522,23.489z"/>
</g>
</svg>
