<svg xmlns="http://www.w3.org/2000/svg" xmlns:xlink="http://www.w3.org/1999/xlink" width="793.033" height="1122.52" viewBox="0 0 594.7751 841.89" version="1.2"><defs><symbol overflow="visible" id="a"><path d="M2.797.14c1.437 0 2.656-.796 2.656-2.187 0-1-.656-1.625-1.516-1.86v-.046c.813-.328 1.266-.906 1.266-1.735 0-1.296-.984-2-2.453-2-.89 0-1.61.344-2.266.922l.766.922c.453-.406.89-.672 1.438-.672.64 0 1 .36 1 .938 0 .687-.438 1.156-1.829 1.156v1.078c1.641 0 2.079.469 2.079 1.219 0 .672-.516 1.047-1.282 1.047-.687 0-1.234-.344-1.687-.781l-.703.953C.796-.312 1.609.14 2.796.14zm0 0"/></symbol><symbol overflow="visible" id="b"><path d="M3.844-5.922h1.86v-1.062h-1.86v-1.313H2.5v1.313H.594v1.062H2.5v.328c0 1.407-.703 3-2.219 3.703L1-.859c1.047-.47 1.781-1.422 2.188-2.532.39 1.032 1.062 1.907 2.062 2.375l.719-1.03C4.5-2.75 3.844-4.267 3.844-5.595zm5.312 1.063h-1.36v-3.657H6.454V.875h1.344V-3.75h1.36zm0 0"/></symbol><symbol overflow="visible" id="d"><path d="M8.031-5.234H2.828v-.547h4.906v-.985H2.828v-.515h5.125v-1.016H1.484v4.078h6.547zM1.375-.922h5.172V.891H7.89v-2.875H1.375zM.422-3.64v1.063h8.5v-1.063zm0 0"/></symbol><symbol overflow="visible" id="e"><path d="M5.922-7.125H3.859v-1.234H2.516v1.234H.437v1.078h5.485zM3.188-2.172c-.579 0-1.016-.422-1.016-1.11 0-.702.437-1.109 1.015-1.109.579 0 1.032.407 1.032 1.11 0 .687-.453 1.11-1.032 1.11zm0-3.36c-1.297 0-2.266.954-2.266 2.25 0 1.298.969 2.235 2.265 2.235 1.297 0 2.266-.937 2.266-2.234s-.969-2.25-2.266-2.25zm3.796-2.984v3.688H5.75v1.094h1.234V.875h1.344v-9.39zm0 0"/></symbol><symbol overflow="visible" id="f"><path d="M6.219-5.328H7.64v2.61h.515v-5.626h-.515v2.563H6.219v-2.39h-.532v5.155h.532zM5.094-3.953c-1.14-.438-1.938-1.485-1.938-2.5v-1.328h-.531v1.328c0 1.016-.828 2.219-1.969 2.734l.297.406c.906-.406 1.625-1.25 1.938-2.14.328.828 1 1.562 1.921 1.906zM5.25.25C3.766.25 2.812-.188 2.812-.89c0-.72.954-1.141 2.438-1.141 1.484 0 2.438.422 2.438 1.14C7.688-.187 6.734.25 5.25.25zm0-2.719c-1.86 0-2.969.578-2.969 1.578C2.281.125 3.391.688 5.25.688c1.844 0 2.969-.563 2.969-1.579 0-1-1.125-1.578-2.969-1.578zm0 0"/></symbol><symbol overflow="visible" id="g"><path d="M4.547-4.14h-3v-3.048h3zm2.875-2.204V-5H5.078v-1.344zM5.078-4.547h2.344v1.594h.531v-5.39h-.531v1.546H5.078v-.844H1.031v3.954h4.047zM5.031.25C3.547.25 2.61-.219 2.61-.984c0-.766.938-1.235 2.422-1.235 1.485 0 2.438.469 2.438 1.235C7.469-.22 6.516.25 5.03.25zm0-2.906c-1.843 0-2.968.594-2.968 1.672C2.063.078 3.187.687 5.03.687 6.86.688 8 .079 8-.984c0-1.079-1.14-1.672-2.969-1.672zm0 0"/></symbol><symbol overflow="visible" id="h"><path d="M5.25-3.297c.266-1.797.266-3.031.266-3.672v-.343H.984v.453h4c0 .671-.015 1.859-.28 3.515zM3.11-4.719h-.532v2.86c-.75.015-1.469.015-2.11.015l.094.469c1.625 0 3.797-.047 5.72-.328L6.25-2.11c-1 .125-2.094.187-3.14.218zm5.906.235H7.422V-8.36h-.547V.719h.547v-4.703h1.594zm0 0"/></symbol><symbol overflow="visible" id="i"><path d="M5.984-7.297H3.578v-1.11h-.547v1.11H.61v.453h5.375zM1.656-4.64c0-.703.672-1.187 1.64-1.187.97 0 1.626.484 1.626 1.187 0 .688-.656 1.172-1.625 1.172s-1.64-.484-1.64-1.172zm3.766 0c0-1-.844-1.609-2.125-1.609-1.281 0-2.14.61-2.14 1.61 0 .984.859 1.609 2.14 1.609 1.281 0 2.125-.625 2.125-1.61zM1.766-1.67h5.25V.702h.546v-2.828H1.766zM8.984-5.75H7.563v-2.61h-.547v5.672h.546V-5.28h1.422zm0 0"/></symbol><symbol overflow="visible" id="k"><path d="M7.14-4.953H2.22v-1.39H7.14zm.548-3.125H7.14v1.297H2.219v-1.297h-.531V-4.5h6zm-5.5 6.125h-.532V.484h6.219V.031H2.187zM.562-3.47v.453h3.875v1.938h.547v-1.938h3.813v-.453zm0 0"/></symbol><symbol overflow="visible" id="l"><path d="M2.984-1.86c-1 0-1.703-1.093-1.703-2.64 0-1.547.703-2.625 1.703-2.625S4.688-6.047 4.688-4.5s-.704 2.64-1.704 2.64zm0-5.75C1.672-7.61.766-6.39.766-4.5s.906 3.11 2.218 3.11c1.297 0 2.204-1.22 2.204-3.11S4.28-7.61 2.983-7.61zM9.031-5.5v-.469H7.47v-2.375h-.547V.72h.547v-3.5H9.03v-.469H7.47V-5.5zm0 0"/></symbol><symbol overflow="visible" id="m"><path d="M3.531-7.656c-1.406 0-2.39.843-2.39 2.078 0 1.234.984 2.062 2.39 2.062 1.406 0 2.39-.828 2.39-2.062s-.984-2.078-2.39-2.078zm0 .468c1.078 0 1.86.672 1.86 1.61 0 .922-.782 1.594-1.86 1.594s-1.875-.672-1.875-1.594c0-.938.797-1.61 1.875-1.61zm3.781-1.156V.72h.532v-9.063zM.72-1.375c1.656 0 3.906 0 6-.375l-.063-.406c-2.015.312-4.328.312-6.031.312zm0 0"/></symbol><symbol overflow="visible" id="n"><path d="M7.39-8.36V.72h.532V-8.36zm-6.265.797v6.047h4.172v-6.046H4.75v2.515H1.672v-2.516zm.547 2.954H4.75v2.64H1.672zm0 0"/></symbol><symbol overflow="visible" id="o"><path d="M1.25-5.688c0-.921.766-1.64 1.781-1.64 1.016 0 1.781.719 1.781 1.64 0 .954-.765 1.657-1.78 1.657-1.016 0-1.782-.703-1.782-1.657zm6.172-.828v1.672H5.156c.11-.25.172-.531.172-.843 0-.297-.062-.579-.172-.829zm0 2.141v1.422h.531V-8.36h-.531v1.39H4.89c-.407-.515-1.079-.812-1.86-.812-1.328 0-2.297.86-2.297 2.093 0 1.266.97 2.141 2.297 2.141.781 0 1.453-.312 1.86-.828zM5.016.25c-1.47 0-2.422-.5-2.422-1.266 0-.765.953-1.265 2.422-1.265 1.5 0 2.453.5 2.453 1.265C7.469-.25 6.516.25 5.016.25zm0-2.969c-1.829 0-2.954.61-2.954 1.703C2.063.063 3.188.688 5.017.688 6.859.688 8 .063 8-1.016c0-1.093-1.14-1.703-2.984-1.703zm0 0"/></symbol><symbol overflow="visible" id="p"><path d="M1.656-1.984v-2.407h3.578v-3.078h-4.14V-7h3.61v2.14H1.124v3.344h.719c1.5 0 2.89-.062 4.625-.343l-.047-.454c-1.719.266-3.11.329-4.578.329zm5.735-6.36V.72h.546v-9.063zm0 0"/></symbol><symbol overflow="visible" id="q"><path d="M3.125-6.734h1.828v-.454H.687v.454H2.61v.984c0 1.89-.828 3.406-2.093 4.094l.359.406c.984-.563 1.703-1.61 2.016-2.969.312 1.203 1 2.14 1.921 2.672l.344-.437C3.922-2.61 3.125-4.063 3.125-5.75zm4.578-1.61v3.75H6.234v-3.531H5.72V.219h.515V-4.11h1.47V.719h.53v-9.063zm0 0"/></symbol><symbol overflow="visible" id="r"><path d="M5.906-4.25c-1.297.266-2.39.328-4.187.328h-.14v-3.156h3.437v-.469h-3.97v4.094h.673c1.828 0 2.937-.078 4.25-.328zM2.578-2.422h-.547V.484h5.985V.031H2.578zm4.985-3.125v-2.812h-.547v6.578h.546v-3.297h1.422v-.469zm0 0"/></symbol><symbol overflow="visible" id="s"><path d="M1.328-4c1.25-.25 2.813-1.063 3.344-2.234C5.188-5.063 6.75-4.25 8.016-4l.203-.453C6.875-4.672 4.953-5.72 4.953-7.078v-.203h3v-.453H1.375v.453h3v.203c0 1.36-1.922 2.406-3.266 2.625zm7.453.906H.578v.453h3.813V.688h.53v-3.329h3.845zm0 0"/></symbol><symbol overflow="visible" id="t"><path d="M4.938-.953v-2.594h2.859V-4H2.219v-3.11h5.484v-.468H1.672v4.031H4.39v2.594H.578V-.5h8.219v-.453zm0 0"/></symbol><symbol overflow="visible" id="u"><path d="M7.844-4.36H2.25v-1.343h5.266v-.453H2.25v-1.282h5.484v-.453H1.72v4h6.125zm.937 1.548H.578v.468h3.828V.72h.547v-3.063h3.828zm0 0"/></symbol><symbol overflow="visible" id="v"><path d="M3.469-6.922h2.125v-.469H.766v.47h2.171v1.53c0 1.563-1.312 3.297-2.484 3.891l.344.453c.984-.547 2.015-1.797 2.406-3.172.406 1.282 1.375 2.422 2.36 2.938l.312-.438C4.687-2.297 3.469-3.922 3.469-5.39zm5.594 2.344H7.468v-3.766h-.547V.72h.547V-4.11h1.593zm0 0"/></symbol><symbol overflow="visible" id="w"><path d="M1.469-5.656c0-.938.765-1.625 1.843-1.625 1.047 0 1.813.687 1.813 1.625 0 .922-.766 1.61-1.813 1.61-1.078 0-1.843-.688-1.843-1.61zm2.11 2.047c1.233-.11 2.077-.907 2.077-2.047 0-1.25-.968-2.078-2.343-2.078-1.407 0-2.376.828-2.376 2.078 0 1.156.86 1.953 2.11 2.047v1.75a77.87 77.87 0 0 1-2.578.046l.11.47c1.609 0 3.78-.032 5.718-.345l-.047-.421c-.844.125-1.766.187-2.672.234zM9.015-4.5H7.422v-3.86H6.89V.72h.53v-4.766h1.595zm0 0"/></symbol><symbol overflow="visible" id="x"><path d="M8.266-7.266H4.937v-1.156h-.546v1.156H1.016v.454h7.25zM6.953-4.687c0 .64-.875 1.062-2.297 1.062-1.39 0-2.281-.422-2.281-1.063 0-.671.89-1.062 2.281-1.062 1.422 0 2.297.39 2.297 1.063zm-5.14 0c0 .937 1.078 1.468 2.843 1.468 1.797 0 2.86-.531 2.86-1.469 0-.953-1.063-1.5-2.86-1.5-1.765 0-2.843.547-2.843 1.5zm7 2.218H.578v.453h3.813V.72h.546v-2.735h3.875zm0 0"/></symbol><symbol overflow="visible" id="y"><path d="M5.39-2.938v.422h1.938v1.079h.531v-6.907h-.53v5.406zM3.485-7.53c1 0 1.704.468 1.704 1.14 0 .672-.704 1.141-1.704 1.141s-1.687-.469-1.687-1.14c0-.673.687-1.141 1.687-1.141zm0 2.687c1.329 0 2.204-.593 2.204-1.547 0-.953-.875-1.562-2.204-1.562-1.328 0-2.203.61-2.203 1.562 0 .954.875 1.547 2.203 1.547zm-.203 3.032h.547v-1.844a24.772 24.772 0 0 0 2.64-.266l-.046-.39c-1.953.234-4.219.265-5.906.265l.093.469c.782 0 1.704 0 2.672-.047zM2.421.03v-2.156h-.53v2.61h6.203V.03zm0 0"/></symbol><symbol overflow="visible" id="z"><path d="M3.422-7.516h-.516v1.813c0 1.625-1.219 3.36-2.422 4l.344.437c.985-.562 1.953-1.796 2.36-3.187.39 1.328 1.359 2.469 2.343 3l.328-.422c-1.171-.61-2.437-2.25-2.437-3.828zm5.64 2.938H7.47V-8.36h-.547V.719h.547V-4.11h1.593zm0 0"/></symbol><symbol overflow="visible" id="A"><path d="M7.172-6.688H1.656v1.797H7.86v-.421H2.188v-.985h5.515V-8.03H1.625v.422h5.547zM2.125-.921h5.61v-1.781H1.577v.422h5.64v.953H1.61v1.89h6.438V.126H2.125zM.562-4.047v.422h8.235v-.422zm0 0"/></symbol><symbol overflow="visible" id="B"><path d="M1.453-6.797h2.36v4.531h-2.36zm-.5 4.984h3.375v-5.421H.953zm6.766-6.53v3.671H6.203v-3.453h-.516v8.36h.516V-4.22H7.72V.72h.515v-9.063zm0 0"/></symbol><symbol overflow="visible" id="C"><path d="M7.953-8.344h-.547v5.61h.547zM6.125-3.75c-1.266-.39-2.406-1.438-2.406-2.703v-.234H5.89v-.438H3.719v-1.234h-.531v1.234H.983v.438h2.204v.234c0 1.36-1.11 2.5-2.376 2.937l.282.438c1.062-.39 2-1.25 2.375-2.344.39 1 1.344 1.75 2.39 2.094zm-1.156 4c-1.5 0-2.453-.453-2.453-1.172 0-.719.953-1.156 2.453-1.156 1.515 0 2.468.437 2.468 1.156C7.438-.203 6.484.25 4.97.25zm0-2.781c-1.875 0-3 .578-3 1.61 0 1.03 1.125 1.609 3 1.609S7.984.109 7.984-.923c0-1.031-1.14-1.61-3.015-1.61zm0 0"/></symbol><symbol overflow="visible" id="D"><path d="M3.281-1.875c-.969 0-1.656-.688-1.656-1.578 0-.89.688-1.563 1.656-1.563.938 0 1.64.672 1.64 1.563 0 .89-.702 1.578-1.64 1.578zm0-3.61c-1.265 0-2.156.844-2.156 2.032 0 1.203.89 2.031 2.156 2.031 1.25 0 2.14-.828 2.14-2.031 0-1.188-.89-2.031-2.14-2.031zm.25-2.78h-.547v1.421H.516v.453h5.39v-.453H3.531zm5.531 3.75H7.47V-8.36h-.547V.703h.547v-4.75h1.593zm0 0"/></symbol><symbol overflow="visible" id="E"><path d="M7.828-5.453H2.281v-2.563h-.547V-5h6.094zM2.234-2.141h-.546V.484h6.187V.016h-5.64zM.578-3.625v.469h8.219v-.469zm0 0"/></symbol><symbol overflow="visible" id="F"><path d="M1.938-5.375c0-1.094 1.171-1.86 2.718-1.86 1.578 0 2.735.766 2.735 1.86s-1.157 1.86-2.735 1.86c-1.547 0-2.718-.766-2.718-1.86zm3 4.406v-2.125c1.75-.078 2.968-.953 2.968-2.281 0-1.406-1.343-2.297-3.25-2.297-1.875 0-3.234.89-3.234 2.297 0 1.328 1.219 2.203 2.969 2.281v2.125H.578v.453h8.219v-.453zm0 0"/></symbol><symbol overflow="visible" id="G"><path d="M5.922-5.016H3.39V-7.39h2.53zm-3.063 0H1.375v.454h6.563v-.454H6.452V-7.39h1.5v-.453H1.375v.453h1.484zm-.64 3.032h-.547V.484h6.187V.031H2.22zM.579-3.406v.453h8.187v-.453zm0 0"/></symbol><symbol overflow="visible" id="H"><path d="M7.39-8.344V.72h.532v-9.063zm-4.171.735C1.89-7.61.953-6.391.953-4.5c0 1.89.938 3.11 2.266 3.11 1.312 0 2.234-1.22 2.234-3.11S4.531-7.61 3.22-7.61zm0 .484c1 0 1.719 1.078 1.719 2.625s-.72 2.64-1.72 2.64c-1.03 0-1.734-1.093-1.734-2.64 0-1.547.704-2.625 1.735-2.625zm0 0"/></symbol><symbol overflow="visible" id="I"><path d="M4.938-1v-2.656h2.875v-.453H2.171v-3.438h-.547v3.89h2.766V-1H.578v.453h8.219V-1zm0 0"/></symbol><symbol overflow="visible" id="J"><path d="M3.828-2.11h-2.36v-2.562h2.36zm2.11-2.734H4.343v-2.578h-.516v2.297h-2.36v-2.281H.954v5.75h3.39v-2.719h1.595V.219h.515v-8.344h-.516zm1.78-3.515V.703h.516v-9.062zm0 0"/></symbol><symbol overflow="visible" id="K"><path d="M7.422-1.547h.531v-6.797h-.531v1.438H5.39v.453h2.03v1.469h-2.03v.453h2.03zM5.797-3.484C4.547-3.984 3.5-5.25 3.5-6.61v-1.235h-.531v1.235c0 1.484-1.078 2.78-2.344 3.296l.297.438C1.984-3.344 2.89-4.281 3.25-5.469a4.171 4.171 0 0 0 2.234 2.422zM2.78.03V-2.28H2.25V.484h5.938V.031zm0 0"/></symbol><symbol overflow="visible" id="L"><path d="M1.125-7.344v.453H4.75c-.14 2.235-1.516 4.172-4 5.375l.297.438c2.906-1.438 4.25-3.734 4.25-6.266zm6.281-1V.72h.547v-9.063zm0 0"/></symbol><symbol overflow="visible" id="M"><path d="M4.594-3.734H1.562v-1.86h3.032zm.531-3.954h-.531v1.641H1.562v-1.64h-.546v4.406h4.109zm-2.547 5.36h-.547V.484h5.985V.031H2.578zm4.985-3.156v-2.86h-.547v6.64h.546V-5.03h1.422v-.453zm0 0"/></symbol><symbol overflow="visible" id="N"><path d="M5.813-3.75c-1.235-.39-2.297-1.422-2.297-2.625v-.328h2.14v-.453H3.531v-1.25h-.547v1.25H.844v.453h2.14v.328c0 1.328-1.062 2.453-2.328 2.875l.266.422c1.062-.375 1.969-1.203 2.344-2.266.39.953 1.265 1.688 2.28 2.032zm-1.11 4c-1.453 0-2.39-.438-2.39-1.14 0-.72.937-1.157 2.39-1.157s2.39.438 2.39 1.156c0 .704-.937 1.141-2.39 1.141zm0-2.734c-1.828 0-2.922.562-2.922 1.593 0 1 1.094 1.563 2.922 1.563S7.625.109 7.625-.891c0-1.03-1.094-1.593-2.922-1.593zm2.86-3.391v-2.469h-.547v5.594h.546v-2.656h1.422v-.469zm0 0"/></symbol><symbol overflow="visible" id="O"><path d="M7.422.125H2.844V-1.25h4.578zm0-1.813H2.844v-1.328h-.547V.578h5.656v-3.594h-.531zM3.032-4.25C2-4.25 1.25-4.938 1.25-5.844c0-.937.75-1.61 1.781-1.61s1.781.673 1.781 1.61c0 .907-.75 1.594-1.78 1.594zm4.39-4.094v2.25h-2.11c-.125-1.093-1.03-1.812-2.28-1.812-1.345 0-2.298.828-2.298 2.062 0 1.219.954 2.063 2.297 2.063 1.266 0 2.172-.735 2.281-1.844h2.11v2.14h.531v-4.859zm0 0"/></symbol><symbol overflow="visible" id="P"><path d="M2.14-5.453H7.22v1.906H2.14zm2.797 4.5v-2.14H7.75v-4.579h-.531v1.75H2.14v-1.75h-.532v4.578h2.782v2.14H.578V-.5h8.235v-.453zm0 0"/></symbol><symbol overflow="visible" id="Q"><path d="M4.656-7.672c1.578 0 2.594.484 2.594 1.25 0 .781-1.016 1.266-2.594 1.266-1.547 0-2.562-.485-2.562-1.266 0-.766 1.015-1.25 2.562-1.25zm0 2.953c1.953 0 3.157-.625 3.157-1.703S6.609-8.109 4.655-8.109c-1.922 0-3.11.609-3.11 1.687s1.188 1.703 3.11 1.703zm1.282 2.594H3.421v-1.313h2.515zm2.828-1.313v-.453H.578v.454h2.297v1.312h-1.39v.453h5.718V.703h.547v-2.828H6.484v-1.313zm0 0"/></symbol><symbol overflow="visible" id="R"><path d="M7.422-2.953h.531V-8.36h-.531v2.093H5.25v.454h2.172zm-1.594-.922C4.578-4.344 3.5-5.485 3.5-6.828v-.984h-.531v1c0 1.468-1.047 2.687-2.344 3.187l.281.438c1.078-.438 1.985-1.329 2.344-2.5.375 1.03 1.266 1.828 2.266 2.234zM5.031.25C3.547.25 2.61-.234 2.61-.984c0-.766.938-1.235 2.422-1.235 1.485 0 2.438.469 2.438 1.235C7.469-.234 6.516.25 5.03.25zm0-2.906c-1.843 0-2.968.594-2.968 1.672C2.063.078 3.187.687 5.03.687 6.86.688 8 .079 8-.984c0-1.079-1.14-1.672-2.969-1.672zm0 0"/></symbol><symbol overflow="visible" id="S"><path d="M5.75-3.813C4.5-4.234 3.484-5.327 3.484-6.578v-.61h2.141v-.437H.797v.438h2.156v.625c0 1.375-1.078 2.546-2.344 3l.282.437C1.953-3.547 2.859-4.391 3.234-5.5c.375.984 1.22 1.75 2.25 2.125zM4.703.25c-1.453 0-2.39-.453-2.39-1.172 0-.734.937-1.187 2.39-1.187s2.39.453 2.39 1.187c0 .719-.937 1.172-2.39 1.172zm0-2.797c-1.812 0-2.922.594-2.922 1.625 0 1.031 1.11 1.61 2.922 1.61 1.813 0 2.922-.579 2.922-1.61 0-1.031-1.11-1.625-2.922-1.625zm2.86-3.375v-2.422h-.547v5.5h.546v-2.61h1.422v-.468zm0 0"/></symbol><symbol overflow="visible" id="T"><path d="M3.61-7.516h-.532v1.813c0 1.687-1.312 3.422-2.5 4.031l.328.438C1.922-1.781 2.937-3 3.344-4.422c.422 1.36 1.453 2.531 2.437 3.047l.344-.438c-1.203-.578-2.516-2.234-2.516-3.89zm3.78-.828V.72h.532v-9.063zm0 0"/></symbol><symbol overflow="visible" id="U"><path d="M8.313-3.64c-1.297-.25-3.391-1.626-3.391-3.297v-.72h-.563v.72c0 1.687-2.046 3.03-3.343 3.296l.25.454C2.469-3.5 4.094-4.5 4.656-5.922 5.22-4.5 6.86-3.484 8.046-3.188zM.577-1.048v.469h8.219v-.469zm0 0"/></symbol><symbol overflow="visible" id="V"><path d="M5.906-2.969h.532v-5.219h-.532v2.172h-1.39v.438h1.39zm-.984-1.297C3.906-4.046 3.062-4 1.578-4h-.016v-1.484h2.516v-.438H1.562v-1.36h2.891v-.452H1.031v4.187h.547c1.516 0 2.36-.031 3.406-.265zM2.859-1.937h4.782V.108H2.859zM2.33.578h5.827V-2.39H2.328zM7.64-8.359v5.5h.515v-5.5zm0 0"/></symbol><symbol overflow="visible" id="W"><path d="M7.938-8.36H7.39v5.25h.546zM4.655-4.562H1.594v-2.734h3.062zm.532-3.187H1.063v3.64h4.125zm.265 5.781h2.75v-.437h-2.75v-.985h-.547v.985H2.188v.437h2.718v.094C4.906-.844 3.125.063 1.813.25l.203.422C3.25.453 4.672-.218 5.187-1.141c.5.922 1.875 1.594 3.125 1.813L8.5.25C7.172.047 5.453-.86 5.453-1.875zm0 0"/></symbol><symbol overflow="visible" id="X"><path d="M4.594-4.125H1.562v-1.719h3.032zm.531-3.656h-.531v1.5H1.562v-1.5h-.546v4.125h4.109zM4.703.25c-1.453 0-2.39-.453-2.39-1.203 0-.719.937-1.172 2.39-1.172s2.39.453 2.39 1.172c0 .75-.937 1.203-2.39 1.203zm0-2.828c-1.812 0-2.922.594-2.922 1.625 0 1.062 1.11 1.64 2.922 1.64 1.813 0 2.922-.578 2.922-1.64 0-1.031-1.11-1.625-2.922-1.625zm2.86-3.39v-2.376h-.547v5.5h.546V-5.5h1.422v-.469zm0 0"/></symbol><symbol overflow="visible" id="Y"><path d="M7.422.11H2.828V-1.22h4.594zm0-1.766H2.828v-1.266h-.547v3.5h5.672v-3.5h-.531zM4.516-4.25H1.609v-1.656h2.907zm2.906-4.11v2.329H5.047v-1.86h-.531v1.547H1.609V-7.89h-.53v4.11h3.968v-1.797h2.375v2.187h.531v-4.968zm0 0"/></symbol><symbol overflow="visible" id="Z"><path d="M2.469 1.969l.375-.188C1.954.36 1.484-1.375 1.484-3.14c0-1.765.47-3.484 1.36-4.937l-.375-.188C1.547-6.766.984-5.125.984-3.14c0 1.985.563 3.61 1.485 5.11zm0 0"/></symbol><symbol overflow="visible" id="aa"><path d="M1.25-4.734c1.375-.141 2.906-.657 3.422-1.641.516.984 2.047 1.5 3.422 1.64l.172-.421c-1.485-.14-3.25-.75-3.313-1.922h2.953v-.438H4.953v-.921h-.547v.921H1.453v.438h2.938c-.063 1.172-1.829 1.781-3.313 1.922zm7.516.953v-.438H.578v.438h3.813v1H1.609v.422h5.547v.984H1.625V.578h6.36V.141H2.155V-.953h5.531v-1.828h-2.75v-1zm0 0"/></symbol><symbol overflow="visible" id="ab"><path d="M7.953-8.36h-.547v4.735h.547zM1.375-6.015c0-.859.734-1.515 1.75-1.515 1 0 1.75.656 1.75 1.515 0 .891-.75 1.532-1.75 1.532-1.016 0-1.75-.641-1.75-1.532zm4.031 0c0-1.171-.953-1.968-2.281-1.968-1.344 0-2.281.796-2.281 1.968s.937 1.97 2.281 1.97c1.328 0 2.281-.798 2.281-1.97zM2.75.125v-1.25h5.203v-2.016H2.187v.454h5.235v1.124H2.219V.579h6.094V.125zm0 0"/></symbol><symbol overflow="visible" id="ac"><path d="M1.281-4.125c.266 0 .516-.219.516-.563 0-.343-.25-.562-.516-.562-.281 0-.531.219-.531.563 0 .343.25.562.531.562zm0 4.25c.266 0 .516-.203.516-.547 0-.344-.25-.562-.516-.562C1-.984.75-.766.75-.422c0 .344.25.547.531.547zm0 0"/></symbol><symbol overflow="visible" id="ad"><path d="M.453 0h4.484v-.531H2.626c-.39 0-.813.031-1.234.062 1.984-1.844 3.187-3.406 3.187-4.968 0-1.282-.766-2.141-2.062-2.141-.891 0-1.532.453-2.094 1.078l.39.36c.422-.532 1-.938 1.641-.938 1.063 0 1.531.734 1.531 1.656 0 1.344-1 2.875-3.53 5.047zm0 0"/></symbol><symbol overflow="visible" id="ae"><path d="M2.734.125c1.344 0 2.188-1.25 2.188-3.875 0-2.578-.844-3.828-2.188-3.828-1.359 0-2.187 1.25-2.187 3.828 0 2.625.828 3.875 2.187 3.875zm0-.5c-.968 0-1.609-1.11-1.609-3.375 0-2.203.64-3.328 1.61-3.328.953 0 1.593 1.125 1.593 3.328 0 2.266-.64 3.375-1.594 3.375zm0 0"/></symbol><symbol overflow="visible" id="af"><path d="M7.422-1.61h.531v-6.734h-.531v1.266H4.625v.469h2.797v1.296H4.625v.454h2.797zM5.797-3.89c-1.484.28-2.734.343-4.016.343h-.125V-7.64h-.531v4.563h.656c1.313 0 2.563-.063 4.078-.344zM2.813.03v-2.187H2.28v2.64H8.22V.031zm0 0"/></symbol><symbol overflow="visible" id="ag"><path d="M2.547-3.344c-1.031 0-1.485-.781-1.485-1.844 0-1.093.594-1.89 1.407-1.89 1.156 0 1.75 1.031 1.812 2.656-.562.766-1.172 1.078-1.734 1.078zM.625-.578c.39.422.922.703 1.64.703 1.36 0 2.61-1.11 2.61-4.25 0-2.234-.953-3.453-2.39-3.453-1.094 0-2.016.984-2.016 2.39 0 1.5.765 2.329 2.015 2.329.688 0 1.329-.391 1.813-.985C4.234-1.28 3.313-.375 2.28-.375c-.515 0-.969-.203-1.297-.594zm0 0"/></symbol><symbol overflow="visible" id="ah"><path d="M5.39-3.969v.39h1.938v.626h.531v-5.39h-.53v4.374zM3.485-7.75c1.032 0 1.704.39 1.704.969 0 .562-.672.953-1.704.953-1.03 0-1.703-.39-1.703-.953 0-.578.672-.969 1.703-.969zm0 2.328c1.344 0 2.22-.516 2.22-1.36 0-.843-.876-1.359-2.22-1.359-1.343 0-2.203.516-2.203 1.36 0 .843.86 1.36 2.203 1.36zm-.328 2.5h.547v-1.5a27.65 27.65 0 0 0 2.813-.266l-.032-.375c-1.937.235-4.203.25-5.953.25l.078.454c.782 0 1.641 0 2.547-.032zM2.516.156V-.859h5.343v-1.735H1.953v.406h5.39v.938H1.985V.578h6.25V.156zm0 0"/></symbol><symbol overflow="visible" id="ai"><path d="M.938 0H4.78v-.516H3.22v-6.921H2.75c-.36.203-.828.359-1.422.468v.39h1.297v6.063H.937zm0 0"/></symbol><symbol overflow="visible" id="aj"><path d="M.75 1.969c.922-1.5 1.484-3.125 1.484-5.11 0-1.984-.562-3.625-1.484-5.125l-.375.188c.89 1.453 1.344 3.172 1.344 4.937 0 1.766-.453 3.5-1.344 4.922zm0 0"/></symbol><symbol overflow="visible" id="ak"><path d="M2.234.094c.47 0 .844-.203 1.172-.578.563-.641.672-1.485.672-2.172 0-.703-.11-1.547-.672-2.188-.328-.39-.719-.578-1.172-.578-.468 0-.859.188-1.187.578C.5-4.204.375-3.359.375-2.656c0 .687.125 1.531.672 2.172.328.375.703.578 1.187.578zm0-4.797c.204 0 .47.094.704.437.28.438.359 1.125.359 1.594 0 .469-.078 1.156-.36 1.594-.234.36-.5.453-.703.453-.203 0-.484-.094-.718-.453-.282-.438-.36-1.125-.36-1.594 0-.469.078-1.156.36-1.594.234-.343.515-.437.718-.437zm0 0"/></symbol><symbol overflow="visible" id="al"><path d="M.39-.219l.626.406 3.296-5.515H.422v.75H3zm0 0"/></symbol></defs><g fill="#0e0f0e"><use xlink:href="#a" x="79.525" y="258.536"/><use xlink:href="#b" x="85.434" y="258.536"/><use xlink:href="#c" x="94.72" y="258.536"/><use xlink:href="#d" x="96.934" y="258.536"/><use xlink:href="#e" x="106.22" y="258.536"/><use xlink:href="#c" x="115.506" y="258.536"/></g><g fill="#0e0f0e"><use xlink:href="#f" x="117.72" y="258.536"/><use xlink:href="#g" x="127.006" y="258.536"/><use xlink:href="#h" x="136.293" y="258.536"/><use xlink:href="#i" x="145.579" y="258.536"/><use xlink:href="#j" x="154.865" y="258.536"/><use xlink:href="#k" x="157.028" y="258.536"/><use xlink:href="#l" x="166.314" y="258.536"/><use xlink:href="#m" x="175.6" y="258.536"/><use xlink:href="#j" x="184.886" y="258.536"/><use xlink:href="#n" x="187.049" y="258.536"/><use xlink:href="#o" x="196.335" y="258.536"/><use xlink:href="#p" x="205.622" y="258.536"/><use xlink:href="#j" x="214.908" y="258.536"/><use xlink:href="#q" x="217.071" y="258.536"/><use xlink:href="#r" x="226.357" y="258.536"/><use xlink:href="#j" x="235.643" y="258.536"/><use xlink:href="#s" x="237.806" y="258.536"/><use xlink:href="#t" x="247.092" y="258.536"/><use xlink:href="#j" x="256.378" y="258.536"/><use xlink:href="#u" x="258.542" y="258.536"/><use xlink:href="#v" x="267.828" y="258.536"/><use xlink:href="#w" x="277.114" y="258.536"/><use xlink:href="#j" x="286.4" y="258.536"/><use xlink:href="#x" x="288.563" y="258.536"/><use xlink:href="#y" x="297.849" y="258.536"/><use xlink:href="#z" x="307.135" y="258.536"/><use xlink:href="#A" x="316.421" y="258.536"/><use xlink:href="#j" x="325.707" y="258.536"/><use xlink:href="#B" x="327.871" y="258.536"/><use xlink:href="#C" x="337.157" y="258.536"/><use xlink:href="#D" x="346.443" y="258.536"/><use xlink:href="#E" x="355.729" y="258.536"/><use xlink:href="#j" x="365.015" y="258.536"/><use xlink:href="#F" x="367.178" y="258.536"/><use xlink:href="#G" x="376.464" y="258.536"/><use xlink:href="#H" x="385.75" y="258.536"/><use xlink:href="#I" x="395.036" y="258.536"/><use xlink:href="#J" x="404.322" y="258.536"/><use xlink:href="#H" x="413.608" y="258.536"/><use xlink:href="#K" x="422.894" y="258.536"/><use xlink:href="#j" x="432.181" y="258.536"/><use xlink:href="#L" x="434.344" y="258.536"/><use xlink:href="#M" x="443.63" y="258.536"/><use xlink:href="#j" x="452.916" y="258.536"/><use xlink:href="#N" x="455.079" y="258.536"/><use xlink:href="#O" x="464.365" y="258.536"/><use xlink:href="#j" x="473.651" y="258.536"/><use xlink:href="#P" x="475.815" y="258.536"/><use xlink:href="#Q" x="485.101" y="258.536"/><use xlink:href="#j" x="494.387" y="258.536"/><use xlink:href="#R" x="496.55" y="258.536"/><use xlink:href="#S" x="505.836" y="258.536"/><use xlink:href="#j" x="515.122" y="258.536"/></g><g fill="#0e0f0e"><use xlink:href="#T" x="79.525" y="275.057"/><use xlink:href="#U" x="88.811" y="275.057"/><use xlink:href="#V" x="98.097" y="275.057"/><use xlink:href="#j" x="107.383" y="275.057"/><use xlink:href="#W" x="109.547" y="275.057"/><use xlink:href="#j" x="118.833" y="275.057"/><use xlink:href="#X" x="120.996" y="275.057"/><use xlink:href="#Y" x="130.282" y="275.057"/><use xlink:href="#Z" x="139.568" y="275.057"/><use xlink:href="#aa" x="142.681" y="275.057"/><use xlink:href="#y" x="151.967" y="275.057"/><use xlink:href="#ab" x="161.253" y="275.057"/><use xlink:href="#j" x="170.539" y="275.057"/><use xlink:href="#ac" x="172.702" y="275.057"/><use xlink:href="#j" x="175.151" y="275.057"/><use xlink:href="#ad" x="177.314" y="275.057"/><use xlink:href="#ae" x="182.672" y="275.057"/><use xlink:href="#ad" x="188.029" y="275.057"/><use xlink:href="#ad" x="193.386" y="275.057"/><use xlink:href="#af" x="198.744" y="275.057"/><use xlink:href="#j" x="208.03" y="275.057"/><use xlink:href="#ag" x="210.193" y="275.057"/><use xlink:href="#ah" x="215.55" y="275.057"/><use xlink:href="#j" x="224.836" y="275.057"/><use xlink:href="#ai" x="227" y="275.057"/><use xlink:href="#ag" x="232.357" y="275.057"/><use xlink:href="#ab" x="237.714" y="275.057"/><use xlink:href="#aj" x="247.001" y="275.057"/></g><g fill="#7b7979"><use xlink:href="#ak" x="557.772" y="818.875"/><use xlink:href="#al" x="561.698" y="818.875"/></g></svg>