<svg xmlns="http://www.w3.org/2000/svg" xmlns:xlink="http://www.w3.org/1999/xlink" width="794.366" height="1122.52" viewBox="0 0 595.7748 841.89" version="1.2"><defs><symbol overflow="visible" id="a"><path d="M3.781-.75H1.828l.813-.984c.312-.375.562-.672.75-.97.203-.312.375-.671.375-1.108 0-.829-.579-1.61-1.688-1.61-.656 0-1.031.297-1.219.516a1.93 1.93 0 0 0-.437 1.172h.766c.03-.5.328-.97.921-.97.579 0 .875.423.875.86 0 .313-.125.547-.28.766a11.8 11.8 0 0 1-.626.844L.266 0H3.78zm0 0"/></symbol></defs><g fill="#7b7979"><use xlink:href="#a" x="27.429" y="818.875"/><use xlink:href="#a" x="31.645" y="818.875"/></g></svg>