<svg xmlns="http://www.w3.org/2000/svg" xmlns:xlink="http://www.w3.org/1999/xlink" width="794.366" height="1122.52" viewBox="0 0 595.7748 841.89" version="1.2"><defs><symbol overflow="visible" id="a"><path d="M6.906-8.234v9h.797v-9zm-3.828.687c-1.312 0-2.234 1.234-2.234 3.14 0 1.907.922 3.126 2.234 3.126 1.297 0 2.235-1.219 2.235-3.125 0-1.907-.938-3.14-2.235-3.14zm0 .75c.844 0 1.453.938 1.453 2.39 0 1.454-.61 2.391-1.453 2.391-.86 0-1.469-.937-1.469-2.39s.61-2.39 1.47-2.39zm0 0"/></symbol><symbol overflow="visible" id="b"><path d="M8.078-4.813c-1.594-.234-3.156-1.343-3.156-2.593v-.5h-.844v.5c0 1.281-1.547 2.36-3.14 2.593l.312.657c1.375-.235 2.703-1 3.25-2.094.563 1.078 1.89 1.86 3.25 2.094zm.39 1.625H.532v.688h3.547V.75h.797V-2.5h3.594zm0 0"/></symbol><symbol overflow="visible" id="c"><path d="M3.484-6.625h1.938v-.688H.672v.688h2.015v1.14c0 1.516-1.062 3.22-2.312 3.86l.469.64c.984-.515 1.844-1.656 2.25-2.968.39 1.203 1.219 2.25 2.203 2.75l.453-.656c-1.266-.61-2.266-2.204-2.266-3.625zm5.25 2.016H7.281v-3.61H6.47V.734h.812v-4.656h1.453zm0 0"/></symbol><symbol overflow="visible" id="e"><path d="M7.844-8.172h-.5v4.656h.5zM1.14-5.812c0-.86.656-1.5 1.5-1.5.859 0 1.5.64 1.5 1.5 0 .859-.641 1.515-1.5 1.515-.844 0-1.5-.656-1.5-1.516zm4.593.218v2.032h.5v-4.422h-.5v1.937H4.61C4.5-7.063 3.72-7.766 2.641-7.766 1.5-7.766.67-6.953.67-5.812c0 1.156.829 1.937 1.97 1.937 1.078 0 1.859-.688 1.968-1.719zM2.75.125v-1.219h5.094v-1.953H2.219v.453h5.11v1.063H2.233V.562h5.97V.126zm0 0"/></symbol><symbol overflow="visible" id="f"><path d="M1.594-1.938v-2.375H5.03v-3H1.047v.454h3.469v2.093H1.078v3.282h.688c1.437 0 2.78-.063 4.453-.329l-.063-.453c-1.64.25-2.984.329-4.39.329zm5.515-6.25V.704h.516v-8.89zm0 0"/></symbol><symbol overflow="visible" id="g"><path d="M5.344-5.625v.453h1.781v3.625h.516v-6.64h-.516v2.562zM2.312-6.906h1.626v3.156c-.547.031-1.094.047-1.626.063zm3.5 2.968c-.421.063-.89.126-1.359.141v-3.11h.969v-.437H.844v.438h.953v3.218c-.422.016-.844.016-1.203.016l.078.469c1.437 0 3.453-.016 5.187-.328zM2.704.033v-2.188h-.515v2.64H7.89V.031zm0 0"/></symbol><symbol overflow="visible" id="h"><path d="M7.5-3.266H2.14v-1.64h5.094v-.438H2.141v-1.562h5.28v-.453H1.61v4.546H7.5zM.547-.969v.453h7.89v-.453zm0 0"/></symbol><symbol overflow="visible" id="i"><path d="M7.11-8.188v5.126h.515v-5.126zm-5 5.641v3.11h5.515v-3.11zm5.015.438V.109H2.609v-2.218zM3-7.688c-1.281 0-2.203.829-2.203 2.047 0 1.22.922 2.047 2.203 2.047 1.297 0 2.219-.828 2.219-2.047 0-1.218-.922-2.046-2.219-2.046zm0 .454c1 0 1.719.671 1.719 1.593C4.719-4.719 4-4.047 3-4.047c-.984 0-1.703-.672-1.703-1.594 0-.921.719-1.593 1.703-1.593zm0 0"/></symbol><symbol overflow="visible" id="j"><path d="M5.578-3.672c-1.187-.39-2.203-1.39-2.203-2.578v-.313h2.047v-.453H3.39v-1.218h-.516v1.218H.797v.454h2.078v.312c0 1.313-1.031 2.406-2.25 2.813l.25.421c1.031-.375 1.906-1.171 2.266-2.218.359.921 1.203 1.64 2.187 1.984zM4.516.234c-1.407 0-2.297-.421-2.297-1.109 0-.703.89-1.125 2.297-1.125 1.406 0 2.296.422 2.296 1.125 0 .688-.89 1.11-2.296 1.11zm0-2.671c-1.75 0-2.797.562-2.797 1.562C1.719.109 2.766.656 4.516.656c1.75 0 2.812-.547 2.812-1.531 0-1-1.062-1.563-2.812-1.563zm2.75-3.329v-2.421h-.532v5.5h.532v-2.61h1.359v-.469zm0 0"/></symbol><symbol overflow="visible" id="k"><path d="M7.625-8.188h-.516v6.563h.516zM5.812-3.421c-1.218-.422-2.296-1.515-2.296-2.797v-.718H5.64v-.454H.859v.454H3v.718C3-4.859 1.953-3.703.719-3.25L1-2.828c1.031-.406 1.922-1.25 2.266-2.36.375 1.032 1.28 1.813 2.296 2.172zM2.688.031V-2.25h-.515V.484h5.75V.031zm0 0"/></symbol><symbol overflow="visible" id="l"><path d="M1.422-2.063v-4.562h2.734v-.453H.906v5.469h.547c1.422 0 2.266-.047 3.297-.282l-.063-.453c-.984.235-1.828.281-3.25.281zM7.39-8.186v3.656h-1.5v-3.422h-.5V.203h.5v-4.281h1.5V.688h.5v-8.876zm0 0"/></symbol><symbol overflow="visible" id="m"><path d="M3.422-3.266h2.125V-.89H3.422zm-.156-3.578h2.421v3.125H3.267zM6.062-.89v-2.375h1.594v-.453H6.203v-3.125h1.453v-.453h-6.36v.453H2.75v3.125H1.297v.453h1.61V-.89H.561v.454h7.891v-.454zm0 0"/></symbol><symbol overflow="visible" id="n"><path d="M2.031 0h.688v-13.438H2.03zm0 0"/></symbol><symbol overflow="visible" id="o"><path d="M4.594 0h.703l4.437-13.438h-.703L6.453-5.405c-.531 1.672-.906 2.89-1.484 4.531h-.063c-.578-1.64-.953-2.86-1.468-4.531L.844-13.438H.125zm0 0"/></symbol><symbol overflow="visible" id="p"><path d="M.813-4.734h4.421v-.657H.813zm0 0"/></symbol><symbol overflow="visible" id="q"><path d="M4.563.234c2.046 0 4.093-1.625 4.093-4.515 0-2.985-1.75-4.297-3.953-4.297-1 0-1.75.265-2.422.703l.438-4.953h5.25v-.61h-5.86l-.484 6.032.563.343c.75-.515 1.453-.89 2.453-.89 2.015 0 3.312 1.422 3.312 3.719 0 2.312-1.578 3.859-3.344 3.859C2.734-.375 1.72-1.188.97-2l-.438.5C1.344-.687 2.5.234 4.563.234zm0 0"/></symbol><symbol overflow="visible" id="r"><path d="M2.125.234c.39 0 .766-.296.766-.796 0-.532-.375-.829-.766-.829-.375 0-.734.297-.734.829 0 .5.359.796.734.796zm0 0"/></symbol><symbol overflow="visible" id="t"><path d="M.844 0h7.875v-.61H4.156c-.718 0-1.453.032-2.187.094C5.844-4.109 8.047-6.953 8.047-9.89c0-2.28-1.313-3.78-3.594-3.78-1.562 0-2.703.843-3.64 1.905l.468.422c.813-1.015 1.922-1.719 3.125-1.719 2.047 0 2.938 1.422 2.938 3.172 0 2.532-1.719 5.375-6.5 9.47zm0 0"/></symbol><symbol overflow="visible" id="u"><path d="M4.828.234c2.344 0 3.797-2.25 3.797-6.984 0-4.688-1.453-6.922-3.797-6.922-2.39 0-3.812 2.235-3.812 6.922 0 4.734 1.421 6.984 3.812 6.984zm0-.609c-1.906 0-3.125-2.25-3.125-6.375 0-4.078 1.219-6.328 3.125-6.328 1.89 0 3.11 2.25 3.11 6.328 0 4.125-1.22 6.375-3.11 6.375zm0 0"/></symbol><symbol overflow="visible" id="v"><path d="M5.5-12.36h3.453v-.546h-7.64v.547h3.593v2.187c0 3.203-1.75 6.219-3.875 7.453l.438.485c1.734-1.094 3.218-3.282 3.734-5.891.531 2.39 1.953 4.469 3.64 5.5l.423-.484C7.156-4.313 5.5-7.234 5.5-10.172zm5.422 3.422H7.625v.563h3.297V.313h.61v-14.907h-.61zm3.25-6.156v16.36h.61v-16.36zm0 0"/></symbol><symbol overflow="visible" id="w"><path d="M2.094-13.266v.563h6.812C8.687-8.61 6.031-4.843 1.47-2.625l.343.516c5.094-2.516 7.704-6.72 7.704-11.157zm11.562-1.828V1.234h.61v-16.328zm0 0"/></symbol><symbol overflow="visible" id="y"><path d="M8.578-3.39H2.516v-5.016h6.062zm0-5.563H2.516v-4.656h-.61v10.78h7.266v-10.78h-.594zm7.813.625h-3v-6.766h-.61V1.234h.61v-8.968h3zm0 0"/></symbol><symbol overflow="visible" id="z"><path d="M13.64-15.094V1.234h.61v-16.328zm-7.812 1.39c-2.328 0-4 2.173-4 5.548 0 3.39 1.672 5.562 4 5.562 2.344 0 4-2.172 4-5.562 0-3.375-1.656-5.547-4-5.547zm0 .517c1.984 0 3.406 2.14 3.406 5.03 0 2.907-1.421 5.048-3.406 5.048-1.984 0-3.406-2.141-3.406-5.047 0-2.89 1.422-5.031 3.406-5.031zm0 0"/></symbol><symbol overflow="visible" id="A"><path d="M3.234-9.734c0-2.047 2.266-3.532 5.22-3.532 2.983 0 5.218 1.485 5.218 3.532 0 2.03-2.235 3.53-5.219 3.53-2.953 0-5.219-1.5-5.219-3.53zM8.766-1.61v-4.094c3.218-.094 5.437-1.64 5.437-4.031 0-2.454-2.36-4.047-5.75-4.047s-5.75 1.594-5.75 4.047c0 2.39 2.219 3.937 5.453 4.03v4.095H1.094v.562H15.89v-.562zm0 0"/></symbol><symbol overflow="visible" id="B"><path d="M14.688-15.078h-.61v9.25h.61zm-5.657 4.61v.546h2.297V-6h.61v-8.797h-.61v4.328zm.453-2.704H5.547v-1.984h-.61v1.984H1v.563h8.484zM2.438-8.969c0-1.281 1.109-2.187 2.796-2.187 1.672 0 2.782.906 2.782 2.187 0 1.25-1.11 2.172-2.782 2.172-1.687 0-2.796-.922-2.796-2.172zm6.14 0c0-1.672-1.344-2.719-3.344-2.719-2.015 0-3.359 1.047-3.359 2.72 0 1.64 1.344 2.702 3.36 2.702 2 0 3.343-1.062 3.343-2.703zM4.906.421v-2.218h9.782v-3.156H4.25v.531h9.844v2.078H4.313V.984h11.093V.422zm0 0"/></symbol><symbol overflow="visible" id="C"><path d="M14.922-6.406C12.969-6.844 8.75-9.25 8.75-12.453v-1.328h-.61v1.328c0 3.234-4.156 5.594-6.156 6.047l.313.515c1.922-.562 5.25-2.375 6.14-5.14.922 2.75 4.266 4.594 6.172 5.14zM1.094-1.734v.546h14.812v-.546zm0 0"/></symbol><symbol overflow="visible" id="D"><path d="M13.672-11.078v2.844h-5v.562h5v2.75h.61v-10.156h-.61v3.437H9.109c.22-.656.329-1.359.329-2.109h-7.25v.563h6.578C8.546-9.735 5.437-7.11 1.39-5.814l.312.516c3.36-1.11 6.11-3.14 7.203-5.781zM9.078.625c-2.812 0-4.687-.953-4.687-2.422 0-1.453 1.875-2.422 4.687-2.422 2.797 0 4.688.969 4.688 2.422 0 1.469-1.891 2.422-4.688 2.422zm0-5.375c-3.281 0-5.281 1.094-5.281 2.953 0 1.875 2 2.969 5.281 2.969 3.281 0 5.281-1.094 5.281-2.969 0-1.86-2-2.953-5.28-2.953zm0 0"/></symbol><symbol overflow="visible" id="E"><path d="M2-10.266c0-1.796 1.484-3.218 3.5-3.218 2 0 3.484 1.421 3.484 3.218S7.5-7.062 5.5-7.062C3.484-7.063 2-8.47 2-10.267zm11.672-1.687v3.344H9.219c.234-.5.36-1.047.36-1.657 0-.625-.142-1.187-.36-1.687zm0 3.906v2.719h.61v-9.766h-.61v2.594H8.844c-.703-.953-1.906-1.516-3.344-1.516-2.39 0-4.094 1.532-4.094 3.75 0 2.235 1.703 3.75 4.094 3.75 1.438 0 2.672-.593 3.375-1.53zM9.078.625c-2.812 0-4.687-1-4.687-2.5 0-1.469 1.875-2.469 4.687-2.469 2.797 0 4.688 1 4.688 2.469 0 1.5-1.891 2.5-4.688 2.5zm0-5.516c-3.281 0-5.281 1.141-5.281 3.016 0 1.906 2 3.047 5.281 3.047 3.281 0 5.281-1.14 5.281-3.047 0-1.875-2-3.016-5.28-3.016zm0 0"/></symbol><symbol overflow="visible" id="F"><path d="M10.86-13.063H6.327v-2.109h-.61v2.11h-4.53v.562h9.671zM2.78-8.436c0-1.376 1.281-2.344 3.235-2.344 1.921 0 3.218.969 3.218 2.344 0 1.359-1.296 2.328-3.218 2.328-1.954 0-3.235-.97-3.235-2.329zm7.031 0c0-1.782-1.5-2.891-3.796-2.891-2.313 0-3.813 1.11-3.813 2.89 0 1.766 1.5 2.876 3.813 2.876 2.296 0 3.796-1.11 3.796-2.875zM3.282-3.25h9.687v4.484h.61v-5.046H3.28zm12.968-7.031h-2.672v-4.797h-.61v10.156h.61v-4.797h2.672zm0 0"/></symbol><symbol overflow="visible" id="G"><path d="M13.11-11.188c0 2.141 0 4.157-.579 6.844l.61.11c.562-2.782.562-4.75.562-6.954v-2H2.72v.547h10.39zm-3.22 9.25v-5.64h-.609v5.64H5.86v-5.64H5.25v5.64H1.094v.547h14.75v-.546zm0 0"/></symbol></defs><g fill="#231f20"><use xlink:href="#a" x="227.412" y="455.058"/><use xlink:href="#b" x="236.326" y="455.058"/><use xlink:href="#c" x="245.241" y="455.058"/><use xlink:href="#d" x="254.156" y="455.058"/><use xlink:href="#e" x="256.801" y="455.058"/><use xlink:href="#f" x="265.715" y="455.058"/><use xlink:href="#g" x="274.63" y="455.058"/><use xlink:href="#h" x="283.545" y="455.058"/><use xlink:href="#d" x="292.459" y="455.058"/><use xlink:href="#i" x="295.104" y="455.058"/><use xlink:href="#j" x="304.019" y="455.058"/><use xlink:href="#k" x="312.933" y="455.058"/><use xlink:href="#d" x="321.848" y="455.058"/><use xlink:href="#l" x="324.493" y="455.058"/><use xlink:href="#m" x="333.408" y="455.058"/><g><use xlink:href="#n" x="41.842" y="56.229"/><use xlink:href="#o" x="46.595" y="56.229"/></g><g><use xlink:href="#p" x="56.064" y="56.229"/><use xlink:href="#q" x="62.055" y="56.229"/><use xlink:href="#r" x="71.69" y="56.229"/><use xlink:href="#s" x="75.962" y="56.229"/><use xlink:href="#t" x="80.03" y="56.229"/><use xlink:href="#u" x="89.665" y="56.229"/><use xlink:href="#t" x="99.3" y="56.229"/><use xlink:href="#t" x="108.935" y="56.229"/><use xlink:href="#s" x="118.57" y="56.229"/><use xlink:href="#v" x="122.638" y="56.229"/><use xlink:href="#t" x="139.652" y="56.229"/><use xlink:href="#w" x="149.287" y="56.229"/><use xlink:href="#x" x="166.3" y="56.229"/><use xlink:href="#y" x="171.478" y="56.229"/><use xlink:href="#z" x="188.492" y="56.229"/><use xlink:href="#A" x="205.506" y="56.229"/><use xlink:href="#B" x="222.519" y="56.229"/><use xlink:href="#C" x="239.533" y="56.229"/><use xlink:href="#D" x="256.546" y="56.229"/><use xlink:href="#E" x="273.56" y="56.229"/><use xlink:href="#F" x="290.573" y="56.229"/><use xlink:href="#G" x="307.587" y="56.229"/></g></g></svg>