<svg xmlns="http://www.w3.org/2000/svg" xmlns:xlink="http://www.w3.org/1999/xlink" width="793.033" height="1122.52" viewBox="0 0 594.7751 841.89" version="1.2"><defs><symbol overflow="visible" id="a"><path d="M.39-.219l.626.406 3.296-5.515H.422v.75H3zm0 0"/></symbol><symbol overflow="visible" id="b"><path d="M3.734-5.328H1.578L.797-2.641a1.88 1.88 0 0 1 .469-.234c.203-.078.375-.11.609-.11.25 0 .594.047.86.282.156.172.312.437.312.875 0 .453-.188.734-.344.906-.125.125-.375.297-.797.297a1.32 1.32 0 0 1-.687-.188 1.191 1.191 0 0 1-.39-.468l-.61.515c.25.375.547.563.625.61.328.203.687.25 1 .25.531 0 1.031-.14 1.453-.547.344-.36.531-.828.531-1.422 0-.688-.265-1.11-.515-1.36-.313-.328-.766-.484-1.204-.484-.078 0-.171.016-.25.016l.266-.875h1.61zm0 0"/></symbol><symbol overflow="visible" id="c"><path d="M.36 0h3.515v-.422H2.062c-.312 0-.64.031-.968.047 1.547-1.438 2.5-2.672 2.5-3.89 0-1-.61-1.673-1.625-1.673-.703 0-1.188.36-1.625.844l.281.282c.344-.422.797-.735 1.297-.735.828 0 1.203.578 1.203 1.297 0 1.063-.781 2.266-2.766 3.969zm0 0"/></symbol><symbol overflow="visible" id="d"><path d="M1 .11c.219 0 .406-.172.406-.438S1.22-.766 1-.766c-.219 0-.406.172-.406.438S.78.109 1 .109zm0 0"/></symbol><symbol overflow="visible" id="e"><path d="M2.14.11c1.063 0 1.72-1 1.72-3.047 0-2.016-.657-3-1.72-3-1.062 0-1.718.984-1.718 3C.422-.892 1.078.108 2.14.108zm0-.391c-.75 0-1.25-.89-1.25-2.656 0-1.735.5-2.61 1.25-2.61s1.25.875 1.25 2.61c0 1.765-.5 2.656-1.25 2.656zm0 0"/></symbol><symbol overflow="visible" id="f"><path d="M2-2.61c-.813 0-1.172-.624-1.172-1.468s.469-1.469 1.11-1.469c.906 0 1.375.797 1.421 2.078-.437.61-.921.86-1.359.86zM.484-.452c.313.328.72.562 1.297.562 1.063 0 2.047-.89 2.047-3.343 0-1.75-.75-2.704-1.89-2.704-.844 0-1.563.766-1.563 1.86 0 1.187.594 1.844 1.563 1.844.546 0 1.046-.313 1.437-.782C3.312-1 2.594-.296 1.781-.296c-.39 0-.75-.157-1.015-.47zm0 0"/></symbol><symbol overflow="visible" id="g"><path d="M2.063.11c1 0 1.765-.641 1.765-1.657 0-.828-.578-1.344-1.281-1.5v-.047c.625-.203 1.062-.687 1.062-1.437 0-.907-.671-1.407-1.562-1.407-.672 0-1.172.313-1.563.688l.266.313c.328-.344.781-.61 1.281-.61.672 0 1.11.422 1.11 1.047 0 .703-.454 1.25-1.735 1.25v.39c1.39 0 1.938.532 1.938 1.313 0 .75-.547 1.25-1.297 1.25-.75 0-1.203-.344-1.531-.719L.25-.703c.36.406.906.812 1.813.812zm0 0"/></symbol><symbol overflow="visible" id="i"><path d="M.844 2.219h.344v-8.86H.844zm0 0"/></symbol><symbol overflow="visible" id="j"><path d="M2.438-5.281h1.406v-.36H.547v.36H2.03v.812c0 1.36-.687 2.657-1.64 3.235l.28.312c.735-.453 1.313-1.36 1.563-2.422.25.985.797 1.813 1.516 2.25l.281-.312c-.937-.532-1.593-1.797-1.593-3.063zm2.171 1.36H3.281v.358H4.61V.172h.407V-6.36h-.407zm1.422-2.626v7.11h.422v-7.11zm0 0"/></symbol><symbol overflow="visible" id="k"><path d="M.734 0H3.75v-.406H2.531v-5.422h-.375c-.281.156-.64.281-1.11.36v.312h1.016v4.75H.734zm0 0"/></symbol><symbol overflow="visible" id="l"><path d="M4.984-5.625H3.047v-.938h-.438v.938H.656v.36h4.328zm-3.421 2.14c0-.562.515-.953 1.265-.953.75 0 1.266.391 1.266.954 0 .562-.516.968-1.266.968s-1.265-.406-1.265-.968zm1.484 1.297C3.922-2.265 4.5-2.75 4.5-3.484c0-.797-.672-1.297-1.672-1.297-1 0-1.672.5-1.672 1.297 0 .75.578 1.234 1.453 1.296v.876c-.75.03-1.468.046-2.109.046l.063.36c1.343 0 3.093-.016 4.703-.281L5.234-1.5c-.703.094-1.453.14-2.187.172zm2.687-4.359V.547h.422v-7.094zm0 0"/></symbol><symbol overflow="visible" id="n"><path d="M.89-5.813v4.532h3.188v-4.532zm2.766.344v3.828h-2.36v-3.828zm2.14-1.078v7.11h.423v-7.11zm0 0"/></symbol><symbol overflow="visible" id="o"><path d="M1.125-1.578v-1.813h2.219v-2.343H.704v.359h2.218v1.625H.719v2.531h.437c.907 0 1.719-.031 2.75-.218l-.047-.36c-1 .188-1.812.219-2.703.219zm4.906-4.969v2.89H4.813v-2.718h-.407V.172h.407v-3.469H6.03v3.86h.422v-7.11zm0 0"/></symbol><symbol overflow="visible" id="p"><path d="M2.766-6C1.656-6 .89-5.344.89-4.375S1.656-2.75 2.766-2.75c1.109 0 1.875-.656 1.875-1.625S3.875-6 2.766-6zm0 .375c.843 0 1.468.516 1.468 1.25s-.625 1.25-1.468 1.25c-.844 0-1.47-.516-1.47-1.25s.626-1.25 1.47-1.25zm2.968-.922v7.11h.422v-7.11zM.563-1.078c1.296 0 3.062 0 4.703-.297l-.047-.328c-1.578.25-3.39.266-4.719.266zm0 0"/></symbol><symbol overflow="visible" id="q"><path d="M4.688-5.719H2.796v-.875h-.422v.875H.485v.344h4.202zM1.296-3.64c0-.546.531-.921 1.281-.921.766 0 1.281.375 1.281.921 0 .547-.515.922-1.28.922-.75 0-1.282-.375-1.282-.922zm2.953 0c0-.78-.656-1.265-1.672-1.265-1 0-1.672.484-1.672 1.265 0 .782.672 1.266 1.672 1.266 1.016 0 1.672-.484 1.672-1.266zM1.39-1.312H5.5V.546h.422v-2.219H1.39zm5.657-3.204H5.922v-2.03H5.5v4.437h.422v-2.032h1.125zm0 0"/></symbol><symbol overflow="visible" id="r"><path d="M4.875-4.172h1.11v2.031h.421v-4.406h-.422v2.016H4.875v-1.875h-.406v4.031h.406zm-.89 1.078c-.876-.36-1.516-1.172-1.516-1.969v-1.046h-.406v1.046c0 .797-.657 1.75-1.547 2.141l.234.328c.719-.312 1.266-.984 1.516-1.687a2.67 2.67 0 0 0 1.5 1.5zM4.108.203c-1.156 0-1.906-.344-1.906-.906 0-.547.75-.89 1.906-.89 1.172 0 1.922.343 1.922.89 0 .562-.75.906-1.922.906zm0-2.14c-1.453 0-2.328.453-2.328 1.234C1.781.094 2.656.53 4.11.53c1.454 0 2.329-.437 2.329-1.234 0-.781-.875-1.235-2.329-1.235zm0 0"/></symbol><symbol overflow="visible" id="s"><path d="M3.563-3.25H1.219v-2.39h2.343zm2.25-1.719v1.047H3.968v-1.047zM3.968-3.562h1.844v1.25h.421v-4.235h-.421v1.219H3.968v-.656H.813v3.093h3.156zM3.938.188c-1.157 0-1.891-.36-1.891-.97 0-.593.734-.968 1.89-.968 1.172 0 1.922.375 1.922.969 0 .61-.75.969-1.921.969zm0-2.282c-1.438 0-2.329.485-2.329 1.313C1.61.063 2.5.53 3.938.53 5.39.531 6.265.062 6.265-.78c0-.828-.875-1.313-2.329-1.313zm0 0"/></symbol><symbol overflow="visible" id="t"><path d="M4.11-2.578c.218-1.406.218-2.375.218-2.89v-.266H.781v.359h3.125c0 .516-.015 1.453-.219 2.75zM2.436-3.703h-.421v2.234c-.579.016-1.141.016-1.641.016l.063.375c1.28 0 2.984-.031 4.484-.266l-.031-.312c-.766.11-1.625.156-2.454.172zm4.626.187h-1.25v-3.03H5.39V.562h.421v-3.688h1.25zm0 0"/></symbol><symbol overflow="visible" id="u"><path d="M4.563-2.938C3.578-3.25 2.766-4.062 2.766-5v-.25h1.671v-.36H2.766v-.984h-.422v.985H.656v.359h1.688V-5c0 1.047-.844 1.922-1.828 2.25l.203.344c.828-.313 1.547-.953 1.844-1.781.296.734.984 1.312 1.796 1.593zM3.688.188c-1.141 0-1.876-.344-1.876-.891 0-.563.735-.89 1.875-.89 1.141 0 1.876.327 1.876.89 0 .547-.735.89-1.875.89zm0-2.126c-1.438 0-2.282.438-2.282 1.235C1.406.094 2.25.53 3.688.53c1.437 0 2.296-.437 2.296-1.234 0-.797-.859-1.235-2.296-1.235zm2.234-2.671v-1.938H5.5v4.39h.422v-2.077h1.125v-.375zm0 0"/></symbol><symbol overflow="visible" id="v"><path d="M5.813.094H2.219V-.97h3.594zm0-1.422H2.219V-2.36h-.422V.453h4.437v-2.812h-.421zm-3.438-2c-.813 0-1.39-.547-1.39-1.25 0-.734.578-1.266 1.39-1.266.813 0 1.39.532 1.39 1.266 0 .703-.578 1.25-1.39 1.25zm3.438-3.219v1.766H4.171c-.11-.86-.813-1.422-1.797-1.422-1.063 0-1.797.656-1.797 1.625 0 .953.735 1.61 1.797 1.61 1 0 1.703-.579 1.797-1.454h1.64v1.688h.422v-3.813zm0 0"/></symbol><symbol overflow="visible" id="w"><path d="M2.86-5.422h1.78v-.375H.689v.375h1.75v1.203c0 1.235-1.032 2.594-1.954 3.047l.266.344c.766-.422 1.594-1.39 1.89-2.453C2.97-2.25 3.798-1.391 4.595-1l.25-.344c-.953-.422-1.985-1.64-1.985-2.875zm2.937-1.125v7.11h.422v-7.11zm0 0"/></symbol><symbol overflow="visible" id="x"><path d="M4.234-2.297v.328H5.75v.844h.422v-5.406H5.75v4.234zm-1.5-3.61c.782 0 1.329.376 1.329.891 0 .532-.547.891-1.329.891-.78 0-1.328-.36-1.328-.89 0-.516.547-.891 1.328-.891zm0 2.11c1.047 0 1.735-.469 1.735-1.219 0-.75-.688-1.218-1.735-1.218C1.704-6.234 1-5.766 1-5.016s.703 1.22 1.734 1.22zm-.156 2.375H3v-1.437c.688-.047 1.406-.094 2.078-.22l-.047-.312c-1.531.204-3.297.22-4.625.22l.063.358c.625 0 1.344 0 2.11-.03zM1.906.031v-1.687h-.422V.39H6.36V.03zm0 0"/></symbol><symbol overflow="visible" id="y"><path d="M2.688-5.89H2.28v1.421c0 1.282-.969 2.64-1.89 3.125l.25.36C1.42-1.438 2.187-2.406 2.5-3.5c.313 1.047 1.063 1.938 1.844 2.36l.25-.329c-.922-.484-1.907-1.765-1.907-3zm4.421 2.312H5.86v-2.969h-.421v7.11h.421V-3.22h1.25zm0 0"/></symbol></defs><g fill="#7b7979"><use xlink:href="#a" x="557.772" y="818.875"/><use xlink:href="#b" x="561.259" y="818.875"/></g><use xlink:href="#c" x="39.199" y="61.887" fill="#231f20"/><use xlink:href="#c" x="43.358" y="61.887" fill="#231f20"/><use xlink:href="#d" x="47.516" y="61.887" fill="#231f20"/><use xlink:href="#e" x="49.396" y="61.887" fill="#231f20"/><use xlink:href="#f" x="53.554" y="61.887" fill="#231f20"/><use xlink:href="#d" x="57.712" y="61.887" fill="#231f20"/><use xlink:href="#c" x="59.592" y="61.887" fill="#231f20"/><use xlink:href="#g" x="63.75" y="61.887" fill="#231f20"/><use xlink:href="#h" x="67.909" y="61.887" fill="#231f20"/><use xlink:href="#i" x="69.844" y="61.887" fill="#231f20"/><use xlink:href="#h" x="71.755" y="61.887" fill="#231f20"/><g fill="#231f20"><use xlink:href="#j" x="73.69" y="61.887"/><use xlink:href="#k" x="80.888" y="61.887"/><use xlink:href="#l" x="85.006" y="61.887"/><use xlink:href="#m" x="92.203" y="61.887"/><use xlink:href="#n" x="94.283" y="61.887"/><use xlink:href="#o" x="101.48" y="61.887"/><use xlink:href="#p" x="108.677" y="61.887"/><use xlink:href="#q" x="115.874" y="61.887"/><use xlink:href="#r" x="123.072" y="61.887"/><use xlink:href="#s" x="130.269" y="61.887"/><use xlink:href="#t" x="137.466" y="61.887"/><use xlink:href="#q" x="144.663" y="61.887"/><use xlink:href="#m" x="151.861" y="61.887"/><use xlink:href="#u" x="153.94" y="61.887"/><use xlink:href="#v" x="161.137" y="61.887"/><use xlink:href="#w" x="168.335" y="61.887"/><use xlink:href="#x" x="175.532" y="61.887"/><use xlink:href="#y" x="182.729" y="61.887"/><use xlink:href="#v" x="189.926" y="61.887"/></g><use xlink:href="#c" x="39.199" y="488.878" fill="#231f20"/><use xlink:href="#c" x="43.358" y="488.878" fill="#231f20"/><use xlink:href="#d" x="47.516" y="488.878" fill="#231f20"/><use xlink:href="#e" x="49.396" y="488.878" fill="#231f20"/><use xlink:href="#f" x="53.554" y="488.878" fill="#231f20"/><use xlink:href="#d" x="57.712" y="488.878" fill="#231f20"/><use xlink:href="#c" x="59.592" y="488.878" fill="#231f20"/><use xlink:href="#g" x="63.75" y="488.878" fill="#231f20"/><use xlink:href="#h" x="67.909" y="488.878" fill="#231f20"/><use xlink:href="#i" x="69.844" y="488.878" fill="#231f20"/><use xlink:href="#h" x="71.755" y="488.878" fill="#231f20"/><g fill="#231f20"><use xlink:href="#j" x="73.69" y="488.878"/><use xlink:href="#k" x="80.888" y="488.878"/><use xlink:href="#l" x="85.006" y="488.878"/><use xlink:href="#m" x="92.203" y="488.878"/><use xlink:href="#n" x="94.283" y="488.878"/><use xlink:href="#o" x="101.48" y="488.878"/><use xlink:href="#p" x="108.677" y="488.878"/><use xlink:href="#q" x="115.874" y="488.878"/><use xlink:href="#r" x="123.072" y="488.878"/><use xlink:href="#s" x="130.269" y="488.878"/><use xlink:href="#t" x="137.466" y="488.878"/><use xlink:href="#q" x="144.663" y="488.878"/><use xlink:href="#m" x="151.861" y="488.878"/><use xlink:href="#u" x="153.94" y="488.878"/><use xlink:href="#v" x="161.137" y="488.878"/><use xlink:href="#w" x="168.335" y="488.878"/><use xlink:href="#x" x="175.532" y="488.878"/><use xlink:href="#y" x="182.729" y="488.878"/><use xlink:href="#v" x="189.926" y="488.878"/></g><use xlink:href="#c" x="308.757" y="488.878" fill="#231f20"/><use xlink:href="#c" x="312.916" y="488.878" fill="#231f20"/><use xlink:href="#d" x="317.074" y="488.878" fill="#231f20"/><use xlink:href="#e" x="318.953" y="488.878" fill="#231f20"/><use xlink:href="#f" x="323.112" y="488.878" fill="#231f20"/><use xlink:href="#d" x="327.27" y="488.878" fill="#231f20"/><use xlink:href="#c" x="329.15" y="488.878" fill="#231f20"/><use xlink:href="#g" x="333.308" y="488.878" fill="#231f20"/><use xlink:href="#h" x="337.466" y="488.878" fill="#231f20"/><use xlink:href="#i" x="339.402" y="488.878" fill="#231f20"/><use xlink:href="#h" x="341.313" y="488.878" fill="#231f20"/><g fill="#231f20"><use xlink:href="#j" x="343.248" y="488.878"/><use xlink:href="#k" x="350.445" y="488.878"/><use xlink:href="#l" x="354.564" y="488.878"/><use xlink:href="#m" x="361.761" y="488.878"/><use xlink:href="#n" x="363.84" y="488.878"/><use xlink:href="#o" x="371.038" y="488.878"/><use xlink:href="#p" x="378.235" y="488.878"/><use xlink:href="#q" x="385.432" y="488.878"/><use xlink:href="#r" x="392.63" y="488.878"/><use xlink:href="#s" x="399.827" y="488.878"/><use xlink:href="#t" x="407.024" y="488.878"/><use xlink:href="#q" x="414.221" y="488.878"/><use xlink:href="#m" x="421.419" y="488.878"/><use xlink:href="#u" x="423.498" y="488.878"/><use xlink:href="#v" x="430.695" y="488.878"/><use xlink:href="#w" x="437.892" y="488.878"/><use xlink:href="#x" x="445.09" y="488.878"/><use xlink:href="#y" x="452.287" y="488.878"/><use xlink:href="#v" x="459.484" y="488.878"/></g></svg>