<svg xmlns="http://www.w3.org/2000/svg" xmlns:xlink="http://www.w3.org/1999/xlink" width="793.033" height="1122.52" viewBox="0 0 594.7751 841.89" version="1.2"><defs><symbol overflow="visible" id="a"><path d="M1.016-7.813v1.032h2.843C3.672-5.563 2.516-4.547.484-4.047l.5 1.031c2.735-.687 4.282-2.359 4.282-4.796zm2.28 6.016h3.485V-.28H3.297zM1.985.75h6.094v-3.578H1.984zM6.75-8.344v5.125h1.328v-5.125zm0 0"/></symbol><symbol overflow="visible" id="b"><path d="M3.86-4.484H2.11v-2.157h1.75zM6.812-5.97v.782H5.155v-.782zM5.155-4.125h1.657v1.172h1.312v-5.39H6.812v1.327H5.157v-.671H.813v4.234h4.343zm-.14 3.969c-1.204 0-1.829-.25-1.829-.781 0-.516.626-.766 1.829-.766 1.203 0 1.828.25 1.828.766 0 .53-.625.78-1.828.78zm0-2.563c-1.954 0-3.157.656-3.157 1.781C1.86.204 3.063.86 5.016.86S8.172.203 8.172-.937c0-1.125-1.203-1.782-3.156-1.782zm0 0"/></symbol><symbol overflow="visible" id="c"><path d="M5.438-6.125v1.063h1.375v2.187h1.312v-5.469H6.812v2.219zm.546 1.969C4.578-4.61 3.938-5.688 3.906-6.734h1.781v-1.063H.734v1.063h1.813c-.031 1.14-.703 2.312-2.172 2.828l.672 1.031c1.078-.36 1.797-1.11 2.203-2.031.406.812 1.094 1.453 2.094 1.781zM5.016-.125c-1.204 0-1.829-.25-1.829-.781 0-.516.626-.766 1.829-.766 1.203 0 1.828.25 1.828.766 0 .531-.625.781-1.828.781zm0-2.547c-1.954 0-3.157.656-3.157 1.766C1.86.219 3.063.875 5.016.875S8.172.219 8.172-.906c0-1.11-1.203-1.766-3.156-1.766zm0 0"/></symbol><symbol overflow="visible" id="v"><path d="M1.984-6.219h2.11v-1.078H.687v6.094h.641c1.188 0 2.156-.047 3.281-.25l-.093-1.078a15.73 15.73 0 0 1-2.532.234zm5.094-2.14v3.546H6.25v-3.375H5.016V.438H6.25V-3.75h.828V.86h1.25v-9.22zm0 0"/></symbol><symbol overflow="visible" id="w"><path d="M1.234-4.531c1.735-.157 2.86-.797 3.36-1.672.484.875 1.61 1.516 3.343 1.672l.47-1.016c-1.72-.156-2.626-.75-2.86-1.375H8v-1.047H1.187v1.047h2.438C3.406-6.297 2.5-5.703.797-5.547zM6.438-.797c0 .453-.641.656-1.875.656-1.22 0-1.86-.203-1.86-.656 0-.469.64-.672 1.86-.672 1.234 0 1.875.203 1.875.672zM8.75-3.125v-1.047H.437v1.047h3.5v.672c-1.609.14-2.562.703-2.562 1.656C1.375.266 2.578.875 4.563.875c2 0 3.203-.61 3.203-1.672 0-.937-.938-1.515-2.516-1.64v-.688zm0 0"/></symbol><symbol overflow="visible" id="E"><path d="M3.813-4.328H2v-1.219h1.813zm1.296-3.438H3.813v1.22H2v-1.22H.703v4.47H5.11zM1.531-1.375H6.36v2.25h1.329v-3.297H1.53zm7.375-4.734H7.687v-2.235H6.36v5.516h1.329v-2.203h1.218zm0 0"/></symbol><symbol overflow="visible" id="F"><path d="M6.813-5.844v.86H4.78v1.046h2.032v.891h1.312v-5.297H6.812v1.453H5.157a4.87 4.87 0 0 0 .063-.843H1v1.062h2.781C3.61-5.422 2.594-4.438.5-3.875l.516 1.047c2.03-.578 3.312-1.563 3.89-3.016zm-1.72 5.64c-1.14 0-1.812-.296-1.812-.859 0-.562.672-.843 1.813-.843 1.125 0 1.797.281 1.797.843 0 .563-.672.86-1.797.86zm0-2.733c-1.89 0-3.109.734-3.109 1.874 0 1.157 1.22 1.875 3.11 1.875 1.86 0 3.093-.718 3.093-1.875 0-1.14-1.234-1.875-3.093-1.875zm0 0"/></symbol><symbol overflow="visible" id="G"><path d="M4.578-6.984c1.203 0 1.969.359 1.969 1.015 0 .672-.766 1.032-1.969 1.032s-1.984-.36-1.984-1.032c0-.656.781-1.015 1.984-1.015zm0 3.093c1.969 0 3.328-.812 3.328-2.078 0-1.25-1.36-2.078-3.328-2.078-1.969 0-3.328.828-3.328 2.078 0 1.266 1.36 2.078 3.328 2.078zm4.188.688H.437v1.062h3.47V.875h1.327v-3.016h3.532zm0 0"/></symbol><symbol overflow="visible" id="ab"><path d="M6.734-8.36V.876h1.329v-9.234zm-3.625.657c-1.39 0-2.421 1.25-2.421 3.266 0 2.03 1.03 3.312 2.421 3.312 1.391 0 2.422-1.281 2.422-3.313 0-2.015-1.031-3.265-2.422-3.265zm0 1.187c.688 0 1.157.72 1.157 2.079 0 1.375-.47 2.109-1.157 2.109-.671 0-1.156-.735-1.156-2.11 0-1.359.484-2.078 1.156-2.078zm0 0"/></symbol><symbol overflow="visible" id="ac"><path d="M8.344-5.64C6.28-5.907 5.266-6.954 5.266-7.923v-.266h-1.36v.266c0 .969-1 2.016-3.062 2.281l.469 1.032c1.562-.22 2.703-.891 3.28-1.782.595.891 1.704 1.563 3.282 1.782zM4.563-.126c-1.22 0-1.86-.203-1.86-.672 0-.469.64-.687 1.86-.687 1.234 0 1.875.218 1.875.687 0 .469-.641.672-1.875.672zm0-2.344c-1.985 0-3.188.594-3.188 1.672C1.375.266 2.578.875 4.563.875c2 0 3.203-.61 3.203-1.672 0-1.078-1.204-1.672-3.204-1.672zM.438-4.125v1.047H8.75v-1.047zm0 0"/></symbol><symbol overflow="visible" id="ad"><path d="M8.766-3.89H7.437c.266-1.516.266-2.579.266-3.36v-.594H1.406v1.078h4.985c-.016.72-.047 1.641-.282 2.875H.438v1.079h1.859V.874h1.312v-3.688h1.875V.876h1.313v-3.688h1.969zm0 0"/></symbol><symbol overflow="visible" id="aI"><path d="M4.594-7.047c1.234 0 1.968.313 1.968.86 0 .578-.734.859-1.968.859-1.235 0-1.969-.281-1.969-.86 0-.546.734-.859 1.969-.859zm0 2.766c2 0 3.343-.735 3.343-1.907 0-1.156-1.343-1.89-3.343-1.89s-3.328.734-3.328 1.89c0 1.172 1.328 1.907 3.328 1.907zM2.766-1.984H1.437V.703h6.375V-.344H2.766zM.437-3.656v1.062H8.75v-1.062zm0 0"/></symbol><symbol overflow="visible" id="aJ"><path d="M1.313-3.797c1.609-.219 2.734-.906 3.28-1.844.563.938 1.688 1.625 3.298 1.844l.468-1.015c-1.875-.235-2.843-1.141-2.968-2.016H8v-1.047H1.172v1.047h2.64c-.124.875-1.109 1.781-2.984 2.016zm7.453.531H.437v1.063h3.47V.875h1.327v-3.078h3.532zm0 0"/></symbol><symbol overflow="visible" id="aR"><path d="M1.266-2.906C2.875-3.203 4.03-4 4.594-5.094c.593 1.078 1.75 1.844 3.375 2.14L8.469-4c-1.985-.297-3.047-1.406-3.172-2.594h2.766v-1.062H1.125v1.062h2.75c-.11 1.188-1.188 2.344-3.11 2.64zm4 1.625v-2.032H3.937v2.032h-3.5v1.078h8.329v-1.078zm0 0"/></symbol><symbol overflow="visible" id="aS"><path d="M4.594-7.14c1.25 0 1.968.265 1.968.796 0 .547-.718.797-1.968.797s-1.969-.25-1.969-.797c0-.531.719-.797 1.969-.797zm0 2.624c2.031 0 3.343-.687 3.343-1.828 0-1.125-1.312-1.812-3.343-1.812-2.032 0-3.328.687-3.328 1.812 0 1.14 1.296 1.828 3.328 1.828zM8.75-2.984v-1.032H.437v1.032h3.485v.812H1.344v1.031h5.093V.875H7.75v-3.047H5.234v-.812zm0 0"/></symbol><symbol overflow="visible" id="aT"><path d="M3.344-6.36h1.344v-1.077H.593v1.078h1.469v.453c0 1.578-.47 3.218-1.813 4.078l.781.969c.828-.516 1.375-1.422 1.688-2.47.297.97.828 1.767 1.64 2.25l.766-.968c-1.328-.765-1.781-2.328-1.781-3.86zm1.875 1.157H4.047v1.062h1.172V.438h1.234v-8.641H5.22zm1.86-3.156V.844h1.25V-8.36zm0 0"/></symbol><symbol overflow="visible" id="d"><path d="M1.266-1.344c.468 0 .906-.39.906-1 0-.594-.438-.984-.906-.984-.47 0-.907.39-.907.984 0 .61.438 1 .907 1zm0 0"/></symbol><symbol overflow="visible" id="f"><path d="M1.938 1.547l.28-.14C1.532.28 1.173-1.079 1.173-2.47c0-1.375.36-2.734 1.047-3.86l-.281-.155C1.203-5.297.766-4.031.766-2.47c0 1.563.437 2.844 1.171 4.016zm0 0"/></symbol><symbol overflow="visible" id="g"><path d="M2.688-5.89H2.28v1.421c0 1.282-.969 2.64-1.89 3.125l.25.36C1.42-1.438 2.187-2.406 2.5-3.5c.313 1.047 1.063 1.938 1.844 2.36l.25-.329c-.922-.484-1.907-1.765-1.907-3zm4.421 2.312H5.86v-2.969h-.421v7.11h.421V-3.22h1.25zm0 0"/></symbol><symbol overflow="visible" id="h"><path d="M.578 1.547C1.313.375 1.75-.906 1.75-2.47c0-1.562-.438-2.828-1.172-4.015l-.281.156c.687 1.125 1.062 2.484 1.062 3.86 0 1.39-.375 2.75-1.062 3.874zm0 0"/></symbol><symbol overflow="visible" id="i"><path d="M4.688-5.594H2.796v-.937h-.422v.937H.485v.344h4.202zM1.296-3.469c0-.578.531-.969 1.281-.969.766 0 1.281.391 1.281.97 0 .546-.515.952-1.28.952-.75 0-1.282-.406-1.282-.953zm2.953 0c0-.797-.656-1.312-1.672-1.312-1 0-1.672.515-1.672 1.312 0 .781.672 1.297 1.672 1.297 1.016 0 1.672-.515 1.672-1.297zM2.016-1.64h-.422V.391H6.28V.03H2.016zm3.906-2.468v-2.422H5.5v5.328h.422V-3.75h1.125v-.36zm0 0"/></symbol><symbol overflow="visible" id="j"><path d="M6.906-3.234v-.36H5.828c.188-.906.188-1.578.188-2.11v-.484H1.28v.36H5.61v.125c0 .531 0 1.187-.218 2.11H.453v.359h3v1.468H1.141v.36h4.515V.562h.438v-2.328H3.875v-1.468zm0 0"/></symbol><symbol overflow="visible" id="k"><path d="M2.766-6C1.656-6 .89-5.344.89-4.375S1.656-2.75 2.766-2.75c1.109 0 1.875-.656 1.875-1.625S3.875-6 2.766-6zm0 .375c.843 0 1.468.516 1.468 1.25s-.625 1.25-1.468 1.25c-.844 0-1.47-.516-1.47-1.25s.626-1.25 1.47-1.25zm2.968-.922v7.11h.422v-7.11zM.563-1.078c1.296 0 3.062 0 4.703-.297l-.047-.328c-1.578.25-3.39.266-4.719.266zm0 0"/></symbol><symbol overflow="visible" id="l"><path d="M2.781-2.234h1.86v1.5H2.78zm2.281 1.5v-1.5H6.22v-.36h-4.5v-1.36h4.343v-2.015H1.266v.344H5.64v1.313H1.297v2.078h1.062v1.5H.453v.359h6.453v-.36zm0 0"/></symbol><symbol overflow="visible" id="m"><path d="M.89-5.766v.36h2.844C3.61-3.641 2.531-2.141.578-1.188l.235.344C3.108-1.969 4.155-3.78 4.155-5.766zm4.923-.78V.562h.421v-7.11zm0 0"/></symbol><symbol overflow="visible" id="n"><path d="M4.531-2.844c-.984-.36-1.828-1.297-1.828-2.312v-.969h-.406v.938c0 1.187-.813 2.14-1.813 2.546l.22.344a3.114 3.114 0 0 0 1.812-1.969c.296.797 1 1.454 1.796 1.766zM2.047-1.78h-.438V.39h4.657V.03h-4.22zm3.875-2.516v-2.25H5.5v5.281h.422v-2.671h1.125v-.36zm0 0"/></symbol><symbol overflow="visible" id="o"><path d="M5.813.094H2.219V-.97h3.594zm0-1.422H2.219V-2.36h-.422V.453h4.437v-2.812h-.421zm-3.438-2c-.813 0-1.39-.547-1.39-1.25 0-.734.578-1.266 1.39-1.266.813 0 1.39.532 1.39 1.266 0 .703-.578 1.25-1.39 1.25zm3.438-3.219v1.766H4.171c-.11-.86-.813-1.422-1.797-1.422-1.063 0-1.797.656-1.797 1.625 0 .953.735 1.61 1.797 1.61 1 0 1.703-.579 1.797-1.454h1.64v1.688h.422v-3.813zm0 0"/></symbol><symbol overflow="visible" id="p"><path d="M4.484-5.766h-1.78v-.859h-.438v.86H.453v.359h4.031zM1.297-3.703c0-.547.484-.922 1.187-.922.688 0 1.157.375 1.157.922s-.47.922-1.157.922c-.703 0-1.187-.375-1.187-.922zm2.766 0c0-.781-.641-1.266-1.579-1.266-.937 0-1.578.485-1.578 1.266s.64 1.265 1.578 1.265c.938 0 1.579-.484 1.579-1.265zM5.827.094H2.172v-.922h3.656zm0-1.266H2.172v-.86H1.75V.454h4.484V-2.03h-.406zm-.016-5.375v1.75H4.438v.36h1.375v1.015H4.438v.344h1.375v.703h.422v-4.172zm0 0"/></symbol><symbol overflow="visible" id="q"><path d="M4.984-5.625H3.047v-.938h-.438v.938H.656v.36h4.328zm-3.421 2.14c0-.562.515-.953 1.265-.953.75 0 1.266.391 1.266.954 0 .562-.516.968-1.266.968s-1.265-.406-1.265-.968zm1.484 1.297C3.922-2.265 4.5-2.75 4.5-3.484c0-.797-.672-1.297-1.672-1.297-1 0-1.672.5-1.672 1.297 0 .75.578 1.234 1.453 1.296v.876c-.75.03-1.468.046-2.109.046l.063.36c1.343 0 3.093-.016 4.703-.281L5.234-1.5c-.703.094-1.453.14-2.187.172zm2.687-4.359V.547h.422v-7.094zm0 0"/></symbol><symbol overflow="visible" id="r"><path d="M4.516-3.078c-.97-.36-1.813-1.297-1.813-2.313v-.812h-.422v.797c0 1.156-.812 2.125-1.812 2.515l.234.344a3.197 3.197 0 0 0 1.813-1.969c.28.813.984 1.454 1.765 1.766zM3.687.187c-1.14 0-1.874-.343-1.874-.89 0-.563.734-.906 1.875-.906 1.14 0 1.874.343 1.874.906 0 .547-.734.89-1.875.89zm0-2.14c-1.437 0-2.28.453-2.28 1.25C1.406.094 2.25.53 3.686.53c1.438 0 2.297-.437 2.297-1.234 0-.797-.859-1.25-2.296-1.25zm2.235-2.64v-1.954H5.5v4.375h.422v-2.062h1.125v-.36zm0 0"/></symbol><symbol overflow="visible" id="s"><path d="M1.75-1.938h-.438V.376h4.922v-.36H1.75zm4.078-1.265c.203-1.047.203-1.781.203-2.39v-.516h-4.75v.359H5.61v.156c0 .61 0 1.344-.218 2.39H.453v.36h6.438v-.36zm0 0"/></symbol><symbol overflow="visible" id="t"><path d="M5.61-3.578H1.733v-1.25H5.61zm.437-2.672h-.438v1.078H1.734V-6.25h-.437v3.031h4.75zm.844 3.984H.437v.36h3V.562h.422v-2.468h3.032zm0 0"/></symbol><symbol overflow="visible" id="u"><path d="M4.5-2.984c-.969-.329-1.766-1.188-1.766-2.172v-.469h1.672v-.36H.625v.36h1.688v.484c0 1.079-.844 1.985-1.844 2.344l.234.344c.828-.328 1.531-.985 1.828-1.86.297.766.953 1.375 1.766 1.672zM3.687.187c-1.14 0-1.874-.343-1.874-.921 0-.563.734-.907 1.875-.907 1.14 0 1.874.344 1.874.907 0 .578-.734.921-1.875.921zm0-2.171c-1.421 0-2.28.453-2.28 1.25 0 .812.859 1.265 2.28 1.265C5.11.531 5.985.078 5.985-.734c0-.797-.875-1.25-2.296-1.25zm2.235-2.657v-1.906H5.5v4.328h.422v-2.047h1.125v-.375zm0 0"/></symbol><symbol overflow="visible" id="x"><path d="M1.203-1.61v-3.874h2.86v-.36H.78v4.594h.531c1.391 0 2.297-.047 3.407-.25l-.063-.375c-1.062.203-1.968.266-3.343.266zM7.11-3.624H5.86v-2.922h-.421v7.11h.421v-3.829h1.25zm0 0"/></symbol><symbol overflow="visible" id="y"><path d="M5.797-6.547v7.11h.422v-7.11zm-3.281.578C1.484-5.969.75-5.016.75-3.53c0 1.484.734 2.437 1.766 2.437 1.03 0 1.765-.953 1.765-2.437 0-1.485-.734-2.438-1.765-2.438zm0 .375c.796 0 1.359.844 1.359 2.063 0 1.219-.563 2.078-1.36 2.078-.796 0-1.359-.86-1.359-2.078 0-1.219.563-2.063 1.36-2.063zm0 0"/></symbol><symbol overflow="visible" id="z"><path d="M4.094-5.406h.937v-.344H3.047v.344h.64v1.187c0 .813-.171 2.047-.828 2.797-.656-.781-.828-2.047-.828-2.797v-1.187h.64v-.344h-2v.344h.954v1.187c0 .907-.297 2.328-1.156 2.985l.281.328c.563-.469.89-1.266 1.063-2.063.156.797.468 1.656 1.046 2.125.579-.469.891-1.297 1.032-2.094.171.797.515 1.563 1.078 2.032l.281-.328C4.39-1.86 4.094-3.25 4.094-4.22zm1.765-1.14V.562h.422v-7.11zm0 0"/></symbol><symbol overflow="visible" id="A"><path d="M1.063-3.89l.078.374 4.421-.265a15.805 15.805 0 0 1-.203 1.875l.422.031c.235-1.375.235-2.344.235-3.219v-.703H1.25v.36h4.344v.343c0 .313 0 .64-.016.985zM4.421-.86V-2.78H4V-.86H2.656v-1.922h-.422V-.86H.454V-.5h6.421v-.36zm0 0"/></symbol><symbol overflow="visible" id="B"><path d="M1.047-3.14c.984-.204 2.203-.829 2.61-1.75.421.921 1.64 1.546 2.624 1.75l.172-.344c-1.062-.172-2.562-1-2.562-2.063v-.156h2.343v-.36H1.078v.36h2.36v.156c0 1.063-1.516 1.89-2.563 2.063zm5.828.718H.453v.344h2.985V.547h.421v-2.625h3.016zm0 0"/></symbol><symbol overflow="visible" id="C"><path d="M1.156-1.656v-3.64h2.235v-.36H.75v4.375h.438c1.171 0 1.859-.047 2.687-.235l-.047-.359c-.797.188-1.484.219-2.656.219zm4.875-4.89v2.921H4.813v-2.75h-.407V.172h.407v-3.438H6.03V.547h.422v-7.094zm0 0"/></symbol><symbol overflow="visible" id="D"><path d="M2.797-2.61H4.53v1.891H2.797zm-.14-2.859H4.64v2.5H2.656zm2.296 4.75v-1.89H6.25v-.36H5.062v-2.5H6.25v-.36H1.062v.36H2.25v2.5H1.062v.36h1.313v1.89H.453v.36h6.453v-.36zm0 0"/></symbol><symbol overflow="visible" id="H"><path d="M4.688-5.719H2.796v-.875h-.422v.875H.485v.344h4.202zM1.296-3.64c0-.546.531-.921 1.281-.921.766 0 1.281.375 1.281.921 0 .547-.515.922-1.28.922-.75 0-1.282-.375-1.282-.922zm2.953 0c0-.78-.656-1.265-1.672-1.265-1 0-1.672.484-1.672 1.265 0 .782.672 1.266 1.672 1.266 1.016 0 1.672-.484 1.672-1.266zM1.39-1.312H5.5V.546h.422v-2.219H1.39zm5.657-3.204H5.922v-2.03H5.5v4.437h.422v-2.032h1.125zm0 0"/></symbol><symbol overflow="visible" id="I"><path d="M3.594-3.156H1.219v-1.375h2.375zm.422-2.953h-.422v1.218H1.219v-1.218H.797v3.312h3.219zM1.39-1.47H5.5V.563h.422v-2.391H1.39zm5.656-3.156H5.922v-1.922H5.5v4.297h.422v-2.016h1.125zm0 0"/></symbol><symbol overflow="visible" id="J"><path d="M.563 1.406c.562-.281.953-.828.953-1.484 0-.422-.188-.688-.47-.688-.218 0-.437.141-.437.391a.41.41 0 0 0 .422.422c.032 0 .063 0 .094-.016 0 .485-.281.86-.703 1.078zm0 0"/></symbol><symbol overflow="visible" id="K"><path d="M5.813-4.766v1.125H3.765v.36h2.046v1.094h.422v-4.344h-.421v1.406H3.984a3.05 3.05 0 0 0 .11-.844H.922v.344H3.64c-.11 1.39-1.344 2.453-3.079 3l.204.344C2.25-2.75 3.39-3.61 3.859-4.766zM3.952.188c-1.156 0-1.906-.391-1.906-.985s.75-.969 1.906-.969 1.906.375 1.906.97c0 .593-.75.984-1.906.984zm0-2.297c-1.437 0-2.328.484-2.328 1.312 0 .844.89 1.328 2.328 1.328 1.438 0 2.313-.484 2.313-1.328 0-.828-.875-1.312-2.313-1.312zm0 0"/></symbol><symbol overflow="visible" id="L"><path d="M.984-4.453c0-.734.594-1.297 1.391-1.297s1.39.563 1.39 1.297-.593 1.297-1.39 1.297c-.797 0-1.39-.563-1.39-1.297zm4.829-.656v1.312H4.046c.078-.187.125-.422.125-.656 0-.234-.047-.453-.125-.656zm0 1.671v1.126h.421v-4.235h-.421v1.078H3.827c-.312-.39-.844-.64-1.453-.64-1.031 0-1.797.687-1.797 1.656 0 .984.766 1.672 1.797 1.672.61 0 1.14-.25 1.453-.656zM3.938.188C2.78.188 2.03-.189 2.03-.797c0-.61.75-1 1.906-1 1.172 0 1.922.39 1.922 1s-.75.985-1.921.985zm0-2.329c-1.438 0-2.329.5-2.329 1.344C1.61.047 2.5.531 3.938.531 5.39.531 6.265.047 6.265-.797c0-.844-.875-1.344-2.329-1.344zm0 0"/></symbol><symbol overflow="visible" id="M"><path d="M4.547-3.063c-.969-.374-1.813-1.296-1.813-2.328v-.812h-.421v.797C2.313-4.25 1.5-3.281.5-2.891l.219.344a3.178 3.178 0 0 0 1.828-1.969c.281.813.984 1.47 1.765 1.797zm-3 1.485h4.266v2.14h.421v-2.484H1.547zm4.266-4.969v1.578H4.125v.36h1.688v2.234h.421v-4.172zm0 0"/></symbol><symbol overflow="visible" id="N"><path d="M2.828-5.89h-.422v1.421c0 1.297-.969 2.64-1.906 3.157l.266.328c.78-.454 1.546-1.422 1.843-2.547.313 1.062 1.094 2 1.891 2.422l.25-.344C3.812-1.922 2.828-3.22 2.828-4.47zm2.985-.657v2.531H3.984v.36h1.829V.563h.421v-7.11zm0 0"/></symbol><symbol overflow="visible" id="O"><path d="M3.656-6.125c1.25 0 2.031.344 2.031.906 0 .578-.78.922-2.03.922-1.235 0-2.016-.344-2.016-.922 0-.562.78-.906 2.015-.906zm0 2.156c1.547 0 2.469-.437 2.469-1.25 0-.797-.922-1.234-2.469-1.234-1.531 0-2.453.437-2.453 1.234 0 .813.922 1.25 2.453 1.25zm3.219.906v-.359H.453v.36h3v.796H1.266v.344h4.343v.781H1.266V.453H6.25V.11H1.687v-.921h4.344v-1.454H3.875v-.796zm0 0"/></symbol><symbol overflow="visible" id="P"><path d="M5.594-4.938c0 .922 0 1.813-.25 3.032l.422.047c.25-1.25.25-2.125.25-3.079v-.828H1.14v.36h4.453zM4.344-.89v-2.406h-.422V-.89H2.594v-2.406h-.422V-.89H.453v.36h6.422v-.36zm0 0"/></symbol><symbol overflow="visible" id="Q"><path d="M5.813-4.953v1.094h-1.86v-1.094zM3.53-3.172H1.266V-4.5H3.53zm.422-.328h1.86v1.281h.421v-4.328h-.421v1.234h-1.86v-.796h-.422v1.25H1.266v-1.25H.844v3.296h3.11zM3.938.188c-1.157 0-1.891-.36-1.891-.954 0-.593.734-.953 1.89-.953 1.172 0 1.922.36 1.922.953 0 .594-.75.954-1.921.954zm0-2.25c-1.438 0-2.329.468-2.329 1.296C1.61.078 2.5.531 3.938.531 5.39.531 6.265.078 6.265-.766c0-.828-.875-1.296-2.329-1.296zm0 0"/></symbol><symbol overflow="visible" id="R"><path d="M4.234-2.297v.328H5.75v.844h.422v-5.406H5.75v4.234zm-1.5-3.61c.782 0 1.329.376 1.329.891 0 .532-.547.891-1.329.891-.78 0-1.328-.36-1.328-.89 0-.516.547-.891 1.328-.891zm0 2.11c1.047 0 1.735-.469 1.735-1.219 0-.75-.688-1.218-1.735-1.218C1.704-6.234 1-5.766 1-5.016s.703 1.22 1.734 1.22zm-.156 2.375H3v-1.437c.688-.047 1.406-.094 2.078-.22l-.047-.312c-1.531.204-3.297.22-4.625.22l.063.358c.625 0 1.344 0 2.11-.03zM1.906.031v-1.687h-.422V.39H6.36V.03zm0 0"/></symbol><symbol overflow="visible" id="S"><path d="M6.453-3.922c-1.047-.187-2.578-1-2.578-2.015v-.438h-.422v.438c0 1.046-1.515 1.843-2.578 2.015l.172.344c.984-.188 2.203-.797 2.61-1.703.437.89 1.64 1.515 2.624 1.703zM1.734-1.64h-.437V.391h4.875V.03H1.734zM.438-2.859v.359h3.046v1.594h.422V-2.5h2.985v-.36zm0 0"/></symbol><symbol overflow="visible" id="T"><path d="M4.734-5.781H2.891v-.782h-.422v.782H.609v.343h4.125zm-3.28 1.797c0-.47.484-.766 1.218-.766s1.219.297 1.219.766c0 .453-.485.765-1.22.765-.733 0-1.218-.312-1.218-.765zM4.968-2.5a28.38 28.38 0 0 1-2.078.203v-.61c.843-.046 1.39-.452 1.39-1.077 0-.672-.64-1.094-1.61-1.094-.968 0-1.608.422-1.608 1.094 0 .625.546 1.03 1.406 1.078v.625c-.735.031-1.438.031-2.031.031l.062.375c1.25-.016 2.984-.031 4.5-.313zM1.953-1.36h-.422V.39h4.61V.032H1.953zm3.922-2.609v-2.578h-.422v5.563h.422V-3.61h1.14v-.36zm0 0"/></symbol><symbol overflow="visible" id="U"><path d="M1.266-5.64H.844v4.296h.422c.812 0 1.609-.047 2.609-.25l-.063-.375c-.953.203-1.765.235-2.546.235zm4.765-.907v2.984H4.797v-2.812H4.39V.172h.406v-3.36H6.03v3.75h.407v-7.109zm0 0"/></symbol><symbol overflow="visible" id="V"><path d="M4.11-2.578c.218-1.406.218-2.375.218-2.89v-.266H.781v.359h3.125c0 .516-.015 1.453-.219 2.75zM2.436-3.703h-.421v2.234c-.579.016-1.141.016-1.641.016l.063.375c1.28 0 2.984-.031 4.484-.266l-.031-.312c-.766.11-1.625.156-2.454.172zm4.626.187h-1.25v-3.03H5.39V.562h.421v-3.688h1.25zm0 0"/></symbol><symbol overflow="visible" id="W"><path d="M6.5-3.734C5.437-3.906 3.89-4.75 3.89-5.828v-.438h-.437v.438c0 1.11-1.531 1.922-2.625 2.094l.188.343c1-.187 2.234-.796 2.656-1.75.422.938 1.656 1.563 2.64 1.75zm.375 1.265H.453v.36h2.985V.547h.421V-2.11h3.016zm0 0"/></symbol><symbol overflow="visible" id="X"><path d="M.781-5.984v.359h2.781c-.109 1.39-1.28 2.453-3.062 3l.172.36c2.047-.626 3.36-1.954 3.36-3.72zM3.734.187c-1.125 0-1.859-.39-1.859-.984s.734-.984 1.86-.984c1.124 0 1.859.39 1.859.984s-.735.985-1.86.985zm0-2.312c-1.39 0-2.265.5-2.265 1.328 0 .844.875 1.328 2.265 1.328 1.391 0 2.282-.484 2.282-1.328 0-.828-.891-1.328-2.282-1.328zm2.188-2.469v-1.953H5.5v4.328h.422v-2.015h1.125v-.36zm0 0"/></symbol><symbol overflow="visible" id="Y"><path d="M4.672-3.86c-1.188.25-2.234.329-3.297.329H1.25v-2.64H.844v3h.531c1.078 0 2.125-.079 3.36-.329zM1.938-1.75h3.578V.094H1.937zM1.53.438h4.39v-2.532h-4.39zm5.516-5.266H5.922v-1.703H5.5v4.015h.422v-1.953h1.125zm0 0"/></symbol><symbol overflow="visible" id="Z"><path d="M6.406-6.547h-.422v5.344h.422zm-1.781 5.14h.406V-6.39h-.406v1.75H3.359v.36h1.266zm-.672-1.405c-.875-.376-1.484-1.25-1.484-2.094v-1.125h-.406v1.125c0 .843-.641 1.86-1.532 2.281l.25.344c.703-.344 1.25-1.063 1.485-1.797a2.75 2.75 0 0 0 1.453 1.594zM2.281.03v-1.906H1.86V.391h4.782V.03zm0 0"/></symbol><symbol overflow="visible" id="aa"><path d="M1.203-1.563V-3.5H3.72v-.36H1.203V-5.5h2.86v-.375H.78v4.672h.531c1.454 0 2.282-.047 3.297-.25l-.046-.36c-.985.204-1.813.25-3.25.25zm4.61-4.984v2.781H4.188v.36h1.625V.563h.421v-7.11zm0 0"/></symbol><symbol overflow="visible" id="ae"><path d="M3.578-1.547H1.203v-2.062h2.375zm0-2.406H1.203v-1.969H.781v4.734H4v-4.734h-.422zm3.531.297H5.86v-2.89h-.421V.562h.421v-3.844h1.25zm0 0"/></symbol><symbol overflow="visible" id="af"><path d="M1.516-4.219c0-.86.921-1.453 2.14-1.453 1.235 0 2.14.594 2.14 1.453 0 .86-.905 1.453-2.14 1.453-1.219 0-2.14-.593-2.14-1.453zM3.875-.766v-1.656c1.375-.062 2.328-.75 2.328-1.797 0-1.093-1.062-1.797-2.547-1.797-1.484 0-2.531.704-2.531 1.797 0 1.047.953 1.735 2.328 1.797v1.656h-3v.36h6.438v-.36zm0 0"/></symbol><symbol overflow="visible" id="ag"><path d="M5.813-6.547v4.094h.421v-4.094zm-4.094 4.5v2.5h4.515v-2.5zm4.093.36v1.78H2.142v-1.78zM2.454-6.141c-1.047 0-1.797.657-1.797 1.625 0 .985.75 1.641 1.797 1.641 1.063 0 1.797-.656 1.797-1.64 0-.97-.734-1.626-1.797-1.626zm0 .36c.813 0 1.39.531 1.39 1.265 0 .735-.577 1.282-1.39 1.282-.812 0-1.39-.547-1.39-1.282 0-.734.578-1.265 1.39-1.265zm0 0"/></symbol><symbol overflow="visible" id="ah"><path d="M.86-5.766v.36h2.78C3.532-3.672 2.485-2.156.563-1.203l.235.344c2.265-1.125 3.265-2.97 3.265-4.907zm6.234 2.204H5.859v-2.985h-.421v7.11h.421v-3.766h1.235zm0 0"/></symbol><symbol overflow="visible" id="ai"><path d="M6.234-6.531h-.421v5.218h.421zM4.688-2.86c-.985-.391-1.86-1.391-1.86-2.547v-.735h-.406v.735c0 1.203-.844 2.265-1.844 2.687l.25.344a3.399 3.399 0 0 0 1.797-2.094c.297.907 1.016 1.61 1.828 1.953zM2.188.03V-1.78h-.422V.39h4.703V.03zm0 0"/></symbol><symbol overflow="visible" id="aj"><path d="M1.047-4.453c0-.75.594-1.297 1.39-1.297.813 0 1.391.547 1.391 1.297 0 .734-.578 1.281-1.39 1.281-.797 0-1.391-.547-1.391-1.281zm3.203 0c0-1-.75-1.656-1.813-1.656-1.046 0-1.796.656-1.796 1.656 0 .984.75 1.64 1.796 1.64 1.063 0 1.813-.656 1.813-1.64zM1.39-1.578H5.5v2.14h.422v-2.5H1.39zm5.641-3.438v-.359h-1.11v-1.172H5.5v4.234h.422V-3.5h1.11v-.36h-1.11v-1.156zm0 0"/></symbol><symbol overflow="visible" id="ak"><path d="M.734-5.594v.36h2.329C2.969-3.75 2.28-2.281.5-1.313l.266.297C2.812-2.14 3.469-3.89 3.469-5.594zm5.297-.953v2.969H4.86V-6.36h-.406V.17h.406v-3.39h1.172V.562h.407v-7.109zm0 0"/></symbol><symbol overflow="visible" id="al"><path d="M3.594-3.531H1.219v-1.266h2.375zm.422-2.735h-.422v1.125H1.219v-1.125H.797v3.094h3.219zM1.953-.859h3.969v-1.594H1.516v.344h4v.906H1.53V.453H6.22V.11H1.953zm3.969-4.063v-1.625H5.5v3.703h.422v-1.719h1.11v-.359zm0 0"/></symbol><symbol overflow="visible" id="am"><path d="M2.453-5.281h1.438v-.36H.547v.36h1.5v.765c0 1.485-.64 2.672-1.64 3.22l.28.327c.782-.453 1.344-1.265 1.579-2.344.25.954.78 1.688 1.515 2.094l.266-.328c-.969-.5-1.594-1.64-1.594-2.969zm3.594-1.266v2.953H4.89v-2.781h-.407V.172h.407v-3.39h1.156v3.78h.406v-7.109zm0 0"/></symbol><symbol overflow="visible" id="an"><path d="M4.625-3.328c-1.016.203-1.86.25-3.281.25h-.11v-2.469h2.704v-.36H.812v3.188h.532c1.437 0 2.297-.047 3.343-.25zm-2.61 1.437h-.421V.391H6.28V.03H2.016zm3.907-2.453v-2.218H5.5v5.156h.422V-3.97h1.125v-.375zm0 0"/></symbol><symbol overflow="visible" id="ao"><path d="M6.14-3.422H1.767v-1.047H5.89v-.36H1.766v-1h4.296v-.359H1.345v3.125H6.14zm.75 1.219H.454v.36h3V.561h.422v-2.406h3.016zm0 0"/></symbol><symbol overflow="visible" id="ap"><path d="M2.719-5.422H4.39v-.375H.594v.375h1.703v1.188C2.297-3 1.28-1.641.359-1.172l.266.344c.766-.422 1.578-1.39 1.89-2.469.313 1 1.079 1.89 1.844 2.297l.25-.344c-.937-.453-1.89-1.734-1.89-2.89zm4.39 1.844H5.86v-2.969h-.421v7.11h.421V-3.22h1.25zm0 0"/></symbol><symbol overflow="visible" id="aq"><path d="M4.719-3.188c-1-.359-1.89-1.28-1.89-2.374v-.704h-.407v.704c0 1.125-.875 2.125-1.86 2.515l.22.328c.827-.344 1.562-1.062 1.843-1.969.313.86 1.047 1.516 1.86 1.844zm-2.578 1.5h3.671V.095H2.142zM1.719.454h4.515v-2.5H1.72zm4.093-7V-2.5h.422v-4.047zm0 0"/></symbol><symbol overflow="visible" id="ar"><path d="M2.781-5.828c.797 0 1.375.453 1.375 1.062 0 .625-.578 1.079-1.375 1.079s-1.36-.454-1.36-1.079c0-.609.563-1.062 1.36-1.062zm0 2.5c1.047 0 1.781-.578 1.781-1.438 0-.843-.734-1.421-1.78-1.421-1.032 0-1.766.578-1.766 1.421 0 .86.734 1.438 1.765 1.438zm2.438.437c-1.61.25-3.438.266-4.797.266l.062.375c.641 0 1.36 0 2.125-.031V.344h.438v-2.656a27.057 27.057 0 0 0 2.203-.235zm.562-3.64V.562h.422V-6.53zm0 0"/></symbol><symbol overflow="visible" id="as"><path d="M.078 1.422h.375l2.64-7.703H2.72zm0 0"/></symbol><symbol overflow="visible" id="at"><path d="M6.5-4.375c-1.094-.14-2.625-.813-2.625-1.797v-.344h-.422v.344c0 .984-1.531 1.656-2.625 1.797l.14.328c1.016-.14 2.266-.672 2.688-1.5.422.828 1.656 1.36 2.688 1.5zm.375 1.25v-.344H.453v.344h3v.86H1.25v.343h4.36v.813H1.265V.453H6.25V.11H1.687v-.89h4.344v-1.485H3.875v-.859zm0 0"/></symbol><symbol overflow="visible" id="au"><path d="M4.219-4.625v.36h1.593v1.952h.422v-4.234h-.421v1.922zm.36 1.672c-.97-.36-1.782-1.25-1.782-2.219v-.437h1.656v-.36H.687v.36h1.688v.437c0 1.078-.86 2.047-1.844 2.422l.219.344c.828-.344 1.563-1.047 1.844-1.953.297.796.969 1.437 1.781 1.734zM3.937.203c-1.157 0-1.891-.36-1.891-.953 0-.594.734-.953 1.89-.953 1.172 0 1.922.36 1.922.953 0 .594-.75.953-1.921.953zm0-2.25c-1.438 0-2.329.469-2.329 1.297S2.5.547 3.938.547C5.39.547 6.265.078 6.265-.75S5.39-2.047 3.937-2.047zm0 0"/></symbol><symbol overflow="visible" id="av"><path d="M1.688-4.281h3.968v1.5H1.688zM3.874-.75v-1.672h2.203v-3.594h-.422v1.375H1.688v-1.375H1.25v3.594h2.203V-.75h-3v.36h6.453v-.36zm0 0"/></symbol><symbol overflow="visible" id="aw"><path d="M3.656.203c-1.234 0-1.984-.281-1.984-.781s.75-.797 1.984-.797c1.25 0 2 .297 2 .797s-.75.781-2 .781zm0-1.906c-1.531 0-2.406.39-2.406 1.125 0 .734.875 1.11 2.406 1.11 1.547 0 2.422-.376 2.422-1.11 0-.735-.875-1.125-2.422-1.125zm.219-1.016v-.86h2.203v-.343H1.75v-.89h4.094v-.344H1.75v-.828h4.297v-.344H1.328v2.75h2.125v.86h-3v.359h6.422v-.36zm0 0"/></symbol><symbol overflow="visible" id="ax"><path d="M1.313-6.219c-.5.328-.797.782-.797 1.422 0 .406.156.64.421.64.22 0 .375-.14.375-.374 0-.25-.187-.36-.375-.36H.86c.016-.5.22-.78.625-1.093zm0 0"/></symbol><symbol overflow="visible" id="ay"><path d="M1.328-5.438h1.11c1.015 0 1.578.313 1.578 1.172 0 .829-.563 1.235-1.579 1.235H1.329zM4.61 0L3.047-2.672c.875-.14 1.453-.672 1.453-1.594 0-1.14-.781-1.562-1.953-1.562H.844V0h.484v-2.625h1.188L4.078 0zm0 0"/></symbol><symbol overflow="visible" id="az"><path d="M.781-1.516c0-.546.406-.953.906-1.343A8.682 8.682 0 0 0 3.313-.875c-.359.36-.78.594-1.25.594-.703 0-1.28-.5-1.28-1.235zm.75-3.109c0-.531.297-.938.797-.938.453 0 .625.344.625.72 0 .593-.531.984-1.11 1.405-.202-.421-.312-.828-.312-1.187zM5.047-.297a3.834 3.834 0 0 1-1.125-.64c.469-.61.797-1.344 1.031-2.141h-.437c-.22.719-.5 1.36-.907 1.875A7.841 7.841 0 0 1 2.016-3.11c.656-.5 1.343-1 1.343-1.75 0-.625-.375-1.079-1.015-1.079-.735 0-1.235.563-1.235 1.313 0 .453.141.938.391 1.438C.89-2.75.312-2.25.312-1.484c0 .953.75 1.593 1.704 1.593.671 0 1.187-.296 1.609-.718.469.359.89.593 1.266.718zm0 0"/></symbol><symbol overflow="visible" id="aA"><path d="M.844 0h1.39c1.782 0 2.657-1.156 2.657-2.938 0-1.78-.875-2.89-2.672-2.89H.844zm.484-.406v-5.032h.844c1.547 0 2.219.985 2.219 2.5 0 1.516-.672 2.532-2.22 2.532zm0 0"/></symbol><symbol overflow="visible" id="aB"><path d="M4.484-5.75h-1.78v-.86h-.438v.86H.453v.36h4.031zM1.297-3.594c0-.562.484-.969 1.187-.969.688 0 1.157.407 1.157.97 0 .546-.47.952-1.157.952-.703 0-1.187-.406-1.187-.953zm2.766 0c0-.797-.657-1.312-1.579-1.312-.937 0-1.578.515-1.578 1.312 0 .781.64 1.297 1.578 1.297.922 0 1.579-.515 1.579-1.297zM1.546-1.219h4.266V.563h.421v-2.141H1.547zm4.266-5.328v1.828H4.438v.36h1.375v.953H4.438v.36h1.375v1h.421v-4.5zm0 0"/></symbol><symbol overflow="visible" id="aC"><path d="M5.625-4.14H1.719v-1.704h3.906zm.422-2.048h-4.75v2.391h4.75zM1.734-1.64h-.437V.391h4.875V.03H1.734zM.438-2.844v.36h3.046v1.578h.422v-1.578h2.985v-.36zm0 0"/></symbol><symbol overflow="visible" id="aD"><path d="M.688-4.14c.515-.329.812-.766.812-1.423 0-.406-.188-.64-.438-.64-.218 0-.375.14-.375.39 0 .235.188.36.375.36.032 0 .047 0 .079-.016-.016.5-.22.782-.61 1.094zm0 0"/></symbol><symbol overflow="visible" id="aE"><path d="M1.063-3.875l.078.375 4.421-.266c-.03.547-.109 1.141-.265 1.86l.437.047c.282-1.407.282-2.36.282-3.235v-.703H1.25v.36h4.344v.343c0 .328 0 .64-.016 1zM3.5-.859v-1.938h-.406v1.938H.454V-.5h6.421v-.36zm0 0"/></symbol><symbol overflow="visible" id="aF"><path d="M6.516-2.86C5.5-3.062 3.859-4.124 3.859-5.437v-.578h-.437v.579c0 1.312-1.61 2.375-2.625 2.578l.187.359c.954-.25 2.22-1.031 2.657-2.14.453 1.109 1.734 1.906 2.671 2.14zM.453-.812v.36h6.438v-.36zm0 0"/></symbol><symbol overflow="visible" id="aG"><path d="M4.625-3.594c-1.016.188-1.86.235-3.281.235h-.11v-2.329h2.704v-.359H.812v3.063h.532c1.437 0 2.297-.063 3.343-.266zM1.391-1.578H5.5v2.14h.422v-2.5H1.39zm5.656-3.094H5.922v-1.875H5.5v4.188h.422v-1.938h1.125zm0 0"/></symbol><symbol overflow="visible" id="aH"><path d="M2.828-5.89h-.422v1.421c0 1.328-1.015 2.672-1.953 3.157L.72-.97c.781-.437 1.578-1.39 1.906-2.5.328 1.063 1.14 1.985 1.906 2.39l.266-.343c-.938-.453-1.969-1.75-1.969-3.047zm2.969-.657v7.11h.422v-7.11zm0 0"/></symbol><symbol overflow="visible" id="aK"><path d="M4.625-2.984c-1-.297-1.86-1.094-1.86-2.063v-.234h1.672v-.344H2.766v-.969h-.422v.969H.64v.344h1.703v.234c0 1.016-.86 1.875-1.86 2.203l.22.344c.843-.313 1.562-.922 1.859-1.75.296.766 1.03 1.344 1.859 1.61zm-2.5 1.421h3.703V.095H2.125zM1.703.454h4.531v-2.36h-4.53zm4.11-7v2.063H4.218v.359h1.593v1.813h.422v-4.235zm0 0"/></symbol><symbol overflow="visible" id="aL"><path d="M2.453-5.844h-.406v1.453c0 1.22-.703 2.5-1.64 3.032l.28.312C1.407-1.484 2-2.359 2.25-3.375c.266.922.828 1.766 1.531 2.188l.266-.329c-.922-.546-1.594-1.765-1.594-2.89zm2.14 1.938H3.25v.36h1.344V.186H5v-6.562h-.406zm1.454-2.64V.562h.406v-7.11zm0 0"/></symbol><symbol overflow="visible" id="aM"><path d="M2.656-5.453h1.985v2.516H2.656zM3.86-.734v-1.844H6.25v-.36H5.062v-2.515H6.25v-.36H1.062v.36H2.25v2.516H1.062v.359h2.375v1.844H.454v.359h6.453v-.36zm0 0"/></symbol><symbol overflow="visible" id="aN"><path d="M3.656-5.89c1.188 0 2 .468 2 1.171 0 .688-.812 1.172-2 1.172-1.172 0-2-.484-2-1.172 0-.703.828-1.172 2-1.172zm0 2.702c1.469 0 2.438-.593 2.438-1.53 0-.938-.969-1.516-2.438-1.516-1.469 0-2.437.578-2.437 1.515 0 .938.968 1.532 2.437 1.532zm3.235.735H.453v.36H2.22v2.64h.437v-2.64h2v2.64h.438v-2.64H6.89zm0 0"/></symbol><symbol overflow="visible" id="aO"><path d="M4.203-4.516v.36h1.61v2.843h.421v-5.234h-.421v2.031zm.375 1.688c-.969-.344-1.781-1.25-1.781-2.219v-.5h1.656v-.36H.687v.36h1.688v.516c0 1.078-.875 2.015-1.86 2.39l.235.344c.828-.328 1.547-1.047 1.844-1.922.297.782.969 1.422 1.781 1.735zM2.218.032v-1.829h-.421V.391h4.656V.03zm0 0"/></symbol><symbol overflow="visible" id="aP"><path d="M2.969-4.906h1.734v-.36H2.984v-1.171h-.421v1.171H.813v.36h1.75v.703c0 1.344-.922 2.562-1.907 3.031l.25.328c.797-.422 1.563-1.281 1.875-2.344.313 1.016 1.078 1.829 1.875 2.22l.266-.345c-.984-.437-1.953-1.593-1.953-2.89zm2.828-1.64V.562h.422v-7.11zm0 0"/></symbol><symbol overflow="visible" id="aQ"><path d="M2.125-1.781h3.703V.094H2.125zM1.719.437h4.515v-2.562H1.72zm4.093-6.984v1.297H4c.063-.266.11-.531.11-.813H.905v.36h2.735c-.094 1.36-1.297 2.39-3.079 2.89l.188.36c1.531-.438 2.672-1.297 3.125-2.438h1.938v1.079H3.78v.359h2.031v1.015h.422v-4.109zm0 0"/></symbol><symbol overflow="visible" id="aU"><path d="M1.047-4.453c0-.75.594-1.297 1.406-1.297.797 0 1.375.547 1.375 1.297 0 .734-.578 1.266-1.375 1.266-.812 0-1.406-.532-1.406-1.266zm3.203 0c0-.984-.75-1.656-1.797-1.656-1.062 0-1.812.671-1.812 1.656 0 .969.75 1.64 1.812 1.64 1.047 0 1.797-.671 1.797-1.64zM3.687.187c-1.14 0-1.874-.359-1.874-.937 0-.578.734-.938 1.875-.938 1.14 0 1.874.36 1.874.938s-.734.938-1.875.938zm0-2.234c-1.421 0-2.28.485-2.28 1.297 0 .828.859 1.281 2.28 1.281C5.11.531 5.985.078 5.985-.75c0-.813-.875-1.297-2.296-1.297zm3.344-2.969v-.359h-1.11v-1.172H5.5v4.25h.422v-1.219h1.11v-.359h-1.11v-1.14zm0 0"/></symbol><symbol overflow="visible" id="aV"><path d="M4.844-4.156h1.14v2.125h.422v-4.516h-.422v2.031h-1.14v-1.89h-.407v4.125h.407zm-.735-1.469H2.484V-6.5h-.421v.875H.421v.36h3.687zm-2.953 2c0-.5.453-.86 1.11-.86.671 0 1.125.36 1.125.876 0 .5-.454.859-1.125.859-.672 0-1.11-.36-1.11-.875zm2.625 0c0-.734-.61-1.188-1.515-1.188-.891 0-1.5.454-1.5 1.204 0 .734.609 1.187 1.5 1.187.906 0 1.515-.453 1.515-1.203zM4.11.203c-1.171 0-1.906-.328-1.906-.86 0-.546.735-.874 1.906-.874 1.172 0 1.922.328 1.922.875 0 .531-.75.86-1.922.86zm0-2.062c-1.453 0-2.328.421-2.328 1.203C1.781.109 2.656.53 4.11.53 5.58.531 6.438.11 6.438-.656c0-.781-.86-1.203-2.329-1.203zm0 0"/></symbol><symbol overflow="visible" id="aW"><path d="M1.953 0h.813v-5.328H1.484l-.437.75h.906zm0 0"/></symbol><symbol overflow="visible" id="aX"><path d="M3.734-5.328H1.578L.797-2.641a1.88 1.88 0 0 1 .469-.234c.203-.078.375-.11.609-.11.25 0 .594.047.86.282.156.172.312.437.312.875 0 .453-.188.734-.344.906-.125.125-.375.297-.797.297a1.32 1.32 0 0 1-.687-.188 1.191 1.191 0 0 1-.39-.468l-.61.515c.25.375.547.563.625.61.328.203.687.25 1 .25.531 0 1.031-.14 1.453-.547.344-.36.531-.828.531-1.422 0-.688-.265-1.11-.515-1.36-.313-.328-.766-.484-1.204-.484-.078 0-.171.016-.25.016l.266-.875h1.61zm0 0"/></symbol></defs><g fill="#231f20"><use xlink:href="#a" x="240.699" y="238.48"/><use xlink:href="#b" x="249.696" y="238.48"/><use xlink:href="#c" x="258.693" y="238.48"/></g><use xlink:href="#d" x="240.699" y="254.714" fill="#231f20"/><g fill="#231f20"><use xlink:href="#e" x="243.082" y="254.714"/><use xlink:href="#f" x="244.698" y="254.714"/><use xlink:href="#g" x="247.057" y="254.714"/><use xlink:href="#h" x="254.254" y="254.714"/><use xlink:href="#i" x="256.613" y="254.714"/><use xlink:href="#j" x="263.811" y="254.714"/><use xlink:href="#k" x="271.008" y="254.714"/><use xlink:href="#l" x="278.205" y="254.714"/><use xlink:href="#m" x="285.402" y="254.714"/><use xlink:href="#m" x="292.6" y="254.714"/><use xlink:href="#n" x="299.797" y="254.714"/><use xlink:href="#o" x="306.994" y="254.714"/><use xlink:href="#p" x="314.192" y="254.714"/><use xlink:href="#q" x="321.389" y="254.714"/><use xlink:href="#e" x="328.586" y="254.714"/><use xlink:href="#r" x="330.202" y="254.714"/><use xlink:href="#s" x="337.399" y="254.714"/><use xlink:href="#t" x="344.596" y="254.714"/><use xlink:href="#q" x="351.793" y="254.714"/><use xlink:href="#u" x="358.991" y="254.714"/></g><g fill="#231f20"><use xlink:href="#a" x="52.045" y="493.871"/><use xlink:href="#v" x="61.042" y="493.871"/><use xlink:href="#w" x="70.038" y="493.871"/></g><use xlink:href="#d" x="52.045" y="510.105" fill="#231f20"/><g fill="#231f20"><use xlink:href="#e" x="54.428" y="510.105"/><use xlink:href="#i" x="56.044" y="510.105"/><use xlink:href="#j" x="63.241" y="510.105"/><use xlink:href="#x" x="70.438" y="510.105"/><use xlink:href="#y" x="77.635" y="510.105"/><use xlink:href="#y" x="84.833" y="510.105"/><use xlink:href="#z" x="92.03" y="510.105"/><use xlink:href="#n" x="99.227" y="510.105"/><use xlink:href="#A" x="106.424" y="510.105"/><use xlink:href="#f" x="113.622" y="510.105"/><use xlink:href="#B" x="115.981" y="510.105"/><use xlink:href="#h" x="123.178" y="510.105"/><use xlink:href="#e" x="125.537" y="510.105"/><use xlink:href="#C" x="127.153" y="510.105"/><use xlink:href="#D" x="134.35" y="510.105"/><use xlink:href="#y" x="141.547" y="510.105"/><use xlink:href="#g" x="148.744" y="510.105"/><use xlink:href="#e" x="155.942" y="510.105"/><use xlink:href="#g" x="157.557" y="510.105"/><use xlink:href="#u" x="164.754" y="510.105"/></g><g fill="#231f20"><use xlink:href="#E" x="240.791" y="492.792"/><use xlink:href="#F" x="249.788" y="492.792"/><use xlink:href="#G" x="258.784" y="492.792"/></g><use xlink:href="#d" x="240.791" y="509.026" fill="#231f20"/><g fill="#231f20"><use xlink:href="#e" x="243.174" y="509.026"/><use xlink:href="#y" x="244.79" y="509.026"/><use xlink:href="#H" x="251.987" y="509.026"/><use xlink:href="#e" x="259.184" y="509.026"/><use xlink:href="#k" x="260.8" y="509.026"/><use xlink:href="#H" x="267.997" y="509.026"/><use xlink:href="#e" x="275.194" y="509.026"/><use xlink:href="#I" x="276.81" y="509.026"/></g><g fill="#231f20"><use xlink:href="#g" x="284.007" y="509.026"/><use xlink:href="#J" x="291.364" y="509.026"/><use xlink:href="#e" x="293.363" y="509.026"/><use xlink:href="#K" x="295.139" y="509.026"/><use xlink:href="#L" x="302.496" y="509.026"/><use xlink:href="#H" x="309.853" y="509.026"/><use xlink:href="#e" x="317.21" y="509.026"/><use xlink:href="#M" x="318.986" y="509.026"/><use xlink:href="#g" x="326.343" y="509.026"/></g><use xlink:href="#d" x="240.791" y="524.02" fill="#231f20"/><g fill="#231f20"><use xlink:href="#e" x="243.174" y="524.02"/><use xlink:href="#N" x="244.79" y="524.02"/><use xlink:href="#O" x="251.987" y="524.02"/><use xlink:href="#C" x="259.184" y="524.02"/><use xlink:href="#H" x="266.381" y="524.02"/><use xlink:href="#P" x="273.579" y="524.02"/><use xlink:href="#Q" x="280.776" y="524.02"/><use xlink:href="#R" x="287.973" y="524.02"/><use xlink:href="#e" x="295.171" y="524.02"/><use xlink:href="#S" x="296.786" y="524.02"/><use xlink:href="#T" x="303.983" y="524.02"/><use xlink:href="#m" x="311.181" y="524.02"/><use xlink:href="#U" x="318.378" y="524.02"/><use xlink:href="#V" x="325.575" y="524.02"/><use xlink:href="#e" x="332.772" y="524.02"/><use xlink:href="#P" x="334.388" y="524.02"/><use xlink:href="#W" x="341.585" y="524.02"/></g><use xlink:href="#d" x="240.791" y="539.015" fill="#231f20"/><g fill="#231f20"><use xlink:href="#e" x="243.174" y="539.015"/><use xlink:href="#N" x="244.79" y="539.015"/><use xlink:href="#O" x="251.987" y="539.015"/><use xlink:href="#C" x="259.184" y="539.015"/><use xlink:href="#H" x="266.381" y="539.015"/><use xlink:href="#P" x="273.579" y="539.015"/><use xlink:href="#Q" x="280.776" y="539.015"/><use xlink:href="#R" x="287.973" y="539.015"/><use xlink:href="#e" x="295.171" y="539.015"/><use xlink:href="#X" x="296.786" y="539.015"/><use xlink:href="#Y" x="303.983" y="539.015"/><use xlink:href="#Z" x="311.181" y="539.015"/><use xlink:href="#aa" x="318.378" y="539.015"/><use xlink:href="#e" x="325.575" y="539.015"/><use xlink:href="#R" x="327.19" y="539.015"/><use xlink:href="#u" x="334.388" y="539.015"/></g><g fill="#231f20"><use xlink:href="#ab" x="52.089" y="237.401"/><use xlink:href="#ac" x="61.086" y="237.401"/><use xlink:href="#ad" x="70.082" y="237.401"/></g><use xlink:href="#d" x="52.089" y="253.635" fill="#231f20"/><g fill="#231f20"><use xlink:href="#e" x="54.472" y="253.635"/><use xlink:href="#i" x="56.087" y="253.635"/><use xlink:href="#j" x="63.285" y="253.635"/><use xlink:href="#ae" x="70.482" y="253.635"/><use xlink:href="#y" x="77.679" y="253.635"/><use xlink:href="#af" x="84.877" y="253.635"/><use xlink:href="#p" x="92.074" y="253.635"/><use xlink:href="#q" x="99.271" y="253.635"/><use xlink:href="#e" x="106.468" y="253.635"/><use xlink:href="#r" x="108.084" y="253.635"/><use xlink:href="#ag" x="115.281" y="253.635"/><use xlink:href="#t" x="122.478" y="253.635"/><use xlink:href="#q" x="129.676" y="253.635"/><use xlink:href="#u" x="136.873" y="253.635"/></g><use xlink:href="#d" x="52.089" y="268.629" fill="#231f20"/><g fill="#231f20"><use xlink:href="#e" x="54.472" y="268.629"/><use xlink:href="#j" x="56.087" y="268.629"/><use xlink:href="#ah" x="63.285" y="268.629"/><use xlink:href="#ai" x="70.482" y="268.629"/><use xlink:href="#aj" x="77.679" y="268.629"/><use xlink:href="#ak" x="84.877" y="268.629"/><use xlink:href="#al" x="92.074" y="268.629"/><use xlink:href="#am" x="99.271" y="268.629"/><use xlink:href="#an" x="106.468" y="268.629"/><use xlink:href="#ao" x="113.666" y="268.629"/><use xlink:href="#ap" x="120.863" y="268.629"/><use xlink:href="#aq" x="128.06" y="268.629"/><use xlink:href="#k" x="135.257" y="268.629"/><use xlink:href="#ar" x="142.455" y="268.629"/><use xlink:href="#R" x="149.652" y="268.629"/><use xlink:href="#as" x="156.849" y="268.629"/><use xlink:href="#y" x="159.84" y="268.629"/><use xlink:href="#g" x="167.037" y="268.629"/></g><use xlink:href="#d" x="52.089" y="283.624" fill="#231f20"/><g fill="#231f20"><use xlink:href="#e" x="54.472" y="283.624"/><use xlink:href="#V" x="56.087" y="283.624"/><use xlink:href="#H" x="63.285" y="283.624"/><use xlink:href="#m" x="70.482" y="283.624"/><use xlink:href="#at" x="77.679" y="283.624"/><use xlink:href="#au" x="84.877" y="283.624"/><use xlink:href="#av" x="92.074" y="283.624"/><use xlink:href="#aw" x="99.271" y="283.624"/><use xlink:href="#ai" x="106.468" y="283.624"/><use xlink:href="#t" x="113.666" y="283.624"/><use xlink:href="#e" x="120.863" y="283.624"/><use xlink:href="#ax" x="122.478" y="283.624"/><use xlink:href="#ay" x="124.318" y="283.624"/><use xlink:href="#az" x="129.02" y="283.624"/><use xlink:href="#aA" x="134.018" y="283.624"/><use xlink:href="#ao" x="139.232" y="283.624"/><use xlink:href="#ap" x="146.429" y="283.624"/><use xlink:href="#aB" x="153.627" y="283.624"/><use xlink:href="#ai" x="160.824" y="283.624"/><use xlink:href="#ap" x="168.021" y="283.624"/><use xlink:href="#aC" x="175.218" y="283.624"/><use xlink:href="#an" x="182.416" y="283.624"/><use xlink:href="#aD" x="189.613" y="283.624"/><use xlink:href="#e" x="191.452" y="283.624"/><use xlink:href="#ap" x="193.068" y="283.624"/><use xlink:href="#aC" x="200.265" y="283.624"/><use xlink:href="#ar" x="207.462" y="283.624"/><use xlink:href="#R" x="214.659" y="283.624"/></g><use xlink:href="#d" x="52.049" y="298.594" fill="#231f20"/><g fill="#231f20"><use xlink:href="#e" x="54.432" y="298.594"/><use xlink:href="#aE" x="56.047" y="298.594"/><use xlink:href="#aF" x="63.245" y="298.594"/><use xlink:href="#aG" x="70.442" y="298.594"/><use xlink:href="#aH" x="77.639" y="298.594"/><use xlink:href="#u" x="84.837" y="298.594"/><use xlink:href="#e" x="92.034" y="298.594"/><use xlink:href="#m" x="93.649" y="298.594"/><use xlink:href="#o" x="100.846" y="298.594"/><use xlink:href="#aq" x="108.044" y="298.594"/><use xlink:href="#g" x="115.241" y="298.594"/><use xlink:href="#ar" x="122.438" y="298.594"/><use xlink:href="#R" x="129.636" y="298.594"/><use xlink:href="#q" x="136.833" y="298.594"/><use xlink:href="#e" x="144.03" y="298.594"/><use xlink:href="#aq" x="145.646" y="298.594"/><use xlink:href="#k" x="152.843" y="298.594"/><use xlink:href="#ar" x="160.04" y="298.594"/><use xlink:href="#R" x="167.237" y="298.594"/><use xlink:href="#an" x="174.435" y="298.594"/><use xlink:href="#e" x="181.632" y="298.594"/><use xlink:href="#ar" x="183.247" y="298.594"/><use xlink:href="#R" x="190.445" y="298.594"/></g><g fill="#231f20"><use xlink:href="#ab" x="52.046" y="724.332"/><use xlink:href="#aI" x="61.043" y="724.332"/><use xlink:href="#aJ" x="70.039" y="724.332"/></g><use xlink:href="#d" x="52.046" y="740.566" fill="#231f20"/><g fill="#231f20"><use xlink:href="#e" x="54.429" y="740.566"/><use xlink:href="#N" x="56.045" y="740.566"/><use xlink:href="#O" x="63.242" y="740.566"/><use xlink:href="#C" x="70.439" y="740.566"/><use xlink:href="#Q" x="77.636" y="740.566"/><use xlink:href="#R" x="84.834" y="740.566"/><use xlink:href="#e" x="92.031" y="740.566"/><use xlink:href="#aK" x="93.646" y="740.566"/><use xlink:href="#an" x="100.844" y="740.566"/><use xlink:href="#aL" x="108.041" y="740.566"/><use xlink:href="#aM" x="115.238" y="740.566"/><use xlink:href="#aN" x="122.435" y="740.566"/><use xlink:href="#aO" x="129.633" y="740.566"/><use xlink:href="#ap" x="136.83" y="740.566"/><use xlink:href="#aP" x="144.027" y="740.566"/><use xlink:href="#l" x="151.225" y="740.566"/><use xlink:href="#Z" x="158.422" y="740.566"/><use xlink:href="#aa" x="165.619" y="740.566"/><use xlink:href="#e" x="172.816" y="740.566"/></g><g fill="#231f20"><use xlink:href="#e" x="52.046" y="750.162"/><use xlink:href="#e" x="53.901" y="750.162"/></g><g fill="#231f20"><use xlink:href="#Z" x="55.757" y="750.162"/><use xlink:href="#aa" x="62.954" y="750.162"/><use xlink:href="#u" x="70.151" y="750.162"/></g><use xlink:href="#d" x="52.046" y="764.821" fill="#231f20"/><g fill="#231f20"><use xlink:href="#e" x="54.429" y="764.821"/><use xlink:href="#N" x="56.045" y="764.821"/><use xlink:href="#O" x="63.242" y="764.821"/><use xlink:href="#C" x="70.439" y="764.821"/><use xlink:href="#H" x="77.636" y="764.821"/><use xlink:href="#P" x="84.834" y="764.821"/><use xlink:href="#Q" x="92.031" y="764.821"/><use xlink:href="#R" x="99.228" y="764.821"/><use xlink:href="#e" x="106.425" y="764.821"/><use xlink:href="#P" x="108.041" y="764.821"/><use xlink:href="#W" x="115.238" y="764.821"/></g><use xlink:href="#d" x="52.046" y="779.815" fill="#231f20"/><g fill="#231f20"><use xlink:href="#e" x="54.429" y="779.815"/><use xlink:href="#N" x="56.045" y="779.815"/><use xlink:href="#O" x="63.242" y="779.815"/><use xlink:href="#C" x="70.439" y="779.815"/><use xlink:href="#H" x="77.636" y="779.815"/><use xlink:href="#P" x="84.834" y="779.815"/><use xlink:href="#k" x="92.031" y="779.815"/><use xlink:href="#V" x="99.228" y="779.815"/><use xlink:href="#C" x="106.425" y="779.815"/><use xlink:href="#H" x="113.623" y="779.815"/><use xlink:href="#e" x="120.82" y="779.815"/><use xlink:href="#aQ" x="122.435" y="779.815"/><use xlink:href="#ag" x="129.633" y="779.815"/><use xlink:href="#P" x="136.83" y="779.815"/><use xlink:href="#W" x="144.027" y="779.815"/></g><g fill="#231f20"><use xlink:href="#aR" x="429.62" y="237.401"/><use xlink:href="#aS" x="438.617" y="237.401"/><use xlink:href="#aT" x="447.613" y="237.401"/></g><use xlink:href="#d" x="429.62" y="253.635" fill="#231f20"/><g fill="#231f20"><use xlink:href="#e" x="432.003" y="253.635"/><use xlink:href="#f" x="433.619" y="253.635"/><use xlink:href="#B" x="435.978" y="253.635"/><use xlink:href="#h" x="443.175" y="253.635"/><use xlink:href="#aN" x="445.534" y="253.635"/><use xlink:href="#i" x="452.732" y="253.635"/><use xlink:href="#aU" x="459.929" y="253.635"/><use xlink:href="#aV" x="467.126" y="253.635"/><use xlink:href="#e" x="474.323" y="253.635"/><use xlink:href="#C" x="475.939" y="253.635"/><use xlink:href="#D" x="483.136" y="253.635"/><use xlink:href="#y" x="490.333" y="253.635"/><use xlink:href="#g" x="497.531" y="253.635"/></g><g fill="#7b7979"><use xlink:href="#aW" x="557.772" y="818.875"/><use xlink:href="#aX" x="561.102" y="818.875"/></g></svg>