<svg xmlns="http://www.w3.org/2000/svg" xmlns:xlink="http://www.w3.org/1999/xlink" width="793.033" height="1122.52" viewBox="0 0 594.7751 841.89" version="1.2"><defs><symbol overflow="visible" id="a"><path d="M1.016-7.813v1.032h2.843C3.672-5.563 2.516-4.547.484-4.047l.5 1.031c2.735-.687 4.282-2.359 4.282-4.796zm2.28 6.016h3.485V-.28H3.297zM1.985.75h6.094v-3.578H1.984zM6.75-8.344v5.125h1.328v-5.125zm0 0"/></symbol><symbol overflow="visible" id="b"><path d="M1.984-3.969h2.282v-1.015H1.984v-1.36h2.47v-1.062H.733v6.172h.641c1.39 0 2.297-.032 3.36-.204L4.608-2.5c-.859.125-1.593.172-2.625.188zm5.094-4.39v3.562h-.734v-3.406H5.109V.453h1.235v-4.187h.734V.859h1.25v-9.218zm0 0"/></symbol><symbol overflow="visible" id="c"><path d="M6.813-2.484h1.312v-5.86H6.812v2.016H5.625v1.047h1.188v.797H5.609v1.046h1.204zM5.516-7.516H3.703v-.906H2.391v.906H.453v1.032h5.063zM2.125-4.437c0-.485.36-.75.922-.75.547 0 .937.265.937.75 0 .484-.39.734-.937.734-.563 0-.922-.25-.922-.735zm3.078 0c0-1.016-.89-1.72-2.156-1.72S.89-5.452.89-4.436c0 1.015.89 1.718 2.156 1.718 1.265 0 2.156-.703 2.156-1.719zM5.016-.141c-1.141 0-1.75-.187-1.75-.609 0-.438.609-.61 1.75-.61 1.14 0 1.765.173 1.765.61 0 .422-.625.61-1.765.61zm0-2.234c-1.938 0-3.157.61-3.157 1.625C1.86.266 3.08.86 5.016.86S8.172.265 8.172-.75 6.953-2.375 5.016-2.375zm0 0"/></symbol><symbol overflow="visible" id="u"><path d="M6.813-5.766v.922H5.171v-.922zM3.874-4.03h-1.75v-1.297h1.75zm1.297.234h1.64v2.25h1.313v-6.797H6.812v1.531h-1.64v-.921H3.875v1.39h-1.75v-1.39H.812v4.75h4.36zM3.375-.344v-1.86H2.047V.704h6.281V-.344zm0 0"/></symbol><symbol overflow="visible" id="v"><path d="M8.344-5.64C6.28-5.907 5.266-6.954 5.266-7.923v-.266h-1.36v.266c0 .969-1 2.016-3.062 2.281l.469 1.032c1.562-.22 2.703-.891 3.28-1.782.595.891 1.704 1.563 3.282 1.782zM4.563-.126c-1.22 0-1.86-.203-1.86-.672 0-.469.64-.687 1.86-.687 1.234 0 1.875.218 1.875.687 0 .469-.641.672-1.875.672zm0-2.344c-1.985 0-3.188.594-3.188 1.672C1.375.266 2.578.875 4.563.875c2 0 3.203-.61 3.203-1.672 0-1.078-1.204-1.672-3.204-1.672zM.438-4.125v1.047H8.75v-1.047zm0 0"/></symbol><symbol overflow="visible" id="w"><path d="M8.766-3.89H7.437c.266-1.516.266-2.579.266-3.36v-.594H1.406v1.078h4.985c-.016.72-.047 1.641-.282 2.875H.438v1.079h1.859V.874h1.312v-3.688h1.875V.876h1.313v-3.688h1.969zm0 0"/></symbol><symbol overflow="visible" id="d"><path d="M1.266-1.344c.468 0 .906-.39.906-1 0-.594-.438-.984-.906-.984-.47 0-.907.39-.907.984 0 .61.438 1 .907 1zm0 0"/></symbol><symbol overflow="visible" id="f"><path d="M2.125-1.688h3.703V.095H2.125zM1.703.454h4.531V-2.03h-4.53zm1.828-3.687H1.266v-1.329H3.53zm2.281-3.313v1.875H3.954v-1.484h-.422v1.234H1.266v-1.234H.844v3.281h3.11v-1.438h1.858v1.891h.422v-4.125zm0 0"/></symbol><symbol overflow="visible" id="g"><path d="M5.61-3.578H1.733v-1.25H5.61zm.437-2.672h-.438v1.078H1.734V-6.25h-.437v3.031h4.75zm.844 3.984H.437v.36h3V.562h.422v-2.468h3.032zm0 0"/></symbol><symbol overflow="visible" id="h"><path d="M2.781-4.906h1.672v-.36H2.797v-1.171h-.422v1.171H.672v.36h1.703v.703c0 1.328-.89 2.547-1.875 3.016l.266.343c.796-.422 1.515-1.312 1.812-2.375.313 1.016 1.047 1.828 1.844 2.235l.266-.329C3.703-1.78 2.78-2.938 2.78-4.203zm3.031-1.64v2.921H4.11v.36h1.704V.562h.421v-7.11zm0 0"/></symbol><symbol overflow="visible" id="i"><path d="M4.203-4.516v.36h1.61v2.843h.421v-5.234h-.421v2.031zm.375 1.688c-.969-.344-1.781-1.25-1.781-2.219v-.5h1.656v-.36H.687v.36h1.688v.516c0 1.078-.875 2.015-1.86 2.39l.235.344c.828-.328 1.547-1.047 1.844-1.922.297.782.969 1.422 1.781 1.735zM2.218.032v-1.829h-.421V.391h4.656V.03zm0 0"/></symbol><symbol overflow="visible" id="j"><path d="M1.047-3.14c.984-.204 2.203-.829 2.61-1.75.421.921 1.64 1.546 2.624 1.75l.172-.344c-1.062-.172-2.562-1-2.562-2.063v-.156h2.343v-.36H1.078v.36h2.36v.156c0 1.063-1.516 1.89-2.563 2.063zm5.828.718H.453v.344h2.985V.547h.421v-2.625h3.016zm0 0"/></symbol><symbol overflow="visible" id="k"><path d="M2.766-6C1.656-6 .89-5.344.89-4.375S1.656-2.75 2.766-2.75c1.109 0 1.875-.656 1.875-1.625S3.875-6 2.766-6zm0 .375c.843 0 1.468.516 1.468 1.25s-.625 1.25-1.468 1.25c-.844 0-1.47-.516-1.47-1.25s.626-1.25 1.47-1.25zm2.968-.922v7.11h.422v-7.11zM.563-1.078c1.296 0 3.062 0 4.703-.297l-.047-.328c-1.578.25-3.39.266-4.719.266zm0 0"/></symbol><symbol overflow="visible" id="l"><path d="M2.781-2.234h1.86v1.5H2.78zm2.281 1.5v-1.5H6.22v-.36h-4.5v-1.36h4.343v-2.015H1.266v.344H5.64v1.313H1.297v2.078h1.062v1.5H.453v.359h6.453v-.36zm0 0"/></symbol><symbol overflow="visible" id="m"><path d="M.89-5.766v.36h2.844C3.61-3.641 2.531-2.141.578-1.188l.235.344C3.108-1.969 4.155-3.78 4.155-5.766zm4.923-.78V.562h.421v-7.11zm0 0"/></symbol><symbol overflow="visible" id="n"><path d="M.984-4.344c0-.765.594-1.36 1.391-1.36s1.39.595 1.39 1.36c0 .797-.593 1.39-1.39 1.39-.797 0-1.39-.593-1.39-1.39zm4.829-.672v1.344h-1.75c.078-.203.109-.422.109-.672 0-.234-.047-.468-.11-.672zm0 1.704v2.046h.421v-5.28h-.421v1.171H3.859c-.328-.422-.843-.703-1.484-.703-1.031 0-1.797.719-1.797 1.734 0 1.047.766 1.75 1.797 1.75.64 0 1.172-.265 1.5-.719zM2.219.03v-1.843h-.422V.39h4.656V.03zm0 0"/></symbol><symbol overflow="visible" id="o"><path d="M6.875-2.984h-1.11c.204-1.047.204-1.797.204-2.47v-.609H1.297v.36h4.25v.25c0 .672 0 1.422-.234 2.469H.452v.359h3V.563h.422v-3.188h3zm0 0"/></symbol><symbol overflow="visible" id="p"><path d="M.734-5.594v.36h2.329C2.969-3.75 2.28-2.281.5-1.313l.266.297C2.812-2.14 3.469-3.89 3.469-5.594zm5.297-.953v2.969H4.86V-6.36h-.406V.17h.406v-3.39h1.172V.562h.407v-7.109zm0 0"/></symbol><symbol overflow="visible" id="q"><path d="M3.594-3.531H1.219v-1.266h2.375zm.422-2.735h-.422v1.125H1.219v-1.125H.797v3.094h3.219zM1.953-.859h3.969v-1.594H1.516v.344h4v.906H1.53V.453H6.22V.11H1.953zm3.969-4.063v-1.625H5.5v3.703h.422v-1.719h1.11v-.359zm0 0"/></symbol><symbol overflow="visible" id="r"><path d="M4.625-3.328c-1.016.203-1.86.25-3.281.25h-.11v-2.469h2.704v-.36H.812v3.188h.532c1.437 0 2.297-.047 3.343-.25zm-2.61 1.437h-.421V.391H6.28V.03H2.016zm3.907-2.453v-2.218H5.5v5.156h.422V-3.97h1.125v-.375zm0 0"/></symbol><symbol overflow="visible" id="s"><path d="M1.734-1.563h-.421V.391h4.859V.03H1.734zM1.75-4.89h3.844v1.094H1.75zm2.125 2.297v-.86h2.156V-6.25h-.437v1.016H1.75V-6.25h-.438v2.797h2.141v.86h-3v.359h6.422v-.36zm0 0"/></symbol><symbol overflow="visible" id="t"><path d="M4.5-2.984c-.969-.329-1.766-1.188-1.766-2.172v-.469h1.672v-.36H.625v.36h1.688v.484c0 1.079-.844 1.985-1.844 2.344l.234.344c.828-.328 1.531-.985 1.828-1.86.297.766.953 1.375 1.766 1.672zM3.687.187c-1.14 0-1.874-.343-1.874-.921 0-.563.734-.907 1.875-.907 1.14 0 1.874.344 1.874.907 0 .578-.734.921-1.875.921zm0-2.171c-1.421 0-2.28.453-2.28 1.25 0 .812.859 1.265 2.28 1.265C5.11.531 5.985.078 5.985-.734c0-.797-.875-1.25-2.296-1.25zm2.235-2.657v-1.906H5.5v4.328h.422v-2.047h1.125v-.375zm0 0"/></symbol><symbol overflow="visible" id="x"><path d="M5.813.094H2.219V-.953h3.594zm0-1.39H2.219v-1h-.422v2.75h4.437v-2.75h-.421zM3.53-3.329H1.266v-1.297H3.53zm2.281-3.219v1.813H3.954v-1.454h-.422v1.22H1.266v-1.22H.844v3.22h3.11v-1.407h1.858v1.719h.422v-3.89zm0 0"/></symbol><symbol overflow="visible" id="y"><path d="M5.61-3.766H1.733V-5.78H5.61zm.421-2.359H1.313v2.703H6.03zm.86 3.797H.437v.36h3V.546h.422V-1.97h3.032zm0 0"/></symbol><symbol overflow="visible" id="z"><path d="M6.234-6.531h-.421v5.234h.421zM1.063-4.313c0-.765.593-1.328 1.39-1.328.797 0 1.39.563 1.39 1.329 0 .765-.593 1.359-1.39 1.359-.797 0-1.39-.594-1.39-1.36zm3.187 0c0-1-.75-1.718-1.797-1.718-1.031 0-1.797.718-1.797 1.718 0 1.016.766 1.735 1.797 1.735 1.047 0 1.797-.719 1.797-1.735zM2.187.032v-1.875h-.421V.391h4.703V.03zm0 0"/></symbol><symbol overflow="visible" id="A"><path d="M2.453-5.844h-.406v1.453c0 1.22-.703 2.5-1.64 3.032l.28.312C1.407-1.484 2-2.359 2.25-3.375c.266.922.828 1.766 1.531 2.188l.266-.329c-.922-.546-1.594-1.765-1.594-2.89zm2.14 1.938H3.25v.36h1.344V.186H5v-6.562h-.406zm1.454-2.64V.562h.406v-7.11zm0 0"/></symbol><symbol overflow="visible" id="B"><path d="M3.656-6.047c1.235 0 2.031.36 2.031.969 0 .594-.796.953-2.03.953-1.22 0-2.016-.36-2.016-.953 0-.61.796-.969 2.015-.969zm0 2.266c1.531 0 2.469-.469 2.469-1.297s-.938-1.313-2.469-1.313c-1.515 0-2.453.485-2.453 1.313s.938 1.297 2.453 1.297zm2 3.875H1.672v-1.578h3.984zM6.875-2.75v-.36H.453v.36h3v.906H1.266V.453h4.812v-2.297H3.875v-.906zm0 0"/></symbol><symbol overflow="visible" id="C"><path d="M1.828-5.36h1.406v3.626c-.468.03-.953.046-1.406.062zm1.828 0h.86v-.359H.546v.36h.86v3.687c-.36.016-.703.016-1.031.016l.063.375c1.28 0 3-.016 4.515-.25l-.031-.328c-.406.046-.828.078-1.266.109zM7.11-3.624H5.86v-2.922h-.421V.547h.421V-3.25h1.25zm0 0"/></symbol><symbol overflow="visible" id="D"><path d="M6.125-2.61H1.75v-1.312h4.156v-.36H1.75v-1.25h4.313v-.359h-4.75v3.641h4.812zM.453-.78v.36h6.438v-.36zm0 0"/></symbol><symbol overflow="visible" id="E"><path d="M1.266-1.547v-4.187H.844v4.546h.531c1.172 0 2.125-.062 3.234-.28l-.062-.376c-1.078.235-2.016.297-3.172.297zm4.562-5v2.422h-2.36v.36h2.36V.562h.422v-7.11zm0 0"/></symbol><symbol overflow="visible" id="F"><path d="M5.813-4.813v1.188h-1.86v-1.188zM3.53-2.905H1.266V-4.36H3.53zm.422-.375h1.86v2.015h.421v-5.28h-.421v1.374h-1.86v-.906h-.422v1.36H1.266v-1.36H.844v3.531h3.11zM2.188.03V-1.78h-.422V.39h4.656V.03zm0 0"/></symbol><symbol overflow="visible" id="G"><path d="M6.5-5.406H3.875v-1h-.422v1H.797v.36H6.5zM1.812-3.141c0-.609.735-.984 1.844-.984 1.125 0 1.86.375 1.86.984 0 .61-.735.985-1.86.985-1.11 0-1.844-.375-1.844-.985zM3.876-.703v-1.11c1.281-.046 2.063-.53 2.063-1.328 0-.843-.875-1.328-2.282-1.328-1.39 0-2.265.485-2.265 1.328 0 .797.78 1.282 2.062 1.329v1.109h-3v.36h6.438v-.36zm0 0"/></symbol><symbol overflow="visible" id="H"><path d="M2.688-5.89H2.28v1.421c0 1.282-.969 2.64-1.89 3.125l.25.36C1.42-1.438 2.187-2.406 2.5-3.5c.313 1.047 1.063 1.938 1.844 2.36l.25-.329c-.922-.484-1.907-1.765-1.907-3zm4.421 2.312H5.86v-2.969h-.421v7.11h.421V-3.22h1.25zm0 0"/></symbol><symbol overflow="visible" id="I"><path d="M1.953 0h.813v-5.328H1.484l-.437.75h.906zm0 0"/></symbol><symbol overflow="visible" id="J"><path d="M1.719.188L3.172-1.72c.234-.312.437-.547.64-.953a2.04 2.04 0 0 0 .25-1.015c0-.594-.234-.97-.453-1.204-.218-.234-.64-.53-1.343-.53-.594 0-1.032.202-1.36.546a1.92 1.92 0 0 0-.515 1.328c0 .563.218.953.484 1.219.203.219.594.5 1.219.5.094 0 .187-.016.281-.031L1.141-.25zm.5-2.72a1.05 1.05 0 0 1-.735-.296 1.098 1.098 0 0 1-.312-.781c0-.329.14-.61.312-.797.172-.157.454-.297.75-.297.266 0 .547.11.735.297.203.203.312.484.312.765 0 .282-.11.579-.312.797a1.016 1.016 0 0 1-.75.313zm0 0"/></symbol></defs><g fill="#231f20"><use xlink:href="#a" x="431.037" y="470.831"/><use xlink:href="#b" x="440.034" y="470.831"/><use xlink:href="#c" x="449.03" y="470.831"/></g><use xlink:href="#d" x="431.037" y="487.065" fill="#231f20"/><g fill="#231f20"><use xlink:href="#e" x="433.42" y="487.065"/><use xlink:href="#f" x="435.035" y="487.065"/><use xlink:href="#g" x="442.233" y="487.065"/><use xlink:href="#h" x="449.43" y="487.065"/><use xlink:href="#i" x="456.627" y="487.065"/><use xlink:href="#j" x="463.825" y="487.065"/><use xlink:href="#k" x="471.022" y="487.065"/><use xlink:href="#l" x="478.219" y="487.065"/><use xlink:href="#m" x="485.416" y="487.065"/><use xlink:href="#m" x="492.614" y="487.065"/><use xlink:href="#n" x="499.811" y="487.065"/><use xlink:href="#o" x="507.008" y="487.065"/><use xlink:href="#p" x="514.205" y="487.065"/><use xlink:href="#q" x="521.403" y="487.065"/><use xlink:href="#r" x="528.6" y="487.065"/><use xlink:href="#e" x="535.797" y="487.065"/><use xlink:href="#s" x="537.413" y="487.065"/><use xlink:href="#g" x="544.61" y="487.065"/><use xlink:href="#t" x="551.807" y="487.065"/></g><path d="M431.164 453.41h108.121V326.797h-108.12zm0 0" fill="none" stroke-width=".249905" stroke="#33459a"/><g fill="#231f20"><use xlink:href="#u" x="242.25" y="716.334"/><use xlink:href="#v" x="251.246" y="716.334"/><use xlink:href="#w" x="260.243" y="716.334"/></g><use xlink:href="#d" x="242.25" y="732.568" fill="#231f20"/><g fill="#231f20"><use xlink:href="#e" x="244.633" y="732.568"/><use xlink:href="#x" x="246.248" y="732.568"/><use xlink:href="#y" x="253.446" y="732.568"/><use xlink:href="#x" x="260.643" y="732.568"/><use xlink:href="#z" x="267.84" y="732.568"/><use xlink:href="#e" x="275.038" y="732.568"/><use xlink:href="#A" x="276.653" y="732.568"/><use xlink:href="#B" x="283.85" y="732.568"/><use xlink:href="#e" x="291.047" y="732.568"/><use xlink:href="#C" x="292.663" y="732.568"/><use xlink:href="#D" x="299.86" y="732.568"/><use xlink:href="#E" x="307.057" y="732.568"/><use xlink:href="#F" x="314.255" y="732.568"/><use xlink:href="#G" x="321.452" y="732.568"/><use xlink:href="#H" x="328.649" y="732.568"/></g><g fill="#7b7979"><use xlink:href="#I" x="557.772" y="818.875"/><use xlink:href="#J" x="560.907" y="818.875"/></g></svg>