<svg xmlns="http://www.w3.org/2000/svg" xmlns:xlink="http://www.w3.org/1999/xlink" width="793.033" height="1122.52" viewBox="0 0 594.7751 841.89" version="1.2"><defs><symbol overflow="visible" id="a"><path d="M2.734-5.516L1.281-3.609c-.234.312-.437.546-.64.953a2.17 2.17 0 0 0-.25 1.015c0 .516.187.907.453 1.204.406.421.89.53 1.36.53.343 0 .905-.062 1.343-.515.344-.344.515-.86.515-1.344 0-.484-.187-.937-.468-1.25C3.39-3.234 3-3.5 2.39-3.5c-.11 0-.204 0-.329.031l1.25-1.61zm-.5 2.704c.266 0 .563.109.735.296.203.204.312.532.312.797 0 .266-.11.594-.312.797a1.097 1.097 0 0 1-.735.297c-.28 0-.593-.14-.75-.297-.203-.203-.312-.531-.312-.797 0-.343.14-.625.312-.797.188-.187.485-.296.75-.296zm0 0"/></symbol><symbol overflow="visible" id="b"><path d="M1.953 0h.813v-5.328H1.484l-.437.75h.906zm0 0"/></symbol><symbol overflow="visible" id="c"><path d="M1.766-4.047c.468 0 .859-.36.859-.89 0-.547-.39-.922-.86-.922-.452 0-.843.375-.843.921 0 .532.39.891.844.891zm0 0"/></symbol><symbol overflow="visible" id="e"><path d="M5.813-9.375c1.75 0 2.937.672 2.937 1.688 0 1.046-1.188 1.703-2.938 1.703-1.718 0-2.906-.657-2.906-1.704 0-1.015 1.188-1.687 2.906-1.687zm0 4.25c2.39 0 4-.984 4-2.563 0-1.562-1.61-2.546-4-2.546-2.36 0-3.985.984-3.985 2.546 0 1.579 1.625 2.563 3.984 2.563zm5.203 1.11H.672v.874h4.625V.97h1.047v-4.11h4.672zm0 0"/></symbol><symbol overflow="visible" id="f"><path d="M10.5-6.25c-2.063-.313-4.11-1.766-4.11-3.39v-.641H5.298v.64c0 1.672-2.016 3.079-4.094 3.391l.422.86c1.781-.313 3.5-1.313 4.219-2.735.734 1.406 2.453 2.422 4.234 2.734zm.5 2.11H.687v.89h4.61V.969h1.047V-3.25h4.672zm0 0"/></symbol><symbol overflow="visible" id="g"><path d="M8.984-10.703V.984h1.032v-11.687zM4-9.797c-1.688 0-2.906 1.578-2.906 4.063C1.094-3.25 2.312-1.656 4-1.656c1.688 0 2.906-1.594 2.906-4.078C6.906-8.22 5.688-9.797 4-9.797zm0 .953c1.11 0 1.89 1.219 1.89 3.11C5.89-3.828 5.11-2.61 4-2.61c-1.125 0-1.906-1.22-1.906-3.125 0-1.891.781-3.11 1.906-3.11zm0 0"/></symbol><symbol overflow="visible" id="h"><path d="M4.516-8.625h2.546V-9.5H.875v.875h2.61v1.484c0 1.985-1.376 4.188-3 5.016l.609.844c1.281-.672 2.39-2.157 2.922-3.86.515 1.563 1.593 2.938 2.859 3.579l.594-.86c-1.657-.797-2.953-2.86-2.953-4.719zM11.344-6H9.469v-4.688H8.422V.97h1.047v-6.063h1.875zm0 0"/></symbol><symbol overflow="visible" id="i"><path d="M7.266-5.219c-1.641-.562-2.75-2.015-2.75-3.593v-1.282H3.469v1.188c0 1.781-1.11 3.375-2.844 4l.547.843A4.788 4.788 0 0 0 4-7c.516 1.188 1.484 2.156 2.719 2.625zM5.906.11C4.22.11 3.188-.359 3.188-1.17c0-.813 1.03-1.298 2.718-1.298s2.719.485 2.719 1.297C8.625-.359 7.594.11 5.906.11zm0-3.406c-2.328 0-3.765.766-3.765 2.125C2.14.188 3.578.953 5.906.953c2.313 0 3.766-.765 3.766-2.125 0-1.36-1.453-2.125-3.766-2.125zm3.625-4.39v-3H8.5v7.062h1.031v-3.172h1.703v-.89zm0 0"/></symbol><symbol overflow="visible" id="j"><path d="M4.719-9.688H3.687v2.094c0 2.219-1.374 4.453-3.062 5.266l.64.875C2.595-2.156 3.689-3.61 4.22-5.375c.547 1.672 1.64 3.047 2.937 3.703l.625-.86C6.094-3.311 4.72-5.452 4.72-7.593zm4.265-1.015V.984h1.032v-11.687zm0 0"/></symbol><symbol overflow="visible" id="k"><path d="M4.484-7.203c1.329 0 2.25.5 2.25 1.297 0 .797-.921 1.312-2.25 1.312-1.343 0-2.25-.515-2.25-1.312s.907-1.297 2.25-1.297zm0 3.266c1.829 0 3.063-.766 3.063-1.97 0-1.202-1.234-1.968-3.063-1.968-1.828 0-3.078.766-3.078 1.969s1.25 1.968 3.078 1.968zm3.985.843H.516v.688h3.562V.75h.797v-3.156h3.594zm0 0"/></symbol><symbol overflow="visible" id="l"><path d="M8.078-4.813c-1.594-.234-3.156-1.343-3.156-2.593v-.5h-.844v.5c0 1.281-1.547 2.36-3.14 2.593l.312.657c1.375-.235 2.703-1 3.25-2.094.563 1.078 1.89 1.86 3.25 2.094zm.39 1.625H.532v.688h3.547V.75h.797V-2.5h3.594zm0 0"/></symbol><symbol overflow="visible" id="m"><path d="M6.906-8.234v9h.797v-9zm-3.828.687c-1.312 0-2.234 1.234-2.234 3.14 0 1.907.922 3.126 2.234 3.126 1.297 0 2.235-1.219 2.235-3.125 0-1.907-.938-3.14-2.235-3.14zm0 .75c.844 0 1.453.938 1.453 2.39 0 1.454-.61 2.391-1.453 2.391-.86 0-1.469-.937-1.469-2.39s.61-2.39 1.47-2.39zm0 0"/></symbol><symbol overflow="visible" id="n"><path d="M3.484-6.625h1.938v-.688H.672v.688h2.015v1.14c0 1.516-1.062 3.22-2.312 3.86l.469.64c.984-.515 1.844-1.656 2.25-2.968.39 1.203 1.219 2.25 2.203 2.75l.453-.656c-1.266-.61-2.266-2.204-2.266-3.625zm5.25 2.016H7.281v-3.61H6.47V.734h.812v-4.656h1.453zm0 0"/></symbol><symbol overflow="visible" id="o"><path d="M5.594-4.016C4.328-4.453 3.469-5.562 3.469-6.78v-.985h-.797v.922c0 1.36-.86 2.578-2.188 3.078l.422.641a3.672 3.672 0 0 0 2.172-2.266 3.689 3.689 0 0 0 2.094 2.016zM4.547.094c-1.297 0-2.094-.375-2.094-1s.797-1 2.094-1c1.297 0 2.078.375 2.078 1s-.781 1-2.078 1zm0-2.64c-1.797 0-2.906.593-2.906 1.64S2.75.734 4.547.734c1.781 0 2.89-.593 2.89-1.64s-1.109-1.64-2.89-1.64zm2.797-3.36V-8.22H6.53v5.422h.813v-2.437H8.64v-.672zm0 0"/></symbol><symbol overflow="visible" id="q"><path d="M2.375 1.219l.344-.188c-.86-1.406-1.281-3.093-1.281-4.828 0-1.75.421-3.437 1.28-4.828l-.343-.188C1.485-7.343.937-5.75.937-3.796c0 1.953.547 3.547 1.438 5.016zm0 0"/></symbol><symbol overflow="visible" id="r"><path d="M1.281-3.922c1.203-.25 2.703-1.031 3.203-2.187.5 1.156 2 1.937 3.204 2.187l.203-.437c-1.282-.22-3.125-1.235-3.125-2.579v-.187H7.64v-.453H1.312v.453h2.891v.188c0 1.343-1.844 2.359-3.14 2.578zm7.14.89H.548v.438h3.672V.687h.515v-3.28h3.688zm0 0"/></symbol><symbol overflow="visible" id="s"><path d="M.719 1.219C1.609-.25 2.14-1.844 2.14-3.797c0-1.953-.532-3.547-1.422-5.015l-.36.187c.86 1.39 1.297 3.078 1.297 4.828 0 1.735-.437 3.422-1.297 4.828zm0 0"/></symbol><symbol overflow="visible" id="t"><path d="M2.234-6.703H3.97v4.547c-.578.031-1.172.047-1.735.062zm2.25 0h1.047v-.453H.671v.453H1.72v4.61c-.438.015-.86.015-1.266.015l.078.469c1.563 0 3.672-.016 5.532-.313l-.032-.406c-.5.062-1.031.11-1.547.14zm4.22 2.172H7.171v-3.657h-.516V.688h.516v-4.75h1.531zm0 0"/></symbol><symbol overflow="visible" id="u"><path d="M7.625-8.172h-.516v6.547h.516zM1.297-5.39c0-.953.734-1.671 1.703-1.671.984 0 1.719.718 1.719 1.671 0 .954-.735 1.688-1.719 1.688-.969 0-1.703-.735-1.703-1.688zm3.922 0c0-1.265-.938-2.14-2.219-2.14-1.266 0-2.203.875-2.203 2.14 0 1.266.937 2.157 2.203 2.157 1.281 0 2.219-.891 2.219-2.157zM2.687.031v-2.344h-.515V.485h5.75V.031zm0 0"/></symbol><symbol overflow="visible" id="v"><path d="M7.5-3.266H2.14v-1.64h5.094v-.438H2.141v-1.562h5.28v-.453H1.61v4.546H7.5zM.547-.969v.453h7.89v-.453zm0 0"/></symbol><symbol overflow="visible" id="w"><path d="M1.297-4.844l.094.469 5.421-.328A16.418 16.418 0 0 1 6.5-2.391l.516.063c.343-1.75.343-2.938.343-4.031v-.875H1.531v.437h5.313v.438c0 .406 0 .796-.016 1.25zm3 3.766v-2.406H3.78v2.406H.562v.453h7.86v-.453zm0 0"/></symbol><symbol overflow="visible" id="x"><path d="M1.594-1.938v-2.375H5.03v-3H1.047v.454h3.469v2.093H1.078v3.282h.688c1.437 0 2.78-.063 4.453-.329l-.063-.453c-1.64.25-2.984.329-4.39.329zm5.515-6.25V.704h.516v-8.89zm0 0"/></symbol><symbol overflow="visible" id="y"><path d="M2.86-1.813c-.954 0-1.641-1.093-1.641-2.593 0-1.532.687-2.578 1.64-2.578.97 0 1.641 1.046 1.641 2.578 0 1.5-.672 2.593-1.64 2.593zm0-5.64C1.61-7.453.733-6.266.733-4.406S1.61-1.36 2.86-1.36s2.125-1.188 2.125-3.047c0-1.86-.875-3.047-2.125-3.047zm5.843 2.937H7.172v-3.671h-.516v8.89h.516v-4.766h1.531zm0 0"/></symbol><symbol overflow="visible" id="z"><path d="M7.125-2.906h.516v-5.281h-.516v2.046H5.047v.454h2.078zm-1.531-.89c-1.203-.47-2.235-1.579-2.235-2.892v-.968h-.515v.968c0 1.454-1 2.641-2.25 3.125l.281.438c1.031-.438 1.89-1.313 2.25-2.438.36 1 1.203 1.782 2.172 2.172zM4.828.233C3.406.234 2.5-.234 2.5-.969c0-.734.906-1.219 2.328-1.219 1.422 0 2.344.485 2.344 1.22 0 .734-.922 1.202-2.344 1.202zm0-2.843c-1.766 0-2.844.593-2.844 1.64S3.063.671 4.828.671c1.766 0 2.86-.593 2.86-1.64s-1.094-1.64-2.86-1.64zm0 0"/></symbol><symbol overflow="visible" id="A"><path d="M4.484.266c-1.5 0-2.453-.375-2.453-1.016 0-.64.953-1.016 2.453-1.016 1.516 0 2.47.375 2.47 1.016C6.953-.11 6 .266 4.483.266zm0-2.454c-1.89 0-2.968.5-2.968 1.438S2.594.688 4.484.688C6.375.688 7.47.188 7.47-.75S6.375-2.188 4.484-2.188zM3.422-4.374h2.156v1.031H3.422zm2.687 1.031v-1.031h1.485v-.438h-5.5v-1.125H7.39v-1.968H1.562v.453h5.329v1.094H1.594v1.984h1.312v1.031H.531v.453h7.907v-.453zm0 0"/></symbol><symbol overflow="visible" id="B"><path d="M1.422-2.063v-4.562h2.734v-.453H.906v5.469h.547c1.422 0 2.266-.047 3.297-.282l-.063-.453c-.984.235-1.828.281-3.25.281zM7.39-8.186v3.656h-1.5v-3.422h-.5V.203h.5v-4.281h1.5V.688h.5v-8.876zm0 0"/></symbol><symbol overflow="visible" id="C"><path d="M3.422-3.266h2.125V-.89H3.422zm-.156-3.578h2.421v3.125H3.267zM6.062-.89v-2.375h1.594v-.453H6.203v-3.125h1.453v-.453h-6.36v.453H2.75v3.125H1.297v.453h1.61V-.89H.561v.454h7.891v-.454zm0 0"/></symbol><symbol overflow="visible" id="D"><path d="M7.094-8.188V.704h.515v-8.89zm-4 .735C1.813-7.453.922-6.266.922-4.406s.89 3.047 2.172 3.047c1.25 0 2.14-1.188 2.14-3.047 0-1.86-.89-3.047-2.14-3.047zm0 .469c.969 0 1.64 1.046 1.64 2.578 0 1.515-.671 2.593-1.64 2.593-.985 0-1.672-1.078-1.672-2.593 0-1.532.687-2.578 1.672-2.578zm0 0"/></symbol><symbol overflow="visible" id="E"><path d="M3.297-7.375h-.5v1.781c0 1.61-1.188 3.297-2.328 3.922l.328.438C1.75-1.797 2.672-3 3.062-4.375c.376 1.313 1.313 2.422 2.25 2.938l.329-.407C4.5-2.437 3.297-4.047 3.297-5.594zm5.406 2.89H7.172v-3.702h-.516v8.89h.516V-4.03h1.531zm0 0"/></symbol><symbol overflow="visible" id="F"><path d="M1.531-1.984v-4.86h3.453v-.468H1.016v5.796h.625c1.703 0 2.765-.062 4.078-.328l-.078-.453c-1.266.25-2.329.313-4 .313zm5.594-6.204v3.313H4.422v.453h2.703V.703h.531v-8.89zm0 0"/></symbol><symbol overflow="visible" id="G"><path d="M4.734-.938v-2.53h2.75v-.454H2.125v-3.047h5.266v-.453H1.609v3.953h2.61v2.531H.547v.454h7.89v-.454zm0 0"/></symbol><symbol overflow="visible" id="H"><path d="M1.672-2.125v-5.188h-.5v5.657h.672c1.406 0 2.734-.11 4.265-.438l-.078-.453a19.728 19.728 0 0 1-4.187.422zm5.406-6.063V.704h.516v-8.89zm0 0"/></symbol><symbol overflow="visible" id="I"><path d="M4.406-3.938H1.5v-1.734h2.906zm.516-3.703h-.516v1.532H1.5v-1.532H.984V-3.5h3.938zM1.688-1.844h5.046V.703h.532v-3H1.687zm6.937-3.953h-1.36v-2.39h-.53v5.374h.53v-2.515h1.36zm0 0"/></symbol><symbol overflow="visible" id="J"><path d="M7.625-8.188h-.516v6.422h.516zM4.485-3.78H1.53v-3.156h2.953zm.5-3.594h-3.97v4.031h3.97zM2.686-.109v-2.266h-.515V.344h5.75V-.11zm0 0"/></symbol><symbol overflow="visible" id="K"><path d="M6.11-6.922H3.718v-1.172h-.516v1.172H.813v.453h5.296zM5.015-4.234C5.016-3.516 4.375-3 3.453-3c-.906 0-1.531-.516-1.531-1.234 0-.704.625-1.22 1.531-1.22.922 0 1.563.516 1.563 1.22zm-3.579 0c0 1 .813 1.656 2.016 1.656 1.219 0 2.047-.656 2.047-1.656 0-1-.828-1.641-2.047-1.641-1.203 0-2.015.64-2.015 1.64zM.704-1.172c1.64 0 3.781-.031 5.75-.344l-.047-.421c-1.906.265-4.11.28-5.797.296zm6.313-7.016V.704h.515v-8.89zm0 0"/></symbol><symbol overflow="visible" id="L"><path d="M1.203-5.422c0-.953.734-1.703 1.703-1.703.985 0 1.703.75 1.703 1.703 0 .984-.718 1.719-1.703 1.719-.969 0-1.703-.735-1.703-1.719zm5.922-.844v1.672h-2.14c.077-.25.124-.531.124-.828 0-.297-.046-.594-.14-.844zm0 2.125v2.563h.516v-6.61h-.516v1.485h-2.39c-.407-.547-1.048-.89-1.829-.89-1.265 0-2.203.89-2.203 2.171 0 1.297.938 2.188 2.203 2.188.781 0 1.438-.344 1.828-.907zM2.719.031v-2.297h-.516v2.75h5.703V.031zm0 0"/></symbol><symbol overflow="visible" id="M"><path d="M8.422-3.734H7.047c.266-1.313.266-2.25.266-3.079v-.75h-5.72v.438h5.204v.313c0 .828 0 1.78-.281 3.078H.546v.437H4.22v4h.515v-4h3.688zm0 0"/></symbol><symbol overflow="visible" id="N"><path d="M8-3.672c-1.25-.265-3.266-1.531-3.266-3.14v-.72h-.546v.72c0 1.609-2 2.875-3.25 3.14l.234.438c1.172-.282 2.75-1.235 3.297-2.61.547 1.375 2.14 2.328 3.297 2.61zM4.719-.969v-2.265h-.516V-.97H.547v.453h7.89v-.453zm0 0"/></symbol><symbol overflow="visible" id="O"><path d="M5.516-3.734C4.328-4.156 3.344-5.22 3.344-6.438v-.609H5.39v-.437H.766v.437h2.062v.61c0 1.359-1.031 2.5-2.25 2.953l.281.421C1.875-3.469 2.75-4.296 3.11-5.39c.344.954 1.157 1.72 2.157 2.079zm-1 3.968c-1.391 0-2.297-.437-2.297-1.14 0-.719.906-1.156 2.297-1.156 1.406 0 2.296.437 2.296 1.156 0 .703-.89 1.14-2.296 1.14zm0-2.718c-1.75 0-2.797.562-2.797 1.578 0 1 1.047 1.578 2.797 1.578 1.75 0 2.812-.578 2.812-1.578 0-1.016-1.062-1.578-2.812-1.578zm2.75-3.313v-2.39h-.532v5.406h.532v-2.563h1.359v-.453zm0 0"/></symbol><symbol overflow="visible" id="P"><path d="M2.031 0h.688v-13.438H2.03zm0 0"/></symbol><symbol overflow="visible" id="Q"><path d="M4.594 0h.703l4.437-13.438h-.703L6.453-5.405c-.531 1.672-.906 2.89-1.484 4.531h-.063c-.578-1.64-.953-2.86-1.468-4.531L.844-13.438H.125zm0 0"/></symbol><symbol overflow="visible" id="R"><path d="M.813-4.734h4.421v-.657H.813zm0 0"/></symbol><symbol overflow="visible" id="S"><path d="M4.563.234c2.046 0 4.093-1.625 4.093-4.515 0-2.985-1.75-4.297-3.953-4.297-1 0-1.75.265-2.422.703l.438-4.953h5.25v-.61h-5.86l-.484 6.032.563.343c.75-.515 1.453-.89 2.453-.89 2.015 0 3.312 1.422 3.312 3.719 0 2.312-1.578 3.859-3.344 3.859C2.734-.375 1.72-1.188.97-2l-.438.5C1.344-.687 2.5.234 4.563.234zm0 0"/></symbol><symbol overflow="visible" id="T"><path d="M2.125.234c.39 0 .766-.296.766-.796 0-.532-.375-.829-.766-.829-.375 0-.734.297-.734.829 0 .5.359.796.734.796zm0 0"/></symbol><symbol overflow="visible" id="V"><path d="M.844 0h7.875v-.61H4.156c-.718 0-1.453.032-2.187.094C5.844-4.109 8.047-6.953 8.047-9.89c0-2.28-1.313-3.78-3.594-3.78-1.562 0-2.703.843-3.64 1.905l.468.422c.813-1.015 1.922-1.719 3.125-1.719 2.047 0 2.938 1.422 2.938 3.172 0 2.532-1.719 5.375-6.5 9.47zm0 0"/></symbol><symbol overflow="visible" id="W"><path d="M4.828.234c2.344 0 3.797-2.25 3.797-6.984 0-4.688-1.453-6.922-3.797-6.922-2.39 0-3.812 2.235-3.812 6.922 0 4.734 1.421 6.984 3.812 6.984zm0-.609c-1.906 0-3.125-2.25-3.125-6.375 0-4.078 1.219-6.328 3.125-6.328 1.89 0 3.11 2.25 3.11 6.328 0 4.125-1.22 6.375-3.11 6.375zm0 0"/></symbol><symbol overflow="visible" id="X"><path d="M5.5-12.36h3.453v-.546h-7.64v.547h3.593v2.187c0 3.203-1.75 6.219-3.875 7.453l.438.485c1.734-1.094 3.218-3.282 3.734-5.891.531 2.39 1.953 4.469 3.64 5.5l.423-.484C7.156-4.313 5.5-7.234 5.5-10.172zm5.422 3.422H7.625v.563h3.297V.313h.61v-14.907h-.61zm3.25-6.156v16.36h.61v-16.36zm0 0"/></symbol><symbol overflow="visible" id="Y"><path d="M2.094-13.266v.563h6.812C8.687-8.61 6.031-4.843 1.47-2.625l.343.516c5.094-2.516 7.704-6.72 7.704-11.157zm11.562-1.828V1.234h.61v-16.328zm0 0"/></symbol><symbol overflow="visible" id="aa"><path d="M8.578-3.39H2.516v-5.016h6.062zm0-5.563H2.516v-4.656h-.61v10.78h7.266v-10.78h-.594zm7.813.625h-3v-6.766h-.61V1.234h.61v-8.968h3zm0 0"/></symbol><symbol overflow="visible" id="ab"><path d="M13.64-15.094V1.234h.61v-16.328zm-7.812 1.39c-2.328 0-4 2.173-4 5.548 0 3.39 1.672 5.562 4 5.562 2.344 0 4-2.172 4-5.562 0-3.375-1.656-5.547-4-5.547zm0 .517c1.984 0 3.406 2.14 3.406 5.03 0 2.907-1.421 5.048-3.406 5.048-1.984 0-3.406-2.141-3.406-5.047 0-2.89 1.422-5.031 3.406-5.031zm0 0"/></symbol><symbol overflow="visible" id="ac"><path d="M3.234-9.734c0-2.047 2.266-3.532 5.22-3.532 2.983 0 5.218 1.485 5.218 3.532 0 2.03-2.235 3.53-5.219 3.53-2.953 0-5.219-1.5-5.219-3.53zM8.766-1.61v-4.094c3.218-.094 5.437-1.64 5.437-4.031 0-2.454-2.36-4.047-5.75-4.047s-5.75 1.594-5.75 4.047c0 2.39 2.219 3.937 5.453 4.03v4.095H1.094v.562H15.89v-.562zm0 0"/></symbol><symbol overflow="visible" id="ad"><path d="M14.688-15.078h-.61v9.25h.61zm-5.657 4.61v.546h2.297V-6h.61v-8.797h-.61v4.328zm.453-2.704H5.547v-1.984h-.61v1.984H1v.563h8.484zM2.438-8.969c0-1.281 1.109-2.187 2.796-2.187 1.672 0 2.782.906 2.782 2.187 0 1.25-1.11 2.172-2.782 2.172-1.687 0-2.796-.922-2.796-2.172zm6.14 0c0-1.672-1.344-2.719-3.344-2.719-2.015 0-3.359 1.047-3.359 2.72 0 1.64 1.344 2.702 3.36 2.702 2 0 3.343-1.062 3.343-2.703zM4.906.421v-2.218h9.782v-3.156H4.25v.531h9.844v2.078H4.313V.984h11.093V.422zm0 0"/></symbol><symbol overflow="visible" id="ae"><path d="M14.922-6.406C12.969-6.844 8.75-9.25 8.75-12.453v-1.328h-.61v1.328c0 3.234-4.156 5.594-6.156 6.047l.313.515c1.922-.562 5.25-2.375 6.14-5.14.922 2.75 4.266 4.594 6.172 5.14zM1.094-1.734v.546h14.812v-.546zm0 0"/></symbol><symbol overflow="visible" id="af"><path d="M13.672-11.078v2.844h-5v.562h5v2.75h.61v-10.156h-.61v3.437H9.109c.22-.656.329-1.359.329-2.109h-7.25v.563h6.578C8.546-9.735 5.437-7.11 1.39-5.814l.312.516c3.36-1.11 6.11-3.14 7.203-5.781zM9.078.625c-2.812 0-4.687-.953-4.687-2.422 0-1.453 1.875-2.422 4.687-2.422 2.797 0 4.688.969 4.688 2.422 0 1.469-1.891 2.422-4.688 2.422zm0-5.375c-3.281 0-5.281 1.094-5.281 2.953 0 1.875 2 2.969 5.281 2.969 3.281 0 5.281-1.094 5.281-2.969 0-1.86-2-2.953-5.28-2.953zm0 0"/></symbol><symbol overflow="visible" id="ag"><path d="M2-10.266c0-1.796 1.484-3.218 3.5-3.218 2 0 3.484 1.421 3.484 3.218S7.5-7.062 5.5-7.062C3.484-7.063 2-8.47 2-10.267zm11.672-1.687v3.344H9.219c.234-.5.36-1.047.36-1.657 0-.625-.142-1.187-.36-1.687zm0 3.906v2.719h.61v-9.766h-.61v2.594H8.844c-.703-.953-1.906-1.516-3.344-1.516-2.39 0-4.094 1.532-4.094 3.75 0 2.235 1.703 3.75 4.094 3.75 1.438 0 2.672-.593 3.375-1.53zM9.078.625c-2.812 0-4.687-1-4.687-2.5 0-1.469 1.875-2.469 4.687-2.469 2.797 0 4.688 1 4.688 2.469 0 1.5-1.891 2.5-4.688 2.5zm0-5.516c-3.281 0-5.281 1.141-5.281 3.016 0 1.906 2 3.047 5.281 3.047 3.281 0 5.281-1.14 5.281-3.047 0-1.875-2-3.016-5.28-3.016zm0 0"/></symbol><symbol overflow="visible" id="ah"><path d="M10.86-13.063H6.327v-2.109h-.61v2.11h-4.53v.562h9.671zM2.78-8.436c0-1.376 1.281-2.344 3.235-2.344 1.921 0 3.218.969 3.218 2.344 0 1.359-1.296 2.328-3.218 2.328-1.954 0-3.235-.97-3.235-2.329zm7.031 0c0-1.782-1.5-2.891-3.796-2.891-2.313 0-3.813 1.11-3.813 2.89 0 1.766 1.5 2.876 3.813 2.876 2.296 0 3.796-1.11 3.796-2.875zM3.282-3.25h9.687v4.484h.61v-5.046H3.28zm12.968-7.031h-2.672v-4.797h-.61v10.156h.61v-4.797h2.672zm0 0"/></symbol><symbol overflow="visible" id="ai"><path d="M13.11-11.188c0 2.141 0 4.157-.579 6.844l.61.11c.562-2.782.562-4.75.562-6.954v-2H2.72v.547h10.39zm-3.22 9.25v-5.64h-.609v5.64H5.86v-5.64H5.25v5.64H1.094v.547h14.75v-.546zm0 0"/></symbol></defs><g fill="#7b7979"><use xlink:href="#a" x="557.772" y="818.875"/><use xlink:href="#b" x="561.102" y="818.875"/></g><g fill="#231f20"><use xlink:href="#c" x="60.706" y="126.058"/><use xlink:href="#d" x="64.132" y="126.058"/><use xlink:href="#e" x="67.57" y="126.058"/><use xlink:href="#f" x="79.159" y="126.058"/><use xlink:href="#g" x="90.748" y="126.058"/><use xlink:href="#f" x="102.337" y="126.058"/><use xlink:href="#h" x="113.926" y="126.058"/><use xlink:href="#i" x="125.515" y="126.058"/><use xlink:href="#d" x="137.104" y="126.058"/><use xlink:href="#j" x="140.543" y="126.058"/><use xlink:href="#i" x="152.132" y="126.058"/></g><g fill="#231f20"><use xlink:href="#k" x="205.343" y="455.058"/><use xlink:href="#l" x="214.258" y="455.058"/><use xlink:href="#m" x="223.172" y="455.058"/><use xlink:href="#l" x="232.087" y="455.058"/><use xlink:href="#n" x="241.001" y="455.058"/><use xlink:href="#o" x="249.916" y="455.058"/></g><g fill="#231f20"><use xlink:href="#p" x="258.831" y="455.058"/><use xlink:href="#q" x="261.476" y="455.058"/><use xlink:href="#r" x="264.454" y="455.058"/><use xlink:href="#s" x="273.368" y="455.058"/><use xlink:href="#t" x="276.346" y="455.058"/><use xlink:href="#u" x="285.261" y="455.058"/><use xlink:href="#v" x="294.176" y="455.058"/><use xlink:href="#w" x="303.09" y="455.058"/><use xlink:href="#x" x="312.005" y="455.058"/><use xlink:href="#y" x="320.919" y="455.058"/><use xlink:href="#p" x="329.834" y="455.058"/><use xlink:href="#z" x="332.479" y="455.058"/><use xlink:href="#A" x="341.394" y="455.058"/><use xlink:href="#p" x="350.308" y="455.058"/><use xlink:href="#B" x="352.953" y="455.058"/><use xlink:href="#C" x="361.868" y="455.058"/><use xlink:href="#D" x="370.783" y="455.058"/><use xlink:href="#E" x="379.697" y="455.058"/></g><g fill="#231f20"><use xlink:href="#m" x="227.629" y="783.738"/><use xlink:href="#l" x="236.544" y="783.738"/><use xlink:href="#n" x="245.459" y="783.738"/></g><g fill="#231f20"><use xlink:href="#p" x="254.373" y="783.738"/><use xlink:href="#q" x="257.018" y="783.738"/><use xlink:href="#r" x="259.996" y="783.738"/><use xlink:href="#s" x="268.911" y="783.738"/><use xlink:href="#F" x="271.889" y="783.738"/><use xlink:href="#G" x="280.804" y="783.738"/><use xlink:href="#H" x="289.718" y="783.738"/><use xlink:href="#p" x="298.633" y="783.738"/><use xlink:href="#I" x="301.278" y="783.738"/><use xlink:href="#J" x="310.193" y="783.738"/><use xlink:href="#K" x="319.107" y="783.738"/><use xlink:href="#p" x="328.022" y="783.738"/><use xlink:href="#L" x="330.667" y="783.738"/><use xlink:href="#M" x="339.581" y="783.738"/><use xlink:href="#N" x="348.496" y="783.738"/><use xlink:href="#O" x="357.411" y="783.738"/></g><g fill="#231f20"><use xlink:href="#P" x="51.795" y="56.229"/><use xlink:href="#Q" x="56.547" y="56.229"/></g><g fill="#231f20"><use xlink:href="#R" x="66.016" y="56.229"/><use xlink:href="#S" x="72.007" y="56.229"/><use xlink:href="#T" x="81.642" y="56.229"/><use xlink:href="#U" x="85.914" y="56.229"/><use xlink:href="#V" x="89.983" y="56.229"/><use xlink:href="#W" x="99.618" y="56.229"/><use xlink:href="#V" x="109.252" y="56.229"/><use xlink:href="#V" x="118.887" y="56.229"/><use xlink:href="#U" x="128.522" y="56.229"/><use xlink:href="#X" x="132.591" y="56.229"/><use xlink:href="#V" x="149.604" y="56.229"/><use xlink:href="#Y" x="159.239" y="56.229"/><use xlink:href="#Z" x="176.253" y="56.229"/><use xlink:href="#aa" x="181.431" y="56.229"/><use xlink:href="#ab" x="198.444" y="56.229"/><use xlink:href="#ac" x="215.458" y="56.229"/><use xlink:href="#ad" x="232.471" y="56.229"/><use xlink:href="#ae" x="249.485" y="56.229"/><use xlink:href="#af" x="266.498" y="56.229"/><use xlink:href="#ag" x="283.512" y="56.229"/><use xlink:href="#ah" x="300.526" y="56.229"/><use xlink:href="#ai" x="317.539" y="56.229"/></g></svg>