<svg xmlns="http://www.w3.org/2000/svg" xmlns:xlink="http://www.w3.org/1999/xlink" width="793.033" height="1122.52" viewBox="0 0 594.7751 841.89" version="1.2"><defs><symbol overflow="visible" id="a"><path d="M3.781-.75H1.828l.813-.984c.312-.375.562-.672.75-.97.203-.312.375-.671.375-1.108 0-.829-.579-1.61-1.688-1.61-.656 0-1.031.297-1.219.516a1.93 1.93 0 0 0-.437 1.172h.766c.03-.5.328-.97.921-.97.579 0 .875.423.875.86 0 .313-.125.547-.28.766a11.8 11.8 0 0 1-.626.844L.266 0H3.78zm0 0"/></symbol><symbol overflow="visible" id="b"><path d="M3.734-5.328H1.578L.797-2.641a1.88 1.88 0 0 1 .469-.234c.203-.078.375-.11.609-.11.25 0 .594.047.86.282.156.172.312.437.312.875 0 .453-.188.734-.344.906-.125.125-.375.297-.797.297a1.32 1.32 0 0 1-.687-.188 1.191 1.191 0 0 1-.39-.468l-.61.515c.25.375.547.563.625.61.328.203.687.25 1 .25.531 0 1.031-.14 1.453-.547.344-.36.531-.828.531-1.422 0-.688-.265-1.11-.515-1.36-.313-.328-.766-.484-1.204-.484-.078 0-.171.016-.25.016l.266-.875h1.61zm0 0"/></symbol></defs><g fill="#7b7979"><use xlink:href="#a" x="557.772" y="818.875"/><use xlink:href="#b" x="561.808" y="818.875"/></g></svg>