<svg xmlns="http://www.w3.org/2000/svg" xmlns:xlink="http://www.w3.org/1999/xlink" width="794.366" height="1122.52" viewBox="0 0 595.7748 841.89" version="1.2"><defs><symbol overflow="visible" id="a"><path d="M4.047 0H5.53v-10.484h3.563v-1.25H.5v1.25h3.547zm0 0"/></symbol><symbol overflow="visible" id="b"><path d="M1.469 0h1.453v-5.578c.578-1.5 1.484-2 2.203-2 .344 0 .563.031.844.14l.265-1.28c-.265-.141-.53-.188-.921-.188-.97 0-1.86.703-2.47 1.797h-.046l-.125-1.579H1.469zm0 0"/></symbol><symbol overflow="visible" id="c"><path d="M4.969.203c1.187 0 2.125-.39 2.89-.89l-.53-.954c-.641.422-1.329.688-2.173.688C3.5-.953 2.375-2.141 2.266-4h5.859a5.79 5.79 0 0 0 .063-.828c0-2.484-1.25-4.078-3.454-4.078-2.015 0-3.921 1.75-3.921 4.562C.813-1.469 2.671.203 4.968.203zM2.25-5.047C2.438-6.75 3.516-7.75 4.75-7.75c1.36 0 2.156.953 2.156 2.703zm0 0"/></symbol><symbol overflow="visible" id="d"><path d="M1.469 0h1.453v-6.297c.89-.89 1.5-1.328 2.39-1.328 1.157 0 1.641.688 1.641 2.313V0h1.469v-5.5c0-2.234-.844-3.406-2.656-3.406-1.188 0-2.079.656-2.922 1.469h-.047l-.125-1.25H1.469zm0 0"/></symbol><symbol overflow="visible" id="e"><path d="M4.438.203c1.03 0 1.953-.562 2.64-1.234h.031L7.25 0h1.188v-12.734h-1.47v3.343l.095 1.5c-.782-.64-1.438-1.015-2.454-1.015-1.984 0-3.765 1.75-3.765 4.562C.844-1.437 2.25.203 4.438.203zm.312-1.219c-1.531 0-2.39-1.234-2.39-3.343 0-1.985 1.093-3.329 2.5-3.329.718 0 1.374.266 2.109.922v4.563c-.719.797-1.422 1.187-2.219 1.187zm0 0"/></symbol><symbol overflow="visible" id="f"><path d="M3.75.203c2.047 0 3.156-1.156 3.156-2.578 0-1.64-1.39-2.156-2.656-2.64-.969-.36-1.906-.673-1.906-1.5 0-.673.484-1.25 1.578-1.25.781 0 1.39.327 2 .78l.703-.952c-.688-.532-1.64-.97-2.703-.97-1.89 0-3 1.079-3 2.454 0 1.484 1.375 2.062 2.594 2.516.968.374 1.984.765 1.984 1.656 0 .75-.563 1.36-1.703 1.36-1.047 0-1.828-.423-2.578-1.032L.5-.984C1.328-.297 2.516.203 3.75.203zm0 0"/></symbol><symbol overflow="visible" id="h"><path d="M3.469.203c1.078 0 2.047-.562 2.89-1.25h.047L6.531 0h1.203v-5.344c0-2.14-.906-3.562-3.015-3.562-1.39 0-2.625.625-3.422 1.125l.578 1.015c.688-.468 1.594-.937 2.61-.937 1.421 0 1.78 1.078 1.78 2.203C2.579-5.094.923-4.14.923-2.25.922-.687 2.016.203 3.469.203zM3.89-.953c-.86 0-1.532-.406-1.532-1.406 0-1.11.985-1.829 3.907-2.188v2.438C5.422-1.36 4.734-.953 3.89-.953zm0 0"/></symbol><symbol overflow="visible" id="i"><path d="M1.594 0h1.5v-4.656H5.03c2.547 0 4.313-1.157 4.313-3.625 0-2.563-1.766-3.453-4.406-3.453H1.594zm1.5-5.86v-4.671h1.672c2.062 0 3.109.547 3.109 2.25 0 1.672-.984 2.422-3.047 2.422zm0 0"/></symbol><symbol overflow="visible" id="j"><path d="M4.844.203c2.125 0 4.031-1.656 4.031-4.547 0-2.89-1.906-4.562-4.031-4.562S.812-7.234.812-4.344C.813-1.454 2.72.203 4.845.203zm0-1.219c-1.5 0-2.5-1.328-2.5-3.328 0-2 1-3.36 2.5-3.36 1.515 0 2.531 1.36 2.531 3.36 0 2-1.016 3.328-2.531 3.328zm0 0"/></symbol><symbol overflow="visible" id="k"><path d="M1.469 3.656h1.453V.72L2.89-.797c.796.64 1.625 1 2.406 1 2 0 3.781-1.703 3.781-4.687 0-2.672-1.219-4.422-3.469-4.422-1 0-1.984.562-2.765 1.203h-.047l-.125-.984H1.469zm3.593-4.672c-.578 0-1.343-.234-2.14-.906v-4.562c.86-.782 1.61-1.204 2.344-1.204 1.64 0 2.28 1.297 2.28 3.22 0 2.171-1.046 3.452-2.484 3.452zm0 0"/></symbol><symbol overflow="visible" id="l"><path d="M4.89.203A4.18 4.18 0 0 0 7.704-.89l-.625-.984c-.547.5-1.25.86-2.047.86-1.61 0-2.687-1.329-2.687-3.329s1.14-3.36 2.719-3.36c.703 0 1.218.329 1.734.798l.75-.985c-.625-.546-1.406-1.015-2.531-1.015C2.78-8.906.812-7.234.812-4.344c0 2.89 1.782 4.547 4.079 4.547zm0 0"/></symbol><symbol overflow="visible" id="m"><path d="M4.203.203c.531 0 1.11-.156 1.61-.312l-.297-1.094c-.282.11-.688.234-.985.234-1.015 0-1.343-.61-1.343-1.687V-7.5H5.53v-1.188H3.188v-2.437h-1.22l-.171 2.438-1.36.078V-7.5h1.297v4.813c0 1.75.625 2.89 2.47 2.89zm0 0"/></symbol><symbol overflow="visible" id="n"><path d="M5.703-12.656a3.966 3.966 0 0 0-1.469-.281c-1.718 0-2.515 1.093-2.515 2.859v1.39L.53-8.608V-7.5H1.72V0h1.453v-7.5h1.844v-1.188H3.172v-1.374c0-1.126.39-1.72 1.234-1.72.297 0 .657.079.969.235zm0 0"/></symbol><symbol overflow="visible" id="o"><path d="M1.469 0h1.453v-6.297c.89-.89 1.5-1.328 2.39-1.328 1.157 0 1.641.688 1.641 2.313V0h1.469v-5.5c0-2.234-.844-3.406-2.656-3.406-1.188 0-2.079.656-2.891 1.453l.047-1.797v-3.484H1.469zm0 0"/></symbol><symbol overflow="visible" id="p"><path d="M6.203.203c1.594 0 2.89-.578 3.64-1.36v-4.921H6v1.234h2.484v3.063c-.468.437-1.28.687-2.125.687-2.515 0-3.906-1.843-3.906-4.812 0-2.922 1.531-4.75 3.89-4.75 1.188 0 1.938.5 2.532 1.125l.813-.969c-.672-.719-1.75-1.453-3.391-1.453-3.094 0-5.375 2.312-5.375 6.094C.922-2.047 3.125.203 6.203.203zm0 0"/></symbol><symbol overflow="visible" id="q"><path d="M3.016.203c.375 0 .625-.047.843-.125l-.218-1.125c-.157.031-.22.031-.297.031-.219 0-.422-.171-.422-.609v-11.11H1.469v11C1.469-.5 1.922.204 3.016.204zm0 0"/></symbol><symbol overflow="visible" id="r"><path d="M5.297.203c2 0 3.781-1.703 3.781-4.703 0-2.656-1.219-4.406-3.484-4.406-.953 0-1.938.531-2.719 1.219l.047-1.563v-3.484H1.469V0H2.64l.125-.89h.046C3.579-.188 4.5.202 5.297.202zm-.234-1.219c-.579 0-1.36-.234-2.141-.906v-4.562c.844-.782 1.61-1.204 2.344-1.204 1.64 0 2.28 1.297 2.28 3.22 0 2.171-1.046 3.452-2.484 3.452zm0 0"/></symbol><symbol overflow="visible" id="s"><path d="M1.469 0h1.453v-6.297c.812-.906 1.547-1.328 2.203-1.328 1.094 0 1.61.688 1.61 2.313V0h1.452v-6.297c.829-.906 1.532-1.328 2.204-1.328 1.093 0 1.609.688 1.609 2.313V0h1.453v-5.5c0-2.234-.844-3.406-2.64-3.406-1.047 0-1.97.687-2.86 1.656-.36-1.016-1.078-1.656-2.406-1.656-1.031 0-1.953.656-2.703 1.484h-.047l-.125-1.266H1.469zm0 0"/></symbol><symbol overflow="visible" id="t"><path d="M4 .203c1.203 0 2.063-.625 2.875-1.562h.047L7.047 0H8.25v-8.688H6.797v6.157c-.828 1.047-1.453 1.469-2.344 1.469-1.156 0-1.64-.688-1.64-2.297v-5.329H1.359v5.5C1.36-.967 2.172.204 4 .204zm0 0"/></symbol><symbol overflow="visible" id="u"><path d="M1.469 0h1.453v-8.688H1.469zm.734-10.484c.578 0 1.016-.391 1.016-.938 0-.594-.438-.953-1.016-.953-.578 0-1 .36-1 .953 0 .547.422.938 1 .938zm0 0"/></symbol><symbol overflow="visible" id="v"><path d="M1.594 0h3.75c2.625 0 4.453-1.14 4.453-3.438 0-1.609-1-2.53-2.406-2.796v-.079c1.109-.359 1.734-1.39 1.734-2.546 0-2.063-1.656-2.875-4.031-2.875h-3.5zm1.5-6.734v-3.829H4.89c1.828 0 2.765.516 2.765 1.891 0 1.188-.812 1.938-2.828 1.938zm0 5.546v-4.406H5.14c2.046 0 3.203.657 3.203 2.11 0 1.578-1.188 2.296-3.203 2.296zm0 0"/></symbol><symbol overflow="visible" id="w"><path d="M1.594 0h1.5v-11.734h-1.5zm0 0"/></symbol><symbol overflow="visible" id="x"><path d="M1.61 3.75c1.734 0 2.624-1.313 3.234-3.031l3.281-9.406H6.703L5.156-3.86c-.25.765-.5 1.656-.734 2.437h-.078c-.282-.781-.578-1.687-.844-2.437L1.734-8.688H.204l3.5 8.704L3.5.672c-.344 1.078-.969 1.875-1.969 1.875-.218 0-.468-.078-.656-.14L.594 3.561c.265.126.61.188 1.015.188zm0 0"/></symbol><symbol overflow="visible" id="y"><path d="M2.61 0h.609v-6.781h2.297v-.516H.312v.516H2.61zm0 0"/></symbol><symbol overflow="visible" id="z"><path d="M1 0h.578v-3.984c.625-.641 1.063-.97 1.688-.97.812 0 1.171.516 1.171 1.626V0h.579v-3.406c0-1.375-.516-2.063-1.625-2.063-.735 0-1.282.422-1.829.953l.016-1.156v-2.281H1zm0 0"/></symbol><symbol overflow="visible" id="A"><path d="M1 0h.578v-5.328H1zm.297-6.578c.266 0 .5-.188.5-.469 0-.297-.234-.469-.5-.469s-.484.172-.484.47c0 .28.218.468.484.468zm0 0"/></symbol><symbol overflow="visible" id="B"><path d="M2.313.125c1.171 0 1.828-.688 1.828-1.516 0-1.03-.907-1.312-1.72-1.625-.624-.234-1.233-.453-1.233-1.046 0-.485.359-.922 1.14-.922.516 0 .906.218 1.266.484l.312-.406C3.5-5.22 2.937-5.47 2.344-5.47c-1.11 0-1.75.657-1.75 1.438 0 .922.89 1.25 1.672 1.531.625.219 1.296.516 1.296 1.14 0 .548-.406 1.016-1.218 1.016-.735 0-1.219-.281-1.688-.672l-.312.422c.484.39 1.187.719 1.969.719zm0 0"/></symbol><symbol overflow="visible" id="D"><path d="M1.703.125c.203 0 .297-.031.39-.063L2.017-.39c-.11.016-.157.016-.204.016-.125 0-.234-.11-.234-.36v-7.218H1v7.156c0 .625.234.922.703.922zm0 0"/></symbol><symbol overflow="visible" id="E"><path d="M3.047.125c.765 0 1.265-.25 1.687-.516l-.218-.421c-.391.265-.844.453-1.422.453-1.14 0-1.906-.907-1.938-2.204h3.782c.015-.14.015-.28.015-.421 0-1.563-.766-2.485-2.047-2.485C1.687-5.469.562-4.39.562-2.656c0 1.75 1.11 2.781 2.485 2.781zm-1.89-3.156c.109-1.219.89-1.938 1.75-1.938.937 0 1.53.657 1.53 1.938zm0 0"/></symbol><symbol overflow="visible" id="F"><path d="M3 .125c.672 0 1.234-.281 1.703-.688l-.281-.39c-.36.312-.844.578-1.39.578-1.126 0-1.86-.922-1.86-2.281 0-1.36.812-2.297 1.875-2.297.5 0 .89.219 1.219.531l.328-.39c-.375-.344-.86-.657-1.563-.657-1.328 0-2.469 1.032-2.469 2.813C.563-.891 1.61.125 3 .125zm0 0"/></symbol><symbol overflow="visible" id="G"><path d="M2.5.125c.234 0 .578-.078.89-.188l-.14-.453a1.9 1.9 0 0 1-.656.141c-.703 0-.89-.438-.89-1.11v-3.359h1.53v-.484h-1.53v-1.547h-.485l-.063 1.547-.86.047v.437h.829v3.328C1.125-.53 1.453.125 2.5.125zm0 0"/></symbol><symbol overflow="visible" id="H"><path d="M2.531.125c.735 0 1.281-.406 1.797-1h.031L4.406 0h.5v-5.328h-.593v3.89C3.719-.703 3.28-.39 2.655-.39 1.844-.39 1.5-.906 1.5-1.984v-3.344H.922v3.406c0 1.375.5 2.047 1.61 2.047zm0 0"/></symbol><symbol overflow="visible" id="I"><path d="M1 0h.578v-3.578c.39-.985.969-1.344 1.438-1.344.203 0 .296.016.484.094l.125-.516a1.048 1.048 0 0 0-.547-.125c-.625 0-1.14.453-1.515 1.125h-.016l-.063-.984H1zm0 0"/></symbol><symbol overflow="visible" id="J"><path d="M.156 0h.61l.859-1.406c.219-.328.406-.657.61-.969h.046c.219.313.422.64.61.969L3.797 0h.656L2.656-2.734l1.64-2.594h-.609l-.78 1.312c-.188.297-.36.579-.532.875h-.047c-.203-.296-.39-.578-.562-.875L.937-5.328h-.64l1.656 2.531zm0 0"/></symbol><symbol overflow="visible" id="K"><path d="M2.188.125c.671 0 1.312-.36 1.859-.813h.016L4.125 0h.484v-3.375c0-1.188-.453-2.094-1.718-2.094-.875 0-1.61.422-2.016.703l.25.422c.375-.281.984-.61 1.688-.61 1 0 1.234.813 1.218 1.61-2.343.266-3.406.828-3.406 2 0 1 .688 1.469 1.563 1.469zm.109-.484c-.594 0-1.094-.282-1.094-1.016 0-.813.734-1.313 2.828-1.547v1.735c-.625.546-1.14.828-1.734.828zm0 0"/></symbol><symbol overflow="visible" id="L"><path d="M1 0h.578v-3.984c.563-.641 1.078-.97 1.547-.97.781 0 1.14.516 1.14 1.626V0h.579v-3.984c.578-.641 1.062-.97 1.547-.97.78 0 1.156.516 1.156 1.626V0h.578v-3.406c0-1.375-.531-2.063-1.61-2.063-.609 0-1.202.422-1.796 1.078-.188-.656-.625-1.078-1.469-1.078-.594 0-1.203.422-1.688.953h-.015l-.063-.812H1zm0 0"/></symbol><symbol overflow="visible" id="M"><path d="M1 0h.578v-3.984c.625-.641 1.063-.97 1.688-.97.812 0 1.171.516 1.171 1.626V0h.579v-3.406c0-1.375-.516-2.063-1.625-2.063-.735 0-1.282.422-1.829.953h-.015l-.063-.812H1zm0 0"/></symbol><symbol overflow="visible" id="N"><path d="M2.766.125c.687 0 1.28-.36 1.718-.797H4.5L4.563 0h.484v-7.953h-.578v2.172l.047.968c-.532-.421-.954-.656-1.594-.656-1.266 0-2.36 1.094-2.36 2.813 0 1.781.875 2.781 2.204 2.781zm.109-.5c-1.078 0-1.688-.906-1.688-2.281 0-1.313.766-2.297 1.797-2.297.5 0 .954.172 1.485.656v3.078c-.532.547-1.032.844-1.594.844zm0 0"/></symbol><symbol overflow="visible" id="O"><path d="M1.063 0h.593v-2.453L3.094-4.11 5.454 0h.687L3.484-4.578l2.329-2.719h-.72L1.689-3.328h-.032v-3.969h-.593zm0 0"/></symbol><symbol overflow="visible" id="P"><path d="M2.969.125c1.297 0 2.406-1.016 2.406-2.781 0-1.781-1.11-2.813-2.406-2.813-1.281 0-2.406 1.032-2.406 2.813C.563-.891 1.688.125 2.969.125zm0-.5c-1.031 0-1.797-.922-1.797-2.281 0-1.36.766-2.297 1.797-2.297 1.047 0 1.812.937 1.812 2.297S4.016-.375 2.97-.375zm0 0"/></symbol><symbol overflow="visible" id="Q"><path d="M3.766.125c.968 0 1.718-.328 2.187-.828v-2.922H3.687v.5h1.688v2.188c-.328.343-.938.53-1.563.53-1.624 0-2.578-1.28-2.578-3.265 0-1.969 1-3.203 2.625-3.203.797 0 1.297.328 1.657.719l.359-.39c-.406-.407-1.031-.876-2.031-.876-1.906 0-3.25 1.438-3.25 3.766C.594-1.312 1.875.125 3.766.125zm0 0"/></symbol><symbol overflow="visible" id="R"><path d="M3.14.125c1.25 0 2.344-1.063 2.344-2.875 0-1.64-.718-2.719-2.14-2.719-.64 0-1.266.375-1.797.813l.031-1.016v-2.281H1V0h.469l.078-.547h.016c.484.422 1.078.672 1.578.672zm-.046-.5c-.39 0-.969-.172-1.516-.656V-4.11c.61-.547 1.156-.844 1.656-.844 1.204 0 1.641.922 1.641 2.203 0 1.438-.75 2.375-1.781 2.375zm0 0"/></symbol><symbol overflow="visible" id="S"><path d="M1 2.375h.578V.453l-.016-.969c.547.422 1.079.641 1.579.641 1.25 0 2.343-1.063 2.343-2.875 0-1.64-.718-2.719-2.14-2.719-.64 0-1.25.39-1.781.782h-.016l-.063-.641H1zm2.094-2.75c-.39 0-.938-.172-1.516-.656V-4.11c.625-.547 1.156-.844 1.656-.844 1.204 0 1.641.922 1.641 2.203 0 1.438-.75 2.375-1.781 2.375zm0 0"/></symbol><symbol overflow="visible" id="T"><path d="M.984-1.89c0-.673.5-1.204 1.11-1.673a10.77 10.77 0 0 0 2.062 2.47c-.468.437-1 .734-1.578.734C1.703-.36.984-.97.984-1.891zm.922-3.907c0-.64.39-1.156 1-1.156.578 0 .781.437.781.906 0 .734-.656 1.234-1.39 1.75-.235-.516-.39-1.031-.39-1.5zm4.39 5.422c-.405-.14-.89-.422-1.39-.797.578-.766 1-1.672 1.282-2.672H5.64c-.266.906-.625 1.703-1.125 2.344-.75-.64-1.5-1.516-2-2.39.828-.626 1.671-1.235 1.671-2.188 0-.766-.453-1.344-1.25-1.344-.921 0-1.562.703-1.562 1.64 0 .563.188 1.173.5 1.798C1.109-3.438.391-2.813.391-1.86.39-.656 1.312.125 2.516.125c.828 0 1.484-.36 2.03-.89.563.453 1.11.75 1.579.89zm0 0"/></symbol><symbol overflow="visible" id="U"><path d="M.844 2.406c.984 0 1.531-.86 1.844-1.781l2.078-5.953h-.579L3.095-2.062c-.156.453-.328 1.015-.485 1.5h-.046c-.188-.485-.391-1.047-.563-1.5L.766-5.329H.125L2.313.078l-.141.453c-.266.766-.688 1.344-1.328 1.344-.156 0-.328-.031-.438-.078l-.125.5c.156.062.36.11.563.11zm0 0"/></symbol><symbol overflow="visible" id="V"><path d="M1 0h.578v-1.438l1.156-1.359L4.454 0h.64L3.062-3.219l1.75-2.11h-.656L1.594-2.187h-.016v-5.765H1zm0 0"/></symbol><symbol overflow="visible" id="W"><path d="M.703 1.766c.703-.36 1.203-1.032 1.203-1.86 0-.531-.25-.86-.61-.86-.265 0-.53.173-.53.5 0 .329.25.5.53.5h.11c0 .61-.36 1.063-.875 1.329zm0 0"/></symbol><symbol overflow="visible" id="X"><path d="M.453-2.516h2.453v-.5H.453zm0 0"/></symbol><symbol overflow="visible" id="Y"><path d="M2.75 2.547c1.563 0 2.563-.89 2.563-1.813C5.313-.125 4.734-.5 3.53-.5H2.406c-.765 0-1-.297-1-.672 0-.344.188-.562.422-.734a1.8 1.8 0 0 0 .86.218c1.046 0 1.874-.78 1.874-1.875 0-.546-.218-1-.546-1.28h1.203v-.485H3.406a1.774 1.774 0 0 0-.719-.14c-1.046 0-1.906.78-1.906 1.89 0 .64.344 1.172.672 1.453v.031c-.234.188-.578.531-.578 1 0 .407.203.688.469.86v.047C.859.14.547.609.547 1.077c0 .906.875 1.469 2.203 1.469zm-.063-4.672c-.703 0-1.328-.578-1.328-1.453C1.36-4.453 1.953-5 2.688-5c.718 0 1.328.547 1.328 1.422 0 .875-.625 1.453-1.329 1.453zm.126 4.219c-1.079 0-1.72-.438-1.72-1.078 0-.36.204-.75.673-1.079.265.063.546.094.671.094h1.079c.796 0 1.218.203 1.218.781 0 .641-.75 1.282-1.921 1.282zm0 0"/></symbol><symbol overflow="visible" id="Z"><path d="M3.266-7.906a2.047 2.047 0 0 0-.813-.172c-.89 0-1.36.562-1.36 1.625v1.125l-.75.047v.437h.75V0h.579v-4.844h1.203v-.484H1.672v-1.094c0-.75.25-1.172.812-1.172.204 0 .422.047.641.157zm0 0"/></symbol><symbol overflow="visible" id="aa"><path d="M1.25.125a.514.514 0 0 0 .516-.531c0-.344-.25-.547-.516-.547S.734-.75.734-.406c0 .328.25.531.516.531zm0 0"/></symbol><symbol overflow="visible" id="ab"><path d="M1.063 0h.593v-7.297h-.593zm0 0"/></symbol><symbol overflow="visible" id="ac"><path d="M2.11 0h.687l1.969-5.328h-.594L3.016-2.062c-.172.515-.36 1.062-.532 1.546h-.046a87.833 87.833 0 0 1-.532-1.546L.766-5.329H.125zm0 0"/></symbol><symbol overflow="visible" id="ad"><path d="M1.063 0h.593v-3.453h2.89v-.516h-2.89V-6.78h3.422v-.516H1.062zm0 0"/></symbol><symbol overflow="visible" id="ae"><path d="M1.063 0h1.734c2.219 0 3.328-1.438 3.328-3.672s-1.11-3.625-3.344-3.625H1.062zm.593-.516v-6.28H2.72c1.922 0 2.765 1.234 2.765 3.124 0 1.89-.843 3.156-2.765 3.156zm0 0"/></symbol><symbol overflow="visible" id="af"><path d="M1.672-2.938l.453-1.312c.281-.844.531-1.625.781-2.5h.047c.25.875.5 1.656.797 2.5l.438 1.313zM5.156 0h.64L3.25-7.297h-.625L.078 0h.61l.828-2.453h2.828zm0 0"/></symbol><symbol overflow="visible" id="ag"><path d="M3.516.125c1.312 0 2.5-.672 2.5-2.969v-4.453h-.563v4.422c0 1.89-.906 2.469-1.937 2.469-1 0-1.891-.578-1.891-2.469v-4.422h-.594v4.453C1.031-.547 2.203.125 3.516.125zm0 0"/></symbol><symbol overflow="visible" id="ah"><path d="M2.984.125c1.438 0 2.36-.86 2.36-1.969 0-1.11-.688-1.578-1.532-1.953l-1.078-.469c-.53-.234-1.25-.546-1.25-1.375 0-.75.625-1.234 1.563-1.234.719 0 1.281.281 1.719.719l.328-.39c-.453-.5-1.172-.876-2.047-.876-1.25 0-2.172.75-2.172 1.828s.828 1.532 1.484 1.828l1.094.47c.719.327 1.281.608 1.281 1.483 0 .829-.671 1.407-1.75 1.407-.828 0-1.578-.375-2.109-.969l-.36.422c.579.64 1.422 1.078 2.47 1.078zm0 0"/></symbol><symbol overflow="visible" id="ai"><path d="M.453 0h4.39v-.516h-2.28c-.376 0-.797.032-1.188.063 1.938-1.813 3.11-3.344 3.11-4.875 0-1.266-.75-2.094-2.016-2.094-.875 0-1.5.438-2.047 1.047l.375.36c.406-.532.984-.923 1.61-.923 1.03 0 1.5.72 1.5 1.625 0 1.329-.985 2.829-3.454 4.954zm0 0"/></symbol><symbol overflow="visible" id="aj"><path d="M2.688.125C4 .125 4.812-1.109 4.812-3.672c0-2.531-.812-3.75-2.125-3.75-1.343 0-2.156 1.219-2.156 3.75 0 2.563.813 3.797 2.156 3.797zm0-.484c-.954 0-1.579-1.094-1.579-3.313 0-2.172.625-3.265 1.579-3.265.937 0 1.546 1.093 1.546 3.265 0 2.219-.609 3.313-1.546 3.313zm0 0"/></symbol><symbol overflow="visible" id="ak"><path d="M2.938-.36c-1.11 0-1.672-1.015-1.766-2.624.562-.75 1.187-1.032 1.672-1.032 1.031 0 1.469.75 1.469 1.813 0 1.062-.579 1.844-1.375 1.844zm1.828-6.359c-.391-.422-.875-.703-1.563-.703-1.36 0-2.61 1.047-2.61 3.984 0 2.313.923 3.563 2.345 3.563 1.046 0 1.968-.953 1.968-2.328 0-1.5-.75-2.281-1.984-2.281-.64 0-1.281.359-1.766.937.032-2.5.969-3.375 2.063-3.375.453 0 .875.203 1.187.578zm0 0"/></symbol><symbol overflow="visible" id="al"><path d="M.922 0h3.765v-.516h-1.53v-6.78h-.47c-.343.202-.796.359-1.39.468v.39h1.266v5.922H.921zm0 0"/></symbol><symbol overflow="visible" id="am"><path d="M7.156-7.406H5.672L3.609-3.781 1.563-7.406H.093l2.86 5.093V.767h1.328v-3.079zm0 0"/></symbol><symbol overflow="visible" id="an"><path d="M5.813.797V-5.22H4.359v3.313c0 .922-.468 1.515-1.265 1.515-.75 0-1-.468-1-1.406v-3.422H.64v4.063C.64-.141 1.17.875 2.406.969A2.523 2.523 0 0 0 4.36.234v.563zm0 0"/></symbol><symbol overflow="visible" id="ao"><path d="M5.922.797v-4.11c0-.843-.656-1.968-1.875-2.093-.906-.078-1.516.297-1.953.734v-.531H.656v6h1.438v-3.328c0-.922.469-1.5 1.265-1.5.75 0 1.11.515 1.11 1.453V.797zm0 0"/></symbol><symbol overflow="visible" id="ap"><path d="M7.11-3.89H.25v1.453h6.86zm0 0"/></symbol><symbol overflow="visible" id="aq"><path d="M6.656-6.11v-1.327H.063v1.328H2.64V.828l1.437.016V-6.11zm0 0"/></symbol><symbol overflow="visible" id="ar"><path d="M6.172.797A2.789 2.789 0 0 1 5.969-.22v-3.297c0-1.25-1.266-1.937-2.75-1.937-1.531 0-2.797.984-2.672 2.234H1.89c-.032-.547.578-1 1.328-1 .812 0 1.297.266 1.297.672 0 .438-.485.563-.86.625-.437.11-1.187.156-1.86.375C.907-2.25.188-1.5.329-.469.468.641 1.422 1.078 2.547.953 3.28.875 4.125.47 4.516.063c.03.328.125.609.187.718zM4.516-1.688c0 .532-.735 1.016-1.329 1.22-.468.171-1.203.327-1.359-.173-.14-.375.125-.593.547-.765.344-.14.984-.235 1.469-.344.203-.063.484-.14.672-.297zm0 0"/></symbol><symbol overflow="visible" id="as"><path d="M6.156-1.766c.172-2.5-1.297-3.64-2.86-3.64C1.517-5.406.376-4 .376-2.234.375-.5 1.578.922 3.313.922 4.937.922 5.703-.063 6-.828H4.516c-.157.203-.61.562-1.235.562-1 0-1.484-.984-1.484-1.5zM1.844-2.922c.11-.672.61-1.281 1.437-1.281.781 0 1.266.5 1.422 1.281zm0 0"/></symbol><symbol overflow="visible" id="at"><path d="M6.297.797L3.594-2.938l2.312-2.28H4.094l-2 1.984v-4.25H.656v8.28h1.438v-2.218l.484-.531L4.625.797zm0 0"/></symbol><symbol overflow="visible" id="av"><path d="M4.844-7.375H3.422L3.406-1.5c0 .813-.422 1.172-.953 1.172-.515 0-.922-.36-.922-1.172v-.563H.094v.782C.109.203 1.219.984 2.454.984c1.233 0 2.39-.859 2.39-2.343zm0 0"/></symbol><symbol overflow="visible" id="aw"><path d="M6.266-5.281H4.844v.515c-.532-.468-1.172-.687-1.89-.687C1.515-5.453.311-4.391.311-2.75.313-1.062 1.36.094 2.954.094c.719 0 1.36-.266 1.89-.735v.438C4.844.609 4.189 1 3.36 1 2.61 1 1.953.61 1.953.234H.531c.063 1.016 1.078 2 2.828 2 1.282 0 2.938-.562 2.907-2.578zM3.28-1.094c-.953 0-1.547-.64-1.547-1.656s.594-1.547 1.563-1.547S4.89-3.766 4.89-2.75 4.25-1.094 3.28-1.094zm0 0"/></symbol><symbol overflow="visible" id="ax"><path d="M3.547-6.563H.625V.47h.688v-2.844h2.234c1.36 0 2.375-.828 2.375-2.078 0-1.281-1.016-2.11-2.375-2.11zm0 3.579H1.312v-2.97h2.235c.86 0 1.656.454 1.656 1.5 0 1-.797 1.47-1.656 1.47zm0 0"/></symbol><symbol overflow="visible" id="ay"><path d="M5.016.453v-3.437c0-.891-.61-1.766-1.688-1.829-.953-.062-1.578.375-2.015.875v-2.624H.625V.452h.688v-3.14c0-.688.703-1.47 1.656-1.47.844 0 1.36.5 1.36 1.423V.453zm0 0"/></symbol><symbol overflow="visible" id="az"><path d="M1.688 1.078V0H.563v1.078zm0 0"/></symbol><symbol overflow="visible" id="aA"><path d="M2.953-6.563H.625V.484h2.328c2 0 3.281-1.515 3.281-3.53 0-2-1.28-3.517-3.28-3.517zm-.14 6.438h-1.5v-5.828h1.5c1.765 0 2.671 1.266 2.671 2.906 0 1.563-.906 2.922-2.671 2.922zm0 0"/></symbol><symbol overflow="visible" id="aB"><path d="M1.688 0H.563v.953h.625c0 .219-.25.5-.61.531l.266.329c.187-.079.422-.172.594-.407a1.12 1.12 0 0 0 .25-.718zm0 0"/></symbol><symbol overflow="visible" id="aD"><path d="M5.516-5.953v-.594H.03v.594h2.406L2.422.484h.703v-6.437zm0 0"/></symbol><symbol overflow="visible" id="aE"><path d="M6.61.453L3.655-6.563h-.781L-.094.484h.719l.797-1.906h3.687L5.922.453zM4.874-2.03H1.672l1.594-3.797zm0 0"/></symbol><symbol overflow="visible" id="aF"><path d="M2.578 1.781C1.563.047 1.141-1.516 1.141-2.984c0-1.485.421-3.032 1.437-4.782h-.5c-.64.97-1.687 2.61-1.687 4.782C.39-.813 1.437.812 2.078 1.78zm0 0"/></symbol><symbol overflow="visible" id="aG"><path d="M5.063.484a2.484 2.484 0 0 1-.141-.828v-2.781c0-1.078-1.016-1.703-2.219-1.703-1.25 0-2.297.672-2.203 1.687h.656c-.031-.656.578-1.093 1.547-1.093 1.031 0 1.5.546 1.5 1.078 0 .469-.5.578-.828.64-.625.11-1.39.11-1.984.282C.656-2.016.094-1.516.187-.625c.094.89.938 1.328 2 1.266.829-.047 1.61-.516 2.016-.97.016.345.094.673.172.813zm-.86-1.828c0 .64-.969 1.344-1.937 1.422C1.546.125.922-.125.875-.734c-.031-.532.328-.891 1.031-1.079.313-.078 1.266-.156 1.688-.25.219-.03.453-.14.61-.25zm0 0"/></symbol><symbol overflow="visible" id="aH"><path d="M3.203-4.797c-.219 0-.64.047-.969.203-.375.188-.671.438-.859.782l-.063-.016v-.797H.625V.453h.688v-2.656c0-.89.296-1.375.89-1.719.313-.172.703-.203 1-.203zm0 0"/></symbol><symbol overflow="visible" id="aI"><path d="M7.344.453v-3.5c0-.844-.407-1.719-1.407-1.765-1.03-.063-1.593.625-1.796.906-.204-.5-.657-.875-1.235-.906-.781-.032-1.281.375-1.625.812v-.625H.594V.453h.687v-3.187c0-.813.516-1.438 1.297-1.454.797-.015 1.063.516 1.063 1.36L3.656.453h.656v-3.187c0-.844.532-1.438 1.313-1.454.781-.015 1.047.516 1.047 1.36V.453zm0 0"/></symbol><symbol overflow="visible" id="aJ"><path d="M4.297-1.047c-.172.61-.734 1.11-1.563 1.11C1.688.063.97-.829.97-2.079c0-1.235.719-2.125 1.765-2.125 1 0 1.47.656 1.579 1.125h.734c-.14-.766-.969-1.735-2.313-1.735-1.546 0-2.5 1.188-2.5 2.735 0 1.531.954 2.734 2.5 2.734 1.329 0 2.079-.86 2.313-1.703zm0 0"/></symbol><symbol overflow="visible" id="aK"><path d="M5.219-1.922c.047-1.906-1.125-2.89-2.5-2.89-1.5 0-2.485 1.187-2.485 2.734C.234-.547 1.25.656 2.734.656c1.375 0 2.032-.86 2.282-1.547h-.75c-.172.485-.641.954-1.547.954-.86 0-1.735-.797-1.766-1.97zM.984-2.469c.063-1.062.797-1.75 1.735-1.75.969 0 1.719.703 1.765 1.75zm0 0"/></symbol><symbol overflow="visible" id="aL"><path d="M4.86.484v-5.109h-.657v3.11c0 .796-.703 1.5-1.656 1.53-.844.016-1.39-.5-1.39-1.437v-3.203H.5l-.016 3.39c0 1.188.86 1.891 1.813 1.891.89 0 1.5-.406 1.906-.953v.781zm0 0"/></symbol><symbol overflow="visible" id="aM"><path d="M2.14-4.094v-.562h-.734v-1.578H.72v1.578h-.64v.562h.64v3.375c0 .406.015.61.172.813.14.203.375.375.671.375h.532v-.547c-.14 0-.406 0-.547-.14-.172-.157-.14-.313-.14-.579v-3.297zm0 0"/></symbol><symbol overflow="visible" id="aN"><path d="M1.344-5.813v-.78h-.75v.78zM1.312.454v-5.187H.625V.453zm0 0"/></symbol><symbol overflow="visible" id="aO"><path d="M1.313.453v-7.016H.625V.454zm0 0"/></symbol><symbol overflow="visible" id="aP"><path d="M4.406-3.094c-.765-.312-1.687-.39-2.187-.562-.485-.156-1.063-.453-1.031-1.203.015-.735.687-1.329 1.75-1.329 1.109 0 1.828.75 1.812 1.625h.688c.03-.734-.563-2.234-2.5-2.234C1.266-6.797.5-5.766.453-4.859c-.047.921.5 1.453 1.438 1.78.671.25 1.5.267 2.14.532.61.281 1.016.688.907 1.313C4.813-.422 4.03.094 2.984.094 1.797.094.891-.546.891-1.813H.203C.187-.546 1.093.704 2.953.704c1.672 0 2.563-.922 2.703-1.953.11-.813-.422-1.516-1.25-1.844zm0 0"/></symbol><symbol overflow="visible" id="aQ"><path d="M5.125-4.64h-.672v.687l-.047.015a2.176 2.176 0 0 0-1.781-.89c-1.39 0-2.36.984-2.36 2.453 0 1.453 1 2.438 2.36 2.438.719 0 1.516-.344 1.828-.954v.766c0 .938-.578 1.531-1.625 1.531-1.031 0-1.594-.515-1.656-1.062H.5C.594 1.109 1.328 2 2.813 2c1.25 0 2.312-.688 2.312-2.125zM2.719-.548c-1.031 0-1.703-.672-1.703-1.828 0-1.172.671-1.844 1.703-1.844 1.047 0 1.734.672 1.734 1.844 0 1.156-.687 1.828-1.734 1.828zm0 0"/></symbol><symbol overflow="visible" id="aR"><path d="M4.969-4.625H4.28L2.563-.547.796-4.625H.094L2.204.313l-.298.671c-.093.25-.265.47-.578.454H.953V2h.281c.297 0 .5-.031.75-.156.25-.14.422-.422.547-.75zm0 0"/></symbol><symbol overflow="visible" id="aS"><path d="M1.281.453v-7H.625v7zm0 0"/></symbol><symbol overflow="visible" id="aT"><path d="M5.016.453v-3.437c0-.891-.61-1.766-1.688-1.829-.953-.062-1.578.36-2.015.875v-.687H.625V.453h.688v-3.11c0-.734.703-1.5 1.656-1.5.844 0 1.36.5 1.36 1.423V.453zm0 0"/></symbol><symbol overflow="visible" id="aU"><path d="M3.578-2.156c-.453-.219-1.125-.281-1.594-.422-.359-.125-.953-.313-.921-.844.03-.515.484-.844 1.296-.844.97 0 1.375.579 1.375 1.032h.672c.047-.672-.61-1.641-2.015-1.641-1.282 0-1.954.734-2 1.469-.032.672.5 1.062 1.078 1.25.437.156 1.11.234 1.625.453.469.187.86.437.781.906-.094.563-.719.86-1.438.86C1.579.063.845-.376.845-1.125H.156C.156-.437.703.703 2.47.672 3.688.656 4.484-.047 4.563-.875c.078-.703-.5-1.047-.985-1.281zm0 0"/></symbol><symbol overflow="visible" id="aV"><path d="M6.484.453L3.125-3.578a41.817 41.817 0 0 0 2.781-2.985h-.89a42.633 42.633 0 0 1-3.704 3.797v-3.78H.625v7h.688V-1.86c.234-.204.765-.688 1.312-1.22L5.641.454zm0 0"/></symbol><symbol overflow="visible" id="aW"><path d="M3.531-6.734C1.578-6.734.344-5.22.344-3.047.344-.844 1.578.656 3.53.656c1.938 0 3.203-1.5 3.203-3.703 0-2.172-1.265-3.687-3.203-3.687zm0 6.78c-1.5 0-2.469-1.296-2.469-3.093 0-1.781.97-3.062 2.47-3.062C5.015-6.11 6-4.83 6-3.047 6-1.25 5.016.047 3.531.047zm0 0"/></symbol><symbol overflow="visible" id="aX"><path d="M6.328.453L4.266-2.562c.906-.235 1.687-.985 1.687-1.985 0-1.172-.969-2.016-2.344-2.016H.625V.454h.688V-2.5h2.171L5.516.453zM3.562-3.094h-2.25v-2.86H3.61c.813 0 1.61.391 1.61 1.407 0 .984-.828 1.453-1.657 1.453zm0 0"/></symbol><symbol overflow="visible" id="aY"><path d="M5.64.453V-.14H1.314v-2.734h4.062v-.594H1.312v-2.484h4.204v-.594H.625v7zm0 0"/></symbol><symbol overflow="visible" id="aZ"><path d="M.781-7.766h-.5C1.297-6.016 1.72-4.469 1.72-2.984c0 1.468-.422 3.03-1.438 4.765h.5C1.421.813 2.47-.812 2.47-2.984c0-2.172-1.047-3.813-1.688-4.782zm0 0"/></symbol><symbol overflow="visible" id="ba"><path d="M3.516-5.734L.156-1.016H2.75V0h.766v-1.016h.562v-.75h-.562zM1.546-1.75L2.75-3.469v1.719zm0 0"/></symbol><symbol overflow="visible" id="bb"><path d="M2.734-5.516L1.281-3.609c-.234.312-.437.546-.64.953a2.17 2.17 0 0 0-.25 1.015c0 .516.187.907.453 1.204.406.421.89.53 1.36.53.343 0 .905-.062 1.343-.515.344-.344.515-.86.515-1.344 0-.484-.187-.937-.468-1.25C3.39-3.234 3-3.5 2.39-3.5c-.11 0-.204 0-.329.031l1.25-1.61zm-.5 2.704c.266 0 .563.109.735.296.203.204.312.532.312.797 0 .266-.11.594-.312.797a1.097 1.097 0 0 1-.735.297c-.28 0-.593-.14-.75-.297-.203-.203-.312-.531-.312-.797 0-.343.14-.625.312-.797.188-.187.485-.296.75-.296zm0 0"/></symbol></defs><g fill="#231f20"><use xlink:href="#a" x="43.403" y="194.051"/><use xlink:href="#b" x="52.984" y="194.051"/><use xlink:href="#c" x="59.189" y="194.051"/><use xlink:href="#d" x="68.05" y="194.051"/><use xlink:href="#e" x="77.822" y="194.051"/><use xlink:href="#f" x="87.739" y="194.051"/><use xlink:href="#g" x="95.224" y="194.051"/><use xlink:href="#h" x="98.806" y="194.051"/><use xlink:href="#d" x="107.827" y="194.051"/><use xlink:href="#e" x="117.599" y="194.051"/><use xlink:href="#g" x="127.516" y="194.051"/><use xlink:href="#i" x="131.098" y="194.051"/><use xlink:href="#b" x="141.206" y="194.051"/><use xlink:href="#j" x="147.412" y="194.051"/><use xlink:href="#f" x="157.104" y="194.051"/><use xlink:href="#k" x="164.59" y="194.051"/><use xlink:href="#c" x="174.506" y="194.051"/><use xlink:href="#l" x="183.366" y="194.051"/><use xlink:href="#m" x="191.507" y="194.051"/><use xlink:href="#f" x="197.537" y="194.051"/><use xlink:href="#g" x="205.022" y="194.051"/><use xlink:href="#j" x="208.605" y="194.051"/><use xlink:href="#n" x="218.297" y="194.051"/><use xlink:href="#g" x="223.495" y="194.051"/><use xlink:href="#m" x="227.078" y="194.051"/><use xlink:href="#o" x="233.108" y="194.051"/><use xlink:href="#c" x="242.816" y="194.051"/><use xlink:href="#g" x="251.677" y="194.051"/><use xlink:href="#p" x="255.259" y="194.051"/><use xlink:href="#q" x="266.279" y="194.051"/><use xlink:href="#j" x="270.837" y="194.051"/><use xlink:href="#r" x="280.53" y="194.051"/><use xlink:href="#h" x="290.414" y="194.051"/><use xlink:href="#q" x="299.435" y="194.051"/><use xlink:href="#g" x="303.993" y="194.051"/><use xlink:href="#i" x="307.576" y="194.051"/><use xlink:href="#o" x="317.684" y="194.051"/><use xlink:href="#h" x="327.392" y="194.051"/><use xlink:href="#b" x="336.413" y="194.051"/><use xlink:href="#s" x="342.618" y="194.051"/><use xlink:href="#h" x="357.429" y="194.051"/><use xlink:href="#l" x="366.449" y="194.051"/><use xlink:href="#c" x="374.59" y="194.051"/><use xlink:href="#t" x="383.451" y="194.051"/><use xlink:href="#m" x="393.159" y="194.051"/><use xlink:href="#u" x="399.189" y="194.051"/><use xlink:href="#l" x="403.587" y="194.051"/><use xlink:href="#h" x="411.728" y="194.051"/><use xlink:href="#q" x="420.749" y="194.051"/><use xlink:href="#g" x="425.307" y="194.051"/><use xlink:href="#v" x="428.89" y="194.051"/><use xlink:href="#u" x="439.398" y="194.051"/><use xlink:href="#j" x="443.796" y="194.051"/><use xlink:href="#g" x="453.488" y="194.051"/><use xlink:href="#w" x="457.071" y="194.051"/><use xlink:href="#d" x="461.757" y="194.051"/><use xlink:href="#e" x="471.53" y="194.051"/><use xlink:href="#t" x="481.446" y="194.051"/><use xlink:href="#f" x="491.154" y="194.051"/><use xlink:href="#m" x="498.639" y="194.051"/><use xlink:href="#b" x="504.669" y="194.051"/><use xlink:href="#x" x="510.875" y="194.051"/></g><g fill="#231f20"><use xlink:href="#y" x="36.275" y="354.604"/><use xlink:href="#z" x="42.313" y="354.604"/><use xlink:href="#A" x="48.401" y="354.604"/><use xlink:href="#B" x="51.17" y="354.604"/><use xlink:href="#C" x="55.888" y="354.604"/></g><g fill="#231f20"><use xlink:href="#D" x="57.989" y="354.604"/><use xlink:href="#E" x="60.858" y="354.604"/><use xlink:href="#F" x="66.436" y="354.604"/><use xlink:href="#G" x="71.624" y="354.604"/><use xlink:href="#H" x="75.343" y="354.604"/><use xlink:href="#I" x="81.44" y="354.604"/><use xlink:href="#E" x="85.229" y="354.604"/><use xlink:href="#C" x="90.807" y="354.604"/></g><g fill="#231f20"><use xlink:href="#E" x="92.908" y="354.604"/><use xlink:href="#J" x="98.486" y="354.604"/><use xlink:href="#K" x="103.284" y="354.604"/><use xlink:href="#L" x="108.952" y="354.604"/><use xlink:href="#A" x="118.188" y="354.604"/><use xlink:href="#M" x="120.957" y="354.604"/><use xlink:href="#E" x="127.085" y="354.604"/><use xlink:href="#B" x="132.663" y="354.604"/><use xlink:href="#C" x="137.381" y="354.604"/></g><g fill="#231f20"><use xlink:href="#G" x="139.481" y="354.604"/><use xlink:href="#I" x="143.2" y="354.604"/><use xlink:href="#E" x="146.988" y="354.604"/><use xlink:href="#M" x="152.566" y="354.604"/><use xlink:href="#N" x="158.694" y="354.604"/><use xlink:href="#B" x="164.942" y="354.604"/><use xlink:href="#C" x="169.66" y="354.604"/></g><g fill="#231f20"><use xlink:href="#A" x="171.761" y="354.604"/><use xlink:href="#M" x="174.53" y="354.604"/><use xlink:href="#C" x="180.658" y="354.604"/></g><g fill="#231f20"><use xlink:href="#G" x="182.759" y="354.604"/><use xlink:href="#z" x="186.478" y="354.604"/><use xlink:href="#E" x="192.565" y="354.604"/><use xlink:href="#C" x="198.143" y="354.604"/></g><g fill="#231f20"><use xlink:href="#O" x="200.245" y="354.604"/><use xlink:href="#P" x="206.673" y="354.604"/><use xlink:href="#I" x="212.811" y="354.604"/><use xlink:href="#E" x="216.599" y="354.604"/><use xlink:href="#K" x="222.177" y="354.604"/><use xlink:href="#C" x="227.845" y="354.604"/></g><g fill="#231f20"><use xlink:href="#K" x="229.945" y="354.604"/><use xlink:href="#M" x="235.613" y="354.604"/><use xlink:href="#N" x="241.741" y="354.604"/><use xlink:href="#C" x="247.988" y="354.604"/></g><g fill="#231f20"><use xlink:href="#Q" x="250.09" y="354.604"/><use xlink:href="#D" x="257.018" y="354.604"/><use xlink:href="#P" x="259.887" y="354.604"/><use xlink:href="#R" x="266.024" y="354.604"/><use xlink:href="#K" x="272.252" y="354.604"/><use xlink:href="#D" x="277.92" y="354.604"/><use xlink:href="#C" x="280.789" y="354.604"/></g><g fill="#231f20"><use xlink:href="#S" x="282.891" y="354.604"/><use xlink:href="#z" x="289.139" y="354.604"/><use xlink:href="#K" x="295.226" y="354.604"/><use xlink:href="#I" x="300.894" y="354.604"/><use xlink:href="#L" x="304.683" y="354.604"/><use xlink:href="#K" x="313.919" y="354.604"/><use xlink:href="#F" x="319.587" y="354.604"/><use xlink:href="#E" x="324.775" y="354.604"/><use xlink:href="#H" x="330.353" y="354.604"/><use xlink:href="#G" x="336.451" y="354.604"/><use xlink:href="#A" x="340.169" y="354.604"/><use xlink:href="#F" x="342.938" y="354.604"/><use xlink:href="#K" x="348.126" y="354.604"/><use xlink:href="#D" x="353.794" y="354.604"/><use xlink:href="#T" x="356.663" y="354.604"/><use xlink:href="#R" x="363.311" y="354.604"/><use xlink:href="#A" x="369.538" y="354.604"/><use xlink:href="#P" x="372.307" y="354.604"/><use xlink:href="#C" x="378.445" y="354.604"/></g><g fill="#231f20"><use xlink:href="#A" x="380.545" y="354.604"/><use xlink:href="#M" x="383.314" y="354.604"/><use xlink:href="#N" x="389.442" y="354.604"/><use xlink:href="#H" x="395.689" y="354.604"/><use xlink:href="#B" x="401.787" y="354.604"/><use xlink:href="#G" x="406.505" y="354.604"/><use xlink:href="#I" x="410.224" y="354.604"/><use xlink:href="#U" x="414.013" y="354.604"/><use xlink:href="#C" x="419.111" y="354.604"/></g><g fill="#231f20"><use xlink:href="#L" x="421.212" y="354.604"/><use xlink:href="#K" x="430.448" y="354.604"/><use xlink:href="#I" x="436.116" y="354.604"/><use xlink:href="#V" x="439.905" y="354.604"/><use xlink:href="#E" x="445.313" y="354.604"/><use xlink:href="#G" x="450.891" y="354.604"/><use xlink:href="#W" x="454.609" y="354.604"/><use xlink:href="#C" x="457.308" y="354.604"/></g><g fill="#231f20"><use xlink:href="#S" x="459.408" y="354.604"/><use xlink:href="#P" x="465.656" y="354.604"/><use xlink:href="#D" x="471.794" y="354.604"/><use xlink:href="#A" x="474.663" y="354.604"/><use xlink:href="#F" x="477.432" y="354.604"/><use xlink:href="#U" x="482.62" y="354.604"/><use xlink:href="#W" x="487.718" y="354.604"/><use xlink:href="#C" x="490.417" y="354.604"/></g><g fill="#231f20"><use xlink:href="#K" x="492.519" y="354.604"/><use xlink:href="#M" x="498.187" y="354.604"/><use xlink:href="#N" x="504.314" y="354.604"/><use xlink:href="#C" x="510.562" y="354.604"/></g><g fill="#231f20"><use xlink:href="#G" x="512.663" y="354.604"/><use xlink:href="#E" x="516.382" y="354.604"/><use xlink:href="#F" x="521.96" y="354.604"/><use xlink:href="#z" x="527.148" y="354.604"/><use xlink:href="#M" x="533.235" y="354.604"/><use xlink:href="#P" x="539.363" y="354.604"/><use xlink:href="#D" x="545.501" y="354.604"/></g><use xlink:href="#X" x="548.37" y="354.604" fill="#231f20"/><g fill="#231f20"><use xlink:href="#P" x="36.275" y="371.597"/><use xlink:href="#Y" x="42.413" y="371.597"/><use xlink:href="#U" x="48.041" y="371.597"/><use xlink:href="#W" x="53.139" y="371.597"/><use xlink:href="#C" x="55.838" y="371.597"/></g><g fill="#231f20"><use xlink:href="#K" x="58.578" y="371.597"/><use xlink:href="#M" x="64.246" y="371.597"/><use xlink:href="#N" x="70.373" y="371.597"/><use xlink:href="#C" x="76.621" y="371.597"/></g><g fill="#231f20"><use xlink:href="#A" x="79.361" y="371.597"/><use xlink:href="#D" x="82.13" y="371.597"/><use xlink:href="#D" x="84.999" y="371.597"/><use xlink:href="#H" x="87.868" y="371.597"/><use xlink:href="#L" x="93.965" y="371.597"/><use xlink:href="#A" x="103.202" y="371.597"/><use xlink:href="#M" x="105.971" y="371.597"/><use xlink:href="#K" x="112.099" y="371.597"/><use xlink:href="#G" x="117.766" y="371.597"/><use xlink:href="#E" x="121.485" y="371.597"/><use xlink:href="#B" x="127.063" y="371.597"/><use xlink:href="#C" x="131.781" y="371.597"/></g><g fill="#231f20"><use xlink:href="#G" x="134.52" y="371.597"/><use xlink:href="#z" x="138.239" y="371.597"/><use xlink:href="#E" x="144.326" y="371.597"/><use xlink:href="#C" x="149.904" y="371.597"/></g><g fill="#231f20"><use xlink:href="#Z" x="152.643" y="371.597"/><use xlink:href="#H" x="155.822" y="371.597"/><use xlink:href="#G" x="161.92" y="371.597"/><use xlink:href="#H" x="165.638" y="371.597"/><use xlink:href="#I" x="171.736" y="371.597"/><use xlink:href="#E" x="175.525" y="371.597"/><use xlink:href="#C" x="181.103" y="371.597"/></g><g fill="#231f20"><use xlink:href="#S" x="183.842" y="371.597"/><use xlink:href="#I" x="190.089" y="371.597"/><use xlink:href="#P" x="193.878" y="371.597"/><use xlink:href="#B" x="200.015" y="371.597"/><use xlink:href="#S" x="204.734" y="371.597"/><use xlink:href="#E" x="210.981" y="371.597"/><use xlink:href="#F" x="216.559" y="371.597"/><use xlink:href="#G" x="221.747" y="371.597"/><use xlink:href="#B" x="225.466" y="371.597"/><use xlink:href="#C" x="230.184" y="371.597"/></g><g fill="#231f20"><use xlink:href="#R" x="232.923" y="371.597"/><use xlink:href="#K" x="239.151" y="371.597"/><use xlink:href="#B" x="244.818" y="371.597"/><use xlink:href="#E" x="249.537" y="371.597"/><use xlink:href="#N" x="255.115" y="371.597"/><use xlink:href="#C" x="261.362" y="371.597"/></g><g fill="#231f20"><use xlink:href="#P" x="264.102" y="371.597"/><use xlink:href="#M" x="270.24" y="371.597"/><use xlink:href="#C" x="276.368" y="371.597"/></g><g fill="#231f20"><use xlink:href="#G" x="279.106" y="371.597"/><use xlink:href="#z" x="282.825" y="371.597"/><use xlink:href="#A" x="288.913" y="371.597"/><use xlink:href="#B" x="291.682" y="371.597"/><use xlink:href="#aa" x="296.4" y="371.597"/><use xlink:href="#C" x="299.099" y="371.597"/></g><g fill="#231f20"><use xlink:href="#ab" x="301.84" y="371.597"/><use xlink:href="#M" x="304.759" y="371.597"/><use xlink:href="#C" x="310.886" y="371.597"/></g><g fill="#231f20"><use xlink:href="#S" x="313.627" y="371.597"/><use xlink:href="#K" x="319.875" y="371.597"/><use xlink:href="#I" x="325.543" y="371.597"/><use xlink:href="#G" x="329.332" y="371.597"/><use xlink:href="#A" x="333.05" y="371.597"/><use xlink:href="#F" x="335.819" y="371.597"/><use xlink:href="#H" x="341.007" y="371.597"/><use xlink:href="#D" x="347.105" y="371.597"/><use xlink:href="#K" x="349.974" y="371.597"/><use xlink:href="#I" x="355.642" y="371.597"/><use xlink:href="#W" x="359.43" y="371.597"/><use xlink:href="#C" x="362.129" y="371.597"/></g><g fill="#231f20"><use xlink:href="#R" x="364.868" y="371.597"/><use xlink:href="#K" x="371.096" y="371.597"/><use xlink:href="#B" x="376.764" y="371.597"/><use xlink:href="#E" x="381.482" y="371.597"/><use xlink:href="#N" x="387.06" y="371.597"/><use xlink:href="#C" x="393.307" y="371.597"/></g><g fill="#231f20"><use xlink:href="#P" x="396.047" y="371.597"/><use xlink:href="#M" x="402.185" y="371.597"/><use xlink:href="#C" x="408.313" y="371.597"/></g><g fill="#231f20"><use xlink:href="#G" x="411.053" y="371.597"/><use xlink:href="#z" x="414.771" y="371.597"/><use xlink:href="#E" x="420.859" y="371.597"/><use xlink:href="#C" x="426.437" y="371.597"/></g><g fill="#231f20"><use xlink:href="#B" x="429.176" y="371.597"/><use xlink:href="#G" x="433.894" y="371.597"/><use xlink:href="#K" x="437.613" y="371.597"/><use xlink:href="#G" x="443.28" y="371.597"/><use xlink:href="#A" x="446.999" y="371.597"/><use xlink:href="#B" x="449.768" y="371.597"/><use xlink:href="#G" x="454.486" y="371.597"/><use xlink:href="#A" x="458.205" y="371.597"/><use xlink:href="#F" x="460.974" y="371.597"/><use xlink:href="#B" x="466.162" y="371.597"/><use xlink:href="#C" x="470.88" y="371.597"/></g><g fill="#231f20"><use xlink:href="#P" x="473.62" y="371.597"/><use xlink:href="#Z" x="479.758" y="371.597"/><use xlink:href="#C" x="482.936" y="371.597"/></g><g fill="#231f20"><use xlink:href="#N" x="485.676" y="371.597"/><use xlink:href="#I" x="491.924" y="371.597"/><use xlink:href="#H" x="495.713" y="371.597"/><use xlink:href="#Y" x="501.81" y="371.597"/><use xlink:href="#C" x="507.438" y="371.597"/></g><g fill="#231f20"><use xlink:href="#K" x="510.178" y="371.597"/><use xlink:href="#S" x="515.846" y="371.597"/><use xlink:href="#S" x="522.094" y="371.597"/><use xlink:href="#I" x="528.341" y="371.597"/><use xlink:href="#P" x="532.13" y="371.597"/><use xlink:href="#ac" x="538.268" y="371.597"/><use xlink:href="#K" x="543.356" y="371.597"/><use xlink:href="#D" x="549.023" y="371.597"/><use xlink:href="#C" x="551.892" y="371.597"/></g><g fill="#231f20"><use xlink:href="#R" x="36.275" y="388.591"/><use xlink:href="#U" x="42.503" y="388.591"/><use xlink:href="#C" x="47.601" y="388.591"/><use xlink:href="#G" x="50.02" y="388.591"/><use xlink:href="#z" x="53.739" y="388.591"/><use xlink:href="#E" x="59.826" y="388.591"/><use xlink:href="#C" x="65.404" y="388.591"/><use xlink:href="#ad" x="67.823" y="388.591"/><use xlink:href="#ae" x="73.341" y="388.591"/><use xlink:href="#af" x="80.259" y="388.591"/><use xlink:href="#C" x="86.326" y="388.591"/><use xlink:href="#A" x="88.745" y="388.591"/><use xlink:href="#M" x="91.514" y="388.591"/><use xlink:href="#C" x="97.642" y="388.591"/><use xlink:href="#G" x="100.061" y="388.591"/><use xlink:href="#z" x="103.78" y="388.591"/><use xlink:href="#E" x="109.867" y="388.591"/><use xlink:href="#C" x="115.445" y="388.591"/><use xlink:href="#ag" x="117.864" y="388.591"/><use xlink:href="#ah" x="125.112" y="388.591"/><use xlink:href="#C" x="131.109" y="388.591"/><use xlink:href="#Z" x="133.529" y="388.591"/><use xlink:href="#I" x="136.707" y="388.591"/><use xlink:href="#P" x="140.496" y="388.591"/><use xlink:href="#L" x="146.634" y="388.591"/><use xlink:href="#C" x="155.87" y="388.591"/><use xlink:href="#K" x="158.289" y="388.591"/><use xlink:href="#R" x="163.957" y="388.591"/><use xlink:href="#P" x="170.185" y="388.591"/><use xlink:href="#H" x="176.322" y="388.591"/><use xlink:href="#G" x="182.42" y="388.591"/><use xlink:href="#C" x="186.139" y="388.591"/><use xlink:href="#ai" x="188.558" y="388.591"/><use xlink:href="#aj" x="194.106" y="388.591"/><use xlink:href="#aj" x="199.654" y="388.591"/><use xlink:href="#ak" x="205.201" y="388.591"/><use xlink:href="#C" x="210.749" y="388.591"/><use xlink:href="#G" x="213.168" y="388.591"/><use xlink:href="#P" x="216.887" y="388.591"/><use xlink:href="#C" x="223.025" y="388.591"/><use xlink:href="#ai" x="225.444" y="388.591"/><use xlink:href="#aj" x="230.992" y="388.591"/><use xlink:href="#ai" x="236.54" y="388.591"/><use xlink:href="#al" x="242.087" y="388.591"/><use xlink:href="#W" x="247.635" y="388.591"/><use xlink:href="#C" x="250.334" y="388.591"/><use xlink:href="#G" x="252.753" y="388.591"/><use xlink:href="#z" x="256.472" y="388.591"/><use xlink:href="#E" x="262.56" y="388.591"/><use xlink:href="#C" x="268.138" y="388.591"/><use xlink:href="#B" x="270.557" y="388.591"/><use xlink:href="#H" x="275.275" y="388.591"/><use xlink:href="#F" x="281.373" y="388.591"/><use xlink:href="#F" x="286.561" y="388.591"/><use xlink:href="#E" x="291.749" y="388.591"/><use xlink:href="#B" x="297.327" y="388.591"/><use xlink:href="#B" x="302.045" y="388.591"/><use xlink:href="#C" x="306.763" y="388.591"/><use xlink:href="#I" x="309.182" y="388.591"/><use xlink:href="#K" x="312.971" y="388.591"/><use xlink:href="#G" x="318.639" y="388.591"/><use xlink:href="#E" x="322.357" y="388.591"/><use xlink:href="#C" x="327.935" y="388.591"/></g><g fill="#231f20"><use xlink:href="#R" x="330.354" y="388.591"/><use xlink:href="#U" x="336.582" y="388.591"/><use xlink:href="#C" x="341.68" y="388.591"/><use xlink:href="#F" x="344.099" y="388.591"/><use xlink:href="#D" x="349.287" y="388.591"/><use xlink:href="#A" x="352.156" y="388.591"/><use xlink:href="#M" x="354.925" y="388.591"/><use xlink:href="#A" x="361.053" y="388.591"/><use xlink:href="#F" x="363.821" y="388.591"/><use xlink:href="#K" x="369.01" y="388.591"/><use xlink:href="#D" x="374.677" y="388.591"/><use xlink:href="#C" x="377.546" y="388.591"/><use xlink:href="#B" x="379.965" y="388.591"/><use xlink:href="#G" x="384.684" y="388.591"/><use xlink:href="#K" x="388.402" y="388.591"/><use xlink:href="#Y" x="394.07" y="388.591"/><use xlink:href="#E" x="399.698" y="388.591"/><use xlink:href="#C" x="405.276" y="388.591"/><use xlink:href="#K" x="407.695" y="388.591"/><use xlink:href="#M" x="413.363" y="388.591"/><use xlink:href="#N" x="419.49" y="388.591"/><use xlink:href="#C" x="425.738" y="388.591"/><use xlink:href="#N" x="428.157" y="388.591"/><use xlink:href="#A" x="434.405" y="388.591"/><use xlink:href="#B" x="437.174" y="388.591"/><use xlink:href="#E" x="441.892" y="388.591"/><use xlink:href="#K" x="447.47" y="388.591"/><use xlink:href="#B" x="453.138" y="388.591"/><use xlink:href="#E" x="457.856" y="388.591"/><use xlink:href="#W" x="463.434" y="388.591"/><use xlink:href="#C" x="466.133" y="388.591"/><use xlink:href="#E" x="468.552" y="388.591"/><use xlink:href="#G" x="474.13" y="388.591"/><use xlink:href="#F" x="477.848" y="388.591"/><use xlink:href="#aa" x="483.036" y="388.591"/></g><g fill="#231f20"><use xlink:href="#am" x="457.015" y="278.585"/><use xlink:href="#an" x="464.239" y="278.585"/><use xlink:href="#ao" x="470.759" y="278.585"/><use xlink:href="#ap" x="477.379" y="278.585"/><use xlink:href="#aq" x="484.724" y="278.585"/><use xlink:href="#ar" x="491.443" y="278.585"/><use xlink:href="#as" x="498.106" y="278.585"/><use xlink:href="#at" x="504.726" y="278.585"/><use xlink:href="#au" x="511.147" y="278.585"/><use xlink:href="#av" x="514.996" y="278.585"/><use xlink:href="#an" x="520.604" y="278.585"/><use xlink:href="#ao" x="527.124" y="278.585"/><use xlink:href="#aw" x="533.744" y="278.585"/></g><g fill="#231f20"><use xlink:href="#ax" x="305.269" y="294.786"/><use xlink:href="#ay" x="311.327" y="294.786"/><use xlink:href="#az" x="316.815" y="294.786"/><use xlink:href="#aA" x="319.364" y="294.786"/><use xlink:href="#az" x="325.931" y="294.786"/><use xlink:href="#aB" x="328.481" y="294.786"/><use xlink:href="#aC" x="331.03" y="294.786"/><use xlink:href="#aD" x="334.528" y="294.786"/><use xlink:href="#aD" x="340.066" y="294.786"/><use xlink:href="#aE" x="345.604" y="294.786"/><use xlink:href="#aC" x="352.122" y="294.786"/><use xlink:href="#aF" x="355.62" y="294.786"/><use xlink:href="#ax" x="358.549" y="294.786"/><use xlink:href="#ay" x="364.607" y="294.786"/><use xlink:href="#aG" x="370.095" y="294.786"/><use xlink:href="#aH" x="375.463" y="294.786"/><use xlink:href="#aI" x="378.762" y="294.786"/><use xlink:href="#aG" x="386.609" y="294.786"/><use xlink:href="#aJ" x="391.977" y="294.786"/><use xlink:href="#aK" x="397.235" y="294.786"/><use xlink:href="#aL" x="402.702" y="294.786"/><use xlink:href="#aM" x="408.12" y="294.786"/><use xlink:href="#aN" x="410.53" y="294.786"/><use xlink:href="#aJ" x="412.449" y="294.786"/><use xlink:href="#aG" x="417.707" y="294.786"/><use xlink:href="#aO" x="423.075" y="294.786"/><use xlink:href="#aC" x="424.994" y="294.786"/><use xlink:href="#aP" x="428.493" y="294.786"/><use xlink:href="#aM" x="434.341" y="294.786"/><use xlink:href="#aH" x="436.75" y="294.786"/><use xlink:href="#aG" x="440.048" y="294.786"/><use xlink:href="#aM" x="445.416" y="294.786"/><use xlink:href="#aK" x="447.825" y="294.786"/><use xlink:href="#aQ" x="453.293" y="294.786"/><use xlink:href="#aR" x="459.061" y="294.786"/><use xlink:href="#aC" x="464.109" y="294.786"/><use xlink:href="#aS" x="467.608" y="294.786"/><use xlink:href="#aT" x="469.527" y="294.786"/><use xlink:href="#aU" x="475.015" y="294.786"/><use xlink:href="#aM" x="479.833" y="294.786"/><use xlink:href="#aN" x="482.242" y="294.786"/><use xlink:href="#aM" x="484.162" y="294.786"/><use xlink:href="#aL" x="486.571" y="294.786"/><use xlink:href="#aM" x="491.989" y="294.786"/><use xlink:href="#aK" x="494.398" y="294.786"/><use xlink:href="#aB" x="499.866" y="294.786"/><use xlink:href="#aC" x="502.415" y="294.786"/><use xlink:href="#aV" x="505.913" y="294.786"/><use xlink:href="#aW" x="512.211" y="294.786"/><use xlink:href="#aX" x="519.268" y="294.786"/><use xlink:href="#aY" x="525.506" y="294.786"/><use xlink:href="#aE" x="531.334" y="294.786"/><use xlink:href="#aZ" x="537.851" y="294.786"/></g><g fill="#7b7979"><use xlink:href="#ba" x="27.429" y="818.875"/><use xlink:href="#bb" x="31.645" y="818.875"/></g></svg>