<svg xmlns="http://www.w3.org/2000/svg" xmlns:xlink="http://www.w3.org/1999/xlink" width="793.033" height="1122.52" viewBox="0 0 594.7751 841.89" version="1.2"><defs><symbol overflow="visible" id="a"><path d="M.39-.219l.626.406 3.296-5.515H.422v.75H3zm0 0"/></symbol><symbol overflow="visible" id="b"><path d="M.36 0h3.515v-.422H2.062c-.312 0-.64.031-.968.047 1.547-1.438 2.5-2.672 2.5-3.89 0-1-.61-1.673-1.625-1.673-.703 0-1.188.36-1.625.844l.281.282c.344-.422.797-.735 1.297-.735.828 0 1.203.578 1.203 1.297 0 1.063-.781 2.266-2.766 3.969zm0 0"/></symbol><symbol overflow="visible" id="c"><path d="M1 .11c.219 0 .406-.172.406-.438S1.22-.766 1-.766c-.219 0-.406.172-.406.438S.78.109 1 .109zm0 0"/></symbol><symbol overflow="visible" id="d"><path d="M.734 0H3.75v-.406H2.531v-5.422h-.375c-.281.156-.64.281-1.11.36v.312h1.016v4.75H.734zm0 0"/></symbol><symbol overflow="visible" id="e"><path d="M.688-2.063l1.578-2.312a8.18 8.18 0 0 0 .468-.797h.047c-.031.266-.047.703-.047.969v2.14zm3.328 0h-.829v-3.765h-.453L.156-1.953v.297h2.578V0h.454v-1.656h.828zm0 0"/></symbol><symbol overflow="visible" id="g"><path d="M.844 2.219h.344v-8.86H.844zm0 0"/></symbol><symbol overflow="visible" id="h"><path d="M2.438-5.281h1.406v-.36H.547v.36H2.03v.812c0 1.36-.687 2.657-1.64 3.235l.28.312c.735-.453 1.313-1.36 1.563-2.422.25.985.797 1.813 1.516 2.25l.281-.312c-.937-.532-1.593-1.797-1.593-3.063zm2.171 1.36H3.281v.358H4.61V.172h.407V-6.36h-.407zm1.422-2.626v7.11h.422v-7.11zm0 0"/></symbol><symbol overflow="visible" id="i"><path d="M2.031.11c.922 0 1.813-.72 1.813-1.985 0-1.297-.766-1.875-1.719-1.875-.406 0-.703.125-.984.281l.171-1.953h2.25v-.406H.892L.703-3.172 1-2.984c.328-.22.61-.375 1.031-.375.813 0 1.344.578 1.344 1.5 0 .953-.625 1.562-1.36 1.562-.765 0-1.203-.328-1.53-.687l-.266.328c.375.375.906.765 1.812.765zm0 0"/></symbol><symbol overflow="visible" id="j"><path d="M4.984-5.625H3.047v-.938h-.438v.938H.656v.36h4.328zm-3.421 2.14c0-.562.515-.953 1.265-.953.75 0 1.266.391 1.266.954 0 .562-.516.968-1.266.968s-1.265-.406-1.265-.968zm1.484 1.297C3.922-2.265 4.5-2.75 4.5-3.484c0-.797-.672-1.297-1.672-1.297-1 0-1.672.5-1.672 1.297 0 .75.578 1.234 1.453 1.296v.876c-.75.03-1.468.046-2.109.046l.063.36c1.343 0 3.093-.016 4.703-.281L5.234-1.5c-.703.094-1.453.14-2.187.172zm2.687-4.359V.547h.422v-7.094zm0 0"/></symbol><symbol overflow="visible" id="l"><path d="M5.797-6.547v7.11h.422v-7.11zm-3.281.578C1.484-5.969.75-5.016.75-3.53c0 1.484.734 2.437 1.766 2.437 1.03 0 1.765-.953 1.765-2.437 0-1.485-.734-2.438-1.765-2.438zm0 .375c.796 0 1.359.844 1.359 2.063 0 1.219-.563 2.078-1.36 2.078-.796 0-1.359-.86-1.359-2.078 0-1.219.563-2.063 1.36-2.063zm0 0"/></symbol><symbol overflow="visible" id="m"><path d="M2.688-5.89H2.28v1.421c0 1.282-.969 2.64-1.89 3.125l.25.36C1.42-1.438 2.187-2.406 2.5-3.5c.313 1.047 1.063 1.938 1.844 2.36l.25-.329c-.922-.484-1.907-1.765-1.907-3zm4.421 2.312H5.86v-2.969h-.421v7.11h.421V-3.22h1.25zm0 0"/></symbol></defs><g fill="#7b7979"><use xlink:href="#a" x="557.772" y="818.875"/><use xlink:href="#a" x="561.988" y="818.875"/></g><g fill="#231f20"><use xlink:href="#b" x="39.199" y="61.887"/><use xlink:href="#b" x="43.358" y="61.887"/><use xlink:href="#c" x="47.516" y="61.887"/><use xlink:href="#d" x="49.396" y="61.887"/><use xlink:href="#d" x="53.554" y="61.887"/><use xlink:href="#c" x="57.712" y="61.887"/><use xlink:href="#d" x="59.592" y="61.887"/><use xlink:href="#e" x="63.75" y="61.887"/><use xlink:href="#f" x="67.909" y="61.887"/></g><g fill="#231f20"><use xlink:href="#g" x="69.844" y="61.887"/><use xlink:href="#f" x="71.755" y="61.887"/></g><use xlink:href="#h" x="73.69" y="61.887" fill="#231f20"/><use xlink:href="#d" x="80.888" y="61.887" fill="#231f20"/><use xlink:href="#i" x="85.006" y="61.887" fill="#231f20"/><use xlink:href="#j" x="89.124" y="61.887" fill="#231f20"/><use xlink:href="#k" x="96.322" y="61.887" fill="#231f20"/><use xlink:href="#l" x="98.401" y="61.887" fill="#231f20"/><use xlink:href="#m" x="105.598" y="61.887" fill="#231f20"/><use xlink:href="#j" x="112.796" y="61.887" fill="#231f20"/><g fill="#231f20"><use xlink:href="#b" x="39.199" y="407.413"/><use xlink:href="#b" x="43.358" y="407.413"/><use xlink:href="#c" x="47.516" y="407.413"/><use xlink:href="#d" x="49.396" y="407.413"/><use xlink:href="#d" x="53.554" y="407.413"/><use xlink:href="#c" x="57.712" y="407.413"/><use xlink:href="#d" x="59.592" y="407.413"/><use xlink:href="#e" x="63.75" y="407.413"/><use xlink:href="#f" x="67.909" y="407.413"/></g><g fill="#231f20"><use xlink:href="#g" x="69.844" y="407.413"/><use xlink:href="#f" x="71.755" y="407.413"/></g><use xlink:href="#h" x="73.69" y="407.413" fill="#231f20"/><use xlink:href="#d" x="80.888" y="407.413" fill="#231f20"/><use xlink:href="#i" x="85.006" y="407.413" fill="#231f20"/><use xlink:href="#j" x="89.124" y="407.413" fill="#231f20"/><use xlink:href="#k" x="96.322" y="407.413" fill="#231f20"/><use xlink:href="#l" x="98.401" y="407.413" fill="#231f20"/><use xlink:href="#m" x="105.598" y="407.413" fill="#231f20"/><use xlink:href="#j" x="112.796" y="407.413" fill="#231f20"/><g fill="#231f20"><use xlink:href="#b" x="308.757" y="407.413"/><use xlink:href="#b" x="312.916" y="407.413"/><use xlink:href="#c" x="317.074" y="407.413"/><use xlink:href="#d" x="318.953" y="407.413"/><use xlink:href="#d" x="323.112" y="407.413"/><use xlink:href="#c" x="327.27" y="407.413"/><use xlink:href="#d" x="329.15" y="407.413"/><use xlink:href="#e" x="333.308" y="407.413"/><use xlink:href="#f" x="337.466" y="407.413"/></g><g fill="#231f20"><use xlink:href="#g" x="339.402" y="407.413"/><use xlink:href="#f" x="341.313" y="407.413"/></g><use xlink:href="#h" x="343.248" y="407.413" fill="#231f20"/><use xlink:href="#d" x="350.445" y="407.413" fill="#231f20"/><use xlink:href="#i" x="354.564" y="407.413" fill="#231f20"/><use xlink:href="#j" x="358.682" y="407.413" fill="#231f20"/><use xlink:href="#k" x="365.88" y="407.413" fill="#231f20"/><use xlink:href="#l" x="367.959" y="407.413" fill="#231f20"/><use xlink:href="#m" x="375.156" y="407.413" fill="#231f20"/><use xlink:href="#j" x="382.353" y="407.413" fill="#231f20"/></svg>