<svg xmlns="http://www.w3.org/2000/svg" xmlns:xlink="http://www.w3.org/1999/xlink" width="793.033" height="1122.52" viewBox="0 0 594.7751 841.89" version="1.2"><defs><symbol overflow="visible" id="a"><path d="M7.25-4.61H4.406v-4.062H7.25zm-3.89 0H1.624v.86h8.406v-.86H8.297v-4.062h1.765v-.86H1.595v.86h1.765zM.671-1.421v.89h10.36v-.89zm0 0"/></symbol><symbol overflow="visible" id="b"><path d="M6.375-1.36v-2.187h3.64v-.86H3v-1.89h6.75v-3.547H1.937v.875h6.797v1.813H1.97v3.61h3.343v2.187H.657v.875h10.39v-.875zm0 0"/></symbol><symbol overflow="visible" id="c"><path d="M8.594-8.297c0 1.453 0 3.188-.453 5.563l1.046.125c.438-2.532.438-4.204.438-5.688v-1.156h-.484v-.016H1.797v.875h6.797zM.688-1.625v.89h10.328v-.89zm0 0"/></symbol><symbol overflow="visible" id="d"><path d="M6.14-5.453c-1.343.281-2.452.344-3.937.344v-1.657H5.47v-3.171H1.172v.859h3.281v1.515h-3.25v3.313h.75c1.64 0 2.828-.063 4.281-.344zM3.829-2.328h5.469v2.281H3.828zM2.813.812h7.5v-3.984h-7.5zm6.5-11.515v2.969H7.78v-2.75h-1v6.593h1v-2.968h1.532v3.125h1v-6.97zm0 0"/></symbol><symbol overflow="visible" id="f"><path d="M1.844-7.031c0-1.157.828-1.985 1.953-1.985 1.11 0 1.937.829 1.937 1.985 0 1.156-.828 1.984-1.937 1.984-1.125 0-1.953-.828-1.953-1.984zm7.187-.985v1.938H6.578c.094-.297.14-.61.14-.953 0-.36-.046-.672-.14-.985zm0 2.797v3.14h1.047v-8.608H9.031v1.828H6.125c-.531-.688-1.344-1.094-2.328-1.094-1.688 0-2.938 1.219-2.938 2.922S2.11-4.11 3.797-4.11c.984 0 1.812-.422 2.344-1.11zM3.828-.172v-2.797H2.781V.703h7.625v-.875zm0 0"/></symbol><symbol overflow="visible" id="g"><path d="M4.516-8.625h2.546V-9.5H.875v.875h2.61v1.484c0 1.985-1.376 4.188-3 5.016l.609.844c1.281-.672 2.39-2.157 2.922-3.86.515 1.563 1.593 2.938 2.859 3.579l.594-.86c-1.657-.797-2.953-2.86-2.953-4.719zM11.344-6H9.469v-4.688H8.422V.97h1.047v-6.063h1.875zm0 0"/></symbol><symbol overflow="visible" id="h"><path d="M10.531-5c-2-.375-4.172-2.078-4.172-4.016v-.906H5.266v.906c0 1.938-2.172 3.641-4.172 4.016l.437.875c1.75-.375 3.532-1.578 4.282-3.25.734 1.672 2.53 2.875 4.265 3.25zM6.328-1.437v-2.829H5.281v2.829H.671v.875h10.376v-.875zm0 0"/></symbol><symbol overflow="visible" id="i"><path d="M1.11-9.188v.876H4.53C4.375-5.906 3.297-3.798.671-2.298l.61.766c3.25-1.875 4.282-4.657 4.282-7.657zm8.25-1.515V-6H7.812v-4.39h-.985V.374h.984v-5.516H9.36V.97h1v-11.672zm0 0"/></symbol><symbol overflow="visible" id="j"><path d="M3.734-5.328H1.578L.797-2.641a1.88 1.88 0 0 1 .469-.234c.203-.078.375-.11.609-.11.25 0 .594.047.86.282.156.172.312.437.312.875 0 .453-.188.734-.344.906-.125.125-.375.297-.797.297a1.32 1.32 0 0 1-.687-.188 1.191 1.191 0 0 1-.39-.468l-.61.515c.25.375.547.563.625.61.328.203.687.25 1 .25.531 0 1.031-.14 1.453-.547.344-.36.531-.828.531-1.422 0-.688-.265-1.11-.515-1.36-.313-.328-.766-.484-1.204-.484-.078 0-.171.016-.25.016l.266-.875h1.61zm0 0"/></symbol><symbol overflow="visible" id="k"><path d="M.39-.219l.626.406 3.296-5.515H.422v.75H3zm0 0"/></symbol><symbol overflow="visible" id="l"><path d="M2.031 0h.688v-13.438H2.03zm0 0"/></symbol><symbol overflow="visible" id="m"><path d="M4.594 0h.703l4.437-13.438h-.703L6.453-5.405c-.531 1.672-.906 2.89-1.484 4.531h-.063c-.578-1.64-.953-2.86-1.468-4.531L.844-13.438H.125zm0 0"/></symbol><symbol overflow="visible" id="n"><path d="M.813-4.734h4.421v-.657H.813zm0 0"/></symbol><symbol overflow="visible" id="o"><path d="M4.563.234c2.046 0 4.093-1.625 4.093-4.515 0-2.985-1.75-4.297-3.953-4.297-1 0-1.75.265-2.422.703l.438-4.953h5.25v-.61h-5.86l-.484 6.032.563.343c.75-.515 1.453-.89 2.453-.89 2.015 0 3.312 1.422 3.312 3.719 0 2.312-1.578 3.859-3.344 3.859C2.734-.375 1.72-1.188.97-2l-.438.5C1.344-.687 2.5.234 4.563.234zm0 0"/></symbol><symbol overflow="visible" id="p"><path d="M2.125.234c.39 0 .766-.296.766-.796 0-.532-.375-.829-.766-.829-.375 0-.734.297-.734.829 0 .5.359.796.734.796zm0 0"/></symbol><symbol overflow="visible" id="r"><path d="M.844 0h7.875v-.61H4.156c-.718 0-1.453.032-2.187.094C5.844-4.109 8.047-6.953 8.047-9.89c0-2.28-1.313-3.78-3.594-3.78-1.562 0-2.703.843-3.64 1.905l.468.422c.813-1.015 1.922-1.719 3.125-1.719 2.047 0 2.938 1.422 2.938 3.172 0 2.532-1.719 5.375-6.5 9.47zm0 0"/></symbol><symbol overflow="visible" id="s"><path d="M4.828.234c2.344 0 3.797-2.25 3.797-6.984 0-4.688-1.453-6.922-3.797-6.922-2.39 0-3.812 2.235-3.812 6.922 0 4.734 1.421 6.984 3.812 6.984zm0-.609c-1.906 0-3.125-2.25-3.125-6.375 0-4.078 1.219-6.328 3.125-6.328 1.89 0 3.11 2.25 3.11 6.328 0 4.125-1.22 6.375-3.11 6.375zm0 0"/></symbol><symbol overflow="visible" id="t"><path d="M5.5-12.36h3.453v-.546h-7.64v.547h3.593v2.187c0 3.203-1.75 6.219-3.875 7.453l.438.485c1.734-1.094 3.218-3.282 3.734-5.891.531 2.39 1.953 4.469 3.64 5.5l.423-.484C7.156-4.313 5.5-7.234 5.5-10.172zm5.422 3.422H7.625v.563h3.297V.313h.61v-14.907h-.61zm3.25-6.156v16.36h.61v-16.36zm0 0"/></symbol><symbol overflow="visible" id="u"><path d="M2.094-13.266v.563h6.812C8.687-8.61 6.031-4.843 1.47-2.625l.343.516c5.094-2.516 7.704-6.72 7.704-11.157zm11.562-1.828V1.234h.61v-16.328zm0 0"/></symbol><symbol overflow="visible" id="w"><path d="M8.578-3.39H2.516v-5.016h6.062zm0-5.563H2.516v-4.656h-.61v10.78h7.266v-10.78h-.594zm7.813.625h-3v-6.766h-.61V1.234h.61v-8.968h3zm0 0"/></symbol><symbol overflow="visible" id="x"><path d="M13.64-15.094V1.234h.61v-16.328zm-7.812 1.39c-2.328 0-4 2.173-4 5.548 0 3.39 1.672 5.562 4 5.562 2.344 0 4-2.172 4-5.562 0-3.375-1.656-5.547-4-5.547zm0 .517c1.984 0 3.406 2.14 3.406 5.03 0 2.907-1.421 5.048-3.406 5.048-1.984 0-3.406-2.141-3.406-5.047 0-2.89 1.422-5.031 3.406-5.031zm0 0"/></symbol><symbol overflow="visible" id="y"><path d="M3.234-9.734c0-2.047 2.266-3.532 5.22-3.532 2.983 0 5.218 1.485 5.218 3.532 0 2.03-2.235 3.53-5.219 3.53-2.953 0-5.219-1.5-5.219-3.53zM8.766-1.61v-4.094c3.218-.094 5.437-1.64 5.437-4.031 0-2.454-2.36-4.047-5.75-4.047s-5.75 1.594-5.75 4.047c0 2.39 2.219 3.937 5.453 4.03v4.095H1.094v.562H15.89v-.562zm0 0"/></symbol><symbol overflow="visible" id="z"><path d="M14.688-15.078h-.61v9.25h.61zm-5.657 4.61v.546h2.297V-6h.61v-8.797h-.61v4.328zm.453-2.704H5.547v-1.984h-.61v1.984H1v.563h8.484zM2.438-8.969c0-1.281 1.109-2.187 2.796-2.187 1.672 0 2.782.906 2.782 2.187 0 1.25-1.11 2.172-2.782 2.172-1.687 0-2.796-.922-2.796-2.172zm6.14 0c0-1.672-1.344-2.719-3.344-2.719-2.015 0-3.359 1.047-3.359 2.72 0 1.64 1.344 2.702 3.36 2.702 2 0 3.343-1.062 3.343-2.703zM4.906.421v-2.218h9.782v-3.156H4.25v.531h9.844v2.078H4.313V.984h11.093V.422zm0 0"/></symbol><symbol overflow="visible" id="A"><path d="M14.922-6.406C12.969-6.844 8.75-9.25 8.75-12.453v-1.328h-.61v1.328c0 3.234-4.156 5.594-6.156 6.047l.313.515c1.922-.562 5.25-2.375 6.14-5.14.922 2.75 4.266 4.594 6.172 5.14zM1.094-1.734v.546h14.812v-.546zm0 0"/></symbol><symbol overflow="visible" id="B"><path d="M13.672-11.078v2.844h-5v.562h5v2.75h.61v-10.156h-.61v3.437H9.109c.22-.656.329-1.359.329-2.109h-7.25v.563h6.578C8.546-9.735 5.437-7.11 1.39-5.814l.312.516c3.36-1.11 6.11-3.14 7.203-5.781zM9.078.625c-2.812 0-4.687-.953-4.687-2.422 0-1.453 1.875-2.422 4.687-2.422 2.797 0 4.688.969 4.688 2.422 0 1.469-1.891 2.422-4.688 2.422zm0-5.375c-3.281 0-5.281 1.094-5.281 2.953 0 1.875 2 2.969 5.281 2.969 3.281 0 5.281-1.094 5.281-2.969 0-1.86-2-2.953-5.28-2.953zm0 0"/></symbol><symbol overflow="visible" id="C"><path d="M2-10.266c0-1.796 1.484-3.218 3.5-3.218 2 0 3.484 1.421 3.484 3.218S7.5-7.062 5.5-7.062C3.484-7.063 2-8.47 2-10.267zm11.672-1.687v3.344H9.219c.234-.5.36-1.047.36-1.657 0-.625-.142-1.187-.36-1.687zm0 3.906v2.719h.61v-9.766h-.61v2.594H8.844c-.703-.953-1.906-1.516-3.344-1.516-2.39 0-4.094 1.532-4.094 3.75 0 2.235 1.703 3.75 4.094 3.75 1.438 0 2.672-.593 3.375-1.53zM9.078.625c-2.812 0-4.687-1-4.687-2.5 0-1.469 1.875-2.469 4.687-2.469 2.797 0 4.688 1 4.688 2.469 0 1.5-1.891 2.5-4.688 2.5zm0-5.516c-3.281 0-5.281 1.141-5.281 3.016 0 1.906 2 3.047 5.281 3.047 3.281 0 5.281-1.14 5.281-3.047 0-1.875-2-3.016-5.28-3.016zm0 0"/></symbol><symbol overflow="visible" id="D"><path d="M10.86-13.063H6.327v-2.109h-.61v2.11h-4.53v.562h9.671zM2.78-8.436c0-1.376 1.281-2.344 3.235-2.344 1.921 0 3.218.969 3.218 2.344 0 1.359-1.296 2.328-3.218 2.328-1.954 0-3.235-.97-3.235-2.329zm7.031 0c0-1.782-1.5-2.891-3.796-2.891-2.313 0-3.813 1.11-3.813 2.89 0 1.766 1.5 2.876 3.813 2.876 2.296 0 3.796-1.11 3.796-2.875zM3.282-3.25h9.687v4.484h.61v-5.046H3.28zm12.968-7.031h-2.672v-4.797h-.61v10.156h.61v-4.797h2.672zm0 0"/></symbol><symbol overflow="visible" id="E"><path d="M13.11-11.188c0 2.141 0 4.157-.579 6.844l.61.11c.562-2.782.562-4.75.562-6.954v-2H2.72v.547h10.39zm-3.22 9.25v-5.64h-.609v5.64H5.86v-5.64H5.25v5.64H1.094v.547h14.75v-.546zm0 0"/></symbol></defs><g fill="#231f20"><use xlink:href="#a" x="60.706" y="127.475"/><use xlink:href="#b" x="72.295" y="127.475"/><use xlink:href="#c" x="83.884" y="127.475"/><use xlink:href="#d" x="95.473" y="127.475"/><use xlink:href="#e" x="107.062" y="127.475"/><use xlink:href="#f" x="110.501" y="127.475"/><use xlink:href="#g" x="122.09" y="127.475"/><use xlink:href="#e" x="133.679" y="127.475"/><use xlink:href="#h" x="137.117" y="127.475"/><use xlink:href="#i" x="148.706" y="127.475"/></g><g fill="#7b7979"><use xlink:href="#j" x="557.772" y="818.875"/><use xlink:href="#k" x="561.628" y="818.875"/></g><g fill="#231f20"><use xlink:href="#l" x="51.795" y="56.229"/><use xlink:href="#m" x="56.547" y="56.229"/></g><g fill="#231f20"><use xlink:href="#n" x="66.016" y="56.229"/><use xlink:href="#o" x="72.007" y="56.229"/><use xlink:href="#p" x="81.642" y="56.229"/><use xlink:href="#q" x="85.914" y="56.229"/><use xlink:href="#r" x="89.983" y="56.229"/><use xlink:href="#s" x="99.618" y="56.229"/><use xlink:href="#r" x="109.252" y="56.229"/><use xlink:href="#r" x="118.887" y="56.229"/><use xlink:href="#q" x="128.522" y="56.229"/><use xlink:href="#t" x="132.591" y="56.229"/><use xlink:href="#r" x="149.604" y="56.229"/><use xlink:href="#u" x="159.239" y="56.229"/><use xlink:href="#v" x="176.253" y="56.229"/><use xlink:href="#w" x="181.431" y="56.229"/><use xlink:href="#x" x="198.444" y="56.229"/><use xlink:href="#y" x="215.458" y="56.229"/><use xlink:href="#z" x="232.471" y="56.229"/><use xlink:href="#A" x="249.485" y="56.229"/><use xlink:href="#B" x="266.498" y="56.229"/><use xlink:href="#C" x="283.512" y="56.229"/><use xlink:href="#D" x="300.526" y="56.229"/><use xlink:href="#E" x="317.539" y="56.229"/></g></svg>