<svg xmlns="http://www.w3.org/2000/svg" xmlns:xlink="http://www.w3.org/1999/xlink" width="793.033" height="1122.52" viewBox="0 0 594.7751 841.89" version="1.2"><defs><symbol overflow="visible" id="a"><path d="M.39-.219l.626.406 3.296-5.515H.422v.75H3zm0 0"/></symbol><symbol overflow="visible" id="b"><path d="M1.719.188L3.172-1.72c.234-.312.437-.547.64-.953a2.04 2.04 0 0 0 .25-1.015c0-.594-.234-.97-.453-1.204-.218-.234-.64-.53-1.343-.53-.594 0-1.032.202-1.36.546a1.92 1.92 0 0 0-.515 1.328c0 .563.218.953.484 1.219.203.219.594.5 1.219.5.094 0 .187-.016.281-.031L1.141-.25zm.5-2.72a1.05 1.05 0 0 1-.735-.296 1.098 1.098 0 0 1-.312-.781c0-.329.14-.61.312-.797.172-.157.454-.297.75-.297.266 0 .547.11.735.297.203.203.312.484.312.765 0 .282-.11.579-.312.797a1.016 1.016 0 0 1-.75.313zm0 0"/></symbol><symbol overflow="visible" id="c"><path d="M.36 0h3.515v-.422H2.062c-.312 0-.64.031-.968.047 1.547-1.438 2.5-2.672 2.5-3.89 0-1-.61-1.673-1.625-1.673-.703 0-1.188.36-1.625.844l.281.282c.344-.422.797-.735 1.297-.735.828 0 1.203.578 1.203 1.297 0 1.063-.781 2.266-2.766 3.969zm0 0"/></symbol><symbol overflow="visible" id="d"><path d="M1 .11c.219 0 .406-.172.406-.438S1.22-.766 1-.766c-.219 0-.406.172-.406.438S.78.109 1 .109zm0 0"/></symbol><symbol overflow="visible" id="e"><path d="M.734 0H3.75v-.406H2.531v-5.422h-.375c-.281.156-.64.281-1.11.36v.312h1.016v4.75H.734zm0 0"/></symbol><symbol overflow="visible" id="f"><path d="M.688-2.063l1.578-2.312a8.18 8.18 0 0 0 .468-.797h.047c-.031.266-.047.703-.047.969v2.14zm3.328 0h-.829v-3.765h-.453L.156-1.953v.297h2.578V0h.454v-1.656h.828zm0 0"/></symbol><symbol overflow="visible" id="h"><path d="M.844 2.219h.344v-8.86H.844zm0 0"/></symbol><symbol overflow="visible" id="i"><path d="M2.438-5.281h1.406v-.36H.547v.36H2.03v.812c0 1.36-.687 2.657-1.64 3.235l.28.312c.735-.453 1.313-1.36 1.563-2.422.25.985.797 1.813 1.516 2.25l.281-.312c-.937-.532-1.593-1.797-1.593-3.063zm2.171 1.36H3.281v.358H4.61V.172h.407V-6.36h-.407zm1.422-2.626v7.11h.422v-7.11zm0 0"/></symbol><symbol overflow="visible" id="j"><path d="M2.031.11c.922 0 1.813-.72 1.813-1.985 0-1.297-.766-1.875-1.719-1.875-.406 0-.703.125-.984.281l.171-1.953h2.25v-.406H.892L.703-3.172 1-2.984c.328-.22.61-.375 1.031-.375.813 0 1.344.578 1.344 1.5 0 .953-.625 1.562-1.36 1.562-.765 0-1.203-.328-1.53-.687l-.266.328c.375.375.906.765 1.812.765zm0 0"/></symbol><symbol overflow="visible" id="k"><path d="M4.984-5.625H3.047v-.938h-.438v.938H.656v.36h4.328zm-3.421 2.14c0-.562.515-.953 1.265-.953.75 0 1.266.391 1.266.954 0 .562-.516.968-1.266.968s-1.265-.406-1.265-.968zm1.484 1.297C3.922-2.265 4.5-2.75 4.5-3.484c0-.797-.672-1.297-1.672-1.297-1 0-1.672.5-1.672 1.297 0 .75.578 1.234 1.453 1.296v.876c-.75.03-1.468.046-2.109.046l.063.36c1.343 0 3.093-.016 4.703-.281L5.234-1.5c-.703.094-1.453.14-2.187.172zm2.687-4.359V.547h.422v-7.094zm0 0"/></symbol><symbol overflow="visible" id="m"><path d="M5.797-6.547v7.11h.422v-7.11zm-3.281.578C1.484-5.969.75-5.016.75-3.53c0 1.484.734 2.437 1.766 2.437 1.03 0 1.765-.953 1.765-2.437 0-1.485-.734-2.438-1.765-2.438zm0 .375c.796 0 1.359.844 1.359 2.063 0 1.219-.563 2.078-1.36 2.078-.796 0-1.359-.86-1.359-2.078 0-1.219.563-2.063 1.36-2.063zm0 0"/></symbol><symbol overflow="visible" id="n"><path d="M2.688-5.89H2.28v1.421c0 1.282-.969 2.64-1.89 3.125l.25.36C1.42-1.438 2.187-2.406 2.5-3.5c.313 1.047 1.063 1.938 1.844 2.36l.25-.329c-.922-.484-1.907-1.765-1.907-3zm4.421 2.312H5.86v-2.969h-.421v7.11h.421V-3.22h1.25zm0 0"/></symbol><symbol overflow="visible" id="o"><path d="M2.453-5.281h1.438v-.36H.547v.36h1.5v.765c0 1.485-.64 2.672-1.64 3.22l.28.327c.782-.453 1.344-1.265 1.579-2.344.25.954.78 1.688 1.515 2.094l.266-.328c-.969-.5-1.594-1.64-1.594-2.969zm3.594-1.266v2.953H4.89v-2.781h-.407V.172h.407v-3.39h1.156v3.78h.406v-7.109zm0 0"/></symbol><symbol overflow="visible" id="p"><path d="M4.625-3.328c-1.016.203-1.86.25-3.281.25h-.11v-2.469h2.704v-.36H.812v3.188h.532c1.437 0 2.297-.047 3.343-.25zm-2.61 1.437h-.421V.391H6.28V.03H2.016zm3.907-2.453v-2.218H5.5v5.156h.422V-3.97h1.125v-.375zm0 0"/></symbol><symbol overflow="visible" id="q"><path d="M5.813.094H2.219V-.953h3.594zm0-1.39H2.219v-1h-.422v2.75h4.437v-2.75h-.421zM3.53-3.329H1.266v-1.297H3.53zm2.281-3.219v1.813H3.954v-1.454h-.422v1.22H1.266v-1.22H.844v3.22h3.11v-1.407h1.858v1.719h.422v-3.89zm0 0"/></symbol><symbol overflow="visible" id="r"><path d="M6.234-6.531h-.421v5.234h.421zM1.063-4.313c0-.765.593-1.328 1.39-1.328.797 0 1.39.563 1.39 1.329 0 .765-.593 1.359-1.39 1.359-.797 0-1.39-.594-1.39-1.36zm3.187 0c0-1-.75-1.718-1.797-1.718-1.031 0-1.797.718-1.797 1.718 0 1.016.766 1.735 1.797 1.735 1.047 0 1.797-.719 1.797-1.735zM2.187.032v-1.875h-.421V.391h4.703V.03zm0 0"/></symbol><symbol overflow="visible" id="s"><path d="M.89-5.813v4.532h3.188v-4.532zm2.766.344v3.828h-2.36v-3.828zm2.14-1.078v7.11h.423v-7.11zm0 0"/></symbol><symbol overflow="visible" id="t"><path d="M1.125-1.578v-1.813h2.219v-2.343H.704v.359h2.218v1.625H.719v2.531h.437c.907 0 1.719-.031 2.75-.218l-.047-.36c-1 .188-1.812.219-2.703.219zm4.906-4.969v2.89H4.813v-2.718h-.407V.172h.407v-3.469H6.03v3.86h.422v-7.11zm0 0"/></symbol><symbol overflow="visible" id="u"><path d="M2.766-6C1.656-6 .89-5.344.89-4.375S1.656-2.75 2.766-2.75c1.109 0 1.875-.656 1.875-1.625S3.875-6 2.766-6zm0 .375c.843 0 1.468.516 1.468 1.25s-.625 1.25-1.468 1.25c-.844 0-1.47-.516-1.47-1.25s.626-1.25 1.47-1.25zm2.968-.922v7.11h.422v-7.11zM.563-1.078c1.296 0 3.062 0 4.703-.297l-.047-.328c-1.578.25-3.39.266-4.719.266zm0 0"/></symbol><symbol overflow="visible" id="v"><path d="M4.688-5.719H2.796v-.875h-.422v.875H.485v.344h4.202zM1.296-3.64c0-.546.531-.921 1.281-.921.766 0 1.281.375 1.281.921 0 .547-.515.922-1.28.922-.75 0-1.282-.375-1.282-.922zm2.953 0c0-.78-.656-1.265-1.672-1.265-1 0-1.672.484-1.672 1.265 0 .782.672 1.266 1.672 1.266 1.016 0 1.672-.484 1.672-1.266zM1.39-1.312H5.5V.546h.422v-2.219H1.39zm5.657-3.204H5.922v-2.03H5.5v4.437h.422v-2.032h1.125zm0 0"/></symbol><symbol overflow="visible" id="w"><path d="M.984-4.344c0-.765.594-1.36 1.391-1.36s1.39.595 1.39 1.36c0 .797-.593 1.39-1.39 1.39-.797 0-1.39-.593-1.39-1.39zm4.829-.672v1.344h-1.75c.078-.203.109-.422.109-.672 0-.234-.047-.468-.11-.672zm0 1.704v2.046h.421v-5.28h-.421v1.171H3.859c-.328-.422-.843-.703-1.484-.703-1.031 0-1.797.719-1.797 1.734 0 1.047.766 1.75 1.797 1.75.64 0 1.172-.265 1.5-.719zM2.219.03v-1.843h-.422V.39h4.656V.03zm0 0"/></symbol><symbol overflow="visible" id="x"><path d="M6.875-2.984h-1.11c.204-1.047.204-1.797.204-2.47v-.609H1.297v.36h4.25v.25c0 .672 0 1.422-.234 2.469H.452v.359h3V.563h.422v-3.188h3zm0 0"/></symbol><symbol overflow="visible" id="y"><path d="M2.36-.281c-.891 0-1.344-.828-1.422-2.11.453-.593.953-.828 1.328-.828.843 0 1.187.61 1.187 1.453 0 .86-.469 1.485-1.094 1.485zm1.453-5.094c-.313-.344-.704-.563-1.25-.563-1.094 0-2.094.829-2.094 3.188 0 1.86.75 2.86 1.875 2.86.844 0 1.578-.766 1.578-1.876 0-1.187-.594-1.828-1.578-1.828-.516 0-1.031.297-1.422.766.031-2.016.781-2.703 1.656-2.703.36 0 .703.156.953.453zm0 0"/></symbol><symbol overflow="visible" id="z"><path d="M6.906-3.234v-.36H5.828c.188-.906.188-1.578.188-2.11v-.484H1.28v.36H5.61v.125c0 .531 0 1.187-.218 2.11H.453v.359h3v1.468H1.141v.36h4.515V.562h.438v-2.328H3.875v-1.468zm0 0"/></symbol><symbol overflow="visible" id="A"><path d="M2.656-5.453h1.985v2.516H2.656zM3.86-.734v-1.844H6.25v-.36H5.062v-2.515H6.25v-.36H1.062v.36H2.25v2.516H1.062v.359h2.375v1.844H.454v.359h6.453v-.36zm0 0"/></symbol><symbol overflow="visible" id="B"><path d="M4.5-3.297c-1.14.188-2.063.219-3.219.219h-.093v-1.235h2.671v-1.859H.75v.36h2.703v1.156H.766v1.937h.515c1.172 0 2.078-.031 3.25-.219zM2.094-1.578h3.734V.094H2.094zM1.672.453h4.562v-2.39H1.672zm4.14-6.984v1.656H4.36v.36h1.454v2.14h.421v-4.156zm0 0"/></symbol></defs><g fill="#7b7979"><use xlink:href="#a" x="557.772" y="818.875"/><use xlink:href="#b" x="561.714" y="818.875"/></g><g fill="#231f20"><use xlink:href="#c" x="39.199" y="61.887"/><use xlink:href="#c" x="43.358" y="61.887"/><use xlink:href="#d" x="47.516" y="61.887"/><use xlink:href="#e" x="49.396" y="61.887"/><use xlink:href="#e" x="53.554" y="61.887"/><use xlink:href="#d" x="57.712" y="61.887"/><use xlink:href="#e" x="59.592" y="61.887"/><use xlink:href="#f" x="63.75" y="61.887"/><use xlink:href="#g" x="67.909" y="61.887"/></g><g fill="#231f20"><use xlink:href="#h" x="69.844" y="61.887"/><use xlink:href="#g" x="71.755" y="61.887"/></g><use xlink:href="#i" x="73.69" y="61.887" fill="#231f20"/><use xlink:href="#e" x="80.888" y="61.887" fill="#231f20"/><use xlink:href="#j" x="85.006" y="61.887" fill="#231f20"/><use xlink:href="#k" x="89.124" y="61.887" fill="#231f20"/><use xlink:href="#l" x="96.322" y="61.887" fill="#231f20"/><use xlink:href="#m" x="98.401" y="61.887" fill="#231f20"/><use xlink:href="#n" x="105.598" y="61.887" fill="#231f20"/><use xlink:href="#k" x="112.796" y="61.887" fill="#231f20"/><use xlink:href="#c" x="39.199" y="439.29" fill="#231f20"/><use xlink:href="#c" x="43.358" y="439.29" fill="#231f20"/><use xlink:href="#d" x="47.516" y="439.29" fill="#231f20"/><use xlink:href="#e" x="49.396" y="439.29" fill="#231f20"/><use xlink:href="#e" x="53.554" y="439.29" fill="#231f20"/><use xlink:href="#d" x="57.712" y="439.29" fill="#231f20"/><use xlink:href="#c" x="59.592" y="439.29" fill="#231f20"/><use xlink:href="#j" x="63.75" y="439.29" fill="#231f20"/><use xlink:href="#g" x="67.909" y="439.29" fill="#231f20"/><use xlink:href="#h" x="69.844" y="439.29" fill="#231f20"/><use xlink:href="#g" x="71.755" y="439.29" fill="#231f20"/><g fill="#231f20"><use xlink:href="#o" x="73.69" y="439.29"/><use xlink:href="#p" x="80.888" y="439.29"/><use xlink:href="#q" x="88.085" y="439.29"/><use xlink:href="#r" x="95.282" y="439.29"/><use xlink:href="#l" x="102.479" y="439.29"/><use xlink:href="#s" x="104.559" y="439.29"/><use xlink:href="#t" x="111.756" y="439.29"/><use xlink:href="#u" x="118.953" y="439.29"/><use xlink:href="#v" x="126.15" y="439.29"/><use xlink:href="#w" x="133.348" y="439.29"/><use xlink:href="#x" x="140.545" y="439.29"/><use xlink:href="#o" x="147.742" y="439.29"/><use xlink:href="#p" x="154.94" y="439.29"/><use xlink:href="#l" x="162.137" y="439.29"/><use xlink:href="#i" x="164.216" y="439.29"/><use xlink:href="#y" x="171.413" y="439.29"/><use xlink:href="#k" x="175.532" y="439.29"/><use xlink:href="#l" x="182.729" y="439.29"/><use xlink:href="#z" x="184.808" y="439.29"/><use xlink:href="#i" x="192.006" y="439.29"/><use xlink:href="#A" x="199.203" y="439.29"/><use xlink:href="#B" x="206.4" y="439.29"/></g></svg>