<svg xmlns="http://www.w3.org/2000/svg" xmlns:xlink="http://www.w3.org/1999/xlink" width="794.366" height="1122.52" viewBox="0 0 595.7748 841.89" version="1.2"><defs><symbol overflow="visible" id="a"><path d="M.39-.219l.626.406 3.296-5.515H.422v.75H3zm0 0"/></symbol><symbol overflow="visible" id="b"><path d="M3.516-5.734L.156-1.016H2.75V0h.766v-1.016h.562v-.75h-.562zM1.546-1.75L2.75-3.469v1.719zm0 0"/></symbol><symbol overflow="visible" id="c"><path d="M.36 0h3.515v-.422H2.062c-.312 0-.64.031-.968.047 1.547-1.438 2.5-2.672 2.5-3.89 0-1-.61-1.673-1.625-1.673-.703 0-1.188.36-1.625.844l.281.282c.344-.422.797-.735 1.297-.735.828 0 1.203.578 1.203 1.297 0 1.063-.781 2.266-2.766 3.969zm0 0"/></symbol><symbol overflow="visible" id="d"><path d="M1 .11c.219 0 .406-.172.406-.438S1.22-.766 1-.766c-.219 0-.406.172-.406.438S.78.109 1 .109zm0 0"/></symbol><symbol overflow="visible" id="e"><path d="M2.14.11c1.063 0 1.72-1 1.72-3.047 0-2.016-.657-3-1.72-3-1.062 0-1.718.984-1.718 3C.422-.892 1.078.108 2.14.108zm0-.391c-.75 0-1.25-.89-1.25-2.656 0-1.735.5-2.61 1.25-2.61s1.25.875 1.25 2.61c0 1.765-.5 2.656-1.25 2.656zm0 0"/></symbol><symbol overflow="visible" id="f"><path d="M2.172.11c1.031 0 1.734-.657 1.734-1.485 0-.797-.484-1.219-.984-1.516v-.046c.328-.266.797-.813.797-1.454 0-.875-.578-1.515-1.547-1.515-.844 0-1.5.593-1.5 1.437 0 .61.39 1.047.797 1.328v.032c-.532.296-1.11.859-1.11 1.656 0 .89.766 1.562 1.813 1.562zm.406-3.172c-.734-.297-1.453-.626-1.453-1.407 0-.625.438-1.062 1.047-1.062.703 0 1.11.531 1.11 1.156 0 .484-.235.922-.704 1.313zM2.172-.267c-.797 0-1.375-.53-1.375-1.203 0-.64.406-1.14.953-1.468.875.343 1.703.671 1.703 1.546 0 .625-.515 1.125-1.281 1.125zm0 0"/></symbol><symbol overflow="visible" id="g"><path d="M.734 0H3.75v-.406H2.531v-5.422h-.375c-.281.156-.64.281-1.11.36v.312h1.016v4.75H.734zm0 0"/></symbol><symbol overflow="visible" id="i"><path d="M.844 2.219h.344v-8.86H.844zm0 0"/></symbol><symbol overflow="visible" id="j"><path d="M2.094 0h.484v-5.422h1.844v-.406H.25v.406h1.844zm0 0"/></symbol><symbol overflow="visible" id="k"><path d="M.797 0h.469v-3.188c.5-.515.843-.765 1.343-.765.657 0 .938.406.938 1.297V0h.469v-2.734c0-1.094-.422-1.641-1.297-1.641-.594 0-1.031.328-1.469.766l.016-.922V-6.36h-.47zm0 0"/></symbol><symbol overflow="visible" id="l"><path d="M2.438.11c.609 0 1.015-.204 1.359-.422l-.188-.344c-.312.219-.671.375-1.125.375-.921 0-1.546-.735-1.562-1.781h3.015a1.95 1.95 0 0 0 .032-.329c0-1.25-.61-1.984-1.656-1.984-.954 0-1.86.86-1.86 2.25 0 1.39.89 2.234 1.984 2.234zM.921-2.423c.094-.984.703-1.547 1.406-1.547.75 0 1.219.516 1.219 1.547zm0 0"/></symbol><symbol overflow="visible" id="m"><path d="M2.063.11c1 0 1.765-.641 1.765-1.657 0-.828-.578-1.344-1.281-1.5v-.047c.625-.203 1.062-.687 1.062-1.437 0-.907-.671-1.407-1.562-1.407-.672 0-1.172.313-1.563.688l.266.313c.328-.344.781-.61 1.281-.61.672 0 1.11.422 1.11 1.047 0 .703-.454 1.25-1.735 1.25v.39c1.39 0 1.938.532 1.938 1.313 0 .75-.547 1.25-1.297 1.25-.75 0-1.203-.344-1.531-.719L.25-.703c.36.406.906.812 1.813.812zm0 0"/></symbol><symbol overflow="visible" id="n"><path d="M.797 0h.469v-2.86c.312-.796.765-1.078 1.14-1.078.172 0 .25.016.39.079l.095-.422c-.125-.078-.266-.094-.422-.094-.5 0-.922.36-1.219.906h-.016l-.046-.797H.796zm0 0"/></symbol><symbol overflow="visible" id="o"><path d="M2.219.11c.547 0 1.015-.297 1.36-.641h.015L3.656 0h.39v-6.36h-.468v1.735l.031.766c-.421-.329-.765-.516-1.265-.516-1.016 0-1.89.875-1.89 2.25C.453-.703 1.14.109 2.218.109zm.078-.407c-.86 0-1.36-.734-1.36-1.828 0-1.047.625-1.844 1.454-1.844.39 0 .75.14 1.187.531v2.47c-.422.437-.828.671-1.281.671zm0 0"/></symbol><symbol overflow="visible" id="p"><path d="M.844 0h1.734C3.891 0 4.75-.578 4.75-1.703c0-.797-.5-1.266-1.25-1.406v-.032c.594-.171.906-.671.906-1.28 0-.985-.781-1.407-1.953-1.407H.843zm.484-3.281v-2.156H2.36c1.032 0 1.563.28 1.563 1.078 0 .656-.469 1.078-1.625 1.078zm0 2.875v-2.5h1.14c1.157 0 1.813.39 1.813 1.203 0 .906-.687 1.297-1.812 1.297zm0 0"/></symbol><symbol overflow="visible" id="q"><path d="M2.938.11c.765 0 1.296-.313 1.75-.844l-.266-.297c-.422.453-.86.703-1.453.703C1.75-.328.984-1.344.984-2.938c0-1.578.782-2.562 2-2.562.547 0 .954.234 1.266.578l.281-.312a2.046 2.046 0 0 0-1.547-.704c-1.468 0-2.5 1.157-2.5 3.016C.484-1.062 1.5.11 2.938.11zm0 0"/></symbol><symbol overflow="visible" id="r"><path d="M.797 0h.469v-4.266h-.47zm.25-5.266c.203 0 .39-.156.39-.359 0-.25-.187-.39-.39-.39-.219 0-.406.14-.406.39 0 .203.187.36.406.36zm0 0"/></symbol><symbol overflow="visible" id="s"><path d="M.797 0h.469v-3.188c.5-.515.843-.765 1.343-.765.657 0 .938.406.938 1.297V0h.469v-2.734c0-1.094-.422-1.641-1.297-1.641-.594 0-1.031.328-1.469.766h-.016l-.046-.657H.796zm0 0"/></symbol></defs><g fill="#7b7979"><use xlink:href="#a" x="27.429" y="818.875"/><use xlink:href="#b" x="30.556" y="818.875"/></g><use xlink:href="#c" x="28.137" y="61.887" fill="#231f20"/><use xlink:href="#c" x="32.296" y="61.887" fill="#231f20"/><use xlink:href="#d" x="36.454" y="61.887" fill="#231f20"/><use xlink:href="#e" x="38.334" y="61.887" fill="#231f20"/><use xlink:href="#f" x="42.492" y="61.887" fill="#231f20"/><use xlink:href="#d" x="46.65" y="61.887" fill="#231f20"/><use xlink:href="#g" x="48.53" y="61.887" fill="#231f20"/><use xlink:href="#c" x="52.688" y="61.887" fill="#231f20"/><use xlink:href="#h" x="56.847" y="61.887" fill="#231f20"/><use xlink:href="#i" x="58.782" y="61.887" fill="#231f20"/><use xlink:href="#h" x="60.693" y="61.887" fill="#231f20"/><g fill="#231f20"><use xlink:href="#j" x="62.628" y="61.887"/><use xlink:href="#k" x="67.139" y="61.887"/><use xlink:href="#l" x="71.689" y="61.887"/><use xlink:href="#h" x="75.831" y="61.887"/><use xlink:href="#m" x="77.447" y="61.887"/><use xlink:href="#n" x="81.565" y="61.887"/></g><g fill="#231f20"><use xlink:href="#o" x="84.188" y="61.887"/><use xlink:href="#h" x="88.866" y="61.887"/><use xlink:href="#p" x="90.482" y="61.887"/><use xlink:href="#q" x="95.456" y="61.887"/></g><g fill="#231f20"><use xlink:href="#q" x="100.094" y="61.887"/><use xlink:href="#h" x="104.948" y="61.887"/><use xlink:href="#r" x="106.564" y="61.887"/><use xlink:href="#s" x="108.459" y="61.887"/><use xlink:href="#h" x="113.041" y="61.887"/><use xlink:href="#c" x="114.657" y="61.887"/><use xlink:href="#e" x="118.775" y="61.887"/><use xlink:href="#c" x="122.894" y="61.887"/><use xlink:href="#c" x="127.012" y="61.887"/></g><use xlink:href="#c" x="28.137" y="436.457" fill="#231f20"/><use xlink:href="#c" x="32.296" y="436.457" fill="#231f20"/><use xlink:href="#d" x="36.454" y="436.457" fill="#231f20"/><use xlink:href="#e" x="38.334" y="436.457" fill="#231f20"/><use xlink:href="#f" x="42.492" y="436.457" fill="#231f20"/><use xlink:href="#d" x="46.65" y="436.457" fill="#231f20"/><use xlink:href="#g" x="48.53" y="436.457" fill="#231f20"/><use xlink:href="#c" x="52.688" y="436.457" fill="#231f20"/><use xlink:href="#h" x="56.847" y="436.457" fill="#231f20"/><use xlink:href="#i" x="58.782" y="436.457" fill="#231f20"/><use xlink:href="#h" x="60.693" y="436.457" fill="#231f20"/><g fill="#231f20"><use xlink:href="#j" x="62.628" y="436.457"/><use xlink:href="#k" x="67.139" y="436.457"/><use xlink:href="#l" x="71.689" y="436.457"/><use xlink:href="#h" x="75.831" y="436.457"/><use xlink:href="#m" x="77.447" y="436.457"/><use xlink:href="#n" x="81.565" y="436.457"/></g><g fill="#231f20"><use xlink:href="#o" x="84.188" y="436.457"/><use xlink:href="#h" x="88.866" y="436.457"/><use xlink:href="#p" x="90.482" y="436.457"/><use xlink:href="#q" x="95.456" y="436.457"/></g><g fill="#231f20"><use xlink:href="#q" x="100.094" y="436.457"/><use xlink:href="#h" x="104.948" y="436.457"/><use xlink:href="#r" x="106.564" y="436.457"/><use xlink:href="#s" x="108.459" y="436.457"/><use xlink:href="#h" x="113.041" y="436.457"/><use xlink:href="#c" x="114.657" y="436.457"/><use xlink:href="#e" x="118.775" y="436.457"/><use xlink:href="#c" x="122.894" y="436.457"/><use xlink:href="#c" x="127.012" y="436.457"/></g></svg>