<svg xmlns="http://www.w3.org/2000/svg" xmlns:xlink="http://www.w3.org/1999/xlink" width="794.366" height="1122.52" viewBox="0 0 595.7748 841.89" version="1.2"><defs><symbol overflow="visible" id="a"><path d="M4.578-6.984c1.203 0 1.969.359 1.969 1 0 .671-.766 1.015-1.969 1.015s-1.984-.343-1.984-1.015c0-.641.781-1 1.984-1zm0 3.062c1.969 0 3.328-.797 3.328-2.062 0-1.25-1.36-2.063-3.328-2.063-1.969 0-3.328.813-3.328 2.063 0 1.265 1.36 2.062 3.328 2.062zm4.188.688H.437v1.078h1.875v3h1.344v-3H5.5v3h1.344v-3h1.922zm0 0"/></symbol><symbol overflow="visible" id="b"><path d="M4.563-.125c-1.22 0-1.86-.219-1.86-.688 0-.468.64-.671 1.86-.671 1.234 0 1.875.203 1.875.671 0 .47-.641.688-1.875.688zm0-2.36c-1.985 0-3.188.61-3.188 1.672C1.375.266 2.578.875 4.563.875c2 0 3.203-.61 3.203-1.688 0-1.062-1.204-1.671-3.204-1.671zM3.625-4.75c.297.047.61.063.969.063.343 0 .656-.016.953-.047v.75H3.625zm.969-2.453c1.25 0 1.968.25 1.968.766 0 .5-.718.75-1.968.75s-1.969-.25-1.969-.75c0-.516.719-.766 1.969-.766zm2.265 3.219v-1.094c.688-.297 1.079-.766 1.079-1.36 0-1.109-1.313-1.765-3.344-1.765-2.032 0-3.328.656-3.328 1.765 0 .594.375 1.047 1.03 1.344v1.11H.439v1.046H8.75v-1.046zm0 0"/></symbol><symbol overflow="visible" id="c"><path d="M5.781-7.594H3.828v-.797H2.516v.797H.546v.938h5.235zm-3.61 2.61c0-.36.376-.563 1-.563.626 0 .985.203.985.563 0 .343-.36.53-.984.53-.625 0-1-.187-1-.53zM6.017-3.36c-.704.093-1.438.156-2.188.203v-.469c.969-.14 1.578-.64 1.578-1.36 0-.89-.89-1.437-2.234-1.437-1.36 0-2.25.547-2.25 1.438 0 .718.61 1.218 1.594 1.359v.531c-.797.031-1.547.031-2.204.031l.141 1.016c1.578-.015 3.75-.047 5.656-.406zM2.922-1.61H1.594V.703h6.453V-.344H2.922zm4.812-3.735v-3.015H6.406v7.203h1.328v-3.11h1.157v-1.078zm0 0"/></symbol><symbol overflow="visible" id="m"><path d="M1.266-3.063c1.062-.296 1.796-.921 2.203-1.718.406.765 1.125 1.343 2.187 1.625l.578-1C4.891-4.516 4.22-5.344 4.125-6.22h1.86v-1.047h-1.86v-1H2.797v1H.937v1.047h1.844c-.094.922-.734 1.782-2.11 2.14zm2.859-.28H2.797v1.405c-.844.032-1.64.032-2.328.032L.64-.844c1.578 0 3.75-.015 5.734-.422l-.078-.953c-.703.11-1.438.172-2.172.219zM6.797-8.36V.875h1.312v-9.234zm0 0"/></symbol><symbol overflow="visible" id="n"><path d="M8.39-7.203H5.235v-1.063H3.922v1.063H.797v1.047H8.39zm-5.578 3.25c0-.531.626-.781 1.75-.781 1.172 0 1.782.25 1.782.78 0 .517-.61.767-1.782.767-1.125 0-1.75-.25-1.75-.766zm2.422 2.828v-1.063c1.532-.156 2.47-.78 2.47-1.765 0-1.14-1.204-1.813-3.141-1.813-1.907 0-3.11.672-3.11 1.813 0 .984.938 1.625 2.469 1.765v1.063H.437v1.063h8.344v-1.063zm0 0"/></symbol><symbol overflow="visible" id="o"><path d="M6.813-1.547h1.312v-6.797H6.812v1.953H5.125v1.079h1.688zm-.875-2.36c-1.454-.5-2.063-1.687-2.063-2.89v-1H2.531v1c0 1.313-.64 2.594-2.156 3.094l.688 1.031a3.643 3.643 0 0 0 2.171-2.094c.375.86 1.032 1.532 2 1.875zM3.374-.343v-1.89H2.047V.703h6.281V-.344zm0 0"/></symbol><symbol overflow="visible" id="d"><path d="M1.266-1.344c.468 0 .906-.39.906-1 0-.594-.438-.984-.906-.984-.47 0-.907.39-.907.984 0 .61.438 1 .907 1zm0 0"/></symbol><symbol overflow="visible" id="f"><path d="M5.797-6.547v7.11h.422v-7.11zm-3.281.578C1.484-5.969.75-5.016.75-3.53c0 1.484.734 2.437 1.766 2.437 1.03 0 1.765-.953 1.765-2.437 0-1.485-.734-2.438-1.765-2.438zm0 .375c.796 0 1.359.844 1.359 2.063 0 1.219-.563 2.078-1.36 2.078-.796 0-1.359-.86-1.359-2.078 0-1.219.563-2.063 1.36-2.063zm0 0"/></symbol><symbol overflow="visible" id="g"><path d="M.984-4.344c0-.765.594-1.36 1.391-1.36s1.39.595 1.39 1.36c0 .797-.593 1.39-1.39 1.39-.797 0-1.39-.593-1.39-1.39zm4.829-.672v1.344h-1.75c.078-.203.109-.422.109-.672 0-.234-.047-.468-.11-.672zm0 1.704v2.046h.421v-5.28h-.421v1.171H3.859c-.328-.422-.843-.703-1.484-.703-1.031 0-1.797.719-1.797 1.734 0 1.047.766 1.75 1.797 1.75.64 0 1.172-.265 1.5-.719zM2.219.03v-1.843h-.422V.39h4.656V.03zm0 0"/></symbol><symbol overflow="visible" id="h"><path d="M2.438-5.281h1.406v-.36H.547v.36H2.03v.812c0 1.36-.687 2.657-1.64 3.235l.28.312c.735-.453 1.313-1.36 1.563-2.422.25.985.797 1.813 1.516 2.25l.281-.312c-.937-.532-1.593-1.797-1.593-3.063zm2.171 1.36H3.281v.358H4.61V.172h.407V-6.36h-.407zm1.422-2.626v7.11h.422v-7.11zm0 0"/></symbol><symbol overflow="visible" id="i"><path d="M1.047-4.453c0-.75.594-1.297 1.39-1.297.813 0 1.391.547 1.391 1.297 0 .734-.578 1.281-1.39 1.281-.797 0-1.391-.547-1.391-1.281zm3.203 0c0-1-.75-1.656-1.813-1.656-1.046 0-1.796.656-1.796 1.656 0 .984.75 1.64 1.796 1.64 1.063 0 1.813-.656 1.813-1.64zM1.39-1.578H5.5v2.14h.422v-2.5H1.39zm5.641-3.438v-.359h-1.11v-1.172H5.5v4.234h.422V-3.5h1.11v-.36h-1.11v-1.156zm0 0"/></symbol><symbol overflow="visible" id="j"><path d="M1.156-1.656v-3.64h2.235v-.36H.75v4.375h.438c1.171 0 1.859-.047 2.687-.235l-.047-.359c-.797.188-1.484.219-2.656.219zm4.875-4.89v2.921H4.813v-2.75h-.407V.172h.407v-3.438H6.03V.547h.422v-7.094zm0 0"/></symbol><symbol overflow="visible" id="k"><path d="M2.797-2.61H4.53v1.891H2.797zm-.14-2.859H4.64v2.5H2.656zm2.296 4.75v-1.89H6.25v-.36H5.062v-2.5H6.25v-.36H1.062v.36H2.25v2.5H1.062v.36h1.313v1.89H.453v.36h6.453v-.36zm0 0"/></symbol><symbol overflow="visible" id="l"><path d="M2.688-5.89H2.28v1.421c0 1.282-.969 2.64-1.89 3.125l.25.36C1.42-1.438 2.187-2.406 2.5-3.5c.313 1.047 1.063 1.938 1.844 2.36l.25-.329c-.922-.484-1.907-1.765-1.907-3zm4.421 2.312H5.86v-2.969h-.421v7.11h.421V-3.22h1.25zm0 0"/></symbol><symbol overflow="visible" id="p"><path d="M4.688-5.594H2.796v-.937h-.422v.937H.485v.344h4.202zM1.296-3.469c0-.578.531-.969 1.281-.969.766 0 1.281.391 1.281.97 0 .546-.515.952-1.28.952-.75 0-1.282-.406-1.282-.953zm2.953 0c0-.797-.656-1.312-1.672-1.312-1 0-1.672.515-1.672 1.312 0 .781.672 1.297 1.672 1.297 1.016 0 1.672-.515 1.672-1.297zM2.016-1.64h-.422V.391H6.28V.03H2.016zm3.906-2.468v-2.422H5.5v5.328h.422V-3.75h1.125v-.36zm0 0"/></symbol><symbol overflow="visible" id="q"><path d="M6.906-3.234v-.36H5.828c.188-.906.188-1.578.188-2.11v-.484H1.28v.36H5.61v.125c0 .531 0 1.187-.218 2.11H.453v.359h3v1.468H1.141v.36h4.515V.562h.438v-2.328H3.875v-1.468zm0 0"/></symbol><symbol overflow="visible" id="r"><path d="M5.813-2.14h.421v-4.407h-.421v1.344H4.438v.36h1.375v.874H4.438v.36h1.375zM1.89-5.61h1.312v2.5c-.437.032-.89.047-1.312.047zm2.828 2.391c-.344.047-.719.078-1.094.094v-2.484h.797v-.36H.688v.36h.78v2.562H.485l.063.39c1.172 0 2.797-.03 4.203-.25zM3.937.187c-1.156 0-1.89-.343-1.89-.906 0-.562.734-.906 1.89-.906 1.172 0 1.922.344 1.922.906 0 .563-.75.906-1.921.906zm0-2.156c-1.453 0-2.328.453-2.328 1.25 0 .813.875 1.25 2.329 1.25 1.453 0 2.328-.437 2.328-1.25 0-.797-.875-1.25-2.329-1.25zm0 0"/></symbol><symbol overflow="visible" id="s"><path d="M.86-5.766v.36h2.78C3.532-3.672 2.485-2.156.563-1.203l.235.344c2.265-1.125 3.265-2.97 3.265-4.907zm6.234 2.204H5.859v-2.985h-.421v7.11h.421v-3.766h1.235zm0 0"/></symbol><symbol overflow="visible" id="t"><path d="M1.172-1.594v-3.672h2.234v-.359H.75v4.39h.438c1.203 0 1.859-.03 2.687-.218l-.063-.36c-.78.188-1.453.22-2.624.22zm3.453-2.172H2.922v.36h1.703V.172h.406V-6.36h-.406zm1.406-2.78V.562h.422v-7.11zm0 0"/></symbol><symbol overflow="visible" id="u"><path d="M1.203-1.563V-3.5H3.72v-.36H1.203V-5.5h2.86v-.375H.78v4.672h.531c1.454 0 2.282-.047 3.297-.25l-.046-.36c-.985.204-1.813.25-3.25.25zm4.61-4.984v2.781H4.188v.36h1.625V.563h.421v-7.11zm0 0"/></symbol><symbol overflow="visible" id="v"><path d="M1.938 1.547l.28-.14C1.532.28 1.173-1.079 1.173-2.47c0-1.375.36-2.734 1.047-3.86l-.281-.155C1.203-5.297.766-4.031.766-2.47c0 1.563.437 2.844 1.171 4.016zm0 0"/></symbol><symbol overflow="visible" id="w"><path d="M1.047-3.14c.984-.204 2.203-.829 2.61-1.75.421.921 1.64 1.546 2.624 1.75l.172-.344c-1.062-.172-2.562-1-2.562-2.063v-.156h2.343v-.36H1.078v.36h2.36v.156c0 1.063-1.516 1.89-2.563 2.063zm5.828.718H.453v.344h2.985V.547h.421v-2.625h3.016zm0 0"/></symbol><symbol overflow="visible" id="x"><path d="M.578 1.547C1.313.375 1.75-.906 1.75-2.47c0-1.562-.438-2.828-1.172-4.015l-.281.156c.687 1.125 1.062 2.484 1.062 3.86 0 1.39-.375 2.75-1.062 3.874zm0 0"/></symbol><symbol overflow="visible" id="y"><path d="M2.703-4.906h1.672v-.36H2.703v-1.171h-.422v1.171H.594v.36H2.28v.703c0 1.328-.875 2.547-1.86 3.031l.25.328C1.47-1.266 2.204-2.14 2.5-3.219c.297 1 .969 1.828 1.75 2.235l.25-.329c-.953-.484-1.797-1.656-1.797-2.89zM7.11-3.531H5.86v-3.016h-.421v7.11h.421v-3.735h1.25zm0 0"/></symbol><symbol overflow="visible" id="z"><path d="M4.5-2.984c-.969-.329-1.766-1.188-1.766-2.172v-.469h1.672v-.36H.625v.36h1.688v.484c0 1.079-.844 1.985-1.844 2.344l.234.344c.828-.328 1.531-.985 1.828-1.86.297.766.953 1.375 1.766 1.672zM3.687.187c-1.14 0-1.874-.343-1.874-.921 0-.563.734-.907 1.875-.907 1.14 0 1.874.344 1.874.907 0 .578-.734.921-1.875.921zm0-2.171c-1.421 0-2.28.453-2.28 1.25 0 .812.859 1.265 2.28 1.265C5.11.531 5.985.078 5.985-.734c0-.797-.875-1.25-2.296-1.25zm2.235-2.657v-1.906H5.5v4.328h.422v-2.047h1.125v-.375zm0 0"/></symbol><symbol overflow="visible" id="A"><path d="M3.781-.75H1.828l.813-.984c.312-.375.562-.672.75-.97.203-.312.375-.671.375-1.108 0-.829-.579-1.61-1.688-1.61-.656 0-1.031.297-1.219.516a1.93 1.93 0 0 0-.437 1.172h.766c.03-.5.328-.97.921-.97.579 0 .875.423.875.86 0 .313-.125.547-.28.766a11.8 11.8 0 0 1-.626.844L.266 0H3.78zm0 0"/></symbol><symbol overflow="visible" id="B"><path d="M2.234.094c.47 0 .844-.203 1.172-.578.563-.641.672-1.485.672-2.172 0-.703-.11-1.547-.672-2.188-.328-.39-.719-.578-1.172-.578-.468 0-.859.188-1.187.578C.5-4.204.375-3.359.375-2.656c0 .687.125 1.531.672 2.172.328.375.703.578 1.187.578zm0-4.797c.204 0 .47.094.704.437.28.438.359 1.125.359 1.594 0 .469-.078 1.156-.36 1.594-.234.36-.5.453-.703.453-.203 0-.484-.094-.718-.453-.282-.438-.36-1.125-.36-1.594 0-.469.078-1.156.36-1.594.234-.343.515-.437.718-.437zm0 0"/></symbol></defs><g fill="#231f20"><use xlink:href="#a" x="42.628" y="237.4"/><use xlink:href="#b" x="51.625" y="237.4"/><use xlink:href="#c" x="60.621" y="237.4"/></g><use xlink:href="#d" x="42.628" y="253.634" fill="#231f20"/><g fill="#231f20"><use xlink:href="#e" x="45.011" y="253.634"/><use xlink:href="#f" x="46.627" y="253.634"/><use xlink:href="#g" x="53.824" y="253.634"/><use xlink:href="#h" x="61.021" y="253.634"/><use xlink:href="#i" x="68.219" y="253.634"/><use xlink:href="#e" x="75.416" y="253.634"/><use xlink:href="#j" x="77.031" y="253.634"/><use xlink:href="#k" x="84.229" y="253.634"/><use xlink:href="#f" x="91.426" y="253.634"/><use xlink:href="#l" x="98.623" y="253.634"/></g><path d="M42.629 219.977H150.75V93.367H42.629zm0 0" fill="none" stroke-width=".249905" stroke="#33459a"/><g fill="#231f20"><use xlink:href="#m" x="42.628" y="464.417"/><use xlink:href="#n" x="51.625" y="464.417"/><use xlink:href="#o" x="60.621" y="464.417"/></g><use xlink:href="#d" x="42.628" y="480.651" fill="#231f20"/><g fill="#231f20"><use xlink:href="#e" x="45.011" y="480.651"/><use xlink:href="#p" x="46.627" y="480.651"/><use xlink:href="#q" x="53.824" y="480.651"/><use xlink:href="#r" x="61.021" y="480.651"/><use xlink:href="#s" x="68.219" y="480.651"/><use xlink:href="#t" x="75.416" y="480.651"/><use xlink:href="#f" x="82.613" y="480.651"/><use xlink:href="#u" x="89.81" y="480.651"/><use xlink:href="#v" x="97.008" y="480.651"/><use xlink:href="#w" x="99.367" y="480.651"/><use xlink:href="#x" x="106.564" y="480.651"/><use xlink:href="#e" x="108.923" y="480.651"/><use xlink:href="#y" x="110.539" y="480.651"/><use xlink:href="#z" x="117.736" y="480.651"/></g><g fill="#7b7979"><use xlink:href="#A" x="27.429" y="818.875"/><use xlink:href="#B" x="31.645" y="818.875"/></g></svg>