<svg xmlns="http://www.w3.org/2000/svg" xmlns:xlink="http://www.w3.org/1999/xlink" width="793.033" height="1122.52" viewBox="0 0 594.7751 841.89" version="1.2"><defs><symbol overflow="visible" id="a"><path d="M2.734-5.516L1.281-3.609c-.234.312-.437.546-.64.953a2.17 2.17 0 0 0-.25 1.015c0 .516.187.907.453 1.204.406.421.89.53 1.36.53.343 0 .905-.062 1.343-.515.344-.344.515-.86.515-1.344 0-.484-.187-.937-.468-1.25C3.39-3.234 3-3.5 2.39-3.5c-.11 0-.204 0-.329.031l1.25-1.61zm-.5 2.704c.266 0 .563.109.735.296.203.204.312.532.312.797 0 .266-.11.594-.312.797a1.097 1.097 0 0 1-.735.297c-.28 0-.593-.14-.75-.297-.203-.203-.312-.531-.312-.797 0-.343.14-.625.312-.797.188-.187.485-.296.75-.296zm0 0"/></symbol><symbol overflow="visible" id="b"><path d="M.39-.219l.626.406 3.296-5.515H.422v.75H3zm0 0"/></symbol><symbol overflow="visible" id="c"><path d="M.36 0h3.515v-.422H2.062c-.312 0-.64.031-.968.047 1.547-1.438 2.5-2.672 2.5-3.89 0-1-.61-1.673-1.625-1.673-.703 0-1.188.36-1.625.844l.281.282c.344-.422.797-.735 1.297-.735.828 0 1.203.578 1.203 1.297 0 1.063-.781 2.266-2.766 3.969zm0 0"/></symbol><symbol overflow="visible" id="d"><path d="M1 .11c.219 0 .406-.172.406-.438S1.22-.766 1-.766c-.219 0-.406.172-.406.438S.78.109 1 .109zm0 0"/></symbol><symbol overflow="visible" id="e"><path d="M2.14.11c1.063 0 1.72-1 1.72-3.047 0-2.016-.657-3-1.72-3-1.062 0-1.718.984-1.718 3C.422-.892 1.078.108 2.14.108zm0-.391c-.75 0-1.25-.89-1.25-2.656 0-1.735.5-2.61 1.25-2.61s1.25.875 1.25 2.61c0 1.765-.5 2.656-1.25 2.656zm0 0"/></symbol><symbol overflow="visible" id="f"><path d="M2.031.11c.922 0 1.813-.72 1.813-1.985 0-1.297-.766-1.875-1.719-1.875-.406 0-.703.125-.984.281l.171-1.953h2.25v-.406H.892L.703-3.172 1-2.984c.328-.22.61-.375 1.031-.375.813 0 1.344.578 1.344 1.5 0 .953-.625 1.562-1.36 1.562-.765 0-1.203-.328-1.53-.687l-.266.328c.375.375.906.765 1.812.765zm0 0"/></symbol><symbol overflow="visible" id="g"><path d="M2.36-.281c-.891 0-1.344-.828-1.422-2.11.453-.593.953-.828 1.328-.828.843 0 1.187.61 1.187 1.453 0 .86-.469 1.485-1.094 1.485zm1.453-5.094c-.313-.344-.704-.563-1.25-.563-1.094 0-2.094.829-2.094 3.188 0 1.86.75 2.86 1.875 2.86.844 0 1.578-.766 1.578-1.876 0-1.187-.594-1.828-1.578-1.828-.516 0-1.031.297-1.422.766.031-2.016.781-2.703 1.656-2.703.36 0 .703.156.953.453zm0 0"/></symbol><symbol overflow="visible" id="i"><path d="M.844 2.219h.344v-8.86H.844zm0 0"/></symbol><symbol overflow="visible" id="j"><path d="M2.453-5.281h1.438v-.36H.547v.36h1.5v.765c0 1.485-.64 2.672-1.64 3.22l.28.327c.782-.453 1.344-1.265 1.579-2.344.25.954.78 1.688 1.515 2.094l.266-.328c-.969-.5-1.594-1.64-1.594-2.969zm3.594-1.266v2.953H4.89v-2.781h-.407V.172h.407v-3.39h1.156v3.78h.406v-7.109zm0 0"/></symbol><symbol overflow="visible" id="k"><path d="M4.625-3.328c-1.016.203-1.86.25-3.281.25h-.11v-2.469h2.704v-.36H.812v3.188h.532c1.437 0 2.297-.047 3.343-.25zm-2.61 1.437h-.421V.391H6.28V.03H2.016zm3.907-2.453v-2.218H5.5v5.156h.422V-3.97h1.125v-.375zm0 0"/></symbol><symbol overflow="visible" id="l"><path d="M5.813.094H2.219V-.953h3.594zm0-1.39H2.219v-1h-.422v2.75h4.437v-2.75h-.421zM3.53-3.329H1.266v-1.297H3.53zm2.281-3.219v1.813H3.954v-1.454h-.422v1.22H1.266v-1.22H.844v3.22h3.11v-1.407h1.858v1.719h.422v-3.89zm0 0"/></symbol><symbol overflow="visible" id="m"><path d="M6.234-6.531h-.421v5.234h.421zM1.063-4.313c0-.765.593-1.328 1.39-1.328.797 0 1.39.563 1.39 1.329 0 .765-.593 1.359-1.39 1.359-.797 0-1.39-.594-1.39-1.36zm3.187 0c0-1-.75-1.718-1.797-1.718-1.031 0-1.797.718-1.797 1.718 0 1.016.766 1.735 1.797 1.735 1.047 0 1.797-.719 1.797-1.735zM2.187.032v-1.875h-.421V.391h4.703V.03zm0 0"/></symbol><symbol overflow="visible" id="o"><path d="M.89-5.813v4.532h3.188v-4.532zm2.766.344v3.828h-2.36v-3.828zm2.14-1.078v7.11h.423v-7.11zm0 0"/></symbol><symbol overflow="visible" id="p"><path d="M1.125-1.578v-1.813h2.219v-2.343H.704v.359h2.218v1.625H.719v2.531h.437c.907 0 1.719-.031 2.75-.218l-.047-.36c-1 .188-1.812.219-2.703.219zm4.906-4.969v2.89H4.813v-2.718h-.407V.172h.407v-3.469H6.03v3.86h.422v-7.11zm0 0"/></symbol><symbol overflow="visible" id="q"><path d="M2.766-6C1.656-6 .89-5.344.89-4.375S1.656-2.75 2.766-2.75c1.109 0 1.875-.656 1.875-1.625S3.875-6 2.766-6zm0 .375c.843 0 1.468.516 1.468 1.25s-.625 1.25-1.468 1.25c-.844 0-1.47-.516-1.47-1.25s.626-1.25 1.47-1.25zm2.968-.922v7.11h.422v-7.11zM.563-1.078c1.296 0 3.062 0 4.703-.297l-.047-.328c-1.578.25-3.39.266-4.719.266zm0 0"/></symbol><symbol overflow="visible" id="r"><path d="M4.688-5.719H2.796v-.875h-.422v.875H.485v.344h4.202zM1.296-3.64c0-.546.531-.921 1.281-.921.766 0 1.281.375 1.281.921 0 .547-.515.922-1.28.922-.75 0-1.282-.375-1.282-.922zm2.953 0c0-.78-.656-1.265-1.672-1.265-1 0-1.672.484-1.672 1.265 0 .782.672 1.266 1.672 1.266 1.016 0 1.672-.484 1.672-1.266zM1.39-1.312H5.5V.546h.422v-2.219H1.39zm5.657-3.204H5.922v-2.03H5.5v4.437h.422v-2.032h1.125zm0 0"/></symbol><symbol overflow="visible" id="s"><path d="M.984-4.344c0-.765.594-1.36 1.391-1.36s1.39.595 1.39 1.36c0 .797-.593 1.39-1.39 1.39-.797 0-1.39-.593-1.39-1.39zm4.829-.672v1.344h-1.75c.078-.203.109-.422.109-.672 0-.234-.047-.468-.11-.672zm0 1.704v2.046h.421v-5.28h-.421v1.171H3.859c-.328-.422-.843-.703-1.484-.703-1.031 0-1.797.719-1.797 1.734 0 1.047.766 1.75 1.797 1.75.64 0 1.172-.265 1.5-.719zM2.219.03v-1.843h-.422V.39h4.656V.03zm0 0"/></symbol><symbol overflow="visible" id="t"><path d="M6.875-2.984h-1.11c.204-1.047.204-1.797.204-2.47v-.609H1.297v.36h4.25v.25c0 .672 0 1.422-.234 2.469H.452v.359h3V.563h.422v-3.188h3zm0 0"/></symbol><symbol overflow="visible" id="u"><path d="M2.438-5.281h1.406v-.36H.547v.36H2.03v.812c0 1.36-.687 2.657-1.64 3.235l.28.312c.735-.453 1.313-1.36 1.563-2.422.25.985.797 1.813 1.516 2.25l.281-.312c-.937-.532-1.593-1.797-1.593-3.063zm2.171 1.36H3.281v.358H4.61V.172h.407V-6.36h-.407zm1.422-2.626v7.11h.422v-7.11zm0 0"/></symbol><symbol overflow="visible" id="v"><path d="M4.984-5.625H3.047v-.938h-.438v.938H.656v.36h4.328zm-3.421 2.14c0-.562.515-.953 1.265-.953.75 0 1.266.391 1.266.954 0 .562-.516.968-1.266.968s-1.265-.406-1.265-.968zm1.484 1.297C3.922-2.265 4.5-2.75 4.5-3.484c0-.797-.672-1.297-1.672-1.297-1 0-1.672.5-1.672 1.297 0 .75.578 1.234 1.453 1.296v.876c-.75.03-1.468.046-2.109.046l.063.36c1.343 0 3.093-.016 4.703-.281L5.234-1.5c-.703.094-1.453.14-2.187.172zm2.687-4.359V.547h.422v-7.094zm0 0"/></symbol><symbol overflow="visible" id="w"><path d="M1.063-3.266c1.046-.156 2.203-.625 2.593-1.468.406.843 1.563 1.312 2.61 1.468l.156-.328C5.25-3.75 3.89-4.375 3.89-5.39h2.312v-.359H3.875v-.828h-.422v.828H1.141v.36h2.296c0 1.015-1.359 1.64-2.53 1.796zm.671 1.72h-.437V.39h4.875V.03H1.734zM.438-2.75v.36h3.046v1.562h.422v-1.563h2.985v-.359zm0 0"/></symbol><symbol overflow="visible" id="x"><path d="M4.625-4.516h-1.25c.063-.359.094-.718.094-1.093H.766v.359h2.296C2.954-3.719 2.095-2.266.5-1.312l.266.296c1.343-.812 2.156-1.921 2.5-3.14h1.359v1.422H3.156v.359h1.469V.172h.422v-6.516h-.422zm1.422-2.03V.562h.406v-7.11zm0 0"/></symbol><symbol overflow="visible" id="y"><path d="M2.656-5.453h1.985v2.516H2.656zM3.86-.734v-1.844H6.25v-.36H5.062v-2.515H6.25v-.36H1.062v.36H2.25v2.516H1.062v.359h2.375v1.844H.454v.359h6.453v-.36zm0 0"/></symbol><symbol overflow="visible" id="z"><path d="M4.5-3.297c-1.14.188-2.063.219-3.219.219h-.093v-1.235h2.671v-1.859H.75v.36h2.703v1.156H.766v1.937h.515c1.172 0 2.078-.031 3.25-.219zM2.094-1.578h3.734V.094H2.094zM1.672.453h4.562v-2.39H1.672zm4.14-6.984v1.656H4.36v.36h1.454v2.14h.421v-4.156zm0 0"/></symbol><symbol overflow="visible" id="A"><path d="M.344 0H3.75v-.422H1.984c-.28 0-.609.031-.921.047 1.5-1.438 2.421-2.672 2.421-3.89 0-1-.578-1.673-1.562-1.673-.688 0-1.172.36-1.594.844l.281.282c.329-.422.766-.735 1.266-.735.797 0 1.14.578 1.14 1.297 0 1.063-.75 2.266-2.671 3.969zm0 0"/></symbol><symbol overflow="visible" id="B"><path d="M.969.11c.203 0 .39-.172.39-.438S1.172-.766.97-.766s-.39.172-.39.438.187.437.39.437zm0 0"/></symbol><symbol overflow="visible" id="C"><path d="M2.078.11c1.016 0 1.656-1 1.656-3.047 0-2.016-.64-3-1.656-3-1.031 0-1.672.984-1.672 3 0 2.046.64 3.046 1.672 3.046zm0-.391C1.344-.281.86-1.171.86-2.937c0-1.735.485-2.61 1.22-2.61.733 0 1.202.875 1.202 2.61 0 1.765-.469 2.656-1.203 2.656zm0 0"/></symbol><symbol overflow="visible" id="D"><path d="M1.953.11c.906 0 1.781-.72 1.781-1.985 0-1.297-.75-1.875-1.687-1.875-.375 0-.672.125-.938.281l.157-1.953h2.187v-.406H.875L.672-3.172l.297.188c.312-.22.594-.375 1-.375.797 0 1.297.578 1.297 1.5 0 .953-.61 1.562-1.329 1.562-.734 0-1.14-.328-1.468-.687l-.25.328c.36.375.86.765 1.734.765zm0 0"/></symbol><symbol overflow="visible" id="E"><path d="M2.281-.281c-.86 0-1.312-.828-1.375-2.11.438-.593.922-.828 1.297-.828.797 0 1.14.61 1.14 1.453 0 .86-.452 1.485-1.062 1.485zm1.406-5.094c-.296-.344-.671-.563-1.203-.563-1.062 0-2.03.829-2.03 3.188 0 1.86.718 2.86 1.812 2.86.828 0 1.53-.766 1.53-1.876 0-1.187-.577-1.828-1.53-1.828-.5 0-1 .297-1.36.766.016-2.016.735-2.703 1.594-2.703.344 0 .672.156.922.453zm0 0"/></symbol><symbol overflow="visible" id="G"><path d="M.813 2.219h.343v-8.86H.813zm0 0"/></symbol><symbol overflow="visible" id="H"><path d="M2.375-5.281h1.39v-.36H.532v.36h1.453v.765c0 1.485-.625 2.672-1.593 3.22l.28.327c.75-.453 1.282-1.265 1.516-2.344.25.954.766 1.688 1.47 2.094l.25-.328c-.938-.5-1.532-1.64-1.532-2.969zm3.469-1.266v2.953h-1.11v-2.781h-.39V.172h.39v-3.39h1.11v3.78h.406v-7.109zm0 0"/></symbol><symbol overflow="visible" id="I"><path d="M4.484-3.328c-.984.203-1.812.25-3.187.25h-.094v-2.469h2.61v-.36H.796v3.188h.5c1.406 0 2.234-.047 3.234-.25zm-2.53 1.437h-.407V.391h4.531V.03H1.953zM5.75-4.344v-2.218h-.422v5.156h.422V-3.97h1.063v-.375zm0 0"/></symbol><symbol overflow="visible" id="J"><path d="M5.64.094h-3.5V-.953h3.5zm0-1.39h-3.5v-1h-.406v2.75h4.297v-2.75h-.39zM3.423-3.329H1.219v-1.297h2.203zM5.64-6.547v1.813H3.828v-1.454h-.406v1.22H1.219v-1.22H.812v3.22h3.016v-1.407h1.813v1.719h.406v-3.89zm0 0"/></symbol><symbol overflow="visible" id="K"><path d="M6.031-6.531h-.406v5.234h.406zm-5 2.218c0-.765.578-1.328 1.344-1.328.766 0 1.36.563 1.36 1.329a1.34 1.34 0 0 1-1.36 1.359c-.766 0-1.344-.594-1.344-1.36zm3.094 0c0-1-.734-1.718-1.75-1.718-1 0-1.734.718-1.734 1.718 0 1.016.734 1.735 1.734 1.735 1.016 0 1.75-.719 1.75-1.735zm-2 4.344v-1.875h-.406V.391h4.547V.03zm0 0"/></symbol><symbol overflow="visible" id="M"><path d="M.86-5.813v4.532h3.078v-4.532zm2.687.344v3.828H1.266v-3.828zm2.062-1.078v7.11h.407v-7.11zm0 0"/></symbol><symbol overflow="visible" id="N"><path d="M1.094-1.578v-1.813h2.14v-2.343H.672v.359h2.172v1.625H.688v2.531h.437c.86 0 1.656-.031 2.672-.218l-.047-.36c-.984.188-1.781.219-2.625.219zm4.75-4.969v2.89H4.656v-2.718h-.39V.172h.39v-3.469h1.188v3.86h.406v-7.11zm0 0"/></symbol><symbol overflow="visible" id="O"><path d="M2.688-6C1.609-6 .875-5.344.875-4.375S1.609-2.75 2.688-2.75C3.75-2.75 4.5-3.406 4.5-4.375S3.75-6 2.687-6zm0 .375c.812 0 1.406.516 1.406 1.25s-.594 1.25-1.407 1.25c-.828 0-1.421-.516-1.421-1.25s.593-1.25 1.421-1.25zm2.859-.922v7.11h.406v-7.11zm-5 5.469c1.265 0 2.969 0 4.547-.297l-.032-.328c-1.53.25-3.296.266-4.578.266zm0 0"/></symbol><symbol overflow="visible" id="P"><path d="M4.547-5.719H2.719v-.875h-.422v.875H.469v.344h4.078zM1.266-3.64c0-.546.5-.921 1.234-.921s1.234.375 1.234.921c0 .547-.5.922-1.234.922s-1.234-.375-1.234-.922zm2.859 0c0-.78-.64-1.265-1.625-1.265-.969 0-1.625.484-1.625 1.265 0 .782.656 1.266 1.625 1.266.984 0 1.625-.484 1.625-1.266zM1.344-1.312h3.984V.546h.422v-2.219H1.344zm5.468-3.204H5.75v-2.03h-.422v4.437h.422v-2.032h1.063zm0 0"/></symbol><symbol overflow="visible" id="Q"><path d="M.953-4.344c0-.765.578-1.36 1.344-1.36.781 0 1.36.595 1.36 1.36 0 .797-.579 1.39-1.36 1.39-.766 0-1.344-.593-1.344-1.39zm4.688-.672v1.344H3.937a2.24 2.24 0 0 0 .11-.672c0-.234-.047-.468-.125-.672zm0 1.704v2.046h.406v-5.28H5.64v1.171H3.75a1.822 1.822 0 0 0-1.453-.703c-1 0-1.735.719-1.735 1.734 0 1.047.735 1.75 1.735 1.75.625 0 1.14-.265 1.453-.719zM2.156.03v-1.843H1.75V.39h4.5V.03zm0 0"/></symbol><symbol overflow="visible" id="R"><path d="M6.656-2.984H5.578c.203-1.047.203-1.797.203-2.47v-.609H1.25v.36h4.125v.25c0 .672 0 1.422-.219 2.469H.438v.359h2.906V.563h.406v-3.188h2.906zm0 0"/></symbol><symbol overflow="visible" id="S"><path d="M2.36-5.281h1.374v-.36H.531v.36h1.422v.812c0 1.36-.656 2.657-1.578 3.235l.281.312c.703-.453 1.266-1.36 1.5-2.422.25.985.781 1.813 1.485 2.25l.25-.312c-.907-.532-1.532-1.797-1.532-3.063zm2.109 1.36H3.187v.358H4.47V.172h.39V-6.36h-.39zm1.375-2.626v7.11h.406v-7.11zm0 0"/></symbol><symbol overflow="visible" id="T"><path d="M4.844-5.625H2.937v-.938h-.406v.938H.641v.36h4.203zm-3.328 2.14c0-.562.484-.953 1.218-.953.735 0 1.235.391 1.235.954 0 .562-.5.968-1.235.968-.734 0-1.218-.406-1.218-.968zm1.437 1.297c.86-.078 1.406-.562 1.406-1.296 0-.797-.656-1.297-1.625-1.297-.968 0-1.609.5-1.609 1.297 0 .75.547 1.234 1.406 1.296v.876c-.719.03-1.437.046-2.047.046l.063.36c1.297 0 3-.016 4.547-.281L5.062-1.5c-.671.094-1.39.14-2.109.172zm2.594-4.359V.547h.406v-7.094zm0 0"/></symbol><symbol overflow="visible" id="U"><path d="M1.016-3.266c1.03-.156 2.14-.625 2.53-1.468.392.843 1.5 1.312 2.532 1.468l.14-.328C5.095-3.75 3.767-4.375 3.767-5.39H6v-.359H3.766v-.828h-.422v.828H1.109v.36h2.22c0 1.015-1.313 1.64-2.438 1.796zm.656 1.72h-.406V.39h4.718V.03H1.672zM.422-2.75v.36h2.953v1.562h.406v-1.563h2.906v-.359zm0 0"/></symbol><symbol overflow="visible" id="V"><path d="M4.484-4.516H3.266c.062-.359.093-.718.093-1.093H.734v.359h2.22C2.874-3.719 2.03-2.266.483-1.312l.266.296c1.297-.812 2.094-1.921 2.422-3.14h1.312v1.422H3.063v.359h1.421V.172h.391v-6.516h-.39zm1.36-2.03V.562h.406v-7.11zm0 0"/></symbol><symbol overflow="visible" id="W"><path d="M2.578-5.453H4.5v2.516H2.578zM3.75-.734v-1.844h2.297v-.36h-1.14v-2.515h1.14v-.36H1.016v.36h1.156v2.516h-1.14v.359h2.296v1.844H.438v.359h6.25v-.36zm0 0"/></symbol><symbol overflow="visible" id="X"><path d="M4.36-3.297c-1.11.188-2 .219-3.126.219h-.093v-1.235H3.75v-1.859H.719v.36h2.625v1.156H.75v1.937h.484c1.141 0 2.016-.031 3.157-.219zM2.015-1.578H5.64V.094H2.016zM1.625.453h4.422v-2.39H1.625zM5.641-6.53v1.656H4.219v.36H5.64v2.14h.406v-4.156zm0 0"/></symbol></defs><g fill="#7b7979"><use xlink:href="#a" x="557.772" y="818.875"/><use xlink:href="#b" x="561.533" y="818.875"/></g><g fill="#231f20"><use xlink:href="#c" x="39.199" y="46.84"/><use xlink:href="#c" x="43.358" y="46.84"/><use xlink:href="#d" x="47.516" y="46.84"/><use xlink:href="#e" x="49.396" y="46.84"/><use xlink:href="#f" x="53.554" y="46.84"/><use xlink:href="#d" x="57.712" y="46.84"/><use xlink:href="#e" x="59.592" y="46.84"/><use xlink:href="#g" x="63.75" y="46.84"/><use xlink:href="#h" x="67.909" y="46.84"/></g><g fill="#231f20"><use xlink:href="#i" x="69.844" y="46.84"/><use xlink:href="#h" x="71.755" y="46.84"/></g><g fill="#231f20"><use xlink:href="#j" x="73.689" y="46.84"/><use xlink:href="#k" x="80.887" y="46.84"/><use xlink:href="#l" x="88.084" y="46.84"/><use xlink:href="#m" x="95.281" y="46.84"/><use xlink:href="#n" x="102.479" y="46.84"/><use xlink:href="#o" x="104.558" y="46.84"/><use xlink:href="#p" x="111.755" y="46.84"/><use xlink:href="#q" x="118.952" y="46.84"/><use xlink:href="#r" x="126.15" y="46.84"/><use xlink:href="#s" x="133.347" y="46.84"/><use xlink:href="#t" x="140.544" y="46.84"/><use xlink:href="#j" x="147.741" y="46.84"/><use xlink:href="#k" x="154.939" y="46.84"/><use xlink:href="#n" x="162.136" y="46.84"/><use xlink:href="#u" x="164.215" y="46.84"/><use xlink:href="#g" x="171.412" y="46.84"/><use xlink:href="#v" x="175.531" y="46.84"/><use xlink:href="#n" x="182.728" y="46.84"/><use xlink:href="#w" x="184.807" y="46.84"/><use xlink:href="#x" x="192.005" y="46.84"/><use xlink:href="#y" x="199.202" y="46.84"/><use xlink:href="#z" x="206.399" y="46.84"/></g><g fill="#231f20"><use xlink:href="#A" x="39.199" y="506.588"/><use xlink:href="#A" x="43.117" y="506.588"/><use xlink:href="#B" x="47.034" y="506.588"/><use xlink:href="#C" x="48.741" y="506.588"/><use xlink:href="#D" x="52.658" y="506.588"/><use xlink:href="#B" x="56.575" y="506.588"/><use xlink:href="#C" x="58.282" y="506.588"/><use xlink:href="#E" x="62.199" y="506.588"/><use xlink:href="#F" x="66.116" y="506.588"/><use xlink:href="#G" x="67.606" y="506.588"/><use xlink:href="#F" x="69.343" y="506.588"/></g><g fill="#231f20"><use xlink:href="#H" x="70.832" y="506.588"/><use xlink:href="#I" x="77.736" y="506.588"/><use xlink:href="#J" x="84.639" y="506.588"/><use xlink:href="#K" x="91.543" y="506.588"/><use xlink:href="#L" x="98.447" y="506.588"/><use xlink:href="#M" x="100.386" y="506.588"/><use xlink:href="#N" x="107.29" y="506.588"/><use xlink:href="#O" x="114.194" y="506.588"/><use xlink:href="#P" x="121.098" y="506.588"/><use xlink:href="#Q" x="128.001" y="506.588"/><use xlink:href="#R" x="134.905" y="506.588"/><use xlink:href="#H" x="141.809" y="506.588"/><use xlink:href="#I" x="148.713" y="506.588"/><use xlink:href="#L" x="155.617" y="506.588"/><use xlink:href="#S" x="157.556" y="506.588"/><use xlink:href="#E" x="164.46" y="506.588"/><use xlink:href="#T" x="168.377" y="506.588"/><use xlink:href="#L" x="175.281" y="506.588"/><use xlink:href="#U" x="177.22" y="506.588"/><use xlink:href="#V" x="184.124" y="506.588"/><use xlink:href="#W" x="191.028" y="506.588"/><use xlink:href="#X" x="197.931" y="506.588"/></g><use xlink:href="#L" x="205.068" y="506.588" fill="#231f20"/><g fill="#231f20"><use xlink:href="#A" x="399.035" y="506.588"/><use xlink:href="#A" x="402.952" y="506.588"/><use xlink:href="#B" x="406.87" y="506.588"/><use xlink:href="#C" x="408.576" y="506.588"/><use xlink:href="#D" x="412.493" y="506.588"/><use xlink:href="#B" x="416.411" y="506.588"/><use xlink:href="#C" x="418.117" y="506.588"/><use xlink:href="#E" x="422.035" y="506.588"/><use xlink:href="#F" x="425.952" y="506.588"/><use xlink:href="#G" x="427.441" y="506.588"/><use xlink:href="#F" x="429.179" y="506.588"/></g><g fill="#231f20"><use xlink:href="#H" x="430.667" y="506.588"/><use xlink:href="#I" x="437.571" y="506.588"/><use xlink:href="#J" x="444.475" y="506.588"/><use xlink:href="#K" x="451.379" y="506.588"/><use xlink:href="#L" x="458.283" y="506.588"/><use xlink:href="#M" x="460.222" y="506.588"/><use xlink:href="#N" x="467.126" y="506.588"/><use xlink:href="#O" x="474.029" y="506.588"/><use xlink:href="#P" x="480.933" y="506.588"/><use xlink:href="#Q" x="487.837" y="506.588"/><use xlink:href="#R" x="494.741" y="506.588"/><use xlink:href="#H" x="501.645" y="506.588"/><use xlink:href="#I" x="508.548" y="506.588"/><use xlink:href="#L" x="515.452" y="506.588"/><use xlink:href="#S" x="517.391" y="506.588"/><use xlink:href="#E" x="524.295" y="506.588"/><use xlink:href="#T" x="528.212" y="506.588"/><use xlink:href="#L" x="535.116" y="506.588"/><use xlink:href="#U" x="537.056" y="506.588"/><use xlink:href="#V" x="543.959" y="506.588"/><use xlink:href="#W" x="550.863" y="506.588"/><use xlink:href="#X" x="557.767" y="506.588"/></g><use xlink:href="#L" x="564.903" y="506.588" fill="#231f20"/><g fill="#231f20"><use xlink:href="#A" x="218.82" y="506.588"/><use xlink:href="#A" x="222.737" y="506.588"/><use xlink:href="#B" x="226.654" y="506.588"/><use xlink:href="#C" x="228.361" y="506.588"/><use xlink:href="#D" x="232.278" y="506.588"/><use xlink:href="#B" x="236.195" y="506.588"/><use xlink:href="#C" x="237.902" y="506.588"/><use xlink:href="#E" x="241.819" y="506.588"/><use xlink:href="#F" x="245.737" y="506.588"/><use xlink:href="#G" x="247.226" y="506.588"/><use xlink:href="#F" x="248.964" y="506.588"/></g><g fill="#231f20"><use xlink:href="#H" x="250.452" y="506.588"/><use xlink:href="#I" x="257.356" y="506.588"/><use xlink:href="#J" x="264.26" y="506.588"/><use xlink:href="#K" x="271.163" y="506.588"/><use xlink:href="#L" x="278.067" y="506.588"/><use xlink:href="#M" x="280.006" y="506.588"/><use xlink:href="#N" x="286.91" y="506.588"/><use xlink:href="#O" x="293.814" y="506.588"/><use xlink:href="#P" x="300.718" y="506.588"/><use xlink:href="#Q" x="307.622" y="506.588"/><use xlink:href="#R" x="314.525" y="506.588"/><use xlink:href="#H" x="321.429" y="506.588"/><use xlink:href="#I" x="328.333" y="506.588"/><use xlink:href="#L" x="335.237" y="506.588"/><use xlink:href="#S" x="337.176" y="506.588"/><use xlink:href="#E" x="344.08" y="506.588"/><use xlink:href="#T" x="347.997" y="506.588"/><use xlink:href="#L" x="354.901" y="506.588"/><use xlink:href="#U" x="356.84" y="506.588"/><use xlink:href="#V" x="363.744" y="506.588"/><use xlink:href="#W" x="370.648" y="506.588"/><use xlink:href="#X" x="377.552" y="506.588"/></g><use xlink:href="#L" x="384.688" y="506.588" fill="#231f20"/></svg>