<svg xmlns="http://www.w3.org/2000/svg" xmlns:xlink="http://www.w3.org/1999/xlink" width="793.033" height="1122.52" viewBox="0 0 594.7751 841.89" version="1.2"><defs><symbol overflow="visible" id="a"><path d="M3.516-5.734L.156-1.016H2.75V0h.766v-1.016h.562v-.75h-.562zM1.546-1.75L2.75-3.469v1.719zm0 0"/></symbol><symbol overflow="visible" id="b"><path d="M3.734-5.328H1.578L.797-2.641a1.88 1.88 0 0 1 .469-.234c.203-.078.375-.11.609-.11.25 0 .594.047.86.282.156.172.312.437.312.875 0 .453-.188.734-.344.906-.125.125-.375.297-.797.297a1.32 1.32 0 0 1-.687-.188 1.191 1.191 0 0 1-.39-.468l-.61.515c.25.375.547.563.625.61.328.203.687.25 1 .25.531 0 1.031-.14 1.453-.547.344-.36.531-.828.531-1.422 0-.688-.265-1.11-.515-1.36-.313-.328-.766-.484-1.204-.484-.078 0-.171.016-.25.016l.266-.875h1.61zm0 0"/></symbol><symbol overflow="visible" id="c"><path d="M1.406.016l.422-1.454h2.484L4.734.016h1.344l-2.266-7.11H2.329L.078.016zM4-2.563H2.14l.938-3.234zm0 0"/></symbol><symbol overflow="visible" id="d"><path d="M1.75.016v-7.11H.516v7.11zm0 0"/></symbol><symbol overflow="visible" id="e"><path d="M4.86-2.531c0-1.672-.735-2.656-2.266-2.656-1.516 0-2.266.984-2.266 2.656C.328-.844 1.078.14 2.594.14c1.531 0 2.265-.985 2.265-2.672zm-3.298 0c0-1.047.25-1.64 1.032-1.64.797 0 1.047.593 1.047 1.64C3.64-1.47 3.39-.86 2.594-.86c-.781 0-1.031-.61-1.031-1.672zm0 0"/></symbol><symbol overflow="visible" id="f"><path d="M.328-2.531C.328-.844 1.078.14 2.594.14c1.297 0 2.094-.657 2.203-1.829H3.563c-.047.516-.376.829-.97.829-.78 0-1.03-.61-1.03-1.672 0-1.047.25-1.64 1.03-1.64.595 0 .923.296.97.812h1.234c-.11-1.172-.906-1.829-2.203-1.829-1.516 0-2.266.985-2.266 2.657zm0 0"/></symbol><symbol overflow="visible" id="g"><path d="M3.484-.547c0 .203.032.438.079.563h1.265c-.078-.172-.125-.438-.125-.704v-2.578c0-1.156-.687-1.921-2.11-1.921-1.312 0-2.015.656-2.093 1.656h1.234c.047-.422.344-.656.86-.656.61 0 .89.312.89.921v.875c-.187-.453-.718-.703-1.359-.703-1.11 0-1.813.594-1.813 1.625 0 1.032.704 1.61 1.813 1.61.719 0 1.203-.297 1.36-.688zm-.968-.219c-.641 0-.97-.234-.97-.703 0-.468.329-.703.97-.703.64 0 .968.235.968.703 0 .469-.343.703-.968.703zm0 0"/></symbol><symbol overflow="visible" id="h"><path d="M2.14-4.063h1.282v-1H2.14V-6.5H.906v1.438H.203v1h.703v2.656c0 1.125.516 1.5 1.766 1.5a9.9 9.9 0 0 0 .75-.032v-.968h-.5c-.61 0-.781-.14-.781-.719zm0 0"/></symbol><symbol overflow="visible" id="i"><path d="M4.86-2.156v-.375c0-1.672-.735-2.656-2.266-2.656-1.516 0-2.266.984-2.266 2.656C.328-.844 1.078.14 2.594.14c1.219 0 2-.594 2.172-1.672h-1.25c-.079.437-.422.687-.922.687-.672 0-1-.469-1.031-1.312zM2.593-4.203c.656 0 .969.437 1.031 1.172H1.594c.031-.735.343-1.172 1-1.172zm0 0"/></symbol><symbol overflow="visible" id="k"><path d="M.125-5.969h1.89V.016h1.282V-5.97h1.89v-1.125H.125zm0 0"/></symbol><symbol overflow="visible" id="l"><path d="M.516-5.938H1.75v-1.156H.516zm0 5.954H1.75v-5.079H.516zm0 0"/></symbol><symbol overflow="visible" id="m"><path d="M4.719-2.828c0-.875.406-1.344 1.047-1.344.484 0 .75.297.75.938v3.25h1.218v-3.204c0-1.28-.593-2-1.64-2-.672 0-1.219.297-1.516 1.016-.234-.656-.766-1.016-1.5-1.016-.719 0-1.187.391-1.375.985v-.86H.484V.016h1.22v-2.844c0-.875.405-1.344 1.046-1.344.5 0 .75.297.75.938v3.25h1.219zm0 0"/></symbol><symbol overflow="visible" id="n"><path d="M4.531-3.547c0 1.906-.437 2.438-1.515 2.438H1.859v-4.86h1.157c1.078 0 1.515.547 1.515 2.422zm1.297 0c0-1.781-.39-3.547-2.703-3.547H.562v7.11h2.563c2.297 0 2.703-1.72 2.703-3.563zm0 0"/></symbol><symbol overflow="visible" id="o"><path d="M.469-1.86c0 1.298.594 2 1.687 2 .703 0 1.219-.39 1.406-.984v.86h1.22v-5.079h-1.22v2.844c0 .875-.453 1.36-1.093 1.36-.5 0-.781-.329-.781-1.016v-3.188H.468zm0 0"/></symbol><symbol overflow="visible" id="p"><path d="M3-4.156c.172 0 .344.015.422.031l.015-1.016a1.487 1.487 0 0 0-.39-.046c-.766 0-1.172.343-1.344 1.03v-.905H.484V.016h1.22v-2.61c0-1.031.468-1.562 1.296-1.562zm0 0"/></symbol><symbol overflow="visible" id="q"><path d="M4.797-3.188c0-1.296-.594-2-1.672-2-.719 0-1.234.391-1.422.985v-.86H.484V.016h1.22v-2.844c0-.875.452-1.344 1.093-1.344.5 0 .781.313.781 1V.016h1.219zm0 0"/></symbol><symbol overflow="visible" id="r"><path d="M3.375-6.172v-.953a4.978 4.978 0 0 0-.703-.047c-1.203 0-1.719.438-1.719 1.563v.546H.234v1h.72V.016h1.218v-4.079h1.203v-1H2.172v-.484c0-.453.156-.625.687-.625zm0 0"/></symbol><symbol overflow="visible" id="s"><path d="M3.64-2.531C3.64-1.47 3.39-.86 2.595-.86c-.781 0-1.031-.61-1.031-1.672 0-1.047.25-1.64 1.03-1.64.798 0 1.048.593 1.048 1.64zm1.22-2.531H3.64v.78c-.171-.546-.671-.905-1.359-.905-1.187 0-1.953.828-1.953 2.656C.328-.687 1.094.14 2.281.14c.688 0 1.188-.36 1.36-.907V.281c0 .766-.297 1.156-.938 1.156-.515 0-.828-.218-.875-.64H.578c.14.984.89 1.578 2.125 1.578 1.531 0 2.156-.969 2.156-2.188zm0 0"/></symbol><symbol overflow="visible" id="t"><path d="M3.64.016h1.22v-7.11H3.64v2.813c-.171-.547-.671-.907-1.359-.907-1.187 0-1.953.829-1.953 2.657C.328-.687 1.094.14 2.281.14c.688 0 1.188-.36 1.36-.907zM2.595-.86c-.781 0-1.031-.61-1.031-1.672 0-1.047.25-1.64 1.03-1.64.798 0 1.048.593 1.048 1.64C3.64-1.47 3.39-.86 2.594-.86zm0 0"/></symbol><symbol overflow="visible" id="u"><path d="M5.344-2c0-1.156-.672-1.844-1.844-2.094l-.828-.172c-.672-.14-.985-.406-.985-.937s.36-.906 1.047-.906c.688 0 1.063.375 1.063.906v.094h1.281v-.094c0-1.094-.797-2.031-2.344-2.031-1.53 0-2.328.937-2.328 2.046 0 1.157.688 1.797 1.828 2.032l.844.172c.656.14.969.5.969 1.015 0 .594-.438 1-1.172 1s-1.188-.406-1.188-1v-.14H.407V-2c0 1.266.921 2.14 2.468 2.14C4.438.14 5.344-.75 5.344-2zm0 0"/></symbol><symbol overflow="visible" id="v"><path d="M1.703-5.063H.484v7.297h1.22v-3c.187.547.687.907 1.374.907 1.172 0 1.938-.829 1.938-2.672 0-1.828-.766-2.656-1.938-2.656-.687 0-1.187.359-1.375.906zM2.75-.859c-.781 0-1.047-.61-1.047-1.672 0-1.047.266-1.64 1.047-1.64.781 0 1.047.593 1.047 1.64C3.797-1.47 3.53-.86 2.75-.86zm0 0"/></symbol><symbol overflow="visible" id="w"><path d="M.484.016h1.22v-2.172h.437L3.5.016h1.344L3.14-2.625l1.484-2.438H3.312L2.157-3.109h-.453v-3.985H.484zm0 0"/></symbol><symbol overflow="visible" id="x"><path d="M.64-3.5c0 3.86.797 4.61 2.376 4.61V.046C2.25.047 1.875-.328 1.875-3.5s.375-3.531 1.14-3.531V-8.11C1.438-8.11.642-7.36.642-3.5zm0 0"/></symbol><symbol overflow="visible" id="y"><path d="M2.531-3.5c0-3.86-.797-4.61-2.36-4.61v1.079c.766 0 1.126.36 1.126 3.531C1.297-.328.937.047.172.047v1.062c1.562 0 2.36-.75 2.36-4.609zm0 0"/></symbol><symbol overflow="visible" id="z"><path d="M.36-1.438C.36-.53 1.11.141 2.374.141c1.25 0 2.031-.688 2.031-1.579 0-.906-.437-1.375-1.61-1.593l-.5-.078c-.483-.094-.687-.25-.687-.594 0-.297.22-.531.688-.531.469 0 .687.25.687.562v.094H4.22v-.094c0-.906-.719-1.515-1.922-1.515-1.203 0-1.922.656-1.922 1.53 0 .86.531 1.329 1.64 1.532l.5.094c.5.094.672.281.672.625 0 .36-.312.61-.812.61-.484 0-.797-.235-.797-.61v-.157H.36zm0 0"/></symbol><symbol overflow="visible" id="A"><path d="M3.344-2.563c1.406 0 2.25-.828 2.25-2.265 0-1.438-.844-2.266-2.25-2.266H.563v7.11h1.296v-2.579zM1.859-3.687V-5.97h1.313c.75 0 1.125.39 1.125 1.14 0 .735-.375 1.141-1.125 1.141zm0 0"/></symbol><symbol overflow="visible" id="B"><path d="M2.031-1.328H.703V.016h1.328zm0-3.734H.703v1.343h1.328zm0 0"/></symbol><symbol overflow="visible" id="C"><path d="M4.219.016h1.297v-7.11H4.219v2.907h-2.36v-2.907H.563v7.11h1.296v-3.079h2.36zm0 0"/></symbol><symbol overflow="visible" id="D"><path d="M1.781.688c-.156.437-.375.546-.672.546H.734v.985c.141.015.36.015.516.015.844 0 1.313-.234 1.672-1.296l2.125-6H3.766L2.594-1.47 1.39-5.062H.125L2 .03zm0 0"/></symbol><symbol overflow="visible" id="E"><path d="M.406-2.75h3.156v-1.078H.406zm0 0"/></symbol><symbol overflow="visible" id="F"><path d="M5.61-7.094H4.218L2.516-4.187h-.657v-2.907H.563v7.11h1.296v-3.079h.657L4.484.017h1.422L3.563-3.641zm0 0"/></symbol><symbol overflow="visible" id="G"><path d="M2.031-1.328H.703V.016h.656c0 .39-.218.609-.656.625v.593c.89-.03 1.328-.53 1.328-1.218zm0 0"/></symbol><symbol overflow="visible" id="H"><path d="M4.656.016L6.344-4.5V.016h1.265v-7.11H6.234L4.094-1.39 1.937-7.094H.563v7.11h1.266V-4.5L3.516.016zm0 0"/></symbol><symbol overflow="visible" id="I"><path d="M2.031-1.328H.703V.016h1.328zm0 0"/></symbol><symbol overflow="visible" id="J"><path d="M4.797-3.188c0-1.296-.594-2-1.672-2-.719 0-1.234.391-1.422.985v-2.89H.484V.015h1.22v-2.844c0-.875.452-1.344 1.093-1.344.5 0 .781.313.781 1V.016h1.219zm0 0"/></symbol><symbol overflow="visible" id="al"><path d="M3-3.938L1.469-7.094H.125l2.25 4.297V.016h1.281v-2.813l2.25-4.297h-1.36zm0 0"/></symbol><symbol overflow="visible" id="am"><path d="M5.36-7.094H4.093l-1.36 5.422-1.296-5.422H.125L1.938.016h1.484l1.297-5.157L6.016.016h1.5l1.796-7.11H8L6.703-1.672zm0 0"/></symbol><symbol overflow="visible" id="an"><path d="M3.453-5.063L2.391-1.374 1.359-5.063H.125L1.703.016H2.97L4.03-3.688 5.078.017h1.266l1.578-5.079H6.688L5.655-1.374 4.594-5.063zm0 0"/></symbol><symbol overflow="visible" id="ao"><path d="M2.438.14c1.437 0 2.265-.812 2.265-2.312v-4.922H3.422v4.735c0 1.015-.375 1.375-.985 1.375-.593 0-.953-.344-1-1.282H.157v.094c0 1.5.843 2.313 2.28 2.313zm0 0"/></symbol><symbol overflow="visible" id="ap"><path d="M3.906.016v-7.11H2.844l-1.75.797v1.188l1.562-.704V.016zm0 0"/></symbol><symbol overflow="visible" id="aq"><path d="M.422-2c0 1.313.953 2.14 2.312 2.14C4.094.14 5.031-.687 5.031-2c0-.922-.468-1.547-1.234-1.766.625-.218 1.031-.812 1.031-1.546 0-1.094-.766-1.922-2.094-1.922-1.328 0-2.093.828-2.093 1.921v.157h1.234v-.063c0-.578.344-.922.86-.922.5 0 .859.344.859.922 0 .61-.375.938-.89.938h-.688v1.047h.687c.64 0 1.078.421 1.078 1.171 0 .72-.437 1.141-1.047 1.141-.609 0-1.046-.422-1.046-1.14v-.079H.421zm0 0"/></symbol><symbol overflow="visible" id="ar"><path d="M5.11-3.547c0-1.578-.25-2.453-.75-3.031-.376-.422-.923-.656-1.61-.656-.703 0-1.25.234-1.625.656-.5.578-.75 1.453-.75 3.031 0 1.594.25 2.469.75 3.047.375.422.922.64 1.625.64.688 0 1.234-.218 1.61-.64.5-.578.75-1.453.75-3.047zm-1.25 0c0 1.281-.094 1.906-.344 2.25a.9.9 0 0 1-.766.375.9.9 0 0 1-.766-.375c-.265-.344-.359-.969-.359-2.25 0-1.265.094-1.875.36-2.234.187-.25.437-.36.765-.36s.578.11.766.36c.25.36.343.968.343 2.234zm0 0"/></symbol><symbol overflow="visible" id="as"><path d="M1.734-4.11C.875-4.11.47-3.452.47-2.561h1.125c0-.344.14-.5.375-.5.437 0 .656.562 1.5.562.86 0 1.265-.656 1.265-1.547H3.61c0 .36-.14.5-.375.5-.437 0-.64-.562-1.5-.562zm0 0"/></symbol><symbol overflow="visible" id="at"><path d="M4.922-5.078c0-1.172-.781-2.156-2.188-2.156-1.406 0-2.203.984-2.203 2.156v.234h1.25v-.218c0-.672.375-1.079.953-1.079.594 0 .938.407.938 1.079 0 .375-.125.671-.453 1.062L.64-.953v.969h4.375v-1.063H2.28L4.25-3.375c.516-.61.672-.984.672-1.703zm0 0"/></symbol><symbol overflow="visible" id="au"><path d="M2.781-3.531c.64 0 .985.453.985 1.297 0 .875-.375 1.312-.985 1.312-.562 0-.937-.344-1-1H.531C.61-.64 1.437.141 2.781.141c1.39 0 2.235-.875 2.235-2.36 0-1.594-.813-2.375-1.954-2.375-.468 0-.859.203-1.03.485l.093-1.922h2.516v-1.063H.953L.781-3.109H2a.888.888 0 0 1 .781-.422zm0 0"/></symbol><symbol overflow="visible" id="av"><path d="M.64-5.016h1.094v-2.078H.641zm0 0"/></symbol><symbol overflow="visible" id="aw"><path d="M4.484-7.953H3.266L0 .969h1.219zm0 0"/></symbol><symbol overflow="visible" id="ax"><path d="M.406-3.547c0 1 .11 1.969.625 2.703.438.625 1.125.985 2.14.985C4.814.14 5.798-.875 5.86-2.375H4.58c-.048.86-.548 1.39-1.407 1.39-.516 0-.875-.187-1.094-.53-.265-.407-.39-.938-.39-2.032 0-1.062.125-1.625.39-2 .219-.344.578-.547 1.094-.547.86 0 1.36.532 1.406 1.39H5.86c-.062-1.5-1.046-2.53-2.687-2.53-1.016 0-1.703.39-2.14 1C.515-5.5.405-4.531.405-3.547zm0 0"/></symbol><symbol overflow="visible" id="ay"><path d="M.563.016h4.296V-1.11h-3v-1.954h2.594v-1.124H1.86V-5.97h2.954v-1.125H.563zm0 0"/></symbol><symbol overflow="visible" id="az"><path d="M2.422-1.797L3.453.016h1.313l-1.594-2.61 1.484-2.469H3.344L2.422-3.39 1.5-5.062H.187l1.485 2.468L.094.016H1.39zm0 0"/></symbol><symbol overflow="visible" id="aA"><path d="M1.86-7.094H.561v7.11H1.86zm0 0"/></symbol><symbol overflow="visible" id="aB"><path d="M3.266.016L5.03-5.063H3.766L2.578-1.25 1.391-5.063H.125L1.891.016zm0 0"/></symbol><symbol overflow="visible" id="aC"><path d="M3.39.016c1.485 0 2.204-.704 2.204-2.047 0-.828-.453-1.469-1.219-1.656.625-.22 1.016-.735 1.016-1.485 0-1.281-.735-1.922-2.188-1.922H.563v7.11zm.907-2.11c0 .719-.375.985-1.172.985H1.859v-1.97h1.266c.797 0 1.172.267 1.172.985zm-.188-2.984c0 .672-.406.89-1.14.89h-1.11v-1.78h1.11c.734 0 1.14.202 1.14.89zm0 0"/></symbol><symbol overflow="visible" id="aD"><path d="M.406-3.547C.406-1.672.953.141 3.062.141 3.891.14 4.5-.266 4.75-.844l.172.86h.922v-3.75H3.219v1.046h1.375C4.53-1.671 4.187-.984 3.172-.984c-1 0-1.485-.563-1.485-2.563s.5-2.547 1.485-2.547c.86 0 1.36.532 1.406 1.39H5.86c-.062-1.5-1.046-2.53-2.687-2.53C.906-7.234.406-5.375.406-3.547zm0 0"/></symbol><symbol overflow="visible" id="aE"><path d="M1.703-.766c.188.547.688.907 1.375.907 1.172 0 1.938-.829 1.938-2.672 0-1.828-.766-2.656-1.938-2.656-.687 0-1.187.359-1.375.906v-2.813H.484v7.11h1.22zM2.75-.859c-.781 0-1.047-.61-1.047-1.672 0-1.047.266-1.64 1.047-1.64.781 0 1.047.593 1.047 1.64C3.797-1.47 3.53-.86 2.75-.86zm0 0"/></symbol><symbol overflow="visible" id="aI"><path d="M.688.516c0 .484-.204.703-.625.703h-.376v.984c.126.016.376.031.532.031 1.11 0 1.687-.546 1.687-1.593v-5.704H.688zm0-6.454h1.218v-1.156H.688zm0 0"/></symbol><symbol overflow="visible" id="aJ"><path d="M3.64-4.281c-.171-.547-.671-.907-1.359-.907-1.187 0-1.953.829-1.953 2.657C.328-.687 1.094.14 2.281.14c.688 0 1.188-.36 1.36-.907v3h1.218v-7.296H3.641zM2.595-.86c-.781 0-1.031-.61-1.031-1.672 0-1.047.25-1.64 1.03-1.64.798 0 1.048.593 1.048 1.64C3.64-1.47 3.39-.86 2.594-.86zm0 0"/></symbol><symbol overflow="visible" id="aK"><path d="M.563.016h4.296V-1.11h-3v-5.985H.563zm0 0"/></symbol><symbol overflow="visible" id="aP"><path d="M1.563-2.484L3.155-5.22v2.735zm3.593 0h-.75v-4.61H3.031L.344-2.484v1.078h2.812V.016h1.25v-1.422h.75zm0 0"/></symbol><symbol overflow="visible" id="aQ"><path d="M.563.016h1.296V-2.97h2.594v-1.125H1.86v-1.875h2.907v-1.125H.562zm0 0"/></symbol><symbol overflow="visible" id="aR"><path d="M3.078-1.484l-1.672-5.61H.078l2.25 7.11h1.485l2.265-7.11H4.734zm0 0"/></symbol><symbol overflow="visible" id="aS"><path d="M5.938-3.547c0-.984-.125-1.953-.625-2.687-.454-.61-1.125-1-2.141-1s-1.703.39-2.14 1C.515-5.5.405-4.531.405-3.547c0 1 .11 1.969.625 2.703.438.625 1.125.985 2.14.985 1.017 0 1.688-.36 2.142-.985.5-.734.625-1.703.625-2.703zm-1.297 0c0 1.094-.11 1.625-.375 2.031-.235.344-.594.532-1.094.532-.516 0-.875-.188-1.094-.532-.265-.406-.39-.937-.39-2.03 0-1.063.125-1.626.39-2 .219-.345.578-.548 1.094-.548.5 0 .86.203 1.094.547.265.375.375.938.375 2zm0 0"/></symbol><symbol overflow="visible" id="aZ"><path d="M5.938-3.547c0-.984-.125-1.953-.625-2.687-.454-.61-1.125-1-2.141-1s-1.703.39-2.14 1C.515-5.5.405-4.531.405-3.547c0 1 .11 1.969.625 2.703.438.625 1.125.985 2.14.985.673 0 1.22-.172 1.626-.47l.797.673.656-.781-.781-.672c.375-.704.468-1.547.468-2.438zm-1.297 0c0 .735-.047 1.203-.157 1.563l-.78-.672-.657.781.828.734c-.188.11-.438.157-.703.157-.516 0-.875-.188-1.094-.532-.265-.406-.39-.937-.39-2.03 0-1.063.125-1.626.39-2 .219-.345.578-.548 1.094-.548.5 0 .86.203 1.094.547.265.375.375.938.375 2zm0 0"/></symbol><symbol overflow="visible" id="ba"><path d="M4.656-3.531A4.181 4.181 0 0 1 4.47-2.36L2.625-4.531c-.344-.39-.469-.688-.469-1 0-.39.235-.64.64-.64.423 0 .657.25.657.64v.218h1.235v-.265c0-1.016-.782-1.656-1.891-1.656-1.094 0-1.875.64-1.875 1.656 0 .578.203 1.047.703 1.625-.828.469-1.219 1.14-1.219 2C.406-.687 1.312.14 2.75.14c.781 0 1.406-.203 1.86-.625l.437.5H6.53L5.36-1.344c.329-.578.5-1.328.532-2.187zM1.641-1.97c0-.468.187-.875.64-1.218l1.594 1.859c-.266.281-.656.406-1.094.406-.61 0-1.14-.328-1.14-1.047zm0 0"/></symbol><symbol overflow="visible" id="bb"><path d="M4.25-.61c0 .25.047.47.11.626h1.296a2.107 2.107 0 0 1-.125-.641l-.062-1c-.047-.938-.36-1.39-1.094-1.5.813-.25 1.219-.86 1.219-1.797 0-1.375-.766-2.172-2.235-2.172H.563v7.11h1.296v-2.579h1.204c.765 0 1.093.297 1.124 1.032zM1.86-3.687v-2.28h1.28c.72 0 1.157.296 1.157 1.14 0 .828-.438 1.14-1.156 1.14zm0 0"/></symbol><symbol overflow="visible" id="L"><path d="M.781-3.5c0 3.86.656 4.578 2.094 4.578V.422C1.922.422 1.5-.11 1.5-3.5c0-3.375.422-3.922 1.375-3.922v-.64C1.437-8.063.781-7.36.781-3.5zm0 0"/></symbol><symbol overflow="visible" id="M"><path d="M5.14-1.906c0-1.063-.609-1.719-1.812-1.969l-.89-.188C1.64-4.234 1.25-4.609 1.25-5.28 1.25-6 1.766-6.5 2.688-6.5c.921 0 1.437.5 1.437 1.219v.14h.766v-.14c0-1.032-.766-1.907-2.204-1.907-1.437 0-2.203.875-2.203 1.907 0 1.047.641 1.656 1.704 1.875l.89.187c.906.188 1.313.672 1.313 1.328 0 .766-.594 1.329-1.579 1.329-.984 0-1.562-.563-1.562-1.329v-.203H.484v.188C.484-.75 1.328.109 2.813.109c1.5 0 2.328-.859 2.328-2.015zm0 0"/></symbol><symbol overflow="visible" id="N"><path d="M3.797-1.5c-.094.578-.563.984-1.25.984-.969 0-1.39-.656-1.422-1.796h3.531v-.22c0-1.655-.687-2.64-2.125-2.64-1.437 0-2.125.984-2.125 2.64C.406-.858 1.094.11 2.546.11c1.142 0 1.829-.609 2-1.609zM1.14-2.875c.046-1.047.468-1.672 1.39-1.672.922 0 1.328.625 1.375 1.672zm0 0"/></symbol><symbol overflow="visible" id="O"><path d="M4.656-2.531c0-1.656-.687-2.64-2.125-2.64-1.437 0-2.125.984-2.125 2.64 0 1.672.688 2.64 2.125 2.64 1.438 0 2.125-.968 2.125-2.64zm-.718 0c0 1.265-.391 2.015-1.407 2.015-1.031 0-1.39-.75-1.39-2.015 0-1.25.359-2.016 1.39-2.016 1.016 0 1.406.766 1.406 2.016zm0 0"/></symbol><symbol overflow="visible" id="P"><path d="M.563-1.922C.563-.64 1.171.11 2.296.11 3.14.11 3.64-.297 3.89-.906v.89h.734v-5.03h-.734v2.593c0 1.234-.61 1.937-1.422 1.937-.781 0-1.172-.453-1.172-1.578v-2.953H.563zm0 0"/></symbol><symbol overflow="visible" id="Q"><path d="M1.36-.016v-7.046H.64v7.046zm0 0"/></symbol><symbol overflow="visible" id="S"><path d="M5.469-.016v-7.046h-.766v5.625L1.437-7.063H.672v7.046h.765V-5.64L4.704-.016zm0 0"/></symbol><symbol overflow="visible" id="T"><path d="M3.781-.547c0 .219.031.39.094.531h.75A2.16 2.16 0 0 1 4.5-.703v-2.594c0-1.14-.656-1.875-1.969-1.875-1.234 0-1.89.625-1.969 1.578h.75c.063-.578.438-.953 1.22-.953.827 0 1.25.484 1.25 1.25v.844c-.22-.406-.735-.64-1.5-.64C1.093-3.094.374-2.5.374-1.5c0 1.016.719 1.61 1.906 1.61.781 0 1.297-.235 1.5-.657zm0-.953c0 .625-.453.984-1.344.984-.89 0-1.343-.359-1.343-.984 0-.594.453-.969 1.343-.969.891 0 1.344.375 1.344.969zm0 0"/></symbol><symbol overflow="visible" id="U"><path d="M1.688-4.422h1.437v-.625H1.687v-1.437H.954v1.437H.234v.625h.72v3.078C.953-.266 1.437.063 2.53.063c.188 0 .406 0 .594-.016v-.61h-.484c-.657 0-.954-.171-.954-.89zm0 0"/></symbol><symbol overflow="visible" id="V"><path d="M1.36-.016v-5.03H.64v5.03zm0-6.062v-.984H.64v.984zm0 0"/></symbol><symbol overflow="visible" id="W"><path d="M4.64-3.14c0-1.282-.609-2.032-1.734-2.032-.844 0-1.36.406-1.594 1.016v-.89H.579v5.03h.735v-2.578c0-1.25.609-1.953 1.421-1.953.766 0 1.172.453 1.172 1.578v2.953h.735zm0 0"/></symbol><symbol overflow="visible" id="X"><path d="M3.125.11c1.719 0 2.484-1.094 2.484-2.735v-4.438h-.765v4.344c0 1.375-.485 2.156-1.719 2.156s-1.734-.78-1.734-2.156v-4.344H.64v4.438c0 1.64.765 2.734 2.484 2.734zm0 0"/></symbol><symbol overflow="visible" id="Y"><path d="M2.89-.016l1.891-5.03H4L2.469-.86.938-5.047H.155l1.89 5.031zm0 0"/></symbol><symbol overflow="visible" id="Z"><path d="M2.719-4.531c.156 0 .297 0 .39.015v-.609a1.22 1.22 0 0 0-.375-.047c-.78 0-1.234.375-1.421 1.016v-.89H.578v5.03h.735v-2.562c0-1.313.562-1.953 1.406-1.953zm0 0"/></symbol><symbol overflow="visible" id="aa"><path d="M2.219-5.172c-1.156 0-1.781.625-1.781 1.438 0 .765.437 1.187 1.5 1.406l.609.125c.656.14.922.36.922.844 0 .5-.469.859-1.172.859-.688 0-1.156-.344-1.156-.875v-.156H.406v.156c0 .875.75 1.484 1.89 1.484 1.173 0 1.907-.625 1.907-1.484 0-.844-.453-1.25-1.484-1.469l-.594-.125c-.688-.14-.969-.36-.969-.781 0-.438.39-.797 1.063-.797.687 0 1.062.36 1.062.797v.14h.735v-.124c0-.829-.657-1.438-1.797-1.438zm0 0"/></symbol><symbol overflow="visible" id="ab"><path d="M1.75.969c-.188.484-.422.594-.781.594h-.25v.609c.094.015.203.015.312.015.672 0 1.063-.171 1.375-1l2.375-6.234h-.765L2.484-.937.938-5.048H.155L2.11 0zm0 0"/></symbol><symbol overflow="visible" id="ac"><path d="M4.594-.016h.765v-7.046h-.765v3.093H1.437v-3.094H.672v7.047h.765V-3.28h3.157zm0 0"/></symbol><symbol overflow="visible" id="ad"><path d="M1.297-.797C1.53-.25 2.03.11 2.813.11c1.28 0 2.015-.89 2.015-2.64s-.734-2.64-2.016-2.64c-.78 0-1.28.359-1.515.921v-.797H.578v7.234h.719zm0-1.734c0-1.25.39-2.016 1.406-2.016s1.39.766 1.39 2.016c0 1.265-.374 2.015-1.39 2.015-1.015 0-1.406-.75-1.406-2.015zm0 0"/></symbol><symbol overflow="visible" id="ae"><path d="M.86 1.156c.609-.078.906-.39.906-1.047v-1.187H.937v1.062h.407v.172c0 .36-.172.547-.485.594zm0 0"/></symbol><symbol overflow="visible" id="af"><path d="M5.266-7.063h-.86L2.281-3.969h-.844v-3.094H.672v7.047h.765V-3.28h.844L4.687-.016h.891L2.875-3.625zm0 0"/></symbol><symbol overflow="visible" id="ag"><path d="M5.734-3.531c0-2.016-.562-3.656-2.625-3.656-2.046 0-2.64 1.64-2.64 3.656 0 2.031.594 3.64 2.64 3.64C5.156.11 5.734-1.5 5.734-3.53zm-.75 0c0 1.812-.421 2.953-1.875 2.953-1.453 0-1.859-1.125-1.859-2.953 0-1.828.422-2.969 1.86-2.969 1.437 0 1.874 1.156 1.874 2.969zm0 0"/></symbol><symbol overflow="visible" id="ah"><path d="M5.484-.016c-.109-.375-.14-1.03-.171-1.625-.079-.937-.407-1.359-1.125-1.5.859-.218 1.265-.875 1.265-1.828 0-1.312-.719-2.093-2.172-2.093H.671v7.046h.766v-2.78H3.11c1.422 0 1.407.608 1.5 2.155.016.266.047.454.11.625zM1.438-3.469v-2.906h1.75c.953 0 1.484.469 1.484 1.453 0 .969-.531 1.453-1.484 1.453zm0 0"/></symbol><symbol overflow="visible" id="ai"><path d="M.672-.016h4.047v-.671H1.437v-2.594h2.875v-.688H1.438v-2.406h3.22v-.688H.671zm0 0"/></symbol><symbol overflow="visible" id="aj"><path d="M2.516-7.063L.094-.016H.89l.546-1.671h3.016l.563 1.671h.796L3.392-7.062zm1.703 4.704H1.672L2.953-6.25zm0 0"/></symbol><symbol overflow="visible" id="ak"><path d="M2.297-3.5c0-3.86-.672-4.563-2.094-4.563v.641c.953 0 1.36.547 1.36 3.922C1.563-.11 1.155.422.202.422v.656c1.422 0 2.094-.719 2.094-4.578zm0 0"/></symbol><symbol overflow="visible" id="aF"><path d="M3.922.281c0 .906-.453 1.422-1.281 1.422-.688 0-1.141-.328-1.235-.89H.672c.11.921.812 1.515 1.969 1.515 1.39 0 2.015-.89 2.015-2.094v-5.28h-.734v.796c-.219-.563-.719-.922-1.5-.922-1.297 0-2.016.89-2.016 2.64S1.125.11 2.422.11c.781 0 1.281-.359 1.5-.906zm0-2.812c0 1.265-.375 2.015-1.39 2.015-1.032 0-1.407-.75-1.407-2.015 0-1.25.375-2.016 1.406-2.016 1.016 0 1.39.766 1.39 2.016zm0 0"/></symbol><symbol overflow="visible" id="aG"><path d="M1.313-.016v-2.312h.562L3.641-.016H4.5l-2-2.625 1.781-2.406h-.843L1.875-2.953h-.563v-4.11H.579v7.047zm0 0"/></symbol><symbol overflow="visible" id="aH"><path d="M3.516-5.047L2.203-.922.906-5.047h-.75l1.64 5.031h.798L3.89-4.125l1.312 4.11H6l1.656-5.032h-.765L5.594-.922 4.297-5.047zm0 0"/></symbol><symbol overflow="visible" id="aL"><path d="M.672-.016h4.047v-.671H1.437v-6.375H.672zm0 0"/></symbol><symbol overflow="visible" id="aM"><path d="M.672-.016h.765v-3.156h2.875v-.687H1.438v-2.516h3.188v-.688H.672zm0 0"/></symbol><symbol overflow="visible" id="aN"><path d="M4.422-2.594c0-1.281.562-1.953 1.312-1.953.688 0 1.063.422 1.063 1.25v3.281h.734V-3.28c0-1.203-.593-1.89-1.64-1.89-.844 0-1.36.421-1.61 1.077-.203-.703-.765-1.078-1.5-1.078-.75 0-1.25.375-1.469 1v-.875H.579v5.031h.735v-2.593c0-1.266.562-1.938 1.312-1.938.672 0 1.063.422 1.063 1.25v3.281h.734zm0 0"/></symbol><symbol overflow="visible" id="aO"><path d="M1.438-7.063H.671v7.047h.765zm0 0"/></symbol><symbol overflow="visible" id="aT"><path d="M.406-2.531c0 1.672.688 2.64 2.125 2.64 1.203 0 1.922-.625 2.047-1.734h-.734c-.094.688-.547 1.11-1.313 1.11-1.031 0-1.39-.75-1.39-2.016 0-1.25.359-2.016 1.39-2.016.766 0 1.219.422 1.313 1.125h.734c-.125-1.11-.844-1.75-2.047-1.75-1.437 0-2.125.984-2.125 2.64zm0 0"/></symbol><symbol overflow="visible" id="aU"><path d="M1.438-3.39v-2.985h1.765c.969 0 1.469.547 1.469 1.484 0 .938-.5 1.5-1.469 1.5zm1.843.687c1.39 0 2.172-.828 2.172-2.188 0-1.343-.781-2.171-2.172-2.171H.671v7.046h.766v-2.687zm0 0"/></symbol><symbol overflow="visible" id="aV"><path d="M3.938-4.25c-.22-.563-.735-.922-1.516-.922-1.281 0-2.016.89-2.016 2.64C.406-.765 1.141.11 2.422.11c.781 0 1.297-.359 1.515-.906v.781h.72v-7.046h-.72zm0 1.719c0 1.265-.391 2.015-1.407 2.015-1.031 0-1.39-.75-1.39-2.015 0-1.25.359-2.016 1.39-2.016 1.016 0 1.406.766 1.406 2.016zm0 0"/></symbol><symbol overflow="visible" id="aW"><path d="M3.11-6.516v-.578a3.526 3.526 0 0 0-.547-.047c-1.126 0-1.547.375-1.547 1.454v.64h-.72v.625h.72v4.406h.734v-4.406h1.36v-.625H1.75v-.594c0-.656.203-.875.89-.875zm0 0"/></symbol><symbol overflow="visible" id="aX"><path d="M3.39-.016l2.422-7.046h-.796L2.953-.984.891-7.063H.094L2.516-.016zm0 0"/></symbol><symbol overflow="visible" id="aY"><path d="M2.328-.563C1.453-.563 1-1.109.984-2.218H.22v.047C.219-.719.953.11 2.313.11c1.359 0 2.124-.828 2.124-2.28v-4.892h-.765v4.797c0 1.157-.5 1.704-1.344 1.704zm0 0"/></symbol><symbol overflow="visible" id="bc"><path d="M4.906-3.531c0 1.828-.453 2.844-1.89 2.844H1.437v-5.688h1.579c1.437 0 1.89 1.016 1.89 2.844zM3.078-.016c2.125 0 2.594-1.656 2.594-3.515 0-1.86-.469-3.531-2.594-3.531H.672v7.046zm0 0"/></symbol><symbol overflow="visible" id="bd"><path d="M3.11.11c1.562 0 2.453-.97 2.546-2.438h-.75C4.828-1.234 4.22-.578 3.11-.578c-1.406 0-1.859-1.094-1.859-2.953 0-1.813.39-2.969 1.86-2.969 1.109 0 1.718.672 1.796 1.75h.75c-.093-1.453-.984-2.438-2.547-2.438C1.063-7.188.47-5.546.47-3.53c0 2.031.594 3.64 2.64 3.64zm0 0"/></symbol><symbol overflow="visible" id="be"><path d="M1.438-3.984v-2.391H3.03c.985 0 1.453.375 1.453 1.203 0 .813-.468 1.188-1.453 1.188zM3.313-.016c1.421 0 2.14-.64 2.14-1.937 0-.922-.469-1.563-1.297-1.703.657-.156 1.094-.719 1.094-1.578 0-1.172-.688-1.829-2.047-1.829H.672v7.047zm1.359-1.968c0 .859-.422 1.296-1.531 1.296H1.437v-2.609h1.704c1.109 0 1.53.438 1.53 1.313zm0 0"/></symbol><symbol overflow="visible" id="bf"><path d="M.156-6.375h2.016v6.36h.765v-6.36h2.016v-.688H.156zm0 0"/></symbol><symbol overflow="visible" id="bg"><path d="M2.734-7.188c-1.03 0-1.75.61-1.75 1.641 0 .563.204 1.031.72 1.563C.874-3.47.468-2.75.468-1.922.469-.703 1.344.11 2.719.11c.875 0 1.547-.312 2.015-.828l.657.703h.921l-1.171-1.25c.343-.609.53-1.375.546-2.25h-.75c-.015.641-.109 1.204-.312 1.672L2.328-4.312c-.469-.516-.594-.829-.594-1.235 0-.625.391-.984 1-.984.625 0 1.016.36 1.016.984v.188h.75v-.22c0-1-.719-1.609-1.766-1.609zM2.72-.546c-.86 0-1.5-.515-1.5-1.375 0-.656.281-1.172.906-1.61L4.25-1.233c-.344.437-.86.687-1.531.687zm0 0"/></symbol><symbol overflow="visible" id="bh"><path d="M4.64-3.14c0-1.282-.609-2.032-1.734-2.032-.844 0-1.36.406-1.594 1.016v-2.907H.579v7.047h.735v-2.578c0-1.25.609-1.953 1.421-1.953.766 0 1.172.453 1.172 1.578v2.953h.735zm0 0"/></symbol><symbol overflow="visible" id="bi"><path d="M1.313-7.063H.578v7.047h.735v-.78c.218.546.718.905 1.5.905 1.296 0 2.015-.875 2.015-2.64 0-1.75-.719-2.64-2.016-2.64-.78 0-1.28.359-1.5.921zm0 4.532c0-1.25.375-2.016 1.406-2.016 1 0 1.39.766 1.39 2.016 0 1.265-.39 2.015-1.39 2.015-1.031 0-1.406-.75-1.406-2.015zm0 0"/></symbol><symbol overflow="visible" id="bj"><path d="M3.953-7.906h-.75L-.016.922H.72zm0 0"/></symbol></defs><g fill="#7b7979"><use xlink:href="#a" x="557.772" y="818.875"/><use xlink:href="#b" x="561.988" y="818.875"/></g><path d="M-419.867 58.543h978.433" fill="none" stroke="#2a3e92" stroke-width=".99962"/><g fill="#fff"><use xlink:href="#c" x="46.365" y="172.351"/><use xlink:href="#d" x="52.343" y="172.351"/><use xlink:href="#d" x="54.441" y="172.351"/><use xlink:href="#e" x="56.54" y="172.351"/><use xlink:href="#f" x="61.565" y="172.351"/><use xlink:href="#g" x="66.485" y="172.351"/><use xlink:href="#h" x="71.502" y="172.351"/><use xlink:href="#i" x="75.037" y="172.351"/><use xlink:href="#j" x="80.063" y="172.351"/><use xlink:href="#k" x="82.478" y="172.351"/><use xlink:href="#l" x="87.619" y="172.351"/><use xlink:href="#m" x="89.717" y="172.351"/><use xlink:href="#i" x="97.74" y="172.351"/></g><g fill="#fff"><use xlink:href="#n" x="112.102" y="167.348"/><use xlink:href="#o" x="118.159" y="167.348"/><use xlink:href="#p" x="123.256" y="167.348"/><use xlink:href="#g" x="126.641" y="167.348"/><use xlink:href="#h" x="131.658" y="167.348"/><use xlink:href="#l" x="135.193" y="167.348"/><use xlink:href="#e" x="137.292" y="167.348"/><use xlink:href="#q" x="142.317" y="167.348"/></g><g fill="#fff"><use xlink:href="#e" x="115.012" y="177.344"/><use xlink:href="#r" x="120.037" y="177.344"/><use xlink:href="#j" x="123.405" y="177.344"/><use xlink:href="#h" x="125.821" y="177.344"/><use xlink:href="#l" x="129.357" y="177.344"/><use xlink:href="#m" x="131.455" y="177.344"/><use xlink:href="#i" x="139.478" y="177.344"/></g><g fill="#fff"><use xlink:href="#c" x="245.913" y="172.342"/><use xlink:href="#s" x="251.891" y="172.342"/><use xlink:href="#i" x="257.066" y="172.342"/><use xlink:href="#q" x="262.092" y="172.342"/><use xlink:href="#t" x="267.188" y="172.342"/><use xlink:href="#g" x="272.363" y="172.342"/></g><g fill="#fff"><use xlink:href="#u" x="420.333" y="172.342"/><use xlink:href="#v" x="425.817" y="172.342"/><use xlink:href="#i" x="431.001" y="172.342"/><use xlink:href="#g" x="436.027" y="172.342"/><use xlink:href="#w" x="441.043" y="172.342"/><use xlink:href="#i" x="445.76" y="172.342"/><use xlink:href="#p" x="450.786" y="172.342"/><use xlink:href="#j" x="454.171" y="172.342"/><use xlink:href="#x" x="456.587" y="172.342"/><use xlink:href="#c" x="459.594" y="172.342"/><use xlink:href="#r" x="465.571" y="172.342"/><use xlink:href="#r" x="468.939" y="172.342"/><use xlink:href="#l" x="472.307" y="172.342"/><use xlink:href="#d" x="474.406" y="172.342"/><use xlink:href="#l" x="476.504" y="172.342"/><use xlink:href="#g" x="478.602" y="172.342"/><use xlink:href="#h" x="483.619" y="172.342"/><use xlink:href="#l" x="487.155" y="172.342"/><use xlink:href="#e" x="489.253" y="172.342"/><use xlink:href="#q" x="494.278" y="172.342"/><use xlink:href="#y" x="499.374" y="172.342"/></g><g fill="#231f20"><use xlink:href="#c" x="58.647" y="214.842"/><use xlink:href="#r" x="64.713" y="214.842"/><use xlink:href="#h" x="68.169" y="214.842"/><use xlink:href="#i" x="71.793" y="214.842"/><use xlink:href="#p" x="76.906" y="214.842"/><use xlink:href="#q" x="80.38" y="214.842"/><use xlink:href="#e" x="85.564" y="214.842"/><use xlink:href="#e" x="90.678" y="214.842"/><use xlink:href="#q" x="95.792" y="214.842"/><use xlink:href="#j" x="100.976" y="214.842"/><use xlink:href="#u" x="103.48" y="214.842"/><use xlink:href="#i" x="109.052" y="214.842"/><use xlink:href="#z" x="114.166" y="214.842"/><use xlink:href="#z" x="118.794" y="214.842"/><use xlink:href="#l" x="123.423" y="214.842"/><use xlink:href="#e" x="125.61" y="214.842"/><use xlink:href="#q" x="130.723" y="214.842"/></g><g fill="#231f20"><use xlink:href="#A" x="161.017" y="198.351"/><use xlink:href="#g" x="166.766" y="198.351"/><use xlink:href="#q" x="171.871" y="198.351"/><use xlink:href="#i" x="177.055" y="198.351"/><use xlink:href="#d" x="182.168" y="198.351"/><use xlink:href="#j" x="184.355" y="198.351"/><use xlink:href="#B" x="186.859" y="198.351"/></g><g fill="#231f20"><use xlink:href="#C" x="161.017" y="209.345"/><use xlink:href="#D" x="167.013" y="209.345"/><use xlink:href="#e" x="172.1" y="209.345"/><use xlink:href="#E" x="177.214" y="209.345"/><use xlink:href="#u" x="181.093" y="209.345"/><use xlink:href="#e" x="186.665" y="209.345"/><use xlink:href="#e" x="191.779" y="209.345"/><use xlink:href="#j" x="196.892" y="209.345"/><use xlink:href="#F" x="199.396" y="209.345"/><use xlink:href="#l" x="205.189" y="209.345"/><use xlink:href="#m" x="207.375" y="209.345"/><use xlink:href="#G" x="215.487" y="209.345"/><use xlink:href="#j" x="218.149" y="209.345"/><use xlink:href="#H" x="220.653" y="209.345"/><use xlink:href="#I" x="228.738" y="209.345"/><use xlink:href="#n" x="231.401" y="209.345"/><use xlink:href="#I" x="237.546" y="209.345"/><use xlink:href="#G" x="240.209" y="209.345"/><use xlink:href="#j" x="242.871" y="209.345"/><use xlink:href="#A" x="245.375" y="209.345"/><use xlink:href="#J" x="251.124" y="209.345"/><use xlink:href="#I" x="256.308" y="209.345"/><use xlink:href="#n" x="258.97" y="209.345"/><use xlink:href="#I" x="265.116" y="209.345"/></g><use xlink:href="#K" x="267.778" y="209.345" fill="#231f20"/><g fill="#231f20"><use xlink:href="#L" x="270.256" y="209.345"/><use xlink:href="#M" x="273.236" y="209.345"/><use xlink:href="#N" x="278.693" y="209.345"/><use xlink:href="#O" x="283.666" y="209.345"/><use xlink:href="#P" x="288.639" y="209.345"/><use xlink:href="#Q" x="293.752" y="209.345"/><use xlink:href="#R" x="295.657" y="209.345"/><use xlink:href="#S" x="298.134" y="209.345"/><use xlink:href="#T" x="304.191" y="209.345"/><use xlink:href="#U" x="309.155" y="209.345"/><use xlink:href="#V" x="312.514" y="209.345"/><use xlink:href="#O" x="314.418" y="209.345"/><use xlink:href="#W" x="319.391" y="209.345"/><use xlink:href="#T" x="324.505" y="209.345"/><use xlink:href="#Q" x="329.469" y="209.345"/><use xlink:href="#R" x="331.373" y="209.345"/><use xlink:href="#X" x="333.85" y="209.345"/><use xlink:href="#W" x="340.004" y="209.345"/><use xlink:href="#V" x="345.118" y="209.345"/><use xlink:href="#Y" x="347.023" y="209.345"/><use xlink:href="#N" x="351.872" y="209.345"/><use xlink:href="#Z" x="356.844" y="209.345"/><use xlink:href="#aa" x="360.027" y="209.345"/><use xlink:href="#V" x="364.506" y="209.345"/><use xlink:href="#U" x="366.41" y="209.345"/><use xlink:href="#ab" x="369.769" y="209.345"/><use xlink:href="#R" x="374.627" y="209.345"/><use xlink:href="#ac" x="377.105" y="209.345"/><use xlink:href="#O" x="383.065" y="209.345"/><use xlink:href="#aa" x="388.038" y="209.345"/><use xlink:href="#ad" x="392.516" y="209.345"/><use xlink:href="#V" x="397.665" y="209.345"/><use xlink:href="#U" x="399.57" y="209.345"/><use xlink:href="#T" x="402.929" y="209.345"/><use xlink:href="#Q" x="407.893" y="209.345"/><use xlink:href="#ae" x="409.797" y="209.345"/><use xlink:href="#R" x="412.416" y="209.345"/><use xlink:href="#af" x="414.893" y="209.345"/><use xlink:href="#ag" x="420.36" y="209.345"/><use xlink:href="#ah" x="426.496" y="209.345"/><use xlink:href="#ai" x="432.341" y="209.345"/><use xlink:href="#aj" x="437.358" y="209.345"/><use xlink:href="#ak" x="443.186" y="209.345"/></g><g fill="#231f20"><use xlink:href="#al" x="161.017" y="220.338"/><use xlink:href="#e" x="166.96" y="220.338"/><use xlink:href="#e" x="172.073" y="220.338"/><use xlink:href="#E" x="177.187" y="220.338"/><use xlink:href="#am" x="181.066" y="220.338"/><use xlink:href="#e" x="190.421" y="220.338"/><use xlink:href="#e" x="195.535" y="220.338"/><use xlink:href="#w" x="200.648" y="220.338"/><use xlink:href="#j" x="205.453" y="220.338"/><use xlink:href="#F" x="207.957" y="220.338"/><use xlink:href="#an" x="213.75" y="220.338"/><use xlink:href="#e" x="221.711" y="220.338"/><use xlink:href="#q" x="226.825" y="220.338"/><use xlink:href="#G" x="232.009" y="220.338"/><use xlink:href="#j" x="234.672" y="220.338"/><use xlink:href="#A" x="237.176" y="220.338"/><use xlink:href="#J" x="242.924" y="220.338"/><use xlink:href="#I" x="248.108" y="220.338"/><use xlink:href="#n" x="250.771" y="220.338"/><use xlink:href="#I" x="256.916" y="220.338"/></g><use xlink:href="#K" x="259.579" y="220.338" fill="#231f20"/><g fill="#231f20"><use xlink:href="#L" x="262.056" y="220.338"/><use xlink:href="#M" x="265.036" y="220.338"/><use xlink:href="#N" x="270.494" y="220.338"/><use xlink:href="#O" x="275.466" y="220.338"/><use xlink:href="#P" x="280.439" y="220.338"/><use xlink:href="#Q" x="285.553" y="220.338"/><use xlink:href="#R" x="287.457" y="220.338"/><use xlink:href="#S" x="289.935" y="220.338"/><use xlink:href="#T" x="295.992" y="220.338"/><use xlink:href="#U" x="300.955" y="220.338"/><use xlink:href="#V" x="304.315" y="220.338"/><use xlink:href="#O" x="306.219" y="220.338"/><use xlink:href="#W" x="311.192" y="220.338"/><use xlink:href="#T" x="316.305" y="220.338"/><use xlink:href="#Q" x="321.269" y="220.338"/><use xlink:href="#R" x="323.173" y="220.338"/><use xlink:href="#X" x="325.651" y="220.338"/><use xlink:href="#W" x="331.805" y="220.338"/><use xlink:href="#V" x="336.919" y="220.338"/><use xlink:href="#Y" x="338.823" y="220.338"/><use xlink:href="#N" x="343.672" y="220.338"/><use xlink:href="#Z" x="348.645" y="220.338"/><use xlink:href="#aa" x="351.828" y="220.338"/><use xlink:href="#V" x="356.306" y="220.338"/><use xlink:href="#U" x="358.211" y="220.338"/><use xlink:href="#ab" x="361.57" y="220.338"/><use xlink:href="#R" x="366.428" y="220.338"/><use xlink:href="#ac" x="368.905" y="220.338"/><use xlink:href="#O" x="374.866" y="220.338"/><use xlink:href="#aa" x="379.838" y="220.338"/><use xlink:href="#ad" x="384.317" y="220.338"/><use xlink:href="#V" x="389.466" y="220.338"/><use xlink:href="#U" x="391.37" y="220.338"/><use xlink:href="#T" x="394.729" y="220.338"/><use xlink:href="#Q" x="399.693" y="220.338"/><use xlink:href="#ae" x="401.598" y="220.338"/><use xlink:href="#R" x="404.216" y="220.338"/><use xlink:href="#af" x="406.694" y="220.338"/><use xlink:href="#ag" x="412.16" y="220.338"/><use xlink:href="#ah" x="418.296" y="220.338"/><use xlink:href="#ai" x="424.142" y="220.338"/><use xlink:href="#aj" x="429.159" y="220.338"/><use xlink:href="#ak" x="434.986" y="220.338"/></g><g fill="#231f20"><use xlink:href="#C" x="161.017" y="231.332"/><use xlink:href="#D" x="167.013" y="231.332"/><use xlink:href="#o" x="172.1" y="231.332"/><use xlink:href="#q" x="177.284" y="231.332"/><use xlink:href="#E" x="182.468" y="231.332"/><use xlink:href="#n" x="186.348" y="231.332"/><use xlink:href="#o" x="192.493" y="231.332"/><use xlink:href="#w" x="197.677" y="231.332"/><use xlink:href="#j" x="202.482" y="231.332"/><use xlink:href="#ao" x="204.986" y="231.332"/><use xlink:href="#g" x="210.144" y="231.332"/><use xlink:href="#q" x="215.249" y="231.332"/><use xlink:href="#s" x="220.433" y="231.332"/><use xlink:href="#G" x="225.696" y="231.332"/><use xlink:href="#j" x="228.359" y="231.332"/><use xlink:href="#A" x="230.863" y="231.332"/><use xlink:href="#J" x="236.611" y="231.332"/><use xlink:href="#I" x="241.796" y="231.332"/><use xlink:href="#n" x="244.458" y="231.332"/><use xlink:href="#I" x="250.603" y="231.332"/><use xlink:href="#j" x="253.266" y="231.332"/></g><g fill="#231f20"><use xlink:href="#L" x="255.77" y="231.332"/><use xlink:href="#M" x="258.75" y="231.332"/><use xlink:href="#N" x="264.208" y="231.332"/><use xlink:href="#O" x="269.18" y="231.332"/><use xlink:href="#P" x="274.153" y="231.332"/><use xlink:href="#Q" x="279.266" y="231.332"/><use xlink:href="#R" x="281.171" y="231.332"/><use xlink:href="#S" x="283.648" y="231.332"/><use xlink:href="#T" x="289.705" y="231.332"/><use xlink:href="#U" x="294.669" y="231.332"/><use xlink:href="#V" x="298.028" y="231.332"/><use xlink:href="#O" x="299.933" y="231.332"/><use xlink:href="#W" x="304.905" y="231.332"/><use xlink:href="#T" x="310.019" y="231.332"/><use xlink:href="#Q" x="314.983" y="231.332"/><use xlink:href="#R" x="316.887" y="231.332"/><use xlink:href="#X" x="319.365" y="231.332"/><use xlink:href="#W" x="325.519" y="231.332"/><use xlink:href="#V" x="330.632" y="231.332"/><use xlink:href="#Y" x="332.537" y="231.332"/><use xlink:href="#N" x="337.386" y="231.332"/><use xlink:href="#Z" x="342.358" y="231.332"/><use xlink:href="#aa" x="345.541" y="231.332"/><use xlink:href="#V" x="350.02" y="231.332"/><use xlink:href="#U" x="351.925" y="231.332"/><use xlink:href="#ab" x="355.284" y="231.332"/><use xlink:href="#R" x="360.142" y="231.332"/><use xlink:href="#ac" x="362.619" y="231.332"/><use xlink:href="#O" x="368.579" y="231.332"/><use xlink:href="#aa" x="373.552" y="231.332"/><use xlink:href="#ad" x="378.031" y="231.332"/><use xlink:href="#V" x="383.18" y="231.332"/><use xlink:href="#U" x="385.084" y="231.332"/><use xlink:href="#T" x="388.443" y="231.332"/><use xlink:href="#Q" x="393.407" y="231.332"/><use xlink:href="#ae" x="395.311" y="231.332"/><use xlink:href="#R" x="397.93" y="231.332"/><use xlink:href="#af" x="400.407" y="231.332"/><use xlink:href="#ag" x="405.874" y="231.332"/><use xlink:href="#ah" x="412.01" y="231.332"/><use xlink:href="#ai" x="417.856" y="231.332"/><use xlink:href="#aj" x="422.872" y="231.332"/><use xlink:href="#ak" x="428.7" y="231.332"/></g><g fill="#231f20"><use xlink:href="#ap" x="47.732" y="278.591"/><use xlink:href="#aq" x="53.145" y="278.591"/><use xlink:href="#B" x="58.559" y="278.591"/><use xlink:href="#ar" x="61.221" y="278.591"/><use xlink:href="#ar" x="66.635" y="278.591"/><use xlink:href="#as" x="72.048" y="278.591"/><use xlink:href="#ap" x="77.171" y="278.591"/><use xlink:href="#aq" x="82.584" y="278.591"/><use xlink:href="#B" x="87.998" y="278.591"/><use xlink:href="#at" x="90.66" y="278.591"/><use xlink:href="#au" x="96.074" y="278.591"/></g><g fill="#231f20"><use xlink:href="#at" x="117.19" y="278.591"/><use xlink:href="#ar" x="122.603" y="278.591"/><use xlink:href="#av" x="128.017" y="278.591"/><use xlink:href="#aw" x="130.309" y="278.591"/><use xlink:href="#au" x="134.7" y="278.591"/><use xlink:href="#av" x="140.113" y="278.591"/></g><g fill="#231f20"><use xlink:href="#C" x="161.008" y="267.598"/><use xlink:href="#l" x="167.004" y="267.598"/><use xlink:href="#t" x="169.19" y="267.598"/><use xlink:href="#t" x="174.454" y="267.598"/><use xlink:href="#i" x="179.717" y="267.598"/><use xlink:href="#q" x="184.831" y="267.598"/><use xlink:href="#j" x="190.015" y="267.598"/><use xlink:href="#ax" x="192.519" y="267.598"/><use xlink:href="#J" x="198.656" y="267.598"/><use xlink:href="#g" x="203.84" y="267.598"/><use xlink:href="#m" x="208.945" y="267.598"/><use xlink:href="#v" x="217.056" y="267.598"/><use xlink:href="#l" x="222.328" y="267.598"/><use xlink:href="#e" x="224.515" y="267.598"/><use xlink:href="#q" x="229.629" y="267.598"/><use xlink:href="#z" x="234.813" y="267.598"/><use xlink:href="#B" x="239.442" y="267.598"/><use xlink:href="#j" x="242.104" y="267.598"/><use xlink:href="#k" x="244.608" y="267.598"/><use xlink:href="#J" x="249.836" y="267.598"/><use xlink:href="#i" x="255.021" y="267.598"/><use xlink:href="#j" x="260.134" y="267.598"/><use xlink:href="#ay" x="262.638" y="267.598"/><use xlink:href="#az" x="267.769" y="267.598"/><use xlink:href="#i" x="272.53" y="267.598"/><use xlink:href="#m" x="277.644" y="267.598"/><use xlink:href="#v" x="285.755" y="267.598"/><use xlink:href="#d" x="291.028" y="267.598"/><use xlink:href="#g" x="293.214" y="267.598"/><use xlink:href="#p" x="298.319" y="267.598"/><use xlink:href="#D" x="301.793" y="267.598"/></g><g fill="#231f20"><use xlink:href="#aA" x="161.008" y="278.591"/><use xlink:href="#q" x="163.345" y="278.591"/><use xlink:href="#q" x="168.529" y="278.591"/><use xlink:href="#e" x="173.713" y="278.591"/><use xlink:href="#aB" x="178.827" y="278.591"/><use xlink:href="#g" x="183.897" y="278.591"/><use xlink:href="#h" x="189.001" y="278.591"/><use xlink:href="#e" x="192.625" y="278.591"/><use xlink:href="#p" x="197.739" y="278.591"/><use xlink:href="#z" x="201.212" y="278.591"/><use xlink:href="#j" x="205.841" y="278.591"/><use xlink:href="#e" x="208.345" y="278.591"/><use xlink:href="#r" x="213.459" y="278.591"/><use xlink:href="#j" x="216.915" y="278.591"/><use xlink:href="#h" x="219.419" y="278.591"/><use xlink:href="#J" x="223.043" y="278.591"/><use xlink:href="#i" x="228.227" y="278.591"/><use xlink:href="#j" x="233.34" y="278.591"/><use xlink:href="#at" x="235.844" y="278.591"/><use xlink:href="#ap" x="241.258" y="278.591"/><use xlink:href="#z" x="246.671" y="278.591"/><use xlink:href="#h" x="251.3" y="278.591"/><use xlink:href="#j" x="254.924" y="278.591"/><use xlink:href="#ax" x="257.428" y="278.591"/><use xlink:href="#i" x="263.564" y="278.591"/><use xlink:href="#q" x="268.678" y="278.591"/><use xlink:href="#h" x="273.862" y="278.591"/><use xlink:href="#o" x="277.485" y="278.591"/><use xlink:href="#p" x="282.67" y="278.591"/><use xlink:href="#D" x="286.143" y="278.591"/></g><g fill="#231f20"><use xlink:href="#C" x="161.008" y="289.585"/><use xlink:href="#e" x="167.004" y="289.585"/><use xlink:href="#an" x="172.117" y="289.585"/><use xlink:href="#j" x="180.079" y="289.585"/><use xlink:href="#h" x="182.583" y="289.585"/><use xlink:href="#e" x="186.207" y="289.585"/><use xlink:href="#j" x="191.32" y="289.585"/><use xlink:href="#aC" x="193.824" y="289.585"/><use xlink:href="#i" x="199.643" y="289.585"/><use xlink:href="#j" x="204.757" y="289.585"/><use xlink:href="#u" x="207.261" y="289.585"/><use xlink:href="#o" x="212.833" y="289.585"/><use xlink:href="#f" x="218.017" y="289.585"/><use xlink:href="#f" x="223.025" y="289.585"/><use xlink:href="#i" x="228.033" y="289.585"/><use xlink:href="#z" x="233.146" y="289.585"/><use xlink:href="#z" x="237.775" y="289.585"/><use xlink:href="#r" x="242.404" y="289.585"/><use xlink:href="#o" x="245.86" y="289.585"/><use xlink:href="#d" x="251.044" y="289.585"/><use xlink:href="#j" x="253.231" y="289.585"/><use xlink:href="#l" x="255.735" y="289.585"/><use xlink:href="#q" x="257.921" y="289.585"/><use xlink:href="#j" x="263.105" y="289.585"/><use xlink:href="#aD" x="265.609" y="289.585"/><use xlink:href="#d" x="271.887" y="289.585"/><use xlink:href="#e" x="274.073" y="289.585"/><use xlink:href="#aE" x="279.187" y="289.585"/><use xlink:href="#g" x="284.459" y="289.585"/><use xlink:href="#d" x="289.564" y="289.585"/><use xlink:href="#l" x="291.751" y="289.585"/><use xlink:href="#g" x="293.937" y="289.585"/></g><g fill="#231f20"><use xlink:href="#A" x="379.441" y="273.095"/><use xlink:href="#l" x="385.19" y="273.095"/><use xlink:href="#d" x="387.376" y="273.095"/><use xlink:href="#E" x="389.563" y="273.095"/><use xlink:href="#C" x="393.442" y="273.095"/><use xlink:href="#an" x="399.438" y="273.095"/><use xlink:href="#g" x="407.399" y="273.095"/><use xlink:href="#j" x="412.504" y="273.095"/><use xlink:href="#al" x="415.008" y="273.095"/><use xlink:href="#e" x="420.95" y="273.095"/><use xlink:href="#e" x="426.064" y="273.095"/><use xlink:href="#G" x="431.178" y="273.095"/><use xlink:href="#j" x="433.84" y="273.095"/><use xlink:href="#A" x="436.344" y="273.095"/><use xlink:href="#p" x="442.093" y="273.095"/><use xlink:href="#e" x="445.566" y="273.095"/><use xlink:href="#r" x="450.68" y="273.095"/><use xlink:href="#i" x="454.136" y="273.095"/><use xlink:href="#z" x="459.25" y="273.095"/><use xlink:href="#z" x="463.879" y="273.095"/><use xlink:href="#e" x="468.507" y="273.095"/><use xlink:href="#p" x="473.621" y="273.095"/><use xlink:href="#j" x="477.095" y="273.095"/><use xlink:href="#ay" x="479.599" y="273.095"/><use xlink:href="#m" x="484.73" y="273.095"/><use xlink:href="#i" x="492.841" y="273.095"/><use xlink:href="#p" x="497.955" y="273.095"/><use xlink:href="#l" x="501.429" y="273.095"/><use xlink:href="#h" x="503.615" y="273.095"/><use xlink:href="#o" x="507.239" y="273.095"/><use xlink:href="#z" x="512.423" y="273.095"/></g><g fill="#231f20"><use xlink:href="#L" x="379.441" y="284.088"/><use xlink:href="#M" x="382.421" y="284.088"/><use xlink:href="#P" x="387.879" y="284.088"/><use xlink:href="#W" x="392.993" y="284.088"/><use xlink:href="#aF" x="398.106" y="284.088"/><use xlink:href="#aG" x="403.255" y="284.088"/><use xlink:href="#ab" x="407.716" y="284.088"/><use xlink:href="#P" x="412.574" y="284.088"/><use xlink:href="#W" x="417.688" y="284.088"/><use xlink:href="#aG" x="422.802" y="284.088"/><use xlink:href="#aH" x="427.263" y="284.088"/><use xlink:href="#T" x="434.986" y="284.088"/><use xlink:href="#W" x="439.95" y="284.088"/><use xlink:href="#R" x="445.064" y="284.088"/><use xlink:href="#X" x="447.541" y="284.088"/><use xlink:href="#W" x="453.695" y="284.088"/><use xlink:href="#V" x="458.809" y="284.088"/><use xlink:href="#Y" x="460.713" y="284.088"/><use xlink:href="#N" x="465.563" y="284.088"/><use xlink:href="#Z" x="470.535" y="284.088"/><use xlink:href="#aa" x="473.718" y="284.088"/><use xlink:href="#V" x="478.197" y="284.088"/><use xlink:href="#U" x="480.101" y="284.088"/><use xlink:href="#ab" x="483.46" y="284.088"/><use xlink:href="#ae" x="488.318" y="284.088"/><use xlink:href="#R" x="490.937" y="284.088"/><use xlink:href="#af" x="493.414" y="284.088"/><use xlink:href="#ag" x="498.881" y="284.088"/><use xlink:href="#ah" x="505.017" y="284.088"/><use xlink:href="#ai" x="510.863" y="284.088"/><use xlink:href="#aj" x="515.879" y="284.088"/><use xlink:href="#ak" x="521.707" y="284.088"/></g><g fill="#231f20"><use xlink:href="#ap" x="47.723" y="349.431"/><use xlink:href="#aq" x="53.137" y="349.431"/><use xlink:href="#B" x="58.55" y="349.431"/><use xlink:href="#at" x="61.213" y="349.431"/><use xlink:href="#au" x="66.626" y="349.431"/><use xlink:href="#as" x="72.04" y="349.431"/><use xlink:href="#ap" x="77.162" y="349.431"/><use xlink:href="#aq" x="82.575" y="349.431"/><use xlink:href="#B" x="87.989" y="349.431"/><use xlink:href="#au" x="90.651" y="349.431"/><use xlink:href="#ar" x="96.065" y="349.431"/></g><g fill="#231f20"><use xlink:href="#at" x="117.181" y="349.431"/><use xlink:href="#ar" x="122.594" y="349.431"/><use xlink:href="#av" x="128.008" y="349.431"/><use xlink:href="#aw" x="130.3" y="349.431"/><use xlink:href="#au" x="134.691" y="349.431"/><use xlink:href="#av" x="140.104" y="349.431"/></g><g fill="#231f20"><use xlink:href="#H" x="161" y="343.934"/><use xlink:href="#g" x="169.085" y="343.934"/><use xlink:href="#aI" x="174.189" y="343.934"/><use xlink:href="#e" x="176.543" y="343.934"/><use xlink:href="#p" x="181.657" y="343.934"/><use xlink:href="#j" x="185.131" y="343.934"/><use xlink:href="#A" x="187.635" y="343.934"/><use xlink:href="#e" x="193.383" y="343.934"/><use xlink:href="#l" x="198.497" y="343.934"/><use xlink:href="#q" x="200.683" y="343.934"/><use xlink:href="#h" x="205.868" y="343.934"/><use xlink:href="#z" x="209.491" y="343.934"/><use xlink:href="#j" x="214.12" y="343.934"/><use xlink:href="#l" x="216.624" y="343.934"/><use xlink:href="#q" x="218.811" y="343.934"/><use xlink:href="#j" x="223.995" y="343.934"/><use xlink:href="#ax" x="226.499" y="343.934"/><use xlink:href="#e" x="232.635" y="343.934"/><use xlink:href="#q" x="237.749" y="343.934"/><use xlink:href="#h" x="242.933" y="343.934"/><use xlink:href="#p" x="246.557" y="343.934"/><use xlink:href="#g" x="250.03" y="343.934"/><use xlink:href="#f" x="255.135" y="343.934"/><use xlink:href="#h" x="260.143" y="343.934"/><use xlink:href="#z" x="263.767" y="343.934"/><use xlink:href="#j" x="268.395" y="343.934"/><use xlink:href="#g" x="270.899" y="343.934"/><use xlink:href="#q" x="276.004" y="343.934"/><use xlink:href="#t" x="281.188" y="343.934"/></g><g fill="#231f20"><use xlink:href="#ax" x="161" y="354.928"/><use xlink:href="#e" x="167.136" y="354.928"/><use xlink:href="#m" x="172.25" y="354.928"/><use xlink:href="#v" x="180.361" y="354.928"/><use xlink:href="#d" x="185.633" y="354.928"/><use xlink:href="#l" x="187.82" y="354.928"/><use xlink:href="#g" x="190.006" y="354.928"/><use xlink:href="#q" x="195.111" y="354.928"/><use xlink:href="#f" x="200.296" y="354.928"/><use xlink:href="#i" x="205.303" y="354.928"/><use xlink:href="#j" x="210.417" y="354.928"/><use xlink:href="#r" x="212.921" y="354.928"/><use xlink:href="#e" x="216.377" y="354.928"/><use xlink:href="#p" x="221.491" y="354.928"/><use xlink:href="#j" x="224.965" y="354.928"/><use xlink:href="#h" x="227.469" y="354.928"/><use xlink:href="#J" x="231.092" y="354.928"/><use xlink:href="#i" x="236.276" y="354.928"/><use xlink:href="#j" x="241.39" y="354.928"/><use xlink:href="#aD" x="243.894" y="354.928"/><use xlink:href="#d" x="250.171" y="354.928"/><use xlink:href="#e" x="252.358" y="354.928"/><use xlink:href="#aE" x="257.472" y="354.928"/><use xlink:href="#g" x="262.744" y="354.928"/><use xlink:href="#d" x="267.849" y="354.928"/><use xlink:href="#j" x="270.035" y="354.928"/><use xlink:href="#C" x="272.539" y="354.928"/><use xlink:href="#i" x="278.535" y="354.928"/><use xlink:href="#g" x="283.648" y="354.928"/><use xlink:href="#d" x="288.753" y="354.928"/><use xlink:href="#h" x="290.94" y="354.928"/><use xlink:href="#J" x="294.563" y="354.928"/><use xlink:href="#f" x="299.748" y="354.928"/><use xlink:href="#g" x="304.755" y="354.928"/><use xlink:href="#p" x="309.86" y="354.928"/><use xlink:href="#i" x="313.334" y="354.928"/><use xlink:href="#j" x="318.448" y="354.928"/><use xlink:href="#H" x="320.952" y="354.928"/><use xlink:href="#g" x="329.037" y="354.928"/><use xlink:href="#p" x="334.141" y="354.928"/><use xlink:href="#w" x="337.615" y="354.928"/><use xlink:href="#i" x="342.42" y="354.928"/><use xlink:href="#h" x="347.534" y="354.928"/></g><g fill="#231f20"><use xlink:href="#u" x="379.433" y="343.934"/><use xlink:href="#o" x="385.005" y="343.934"/><use xlink:href="#q" x="390.189" y="343.934"/><use xlink:href="#j" x="395.373" y="343.934"/><use xlink:href="#al" x="397.877" y="343.934"/><use xlink:href="#l" x="403.819" y="343.934"/><use xlink:href="#G" x="406.006" y="343.934"/><use xlink:href="#j" x="408.669" y="343.934"/><use xlink:href="#i" x="411.173" y="343.934"/><use xlink:href="#z" x="416.286" y="343.934"/><use xlink:href="#aJ" x="420.915" y="343.934"/><use xlink:href="#I" x="426.179" y="343.934"/><use xlink:href="#G" x="428.841" y="343.934"/><use xlink:href="#j" x="431.504" y="343.934"/><use xlink:href="#aK" x="434.008" y="343.934"/><use xlink:href="#aK" x="438.91" y="343.934"/><use xlink:href="#I" x="443.812" y="343.934"/><use xlink:href="#H" x="446.474" y="343.934"/></g><g fill="#231f20"><use xlink:href="#L" x="379.433" y="354.928"/><use xlink:href="#aL" x="382.413" y="354.928"/><use xlink:href="#T" x="387.182" y="354.928"/><use xlink:href="#aH" x="392.146" y="354.928"/><use xlink:href="#R" x="399.87" y="354.928"/><use xlink:href="#aM" x="402.347" y="354.928"/><use xlink:href="#V" x="407.17" y="354.928"/><use xlink:href="#Z" x="409.074" y="354.928"/><use xlink:href="#aN" x="412.257" y="354.928"/><use xlink:href="#R" x="420.263" y="354.928"/><use xlink:href="#aO" x="422.74" y="354.928"/><use xlink:href="#ad" x="424.777" y="354.928"/><use xlink:href="#ab" x="429.926" y="354.928"/><use xlink:href="#N" x="434.784" y="354.928"/><use xlink:href="#O" x="439.756" y="354.928"/><use xlink:href="#W" x="444.729" y="354.928"/><use xlink:href="#aF" x="449.842" y="354.928"/><use xlink:href="#ae" x="454.991" y="354.928"/><use xlink:href="#R" x="457.61" y="354.928"/><use xlink:href="#af" x="460.087" y="354.928"/><use xlink:href="#ag" x="465.554" y="354.928"/><use xlink:href="#ah" x="471.69" y="354.928"/><use xlink:href="#ai" x="477.536" y="354.928"/><use xlink:href="#aj" x="482.552" y="354.928"/><use xlink:href="#ak" x="488.38" y="354.928"/></g><g fill="#231f20"><use xlink:href="#ap" x="47.714" y="420.27"/><use xlink:href="#aq" x="53.128" y="420.27"/><use xlink:href="#B" x="58.541" y="420.27"/><use xlink:href="#au" x="61.204" y="420.27"/><use xlink:href="#ar" x="66.617" y="420.27"/><use xlink:href="#as" x="72.031" y="420.27"/><use xlink:href="#ap" x="77.153" y="420.27"/><use xlink:href="#aP" x="82.567" y="420.27"/><use xlink:href="#B" x="87.98" y="420.27"/><use xlink:href="#ap" x="90.643" y="420.27"/><use xlink:href="#au" x="96.056" y="420.27"/></g><g fill="#231f20"><use xlink:href="#at" x="117.172" y="420.27"/><use xlink:href="#ar" x="122.585" y="420.27"/><use xlink:href="#av" x="127.999" y="420.27"/><use xlink:href="#aw" x="130.291" y="420.27"/><use xlink:href="#au" x="134.682" y="420.27"/><use xlink:href="#av" x="140.095" y="420.27"/></g><g fill="#231f20"><use xlink:href="#c" x="160.991" y="403.779"/><use xlink:href="#q" x="167.057" y="403.779"/><use xlink:href="#g" x="172.241" y="403.779"/><use xlink:href="#d" x="177.346" y="403.779"/><use xlink:href="#D" x="179.532" y="403.779"/><use xlink:href="#z" x="184.62" y="403.779"/><use xlink:href="#l" x="189.248" y="403.779"/><use xlink:href="#z" x="191.435" y="403.779"/><use xlink:href="#j" x="196.064" y="403.779"/><use xlink:href="#e" x="198.567" y="403.779"/><use xlink:href="#r" x="203.681" y="403.779"/><use xlink:href="#j" x="207.137" y="403.779"/><use xlink:href="#h" x="209.641" y="403.779"/><use xlink:href="#J" x="213.265" y="403.779"/><use xlink:href="#i" x="218.449" y="403.779"/><use xlink:href="#j" x="223.563" y="403.779"/><use xlink:href="#aQ" x="226.067" y="403.779"/><use xlink:href="#g" x="230.986" y="403.779"/><use xlink:href="#f" x="236.091" y="403.779"/><use xlink:href="#h" x="241.099" y="403.779"/><use xlink:href="#e" x="244.723" y="403.779"/><use xlink:href="#p" x="249.836" y="403.779"/><use xlink:href="#z" x="253.31" y="403.779"/><use xlink:href="#j" x="257.939" y="403.779"/><use xlink:href="#e" x="260.443" y="403.779"/><use xlink:href="#r" x="265.557" y="403.779"/><use xlink:href="#j" x="269.013" y="403.779"/><use xlink:href="#ax" x="271.517" y="403.779"/><use xlink:href="#J" x="277.653" y="403.779"/><use xlink:href="#g" x="282.837" y="403.779"/><use xlink:href="#q" x="287.942" y="403.779"/><use xlink:href="#s" x="293.126" y="403.779"/><use xlink:href="#i" x="298.39" y="403.779"/><use xlink:href="#z" x="303.503" y="403.779"/><use xlink:href="#j" x="308.132" y="403.779"/><use xlink:href="#l" x="310.636" y="403.779"/><use xlink:href="#q" x="312.823" y="403.779"/></g><g fill="#231f20"><use xlink:href="#aC" x="160.991" y="414.773"/><use xlink:href="#l" x="166.81" y="414.773"/><use xlink:href="#e" x="168.996" y="414.773"/><use xlink:href="#E" x="174.11" y="414.773"/><use xlink:href="#aA" x="177.989" y="414.773"/><use xlink:href="#q" x="180.326" y="414.773"/><use xlink:href="#aB" x="185.51" y="414.773"/><use xlink:href="#i" x="190.58" y="414.773"/><use xlink:href="#z" x="195.693" y="414.773"/><use xlink:href="#h" x="200.322" y="414.773"/><use xlink:href="#m" x="203.946" y="414.773"/><use xlink:href="#i" x="212.057" y="414.773"/><use xlink:href="#q" x="217.171" y="414.773"/><use xlink:href="#h" x="222.355" y="414.773"/><use xlink:href="#j" x="225.978" y="414.773"/><use xlink:href="#ay" x="228.482" y="414.773"/><use xlink:href="#q" x="233.614" y="414.773"/><use xlink:href="#aB" x="238.798" y="414.773"/><use xlink:href="#l" x="243.868" y="414.773"/><use xlink:href="#p" x="246.054" y="414.773"/><use xlink:href="#e" x="249.528" y="414.773"/><use xlink:href="#q" x="254.641" y="414.773"/><use xlink:href="#m" x="259.826" y="414.773"/><use xlink:href="#i" x="267.937" y="414.773"/><use xlink:href="#q" x="273.051" y="414.773"/><use xlink:href="#h" x="278.235" y="414.773"/><use xlink:href="#j" x="281.859" y="414.773"/><use xlink:href="#g" x="284.362" y="414.773"/><use xlink:href="#q" x="289.467" y="414.773"/><use xlink:href="#t" x="294.652" y="414.773"/></g><g fill="#231f20"><use xlink:href="#ax" x="160.991" y="425.767"/><use xlink:href="#e" x="167.127" y="425.767"/><use xlink:href="#p" x="172.241" y="425.767"/><use xlink:href="#v" x="175.715" y="425.767"/><use xlink:href="#e" x="180.987" y="425.767"/><use xlink:href="#p" x="186.101" y="425.767"/><use xlink:href="#g" x="189.574" y="425.767"/><use xlink:href="#h" x="194.679" y="425.767"/><use xlink:href="#i" x="198.303" y="425.767"/><use xlink:href="#j" x="203.417" y="425.767"/><use xlink:href="#aR" x="205.921" y="425.767"/><use xlink:href="#g" x="211.986" y="425.767"/><use xlink:href="#d" x="217.091" y="425.767"/><use xlink:href="#o" x="219.278" y="425.767"/><use xlink:href="#i" x="224.462" y="425.767"/><use xlink:href="#j" x="229.576" y="425.767"/><use xlink:href="#l" x="232.08" y="425.767"/><use xlink:href="#q" x="234.266" y="425.767"/><use xlink:href="#j" x="239.45" y="425.767"/><use xlink:href="#at" x="241.954" y="425.767"/><use xlink:href="#ar" x="247.368" y="425.767"/><use xlink:href="#at" x="252.781" y="425.767"/><use xlink:href="#at" x="258.195" y="425.767"/></g><g fill="#231f20"><use xlink:href="#x" x="160.991" y="436.761"/><use xlink:href="#an" x="164.085" y="436.761"/><use xlink:href="#l" x="172.047" y="436.761"/><use xlink:href="#h" x="174.233" y="436.761"/><use xlink:href="#J" x="177.857" y="436.761"/><use xlink:href="#j" x="183.041" y="436.761"/><use xlink:href="#c" x="185.545" y="436.761"/><use xlink:href="#j" x="191.611" y="436.761"/><use xlink:href="#aQ" x="194.115" y="436.761"/><use xlink:href="#e" x="199.035" y="436.761"/><use xlink:href="#f" x="204.148" y="436.761"/><use xlink:href="#o" x="209.156" y="436.761"/><use xlink:href="#z" x="214.34" y="436.761"/><use xlink:href="#j" x="218.969" y="436.761"/><use xlink:href="#e" x="221.473" y="436.761"/><use xlink:href="#q" x="226.587" y="436.761"/><use xlink:href="#j" x="231.771" y="436.761"/><use xlink:href="#ax" x="234.275" y="436.761"/><use xlink:href="#i" x="240.411" y="436.761"/><use xlink:href="#d" x="245.525" y="436.761"/><use xlink:href="#d" x="247.712" y="436.761"/><use xlink:href="#j" x="249.898" y="436.761"/><use xlink:href="#aD" x="252.402" y="436.761"/><use xlink:href="#i" x="258.68" y="436.761"/><use xlink:href="#q" x="263.793" y="436.761"/><use xlink:href="#i" x="268.977" y="436.761"/><use xlink:href="#j" x="274.091" y="436.761"/><use xlink:href="#k" x="276.595" y="436.761"/><use xlink:href="#J" x="281.823" y="436.761"/><use xlink:href="#i" x="287.007" y="436.761"/><use xlink:href="#p" x="292.121" y="436.761"/><use xlink:href="#g" x="295.595" y="436.761"/><use xlink:href="#v" x="300.7" y="436.761"/><use xlink:href="#D" x="305.972" y="436.761"/><use xlink:href="#y" x="311.059" y="436.761"/></g><g fill="#231f20"><use xlink:href="#k" x="379.424" y="414.773"/><use xlink:href="#g" x="384.652" y="414.773"/><use xlink:href="#i" x="389.757" y="414.773"/><use xlink:href="#E" x="394.871" y="414.773"/><use xlink:href="#w" x="398.75" y="414.773"/><use xlink:href="#D" x="403.555" y="414.773"/><use xlink:href="#o" x="408.642" y="414.773"/><use xlink:href="#j" x="413.826" y="414.773"/><use xlink:href="#aK" x="416.33" y="414.773"/><use xlink:href="#i" x="421.232" y="414.773"/><use xlink:href="#i" x="426.346" y="414.773"/><use xlink:href="#G" x="431.46" y="414.773"/><use xlink:href="#j" x="434.122" y="414.773"/><use xlink:href="#ax" x="436.626" y="414.773"/><use xlink:href="#ay" x="442.763" y="414.773"/><use xlink:href="#aS" x="447.894" y="414.773"/></g><g fill="#231f20"><use xlink:href="#L" x="379.424" y="425.767"/><use xlink:href="#M" x="382.404" y="425.767"/><use xlink:href="#aT" x="387.861" y="425.767"/><use xlink:href="#T" x="392.737" y="425.767"/><use xlink:href="#Q" x="397.701" y="425.767"/><use xlink:href="#N" x="399.605" y="425.767"/><use xlink:href="#R" x="404.578" y="425.767"/><use xlink:href="#X" x="407.055" y="425.767"/><use xlink:href="#ad" x="413.209" y="425.767"/><use xlink:href="#R" x="418.358" y="425.767"/><use xlink:href="#aU" x="420.836" y="425.767"/><use xlink:href="#T" x="426.478" y="425.767"/><use xlink:href="#Z" x="431.442" y="425.767"/><use xlink:href="#U" x="434.625" y="425.767"/><use xlink:href="#W" x="437.984" y="425.767"/><use xlink:href="#N" x="443.098" y="425.767"/><use xlink:href="#Z" x="448.07" y="425.767"/><use xlink:href="#aa" x="451.253" y="425.767"/><use xlink:href="#R" x="455.732" y="425.767"/><use xlink:href="#aL" x="458.209" y="425.767"/><use xlink:href="#U" x="462.979" y="425.767"/><use xlink:href="#aV" x="466.338" y="425.767"/><use xlink:href="#ae" x="471.487" y="425.767"/><use xlink:href="#R" x="474.106" y="425.767"/><use xlink:href="#af" x="476.583" y="425.767"/><use xlink:href="#ag" x="482.05" y="425.767"/><use xlink:href="#ah" x="488.186" y="425.767"/><use xlink:href="#ai" x="494.032" y="425.767"/><use xlink:href="#aj" x="499.048" y="425.767"/><use xlink:href="#ak" x="504.876" y="425.767"/></g><g fill="#231f20"><use xlink:href="#ap" x="47.706" y="473.395"/><use xlink:href="#aP" x="53.119" y="473.395"/><use xlink:href="#B" x="58.532" y="473.395"/><use xlink:href="#ap" x="61.195" y="473.395"/><use xlink:href="#au" x="66.608" y="473.395"/><use xlink:href="#as" x="72.022" y="473.395"/><use xlink:href="#ap" x="77.144" y="473.395"/><use xlink:href="#aP" x="82.558" y="473.395"/><use xlink:href="#B" x="87.971" y="473.395"/><use xlink:href="#aq" x="90.634" y="473.395"/><use xlink:href="#ar" x="96.047" y="473.395"/></g><g fill="#231f20"><use xlink:href="#ap" x="123.211" y="473.395"/><use xlink:href="#au" x="128.625" y="473.395"/><use xlink:href="#av" x="134.038" y="473.395"/></g><g fill="#231f20"><use xlink:href="#ax" x="324.54" y="473.395"/><use xlink:href="#e" x="330.676" y="473.395"/><use xlink:href="#r" x="335.79" y="473.395"/><use xlink:href="#r" x="339.246" y="473.395"/><use xlink:href="#i" x="342.702" y="473.395"/><use xlink:href="#i" x="347.816" y="473.395"/><use xlink:href="#j" x="352.93" y="473.395"/><use xlink:href="#aC" x="355.434" y="473.395"/><use xlink:href="#p" x="361.253" y="473.395"/><use xlink:href="#i" x="364.726" y="473.395"/><use xlink:href="#g" x="369.84" y="473.395"/><use xlink:href="#w" x="374.945" y="473.395"/></g><g fill="#231f20"><use xlink:href="#ap" x="47.706" y="526.529"/><use xlink:href="#aP" x="53.119" y="526.529"/><use xlink:href="#B" x="58.532" y="526.529"/><use xlink:href="#aq" x="61.195" y="526.529"/><use xlink:href="#ar" x="66.608" y="526.529"/><use xlink:href="#as" x="72.022" y="526.529"/><use xlink:href="#ap" x="77.144" y="526.529"/><use xlink:href="#au" x="82.558" y="526.529"/><use xlink:href="#B" x="87.971" y="526.529"/><use xlink:href="#ar" x="90.634" y="526.529"/><use xlink:href="#ar" x="96.047" y="526.529"/></g><g fill="#231f20"><use xlink:href="#aq" x="123.211" y="526.529"/><use xlink:href="#ar" x="128.625" y="526.529"/><use xlink:href="#av" x="134.038" y="526.529"/></g><g fill="#231f20"><use xlink:href="#u" x="160.982" y="521.032"/><use xlink:href="#e" x="166.554" y="521.032"/><use xlink:href="#m" x="171.668" y="521.032"/><use xlink:href="#g" x="179.779" y="521.032"/><use xlink:href="#h" x="184.884" y="521.032"/><use xlink:href="#l" x="188.508" y="521.032"/><use xlink:href="#f" x="190.694" y="521.032"/><use xlink:href="#j" x="195.702" y="521.032"/><use xlink:href="#H" x="198.206" y="521.032"/><use xlink:href="#e" x="206.291" y="521.032"/><use xlink:href="#z" x="211.405" y="521.032"/><use xlink:href="#g" x="216.033" y="521.032"/><use xlink:href="#l" x="221.138" y="521.032"/><use xlink:href="#f" x="223.325" y="521.032"/><use xlink:href="#l" x="228.333" y="521.032"/><use xlink:href="#z" x="230.519" y="521.032"/><use xlink:href="#m" x="235.148" y="521.032"/><use xlink:href="#G" x="243.259" y="521.032"/><use xlink:href="#j" x="245.922" y="521.032"/><use xlink:href="#ax" x="248.426" y="521.032"/><use xlink:href="#d" x="254.562" y="521.032"/><use xlink:href="#e" x="256.749" y="521.032"/><use xlink:href="#q" x="261.862" y="521.032"/><use xlink:href="#g" x="267.047" y="521.032"/><use xlink:href="#d" x="272.151" y="521.032"/><use xlink:href="#j" x="274.338" y="521.032"/><use xlink:href="#C" x="276.842" y="521.032"/><use xlink:href="#i" x="282.837" y="521.032"/><use xlink:href="#m" x="287.951" y="521.032"/><use xlink:href="#g" x="296.062" y="521.032"/><use xlink:href="#h" x="301.167" y="521.032"/><use xlink:href="#e" x="304.791" y="521.032"/><use xlink:href="#v" x="309.904" y="521.032"/><use xlink:href="#e" x="315.177" y="521.032"/><use xlink:href="#l" x="320.29" y="521.032"/><use xlink:href="#i" x="322.477" y="521.032"/><use xlink:href="#z" x="327.591" y="521.032"/><use xlink:href="#l" x="332.219" y="521.032"/><use xlink:href="#z" x="334.406" y="521.032"/></g><g fill="#231f20"><use xlink:href="#g" x="160.982" y="532.026"/><use xlink:href="#q" x="166.087" y="532.026"/><use xlink:href="#t" x="171.271" y="532.026"/><use xlink:href="#j" x="176.535" y="532.026"/><use xlink:href="#ax" x="179.039" y="532.026"/><use xlink:href="#g" x="185.175" y="532.026"/><use xlink:href="#p" x="190.28" y="532.026"/><use xlink:href="#t" x="193.754" y="532.026"/><use xlink:href="#l" x="199.017" y="532.026"/><use xlink:href="#e" x="201.204" y="532.026"/><use xlink:href="#m" x="206.317" y="532.026"/><use xlink:href="#i" x="214.429" y="532.026"/><use xlink:href="#h" x="219.542" y="532.026"/><use xlink:href="#g" x="223.166" y="532.026"/><use xlink:href="#aE" x="228.271" y="532.026"/><use xlink:href="#e" x="233.543" y="532.026"/><use xlink:href="#d" x="238.657" y="532.026"/><use xlink:href="#l" x="240.843" y="532.026"/><use xlink:href="#f" x="243.03" y="532.026"/><use xlink:href="#j" x="248.038" y="532.026"/><use xlink:href="#n" x="250.542" y="532.026"/><use xlink:href="#l" x="256.687" y="532.026"/><use xlink:href="#z" x="258.873" y="532.026"/><use xlink:href="#i" x="263.502" y="532.026"/><use xlink:href="#g" x="268.616" y="532.026"/><use xlink:href="#z" x="273.721" y="532.026"/><use xlink:href="#i" x="278.349" y="532.026"/></g><g fill="#231f20"><use xlink:href="#F" x="379.415" y="521.032"/><use xlink:href="#i" x="385.207" y="521.032"/><use xlink:href="#q" x="390.321" y="521.032"/><use xlink:href="#q" x="395.505" y="521.032"/><use xlink:href="#i" x="400.69" y="521.032"/><use xlink:href="#h" x="405.803" y="521.032"/><use xlink:href="#J" x="409.427" y="521.032"/><use xlink:href="#j" x="414.611" y="521.032"/><use xlink:href="#am" x="417.115" y="521.032"/><use xlink:href="#g" x="426.469" y="521.032"/><use xlink:href="#d" x="431.574" y="521.032"/><use xlink:href="#z" x="433.761" y="521.032"/><use xlink:href="#J" x="438.39" y="521.032"/><use xlink:href="#G" x="443.574" y="521.032"/><use xlink:href="#j" x="446.236" y="521.032"/><use xlink:href="#A" x="448.74" y="521.032"/><use xlink:href="#J" x="454.489" y="521.032"/><use xlink:href="#I" x="459.673" y="521.032"/><use xlink:href="#n" x="462.336" y="521.032"/><use xlink:href="#I" x="468.481" y="521.032"/></g><g fill="#231f20"><use xlink:href="#L" x="379.415" y="532.026"/><use xlink:href="#X" x="382.395" y="532.026"/><use xlink:href="#W" x="388.549" y="532.026"/><use xlink:href="#V" x="393.663" y="532.026"/><use xlink:href="#Y" x="395.567" y="532.026"/><use xlink:href="#N" x="400.416" y="532.026"/><use xlink:href="#Z" x="405.389" y="532.026"/><use xlink:href="#aa" x="408.572" y="532.026"/><use xlink:href="#V" x="413.051" y="532.026"/><use xlink:href="#U" x="414.955" y="532.026"/><use xlink:href="#ab" x="418.314" y="532.026"/><use xlink:href="#R" x="423.172" y="532.026"/><use xlink:href="#O" x="425.65" y="532.026"/><use xlink:href="#aW" x="430.622" y="532.026"/><use xlink:href="#R" x="433.823" y="532.026"/><use xlink:href="#aX" x="436.3" y="532.026"/><use xlink:href="#V" x="442.128" y="532.026"/><use xlink:href="#Z" x="444.032" y="532.026"/><use xlink:href="#aF" x="447.215" y="532.026"/><use xlink:href="#V" x="452.364" y="532.026"/><use xlink:href="#W" x="454.268" y="532.026"/><use xlink:href="#V" x="459.382" y="532.026"/><use xlink:href="#T" x="461.286" y="532.026"/><use xlink:href="#ae" x="466.25" y="532.026"/><use xlink:href="#R" x="468.869" y="532.026"/><use xlink:href="#X" x="471.346" y="532.026"/><use xlink:href="#M" x="477.5" y="532.026"/><use xlink:href="#aj" x="482.958" y="532.026"/><use xlink:href="#ak" x="488.786" y="532.026"/></g><g fill="#231f20"><use xlink:href="#ap" x="47.697" y="597.368"/><use xlink:href="#au" x="53.11" y="597.368"/><use xlink:href="#B" x="58.524" y="597.368"/><use xlink:href="#ar" x="61.186" y="597.368"/><use xlink:href="#ar" x="66.6" y="597.368"/><use xlink:href="#as" x="72.013" y="597.368"/><use xlink:href="#ap" x="77.136" y="597.368"/><use xlink:href="#au" x="82.549" y="597.368"/><use xlink:href="#B" x="87.962" y="597.368"/><use xlink:href="#aq" x="90.625" y="597.368"/><use xlink:href="#ar" x="96.038" y="597.368"/></g><g fill="#231f20"><use xlink:href="#aq" x="123.203" y="597.368"/><use xlink:href="#ar" x="128.616" y="597.368"/><use xlink:href="#av" x="134.029" y="597.368"/></g><g fill="#231f20"><use xlink:href="#u" x="160.973" y="591.871"/><use xlink:href="#i" x="166.545" y="591.871"/><use xlink:href="#d" x="171.659" y="591.871"/><use xlink:href="#r" x="173.846" y="591.871"/><use xlink:href="#E" x="177.302" y="591.871"/><use xlink:href="#p" x="181.181" y="591.871"/><use xlink:href="#i" x="184.655" y="591.871"/><use xlink:href="#q" x="189.768" y="591.871"/><use xlink:href="#i" x="194.953" y="591.871"/><use xlink:href="#an" x="200.066" y="591.871"/><use xlink:href="#g" x="208.028" y="591.871"/><use xlink:href="#d" x="213.133" y="591.871"/><use xlink:href="#j" x="215.319" y="591.871"/><use xlink:href="#c" x="217.823" y="591.871"/><use xlink:href="#f" x="223.889" y="591.871"/><use xlink:href="#h" x="228.897" y="591.871"/><use xlink:href="#l" x="232.52" y="591.871"/><use xlink:href="#aB" x="234.707" y="591.871"/><use xlink:href="#l" x="239.777" y="591.871"/><use xlink:href="#h" x="241.963" y="591.871"/><use xlink:href="#D" x="245.587" y="591.871"/><use xlink:href="#j" x="250.674" y="591.871"/><use xlink:href="#e" x="253.178" y="591.871"/><use xlink:href="#r" x="258.292" y="591.871"/></g><g fill="#231f20"><use xlink:href="#C" x="160.973" y="602.865"/><use xlink:href="#i" x="166.969" y="602.865"/><use xlink:href="#m" x="172.082" y="602.865"/><use xlink:href="#g" x="180.194" y="602.865"/><use xlink:href="#h" x="185.298" y="602.865"/><use xlink:href="#e" x="188.922" y="602.865"/><use xlink:href="#v" x="194.036" y="602.865"/><use xlink:href="#e" x="199.308" y="602.865"/><use xlink:href="#l" x="204.422" y="602.865"/><use xlink:href="#i" x="206.608" y="602.865"/><use xlink:href="#h" x="211.722" y="602.865"/><use xlink:href="#l" x="215.346" y="602.865"/><use xlink:href="#f" x="217.532" y="602.865"/><use xlink:href="#j" x="222.54" y="602.865"/><use xlink:href="#u" x="225.044" y="602.865"/><use xlink:href="#h" x="230.616" y="602.865"/><use xlink:href="#i" x="234.24" y="602.865"/><use xlink:href="#m" x="239.353" y="602.865"/><use xlink:href="#j" x="247.465" y="602.865"/><use xlink:href="#ax" x="249.969" y="602.865"/><use xlink:href="#i" x="256.105" y="602.865"/><use xlink:href="#d" x="261.219" y="602.865"/><use xlink:href="#d" x="263.405" y="602.865"/><use xlink:href="#z" x="265.592" y="602.865"/></g><g fill="#231f20"><use xlink:href="#k" x="379.406" y="591.871"/><use xlink:href="#e" x="384.634" y="591.871"/><use xlink:href="#z" x="389.748" y="591.871"/><use xlink:href="#J" x="394.377" y="591.871"/><use xlink:href="#l" x="399.561" y="591.871"/><use xlink:href="#e" x="401.748" y="591.871"/><use xlink:href="#j" x="406.861" y="591.871"/><use xlink:href="#u" x="409.365" y="591.871"/><use xlink:href="#o" x="414.937" y="591.871"/><use xlink:href="#t" x="420.121" y="591.871"/><use xlink:href="#g" x="425.385" y="591.871"/><use xlink:href="#j" x="430.49" y="591.871"/><use xlink:href="#H" x="432.994" y="591.871"/><use xlink:href="#I" x="441.079" y="591.871"/><use xlink:href="#n" x="443.741" y="591.871"/><use xlink:href="#I" x="449.887" y="591.871"/><use xlink:href="#G" x="452.549" y="591.871"/><use xlink:href="#j" x="455.212" y="591.871"/><use xlink:href="#A" x="457.716" y="591.871"/><use xlink:href="#J" x="463.464" y="591.871"/><use xlink:href="#I" x="468.648" y="591.871"/><use xlink:href="#n" x="471.311" y="591.871"/><use xlink:href="#I" x="477.456" y="591.871"/></g><g fill="#231f20"><use xlink:href="#L" x="379.406" y="602.865"/><use xlink:href="#af" x="382.386" y="602.865"/><use xlink:href="#P" x="387.852" y="602.865"/><use xlink:href="#aN" x="392.966" y="602.865"/><use xlink:href="#T" x="400.972" y="602.865"/><use xlink:href="#aN" x="405.935" y="602.865"/><use xlink:href="#O" x="413.941" y="602.865"/><use xlink:href="#U" x="418.914" y="602.865"/><use xlink:href="#O" x="422.273" y="602.865"/><use xlink:href="#R" x="427.245" y="602.865"/><use xlink:href="#X" x="429.723" y="602.865"/><use xlink:href="#W" x="435.877" y="602.865"/><use xlink:href="#V" x="440.991" y="602.865"/><use xlink:href="#Y" x="442.895" y="602.865"/><use xlink:href="#N" x="447.744" y="602.865"/><use xlink:href="#Z" x="452.717" y="602.865"/><use xlink:href="#aa" x="455.9" y="602.865"/><use xlink:href="#V" x="460.378" y="602.865"/><use xlink:href="#U" x="462.283" y="602.865"/><use xlink:href="#ab" x="465.642" y="602.865"/><use xlink:href="#ae" x="470.5" y="602.865"/><use xlink:href="#R" x="473.118" y="602.865"/><use xlink:href="#aY" x="475.596" y="602.865"/><use xlink:href="#aj" x="480.577" y="602.865"/><use xlink:href="#aU" x="486.405" y="602.865"/><use xlink:href="#aj" x="492.048" y="602.865"/><use xlink:href="#S" x="497.876" y="602.865"/><use xlink:href="#ak" x="503.933" y="602.865"/></g><g fill="#231f20"><use xlink:href="#ap" x="47.688" y="650.493"/><use xlink:href="#au" x="53.101" y="650.493"/><use xlink:href="#B" x="58.515" y="650.493"/><use xlink:href="#aq" x="61.177" y="650.493"/><use xlink:href="#ar" x="66.591" y="650.493"/><use xlink:href="#as" x="72.004" y="650.493"/><use xlink:href="#ap" x="77.127" y="650.493"/><use xlink:href="#au" x="82.54" y="650.493"/><use xlink:href="#B" x="87.954" y="650.493"/><use xlink:href="#aq" x="90.616" y="650.493"/><use xlink:href="#au" x="96.03" y="650.493"/></g><g fill="#231f20"><use xlink:href="#au" x="125.901" y="650.493"/><use xlink:href="#av" x="131.314" y="650.493"/></g><g fill="#231f20"><use xlink:href="#aZ" x="311.535" y="650.493"/><use xlink:href="#o" x="317.848" y="650.493"/><use xlink:href="#i" x="323.032" y="650.493"/><use xlink:href="#z" x="328.146" y="650.493"/><use xlink:href="#h" x="332.775" y="650.493"/><use xlink:href="#l" x="336.398" y="650.493"/><use xlink:href="#e" x="338.585" y="650.493"/><use xlink:href="#q" x="343.699" y="650.493"/><use xlink:href="#j" x="348.883" y="650.493"/><use xlink:href="#ba" x="351.387" y="650.493"/><use xlink:href="#j" x="357.788" y="650.493"/><use xlink:href="#c" x="360.292" y="650.493"/><use xlink:href="#q" x="366.357" y="650.493"/><use xlink:href="#z" x="371.542" y="650.493"/><use xlink:href="#an" x="376.17" y="650.493"/><use xlink:href="#i" x="384.132" y="650.493"/><use xlink:href="#p" x="389.246" y="650.493"/></g><g fill="#231f20"><use xlink:href="#ap" x="47.688" y="703.627"/><use xlink:href="#au" x="53.101" y="703.627"/><use xlink:href="#B" x="58.515" y="703.627"/><use xlink:href="#aq" x="61.177" y="703.627"/><use xlink:href="#au" x="66.591" y="703.627"/><use xlink:href="#as" x="72.004" y="703.627"/><use xlink:href="#ap" x="77.127" y="703.627"/><use xlink:href="#au" x="82.54" y="703.627"/><use xlink:href="#B" x="87.954" y="703.627"/><use xlink:href="#aP" x="90.616" y="703.627"/><use xlink:href="#au" x="96.03" y="703.627"/></g><g fill="#231f20"><use xlink:href="#ap" x="123.194" y="703.627"/><use xlink:href="#ar" x="128.607" y="703.627"/><use xlink:href="#av" x="134.021" y="703.627"/></g><g fill="#231f20"><use xlink:href="#ax" x="160.964" y="703.627"/><use xlink:href="#d" x="167.101" y="703.627"/><use xlink:href="#e" x="169.287" y="703.627"/><use xlink:href="#z" x="174.401" y="703.627"/><use xlink:href="#l" x="179.03" y="703.627"/><use xlink:href="#q" x="181.216" y="703.627"/><use xlink:href="#s" x="186.4" y="703.627"/><use xlink:href="#j" x="191.664" y="703.627"/><use xlink:href="#bb" x="194.168" y="703.627"/><use xlink:href="#i" x="200.102" y="703.627"/><use xlink:href="#m" x="205.215" y="703.627"/><use xlink:href="#g" x="213.327" y="703.627"/><use xlink:href="#p" x="218.431" y="703.627"/><use xlink:href="#w" x="221.905" y="703.627"/><use xlink:href="#z" x="226.71" y="703.627"/></g><g fill="#231f20"><use xlink:href="#C" x="379.397" y="681.639"/><use xlink:href="#D" x="385.393" y="681.639"/><use xlink:href="#e" x="390.48" y="681.639"/><use xlink:href="#E" x="395.594" y="681.639"/><use xlink:href="#u" x="399.473" y="681.639"/><use xlink:href="#e" x="405.045" y="681.639"/><use xlink:href="#e" x="410.159" y="681.639"/><use xlink:href="#j" x="415.272" y="681.639"/><use xlink:href="#F" x="417.776" y="681.639"/><use xlink:href="#l" x="423.569" y="681.639"/><use xlink:href="#m" x="425.755" y="681.639"/><use xlink:href="#G" x="433.867" y="681.639"/><use xlink:href="#j" x="436.529" y="681.639"/><use xlink:href="#H" x="439.033" y="681.639"/><use xlink:href="#I" x="447.118" y="681.639"/><use xlink:href="#n" x="449.781" y="681.639"/><use xlink:href="#I" x="455.926" y="681.639"/><use xlink:href="#G" x="458.589" y="681.639"/><use xlink:href="#j" x="461.251" y="681.639"/><use xlink:href="#A" x="463.755" y="681.639"/><use xlink:href="#J" x="469.504" y="681.639"/><use xlink:href="#I" x="474.688" y="681.639"/><use xlink:href="#n" x="477.35" y="681.639"/><use xlink:href="#I" x="483.496" y="681.639"/></g><g fill="#231f20"><use xlink:href="#L" x="379.397" y="692.633"/><use xlink:href="#bc" x="382.377" y="692.633"/><use xlink:href="#V" x="388.452" y="692.633"/><use xlink:href="#Z" x="390.356" y="692.633"/><use xlink:href="#N" x="393.539" y="692.633"/><use xlink:href="#aT" x="398.512" y="692.633"/><use xlink:href="#U" x="403.387" y="692.633"/><use xlink:href="#O" x="406.747" y="692.633"/><use xlink:href="#Z" x="411.719" y="692.633"/><use xlink:href="#ae" x="414.902" y="692.633"/><use xlink:href="#R" x="417.521" y="692.633"/><use xlink:href="#M" x="419.998" y="692.633"/><use xlink:href="#U" x="425.456" y="692.633"/><use xlink:href="#Z" x="428.815" y="692.633"/><use xlink:href="#T" x="431.998" y="692.633"/><use xlink:href="#U" x="436.961" y="692.633"/><use xlink:href="#N" x="440.32" y="692.633"/><use xlink:href="#aF" x="445.293" y="692.633"/><use xlink:href="#V" x="450.442" y="692.633"/><use xlink:href="#aT" x="452.346" y="692.633"/><use xlink:href="#R" x="457.222" y="692.633"/><use xlink:href="#bd" x="459.699" y="692.633"/><use xlink:href="#N" x="465.721" y="692.633"/><use xlink:href="#W" x="470.694" y="692.633"/><use xlink:href="#U" x="475.808" y="692.633"/><use xlink:href="#N" x="479.167" y="692.633"/><use xlink:href="#Z" x="484.139" y="692.633"/><use xlink:href="#R" x="487.322" y="692.633"/><use xlink:href="#O" x="489.8" y="692.633"/><use xlink:href="#aW" x="494.772" y="692.633"/><use xlink:href="#R" x="497.973" y="692.633"/><use xlink:href="#bd" x="500.45" y="692.633"/><use xlink:href="#be" x="506.472" y="692.633"/><use xlink:href="#bf" x="512.203" y="692.633"/></g><g fill="#231f20"><use xlink:href="#L" x="379.397" y="703.627"/><use xlink:href="#bd" x="382.377" y="703.627"/><use xlink:href="#N" x="388.399" y="703.627"/><use xlink:href="#Q" x="393.372" y="703.627"/><use xlink:href="#Q" x="395.276" y="703.627"/><use xlink:href="#R" x="397.181" y="703.627"/><use xlink:href="#bg" x="399.658" y="703.627"/><use xlink:href="#R" x="405.847" y="703.627"/><use xlink:href="#be" x="408.325" y="703.627"/><use xlink:href="#V" x="414.056" y="703.627"/><use xlink:href="#O" x="415.96" y="703.627"/><use xlink:href="#R" x="420.933" y="703.627"/><use xlink:href="#bf" x="423.41" y="703.627"/><use xlink:href="#bh" x="428.427" y="703.627"/><use xlink:href="#N" x="433.54" y="703.627"/><use xlink:href="#Z" x="438.513" y="703.627"/><use xlink:href="#T" x="441.696" y="703.627"/><use xlink:href="#ad" x="446.66" y="703.627"/><use xlink:href="#ab" x="451.809" y="703.627"/><use xlink:href="#ak" x="456.667" y="703.627"/><use xlink:href="#R" x="459.647" y="703.627"/><use xlink:href="#aW" x="462.124" y="703.627"/><use xlink:href="#O" x="465.325" y="703.627"/><use xlink:href="#Z" x="470.297" y="703.627"/><use xlink:href="#R" x="473.48" y="703.627"/><use xlink:href="#ac" x="475.957" y="703.627"/><use xlink:href="#N" x="481.917" y="703.627"/><use xlink:href="#T" x="486.89" y="703.627"/><use xlink:href="#Z" x="491.854" y="703.627"/><use xlink:href="#U" x="495.037" y="703.627"/><use xlink:href="#ae" x="498.396" y="703.627"/><use xlink:href="#R" x="501.014" y="703.627"/><use xlink:href="#bc" x="503.492" y="703.627"/><use xlink:href="#V" x="509.567" y="703.627"/><use xlink:href="#T" x="511.471" y="703.627"/><use xlink:href="#bi" x="516.435" y="703.627"/><use xlink:href="#N" x="521.584" y="703.627"/><use xlink:href="#U" x="526.556" y="703.627"/><use xlink:href="#N" x="529.915" y="703.627"/><use xlink:href="#aa" x="534.888" y="703.627"/><use xlink:href="#ae" x="539.367" y="703.627"/></g><g fill="#231f20"><use xlink:href="#bg" x="379.397" y="714.621"/><use xlink:href="#R" x="385.587" y="714.621"/><use xlink:href="#bd" x="388.064" y="714.621"/><use xlink:href="#T" x="394.086" y="714.621"/><use xlink:href="#W" x="399.05" y="714.621"/><use xlink:href="#aT" x="404.163" y="714.621"/><use xlink:href="#N" x="409.039" y="714.621"/><use xlink:href="#Z" x="414.012" y="714.621"/><use xlink:href="#bj" x="417.194" y="714.621"/><use xlink:href="#R" x="421.038" y="714.621"/><use xlink:href="#M" x="423.516" y="714.621"/><use xlink:href="#N" x="428.973" y="714.621"/><use xlink:href="#O" x="433.946" y="714.621"/><use xlink:href="#P" x="438.919" y="714.621"/><use xlink:href="#Q" x="444.032" y="714.621"/><use xlink:href="#R" x="445.937" y="714.621"/><use xlink:href="#S" x="448.414" y="714.621"/><use xlink:href="#T" x="454.471" y="714.621"/><use xlink:href="#U" x="459.435" y="714.621"/><use xlink:href="#V" x="462.794" y="714.621"/><use xlink:href="#O" x="464.699" y="714.621"/><use xlink:href="#W" x="469.671" y="714.621"/><use xlink:href="#T" x="474.785" y="714.621"/><use xlink:href="#Q" x="479.749" y="714.621"/><use xlink:href="#R" x="481.653" y="714.621"/><use xlink:href="#X" x="484.13" y="714.621"/><use xlink:href="#W" x="490.285" y="714.621"/><use xlink:href="#V" x="495.398" y="714.621"/><use xlink:href="#Y" x="497.303" y="714.621"/><use xlink:href="#N" x="502.152" y="714.621"/><use xlink:href="#Z" x="507.124" y="714.621"/><use xlink:href="#aa" x="510.307" y="714.621"/><use xlink:href="#V" x="514.786" y="714.621"/><use xlink:href="#U" x="516.69" y="714.621"/><use xlink:href="#ab" x="520.05" y="714.621"/></g><use xlink:href="#R" x="524.995" y="714.621" fill="#231f20"/><g fill="#231f20"><use xlink:href="#ac" x="379.397" y="725.614"/><use xlink:href="#O" x="385.357" y="725.614"/><use xlink:href="#aa" x="390.33" y="725.614"/><use xlink:href="#ad" x="394.809" y="725.614"/><use xlink:href="#V" x="399.958" y="725.614"/><use xlink:href="#U" x="401.862" y="725.614"/><use xlink:href="#T" x="405.221" y="725.614"/><use xlink:href="#Q" x="410.185" y="725.614"/><use xlink:href="#ae" x="412.089" y="725.614"/><use xlink:href="#R" x="414.708" y="725.614"/><use xlink:href="#af" x="417.186" y="725.614"/><use xlink:href="#ag" x="422.652" y="725.614"/><use xlink:href="#ah" x="428.788" y="725.614"/><use xlink:href="#ai" x="434.634" y="725.614"/><use xlink:href="#aj" x="439.65" y="725.614"/><use xlink:href="#ak" x="445.478" y="725.614"/></g></svg>