<svg xmlns="http://www.w3.org/2000/svg" xmlns:xlink="http://www.w3.org/1999/xlink" width="793.033" height="1122.52" viewBox="0 0 594.7751 841.89" version="1.2"><defs><symbol overflow="visible" id="a"><path d="M1.594 0h1.5v-11.734h-1.5zm0 0"/></symbol><symbol overflow="visible" id="b"><path d="M1.469 0h1.453v-6.297c.89-.89 1.5-1.328 2.39-1.328 1.157 0 1.641.688 1.641 2.313V0h1.469v-5.5c0-2.234-.844-3.406-2.656-3.406-1.188 0-2.079.656-2.922 1.469h-.047l-.125-1.25H1.469zm0 0"/></symbol><symbol overflow="visible" id="c"><path d="M4.203.203c.531 0 1.11-.156 1.61-.312l-.297-1.094c-.282.11-.688.234-.985.234-1.015 0-1.343-.61-1.343-1.687V-7.5H5.53v-1.188H3.188v-2.437h-1.22l-.171 2.438-1.36.078V-7.5h1.297v4.813c0 1.75.625 2.89 2.47 2.89zm0 0"/></symbol><symbol overflow="visible" id="d"><path d="M1.469 0h1.453v-5.578c.578-1.5 1.484-2 2.203-2 .344 0 .563.031.844.14l.265-1.28c-.265-.141-.53-.188-.921-.188-.97 0-1.86.703-2.47 1.797h-.046l-.125-1.579H1.469zm0 0"/></symbol><symbol overflow="visible" id="e"><path d="M4.844.203c2.125 0 4.031-1.656 4.031-4.547 0-2.89-1.906-4.562-4.031-4.562S.812-7.234.812-4.344C.813-1.454 2.72.203 4.845.203zm0-1.219c-1.5 0-2.5-1.328-2.5-3.328 0-2 1-3.36 2.5-3.36 1.515 0 2.531 1.36 2.531 3.36 0 2-1.016 3.328-2.531 3.328zm0 0"/></symbol><symbol overflow="visible" id="f"><path d="M4.438.203c1.03 0 1.953-.562 2.64-1.234h.031L7.25 0h1.188v-12.734h-1.47v3.343l.095 1.5c-.782-.64-1.438-1.015-2.454-1.015-1.984 0-3.765 1.75-3.765 4.562C.844-1.437 2.25.203 4.438.203zm.312-1.219c-1.531 0-2.39-1.234-2.39-3.343 0-1.985 1.093-3.329 2.5-3.329.718 0 1.374.266 2.109.922v4.563c-.719.797-1.422 1.187-2.219 1.187zm0 0"/></symbol><symbol overflow="visible" id="g"><path d="M4 .203c1.203 0 2.063-.625 2.875-1.562h.047L7.047 0H8.25v-8.688H6.797v6.157c-.828 1.047-1.453 1.469-2.344 1.469-1.156 0-1.64-.688-1.64-2.297v-5.329H1.359v5.5C1.36-.967 2.172.204 4 .204zm0 0"/></symbol><symbol overflow="visible" id="h"><path d="M4.89.203A4.18 4.18 0 0 0 7.704-.89l-.625-.984c-.547.5-1.25.86-2.047.86-1.61 0-2.687-1.329-2.687-3.329s1.14-3.36 2.719-3.36c.703 0 1.218.329 1.734.798l.75-.985c-.625-.546-1.406-1.015-2.531-1.015C2.78-8.906.812-7.234.812-4.344c0 2.89 1.782 4.547 4.079 4.547zm0 0"/></symbol><symbol overflow="visible" id="i"><path d="M1.469 0h1.453v-8.688H1.469zm.734-10.484c.578 0 1.016-.391 1.016-.938 0-.594-.438-.953-1.016-.953-.578 0-1 .36-1 .953 0 .547.422.938 1 .938zm0 0"/></symbol><symbol overflow="visible" id="k"><path d="M5.703-12.656a3.966 3.966 0 0 0-1.469-.281c-1.718 0-2.515 1.093-2.515 2.859v1.39L.53-8.608V-7.5H1.72V0h1.453v-7.5h1.844v-1.188H3.172v-1.374c0-1.126.39-1.72 1.234-1.72.297 0 .657.079.969.235zm0 0"/></symbol><symbol overflow="visible" id="l"><path d="M1.469 0h1.453v-6.297c.89-.89 1.5-1.328 2.39-1.328 1.157 0 1.641.688 1.641 2.313V0h1.469v-5.5c0-2.234-.844-3.406-2.656-3.406-1.188 0-2.079.656-2.891 1.453l.047-1.797v-3.484H1.469zm0 0"/></symbol><symbol overflow="visible" id="m"><path d="M4.969.203c1.187 0 2.125-.39 2.89-.89l-.53-.954c-.641.422-1.329.688-2.173.688C3.5-.953 2.375-2.141 2.266-4h5.859a5.79 5.79 0 0 0 .063-.828c0-2.484-1.25-4.078-3.454-4.078-2.015 0-3.921 1.75-3.921 4.562C.813-1.469 2.671.203 4.968.203zM2.25-5.047C2.438-6.75 3.516-7.75 4.75-7.75c1.36 0 2.156.953 2.156 2.703zm0 0"/></symbol><symbol overflow="visible" id="n"><path d="M3.016.203c.375 0 .625-.047.843-.125l-.218-1.125c-.157.031-.22.031-.297.031-.219 0-.422-.171-.422-.609v-11.11H1.469v11C1.469-.5 1.922.204 3.016.204zm0 0"/></symbol><symbol overflow="visible" id="o"><path d="M4.406 4C7.094 4 8.781 2.61 8.781.984c0-1.421-1-2.062-3.015-2.062H4.062c-1.171 0-1.515-.375-1.515-.938 0-.484.234-.765.562-1.046.375.203.86.312 1.297.312 1.75 0 3.157-1.172 3.157-3.031 0-.75-.282-1.39-.704-1.782h1.782v-1.125H5.609a3.599 3.599 0 0 0-1.203-.218c-1.765 0-3.265 1.187-3.265 3.094 0 1.046.562 1.875 1.125 2.343v.063c-.438.312-.97.89-.97 1.61 0 .687.329 1.155.798 1.421v.078C1.28.22.797.922.797 1.656.797 3.172 2.266 4 4.407 4zm0-7.75c-1.015 0-1.86-.797-1.86-2.063 0-1.28.829-2.03 1.86-2.03 1.016 0 1.828.765 1.828 2.03 0 1.266-.843 2.063-1.828 2.063zm.203 6.766c-1.578 0-2.53-.61-2.53-1.547 0-.516.28-1.016.89-1.469.39.094.812.14 1.125.14h1.5C6.75.14 7.375.423 7.375 1.22c0 .906-1.11 1.797-2.766 1.797zm0 0"/></symbol><symbol overflow="visible" id="p"><path d="M1.61 3.75c1.734 0 2.624-1.313 3.234-3.031l3.281-9.406H6.703L5.156-3.86c-.25.765-.5 1.656-.734 2.437h-.078c-.282-.781-.578-1.687-.844-2.437L1.734-8.688H.204l3.5 8.704L3.5.672c-.344 1.078-.969 1.875-1.969 1.875-.218 0-.468-.078-.656-.14L.594 3.561c.265.126.61.188 1.015.188zm0 0"/></symbol><symbol overflow="visible" id="q"><path d="M4.047 0H5.53v-10.484h3.563v-1.25H.5v1.25h3.547zm0 0"/></symbol><symbol overflow="visible" id="r"><path d="M1.594 0h1.5v-5.531h5.469V0h1.468v-11.734H8.562v4.921H3.095v-4.921h-1.5zm0 0"/></symbol><symbol overflow="visible" id="s"><path d="M1.594 0h6.953v-1.266H3.094V-5.53H7.53v-1.266H3.094v-3.687h5.281v-1.25H1.594zm0 0"/></symbol><symbol overflow="visible" id="t"><path d="M1.594 0h3.015c3.532 0 5.47-2.188 5.47-5.906 0-3.719-1.938-5.828-5.532-5.828H1.594zm1.5-1.219v-9.312h1.328c2.766 0 4.125 1.656 4.125 4.625 0 2.968-1.36 4.687-4.125 4.687zm0 0"/></symbol><symbol overflow="visible" id="u"><path d="M5.938.203c2.937 0 5-2.344 5-6.11 0-3.75-2.063-6.046-5-6.046-2.954 0-5.016 2.297-5.016 6.047 0 3.765 2.062 6.11 5.016 6.11zm0-1.297c-2.11 0-3.485-1.875-3.485-4.812 0-2.938 1.375-4.75 3.485-4.75 2.093 0 3.484 1.812 3.484 4.75 0 2.937-1.39 4.812-3.485 4.812zm0 0"/></symbol><symbol overflow="visible" id="v"><path d="M1.594 0h1.422v-6.156c0-1.235-.125-2.485-.188-3.672h.063l1.265 2.422L8.438 0h1.515v-11.734H8.547v6.109c0 1.203.11 2.516.187 3.703h-.078l-1.25-2.422-4.265-7.39H1.594zm0 0"/></symbol><symbol overflow="visible" id="w"><path d="M3.516-5.734L.156-1.016H2.75V0h.766v-1.016h.562v-.75h-.562zM1.546-1.75L2.75-3.469v1.719zm0 0"/></symbol><symbol overflow="visible" id="x"><path d="M1.953 0h.813v-5.328H1.484l-.437.75h.906zm0 0"/></symbol></defs><g fill="#231f20"><use xlink:href="#a" x="54.239" y="194"/><use xlink:href="#b" x="58.925" y="194"/><use xlink:href="#c" x="68.698" y="194"/><use xlink:href="#d" x="74.727" y="194"/><use xlink:href="#e" x="80.933" y="194"/><use xlink:href="#f" x="90.625" y="194"/><use xlink:href="#g" x="100.542" y="194"/><use xlink:href="#h" x="110.25" y="194"/><use xlink:href="#c" x="118.391" y="194"/><use xlink:href="#i" x="124.421" y="194"/><use xlink:href="#e" x="128.819" y="194"/><use xlink:href="#b" x="138.511" y="194"/><use xlink:href="#j" x="148.284" y="194"/><use xlink:href="#e" x="151.866" y="194"/><use xlink:href="#k" x="161.559" y="194"/><use xlink:href="#j" x="166.757" y="194"/><use xlink:href="#c" x="170.339" y="194"/><use xlink:href="#l" x="176.369" y="194"/><use xlink:href="#m" x="186.077" y="194"/><use xlink:href="#j" x="194.938" y="194"/><use xlink:href="#h" x="198.521" y="194"/><use xlink:href="#e" x="206.662" y="194"/><use xlink:href="#d" x="216.354" y="194"/><use xlink:href="#m" x="222.56" y="194"/><use xlink:href="#j" x="231.42" y="194"/><use xlink:href="#c" x="235.003" y="194"/><use xlink:href="#m" x="241.033" y="194"/><use xlink:href="#h" x="249.893" y="194"/><use xlink:href="#l" x="258.034" y="194"/><use xlink:href="#b" x="267.742" y="194"/><use xlink:href="#e" x="277.515" y="194"/><use xlink:href="#n" x="287.207" y="194"/><use xlink:href="#e" x="291.765" y="194"/><use xlink:href="#o" x="301.458" y="194"/><use xlink:href="#p" x="310.462" y="194"/><use xlink:href="#j" x="318.795" y="194"/><use xlink:href="#e" x="322.378" y="194"/><use xlink:href="#k" x="332.07" y="194"/><use xlink:href="#j" x="337.268" y="194"/><use xlink:href="#q" x="340.851" y="194"/><use xlink:href="#r" x="350.431" y="194"/><use xlink:href="#s" x="362.075" y="194"/><use xlink:href="#t" x="371.479" y="194"/><use xlink:href="#u" x="382.467" y="194"/><use xlink:href="#v" x="394.335" y="194"/><use xlink:href="#s" x="405.882" y="194"/><use xlink:href="#s" x="415.287" y="194"/></g><g fill="#7b7979"><use xlink:href="#w" x="557.772" y="818.875"/><use xlink:href="#x" x="561.181" y="818.875"/></g></svg>