<svg xmlns="http://www.w3.org/2000/svg" xmlns:xlink="http://www.w3.org/1999/xlink" width="793.033" height="1122.52" viewBox="0 0 594.7751 841.89" version="1.2"><defs><symbol overflow="visible" id="a"><path d="M1.266-3.063c1.062-.296 1.796-.921 2.203-1.718.406.765 1.125 1.343 2.187 1.625l.578-1C4.891-4.516 4.22-5.344 4.125-6.22h1.86v-1.047h-1.86v-1H2.797v1H.937v1.047h1.844c-.094.922-.734 1.782-2.11 2.14zm2.859-.28H2.797v1.405c-.844.032-1.64.032-2.328.032L.64-.844c1.578 0 3.75-.015 5.734-.422l-.078-.953c-.703.11-1.438.172-2.172.219zM6.797-8.36V.875h1.312v-9.234zm0 0"/></symbol><symbol overflow="visible" id="b"><path d="M3.984-6.375h1.907v-1.094H.734v1.094h1.922v.5c0 1.578-.75 3.266-2.297 3.953l.75 1.047c1.079-.484 1.829-1.5 2.235-2.688.406 1.11 1.14 2 2.203 2.47l.719-1.048c-1.532-.64-2.282-2.234-2.282-3.734zm2.75-1.969V.86h1.329v-9.203zm0 0"/></symbol><symbol overflow="visible" id="c"><path d="M6.813-1.328h1.312v-7.016H6.812v2.281H5.61v1.047h1.204v.922H5.609v1.047h1.204zM5.516-7.375H3.703v-1H2.391v1H.453v1.031h5.063zM2.125-4.219c0-.5.39-.797.922-.797.531 0 .906.297.906.797 0 .516-.375.797-.906.797s-.922-.281-.922-.797zm3.078 0c0-1.062-.906-1.797-2.156-1.797S.89-5.28.89-4.219c0 1.063.906 1.813 2.156 1.813s2.156-.75 2.156-1.813zM3.375-.344v-1.562H2.047v2.61h6.281V-.345zm0 0"/></symbol><symbol overflow="visible" id="p"><path d="M1.266-2.906C2.875-3.203 4.03-4 4.594-5.094c.593 1.078 1.75 1.844 3.375 2.14L8.469-4c-1.985-.297-3.047-1.406-3.172-2.594h2.766v-1.062H1.125v1.062h2.75c-.11 1.188-1.188 2.344-3.11 2.64zm4 1.625v-2.032H3.937v2.032h-3.5v1.078h8.329v-1.078zm0 0"/></symbol><symbol overflow="visible" id="q"><path d="M7.156-8.36v3.532h-.75v-3.375H5.172v5.953c-1.36-.703-1.828-2.234-1.828-3.844v-.25h1.39v-1.078H.563v1.078h1.5v.25c0 1.766-.438 3.39-1.797 4.188l.78 1c.86-.5 1.407-1.375 1.704-2.438.328.922.86 1.656 1.688 2.11l.734-1V.437h1.234V-3.75h.75V.844h1.25V-8.36zm0 0"/></symbol><symbol overflow="visible" id="Q"><path d="M5.438-6.125v1.063h1.375v2.187h1.312v-5.469H6.812v2.219zm.546 1.969C4.578-4.61 3.938-5.688 3.906-6.734h1.781v-1.063H.734v1.063h1.813c-.031 1.14-.703 2.312-2.172 2.828l.672 1.031c1.078-.36 1.797-1.11 2.203-2.031.406.812 1.094 1.453 2.094 1.781zM5.016-.125c-1.204 0-1.829-.25-1.829-.781 0-.516.626-.766 1.829-.766 1.203 0 1.828.25 1.828.766 0 .531-.625.781-1.828.781zm0-2.547c-1.954 0-3.157.656-3.157 1.766C1.86.219 3.063.875 5.016.875S8.172.219 8.172-.906c0-1.11-1.203-1.766-3.156-1.766zm0 0"/></symbol><symbol overflow="visible" id="R"><path d="M4.594-7.125c1.156 0 1.89.281 1.89.86 0 .562-.734.843-1.89.843-1.157 0-1.89-.281-1.89-.844 0-.578.733-.859 1.89-.859zm0 2.75c1.984 0 3.312-.734 3.312-1.89 0-1.173-1.328-1.923-3.312-1.923-1.985 0-3.313.75-3.313 1.922 0 1.157 1.328 1.891 3.313 1.891zM2.687-2H1.375V.703h6.578V-.344H2.687zM.438-3.906v1.062h2.844v1.64h1.313v-1.64h.922v1.64h1.312v-1.64h1.938v-1.062zm0 0"/></symbol><symbol overflow="visible" id="S"><path d="M4.563-4.344c-.829.14-1.563.188-2.547.188v-.782h2.25v-1h-2.25v-.75h2.343v-1.046H.734v4.64h.641c1.375 0 2.266-.031 3.313-.203zM1.938-1.28h5.015V.875h1.328v-3.203H1.937zM7.03-8.344v2.25h-.734v-2.093H5.063v5.39h1.234v-2.25h.734v2.313h1.25v-5.61zm0 0"/></symbol><symbol overflow="visible" id="d"><path d="M1.266-1.344c.468 0 .906-.39.906-1 0-.594-.438-.984-.906-.984-.47 0-.907.39-.907.984 0 .61.438 1 .907 1zm0 0"/></symbol><symbol overflow="visible" id="f"><path d="M4.516-3.125c-.97-.36-1.813-1.281-1.813-2.297v-.766h-.406v.766c0 1.156-.828 2.11-1.828 2.5l.219.344c.843-.344 1.546-1.047 1.828-1.969.296.813 1 1.453 1.78 1.766zM1.969-1.656H5.5v1.75H1.969zM1.547.454h4.375V-2H1.547zm5.5-5.141H5.922v-1.86H5.5v4.188h.422v-1.954h1.125zm0 0"/></symbol><symbol overflow="visible" id="g"><path d="M6.234-6.547h-.421v5.25h.421zM4.75-2.734c-1-.344-1.875-1.204-1.875-2.235v-.578h1.734v-.36H.703v.36h1.75v.578c0 1.078-.86 2-1.86 2.375l.22.328c.843-.328 1.578-1 1.859-1.89.297.828 1.047 1.453 1.86 1.75zM2.187.03v-1.828h-.421V.391h4.703V.03zm0 0"/></symbol><symbol overflow="visible" id="h"><path d="M2.438-5.281h1.406v-.36H.547v.36H2.03v.812c0 1.36-.687 2.657-1.64 3.235l.28.312c.735-.453 1.313-1.36 1.563-2.422.25.985.797 1.813 1.516 2.25l.281-.312c-.937-.532-1.593-1.797-1.593-3.063zm2.171 1.36H3.281v.358H4.61V.172h.407V-6.36h-.407zm1.422-2.626v7.11h.422v-7.11zm0 0"/></symbol><symbol overflow="visible" id="i"><path d="M1.047-4.453c0-.75.594-1.297 1.39-1.297.813 0 1.391.547 1.391 1.297 0 .734-.578 1.281-1.39 1.281-.797 0-1.391-.547-1.391-1.281zm3.203 0c0-1-.75-1.656-1.813-1.656-1.046 0-1.796.656-1.796 1.656 0 .984.75 1.64 1.796 1.64 1.063 0 1.813-.656 1.813-1.64zM1.39-1.578H5.5v2.14h.422v-2.5H1.39zm5.641-3.438v-.359h-1.11v-1.172H5.5v4.234h.422V-3.5h1.11v-.36h-1.11v-1.156zm0 0"/></symbol><symbol overflow="visible" id="j"><path d="M1.938 1.547l.28-.14C1.532.28 1.173-1.079 1.173-2.47c0-1.375.36-2.734 1.047-3.86l-.281-.155C1.203-5.297.766-4.031.766-2.47c0 1.563.437 2.844 1.171 4.016zm0 0"/></symbol><symbol overflow="visible" id="k"><path d="M1.047-3.14c.984-.204 2.203-.829 2.61-1.75.421.921 1.64 1.546 2.624 1.75l.172-.344c-1.062-.172-2.562-1-2.562-2.063v-.156h2.343v-.36H1.078v.36h2.36v.156c0 1.063-1.516 1.89-2.563 2.063zm5.828.718H.453v.344h2.985V.547h.421v-2.625h3.016zm0 0"/></symbol><symbol overflow="visible" id="l"><path d="M.578 1.547C1.313.375 1.75-.906 1.75-2.47c0-1.562-.438-2.828-1.172-4.015l-.281.156c.687 1.125 1.062 2.484 1.062 3.86 0 1.39-.375 2.75-1.062 3.874zm0 0"/></symbol><symbol overflow="visible" id="m"><path d="M5.61-3.578H1.733v-1.25H5.61zm.437-2.672h-.438v1.078H1.734V-6.25h-.437v3.031h4.75zm.844 3.984H.437v.36h3V.562h.422v-2.468h3.032zm0 0"/></symbol><symbol overflow="visible" id="n"><path d="M2.688-5.89H2.28v1.421c0 1.282-.969 2.64-1.89 3.125l.25.36C1.42-1.438 2.187-2.406 2.5-3.5c.313 1.047 1.063 1.938 1.844 2.36l.25-.329c-.922-.484-1.907-1.765-1.907-3zm4.421 2.312H5.86v-2.969h-.421v7.11h.421V-3.22h1.25zm0 0"/></symbol><symbol overflow="visible" id="o"><path d="M4.5-2.984c-.969-.329-1.766-1.188-1.766-2.172v-.469h1.672v-.36H.625v.36h1.688v.484c0 1.079-.844 1.985-1.844 2.344l.234.344c.828-.328 1.531-.985 1.828-1.86.297.766.953 1.375 1.766 1.672zM3.687.187c-1.14 0-1.874-.343-1.874-.921 0-.563.734-.907 1.875-.907 1.14 0 1.874.344 1.874.907 0 .578-.734.921-1.875.921zm0-2.171c-1.421 0-2.28.453-2.28 1.25 0 .812.859 1.265 2.28 1.265C5.11.531 5.985.078 5.985-.734c0-.797-.875-1.25-2.296-1.25zm2.235-2.657v-1.906H5.5v4.328h.422v-2.047h1.125v-.375zm0 0"/></symbol><symbol overflow="visible" id="r"><path d="M5.797-6.547v7.11h.422v-7.11zm-3.281.578C1.484-5.969.75-5.016.75-3.53c0 1.484.734 2.437 1.766 2.437 1.03 0 1.765-.953 1.765-2.437 0-1.485-.734-2.438-1.765-2.438zm0 .375c.796 0 1.359.844 1.359 2.063 0 1.219-.563 2.078-1.36 2.078-.796 0-1.359-.86-1.359-2.078 0-1.219.563-2.063 1.36-2.063zm0 0"/></symbol><symbol overflow="visible" id="s"><path d="M4.688-5.719H2.796v-.875h-.422v.875H.485v.344h4.202zM1.296-3.64c0-.546.531-.921 1.281-.921.766 0 1.281.375 1.281.921 0 .547-.515.922-1.28.922-.75 0-1.282-.375-1.282-.922zm2.953 0c0-.78-.656-1.265-1.672-1.265-1 0-1.672.484-1.672 1.265 0 .782.672 1.266 1.672 1.266 1.016 0 1.672-.484 1.672-1.266zM1.39-1.312H5.5V.546h.422v-2.219H1.39zm5.657-3.204H5.922v-2.03H5.5v4.437h.422v-2.032h1.125zm0 0"/></symbol><symbol overflow="visible" id="t"><path d="M2.766-6C1.656-6 .89-5.344.89-4.375S1.656-2.75 2.766-2.75c1.109 0 1.875-.656 1.875-1.625S3.875-6 2.766-6zm0 .375c.843 0 1.468.516 1.468 1.25s-.625 1.25-1.468 1.25c-.844 0-1.47-.516-1.47-1.25s.626-1.25 1.47-1.25zm2.968-.922v7.11h.422v-7.11zM.563-1.078c1.296 0 3.062 0 4.703-.297l-.047-.328c-1.578.25-3.39.266-4.719.266zm0 0"/></symbol><symbol overflow="visible" id="u"><path d="M3.594-3.156H1.219v-1.375h2.375zm.422-2.953h-.422v1.218H1.219v-1.218H.797v3.312h3.219zM1.39-1.47H5.5V.563h.422v-2.391H1.39zm5.656-3.156H5.922v-1.922H5.5v4.297h.422v-2.016h1.125zm0 0"/></symbol><symbol overflow="visible" id="v"><path d="M2.828-5.89h-.422v1.421c0 1.297-.969 2.64-1.906 3.157l.266.328c.78-.454 1.546-1.422 1.843-2.547.313 1.062 1.094 2 1.891 2.422l.25-.344C3.812-1.922 2.828-3.22 2.828-4.47zm2.985-.657v2.531H3.984v.36h1.829V.563h.421v-7.11zm0 0"/></symbol><symbol overflow="visible" id="w"><path d="M3.656-6.125c1.25 0 2.031.344 2.031.906 0 .578-.78.922-2.03.922-1.235 0-2.016-.344-2.016-.922 0-.562.78-.906 2.015-.906zm0 2.156c1.547 0 2.469-.437 2.469-1.25 0-.797-.922-1.234-2.469-1.234-1.531 0-2.453.437-2.453 1.234 0 .813.922 1.25 2.453 1.25zm3.219.906v-.359H.453v.36h3v.796H1.266v.344h4.343v.781H1.266V.453H6.25V.11H1.687v-.921h4.344v-1.454H3.875v-.796zm0 0"/></symbol><symbol overflow="visible" id="x"><path d="M1.156-1.656v-3.64h2.235v-.36H.75v4.375h.438c1.171 0 1.859-.047 2.687-.235l-.047-.359c-.797.188-1.484.219-2.656.219zm4.875-4.89v2.921H4.813v-2.75h-.407V.172h.407v-3.438H6.03V.547h.422v-7.094zm0 0"/></symbol><symbol overflow="visible" id="y"><path d="M5.594-4.938c0 .922 0 1.813-.25 3.032l.422.047c.25-1.25.25-2.125.25-3.079v-.828H1.14v.36h4.453zM4.344-.89v-2.406h-.422V-.89H2.594v-2.406h-.422V-.89H.453v.36h6.422v-.36zm0 0"/></symbol><symbol overflow="visible" id="z"><path d="M5.813-4.953v1.094h-1.86v-1.094zM3.53-3.172H1.266V-4.5H3.53zm.422-.328h1.86v1.281h.421v-4.328h-.421v1.234h-1.86v-.796h-.422v1.25H1.266v-1.25H.844v3.296h3.11zM3.938.188c-1.157 0-1.891-.36-1.891-.954 0-.593.734-.953 1.89-.953 1.172 0 1.922.36 1.922.953 0 .594-.75.954-1.921.954zm0-2.25c-1.438 0-2.329.468-2.329 1.296C1.61.078 2.5.531 3.938.531 5.39.531 6.265.078 6.265-.766c0-.828-.875-1.296-2.329-1.296zm0 0"/></symbol><symbol overflow="visible" id="A"><path d="M4.234-2.297v.328H5.75v.844h.422v-5.406H5.75v4.234zm-1.5-3.61c.782 0 1.329.376 1.329.891 0 .532-.547.891-1.329.891-.78 0-1.328-.36-1.328-.89 0-.516.547-.891 1.328-.891zm0 2.11c1.047 0 1.735-.469 1.735-1.219 0-.75-.688-1.218-1.735-1.218C1.704-6.234 1-5.766 1-5.016s.703 1.22 1.734 1.22zm-.156 2.375H3v-1.437c.688-.047 1.406-.094 2.078-.22l-.047-.312c-1.531.204-3.297.22-4.625.22l.063.358c.625 0 1.344 0 2.11-.03zM1.906.031v-1.687h-.422V.39H6.36V.03zm0 0"/></symbol><symbol overflow="visible" id="B"><path d="M6.453-3.922c-1.047-.187-2.578-1-2.578-2.015v-.438h-.422v.438c0 1.046-1.515 1.843-2.578 2.015l.172.344c.984-.188 2.203-.797 2.61-1.703.437.89 1.64 1.515 2.624 1.703zM1.734-1.64h-.437V.391h4.875V.03H1.734zM.438-2.859v.359h3.046v1.594h.422V-2.5h2.985v-.36zm0 0"/></symbol><symbol overflow="visible" id="C"><path d="M4.734-5.781H2.891v-.782h-.422v.782H.609v.343h4.125zm-3.28 1.797c0-.47.484-.766 1.218-.766s1.219.297 1.219.766c0 .453-.485.765-1.22.765-.733 0-1.218-.312-1.218-.765zM4.968-2.5a28.38 28.38 0 0 1-2.078.203v-.61c.843-.046 1.39-.452 1.39-1.077 0-.672-.64-1.094-1.61-1.094-.968 0-1.608.422-1.608 1.094 0 .625.546 1.03 1.406 1.078v.625c-.735.031-1.438.031-2.031.031l.062.375c1.25-.016 2.984-.031 4.5-.313zM1.953-1.36h-.422V.39h4.61V.032H1.953zm3.922-2.609v-2.578h-.422v5.563h.422V-3.61h1.14v-.36zm0 0"/></symbol><symbol overflow="visible" id="D"><path d="M.89-5.766v.36h2.844C3.61-3.641 2.531-2.141.578-1.188l.235.344C3.108-1.969 4.155-3.78 4.155-5.766zm4.923-.78V.562h.421v-7.11zm0 0"/></symbol><symbol overflow="visible" id="E"><path d="M1.266-5.64H.844v4.296h.422c.812 0 1.609-.047 2.609-.25l-.063-.375c-.953.203-1.765.235-2.546.235zm4.765-.907v2.984H4.797v-2.812H4.39V.172h.406v-3.36H6.03v3.75h.407v-7.109zm0 0"/></symbol><symbol overflow="visible" id="F"><path d="M4.11-2.578c.218-1.406.218-2.375.218-2.89v-.266H.781v.359h3.125c0 .516-.015 1.453-.219 2.75zM2.436-3.703h-.421v2.234c-.579.016-1.141.016-1.641.016l.063.375c1.28 0 2.984-.031 4.484-.266l-.031-.312c-.766.11-1.625.156-2.454.172zm4.626.187h-1.25v-3.03H5.39V.562h.421v-3.688h1.25zm0 0"/></symbol><symbol overflow="visible" id="G"><path d="M6.5-3.734C5.437-3.906 3.89-4.75 3.89-5.828v-.438h-.437v.438c0 1.11-1.531 1.922-2.625 2.094l.188.343c1-.187 2.234-.796 2.656-1.75.422.938 1.656 1.563 2.64 1.75zm.375 1.265H.453v.36h2.985V.547h.421V-2.11h3.016zm0 0"/></symbol><symbol overflow="visible" id="H"><path d="M4.875-4.172h1.11v2.031h.421v-4.406h-.422v2.016H4.875v-1.875h-.406v4.031h.406zm-.89 1.078c-.876-.36-1.516-1.172-1.516-1.969v-1.046h-.406v1.046c0 .797-.657 1.75-1.547 2.141l.234.328c.719-.312 1.266-.984 1.516-1.687a2.67 2.67 0 0 0 1.5 1.5zM4.108.203c-1.156 0-1.906-.344-1.906-.906 0-.547.75-.89 1.906-.89 1.172 0 1.922.343 1.922.89 0 .562-.75.906-1.922.906zm0-2.14c-1.453 0-2.328.453-2.328 1.234C1.781.094 2.656.53 4.11.53c1.454 0 2.329-.437 2.329-1.234 0-.781-.875-1.235-2.329-1.235zm0 0"/></symbol><symbol overflow="visible" id="I"><path d="M3.563-3.25H1.219v-2.39h2.343zm2.25-1.719v1.047H3.968v-1.047zM3.968-3.562h1.844v1.25h.421v-4.235h-.421v1.219H3.968v-.656H.813v3.093h3.156zM3.938.188c-1.157 0-1.891-.36-1.891-.97 0-.593.734-.968 1.89-.968 1.172 0 1.922.375 1.922.969 0 .61-.75.969-1.921.969zm0-2.282c-1.438 0-2.329.485-2.329 1.313C1.61.063 2.5.53 3.938.53 5.39.531 6.265.062 6.265-.78c0-.828-.875-1.313-2.329-1.313zm0 0"/></symbol><symbol overflow="visible" id="J"><path d="M.984-4.344c0-.765.594-1.36 1.391-1.36s1.39.595 1.39 1.36c0 .797-.593 1.39-1.39 1.39-.797 0-1.39-.593-1.39-1.39zm4.829-.672v1.344h-1.75c.078-.203.109-.422.109-.672 0-.234-.047-.468-.11-.672zm0 1.704v2.046h.421v-5.28h-.421v1.171H3.859c-.328-.422-.843-.703-1.484-.703-1.031 0-1.797.719-1.797 1.734 0 1.047.766 1.75 1.797 1.75.64 0 1.172-.265 1.5-.719zM2.219.03v-1.843h-.422V.39h4.656V.03zm0 0"/></symbol><symbol overflow="visible" id="K"><path d="M6.875-2.984h-1.11c.204-1.047.204-1.797.204-2.47v-.609H1.297v.36h4.25v.25c0 .672 0 1.422-.234 2.469H.452v.359h3V.563h.422v-3.188h3zm0 0"/></symbol><symbol overflow="visible" id="L"><path d="M1.031-3.688c1.032-.156 2.25-.687 2.625-1.515.39.828 1.61 1.36 2.656 1.516l.157-.344c-1.094-.14-2.547-.797-2.547-1.75v-.063h2.375v-.36h-5.25v.36h2.375v.063c0 .968-1.453 1.61-2.563 1.75zm4.625 3c0 .547-.781.891-1.984.891-1.219 0-2-.344-2-.89 0-.547.781-.875 2-.875 1.203 0 1.984.328 1.984.875zm1.219-2.125v-.359H.453v.36h3v.906c-1.39.047-2.203.468-2.203 1.218 0 .797.906 1.22 2.406 1.22 1.516 0 2.422-.423 2.422-1.22 0-.75-.812-1.187-2.203-1.218v-.907zm0 0"/></symbol><symbol overflow="visible" id="M"><path d="M.734-5.594v.36h2.329C2.969-3.75 2.28-2.281.5-1.313l.266.297C2.812-2.14 3.469-3.89 3.469-5.594zm5.297-.953v2.969H4.86V-6.36h-.406V.17h.406v-3.39h1.172V.562h.407v-7.109zm0 0"/></symbol><symbol overflow="visible" id="N"><path d="M6.531-2.938C5.516-3.14 3.86-4.171 3.86-5.453v-.578h-.437v.578c0 1.297-1.625 2.312-2.656 2.516l.187.343c.953-.219 2.25-.984 2.688-2.078.453 1.094 1.75 1.86 2.703 2.078zM3.86-.78v-1.813h-.421V-.78H.453v.36h6.438v-.36zm0 0"/></symbol><symbol overflow="visible" id="O"><path d="M6.219-6.547h-.422v3.719h.422zm-1.5 3.125c-1-.36-1.89-1.281-1.89-2.36v-.53h-.407v.53c0 1.141-.875 2.126-1.875 2.5l.234.345c.828-.344 1.563-1.047 1.844-1.954.313.829 1.047 1.485 1.875 1.797zM2.156.11v-.968h4.078v-1.579H1.72v.36h4.093v.89H1.75V.454h4.766V.11zm0 0"/></symbol><symbol overflow="visible" id="P"><path d="M4.547-5.734H2.719v-.891H2.28v.89H.453v.344h4.094zM1.28-3.672c0-.531.516-.922 1.219-.922.703 0 1.203.39 1.203.922 0 .531-.5.922-1.203.922-.703 0-1.219-.39-1.219-.922zm2.828 0c0-.765-.671-1.25-1.609-1.25S.89-4.438.89-3.672s.672 1.25 1.61 1.25c.938 0 1.61-.484 1.61-1.25zM2.125-1.469h3.703V.094H2.125zM1.703.453h4.531v-2.265h-4.53zm4.11-7v2.203h-1.36v.36h1.36v1.75h.421v-4.313zm0 0"/></symbol><symbol overflow="visible" id="T"><path d="M4.531-2.844c-.984-.36-1.828-1.297-1.828-2.312v-.969h-.406v.938c0 1.187-.813 2.14-1.813 2.546l.22.344a3.114 3.114 0 0 0 1.812-1.969c.296.797 1 1.454 1.796 1.766zM2.047-1.78h-.438V.39h4.657V.03h-4.22zm3.875-2.516v-2.25H5.5v5.281h.422v-2.671h1.125v-.36zm0 0"/></symbol><symbol overflow="visible" id="U"><path d="M5.813.094H2.219V-.97h3.594zm0-1.422H2.219V-2.36h-.422V.453h4.437v-2.812h-.421zm-3.438-2c-.813 0-1.39-.547-1.39-1.25 0-.734.578-1.266 1.39-1.266.813 0 1.39.532 1.39 1.266 0 .703-.578 1.25-1.39 1.25zm3.438-3.219v1.766H4.171c-.11-.86-.813-1.422-1.797-1.422-1.063 0-1.797.656-1.797 1.625 0 .953.735 1.61 1.797 1.61 1 0 1.703-.579 1.797-1.454h1.64v1.688h.422v-3.813zm0 0"/></symbol><symbol overflow="visible" id="V"><path d="M4.203-4.516v.36h1.61v2.843h.421v-5.234h-.421v2.031zm.375 1.688c-.969-.344-1.781-1.25-1.781-2.219v-.5h1.656v-.36H.687v.36h1.688v.516c0 1.078-.875 2.015-1.86 2.39l.235.344c.828-.328 1.547-1.047 1.844-1.922.297.782.969 1.422 1.781 1.735zM2.218.032v-1.829h-.421V.391h4.656V.03zm0 0"/></symbol><symbol overflow="visible" id="W"><path d="M4.703-3.281c-1.187.203-2.156.234-3.375.234h-.11v-1.219h2.72v-1.843H.78v.359h2.75v1.14H.797v1.923h.531c1.25 0 2.203-.032 3.422-.22zM1.391-1.47H5.5V.547h.422v-2.375H1.39zm5.656-3.484v-.375H5.922v-1.219H5.5v4.328h.422v-1.265h1.125v-.36H5.922v-1.11zm0 0"/></symbol><symbol overflow="visible" id="X"><path d="M1.047-4.453c0-.75.594-1.297 1.406-1.297.797 0 1.375.547 1.375 1.297 0 .734-.578 1.266-1.375 1.266-.812 0-1.406-.532-1.406-1.266zm3.203 0c0-.984-.75-1.656-1.797-1.656-1.062 0-1.812.671-1.812 1.656 0 .969.75 1.64 1.812 1.64 1.047 0 1.797-.671 1.797-1.64zM3.687.187c-1.14 0-1.874-.359-1.874-.937 0-.578.734-.938 1.875-.938 1.14 0 1.874.36 1.874.938s-.734.938-1.875.938zm0-2.234c-1.421 0-2.28.485-2.28 1.297 0 .828.859 1.281 2.28 1.281C5.11.531 5.985.078 5.985-.75c0-.813-.875-1.297-2.296-1.297zm2.235-2.625v-1.875H5.5v4.25h.422v-2h1.125v-.375zm0 0"/></symbol><symbol overflow="visible" id="Y"><path d="M.813-5.984v.343h2.312C3.031-4.328 2.094-3.234.547-2.562l.234.312c1.766-.781 2.766-2.11 2.766-3.734zm.921 4.375H5.97V.562h.437v-2.53H1.734zm4.25-4.922v1.86h-1.14v-1.735h-.407v4.015h.407v-1.921h1.14v1.968h.422V-6.53zm0 0"/></symbol><symbol overflow="visible" id="Z"><path d="M2.453-5.844h-.406v1.453c0 1.22-.703 2.5-1.64 3.032l.28.312C1.407-1.484 2-2.359 2.25-3.375c.266.922.828 1.766 1.531 2.188l.266-.329c-.922-.546-1.594-1.765-1.594-2.89zm2.14 1.938H3.25v.36h1.344V.186H5v-6.562h-.406zm1.454-2.64V.562h.406v-7.11zm0 0"/></symbol><symbol overflow="visible" id="aa"><path d="M2.125-1.781h3.703V.094H2.125zM1.719.437h4.515v-2.562H1.72zm4.093-6.984v1.297H4c.063-.266.11-.531.11-.813H.905v.36h2.735c-.094 1.36-1.297 2.39-3.079 2.89l.188.36c1.531-.438 2.672-1.297 3.125-2.438h1.938v1.079H3.78v.359h2.031v1.015h.422v-4.109zm0 0"/></symbol><symbol overflow="visible" id="ab"><path d="M5.813-6.547v4.094h.421v-4.094zm-4.094 4.5v2.5h4.515v-2.5zm4.093.36v1.78H2.142v-1.78zM2.454-6.141c-1.047 0-1.797.657-1.797 1.625 0 .985.75 1.641 1.797 1.641 1.063 0 1.797-.656 1.797-1.64 0-.97-.734-1.626-1.797-1.626zm0 .36c.813 0 1.39.531 1.39 1.265 0 .735-.577 1.282-1.39 1.282-.812 0-1.39-.547-1.39-1.282 0-.734.578-1.265 1.39-1.265zm0 0"/></symbol><symbol overflow="visible" id="ac"><path d="M1.953 0h.813v-5.328H1.484l-.437.75h.906zm0 0"/></symbol><symbol overflow="visible" id="ad"><path d="M.39-.219l.626.406 3.296-5.515H.422v.75H3zm0 0"/></symbol></defs><g fill="#231f20"><use xlink:href="#a" x="53.465" y="492.792"/><use xlink:href="#b" x="62.462" y="492.792"/><use xlink:href="#c" x="71.459" y="492.792"/></g><use xlink:href="#d" x="53.465" y="509.026" fill="#231f20"/><g fill="#231f20"><use xlink:href="#e" x="55.849" y="509.026"/><use xlink:href="#f" x="57.464" y="509.026"/><use xlink:href="#g" x="64.661" y="509.026"/><use xlink:href="#h" x="71.859" y="509.026"/><use xlink:href="#i" x="79.056" y="509.026"/><use xlink:href="#j" x="86.253" y="509.026"/><use xlink:href="#k" x="88.612" y="509.026"/><use xlink:href="#l" x="95.809" y="509.026"/><use xlink:href="#e" x="98.169" y="509.026"/><use xlink:href="#m" x="99.784" y="509.026"/><use xlink:href="#n" x="106.981" y="509.026"/><use xlink:href="#o" x="114.179" y="509.026"/></g><g fill="#231f20"><use xlink:href="#p" x="242.25" y="238.421"/><use xlink:href="#c" x="251.247" y="238.421"/></g><use xlink:href="#q" x="260.244" y="238.421" fill="#231f20"/><use xlink:href="#d" x="242.25" y="254.655" fill="#231f20"/><g fill="#231f20"><use xlink:href="#e" x="244.634" y="254.655"/><use xlink:href="#r" x="246.249" y="254.655"/><use xlink:href="#s" x="253.446" y="254.655"/><use xlink:href="#e" x="260.644" y="254.655"/><use xlink:href="#t" x="262.259" y="254.655"/><use xlink:href="#s" x="269.456" y="254.655"/><use xlink:href="#e" x="276.653" y="254.655"/><use xlink:href="#u" x="278.269" y="254.655"/></g><use xlink:href="#n" x="285.466" y="254.655" fill="#231f20"/><use xlink:href="#d" x="242.25" y="269.65" fill="#231f20"/><g fill="#231f20"><use xlink:href="#e" x="244.634" y="269.65"/><use xlink:href="#v" x="246.249" y="269.65"/><use xlink:href="#w" x="253.446" y="269.65"/><use xlink:href="#x" x="260.644" y="269.65"/><use xlink:href="#s" x="267.841" y="269.65"/><use xlink:href="#y" x="275.038" y="269.65"/><use xlink:href="#z" x="282.235" y="269.65"/><use xlink:href="#A" x="289.433" y="269.65"/><use xlink:href="#e" x="296.63" y="269.65"/><use xlink:href="#B" x="298.245" y="269.65"/><use xlink:href="#C" x="305.443" y="269.65"/><use xlink:href="#D" x="312.64" y="269.65"/><use xlink:href="#E" x="319.837" y="269.65"/><use xlink:href="#F" x="327.034" y="269.65"/><use xlink:href="#e" x="334.232" y="269.65"/><use xlink:href="#y" x="335.847" y="269.65"/></g><use xlink:href="#G" x="343.044" y="269.65" fill="#231f20"/><use xlink:href="#d" x="242.25" y="284.644" fill="#231f20"/><g fill="#231f20"><use xlink:href="#e" x="244.634" y="284.644"/><use xlink:href="#t" x="246.249" y="284.644"/><use xlink:href="#H" x="253.446" y="284.644"/><use xlink:href="#I" x="260.644" y="284.644"/><use xlink:href="#J" x="267.841" y="284.644"/><use xlink:href="#K" x="275.038" y="284.644"/><use xlink:href="#A" x="282.235" y="284.644"/><use xlink:href="#e" x="289.433" y="284.644"/><use xlink:href="#L" x="291.048" y="284.644"/><use xlink:href="#M" x="298.245" y="284.644"/><use xlink:href="#t" x="305.443" y="284.644"/><use xlink:href="#s" x="312.64" y="284.644"/><use xlink:href="#J" x="319.837" y="284.644"/><use xlink:href="#K" x="327.034" y="284.644"/><use xlink:href="#N" x="334.232" y="284.644"/><use xlink:href="#e" x="341.429" y="284.644"/><use xlink:href="#J" x="343.044" y="284.644"/><use xlink:href="#K" x="350.242" y="284.644"/><use xlink:href="#e" x="357.439" y="284.644"/></g><g fill="#231f20"><use xlink:href="#e" x="242.25" y="294.24"/><use xlink:href="#e" x="244.186" y="294.24"/></g><g fill="#231f20"><use xlink:href="#O" x="246.121" y="294.24"/><use xlink:href="#P" x="253.318" y="294.24"/><use xlink:href="#m" x="260.516" y="294.24"/><use xlink:href="#e" x="267.713" y="294.24"/><use xlink:href="#m" x="269.328" y="294.24"/></g><use xlink:href="#o" x="276.526" y="294.24" fill="#231f20"/><g fill="#231f20"><use xlink:href="#Q" x="53.477" y="237.401"/><use xlink:href="#R" x="62.474" y="237.401"/><use xlink:href="#S" x="71.47" y="237.401"/></g><use xlink:href="#e" x="53.477" y="253.635" fill="#231f20"/><use xlink:href="#d" x="55.093" y="253.635" fill="#231f20"/><g fill="#231f20"><use xlink:href="#e" x="57.476" y="253.635"/><use xlink:href="#h" x="59.091" y="253.635"/><use xlink:href="#i" x="66.288" y="253.635"/><use xlink:href="#T" x="73.486" y="253.635"/><use xlink:href="#U" x="80.683" y="253.635"/><use xlink:href="#V" x="87.88" y="253.635"/><use xlink:href="#W" x="95.077" y="253.635"/><use xlink:href="#J" x="102.275" y="253.635"/><use xlink:href="#K" x="109.472" y="253.635"/><use xlink:href="#A" x="116.669" y="253.635"/><use xlink:href="#e" x="123.867" y="253.635"/><use xlink:href="#A" x="125.482" y="253.635"/><use xlink:href="#o" x="132.679" y="253.635"/></g><use xlink:href="#e" x="53.477" y="268.629" fill="#231f20"/><use xlink:href="#d" x="55.093" y="268.629" fill="#231f20"/><g fill="#231f20"><use xlink:href="#e" x="57.476" y="268.629"/><use xlink:href="#L" x="59.091" y="268.629"/><use xlink:href="#X" x="66.288" y="268.629"/><use xlink:href="#x" x="73.486" y="268.629"/><use xlink:href="#s" x="80.683" y="268.629"/><use xlink:href="#y" x="87.88" y="268.629"/><use xlink:href="#e" x="95.077" y="268.629"/><use xlink:href="#h" x="96.693" y="268.629"/><use xlink:href="#i" x="103.89" y="268.629"/><use xlink:href="#T" x="111.087" y="268.629"/><use xlink:href="#U" x="118.285" y="268.629"/><use xlink:href="#s" x="125.482" y="268.629"/><use xlink:href="#F" x="132.679" y="268.629"/><use xlink:href="#e" x="139.877" y="268.629"/><use xlink:href="#Y" x="141.492" y="268.629"/><use xlink:href="#A" x="148.689" y="268.629"/><use xlink:href="#y" x="155.886" y="268.629"/><use xlink:href="#G" x="163.084" y="268.629"/></g><use xlink:href="#e" x="53.465" y="283.618" fill="#231f20"/><use xlink:href="#d" x="55.081" y="283.618" fill="#231f20"/><g fill="#231f20"><use xlink:href="#e" x="57.464" y="283.618"/><use xlink:href="#J" x="59.079" y="283.618"/><use xlink:href="#Z" x="66.277" y="283.618"/><use xlink:href="#x" x="73.474" y="283.618"/><use xlink:href="#s" x="80.671" y="283.618"/><use xlink:href="#y" x="87.868" y="283.618"/><use xlink:href="#e" x="95.066" y="283.618"/><use xlink:href="#i" x="96.681" y="283.618"/><use xlink:href="#s" x="103.878" y="283.618"/><use xlink:href="#x" x="111.076" y="283.618"/><use xlink:href="#s" x="118.273" y="283.618"/><use xlink:href="#e" x="125.47" y="283.618"/><use xlink:href="#h" x="127.086" y="283.618"/><use xlink:href="#i" x="134.283" y="283.618"/><use xlink:href="#T" x="141.48" y="283.618"/><use xlink:href="#U" x="148.677" y="283.618"/><use xlink:href="#s" x="155.875" y="283.618"/><use xlink:href="#e" x="163.072" y="283.618"/><use xlink:href="#aa" x="164.687" y="283.618"/><use xlink:href="#ab" x="171.885" y="283.618"/><use xlink:href="#y" x="179.082" y="283.618"/><use xlink:href="#G" x="186.279" y="283.618"/></g><path d="M53.465 219.98h108.12V93.367H53.466zm0 0M242.254 219.98h108.121V93.367H242.254zm0 0" fill="none" stroke-width=".249905" stroke="#33459a"/><g fill="#7b7979"><use xlink:href="#ac" x="557.772" y="818.875"/><use xlink:href="#ad" x="560.907" y="818.875"/></g></svg>