<svg xmlns="http://www.w3.org/2000/svg" xmlns:xlink="http://www.w3.org/1999/xlink" width="793.033" height="1122.52" viewBox="0 0 594.7751 841.89" version="1.2"><defs><symbol overflow="visible" id="a"><path d="M1.719.188L3.172-1.72c.234-.312.437-.547.64-.953a2.04 2.04 0 0 0 .25-1.015c0-.594-.234-.97-.453-1.204-.218-.234-.64-.53-1.343-.53-.594 0-1.032.202-1.36.546a1.92 1.92 0 0 0-.515 1.328c0 .563.218.953.484 1.219.203.219.594.5 1.219.5.094 0 .187-.016.281-.031L1.141-.25zm.5-2.72a1.05 1.05 0 0 1-.735-.296 1.098 1.098 0 0 1-.312-.781c0-.329.14-.61.312-.797.172-.157.454-.297.75-.297.266 0 .547.11.735.297.203.203.312.484.312.765 0 .282-.11.579-.312.797a1.016 1.016 0 0 1-.75.313zm0 0"/></symbol><symbol overflow="visible" id="b"><path d="M1.953 0h.813v-5.328H1.484l-.437.75h.906zm0 0"/></symbol></defs><g fill="#7b7979"><use xlink:href="#a" x="557.29" y="818.875"/><use xlink:href="#b" x="560.527" y="818.875"/></g></svg>