<svg xmlns="http://www.w3.org/2000/svg" xmlns:xlink="http://www.w3.org/1999/xlink" width="794.366" height="1122.52" viewBox="0 0 595.7748 841.89" version="1.2"><defs><symbol overflow="visible" id="a"><path d="M5.063-10.422h2.546v-1.062H1.08v1.062h2.718v1.297c0 2.64-1.125 5.25-3.125 6.453l.797.969c1.422-.89 2.468-2.563 2.968-4.531.485 1.812 1.485 3.359 2.875 4.187l.797-.969C6.125-4.125 5.063-6.625 5.063-9.125zM8.89-8.016H6.53v1.079h2.36V.438h1.25v-13.282H8.89zm2.89-5.171V1.171h1.266v-14.36zm0 0"/></symbol><symbol overflow="visible" id="b"><path d="M2.406-8.906c0-1.36 1.016-2.297 2.453-2.297 1.422 0 2.47.937 2.47 2.297 0 1.344-1.048 2.281-2.47 2.281-1.437 0-2.453-.938-2.453-2.281zm6.203 0c0-2.016-1.578-3.39-3.75-3.39-2.171 0-3.734 1.374-3.734 3.39 0 2 1.563 3.39 3.734 3.39 2.172 0 3.75-1.39 3.75-3.39zM2.656-2.891h8.016v4.079h1.312V-3.97H2.656zm11.422-7v-1.078h-2.094v-2.187h-1.312v8.515h1.312v-2.187h2.094v-1.078h-2.094v-1.985zm0 0"/></symbol><symbol overflow="visible" id="d"><path d="M4.422-4.703c.562 0 1.047-.469 1.047-1.11 0-.671-.485-1.125-1.047-1.125-.578 0-1.063.454-1.063 1.125 0 .641.485 1.11 1.063 1.11zm0 0"/></symbol><symbol overflow="visible" id="e"><path d="M6.813-3.344H2.718v-3.781h4.094zm0-4.812H2.718v-3.797H1.422v9.687h6.672v-9.687H6.813zm7.437.64h-2.36v-5.64h-1.312V1.172h1.313v-7.594h2.359zm0 0"/></symbol><symbol overflow="visible" id="f"><path d="M11.281-13.172v14.39h1.313v-14.39zm-6.25 1.11c-2.14 0-3.656 1.953-3.656 5 0 3.062 1.516 5.015 3.656 5.015 2.125 0 3.64-1.953 3.64-5.015 0-3.047-1.515-5-3.64-5zm0 1.187c1.39 0 2.375 1.5 2.375 3.813 0 2.343-.984 3.843-2.375 3.843-1.422 0-2.406-1.5-2.406-3.844 0-2.312.984-3.812 2.406-3.812zm0 0"/></symbol><symbol overflow="visible" id="g"><path d="M3.375-8.469c0-1.64 1.688-2.719 3.969-2.719 2.281 0 3.953 1.079 3.953 2.72 0 1.655-1.672 2.718-3.953 2.718-2.282 0-3.969-1.063-3.969-2.719zM8-1.75v-2.984c2.672-.188 4.547-1.625 4.547-3.735 0-2.281-2.172-3.75-5.203-3.75-3.047 0-5.235 1.469-5.235 3.75 0 2.11 1.891 3.547 4.563 3.735v2.984H.828v1.094h13.047V-1.75zm0 0"/></symbol><symbol overflow="visible" id="h"><path d="M10.828-8.016H3.86v-1.859h6.97zm1.297-4.687h-1.297v1.828H3.86v-1.828H2.563v5.734h9.562zM3.781-3.047H2.484V.86h9.922V-.203H3.781zM.812-5.578v1.047h5.97v2.781h1.312v-2.781h5.765v-1.047zm0 0"/></symbol><symbol overflow="visible" id="i"><path d="M4.672-3.219c-1.39 0-2.375-1.515-2.375-3.86 0-2.296.984-3.796 2.375-3.796 1.375 0 2.36 1.5 2.36 3.797 0 2.344-.985 3.86-2.36 3.86zm0-8.844c-2.11 0-3.61 1.954-3.61 4.985 0 3.078 1.5 5.031 3.61 5.031S8.266-4 8.266-7.078c0-3.031-1.485-4.984-3.594-4.984zm9.5 3.594v-1.078H11.89v-3.61h-1.313V1.189h1.313v-5.375h2.28v-1.094h-2.28V-8.47zm0 0"/></symbol><symbol overflow="visible" id="j"><path d="M1.703-11.61v1.047h5.39c-.28 3.407-2.202 6.157-6.046 8l.703 1.079C6.516-3.828 8.422-7.47 8.422-11.61zm9.61-1.562v14.36h1.312v-14.36zm0 0"/></symbol><symbol overflow="visible" id="k"><path d="M13.125-9.125c-2.61-.281-5.11-1.688-5.11-3.438v-.546H6.673v.546c0 1.75-2.531 3.157-5.14 3.438l.452 1c2.282-.297 4.454-1.297 5.344-2.828.906 1.531 3.078 2.531 5.344 2.828zm.703 3v-1.063h-13v1.063h5.844v1.422H2.406v1h8.453v1.312H2.453v3.422h10.14V0H3.735v-1.422h8.422v-3.281H7.984v-1.422zm0 0"/></symbol><symbol overflow="visible" id="l"><path d="M11.36-.063H4.78v-1.859h6.578zm0-2.874H4.78V-4.75H3.484V.984h9.188V-4.75h-1.313zm-6.594-4c-1.422 0-2.454-.938-2.454-2.25 0-1.313 1.032-2.22 2.454-2.22 1.421 0 2.453.907 2.453 2.22 0 1.312-1.032 2.25-2.453 2.25zm6.578-6.22v3.407H8.422c-.281-1.656-1.719-2.75-3.656-2.75-2.141 0-3.688 1.344-3.688 3.313 0 1.984 1.547 3.328 3.688 3.328 1.968 0 3.406-1.11 3.671-2.813h2.907v3.219h1.328v-7.703zm0 0"/></symbol><symbol overflow="visible" id="m"><path d="M1.61-11.625v1.078h5.265c-.297 3.39-2.266 6.14-5.938 7.985l.72 1.03c4.64-2.327 6.515-6.015 6.515-10.093zm12.578 4.281H11.89v-5.828h-1.313v14.36h1.313V-6.25h2.296zm0 0"/></symbol><symbol overflow="visible" id="n"><path d="M6.125-9.625h3.281v-1.063H6.141v-2.218H4.812v2.219H1.5v1.062h3.328v1.094c0 2.515-1.578 4.937-3.703 5.937l.734 1C3.5-2.406 4.86-4.03 5.5-6.03c.656 1.89 2.016 3.437 3.672 4.187l.734-1.015c-2.14-.938-3.781-3.266-3.781-5.672zm5.156-3.563v14.36h1.328v-14.36zm0 0"/></symbol><symbol overflow="visible" id="o"><path d="M11.344-4.313h1.328v-8.843h-1.328v2.547H8.969v1.078h2.375v1.5H8.969v1.078h2.375zM3.969-11.03h2.156v4.656c-.719.031-1.453.078-2.156.094zM9.28-6.625c-.594.078-1.234.14-1.875.188v-4.594h1.422v-1.047H1.281v1.047h1.422v4.765c-.64.016-1.265.016-1.812.016l.156 1.078c2.312 0 5.547-.047 8.312-.469zM7.937.141C5.767.14 4.47-.438 4.47-1.438c0-.984 1.297-1.578 3.468-1.578 2.172 0 3.47.594 3.47 1.579 0 1-1.298 1.578-3.47 1.578zm0-4.157c-2.984 0-4.78.922-4.78 2.579 0 1.656 1.796 2.609 4.78 2.609 2.954 0 4.766-.953 4.766-2.61 0-1.656-1.812-2.578-4.765-2.578zm0 0"/></symbol><symbol overflow="visible" id="p"><path d="M3.516-5.734L.156-1.016H2.75V0h.766v-1.016h.562v-.75h-.562zM1.546-1.75L2.75-3.469v1.719zm0 0"/></symbol><symbol overflow="visible" id="q"><path d="M2.234.094c.47 0 .844-.203 1.172-.578.563-.641.672-1.485.672-2.172 0-.703-.11-1.547-.672-2.188-.328-.39-.719-.578-1.172-.578-.468 0-.859.188-1.187.578C.5-4.204.375-3.359.375-2.656c0 .687.125 1.531.672 2.172.328.375.703.578 1.187.578zm0-4.797c.204 0 .47.094.704.437.28.438.359 1.125.359 1.594 0 .469-.078 1.156-.36 1.594-.234.36-.5.453-.703.453-.203 0-.484-.094-.718-.453-.282-.438-.36-1.125-.36-1.594 0-.469.078-1.156.36-1.594.234-.343.515-.437.718-.437zm0 0"/></symbol></defs><g fill="#231f20"><use xlink:href="#a" x="43.403" y="194.051"/><use xlink:href="#b" x="58.118" y="194.051"/><use xlink:href="#c" x="72.832" y="194.051"/><use xlink:href="#d" x="76.415" y="194.051"/><use xlink:href="#c" x="85.388" y="194.051"/><use xlink:href="#e" x="88.97" y="194.051"/><use xlink:href="#f" x="103.685" y="194.051"/><use xlink:href="#g" x="118.399" y="194.051"/><use xlink:href="#c" x="133.113" y="194.051"/><use xlink:href="#h" x="136.696" y="194.051"/><use xlink:href="#i" x="151.411" y="194.051"/><use xlink:href="#c" x="166.125" y="194.051"/><use xlink:href="#j" x="169.708" y="194.051"/><use xlink:href="#k" x="184.422" y="194.051"/><use xlink:href="#j" x="199.137" y="194.051"/><use xlink:href="#l" x="213.851" y="194.051"/><use xlink:href="#c" x="228.565" y="194.051"/><use xlink:href="#m" x="232.148" y="194.051"/><use xlink:href="#n" x="246.862" y="194.051"/><use xlink:href="#o" x="261.577" y="194.051"/><use xlink:href="#m" x="276.291" y="194.051"/></g><g fill="#7b7979"><use xlink:href="#p" x="27.429" y="818.875"/><use xlink:href="#q" x="31.645" y="818.875"/></g></svg>