<svg xmlns="http://www.w3.org/2000/svg" xmlns:xlink="http://www.w3.org/1999/xlink" width="793.033" height="1122.52" viewBox="0 0 594.7751 841.89" version="1.2"><defs><symbol overflow="visible" id="a"><path d="M.36 0h3.515v-.422H2.062c-.312 0-.64.031-.968.047 1.547-1.438 2.5-2.672 2.5-3.89 0-1-.61-1.673-1.625-1.673-.703 0-1.188.36-1.625.844l.281.282c.344-.422.797-.735 1.297-.735.828 0 1.203.578 1.203 1.297 0 1.063-.781 2.266-2.766 3.969zm0 0"/></symbol><symbol overflow="visible" id="b"><path d="M2.14.11c1.063 0 1.72-1 1.72-3.047 0-2.016-.657-3-1.72-3-1.062 0-1.718.984-1.718 3C.422-.892 1.078.108 2.14.108zm0-.391c-.75 0-1.25-.89-1.25-2.656 0-1.735.5-2.61 1.25-2.61s1.25.875 1.25 2.61c0 1.765-.5 2.656-1.25 2.656zm0 0"/></symbol><symbol overflow="visible" id="c"><path d="M2.922-2.344c.36 0 .734-.234 1-.734l-.281-.188c-.204.407-.438.547-.704.547-.5 0-.906-.781-1.578-.781-.375 0-.734.234-1 .734l.266.188c.219-.406.453-.547.703-.547.516 0 .906.781 1.594.781zm0 0"/></symbol><symbol overflow="visible" id="d"><path d="M4.438-4.578v.36h1.375v1.109H4.438v.359h1.375v1.625h.421v-5.406h-.421v1.953zm.046-1.016h-1.78v-.953h-.438v.953H.453v.344h4.031zM1.313-3.437c0-.579.468-1 1.171-1 .688 0 1.157.421 1.157 1 0 .578-.47.984-1.157.984-.703 0-1.171-.406-1.171-.985zm2.75 0c0-.813-.641-1.344-1.579-1.344-.937 0-1.578.531-1.578 1.343 0 .813.64 1.329 1.578 1.329.938 0 1.579-.516 1.579-1.329zM2.188.03v-1.625h-.422V.391h4.656V.03zm0 0"/></symbol><symbol overflow="visible" id="e"><path d="M2.453-5.281h1.438v-.36H.547v.36h1.5v.765c0 1.485-.64 2.672-1.64 3.22l.28.327c.782-.453 1.344-1.265 1.579-2.344.25.954.78 1.688 1.515 2.094l.266-.328c-.969-.5-1.594-1.64-1.594-2.969zm3.594-1.266v2.953H4.89v-2.781h-.407V.172h.407v-3.39h1.156v3.78h.406v-7.109zm0 0"/></symbol><symbol overflow="visible" id="f"><path d="M4.688-5.594H2.796v-.937h-.422v.937H.485v.344h4.202zM1.296-3.469c0-.578.531-.969 1.281-.969.766 0 1.281.391 1.281.97 0 .546-.515.952-1.28.952-.75 0-1.282-.406-1.282-.953zm2.953 0c0-.797-.656-1.312-1.672-1.312-1 0-1.672.515-1.672 1.312 0 .781.672 1.297 1.672 1.297 1.016 0 1.672-.515 1.672-1.297zM2.016-1.64h-.422V.391H6.28V.03H2.016zm3.906-2.468v-2.422H5.5v5.328h.422V-3.75h1.125v-.36zm0 0"/></symbol><symbol overflow="visible" id="g"><path d="M6.906-3.234v-.36H5.828c.188-.906.188-1.578.188-2.11v-.484H1.28v.36H5.61v.125c0 .531 0 1.187-.218 2.11H.453v.359h3v1.468H1.141v.36h4.515V.562h.438v-2.328H3.875v-1.468zm0 0"/></symbol><symbol overflow="visible" id="h"><path d="M3.578-1.547H1.203v-2.062h2.375zm0-2.406H1.203v-1.969H.781v4.734H4v-4.734h-.422zm3.531.297H5.86v-2.89h-.421V.562h.421v-3.844h1.25zm0 0"/></symbol><symbol overflow="visible" id="i"><path d="M5.797-6.547v7.11h.422v-7.11zm-3.281.578C1.484-5.969.75-5.016.75-3.53c0 1.484.734 2.437 1.766 2.437 1.03 0 1.765-.953 1.765-2.437 0-1.485-.734-2.438-1.765-2.438zm0 .375c.796 0 1.359.844 1.359 2.063 0 1.219-.563 2.078-1.36 2.078-.796 0-1.359-.86-1.359-2.078 0-1.219.563-2.063 1.36-2.063zm0 0"/></symbol><symbol overflow="visible" id="j"><path d="M1.516-4.219c0-.86.921-1.453 2.14-1.453 1.235 0 2.14.594 2.14 1.453 0 .86-.905 1.453-2.14 1.453-1.219 0-2.14-.593-2.14-1.453zM3.875-.766v-1.656c1.375-.062 2.328-.75 2.328-1.797 0-1.093-1.062-1.797-2.547-1.797-1.484 0-2.531.704-2.531 1.797 0 1.047.953 1.735 2.328 1.797v1.656h-3v.36h6.438v-.36zm0 0"/></symbol><symbol overflow="visible" id="k"><path d="M2.766-6C1.656-6 .89-5.344.89-4.375S1.656-2.75 2.766-2.75c1.109 0 1.875-.656 1.875-1.625S3.875-6 2.766-6zm0 .375c.843 0 1.468.516 1.468 1.25s-.625 1.25-1.468 1.25c-.844 0-1.47-.516-1.47-1.25s.626-1.25 1.47-1.25zm2.968-.922v7.11h.422v-7.11zM.563-1.078c1.296 0 3.062 0 4.703-.297l-.047-.328c-1.578.25-3.39.266-4.719.266zm0 0"/></symbol><symbol overflow="visible" id="l"><path d="M1.047-4.453c0-.75.594-1.297 1.39-1.297.813 0 1.391.547 1.391 1.297 0 .734-.578 1.281-1.39 1.281-.797 0-1.391-.547-1.391-1.281zm3.203 0c0-1-.75-1.656-1.813-1.656-1.046 0-1.796.656-1.796 1.656 0 .984.75 1.64 1.796 1.64 1.063 0 1.813-.656 1.813-1.64zM1.39-1.578H5.5v2.14h.422v-2.5H1.39zm5.641-3.438v-.359h-1.11v-1.172H5.5v4.234h.422V-3.5h1.11v-.36h-1.11v-1.156zm0 0"/></symbol><symbol overflow="visible" id="m"><path d="M4.64-4.203H2.657v-1.75h1.985zm-2.39 0H1.078v.36h5.14v-.36H5.064v-1.75h1.171v-.344H1.078v.344H2.25zM5.656.094H1.672V-1.36h3.984zm1.219-2.781v-.36H.453v.36h3v.968H1.266V.453h4.812v-2.172H3.875v-.968zm0 0"/></symbol><symbol overflow="visible" id="n"><path d="M4.484-5.766h-1.78v-.859h-.438v.86H.453v.359h4.031zM1.297-3.703c0-.547.484-.922 1.187-.922.688 0 1.157.375 1.157.922s-.47.922-1.157.922c-.703 0-1.187-.375-1.187-.922zm2.766 0c0-.781-.641-1.266-1.579-1.266-.937 0-1.578.485-1.578 1.266s.64 1.265 1.578 1.265c.938 0 1.579-.484 1.579-1.265zM5.827.094H2.172v-.922h3.656zm0-1.266H2.172v-.86H1.75V.454h4.484V-2.03h-.406zm-.016-5.375v1.75H4.438v.36h1.375v1.015H4.438v.344h1.375v.703h.422v-4.172zm0 0"/></symbol><symbol overflow="visible" id="o"><path d="M4.984-5.625H3.047v-.938h-.438v.938H.656v.36h4.328zm-3.421 2.14c0-.562.515-.953 1.265-.953.75 0 1.266.391 1.266.954 0 .562-.516.968-1.266.968s-1.265-.406-1.265-.968zm1.484 1.297C3.922-2.265 4.5-2.75 4.5-3.484c0-.797-.672-1.297-1.672-1.297-1 0-1.672.5-1.672 1.297 0 .75.578 1.234 1.453 1.296v.876c-.75.03-1.468.046-2.109.046l.063.36c1.343 0 3.093-.016 4.703-.281L5.234-1.5c-.703.094-1.453.14-2.187.172zm2.687-4.359V.547h.422v-7.094zm0 0"/></symbol><symbol overflow="visible" id="q"><path d="M2.688-5.89H2.28v1.421c0 1.282-.969 2.64-1.89 3.125l.25.36C1.42-1.438 2.187-2.406 2.5-3.5c.313 1.047 1.063 1.938 1.844 2.36l.25-.329c-.922-.484-1.907-1.765-1.907-3zm4.421 2.312H5.86v-2.969h-.421v7.11h.421V-3.22h1.25zm0 0"/></symbol><symbol overflow="visible" id="r"><path d="M.938-4.438c0-.734.515-1.296 1.218-1.296s1.235.562 1.235 1.296c0 .735-.532 1.297-1.235 1.297-.703 0-1.219-.562-1.219-1.296zm3.75.204v1.875h.406v-4.032h-.407v1.797h-.921c-.079-.89-.735-1.5-1.61-1.5-.922 0-1.61.688-1.61 1.657 0 .984.688 1.656 1.61 1.656.875 0 1.516-.594 1.61-1.453zm-2.97 2.671h4.25V.563h.438v-2.484H1.72zm4.266-4.984v4.25h.422v-4.25zm0 0"/></symbol><symbol overflow="visible" id="s"><path d="M6.531-2.938C5.516-3.14 3.86-4.171 3.86-5.453v-.578h-.437v.578c0 1.297-1.625 2.312-2.656 2.516l.187.343c.953-.219 2.25-.984 2.688-2.078.453 1.094 1.75 1.86 2.703 2.078zM3.86-.78v-1.813h-.421V-.78H.453v.36h6.438v-.36zm0 0"/></symbol><symbol overflow="visible" id="t"><path d="M1.016-3.781c1.046-.14 2.265-.656 2.64-1.5.406.843 1.625 1.36 2.656 1.5l.157-.344c-1.094-.125-2.547-.766-2.547-1.719v-.062h2.375v-.36h-5.25v.36h2.375v.062c0 .953-1.453 1.594-2.563 1.719zm.656 2.328h3.984V.094H1.672zM1.266.453h4.812v-2.25H1.266zM3.875-3.03V-4.11h-.422v1.078h-3v.36h6.422v-.36zm0 0"/></symbol><symbol overflow="visible" id="u"><path d="M4.531-2.844c-.984-.36-1.828-1.297-1.828-2.312v-.969h-.406v.938c0 1.187-.813 2.14-1.813 2.546l.22.344a3.114 3.114 0 0 0 1.812-1.969c.296.797 1 1.454 1.796 1.766zM2.047-1.78h-.438V.39h4.657V.03h-4.22zm3.875-2.516v-2.25H5.5v5.281h.422v-2.671h1.125v-.36zm0 0"/></symbol><symbol overflow="visible" id="v"><path d="M5.813.094H2.219V-.97h3.594zm0-1.422H2.219V-2.36h-.422V.453h4.437v-2.812h-.421zm-3.438-2c-.813 0-1.39-.547-1.39-1.25 0-.734.578-1.266 1.39-1.266.813 0 1.39.532 1.39 1.266 0 .703-.578 1.25-1.39 1.25zm3.438-3.219v1.766H4.171c-.11-.86-.813-1.422-1.797-1.422-1.063 0-1.797.656-1.797 1.625 0 .953.735 1.61 1.797 1.61 1 0 1.703-.579 1.797-1.454h1.64v1.688h.422v-3.813zm0 0"/></symbol><symbol overflow="visible" id="w"><path d="M4.5-2.984c-.969-.329-1.766-1.188-1.766-2.172v-.469h1.672v-.36H.625v.36h1.688v.484c0 1.079-.844 1.985-1.844 2.344l.234.344c.828-.328 1.531-.985 1.828-1.86.297.766.953 1.375 1.766 1.672zM3.687.187c-1.14 0-1.874-.343-1.874-.921 0-.563.734-.907 1.875-.907 1.14 0 1.874.344 1.874.907 0 .578-.734.921-1.875.921zm0-2.171c-1.421 0-2.28.453-2.28 1.25 0 .812.859 1.265 2.28 1.265C5.11.531 5.985.078 5.985-.734c0-.797-.875-1.25-2.296-1.25zm2.235-2.657v-1.906H5.5v4.328h.422v-2.047h1.125v-.375zm0 0"/></symbol><symbol overflow="visible" id="x"><path d="M.734 0H3.75v-.406H2.531v-5.422h-.375c-.281.156-.64.281-1.11.36v.312h1.016v4.75H.734zm0 0"/></symbol><symbol overflow="visible" id="y"><path d="M2.031.11c.922 0 1.813-.72 1.813-1.985 0-1.297-.766-1.875-1.719-1.875-.406 0-.703.125-.984.281l.171-1.953h2.25v-.406H.892L.703-3.172 1-2.984c.328-.22.61-.375 1.031-.375.813 0 1.344.578 1.344 1.5 0 .953-.625 1.562-1.36 1.562-.765 0-1.203-.328-1.53-.687l-.266.328c.375.375.906.765 1.812.765zm0 0"/></symbol><symbol overflow="visible" id="z"><path d="M1.938 1.547l.28-.14C1.532.28 1.173-1.079 1.173-2.47c0-1.375.36-2.734 1.047-3.86l-.281-.155C1.203-5.297.766-4.031.766-2.47c0 1.563.437 2.844 1.171 4.016zm0 0"/></symbol><symbol overflow="visible" id="A"><path d="M1.047-3.14c.984-.204 2.203-.829 2.61-1.75.421.921 1.64 1.546 2.624 1.75l.172-.344c-1.062-.172-2.562-1-2.562-2.063v-.156h2.343v-.36H1.078v.36h2.36v.156c0 1.063-1.516 1.89-2.563 2.063zm5.828.718H.453v.344h2.985V.547h.421v-2.625h3.016zm0 0"/></symbol><symbol overflow="visible" id="B"><path d="M.578 1.547C1.313.375 1.75-.906 1.75-2.47c0-1.562-.438-2.828-1.172-4.015l-.281.156c.687 1.125 1.062 2.484 1.062 3.86 0 1.39-.375 2.75-1.062 3.874zm0 0"/></symbol><symbol overflow="visible" id="C"><path d="M.938-4.469c0-.718.515-1.281 1.218-1.281s1.219.563 1.219 1.281c0 .703-.516 1.266-1.219 1.266-.703 0-1.219-.563-1.219-1.266zm3.75.172v1.781h.406V-6.39h-.407v1.735h-.921c-.094-.86-.735-1.453-1.61-1.453-.937 0-1.61.671-1.61 1.64 0 .953.673 1.625 1.61 1.625.875 0 1.531-.594 1.61-1.453zm-2.454 2.61h3.75v1.78h-3.75zM1.828.453h4.578V-2.03H1.828zm4.156-7v4.125h.422v-4.125zm0 0"/></symbol><symbol overflow="visible" id="D"><path d="M1.36-1.61v-3.859h2.874v-.375H.922v4.61h.562c1.375 0 2.313-.063 3.47-.266l-.048-.375c-1.125.219-2.078.266-3.422.266zm4.437-4.937v7.11h.422v-7.11zm0 0"/></symbol><symbol overflow="visible" id="E"><path d="M5.625-4.172H1.719v-1.703h3.906zm.422-2.047h-4.75v2.39h4.75zM1.703-1.562h-.437V.39h4.921V.03H1.704zM.453-2.891v.36H2.72v1.578h.422v-1.578h1.593v1.578h.422v-1.578h1.719v-.36zm0 0"/></symbol><symbol overflow="visible" id="F"><path d="M4.563-2.938C3.578-3.25 2.766-4.062 2.766-5v-.25h1.671v-.36H2.766v-.984h-.422v.985H.656v.359h1.688V-5c0 1.047-.844 1.922-1.828 2.25l.203.344c.828-.313 1.547-.953 1.844-1.781.296.734.984 1.312 1.796 1.593zM3.688.188c-1.141 0-1.876-.344-1.876-.891 0-.563.735-.89 1.875-.89 1.141 0 1.876.327 1.876.89 0 .547-.735.89-1.875.89zm0-2.126c-1.438 0-2.282.438-2.282 1.235C1.406.094 2.25.53 3.688.53c1.437 0 2.296-.437 2.296-1.234 0-.797-.859-1.235-2.296-1.235zm2.234-2.671v-1.938H5.5v4.39h.422v-2.077h1.125v-.375zm0 0"/></symbol><symbol overflow="visible" id="G"><path d="M.563 1.406c.562-.281.953-.828.953-1.484 0-.422-.188-.688-.47-.688-.218 0-.437.141-.437.391a.41.41 0 0 0 .422.422c.032 0 .063 0 .094-.016 0 .485-.281.86-.703 1.078zm0 0"/></symbol><symbol overflow="visible" id="I"><path d="M1.156-1.656v-3.64h2.235v-.36H.75v4.375h.438c1.171 0 1.859-.047 2.687-.235l-.047-.359c-.797.188-1.484.219-2.656.219zm4.875-4.89v2.921H4.813v-2.75h-.407V.172h.407v-3.438H6.03V.547h.422v-7.094zm0 0"/></symbol><symbol overflow="visible" id="J"><path d="M2.797-2.61H4.53v1.891H2.797zm-.14-2.859H4.64v2.5H2.656zm2.296 4.75v-1.89H6.25v-.36H5.062v-2.5H6.25v-.36H1.062v.36H2.25v2.5H1.062v.36h1.313v1.89H.453v.36h6.453v-.36zm0 0"/></symbol><symbol overflow="visible" id="K"><path d="M.688-2.063l1.578-2.312a8.18 8.18 0 0 0 .468-.797h.047c-.031.266-.047.703-.047.969v2.14zm3.328 0h-.829v-3.765h-.453L.156-1.953v.297h2.578V0h.454v-1.656h.828zm0 0"/></symbol><symbol overflow="visible" id="L"><path d="M.938-5.781v.36h2.75c-.032.5-.11.968-.266 1.421l-2.844.203.11.39L3.28-3.64C2.828-2.609 1.97-1.703.578-1.016l.25.344c2.469-1.219 3.266-3.14 3.266-5.11zm6.156 2.218H5.859v-2.984h-.421v7.11h.421v-3.766h1.235zm0 0"/></symbol><symbol overflow="visible" id="M"><path d="M3.875-.781V-2.86h2.25v-.36H1.703v-2.687h-.422v3.047h2.172v2.078h-3v.36h6.438v-.36zm0 0"/></symbol><symbol overflow="visible" id="N"><path d="M6.516-2.86C5.5-3.062 3.859-4.124 3.859-5.437v-.578h-.437v.579c0 1.312-1.61 2.375-2.625 2.578l.187.359c.954-.25 2.22-1.031 2.657-2.14.453 1.109 1.734 1.906 2.671 2.14zM.453-.812v.36h6.438v-.36zm0 0"/></symbol><symbol overflow="visible" id="O"><path d="M2.984-1.781H1.141v-3.547h1.843zm1.672-2.032H3.391v-1.859H.75v4.25h2.64v-2.031h1.266v3.64h.407v-6.562h-.407zm1.39-2.734v7.11h.407v-7.11zm0 0"/></symbol><symbol overflow="visible" id="P"><path d="M6.11-3.063H1.733v-2.421h4.313v-.36H1.313v3.14h4.796zM.452-.828v.36h6.438v-.36zm0 0"/></symbol><symbol overflow="visible" id="Q"><path d="M.734-5.594v.36h2.329C2.969-3.75 2.28-2.281.5-1.313l.266.297C2.812-2.14 3.469-3.89 3.469-5.594zm5.297-.953v2.969H4.86V-6.36h-.406V.17h.406v-3.39h1.172V.562h.407v-7.109zm0 0"/></symbol><symbol overflow="visible" id="R"><path d="M3.594-3.531H1.219v-1.266h2.375zm.422-2.735h-.422v1.125H1.219v-1.125H.797v3.094h3.219zM1.953-.859h3.969v-1.594H1.516v.344h4v.906H1.53V.453H6.22V.11H1.953zm3.969-4.063v-1.625H5.5v3.703h.422v-1.719h1.11v-.359zm0 0"/></symbol><symbol overflow="visible" id="S"><path d="M4.625-3.61c-1.016.204-1.86.25-3.281.25h-.11v-2.343h2.688v-.36H.812V-3h.532c1.437 0 2.297-.047 3.343-.25zM1.969-1.733H5.5V.094H1.969zM1.547.437h4.375v-2.515H1.547zm5.5-5.171H5.922v-1.813H5.5V-2.5h.422v-1.875h1.125zm0 0"/></symbol><symbol overflow="visible" id="T"><path d="M4.625-3.531c-1 .187-1.86.25-3.281.25h-.11v-2.313h2.688v-.36H.812v3.032h.532c1.437 0 2.297-.062 3.343-.265zM3.687.188c-1.14 0-1.874-.376-1.874-.97 0-.577.734-.952 1.875-.952 1.14 0 1.874.375 1.874.953 0 .594-.734.969-1.875.969zm0-2.266c-1.421 0-2.28.469-2.28 1.297 0 .844.859 1.312 2.28 1.312C5.11.531 5.985.062 5.985-.78c0-.828-.875-1.297-2.296-1.297zm2.235-2.516v-1.953H5.5v4.313h.422v-2h1.125v-.36zm0 0"/></symbol><symbol overflow="visible" id="U"><path d="M5.61-3.578H1.733v-1.25H5.61zm.437-2.672h-.438v1.078H1.734V-6.25h-.437v3.031h4.75zm.844 3.984H.437v.36h3V.562h.422v-2.468h3.032zm0 0"/></symbol><symbol overflow="visible" id="V"><path d="M4.563-3.656H3.218c.234-.672.328-1.36.328-2.031H.844v.359h2.281c-.016.453-.078.89-.219 1.312L.5-3.844l.078.39 2.219-.218c-.375.906-1.063 1.766-2.266 2.39l.25.329c1.172-.64 1.875-1.469 2.297-2.36h1.485V.172h.406V-6.36h-.407zm1.484-2.89V.562h.406v-7.11zm0 0"/></symbol><symbol overflow="visible" id="W"><path d="M.89-5.813v4.532h3.188v-4.532zm2.766.344v3.828h-2.36v-3.828zm2.14-1.078v7.11h.423v-7.11zm0 0"/></symbol><symbol overflow="visible" id="X"><path d="M1.078-3.453c1.016-.172 2.203-.75 2.578-1.64.39.89 1.578 1.468 2.594 1.64l.172-.344c-1.063-.156-2.5-.875-2.5-1.89v-.125h2.375v-.36h-5.25v.36h2.375v.125c0 1.015-1.438 1.734-2.516 1.89zm.656 1.844h-.421v2h4.859V.03H1.734zm2.141-1.032v-1.296h-.422v1.296h-3v.36h6.453v-.36zm0 0"/></symbol><symbol overflow="visible" id="Y"><path d="M5.61-5.547c0 .563 0 1.094-.188 1.813l.406.046c.203-.718.203-1.28.203-1.859v-.61H1.234v.36H5.61zM3.64.187c-1.203 0-2.015-.359-2.015-.937 0-.563.813-.938 2.016-.938 1.218 0 2.046.375 2.046.938 0 .578-.828.938-2.046.938zm0-2.218c-1.5 0-2.437.484-2.437 1.281 0 .813.938 1.281 2.438 1.281C5.156.531 6.094.062 6.094-.75c0-.797-.938-1.281-2.453-1.281zm.032-1.125v-1.438H3.25v1.438H.469v.36h6.406v-.36zm0 0"/></symbol><symbol overflow="visible" id="Z"><path d="M3.656.203c-1.203 0-1.984-.344-1.984-.922 0-.578.781-.922 1.984-.922 1.219 0 2 .344 2 .922 0 .578-.781.922-2 .922zm0-2.187c-1.5 0-2.406.453-2.406 1.265 0 .813.906 1.266 2.406 1.266C5.172.547 6.078.094 6.078-.72c0-.812-.906-1.265-2.422-1.265zm.203-.97v-.952h2.25v-.36H1.703v-1.593h4.36v-.36H1.28v2.313h2.172v.953h-3v.36h6.422v-.36zm0 0"/></symbol><symbol overflow="visible" id="aa"><path d="M6.219-6.547h-.422v4.11h.422zM3.656-3.578H1.25v-2.14h2.406zm.406-2.5H.829v2.86h3.235zm.22 4.531h2.155v-.344H4.281v-.765h-.437v.765H1.719v.344h2.125v.078c0 .813-1.39 1.516-2.422 1.657l.156.343C2.547.36 3.656-.172 4.062-.89 4.454-.17 5.532.36 6.517.531l.14-.344C5.625.032 4.281-.671 4.281-1.468zm0 0"/></symbol><symbol overflow="visible" id="ab"><path d="M5.813-4.766v1.125H3.765v.36h2.046v1.094h.422v-4.344h-.421v1.406H3.984a3.05 3.05 0 0 0 .11-.844H.922v.344H3.64c-.11 1.39-1.344 2.453-3.079 3l.204.344C2.25-2.75 3.39-3.61 3.859-4.766zM3.952.188c-1.156 0-1.906-.391-1.906-.985s.75-.969 1.906-.969 1.906.375 1.906.97c0 .593-.75.984-1.906.984zm0-2.297c-1.437 0-2.328.484-2.328 1.312 0 .844.89 1.328 2.328 1.328 1.438 0 2.313-.484 2.313-1.328 0-.828-.875-1.312-2.313-1.312zm0 0"/></symbol><symbol overflow="visible" id="ac"><path d="M.984-4.453c0-.734.594-1.297 1.391-1.297s1.39.563 1.39 1.297-.593 1.297-1.39 1.297c-.797 0-1.39-.563-1.39-1.297zm4.829-.656v1.312H4.046c.078-.187.125-.422.125-.656 0-.234-.047-.453-.125-.656zm0 1.671v1.126h.421v-4.235h-.421v1.078H3.827c-.312-.39-.844-.64-1.453-.64-1.031 0-1.797.687-1.797 1.656 0 .984.766 1.672 1.797 1.672.61 0 1.14-.25 1.453-.656zM3.938.188C2.78.188 2.03-.189 2.03-.797c0-.61.75-1 1.906-1 1.172 0 1.922.39 1.922 1s-.75.985-1.921.985zm0-2.329c-1.438 0-2.329.5-2.329 1.344C1.61.047 2.5.531 3.938.531 5.39.531 6.265.047 6.265-.797c0-.844-.875-1.344-2.329-1.344zm0 0"/></symbol><symbol overflow="visible" id="ad"><path d="M1.031-3.453c1.063-.14 2.219-.578 2.625-1.39.422.812 1.578 1.25 2.64 1.39l.141-.328c-1.171-.14-2.546-.703-2.546-1.688h2.312v-.343H3.875v-.782h-.422v.782H1.141v.343h2.296c0 .985-1.374 1.547-2.546 1.688zM3.656.203c-1.219 0-1.984-.312-1.984-.828s.766-.828 1.984-.828c1.235 0 2 .312 2 .828s-.765.828-2 .828zm0-1.984c-1.515 0-2.406.406-2.406 1.156 0 .75.89 1.156 2.406 1.156 1.531 0 2.422-.406 2.422-1.156 0-.75-.89-1.156-2.422-1.156zm.219-1.016v-1h-.422v1h-3v.344h6.422v-.344zm0 0"/></symbol><symbol overflow="visible" id="ae"><path d="M4.125-3.953c.203-.844.203-1.485.203-1.86v-.296H.891v.359h3.015c0 .375 0 .938-.187 1.734zm.828.406c-.781.11-1.64.156-2.469.188v-1.36h-.421v1.375c-.563.031-1.126.031-1.61.031l.047.36c1.281 0 3-.031 4.484-.266zM1.828-.828h4.063v-1.516h-4.5V-2h4.093v.844H1.406V.469h4.782V.125h-4.36zM5.891-4.75v-1.797h-.422v3.86h.422v-1.704h1.125v-.359zm0 0"/></symbol><symbol overflow="visible" id="af"><path d="M2-2.61c-.813 0-1.172-.624-1.172-1.468s.469-1.469 1.11-1.469c.906 0 1.375.797 1.421 2.078-.437.61-.921.86-1.359.86zM.484-.452c.313.328.72.562 1.297.562 1.063 0 2.047-.89 2.047-3.343 0-1.75-.75-2.704-1.89-2.704-.844 0-1.563.766-1.563 1.86 0 1.187.594 1.844 1.563 1.844.546 0 1.046-.313 1.437-.782C3.312-1 2.594-.296 1.781-.296c-.39 0-.75-.157-1.015-.47zm0 0"/></symbol><symbol overflow="visible" id="ag"><path d="M1.64 0h.5c.094-2.281.376-3.734 1.766-5.547v-.281H.391v.406h2.953C2.172-3.812 1.734-2.328 1.64 0zm0 0"/></symbol><symbol overflow="visible" id="ah"><path d="M.984-4.688c0-.703.594-1.234 1.391-1.234s1.39.531 1.39 1.234c0 .72-.593 1.266-1.39 1.266-.797 0-1.39-.547-1.39-1.265zm4.829-.562v1.125H4.077c.063-.172.094-.36.094-.563 0-.203-.031-.39-.094-.562zm0 1.469v.937h.421v-3.703h-.421v.938H3.875c-.313-.422-.844-.672-1.5-.672-1.047 0-1.797.656-1.797 1.593 0 .954.75 1.61 1.797 1.61.672 0 1.203-.266 1.516-.703zM2.171.094v-.969h4.062v-1.578h-4.5v.344h4.079v.89H1.75V.453h4.781v-.36zm0 0"/></symbol><symbol overflow="visible" id="ai"><path d="M6.219-6.531h-.422v5.234h.422zM4.78-3c-1.187.203-2.156.25-3.406.25h-.14v-1.344H4V-6.03H.797v.375h2.781v1.218H.828v2.047h.547c1.266 0 2.234-.046 3.453-.25zM2.094.031v-1.734h-.438V.39h4.782V.03zm0 0"/></symbol><symbol overflow="visible" id="aj"><path d="M.89-5.766v.36h2.844C3.61-3.641 2.531-2.141.578-1.188l.235.344C3.108-1.969 4.155-3.78 4.155-5.766zm4.923-.78V.562h.421v-7.11zm0 0"/></symbol><symbol overflow="visible" id="ak"><path d="M6.5-4.375c-1.094-.14-2.625-.813-2.625-1.797v-.344h-.422v.344c0 .984-1.531 1.656-2.625 1.797l.14.328c1.016-.14 2.266-.672 2.688-1.5.422.828 1.656 1.36 2.688 1.5zm.375 1.25v-.344H.453v.344h3v.86H1.25v.343h4.36v.813H1.265V.453H6.25V.11H1.687v-.89h4.344v-1.485H3.875v-.859zm0 0"/></symbol><symbol overflow="visible" id="al"><path d="M6.14-3.422H1.767v-1.047H5.89v-.36H1.766v-1h4.296v-.359H1.345v3.125H6.14zm.75 1.219H.454v.36h3V.561h.422v-2.406h3.016zm0 0"/></symbol><symbol overflow="visible" id="am"><path d="M2.719-5.422H4.39v-.375H.594v.375h1.703v1.188C2.297-3 1.28-1.641.359-1.172l.266.344c.766-.422 1.578-1.39 1.89-2.469.313 1 1.079 1.89 1.844 2.297l.25-.344c-.937-.453-1.89-1.734-1.89-2.89zm4.39 1.844H5.86v-2.969h-.421v7.11h.421V-3.22h1.25zm0 0"/></symbol><symbol overflow="visible" id="an"><path d="M4.719-3.188c-1-.359-1.89-1.28-1.89-2.374v-.704h-.407v.704c0 1.125-.875 2.125-1.86 2.515l.22.328c.827-.344 1.562-1.062 1.843-1.969.313.86 1.047 1.516 1.86 1.844zm-2.578 1.5h3.671V.095H2.142zM1.719.454h4.515v-2.5H1.72zm4.093-7V-2.5h.422v-4.047zm0 0"/></symbol><symbol overflow="visible" id="ao"><path d="M1.547-1.578h4.266v2.14h.421v-2.5H1.547zm2.516-2.234c.078-.204.109-.407.109-.641 0-.234-.031-.438-.11-.64h1.75v1.28zm-1.688.671c-.797 0-1.39-.578-1.39-1.312 0-.734.593-1.328 1.39-1.328.797 0 1.39.593 1.39 1.328 0 .734-.593 1.312-1.39 1.312zm3.438-3.406v1.094H3.859c-.312-.422-.843-.688-1.484-.688-1.031 0-1.797.688-1.797 1.688 0 .984.766 1.672 1.797 1.672.64 0 1.172-.266 1.484-.688h1.954v1.094h.421v-4.172zm0 0"/></symbol><symbol overflow="visible" id="ap"><path d="M.078 1.422h.375l2.64-7.703H2.72zm0 0"/></symbol><symbol overflow="visible" id="aq"><path d="M1.828-5.36h1.406v3.626c-.468.03-.953.046-1.406.062zm1.828 0h.86v-.359H.546v.36h.86v3.687c-.36.016-.703.016-1.031.016l.063.375c1.28 0 3-.016 4.515-.25l-.031-.328c-.406.046-.828.078-1.266.109zM7.11-3.624H5.86v-2.922h-.421V.547h.421V-3.25h1.25zm0 0"/></symbol><symbol overflow="visible" id="ar"><path d="M6.125-2.61H1.75v-1.312h4.156v-.36H1.75v-1.25h4.313v-.359h-4.75v3.641h4.812zM.453-.78v.36h6.438v-.36zm0 0"/></symbol><symbol overflow="visible" id="as"><path d="M1.266-1.547v-4.187H.844v4.546h.531c1.172 0 2.125-.062 3.234-.28l-.062-.376c-1.078.235-2.016.297-3.172.297zm4.562-5v2.422h-2.36v.36h2.36V.562h.422v-7.11zm0 0"/></symbol><symbol overflow="visible" id="at"><path d="M2.172.11c1.031 0 1.734-.657 1.734-1.485 0-.797-.484-1.219-.984-1.516v-.046c.328-.266.797-.813.797-1.454 0-.875-.578-1.515-1.547-1.515-.844 0-1.5.593-1.5 1.437 0 .61.39 1.047.797 1.328v.032c-.532.296-1.11.859-1.11 1.656 0 .89.766 1.562 1.813 1.562zm.406-3.172c-.734-.297-1.453-.626-1.453-1.407 0-.625.438-1.062 1.047-1.062.703 0 1.11.531 1.11 1.156 0 .484-.235.922-.704 1.313zM2.172-.267c-.797 0-1.375-.53-1.375-1.203 0-.64.406-1.14.953-1.468.875.343 1.703.671 1.703 1.546 0 .625-.515 1.125-1.281 1.125zm0 0"/></symbol><symbol overflow="visible" id="au"><path d="M4.516-3.078c-.97-.36-1.813-1.297-1.813-2.313v-.812h-.422v.797c0 1.156-.812 2.125-1.812 2.515l.234.344a3.197 3.197 0 0 0 1.813-1.969c.28.813.984 1.454 1.765 1.766zM3.687.187c-1.14 0-1.874-.343-1.874-.89 0-.563.734-.906 1.875-.906 1.14 0 1.874.343 1.874.906 0 .547-.734.89-1.875.89zm0-2.14c-1.437 0-2.28.453-2.28 1.25C1.406.094 2.25.53 3.686.53c1.438 0 2.297-.437 2.297-1.234 0-.797-.859-1.25-2.296-1.25zm2.235-2.64v-1.954H5.5v4.375h.422v-2.062h1.125v-.36zm0 0"/></symbol><symbol overflow="visible" id="av"><path d="M1.031-3.688c1.032-.156 2.25-.687 2.625-1.515.39.828 1.61 1.36 2.656 1.516l.157-.344c-1.094-.14-2.547-.797-2.547-1.75v-.063h2.375v-.36h-5.25v.36h2.375v.063c0 .968-1.453 1.61-2.563 1.75zm4.625 3c0 .547-.781.891-1.984.891-1.219 0-2-.344-2-.89 0-.547.781-.875 2-.875 1.203 0 1.984.328 1.984.875zm1.219-2.125v-.359H.453v.36h3v.906c-1.39.047-2.203.468-2.203 1.218 0 .797.906 1.22 2.406 1.22 1.516 0 2.422-.423 2.422-1.22 0-.75-.812-1.187-2.203-1.218v-.907zm0 0"/></symbol><symbol overflow="visible" id="aw"><path d="M1.047-4.453c0-.75.594-1.297 1.406-1.297.797 0 1.375.547 1.375 1.297 0 .734-.578 1.266-1.375 1.266-.812 0-1.406-.532-1.406-1.266zm3.203 0c0-.984-.75-1.656-1.797-1.656-1.062 0-1.812.671-1.812 1.656 0 .969.75 1.64 1.812 1.64 1.047 0 1.797-.671 1.797-1.64zM3.687.187c-1.14 0-1.874-.359-1.874-.937 0-.578.734-.938 1.875-.938 1.14 0 1.874.36 1.874.938s-.734.938-1.875.938zm0-2.234c-1.421 0-2.28.485-2.28 1.297 0 .828.859 1.281 2.28 1.281C5.11.531 5.985.078 5.985-.75c0-.813-.875-1.297-2.296-1.297zm2.235-2.625v-1.875H5.5v4.25h.422v-2h1.125v-.375zm0 0"/></symbol><symbol overflow="visible" id="ax"><path d="M.984-4.344c0-.765.594-1.36 1.391-1.36s1.39.595 1.39 1.36c0 .797-.593 1.39-1.39 1.39-.797 0-1.39-.593-1.39-1.39zm4.829-.672v1.344h-1.75c.078-.203.109-.422.109-.672 0-.234-.047-.468-.11-.672zm0 1.704v2.046h.421v-5.28h-.421v1.171H3.859c-.328-.422-.843-.703-1.484-.703-1.031 0-1.797.719-1.797 1.734 0 1.047.766 1.75 1.797 1.75.64 0 1.172-.265 1.5-.719zM2.219.03v-1.843h-.422V.39h4.656V.03zm0 0"/></symbol><symbol overflow="visible" id="ay"><path d="M6.875-2.984h-1.11c.204-1.047.204-1.797.204-2.47v-.609H1.297v.36h4.25v.25c0 .672 0 1.422-.234 2.469H.452v.359h3V.563h.422v-3.188h3zm0 0"/></symbol><symbol overflow="visible" id="az"><path d="M4-2.89c-.89-.376-1.531-1.25-1.531-2.188v-.094h1.375v-.36H2.469v-.937h-.406v.938H.64v.36h1.421v.093c0 .984-.609 1.937-1.515 2.328l.234.313a2.757 2.757 0 0 0 1.485-1.766c.25.719.796 1.328 1.515 1.64zM1.719-1.407h4.25V.562h.437v-2.328H1.72zm4.265-5.14v1.968H4.875v-1.844h-.406v4.188h.406V-4.22h1.11v2.032h.421v-4.36zm0 0"/></symbol><symbol overflow="visible" id="aA"><path d="M5.813-6.547v4.094h.421v-4.094zm-4.094 4.5v2.5h4.515v-2.5zm4.093.36v1.78H2.142v-1.78zM2.454-6.141c-1.047 0-1.797.657-1.797 1.625 0 .985.75 1.641 1.797 1.641 1.063 0 1.797-.656 1.797-1.64 0-.97-.734-1.626-1.797-1.626zm0 .36c.813 0 1.39.531 1.39 1.265 0 .735-.577 1.282-1.39 1.282-.812 0-1.39-.547-1.39-1.282 0-.734.578-1.265 1.39-1.265zm0 0"/></symbol><symbol overflow="visible" id="aB"><path d="M4.234-2.297v.328H5.75v.844h.422v-5.406H5.75v4.234zm-1.5-3.61c.782 0 1.329.376 1.329.891 0 .532-.547.891-1.329.891-.78 0-1.328-.36-1.328-.89 0-.516.547-.891 1.328-.891zm0 2.11c1.047 0 1.735-.469 1.735-1.219 0-.75-.688-1.218-1.735-1.218C1.704-6.234 1-5.766 1-5.016s.703 1.22 1.734 1.22zm-.156 2.375H3v-1.437c.688-.047 1.406-.094 2.078-.22l-.047-.312c-1.531.204-3.297.22-4.625.22l.063.358c.625 0 1.344 0 2.11-.03zM1.906.031v-1.687h-.422V.39H6.36V.03zm0 0"/></symbol><symbol overflow="visible" id="aC"><path d="M1 .11c.219 0 .406-.172.406-.438S1.22-.766 1-.766c-.219 0-.406.172-.406.438S.78.109 1 .109zm0 0"/></symbol><symbol overflow="visible" id="aD"><path d="M.844 0h.484v-1.969l1.14-1.312L4.36 0h.547l-2.11-3.656 1.845-2.172h-.563L1.344-2.656h-.016v-3.172H.844zm0 0"/></symbol><symbol overflow="visible" id="aE"><path d="M1.344-2.344l.36-1.062a60.39 60.39 0 0 0 .624-2h.031c.204.703.407 1.328.641 2l.36 1.062zM4.125 0h.516L2.594-5.828h-.485L.063 0h.484l.656-1.953h2.281zm0 0"/></symbol><symbol overflow="visible" id="aF"><path d="M.844 0h.484v-5.828H.844zm0 0"/></symbol><symbol overflow="visible" id="aG"><path d="M2.39.11c1.141 0 1.891-.688 1.891-1.594 0-.891-.562-1.25-1.218-1.547l-.876-.39c-.421-.173-1-.423-1-1.095 0-.593.5-.984 1.25-.984.579 0 1.032.234 1.376.578l.265-.312a2.231 2.231 0 0 0-1.64-.704c-1 0-1.735.61-1.735 1.47 0 .859.672 1.218 1.188 1.452l.875.391c.578.25 1.03.469 1.03 1.172 0 .672-.546 1.125-1.405 1.125A2.243 2.243 0 0 1 .703-1.11l-.297.343C.875-.25 1.546.11 2.391.11zm0 0"/></symbol><symbol overflow="visible" id="aH"><path d="M2.094 0h.484v-5.422h1.844v-.406H.25v.406h1.844zm0 0"/></symbol><symbol overflow="visible" id="aI"><path d="M4.875-4.172h1.11v2.031h.421v-4.406h-.422v2.016H4.875v-1.875h-.406v4.031h.406zm-.89 1.078c-.876-.36-1.516-1.172-1.516-1.969v-1.046h-.406v1.046c0 .797-.657 1.75-1.547 2.141l.234.328c.719-.312 1.266-.984 1.516-1.687a2.67 2.67 0 0 0 1.5 1.5zM4.108.203c-1.156 0-1.906-.344-1.906-.906 0-.547.75-.89 1.906-.89 1.172 0 1.922.343 1.922.89 0 .562-.75.906-1.922.906zm0-2.14c-1.453 0-2.328.453-2.328 1.234C1.781.094 2.656.53 4.11.53c1.454 0 2.329-.437 2.329-1.234 0-.781-.875-1.235-2.329-1.235zm0 0"/></symbol><symbol overflow="visible" id="aJ"><path d="M5.61-4.531H1.718v-1.422h3.89zm.421-1.766H1.313v2.125H6.03zm.844 3.203v-.344H.453v.344h3v.844H1.25v.344h4.36v.797H1.265V.453H6.25V.11H1.687v-.89h4.344V-2.25H3.875v-.844zm0 0"/></symbol><symbol overflow="visible" id="aK"><path d="M4.688-5.719H2.796v-.875h-.422v.875H.485v.344h4.202zM1.296-3.64c0-.546.531-.921 1.281-.921.766 0 1.281.375 1.281.921 0 .547-.515.922-1.28.922-.75 0-1.282-.375-1.282-.922zm2.953 0c0-.78-.656-1.265-1.672-1.265-1 0-1.672.484-1.672 1.265 0 .782.672 1.266 1.672 1.266 1.016 0 1.672-.484 1.672-1.266zM1.39-1.312H5.5V.546h.422v-2.219H1.39zm5.657-3.204H5.922v-2.03H5.5v4.437h.422v-2.032h1.125zm0 0"/></symbol><symbol overflow="visible" id="aL"><path d="M4.11-2.578c.218-1.406.218-2.375.218-2.89v-.266H.781v.359h3.125c0 .516-.015 1.453-.219 2.75zM2.436-3.703h-.421v2.234c-.579.016-1.141.016-1.641.016l.063.375c1.28 0 2.984-.031 4.484-.266l-.031-.312c-.766.11-1.625.156-2.454.172zm4.626.187h-1.25v-3.03H5.39V.562h.421v-3.688h1.25zm0 0"/></symbol><symbol overflow="visible" id="aM"><path d="M.984-3.953c1.063-.125 2.297-.61 2.688-1.422.39.813 1.625 1.297 2.672 1.422l.156-.328c-1.11-.125-2.578-.703-2.578-1.625v-.032h2.375v-.359h-5.25v.36h2.375v.03c0 .923-1.485 1.5-2.594 1.626zM1.688-.75H6.03v-1.5H1.25v.328h4.36v.828H1.265V.453H6.25V.11H1.687zm2.187-2.563v-1h-.422v1h-3v.344h6.422v-.344zm0 0"/></symbol><symbol overflow="visible" id="aN"><path d="M4.547-3.063c-.969-.374-1.813-1.296-1.813-2.328v-.812h-.421v.797C2.313-4.25 1.5-3.281.5-2.891l.219.344a3.178 3.178 0 0 0 1.828-1.969c.281.813.984 1.47 1.765 1.797zm-3 1.485h4.266v2.14h.421v-2.484H1.547zm4.266-4.969v1.578H4.125v.36h1.688v2.234h.421v-4.172zm0 0"/></symbol><symbol overflow="visible" id="aO"><path d="M2.344-1.453C1.547-1.453 1-2.313 1-3.531c0-1.219.547-2.063 1.344-2.063.781 0 1.328.844 1.328 2.063 0 1.219-.547 2.078-1.328 2.078zm0-4.516c-1.031 0-1.75.953-1.75 2.438 0 1.484.719 2.437 1.75 2.437 1.015 0 1.734-.953 1.734-2.437 0-1.485-.719-2.438-1.734-2.438zm4.765 2.36H5.86v-2.938h-.421v7.11h.421V-3.25h1.25zm0 0"/></symbol><symbol overflow="visible" id="aP"><path d="M5.594-4.938c0 .922 0 1.813-.25 3.032l.422.047c.25-1.25.25-2.125.25-3.079v-.828H1.14v.36h4.453zM4.344-.89v-2.406h-.422V-.89H2.594v-2.406h-.422V-.89H.453v.36h6.422v-.36zm0 0"/></symbol><symbol overflow="visible" id="bt"><path d="M1.813.11c1.078 0 1.484-.766 1.484-1.72v-4.218h-.469v4.172c0 .922-.344 1.328-1.031 1.328-.484 0-.813-.188-1.094-.688l-.36.25c.298.563.798.875 1.47.875zm0 0"/></symbol><symbol overflow="visible" id="bu"><path d="M.844 0h.437v-3.703c0-.469-.031-1.11-.047-1.594h.032L1.719-4 2.953-.625h.39L4.564-4l.453-1.297h.03c-.015.484-.062 1.125-.062 1.594V0h.47v-5.828h-.641L3.609-2.484c-.14.421-.28.859-.437 1.28H3.14l-.454-1.28-1.203-3.344h-.64zm0 0"/></symbol><symbol overflow="visible" id="bv"><path d="M4.203-4.516v.36h1.61v2.843h.421v-5.234h-.421v2.031zm.375 1.688c-.969-.344-1.781-1.25-1.781-2.219v-.5h1.656v-.36H.687v.36h1.688v.516c0 1.078-.875 2.015-1.86 2.39l.235.344c.828-.328 1.547-1.047 1.844-1.922.297.782.969 1.422 1.781 1.735zM2.218.032v-1.829h-.421V.391h4.656V.03zm0 0"/></symbol><symbol overflow="visible" id="bw"><path d="M4.703-3.281c-1.187.203-2.156.234-3.375.234h-.11v-1.219h2.72v-1.843H.78v.359h2.75v1.14H.797v1.923h.531c1.25 0 2.203-.032 3.422-.22zM1.391-1.47H5.5V.547h.422v-2.375H1.39zm5.656-3.484v-.375H5.922v-1.219H5.5v4.328h.422v-1.265h1.125v-.36H5.922v-1.11zm0 0"/></symbol><symbol overflow="visible" id="bx"><path d="M5.813-2.313h.421v-4.234h-.421v1.64H4.125v.36h1.688zm-1.25-.734c-.985-.36-1.813-1.25-1.813-2.312v-.766h-.422v.781c0 1.157-.828 2.11-1.844 2.5L.72-2.5c.844-.344 1.547-1.047 1.828-1.953.297.812.984 1.422 1.765 1.734zM3.938.188c-1.157 0-1.891-.376-1.891-.97 0-.593.734-.968 1.89-.968 1.172 0 1.922.375 1.922.969s-.75.969-1.921.969zm0-2.282c-1.438 0-2.329.485-2.329 1.313C1.61.063 2.5.53 3.938.53 5.39.531 6.265.062 6.265-.78c0-.828-.875-1.313-2.329-1.313zm0 0"/></symbol><symbol overflow="visible" id="by"><path d="M1.719-1.797H1.28V.391h4.922V.03H1.72zm4.125-1.64c.187-.954.187-1.641.187-2.204v-.5h-4.75v.36H5.61v.14c0 .563 0 1.235-.187 2.204H.453v.359h2.14v1.828h.423v-1.828h1.562v1.828H5v-1.828h1.89v-.36zm0 0"/></symbol><symbol overflow="visible" id="bz"><path d="M4.14-3.531c.204-.953.204-1.672.204-2.11v-.328H.875v.36h3.047c0 .437 0 1.093-.203 2.046zm.798.5c-.766.125-1.625.172-2.454.203v-1.61h-.421v1.625c-.579.016-1.141.016-1.626.016l.063.375c1.266 0 2.984-.031 4.469-.281zM1.983-1.687h-.421V.39h4.562V.03h-4.14zm3.907-2.47v-2.39h-.422v5.375h.422v-2.61h1.125v-.374zm0 0"/></symbol><symbol overflow="visible" id="bA"><path d="M3.656-6.047c1.219 0 2.031.36 2.031.953 0 .594-.812.969-2.03.969-1.22 0-2.016-.375-2.016-.969 0-.593.796-.953 2.015-.953zm0 2.266c1.531 0 2.469-.469 2.469-1.313 0-.828-.938-1.297-2.469-1.297-1.515 0-2.453.47-2.453 1.297 0 .844.938 1.313 2.453 1.313zm1.078 1.937a5.318 5.318 0 0 0-1.078-.093c-.39 0-.75.03-1.047.093v-.937h2.125zm.922 1.14c0 .579-.781.907-2 .907-1.203 0-1.984-.328-1.984-.906 0-.547.781-.89 1.984-.89 1.219 0 2 .343 2 .89zM6.875-2.78v-.36H.453v.36h1.734v1.047c-.609.203-.937.562-.937 1.03 0 .813.906 1.25 2.406 1.25 1.516 0 2.422-.437 2.422-1.25 0-.468-.312-.812-.922-1.03v-1.047zm0 0"/></symbol><symbol overflow="visible" id="bB"><path d="M4.688-5.75H2.796v-.875h-.422v.875H.485v.344h4.202zm-3.391 2c0-.516.516-.89 1.281-.89.766 0 1.281.374 1.281.906 0 .53-.515.89-1.28.89-.75 0-1.282-.36-1.282-.906zm2.953 0c0-.75-.656-1.219-1.672-1.219-1.015 0-1.672.469-1.672 1.235 0 .765.656 1.234 1.672 1.234S4.25-2.969 4.25-3.75zM5.5.094H1.969v-.969H5.5zm0-1.313H1.969v-.89h-.422V.453h4.375v-2.562H5.5zm1.547-3.453H5.922v-1.875H5.5v4.11h.422v-1.86h1.125zm0 0"/></symbol><symbol overflow="visible" id="bC"><path d="M1.188-5.453h2.359v3.812h-2.36zM.78-1.297h3.172v-4.516H.781zM7.11-3.609H5.86v-2.938h-.421V.547h.421V-3.25h1.25zm0 0"/></symbol><symbol overflow="visible" id="bD"><path d="M6.234-6.531h-.421v4.453h.421zM4.86-3.266c-1.015.172-1.843.204-3.437.204h-.125V-4.22h2.75v-.343h-2.75v-1.079h2.937v-.375H.875v3.313h.547c1.61 0 2.437-.031 3.484-.219zM3.906.188C2.734.188 1.97-.156 1.97-.72c0-.562.765-.906 1.937-.906 1.188 0 1.938.344 1.938.906 0 .563-.75.906-1.938.906zm0-2.172c-1.453 0-2.36.453-2.36 1.265 0 .797.907 1.25 2.36 1.25 1.469 0 2.36-.453 2.36-1.25 0-.812-.891-1.265-2.36-1.265zm0 0"/></symbol><symbol overflow="visible" id="aQ"><path d="M.719-6.344V0h1.234v-2.344h.797c.734 0 1.266-.219 1.61-.562.484-.485.53-1.172.53-1.422 0-.453-.14-1.063-.656-1.531-.468-.407-.953-.485-1.671-.485zm1.234 1.078h.438c.28 0 .609.016.875.188.171.14.343.375.343.734 0 .266-.109.547-.343.735-.266.203-.563.203-.813.203h-.5zm0 0"/></symbol><symbol overflow="visible" id="aR"><path d="M.547 0h1.156v-1.969c0-.297.016-.64.234-.922.235-.28.547-.328.766-.328.235 0 .39.047.547.156l.156-1.093a1.5 1.5 0 0 0-.5-.094c-.281 0-.5.063-.687.188a1.51 1.51 0 0 0-.516.562v-.61H.547zm0 0"/></symbol><symbol overflow="visible" id="aS"><path d="M2.703-4.25c-.781 0-1.312.266-1.672.578a2.206 2.206 0 0 0-.687 1.625c0 .656.281 1.235.687 1.594.36.328.89.594 1.672.594.781 0 1.313-.266 1.656-.594.407-.36.688-.938.688-1.594 0-.672-.281-1.25-.688-1.625-.343-.312-.875-.578-1.656-.578zm0 3.36a1.157 1.157 0 0 1-1.172-1.157c0-.656.5-1.172 1.172-1.172.656 0 1.156.516 1.156 1.172 0 .625-.484 1.156-1.156 1.156zm0 0"/></symbol><symbol overflow="visible" id="aT"><path d="M2.797-3.125v-.984H1.734v-.985c0-.343.016-.562.125-.703a.455.455 0 0 1 .407-.219c.203 0 .359.047.53.172V-6.89a1.52 1.52 0 0 0-.671-.156c-.422 0-.766.14-1.016.344C.594-6.266.563-5.625.563-5.25v1.14H.14v.985h.421V0h1.172v-3.125zm0 0"/></symbol><symbol overflow="visible" id="aU"><path d="M3.531-1.328a1.072 1.072 0 0 1-.969.547c-.437 0-.703-.219-.828-.39a1.23 1.23 0 0 1-.203-.688H4.61v-.094c0-.453-.046-1.094-.484-1.625-.281-.328-.766-.672-1.61-.672-.484 0-1.062.11-1.546.578-.297.297-.625.797-.625 1.625 0 .64.187 1.172.64 1.594.407.39.922.594 1.579.594C4 .14 4.468-.844 4.592-1.156zM1.578-2.61c.094-.547.547-.813.969-.813.422 0 .875.266.984.813zm0 0"/></symbol><symbol overflow="visible" id="aV"><path d="M3.36-3.813c-.516-.39-1-.437-1.313-.437-.328 0-.75.047-1.063.297-.25.203-.437.531-.437.937 0 .329.125.579.312.782.25.265.594.39.891.5l.266.093c.156.047.359.157.359.422 0 .282-.25.438-.563.438-.343 0-.687-.203-.921-.469l-.61.703c.266.266.75.688 1.594.688.516 0 .906-.141 1.234-.438.344-.312.47-.687.47-1.047a1.2 1.2 0 0 0-.22-.687c-.234-.328-.718-.485-1.046-.594l-.266-.078c-.328-.11-.375-.266-.375-.375 0-.203.172-.328.453-.328.11 0 .39.015.672.265zm0 0"/></symbol><symbol overflow="visible" id="aW"><path d="M.547-4.11V0h1.156v-4.11zm-.11-1.75c0 .391.313.704.688.704a.7.7 0 0 0 .703-.703.697.697 0 0 0-.703-.688.694.694 0 0 0-.688.688zm0 0"/></symbol><symbol overflow="visible" id="aX"><path d="M.547 0h1.156v-2.094c0-.25.016-.531.188-.797.171-.265.406-.375.718-.375.11 0 .36.032.532.22.218.218.218.577.218.812V0h1.157v-2.578c0-.406-.032-.813-.313-1.172-.328-.39-.86-.5-1.219-.5-.671 0-1.062.36-1.28.672v-.531H.546zm0 0"/></symbol><symbol overflow="visible" id="aY"><path d="M3.703-3.578c-.39-.61-1-.672-1.312-.672-1.22 0-2.047.969-2.047 2.188C.344-.86 1.172.14 2.438.14c.296 0 .843-.078 1.265-.672V0H4.86v-4.11H3.703zm-1.031.36c.672 0 1.14.5 1.14 1.155 0 .657-.468 1.172-1.14 1.172-.656 0-1.14-.515-1.14-1.171 0-.657.484-1.157 1.14-1.157zm0 0"/></symbol><symbol overflow="visible" id="aZ"><path d="M.547-6.922V0h1.156v-6.922zm0 0"/></symbol><symbol overflow="visible" id="bb"><path d="M4.234-6.344H.72V0h3.515v-1.063h-2.28v-1.734H4.14v-1.062H1.953v-1.407h2.281zm0 0"/></symbol><symbol overflow="visible" id="bc"><path d="M.016 0H1.5l1.203-1.438L3.875 0h1.484L3.406-2.234l1.61-1.875h-1.47l-.843 1.062-.844-1.062H.406L1.97-2.234zm0 0"/></symbol><symbol overflow="visible" id="bd"><path d="M1.703-.531C2.172.079 2.75.14 3.031.14c.61 0 1.078-.25 1.39-.547.25-.219.657-.719.657-1.656 0-.813-.312-1.329-.625-1.641-.469-.453-1.047-.547-1.406-.547-.75 0-1.156.406-1.344.672v-.531H.547v6.28h1.156zM2.734-3.22c.282 0 .579.11.797.297.219.219.344.563.344.86 0 .312-.11.64-.36.874-.156.141-.406.297-.78.297-.36 0-.61-.14-.766-.28a1.207 1.207 0 0 1-.375-.891c0-.376.14-.657.39-.876.204-.203.454-.28.75-.28zm0 0"/></symbol><symbol overflow="visible" id="be"><path d="M3.64-4a2.47 2.47 0 0 0-1.109-.25c-.39 0-.969.094-1.484.531-.406.375-.703.953-.703 1.672 0 .781.344 1.281.656 1.578.375.36.938.61 1.578.61a2.32 2.32 0 0 0 1.063-.266V-1.25c-.313.281-.641.36-.907.36-.687 0-1.203-.5-1.203-1.172 0-.594.39-1.157 1.172-1.157.39 0 .703.125.938.36zm0 0"/></symbol><symbol overflow="visible" id="bf"><path d="M3.11-2.375H1.937v-2.063h1.171zm0-3.078H1.937v-2.094H.688v6.234h3.625v-6.234H3.109zM7.077-8.36v3.515h-.766v-3.36H5.079V.454h1.234V-3.78h.766V.844h1.25V-8.36zm0 0"/></symbol><symbol overflow="visible" id="bg"><path d="M8.078-8.344H6.75v6.719h1.328zM6.063-4.063c-1.5-.484-2.125-1.671-2.125-2.875v-.906H2.593v.907c0 1.218-.656 2.5-2.188 3.03l.656 1.048c1.079-.375 1.797-1.125 2.22-2.047.405.86 1.093 1.531 2.124 1.89zM3.265-.342v-1.923H1.953v2.97h6.36V-.345zm0 0"/></symbol><symbol overflow="visible" id="bh"><path d="M8.766-3.89H7.437c.266-1.516.266-2.579.266-3.36v-.594H1.406v1.078h4.985c-.016.72-.047 1.641-.282 2.875H.438v1.079h1.859V.874h1.312v-3.688h1.875V.876h1.313v-3.688h1.969zm0 0"/></symbol><symbol overflow="visible" id="bP"><path d="M1.016-7.813v1.032h2.843C3.672-5.563 2.516-4.547.484-4.047l.5 1.031c2.735-.687 4.282-2.359 4.282-4.796zm2.28 6.016h3.485V-.28H3.297zM1.985.75h6.094v-3.578H1.984zM6.75-8.344v5.125h1.328v-5.125zm0 0"/></symbol><symbol overflow="visible" id="bQ"><path d="M5.25-1.266v-1.921h2.625v-1.047h-5.14v-2.422h5.078V-7.72H1.405v4.532h2.532v1.921h-3.5v1.079h8.328v-1.079zm0 0"/></symbol><symbol overflow="visible" id="bR"><path d="M2.625-2.313H1.297V.704h6.766V-.344H2.625zm5-2.203c.172-1.046.172-1.875.172-2.609v-.797H1.422v1.047H6.5c0 .688-.016 1.422-.203 2.36H.437v1.046h2.75v2h1.297v-2h.922v2h1.297v-2h2.063v-1.047zm0 0"/></symbol><symbol overflow="visible" id="bj"><path d="M1.656-6.469h2.532v-.672H.844v5.672h.594c1.343 0 2.25-.047 3.328-.265l-.079-.688c-.984.219-1.828.266-3.03.266zM7.36-8.234v3.609H6.094v-3.406h-.782V.297h.782v-4.25h1.265V.734h.797v-8.968zm0 0"/></symbol><symbol overflow="visible" id="bk"><path d="M3.594-3.156h1.953v2.14H3.594zm-.14-3.578h2.233v2.921H3.454zm2.921 5.718v-2.14h1.516v-.656H6.516v-2.922h1.39v-.672H1.25v.672h1.39v2.921H1.267v.657H2.78v2.14H.516v.672h8.14v-.672zm0 0"/></symbol><symbol overflow="visible" id="bl"><path d="M7.047-8.234v9h.828v-9zm-3.906.687c-1.329 0-2.282 1.234-2.282 3.14 0 1.907.954 3.126 2.282 3.126S5.42-2.5 5.42-4.406c0-1.907-.952-3.14-2.28-3.14zm0 .75c.875 0 1.484.938 1.484 2.39 0 1.454-.61 2.391-1.484 2.391-.875 0-1.5-.937-1.5-2.39s.625-2.39 1.5-2.39zm0 0"/></symbol><symbol overflow="visible" id="bm"><path d="M3.547-7.453h-.813v1.61c0 1.64-1.03 3.359-2.312 4.015l.484.656C1.922-1.703 2.75-2.828 3.141-4.14c.406 1.235 1.218 2.282 2.171 2.797l.5-.656c-1.25-.625-2.265-2.266-2.265-3.844zm5.36 2.86h-1.47V-8.22H6.61V.734h.829v-4.64h1.468zm0 0"/></symbol><symbol overflow="visible" id="bn"><path d="M2.39 1.969l.563-.266c-.86-1.422-1.265-3.11-1.265-4.812 0-1.704.406-3.375 1.265-4.813l-.562-.266C1.469-6.688.92-5.062.92-3.109c0 1.968.548 3.578 1.47 5.078zm0 0"/></symbol><symbol overflow="visible" id="bo"><path d="M1.328-3.875c1.39-.234 2.719-.984 3.266-2.047.531 1.063 1.86 1.813 3.25 2.047l.328-.64C6.594-4.75 5.047-5.782 5.047-6.954v-.063h2.797v-.656H1.297v.656h2.828v.063c0 1.172-1.547 2.203-3.11 2.437zm7.313.75H.547v.672h3.61V.734h.827v-3.187h3.672zm0 0"/></symbol><symbol overflow="visible" id="bp"><path d="M.984 1.969C1.922.469 2.47-1.141 2.47-3.11c0-1.954-.547-3.579-1.485-5.079l-.546.266c.859 1.438 1.265 3.11 1.265 4.813 0 1.703-.406 3.39-1.266 4.812zm0 0"/></symbol><symbol overflow="visible" id="bq"><path d="M1.344-5.61c0-.812.562-1.39 1.312-1.39s1.297.578 1.297 1.39c0 .829-.547 1.423-1.297 1.423-.75 0-1.312-.594-1.312-1.422zm4.281.344v2.141h.766v-4.922h-.766v2.11h-.938c-.14-1.047-.953-1.75-2.03-1.75-1.188 0-2.032.859-2.032 2.078 0 1.25.844 2.093 2.031 2.093 1.078 0 1.89-.687 2.031-1.75zm-2.61 3.329h4.282v1.89H3.016zM2.204.624h5.89v-3.203h-5.89zm5.11-8.844v5.172h.78v-5.172zm0 0"/></symbol><symbol overflow="visible" id="br"><path d="M1.922-6.688h3.422v-.687H1.109v5.906h.72c1.812 0 2.984-.062 4.359-.312l-.094-.688c-1.313.25-2.438.297-4.172.297zm5.125-1.546v9h.828v-9zm0 0"/></symbol><symbol overflow="visible" id="bs"><path d="M6.797-5.36H2.375v-1.827h4.422zm.797-2.484H1.562v3.14h6.032zm-5.25 5.875h-.828V.547H7.78v-.672H2.344zM.547-3.703v.656h2.812v1.828h.829v-1.828h1.578v1.828h.812v-1.828h2.078v-.656zm0 0"/></symbol><symbol overflow="visible" id="bE"><path d="M2.375.125c1.422 0 2-1.016 2-2.281v-5.172h-.922v5.094c0 1.109-.39 1.546-1.172 1.546-.531 0-.937-.234-1.265-.812l-.672.469C.78-.266 1.438.125 2.375.125zm0 0"/></symbol><symbol overflow="visible" id="bF"><path d="M1 0h.844v-4.063c0-.625-.078-1.515-.11-2.156h.032l.578 1.672 1.39 3.813h.625L5.75-4.547l.578-1.672h.047c-.063.64-.125 1.532-.125 2.157V0h.875v-7.328H6L4.594-3.406c-.157.5-.328 1.015-.5 1.531h-.047c-.172-.516-.344-1.031-.516-1.531L2.125-7.328H1zm0 0"/></symbol><symbol overflow="visible" id="bG"><path d="M1 0h.938v-7.328H1zm0 0"/></symbol><symbol overflow="visible" id="bI"><path d="M7.094-5.906v1.203h-2.36v.656h2.36v1.188h.828v-5.36h-.828v1.64H5.062c.063-.312.094-.64.094-.968H1.11v.656h3.157c-.141 1.547-1.47 2.735-3.61 3.375l.328.657c1.922-.563 3.282-1.61 3.86-3.047zM4.984.062c-1.312 0-2.156-.406-2.156-1.093 0-.672.844-1.078 2.156-1.078 1.329 0 2.172.406 2.172 1.078 0 .687-.843 1.093-2.172 1.093zm0-2.828c-1.796 0-2.968.657-2.968 1.735S3.187.703 4.984.703c1.813 0 2.97-.656 2.97-1.734 0-1.078-1.157-1.735-2.97-1.735zm0 0"/></symbol><symbol overflow="visible" id="bJ"><path d="M1.453-5.563C1.453-6.405 2.11-7 2.984-7 3.86-7 4.5-6.406 4.5-5.562c0 .828-.64 1.437-1.516 1.437-.875 0-1.53-.61-1.53-1.438zm5.64-.703v1.391H5.157c.078-.219.125-.438.125-.688 0-.265-.047-.5-.11-.703zm0 2.063v1.281h.829v-5.312h-.828v1.296H4.797c-.422-.468-1.063-.75-1.813-.75-1.328 0-2.312.875-2.312 2.125s.984 2.125 2.312 2.125c.75 0 1.391-.28 1.813-.765zM4.954.078c-1.36 0-2.172-.39-2.172-1.062 0-.688.813-1.079 2.172-1.079 1.36 0 2.188.391 2.188 1.079 0 .671-.829 1.062-2.188 1.062zm0-2.781c-1.844 0-2.984.625-2.984 1.719C1.969.094 3.109.734 4.953.734s3-.64 3-1.718c0-1.094-1.156-1.72-3-1.72zm0 0"/></symbol><symbol overflow="visible" id="bK"><path d="M5.297-5.75v.672h1.797v3.422h.828V-8.22h-.828v2.469zm.516 2.11C4.516-4.095 3.64-5.22 3.64-6.39v-.438h1.968V-7.5H.813v.672h2v.453c0 1.266-.922 2.453-2.25 2.938l.421.64A3.853 3.853 0 0 0 3.25-5.03 3.69 3.69 0 0 0 5.406-3zM3.015-.126v-2.11h-.829V.548h5.985v-.672zm0 0"/></symbol><symbol overflow="visible" id="bL"><path d="M5.813-4.219c-1.36.235-2.516.297-4.079.297v-1.281h3.204v-2.5H.905v.672h3.219v1.187H.922v2.594h.703c1.672 0 2.844-.063 4.266-.297zM1.655-1.64h5.016V.734h.812v-3.03H1.656zm7.157-4.484v-.672H7.484v-1.422h-.812v5.453h.812v-1.468h1.329v-.688H7.484v-1.203zm0 0"/></symbol><symbol overflow="visible" id="bM"><path d="M1.453-5.406c0-.89.64-1.532 1.531-1.532.86 0 1.516.641 1.516 1.532 0 .89-.656 1.531-1.516 1.531-.89 0-1.53-.64-1.53-1.531zm5.64-.75v1.484H5.157c.078-.234.125-.484.125-.734 0-.282-.047-.532-.125-.75zm0 2.14v2.422h.829v-6.625h-.828v1.406H4.812c-.421-.53-1.062-.843-1.828-.843-1.328 0-2.312.937-2.312 2.25 0 1.312.984 2.25 2.312 2.25.766 0 1.422-.328 1.829-.86zM3.017-.125v-2.156h-.829V.547h5.985v-.672zm0 0"/></symbol><symbol overflow="visible" id="bN"><path d="M8.656-3.797H7.312c.25-1.281.25-2.234.25-3.078v-.781H1.548v.672h5.219v.109c0 .844 0 1.797-.282 3.078H.547v.672h3.61V.75h.827v-3.875h3.672zm0 0"/></symbol><symbol overflow="visible" id="bO"><path d="M8.266-3.844c-1.563-.281-3.282-1.61-3.282-3.094v-.687h-.859v.688c0 1.484-1.688 2.812-3.266 3.093l.344.672c1.375-.281 2.781-1.219 3.36-2.5.578 1.281 1.984 2.219 3.359 2.5zm-3.297 2.75V-3.28h-.813v2.187H.531v.657h8.14v-.657zm0 0"/></symbol><symbol overflow="visible" id="bS"><path d="M5.734-3.89c-1.328-.438-2.171-1.485-2.171-2.657v-.36h1.984v-.655H.734v.656h2v.36c0 1.28-.89 2.452-2.25 2.921l.422.64c1.078-.374 1.89-1.171 2.266-2.203.375.891 1.14 1.61 2.172 1.938zM4.641.077C3.297.078 2.5-.297 2.5-.938c0-.625.797-1 2.14-1 1.313 0 2.126.375 2.126 1 0 .641-.813 1.016-2.125 1.016zm0-2.656c-1.844 0-2.954.61-2.954 1.64C1.688.125 2.798.734 4.642.734c1.812 0 2.953-.609 2.953-1.671 0-1.032-1.14-1.641-2.953-1.641zm2.843-3.375V-8.22h-.812v5.406h.812v-2.453h1.329v-.687zm0 0"/></symbol><symbol overflow="visible" id="bT"><path d="M1.719.188L3.172-1.72c.234-.312.437-.547.64-.953a2.04 2.04 0 0 0 .25-1.015c0-.594-.234-.97-.453-1.204-.218-.234-.64-.53-1.343-.53-.594 0-1.032.202-1.36.546a1.92 1.92 0 0 0-.515 1.328c0 .563.218.953.484 1.219.203.219.594.5 1.219.5.094 0 .187-.016.281-.031L1.141-.25zm.5-2.72a1.05 1.05 0 0 1-.735-.296 1.098 1.098 0 0 1-.312-.781c0-.329.14-.61.312-.797.172-.157.454-.297.75-.297.266 0 .547.11.735.297.203.203.312.484.312.765 0 .282-.11.579-.312.797a1.016 1.016 0 0 1-.75.313zm0 0"/></symbol><symbol overflow="visible" id="bU"><path d="M3.734-5.328H1.578L.797-2.641a1.88 1.88 0 0 1 .469-.234c.203-.078.375-.11.609-.11.25 0 .594.047.86.282.156.172.312.437.312.875 0 .453-.188.734-.344.906-.125.125-.375.297-.797.297a1.32 1.32 0 0 1-.687-.188 1.191 1.191 0 0 1-.39-.468l-.61.515c.25.375.547.563.625.61.328.203.687.25 1 .25.531 0 1.031-.14 1.453-.547.344-.36.531-.828.531-1.422 0-.688-.265-1.11-.515-1.36-.313-.328-.766-.484-1.204-.484-.078 0-.171.016-.25.016l.266-.875h1.61zm0 0"/></symbol></defs><g fill="#231f20"><use xlink:href="#a" x="175.2" y="240.392"/><use xlink:href="#b" x="179.326" y="240.392"/><use xlink:href="#a" x="183.453" y="240.392"/><use xlink:href="#a" x="187.579" y="240.392"/><use xlink:href="#c" x="191.706" y="240.392"/><use xlink:href="#d" x="195.832" y="240.392"/><use xlink:href="#e" x="203.037" y="240.392"/></g><g fill="#231f20"><use xlink:href="#f" x="247.031" y="240.392"/><use xlink:href="#g" x="254.236" y="240.392"/><use xlink:href="#h" x="261.441" y="240.392"/><use xlink:href="#i" x="268.647" y="240.392"/><use xlink:href="#j" x="275.852" y="240.392"/><use xlink:href="#k" x="283.057" y="240.392"/><use xlink:href="#l" x="290.262" y="240.392"/><use xlink:href="#m" x="297.468" y="240.392"/><use xlink:href="#n" x="304.673" y="240.392"/><use xlink:href="#o" x="311.878" y="240.392"/><use xlink:href="#p" x="319.084" y="240.392"/><use xlink:href="#i" x="321.171" y="240.392"/><use xlink:href="#q" x="328.376" y="240.392"/></g><g fill="#231f20"><use xlink:href="#a" x="175.2" y="255.977"/><use xlink:href="#b" x="179.326" y="255.977"/><use xlink:href="#a" x="183.453" y="255.977"/><use xlink:href="#b" x="187.579" y="255.977"/><use xlink:href="#c" x="191.706" y="255.977"/><use xlink:href="#d" x="195.832" y="255.977"/><use xlink:href="#e" x="203.037" y="255.977"/></g><g fill="#231f20"><use xlink:href="#r" x="247.031" y="255.977"/><use xlink:href="#s" x="254.236" y="255.977"/><use xlink:href="#t" x="261.441" y="255.977"/><use xlink:href="#u" x="268.647" y="255.977"/><use xlink:href="#v" x="275.852" y="255.977"/><use xlink:href="#n" x="283.057" y="255.977"/><use xlink:href="#k" x="290.262" y="255.977"/><use xlink:href="#o" x="297.468" y="255.977"/><use xlink:href="#p" x="304.673" y="255.977"/><use xlink:href="#o" x="306.76" y="255.977"/><use xlink:href="#w" x="313.965" y="255.977"/></g><g fill="#231f20"><use xlink:href="#a" x="175.2" y="271.562"/><use xlink:href="#b" x="179.326" y="271.562"/><use xlink:href="#x" x="183.453" y="271.562"/><use xlink:href="#y" x="187.579" y="271.562"/><use xlink:href="#c" x="191.706" y="271.562"/><use xlink:href="#d" x="195.832" y="271.562"/><use xlink:href="#e" x="203.037" y="271.562"/></g><g fill="#231f20"><use xlink:href="#z" x="247.031" y="271.562"/><use xlink:href="#A" x="249.398" y="271.562"/><use xlink:href="#B" x="256.603" y="271.562"/><use xlink:href="#C" x="258.97" y="271.562"/><use xlink:href="#D" x="266.176" y="271.562"/><use xlink:href="#E" x="273.381" y="271.562"/><use xlink:href="#p" x="280.586" y="271.562"/><use xlink:href="#F" x="282.673" y="271.562"/><use xlink:href="#v" x="289.879" y="271.562"/><use xlink:href="#G" x="297.084" y="271.562"/><use xlink:href="#H" x="298.931" y="271.562"/><use xlink:href="#I" x="300.555" y="271.562"/><use xlink:href="#J" x="307.76" y="271.562"/><use xlink:href="#i" x="314.965" y="271.562"/><use xlink:href="#q" x="322.17" y="271.562"/></g><g fill="#231f20"><use xlink:href="#a" x="175.2" y="287.146"/><use xlink:href="#b" x="179.326" y="287.146"/><use xlink:href="#x" x="183.453" y="287.146"/><use xlink:href="#x" x="187.579" y="287.146"/><use xlink:href="#c" x="191.706" y="287.146"/><use xlink:href="#a" x="195.832" y="287.146"/><use xlink:href="#b" x="199.958" y="287.146"/><use xlink:href="#x" x="204.085" y="287.146"/><use xlink:href="#K" x="208.211" y="287.146"/></g><g fill="#231f20"><use xlink:href="#z" x="247.031" y="287.146"/><use xlink:href="#A" x="249.398" y="287.146"/><use xlink:href="#B" x="256.603" y="287.146"/><use xlink:href="#L" x="258.97" y="287.146"/><use xlink:href="#i" x="266.176" y="287.146"/><use xlink:href="#M" x="273.381" y="287.146"/><use xlink:href="#N" x="280.586" y="287.146"/><use xlink:href="#O" x="287.791" y="287.146"/><use xlink:href="#P" x="294.997" y="287.146"/><use xlink:href="#p" x="302.202" y="287.146"/><use xlink:href="#q" x="304.289" y="287.146"/><use xlink:href="#v" x="311.494" y="287.146"/><use xlink:href="#Q" x="318.7" y="287.146"/><use xlink:href="#R" x="325.905" y="287.146"/><use xlink:href="#S" x="333.11" y="287.146"/><use xlink:href="#T" x="340.316" y="287.146"/><use xlink:href="#p" x="347.521" y="287.146"/><use xlink:href="#U" x="349.608" y="287.146"/><use xlink:href="#q" x="356.813" y="287.146"/><use xlink:href="#w" x="364.019" y="287.146"/></g><g fill="#231f20"><use xlink:href="#a" x="175.2" y="302.731"/><use xlink:href="#b" x="179.326" y="302.731"/><use xlink:href="#b" x="183.453" y="302.731"/><use xlink:href="#y" x="187.579" y="302.731"/><use xlink:href="#c" x="191.706" y="302.731"/><use xlink:href="#a" x="195.832" y="302.731"/><use xlink:href="#b" x="199.958" y="302.731"/><use xlink:href="#x" x="204.085" y="302.731"/><use xlink:href="#x" x="208.211" y="302.731"/></g><g fill="#231f20"><use xlink:href="#z" x="247.031" y="302.731"/><use xlink:href="#A" x="249.398" y="302.731"/><use xlink:href="#B" x="256.603" y="302.731"/><use xlink:href="#V" x="258.97" y="302.731"/><use xlink:href="#W" x="266.176" y="302.731"/><use xlink:href="#X" x="273.381" y="302.731"/><use xlink:href="#p" x="280.586" y="302.731"/><use xlink:href="#Y" x="282.673" y="302.731"/><use xlink:href="#Z" x="289.879" y="302.731"/><use xlink:href="#F" x="297.084" y="302.731"/><use xlink:href="#v" x="304.289" y="302.731"/><use xlink:href="#p" x="311.494" y="302.731"/><use xlink:href="#aa" x="313.582" y="302.731"/><use xlink:href="#p" x="320.787" y="302.731"/><use xlink:href="#ab" x="322.874" y="302.731"/><use xlink:href="#ac" x="330.079" y="302.731"/><use xlink:href="#ad" x="337.285" y="302.731"/><use xlink:href="#ae" x="344.49" y="302.731"/></g><g fill="#231f20"><use xlink:href="#x" x="175.2" y="318.316"/><use xlink:href="#af" x="179.326" y="318.316"/><use xlink:href="#af" x="183.453" y="318.316"/><use xlink:href="#ag" x="187.579" y="318.316"/><use xlink:href="#c" x="191.706" y="318.316"/><use xlink:href="#a" x="195.832" y="318.316"/><use xlink:href="#b" x="199.958" y="318.316"/><use xlink:href="#b" x="204.085" y="318.316"/><use xlink:href="#K" x="208.211" y="318.316"/></g><g fill="#231f20"><use xlink:href="#f" x="247.031" y="318.316"/><use xlink:href="#W" x="254.236" y="318.316"/><use xlink:href="#ah" x="261.441" y="318.316"/><use xlink:href="#ai" x="268.647" y="318.316"/><use xlink:href="#aj" x="275.852" y="318.316"/><use xlink:href="#ak" x="283.057" y="318.316"/><use xlink:href="#al" x="290.262" y="318.316"/><use xlink:href="#am" x="297.468" y="318.316"/><use xlink:href="#p" x="304.673" y="318.316"/><use xlink:href="#al" x="306.76" y="318.316"/><use xlink:href="#am" x="313.965" y="318.316"/><use xlink:href="#an" x="321.171" y="318.316"/><use xlink:href="#q" x="328.376" y="318.316"/><use xlink:href="#ao" x="335.581" y="318.316"/><use xlink:href="#ap" x="342.787" y="318.316"/><use xlink:href="#aq" x="345.785" y="318.316"/><use xlink:href="#ar" x="352.991" y="318.316"/><use xlink:href="#as" x="360.196" y="318.316"/></g><g fill="#231f20"><use xlink:href="#x" x="175.2" y="333.9"/><use xlink:href="#af" x="179.326" y="333.9"/><use xlink:href="#at" x="183.453" y="333.9"/><use xlink:href="#af" x="187.579" y="333.9"/><use xlink:href="#c" x="191.706" y="333.9"/><use xlink:href="#x" x="195.832" y="333.9"/><use xlink:href="#af" x="199.958" y="333.9"/><use xlink:href="#af" x="204.085" y="333.9"/><use xlink:href="#ag" x="208.211" y="333.9"/></g><g fill="#231f20"><use xlink:href="#z" x="247.031" y="333.9"/><use xlink:href="#A" x="249.398" y="333.9"/><use xlink:href="#B" x="256.603" y="333.9"/><use xlink:href="#I" x="258.97" y="333.9"/><use xlink:href="#au" x="266.176" y="333.9"/><use xlink:href="#p" x="273.381" y="333.9"/><use xlink:href="#av" x="275.468" y="333.9"/><use xlink:href="#aw" x="282.673" y="333.9"/><use xlink:href="#ax" x="289.879" y="333.9"/><use xlink:href="#ay" x="297.084" y="333.9"/><use xlink:href="#s" x="304.289" y="333.9"/><use xlink:href="#p" x="311.494" y="333.9"/><use xlink:href="#az" x="313.582" y="333.9"/><use xlink:href="#aA" x="320.787" y="333.9"/><use xlink:href="#ax" x="327.992" y="333.9"/><use xlink:href="#ay" x="335.197" y="333.9"/><use xlink:href="#aB" x="342.403" y="333.9"/></g><g fill="#231f20"><use xlink:href="#z" x="175.158" y="199.053"/><use xlink:href="#A" x="177.525" y="199.053"/><use xlink:href="#B" x="184.731" y="199.053"/><use xlink:href="#C" x="187.098" y="199.053"/><use xlink:href="#D" x="194.303" y="199.053"/><use xlink:href="#E" x="201.508" y="199.053"/><use xlink:href="#p" x="208.714" y="199.053"/><use xlink:href="#I" x="210.801" y="199.053"/><use xlink:href="#J" x="218.006" y="199.053"/><use xlink:href="#i" x="225.211" y="199.053"/><use xlink:href="#q" x="232.417" y="199.053"/></g><g fill="#231f20"><use xlink:href="#x" x="175.158" y="142.076"/><use xlink:href="#af" x="179.285" y="142.076"/><use xlink:href="#at" x="183.411" y="142.076"/><use xlink:href="#at" x="187.538" y="142.076"/><use xlink:href="#aC" x="191.664" y="142.076"/><use xlink:href="#a" x="193.511" y="142.076"/></g><use xlink:href="#aD" x="246.989" y="142.076" fill="#231f20"/><g fill="#231f20"><use xlink:href="#aE" x="251.732" y="142.076"/><use xlink:href="#aF" x="256.274" y="142.076"/><use xlink:href="#aG" x="258.297" y="142.076"/></g><g fill="#231f20"><use xlink:href="#aH" x="262.608" y="142.076"/><use xlink:href="#H" x="267.126" y="142.076"/><use xlink:href="#aI" x="268.749" y="142.076"/><use xlink:href="#aJ" x="275.954" y="142.076"/><use xlink:href="#Y" x="283.16" y="142.076"/><use xlink:href="#aK" x="290.365" y="142.076"/><use xlink:href="#aL" x="297.57" y="142.076"/><use xlink:href="#p" x="304.776" y="142.076"/><use xlink:href="#aM" x="306.863" y="142.076"/><use xlink:href="#v" x="314.068" y="142.076"/><use xlink:href="#H" x="321.273" y="142.076"/><use xlink:href="#z" x="322.897" y="142.076"/><use xlink:href="#i" x="325.264" y="142.076"/><use xlink:href="#aK" x="332.469" y="142.076"/><use xlink:href="#aN" x="339.674" y="142.076"/><use xlink:href="#q" x="346.88" y="142.076"/><use xlink:href="#B" x="354.085" y="142.076"/></g><g fill="#231f20"><use xlink:href="#x" x="175.158" y="157.66"/><use xlink:href="#af" x="179.285" y="157.66"/><use xlink:href="#at" x="183.411" y="157.66"/><use xlink:href="#y" x="187.538" y="157.66"/><use xlink:href="#aC" x="191.664" y="157.66"/><use xlink:href="#a" x="193.511" y="157.66"/></g><g fill="#231f20"><use xlink:href="#aO" x="246.989" y="157.66"/><use xlink:href="#A" x="254.195" y="157.66"/><use xlink:href="#I" x="261.4" y="157.66"/><use xlink:href="#aK" x="268.605" y="157.66"/><use xlink:href="#aP" x="275.811" y="157.66"/><use xlink:href="#p" x="283.016" y="157.66"/><use xlink:href="#aI" x="285.103" y="157.66"/><use xlink:href="#aJ" x="292.308" y="157.66"/><use xlink:href="#Y" x="299.514" y="157.66"/><use xlink:href="#aK" x="306.719" y="157.66"/><use xlink:href="#p" x="313.924" y="157.66"/><use xlink:href="#aM" x="316.011" y="157.66"/><use xlink:href="#v" x="323.217" y="157.66"/></g><g fill="#fff"><use xlink:href="#aQ" x="179.575" y="219.753"/><use xlink:href="#aR" x="184.646" y="219.753"/></g><g fill="#fff"><use xlink:href="#aS" x="187.969" y="219.753"/><use xlink:href="#aT" x="193.363" y="219.753"/><use xlink:href="#aU" x="196.136" y="219.753"/><use xlink:href="#aV" x="201.093" y="219.753"/></g><g fill="#fff"><use xlink:href="#aV" x="204.74" y="219.753"/><use xlink:href="#aW" x="208.577" y="219.753"/><use xlink:href="#aS" x="210.837" y="219.753"/><use xlink:href="#aX" x="216.231" y="219.753"/><use xlink:href="#aY" x="221.302" y="219.753"/><use xlink:href="#aZ" x="226.715" y="219.753"/><use xlink:href="#ba" x="228.975" y="219.753"/><use xlink:href="#bb" x="231.188" y="219.753"/></g><g fill="#fff"><use xlink:href="#bc" x="235.803" y="219.753"/><use xlink:href="#bd" x="241.178" y="219.753"/><use xlink:href="#aU" x="246.591" y="219.753"/><use xlink:href="#aR" x="251.548" y="219.753"/><use xlink:href="#aW" x="254.967" y="219.753"/><use xlink:href="#aU" x="257.227" y="219.753"/><use xlink:href="#aX" x="262.184" y="219.753"/><use xlink:href="#be" x="267.255" y="219.753"/><use xlink:href="#aU" x="271.224" y="219.753"/></g><path d="M39.793 180.371h120.879V40.395H39.793zm0 0" fill="none" stroke-width=".199924" stroke="#2f428f"/><path d="M39.785 180.469h120.988V40.289H39.785zm0 0" fill="none" stroke-width=".249905" stroke="#2f428f"/><g fill="#231f20"><use xlink:href="#bf" x="174.407" y="47.768"/><use xlink:href="#bg" x="183.404" y="47.768"/><use xlink:href="#bh" x="192.4" y="47.768"/><use xlink:href="#bi" x="201.397" y="47.768"/></g><g fill="#231f20"><use xlink:href="#bj" x="203.466" y="47.768"/><use xlink:href="#bk" x="212.463" y="47.768"/><use xlink:href="#bl" x="221.459" y="47.768"/><use xlink:href="#bm" x="230.456" y="47.768"/></g><g fill="#231f20"><use xlink:href="#bn" x="174.407" y="66.286"/><use xlink:href="#bo" x="177.586" y="66.286"/><use xlink:href="#bp" x="186.583" y="66.286"/><use xlink:href="#bq" x="189.761" y="66.286"/><use xlink:href="#br" x="198.758" y="66.286"/><use xlink:href="#bs" x="207.755" y="66.286"/></g><path d="M39.793 518.938h120.879V378.96H39.793zm0 0" fill="none" stroke-width=".199924" stroke="#2f428f"/><path d="M39.785 519.035h120.988V378.86H39.785zm0 0" fill="none" stroke-width=".249905" stroke="#2f428f"/><g fill="#231f20"><use xlink:href="#bt" x="174.776" y="475.225"/><use xlink:href="#bu" x="178.758" y="475.225"/><use xlink:href="#aF" x="184.9" y="475.225"/><use xlink:href="#H" x="186.923" y="475.225"/><use xlink:href="#ab" x="188.546" y="475.225"/><use xlink:href="#ac" x="195.752" y="475.225"/><use xlink:href="#bv" x="202.957" y="475.225"/><use xlink:href="#bw" x="210.162" y="475.225"/><use xlink:href="#ax" x="217.368" y="475.225"/><use xlink:href="#ay" x="224.573" y="475.225"/><use xlink:href="#s" x="231.778" y="475.225"/><use xlink:href="#p" x="238.983" y="475.225"/><use xlink:href="#s" x="241.071" y="475.225"/><use xlink:href="#w" x="248.276" y="475.225"/></g><g fill="#231f20"><use xlink:href="#bx" x="174.776" y="490.809"/><use xlink:href="#by" x="181.981" y="490.809"/><use xlink:href="#bz" x="189.186" y="490.809"/><use xlink:href="#I" x="196.391" y="490.809"/><use xlink:href="#aK" x="203.597" y="490.809"/><use xlink:href="#aP" x="210.802" y="490.809"/><use xlink:href="#p" x="218.007" y="490.809"/><use xlink:href="#bA" x="220.094" y="490.809"/><use xlink:href="#bB" x="227.3" y="490.809"/><use xlink:href="#k" x="234.505" y="490.809"/><use xlink:href="#aL" x="241.71" y="490.809"/><use xlink:href="#aK" x="248.916" y="490.809"/><use xlink:href="#aB" x="256.121" y="490.809"/><use xlink:href="#p" x="263.326" y="490.809"/><use xlink:href="#bC" x="265.413" y="490.809"/><use xlink:href="#V" x="272.619" y="490.809"/><use xlink:href="#bD" x="279.824" y="490.809"/><use xlink:href="#bv" x="287.029" y="490.809"/><use xlink:href="#bw" x="294.234" y="490.809"/></g><g fill="#231f20"><use xlink:href="#bE" x="174.407" y="404.853"/><use xlink:href="#bF" x="179.565" y="404.853"/><use xlink:href="#bG" x="187.482" y="404.853"/><use xlink:href="#bH" x="190.211" y="404.853"/><use xlink:href="#bI" x="192.25" y="404.853"/><use xlink:href="#bJ" x="201.247" y="404.853"/><use xlink:href="#bK" x="210.244" y="404.853"/><use xlink:href="#bL" x="219.24" y="404.853"/><use xlink:href="#bM" x="228.237" y="404.853"/><use xlink:href="#bN" x="237.233" y="404.853"/><use xlink:href="#bO" x="246.23" y="404.853"/></g><g fill="#231f20"><use xlink:href="#bP" x="174.407" y="386.335"/><use xlink:href="#bQ" x="183.404" y="386.335"/><use xlink:href="#bR" x="192.4" y="386.335"/><use xlink:href="#bi" x="201.397" y="386.335"/></g><g fill="#231f20"><use xlink:href="#bM" x="203.466" y="386.335"/><use xlink:href="#bN" x="212.463" y="386.335"/><use xlink:href="#bO" x="221.459" y="386.335"/><use xlink:href="#bS" x="230.456" y="386.335"/></g><g fill="#7b7979"><use xlink:href="#bT" x="556.667" y="818.875"/><use xlink:href="#bU" x="560.523" y="818.875"/></g></svg>