<svg xmlns="http://www.w3.org/2000/svg" xmlns:xlink="http://www.w3.org/1999/xlink" width="794.366" height="1122.52" viewBox="0 0 595.7748 841.89" version="1.2"><defs><symbol overflow="visible" id="a"><path d="M3.063-4.766l.562-1.796a77.974 77.974 0 0 0 1.172-3.97h.062c.391 1.36.75 2.641 1.188 3.97l.562 1.796zM8.093 0h1.563L5.687-11.734H4.032L.047 0h1.5l1.14-3.578H6.97zm0 0"/></symbol><symbol overflow="visible" id="b"><path d="M1.469 0h1.453v-6.297c.89-.89 1.5-1.328 2.39-1.328 1.157 0 1.641.688 1.641 2.313V0h1.469v-5.5c0-2.234-.844-3.406-2.656-3.406-1.188 0-2.079.656-2.922 1.469h-.047l-.125-1.25H1.469zm0 0"/></symbol><symbol overflow="visible" id="c"><path d="M3.469.203c1.078 0 2.047-.562 2.89-1.25h.047L6.531 0h1.203v-5.344c0-2.14-.906-3.562-3.015-3.562-1.39 0-2.625.625-3.422 1.125l.578 1.015c.688-.468 1.594-.937 2.61-.937 1.421 0 1.78 1.078 1.78 2.203C2.579-5.094.923-4.14.923-2.25.922-.687 2.016.203 3.469.203zM3.89-.953c-.86 0-1.532-.406-1.532-1.406 0-1.11.985-1.829 3.907-2.188v2.438C5.422-1.36 4.734-.953 3.89-.953zm0 0"/></symbol><symbol overflow="visible" id="d"><path d="M3.016.203c.375 0 .625-.047.843-.125l-.218-1.125c-.157.031-.22.031-.297.031-.219 0-.422-.171-.422-.609v-11.11H1.469v11C1.469-.5 1.922.204 3.016.204zm0 0"/></symbol><symbol overflow="visible" id="e"><path d="M1.61 3.75c1.734 0 2.624-1.313 3.234-3.031l3.281-9.406H6.703L5.156-3.86c-.25.765-.5 1.656-.734 2.437h-.078c-.282-.781-.578-1.687-.844-2.437L1.734-8.688H.204l3.5 8.704L3.5.672c-.344 1.078-.969 1.875-1.969 1.875-.218 0-.468-.078-.656-.14L.594 3.561c.265.126.61.188 1.015.188zm0 0"/></symbol><symbol overflow="visible" id="f"><path d="M3.75.203c2.047 0 3.156-1.156 3.156-2.578 0-1.64-1.39-2.156-2.656-2.64-.969-.36-1.906-.673-1.906-1.5 0-.673.484-1.25 1.578-1.25.781 0 1.39.327 2 .78l.703-.952c-.688-.532-1.64-.97-2.703-.97-1.89 0-3 1.079-3 2.454 0 1.484 1.375 2.062 2.594 2.516.968.374 1.984.765 1.984 1.656 0 .75-.563 1.36-1.703 1.36-1.047 0-1.828-.423-2.578-1.032L.5-.984C1.328-.297 2.516.203 3.75.203zm0 0"/></symbol><symbol overflow="visible" id="g"><path d="M1.469 0h1.453v-8.688H1.469zm.734-10.484c.578 0 1.016-.391 1.016-.938 0-.594-.438-.953-1.016-.953-.578 0-1 .36-1 .953 0 .547.422.938 1 .938zm0 0"/></symbol><symbol overflow="visible" id="i"><path d="M4.844.203c2.125 0 4.031-1.656 4.031-4.547 0-2.89-1.906-4.562-4.031-4.562S.812-7.234.812-4.344C.813-1.454 2.72.203 4.845.203zm0-1.219c-1.5 0-2.5-1.328-2.5-3.328 0-2 1-3.36 2.5-3.36 1.515 0 2.531 1.36 2.531 3.36 0 2-1.016 3.328-2.531 3.328zm0 0"/></symbol><symbol overflow="visible" id="j"><path d="M5.703-12.656a3.966 3.966 0 0 0-1.469-.281c-1.718 0-2.515 1.093-2.515 2.859v1.39L.53-8.608V-7.5H1.72V0h1.453v-7.5h1.844v-1.188H3.172v-1.374c0-1.126.39-1.72 1.234-1.72.297 0 .657.079.969.235zm0 0"/></symbol><symbol overflow="visible" id="k"><path d="M4.203.203c.531 0 1.11-.156 1.61-.312l-.297-1.094c-.282.11-.688.234-.985.234-1.015 0-1.343-.61-1.343-1.687V-7.5H5.53v-1.188H3.188v-2.437h-1.22l-.171 2.438-1.36.078V-7.5h1.297v4.813c0 1.75.625 2.89 2.47 2.89zm0 0"/></symbol><symbol overflow="visible" id="l"><path d="M1.469 0h1.453v-6.297c.89-.89 1.5-1.328 2.39-1.328 1.157 0 1.641.688 1.641 2.313V0h1.469v-5.5c0-2.234-.844-3.406-2.656-3.406-1.188 0-2.079.656-2.891 1.453l.047-1.797v-3.484H1.469zm0 0"/></symbol><symbol overflow="visible" id="m"><path d="M4.969.203c1.187 0 2.125-.39 2.89-.89l-.53-.954c-.641.422-1.329.688-2.173.688C3.5-.953 2.375-2.141 2.266-4h5.859a5.79 5.79 0 0 0 .063-.828c0-2.484-1.25-4.078-3.454-4.078-2.015 0-3.921 1.75-3.921 4.562C.813-1.469 2.671.203 4.968.203zM2.25-5.047C2.438-6.75 3.516-7.75 4.75-7.75c1.36 0 2.156.953 2.156 2.703zm0 0"/></symbol><symbol overflow="visible" id="n"><path d="M1.594 0h1.5v-5.266h4.469v-1.25h-4.47v-3.968h5.282v-1.25H1.594zm0 0"/></symbol><symbol overflow="visible" id="o"><path d="M4.89.203A4.18 4.18 0 0 0 7.704-.89l-.625-.984c-.547.5-1.25.86-2.047.86-1.61 0-2.687-1.329-2.687-3.329s1.14-3.36 2.719-3.36c.703 0 1.218.329 1.734.798l.75-.985c-.625-.546-1.406-1.015-2.531-1.015C2.78-8.906.812-7.234.812-4.344c0 2.89 1.782 4.547 4.079 4.547zm0 0"/></symbol><symbol overflow="visible" id="p"><path d="M1.469 0h1.453v-5.578c.578-1.5 1.484-2 2.203-2 .344 0 .563.031.844.14l.265-1.28c-.265-.141-.53-.188-.921-.188-.97 0-1.86.703-2.47 1.797h-.046l-.125-1.579H1.469zm0 0"/></symbol><symbol overflow="visible" id="q"><path d="M6.031.203c1.516 0 2.672-.61 3.594-1.672l-.813-.937c-.75.828-1.593 1.312-2.718 1.312-2.235 0-3.64-1.843-3.64-4.812 0-2.922 1.468-4.75 3.687-4.75 1.015 0 1.796.469 2.406 1.125l.797-.969c-.672-.75-1.797-1.453-3.219-1.453-2.969 0-5.203 2.312-5.203 6.094 0 3.812 2.203 6.062 5.11 6.062zm0 0"/></symbol><symbol overflow="visible" id="r"><path d="M4.406 4C7.094 4 8.781 2.61 8.781.984c0-1.421-1-2.062-3.015-2.062H4.062c-1.171 0-1.515-.375-1.515-.938 0-.484.234-.765.562-1.046.375.203.86.312 1.297.312 1.75 0 3.157-1.172 3.157-3.031 0-.75-.282-1.39-.704-1.782h1.782v-1.125H5.609a3.599 3.599 0 0 0-1.203-.218c-1.765 0-3.265 1.187-3.265 3.094 0 1.046.562 1.875 1.125 2.343v.063c-.438.312-.97.89-.97 1.61 0 .687.329 1.155.798 1.421v.078C1.28.22.797.922.797 1.656.797 3.172 2.266 4 4.407 4zm0-7.75c-1.015 0-1.86-.797-1.86-2.063 0-1.28.829-2.03 1.86-2.03 1.016 0 1.828.765 1.828 2.03 0 1.266-.843 2.063-1.828 2.063zm.203 6.766c-1.578 0-2.53-.61-2.53-1.547 0-.516.28-1.016.89-1.469.39.094.812.14 1.125.14h1.5C6.75.14 7.375.423 7.375 1.22c0 .906-1.11 1.797-2.766 1.797zm0 0"/></symbol><symbol overflow="visible" id="s"><path d="M1.594 0h3.75c2.625 0 4.453-1.14 4.453-3.438 0-1.609-1-2.53-2.406-2.796v-.079c1.109-.359 1.734-1.39 1.734-2.546 0-2.063-1.656-2.875-4.031-2.875h-3.5zm1.5-6.734v-3.829H4.89c1.828 0 2.765.516 2.765 1.891 0 1.188-.812 1.938-2.828 1.938zm0 5.546v-4.406H5.14c2.046 0 3.203.657 3.203 2.11 0 1.578-1.188 2.296-3.203 2.296zm0 0"/></symbol><symbol overflow="visible" id="t"><path d="M.734-3.922h4.094v-1.125H.734zm0 0"/></symbol><symbol overflow="visible" id="u"><path d="M1.594 0h1.5v-11.734h-1.5zm0 0"/></symbol><symbol overflow="visible" id="v"><path d="M3.344 0h1.703l3.078-8.688H6.687L5.048-3.75a170 170 0 0 1-.813 2.563h-.062a170 170 0 0 1-.813-2.563L1.734-8.688H.204zm0 0"/></symbol><symbol overflow="visible" id="w"><path d="M1.469 0h1.453v-6.297c.812-.906 1.547-1.328 2.203-1.328 1.094 0 1.61.688 1.61 2.313V0h1.452v-6.297c.829-.906 1.532-1.328 2.204-1.328 1.093 0 1.609.688 1.609 2.313V0h1.453v-5.5c0-2.234-.844-3.406-2.64-3.406-1.047 0-1.97.687-2.86 1.656-.36-1.016-1.078-1.656-2.406-1.656-1.031 0-1.953.656-2.703 1.484h-.047l-.125-1.266H1.469zm0 0"/></symbol><symbol overflow="visible" id="x"><path d="M1.594 0h6.953v-1.266H3.094V-5.53H7.53v-1.266H3.094v-3.687h5.281v-1.25H1.594zm0 0"/></symbol><symbol overflow="visible" id="y"><path d="M4.438.203c1.03 0 1.953-.562 2.64-1.234h.031L7.25 0h1.188v-12.734h-1.47v3.343l.095 1.5c-.782-.64-1.438-1.015-2.454-1.015-1.984 0-3.765 1.75-3.765 4.562C.844-1.437 2.25.203 4.438.203zm.312-1.219c-1.531 0-2.39-1.234-2.39-3.343 0-1.985 1.093-3.329 2.5-3.329.718 0 1.374.266 2.109.922v4.563c-.719.797-1.422 1.187-2.219 1.187zm0 0"/></symbol><symbol overflow="visible" id="z"><path d="M1.469 3.656h1.453V.72L2.89-.797c.796.64 1.625 1 2.406 1 2 0 3.781-1.703 3.781-4.687 0-2.672-1.219-4.422-3.469-4.422-1 0-1.984.562-2.765 1.203h-.047l-.125-.984H1.469zm3.593-4.672c-.578 0-1.343-.234-2.14-.906v-4.562c.86-.782 1.61-1.204 2.344-1.204 1.64 0 2.28 1.297 2.28 3.22 0 2.171-1.046 3.452-2.484 3.452zm0 0"/></symbol><symbol overflow="visible" id="A"><path d="M3.766 0h1.703l3.734-11.734h-1.5l-1.89 6.359C5.39-4 5.109-2.875 4.671-1.5h-.063C4.156-2.875 3.891-4 3.47-5.375l-1.906-6.36H.016zm0 0"/></symbol><symbol overflow="visible" id="B"><path d="M4 .203c1.203 0 2.063-.625 2.875-1.562h.047L7.047 0H8.25v-8.688H6.797v6.157c-.828 1.047-1.453 1.469-2.344 1.469-1.156 0-1.64-.688-1.64-2.297v-5.329H1.359v5.5C1.36-.967 2.172.204 4 .204zm0 0"/></symbol><symbol overflow="visible" id="C"><path d="M.703 0h7.375v-1.266h-3.25c-.594 0-1.312.063-1.922.11C5.656-3.766 7.5-6.141 7.5-8.484c0-2.094-1.313-3.47-3.406-3.47-1.485 0-2.5.688-3.453 1.735l.843.828c.641-.765 1.47-1.359 2.438-1.359 1.453 0 2.156.969 2.156 2.313 0 2.015-1.687 4.359-5.375 7.578zm0 0"/></symbol><symbol overflow="visible" id="D"><path d="M4.453.203c2.219 0 3.64-2.031 3.64-6.11 0-4.062-1.421-6.046-3.64-6.046-2.25 0-3.672 1.969-3.672 6.047 0 4.078 1.422 6.11 3.672 6.11zm0-1.156c-1.344 0-2.25-1.5-2.25-4.953 0-3.422.906-4.86 2.25-4.86 1.328 0 2.219 1.438 2.219 4.86 0 3.453-.89 4.953-2.219 4.953zm0 0"/></symbol><symbol overflow="visible" id="E"><path d="M3.828 3.156l.906-.437C3.344.453 2.688-2.25 2.688-4.97c0-2.734.656-5.422 2.046-7.703l-.906-.422c-1.469 2.39-2.36 4.985-2.36 8.125 0 3.14.891 5.719 2.36 8.125zm0 0"/></symbol><symbol overflow="visible" id="F"><path d="M2.844 0h1.719L5.78-4.656c.219-.828.39-1.64.594-2.532h.078c.203.891.36 1.688.594 2.5L8.297 0h1.765l2.344-8.688h-1.375L9.75-3.655c-.203.828-.36 1.61-.547 2.422h-.062c-.22-.813-.407-1.594-.61-2.422l-1.36-5.031H5.75l-1.344 5.03c-.234.813-.406 1.61-.593 2.423h-.079c-.171-.813-.343-1.594-.515-2.422L1.922-8.687H.438zm0 0"/></symbol><symbol overflow="visible" id="G"><path d="M6.203.203c1.594 0 2.89-.578 3.64-1.36v-4.921H6v1.234h2.484v3.063c-.468.437-1.28.687-2.125.687-2.515 0-3.906-1.843-3.906-4.812 0-2.922 1.531-4.75 3.89-4.75 1.188 0 1.938.5 2.532 1.125l.813-.969c-.672-.719-1.75-1.453-3.391-1.453-3.094 0-5.375 2.312-5.375 6.094C.922-2.047 3.125.203 6.203.203zm0 0"/></symbol><symbol overflow="visible" id="H"><path d="M4.047 0H5.53v-10.484h3.563v-1.25H.5v1.25h3.547zm0 0"/></symbol><symbol overflow="visible" id="I"><path d="M1.578 3.156C3.078.75 3.953-1.828 3.953-4.969c0-3.14-.875-5.734-2.375-8.125l-.89.422c1.375 2.281 2.046 4.969 2.046 7.703C2.734-2.25 2.063.453.688 2.72zm0 0"/></symbol><symbol overflow="visible" id="J"><path d="M.922 0h3.765v-.516h-1.53v-6.78h-.47c-.343.202-.796.359-1.39.468v.39h1.266v5.922H.921zm0 0"/></symbol><symbol overflow="visible" id="K"><path d="M1.25.125a.514.514 0 0 0 .516-.531c0-.344-.25-.547-.516-.547S.734-.75.734-.406c0 .328.25.531.516.531zm0 0"/></symbol><symbol overflow="visible" id="M"><path d="M1.672-2.938l.453-1.312c.281-.844.531-1.625.781-2.5h.047c.25.875.5 1.656.797 2.5l.438 1.313zM5.156 0h.64L3.25-7.297h-.625L.078 0h.61l.828-2.453h2.828zm0 0"/></symbol><symbol overflow="visible" id="N"><path d="M1 0h.578v-3.984c.625-.641 1.063-.97 1.688-.97.812 0 1.171.516 1.171 1.626V0h.579v-3.406c0-1.375-.516-2.063-1.625-2.063-.735 0-1.282.422-1.829.953h-.015l-.063-.812H1zm0 0"/></symbol><symbol overflow="visible" id="O"><path d="M2.188.125c.671 0 1.312-.36 1.859-.813h.016L4.125 0h.484v-3.375c0-1.188-.453-2.094-1.718-2.094-.875 0-1.61.422-2.016.703l.25.422c.375-.281.984-.61 1.688-.61 1 0 1.234.813 1.218 1.61-2.343.266-3.406.828-3.406 2 0 1 .688 1.469 1.563 1.469zm.109-.484c-.594 0-1.094-.282-1.094-1.016 0-.813.734-1.313 2.828-1.547v1.735c-.625.546-1.14.828-1.734.828zm0 0"/></symbol><symbol overflow="visible" id="P"><path d="M1.703.125c.203 0 .297-.031.39-.063L2.017-.39c-.11.016-.157.016-.204.016-.125 0-.234-.11-.234-.36v-7.218H1v7.156c0 .625.234.922.703.922zm0 0"/></symbol><symbol overflow="visible" id="Q"><path d="M.844 2.406c.984 0 1.531-.86 1.844-1.781l2.078-5.953h-.579L3.095-2.062c-.156.453-.328 1.015-.485 1.5h-.046c-.188-.485-.391-1.047-.563-1.5L.766-5.329H.125L2.313.078l-.141.453c-.266.766-.688 1.344-1.328 1.344-.156 0-.328-.031-.438-.078l-.125.5c.156.062.36.11.563.11zm0 0"/></symbol><symbol overflow="visible" id="R"><path d="M2.313.125c1.171 0 1.828-.688 1.828-1.516 0-1.03-.907-1.312-1.72-1.625-.624-.234-1.233-.453-1.233-1.046 0-.485.359-.922 1.14-.922.516 0 .906.218 1.266.484l.312-.406C3.5-5.22 2.937-5.47 2.344-5.47c-1.11 0-1.75.657-1.75 1.438 0 .922.89 1.25 1.672 1.531.625.219 1.296.516 1.296 1.14 0 .548-.406 1.016-1.218 1.016-.735 0-1.219-.281-1.688-.672l-.312.422c.484.39 1.187.719 1.969.719zm0 0"/></symbol><symbol overflow="visible" id="S"><path d="M1 0h.578v-5.328H1zm.297-6.578c.266 0 .5-.188.5-.469 0-.297-.234-.469-.5-.469s-.484.172-.484.47c0 .28.218.468.484.468zm0 0"/></symbol><symbol overflow="visible" id="T"><path d="M2.969.125c1.297 0 2.406-1.016 2.406-2.781 0-1.781-1.11-2.813-2.406-2.813-1.281 0-2.406 1.032-2.406 2.813C.563-.891 1.688.125 2.969.125zm0-.5c-1.031 0-1.797-.922-1.797-2.281 0-1.36.766-2.297 1.797-2.297 1.047 0 1.812.937 1.812 2.297S4.016-.375 2.97-.375zm0 0"/></symbol><symbol overflow="visible" id="U"><path d="M3.266-7.906a2.047 2.047 0 0 0-.813-.172c-.89 0-1.36.562-1.36 1.625v1.125l-.75.047v.437h.75V0h.579v-4.844h1.203v-.484H1.672v-1.094c0-.75.25-1.172.812-1.172.204 0 .422.047.641.157zm0 0"/></symbol><symbol overflow="visible" id="V"><path d="M2.5.125c.234 0 .578-.078.89-.188l-.14-.453a1.9 1.9 0 0 1-.656.141c-.703 0-.89-.438-.89-1.11v-3.359h1.53v-.484h-1.53v-1.547h-.485l-.063 1.547-.86.047v.437h.829v3.328C1.125-.53 1.453.125 2.5.125zm0 0"/></symbol><symbol overflow="visible" id="W"><path d="M1 0h.578v-3.984c.625-.641 1.063-.97 1.688-.97.812 0 1.171.516 1.171 1.626V0h.579v-3.406c0-1.375-.516-2.063-1.625-2.063-.735 0-1.282.422-1.829.953l.016-1.156v-2.281H1zm0 0"/></symbol><symbol overflow="visible" id="X"><path d="M3.047.125c.765 0 1.265-.25 1.687-.516l-.218-.421c-.391.265-.844.453-1.422.453-1.14 0-1.906-.907-1.938-2.204h3.782c.015-.14.015-.28.015-.421 0-1.563-.766-2.485-2.047-2.485C1.687-5.469.562-4.39.562-2.656c0 1.75 1.11 2.781 2.485 2.781zm-1.89-3.156c.109-1.219.89-1.938 1.75-1.938.937 0 1.53.657 1.53 1.938zm0 0"/></symbol><symbol overflow="visible" id="Y"><path d="M2.11 0h.687l1.969-5.328h-.594L3.016-2.062c-.172.515-.36 1.062-.532 1.546h-.046a87.833 87.833 0 0 1-.532-1.546L.766-5.329H.125zm0 0"/></symbol><symbol overflow="visible" id="Z"><path d="M1 0h.578v-3.984c.563-.641 1.078-.97 1.547-.97.781 0 1.14.516 1.14 1.626V0h.579v-3.984c.578-.641 1.062-.97 1.547-.97.78 0 1.156.516 1.156 1.626V0h.578v-3.406c0-1.375-.531-2.063-1.61-2.063-.609 0-1.202.422-1.796 1.078-.188-.656-.625-1.078-1.469-1.078-.594 0-1.203.422-1.688.953h-.015l-.063-.812H1zm0 0"/></symbol><symbol overflow="visible" id="aa"><path d="M1 0h.578v-3.578c.39-.985.969-1.344 1.438-1.344.203 0 .296.016.484.094l.125-.516a1.048 1.048 0 0 0-.547-.125c-.625 0-1.14.453-1.515 1.125h-.016l-.063-.984H1zm0 0"/></symbol><symbol overflow="visible" id="ab"><path d="M3 .125c.672 0 1.234-.281 1.703-.688l-.281-.39c-.36.312-.844.578-1.39.578-1.126 0-1.86-.922-1.86-2.281 0-1.36.812-2.297 1.875-2.297.5 0 .89.219 1.219.531l.328-.39c-.375-.344-.86-.657-1.563-.657-1.328 0-2.469 1.032-2.469 2.813C.563-.891 1.61.125 3 .125zm0 0"/></symbol><symbol overflow="visible" id="ac"><path d="M1 2.375h.578V.453l-.016-.969c.547.422 1.079.641 1.579.641 1.25 0 2.343-1.063 2.343-2.875 0-1.64-.718-2.719-2.14-2.719-.64 0-1.25.39-1.781.782h-.016l-.063-.641H1zm2.094-2.75c-.39 0-.938-.172-1.516-.656V-4.11c.625-.547 1.156-.844 1.656-.844 1.204 0 1.641.922 1.641 2.203 0 1.438-.75 2.375-1.781 2.375zm0 0"/></symbol><symbol overflow="visible" id="ad"><path d="M2.531.125c1.156 0 2.281-.89 2.281-2.469 0-1.61-.968-2.344-2.156-2.344-.5 0-.875.141-1.219.36l.204-2.453h2.812v-.516H1.125l-.25 3.344.375.219c.406-.282.766-.454 1.297-.454 1.015 0 1.656.704 1.656 1.875 0 1.172-.766 1.938-1.687 1.938-.954 0-1.5-.422-1.922-.86L.28-.811c.469.453 1.125.937 2.25.937zm0 0"/></symbol><symbol overflow="visible" id="ae"><path d="M2.766.125c.687 0 1.28-.36 1.718-.797H4.5L4.563 0h.484v-7.953h-.578v2.172l.047.968c-.532-.421-.954-.656-1.594-.656-1.266 0-2.36 1.094-2.36 2.813 0 1.781.875 2.781 2.204 2.781zm.109-.5c-1.078 0-1.688-.906-1.688-2.281 0-1.313.766-2.297 1.797-2.297.5 0 .954.172 1.485.656v3.078c-.532.547-1.032.844-1.594.844zm0 0"/></symbol><symbol overflow="visible" id="af"><path d="M2.531.125c.735 0 1.281-.406 1.797-1h.031L4.406 0h.5v-5.328h-.593v3.89C3.719-.703 3.28-.39 2.655-.39 1.844-.39 1.5-.906 1.5-1.984v-3.344H.922v3.406c0 1.375.5 2.047 1.61 2.047zm0 0"/></symbol><symbol overflow="visible" id="ag"><path d="M.453 0h4.39v-.516h-2.28c-.376 0-.797.032-1.188.063 1.938-1.813 3.11-3.344 3.11-4.875 0-1.266-.75-2.094-2.016-2.094-.875 0-1.5.438-2.047 1.047l.375.36c.406-.532.984-.923 1.61-.923 1.03 0 1.5.72 1.5 1.625 0 1.329-.985 2.829-3.454 4.954zm0 0"/></symbol><symbol overflow="visible" id="ah"><path d="M3.688.125c.937 0 1.609-.39 2.171-1.031l-.343-.39c-.516.577-1.063.89-1.813.89-1.515 0-2.469-1.281-2.469-3.266 0-1.969.97-3.203 2.5-3.203.672 0 1.204.281 1.579.719l.343-.39a2.548 2.548 0 0 0-1.922-.876c-1.843 0-3.14 1.438-3.14 3.766C.594-1.312 1.875.125 3.688.125zm0 0"/></symbol><symbol overflow="visible" id="ai"><path d="M2.75 2.547c1.563 0 2.563-.89 2.563-1.813C5.313-.125 4.734-.5 3.53-.5H2.406c-.765 0-1-.297-1-.672 0-.344.188-.562.422-.734a1.8 1.8 0 0 0 .86.218c1.046 0 1.874-.78 1.874-1.875 0-.546-.218-1-.546-1.28h1.203v-.485H3.406a1.774 1.774 0 0 0-.719-.14c-1.046 0-1.906.78-1.906 1.89 0 .64.344 1.172.672 1.453v.031c-.234.188-.578.531-.578 1 0 .407.203.688.469.86v.047C.859.14.547.609.547 1.077c0 .906.875 1.469 2.203 1.469zm-.063-4.672c-.703 0-1.328-.578-1.328-1.453C1.36-4.453 1.953-5 2.688-5c.718 0 1.328.547 1.328 1.422 0 .875-.625 1.453-1.329 1.453zm.126 4.219c-1.079 0-1.72-.438-1.72-1.078 0-.36.204-.75.673-1.079.265.063.546.094.671.094h1.079c.796 0 1.218.203 1.218.781 0 .641-.75 1.282-1.921 1.282zm0 0"/></symbol><symbol overflow="visible" id="aj"><path d="M1.813 0h.703l.875-3.188c.171-.515.296-1.015.406-1.546h.047c.156.53.25 1.015.406 1.53L5.156 0h.75l1.5-5.328h-.578l-.906 3.36c-.125.515-.25.968-.375 1.452h-.031C5.375-1 5.25-1.453 5.125-1.969l-.953-3.36h-.64l-.954 3.36c-.125.5-.25.969-.375 1.453h-.047c-.11-.484-.219-.937-.344-1.453l-.937-3.36h-.61zm0 0"/></symbol><symbol overflow="visible" id="ak"><path d="M1 0h.578v-1.438l1.156-1.359L4.454 0h.64L3.062-3.219l1.75-2.11h-.656L1.594-2.187h-.016v-5.765H1zm0 0"/></symbol><symbol overflow="visible" id="al"><path d="M.453-2.516h2.453v-.5H.453zm0 0"/></symbol><symbol overflow="visible" id="am"><path d="M3.14.125c1.25 0 2.344-1.063 2.344-2.875 0-1.64-.718-2.719-2.14-2.719-.64 0-1.266.375-1.797.813l.031-1.016v-2.281H1V0h.469l.078-.547h.016c.484.422 1.078.672 1.578.672zm-.046-.5c-.39 0-.969-.172-1.516-.656V-4.11c.61-.547 1.156-.844 1.656-.844 1.204 0 1.641.922 1.641 2.203 0 1.438-.75 2.375-1.781 2.375zm0 0"/></symbol><symbol overflow="visible" id="an"><path d="M.328 2.516c.875 0 1.266-.563 1.266-1.61v-6.234H1V.875c0 .672-.11 1.14-.703 1.14-.203 0-.406-.062-.547-.109l-.125.469c.172.078.438.14.703.14zm.969-9.094c.266 0 .5-.188.5-.469 0-.297-.234-.469-.5-.469s-.484.172-.484.47c0 .28.218.468.484.468zm0 0"/></symbol><symbol overflow="visible" id="ao"><path d="M1.656-6.797h1.39c1.267 0 1.97.39 1.97 1.453 0 1.047-.704 1.547-1.97 1.547h-1.39zM5.766 0l-1.97-3.344c1.11-.172 1.829-.844 1.829-2 0-1.422-.984-1.953-2.438-1.953H1.063V0h.593v-3.297h1.5L5.094 0zm0 0"/></symbol><symbol overflow="visible" id="ap"><path d="M.984-1.89c0-.673.5-1.204 1.11-1.673a10.77 10.77 0 0 0 2.062 2.47c-.468.437-1 .734-1.578.734C1.703-.36.984-.97.984-1.891zm.922-3.907c0-.64.39-1.156 1-1.156.578 0 .781.437.781.906 0 .734-.656 1.234-1.39 1.75-.235-.516-.39-1.031-.39-1.5zm4.39 5.422c-.405-.14-.89-.422-1.39-.797.578-.766 1-1.672 1.282-2.672H5.64c-.266.906-.625 1.703-1.125 2.344-.75-.64-1.5-1.516-2-2.39.828-.626 1.671-1.235 1.671-2.188 0-.766-.453-1.344-1.25-1.344-.921 0-1.562.703-1.562 1.64 0 .563.188 1.173.5 1.798C1.109-3.438.391-2.813.391-1.86.39-.656 1.312.125 2.516.125c.828 0 1.484-.36 2.03-.89.563.453 1.11.75 1.579.89zm0 0"/></symbol><symbol overflow="visible" id="aq"><path d="M1.063 0h1.734c2.219 0 3.328-1.438 3.328-3.672s-1.11-3.625-3.344-3.625H1.062zm.593-.516v-6.28H2.72c1.922 0 2.765 1.234 2.765 3.124 0 1.89-.843 3.156-2.765 3.156zm0 0"/></symbol><symbol overflow="visible" id="ar"><path d="M2.578.125c1.235 0 2.203-.781 2.203-2.063 0-1.015-.718-1.687-1.593-1.875v-.046c.765-.266 1.328-.86 1.328-1.797 0-1.14-.844-1.766-1.97-1.782-.827.016-1.452.391-1.952.875l.344.391c.406-.422.968-.766 1.609-.766.828 0 1.375.532 1.375 1.313 0 .875-.563 1.563-2.156 1.563v.5c1.734 0 2.421.656 2.421 1.624 0 .954-.687 1.563-1.625 1.563-.937 0-1.5-.438-1.921-.89l-.329.39c.454.5 1.141 1 2.266 1zm0 0"/></symbol><symbol overflow="visible" id="as"><path d="M.86-2.563l1.984-2.89c.203-.344.406-.688.578-1.016h.047a15.92 15.92 0 0 0-.063 1.203v2.704zm4.156 0H3.984v-4.734h-.578L.187-2.453v.375h3.22V0h.577v-2.078h1.032zm0 0"/></symbol><symbol overflow="visible" id="at"><path d="M2.922.125c1.406 0 2.312-.86 2.312-1.969 0-1.11-.671-1.578-1.484-1.953l-1.078-.469C2.156-4.5 1.453-4.812 1.453-5.64c0-.75.61-1.234 1.531-1.234.704 0 1.25.281 1.672.719L5-6.546a2.702 2.702 0 0 0-2.016-.876c-1.218 0-2.125.75-2.125 1.828s.813 1.532 1.454 1.828l1.062.47c.703.327 1.266.608 1.266 1.483 0 .829-.657 1.407-1.72 1.407-.812 0-1.546-.375-2.062-.969L.5-.953A3.159 3.159 0 0 0 2.922.125zm0 0"/></symbol><symbol overflow="visible" id="au"><path d="M2.984.125c.75 0 1.235-.25 1.657-.516l-.22-.421c-.39.265-.827.453-1.39.453-1.125 0-1.875-.907-1.906-2.204h3.703c.016-.14.031-.28.031-.421 0-1.563-.75-2.485-2.015-2.485C1.656-5.469.547-4.39.547-2.656.547-.906 1.64.125 2.984.125zM1.125-3.031C1.235-4.25 2-4.97 2.844-4.97c.922 0 1.5.657 1.5 1.938zm0 0"/></symbol><symbol overflow="visible" id="av"><path d="M2.453.125c.235 0 .563-.078.875-.188l-.14-.453c-.188.079-.438.141-.641.141-.688 0-.875-.438-.875-1.11v-3.359h1.5v-.484h-1.5v-1.547h-.484l-.063 1.547-.828.047v.437h.812v3.328c0 .985.313 1.641 1.344 1.641zm0 0"/></symbol><symbol overflow="visible" id="aw"><path d="M.984 0h.563v-5.328H.984zm.297-6.578a.46.46 0 0 0 .469-.469.451.451 0 0 0-.469-.469c-.265 0-.484.172-.484.47 0 .28.219.468.484.468zm0 0"/></symbol><symbol overflow="visible" id="ax"><path d="M.984 0h.563v-3.984c.61-.641 1.047-.97 1.64-.97.813 0 1.157.516 1.157 1.626V0h.562v-3.406c0-1.375-.5-2.063-1.578-2.063-.719 0-1.265.422-1.797.953h-.015l-.063-.812H.984zm0 0"/></symbol><symbol overflow="visible" id="ay"><path d="M2.688 2.547c1.53 0 2.515-.89 2.515-1.813 0-.859-.562-1.234-1.75-1.234H2.36c-.75 0-.984-.297-.984-.672 0-.344.188-.562.422-.734.234.14.547.218.844.218 1.015 0 1.843-.78 1.843-1.875 0-.546-.234-1-.546-1.28h1.171v-.485H3.33a1.614 1.614 0 0 0-.688-.14c-1.032 0-1.875.78-1.875 1.89 0 .64.328 1.172.671 1.453v.031c-.25.188-.578.531-.578 1 0 .407.204.688.47.86v.047C.843.14.53.609.53 1.077c0 .906.86 1.469 2.156 1.469zM2.64-2.125c-.704 0-1.313-.578-1.313-1.453C1.328-4.453 1.922-5 2.641-5c.703 0 1.28.547 1.28 1.422 0 .875-.593 1.453-1.28 1.453zm.125 4.219c-1.079 0-1.688-.438-1.688-1.078 0-.36.203-.75.64-1.079.266.063.548.094.657.094h1.078c.766 0 1.188.203 1.188.781 0 .641-.735 1.282-1.875 1.282zm0 0"/></symbol><symbol overflow="visible" id="aA"><path d="M2.906.125c1.266 0 2.36-1.016 2.36-2.781 0-1.781-1.094-2.813-2.36-2.813-1.265 0-2.36 1.032-2.36 2.813C.547-.891 1.642.125 2.907.125zm0-.5c-1.015 0-1.765-.922-1.765-2.281 0-1.36.75-2.297 1.765-2.297 1.016 0 1.781.937 1.781 2.297S3.922-.375 2.907-.375zm0 0"/></symbol><symbol overflow="visible" id="aB"><path d="M2.14.125c.657 0 1.282-.36 1.813-.813h.031L4.031 0h.485v-3.375c0-1.188-.438-2.094-1.688-2.094-.844 0-1.578.422-1.969.703l.25.422c.36-.281.954-.61 1.641-.61 1 0 1.219.813 1.203 1.61-2.312.266-3.328.828-3.328 2 0 1 .672 1.469 1.516 1.469zm.11-.484c-.578 0-1.063-.282-1.063-1.016 0-.813.704-1.313 2.766-1.547v1.735c-.625.546-1.125.828-1.703.828zm0 0"/></symbol><symbol overflow="visible" id="aC"><path d="M1.672.125c.187 0 .281-.031.39-.063L1.97-.39c-.11.016-.14.016-.188.016-.14 0-.234-.11-.234-.36v-7.218H.984v7.156c0 .625.22.922.688.922zm0 0"/></symbol><symbol overflow="visible" id="aD"><path d="M2.266.125c1.156 0 1.796-.688 1.796-1.516 0-1.03-.89-1.312-1.687-1.625-.61-.234-1.219-.453-1.219-1.046 0-.485.36-.922 1.125-.922.516 0 .89.218 1.25.484l.297-.406c-.406-.313-.953-.563-1.531-.563-1.094 0-1.703.657-1.703 1.438 0 .922.86 1.25 1.625 1.531.61.219 1.265.516 1.265 1.14 0 .548-.39 1.016-1.187 1.016-.719 0-1.203-.281-1.656-.672l-.297.422c.469.39 1.156.719 1.922.719zm0 0"/></symbol><symbol overflow="visible" id="aE"><path d="M2.719.125c.672 0 1.25-.36 1.672-.797h.015L4.484 0h.47v-7.953h-.579v2.172l.047.968c-.516-.421-.938-.656-1.563-.656-1.234 0-2.312 1.094-2.312 2.813 0 1.781.86 2.781 2.172 2.781zm.094-.5c-1.063 0-1.657-.906-1.657-2.281 0-1.313.766-2.297 1.766-2.297.484 0 .922.172 1.453.656v3.078c-.516.547-1 .844-1.563.844zm0 0"/></symbol><symbol overflow="visible" id="aF"><path d="M1.063-5.328l-.72.047v.437h.72V0h.578v-4.844h1.187v-.484H1.641v-1.094c0-.75.234-1.172.796-1.172.204 0 .407.047.626.157l.124-.47a1.9 1.9 0 0 0-.78-.171c-.876 0-1.345.562-1.345 1.625zM4.092 0h.563v-5.328h-.562zm.298-7.516c-.266 0-.485.172-.485.47 0 .28.219.468.485.468.25 0 .484-.188.484-.469 0-.297-.234-.469-.484-.469zm0 0"/></symbol><symbol overflow="visible" id="aG"><path d="M2.938.125c.656 0 1.218-.281 1.671-.688l-.28-.39c-.345.312-.829.578-1.36.578-1.094 0-1.828-.922-1.828-2.281 0-1.36.796-2.297 1.843-2.297.485 0 .86.219 1.188.531l.328-.39c-.36-.344-.844-.657-1.531-.657-1.297 0-2.422 1.032-2.422 2.813C.547-.891 1.578.125 2.937.125zm0 0"/></symbol><symbol overflow="visible" id="aH"><path d="M.984 0h.563v-3.578c.39-.985.937-1.344 1.406-1.344.203 0 .297.016.469.094l.125-.516a1.027 1.027 0 0 0-.531-.125c-.61 0-1.125.453-1.485 1.125h-.015l-.063-.984H.984zm0 0"/></symbol><symbol overflow="visible" id="aI"><path d="M3.188-7.906a1.9 1.9 0 0 0-.782-.172c-.875 0-1.344.562-1.344 1.625v1.125l-.718.047v.437h.719V0h.578v-4.844h1.187v-.484H1.641v-1.094c0-.75.234-1.172.796-1.172.204 0 .407.047.626.157zm0 0"/></symbol><symbol overflow="visible" id="aJ"><path d="M.984 0h.563v-3.984c.61-.641 1.047-.97 1.64-.97.813 0 1.157.516 1.157 1.626V0h.562v-3.406c0-1.375-.5-2.063-1.578-2.063-.719 0-1.265.422-1.797.953l.016-1.156v-2.281H.984zm0 0"/></symbol><symbol overflow="visible" id="aK"><path d="M1.781 0h.688l.86-3.188c.155-.515.28-1.015.39-1.546h.047c.156.53.25 1.015.39 1.53L5.046 0h.735L7.25-5.328h-.563l-.89 3.36c-.125.515-.234.968-.36 1.452h-.046c-.125-.484-.25-.937-.375-1.453l-.938-3.36h-.625l-.922 3.36c-.125.5-.25.969-.375 1.453H2.11c-.093-.484-.218-.937-.343-1.453l-.907-3.36H.25zm0 0"/></symbol><symbol overflow="visible" id="aL"><path d="M.984 0h.563v-3.984c.547-.641 1.047-.97 1.516-.97.765 0 1.124.516 1.124 1.626V0h.563v-3.984c.563-.641 1.047-.97 1.516-.97.765 0 1.125.516 1.125 1.626V0h.562v-3.406c0-1.375-.516-2.063-1.562-2.063-.61 0-1.172.422-1.766 1.078-.188-.656-.61-1.078-1.438-1.078-.593 0-1.171.422-1.656.953h-.015l-.063-.812H.984zm0 0"/></symbol><symbol overflow="visible" id="aM"><path d="M.984 2.375h.563V.453L1.53-.516c.532.422 1.063.641 1.547.641 1.219 0 2.297-1.063 2.297-2.875 0-1.64-.703-2.719-2.094-2.719-.64 0-1.234.39-1.75.782h-.015l-.063-.641H.984zm2.047-2.75c-.39 0-.922-.172-1.484-.656V-4.11c.61-.547 1.125-.844 1.625-.844 1.172 0 1.594.922 1.594 2.203 0 1.438-.72 2.375-1.735 2.375zm0 0"/></symbol><symbol overflow="visible" id="aN"><path d="M.828 2.406c.969 0 1.5-.86 1.813-1.781l2.03-5.953h-.577L3.03-2.062c-.156.453-.312 1.015-.469 1.5h-.046c-.188-.485-.391-1.047-.563-1.5L.75-5.329H.125L2.265.078l-.14.453c-.25.766-.672 1.344-1.297 1.344-.156 0-.312-.031-.422-.078l-.125.5c.14.062.344.11.547.11zm0 0"/></symbol><symbol overflow="visible" id="aO"><path d="M.984 0h.563v-1.438l1.125-1.359L4.359 0h.625L3-3.219l1.719-2.11h-.657l-2.5 3.141h-.015v-5.765H.984zm0 0"/></symbol><symbol overflow="visible" id="aP"><path d="M2.063 0h.687l1.906-5.328h-.578L2.953-2.062c-.172.515-.36 1.062-.531 1.546H2.39a35.872 35.872 0 0 1-.516-1.546L.75-5.329H.125zm0 0"/></symbol><symbol overflow="visible" id="aQ"><path d="M6.656-6.11v-1.327H.063v1.328H2.64V.828l1.437.016V-6.11zm0 0"/></symbol><symbol overflow="visible" id="aR"><path d="M6.172.797A2.789 2.789 0 0 1 5.969-.22v-3.297c0-1.25-1.266-1.937-2.75-1.937-1.531 0-2.797.984-2.672 2.234H1.89c-.032-.547.578-1 1.328-1 .812 0 1.297.266 1.297.672 0 .438-.485.563-.86.625-.437.11-1.187.156-1.86.375C.907-2.25.188-1.5.329-.469.468.641 1.422 1.078 2.547.953 3.28.875 4.125.47 4.516.063c.03.328.125.609.187.718zM4.516-1.688c0 .532-.735 1.016-1.329 1.22-.468.171-1.203.327-1.359-.173-.14-.375.125-.593.547-.765.344-.14.984-.235 1.469-.344.203-.063.484-.14.672-.297zm0 0"/></symbol><symbol overflow="visible" id="aS"><path d="M6.156-1.766c.172-2.5-1.297-3.64-2.86-3.64C1.517-5.406.376-4 .376-2.234.375-.5 1.578.922 3.313.922 4.937.922 5.703-.063 6-.828H4.516c-.157.203-.61.562-1.235.562-1 0-1.484-.984-1.484-1.5zM1.844-2.922c.11-.672.61-1.281 1.437-1.281.781 0 1.266.5 1.422 1.281zm0 0"/></symbol><symbol overflow="visible" id="aT"><path d="M7.11-3.89H.25v1.453h6.86zm0 0"/></symbol><symbol overflow="visible" id="aU"><path d="M6.297.797L3.594-2.938l2.312-2.28H4.094l-2 1.984v-4.25H.656v8.28h1.438v-2.218l.484-.531L4.625.797zm0 0"/></symbol><symbol overflow="visible" id="aV"><path d="M6.203-5.25l-1.547-.016-1.484 3.657-1.469-3.657-1.547.016L2.328.14l-.015.297a.787.787 0 0 1-.735.516h-.61V2.22h.75c.313 0 .735-.031 1.079-.203.297-.141.672-.516.86-.985zm0 0"/></symbol><symbol overflow="visible" id="aW"><path d="M5.813.797V-5.22H4.359v3.313c0 .922-.468 1.515-1.265 1.515-.75 0-1-.468-1-1.406v-3.422H.64v4.063C.64-.141 1.17.875 2.406.969A2.523 2.523 0 0 0 4.36.234v.563zm0 0"/></symbol><symbol overflow="visible" id="aY"><path d="M6.328.766V-.563H2.172v-6.921H.766v8.25zm0 0"/></symbol><symbol overflow="visible" id="aZ"><path d="M6.484-4.531c-.187-.828-1.14-2.203-2.968-2.203C1.562-6.734.344-5.22.344-3.047.344-.844 1.563.656 3.516.656c1.859 0 2.718-1.39 2.937-2.281h-.719C5.531-.891 4.86.047 3.516.047c-1.5 0-2.454-1.281-2.454-3.094 0-1.797.954-3.062 2.454-3.062 1.343 0 2 .906 2.218 1.578zm0 0"/></symbol><symbol overflow="visible" id="ba"><path d="M5.64.453V-.14H1.314v-2.734h4.062v-.594H1.312v-2.484h4.204v-.594H.625v7zm0 0"/></symbol><symbol overflow="visible" id="bb"><path d="M3.531-6.734C1.578-6.734.344-5.22.344-3.047.344-.844 1.578.656 3.53.656c1.938 0 3.203-1.5 3.203-3.703 0-2.172-1.265-3.687-3.203-3.687zm0 6.78c-1.5 0-2.469-1.296-2.469-3.093 0-1.781.97-3.062 2.47-3.062C5.015-6.11 6-4.83 6-3.047 6-1.25 5.016.047 3.531.047zm0 0"/></symbol><symbol overflow="visible" id="bd"><path d="M2.578 1.781C1.563.047 1.141-1.516 1.141-2.984c0-1.485.421-3.032 1.437-4.782h-.5c-.64.97-1.687 2.61-1.687 4.782C.39-.813 1.437.812 2.078 1.78zm0 0"/></symbol><symbol overflow="visible" id="be"><path d="M4.406-3.094c-.765-.312-1.687-.39-2.187-.562-.485-.156-1.063-.453-1.031-1.203.015-.735.687-1.329 1.75-1.329 1.109 0 1.828.75 1.812 1.625h.688c.03-.734-.563-2.234-2.5-2.234C1.266-6.797.5-5.766.453-4.859c-.047.921.5 1.453 1.438 1.78.671.25 1.5.267 2.14.532.61.281 1.016.688.907 1.313C4.813-.422 4.03.094 2.984.094 1.797.094.891-.546.891-1.813H.203C.187-.546 1.093.704 2.953.704c1.672 0 2.563-.922 2.703-1.953.11-.813-.422-1.516-1.25-1.844zm0 0"/></symbol><symbol overflow="visible" id="bf"><path d="M4.297-1.047c-.172.61-.734 1.11-1.563 1.11C1.688.063.97-.829.97-2.079c0-1.235.719-2.125 1.765-2.125 1 0 1.47.656 1.579 1.125h.734c-.14-.766-.969-1.735-2.313-1.735-1.546 0-2.5 1.188-2.5 2.735 0 1.531.954 2.734 2.5 2.734 1.329 0 2.079-.86 2.313-1.703zm0 0"/></symbol><symbol overflow="visible" id="bg"><path d="M5.063.484a2.484 2.484 0 0 1-.141-.828v-2.781c0-1.078-1.016-1.703-2.219-1.703-1.25 0-2.297.672-2.203 1.687h.656c-.031-.656.578-1.093 1.547-1.093 1.031 0 1.5.546 1.5 1.078 0 .469-.5.578-.828.64-.625.11-1.39.11-1.984.282C.656-2.016.094-1.516.187-.625c.094.89.938 1.328 2 1.266.829-.047 1.61-.516 2.016-.97.016.345.094.673.172.813zm-.86-1.828c0 .64-.969 1.344-1.937 1.422C1.546.125.922-.125.875-.734c-.031-.532.328-.891 1.031-1.079.313-.078 1.266-.156 1.688-.25.219-.03.453-.14.61-.25zm0 0"/></symbol><symbol overflow="visible" id="bh"><path d="M1.313.453v-7.016H.625V.454zm0 0"/></symbol><symbol overflow="visible" id="bi"><path d="M5.219-1.922c.047-1.906-1.125-2.89-2.5-2.89-1.5 0-2.485 1.187-2.485 2.734C.234-.547 1.25.656 2.734.656c1.375 0 2.032-.86 2.282-1.547h-.75c-.172.485-.641.954-1.547.954-.86 0-1.735-.797-1.766-1.97zM.984-2.469c.063-1.062.797-1.75 1.735-1.75.969 0 1.719.703 1.765 1.75zm0 0"/></symbol><symbol overflow="visible" id="bj"><path d="M5.844-6.547h-.688v4.734c0 1-.64 1.844-2 1.844-1.36 0-1.984-.844-1.984-1.843v-4.735H.5L.484-1.703c0 1.281.954 2.36 2.672 2.36 1.719 0 2.688-1.079 2.688-2.36zm0 0"/></symbol><symbol overflow="visible" id="bk"><path d="M3.125-4.813c-.75 0-1.375.329-1.766.875l-.046-.015v-.672H.625V2h.688V-.234l.046-.032c.391.579 1.016.922 1.766.922 1.438 0 2.39-1.125 2.39-2.734 0-1.61-.968-2.735-2.39-2.735zm-.11 4.86c-1.062 0-1.703-.875-1.703-2.125s.641-2.125 1.704-2.125c1.078 0 1.75.875 1.75 2.125S4.094.047 3.016.047zm0 0"/></symbol><symbol overflow="visible" id="bl"><path d="M3.547-6.563H.625V.47h.688v-2.844h2.234c1.36 0 2.375-.828 2.375-2.078 0-1.281-1.016-2.11-2.375-2.11zm0 3.579H1.312v-2.97h2.235c.86 0 1.656.454 1.656 1.5 0 1-.797 1.47-1.656 1.47zm0 0"/></symbol><symbol overflow="visible" id="bm"><path d="M3.203-4.797c-.219 0-.64.047-.969.203-.375.188-.671.438-.859.782l-.063-.016v-.797H.625V.453h.688v-2.656c0-.89.296-1.375.89-1.719.313-.172.703-.203 1-.203zm0 0"/></symbol><symbol overflow="visible" id="bn"><path d="M2.14-4.094v-.562h-.734v-1.578H.72v1.578h-.64v.562h.64v3.375c0 .406.015.61.172.813.14.203.375.375.671.375h.532v-.547c-.14 0-.406 0-.547-.14-.172-.157-.14-.313-.14-.579v-3.297zm0 0"/></symbol><symbol overflow="visible" id="bo"><path d="M5.016.453v-3.437c0-.891-.61-1.766-1.688-1.829-.953-.062-1.578.36-2.015.875v-.687H.625V.453h.688v-3.11c0-.734.703-1.5 1.656-1.5.844 0 1.36.5 1.36 1.423V.453zm0 0"/></symbol><symbol overflow="visible" id="bp"><path d="M3.578-2.156c-.453-.219-1.125-.281-1.594-.422-.359-.125-.953-.313-.921-.844.03-.515.484-.844 1.296-.844.97 0 1.375.579 1.375 1.032h.672c.047-.672-.61-1.641-2.015-1.641-1.282 0-1.954.734-2 1.469-.032.672.5 1.062 1.078 1.25.437.156 1.11.234 1.625.453.469.187.86.437.781.906-.094.563-.719.86-1.438.86C1.579.063.845-.376.845-1.125H.156C.156-.437.703.703 2.47.672 3.688.656 4.484-.047 4.563-.875c.078-.703-.5-1.047-.985-1.281zm0 0"/></symbol><symbol overflow="visible" id="bq"><path d="M5.344.453v-.578H1.312v-6.422H.625v7zm0 0"/></symbol><symbol overflow="visible" id="br"><path d="M5.156.453v-7.016H4.47v2.657l-.063.031a2.088 2.088 0 0 0-1.765-.938c-1.422 0-2.375 1.157-2.375 2.75 0 1.547.953 2.72 2.375 2.72.734 0 1.406-.345 1.765-.923l.063.016v.703zM2.75.047c-1.078 0-1.734-.922-1.734-2.11 0-1.234.656-2.124 1.734-2.124 1.078 0 1.734.875 1.734 2.125S3.828.046 2.75.046zm0 0"/></symbol><symbol overflow="visible" id="bs"><path d="M1.688 0H.563v.953h.625c0 .219-.25.5-.61.531l.266.329c.187-.079.422-.172.594-.407a1.12 1.12 0 0 0 .25-.718zm0 0"/></symbol><symbol overflow="visible" id="bt"><path d="M6.484.453L3.125-3.578a41.817 41.817 0 0 0 2.781-2.985h-.89a42.633 42.633 0 0 1-3.704 3.797v-3.78H.625v7h.688V-1.86c.234-.204.765-.688 1.312-1.22L5.641.454zm0 0"/></symbol><symbol overflow="visible" id="bu"><path d="M6.328.453L4.266-2.562c.906-.235 1.687-.985 1.687-1.985 0-1.172-.969-2.016-2.344-2.016H.625V.454h.688V-2.5h2.171L5.516.453zM3.562-3.094h-2.25v-2.86H3.61c.813 0 1.61.391 1.61 1.407 0 .984-.828 1.453-1.657 1.453zm0 0"/></symbol><symbol overflow="visible" id="bv"><path d="M6.61.453L3.655-6.563h-.781L-.094.484h.719l.797-1.906h3.687L5.922.453zM4.874-2.03H1.672l1.594-3.797zm0 0"/></symbol><symbol overflow="visible" id="bw"><path d="M.781-7.766h-.5C1.297-6.016 1.72-4.469 1.72-2.984c0 1.468-.422 3.03-1.438 4.765h.5C1.421.813 2.47-.812 2.47-2.984c0-2.172-1.047-3.813-1.688-4.782zm0 0"/></symbol><symbol overflow="visible" id="bx"><path d="M3.734-5.328H1.578L.797-2.641a1.88 1.88 0 0 1 .469-.234c.203-.078.375-.11.609-.11.25 0 .594.047.86.282.156.172.312.437.312.875 0 .453-.188.734-.344.906-.125.125-.375.297-.797.297a1.32 1.32 0 0 1-.687-.188 1.191 1.191 0 0 1-.39-.468l-.61.515c.25.375.547.563.625.61.328.203.687.25 1 .25.531 0 1.031-.14 1.453-.547.344-.36.531-.828.531-1.422 0-.688-.265-1.11-.515-1.36-.313-.328-.766-.484-1.204-.484-.078 0-.171.016-.25.016l.266-.875h1.61zm0 0"/></symbol><symbol overflow="visible" id="by"><path d="M3.516-5.734L.156-1.016H2.75V0h.766v-1.016h.562v-.75h-.562zM1.546-1.75L2.75-3.469v1.719zm0 0"/></symbol></defs><g fill="#231f20"><use xlink:href="#a" x="43.403" y="194.051"/><use xlink:href="#b" x="53.112" y="194.051"/><use xlink:href="#c" x="62.884" y="194.051"/><use xlink:href="#d" x="71.905" y="194.051"/><use xlink:href="#e" x="76.463" y="194.051"/><use xlink:href="#f" x="84.796" y="194.051"/><use xlink:href="#g" x="92.281" y="194.051"/><use xlink:href="#f" x="96.679" y="194.051"/><use xlink:href="#h" x="104.164" y="194.051"/><use xlink:href="#i" x="107.747" y="194.051"/><use xlink:href="#j" x="117.439" y="194.051"/><use xlink:href="#h" x="122.637" y="194.051"/><use xlink:href="#k" x="126.22" y="194.051"/><use xlink:href="#l" x="132.25" y="194.051"/><use xlink:href="#m" x="141.958" y="194.051"/><use xlink:href="#h" x="150.819" y="194.051"/><use xlink:href="#n" x="154.401" y="194.051"/><use xlink:href="#c" x="163.23" y="194.051"/><use xlink:href="#o" x="172.251" y="194.051"/><use xlink:href="#k" x="180.392" y="194.051"/><use xlink:href="#i" x="186.421" y="194.051"/><use xlink:href="#p" x="196.114" y="194.051"/><use xlink:href="#f" x="202.319" y="194.051"/><use xlink:href="#h" x="209.804" y="194.051"/><use xlink:href="#i" x="213.387" y="194.051"/><use xlink:href="#j" x="223.079" y="194.051"/><use xlink:href="#h" x="228.278" y="194.051"/><use xlink:href="#q" x="231.86" y="194.051"/><use xlink:href="#l" x="242.064" y="194.051"/><use xlink:href="#c" x="251.773" y="194.051"/><use xlink:href="#b" x="260.793" y="194.051"/><use xlink:href="#r" x="270.566" y="194.051"/><use xlink:href="#m" x="279.57" y="194.051"/><use xlink:href="#f" x="288.431" y="194.051"/><use xlink:href="#h" x="295.916" y="194.051"/><use xlink:href="#g" x="299.499" y="194.051"/><use xlink:href="#b" x="303.897" y="194.051"/><use xlink:href="#h" x="313.669" y="194.051"/><use xlink:href="#s" x="317.252" y="194.051"/><use xlink:href="#g" x="327.76" y="194.051"/><use xlink:href="#i" x="332.158" y="194.051"/><use xlink:href="#t" x="341.851" y="194.051"/><use xlink:href="#u" x="347.4" y="194.051"/><use xlink:href="#b" x="352.087" y="194.051"/><use xlink:href="#v" x="361.859" y="194.051"/><use xlink:href="#m" x="370.192" y="194.051"/><use xlink:href="#f" x="379.053" y="194.051"/><use xlink:href="#k" x="386.538" y="194.051"/><use xlink:href="#w" x="392.567" y="194.051"/><use xlink:href="#m" x="407.378" y="194.051"/><use xlink:href="#b" x="416.238" y="194.051"/><use xlink:href="#k" x="426.011" y="194.051"/></g><g fill="#231f20"><use xlink:href="#x" x="43.403" y="213.244"/><use xlink:href="#b" x="52.808" y="213.244"/><use xlink:href="#v" x="62.58" y="213.244"/><use xlink:href="#g" x="70.913" y="213.244"/><use xlink:href="#p" x="75.311" y="213.244"/><use xlink:href="#i" x="81.517" y="213.244"/><use xlink:href="#b" x="91.209" y="213.244"/><use xlink:href="#w" x="100.982" y="213.244"/><use xlink:href="#m" x="115.792" y="213.244"/><use xlink:href="#b" x="124.653" y="213.244"/><use xlink:href="#k" x="134.425" y="213.244"/><use xlink:href="#h" x="140.455" y="213.244"/><use xlink:href="#c" x="144.037" y="213.244"/><use xlink:href="#b" x="153.058" y="213.244"/><use xlink:href="#y" x="162.83" y="213.244"/><use xlink:href="#h" x="172.747" y="213.244"/><use xlink:href="#q" x="176.329" y="213.244"/><use xlink:href="#i" x="186.533" y="213.244"/><use xlink:href="#p" x="196.226" y="213.244"/><use xlink:href="#z" x="202.431" y="213.244"/><use xlink:href="#i" x="212.348" y="213.244"/><use xlink:href="#p" x="222.04" y="213.244"/><use xlink:href="#c" x="228.246" y="213.244"/><use xlink:href="#k" x="237.266" y="213.244"/><use xlink:href="#m" x="243.296" y="213.244"/><use xlink:href="#h" x="252.156" y="213.244"/><use xlink:href="#A" x="255.739" y="213.244"/><use xlink:href="#c" x="264.936" y="213.244"/><use xlink:href="#d" x="273.956" y="213.244"/><use xlink:href="#B" x="278.515" y="213.244"/><use xlink:href="#m" x="288.223" y="213.244"/><use xlink:href="#h" x="297.084" y="213.244"/><use xlink:href="#g" x="300.666" y="213.244"/><use xlink:href="#b" x="305.064" y="213.244"/><use xlink:href="#h" x="314.837" y="213.244"/><use xlink:href="#C" x="318.419" y="213.244"/><use xlink:href="#D" x="327.296" y="213.244"/><use xlink:href="#C" x="336.173" y="213.244"/><use xlink:href="#C" x="345.049" y="213.244"/></g><g fill="#231f20"><use xlink:href="#E" x="43.403" y="232.437"/><use xlink:href="#F" x="48.809" y="232.437"/><use xlink:href="#g" x="61.637" y="232.437"/><use xlink:href="#k" x="66.035" y="232.437"/><use xlink:href="#l" x="72.065" y="232.437"/><use xlink:href="#h" x="81.773" y="232.437"/><use xlink:href="#a" x="85.356" y="232.437"/><use xlink:href="#h" x="95.064" y="232.437"/><use xlink:href="#n" x="98.647" y="232.437"/><use xlink:href="#i" x="107.475" y="232.437"/><use xlink:href="#o" x="117.168" y="232.437"/><use xlink:href="#B" x="125.308" y="232.437"/><use xlink:href="#f" x="135.017" y="232.437"/><use xlink:href="#h" x="142.502" y="232.437"/><use xlink:href="#i" x="146.085" y="232.437"/><use xlink:href="#b" x="155.777" y="232.437"/><use xlink:href="#h" x="165.549" y="232.437"/><use xlink:href="#q" x="169.132" y="232.437"/><use xlink:href="#m" x="179.336" y="232.437"/><use xlink:href="#d" x="188.197" y="232.437"/><use xlink:href="#d" x="192.755" y="232.437"/><use xlink:href="#h" x="197.313" y="232.437"/><use xlink:href="#G" x="200.896" y="232.437"/><use xlink:href="#m" x="211.916" y="232.437"/><use xlink:href="#b" x="220.776" y="232.437"/><use xlink:href="#m" x="230.549" y="232.437"/><use xlink:href="#h" x="239.409" y="232.437"/><use xlink:href="#H" x="242.992" y="232.437"/><use xlink:href="#l" x="252.572" y="232.437"/><use xlink:href="#m" x="262.281" y="232.437"/><use xlink:href="#p" x="271.141" y="232.437"/><use xlink:href="#c" x="277.347" y="232.437"/><use xlink:href="#z" x="286.368" y="232.437"/><use xlink:href="#e" x="296.284" y="232.437"/><use xlink:href="#I" x="304.617" y="232.437"/></g><g fill="#231f20"><use xlink:href="#J" x="36.275" y="354.604"/><use xlink:href="#K" x="41.823" y="354.604"/><use xlink:href="#L" x="44.522" y="354.604"/></g><g fill="#231f20"><use xlink:href="#M" x="46.574" y="354.604"/><use xlink:href="#N" x="52.642" y="354.604"/><use xlink:href="#O" x="58.77" y="354.604"/><use xlink:href="#P" x="64.438" y="354.604"/><use xlink:href="#Q" x="67.307" y="354.604"/><use xlink:href="#R" x="72.405" y="354.604"/><use xlink:href="#S" x="77.123" y="354.604"/><use xlink:href="#R" x="79.892" y="354.604"/><use xlink:href="#L" x="84.61" y="354.604"/></g><g fill="#231f20"><use xlink:href="#T" x="86.663" y="354.604"/><use xlink:href="#U" x="92.801" y="354.604"/><use xlink:href="#L" x="95.98" y="354.604"/></g><g fill="#231f20"><use xlink:href="#V" x="98.033" y="354.604"/><use xlink:href="#W" x="101.752" y="354.604"/><use xlink:href="#X" x="107.839" y="354.604"/><use xlink:href="#L" x="113.417" y="354.604"/></g><g fill="#231f20"><use xlink:href="#S" x="115.469" y="354.604"/><use xlink:href="#N" x="118.238" y="354.604"/><use xlink:href="#Y" x="124.366" y="354.604"/><use xlink:href="#X" x="129.454" y="354.604"/><use xlink:href="#R" x="135.032" y="354.604"/><use xlink:href="#V" x="139.75" y="354.604"/><use xlink:href="#Z" x="143.469" y="354.604"/><use xlink:href="#X" x="152.705" y="354.604"/><use xlink:href="#N" x="158.283" y="354.604"/><use xlink:href="#V" x="164.411" y="354.604"/><use xlink:href="#L" x="168.129" y="354.604"/></g><g fill="#231f20"><use xlink:href="#X" x="170.183" y="354.604"/><use xlink:href="#N" x="175.761" y="354.604"/><use xlink:href="#Y" x="181.888" y="354.604"/><use xlink:href="#S" x="186.976" y="354.604"/><use xlink:href="#aa" x="189.745" y="354.604"/><use xlink:href="#T" x="193.534" y="354.604"/><use xlink:href="#N" x="199.672" y="354.604"/><use xlink:href="#Z" x="205.799" y="354.604"/><use xlink:href="#X" x="215.036" y="354.604"/><use xlink:href="#N" x="220.614" y="354.604"/><use xlink:href="#V" x="226.741" y="354.604"/><use xlink:href="#L" x="230.46" y="354.604"/></g><g fill="#231f20"><use xlink:href="#S" x="232.512" y="354.604"/><use xlink:href="#N" x="235.281" y="354.604"/><use xlink:href="#L" x="241.409" y="354.604"/></g><g fill="#231f20"><use xlink:href="#V" x="243.461" y="354.604"/><use xlink:href="#W" x="247.18" y="354.604"/><use xlink:href="#X" x="253.267" y="354.604"/><use xlink:href="#L" x="258.845" y="354.604"/></g><g fill="#231f20"><use xlink:href="#W" x="260.898" y="354.604"/><use xlink:href="#X" x="266.986" y="354.604"/><use xlink:href="#O" x="272.564" y="354.604"/><use xlink:href="#P" x="278.232" y="354.604"/><use xlink:href="#V" x="281.101" y="354.604"/><use xlink:href="#W" x="284.819" y="354.604"/><use xlink:href="#ab" x="290.907" y="354.604"/><use xlink:href="#O" x="296.095" y="354.604"/><use xlink:href="#aa" x="301.763" y="354.604"/><use xlink:href="#X" x="305.552" y="354.604"/><use xlink:href="#L" x="311.129" y="354.604"/></g><g fill="#231f20"><use xlink:href="#R" x="313.181" y="354.604"/><use xlink:href="#X" x="317.899" y="354.604"/><use xlink:href="#ab" x="323.477" y="354.604"/><use xlink:href="#V" x="328.665" y="354.604"/><use xlink:href="#T" x="332.383" y="354.604"/><use xlink:href="#aa" x="338.521" y="354.604"/><use xlink:href="#L" x="342.31" y="354.604"/></g><g fill="#231f20"><use xlink:href="#T" x="344.362" y="354.604"/><use xlink:href="#Y" x="350.5" y="354.604"/><use xlink:href="#X" x="355.588" y="354.604"/><use xlink:href="#aa" x="361.165" y="354.604"/><use xlink:href="#L" x="364.954" y="354.604"/></g><g fill="#231f20"><use xlink:href="#V" x="367.007" y="354.604"/><use xlink:href="#W" x="370.726" y="354.604"/><use xlink:href="#X" x="376.814" y="354.604"/><use xlink:href="#L" x="382.391" y="354.604"/></g><g fill="#231f20"><use xlink:href="#ac" x="384.446" y="354.604"/><use xlink:href="#O" x="390.693" y="354.604"/><use xlink:href="#R" x="396.361" y="354.604"/><use xlink:href="#V" x="401.079" y="354.604"/><use xlink:href="#L" x="404.798" y="354.604"/></g><g fill="#231f20"><use xlink:href="#ad" x="406.85" y="354.604"/><use xlink:href="#L" x="412.398" y="354.604"/></g><g fill="#231f20"><use xlink:href="#Q" x="414.449" y="354.604"/><use xlink:href="#X" x="419.547" y="354.604"/><use xlink:href="#O" x="425.125" y="354.604"/><use xlink:href="#aa" x="430.793" y="354.604"/><use xlink:href="#R" x="434.582" y="354.604"/><use xlink:href="#L" x="439.3" y="354.604"/></g><g fill="#231f20"><use xlink:href="#O" x="441.353" y="354.604"/><use xlink:href="#N" x="447.021" y="354.604"/><use xlink:href="#ae" x="453.149" y="354.604"/><use xlink:href="#L" x="459.396" y="354.604"/></g><g fill="#231f20"><use xlink:href="#ac" x="461.449" y="354.604"/><use xlink:href="#aa" x="467.696" y="354.604"/><use xlink:href="#X" x="471.485" y="354.604"/><use xlink:href="#ae" x="477.063" y="354.604"/><use xlink:href="#S" x="483.31" y="354.604"/><use xlink:href="#ab" x="486.079" y="354.604"/><use xlink:href="#V" x="491.267" y="354.604"/><use xlink:href="#S" x="494.986" y="354.604"/><use xlink:href="#T" x="497.755" y="354.604"/><use xlink:href="#N" x="503.893" y="354.604"/><use xlink:href="#L" x="510.02" y="354.604"/></g><g fill="#231f20"><use xlink:href="#T" x="512.073" y="354.604"/><use xlink:href="#U" x="518.211" y="354.604"/><use xlink:href="#L" x="521.39" y="354.604"/></g><g fill="#231f20"><use xlink:href="#U" x="523.443" y="354.604"/><use xlink:href="#af" x="526.622" y="354.604"/><use xlink:href="#V" x="532.72" y="354.604"/><use xlink:href="#af" x="536.438" y="354.604"/><use xlink:href="#aa" x="542.536" y="354.604"/><use xlink:href="#X" x="546.324" y="354.604"/><use xlink:href="#L" x="551.902" y="354.604"/></g><g fill="#231f20"><use xlink:href="#S" x="36.275" y="371.597"/><use xlink:href="#N" x="39.044" y="371.597"/><use xlink:href="#Y" x="45.172" y="371.597"/><use xlink:href="#X" x="50.26" y="371.597"/><use xlink:href="#R" x="55.838" y="371.597"/><use xlink:href="#V" x="60.556" y="371.597"/><use xlink:href="#Z" x="64.275" y="371.597"/><use xlink:href="#X" x="73.511" y="371.597"/><use xlink:href="#N" x="79.089" y="371.597"/><use xlink:href="#V" x="85.217" y="371.597"/><use xlink:href="#L" x="88.935" y="371.597"/><use xlink:href="#X" x="91.354" y="371.597"/><use xlink:href="#N" x="96.932" y="371.597"/><use xlink:href="#Y" x="103.06" y="371.597"/><use xlink:href="#S" x="108.148" y="371.597"/><use xlink:href="#aa" x="110.917" y="371.597"/><use xlink:href="#T" x="114.706" y="371.597"/><use xlink:href="#N" x="120.843" y="371.597"/><use xlink:href="#Z" x="126.971" y="371.597"/><use xlink:href="#X" x="136.208" y="371.597"/><use xlink:href="#N" x="141.785" y="371.597"/><use xlink:href="#V" x="147.913" y="371.597"/></g><g fill="#231f20"><use xlink:href="#ag" x="36.275" y="405.584"/><use xlink:href="#K" x="41.823" y="405.584"/><use xlink:href="#L" x="44.522" y="405.584"/><use xlink:href="#ah" x="46.941" y="405.584"/><use xlink:href="#af" x="53.409" y="405.584"/><use xlink:href="#aa" x="59.507" y="405.584"/><use xlink:href="#aa" x="63.295" y="405.584"/><use xlink:href="#X" x="67.084" y="405.584"/><use xlink:href="#N" x="72.662" y="405.584"/><use xlink:href="#V" x="78.789" y="405.584"/><use xlink:href="#L" x="82.508" y="405.584"/><use xlink:href="#R" x="84.927" y="405.584"/><use xlink:href="#V" x="89.645" y="405.584"/><use xlink:href="#O" x="93.364" y="405.584"/><use xlink:href="#V" x="99.032" y="405.584"/><use xlink:href="#af" x="102.75" y="405.584"/><use xlink:href="#R" x="108.848" y="405.584"/><use xlink:href="#L" x="113.566" y="405.584"/><use xlink:href="#T" x="115.985" y="405.584"/><use xlink:href="#U" x="122.123" y="405.584"/><use xlink:href="#L" x="125.302" y="405.584"/><use xlink:href="#ai" x="127.721" y="405.584"/><use xlink:href="#aa" x="133.349" y="405.584"/><use xlink:href="#T" x="137.137" y="405.584"/><use xlink:href="#aj" x="143.275" y="405.584"/><use xlink:href="#V" x="151.132" y="405.584"/><use xlink:href="#W" x="154.85" y="405.584"/><use xlink:href="#L" x="160.938" y="405.584"/><use xlink:href="#ab" x="163.357" y="405.584"/><use xlink:href="#af" x="168.545" y="405.584"/><use xlink:href="#aa" x="174.643" y="405.584"/><use xlink:href="#Y" x="178.432" y="405.584"/><use xlink:href="#X" x="183.52" y="405.584"/><use xlink:href="#R" x="189.098" y="405.584"/><use xlink:href="#L" x="193.816" y="405.584"/><use xlink:href="#O" x="196.235" y="405.584"/><use xlink:href="#N" x="201.903" y="405.584"/><use xlink:href="#ae" x="208.03" y="405.584"/><use xlink:href="#L" x="214.278" y="405.584"/><use xlink:href="#Z" x="216.697" y="405.584"/><use xlink:href="#O" x="225.934" y="405.584"/><use xlink:href="#aa" x="231.601" y="405.584"/><use xlink:href="#ak" x="235.39" y="405.584"/><use xlink:href="#X" x="240.798" y="405.584"/><use xlink:href="#V" x="246.376" y="405.584"/><use xlink:href="#al" x="250.094" y="405.584"/><use xlink:href="#P" x="253.623" y="405.584"/><use xlink:href="#X" x="256.492" y="405.584"/><use xlink:href="#ae" x="262.07" y="405.584"/><use xlink:href="#L" x="268.318" y="405.584"/><use xlink:href="#ac" x="270.737" y="405.584"/><use xlink:href="#P" x="276.984" y="405.584"/><use xlink:href="#O" x="279.853" y="405.584"/><use xlink:href="#V" x="285.521" y="405.584"/><use xlink:href="#U" x="289.24" y="405.584"/><use xlink:href="#T" x="292.418" y="405.584"/><use xlink:href="#aa" x="298.556" y="405.584"/><use xlink:href="#Z" x="302.345" y="405.584"/><use xlink:href="#R" x="311.581" y="405.584"/><use xlink:href="#L" x="316.299" y="405.584"/><use xlink:href="#am" x="318.719" y="405.584"/><use xlink:href="#Q" x="324.946" y="405.584"/><use xlink:href="#L" x="330.044" y="405.584"/></g><g fill="#231f20"><use xlink:href="#Z" x="332.463" y="405.584"/><use xlink:href="#O" x="341.7" y="405.584"/><use xlink:href="#an" x="347.368" y="405.584"/><use xlink:href="#T" x="350.147" y="405.584"/><use xlink:href="#aa" x="356.284" y="405.584"/><use xlink:href="#L" x="360.073" y="405.584"/><use xlink:href="#am" x="362.492" y="405.584"/><use xlink:href="#S" x="368.72" y="405.584"/><use xlink:href="#T" x="371.489" y="405.584"/><use xlink:href="#L" x="377.626" y="405.584"/><use xlink:href="#ao" x="380.045" y="405.584"/><use xlink:href="#ap" x="386.323" y="405.584"/><use xlink:href="#aq" x="392.97" y="405.584"/><use xlink:href="#L" x="399.888" y="405.584"/><use xlink:href="#R" x="402.307" y="405.584"/><use xlink:href="#X" x="407.025" y="405.584"/><use xlink:href="#ab" x="412.603" y="405.584"/><use xlink:href="#V" x="417.791" y="405.584"/><use xlink:href="#T" x="421.51" y="405.584"/><use xlink:href="#aa" x="427.647" y="405.584"/><use xlink:href="#R" x="431.436" y="405.584"/></g><g fill="#231f20"><use xlink:href="#ar" x="36.275" y="439.571"/><use xlink:href="#K" x="41.823" y="439.571"/><use xlink:href="#L" x="44.522" y="439.571"/><use xlink:href="#ah" x="46.941" y="439.571"/><use xlink:href="#af" x="53.409" y="439.571"/><use xlink:href="#aa" x="59.507" y="439.571"/><use xlink:href="#aa" x="63.295" y="439.571"/><use xlink:href="#X" x="67.084" y="439.571"/><use xlink:href="#N" x="72.662" y="439.571"/><use xlink:href="#V" x="78.789" y="439.571"/><use xlink:href="#L" x="82.508" y="439.571"/><use xlink:href="#R" x="84.927" y="439.571"/><use xlink:href="#V" x="89.645" y="439.571"/><use xlink:href="#O" x="93.364" y="439.571"/><use xlink:href="#V" x="99.032" y="439.571"/><use xlink:href="#af" x="102.75" y="439.571"/><use xlink:href="#R" x="108.848" y="439.571"/><use xlink:href="#L" x="113.566" y="439.571"/><use xlink:href="#T" x="115.985" y="439.571"/><use xlink:href="#U" x="122.123" y="439.571"/><use xlink:href="#L" x="125.302" y="439.571"/><use xlink:href="#Y" x="127.721" y="439.571"/><use xlink:href="#X" x="132.809" y="439.571"/><use xlink:href="#N" x="138.387" y="439.571"/><use xlink:href="#V" x="144.514" y="439.571"/><use xlink:href="#af" x="148.233" y="439.571"/><use xlink:href="#aa" x="154.331" y="439.571"/><use xlink:href="#X" x="158.119" y="439.571"/><use xlink:href="#L" x="163.697" y="439.571"/><use xlink:href="#ab" x="166.116" y="439.571"/><use xlink:href="#O" x="171.304" y="439.571"/><use xlink:href="#ac" x="176.972" y="439.571"/><use xlink:href="#S" x="183.22" y="439.571"/><use xlink:href="#V" x="185.989" y="439.571"/><use xlink:href="#O" x="189.707" y="439.571"/><use xlink:href="#P" x="195.375" y="439.571"/><use xlink:href="#L" x="198.244" y="439.571"/><use xlink:href="#S" x="200.663" y="439.571"/><use xlink:href="#N" x="203.432" y="439.571"/><use xlink:href="#Y" x="209.56" y="439.571"/><use xlink:href="#X" x="214.648" y="439.571"/><use xlink:href="#R" x="220.226" y="439.571"/><use xlink:href="#V" x="224.944" y="439.571"/><use xlink:href="#Z" x="228.663" y="439.571"/><use xlink:href="#X" x="237.899" y="439.571"/><use xlink:href="#N" x="243.477" y="439.571"/><use xlink:href="#V" x="249.605" y="439.571"/><use xlink:href="#L" x="253.323" y="439.571"/><use xlink:href="#am" x="255.742" y="439.571"/><use xlink:href="#Q" x="261.97" y="439.571"/><use xlink:href="#L" x="267.068" y="439.571"/><use xlink:href="#Z" x="269.487" y="439.571"/><use xlink:href="#O" x="278.724" y="439.571"/><use xlink:href="#an" x="284.392" y="439.571"/><use xlink:href="#T" x="287.17" y="439.571"/><use xlink:href="#aa" x="293.308" y="439.571"/><use xlink:href="#L" x="297.097" y="439.571"/><use xlink:href="#ao" x="299.516" y="439.571"/><use xlink:href="#ap" x="305.793" y="439.571"/><use xlink:href="#aq" x="312.441" y="439.571"/><use xlink:href="#L" x="319.358" y="439.571"/><use xlink:href="#R" x="321.777" y="439.571"/><use xlink:href="#X" x="326.496" y="439.571"/></g><g fill="#231f20"><use xlink:href="#ab" x="332.073" y="439.571"/><use xlink:href="#V" x="337.262" y="439.571"/><use xlink:href="#T" x="340.98" y="439.571"/><use xlink:href="#aa" x="347.118" y="439.571"/><use xlink:href="#R" x="350.906" y="439.571"/><use xlink:href="#L" x="355.625" y="439.571"/><use xlink:href="#O" x="358.044" y="439.571"/><use xlink:href="#V" x="363.712" y="439.571"/><use xlink:href="#L" x="367.43" y="439.571"/><use xlink:href="#W" x="369.849" y="439.571"/><use xlink:href="#T" x="375.937" y="439.571"/><use xlink:href="#Z" x="382.075" y="439.571"/><use xlink:href="#X" x="391.311" y="439.571"/><use xlink:href="#L" x="396.889" y="439.571"/><use xlink:href="#O" x="399.308" y="439.571"/><use xlink:href="#N" x="404.976" y="439.571"/><use xlink:href="#ae" x="411.104" y="439.571"/><use xlink:href="#L" x="417.351" y="439.571"/><use xlink:href="#O" x="419.77" y="439.571"/><use xlink:href="#am" x="425.438" y="439.571"/><use xlink:href="#aa" x="431.666" y="439.571"/><use xlink:href="#T" x="435.454" y="439.571"/><use xlink:href="#O" x="441.592" y="439.571"/><use xlink:href="#ae" x="447.26" y="439.571"/></g><g fill="#231f20"><use xlink:href="#as" x="36.275" y="473.559"/><use xlink:href="#K" x="41.823" y="473.559"/><use xlink:href="#L" x="44.522" y="473.559"/></g><g fill="#231f20"><use xlink:href="#at" x="46.94" y="473.559"/><use xlink:href="#au" x="52.798" y="473.559"/><use xlink:href="#av" x="58.245" y="473.559"/><use xlink:href="#av" x="61.87" y="473.559"/><use xlink:href="#aw" x="65.494" y="473.559"/><use xlink:href="#ax" x="68.188" y="473.559"/><use xlink:href="#ay" x="74.174" y="473.559"/><use xlink:href="#az" x="79.67" y="473.559"/><use xlink:href="#ay" x="82.021" y="473.559"/><use xlink:href="#aA" x="87.516" y="473.559"/><use xlink:href="#aB" x="93.512" y="473.559"/><use xlink:href="#aC" x="99.047" y="473.559"/><use xlink:href="#aD" x="101.839" y="473.559"/><use xlink:href="#az" x="106.443" y="473.559"/><use xlink:href="#aB" x="108.794" y="473.559"/><use xlink:href="#ax" x="114.329" y="473.559"/><use xlink:href="#aE" x="120.314" y="473.559"/><use xlink:href="#az" x="126.418" y="473.559"/><use xlink:href="#aF" x="128.769" y="473.559"/><use xlink:href="#ax" x="134.578" y="473.559"/><use xlink:href="#aB" x="140.563" y="473.559"/><use xlink:href="#ax" x="146.098" y="473.559"/><use xlink:href="#aG" x="152.084" y="473.559"/><use xlink:href="#aw" x="157.148" y="473.559"/><use xlink:href="#ax" x="159.842" y="473.559"/><use xlink:href="#ay" x="165.828" y="473.559"/><use xlink:href="#az" x="171.324" y="473.559"/><use xlink:href="#aD" x="173.675" y="473.559"/><use xlink:href="#av" x="178.279" y="473.559"/><use xlink:href="#aH" x="181.904" y="473.559"/><use xlink:href="#aB" x="185.597" y="473.559"/><use xlink:href="#av" x="191.132" y="473.559"/><use xlink:href="#au" x="194.756" y="473.559"/><use xlink:href="#ay" x="200.203" y="473.559"/><use xlink:href="#aw" x="205.699" y="473.559"/><use xlink:href="#au" x="208.393" y="473.559"/><use xlink:href="#aD" x="213.84" y="473.559"/><use xlink:href="#az" x="218.444" y="473.559"/><use xlink:href="#aI" x="220.795" y="473.559"/><use xlink:href="#aA" x="223.891" y="473.559"/><use xlink:href="#aH" x="229.886" y="473.559"/><use xlink:href="#az" x="233.579" y="473.559"/><use xlink:href="#au" x="235.93" y="473.559"/><use xlink:href="#aB" x="241.377" y="473.559"/><use xlink:href="#aG" x="246.912" y="473.559"/><use xlink:href="#aJ" x="251.977" y="473.559"/><use xlink:href="#az" x="257.923" y="473.559"/><use xlink:href="#aD" x="260.274" y="473.559"/><use xlink:href="#av" x="264.878" y="473.559"/><use xlink:href="#aB" x="268.503" y="473.559"/><use xlink:href="#ay" x="274.038" y="473.559"/><use xlink:href="#au" x="279.534" y="473.559"/><use xlink:href="#az" x="284.98" y="473.559"/><use xlink:href="#aA" x="287.331" y="473.559"/><use xlink:href="#aI" x="293.327" y="473.559"/><use xlink:href="#az" x="296.422" y="473.559"/><use xlink:href="#ay" x="298.774" y="473.559"/><use xlink:href="#aH" x="304.269" y="473.559"/><use xlink:href="#aA" x="307.962" y="473.559"/><use xlink:href="#aK" x="313.958" y="473.559"/><use xlink:href="#av" x="321.638" y="473.559"/><use xlink:href="#aJ" x="325.263" y="473.559"/><use xlink:href="#az" x="331.209" y="473.559"/></g><g fill="#231f20"><use xlink:href="#aA" x="333.56" y="473.559"/><use xlink:href="#aI" x="339.556" y="473.559"/><use xlink:href="#az" x="342.651" y="473.559"/><use xlink:href="#aB" x="345.002" y="473.559"/><use xlink:href="#az" x="350.537" y="473.559"/><use xlink:href="#aG" x="352.888" y="473.559"/><use xlink:href="#aA" x="357.953" y="473.559"/><use xlink:href="#aL" x="363.948" y="473.559"/><use xlink:href="#aM" x="372.981" y="473.559"/><use xlink:href="#aB" x="379.084" y="473.559"/><use xlink:href="#ax" x="384.619" y="473.559"/><use xlink:href="#aN" x="390.604" y="473.559"/><use xlink:href="#az" x="395.581" y="473.559"/><use xlink:href="#aI" x="397.932" y="473.559"/><use xlink:href="#aH" x="401.027" y="473.559"/><use xlink:href="#aA" x="404.721" y="473.559"/><use xlink:href="#aL" x="410.716" y="473.559"/><use xlink:href="#az" x="419.748" y="473.559"/><use xlink:href="#aB" x="422.099" y="473.559"/><use xlink:href="#az" x="427.634" y="473.559"/><use xlink:href="#aG" x="429.985" y="473.559"/><use xlink:href="#aB" x="435.05" y="473.559"/><use xlink:href="#aM" x="440.585" y="473.559"/><use xlink:href="#aw" x="446.688" y="473.559"/><use xlink:href="#av" x="449.382" y="473.559"/><use xlink:href="#aB" x="453.006" y="473.559"/><use xlink:href="#aC" x="458.541" y="473.559"/><use xlink:href="#az" x="461.333" y="473.559"/><use xlink:href="#aL" x="463.684" y="473.559"/><use xlink:href="#aB" x="472.717" y="473.559"/><use xlink:href="#aH" x="478.252" y="473.559"/><use xlink:href="#aO" x="481.945" y="473.559"/><use xlink:href="#au" x="487.225" y="473.559"/><use xlink:href="#av" x="492.672" y="473.559"/><use xlink:href="#az" x="496.296" y="473.559"/><use xlink:href="#aM" x="498.647" y="473.559"/><use xlink:href="#au" x="504.751" y="473.559"/><use xlink:href="#aH" x="510.197" y="473.559"/><use xlink:href="#aD" x="513.89" y="473.559"/><use xlink:href="#aM" x="518.495" y="473.559"/><use xlink:href="#au" x="524.598" y="473.559"/><use xlink:href="#aG" x="530.045" y="473.559"/><use xlink:href="#av" x="535.109" y="473.559"/><use xlink:href="#aw" x="538.734" y="473.559"/><use xlink:href="#aP" x="541.428" y="473.559"/><use xlink:href="#au" x="546.395" y="473.559"/></g><g fill="#231f20"><use xlink:href="#ad" x="36.275" y="507.546"/><use xlink:href="#K" x="41.823" y="507.546"/><use xlink:href="#L" x="44.522" y="507.546"/><use xlink:href="#ah" x="46.941" y="507.546"/><use xlink:href="#T" x="53.409" y="507.546"/><use xlink:href="#N" x="59.546" y="507.546"/><use xlink:href="#R" x="65.674" y="507.546"/><use xlink:href="#S" x="70.392" y="507.546"/><use xlink:href="#ae" x="73.161" y="507.546"/><use xlink:href="#X" x="79.409" y="507.546"/><use xlink:href="#aa" x="84.987" y="507.546"/><use xlink:href="#O" x="88.775" y="507.546"/><use xlink:href="#V" x="94.443" y="507.546"/><use xlink:href="#S" x="98.162" y="507.546"/><use xlink:href="#T" x="100.931" y="507.546"/><use xlink:href="#N" x="107.069" y="507.546"/><use xlink:href="#R" x="113.196" y="507.546"/><use xlink:href="#L" x="117.914" y="507.546"/><use xlink:href="#O" x="120.334" y="507.546"/><use xlink:href="#N" x="126.001" y="507.546"/><use xlink:href="#ae" x="132.129" y="507.546"/><use xlink:href="#L" x="138.377" y="507.546"/><use xlink:href="#U" x="140.796" y="507.546"/><use xlink:href="#O" x="143.975" y="507.546"/><use xlink:href="#ab" x="149.642" y="507.546"/><use xlink:href="#V" x="154.83" y="507.546"/><use xlink:href="#T" x="158.549" y="507.546"/><use xlink:href="#aa" x="164.687" y="507.546"/><use xlink:href="#R" x="168.475" y="507.546"/><use xlink:href="#L" x="173.194" y="507.546"/><use xlink:href="#U" x="175.613" y="507.546"/><use xlink:href="#T" x="178.791" y="507.546"/><use xlink:href="#aa" x="184.929" y="507.546"/><use xlink:href="#L" x="188.718" y="507.546"/><use xlink:href="#V" x="191.137" y="507.546"/><use xlink:href="#W" x="194.855" y="507.546"/><use xlink:href="#X" x="200.943" y="507.546"/><use xlink:href="#L" x="206.521" y="507.546"/><use xlink:href="#ai" x="208.94" y="507.546"/><use xlink:href="#aa" x="214.568" y="507.546"/><use xlink:href="#T" x="218.356" y="507.546"/><use xlink:href="#aj" x="224.494" y="507.546"/><use xlink:href="#V" x="232.351" y="507.546"/><use xlink:href="#W" x="236.07" y="507.546"/><use xlink:href="#L" x="242.157" y="507.546"/><use xlink:href="#T" x="244.577" y="507.546"/><use xlink:href="#U" x="250.714" y="507.546"/><use xlink:href="#L" x="253.893" y="507.546"/><use xlink:href="#O" x="256.312" y="507.546"/><use xlink:href="#L" x="261.98" y="507.546"/><use xlink:href="#ab" x="264.399" y="507.546"/><use xlink:href="#T" x="269.587" y="507.546"/><use xlink:href="#Z" x="275.725" y="507.546"/><use xlink:href="#ac" x="284.961" y="507.546"/><use xlink:href="#O" x="291.209" y="507.546"/><use xlink:href="#N" x="296.877" y="507.546"/><use xlink:href="#Q" x="303.004" y="507.546"/><use xlink:href="#L" x="308.103" y="507.546"/><use xlink:href="#S" x="310.522" y="507.546"/><use xlink:href="#N" x="313.291" y="507.546"/><use xlink:href="#L" x="319.418" y="507.546"/><use xlink:href="#V" x="321.837" y="507.546"/><use xlink:href="#W" x="325.556" y="507.546"/></g><g fill="#231f20"><use xlink:href="#X" x="331.644" y="507.546"/><use xlink:href="#L" x="337.222" y="507.546"/><use xlink:href="#Y" x="339.641" y="507.546"/><use xlink:href="#O" x="344.729" y="507.546"/><use xlink:href="#P" x="350.397" y="507.546"/><use xlink:href="#af" x="353.265" y="507.546"/><use xlink:href="#O" x="359.363" y="507.546"/><use xlink:href="#V" x="365.031" y="507.546"/><use xlink:href="#S" x="368.75" y="507.546"/><use xlink:href="#T" x="371.519" y="507.546"/><use xlink:href="#N" x="377.656" y="507.546"/><use xlink:href="#L" x="383.784" y="507.546"/><use xlink:href="#T" x="386.203" y="507.546"/><use xlink:href="#U" x="392.341" y="507.546"/><use xlink:href="#L" x="395.519" y="507.546"/><use xlink:href="#O" x="397.939" y="507.546"/><use xlink:href="#L" x="403.606" y="507.546"/><use xlink:href="#am" x="406.026" y="507.546"/><use xlink:href="#S" x="412.253" y="507.546"/><use xlink:href="#T" x="415.022" y="507.546"/><use xlink:href="#al" x="421.16" y="507.546"/><use xlink:href="#ab" x="424.688" y="507.546"/><use xlink:href="#T" x="429.877" y="507.546"/><use xlink:href="#Z" x="436.014" y="507.546"/><use xlink:href="#ac" x="445.251" y="507.546"/><use xlink:href="#O" x="451.498" y="507.546"/><use xlink:href="#N" x="457.166" y="507.546"/><use xlink:href="#Q" x="463.294" y="507.546"/></g><g fill="#231f20"><use xlink:href="#aQ" x="470.484" y="278.585"/><use xlink:href="#aR" x="477.203" y="278.585"/><use xlink:href="#aS" x="483.866" y="278.585"/><use xlink:href="#aT" x="490.486" y="278.585"/><use xlink:href="#aU" x="497.831" y="278.585"/><use xlink:href="#aV" x="504.252" y="278.585"/><use xlink:href="#aW" x="510.696" y="278.585"/><use xlink:href="#aX" x="517.216" y="278.585"/><use xlink:href="#aY" x="521.065" y="278.585"/><use xlink:href="#aS" x="527.487" y="278.585"/><use xlink:href="#aS" x="534.106" y="278.585"/></g><g fill="#231f20"><use xlink:href="#aZ" x="377.62" y="294.786"/><use xlink:href="#ba" x="384.398" y="294.786"/><use xlink:href="#bb" x="390.226" y="294.786"/><use xlink:href="#bc" x="397.283" y="294.786"/><use xlink:href="#bd" x="400.782" y="294.786"/><use xlink:href="#be" x="403.71" y="294.786"/><use xlink:href="#bf" x="409.558" y="294.786"/><use xlink:href="#bg" x="414.816" y="294.786"/><use xlink:href="#bh" x="420.184" y="294.786"/><use xlink:href="#bi" x="422.104" y="294.786"/><use xlink:href="#bc" x="427.571" y="294.786"/><use xlink:href="#bj" x="431.07" y="294.786"/><use xlink:href="#bk" x="437.388" y="294.786"/><use xlink:href="#bc" x="443.146" y="294.786"/><use xlink:href="#bl" x="446.644" y="294.786"/><use xlink:href="#bg" x="452.702" y="294.786"/><use xlink:href="#bm" x="458.07" y="294.786"/><use xlink:href="#bn" x="461.369" y="294.786"/><use xlink:href="#bo" x="463.778" y="294.786"/><use xlink:href="#bi" x="469.266" y="294.786"/><use xlink:href="#bm" x="474.734" y="294.786"/><use xlink:href="#bp" x="478.032" y="294.786"/><use xlink:href="#bc" x="482.851" y="294.786"/><use xlink:href="#bq" x="486.349" y="294.786"/><use xlink:href="#bn" x="491.677" y="294.786"/><use xlink:href="#br" x="494.086" y="294.786"/><use xlink:href="#bs" x="499.864" y="294.786"/><use xlink:href="#bc" x="502.413" y="294.786"/><use xlink:href="#bt" x="505.912" y="294.786"/><use xlink:href="#bb" x="512.209" y="294.786"/><use xlink:href="#bu" x="519.267" y="294.786"/><use xlink:href="#ba" x="525.504" y="294.786"/><use xlink:href="#bv" x="531.332" y="294.786"/><use xlink:href="#bw" x="537.85" y="294.786"/></g><g fill="#7b7979"><use xlink:href="#bx" x="27.429" y="818.875"/><use xlink:href="#by" x="31.465" y="818.875"/></g></svg>