<svg xmlns="http://www.w3.org/2000/svg" xmlns:xlink="http://www.w3.org/1999/xlink" width="794.366" height="1122.52" viewBox="0 0 595.7748 841.89" version="1.2"><defs><symbol overflow="visible" id="a"><path d="M11.344-9.766v1.875H8.03v-1.875zm-4.61 3.172H2.86v-2.343h3.875zm1.297-.218h3.313v2.343h1.328v-8.687h-1.328v2.344H8.03v-1.454H6.734v2.282H2.86v-2.282H1.563v6.735H8.03zM7.921.14C5.782.14 4.47-.47 4.47-1.5c0-1.047 1.312-1.672 3.453-1.672 2.172 0 3.484.625 3.484 1.672 0 1.031-1.312 1.64-3.484 1.64zm0-4.313c-2.952 0-4.765.969-4.765 2.672 0 1.688 1.813 2.672 4.766 2.672 2.953 0 4.781-.984 4.781-2.672 0-1.703-1.828-2.672-4.781-2.672zm0 0"/></symbol><symbol overflow="visible" id="b"><path d="M8.375-4.688v.97h2.906v1.484h1.313v-10.938H11.28v8.485zm-2.938-6.921c1.36 0 2.297.593 2.297 1.515 0 .922-.937 1.531-2.296 1.531-1.36 0-2.282-.609-2.282-1.53 0-.923.922-1.516 2.281-1.516zm0 4.03c2.094 0 3.532-.984 3.532-2.515 0-1.5-1.438-2.5-3.531-2.5-2.094 0-3.532 1-3.532 2.5 0 1.531 1.438 2.516 3.532 2.516zM4.923-2.75h1.312v-2.828A45.557 45.557 0 0 0 10.125-6l-.11-.938c-3.046.375-6.593.407-9.25.407l.172 1.093c1.188 0 2.563-.015 3.985-.078zM4.125-.203v-3.11H2.812V.86h10.141V-.203zm0 0"/></symbol><symbol overflow="visible" id="c"><path d="M5.5-12.11c-2.219 0-3.844 1.36-3.844 3.376 0 2 1.625 3.375 3.844 3.375 2.25 0 3.844-1.375 3.844-3.375 0-2.016-1.594-3.375-3.844-3.375zm0 1.126c1.484 0 2.563.906 2.563 2.25 0 1.328-1.079 2.25-2.563 2.25-1.484 0-2.563-.922-2.563-2.25 0-1.344 1.079-2.25 2.563-2.25zm5.734-2.188v14.39h1.313v-14.39zM1.11-1.937c2.594 0 6.063-.016 9.297-.625l-.125-.97c-3.125.47-6.734.485-9.344.485zm0 0"/></symbol><symbol overflow="visible" id="e"><path d="M1.703-11.61v1.047h5.39c-.28 3.407-2.202 6.157-6.046 8l.703 1.079C6.516-3.828 8.422-7.47 8.422-11.61zm9.61-1.562v14.36h1.312v-14.36zm0 0"/></symbol><symbol overflow="visible" id="f"><path d="M13.125-9.125c-2.61-.281-5.11-1.688-5.11-3.438v-.546H6.673v.546c0 1.75-2.531 3.157-5.14 3.438l.452 1c2.282-.297 4.454-1.297 5.344-2.828.906 1.531 3.078 2.531 5.344 2.828zm.703 3v-1.063h-13v1.063h5.844v1.422H2.406v1h8.453v1.312H2.453v3.422h10.14V0H3.735v-1.422h8.422v-3.281H7.984v-1.422zm0 0"/></symbol><symbol overflow="visible" id="g"><path d="M12.61-13.156h-1.313v7.422h1.312zM9.53-7.172c-2.125-.703-3.625-2.484-3.625-4.469v-1.093H4.594v1.093c0 2.079-1.485 4-3.657 4.75l.672 1.016a6.105 6.105 0 0 0 3.657-3.563c.656 1.516 1.968 2.72 3.609 3.297zM4.656-.016v-1.53h7.969v-3.47H3.328v1.047h8v1.422H3.36v3.578h9.75V-.016zm0 0"/></symbol><symbol overflow="visible" id="h"><path d="M7.328.156c-2.25 0-3.578-.562-3.578-1.531 0-.984 1.328-1.531 3.578-1.531 2.234 0 3.578.547 3.578 1.531 0 .969-1.344 1.531-3.578 1.531zm0-4.093c-3.078 0-4.906.906-4.906 2.562 0 1.64 1.828 2.547 4.906 2.547 3.094 0 4.906-.906 4.906-2.547 0-1.656-1.812-2.563-4.906-2.563zM5.344-7.75c.593.11 1.265.172 1.984.172.734 0 1.406-.063 2-.172v1.688H5.344zm-1.719-2.484c0-1.047 1.422-1.657 3.703-1.657 2.281 0 3.703.61 3.703 1.657 0 1.015-1.422 1.64-3.703 1.64-2.281 0-3.703-.625-3.703-1.64zm7 4.171v-2.03c1.11-.454 1.75-1.188 1.75-2.141 0-1.688-1.922-2.672-5.047-2.672-3.11 0-5.047.984-5.047 2.672 0 .968.625 1.687 1.766 2.156v2.015H.828v1.047h13v-1.046zm0 0"/></symbol><symbol overflow="visible" id="i"><path d="M9.5-11.422H5.89v-1.734H4.579v1.734H.922v1.031H9.5zM3.094-6.875c0-1 .86-1.656 2.14-1.656 1.282 0 2.141.656 2.141 1.656 0 .984-.86 1.625-2.14 1.625-1.282 0-2.141-.64-2.141-1.625zM5.89-4.25c1.64-.219 2.734-1.203 2.734-2.625 0-1.625-1.39-2.656-3.39-2.656S1.843-8.5 1.843-6.875c0 1.422 1.078 2.406 2.734 2.625v1.563c-1.39.046-2.734.046-3.89.046l.171 1.11c2.516 0 5.891-.032 8.97-.578l-.079-.985c-1.234.203-2.563.297-3.86.36zm8.25-2.828h-2.235v-6.094h-1.312v14.36h1.312V-5.97h2.235zm0 0"/></symbol><symbol overflow="visible" id="j"><path d="M10.89-10.656H2.517v3.078h9.937v-.953h-8.64v-1.235h8.374v-2.984H2.485v.922h8.407zM3.735-1.281h8.5v-3.063H2.406v.953h8.531v1.204h-8.5V.983h10.25V.047H3.735zM.844-6.5v1h13.015v-1zm0 0"/></symbol><symbol overflow="visible" id="k"><path d="M5.547-11.406c1.39 0 2.39.75 2.39 1.875 0 1.11-1 1.875-2.39 1.875-1.406 0-2.39-.766-2.39-1.875 0-1.125.984-1.875 2.39-1.875zm0 4.812c2.14 0 3.656-1.203 3.656-2.937 0-1.766-1.515-2.969-3.656-2.969-2.14 0-3.656 1.203-3.656 2.969 0 1.734 1.515 2.937 3.656 2.937zm4.719.703c-3.141.485-6.782.516-9.454.516l.172 1.11a72.26 72.26 0 0 0 3.97-.094V.734h1.312v-5.171a37.034 37.034 0 0 0 4.125-.47zm1.046-7.265v14.36h1.313v-14.36zm0 0"/></symbol><symbol overflow="visible" id="l"><path d="M9.36-11.406H5.78v-1.75H4.47v1.75H.89v1.047h8.468zM2.937-6.891c0-1 .874-1.64 2.187-1.64 1.297 0 2.188.64 2.188 1.64 0 1-.891 1.641-2.188 1.641-1.313 0-2.188-.64-2.188-1.64zm5.624 0c0-1.609-1.406-2.656-3.437-2.656-2.031 0-3.422 1.047-3.422 2.656 0 1.61 1.39 2.672 3.422 2.672 2.031 0 3.438-1.062 3.438-2.672zM4.375-3.25H3.062V.86h9.563V-.204h-8.25zm7.61-5.188v-4.718h-1.313v10.75h1.312v-4.922h2.125v-1.11zm0 0"/></symbol><symbol overflow="visible" id="m"><path d="M8-1.75v-3.828h4.39v-1.063H3.75v-5.296H2.437v6.359h4.25v3.828H.829v1.078h13.047V-1.75zm0 0"/></symbol><symbol overflow="visible" id="n"><path d="M8.438-6.406c-1.672.281-3.047.343-5.704.343v-2.171h4.86v-4.063H1.406v1.063h4.907v1.984h-4.86v4.266h1.031c2.86 0 4.313-.063 6.079-.36zM3.061-2.5h8.282v3.703h1.312v-4.766H3.062zm8.282-10.656v2.11H8.547v1.077h2.797v1.922H8.547v1.063h2.797v2.64h1.312v-8.812zm0 0"/></symbol><symbol overflow="visible" id="o"><path d="M1.297-3.969c0-.047.047-.328.219-.515.171-.188.39-.22.593-.22.157 0 .375.016.547.204.094.078.203.25.203.531 0 .235-.078.438-.203.563-.11.125-.328.234-.656.234h-.125v.688h.172c.156 0 .437.015.672.25.203.187.234.453.234.625 0 .359-.125.609-.281.75a.937.937 0 0 1-.61.234.877.877 0 0 1-.64-.25 1.117 1.117 0 0 1-.281-.578H.375c.047.406.219.844.453 1.094.328.375.766.453 1.172.453.406 0 .89-.078 1.266-.469.25-.25.453-.672.453-1.188 0-.312-.078-.609-.219-.828a1.034 1.034 0 0 0-.516-.421c.141-.079.329-.22.47-.454a1.38 1.38 0 0 0 .171-.703c0-.39-.094-.734-.375-1.015-.328-.36-.719-.438-1.125-.438-.344 0-.781.047-1.14.406-.25.235-.422.61-.454 1.047zm0 0"/></symbol><symbol overflow="visible" id="p"><path d="M2.234-2.422c.22 0 .454.078.61.25.156.156.25.406.25.64a.943.943 0 0 1-.235.626.815.815 0 0 1-.625.281.825.825 0 0 1-.64-.281.943.943 0 0 1-.235-.625c0-.235.094-.485.25-.64.157-.173.391-.25.625-.25zm0-2.281c.235 0 .438.094.563.219.14.125.219.343.219.593 0 .25-.094.438-.204.547a.818.818 0 0 1-.578.25.854.854 0 0 1-.593-.25.767.767 0 0 1-.204-.547c0-.25.079-.468.22-.593a.815.815 0 0 1 .577-.22zm.86 1.922c.219-.094.36-.25.453-.39.14-.22.187-.485.187-.735 0-.422-.14-.828-.437-1.11-.156-.156-.5-.406-1.063-.406-.578 0-.921.25-1.078.406-.297.282-.437.688-.437 1.11 0 .25.047.515.187.734.094.14.235.297.453.39-.234.11-.421.266-.546.438a1.37 1.37 0 0 0-.235.797c0 .547.203.922.422 1.14.234.266.625.5 1.234.5.594 0 .985-.234 1.22-.5.218-.218.421-.593.421-1.14a1.37 1.37 0 0 0-.234-.797 1.414 1.414 0 0 0-.547-.437zm0 0"/></symbol></defs><g fill="#231f20"><use xlink:href="#a" x="43.403" y="194.051"/><use xlink:href="#b" x="58.118" y="194.051"/><use xlink:href="#c" x="72.832" y="194.051"/><use xlink:href="#d" x="87.547" y="194.051"/><use xlink:href="#e" x="91.129" y="194.051"/><use xlink:href="#f" x="105.844" y="194.051"/><use xlink:href="#g" x="120.558" y="194.051"/><use xlink:href="#h" x="135.273" y="194.051"/><use xlink:href="#i" x="149.987" y="194.051"/><use xlink:href="#j" x="164.702" y="194.051"/><use xlink:href="#d" x="179.416" y="194.051"/><use xlink:href="#k" x="182.999" y="194.051"/><use xlink:href="#l" x="197.713" y="194.051"/><use xlink:href="#d" x="212.428" y="194.051"/><use xlink:href="#m" x="216.01" y="194.051"/><use xlink:href="#n" x="230.725" y="194.051"/></g><g fill="#7b7979"><use xlink:href="#o" x="27.429" y="818.875"/><use xlink:href="#p" x="31.645" y="818.875"/></g></svg>