<svg xmlns="http://www.w3.org/2000/svg" xmlns:xlink="http://www.w3.org/1999/xlink" width="794.366" height="1122.52" viewBox="0 0 595.7748 841.89" version="1.2"><defs><symbol overflow="visible" id="a"><path d="M1.594 0h1.5v-5.531h5.469V0h1.468v-11.734H8.562v4.921H3.095v-4.921h-1.5zm0 0"/></symbol><symbol overflow="visible" id="b"><path d="M1.469 0h1.453v-8.688H1.469zm.734-10.484c.578 0 1.016-.391 1.016-.938 0-.594-.438-.953-1.016-.953-.578 0-1 .36-1 .953 0 .547.422.938 1 .938zm0 0"/></symbol><symbol overflow="visible" id="c"><path d="M4.438.203c1.03 0 1.953-.562 2.64-1.234h.031L7.25 0h1.188v-12.734h-1.47v3.343l.095 1.5c-.782-.64-1.438-1.015-2.454-1.015-1.984 0-3.765 1.75-3.765 4.562C.844-1.437 2.25.203 4.438.203zm.312-1.219c-1.531 0-2.39-1.234-2.39-3.343 0-1.985 1.093-3.329 2.5-3.329.718 0 1.374.266 2.109.922v4.563c-.719.797-1.422 1.187-2.219 1.187zm0 0"/></symbol><symbol overflow="visible" id="d"><path d="M4.969.203c1.187 0 2.125-.39 2.89-.89l-.53-.954c-.641.422-1.329.688-2.173.688C3.5-.953 2.375-2.141 2.266-4h5.859a5.79 5.79 0 0 0 .063-.828c0-2.484-1.25-4.078-3.454-4.078-2.015 0-3.921 1.75-3.921 4.562C.813-1.469 2.671.203 4.968.203zM2.25-5.047C2.438-6.75 3.516-7.75 4.75-7.75c1.36 0 2.156.953 2.156 2.703zm0 0"/></symbol><symbol overflow="visible" id="e"><path d="M1.469 0h1.453v-6.297c.89-.89 1.5-1.328 2.39-1.328 1.157 0 1.641.688 1.641 2.313V0h1.469v-5.5c0-2.234-.844-3.406-2.656-3.406-1.188 0-2.079.656-2.922 1.469h-.047l-.125-1.25H1.469zm0 0"/></symbol><symbol overflow="visible" id="g"><path d="M6.031.203c1.516 0 2.672-.61 3.594-1.672l-.813-.937c-.75.828-1.593 1.312-2.718 1.312-2.235 0-3.64-1.843-3.64-4.812 0-2.922 1.468-4.75 3.687-4.75 1.015 0 1.796.469 2.406 1.125l.797-.969c-.672-.75-1.797-1.453-3.219-1.453-2.969 0-5.203 2.312-5.203 6.094 0 3.812 2.203 6.062 5.11 6.062zm0 0"/></symbol><symbol overflow="visible" id="h"><path d="M1.469 0h1.453v-6.297c.89-.89 1.5-1.328 2.39-1.328 1.157 0 1.641.688 1.641 2.313V0h1.469v-5.5c0-2.234-.844-3.406-2.656-3.406-1.188 0-2.079.656-2.891 1.453l.047-1.797v-3.484H1.469zm0 0"/></symbol><symbol overflow="visible" id="i"><path d="M3.469.203c1.078 0 2.047-.562 2.89-1.25h.047L6.531 0h1.203v-5.344c0-2.14-.906-3.562-3.015-3.562-1.39 0-2.625.625-3.422 1.125l.578 1.015c.688-.468 1.594-.937 2.61-.937 1.421 0 1.78 1.078 1.78 2.203C2.579-5.094.923-4.14.923-2.25.922-.687 2.016.203 3.469.203zM3.89-.953c-.86 0-1.532-.406-1.532-1.406 0-1.11.985-1.829 3.907-2.188v2.438C5.422-1.36 4.734-.953 3.89-.953zm0 0"/></symbol><symbol overflow="visible" id="j"><path d="M1.469 0h1.453v-6.297c.812-.906 1.547-1.328 2.203-1.328 1.094 0 1.61.688 1.61 2.313V0h1.452v-6.297c.829-.906 1.532-1.328 2.204-1.328 1.093 0 1.609.688 1.609 2.313V0h1.453v-5.5c0-2.234-.844-3.406-2.64-3.406-1.047 0-1.97.687-2.86 1.656-.36-1.016-1.078-1.656-2.406-1.656-1.031 0-1.953.656-2.703 1.484h-.047l-.125-1.266H1.469zm0 0"/></symbol><symbol overflow="visible" id="k"><path d="M1.469 3.656h1.453V.72L2.89-.797c.796.64 1.625 1 2.406 1 2 0 3.781-1.703 3.781-4.687 0-2.672-1.219-4.422-3.469-4.422-1 0-1.984.562-2.765 1.203h-.047l-.125-.984H1.469zm3.593-4.672c-.578 0-1.343-.234-2.14-.906v-4.562c.86-.782 1.61-1.204 2.344-1.204 1.64 0 2.28 1.297 2.28 3.22 0 2.171-1.046 3.452-2.484 3.452zm0 0"/></symbol><symbol overflow="visible" id="l"><path d="M4.844.203c2.125 0 4.031-1.656 4.031-4.547 0-2.89-1.906-4.562-4.031-4.562S.812-7.234.812-4.344C.813-1.454 2.72.203 4.845.203zm0-1.219c-1.5 0-2.5-1.328-2.5-3.328 0-2 1-3.36 2.5-3.36 1.515 0 2.531 1.36 2.531 3.36 0 2-1.016 3.328-2.531 3.328zm0 0"/></symbol><symbol overflow="visible" id="m"><path d="M3.75.203c2.047 0 3.156-1.156 3.156-2.578 0-1.64-1.39-2.156-2.656-2.64-.969-.36-1.906-.673-1.906-1.5 0-.673.484-1.25 1.578-1.25.781 0 1.39.327 2 .78l.703-.952c-.688-.532-1.64-.97-2.703-.97-1.89 0-3 1.079-3 2.454 0 1.484 1.375 2.062 2.594 2.516.968.374 1.984.765 1.984 1.656 0 .75-.563 1.36-1.703 1.36-1.047 0-1.828-.423-2.578-1.032L.5-.984C1.328-.297 2.516.203 3.75.203zm0 0"/></symbol><symbol overflow="visible" id="n"><path d="M2.219-6.234c.578 0 1.062-.47 1.062-1.11 0-.672-.484-1.14-1.062-1.14-.578 0-1.047.468-1.047 1.14 0 .64.469 1.11 1.047 1.11zm0 6.437C2.797.203 3.28-.234 3.28-.89c0-.656-.484-1.14-1.062-1.14-.578 0-1.047.484-1.047 1.14 0 .657.469 1.094 1.047 1.094zm0 0"/></symbol><symbol overflow="visible" id="o"><path d="M4.047 0H5.53v-10.484h3.563v-1.25H.5v1.25h3.547zm0 0"/></symbol><symbol overflow="visible" id="p"><path d="M1.594 0h6.953v-1.266H3.094V-5.53H7.53v-1.266H3.094v-3.687h5.281v-1.25H1.594zm0 0"/></symbol><symbol overflow="visible" id="q"><path d="M.234 0h1.547l1.157-2.031c.312-.531.593-1.063.906-1.547h.078c.312.484.64 1.015.922 1.547L6.125 0h1.61L4.858-4.39 7.5-8.689H5.984L4.906-6.766c-.25.485-.5.954-.781 1.438h-.063c-.28-.484-.593-.953-.859-1.438L2.031-8.687H.47l2.64 4.156zm0 0"/></symbol><symbol overflow="visible" id="r"><path d="M3.016.203c.375 0 .625-.047.843-.125l-.218-1.125c-.157.031-.22.031-.297.031-.219 0-.422-.171-.422-.609v-11.11H1.469v11C1.469-.5 1.922.204 3.016.204zm0 0"/></symbol><symbol overflow="visible" id="s"><path d="M1.469 0h1.453v-5.578c.578-1.5 1.484-2 2.203-2 .344 0 .563.031.844.14l.265-1.28c-.265-.141-.53-.188-.921-.188-.97 0-1.86.703-2.47 1.797h-.046l-.125-1.579H1.469zm0 0"/></symbol><symbol overflow="visible" id="t"><path d="M1.61 3.75c1.734 0 2.624-1.313 3.234-3.031l3.281-9.406H6.703L5.156-3.86c-.25.765-.5 1.656-.734 2.437h-.078c-.282-.781-.578-1.687-.844-2.437L1.734-8.688H.204l3.5 8.704L3.5.672c-.344 1.078-.969 1.875-1.969 1.875-.218 0-.468-.078-.656-.14L.594 3.561c.265.126.61.188 1.015.188zm0 0"/></symbol><symbol overflow="visible" id="u"><path d="M1.594 0h1.5v-11.734h-1.5zm0 0"/></symbol><symbol overflow="visible" id="v"><path d="M3.344 0h1.703l3.078-8.688H6.687L5.048-3.75a170 170 0 0 1-.813 2.563h-.062a170 170 0 0 1-.813-2.563L1.734-8.688H.204zm0 0"/></symbol><symbol overflow="visible" id="w"><path d="M4.203.203c.531 0 1.11-.156 1.61-.312l-.297-1.094c-.282.11-.688.234-.985.234-1.015 0-1.343-.61-1.343-1.687V-7.5H5.53v-1.188H3.188v-2.437h-1.22l-.171 2.438-1.36.078V-7.5h1.297v4.813c0 1.75.625 2.89 2.47 2.89zm0 0"/></symbol><symbol overflow="visible" id="x"><path d="M5.703-12.656a3.966 3.966 0 0 0-1.469-.281c-1.718 0-2.515 1.093-2.515 2.859v1.39L.53-8.608V-7.5H1.72V0h1.453v-7.5h1.844v-1.188H3.172v-1.374c0-1.126.39-1.72 1.234-1.72.297 0 .657.079.969.235zm0 0"/></symbol><symbol overflow="visible" id="y"><path d="M.703 0h7.375v-1.266h-3.25c-.594 0-1.312.063-1.922.11C5.656-3.766 7.5-6.141 7.5-8.484c0-2.094-1.313-3.47-3.406-3.47-1.485 0-2.5.688-3.453 1.735l.843.828c.641-.765 1.47-1.359 2.438-1.359 1.453 0 2.156.969 2.156 2.313 0 2.015-1.687 4.359-5.375 7.578zm0 0"/></symbol><symbol overflow="visible" id="z"><path d="M1.406 0h6.438v-1.219h-2.36v-10.515H4.375c-.64.375-1.406.64-2.438.843v.922h2.079v8.75h-2.61zm0 0"/></symbol><symbol overflow="visible" id="A"><path d="M4 .203c1.203 0 2.063-.625 2.875-1.562h.047L7.047 0H8.25v-8.688H6.797v6.157c-.828 1.047-1.453 1.469-2.344 1.469-1.156 0-1.64-.688-1.64-2.297v-5.329H1.359v5.5C1.36-.967 2.172.204 4 .204zm0 0"/></symbol><symbol overflow="visible" id="B"><path d="M2.844 0h1.719L5.78-4.656c.219-.828.39-1.64.594-2.532h.078c.203.891.36 1.688.594 2.5L8.297 0h1.765l2.344-8.688h-1.375L9.75-3.655c-.203.828-.36 1.61-.547 2.422h-.062c-.22-.813-.407-1.594-.61-2.422l-1.36-5.031H5.75l-1.344 5.03c-.234.813-.406 1.61-.593 2.423h-.079c-.171-.813-.343-1.594-.515-2.422L1.922-8.687H.438zm0 0"/></symbol><symbol overflow="visible" id="C"><path d="M1.594 0h3.75c2.625 0 4.453-1.14 4.453-3.438 0-1.609-1-2.53-2.406-2.796v-.079c1.109-.359 1.734-1.39 1.734-2.546 0-2.063-1.656-2.875-4.031-2.875h-3.5zm1.5-6.734v-3.829H4.89c1.828 0 2.765.516 2.765 1.891 0 1.188-.812 1.938-2.828 1.938zm0 5.546v-4.406H5.14c2.046 0 3.203.657 3.203 2.11 0 1.578-1.188 2.296-3.203 2.296zm0 0"/></symbol><symbol overflow="visible" id="D"><path d="M4.86.203c2.452 0 3.984-1.469 3.984-3.328 0-1.734-1.047-2.531-2.406-3.125L4.75-6.969c-.906-.39-1.938-.828-1.938-1.953 0-1.062.876-1.734 2.204-1.734 1.078 0 1.937.437 2.671 1.11l.782-.954a4.842 4.842 0 0 0-3.453-1.453c-2.141 0-3.704 1.312-3.704 3.125 0 1.703 1.297 2.547 2.391 3l1.688.734c1.109.5 1.953.89 1.953 2.078 0 1.157-.922 1.922-2.469 1.922-1.219 0-2.39-.562-3.25-1.453L.75-1.53A5.653 5.653 0 0 0 4.86.203zm0 0"/></symbol><symbol overflow="visible" id="E"><path d="M4.89.203A4.18 4.18 0 0 0 7.704-.89l-.625-.984c-.547.5-1.25.86-2.047.86-1.61 0-2.687-1.329-2.687-3.329s1.14-3.36 2.719-3.36c.703 0 1.218.329 1.734.798l.75-.985c-.625-.546-1.406-1.015-2.531-1.015C2.78-8.906.812-7.234.812-4.344c0 2.89 1.782 4.547 4.079 4.547zm0 0"/></symbol><symbol overflow="visible" id="F"><path d="M6.203.203c1.594 0 2.89-.578 3.64-1.36v-4.921H6v1.234h2.484v3.063c-.468.437-1.28.687-2.125.687-2.515 0-3.906-1.843-3.906-4.812 0-2.922 1.531-4.75 3.89-4.75 1.188 0 1.938.5 2.532 1.125l.813-.969c-.672-.719-1.75-1.453-3.391-1.453-3.094 0-5.375 2.312-5.375 6.094C.922-2.047 3.125.203 6.203.203zm0 0"/></symbol><symbol overflow="visible" id="G"><path d="M5.297.203c2 0 3.781-1.703 3.781-4.703 0-2.656-1.219-4.406-3.484-4.406-.953 0-1.938.531-2.719 1.219l.047-1.563v-3.484H1.469V0H2.64l.125-.89h.046C3.579-.188 4.5.202 5.297.202zm-.234-1.219c-.579 0-1.36-.234-2.141-.906v-4.562c.844-.782 1.61-1.204 2.344-1.204 1.64 0 2.28 1.297 2.28 3.22 0 2.171-1.046 3.452-2.484 3.452zm0 0"/></symbol><symbol overflow="visible" id="H"><path d="M1.938 0h.671l1.25-4.875c.125-.578.282-1.078.407-1.64h.03c.141.562.266 1.062.391 1.64L5.97 0h.687L8.25-7.297h-.594l-.875 4.234c-.156.782-.312 1.579-.468 2.376h-.047c-.188-.797-.36-1.594-.563-2.375l-1.11-4.235H4L2.89-3.063c-.187.782-.374 1.579-.562 2.376h-.031c-.172-.797-.328-1.594-.5-2.375L.922-7.298H.297zm0 0"/></symbol><symbol overflow="visible" id="I"><path d="M3.047.125c.765 0 1.265-.25 1.687-.516l-.218-.421c-.391.265-.844.453-1.422.453-1.14 0-1.906-.907-1.938-2.204h3.782c.015-.14.015-.28.015-.421 0-1.563-.766-2.485-2.047-2.485C1.687-5.469.562-4.39.562-2.656c0 1.75 1.11 2.781 2.485 2.781zm-1.89-3.156c.109-1.219.89-1.938 1.75-1.938.937 0 1.53.657 1.53 1.938zm0 0"/></symbol><symbol overflow="visible" id="K"><path d="M2.188.125c.671 0 1.312-.36 1.859-.813h.016L4.125 0h.484v-3.375c0-1.188-.453-2.094-1.718-2.094-.875 0-1.61.422-2.016.703l.25.422c.375-.281.984-.61 1.688-.61 1 0 1.234.813 1.218 1.61-2.343.266-3.406.828-3.406 2 0 1 .688 1.469 1.563 1.469zm.109-.484c-.594 0-1.094-.282-1.094-1.016 0-.813.734-1.313 2.828-1.547v1.735c-.625.546-1.14.828-1.734.828zm0 0"/></symbol><symbol overflow="visible" id="L"><path d="M1 0h.578v-3.578c.39-.985.969-1.344 1.438-1.344.203 0 .296.016.484.094l.125-.516a1.048 1.048 0 0 0-.547-.125c-.625 0-1.14.453-1.515 1.125h-.016l-.063-.984H1zm0 0"/></symbol><symbol overflow="visible" id="M"><path d="M1.703.125c.203 0 .297-.031.39-.063L2.017-.39c-.11.016-.157.016-.204.016-.125 0-.234-.11-.234-.36v-7.218H1v7.156c0 .625.234.922.703.922zm0 0"/></symbol><symbol overflow="visible" id="N"><path d="M1 0h.578v-5.328H1zm.297-6.578c.266 0 .5-.188.5-.469 0-.297-.234-.469-.5-.469s-.484.172-.484.47c0 .28.218.468.484.468zm0 0"/></symbol><symbol overflow="visible" id="O"><path d="M2.11 0h.687l1.969-5.328h-.594L3.016-2.062c-.172.515-.36 1.062-.532 1.546h-.046a87.833 87.833 0 0 1-.532-1.546L.766-5.329H.125zm0 0"/></symbol><symbol overflow="visible" id="P"><path d="M1 0h.578v-3.984c.625-.641 1.063-.97 1.688-.97.812 0 1.171.516 1.171 1.626V0h.579v-3.406c0-1.375-.516-2.063-1.625-2.063-.735 0-1.282.422-1.829.953h-.015l-.063-.812H1zm0 0"/></symbol><symbol overflow="visible" id="Q"><path d="M2.75 2.547c1.563 0 2.563-.89 2.563-1.813C5.313-.125 4.734-.5 3.53-.5H2.406c-.765 0-1-.297-1-.672 0-.344.188-.562.422-.734a1.8 1.8 0 0 0 .86.218c1.046 0 1.874-.78 1.874-1.875 0-.546-.218-1-.546-1.28h1.203v-.485H3.406a1.774 1.774 0 0 0-.719-.14c-1.046 0-1.906.78-1.906 1.89 0 .64.344 1.172.672 1.453v.031c-.234.188-.578.531-.578 1 0 .407.203.688.469.86v.047C.859.14.547.609.547 1.077c0 .906.875 1.469 2.203 1.469zm-.063-4.672c-.703 0-1.328-.578-1.328-1.453C1.36-4.453 1.953-5 2.688-5c.718 0 1.328.547 1.328 1.422 0 .875-.625 1.453-1.329 1.453zm.126 4.219c-1.079 0-1.72-.438-1.72-1.078 0-.36.204-.75.673-1.079.265.063.546.094.671.094h1.079c.796 0 1.218.203 1.218.781 0 .641-.75 1.282-1.921 1.282zm0 0"/></symbol><symbol overflow="visible" id="R"><path d="M2.766.125c.687 0 1.28-.36 1.718-.797H4.5L4.563 0h.484v-7.953h-.578v2.172l.047.968c-.532-.421-.954-.656-1.594-.656-1.266 0-2.36 1.094-2.36 2.813 0 1.781.875 2.781 2.204 2.781zm.109-.5c-1.078 0-1.688-.906-1.688-2.281 0-1.313.766-2.297 1.797-2.297.5 0 .954.172 1.485.656v3.078c-.532.547-1.032.844-1.594.844zm0 0"/></symbol><symbol overflow="visible" id="S"><path d="M1.813 0h.703l.875-3.188c.171-.515.296-1.015.406-1.546h.047c.156.53.25 1.015.406 1.53L5.156 0h.75l1.5-5.328h-.578l-.906 3.36c-.125.515-.25.968-.375 1.452h-.031C5.375-1 5.25-1.453 5.125-1.969l-.953-3.36h-.64l-.954 3.36c-.125.5-.25.969-.375 1.453h-.047c-.11-.484-.219-.937-.344-1.453l-.937-3.36h-.61zm0 0"/></symbol><symbol overflow="visible" id="T"><path d="M3 .125c.672 0 1.234-.281 1.703-.688l-.281-.39c-.36.312-.844.578-1.39.578-1.126 0-1.86-.922-1.86-2.281 0-1.36.812-2.297 1.875-2.297.5 0 .89.219 1.219.531l.328-.39c-.375-.344-.86-.657-1.563-.657-1.328 0-2.469 1.032-2.469 2.813C.563-.891 1.61.125 3 .125zm0 0"/></symbol><symbol overflow="visible" id="U"><path d="M2.969.125c1.297 0 2.406-1.016 2.406-2.781 0-1.781-1.11-2.813-2.406-2.813-1.281 0-2.406 1.032-2.406 2.813C.563-.891 1.688.125 2.969.125zm0-.5c-1.031 0-1.797-.922-1.797-2.281 0-1.36.766-2.297 1.797-2.297 1.047 0 1.812.937 1.812 2.297S4.016-.375 2.97-.375zm0 0"/></symbol><symbol overflow="visible" id="V"><path d="M2.5.125c.234 0 .578-.078.89-.188l-.14-.453a1.9 1.9 0 0 1-.656.141c-.703 0-.89-.438-.89-1.11v-3.359h1.53v-.484h-1.53v-1.547h-.485l-.063 1.547-.86.047v.437h.829v3.328C1.125-.53 1.453.125 2.5.125zm0 0"/></symbol><symbol overflow="visible" id="W"><path d="M2.531.125c.735 0 1.281-.406 1.797-1h.031L4.406 0h.5v-5.328h-.593v3.89C3.719-.703 3.28-.39 2.655-.39 1.844-.39 1.5-.906 1.5-1.984v-3.344H.922v3.406c0 1.375.5 2.047 1.61 2.047zm0 0"/></symbol><symbol overflow="visible" id="X"><path d="M1 0h.578v-3.984c.625-.641 1.063-.97 1.688-.97.812 0 1.171.516 1.171 1.626V0h.579v-3.406c0-1.375-.516-2.063-1.625-2.063-.735 0-1.282.422-1.829.953l.016-1.156v-2.281H1zm0 0"/></symbol><symbol overflow="visible" id="Y"><path d="M3.14.125c1.25 0 2.344-1.063 2.344-2.875 0-1.64-.718-2.719-2.14-2.719-.64 0-1.266.375-1.797.813l.031-1.016v-2.281H1V0h.469l.078-.547h.016c.484.422 1.078.672 1.578.672zm-.046-.5c-.39 0-.969-.172-1.516-.656V-4.11c.61-.547 1.156-.844 1.656-.844 1.204 0 1.641.922 1.641 2.203 0 1.438-.75 2.375-1.781 2.375zm0 0"/></symbol><symbol overflow="visible" id="Z"><path d="M.313 0h3.921v-.5H1.063L4.14-5.016v-.312H.656v.484h2.735L.312-.312zm0 0"/></symbol><symbol overflow="visible" id="aa"><path d="M3.766.125c.968 0 1.718-.328 2.187-.828v-2.922H3.687v.5h1.688v2.188c-.328.343-.938.53-1.563.53-1.624 0-2.578-1.28-2.578-3.265 0-1.969 1-3.203 2.625-3.203.797 0 1.297.328 1.657.719l.359-.39c-.406-.407-1.031-.876-2.031-.876-1.906 0-3.25 1.438-3.25 3.766C.594-1.312 1.875.125 3.766.125zm0 0"/></symbol><symbol overflow="visible" id="ab"><path d="M1.25.125a.514.514 0 0 0 .516-.531c0-.344-.25-.547-.516-.547S.734-.75.734-.406c0 .328.25.531.516.531zm0 0"/></symbol><symbol overflow="visible" id="ac"><path d="M3.266-7.906a2.047 2.047 0 0 0-.813-.172c-.89 0-1.36.562-1.36 1.625v1.125l-.75.047v.437h.75V0h.579v-4.844h1.203v-.484H1.672v-1.094c0-.75.25-1.172.812-1.172.204 0 .422.047.641.157zm0 0"/></symbol><symbol overflow="visible" id="ad"><path d="M2.313.125c1.171 0 1.828-.688 1.828-1.516 0-1.03-.907-1.312-1.72-1.625-.624-.234-1.233-.453-1.233-1.046 0-.485.359-.922 1.14-.922.516 0 .906.218 1.266.484l.312-.406C3.5-5.22 2.937-5.47 2.344-5.47c-1.11 0-1.75.657-1.75 1.438 0 .922.89 1.25 1.672 1.531.625.219 1.296.516 1.296 1.14 0 .548-.406 1.016-1.218 1.016-.735 0-1.219-.281-1.688-.672l-.312.422c.484.39 1.187.719 1.969.719zm0 0"/></symbol><symbol overflow="visible" id="ae"><path d="M1 0h.578v-3.984c.563-.641 1.078-.97 1.547-.97.781 0 1.14.516 1.14 1.626V0h.579v-3.984c.578-.641 1.062-.97 1.547-.97.78 0 1.156.516 1.156 1.626V0h.578v-3.406c0-1.375-.531-2.063-1.61-2.063-.609 0-1.202.422-1.796 1.078-.188-.656-.625-1.078-1.469-1.078-.594 0-1.203.422-1.688.953h-.015l-.063-.812H1zm0 0"/></symbol><symbol overflow="visible" id="af"><path d="M1 2.375h.578V.453l-.016-.969c.547.422 1.079.641 1.579.641 1.25 0 2.343-1.063 2.343-2.875 0-1.64-.718-2.719-2.14-2.719-.64 0-1.25.39-1.781.782h-.016l-.063-.641H1zm2.094-2.75c-.39 0-.938-.172-1.516-.656V-4.11c.625-.547 1.156-.844 1.656-.844 1.204 0 1.641.922 1.641 2.203 0 1.438-.75 2.375-1.781 2.375zm0 0"/></symbol><symbol overflow="visible" id="ag"><path d="M.453-2.516h2.453v-.5H.453zm0 0"/></symbol><symbol overflow="visible" id="ah"><path d="M1.797-2.031h.516c-.204-1.656 1.64-2.313 1.64-3.813 0-.984-.656-1.703-1.75-1.703-.765 0-1.36.375-1.797.86l.36.328c.359-.438.859-.688 1.39-.688.828 0 1.219.594 1.219 1.234 0 1.329-1.828 1.97-1.578 3.782zM2.094.125a.514.514 0 0 0 .515-.531c0-.344-.25-.547-.515-.547-.281 0-.5.203-.5.547 0 .328.218.531.5.531zm0 0"/></symbol><symbol overflow="visible" id="au"><path d="M1.063 0h.593v-7.297h-.593zm0 0"/></symbol><symbol overflow="visible" id="av"><path d="M1.063 0h.562v-4.375c0-.719-.047-1.406-.078-2.11h.047l.828 1.47L5.39 0h.625v-7.297h-.579v4.328c0 .703.047 1.438.079 2.156h-.047L4.656-2.28 1.688-7.297h-.625zm0 0"/></symbol><symbol overflow="visible" id="aw"><path d="M3.625.125c1.781 0 3.031-1.469 3.031-3.797 0-2.312-1.25-3.75-3.031-3.75-1.766 0-3.031 1.438-3.031 3.75C.594-1.344 1.859.125 3.625.125zm0-.531c-1.438 0-2.39-1.281-2.39-3.266 0-1.984.952-3.203 2.39-3.203 1.438 0 2.406 1.219 2.406 3.203 0 1.985-.968 3.266-2.406 3.266zm0 0"/></symbol><symbol overflow="visible" id="ax"><path d="M2.438 0h.656l2.36-7.297h-.61L3.547-3.094c-.281.875-.469 1.547-.766 2.438h-.047c-.28-.89-.468-1.563-.75-2.438L.688-7.297H.046zm0 0"/></symbol><symbol overflow="visible" id="ay"><path d="M1.672-2.938l.453-1.312c.281-.844.531-1.625.781-2.5h.047c.25.875.5 1.656.797 2.5l.438 1.313zM5.156 0h.64L3.25-7.297h-.625L.078 0h.61l.828-2.453h2.828zm0 0"/></symbol><symbol overflow="visible" id="az"><path d="M2.61 0h.609v-6.781h2.297v-.516H.312v.516H2.61zm0 0"/></symbol><symbol overflow="visible" id="aA"><path d="M.156 0h.61l.859-1.406c.219-.328.406-.657.61-.969h.046c.219.313.422.64.61.969L3.797 0h.656L2.656-2.734l1.64-2.594h-.609l-.78 1.312c-.188.297-.36.579-.532.875h-.047c-.203-.296-.39-.578-.562-.875L.937-5.328h-.64l1.656 2.531zm0 0"/></symbol><symbol overflow="visible" id="aB"><path d="M.844 2.406c.984 0 1.531-.86 1.844-1.781l2.078-5.953h-.579L3.095-2.062c-.156.453-.328 1.015-.485 1.5h-.046c-.188-.485-.391-1.047-.563-1.5L.766-5.329H.125L2.313.078l-.141.453c-.266.766-.688 1.344-1.328 1.344-.156 0-.328-.031-.438-.078l-.125.5c.156.062.36.11.563.11zm0 0"/></symbol><symbol overflow="visible" id="aC"><path d="M1.063 0h.593v-3.61h3.797V0h.594v-7.297h-.594v3.172H1.656v-3.172h-.593zm0 0"/></symbol><symbol overflow="visible" id="aD"><path d="M3.688.125c.937 0 1.609-.39 2.171-1.031l-.343-.39c-.516.577-1.063.89-1.813.89-1.515 0-2.469-1.281-2.469-3.266 0-1.969.97-3.203 2.5-3.203.672 0 1.204.281 1.579.719l.343-.39a2.548 2.548 0 0 0-1.922-.876c-1.843 0-3.14 1.438-3.14 3.766C.594-1.312 1.875.125 3.688.125zm0 0"/></symbol><symbol overflow="visible" id="aE"><path d="M1.656-6.797h1.39c1.267 0 1.97.39 1.97 1.453 0 1.047-.704 1.547-1.97 1.547h-1.39zM5.766 0l-1.97-3.344c1.11-.172 1.829-.844 1.829-2 0-1.422-.984-1.953-2.438-1.953H1.063V0h.593v-3.297h1.5L5.094 0zm0 0"/></symbol><symbol overflow="visible" id="aF"><path d="M.984-1.89c0-.673.5-1.204 1.11-1.673a10.77 10.77 0 0 0 2.062 2.47c-.468.437-1 .734-1.578.734C1.703-.36.984-.97.984-1.891zm.922-3.907c0-.64.39-1.156 1-1.156.578 0 .781.437.781.906 0 .734-.656 1.234-1.39 1.75-.235-.516-.39-1.031-.39-1.5zm4.39 5.422c-.405-.14-.89-.422-1.39-.797.578-.766 1-1.672 1.282-2.672H5.64c-.266.906-.625 1.703-1.125 2.344-.75-.64-1.5-1.516-2-2.39.828-.626 1.671-1.235 1.671-2.188 0-.766-.453-1.344-1.25-1.344-.921 0-1.562.703-1.562 1.64 0 .563.188 1.173.5 1.798C1.109-3.438.391-2.813.391-1.86.39-.656 1.312.125 2.516.125c.828 0 1.484-.36 2.03-.89.563.453 1.11.75 1.579.89zm0 0"/></symbol><symbol overflow="visible" id="aG"><path d="M1.063 0h1.734c2.219 0 3.328-1.438 3.328-3.672s-1.11-3.625-3.344-3.625H1.062zm.593-.516v-6.28H2.72c1.922 0 2.765 1.234 2.765 3.124 0 1.89-.843 3.156-2.765 3.156zm0 0"/></symbol><symbol overflow="visible" id="aH"><path d="M.703 1.766c.703-.36 1.203-1.032 1.203-1.86 0-.531-.25-.86-.61-.86-.265 0-.53.173-.53.5 0 .329.25.5.53.5h.11c0 .61-.36 1.063-.875 1.329zm0 0"/></symbol><symbol overflow="visible" id="aI"><path d="M6.266-7.906a2.047 2.047 0 0 0-.813-.172c-.89 0-1.36.562-1.36 1.625v1.125H1.673v-.89c0-.798.312-1.266.922-1.266.25 0 .5.046.75.171L3.5-7.78a2.372 2.372 0 0 0-.922-.188c-.953 0-1.484.594-1.484 1.703v.938l-.75.047v.437h.75V0h.578v-4.844h2.422V0h.578v-4.844h1.203v-.484H4.672v-1.094c0-.75.25-1.172.812-1.172.204 0 .422.047.641.157zm0 0"/></symbol><symbol overflow="visible" id="aL"><path d="M2.422 1.938l.36-.188C1.905.344 1.452-1.344 1.452-3.078c0-1.735.453-3.422 1.328-4.828l-.36-.188C1.517-6.625.954-5.03.954-3.078c0 1.953.563 3.531 1.469 5.015zm0 0"/></symbol><symbol overflow="visible" id="aM"><path d="M.734 1.938C1.641.452 2.188-1.126 2.188-3.079c0-1.953-.547-3.547-1.454-5.016l-.359.188c.86 1.406 1.313 3.093 1.313 4.828 0 1.734-.454 3.422-1.313 4.828zm0 0"/></symbol><symbol overflow="visible" id="aO"><path d="M1 0h.578v-1.438l1.156-1.359L4.454 0h.64L3.062-3.219l1.75-2.11h-.656L1.594-2.187h-.016v-5.765H1zm0 0"/></symbol><symbol overflow="visible" id="ai"><path d="M3.063.125c1.624 0 2.593-.953 2.593-2.14 0-1.079-.625-1.61-1.5-1.985l-1-.438c-.61-.234-1.203-.468-1.203-1.109 0-.578.5-.937 1.25-.937.64 0 1.156.25 1.61.656l.625-.734A3.141 3.141 0 0 0 3.203-7.5C1.797-7.5.781-6.625.781-5.469c0 1.063.781 1.625 1.5 1.922l1.016.453c.687.297 1.187.5 1.187 1.172 0 .625-.5 1.047-1.39 1.047-.719 0-1.438-.344-1.969-.875l-.672.797A3.635 3.635 0 0 0 3.063.125zm0 0"/></symbol><symbol overflow="visible" id="aj"><path d="M2.484.125c.75 0 1.297-.375 1.797-.953h.032L4.405 0h.938v-5.5H4.187v3.813c-.453.593-.812.828-1.312.828-.656 0-.922-.375-.922-1.329V-5.5H.797v3.453C.797-.64 1.312.125 2.484.125zm0 0"/></symbol><symbol overflow="visible" id="ak"><path d="M3.11.125c.624 0 1.28-.219 1.78-.672l-.468-.765c-.328.28-.734.5-1.203.5-.922 0-1.547-.766-1.547-1.922 0-1.172.656-1.954 1.578-1.954.375 0 .688.157.984.422l.579-.75c-.407-.343-.907-.625-1.61-.625C1.75-5.64.484-4.578.484-2.734.484-.922 1.625.125 3.11.125zm0 0"/></symbol><symbol overflow="visible" id="al"><path d="M3.156.125c.719 0 1.36-.234 1.86-.578l-.391-.734c-.406.265-.828.421-1.313.421-.953 0-1.609-.64-1.703-1.687h3.579c.015-.125.046-.36.046-.578 0-1.563-.78-2.61-2.25-2.61-1.28 0-2.5 1.11-2.5 2.907C.484-.938 1.672.125 3.156.125zm-1.562-3.36c.11-.968.718-1.5 1.422-1.5.796 0 1.218.548 1.218 1.5zm0 0"/></symbol><symbol overflow="visible" id="am"><path d="M2.36.125c1.359 0 2.093-.75 2.093-1.672 0-1.031-.86-1.375-1.625-1.656-.594-.235-1.172-.406-1.172-.875 0-.375.282-.688.89-.688.454 0 .845.204 1.22.485l.546-.703c-.453-.36-1.046-.657-1.796-.657-1.204 0-1.954.688-1.954 1.61 0 .937.844 1.328 1.579 1.593.593.235 1.218.454 1.218.954 0 .421-.312.75-.968.75-.594 0-1.079-.25-1.563-.641l-.531.75c.516.438 1.297.75 2.062.75zm0 0"/></symbol><symbol overflow="visible" id="ao"><path d="M.969 0h1.156v-3.172h2.719v-.969H2.125v-2.25h3.203v-.968H.968zm0 0"/></symbol><symbol overflow="visible" id="ap"><path d="M2.172.125c.656 0 1.25-.328 1.75-.75h.031L4.047 0h.937v-3.313c0-1.453-.625-2.328-2-2.328-.875 0-1.64.36-2.218.72l.437.78c.469-.296 1-.562 1.594-.562.797 0 1.031.562 1.047 1.203-2.297.25-3.297.86-3.297 2.047 0 .969.672 1.578 1.625 1.578zm.344-.906c-.485 0-.86-.219-.86-.766 0-.61.547-1.016 2.188-1.219v1.344c-.453.406-.844.64-1.328.64zm0 0"/></symbol><symbol overflow="visible" id="aq"><path d="M2.719.125c.406 0 .765-.094 1.078-.188l-.203-.859A1.496 1.496 0 0 1 3-.797c-.563 0-.797-.328-.797-1v-2.781h1.422V-5.5H2.203v-1.516h-.969L1.094-5.5l-.844.063v.859h.797v2.781c0 1.156.437 1.922 1.672 1.922zm0 0"/></symbol><symbol overflow="visible" id="ar"><path d="M3.063.125c1.374 0 2.593-1.047 2.593-2.86 0-1.843-1.218-2.906-2.593-2.906-1.36 0-2.579 1.063-2.579 2.907C.484-.922 1.704.125 3.063.125zm0-.938c-.86 0-1.391-.765-1.391-1.921 0-1.172.531-1.954 1.39-1.954.876 0 1.422.782 1.422 1.954 0 1.156-.546 1.921-1.421 1.921zm0 0"/></symbol><symbol overflow="visible" id="as"><path d="M.875 0h1.14v-3.438c.344-.859.891-1.171 1.329-1.171.219 0 .36.03.562.093l.203-1a1.384 1.384 0 0 0-.625-.125c-.578 0-1.171.422-1.546 1.125h-.032L1.813-5.5H.875zm0 0"/></symbol><symbol overflow="visible" id="at"><path d="M.86 0h4.202v-.953H3.625V-7.36H2.75c-.422.265-.906.421-1.594.562v.734H2.47v5.11H.859zm0 0"/></symbol><symbol overflow="visible" id="aJ"><path d="M.438 0h4.75v-.984H3.343c-.36 0-.813.03-1.188.078 1.547-1.5 2.688-2.969 2.688-4.39 0-1.329-.875-2.204-2.219-2.204-.969 0-1.61.422-2.25 1.094l.656.64c.39-.437.875-.812 1.453-.812.813 0 1.25.547 1.25 1.344 0 1.218-1.125 2.64-3.296 4.562zm0 0"/></symbol><symbol overflow="visible" id="aK"><path d="M2.688.125c1.343 0 2.453-.781 2.453-2.11 0-.984-.672-1.624-1.516-1.827v-.063c.781-.281 1.266-.875 1.266-1.719 0-1.218-.938-1.906-2.25-1.906-.844 0-1.532.375-2.11.89l.594.72c.422-.407.906-.688 1.469-.704.703.016 1.14.422 1.14 1.078 0 .735-.484 1.282-1.937 1.282v.859c1.656 0 2.187.531 2.187 1.344 0 .765-.578 1.219-1.406 1.219-.765 0-1.312-.375-1.734-.813l-.563.75c.485.547 1.235 1 2.406 1zm0 0"/></symbol><symbol overflow="visible" id="aN"><path d="M1.36-2.875l1.452-2.219c.204-.375.407-.75.594-1.125h.031c-.015.407-.062 1.016-.062 1.422v1.922zm4.046 0h-.953v-4.484H3.125L.203-2.75v.766h3.172V0h1.078v-1.984h.953zm0 0"/></symbol><symbol overflow="visible" id="aP"><path d="M2.688.125c1.28 0 2.468-.922 2.468-2.547 0-1.61-1-2.344-2.234-2.344-.406 0-.703.11-1.016.266l.172-1.89h2.735v-.97H1.078L.86-3.874l.563.375c.422-.281.703-.422 1.172-.422.844 0 1.406.563 1.406 1.547 0 .969-.625 1.563-1.453 1.563-.781 0-1.313-.375-1.735-.782l-.546.75c.53.5 1.25.969 2.421.969zm0 0"/></symbol><symbol overflow="visible" id="aQ"><path d="M4.14-7.469H.75V.813h1.422v-3H4.14c1.546 0 2.796-1.22 2.796-2.641 0-1.438-1.25-2.64-2.796-2.64zm-.187 3.953H2.172v-2.609h1.781c.703 0 1.485.375 1.485 1.297 0 .953-.782 1.312-1.485 1.312zm0 0"/></symbol><symbol overflow="visible" id="aR"><path d="M2.188-6.047v-1.406H.78v1.406zM2.171.813v-5.97H.782v5.97zm0 0"/></symbol><symbol overflow="visible" id="aS"><path d="M2.219.797L2.188-7.47H.78V.797zm0 0"/></symbol><symbol overflow="visible" id="aT"><path d="M7.11-3.89H.25v1.453h6.86zm0 0"/></symbol><symbol overflow="visible" id="aU"><path d="M7.156.813L7.141-7.47H5.703v3.25H2.187v-3.25H.766V.797h1.421v-3.672h3.516V.813zm0 0"/></symbol><symbol overflow="visible" id="aV"><path d="M7.969-5.219H6.594l-.922 3.453-.875-3.453H3.328l-.875 3.407-.906-3.391H.125L1.672.672h1.516l.89-3.25.875 3.25h1.531zm0 0"/></symbol><symbol overflow="visible" id="aW"><path d="M6.172.797A2.789 2.789 0 0 1 5.969-.22v-3.297c0-1.25-1.266-1.937-2.75-1.937-1.531 0-2.797.984-2.672 2.234H1.89c-.032-.547.578-1 1.328-1 .812 0 1.297.266 1.297.672 0 .438-.485.563-.86.625-.437.11-1.187.156-1.86.375C.907-2.25.188-1.5.329-.469.468.641 1.422 1.078 2.547.953 3.28.875 4.125.47 4.516.063c.03.328.125.609.187.718zM4.516-1.688c0 .532-.735 1.016-1.329 1.22-.468.171-1.203.327-1.359-.173-.14-.375.125-.593.547-.765.344-.14.984-.235 1.469-.344.203-.063.484-.14.672-.297zm0 0"/></symbol><symbol overflow="visible" id="aY"><path d="M7.156-7.406H5.672L3.609-3.781 1.563-7.406H.093l2.86 5.093V.767h1.328v-3.079zm0 0"/></symbol><symbol overflow="visible" id="aZ"><path d="M3.328-5.469C1.516-5.469.36-4 .36-2.234.36-.47 1.5.984 3.33.984 5.124.984 6.28-.469 6.28-2.234 6.281-4 5.141-5.47 3.328-5.47zm0 5.188c-.953 0-1.547-.875-1.547-1.953 0-1.094.594-1.954 1.547-1.954s1.547.86 1.547 1.954c0 1.078-.594 1.953-1.547 1.953zm0 0"/></symbol><symbol overflow="visible" id="ba"><path d="M3.547-6.563H.625V.47h.688v-2.844h2.234c1.36 0 2.375-.828 2.375-2.078 0-1.281-1.016-2.11-2.375-2.11zm0 3.579H1.312v-2.97h2.235c.86 0 1.656.454 1.656 1.5 0 1-.797 1.47-1.656 1.47zm0 0"/></symbol><symbol overflow="visible" id="bb"><path d="M3.203-4.797c-.219 0-.64.047-.969.203-.375.188-.671.438-.859.782l-.063-.016v-.797H.625V.453h.688v-2.656c0-.89.296-1.375.89-1.719.313-.172.703-.203 1-.203zm0 0"/></symbol><symbol overflow="visible" id="bc"><path d="M2.734-4.813c-1.546 0-2.5 1.172-2.5 2.735 0 1.531.954 2.734 2.5 2.734 1.547 0 2.5-1.203 2.5-2.734 0-1.563-.953-2.735-2.5-2.735zm0 4.875C1.672.063.97-.859.97-2.078c0-1.235.703-2.125 1.765-2.125 1.063 0 1.782.89 1.782 2.125 0 1.219-.72 2.14-1.782 2.14zm0 0"/></symbol><symbol overflow="visible" id="bd"><path d="M2.14-4.094v-.562h-.734v-.657c0-.25-.015-.453.14-.593.157-.157.438-.11.563-.11v-.546h-.546a.817.817 0 0 0-.672.343c-.157.203-.172.422-.172.828v.735h-.64v.562h.64V.484h.687v-4.578zm0 0"/></symbol><symbol overflow="visible" id="be"><path d="M5.219-1.922c.047-1.906-1.125-2.89-2.5-2.89-1.5 0-2.485 1.187-2.485 2.734C.234-.547 1.25.656 2.734.656c1.375 0 2.032-.86 2.282-1.547h-.75c-.172.485-.641.954-1.547.954-.86 0-1.735-.797-1.766-1.97zM.984-2.469c.063-1.062.797-1.75 1.735-1.75.969 0 1.719.703 1.765 1.75zm0 0"/></symbol><symbol overflow="visible" id="bf"><path d="M3.578-2.156c-.453-.219-1.125-.281-1.594-.422-.359-.125-.953-.313-.921-.844.03-.515.484-.844 1.296-.844.97 0 1.375.579 1.375 1.032h.672c.047-.672-.61-1.641-2.015-1.641-1.282 0-1.954.734-2 1.469-.032.672.5 1.062 1.078 1.25.437.156 1.11.234 1.625.453.469.187.86.437.781.906-.094.563-.719.86-1.438.86C1.579.063.845-.376.845-1.125H.156C.156-.437.703.703 2.47.672 3.688.656 4.484-.047 4.563-.875c.078-.703-.5-1.047-.985-1.281zm0 0"/></symbol><symbol overflow="visible" id="bh"><path d="M5.64.453V-.14H1.314v-2.734h4.062v-.594H1.312v-2.484h4.204v-.594H.625v7zm0 0"/></symbol><symbol overflow="visible" id="bi"><path d="M7.344.453v-3.5c0-.844-.407-1.719-1.407-1.765-1.03-.063-1.593.625-1.796.906-.204-.5-.657-.875-1.235-.906-.781-.032-1.281.375-1.625.812v-.625H.594V.453h.687v-3.187c0-.813.516-1.438 1.297-1.454.797-.015 1.063.516 1.063 1.36L3.656.453h.656v-3.187c0-.844.532-1.438 1.313-1.454.781-.015 1.047.516 1.047 1.36V.453zm0 0"/></symbol><symbol overflow="visible" id="bj"><path d="M1.344-5.813v-.78h-.75v.78zM1.312.454v-5.187H.625V.453zm0 0"/></symbol><symbol overflow="visible" id="bk"><path d="M2.14-4.094v-.562h-.734v-1.578H.72v1.578h-.64v.562h.64v3.375c0 .406.015.61.172.813.14.203.375.375.671.375h.532v-.547c-.14 0-.406 0-.547-.14-.172-.157-.14-.313-.14-.579v-3.297zm0 0"/></symbol><symbol overflow="visible" id="bl"><path d="M4.86.484v-5.109h-.657v3.11c0 .796-.703 1.5-1.656 1.53-.844.016-1.39-.5-1.39-1.437v-3.203H.5l-.016 3.39c0 1.188.86 1.891 1.813 1.891.89 0 1.5-.406 1.906-.953v.781zm0 0"/></symbol><symbol overflow="visible" id="bm"><path d="M2.578 1.781C1.563.047 1.141-1.516 1.141-2.984c0-1.485.421-3.032 1.437-4.782h-.5c-.64.97-1.687 2.61-1.687 4.782C.39-.813 1.437.812 2.078 1.78zm0 0"/></symbol><symbol overflow="visible" id="bn"><path d="M4.406-3.094c-.765-.312-1.687-.39-2.187-.562-.485-.156-1.063-.453-1.031-1.203.015-.735.687-1.329 1.75-1.329 1.109 0 1.828.75 1.812 1.625h.688c.03-.734-.563-2.234-2.5-2.234C1.266-6.797.5-5.766.453-4.859c-.047.921.5 1.453 1.438 1.78.671.25 1.5.267 2.14.532.61.281 1.016.688.907 1.313C4.813-.422 4.03.094 2.984.094 1.797.094.891-.546.891-1.813H.203C.187-.546 1.093.704 2.953.704c1.672 0 2.563-.922 2.703-1.953.11-.813-.422-1.516-1.25-1.844zm0 0"/></symbol><symbol overflow="visible" id="bo"><path d="M5.016.453v-3.437c0-.891-.61-1.766-1.688-1.829-.953-.062-1.578.36-2.015.875v-.687H.625V.453h.688v-3.11c0-.734.703-1.5 1.656-1.5.844 0 1.36.5 1.36 1.423V.453zm0 0"/></symbol><symbol overflow="visible" id="bp"><path d="M5.125-4.64h-.672v.687l-.047.015a2.176 2.176 0 0 0-1.781-.89c-1.39 0-2.36.984-2.36 2.453 0 1.453 1 2.438 2.36 2.438.719 0 1.516-.344 1.828-.954v.766c0 .938-.578 1.531-1.625 1.531-1.031 0-1.594-.515-1.656-1.062H.5C.594 1.109 1.328 2 2.813 2c1.25 0 2.312-.688 2.312-2.125zM2.719-.548c-1.031 0-1.703-.672-1.703-1.828 0-1.172.671-1.844 1.703-1.844 1.047 0 1.734.672 1.734 1.844 0 1.156-.687 1.828-1.734 1.828zm0 0"/></symbol><symbol overflow="visible" id="bq"><path d="M5.375.453L2.703-2.734l2.156-1.97h-.875L1.313-2.327v-4.235H.625V.454h.688v-2.015c.171-.141.78-.672.921-.782L4.547.453zm0 0"/></symbol><symbol overflow="visible" id="br"><path d="M4.969-4.625H4.28L2.563-.547.796-4.625H.094L2.204.313l-.298.671c-.093.25-.265.47-.578.454H.953V2h.281c.297 0 .5-.031.75-.156.25-.14.422-.422.547-.75zm0 0"/></symbol><symbol overflow="visible" id="bs"><path d="M7.156-4.625H6.5L5.266-.547h-.063L3.984-4.625h-.75L2.016-.547h-.063L.734-4.625H.063L1.625.453h.75l1.203-3.937h.063L4.859.453h.735zm0 0"/></symbol><symbol overflow="visible" id="bt"><path d="M5.063.484a2.484 2.484 0 0 1-.141-.828v-2.781c0-1.078-1.016-1.703-2.219-1.703-1.25 0-2.297.672-2.203 1.687h.656c-.031-.656.578-1.093 1.547-1.093 1.031 0 1.5.546 1.5 1.078 0 .469-.5.578-.828.64-.625.11-1.39.11-1.984.282C.656-2.016.094-1.516.187-.625c.094.89.938 1.328 2 1.266.829-.047 1.61-.516 2.016-.97.016.345.094.673.172.813zm-.86-1.828c0 .64-.969 1.344-1.937 1.422C1.546.125.922-.125.875-.734c-.031-.532.328-.891 1.031-1.079.313-.078 1.266-.156 1.688-.25.219-.03.453-.14.61-.25zm0 0"/></symbol><symbol overflow="visible" id="bu"><path d="M5.844-6.547h-.688v4.734c0 1-.64 1.844-2 1.844-1.36 0-1.984-.844-1.984-1.843v-4.735H.5L.484-1.703c0 1.281.954 2.36 2.672 2.36 1.719 0 2.688-1.079 2.688-2.36zm0 0"/></symbol><symbol overflow="visible" id="bv"><path d="M5.047-4.625h-.719L2.547-.328.78-4.625H.062L2.172.453h.781zm0 0"/></symbol><symbol overflow="visible" id="bw"><path d="M1.688 0H.563v.953h.625c0 .219-.25.5-.61.531l.266.329c.187-.079.422-.172.594-.407a1.12 1.12 0 0 0 .25-.718zm0 0"/></symbol><symbol overflow="visible" id="bx"><path d="M6.484.453L3.125-3.578a41.817 41.817 0 0 0 2.781-2.985h-.89a42.633 42.633 0 0 1-3.704 3.797v-3.78H.625v7h.688V-1.86c.234-.204.765-.688 1.312-1.22L5.641.454zm0 0"/></symbol><symbol overflow="visible" id="by"><path d="M3.531-6.734C1.578-6.734.344-5.22.344-3.047.344-.844 1.578.656 3.53.656c1.938 0 3.203-1.5 3.203-3.703 0-2.172-1.265-3.687-3.203-3.687zm0 6.78c-1.5 0-2.469-1.296-2.469-3.093 0-1.781.97-3.062 2.47-3.062C5.015-6.11 6-4.83 6-3.047 6-1.25 5.016.047 3.531.047zm0 0"/></symbol><symbol overflow="visible" id="bz"><path d="M6.328.453L4.266-2.562c.906-.235 1.687-.985 1.687-1.985 0-1.172-.969-2.016-2.344-2.016H.625V.454h.688V-2.5h2.171L5.516.453zM3.562-3.094h-2.25v-2.86H3.61c.813 0 1.61.391 1.61 1.407 0 .984-.828 1.453-1.657 1.453zm0 0"/></symbol><symbol overflow="visible" id="bA"><path d="M6.61.453L3.655-6.563h-.781L-.094.484h.719l.797-1.906h3.687L5.922.453zM4.874-2.03H1.672l1.594-3.797zm0 0"/></symbol><symbol overflow="visible" id="bB"><path d="M.781-7.766h-.5C1.297-6.016 1.72-4.469 1.72-2.984c0 1.468-.422 3.03-1.438 4.765h.5C1.421.813 2.47-.812 2.47-2.984c0-2.172-1.047-3.813-1.688-4.782zm0 0"/></symbol><symbol overflow="visible" id="bC"><path d="M3.734-5.328H1.578L.797-2.641a1.88 1.88 0 0 1 .469-.234c.203-.078.375-.11.609-.11.25 0 .594.047.86.282.156.172.312.437.312.875 0 .453-.188.734-.344.906-.125.125-.375.297-.797.297a1.32 1.32 0 0 1-.687-.188 1.191 1.191 0 0 1-.39-.468l-.61.515c.25.375.547.563.625.61.328.203.687.25 1 .25.531 0 1.031-.14 1.453-.547.344-.36.531-.828.531-1.422 0-.688-.265-1.11-.515-1.36-.313-.328-.766-.484-1.204-.484-.078 0-.171.016-.25.016l.266-.875h1.61zm0 0"/></symbol><symbol overflow="visible" id="bD"><path d="M3.781-.75H1.828l.813-.984c.312-.375.562-.672.75-.97.203-.312.375-.671.375-1.108 0-.829-.579-1.61-1.688-1.61-.656 0-1.031.297-1.219.516a1.93 1.93 0 0 0-.437 1.172h.766c.03-.5.328-.97.921-.97.579 0 .875.423.875.86 0 .313-.125.547-.28.766a11.8 11.8 0 0 1-.626.844L.266 0H3.78zm0 0"/></symbol></defs><g fill="#231f20"><use xlink:href="#a" x="43.403" y="194.051"/><use xlink:href="#b" x="55.047" y="194.051"/><use xlink:href="#c" x="59.445" y="194.051"/><use xlink:href="#c" x="69.362" y="194.051"/><use xlink:href="#d" x="79.278" y="194.051"/><use xlink:href="#e" x="88.138" y="194.051"/><use xlink:href="#f" x="97.911" y="194.051"/><use xlink:href="#g" x="101.493" y="194.051"/><use xlink:href="#h" x="111.698" y="194.051"/><use xlink:href="#i" x="121.406" y="194.051"/><use xlink:href="#j" x="130.426" y="194.051"/><use xlink:href="#k" x="145.237" y="194.051"/><use xlink:href="#b" x="155.153" y="194.051"/><use xlink:href="#l" x="159.551" y="194.051"/><use xlink:href="#e" x="169.244" y="194.051"/><use xlink:href="#m" x="179.016" y="194.051"/><use xlink:href="#n" x="186.501" y="194.051"/><use xlink:href="#f" x="190.948" y="194.051"/><use xlink:href="#o" x="194.53" y="194.051"/><use xlink:href="#h" x="204.111" y="194.051"/><use xlink:href="#d" x="213.819" y="194.051"/><use xlink:href="#f" x="222.68" y="194.051"/><use xlink:href="#p" x="226.262" y="194.051"/><use xlink:href="#q" x="235.667" y="194.051"/><use xlink:href="#d" x="243.632" y="194.051"/><use xlink:href="#j" x="252.492" y="194.051"/><use xlink:href="#k" x="267.303" y="194.051"/><use xlink:href="#r" x="277.219" y="194.051"/><use xlink:href="#i" x="281.777" y="194.051"/><use xlink:href="#s" x="290.798" y="194.051"/><use xlink:href="#t" x="297.004" y="194.051"/><use xlink:href="#f" x="305.336" y="194.051"/><use xlink:href="#u" x="308.919" y="194.051"/><use xlink:href="#e" x="313.605" y="194.051"/><use xlink:href="#e" x="323.378" y="194.051"/><use xlink:href="#l" x="333.15" y="194.051"/><use xlink:href="#v" x="342.842" y="194.051"/><use xlink:href="#i" x="351.175" y="194.051"/><use xlink:href="#w" x="360.196" y="194.051"/><use xlink:href="#l" x="366.225" y="194.051"/><use xlink:href="#s" x="375.918" y="194.051"/><use xlink:href="#m" x="382.123" y="194.051"/><use xlink:href="#f" x="389.609" y="194.051"/><use xlink:href="#l" x="393.191" y="194.051"/><use xlink:href="#x" x="402.884" y="194.051"/></g><g fill="#231f20"><use xlink:href="#w" x="43.403" y="213.244"/><use xlink:href="#h" x="49.433" y="213.244"/><use xlink:href="#d" x="59.141" y="213.244"/><use xlink:href="#f" x="68.002" y="213.244"/><use xlink:href="#y" x="71.585" y="213.244"/><use xlink:href="#z" x="80.461" y="213.244"/><use xlink:href="#m" x="89.338" y="213.244"/><use xlink:href="#w" x="96.823" y="213.244"/><use xlink:href="#f" x="102.853" y="213.244"/><use xlink:href="#g" x="106.436" y="213.244"/><use xlink:href="#d" x="116.64" y="213.244"/><use xlink:href="#e" x="125.5" y="213.244"/><use xlink:href="#w" x="135.273" y="213.244"/><use xlink:href="#A" x="141.302" y="213.244"/><use xlink:href="#s" x="151.011" y="213.244"/><use xlink:href="#t" x="157.216" y="213.244"/><use xlink:href="#f" x="165.549" y="213.244"/><use xlink:href="#a" x="169.132" y="213.244"/><use xlink:href="#l" x="180.775" y="213.244"/><use xlink:href="#B" x="190.468" y="213.244"/><use xlink:href="#f" x="203.295" y="213.244"/><use xlink:href="#w" x="206.878" y="213.244"/><use xlink:href="#l" x="212.907" y="213.244"/><use xlink:href="#f" x="222.6" y="213.244"/><use xlink:href="#C" x="226.182" y="213.244"/><use xlink:href="#d" x="236.69" y="213.244"/><use xlink:href="#f" x="245.551" y="213.244"/><use xlink:href="#D" x="249.134" y="213.244"/><use xlink:href="#A" x="258.682" y="213.244"/><use xlink:href="#E" x="268.39" y="213.244"/><use xlink:href="#E" x="276.531" y="213.244"/><use xlink:href="#d" x="284.672" y="213.244"/><use xlink:href="#m" x="293.533" y="213.244"/><use xlink:href="#m" x="301.018" y="213.244"/><use xlink:href="#x" x="308.503" y="213.244"/><use xlink:href="#A" x="313.701" y="213.244"/><use xlink:href="#r" x="323.41" y="213.244"/><use xlink:href="#f" x="327.968" y="213.244"/><use xlink:href="#b" x="331.55" y="213.244"/><use xlink:href="#e" x="335.949" y="213.244"/><use xlink:href="#f" x="345.721" y="213.244"/><use xlink:href="#F" x="349.304" y="213.244"/><use xlink:href="#r" x="360.324" y="213.244"/><use xlink:href="#l" x="364.882" y="213.244"/><use xlink:href="#G" x="374.574" y="213.244"/><use xlink:href="#i" x="384.458" y="213.244"/><use xlink:href="#r" x="393.479" y="213.244"/><use xlink:href="#b" x="398.037" y="213.244"/><use xlink:href="#i" x="402.436" y="213.244"/></g><g fill="#231f20"><use xlink:href="#H" x="36.275" y="354.604"/><use xlink:href="#I" x="45.042" y="354.604"/><use xlink:href="#J" x="50.62" y="354.604"/><use xlink:href="#K" x="53.039" y="354.604"/><use xlink:href="#L" x="58.707" y="354.604"/><use xlink:href="#I" x="62.495" y="354.604"/><use xlink:href="#J" x="68.073" y="354.604"/><use xlink:href="#M" x="70.492" y="354.604"/><use xlink:href="#N" x="73.361" y="354.604"/><use xlink:href="#O" x="76.13" y="354.604"/><use xlink:href="#N" x="81.218" y="354.604"/><use xlink:href="#P" x="83.987" y="354.604"/><use xlink:href="#Q" x="90.115" y="354.604"/><use xlink:href="#J" x="95.743" y="354.604"/><use xlink:href="#K" x="98.162" y="354.604"/><use xlink:href="#P" x="103.83" y="354.604"/><use xlink:href="#R" x="109.957" y="354.604"/><use xlink:href="#J" x="116.205" y="354.604"/><use xlink:href="#S" x="118.624" y="354.604"/><use xlink:href="#N" x="126.481" y="354.604"/><use xlink:href="#M" x="129.25" y="354.604"/><use xlink:href="#M" x="132.119" y="354.604"/><use xlink:href="#J" x="134.988" y="354.604"/><use xlink:href="#T" x="137.407" y="354.604"/><use xlink:href="#U" x="142.595" y="354.604"/><use xlink:href="#P" x="148.733" y="354.604"/><use xlink:href="#V" x="154.86" y="354.604"/><use xlink:href="#N" x="158.579" y="354.604"/><use xlink:href="#P" x="161.348" y="354.604"/><use xlink:href="#W" x="167.476" y="354.604"/><use xlink:href="#I" x="173.573" y="354.604"/><use xlink:href="#J" x="179.151" y="354.604"/><use xlink:href="#V" x="181.57" y="354.604"/><use xlink:href="#U" x="185.289" y="354.604"/><use xlink:href="#J" x="191.427" y="354.604"/><use xlink:href="#M" x="193.846" y="354.604"/><use xlink:href="#N" x="196.715" y="354.604"/><use xlink:href="#O" x="199.484" y="354.604"/><use xlink:href="#I" x="204.572" y="354.604"/><use xlink:href="#J" x="210.15" y="354.604"/><use xlink:href="#N" x="212.569" y="354.604"/><use xlink:href="#P" x="215.338" y="354.604"/><use xlink:href="#J" x="221.465" y="354.604"/><use xlink:href="#V" x="223.884" y="354.604"/><use xlink:href="#X" x="227.603" y="354.604"/><use xlink:href="#I" x="233.691" y="354.604"/><use xlink:href="#J" x="239.269" y="354.604"/><use xlink:href="#Q" x="241.688" y="354.604"/><use xlink:href="#M" x="247.316" y="354.604"/><use xlink:href="#U" x="250.184" y="354.604"/><use xlink:href="#Y" x="256.322" y="354.604"/><use xlink:href="#K" x="262.55" y="354.604"/><use xlink:href="#M" x="268.218" y="354.604"/><use xlink:href="#N" x="271.087" y="354.604"/><use xlink:href="#Z" x="273.855" y="354.604"/><use xlink:href="#I" x="278.584" y="354.604"/><use xlink:href="#R" x="284.162" y="354.604"/><use xlink:href="#J" x="290.409" y="354.604"/><use xlink:href="#S" x="292.828" y="354.604"/><use xlink:href="#U" x="300.685" y="354.604"/><use xlink:href="#L" x="306.823" y="354.604"/><use xlink:href="#M" x="310.612" y="354.604"/><use xlink:href="#R" x="313.481" y="354.604"/></g><g fill="#231f20"><use xlink:href="#J" x="319.728" y="354.604"/><use xlink:href="#T" x="322.147" y="354.604"/><use xlink:href="#K" x="327.335" y="354.604"/><use xlink:href="#M" x="333.003" y="354.604"/><use xlink:href="#M" x="335.872" y="354.604"/><use xlink:href="#I" x="338.741" y="354.604"/><use xlink:href="#R" x="344.319" y="354.604"/><use xlink:href="#J" x="350.566" y="354.604"/><use xlink:href="#aa" x="352.986" y="354.604"/><use xlink:href="#M" x="359.913" y="354.604"/><use xlink:href="#U" x="362.782" y="354.604"/><use xlink:href="#Y" x="368.92" y="354.604"/><use xlink:href="#K" x="375.147" y="354.604"/><use xlink:href="#M" x="380.815" y="354.604"/><use xlink:href="#N" x="383.684" y="354.604"/><use xlink:href="#K" x="386.453" y="354.604"/><use xlink:href="#ab" x="392.121" y="354.604"/><use xlink:href="#J" x="394.82" y="354.604"/><use xlink:href="#H" x="397.239" y="354.604"/><use xlink:href="#X" x="406.006" y="354.604"/><use xlink:href="#N" x="412.093" y="354.604"/><use xlink:href="#T" x="414.862" y="354.604"/><use xlink:href="#X" x="420.05" y="354.604"/><use xlink:href="#J" x="426.138" y="354.604"/><use xlink:href="#ac" x="428.557" y="354.604"/><use xlink:href="#K" x="431.736" y="354.604"/><use xlink:href="#T" x="437.404" y="354.604"/><use xlink:href="#V" x="442.592" y="354.604"/><use xlink:href="#U" x="446.31" y="354.604"/><use xlink:href="#L" x="452.448" y="354.604"/><use xlink:href="#ad" x="456.237" y="354.604"/><use xlink:href="#J" x="460.955" y="354.604"/><use xlink:href="#R" x="463.374" y="354.604"/><use xlink:href="#I" x="469.621" y="354.604"/><use xlink:href="#V" x="475.199" y="354.604"/><use xlink:href="#I" x="478.918" y="354.604"/><use xlink:href="#L" x="484.496" y="354.604"/><use xlink:href="#ae" x="488.284" y="354.604"/><use xlink:href="#N" x="497.521" y="354.604"/><use xlink:href="#P" x="500.29" y="354.604"/><use xlink:href="#I" x="506.418" y="354.604"/><use xlink:href="#J" x="511.995" y="354.604"/><use xlink:href="#T" x="514.415" y="354.604"/><use xlink:href="#U" x="519.603" y="354.604"/><use xlink:href="#L" x="525.74" y="354.604"/><use xlink:href="#af" x="529.529" y="354.604"/><use xlink:href="#U" x="535.776" y="354.604"/></g><use xlink:href="#ag" x="541.914" y="354.604" fill="#231f20"/><g fill="#231f20"><use xlink:href="#L" x="36.275" y="371.597"/><use xlink:href="#K" x="40.064" y="371.597"/><use xlink:href="#V" x="45.732" y="371.597"/><use xlink:href="#I" x="49.45" y="371.597"/><use xlink:href="#J" x="55.028" y="371.597"/><use xlink:href="#ad" x="57.447" y="371.597"/><use xlink:href="#W" x="62.166" y="371.597"/><use xlink:href="#T" x="68.263" y="371.597"/><use xlink:href="#I" x="73.451" y="371.597"/><use xlink:href="#I" x="79.029" y="371.597"/><use xlink:href="#ad" x="84.607" y="371.597"/><use xlink:href="#ad" x="89.325" y="371.597"/><use xlink:href="#J" x="94.043" y="371.597"/><use xlink:href="#N" x="96.463" y="371.597"/><use xlink:href="#P" x="99.231" y="371.597"/><use xlink:href="#J" x="105.359" y="371.597"/><use xlink:href="#aa" x="107.778" y="371.597"/><use xlink:href="#M" x="114.706" y="371.597"/><use xlink:href="#U" x="117.575" y="371.597"/><use xlink:href="#Y" x="123.712" y="371.597"/><use xlink:href="#K" x="129.94" y="371.597"/><use xlink:href="#M" x="135.608" y="371.597"/><use xlink:href="#N" x="138.477" y="371.597"/><use xlink:href="#K" x="141.246" y="371.597"/><use xlink:href="#ah" x="146.913" y="371.597"/></g><g fill="#231f20"><use xlink:href="#ai" x="36.275" y="405.584"/><use xlink:href="#aj" x="42.553" y="405.584"/><use xlink:href="#ak" x="48.95" y="405.584"/><use xlink:href="#ak" x="54.318" y="405.584"/><use xlink:href="#al" x="59.686" y="405.584"/><use xlink:href="#am" x="65.534" y="405.584"/><use xlink:href="#am" x="70.532" y="405.584"/><use xlink:href="#an" x="75.53" y="405.584"/><use xlink:href="#ao" x="77.98" y="405.584"/><use xlink:href="#ap" x="83.837" y="405.584"/><use xlink:href="#ak" x="89.785" y="405.584"/><use xlink:href="#aq" x="95.153" y="405.584"/><use xlink:href="#ar" x="99.311" y="405.584"/><use xlink:href="#as" x="105.649" y="405.584"/><use xlink:href="#an" x="109.937" y="405.584"/><use xlink:href="#at" x="112.387" y="405.584"/></g><g fill="#231f20"><use xlink:href="#J" x="118.284" y="405.584"/><use xlink:href="#N" x="120.703" y="405.584"/><use xlink:href="#ad" x="123.472" y="405.584"/><use xlink:href="#J" x="128.191" y="405.584"/><use xlink:href="#au" x="130.61" y="405.584"/><use xlink:href="#av" x="133.529" y="405.584"/><use xlink:href="#av" x="140.796" y="405.584"/><use xlink:href="#aw" x="148.063" y="405.584"/><use xlink:href="#ax" x="155.52" y="405.584"/><use xlink:href="#ay" x="161.218" y="405.584"/><use xlink:href="#az" x="167.286" y="405.584"/><use xlink:href="#au" x="173.323" y="405.584"/><use xlink:href="#aw" x="176.242" y="405.584"/><use xlink:href="#av" x="183.7" y="405.584"/><use xlink:href="#ab" x="190.967" y="405.584"/><use xlink:href="#J" x="193.666" y="405.584"/><use xlink:href="#az" x="196.085" y="405.584"/><use xlink:href="#X" x="202.123" y="405.584"/><use xlink:href="#I" x="208.21" y="405.584"/><use xlink:href="#J" x="213.788" y="405.584"/><use xlink:href="#I" x="216.207" y="405.584"/><use xlink:href="#aA" x="221.785" y="405.584"/><use xlink:href="#I" x="226.583" y="405.584"/><use xlink:href="#ae" x="232.161" y="405.584"/><use xlink:href="#af" x="241.398" y="405.584"/><use xlink:href="#M" x="247.645" y="405.584"/><use xlink:href="#K" x="250.514" y="405.584"/><use xlink:href="#L" x="256.182" y="405.584"/><use xlink:href="#aB" x="259.971" y="405.584"/><use xlink:href="#J" x="265.069" y="405.584"/><use xlink:href="#N" x="267.488" y="405.584"/><use xlink:href="#P" x="270.257" y="405.584"/><use xlink:href="#P" x="276.385" y="405.584"/><use xlink:href="#U" x="282.512" y="405.584"/><use xlink:href="#O" x="288.65" y="405.584"/><use xlink:href="#K" x="293.738" y="405.584"/><use xlink:href="#V" x="299.406" y="405.584"/><use xlink:href="#U" x="303.124" y="405.584"/><use xlink:href="#L" x="309.262" y="405.584"/><use xlink:href="#ad" x="313.051" y="405.584"/><use xlink:href="#J" x="317.769" y="405.584"/><use xlink:href="#K" x="320.188" y="405.584"/><use xlink:href="#L" x="325.856" y="405.584"/><use xlink:href="#I" x="329.644" y="405.584"/><use xlink:href="#J" x="335.222" y="405.584"/><use xlink:href="#V" x="337.641" y="405.584"/><use xlink:href="#X" x="341.36" y="405.584"/><use xlink:href="#I" x="347.448" y="405.584"/><use xlink:href="#J" x="353.026" y="405.584"/><use xlink:href="#ad" x="355.445" y="405.584"/><use xlink:href="#U" x="360.163" y="405.584"/><use xlink:href="#ag" x="366.301" y="405.584"/><use xlink:href="#T" x="369.829" y="405.584"/><use xlink:href="#K" x="375.017" y="405.584"/><use xlink:href="#M" x="380.685" y="405.584"/><use xlink:href="#M" x="383.554" y="405.584"/><use xlink:href="#I" x="386.423" y="405.584"/><use xlink:href="#R" x="392.001" y="405.584"/><use xlink:href="#J" x="398.248" y="405.584"/><use xlink:href="#aC" x="400.668" y="405.584"/><use xlink:href="#N" x="407.965" y="405.584"/><use xlink:href="#R" x="410.734" y="405.584"/><use xlink:href="#R" x="416.981" y="405.584"/></g><g fill="#231f20"><use xlink:href="#I" x="423.229" y="405.584"/><use xlink:href="#P" x="428.807" y="405.584"/><use xlink:href="#J" x="434.935" y="405.584"/><use xlink:href="#aD" x="437.354" y="405.584"/><use xlink:href="#X" x="443.821" y="405.584"/><use xlink:href="#K" x="449.909" y="405.584"/><use xlink:href="#ae" x="455.577" y="405.584"/><use xlink:href="#af" x="464.813" y="405.584"/><use xlink:href="#N" x="471.061" y="405.584"/><use xlink:href="#U" x="473.83" y="405.584"/><use xlink:href="#P" x="479.968" y="405.584"/><use xlink:href="#ad" x="486.095" y="405.584"/><use xlink:href="#ab" x="490.813" y="405.584"/><use xlink:href="#J" x="493.512" y="405.584"/><use xlink:href="#az" x="495.932" y="405.584"/><use xlink:href="#X" x="501.969" y="405.584"/><use xlink:href="#I" x="508.057" y="405.584"/><use xlink:href="#N" x="513.635" y="405.584"/><use xlink:href="#L" x="516.404" y="405.584"/><use xlink:href="#J" x="520.192" y="405.584"/><use xlink:href="#aE" x="522.611" y="405.584"/><use xlink:href="#aF" x="528.889" y="405.584"/><use xlink:href="#aG" x="535.537" y="405.584"/></g><g fill="#231f20"><use xlink:href="#ad" x="36.275" y="422.578"/><use xlink:href="#af" x="40.994" y="422.578"/><use xlink:href="#I" x="47.241" y="422.578"/><use xlink:href="#P" x="52.819" y="422.578"/><use xlink:href="#R" x="58.947" y="422.578"/><use xlink:href="#N" x="65.194" y="422.578"/><use xlink:href="#P" x="67.963" y="422.578"/><use xlink:href="#Q" x="74.091" y="422.578"/><use xlink:href="#aH" x="79.719" y="422.578"/><use xlink:href="#J" x="82.418" y="422.578"/><use xlink:href="#P" x="84.837" y="422.578"/><use xlink:href="#W" x="90.965" y="422.578"/><use xlink:href="#ae" x="97.062" y="422.578"/><use xlink:href="#Y" x="106.299" y="422.578"/><use xlink:href="#I" x="112.526" y="422.578"/><use xlink:href="#L" x="118.104" y="422.578"/><use xlink:href="#J" x="121.893" y="422.578"/><use xlink:href="#U" x="124.312" y="422.578"/><use xlink:href="#ac" x="130.45" y="422.578"/><use xlink:href="#J" x="133.628" y="422.578"/><use xlink:href="#af" x="136.048" y="422.578"/><use xlink:href="#K" x="142.295" y="422.578"/><use xlink:href="#V" x="147.963" y="422.578"/><use xlink:href="#I" x="151.682" y="422.578"/><use xlink:href="#P" x="157.26" y="422.578"/><use xlink:href="#V" x="163.387" y="422.578"/><use xlink:href="#ad" x="167.106" y="422.578"/><use xlink:href="#aH" x="171.824" y="422.578"/><use xlink:href="#J" x="174.523" y="422.578"/><use xlink:href="#K" x="176.942" y="422.578"/><use xlink:href="#P" x="182.61" y="422.578"/><use xlink:href="#R" x="188.738" y="422.578"/><use xlink:href="#J" x="194.985" y="422.578"/><use xlink:href="#T" x="197.404" y="422.578"/><use xlink:href="#U" x="202.592" y="422.578"/><use xlink:href="#ad" x="208.73" y="422.578"/><use xlink:href="#V" x="213.448" y="422.578"/><use xlink:href="#J" x="217.167" y="422.578"/><use xlink:href="#af" x="219.586" y="422.578"/><use xlink:href="#I" x="225.834" y="422.578"/><use xlink:href="#L" x="231.412" y="422.578"/><use xlink:href="#J" x="235.2" y="422.578"/><use xlink:href="#af" x="237.619" y="422.578"/><use xlink:href="#K" x="243.867" y="422.578"/><use xlink:href="#V" x="249.535" y="422.578"/><use xlink:href="#I" x="253.253" y="422.578"/><use xlink:href="#P" x="258.831" y="422.578"/><use xlink:href="#V" x="264.959" y="422.578"/><use xlink:href="#J" x="268.677" y="422.578"/><use xlink:href="#K" x="271.097" y="422.578"/><use xlink:href="#L" x="276.764" y="422.578"/><use xlink:href="#I" x="280.553" y="422.578"/><use xlink:href="#J" x="286.131" y="422.578"/><use xlink:href="#V" x="288.55" y="422.578"/><use xlink:href="#L" x="292.269" y="422.578"/><use xlink:href="#W" x="296.057" y="422.578"/><use xlink:href="#M" x="302.155" y="422.578"/><use xlink:href="#aB" x="305.024" y="422.578"/><use xlink:href="#J" x="310.122" y="422.578"/><use xlink:href="#N" x="312.541" y="422.578"/><use xlink:href="#ae" x="315.31" y="422.578"/><use xlink:href="#af" x="324.546" y="422.578"/><use xlink:href="#L" x="330.794" y="422.578"/></g><g fill="#231f20"><use xlink:href="#I" x="334.583" y="422.578"/><use xlink:href="#ad" x="340.16" y="422.578"/><use xlink:href="#ad" x="344.879" y="422.578"/><use xlink:href="#N" x="349.597" y="422.578"/><use xlink:href="#O" x="352.366" y="422.578"/><use xlink:href="#I" x="357.454" y="422.578"/><use xlink:href="#ab" x="363.032" y="422.578"/><use xlink:href="#J" x="365.731" y="422.578"/><use xlink:href="#H" x="368.15" y="422.578"/><use xlink:href="#X" x="376.917" y="422.578"/><use xlink:href="#K" x="383.004" y="422.578"/><use xlink:href="#V" x="388.672" y="422.578"/><use xlink:href="#J" x="392.391" y="422.578"/><use xlink:href="#K" x="394.81" y="422.578"/><use xlink:href="#L" x="400.478" y="422.578"/><use xlink:href="#I" x="404.266" y="422.578"/><use xlink:href="#J" x="409.844" y="422.578"/><use xlink:href="#V" x="412.263" y="422.578"/><use xlink:href="#X" x="415.982" y="422.578"/><use xlink:href="#I" x="422.069" y="422.578"/><use xlink:href="#J" x="427.647" y="422.578"/><use xlink:href="#R" x="430.066" y="422.578"/><use xlink:href="#L" x="436.314" y="422.578"/><use xlink:href="#N" x="440.103" y="422.578"/><use xlink:href="#O" x="442.872" y="422.578"/><use xlink:href="#I" x="447.96" y="422.578"/><use xlink:href="#L" x="453.538" y="422.578"/><use xlink:href="#ad" x="457.326" y="422.578"/><use xlink:href="#J" x="462.044" y="422.578"/><use xlink:href="#U" x="464.463" y="422.578"/><use xlink:href="#ac" x="470.601" y="422.578"/><use xlink:href="#J" x="473.78" y="422.578"/><use xlink:href="#V" x="476.199" y="422.578"/><use xlink:href="#X" x="479.918" y="422.578"/><use xlink:href="#I" x="486.005" y="422.578"/><use xlink:href="#N" x="491.583" y="422.578"/><use xlink:href="#L" x="494.352" y="422.578"/><use xlink:href="#J" x="498.141" y="422.578"/><use xlink:href="#N" x="500.56" y="422.578"/><use xlink:href="#P" x="503.329" y="422.578"/><use xlink:href="#P" x="509.456" y="422.578"/><use xlink:href="#U" x="515.584" y="422.578"/><use xlink:href="#O" x="521.722" y="422.578"/><use xlink:href="#K" x="526.81" y="422.578"/><use xlink:href="#V" x="532.478" y="422.578"/><use xlink:href="#N" x="536.196" y="422.578"/><use xlink:href="#U" x="538.965" y="422.578"/><use xlink:href="#P" x="545.103" y="422.578"/></g><g fill="#231f20"><use xlink:href="#K" x="36.275" y="439.571"/><use xlink:href="#P" x="41.943" y="439.571"/><use xlink:href="#R" x="48.071" y="439.571"/><use xlink:href="#J" x="54.318" y="439.571"/><use xlink:href="#X" x="56.738" y="439.571"/><use xlink:href="#U" x="62.825" y="439.571"/><use xlink:href="#S" x="68.963" y="439.571"/><use xlink:href="#J" x="76.82" y="439.571"/><use xlink:href="#V" x="79.239" y="439.571"/><use xlink:href="#X" x="82.958" y="439.571"/><use xlink:href="#I" x="89.045" y="439.571"/><use xlink:href="#N" x="94.623" y="439.571"/><use xlink:href="#L" x="97.392" y="439.571"/><use xlink:href="#J" x="101.181" y="439.571"/><use xlink:href="#N" x="103.6" y="439.571"/><use xlink:href="#P" x="106.369" y="439.571"/><use xlink:href="#P" x="112.496" y="439.571"/><use xlink:href="#U" x="118.624" y="439.571"/><use xlink:href="#O" x="124.762" y="439.571"/><use xlink:href="#K" x="129.85" y="439.571"/><use xlink:href="#V" x="135.518" y="439.571"/><use xlink:href="#N" x="139.236" y="439.571"/><use xlink:href="#U" x="142.005" y="439.571"/><use xlink:href="#P" x="148.143" y="439.571"/><use xlink:href="#J" x="154.271" y="439.571"/><use xlink:href="#af" x="156.69" y="439.571"/><use xlink:href="#L" x="162.937" y="439.571"/><use xlink:href="#U" x="166.726" y="439.571"/><use xlink:href="#T" x="172.864" y="439.571"/><use xlink:href="#I" x="178.052" y="439.571"/><use xlink:href="#ad" x="183.63" y="439.571"/><use xlink:href="#ad" x="188.348" y="439.571"/><use xlink:href="#J" x="193.066" y="439.571"/><use xlink:href="#N" x="195.485" y="439.571"/><use xlink:href="#ad" x="198.254" y="439.571"/><use xlink:href="#J" x="202.972" y="439.571"/><use xlink:href="#R" x="205.391" y="439.571"/><use xlink:href="#N" x="211.639" y="439.571"/><use xlink:href="#aI" x="214.408" y="439.571"/><use xlink:href="#I" x="220.586" y="439.571"/><use xlink:href="#L" x="226.164" y="439.571"/><use xlink:href="#I" x="229.952" y="439.571"/><use xlink:href="#P" x="235.53" y="439.571"/><use xlink:href="#V" x="241.658" y="439.571"/><use xlink:href="#J" x="245.376" y="439.571"/><use xlink:href="#ac" x="247.795" y="439.571"/><use xlink:href="#L" x="250.974" y="439.571"/><use xlink:href="#U" x="254.763" y="439.571"/><use xlink:href="#ae" x="260.9" y="439.571"/><use xlink:href="#J" x="270.137" y="439.571"/><use xlink:href="#V" x="272.556" y="439.571"/><use xlink:href="#X" x="276.275" y="439.571"/><use xlink:href="#K" x="282.362" y="439.571"/><use xlink:href="#V" x="288.03" y="439.571"/><use xlink:href="#J" x="291.749" y="439.571"/><use xlink:href="#U" x="294.168" y="439.571"/><use xlink:href="#ac" x="300.305" y="439.571"/><use xlink:href="#J" x="303.484" y="439.571"/><use xlink:href="#U" x="305.903" y="439.571"/><use xlink:href="#V" x="312.041" y="439.571"/><use xlink:href="#X" x="315.76" y="439.571"/><use xlink:href="#I" x="321.847" y="439.571"/><use xlink:href="#L" x="327.425" y="439.571"/></g><g fill="#231f20"><use xlink:href="#J" x="331.214" y="439.571"/><use xlink:href="#T" x="333.633" y="439.571"/><use xlink:href="#U" x="338.821" y="439.571"/><use xlink:href="#ae" x="344.959" y="439.571"/><use xlink:href="#af" x="354.195" y="439.571"/><use xlink:href="#K" x="360.443" y="439.571"/><use xlink:href="#P" x="366.111" y="439.571"/><use xlink:href="#N" x="372.238" y="439.571"/><use xlink:href="#I" x="375.007" y="439.571"/><use xlink:href="#ad" x="380.585" y="439.571"/><use xlink:href="#ah" x="385.303" y="439.571"/></g><g fill="#231f20"><use xlink:href="#ai" x="36.275" y="473.559"/><use xlink:href="#aj" x="42.553" y="473.559"/><use xlink:href="#ak" x="48.95" y="473.559"/><use xlink:href="#ak" x="54.318" y="473.559"/><use xlink:href="#al" x="59.686" y="473.559"/><use xlink:href="#am" x="65.534" y="473.559"/><use xlink:href="#am" x="70.532" y="473.559"/><use xlink:href="#an" x="75.53" y="473.559"/><use xlink:href="#ao" x="77.98" y="473.559"/><use xlink:href="#ap" x="83.837" y="473.559"/><use xlink:href="#ak" x="89.785" y="473.559"/><use xlink:href="#aq" x="95.153" y="473.559"/><use xlink:href="#ar" x="99.311" y="473.559"/><use xlink:href="#as" x="105.649" y="473.559"/><use xlink:href="#an" x="109.937" y="473.559"/><use xlink:href="#aJ" x="112.387" y="473.559"/></g><g fill="#231f20"><use xlink:href="#J" x="118.284" y="473.559"/><use xlink:href="#N" x="120.703" y="473.559"/><use xlink:href="#ad" x="123.472" y="473.559"/><use xlink:href="#J" x="128.191" y="473.559"/><use xlink:href="#R" x="130.61" y="473.559"/><use xlink:href="#N" x="136.857" y="473.559"/><use xlink:href="#Q" x="139.626" y="473.559"/><use xlink:href="#N" x="145.254" y="473.559"/><use xlink:href="#V" x="148.023" y="473.559"/><use xlink:href="#N" x="151.742" y="473.559"/><use xlink:href="#Z" x="154.511" y="473.559"/><use xlink:href="#K" x="159.239" y="473.559"/><use xlink:href="#V" x="164.907" y="473.559"/><use xlink:href="#N" x="168.625" y="473.559"/><use xlink:href="#U" x="171.394" y="473.559"/><use xlink:href="#P" x="177.532" y="473.559"/><use xlink:href="#ab" x="183.66" y="473.559"/><use xlink:href="#J" x="186.359" y="473.559"/><use xlink:href="#au" x="188.778" y="473.559"/><use xlink:href="#V" x="191.697" y="473.559"/><use xlink:href="#J" x="195.415" y="473.559"/><use xlink:href="#N" x="197.834" y="473.559"/><use xlink:href="#ad" x="200.603" y="473.559"/><use xlink:href="#J" x="205.321" y="473.559"/><use xlink:href="#K" x="207.74" y="473.559"/><use xlink:href="#J" x="213.408" y="473.559"/><use xlink:href="#X" x="215.827" y="473.559"/><use xlink:href="#W" x="221.915" y="473.559"/><use xlink:href="#Q" x="228.013" y="473.559"/><use xlink:href="#I" x="233.641" y="473.559"/><use xlink:href="#J" x="239.219" y="473.559"/><use xlink:href="#T" x="241.638" y="473.559"/><use xlink:href="#X" x="246.826" y="473.559"/><use xlink:href="#K" x="252.913" y="473.559"/><use xlink:href="#M" x="258.581" y="473.559"/><use xlink:href="#M" x="261.45" y="473.559"/><use xlink:href="#I" x="264.319" y="473.559"/><use xlink:href="#P" x="269.897" y="473.559"/><use xlink:href="#Q" x="276.025" y="473.559"/><use xlink:href="#I" x="281.653" y="473.559"/><use xlink:href="#J" x="287.23" y="473.559"/><use xlink:href="#ac" x="289.65" y="473.559"/><use xlink:href="#U" x="292.828" y="473.559"/><use xlink:href="#L" x="298.966" y="473.559"/><use xlink:href="#J" x="302.755" y="473.559"/><use xlink:href="#V" x="305.174" y="473.559"/><use xlink:href="#X" x="308.892" y="473.559"/><use xlink:href="#I" x="314.98" y="473.559"/><use xlink:href="#J" x="320.558" y="473.559"/><use xlink:href="#aC" x="322.977" y="473.559"/><use xlink:href="#N" x="330.274" y="473.559"/><use xlink:href="#R" x="333.043" y="473.559"/><use xlink:href="#R" x="339.291" y="473.559"/><use xlink:href="#I" x="345.538" y="473.559"/><use xlink:href="#P" x="351.116" y="473.559"/><use xlink:href="#J" x="357.244" y="473.559"/><use xlink:href="#aD" x="359.663" y="473.559"/><use xlink:href="#X" x="366.131" y="473.559"/><use xlink:href="#K" x="372.218" y="473.559"/><use xlink:href="#ae" x="377.886" y="473.559"/><use xlink:href="#af" x="387.123" y="473.559"/><use xlink:href="#N" x="393.37" y="473.559"/><use xlink:href="#U" x="396.139" y="473.559"/></g><g fill="#231f20"><use xlink:href="#P" x="402.277" y="473.559"/><use xlink:href="#ad" x="408.405" y="473.559"/><use xlink:href="#ab" x="413.123" y="473.559"/></g><g fill="#231f20"><use xlink:href="#ai" x="36.275" y="507.546"/><use xlink:href="#aj" x="42.553" y="507.546"/><use xlink:href="#ak" x="48.95" y="507.546"/><use xlink:href="#al" x="54.318" y="507.546"/><use xlink:href="#al" x="60.166" y="507.546"/><use xlink:href="#am" x="66.014" y="507.546"/><use xlink:href="#am" x="71.012" y="507.546"/><use xlink:href="#an" x="76.01" y="507.546"/><use xlink:href="#ao" x="78.459" y="507.546"/><use xlink:href="#ap" x="84.317" y="507.546"/><use xlink:href="#ak" x="90.265" y="507.546"/><use xlink:href="#aq" x="95.633" y="507.546"/><use xlink:href="#ar" x="99.791" y="507.546"/><use xlink:href="#as" x="106.129" y="507.546"/><use xlink:href="#an" x="110.417" y="507.546"/><use xlink:href="#aK" x="112.866" y="507.546"/></g><g fill="#231f20"><use xlink:href="#J" x="118.764" y="507.546"/><use xlink:href="#N" x="121.183" y="507.546"/><use xlink:href="#ad" x="123.952" y="507.546"/><use xlink:href="#J" x="128.67" y="507.546"/><use xlink:href="#V" x="131.089" y="507.546"/><use xlink:href="#X" x="134.808" y="507.546"/><use xlink:href="#I" x="140.896" y="507.546"/><use xlink:href="#J" x="146.474" y="507.546"/><use xlink:href="#ae" x="148.893" y="507.546"/><use xlink:href="#K" x="158.129" y="507.546"/><use xlink:href="#P" x="163.797" y="507.546"/><use xlink:href="#W" x="169.925" y="507.546"/><use xlink:href="#ac" x="176.022" y="507.546"/><use xlink:href="#K" x="179.201" y="507.546"/><use xlink:href="#T" x="184.869" y="507.546"/><use xlink:href="#V" x="190.057" y="507.546"/><use xlink:href="#W" x="193.776" y="507.546"/><use xlink:href="#L" x="199.873" y="507.546"/><use xlink:href="#N" x="203.662" y="507.546"/><use xlink:href="#P" x="206.431" y="507.546"/><use xlink:href="#Q" x="212.559" y="507.546"/><use xlink:href="#J" x="218.187" y="507.546"/><use xlink:href="#Y" x="220.606" y="507.546"/><use xlink:href="#K" x="226.833" y="507.546"/><use xlink:href="#ad" x="232.501" y="507.546"/><use xlink:href="#I" x="237.219" y="507.546"/><use xlink:href="#ab" x="242.797" y="507.546"/><use xlink:href="#J" x="245.496" y="507.546"/><use xlink:href="#az" x="247.915" y="507.546"/><use xlink:href="#X" x="253.953" y="507.546"/><use xlink:href="#I" x="260.041" y="507.546"/><use xlink:href="#ad" x="265.619" y="507.546"/><use xlink:href="#I" x="270.337" y="507.546"/><use xlink:href="#J" x="275.915" y="507.546"/><use xlink:href="#V" x="278.334" y="507.546"/><use xlink:href="#X" x="282.052" y="507.546"/><use xlink:href="#L" x="288.14" y="507.546"/><use xlink:href="#I" x="291.929" y="507.546"/><use xlink:href="#I" x="297.507" y="507.546"/><use xlink:href="#J" x="303.084" y="507.546"/><use xlink:href="#ac" x="305.504" y="507.546"/><use xlink:href="#K" x="308.682" y="507.546"/><use xlink:href="#T" x="314.35" y="507.546"/><use xlink:href="#V" x="319.538" y="507.546"/><use xlink:href="#U" x="323.257" y="507.546"/><use xlink:href="#L" x="329.394" y="507.546"/><use xlink:href="#ad" x="333.183" y="507.546"/><use xlink:href="#J" x="337.901" y="507.546"/><use xlink:href="#aL" x="340.32" y="507.546"/><use xlink:href="#N" x="343.669" y="507.546"/><use xlink:href="#P" x="346.438" y="507.546"/><use xlink:href="#P" x="352.566" y="507.546"/><use xlink:href="#U" x="358.693" y="507.546"/><use xlink:href="#O" x="364.831" y="507.546"/><use xlink:href="#K" x="369.919" y="507.546"/><use xlink:href="#V" x="375.587" y="507.546"/><use xlink:href="#N" x="379.306" y="507.546"/><use xlink:href="#U" x="382.075" y="507.546"/><use xlink:href="#P" x="388.212" y="507.546"/><use xlink:href="#aH" x="394.34" y="507.546"/><use xlink:href="#J" x="397.039" y="507.546"/><use xlink:href="#R" x="399.458" y="507.546"/><use xlink:href="#N" x="405.706" y="507.546"/></g><g fill="#231f20"><use xlink:href="#Q" x="408.475" y="507.546"/><use xlink:href="#N" x="414.102" y="507.546"/><use xlink:href="#V" x="416.871" y="507.546"/><use xlink:href="#N" x="420.59" y="507.546"/><use xlink:href="#Z" x="423.359" y="507.546"/><use xlink:href="#K" x="428.087" y="507.546"/><use xlink:href="#V" x="433.755" y="507.546"/><use xlink:href="#N" x="437.474" y="507.546"/><use xlink:href="#U" x="440.243" y="507.546"/><use xlink:href="#P" x="446.38" y="507.546"/><use xlink:href="#aH" x="452.508" y="507.546"/><use xlink:href="#J" x="455.207" y="507.546"/><use xlink:href="#ae" x="457.626" y="507.546"/><use xlink:href="#K" x="466.863" y="507.546"/><use xlink:href="#P" x="472.53" y="507.546"/><use xlink:href="#W" x="478.658" y="507.546"/><use xlink:href="#ac" x="484.756" y="507.546"/><use xlink:href="#K" x="487.935" y="507.546"/><use xlink:href="#T" x="493.602" y="507.546"/><use xlink:href="#V" x="498.79" y="507.546"/><use xlink:href="#W" x="502.509" y="507.546"/><use xlink:href="#L" x="508.607" y="507.546"/><use xlink:href="#N" x="512.395" y="507.546"/><use xlink:href="#P" x="515.164" y="507.546"/><use xlink:href="#Q" x="521.292" y="507.546"/><use xlink:href="#J" x="526.92" y="507.546"/></g><g fill="#231f20"><use xlink:href="#Y" x="36.275" y="524.539"/><use xlink:href="#K" x="42.503" y="524.539"/><use xlink:href="#ad" x="48.171" y="524.539"/><use xlink:href="#I" x="52.889" y="524.539"/><use xlink:href="#aM" x="58.467" y="524.539"/><use xlink:href="#J" x="61.816" y="524.539"/><use xlink:href="#K" x="64.235" y="524.539"/><use xlink:href="#L" x="69.903" y="524.539"/><use xlink:href="#I" x="73.691" y="524.539"/><use xlink:href="#J" x="79.269" y="524.539"/><use xlink:href="#N" x="81.688" y="524.539"/><use xlink:href="#P" x="84.457" y="524.539"/><use xlink:href="#V" x="90.585" y="524.539"/><use xlink:href="#I" x="94.303" y="524.539"/><use xlink:href="#L" x="99.881" y="524.539"/><use xlink:href="#L" x="103.67" y="524.539"/><use xlink:href="#I" x="107.458" y="524.539"/><use xlink:href="#M" x="113.036" y="524.539"/><use xlink:href="#K" x="115.905" y="524.539"/><use xlink:href="#V" x="121.573" y="524.539"/><use xlink:href="#I" x="125.292" y="524.539"/><use xlink:href="#R" x="130.87" y="524.539"/><use xlink:href="#ab" x="137.117" y="524.539"/></g><g fill="#231f20"><use xlink:href="#ai" x="36.275" y="558.526"/><use xlink:href="#aj" x="42.553" y="558.526"/><use xlink:href="#ak" x="48.95" y="558.526"/><use xlink:href="#ak" x="54.318" y="558.526"/><use xlink:href="#al" x="59.686" y="558.526"/><use xlink:href="#am" x="65.534" y="558.526"/><use xlink:href="#am" x="70.532" y="558.526"/><use xlink:href="#an" x="75.53" y="558.526"/><use xlink:href="#ao" x="77.98" y="558.526"/><use xlink:href="#ap" x="83.837" y="558.526"/><use xlink:href="#ak" x="89.785" y="558.526"/><use xlink:href="#aq" x="95.153" y="558.526"/><use xlink:href="#ar" x="99.311" y="558.526"/><use xlink:href="#as" x="105.649" y="558.526"/><use xlink:href="#an" x="109.937" y="558.526"/><use xlink:href="#aN" x="112.387" y="558.526"/></g><g fill="#231f20"><use xlink:href="#J" x="118.284" y="558.526"/><use xlink:href="#N" x="120.703" y="558.526"/><use xlink:href="#ad" x="123.472" y="558.526"/><use xlink:href="#J" x="128.191" y="558.526"/><use xlink:href="#O" x="130.61" y="558.526"/><use xlink:href="#K" x="135.698" y="558.526"/><use xlink:href="#M" x="141.366" y="558.526"/><use xlink:href="#W" x="144.234" y="558.526"/><use xlink:href="#I" x="150.332" y="558.526"/><use xlink:href="#ag" x="155.91" y="558.526"/><use xlink:href="#V" x="159.439" y="558.526"/><use xlink:href="#U" x="163.157" y="558.526"/><use xlink:href="#ag" x="169.295" y="558.526"/><use xlink:href="#T" x="172.824" y="558.526"/><use xlink:href="#W" x="178.012" y="558.526"/><use xlink:href="#ad" x="184.109" y="558.526"/><use xlink:href="#V" x="188.828" y="558.526"/><use xlink:href="#U" x="192.546" y="558.526"/><use xlink:href="#ae" x="198.684" y="558.526"/><use xlink:href="#I" x="207.92" y="558.526"/><use xlink:href="#L" x="213.498" y="558.526"/><use xlink:href="#ad" x="217.287" y="558.526"/><use xlink:href="#ab" x="222.005" y="558.526"/><use xlink:href="#J" x="224.704" y="558.526"/><use xlink:href="#H" x="227.123" y="558.526"/><use xlink:href="#X" x="235.89" y="558.526"/><use xlink:href="#K" x="241.978" y="558.526"/><use xlink:href="#V" x="247.645" y="558.526"/><use xlink:href="#J" x="251.364" y="558.526"/><use xlink:href="#L" x="253.783" y="558.526"/><use xlink:href="#I" x="257.572" y="558.526"/><use xlink:href="#K" x="263.15" y="558.526"/><use xlink:href="#M" x="268.817" y="558.526"/><use xlink:href="#M" x="271.686" y="558.526"/><use xlink:href="#aB" x="274.555" y="558.526"/><use xlink:href="#J" x="279.653" y="558.526"/><use xlink:href="#ae" x="282.072" y="558.526"/><use xlink:href="#K" x="291.309" y="558.526"/><use xlink:href="#V" x="296.977" y="558.526"/><use xlink:href="#V" x="300.695" y="558.526"/><use xlink:href="#I" x="304.414" y="558.526"/><use xlink:href="#L" x="309.992" y="558.526"/><use xlink:href="#ad" x="313.78" y="558.526"/><use xlink:href="#J" x="318.499" y="558.526"/><use xlink:href="#N" x="320.918" y="558.526"/><use xlink:href="#P" x="323.687" y="558.526"/><use xlink:href="#J" x="329.814" y="558.526"/><use xlink:href="#V" x="332.233" y="558.526"/><use xlink:href="#X" x="335.952" y="558.526"/><use xlink:href="#I" x="342.04" y="558.526"/><use xlink:href="#J" x="347.618" y="558.526"/><use xlink:href="#ae" x="350.037" y="558.526"/><use xlink:href="#K" x="359.273" y="558.526"/><use xlink:href="#L" x="364.941" y="558.526"/><use xlink:href="#aO" x="368.73" y="558.526"/><use xlink:href="#I" x="374.138" y="558.526"/><use xlink:href="#V" x="379.715" y="558.526"/><use xlink:href="#J" x="383.434" y="558.526"/><use xlink:href="#N" x="385.853" y="558.526"/><use xlink:href="#ad" x="388.622" y="558.526"/><use xlink:href="#J" x="393.34" y="558.526"/><use xlink:href="#V" x="395.759" y="558.526"/><use xlink:href="#X" x="399.478" y="558.526"/></g><g fill="#231f20"><use xlink:href="#I" x="405.566" y="558.526"/><use xlink:href="#J" x="411.144" y="558.526"/><use xlink:href="#O" x="413.563" y="558.526"/><use xlink:href="#K" x="418.651" y="558.526"/><use xlink:href="#M" x="424.319" y="558.526"/><use xlink:href="#W" x="427.188" y="558.526"/><use xlink:href="#I" x="433.285" y="558.526"/><use xlink:href="#J" x="438.863" y="558.526"/><use xlink:href="#K" x="441.282" y="558.526"/><use xlink:href="#ad" x="446.95" y="558.526"/><use xlink:href="#J" x="451.668" y="558.526"/><use xlink:href="#af" x="454.087" y="558.526"/><use xlink:href="#I" x="460.335" y="558.526"/><use xlink:href="#L" x="465.913" y="558.526"/><use xlink:href="#T" x="469.701" y="558.526"/><use xlink:href="#I" x="474.889" y="558.526"/><use xlink:href="#N" x="480.467" y="558.526"/><use xlink:href="#O" x="483.236" y="558.526"/><use xlink:href="#I" x="488.324" y="558.526"/><use xlink:href="#R" x="493.902" y="558.526"/><use xlink:href="#J" x="500.15" y="558.526"/><use xlink:href="#Y" x="502.569" y="558.526"/><use xlink:href="#aB" x="508.797" y="558.526"/><use xlink:href="#J" x="513.895" y="558.526"/></g><g fill="#231f20"><use xlink:href="#T" x="36.275" y="575.52"/><use xlink:href="#W" x="41.463" y="575.52"/><use xlink:href="#ad" x="47.561" y="575.52"/><use xlink:href="#V" x="52.279" y="575.52"/><use xlink:href="#U" x="55.998" y="575.52"/><use xlink:href="#ae" x="62.136" y="575.52"/><use xlink:href="#I" x="71.372" y="575.52"/><use xlink:href="#L" x="76.95" y="575.52"/><use xlink:href="#ad" x="80.738" y="575.52"/><use xlink:href="#ab" x="85.457" y="575.52"/></g><g fill="#231f20"><use xlink:href="#ai" x="36.275" y="609.507"/><use xlink:href="#aj" x="42.553" y="609.507"/><use xlink:href="#ak" x="48.95" y="609.507"/><use xlink:href="#al" x="54.318" y="609.507"/><use xlink:href="#al" x="60.166" y="609.507"/><use xlink:href="#am" x="66.014" y="609.507"/><use xlink:href="#am" x="71.012" y="609.507"/><use xlink:href="#an" x="76.01" y="609.507"/><use xlink:href="#ao" x="78.459" y="609.507"/><use xlink:href="#ap" x="84.317" y="609.507"/><use xlink:href="#ak" x="90.265" y="609.507"/><use xlink:href="#aq" x="95.633" y="609.507"/><use xlink:href="#ar" x="99.791" y="609.507"/><use xlink:href="#as" x="106.129" y="609.507"/><use xlink:href="#an" x="110.417" y="609.507"/><use xlink:href="#aP" x="112.866" y="609.507"/></g><g fill="#231f20"><use xlink:href="#J" x="118.764" y="609.507"/><use xlink:href="#N" x="121.183" y="609.507"/><use xlink:href="#ad" x="123.952" y="609.507"/><use xlink:href="#J" x="128.67" y="609.507"/><use xlink:href="#ad" x="131.089" y="609.507"/><use xlink:href="#I" x="135.808" y="609.507"/><use xlink:href="#T" x="141.386" y="609.507"/><use xlink:href="#W" x="146.574" y="609.507"/><use xlink:href="#L" x="152.671" y="609.507"/><use xlink:href="#N" x="156.46" y="609.507"/><use xlink:href="#P" x="159.229" y="609.507"/><use xlink:href="#Q" x="165.356" y="609.507"/><use xlink:href="#J" x="170.984" y="609.507"/><use xlink:href="#N" x="173.403" y="609.507"/><use xlink:href="#P" x="176.172" y="609.507"/><use xlink:href="#R" x="182.3" y="609.507"/><use xlink:href="#I" x="188.548" y="609.507"/><use xlink:href="#af" x="194.126" y="609.507"/><use xlink:href="#I" x="200.373" y="609.507"/><use xlink:href="#P" x="205.951" y="609.507"/><use xlink:href="#R" x="212.079" y="609.507"/><use xlink:href="#I" x="218.326" y="609.507"/><use xlink:href="#P" x="223.904" y="609.507"/><use xlink:href="#T" x="230.032" y="609.507"/><use xlink:href="#I" x="235.22" y="609.507"/><use xlink:href="#J" x="240.798" y="609.507"/><use xlink:href="#K" x="243.217" y="609.507"/><use xlink:href="#P" x="248.885" y="609.507"/><use xlink:href="#R" x="255.013" y="609.507"/><use xlink:href="#J" x="261.26" y="609.507"/><use xlink:href="#V" x="263.679" y="609.507"/><use xlink:href="#X" x="267.398" y="609.507"/><use xlink:href="#I" x="273.486" y="609.507"/><use xlink:href="#J" x="279.064" y="609.507"/><use xlink:href="#M" x="281.483" y="609.507"/><use xlink:href="#K" x="284.352" y="609.507"/><use xlink:href="#ad" x="290.019" y="609.507"/><use xlink:href="#V" x="294.738" y="609.507"/><use xlink:href="#J" x="298.456" y="609.507"/><use xlink:href="#ac" x="300.875" y="609.507"/><use xlink:href="#K" x="304.054" y="609.507"/><use xlink:href="#T" x="309.722" y="609.507"/><use xlink:href="#V" x="314.91" y="609.507"/><use xlink:href="#U" x="318.629" y="609.507"/><use xlink:href="#L" x="324.766" y="609.507"/><use xlink:href="#J" x="328.555" y="609.507"/><use xlink:href="#N" x="330.974" y="609.507"/><use xlink:href="#ad" x="333.743" y="609.507"/><use xlink:href="#J" x="338.461" y="609.507"/><use xlink:href="#M" x="340.88" y="609.507"/><use xlink:href="#I" x="343.749" y="609.507"/><use xlink:href="#K" x="349.327" y="609.507"/><use xlink:href="#R" x="354.995" y="609.507"/><use xlink:href="#I" x="361.242" y="609.507"/><use xlink:href="#L" x="366.82" y="609.507"/><use xlink:href="#ad" x="370.609" y="609.507"/><use xlink:href="#X" x="375.327" y="609.507"/><use xlink:href="#N" x="381.415" y="609.507"/><use xlink:href="#af" x="384.184" y="609.507"/><use xlink:href="#ab" x="390.431" y="609.507"/></g><g fill="#231f20"><use xlink:href="#au" x="36.275" y="626.501"/><use xlink:href="#J" x="39.194" y="626.501"/><use xlink:href="#K" x="41.613" y="626.501"/><use xlink:href="#ae" x="47.281" y="626.501"/><use xlink:href="#J" x="56.518" y="626.501"/><use xlink:href="#Q" x="58.937" y="626.501"/><use xlink:href="#U" x="64.565" y="626.501"/><use xlink:href="#N" x="70.702" y="626.501"/><use xlink:href="#P" x="73.471" y="626.501"/><use xlink:href="#Q" x="79.599" y="626.501"/><use xlink:href="#J" x="85.227" y="626.501"/><use xlink:href="#V" x="87.646" y="626.501"/><use xlink:href="#U" x="91.364" y="626.501"/><use xlink:href="#J" x="97.502" y="626.501"/><use xlink:href="#R" x="99.921" y="626.501"/><use xlink:href="#N" x="106.169" y="626.501"/><use xlink:href="#ad" x="108.938" y="626.501"/><use xlink:href="#T" x="113.656" y="626.501"/><use xlink:href="#W" x="118.844" y="626.501"/><use xlink:href="#ad" x="124.942" y="626.501"/><use xlink:href="#ad" x="129.66" y="626.501"/><use xlink:href="#J" x="134.378" y="626.501"/><use xlink:href="#K" x="136.797" y="626.501"/><use xlink:href="#M" x="142.465" y="626.501"/><use xlink:href="#M" x="145.334" y="626.501"/><use xlink:href="#J" x="148.203" y="626.501"/><use xlink:href="#V" x="150.622" y="626.501"/><use xlink:href="#X" x="154.341" y="626.501"/><use xlink:href="#I" x="160.428" y="626.501"/><use xlink:href="#ad" x="166.006" y="626.501"/><use xlink:href="#I" x="170.724" y="626.501"/><use xlink:href="#J" x="176.302" y="626.501"/><use xlink:href="#ad" x="178.721" y="626.501"/><use xlink:href="#N" x="183.44" y="626.501"/><use xlink:href="#aA" x="186.209" y="626.501"/><use xlink:href="#J" x="191.007" y="626.501"/><use xlink:href="#ad" x="193.426" y="626.501"/><use xlink:href="#W" x="198.144" y="626.501"/><use xlink:href="#T" x="204.242" y="626.501"/><use xlink:href="#T" x="209.43" y="626.501"/><use xlink:href="#I" x="214.618" y="626.501"/><use xlink:href="#ad" x="220.196" y="626.501"/><use xlink:href="#ad" x="224.914" y="626.501"/><use xlink:href="#J" x="229.632" y="626.501"/><use xlink:href="#ac" x="232.051" y="626.501"/><use xlink:href="#K" x="235.23" y="626.501"/><use xlink:href="#T" x="240.898" y="626.501"/><use xlink:href="#V" x="246.086" y="626.501"/><use xlink:href="#U" x="249.805" y="626.501"/><use xlink:href="#L" x="255.942" y="626.501"/><use xlink:href="#ad" x="259.731" y="626.501"/><use xlink:href="#J" x="264.449" y="626.501"/><use xlink:href="#N" x="266.868" y="626.501"/><use xlink:href="#P" x="269.637" y="626.501"/><use xlink:href="#J" x="275.765" y="626.501"/><use xlink:href="#R" x="278.184" y="626.501"/><use xlink:href="#I" x="284.431" y="626.501"/><use xlink:href="#V" x="290.009" y="626.501"/><use xlink:href="#K" x="293.728" y="626.501"/><use xlink:href="#N" x="299.396" y="626.501"/><use xlink:href="#M" x="302.165" y="626.501"/><use xlink:href="#J" x="305.034" y="626.501"/><use xlink:href="#R" x="307.453" y="626.501"/></g><g fill="#231f20"><use xlink:href="#W" x="313.7" y="626.501"/><use xlink:href="#L" x="319.798" y="626.501"/><use xlink:href="#N" x="323.587" y="626.501"/><use xlink:href="#P" x="326.356" y="626.501"/><use xlink:href="#Q" x="332.483" y="626.501"/><use xlink:href="#J" x="338.111" y="626.501"/><use xlink:href="#ae" x="340.53" y="626.501"/><use xlink:href="#aB" x="349.767" y="626.501"/><use xlink:href="#J" x="354.865" y="626.501"/><use xlink:href="#M" x="357.284" y="626.501"/><use xlink:href="#I" x="360.153" y="626.501"/><use xlink:href="#T" x="365.731" y="626.501"/><use xlink:href="#V" x="370.919" y="626.501"/><use xlink:href="#W" x="374.637" y="626.501"/><use xlink:href="#L" x="380.735" y="626.501"/><use xlink:href="#I" x="384.524" y="626.501"/><use xlink:href="#ab" x="390.102" y="626.501"/></g><g fill="#231f20"><use xlink:href="#aQ" x="473.233" y="278.585"/><use xlink:href="#aR" x="480.457" y="278.585"/><use xlink:href="#aS" x="483.404" y="278.585"/><use xlink:href="#aT" x="486.351" y="278.585"/><use xlink:href="#aU" x="493.696" y="278.585"/><use xlink:href="#aV" x="501.635" y="278.585"/><use xlink:href="#aW" x="509.75" y="278.585"/><use xlink:href="#aX" x="516.414" y="278.585"/><use xlink:href="#aY" x="520.262" y="278.585"/><use xlink:href="#aZ" x="527.487" y="278.585"/><use xlink:href="#aZ" x="534.106" y="278.585"/></g><g fill="#231f20"><use xlink:href="#ba" x="299.291" y="294.786"/><use xlink:href="#bb" x="305.348" y="294.786"/><use xlink:href="#bc" x="308.647" y="294.786"/><use xlink:href="#bd" x="314.115" y="294.786"/><use xlink:href="#be" x="316.524" y="294.786"/><use xlink:href="#bf" x="321.992" y="294.786"/><use xlink:href="#bf" x="326.81" y="294.786"/><use xlink:href="#bc" x="331.628" y="294.786"/><use xlink:href="#bb" x="337.096" y="294.786"/><use xlink:href="#bg" x="340.395" y="294.786"/><use xlink:href="#bh" x="343.894" y="294.786"/><use xlink:href="#bi" x="349.722" y="294.786"/><use xlink:href="#be" x="357.569" y="294.786"/><use xlink:href="#bb" x="363.036" y="294.786"/><use xlink:href="#bj" x="366.335" y="294.786"/><use xlink:href="#bk" x="368.255" y="294.786"/><use xlink:href="#bl" x="370.664" y="294.786"/><use xlink:href="#bf" x="376.082" y="294.786"/><use xlink:href="#bg" x="380.9" y="294.786"/><use xlink:href="#bm" x="384.398" y="294.786"/><use xlink:href="#bn" x="387.327" y="294.786"/><use xlink:href="#bl" x="393.175" y="294.786"/><use xlink:href="#bo" x="398.593" y="294.786"/><use xlink:href="#bp" x="404.081" y="294.786"/><use xlink:href="#bq" x="409.849" y="294.786"/><use xlink:href="#br" x="415.167" y="294.786"/><use xlink:href="#bl" x="420.215" y="294.786"/><use xlink:href="#bo" x="425.633" y="294.786"/><use xlink:href="#bq" x="431.121" y="294.786"/><use xlink:href="#bs" x="436.439" y="294.786"/><use xlink:href="#bt" x="443.666" y="294.786"/><use xlink:href="#bo" x="449.034" y="294.786"/><use xlink:href="#bg" x="454.522" y="294.786"/><use xlink:href="#bu" x="458.021" y="294.786"/><use xlink:href="#bo" x="464.338" y="294.786"/><use xlink:href="#bj" x="469.826" y="294.786"/><use xlink:href="#bv" x="471.745" y="294.786"/><use xlink:href="#be" x="476.903" y="294.786"/><use xlink:href="#bb" x="482.371" y="294.786"/><use xlink:href="#bf" x="485.67" y="294.786"/><use xlink:href="#bj" x="490.488" y="294.786"/><use xlink:href="#bk" x="492.408" y="294.786"/><use xlink:href="#br" x="494.817" y="294.786"/><use xlink:href="#bw" x="499.865" y="294.786"/><use xlink:href="#bg" x="502.414" y="294.786"/><use xlink:href="#bx" x="505.912" y="294.786"/><use xlink:href="#by" x="512.21" y="294.786"/><use xlink:href="#bz" x="519.267" y="294.786"/><use xlink:href="#bh" x="525.505" y="294.786"/><use xlink:href="#bA" x="531.333" y="294.786"/><use xlink:href="#bB" x="537.85" y="294.786"/></g><g fill="#7b7979"><use xlink:href="#bC" x="27.429" y="818.875"/><use xlink:href="#bD" x="31.371" y="818.875"/></g></svg>