<svg xmlns="http://www.w3.org/2000/svg" xmlns:xlink="http://www.w3.org/1999/xlink" width="794.366" height="1122.52" viewBox="0 0 595.7748 841.89" version="1.2"><defs><symbol overflow="visible" id="a"><path d="M2.734-5.516L1.281-3.609c-.234.312-.437.546-.64.953a2.17 2.17 0 0 0-.25 1.015c0 .516.187.907.453 1.204.406.421.89.53 1.36.53.343 0 .905-.062 1.343-.515.344-.344.515-.86.515-1.344 0-.484-.187-.937-.468-1.25C3.39-3.234 3-3.5 2.39-3.5c-.11 0-.204 0-.329.031l1.25-1.61zm-.5 2.704c.266 0 .563.109.735.296.203.204.312.532.312.797 0 .266-.11.594-.312.797a1.097 1.097 0 0 1-.735.297c-.28 0-.593-.14-.75-.297-.203-.203-.312-.531-.312-.797 0-.343.14-.625.312-.797.188-.187.485-.296.75-.296zm0 0"/></symbol><symbol overflow="visible" id="b"><path d="M3.516-5.734L.156-1.016H2.75V0h.766v-1.016h.562v-.75h-.562zM1.546-1.75L2.75-3.469v1.719zm0 0"/></symbol><symbol overflow="visible" id="c"><path d="M.36 0h3.515v-.422H2.062c-.312 0-.64.031-.968.047 1.547-1.438 2.5-2.672 2.5-3.89 0-1-.61-1.673-1.625-1.673-.703 0-1.188.36-1.625.844l.281.282c.344-.422.797-.735 1.297-.735.828 0 1.203.578 1.203 1.297 0 1.063-.781 2.266-2.766 3.969zm0 0"/></symbol><symbol overflow="visible" id="d"><path d="M1 .11c.219 0 .406-.172.406-.438S1.22-.766 1-.766c-.219 0-.406.172-.406.438S.78.109 1 .109zm0 0"/></symbol><symbol overflow="visible" id="e"><path d="M2.14.11c1.063 0 1.72-1 1.72-3.047 0-2.016-.657-3-1.72-3-1.062 0-1.718.984-1.718 3C.422-.892 1.078.108 2.14.108zm0-.391c-.75 0-1.25-.89-1.25-2.656 0-1.735.5-2.61 1.25-2.61s1.25.875 1.25 2.61c0 1.765-.5 2.656-1.25 2.656zm0 0"/></symbol><symbol overflow="visible" id="f"><path d="M.734 0H3.75v-.406H2.531v-5.422h-.375c-.281.156-.64.281-1.11.36v.312h1.016v4.75H.734zm0 0"/></symbol><symbol overflow="visible" id="g"><path d="M1.64 0h.5c.094-2.281.376-3.734 1.766-5.547v-.281H.391v.406h2.953C2.172-3.812 1.734-2.328 1.64 0zm0 0"/></symbol><symbol overflow="visible" id="i"><path d="M.844 2.219h.344v-8.86H.844zm0 0"/></symbol><symbol overflow="visible" id="j"><path d="M2.438-5.281h1.406v-.36H.547v.36H2.03v.812c0 1.36-.687 2.657-1.64 3.235l.28.312c.735-.453 1.313-1.36 1.563-2.422.25.985.797 1.813 1.516 2.25l.281-.312c-.937-.532-1.593-1.797-1.593-3.063zm2.171 1.36H3.281v.358H4.61V.172h.407V-6.36h-.407zm1.422-2.626v7.11h.422v-7.11zm0 0"/></symbol><symbol overflow="visible" id="k"><path d="M.688-2.063l1.578-2.312a8.18 8.18 0 0 0 .468-.797h.047c-.031.266-.047.703-.047.969v2.14zm3.328 0h-.829v-3.765h-.453L.156-1.953v.297h2.578V0h.454v-1.656h.828zm0 0"/></symbol><symbol overflow="visible" id="l"><path d="M4.984-5.625H3.047v-.938h-.438v.938H.656v.36h4.328zm-3.421 2.14c0-.562.515-.953 1.265-.953.75 0 1.266.391 1.266.954 0 .562-.516.968-1.266.968s-1.265-.406-1.265-.968zm1.484 1.297C3.922-2.265 4.5-2.75 4.5-3.484c0-.797-.672-1.297-1.672-1.297-1 0-1.672.5-1.672 1.297 0 .75.578 1.234 1.453 1.296v.876c-.75.03-1.468.046-2.109.046l.063.36c1.343 0 3.093-.016 4.703-.281L5.234-1.5c-.703.094-1.453.14-2.187.172zm2.687-4.359V.547h.422v-7.094zm0 0"/></symbol><symbol overflow="visible" id="n"><path d="M5.797-6.547v7.11h.422v-7.11zm-3.281.578C1.484-5.969.75-5.016.75-3.53c0 1.484.734 2.437 1.766 2.437 1.03 0 1.765-.953 1.765-2.437 0-1.485-.734-2.438-1.765-2.438zm0 .375c.796 0 1.359.844 1.359 2.063 0 1.219-.563 2.078-1.36 2.078-.796 0-1.359-.86-1.359-2.078 0-1.219.563-2.063 1.36-2.063zm0 0"/></symbol><symbol overflow="visible" id="o"><path d="M2.688-5.89H2.28v1.421c0 1.282-.969 2.64-1.89 3.125l.25.36C1.42-1.438 2.187-2.406 2.5-3.5c.313 1.047 1.063 1.938 1.844 2.36l.25-.329c-.922-.484-1.907-1.765-1.907-3zm4.421 2.312H5.86v-2.969h-.421v7.11h.421V-3.22h1.25zm0 0"/></symbol></defs><g fill="#7b7979"><use xlink:href="#a" x="27.429" y="818.875"/><use xlink:href="#b" x="31.379" y="818.875"/></g><g fill="#231f20"><use xlink:href="#c" x="28.973" y="62.567"/><use xlink:href="#c" x="33.132" y="62.567"/><use xlink:href="#d" x="37.29" y="62.567"/><use xlink:href="#e" x="39.169" y="62.567"/><use xlink:href="#c" x="43.328" y="62.567"/><use xlink:href="#d" x="47.486" y="62.567"/><use xlink:href="#f" x="49.366" y="62.567"/><use xlink:href="#g" x="53.524" y="62.567"/><use xlink:href="#h" x="57.682" y="62.567"/></g><g fill="#231f20"><use xlink:href="#i" x="59.618" y="62.567"/><use xlink:href="#h" x="61.529" y="62.567"/></g><g fill="#231f20"><use xlink:href="#j" x="63.463" y="62.567"/><use xlink:href="#f" x="70.661" y="62.567"/><use xlink:href="#k" x="74.779" y="62.567"/><use xlink:href="#l" x="78.898" y="62.567"/><use xlink:href="#m" x="86.095" y="62.567"/><use xlink:href="#n" x="88.174" y="62.567"/><use xlink:href="#o" x="95.371" y="62.567"/><use xlink:href="#l" x="102.569" y="62.567"/></g></svg>