<svg xmlns="http://www.w3.org/2000/svg" xmlns:xlink="http://www.w3.org/1999/xlink" width="794.366" height="1122.52" viewBox="0 0 595.7748 841.89" version="1.2"><defs><symbol overflow="visible" id="a"><path d="M4.86.203c2.452 0 3.984-1.469 3.984-3.328 0-1.734-1.047-2.531-2.406-3.125L4.75-6.969c-.906-.39-1.938-.828-1.938-1.953 0-1.062.876-1.734 2.204-1.734 1.078 0 1.937.437 2.671 1.11l.782-.954a4.842 4.842 0 0 0-3.453-1.453c-2.141 0-3.704 1.312-3.704 3.125 0 1.703 1.297 2.547 2.391 3l1.688.734c1.109.5 1.953.89 1.953 2.078 0 1.157-.922 1.922-2.469 1.922-1.219 0-2.39-.562-3.25-1.453L.75-1.53A5.653 5.653 0 0 0 4.86.203zm0 0"/></symbol><symbol overflow="visible" id="b"><path d="M4.969.203c1.187 0 2.125-.39 2.89-.89l-.53-.954c-.641.422-1.329.688-2.173.688C3.5-.953 2.375-2.141 2.266-4h5.859a5.79 5.79 0 0 0 .063-.828c0-2.484-1.25-4.078-3.454-4.078-2.015 0-3.921 1.75-3.921 4.562C.813-1.469 2.671.203 4.968.203zM2.25-5.047C2.438-6.75 3.516-7.75 4.75-7.75c1.36 0 2.156.953 2.156 2.703zm0 0"/></symbol><symbol overflow="visible" id="c"><path d="M3.016.203c.375 0 .625-.047.843-.125l-.218-1.125c-.157.031-.22.031-.297.031-.219 0-.422-.171-.422-.609v-11.11H1.469v11C1.469-.5 1.922.204 3.016.204zm0 0"/></symbol><symbol overflow="visible" id="d"><path d="M5.703-12.656a3.966 3.966 0 0 0-1.469-.281c-1.718 0-2.515 1.093-2.515 2.859v1.39L.53-8.608V-7.5H1.72V0h1.453v-7.5h1.844v-1.188H3.172v-1.374c0-1.126.39-1.72 1.234-1.72.297 0 .657.079.969.235zm0 0"/></symbol><symbol overflow="visible" id="e"><path d="M.734-3.922h4.094v-1.125H.734zm0 0"/></symbol><symbol overflow="visible" id="f"><path d="M1.469 0h1.453v-5.578c.578-1.5 1.484-2 2.203-2 .344 0 .563.031.844.14l.265-1.28c-.265-.141-.53-.188-.921-.188-.97 0-1.86.703-2.47 1.797h-.046l-.125-1.579H1.469zm0 0"/></symbol><symbol overflow="visible" id="g"><path d="M1.469 0h1.453v-6.297c.89-.89 1.5-1.328 2.39-1.328 1.157 0 1.641.688 1.641 2.313V0h1.469v-5.5c0-2.234-.844-3.406-2.656-3.406-1.188 0-2.079.656-2.922 1.469h-.047l-.125-1.25H1.469zm0 0"/></symbol><symbol overflow="visible" id="h"><path d="M2.844 0h1.719L5.78-4.656c.219-.828.39-1.64.594-2.532h.078c.203.891.36 1.688.594 2.5L8.297 0h1.765l2.344-8.688h-1.375L9.75-3.655c-.203.828-.36 1.61-.547 2.422h-.062c-.22-.813-.407-1.594-.61-2.422l-1.36-5.031H5.75l-1.344 5.03c-.234.813-.406 1.61-.593 2.423h-.079c-.171-.813-.343-1.594-.515-2.422L1.922-8.687H.438zm0 0"/></symbol><symbol overflow="visible" id="i"><path d="M3.469.203c1.078 0 2.047-.562 2.89-1.25h.047L6.531 0h1.203v-5.344c0-2.14-.906-3.562-3.015-3.562-1.39 0-2.625.625-3.422 1.125l.578 1.015c.688-.468 1.594-.937 2.61-.937 1.421 0 1.78 1.078 1.78 2.203C2.579-5.094.923-4.14.923-2.25.922-.687 2.016.203 3.469.203zM3.89-.953c-.86 0-1.532-.406-1.532-1.406 0-1.11.985-1.829 3.907-2.188v2.438C5.422-1.36 4.734-.953 3.89-.953zm0 0"/></symbol><symbol overflow="visible" id="k"><path d="M3.063-4.766l.562-1.796a77.974 77.974 0 0 0 1.172-3.97h.062c.391 1.36.75 2.641 1.188 3.97l.562 1.796zM8.093 0h1.563L5.687-11.734H4.032L.047 0h1.5l1.14-3.578H6.97zm0 0"/></symbol><symbol overflow="visible" id="l"><path d="M4.89.203A4.18 4.18 0 0 0 7.704-.89l-.625-.984c-.547.5-1.25.86-2.047.86-1.61 0-2.687-1.329-2.687-3.329s1.14-3.36 2.719-3.36c.703 0 1.218.329 1.734.798l.75-.985c-.625-.546-1.406-1.015-2.531-1.015C2.78-8.906.812-7.234.812-4.344c0 2.89 1.782 4.547 4.079 4.547zm0 0"/></symbol><symbol overflow="visible" id="m"><path d="M4.203.203c.531 0 1.11-.156 1.61-.312l-.297-1.094c-.282.11-.688.234-.985.234-1.015 0-1.343-.61-1.343-1.687V-7.5H5.53v-1.188H3.188v-2.437h-1.22l-.171 2.438-1.36.078V-7.5h1.297v4.813c0 1.75.625 2.89 2.47 2.89zm0 0"/></symbol><symbol overflow="visible" id="n"><path d="M1.469 0h1.453v-8.688H1.469zm.734-10.484c.578 0 1.016-.391 1.016-.938 0-.594-.438-.953-1.016-.953-.578 0-1 .36-1 .953 0 .547.422.938 1 .938zm0 0"/></symbol><symbol overflow="visible" id="o"><path d="M3.344 0h1.703l3.078-8.688H6.687L5.048-3.75a170 170 0 0 1-.813 2.563h-.062a170 170 0 0 1-.813-2.563L1.734-8.688H.204zm0 0"/></symbol><symbol overflow="visible" id="p"><path d="M1.61 3.75c1.734 0 2.624-1.313 3.234-3.031l3.281-9.406H6.703L5.156-3.86c-.25.765-.5 1.656-.734 2.437h-.078c-.282-.781-.578-1.687-.844-2.437L1.734-8.688H.204l3.5 8.704L3.5.672c-.344 1.078-.969 1.875-1.969 1.875-.218 0-.468-.078-.656-.14L.594 3.561c.265.126.61.188 1.015.188zm0 0"/></symbol><symbol overflow="visible" id="q"><path d="M4.844.203c2.125 0 4.031-1.656 4.031-4.547 0-2.89-1.906-4.562-4.031-4.562S.812-7.234.812-4.344C.813-1.454 2.72.203 4.845.203zm0-1.219c-1.5 0-2.5-1.328-2.5-3.328 0-2 1-3.36 2.5-3.36 1.515 0 2.531 1.36 2.531 3.36 0 2-1.016 3.328-2.531 3.328zm0 0"/></symbol><symbol overflow="visible" id="r"><path d="M1.594 0h1.5v-5.531h5.469V0h1.468v-11.734H8.562v4.921H3.095v-4.921h-1.5zm0 0"/></symbol><symbol overflow="visible" id="s"><path d="M1.469 0h1.453v-6.297c.812-.906 1.547-1.328 2.203-1.328 1.094 0 1.61.688 1.61 2.313V0h1.452v-6.297c.829-.906 1.532-1.328 2.204-1.328 1.093 0 1.609.688 1.609 2.313V0h1.453v-5.5c0-2.234-.844-3.406-2.64-3.406-1.047 0-1.97.687-2.86 1.656-.36-1.016-1.078-1.656-2.406-1.656-1.031 0-1.953.656-2.703 1.484h-.047l-.125-1.266H1.469zm0 0"/></symbol><symbol overflow="visible" id="t"><path d="M1.469 3.656h1.453V.72L2.89-.797c.796.64 1.625 1 2.406 1 2 0 3.781-1.703 3.781-4.687 0-2.672-1.219-4.422-3.469-4.422-1 0-1.984.562-2.765 1.203h-.047l-.125-.984H1.469zm3.593-4.672c-.578 0-1.343-.234-2.14-.906v-4.562c.86-.782 1.61-1.204 2.344-1.204 1.64 0 2.28 1.297 2.28 3.22 0 2.171-1.046 3.452-2.484 3.452zm0 0"/></symbol><symbol overflow="visible" id="u"><path d="M6.031.203c1.516 0 2.672-.61 3.594-1.672l-.813-.937c-.75.828-1.593 1.312-2.718 1.312-2.235 0-3.64-1.843-3.64-4.812 0-2.922 1.468-4.75 3.687-4.75 1.015 0 1.796.469 2.406 1.125l.797-.969c-.672-.75-1.797-1.453-3.219-1.453-2.969 0-5.203 2.312-5.203 6.094 0 3.812 2.203 6.062 5.11 6.062zm0 0"/></symbol><symbol overflow="visible" id="v"><path d="M3.75.203c2.047 0 3.156-1.156 3.156-2.578 0-1.64-1.39-2.156-2.656-2.64-.969-.36-1.906-.673-1.906-1.5 0-.673.484-1.25 1.578-1.25.781 0 1.39.327 2 .78l.703-.952c-.688-.532-1.64-.97-2.703-.97-1.89 0-3 1.079-3 2.454 0 1.484 1.375 2.062 2.594 2.516.968.374 1.984.765 1.984 1.656 0 .75-.563 1.36-1.703 1.36-1.047 0-1.828-.423-2.578-1.032L.5-.984C1.328-.297 2.516.203 3.75.203zm0 0"/></symbol><symbol overflow="visible" id="w"><path d="M2.61 0h.609v-6.781h2.297v-.516H.312v.516H2.61zm0 0"/></symbol><symbol overflow="visible" id="x"><path d="M1 0h.578v-5.328H1zm.297-6.578c.266 0 .5-.188.5-.469 0-.297-.234-.469-.5-.469s-.484.172-.484.47c0 .28.218.468.484.468zm0 0"/></symbol><symbol overflow="visible" id="y"><path d="M2.313.125c1.171 0 1.828-.688 1.828-1.516 0-1.03-.907-1.312-1.72-1.625-.624-.234-1.233-.453-1.233-1.046 0-.485.359-.922 1.14-.922.516 0 .906.218 1.266.484l.312-.406C3.5-5.22 2.937-5.47 2.344-5.47c-1.11 0-1.75.657-1.75 1.438 0 .922.89 1.25 1.672 1.531.625.219 1.296.516 1.296 1.14 0 .548-.406 1.016-1.218 1.016-.735 0-1.219-.281-1.688-.672l-.312.422c.484.39 1.187.719 1.969.719zm0 0"/></symbol><symbol overflow="visible" id="z"><path d="M2.531.125c.735 0 1.281-.406 1.797-1h.031L4.406 0h.5v-5.328h-.593v3.89C3.719-.703 3.28-.39 2.655-.39 1.844-.39 1.5-.906 1.5-1.984v-3.344H.922v3.406c0 1.375.5 2.047 1.61 2.047zm0 0"/></symbol><symbol overflow="visible" id="A"><path d="M3.047.125c.765 0 1.265-.25 1.687-.516l-.218-.421c-.391.265-.844.453-1.422.453-1.14 0-1.906-.907-1.938-2.204h3.782c.015-.14.015-.28.015-.421 0-1.563-.766-2.485-2.047-2.485C1.687-5.469.562-4.39.562-2.656c0 1.75 1.11 2.781 2.485 2.781zm-1.89-3.156c.109-1.219.89-1.938 1.75-1.938.937 0 1.53.657 1.53 1.938zm0 0"/></symbol><symbol overflow="visible" id="C"><path d="M2.5.125c.234 0 .578-.078.89-.188l-.14-.453a1.9 1.9 0 0 1-.656.141c-.703 0-.89-.438-.89-1.11v-3.359h1.53v-.484h-1.53v-1.547h-.485l-.063 1.547-.86.047v.437h.829v3.328C1.125-.53 1.453.125 2.5.125zm0 0"/></symbol><symbol overflow="visible" id="D"><path d="M1 0h.578v-3.984c.563-.641 1.078-.97 1.547-.97.781 0 1.14.516 1.14 1.626V0h.579v-3.984c.578-.641 1.062-.97 1.547-.97.78 0 1.156.516 1.156 1.626V0h.578v-3.406c0-1.375-.531-2.063-1.61-2.063-.609 0-1.202.422-1.796 1.078-.188-.656-.625-1.078-1.469-1.078-.594 0-1.203.422-1.688.953h-.015l-.063-.812H1zm0 0"/></symbol><symbol overflow="visible" id="E"><path d="M3 .125c.672 0 1.234-.281 1.703-.688l-.281-.39c-.36.312-.844.578-1.39.578-1.126 0-1.86-.922-1.86-2.281 0-1.36.812-2.297 1.875-2.297.5 0 .89.219 1.219.531l.328-.39c-.375-.344-.86-.657-1.563-.657-1.328 0-2.469 1.032-2.469 2.813C.563-.891 1.61.125 3 .125zm0 0"/></symbol><symbol overflow="visible" id="F"><path d="M1.703.125c.203 0 .297-.031.39-.063L2.017-.39c-.11.016-.157.016-.204.016-.125 0-.234-.11-.234-.36v-7.218H1v7.156c0 .625.234.922.703.922zm0 0"/></symbol><symbol overflow="visible" id="G"><path d="M2.188.125c.671 0 1.312-.36 1.859-.813h.016L4.125 0h.484v-3.375c0-1.188-.453-2.094-1.718-2.094-.875 0-1.61.422-2.016.703l.25.422c.375-.281.984-.61 1.688-.61 1 0 1.234.813 1.218 1.61-2.343.266-3.406.828-3.406 2 0 1 .688 1.469 1.563 1.469zm.109-.484c-.594 0-1.094-.282-1.094-1.016 0-.813.734-1.313 2.828-1.547v1.735c-.625.546-1.14.828-1.734.828zm0 0"/></symbol><symbol overflow="visible" id="H"><path d="M1 0h.578v-3.578c.39-.985.969-1.344 1.438-1.344.203 0 .296.016.484.094l.125-.516a1.048 1.048 0 0 0-.547-.125c-.625 0-1.14.453-1.515 1.125h-.016l-.063-.984H1zm0 0"/></symbol><symbol overflow="visible" id="I"><path d="M1 2.375h.578V.453l-.016-.969c.547.422 1.079.641 1.579.641 1.25 0 2.343-1.063 2.343-2.875 0-1.64-.718-2.719-2.14-2.719-.64 0-1.25.39-1.781.782h-.016l-.063-.641H1zm2.094-2.75c-.39 0-.938-.172-1.516-.656V-4.11c.625-.547 1.156-.844 1.656-.844 1.204 0 1.641.922 1.641 2.203 0 1.438-.75 2.375-1.781 2.375zm0 0"/></symbol><symbol overflow="visible" id="J"><path d="M3.14.125c1.25 0 2.344-1.063 2.344-2.875 0-1.64-.718-2.719-2.14-2.719-.64 0-1.266.375-1.797.813l.031-1.016v-2.281H1V0h.469l.078-.547h.016c.484.422 1.078.672 1.578.672zm-.046-.5c-.39 0-.969-.172-1.516-.656V-4.11c.61-.547 1.156-.844 1.656-.844 1.204 0 1.641.922 1.641 2.203 0 1.438-.75 2.375-1.781 2.375zm0 0"/></symbol><symbol overflow="visible" id="K"><path d="M2.969.125c1.297 0 2.406-1.016 2.406-2.781 0-1.781-1.11-2.813-2.406-2.813-1.281 0-2.406 1.032-2.406 2.813C.563-.891 1.688.125 2.969.125zm0-.5c-1.031 0-1.797-.922-1.797-2.281 0-1.36.766-2.297 1.797-2.297 1.047 0 1.812.937 1.812 2.297S4.016-.375 2.97-.375zm0 0"/></symbol><symbol overflow="visible" id="L"><path d="M3.266-7.906a2.047 2.047 0 0 0-.813-.172c-.89 0-1.36.562-1.36 1.625v1.125l-.75.047v.437h.75V0h.579v-4.844h1.203v-.484H1.672v-1.094c0-.75.25-1.172.812-1.172.204 0 .422.047.641.157zm0 0"/></symbol><symbol overflow="visible" id="M"><path d="M.453-2.516h2.453v-.5H.453zm0 0"/></symbol><symbol overflow="visible" id="N"><path d="M1 0h.578v-3.984c.625-.641 1.063-.97 1.688-.97.812 0 1.171.516 1.171 1.626V0h.579v-3.406c0-1.375-.516-2.063-1.625-2.063-.735 0-1.282.422-1.829.953h-.015l-.063-.812H1zm0 0"/></symbol><symbol overflow="visible" id="O"><path d="M1.813 0h.703l.875-3.188c.171-.515.296-1.015.406-1.546h.047c.156.53.25 1.015.406 1.53L5.156 0h.75l1.5-5.328h-.578l-.906 3.36c-.125.515-.25.968-.375 1.452h-.031C5.375-1 5.25-1.453 5.125-1.969l-.953-3.36h-.64l-.954 3.36c-.125.5-.25.969-.375 1.453h-.047c-.11-.484-.219-.937-.344-1.453l-.937-3.36h-.61zm0 0"/></symbol><symbol overflow="visible" id="P"><path d="M2.766.125c.687 0 1.28-.36 1.718-.797H4.5L4.563 0h.484v-7.953h-.578v2.172l.047.968c-.532-.421-.954-.656-1.594-.656-1.266 0-2.36 1.094-2.36 2.813 0 1.781.875 2.781 2.204 2.781zm.109-.5c-1.078 0-1.688-.906-1.688-2.281 0-1.313.766-2.297 1.797-2.297.5 0 .954.172 1.485.656v3.078c-.532.547-1.032.844-1.594.844zm0 0"/></symbol><symbol overflow="visible" id="Q"><path d="M2.75 2.547c1.563 0 2.563-.89 2.563-1.813C5.313-.125 4.734-.5 3.53-.5H2.406c-.765 0-1-.297-1-.672 0-.344.188-.562.422-.734a1.8 1.8 0 0 0 .86.218c1.046 0 1.874-.78 1.874-1.875 0-.546-.218-1-.546-1.28h1.203v-.485H3.406a1.774 1.774 0 0 0-.719-.14c-1.046 0-1.906.78-1.906 1.89 0 .64.344 1.172.672 1.453v.031c-.234.188-.578.531-.578 1 0 .407.203.688.469.86v.047C.859.14.547.609.547 1.077c0 .906.875 1.469 2.203 1.469zm-.063-4.672c-.703 0-1.328-.578-1.328-1.453C1.36-4.453 1.953-5 2.688-5c.718 0 1.328.547 1.328 1.422 0 .875-.625 1.453-1.329 1.453zm.126 4.219c-1.079 0-1.72-.438-1.72-1.078 0-.36.204-.75.673-1.079.265.063.546.094.671.094h1.079c.796 0 1.218.203 1.218.781 0 .641-.75 1.282-1.921 1.282zm0 0"/></symbol><symbol overflow="visible" id="R"><path d="M6.266-7.906a2.047 2.047 0 0 0-.813-.172c-.89 0-1.36.562-1.36 1.625v1.125H1.673v-.89c0-.798.312-1.266.922-1.266.25 0 .5.046.75.171L3.5-7.78a2.372 2.372 0 0 0-.922-.188c-.953 0-1.484.594-1.484 1.703v.938l-.75.047v.437h.75V0h.578v-4.844h2.422V0h.578v-4.844h1.203v-.484H4.672v-1.094c0-.75.25-1.172.812-1.172.204 0 .422.047.641.157zm0 0"/></symbol><symbol overflow="visible" id="S"><path d="M1.25.125a.514.514 0 0 0 .516-.531c0-.344-.25-.547-.516-.547S.734-.75.734-.406c0 .328.25.531.516.531zm0 0"/></symbol><symbol overflow="visible" id="T"><path d="M1 0h.578v-3.984c.625-.641 1.063-.97 1.688-.97.812 0 1.171.516 1.171 1.626V0h.579v-3.406c0-1.375-.516-2.063-1.625-2.063-.735 0-1.282.422-1.829.953l.016-1.156v-2.281H1zm0 0"/></symbol><symbol overflow="visible" id="U"><path d="M2.422 1.938l.36-.188C1.905.344 1.452-1.344 1.452-3.078c0-1.735.453-3.422 1.328-4.828l-.36-.188C1.517-6.625.954-5.03.954-3.078c0 1.953.563 3.531 1.469 5.015zm0 0"/></symbol><symbol overflow="visible" id="V"><path d="M1.063 0h.593v-3.61h3.797V0h.594v-7.297h-.594v3.172H1.656v-3.172h-.593zm0 0"/></symbol><symbol overflow="visible" id="W"><path d="M2.984.125c1.438 0 2.36-.86 2.36-1.969 0-1.11-.688-1.578-1.532-1.953l-1.078-.469c-.53-.234-1.25-.546-1.25-1.375 0-.75.625-1.234 1.563-1.234.719 0 1.281.281 1.719.719l.328-.39c-.453-.5-1.172-.876-2.047-.876-1.25 0-2.172.75-2.172 1.828s.828 1.532 1.484 1.828l1.094.47c.719.327 1.281.608 1.281 1.483 0 .829-.671 1.407-1.75 1.407-.828 0-1.578-.375-2.109-.969l-.36.422c.579.64 1.422 1.078 2.47 1.078zm0 0"/></symbol><symbol overflow="visible" id="X"><path d="M3.688.125c.937 0 1.609-.39 2.171-1.031l-.343-.39c-.516.577-1.063.89-1.813.89-1.515 0-2.469-1.281-2.469-3.266 0-1.969.97-3.203 2.5-3.203.672 0 1.204.281 1.579.719l.343-.39a2.548 2.548 0 0 0-1.922-.876c-1.843 0-3.14 1.438-3.14 3.766C.594-1.312 1.875.125 3.688.125zm0 0"/></symbol><symbol overflow="visible" id="Y"><path d="M.734 1.938C1.641.452 2.188-1.126 2.188-3.079c0-1.953-.547-3.547-1.454-5.016l-.359.188c.86 1.406 1.313 3.093 1.313 4.828 0 1.734-.454 3.422-1.313 4.828zm0 0"/></symbol><symbol overflow="visible" id="Z"><path d="M.844 2.406c.984 0 1.531-.86 1.844-1.781l2.078-5.953h-.579L3.095-2.062c-.156.453-.328 1.015-.485 1.5h-.046c-.188-.485-.391-1.047-.563-1.5L.766-5.329H.125L2.313.078l-.141.453c-.266.766-.688 1.344-1.328 1.344-.156 0-.328-.031-.438-.078l-.125.5c.156.062.36.11.563.11zm0 0"/></symbol><symbol overflow="visible" id="aa"><path d="M.156 0h.61l.859-1.406c.219-.328.406-.657.61-.969h.046c.219.313.422.64.61.969L3.797 0h.656L2.656-2.734l1.64-2.594h-.609l-.78 1.312c-.188.297-.36.579-.532.875h-.047c-.203-.296-.39-.578-.562-.875L.937-5.328h-.64l1.656 2.531zm0 0"/></symbol><symbol overflow="visible" id="ab"><path d="M2.11 0h.687l1.969-5.328h-.594L3.016-2.062c-.172.515-.36 1.062-.532 1.546h-.046a87.833 87.833 0 0 1-.532-1.546L.766-5.329H.125zm0 0"/></symbol><symbol overflow="visible" id="ac"><path d="M1.672-2.938l.453-1.312c.281-.844.531-1.625.781-2.5h.047c.25.875.5 1.656.797 2.5l.438 1.313zM5.156 0h.64L3.25-7.297h-.625L.078 0h.61l.828-2.453h2.828zm0 0"/></symbol><symbol overflow="visible" id="ad"><path d="M.703 1.766c.703-.36 1.203-1.032 1.203-1.86 0-.531-.25-.86-.61-.86-.265 0-.53.173-.53.5 0 .329.25.5.53.5h.11c0 .61-.36 1.063-.875 1.329zm0 0"/></symbol><symbol overflow="visible" id="ae"><path d="M1.938 0h.671l1.25-4.875c.125-.578.282-1.078.407-1.64h.03c.141.562.266 1.062.391 1.64L5.97 0h.687L8.25-7.297h-.594l-.875 4.234c-.156.782-.312 1.579-.468 2.376h-.047c-.188-.797-.36-1.594-.563-2.375l-1.11-4.235H4L2.89-3.063c-.187.782-.374 1.579-.562 2.376h-.031c-.172-.797-.328-1.594-.5-2.375L.922-7.298H.297zm0 0"/></symbol><symbol overflow="visible" id="af"><path d="M1.656-6.797h1.39c1.267 0 1.97.39 1.97 1.453 0 1.047-.704 1.547-1.97 1.547h-1.39zM5.766 0l-1.97-3.344c1.11-.172 1.829-.844 1.829-2 0-1.422-.984-1.953-2.438-1.953H1.063V0h.593v-3.297h1.5L5.094 0zm0 0"/></symbol><symbol overflow="visible" id="ag"><path d="M3.625.125c1.781 0 3.031-1.469 3.031-3.797 0-2.312-1.25-3.75-3.031-3.75-1.766 0-3.031 1.438-3.031 3.75C.594-1.344 1.859.125 3.625.125zm0-.531c-1.438 0-2.39-1.281-2.39-3.266 0-1.984.952-3.203 2.39-3.203 1.438 0 2.406 1.219 2.406 3.203 0 1.985-.968 3.266-2.406 3.266zm0 0"/></symbol><symbol overflow="visible" id="ah"><path d="M4.469 2.375h.578v-7.703h-.469l-.062.5h-.032c-.484-.406-.921-.64-1.562-.64-1.266 0-2.36 1.093-2.36 2.812 0 1.781.875 2.781 2.204 2.781.687 0 1.28-.36 1.75-.813L4.469.345zM2.875-.375c-1.078 0-1.688-.906-1.688-2.281 0-1.313.766-2.297 1.797-2.297.5 0 .954.172 1.485.656v3.078c-.532.547-1.032.844-1.594.844zm0 0"/></symbol><symbol overflow="visible" id="ai"><path d="M1.063 0h4.14v-.516H1.656v-3.093h2.89v-.516h-2.89v-2.656h3.438v-.516H1.062zm0 0"/></symbol><symbol overflow="visible" id="aj"><path d="M2.438 0h.656l2.36-7.297h-.61L3.547-3.094c-.281.875-.469 1.547-.766 2.438h-.047c-.28-.89-.468-1.563-.75-2.438L.688-7.297H.046zm0 0"/></symbol><symbol overflow="visible" id="ak"><path d="M1.094-5.328l-.75.047v.437h.75V0h.578v-4.844h1.203v-.484H1.672v-1.094c0-.75.25-1.172.812-1.172.204 0 .422.047.641.157l.14-.47a2.047 2.047 0 0 0-.812-.171c-.89 0-1.36.562-1.36 1.625zM4.187 0h.579v-5.328h-.579zm.297-7.516c-.28 0-.5.172-.5.47 0 .28.22.468.5.468.25 0 .485-.188.485-.469 0-.297-.235-.469-.485-.469zm0 0"/></symbol><symbol overflow="visible" id="al"><path d="M1.063 0h.562v-4.375c0-.719-.047-1.406-.078-2.11h.047l.828 1.47L5.39 0h.625v-7.297h-.579v4.328c0 .703.047 1.438.079 2.156h-.047L4.656-2.28 1.688-7.297h-.625zm0 0"/></symbol><symbol overflow="visible" id="am"><path d="M.453 0h4.39v-.516h-2.28c-.376 0-.797.032-1.188.063 1.938-1.813 3.11-3.344 3.11-4.875 0-1.266-.75-2.094-2.016-2.094-.875 0-1.5.438-2.047 1.047l.375.36c.406-.532.984-.923 1.61-.923 1.03 0 1.5.72 1.5 1.625 0 1.329-.985 2.829-3.454 4.954zm0 0"/></symbol><symbol overflow="visible" id="an"><path d="M2.688.125C4 .125 4.812-1.109 4.812-3.672c0-2.531-.812-3.75-2.125-3.75-1.343 0-2.156 1.219-2.156 3.75 0 2.563.813 3.797 2.156 3.797zm0-.484c-.954 0-1.579-1.094-1.579-3.313 0-2.172.625-3.265 1.579-3.265.937 0 1.546 1.093 1.546 3.265 0 2.219-.609 3.313-1.546 3.313zm0 0"/></symbol><symbol overflow="visible" id="ao"><path d="M1.063 0h.593v-7.297h-.593zm0 0"/></symbol><symbol overflow="visible" id="ap"><path d="M1 0h.578v-1.438l1.156-1.359L4.454 0h.64L3.062-3.219l1.75-2.11h-.656L1.594-2.187h-.016v-5.765H1zm0 0"/></symbol><symbol overflow="visible" id="aq"><path d="M1.063 0h.593v-3.453h2.89v-.516h-2.89V-6.78h3.422v-.516H1.062zm0 0"/></symbol><symbol overflow="visible" id="ar"><path d="M1.25-4.047a.528.528 0 0 0 .516-.547c0-.343-.25-.547-.516-.547s-.516.204-.516.547c0 .328.25.547.516.547zM.703 1.766c.703-.36 1.203-1.032 1.203-1.86 0-.531-.25-.86-.61-.86-.265 0-.53.173-.53.5 0 .329.25.5.53.5h.11c0 .61-.36 1.063-.875 1.329zm0 0"/></symbol><symbol overflow="visible" id="as"><path d="M6.656-6.11v-1.327H.063v1.328H2.64V.828l1.437.016V-6.11zm0 0"/></symbol><symbol overflow="visible" id="at"><path d="M3.328-5.469C1.516-5.469.36-4 .36-2.234.36-.47 1.5.984 3.33.984 5.124.984 6.28-.469 6.28-2.234 6.281-4 5.141-5.47 3.328-5.47zm0 5.188c-.953 0-1.547-.875-1.547-1.953 0-1.094.594-1.954 1.547-1.954s1.547.86 1.547 1.954c0 1.078-.594 1.953-1.547 1.953zm0 0"/></symbol><symbol overflow="visible" id="au"><path d="M4.469-2.422c-.578-.312-1.5-.453-1.985-.594-.453-.156-.64-.343-.609-.64.047-.36.453-.531 1.063-.531.609 0 1.03.359 1.03.64h1.298c.046-.906-.875-1.875-2.422-1.875-1.438 0-2.266.938-2.344 1.766-.078.781.297 1.312 1.156 1.625.516.187 1.328.344 1.89.562.345.157.517.36.485.625-.031.266-.39.61-1.11.61-.812 0-1.233-.485-1.265-.891H.313C.328-.469.984.985 2.983.985c1.297 0 2.422-.86 2.5-1.876C5.516-1.609 5-2.156 4.47-2.42zm0 0"/></symbol><symbol overflow="visible" id="av"><path d="M5.922.797v-4.125c0-.86-.625-1.953-1.828-2.078-.907-.078-1.547.297-2 .734v-2.812H.656v8.28h1.438v-3.312c0-.921.484-1.5 1.281-1.5.75 0 1.094.485 1.094 1.391V.797zm0 0"/></symbol><symbol overflow="visible" id="aw"><path d="M2.188-6.047v-1.406H.78v1.406zM2.171.813v-5.97H.782v5.97zm0 0"/></symbol><symbol overflow="visible" id="ay"><path d="M5.531-3.516c-.875-.437-1.797-.562-2.39-.78-.532-.188-1.079-.5-1.047-1.063.047-.485.375-1 1.469-1 1.093 0 1.578.671 1.578 1.39h1.421c.063-.953-.78-2.734-3.015-2.734-1.985 0-2.906 1.219-2.969 2.25C.5-4.328 1.141-3.61 2.203-3.187c.844.343 1.61.374 2.344.734.5.234.844.625.719 1.156-.125.594-.641.984-1.641.984-1.094 0-1.938-.765-1.938-1.703H.282C.203-.609 1.531 1.031 3.625 1.031c1.938 0 3.063-1.11 3.172-2.343.094-1.016-.5-1.797-1.266-2.204zm0 0"/></symbol><symbol overflow="visible" id="az"><path d="M5.813.797V-5.22H4.359v3.313c0 .922-.468 1.515-1.265 1.515-.75 0-1-.468-1-1.406v-3.422H.64v4.063C.64-.141 1.17.875 2.406.969A2.523 2.523 0 0 0 4.36.234v.563zm0 0"/></symbol><symbol overflow="visible" id="aA"><path d="M6.266.797v-8.281H4.828l.016 2.828a2.57 2.57 0 0 0-1.89-.782c-1.642 0-2.657 1.344-2.657 3.22C.297-.36 1.313 1 2.953 1c.75 0 1.375-.281 1.89-.797l-.015.594zm-2.954-1c-1.03 0-1.578-.844-1.578-2.016 0-1.187.547-2 1.579-2 1.03 0 1.578.813 1.578 2 0 1.172-.547 2.016-1.579 2.016zm0 0"/></symbol><symbol overflow="visible" id="aB"><path d="M6.172.797A2.789 2.789 0 0 1 5.969-.22v-3.297c0-1.25-1.266-1.937-2.75-1.937-1.531 0-2.797.984-2.672 2.234H1.89c-.032-.547.578-1 1.328-1 .812 0 1.297.266 1.297.672 0 .438-.485.563-.86.625-.437.11-1.187.156-1.86.375C.907-2.25.188-1.5.329-.469.468.641 1.422 1.078 2.547.953 3.28.875 4.125.47 4.516.063c.03.328.125.609.187.718zM4.516-1.688c0 .532-.735 1.016-1.329 1.22-.468.171-1.203.327-1.359-.173-.14-.375.125-.593.547-.765.344-.14.984-.235 1.469-.344.203-.063.484-.14.672-.297zm0 0"/></symbol><symbol overflow="visible" id="aC"><path d="M7.125.453l.016-7.016h-.829L3.892-.313l-2.422-6.25H.625V.454h.688v-5.61L3.469.454h.828l2.156-5.61v5.61zm0 0"/></symbol><symbol overflow="visible" id="aD"><path d="M1.688 1.078V0H.563v1.078zm0 0"/></symbol><symbol overflow="visible" id="aE"><path d="M2.953-6.563H.625V.484h2.328c2 0 3.281-1.515 3.281-3.53 0-2-1.28-3.517-3.28-3.517zm-.14 6.438h-1.5v-5.828h1.5c1.765 0 2.671 1.266 2.671 2.906 0 1.563-.906 2.922-2.671 2.922zm0 0"/></symbol><symbol overflow="visible" id="aF"><path d="M1.688 0H.563v.953h.625c0 .219-.25.5-.61.531l.266.329c.187-.079.422-.172.594-.407a1.12 1.12 0 0 0 .25-.718zm0 0"/></symbol><symbol overflow="visible" id="aH"><path d="M3.547-6.563H.625V.47h.688v-2.844h2.234c1.36 0 2.375-.828 2.375-2.078 0-1.281-1.016-2.11-2.375-2.11zm0 3.579H1.312v-2.97h2.235c.86 0 1.656.454 1.656 1.5 0 1-.797 1.47-1.656 1.47zm0 0"/></symbol><symbol overflow="visible" id="aI"><path d="M5.016.453v-3.437c0-.891-.61-1.766-1.688-1.829-.953-.062-1.578.375-2.015.875v-2.624H.625V.452h.688v-3.14c0-.688.703-1.47 1.656-1.47.844 0 1.36.5 1.36 1.423V.453zm0 0"/></symbol><symbol overflow="visible" id="aJ"><path d="M2.578 1.781C1.563.047 1.141-1.516 1.141-2.984c0-1.485.421-3.032 1.437-4.782h-.5c-.64.97-1.687 2.61-1.687 4.782C.39-.813 1.437.812 2.078 1.78zm0 0"/></symbol><symbol overflow="visible" id="aK"><path d="M6.484.453L3.125-3.578a41.817 41.817 0 0 0 2.781-2.985h-.89a42.633 42.633 0 0 1-3.704 3.797v-3.78H.625v7h.688V-1.86c.234-.204.765-.688 1.312-1.22L5.641.454zm0 0"/></symbol><symbol overflow="visible" id="aL"><path d="M4.86.484v-5.109h-.657v3.11c0 .796-.703 1.5-1.656 1.53-.844.016-1.39-.5-1.39-1.437v-3.203H.5l-.016 3.39c0 1.188.86 1.891 1.813 1.891.89 0 1.5-.406 1.906-.953v.781zm0 0"/></symbol><symbol overflow="visible" id="aM"><path d="M7.344.453v-3.5c0-.844-.407-1.719-1.407-1.765-1.03-.063-1.593.625-1.796.906-.204-.5-.657-.875-1.235-.906-.781-.032-1.281.375-1.625.812v-.625H.594V.453h.687v-3.187c0-.813.516-1.438 1.297-1.454.797-.015 1.063.516 1.063 1.36L3.656.453h.656v-3.187c0-.844.532-1.438 1.313-1.454.781-.015 1.047.516 1.047 1.36V.453zm0 0"/></symbol><symbol overflow="visible" id="aN"><path d="M5.063.484a2.484 2.484 0 0 1-.141-.828v-2.781c0-1.078-1.016-1.703-2.219-1.703-1.25 0-2.297.672-2.203 1.687h.656c-.031-.656.578-1.093 1.547-1.093 1.031 0 1.5.546 1.5 1.078 0 .469-.5.578-.828.64-.625.11-1.39.11-1.984.282C.656-2.016.094-1.516.187-.625c.094.89.938 1.328 2 1.266.829-.047 1.61-.516 2.016-.97.016.345.094.673.172.813zm-.86-1.828c0 .64-.969 1.344-1.937 1.422C1.546.125.922-.125.875-.734c-.031-.532.328-.891 1.031-1.079.313-.078 1.266-.156 1.688-.25.219-.03.453-.14.61-.25zm0 0"/></symbol><symbol overflow="visible" id="aO"><path d="M2.734-4.813c-1.546 0-2.5 1.172-2.5 2.735 0 1.531.954 2.734 2.5 2.734 1.547 0 2.5-1.203 2.5-2.734 0-1.563-.953-2.735-2.5-2.735zm0 4.875C1.672.063.97-.859.97-2.078c0-1.235.703-2.125 1.765-2.125 1.063 0 1.782.89 1.782 2.125 0 1.219-.72 2.14-1.782 2.14zm0 0"/></symbol><symbol overflow="visible" id="aP"><path d="M2.14-4.094v-.562h-.734v-1.578H.72v1.578h-.64v.562h.64v3.375c0 .406.015.61.172.813.14.203.375.375.671.375h.532v-.547c-.14 0-.406 0-.547-.14-.172-.157-.14-.313-.14-.579v-3.297zm0 0"/></symbol><symbol overflow="visible" id="aQ"><path d="M5.844-6.547h-.688v4.734c0 1-.64 1.844-2 1.844-1.36 0-1.984-.844-1.984-1.843v-4.735H.5L.484-1.703c0 1.281.954 2.36 2.672 2.36 1.719 0 2.688-1.079 2.688-2.36zm0 0"/></symbol><symbol overflow="visible" id="aR"><path d="M5.016.453v-3.437c0-.891-.61-1.766-1.688-1.829-.953-.062-1.578.36-2.015.875v-.687H.625V.453h.688v-3.11c0-.734.703-1.5 1.656-1.5.844 0 1.36.5 1.36 1.423V.453zm0 0"/></symbol><symbol overflow="visible" id="aS"><path d="M1.344-5.813v-.78h-.75v.78zM1.312.454v-5.187H.625V.453zm0 0"/></symbol><symbol overflow="visible" id="aT"><path d="M5.047-4.625h-.719L2.547-.328.78-4.625H.062L2.172.453h.781zm0 0"/></symbol><symbol overflow="visible" id="aU"><path d="M5.219-1.922c.047-1.906-1.125-2.89-2.5-2.89-1.5 0-2.485 1.187-2.485 2.734C.234-.547 1.25.656 2.734.656c1.375 0 2.032-.86 2.282-1.547h-.75c-.172.485-.641.954-1.547.954-.86 0-1.735-.797-1.766-1.97zM.984-2.469c.063-1.062.797-1.75 1.735-1.75.969 0 1.719.703 1.765 1.75zm0 0"/></symbol><symbol overflow="visible" id="aV"><path d="M3.203-4.797c-.219 0-.64.047-.969.203-.375.188-.671.438-.859.782l-.063-.016v-.797H.625V.453h.688v-2.656c0-.89.296-1.375.89-1.719.313-.172.703-.203 1-.203zm0 0"/></symbol><symbol overflow="visible" id="aW"><path d="M3.578-2.156c-.453-.219-1.125-.281-1.594-.422-.359-.125-.953-.313-.921-.844.03-.515.484-.844 1.296-.844.97 0 1.375.579 1.375 1.032h.672c.047-.672-.61-1.641-2.015-1.641-1.282 0-1.954.734-2 1.469-.032.672.5 1.062 1.078 1.25.437.156 1.11.234 1.625.453.469.187.86.437.781.906-.094.563-.719.86-1.438.86C1.579.063.845-.376.845-1.125H.156C.156-.437.703.703 2.47.672 3.688.656 4.484-.047 4.563-.875c.078-.703-.5-1.047-.985-1.281zm0 0"/></symbol><symbol overflow="visible" id="aX"><path d="M4.969-4.625H4.28L2.563-.547.796-4.625H.094L2.204.313l-.298.671c-.093.25-.265.47-.578.454H.953V2h.281c.297 0 .5-.031.75-.156.25-.14.422-.422.547-.75zm0 0"/></symbol><symbol overflow="visible" id="aY"><path d="M3.922-6.547h-.688l.016 5.281c0 1-.734 1.297-1.313 1.297-.546 0-1.25-.297-1.265-1.297l-.016-.5h-.672v.563C.016.063.906.657 1.938.657c1.046 0 1.984-.61 1.984-1.86zm0 0"/></symbol><symbol overflow="visible" id="aZ"><path d="M6.61.453L3.655-6.563h-.781L-.094.484h.719l.797-1.906h3.687L5.922.453zM4.874-2.03H1.672l1.594-3.797zm0 0"/></symbol><symbol overflow="visible" id="ba"><path d="M6.094.453v-7h-.688V-.5L1.422-6.563H.625V.454h.688v-6.047L5.265.453zm0 0"/></symbol><symbol overflow="visible" id="bb"><path d="M.781-7.766h-.5C1.297-6.016 1.72-4.469 1.72-2.984c0 1.468-.422 3.03-1.438 4.765h.5C1.421.813 2.47-.812 2.47-2.984c0-2.172-1.047-3.813-1.688-4.782zm0 0"/></symbol><symbol overflow="visible" id="bc"><path d="M3.734-5.328H1.578L.797-2.641a1.88 1.88 0 0 1 .469-.234c.203-.078.375-.11.609-.11.25 0 .594.047.86.282.156.172.312.437.312.875 0 .453-.188.734-.344.906-.125.125-.375.297-.797.297a1.32 1.32 0 0 1-.687-.188 1.191 1.191 0 0 1-.39-.468l-.61.515c.25.375.547.563.625.61.328.203.687.25 1 .25.531 0 1.031-.14 1.453-.547.344-.36.531-.828.531-1.422 0-.688-.265-1.11-.515-1.36-.313-.328-.766-.484-1.204-.484-.078 0-.171.016-.25.016l.266-.875h1.61zm0 0"/></symbol><symbol overflow="visible" id="bd"><path d="M2.734-5.516L1.281-3.609c-.234.312-.437.546-.64.953a2.17 2.17 0 0 0-.25 1.015c0 .516.187.907.453 1.204.406.421.89.53 1.36.53.343 0 .905-.062 1.343-.515.344-.344.515-.86.515-1.344 0-.484-.187-.937-.468-1.25C3.39-3.234 3-3.5 2.39-3.5c-.11 0-.204 0-.329.031l1.25-1.61zm-.5 2.704c.266 0 .563.109.735.296.203.204.312.532.312.797 0 .266-.11.594-.312.797a1.097 1.097 0 0 1-.735.297c-.28 0-.593-.14-.75-.297-.203-.203-.312-.531-.312-.797 0-.343.14-.625.312-.797.188-.187.485-.296.75-.296zm0 0"/></symbol></defs><g fill="#231f20"><use xlink:href="#a" x="43.403" y="194.051"/><use xlink:href="#b" x="52.952" y="194.051"/><use xlink:href="#c" x="61.812" y="194.051"/><use xlink:href="#d" x="66.371" y="194.051"/><use xlink:href="#e" x="71.569" y="194.051"/><use xlink:href="#f" x="77.119" y="194.051"/><use xlink:href="#b" x="83.324" y="194.051"/><use xlink:href="#g" x="92.185" y="194.051"/><use xlink:href="#b" x="101.957" y="194.051"/><use xlink:href="#h" x="110.818" y="194.051"/><use xlink:href="#i" x="123.645" y="194.051"/><use xlink:href="#c" x="132.666" y="194.051"/><use xlink:href="#j" x="137.224" y="194.051"/><use xlink:href="#k" x="140.807" y="194.051"/><use xlink:href="#l" x="150.515" y="194.051"/><use xlink:href="#m" x="158.656" y="194.051"/><use xlink:href="#n" x="164.686" y="194.051"/><use xlink:href="#o" x="169.084" y="194.051"/><use xlink:href="#n" x="177.417" y="194.051"/><use xlink:href="#m" x="181.815" y="194.051"/><use xlink:href="#p" x="187.845" y="194.051"/><use xlink:href="#j" x="196.178" y="194.051"/><use xlink:href="#q" x="199.76" y="194.051"/><use xlink:href="#d" x="209.453" y="194.051"/><use xlink:href="#j" x="214.651" y="194.051"/><use xlink:href="#r" x="218.233" y="194.051"/><use xlink:href="#b" x="229.877" y="194.051"/><use xlink:href="#s" x="238.738" y="194.051"/><use xlink:href="#i" x="253.548" y="194.051"/><use xlink:href="#m" x="262.569" y="194.051"/><use xlink:href="#q" x="268.598" y="194.051"/><use xlink:href="#t" x="278.291" y="194.051"/><use xlink:href="#q" x="288.207" y="194.051"/><use xlink:href="#n" x="297.899" y="194.051"/><use xlink:href="#b" x="302.298" y="194.051"/><use xlink:href="#m" x="311.158" y="194.051"/><use xlink:href="#n" x="317.188" y="194.051"/><use xlink:href="#l" x="321.586" y="194.051"/></g><g fill="#231f20"><use xlink:href="#a" x="43.403" y="213.244"/><use xlink:href="#m" x="52.952" y="213.244"/><use xlink:href="#b" x="58.982" y="213.244"/><use xlink:href="#s" x="67.842" y="213.244"/><use xlink:href="#j" x="82.653" y="213.244"/><use xlink:href="#u" x="86.235" y="213.244"/><use xlink:href="#b" x="96.439" y="213.244"/><use xlink:href="#c" x="105.3" y="213.244"/><use xlink:href="#c" x="109.858" y="213.244"/><use xlink:href="#v" x="114.417" y="213.244"/></g><g fill="#231f20"><use xlink:href="#w" x="36.275" y="354.604"/><use xlink:href="#x" x="42.313" y="354.604"/><use xlink:href="#y" x="45.082" y="354.604"/><use xlink:href="#y" x="49.8" y="354.604"/><use xlink:href="#z" x="54.518" y="354.604"/><use xlink:href="#A" x="60.616" y="354.604"/><use xlink:href="#B" x="66.194" y="354.604"/><use xlink:href="#y" x="68.613" y="354.604"/><use xlink:href="#C" x="73.331" y="354.604"/><use xlink:href="#A" x="77.05" y="354.604"/><use xlink:href="#D" x="82.628" y="354.604"/><use xlink:href="#B" x="91.864" y="354.604"/><use xlink:href="#E" x="94.283" y="354.604"/><use xlink:href="#A" x="99.471" y="354.604"/><use xlink:href="#F" x="105.049" y="354.604"/><use xlink:href="#F" x="107.918" y="354.604"/><use xlink:href="#y" x="110.787" y="354.604"/><use xlink:href="#B" x="115.505" y="354.604"/><use xlink:href="#G" x="117.924" y="354.604"/><use xlink:href="#H" x="123.592" y="354.604"/><use xlink:href="#A" x="127.381" y="354.604"/><use xlink:href="#B" x="132.959" y="354.604"/><use xlink:href="#E" x="135.378" y="354.604"/><use xlink:href="#G" x="140.566" y="354.604"/><use xlink:href="#I" x="146.234" y="354.604"/><use xlink:href="#G" x="152.481" y="354.604"/><use xlink:href="#J" x="158.149" y="354.604"/><use xlink:href="#F" x="164.377" y="354.604"/><use xlink:href="#A" x="167.246" y="354.604"/><use xlink:href="#B" x="172.824" y="354.604"/><use xlink:href="#K" x="175.243" y="354.604"/><use xlink:href="#L" x="181.38" y="354.604"/><use xlink:href="#B" x="184.559" y="354.604"/><use xlink:href="#y" x="186.978" y="354.604"/><use xlink:href="#A" x="191.697" y="354.604"/><use xlink:href="#F" x="197.274" y="354.604"/><use xlink:href="#L" x="200.143" y="354.604"/><use xlink:href="#M" x="203.322" y="354.604"/><use xlink:href="#H" x="206.851" y="354.604"/><use xlink:href="#A" x="210.639" y="354.604"/><use xlink:href="#N" x="216.217" y="354.604"/><use xlink:href="#A" x="222.345" y="354.604"/><use xlink:href="#O" x="227.923" y="354.604"/><use xlink:href="#G" x="235.78" y="354.604"/><use xlink:href="#F" x="241.448" y="354.604"/><use xlink:href="#B" x="244.317" y="354.604"/><use xlink:href="#G" x="246.736" y="354.604"/><use xlink:href="#N" x="252.404" y="354.604"/><use xlink:href="#P" x="258.531" y="354.604"/><use xlink:href="#B" x="264.779" y="354.604"/><use xlink:href="#D" x="267.198" y="354.604"/><use xlink:href="#z" x="276.435" y="354.604"/><use xlink:href="#F" x="282.532" y="354.604"/><use xlink:href="#C" x="285.401" y="354.604"/><use xlink:href="#x" x="289.12" y="354.604"/><use xlink:href="#M" x="291.889" y="354.604"/><use xlink:href="#F" x="295.417" y="354.604"/><use xlink:href="#x" x="298.286" y="354.604"/><use xlink:href="#N" x="301.055" y="354.604"/><use xlink:href="#A" x="307.183" y="354.604"/><use xlink:href="#G" x="312.761" y="354.604"/><use xlink:href="#Q" x="318.429" y="354.604"/><use xlink:href="#A" x="324.057" y="354.604"/></g><g fill="#231f20"><use xlink:href="#B" x="329.634" y="354.604"/><use xlink:href="#P" x="332.053" y="354.604"/><use xlink:href="#x" x="338.301" y="354.604"/><use xlink:href="#R" x="341.07" y="354.604"/><use xlink:href="#A" x="347.248" y="354.604"/><use xlink:href="#H" x="352.826" y="354.604"/><use xlink:href="#A" x="356.614" y="354.604"/><use xlink:href="#N" x="362.192" y="354.604"/><use xlink:href="#C" x="368.32" y="354.604"/><use xlink:href="#x" x="372.038" y="354.604"/><use xlink:href="#G" x="374.807" y="354.604"/><use xlink:href="#C" x="380.475" y="354.604"/><use xlink:href="#x" x="384.194" y="354.604"/><use xlink:href="#K" x="386.963" y="354.604"/><use xlink:href="#N" x="393.1" y="354.604"/><use xlink:href="#S" x="399.228" y="354.604"/><use xlink:href="#B" x="401.927" y="354.604"/><use xlink:href="#w" x="404.346" y="354.604"/><use xlink:href="#T" x="410.384" y="354.604"/><use xlink:href="#A" x="416.472" y="354.604"/><use xlink:href="#B" x="422.049" y="354.604"/><use xlink:href="#L" x="424.469" y="354.604"/><use xlink:href="#G" x="427.647" y="354.604"/><use xlink:href="#C" x="433.315" y="354.604"/><use xlink:href="#A" x="437.034" y="354.604"/><use xlink:href="#B" x="442.612" y="354.604"/><use xlink:href="#K" x="445.031" y="354.604"/><use xlink:href="#L" x="451.168" y="354.604"/><use xlink:href="#B" x="454.347" y="354.604"/><use xlink:href="#T" x="456.766" y="354.604"/><use xlink:href="#A" x="462.854" y="354.604"/><use xlink:href="#D" x="468.432" y="354.604"/><use xlink:href="#G" x="477.668" y="354.604"/><use xlink:href="#C" x="483.336" y="354.604"/><use xlink:href="#K" x="487.055" y="354.604"/><use xlink:href="#I" x="493.193" y="354.604"/><use xlink:href="#K" x="499.44" y="354.604"/><use xlink:href="#x" x="505.578" y="354.604"/><use xlink:href="#A" x="508.347" y="354.604"/><use xlink:href="#C" x="513.925" y="354.604"/><use xlink:href="#x" x="517.643" y="354.604"/><use xlink:href="#E" x="520.412" y="354.604"/><use xlink:href="#B" x="525.6" y="354.604"/><use xlink:href="#y" x="528.019" y="354.604"/><use xlink:href="#C" x="532.738" y="354.604"/><use xlink:href="#A" x="536.456" y="354.604"/><use xlink:href="#D" x="542.034" y="354.604"/></g><g fill="#231f20"><use xlink:href="#E" x="36.275" y="371.597"/><use xlink:href="#A" x="41.463" y="371.597"/><use xlink:href="#F" x="47.041" y="371.597"/><use xlink:href="#F" x="49.91" y="371.597"/><use xlink:href="#y" x="52.779" y="371.597"/><use xlink:href="#B" x="57.497" y="371.597"/></g><g fill="#231f20"><use xlink:href="#U" x="61.606" y="371.597"/><use xlink:href="#V" x="64.954" y="371.597"/><use xlink:href="#W" x="72.252" y="371.597"/><use xlink:href="#X" x="78.249" y="371.597"/><use xlink:href="#y" x="84.717" y="371.597"/><use xlink:href="#Y" x="89.435" y="371.597"/><use xlink:href="#B" x="92.784" y="371.597"/></g><g fill="#231f20"><use xlink:href="#x" x="96.891" y="371.597"/><use xlink:href="#y" x="99.66" y="371.597"/><use xlink:href="#B" x="104.379" y="371.597"/></g><g fill="#231f20"><use xlink:href="#P" x="108.487" y="371.597"/><use xlink:href="#A" x="114.735" y="371.597"/><use xlink:href="#C" x="120.313" y="371.597"/><use xlink:href="#A" x="124.031" y="371.597"/><use xlink:href="#H" x="129.609" y="371.597"/><use xlink:href="#D" x="133.398" y="371.597"/><use xlink:href="#x" x="142.634" y="371.597"/><use xlink:href="#N" x="145.403" y="371.597"/><use xlink:href="#A" x="151.531" y="371.597"/><use xlink:href="#P" x="157.109" y="371.597"/><use xlink:href="#B" x="163.356" y="371.597"/></g><g fill="#231f20"><use xlink:href="#J" x="167.464" y="371.597"/><use xlink:href="#Z" x="173.691" y="371.597"/><use xlink:href="#B" x="178.789" y="371.597"/></g><g fill="#231f20"><use xlink:href="#C" x="182.897" y="371.597"/><use xlink:href="#T" x="186.615" y="371.597"/><use xlink:href="#A" x="192.703" y="371.597"/><use xlink:href="#B" x="198.281" y="371.597"/></g><g fill="#231f20"><use xlink:href="#x" x="202.388" y="371.597"/><use xlink:href="#N" x="205.157" y="371.597"/><use xlink:href="#C" x="211.285" y="371.597"/><use xlink:href="#H" x="215.004" y="371.597"/><use xlink:href="#x" x="218.792" y="371.597"/><use xlink:href="#N" x="221.561" y="371.597"/><use xlink:href="#y" x="227.689" y="371.597"/><use xlink:href="#x" x="232.407" y="371.597"/><use xlink:href="#E" x="235.176" y="371.597"/><use xlink:href="#B" x="240.364" y="371.597"/></g><g fill="#231f20"><use xlink:href="#E" x="244.472" y="371.597"/><use xlink:href="#A" x="249.66" y="371.597"/><use xlink:href="#F" x="255.238" y="371.597"/><use xlink:href="#F" x="258.106" y="371.597"/><use xlink:href="#B" x="260.975" y="371.597"/></g><g fill="#231f20"><use xlink:href="#I" x="265.083" y="371.597"/><use xlink:href="#H" x="271.33" y="371.597"/><use xlink:href="#K" x="275.119" y="371.597"/><use xlink:href="#Q" x="281.257" y="371.597"/><use xlink:href="#H" x="286.885" y="371.597"/><use xlink:href="#G" x="290.673" y="371.597"/><use xlink:href="#D" x="296.341" y="371.597"/><use xlink:href="#B" x="305.577" y="371.597"/></g><g fill="#231f20"><use xlink:href="#G" x="309.686" y="371.597"/><use xlink:href="#N" x="315.354" y="371.597"/><use xlink:href="#P" x="321.481" y="371.597"/><use xlink:href="#B" x="327.729" y="371.597"/></g><g fill="#231f20"><use xlink:href="#C" x="331.837" y="371.597"/><use xlink:href="#T" x="335.555" y="371.597"/><use xlink:href="#A" x="341.643" y="371.597"/><use xlink:href="#B" x="347.221" y="371.597"/></g><g fill="#231f20"><use xlink:href="#A" x="351.328" y="371.597"/><use xlink:href="#aa" x="356.906" y="371.597"/><use xlink:href="#C" x="361.704" y="371.597"/><use xlink:href="#H" x="365.423" y="371.597"/><use xlink:href="#x" x="369.211" y="371.597"/><use xlink:href="#N" x="371.98" y="371.597"/><use xlink:href="#y" x="378.108" y="371.597"/><use xlink:href="#x" x="382.826" y="371.597"/><use xlink:href="#E" x="385.595" y="371.597"/><use xlink:href="#B" x="390.783" y="371.597"/></g><g fill="#231f20"><use xlink:href="#D" x="394.892" y="371.597"/><use xlink:href="#x" x="404.128" y="371.597"/><use xlink:href="#E" x="406.897" y="371.597"/><use xlink:href="#H" x="412.085" y="371.597"/><use xlink:href="#K" x="415.874" y="371.597"/><use xlink:href="#A" x="422.011" y="371.597"/><use xlink:href="#N" x="427.589" y="371.597"/><use xlink:href="#ab" x="433.717" y="371.597"/><use xlink:href="#x" x="438.805" y="371.597"/><use xlink:href="#H" x="441.574" y="371.597"/><use xlink:href="#K" x="445.363" y="371.597"/><use xlink:href="#N" x="451.5" y="371.597"/><use xlink:href="#D" x="457.628" y="371.597"/><use xlink:href="#A" x="466.865" y="371.597"/><use xlink:href="#N" x="472.442" y="371.597"/><use xlink:href="#C" x="478.57" y="371.597"/><use xlink:href="#B" x="482.289" y="371.597"/></g><g fill="#231f20"><use xlink:href="#U" x="486.396" y="371.597"/><use xlink:href="#N" x="489.745" y="371.597"/><use xlink:href="#x" x="495.873" y="371.597"/><use xlink:href="#E" x="498.642" y="371.597"/><use xlink:href="#T" x="503.83" y="371.597"/><use xlink:href="#A" x="509.917" y="371.597"/><use xlink:href="#Y" x="515.495" y="371.597"/><use xlink:href="#B" x="518.844" y="371.597"/></g><g fill="#231f20"><use xlink:href="#A" x="522.951" y="371.597"/><use xlink:href="#R" x="528.529" y="371.597"/><use xlink:href="#A" x="534.707" y="371.597"/><use xlink:href="#E" x="540.285" y="371.597"/><use xlink:href="#C" x="545.473" y="371.597"/><use xlink:href="#S" x="549.191" y="371.597"/><use xlink:href="#B" x="551.89" y="371.597"/></g><g fill="#231f20"><use xlink:href="#ac" x="36.275" y="388.591"/><use xlink:href="#F" x="42.343" y="388.591"/><use xlink:href="#C" x="45.212" y="388.591"/><use xlink:href="#T" x="48.931" y="388.591"/><use xlink:href="#K" x="55.018" y="388.591"/><use xlink:href="#z" x="61.156" y="388.591"/><use xlink:href="#Q" x="67.254" y="388.591"/><use xlink:href="#T" x="72.881" y="388.591"/><use xlink:href="#B" x="78.969" y="388.591"/></g><g fill="#231f20"><use xlink:href="#y" x="81.295" y="388.591"/><use xlink:href="#A" x="86.013" y="388.591"/><use xlink:href="#F" x="91.591" y="388.591"/><use xlink:href="#L" x="94.46" y="388.591"/><use xlink:href="#M" x="97.639" y="388.591"/><use xlink:href="#H" x="101.168" y="388.591"/><use xlink:href="#A" x="104.956" y="388.591"/><use xlink:href="#N" x="110.534" y="388.591"/><use xlink:href="#A" x="116.662" y="388.591"/><use xlink:href="#O" x="122.24" y="388.591"/><use xlink:href="#G" x="130.097" y="388.591"/><use xlink:href="#F" x="135.765" y="388.591"/><use xlink:href="#B" x="138.634" y="388.591"/></g><g fill="#231f20"><use xlink:href="#x" x="140.96" y="388.591"/><use xlink:href="#y" x="143.729" y="388.591"/><use xlink:href="#B" x="148.447" y="388.591"/></g><g fill="#231f20"><use xlink:href="#A" x="150.773" y="388.591"/><use xlink:href="#y" x="156.351" y="388.591"/><use xlink:href="#y" x="161.069" y="388.591"/><use xlink:href="#A" x="165.787" y="388.591"/><use xlink:href="#N" x="171.365" y="388.591"/><use xlink:href="#C" x="177.493" y="388.591"/><use xlink:href="#x" x="181.212" y="388.591"/><use xlink:href="#G" x="183.98" y="388.591"/><use xlink:href="#F" x="189.648" y="388.591"/><use xlink:href="#B" x="192.517" y="388.591"/></g><g fill="#231f20"><use xlink:href="#L" x="194.843" y="388.591"/><use xlink:href="#K" x="198.022" y="388.591"/><use xlink:href="#H" x="204.16" y="388.591"/><use xlink:href="#B" x="207.948" y="388.591"/></g><g fill="#231f20"><use xlink:href="#D" x="210.275" y="388.591"/><use xlink:href="#G" x="219.511" y="388.591"/><use xlink:href="#x" x="225.179" y="388.591"/><use xlink:href="#N" x="227.948" y="388.591"/><use xlink:href="#C" x="234.076" y="388.591"/><use xlink:href="#G" x="237.794" y="388.591"/><use xlink:href="#x" x="243.462" y="388.591"/><use xlink:href="#N" x="246.231" y="388.591"/><use xlink:href="#x" x="252.359" y="388.591"/><use xlink:href="#N" x="255.128" y="388.591"/><use xlink:href="#Q" x="261.255" y="388.591"/><use xlink:href="#B" x="266.883" y="388.591"/></g><g fill="#231f20"><use xlink:href="#V" x="269.209" y="388.591"/><use xlink:href="#W" x="276.506" y="388.591"/><use xlink:href="#X" x="282.504" y="388.591"/><use xlink:href="#y" x="288.972" y="388.591"/><use xlink:href="#ad" x="293.69" y="388.591"/><use xlink:href="#B" x="296.389" y="388.591"/></g><g fill="#231f20"><use xlink:href="#C" x="298.715" y="388.591"/><use xlink:href="#T" x="302.434" y="388.591"/><use xlink:href="#A" x="308.521" y="388.591"/><use xlink:href="#B" x="314.099" y="388.591"/></g><g fill="#231f20"><use xlink:href="#D" x="316.425" y="388.591"/><use xlink:href="#A" x="325.662" y="388.591"/><use xlink:href="#E" x="331.24" y="388.591"/><use xlink:href="#T" x="336.428" y="388.591"/><use xlink:href="#G" x="342.516" y="388.591"/><use xlink:href="#N" x="348.183" y="388.591"/><use xlink:href="#x" x="354.311" y="388.591"/><use xlink:href="#y" x="357.08" y="388.591"/><use xlink:href="#D" x="361.798" y="388.591"/><use xlink:href="#B" x="371.035" y="388.591"/></g><g fill="#231f20"><use xlink:href="#K" x="373.361" y="388.591"/><use xlink:href="#L" x="379.499" y="388.591"/><use xlink:href="#B" x="382.677" y="388.591"/></g><g fill="#231f20"><use xlink:href="#C" x="385.003" y="388.591"/><use xlink:href="#T" x="388.722" y="388.591"/><use xlink:href="#A" x="394.81" y="388.591"/><use xlink:href="#B" x="400.388" y="388.591"/></g><g fill="#231f20"><use xlink:href="#I" x="402.714" y="388.591"/><use xlink:href="#H" x="408.961" y="388.591"/><use xlink:href="#K" x="412.75" y="388.591"/><use xlink:href="#E" x="418.888" y="388.591"/><use xlink:href="#A" x="424.076" y="388.591"/><use xlink:href="#y" x="429.654" y="388.591"/><use xlink:href="#y" x="434.372" y="388.591"/><use xlink:href="#B" x="439.09" y="388.591"/></g><g fill="#231f20"><use xlink:href="#T" x="441.416" y="388.591"/><use xlink:href="#G" x="447.504" y="388.591"/><use xlink:href="#y" x="453.172" y="388.591"/><use xlink:href="#B" x="457.89" y="388.591"/></g><g fill="#231f20"><use xlink:href="#N" x="460.216" y="388.591"/><use xlink:href="#K" x="466.344" y="388.591"/><use xlink:href="#C" x="472.481" y="388.591"/><use xlink:href="#B" x="476.2" y="388.591"/></g><g fill="#231f20"><use xlink:href="#J" x="478.526" y="388.591"/><use xlink:href="#A" x="484.754" y="388.591"/><use xlink:href="#A" x="490.332" y="388.591"/><use xlink:href="#N" x="495.91" y="388.591"/><use xlink:href="#B" x="502.037" y="388.591"/></g><g fill="#231f20"><use xlink:href="#O" x="504.363" y="388.591"/><use xlink:href="#A" x="512.22" y="388.591"/><use xlink:href="#F" x="517.798" y="388.591"/><use xlink:href="#F" x="520.667" y="388.591"/><use xlink:href="#B" x="523.536" y="388.591"/></g><g fill="#231f20"><use xlink:href="#A" x="525.862" y="388.591"/><use xlink:href="#F" x="531.44" y="388.591"/><use xlink:href="#z" x="534.309" y="388.591"/><use xlink:href="#E" x="540.407" y="388.591"/><use xlink:href="#x" x="545.595" y="388.591"/></g><use xlink:href="#M" x="548.364" y="388.591" fill="#231f20"/><g fill="#231f20"><use xlink:href="#P" x="36.275" y="405.584"/><use xlink:href="#G" x="42.523" y="405.584"/><use xlink:href="#C" x="48.191" y="405.584"/><use xlink:href="#A" x="51.909" y="405.584"/><use xlink:href="#P" x="57.487" y="405.584"/><use xlink:href="#S" x="63.735" y="405.584"/><use xlink:href="#B" x="66.434" y="405.584"/></g><g fill="#231f20"><use xlink:href="#ae" x="69.742" y="405.584"/><use xlink:href="#A" x="78.508" y="405.584"/><use xlink:href="#B" x="84.086" y="405.584"/></g><g fill="#231f20"><use xlink:href="#T" x="87.395" y="405.584"/><use xlink:href="#G" x="93.483" y="405.584"/><use xlink:href="#ab" x="99.151" y="405.584"/><use xlink:href="#A" x="104.239" y="405.584"/><use xlink:href="#B" x="109.816" y="405.584"/></g><g fill="#231f20"><use xlink:href="#I" x="113.124" y="405.584"/><use xlink:href="#H" x="119.372" y="405.584"/><use xlink:href="#A" x="123.16" y="405.584"/><use xlink:href="#ab" x="128.738" y="405.584"/><use xlink:href="#x" x="133.826" y="405.584"/><use xlink:href="#K" x="136.595" y="405.584"/><use xlink:href="#z" x="142.733" y="405.584"/><use xlink:href="#y" x="148.831" y="405.584"/><use xlink:href="#F" x="153.549" y="405.584"/><use xlink:href="#Z" x="156.418" y="405.584"/><use xlink:href="#B" x="161.516" y="405.584"/></g><g fill="#231f20"><use xlink:href="#P" x="164.825" y="405.584"/><use xlink:href="#A" x="171.072" y="405.584"/><use xlink:href="#F" x="176.65" y="405.584"/><use xlink:href="#x" x="179.519" y="405.584"/><use xlink:href="#N" x="182.288" y="405.584"/><use xlink:href="#A" x="188.416" y="405.584"/><use xlink:href="#G" x="193.994" y="405.584"/><use xlink:href="#C" x="199.662" y="405.584"/><use xlink:href="#A" x="203.38" y="405.584"/><use xlink:href="#P" x="208.958" y="405.584"/><use xlink:href="#B" x="215.206" y="405.584"/></g><g fill="#231f20"><use xlink:href="#C" x="218.513" y="405.584"/><use xlink:href="#T" x="222.232" y="405.584"/><use xlink:href="#G" x="228.32" y="405.584"/><use xlink:href="#C" x="233.988" y="405.584"/><use xlink:href="#B" x="237.706" y="405.584"/></g><g fill="#231f20"><use xlink:href="#K" x="241.015" y="405.584"/><use xlink:href="#aa" x="247.153" y="405.584"/><use xlink:href="#x" x="251.951" y="405.584"/><use xlink:href="#P" x="254.72" y="405.584"/><use xlink:href="#G" x="260.967" y="405.584"/><use xlink:href="#C" x="266.635" y="405.584"/><use xlink:href="#x" x="270.354" y="405.584"/><use xlink:href="#ab" x="273.123" y="405.584"/><use xlink:href="#A" x="278.211" y="405.584"/><use xlink:href="#B" x="283.789" y="405.584"/></g><g fill="#231f20"><use xlink:href="#y" x="287.097" y="405.584"/><use xlink:href="#C" x="291.816" y="405.584"/><use xlink:href="#H" x="295.534" y="405.584"/><use xlink:href="#A" x="299.323" y="405.584"/><use xlink:href="#y" x="304.901" y="405.584"/><use xlink:href="#y" x="309.619" y="405.584"/><use xlink:href="#B" x="314.337" y="405.584"/></g><g fill="#231f20"><use xlink:href="#U" x="317.645" y="405.584"/><use xlink:href="#af" x="320.994" y="405.584"/><use xlink:href="#ag" x="327.271" y="405.584"/><use xlink:href="#W" x="334.728" y="405.584"/><use xlink:href="#Y" x="340.726" y="405.584"/><use xlink:href="#B" x="344.075" y="405.584"/></g><g fill="#231f20"><use xlink:href="#F" x="347.384" y="405.584"/><use xlink:href="#x" x="350.253" y="405.584"/><use xlink:href="#D" x="353.022" y="405.584"/><use xlink:href="#x" x="362.258" y="405.584"/><use xlink:href="#C" x="365.027" y="405.584"/><use xlink:href="#y" x="368.746" y="405.584"/><use xlink:href="#B" x="373.464" y="405.584"/></g><g fill="#231f20"><use xlink:href="#C" x="376.772" y="405.584"/><use xlink:href="#T" x="380.49" y="405.584"/><use xlink:href="#A" x="386.578" y="405.584"/><use xlink:href="#B" x="392.156" y="405.584"/></g><g fill="#231f20"><use xlink:href="#y" x="395.464" y="405.584"/><use xlink:href="#A" x="400.182" y="405.584"/><use xlink:href="#F" x="405.76" y="405.584"/><use xlink:href="#L" x="408.629" y="405.584"/><use xlink:href="#M" x="411.807" y="405.584"/><use xlink:href="#H" x="415.336" y="405.584"/><use xlink:href="#A" x="419.125" y="405.584"/><use xlink:href="#N" x="424.702" y="405.584"/><use xlink:href="#A" x="430.83" y="405.584"/><use xlink:href="#O" x="436.408" y="405.584"/><use xlink:href="#G" x="444.265" y="405.584"/><use xlink:href="#F" x="449.933" y="405.584"/><use xlink:href="#B" x="452.802" y="405.584"/></g><g fill="#231f20"><use xlink:href="#G" x="456.111" y="405.584"/><use xlink:href="#E" x="461.778" y="405.584"/><use xlink:href="#C" x="466.966" y="405.584"/><use xlink:href="#x" x="470.685" y="405.584"/><use xlink:href="#ab" x="473.454" y="405.584"/><use xlink:href="#x" x="478.542" y="405.584"/><use xlink:href="#C" x="481.311" y="405.584"/><use xlink:href="#Z" x="485.03" y="405.584"/><use xlink:href="#B" x="490.128" y="405.584"/></g><g fill="#231f20"><use xlink:href="#K" x="493.435" y="405.584"/><use xlink:href="#L" x="499.573" y="405.584"/><use xlink:href="#B" x="502.752" y="405.584"/></g><g fill="#231f20"><use xlink:href="#V" x="506.061" y="405.584"/><use xlink:href="#W" x="513.358" y="405.584"/><use xlink:href="#X" x="519.356" y="405.584"/><use xlink:href="#y" x="525.823" y="405.584"/><use xlink:href="#B" x="530.541" y="405.584"/></g><g fill="#231f20"><use xlink:href="#G" x="533.85" y="405.584"/><use xlink:href="#N" x="539.518" y="405.584"/><use xlink:href="#P" x="545.646" y="405.584"/><use xlink:href="#B" x="551.893" y="405.584"/></g><g fill="#231f20"><use xlink:href="#C" x="36.275" y="422.578"/><use xlink:href="#T" x="39.994" y="422.578"/><use xlink:href="#G" x="46.082" y="422.578"/><use xlink:href="#C" x="51.749" y="422.578"/><use xlink:href="#B" x="55.468" y="422.578"/></g><g fill="#231f20"><use xlink:href="#C" x="57.571" y="422.578"/><use xlink:href="#T" x="61.29" y="422.578"/><use xlink:href="#A" x="67.378" y="422.578"/><use xlink:href="#B" x="72.955" y="422.578"/></g><g fill="#231f20"><use xlink:href="#D" x="75.06" y="422.578"/><use xlink:href="#A" x="84.296" y="422.578"/><use xlink:href="#C" x="89.874" y="422.578"/><use xlink:href="#G" x="93.593" y="422.578"/><use xlink:href="#J" x="99.26" y="422.578"/><use xlink:href="#K" x="105.488" y="422.578"/><use xlink:href="#F" x="111.626" y="422.578"/><use xlink:href="#x" x="114.495" y="422.578"/><use xlink:href="#E" x="117.264" y="422.578"/><use xlink:href="#B" x="122.452" y="422.578"/></g><g fill="#231f20"><use xlink:href="#y" x="124.557" y="422.578"/><use xlink:href="#C" x="129.275" y="422.578"/><use xlink:href="#G" x="132.994" y="422.578"/><use xlink:href="#C" x="138.662" y="422.578"/><use xlink:href="#A" x="142.38" y="422.578"/><use xlink:href="#B" x="147.958" y="422.578"/></g><g fill="#231f20"><use xlink:href="#x" x="150.061" y="422.578"/><use xlink:href="#y" x="152.83" y="422.578"/><use xlink:href="#B" x="157.548" y="422.578"/></g><g fill="#231f20"><use xlink:href="#ah" x="159.654" y="422.578"/><use xlink:href="#z" x="165.901" y="422.578"/><use xlink:href="#x" x="171.999" y="422.578"/><use xlink:href="#C" x="174.768" y="422.578"/><use xlink:href="#A" x="178.487" y="422.578"/><use xlink:href="#B" x="184.064" y="422.578"/></g><g fill="#231f20"><use xlink:href="#P" x="186.169" y="422.578"/><use xlink:href="#x" x="192.416" y="422.578"/><use xlink:href="#R" x="195.185" y="422.578"/><use xlink:href="#A" x="201.363" y="422.578"/><use xlink:href="#H" x="206.941" y="422.578"/><use xlink:href="#A" x="210.729" y="422.578"/><use xlink:href="#N" x="216.307" y="422.578"/><use xlink:href="#C" x="222.435" y="422.578"/><use xlink:href="#B" x="226.154" y="422.578"/></g><g fill="#231f20"><use xlink:href="#J" x="228.258" y="422.578"/><use xlink:href="#A" x="234.485" y="422.578"/><use xlink:href="#C" x="240.063" y="422.578"/><use xlink:href="#O" x="243.782" y="422.578"/><use xlink:href="#A" x="251.639" y="422.578"/><use xlink:href="#A" x="257.217" y="422.578"/><use xlink:href="#N" x="262.795" y="422.578"/><use xlink:href="#B" x="268.922" y="422.578"/></g><g fill="#231f20"><use xlink:href="#ah" x="271.027" y="422.578"/><use xlink:href="#z" x="277.274" y="422.578"/><use xlink:href="#x" x="283.372" y="422.578"/><use xlink:href="#A" x="286.141" y="422.578"/><use xlink:href="#y" x="291.719" y="422.578"/><use xlink:href="#E" x="296.437" y="422.578"/><use xlink:href="#A" x="301.625" y="422.578"/><use xlink:href="#N" x="307.203" y="422.578"/><use xlink:href="#C" x="313.331" y="422.578"/><use xlink:href="#B" x="317.049" y="422.578"/></g><g fill="#231f20"><use xlink:href="#U" x="319.153" y="422.578"/><use xlink:href="#y" x="322.502" y="422.578"/><use xlink:href="#A" x="327.22" y="422.578"/><use xlink:href="#F" x="332.798" y="422.578"/><use xlink:href="#L" x="335.667" y="422.578"/><use xlink:href="#M" x="338.846" y="422.578"/><use xlink:href="#H" x="342.375" y="422.578"/><use xlink:href="#A" x="346.163" y="422.578"/><use xlink:href="#N" x="351.741" y="422.578"/><use xlink:href="#A" x="357.869" y="422.578"/><use xlink:href="#O" x="363.447" y="422.578"/><use xlink:href="#x" x="371.304" y="422.578"/><use xlink:href="#N" x="374.073" y="422.578"/><use xlink:href="#Q" x="380.2" y="422.578"/><use xlink:href="#Y" x="385.828" y="422.578"/><use xlink:href="#B" x="389.177" y="422.578"/></g><g fill="#231f20"><use xlink:href="#V" x="391.281" y="422.578"/><use xlink:href="#W" x="398.578" y="422.578"/><use xlink:href="#X" x="404.576" y="422.578"/><use xlink:href="#y" x="411.044" y="422.578"/><use xlink:href="#B" x="415.762" y="422.578"/></g><g fill="#231f20"><use xlink:href="#G" x="417.866" y="422.578"/><use xlink:href="#N" x="423.534" y="422.578"/><use xlink:href="#P" x="429.662" y="422.578"/><use xlink:href="#B" x="435.909" y="422.578"/></g><g fill="#231f20"><use xlink:href="#E" x="438.012" y="422.578"/><use xlink:href="#Z" x="443.2" y="422.578"/><use xlink:href="#E" x="448.299" y="422.578"/><use xlink:href="#F" x="453.487" y="422.578"/><use xlink:href="#x" x="456.356" y="422.578"/><use xlink:href="#N" x="459.124" y="422.578"/><use xlink:href="#Q" x="465.252" y="422.578"/><use xlink:href="#B" x="470.88" y="422.578"/></g><g fill="#231f20"><use xlink:href="#V" x="472.983" y="422.578"/><use xlink:href="#W" x="480.28" y="422.578"/><use xlink:href="#X" x="486.278" y="422.578"/><use xlink:href="#y" x="492.746" y="422.578"/><use xlink:href="#S" x="497.464" y="422.578"/><use xlink:href="#B" x="500.163" y="422.578"/></g><g fill="#231f20"><use xlink:href="#ai" x="502.266" y="422.578"/><use xlink:href="#y" x="508.194" y="422.578"/><use xlink:href="#I" x="512.912" y="422.578"/><use xlink:href="#A" x="519.16" y="422.578"/><use xlink:href="#E" x="524.738" y="422.578"/><use xlink:href="#x" x="529.926" y="422.578"/><use xlink:href="#G" x="532.695" y="422.578"/><use xlink:href="#F" x="538.363" y="422.578"/><use xlink:href="#F" x="541.231" y="422.578"/><use xlink:href="#Z" x="544.1" y="422.578"/><use xlink:href="#ad" x="549.198" y="422.578"/><use xlink:href="#B" x="551.897" y="422.578"/></g><g fill="#231f20"><use xlink:href="#O" x="36.275" y="439.571"/><use xlink:href="#A" x="44.132" y="439.571"/><use xlink:href="#B" x="49.71" y="439.571"/><use xlink:href="#G" x="52.129" y="439.571"/><use xlink:href="#H" x="57.797" y="439.571"/><use xlink:href="#A" x="61.586" y="439.571"/><use xlink:href="#B" x="67.164" y="439.571"/><use xlink:href="#N" x="69.583" y="439.571"/><use xlink:href="#K" x="75.71" y="439.571"/><use xlink:href="#O" x="81.848" y="439.571"/><use xlink:href="#B" x="89.705" y="439.571"/><use xlink:href="#G" x="92.124" y="439.571"/><use xlink:href="#N" x="97.792" y="439.571"/><use xlink:href="#G" x="103.92" y="439.571"/><use xlink:href="#F" x="109.588" y="439.571"/><use xlink:href="#Z" x="112.456" y="439.571"/><use xlink:href="#y" x="117.555" y="439.571"/><use xlink:href="#x" x="122.273" y="439.571"/><use xlink:href="#N" x="125.042" y="439.571"/><use xlink:href="#Q" x="131.169" y="439.571"/><use xlink:href="#B" x="136.797" y="439.571"/><use xlink:href="#C" x="139.216" y="439.571"/><use xlink:href="#T" x="142.935" y="439.571"/><use xlink:href="#A" x="149.023" y="439.571"/><use xlink:href="#B" x="154.601" y="439.571"/><use xlink:href="#D" x="157.02" y="439.571"/><use xlink:href="#x" x="166.256" y="439.571"/><use xlink:href="#C" x="169.025" y="439.571"/><use xlink:href="#K" x="172.744" y="439.571"/><use xlink:href="#E" x="178.881" y="439.571"/><use xlink:href="#T" x="184.069" y="439.571"/><use xlink:href="#K" x="190.157" y="439.571"/><use xlink:href="#N" x="196.295" y="439.571"/><use xlink:href="#P" x="202.422" y="439.571"/><use xlink:href="#H" x="208.67" y="439.571"/><use xlink:href="#x" x="212.459" y="439.571"/><use xlink:href="#G" x="215.228" y="439.571"/><use xlink:href="#B" x="220.896" y="439.571"/><use xlink:href="#D" x="223.315" y="439.571"/><use xlink:href="#A" x="232.551" y="439.571"/><use xlink:href="#C" x="238.129" y="439.571"/><use xlink:href="#G" x="241.848" y="439.571"/><use xlink:href="#J" x="247.515" y="439.571"/><use xlink:href="#K" x="253.743" y="439.571"/><use xlink:href="#F" x="259.881" y="439.571"/><use xlink:href="#x" x="262.75" y="439.571"/><use xlink:href="#y" x="265.519" y="439.571"/><use xlink:href="#D" x="270.237" y="439.571"/><use xlink:href="#B" x="279.473" y="439.571"/><use xlink:href="#x" x="281.892" y="439.571"/><use xlink:href="#N" x="284.661" y="439.571"/><use xlink:href="#B" x="290.789" y="439.571"/><use xlink:href="#y" x="293.208" y="439.571"/><use xlink:href="#C" x="297.926" y="439.571"/><use xlink:href="#A" x="301.645" y="439.571"/><use xlink:href="#D" x="307.223" y="439.571"/><use xlink:href="#B" x="316.459" y="439.571"/><use xlink:href="#E" x="318.878" y="439.571"/><use xlink:href="#A" x="324.067" y="439.571"/><use xlink:href="#F" x="329.644" y="439.571"/><use xlink:href="#F" x="332.513" y="439.571"/><use xlink:href="#y" x="335.382" y="439.571"/><use xlink:href="#S" x="340.1" y="439.571"/></g><g fill="#231f20"><use xlink:href="#aj" x="36.275" y="456.565"/><use xlink:href="#A" x="41.973" y="456.565"/><use xlink:href="#H" x="47.551" y="456.565"/><use xlink:href="#Z" x="51.34" y="456.565"/><use xlink:href="#B" x="56.438" y="456.565"/></g><g fill="#231f20"><use xlink:href="#H" x="59.467" y="456.565"/><use xlink:href="#A" x="63.255" y="456.565"/><use xlink:href="#E" x="68.833" y="456.565"/><use xlink:href="#A" x="74.021" y="456.565"/><use xlink:href="#N" x="79.599" y="456.565"/><use xlink:href="#C" x="85.727" y="456.565"/><use xlink:href="#F" x="89.445" y="456.565"/><use xlink:href="#Z" x="92.314" y="456.565"/><use xlink:href="#ad" x="97.412" y="456.565"/><use xlink:href="#B" x="100.111" y="456.565"/></g><g fill="#231f20"><use xlink:href="#O" x="103.14" y="456.565"/><use xlink:href="#A" x="110.997" y="456.565"/><use xlink:href="#B" x="116.575" y="456.565"/></g><g fill="#231f20"><use xlink:href="#T" x="119.605" y="456.565"/><use xlink:href="#G" x="125.692" y="456.565"/><use xlink:href="#ab" x="131.36" y="456.565"/><use xlink:href="#A" x="136.448" y="456.565"/><use xlink:href="#B" x="142.026" y="456.565"/></g><g fill="#231f20"><use xlink:href="#E" x="145.054" y="456.565"/><use xlink:href="#F" x="150.242" y="456.565"/><use xlink:href="#G" x="153.111" y="456.565"/><use xlink:href="#H" x="158.779" y="456.565"/><use xlink:href="#x" x="162.568" y="456.565"/><use xlink:href="#ak" x="165.337" y="456.565"/><use xlink:href="#A" x="171.284" y="456.565"/><use xlink:href="#P" x="176.862" y="456.565"/><use xlink:href="#B" x="183.11" y="456.565"/></g><g fill="#231f20"><use xlink:href="#C" x="186.139" y="456.565"/><use xlink:href="#T" x="189.857" y="456.565"/><use xlink:href="#G" x="195.945" y="456.565"/><use xlink:href="#C" x="201.613" y="456.565"/><use xlink:href="#B" x="205.331" y="456.565"/></g><g fill="#231f20"><use xlink:href="#x" x="208.36" y="456.565"/><use xlink:href="#N" x="211.129" y="456.565"/><use xlink:href="#B" x="217.257" y="456.565"/></g><g fill="#231f20"><use xlink:href="#C" x="220.286" y="456.565"/><use xlink:href="#T" x="224.004" y="456.565"/><use xlink:href="#A" x="230.092" y="456.565"/><use xlink:href="#B" x="235.67" y="456.565"/></g><g fill="#231f20"><use xlink:href="#I" x="238.699" y="456.565"/><use xlink:href="#A" x="244.946" y="456.565"/><use xlink:href="#H" x="250.524" y="456.565"/><use xlink:href="#x" x="254.313" y="456.565"/><use xlink:href="#K" x="257.082" y="456.565"/><use xlink:href="#P" x="263.22" y="456.565"/><use xlink:href="#B" x="269.467" y="456.565"/></g><g fill="#231f20"><use xlink:href="#K" x="272.496" y="456.565"/><use xlink:href="#L" x="278.634" y="456.565"/><use xlink:href="#B" x="281.812" y="456.565"/></g><g fill="#231f20"><use xlink:href="#V" x="284.84" y="456.565"/><use xlink:href="#W" x="292.138" y="456.565"/><use xlink:href="#X" x="298.135" y="456.565"/><use xlink:href="#B" x="304.603" y="456.565"/></g><g fill="#231f20"><use xlink:href="#L" x="307.633" y="456.565"/><use xlink:href="#K" x="310.812" y="456.565"/><use xlink:href="#H" x="316.949" y="456.565"/><use xlink:href="#D" x="320.738" y="456.565"/><use xlink:href="#G" x="329.974" y="456.565"/><use xlink:href="#C" x="335.642" y="456.565"/><use xlink:href="#x" x="339.361" y="456.565"/><use xlink:href="#K" x="342.13" y="456.565"/><use xlink:href="#N" x="348.267" y="456.565"/><use xlink:href="#ad" x="354.395" y="456.565"/><use xlink:href="#B" x="357.094" y="456.565"/></g><g fill="#231f20"><use xlink:href="#C" x="360.122" y="456.565"/><use xlink:href="#T" x="363.84" y="456.565"/><use xlink:href="#A" x="369.928" y="456.565"/><use xlink:href="#Z" x="375.506" y="456.565"/><use xlink:href="#B" x="380.604" y="456.565"/></g><g fill="#231f20"><use xlink:href="#y" x="383.632" y="456.565"/><use xlink:href="#T" x="388.35" y="456.565"/><use xlink:href="#K" x="394.438" y="456.565"/><use xlink:href="#O" x="400.576" y="456.565"/><use xlink:href="#B" x="408.433" y="456.565"/></g><g fill="#231f20"><use xlink:href="#C" x="411.461" y="456.565"/><use xlink:href="#T" x="415.18" y="456.565"/><use xlink:href="#A" x="421.268" y="456.565"/><use xlink:href="#B" x="426.846" y="456.565"/></g><g fill="#231f20"><use xlink:href="#I" x="429.876" y="456.565"/><use xlink:href="#H" x="436.123" y="456.565"/><use xlink:href="#A" x="439.912" y="456.565"/><use xlink:href="#P" x="445.49" y="456.565"/><use xlink:href="#K" x="451.737" y="456.565"/><use xlink:href="#D" x="457.875" y="456.565"/><use xlink:href="#x" x="467.111" y="456.565"/><use xlink:href="#N" x="469.88" y="456.565"/><use xlink:href="#G" x="476.008" y="456.565"/><use xlink:href="#N" x="481.676" y="456.565"/><use xlink:href="#C" x="487.804" y="456.565"/><use xlink:href="#B" x="491.522" y="456.565"/></g><g fill="#231f20"><use xlink:href="#y" x="494.551" y="456.565"/><use xlink:href="#A" x="499.269" y="456.565"/><use xlink:href="#F" x="504.847" y="456.565"/><use xlink:href="#L" x="507.716" y="456.565"/><use xlink:href="#M" x="510.895" y="456.565"/><use xlink:href="#H" x="514.424" y="456.565"/><use xlink:href="#A" x="518.212" y="456.565"/><use xlink:href="#N" x="523.79" y="456.565"/><use xlink:href="#A" x="529.918" y="456.565"/><use xlink:href="#O" x="535.496" y="456.565"/><use xlink:href="#G" x="543.353" y="456.565"/><use xlink:href="#F" x="549.02" y="456.565"/><use xlink:href="#B" x="551.889" y="456.565"/></g><g fill="#231f20"><use xlink:href="#E" x="36.275" y="473.559"/><use xlink:href="#G" x="41.463" y="473.559"/><use xlink:href="#I" x="47.131" y="473.559"/><use xlink:href="#G" x="53.379" y="473.559"/><use xlink:href="#E" x="59.047" y="473.559"/><use xlink:href="#x" x="64.235" y="473.559"/><use xlink:href="#C" x="67.004" y="473.559"/><use xlink:href="#Z" x="70.722" y="473.559"/><use xlink:href="#B" x="75.82" y="473.559"/></g><g fill="#231f20"><use xlink:href="#D" x="78.407" y="473.559"/><use xlink:href="#K" x="87.644" y="473.559"/><use xlink:href="#H" x="93.782" y="473.559"/><use xlink:href="#A" x="97.57" y="473.559"/><use xlink:href="#B" x="103.148" y="473.559"/></g><g fill="#231f20"><use xlink:href="#C" x="105.735" y="473.559"/><use xlink:href="#T" x="109.454" y="473.559"/><use xlink:href="#G" x="115.541" y="473.559"/><use xlink:href="#N" x="121.209" y="473.559"/><use xlink:href="#B" x="127.337" y="473.559"/></g><g fill="#231f20"><use xlink:href="#P" x="129.924" y="473.559"/><use xlink:href="#x" x="136.172" y="473.559"/><use xlink:href="#R" x="138.94" y="473.559"/><use xlink:href="#A" x="145.118" y="473.559"/><use xlink:href="#H" x="150.696" y="473.559"/><use xlink:href="#A" x="154.485" y="473.559"/><use xlink:href="#N" x="160.062" y="473.559"/><use xlink:href="#C" x="166.19" y="473.559"/><use xlink:href="#x" x="169.909" y="473.559"/><use xlink:href="#G" x="172.678" y="473.559"/><use xlink:href="#C" x="178.346" y="473.559"/><use xlink:href="#x" x="182.064" y="473.559"/><use xlink:href="#K" x="184.833" y="473.559"/><use xlink:href="#N" x="190.971" y="473.559"/><use xlink:href="#B" x="197.098" y="473.559"/></g><g fill="#231f20"><use xlink:href="#E" x="199.686" y="473.559"/><use xlink:href="#G" x="204.874" y="473.559"/><use xlink:href="#I" x="210.541" y="473.559"/><use xlink:href="#G" x="216.789" y="473.559"/><use xlink:href="#E" x="222.457" y="473.559"/><use xlink:href="#x" x="227.645" y="473.559"/><use xlink:href="#C" x="230.414" y="473.559"/><use xlink:href="#Z" x="234.132" y="473.559"/><use xlink:href="#B" x="239.231" y="473.559"/></g><g fill="#231f20"><use xlink:href="#C" x="241.818" y="473.559"/><use xlink:href="#K" x="245.536" y="473.559"/><use xlink:href="#B" x="251.674" y="473.559"/></g><g fill="#231f20"><use xlink:href="#D" x="254.26" y="473.559"/><use xlink:href="#G" x="263.496" y="473.559"/><use xlink:href="#C" x="269.164" y="473.559"/><use xlink:href="#z" x="272.883" y="473.559"/><use xlink:href="#H" x="278.981" y="473.559"/><use xlink:href="#A" x="282.769" y="473.559"/><use xlink:href="#B" x="288.347" y="473.559"/></g><g fill="#231f20"><use xlink:href="#E" x="290.934" y="473.559"/><use xlink:href="#A" x="296.122" y="473.559"/><use xlink:href="#F" x="301.7" y="473.559"/><use xlink:href="#F" x="304.569" y="473.559"/><use xlink:href="#y" x="307.438" y="473.559"/><use xlink:href="#B" x="312.156" y="473.559"/></g><g fill="#231f20"><use xlink:href="#J" x="314.742" y="473.559"/><use xlink:href="#Z" x="320.97" y="473.559"/><use xlink:href="#B" x="326.068" y="473.559"/></g><g fill="#231f20"><use xlink:href="#z" x="328.656" y="473.559"/><use xlink:href="#y" x="334.753" y="473.559"/><use xlink:href="#x" x="339.472" y="473.559"/><use xlink:href="#N" x="342.241" y="473.559"/><use xlink:href="#Q" x="348.368" y="473.559"/><use xlink:href="#B" x="353.996" y="473.559"/></g><g fill="#231f20"><use xlink:href="#x" x="356.583" y="473.559"/><use xlink:href="#N" x="359.352" y="473.559"/><use xlink:href="#B" x="365.48" y="473.559"/></g><g fill="#231f20"><use xlink:href="#ab" x="368.068" y="473.559"/><use xlink:href="#x" x="373.156" y="473.559"/><use xlink:href="#ab" x="375.925" y="473.559"/><use xlink:href="#K" x="381.013" y="473.559"/><use xlink:href="#B" x="387.151" y="473.559"/></g><g fill="#231f20"><use xlink:href="#Q" x="389.738" y="473.559"/><use xlink:href="#A" x="395.366" y="473.559"/><use xlink:href="#N" x="400.943" y="473.559"/><use xlink:href="#A" x="407.071" y="473.559"/><use xlink:href="#C" x="412.649" y="473.559"/><use xlink:href="#x" x="416.368" y="473.559"/><use xlink:href="#E" x="419.137" y="473.559"/><use xlink:href="#B" x="424.325" y="473.559"/></g><g fill="#231f20"><use xlink:href="#C" x="426.912" y="473.559"/><use xlink:href="#H" x="430.63" y="473.559"/><use xlink:href="#G" x="434.419" y="473.559"/><use xlink:href="#E" x="440.087" y="473.559"/><use xlink:href="#x" x="445.275" y="473.559"/><use xlink:href="#N" x="448.044" y="473.559"/><use xlink:href="#Q" x="454.171" y="473.559"/><use xlink:href="#B" x="459.799" y="473.559"/></g><g fill="#231f20"><use xlink:href="#U" x="462.386" y="473.559"/><use xlink:href="#al" x="465.735" y="473.559"/><use xlink:href="#G" x="473.002" y="473.559"/><use xlink:href="#C" x="478.67" y="473.559"/><use xlink:href="#z" x="482.389" y="473.559"/><use xlink:href="#H" x="488.486" y="473.559"/><use xlink:href="#A" x="492.275" y="473.559"/><use xlink:href="#ad" x="497.853" y="473.559"/><use xlink:href="#B" x="500.552" y="473.559"/></g><g fill="#231f20"><use xlink:href="#W" x="503.139" y="473.559"/><use xlink:href="#A" x="509.137" y="473.559"/><use xlink:href="#I" x="514.714" y="473.559"/><use xlink:href="#S" x="520.962" y="473.559"/><use xlink:href="#am" x="523.661" y="473.559"/><use xlink:href="#an" x="529.209" y="473.559"/><use xlink:href="#am" x="534.757" y="473.559"/><use xlink:href="#am" x="540.305" y="473.559"/><use xlink:href="#Y" x="545.853" y="473.559"/><use xlink:href="#S" x="549.201" y="473.559"/><use xlink:href="#B" x="551.9" y="473.559"/></g><g fill="#231f20"><use xlink:href="#ao" x="36.275" y="490.552"/><use xlink:href="#N" x="39.194" y="490.552"/><use xlink:href="#B" x="45.322" y="490.552"/></g><g fill="#231f20"><use xlink:href="#C" x="47.845" y="490.552"/><use xlink:href="#T" x="51.564" y="490.552"/><use xlink:href="#x" x="57.651" y="490.552"/><use xlink:href="#y" x="60.42" y="490.552"/><use xlink:href="#B" x="65.138" y="490.552"/></g><g fill="#231f20"><use xlink:href="#y" x="67.661" y="490.552"/><use xlink:href="#Z" x="72.38" y="490.552"/><use xlink:href="#D" x="77.478" y="490.552"/><use xlink:href="#I" x="86.714" y="490.552"/><use xlink:href="#K" x="92.962" y="490.552"/><use xlink:href="#y" x="99.1" y="490.552"/><use xlink:href="#x" x="103.818" y="490.552"/><use xlink:href="#z" x="106.587" y="490.552"/><use xlink:href="#D" x="112.684" y="490.552"/><use xlink:href="#ad" x="121.921" y="490.552"/><use xlink:href="#B" x="124.62" y="490.552"/></g><g fill="#231f20"><use xlink:href="#ao" x="127.145" y="490.552"/><use xlink:href="#B" x="130.064" y="490.552"/></g><g fill="#231f20"><use xlink:href="#O" x="132.588" y="490.552"/><use xlink:href="#x" x="140.445" y="490.552"/><use xlink:href="#F" x="143.214" y="490.552"/><use xlink:href="#F" x="146.083" y="490.552"/><use xlink:href="#B" x="148.952" y="490.552"/></g><g fill="#231f20"><use xlink:href="#C" x="151.475" y="490.552"/><use xlink:href="#G" x="155.193" y="490.552"/><use xlink:href="#F" x="160.861" y="490.552"/><use xlink:href="#ap" x="163.73" y="490.552"/><use xlink:href="#B" x="169.138" y="490.552"/></g><g fill="#231f20"><use xlink:href="#G" x="171.661" y="490.552"/><use xlink:href="#J" x="177.329" y="490.552"/><use xlink:href="#K" x="183.557" y="490.552"/><use xlink:href="#z" x="189.694" y="490.552"/><use xlink:href="#C" x="195.792" y="490.552"/><use xlink:href="#B" x="199.511" y="490.552"/></g><g fill="#231f20"><use xlink:href="#y" x="202.035" y="490.552"/><use xlink:href="#C" x="206.753" y="490.552"/><use xlink:href="#A" x="210.471" y="490.552"/><use xlink:href="#D" x="216.049" y="490.552"/><use xlink:href="#B" x="225.286" y="490.552"/></g><g fill="#231f20"><use xlink:href="#E" x="227.811" y="490.552"/><use xlink:href="#A" x="232.999" y="490.552"/><use xlink:href="#F" x="238.577" y="490.552"/><use xlink:href="#F" x="241.446" y="490.552"/><use xlink:href="#B" x="244.315" y="490.552"/></g><g fill="#231f20"><use xlink:href="#P" x="246.839" y="490.552"/><use xlink:href="#A" x="253.086" y="490.552"/><use xlink:href="#ab" x="258.664" y="490.552"/><use xlink:href="#A" x="263.752" y="490.552"/><use xlink:href="#F" x="269.33" y="490.552"/><use xlink:href="#K" x="272.199" y="490.552"/><use xlink:href="#I" x="278.337" y="490.552"/><use xlink:href="#D" x="284.584" y="490.552"/><use xlink:href="#A" x="293.821" y="490.552"/><use xlink:href="#N" x="299.399" y="490.552"/><use xlink:href="#C" x="305.527" y="490.552"/><use xlink:href="#B" x="309.245" y="490.552"/></g><g fill="#231f20"><use xlink:href="#G" x="311.768" y="490.552"/><use xlink:href="#N" x="317.436" y="490.552"/><use xlink:href="#P" x="323.564" y="490.552"/><use xlink:href="#B" x="329.811" y="490.552"/></g><g fill="#231f20"><use xlink:href="#D" x="332.334" y="490.552"/><use xlink:href="#A" x="341.571" y="490.552"/><use xlink:href="#C" x="347.149" y="490.552"/><use xlink:href="#G" x="350.867" y="490.552"/><use xlink:href="#J" x="356.535" y="490.552"/><use xlink:href="#K" x="362.763" y="490.552"/><use xlink:href="#F" x="368.901" y="490.552"/><use xlink:href="#x" x="371.769" y="490.552"/><use xlink:href="#y" x="374.538" y="490.552"/><use xlink:href="#D" x="379.257" y="490.552"/><use xlink:href="#ad" x="388.493" y="490.552"/><use xlink:href="#B" x="391.192" y="490.552"/></g><g fill="#231f20"><use xlink:href="#O" x="393.715" y="490.552"/><use xlink:href="#T" x="401.572" y="490.552"/><use xlink:href="#x" x="407.66" y="490.552"/><use xlink:href="#E" x="410.429" y="490.552"/><use xlink:href="#T" x="415.617" y="490.552"/><use xlink:href="#B" x="421.705" y="490.552"/></g><g fill="#231f20"><use xlink:href="#G" x="424.228" y="490.552"/><use xlink:href="#x" x="429.896" y="490.552"/><use xlink:href="#D" x="432.664" y="490.552"/><use xlink:href="#y" x="441.901" y="490.552"/><use xlink:href="#B" x="446.619" y="490.552"/></g><g fill="#231f20"><use xlink:href="#C" x="449.142" y="490.552"/><use xlink:href="#K" x="452.861" y="490.552"/><use xlink:href="#B" x="458.999" y="490.552"/></g><g fill="#231f20"><use xlink:href="#H" x="461.523" y="490.552"/><use xlink:href="#A" x="465.311" y="490.552"/><use xlink:href="#Q" x="470.889" y="490.552"/><use xlink:href="#A" x="476.517" y="490.552"/><use xlink:href="#N" x="482.095" y="490.552"/><use xlink:href="#A" x="488.222" y="490.552"/><use xlink:href="#H" x="493.8" y="490.552"/><use xlink:href="#G" x="497.589" y="490.552"/><use xlink:href="#C" x="503.257" y="490.552"/><use xlink:href="#x" x="506.975" y="490.552"/><use xlink:href="#K" x="509.744" y="490.552"/><use xlink:href="#N" x="515.882" y="490.552"/><use xlink:href="#B" x="522.01" y="490.552"/></g><g fill="#231f20"><use xlink:href="#D" x="524.533" y="490.552"/><use xlink:href="#A" x="533.769" y="490.552"/><use xlink:href="#P" x="539.347" y="490.552"/><use xlink:href="#x" x="545.595" y="490.552"/></g><use xlink:href="#M" x="548.364" y="490.552" fill="#231f20"/><g fill="#231f20"><use xlink:href="#E" x="36.275" y="507.546"/><use xlink:href="#x" x="41.463" y="507.546"/><use xlink:href="#N" x="44.232" y="507.546"/><use xlink:href="#A" x="50.36" y="507.546"/><use xlink:href="#S" x="55.938" y="507.546"/><use xlink:href="#B" x="58.637" y="507.546"/></g><g fill="#231f20"><use xlink:href="#aq" x="61.025" y="507.546"/><use xlink:href="#H" x="66.543" y="507.546"/><use xlink:href="#K" x="70.331" y="507.546"/><use xlink:href="#D" x="76.469" y="507.546"/><use xlink:href="#B" x="85.706" y="507.546"/></g><g fill="#231f20"><use xlink:href="#N" x="88.093" y="507.546"/><use xlink:href="#K" x="94.22" y="507.546"/><use xlink:href="#O" x="100.358" y="507.546"/><use xlink:href="#ad" x="108.215" y="507.546"/><use xlink:href="#B" x="110.914" y="507.546"/></g><g fill="#231f20"><use xlink:href="#x" x="113.302" y="507.546"/><use xlink:href="#C" x="116.071" y="507.546"/><use xlink:href="#B" x="119.79" y="507.546"/></g><g fill="#231f20"><use xlink:href="#O" x="122.178" y="507.546"/><use xlink:href="#x" x="130.035" y="507.546"/><use xlink:href="#F" x="132.804" y="507.546"/><use xlink:href="#F" x="135.673" y="507.546"/><use xlink:href="#B" x="138.542" y="507.546"/></g><g fill="#231f20"><use xlink:href="#J" x="140.929" y="507.546"/><use xlink:href="#A" x="147.156" y="507.546"/><use xlink:href="#B" x="152.734" y="507.546"/></g><g fill="#231f20"><use xlink:href="#G" x="155.121" y="507.546"/><use xlink:href="#B" x="160.789" y="507.546"/></g><g fill="#231f20"><use xlink:href="#C" x="163.176" y="507.546"/><use xlink:href="#x" x="166.895" y="507.546"/><use xlink:href="#D" x="169.664" y="507.546"/><use xlink:href="#A" x="178.9" y="507.546"/><use xlink:href="#B" x="184.478" y="507.546"/></g><g fill="#231f20"><use xlink:href="#C" x="186.866" y="507.546"/><use xlink:href="#K" x="190.585" y="507.546"/><use xlink:href="#B" x="196.723" y="507.546"/></g><g fill="#231f20"><use xlink:href="#P" x="199.111" y="507.546"/><use xlink:href="#x" x="205.358" y="507.546"/><use xlink:href="#y" x="208.127" y="507.546"/><use xlink:href="#y" x="212.846" y="507.546"/><use xlink:href="#A" x="217.564" y="507.546"/><use xlink:href="#E" x="223.142" y="507.546"/><use xlink:href="#C" x="228.33" y="507.546"/><use xlink:href="#B" x="232.048" y="507.546"/></g><g fill="#231f20"><use xlink:href="#T" x="234.436" y="507.546"/><use xlink:href="#K" x="240.524" y="507.546"/><use xlink:href="#O" x="246.662" y="507.546"/><use xlink:href="#B" x="254.519" y="507.546"/></g><g fill="#231f20"><use xlink:href="#C" x="256.907" y="507.546"/><use xlink:href="#T" x="260.625" y="507.546"/><use xlink:href="#A" x="266.713" y="507.546"/><use xlink:href="#y" x="272.291" y="507.546"/><use xlink:href="#A" x="277.009" y="507.546"/><use xlink:href="#B" x="282.587" y="507.546"/></g><g fill="#231f20"><use xlink:href="#C" x="284.975" y="507.546"/><use xlink:href="#O" x="288.694" y="507.546"/><use xlink:href="#K" x="296.551" y="507.546"/><use xlink:href="#B" x="302.689" y="507.546"/></g><g fill="#231f20"><use xlink:href="#y" x="305.077" y="507.546"/><use xlink:href="#A" x="309.795" y="507.546"/><use xlink:href="#A" x="315.373" y="507.546"/><use xlink:href="#D" x="320.951" y="507.546"/><use xlink:href="#x" x="330.187" y="507.546"/><use xlink:href="#N" x="332.956" y="507.546"/><use xlink:href="#Q" x="339.084" y="507.546"/><use xlink:href="#F" x="344.712" y="507.546"/><use xlink:href="#Z" x="347.581" y="507.546"/><use xlink:href="#B" x="352.679" y="507.546"/></g><g fill="#231f20"><use xlink:href="#K" x="355.066" y="507.546"/><use xlink:href="#I" x="361.203" y="507.546"/><use xlink:href="#I" x="367.451" y="507.546"/><use xlink:href="#K" x="373.699" y="507.546"/><use xlink:href="#y" x="379.836" y="507.546"/><use xlink:href="#x" x="384.555" y="507.546"/><use xlink:href="#C" x="387.324" y="507.546"/><use xlink:href="#A" x="391.042" y="507.546"/><use xlink:href="#B" x="396.62" y="507.546"/></g><g fill="#231f20"><use xlink:href="#C" x="399.008" y="507.546"/><use xlink:href="#G" x="402.727" y="507.546"/><use xlink:href="#y" x="408.395" y="507.546"/><use xlink:href="#ap" x="413.113" y="507.546"/><use xlink:href="#y" x="418.521" y="507.546"/><use xlink:href="#ar" x="423.239" y="507.546"/><use xlink:href="#B" x="425.938" y="507.546"/></g><g fill="#231f20"><use xlink:href="#y" x="428.326" y="507.546"/><use xlink:href="#A" x="433.044" y="507.546"/><use xlink:href="#F" x="438.622" y="507.546"/><use xlink:href="#L" x="441.491" y="507.546"/><use xlink:href="#M" x="444.67" y="507.546"/><use xlink:href="#H" x="448.199" y="507.546"/><use xlink:href="#A" x="451.987" y="507.546"/><use xlink:href="#N" x="457.565" y="507.546"/><use xlink:href="#A" x="463.693" y="507.546"/><use xlink:href="#O" x="469.271" y="507.546"/><use xlink:href="#B" x="477.128" y="507.546"/></g><g fill="#231f20"><use xlink:href="#G" x="479.515" y="507.546"/><use xlink:href="#N" x="485.183" y="507.546"/><use xlink:href="#P" x="491.31" y="507.546"/><use xlink:href="#B" x="497.558" y="507.546"/></g><g fill="#231f20"><use xlink:href="#P" x="499.946" y="507.546"/><use xlink:href="#x" x="506.194" y="507.546"/><use xlink:href="#R" x="508.963" y="507.546"/><use xlink:href="#A" x="515.14" y="507.546"/><use xlink:href="#H" x="520.718" y="507.546"/><use xlink:href="#A" x="524.507" y="507.546"/><use xlink:href="#N" x="530.085" y="507.546"/><use xlink:href="#C" x="536.212" y="507.546"/><use xlink:href="#x" x="539.931" y="507.546"/><use xlink:href="#G" x="542.7" y="507.546"/></g><use xlink:href="#M" x="548.368" y="507.546" fill="#231f20"/><g fill="#231f20"><use xlink:href="#C" x="36.275" y="524.539"/><use xlink:href="#x" x="39.994" y="524.539"/><use xlink:href="#K" x="42.763" y="524.539"/><use xlink:href="#N" x="48.901" y="524.539"/><use xlink:href="#B" x="55.028" y="524.539"/><use xlink:href="#G" x="57.447" y="524.539"/><use xlink:href="#H" x="63.115" y="524.539"/><use xlink:href="#A" x="66.904" y="524.539"/><use xlink:href="#B" x="72.482" y="524.539"/><use xlink:href="#H" x="74.901" y="524.539"/><use xlink:href="#A" x="78.689" y="524.539"/><use xlink:href="#Q" x="84.267" y="524.539"/><use xlink:href="#z" x="89.895" y="524.539"/><use xlink:href="#F" x="95.993" y="524.539"/><use xlink:href="#G" x="98.862" y="524.539"/><use xlink:href="#C" x="104.529" y="524.539"/><use xlink:href="#A" x="108.248" y="524.539"/><use xlink:href="#P" x="113.826" y="524.539"/><use xlink:href="#B" x="120.074" y="524.539"/><use xlink:href="#x" x="122.493" y="524.539"/><use xlink:href="#N" x="125.262" y="524.539"/><use xlink:href="#B" x="131.389" y="524.539"/><use xlink:href="#y" x="133.808" y="524.539"/><use xlink:href="#C" x="138.527" y="524.539"/><use xlink:href="#A" x="142.245" y="524.539"/><use xlink:href="#D" x="147.823" y="524.539"/><use xlink:href="#B" x="157.06" y="524.539"/><use xlink:href="#E" x="159.479" y="524.539"/><use xlink:href="#A" x="164.667" y="524.539"/><use xlink:href="#F" x="170.245" y="524.539"/><use xlink:href="#F" x="173.114" y="524.539"/><use xlink:href="#y" x="175.982" y="524.539"/><use xlink:href="#S" x="180.701" y="524.539"/></g><g fill="#231f20"><use xlink:href="#as" x="474.146" y="278.585"/><use xlink:href="#at" x="480.864" y="278.585"/><use xlink:href="#au" x="487.484" y="278.585"/><use xlink:href="#av" x="493.301" y="278.585"/><use xlink:href="#aw" x="499.92" y="278.585"/><use xlink:href="#at" x="502.867" y="278.585"/><use xlink:href="#ax" x="509.487" y="278.585"/><use xlink:href="#ay" x="513.335" y="278.585"/><use xlink:href="#az" x="520.559" y="278.585"/><use xlink:href="#aA" x="527.08" y="278.585"/><use xlink:href="#aB" x="534.062" y="278.585"/></g><g fill="#231f20"><use xlink:href="#aC" x="354.959" y="294.786"/><use xlink:href="#aD" x="362.736" y="294.786"/><use xlink:href="#aE" x="365.285" y="294.786"/><use xlink:href="#aD" x="371.853" y="294.786"/><use xlink:href="#aF" x="374.402" y="294.786"/><use xlink:href="#aG" x="376.951" y="294.786"/><use xlink:href="#aH" x="380.449" y="294.786"/><use xlink:href="#aI" x="386.507" y="294.786"/><use xlink:href="#aD" x="391.995" y="294.786"/><use xlink:href="#aE" x="394.544" y="294.786"/><use xlink:href="#aD" x="401.112" y="294.786"/><use xlink:href="#aG" x="403.661" y="294.786"/><use xlink:href="#aJ" x="407.159" y="294.786"/><use xlink:href="#aK" x="410.088" y="294.786"/><use xlink:href="#aL" x="416.386" y="294.786"/><use xlink:href="#aM" x="421.804" y="294.786"/><use xlink:href="#aN" x="429.651" y="294.786"/><use xlink:href="#aM" x="435.019" y="294.786"/><use xlink:href="#aO" x="442.866" y="294.786"/><use xlink:href="#aP" x="448.334" y="294.786"/><use xlink:href="#aO" x="450.743" y="294.786"/><use xlink:href="#aG" x="456.211" y="294.786"/><use xlink:href="#aQ" x="459.709" y="294.786"/><use xlink:href="#aR" x="466.027" y="294.786"/><use xlink:href="#aS" x="471.515" y="294.786"/><use xlink:href="#aT" x="473.434" y="294.786"/><use xlink:href="#aU" x="478.592" y="294.786"/><use xlink:href="#aV" x="484.06" y="294.786"/><use xlink:href="#aW" x="487.359" y="294.786"/><use xlink:href="#aS" x="492.177" y="294.786"/><use xlink:href="#aP" x="494.096" y="294.786"/><use xlink:href="#aX" x="496.506" y="294.786"/><use xlink:href="#aF" x="501.554" y="294.786"/><use xlink:href="#aG" x="504.103" y="294.786"/><use xlink:href="#aY" x="507.601" y="294.786"/><use xlink:href="#aZ" x="512.04" y="294.786"/><use xlink:href="#aH" x="518.557" y="294.786"/><use xlink:href="#aZ" x="524.615" y="294.786"/><use xlink:href="#ba" x="531.132" y="294.786"/><use xlink:href="#bb" x="537.85" y="294.786"/></g><g fill="#7b7979"><use xlink:href="#bc" x="27.429" y="818.875"/><use xlink:href="#bd" x="31.465" y="818.875"/></g></svg>