<svg xmlns="http://www.w3.org/2000/svg" xmlns:xlink="http://www.w3.org/1999/xlink" width="794.366" height="1122.52" viewBox="0 0 595.7748 841.89" version="1.2"><defs><clipPath id="bi"><path d="M423.16 604.148h108.121v126.614h-108.12zm0 0"/></clipPath><symbol overflow="visible" id="a"><path d="M3.813-4.328H2v-1.219h1.813zm1.296-3.438H3.813v1.22H2v-1.22H.703v4.47H5.11zM1.531-1.375H6.36v2.25h1.329v-3.297H1.53zm7.375-4.734H7.687v-2.235H6.36v5.516h1.329v-2.203h1.218zm0 0"/></symbol><symbol overflow="visible" id="b"><path d="M6.813-5.844v.86H4.78v1.046h2.032v.891h1.312v-5.297H6.812v1.453H5.157a4.87 4.87 0 0 0 .063-.843H1v1.062h2.781C3.61-5.422 2.594-4.438.5-3.875l.516 1.047c2.03-.578 3.312-1.563 3.89-3.016zm-1.72 5.64c-1.14 0-1.812-.296-1.812-.859 0-.562.672-.843 1.813-.843 1.125 0 1.797.281 1.797.843 0 .563-.672.86-1.797.86zm0-2.733c-1.89 0-3.109.734-3.109 1.874 0 1.157 1.22 1.875 3.11 1.875 1.86 0 3.093-.718 3.093-1.875 0-1.14-1.234-1.875-3.093-1.875zm0 0"/></symbol><symbol overflow="visible" id="c"><path d="M4.578-6.984c1.203 0 1.969.359 1.969 1.015 0 .672-.766 1.032-1.969 1.032s-1.984-.36-1.984-1.032c0-.656.781-1.015 1.984-1.015zm0 3.093c1.969 0 3.328-.812 3.328-2.078 0-1.25-1.36-2.078-3.328-2.078-1.969 0-3.328.828-3.328 2.078 0 1.266 1.36 2.078 3.328 2.078zm4.188.688H.437v1.062h3.47V.875h1.327v-3.016h3.532zm0 0"/></symbol><symbol overflow="visible" id="af"><path d="M1.016-7.813v1.032h2.843C3.672-5.563 2.516-4.547.484-4.047l.5 1.031c2.735-.687 4.282-2.359 4.282-4.796zm2.28 6.016h3.485V-.28H3.297zM1.985.75h6.094v-3.578H1.984zM6.75-8.344v5.125h1.328v-5.125zm0 0"/></symbol><symbol overflow="visible" id="ag"><path d="M8.766-3.89H7.437c.266-1.516.266-2.579.266-3.36v-.594H1.406v1.078h4.985c-.016.72-.047 1.641-.282 2.875H.438v1.079h1.859V.874h1.312v-3.688h1.875V.876h1.313v-3.688h1.969zm0 0"/></symbol><symbol overflow="visible" id="ah"><path d="M5.125-3v.906h1.734v.719h1.329v-6.969H6.859V-3zM3.359-7.078c.61 0 1.047.234 1.047.687 0 .454-.437.688-1.047.688-.625 0-1.046-.234-1.046-.688 0-.453.421-.687 1.046-.687zm0 2.328c1.344 0 2.297-.656 2.297-1.64 0-.985-.953-1.657-2.297-1.657-1.343 0-2.296.672-2.296 1.656 0 .985.953 1.641 2.296 1.641zM2.875-.344v-1.265h1.266v-1.735c.734-.062 1.484-.14 2.203-.265l-.094-.938c-1.938.25-4.188.266-5.86.281l.172 1.047c.688 0 1.454-.015 2.266-.047v1.22H1.547v2.75h6.828V-.345zm0 0"/></symbol><symbol overflow="visible" id="an"><path d="M1.797-5.594c0-.718.5-1.14 1.172-1.14.687 0 1.187.421 1.187 1.14 0 .703-.5 1.14-1.187 1.14-.672 0-1.172-.437-1.172-1.14zm5.016-.5v1h-1.47c.032-.172.063-.343.063-.5 0-.187-.031-.343-.062-.5zm0 2.047v1.094h1.312v-5.39H6.812v1.187h-2.03c-.438-.438-1.079-.703-1.813-.703-1.36 0-2.422.953-2.422 2.265 0 1.297 1.062 2.25 2.422 2.25.719 0 1.344-.265 1.797-.703zM5.016-.157c-1.22 0-1.86-.25-1.86-.796 0-.531.64-.797 1.86-.797 1.203 0 1.859.266 1.859.797 0 .547-.656.797-1.86.797zm0-2.609c-1.954 0-3.157.672-3.157 1.813C1.86.187 3.063.875 5.016.875c1.937 0 3.156-.688 3.156-1.828 0-1.14-1.219-1.813-3.156-1.813zm0 0"/></symbol><symbol overflow="visible" id="ao"><path d="M8.484-4.156c-2.093-.328-3.218-1.719-3.218-3.032v-.656H3.844v.657c0 1.28-1.14 2.703-3.219 3.03l.547 1.095c1.61-.282 2.781-1.157 3.375-2.282.61 1.14 1.781 2 3.406 2.282zM5.22-1.296v-2.048H3.906v2.047H.437v1.063h8.329v-1.063zm0 0"/></symbol><symbol overflow="visible" id="aB"><path d="M3.188-4.344H1.984v-1.11h1.204zm1.218-3.422H3.188v1.297H1.984v-1.297H.75v4.454h3.656zM1.938-1.328h5.015V.875h1.328v-3.25H1.937zM7.03-8.344v2.25h-.718v-2.093H5.077v5.343h1.234v-2.203h.72v2.234h1.25v-5.53zm0 0"/></symbol><symbol overflow="visible" id="aC"><path d="M6.813-2.953h1.312v-5.39H6.812v1.671H5.125v1.078h1.688zm-.844-1.328C4.516-4.75 3.906-5.875 3.906-7.11v-.766H2.562v.828c0 1.266-.64 2.516-2.218 3.016l.703 1.062c1.078-.375 1.812-1.11 2.219-2.047A3.37 3.37 0 0 0 5.28-3.234zM5.016-.156c-1.204 0-1.829-.25-1.829-.766 0-.531.626-.781 1.829-.781 1.203 0 1.828.25 1.828.781 0 .516-.625.766-1.828.766zm0-2.563c-1.954 0-3.157.656-3.157 1.797C1.86.203 3.063.86 5.016.86S8.172.203 8.172-.92c0-1.141-1.203-1.798-3.156-1.798zm0 0"/></symbol><symbol overflow="visible" id="aD"><path d="M6.188-7.234h-2.11v-1H2.766v1H.672v1.03h5.516zm-1.735 3.14c0 .485-.406.75-1.016.75-.609 0-1.015-.265-1.015-.75 0-.484.406-.75 1.015-.75.61 0 1.016.266 1.016.75zm-3.281 0c0 1.032.937 1.75 2.266 1.75 1.328 0 2.265-.719 2.265-1.75 0-1.047-.937-1.75-2.266-1.75-1.328 0-2.265.703-2.265 1.75zM.64-.719c1.625.016 3.734.016 5.765-.36l-.093-.968c-1.938.266-4.157.25-5.829.25zm6.156-7.625V.86h1.312v-9.203zm0 0"/></symbol><symbol overflow="visible" id="aR"><path d="M2.453-5.344c0-.937.875-1.484 2.14-1.484 1.266 0 2.141.547 2.141 1.484 0 .938-.875 1.5-2.14 1.5-1.266 0-2.14-.562-2.14-1.5zM5.25-1.28v-1.563c1.625-.187 2.781-1.125 2.781-2.5 0-1.531-1.469-2.531-3.437-2.531-1.969 0-3.438 1-3.438 2.531 0 1.375 1.157 2.297 2.782 2.5v1.563h-3.5v1.078h8.328v-1.078zm0 0"/></symbol><symbol overflow="visible" id="aS"><path d="M8.766-3.906h-1.22c.235-1.281.235-2.219.235-3.078v-.829h-6.39v1.047h5.093c0 .797-.015 1.704-.25 2.86H.438v1.062h3.437V.86h1.344v-3.703h3.547zm0 0"/></symbol><symbol overflow="visible" id="aT"><path d="M4.563-4.344c-.829.14-1.563.188-2.547.188v-.782h2.25v-1h-2.25v-.75h2.343v-1.046H.734v4.64h.641c1.375 0 2.266-.031 3.313-.203zM1.938-1.28h5.015V.875h1.328v-3.203H1.937zM7.03-8.344v2.25h-.734v-2.093H5.063v5.39h1.234v-2.25h.734v2.313h1.25v-5.61zm0 0"/></symbol><symbol overflow="visible" id="aX"><path d="M4.594-7.125c1.156 0 1.89.281 1.89.86 0 .562-.734.843-1.89.843-1.157 0-1.89-.281-1.89-.844 0-.578.733-.859 1.89-.859zm0 2.75c1.984 0 3.312-.734 3.312-1.89 0-1.173-1.328-1.923-3.312-1.923-1.985 0-3.313.75-3.313 1.922 0 1.157 1.328 1.891 3.313 1.891zM2.687-2H1.375V.703h6.578V-.344H2.687zM.438-3.906v1.062h2.844v1.64h1.313v-1.64h.922v1.64h1.312v-1.64h1.938v-1.062zm0 0"/></symbol><symbol overflow="visible" id="aY"><path d="M6.406-5.563H2.75v-1.375h3.656zm1.297-2.39h-6.25v3.422h6.25zm-5 5.984H1.391V.703h6.453V-.344h-5.14zM.422-3.797v1.031h3.625v1.579h1.328v-1.579h3.39v-1.03zm0 0"/></symbol><symbol overflow="visible" id="aZ"><path d="M1.984-3.969h2.282v-1.015H1.984v-1.36h2.47v-1.062H.733v6.172h.641c1.39 0 2.297-.032 3.36-.204L4.608-2.5c-.859.125-1.593.172-2.625.188zm5.094-4.39v3.562h-.734v-3.406H5.109V.453h1.235v-4.187h.734V.859h1.25v-9.218zm0 0"/></symbol><symbol overflow="visible" id="d"><path d="M1.266-1.344c.468 0 .906-.39.906-1 0-.594-.438-.984-.906-.984-.47 0-.907.39-.907.984 0 .61.438 1 .907 1zm0 0"/></symbol><symbol overflow="visible" id="f"><path d="M5.813-4.813v1.188h-1.86v-1.188zM3.53-2.905H1.266V-4.36H3.53zm.422-.375h1.86v2.015h.421v-5.28h-.421v1.374h-1.86v-.906h-.422v1.36H1.266v-1.36H.844v3.531h3.11zM2.188.03V-1.78h-.422V.39h4.656V.03zm0 0"/></symbol><symbol overflow="visible" id="g"><path d="M6.5-5.406H3.875v-1h-.422v1H.797v.36H6.5zM1.812-3.141c0-.609.735-.984 1.844-.984 1.125 0 1.86.375 1.86.984 0 .61-.735.985-1.86.985-1.11 0-1.844-.375-1.844-.985zM3.876-.703v-1.11c1.281-.046 2.063-.53 2.063-1.328 0-.843-.875-1.328-2.282-1.328-1.39 0-2.265.485-2.265 1.328 0 .797.78 1.282 2.062 1.329v1.109h-3v.36h6.438v-.36zm0 0"/></symbol><symbol overflow="visible" id="h"><path d="M2.688-5.89H2.28v1.421c0 1.282-.969 2.64-1.89 3.125l.25.36C1.42-1.438 2.187-2.406 2.5-3.5c.313 1.047 1.063 1.938 1.844 2.36l.25-.329c-.922-.484-1.907-1.765-1.907-3zm4.421 2.312H5.86v-2.969h-.421v7.11h.421V-3.22h1.25zm0 0"/></symbol><symbol overflow="visible" id="i"><path d="M4.688-5.594H2.796v-.937h-.422v.937H.485v.344h4.202zM1.296-3.469c0-.578.531-.969 1.281-.969.766 0 1.281.391 1.281.97 0 .546-.515.952-1.28.952-.75 0-1.282-.406-1.282-.953zm2.953 0c0-.797-.656-1.312-1.672-1.312-1 0-1.672.515-1.672 1.312 0 .781.672 1.297 1.672 1.297 1.016 0 1.672-.515 1.672-1.297zM2.016-1.64h-.422V.391H6.28V.03H2.016zm3.906-2.468v-2.422H5.5v5.328h.422V-3.75h1.125v-.36zm0 0"/></symbol><symbol overflow="visible" id="j"><path d="M4.516-3.078c-.97-.36-1.813-1.297-1.813-2.313v-.812h-.422v.797c0 1.156-.812 2.125-1.812 2.515l.234.344a3.197 3.197 0 0 0 1.813-1.969c.28.813.984 1.454 1.765 1.766zM3.687.187c-1.14 0-1.874-.343-1.874-.89 0-.563.734-.906 1.875-.906 1.14 0 1.874.343 1.874.906 0 .547-.734.89-1.875.89zm0-2.14c-1.437 0-2.28.453-2.28 1.25C1.406.094 2.25.53 3.686.53c1.438 0 2.297-.437 2.297-1.234 0-.797-.859-1.25-2.296-1.25zm2.235-2.64v-1.954H5.5v4.375h.422v-2.062h1.125v-.36zm0 0"/></symbol><symbol overflow="visible" id="k"><path d="M1.156-1.656v-3.64h2.235v-.36H.75v4.375h.438c1.171 0 1.859-.047 2.687-.235l-.047-.359c-.797.188-1.484.219-2.656.219zm4.875-4.89v2.921H4.813v-2.75h-.407V.172h.407v-3.438H6.03V.547h.422v-7.094zm0 0"/></symbol><symbol overflow="visible" id="l"><path d="M5.813.094H2.219V-.953h3.594zm0-1.39H2.219v-1h-.422v2.75h4.437v-2.75h-.421zM3.53-3.329H1.266v-1.297H3.53zm2.281-3.219v1.813H3.954v-1.454h-.422v1.22H1.266v-1.22H.844v3.22h3.11v-1.407h1.858v1.719h.422v-3.89zm0 0"/></symbol><symbol overflow="visible" id="m"><path d="M5.625-5.25H1.297v1.406h4.875v-.344H1.719v-.75h4.328v-1.359H1.28v.328h4.344zm-.984 3.14H2.703v-.78h1.938zm2.25-.78v-.344H.437v.343h1.844v.782H1.234v.328h4.422v.75h-4.39V.453h5.046V.125h-4.64v-.844h4.39v-1.39h-.984v-.782zm0 0"/></symbol><symbol overflow="visible" id="n"><path d="M5.61-3.766H1.733V-5.78H5.61zm.421-2.359H1.313v2.703H6.03zm.86 3.797H.437v.36h3V.546h.422V-1.97h3.032zm0 0"/></symbol><symbol overflow="visible" id="o"><path d="M6.531-2.938C5.516-3.14 3.86-4.171 3.86-5.453v-.578h-.437v.578c0 1.297-1.625 2.312-2.656 2.516l.187.343c.953-.219 2.25-.984 2.688-2.078.453 1.094 1.75 1.86 2.703 2.078zM3.86-.78v-1.813h-.421V-.78H.453v.36h6.438v-.36zm0 0"/></symbol><symbol overflow="visible" id="p"><path d="M5.594-5.047c0 .86 0 1.828-.266 3.156l.438.063c.25-1.39.25-2.36.25-3.219v-.719h-4.86v.36h4.438zM3.5-.89v-2.593h-.406v2.593H.454v.36h6.421v-.36zm0 0"/></symbol><symbol overflow="visible" id="q"><path d="M1.14-1.5v-1.969h2.641v-2.406H.72v.36h2.64v1.687H.734v2.687h.516c1.14 0 2.047-.03 3.203-.234l-.031-.36c-1.14.188-2.047.235-3.172.235zm4.673-5.047v1.688H4.266v.359h1.546v1.594H4.204v.36h1.61V.561h.421v-7.109zm0 0"/></symbol><symbol overflow="visible" id="r"><path d="M4.688-5.719H2.796v-.875h-.422v.875H.485v.344h4.202zM1.296-3.64c0-.546.531-.921 1.281-.921.766 0 1.281.375 1.281.921 0 .547-.515.922-1.28.922-.75 0-1.282-.375-1.282-.922zm2.953 0c0-.78-.656-1.265-1.672-1.265-1 0-1.672.484-1.672 1.265 0 .782.672 1.266 1.672 1.266 1.016 0 1.672-.484 1.672-1.266zM1.39-1.312H5.5V.546h.422v-2.219H1.39zm5.657-3.204H5.922v-2.03H5.5v4.437h.422v-2.032h1.125zm0 0"/></symbol><symbol overflow="visible" id="s"><path d="M5.594-4.938c0 .922 0 1.813-.25 3.032l.422.047c.25-1.25.25-2.125.25-3.079v-.828H1.14v.36h4.453zM4.344-.89v-2.406h-.422V-.89H2.594v-2.406h-.422V-.89H.453v.36h6.422v-.36zm0 0"/></symbol><symbol overflow="visible" id="t"><path d="M4.203-4.516v.36h1.61v2.843h.421v-5.234h-.421v2.031zm.375 1.688c-.969-.344-1.781-1.25-1.781-2.219v-.5h1.656v-.36H.687v.36h1.688v.516c0 1.078-.875 2.015-1.86 2.39l.235.344c.828-.328 1.547-1.047 1.844-1.922.297.782.969 1.422 1.781 1.735zM2.218.032v-1.829h-.421V.391h4.656V.03zm0 0"/></symbol><symbol overflow="visible" id="u"><path d="M5.625-4.14H1.719v-1.704h3.906zm.422-2.048h-4.75v2.391h4.75zM1.734-1.64h-.437V.391h4.875V.03H1.734zM.438-2.844v.36h3.046v1.578h.422v-1.578h2.985v-.36zm0 0"/></symbol><symbol overflow="visible" id="v"><path d="M4.234-2.297v.328H5.75v.844h.422v-5.406H5.75v4.234zm-1.5-3.61c.782 0 1.329.376 1.329.891 0 .532-.547.891-1.329.891-.78 0-1.328-.36-1.328-.89 0-.516.547-.891 1.328-.891zm0 2.11c1.047 0 1.735-.469 1.735-1.219 0-.75-.688-1.218-1.735-1.218C1.704-6.234 1-5.766 1-5.016s.703 1.22 1.734 1.22zm-.156 2.375H3v-1.437c.688-.047 1.406-.094 2.078-.22l-.047-.312c-1.531.204-3.297.22-4.625.22l.063.358c.625 0 1.344 0 2.11-.03zM1.906.031v-1.687h-.422V.39H6.36V.03zm0 0"/></symbol><symbol overflow="visible" id="w"><path d="M1.078-2.266c1.031-.218 2.172-.812 2.578-1.812.422 1 1.563 1.594 2.594 1.812l.188-.343c-1.172-.22-2.563-1.016-2.563-2.282v-.078H6.25v-.36H3.875v-1.046h-.422v1.047H1.078v.36h2.375v.077c0 1.266-1.375 2.063-2.562 2.282zM3.875-.75v-1.766h-.422V-.75h-3v.36h6.438v-.36zm0 0"/></symbol><symbol overflow="visible" id="x"><path d="M.828-6.11v3.25h3.25v-3.25h-.422v1.204H1.25V-6.11zm.422 1.548h2.406v1.343H1.25zm4.563-1.985v4.344h.421v-4.344zM3.89-2.063c-1.454 0-2.344.47-2.344 1.297 0 .844.89 1.297 2.344 1.297C5.359.531 6.25.078 6.25-.766c0-.828-.89-1.296-2.36-1.296zm0 .344c1.187 0 1.937.36 1.937.953 0 .594-.75.954-1.937.954-1.172 0-1.922-.36-1.922-.954 0-.593.75-.953 1.922-.953zm0 0"/></symbol><symbol overflow="visible" id="y"><path d="M6.5-3.734C5.437-3.906 3.89-4.75 3.89-5.828v-.438h-.437v.438c0 1.11-1.531 1.922-2.625 2.094l.188.343c1-.187 2.234-.796 2.656-1.75.422.938 1.656 1.563 2.64 1.75zm.375 1.265H.453v.36h2.985V.547h.421V-2.11h3.016zm0 0"/></symbol><symbol overflow="visible" id="z"><path d="M2.438-5.281h1.406v-.36H.547v.36H2.03v.812c0 1.36-.687 2.657-1.64 3.235l.28.312c.735-.453 1.313-1.36 1.563-2.422.25.985.797 1.813 1.516 2.25l.281-.312c-.937-.532-1.593-1.797-1.593-3.063zm2.171 1.36H3.281v.358H4.61V.172h.407V-6.36h-.407zm1.422-2.626v7.11h.422v-7.11zm0 0"/></symbol><symbol overflow="visible" id="A"><path d="M2.063.11c1 0 1.765-.641 1.765-1.657 0-.828-.578-1.344-1.281-1.5v-.047c.625-.203 1.062-.687 1.062-1.437 0-.907-.671-1.407-1.562-1.407-.672 0-1.172.313-1.563.688l.266.313c.328-.344.781-.61 1.281-.61.672 0 1.11.422 1.11 1.047 0 .703-.454 1.25-1.735 1.25v.39c1.39 0 1.938.532 1.938 1.313 0 .75-.547 1.25-1.297 1.25-.75 0-1.203-.344-1.531-.719L.25-.703c.36.406.906.812 1.813.812zm0 0"/></symbol><symbol overflow="visible" id="B"><path d="M2.172.11c1.031 0 1.734-.657 1.734-1.485 0-.797-.484-1.219-.984-1.516v-.046c.328-.266.797-.813.797-1.454 0-.875-.578-1.515-1.547-1.515-.844 0-1.5.593-1.5 1.437 0 .61.39 1.047.797 1.328v.032c-.532.296-1.11.859-1.11 1.656 0 .89.766 1.562 1.813 1.562zm.406-3.172c-.734-.297-1.453-.626-1.453-1.407 0-.625.438-1.062 1.047-1.062.703 0 1.11.531 1.11 1.156 0 .484-.235.922-.704 1.313zM2.172-.267c-.797 0-1.375-.53-1.375-1.203 0-.64.406-1.14.953-1.468.875.343 1.703.671 1.703 1.546 0 .625-.515 1.125-1.281 1.125zm0 0"/></symbol><symbol overflow="visible" id="C"><path d="M.906-6.063v.36h2.719c-.094 1.36-1.297 2.39-3.063 2.89l.188.36c2.016-.594 3.344-1.86 3.344-3.61zM2.125-1.78h3.703V.094H2.125zM1.719.437h4.515v-2.562H1.72zm4.093-6.984v1.922H4.079v.36h1.734v1.827h.422v-4.109zm0 0"/></symbol><symbol overflow="visible" id="D"><path d="M4.594-3.344c-.985-.281-1.828-.984-1.828-1.828v-.219h1.671v-.359H2.766v-.844h-.422v.844H.656v.36h1.688v.218c0 .938-.906 1.688-1.875 1.969l.187.344c.844-.266 1.61-.844 1.906-1.594.297.672 1.016 1.203 1.844 1.437zm-2.64 2.5h3.968v-1.531H1.516v.344h4v.86H1.53V.452H6.22V.11H1.953zm3.968-4.031v-1.672H5.5v3.781h.422v-1.75h1.11v-.359zm0 0"/></symbol><symbol overflow="visible" id="E"><path d="M4.203-4.438v.36h1.61v1.844h.421v-4.313h-.421v2.11zm.406 1.532c-.984-.328-1.843-1.14-1.843-2.125v-.219h1.671v-.36H2.766v-.984h-.422v.985H.656v.359h1.688v.219C2.344-3.97 1.5-3.078.516-2.72l.218.328c.829-.312 1.532-.968 1.829-1.812.312.766 1.03 1.344 1.859 1.625zM3.938.188c-1.157 0-1.891-.36-1.891-.922 0-.579.734-.922 1.89-.922 1.172 0 1.922.343 1.922.922 0 .562-.75.921-1.921.921zm0-2.204c-1.454 0-2.329.47-2.329 1.282S2.484.53 3.938.53C5.39.531 6.265.078 6.265-.734c0-.813-.875-1.282-2.329-1.282zm0 0"/></symbol><symbol overflow="visible" id="F"><path d="M1.031-3.453c1.063-.14 2.219-.578 2.625-1.39.422.812 1.578 1.25 2.64 1.39l.141-.328c-1.171-.14-2.546-.703-2.546-1.688h2.312v-.343H3.875v-.782h-.422v.782H1.141v.343h2.296c0 .985-1.374 1.547-2.546 1.688zM3.656.203c-1.219 0-1.984-.312-1.984-.828s.766-.828 1.984-.828c1.235 0 2 .312 2 .828s-.765.828-2 .828zm0-1.984c-1.515 0-2.406.406-2.406 1.156 0 .75.89 1.156 2.406 1.156 1.531 0 2.422-.406 2.422-1.156 0-.75-.89-1.156-2.422-1.156zm.219-1.016v-1h-.422v1h-3v.344h6.422v-.344zm0 0"/></symbol><symbol overflow="visible" id="G"><path d="M4.5-2.984c-.969-.329-1.766-1.188-1.766-2.172v-.469h1.672v-.36H.625v.36h1.688v.484c0 1.079-.844 1.985-1.844 2.344l.234.344c.828-.328 1.531-.985 1.828-1.86.297.766.953 1.375 1.766 1.672zM3.687.187c-1.14 0-1.874-.343-1.874-.921 0-.563.734-.907 1.875-.907 1.14 0 1.874.344 1.874.907 0 .578-.734.921-1.875.921zm0-2.171c-1.421 0-2.28.453-2.28 1.25 0 .812.859 1.265 2.28 1.265C5.11.531 5.985.078 5.985-.734c0-.797-.875-1.25-2.296-1.25zm2.235-2.657v-1.906H5.5v4.328h.422v-2.047h1.125v-.375zm0 0"/></symbol><symbol overflow="visible" id="H"><path d="M2.031.11c.922 0 1.813-.72 1.813-1.985 0-1.297-.766-1.875-1.719-1.875-.406 0-.703.125-.984.281l.171-1.953h2.25v-.406H.892L.703-3.172 1-2.984c.328-.22.61-.375 1.031-.375.813 0 1.344.578 1.344 1.5 0 .953-.625 1.562-1.36 1.562-.765 0-1.203-.328-1.53-.687l-.266.328c.375.375.906.765 1.812.765zm0 0"/></symbol><symbol overflow="visible" id="I"><path d="M2.828-5.89h-.422v1.421c0 1.297-.969 2.64-1.906 3.157l.266.328c.78-.454 1.546-1.422 1.843-2.547.313 1.062 1.094 2 1.891 2.422l.25-.344C3.812-1.922 2.828-3.22 2.828-4.47zm2.985-.657v2.531H3.984v.36h1.829V.563h.421v-7.11zm0 0"/></symbol><symbol overflow="visible" id="J"><path d="M3.656-6.125c1.25 0 2.031.344 2.031.906 0 .578-.78.922-2.03.922-1.235 0-2.016-.344-2.016-.922 0-.562.78-.906 2.015-.906zm0 2.156c1.547 0 2.469-.437 2.469-1.25 0-.797-.922-1.234-2.469-1.234-1.531 0-2.453.437-2.453 1.234 0 .813.922 1.25 2.453 1.25zm3.219.906v-.359H.453v.36h3v.796H1.266v.344h4.343v.781H1.266V.453H6.25V.11H1.687v-.921h4.344v-1.454H3.875v-.796zm0 0"/></symbol><symbol overflow="visible" id="K"><path d="M1.031-3.688c1.032-.156 2.25-.687 2.625-1.515.39.828 1.61 1.36 2.656 1.516l.157-.344c-1.094-.14-2.547-.797-2.547-1.75v-.063h2.375v-.36h-5.25v.36h2.375v.063c0 .968-1.453 1.61-2.563 1.75zm4.625 3c0 .547-.781.891-1.984.891-1.219 0-2-.344-2-.89 0-.547.781-.875 2-.875 1.203 0 1.984.328 1.984.875zm1.219-2.125v-.359H.453v.36h3v.906c-1.39.047-2.203.468-2.203 1.218 0 .797.906 1.22 2.406 1.22 1.516 0 2.422-.423 2.422-1.22 0-.75-.812-1.187-2.203-1.218v-.907zm0 0"/></symbol><symbol overflow="visible" id="L"><path d="M1.047-4.453c0-.75.594-1.297 1.406-1.297.797 0 1.375.547 1.375 1.297 0 .734-.578 1.266-1.375 1.266-.812 0-1.406-.532-1.406-1.266zm3.203 0c0-.984-.75-1.656-1.797-1.656-1.062 0-1.812.671-1.812 1.656 0 .969.75 1.64 1.812 1.64 1.047 0 1.797-.671 1.797-1.64zM3.687.187c-1.14 0-1.874-.359-1.874-.937 0-.578.734-.938 1.875-.938 1.14 0 1.874.36 1.874.938s-.734.938-1.875.938zm0-2.234c-1.421 0-2.28.485-2.28 1.297 0 .828.859 1.281 2.28 1.281C5.11.531 5.985.078 5.985-.75c0-.813-.875-1.297-2.296-1.297zm2.235-2.625v-1.875H5.5v4.25h.422v-2h1.125v-.375zm0 0"/></symbol><symbol overflow="visible" id="M"><path d="M2.86-5.422h1.78v-.375H.689v.375h1.75v1.203c0 1.235-1.032 2.594-1.954 3.047l.266.344c.766-.422 1.594-1.39 1.89-2.453C2.97-2.25 3.798-1.391 4.595-1l.25-.344c-.953-.422-1.985-1.64-1.985-2.875zm2.937-1.125v7.11h.422v-7.11zm0 0"/></symbol><symbol overflow="visible" id="N"><path d="M3.594-3.234H1.219v-1.344h2.375zm.422-2.875h-.422v1.187H1.219v-1.187H.797v3.234h3.219zM3.687.187c-1.14 0-1.874-.343-1.874-.937 0-.563.734-.922 1.875-.922 1.14 0 1.874.36 1.874.922 0 .594-.734.938-1.875.938zm0-2.218c-1.421 0-2.28.469-2.28 1.281 0 .828.859 1.297 2.28 1.297C5.11.547 5.985.078 5.985-.75c0-.813-.875-1.281-2.296-1.281zm2.235-2.656v-1.86H5.5v4.313h.422v-2.079h1.125v-.375zm0 0"/></symbol><symbol overflow="visible" id="O"><path d="M.36 0h3.515v-.422H2.062c-.312 0-.64.031-.968.047 1.547-1.438 2.5-2.672 2.5-3.89 0-1-.61-1.673-1.625-1.673-.703 0-1.188.36-1.625.844l.281.282c.344-.422.797-.735 1.297-.735.828 0 1.203.578 1.203 1.297 0 1.063-.781 2.266-2.766 3.969zm0 0"/></symbol><symbol overflow="visible" id="P"><path d="M2.14.11c1.063 0 1.72-1 1.72-3.047 0-2.016-.657-3-1.72-3-1.062 0-1.718.984-1.718 3C.422-.892 1.078.108 2.14.108zm0-.391c-.75 0-1.25-.89-1.25-2.656 0-1.735.5-2.61 1.25-2.61s1.25.875 1.25 2.61c0 1.765-.5 2.656-1.25 2.656zm0 0"/></symbol><symbol overflow="visible" id="Q"><path d="M.734 0H3.75v-.406H2.531v-5.422h-.375c-.281.156-.64.281-1.11.36v.312h1.016v4.75H.734zm0 0"/></symbol><symbol overflow="visible" id="R"><path d="M5.813-1.25h.421v-5.297h-.421v1H3.624v.36h2.188v1.03H3.624v.345h2.188zM4.546-3.047c-1.172.219-2.14.266-3.14.266h-.11v-3.203H.875v3.578h.531c1.016 0 2-.063 3.188-.281zM2.203.031v-1.734h-.422V.39h4.672V.03zm0 0"/></symbol><symbol overflow="visible" id="S"><path d="M.984-2.375c.954-.219 2.25-.969 2.688-2.016.437 1.047 1.75 1.782 2.703 2l.188-.343C5.546-2.906 3.89-3.891 3.89-5.125v-.344h2.468v-.36H.984v.36h2.47v.344c0 1.234-1.642 2.234-2.657 2.406zm2.907 1.61v-1.813h-.422v1.812H.453v.36h6.438v-.36zm0 0"/></symbol><symbol overflow="visible" id="T"><path d="M1.75-1.938h-.438V.376h4.922v-.36H1.75zm4.078-1.265c.203-1.047.203-1.781.203-2.39v-.516h-4.75v.359H5.61v.156c0 .61 0 1.344-.218 2.39H.453v.36h6.438v-.36zm0 0"/></symbol><symbol overflow="visible" id="U"><path d="M4.219-4.625v.36h1.593v1.952h.422v-4.234h-.421v1.922zm.36 1.672c-.97-.36-1.782-1.25-1.782-2.219v-.437h1.656v-.36H.687v.36h1.688v.437c0 1.078-.86 2.047-1.844 2.422l.219.344c.828-.344 1.563-1.047 1.844-1.953.297.796.969 1.437 1.781 1.734zM3.937.203c-1.157 0-1.891-.36-1.891-.953 0-.594.734-.953 1.89-.953 1.172 0 1.922.36 1.922.953 0 .594-.75.953-1.921.953zm0-2.25c-1.438 0-2.329.469-2.329 1.297S2.5.547 3.938.547C5.39.547 6.265.078 6.265-.75S5.39-2.047 3.937-2.047zm0 0"/></symbol><symbol overflow="visible" id="V"><path d="M6.484-5.844H3.875v-.812h-.422v.812H.813v.36h5.671zm-1 1.797c0 .469-.703.766-1.828.766s-1.812-.297-1.812-.766c0-.469.687-.75 1.812-.75s1.828.281 1.828.75zm-4.062 0c0 .703.828 1.078 2.234 1.078 1.422 0 2.25-.375 2.25-1.078 0-.703-.828-1.078-2.25-1.078-1.406 0-2.234.375-2.234 1.078zm.312 2.64h-.437V.392h4.89V.03H1.734zM.454-2.452v.36h3.03v1.187h.422v-1.188h2.969v-.36zm0 0"/></symbol><symbol overflow="visible" id="W"><path d="M4.984-5.625H3.047v-.938h-.438v.938H.656v.36h4.328zm-3.421 2.14c0-.562.515-.953 1.265-.953.75 0 1.266.391 1.266.954 0 .562-.516.968-1.266.968s-1.265-.406-1.265-.968zm1.484 1.297C3.922-2.265 4.5-2.75 4.5-3.484c0-.797-.672-1.297-1.672-1.297-1 0-1.672.5-1.672 1.297 0 .75.578 1.234 1.453 1.296v.876c-.75.03-1.468.046-2.109.046l.063.36c1.343 0 3.093-.016 4.703-.281L5.234-1.5c-.703.094-1.453.14-2.187.172zm2.687-4.359V.547h.422v-7.094zm0 0"/></symbol><symbol overflow="visible" id="X"><path d="M2.719-5.422H4.39v-.375H.594v.375h1.703v1.188C2.297-3 1.28-1.641.359-1.172l.266.344c.766-.422 1.578-1.39 1.89-2.469.313 1 1.079 1.89 1.844 2.297l.25-.344c-.937-.453-1.89-1.734-1.89-2.89zm4.39 1.844H5.86v-2.969h-.421v7.11h.421V-3.22h1.25zm0 0"/></symbol><symbol overflow="visible" id="Y"><path d="M4.703-3.328c-1.187.203-2.156.25-3.375.25h-.11v-1.203h2.72v-1.813H.78v.36h2.75v1.109H.797v1.906h.531c1.25 0 2.203-.047 3.422-.234zM3.687.203c-1.14 0-1.874-.36-1.874-.922s.734-.906 1.875-.906c1.14 0 1.874.344 1.874.906 0 .563-.734.922-1.875.922zm0-2.172c-1.421 0-2.296.453-2.296 1.25 0 .813.875 1.266 2.296 1.266C5.125.547 5.985.094 5.985-.72c0-.797-.859-1.25-2.296-1.25zm2.235-2.718v-1.86H5.5v4.313h.422v-2.094h1.125v-.36zm0 0"/></symbol><symbol overflow="visible" id="Z"><path d="M6.516-2.86C5.5-3.062 3.859-4.124 3.859-5.437v-.578h-.437v.579c0 1.312-1.61 2.375-2.625 2.578l.187.359c.954-.25 2.22-1.031 2.657-2.14.453 1.109 1.734 1.906 2.671 2.14zM.453-.812v.36h6.438v-.36zm0 0"/></symbol><symbol overflow="visible" id="aa"><path d="M1.14-1.531V-3.47h2.735v-2.39H.719v.375h2.734v1.656H.734v2.656h.516c1.344 0 2.219-.047 3.297-.25l-.047-.36c-1.047.204-1.922.25-3.25.25zm4.673-5.016v2.828h-1.5v.36h1.5V.562h.421v-7.109zm0 0"/></symbol><symbol overflow="visible" id="ab"><path d="M3.656-5.984c1.203 0 2.016.421 2.016 1.046s-.813 1.032-2.016 1.032c-1.187 0-2-.406-2-1.031 0-.625.813-1.047 2-1.047zm0 2.437c1.5 0 2.453-.531 2.453-1.39 0-.875-.953-1.391-2.453-1.391-1.484 0-2.437.516-2.437 1.39 0 .86.953 1.391 2.437 1.391zm-1.922 1.89h-.421V.392h4.875V.016H1.734zM.438-2.843v.36h3.078v1.578h.421v-1.578h2.954v-.36zm0 0"/></symbol><symbol overflow="visible" id="ac"><path d="M1.688-4.281h3.968v1.5H1.688zM3.874-.75v-1.672h2.203v-3.594h-.422v1.375H1.688v-1.375H1.25v3.594h2.203V-.75h-3v.36h6.453v-.36zm0 0"/></symbol><symbol overflow="visible" id="ad"><path d="M5.813-2.313h.421v-4.234h-.421v1.64H4.125v.36h1.688zm-1.25-.734c-.985-.36-1.813-1.25-1.813-2.312v-.766h-.422v.781c0 1.157-.828 2.11-1.844 2.5L.72-2.5c.844-.344 1.547-1.047 1.828-1.953.297.812.984 1.422 1.765 1.734zM3.938.188c-1.157 0-1.891-.376-1.891-.97 0-.593.734-.968 1.89-.968 1.172 0 1.922.375 1.922.969s-.75.969-1.921.969zm0-2.282c-1.438 0-2.329.485-2.329 1.313C1.61.063 2.5.53 3.938.53 5.39.531 6.265.062 6.265-.78c0-.828-.875-1.313-2.329-1.313zm0 0"/></symbol><symbol overflow="visible" id="ae"><path d="M6.234-6.531h-.421v5.234h.421zM1.063-4.313c0-.765.593-1.328 1.39-1.328.797 0 1.39.563 1.39 1.329 0 .765-.593 1.359-1.39 1.359-.797 0-1.39-.594-1.39-1.36zm3.187 0c0-1-.75-1.718-1.797-1.718-1.031 0-1.797.718-1.797 1.718 0 1.016.766 1.735 1.797 1.735 1.047 0 1.797-.719 1.797-1.735zM2.187.032v-1.875h-.421V.391h4.703V.03zm0 0"/></symbol><symbol overflow="visible" id="ai"><path d="M5.594-3.89H1.75V-4.97h3.844zm.437-2.438h-.437v1.016H1.75v-1.016h-.438v2.797h4.72zM1.72-1.531h-.422V.39h4.875V.03H1.719zM.437-2.72v.344h3.047v1.531h.422v-1.531h2.985v-.344zm0 0"/></symbol><symbol overflow="visible" id="aj"><path d="M4.875-4.172h1.11v2.031h.421v-4.406h-.422v2.016H4.875v-1.875h-.406v4.031h.406zm-.89 1.078c-.876-.36-1.516-1.172-1.516-1.969v-1.046h-.406v1.046c0 .797-.657 1.75-1.547 2.141l.234.328c.719-.312 1.266-.984 1.516-1.687a2.67 2.67 0 0 0 1.5 1.5zM4.108.203c-1.156 0-1.906-.344-1.906-.906 0-.547.75-.89 1.906-.89 1.172 0 1.922.343 1.922.89 0 .562-.75.906-1.922.906zm0-2.14c-1.453 0-2.328.453-2.328 1.234C1.781.094 2.656.53 4.11.53c1.454 0 2.329-.437 2.329-1.234 0-.781-.875-1.235-2.329-1.235zm0 0"/></symbol><symbol overflow="visible" id="ak"><path d="M5.61-4.531H1.718v-1.422h3.89zm.421-1.766H1.313v2.125H6.03zm.844 3.203v-.344H.453v.344h3v.844H1.25v.344h4.36v.797H1.265V.453H6.25V.11H1.687v-.89h4.344V-2.25H3.875v-.844zm0 0"/></symbol><symbol overflow="visible" id="al"><path d="M3.594-3.156H1.219v-1.375h2.375zm.422-2.953h-.422v1.218H1.219v-1.218H.797v3.312h3.219zM1.39-1.47H5.5V.563h.422v-2.391H1.39zm5.656-3.156H5.922v-1.922H5.5v4.297h.422v-2.016h1.125zm0 0"/></symbol><symbol overflow="visible" id="am"><path d="M1.047-4.453c0-.75.594-1.297 1.39-1.297.813 0 1.391.547 1.391 1.297 0 .734-.578 1.281-1.39 1.281-.797 0-1.391-.547-1.391-1.281zm3.203 0c0-1-.75-1.656-1.813-1.656-1.046 0-1.796.656-1.796 1.656 0 .984.75 1.64 1.796 1.64 1.063 0 1.813-.656 1.813-1.64zM1.39-1.578H5.5v2.14h.422v-2.5H1.39zm5.641-3.438v-.359h-1.11v-1.172H5.5v4.234h.422V-3.5h1.11v-.36h-1.11v-1.156zm0 0"/></symbol><symbol overflow="visible" id="ap"><path d="M3.656.188c-1.203 0-1.984-.344-1.984-.938 0-.563.781-.922 1.984-.922 1.219 0 2 .36 2 .922 0 .594-.781.938-2 .938zm0-2.204c-1.5 0-2.406.454-2.406 1.266 0 .828.906 1.281 2.406 1.281C5.172.531 6.078.078 6.078-.75c0-.813-.906-1.266-2.422-1.266zm.219-1v-1.078h2.266v-.36H1.797V-6.39h-.422v2.297h2.078v1.078H.47v.36h6.406v-.36zm0 0"/></symbol><symbol overflow="visible" id="aq"><path d="M1.188-5.453h2.359v3.812h-2.36zM.78-1.297h3.172v-4.516H.781zM7.11-3.609H5.86v-2.938h-.421V.547h.421V-3.25h1.25zm0 0"/></symbol><symbol overflow="visible" id="ar"><path d="M1.078-5.031l.063.36 4.453-.204c-.032.281-.063.61-.14 1l.421.016c.172-.844.172-1.5.172-1.985v-.453H1.234v.36h4.391v.093c0 .188 0 .407-.016.64zm.61 4.265H6.03V-2.25H1.25v.328h4.36v.828H1.265V.438H6.25V.094H1.687zm1.937-2.609v-.953h-.422v.953H.453v.36h6.422v-.36zm0 0"/></symbol><symbol overflow="visible" id="as"><path d="M.86-5.781v.36h2.734c-.016.5-.11.968-.266 1.421L.5-3.797l.094.39 2.61-.25C2.733-2.608 1.89-1.702.5-1.03l.25.36c2.469-1.22 3.266-3.126 3.266-5.11zm4.952-.766v2.922H3.984v.36h1.829V.546h.421v-7.094zm0 0"/></symbol><symbol overflow="visible" id="at"><path d="M5.61-3.781H1.733v-2.016H5.61zm.421-2.36H1.313v2.72H6.03zm.86 3.797H.437v.36h1.75V.625h.422v-2.61h2.125v2.61h.422v-2.61h1.735zm0 0"/></symbol><symbol overflow="visible" id="au"><path d="M1.375-1.703v-4.14H.953v4.53H1.5c1.156 0 2.25-.109 3.484-.359l-.062-.375c-1.203.266-2.313.344-3.422.344zm4.406-4.844v7.11h.422v-7.11zm0 0"/></symbol><symbol overflow="visible" id="av"><path d="M4.563-3.656H3.218c.234-.672.328-1.36.328-2.031H.844v.359h2.281c-.016.453-.078.89-.219 1.312L.5-3.844l.078.39 2.219-.218c-.375.906-1.063 1.766-2.266 2.39l.25.329c1.172-.64 1.875-1.469 2.297-2.36h1.485V.172h.406V-6.36h-.407zm1.484-2.89V.562h.406v-7.11zm0 0"/></symbol><symbol overflow="visible" id="aw"><path d="M5.797-6.547v7.11h.422v-7.11zm-3.281.578C1.484-5.969.75-5.016.75-3.53c0 1.484.734 2.437 1.766 2.437 1.03 0 1.765-.953 1.765-2.437 0-1.485-.734-2.438-1.765-2.438zm0 .375c.796 0 1.359.844 1.359 2.063 0 1.219-.563 2.078-1.36 2.078-.796 0-1.359-.86-1.359-2.078 0-1.219.563-2.063 1.36-2.063zm0 0"/></symbol><symbol overflow="visible" id="ax"><path d="M5.813-1.219h.421V-6.53h-.421v1.11H4.234v.359h1.579v1.156H4.234v.36h1.579zM4.546-2.734C3.563-3.125 2.75-4.11 2.75-5.188v-.968h-.422v.968C2.328-4.03 1.484-3 .5-2.594l.234.344a3.303 3.303 0 0 0 1.813-2.031 3.313 3.313 0 0 0 1.75 1.89zM2.187.03V-1.78h-.421V.39h4.656V.03zm0 0"/></symbol><symbol overflow="visible" id="ay"><path d="M4.078-4.203v.36h1.734v2.609h.422v-5.297h-.421v2.328zm-3.11-1.75v.36h2.657a3.342 3.342 0 0 1-.203.984l-2.797.14.094.375 2.547-.187c-.438.797-1.282 1.453-2.579 1.875l.188.36c2.203-.75 3.203-2.157 3.203-3.907zM2.314.03V-1.78H1.89V.39h4.578V.03zm0 0"/></symbol><symbol overflow="visible" id="az"><path d="M5.813-2.844h.421v-3.703h-.421v1.438H4.125v.359h1.688zm-1.266-.531c-.969-.344-1.828-1.219-1.828-2.203v-.75h-.406v.75c0 1.11-.829 2.031-1.829 2.39l.235.329c.812-.313 1.531-.985 1.812-1.844.313.766 1.016 1.375 1.797 1.656zM2.172.094V-.86h4.062v-1.579h-4.5v.344h4.094v.89H1.766V.454h4.78v-.36zm0 0"/></symbol><symbol overflow="visible" id="aA"><path d="M6.234-6.531h-.421v4.453h.421zM4.86-3.266c-1.015.172-1.843.204-3.437.204h-.125V-4.22h2.75v-.343h-2.75v-1.079h2.937v-.375H.875v3.313h.547c1.61 0 2.437-.031 3.484-.219zM3.906.188C2.734.188 1.97-.156 1.97-.72c0-.562.765-.906 1.937-.906 1.188 0 1.938.344 1.938.906 0 .563-.75.906-1.938.906zm0-2.172c-1.453 0-2.36.453-2.36 1.265 0 .797.907 1.25 2.36 1.25 1.469 0 2.36-.453 2.36-1.25 0-.812-.891-1.265-2.36-1.265zm0 0"/></symbol><symbol overflow="visible" id="aE"><path d="M.984-4.344c0-.765.594-1.36 1.391-1.36s1.39.595 1.39 1.36c0 .797-.593 1.39-1.39 1.39-.797 0-1.39-.593-1.39-1.39zm4.829-.672v1.344h-1.75c.078-.203.109-.422.109-.672 0-.234-.047-.468-.11-.672zm0 1.704v2.046h.421v-5.28h-.421v1.171H3.859c-.328-.422-.843-.703-1.484-.703-1.031 0-1.797.719-1.797 1.734 0 1.047.766 1.75 1.797 1.75.64 0 1.172-.265 1.5-.719zM2.219.03v-1.843h-.422V.39h4.656V.03zm0 0"/></symbol><symbol overflow="visible" id="aF"><path d="M4.11-2.578c.218-1.406.218-2.375.218-2.89v-.266H.781v.359h3.125c0 .516-.015 1.453-.219 2.75zM2.436-3.703h-.421v2.234c-.579.016-1.141.016-1.641.016l.063.375c1.28 0 2.984-.031 4.484-.266l-.031-.312c-.766.11-1.625.156-2.454.172zm4.626.187h-1.25v-3.03H5.39V.562h.421v-3.688h1.25zm0 0"/></symbol><symbol overflow="visible" id="aG"><path d="M3.563-3.25H1.219v-2.39h2.343zm2.25-1.719v1.047H3.968v-1.047zM3.968-3.562h1.844v1.25h.421v-4.235h-.421v1.219H3.968v-.656H.813v3.093h3.156zM3.938.188c-1.157 0-1.891-.36-1.891-.97 0-.593.734-.968 1.89-.968 1.172 0 1.922.375 1.922.969 0 .61-.75.969-1.921.969zm0-2.282c-1.438 0-2.329.485-2.329 1.313C1.61.063 2.5.53 3.938.53 5.39.531 6.265.062 6.265-.78c0-.828-.875-1.313-2.329-1.313zm0 0"/></symbol><symbol overflow="visible" id="aH"><path d="M5.61-3.578H1.733v-1.25H5.61zm.437-2.672h-.438v1.078H1.734V-6.25h-.437v3.031h4.75zm.844 3.984H.437v.36h3V.562h.422v-2.468h3.032zm0 0"/></symbol><symbol overflow="visible" id="aI"><path d="M6.484-5.703H3.875v-.906h-.422v.906H.797v.36h5.687zm-1.03 2.016c0 .515-.688.843-1.798.843-1.094 0-1.797-.328-1.797-.844 0-.515.704-.828 1.797-.828 1.11 0 1.797.313 1.797.829zm-4.032 0c0 .75.844 1.171 2.234 1.171 1.406 0 2.235-.421 2.235-1.171 0-.735-.829-1.157-2.235-1.157-1.39 0-2.234.422-2.234 1.157zm5.484 1.75H.453v.359h3v2.14h.422v-2.14h3.031zm0 0"/></symbol><symbol overflow="visible" id="aJ"><path d="M3.656-5.89c1.188 0 2 .468 2 1.171 0 .688-.812 1.172-2 1.172-1.172 0-2-.484-2-1.172 0-.703.828-1.172 2-1.172zm0 2.702c1.469 0 2.438-.593 2.438-1.53 0-.938-.969-1.516-2.438-1.516-1.469 0-2.437.578-2.437 1.515 0 .938.968 1.532 2.437 1.532zm3.235.735H.453v.36H2.22v2.64h.437v-2.64h2v2.64h.438v-2.64H6.89zm0 0"/></symbol><symbol overflow="visible" id="aK"><path d="M1.063-3.875l.078.375 4.421-.266c-.03.547-.109 1.141-.265 1.86l.437.047c.282-1.407.282-2.36.282-3.235v-.703H1.25v.36h4.344v.343c0 .328 0 .64-.016 1zM3.5-.859v-1.938h-.406v1.938H.454V-.5h6.421v-.36zm0 0"/></symbol><symbol overflow="visible" id="aL"><path d="M6.11-3.063H1.733v-2.421h4.313v-.36H1.313v3.14h4.796zM.452-.828v.36h6.438v-.36zm0 0"/></symbol><symbol overflow="visible" id="aM"><path d="M6.219-6.547h-.422v4.11h.422zM3.656-3.578H1.25v-2.14h2.406zm.406-2.5H.829v2.86h3.235zm.22 4.531h2.155v-.344H4.281v-.765h-.437v.765H1.719v.344h2.125v.078c0 .813-1.39 1.516-2.422 1.657l.156.343C2.547.36 3.656-.172 4.062-.89 4.454-.17 5.532.36 6.517.531l.14-.344C5.625.032 4.281-.671 4.281-1.468zm0 0"/></symbol><symbol overflow="visible" id="aN"><path d="M6.219-6.547h-.422v3.703h.422zM4.75-3.359c-1-.329-1.875-1.157-1.875-2.157v-.234h1.734v-.36H.703v.36h1.75v.234c0 1.047-.875 1.954-1.86 2.313l.204.328c.844-.313 1.578-.984 1.875-1.844.297.797 1.047 1.407 1.875 1.688zM2.156.109v-.984h4.078v-1.578H1.72v.344h4.093v.906H1.75V.453h4.766V.11zm0 0"/></symbol><symbol overflow="visible" id="aO"><path d="M4.734-5.781H2.891v-.782h-.422v.782H.609v.343h4.125zm-3.28 1.797c0-.47.484-.766 1.218-.766s1.219.297 1.219.766c0 .453-.485.765-1.22.765-.733 0-1.218-.312-1.218-.765zM4.968-2.5a28.38 28.38 0 0 1-2.078.203v-.61c.843-.046 1.39-.452 1.39-1.077 0-.672-.64-1.094-1.61-1.094-.968 0-1.608.422-1.608 1.094 0 .625.546 1.03 1.406 1.078v.625c-.735.031-1.438.031-2.031.031l.062.375c1.25-.016 2.984-.031 4.5-.313zM1.953-1.36h-.422V.39h4.61V.032H1.953zm3.922-2.609v-2.578h-.422v5.563h.422V-3.61h1.14v-.36zm0 0"/></symbol><symbol overflow="visible" id="aP"><path d="M6.875-2.984h-1.11c.204-1.047.204-1.797.204-2.47v-.609H1.297v.36h4.25v.25c0 .672 0 1.422-.234 2.469H.452v.359h3V.563h.422v-3.188h3zm0 0"/></symbol><symbol overflow="visible" id="aQ"><path d="M4.625-3.328c-1.016.203-1.86.25-3.281.25h-.11v-2.469h2.704v-.36H.812v3.188h.532c1.437 0 2.297-.047 3.343-.25zm-2.61 1.437h-.421V.391H6.28V.03H2.016zm3.907-2.453v-2.218H5.5v5.156h.422V-3.97h1.125v-.375zm0 0"/></symbol><symbol overflow="visible" id="aU"><path d="M2.766-6C1.656-6 .89-5.344.89-4.375S1.656-2.75 2.766-2.75c1.109 0 1.875-.656 1.875-1.625S3.875-6 2.766-6zm0 .375c.843 0 1.468.516 1.468 1.25s-.625 1.25-1.468 1.25c-.844 0-1.47-.516-1.47-1.25s.626-1.25 1.47-1.25zm2.968-.922v7.11h.422v-7.11zM.563-1.078c1.296 0 3.062 0 4.703-.297l-.047-.328c-1.578.25-3.39.266-4.719.266zm0 0"/></symbol><symbol overflow="visible" id="aV"><path d="M4.766-5.64H2.844v-.907h-.422v.906H.484v.36h4.282zM1.39-3.485c0-.563.5-.954 1.234-.954.75 0 1.25.391 1.25.954 0 .562-.5.968-1.25.968-.734 0-1.234-.406-1.234-.968zm1.453 1.296c.86-.078 1.422-.562 1.422-1.296 0-.797-.657-1.297-1.641-1.297S1-4.281 1-3.484c0 .734.563 1.218 1.422 1.296v.891c-.735.031-1.453.031-2.047.031l.078.36c1.266 0 2.953-.016 4.516-.281l-.032-.329c-.671.11-1.39.157-2.093.204zm4.219-1.265H5.827v-3.094h-.422V.547h.422v-3.625h1.234zm0 0"/></symbol><symbol overflow="visible" id="aW"><path d="M3.938-2.61c.078-.28.109-.578.109-.921 0-.36-.047-.703-.125-.985h1.89v1.907zM2.312-1.452c-.78 0-1.328-.86-1.328-2.078 0-1.219.547-2.063 1.329-2.063.796 0 1.328.844 1.328 2.063 0 1.219-.532 2.078-1.329 2.078zm3.5-5.094v1.672H3.797c-.281-.688-.813-1.094-1.485-1.094-1.015 0-1.718.953-1.718 2.438 0 1.484.703 2.437 1.719 2.437.687 0 1.234-.422 1.515-1.156h1.985V.563h.421v-7.11zm0 0"/></symbol><symbol overflow="visible" id="ba"><path d="M1.938 1.547l.28-.14C1.532.28 1.173-1.079 1.173-2.47c0-1.375.36-2.734 1.047-3.86l-.281-.155C1.203-5.297.766-4.031.766-2.47c0 1.563.437 2.844 1.171 4.016zm0 0"/></symbol><symbol overflow="visible" id="bb"><path d="M1.047-3.14c.984-.204 2.203-.829 2.61-1.75.421.921 1.64 1.546 2.624 1.75l.172-.344c-1.062-.172-2.562-1-2.562-2.063v-.156h2.343v-.36H1.078v.36h2.36v.156c0 1.063-1.516 1.89-2.563 2.063zm5.828.718H.453v.344h2.985V.547h.421v-2.625h3.016zm0 0"/></symbol><symbol overflow="visible" id="bc"><path d="M.578 1.547C1.313.375 1.75-.906 1.75-2.47c0-1.562-.438-2.828-1.172-4.015l-.281.156c.687 1.125 1.062 2.484 1.062 3.86 0 1.39-.375 2.75-1.062 3.874zm0 0"/></symbol><symbol overflow="visible" id="bd"><path d="M4-5.875h-.406v1.844c0 .703-.188 1.797-.813 2.453-.656-.688-.828-1.813-.828-2.453v-1.844h-.406v1.844c0 .781-.313 2.015-1.156 2.61l.28.312c.563-.407.907-1.125 1.079-1.829.14.72.453 1.47 1.031 1.891.578-.406.875-1.14 1.016-1.86.172.704.515 1.407 1.094 1.813l.265-.328C4.313-1.984 4-3.203 4-4.032zm1.86-.672v7.11h.421v-7.11zm0 0"/></symbol><symbol overflow="visible" id="be"><path d="M6.406-6.547h-.422v5.328h.422zM.938-4.28c0-.75.515-1.313 1.218-1.313s1.235.563 1.235 1.313S2.859-2.97 2.156-2.97C1.453-2.969.937-3.53.937-4.28zm3.75.187v2.672h.406V-6.39h-.407v1.938h-.921C3.687-5.36 3.03-5.97 2.156-5.97c-.937 0-1.61.688-1.61 1.688s.673 1.687 1.61 1.687c.875 0 1.516-.61 1.61-1.5zM2.28.031v-1.937H1.86V.39h4.782V.03zm0 0"/></symbol><symbol overflow="visible" id="bf"><path d="M1.063-4.703c0-.688.578-1.203 1.375-1.203.78 0 1.374.515 1.374 1.203 0 .687-.593 1.203-1.374 1.203-.797 0-1.376-.516-1.376-1.203zm3.171 0c0-.922-.75-1.563-1.796-1.563C1.39-6.266.64-5.625.64-4.703c0 .922.75 1.562 1.796 1.562 1.047 0 1.797-.64 1.797-1.562zM1.954-.906h3.968v-1.61H1.516v.36h4v.906H1.53V.453H6.22v-.36H1.953zm3.968-4.016v-1.625H5.5v3.656h.422v-1.671h1.11v-.36zm0 0"/></symbol><symbol overflow="visible" id="bg"><path d="M2.969-4.906h1.734v-.36H2.984v-1.171h-.421v1.171H.813v.36h1.75v.703c0 1.344-.922 2.562-1.907 3.031l.25.328c.797-.422 1.563-1.281 1.875-2.344.313 1.016 1.078 1.829 1.875 2.22l.266-.345c-.984-.437-1.953-1.593-1.953-2.89zm2.828-1.64V.562h.422v-7.11zm0 0"/></symbol><symbol overflow="visible" id="bh"><path d="M2.797-2.61H4.53v1.891H2.797zm-.14-2.859H4.64v2.5H2.656zm2.296 4.75v-1.89H6.25v-.36H5.062v-2.5H6.25v-.36H1.062v.36H2.25v2.5H1.062v.36h1.313v1.89H.453v.36h6.453v-.36zm0 0"/></symbol><symbol overflow="visible" id="bj"><path d="M1.953 0h.813v-5.328H1.484l-.437.75h.906zm0 0"/></symbol><symbol overflow="visible" id="bk"><path d="M2.734-5.516L1.281-3.609c-.234.312-.437.546-.64.953a2.17 2.17 0 0 0-.25 1.015c0 .516.187.907.453 1.204.406.421.89.53 1.36.53.343 0 .905-.062 1.343-.515.344-.344.515-.86.515-1.344 0-.484-.187-.937-.468-1.25C3.39-3.234 3-3.5 2.39-3.5c-.11 0-.204 0-.329.031l1.25-1.61zm-.5 2.704c.266 0 .563.109.735.296.203.204.312.532.312.797 0 .266-.11.594-.312.797a1.097 1.097 0 0 1-.735.297c-.28 0-.593-.14-.75-.297-.203-.203-.312-.531-.312-.797 0-.343.14-.625.312-.797.188-.187.485-.296.75-.296zm0 0"/></symbol></defs><g fill="#231f20"><use xlink:href="#a" x="45.461" y="237.401"/><use xlink:href="#b" x="54.458" y="237.401"/><use xlink:href="#c" x="63.454" y="237.401"/></g><use xlink:href="#d" x="45.461" y="253.636" fill="#231f20"/><g fill="#231f20"><use xlink:href="#e" x="47.844" y="253.636"/><use xlink:href="#f" x="49.46" y="253.636"/><use xlink:href="#g" x="56.657" y="253.636"/><use xlink:href="#h" x="63.854" y="253.636"/><use xlink:href="#e" x="71.052" y="253.636"/><use xlink:href="#i" x="72.667" y="253.636"/><use xlink:href="#j" x="79.864" y="253.636"/><use xlink:href="#k" x="87.061" y="253.636"/><use xlink:href="#l" x="94.259" y="253.636"/><use xlink:href="#m" x="101.456" y="253.636"/><use xlink:href="#h" x="108.653" y="253.636"/><use xlink:href="#n" x="115.851" y="253.636"/><use xlink:href="#o" x="123.048" y="253.636"/><use xlink:href="#e" x="130.245" y="253.636"/><use xlink:href="#f" x="131.861" y="253.636"/><use xlink:href="#g" x="139.058" y="253.636"/><use xlink:href="#h" x="146.255" y="253.636"/></g><use xlink:href="#d" x="45.461" y="268.63" fill="#231f20"/><g fill="#231f20"><use xlink:href="#e" x="47.844" y="268.63"/><use xlink:href="#p" x="49.46" y="268.63"/><use xlink:href="#q" x="56.657" y="268.63"/><use xlink:href="#k" x="63.854" y="268.63"/><use xlink:href="#r" x="71.052" y="268.63"/><use xlink:href="#s" x="78.249" y="268.63"/><use xlink:href="#e" x="85.446" y="268.63"/><use xlink:href="#l" x="87.061" y="268.63"/><use xlink:href="#r" x="94.259" y="268.63"/><use xlink:href="#t" x="101.456" y="268.63"/><use xlink:href="#u" x="108.653" y="268.63"/><use xlink:href="#k" x="115.851" y="268.63"/><use xlink:href="#r" x="123.048" y="268.63"/><use xlink:href="#v" x="130.245" y="268.63"/><use xlink:href="#e" x="137.442" y="268.63"/><use xlink:href="#w" x="139.058" y="268.63"/><use xlink:href="#x" x="146.255" y="268.63"/><use xlink:href="#s" x="153.452" y="268.63"/><use xlink:href="#y" x="160.65" y="268.63"/></g><use xlink:href="#d" x="45.461" y="283.624" fill="#231f20"/><g fill="#231f20"><use xlink:href="#e" x="47.844" y="283.624"/><use xlink:href="#z" x="49.46" y="283.624"/><use xlink:href="#A" x="56.657" y="283.624"/><use xlink:href="#B" x="60.775" y="283.624"/><use xlink:href="#k" x="64.894" y="283.624"/><use xlink:href="#e" x="72.091" y="283.624"/><use xlink:href="#k" x="73.707" y="283.624"/><use xlink:href="#C" x="80.904" y="283.624"/><use xlink:href="#D" x="88.101" y="283.624"/><use xlink:href="#E" x="95.298" y="283.624"/><use xlink:href="#e" x="102.496" y="283.624"/><use xlink:href="#C" x="104.111" y="283.624"/><use xlink:href="#D" x="111.308" y="283.624"/><use xlink:href="#F" x="118.506" y="283.624"/><use xlink:href="#G" x="125.703" y="283.624"/></g><use xlink:href="#d" x="45.461" y="297.499" fill="#231f20"/><g fill="#231f20"><use xlink:href="#e" x="47.844" y="297.499"/><use xlink:href="#z" x="49.46" y="297.499"/><use xlink:href="#H" x="56.657" y="297.499"/><use xlink:href="#A" x="60.775" y="297.499"/><use xlink:href="#k" x="64.894" y="297.499"/><use xlink:href="#e" x="72.091" y="297.499"/><use xlink:href="#I" x="73.707" y="297.499"/><use xlink:href="#J" x="80.904" y="297.499"/><use xlink:href="#K" x="88.101" y="297.499"/><use xlink:href="#L" x="95.298" y="297.499"/><use xlink:href="#M" x="102.496" y="297.499"/><use xlink:href="#N" x="109.693" y="297.499"/><use xlink:href="#C" x="116.89" y="297.499"/><use xlink:href="#D" x="124.087" y="297.499"/><use xlink:href="#E" x="131.285" y="297.499"/><use xlink:href="#e" x="138.482" y="297.499"/><use xlink:href="#C" x="140.097" y="297.499"/><use xlink:href="#h" x="147.295" y="297.499"/><use xlink:href="#G" x="154.492" y="297.499"/></g><use xlink:href="#d" x="45.461" y="312.493" fill="#231f20"/><g fill="#231f20"><use xlink:href="#e" x="47.844" y="312.493"/><use xlink:href="#O" x="49.46" y="312.493"/><use xlink:href="#P" x="53.578" y="312.493"/><use xlink:href="#Q" x="57.697" y="312.493"/><use xlink:href="#O" x="61.815" y="312.493"/><use xlink:href="#R" x="65.933" y="312.493"/><use xlink:href="#e" x="73.131" y="312.493"/><use xlink:href="#E" x="74.746" y="312.493"/><use xlink:href="#S" x="81.943" y="312.493"/><use xlink:href="#T" x="89.141" y="312.493"/><use xlink:href="#U" x="96.338" y="312.493"/><use xlink:href="#V" x="103.535" y="312.493"/><use xlink:href="#G" x="110.733" y="312.493"/></g><use xlink:href="#d" x="45.461" y="327.488" fill="#231f20"/><g fill="#231f20"><use xlink:href="#e" x="47.844" y="327.488"/><use xlink:href="#O" x="49.46" y="327.488"/><use xlink:href="#P" x="53.578" y="327.488"/><use xlink:href="#Q" x="57.697" y="327.488"/><use xlink:href="#Q" x="61.815" y="327.488"/><use xlink:href="#R" x="65.933" y="327.488"/><use xlink:href="#e" x="73.131" y="327.488"/><use xlink:href="#z" x="74.746" y="327.488"/><use xlink:href="#Q" x="81.943" y="327.488"/><use xlink:href="#B" x="86.062" y="327.488"/><use xlink:href="#W" x="90.18" y="327.488"/><use xlink:href="#e" x="97.378" y="327.488"/><use xlink:href="#X" x="98.993" y="327.488"/><use xlink:href="#Y" x="106.19" y="327.488"/><use xlink:href="#Z" x="113.388" y="327.488"/><use xlink:href="#aa" x="120.585" y="327.488"/><use xlink:href="#ab" x="127.782" y="327.488"/><use xlink:href="#e" x="134.979" y="327.488"/><use xlink:href="#ac" x="136.595" y="327.488"/><use xlink:href="#ad" x="143.792" y="327.488"/><use xlink:href="#ae" x="150.989" y="327.488"/><use xlink:href="#j" x="158.187" y="327.488"/><use xlink:href="#e" x="165.384" y="327.488"/><use xlink:href="#y" x="166.999" y="327.488"/><use xlink:href="#j" x="174.197" y="327.488"/></g><g fill="#231f20"><use xlink:href="#af" x="423.036" y="238.422"/><use xlink:href="#ag" x="432.033" y="238.422"/></g><use xlink:href="#ah" x="441.029" y="238.422" fill="#231f20"/><use xlink:href="#d" x="423.036" y="254.656" fill="#231f20"/><g fill="#231f20"><use xlink:href="#e" x="425.419" y="254.656"/><use xlink:href="#ai" x="427.035" y="254.656"/><use xlink:href="#X" x="434.232" y="254.656"/><use xlink:href="#aj" x="441.429" y="254.656"/><use xlink:href="#ak" x="448.627" y="254.656"/><use xlink:href="#r" x="455.824" y="254.656"/><use xlink:href="#e" x="463.021" y="254.656"/><use xlink:href="#al" x="464.637" y="254.656"/><use xlink:href="#h" x="471.834" y="254.656"/></g><use xlink:href="#e" x="479.031" y="254.656" fill="#231f20"/><use xlink:href="#d" x="423.036" y="269.65" fill="#231f20"/><g fill="#231f20"><use xlink:href="#e" x="425.419" y="269.65"/><use xlink:href="#I" x="427.035" y="269.65"/><use xlink:href="#J" x="434.232" y="269.65"/><use xlink:href="#k" x="441.429" y="269.65"/><use xlink:href="#r" x="448.627" y="269.65"/><use xlink:href="#s" x="455.824" y="269.65"/><use xlink:href="#e" x="463.021" y="269.65"/><use xlink:href="#am" x="464.637" y="269.65"/><use xlink:href="#r" x="471.834" y="269.65"/><use xlink:href="#k" x="479.031" y="269.65"/><use xlink:href="#r" x="486.228" y="269.65"/><use xlink:href="#e" x="493.426" y="269.65"/><use xlink:href="#s" x="495.041" y="269.65"/></g><use xlink:href="#y" x="502.238" y="269.65" fill="#231f20"/><g fill="#231f20"><use xlink:href="#af" x="234.248" y="493.811"/><use xlink:href="#an" x="243.245" y="493.811"/></g><use xlink:href="#ao" x="252.241" y="493.811" fill="#231f20"/><use xlink:href="#d" x="234.248" y="510.046" fill="#231f20"/><g fill="#231f20"><use xlink:href="#e" x="236.631" y="510.046"/><use xlink:href="#ap" x="238.247" y="510.046"/><use xlink:href="#r" x="245.444" y="510.046"/><use xlink:href="#e" x="252.641" y="510.046"/><use xlink:href="#al" x="254.257" y="510.046"/><use xlink:href="#h" x="261.454" y="510.046"/></g><use xlink:href="#e" x="268.651" y="510.046" fill="#231f20"/><use xlink:href="#d" x="234.248" y="525.04" fill="#231f20"/><g fill="#231f20"><use xlink:href="#e" x="236.631" y="525.04"/><use xlink:href="#aq" x="238.247" y="525.04"/><use xlink:href="#ar" x="245.444" y="525.04"/><use xlink:href="#as" x="252.641" y="525.04"/><use xlink:href="#at" x="259.839" y="525.04"/><use xlink:href="#au" x="267.036" y="525.04"/><use xlink:href="#av" x="274.233" y="525.04"/><use xlink:href="#aw" x="281.43" y="525.04"/><use xlink:href="#ax" x="288.628" y="525.04"/><use xlink:href="#e" x="295.825" y="525.04"/><use xlink:href="#ay" x="297.44" y="525.04"/><use xlink:href="#az" x="304.638" y="525.04"/><use xlink:href="#aA" x="311.835" y="525.04"/><use xlink:href="#e" x="319.032" y="525.04"/><use xlink:href="#p" x="320.648" y="525.04"/></g><use xlink:href="#u" x="327.845" y="525.04" fill="#231f20"/><g fill="#231f20"><use xlink:href="#aB" x="423.035" y="492.792"/><use xlink:href="#aC" x="432.032" y="492.792"/></g><use xlink:href="#aD" x="441.028" y="492.792" fill="#231f20"/><use xlink:href="#d" x="423.035" y="509.026" fill="#231f20"/><g fill="#231f20"><use xlink:href="#e" x="425.418" y="509.026"/><use xlink:href="#aw" x="427.034" y="509.026"/><use xlink:href="#r" x="434.231" y="509.026"/><use xlink:href="#e" x="441.428" y="509.026"/><use xlink:href="#al" x="443.044" y="509.026"/></g><use xlink:href="#h" x="450.241" y="509.026" fill="#231f20"/><use xlink:href="#d" x="423.035" y="524.021" fill="#231f20"/><g fill="#231f20"><use xlink:href="#e" x="425.418" y="524.021"/><use xlink:href="#I" x="427.034" y="524.021"/><use xlink:href="#J" x="434.231" y="524.021"/><use xlink:href="#k" x="441.428" y="524.021"/><use xlink:href="#r" x="448.626" y="524.021"/><use xlink:href="#s" x="455.823" y="524.021"/><use xlink:href="#e" x="463.02" y="524.021"/><use xlink:href="#X" x="464.636" y="524.021"/><use xlink:href="#aE" x="471.833" y="524.021"/><use xlink:href="#aF" x="479.03" y="524.021"/><use xlink:href="#r" x="486.227" y="524.021"/><use xlink:href="#k" x="493.425" y="524.021"/><use xlink:href="#r" x="500.622" y="524.021"/><use xlink:href="#e" x="507.819" y="524.021"/><use xlink:href="#aj" x="509.435" y="524.021"/><use xlink:href="#aG" x="516.632" y="524.021"/><use xlink:href="#aF" x="523.829" y="524.021"/><use xlink:href="#r" x="531.026" y="524.021"/><use xlink:href="#aH" x="538.224" y="524.021"/><use xlink:href="#e" x="545.421" y="524.021"/><use xlink:href="#s" x="547.036" y="524.021"/></g><use xlink:href="#y" x="554.234" y="524.021" fill="#231f20"/><use xlink:href="#d" x="423.035" y="539.015" fill="#231f20"/><g fill="#231f20"><use xlink:href="#e" x="425.418" y="539.015"/><use xlink:href="#aI" x="427.034" y="539.015"/><use xlink:href="#ad" x="434.231" y="539.015"/><use xlink:href="#aJ" x="441.428" y="539.015"/><use xlink:href="#t" x="448.626" y="539.015"/><use xlink:href="#aK" x="455.823" y="539.015"/><use xlink:href="#aL" x="463.02" y="539.015"/><use xlink:href="#e" x="470.217" y="539.015"/><use xlink:href="#aM" x="471.833" y="539.015"/><use xlink:href="#e" x="479.03" y="539.015"/><use xlink:href="#aN" x="480.646" y="539.015"/><use xlink:href="#aO" x="487.843" y="539.015"/><use xlink:href="#e" x="495.04" y="539.015"/><use xlink:href="#aE" x="496.655" y="539.015"/><use xlink:href="#aP" x="503.853" y="539.015"/><use xlink:href="#aQ" x="511.05" y="539.015"/><use xlink:href="#e" x="518.247" y="539.015"/><use xlink:href="#aQ" x="519.863" y="539.015"/></g><use xlink:href="#G" x="527.06" y="539.015" fill="#231f20"/><g fill="#231f20"><use xlink:href="#aR" x="234.248" y="748.183"/><use xlink:href="#aS" x="243.245" y="748.183"/></g><use xlink:href="#aT" x="252.241" y="748.183" fill="#231f20"/><use xlink:href="#e" x="234.248" y="764.417" fill="#231f20"/><use xlink:href="#d" x="235.864" y="764.417" fill="#231f20"/><g fill="#231f20"><use xlink:href="#e" x="238.247" y="764.417"/><use xlink:href="#y" x="239.862" y="764.417"/><use xlink:href="#aU" x="247.059" y="764.417"/><use xlink:href="#r" x="254.257" y="764.417"/><use xlink:href="#e" x="261.454" y="764.417"/><use xlink:href="#al" x="263.069" y="764.417"/></g><use xlink:href="#h" x="270.267" y="764.417" fill="#231f20"/><use xlink:href="#e" x="234.248" y="779.411" fill="#231f20"/><use xlink:href="#d" x="235.864" y="779.411" fill="#231f20"/><g fill="#231f20"><use xlink:href="#e" x="238.247" y="779.411"/><use xlink:href="#aw" x="239.862" y="779.411"/><use xlink:href="#aV" x="247.059" y="779.411"/><use xlink:href="#aW" x="254.257" y="779.411"/><use xlink:href="#X" x="261.454" y="779.411"/><use xlink:href="#k" x="268.651" y="779.411"/><use xlink:href="#r" x="275.849" y="779.411"/><use xlink:href="#s" x="283.046" y="779.411"/><use xlink:href="#e" x="290.243" y="779.411"/><use xlink:href="#X" x="291.858" y="779.411"/><use xlink:href="#aE" x="299.056" y="779.411"/><use xlink:href="#aF" x="306.253" y="779.411"/><use xlink:href="#r" x="313.45" y="779.411"/><use xlink:href="#k" x="320.648" y="779.411"/><use xlink:href="#r" x="327.845" y="779.411"/><use xlink:href="#e" x="335.042" y="779.411"/></g><g fill="#231f20"><use xlink:href="#e" x="234.248" y="789.008"/><use xlink:href="#e" x="236.184" y="789.008"/><use xlink:href="#e" x="238.119" y="789.008"/></g><g fill="#231f20"><use xlink:href="#aj" x="240.054" y="789.008"/><use xlink:href="#aG" x="247.251" y="789.008"/><use xlink:href="#aF" x="254.449" y="789.008"/><use xlink:href="#r" x="261.646" y="789.008"/><use xlink:href="#aF" x="268.843" y="789.008"/><use xlink:href="#e" x="276.04" y="789.008"/><use xlink:href="#s" x="277.656" y="789.008"/></g><use xlink:href="#y" x="284.853" y="789.008" fill="#231f20"/><g fill="#231f20"><use xlink:href="#aX" x="423.035" y="748.183"/><use xlink:href="#aY" x="432.032" y="748.183"/><use xlink:href="#aZ" x="441.028" y="748.183"/></g><use xlink:href="#d" x="423.035" y="764.417" fill="#231f20"/><g fill="#231f20"><use xlink:href="#e" x="425.418" y="764.417"/><use xlink:href="#ba" x="427.034" y="764.417"/><use xlink:href="#bb" x="429.393" y="764.417"/><use xlink:href="#bc" x="436.59" y="764.417"/><use xlink:href="#bd" x="438.949" y="764.417"/><use xlink:href="#be" x="446.147" y="764.417"/><use xlink:href="#bf" x="453.344" y="764.417"/><use xlink:href="#aa" x="460.541" y="764.417"/><use xlink:href="#I" x="467.738" y="764.417"/><use xlink:href="#bg" x="474.936" y="764.417"/><use xlink:href="#e" x="482.133" y="764.417"/><use xlink:href="#k" x="483.748" y="764.417"/><use xlink:href="#bh" x="490.946" y="764.417"/><use xlink:href="#aw" x="498.143" y="764.417"/><use xlink:href="#h" x="505.34" y="764.417"/></g><g clip-path="url(#bi)"><path d="M423.16 731.926h108.121V602.984h-108.12zm0 0" fill="none" stroke-width=".249905" stroke="#314290"/><path d="M423.16 730.762h108.121v-126.61h-108.12zm0 0" fill="none" stroke-width=".249905" stroke="#314290"/><use xlink:href="#image23" transform="rotate(1.772 -19088.294 13935.15) scale(.31994)"/></g><path d="M423.16 730.762h108.121v-126.61h-108.12zm0 0" fill="none" stroke-width=".249905" stroke="#314290"/><g fill="#7b7979"><use xlink:href="#bj" x="27.429" y="818.875"/><use xlink:href="#bk" x="30.768" y="818.875"/></g></svg>