<svg xmlns="http://www.w3.org/2000/svg" xmlns:xlink="http://www.w3.org/1999/xlink" width="794.366" height="1122.52" viewBox="0 0 595.7748 841.89" version="1.2"><defs><symbol overflow="visible" id="a"><path d="M1.953 0h.813v-5.328H1.484l-.437.75h.906zm0 0"/></symbol><symbol overflow="visible" id="b"><path d="M2.234.094c.47 0 .844-.203 1.172-.578.563-.641.672-1.485.672-2.172 0-.703-.11-1.547-.672-2.188-.328-.39-.719-.578-1.172-.578-.468 0-.859.188-1.187.578C.5-4.204.375-3.359.375-2.656c0 .687.125 1.531.672 2.172.328.375.703.578 1.187.578zm0-4.797c.204 0 .47.094.704.437.28.438.359 1.125.359 1.594 0 .469-.078 1.156-.36 1.594-.234.36-.5.453-.703.453-.203 0-.484-.094-.718-.453-.282-.438-.36-1.125-.36-1.594 0-.469.078-1.156.36-1.594.234-.343.515-.437.718-.437zm0 0"/></symbol></defs><g fill="#7b7979"><use xlink:href="#a" x="27.429" y="818.875"/><use xlink:href="#b" x="31.058" y="818.875"/></g></svg>