<svg xmlns="http://www.w3.org/2000/svg" xmlns:xlink="http://www.w3.org/1999/xlink" width="794.366" height="1122.52" viewBox="0 0 595.7748 841.89" version="1.2"><defs><symbol overflow="visible" id="a"><path d="M1.297-3.969c0-.047.047-.328.219-.515.171-.188.39-.22.593-.22.157 0 .375.016.547.204.094.078.203.25.203.531 0 .235-.078.438-.203.563-.11.125-.328.234-.656.234h-.125v.688h.172c.156 0 .437.015.672.25.203.187.234.453.234.625 0 .359-.125.609-.281.75a.937.937 0 0 1-.61.234.877.877 0 0 1-.64-.25 1.117 1.117 0 0 1-.281-.578H.375c.047.406.219.844.453 1.094.328.375.766.453 1.172.453.406 0 .89-.078 1.266-.469.25-.25.453-.672.453-1.188 0-.312-.078-.609-.219-.828a1.034 1.034 0 0 0-.516-.421c.141-.079.329-.22.47-.454a1.38 1.38 0 0 0 .171-.703c0-.39-.094-.734-.375-1.015-.328-.36-.719-.438-1.125-.438-.344 0-.781.047-1.14.406-.25.235-.422.61-.454 1.047zm0 0"/></symbol><symbol overflow="visible" id="b"><path d="M3.516-5.734L.156-1.016H2.75V0h.766v-1.016h.562v-.75h-.562zM1.546-1.75L2.75-3.469v1.719zm0 0"/></symbol></defs><g fill="#7b7979"><use xlink:href="#a" x="27.429" y="818.875"/><use xlink:href="#b" x="31.191" y="818.875"/></g></svg>