<svg xmlns="http://www.w3.org/2000/svg" xmlns:xlink="http://www.w3.org/1999/xlink" width="794.366" height="1122.52" viewBox="0 0 595.7748 841.89" version="1.2"><defs><symbol overflow="visible" id="a"><path d="M4.594-7.125c1.156 0 1.89.281 1.89.86 0 .562-.734.843-1.89.843-1.157 0-1.89-.281-1.89-.844 0-.578.733-.859 1.89-.859zm0 2.75c1.984 0 3.312-.734 3.312-1.89 0-1.173-1.328-1.923-3.312-1.923-1.985 0-3.313.75-3.313 1.922 0 1.157 1.328 1.891 3.313 1.891zM2.687-2H1.375V.703h6.578V-.344H2.687zM.438-3.906v1.062h2.844v1.64h1.313v-1.64h.922v1.64h1.312v-1.64h1.938v-1.062zm0 0"/></symbol><symbol overflow="visible" id="b"><path d="M8.453-5.078c-2.078-.297-3.14-1.484-3.14-2.563v-.437H3.905v.437c0 1.079-1.062 2.266-3.156 2.563l.5 1.062c1.61-.25 2.766-1 3.36-1.984.593.984 1.734 1.734 3.343 1.984zm.313 1.734H.437v1.078h3.47V.875h1.327v-3.14h3.532zm0 0"/></symbol><symbol overflow="visible" id="c"><path d="M5.438-6.125v1.063h1.375v2.187h1.312v-5.469H6.812v2.219zm.546 1.969C4.578-4.61 3.938-5.688 3.906-6.734h1.781v-1.063H.734v1.063h1.813c-.031 1.14-.703 2.312-2.172 2.828l.672 1.031c1.078-.36 1.797-1.11 2.203-2.031.406.812 1.094 1.453 2.094 1.781zM5.016-.125c-1.204 0-1.829-.25-1.829-.781 0-.516.626-.766 1.829-.766 1.203 0 1.828.25 1.828.766 0 .531-.625.781-1.828.781zm0-2.547c-1.954 0-3.157.656-3.157 1.766C1.86.219 3.063.875 5.016.875S8.172.219 8.172-.906c0-1.11-1.203-1.766-3.156-1.766zm0 0"/></symbol><symbol overflow="visible" id="d"><path d="M1.266-1.344c.468 0 .906-.39.906-1 0-.594-.438-.984-.906-.984-.47 0-.907.39-.907.984 0 .61.438 1 .907 1zm0 0"/></symbol><symbol overflow="visible" id="f"><path d="M4.688-5.594H2.796v-.937h-.422v.937H.485v.344h4.202zM1.296-3.469c0-.578.531-.969 1.281-.969.766 0 1.281.391 1.281.97 0 .546-.515.952-1.28.952-.75 0-1.282-.406-1.282-.953zm2.953 0c0-.797-.656-1.312-1.672-1.312-1 0-1.672.515-1.672 1.312 0 .781.672 1.297 1.672 1.297 1.016 0 1.672-.515 1.672-1.297zM2.016-1.64h-.422V.391H6.28V.03H2.016zm3.906-2.468v-2.422H5.5v5.328h.422V-3.75h1.125v-.36zm0 0"/></symbol><symbol overflow="visible" id="g"><path d="M6.906-3.234v-.36H5.828c.188-.906.188-1.578.188-2.11v-.484H1.28v.36H5.61v.125c0 .531 0 1.187-.218 2.11H.453v.359h3v1.468H1.141v.36h4.515V.562h.438v-2.328H3.875v-1.468zm0 0"/></symbol><symbol overflow="visible" id="h"><path d="M3.594-3.531H1.219v-1.266h2.375zm.422-2.735h-.422v1.125H1.219v-1.125H.797v3.094h3.219zM1.953-.859h3.969v-1.594H1.516v.344h4v.906H1.53V.453H6.22V.11H1.953zm3.969-4.063v-1.625H5.5v3.703h.422v-1.719h1.11v-.359zm0 0"/></symbol><symbol overflow="visible" id="i"><path d="M3.563-3.25H1.219v-2.39h2.343zm2.25-1.719v1.047H3.968v-1.047zM3.968-3.562h1.844v1.25h.421v-4.235h-.421v1.219H3.968v-.656H.813v3.093h3.156zM3.938.188c-1.157 0-1.891-.36-1.891-.97 0-.593.734-.968 1.89-.968 1.172 0 1.922.375 1.922.969 0 .61-.75.969-1.921.969zm0-2.282c-1.438 0-2.329.485-2.329 1.313C1.61.063 2.5.53 3.938.53 5.39.531 6.265.062 6.265-.78c0-.828-.875-1.313-2.329-1.313zm0 0"/></symbol><symbol overflow="visible" id="j"><path d="M6.234-6.547h-.421v5.25h.421zM4.75-2.734c-1-.344-1.875-1.204-1.875-2.235v-.578h1.734v-.36H.703v.36h1.75v.578c0 1.078-.86 2-1.86 2.375l.22.328c.843-.328 1.578-1 1.859-1.89.297.828 1.047 1.453 1.86 1.75zM2.187.03v-1.828h-.421V.391h4.703V.03zm0 0"/></symbol><symbol overflow="visible" id="k"><path d="M6.484-5.89H3.875v-.798h-.422v.797H.797v.36h5.687zm-1.03 1.734c0 .437-.673.718-1.798.718-1.11 0-1.797-.28-1.797-.718 0-.438.688-.703 1.797-.703 1.125 0 1.797.265 1.797.703zm-4.032 0c0 .672.812 1.031 2.234 1.031 1.438 0 2.25-.36 2.25-1.031 0-.672-.812-1.032-2.25-1.032-1.422 0-2.234.36-2.234 1.032zM3.656.204c-1.219 0-1.969-.266-1.969-.75 0-.485.75-.766 1.97-.766 1.234 0 1.984.28 1.984.765s-.75.75-1.985.75zm0-1.845c-1.531 0-2.406.375-2.406 1.094 0 .719.875 1.094 2.406 1.094 1.547 0 2.422-.375 2.422-1.094 0-.719-.875-1.094-2.422-1.094zM.453-2.562v.343h6.422v-.344zm0 0"/></symbol><symbol overflow="visible" id="l"><path d="M4.984-5.625H3.047v-.938h-.438v.938H.656v.36h4.328zm-3.421 2.14c0-.562.515-.953 1.265-.953.75 0 1.266.391 1.266.954 0 .562-.516.968-1.266.968s-1.265-.406-1.265-.968zm1.484 1.297C3.922-2.265 4.5-2.75 4.5-3.484c0-.797-.672-1.297-1.672-1.297-1 0-1.672.5-1.672 1.297 0 .75.578 1.234 1.453 1.296v.876c-.75.03-1.468.046-2.109.046l.063.36c1.343 0 3.093-.016 4.703-.281L5.234-1.5c-.703.094-1.453.14-2.187.172zm2.687-4.359V.547h.422v-7.094zm0 0"/></symbol><symbol overflow="visible" id="m"><path d="M2.86-5.422h1.78v-.375H.689v.375h1.75v1.203c0 1.235-1.032 2.594-1.954 3.047l.266.344c.766-.422 1.594-1.39 1.89-2.453C2.97-2.25 3.798-1.391 4.595-1l.25-.344c-.953-.422-1.985-1.64-1.985-2.875zm2.937-1.125v7.11h.422v-7.11zm0 0"/></symbol><symbol overflow="visible" id="n"><path d="M4.703-3.063c-.984-.374-1.875-1.343-1.875-2.453v-.703h-.406v.703c0 1.157-.86 2.204-1.86 2.594l.235.344c.812-.36 1.547-1.11 1.828-2.031.313.875 1.031 1.546 1.86 1.875zM1.547-1.5h4.266V.547h.421V-1.86H1.547zm4.266-5.047v4.297h.421v-4.297zm0 0"/></symbol><symbol overflow="visible" id="o"><path d="M2.453-5.281h1.438v-.36H.547v.36h1.5v.765c0 1.485-.64 2.672-1.64 3.22l.28.327c.782-.453 1.344-1.265 1.579-2.344.25.954.78 1.688 1.515 2.094l.266-.328c-.969-.5-1.594-1.64-1.594-2.969zm3.594-1.266v2.953H4.89v-2.781h-.407V.172h.407v-3.39h1.156v3.78h.406v-7.109zm0 0"/></symbol><symbol overflow="visible" id="p"><path d="M4.531-2.844c-.984-.36-1.828-1.297-1.828-2.312v-.969h-.406v.938c0 1.187-.813 2.14-1.813 2.546l.22.344a3.114 3.114 0 0 0 1.812-1.969c.296.797 1 1.454 1.796 1.766zM2.047-1.78h-.438V.39h4.657V.03h-4.22zm3.875-2.516v-2.25H5.5v5.281h.422v-2.671h1.125v-.36zm0 0"/></symbol><symbol overflow="visible" id="q"><path d="M5.813-2.14h.421v-4.407h-.421v1.344H4.438v.36h1.375v.874H4.438v.36h1.375zM1.89-5.61h1.312v2.5c-.437.032-.89.047-1.312.047zm2.828 2.391c-.344.047-.719.078-1.094.094v-2.484h.797v-.36H.688v.36h.78v2.562H.485l.063.39c1.172 0 2.797-.03 4.203-.25zM3.937.187c-1.156 0-1.89-.343-1.89-.906 0-.562.734-.906 1.89-.906 1.172 0 1.922.344 1.922.906 0 .563-.75.906-1.921.906zm0-2.156c-1.453 0-2.328.453-2.328 1.25 0 .813.875 1.25 2.329 1.25 1.453 0 2.328-.437 2.328-1.25 0-.797-.875-1.25-2.329-1.25zm0 0"/></symbol><symbol overflow="visible" id="r"><path d="M.86-5.766v.36h2.78C3.532-3.672 2.485-2.156.563-1.203l.235.344c2.265-1.125 3.265-2.97 3.265-4.907zm6.234 2.204H5.859v-2.985h-.421v7.11h.421v-3.766h1.235zm0 0"/></symbol><symbol overflow="visible" id="s"><path d="M6.406-6.547h-.422v5.344h.422zm-1.781 5.14h.406V-6.39h-.406v1.75H3.359v.36h1.266zm-.672-1.405c-.875-.376-1.484-1.25-1.484-2.094v-1.125h-.406v1.125c0 .843-.641 1.86-1.532 2.281l.25.344c.703-.344 1.25-1.063 1.485-1.797a2.75 2.75 0 0 0 1.453 1.594zM2.281.03v-1.906H1.86V.391h4.782V.03zm0 0"/></symbol><symbol overflow="visible" id="t"><path d="M1.203-1.563V-3.5H3.72v-.36H1.203V-5.5h2.86v-.375H.78v4.672h.531c1.454 0 2.282-.047 3.297-.25l-.046-.36c-.985.204-1.813.25-3.25.25zm4.61-4.984v2.781H4.188v.36h1.625V.563h.421v-7.11zm0 0"/></symbol><symbol overflow="visible" id="u"><path d="M.89-5.766v.36h2.844C3.61-3.641 2.531-2.141.578-1.188l.235.344C3.108-1.969 4.155-3.78 4.155-5.766zm4.923-.78V.562h.421v-7.11zm0 0"/></symbol><symbol overflow="visible" id="v"><path d="M6.5-4.375c-1.094-.14-2.625-.813-2.625-1.797v-.344h-.422v.344c0 .984-1.531 1.656-2.625 1.797l.14.328c1.016-.14 2.266-.672 2.688-1.5.422.828 1.656 1.36 2.688 1.5zm.375 1.25v-.344H.453v.344h3v.86H1.25v.343h4.36v.813H1.265V.453H6.25V.11H1.687v-.89h4.344v-1.485H3.875v-.859zm0 0"/></symbol><symbol overflow="visible" id="w"><path d="M4.203-4.516v.36h1.61v2.843h.421v-5.234h-.421v2.031zm.375 1.688c-.969-.344-1.781-1.25-1.781-2.219v-.5h1.656v-.36H.687v.36h1.688v.516c0 1.078-.875 2.015-1.86 2.39l.235.344c.828-.328 1.547-1.047 1.844-1.922.297.782.969 1.422 1.781 1.735zM2.218.032v-1.829h-.421V.391h4.656V.03zm0 0"/></symbol><symbol overflow="visible" id="x"><path d="M5.625-4.14H1.719v-1.704h3.906zm.422-2.048h-4.75v2.391h4.75zM1.734-1.64h-.437V.391h4.875V.03H1.734zM.438-2.844v.36h3.046v1.578h.422v-1.578h2.985v-.36zm0 0"/></symbol><symbol overflow="visible" id="y"><path d="M2.781-5.828c.797 0 1.375.453 1.375 1.062 0 .625-.578 1.079-1.375 1.079s-1.36-.454-1.36-1.079c0-.609.563-1.062 1.36-1.062zm0 2.5c1.047 0 1.781-.578 1.781-1.438 0-.843-.734-1.421-1.78-1.421-1.032 0-1.766.578-1.766 1.421 0 .86.734 1.438 1.765 1.438zm2.438.437c-1.61.25-3.438.266-4.797.266l.062.375c.641 0 1.36 0 2.125-.031V.344h.438v-2.656a27.057 27.057 0 0 0 2.203-.235zm.562-3.64V.562h.422V-6.53zm0 0"/></symbol><symbol overflow="visible" id="z"><path d="M4.234-2.297v.328H5.75v.844h.422v-5.406H5.75v4.234zm-1.5-3.61c.782 0 1.329.376 1.329.891 0 .532-.547.891-1.329.891-.78 0-1.328-.36-1.328-.89 0-.516.547-.891 1.328-.891zm0 2.11c1.047 0 1.735-.469 1.735-1.219 0-.75-.688-1.218-1.735-1.218C1.704-6.234 1-5.766 1-5.016s.703 1.22 1.734 1.22zm-.156 2.375H3v-1.437c.688-.047 1.406-.094 2.078-.22l-.047-.312c-1.531.204-3.297.22-4.625.22l.063.358c.625 0 1.344 0 2.11-.03zM1.906.031v-1.687h-.422V.39H6.36V.03zm0 0"/></symbol><symbol overflow="visible" id="A"><path d="M1.953 0h.813v-5.328H1.484l-.437.75h.906zm0 0"/></symbol><symbol overflow="visible" id="B"><path d="M2.234-2.422c.22 0 .454.078.61.25.156.156.25.406.25.64a.943.943 0 0 1-.235.626.815.815 0 0 1-.625.281.825.825 0 0 1-.64-.281.943.943 0 0 1-.235-.625c0-.235.094-.485.25-.64.157-.173.391-.25.625-.25zm0-2.281c.235 0 .438.094.563.219.14.125.219.343.219.593 0 .25-.094.438-.204.547a.818.818 0 0 1-.578.25.854.854 0 0 1-.593-.25.767.767 0 0 1-.204-.547c0-.25.079-.468.22-.593a.815.815 0 0 1 .577-.22zm.86 1.922c.219-.094.36-.25.453-.39.14-.22.187-.485.187-.735 0-.422-.14-.828-.437-1.11-.156-.156-.5-.406-1.063-.406-.578 0-.921.25-1.078.406-.297.282-.437.688-.437 1.11 0 .25.047.515.187.734.094.14.235.297.453.39-.234.11-.421.266-.546.438a1.37 1.37 0 0 0-.235.797c0 .547.203.922.422 1.14.234.266.625.5 1.234.5.594 0 .985-.234 1.22-.5.218-.218.421-.593.421-1.14a1.37 1.37 0 0 0-.234-.797 1.414 1.414 0 0 0-.547-.437zm0 0"/></symbol></defs><g fill="#231f20"><use xlink:href="#a" x="420.202" y="716.341"/><use xlink:href="#b" x="429.198" y="716.341"/><use xlink:href="#c" x="438.195" y="716.341"/></g><use xlink:href="#d" x="420.202" y="732.575" fill="#231f20"/><g fill="#231f20"><use xlink:href="#e" x="422.585" y="732.575"/><use xlink:href="#f" x="424.2" y="732.575"/><use xlink:href="#g" x="431.397" y="732.575"/><use xlink:href="#h" x="438.595" y="732.575"/><use xlink:href="#i" x="445.792" y="732.575"/><use xlink:href="#j" x="452.989" y="732.575"/><use xlink:href="#k" x="460.187" y="732.575"/><use xlink:href="#l" x="467.384" y="732.575"/><use xlink:href="#e" x="474.581" y="732.575"/><use xlink:href="#m" x="476.197" y="732.575"/><use xlink:href="#n" x="483.394" y="732.575"/><use xlink:href="#o" x="490.591" y="732.575"/><use xlink:href="#p" x="497.788" y="732.575"/><use xlink:href="#q" x="504.986" y="732.575"/><use xlink:href="#r" x="512.183" y="732.575"/><use xlink:href="#s" x="519.38" y="732.575"/><use xlink:href="#t" x="526.577" y="732.575"/><use xlink:href="#e" x="533.775" y="732.575"/></g><g fill="#231f20"><use xlink:href="#e" x="420.202" y="742.171"/><use xlink:href="#e" x="422.137" y="742.171"/></g><g fill="#231f20"><use xlink:href="#u" x="424.072" y="742.171"/><use xlink:href="#v" x="431.269" y="742.171"/><use xlink:href="#q" x="438.467" y="742.171"/><use xlink:href="#r" x="445.664" y="742.171"/><use xlink:href="#e" x="452.861" y="742.171"/><use xlink:href="#w" x="454.477" y="742.171"/><use xlink:href="#x" x="461.674" y="742.171"/><use xlink:href="#y" x="468.871" y="742.171"/><use xlink:href="#z" x="476.069" y="742.171"/></g><path d="M420.203 698.91h108.121V572.3h-108.12zm0 0" fill="none" stroke-width=".249905" stroke="#33459a"/><g fill="#7b7979"><use xlink:href="#A" x="27.429" y="818.875"/><use xlink:href="#B" x="30.768" y="818.875"/></g></svg>