<svg xmlns="http://www.w3.org/2000/svg" xmlns:xlink="http://www.w3.org/1999/xlink" width="793.033" height="1122.52" viewBox="0 0 594.7751 841.89" version="1.2"><defs><symbol overflow="visible" id="a"><path d="M9.25-6.125c-2.11-.625-3.5-2.219-3.5-3.953v-.297h3.156v-1.047H5.75v-1.812H4.437v1.812H1.25v1.047h3.188v.297c0 1.922-1.454 3.64-3.579 4.297l.657 1.047C3.203-5.313 4.5-6.5 5.109-8.016c.641 1.36 1.907 2.407 3.516 2.907zM7.422.141C5.282.14 4-.438 4-1.422c0-1 1.281-1.562 3.422-1.562 2.11 0 3.406.562 3.406 1.562 0 .984-1.297 1.563-3.406 1.563zm0-4.157c-2.953 0-4.734.922-4.734 2.594 0 1.64 1.78 2.578 4.734 2.578 2.937 0 4.719-.937 4.719-2.578 0-1.672-1.782-2.594-4.72-2.594zm4.562-5.437v-3.719h-1.312v8.797h1.312v-4h2.125v-1.078zm0 0"/></symbol><symbol overflow="visible" id="b"><path d="M11.36-.063H4.78v-1.859h6.578zm0-2.874H4.78V-4.75H3.484V.984h9.188V-4.75h-1.313zm-6.594-4c-1.422 0-2.454-.938-2.454-2.25 0-1.313 1.032-2.22 2.454-2.22 1.421 0 2.453.907 2.453 2.22 0 1.312-1.032 2.25-2.453 2.25zm6.578-6.22v3.407H8.422c-.281-1.656-1.719-2.75-3.656-2.75-2.141 0-3.688 1.344-3.688 3.313 0 1.984 1.547 3.328 3.688 3.328 1.968 0 3.406-1.11 3.671-2.813h2.907v3.219h1.328v-7.703zm0 0"/></symbol><symbol overflow="visible" id="c"><path d="M8.344-5.125c.39-2.672.39-4.531.39-5.688v-.78h-7.25v1.062h5.97c0 1.156-.032 2.906-.423 5.281zM5.047-7.5H3.75v4.406c-1.078.031-2.14.047-3.047.047l.14 1.094c2.548 0 5.923-.063 8.907-.547l-.094-.953c-1.453.187-3.047.265-4.61.328zm9.094.328h-2.282v-6h-1.312v14.36h1.312v-7.25h2.282zm0 0"/></symbol><symbol overflow="visible" id="e"><path d="M11.281-13.172V1.203h1.313v-14.375zm-9.625 1.219v9.687h6.766v-9.687H7.125v3.797H2.953v-3.797zm1.297 4.828h4.172v3.781H2.953zm0 0"/></symbol><symbol overflow="visible" id="f"><path d="M2.031-4.297c2.156-.437 4.422-1.875 5.328-3.86.907 1.97 3.204 3.376 5.375 3.813l.532-1.047c-2.5-.421-5.235-2.39-5.235-4.656v-.625h4.75v-1.078H1.921v1.078h4.75v.625c0 2.266-2.718 4.266-5.202 4.703zM.844-1.813v1.094h13.031v-1.094zm0 0"/></symbol><symbol overflow="visible" id="g"><path d="M3.64-10.922h7.344v4.656H3.641zM8-1.75v-3.484h4.266v-6.735H2.39v6.735h4.28v3.484H.845v1.094h13.015V-1.75zm0 0"/></symbol><symbol overflow="visible" id="h"><path d="M13.016-13.156H11.75v7.625h1.266zM6.094-9.984v1.03h2.89v3.298h1.25v-7.203h-1.25v2.875zM7.64-7.656c-1.563.297-2.875.36-4.797.36v-3.985h4.125v-1.063H1.53v6.11h.938c2.172 0 3.562-.047 5.297-.375zM4.812-.046v-1.485h8.204v-3.36H3.484v1.032h8.235v1.328H3.516V.984H13.53v-1.03zm0 0"/></symbol><symbol overflow="visible" id="i"><path d="M1.297-3.969c0-.047.047-.328.219-.515.171-.188.39-.22.593-.22.157 0 .375.016.547.204.094.078.203.25.203.531 0 .235-.078.438-.203.563-.11.125-.328.234-.656.234h-.125v.688h.172c.156 0 .437.015.672.25.203.187.234.453.234.625 0 .359-.125.609-.281.75a.937.937 0 0 1-.61.234.877.877 0 0 1-.64-.25 1.117 1.117 0 0 1-.281-.578H.375c.047.406.219.844.453 1.094.328.375.766.453 1.172.453.406 0 .89-.078 1.266-.469.25-.25.453-.672.453-1.188 0-.312-.078-.609-.219-.828a1.034 1.034 0 0 0-.516-.421c.141-.079.329-.22.47-.454a1.38 1.38 0 0 0 .171-.703c0-.39-.094-.734-.375-1.015-.328-.36-.719-.438-1.125-.438-.344 0-.781.047-1.14.406-.25.235-.422.61-.454 1.047zm0 0"/></symbol><symbol overflow="visible" id="j"><path d="M.39-.219l.626.406 3.296-5.515H.422v.75H3zm0 0"/></symbol></defs><g fill="#231f20"><use xlink:href="#a" x="54.239" y="194"/><use xlink:href="#b" x="68.954" y="194"/><use xlink:href="#c" x="83.668" y="194"/><use xlink:href="#d" x="98.382" y="194"/><use xlink:href="#e" x="101.965" y="194"/><use xlink:href="#f" x="116.68" y="194"/><use xlink:href="#g" x="131.394" y="194"/><use xlink:href="#h" x="146.108" y="194"/></g><g fill="#7b7979"><use xlink:href="#i" x="557.772" y="818.875"/><use xlink:href="#j" x="561.447" y="818.875"/></g></svg>