<svg xmlns="http://www.w3.org/2000/svg" xmlns:xlink="http://www.w3.org/1999/xlink" width="794.366" height="1122.52" viewBox="0 0 595.7748 841.89" version="1.2"><defs><symbol overflow="visible" id="a"><path d="M1.719.188L3.172-1.72c.234-.312.437-.547.64-.953a2.04 2.04 0 0 0 .25-1.015c0-.594-.234-.97-.453-1.204-.218-.234-.64-.53-1.343-.53-.594 0-1.032.202-1.36.546a1.92 1.92 0 0 0-.515 1.328c0 .563.218.953.484 1.219.203.219.594.5 1.219.5.094 0 .187-.016.281-.031L1.141-.25zm.5-2.72a1.05 1.05 0 0 1-.735-.296 1.098 1.098 0 0 1-.312-.781c0-.329.14-.61.312-.797.172-.157.454-.297.75-.297.266 0 .547.11.735.297.203.203.312.484.312.765 0 .282-.11.579-.312.797a1.016 1.016 0 0 1-.75.313zm0 0"/></symbol><symbol overflow="visible" id="b"><path d="M3.781-.75H1.828l.813-.984c.312-.375.562-.672.75-.97.203-.312.375-.671.375-1.108 0-.829-.579-1.61-1.688-1.61-.656 0-1.031.297-1.219.516a1.93 1.93 0 0 0-.437 1.172h.766c.03-.5.328-.97.921-.97.579 0 .875.423.875.86 0 .313-.125.547-.28.766a11.8 11.8 0 0 1-.626.844L.266 0H3.78zm0 0"/></symbol></defs><g fill="#7b7979"><use xlink:href="#a" x="25.672" y="818.875"/><use xlink:href="#b" x="29.614" y="818.875"/></g></svg>