<svg xmlns="http://www.w3.org/2000/svg" xmlns:xlink="http://www.w3.org/1999/xlink" width="794.366" height="1122.52" viewBox="0 0 595.7748 841.89" version="1.2"><defs><symbol overflow="visible" id="a"><path d="M3.781-.75H1.828l.813-.984c.312-.375.562-.672.75-.97.203-.312.375-.671.375-1.108 0-.829-.579-1.61-1.688-1.61-.656 0-1.031.297-1.219.516a1.93 1.93 0 0 0-.437 1.172h.766c.03-.5.328-.97.921-.97.579 0 .875.423.875.86 0 .313-.125.547-.28.766a11.8 11.8 0 0 1-.626.844L.266 0H3.78zm0 0"/></symbol><symbol overflow="visible" id="b"><path d="M2.234-2.422c.22 0 .454.078.61.25.156.156.25.406.25.64a.943.943 0 0 1-.235.626.815.815 0 0 1-.625.281.825.825 0 0 1-.64-.281.943.943 0 0 1-.235-.625c0-.235.094-.485.25-.64.157-.173.391-.25.625-.25zm0-2.281c.235 0 .438.094.563.219.14.125.219.343.219.593 0 .25-.094.438-.204.547a.818.818 0 0 1-.578.25.854.854 0 0 1-.593-.25.767.767 0 0 1-.204-.547c0-.25.079-.468.22-.593a.815.815 0 0 1 .577-.22zm.86 1.922c.219-.094.36-.25.453-.39.14-.22.187-.485.187-.735 0-.422-.14-.828-.437-1.11-.156-.156-.5-.406-1.063-.406-.578 0-.921.25-1.078.406-.297.282-.437.688-.437 1.11 0 .25.047.515.187.734.094.14.235.297.453.39-.234.11-.421.266-.546.438a1.37 1.37 0 0 0-.235.797c0 .547.203.922.422 1.14.234.266.625.5 1.234.5.594 0 .985-.234 1.22-.5.218-.218.421-.593.421-1.14a1.37 1.37 0 0 0-.234-.797 1.414 1.414 0 0 0-.547-.437zm0 0"/></symbol></defs><g fill="#7b7979"><use xlink:href="#a" x="27.429" y="818.875"/><use xlink:href="#b" x="31.371" y="818.875"/></g></svg>