<svg xmlns="http://www.w3.org/2000/svg" xmlns:xlink="http://www.w3.org/1999/xlink" width="794.366" height="1122.52" viewBox="0 0 595.7748 841.89" version="1.2"><defs><symbol overflow="visible" id="a"><path d="M2.234.094c.47 0 .844-.203 1.172-.578.563-.641.672-1.485.672-2.172 0-.703-.11-1.547-.672-2.188-.328-.39-.719-.578-1.172-.578-.468 0-.859.188-1.187.578C.5-4.204.375-3.359.375-2.656c0 .687.125 1.531.672 2.172.328.375.703.578 1.187.578zm0-4.797c.204 0 .47.094.704.437.28.438.359 1.125.359 1.594 0 .469-.078 1.156-.36 1.594-.234.36-.5.453-.703.453-.203 0-.484-.094-.718-.453-.282-.438-.36-1.125-.36-1.594 0-.469.078-1.156.36-1.594.234-.343.515-.437.718-.437zm0 0"/></symbol><symbol overflow="visible" id="b"><path d="M2.734-5.516L1.281-3.609c-.234.312-.437.546-.64.953a2.17 2.17 0 0 0-.25 1.015c0 .516.187.907.453 1.204.406.421.89.53 1.36.53.343 0 .905-.062 1.343-.515.344-.344.515-.86.515-1.344 0-.484-.187-.937-.468-1.25C3.39-3.234 3-3.5 2.39-3.5c-.11 0-.204 0-.329.031l1.25-1.61zm-.5 2.704c.266 0 .563.109.735.296.203.204.312.532.312.797 0 .266-.11.594-.312.797a1.097 1.097 0 0 1-.735.297c-.28 0-.593-.14-.75-.297-.203-.203-.312-.531-.312-.797 0-.343.14-.625.312-.797.188-.187.485-.296.75-.296zm0 0"/></symbol></defs><g fill="#7b7979"><use xlink:href="#a" x="27.429" y="818.875"/><use xlink:href="#b" x="31.645" y="818.875"/></g></svg>