<?xml version="1.0" encoding="utf-8"?>
<!-- Generator: Adobe Illustrator 16.0.0, SVG Export Plug-In . SVG Version: 6.00 Build 0)  -->
<!DOCTYPE svg PUBLIC "-//W3C//DTD SVG 1.1//EN" "http://www.w3.org/Graphics/SVG/1.1/DTD/svg11.dtd">
<svg version="1.1" id="Layer_1" pointer-events="none"
	 xmlns="http://www.w3.org/2000/svg" xmlns:xlink="http://www.w3.org/1999/xlink" x="0px" y="0px" width="612px" height="792px"
	 viewBox="0 0 612 792" enable-background="new 0 0 612 792" xml:space="preserve">
<g>
	<g>
		<path id="one-finger-tap" fill="#FFFFFF" d="M298.375,309.766c0-15.759-12.737-28.516-28.688-28.516
			c-15.836,0-28.688,12.929-28.688,28.516v37.141V396h-19.125v-47.813V214.484c0-15.95-12.737-28.859-28.688-28.859
			c-15.854,0-28.688,12.756-28.688,28.859v196.797c-39.378-42.095-91.207-88.358-112.436-66.995
			c-20.789,20.903,32.78,78.489,107.597,204.389c33.718,56.725,76.366,95.95,148.276,95.95c79.234,0,143.438-64.202,143.438-143.438
			v-62.232v-90.653c0-15.912-12.737-28.802-28.688-28.802c-15.836,0-28.688,12.929-28.688,28.802V391.2v4.8h-19.125v-44.408v-22.701
			c0-15.759-12.737-28.516-28.688-28.516c-15.836,0-28.688,12.68-28.688,28.516v19.45v28.535h-19.125V348.34V309.766
			L298.375,309.766z"/>
	</g>
</g>
<path fill="#FFFFFF" d="M536.781,618.561l13.813-23.766c3.124-5.384,8.245-14.171,11.366-19.554l13.828-23.767
	c3.132-5.383,0.603-9.776-5.63-9.798l-27.484-0.089c-0.255,0-0.608,0-0.874,0c0-0.065,0.034-0.11,0.034-0.18V317.175
	c0-6.244-5.054-11.298-11.298-11.298c-6.247,0-11.301,5.054-11.301,11.298v224.233c0,0.047,0.022,0.069,0.022,0.114l-26.69-0.09
	c-6.212-0.024-8.774,4.367-5.672,9.757l13.683,23.872c3.089,5.39,8.13,14.216,11.232,19.599l13.673,23.878
	C528.572,623.899,533.661,623.921,536.781,618.561z"/>
</svg>
