<svg xmlns="http://www.w3.org/2000/svg" xmlns:xlink="http://www.w3.org/1999/xlink" width="794.366" height="1122.52" viewBox="0 0 595.7748 841.89" version="1.2"><defs><symbol overflow="visible" id="a"><path d="M3.688-4.531H2.046l-.25.875a.613.613 0 0 1 .11-.016H2c.508 0 .93.176 1.266.516.332.344.5.789.5 1.328 0 .555-.192 1.012-.563 1.375-.375.355-.851.531-1.422.531C1.082.078.535-.25.141-.906l.593-.5c.164.281.332.48.5.593.164.118.375.172.625.172.309 0 .579-.109.797-.328.215-.226.328-.508.328-.844 0-.332-.113-.609-.328-.828a1.075 1.075 0 0 0-.797-.328c-.355 0-.664.16-.921.469H.671L1.5-5.281h2.188zm0 0"/></symbol><symbol overflow="visible" id="b"><path d="M1.75-.75h1.969V0H.172L2-2.219c.184-.215.336-.406.453-.562.121-.164.219-.305.281-.422.133-.207.204-.399.204-.578a.814.814 0 0 0-.266-.61.924.924 0 0 0-.64-.25c-.532 0-.84.317-.923.938H.33C.448-4.805 1.007-5.36 2-5.36c.488 0 .895.152 1.219.453.32.304.484.68.484 1.125 0 .293-.074.582-.219.86-.086.136-.199.304-.343.5-.149.198-.336.433-.563.702zm0 0"/></symbol></defs><g fill="#898989"><use xlink:href="#a" x="28.336" y="819.502"/><use xlink:href="#b" x="32.618" y="819.502"/><g><use xlink:href="#c" x="36.937" y="819.502"/><use xlink:href="#c" x="39.029" y="819.502"/></g></g></svg>