<svg xmlns="http://www.w3.org/2000/svg" xmlns:xlink="http://www.w3.org/1999/xlink" width="794.366" height="1122.52" viewBox="0 0 595.7748 841.89" version="1.2"><defs><symbol overflow="visible" id="a"><path d="M1.813-2.453v-.672c.332 0 .554-.04.671-.125.207-.121.313-.332.313-.625a.775.775 0 0 0-.219-.563A.834.834 0 0 0 2-4.64c-.219 0-.395.055-.516.157-.117.105-.199.289-.25.546H.438c.082-.488.25-.847.5-1.078.257-.238.617-.359 1.078-.359.457 0 .832.145 1.125.422.289.273.437.621.437 1.047 0 .48-.195.855-.578 1.125.434.261.656.68.656 1.25 0 .48-.164.87-.484 1.172-.313.293-.723.437-1.219.437C1.316.078.848-.148.547-.609.41-.805.324-1.08.297-1.422h.766c.039.25.14.445.296.578.164.137.375.203.625.203a.868.868 0 0 0 .641-.25.946.946 0 0 0 .25-.671c0-.352-.129-.61-.375-.766-.148-.082-.379-.125-.688-.125zm0 0"/></symbol><symbol overflow="visible" id="b"><path d="M3.453-1.469h.563v.719h-.563V0h-.797v-.75H.062l3.391-4.922zm-.797 0v-1.765L1.437-1.47zm0 0"/></symbol><symbol overflow="visible" id="d"><path d="M1.453 0h.406l1.422-4.375h-.375l-.781 2.516c-.156.53-.281.937-.453 1.468H1.64c-.172-.53-.282-.937-.454-1.468l-.78-2.516H.03zm0 0"/></symbol><symbol overflow="visible" id="e"><path d="M.75-.156c.156 0 .313-.11.313-.313A.317.317 0 0 0 .75-.797a.317.317 0 0 0-.313.328c0 .203.157.313.313.313zm0 0"/></symbol><symbol overflow="visible" id="g"><path d="M1.844-3.953h1.078v-.281H.406v.28h1.125v.563c0 1.11-.484 2.016-1.218 2.407l.203.25c.578-.329 1-.954 1.187-1.75.188.718.578 1.265 1.125 1.578l.203-.25c-.734-.375-1.187-1.235-1.187-2.235zm2.687-.953v2.203h-.86v-2.078H3.36V.125h.313v-2.547h.86V.422h.312v-5.328zm0 0"/></symbol><symbol overflow="visible" id="h"><path d="M3.469-2.5c-.75.156-1.406.188-2.453.188H.937v-1.844h2.016v-.282H.61v2.407h.407c1.078 0 1.718-.047 2.5-.188zM1.516-1.422h-.329V.281h3.516V.016H1.516zm2.937-1.844v-1.656h-.328v3.875h.328v-1.937h.828v-.282zm0 0"/></symbol><symbol overflow="visible" id="i"><path d="M2.078-4.5C1.25-4.5.672-4.016.672-3.281c0 .719.578 1.219 1.406 1.219s1.406-.5 1.406-1.22c0-.734-.578-1.218-1.406-1.218zm0 .281c.64 0 1.094.39 1.094.938 0 .547-.453.937-1.094.937-.64 0-1.094-.39-1.094-.937s.454-.938 1.094-.938zm2.219-.687V.422h.312v-5.328zM.422-.796c.969 0 2.297 0 3.531-.235l-.031-.235c-1.188.172-2.547.188-3.547.188zm0 0"/></symbol><symbol overflow="visible" id="j"><path d="M.734-1.734v-.547h.922v.547zm0-1.297h.922v.515H.734zm2.157 0v.515h-.97v-.515zm0 1.297h-.97v-.547h.97zm2.703-1.829H4.28c.016-.453.016-.906.016-1.374h-.281c0 .468 0 .921-.016 1.375h-.797v.265H4c-.063 1.172-.234 2.235-.813 2.985v-.063c-.421.047-.859.094-1.265.14v-.593h1.234v-.235H1.922v-.453H3.14v-1.75H1.92v-.453h1.345v-.25H1.922V-4.5c.469-.047.89-.11 1.219-.188l-.172-.218c-.594.125-1.703.234-2.594.281.031.063.063.172.078.234.375-.015.797-.046 1.203-.078v.5H.281v.25h1.375v.453H.47v1.75h1.187v.454H.47v.234h1.187v.625c-.515.062-.984.11-1.36.14l.048.266C1.063.125 2.063 0 3.03-.109c-.14.14-.281.265-.437.375.062.046.172.125.219.187 1.109-.797 1.374-2.156 1.453-3.75h1.03C5.22-.953 5.157-.125 5 .063c-.063.062-.11.078-.219.078-.11 0-.406 0-.718-.032a.993.993 0 0 1 .093.282c.266.015.563.015.719.015.172-.015.281-.047.375-.187.188-.25.266-1.063.344-3.625zm0 0"/></symbol><symbol overflow="visible" id="k"><path d="M5.094-4.906c-.39.125-1.047.234-1.64.312l-.22-.047c-.109.422-.312.985-.578 1.344.063.031.172.094.219.14.234-.312.422-.78.563-1.187.624-.062 1.374-.187 1.859-.36zm-.25.531c.25.36.547.844.672 1.14l.234-.109c-.125-.297-.422-.765-.688-1.125zm-.407 1.016a3.494 3.494 0 0 0-.296-.891l-.25.047c.125.297.234.672.265.922zm-1.593.28h-1.14v-.483h.952v-.235h-.953v-.453h1.031v-.234h-1.03V-5h-.282v.516h-1v.234h1v.453H.516v.235h.906v.484H.282v.234h2.562zM1.688-1.25v-.953h.656v.953zm-.86-.953h.625v.953H.828zm1.781-.235H.563V.438h.265V-1h1.516V.11c0 .046-.016.077-.078.077H1.78c.032.063.078.172.094.235.313 0 .484 0 .594-.047.11-.047.14-.125.14-.266zm2.5 1.25H4.25v-.703h.86zm-.859-1.64h.86v.687h-.86zm1.516.687h-.391v-.937H3.094v.25h.89v.687h-1.25v.25h1.25v.704h-.937v.25h.937V.077c0 .063-.03.078-.109.094h-.703a.956.956 0 0 1 .11.266c.39 0 .64 0 .78-.047.141-.047.188-.141.188-.329v-1h.86v.282h.265v-1.235h.39zm0 0"/></symbol><symbol overflow="visible" id="l"><path d="M1.438-3.422h.609v-.281h-.61V-5h-.28v1.297H.343v.281h.765C.953-2.532.594-1.516.22-.984c.062.062.14.171.172.234.296-.438.578-1.188.765-1.922V.422h.282v-2.828c.187.203.406.484.5.625l.171-.235c-.093-.125-.5-.578-.671-.718zm1.937-1.031v.484h-.953v-.484zm-.953 1.219v-.5h.953v.5zm1.203.25v-1.72H2.156V.454h.266v-3.437zm.578 1.828c.078-.14.156-.297.25-.485l-.187-.078c-.047.14-.157.344-.22.485zm-1.016-.485c.094.157.172.344.204.485l.171-.063c-.015-.125-.109-.328-.203-.468zm-.156-.187h.672v.766h-.672zm1.61.766h-.72v-.766h.72zm.218.203v-1.172h-.921v-.328h1.046v-.235H3.938v-.312h-.235v.312H2.688v.235h1.015v.328h-.89V-.86h.765a2.768 2.768 0 0 1-.969.843c.063.047.141.125.188.172.297-.172.64-.5.906-.828v.938h.235v-.954c.25.297.593.625.843.797.047-.046.125-.14.188-.187a3.025 3.025 0 0 1-.907-.781zm-.593-2.375v-.5h1v.5zm1-1.22v.485h-1v-.484zm.265-.25H4.016v1.72h1.25V.094c0 .062-.016.093-.079.093h-.53c.03.063.077.172.093.25.313 0 .516-.015.625-.046.125-.047.156-.125.156-.313zm0 0"/></symbol><symbol overflow="visible" id="m"><path d="M.36 0h3.515v-.422H2.062c-.312 0-.64.031-.968.047 1.547-1.438 2.5-2.672 2.5-3.89 0-1-.61-1.673-1.625-1.673-.703 0-1.188.36-1.625.844l.281.282c.344-.422.797-.735 1.297-.735.828 0 1.203.578 1.203 1.297 0 1.063-.781 2.266-2.766 3.969zm0 0"/></symbol><symbol overflow="visible" id="n"><path d="M1.016-.203c.187 0 .39-.156.39-.422 0-.281-.203-.453-.39-.453-.235 0-.422.172-.422.453 0 .266.187.422.422.422zm0 0"/></symbol><symbol overflow="visible" id="o"><path d="M2.14.11c1.063 0 1.72-1 1.72-3.047 0-2.016-.657-3-1.72-3-1.062 0-1.718.984-1.718 3C.422-.892 1.078.108 2.14.108zm0-.391c-.75 0-1.25-.89-1.25-2.656 0-1.735.5-2.61 1.25-2.61s1.25.875 1.25 2.61c0 1.765-.5 2.656-1.25 2.656zm0 0"/></symbol><symbol overflow="visible" id="p"><path d="M.734 0H3.75v-.406H2.531v-5.422h-.375c-.281.156-.64.281-1.11.36v.312h1.016v4.75H.734zm0 0"/></symbol><symbol overflow="visible" id="q"><path d="M1.64 0h.5c.094-2.281.376-3.75 1.766-5.547v-.281H.391v.406h2.953C2.172-3.812 1.734-2.328 1.64 0zm0 0"/></symbol><symbol overflow="visible" id="s"><path d="M.844 2.219h.344v-8.86H.844zm0 0"/></symbol><symbol overflow="visible" id="t"><path d="M2.438-5.281h1.406v-.36H.547v.36H2.03v.812c0 1.36-.687 2.657-1.64 3.235l.28.312c.735-.453 1.313-1.36 1.563-2.422.25.985.797 1.813 1.516 2.25l.281-.312c-.937-.532-1.593-1.797-1.593-3.063zm2.171 1.36H3.281v.358H4.61V.172h.407V-6.36h-.407zm1.422-2.626v7.11h.422v-7.11zm0 0"/></symbol><symbol overflow="visible" id="u"><path d="M.688-2.063l1.578-2.312a8.18 8.18 0 0 0 .468-.797h.047c-.031.266-.047.703-.047.969v2.14zM2.733 0h.454v-1.656h.828v-.407h-.829v-3.765h-.453L.156-1.953v.297h2.578zm0 0"/></symbol><symbol overflow="visible" id="v"><path d="M4.984-5.625H3.047v-.938h-.438v.938H.656v.36h4.328zm-3.421 2.14c0-.562.515-.953 1.265-.953.75 0 1.266.391 1.266.954 0 .562-.516.968-1.266.968s-1.265-.406-1.265-.968zm1.484 1.297C3.922-2.265 4.5-2.75 4.5-3.484c0-.797-.672-1.297-1.672-1.297-1 0-1.672.5-1.672 1.297 0 .75.578 1.234 1.453 1.296v.876c-.75.03-1.468.046-2.109.046l.063.36c1.343 0 3.093-.016 4.703-.281L5.234-1.5a32.64 32.64 0 0 1-2.187.172zm2.687-4.359V.547h.422v-7.094zm0 0"/></symbol><symbol overflow="visible" id="w"><path d="M5.797-6.547v7.11h.422v-7.11zm-3.281.578C1.484-5.969.75-5.016.75-3.53c0 1.484.734 2.437 1.766 2.437 1.03 0 1.765-.953 1.765-2.437 0-1.485-.734-2.438-1.765-2.438zm0 .375c.796 0 1.359.844 1.359 2.063 0 1.219-.563 2.078-1.36 2.078-.796 0-1.359-.86-1.359-2.078 0-1.219.563-2.063 1.36-2.063zm0 0"/></symbol><symbol overflow="visible" id="x"><path d="M2.688-5.89H2.28v1.421c0 1.282-.969 2.64-1.89 3.125l.25.36C1.42-1.438 2.187-2.406 2.5-3.5c.313 1.047 1.063 1.938 1.844 2.36l.25-.329c-.922-.484-1.907-1.765-1.907-3zm4.406 2.312H5.859v-2.969h-.421v7.11h.421V-3.22h1.235zm0 0"/></symbol></defs><g fill="#898989"><use xlink:href="#a" x="28.336" y="819.502"/><use xlink:href="#b" x="32.457" y="819.502"/></g><g fill="#898989"><use xlink:href="#c" x="36.776" y="819.502"/><use xlink:href="#c" x="38.868" y="819.502"/></g><g fill="#595757"><use xlink:href="#d" x="513.752" y="819.327"/><use xlink:href="#e" x="516.931" y="819.327"/><use xlink:href="#f" x="518.317" y="819.327"/><use xlink:href="#g" x="519.876" y="819.327"/><use xlink:href="#h" x="525.274" y="819.327"/><use xlink:href="#i" x="530.672" y="819.327"/><use xlink:href="#f" x="536.07" y="819.327"/><use xlink:href="#j" x="537.629" y="819.327"/><use xlink:href="#k" x="543.507" y="819.327"/><use xlink:href="#l" x="549.385" y="819.327"/><use xlink:href="#f" x="555.263" y="819.327"/></g><use xlink:href="#m" x="28.336" y="61.924"/><use xlink:href="#m" x="32.454" y="61.924"/><use xlink:href="#n" x="36.573" y="61.924"/><use xlink:href="#o" x="38.42" y="61.924"/><use xlink:href="#m" x="42.538" y="61.924"/><use xlink:href="#n" x="46.657" y="61.924"/><use xlink:href="#p" x="48.504" y="61.924"/><use xlink:href="#q" x="52.623" y="61.924"/><use xlink:href="#r" x="56.741" y="61.924"/><use xlink:href="#s" x="58.82" y="61.924"/><use xlink:href="#r" x="60.692" y="61.924"/><use xlink:href="#t" x="62.771" y="61.924"/><use xlink:href="#p" x="69.968" y="61.924"/><use xlink:href="#u" x="74.086" y="61.924"/><use xlink:href="#v" x="78.205" y="61.924"/><use xlink:href="#r" x="85.402" y="61.924"/><use xlink:href="#w" x="87.481" y="61.924"/><use xlink:href="#x" x="94.679" y="61.924"/><use xlink:href="#v" x="101.876" y="61.924"/></svg>