<svg xmlns="http://www.w3.org/2000/svg" xmlns:xlink="http://www.w3.org/1999/xlink" width="793.701" height="1122.52" viewBox="0 0 595.276 841.89" version="1.2"><defs><symbol overflow="visible" id="a"><path d="M.328-1.234c0 .39.125.718.375.984.266.25.64.39 1.14.39.75 0 1.282-.406 1.579-1.203.203-.484.297-1.03.297-1.671 0-.547-.078-1.016-.235-1.375-.28-.672-.796-1-1.546-1-.547 0-.97.171-1.25.515-.282.36-.422.766-.422 1.235 0 .484.14.875.421 1.171.297.313.672.47 1.172.47.235 0 .47-.048.688-.141.203-.094.375-.25.515-.47-.078.782-.234 1.298-.453 1.548-.218.25-.484.39-.796.39-.157 0-.313-.046-.438-.109-.266-.14-.39-.39-.406-.734zm1.61-1.047c-.344 0-.61-.094-.766-.297-.172-.188-.25-.453-.25-.797 0-.344.094-.625.281-.844a.977.977 0 0 1 .75-.312.99.99 0 0 1 .719.281c.187.172.281.469.281.828 0 .422-.094.719-.312.89a1.05 1.05 0 0 1-.704.25zm0 0"/></symbol><symbol overflow="visible" id="b"><path d="M.266-5.016v.641h2.828c-.36.406-.703.89-1.031 1.469C1.515-1.953 1.155-.984 1 0h.703a10.9 10.9 0 0 1 .281-1.14c.094-.36.25-.766.454-1.22a8.37 8.37 0 0 1 .734-1.265c.265-.406.484-.688.64-.844v-.547zm0 0"/></symbol><symbol overflow="visible" id="c"><path d="M.219 0h3.515v-.61H.938c.062-.25.218-.484.453-.687.14-.11.312-.234.546-.36l.5-.28c.422-.235.72-.438.876-.61.296-.281.437-.64.437-1.047 0-.39-.125-.734-.406-1.047-.266-.312-.688-.468-1.281-.468-.704 0-1.188.25-1.47.734-.155.281-.234.64-.25 1.078H1c.016-.312.063-.562.156-.734.172-.328.469-.5.907-.5.296 0 .53.093.703.265.187.172.28.407.28.704 0 .25-.093.484-.296.687-.125.11-.328.266-.64.438l-.688.406c-.453.265-.766.562-.922.89C.344-.828.25-.437.219 0zm0 0"/></symbol><symbol overflow="visible" id="d"><path d="M2.14-5.11c-.796 0-1.328.423-1.624 1.266-.157.438-.235.969-.235 1.61 0 .859.172 1.468.516 1.828.344.36.75.547 1.234.547.563 0 1-.188 1.297-.547a1.87 1.87 0 0 0 .453-1.219c0-.547-.156-.953-.484-1.234A1.675 1.675 0 0 0 1.5-3.11c-.234.093-.406.25-.563.468.032-.609.141-1.093.36-1.421.203-.329.484-.485.86-.485.312 0 .546.11.702.313.079.125.141.265.172.468h.64c0-.312-.108-.609-.327-.906-.235-.297-.625-.437-1.203-.437zM2.095-.436c-.328 0-.594-.11-.781-.329-.204-.218-.297-.484-.297-.812 0-.36.109-.64.312-.828.219-.172.453-.266.734-.266.391 0 .672.11.813.344.156.234.219.484.219.75 0 .312-.078.578-.235.797-.171.234-.421.344-.765.344zm0 0"/></symbol><symbol overflow="visible" id="e"><path d="M1.89-3.61V0h.688v-5.078h-.5c-.094.39-.234.64-.422.75-.172.11-.5.187-.953.234v.485zm0 0"/></symbol><symbol overflow="visible" id="f"><path d="M.234-1.297c.032.484.22.844.532 1.078.328.235.687.344 1.109.344.656 0 1.125-.172 1.422-.547.297-.36.453-.797.453-1.281 0-.469-.172-.844-.5-1.156-.313-.297-.719-.454-1.188-.454-.25 0-.468.047-.656.126-.11.046-.218.109-.343.203l.218-1.407h2.172v-.625H.813l-.391 2.75.547.032c.125-.157.25-.282.406-.36.156-.078.344-.125.563-.125.312 0 .578.094.78.281.22.204.329.485.329.844 0 .282-.094.563-.281.797-.172.25-.454.36-.829.36-.203 0-.375-.032-.53-.11-.298-.125-.47-.39-.516-.75zm0 0"/></symbol><symbol overflow="visible" id="g"><path d="M1.969-5.094c-.735 0-1.235.375-1.516 1.157-.156.406-.234.906-.234 1.5 0 .734.125 1.328.375 1.78.297.532.765.798 1.375.798.687 0 1.172-.329 1.468-.985.204-.453.313-1.015.313-1.719 0-.734-.125-1.312-.344-1.718-.297-.547-.781-.813-1.437-.813zm0 4.657c-.422 0-.719-.25-.875-.735-.11-.312-.172-.719-.172-1.25 0-.687.078-1.219.265-1.562.172-.36.438-.532.813-.532.422 0 .688.188.844.563.14.375.203.844.203 1.422 0 .797-.094 1.344-.281 1.64-.204.297-.47.454-.797.454zm0 0"/></symbol><symbol overflow="visible" id="i"><path d="M.766 0h.75v-5.563h-.75zm0 0"/></symbol><symbol overflow="visible" id="j"><path d="M.375-1.797C.359-1.203.547-.719.938-.359c.375.343.906.515 1.593.515.578 0 1.078-.125 1.516-.39.437-.266.656-.704.656-1.329 0-.484-.172-.875-.516-1.125-.203-.156-.468-.265-.843-.359l-.766-.172c-.5-.125-.828-.219-.969-.312-.234-.125-.328-.328-.328-.594 0-.25.078-.469.266-.656.187-.188.5-.282.937-.282.516 0 .891.157 1.125.438.11.172.188.39.235.703h.703c0-.625-.203-1.078-.61-1.36-.39-.28-.874-.421-1.437-.421-.625 0-1.094.156-1.438.484-.328.313-.5.719-.5 1.235 0 .453.172.796.516 1.03.203.142.531.267 1.016.376l.719.156c.406.094.703.219.89.344.172.125.266.344.266.64 0 .407-.219.688-.656.844a2.193 2.193 0 0 1-.735.125c-.61 0-1.047-.187-1.281-.562-.125-.188-.203-.438-.219-.766zm0 0"/></symbol><symbol overflow="visible" id="k"><path d="M.594 0h.719v-4.516L4.124 0h.86v-5.578H4.25v4.5l-2.766-4.5h-.89zm0 0"/></symbol><symbol overflow="visible" id="l"><path d="M.234 0H3.97v-.64H1c.078-.266.234-.516.484-.735.141-.125.329-.25.579-.39l.515-.298c.469-.25.781-.468.953-.64a1.52 1.52 0 0 0 .453-1.125c0-.406-.125-.781-.421-1.11-.282-.328-.75-.5-1.36-.5-.75 0-1.265.266-1.562.782C.469-4.36.375-3.97.375-3.5h.703c0-.344.063-.594.156-.797.172-.344.5-.531.97-.531.312 0 .562.094.75.281.187.188.28.438.28.75a.982.982 0 0 1-.312.735 3.26 3.26 0 0 1-.672.484l-.734.406c-.485.297-.813.61-.985.953C.36-.875.266-.469.234 0zm0 0"/></symbol><symbol overflow="visible" id="m"><path d="M2.281-5.438C1.437-5.438.86-5 .547-4.093c-.172.469-.25 1.047-.25 1.719 0 .906.187 1.563.547 1.953.375.375.812.563 1.328.563.594 0 1.047-.188 1.375-.563.312-.39.469-.828.469-1.312 0-.579-.157-1-.5-1.297a1.747 1.747 0 0 0-1.188-.438c-.281 0-.515.047-.734.156-.25.11-.438.282-.594.516.031-.672.156-1.172.375-1.515.219-.36.531-.532.922-.532.328 0 .578.11.734.344.094.125.156.281.203.5h.672c0-.328-.11-.656-.344-.969-.25-.312-.671-.468-1.28-.468zM2.234-.452c-.359 0-.64-.125-.843-.36-.204-.234-.297-.515-.297-.859 0-.39.11-.687.328-.89a1.13 1.13 0 0 1 .766-.282c.421 0 .718.125.874.375.157.25.235.516.235.797 0 .328-.078.61-.266.844-.172.25-.453.375-.797.375zm0 0"/></symbol><symbol overflow="visible" id="n"><path d="M.281-5.344v.688h3.016c-.39.437-.75.953-1.094 1.562C1.61-2.078 1.234-1.047 1.063 0h.75c.125-.563.218-.969.296-1.219.11-.375.282-.812.485-1.297.219-.468.484-.921.781-1.343.281-.422.516-.72.688-.891v-.594zm0 0"/></symbol><symbol overflow="visible" id="o"><path d="M2.016-3.844V0h.734v-5.406h-.547c-.094.422-.234.687-.437.797-.188.109-.532.203-1.016.25v.515zm0 0"/></symbol><symbol overflow="visible" id="p"><path d="M.328-1.813h1.906v-.703H.328zm0 0"/></symbol><symbol overflow="visible" id="q"><path d="M.344-1.313c0 .422.14.766.406 1.047.281.266.688.407 1.219.407.781 0 1.36-.422 1.687-1.282.203-.5.297-1.093.297-1.765 0-.594-.078-1.078-.25-1.469-.297-.719-.844-1.063-1.64-1.063-.594 0-1.032.188-1.329.547-.312.375-.453.813-.453 1.313 0 .515.156.937.453 1.25.313.328.72.5 1.25.5.25 0 .5-.047.72-.156.218-.094.405-.266.562-.5-.094.828-.266 1.375-.5 1.656-.22.265-.5.406-.829.406-.171 0-.343-.031-.484-.11-.266-.14-.406-.405-.422-.78zm1.719-1.125c-.376 0-.657-.093-.813-.296-.172-.22-.266-.5-.266-.86s.11-.672.297-.89c.188-.235.453-.344.797-.344.313 0 .563.11.766.297.203.203.297.5.297.89 0 .454-.11.766-.329.954-.234.171-.468.25-.75.25zm0 0"/></symbol><symbol overflow="visible" id="r"><path d="M.25-1.375c.031.5.234.89.563 1.14.343.25.734.376 1.171.376.704 0 1.204-.188 1.532-.594.312-.39.468-.844.468-1.36 0-.5-.171-.89-.515-1.218-.344-.328-.781-.485-1.266-.485-.265 0-.5.032-.703.125a1.478 1.478 0 0 0-.36.22l.22-1.5h2.312v-.673H.859L.438-2.422l.593.031c.125-.156.266-.28.438-.359.156-.094.36-.14.593-.14.329 0 .61.093.829.312.234.203.359.5.359.875 0 .312-.11.594-.297.86-.203.25-.484.39-.89.39-.22 0-.407-.047-.563-.125C1.187-.718 1-1 .953-1.375zm0 0"/></symbol><symbol overflow="visible" id="s"><path d="M2.094-5.422c-.781 0-1.313.406-1.61 1.234-.171.438-.25.97-.25 1.594 0 .781.141 1.422.407 1.89.312.579.796.845 1.453.845.719 0 1.25-.344 1.562-1.032.219-.484.328-1.093.328-1.828 0-.781-.125-1.39-.359-1.844-.313-.578-.828-.859-1.531-.859zm0 4.953c-.453 0-.766-.265-.938-.781-.11-.328-.172-.766-.172-1.328 0-.735.094-1.297.282-1.656.171-.391.468-.579.875-.579.437 0 .718.204.875.61.156.39.234.89.234 1.516 0 .843-.11 1.421-.313 1.75-.218.312-.5.468-.843.468zm0 0"/></symbol></defs><use xlink:href="#a" x="422.193" y="733.883"/><use xlink:href="#b" x="433.184" y="733.883"/><use xlink:href="#b" x="439.197" y="733.883"/><use xlink:href="#c" x="445.21" y="733.883"/><use xlink:href="#d" x="451.224" y="733.883"/><use xlink:href="#b" x="457.237" y="733.883"/><use xlink:href="#e" x="463.25" y="733.883"/><g><use xlink:href="#a" x="473.294" y="733.883"/><use xlink:href="#e" x="479.308" y="733.883"/><use xlink:href="#f" x="485.321" y="733.883"/><use xlink:href="#g" x="491.334" y="733.883"/><use xlink:href="#g" x="497.348" y="733.883"/><use xlink:href="#d" x="503.361" y="733.883"/></g><g><use xlink:href="#e" x="523.855" y="672.39"/><use xlink:href="#c" x="527.913" y="672.39"/></g><g><use xlink:href="#h" x="421.236" y="743.45"/><use xlink:href="#h" x="423.392" y="743.45"/><use xlink:href="#h" x="425.549" y="743.45"/><use xlink:href="#h" x="427.706" y="743.45"/><use xlink:href="#h" x="429.863" y="743.45"/><use xlink:href="#h" x="432.02" y="743.45"/><use xlink:href="#i" x="434.177" y="743.45"/><use xlink:href="#j" x="436.333" y="743.45"/><use xlink:href="#j" x="441.508" y="743.45"/><use xlink:href="#k" x="446.683" y="743.45"/><use xlink:href="#h" x="452.285" y="743.45"/><use xlink:href="#l" x="454.441" y="743.45"/><use xlink:href="#m" x="458.755" y="743.45"/><use xlink:href="#n" x="463.069" y="743.45"/><use xlink:href="#o" x="467.382" y="743.45"/><use xlink:href="#p" x="471.696" y="743.45"/><use xlink:href="#q" x="474.28" y="743.45"/><use xlink:href="#o" x="478.593" y="743.45"/><use xlink:href="#r" x="482.907" y="743.45"/><use xlink:href="#s" x="487.221" y="743.45"/></g></svg>