<svg xmlns="http://www.w3.org/2000/svg" xmlns:xlink="http://www.w3.org/1999/xlink" width="794.366" height="1122.52" viewBox="0 0 595.7748 841.89" version="1.2"><defs><symbol overflow="visible" id="a"><path d="M1.813-2.453v-.672c.332 0 .554-.04.671-.125.207-.121.313-.332.313-.625a.775.775 0 0 0-.219-.563A.834.834 0 0 0 2-4.64c-.219 0-.395.055-.516.157-.117.105-.199.289-.25.546H.438c.082-.488.25-.847.5-1.078.257-.238.617-.359 1.078-.359.457 0 .832.145 1.125.422.289.273.437.621.437 1.047 0 .48-.195.855-.578 1.125.434.261.656.68.656 1.25 0 .48-.164.87-.484 1.172-.313.293-.723.437-1.219.437C1.316.078.848-.148.547-.609.41-.805.324-1.08.297-1.422h.766c.039.25.14.445.296.578.164.137.375.203.625.203a.868.868 0 0 0 .641-.25.946.946 0 0 0 .25-.671c0-.352-.129-.61-.375-.766-.148-.082-.379-.125-.688-.125zm0 0"/></symbol><symbol overflow="visible" id="b"><path d="M1.219-2.75A1.28 1.28 0 0 1 .64-3.86c0-.425.144-.785.437-1.078.29-.277.66-.421 1.11-.421.433 0 .8.144 1.093.421.29.282.438.645.438 1.079 0 .46-.196.832-.578 1.109.207.117.375.285.5.5.113.219.171.465.171.734 0 .47-.152.856-.453 1.157-.304.293-.695.437-1.171.437-.493 0-.895-.144-1.204-.437C.66-.66.5-1.04.5-1.5c0-.59.238-1.008.719-1.25zm.172-1.11a.778.778 0 0 0 .78.797.773.773 0 0 0 .563-.234.776.776 0 0 0 0-1.11.79.79 0 0 0-1.125 0 .742.742 0 0 0-.218.548zM1.28-1.53c0 .25.082.46.25.625a.84.84 0 0 0 .625.265.883.883 0 0 0 .625-.25.887.887 0 0 0 .25-.625.835.835 0 0 0-.265-.625.844.844 0 0 0-.61-.25.831.831 0 0 0-.61.25.8.8 0 0 0-.265.61zm0 0"/></symbol><symbol overflow="visible" id="d"><path d="M1.453 0h.406l1.422-4.375h-.375l-.781 2.516c-.156.53-.281.937-.453 1.468H1.64c-.172-.53-.282-.937-.454-1.468l-.78-2.516H.03zm0 0"/></symbol><symbol overflow="visible" id="e"><path d="M.75-.156c.156 0 .313-.11.313-.313A.317.317 0 0 0 .75-.797a.317.317 0 0 0-.313.328c0 .203.157.313.313.313zm0 0"/></symbol><symbol overflow="visible" id="g"><path d="M1.844-3.953h1.078v-.281H.406v.28h1.125v.563c0 1.11-.484 2.016-1.218 2.407l.203.25c.578-.329 1-.954 1.187-1.75.188.718.578 1.265 1.125 1.578l.203-.25c-.734-.375-1.187-1.235-1.187-2.235zm2.687-.953v2.203h-.86v-2.078H3.36V.125h.313v-2.547h.86V.422h.312v-5.328zm0 0"/></symbol><symbol overflow="visible" id="h"><path d="M3.469-2.5c-.75.156-1.406.188-2.453.188H.937v-1.844h2.016v-.282H.61v2.407h.407c1.078 0 1.718-.047 2.5-.188zM1.516-1.422h-.329V.281h3.516V.016H1.516zm2.937-1.844v-1.656h-.328v3.875h.328v-1.937h.828v-.282zm0 0"/></symbol><symbol overflow="visible" id="i"><path d="M2.078-4.5C1.25-4.5.672-4.016.672-3.281c0 .719.578 1.219 1.406 1.219s1.406-.5 1.406-1.22c0-.734-.578-1.218-1.406-1.218zm0 .281c.64 0 1.094.39 1.094.938 0 .547-.453.937-1.094.937-.64 0-1.094-.39-1.094-.937s.454-.938 1.094-.938zm2.219-.687V.422h.312v-5.328zM.422-.796c.969 0 2.297 0 3.531-.235l-.031-.235c-1.188.172-2.547.188-3.547.188zm0 0"/></symbol><symbol overflow="visible" id="j"><path d="M.734-1.734v-.547h.922v.547zm0-1.297h.922v.515H.734zm2.157 0v.515h-.97v-.515zm0 1.297h-.97v-.547h.97zm2.703-1.829H4.28c.016-.453.016-.906.016-1.374h-.281c0 .468 0 .921-.016 1.375h-.797v.265H4c-.063 1.172-.234 2.235-.813 2.985v-.063c-.421.047-.859.094-1.265.14v-.593h1.234v-.235H1.922v-.453H3.14v-1.75H1.92v-.453h1.345v-.25H1.922V-4.5c.469-.047.89-.11 1.219-.188l-.172-.218c-.594.125-1.703.234-2.594.281.031.063.063.172.078.234.375-.015.797-.046 1.203-.078v.5H.281v.25h1.375v.453H.47v1.75h1.187v.454H.47v.234h1.187v.625c-.515.062-.984.11-1.36.14l.048.266C1.063.125 2.063 0 3.03-.109c-.14.14-.281.265-.437.375.062.046.172.125.219.187 1.109-.797 1.374-2.156 1.453-3.75h1.03C5.22-.953 5.157-.125 5 .063c-.063.062-.11.078-.219.078-.11 0-.406 0-.718-.032a.993.993 0 0 1 .093.282c.266.015.563.015.719.015.172-.015.281-.047.375-.187.188-.25.266-1.063.344-3.625zm0 0"/></symbol><symbol overflow="visible" id="k"><path d="M5.094-4.906c-.39.125-1.047.234-1.64.312l-.22-.047c-.109.422-.312.985-.578 1.344.063.031.172.094.219.14.234-.312.422-.78.563-1.187.624-.062 1.374-.187 1.859-.36zm-.25.531c.25.36.547.844.672 1.14l.234-.109c-.125-.297-.422-.765-.688-1.125zm-.407 1.016a3.494 3.494 0 0 0-.296-.891l-.25.047c.125.297.234.672.265.922zm-1.593.28h-1.14v-.483h.952v-.235h-.953v-.453h1.031v-.234h-1.03V-5h-.282v.516h-1v.234h1v.453H.516v.235h.906v.484H.282v.234h2.562zM1.688-1.25v-.953h.656v.953zm-.86-.953h.625v.953H.828zm1.781-.235H.563V.438h.265V-1h1.516V.11c0 .046-.016.077-.078.077H1.78c.032.063.078.172.094.235.313 0 .484 0 .594-.047.11-.047.14-.125.14-.266zm2.5 1.25H4.25v-.703h.86zm-.859-1.64h.86v.687h-.86zm1.516.687h-.391v-.937H3.094v.25h.89v.687h-1.25v.25h1.25v.704h-.937v.25h.937V.077c0 .063-.03.078-.109.094h-.703a.956.956 0 0 1 .11.266c.39 0 .64 0 .78-.047.141-.047.188-.141.188-.329v-1h.86v.282h.265v-1.235h.39zm0 0"/></symbol><symbol overflow="visible" id="l"><path d="M1.438-3.422h.609v-.281h-.61V-5h-.28v1.297H.343v.281h.765C.953-2.532.594-1.516.22-.984c.062.062.14.171.172.234.296-.438.578-1.188.765-1.922V.422h.282v-2.828c.187.203.406.484.5.625l.171-.235c-.093-.125-.5-.578-.671-.718zm1.937-1.031v.484h-.953v-.484zm-.953 1.219v-.5h.953v.5zm1.203.25v-1.72H2.156V.454h.266v-3.437zm.578 1.828c.078-.14.156-.297.25-.485l-.187-.078c-.047.14-.157.344-.22.485zm-1.016-.485c.094.157.172.344.204.485l.171-.063c-.015-.125-.109-.328-.203-.468zm-.156-.187h.672v.766h-.672zm1.61.766h-.72v-.766h.72zm.218.203v-1.172h-.921v-.328h1.046v-.235H3.938v-.312h-.235v.312H2.688v.235h1.015v.328h-.89V-.86h.765a2.768 2.768 0 0 1-.969.843c.063.047.141.125.188.172.297-.172.64-.5.906-.828v.938h.235v-.954c.25.297.593.625.843.797.047-.046.125-.14.188-.187a3.025 3.025 0 0 1-.907-.781zm-.593-2.375v-.5h1v.5zm1-1.22v.485h-1v-.484zm.265-.25H4.016v1.72h1.25V.094c0 .062-.016.093-.079.093h-.53c.03.063.077.172.093.25.313 0 .516-.015.625-.046.125-.047.156-.125.156-.313zm0 0"/></symbol><symbol overflow="visible" id="m"><path d="M.36 0h3.515v-.422H2.062c-.312 0-.64.031-.968.047 1.547-1.438 2.5-2.672 2.5-3.89 0-1-.61-1.673-1.625-1.673-.703 0-1.188.36-1.625.844l.281.282c.344-.422.797-.735 1.297-.735.828 0 1.203.578 1.203 1.297 0 1.063-.781 2.266-2.766 3.969zm0 0"/></symbol><symbol overflow="visible" id="n"><path d="M1.016-.203c.187 0 .39-.156.39-.422 0-.281-.203-.453-.39-.453-.235 0-.422.172-.422.453 0 .266.187.422.422.422zm0 0"/></symbol><symbol overflow="visible" id="o"><path d="M2.14.11c1.063 0 1.72-1 1.72-3.047 0-2.016-.657-3-1.72-3-1.062 0-1.718.984-1.718 3C.422-.892 1.078.108 2.14.108zm0-.391c-.75 0-1.25-.89-1.25-2.656 0-1.735.5-2.61 1.25-2.61s1.25.875 1.25 2.61c0 1.765-.5 2.656-1.25 2.656zm0 0"/></symbol><symbol overflow="visible" id="p"><path d="M1.64 0h.5c.094-2.281.376-3.75 1.766-5.547v-.281H.391v.406h2.953C2.172-3.812 1.734-2.328 1.64 0zm0 0"/></symbol><symbol overflow="visible" id="q"><path d="M.734 0H3.75v-.406H2.531v-5.422h-.375c-.281.156-.64.281-1.11.36v.312h1.016v4.75H.734zm0 0"/></symbol><symbol overflow="visible" id="r"><path d="M2.063.11c1 0 1.765-.641 1.765-1.657 0-.828-.578-1.344-1.281-1.5v-.047c.625-.203 1.062-.687 1.062-1.437 0-.89-.671-1.407-1.562-1.407-.672 0-1.172.313-1.563.688l.266.313c.328-.344.781-.594 1.281-.61.672.016 1.11.422 1.11 1.047 0 .703-.454 1.25-1.735 1.25v.39c1.39 0 1.938.532 1.938 1.313 0 .75-.547 1.25-1.297 1.25-.75 0-1.203-.344-1.531-.719L.25-.703c.36.406.906.812 1.813.812zm0 0"/></symbol><symbol overflow="visible" id="t"><path d="M.844 2.219h.344v-8.86H.844zm0 0"/></symbol><symbol overflow="visible" id="u"><path d="M.89-5.813v4.532h3.188v-4.532zm2.766.344v3.828h-2.36v-3.828zm2.14-1.078v7.11h.423v-7.11zm0 0"/></symbol><symbol overflow="visible" id="v"><path d="M1.125-1.578v-1.813h2.219v-2.343H.704v.359h2.218v1.625H.719v2.531h.437c.907 0 1.719-.031 2.75-.218l-.047-.36c-1 .188-1.812.219-2.703.219zm4.906-4.969v2.89H4.813v-2.718h-.407V.172h.407v-3.469H6.03v3.86h.422v-7.11zm0 0"/></symbol><symbol overflow="visible" id="w"><path d="M2.766-6C1.656-6 .89-5.344.89-4.375S1.656-2.75 2.766-2.75c1.109 0 1.875-.656 1.875-1.625S3.875-6 2.766-6zm0 .375c.843 0 1.468.516 1.468 1.25s-.625 1.25-1.468 1.25c-.844 0-1.47-.516-1.47-1.25s.626-1.25 1.47-1.25zm2.968-.922v7.11h.422v-7.11zM.563-1.078c1.296 0 3.062 0 4.703-.297l-.047-.328c-1.578.25-3.39.266-4.719.266zm0 0"/></symbol><symbol overflow="visible" id="x"><path d="M4.688-5.719H2.796v-.875h-.422v.875H.485v.344h4.202zM1.296-3.64c0-.546.531-.921 1.281-.921.766 0 1.281.375 1.281.921 0 .547-.515.922-1.28.922-.75 0-1.282-.375-1.282-.922zm2.953 0c0-.78-.656-1.265-1.672-1.265-1 0-1.672.484-1.672 1.265 0 .782.672 1.266 1.672 1.266 1.016 0 1.672-.484 1.672-1.266zM1.39-1.312H5.5V.546h.422v-2.219H1.39zm5.657-3.204H5.922v-2.03H5.5v4.437h.422v-2.032h1.125zm0 0"/></symbol><symbol overflow="visible" id="y"><path d="M.984-4.344c0-.765.594-1.36 1.391-1.36s1.39.595 1.39 1.36c0 .797-.593 1.39-1.39 1.39-.797 0-1.39-.593-1.39-1.39zm4.829-.672v1.344h-1.75c.078-.203.109-.422.109-.672 0-.234-.047-.468-.11-.672zm0 1.704v2.046h.421v-5.28h-.421v1.171H3.859c-.328-.422-.843-.703-1.484-.703-1.031 0-1.797.719-1.797 1.734 0 1.047.766 1.75 1.797 1.75.64 0 1.172-.265 1.5-.719zM2.219.03v-1.843h-.422V.39h4.656V.03zm0 0"/></symbol><symbol overflow="visible" id="z"><path d="M6.875-2.984h-1.11c.204-1.047.204-1.797.204-2.47v-.609H1.297v.36h4.25v.25c0 .672 0 1.422-.234 2.469H.452v.359h3V.563h.422v-3.188h3zm0 0"/></symbol><symbol overflow="visible" id="A"><path d="M2.453-5.281h1.438v-.36H.547v.36h1.5v.765c0 1.485-.64 2.672-1.64 3.22l.28.327c.782-.453 1.344-1.265 1.579-2.344.25.954.78 1.688 1.515 2.094l.266-.328c-.969-.5-1.594-1.64-1.594-2.969zm3.594-1.266v2.953H4.89v-2.781h-.407V.172h.407v-3.39h1.156v3.78h.406v-7.109zm0 0"/></symbol><symbol overflow="visible" id="B"><path d="M4.625-3.328c-1.016.203-1.86.25-3.281.25h-.11v-2.469h2.704v-.36H.812v3.188h.532c1.437 0 2.297-.047 3.343-.25zm-2.61 1.437h-.421V.391H6.28V.03H2.016zm3.907-2.453v-2.218H5.5v5.156h.422V-3.97h1.125v-.375zm0 0"/></symbol><symbol overflow="visible" id="C"><path d="M.36-2.844h1.968v-.39H.36zm0 0"/></symbol><symbol overflow="visible" id="D"><path d="M4.875-4.172h1.11v2.031h.421v-4.406h-.422v2.016H4.875v-1.875h-.406v4.031h.406zm-.89 1.078c-.876-.36-1.516-1.172-1.516-1.969v-1.046h-.406v1.046c0 .797-.657 1.75-1.547 2.141l.234.328c.719-.312 1.266-.984 1.516-1.687a2.67 2.67 0 0 0 1.5 1.5zM4.108.203c-1.156 0-1.906-.344-1.906-.906 0-.547.75-.89 1.906-.89 1.172 0 1.922.343 1.922.89 0 .562-.75.906-1.922.906zm0-2.14c-1.453 0-2.328.453-2.328 1.234C1.781.094 2.656.53 4.11.53c1.454 0 2.329-.437 2.329-1.234 0-.781-.875-1.235-2.329-1.235zm0 0"/></symbol><symbol overflow="visible" id="E"><path d="M2.781-2.234h1.86v1.5H2.78zm2.281 1.5v-1.5H6.22v-.36h-4.5v-1.36h4.343v-2.015H1.266v.344H5.64v1.313H1.297v2.078h1.062v1.5H.453v.359h6.453v-.36zm0 0"/></symbol><symbol overflow="visible" id="F"><path d="M6.234-6.547h-.421v5.25h.421zM4.75-2.734c-1-.344-1.875-1.204-1.875-2.235v-.578h1.734v-.36H.703v.36h1.75v.578c0 1.078-.86 2-1.86 2.375l.22.328c.843-.328 1.578-1 1.859-1.89.297.828 1.047 1.453 1.86 1.75zM2.187.03v-1.828h-.421V.391h4.703V.03zm0 0"/></symbol><symbol overflow="visible" id="G"><path d="M6.484-5.89H3.875v-.798h-.422v.797H.813v.36h5.671zm-1.03 1.734c0 .437-.688.718-1.798.718s-1.797-.28-1.797-.718c0-.438.688-.703 1.797-.703 1.11 0 1.797.265 1.797.703zm-4.032 0c0 .672.812 1.031 2.234 1.031 1.438 0 2.25-.36 2.25-1.031 0-.672-.812-1.032-2.25-1.032-1.422 0-2.234.36-2.234 1.032zM3.656.204c-1.219 0-1.969-.266-1.969-.75 0-.485.75-.766 1.97-.766 1.234 0 1.984.28 1.984.765s-.75.75-1.985.75zm0-1.845c-1.531 0-2.406.375-2.406 1.094 0 .719.875 1.094 2.406 1.094 1.547 0 2.422-.375 2.422-1.094 0-.719-.875-1.094-2.422-1.094zM.453-2.562v.343h6.422v-.344zm0 0"/></symbol><symbol overflow="visible" id="H"><path d="M.844 0h.437v-3.703c0-.469-.031-1.11-.047-1.594h.032L1.719-4 2.953-.625h.39L4.564-4l.453-1.297h.03c-.015.484-.062 1.125-.062 1.594V0h.47v-5.828h-.641L3.609-2.484c-.14.421-.28.859-.437 1.28H3.14c-.157-.421-.297-.859-.454-1.28L1.484-5.828h-.64zm0 0"/></symbol><symbol overflow="visible" id="I"><path d="M2.89.11c1.422 0 2.422-1.188 2.422-3.047 0-1.844-1-3-2.421-3-1.407 0-2.407 1.156-2.407 3 0 1.859 1 3.046 2.407 3.046zm0-.438C1.75-.328.985-1.36.985-2.938c0-1.578.766-2.562 1.907-2.562 1.171 0 1.937.984 1.937 2.563 0 1.578-.766 2.609-1.937 2.609zm0 0"/></symbol><symbol overflow="visible" id="J"><path d="M2.813.11c1.046 0 2-.547 2-2.391v-3.547h-.454v3.531c0 1.516-.718 1.969-1.546 1.969-.797 0-1.516-.453-1.516-1.969v-3.531H.828v3.547c0 1.844.938 2.39 1.985 2.39zm0 0"/></symbol><symbol overflow="visible" id="K"><path d="M2.438-4.813h1.437v-.359H2.453v-1.11h-.422v1.11H.578v.36h1.453v.468c0 1.203-.672 2.5-1.594 3.063l.266.312C1.438-1.422 2-2.297 2.234-3.297c.266.938.844 1.766 1.563 2.188l.265-.344c-.937-.5-1.625-1.719-1.625-2.89zm2.171 1.141H3.36v.36h1.25V.171h.407V-6.36h-.407zm1.422-2.875v7.11h.422v-7.11zm0 0"/></symbol><symbol overflow="visible" id="L"><path d="M5.813-5.078v.984H3.78v.36h2.031v.859h.422v-3.672h-.421v1.11H4.016a3.34 3.34 0 0 0 .078-.704H.922v.36H3.64C3.547-4.484 2.375-3.531.594-3.078l.156.344c1.563-.391 2.719-1.204 3.156-2.344zM2.171.14V-.906h4.062v-1.61h-4.5v.36h4.094v.906H1.766V.484H6.53V.141zm0 0"/></symbol><symbol overflow="visible" id="M"><path d="M.938-4.469c0-.718.515-1.281 1.218-1.281s1.219.563 1.219 1.281c0 .703-.516 1.266-1.219 1.266-.703 0-1.219-.563-1.219-1.266zm3.75.172v1.781h.406V-6.39h-.407v1.735h-.921c-.094-.86-.735-1.453-1.61-1.453-.937 0-1.61.671-1.61 1.64 0 .953.673 1.625 1.61 1.625.875 0 1.531-.594 1.61-1.453zm-2.454 2.61h3.75v1.78h-3.75zM1.828.453h4.578V-2.03H1.828zm4.156-7v4.125h.422v-4.125zm0 0"/></symbol><symbol overflow="visible" id="N"><path d="M1.36-1.61v-3.859h2.874v-.375H.922v4.61h.562c1.375 0 2.313-.063 3.47-.266l-.048-.375c-1.125.219-2.078.266-3.422.266zm4.437-4.937v7.11h.422v-7.11zm0 0"/></symbol><symbol overflow="visible" id="O"><path d="M5.625-4.172H1.719v-1.703h3.906zm.422-2.047h-4.75v2.39h4.75zM1.703-1.562h-.437V.39h4.921V.03H1.704zM.453-2.891v.36H2.72v1.578h.422v-1.578h1.593v1.578h.422v-1.578h1.719v-.36zm0 0"/></symbol></defs><g fill="#898989"><use xlink:href="#a" x="28.336" y="819.502"/><use xlink:href="#b" x="32.618" y="819.502"/></g><g fill="#898989"><use xlink:href="#c" x="36.937" y="819.502"/><use xlink:href="#c" x="39.029" y="819.502"/></g><g fill="#595757"><use xlink:href="#d" x="513.752" y="819.327"/><use xlink:href="#e" x="516.931" y="819.327"/><use xlink:href="#f" x="518.317" y="819.327"/><use xlink:href="#g" x="519.876" y="819.327"/><use xlink:href="#h" x="525.274" y="819.327"/><use xlink:href="#i" x="530.672" y="819.327"/><use xlink:href="#f" x="536.07" y="819.327"/><use xlink:href="#j" x="537.629" y="819.327"/><use xlink:href="#k" x="543.507" y="819.327"/><use xlink:href="#l" x="549.385" y="819.327"/><use xlink:href="#f" x="555.263" y="819.327"/></g><use xlink:href="#m" x="28.336" y="61.924"/><use xlink:href="#m" x="32.454" y="61.924"/><use xlink:href="#n" x="36.573" y="61.924"/><use xlink:href="#o" x="38.42" y="61.924"/><use xlink:href="#p" x="42.538" y="61.924"/><use xlink:href="#n" x="46.657" y="61.924"/><use xlink:href="#q" x="48.504" y="61.924"/><use xlink:href="#r" x="52.623" y="61.924"/><use xlink:href="#s" x="56.741" y="61.924"/><use xlink:href="#t" x="58.82" y="61.924"/><use xlink:href="#s" x="60.692" y="61.924"/><use xlink:href="#u" x="62.771" y="61.924"/><use xlink:href="#v" x="69.968" y="61.924"/><use xlink:href="#w" x="77.165" y="61.924"/><use xlink:href="#x" x="84.363" y="61.924"/><use xlink:href="#y" x="91.56" y="61.924"/><use xlink:href="#z" x="98.757" y="61.924"/><use xlink:href="#A" x="105.954" y="61.924"/><use xlink:href="#B" x="113.152" y="61.924"/><use xlink:href="#C" x="120.349" y="61.924"/><use xlink:href="#A" x="122.86" y="61.924"/><use xlink:href="#D" x="130.057" y="61.924"/><use xlink:href="#w" x="137.255" y="61.924"/><use xlink:href="#E" x="144.452" y="61.924"/><use xlink:href="#F" x="151.649" y="61.924"/><use xlink:href="#G" x="158.846" y="61.924"/><use xlink:href="#A" x="166.044" y="61.924"/><use xlink:href="#B" x="173.241" y="61.924"/><use xlink:href="#s" x="180.438" y="61.924"/><use xlink:href="#H" x="182.518" y="61.924"/><use xlink:href="#I" x="188.651" y="61.924"/><use xlink:href="#J" x="194.297" y="61.924"/><use xlink:href="#s" x="199.775" y="61.924"/><use xlink:href="#K" x="201.854" y="61.924"/><use xlink:href="#L" x="209.051" y="61.924"/><use xlink:href="#s" x="216.249" y="61.924"/><g><use xlink:href="#m" x="28.336" y="450.593"/><use xlink:href="#m" x="32.454" y="450.593"/><use xlink:href="#n" x="36.573" y="450.593"/><use xlink:href="#o" x="38.42" y="450.593"/><use xlink:href="#p" x="42.538" y="450.593"/><use xlink:href="#n" x="46.657" y="450.593"/><use xlink:href="#q" x="48.504" y="450.593"/><use xlink:href="#r" x="52.623" y="450.593"/><use xlink:href="#s" x="56.741" y="450.593"/><use xlink:href="#t" x="58.82" y="450.593"/><use xlink:href="#s" x="60.692" y="450.593"/><use xlink:href="#u" x="62.771" y="450.593"/><use xlink:href="#v" x="69.968" y="450.593"/><use xlink:href="#w" x="77.165" y="450.593"/><use xlink:href="#x" x="84.363" y="450.593"/><use xlink:href="#y" x="91.56" y="450.593"/><use xlink:href="#z" x="98.757" y="450.593"/><use xlink:href="#A" x="105.954" y="450.593"/><use xlink:href="#B" x="113.152" y="450.593"/><use xlink:href="#C" x="120.349" y="450.593"/><use xlink:href="#M" x="122.86" y="450.593"/><use xlink:href="#N" x="130.057" y="450.593"/><use xlink:href="#O" x="137.255" y="450.593"/><use xlink:href="#s" x="144.452" y="450.593"/><use xlink:href="#H" x="146.531" y="450.593"/><use xlink:href="#I" x="152.665" y="450.593"/><use xlink:href="#J" x="158.311" y="450.593"/><use xlink:href="#s" x="163.789" y="450.593"/><use xlink:href="#K" x="165.868" y="450.593"/><use xlink:href="#L" x="173.065" y="450.593"/></g></svg>