<svg xmlns="http://www.w3.org/2000/svg" xmlns:xlink="http://www.w3.org/1999/xlink" width="793.033" height="1122.52" viewBox="0 0 594.7751 841.89" version="1.2"><defs><symbol overflow="visible" id="a"><path d="M1.813-2.453v-.672c.332 0 .554-.04.671-.125.207-.121.313-.332.313-.625a.775.775 0 0 0-.219-.563A.834.834 0 0 0 2-4.64c-.219 0-.395.055-.516.157-.117.105-.199.289-.25.546H.438c.082-.488.25-.847.5-1.078.257-.238.617-.359 1.078-.359.457 0 .832.145 1.125.422.289.273.437.621.437 1.047 0 .48-.195.855-.578 1.125.434.261.656.68.656 1.25 0 .48-.164.87-.484 1.172-.313.293-.723.437-1.219.437C1.316.078.848-.148.547-.609.41-.805.324-1.08.297-1.422h.766c.039.25.14.445.296.578.164.137.375.203.625.203a.868.868 0 0 0 .641-.25.946.946 0 0 0 .25-.671c0-.352-.129-.61-.375-.766-.148-.082-.379-.125-.688-.125zm0 0"/></symbol><symbol overflow="visible" id="b"><path d="M2.969-4.531H.359v-.75h3.938L.969.187l-.64-.406zm0 0"/></symbol><symbol overflow="visible" id="c"><path d="M1.797-4h1.14v-.188H.422V-4h1.187v.688c0 1.124-.53 2-1.265 2.374l.14.157c.594-.328 1.047-.953 1.22-1.813.187.75.624 1.328 1.171 1.64l.14-.155c-.703-.36-1.218-1.204-1.218-2.204zm2.797-.89v2.234h-.969V-4.75h-.203V.11h.203v-2.563h.969v2.86h.203v-5.298zm0 0"/></symbol><symbol overflow="visible" id="d"><path d="M3.484-2.438c-.78.157-1.437.188-2.453.188H.844v-1.969h2.11v-.187H.64v2.343h.39c1.032 0 1.688-.046 2.5-.203zM1.422-1.421h-.203V.266h3.468V.078H1.422zm2.984-1.766v-1.718h-.203v3.843h.203v-1.953h.875v-.171zm0 0"/></symbol><symbol overflow="visible" id="e"><path d="M4.422.14h-2.86v-.859h2.86zm0-1.046h-2.86v-.813h-.187V.313h3.25V-1.72h-.203zM2.734-2.437H.86v-1.047h1.875zm1.704-2.454V-3.5H2.921v-1.11h-.188v.954H.86v-.953H.656v2.359h2.266v-1.063h1.515v1.297h.188V-4.89zm0 0"/></symbol><symbol overflow="visible" id="f"><path d="M4.625-4.89h-.188v3.937h.188zM.703-3.235c0-.594.485-1.079 1.14-1.079.641 0 1.126.485 1.126 1.079 0 .609-.485 1.093-1.125 1.093-.657 0-1.14-.484-1.14-1.093zm2.453 0c0-.735-.547-1.266-1.312-1.266-.782 0-1.328.531-1.328 1.266 0 .75.546 1.265 1.328 1.265.765 0 1.312-.515 1.312-1.265zM1.546.078v-1.453H1.36v1.64h3.47V.079zm0 0"/></symbol><symbol overflow="visible" id="h"><path d="M.703-4.328V-1h2.313v-3.328zm2.125.172v2.984H.891v-2.984zm1.594-.735V.406h.203V-4.89zm0 0"/></symbol><symbol overflow="visible" id="i"><path d="M.75-1.14v-1.454H2.5v-1.672H.547v.188h1.765v1.297H.563V-.97h.329c.671 0 1.28-.031 2.078-.172l-.016-.171c-.781.14-1.406.171-2.062.171zm3.844-3.75v2.171H3.578V-4.75h-.203V.11h.203v-2.641h1.016V.406h.203V-4.89zm0 0"/></symbol><symbol overflow="visible" id="j"><path d="M2.094-4.469c-.828 0-1.39.469-1.39 1.188 0 .703.562 1.187 1.39 1.187.812 0 1.375-.484 1.375-1.187 0-.719-.563-1.188-1.375-1.188zm0 .172c.687 0 1.172.438 1.172 1.016 0 .562-.485 1-1.172 1-.703 0-1.188-.438-1.188-1 0-.578.485-1.016 1.188-1.016zm2.265-.594V.406h.204V-4.89zM.438-.844c.968 0 2.312 0 3.546-.234l-.03-.156c-1.188.203-2.563.203-3.563.203zm0 0"/></symbol><symbol overflow="visible" id="k"><path d="M3.516-4.234h-1.47v-.688H1.86v.688H.391v.171h3.125zm-2.61 1.5c0-.454.406-.766 1.047-.766.625 0 1.047.313 1.047.766 0 .437-.422.75-1.047.75-.64 0-1.047-.313-1.047-.75zm2.281 0c0-.579-.5-.938-1.234-.938-.75 0-1.234.36-1.234.938 0 .562.484.921 1.234.921.734 0 1.234-.359 1.234-.921zM1.063-1.063h3.14v1.47h.203v-1.641H1.063zm4.203-2.28h-.86v-1.548h-.203v3.297h.203v-1.562h.86zm0 0"/></symbol><symbol overflow="visible" id="l"><path d="M.64-3.25c0-.61.485-1.094 1.141-1.094.657 0 1.14.485 1.14 1.094 0 .61-.483 1.11-1.14 1.11-.656 0-1.14-.5-1.14-1.11zm3.797-.547v1.078H3a1.2 1.2 0 0 0 .11-.531A1.55 1.55 0 0 0 3-3.797zm0 1.25v1.61h.188v-3.954h-.188v.922H2.891c-.22-.344-.625-.562-1.11-.562-.765 0-1.328.515-1.328 1.281 0 .766.563 1.281 1.328 1.281.5 0 .907-.218 1.125-.578zM1.563.078v-1.437h-.187V.266h3.438V.078zm0 0"/></symbol><symbol overflow="visible" id="m"><path d="M5.14-2.219h-.874c.171-.781.171-1.344.171-1.844v-.453H1.017v.188h3.218v.266c0 .5 0 1.062-.171 1.843H.358v.172h2.297V.406h.188v-2.453H5.14zm0 0"/></symbol><symbol overflow="visible" id="o"><path d="M.719-1.953c.625-.219 1.187-.688 1.406-1.313.234.594.781 1.032 1.422 1.25l.14-.25c-.75-.234-1.406-.843-1.406-1.609v-.031H3.61v-.266H2.281v-.703H1.97v.703H.672v.266h1.297v.031c0 .797-.657 1.422-1.407 1.672zm1.562-.188H1.97v1.094C1.39-1.03.844-1.03.375-1.03l.047.281c.969 0 2.297 0 3.515-.219l-.015-.25c-.531.078-1.094.125-1.64.157zm2.016-2.765V.422h.312v-5.328zm0 0"/></symbol><symbol overflow="visible" id="p"><path d="M4.672-4.906h-.313v3.922h.313zM3.516-2.141c-.75-.296-1.391-1.046-1.391-1.921v-.547h-.313v.546c0 .907-.625 1.704-1.375 2.016l.188.266c.61-.282 1.14-.86 1.344-1.578a2.462 2.462 0 0 0 1.375 1.468zM1.64.016v-1.36h-.313V.281H4.86V.016zm0 0"/></symbol><symbol overflow="visible" id="q"><path d="M2.75.156c-.906 0-1.5-.265-1.5-.703 0-.422.594-.687 1.5-.687s1.484.265 1.484.687c0 .438-.578.703-1.484.703zm0-1.64c-1.125 0-1.813.343-1.813.937 0 .625.688.953 1.813.953S4.563.078 4.563-.547c0-.594-.688-.937-1.813-.937zm.14-.735v-.703h1.688v-.281H1.266v-1.188h3.28v-.265H.954v1.734h1.64v.703H.344v.281h4.813v-.28zm0 0"/></symbol><symbol overflow="visible" id="r"><path d="M3.516-4.25H2.094v-.719H1.78v.719H.36v.266h3.157zM.984-2.734c0-.391.391-.672.954-.672.578 0 .953.281.953.672 0 .406-.375.687-.954.687-.562 0-.953-.281-.953-.687zm2.204 0c0-.579-.5-.922-1.25-.922-.766 0-1.266.344-1.266.922 0 .578.5.937 1.265.937.75 0 1.25-.36 1.25-.937zM2.796.14c-.844 0-1.39-.235-1.39-.641s.546-.64 1.39-.64c.844 0 1.39.234 1.39.64s-.546.64-1.39.64zm0-1.547c-1.063 0-1.703.328-1.703.906 0 .578.64.906 1.703.906C3.859.406 4.5.078 4.5-.5c0-.578-.64-.906-1.703-.906zM5.28-3.625v-.266h-.828v-1.015h-.328v3.453h.328V-2.5h.828v-.266h-.828v-.859zm0 0"/></symbol><symbol overflow="visible" id="s"><path d="M1.266-3.203H4.25v1.11H1.266zm1.64 2.64v-1.25h1.656v-2.703H4.25v1.032H1.266v-1.032H.937v2.704h1.657v1.25H.344v.265h4.828v-.266zm0 0"/></symbol><symbol overflow="visible" id="t"><path d="M4.188-3.781c0 .64 0 1.36-.188 2.36l.328.046c.188-1.047.188-1.766.188-2.406v-.531H.859v.25h3.329zM2.625-.671V-2.61h-.313v1.937H.345v.281h4.812v-.28zm0 0"/></symbol><symbol overflow="visible" id="u"><path d="M2.125-4.422h-.328v1.063c0 .984-.719 1.984-1.422 2.375l.203.25c.578-.344 1.156-1.079 1.39-1.907.22.797.813 1.485 1.407 1.813l.188-.266c-.704-.36-1.438-1.312-1.438-2.265zm2.234-.484v1.89H2.984v.266H4.36V.422h.329v-5.328zm0 0"/></symbol><symbol overflow="visible" id="v"><path d="M1.453 0h.406l1.422-4.375h-.375l-.781 2.516c-.156.53-.281.937-.453 1.468H1.64c-.172-.53-.282-.937-.454-1.468l-.78-2.516H.03zm0 0"/></symbol><symbol overflow="visible" id="w"><path d="M1.781.078c.782 0 1.453-.61 1.453-1.672 0-1.062-.671-1.687-1.453-1.687-.765 0-1.437.625-1.437 1.687C.344-.53 1.016.078 1.78.078zm0-.297C1.156-.219.703-.78.703-1.594c0-.812.453-1.375 1.078-1.375s1.094.563 1.094 1.375c0 .813-.469 1.375-1.094 1.375zm0 0"/></symbol><symbol overflow="visible" id="x"><path d="M1.031.078c.11 0 .172-.015.235-.031l-.063-.281c-.062.015-.094.015-.11.015-.077 0-.14-.062-.14-.218v-4.329h-.36v4.297c0 .36.141.547.438.547zm0 0"/></symbol><symbol overflow="visible" id="y"><path d="M.75-.156c.156 0 .313-.11.313-.313A.317.317 0 0 0 .75-.797a.317.317 0 0 0-.313.328c0 .203.157.313.313.313zm0 0"/></symbol><symbol overflow="visible" id="z"><path d="M.547 0h2.265v-.313h-.921v-4.062h-.282c-.203.125-.468.219-.828.281v.235h.766v3.546h-1zm0 0"/></symbol><symbol overflow="visible" id="A"><path d="M.266 0h2.64v-.313h-1.36c-.234 0-.484.016-.718.032 1.156-1.078 1.86-2 1.86-2.922 0-.75-.438-1.25-1.204-1.25-.53 0-.906.266-1.234.625l.219.219c.25-.313.594-.547.984-.547.61 0 .89.422.89.968 0 .797-.593 1.688-2.077 2.97zm0 0"/></symbol><symbol overflow="visible" id="B"><path d="M.36 0h3.515v-.422H2.062c-.312 0-.64.031-.968.047 1.547-1.438 2.5-2.672 2.5-3.89 0-1-.61-1.673-1.625-1.673-.703 0-1.188.36-1.625.844l.281.282c.344-.422.797-.735 1.297-.735.828 0 1.203.578 1.203 1.297 0 1.063-.781 2.266-2.766 3.969zm0 0"/></symbol><symbol overflow="visible" id="C"><path d="M1.016-.203c.187 0 .39-.156.39-.422 0-.281-.203-.453-.39-.453-.235 0-.422.172-.422.453 0 .266.187.422.422.422zm0 0"/></symbol><symbol overflow="visible" id="D"><path d="M2.14.11c1.063 0 1.72-1 1.72-3.047 0-2.016-.657-3-1.72-3-1.062 0-1.718.984-1.718 3C.422-.892 1.078.108 2.14.108zm0-.391c-.75 0-1.25-.89-1.25-2.656 0-1.735.5-2.61 1.25-2.61s1.25.875 1.25 2.61c0 1.765-.5 2.656-1.25 2.656zm0 0"/></symbol><symbol overflow="visible" id="E"><path d="M2.031.11c.922 0 1.813-.72 1.813-1.985 0-1.297-.766-1.875-1.719-1.875-.406 0-.703.125-.984.281l.171-1.953h2.25v-.406H.892L.703-3.172 1-2.984c.328-.22.61-.375 1.031-.375.813 0 1.344.578 1.344 1.5 0 .953-.625 1.562-1.36 1.562-.765 0-1.203-.328-1.53-.687l-.266.328c.375.375.906.765 1.812.765zm0 0"/></symbol><symbol overflow="visible" id="F"><path d="M2.266-3.219c.843 0 1.203.61 1.203 1.453 0 .86-.485 1.485-1.11 1.485-.89 0-1.343-.828-1.421-2.11.453-.593.953-.828 1.328-.828zM2.344.11c.844 0 1.578-.78 1.578-1.875 0-1.187-.594-1.828-1.578-1.828-.516 0-1.031.297-1.422.766.031-2.016.781-2.703 1.656-2.703.36 0 .703.156.953.453l.281-.297c-.312-.344-.703-.563-1.25-.563C1.47-5.938.47-5.109.47-2.75c0 1.86.75 2.86 1.875 2.86zm0 0"/></symbol><symbol overflow="visible" id="H"><path d="M.844 2.219h.344v-8.86H.844zm0 0"/></symbol><symbol overflow="visible" id="I"><path d="M2.453-5.281h1.438v-.36H.547v.36h1.5v.765c0 1.485-.64 2.672-1.64 3.22l.28.327c.782-.453 1.344-1.265 1.579-2.344.25.954.78 1.688 1.515 2.094l.266-.328c-.969-.5-1.594-1.64-1.594-2.969zm3.594-1.266v2.953H4.89v-2.781h-.407V.172h.407v-3.39h1.156v3.78h.406v-7.109zm0 0"/></symbol><symbol overflow="visible" id="J"><path d="M4.625-3.328c-1.016.203-1.86.25-3.281.25h-.11v-2.469h2.704v-.36H.812v3.188h.532c1.437 0 2.297-.047 3.343-.25zm-2.61 1.437h-.421V.391H6.28V.03H2.016zm3.907-2.453v-2.218H5.5v5.156h.422V-3.97h1.125v-.375zm0 0"/></symbol><symbol overflow="visible" id="K"><path d="M5.813.094H2.219V-.953h3.594zm0-1.39H2.219v-1h-.422v2.75h4.437v-2.75h-.421zM3.53-3.329H1.266v-1.297H3.53zm2.281-3.219v1.813H3.954v-1.454h-.422v1.22H1.266v-1.22H.844v3.22h3.11v-1.407h1.858v1.719h.422v-3.89zm0 0"/></symbol><symbol overflow="visible" id="L"><path d="M6.234-6.531h-.421v5.234h.421zM1.063-4.313c0-.765.593-1.328 1.39-1.328.797 0 1.39.563 1.39 1.329 0 .765-.593 1.359-1.39 1.359-.797 0-1.39-.594-1.39-1.36zm3.187 0c0-1-.75-1.718-1.797-1.718-1.031 0-1.797.718-1.797 1.718 0 1.016.766 1.735 1.797 1.735 1.047 0 1.797-.719 1.797-1.735zM2.187.032v-1.875h-.421V.391h4.703V.03zm0 0"/></symbol><symbol overflow="visible" id="M"><path d="M.89-5.813v4.532h3.188v-4.532zm2.766.344v3.828h-2.36v-3.828zm2.14-1.078v7.11h.423v-7.11zm0 0"/></symbol><symbol overflow="visible" id="N"><path d="M1.125-1.578v-1.813h2.219v-2.343H.704v.359h2.218v1.625H.719v2.531h.437c.907 0 1.719-.031 2.75-.218l-.047-.36c-1 .188-1.812.219-2.703.219zm4.906-4.969v2.89H4.813v-2.718h-.407V.172h.407v-3.469H6.03v3.86h.422v-7.11zm0 0"/></symbol><symbol overflow="visible" id="O"><path d="M2.766-6C1.656-6 .89-5.344.89-4.375S1.656-2.75 2.766-2.75c1.109 0 1.875-.656 1.875-1.625S3.875-6 2.766-6zm0 .375c.843 0 1.468.516 1.468 1.25s-.625 1.25-1.468 1.25c-.844 0-1.47-.516-1.47-1.25s.626-1.25 1.47-1.25zm2.968-.922v7.11h.422v-7.11zM.563-1.078c1.296 0 3.062 0 4.703-.297l-.047-.328c-1.578.25-3.39.266-4.719.266zm0 0"/></symbol><symbol overflow="visible" id="P"><path d="M4.688-5.719H2.796v-.875h-.422v.875H.485v.344h4.202zM1.296-3.64c0-.546.531-.921 1.281-.921.766 0 1.281.375 1.281.921 0 .547-.515.922-1.28.922-.75 0-1.282-.375-1.282-.922zm2.953 0c0-.78-.656-1.265-1.672-1.265-1 0-1.672.484-1.672 1.265 0 .782.672 1.266 1.672 1.266 1.016 0 1.672-.484 1.672-1.266zM1.39-1.312H5.5V.546h.422v-2.219H1.39zm5.657-3.204H5.922v-2.03H5.5v4.437h.422v-2.032h1.125zm0 0"/></symbol><symbol overflow="visible" id="Q"><path d="M.984-4.344c0-.765.594-1.36 1.391-1.36s1.39.595 1.39 1.36c0 .797-.593 1.39-1.39 1.39-.797 0-1.39-.593-1.39-1.39zm4.829-.672v1.344h-1.75c.078-.203.109-.422.109-.672 0-.234-.047-.468-.11-.672zm0 1.704v2.046h.421v-5.28h-.421v1.171H3.859c-.328-.422-.843-.703-1.484-.703-1.031 0-1.797.719-1.797 1.734 0 1.047.766 1.75 1.797 1.75.64 0 1.172-.265 1.5-.719zM2.219.03v-1.843h-.422V.39h4.656V.03zm0 0"/></symbol><symbol overflow="visible" id="R"><path d="M6.875-2.984h-1.11c.204-1.047.204-1.797.204-2.47v-.609H1.297v.36h4.25v.25c0 .672 0 1.422-.234 2.469H.452v.359h3V.563h.422v-3.188h3zm0 0"/></symbol><symbol overflow="visible" id="S"><path d="M2.438-5.281h1.406v-.36H.547v.36H2.03v.812c0 1.36-.687 2.657-1.64 3.235l.28.312c.735-.453 1.313-1.36 1.563-2.422.25.985.797 1.813 1.516 2.25l.281-.312c-.937-.532-1.593-1.797-1.593-3.063zm2.171 1.36H3.281v.358H4.61V.172h.407V-6.36h-.407zm1.422-2.626v7.11h.422v-7.11zm0 0"/></symbol><symbol overflow="visible" id="T"><path d="M4.984-5.625H3.047v-.938h-.438v.938H.656v.36h4.328zm-3.421 2.14c0-.562.515-.953 1.265-.953.75 0 1.266.391 1.266.954 0 .562-.516.968-1.266.968s-1.265-.406-1.265-.968zm1.484 1.297C3.922-2.265 4.5-2.75 4.5-3.484c0-.797-.672-1.297-1.672-1.297-1 0-1.672.5-1.672 1.297 0 .75.578 1.234 1.453 1.296v.876c-.75.03-1.468.046-2.109.046l.063.36c1.343 0 3.093-.016 4.703-.281L5.234-1.5a32.64 32.64 0 0 1-2.187.172zm2.687-4.359V.547h.422v-7.094zm0 0"/></symbol><symbol overflow="visible" id="U"><path d="M1.063-3.266c1.046-.156 2.203-.625 2.593-1.468.406.843 1.563 1.312 2.61 1.468l.156-.328C5.25-3.75 3.89-4.375 3.89-5.39h2.312v-.359H3.875v-.828h-.422v.828H1.141v.36h2.296c0 1.015-1.359 1.64-2.53 1.796zm.671 1.72h-.437V.39h4.875V.03H1.734zM.438-2.75v.36h3.046v1.562h.422v-1.563h2.985v-.359zm0 0"/></symbol><symbol overflow="visible" id="V"><path d="M4.625-4.516h-1.25c.063-.359.094-.718.094-1.093H.766v.359h2.296C2.954-3.719 2.095-2.266.5-1.312l.266.296c1.343-.812 2.156-1.921 2.5-3.14h1.359v1.422H3.156v.359h1.469V.172h.422v-6.516h-.422zm1.422-2.03V.562h.406v-7.11zm0 0"/></symbol><symbol overflow="visible" id="W"><path d="M2.656-5.453h1.985v2.516H2.656zM3.86-.734v-1.844H6.25v-.36H5.062v-2.515H6.25v-.36H1.062v.36H2.25v2.516H1.062v.359h2.375v1.844H.454v.359h6.453v-.36zm0 0"/></symbol><symbol overflow="visible" id="X"><path d="M4.5-3.297c-1.14.188-2.063.219-3.219.219h-.093v-1.235h2.671v-1.859H.75v.36h2.703v1.156H.766v1.937h.515c1.172 0 2.078-.031 3.25-.219zM2.094-1.578h3.734V.094H2.094zM1.672.453h4.562v-2.39H1.672zm4.14-6.984v1.656H4.36v.36h1.454v2.14h.421v-4.156zm0 0"/></symbol></defs><g fill="#898989"><use xlink:href="#a" x="557.919" y="819.502"/><use xlink:href="#b" x="561.893" y="819.502"/></g><g fill="#595757"><use xlink:href="#c" x="39.171" y="819.327"/><use xlink:href="#d" x="44.569" y="819.327"/><use xlink:href="#e" x="49.967" y="819.327"/><use xlink:href="#f" x="55.365" y="819.327"/><use xlink:href="#g" x="60.763" y="819.327"/><use xlink:href="#h" x="62.322" y="819.327"/><use xlink:href="#i" x="67.72" y="819.327"/><use xlink:href="#j" x="73.118" y="819.327"/><use xlink:href="#k" x="78.516" y="819.327"/><use xlink:href="#l" x="83.914" y="819.327"/><use xlink:href="#m" x="89.312" y="819.327"/><use xlink:href="#c" x="94.71" y="819.327"/><use xlink:href="#d" x="100.108" y="819.327"/></g><g fill="#595757"><use xlink:href="#n" x="105.506" y="819.327"/><use xlink:href="#o" x="107.065" y="819.327"/><use xlink:href="#p" x="112.463" y="819.327"/><use xlink:href="#q" x="117.861" y="819.327"/><use xlink:href="#r" x="123.259" y="819.327"/><use xlink:href="#n" x="128.657" y="819.327"/><use xlink:href="#s" x="130.217" y="819.327"/><use xlink:href="#t" x="135.615" y="819.327"/><use xlink:href="#u" x="141.012" y="819.327"/><use xlink:href="#n" x="146.41" y="819.327"/><use xlink:href="#v" x="147.97" y="819.327"/></g><g fill="#595757"><use xlink:href="#w" x="151.058" y="819.327"/><use xlink:href="#x" x="154.501" y="819.327"/><use xlink:href="#y" x="155.982" y="819.327"/><use xlink:href="#n" x="157.368" y="819.327"/><use xlink:href="#z" x="158.927" y="819.327"/><use xlink:href="#A" x="162.016" y="819.327"/></g><use xlink:href="#B" x="39.173" y="46.812"/><use xlink:href="#B" x="43.291" y="46.812"/><use xlink:href="#C" x="47.41" y="46.812"/><use xlink:href="#D" x="49.257" y="46.812"/><use xlink:href="#E" x="53.376" y="46.812"/><use xlink:href="#C" x="57.494" y="46.812"/><use xlink:href="#D" x="59.341" y="46.812"/><use xlink:href="#F" x="63.46" y="46.812"/><use xlink:href="#G" x="67.578" y="46.812"/><use xlink:href="#H" x="69.657" y="46.812"/><use xlink:href="#G" x="71.529" y="46.812"/><use xlink:href="#I" x="73.608" y="46.812"/><use xlink:href="#J" x="80.805" y="46.812"/><use xlink:href="#K" x="88.002" y="46.812"/><use xlink:href="#L" x="95.2" y="46.812"/><use xlink:href="#G" x="102.397" y="46.812"/><use xlink:href="#M" x="104.476" y="46.812"/><use xlink:href="#N" x="111.673" y="46.812"/><use xlink:href="#O" x="118.871" y="46.812"/><use xlink:href="#P" x="126.068" y="46.812"/><use xlink:href="#Q" x="133.265" y="46.812"/><use xlink:href="#R" x="140.463" y="46.812"/><use xlink:href="#I" x="147.66" y="46.812"/><use xlink:href="#J" x="154.857" y="46.812"/><use xlink:href="#G" x="162.054" y="46.812"/><use xlink:href="#S" x="164.134" y="46.812"/><use xlink:href="#F" x="171.331" y="46.812"/><use xlink:href="#T" x="175.449" y="46.812"/><use xlink:href="#G" x="182.647" y="46.812"/><use xlink:href="#U" x="184.726" y="46.812"/><use xlink:href="#V" x="191.923" y="46.812"/><use xlink:href="#W" x="199.12" y="46.812"/><use xlink:href="#X" x="206.318" y="46.812"/></svg>