<svg xmlns="http://www.w3.org/2000/svg" xmlns:xlink="http://www.w3.org/1999/xlink" width="793.033" height="1122.52" viewBox="0 0 594.7751 841.89" version="1.2"><defs><symbol overflow="visible" id="a"><path d="M.297-2.672c0-.84.195-1.515.594-2.015.34-.446.765-.672 1.265-.672.496 0 .926.226 1.281.671.383.5.579 1.184.579 2.047 0 .868-.196 1.551-.579 2.047-.355.45-.785.672-1.28.672-.493 0-.915-.223-1.266-.672C.492-1.09.297-1.785.297-2.672zm.781 0c0 .586.102 1.074.313 1.469.195.375.453.562.765.562.309 0 .57-.187.781-.562.208-.383.313-.863.313-1.438 0-.57-.105-1.05-.313-1.437-.21-.371-.472-.563-.78-.563-.305 0-.56.192-.766.563-.211.375-.313.848-.313 1.406zm0 0"/></symbol><symbol overflow="visible" id="b"><path d="M3.688-4.531H2.046l-.25.875a.613.613 0 0 1 .11-.016H2c.508 0 .93.176 1.266.516.332.344.5.789.5 1.328 0 .555-.192 1.012-.563 1.375-.375.355-.851.531-1.422.531C1.082.078.535-.25.141-.906l.593-.5c.164.281.332.48.5.593.164.118.375.172.625.172.309 0 .579-.109.797-.328.215-.226.328-.508.328-.844 0-.332-.113-.609-.328-.828a1.075 1.075 0 0 0-.797-.328c-.355 0-.664.16-.921.469H.671L1.5-5.281h2.188zm0 0"/></symbol><symbol overflow="visible" id="c"><path d="M1.797-4h1.14v-.188H.422V-4h1.187v.688c0 1.124-.53 2-1.265 2.374l.14.157c.594-.328 1.047-.953 1.22-1.813.187.75.624 1.328 1.171 1.64l.14-.155c-.703-.36-1.218-1.204-1.218-2.204zm2.797-.89v2.234h-.969V-4.75h-.203V.11h.203v-2.563h.969v2.86h.203v-5.298zm0 0"/></symbol><symbol overflow="visible" id="d"><path d="M3.484-2.438c-.78.157-1.437.188-2.453.188H.844v-1.969h2.11v-.187H.64v2.343h.39c1.032 0 1.688-.046 2.5-.203zM1.422-1.421h-.203V.266h3.468V.078H1.422zm2.984-1.766v-1.718h-.203v3.843h.203v-1.953h.875v-.171zm0 0"/></symbol><symbol overflow="visible" id="e"><path d="M4.422.14h-2.86v-.859h2.86zm0-1.046h-2.86v-.813h-.187V.313h3.25V-1.72h-.203zM2.734-2.437H.86v-1.047h1.875zm1.704-2.454V-3.5H2.921v-1.11h-.188v.954H.86v-.953H.656v2.359h2.266v-1.063h1.515v1.297h.188V-4.89zm0 0"/></symbol><symbol overflow="visible" id="f"><path d="M4.625-4.89h-.188v3.937h.188zM.703-3.235c0-.594.485-1.079 1.14-1.079.641 0 1.126.485 1.126 1.079 0 .609-.485 1.093-1.125 1.093-.657 0-1.14-.484-1.14-1.093zm2.453 0c0-.735-.547-1.266-1.312-1.266-.782 0-1.328.531-1.328 1.266 0 .75.546 1.265 1.328 1.265.765 0 1.312-.515 1.312-1.265zM1.546.078v-1.453H1.36v1.64h3.47V.079zm0 0"/></symbol><symbol overflow="visible" id="h"><path d="M.703-4.328V-1h2.313v-3.328zm2.125.172v2.984H.891v-2.984zm1.594-.735V.406h.203V-4.89zm0 0"/></symbol><symbol overflow="visible" id="i"><path d="M.75-1.14v-1.454H2.5v-1.672H.547v.188h1.765v1.297H.563V-.97h.329c.671 0 1.28-.031 2.078-.172l-.016-.171c-.781.14-1.406.171-2.062.171zm3.844-3.75v2.171H3.578V-4.75h-.203V.11h.203v-2.641h1.016V.406h.203V-4.89zm0 0"/></symbol><symbol overflow="visible" id="j"><path d="M2.094-4.469c-.828 0-1.39.469-1.39 1.188 0 .703.562 1.187 1.39 1.187.812 0 1.375-.484 1.375-1.187 0-.719-.563-1.188-1.375-1.188zm0 .172c.687 0 1.172.438 1.172 1.016 0 .562-.485 1-1.172 1-.703 0-1.188-.438-1.188-1 0-.578.485-1.016 1.188-1.016zm2.265-.594V.406h.204V-4.89zM.438-.844c.968 0 2.312 0 3.546-.234l-.03-.156c-1.188.203-2.563.203-3.563.203zm0 0"/></symbol><symbol overflow="visible" id="k"><path d="M3.516-4.234h-1.47v-.688H1.86v.688H.391v.171h3.125zm-2.61 1.5c0-.454.406-.766 1.047-.766.625 0 1.047.313 1.047.766 0 .437-.422.75-1.047.75-.64 0-1.047-.313-1.047-.75zm2.281 0c0-.579-.5-.938-1.234-.938-.75 0-1.234.36-1.234.938 0 .562.484.921 1.234.921.734 0 1.234-.359 1.234-.921zM1.063-1.063h3.14v1.47h.203v-1.641H1.063zm4.203-2.28h-.86v-1.548h-.203v3.297h.203v-1.562h.86zm0 0"/></symbol><symbol overflow="visible" id="l"><path d="M.64-3.25c0-.61.485-1.094 1.141-1.094.657 0 1.14.485 1.14 1.094 0 .61-.483 1.11-1.14 1.11-.656 0-1.14-.5-1.14-1.11zm3.797-.547v1.078H3a1.2 1.2 0 0 0 .11-.531A1.55 1.55 0 0 0 3-3.797zm0 1.25v1.61h.188v-3.954h-.188v.922H2.891c-.22-.344-.625-.562-1.11-.562-.765 0-1.328.515-1.328 1.281 0 .766.563 1.281 1.328 1.281.5 0 .907-.218 1.125-.578zM1.563.078v-1.437h-.187V.266h3.438V.078zm0 0"/></symbol><symbol overflow="visible" id="m"><path d="M5.14-2.219h-.874c.171-.781.171-1.344.171-1.844v-.453H1.017v.188h3.218v.266c0 .5 0 1.062-.171 1.843H.358v.172h2.297V.406h.188v-2.453H5.14zm0 0"/></symbol><symbol overflow="visible" id="o"><path d="M.719-1.953c.625-.219 1.187-.688 1.406-1.313.234.594.781 1.032 1.422 1.25l.14-.25c-.75-.234-1.406-.843-1.406-1.609v-.031H3.61v-.266H2.281v-.703H1.97v.703H.672v.266h1.297v.031c0 .797-.657 1.422-1.407 1.672zm1.562-.188H1.97v1.094C1.39-1.03.844-1.03.375-1.03l.047.281c.969 0 2.297 0 3.515-.219l-.015-.25c-.531.078-1.094.125-1.64.157zm2.016-2.765V.422h.312v-5.328zm0 0"/></symbol><symbol overflow="visible" id="p"><path d="M4.672-4.906h-.313v3.922h.313zM3.516-2.141c-.75-.296-1.391-1.046-1.391-1.921v-.547h-.313v.546c0 .907-.625 1.704-1.375 2.016l.188.266c.61-.282 1.14-.86 1.344-1.578a2.462 2.462 0 0 0 1.375 1.468zM1.64.016v-1.36h-.313V.281H4.86V.016zm0 0"/></symbol><symbol overflow="visible" id="q"><path d="M2.75.156c-.906 0-1.5-.265-1.5-.703 0-.422.594-.687 1.5-.687s1.484.265 1.484.687c0 .438-.578.703-1.484.703zm0-1.64c-1.125 0-1.813.343-1.813.937 0 .625.688.953 1.813.953S4.563.078 4.563-.547c0-.594-.688-.937-1.813-.937zm.14-.735v-.703h1.688v-.281H1.266v-1.188h3.28v-.265H.954v1.734h1.64v.703H.344v.281h4.813v-.28zm0 0"/></symbol><symbol overflow="visible" id="r"><path d="M3.516-4.25H2.094v-.719H1.78v.719H.36v.266h3.157zM.984-2.734c0-.391.391-.672.954-.672.578 0 .953.281.953.672 0 .406-.375.687-.954.687-.562 0-.953-.281-.953-.687zm2.204 0c0-.579-.5-.922-1.25-.922-.766 0-1.266.344-1.266.922 0 .578.5.937 1.265.937.75 0 1.25-.36 1.25-.937zM2.796.14c-.844 0-1.39-.235-1.39-.641s.546-.64 1.39-.64c.844 0 1.39.234 1.39.64s-.546.64-1.39.64zm0-1.547c-1.063 0-1.703.328-1.703.906 0 .578.64.906 1.703.906C3.859.406 4.5.078 4.5-.5c0-.578-.64-.906-1.703-.906zM5.28-3.625v-.266h-.828v-1.015h-.328v3.453h.328V-2.5h.828v-.266h-.828v-.859zm0 0"/></symbol><symbol overflow="visible" id="s"><path d="M1.266-3.203H4.25v1.11H1.266zm1.64 2.64v-1.25h1.656v-2.703H4.25v1.032H1.266v-1.032H.937v2.704h1.657v1.25H.344v.265h4.828v-.266zm0 0"/></symbol><symbol overflow="visible" id="t"><path d="M4.188-3.781c0 .64 0 1.36-.188 2.36l.328.046c.188-1.047.188-1.766.188-2.406v-.531H.859v.25h3.329zM2.625-.671V-2.61h-.313v1.937H.345v.281h4.812v-.28zm0 0"/></symbol><symbol overflow="visible" id="u"><path d="M2.125-4.422h-.328v1.063c0 .984-.719 1.984-1.422 2.375l.203.25c.578-.344 1.156-1.079 1.39-1.907.22.797.813 1.485 1.407 1.813l.188-.266c-.704-.36-1.438-1.312-1.438-2.265zm2.234-.484v1.89H2.984v.266H4.36V.422h.329v-5.328zm0 0"/></symbol><symbol overflow="visible" id="v"><path d="M1.453 0h.406l1.422-4.375h-.375l-.781 2.516c-.156.53-.281.937-.453 1.468H1.64c-.172-.53-.282-.937-.454-1.468l-.78-2.516H.03zm0 0"/></symbol><symbol overflow="visible" id="w"><path d="M1.781.078c.782 0 1.453-.61 1.453-1.672 0-1.062-.671-1.687-1.453-1.687-.765 0-1.437.625-1.437 1.687C.344-.53 1.016.078 1.78.078zm0-.297C1.156-.219.703-.78.703-1.594c0-.812.453-1.375 1.078-1.375s1.094.563 1.094 1.375c0 .813-.469 1.375-1.094 1.375zm0 0"/></symbol><symbol overflow="visible" id="x"><path d="M1.031.078c.11 0 .172-.015.235-.031l-.063-.281c-.062.015-.094.015-.11.015-.077 0-.14-.062-.14-.218v-4.329h-.36v4.297c0 .36.141.547.438.547zm0 0"/></symbol><symbol overflow="visible" id="y"><path d="M.75-.156c.156 0 .313-.11.313-.313A.317.317 0 0 0 .75-.797a.317.317 0 0 0-.313.328c0 .203.157.313.313.313zm0 0"/></symbol><symbol overflow="visible" id="z"><path d="M.547 0h2.265v-.313h-.921v-4.062h-.282c-.203.125-.468.219-.828.281v.235h.766v3.546h-1zm0 0"/></symbol><symbol overflow="visible" id="A"><path d="M.266 0h2.64v-.313h-1.36c-.234 0-.484.016-.718.032 1.156-1.078 1.86-2 1.86-2.922 0-.75-.438-1.25-1.204-1.25-.53 0-.906.266-1.234.625l.219.219c.25-.313.594-.547.984-.547.61 0 .89.422.89.968 0 .797-.593 1.688-2.077 2.97zm0 0"/></symbol><symbol overflow="visible" id="B"><path d="M1.094 0h1.781v-8.89H1.094zm0 0"/></symbol><symbol overflow="visible" id="C"><path d="M1.953.234c.625 0 1.11-.5 1.11-1.156 0-.656-.485-1.156-1.11-1.156-.625 0-1.094.5-1.094 1.156 0 .656.47 1.156 1.094 1.156zm0 0"/></symbol><symbol overflow="visible" id="E"><path d="M8.578-10.031v4.234h-.89v-4.062H6.202v7.156c-1.625-.844-2.187-2.688-2.187-4.61v-.312h1.656v-1.281h-5v1.281h1.812v.313c0 2.109-.53 4.078-2.171 5.03l.953 1.204c1.03-.625 1.671-1.656 2.03-2.938.392 1.11 1.032 2 2.017 2.532l.89-1.188V.531h1.484V-4.5h.891v5.516h1.5v-11.047zm0 0"/></symbol><symbol overflow="visible" id="F"><path d="M6.766-5.438c-1.204.25-2.297.329-4.25.344V-7.89h3.359v-1.25H.937v5.313h.922c2.454 0 3.704-.063 5.063-.36zM3.672-2.874H2.094V.844h7.515V-.422H3.672zm5.547-4.14v-3H7.625v7.984h1.594V-5.72h1.469v-1.297zm0 0"/></symbol><symbol overflow="visible" id="G"><path d="M8.188-.375H4v-.922h4.188zm0-2.14H4v-.97H2.437V.892H9.75v-4.375H8.187zM4.655-5.548H2.563v-1.312h2.093zm3.516-4.469V-7.5H6.203v-1.953H4.656v1.39H2.563v-1.39H.984v5.172h5.22v-1.953h1.968v2.28H9.75v-6.062zm0 0"/></symbol><symbol overflow="visible" id="H"><path d="M9.703-10.016h-1.61v7.938h1.61zM2.22-6.5c0-.922.656-1.438 1.469-1.438.828 0 1.453.516 1.453 1.438 0 .89-.625 1.422-1.454 1.422-.812 0-1.468-.531-1.468-1.422zm4.469 0c0-1.64-1.313-2.813-3-2.813C1.984-9.313.671-8.14.671-6.5c0 1.61 1.312 2.797 3.015 2.797 1.688 0 3-1.188 3-2.797zM3.921-.422v-2.437H2.344V.844h7.625V-.422zm0 0"/></symbol><symbol overflow="visible" id="I"><path d="M1.063-9.031v7.437h5.312V-9.03zm3.75 1.25v4.937H2.608V-7.78zm3.28-2.235V1.063h1.579v-11.079zm0 0"/></symbol><symbol overflow="visible" id="J"><path d="M2.36-4.672h2.624v-4.281H.797v1.265h2.656v1.766H.813v4.5h.78c1.329 0 2.532-.031 3.954-.266l-.125-1.28c-1.11.171-2.063.234-3.063.25zm6.14-5.36v4.173h-1v-3.97H6.031V.5H7.5v-5.078h1v5.594H10v-11.047zm0 0"/></symbol><symbol overflow="visible" id="K"><path d="M4.063-9.281c-1.72 0-3.032 1.14-3.032 2.719 0 1.593 1.313 2.718 3.032 2.718 1.734 0 3.046-1.125 3.046-2.719 0-1.578-1.312-2.718-3.046-2.718zm0 1.344c.859 0 1.5.515 1.5 1.375 0 .859-.641 1.359-1.5 1.359-.844 0-1.5-.5-1.5-1.36 0-.859.656-1.375 1.5-1.375zm4.078-2.094V1.063h1.593v-11.094zM.766-1.187c1.906 0 4.5-.032 6.875-.5l-.094-1.141c-2.328.344-5.031.36-6.984.36zm0 0"/></symbol><symbol overflow="visible" id="L"><path d="M7.016-9.047H4.562v-1.031H2.97v1.031H.516v1.25h6.5zM2.562-5.422c0-.547.485-.828 1.204-.828.703 0 1.203.281 1.203.828 0 .563-.5.844-1.203.844-.72 0-1.204-.281-1.204-.844zm3.922 0c0-1.203-1.125-2.031-2.718-2.031-1.579 0-2.704.828-2.704 2.031 0 1.203 1.125 2.031 2.704 2.031 1.593 0 2.718-.828 2.718-2.03zm-4.64 4.047h5.781v2.422h1.594v-3.688H1.844zm8.844-5.797h-1.47v-2.844H7.626v6.922h1.594v-2.781h1.469zm0 0"/></symbol><symbol overflow="visible" id="M"><path d="M2.156-6.5c0-.922.61-1.484 1.406-1.484.813 0 1.422.562 1.422 1.484 0 .922-.609 1.484-1.421 1.484-.797 0-1.407-.562-1.407-1.484zm6.016-.719v1.422H6.39c.062-.219.093-.469.093-.703 0-.25-.046-.5-.093-.719zm0 2.688v2.593H9.75v-8.078H8.172v1.532H5.719a3.007 3.007 0 0 0-2.157-.875C1.938-9.36.656-8.141.656-6.5c0 1.656 1.281 2.86 2.906 2.86.86 0 1.641-.329 2.172-.891zm-4.11 4.11V-2.72H2.47V.844h7.547V-.422zm0 0"/></symbol><symbol overflow="visible" id="N"><path d="M10.516-4.688H9.062c.282-1.546.282-2.671.282-3.703v-1H1.672v1.282h6.11c0 .953-.016 2.03-.298 3.421H.531v1.282h4.125V1.03h1.61v-4.437h4.25zm0 0"/></symbol><symbol overflow="visible" id="O"><path d="M10.188-4.984C7.671-5.391 6.312-7.047 6.312-8.61v-.797H4.625v.797c0 1.53-1.375 3.218-3.875 3.625l.656 1.312c1.938-.344 3.328-1.39 4.047-2.75.734 1.375 2.14 2.406 4.094 2.75zM6.265-1.547v-2.469H4.687v2.47H.516v1.265H10.53v-1.266zm0 0"/></symbol><symbol overflow="visible" id="P"><path d="M.938-8.656v1.265h2.796C3.531-5.219 2.594-3.625.375-2.328l.922 1.11c3.078-1.813 4-4.345 4-7.438zm7.53-1.36v4.157h-.984v-3.875H6.016V.562h1.468v-5.14h.985v5.61h1.515v-11.048zm0 0"/></symbol><symbol overflow="visible" id="Q"><path d="M6.61-9.078H4.452v-1.031H2.875v1.03H.547v1.235h6.062zM2.546-5.344c0-.578.469-.906 1.11-.906.64 0 1.124.328 1.124.906 0 .578-.484.922-1.125.922-.64 0-1.11-.344-1.11-.922zm3.687 0c0-1.218-1.093-2.11-2.578-2.11-1.469 0-2.594.891-2.594 2.11 0 1.235 1.125 2.11 2.594 2.11 1.485 0 2.578-.875 2.578-2.11zm-4 4.11h5.938v2.28H9.75V-2.5H2.234zm5.938-8.782v2.47H6.75v1.265h1.422v.86H6.719v1.265h1.453v1.172H9.75v-7.032zm0 0"/></symbol><symbol overflow="visible" id="R"><path d="M1.531-3.484c1.907-.36 3.313-1.313 3.985-2.641.703 1.297 2.109 2.219 4.046 2.578l.61-1.25C7.782-5.14 6.5-6.484 6.359-7.922h3.313v-1.266H1.344v1.266h3.312c-.14 1.438-1.422 2.828-3.75 3.188zm4.782 1.953V-3.97H4.734v2.438H.516V-.25H10.53v-1.281zm0 0"/></symbol><symbol overflow="visible" id="S"><path d="M7.406-4.938c-1.75-.578-2.562-1.875-2.593-3.171H7v-1.25H.984v1.25h2.22C3.186-6.75 2.358-5.344.561-4.766l.813 1.235c1.281-.422 2.172-1.281 2.656-2.36a4.194 4.194 0 0 0 2.563 2.157zM2.172-1.608h5.922v2.656h1.61v-3.922H2.171zm5.922-8.407v6.657h1.61v-6.657zm0 0"/></symbol><symbol overflow="visible" id="T"><path d="M2.64-6.438c2.25-.609 3.782-1.921 4.641-3.593.86 1.594 2.375 2.828 4.594 3.406l1.219-2.11c-2.828-.734-4.235-2.468-4.422-4.312h3.89v-2.203H8.642v-2.11H5.859v2.11H1.97v2.203h3.86C5.64-11.125 4.28-9.312 1.405-8.562zm6-.578H5.86v2.938c-1.766.062-3.454.062-4.876.062l.36 2.25c3.312-.015 7.875-.03 12.015-.875l-.156-2.015c-1.469.234-3 .36-4.562.453zm5.61-10.53v19.39h2.766v-19.39zm0 0"/></symbol><symbol overflow="visible" id="U"><path d="M16.953-17.5h-2.781v14.078h2.781zm-4.219 8.953c-3.14-1-4.484-3.484-4.484-6.031v-1.875H5.437v1.875c0 2.578-1.39 5.281-4.593 6.375L2.25-6C4.484-6.781 6-8.36 6.89-10.297 7.72-8.5 9.189-7.078 11.329-6.344zM6.86-.734v-4.032H4.094V1.47h13.343V-.734zm0 0"/></symbol><symbol overflow="visible" id="V"><path d="M9.594-.266c-2.578 0-3.906-.453-3.906-1.453 0-1.015 1.328-1.468 3.906-1.468 2.578 0 3.906.453 3.906 1.468 0 1-1.328 1.453-3.906 1.453zm0-5.015c-4.188 0-6.703 1.265-6.703 3.562 0 2.266 2.515 3.547 6.703 3.547 4.172 0 6.719-1.281 6.719-3.547 0-2.297-2.547-3.562-6.72-3.562zm1.437-3.157v-1.593h5.375v-2.203H5.796V-14.5h10.517v-2.203H3.046v6.672h5.219v1.594H.922v2.203h17.484v-2.204zm0 0"/></symbol><symbol overflow="visible" id="W"><path d="M12.281-15.672H7.97v-1.969H5.187v1.97H.907v2.155H12.28zm-7.797 6.25c0-.937.86-1.453 2.11-1.453 1.234 0 2.093.516 2.093 1.453 0 .938-.859 1.453-2.093 1.453-1.25 0-2.11-.515-2.11-1.453zm6.844 0c0-2.062-1.953-3.469-4.734-3.469-2.797 0-4.75 1.407-4.75 3.47 0 2.062 1.953 3.437 4.75 3.437 2.781 0 4.734-1.375 4.734-3.438zM9.828-.25c-2.437 0-3.75-.438-3.75-1.36 0-.952 1.313-1.374 3.75-1.374 2.422 0 3.735.421 3.735 1.375 0 .921-1.313 1.359-3.735 1.359zm0-4.813c-4 0-6.484 1.282-6.484 3.454 0 2.14 2.484 3.406 6.484 3.406 3.985 0 6.485-1.266 6.485-3.406 0-2.172-2.5-3.454-6.485-3.454zm8.766-7.421v-2.266h-2.485v-2.75h-2.765v12.234h2.765V-8.28h2.485v-2.25h-2.485v-1.953zm0 0"/></symbol><symbol overflow="visible" id="Y"><path d="M5.5-11.14h8.266v2.703H5.5zm5.516 8.453v-3.547H16.5v-10.094h-2.734v3H5.5v-3H2.75v10.094h5.5v3.546H.906v2.25h17.5v-2.25zm0 0"/></symbol><symbol overflow="visible" id="Z"><path d="M15.953-4.766c.766-4.109.766-6.843.766-9.25v-1.843H2.687v2.203h11.266c0 2.234-.047 4.922-.781 8.578zM9.86-2.75v-6.656H7.094v6.656H.922v2.219h17.484V-2.75zm0 0"/></symbol><symbol overflow="visible" id="aa"><path d="M8.156-16.031H5.375v2.797c0 3.671-1.469 7.421-4.75 8.937l1.719 2.219c2.172-1.094 3.61-3.11 4.453-5.578.797 2.328 2.203 4.218 4.328 5.25l1.64-2.203c-3.203-1.438-4.609-4.985-4.609-8.625zm6.203-1.516v6.063h-3.718v2.234h3.718V1.844h2.766v-19.39zm0 0"/></symbol><symbol overflow="visible" id="ab"><path d="M.906 0h10.406v-2.61H7.954c-.734 0-1.766.094-2.547.172 2.844-2.765 5.172-5.78 5.172-8.593 0-2.906-1.953-4.797-4.89-4.797-2.125 0-3.5.828-4.938 2.36l1.688 1.671c.796-.86 1.718-1.594 2.843-1.594 1.5 0 2.344.954 2.344 2.516 0 2.39-2.5 5.313-6.719 9.094zm0 0"/></symbol><symbol overflow="visible" id="ac"><path d="M6.188.297c3.171 0 5.25-2.766 5.25-8.125 0-5.344-2.079-8-5.25-8-3.172 0-5.266 2.625-5.266 8 0 5.36 2.094 8.125 5.266 8.125zm0-2.422c-1.344 0-2.344-1.344-2.344-5.703 0-4.344 1-5.61 2.344-5.61 1.343 0 2.328 1.266 2.328 5.61 0 4.36-.985 5.703-2.329 5.703zm0 0"/></symbol><symbol overflow="visible" id="ad"><path d="M5.11-3.14c.234-1.626.234-2.782.234-3.485v-.484H.906v.656h3.656c0 .719-.015 1.781-.265 3.234zM3.093-4.595h-.797v2.703c-.656.016-1.313.032-1.86.032l.079.671c1.562 0 3.625-.046 5.453-.343l-.047-.578c-.89.093-1.875.156-2.828.203zm5.562.203h-1.39v-3.671h-.813v8.78h.813v-4.437h1.39zm0 0"/></symbol><symbol overflow="visible" id="ae"><path d="M5.734-7.125H3.531v-.984h-.797v.984H.547v.64h5.187zM1.797-4.453c0-.578.531-.953 1.344-.953.796 0 1.343.375 1.343.953 0 .594-.546.969-1.343.969-.813 0-1.344-.375-1.344-.97zm3.437 0c0-.953-.843-1.578-2.093-1.578s-2.11.625-2.11 1.578c0 .969.86 1.594 2.11 1.594s2.093-.625 2.093-1.594zM1.641-1.437h4.89V.733h.813v-2.828H1.64zm7-4.204H7.344v-2.406H6.53v5.485h.813V-4.97H8.64zm0 0"/></symbol><symbol overflow="visible" id="af"><path d="M1.031-7.11v.641h3.313C4.172-4.375 3-2.687.64-1.562l.421.656C3.985-2.344 5.157-4.578 5.157-7.11zm5.89-.952v8.78h.813v-8.78zm0 0"/></symbol><symbol overflow="visible" id="ag"><path d="M8.031-5.578c-1.594-.188-3.125-1.047-3.125-2.11v-.343h-.828v.344c0 1.062-1.547 1.921-3.14 2.109l.28.594c1.391-.172 2.72-.782 3.282-1.72.547.938 1.875 1.548 3.266 1.72zM8.47-3.75v-.656H.516v.656h3.562v.875h-2.61v.61h5.188v.812H1.5V.625h6.203V0H2.281v-.875h5.172v-2H4.891v-.875zm0 0"/></symbol><symbol overflow="visible" id="ah"><path d="M5.219-5.781v.656h1.734v2.297h.813v-5.219h-.813v2.266zm.484 2c-1.281-.453-2.14-1.563-2.14-2.688v-.297H5.5v-.656H.797v.656h1.969v.297c0 1.266-.907 2.453-2.22 2.938l.423.625a3.776 3.776 0 0 0 2.219-2.235 3.577 3.577 0 0 0 2.109 1.985zM4.86.094c-1.328 0-2.125-.375-2.125-1 0-.64.797-1.031 2.125-1.031 1.329 0 2.125.39 2.125 1.03 0 .626-.796 1-2.125 1zm0-2.64c-1.796 0-2.921.593-2.921 1.64C1.938.125 3.063.719 4.858.719c1.797 0 2.922-.594 2.922-1.625 0-1.047-1.125-1.64-2.922-1.64zm0 0"/></symbol><symbol overflow="visible" id="ai"><path d="M2.25-5.219h4.484v1.625H2.25zm2.64 4.157v-1.891h2.641v-4.485h-.797v1.563H2.25v-1.563h-.797v4.485h2.625v1.89H.516v.657h7.968v-.656zm0 0"/></symbol><symbol overflow="visible" id="aj"><path d="M4.484.11c-1.406 0-2.203-.282-2.203-.813 0-.516.797-.797 2.203-.797 1.422 0 2.204.281 2.204.797 0 .531-.782.812-2.204.812zm0-2.204c-1.906 0-3 .485-3 1.39 0 .923 1.094 1.423 3 1.423C6.391.719 7.5.219 7.5-.703c0-.906-1.11-1.39-3.016-1.39zm.407-1.312v-.86h2.64v-.625H2.36v-.875H7.25v-.609H2.36v-.813h5.124v-.625H1.563v3.547h2.515v.86H.516v.64h7.953v-.64zm0 0"/></symbol><symbol overflow="visible" id="ak"><path d="M7.734-8.063h-.812v6.454h.812zM5.813-3.686c-1.313-.47-2.204-1.672-2.204-3v-.891h-.796v.89A3.404 3.404 0 0 1 .608-3.53l.422.656c1.032-.422 1.813-1.281 2.188-2.344.39 1 1.172 1.797 2.172 2.172zM2.874-.126v-2.094h-.797v2.75H8v-.656zm0 0"/></symbol><symbol overflow="visible" id="al"><path d="M6.672-4.563h-4.36v-1.296h4.36zm.797-3.14h-.797V-6.5h-4.36v-1.203h-.796v3.797h5.953zm1.015 4.86H.516v.64h3.562V.734h.797v-2.937h3.61zm0 0"/></symbol><symbol overflow="visible" id="an"><path d="M8.11-3.766c-1.547-.28-3.22-1.578-3.22-3.03v-.673h-.843v.672c0 1.453-1.672 2.75-3.203 3.031l.328.657c1.36-.282 2.734-1.188 3.297-2.454.562 1.266 1.953 2.172 3.297 2.454zM4.874-1.078v-2.14h-.813v2.14H.517v.656H8.5v-.656zm0 0"/></symbol><symbol overflow="visible" id="ao"><path d="M5.14-4.313c.22-1.156.22-2.03.22-2.609v-.453H.983v.656h3.594c0 .563-.031 1.313-.234 2.313zm.829.532c-.89.125-1.89.203-2.86.234v-1.875h-.78v1.906C1.655-3.5 1.015-3.5.452-3.5l.078.656c1.563 0 3.672-.047 5.5-.344zm-3.36 1.734h-.812V.531H7.64v-.656H2.609zm4.75-3.156v-2.86h-.812v6.626h.812v-3.094h1.25v-.672zm0 0"/></symbol><symbol overflow="visible" id="ap"><path d="M6.906-8.063V.735h.797v-8.796zm-5.89.75v5.922h4.14v-5.921H4.36V-5H1.813v-2.313zm.796 2.954H4.36v2.312H1.813zm0 0"/></symbol><symbol overflow="visible" id="aq"><path d="M1.422-5.453c0-.813.64-1.406 1.5-1.406s1.484.593 1.484 1.406c0 .812-.625 1.406-1.484 1.406-.86 0-1.5-.594-1.5-1.406zm5.531-.688v1.375h-1.89c.078-.218.109-.453.109-.687 0-.266-.031-.484-.11-.688zm0 2.032v1.25h.813v-5.204h-.813v1.266H4.687c-.39-.453-1.03-.734-1.765-.734-1.313 0-2.266.843-2.266 2.078 0 1.234.953 2.094 2.266 2.094.734 0 1.375-.282 1.765-.75zM4.843.078C3.532.078 2.72-.312 2.72-.969c0-.672.812-1.062 2.125-1.062C6.187-2.031 7-1.641 7-.97 7-.313 6.187.078 4.844.078zm0-2.734c-1.796 0-2.905.625-2.905 1.687C1.938.094 3.046.72 4.844.72 6.656.719 7.78.094 7.78-.97c0-1.062-1.125-1.687-2.937-1.687zm0 0"/></symbol><symbol overflow="visible" id="ar"><path d="M1.828-4.11h3.25v-3.14H1v.656h3.266v1.828H1.03v3.375h.719c1.516 0 2.844-.062 4.438-.328l-.079-.656c-1.546.25-2.843.313-4.28.313zm5.094-3.968V.734h.812v-8.812zm0 0"/></symbol><symbol overflow="visible" id="as"><path d="M6.953-.047H2.922V-1.14h4.031zm0-1.719H2.922v-1.078h-.797V.594H7.75v-3.438h-.797zM4.125-4.234H1.75v-1.407h2.375zm2.828-3.813v2.156H4.922v-1.718h-.797v1.343H1.75v-1.343H.953v4.03h3.969v-1.655h2.031v1.984h.813v-4.797zm0 0"/></symbol><symbol overflow="visible" id="at"><path d="M7.734-8.047h-.812v6.406h.812zm-6.218 2.75c0-.844.64-1.453 1.484-1.453.875 0 1.531.61 1.531 1.453 0 .875-.656 1.484-1.531 1.484-.844 0-1.484-.609-1.484-1.484zm3.796 0c0-1.25-.984-2.156-2.312-2.156-1.297 0-2.281.906-2.281 2.156 0 1.281.984 2.188 2.281 2.188 1.328 0 2.313-.907 2.313-2.188zM2.876-.125v-2.172h-.797V.531H8v-.656zm0 0"/></symbol><symbol overflow="visible" id="au"><path d="M7-8.188v3.454h-.734v-3.313H5.062v5.844c-1.328-.703-1.78-2.203-1.78-3.766v-.25H4.64v-1.047H.547v1.047H2.03v.25c0 1.735-.437 3.328-1.781 4.11l.781.984c.844-.516 1.375-1.36 1.657-2.39.312.89.843 1.624 1.656 2.046l.718-.968V.437h1.204v-4.109H7v4.5h1.234v-9.015zm0 0"/></symbol><symbol overflow="visible" id="av"><path d="M5.531-4.438c-.984.204-1.875.266-3.484.282v-2.282h2.75v-1.03H.766v4.343h.75c2 0 3.03-.047 4.14-.297zM3-2.344H1.703V.687h6.14v-1.03H3zm4.531-3.375v-2.468H6.234v6.53h1.297v-3H8.72v-1.062zm0 0"/></symbol><symbol overflow="visible" id="aw"><path d="M6.688-.297H3.265v-.766h3.421zm0-1.75H3.265v-.797H1.984V.72H7.97v-3.563H6.687zM3.796-4.53H2.094v-1.063h1.703zm2.875-3.657v2.063h-1.61v-1.594H3.798v1.14H2.094v-1.14H.797V-3.5h4.266v-1.578h1.609v1.844h1.297v-4.954zm0 0"/></symbol><symbol overflow="visible" id="ax"><path d="M7.922-8.172H6.609v6.485h1.313zm-6.11 2.86c0-.735.532-1.172 1.188-1.172.688 0 1.188.437 1.188 1.171 0 .735-.5 1.172-1.188 1.172-.656 0-1.188-.437-1.188-1.171zm3.641 0C5.453-6.641 4.391-7.61 3-7.61c-1.375 0-2.453.968-2.453 2.296C.547-4 1.625-3.03 3-3.03c1.39 0 2.453-.969 2.453-2.281zM3.203-.345v-1.984H1.906V.687h6.235v-1.03zm0 0"/></symbol><symbol overflow="visible" id="az"><path d="M.86-7.375v6.078h4.343v-6.078zm3.062 1.031v4.016H2.14v-4.016zm2.687-1.843V.858h1.282v-9.046zm0 0"/></symbol><symbol overflow="visible" id="aA"><path d="M1.922-3.813h2.14v-3.5H.656v1.047h2.172v1.438H.672v3.672h.625c1.094 0 2.078-.032 3.234-.219l-.11-1.047c-.89.14-1.671.188-2.5.203zm5.016-4.374v3.406h-.813v-3.25H4.922V.406h1.203V-3.75h.813V.828h1.218v-9.015zm0 0"/></symbol><symbol overflow="visible" id="aB"><path d="M3.328-7.578c-1.422 0-2.484.922-2.484 2.219 0 1.296 1.062 2.218 2.484 2.218 1.406 0 2.485-.921 2.485-2.218S4.734-7.58 3.328-7.58zm0 1.11c.688 0 1.219.405 1.219 1.109 0 .703-.531 1.125-1.219 1.125-.703 0-1.234-.422-1.234-1.125 0-.704.531-1.11 1.234-1.11zm3.328-1.72V.86h1.282v-9.046zM.625-.968c1.563 0 3.672-.016 5.61-.407l-.079-.938c-1.89.282-4.11.297-5.703.297zm0 0"/></symbol><symbol overflow="visible" id="aC"><path d="M5.734-7.39H3.72v-.844H2.422v.843h-2v1.016h5.312zm-3.64 2.968c0-.453.39-.687.984-.687.578 0 .985.234.985.687 0 .453-.407.672-.985.672-.594 0-.984-.219-.984-.672zm3.203 0c0-.984-.922-1.656-2.219-1.656-1.297 0-2.219.672-2.219 1.656 0 .984.922 1.656 2.22 1.656 1.296 0 2.218-.671 2.218-1.656zM1.516-1.109h4.718V.859h1.297v-3.015H1.516zm7.203-4.75H7.53v-2.313H6.234v5.64h1.297v-2.265H8.72zm0 0"/></symbol><symbol overflow="visible" id="aD"><path d="M1.766-5.313c0-.734.484-1.203 1.14-1.203.672 0 1.156.47 1.156 1.204 0 .75-.484 1.218-1.156 1.218-.656 0-1.14-.468-1.14-1.218zm4.906-.578v1.157H5.219c.047-.172.078-.375.078-.579 0-.203-.031-.406-.078-.578zm0 2.188v2.125h1.297v-6.61H6.672v1.266H4.656c-.437-.453-1.047-.719-1.75-.719-1.328 0-2.375.985-2.375 2.329 0 1.359 1.047 2.343 2.375 2.343.703 0 1.328-.281 1.781-.734zm-3.36 3.36V-2.22H2.016V.687h6.156v-1.03zm0 0"/></symbol><symbol overflow="visible" id="aE"><path d="M8.578-3.828H7.391c.234-1.25.234-2.172.234-3.016v-.812H1.359v1.031h5c0 .781-.015 1.656-.25 2.797H.438v1.047h3.359V.844h1.312v-3.625h3.47zm0 0"/></symbol></defs><g fill="#898989"><use xlink:href="#a" x="557.611" y="819.502"/><use xlink:href="#b" x="561.893" y="819.502"/></g><g fill="#595757"><use xlink:href="#c" x="39.171" y="819.327"/><use xlink:href="#d" x="44.569" y="819.327"/><use xlink:href="#e" x="49.967" y="819.327"/><use xlink:href="#f" x="55.365" y="819.327"/><use xlink:href="#g" x="60.763" y="819.327"/><use xlink:href="#h" x="62.322" y="819.327"/><use xlink:href="#i" x="67.72" y="819.327"/><use xlink:href="#j" x="73.118" y="819.327"/><use xlink:href="#k" x="78.516" y="819.327"/><use xlink:href="#l" x="83.914" y="819.327"/><use xlink:href="#m" x="89.312" y="819.327"/><use xlink:href="#c" x="94.71" y="819.327"/><use xlink:href="#d" x="100.108" y="819.327"/></g><g fill="#595757"><use xlink:href="#n" x="105.506" y="819.327"/><use xlink:href="#o" x="107.065" y="819.327"/><use xlink:href="#p" x="112.463" y="819.327"/><use xlink:href="#q" x="117.861" y="819.327"/><use xlink:href="#r" x="123.259" y="819.327"/><use xlink:href="#n" x="128.657" y="819.327"/><use xlink:href="#s" x="130.217" y="819.327"/><use xlink:href="#t" x="135.615" y="819.327"/><use xlink:href="#u" x="141.012" y="819.327"/><use xlink:href="#n" x="146.41" y="819.327"/><use xlink:href="#v" x="147.97" y="819.327"/></g><g fill="#595757"><use xlink:href="#w" x="151.058" y="819.327"/><use xlink:href="#x" x="154.501" y="819.327"/><use xlink:href="#y" x="155.982" y="819.327"/><use xlink:href="#n" x="157.368" y="819.327"/><use xlink:href="#z" x="158.927" y="819.327"/><use xlink:href="#A" x="162.016" y="819.327"/></g><use xlink:href="#B" x="218.63" y="403.221"/><use xlink:href="#C" x="222.348" y="403.221"/><use xlink:href="#D" x="226.019" y="403.221"/><use xlink:href="#E" x="229.138" y="403.221"/><use xlink:href="#F" x="239.933" y="403.221"/><use xlink:href="#G" x="250.729" y="403.221"/><use xlink:href="#H" x="261.525" y="403.221"/><use xlink:href="#D" x="272.321" y="403.221"/><use xlink:href="#I" x="275.44" y="403.221"/><use xlink:href="#J" x="286.236" y="403.221"/><use xlink:href="#K" x="297.032" y="403.221"/><use xlink:href="#L" x="307.828" y="403.221"/><use xlink:href="#M" x="318.624" y="403.221"/><use xlink:href="#N" x="329.42" y="403.221"/><use xlink:href="#E" x="340.216" y="403.221"/><use xlink:href="#F" x="351.011" y="403.221"/><use xlink:href="#D" x="361.807" y="403.221"/><use xlink:href="#O" x="364.926" y="403.221"/><use xlink:href="#P" x="375.722" y="403.221"/><use xlink:href="#D" x="386.518" y="403.221"/><g><use xlink:href="#B" x="284.665" y="426.216"/><use xlink:href="#B" x="288.383" y="426.216"/><use xlink:href="#C" x="292.102" y="426.216"/><use xlink:href="#D" x="295.772" y="426.216"/><use xlink:href="#M" x="298.891" y="426.216"/><use xlink:href="#Q" x="309.687" y="426.216"/><use xlink:href="#D" x="320.483" y="426.216"/><use xlink:href="#D" x="323.602" y="426.216"/></g><g><use xlink:href="#B" x="282.805" y="449.211"/><use xlink:href="#B" x="286.524" y="449.211"/><use xlink:href="#B" x="290.242" y="449.211"/><use xlink:href="#C" x="293.961" y="449.211"/><use xlink:href="#D" x="297.632" y="449.211"/><use xlink:href="#R" x="300.75" y="449.211"/><use xlink:href="#S" x="311.546" y="449.211"/><use xlink:href="#D" x="322.342" y="449.211"/><use xlink:href="#D" x="325.461" y="449.211"/></g><g fill="#595757"><use xlink:href="#T" x="207.012" y="342.313"/><use xlink:href="#U" x="225.905" y="342.313"/><use xlink:href="#V" x="244.798" y="342.313"/><use xlink:href="#W" x="263.691" y="342.313"/><use xlink:href="#X" x="282.584" y="342.313"/><use xlink:href="#Y" x="288.042" y="342.313"/><use xlink:href="#Z" x="306.934" y="342.313"/><use xlink:href="#aa" x="325.827" y="342.313"/><use xlink:href="#X" x="344.72" y="342.313"/><use xlink:href="#ab" x="350.178" y="342.313"/><use xlink:href="#ac" x="362.123" y="342.313"/><use xlink:href="#ab" x="374.067" y="342.313"/><use xlink:href="#ab" x="386.012" y="342.313"/></g><g fill="#595757"><use xlink:href="#ad" x="175.574" y="308.613"/><use xlink:href="#ae" x="184.294" y="308.613"/><use xlink:href="#af" x="193.013" y="308.613"/><use xlink:href="#ag" x="201.733" y="308.613"/><use xlink:href="#ah" x="210.452" y="308.613"/><use xlink:href="#ai" x="219.172" y="308.613"/><use xlink:href="#aj" x="227.892" y="308.613"/><use xlink:href="#ak" x="236.611" y="308.613"/><use xlink:href="#al" x="245.331" y="308.613"/><use xlink:href="#am" x="254.05" y="308.613"/><use xlink:href="#an" x="256.5" y="308.613"/><use xlink:href="#ao" x="265.219" y="308.613"/><use xlink:href="#am" x="273.939" y="308.613"/><use xlink:href="#ap" x="276.388" y="308.613"/><use xlink:href="#aq" x="285.108" y="308.613"/><use xlink:href="#ar" x="293.827" y="308.613"/><use xlink:href="#as" x="302.547" y="308.613"/><use xlink:href="#at" x="311.267" y="308.613"/><use xlink:href="#am" x="319.986" y="308.613"/></g><g fill="#595757"><use xlink:href="#au" x="322.435" y="308.613"/><use xlink:href="#av" x="331.155" y="308.613"/><use xlink:href="#aw" x="339.875" y="308.613"/><use xlink:href="#ax" x="348.594" y="308.613"/><use xlink:href="#ay" x="357.314" y="308.613"/><use xlink:href="#az" x="359.763" y="308.613"/><use xlink:href="#aA" x="368.483" y="308.613"/><use xlink:href="#aB" x="377.202" y="308.613"/><use xlink:href="#aC" x="385.922" y="308.613"/><use xlink:href="#aD" x="394.642" y="308.613"/><use xlink:href="#aE" x="403.361" y="308.613"/><use xlink:href="#au" x="412.081" y="308.613"/><use xlink:href="#av" x="420.8" y="308.613"/></g><path d="M174.473 358.18h256.441" fill="none" stroke-width=".20192324" stroke="#9d9d9e"/></svg>