<svg xmlns="http://www.w3.org/2000/svg" xmlns:xlink="http://www.w3.org/1999/xlink" width="793.701" height="1058.268" viewBox="0 0 595.276 793.701" version="1.2"><defs><symbol overflow="visible" id="a"><path d="M7.422 1.36v-7.985h-.734v2.938h-.954V-6.5H5V.984h.734v-3.953h.954V1.36zM2.938-4.626v-.813H4.28v-.625H.813v.625h1.359v.688c0 .953-.156 1.766-.469 2.453A4.316 4.316 0 0 1 .172-.594c.234.14.531.313.687.453.36-.265.735-.656 1.047-1.093.297-.407.532-.875.64-1.297.126.422.345.828.61 1.187.297.375.64.703.969.907.14-.172.36-.36.547-.5a3.485 3.485 0 0 1-1.344-1.516c-.25-.594-.39-1.328-.39-2.172zm0 0"/></symbol><symbol overflow="visible" id="b"><path d="M6.078-6.625V-.75h.75v-3.266h1.11v-.64h-1.11v-1.969zm-.344 3.234c-.546.11-2.015.282-2.843.297l-1.313.016v-2.547H4.61v-.64H.844v3.843c.031 0 1.375 0 1.984-.015 1.047-.032 2.328-.188 2.906-.329zm1.344 4.594v-.64H2.422v-2.016h-.75v2.656zm0 0"/></symbol><symbol overflow="visible" id="c"><path d="M7.11-2.313v-4.312h-.75v1.578H4.624v-1.312h-.719v1.187h-2.25v-1.187H.922v3.687h3.703V-4.39h1.734v2.079zm-3.204-1h-2.25V-4.53h2.25zM7.11 1.282v-3.234h-.75v.922H2.547v-.922h-.75V1.28zm-.75-.61H2.547V-.405h3.812zm0 0"/></symbol><symbol overflow="visible" id="d"><path d="M7.11-.75v-5.875h-.75V-.75zM.61-4.406c0 1.14.874 2.093 2.124 2.093 1.235 0 2.11-.953 2.11-2.093 0-1.172-.875-2.11-2.11-2.11-1.25 0-2.125.938-2.125 2.11zm.765 0c0-.828.5-1.469 1.36-1.469.859 0 1.359.64 1.359 1.469 0 .797-.5 1.437-1.36 1.437-.859 0-1.359-.64-1.359-1.437zm5.969 5.61V.562H2.562v-1.985h-.75v2.625zm0 0"/></symbol><symbol overflow="visible" id="f"><path d="M7.047 1.36v-7.985H6.28v7.984zM4.687-.657v-5.469H.97v5.469zm-.734-.64H1.72V-5.47h2.234zm0 0"/></symbol><symbol overflow="visible" id="g"><path d="M7.203 1.36v-7.985H6.47v2.844h-.985V-6.5H4.75V.984h.734v-4.046h.985v4.421zm-2.75-2.75c-.344.062-1.187.156-1.734.156l-1.063.015V-3.03h2.157v-3.125H.921v.64h2.172v1.844H.922v3.11l1.547-.016A19.11 19.11 0 0 0 4.453-.75zm0 0"/></symbol><symbol overflow="visible" id="h"><path d="M7.203 1.36v-7.985h-.75v7.984zM1.031-4.376c0 1.094.875 2 2.125 2 1.235 0 2.125-.906 2.125-2 0-1.094-.89-1.984-2.125-1.984-1.25 0-2.125.89-2.125 1.984zm.735 0c0-.75.53-1.36 1.39-1.36.86 0 1.36.61 1.36 1.36 0 .75-.5 1.36-1.36 1.36-.86 0-1.39-.61-1.39-1.36zm4.406 3.016c-.64.109-2.531.25-3.219.265-.328.016-2.312.016-2.344.016v.656c.016 0 1.657.016 1.985 0a26.518 26.518 0 0 0 3.578-.297zm0 0"/></symbol><symbol overflow="visible" id="i"><path d="M8.047-3.813v-.671H6.922v-2.141h-.766V-1.5h.766v-2.313zM4.14-6.046v-.594H1.687v.594zm1.14 1.203v-.593H.594v.593zM.921-3.078c0 .719.829 1.312 2 1.312 1.25 0 2.032-.593 2.032-1.312 0-.735-.75-1.328-2.016-1.328-1.203 0-2.015.593-2.015 1.328zm.782-.016c0-.453.484-.719 1.234-.719.766 0 1.235.266 1.235.72 0 .452-.453.75-1.234.75-.75 0-1.235-.282-1.235-.75zm5.219 4.5v-2.515h-5.36v.625h4.579v1.89zm0 0"/></symbol><symbol overflow="visible" id="j"><path d="M7.11-.75v-5.875h-.75v.922H4.421c-.36-.5-.969-.844-1.703-.844-1.235 0-2.11.969-2.11 2.125 0 1.156.875 2.11 2.11 2.11.765 0 1.39-.36 1.75-.891h1.89V-.75zm-.75-3.11H4.75a1.7 1.7 0 0 0 .094-.562c0-.219-.032-.437-.094-.625h1.61zm-4.985-.562c0-.812.5-1.469 1.344-1.469.875 0 1.36.657 1.36 1.47 0 .796-.485 1.452-1.36 1.452-.844 0-1.344-.656-1.344-1.453zm5.953 5.625v-.64H2.562v-1.985h-.75v2.625zm0 0"/></symbol><symbol overflow="visible" id="k"><path d="M7.781-2.156v-.64H6.484c.204-.907.375-2.438.407-3.548H1.156v.64h4.938a16.656 16.656 0 0 1-.39 2.907H.265v.64h3.312V1.36h.75v-3.515zm0 0"/></symbol><symbol overflow="visible" id="m"><path d="M3.813-4.36v-.015h1.593v-.813h-4.25v.813h1.578v.016c-.046.359-.265.687-.593.968-.407.344-.97.594-1.5.735.234.203.546.5.718.703.422-.156.813-.36 1.141-.61.344-.234.625-.515.781-.812.203.297.485.563.813.781.343.219.703.39 1.015.485.125-.188.375-.47.594-.688a3.35 3.35 0 0 1-1.219-.578c-.343-.266-.625-.61-.671-.984zm2.25 3.126c-.641.093-1.954.171-2.313.171V-2.25h-.969v1.203H.562v.86h1.844c1.172 0 2.985-.094 3.656-.204zm1.25 2.609v-8.016h-.954v8.016zm-2.86-7.11v-.796H2.016v.797zm0 0"/></symbol><symbol overflow="visible" id="n"><path d="M7.203-.75v-5.89h-.969v5.89zM3.328-5.39v-1.094H2.297v1.125c0 .593-.219 1.125-.563 1.562-.39.516-.968.922-1.562 1.203.266.203.625.485.781.656a5.38 5.38 0 0 0 1.094-.796c.344-.329.64-.704.765-1.079.204.376.532.735.891 1.016.328.266.688.5 1 .656.14-.203.422-.515.625-.75a3.228 3.228 0 0 1-1.39-.953c-.376-.437-.61-.969-.61-1.547zm4.063 6.609V.375H2.766v-1.734h-1v2.578zm0 0"/></symbol><symbol overflow="visible" id="o"><path d="M7.781-2.063v-.843h-3.25v-.906h2.39v-.829H2.204v-.984h4.64v-.828H1.235v2.64h2.297v.907H.281v.844zm-3.75 3.594c1.938 0 2.985-.687 2.985-1.562 0-.89-1.047-1.547-2.985-1.547-1.937 0-3 .656-3 1.547 0 .875 1.063 1.562 3 1.562zM2.156-.047c0-.515.703-.781 1.875-.781 1.14 0 1.86.297 1.86.797 0 .484-.72.781-1.86.781C2.86.75 2.156.453 2.156-.047zm0 0"/></symbol><symbol overflow="visible" id="p"><path d="M7.906-2.875v-.828H6.875v-.922h1.031v-.828H6.875v-1.188h-.969v5.063h.969v-1.297zM4.063-5.953v-.734H1.578v.734zm1.125 1.219v-.735H.468v.735zM.702-3.188c0 .688.906 1.25 2.125 1.25 1.297 0 2.125-.546 2.125-1.265 0-.703-.828-1.203-2.11-1.203-1.234 0-2.14.531-2.14 1.218zm3.235-.015c0 .375-.407.578-1.094.578-.688 0-1.11-.188-1.11-.563 0-.374.422-.578 1.11-.578.687 0 1.094.204 1.094.563zM7.046 0c0-.938-1.188-1.5-2.844-1.5-1.594 0-2.875.516-2.875 1.469 0 .953 1.234 1.547 2.86 1.547C5.796 1.516 7.046.984 7.046 0zm-4.64-.016c0-.562.874-.75 1.78-.75.985 0 1.75.235 1.75.75 0 .532-.828.782-1.734.782-.922 0-1.797-.25-1.797-.782zm0 0"/></symbol><symbol overflow="visible" id="q"><path d="M7.797.484v-.843H4.53V-2h2.282v-4.422h-.97v1.313h-3.64v-1.313h-.969V-2h2.282v1.64H.28v.844zM5.844-2.844h-3.64v-1.422h3.64zm0 0"/></symbol><symbol overflow="visible" id="r"><path d="M1.078-6.203v.828h4.766a28.365 28.365 0 0 1-.453 3.953h.968c.25-1.39.47-3.406.532-4.781zM7.797.484v-.843H3.844v-2.985h-.985v2.985H.281v.843zm0 0"/></symbol><symbol overflow="visible" id="s"><path d="M7.203 1.375v-8.016H6.22v2.313H4.53v.906H6.22v4.797zm-3.89-5.938v-1.765H2.296v1.719c0 .796-.172 1.515-.516 2.14C1.406-1.766.828-1.188.094-.75c.281.188.625.469.812.64a6.26 6.26 0 0 0 1.14-1.046c.345-.422.642-.89.767-1.297.203.453.5.906.859 1.281.344.36.719.672 1.031.89.172-.187.438-.437.719-.655-.672-.422-1.234-.938-1.61-1.594-.312-.563-.5-1.219-.5-2.031zm0 0"/></symbol><symbol overflow="visible" id="u"><path d="M2.766-.547L1.125-6.125H.109L2.266.672h.968l2.172-6.797H4.391zm0 0"/></symbol><symbol overflow="visible" id="v"><path d="M2.438-3.688c.765 0 1.171.766 1.171 1.922C3.61-.609 3.203.141 2.438.141c-.735 0-1.141-.75-1.141-1.907 0-1.156.406-1.921 1.14-1.921zm0-.75C1.046-4.438.344-3.375.344-1.765c0 1.61.703 2.641 2.094 2.641 1.406 0 2.14-1.031 2.14-2.64 0-1.61-.734-2.673-2.14-2.673zm0 0"/></symbol><symbol overflow="visible" id="w"><path d="M.563-6.125V.672h.906v-6.797zm0 0"/></symbol><symbol overflow="visible" id="x"><path d="M.64-.047v1.203h1.25V-.047zm0 0"/></symbol><symbol overflow="visible" id="y"><path d="M.563-4.219H1.75V.703h.938v-6.922h-.766c-.11.922-.406 1.282-1.36 1.328zm0 0"/></symbol><symbol overflow="visible" id="z"><path d="M2-6.25C.797-6.25.203-4.89.203-2.656.203-.437.797.906 2 .906c1.203 0 1.828-1.344 1.828-3.562C3.828-4.891 3.203-6.25 2-6.25zm0 .797c.547 0 .906 1.078.906 2.797C2.906-.97 2.546.109 2 .109c-.531 0-.875-1.078-.875-2.765 0-1.719.344-2.797.875-2.797zm0 0"/></symbol><symbol overflow="visible" id="A"><path d="M1.672.344c-.012.02-.008.031.016.031.019.008.035.016.046.016h.172c.082 0 .13-.028.14-.079.02-.042.052-.105.095-.187l3.125-7.047c.02-.027.039-.066.062-.11a.385.385 0 0 0 .031-.124c0-.082-.054-.125-.156-.125C5.11-7.29 5.04-7.297 5-7.297H.5c-.074 0-.121.024-.14.063a.329.329 0 0 0-.032.156l.047.61c.008.011.016.042.016.093.007.055.03.078.062.078.02 0 .04-.004.063-.016l.046-.046c.114-.028.204-.051.266-.063.07-.008.164-.016.281-.016h3.235c.05 0 .097.012.14.032.051.023.079.066.079.125 0 .031-.02.082-.047.14a.712.712 0 0 0-.063.157zm0 0"/></symbol><symbol overflow="visible" id="B"><path d="M3.422-7.313a.124.124 0 0 0-.031-.078.119.119 0 0 0-.079-.062.133.133 0 0 0-.078 0 .589.589 0 0 0-.078.047l-1.844.828a.934.934 0 0 0-.218.078c-.086.043-.125.102-.125.172 0 .043.008.082.031.11a.143.143 0 0 0 .094.03c.05 0 .113-.015.187-.046.07-.028.133-.051.188-.063l.687-.312c.051-.02.102-.04.156-.063a.364.364 0 0 1 .172-.047c.07 0 .118.024.141.063.02.043.031.097.031.156v5.078c0 .367-.043.617-.125.75-.074.125-.316.188-.719.188-.25 0-.414.011-.484.03-.074.013-.11.052-.11.11 0 .063.016.106.048.125.027.024.082.032.156.032h3.094c.058 0 .109-.008.14-.032.028-.02.047-.054.047-.11 0-.058-.02-.1-.047-.124a.278.278 0 0 0-.14-.031h-.329c-.375 0-.601-.079-.671-.235-.063-.164-.094-.41-.094-.734zm0 0"/></symbol><symbol overflow="visible" id="C"><path d="M6.11-7.11l-.016 2.204-3.125.062-.016-2.203zm1.312 2.126l.031-4.11c0-.375.188-.734-.328-.922-.438-.156-1.203-.234-1.469-.234-.953.063-.687.453-.36.578.485.188.829.281.829.672l-.016 1.14-3.156.048-.015-.86c0-.39.171-.625-.344-.812-.438-.141-1.125-.188-1.469-.204-1.016.063-.64.47-.438.547.563.188.907.375.907.75l.031 3.625c.016.985.328 1.344.61 1.313.374-.016.656-.453.703-.64l3.187-.063c.047.172.234.515.578.515.328 0 .688-.64.719-1.343zM10.64.14l-.016-1.75c.016-.454.484-.907-.313-1.079-.453-.062-.921 0-1.421.141-.47.14-4.25.219-5.422.047-1.266-.14-.844.406-.516.578C4.97-.812 5.078-1.594 6-1.64c.016 0 2.703-.093 3.234-.109L9.281.672c.016.86.219 1.734.531 1.719.344-.016.844-1.016.829-2.25zm.125-6.875l-.032-3.016c0-.734.344-1.156-.218-1.375-.391-.156-1.5-.328-1.704-.344-.953-.047-.968.39-.406.656.719.297 1 .422 1 1.063l.063 4.89c.015 1.079.11 1.907.469 1.891.39-.015.843-1.047.843-2.594v-.515h2.14c.97 0 1.157-.844.126-1.047-.438-.063-1.125-.078-1.297.078-.203.219-.625.281-.984.313zm0 0"/></symbol><symbol overflow="visible" id="E"><path d="M9.5-4.25c.953-.016 1.64 0 2.234.031.829.032 1.657.016 1.672-.484.047-.688-2-.766-3.156-.313-.125.047-.36.079-.64.079.234-.344.453-.891.671-1.532.422-1.328.766-2.812.781-2.875.079-.5.672-.937-.218-1.14-.453-.11-1.094-.032-1.531.125-.47.156-5.329.265-6.516.078-1.11-.11-.781.39-.422.578 2 1.062 2.172.406 3 .312.016 0 3.5-.156 4.14-.187-.109 1.187-.203 1.844-.484 3.031-.172.719-.36 1.297-.344 1.656-.718.016-1.5 0-1.828 0l-3.046.016c-1.454.016-1.844-.063-2.704-.11-.812-.046-1.25.282-.359.688 2.281 1 2.344.313 3.266.234 0 0 .03 0 .109-.015l.016 3.687c0 1.344.109 2.641.546 2.625.516-.015.907-1.375.875-3.484l-.015-2.922c.5-.031 1.11-.031 1.844-.047.234 0 .468-.015.687-.015l.031 4.14c0 1.36.11 2.64.547 2.625.516-.015.906-1.375.875-3.469zm0 0"/></symbol><symbol overflow="visible" id="F"><path d="M12.094.688C11.625.609 10.78.64 10.5.844c-.281.203-.703.219-1.031.219l-2.453.03c-.235 0-.47-.14-.47-.421v-1.797c0-.531.313-.906-.421-1.016-.422-.062-1.203-.109-1.656-.062-1.235.14-.625.562-.219.656.625.125.844.266.844.766V.688c0 .953.734 1.125 1.5 1.125l5.36-.063c.968 0 1.202-.828.14-1.063zM10.219-9.75l.062 7.14c0 1.079.047 2.047.469 2.032.453-.016.844-1.125.844-2.735l-.047-6.437c0-.734.344-1.156-.219-1.375-.39-.156-1.5-.328-1.703-.344-.953-.047-.969.39-.39.656.703.297.984.422.984 1.063zM5.453-5.578c.797.672 1.89 1.719 2.422 2.156.781.656 1.328.328.984-.406-.046-.125-.546-.969-.984-1.281-.344-.204-.375-.047-.781-.235-.157-.078-.64-.453-1.11-.828.516-.594 1.047-1.344 1.547-2.078.407-.547.828-1.172.188-1.406-.157-.031-1.235-.094-1.532.047-.39.203-1.359.234-2.437.234-.64 0-1.188-.063-1.375-.094-.828-.094-1.016.235-.39.594 1.265.719 1.53.516 1.906.328.015 0 .328-.062.64-.094.407-.03.922-.109 1.61-.156C4.844-6.234 2.484-3.953 1-3.14c-.313.172-.188.641.813.25.89-.343 2.218-1.25 3.64-2.687zm0 0"/></symbol><symbol overflow="visible" id="H"><path d="M5.156-4.438c0 .922-.61 1.625-1.5 1.625-.86 0-1.515-.703-1.515-1.624 0-.938.656-1.641 1.515-1.641.89 0 1.5.703 1.5 1.64zm1.14 0c0-1.843-1.921-2.187-2.015-2.218 0-.235.14-.25.016-.469-.172-.313-1.36-.406-1.36.016 0 .187.313.203.126.453C3.063-6.625 1-6.313 1-4.422c0 1.484 1.36 2.375 2.656 2.375 1.266 0 2.64-.89 2.64-2.39zm1.876-3.359l.047 7.719c0 1.078.047 2.11.406 2.11.422-.016.688-1.11.656-2.782l-.047-7.047c0-.594.282-.922-.171-1.094-.313-.14-1.204-.265-1.36-.28-.766-.048-.781.312-.328.515.578.25.797.344.797.86zm0 0"/></symbol><symbol overflow="visible" id="I"><path d="M8.688-3.922l-.032-3.875c0-.594.266-.922-.172-1.094-.312-.14-1.203-.265-1.375-.28-.75-.048-.765.312-.312.515.578.25.797.344.797.86L7.64-.079c0 1.078.046 2.11.406 2.11.422-.016.687-1.11.656-2.782l-.015-2.656h1.718c.781 0 .922-.672.11-.844-.36-.047-.907-.047-1.047.078-.156.172-.5.219-.781.25zM3.516-4.14c.546.532 1.64 1.735 2.046 2.188.625.672 1.282.484.891-.313-.078-.14-.344-.671-.625-.984-.25-.219-.39-.125-.703-.328-.156-.094-.844-.719-1.281-1.11.36-.578.656-1.156.922-1.78.187-.329.296-.532-.125-.813-.297-.203-1.11-.5-1.375-.5-.704-.063-.688.234-.141.531.484.25.438.39.297.797-.563 1.89-2.031 3.953-3 4.734-.39.297-.047.594.594.188.984-.61 1.812-1.594 2.5-2.61zm0 0"/></symbol><symbol overflow="visible" id="J"><path d="M7.344-3.922c-.313-.047-1-.234-1.735-.594-.546-.28-1.14-.796-1.234-1.218v-.047h2.5v-.547H1.156v.547h2.5v.047c-.094.421-.687.937-1.234 1.218-.735.36-1.422.547-1.735.594l.422.485a5.685 5.685 0 0 0 1.579-.547c.578-.297 1.203-.844 1.328-1.079.109.235.75.782 1.328 1.079.672.343 1.281.5 1.578.546zm.5 1.766v-.563h-3.5v-1.125h-.672v1.125h-3.5v.563zM7.03-.078c0-.86-1.11-1.484-3.015-1.484C2.109-1.563 1-.938 1-.079c0 .875 1.11 1.5 3.016 1.5S7.03.797 7.03-.078zm-.734 0c0 .578-.969.953-2.281.953C2.672.875 1.719.5 1.719-.078c0-.594.953-.953 2.297-.953 1.312 0 2.28.36 2.28.953zm0 0"/></symbol><symbol overflow="visible" id="K"><path d="M7.844-2.375v-.547H6.437c.063-.234.188-.875.282-1.469.11-.656.187-1.296.25-1.875H1.094v.547h5.125c-.078.86-.344 2.36-.422 2.797H.172v.547zm-.735 3.453V.516H1.86v-2.172h-.64v2.734zm0 0"/></symbol><symbol overflow="visible" id="L"><path d="M5.547-2.953V-3.5c-.516.11-1.5.203-2.297.234l-1.86.016v-2.266h3.204v-.562H.734v3.39c.079 0 1.5 0 2.329-.03.984-.048 1.953-.141 2.484-.235zM6.75-6.641h-.64v4.72h.64V-4.22h1.172v-.562H6.75zm.156 6.485c0-.938-.984-1.61-2.828-1.61-1.844 0-2.844.672-2.844 1.61 0 .906 1 1.578 2.844 1.578 1.844 0 2.828-.672 2.828-1.578zm-.703 0c0 .625-.89 1.031-2.125 1.031-1.266 0-2.14-.406-2.14-1.031 0-.656.875-1.047 2.14-1.047 1.234 0 2.125.39 2.125 1.047zm0 0"/></symbol><symbol overflow="visible" id="M"><path d="M1-8.672h3.11c.495 0 .93.067 1.296.188.364.125.66.304.89.53.24.231.415.509.532.829.121.313.188.652.188 1.016v.265c0 .367-.067.711-.188 1.032a2.337 2.337 0 0 1-.562.843 2.637 2.637 0 0 1-.907.578c-.355.137-.773.204-1.25.204H2.188V.328H1zm1.188 1.063v3.359h1.718c1.258 0 1.89-.54 1.89-1.625v-.219c0-.508-.151-.89-.452-1.14-.305-.246-.739-.375-1.297-.375zm0 0"/></symbol><symbol overflow="visible" id="N"><path d="M3.563-6.625c.902 0 1.624.273 2.156.813.527.542.797 1.308.797 2.296v.829c0 .992-.27 1.757-.797 2.296-.532.54-1.254.813-2.157.813-.917 0-1.644-.274-2.171-.813C.867-.93.609-1.695.609-2.687v-.829c0-.996.258-1.765.782-2.296.527-.54 1.254-.813 2.171-.813zm0 5.984c.519 0 .94-.175 1.265-.53.332-.352.5-.891.5-1.61v-.64c0-.716-.168-1.255-.5-1.61-.324-.352-.746-.532-1.266-.532-.53 0-.96.18-1.28.532-.325.355-.485.894-.485 1.61v.64c0 .719.16 1.258.484 1.61.32.355.75.53 1.281.53zm0 0"/></symbol><symbol overflow="visible" id="O"><path d="M3-.625c.434 0 .773-.078 1.016-.234a.738.738 0 0 0 .375-.657v-.093a.941.941 0 0 0-.063-.36.602.602 0 0 0-.234-.265 2.26 2.26 0 0 0-.469-.204 11.98 11.98 0 0 0-.75-.203 5.824 5.824 0 0 1-.969-.265 3.106 3.106 0 0 1-.718-.39 1.5 1.5 0 0 1-.454-.563 1.914 1.914 0 0 1-.14-.766v-.156c0-.227.047-.457.14-.688.102-.226.254-.426.454-.593.195-.165.453-.301.765-.407.309-.101.68-.156 1.11-.156.445 0 .867.055 1.265.156.395.106.754.278 1.078.516l-.515.906a2.57 2.57 0 0 0-.782-.39 3.051 3.051 0 0 0-.968-.157c-.493 0-.848.082-1.063.235a.709.709 0 0 0-.312.593v.11c0 .273.109.472.328.593.215.125.586.243 1.11.344a6.41 6.41 0 0 1 1.046.281c.3.106.547.243.734.407.196.156.344.351.438.578.09.219.14.492.14.812v.157c0 .261-.058.511-.171.75a1.9 1.9 0 0 1-.5.609 2.572 2.572 0 0 1-.797.39 3.385 3.385 0 0 1-1.047.157A4.763 4.763 0 0 1 1.53.188C1.082.039.7-.156.391-.406l.546-.938c.29.211.602.383.938.516.34.137.719.203 1.125.203zm0 0"/></symbol><symbol overflow="visible" id="P"><path d="M2.156-6.5V.328H.984V-6.5zm.031-2.453v1.328H.938v-1.328zm0 0"/></symbol><symbol overflow="visible" id="Q"><path d="M1.36-5.469H.265V-6.5h1.093v-1.734h1.172V-6.5h1.75v1.031h-1.75v3.89c0 .212.02.38.063.5.039.126.097.227.172.298.07.062.16.113.265.14.114.024.227.032.344.032.29 0 .582-.055.875-.172l.188.984a4.19 4.19 0 0 1-.563.14 2.98 2.98 0 0 1-.672.079c-.637 0-1.105-.164-1.406-.484-.293-.32-.438-.829-.438-1.516zm0 0"/></symbol><symbol overflow="visible" id="R"><path d="M6.406.328H5.234v-4.25c0-.57-.12-.988-.359-1.25-.23-.258-.59-.39-1.078-.39-.211 0-.414.039-.61.109a1.636 1.636 0 0 0-.922.828c-.093.21-.14.45-.14.719V.328H.937V-6.5h1.141v.86h.016c.195-.32.46-.567.797-.735.332-.164.726-.25 1.187-.25.32 0 .625.055.906.156.278.094.524.242.735.438.215.199.383.457.5.765.12.305.187.664.187 1.079zm0 0"/></symbol><symbol overflow="visible" id="S"><path d="M4.875-5.125c0-.75-.156-1.234-.516-1.531-.328-.282-.875-.407-1.515-.407-1.281 0-1.985.36-1.985 1.47h.438c0-.798.5-1.048 1.578-1.048.766 0 1.219.188 1.406.594.11.234.157.531.157.922 0 .516-.11.844-.344 1.094-.375.437-1.438.672-2.032.906C1.345-2.844.86-2.437.86-1.531V0h4v-.422H1.297v-.906c0-.75.125-1.063.875-1.39.547-.235 1.719-.485 2.219-.97.343-.343.484-.796.484-1.437zm0 0"/></symbol><symbol overflow="visible" id="T"><path d="M4.922-3.484c0-1.766-.047-2.235-.25-2.657-.313-.64-.89-.921-1.828-.921-.938 0-1.516.28-1.813.921-.203.422-.25.891-.25 2.657 0 1.53.031 2.03.172 2.421.25.782.875 1.141 1.89 1.141 1.032 0 1.657-.36 1.923-1.14.125-.391.156-.891.156-2.422zm-.438 0c0 1.53-.046 2.062-.203 2.421-.203.485-.61.72-1.437.72-.813 0-1.219-.235-1.438-.72-.14-.359-.187-.89-.187-2.421 0-1.344.047-1.938.14-2.266.188-.61.594-.89 1.485-.89.906 0 1.312.28 1.5.89.093.328.14.922.14 2.266zm0 0"/></symbol><symbol overflow="visible" id="V"><path d="M5.406-2.313v-.406H.313v.406zm0 0"/></symbol><symbol overflow="visible" id="W"><path d="M5.656-5.11C5.656-7 4.672-7 3.188-7H1v7h.438v-3.234h1.75c1.468 0 2.468-.032 2.468-1.875zm-.453-.015c0 1.547-.812 1.469-2.062 1.469H1.437v-2.922h1.704c1.234 0 2.062-.063 2.062 1.453zm0 0"/></symbol><symbol overflow="visible" id="X"><path d="M4.281-3.656c0-1.016-.562-1.438-1.5-1.438-.578 0-1.156.157-1.515.813v-.735H.859V0h.438v-2.172c0-1.125-.094-2.5 1.437-2.5.72 0 1.141.219 1.141 1.016zm0 0"/></symbol><symbol overflow="visible" id="Y"><path d="M4.719-2.469c0-1.656-.188-2.625-2.016-2.625C.891-5.094.672-4.14.672-2.5.672-.812.922.078 2.719.078c.984 0 1.922-.281 1.922-1.453h-.407c0 .875-.796 1.016-1.5 1.016-1.515 0-1.625-.72-1.625-2.11zm-.422-.406H1.109c0-1.219.329-1.797 1.594-1.797 1.266 0 1.594.547 1.594 1.797zm0 0"/></symbol><symbol overflow="visible" id="Z"><path d="M4.484-1.422c0-1.5-1.093-1.234-2.406-1.375-.719-.078-.969-.172-.953-.937 0-.688.422-.938 1.547-.938 1.078 0 1.39.313 1.39 1.016h.407c0-.453-.11-.797-.313-1.016-.281-.297-.765-.422-1.484-.422C1.312-5.109.687-4.75.687-3.656c0 1.484 1.016 1.234 2.36 1.36.812.077 1 .25 1 .905 0 .766-.453 1.047-1.563 1.047-1.125 0-1.468-.25-1.468-1.031H.609C.61-.281 1.156.063 2.484.078c1.344 0 2-.406 2-1.5zm0 0"/></symbol><symbol overflow="visible" id="aa"><path d="M4.672 0v-2.672c0-.953.031-1.547-.406-2-.266-.281-.704-.422-1.36-.422-.64 0-1.297.188-1.64.844v-.766H.859V0h.438v-2.219c0-1.156-.078-2.453 1.61-2.453.452 0 .796.094 1.015.313.328.312.312.78.312 1.765V0zm0 0"/></symbol><symbol overflow="visible" id="ab"><path d="M4.188-1.375H3.78c0 .75-.36 1.031-1.14 1.031-.75 0-1.11-.219-1.11-1.031v-3.234h2.25v-.407h-2.25V-7h-.437v1.984H.266v.407h.828v3.234c0 1.078.531 1.453 1.531 1.453.969 0 1.563-.39 1.563-1.453zm0 0"/></symbol><symbol overflow="visible" id="ac"><path d="M5.875-3.5c0-1.547-.094-2.125-.375-2.64C5.11-6.767 4.531-7 3.297-7H1v7h2.297C4.53 0 5.109-.219 5.5-.86c.281-.5.375-1.093.375-2.64zm-.438 0c0 1.516-.109 2.078-.359 2.469-.281.437-.719.61-1.844.61H1.438v-6.157h1.796c1.125 0 1.563.156 1.844.61.25.39.36.952.36 2.468zm0 0"/></symbol><symbol overflow="visible" id="ad"><path d="M1.406-6.734c0-.235-.11-.329-.328-.329-.219 0-.328.094-.328.329 0 .218.11.343.328.343.219 0 .328-.125.328-.343zM1.296 0v-5.016H.86V0zm0 0"/></symbol><symbol overflow="visible" id="ae"><path d="M4.656-1.375h-.422c0 .89-.78 1.016-1.484 1.016-1.563 0-1.64-.766-1.64-2.157 0-1.406.077-2.156 1.64-2.156.703 0 1.484.156 1.484 1.031h.422c0-1.171-.937-1.453-1.922-1.453C.922-5.094.672-4.187.672-2.5.672-.812.906.078 2.734.078c.985 0 1.922-.266 1.922-1.453zm0 0"/></symbol><symbol overflow="visible" id="af"><path d="M4.844-2.5c0-1.5-.14-2.594-2.094-2.594C.797-5.094.672-4 .672-2.5.672-1 .797.078 2.75.078 4.703.078 4.844-1 4.844-2.5zm-.438 0c0 1.406-.093 2.14-1.656 2.14-1.547 0-1.64-.734-1.64-2.14 0-1.406.093-2.172 1.64-2.172 1.563 0 1.656.766 1.656 2.172zm0 0"/></symbol><symbol overflow="visible" id="ag"><path d="M5.719-1.922c0-.734-.14-1.453-.922-1.672.687-.219.86-.953.86-1.61C5.656-7.062 4.53-7 3.202-7H1v7h2.266c1.453 0 2.453-.016 2.453-1.922zm-.5-3.328c0 1.5-.813 1.469-2.016 1.469H1.438v-2.797H3.14c1.187 0 2.078-.125 2.078 1.328zm.047 3.36c0 1.562-.797 1.468-2.079 1.468h-1.75V-3.39h1.75c1.344 0 2.079-.046 2.079 1.5zm0 0"/></symbol><symbol overflow="visible" id="ah"><path d="M4.594 0v-5.016h-.438v2.235c0 1.14.078 2.437-1.61 2.437-.452 0-.796-.094-1.015-.312-.328-.313-.328-.781-.328-1.766v-2.594H.766v2.672c0 .953-.016 1.547.421 2 .266.281.704.422 1.36.422.64 0 1.281-.187 1.64-.828V0zm0 0"/></symbol><symbol overflow="visible" id="ai"><path d="M4.75-.453v-4.563h-.422v.735c-.312-.547-.875-.813-1.719-.813C.766-5.094.672-3.969.672-2.562.672-1 .812.015 2.609.015 3.453.016 4-.266 4.313-.813 4.296-.234 4.39.391 4.14.923c-.25.531-.829.687-1.5.687-.938 0-1.438-.312-1.438-1.015H.781c.016 1.015.735 1.437 1.89 1.437.845 0 1.548-.234 1.86-.937.172-.375.219-.797.219-1.547zm-.422-2.094c0 1.64-.469 2.11-1.766 2.11-1.406 0-1.453-.891-1.453-2.11 0-1.203.047-2.125 1.454-2.125 1.312 0 1.765.516 1.765 2.125zm0 0"/></symbol><symbol overflow="visible" id="aj"><path d="M4.438-5.016h-.454l-1.64 4.5-1.672-4.5H.219L2.079 0h.5zm0 0"/></symbol><symbol overflow="visible" id="ak"><path d="M4.36-5.016h-.47L2.376-.578.797-5.016H.328l1.813 5L1.406 2h.438zm0 0"/></symbol><symbol overflow="visible" id="al"><path d="M4.625 0v-2.922c0-1.14.14-2.172-1.875-2.172-1.016 0-2.031.219-2.031 1.453h.406c0-.937.828-1.03 1.547-1.03 1.625 0 1.515.609 1.515 1.702H2.47c-1.156 0-1.875.235-1.875 1.547 0 1.063.562 1.5 1.812 1.5.906 0 1.547-.281 1.813-.86V0zm-.438-2.563c.032 1.391-.14 2.235-1.812 2.235-.984 0-1.344-.328-1.344-1.094 0-1 .532-1.14 1.39-1.14zm0 0"/></symbol><symbol overflow="visible" id="am"><path d="M5.719-1.781h-.422C5.297-.72 4.859-.36 3.344-.36c-2.11 0-2.063-1.079-2.063-3.125 0-2.079-.047-3.157 2.063-3.157 1.515 0 1.953.36 1.953 1.438h.422c0-1.375-.657-1.86-2.297-1.86C.828-7.063.828-5.734.828-3.483c0 2.234 0 3.562 2.594 3.562 1.64 0 2.297-.5 2.297-1.86zm0 0"/></symbol><symbol overflow="visible" id="an"><path d="M5.578 0l-3.75-3.516L5.562-7h-.625l-3.5 3.313V-7H1v7h.438v-3.297L4.905 0zm0 0"/></symbol><symbol overflow="visible" id="ao"><path d="M5.656 0v-1.61c0-.671.11-1.687-.875-1.937.703-.203.875-.86.875-1.562C5.656-7.063 4.61-7 3.188-7H1v7h.438v-3.328H3.14c1.921 0 2.078.125 2.078 1.75V0zM5.22-5.14c0 1.5-.813 1.39-2.016 1.39H1.438v-2.828H3.14c1.218 0 2.078-.078 2.078 1.437zm0 0"/></symbol><symbol overflow="visible" id="ap"><path d="M4.672 0v-2.672c0-.953.031-1.531-.406-2-.266-.281-.72-.422-1.36-.422-.64 0-1.265.172-1.61.813v-3.032H.86V0h.438v-2.219c0-1.156-.078-2.453 1.61-2.453.452 0 .796.094 1.015.313.328.312.312.78.312 1.765V0zm0 0"/></symbol><symbol overflow="visible" id="aq"><path d="M1.438 0v-7H1v7zm0 0"/></symbol><symbol overflow="visible" id="ar"><path d="M1.281.156v-.781H.86v.781c0 .438-.015.656-.343.969l-.188.203.266.281.265-.234c.36-.328.422-.625.422-1.219zm0 0"/></symbol><symbol overflow="visible" id="as"><path d="M7.438 0v-3.031c0-.781.125-2.063-1.594-2.063-.61 0-1.282.219-1.594.907-.203-.704-.813-.907-1.469-.907-.61 0-1.219.203-1.515.797v-.719H.859V0h.438v-2.203c0-1.125-.094-2.469 1.437-2.469 1.125 0 1.188.61 1.188 1.625V0h.437v-2.203c0-1.188-.046-2.453 1.454-2.453 1.14 0 1.187.593 1.187 1.61V0zm0 0"/></symbol><symbol overflow="visible" id="at"><path d="M1.297 0v-7.313H.859V0zm0 0"/></symbol><symbol overflow="visible" id="au"><path d="M4.938-2.5c0-1.563-.172-2.594-1.954-2.594-.843 0-1.406.297-1.718.844v-.766H.859V2h.438V-.734c.312.546.844.812 1.687.812C4.781.078 4.938-.953 4.938-2.5zM4.5-2.516c0 1.204-.047 2.157-1.453 2.157-1.313 0-1.766-.5-1.766-2.157 0-1.64.453-2.14 1.766-2.14 1.406 0 1.453.937 1.453 2.14zm0 0"/></symbol><symbol overflow="visible" id="av"><path d="M1.406-.281c0-.25-.11-.36-.343-.36-.235 0-.344.11-.344.36 0 .234.11.36.344.36.234 0 .343-.126.343-.36zm0 0"/></symbol><symbol overflow="visible" id="aw"><path d="M4.328 0v-.422h-1.64V-7h-.422L.562-5.437l.282.296L2.25-6.437v6.015H.594V0zm0 0"/></symbol><symbol overflow="visible" id="ax"><path d="M4.938-1.89c0-1.063-.313-1.563-1.047-1.75.828-.235.984-.813.984-1.641 0-1.313-.563-1.782-2.016-1.782S.844-6.593.844-5.28c0 .875.14 1.406.984 1.64-.719.188-1.047.688-1.047 1.75 0 1.5.672 1.97 2.078 1.97 1.407 0 2.079-.47 2.079-1.97zm-.5-3.36c0 1.188-.485 1.406-1.579 1.406-1.093 0-1.578-.234-1.578-1.437 0-1.047.344-1.36 1.578-1.36 1.22 0 1.579.313 1.579 1.391zM4.5-1.86c0 1.266-.484 1.5-1.64 1.5-1.188 0-1.641-.234-1.641-1.515 0-1.313.453-1.547 1.64-1.547 1.157 0 1.641.281 1.641 1.563zm0 0"/></symbol><symbol overflow="visible" id="ay"><path d="M3.922-2.313v-.406H.953v.406zm0 0"/></symbol><symbol overflow="visible" id="az"><path d="M4.875-3.797c0-1-.063-1.719-.203-2.125-.266-.75-.953-1.14-1.89-1.14-1.407 0-2.016.671-2.016 2.203 0 1.625.53 2.25 1.968 2.25.86 0 1.407-.36 1.704-.907 0 .625 0 1.688-.172 2.282-.172.609-.61.89-1.532.89-.968 0-1.437-.344-1.437-1.062H.859C.86-.36 1.563.078 2.75.078c1.172 0 1.844-.422 2-1.406.094-.5.125-1.36.125-2.469zm-.484-1.015c0 1.203-.563 1.765-1.704 1.765-1.109 0-1.5-.437-1.5-1.812 0-1.313.454-1.782 1.594-1.782 1.11 0 1.61.532 1.61 1.829zm0 0"/></symbol><symbol overflow="visible" id="aA"><path d="M5.14-6.578V-7H.314v.422H2.5V0h.453v-6.578zm0 0"/></symbol><symbol overflow="visible" id="aB"><path d="M5.719-2.016c0-1.765-1.125-1.765-2.485-1.78-1.093-.017-2.046.093-2.046-1.329 0-1.406.812-1.516 2-1.516 1.078 0 2.046.063 2.046 1.438h.422c0-1.64-1.093-1.86-2.453-1.86C1.75-7.063.75-6.827.75-5.109c0 1.765 1.125 1.718 2.469 1.75 1.203.015 2.047-.079 2.047 1.375C5.266-.578 4.453-.36 3.25-.36c-1.11 0-2.063-.063-2.063-1.422H.75c0 1.64 1.11 1.86 2.469 1.86 1.484 0 2.5-.392 2.5-2.095zm0 0"/></symbol><symbol overflow="visible" id="aC"><path d="M4.86-7.922h-.423L.157.875h.437zm0 0"/></symbol><symbol overflow="visible" id="aD"><path d="M1.406-6.734c0-.235-.11-.329-.328-.329-.219 0-.328.094-.328.329 0 .218.11.343.328.343.219 0 .328-.125.328-.343zM1.296.53v-5.547H.86V.422c0 .328-.03.64-.234.844-.188.203-.5.359-.984.359-.735 0-1.141-.297-1.141-.875h-.422c0 .906.625 1.281 1.563 1.281.984 0 1.656-.422 1.656-1.5zm0 0"/></symbol><symbol overflow="visible" id="aE"><path d="M5.031 0v-.422H1.438V-7H1v7zm0 0"/></symbol><symbol overflow="visible" id="aF"><path d="M4.766 0v-7.313h-.438v3.032c-.328-.547-.844-.813-1.703-.813C.828-5.094.672-4.016.672-2.5.672-.937.828.078 2.625.078c.844 0 1.406-.281 1.719-.828V0zm-.438-2.5c0 1.656-.437 2.14-1.75 2.14C1.156-.36 1.11-1.28 1.11-2.5c0-1.25.079-2.156 1.47-2.156 1.312 0 1.75.5 1.75 2.156zm0 0"/></symbol><symbol overflow="visible" id="aG"><path d="M5.828 0v-3.813H3.234v.422h2.172c0 .641.063 1.75-.312 2.329-.313.453-.907.703-1.766.703-2.156 0-2.047-1.079-2.047-3.125 0-2.079-.078-3.157 2.078-3.157 1.5 0 2.032.36 2.047 1.438h.422c0-1.375-.766-1.86-2.375-1.86C.828-7.063.828-5.766.828-3.483.828-1.344.781.078 3.313.078c.984 0 1.734-.312 2.109-1.031V0zm0 0"/></symbol><symbol overflow="visible" id="aH"><path d="M6.75-5.016h-.438L5.063-.578l-1.28-4.438h-.5L2-.578.75-5.016H.297L1.734 0h.516l1.281-4.453L4.797 0h.516zm0 0"/></symbol><symbol overflow="visible" id="aI"><path d="M5.734-3.484v-.422H5.11v-.735h-.406v.735H2.781c-1.031 0-1.562-.188-1.562-1.344 0-1.078.343-1.39 1.562-1.39 1.078 0 1.516.265 1.547 1.109h.422c-.031-1.157-.672-1.532-1.984-1.532-1.438 0-1.97.47-1.97 1.782 0 .843.157 1.343.97 1.578-.72.187-1.032.734-1.032 1.797 0 1.61.704 1.984 2.188 1.984.828 0 1.406-.156 1.734-.515.407-.407.469-.985.469-1.86v-1.187zm-1.03 1.187c0 .781-.048 1.266-.345 1.563-.234.234-.671.375-1.437.375-1.203 0-1.766-.188-1.766-1.516 0-1.313.407-1.61 1.625-1.61h1.922zm0 0"/></symbol><symbol overflow="visible" id="aJ"><path d="M5.078 0v-.422H1.453V-3.39H4.97v-.421H1.453v-2.766h3.625V-7H1v7zm0 0"/></symbol><symbol overflow="visible" id="aK"><path d="M5.922-3.5c0-2.125.078-3.563-2.547-3.563S.828-5.625.828-3.5.75.078 3.375.078 5.922-1.375 5.922-3.5zm-.453.016c0 2.03.078 3.125-2.094 3.125-2.172 0-2.094-1.094-2.094-3.125 0-2.047-.078-3.157 2.094-3.157 2.172 0 2.094 1.11 2.094 3.157zm0 0"/></symbol><symbol overflow="visible" id="aL"><path d="M4.906-2.14c0-1.61-.547-2.235-1.984-2.235-.86 0-1.39.344-1.688.906 0-.64-.015-1.703.157-2.281.187-.625.609-.89 1.53-.89.97 0 1.454.327 1.454 1.046h.422c0-1.047-.703-1.468-1.875-1.468-1.188 0-1.844.421-2 1.39-.094.516-.14 1.36-.14 2.469 0 1 .077 1.719.218 2.14.266.735.938 1.141 1.89 1.141 1.407 0 2.016-.687 2.016-2.219zm-.437.015c0 1.297-.438 1.766-1.594 1.766-1.11 0-1.61-.532-1.61-1.829 0-1.187.563-1.765 1.72-1.765 1.109 0 1.484.437 1.484 1.828zm0 0"/></symbol><symbol overflow="visible" id="aM"><path d="M4.828-1.906c0-.953-.234-1.532-1-1.735.766-.234.938-.875.938-1.64 0-1.313-.563-1.782-2.016-1.782-1.313 0-2.016.36-2.016 1.47h.422c0-.782.5-1.048 1.594-1.048 1.219 0 1.578.313 1.578 1.391 0 1.188-.516 1.406-1.578 1.406h-.953v.422h.953c.625 0 .969.063 1.234.266.282.219.407.594.407 1.281 0 1.25-.516 1.531-1.672 1.531-1.078 0-1.563-.281-1.563-1.078H.734c0 1.172.797 1.5 1.985 1.5 1.406 0 2.11-.469 2.11-1.984zm0 0"/></symbol><symbol overflow="visible" id="aN"><path d="M5.031-6.578V-7H1v7h.438v-3.39h3.5v-.422h-3.5v-2.766zm0 0"/></symbol><symbol overflow="visible" id="aO"><path d="M4.297-6.219c0-.875-.75-1.156-1.61-1.156-.546 0-.984.094-1.28.39-.25.25-.345.579-.345 1.048v.921H.25v.407h.813V0H1.5v-4.61h2.188v-.406H1.5v-.921c0-.844.469-1.016 1.203-1.016.516 0 1.188.094 1.188.734zm0 0"/></symbol><symbol overflow="visible" id="aP"><path d="M5.64 0v-7h-.437v3.188H1.437V-7H1v7h.438v-3.39h3.765V0zm0 0"/></symbol><symbol overflow="visible" id="aQ"><path d="M7.328 0v-7h-.61L4.173-.5 1.594-7H1v7h.422v-6.344L3.922 0h.469l2.5-6.344V0zm0 0"/></symbol><symbol overflow="visible" id="aR"><path d="M5.672-3.516V-7h-.453v3.484c0 1.36.015 1.985-.219 2.422-.25.453-.766.735-1.703.735-.938 0-1.469-.282-1.719-.735-.234-.422-.187-1.062-.187-2.422V-7H.937v3.484c0 .579-.046 1.875.157 2.422C1.39-.297 2.14.078 3.297.078c1.062 0 1.687-.312 2.047-.906.375-.594.328-1.672.328-2.688zm0 0"/></symbol><symbol overflow="visible" id="aS"><path d="M4.36 0L2.577-2.547l1.75-2.469h-.516L2.329-2.89.86-5.016H.33L2.062-2.53.296 0h.516l1.5-2.188L3.827 0zm0 0"/></symbol><symbol overflow="visible" id="aT"><path d="M4.906-2.125c0-1.453-.422-2.25-1.953-2.25-.719 0-1.281.172-1.547.531v-2.734h3.282V-7H.983v3.969h.407c.03-.625.546-.922 1.546-.922 1.329 0 1.532.64 1.532 1.86 0 1.327-.407 1.734-1.657 1.734-1.078 0-1.515-.266-1.515-1.063H.875c0 1.125.672 1.5 1.938 1.5 1.546 0 2.093-.64 2.093-2.203zm0 0"/></symbol><symbol overflow="visible" id="aU"><path d="M5.906 0L3.313-7h-.47L.267 0h.453L1.5-2.14h3.14L5.439 0zM4.484-2.531H1.656l1.422-3.922zm0 0"/></symbol></defs><g fill="#4f4c4d"><use xlink:href="#a" x="336.467" y="47.727"/><use xlink:href="#b" x="344.467" y="47.727"/><use xlink:href="#c" x="352.468" y="47.727"/><use xlink:href="#d" x="360.468" y="47.727"/><use xlink:href="#e" x="368.468" y="47.727"/><use xlink:href="#f" x="371.075" y="47.727"/><use xlink:href="#g" x="379.075" y="47.727"/><use xlink:href="#h" x="387.076" y="47.727"/><use xlink:href="#i" x="395.076" y="47.727"/><use xlink:href="#j" x="403.076" y="47.727"/><use xlink:href="#k" x="411.076" y="47.727"/><use xlink:href="#a" x="419.077" y="47.727"/><use xlink:href="#b" x="427.077" y="47.727"/></g><use xlink:href="#l" x="435.076" y="47.727" fill="#231f20"/><g fill="#231f20"><use xlink:href="#m" x="437.683" y="47.727"/><use xlink:href="#n" x="445.683" y="47.727"/><use xlink:href="#o" x="453.684" y="47.727"/><use xlink:href="#p" x="461.684" y="47.727"/><use xlink:href="#q" x="469.684" y="47.727"/><use xlink:href="#r" x="477.684" y="47.727"/><use xlink:href="#s" x="485.685" y="47.727"/><use xlink:href="#t" x="493.685" y="47.727"/><use xlink:href="#u" x="496.292" y="47.727"/><use xlink:href="#v" x="501.703" y="47.727"/><use xlink:href="#w" x="506.503" y="47.727"/><use xlink:href="#x" x="508.436" y="47.727"/><use xlink:href="#t" x="511.043" y="47.727"/><use xlink:href="#y" x="513.65" y="47.727"/><use xlink:href="#z" x="517.605" y="47.727"/></g><g fill="#393536"><use xlink:href="#A" x="540.818" y="48.426"/><use xlink:href="#B" x="546.392" y="48.426"/></g><g fill="#33459a"><use xlink:href="#C" x="223.637" y="250.25"/><use xlink:href="#D" x="237.152" y="250.25"/><use xlink:href="#E" x="242.093" y="250.25"/><use xlink:href="#D" x="255.608" y="250.25"/><use xlink:href="#F" x="260.549" y="250.25"/></g><use xlink:href="#G" x="274.063" y="250.25" fill="#33459a"/><g fill="#33459a"><use xlink:href="#H" x="279.004" y="249.351"/><use xlink:href="#I" x="289.816" y="249.351"/></g><g fill="#231f20"><use xlink:href="#J" x="223.637" y="270.763"/><use xlink:href="#K" x="231.484" y="270.763"/><use xlink:href="#L" x="239.332" y="270.763"/></g><g fill="#fff"><use xlink:href="#M" x="136.011" y="323.673"/><use xlink:href="#N" x="143.241" y="323.673"/><use xlink:href="#O" x="150.119" y="323.673"/><use xlink:href="#P" x="155.908" y="323.673"/><use xlink:href="#Q" x="158.803" y="323.673"/><use xlink:href="#P" x="163.271" y="323.673"/><use xlink:href="#N" x="166.166" y="323.673"/><use xlink:href="#R" x="173.044" y="323.673"/></g><path d="M93.402 687.816h96.97M190.371 687.816h327.711" fill="none" stroke-width=".299637" stroke="#33459a" stroke-miterlimit="10"/><g fill="#33459a"><use xlink:href="#S" x="94.817" y="350.942"/><use xlink:href="#T" x="100.31" y="350.942"/><use xlink:href="#S" x="105.915" y="350.942"/><use xlink:href="#T" x="111.409" y="350.942"/><use xlink:href="#U" x="117.014" y="350.942"/><use xlink:href="#V" x="119.659" y="350.942"/><use xlink:href="#U" x="125.274" y="350.942"/><use xlink:href="#W" x="127.919" y="350.942"/><use xlink:href="#X" x="133.941" y="350.942"/><use xlink:href="#Y" x="138.244" y="350.942"/><use xlink:href="#Z" x="143.534" y="350.942"/><use xlink:href="#Y" x="148.528" y="350.942"/><use xlink:href="#aa" x="153.818" y="350.942"/><use xlink:href="#ab" x="159.169" y="350.942"/><use xlink:href="#U" x="163.513" y="350.942"/></g><g fill="#231f20"><use xlink:href="#ac" x="191.786" y="350.942"/><use xlink:href="#ad" x="198.398" y="350.942"/><use xlink:href="#X" x="200.443" y="350.942"/><use xlink:href="#Y" x="204.746" y="350.942"/><use xlink:href="#ae" x="210.035" y="350.942"/><use xlink:href="#ab" x="215.173" y="350.942"/><use xlink:href="#af" x="219.516" y="350.942"/><use xlink:href="#X" x="224.928" y="350.942"/></g><g fill="#231f20"><use xlink:href="#ag" x="191.786" y="364.925"/><use xlink:href="#ad" x="198.255" y="364.925"/><use xlink:href="#af" x="200.3" y="364.925"/><use xlink:href="#U" x="205.712" y="364.925"/><use xlink:href="#ac" x="208.357" y="364.925"/><use xlink:href="#X" x="214.969" y="364.925"/><use xlink:href="#ah" x="219.272" y="364.925"/><use xlink:href="#ai" x="224.623" y="364.925"/><use xlink:href="#U" x="230.126" y="364.925"/><use xlink:href="#ac" x="232.771" y="364.925"/><use xlink:href="#ad" x="239.383" y="364.925"/><use xlink:href="#Z" x="241.428" y="364.925"/><use xlink:href="#ae" x="246.423" y="364.925"/><use xlink:href="#af" x="251.56" y="364.925"/><use xlink:href="#aj" x="256.972" y="364.925"/><use xlink:href="#Y" x="261.519" y="364.925"/><use xlink:href="#X" x="266.809" y="364.925"/><use xlink:href="#ak" x="271.112" y="364.925"/><use xlink:href="#U" x="275.639" y="364.925"/><use xlink:href="#al" x="278.283" y="364.925"/><use xlink:href="#ab" x="283.583" y="364.925"/><use xlink:href="#U" x="287.927" y="364.925"/><use xlink:href="#am" x="290.572" y="364.925"/><use xlink:href="#an" x="296.93" y="364.925"/><use xlink:href="#ac" x="302.647" y="364.925"/><use xlink:href="#U" x="309.259" y="364.925"/><use xlink:href="#ao" x="311.904" y="364.925"/><use xlink:href="#Y" x="318.353" y="364.925"/><use xlink:href="#Z" x="323.643" y="364.925"/><use xlink:href="#Y" x="328.638" y="364.925"/><use xlink:href="#al" x="333.928" y="364.925"/><use xlink:href="#X" x="339.228" y="364.925"/><use xlink:href="#ae" x="343.531" y="364.925"/><use xlink:href="#ap" x="348.668" y="364.925"/><use xlink:href="#U" x="354.019" y="364.925"/><use xlink:href="#aq" x="356.664" y="364.925"/><use xlink:href="#aa" x="359.003" y="364.925"/><use xlink:href="#Z" x="364.354" y="364.925"/><use xlink:href="#ab" x="369.349" y="364.925"/><use xlink:href="#ad" x="373.693" y="364.925"/><use xlink:href="#ab" x="375.737" y="364.925"/><use xlink:href="#ah" x="380.081" y="364.925"/><use xlink:href="#ab" x="385.432" y="364.925"/><use xlink:href="#Y" x="389.775" y="364.925"/><use xlink:href="#ar" x="395.065" y="364.925"/><use xlink:href="#U" x="397.079" y="364.925"/><use xlink:href="#am" x="399.724" y="364.925"/><use xlink:href="#ap" x="406.082" y="364.925"/><use xlink:href="#af" x="411.433" y="364.925"/><use xlink:href="#aa" x="416.845" y="364.925"/><use xlink:href="#ai" x="422.196" y="364.925"/><use xlink:href="#U" x="427.699" y="364.925"/><use xlink:href="#an" x="430.344" y="364.925"/><use xlink:href="#ah" x="436.061" y="364.925"/><use xlink:href="#aa" x="441.412" y="364.925"/><use xlink:href="#U" x="446.763" y="364.925"/><use xlink:href="#ac" x="449.407" y="364.925"/><use xlink:href="#al" x="456.02" y="364.925"/><use xlink:href="#aa" x="461.32" y="364.925"/><use xlink:href="#al" x="466.67" y="364.925"/><use xlink:href="#U" x="471.97" y="364.925"/></g><g fill="#231f20"><use xlink:href="#W" x="191.786" y="378.908"/><use xlink:href="#ap" x="197.808" y="378.908"/><use xlink:href="#al" x="203.159" y="378.908"/><use xlink:href="#X" x="208.459" y="378.908"/><use xlink:href="#as" x="212.762" y="378.908"/><use xlink:href="#al" x="220.869" y="378.908"/><use xlink:href="#ae" x="226.169" y="378.908"/><use xlink:href="#Y" x="231.306" y="378.908"/><use xlink:href="#ah" x="236.596" y="378.908"/><use xlink:href="#ab" x="241.947" y="378.908"/><use xlink:href="#ad" x="246.291" y="378.908"/><use xlink:href="#ae" x="248.335" y="378.908"/><use xlink:href="#al" x="253.472" y="378.908"/><use xlink:href="#at" x="258.772" y="378.908"/><use xlink:href="#U" x="260.817" y="378.908"/><use xlink:href="#am" x="263.462" y="378.908"/><use xlink:href="#af" x="269.82" y="378.908"/><use xlink:href="#X" x="275.232" y="378.908"/><use xlink:href="#au" x="279.535" y="378.908"/><use xlink:href="#av" x="285.048" y="378.908"/></g><g fill="#33459a"><use xlink:href="#S" x="94.817" y="400.72"/><use xlink:href="#T" x="100.31" y="400.72"/><use xlink:href="#aw" x="105.915" y="400.72"/><use xlink:href="#ax" x="110.371" y="400.72"/><use xlink:href="#U" x="115.986" y="400.72"/><use xlink:href="#ay" x="118.631" y="400.72"/><use xlink:href="#U" x="123.412" y="400.72"/><use xlink:href="#S" x="126.057" y="400.72"/><use xlink:href="#T" x="131.55" y="400.72"/><use xlink:href="#aw" x="137.155" y="400.72"/><use xlink:href="#az" x="141.611" y="400.72"/></g><use xlink:href="#U" x="94.817" y="415.701" fill="#33459a"/><g fill="#231f20"><use xlink:href="#ac" x="191.786" y="400.72"/><use xlink:href="#ad" x="198.398" y="400.72"/><use xlink:href="#X" x="200.443" y="400.72"/><use xlink:href="#Y" x="204.746" y="400.72"/><use xlink:href="#ae" x="210.035" y="400.72"/><use xlink:href="#ab" x="215.173" y="400.72"/><use xlink:href="#af" x="219.516" y="400.72"/><use xlink:href="#X" x="224.928" y="400.72"/></g><g fill="#231f20"><use xlink:href="#aA" x="191.786" y="414.703"/><use xlink:href="#X" x="197.136" y="414.703"/><use xlink:href="#al" x="201.439" y="414.703"/><use xlink:href="#aa" x="206.739" y="414.703"/><use xlink:href="#Z" x="212.09" y="414.703"/><use xlink:href="#at" x="217.085" y="414.703"/><use xlink:href="#al" x="219.13" y="414.703"/><use xlink:href="#ab" x="224.43" y="414.703"/><use xlink:href="#ad" x="228.773" y="414.703"/><use xlink:href="#af" x="230.818" y="414.703"/><use xlink:href="#aa" x="236.23" y="414.703"/><use xlink:href="#al" x="241.581" y="414.703"/><use xlink:href="#at" x="246.881" y="414.703"/><use xlink:href="#U" x="248.925" y="414.703"/><use xlink:href="#ao" x="251.57" y="414.703"/><use xlink:href="#Y" x="258.02" y="414.703"/><use xlink:href="#Z" x="263.309" y="414.703"/><use xlink:href="#Y" x="268.304" y="414.703"/><use xlink:href="#al" x="273.594" y="414.703"/><use xlink:href="#X" x="278.894" y="414.703"/><use xlink:href="#ae" x="283.197" y="414.703"/><use xlink:href="#ap" x="288.334" y="414.703"/><use xlink:href="#U" x="293.685" y="414.703"/><use xlink:href="#al" x="296.33" y="414.703"/><use xlink:href="#ab" x="301.63" y="414.703"/><use xlink:href="#U" x="305.973" y="414.703"/><use xlink:href="#am" x="308.618" y="414.703"/><use xlink:href="#an" x="314.976" y="414.703"/><use xlink:href="#ac" x="320.693" y="414.703"/><use xlink:href="#U" x="327.305" y="414.703"/><use xlink:href="#ao" x="329.95" y="414.703"/><use xlink:href="#Y" x="336.4" y="414.703"/><use xlink:href="#Z" x="341.689" y="414.703"/><use xlink:href="#Y" x="346.684" y="414.703"/><use xlink:href="#al" x="351.974" y="414.703"/><use xlink:href="#X" x="357.274" y="414.703"/><use xlink:href="#ae" x="361.577" y="414.703"/><use xlink:href="#ap" x="366.714" y="414.703"/><use xlink:href="#U" x="372.065" y="414.703"/><use xlink:href="#aq" x="374.71" y="414.703"/><use xlink:href="#aa" x="377.05" y="414.703"/><use xlink:href="#Z" x="382.4" y="414.703"/><use xlink:href="#ab" x="387.395" y="414.703"/><use xlink:href="#ad" x="391.739" y="414.703"/><use xlink:href="#ab" x="393.784" y="414.703"/><use xlink:href="#ah" x="398.127" y="414.703"/><use xlink:href="#ab" x="403.478" y="414.703"/><use xlink:href="#Y" x="407.822" y="414.703"/><use xlink:href="#ar" x="413.112" y="414.703"/><use xlink:href="#U" x="415.126" y="414.703"/><use xlink:href="#am" x="417.771" y="414.703"/><use xlink:href="#ap" x="424.128" y="414.703"/><use xlink:href="#af" x="429.479" y="414.703"/><use xlink:href="#aa" x="434.891" y="414.703"/><use xlink:href="#ai" x="440.242" y="414.703"/><use xlink:href="#U" x="445.745" y="414.703"/><use xlink:href="#an" x="448.39" y="414.703"/><use xlink:href="#ah" x="454.107" y="414.703"/><use xlink:href="#aa" x="459.458" y="414.703"/><use xlink:href="#U" x="464.809" y="414.703"/><use xlink:href="#ac" x="467.454" y="414.703"/><use xlink:href="#al" x="474.066" y="414.703"/><use xlink:href="#aa" x="479.366" y="414.703"/><use xlink:href="#ai" x="484.717" y="414.703"/><use xlink:href="#U" x="490.22" y="414.703"/></g><g fill="#231f20"><use xlink:href="#W" x="191.786" y="428.686"/><use xlink:href="#ap" x="197.808" y="428.686"/><use xlink:href="#al" x="203.159" y="428.686"/><use xlink:href="#X" x="208.459" y="428.686"/><use xlink:href="#as" x="212.762" y="428.686"/><use xlink:href="#al" x="220.869" y="428.686"/><use xlink:href="#ae" x="226.169" y="428.686"/><use xlink:href="#Y" x="231.306" y="428.686"/><use xlink:href="#ah" x="236.596" y="428.686"/><use xlink:href="#ab" x="241.947" y="428.686"/><use xlink:href="#ad" x="246.291" y="428.686"/><use xlink:href="#ae" x="248.335" y="428.686"/><use xlink:href="#al" x="253.472" y="428.686"/><use xlink:href="#at" x="258.772" y="428.686"/><use xlink:href="#U" x="260.817" y="428.686"/><use xlink:href="#am" x="263.462" y="428.686"/><use xlink:href="#af" x="269.82" y="428.686"/><use xlink:href="#X" x="275.232" y="428.686"/><use xlink:href="#au" x="279.535" y="428.686"/><use xlink:href="#av" x="285.048" y="428.686"/><use xlink:href="#U" x="287.062" y="428.686"/></g><g fill="#33459a"><use xlink:href="#S" x="94.817" y="450.498"/><use xlink:href="#T" x="100.31" y="450.498"/><use xlink:href="#aw" x="105.915" y="450.498"/><use xlink:href="#T" x="110.371" y="450.498"/><use xlink:href="#U" x="115.976" y="450.498"/><use xlink:href="#ay" x="118.621" y="450.498"/><use xlink:href="#U" x="123.402" y="450.498"/><use xlink:href="#S" x="126.047" y="450.498"/><use xlink:href="#T" x="131.54" y="450.498"/><use xlink:href="#aw" x="137.145" y="450.498"/><use xlink:href="#ax" x="141.601" y="450.498"/></g><g fill="#231f20"><use xlink:href="#aB" x="191.786" y="450.498"/><use xlink:href="#X" x="198.154" y="450.498"/><use xlink:href="#av" x="202.457" y="450.498"/><use xlink:href="#U" x="204.471" y="450.498"/><use xlink:href="#ao" x="207.116" y="450.498"/><use xlink:href="#Y" x="213.565" y="450.498"/><use xlink:href="#Z" x="218.855" y="450.498"/><use xlink:href="#Y" x="223.85" y="450.498"/><use xlink:href="#al" x="229.14" y="450.498"/><use xlink:href="#X" x="234.439" y="450.498"/><use xlink:href="#ae" x="238.742" y="450.498"/><use xlink:href="#ap" x="243.88" y="450.498"/><use xlink:href="#U" x="249.23" y="450.498"/><use xlink:href="#aB" x="251.875" y="450.498"/><use xlink:href="#ae" x="258.243" y="450.498"/><use xlink:href="#ad" x="263.381" y="450.498"/><use xlink:href="#Y" x="265.425" y="450.498"/><use xlink:href="#aa" x="270.715" y="450.498"/><use xlink:href="#ab" x="276.066" y="450.498"/><use xlink:href="#ad" x="280.41" y="450.498"/><use xlink:href="#Z" x="282.454" y="450.498"/><use xlink:href="#ab" x="287.449" y="450.498"/><use xlink:href="#aC" x="291.793" y="450.498"/><use xlink:href="#U" x="296.716" y="450.498"/><use xlink:href="#W" x="299.361" y="450.498"/><use xlink:href="#X" x="305.383" y="450.498"/><use xlink:href="#af" x="309.686" y="450.498"/><use xlink:href="#aD" x="315.098" y="450.498"/><use xlink:href="#Y" x="317.143" y="450.498"/><use xlink:href="#ae" x="322.433" y="450.498"/><use xlink:href="#ab" x="327.57" y="450.498"/><use xlink:href="#U" x="331.914" y="450.498"/><use xlink:href="#aE" x="334.558" y="450.498"/><use xlink:href="#Y" x="339.635" y="450.498"/><use xlink:href="#al" x="344.924" y="450.498"/><use xlink:href="#aF" x="350.224" y="450.498"/><use xlink:href="#Y" x="355.738" y="450.498"/><use xlink:href="#X" x="361.028" y="450.498"/></g><g fill="#231f20"><use xlink:href="#am" x="191.786" y="464.481"/><use xlink:href="#al" x="198.144" y="464.481"/><use xlink:href="#aa" x="203.443" y="464.481"/><use xlink:href="#ae" x="208.794" y="464.481"/><use xlink:href="#Y" x="213.931" y="464.481"/><use xlink:href="#X" x="219.221" y="464.481"/><use xlink:href="#U" x="223.524" y="464.481"/><use xlink:href="#am" x="226.169" y="464.481"/><use xlink:href="#Y" x="232.527" y="464.481"/><use xlink:href="#at" x="237.817" y="464.481"/><use xlink:href="#at" x="239.861" y="464.481"/><use xlink:href="#U" x="241.906" y="464.481"/><use xlink:href="#aG" x="244.551" y="464.481"/><use xlink:href="#X" x="251.153" y="464.481"/><use xlink:href="#af" x="255.456" y="464.481"/><use xlink:href="#aH" x="260.868" y="464.481"/><use xlink:href="#ab" x="267.816" y="464.481"/><use xlink:href="#ap" x="272.16" y="464.481"/><use xlink:href="#U" x="277.51" y="464.481"/><use xlink:href="#aI" x="280.155" y="464.481"/><use xlink:href="#U" x="286.167" y="464.481"/><use xlink:href="#aJ" x="288.812" y="464.481"/><use xlink:href="#au" x="294.641" y="464.481"/><use xlink:href="#ad" x="300.155" y="464.481"/><use xlink:href="#ai" x="302.199" y="464.481"/><use xlink:href="#Y" x="307.703" y="464.481"/><use xlink:href="#aa" x="312.993" y="464.481"/><use xlink:href="#Y" x="318.343" y="464.481"/><use xlink:href="#ab" x="323.633" y="464.481"/><use xlink:href="#ad" x="327.977" y="464.481"/><use xlink:href="#ae" x="330.021" y="464.481"/><use xlink:href="#Z" x="335.159" y="464.481"/><use xlink:href="#ar" x="340.153" y="464.481"/><use xlink:href="#U" x="342.168" y="464.481"/><use xlink:href="#aK" x="344.812" y="464.481"/><use xlink:href="#aa" x="351.476" y="464.481"/><use xlink:href="#ae" x="356.826" y="464.481"/><use xlink:href="#af" x="361.964" y="464.481"/><use xlink:href="#at" x="367.375" y="464.481"/><use xlink:href="#af" x="369.42" y="464.481"/><use xlink:href="#ai" x="374.832" y="464.481"/><use xlink:href="#ak" x="380.335" y="464.481"/><use xlink:href="#ar" x="384.862" y="464.481"/><use xlink:href="#U" x="386.876" y="464.481"/><use xlink:href="#aJ" x="389.521" y="464.481"/><use xlink:href="#at" x="395.35" y="464.481"/><use xlink:href="#ad" x="397.395" y="464.481"/><use xlink:href="#U" x="399.439" y="464.481"/><use xlink:href="#aE" x="402.084" y="464.481"/><use xlink:href="#ad" x="407.161" y="464.481"/><use xlink:href="#at" x="409.205" y="464.481"/><use xlink:href="#at" x="411.25" y="464.481"/><use xlink:href="#ak" x="413.295" y="464.481"/><use xlink:href="#U" x="417.821" y="464.481"/><use xlink:href="#al" x="420.466" y="464.481"/><use xlink:href="#aa" x="425.766" y="464.481"/><use xlink:href="#aF" x="431.117" y="464.481"/><use xlink:href="#U" x="436.631" y="464.481"/><use xlink:href="#am" x="439.275" y="464.481"/><use xlink:href="#af" x="445.633" y="464.481"/><use xlink:href="#as" x="451.045" y="464.481"/><use xlink:href="#au" x="459.153" y="464.481"/><use xlink:href="#al" x="464.666" y="464.481"/><use xlink:href="#aa" x="469.966" y="464.481"/><use xlink:href="#ak" x="475.317" y="464.481"/><use xlink:href="#ar" x="479.844" y="464.481"/><use xlink:href="#U" x="481.858" y="464.481"/></g><g fill="#231f20"><use xlink:href="#aq" x="191.786" y="478.464"/><use xlink:href="#aa" x="194.125" y="478.464"/><use xlink:href="#aF" x="199.476" y="478.464"/><use xlink:href="#ad" x="204.99" y="478.464"/><use xlink:href="#al" x="207.034" y="478.464"/><use xlink:href="#aa" x="212.334" y="478.464"/><use xlink:href="#al" x="217.685" y="478.464"/><use xlink:href="#au" x="222.985" y="478.464"/><use xlink:href="#af" x="228.499" y="478.464"/><use xlink:href="#at" x="233.91" y="478.464"/><use xlink:href="#ad" x="235.955" y="478.464"/><use xlink:href="#Z" x="238" y="478.464"/><use xlink:href="#ar" x="242.995" y="478.464"/><use xlink:href="#U" x="245.009" y="478.464"/><use xlink:href="#aq" x="247.654" y="478.464"/><use xlink:href="#aa" x="249.993" y="478.464"/><use xlink:href="#aF" x="255.344" y="478.464"/><use xlink:href="#ad" x="260.858" y="478.464"/><use xlink:href="#al" x="262.902" y="478.464"/><use xlink:href="#aa" x="268.202" y="478.464"/><use xlink:href="#al" x="273.553" y="478.464"/><use xlink:href="#U" x="278.853" y="478.464"/></g><g fill="#33459a"><use xlink:href="#S" x="94.817" y="500.276"/><use xlink:href="#T" x="100.31" y="500.276"/><use xlink:href="#T" x="105.915" y="500.276"/><use xlink:href="#aL" x="111.52" y="500.276"/><use xlink:href="#U" x="117.105" y="500.276"/><use xlink:href="#ay" x="119.75" y="500.276"/><use xlink:href="#U" x="124.531" y="500.276"/><use xlink:href="#S" x="127.176" y="500.276"/><use xlink:href="#T" x="132.669" y="500.276"/><use xlink:href="#aw" x="138.274" y="500.276"/><use xlink:href="#T" x="142.73" y="500.276"/></g><g fill="#231f20"><use xlink:href="#ao" x="191.786" y="500.276"/><use xlink:href="#Y" x="198.235" y="500.276"/><use xlink:href="#Z" x="203.525" y="500.276"/><use xlink:href="#Y" x="208.52" y="500.276"/><use xlink:href="#al" x="213.809" y="500.276"/><use xlink:href="#X" x="219.109" y="500.276"/><use xlink:href="#ae" x="223.412" y="500.276"/><use xlink:href="#ap" x="228.55" y="500.276"/><use xlink:href="#U" x="233.9" y="500.276"/><use xlink:href="#aB" x="236.545" y="500.276"/><use xlink:href="#ae" x="242.913" y="500.276"/><use xlink:href="#ad" x="248.05" y="500.276"/><use xlink:href="#Y" x="250.095" y="500.276"/><use xlink:href="#aa" x="255.385" y="500.276"/><use xlink:href="#ab" x="260.736" y="500.276"/><use xlink:href="#ad" x="265.079" y="500.276"/><use xlink:href="#Z" x="267.124" y="500.276"/><use xlink:href="#ab" x="272.119" y="500.276"/><use xlink:href="#aC" x="276.463" y="500.276"/><use xlink:href="#U" x="281.386" y="500.276"/><use xlink:href="#W" x="284.031" y="500.276"/><use xlink:href="#X" x="290.053" y="500.276"/><use xlink:href="#af" x="294.356" y="500.276"/><use xlink:href="#aD" x="299.768" y="500.276"/><use xlink:href="#Y" x="301.813" y="500.276"/><use xlink:href="#ae" x="307.103" y="500.276"/><use xlink:href="#ab" x="312.24" y="500.276"/><use xlink:href="#U" x="316.583" y="500.276"/><use xlink:href="#aE" x="319.228" y="500.276"/><use xlink:href="#Y" x="324.304" y="500.276"/><use xlink:href="#al" x="329.594" y="500.276"/><use xlink:href="#aF" x="334.894" y="500.276"/><use xlink:href="#Y" x="340.408" y="500.276"/><use xlink:href="#X" x="345.697" y="500.276"/></g><g fill="#231f20"><use xlink:href="#am" x="191.786" y="514.259"/><use xlink:href="#al" x="198.144" y="514.259"/><use xlink:href="#aa" x="203.443" y="514.259"/><use xlink:href="#ae" x="208.794" y="514.259"/><use xlink:href="#Y" x="213.931" y="514.259"/><use xlink:href="#X" x="219.221" y="514.259"/><use xlink:href="#U" x="223.524" y="514.259"/><use xlink:href="#am" x="226.169" y="514.259"/><use xlink:href="#Y" x="232.527" y="514.259"/><use xlink:href="#at" x="237.817" y="514.259"/><use xlink:href="#at" x="239.861" y="514.259"/><use xlink:href="#U" x="241.906" y="514.259"/><use xlink:href="#aG" x="244.551" y="514.259"/><use xlink:href="#X" x="251.153" y="514.259"/><use xlink:href="#af" x="255.456" y="514.259"/><use xlink:href="#aH" x="260.868" y="514.259"/><use xlink:href="#ab" x="267.816" y="514.259"/><use xlink:href="#ap" x="272.16" y="514.259"/><use xlink:href="#U" x="277.51" y="514.259"/><use xlink:href="#aI" x="280.155" y="514.259"/><use xlink:href="#U" x="286.167" y="514.259"/><use xlink:href="#aJ" x="288.812" y="514.259"/><use xlink:href="#au" x="294.641" y="514.259"/><use xlink:href="#ad" x="300.155" y="514.259"/><use xlink:href="#ai" x="302.199" y="514.259"/><use xlink:href="#Y" x="307.703" y="514.259"/><use xlink:href="#aa" x="312.993" y="514.259"/><use xlink:href="#Y" x="318.343" y="514.259"/><use xlink:href="#ab" x="323.633" y="514.259"/><use xlink:href="#ad" x="327.977" y="514.259"/><use xlink:href="#ae" x="330.021" y="514.259"/><use xlink:href="#Z" x="335.159" y="514.259"/><use xlink:href="#ar" x="340.153" y="514.259"/><use xlink:href="#U" x="342.168" y="514.259"/><use xlink:href="#aK" x="344.812" y="514.259"/><use xlink:href="#aa" x="351.476" y="514.259"/><use xlink:href="#ae" x="356.826" y="514.259"/><use xlink:href="#af" x="361.964" y="514.259"/><use xlink:href="#at" x="367.375" y="514.259"/><use xlink:href="#af" x="369.42" y="514.259"/><use xlink:href="#ai" x="374.832" y="514.259"/><use xlink:href="#ak" x="380.335" y="514.259"/><use xlink:href="#ar" x="384.862" y="514.259"/><use xlink:href="#U" x="386.876" y="514.259"/><use xlink:href="#aJ" x="389.521" y="514.259"/><use xlink:href="#at" x="395.35" y="514.259"/><use xlink:href="#ad" x="397.395" y="514.259"/><use xlink:href="#U" x="399.439" y="514.259"/><use xlink:href="#aE" x="402.084" y="514.259"/><use xlink:href="#ad" x="407.161" y="514.259"/><use xlink:href="#at" x="409.205" y="514.259"/><use xlink:href="#at" x="411.25" y="514.259"/><use xlink:href="#ak" x="413.295" y="514.259"/><use xlink:href="#U" x="417.821" y="514.259"/><use xlink:href="#al" x="420.466" y="514.259"/><use xlink:href="#aa" x="425.766" y="514.259"/><use xlink:href="#aF" x="431.117" y="514.259"/><use xlink:href="#U" x="436.631" y="514.259"/><use xlink:href="#am" x="439.275" y="514.259"/><use xlink:href="#af" x="445.633" y="514.259"/><use xlink:href="#as" x="451.045" y="514.259"/><use xlink:href="#au" x="459.153" y="514.259"/><use xlink:href="#al" x="464.666" y="514.259"/><use xlink:href="#aa" x="469.966" y="514.259"/><use xlink:href="#ak" x="475.317" y="514.259"/><use xlink:href="#ar" x="479.844" y="514.259"/><use xlink:href="#U" x="481.858" y="514.259"/></g><g fill="#231f20"><use xlink:href="#aq" x="191.786" y="528.242"/><use xlink:href="#aa" x="194.125" y="528.242"/><use xlink:href="#aF" x="199.476" y="528.242"/><use xlink:href="#ad" x="204.99" y="528.242"/><use xlink:href="#al" x="207.034" y="528.242"/><use xlink:href="#aa" x="212.334" y="528.242"/><use xlink:href="#al" x="217.685" y="528.242"/><use xlink:href="#au" x="222.985" y="528.242"/><use xlink:href="#af" x="228.499" y="528.242"/><use xlink:href="#at" x="233.91" y="528.242"/><use xlink:href="#ad" x="235.955" y="528.242"/><use xlink:href="#Z" x="238" y="528.242"/><use xlink:href="#ar" x="242.995" y="528.242"/><use xlink:href="#U" x="245.009" y="528.242"/><use xlink:href="#aq" x="247.654" y="528.242"/><use xlink:href="#aa" x="249.993" y="528.242"/><use xlink:href="#aF" x="255.344" y="528.242"/><use xlink:href="#ad" x="260.858" y="528.242"/><use xlink:href="#al" x="262.902" y="528.242"/><use xlink:href="#aa" x="268.202" y="528.242"/><use xlink:href="#al" x="273.553" y="528.242"/><use xlink:href="#U" x="278.853" y="528.242"/></g><g fill="#33459a"><use xlink:href="#S" x="94.817" y="550.054"/><use xlink:href="#T" x="100.31" y="550.054"/><use xlink:href="#T" x="105.915" y="550.054"/><use xlink:href="#aM" x="111.52" y="550.054"/><use xlink:href="#U" x="117.024" y="550.054"/><use xlink:href="#ay" x="119.669" y="550.054"/><use xlink:href="#U" x="124.45" y="550.054"/><use xlink:href="#S" x="127.095" y="550.054"/><use xlink:href="#T" x="132.588" y="550.054"/><use xlink:href="#T" x="138.193" y="550.054"/><use xlink:href="#aL" x="143.798" y="550.054"/></g><g fill="#231f20"><use xlink:href="#W" x="191.786" y="550.054"/><use xlink:href="#af" x="197.808" y="550.054"/><use xlink:href="#Z" x="203.22" y="550.054"/><use xlink:href="#ab" x="208.214" y="550.054"/><use xlink:href="#aF" x="212.558" y="550.054"/><use xlink:href="#af" x="218.072" y="550.054"/><use xlink:href="#ae" x="223.484" y="550.054"/><use xlink:href="#ab" x="228.621" y="550.054"/><use xlink:href="#af" x="232.964" y="550.054"/><use xlink:href="#X" x="238.376" y="550.054"/><use xlink:href="#al" x="242.679" y="550.054"/><use xlink:href="#at" x="247.979" y="550.054"/><use xlink:href="#U" x="250.024" y="550.054"/><use xlink:href="#ao" x="252.669" y="550.054"/><use xlink:href="#Y" x="259.118" y="550.054"/><use xlink:href="#Z" x="264.408" y="550.054"/><use xlink:href="#Y" x="269.403" y="550.054"/><use xlink:href="#al" x="274.693" y="550.054"/><use xlink:href="#X" x="279.992" y="550.054"/><use xlink:href="#ae" x="284.296" y="550.054"/><use xlink:href="#ap" x="289.433" y="550.054"/><use xlink:href="#U" x="294.783" y="550.054"/><use xlink:href="#aN" x="297.428" y="550.054"/><use xlink:href="#Y" x="303.003" y="550.054"/><use xlink:href="#at" x="308.293" y="550.054"/><use xlink:href="#at" x="310.337" y="550.054"/><use xlink:href="#af" x="312.382" y="550.054"/><use xlink:href="#aH" x="317.794" y="550.054"/><use xlink:href="#U" x="324.742" y="550.054"/></g><use xlink:href="#U" x="327.385" y="550.054" fill="#231f20"/><g fill="#231f20"><use xlink:href="#am" x="191.786" y="564.037"/><use xlink:href="#al" x="198.144" y="564.037"/><use xlink:href="#aa" x="203.443" y="564.037"/><use xlink:href="#ae" x="208.794" y="564.037"/><use xlink:href="#Y" x="213.931" y="564.037"/><use xlink:href="#X" x="219.221" y="564.037"/><use xlink:href="#U" x="223.524" y="564.037"/><use xlink:href="#am" x="226.169" y="564.037"/><use xlink:href="#Y" x="232.527" y="564.037"/><use xlink:href="#at" x="237.817" y="564.037"/><use xlink:href="#at" x="239.861" y="564.037"/><use xlink:href="#U" x="241.906" y="564.037"/><use xlink:href="#aG" x="244.551" y="564.037"/><use xlink:href="#X" x="251.153" y="564.037"/><use xlink:href="#af" x="255.456" y="564.037"/><use xlink:href="#aH" x="260.868" y="564.037"/><use xlink:href="#ab" x="267.816" y="564.037"/><use xlink:href="#ap" x="272.16" y="564.037"/><use xlink:href="#U" x="277.51" y="564.037"/><use xlink:href="#aI" x="280.155" y="564.037"/><use xlink:href="#U" x="286.167" y="564.037"/><use xlink:href="#aA" x="288.812" y="564.037"/><use xlink:href="#X" x="294.163" y="564.037"/><use xlink:href="#al" x="298.466" y="564.037"/><use xlink:href="#aa" x="303.766" y="564.037"/><use xlink:href="#Z" x="309.117" y="564.037"/><use xlink:href="#at" x="314.111" y="564.037"/><use xlink:href="#al" x="316.156" y="564.037"/><use xlink:href="#ab" x="321.456" y="564.037"/><use xlink:href="#ad" x="325.8" y="564.037"/><use xlink:href="#af" x="327.845" y="564.037"/><use xlink:href="#aa" x="333.256" y="564.037"/><use xlink:href="#ar" x="338.607" y="564.037"/><use xlink:href="#U" x="340.621" y="564.037"/><use xlink:href="#aK" x="343.266" y="564.037"/><use xlink:href="#aa" x="349.929" y="564.037"/><use xlink:href="#ae" x="355.28" y="564.037"/><use xlink:href="#af" x="360.417" y="564.037"/><use xlink:href="#at" x="365.829" y="564.037"/><use xlink:href="#af" x="367.874" y="564.037"/><use xlink:href="#ai" x="373.286" y="564.037"/><use xlink:href="#ak" x="378.789" y="564.037"/><use xlink:href="#ar" x="383.316" y="564.037"/><use xlink:href="#U" x="385.33" y="564.037"/><use xlink:href="#aJ" x="387.975" y="564.037"/><use xlink:href="#at" x="393.804" y="564.037"/><use xlink:href="#ad" x="395.849" y="564.037"/><use xlink:href="#U" x="397.893" y="564.037"/><use xlink:href="#aE" x="400.538" y="564.037"/><use xlink:href="#ad" x="405.614" y="564.037"/><use xlink:href="#at" x="407.659" y="564.037"/><use xlink:href="#at" x="409.704" y="564.037"/><use xlink:href="#ak" x="411.748" y="564.037"/><use xlink:href="#U" x="416.275" y="564.037"/><use xlink:href="#al" x="418.92" y="564.037"/><use xlink:href="#aa" x="424.22" y="564.037"/><use xlink:href="#aF" x="429.571" y="564.037"/><use xlink:href="#U" x="435.084" y="564.037"/><use xlink:href="#am" x="437.729" y="564.037"/><use xlink:href="#af" x="444.087" y="564.037"/><use xlink:href="#as" x="449.499" y="564.037"/><use xlink:href="#au" x="457.607" y="564.037"/><use xlink:href="#al" x="463.12" y="564.037"/><use xlink:href="#aa" x="468.42" y="564.037"/><use xlink:href="#ak" x="473.771" y="564.037"/><use xlink:href="#ar" x="478.298" y="564.037"/><use xlink:href="#U" x="480.312" y="564.037"/></g><g fill="#231f20"><use xlink:href="#aq" x="191.786" y="578.02"/><use xlink:href="#aa" x="194.125" y="578.02"/><use xlink:href="#aF" x="199.476" y="578.02"/><use xlink:href="#ad" x="204.99" y="578.02"/><use xlink:href="#al" x="207.034" y="578.02"/><use xlink:href="#aa" x="212.334" y="578.02"/><use xlink:href="#al" x="217.685" y="578.02"/><use xlink:href="#au" x="222.985" y="578.02"/><use xlink:href="#af" x="228.499" y="578.02"/><use xlink:href="#at" x="233.91" y="578.02"/><use xlink:href="#ad" x="235.955" y="578.02"/><use xlink:href="#Z" x="238" y="578.02"/><use xlink:href="#ar" x="242.995" y="578.02"/><use xlink:href="#U" x="245.009" y="578.02"/><use xlink:href="#aq" x="247.654" y="578.02"/><use xlink:href="#aa" x="249.993" y="578.02"/><use xlink:href="#aF" x="255.344" y="578.02"/><use xlink:href="#ad" x="260.858" y="578.02"/><use xlink:href="#al" x="262.902" y="578.02"/><use xlink:href="#aa" x="268.202" y="578.02"/><use xlink:href="#al" x="273.553" y="578.02"/><use xlink:href="#U" x="278.853" y="578.02"/></g><g fill="#33459a"><use xlink:href="#S" x="94.817" y="599.832"/><use xlink:href="#T" x="100.31" y="599.832"/><use xlink:href="#T" x="105.915" y="599.832"/><use xlink:href="#aw" x="111.52" y="599.832"/><use xlink:href="#U" x="115.976" y="599.832"/><use xlink:href="#ay" x="118.621" y="599.832"/><use xlink:href="#U" x="123.402" y="599.832"/><use xlink:href="#S" x="126.047" y="599.832"/><use xlink:href="#T" x="131.54" y="599.832"/><use xlink:href="#T" x="137.145" y="599.832"/><use xlink:href="#aM" x="142.75" y="599.832"/></g><g fill="#231f20"><use xlink:href="#W" x="191.786" y="599.832"/><use xlink:href="#af" x="197.808" y="599.832"/><use xlink:href="#Z" x="203.22" y="599.832"/><use xlink:href="#ab" x="208.214" y="599.832"/><use xlink:href="#aF" x="212.558" y="599.832"/><use xlink:href="#af" x="218.072" y="599.832"/><use xlink:href="#ae" x="223.484" y="599.832"/><use xlink:href="#ab" x="228.621" y="599.832"/><use xlink:href="#af" x="232.964" y="599.832"/><use xlink:href="#X" x="238.376" y="599.832"/><use xlink:href="#al" x="242.679" y="599.832"/><use xlink:href="#at" x="247.979" y="599.832"/><use xlink:href="#U" x="250.024" y="599.832"/><use xlink:href="#ao" x="252.669" y="599.832"/><use xlink:href="#Y" x="259.118" y="599.832"/><use xlink:href="#Z" x="264.408" y="599.832"/><use xlink:href="#Y" x="269.403" y="599.832"/><use xlink:href="#al" x="274.693" y="599.832"/><use xlink:href="#X" x="279.992" y="599.832"/><use xlink:href="#ae" x="284.296" y="599.832"/><use xlink:href="#ap" x="289.433" y="599.832"/><use xlink:href="#U" x="294.783" y="599.832"/><use xlink:href="#aN" x="297.428" y="599.832"/><use xlink:href="#Y" x="303.003" y="599.832"/><use xlink:href="#at" x="308.293" y="599.832"/><use xlink:href="#at" x="310.337" y="599.832"/><use xlink:href="#af" x="312.382" y="599.832"/><use xlink:href="#aH" x="317.794" y="599.832"/><use xlink:href="#U" x="324.742" y="599.832"/></g><use xlink:href="#U" x="327.385" y="599.832" fill="#231f20"/><g fill="#231f20"><use xlink:href="#ac" x="191.786" y="613.815"/><use xlink:href="#ad" x="198.398" y="613.815"/><use xlink:href="#aj" x="200.443" y="613.815"/><use xlink:href="#ad" x="204.99" y="613.815"/><use xlink:href="#Z" x="207.034" y="613.815"/><use xlink:href="#ad" x="212.029" y="613.815"/><use xlink:href="#af" x="214.074" y="613.815"/><use xlink:href="#aa" x="219.486" y="613.815"/><use xlink:href="#U" x="224.837" y="613.815"/><use xlink:href="#af" x="227.481" y="613.815"/><use xlink:href="#aO" x="232.893" y="613.815"/><use xlink:href="#U" x="237.196" y="613.815"/><use xlink:href="#aP" x="239.841" y="613.815"/><use xlink:href="#Y" x="246.382" y="613.815"/><use xlink:href="#as" x="251.672" y="613.815"/><use xlink:href="#al" x="259.779" y="613.815"/><use xlink:href="#ab" x="265.079" y="613.815"/><use xlink:href="#af" x="269.423" y="613.815"/><use xlink:href="#at" x="274.835" y="613.815"/><use xlink:href="#af" x="276.88" y="613.815"/><use xlink:href="#ai" x="282.292" y="613.815"/><use xlink:href="#ak" x="287.795" y="613.815"/><use xlink:href="#ay" x="292.322" y="613.815"/><use xlink:href="#aK" x="297.103" y="613.815"/><use xlink:href="#aa" x="303.766" y="613.815"/><use xlink:href="#ae" x="309.117" y="613.815"/><use xlink:href="#af" x="314.254" y="613.815"/><use xlink:href="#at" x="319.666" y="613.815"/><use xlink:href="#af" x="321.71" y="613.815"/><use xlink:href="#ai" x="327.122" y="613.815"/><use xlink:href="#ak" x="332.626" y="613.815"/><use xlink:href="#ar" x="337.152" y="613.815"/><use xlink:href="#U" x="339.167" y="613.815"/><use xlink:href="#ac" x="341.812" y="613.815"/><use xlink:href="#Y" x="348.424" y="613.815"/><use xlink:href="#au" x="353.714" y="613.815"/><use xlink:href="#al" x="359.227" y="613.815"/><use xlink:href="#X" x="364.527" y="613.815"/><use xlink:href="#ab" x="368.83" y="613.815"/><use xlink:href="#as" x="373.174" y="613.815"/><use xlink:href="#Y" x="381.281" y="613.815"/><use xlink:href="#aa" x="386.571" y="613.815"/><use xlink:href="#ab" x="391.922" y="613.815"/><use xlink:href="#U" x="396.266" y="613.815"/><use xlink:href="#af" x="398.911" y="613.815"/><use xlink:href="#aO" x="404.322" y="613.815"/><use xlink:href="#U" x="408.625" y="613.815"/><use xlink:href="#aQ" x="411.27" y="613.815"/><use xlink:href="#Y" x="419.5" y="613.815"/><use xlink:href="#aF" x="424.79" y="613.815"/><use xlink:href="#ad" x="430.303" y="613.815"/><use xlink:href="#ae" x="432.348" y="613.815"/><use xlink:href="#ad" x="437.485" y="613.815"/><use xlink:href="#aa" x="439.53" y="613.815"/><use xlink:href="#Y" x="444.881" y="613.815"/><use xlink:href="#ar" x="450.17" y="613.815"/><use xlink:href="#U" x="452.185" y="613.815"/><use xlink:href="#aR" x="454.829" y="613.815"/><use xlink:href="#aa" x="461.33" y="613.815"/><use xlink:href="#ad" x="466.681" y="613.815"/><use xlink:href="#aj" x="468.725" y="613.815"/><use xlink:href="#Y" x="473.272" y="613.815"/><use xlink:href="#X" x="478.562" y="613.815"/><use xlink:href="#Z" x="482.865" y="613.815"/><use xlink:href="#ad" x="487.86" y="613.815"/><use xlink:href="#ab" x="489.905" y="613.815"/><use xlink:href="#ak" x="494.248" y="613.815"/><use xlink:href="#U" x="498.775" y="613.815"/><use xlink:href="#af" x="501.42" y="613.815"/><use xlink:href="#aO" x="506.832" y="613.815"/><use xlink:href="#U" x="511.135" y="613.815"/></g><g fill="#231f20"><use xlink:href="#aA" x="191.786" y="627.798"/><use xlink:href="#Y" x="197.136" y="627.798"/><use xlink:href="#aS" x="202.426" y="627.798"/><use xlink:href="#al" x="206.973" y="627.798"/><use xlink:href="#Z" x="212.273" y="627.798"/><use xlink:href="#U" x="217.268" y="627.798"/><use xlink:href="#aB" x="219.913" y="627.798"/><use xlink:href="#af" x="226.281" y="627.798"/><use xlink:href="#ah" x="231.693" y="627.798"/><use xlink:href="#ab" x="237.044" y="627.798"/><use xlink:href="#ap" x="241.387" y="627.798"/><use xlink:href="#aH" x="246.738" y="627.798"/><use xlink:href="#Y" x="253.686" y="627.798"/><use xlink:href="#Z" x="258.976" y="627.798"/><use xlink:href="#ab" x="263.971" y="627.798"/><use xlink:href="#Y" x="268.314" y="627.798"/><use xlink:href="#X" x="273.604" y="627.798"/><use xlink:href="#aa" x="277.907" y="627.798"/><use xlink:href="#U" x="283.258" y="627.798"/><use xlink:href="#aQ" x="285.903" y="627.798"/><use xlink:href="#Y" x="294.132" y="627.798"/><use xlink:href="#aF" x="299.422" y="627.798"/><use xlink:href="#ad" x="304.936" y="627.798"/><use xlink:href="#ae" x="306.98" y="627.798"/><use xlink:href="#al" x="312.118" y="627.798"/><use xlink:href="#at" x="317.418" y="627.798"/><use xlink:href="#U" x="319.462" y="627.798"/><use xlink:href="#am" x="322.107" y="627.798"/><use xlink:href="#Y" x="328.465" y="627.798"/><use xlink:href="#aa" x="333.755" y="627.798"/><use xlink:href="#ab" x="339.106" y="627.798"/><use xlink:href="#Y" x="343.449" y="627.798"/><use xlink:href="#X" x="348.739" y="627.798"/><use xlink:href="#ar" x="353.042" y="627.798"/><use xlink:href="#U" x="355.056" y="627.798"/><use xlink:href="#ac" x="357.701" y="627.798"/><use xlink:href="#al" x="364.313" y="627.798"/><use xlink:href="#at" x="369.613" y="627.798"/><use xlink:href="#at" x="371.658" y="627.798"/><use xlink:href="#al" x="373.703" y="627.798"/><use xlink:href="#Z" x="379.003" y="627.798"/><use xlink:href="#ar" x="383.997" y="627.798"/><use xlink:href="#U" x="386.012" y="627.798"/><use xlink:href="#aA" x="388.657" y="627.798"/><use xlink:href="#Y" x="394.007" y="627.798"/><use xlink:href="#aS" x="399.297" y="627.798"/><use xlink:href="#al" x="403.844" y="627.798"/><use xlink:href="#Z" x="409.144" y="627.798"/><use xlink:href="#U" x="414.139" y="627.798"/></g><g fill="#33459a"><use xlink:href="#aw" x="94.817" y="649.61"/><use xlink:href="#az" x="99.273" y="649.61"/><use xlink:href="#az" x="104.837" y="649.61"/><use xlink:href="#aT" x="110.401" y="649.61"/><use xlink:href="#ay" x="116.017" y="649.61"/><use xlink:href="#S" x="120.798" y="649.61"/><use xlink:href="#T" x="126.291" y="649.61"/><use xlink:href="#T" x="131.896" y="649.61"/><use xlink:href="#aw" x="137.501" y="649.61"/></g><g fill="#231f20"><use xlink:href="#ao" x="191.786" y="649.61"/><use xlink:href="#Y" x="198.235" y="649.61"/><use xlink:href="#Z" x="203.525" y="649.61"/><use xlink:href="#Y" x="208.52" y="649.61"/><use xlink:href="#al" x="213.809" y="649.61"/><use xlink:href="#X" x="219.109" y="649.61"/><use xlink:href="#ae" x="223.412" y="649.61"/><use xlink:href="#ap" x="228.55" y="649.61"/><use xlink:href="#U" x="233.9" y="649.61"/><use xlink:href="#aU" x="236.545" y="649.61"/><use xlink:href="#Z" x="242.618" y="649.61"/><use xlink:href="#Z" x="247.613" y="649.61"/><use xlink:href="#af" x="252.608" y="649.61"/><use xlink:href="#ae" x="258.02" y="649.61"/><use xlink:href="#ad" x="263.157" y="649.61"/><use xlink:href="#al" x="265.201" y="649.61"/><use xlink:href="#ab" x="270.501" y="649.61"/><use xlink:href="#Y" x="274.845" y="649.61"/><use xlink:href="#U" x="280.135" y="649.61"/></g><use xlink:href="#U" x="282.779" y="649.61" fill="#231f20"/><g fill="#231f20"><use xlink:href="#aA" x="191.786" y="663.593"/><use xlink:href="#ap" x="197.136" y="663.593"/><use xlink:href="#Y" x="202.487" y="663.593"/><use xlink:href="#U" x="207.777" y="663.593"/><use xlink:href="#aq" x="210.422" y="663.593"/><use xlink:href="#at" x="212.762" y="663.593"/><use xlink:href="#Z" x="214.806" y="663.593"/><use xlink:href="#af" x="219.801" y="663.593"/><use xlink:href="#aa" x="225.213" y="663.593"/><use xlink:href="#ai" x="230.564" y="663.593"/><use xlink:href="#U" x="236.067" y="663.593"/><use xlink:href="#aq" x="238.712" y="663.593"/><use xlink:href="#aa" x="241.052" y="663.593"/><use xlink:href="#Z" x="246.402" y="663.593"/><use xlink:href="#ab" x="251.397" y="663.593"/><use xlink:href="#ad" x="255.741" y="663.593"/><use xlink:href="#ab" x="257.786" y="663.593"/><use xlink:href="#ah" x="262.129" y="663.593"/><use xlink:href="#ab" x="267.48" y="663.593"/><use xlink:href="#Y" x="271.824" y="663.593"/><use xlink:href="#U" x="277.114" y="663.593"/><use xlink:href="#af" x="279.759" y="663.593"/><use xlink:href="#aO" x="285.17" y="663.593"/><use xlink:href="#U" x="289.473" y="663.593"/><use xlink:href="#aE" x="292.118" y="663.593"/><use xlink:href="#ad" x="297.194" y="663.593"/><use xlink:href="#aO" x="299.239" y="663.593"/><use xlink:href="#Y" x="303.542" y="663.593"/><use xlink:href="#U" x="308.832" y="663.593"/><use xlink:href="#aB" x="311.477" y="663.593"/><use xlink:href="#ae" x="317.845" y="663.593"/><use xlink:href="#ad" x="322.982" y="663.593"/><use xlink:href="#Y" x="325.027" y="663.593"/><use xlink:href="#aa" x="330.316" y="663.593"/><use xlink:href="#ae" x="335.667" y="663.593"/><use xlink:href="#Y" x="340.804" y="663.593"/><use xlink:href="#ar" x="346.094" y="663.593"/><use xlink:href="#U" x="348.108" y="663.593"/><use xlink:href="#aA" x="350.753" y="663.593"/><use xlink:href="#ap" x="356.104" y="663.593"/><use xlink:href="#Y" x="361.455" y="663.593"/><use xlink:href="#U" x="366.745" y="663.593"/><use xlink:href="#aP" x="369.39" y="663.593"/><use xlink:href="#al" x="375.931" y="663.593"/><use xlink:href="#at" x="381.23" y="663.593"/><use xlink:href="#at" x="383.275" y="663.593"/><use xlink:href="#ak" x="385.32" y="663.593"/><use xlink:href="#as" x="389.847" y="663.593"/><use xlink:href="#U" x="397.954" y="663.593"/><use xlink:href="#aU" x="400.599" y="663.593"/><use xlink:href="#ae" x="406.672" y="663.593"/><use xlink:href="#al" x="411.809" y="663.593"/><use xlink:href="#aF" x="417.109" y="663.593"/><use xlink:href="#Y" x="422.623" y="663.593"/><use xlink:href="#as" x="427.913" y="663.593"/><use xlink:href="#ak" x="436.02" y="663.593"/><use xlink:href="#U" x="440.547" y="663.593"/><use xlink:href="#af" x="443.192" y="663.593"/><use xlink:href="#aO" x="448.604" y="663.593"/><use xlink:href="#U" x="452.907" y="663.593"/><use xlink:href="#aB" x="455.552" y="663.593"/><use xlink:href="#ae" x="461.92" y="663.593"/><use xlink:href="#ad" x="467.057" y="663.593"/><use xlink:href="#Y" x="469.102" y="663.593"/><use xlink:href="#aa" x="474.391" y="663.593"/><use xlink:href="#ae" x="479.742" y="663.593"/><use xlink:href="#Y" x="484.879" y="663.593"/><use xlink:href="#Z" x="490.169" y="663.593"/><use xlink:href="#ar" x="495.164" y="663.593"/><use xlink:href="#U" x="497.178" y="663.593"/></g><g fill="#231f20"><use xlink:href="#aP" x="191.786" y="677.576"/><use xlink:href="#al" x="198.327" y="677.576"/><use xlink:href="#at" x="203.627" y="677.576"/><use xlink:href="#at" x="205.671" y="677.576"/><use xlink:href="#ak" x="207.716" y="677.576"/><use xlink:href="#as" x="212.243" y="677.576"/><use xlink:href="#U" x="220.35" y="677.576"/><use xlink:href="#aR" x="222.995" y="677.576"/><use xlink:href="#aa" x="229.496" y="677.576"/><use xlink:href="#ad" x="234.846" y="677.576"/><use xlink:href="#aj" x="236.891" y="677.576"/><use xlink:href="#Y" x="241.438" y="677.576"/><use xlink:href="#X" x="246.728" y="677.576"/><use xlink:href="#Z" x="251.031" y="677.576"/><use xlink:href="#ad" x="256.026" y="677.576"/><use xlink:href="#ab" x="258.07" y="677.576"/><use xlink:href="#ak" x="262.414" y="677.576"/><use xlink:href="#U" x="266.941" y="677.576"/></g></svg>