<svg xmlns="http://www.w3.org/2000/svg" xmlns:xlink="http://www.w3.org/1999/xlink" width="793.701" height="1058.268" viewBox="0 0 595.276 793.701" version="1.2"><defs><clipPath id="bo"><path d="M364 146h230.555v233H364zm0 0"/></clipPath><clipPath id="bp"><path d="M367 146h227.555v233H367zm0 0"/></clipPath><clipPath id="bq"><path d="M370 146h224.555v233H370zm0 0"/></clipPath><clipPath id="br"><path d="M373 146h221.555v233H373zm0 0"/></clipPath><clipPath id="bs"><path d="M376 146h218.555v233H376zm0 0"/></clipPath><clipPath id="bt"><path d="M379 146h215.555v233H379zm0 0"/></clipPath><clipPath id="bu"><path d="M382 146h212.555v233H382zm0 0"/></clipPath><clipPath id="bv"><path d="M385 146h209.555v233H385zm0 0"/></clipPath><clipPath id="bw"><path d="M388 146h206.555v233H388zm0 0"/></clipPath><clipPath id="bx"><path d="M391 146h203.555v233H391zm0 0"/></clipPath><clipPath id="by"><path d="M394 146h200.555v233H394zm0 0"/></clipPath><clipPath id="bz"><path d="M397 146h197.555v233H397zm0 0"/></clipPath><clipPath id="bA"><path d="M400 146h194.555v233H400zm0 0"/></clipPath><symbol overflow="visible" id="a"><path d="M2.875.031c.434 0 .82-.144 1.156-.437.332-.301.594-.64.782-1.016.183-.34.316-.71.39-1.11.082-.402.125-.804.125-1.202 0-.403-.05-.813-.14-1.22a4.843 4.843 0 0 0-.407-1.155A3.031 3.031 0 0 0 4-7.063a1.747 1.747 0 0 0-1.14-.421c-.844 0-1.473.457-1.876 1.359-.406.906-.609 1.707-.609 2.39 0 .712.203 1.52.61 2.422C1.386-.413 2.02.032 2.874.032zm0-.281c-.75 0-1.227-.441-1.422-1.328-.2-.895-.297-1.613-.297-2.156 0-.54.098-1.254.297-2.141.195-.895.672-1.344 1.422-1.344.363 0 .648.137.86.407.206.273.363.566.468.875.113.343.195.71.25 1.093.059.387.094.758.094 1.11 0 .324-.035.675-.094 1.046a9.33 9.33 0 0 1-.203 1.016c-.094.336-.254.66-.469.969-.21.305-.511.453-.906.453zm0 0"/></symbol><symbol overflow="visible" id="b"><path d="M2.5-4.39l.86-.47c.245-.132.503-.304.765-.515a.964.964 0 0 0 .406-.797c0-.445-.183-.773-.547-.984a2.113 2.113 0 0 0-1.125-.297c-.304.012-.59.066-.859.156-.273.086-.52.238-.734.453a1.957 1.957 0 0 0-.204.266c-.085.117-.125.215-.125.297 0 .031.008.066.032.093.02.032.047.047.078.047.039 0 .078-.023.11-.078.027-.05.054-.093.077-.125.133-.215.32-.398.563-.547a1.4 1.4 0 0 1 .766-.234c.269 0 .519.082.75.234.226.157.343.387.343.688 0 .48-.293.902-.875 1.266-.574.367-1.039.667-1.39.906l-.375.25-.11.078c-.043.023-.062.066-.062.125 0 .031.008.058.031.078a.143.143 0 0 0 .094.031c.039 0 .086-.008.14-.031a.53.53 0 0 0 .125-.063c.184-.113.391-.203.61-.265.226-.07.457-.11.687-.11.559 0 1.008.196 1.344.579.332.375.5.836.5 1.375 0 .367-.086.714-.25 1.046a2.37 2.37 0 0 1-.656.844 3.086 3.086 0 0 1-.688.422c-.281.145-.55.219-.797.219a.489.489 0 0 1-.328-.11 1.133 1.133 0 0 1-.203-.28 1.328 1.328 0 0 0-.219-.298.44.44 0 0 0-.328-.14c-.136 0-.242.043-.312.125a.456.456 0 0 0-.11.312c0 .278.133.473.407.578.277.102.53.157.75.157.445 0 .894-.118 1.343-.344.446-.23.832-.492 1.157-.781.308-.278.562-.614.75-1 .195-.383.296-.786.296-1.204 0-.59-.207-1.078-.609-1.453-.398-.37-.894-.562-1.484-.562zm0 0"/></symbol><symbol overflow="visible" id="c"><path d="M8.469 1.61v-9.376H7.406V1.61zM6.64 1.155v-8.75H5.578v2.813H4.25v1.078h1.328v4.86zM3.375-5.172v-1h1.422v-.969H.828v.97h1.406v.968c0 .984-.156 1.797-.453 2.469-.36.812-.89 1.406-1.64 1.89.312.235.687.485.921.703A5.416 5.416 0 0 0 2.11-1.234c.297-.407.563-.86.688-1.266.172.406.422.797.719 1.14.296.391.656.704.968.923.22-.25.485-.516.75-.766-.687-.438-1.156-.969-1.453-1.61-.281-.64-.406-1.406-.406-2.359zm0 0"/></symbol><symbol overflow="visible" id="d"><path d="M.14-1.25C.188.188 1 1.031 2.11 1.031c1.484 0 2.25-1.093 2.25-2.922 0-1.5-.876-2.546-2.016-2.546-.438 0-.813.171-.953.328l.218-2.079h2.422v-.984H.781L.36-2.812l.891.093c.219-.515.594-.797.953-.797.578 0 1.094.672 1.094 1.782 0 1.093-.422 1.859-1.11 1.859-.515 0-.953-.438-1-1.375zm0 0"/></symbol><symbol overflow="visible" id="e"><path d="M6.25-5.219v-.922H1.062v.922zm.625 3.907c-.625.093-2 .187-2.578.187v-.766c.937-.14 1.625-.703 1.625-1.437 0-.89-.953-1.516-2.266-1.516-1.25 0-2.25.625-2.25 1.516 0 .734.766 1.344 1.735 1.469v.765H.67v1h2.032c1.75 0 3.375-.14 4.172-.234zM3.656-2.61c-.61 0-1.172-.266-1.172-.72 0-.452.563-.702 1.172-.702.656 0 1.203.25 1.203.703 0 .437-.546.719-1.203.719zm1.438-4.125v-.891H2.297v.89zm3.203 8.343v-9.375H7.203V1.61zm0 0"/></symbol><symbol overflow="visible" id="g"><path d="M8.063 1.61v-9.376H6.968V1.61zM5.374-.673v-6.5H1.062v6.5zM4.297-1.64h-2.14v-4.562h2.14zm0 0"/></symbol><symbol overflow="visible" id="h"><path d="M8.234 1.61v-9.376h-1.03v3.172h-.938v-3H5.203v8.75h1.063v-4.61h.937V1.61zM4.86-1.782c-.375.078-1.265.172-1.89.172l-.922.015v-1.843h2.25V-7.25H.969v.984h2.25v1.86H.969V-.61l1.578-.016c1.047 0 1.937-.156 2.312-.203zm0 0"/></symbol><symbol overflow="visible" id="i"><path d="M8.25 1.61v-9.376H7.172V1.61zM1.031-5.11c0 1.329 1.032 2.423 2.469 2.423 1.438 0 2.453-1.094 2.453-2.422 0-1.297-1.016-2.375-2.453-2.375-1.438 0-2.469 1.078-2.469 2.375zm1.078 0c0-.765.532-1.406 1.391-1.406.86 0 1.375.641 1.375 1.422 0 .797-.516 1.438-1.375 1.438-.86 0-1.39-.656-1.39-1.453zm4.72 3.438c-.641.094-2.235.281-3.032.281-.828.094-3.063.032-3.156.032v1.015c.078 0 1.828.078 2.609-.015 1.453 0 2.86-.235 3.578-.375zm0 0"/></symbol><symbol overflow="visible" id="j"><path d="M9.094-4.266v-1.046H7.89v-2.454H6.812v6.032h1.079v-2.532zm-4.39-2.671v-.86H1.89v.86zm1.28 1.468v-.89H.656v.89zM.954-3.547c0 .86 1.046 1.531 2.359 1.531 1.437 0 2.39-.656 2.39-1.53 0-.876-.906-1.532-2.36-1.532-1.405 0-2.39.656-2.39 1.531zm1.14 0c0-.453.547-.703 1.234-.703.703 0 1.203.234 1.203.703 0 .438-.484.703-1.203.703-.687 0-1.234-.25-1.234-.703zM7.89 1.641v-2.985H1.67v.953h5.095v2.032zm0 0"/></symbol><symbol overflow="visible" id="k"><path d="M6.344-7v-.89H2.766V-7zM5.25-5.5h2.64v-.89H1.22v.89h2.64c-.156.422-.625.719-1.218.938-.579.218-1.282.343-1.922.437.265.313.531.656.687.875.594-.11 1.266-.266 1.844-.516.563-.234 1.063-.546 1.328-.937.313.422.89.766 1.516 1 .547.219 1.14.375 1.625.453.187-.266.39-.531.656-.875a7.683 7.683 0 0 1-1.906-.453C5.906-4.797 5.437-5.11 5.25-5.5zm3.563 3.688v-.954H.328v.954h3.828v1.578h1.11v-1.579zm-.766 3.234V.453H2.516v-1.656H1.39v2.625zm0 0"/></symbol><symbol overflow="visible" id="l"><path d="M8.234 1.61v-9.376H7.188V1.61zM.813-7.11v.97h2.296c-.015.984-.218 1.89-.609 2.702-.453.97-1.172 1.797-2.172 2.485.25.14.734.453.969.672 1.047-.813 1.812-1.813 2.297-3.047.203-.516.36-1.047.453-1.625v.156h1.328v1.531H3.922v1.016h1.453v3.406h1.047v-8.75H5.375v1.797H4.172c.047-.422.062-.844.062-1.312zm0 0"/></symbol><symbol overflow="visible" id="m"><path d="M3.313-6.36h2.484l-.031 2.954H3.359zm5.5 6.923v-1H5.124v-1.985h2.969v-.984h-1.25l.031-2.953h1.016v-.985H1.219v.985h1l.031 2.953H1.016v.984H4v1.985H.312v1zm0 0"/></symbol><symbol overflow="visible" id="n"><path d="M8.078-2.281v-5.485H6.984v1.922H5.516v.985h1.468v2.578zM6.031-3.844c-.515.125-1.64.235-2.39.235l-1.61.03v-1h2.985v-2.859H.937v.954h3.016v1.015H.938v2.844c.078 0 1.625 0 2.64-.047 1.047-.047 1.969-.156 2.453-.25zM8.078 1.5v-3.36H1.875V1.5zM6.984.562h-4.03V-.905h4.03zm0 0"/></symbol><symbol overflow="visible" id="o"><path d="M6.781-7.766V1.61h1.094v-4.671h1.266v-1.063H7.875v-3.64zm-2.125 1.11v-.938H1.86v.938zM3.86-4.5v-.39H5.75v-.985H.766v.984h1.906v.391c0 .797-.25 1.484-.656 2.094C1.562-1.766.953-1.25.25-.86c.344.265.703.562.906.78a9.387 9.387 0 0 0 1.235-1.077c.359-.438.671-.907.89-1.407.25.5.547.922.875 1.297.375.391.75.704 1.14.97.22-.235.485-.532.782-.798C5.484-1.39 4.891-1.875 4.5-2.5c-.39-.578-.64-1.25-.64-2zm0 0"/></symbol><symbol overflow="visible" id="p"><path d="M8.375 1.61v-9.376H7.328V1.61zm-1.828-.454v-8.75H5.5v2.578H4.047v1.079H5.5v5.093zM3.234-5.437V-7.36h-1.14V-5.5c0 1.031-.14 1.906-.453 2.64-.344.813-.891 1.47-1.625 2 .359.235.718.485.953.688A5.202 5.202 0 0 0 2-1.312c.297-.454.547-.938.656-1.422.14.468.39.937.688 1.359.265.39.578.719.875.953.281-.25.531-.469.843-.703-.578-.453-1.03-.984-1.328-1.656-.312-.703-.5-1.578-.5-2.656zm0 0"/></symbol><symbol overflow="visible" id="q"><path d="M8.234 1.594v-9.36H7.188v3.141h-1v-2.969H5.14v8.75h1.046v-4.64h1v5.078zM4.766-1.875c-.297.047-1.172.188-1.766.203h-.89v-4.516h2.124v-.968H1.031v6.5c.016 0 1.235 0 1.485-.016.734-.015 1.843-.125 2.25-.219zm0 0"/></symbol><symbol overflow="visible" id="r"><path d="M8.984-3.266v-1.046h-1.25v-3.454H6.625V1.61h1.11v-4.875zM5.22-.625v-6.64H4.14v2.25H1.969v-2.25H.89v6.64zM4.14-1.594H1.969V-4.03H4.14zm0 0"/></symbol><symbol overflow="visible" id="s"><path d="M8.11 1.61v-9.376H7.015V1.61zM.765-3.907c0 2.265 1.03 3.594 2.375 3.594C4.5-.313 5.5-1.657 5.5-3.906c0-2.266-1-3.578-2.36-3.578-1.343 0-2.374 1.28-2.374 3.578zm1.093 0c0-1.297.485-2.547 1.282-2.547.828 0 1.28 1.25 1.28 2.547 0 1.328-.452 2.547-1.28 2.547-.797 0-1.282-1.235-1.282-2.547zm0 0"/></symbol><symbol overflow="visible" id="t"><path d="M8.813.563v-.985H5.124v-2.015c1.781-.172 2.766-1.235 2.766-2.547 0-1.407-1.297-2.594-3.329-2.594-2.015 0-3.359 1.14-3.359 2.594 0 1.312 1 2.359 2.781 2.546v2.016H.313v.984zm-4.25-3.938c-1.172 0-2.188-.578-2.188-1.61 0-.952.969-1.624 2.188-1.624 1.218 0 2.187.64 2.187 1.625 0 1.015-.984 1.609-2.188 1.609zm0 0"/></symbol><symbol overflow="visible" id="u"><path d="M8.297-1.703v-6.063H7.203v2.422h-1.36v.938h1.36v.937h-1.36v.938h1.36v.828zM4.672-6.937v-.86H1.89v.86zM5.719-5.47v-.89H.656v.89zM.937-3.547c0 .86.938 1.531 2.25 1.531 1.438 0 2.329-.656 2.329-1.53 0-.892-.86-1.5-2.266-1.5-1.344 0-2.313.624-2.313 1.5zm1.172 0c0-.453.438-.703 1.125-.703.72 0 1.11.234 1.11.703 0 .438-.39.703-1.11.703-.703 0-1.125-.25-1.125-.703zm6.188 5.188v-2.985H1.922v.953h5.234v2.032zm0 0"/></symbol><symbol overflow="visible" id="v"><path d="M8.14-.875v-6.89H7.063v6.89zM3.767-6.297v-1.266H2.609v1.297a3.03 3.03 0 0 1-.64 1.844C1.516-3.828.875-3.359.187-3.032c.313.25.704.579.891.766a5.28 5.28 0 0 0 1.234-.921c.391-.391.735-.829.876-1.266.234.453.593.86 1 1.187.375.313.78.579 1.125.766.187-.234.484-.594.718-.86a3.93 3.93 0 0 1-1.578-1.124c-.422-.5-.687-1.125-.687-1.813zm4.593 7.719V.438H3.125v-2.016H2v3zm0 0"/></symbol><symbol overflow="visible" id="w"><path d="M8.156 1.61v-9.376H7.062V1.61zM1.094-7.188v.984h3.093a5.957 5.957 0 0 1-.875 2.812c-.609 1-1.515 1.844-2.718 2.5.265.172.734.563.937.75a8.032 8.032 0 0 0 2.985-3.25c.593-1.156.875-2.453.89-3.796zm0 0"/></symbol><symbol overflow="visible" id="x"><path d="M5.172-7.516v-.265H3.969v.265c0 .688-.453 1.172-1.14 1.516-.595.313-1.345.531-2.11.656.25.266.515.594.672.828.64-.156 1.328-.343 1.906-.625.531-.28 1-.625 1.281-1.078.313.5.89.875 1.516 1.172a7.36 7.36 0 0 0 1.64.531c.157-.187.438-.562.672-.828-.672-.093-1.453-.312-2.078-.64-.656-.36-1.156-.86-1.156-1.532zm3.64 4.391v-.922H.329v.922h3.64v.844H1.392v.86H6.5v.64H1.39v2.328h6.548v-.86H2.625V.016h5.11v-2.297H5.155v-.86zm0 0"/></symbol><symbol overflow="visible" id="y"><path d="M4.313-5.078v-.031h1.796v-.938H1.313v.938h1.796v.015c-.062.422-.312.813-.671 1.125-.47.406-1.11.703-1.704.875.266.235.61.578.813.813a4.721 4.721 0 0 0 1.297-.703c.375-.282.687-.61.875-.954.219.36.547.657.906.907.406.265.813.469 1.156.562a9.13 9.13 0 0 1 .672-.797 3.572 3.572 0 0 1-1.36-.671c-.405-.313-.718-.72-.78-1.141zm2.546 3.64c-.718.11-2.203.204-2.609.204v-1.391H3.14v1.406H.64v1H2.72c1.344 0 3.39-.11 4.14-.25zM8.281 1.61v-9.375H7.187V1.61zM5.047-6.703v-.922H2.28v.922zm0 0"/></symbol><symbol overflow="visible" id="z"><path d="M8.813-2.406v-.985H5.124v-1.062h2.719v-.969H2.5v-1.14h5.25v-.97H1.39v3.079H4v1.062H.328v.985zM4.563 1.78c2.203 0 3.375-.797 3.375-1.828 0-1.031-1.172-1.797-3.375-1.797-2.188 0-3.391.766-3.391 1.797s1.203 1.828 3.39 1.828zM2.438-.047c0-.61.796-.922 2.124-.922 1.297 0 2.11.344 2.11.938 0 .562-.813.906-2.11.906-1.328 0-2.125-.344-2.125-.922zm0 0"/></symbol><symbol overflow="visible" id="A"><path d="M8.953-3.36v-.968H7.781v-1.078h1.172v-.953H7.781v-1.407H6.688v5.938H7.78V-3.36zM4.61-6.937v-.859H1.781v.86zM5.875-5.53v-.86H.531v.86zM.797-3.72c0 .797 1.031 1.453 2.406 1.453 1.469 0 2.406-.64 2.406-1.468 0-.813-.937-1.407-2.39-1.407-1.39 0-2.422.61-2.422 1.422zm3.656-.015c0 .437-.453.671-1.234.671-.781 0-1.25-.218-1.25-.656 0-.437.468-.672 1.25-.672.781 0 1.234.235 1.234.657zM7.97 0c0-1.094-1.328-1.75-3.219-1.75-1.797 0-3.25.61-3.25 1.719 0 1.11 1.406 1.797 3.234 1.797C6.578 1.766 7.97 1.14 7.97 0zm-5.25-.016c0-.656 1-.875 2.015-.875 1.125 0 1.985.266 1.985.875 0 .61-.938.907-1.969.907-1.031 0-2.031-.282-2.031-.907zm0 0"/></symbol><symbol overflow="visible" id="B"><path d="M6.734-7.766V1.61h1.079v-4.562h1.234v-1.031H7.812v-3.782zM.86-7.219v.969h3.61c0 1.234-.188 2.89-.344 3.906H5.25c.219-1.437.36-3.156.39-4.875zm5.532 5.703c-.72.11-2.579.22-3.282.235v-2.985H2.016v2.985H.39v1h1.14c2.078 0 3.953-.156 4.86-.281zm0 0"/></symbol><symbol overflow="visible" id="C"><path d="M8.094 1.61v-9.376h-1.11V1.61zM5.39-.61v-6.656H4.297v2.25H2.14v-2.25H1.062v6.657zm-1.094-.984H2.14V-4.03h2.156zm0 0"/></symbol><symbol overflow="visible" id="D"><path d="M8.281-.875v-6.89H7.187v2.14H5.47v1.031h1.718v3.719zM8.5 1.422V.438H3.25V-1.61H2.14v3.03zM3.828-5.844v-.547h1.703v-.968H1v.968h1.688v.516c0 .594-.204 1.11-.516 1.563-.453.64-1.14 1.14-1.875 1.421.281.25.656.594.828.766a5.238 5.238 0 0 0 1.344-.938c.36-.343.656-.718.797-1.078.187.36.515.72.859 1 .438.375.906.657 1.219.797.156-.187.437-.562.703-.828a3.658 3.658 0 0 1-1.531-1.015c-.391-.438-.688-1-.688-1.657zm0 0"/></symbol><symbol overflow="visible" id="E"><path d="M7.422 1.36v-7.985h-.734v2.938h-.954V-6.5H5V.984h.734v-3.953h.954V1.36zM2.938-4.626v-.813H4.28v-.625H.813v.625h1.359v.688c0 .953-.156 1.766-.469 2.453A4.316 4.316 0 0 1 .172-.594c.234.14.531.313.687.453.36-.265.735-.656 1.047-1.093.297-.407.532-.875.64-1.297.126.422.345.828.61 1.187.297.375.64.703.969.907.14-.172.36-.36.547-.5a3.485 3.485 0 0 1-1.344-1.516c-.25-.594-.39-1.328-.39-2.172zm0 0"/></symbol><symbol overflow="visible" id="F"><path d="M6.078-6.625V-.75h.75v-3.266h1.11v-.64h-1.11v-1.969zm-.344 3.234c-.546.11-2.015.282-2.843.297l-1.313.016v-2.547H4.61v-.64H.844v3.843c.031 0 1.375 0 1.984-.015 1.047-.032 2.328-.188 2.906-.329zm1.344 4.594v-.64H2.422v-2.016h-.75v2.656zm0 0"/></symbol><symbol overflow="visible" id="G"><path d="M7.11-2.313v-4.312h-.75v1.578H4.624v-1.312h-.719v1.187h-2.25v-1.187H.922v3.687h3.703V-4.39h1.734v2.079zm-3.204-1h-2.25V-4.53h2.25zM7.11 1.282v-3.234h-.75v.922H2.547v-.922h-.75V1.28zm-.75-.61H2.547V-.405h3.812zm0 0"/></symbol><symbol overflow="visible" id="H"><path d="M7.11-.75v-5.875h-.75V-.75zM.61-4.406c0 1.14.874 2.093 2.124 2.093 1.235 0 2.11-.953 2.11-2.093 0-1.172-.875-2.11-2.11-2.11-1.25 0-2.125.938-2.125 2.11zm.765 0c0-.828.5-1.469 1.36-1.469.859 0 1.359.64 1.359 1.469 0 .797-.5 1.437-1.36 1.437-.859 0-1.359-.64-1.359-1.437zm5.969 5.61V.562H2.562v-1.985h-.75v2.625zm0 0"/></symbol><symbol overflow="visible" id="J"><path d="M7.047 1.36v-7.985H6.28v7.984zM4.687-.657v-5.469H.97v5.469zm-.734-.64H1.72V-5.47h2.234zm0 0"/></symbol><symbol overflow="visible" id="K"><path d="M7.203 1.36v-7.985H6.47v2.844h-.985V-6.5H4.75V.984h.734v-4.046h.985v4.421zm-2.75-2.75c-.344.062-1.187.156-1.734.156l-1.063.015V-3.03h2.157v-3.125H.921v.64h2.172v1.844H.922v3.11l1.547-.016A19.11 19.11 0 0 0 4.453-.75zm0 0"/></symbol><symbol overflow="visible" id="L"><path d="M7.203 1.36v-7.985h-.75v7.984zM1.031-4.376c0 1.094.875 2 2.125 2 1.235 0 2.125-.906 2.125-2 0-1.094-.89-1.984-2.125-1.984-1.25 0-2.125.89-2.125 1.984zm.735 0c0-.75.53-1.36 1.39-1.36.86 0 1.36.61 1.36 1.36 0 .75-.5 1.36-1.36 1.36-.86 0-1.39-.61-1.39-1.36zm4.406 3.016c-.64.109-2.531.25-3.219.265-.328.016-2.312.016-2.344.016v.656c.016 0 1.657.016 1.985 0a26.518 26.518 0 0 0 3.578-.297zm0 0"/></symbol><symbol overflow="visible" id="M"><path d="M8.047-3.813v-.671H6.922v-2.141h-.766V-1.5h.766v-2.313zM4.14-6.046v-.594H1.687v.594zm1.14 1.203v-.593H.594v.593zM.921-3.078c0 .719.829 1.312 2 1.312 1.25 0 2.032-.593 2.032-1.312 0-.735-.75-1.328-2.016-1.328-1.203 0-2.015.593-2.015 1.328zm.782-.016c0-.453.484-.719 1.234-.719.766 0 1.235.266 1.235.72 0 .452-.453.75-1.234.75-.75 0-1.235-.282-1.235-.75zm5.219 4.5v-2.515h-5.36v.625h4.579v1.89zm0 0"/></symbol><symbol overflow="visible" id="N"><path d="M7.11-.75v-5.875h-.75v.922H4.421c-.36-.5-.969-.844-1.703-.844-1.235 0-2.11.969-2.11 2.125 0 1.156.875 2.11 2.11 2.11.765 0 1.39-.36 1.75-.891h1.89V-.75zm-.75-3.11H4.75a1.7 1.7 0 0 0 .094-.562c0-.219-.032-.437-.094-.625h1.61zm-4.985-.562c0-.812.5-1.469 1.344-1.469.875 0 1.36.657 1.36 1.47 0 .796-.485 1.452-1.36 1.452-.844 0-1.344-.656-1.344-1.453zm5.953 5.625v-.64H2.562v-1.985h-.75v2.625zm0 0"/></symbol><symbol overflow="visible" id="O"><path d="M7.781-2.156v-.64H6.484c.204-.907.375-2.438.407-3.548H1.156v.64h4.938a16.656 16.656 0 0 1-.39 2.907H.265v.64h3.312V1.36h.75v-3.515zm0 0"/></symbol><symbol overflow="visible" id="Q"><path d="M3.813-4.36v-.015h1.593v-.813h-4.25v.813h1.578v.016c-.046.359-.265.687-.593.968-.407.344-.97.594-1.5.735.234.203.546.5.718.703.422-.156.813-.36 1.141-.61.344-.234.625-.515.781-.812.203.297.485.563.813.781.343.219.703.39 1.015.485.125-.188.375-.47.594-.688a3.35 3.35 0 0 1-1.219-.578c-.343-.266-.625-.61-.671-.984zm2.25 3.126c-.641.093-1.954.171-2.313.171V-2.25h-.969v1.203H.562v.86h1.844c1.172 0 2.985-.094 3.656-.204zm1.25 2.609v-8.016h-.954v8.016zm-2.86-7.11v-.796H2.016v.797zm0 0"/></symbol><symbol overflow="visible" id="R"><path d="M7.203-.75v-5.89h-.969v5.89zM3.328-5.39v-1.094H2.297v1.125c0 .593-.219 1.125-.563 1.562-.39.516-.968.922-1.562 1.203.266.203.625.485.781.656a5.38 5.38 0 0 0 1.094-.796c.344-.329.64-.704.765-1.079.204.376.532.735.891 1.016.328.266.688.5 1 .656.14-.203.422-.515.625-.75a3.228 3.228 0 0 1-1.39-.953c-.376-.437-.61-.969-.61-1.547zm4.063 6.609V.375H2.766v-1.734h-1v2.578zm0 0"/></symbol><symbol overflow="visible" id="S"><path d="M7.781-2.063v-.843h-3.25v-.906h2.39v-.829H2.204v-.984h4.64v-.828H1.235v2.64h2.297v.907H.281v.844zm-3.75 3.594c1.938 0 2.985-.687 2.985-1.562 0-.89-1.047-1.547-2.985-1.547-1.937 0-3 .656-3 1.547 0 .875 1.063 1.562 3 1.562zM2.156-.047c0-.515.703-.781 1.875-.781 1.14 0 1.86.297 1.86.797 0 .484-.72.781-1.86.781C2.86.75 2.156.453 2.156-.047zm0 0"/></symbol><symbol overflow="visible" id="T"><path d="M7.906-2.875v-.828H6.875v-.922h1.031v-.828H6.875v-1.188h-.969v5.063h.969v-1.297zM4.063-5.953v-.734H1.578v.734zm1.125 1.219v-.735H.468v.735zM.702-3.188c0 .688.906 1.25 2.125 1.25 1.297 0 2.125-.546 2.125-1.265 0-.703-.828-1.203-2.11-1.203-1.234 0-2.14.531-2.14 1.218zm3.235-.015c0 .375-.407.578-1.094.578-.688 0-1.11-.188-1.11-.563 0-.374.422-.578 1.11-.578.687 0 1.094.204 1.094.563zM7.046 0c0-.938-1.188-1.5-2.844-1.5-1.594 0-2.875.516-2.875 1.469 0 .953 1.234 1.547 2.86 1.547C5.796 1.516 7.046.984 7.046 0zm-4.64-.016c0-.562.874-.75 1.78-.75.985 0 1.75.235 1.75.75 0 .532-.828.782-1.734.782-.922 0-1.797-.25-1.797-.782zm0 0"/></symbol><symbol overflow="visible" id="U"><path d="M7.797.484v-.843H4.53V-2h2.282v-4.422h-.97v1.313h-3.64v-1.313h-.969V-2h2.282v1.64H.28v.844zM5.844-2.844h-3.64v-1.422h3.64zm0 0"/></symbol><symbol overflow="visible" id="V"><path d="M1.078-6.203v.828h4.766a28.365 28.365 0 0 1-.453 3.953h.968c.25-1.39.47-3.406.532-4.781zM7.797.484v-.843H3.844v-2.985h-.985v2.985H.281v.843zm0 0"/></symbol><symbol overflow="visible" id="W"><path d="M7.203 1.375v-8.016H6.22v2.313H4.53v.906H6.22v4.797zm-3.89-5.938v-1.765H2.296v1.719c0 .796-.172 1.515-.516 2.14C1.406-1.766.828-1.188.094-.75c.281.188.625.469.812.64a6.26 6.26 0 0 0 1.14-1.046c.345-.422.642-.89.767-1.297.203.453.5.906.859 1.281.344.36.719.672 1.031.89.172-.187.438-.437.719-.655-.672-.422-1.234-.938-1.61-1.594-.312-.563-.5-1.219-.5-2.031zm0 0"/></symbol><symbol overflow="visible" id="Y"><path d="M2.766-.547L1.125-6.125H.109L2.266.672h.968l2.172-6.797H4.391zm0 0"/></symbol><symbol overflow="visible" id="Z"><path d="M2.438-3.688c.765 0 1.171.766 1.171 1.922C3.61-.609 3.203.141 2.438.141c-.735 0-1.141-.75-1.141-1.907 0-1.156.406-1.921 1.14-1.921zm0-.75C1.046-4.438.344-3.375.344-1.765c0 1.61.703 2.641 2.094 2.641 1.406 0 2.14-1.031 2.14-2.64 0-1.61-.734-2.673-2.14-2.673zm0 0"/></symbol><symbol overflow="visible" id="aa"><path d="M.563-6.125V.672h.906v-6.797zm0 0"/></symbol><symbol overflow="visible" id="ab"><path d="M.64-.047v1.203h1.25V-.047zm0 0"/></symbol><symbol overflow="visible" id="ac"><path d="M.563-4.219H1.75V.703h.938v-6.922h-.766c-.11.922-.406 1.282-1.36 1.328zm0 0"/></symbol><symbol overflow="visible" id="ad"><path d="M2-6.25C.797-6.25.203-4.89.203-2.656.203-.437.797.906 2 .906c1.203 0 1.828-1.344 1.828-3.562C3.828-4.891 3.203-6.25 2-6.25zm0 .797c.547 0 .906 1.078.906 2.797C2.906-.97 2.546.109 2 .109c-.531 0-.875-1.078-.875-2.765 0-1.719.344-2.797.875-2.797zm0 0"/></symbol><symbol overflow="visible" id="ae"><path d="M15.25-8.61v-6.124h-2.125v1.562h-8.36v-1.562H2.657v6.125zm-2.125-1.656h-8.36v-1.375h8.36zm4.172 4.5v-1.687H.64v1.687zm-1.719 8.704V1.28H5.172V-.016h10.031v-4.437H2.72v1.656h10.015v1.266H2.72v4.468zm0 0"/></symbol><symbol overflow="visible" id="af"><path d="M17.297-3.64v-1.797H10v-1.391h5.422v-1.703H4.969v-1.313h10.14v-4.594H2.734v1.704h10.079v1.312H2.733v4.594h4.907v1.39h-7v1.797zm-2.094 6.796V-2.5H2.516v1.797h10.468v3.86zm0 0"/></symbol><symbol overflow="visible" id="ag"><path d="M16.61 3.063v-17.844H14.53V3.062zM7.843-12.5v-1.813H3.016v1.813zm5.25 14.719v-16.703h-2.078v6.812H8.453v1.906h2.563V2.22zM6.563-8.25v-.875H9.53V-11h-8.25v1.875h3.016v.844a7.207 7.207 0 0 1-1.125 3.906c-.719 1.14-1.719 2.078-2.89 2.813.655.484 1.39.968 1.812 1.343.625-.437 1.265-1.062 1.844-1.765.671-.797 1.218-1.688 1.515-2.516.39.781.89 1.5 1.453 2.125.578.656 1.219 1.219 1.797 1.594.36-.313 1.078-1 1.5-1.39-1.14-.704-2.031-1.548-2.64-2.5a6.749 6.749 0 0 1-1-3.579zm0 0"/></symbol><symbol overflow="visible" id="ah"><path d="M15.938-1.64v-13.141h-2.141v13.14zM1.233-9.845c0 2.578 2 4.719 4.813 4.719 2.812 0 4.797-2.14 4.797-4.719 0-2.61-1.985-4.75-4.797-4.75-2.813 0-4.813 2.14-4.813 4.75zm2.188 0c0-1.594.984-2.875 2.625-2.875 1.687 0 2.64 1.281 2.64 2.875 0 1.563-.953 2.86-2.64 2.86-1.64 0-2.625-1.297-2.625-2.86zM16.359 2.72V.844H5.97v-4.078H3.812v5.953zm0 0"/></symbol><symbol overflow="visible" id="ai"><path d="M13.219-14.797v17.86h2.125v-8.688h2.422v-1.969h-2.422v-7.203zM1.703-13.766v1.86h7.078c-.015 2.36-.375 5.5-.672 7.453h2.188c.453-2.734.719-6.031.765-9.313zM12.547-2.89c-1.406.22-5.063.438-6.453.454v-5.688h-2.14v5.688H.78v1.89H3c4.094 0 7.766-.297 9.547-.515zm0 0"/></symbol><symbol overflow="visible" id="ak"><path d="M17.656-6.234v-1.97h-2.484v-6.577h-2.156V3.062h2.156v-9.296zM10.25-1.172v-12.672H8.125v4.281h-4.25v-4.28H1.75v12.671zm-2.125-1.86h-4.25v-4.64h4.25zm0 0"/></symbol><symbol overflow="visible" id="al"><path d="M15.922 3.063v-17.844h-2.156V3.062zM1.5-7.422c0 4.313 2.016 6.828 4.656 6.828 2.672 0 4.64-2.562 4.64-6.828 0-4.312-1.968-6.828-4.64-6.828-2.625 0-4.656 2.453-4.656 6.828zm2.156-.031c0-2.453.938-4.828 2.516-4.828 1.61 0 2.5 2.36 2.5 4.828 0 2.547-.89 4.875-2.5 4.875-1.578 0-2.516-2.36-2.516-4.875zm0 0"/></symbol><symbol overflow="visible" id="am"><path d="M17.313 1.078V-.797h-7.25v-3.828c3.5-.344 5.437-2.36 5.437-4.875 0-2.688-2.563-4.938-6.547-4.938-3.937 0-6.578 2.172-6.578 4.938 0 2.516 1.953 4.516 5.453 4.844v3.86H.594v1.874zm-8.36-7.516c-2.281 0-4.297-1.093-4.297-3.046 0-1.844 1.907-3.094 4.297-3.094 2.39 0 4.313 1.219 4.313 3.094 0 1.937-1.938 3.046-4.313 3.046zm0 0"/></symbol><symbol overflow="visible" id="an"><path d="M16.156-1.5v-13.281h-2.093V-1.5zm-3.61-.375v-12.61H10.47v3.829H8.53v-3.406H6.47v2.843h-2.75v-2.844H1.625v9.266h6.906v-3.922h1.938v6.844zM6.47-6.672h-2.75v-2.687h2.75zm10.078 9.39V.845H5.969V-2.97H3.812V2.72zm0 0"/></symbol><symbol overflow="visible" id="ao"><path d="M9.484-12.688v-1.796H3.97v1.796zm6.829 15.75V-14.78h-2.157v7.14h-3.375v1.875h3.375v8.829zM7.921-8.562v-.75h3.703v-1.876H1.859v1.876h3.72v.75c0 1.578-.532 2.937-1.36 4.093-.86 1.157-2.063 2.11-3.375 2.828.64.5 1.36 1.079 1.765 1.485A15.709 15.709 0 0 0 5.016-2.22a10.109 10.109 0 0 0 1.75-2.672 10.814 10.814 0 0 0 1.718 2.47C9.22-1.657 10-1.064 10.75-.579c.406-.422.938-1 1.516-1.5-1.188-.563-2.297-1.5-3.125-2.672-.75-1.094-1.22-2.406-1.22-3.813zm0 0"/></symbol><symbol overflow="visible" id="ap"><path d="M13.016-14.797v17.86h2.14v-8.86h2.469v-1.969h-2.469v-7.03zM1.859-13.703v1.875h6.047a10.88 10.88 0 0 1-1.64 5.281C5.094-4.609 3.28-2.953.859-1.703A19.834 19.834 0 0 1 2.703-.266C5.36-1.859 7.313-4 8.563-6.453c1.156-2.219 1.718-4.672 1.765-7.25zm0 0"/></symbol><symbol overflow="visible" id="aq"><path d="M13.156-14.781v12.937h2.14V-8.39h2.36v-1.906h-2.36v-4.484zm-3.031 9.406v-8.688H1.594v8.688zm-2.094-1.86H3.72v-4.968H8.03zm7.781 9.954V.844H5.735v-4.157H3.531V2.72zm0 0"/></symbol><symbol overflow="visible" id="ar"><path d="M17.625-6.188v-2h-2.469v-6.609H13v17.86h2.156v-9.25zm-5.531 2.391c-1.375.297-4.031.61-5.781.64H4.03V-14h-2.14v12.766l4.359-.032c2.234-.03 4.688-.437 5.844-.671zm0 0"/></symbol><symbol overflow="visible" id="as"><path d="M15.922-1.938V-14.78h-2.156v2.297h-3.438v-1.579H1.922v8.891h8.406v-1.781h3.438v5.016zm-2.156-6.828h-3.438v-1.89h3.438zM8.234-7.03H4.016v-5.172h4.218zm8.063 9.75V.844H5.953v-4.157H3.797V2.72zm0 0"/></symbol><symbol overflow="visible" id="at"><path d="M2.828-9.063c.063-2.28.906-3.718 2.578-3.718 1.61 0 2.375 1.219 2.375 2.781 0 .672-.312 1.688-.937 2.375l-.766.875C4.75-5.25 4.172-4.312 4.172-1.719h2.094c0-1.781.39-2.937 1.484-4.093 1.219-1.172 2.234-2.313 2.234-4.172 0-2.47-1.5-4.547-4.515-4.547-2.875 0-4.688 2.125-4.688 5.469zm1.11 9.016v2.563h2.687V-.047zm0 0"/></symbol><symbol overflow="visible" id="au"><path d="M4.563.36c.171 0 .25-.063.25-.126 0-.062-.079-.14-.25-.14C3.438.094 3.28.047 3.28-.625v-6.344c0-.218-.156-.203-.234 0-.235.703-.531.907-1.625.953-.281.016-.25.204 0 .22l.672.015c.61 0 .687.062.687.797v4.359c0 .703-.219.719-1.344.719-.296 0-.265.265 0 .265zm0 0"/></symbol><symbol overflow="visible" id="av"><path d="M1.469.297C1.156.297.89.578.89.907c0 .312.265.593.578.593.312 0 .578-.281.578-.594 0-.328-.266-.61-.578-.61zm0 0"/></symbol><symbol overflow="visible" id="ax"><path d="M7.125-7.156c0-.297.188-.422-.172-.563a2.213 2.213 0 0 0-.75-.156c-.422.031-.39.078-.234.14.406.141.61.22.61.548v.75l-3.563.062L3-6.859c0-.22.125-.344-.188-.47a4.359 4.359 0 0 0-.75-.14c-.484.047-.39.11-.28.14.468.157.671.235.671.579l.031 1.828c0 .61.032.813.235.813.25 0 .312-.407.312-.438l3.531-.062c0 .03 0 .343.204.343.265 0 .328-.375.328-.921zm2.25 3.86c.031-.47-1.5-.423-2.234-.142-.125.047-1.235.11-2.22.11L2.485-3.36c-1-.016-1.234-.063-1.843-.063-.454 0-.782.063-.297.235 1.515.593 1.719.187 2.265.156.047-.016.891-.11 2.5-.094 1.5-.016 2.454-.031 3.172.016.5.015 1.078.078 1.094-.188zM7.562.858C7.25.797 6.688.83 6.484.953c-.218.125-.515.14-.796.14l-2.204.016c-.218.016-.437-.125-.437-.375L3.03-.187l4.016-.016c.297 0 .406 0 .406-.125 0-.188-.344-.156-.344-.156l.204-1.063c.03-.219.359-.36.015-.484-.266-.078-.578-.047-.766.062-.203.11-2.937.094-3.078.094-.453 0-.75-.031-1.156-.063-.406-.03-.515.032-.328.125.969.532 1.234.266 1.375.235.016 0 .297-.063.547-.078l2.797-.032-.032 1.25-3.562.016c-.36-.078-.703-.125-1.031-.094-.297.047-.344.11-.078.188.343.062.468.156.468.437V.75c0 .594.516.594 1 .594l4-.047c.485 0 .594-.328.079-.438zm-.984-7.015l-.031 1.281-3.516.063-.015-1.282zm0 0"/></symbol><symbol overflow="visible" id="ay"><path d="M9.375-2.578c.031-.453-1.5-.422-2.234-.14-.141.046-1.11.062-2.157.093v-1.313l2.313-.015c.484 0 .594-.344.062-.469-.296-.062-.875-.031-1.078.078-.203.14-.515.172-.781.172l-2.188.031a.426.426 0 0 1-.437-.437L2.859-5.5l4.172-.031c.282 0 .407 0 .407-.125 0-.157-.329-.125-.36-.125l.25-1.203c.031-.204.344-.344 0-.47-.266-.093-.594-.062-.781.048-.203.11-3.078.093-3.234.093-.438 0-.72-.03-1.141-.078-.39-.03-.516.063-.328.141.968.531 1.234.266 1.375.234.015 0 .297-.078.547-.093l2.953-.016-.047 1.344-3.719.031c-.36-.078-.703-.125-1.031-.094-.313.047-.344.11-.078.188.343.062.468.156.468.437l.016.672c0 .61.5.625.985.625l1.14-.015v1.312c-.953-.016-1.719 0-1.969-.016-1-.015-1.234-.078-1.843-.078-.454 0-.782.063-.297.25 1.515.594 1.719.203 2.265.156.047 0 .891-.109 2.5-.093 1.5-.016 2.454-.016 3.172.031.5.016 1.078.094 1.094-.203zM7.437.156l-.015-.984c0-.266.344-.453-.14-.563-.298-.046-.423.016-.766.094-.329.094-3.454.156-4.282.016-.734-.063-.546.078-.375.156 1.188.625 1.5.172 2.125.172l2.875-.078.032 1.578c0 .422 0 1.11.171 1.11.22 0 .375-.75.375-1.5zm0 0"/></symbol><symbol overflow="visible" id="az"><path d="M8.25-.61l-.031-6.234c0-.453.234-.687-.094-.812a6.027 6.027 0 0 0-.922-.25c-.437-.016-.484.078-.234.203.547.219.703.344.703.844L7.719 0c0 .734-.047 1.75.156 1.75.281-.016.375-1.031.375-2.36zM3.187-3.077c.47.578 1.11 1.422 1.25 1.625.36.516.75.5.625.078-.046-.172-.296-.688-.515-.906-.234-.188-.297-.094-.5-.281-.11-.063-.422-.407-.703-.72.297-.405.61-.874.922-1.405.234-.329.484-.625.187-.75-.062-.032-.547-.079-.734.03-.281.141-.86.157-1.485.173-.453.015-.812-.047-.968-.063-.344-.047-.516.047-.235.188.797.375.985.28 1.25.156.016 0 .25-.063.5-.078.281-.016.547-.078 1.031-.078-.828 1.937-2.14 3.53-3.25 4.187-.171.094-.078.219.47-.11.546-.343 1.312-.968 2.155-2.046zm2.766-.25L5.97-.36c0 .718-.047 1.734.172 1.734.265 0 .359-1.031.359-2.36l-.047-5.437c0-.469.25-.703-.078-.828-.25-.11-.828-.219-.938-.234-.406-.016-.468.078-.218.187.531.234.718.36.718.86l.016 2.89c-.422.047-1 .094-1.406.031-.61-.062-.5.094-.313.172.922.375 1.032.172 1.172.14.14-.03.36-.108.547-.124zM3.734-6.422c.391-.047.422-.36-.156-.375-.719-.016-.844-.016-1.375-.14-.312-.063-.578 0-.328.156.438.312.672.36.875.375.328.031.516.031.984-.016zm0 0"/></symbol><symbol overflow="visible" id="aA"><path d="M5.36-4.578c0-1.578-1.704-1.797-1.704-1.828 0-.172.11-.219.047-.344-.11-.188-.937-.313-.937-.031 0 .125.343.156.109.406 0 .016-1.75.172-1.75 1.797 0 1.156 1.11 1.797 2.125 1.797 1.016 0 2.11-.64 2.11-1.797zm2.656 2.594l-.047-4.86c0-.453.25-.687-.094-.828-.281-.11-.875-.219-.984-.234-.438-.016-.5.093-.235.203.563.234.766.36.766.86l.047 5.25c0 .421-.016 1.171.187 1.171.219-.016.36-.812.36-1.562zM8.5.734C8.172.688 7.61.688 7.422.828 7.203.968 6.89 1 6.625 1l-2.063.016c-.218 0-.437-.125-.437-.407V-.797c0-.297.219-.484-.25-.562a5.014 5.014 0 0 0-.86-.032c-.5.063-.328.172-.156.204.532.093.704.171.704.656V.563c0 .609.484.687.968.687l3.89-.031c.485 0 .61-.375.079-.485zM4.766-4.578c0 .797-.657 1.516-1.516 1.516-.86 0-1.531-.735-1.531-1.516 0-.89.672-1.516 1.531-1.516.89 0 1.516.719 1.516 1.516zm0 0"/></symbol><symbol overflow="visible" id="aB"><path d="M5.344-3.86c0-1.703-1.813-1.89-1.813-1.937 0-.187.11-.203.031-.375-.109-.219-.906-.36-.937-.031 0 .172.344.187.11.437 0 .016-1.829.188-1.829 1.907 0 1.234 1.14 1.984 2.203 1.984 1.11 0 2.235-.75 2.235-1.984zM8-.61l-.047-6.234c0-.453.25-.672-.11-.812-.25-.11-.843-.235-.968-.25-.422-.016-.484.11-.234.218.562.235.78.344.78.844L7.454 0c0 .734-.031 1.75.172 1.75C7.906 1.734 8 .719 8-.61zM4.734-3.86c0 .922-.64 1.641-1.625 1.641-.937 0-1.609-.75-1.609-1.64 0-.954.672-1.625 1.61-1.625 1.015 0 1.624.765 1.624 1.625zm0 0"/></symbol><symbol overflow="visible" id="aC"><path d="M9.14-4.266c-.265-.03-.718-.062-.843.032-.188.187-.578.28-.875.28l-.031-2.89c0-.453.265-.687-.094-.828-.266-.11-.86-.219-.984-.234-.422-.016-.485.093-.235.203.563.234.781.36.781.86l.032 3.39c-1.375.531-3.563.969-4.61.969-.297 0-.469-.141-.469-.422V-4.36h2.72c.359 0 .39-.032.39-.157s-.297-.14-.297-.156l.25-1.469c.047-.218.453-.453.078-.546a1.139 1.139 0 0 0-.828.062c-.172.078-.922.125-1.89.094-.422 0-.688-.047-1.141-.078-.438-.016-.547.03-.344.14.875.485 1.234.25 1.36.219 0 0 .265-.047.515-.063.281-.046 1.547-.046 1.625-.046l-.031 1.765-2.297-.015c-.313-.032-.672-.157-1.047-.125-.375.03-.563.109-.266.171.454.079.657.125.657.61v1.172c0 .594.218.719.796.719 1.188 0 3.782-.75 4.829-1.266v1.734c0 .407 0 1.157.187 1.157.219-.016.36-.813.36-1.563l-.016-1.781h1.656c.469 0 .563-.39.063-.485zm-1.218 5C7.609.688 7.047.688 6.859.828 6.625.968 6.313 1 6.063 1l-1.97.016c-.218 0-.437-.125-.437-.407V-.625c0-.313.219-.5-.234-.563a3.952 3.952 0 0 0-.875-.03c-.5.062-.313.171-.14.202.53.094.702.172.702.657v.921c0 .61.485.688.97.688l3.765-.031c.484 0 .61-.375.078-.485zm0 0"/></symbol><symbol overflow="visible" id="aD"><path d="M7.39-4.375c0-.156-.374-.11-.39-.11l.281-2.296c.032-.266.516-.375.078-.563-.328-.14-.578-.047-.843.047-.172.063-3.266.094-3.422.094-.25 0-.61-.125-1.047-.125-.422.016-.61.094-.422.14.39.094.656.188.672.5l.203 2.47c.031.374.094.484.219.484.14 0 .25-.125.297-.438.125 0 2.609-.062 3.984-.062.203 0 .39 0 .39-.141zm1.876 1.828c0-.437-1.5-.437-2.22-.14-.296.124-3.89.14-4.484.14-1 0-1.234-.078-1.843-.078-.438 0-.766.063-.297.25 1.516.594 1.719.188 2.265.156.032 0 .563-.078 1.766-.125L4.47 0c0 .734-.032 1.75.172 1.75.28 0 .375-1.031.375-2.36L5-2.36h.11c1.5-.015 2.374-.015 3.062.032.515 0 1.094.078 1.094-.219zM6.656-7.03l-.11 2.547-3.515.062L2.921-7zm0 0"/></symbol><symbol overflow="visible" id="aE"><path d="M4.75-4.781c0 .781-.64 1.484-1.5 1.484S1.719-4.016 1.719-4.78c0-.875.672-1.5 1.531-1.5.875 0 1.5.703 1.5 1.5zm.766 4.047c.671.5 2.156 1.656 2.625 2.046.468.391.921.235.625-.156-.157-.265-.5-.578-.688-.703-.36-.219-.437-.078-.797-.281-.25-.14-1.187-.797-1.593-1.125.093-.14.203-.297.28-.453.157-.219.345-.313.016-.563-.265-.203-.609-.422-.78-.437-.5-.047-.47.015-.298.125.469.265.485.453.407.687C4.905-.328 3.468 1.078 2.39 1.531c-.266.125-.188.188.328.032C3.547 1.25 4.672.39 5.516-.735zm1.906-4.11l.031 2.282c0 .406-.016 1.124.172 1.124.219-.015.36-.78.36-1.515l-.032-3.89c0-.454.234-.673-.11-.813-.265-.125-.843-.235-.984-.25-.421-.016-.484.093-.234.218.578.235.781.344.781.844l.016 1.766c-.563.062-1.422.11-1.86.062-.03 0-.156-.03-.234-.03-.172-1.313-1.687-1.5-1.687-1.532 0-.172.125-.219.046-.344-.109-.187-.921-.312-.921-.031 0 .14.343.172.109.422 0 0-1.75.156-1.75 1.75 0 1.14 1.11 1.75 2.125 1.75 1.016 0 2.094-.61 2.094-1.75v-.047c.828.312.968.187 1.265.094.157-.047.25-.047.5-.094.032 0 .204 0 .313-.016zm0 0"/></symbol><symbol overflow="visible" id="aF"><path d="M5.156-6.125c-.11-.031-.593-.094-.797.016-.265.125-1.5.156-2.28.156-.47 0-.845-.063-.985-.078-.375-.032-.532.031-.235.187.813.39.97.282 1.235.188.015 0 .234-.078.5-.094.281 0 1.297-.031 1.906-.063C3.484-3.28 1.64-1.28.61-.655c-.25.156-.063.219.5-.11 1.062-.64 2.671-2.25 3.874-4.562.172-.328.641-.672.172-.797zm4 2.484c-.281-.03-.734-.062-.844.032-.187.187-.609.25-.874.265l-.016-3.5c0-.453.234-.672-.11-.812-.265-.11-.859-.235-.984-.25-.422-.016-.484.11-.234.218.562.235.781.344.781.844L6.906 0c0 .734-.031 1.75.172 1.75.281-.016.375-1.031.375-2.36l-.031-2.562h1.656c.485 0 .578-.375.078-.469zm0 0"/></symbol><symbol overflow="visible" id="aG"><path d="M2.89-7.578c-.718 0-1.25.125-1.796.594C.766-6.688.5-6.188.5-5.766c0 .422.188.75.563.75.25 0 .515-.218.515-.53 0-.345-.172-.313-.36-.516l-.062-.079c-.203-.64.75-1.156 1.36-1.156 1.25-.031 2.015.594 2.015 1.86 0 .921-.86 1.64-1.312 2.218-.485.61-.781.86-.781 2.063 0 .156.078.234.156.234.062 0 .125-.078.125-.234v-.328c0-.72.469-1.297.953-1.735.719-.625 1.547-1.219 1.547-2.187 0-1.328-1.032-2.172-2.328-2.172zM2.563.344c-.312 0-.578.281-.578.61 0 .312.266.577.579.577A.587.587 0 0 0 3.14.953c0-.328-.266-.61-.579-.61zm0 0"/></symbol><symbol overflow="visible" id="aH"><path d="M5.125-1.625c.016-.234-.172-.313-.234 0-.157.89-.235 1.563-.86 1.563H1.234c.266-.5 1.266-1.516 2.579-2.72.64-.593 1.28-1.265 1.28-2.265C5.094-6.266 4-7.03 3-7.03c-.313 0-.75.093-1.047.218-.328.157-.719.5-.89.86a2.18 2.18 0 0 0-.22.86c0 .468.126.78.548.827a.41.41 0 0 0 .468-.375c0-.125-.03-.343-.187-.437-.172-.094-.36-.016-.36-.36 0-.75.75-1.296 1.454-1.296 1.078 0 1.703.609 1.734 1.546.031 1.11-.688 1.86-1.188 2.344C2.547-2.078.672-.078.672.203c0 .14.015.188.14.172 1.532-.078 2.75-.11 4 0 .11.016.141-.031.141-.125zm0 0"/></symbol><symbol overflow="visible" id="aI"><path d="M4.984-5.875c0-.297.141-.453-.171-.563-.313-.093-.625-.156-.829-.156-.39.032-.359.094-.218.157.421.156.671.25.671.562v1.234l-2.687.032-.031-.97c0-.218.125-.343-.172-.468a3.548 3.548 0 0 0-.813-.14c-.484.03-.375.093-.28.14.468.14.734.313.734.61l.015 3.187c0 .625.031.844.234.844.25 0 .313-.438.313-.469l2.688-.031c0 .015-.016.375.203.375.265 0 .312-.407.312-.969zm4.11 2.016c-.281-.032-.735-.063-.844.03-.188.204-.625.25-.906.282v-3.297c0-.453.25-.672-.094-.812-.266-.11-.86-.235-.984-.25-.438-.016-.485.11-.235.218.563.235.766.344.766.844L6.844 0c0 .734-.047 1.75.187 1.75.266-.016.36-1.031.36-2.36l-.047-2.765h1.672c.484 0 .578-.375.078-.484zm-4.656-.516l-.016 2.188-2.672.046-.016-2.187zm0 0"/></symbol><symbol overflow="visible" id="aJ"><path d="M6.484-4.688C6.484-3.75 5.797-3 4.734-3 3.672-3 2.97-3.797 2.97-4.688c0-.937.703-1.687 1.765-1.687 1.094 0 1.75.813 1.75 1.688zM5-2.688c1.078-.124 2.11-.843 2.11-2 0-1.718-1.923-1.937-1.923-1.968 0-.188.094-.235 0-.344-.156-.25-.968-.39-1-.031 0 .093.407.14.141.406 0 0-1.969.172-1.969 1.938 0 1.14 1.032 1.875 2.079 2l.015 2.171c-.89 0-1.594.016-1.86 0C1.594-.53 1.36-.578.75-.609c-.453 0-.766.093-.297.25 1.578.53 1.75.218 2.281.171.032-.015.75-.14 2.36-.109 1.5-.047 2.328-.047 3.015.016.516 0 1.094.047 1.094-.235.016-.437-1.515-.39-2.234-.125-.125.063-1.063.125-1.969.11zm0 0"/></symbol><symbol overflow="visible" id="aK"><path d="M4.11-7.453c.14-.39-.204-.563-.344-.172l-3.22 8.86c-.077.202-.015.327.063.374.094.032.204-.015.282-.203zm0 0"/></symbol><symbol overflow="visible" id="aL"><path d="M4.36-3.61c0 .579-.563 1.11-1.25 1.11-.672 0-1.188-.547-1.188-1.11 0-.703.5-1.218 1.187-1.218.704 0 1.25.531 1.25 1.219zM8.561.876C8.25.828 7.673.844 7.484.953c-.234.14-.593.156-.812.156l-2.188.016c-.218 0-.437-.14-.437-.39v-.829H7.89c.296 0 .421 0 .421-.11 0-.187-.343-.155-.343-.171l.203-.969c.031-.218.39-.343.015-.484-.28-.078-.593-.063-.765.047-.219.125-2.828.093-2.969.093-.437 0-.75-.03-1.14-.078-.407-.03-.532.032-.344.141.969.516 1.265.25 1.39.234.016 0 .282-.062.563-.078L7.578-1.5 7.531-.328H4.125c-.36-.063-.703-.11-1.031-.094-.313.047-.36.11-.078.188.343.062.468.156.468.437V.75c0 .594.516.61.985.61l4-.048c.484 0 .61-.328.094-.437zm-2.53-4.89c-.345.03-.75.062-1.048 0H4.86c-.265-.938-1.406-1.032-1.406-1.063 0-.14.094-.172.031-.266-.125-.125-.75-.25-.75-.031 0 .11.266.094.11.328 0 0-1.469.125-1.469 1.438 0 .875.89 1.375 1.734 1.375s1.797-.5 1.797-1.375c0-.047 0-.094-.015-.125.593.234.64.078.75.046.015 0 .171-.078.39-.124l.016.406c0 .5-.016 1.219.172 1.219.265 0 .375-.813.375-1.61l-.047-2.64c0-.454.25-.672-.094-.813-.25-.11-.812-.219-.937-.234-.422-.016-.47.078-.22.187.548.234.704.36.704.86zm2.296.218l-.031-3.047c0-.453.234-.703-.11-.828-.25-.11-.812-.219-.921-.234-.422-.016-.485.078-.235.187.547.235.719.36.719.86l.047 3.453c0 .5-.016 1.219.172 1.219.25 0 .36-.813.36-1.61zM5.313-6.03c-.22-.063-.985-.157-1.422-.032-.485.172-1.157.172-1.672.141C1.625-5.938 1.266-5.969.89-6c-.25-.031-.625.047-.172.25 1.078.453 1.203.125 1.781.078.719-.078 2.14-.047 2.734-.016.282 0 .407-.218.079-.343zM3.89-6.75c.406-.047.437-.344-.157-.344-.734-.015-.859-.031-1.39-.14-.313-.063-.578 0-.328.14.437.313.671.344.89.375.313.016.516.016.985-.031zm0 0"/></symbol><symbol overflow="visible" id="aM"><path d="M9.203-.578C9.22-1 7.688-.968 6.97-.703c-.14.047-1.016.11-1.844.11-1.219 0-2.219-.016-2.469-.016-1 0-1.234-.063-1.844-.063-.453 0-.765.063-.312.235 1.531.593 1.75.203 2.281.156.047-.016.719-.11 2.328-.094 1.516-.016 2.297-.047 3 .016.5 0 1.079.078 1.094-.22zm-4.64-4.594c.703.422 2.687 1.656 3.203 2 .53.328.906.14.593-.25-.203-.234-.593-.562-.828-.656-.36-.125-.328-.016-.718-.156-.282-.094-1.641-.875-2.079-1.141.188-.234.36-.5.516-.75.11-.188.328-.313.016-.563-.266-.218-.625-.453-.797-.468-.516-.047-.469.015-.282.125.454.281.438.484.36.703-.531 1.547-2.422 3.047-3.578 3.5-.235.078-.11.187.406 0 .906-.344 2.172-1.125 3.188-2.344zm0 0"/></symbol><symbol overflow="visible" id="aN"><path d="M6.516-.984l-.032-5.438c0-.469.25-.703-.093-.828-.25-.11-.813-.219-.922-.234-.422-.016-.485.078-.235.187.547.234.72.36.72.86v2.984c-.641.047-1.313.094-1.735.047-.578-.047-.485.125-.313.203.938.406 1.11.172 1.219.14 0 0 .25-.078.516-.109 0 0 .203-.031.312-.031L5.984-.36c0 .718-.03 1.734.172 1.734.282 0 .36-1.031.36-2.36zM8.28-.61l-.047-6.235c0-.453.235-.687-.093-.812a6.027 6.027 0 0 0-.922-.25c-.422-.016-.469.078-.219.203.531.219.703.344.703.844L7.734 0c0 .734-.046 1.75.172 1.75.282-.016.375-1.031.375-2.36zM3.266-3.72C2.5-2.25 1.484-1.094.78-.688c-.25.172-.078.235.438-.109C2.28-1.469 3.594-2.984 4.53-5.172c.14-.312.532-.672.157-.797-.11-.031-.532-.093-.735.016-.25.125-.875.156-1.61.156-.437 0-.827-.047-.952-.078-.36-.031-.516.031-.235.188.813.406.953.265 1.219.187 0 0 .219-.078.469-.094.297 0 .64-.031 1.203-.062a11.66 11.66 0 0 1-.656 1.703c-.344.047-.86.062-1.313.094a6.253 6.253 0 0 1-.969 0c-.343 0-.5.046-.218.187.828.36.968.235 1.203.125.015 0 .234-.094.484-.11.156-.015.453-.046.688-.062zm0 0"/></symbol><symbol overflow="visible" id="aO"><path d="M4.734-3.86c0 .922-.64 1.641-1.625 1.641-.937 0-1.609-.75-1.609-1.64 0-.954.672-1.625 1.61-1.625 1.015 0 1.624.765 1.624 1.625zm2.704-.062L7.452 0c0 .734-.031 1.75.172 1.75C7.906 1.734 8 .719 8-.61l-.047-6.234c0-.453.25-.672-.11-.812-.25-.11-.843-.235-.968-.25-.422-.016-.484.11-.234.218.562.235.78.344.78.844l.016 2.703c-.578.032-1.468.079-1.89.032-.031 0-.14-.032-.219-.032-.172-1.437-1.797-1.609-1.797-1.656 0-.187.11-.203.031-.375-.109-.219-.906-.36-.937-.031 0 .172.344.187.11.437 0 .016-1.829.188-1.829 1.907 0 1.234 1.14 1.984 2.203 1.984 1.11 0 2.235-.75 2.235-1.984v-.047c.828.297.968.187 1.25.094.172-.047.25-.047.515-.094.016 0 .204-.016.329-.016zm0 0"/></symbol><symbol overflow="visible" id="aP"><path d="M7.281-.047c0 .719-.61 1.36-1.39 1.36C5.109 1.313 4.5.64 4.5-.048c0-.812.61-1.39 1.39-1.39.813 0 1.391.64 1.391 1.39zm.594-.015c0-1.47-1.594-1.641-1.594-1.657 0-.156.125-.218.032-.328-.125-.172-.875-.281-.875-.047 0 .14.296.156.125.39 0 .016-1.657.173-1.657 1.641 0 1.047 1.016 1.657 1.985 1.657.953 0 1.984-.61 1.984-1.657zM4.75-4.782c0 .782-.64 1.485-1.5 1.485S1.719-4.016 1.719-4.78c0-.875.672-1.5 1.531-1.5.875 0 1.5.703 1.5 1.5zm.594 0c0-1.562-1.703-1.78-1.703-1.796 0-.172.125-.219.046-.344-.109-.187-.921-.312-.921-.031 0 .14.343.172.109.406 0 .016-1.75.172-1.75 1.766 0 1.14 1.11 1.75 2.125 1.75 1.016 0 2.094-.61 2.094-1.75zm2.078-1.155l.016 1.968c-.563.047-1.407.094-1.844.047-.625-.062-.5.094-.328.156.968.375 1.203.157 1.328.125.015 0 .297-.062.547-.093.03 0 .203-.016.296-.016l.016.75c0 .438-.016 1.125.172 1.125.219 0 .36-.75.36-1.5l-.032-3.469c0-.453.234-.672-.11-.812-.265-.125-.843-.235-.984-.25-.421-.016-.484.093-.234.218.578.235.781.344.781.844l.016.688c-.563.031-1.406.093-1.828.031-.625-.047-.5.094-.328.172.968.36 1.203.156 1.328.125.015 0 .297-.063.547-.11h.28zm0 0"/></symbol><symbol overflow="visible" id="aQ"><path d="M4.75-4.766c0 .782-.64 1.47-1.5 1.47s-1.531-.72-1.531-1.47c0-.875.672-1.5 1.531-1.5.875 0 1.5.704 1.5 1.5zm.594 0c0-1.562-1.703-1.765-1.703-1.796 0-.172.125-.22.046-.344-.109-.188-.921-.313-.921-.032 0 .125.343.157.109.407 0 .015-1.75.172-1.75 1.765 0 1.125 1.11 1.75 2.125 1.75 1.016 0 2.094-.625 2.094-1.75zM7.937.156L7.923-1.25c0-.281.328-.469-.14-.594-.313-.047-.438.016-.766.11-.344.093-3.391.171-4.22.046-.733-.062-.546.079-.374.157 1.203.61 1.5.172 2.14.156l2.782-.094.031 2.016c0 .422-.016 1.11.172 1.11.234-.016.36-.75.39-1.5zm-.53-6.093c.015.828.03 1.968.015 1.968-.563.047-1.39.094-1.828.047-.625-.062-.5.094-.328.156.968.375 1.203.157 1.328.125.015 0 .297-.062.547-.093.03 0 .187-.016.296-.016v.406c0 .422 0 1.156.188 1.156.219 0 .36-.812.36-1.546l-.032-3.11c0-.453.234-.672-.11-.812-.265-.125-.843-.235-.984-.25-.421-.016-.484.093-.234.218.578.235.766.344.766.844l.015.688c-.562.031-1.39.093-1.812.031-.625-.047-.5.094-.328.172.968.36 1.203.156 1.328.125.015 0 .297-.063.547-.11h.265zm0 0"/></symbol><symbol overflow="visible" id="aR"><path d="M4.219-3.828c0 .828-.594 1.5-1.422 1.5s-1.422-.703-1.422-1.5c0-.875.594-1.5 1.422-1.5.86 0 1.422.656 1.422 1.5zm1.843-.281c-.375.062-.859.078-1.187.03-.031 0-.063 0-.094-.015-.172-1.328-1.61-1.515-1.61-1.547 0-.156.079-.156.017-.343-.11-.188-.829-.313-.829-.032 0 .172.297.188.079.391 0 .031-1.657.188-1.657 1.797 0 1.156 1.047 1.812 2.016 1.812.969 0 2.015-.656 2.015-1.812.625.25.735.094.844.062 0 0 .157-.078.407-.125l.015 3.532c0 .718-.047 1.734.156 1.734.282 0 .36-1.031.36-2.36l-.032-5.437c0-.469.25-.703-.093-.828-.25-.11-.813-.219-.922-.234-.422-.016-.484.078-.219.187.531.234.703.36.703.86zm2.235 3.5L8.25-6.844c0-.453.25-.687-.094-.812-.25-.11-.812-.235-.922-.25-.406-.016-.468.078-.218.203.53.219.718.344.718.844L7.766 0c0 .734-.047 1.75.171 1.75.266-.016.36-1.031.36-2.36zm0 0"/></symbol><symbol overflow="visible" id="aS"><path d="M3.203-3.828c.453.5 1.344 1.547 1.75 2.078.344.469.797.484.563-.078a4.06 4.06 0 0 0-.5-.797c-.188-.219-.282-.156-.594-.344-.125-.11-.719-.703-1.078-1.094.312-.53.594-1.078.844-1.656.14-.218.234-.375-.063-.578-.25-.172-.75-.422-.953-.422-.344-.031-.313.063-.063.219.47.25.407.406.297.875-.375 1.703-1.89 3.64-2.781 4.297-.281.203-.063.234.375-.078.875-.61 1.594-1.453 2.203-2.422zm4.172-.344L7.391 0c0 .734-.032 1.75.171 1.75.282-.016.375-1.031.375-2.36l-.03-6.234c0-.453.234-.672-.11-.812-.266-.11-.86-.235-.969-.25-.437-.016-.5.11-.25.218.563.235.781.344.781.844v2.438c-.578.078-1.75.14-2.203.093-.625-.046-.5.11-.312.188.968.36 1.156.172 1.281.14.016 0 .234-.078.484-.124.063 0 .547-.032.766-.063zm0 0"/></symbol><symbol overflow="visible" id="aT"><path d="M5.25-4.828c0 .812-.61 1.5-1.563 1.5-.937 0-1.562-.719-1.562-1.5 0-.813.625-1.5 1.563-1.5.984 0 1.562.734 1.562 1.5zm.61.016c0-1.579-1.735-1.766-1.735-1.782 0-.156.094-.187 0-.297-.14-.234-.938-.359-.953-.062 0 .125.375.156.125.375 0 .016-1.781.172-1.781 1.766C1.516-3.688 2.64-3 3.687-3 4.766-3 5.86-3.688 5.86-4.813zM7.577-2c-1.031.188-4.062.594-5.469.594-.421 0-.75-.016-1.093-.047-.532-.031-.5.125-.157.281 1.266.563 1.516.156 2.079.078 1.14-.047 3.515-.437 4.64-.672L7.594 0c0 .734-.047 1.75.172 1.75.28-.016.375-1.031.375-2.36l-.047-6.234c0-.453.234-.672-.11-.812-.265-.11-.859-.235-.984-.25-.422-.016-.484.11-.234.218.562.235.78.344.78.844zm0 0"/></symbol><symbol overflow="visible" id="aU"><path d="M4.625-4.61c0 .563-.563 1.048-1.25 1.048-.656 0-1.234-.516-1.234-1.047 0-.657.578-1.094 1.234-1.094.719 0 1.25.469 1.25 1.094zM7.813.923C7.484.875 6.938.89 6.734 1c-.234.125-.593.156-.812.156l-2.156.016c-.22 0-.438-.14-.438-.406l-.015-.75h3.796c.313 0 .422 0 .422-.125 0-.188-.328-.157-.328-.157l.203-.906c.032-.203.39-.344.016-.469-.281-.093-.594-.062-.766.047-.218.11-2.797.078-2.922.078-.453 0-.734-.015-1.156-.062-.406-.031-.515.031-.328.14.969.5 1.266.25 1.39.22 0 0 .282-.063.547-.079l2.625-.016-.046 1.094h-3.36c-.36-.062-.703-.11-1.031-.093-.313.046-.344.109-.094.171.344.078.469.157.469.438l.016.5c0 .594.515.61.984.61l3.984-.048c.454 0 .594-.328.079-.437zM3-6.25c.031.11.281.125.11.313 0 0-1.532.093-1.532 1.328 0 .703.625 1.203 1.531 1.28v.767a12.38 12.38 0 0 1-1.453.046 19.27 19.27 0 0 1-1.078-.062c-.531-.031-.515.094-.172.25 1.219.578 1.516.203 2.078.11a64.293 64.293 0 0 0 4.5-.563v.062c0 .313.047.688.172.688.219-.016.375-.563.375-1.297l-.015-.719h1.64c.485 0 .594-.375.078-.469-.265-.03-.734-.062-.843.032-.204.187-.579.234-.86.25l-.047-2.61c0-.453.25-.672-.093-.828-.282-.11-.875-.219-.985-.234-.437-.016-.5.093-.234.203.562.25.766.36.766.86l.03 3.89c-.609.11-2.077.265-3.312.344v-.72c.844-.093 1.547-.593 1.547-1.28 0-1.22-1.469-1.329-1.469-1.36 0-.125.094-.156.016-.25-.016-.031-.031-.031-.047-.062.813 0 1.75 0 2.156.031.282 0 .407-.203.063-.328-.203-.078-1.031-.14-1.469-.016-.5.157-1.594.157-2.14.125-.594 0-.97-.031-1.344-.062-.266-.032-.672.031-.188.25 1.11.437 1.25.11 1.828.062.11-.015.25-.031.391-.031zm1.25-.875c.422-.031.484-.297-.156-.328-.766-.016-1.063-.063-1.594-.172-.328-.063-.61-.016-.344.14.469.282.688.36.938.391.312.032.672 0 1.156-.031zm0 0"/></symbol><symbol overflow="visible" id="aV"><path d="M6.188-.094c0 .766-.579 1.375-1.454 1.375-.859 0-1.453-.625-1.453-1.375S3.86-1.5 4.734-1.5c.875 0 1.454.656 1.454 1.406zm.609 0c0-1.468-1.625-1.625-1.625-1.64 0-.172.062-.204.016-.329-.188-.156-.891-.28-.891-.03 0 .124.297.155.078.374 0 0-1.688.157-1.688 1.625 0 1.047 1.063 1.688 2.047 1.688.985 0 2.063-.64 2.063-1.688zM6.266-5.75c0 .781-.625 1.39-1.563 1.39-.906 0-1.531-.64-1.531-1.39 0-.781.625-1.39 1.531-1.39.969 0 1.563.64 1.563 1.39zm-.313 1.39c.531-.28.938-.765.938-1.39 0-1.453-1.735-1.64-1.735-1.64 0-.173.078-.204.016-.313-.172-.188-.938-.313-.953-.031 0 .093.343.125.11.343 0 .016-1.782.172-1.782 1.641 0 1.047 1.11 1.703 2.156 1.703.281 0 .563-.031.813-.125.203.078.343.234.312.453l-.062.797c-.61.016-1.282.047-1.907.047l-.015-.703c-.016-.297.187-.453-.172-.563-.25-.078-.563-.093-.735-.109-.39.016-.5.078-.25.14.297.079.563.173.579.532l.062.672c-.453.031-.734.015-.875.015-1-.015-1.234-.062-1.844-.062-.453 0-.78.047-.296.219 1.53.578 1.734.203 2.25.14.062 0 .937-.094 2.53-.094 1.516-.015 2.5-.015 3.204.016.515.016 1.078.094 1.11-.187.015-.438-1.516-.407-2.235-.141-.094.031-.406.063-.86.078l.094-.812c.016-.297.203-.422-.14-.532-.047-.03-.22-.062-.313-.093zm0 0"/></symbol><symbol overflow="visible" id="aW"><path d="M9.14-4.844c-.265-.031-.718-.062-.843.032-.188.187-.594.234-.875.265L7.39-6.844c0-.453.25-.672-.094-.812-.266-.125-.86-.235-.984-.25-.422-.016-.485.093-.235.218.563.235.781.344.781.844l.032 3.813c0 .437 0 1.172.187 1.172.219-.016.36-.797.36-1.547l-.032-.969h1.657c.484 0 .578-.36.078-.469zM5.032-6.375c0-.313.14-.469-.172-.563a2.534 2.534 0 0 0-.812-.156c-.406.032-.375.094-.234.157.421.14.671.234.671.562l-.015.969-2.719.062-.016-.75c0-.218.125-.343-.187-.468-.313-.094-.563-.125-.797-.157-.484.047-.39.11-.281.157.453.14.734.312.734.625v2.562c.016.61.031.844.25.844.25 0 .297-.453.297-.469l2.75-.063c0 .032-.031.376.188.376.265 0 .328-.407.328-.954zM7.36-.062c0-1.47-1.578-1.641-1.578-1.657 0-.156.11-.218.032-.328-.141-.172-.891-.281-.891-.047 0 .14.297.156.125.39 0 .016-1.656.173-1.656 1.641 0 1.047 1.015 1.657 1.984 1.657.969 0 1.984-.61 1.984-1.657zM4.5-5.125l-.031 1.797-2.703.062-.016-1.812zM6.766-.047c0 .719-.61 1.36-1.391 1.36S3.985.64 3.985-.048c0-.812.609-1.39 1.39-1.39.813 0 1.39.64 1.39 1.39zm0 0"/></symbol><symbol overflow="visible" id="aX"><path d="M4.953-4.578c0-1.578-1.703-1.797-1.703-1.828 0-.172.11-.219.031-.344-.11-.188-.906-.313-.906-.031 0 .125.344.156.094.406 0 .016-1.75.172-1.75 1.797 0 1.156 1.11 1.797 2.125 1.797s2.11-.64 2.11-1.797zm4.188.078c-.266-.031-.72-.063-.844.031-.188.188-.594.235-.86.266l-.03-2.64c0-.454.25-.688-.11-.829-.266-.11-.86-.219-.984-.234-.422-.016-.485.093-.22.203.548.234.766.36.766.86l.047 5.25c0 .421-.015 1.171.172 1.171.219-.016.375-.812.375-1.562l-.031-2.047h1.656c.469 0 .578-.36.063-.469zM7.92.734C7.61.688 7.048.688 6.86.828 6.625.968 6.313 1 6.063 1l-1.954.016c-.234 0-.453-.125-.453-.407V-.797c0-.297.219-.484-.234-.562a5.202 5.202 0 0 0-.875-.032c-.485.063-.313.172-.14.204.53.093.702.171.702.656V.563c0 .609.485.687.97.687l3.765-.031c.484 0 .61-.375.078-.485zM4.36-4.578c0 .797-.656 1.516-1.515 1.516a1.54 1.54 0 0 1-1.531-1.516c0-.89.656-1.516 1.53-1.516.891 0 1.516.719 1.516 1.516zm0 0"/></symbol><symbol overflow="visible" id="aY"><path d="M6.969-5.516c0-1.484-1.75-1.687-1.75-1.703 0-.156.093-.187.015-.297-.171-.187-.937-.312-.968-.03 0 .093.359.124.125.343 0 .016-1.797.203-1.797 1.687 0 1.094 1.11 1.75 2.172 1.75 1.078 0 2.203-.656 2.203-1.75zM9.406-2.5c.031-.469-1.5-.422-2.234-.14-.125.046-1.36.078-2.328.093l-2.39-.015c-1-.016-1.235-.063-1.845-.063-.453 0-.78.063-.296.234 1.515.594 1.718.204 2.25.157.062-.016.937-.11 2.53-.094 1.516-.016 2.5-.031 3.204.015.515.016 1.078.094 1.11-.187zM7.703.734c-.328-.078-.89-.046-1.078.094C6.406.968 6 1 5.828 1l-2.36.016c-.218 0-.437-.125-.437-.407V-.469c0-.328.219-.515-.234-.578a5.334 5.334 0 0 0-.875-.031c-.5.062-.313.172-.14.203.515.094.687.172.687.656v.797c0 .61.484.688.984.688l4.172-.047c.484 0 .594-.375.078-.485zm-1.36-6.25c0 .813-.624 1.422-1.577 1.422-.938 0-1.563-.64-1.563-1.422 0-.796.625-1.406 1.563-1.406.984 0 1.578.656 1.578 1.406zm0 0"/></symbol><symbol overflow="visible" id="aZ"><path d="M3.688-3.438l-.016-.078C4.422-3.734 5-4.39 5-5.187c0-1.22-.953-1.844-2.031-1.844C1.703-7.031 1-6.094 1-5.438c0 .36.203.594.516.594.25 0 .484-.25.453-.531 0-.156-.094-.266-.282-.375-.14-.094-.14-.203-.062-.36.188-.421.61-.671 1.234-.671.97-.016 1.579.64 1.579 1.593 0 .516-.25.954-.61 1.266-.328.297-.828.39-1.281.344C2.312-3.61 2-3.641 2-3.438c0 .079.047.11.156.141l.735-.031c.875-.031 1.718.61 1.718 1.734 0 1.14-.734 1.86-1.875 1.86-.53 0-1.203-.313-1.406-.782-.062-.156 0-.28.11-.343.265-.172.343-.235.343-.438a.476.476 0 0 0-.484-.484c-.344-.016-.578.265-.578.625C.719-.031 1.844.547 2.875.547c1.219 0 2.313-.813 2.313-2.094 0-.953-.625-1.719-1.5-1.89zm0 0"/></symbol><symbol overflow="visible" id="ba"><path d="M8.016.734C7.687.688 7.14.688 6.937.828c-.218.14-.53.172-.78.172l-1.86.016c-.219 0-.438-.125-.438-.407V-.719c0-.312.22-.5-.234-.562a3.848 3.848 0 0 0-.86-.032c-.515.063-.328.172-.156.204.532.093.704.171.704.656V.563c0 .609.484.687.953.687l3.671-.031c.485 0 .594-.375.079-.485zm1.203-4.89c-.266-.032-.719-.063-.828.031-.204.203-.594.25-.875.266l-.032-2.985c0-.453.25-.687-.093-.828-.266-.11-.86-.219-.985-.234-.437-.016-.484.093-.234.203.562.234.766.36.766.86L7-1.594c0 .421-.016 1.171.172 1.171.219-.016.36-.812.36-1.562l-.016-1.688h1.64c.485 0 .578-.375.063-.484zm-6.25-.235C3.5-3.906 4.516-3 4.906-2.625c.39.36.688.297.547-.094-.047-.125-.36-.578-.64-.812-.25-.14-.235-.031-.563-.188-.125-.078-.797-.61-1.125-.906.36-.484.64-.969.828-1.39.11-.25.297-.313-.094-.61-.218-.172-.64-.438-.828-.469-.39-.047-.312.094-.11.219.517.313.438.5.313.875C2.61-4.297 1.156-2.719.266-2.25c-.36.188-.047.219.421-.031.829-.438 1.641-1.266 2.282-2.11zm0 0"/></symbol><symbol overflow="visible" id="bb"><path d="M7.39.86L4.173.89 4.156-.671l3.235-.031zm.548-.344v-2.172c0-.313.218-.438-.172-.563a1.989 1.989 0 0 0-.704-.156c-.421.031-.39.063-.234.125.406.156.563.234.563.563v.734l-3.235.031-.015-.5c0-.219.125-.36-.188-.484-.312-.078-.484-.125-.703-.14-.484.046-.39.108-.281.14.469.125.625.25.625.593L3.609.767c.016.593.032.828.25.828.266 0 .297-.438.297-.453l3.25-.032c0 .016-.031.36.203.36.266 0 .329-.407.329-.953zM4.75-4.875c0 .781-.64 1.484-1.5 1.484s-1.531-.718-1.531-1.484c0-.875.672-1.5 1.531-1.5.875 0 1.5.703 1.5 1.5zm2.672-.266c-.563.063-1.422.094-1.86.047-.03 0-.156-.015-.234-.015-.172-1.344-1.687-1.547-1.687-1.563 0-.172.125-.219.046-.344-.109-.187-.921-.312-.921-.03 0 .14.343.171.109.405 0 .016-1.75.172-1.75 1.766 0 1.14 1.11 1.766 2.125 1.766 1.016 0 2.094-.625 2.094-1.766v-.016c.843.313.968.172 1.265.094.157-.062.25-.062.5-.094.032 0 .204-.015.313-.03l.016 1.296c0 .422 0 1.078.187 1.078.219-.015.36-.719.36-1.469l-.032-2.828c0-.453.234-.672-.11-.812-.265-.125-.843-.235-.984-.25-.421-.016-.484.093-.234.218.578.235.766.344.766.844zm0 0"/></symbol><symbol overflow="visible" id="bc"><path d="M9.14-5.14c-.265-.032-.718-.048-.843.03-.188.188-.594.25-.875.266l-.031-2c0-.453.25-.672-.094-.828-.266-.11-.86-.219-.984-.234-.422-.016-.485.093-.235.203.563.25.766.36.766.86l.047 3.077c0 .422 0 1.172.187 1.172.219-.015.36-.812.36-1.562l-.016-.516h1.64c.485 0 .579-.36.079-.469zM5.032-6.5c0-.297.14-.453-.172-.563-.296-.093-.609-.156-.812-.156-.406.032-.375.094-.234.157.421.156.671.25.671.562l-.015.922-2.719.047-.016-.672c0-.234.125-.36-.187-.484a3.433 3.433 0 0 0-.797-.141c-.484.047-.39.11-.281.14.453.141.734.329.734.625v2.407c.016.594.031.844.25.844.25 0 .297-.454.297-.47l2.75-.046c0 .015-.031.36.188.36.265 0 .328-.391.328-.954zM7.72.89C7.39.86 6.844.86 6.64.985c-.22.125-.594.141-.797.141l-1.953.031c-.22 0-.438-.14-.438-.406V-.281h3.625c.281 0 .406 0 .406-.11 0-.203-.343-.156-.343-.187l.171-1.172c.032-.219.391-.344.016-.469-.266-.094-.578-.062-.75.031-.219.126-2.594.094-2.719.094-.437 0-.734-.031-1.14-.062-.406-.031-.516.031-.328.125.953.531 1.25.25 1.375.234.015 0 .28-.062.562-.078l2.406-.031V-.5L3.563-.516c-.376-.062-.704-.125-1.047-.093-.297.03-.344.109-.079.187.344.063.47.156.47.438v.75c0 .609.5.609.968.609l3.75-.031c.484 0 .61-.328.094-.453zM4.5-5.311L4.469-3.61l-2.703.062L1.75-5.25zm0 0"/></symbol><symbol overflow="visible" id="bd"><path d="M8.516.734C8.187.688 7.64.688 7.453.828 7.22.968 6.906 1 6.656 1l-2.015.016c-.22 0-.438-.125-.438-.407V-.719c0-.312.219-.5-.234-.562a3.848 3.848 0 0 0-.86-.032c-.515.063-.328.172-.156.204.531.093.688.171.688.656V.563c0 .609.484.687.984.687l3.828-.031c.469 0 .594-.375.063-.485zM7.469-4.734c-.547.062-1.5.14-1.953.078-.625-.047-.5.11-.313.172.953.375 1.156.171 1.281.14.016 0 .235-.078.5-.125.047-.015.329-.031.485-.047l.015 2.922c0 .422 0 1.172.188 1.172.219-.016.36-.812.36-1.562l-.048-4.86c0-.453.25-.687-.093-.828-.266-.11-.86-.219-.985-.234-.422-.016-.484.093-.234.203.562.234.781.36.781.86zm-3.703.546c.53.516 1.28 1.313 1.609 1.72.344.374.703.343.563-.063-.016-.11-.297-.61-.579-.828-.234-.157-.265-.063-.546-.25a7.751 7.751 0 0 1-.875-.782c.39-.437.796-.953 1.171-1.515.25-.328.579-.625.22-.75-.126-.032-.626-.094-.829.015-.266.141-1.094.172-1.875.172-.469 0-.844-.047-.984-.062-.375-.047-.532.047-.235.187.797.375 1 .297 1.282.172 0 0 .234-.047.5-.078.296-.016.828-.078 1.421-.11C3.656-4.36 1.83-2.577.72-2c-.203.094-.11.188.484-.094.578-.265 1.531-.969 2.563-2.094zm0 0"/></symbol><symbol overflow="visible" id="be"><path d="M6.89-5.781c0-1.438-1.75-1.61-1.75-1.64 0-.141.079-.157.016-.266-.14-.22-.86-.329-.89-.047 0 .125.375.125.156.343 0 0-1.781.141-1.781 1.61 0 1.047 1.093 1.703 2.109 1.703 1.031 0 2.14-.656 2.14-1.703zm2.516 2.61c.031-.454-1.5-.407-2.234-.142-.125.063-1.36.079-2.328.11l-2.39-.016c-1-.015-1.235-.062-1.845-.078-.453.016-.78.063-.296.235 1.515.578 1.718.203 2.25.156.062 0 .937-.11 2.53-.094 1.516-.016 2.5-.031 3.204.031.515 0 1.078.078 1.11-.203zM7.562.874C7.25.812 6.688.844 6.484.969c-.218.125-.53.156-.796.156H3.483c-.218.031-.437-.11-.437-.375L3.03-.125l4.016-.016c.297 0 .406 0 .406-.125 0-.187-.344-.156-.344-.156l.204-1.016c.03-.218.359-.343.015-.468-.266-.094-.578-.063-.766.047-.203.109-2.937.109-3.078.109-.453 0-.75-.031-1.156-.078-.406-.031-.515.031-.328.14.969.5 1.234.25 1.375.22.016 0 .297-.063.547-.095l2.797-.03-.032 1.218-3.562.016c-.36-.079-.703-.125-1.031-.094-.297.047-.344.11-.078.187.343.063.468.157.468.438v.594c0 .609.516.609 1 .609l4-.063c.485 0 .594-.328.079-.437zM6.25-5.781c0 .734-.61 1.406-1.5 1.406-.875 0-1.5-.703-1.5-1.406s.625-1.39 1.5-1.39c.922 0 1.5.734 1.5 1.39zm0 0"/></symbol><symbol overflow="visible" id="bf"><path d="M5.797-5.281c0-1.485-1.656-1.657-1.656-1.688 0-.156.109-.218.046-.328-.109-.172-.906-.281-.906-.031 0 .125.328.156.094.39 0 .016-1.688.141-1.688 1.657 0 1.093 1.047 1.687 2.047 1.687 1 0 2.063-.594 2.063-1.687zM8.203-.61l-.047-6.235c0-.453.25-.672-.11-.812-.25-.11-.843-.235-.968-.25-.437-.016-.5.11-.25.218.563.235.797.344.797.844l.031 3.985c-.672.109-3.39.421-5.547.421-.406 0-.734-.03-1.078-.062-.531-.031-.5.125-.172.281 1.235.547 1.516.188 2.079.094.203-.016.312-.047.64-.078l.016 1.89c0 .72-.031 1.75.187 1.75.281-.015.375-1.046.375-2.359l-.031-1.312a86.858 86.858 0 0 0 3.531-.422V0c0 .734-.031 1.75.172 1.75.281-.016.375-1.031.375-2.36zM5.188-5.281c0 .734-.625 1.39-1.454 1.39-.812 0-1.437-.671-1.437-1.39 0-.828.625-1.407 1.437-1.407.86 0 1.454.657 1.454 1.407zm0 0"/></symbol><symbol overflow="visible" id="bg"><path d="M3.906-6.25c.406-.063.438-.36-.156-.375-.719-.016-.844-.031-1.375-.14-.313-.063-.578 0-.328.156.437.296.672.359.875.375.328.015.531.015.984-.016zm1.406.875c-.218-.063-.984-.14-1.406 0-.5.172-1.172.172-1.687.156-.594-.031-.938-.031-1.313-.078-.265-.016-.64.063-.172.281 1.063.422 1.188.094 1.75.032.72-.063 2.172-.063 2.766-.032.266 0 .39-.234.063-.359zM8.392-.609l-.047-6.235c0-.453.25-.687-.094-.812-.25-.11-.813-.235-.922-.25-.422-.016-.484.078-.234.203.547.219.718.344.718.844l.032 3.718H6.516l-.032-3.28c0-.47.25-.704-.093-.829-.25-.11-.813-.219-.922-.234-.422-.016-.485.078-.235.187.547.234.72.36.72.86L6-.36c0 .718-.047 1.734.156 1.734.282 0 .36-1.031.36-2.36v-1.843h1.328L7.859 0c0 .734-.062 1.75.157 1.75.28-.016.375-1.031.375-2.36zM5.062-2.516c0-1.437-1.53-1.593-1.53-1.625 0-.156.093-.218.015-.312-.125-.156-.781-.297-.781-.047 0 .125.28.14.109.375 0 .016-1.563.156-1.563 1.61 0 1.015.97 1.593 1.86 1.593.89 0 1.89-.578 1.89-1.594zm-.562 0c0 .704-.625 1.297-1.328 1.297a1.304 1.304 0 0 1-1.297-1.297c0-.687.578-1.343 1.297-1.343.734 0 1.328.656 1.328 1.343zm0 0"/></symbol><symbol overflow="visible" id="bh"><path d="M8.281.89C7.953.86 7.406.86 7.203.985c-.234.125-.594.141-.797.141l-2.078.031c-.203 0-.422-.14-.422-.406L3.891-.297h3.703c.281 0 .422 0 .422-.125 0-.187-.36-.156-.36-.172l.219-1.187c.031-.219.375-.344 0-.469a1.017 1.017 0 0 0-.75.031c-.219.125-2.688.094-2.828.094-.438 0-.734-.031-1.14-.063-.391-.03-.5.032-.329.126.969.53 1.266.25 1.39.234 0 0 .282-.063.532-.078l2.531-.032L7.25-.53H3.984a4 4 0 0 0-1.03-.11c-.298.047-.345.125-.079.188.328.078.453.156.453.437l.016.782c0 .609.5.609.984.609l3.86-.031c.468 0 .609-.328.093-.453zm-.89-6.406l.03 1.532c-.671.062-1.937.109-2.39.046-.625-.046-.5.11-.328.172.969.375 1.172.188 1.297.157.016 0 .281-.063.547-.094.062-.016.594-.047.875-.063 0 .438 0 1.079.172 1.079.234 0 .375-.797.375-1.547l-.047-2.61c0-.453.25-.672-.094-.828-.266-.11-.86-.219-.984-.234-.422-.016-.5.093-.235.203.563.25.766.36.766.86l.016 1.109c-.672.046-1.704.078-2.125.03-.11-.015-.204-.015-.282-.015.079-.093.141-.203.204-.312.156-.313.656-.64.187-.75-.11-.032-.594-.094-.797.015-.266.125-1.25.188-2.047.188a6.23 6.23 0 0 1-1-.078c-.36-.032-.5.047-.218.187.796.375 1 .282 1.28.157 0 0 .25-.063.485-.079.313-.015 1.031-.078 1.625-.109C3.766-4.234 1.797-2.687.781-2.187c-.25.124-.031.14.516-.094.969-.422 2.5-1.547 3.594-3.266.015.016.03.016.062.016.953.39 1.156.187 1.281.156.016 0 .297-.063.547-.094.047-.015.36-.031.61-.047zm0 0"/></symbol><symbol overflow="visible" id="bi"><path d="M5.094-3.86c0-1.703-1.813-1.89-1.813-1.937 0-.187.11-.203.031-.375-.124-.219-.921-.36-.937-.031 0 .172.344.187.094.437 0 .016-1.828.188-1.828 1.907 0 1.234 1.14 1.984 2.218 1.984 1.094 0 2.235-.75 2.235-1.984zm4 1.422c-.25-.03-.719-.062-.828.032-.188.187-.61.25-.891.265l-.016-2.593h1.672c.5 0 .578-.375.063-.485-.25-.031-.719-.062-.828.032-.188.203-.61.25-.907.265v-1.922c0-.453.25-.672-.109-.812-.25-.11-.844-.235-.969-.25-.437-.016-.5.11-.25.218.563.235.797.344.797.844L6.86 0c0 .734-.03 1.75.172 1.75.282-.016.36-1.031.36-2.36l-.016-1.359h1.656c.5 0 .578-.375.063-.468zm-4.61-1.421c0 .921-.656 1.64-1.625 1.64-.953 0-1.625-.75-1.625-1.64 0-.954.672-1.625 1.625-1.625 1 0 1.625.765 1.625 1.625zm0 0"/></symbol><symbol overflow="visible" id="bj"><path d="M4.094-6.531c.437-.032.484-.344-.157-.375-.75-.016-1.03-.016-1.593-.125-.313-.063-.594 0-.344.14.469.313.703.36.938.391.343.016.671.016 1.156-.031zm1.734.968c-.219-.078-1.031-.156-1.469-.03-.5.187-1.703.202-2.25.171A24.45 24.45 0 0 1 .75-5.484c-.25-.032-.656.062-.172.28 1.11.438 1.235.11 1.813.032.75-.062 2.75-.062 3.359-.031.281 0 .422-.25.078-.36zm3.36 2.032c-.266-.031-.735-.063-.844.031-.188.203-.61.25-.875.266l-.016-3.61c0-.453.234-.672-.11-.812-.265-.11-.859-.235-.984-.25-.437-.016-.5.11-.234.218.563.235.781.344.781.844L6.938 0c0 .734-.032 1.75.171 1.75.282-.016.375-1.031.375-2.36l-.03-2.453h1.671c.484 0 .578-.359.063-.468zm-3.985.969c0-1.485-1.594-1.672-1.594-1.688 0-.156.094-.219.047-.344-.125-.156-.906-.265-.906-.031 0 .14.328.172.11.406 0 .016-1.657.14-1.657 1.657C1.203-1.5 2.234-.891 3.22-.891c.969 0 1.984-.609 1.984-1.671zm-.578 0c0 .718-.625 1.406-1.406 1.406-.797 0-1.438-.703-1.438-1.407 0-.812.64-1.421 1.438-1.421.828 0 1.406.671 1.406 1.421zm0 0"/></symbol><symbol overflow="visible" id="bk"><path d="M7.438-4.875c-.313-.063-.86-.063-1.047.078-.235.156-.61.219-.813.219H3.281c-.219 0-.437-.125-.437-.406l-.016-1.75c0-.329.219-.516-.234-.579a5.334 5.334 0 0 0-.875-.03c-.5.062-.313.171-.14.202.515.094.671.188.671.657l.031 1.453c0 .61.485.703.969.703l4.11-.031c.484 0 .609-.391.077-.516zm1.937 2.328c.031-.469-1.5-.437-2.234-.172-.125.063-1.141.078-2.125.094-.907 0-2.282 0-2.532-.016-1-.03-1.234-.078-1.843-.093-.454 0-.782.046-.297.25 1.515.593 1.734.203 2.281.171.031-.015.875-.109 2.484-.093 1.5 0 2.454 0 3.172.047.5.015 1.078.093 1.094-.188zM7.703.734c-.328-.062-.875-.03-1.078.094-.219.156-.625.188-.797.188l-2.375.015C3.22 1.031 3 .891 3 .625V-.578c0-.313.219-.485-.234-.563a5.079 5.079 0 0 0-.86-.03c-.5.062-.328.171-.14.202.515.094.687.172.687.656v.907c0 .594.485.687.969.687l4.203-.047c.484 0 .594-.375.078-.5zm0 0"/></symbol><symbol overflow="visible" id="bl"><path d="M4.469-2.938v1.688c-.922.016-1.89 0-2.297-.063-.735-.062-.547.063-.375.157 1.203.625 1.5.156 2.14.14l2.86-.078.031 1.64c0 .423 0 1.11.172 1.11.219-.015.36-.75.375-1.5L7.359-.875c.016-.266.344-.469-.125-.563-.296-.062-.421 0-.765.094-.14.032-.75.063-1.469.094v-1.688c1.547 0 2.547-.062 3.281 0 .5.016 1.078.063 1.094-.218.031-.453-1.5-.39-2.234-.125-.125.047-1.141.125-2.125.125-.922 0-2.282.015-2.532 0-1-.016-1.234-.078-1.843-.078-.454.03-.782.062-.313.234 1.531.594 1.734.219 2.281.172.032-.016.657-.11 1.86-.11zm.062-3.078c.719.344 2.485 1.22 3.047 1.47.531.265.938.093.563-.266-.204-.204-.594-.438-.829-.563-.359-.094-.406.063-.78-.078-.25-.094-1.329-.516-1.813-.766.187-.187.36-.39.515-.593.172-.22.344-.313.016-.547-.266-.204-.625-.454-.797-.47-.5-.046-.469.016-.297.126.485.281.485.453.375.703-.547 1.203-2.281 2.375-3.39 2.75-.25.078-.172.203.328.047.812-.234 2.062-.89 3.062-1.813zm0 0"/></symbol><symbol overflow="visible" id="bm"><path d="M8.25-.61l-.031-6.234c0-.453.234-.687-.094-.812a6.027 6.027 0 0 0-.922-.25c-.437-.016-.484.078-.234.203.547.219.703.344.703.844L7.719 0c0 .734-.047 1.75.156 1.75.281-.016.375-1.031.375-2.36zM3.172-3.452c.469.547 1.203 1.578 1.344 1.828.343.531.75.516.64.078-.062-.172-.281-.719-.515-.953-.22-.188-.344-.125-.532-.266-.093-.078-.468-.53-.796-.906.343-.515.687-1.094 1.03-1.765.22-.329.485-.625.188-.75-.078-.032-.593-.079-.765.03C3.484-6.03 2.844-6 2.219-6c-.438 0-.813-.047-.953-.063-.36-.046-.516.047-.235.188.782.375.969.281 1.25.156 0 0 .235-.062.485-.062.265-.016.593-.094 1.078-.094-.766 2.156-2.188 4.047-3.281 4.75-.172.11-.063.234.468-.125.532-.344 1.313-1.047 2.14-2.203zm2.781-.188L5.97-.359c0 .718-.047 1.734.172 1.734.265 0 .359-1.031.359-2.36l-.047-5.437c0-.469.25-.703-.078-.828-.25-.11-.828-.219-.938-.234-.406-.016-.468.078-.218.187.531.234.718.36.718.86l.016 2.578c-.437.046-1 .093-1.406.03-.61-.062-.5.095-.313.173.922.36 1.032.172 1.172.14 0 0 .188-.078.453-.125h.094zm0 0"/></symbol><symbol overflow="visible" id="bn"><path d="M7.203-5.203c-.297-.078-.86-.047-1.062.078-.25.14-.579.172-.782.172l-2.062.031c-.219 0-.422-.14-.422-.422v-1.672h4.188c.484 0 .609-.359.078-.484-.313-.063-.875-.047-1.063.078-.25.14-.61.156-.781.156H2.969c-.485-.093-.797-.187-1.14-.156-.516.047-.391.156-.22.188.532.171.688.218.688.625L2.28-5.375c.016.61.516.703.985.703l3.875-.031c.484 0 .593-.39.062-.5zM9.375-3.36c.031-.454-1.5-.422-2.234-.157-.125.063-1.344.094-2.344.094-.906 0-2.063-.015-2.313-.031-1-.016-1.234-.063-1.843-.078-.454 0-.782.047-.297.234 1.515.594 1.734.203 2.281.156.031 0 .875-.093 2.484-.078 1.5 0 2.454-.015 3.172.047.5 0 1.078.094 1.094-.187zM7.562.859C7.25.797 6.688.83 6.484.953c-.218.125-.515.14-.796.14l-2.204.016c-.218.016-.437-.125-.437-.375L3.03-.203 7.047-.22c.297-.015.406-.015.406-.125 0-.187-.344-.156-.344-.172l.204-1.078c.03-.218.359-.343.015-.468-.266-.094-.578-.063-.766.046-.203.11-2.937.11-3.078.11-.453 0-.75-.032-1.156-.078-.406-.032-.515.03-.328.14.969.516 1.234.25 1.375.219.016 0 .297-.063.547-.094l2.797-.031-.032 1.297-3.562.016c-.36-.079-.703-.141-1.031-.11-.297.063-.344.125-.078.188.343.078.468.156.468.437V.75c0 .594.516.594 1 .594l4-.047c.485 0 .594-.328.079-.438zm0 0"/></symbol><symbol overflow="visible" id="bB"><path d="M9.5-2.828v-6.047H8.234v6.047zm-8.203-5.61v1.126h3.531c-.203.906-.672 1.609-1.297 2.171-.734.672-1.734 1.11-2.812 1.407.328.296.687.765.828.968 1.312-.406 2.484-1.109 3.328-2.062.844-.953 1.36-2.14 1.422-3.61zM9.484 1.72v-4.11H2.438v4.11zM8.25.64H3.672v-1.938H8.25zm0 0"/></symbol><symbol overflow="visible" id="bC"><path d="M9.422 1.828V-8.875H8.156V1.828zM1.25-8.219v1.125h3.578a6.724 6.724 0 0 1-1 3.219c-.703 1.14-1.765 2.11-3.14 2.86.312.202.859.624 1.078.859a9.146 9.146 0 0 0 3.453-3.719c.687-1.328 1.015-2.797 1.031-4.344zm0 0"/></symbol><symbol overflow="visible" id="bD"><path d="M9.344-2.438v-6.437H8.063v1.094H5.64c-.47-.594-1.266-.985-2.141-.985C1.86-8.766.687-7.5.687-5.984c0 1.5 1.172 2.765 2.813 2.765.938 0 1.734-.437 2.219-1.078h2.343v1.86zM8.063-5.421H6.234c.032-.172.063-.39.063-.562 0-.22-.047-.47-.094-.672h1.86zm-6.079-.562c0-.875.547-1.657 1.516-1.657.953 0 1.5.782 1.5 1.657s-.547 1.656-1.5 1.656c-.969 0-1.516-.781-1.516-1.656zM1.922-.188C1.922 1.048 3.234 2 5.719 2c2.5 0 3.797-.938 3.797-2.188 0-1.234-1.297-2.203-3.797-2.203-2.485 0-3.797.954-3.797 2.204zm1.39 0c0-.734.922-1.156 2.422-1.156 1.454 0 2.407.438 2.407 1.157C8.14.515 7.187.968 5.734.968c-1.5 0-2.421-.485-2.421-1.156zm0 0"/></symbol><symbol overflow="visible" id="bF"><path d="M1.781.063v-7.391h2c2.11 0 2.578 1.86 2.578 3.562 0 2.297-.75 3.829-2.562 3.829zM.828-8.126V.844H4c2.313 0 3.297-2.031 3.297-4.625C7.297-6.234 6.14-8.125 4-8.125zm0 0"/></symbol><symbol overflow="visible" id="bG"><path d="M.828-5.578V.844h.953v-6.422zm0-2.547v1.078h.953v-1.078zm0 0"/></symbol><symbol overflow="visible" id="bH"><path d="M1.781-4.703v-.922H.844V.844h.937v-3.735c0-1.484 1.063-2.218 1.844-1.921v-.922c-.719-.141-1.484.25-1.844 1.03zm0 0"/></symbol><symbol overflow="visible" id="bI"><path d="M.547-2.281c0 2.203 1.187 3.39 2.61 3.39 1.515 0 2.405-1 2.593-2.125h-.938C4.657-.234 4.079.313 3.234.313c-1.046 0-1.64-.829-1.671-2.422h4.312c.016-.375-.031-.61-.031-.922C5.766-4.75 4.64-5.844 3.312-5.844 1.782-5.844.547-4.562.547-2.28zm1.047-.64c.015-1.22.703-2.142 1.656-2.142 1.094 0 1.64.985 1.656 2.141zm0 0"/></symbol><symbol overflow="visible" id="bJ"><path d="M.516-2.234C.516-.22 1.53 1.03 3 1.03c1.625 0 2.313-1.11 2.422-2.312H4.5C4.39-.547 3.984.266 3.062.266 2.11.266 1.516-.61 1.516-2.22c0-1.515.453-2.844 1.625-2.844.906 0 1.234.672 1.359 1.422h.938C5.343-5 4.546-5.844 3.14-5.844 1.39-5.844.516-4.28.516-2.234zm0 0"/></symbol><symbol overflow="visible" id="bK"><path d="M1.078-7.516v1.891H.281v.797h.797v4.453c0 .766.25 1.281 1.14 1.281 0 0 .173.031.36 0 .188 0 .36-.031.36-.031V.156c-.094.016-.126.016-.141 0H2.78c-.531.032-.765-.031-.765-.672v-4.312h.921v-.797h-.921v-1.89zm0 0"/></symbol><symbol overflow="visible" id="bL"><path d="M3.203-5.125c1.14 0 1.719 1.11 1.719 2.766S4.344.39 3.203.39C2.047.39 1.484-.703 1.484-2.36c0-1.657.563-2.766 1.72-2.766zm0-.734C1.438-5.86.547-4.453.547-2.36c0 2.109.89 3.468 2.656 3.468 1.75 0 2.703-1.359 2.703-3.468 0-2.094-.953-3.5-2.703-3.5zm0 0"/></symbol><symbol overflow="visible" id="bN"><path d="M6.531-3.422c.188-.875.297-2.094.328-2.937H1.203v.468h5.063a18.38 18.38 0 0 1-.313 2.47H.297v.468h3.328v1.61H1.219v.484H6.14v2.28h.593v-2.765h-2.53v-1.61h3.562v-.468zm0 0"/></symbol><symbol overflow="visible" id="bO"><path d="M4.438-1.406c-.344.062-1.282.156-1.72.172L1.61-1.22v-4.984h-.578v5.516c.032 0 .813 0 1.594-.032a23.99 23.99 0 0 0 1.813-.156zM7.14 1.359v-7.968h-.579v3.046H5.36v-2.921h-.578V.984h.578v-4.03h1.204v4.405zm0 0"/></symbol><symbol overflow="visible" id="bP"><path d="M1.031-6.031v5.328c.032 0 .813.015 1.594-.031.64-.016 1.516-.11 1.813-.157v-.515c-.344.062-1.282.156-1.72.172l-1.124.015v-4.328h2.218v-.484zm6.11 7.39v-7.968h-.579v3.046H5.36v-2.921h-.578V.984h.578v-4.03h1.204v4.405zm0 0"/></symbol><symbol overflow="visible" id="bQ"><path d="M7.047 1.36v-7.97h-.578v7.97zM1.109-6.095v.485H4a5.994 5.994 0 0 1-.922 2.687C2.484-2.047 1.641-1.297.563-.75c.156.094.453.313.562.406 1.11-.687 1.969-1.547 2.563-2.562.546-.938.874-2 .953-3.188zm0 0"/></symbol><symbol overflow="visible" id="bR"><path d="M7.063 1.281V-2h-.579v1.078h-4.03V-2h-.579v3.281zM6.484.813h-4.03V-.454h4.03zm-3.75-3.47c1.032 0 1.875-.671 2.032-1.624h1.718v1.875h.579V-6.61h-.579v1.843H4.781c-.093-1.015-.968-1.75-2.047-1.75-1.171 0-2.078.813-2.078 1.922 0 1.11.938 1.938 2.078 1.938zm-1.5-1.937c0-.797.61-1.422 1.5-1.422.891 0 1.485.61 1.485 1.422 0 .797-.594 1.422-1.485 1.422-.89 0-1.5-.625-1.5-1.422zm0 0"/></symbol><symbol overflow="visible" id="bS"><path d="M2.766.078L.875-6.078H.281L2.406.625h.688l2.14-6.703h-.593zm0 0"/></symbol><symbol overflow="visible" id="bT"><path d="M.39-2.797C.39-.469 1.407.813 3.048.813c1.672 0 2.437-1.375 2.547-2.422h-.516C4.984-.734 4.484.344 3.141.344 1.78.344.953-.72.953-2.641c0-2 .906-3.156 2.203-3.156 1.297 0 1.766.906 1.844 1.469h.531c-.047-.688-.765-1.938-2.39-1.938-1.75 0-2.75 1.563-2.75 3.47zm0 0"/></symbol><symbol overflow="visible" id="bV"><path d="M7.766-1.656v-.485H.296v.485h3.47v3.015h.593v-3.015zm-3.438-4.36v-.39h-.61v.39c0 .672-.39 1.235-.984 1.657-.562.39-1.312.671-2.078.843.156.125.344.344.453.47.594-.173 1.204-.407 1.72-.735.5-.313.921-.735 1.202-1.281.25.546.688.968 1.203 1.296a6.619 6.619 0 0 0 1.72.72c.124-.173.265-.345.421-.5-.719-.142-1.5-.423-2.094-.86-.562-.407-.953-.953-.953-1.61zm0 0"/></symbol><symbol overflow="visible" id="bW"><path d="M7.063-1.828V-6.61h-.579v1.468H4.563v.485h1.921v2.828zm-.016 3.25v-2.828H1.734v.484h4.75v2.344zM3.14-5.468v-.923h-.594v.907c0 .718-.219 1.296-.578 1.78-.407.532-1 .938-1.719 1.235.156.11.375.297.5.406.516-.25 1-.546 1.375-.921.313-.344.563-.72.719-1.172.234.453.547.812.922 1.11.39.312.812.546 1.218.733.11-.156.25-.312.407-.453-.625-.218-1.22-.562-1.657-1.078a2.461 2.461 0 0 1-.593-1.625zm0 0"/></symbol><symbol overflow="visible" id="bX"><path d="M7.047 1.281v-2.875H1.89v2.875zM6.469.797h-4V-1.11h4zm.015-7.406v4.625h.579V-6.61zm-3.343.968v-.75h-.594v.735c0 .703-.219 1.281-.578 1.75-.407.562-1 .953-1.719 1.265.156.11.375.297.5.407.469-.235.906-.5 1.266-.844a2.98 2.98 0 0 0 .828-1.25c.25.484.625.875 1.031 1.187.36.266.75.47 1.11.641.109-.14.25-.313.406-.453-.594-.203-1.172-.531-1.594-.985A2.481 2.481 0 0 1 3.14-5.64zm0 0"/></symbol><symbol overflow="visible" id="bY"><path d="M3.063-4.797V-6.25h-.594v1.266c0 .937-.219 1.78-.64 2.515C1.421-1.75.812-1.125.046-.64c.172.094.422.266.547.391a6.58 6.58 0 0 0 1.328-1.313c.39-.515.703-1.093.844-1.625.218.626.546 1.157.953 1.641.375.406.797.766 1.25 1.078.11-.14.312-.328.468-.437-.812-.485-1.406-1.031-1.812-1.688-.375-.625-.563-1.344-.563-2.203zM6.14-6.609v7.984h.593v-4.328H8v-.516H6.734v-3.14zm0 0"/></symbol><symbol overflow="visible" id="bZ"><path d="M7.047 1.422v-2.953H1.734v.484h4.75v2.469zm-.563-4.828v1.437h.579v-4.64h-.579v.937H4.422c-.36-.5-.953-.812-1.688-.812-1.203 0-2.078.89-2.078 2 0 1.093.875 2 2.078 2 .782 0 1.407-.375 1.766-.922zm0-1.781v1.296H4.72a2.01 2.01 0 0 0-.031-1.297zm-5.234.703c0-.844.531-1.5 1.484-1.5.97 0 1.485.656 1.485 1.5 0 .812-.516 1.5-1.485 1.5-.953 0-1.484-.688-1.484-1.5zm0 0"/></symbol></defs><g fill="#393536"><use xlink:href="#a" x="535.245" y="48.426"/><use xlink:href="#b" x="540.818" y="48.426"/><use xlink:href="#b" x="546.392" y="48.426"/></g><g fill="#fff"><use xlink:href="#c" x="104.403" y="104.568"/><use xlink:href="#d" x="113.457" y="104.568"/><use xlink:href="#e" x="117.933" y="104.568"/><use xlink:href="#f" x="126.986" y="104.568"/><use xlink:href="#g" x="129.936" y="104.568"/><use xlink:href="#h" x="138.99" y="104.568"/><use xlink:href="#i" x="148.044" y="104.568"/><use xlink:href="#j" x="157.097" y="104.568"/><use xlink:href="#k" x="166.151" y="104.568"/><use xlink:href="#l" x="175.205" y="104.568"/><use xlink:href="#m" x="184.258" y="104.568"/><use xlink:href="#n" x="193.312" y="104.568"/><use xlink:href="#f" x="202.365" y="104.568"/><use xlink:href="#o" x="205.315" y="104.568"/><use xlink:href="#p" x="214.369" y="104.568"/><use xlink:href="#q" x="223.423" y="104.568"/><use xlink:href="#f" x="232.476" y="104.568"/><use xlink:href="#r" x="235.426" y="104.568"/><use xlink:href="#s" x="244.48" y="104.568"/><use xlink:href="#t" x="253.534" y="104.568"/><use xlink:href="#f" x="262.587" y="104.568"/><use xlink:href="#u" x="265.537" y="104.568"/><use xlink:href="#v" x="274.591" y="104.568"/><use xlink:href="#f" x="283.645" y="104.568"/><use xlink:href="#w" x="286.595" y="104.568"/><use xlink:href="#x" x="295.648" y="104.568"/><use xlink:href="#i" x="304.702" y="104.568"/><use xlink:href="#f" x="313.756" y="104.568"/><use xlink:href="#y" x="316.706" y="104.568"/><use xlink:href="#v" x="325.759" y="104.568"/><use xlink:href="#z" x="334.813" y="104.568"/><use xlink:href="#A" x="343.867" y="104.568"/><use xlink:href="#B" x="352.92" y="104.568"/><use xlink:href="#f" x="361.974" y="104.568"/><use xlink:href="#C" x="364.924" y="104.568"/><use xlink:href="#D" x="373.978" y="104.568"/></g><g fill="#4f4c4d"><use xlink:href="#E" x="336.467" y="47.727"/><use xlink:href="#F" x="344.467" y="47.727"/><use xlink:href="#G" x="352.468" y="47.727"/><use xlink:href="#H" x="360.468" y="47.727"/><use xlink:href="#I" x="368.468" y="47.727"/><use xlink:href="#J" x="371.075" y="47.727"/><use xlink:href="#K" x="379.075" y="47.727"/><use xlink:href="#L" x="387.076" y="47.727"/><use xlink:href="#M" x="395.076" y="47.727"/><use xlink:href="#N" x="403.076" y="47.727"/><use xlink:href="#O" x="411.076" y="47.727"/><use xlink:href="#E" x="419.077" y="47.727"/><use xlink:href="#F" x="427.077" y="47.727"/></g><use xlink:href="#P" x="435.076" y="47.727" fill="#231f20"/><g fill="#231f20"><use xlink:href="#Q" x="437.683" y="47.727"/><use xlink:href="#R" x="445.683" y="47.727"/><use xlink:href="#S" x="453.684" y="47.727"/><use xlink:href="#T" x="461.684" y="47.727"/><use xlink:href="#U" x="469.684" y="47.727"/><use xlink:href="#V" x="477.684" y="47.727"/><use xlink:href="#W" x="485.685" y="47.727"/><use xlink:href="#X" x="493.685" y="47.727"/><use xlink:href="#Y" x="496.292" y="47.727"/><use xlink:href="#Z" x="501.703" y="47.727"/><use xlink:href="#aa" x="506.503" y="47.727"/><use xlink:href="#ab" x="508.436" y="47.727"/><use xlink:href="#X" x="511.043" y="47.727"/><use xlink:href="#ac" x="513.65" y="47.727"/><use xlink:href="#ad" x="517.605" y="47.727"/></g><g fill="#33459a"><use xlink:href="#ae" x="93.43" y="146.549"/><use xlink:href="#af" x="110.968" y="146.549"/><use xlink:href="#ag" x="128.507" y="146.549"/><use xlink:href="#ah" x="146.046" y="146.549"/><use xlink:href="#ai" x="163.584" y="146.549"/><use xlink:href="#aj" x="181.123" y="146.549"/><use xlink:href="#ak" x="186.676" y="146.549"/><use xlink:href="#al" x="204.215" y="146.549"/><use xlink:href="#am" x="221.754" y="146.549"/><use xlink:href="#an" x="239.292" y="146.549"/><use xlink:href="#ao" x="256.831" y="146.549"/><use xlink:href="#ap" x="274.37" y="146.549"/><use xlink:href="#aj" x="291.908" y="146.549"/><use xlink:href="#aq" x="297.462" y="146.549"/><use xlink:href="#ar" x="315" y="146.549"/><use xlink:href="#as" x="332.539" y="146.549"/><use xlink:href="#at" x="350.078" y="146.549"/></g><g fill="#231f20"><use xlink:href="#au" x="101.923" y="308.278"/><use xlink:href="#av" x="107.364" y="308.278"/><use xlink:href="#aw" x="110.911" y="308.278"/><use xlink:href="#ax" x="114.216" y="308.278"/><use xlink:href="#ay" x="123.465" y="308.278"/><use xlink:href="#az" x="132.715" y="308.278"/><use xlink:href="#aA" x="141.964" y="308.278"/><use xlink:href="#aB" x="151.214" y="308.278"/><use xlink:href="#aC" x="160.463" y="308.278"/><use xlink:href="#aw" x="169.713" y="308.278"/><use xlink:href="#aD" x="173.018" y="308.278"/><use xlink:href="#aE" x="182.267" y="308.278"/><use xlink:href="#aA" x="191.517" y="308.278"/><use xlink:href="#aF" x="200.766" y="308.278"/><use xlink:href="#aG" x="210.016" y="308.278"/></g><g fill="#231f20"><use xlink:href="#aH" x="101.923" y="325.757"/><use xlink:href="#av" x="107.364" y="325.757"/><use xlink:href="#aw" x="110.911" y="325.757"/><use xlink:href="#aI" x="114.216" y="325.757"/><use xlink:href="#aB" x="123.465" y="325.757"/><use xlink:href="#aJ" x="132.715" y="325.757"/><use xlink:href="#aK" x="141.964" y="325.757"/><use xlink:href="#aL" x="146.388" y="325.757"/><use xlink:href="#aM" x="155.637" y="325.757"/><use xlink:href="#aN" x="164.887" y="325.757"/><use xlink:href="#aO" x="174.136" y="325.757"/><use xlink:href="#aw" x="183.386" y="325.757"/><use xlink:href="#aP" x="186.691" y="325.757"/><use xlink:href="#aQ" x="195.94" y="325.757"/><use xlink:href="#aR" x="205.19" y="325.757"/><use xlink:href="#aS" x="214.439" y="325.757"/><use xlink:href="#aw" x="223.689" y="325.757"/><use xlink:href="#ax" x="226.994" y="325.757"/><use xlink:href="#ay" x="236.243" y="325.757"/><use xlink:href="#az" x="245.493" y="325.757"/><use xlink:href="#aA" x="254.742" y="325.757"/><use xlink:href="#aT" x="263.992" y="325.757"/><use xlink:href="#aw" x="273.241" y="325.757"/><use xlink:href="#aU" x="276.546" y="325.757"/><use xlink:href="#aV" x="285.796" y="325.757"/><use xlink:href="#aw" x="295.045" y="325.757"/><use xlink:href="#aW" x="298.35" y="325.757"/><use xlink:href="#aX" x="307.6" y="325.757"/><use xlink:href="#aY" x="316.849" y="325.757"/><use xlink:href="#aG" x="326.099" y="325.757"/></g><g fill="#231f20"><use xlink:href="#aZ" x="101.923" y="343.236"/><use xlink:href="#av" x="107.364" y="343.236"/><use xlink:href="#aw" x="110.911" y="343.236"/><use xlink:href="#ba" x="114.216" y="343.236"/><use xlink:href="#bb" x="123.465" y="343.236"/><use xlink:href="#aw" x="132.715" y="343.236"/><use xlink:href="#bc" x="136.02" y="343.236"/><use xlink:href="#bd" x="145.269" y="343.236"/><use xlink:href="#be" x="154.519" y="343.236"/><use xlink:href="#aw" x="163.768" y="343.236"/><use xlink:href="#bf" x="167.073" y="343.236"/><use xlink:href="#bg" x="176.323" y="343.236"/><use xlink:href="#aw" x="185.572" y="343.236"/><use xlink:href="#bg" x="188.877" y="343.236"/><use xlink:href="#bh" x="198.127" y="343.236"/><use xlink:href="#bg" x="207.376" y="343.236"/><use xlink:href="#bi" x="216.626" y="343.236"/><use xlink:href="#aw" x="225.875" y="343.236"/><use xlink:href="#bj" x="229.18" y="343.236"/><use xlink:href="#bk" x="238.43" y="343.236"/><use xlink:href="#aw" x="247.679" y="343.236"/><use xlink:href="#bl" x="250.984" y="343.236"/><use xlink:href="#bm" x="260.233" y="343.236"/><use xlink:href="#bn" x="269.483" y="343.236"/><use xlink:href="#aY" x="278.733" y="343.236"/><use xlink:href="#aG" x="287.982" y="343.236"/></g><path d="M93.625 262.3l1.387-1.312 1.383 1.313-1.383 1.312zm0 0M96.637 262.3l1.383-1.312 1.386 1.313-1.386 1.312zm0 0M99.648 262.3l1.383-1.312 1.387 1.313-1.387 1.312zm0 0M102.66 262.3l1.383-1.312 1.383 1.313-1.383 1.312zm0 0M105.668 262.3l1.387-1.312 1.382 1.313-1.382 1.312zm0 0M108.68 262.3l1.383-1.312 1.386 1.313-1.386 1.312zm0 0M111.691 262.3l1.383-1.312 1.387 1.313-1.387 1.312zm0 0M114.703 262.3l1.383-1.312 1.383 1.313-1.383 1.312zm0 0M117.71 262.3l1.388-1.312 1.382 1.313-1.382 1.312zm0 0M120.723 262.3l1.386-1.312 1.383 1.313-1.383 1.312zm0 0M123.734 262.3l1.383-1.312 1.387 1.313-1.387 1.312zm0 0M126.746 262.3l1.383-1.312 1.387 1.313-1.387 1.312zm0 0M129.758 262.3l1.383-1.312 1.382 1.313-1.382 1.312zm0 0M132.766 262.3l1.386-1.312 1.383 1.313-1.383 1.312zm0 0M135.777 262.3l1.383-1.312 1.387 1.313-1.387 1.312zm0 0M138.79 262.3l1.382-1.312 1.387 1.313-1.387 1.312zm0 0M141.8 262.3l1.384-1.312 1.382 1.313-1.382 1.312zm0 0M144.809 262.3l1.386-1.312 1.383 1.313-1.383 1.312zm0 0M147.82 262.3l1.387-1.312 1.383 1.313-1.383 1.312zm0 0M150.832 262.3l1.383-1.312 1.387 1.313-1.387 1.312zm0 0M153.844 262.3l1.383-1.312 1.382 1.313-1.382 1.312zm0 0M156.855 262.3l1.383-1.312 1.383 1.313-1.383 1.312zm0 0M159.863 262.3l1.387-1.312 1.383 1.313-1.383 1.312zm0 0M162.875 262.3l1.383-1.312 1.387 1.313-1.387 1.312zm0 0M165.887 262.3l1.383-1.312 1.386 1.313-1.386 1.312zm0 0M168.898 262.3l1.383-1.312 1.383 1.313-1.383 1.312zm0 0M171.906 262.3l1.387-1.312 1.383 1.313-1.383 1.312zm0 0M174.918 262.3l1.387-1.312 1.382 1.313-1.382 1.312zm0 0M177.93 262.3l1.382-1.312 1.387 1.313-1.387 1.312zm0 0M180.941 262.3l1.383-1.312 1.387 1.313-1.387 1.312zm0 0M183.953 262.3l1.383-1.312 1.383 1.313-1.383 1.312zm0 0M186.96 262.3l1.388-1.312 1.382 1.313-1.382 1.312zm0 0M189.973 262.3l1.382-1.312 1.387 1.313-1.387 1.312zm0 0M192.984 262.3l1.383-1.312 1.387 1.313-1.387 1.312zm0 0M195.996 262.3l1.383-1.312 1.383 1.313-1.383 1.312zm0 0M199.004 262.3l1.387-1.312 1.382 1.313-1.382 1.312zm0 0M202.016 262.3l1.386-1.312 1.383 1.313-1.383 1.312zm0 0M205.027 262.3l1.383-1.312 1.387 1.313-1.387 1.312zm0 0M208.04 262.3l1.382-1.312 1.387 1.313-1.387 1.312zm0 0M211.05 262.3l1.384-1.312 1.382 1.313-1.382 1.312zm0 0M214.059 262.3l1.386-1.312 1.383 1.313-1.383 1.312zm0 0M217.07 262.3l1.383-1.312 1.387 1.313-1.387 1.312zm0 0M220.082 262.3l1.383-1.312 1.387 1.313-1.387 1.312zm0 0M223.094 262.3l1.383-1.312 1.382 1.313-1.382 1.312zm0 0M226.102 262.3l1.386-1.312 1.383 1.313-1.383 1.312zm0 0M229.113 262.3l1.387-1.312 1.383 1.313-1.383 1.312zm0 0M232.125 262.3l1.383-1.312 1.387 1.313-1.387 1.312zm0 0M235.137 262.3l1.383-1.312 1.386 1.313-1.386 1.312zm0 0M238.148 262.3l1.383-1.312 1.383 1.313-1.383 1.312zm0 0M241.156 262.3l1.387-1.312 1.383 1.313-1.383 1.312zm0 0M244.168 262.3l1.383-1.312 1.386 1.313-1.386 1.312zm0 0M247.18 262.3l1.382-1.312 1.387 1.313-1.387 1.312zm0 0M250.191 262.3l1.383-1.312 1.383 1.313-1.383 1.312zm0 0M253.2 262.3l1.386-1.312 1.383 1.313-1.383 1.312zm0 0M256.21 262.3l1.388-1.312 1.382 1.313-1.382 1.312zm0 0M259.223 262.3l1.382-1.312 1.387 1.313-1.387 1.312zm0 0M262.234 262.3l1.383-1.312 1.387 1.313-1.387 1.312zm0 0M265.246 262.3l1.383-1.312 1.383 1.313-1.383 1.312zm0 0M268.254 262.3l1.387-1.312 1.382 1.313-1.382 1.312zm0 0M271.266 262.3l1.382-1.312 1.387 1.313-1.387 1.312zm0 0M274.277 262.3l1.383-1.312 1.387 1.313-1.387 1.312zm0 0M277.29 262.3l1.382-1.312 1.383 1.313-1.383 1.312zm0 0M280.297 262.3l1.387-1.312 1.382 1.313-1.382 1.312zm0 0M283.309 262.3l1.386-1.312 1.383 1.313-1.383 1.312zm0 0M286.32 262.3l1.383-1.312 1.387 1.313-1.387 1.312zm0 0M289.332 262.3l1.383-1.312 1.387 1.313-1.387 1.312zm0 0M292.344 262.3l1.383-1.312 1.382 1.313-1.382 1.312zm0 0M295.352 262.3l1.386-1.312 1.383 1.313-1.383 1.312zm0 0M298.363 262.3l1.387-1.312 1.383 1.313-1.383 1.312zm0 0M301.375 262.3l1.383-1.312 1.387 1.313-1.387 1.312zm0 0M304.387 262.3l1.383-1.312 1.382 1.313-1.382 1.312zm0 0M307.395 262.3l1.386-1.312 1.383 1.313-1.383 1.312zm0 0M310.406 262.3l1.387-1.312 1.383 1.313-1.383 1.312zm0 0M313.418 262.3l1.383-1.312 1.386 1.313-1.386 1.312zm0 0M316.43 262.3l1.382-1.312 1.387 1.313-1.387 1.312zm0 0M319.441 262.3l1.383-1.312 1.383 1.313-1.383 1.312zm0 0M322.45 262.3l1.386-1.312 1.383 1.313-1.383 1.312zm0 0M325.46 262.3l1.388-1.312 1.382 1.313-1.382 1.312zm0 0M328.473 262.3l1.382-1.312 1.387 1.313-1.387 1.312zm0 0M331.484 262.3l1.383-1.312 1.383 1.313-1.383 1.312zm0 0M334.492 262.3l1.387-1.312 1.383 1.313-1.383 1.312zm0 0M337.504 262.3l1.387-1.312 1.382 1.313-1.382 1.312zm0 0M340.516 262.3l1.382-1.312 1.387 1.313-1.387 1.312zm0 0M343.527 262.3l1.383-1.312 1.387 1.313-1.387 1.312zm0 0M346.54 262.3l1.382-1.312 1.383 1.313-1.383 1.312zm0 0M349.547 262.3l1.387-1.312 1.382 1.313-1.382 1.312zm0 0M352.559 262.3l1.386-1.312 1.383 1.313-1.383 1.312zm0 0M355.57 262.3l1.383-1.312 1.387 1.313-1.387 1.312zm0 0M358.582 262.3l1.383-1.312 1.383 1.313-1.383 1.312zm0 0M361.59 262.3l1.387-1.312 1.382 1.313-1.382 1.312zm0 0M364.602 262.3l1.386-1.312 1.383 1.313-1.383 1.312zm0 0M367.613 262.3l1.383-1.312 1.387 1.313-1.387 1.312zm0 0M370.625 262.3l1.383-1.312 1.387 1.313-1.387 1.312zm0 0M373.637 262.3l1.383-1.312 1.382 1.313-1.382 1.312zm0 0M376.645 262.3l1.386-1.312 1.383 1.313-1.383 1.312zm0 0M379.656 262.3l1.387-1.312 1.383 1.313-1.383 1.312zm0 0M382.668 262.3l1.383-1.312 1.386 1.313-1.386 1.312zm0 0M385.68 262.3l1.382-1.312 1.383 1.313-1.383 1.312zm0 0M388.687 262.3l1.387-1.312 1.383 1.313-1.383 1.312zm0 0M391.7 262.3l1.386-1.312 1.383 1.313-1.383 1.312zm0 0M394.71 262.3l1.384-1.312 1.386 1.313-1.386 1.312zm0 0M397.723 262.3l1.382-1.312 1.387 1.313-1.387 1.312zm0 0M400.734 262.3l1.383-1.312 1.383 1.313-1.383 1.312zm0 0M403.742 262.3l1.387-1.312 1.383 1.313-1.383 1.312zm0 0M406.754 262.3l1.387-1.312 1.382 1.313-1.382 1.312zm0 0M409.766 262.3l1.382-1.312 1.387 1.313-1.387 1.312zm0 0M412.777 262.3l1.383-1.312 1.383 1.313-1.383 1.312zm0 0M415.785 262.3l1.387-1.312 1.383 1.313-1.383 1.312zm0 0M418.797 262.3l1.387-1.312 1.382 1.313-1.382 1.312zm0 0M421.809 262.3l1.382-1.312 1.387 1.313-1.387 1.312zm0 0M424.82 262.3l1.383-1.312 1.387 1.313-1.387 1.312zm0 0M427.832 262.3l1.383-1.312 1.383 1.313-1.383 1.312zm0 0M430.84 262.3l1.387-1.312 1.382 1.313-1.382 1.312zm0 0M433.852 262.3l1.386-1.312 1.383 1.313-1.383 1.312zm0 0M436.863 262.3l1.383-1.312 1.387 1.313-1.387 1.312zm0 0M439.875 262.3l1.383-1.312 1.383 1.313-1.383 1.312zm0 0M442.887 262.3l1.383-1.312 1.382 1.313-1.382 1.312zm0 0M445.895 262.3l1.386-1.312 1.383 1.313-1.383 1.312zm0 0M448.906 262.3l1.383-1.312 1.387 1.313-1.387 1.312zm0 0M451.918 262.3l1.383-1.312 1.386 1.313-1.386 1.312zm0 0M454.93 262.3l1.383-1.312 1.382 1.313-1.382 1.312zm0 0M457.937 262.3l1.387-1.312 1.383 1.313-1.383 1.312zm0 0M460.95 262.3l1.386-1.312 1.383 1.313-1.383 1.312zm0 0M463.96 262.3l1.384-1.312 1.386 1.313-1.386 1.312zm0 0M466.973 262.3l1.382-1.312 1.387 1.313-1.387 1.312zm0 0M469.984 262.3l1.383-1.312 1.383 1.313-1.383 1.312zm0 0M472.992 262.3l1.387-1.312 1.383 1.313-1.383 1.312zm0 0M476.004 262.3l1.383-1.312 1.386 1.313-1.386 1.312zm0 0" fill="none" stroke-width=".2696733" stroke="#726e94" stroke-miterlimit="300"/><g clip-path="url(#bo)"><path d="M479.016 262.3l1.382-1.312 1.387 1.313-1.387 1.312zm0 0" fill="none" stroke-width=".2696733" stroke="#726e94" stroke-miterlimit="300"/></g><g clip-path="url(#bp)"><path d="M482.027 262.3l1.383-1.312 1.383 1.313-1.383 1.312zm0 0" fill="none" stroke-width=".2696733" stroke="#726e94" stroke-miterlimit="300"/></g><g clip-path="url(#bq)"><path d="M485.035 262.3l1.387-1.312 1.383 1.313-1.383 1.312zm0 0" fill="none" stroke-width=".2696733" stroke="#726e94" stroke-miterlimit="300"/></g><g clip-path="url(#br)"><path d="M488.047 262.3l1.387-1.312 1.382 1.313-1.382 1.312zm0 0" fill="none" stroke-width=".2696733" stroke="#726e94" stroke-miterlimit="300"/></g><g clip-path="url(#bs)"><path d="M491.059 262.3l1.382-1.312 1.387 1.313-1.387 1.312zm0 0" fill="none" stroke-width=".2696733" stroke="#726e94" stroke-miterlimit="300"/></g><g clip-path="url(#bt)"><path d="M494.07 262.3l1.383-1.312 1.387 1.313-1.387 1.312zm0 0" fill="none" stroke-width=".2696733" stroke="#726e94" stroke-miterlimit="300"/></g><g clip-path="url(#bu)"><path d="M497.082 262.3l1.383-1.312 1.383 1.313-1.383 1.312zm0 0" fill="none" stroke-width=".2696733" stroke="#726e94" stroke-miterlimit="300"/></g><g clip-path="url(#bv)"><path d="M500.09 262.3l1.387-1.312 1.382 1.313-1.382 1.312zm0 0" fill="none" stroke-width=".2696733" stroke="#726e94" stroke-miterlimit="300"/></g><g clip-path="url(#bw)"><path d="M503.102 262.3l1.382-1.312 1.387 1.313-1.387 1.312zm0 0" fill="none" stroke-width=".2696733" stroke="#726e94" stroke-miterlimit="300"/></g><g clip-path="url(#bx)"><path d="M506.113 262.3l1.383-1.312 1.387 1.313-1.387 1.312zm0 0" fill="none" stroke-width=".2696733" stroke="#726e94" stroke-miterlimit="300"/></g><g clip-path="url(#by)"><path d="M509.125 262.3l1.383-1.312 1.383 1.313-1.383 1.312zm0 0" fill="none" stroke-width=".2696733" stroke="#726e94" stroke-miterlimit="300"/></g><g clip-path="url(#bz)"><path d="M512.133 262.3l1.387-1.312 1.382 1.313-1.382 1.312zm0 0" fill="none" stroke-width=".2696733" stroke="#726e94" stroke-miterlimit="300"/></g><g clip-path="url(#bA)"><path d="M515.145 262.3l1.386-1.312 1.383 1.313-1.383 1.312zm0 0" fill="none" stroke-width=".2696733" stroke="#726e94" stroke-miterlimit="300"/></g><g fill="#231f20"><use xlink:href="#bB" x="441.353" y="213.768"/><use xlink:href="#bC" x="451.806" y="213.768"/><use xlink:href="#bD" x="462.26" y="213.768"/><use xlink:href="#bE" x="472.714" y="213.768"/></g><g fill="#231f20"><use xlink:href="#bF" x="476.12" y="213.768"/><use xlink:href="#bG" x="483.743" y="213.768"/><use xlink:href="#bH" x="486.244" y="213.768"/><use xlink:href="#bI" x="490.038" y="213.768"/><use xlink:href="#bJ" x="496.311" y="213.768"/><use xlink:href="#bK" x="502.007" y="213.768"/><use xlink:href="#bL" x="505.167" y="213.768"/><use xlink:href="#bH" x="511.439" y="213.768"/><use xlink:href="#bM" x="515.233" y="213.768"/></g><g fill="#231f20"><use xlink:href="#bN" x="421.352" y="229.184"/><use xlink:href="#bO" x="429.352" y="229.184"/><use xlink:href="#bP" x="437.352" y="229.184"/><use xlink:href="#bQ" x="445.352" y="229.184"/><use xlink:href="#bR" x="453.353" y="229.184"/><use xlink:href="#bS" x="461.353" y="229.184"/><use xlink:href="#bT" x="466.764" y="229.184"/><use xlink:href="#bU" x="472.652" y="229.184"/><use xlink:href="#bV" x="475.259" y="229.184"/><use xlink:href="#bW" x="483.259" y="229.184"/><use xlink:href="#bX" x="491.26" y="229.184"/><use xlink:href="#bY" x="499.26" y="229.184"/><use xlink:href="#bZ" x="507.26" y="229.184"/></g></svg>