<svg xmlns="http://www.w3.org/2000/svg" xmlns:xlink="http://www.w3.org/1999/xlink" width="793.697" height="1058.268" viewBox="0 0 595.273 793.701" version="1.2"><defs><symbol overflow="visible" id="a"><path d="M20.188 0h4.28v-48.11h-3.405c-1.407 8.266-5.891 9.016-13.047 9.485v2.875h12.171zm0 0"/></symbol><symbol overflow="visible" id="b"><path d="M30.219-23.672c0 9.688-1.469 20.938-11.625 20.938-9.032 0-11.703-8.11-11.703-20.47 0-10.64 2.203-21.218 11.562-21.218 9.969 0 11.766 10.375 11.766 20.75zM18.594-48.109c-13.578 0-15.985 12.28-15.985 24.437C2.61-10.375 5.547.953 18.594.953 31.562.953 34.5-10.437 34.5-23.203c0-11.188-1.938-24.906-15.906-24.906zm0 0"/></symbol><symbol overflow="visible" id="c"><path d="M.547 0h1.125v-7.125H.547zm0 0"/></symbol><symbol overflow="visible" id="d"><path d="M.328-2.203v.172C.328-1.031.734.14 2.5.14 3.938.14 4.86-.484 4.86-2c0-.984-.454-1.531-1.454-1.89l-.765-.282c-.766-.297-1.079-.594-1.079-1.203 0-.766.47-1.031.97-1.031.702 0 1 .375 1 1.031v.14h1.124v-.156c0-.734-.187-1.875-2.015-1.875-1.329 0-2.22.72-2.22 2.016 0 1.016.454 1.563 1.5 1.953l.782.266c.625.203 1.016.531 1.016 1.281 0 .516-.36 1.031-1.078 1.031-.797 0-1.172-.437-1.172-1.312v-.172zm0 0"/></symbol><symbol overflow="visible" id="e"><path d="M.594 0h1.078v-5.453h.016L3.75 0h1.39v-7.125H4.064v5.313h-.016L1.984-7.125H.594zm0 0"/></symbol><symbol overflow="visible" id="g"><path d="M4.469-.953H1.594c.547-1.735 2.843-1.875 2.843-4.234 0-1.016-.546-1.875-2-1.875-1.515 0-2.093.859-2.093 2.265h1.078c0-.719.14-1.469 1-1.469.625 0 .875.485.875 1.063C3.297-3 .328-3.078.328 0h4.14zm0 0"/></symbol><symbol overflow="visible" id="h"><path d="M4.406-5.36c0-1.156-.656-1.702-1.906-1.702C.64-7.063.25-5.36.25-3.25.25-1.219.594.14 2.375.14c1.5 0 2.172-.968 2.172-2.593 0-1.406-.781-2.11-1.75-2.11-.625 0-1.094.235-1.375.75l-.031-.015c0-1.031.062-2.438 1.125-2.438.562 0 .765.5.765.907zM1.484-2.124c0-.844.157-1.578.985-1.578.64 0 .937.547.937 1.531 0 .828-.234 1.516-.937 1.516-.672 0-.985-.656-.985-1.469zm0 0"/></symbol><symbol overflow="visible" id="i"><path d="M.297-5.906H3.39C2.266-4.47 1.234-2.11 1.062 0h1.204C2.422-2.125 3.39-4.578 4.5-6.031v-.89H.297zm0 0"/></symbol><symbol overflow="visible" id="j"><path d="M3.203 0v-7.063h-.828v.141c-.203.89-.984 1.047-1.672 1.047h-.11v.75h1.47V0zm0 0"/></symbol><symbol overflow="visible" id="k"><path d="M.453-2.375h2.61v-1.016H.453zm0 0"/></symbol><symbol overflow="visible" id="l"><path d="M.375-1.578C.375-.422 1.047.14 2.281.14c1.875 0 2.266-1.704 2.266-3.829 0-2.03-.344-3.374-2.125-3.374-1.5 0-2.172.968-2.172 2.593 0 1.407.781 2.11 1.75 2.11.61 0 1.094-.25 1.375-.75l.031.015c0 1.031-.062 2.438-1.125 2.438-.578 0-.765-.516-.765-.922zm2.938-3.219c0 .844-.157 1.578-.985 1.578-.656 0-.937-.562-.937-1.531 0-.828.234-1.516.937-1.516.672 0 .985.641.985 1.47zm0 0"/></symbol><symbol overflow="visible" id="m"><path d="M.313-1.75C.313-.516 1.03.14 2.296.14c1.531 0 2.172-1.078 2.172-2.5 0-1.078-.36-2.328-1.844-2.328-.453 0-.89.204-1.188.547l-.015-.015.219-1.86h2.562v-.906H.797L.453-3.219l1 .031c.11-.39.453-.64.938-.64.718 0 .937.687.937 1.5 0 .828-.219 1.61-1 1.61-.64 0-.937-.47-.937-1v-.188H.312zm0 0"/></symbol><symbol overflow="visible" id="n"><path d="M1.422-3.469c0-2.047.203-2.797.969-2.797.78 0 .984.75.984 2.797 0 2.063-.203 2.813-.984 2.813-.766 0-.97-.75-.97-2.813zm-1.14 0c0 2.75.75 3.61 2.109 3.61s2.125-.86 2.125-3.61c0-2.734-.766-3.594-2.125-3.594-1.36 0-2.11.86-2.11 3.594zm0 0"/></symbol></defs><g fill="#293d9b"><use xlink:href="#a" x="158.198" y="251.78"/><use xlink:href="#b" x="190.693" y="251.78"/></g><g fill="#231f20"><use xlink:href="#c" x="492.494" y="56.435"/><use xlink:href="#d" x="494.711" y="56.435"/><use xlink:href="#d" x="499.895" y="56.435"/><use xlink:href="#e" x="505.078" y="56.435"/><use xlink:href="#f" x="510.811" y="56.435"/><use xlink:href="#g" x="513.208" y="56.435"/><use xlink:href="#h" x="518.003" y="56.435"/><use xlink:href="#i" x="522.797" y="56.435"/><use xlink:href="#j" x="527.591" y="56.435"/><use xlink:href="#k" x="532.385" y="56.435"/><use xlink:href="#l" x="535.901" y="56.435"/><use xlink:href="#j" x="540.695" y="56.435"/><use xlink:href="#m" x="545.489" y="56.435"/><use xlink:href="#n" x="550.283" y="56.435"/></g></svg>