<svg xmlns="http://www.w3.org/2000/svg" xmlns:xlink="http://www.w3.org/1999/xlink" width="793.701" height="1058.268" viewBox="0 0 595.276 793.701" version="1.2"><defs><symbol overflow="visible" id="a"><path d="M2.875.031c.434 0 .82-.144 1.156-.437.332-.301.594-.64.782-1.016.183-.34.316-.71.39-1.11.082-.402.125-.804.125-1.202 0-.403-.05-.813-.14-1.22a4.843 4.843 0 0 0-.407-1.155A3.031 3.031 0 0 0 4-7.063a1.747 1.747 0 0 0-1.14-.421c-.844 0-1.473.457-1.876 1.359-.406.906-.609 1.707-.609 2.39 0 .712.203 1.52.61 2.422C1.386-.413 2.02.032 2.874.032zm0-.281c-.75 0-1.227-.441-1.422-1.328-.2-.895-.297-1.613-.297-2.156 0-.54.098-1.254.297-2.141.195-.895.672-1.344 1.422-1.344.363 0 .648.137.86.407.206.273.363.566.468.875.113.343.195.71.25 1.093.059.387.094.758.094 1.11 0 .324-.035.675-.094 1.046a9.33 9.33 0 0 1-.203 1.016c-.094.336-.254.66-.469.969-.21.305-.511.453-.906.453zm0 0"/></symbol><symbol overflow="visible" id="b"><path d="M4.094-6.734l.203-.032a.45.45 0 0 0 .14-.015c.04-.02.07-.055.094-.11l.078-.312c0-.008.008-.067.032-.172.027-.102.046-.16.046-.172 0-.058-.027-.086-.078-.078a.7.7 0 0 0-.14.016l-2.594.343c-.219.032-.352.067-.39.094-.044.031-.098.152-.157.36l-.61 2.109a.385.385 0 0 0-.046.11.438.438 0 0 0-.031.14c0 .043.02.07.062.078.04.012.078.016.11.016a10.782 10.782 0 0 1 2 .28c.433.126.796.325 1.078.595.277.273.421.652.421 1.14 0 .45-.144.867-.421 1.25a3.069 3.069 0 0 1-.985.89 5.708 5.708 0 0 1-1.015.407A5.046 5.046 0 0 1 .828.422a.758.758 0 0 0-.14.016C.632.457.609.5.609.561c0 .04.016.067.047.079a.19.19 0 0 0 .11.03c.101 0 .257-.023.468-.062A9.032 9.032 0 0 0 2.531.25c.278-.094.535-.207.766-.328a4.62 4.62 0 0 0 1.219-1.047c.363-.426.546-.914.546-1.469 0-.37-.097-.734-.28-1.078A2.1 2.1 0 0 0 4-4.5a3.72 3.72 0 0 0-1.047-.375 8.69 8.69 0 0 0-1.11-.172l-.421-.031a5.264 5.264 0 0 1-.203-.031c-.074-.008-.11-.051-.11-.125 0-.028.008-.079.032-.141a.934.934 0 0 1 .046-.14l.125-.47c.07-.226.133-.35.188-.374.05-.028.203-.063.453-.094zm0 0"/></symbol><symbol overflow="visible" id="c"><path d="M4.297-2.078c0-.227.016-.348.047-.36.027-.007.203-.015.515-.015h.407c.039 0 .066-.008.078-.031.02-.02.031-.051.031-.094 0-.04-.008-.086-.016-.14 0-.06-.023-.095-.062-.095h-.875c-.074-.007-.117-.046-.125-.109V-5.266v-.25c0-.132-.04-.191-.11-.171l-.609.265c-.043 0-.062.024-.062.063a.427.427 0 0 1 .015.093v2.063c0 .219-.011.348-.031.375-.023.023-.137.031-.344.031h-2.11c-.023 0-.081.008-.171.016-.094.011-.14-.016-.14-.078 0-.028.03-.082.093-.157.059-.082.098-.129.11-.14l3.75-4.922c.007-.02.019-.04.03-.063.02-.02.032-.039.032-.062 0-.04-.02-.067-.047-.078a.427.427 0 0 0-.094-.016c-.074 0-.129.012-.156.031a.572.572 0 0 0-.11.11L.5-3.046c-.043.062-.09.12-.14.171a.378.378 0 0 0-.079.203c0 .149.02.219.063.219H3.14c.207 0 .32.012.343.031.028.024.047.137.047.344v.969c0 .136-.008.273-.015.406 0 .125-.086.21-.25.25a.566.566 0 0 1-.22.047h-.218a.429.429 0 0 0-.156.031c-.055.023-.078.066-.078.125 0 .055.008.09.031.11.027.011.07.015.125.015.207 0 .406-.008.594-.031a5.075 5.075 0 0 1 1.14 0 4 4 0 0 0 .532.031.235.235 0 0 0 .109-.031c.04-.02.063-.055.063-.11 0-.07-.036-.113-.094-.125a1.222 1.222 0 0 0-.172-.015c-.293 0-.473-.047-.531-.14-.063-.09-.094-.282-.094-.563zm0 0"/></symbol><symbol overflow="visible" id="d"><path d="M6.703-5.844h-.812V.453h.812zM2.86.453h.985l1.734-6.297h-.844L3.36-.484l-1.375-5.36h-.859zm0 0"/></symbol><symbol overflow="visible" id="e"><path d="M.75.047v1.016h1.031V.046zm0 0"/></symbol><symbol overflow="visible" id="g"><path d="M7.422 1.36v-7.985h-.734v2.938h-.954V-6.5H5V.984h.734v-3.953h.954V1.36zM2.938-4.626v-.813H4.28v-.625H.813v.625h1.359v.688c0 .953-.156 1.766-.469 2.453A4.316 4.316 0 0 1 .172-.594c.234.14.531.313.687.453.36-.265.735-.656 1.047-1.093.297-.407.532-.875.64-1.297.126.422.345.828.61 1.187.297.375.64.703.969.907.14-.172.36-.36.547-.5a3.485 3.485 0 0 1-1.344-1.516c-.25-.594-.39-1.328-.39-2.172zm0 0"/></symbol><symbol overflow="visible" id="h"><path d="M6.078-6.625V-.75h.75v-3.266h1.11v-.64h-1.11v-1.969zm-.344 3.234c-.546.11-2.015.282-2.843.297l-1.313.016v-2.547H4.61v-.64H.844v3.843c.031 0 1.375 0 1.984-.015 1.047-.032 2.328-.188 2.906-.329zm1.344 4.594v-.64H2.422v-2.016h-.75v2.656zm0 0"/></symbol><symbol overflow="visible" id="i"><path d="M7.203 1.36v-7.985h-.75v7.984zM1.031-4.376c0 1.094.875 2 2.125 2 1.235 0 2.125-.906 2.125-2 0-1.094-.89-1.984-2.125-1.984-1.25 0-2.125.89-2.125 1.984zm.735 0c0-.75.53-1.36 1.39-1.36.86 0 1.36.61 1.36 1.36 0 .75-.5 1.36-1.36 1.36-.86 0-1.39-.61-1.39-1.36zm4.406 3.016c-.64.109-2.531.25-3.219.265-.328.016-2.312.016-2.344.016v.656c.016 0 1.657.016 1.985 0a26.518 26.518 0 0 0 3.578-.297zm0 0"/></symbol><symbol overflow="visible" id="j"><path d="M7.438-4.797H6.046v-.875l.047-.844-.735-.109.063.953v.875h-.844v.563h.844c0 1.39-.125 3.125-1.016 4.28v-.155L2.86-.016v-.562h1.5v-.485h-1.5v-.421h1.407V-3.97H2.859v-.515h1.547v-.485H2.86v-.687c.422-.078 1.016-.188 1.5-.328l-.234-.485c-.969.328-2.594.5-3.438.485l.204.5c.359 0 .859-.032 1.359-.094v.61H.453v.484H2.25v.515H.875v2.485H2.25v.421H.734v.485H2.25v.61L.469.108l.14.563L4.094.39c-.11.109-.235.218-.375.343l.453.5C5 .406 5.484-.437 5.703-1.296c.25-.954.281-1.891.313-2.938h.828v2.578c0 .468.031 1.906-.485 2.093-.25.094-.437.079-.875.032l.25.687c.313 0 .672-.078.891-.172.828-.312.781-1.734.797-2.453.016-1.11.016-2.203.016-3.328zm-3.75 1.281v.563h-.829v-.563zm0 1.016v.578h-.829V-2.5zM2.266-3.516v.563h-.844v-.563zm0 1.016v.578h-.844V-2.5zm0 0"/></symbol><symbol overflow="visible" id="k"><path d="M.61-3.188h3.5v-.5H2.561v-.656H3.72v-.468H2.563v-.641h1.406v-.469H2.563l.109-.625-.75-.078.062.703H.672v.469h1.312v.64H.844v.47h1.14v.655H.61zm6.796 1.22h.407v-.516h-.407v-1.297H4.328v.5h1.219v.797H3.984v.515h1.563v.735H4.313v.515h1.234v.875c0 .157.016.313-.172.375-.156.078-.406.047-.688-.015.125.328.204.609.235.64.25.016.594.032.844-.093.265-.125.328-.407.328-.594V-.72h1.312zM3.72-2.642H.859v3.875h.532V-.469h1.78v.563c0 .125.017.375-.124.453-.156.078-.328.047-.688-.031l.204.64c.28.016.515.016.765-.093.281-.125.39-.391.39-.688zm3.125-.64v.797h-.75v-.797zm0 1.312v.735h-.75v-.735zM3.172-2.14v1.188h-.61v-1.188zM2-2.14v1.188h-.61v-1.188zm5-1.953c.203-.297.297-.531.563-1.156L7-5.484c-.14.437-.25.796-.484 1.156zm.266-2.312c-.813.328-2.172.39-3.157.36l.141.5c1.156 0 2.453-.048 3.406-.376zM6.328-4.36c-.172-.329-.281-.657-.469-1.094l-.5.25c.172.422.25.734.454 1.094zm-1.11 0c-.171-.235-.327-.688-.5-1l-.468.265c.156.36.313.782.5 1.047zm0 0"/></symbol><symbol overflow="visible" id="l"><path d="M3.344-3.938h1.469l.03.547H3.517v.422h1.328v.406H3.609v1.657h.985c-.313.453-.61.781-1.14 1.062l.343.438c.484-.281.75-.61 1.047-1.047V1.03h.547V-.5c.25.313.625.672.89.89l.36-.359c-.329-.203-.72-.625-.97-.937h1v-1.656h-1.28v-.407h1.375v-.422h-1.36l.047-.484-.469-.047v-2.437H2.781v7.53h.563zm1.5 2.594h-.719v-.781h.719zM4.75-1.5c-.063-.188-.125-.375-.172-.547l-.328.11c.047.203.11.343.188.53zm1.406.156h-.765v-.781h.765zm-.484-.703c-.047.172-.125.36-.188.547l.313.094c.094-.188.156-.328.203-.532zM4.453-4.39h-1.11v-.562h1.11zm0-.968h-1.11v-.579h1.11zm3.063-1.032H5.375v2.407h1.578V.328c0 .281-.047.313-.234.313l-.61-.032.188.547c.062 0 .64-.031.812-.093.375-.141.407-.485.407-.86zm-.563 1.97h-1v-.532h1zm0-.938h-1v-.61h1zM2.641-2.406c-.313-.531-.407-.719-.657-1.125l-.14.156v-.75h.718v-.516H1.86v-1.015l.079-.797-.72-.078.063.922v.968H.328v.516h.922a7.56 7.56 0 0 1-.969 2.766L.766-1c.187-.406.328-.688.484-1.047V1.22h.594v-3.86c.156.25.203.36.36.641zm0 0"/></symbol><symbol overflow="visible" id="m"><path d="M6.844-2.688l-5.219-3.14V.453zm-.61 0L1.922-.108v-5.157zm0 0"/></symbol><symbol overflow="visible" id="n"><path d="M4.531.375v-.5h-3.39c.125-.547.453-1.11.968-1.453l1.032-.719c.609-.437 1.25-.922 1.296-1.937.047-1.016-.687-1.891-1.968-1.891-1.313 0-1.985 1-1.969 1.953h.563c0-.734.453-1.39 1.375-1.39.874 0 1.39.562 1.374 1.328-.015.625-.437 1.03-.937 1.39l-1.047.735C.594-1.234.5-.422.468.375zm0 0"/></symbol><symbol overflow="visible" id="o"><path d="M3 .438v-6.391h-.453c-.016.328-.203.64-.438.828-.328.219-.625.313-.968.313v.484h1.265V.438zm0 0"/></symbol><symbol overflow="visible" id="p"><path d="M1.484.969V0H.5v.969zm0 0"/></symbol><symbol overflow="visible" id="q"><path d="M2.469-6.078C1.016-6.078.234-4.703.234-2.766.234-.812 1.016.563 2.47.563c1.453 0 2.25-1.375 2.25-3.329 0-1.937-.797-3.312-2.25-3.312zm0 6.094C1.453.016.906-1.172.906-2.766c0-1.578.547-2.765 1.563-2.765 1.031 0 1.562 1.187 1.562 2.765C4.031-1.172 3.5.016 2.47.016zm0 0"/></symbol><symbol overflow="visible" id="r"><path d="M4.906-.797v-.5h-.953v-4.672H3.36l-3.015 4.5v.672h3.015V.438h.594V-.798zm-1.547-.5H.922L3.359-5zm0 0"/></symbol><symbol overflow="visible" id="s"><path d="M2.453-6.125C1.297-6.125.422-5.235.391-4c-.032 1.172.734 2.156 1.875 2.234A1.898 1.898 0 0 0 4.03-2.64c.047.344.016 1-.218 1.579-.266.656-.61 1.125-1.376 1.125C1.61.063 1.11-.531 1-1.157H.422c.094.86.86 1.798 1.984 1.766.985-.03 1.64-.593 2.016-1.593.375-1 .36-2.704.094-3.532-.313-.937-1.032-1.609-2.063-1.609zm.016 3.813c-.86 0-1.453-.688-1.453-1.657 0-.953.593-1.61 1.453-1.61.875 0 1.469.673 1.469 1.61 0 .953-.594 1.656-1.47 1.656zm0 0"/></symbol><symbol overflow="visible" id="u"><path d="M1.688 1.406v-8.203H1.14v8.203zm0 0"/></symbol><symbol overflow="visible" id="v"><path d="M4.64-.75c-.312-.203-.734-.578-1.156-1.234-.437-.672-.656-1.641-.656-2.47v-.655h1.453v-.547H.671v.547h1.47v.656c0 .812-.188 1.578-.547 2.297A5.205 5.205 0 0 1 .187-.5l.547.406c.375-.312.829-.828 1.157-1.328.328-.531.53-1 .593-1.281.079.281.313.86.657 1.312.375.5.765.891 1.046 1.079zM5.89.89v-7.343h-.64v2.766H3.89v.578h1.36v4zm1.626.36v-7.89h-.657v7.89zm0 0"/></symbol><symbol overflow="visible" id="w"><path d="M4.5-5.797v-.562H1.984v.562zm1.11 1.25v-.562H.905v.562zM7.218 1.25v-7.89h-.657v7.89zM6.187-.25v-.563c-.687.11-1.812.172-2.562.188v-.938c.969-.093 1.64-.625 1.64-1.25 0-.687-.827-1.296-1.984-1.296-1.156 0-1.953.593-1.953 1.28 0 .657.64 1.188 1.625 1.282v.938h-2.5v.562H3.25A36.04 36.04 0 0 0 6.188-.25zM4.625-2.813c0 .422-.547.735-1.344.735-.765 0-1.328-.313-1.328-.75 0-.422.563-.75 1.328-.75.797 0 1.344.328 1.344.765zm0 0"/></symbol><symbol overflow="visible" id="x"><path d="M5.484-.813c-.468-.25-1.156-.765-1.609-1.453-.547-.78-.734-1.671-.734-2.546v-1.375h-.688v1.375c0 .875-.219 1.828-.687 2.562C1.328-1.562.64-.953.062-.61l.532.454a6.183 6.183 0 0 0 1.36-1.25c.5-.657.765-1.25.843-1.578.11.328.39.921.86 1.515a5.32 5.32 0 0 0 1.359 1.14zM6.891-6.64h-.657V1.25h.657v-4.11h1.265v-.578H6.891zm0 0"/></symbol><symbol overflow="visible" id="y"><path d="M4.734-3.125c0-1.766-.78-2.906-2.015-2.906C1.5-6.031.703-4.891.703-3.125c0 1.75.797 2.906 2.016 2.906 1.234 0 2.015-1.172 2.015-2.906zM7.22 1.25v-7.89h-.657v7.89zM4.094-3.14c0 1.265-.485 2.312-1.36 2.312-.875 0-1.375-1.047-1.375-2.313 0-1.234.5-2.28 1.375-2.28s1.36 1.046 1.36 2.28zm0 0"/></symbol><symbol overflow="visible" id="z"><path d="M7.188-.906v-5.735H6.53v1.954H4.734c-.14-.954-.968-1.688-2.093-1.688-1.235 0-2.11.906-2.11 2.016 0 1.093.875 2 2.11 2 1.156 0 2-.766 2.109-1.75h1.781v3.203zm.187 1.984V.531H2.437v-1.953h-.671v2.5zm-4.734-6.86c.921 0 1.437.641 1.437 1.423 0 .78-.516 1.39-1.437 1.39-.907 0-1.422-.61-1.422-1.39 0-.782.515-1.422 1.422-1.422zm0 0"/></symbol><symbol overflow="visible" id="A"><path d="M7.469-2.188c-.375-.109-1.328-.546-2-1.171C4.844-3.938 4.422-4.75 4.422-5.5v-.61h-.734v.61c0 .75-.422 1.563-1.047 2.14-.672.626-1.625 1.063-2 1.172l.453.485c.312-.094 1.14-.484 1.812-1.063.578-.515 1.047-1.203 1.14-1.562.11.36.579 1.047 1.157 1.562.672.579 1.5.97 1.813 1.063zm.468 2.22v-.548H.173v.547zm0 0"/></symbol><symbol overflow="visible" id="B"><path d="M7-5.328v-.563H1.094v.563zM7.938.219v-.563H4.374V-2.14h2.813v-.546H5.905l.172-2.36h-.656l-.172 2.36H2.86l-.188-2.36h-.656l.171 2.36H.907v.546h2.796v1.797H.172V.22zm0 0"/></symbol><symbol overflow="visible" id="C"><path d="M7.188-1.922V-6.64H6.53v1.813H4.938v.547H6.53v2.36zM5.609-2.5v-.547c-.421.063-1.296.156-2.078.188-.86.03-2 .015-2.062.015v-1.14H4.5V-6.22H.812v.563h3.032v1.125H.813v2.25c.093 0 1.718.015 2.78-.047A19.89 19.89 0 0 0 5.61-2.5zm1.547 3.672v-2.64H1.75v2.64zM6.484.609H2.422V-.92h4.062zm0 0"/></symbol></defs><g fill="#393536"><use xlink:href="#a" x="42.468" y="48.426"/><use xlink:href="#b" x="48.041" y="48.426"/><use xlink:href="#c" x="53.614" y="48.426"/></g><g fill="#231f20"><use xlink:href="#d" x="74.885" y="47.727"/><use xlink:href="#e" x="82.886" y="47.727"/><use xlink:href="#f" x="85.492" y="47.727"/><use xlink:href="#g" x="88.099" y="47.727"/><use xlink:href="#h" x="96.1" y="47.727"/><use xlink:href="#i" x="104.1" y="47.727"/><use xlink:href="#f" x="112.1" y="47.727"/><use xlink:href="#j" x="114.707" y="47.727"/><use xlink:href="#k" x="122.707" y="47.727"/><use xlink:href="#l" x="130.707" y="47.727"/></g><use xlink:href="#m" x="354.799" y="693.734" fill="#33459a"/><g fill="#231f20"><use xlink:href="#n" x="362.815" y="693.734"/><use xlink:href="#o" x="367.678" y="693.734"/><use xlink:href="#p" x="372.54" y="693.734"/><use xlink:href="#q" x="374.699" y="693.734"/><use xlink:href="#r" x="379.561" y="693.734"/><use xlink:href="#p" x="384.424" y="693.734"/><use xlink:href="#q" x="386.582" y="693.734"/><use xlink:href="#s" x="391.445" y="693.734"/><use xlink:href="#t" x="396.308" y="693.734"/><use xlink:href="#t" x="399.303" y="693.734"/></g><use xlink:href="#u" x="402.298" y="693.734" fill="#616471"/><g fill="#231f20"><use xlink:href="#t" x="405.055" y="693.734"/><use xlink:href="#t" x="408.05" y="693.734"/></g><g fill="#33459a"><use xlink:href="#v" x="411.045" y="693.734"/><use xlink:href="#o" x="419.062" y="693.734"/><use xlink:href="#w" x="423.924" y="693.734"/><use xlink:href="#t" x="431.941" y="693.734"/><use xlink:href="#x" x="434.936" y="693.734"/><use xlink:href="#y" x="442.952" y="693.734"/><use xlink:href="#z" x="450.969" y="693.734"/><use xlink:href="#A" x="458.985" y="693.734"/><use xlink:href="#t" x="467.002" y="693.734"/><use xlink:href="#B" x="469.997" y="693.734"/><use xlink:href="#C" x="478.013" y="693.734"/></g><use xlink:href="#m" x="354.799" y="345.004" fill="#33459a"/><g fill="#231f20"><use xlink:href="#n" x="362.815" y="345.004"/><use xlink:href="#o" x="367.678" y="345.004"/><use xlink:href="#p" x="372.54" y="345.004"/><use xlink:href="#q" x="374.699" y="345.004"/><use xlink:href="#r" x="379.561" y="345.004"/><use xlink:href="#p" x="384.424" y="345.004"/><use xlink:href="#q" x="386.582" y="345.004"/><use xlink:href="#s" x="391.445" y="345.004"/><use xlink:href="#t" x="396.308" y="345.004"/><use xlink:href="#t" x="399.303" y="345.004"/></g><use xlink:href="#u" x="402.298" y="345.004" fill="#616471"/><g fill="#231f20"><use xlink:href="#t" x="405.055" y="345.004"/><use xlink:href="#t" x="408.05" y="345.004"/></g><g fill="#33459a"><use xlink:href="#v" x="411.045" y="345.004"/><use xlink:href="#o" x="419.062" y="345.004"/><use xlink:href="#w" x="423.924" y="345.004"/><use xlink:href="#t" x="431.941" y="345.004"/><use xlink:href="#x" x="434.936" y="345.004"/><use xlink:href="#y" x="442.952" y="345.004"/><use xlink:href="#z" x="450.969" y="345.004"/><use xlink:href="#A" x="458.985" y="345.004"/><use xlink:href="#t" x="467.002" y="345.004"/><use xlink:href="#B" x="469.997" y="345.004"/><use xlink:href="#C" x="478.013" y="345.004"/></g></svg>