<svg xmlns="http://www.w3.org/2000/svg" xmlns:xlink="http://www.w3.org/1999/xlink" width="793.701" height="1058.268" viewBox="0 0 595.276 793.701" version="1.2"><defs><symbol overflow="visible" id="a"><path d="M10.406 1.969V-9.578H9.375v4.234H8.031V-9.39H7V1.422h1.031v-5.719h1.344V1.97zM4.125-6.687V-7.86H6v-.907H1.14v.907h1.907v.984c0 1.375-.219 2.547-.672 3.547-.453 1-1.172 1.812-2.14 2.469.328.203.75.437.968.671.516-.39 1.031-.968 1.469-1.593.406-.594.734-1.25.89-1.875.172.625.5 1.203.876 1.703.406.547.89 1.016 1.343 1.328.203-.25.516-.516.766-.734a4.896 4.896 0 0 1-1.875-2.188c-.36-.875-.547-1.922-.547-3.14zm0 0"/></symbol><symbol overflow="visible" id="b"><path d="M8.516-9.578v8.484h1.062v-4.703h1.547v-.937H9.578v-2.844zM8.03-4.906c-.75.172-2.812.406-3.984.422l-1.844.03v-3.671h4.25v-.922H1.187V-3.5c.047 0 1.922 0 2.766-.031 1.485-.047 3.281-.266 4.078-.453zm1.89 6.64V.813H3.407v-2.907H2.344v3.828zm0 0"/></symbol><symbol overflow="visible" id="c"><path d="M9.969-3.344v-6.234H8.922v2.297H6.484v-1.907h-1v1.72H2.328v-1.72H1.297v5.313h5.187v-2.469h2.438v3zM5.484-4.78H2.328v-1.782h3.156zm4.485 6.64v-4.687H8.922v1.344H3.578v-1.344H2.516v4.687zM8.922.97H3.578V-.594h5.344zm0 0"/></symbol><symbol overflow="visible" id="d"><path d="M9.969-1.078v-8.5H8.922v8.5zM.859-6.375c0 1.656 1.22 3.031 2.97 3.031 1.733 0 2.968-1.375 2.968-3.031 0-1.688-1.234-3.047-2.969-3.047-1.75 0-2.969 1.36-2.969 3.047zm1.063 0c0-1.188.703-2.11 1.906-2.11 1.203 0 1.906.922 1.906 2.11 0 1.156-.703 2.078-1.906 2.078-1.203 0-1.906-.922-1.906-2.078zm8.375 8.11V.811H3.609v-2.875H2.531v3.797zm0 0"/></symbol><symbol overflow="visible" id="f"><path d="M9.875 1.969V-9.578H8.812V1.969zM6.578-.953v-7.89H1.36v7.89zm-1.031-.922H2.422v-6.031h3.125zm0 0"/></symbol><symbol overflow="visible" id="g"><path d="M10.094 1.969V-9.578H9.063v4.11H7.687v-3.923h-1.03V1.422h1.03v-5.844h1.375v6.39zM6.234-2c-.484.094-1.656.203-2.437.219l-1.485.031v-2.625H5.36v-4.516H1.281v.922h3.063v2.672H1.28v4.484l2.172-.03a21.41 21.41 0 0 0 2.781-.25zm0 0"/></symbol><symbol overflow="visible" id="h"><path d="M10.094 1.969V-9.578H9.063V1.969zM1.438-6.328c0 1.594 1.25 2.89 2.984 2.89 1.719 0 2.969-1.296 2.969-2.89 0-1.563-1.25-2.86-2.97-2.86-1.734 0-2.984 1.297-2.984 2.86zm1.046 0c0-1.078.735-1.953 1.938-1.953 1.203 0 1.906.875 1.906 1.953 0 1.094-.703 1.969-1.906 1.969-1.203 0-1.938-.875-1.938-1.97zm6.172 4.375c-.906.14-3.562.344-4.531.375-.453.016-3.234.016-3.281.016v.953c.031 0 2.328.015 2.781 0 2.078-.032 4.063-.282 5.031-.422zm0 0"/></symbol><symbol overflow="visible" id="i"><path d="M11.266-5.516v-.968H9.703v-3.094H8.641v7.406h1.062v-3.344zM5.812-8.734v-.875H2.376v.875zM7.407-7v-.875H.828V-7zM1.281-4.453c0 1.031 1.172 1.89 2.828 1.89 1.75 0 2.844-.843 2.844-1.89 0-1.063-1.062-1.906-2.828-1.906-1.688 0-2.844.843-2.844 1.906zm1.11-.016c0-.64.671-1.047 1.734-1.047 1.078 0 1.719.391 1.719 1.047 0 .657-.625 1.078-1.719 1.078-1.063 0-1.734-.406-1.734-1.078zm7.312 6.5v-3.64H2.188v.906h6.421V2.03zm0 0"/></symbol><symbol overflow="visible" id="j"><path d="M9.969-1.078v-8.5H8.922v1.344H6.203a2.878 2.878 0 0 0-2.39-1.235c-1.735 0-2.97 1.406-2.97 3.078s1.235 3.047 2.97 3.047c1.062 0 1.937-.515 2.453-1.297h2.656v3.563zM8.922-5.562H6.656c.094-.266.14-.547.14-.829 0-.312-.046-.64-.14-.906h2.266zm-7-.829c0-1.171.703-2.125 1.89-2.125 1.22 0 1.907.954 1.907 2.125 0 1.157-.688 2.11-1.907 2.11-1.187 0-1.89-.953-1.89-2.11zm8.36 8.125V.813H3.608v-2.875H2.531v3.796zm0 0"/></symbol><symbol overflow="visible" id="k"><path d="M10.906-3.11v-.937H9.094c.281-1.312.515-3.516.562-5.125H1.61v.922h6.922A25.348 25.348 0 0 1 8-4.047H.375v.938h4.64v5.078h1.048V-3.11zm0 0"/></symbol><symbol overflow="visible" id="l"><path d="M6.266-7.375v-.031h2.609v-1.375H1.906v1.375H4.5v.015c-.063.61-.438 1.172-.969 1.641-.687.578-1.594 1.016-2.469 1.266.391.328.891.828 1.188 1.187.672-.265 1.328-.61 1.875-1.047.547-.406 1-.875 1.266-1.375.328.516.796.953 1.328 1.328a7.083 7.083 0 0 0 1.672.813c.218-.313.625-.797.968-1.172a5.38 5.38 0 0 1-1.968-.969c-.579-.453-1.047-1.031-1.125-1.656zm3.687 5.297c-1.031.14-3.187.281-3.781.281v-2.016h-1.61v2.047H.938v1.454h3c1.954 0 4.922-.172 6.016-.36zm2.063 4.406v-13.594h-1.579V2.328zM7.328-9.719v-1.344h-4v1.344zm0 0"/></symbol><symbol overflow="visible" id="m"><path d="M11.828-1.281v-9.985H10.25v9.985zm-6.36-7.844v-1.844H3.782v1.89c0 1.017-.36 1.907-.937 2.657-.64.86-1.578 1.547-2.563 2.031.438.344 1.016.829 1.281 1.11A8.03 8.03 0 0 0 3.36-4.625c.563-.563 1.063-1.203 1.266-1.828.344.64.875 1.234 1.453 1.719a9.06 9.06 0 0 0 1.64 1.093c.25-.328.704-.843 1.032-1.25a5.363 5.363 0 0 1-2.281-1.625c-.61-.734-1-1.625-1-2.609zm6.673 11.188V.64H4.53v-2.938H2.906v4.36zm0 0"/></symbol><symbol overflow="visible" id="n"><path d="M12.781-3.5v-1.438H7.437v-1.53h3.954v-1.407H3.625v-1.656h7.625v-1.39H2.016v4.452h3.78v1.532H.47V-3.5zM6.61 2.594c3.204 0 4.922-1.156 4.922-2.656 0-1.5-1.719-2.61-4.922-2.61-3.171 0-4.906 1.11-4.906 2.61 0 1.5 1.734 2.656 4.906 2.656zM3.547-.078c0-.86 1.156-1.344 3.062-1.344 1.891 0 3.079.516 3.079 1.375 0 .828-1.188 1.313-3.079 1.313-1.906 0-3.062-.5-3.062-1.344zm0 0"/></symbol><symbol overflow="visible" id="o"><path d="M13-4.875v-1.406h-1.703v-1.563H13v-1.39h-1.703v-2.032H9.719v8.61h1.578v-2.219zm-6.313-5.203v-1.25H2.579v1.25zm1.844 2.062v-1.25H.766v1.25zm-7.36 2.61c0 1.156 1.485 2.125 3.485 2.125 2.14 0 3.485-.938 3.485-2.14 0-1.188-1.344-2.048-3.47-2.048-2.03 0-3.5.89-3.5 2.063zm5.298-.016c0 .64-.672.984-1.797.984s-1.828-.328-1.828-.968c0-.625.703-.969 1.828-.969s1.797.328 1.797.953zM11.579 0c0-1.578-1.938-2.547-4.688-2.547-2.61 0-4.72.89-4.72 2.5 0 1.61 2.032 2.625 4.704 2.625 2.656 0 4.703-.922 4.703-2.578zM3.936-.031c0-.938 1.47-1.266 2.938-1.266 1.625 0 2.89.406 2.89 1.266 0 .906-1.374 1.328-2.874 1.328S3.937.875 3.937-.031zm0 0"/></symbol><symbol overflow="visible" id="p"><path d="M12.797.828V-.609h-5.36v-2.766h3.766v-7.484H9.61v2.218H3.625v-2.218H2.031v7.484h3.75v2.766H.453V.828zm-3.188-5.64H3.625v-2.422h5.984zm0 0"/></symbol><symbol overflow="visible" id="q"><path d="M1.766-10.516v1.422h7.843c-.078 2.125-.359 4.531-.75 6.672h1.579c.437-2.344.78-5.75.89-8.094zM12.796.828V-.609H6.314v-5.063h-1.61v5.063H.453V.828zm0 0"/></symbol><symbol overflow="visible" id="r"><path d="M11.828 2.328v-13.594h-1.594v3.954h-2.78v1.515h2.78v8.125zM5.438-7.719v-3H3.766v2.906c0 1.36-.282 2.579-.829 3.625C2.313-3 1.375-2.03.142-1.265c.484.329 1.046.782 1.343 1.079.579-.391 1.282-1.047 1.875-1.782.563-.703 1.063-1.484 1.266-2.187A7.706 7.706 0 0 0 6.047-2 9.645 9.645 0 0 0 7.719-.484a10.94 10.94 0 0 1 1.203-1.11c-1.125-.703-2.047-1.578-2.656-2.703-.516-.937-.829-2.062-.829-3.422zm0 0"/></symbol><symbol overflow="visible" id="t"><path d="M4.531-.922l-2.687-9.453H.172L3.734 1.141h1.579L8.89-10.375H7.219zm0 0"/></symbol><symbol overflow="visible" id="u"><path d="M4.016-6.25C5.25-6.25 5.937-4.969 5.937-3S5.25.25 4.016.25C2.796.25 2.125-1.031 2.125-3s.672-3.25 1.89-3.25zm0-1.266C1.734-7.516.578-5.703.578-3c0 2.719 1.156 4.484 3.438 4.484 2.296 0 3.5-1.765 3.5-4.484 0-2.703-1.204-4.516-3.5-4.516zm0 0"/></symbol><symbol overflow="visible" id="v"><path d="M.922-10.375V1.141h1.5v-11.516zm0 0"/></symbol><symbol overflow="visible" id="w"><path d="M1.063-.078v2.047h2.03V-.078zm0 0"/></symbol><symbol overflow="visible" id="x"><path d="M.938-7.14h1.937v8.343h1.547v-11.75H3.156C2.984-8.984 2.484-8.359.937-8.28zm0 0"/></symbol><symbol overflow="visible" id="y"><path d="M3.297-10.594C1.312-10.594.328-8.297.328-4.5c0 3.766.984 6.031 2.969 6.031 1.969 0 3-2.265 3-6.031 0-3.797-1.031-6.094-3-6.094zm0 1.36c.875 0 1.469 1.828 1.469 4.734 0 2.875-.594 4.688-1.47 4.688-.874 0-1.452-1.813-1.452-4.688 0-2.906.578-4.734 1.453-4.734zm0 0"/></symbol><symbol overflow="visible" id="A"><path d="M6.563-11.11L9-1.577l2.453-9.531h1.563L9.719.42H8.188l-3.266-11.53zm-2.36 0V.423H2.672V-11.11zm0 0"/></symbol><symbol overflow="visible" id="B"><path d="M1.39-.766h1.766v1.844H1.391zm0 0"/></symbol><symbol overflow="visible" id="C"><path d="M5.156-5.578c.32-.363.578-.676.766-.938.183-.27.328-.507.422-.718.09-.207.148-.395.172-.563.027-.164.046-.32.046-.469v-.125c0-.457-.18-.816-.53-1.078-.345-.258-.81-.39-1.391-.39-.211 0-.426.027-.641.078-.21.043-.418.133-.625.265-.21.125-.414.301-.61.516a5.326 5.326 0 0 0-.562.813L1.016-8.97c.132-.238.3-.492.5-.765.195-.278.437-.536.718-.766.29-.227.63-.414 1.016-.563.383-.144.836-.218 1.36-.218.558 0 1.062.074 1.5.219.433.136.8.335 1.093.593.29.25.508.559.656.922.153.356.235.742.235 1.156v.157c0 .636-.164 1.23-.485 1.78a10.162 10.162 0 0 1-1.234 1.657L2.891-.953H8.5V.422H.984V-.906zm0 0"/></symbol><symbol overflow="visible" id="D"><path d="M8.688-4.453c0 1.625-.325 2.879-.97 3.75C7.07.16 6.075.594 4.735.594 3.398.594 2.402.152 1.75-.72c-.648-.87-.969-2.117-.969-3.734V-6.25c0-1.613.328-2.852.985-3.719.664-.87 1.656-1.312 2.968-1.312 1.32 0 2.313.441 2.97 1.312.651.867.984 2.106.984 3.719zM7.109-6.266c0-.707-.058-1.289-.171-1.75-.118-.457-.286-.816-.5-1.078a1.762 1.762 0 0 0-.766-.562 2.844 2.844 0 0 0-.938-.156 2.81 2.81 0 0 0-.937.156c-.293.105-.55.3-.766.578-.21.273-.379.633-.5 1.078-.125.45-.187 1.027-.187 1.734v1.829c0 .699.062 1.285.187 1.75.121.46.29.824.5 1.093.215.262.473.45.766.563.289.105.601.156.937.156.332 0 .645-.05.938-.156.289-.114.547-.301.766-.563.214-.27.382-.633.5-1.093.113-.458.171-1.04.171-1.75zm0 0"/></symbol><symbol overflow="visible" id="E"><path d="M5.047.422V-9.25l-2.61 1.594-.734-1.282 3.594-2.171h1.297V.42zm0 0"/></symbol><symbol overflow="visible" id="F"><path d="M10.922-1.984v-4.86H6.875V-8.14h4.047v-1.28H6.875v-1.282h4.047V-12.5h1.515v10.516zM2.89-11.625v6.188c.632 0 1.21-.004 1.734-.016a44.576 44.576 0 0 0 2.953-.14c.488-.052 1.02-.114 1.594-.188l.156 1.312a48.2 48.2 0 0 1-1.594.188c-.511.054-1.066.097-1.656.125a48.18 48.18 0 0 1-2.031.062c-.75.012-1.645.016-2.672.016v-7.547zM5.03.703h7.688v1.375H3.5V-2.5h1.531zm0 0"/></symbol><symbol overflow="visible" id="G"><path d="M13.875-5.797h-2.203v8.031H10.14V-12.5h1.53v5.328h2.204zm-9.14.64c-.075.18-.184.364-.329.548-.136.18-.332.402-.578.671-.324.368-.695.762-1.11 1.188-.405.418-.878.879-1.405 1.375l-1-1.078a32.272 32.272 0 0 0 2.453-2.469c.226-.277.421-.535.578-.766.152-.238.273-.472.36-.703.089-.226.155-.46.187-.703.039-.238.062-.5.062-.781v-3.547H5.5v3.547c0 .313.02.598.063.844a3.406 3.406 0 0 0 .578 1.406c.164.23.367.48.609.75.32.375.664.742 1.031 1.094.364.355.774.746 1.235 1.172L8.03-1.516a39.083 39.083 0 0 1-1.36-1.328c-.366-.383-.698-.742-1-1.078-.218-.238-.413-.46-.577-.672a2.286 2.286 0 0 1-.344-.562zm0 0"/></symbol><symbol overflow="visible" id="H"><path d="M10.906-4.953v-2.984h-2.89a2.92 2.92 0 0 1-.329 1 2.965 2.965 0 0 1-.687.89c-.293.25-.652.457-1.078.61a4.05 4.05 0 0 1-1.422.234c-.594 0-1.117-.086-1.563-.266a3.534 3.534 0 0 1-1.109-.718 3 3 0 0 1-.656-1 2.909 2.909 0 0 1-.219-1.11v-.61c0-.37.07-.741.219-1.109A2.9 2.9 0 0 1 1.828-11a3.5 3.5 0 0 1 1.11-.703c.445-.184.968-.281 1.562-.281.527 0 1.004.082 1.422.234.414.148.77.352 1.062.61.29.25.52.538.688.859.176.312.289.644.344.984h2.89V-12.5h1.531v7.547zm1.531.719v6.468H3.517v-6.468H5.03v1.875h5.875v-1.875zM4.5-6.563c.32 0 .613-.05.875-.156.258-.113.477-.254.656-.422.176-.175.313-.367.407-.578.09-.215.14-.437.14-.656v-.453c0-.215-.05-.43-.14-.64a1.787 1.787 0 0 0-.407-.579c-.18-.164-.398-.3-.656-.406a2.406 2.406 0 0 0-.875-.156c-.336 0-.633.054-.89.156-.262.105-.481.242-.657.406a1.8 1.8 0 0 0-.39.578c-.094.211-.141.426-.141.64v.454c0 .219.047.441.14.656.09.211.223.403.391.578.176.168.395.309.656.422.258.106.555.157.891.157zM10.906.891v-1.922H5.031V.89zm0 0"/></symbol><symbol overflow="visible" id="I"><path d="M11.766-3.86H7.812v2.782h5.797V.266H.5v-1.344h5.781V-3.86H2.344v-7.547h1.515v2.5h6.391v-2.516h1.516zM3.859-5.187h6.391v-2.375H3.86zm0 0"/></symbol><symbol overflow="visible" id="J"><path d="M13.61-1.078V.266H.5v-1.344h4.734v-5.344h1.547v5.344zm-1.922-10.094v1.938c0 .71-.012 1.355-.032 1.937a27.837 27.837 0 0 1-.11 1.625c-.042.5-.097.988-.155 1.453-.063.461-.145.942-.235 1.438L9.625-2.97c.184-.996.32-1.953.406-2.86.082-.901.125-1.85.125-2.843v-1.125H2.11v-1.375zm0 0"/></symbol></defs><g fill="#33459a"><use xlink:href="#a" x="377.966" y="195.92"/><use xlink:href="#b" x="389.049" y="195.92"/><use xlink:href="#c" x="400.132" y="195.92"/><use xlink:href="#d" x="411.215" y="195.92"/><use xlink:href="#e" x="422.299" y="195.92"/><use xlink:href="#f" x="425.825" y="195.92"/><use xlink:href="#g" x="436.909" y="195.92"/><use xlink:href="#h" x="447.992" y="195.92"/><use xlink:href="#i" x="459.075" y="195.92"/><use xlink:href="#j" x="470.159" y="195.92"/><use xlink:href="#k" x="481.242" y="195.92"/><use xlink:href="#a" x="492.325" y="195.92"/><use xlink:href="#b" x="503.409" y="195.92"/><use xlink:href="#e" x="514.492" y="195.92"/></g><g fill="#495756"><use xlink:href="#l" x="377.966" y="218.358"/><use xlink:href="#m" x="390.962" y="218.358"/><use xlink:href="#n" x="403.959" y="218.358"/><use xlink:href="#o" x="416.956" y="218.358"/><use xlink:href="#p" x="429.953" y="218.358"/><use xlink:href="#q" x="442.949" y="218.358"/><use xlink:href="#r" x="455.946" y="218.358"/><use xlink:href="#s" x="468.943" y="218.358"/><use xlink:href="#t" x="473.078" y="218.358"/><use xlink:href="#u" x="481.821" y="218.358"/><use xlink:href="#v" x="489.56" y="218.358"/><use xlink:href="#w" x="492.588" y="218.358"/><use xlink:href="#s" x="496.723" y="218.358"/><use xlink:href="#x" x="500.859" y="218.358"/><use xlink:href="#y" x="507.209" y="218.358"/></g><g fill="#33459a"><use xlink:href="#z" x="366.477" y="372.96"/><use xlink:href="#A" x="370.197" y="372.96"/><use xlink:href="#B" x="384.148" y="372.96"/><use xlink:href="#z" x="388.551" y="372.96"/><use xlink:href="#z" x="392.271" y="372.96"/><use xlink:href="#C" x="395.991" y="372.96"/><use xlink:href="#D" x="405.292" y="372.96"/><use xlink:href="#C" x="414.593" y="372.96"/><use xlink:href="#E" x="423.893" y="372.96"/><use xlink:href="#F" x="433.194" y="372.96"/><use xlink:href="#z" x="447.145" y="372.96"/><use xlink:href="#G" x="450.865" y="372.96"/><use xlink:href="#H" x="464.816" y="372.96"/><use xlink:href="#I" x="478.767" y="372.96"/><use xlink:href="#J" x="492.718" y="372.96"/></g></svg>