<svg xmlns="http://www.w3.org/2000/svg" xmlns:xlink="http://www.w3.org/1999/xlink" width="793.701" height="1058.268" viewBox="0 0 595.276 793.701" version="1.2"><defs><symbol overflow="visible" id="a"><path d="M2.875.031c.434 0 .82-.144 1.156-.437.332-.301.594-.64.782-1.016.183-.34.316-.71.39-1.11.082-.402.125-.804.125-1.202 0-.403-.05-.813-.14-1.22a4.843 4.843 0 0 0-.407-1.155A3.031 3.031 0 0 0 4-7.063a1.747 1.747 0 0 0-1.14-.421c-.844 0-1.473.457-1.876 1.359-.406.906-.609 1.707-.609 2.39 0 .712.203 1.52.61 2.422C1.386-.413 2.02.032 2.874.032zm0-.281c-.75 0-1.227-.441-1.422-1.328-.2-.895-.297-1.613-.297-2.156 0-.54.098-1.254.297-2.141.195-.895.672-1.344 1.422-1.344.363 0 .648.137.86.407.206.273.363.566.468.875.113.343.195.71.25 1.093.059.387.094.758.094 1.11 0 .324-.035.675-.094 1.046a9.33 9.33 0 0 1-.203 1.016c-.094.336-.254.66-.469.969-.21.305-.511.453-.906.453zm0 0"/></symbol><symbol overflow="visible" id="b"><path d="M4.094-6.734l.203-.032a.45.45 0 0 0 .14-.015c.04-.02.07-.055.094-.11l.078-.312c0-.008.008-.067.032-.172.027-.102.046-.16.046-.172 0-.058-.027-.086-.078-.078a.7.7 0 0 0-.14.016l-2.594.343c-.219.032-.352.067-.39.094-.044.031-.098.152-.157.36l-.61 2.109a.385.385 0 0 0-.046.11.438.438 0 0 0-.031.14c0 .043.02.07.062.078.04.012.078.016.11.016a10.782 10.782 0 0 1 2 .28c.433.126.796.325 1.078.595.277.273.421.652.421 1.14 0 .45-.144.867-.421 1.25a3.069 3.069 0 0 1-.985.89 5.708 5.708 0 0 1-1.015.407A5.046 5.046 0 0 1 .828.422a.758.758 0 0 0-.14.016C.632.457.609.5.609.561c0 .04.016.067.047.079a.19.19 0 0 0 .11.03c.101 0 .257-.023.468-.062A9.032 9.032 0 0 0 2.531.25c.278-.094.535-.207.766-.328a4.62 4.62 0 0 0 1.219-1.047c.363-.426.546-.914.546-1.469 0-.37-.097-.734-.28-1.078A2.1 2.1 0 0 0 4-4.5a3.72 3.72 0 0 0-1.047-.375 8.69 8.69 0 0 0-1.11-.172l-.421-.031a5.264 5.264 0 0 1-.203-.031c-.074-.008-.11-.051-.11-.125 0-.028.008-.079.032-.141a.934.934 0 0 1 .046-.14l.125-.47c.07-.226.133-.35.188-.374.05-.028.203-.063.453-.094zm0 0"/></symbol><symbol overflow="visible" id="c"><path d="M7.422 1.36v-7.985h-.734v2.938h-.954V-6.5H5V.984h.734v-3.953h.954V1.36zM2.938-4.626v-.813H4.28v-.625H.813v.625h1.359v.688c0 .953-.156 1.766-.469 2.453A4.316 4.316 0 0 1 .172-.594c.234.14.531.313.687.453.36-.265.735-.656 1.047-1.093.297-.407.532-.875.64-1.297.126.422.345.828.61 1.187.297.375.64.703.969.907.14-.172.36-.36.547-.5a3.485 3.485 0 0 1-1.344-1.516c-.25-.594-.39-1.328-.39-2.172zm0 0"/></symbol><symbol overflow="visible" id="d"><path d="M6.078-6.625V-.75h.75v-3.266h1.11v-.64h-1.11v-1.969zm-.344 3.234c-.546.11-2.015.282-2.843.297l-1.313.016v-2.547H4.61v-.64H.844v3.843c.031 0 1.375 0 1.984-.015 1.047-.032 2.328-.188 2.906-.329zm1.344 4.594v-.64H2.422v-2.016h-.75v2.656zm0 0"/></symbol><symbol overflow="visible" id="e"><path d="M7.11-2.313v-4.312h-.75v1.578H4.624v-1.312h-.719v1.187h-2.25v-1.187H.922v3.687h3.703V-4.39h1.734v2.079zm-3.204-1h-2.25V-4.53h2.25zM7.11 1.282v-3.234h-.75v.922H2.547v-.922h-.75V1.28zm-.75-.61H2.547V-.405h3.812zm0 0"/></symbol><symbol overflow="visible" id="f"><path d="M7.11-.75v-5.875h-.75V-.75zM.61-4.406c0 1.14.874 2.093 2.124 2.093 1.235 0 2.11-.953 2.11-2.093 0-1.172-.875-2.11-2.11-2.11-1.25 0-2.125.938-2.125 2.11zm.765 0c0-.828.5-1.469 1.36-1.469.859 0 1.359.64 1.359 1.469 0 .797-.5 1.437-1.36 1.437-.859 0-1.359-.64-1.359-1.437zm5.969 5.61V.562H2.562v-1.985h-.75v2.625zm0 0"/></symbol><symbol overflow="visible" id="h"><path d="M7.047 1.36v-7.985H6.28v7.984zM4.687-.657v-5.469H.97v5.469zm-.734-.64H1.72V-5.47h2.234zm0 0"/></symbol><symbol overflow="visible" id="i"><path d="M7.203 1.36v-7.985H6.47v2.844h-.985V-6.5H4.75V.984h.734v-4.046h.985v4.421zm-2.75-2.75c-.344.062-1.187.156-1.734.156l-1.063.015V-3.03h2.157v-3.125H.921v.64h2.172v1.844H.922v3.11l1.547-.016A19.11 19.11 0 0 0 4.453-.75zm0 0"/></symbol><symbol overflow="visible" id="j"><path d="M7.203 1.36v-7.985h-.75v7.984zM1.031-4.376c0 1.094.875 2 2.125 2 1.235 0 2.125-.906 2.125-2 0-1.094-.89-1.984-2.125-1.984-1.25 0-2.125.89-2.125 1.984zm.735 0c0-.75.53-1.36 1.39-1.36.86 0 1.36.61 1.36 1.36 0 .75-.5 1.36-1.36 1.36-.86 0-1.39-.61-1.39-1.36zm4.406 3.016c-.64.109-2.531.25-3.219.265-.328.016-2.312.016-2.344.016v.656c.016 0 1.657.016 1.985 0a26.518 26.518 0 0 0 3.578-.297zm0 0"/></symbol><symbol overflow="visible" id="k"><path d="M8.047-3.813v-.671H6.922v-2.141h-.766V-1.5h.766v-2.313zM4.14-6.046v-.594H1.687v.594zm1.14 1.203v-.593H.594v.593zM.921-3.078c0 .719.829 1.312 2 1.312 1.25 0 2.032-.593 2.032-1.312 0-.735-.75-1.328-2.016-1.328-1.203 0-2.015.593-2.015 1.328zm.782-.016c0-.453.484-.719 1.234-.719.766 0 1.235.266 1.235.72 0 .452-.453.75-1.234.75-.75 0-1.235-.282-1.235-.75zm5.219 4.5v-2.515h-5.36v.625h4.579v1.89zm0 0"/></symbol><symbol overflow="visible" id="l"><path d="M7.11-.75v-5.875h-.75v.922H4.421c-.36-.5-.969-.844-1.703-.844-1.235 0-2.11.969-2.11 2.125 0 1.156.875 2.11 2.11 2.11.765 0 1.39-.36 1.75-.891h1.89V-.75zm-.75-3.11H4.75a1.7 1.7 0 0 0 .094-.562c0-.219-.032-.437-.094-.625h1.61zm-4.985-.562c0-.812.5-1.469 1.344-1.469.875 0 1.36.657 1.36 1.47 0 .796-.485 1.452-1.36 1.452-.844 0-1.344-.656-1.344-1.453zm5.953 5.625v-.64H2.562v-1.985h-.75v2.625zm0 0"/></symbol><symbol overflow="visible" id="m"><path d="M7.781-2.156v-.64H6.484c.204-.907.375-2.438.407-3.548H1.156v.64h4.938a16.656 16.656 0 0 1-.39 2.907H.265v.64h3.312V1.36h.75v-3.515zm0 0"/></symbol><symbol overflow="visible" id="o"><path d="M3.813-4.36v-.015h1.593v-.813h-4.25v.813h1.578v.016c-.046.359-.265.687-.593.968-.407.344-.97.594-1.5.735.234.203.546.5.718.703.422-.156.813-.36 1.141-.61.344-.234.625-.515.781-.812.203.297.485.563.813.781.343.219.703.39 1.015.485.125-.188.375-.47.594-.688a3.35 3.35 0 0 1-1.219-.578c-.343-.266-.625-.61-.671-.984zm2.25 3.126c-.641.093-1.954.171-2.313.171V-2.25h-.969v1.203H.562v.86h1.844c1.172 0 2.985-.094 3.656-.204zm1.25 2.609v-8.016h-.954v8.016zm-2.86-7.11v-.796H2.016v.797zm0 0"/></symbol><symbol overflow="visible" id="p"><path d="M7.203-.75v-5.89h-.969v5.89zM3.328-5.39v-1.094H2.297v1.125c0 .593-.219 1.125-.563 1.562-.39.516-.968.922-1.562 1.203.266.203.625.485.781.656a5.38 5.38 0 0 0 1.094-.796c.344-.329.64-.704.765-1.079.204.376.532.735.891 1.016.328.266.688.5 1 .656.14-.203.422-.515.625-.75a3.228 3.228 0 0 1-1.39-.953c-.376-.437-.61-.969-.61-1.547zm4.063 6.609V.375H2.766v-1.734h-1v2.578zm0 0"/></symbol><symbol overflow="visible" id="q"><path d="M7.781-2.063v-.843h-3.25v-.906h2.39v-.829H2.204v-.984h4.64v-.828H1.235v2.64h2.297v.907H.281v.844zm-3.75 3.594c1.938 0 2.985-.687 2.985-1.562 0-.89-1.047-1.547-2.985-1.547-1.937 0-3 .656-3 1.547 0 .875 1.063 1.562 3 1.562zM2.156-.047c0-.515.703-.781 1.875-.781 1.14 0 1.86.297 1.86.797 0 .484-.72.781-1.86.781C2.86.75 2.156.453 2.156-.047zm0 0"/></symbol><symbol overflow="visible" id="r"><path d="M7.906-2.875v-.828H6.875v-.922h1.031v-.828H6.875v-1.188h-.969v5.063h.969v-1.297zM4.063-5.953v-.734H1.578v.734zm1.125 1.219v-.735H.468v.735zM.702-3.188c0 .688.906 1.25 2.125 1.25 1.297 0 2.125-.546 2.125-1.265 0-.703-.828-1.203-2.11-1.203-1.234 0-2.14.531-2.14 1.218zm3.235-.015c0 .375-.407.578-1.094.578-.688 0-1.11-.188-1.11-.563 0-.374.422-.578 1.11-.578.687 0 1.094.204 1.094.563zM7.046 0c0-.938-1.188-1.5-2.844-1.5-1.594 0-2.875.516-2.875 1.469 0 .953 1.234 1.547 2.86 1.547C5.796 1.516 7.046.984 7.046 0zm-4.64-.016c0-.562.874-.75 1.78-.75.985 0 1.75.235 1.75.75 0 .532-.828.782-1.734.782-.922 0-1.797-.25-1.797-.782zm0 0"/></symbol><symbol overflow="visible" id="s"><path d="M7.797.484v-.843H4.53V-2h2.282v-4.422h-.97v1.313h-3.64v-1.313h-.969V-2h2.282v1.64H.28v.844zM5.844-2.844h-3.64v-1.422h3.64zm0 0"/></symbol><symbol overflow="visible" id="t"><path d="M1.078-6.203v.828h4.766a28.365 28.365 0 0 1-.453 3.953h.968c.25-1.39.47-3.406.532-4.781zM7.797.484v-.843H3.844v-2.985h-.985v2.985H.281v.843zm0 0"/></symbol><symbol overflow="visible" id="u"><path d="M7.203 1.375v-8.016H6.22v2.313H4.53v.906H6.22v4.797zm-3.89-5.938v-1.765H2.296v1.719c0 .796-.172 1.515-.516 2.14C1.406-1.766.828-1.188.094-.75c.281.188.625.469.812.64a6.26 6.26 0 0 0 1.14-1.046c.345-.422.642-.89.767-1.297.203.453.5.906.859 1.281.344.36.719.672 1.031.89.172-.187.438-.437.719-.655-.672-.422-1.234-.938-1.61-1.594-.312-.563-.5-1.219-.5-2.031zm0 0"/></symbol><symbol overflow="visible" id="w"><path d="M2.766-.547L1.125-6.125H.109L2.266.672h.968l2.172-6.797H4.391zm0 0"/></symbol><symbol overflow="visible" id="x"><path d="M2.438-3.688c.765 0 1.171.766 1.171 1.922C3.61-.609 3.203.141 2.438.141c-.735 0-1.141-.75-1.141-1.907 0-1.156.406-1.921 1.14-1.921zm0-.75C1.046-4.438.344-3.375.344-1.765c0 1.61.703 2.641 2.094 2.641 1.406 0 2.14-1.031 2.14-2.64 0-1.61-.734-2.673-2.14-2.673zm0 0"/></symbol><symbol overflow="visible" id="y"><path d="M.563-6.125V.672h.906v-6.797zm0 0"/></symbol><symbol overflow="visible" id="z"><path d="M.64-.047v1.203h1.25V-.047zm0 0"/></symbol><symbol overflow="visible" id="A"><path d="M.563-4.219H1.75V.703h.938v-6.922h-.766c-.11.922-.406 1.282-1.36 1.328zm0 0"/></symbol><symbol overflow="visible" id="B"><path d="M2-6.25C.797-6.25.203-4.89.203-2.656.203-.437.797.906 2 .906c1.203 0 1.828-1.344 1.828-3.562C3.828-4.891 3.203-6.25 2-6.25zm0 .797c.547 0 .906 1.078.906 2.797C2.906-.97 2.546.109 2 .109c-.531 0-.875-1.078-.875-2.765 0-1.719.344-2.797.875-2.797zm0 0"/></symbol><symbol overflow="visible" id="C"><path d="M6.844-2.688l-5.219-3.14V.453zm-.61 0L1.922-.108v-5.157zm0 0"/></symbol><symbol overflow="visible" id="D"><path d="M4.531.375v-.5h-3.39c.125-.547.453-1.11.968-1.453l1.032-.719c.609-.437 1.25-.922 1.296-1.937.047-1.016-.687-1.891-1.968-1.891-1.313 0-1.985 1-1.969 1.953h.563c0-.734.453-1.39 1.375-1.39.874 0 1.39.562 1.374 1.328-.015.625-.437 1.03-.937 1.39l-1.047.735C.594-1.234.5-.422.468.375zm0 0"/></symbol><symbol overflow="visible" id="E"><path d="M3 .438v-6.391h-.453c-.016.328-.203.64-.438.828-.328.219-.625.313-.968.313v.484h1.265V.438zm0 0"/></symbol><symbol overflow="visible" id="F"><path d="M1.484.969V0H.5v.969zm0 0"/></symbol><symbol overflow="visible" id="G"><path d="M2.469-6.078C1.016-6.078.234-4.703.234-2.766.234-.812 1.016.563 2.47.563c1.453 0 2.25-1.375 2.25-3.329 0-1.937-.797-3.312-2.25-3.312zm0 6.094C1.453.016.906-1.172.906-2.766c0-1.578.547-2.765 1.563-2.765 1.031 0 1.562 1.187 1.562 2.765C4.031-1.172 3.5.016 2.47.016zm0 0"/></symbol><symbol overflow="visible" id="H"><path d="M2.672-3.813a2.255 2.255 0 0 0-1.453.454l.265-1.985 2.797-.015v-.516H1L.547-2.562h.531c.219-.329.656-.72 1.438-.704.812.032 1.437.735 1.39 1.735C3.875-.656 3.328.047 2.422.047 1.547.047 1-.641.937-1.172H.36C.484-.266 1.25.61 2.453.61c1.031 0 2.031-.78 2.078-2.171.047-1.391-.937-2.157-1.86-2.25zm0 0"/></symbol><symbol overflow="visible" id="I"><path d="M4.469-5.875H.375v.531h3.453c-.297.438-1.125 1.75-1.61 2.797-.593 1.25-.812 2.438-.859 3h.735c0-.703.328-1.937.828-3.078.469-1.063 1.25-2.328 1.547-2.703zm0 0"/></symbol><symbol overflow="visible" id="K"><path d="M1.688 1.406v-8.203H1.14v8.203zm0 0"/></symbol><symbol overflow="visible" id="L"><path d="M4.672-.75C4.359-.953 3.938-1.328 3.5-2c-.422-.656-.64-1.625-.64-2.453v-.656h1.453v-.547H.703v.547h1.469v.656c0 .812-.188 1.594-.547 2.297A5.176 5.176 0 0 1 .235-.5l.53.406a6.092 6.092 0 0 0 1.157-1.328c.328-.531.531-1 .594-1.281.078.281.328.86.671 1.312.36.5.75.875 1.032 1.079zm2.86 2v-7.89H6.89v3.171H5.766v-3h-.641v7.36h.64v-3.75h1.126V1.25zm0 0"/></symbol><symbol overflow="visible" id="M"><path d="M5.61-2.672v-.547c-.532.094-1.516.188-2.329.203l-1.875.032v-2.532h3.235v-.546H.75v3.625c.063 0 1.406.015 2.328-.032 1.016-.031 2-.125 2.531-.203zM6.827-6.64h-.656v5.735h.656v-2.938H8v-.562H6.828zm.266 7.72V.53H2.25V-1.5h-.656v2.578zm0 0"/></symbol><symbol overflow="visible" id="N"><path d="M7.156-2.406v-4.235H6.5v1.797H4.531v-1.422h-.656v1.235H1.437v-1.235H.781v3.563h3.75v-1.578H6.5v1.875zm-.031 3.578v-3.063h-.656v.954H2.39v-.954h-.657v3.063zM3.875-3.25H1.437v-1.234h2.438zM6.469.625H2.39V-.406h4.078zm0 0"/></symbol><symbol overflow="visible" id="O"><path d="M2.719-6.375c-1.25 0-2.125.906-2.125 2.016 0 1.093.875 2 2.125 2 1.234 0 2.125-.907 2.125-2 0-1.11-.89-2.016-2.125-2.016zM7.28-.906v-5.735h-.656v5.735zm.203 1.984V.531H2.516V-1.39h-.657v2.47zM2.72-5.782c.922 0 1.422.641 1.422 1.423 0 .78-.5 1.39-1.422 1.39-.906 0-1.438-.61-1.438-1.39 0-.782.532-1.422 1.438-1.422zm0 0"/></symbol><symbol overflow="visible" id="P"><path d="M4.625-.484v-5.157H.891v5.157zM7.094 1.25v-7.89h-.657v7.89zM3.969-1.047H1.547v-4.031h2.422zm0 0"/></symbol><symbol overflow="visible" id="Q"><path d="M4.453-.578v-.547c-.36.063-1.25.14-1.812.156l-1.25.016v-1.875h2.234V-5.75H.719v.563h2.25v1.796H.734v3l1.75-.015c.704-.016 1.61-.11 1.97-.172zM7.25 1.25v-7.89h-.656v3.124h-1.11v-2.953h-.64v7.36h.64v-3.813h1.11V1.25zm0 0"/></symbol><symbol overflow="visible" id="R"><path d="M5.36-4.203c0-1.047-.891-1.922-2.157-1.922-1.25 0-2.14.875-2.14 1.922 0 1.062.89 1.953 2.14 1.953 1.266 0 2.156-.89 2.156-1.953zM7.374 1.25v-7.89h-.672v7.89zM6.391-.61v-.578c-.672.094-2.11.172-3.25.188L.578-.984v.562L3.11-.438C4.156-.453 5.83-.53 6.391-.609zM4.67-4.202c0 .75-.515 1.375-1.468 1.375-.937 0-1.469-.625-1.469-1.375 0-.734.532-1.36 1.47-1.36.952 0 1.468.625 1.468 1.36zm0 0"/></symbol><symbol overflow="visible" id="S"><path d="M4.188-6.078v-.516H1.624v.516zm1.187 1.187v-.515H.5v.515zm2.734 1.063v-.563H6.953v-2.25h-.656v5.047h.656v-2.234zM2.938-1.844c1.28 0 2.046-.562 2.046-1.297 0-.734-.75-1.28-2.046-1.28-1.266 0-2.063.546-2.063 1.28 0 .735.797 1.297 2.063 1.297zM6.952 1.25v-2.344H1.422v.532h4.875V1.25zM4.297-3.14c0 .453-.469.78-1.36.78-.874 0-1.343-.328-1.343-.78 0-.438.468-.782 1.343-.782.891 0 1.36.328 1.36.781zm0 0"/></symbol><symbol overflow="visible" id="T"><path d="M7.453 1.078V.531H2.47v-1.953h-.656v2.5zM7.25-.906v-5.735h-.656v1.063H4.437c-.375-.484-.984-.797-1.718-.797-1.25 0-2.125.875-2.125 1.969 0 1.078.875 1.953 2.125 1.953.781 0 1.437-.344 1.797-.89h2.078v2.437zm-.656-3H4.75a1.76 1.76 0 0 0 .078-.5c0-.219-.031-.422-.094-.61h1.86zM2.719-5.781c.922 0 1.422.61 1.422 1.375 0 .75-.5 1.36-1.422 1.36-.922 0-1.438-.61-1.438-1.36 0-.766.516-1.375 1.438-1.375zm0 0"/></symbol><symbol overflow="visible" id="U"><path d="M7.938-2.203v-.563H6.5c.031-.218.188-.89.266-1.468.109-.704.234-1.625.25-1.922H1.078v.562h5.188c-.079.89-.344 2.375-.454 2.828H.173v.563h3.375V1.25h.656v-3.453zm0 0"/></symbol><symbol overflow="visible" id="V"><path d="M4.64-.75c-.312-.203-.734-.578-1.156-1.234-.437-.672-.656-1.641-.656-2.47v-.655h1.453v-.547H.671v.547h1.47v.656c0 .812-.188 1.578-.547 2.297A5.205 5.205 0 0 1 .187-.5l.547.406c.375-.312.829-.828 1.157-1.328.328-.531.53-1 .593-1.281.079.281.313.86.657 1.312.375.5.765.891 1.046 1.079zM5.89.89v-7.343h-.64v2.766H3.89v.578h1.36v4zm1.626.36v-7.89h-.657v7.89zm0 0"/></symbol><symbol overflow="visible" id="W"><path d="M4.5-5.797v-.562H1.984v.562zm1.11 1.25v-.562H.905v.562zM7.218 1.25v-7.89h-.657v7.89zM6.187-.25v-.563c-.687.11-1.812.172-2.562.188v-.938c.969-.093 1.64-.625 1.64-1.25 0-.687-.827-1.296-1.984-1.296-1.156 0-1.953.593-1.953 1.28 0 .657.64 1.188 1.625 1.282v.938h-2.5v.562H3.25A36.04 36.04 0 0 0 6.188-.25zM4.625-2.813c0 .422-.547.735-1.344.735-.765 0-1.328-.313-1.328-.75 0-.422.563-.75 1.328-.75.797 0 1.344.328 1.344.765zm0 0"/></symbol><symbol overflow="visible" id="X"><path d="M5.594-6.156v-.563H2.5v.563zm1.812 2.828a6.693 6.693 0 0 1-1.75-.531c-.593-.25-1.125-.688-1.218-1.016 0 0 0-.047-.016-.047h2.562v-.547H1.125v.547h2.563c-.016 0-.016.047-.016.047-.094.328-.625.766-1.219 1.031a6.539 6.539 0 0 1-1.75.516l.406.484a6.72 6.72 0 0 0 1.641-.484c.625-.297 1.203-.797 1.313-.969.109.188.671.672 1.296.969A6.72 6.72 0 0 0 7-2.844zm.532 1.531v-.562H.171v.562h3.656v1.625H4.5v-1.625zm-.782 2.875V.516H1.891V-.938h-.672v2.016zm0 0"/></symbol><symbol overflow="visible" id="Y"><path d="M3.984-5.61H.954v.563h2.312c-.063.672-.235 1.61-.797 2.516-.578.937-1.422 1.61-2 1.969L1-.156c.766-.516 1.406-1.157 2.016-2.078.656-1 .906-2.313.968-3.375zM5.781.89v-7.343h-.64v1.812H4.016v.547H5.14v1.672H3.875v.547h1.266V.891zm1.61.36v-7.89h-.657v7.89zm0 0"/></symbol><symbol overflow="visible" id="Z"><path d="M7-5.328v-.563H1.094v.563zM7.938.219v-.563H4.374V-2.14h2.813v-.546H5.905l.172-2.36h-.656l-.172 2.36H2.86l-.188-2.36h-.656l.171 2.36H.907v.546h2.796v1.797H.172V.22zm0 0"/></symbol><symbol overflow="visible" id="aa"><path d="M7.188-1.922V-6.64H6.53v1.813H4.938v.547H6.53v2.36zM5.609-2.5v-.547c-.421.063-1.296.156-2.078.188-.86.03-2 .015-2.062.015v-1.14H4.5V-6.22H.812v.563h3.032v1.125H.813v2.25c.093 0 1.718.015 2.78-.047A19.89 19.89 0 0 0 5.61-2.5zm1.547 3.672v-2.64H1.75v2.64zM6.484.609H2.422V-.92h4.062zm0 0"/></symbol><symbol overflow="visible" id="ab"><path d="M4.906-.797v-.5h-.953v-4.672H3.36l-3.015 4.5v.672h3.015V.438h.594V-.798zm-1.547-.5H.922L3.359-5zm0 0"/></symbol><symbol overflow="visible" id="ac"><path d="M2.453-6.125C1.297-6.125.422-5.235.391-4c-.032 1.172.734 2.156 1.875 2.234A1.898 1.898 0 0 0 4.03-2.64c.047.344.016 1-.218 1.579-.266.656-.61 1.125-1.376 1.125C1.61.063 1.11-.531 1-1.157H.422c.094.86.86 1.798 1.984 1.766.985-.03 1.64-.593 2.016-1.593.375-1 .36-2.704.094-3.532-.313-.937-1.032-1.609-2.063-1.609zm.016 3.813c-.86 0-1.453-.688-1.453-1.657 0-.953.593-1.61 1.453-1.61.875 0 1.469.673 1.469 1.61 0 .953-.594 1.656-1.47 1.656zm0 0"/></symbol><symbol overflow="visible" id="ad"><path d="M5.484-.813c-.468-.25-1.156-.765-1.609-1.453-.547-.78-.734-1.671-.734-2.546v-1.375h-.688v1.375c0 .875-.219 1.828-.687 2.562C1.328-1.562.64-.953.062-.61l.532.454a6.183 6.183 0 0 0 1.36-1.25c.5-.657.765-1.25.843-1.578.11.328.39.921.86 1.515a5.32 5.32 0 0 0 1.359 1.14zM6.891-6.64h-.657V1.25h.657v-4.11h1.265v-.578H6.891zm0 0"/></symbol><symbol overflow="visible" id="ae"><path d="M4.734-3.125c0-1.766-.78-2.906-2.015-2.906C1.5-6.031.703-4.891.703-3.125c0 1.75.797 2.906 2.016 2.906 1.234 0 2.015-1.172 2.015-2.906zM7.22 1.25v-7.89h-.657v7.89zM4.094-3.14c0 1.265-.485 2.312-1.36 2.312-.875 0-1.375-1.047-1.375-2.313 0-1.234.5-2.28 1.375-2.28s1.36 1.046 1.36 2.28zm0 0"/></symbol><symbol overflow="visible" id="af"><path d="M7.188-.906v-5.735H6.53v1.954H4.734c-.14-.954-.968-1.688-2.093-1.688-1.235 0-2.11.906-2.11 2.016 0 1.093.875 2 2.11 2 1.156 0 2-.766 2.109-1.75h1.781v3.203zm.187 1.984V.531H2.437v-1.953h-.671v2.5zm-4.734-6.86c.921 0 1.437.641 1.437 1.423 0 .78-.516 1.39-1.437 1.39-.907 0-1.422-.61-1.422-1.39 0-.782.515-1.422 1.422-1.422zm0 0"/></symbol><symbol overflow="visible" id="ag"><path d="M7.469-2.188c-.375-.109-1.328-.546-2-1.171C4.844-3.938 4.422-4.75 4.422-5.5v-.61h-.734v.61c0 .75-.422 1.563-1.047 2.14-.672.626-1.625 1.063-2 1.172l.453.485c.312-.094 1.14-.484 1.812-1.063.578-.515 1.047-1.203 1.14-1.562.11.36.579 1.047 1.157 1.562.672.579 1.5.97 1.813 1.063zm.468 2.22v-.548H.173v.547zm0 0"/></symbol></defs><g fill="#393536"><use xlink:href="#a" x="535.245" y="48.426"/><use xlink:href="#b" x="540.818" y="48.426"/><use xlink:href="#b" x="546.392" y="48.426"/></g><g fill="#4f4c4d"><use xlink:href="#c" x="336.467" y="47.727"/><use xlink:href="#d" x="344.467" y="47.727"/><use xlink:href="#e" x="352.468" y="47.727"/><use xlink:href="#f" x="360.468" y="47.727"/><use xlink:href="#g" x="368.468" y="47.727"/><use xlink:href="#h" x="371.075" y="47.727"/><use xlink:href="#i" x="379.075" y="47.727"/><use xlink:href="#j" x="387.076" y="47.727"/><use xlink:href="#k" x="395.076" y="47.727"/><use xlink:href="#l" x="403.076" y="47.727"/><use xlink:href="#m" x="411.076" y="47.727"/><use xlink:href="#c" x="419.077" y="47.727"/><use xlink:href="#d" x="427.077" y="47.727"/></g><use xlink:href="#n" x="435.076" y="47.727" fill="#231f20"/><g fill="#231f20"><use xlink:href="#o" x="437.683" y="47.727"/><use xlink:href="#p" x="445.683" y="47.727"/><use xlink:href="#q" x="453.684" y="47.727"/><use xlink:href="#r" x="461.684" y="47.727"/><use xlink:href="#s" x="469.684" y="47.727"/><use xlink:href="#t" x="477.684" y="47.727"/><use xlink:href="#u" x="485.685" y="47.727"/><use xlink:href="#v" x="493.685" y="47.727"/><use xlink:href="#w" x="496.292" y="47.727"/><use xlink:href="#x" x="501.703" y="47.727"/><use xlink:href="#y" x="506.503" y="47.727"/><use xlink:href="#z" x="508.436" y="47.727"/><use xlink:href="#v" x="511.043" y="47.727"/><use xlink:href="#A" x="513.65" y="47.727"/><use xlink:href="#B" x="517.605" y="47.727"/></g><use xlink:href="#C" x="287.447" y="693.734" fill="#33459a"/><g fill="#231f20"><use xlink:href="#D" x="295.463" y="693.734"/><use xlink:href="#E" x="300.326" y="693.734"/><use xlink:href="#F" x="305.189" y="693.734"/><use xlink:href="#G" x="307.347" y="693.734"/><use xlink:href="#H" x="312.21" y="693.734"/><use xlink:href="#F" x="317.072" y="693.734"/><use xlink:href="#G" x="319.231" y="693.734"/><use xlink:href="#I" x="324.093" y="693.734"/><use xlink:href="#J" x="328.956" y="693.734"/><use xlink:href="#J" x="331.951" y="693.734"/></g><use xlink:href="#K" x="334.946" y="693.734" fill="#616471"/><g fill="#231f20"><use xlink:href="#J" x="337.703" y="693.734"/><use xlink:href="#J" x="340.698" y="693.734"/></g><g fill="#33459a"><use xlink:href="#L" x="343.693" y="693.734"/><use xlink:href="#M" x="351.71" y="693.734"/><use xlink:href="#N" x="359.726" y="693.734"/><use xlink:href="#O" x="367.743" y="693.734"/><use xlink:href="#J" x="375.759" y="693.734"/><use xlink:href="#P" x="378.754" y="693.734"/><use xlink:href="#Q" x="386.771" y="693.734"/><use xlink:href="#R" x="394.787" y="693.734"/><use xlink:href="#S" x="402.804" y="693.734"/><use xlink:href="#T" x="410.82" y="693.734"/><use xlink:href="#U" x="418.836" y="693.734"/><use xlink:href="#L" x="426.853" y="693.734"/><use xlink:href="#M" x="434.869" y="693.734"/><use xlink:href="#J" x="442.886" y="693.734"/><use xlink:href="#V" x="445.881" y="693.734"/><use xlink:href="#H" x="453.897" y="693.734"/><use xlink:href="#W" x="458.76" y="693.734"/><use xlink:href="#J" x="466.777" y="693.734"/><use xlink:href="#X" x="469.772" y="693.734"/><use xlink:href="#Y" x="477.788" y="693.734"/><use xlink:href="#Z" x="485.805" y="693.734"/><use xlink:href="#aa" x="493.821" y="693.734"/></g><use xlink:href="#C" x="370.606" y="345.004" fill="#33459a"/><g fill="#231f20"><use xlink:href="#D" x="378.623" y="345.004"/><use xlink:href="#E" x="383.485" y="345.004"/><use xlink:href="#F" x="388.348" y="345.004"/><use xlink:href="#G" x="390.506" y="345.004"/><use xlink:href="#ab" x="395.369" y="345.004"/><use xlink:href="#F" x="400.232" y="345.004"/><use xlink:href="#G" x="402.39" y="345.004"/><use xlink:href="#ac" x="407.253" y="345.004"/><use xlink:href="#J" x="412.116" y="345.004"/><use xlink:href="#J" x="415.111" y="345.004"/></g><use xlink:href="#K" x="418.105" y="345.004" fill="#616471"/><g fill="#231f20"><use xlink:href="#J" x="420.863" y="345.004"/><use xlink:href="#J" x="423.858" y="345.004"/></g><g fill="#33459a"><use xlink:href="#V" x="426.853" y="345.004"/><use xlink:href="#E" x="434.869" y="345.004"/><use xlink:href="#W" x="439.732" y="345.004"/><use xlink:href="#J" x="447.748" y="345.004"/><use xlink:href="#ad" x="450.743" y="345.004"/><use xlink:href="#ae" x="458.76" y="345.004"/><use xlink:href="#af" x="466.776" y="345.004"/><use xlink:href="#ag" x="474.793" y="345.004"/><use xlink:href="#J" x="482.809" y="345.004"/><use xlink:href="#Z" x="485.804" y="345.004"/><use xlink:href="#aa" x="493.821" y="345.004"/></g></svg>