<svg xmlns="http://www.w3.org/2000/svg" xmlns:xlink="http://www.w3.org/1999/xlink" width="793.701" height="1058.268" viewBox="0 0 595.276 793.701" version="1.2"><defs><symbol overflow="visible" id="a"><path d="M7.813-11.11V.423H6.28V-11.11zm0 0"/></symbol><symbol overflow="visible" id="b"><path d="M1.39-.766h1.766v1.844H1.391zm0 0"/></symbol><symbol overflow="visible" id="d"><path d="M12.938 2.234h-1.5v-8.109H9.812v7.39h-1.5v-13.718h1.5v4.953h1.626v-5.25h1.5zM4.124-4.937a2.16 2.16 0 0 1-.266.5c-.117.18-.254.363-.406.546-.312.387-.664.793-1.047 1.22-.375.429-.773.862-1.187 1.296L.187-2.453c.465-.457.899-.899 1.297-1.328.403-.434.774-.88 1.11-1.328.3-.414.504-.829.61-1.235a5.29 5.29 0 0 0 .155-1.297V-9.75H.922v-1.328H7.14v1.328H4.844v2.11c0 .46.054.886.172 1.28.12.4.343.805.656 1.22.332.437.672.855 1.016 1.25.351.386.765.808 1.234 1.265L6.875-1.562c-.406-.426-.785-.82-1.125-1.188a19.914 19.914 0 0 1-.953-1.14 4.811 4.811 0 0 1-.406-.547 2.058 2.058 0 0 1-.25-.5zm0 0"/></symbol><symbol overflow="visible" id="e"><path d="M9.11-4.875a37.658 37.658 0 0 1-3.125.281c-.575.024-1.243.04-2 .047-.762.012-1.708.016-2.829.016v-7.016h6.625v1.36h-5.11v4.312c.79 0 1.462-.004 2.017-.016a92.168 92.168 0 0 0 2.828-.14c.425-.04.906-.094 1.437-.157zm4.703-2.406H11.78v5.297h-1.515V-12.5h1.515v3.844h2.031zM4.592.703h7.579v1.375H3.047v-4.89h1.547zm0 0"/></symbol><symbol overflow="visible" id="f"><path d="M10.906-4.813v-3.156H8.11v2.657H1.344v-6.516h1.515v2.11h3.75v-2.11h1.5v2.5h2.797V-12.5h1.531v7.688zm1.531.72v6.327H3.517v-6.328H5.03v1.813h5.875v-1.813zM10.908.89V-.953H5.03V.89zM2.858-6.656h3.75v-1.735H2.86zm0 0"/></symbol><symbol overflow="visible" id="g"><path d="M4.938.703h7.687v1.375H3.406v-4.89h1.531zm5.875-2.687V-12.5h1.53v10.516zM6.78-8.47c0-.246-.043-.492-.125-.734a1.79 1.79 0 0 0-1.031-1.14 2.216 2.216 0 0 0-.938-.188c-.375 0-.699.066-.968.187a1.726 1.726 0 0 0-.656.469c-.168.2-.293.426-.376.672-.074.242-.109.488-.109.734v.703c0 .243.04.489.125.735.082.242.207.46.375.656.164.2.379.363.64.484.27.125.595.188.97.188.363 0 .675-.063.937-.188.27-.12.488-.285.656-.484.176-.195.301-.414.375-.656a2.32 2.32 0 0 0 .125-.735zM1.094-8.53c0-.364.07-.742.218-1.14a3.13 3.13 0 0 1 .672-1.095c.301-.332.672-.601 1.11-.812.445-.215.976-.328 1.594-.328.59 0 1.113.113 1.562.328.445.21.82.48 1.125.812.3.325.523.692.672 1.094.144.399.219.777.219 1.14v.829c0 .367-.075.746-.22 1.14a3.368 3.368 0 0 1-.671 1.094c-.305.336-.68.614-1.125.828-.45.211-.973.313-1.563.313-.617 0-1.148-.102-1.593-.313a3.605 3.605 0 0 1-1.11-.828 3.239 3.239 0 0 1-.671-1.093 3.22 3.22 0 0 1-.22-1.141zm0 0"/></symbol><symbol overflow="visible" id="h"><path d="M1.516-1.64v-9.532h6.687v9.531zM3.03-3h3.656v-6.813H3.031zm7.766 5.234V-12.5h1.547V2.234zm0 0"/></symbol><symbol overflow="visible" id="i"><path d="M12.938 2.234h-1.5v-8.062H9.812v7.344h-1.5v-13.72h1.5v5h1.626V-12.5h1.5zM1.078-1.484v-5.657h3.938v-2.812H1.078v-1.297h5.406v5.375H2.547v3.094h.781c.684 0 1.352-.016 2-.047a19.96 19.96 0 0 0 1.969-.219l.156 1.266c-1.148.199-2.676.297-4.578.297zm0 0"/></symbol><symbol overflow="visible" id="j"><path d="M5.328-4.406c-.586 0-1.113-.086-1.578-.266a4.018 4.018 0 0 1-1.203-.719 3.209 3.209 0 0 1-.75-1.03 2.799 2.799 0 0 1-.266-1.204v-.734c0-.414.086-.817.266-1.204.176-.382.426-.722.75-1.015.332-.3.734-.54 1.203-.719a4.271 4.271 0 0 1 1.578-.281c.59 0 1.117.098 1.578.281.465.18.867.418 1.203.719a2.9 2.9 0 0 1 .75 1.015c.176.387.266.79.266 1.204v.734c0 .418-.09.82-.266 1.203-.168.387-.418.73-.75 1.031a4.118 4.118 0 0 1-1.203.72c-.46.179-.988.265-1.578.265zm0-1.375c.32 0 .625-.051.906-.157.29-.113.54-.257.75-.437.207-.176.368-.379.485-.61.12-.238.187-.484.187-.734v-.547c0-.257-.066-.507-.187-.75a1.792 1.792 0 0 0-.485-.609 2.495 2.495 0 0 0-.75-.422 2.66 2.66 0 0 0-.906-.156 2.628 2.628 0 0 0-1.656.578c-.211.168-.379.371-.5.61a1.698 1.698 0 0 0-.172.75v.546c0 .25.055.496.172.735.121.23.289.433.5.609.215.18.469.324.75.438.277.105.582.156.906.156zM10.25-1.22a97.43 97.43 0 0 1-2.016.172c-.68.055-1.398.098-2.156.125-.762.031-1.574.059-2.437.078-.856.012-1.79.016-2.797.016v-1.375c1.02 0 1.953-.004 2.797-.016.851-.008 1.648-.023 2.39-.047a73.347 73.347 0 0 0 2.11-.109c.664-.05 1.32-.11 1.968-.172zm.734 3.453V-12.5h1.532V2.234zm0 0"/></symbol><symbol overflow="visible" id="k"><path d="M4.781-3.547c-.586 0-1.086-.07-1.5-.219a3.326 3.326 0 0 1-1.031-.578 2.34 2.34 0 0 1-.61-.797c-.136-.3-.202-.609-.202-.921v-.5c0-.31.066-.614.203-.907.132-.3.336-.57.609-.812.27-.239.613-.43 1.031-.578.414-.145.914-.22 1.5-.22.559 0 1.051.083 1.469.235.426.149.773.34 1.047.578a2.256 2.256 0 0 1 .813 1.703v.5c0 .313-.07.622-.204.922-.136.293-.34.559-.61.797-.273.23-.62.426-1.046.578-.418.149-.91.22-1.469.22zm-2.031 1h9.031v4.922H10.25v-3.563h-7.5zM13.813-7.25H11.78v3.938h-1.515V-12.5h1.515v3.875h2.031zM8.858-9.625H.672v-1.328h3.344v-1.735H5.53v1.735H8.86zM4.781-4.812c.301 0 .57-.036.813-.11.238-.082.437-.187.593-.312.153-.121.27-.266.344-.422.082-.153.125-.317.125-.485v-.343a1.04 1.04 0 0 0-.125-.485 1.28 1.28 0 0 0-.343-.422 1.877 1.877 0 0 0-.594-.296 2.432 2.432 0 0 0-.813-.125c-.324 0-.605.042-.843.125-.231.074-.426.175-.579.296a1.19 1.19 0 0 0-.343.422c-.075.157-.11.32-.11.485v.343c0 .168.035.332.11.485.07.156.187.3.343.422.153.125.352.23.594.312.238.074.516.11.828.11zm0 0"/></symbol><symbol overflow="visible" id="l"><path d="M4.36-11.969c.581 0 1.097.106 1.546.313.446.199.82.46 1.125.781.301.324.524.691.672 1.094.152.406.234.808.234 1.203v.812c0 .399-.082.801-.234 1.204a3.368 3.368 0 0 1-.672 1.093c-.304.324-.68.59-1.125.797-.449.2-.965.297-1.547.297-.593 0-1.117-.098-1.562-.297a3.754 3.754 0 0 1-1.125-.797A3.239 3.239 0 0 1 1-6.562a3.456 3.456 0 0 1-.219-1.204v-.812c0-.395.07-.797.219-1.203a3.13 3.13 0 0 1 .672-1.094c.308-.32.687-.582 1.125-.781.445-.207.969-.313 1.562-.313zm6.562 9.985v-3.641H8.687v-1.36h2.235v-2.187H8.687v-1.36h2.235V-12.5h1.515v10.516zM5.032.703h7.734v1.375H3.5v-4.89h1.531zm-.673-6.469c.332 0 .63-.062.891-.187.27-.133.492-.3.672-.5.183-.195.328-.422.422-.672.09-.258.14-.516.14-.766v-.562c0-.258-.05-.516-.14-.766a2.043 2.043 0 0 0-.422-.687 2.106 2.106 0 0 0-1.563-.672c-.343 0-.652.066-.921.187a2.08 2.08 0 0 0-.657.485c-.18.199-.316.43-.406.687-.094.25-.14.508-.14.766v.562c0 .25.046.508.14.766.09.25.227.477.406.672.176.2.395.367.656.5.27.125.579.187.922.187zm0 0"/></symbol><symbol overflow="visible" id="m"><path d="M13.61-4.953v1.344H7.827v5.843H6.281v-5.843H.5v-1.344h9.14c.165-.79.282-1.54.344-2.25.07-.707.11-1.414.11-2.125v-.875H2.14v-1.39h9.484v1.89c0 .773-.04 1.558-.11 2.36-.074.792-.183 1.59-.328 2.39zm0 0"/></symbol><symbol overflow="visible" id="n"><path d="M7.047-7.172c-.086.18-.277.41-.578.688-.305.273-.723.582-1.25.921-.45.305-.93.614-1.438.922-.511.313-1.09.66-1.734 1.032L1.28-4.86a90.99 90.99 0 0 0 1.703-.985c.52-.308 1.04-.648 1.563-1.015.34-.239.629-.47.86-.688.226-.226.405-.46.53-.703.133-.246.223-.52.266-.813.05-.3.078-.648.078-1.046v-1.438h1.547v1.438c0 .398.02.746.063 1.046.039.293.129.567.265.813.133.25.32.496.563.734.246.23.586.489 1.015.766.489.336.973.648 1.454.938.488.28 1.035.597 1.64.937l-.734 1.234c-.586-.34-1.153-.675-1.703-1a30.53 30.53 0 0 1-1.516-.953c-.5-.332-.91-.633-1.219-.906-.312-.27-.511-.492-.593-.672zm6.562 6.094V.266H.5v-1.344h5.781v-3.156h1.532v3.156zm0 0"/></symbol><symbol overflow="visible" id="o"><path d="M12.906 2.234h-1.5v-8.218H9.687v7.5h-1.5v-13.72h1.5v4.845h1.72V-12.5h1.5zM4.97-9.703H1v-1.36h5.484v3c0 .481-.023.918-.062 1.313a5.436 5.436 0 0 1-.25 1.14 4.34 4.34 0 0 1-.516 1.048c-.23.335-.535.69-.906 1.062-.367.367-.82.762-1.36 1.188-.542.43-1.19.898-1.937 1.406L.61-2.141a27.167 27.167 0 0 0 1.829-1.312c.496-.395.91-.758 1.234-1.094.332-.332.586-.648.765-.953.176-.309.301-.613.375-.906.07-.29.114-.594.125-.907.02-.308.032-.648.032-1.015zm0 0"/></symbol><symbol overflow="visible" id="p"><path d="M5.938-11.11V.423H4.405V-11.11zm3.765 0V.423H8.172V-11.11zm0 0"/></symbol><symbol overflow="visible" id="q"><path d="M4.719-3.547c-.586 0-1.086-.07-1.5-.219a3.568 3.568 0 0 1-1.031-.578 2.34 2.34 0 0 1-.61-.797c-.125-.3-.187-.609-.187-.921v-.5c0-.31.062-.614.187-.907.133-.3.336-.57.61-.812.277-.239.624-.43 1.03-.578.415-.145.915-.22 1.5-.22.56 0 1.052.083 1.47.235.414.149.757.34 1.03.578.278.23.485.496.61.797.133.305.203.606.203.907v.5c0 .312-.07.62-.203.921a2.201 2.201 0 0 1-.61.797c-.273.23-.616.426-1.03.578-.418.149-.91.22-1.47.22zm6.203.235v-1.5H8.828v-1.36h2.094v-1.453H8.828v-1.36h2.094V-12.5h1.515v9.188zm-7.906.765h9.421v4.922h-1.546v-3.563H3.016zm5.859-7.078H.625v-1.328h3.313v-1.735h1.515v1.735h3.422zM4.719-4.812c.3 0 .566-.036.797-.11.238-.082.437-.187.593-.312.153-.121.27-.266.344-.422.082-.153.125-.317.125-.485v-.343c0-.164-.039-.329-.11-.485a1.28 1.28 0 0 0-.343-.422 1.877 1.877 0 0 0-.594-.296 2.432 2.432 0 0 0-.812-.125c-.324 0-.606.042-.844.125-.23.074-.426.175-.578.296a1.19 1.19 0 0 0-.344.422c-.062.157-.094.32-.094.485v.343c0 .168.036.332.11.485.07.156.187.3.344.422.152.125.347.23.578.312.238.074.515.11.828.11zm0 0"/></symbol><symbol overflow="visible" id="r"><path d="M4.156-11.11V.423H2.625V-11.11zm3.672 0V.423H6.297V-11.11zm3.64 0V.423h-1.53V-11.11zm0 0"/></symbol><symbol overflow="visible" id="s"><path d="M7.047-6.938c-.086.149-.262.34-.531.579-.274.242-.668.535-1.188.875a33.9 33.9 0 0 1-1.531.953c-.5.293-1.043.597-1.625.906l-.766-1.266a78.8 78.8 0 0 0 1.75-.953c.496-.277 1-.586 1.5-.922.59-.394 1.008-.796 1.25-1.203.246-.402.375-.914.375-1.531v-.375H2.125v-1.375h9.86v1.375H7.827v.375c0 .305.024.582.078.828.051.242.14.465.266.672.121.21.285.414.484.61.207.199.469.398.781.593a26.741 26.741 0 0 0 1.594.984 28.952 28.952 0 0 0 1.656.906l-.75 1.266c-.335-.183-.636-.351-.906-.5a26.288 26.288 0 0 1-.781-.453c-.25-.144-.504-.289-.75-.437-.242-.153-.492-.317-.75-.485-.512-.34-.902-.629-1.172-.859-.262-.238-.433-.426-.516-.563zm6.562 5.86V.266H.5v-1.344h5.781v-3.14h1.547v3.14zm0 0"/></symbol><symbol overflow="visible" id="t"><path d="M5.188-7.188c-.055.137-.18.325-.375.563-.188.242-.41.465-.657.672-.336.305-.71.629-1.125.969-.418.336-.847.652-1.281.953L.86-5.156c.488-.364.953-.723 1.39-1.078.445-.352.813-.664 1.094-.938.183-.195.347-.383.484-.562.133-.184.238-.375.313-.563.082-.195.14-.41.171-.64a4.62 4.62 0 0 0 .063-.782v-.562H1.328v-1.36h7.453v1.36h-2.86v.5c0 .25.009.48.032.687.02.2.055.387.11.563.058.168.144.332.25.484.101.156.242.317.421.469.352.344.739.68 1.157 1 .414.312.851.629 1.312.937l-.86 1.157a35.72 35.72 0 0 1-1.155-.86 25.734 25.734 0 0 1-1.094-.906 6.824 6.824 0 0 1-.594-.531 1.44 1.44 0 0 1-.297-.407zM2.921-3.171h9.422v5.547h-1.547v-4.188H2.922zm7.89-.765V-12.5h1.532v8.563zm0 0"/></symbol><symbol overflow="visible" id="u"><path d="M10.406 1.969V-9.578H9.375v4.234H8.031V-9.39H7V1.422h1.031v-5.719h1.344V1.97zM4.125-6.687V-7.86H6v-.907H1.14v.907h1.907v.984c0 1.375-.219 2.547-.672 3.547-.453 1-1.172 1.812-2.14 2.469.328.203.75.437.968.671.516-.39 1.031-.968 1.469-1.593.406-.594.734-1.25.89-1.875.172.625.5 1.203.876 1.703.406.547.89 1.016 1.343 1.328.203-.25.516-.516.766-.734a4.896 4.896 0 0 1-1.875-2.188c-.36-.875-.547-1.922-.547-3.14zm0 0"/></symbol><symbol overflow="visible" id="v"><path d="M8.516-9.578v8.484h1.062v-4.703h1.547v-.937H9.578v-2.844zM8.03-4.906c-.75.172-2.812.406-3.984.422l-1.844.03v-3.671h4.25v-.922H1.187V-3.5c.047 0 1.922 0 2.766-.031 1.485-.047 3.281-.266 4.078-.453zm1.89 6.64V.813H3.407v-2.907H2.344v3.828zm0 0"/></symbol><symbol overflow="visible" id="w"><path d="M9.969-3.344v-6.234H8.922v2.297H6.484v-1.907h-1v1.72H2.328v-1.72H1.297v5.313h5.187v-2.469h2.438v3zM5.484-4.78H2.328v-1.782h3.156zm4.485 6.64v-4.687H8.922v1.344H3.578v-1.344H2.516v4.687zM8.922.97H3.578V-.594h5.344zm0 0"/></symbol><symbol overflow="visible" id="x"><path d="M9.969-1.078v-8.5H8.922v8.5zM.859-6.375c0 1.656 1.22 3.031 2.97 3.031 1.733 0 2.968-1.375 2.968-3.031 0-1.688-1.234-3.047-2.969-3.047-1.75 0-2.969 1.36-2.969 3.047zm1.063 0c0-1.188.703-2.11 1.906-2.11 1.203 0 1.906.922 1.906 2.11 0 1.156-.703 2.078-1.906 2.078-1.203 0-1.906-.922-1.906-2.078zm8.375 8.11V.811H3.609v-2.875H2.531v3.797zm0 0"/></symbol><symbol overflow="visible" id="z"><path d="M9.875 1.969V-9.578H8.812V1.969zM6.578-.953v-7.89H1.36v7.89zm-1.031-.922H2.422v-6.031h3.125zm0 0"/></symbol><symbol overflow="visible" id="A"><path d="M10.094 1.969V-9.578H9.063v4.11H7.687v-3.923h-1.03V1.422h1.03v-5.844h1.375v6.39zM6.234-2c-.484.094-1.656.203-2.437.219l-1.485.031v-2.625H5.36v-4.516H1.281v.922h3.063v2.672H1.28v4.484l2.172-.03a21.41 21.41 0 0 0 2.781-.25zm0 0"/></symbol><symbol overflow="visible" id="B"><path d="M10.094 1.969V-9.578H9.063V1.969zM1.438-6.328c0 1.594 1.25 2.89 2.984 2.89 1.719 0 2.969-1.296 2.969-2.89 0-1.563-1.25-2.86-2.97-2.86-1.734 0-2.984 1.297-2.984 2.86zm1.046 0c0-1.078.735-1.953 1.938-1.953 1.203 0 1.906.875 1.906 1.953 0 1.094-.703 1.969-1.906 1.969-1.203 0-1.938-.875-1.938-1.97zm6.172 4.375c-.906.14-3.562.344-4.531.375-.453.016-3.234.016-3.281.016v.953c.031 0 2.328.015 2.781 0 2.078-.032 4.063-.282 5.031-.422zm0 0"/></symbol><symbol overflow="visible" id="C"><path d="M11.266-5.516v-.968H9.703v-3.094H8.641v7.406h1.062v-3.344zM5.812-8.734v-.875H2.376v.875zM7.407-7v-.875H.828V-7zM1.281-4.453c0 1.031 1.172 1.89 2.828 1.89 1.75 0 2.844-.843 2.844-1.89 0-1.063-1.062-1.906-2.828-1.906-1.688 0-2.844.843-2.844 1.906zm1.11-.016c0-.64.671-1.047 1.734-1.047 1.078 0 1.719.391 1.719 1.047 0 .657-.625 1.078-1.719 1.078-1.063 0-1.734-.406-1.734-1.078zm7.312 6.5v-3.64H2.188v.906h6.421V2.03zm0 0"/></symbol><symbol overflow="visible" id="D"><path d="M9.969-1.078v-8.5H8.922v1.344H6.203a2.878 2.878 0 0 0-2.39-1.235c-1.735 0-2.97 1.406-2.97 3.078s1.235 3.047 2.97 3.047c1.062 0 1.937-.515 2.453-1.297h2.656v3.563zM8.922-5.562H6.656c.094-.266.14-.547.14-.829 0-.312-.046-.64-.14-.906h2.266zm-7-.829c0-1.171.703-2.125 1.89-2.125 1.22 0 1.907.954 1.907 2.125 0 1.157-.688 2.11-1.907 2.11-1.187 0-1.89-.953-1.89-2.11zm8.36 8.125V.813H3.608v-2.875H2.531v3.796zm0 0"/></symbol><symbol overflow="visible" id="E"><path d="M10.906-3.11v-.937H9.094c.281-1.312.515-3.516.562-5.125H1.61v.922h6.922A25.348 25.348 0 0 1 8-4.047H.375v.938h4.64v5.078h1.048V-3.11zm0 0"/></symbol><symbol overflow="visible" id="F"><path d="M6.266-7.375v-.031h2.609v-1.375H1.906v1.375H4.5v.015c-.063.61-.438 1.172-.969 1.641-.687.578-1.594 1.016-2.469 1.266.391.328.891.828 1.188 1.187.672-.265 1.328-.61 1.875-1.047.547-.406 1-.875 1.266-1.375.328.516.796.953 1.328 1.328a7.083 7.083 0 0 0 1.672.813c.218-.313.625-.797.968-1.172a5.38 5.38 0 0 1-1.968-.969c-.579-.453-1.047-1.031-1.125-1.656zm3.687 5.297c-1.031.14-3.187.281-3.781.281v-2.016h-1.61v2.047H.938v1.454h3c1.954 0 4.922-.172 6.016-.36zm2.063 4.406v-13.594h-1.579V2.328zM7.328-9.719v-1.344h-4v1.344zm0 0"/></symbol><symbol overflow="visible" id="G"><path d="M11.828-1.281v-9.985H10.25v9.985zm-6.36-7.844v-1.844H3.782v1.89c0 1.017-.36 1.907-.937 2.657-.64.86-1.578 1.547-2.563 2.031.438.344 1.016.829 1.281 1.11A8.03 8.03 0 0 0 3.36-4.625c.563-.563 1.063-1.203 1.266-1.828.344.64.875 1.234 1.453 1.719a9.06 9.06 0 0 0 1.64 1.093c.25-.328.704-.843 1.032-1.25a5.363 5.363 0 0 1-2.281-1.625c-.61-.734-1-1.625-1-2.609zm6.673 11.188V.64H4.53v-2.938H2.906v4.36zm0 0"/></symbol><symbol overflow="visible" id="H"><path d="M12.781-3.5v-1.438H7.437v-1.53h3.954v-1.407H3.625v-1.656h7.625v-1.39H2.016v4.452h3.78v1.532H.47V-3.5zM6.61 2.594c3.204 0 4.922-1.156 4.922-2.656 0-1.5-1.719-2.61-4.922-2.61-3.171 0-4.906 1.11-4.906 2.61 0 1.5 1.734 2.656 4.906 2.656zM3.547-.078c0-.86 1.156-1.344 3.062-1.344 1.891 0 3.079.516 3.079 1.375 0 .828-1.188 1.313-3.079 1.313-1.906 0-3.062-.5-3.062-1.344zm0 0"/></symbol><symbol overflow="visible" id="I"><path d="M13-4.875v-1.406h-1.703v-1.563H13v-1.39h-1.703v-2.032H9.719v8.61h1.578v-2.219zm-6.313-5.203v-1.25H2.579v1.25zm1.844 2.062v-1.25H.766v1.25zm-7.36 2.61c0 1.156 1.485 2.125 3.485 2.125 2.14 0 3.485-.938 3.485-2.14 0-1.188-1.344-2.048-3.47-2.048-2.03 0-3.5.89-3.5 2.063zm5.298-.016c0 .64-.672.984-1.797.984s-1.828-.328-1.828-.968c0-.625.703-.969 1.828-.969s1.797.328 1.797.953zM11.579 0c0-1.578-1.938-2.547-4.688-2.547-2.61 0-4.72.89-4.72 2.5 0 1.61 2.032 2.625 4.704 2.625 2.656 0 4.703-.922 4.703-2.578zM3.936-.031c0-.938 1.47-1.266 2.938-1.266 1.625 0 2.89.406 2.89 1.266 0 .906-1.374 1.328-2.874 1.328S3.937.875 3.937-.031zm0 0"/></symbol><symbol overflow="visible" id="J"><path d="M12.797.828V-.609h-5.36v-2.766h3.766v-7.484H9.61v2.218H3.625v-2.218H2.031v7.484h3.75v2.766H.453V.828zm-3.188-5.64H3.625v-2.422h5.984zm0 0"/></symbol><symbol overflow="visible" id="K"><path d="M1.766-10.516v1.422h7.843c-.078 2.125-.359 4.531-.75 6.672h1.579c.437-2.344.78-5.75.89-8.094zM12.796.828V-.609H6.314v-5.063h-1.61v5.063H.453V.828zm0 0"/></symbol><symbol overflow="visible" id="L"><path d="M11.828 2.328v-13.594h-1.594v3.954h-2.78v1.515h2.78v8.125zM5.438-7.719v-3H3.766v2.906c0 1.36-.282 2.579-.829 3.625C2.313-3 1.375-2.03.142-1.265c.484.329 1.046.782 1.343 1.079.579-.391 1.282-1.047 1.875-1.782.563-.703 1.063-1.484 1.266-2.187A7.706 7.706 0 0 0 6.047-2 9.645 9.645 0 0 0 7.719-.484a10.94 10.94 0 0 1 1.203-1.11c-1.125-.703-2.047-1.578-2.656-2.703-.516-.937-.829-2.062-.829-3.422zm0 0"/></symbol><symbol overflow="visible" id="N"><path d="M4.531-.922l-2.687-9.453H.172L3.734 1.141h1.579L8.89-10.375H7.219zm0 0"/></symbol><symbol overflow="visible" id="O"><path d="M4.016-6.25C5.25-6.25 5.937-4.969 5.937-3S5.25.25 4.016.25C2.796.25 2.125-1.031 2.125-3s.672-3.25 1.89-3.25zm0-1.266C1.734-7.516.578-5.703.578-3c0 2.719 1.156 4.484 3.438 4.484 2.296 0 3.5-1.765 3.5-4.484 0-2.703-1.204-4.516-3.5-4.516zm0 0"/></symbol><symbol overflow="visible" id="P"><path d="M.922-10.375V1.141h1.5v-11.516zm0 0"/></symbol><symbol overflow="visible" id="Q"><path d="M1.063-.078v2.047h2.03V-.078zm0 0"/></symbol><symbol overflow="visible" id="R"><path d="M.938-7.14h1.937v8.343h1.547v-11.75H3.156C2.984-8.984 2.484-8.359.937-8.28zm0 0"/></symbol><symbol overflow="visible" id="S"><path d="M3.297-10.594C1.312-10.594.328-8.297.328-4.5c0 3.766.984 6.031 2.969 6.031 1.969 0 3-2.265 3-6.031 0-3.797-1.031-6.094-3-6.094zm0 1.36c.875 0 1.469 1.828 1.469 4.734 0 2.875-.594 4.688-1.47 4.688-.874 0-1.452-1.813-1.452-4.688 0-2.906.578-4.734 1.453-4.734zm0 0"/></symbol></defs><g fill="#33459a"><use xlink:href="#a" x="281.841" y="372.96"/><use xlink:href="#b" x="295.792" y="372.96"/><use xlink:href="#c" x="300.195" y="372.96"/><use xlink:href="#d" x="303.915" y="372.96"/><use xlink:href="#e" x="317.866" y="372.96"/><use xlink:href="#f" x="331.817" y="372.96"/><use xlink:href="#g" x="345.768" y="372.96"/><use xlink:href="#c" x="359.719" y="372.96"/><use xlink:href="#h" x="363.439" y="372.96"/><use xlink:href="#i" x="377.39" y="372.96"/><use xlink:href="#j" x="391.342" y="372.96"/><use xlink:href="#k" x="405.293" y="372.96"/><use xlink:href="#l" x="419.244" y="372.96"/><use xlink:href="#m" x="433.195" y="372.96"/><use xlink:href="#d" x="447.146" y="372.96"/><use xlink:href="#e" x="461.097" y="372.96"/><use xlink:href="#c" x="475.048" y="372.96"/><use xlink:href="#n" x="478.768" y="372.96"/><use xlink:href="#o" x="492.719" y="372.96"/></g><g fill="#33459a"><use xlink:href="#p" x="452.972" y="396.931"/><use xlink:href="#b" x="466.923" y="396.931"/><use xlink:href="#c" x="471.325" y="396.931"/><use xlink:href="#l" x="475.046" y="396.931"/><use xlink:href="#c" x="488.997" y="396.931"/><use xlink:href="#q" x="492.717" y="396.931"/><use xlink:href="#c" x="506.668" y="396.931"/></g><g fill="#33459a"><use xlink:href="#r" x="452.972" y="420.902"/><use xlink:href="#b" x="466.923" y="420.902"/><use xlink:href="#c" x="471.325" y="420.902"/><use xlink:href="#s" x="475.046" y="420.902"/><use xlink:href="#c" x="488.997" y="420.902"/><use xlink:href="#t" x="492.717" y="420.902"/></g><g fill="#33459a"><use xlink:href="#u" x="377.966" y="195.92"/><use xlink:href="#v" x="389.049" y="195.92"/><use xlink:href="#w" x="400.132" y="195.92"/><use xlink:href="#x" x="411.215" y="195.92"/><use xlink:href="#y" x="422.299" y="195.92"/><use xlink:href="#z" x="425.825" y="195.92"/><use xlink:href="#A" x="436.909" y="195.92"/><use xlink:href="#B" x="447.992" y="195.92"/><use xlink:href="#C" x="459.075" y="195.92"/><use xlink:href="#D" x="470.159" y="195.92"/><use xlink:href="#E" x="481.242" y="195.92"/><use xlink:href="#u" x="492.325" y="195.92"/><use xlink:href="#v" x="503.409" y="195.92"/><use xlink:href="#y" x="514.492" y="195.92"/></g><g fill="#495756"><use xlink:href="#F" x="377.966" y="218.358"/><use xlink:href="#G" x="390.962" y="218.358"/><use xlink:href="#H" x="403.959" y="218.358"/><use xlink:href="#I" x="416.956" y="218.358"/><use xlink:href="#J" x="429.953" y="218.358"/><use xlink:href="#K" x="442.949" y="218.358"/><use xlink:href="#L" x="455.946" y="218.358"/><use xlink:href="#M" x="468.943" y="218.358"/><use xlink:href="#N" x="473.078" y="218.358"/><use xlink:href="#O" x="481.821" y="218.358"/><use xlink:href="#P" x="489.56" y="218.358"/><use xlink:href="#Q" x="492.588" y="218.358"/><use xlink:href="#M" x="496.723" y="218.358"/><use xlink:href="#R" x="500.859" y="218.358"/><use xlink:href="#S" x="507.209" y="218.358"/></g></svg>