<svg xmlns="http://www.w3.org/2000/svg" xmlns:xlink="http://www.w3.org/1999/xlink" width="793.701" height="1058.268" viewBox="0 0 595.276 793.701" version="1.2"><defs><clipPath id="L"><path d="M0 410h594.555v2H0zm0 0"/></clipPath><symbol overflow="visible" id="a"><path d="M2.875.031c.434 0 .82-.144 1.156-.437.332-.301.594-.64.782-1.016.183-.34.316-.71.39-1.11.082-.402.125-.804.125-1.202 0-.403-.05-.813-.14-1.22a4.843 4.843 0 0 0-.407-1.155A3.031 3.031 0 0 0 4-7.063a1.747 1.747 0 0 0-1.14-.421c-.844 0-1.473.457-1.876 1.359-.406.906-.609 1.707-.609 2.39 0 .712.203 1.52.61 2.422C1.386-.413 2.02.032 2.874.032zm0-.281c-.75 0-1.227-.441-1.422-1.328-.2-.895-.297-1.613-.297-2.156 0-.54.098-1.254.297-2.141.195-.895.672-1.344 1.422-1.344.363 0 .648.137.86.407.206.273.363.566.468.875.113.343.195.71.25 1.093.059.387.094.758.094 1.11 0 .324-.035.675-.094 1.046a9.33 9.33 0 0 1-.203 1.016c-.094.336-.254.66-.469.969-.21.305-.511.453-.906.453zm0 0"/></symbol><symbol overflow="visible" id="b"><path d="M1.875-1.047h-.203c-.117 0-.172-.02-.172-.062 0-.04.031-.102.094-.188.058-.09.11-.156.14-.187L3.656-3.36c.34-.301.66-.633.953-1 .29-.371.438-.805.438-1.297 0-.559-.227-1-.672-1.313a2.416 2.416 0 0 0-1.453-.484c-.375 0-.723.066-1.031.187-.313.125-.598.34-.844.641a6.377 6.377 0 0 1-.219.328c-.117.168-.172.293-.172.375 0 .031.008.059.031.078.02.024.047.032.079.032.05 0 .093-.024.125-.079.039-.05.07-.093.093-.125.153-.3.375-.55.657-.75.277-.207.597-.312.953-.312.445 0 .812.144 1.094.422.277.281.421.644.421 1.078 0 .555-.23 1.121-.687 1.703-.45.574-.852 1.059-1.203 1.453L.703-.594a.789.789 0 0 1-.094.156.3.3 0 0 0-.062.157c0 .074.047.11.14.11.09-.009.165-.016.22-.016h3.968a.406.406 0 0 0 .188-.032c.039-.027.062-.082.062-.156v-1.328-.156c0-.059-.043-.094-.125-.094-.063 0-.102.035-.11.094-.011.054-.023.105-.03.156-.032.293-.114.476-.235.547-.125.074-.336.11-.625.11zm0 0"/></symbol><symbol overflow="visible" id="c"><path d="M4.297-2.078c0-.227.016-.348.047-.36.027-.007.203-.015.515-.015h.407c.039 0 .066-.008.078-.031.02-.02.031-.051.031-.094 0-.04-.008-.086-.016-.14 0-.06-.023-.095-.062-.095h-.875c-.074-.007-.117-.046-.125-.109V-5.266v-.25c0-.132-.04-.191-.11-.171l-.609.265c-.043 0-.062.024-.062.063a.427.427 0 0 1 .015.093v2.063c0 .219-.011.348-.031.375-.023.023-.137.031-.344.031h-2.11c-.023 0-.081.008-.171.016-.094.011-.14-.016-.14-.078 0-.028.03-.082.093-.157.059-.082.098-.129.11-.14l3.75-4.922c.007-.02.019-.04.03-.063.02-.02.032-.039.032-.062 0-.04-.02-.067-.047-.078a.427.427 0 0 0-.094-.016c-.074 0-.129.012-.156.031a.572.572 0 0 0-.11.11L.5-3.046c-.043.062-.09.12-.14.171a.378.378 0 0 0-.079.203c0 .149.02.219.063.219H3.14c.207 0 .32.012.343.031.028.024.047.137.047.344v.969c0 .136-.008.273-.015.406 0 .125-.086.21-.25.25a.566.566 0 0 1-.22.047h-.218a.429.429 0 0 0-.156.031c-.055.023-.078.066-.078.125 0 .055.008.09.031.11.027.011.07.015.125.015.207 0 .406-.008.594-.031a5.075 5.075 0 0 1 1.14 0 4 4 0 0 0 .532.031.235.235 0 0 0 .109-.031c.04-.02.063-.055.063-.11 0-.07-.036-.113-.094-.125a1.222 1.222 0 0 0-.172-.015c-.293 0-.473-.047-.531-.14-.063-.09-.094-.282-.094-.563zm0 0"/></symbol><symbol overflow="visible" id="d"><path d="M5.422-5.844V.453h.797v-6.297zm-3.563 0V.453h.813v-6.297zm1.782 0V.453h.812v-6.297zm0 0"/></symbol><symbol overflow="visible" id="e"><path d="M.75.047v1.016h1.031V.046zm0 0"/></symbol><symbol overflow="visible" id="g"><path d="M4.453-5.328v-.234H6.86v-.641H1.203v.64H3.61v.235c0 .703-.343 1.266-.859 1.703-.563.484-1.36.828-2.203 1.063.25.203.422.39.578.578.61-.204 1.234-.5 1.75-.86s.938-.781 1.156-1.312c.235.547.735 1.031 1.313 1.406.515.344 1.093.61 1.578.75l.562-.563c-.75-.187-1.53-.562-2.125-1.062-.53-.453-.906-1.031-.906-1.703zM7.781.359v-.64H4.406v-1.953h-.765v1.953H.28v.64zm0 0"/></symbol><symbol overflow="visible" id="h"><path d="M7.234-1.813v-4.812h-.75v4.813zM7.22 1.422v-2.844H1.78v.64h4.672v2.204zM3.39-5.36v-.266h1.671v-.64H.923v.64h1.703v.25c0 .625-.203 1.14-.547 1.578C1.641-3.25 1-2.859.281-2.562c.219.156.516.374.64.5.47-.22.907-.5 1.282-.86.344-.297.64-.687.813-1.125.234.438.562.781.937 1.063.39.296.797.515 1.156.671.125-.156.329-.359.516-.53C5-3.048 4.422-3.392 4-3.86c-.375-.422-.61-.907-.61-1.5zm0 0"/></symbol><symbol overflow="visible" id="i"><path d="M1.516-6.063l5.578 3.375L1.516.688zm0 0"/></symbol><symbol overflow="visible" id="j"><path d="M7.406-7.156l.047 3.25c.016.797.078 1.36.344 1.344.297-.016.625-.672.625-1.813L8.39-7.156c0-.532.234-.844-.157-1-.296-.11-1.109-.235-1.265-.25-.688-.047-.703.281-.282.469.516.218.72.328.72.78zm-1.765.078c-.125-.016-.86-.078-1.094.031-.281.14-1.11.156-1.906.156-.454 0-.907-.046-1.063-.062-.594-.063-.719.14-.25.437.969.61 1.125.297 1.406.235.016 0 .266-.078.485-.094.297 0 .812-.078 1.344-.11C3.625-4.452 1.765-2.734.75-2.202c-.281.156.016.437.656.156 1.188-.5 3.016-2.078 4.11-4.015.187-.329.671-.875.125-1.016zm1.546 5.39L7.173.672H4.469l-.032-2.36zM8.422.922c0-.156-.266-.235-.39-.25l.234-2.203c.03-.282.515-.532 0-.766-.344-.156-.875-.062-1.188.016-.172.078-2.406.078-2.531.078-.188 0-.61-.156-1.281-.125-.532.015-.766.39-.5.453.328.094.578.14.609.406l.156 2.547c.016.422.219.64.438.64.156 0 .422-.218.469-.484.375 0 2.218-.03 3.484-.03.312 0 .5-.095.5-.282zm0 0"/></symbol><symbol overflow="visible" id="k"><path d="M7.328-7.156l.047 7.093c0 .985.047 1.938.375 1.922.375-.015.625-1.015.61-2.546l-.047-6.47c0-.53.25-.843-.157-1-.297-.109-1.11-.234-1.265-.25-.688-.046-.704.282-.282.47.516.218.72.328.72.78zm-1.61.593c-.14-.03-.874-.078-1.109.032-.265.125-1.375.125-2.156.125-.484 0-.906-.063-1.062-.078-.532-.047-.72.187-.25.468.984.61 1.234.344 1.53.266 0 0 .188-.078.407-.078.297-.016 1-.078 1.563-.094C3.64-3.5 1.906-1.562.828-.859c-.297.203-.078.515.625.171C2.625-1.28 4.422-3.108 5.61-5.5c.188-.375.688-.906.11-1.063zm0 0"/></symbol><symbol overflow="visible" id="l"><path d="M7.375-.172c0 .64-.469 1.234-1.125 1.234-.688 0-1.156-.593-1.156-1.234 0-.687.484-1.266 1.156-1.266.656 0 1.125.594 1.125 1.266zM6.25 1.703c1.203 0 2.156-.781 2.156-1.875 0-1.516-1.625-1.719-1.625-1.734 0-.188.157-.172.016-.375-.156-.219-1.172-.297-1.172.015 0 .11.297.141.125.36 0 0-1.703.234-1.703 1.734 0 1.094.969 1.875 2.203 1.875zM4.672-5.016c0 .75-.484 1.344-1.266 1.344-.719 0-1.265-.61-1.265-1.344 0-.828.546-1.375 1.265-1.375.766 0 1.266.61 1.266 1.375zm2.797-1.421c-.688.03-1.61.062-2 0-.235-.016-.375-.016-.453.03-.47-.374-1.032-.468-1.032-.484 0-.187.141-.234.032-.406-.141-.234-1.25-.328-1.25.031 0 .11.328.157.125.375 0 .016-1.797.282-1.797 1.891 0 1.25 1.234 1.969 2.312 1.969.688 0 1.406-.281 1.844-.797.969.531 1.125.265 1.297.219 0-.016.25-.11.5-.141 0-.016.234-.016.453-.031l.016.469c0 .78.078 1.39.343 1.374.282 0 .61-.765.61-1.89l-.031-3.328c0-.532.25-.844-.157-1-.281-.11-1.11-.235-1.265-.25-.688-.047-.704.281-.282.469.516.218.72.328.72.78zm.015 2.14c-.625.031-1.5.047-1.937.016.094-.219.156-.453.156-.719 0-.328-.078-.61-.187-.828.734.328.875.11 1.03.078 0-.016.25-.11.5-.156 0 0 .204 0 .423-.016zm0 0"/></symbol><symbol overflow="visible" id="M"><path d="M4.516-3.031v2.265h-1.72C1.72-.766 1.439-.828.814-.875.219-.906-.11-.656.546-.359c1.687.75 1.719.234 2.39.187.047 0 .829-.11 2.485-.11 1.547-.015 2.469-.03 3.187.016.594.032 1.204.032 1.22-.343.046-.516-1.47-.563-2.313-.25-.235.093-1.235.093-1.938.093v-2.28h2.14c.704 0 .876-.673.095-.845-.329-.078-1.016-.046-1.235.094-.234.14-.625.188-.75.188l-2.281.03c-.172 0-.328-.108-.328-.327l-.016-2.406 4.453-.016c.719 0 .875-.625.094-.813-.344-.078-1.031-.046-1.234.094-.235.14-.594.156-.766.156l-2.531.016c-.531-.094-1.11-.203-1.453-.172-.844.094-.547.438-.266.484.469.141.625.204.625.547l.031 2.157c0 .718.563.843 1.11.843zm0 0"/></symbol><symbol overflow="visible" id="N"><path d="M8.11.5C7.765.453 7.155.469 6.952.61c-.219.156-.531.171-.766.171L3.922.797C3.75.797 3.578.703 3.578.5V-.984c0-.391.219-.657-.312-.735a6.108 6.108 0 0 0-1.204-.047c-.906.094-.468.422-.171.485.468.078.625.187.625.562V.5c0 .703.53.828 1.093.828l4.407-.047c.703 0 .875-.593.093-.781zm-.891-4.297c.187-.297.312-.734.468-1.187.204-.625.407-1.75.422-1.797.079-.36.5-.688-.156-.844-.328-.078-.797-.016-1.094.094-.343.11-3.718.156-4.468.047-1.016-.079-.657.28-.407.406 1.391.672 1.454.266 2.094.219l2.938-.094a15.057 15.057 0 0 1-.235 1.906c-.093.61-.234 1.031-.234 1.281-.594.016-1.25 0-1.516 0H2.797c-1.078 0-1.36-.062-1.985-.093-.593-.047-.921.171-.265.468 1.687.782 1.719.266 2.39.22.032 0 .329-.048 1-.063l.016 1.546c.016.782.047 1.485.36 1.485.328-.016.609-.828.609-2l-.016-1.063c.172-.015.344-.015.516-.015h.656v1.703c.016.781.047 1.484.36 1.484.328-.015.609-.828.609-2v-1.203c.656 0 1.14.016 1.562.031.594.032 1.204.032 1.22-.343.046-.516-1.47-.563-2.313-.25a.952.952 0 0 1-.297.062zm0 0"/></symbol><symbol overflow="visible" id="aw"><path d="M4.734-4.063c0 .844-.562 1.485-1.39 1.485-.781 0-1.39-.64-1.39-1.485 0-.859.609-1.5 1.39-1.5.828 0 1.39.641 1.39 1.5zm1.047 0c0-1.687-1.765-2.015-1.86-2.03 0-.22.142-.235.017-.438-.157-.282-1.235-.375-1.235.015 0 .172.281.188.094.422 0 .016-1.875.313-1.875 2.047 0 1.36 1.234 2.172 2.422 2.172 1.172 0 2.437-.813 2.437-2.188zm1.703-3.093l.047 7.093c0 .985.047 1.938.375 1.922.39-.015.625-1.015.61-2.546l-.047-6.47c0-.53.25-.843-.156-1-.282-.109-1.11-.234-1.266-.25-.688-.046-.703.282-.281.47.515.218.718.328.718.78zm0 0"/></symbol><symbol overflow="visible" id="ax"><path d="M7.453-7.156L7.5-.063c0 .985.047 1.938.375 1.922.39-.015.625-1.015.61-2.546l-.047-6.47c0-.53.25-.843-.157-1-.281-.109-1.11-.234-1.265-.25-.688-.046-.704.282-.282.47.516.218.72.328.72.78zm-2.75 1.468l-.125 3.235H2.562L2.47-5.656zm1.14 3.485c0-.188-.28-.25-.405-.25l.328-3.078c.046-.344.515-.532.015-.782-.36-.14-.875-.062-1.172.047-.171.079-1.937.094-2.046.094-.25 0-.813-.156-1.297-.14-.532.03-.704.406-.438.468.344.094.594.125.61.39l.203 3.407c.03.469.265.64.421.64.172 0 .407-.155.454-.484a78.317 78.317 0 0 1 2.812-.046c.281 0 .516-.094.516-.266zm0 0"/></symbol><symbol overflow="visible" id="aL"><path d="M4.469-5.203v1.61l-2.297.046-.016-1.61zm.984 1.547l.016-3.016c0-.266.14-.531-.25-.672-.313-.11-.875-.172-1.078-.172-.688.047-.5.329-.25.438.343.125.593.187.593.469l-.015.843-2.313.047v-.64c0-.282.125-.454-.265-.594-.313-.094-.813-.125-1.063-.156-.75.062-.469.359-.328.406.422.14.672.281.672.547L1.188-3.5c.015.734.234 1 .453.969.28-.016.484-.328.515-.469L4.5-3.047c.031.125.172.375.406.375.25 0 .516-.469.547-.984zM7.797.094v-1.266c0-.344.36-.672-.234-.797-.329-.047-.672 0-1.047.094-.329.11-3.11.172-3.97.047-.921-.11-.624.297-.39.422 1.485.812 1.563.234 2.25.203 0 0 1.985-.078 2.375-.078L6.813.5c0 .625.156 1.266.375 1.25.265 0 .625-.734.609-1.656zm.094-5.032l-.016-2.218c0-.532.25-.844-.156-1-.297-.11-1.11-.235-1.266-.25-.687-.047-.703.281-.281.469.516.218.719.328.719.78l.062 3.595c0 .796.063 1.406.328 1.39.297-.015.625-.765.625-1.906v-.375H9.47c.719 0 .86-.625.094-.781-.313-.032-.829-.047-.938.078-.156.14-.469.187-.734.218zm0 0"/></symbol><symbol overflow="visible" id="aM"><path d="M5.11-5.203c1.046.312 2.687.828 2.937.922.75.218 1-.172.797-.422-.172-.203-.61-.453-.985-.547-.406-.11-.437.016-.75-.016a19.145 19.145 0 0 1-1.359-.328c.484-.281 1.016-.703 1.469-1.078.625-.516.75-.89.187-1.047-.125-.031-.89-.078-1.11.047-.28.125-2.124.156-2.89.156-.469 0-.86-.03-1.015-.046-.594-.063-.735.187-.282.453.907.53 1.125.359 1.391.25.016 0 .234-.079.469-.11.297-.015 1.515-.078 2.156-.093-1.281 1.265-3.36 2.39-4.828 2.796-.25.063-.203.438.516.313 1.125-.188 2.25-.688 3.296-1.25zM8.124.5C7.781.453 7.156.469 6.953.61c-.203.156-.516.171-.75.171L3.97.797C3.797.797 3.64.703 3.64.5V-.61c0-.406.218-.671-.329-.75a6.108 6.108 0 0 0-1.203-.046c-.906.093-.468.422-.156.484.453.094.61.188.61.563V.5c0 .703.53.828 1.109.828l4.36-.047c.702 0 .859-.593.093-.781zM4.844-2.594v1.031c.015.797.062 1.5.375 1.485.328-.016.625-.828.625-2v-.531c1.343 0 2.187-.016 2.843.03.61.048 1.22.032 1.25-.358.032-.516-1.5-.563-2.374-.25-.329.14-2.047.093-2.532.093H2.75c-1 0-1.39-.062-2.031-.11-.594-.03-.906.22-.25.517 1.75.796 1.797.265 2.437.203.031 0 .625-.094 1.938-.11zm0 0"/></symbol><symbol overflow="visible" id="aN"><path d="M6.969-3.125c.687 0 1.203 0 1.64.031.594.031 1.204.016 1.22-.36.046-.5-1.47-.562-2.313-.233-.094.046-.266.062-.47.078.173-.25.329-.657.485-1.141.328-.969.563-2.047.578-2.11.063-.359.5-.671-.156-.827-.328-.079-.797-.032-1.125.093-.344.11-3.906.188-4.766.063-.828-.078-.578.281-.328.406 1.47.781 1.594.313 2.204.234.015 0 2.578-.109 3.046-.125-.093.86-.156 1.344-.359 2.22-.125.53-.266.952-.25 1.218-.531.015-1.094 0-1.344 0l-2.234.015c-1.078 0-1.36-.062-1.985-.093-.593-.031-.921.203-.265.5 1.687.734 1.719.234 2.39.172h.094v2.703c0 .984.094 1.922.406 1.922.376-.016.672-1.016.641-2.547v-2.14c.36-.032.797-.048 1.344-.048.172 0 .344-.015.5-.015l.031 3.046c0 .985.078 1.938.39 1.922.376-.015.673-1.015.641-2.546zm0 0"/></symbol><symbol overflow="visible" id="m"><path d="M4.328-2.39c0-.47-.39-.86-.844-.86-.453 0-.828.39-.828.86 0 .468.375.859.828.859.454 0 .844-.39.844-.86zm0 0"/></symbol><symbol overflow="visible" id="n"><path d="M5.64-3.047c.157-.781.25-1.86.282-2.61h-4.89v.423h4.374c-.031.64-.156 1.578-.265 2.187H.25v.422h2.875v1.438H1.047v.421h4.25v2.032h.516v-2.454H3.624v-1.437h3.078v-.422zm0 0"/></symbol><symbol overflow="visible" id="o"><path d="M3.828-1.25c-.297.047-1.094.14-1.484.14l-.953.032v-4.438h-.5v4.907c.03 0 .703 0 1.375-.032.546-.015 1.312-.109 1.562-.14zm2.328 2.469v-7.094h-.5v2.703H4.625V-5.75h-.5V.875h.5v-3.578h1.031v3.922zm0 0"/></symbol><symbol overflow="visible" id="q"><path d="M.89-5.36v4.735c.032 0 .704.016 1.376-.016a17.88 17.88 0 0 0 1.562-.156v-.453c-.297.047-1.094.14-1.484.14l-.969.032v-3.86h1.906v-.421zM6.157 1.22v-7.094h-.5v2.703H4.625V-5.75h-.5V.875h.5v-3.578h1.031v3.922zm0 0"/></symbol><symbol overflow="visible" id="r"><path d="M6.078 1.219v-7.094h-.5v7.094zM.953-5.421v.437h2.5a5.635 5.635 0 0 1-.797 2.375C2.141-1.813 1.422-1.156.484-.656a3 3 0 0 1 .485.36c.969-.626 1.703-1.376 2.219-2.298.468-.828.75-1.765.812-2.828zm0 0"/></symbol><symbol overflow="visible" id="s"><path d="M6.094 1.14v-2.906h-.5v.938H2.109v-.938h-.5v2.907zm-.5-.421H2.109V-.406h3.485zM2.359-2.36c.891 0 1.61-.594 1.75-1.438h1.485v1.656h.5v-3.734h-.5v1.64H4.125C4.047-5.14 3.281-5.78 2.359-5.78c-1.015 0-1.796.718-1.796 1.703 0 .984.812 1.719 1.796 1.719zM1.063-4.08c0-.718.53-1.265 1.296-1.265s1.282.547 1.282 1.266c0 .703-.516 1.266-1.282 1.266-.765 0-1.296-.563-1.296-1.266zm0 0"/></symbol><symbol overflow="visible" id="t"><path d="M1.89.016L.782-3.704H.25L1.625.547h.516l1.39-4.25h-.5zm0 0"/></symbol><symbol overflow="visible" id="u"><path d="M.39-1.469c0 1.36.641 2.14 1.579 2.14 1.047 0 1.5-.718 1.562-1.421h-.469C3-.281 2.704.266 2.016.266 1.344.266.875-.328.875-1.47c0-1.078.36-1.968 1.188-1.968.671 0 .921.437.984.937h.484c-.047-.813-.562-1.36-1.469-1.36C.97-3.86.391-2.843.391-1.468zm0 0"/></symbol><symbol overflow="visible" id="v"><path d="M6.703-1.484v-.422H.25v.422h3v2.703h.516v-2.703zm-2.969-3.86v-.343h-.53v.343c0 .594-.329 1.094-.845 1.469-.484.344-1.125.594-1.796.75.14.11.312.313.39.406a5.21 5.21 0 0 0 1.485-.64A2.952 2.952 0 0 0 3.484-4.5c.204.484.594.86 1.032 1.14A5.024 5.024 0 0 0 6-2.718c.11-.14.219-.297.36-.422-.61-.14-1.298-.39-1.798-.78-.5-.36-.828-.845-.828-1.423zm0 0"/></symbol><symbol overflow="visible" id="w"><path d="M6.094-1.625v-4.25h-.5v1.313H3.937v.421h1.657v2.516zm-.016 2.89V-1.25H1.5v.438h4.094v2.078zm-3.36-6.124v-.829h-.515v.813c0 .64-.187 1.156-.5 1.578-.36.485-.875.844-1.484 1.11.125.093.328.265.437.359a4.53 4.53 0 0 0 1.172-.828c.266-.297.5-.64.625-1.031.203.39.469.718.797.984.328.265.703.484 1.047.64a2.09 2.09 0 0 1 .36-.39c-.548-.203-1.063-.516-1.438-.953a2.24 2.24 0 0 1-.5-1.453zm0 0"/></symbol><symbol overflow="visible" id="x"><path d="M6.078 1.14v-2.546H1.625V1.14zm-.5-.437H2.125V-.984h3.453zm.016-6.578v4.11h.5v-4.11zm-2.875.86v-.673h-.516v.657c0 .625-.187 1.14-.5 1.562-.36.485-.875.844-1.484 1.125.125.094.328.266.437.36.39-.204.766-.438 1.078-.75.329-.297.579-.672.72-1.11.218.422.53.781.89 1.047.312.235.64.422.953.578.094-.125.219-.281.36-.406C4.14-2.797 3.64-3.094 3.28-3.5c-.36-.39-.562-.906-.562-1.516zm0 0"/></symbol><symbol overflow="visible" id="y"><path d="M2.64-4.266v-1.28h-.515v1.124c0 .828-.188 1.578-.547 2.234A4.476 4.476 0 0 1 .031-.577a3 3 0 0 1 .485.36c.39-.298.796-.704 1.14-1.173.344-.468.61-.968.719-1.437.203.547.484 1.031.828 1.453.328.36.688.688 1.078.953.094-.11.282-.281.407-.39-.704-.422-1.22-.907-1.563-1.5-.313-.547-.484-1.188-.484-1.954zm2.657-1.609v7.094h.516v-3.844h1.093v-.453H5.813v-2.797zm0 0"/></symbol><symbol overflow="visible" id="z"><path d="M6.078 1.266V-1.36H1.5v.421h4.094v2.204zm-.484-4.297v1.281h.5v-4.125h-.5v.828H3.828a1.799 1.799 0 0 0-1.469-.719C1.313-5.766.563-4.969.563-4c0 .984.75 1.781 1.796 1.781.672 0 1.22-.312 1.516-.812zm0-1.578v1.156H4.078c.047-.172.078-.36.078-.547a2 2 0 0 0-.11-.61zM1.078-4c0-.734.469-1.313 1.281-1.313.829 0 1.282.579 1.282 1.313 0 .75-.454 1.344-1.282 1.344-.812 0-1.28-.594-1.28-1.344zm0 0"/></symbol><symbol overflow="visible" id="A"><path d="M.969.125c0 .719.922 1.234 2.5 1.234 1.61 0 2.5-.515 2.5-1.234 0-.703-.89-1.203-2.5-1.203-1.578 0-2.5.5-2.5 1.203zm4.453.016c0 .53-.813.812-1.953.812C2.313.953 1.53.656 1.53.125c0-.578.782-.813 1.938-.813 1.14 0 1.953.266 1.953.829zm-.688-5.625v-.422h-2.53v.422zM1.047-4.406h2.125c-.094.343-.39.625-.813.828-.468.25-1.125.406-1.734.515.125.126.266.297.344.391.547-.11 1.047-.234 1.484-.437.422-.204.781-.485 1.031-.86.282.422.672.703 1.125.89.454.204.938.313 1.36.407.125-.125.218-.25.36-.375-.579-.094-1.204-.25-1.688-.5-.422-.219-.766-.5-.86-.86h2.125v-.421h-4.86zM6.703-1.61v-.422H3.734v-1.016H3.22v1.016H.25v.422zm0 0"/></symbol><symbol overflow="visible" id="B"><path d="M6.86-3.766v-.437H5.843v-1.672h-.5v3.734h.5v-1.625zm-2.891.329c.14-.626.281-1.235.328-2.141h-3.5v.422h3a10.127 10.127 0 0 1-.313 1.718zm1.156.374c-.813.126-2.281.22-2.86.22v-1.5h-.484v1.515H.313v.422h.765c2 0 3.328-.125 4.047-.25zm.906 4.188V.703H1.953v-.812H5.86v-1.657H1.453v.438h3.89v.797h-3.89v1.656zm0 0"/></symbol><symbol overflow="visible" id="C"><path d="M6.047 1.14v-2.515H1.594v2.516zM5.563.704h-3.47V-.953h3.47zm0-6.578v4.094h.484v-4.094zm-.344 2.938c-.719.124-1.719.25-2.594.25l-1.344.015v-1.062h2.657v-.407H1.28v-1.03h2.735v-.423H.812v3.344c.079 0 1.282.016 2.11-.031.703-.031 1.86-.156 2.297-.25zm0 0"/></symbol><symbol overflow="visible" id="D"><path d="M6.953-3.797v-.437H5.922v-1.641h-.484v4.328h.484v-2.25zM1.453-.03c0 .765.781 1.375 2.344 1.375 1.515 0 2.297-.625 2.297-1.375s-.782-1.375-2.297-1.375c-1.563 0-2.344.656-2.344 1.375zm.516.015c0-.578.718-.984 1.828-.984 1.062 0 1.781.406 1.781.984 0 .516-.719.97-1.781.97-1.11 0-1.828-.423-1.828-.97zM.797-5.109H2.28v.171c0 .657-.203 1.188-.531 1.61-.344.469-.86.812-1.453 1.078.125.094.328.234.437.328a4.39 4.39 0 0 0 1.125-.781c.297-.297.532-.656.672-1.078.188.375.453.687.735.937.359.297.75.516 1.109.703.094-.14.234-.265.36-.375-.516-.187-1.016-.484-1.391-.906-.344-.39-.547-.89-.547-1.5v-.187H4.25v-.422H.797zm0 0"/></symbol><symbol overflow="visible" id="E"><path d="M6.703-2.422v-.422H.25v.422zM5.97 1.125v-.39H1.656V-.11h4.157v-1.594H1.14v.406h4.156v.781H1.14v1.641zm-.657-5.031H1.626v-.75h3.688zM1.141-3.5h4.671v-2.297h-.5v.734H1.626v-.734h-.484zm0 0"/></symbol><symbol overflow="visible" id="F"><path d="M6.703-1.594v-.422h-3v-.796h2.219v-.407H1.64v-.86H5.75v-1.624H1.14v.406h4.094v.828H1.141v1.657h2.062v.796H.25v.422zm-.89 2.86V-.922H1.046v.406h4.25v1.782zm0 0"/></symbol><symbol overflow="visible" id="G"><path d="M1.031-3.797c0 1 .89 1.813 2.188 1.906v1.704H.234v.421H6.72v-.421h-3v-1.704c1.312-.078 2.203-.89 2.203-1.906 0-1.062-1-1.922-2.438-1.922-1.437 0-2.453.86-2.453 1.922zm.532 0c0-.937.796-1.515 1.921-1.515 1.094 0 1.907.562 1.907 1.515 0 .875-.829 1.5-1.907 1.5-1.109 0-1.921-.625-1.921-1.5zm0 0"/></symbol><symbol overflow="visible" id="H"><path d="M5.203-1.406c-.375.078-1.656.297-2.797.297l-.984.015v-3.875h2.766v-.437H.905v4.765h1.578c.797 0 2.047-.187 2.72-.312zm.313-4.469v7.094h.5v-7.094zm0 0"/></symbol><symbol overflow="visible" id="I"><path d="M4.906.875V-5.75h-.484v2.156H3.14v.453h1.28V.875zm1.375.344v-7.094h-.484v7.094zm-3.89-5.563v-1.172h-.5v.985c0 .797-.11 1.531-.36 2.156-.297.734-.75 1.344-1.468 1.813.156.093.374.25.484.328.344-.266.687-.641.984-1.063.282-.422.5-.906.578-1.344.125.454.329.907.61 1.282.25.343.547.625.844.828.109-.094.265-.266.39-.375a2.79 2.79 0 0 1-1.156-1.281c-.281-.594-.406-1.329-.406-2.157zm0 0"/></symbol><symbol overflow="visible" id="J"><path d="M.656-3c0 .984.235 1.656.547 2.078.328.422.734.61 1.125.61.39 0 .797-.188 1.11-.61.328-.422.546-1.094.546-2.078 0-.984-.218-1.656-.546-2.078-.329-.422-.735-.594-1.11-.594-.36 0-.781.156-1.11.578C.907-4.672.657-4 .657-3zm.485 0c0-1.172.421-2.25 1.187-2.25S3.5-4.172 3.5-3c0 1.188-.406 2.25-1.172 2.25-.765 0-1.187-1.047-1.187-2.25zm4.421-2.875v7.094h.5v-7.094zm0 0"/></symbol><symbol overflow="visible" id="K"><path d="M6.156 1.219v-7.094h-.5v7.094zM5.438-1c-.516.094-1.516.172-2.125.172h-.235v-1.453c.906-.14 1.547-.86 1.547-1.672 0-.86-.766-1.735-1.813-1.735-1.046 0-1.828.782-1.828 1.704 0 .859.672 1.593 1.61 1.687v1.5H.53v.422H2.72c1 0 2.234-.11 2.719-.188zM1.483-3.969c0-.703.485-1.281 1.329-1.281.843 0 1.328.578 1.328 1.281 0 .688-.485 1.266-1.313 1.266-.844 0-1.344-.578-1.344-1.266zm0 0"/></symbol><symbol overflow="visible" id="O"><path d="M2.969-5.406h-.453v4.031c0 1.203-.141 1.703-1 1.703C.922.328.578-.125.578-.859v-.282H.156v.282C.156.203.656.719 1.484.719 2.547.719 2.97.156 2.97-1.156zm0 0"/></symbol><symbol overflow="visible" id="P"><path d="M3.016-.031l-1.672-5.36H.578V.547h.469v-5.422L2.78.547h.469l1.734-5.453V.547h.47v-5.938h-.75zm0 0"/></symbol><symbol overflow="visible" id="Q"><path d="M.578-5.39V.546h.485v-5.938zm0 0"/></symbol><symbol overflow="visible" id="R"><path d="M.328-2.484c0 2.062.875 3.218 2.297 3.218 1.453 0 2.11-1.234 2.203-2.156h-.453c-.078.766-.5 1.719-1.672 1.719C1.547.297.828-.641.828-2.343c0-1.782.781-2.813 1.89-2.813 1.126 0 1.516.812 1.595 1.312h.453c-.032-.625-.657-1.734-2.047-1.734-1.516 0-2.39 1.406-2.39 3.094zm0 0"/></symbol><symbol overflow="visible" id="S"><path d="M2.11-3.469c.812 0 1.218.781 1.218 1.906C3.328-.421 2.922.345 2.11.345 1.281.344.891-.422.891-1.562c0-1.125.39-1.907 1.218-1.907zm0-.39C.983-3.86.405-2.953.405-1.563.406-.155.97.735 2.11.735c1.125 0 1.735-.89 1.735-2.296 0-1.391-.61-2.297-1.735-2.297zm0 0"/></symbol><symbol overflow="visible" id="T"><path d="M1.047-3.078v-.61H.578v4.25h.485v-2.218c0-1.032.53-1.719 1.203-1.719.656 0 .843.516.843 1.234V.563h.485v-2.766c0-.86-.25-1.578-1.203-1.578-.516 0-1 .172-1.344.703zm0 0"/></symbol><symbol overflow="visible" id="U"><path d="M.39-.594C.423.141.938.72 1.938.72c.97 0 1.5-.5 1.5-1.297 0-.735-.546-.985-1.187-1.172l-.516-.156c-.5-.157-.75-.328-.75-.828 0-.407.407-.72.875-.72.72 0 .938.438.97.75h.468c.015-.468-.406-1.14-1.406-1.14-.875 0-1.375.453-1.375 1.235 0 .593.437.906 1.046 1.078l.563.172c.547.171.86.328.86.812 0 .61-.47.89-1.032.89-.687 0-1.031-.39-1.047-.937zm0 0"/></symbol><symbol overflow="visible" id="V"><path d="M3.125-.016v.563h.422v-4.25h-.453v2.094C3.094-.5 2.719.297 1.922.297c-.688 0-.875-.438-.875-1.11v-2.89H.578V-.75c0 .844.36 1.422 1.25 1.422.719 0 1.063-.297 1.297-.688zm0 0"/></symbol><symbol overflow="visible" id="W"><path d="M.578-5.39V.546h.485v-5.938zm0 0"/></symbol><symbol overflow="visible" id="X"><path d="M.781-4.984v1.265H.25v.422h.531v3.094c0 .453.156.797.703.797h.235c.11-.016.156-.016.156-.016V.203h-.047c-.422 0-.578-.016-.578-.5v-3h.625v-.422H1.25v-1.265zm0 0"/></symbol><symbol overflow="visible" id="Y"><path d="M.578-3.672V.547h.485v-4.219zm0-1.719v.657h.485v-.657zm0 0"/></symbol><symbol overflow="visible" id="Z"><path d="M3.156-3.234c-.265-.422-.734-.61-1.187-.61C.906-3.844.39-2.813.39-1.563c0 1.5.734 2.157 1.593 2.157.532 0 .907-.219 1.172-.578 0 1.375-.125 2.015-1.187 2.015-.61 0-.907-.328-.969-.75H.5c.031.735.688 1.14 1.453 1.14 1.297 0 1.672-.765 1.672-2.155V-3.72h-.469zm-1.125-.22c.75 0 1.125.735 1.125 1.829 0 1.078-.375 1.797-1.125 1.797C1.297.172.875-.547.875-1.625c0-1.094.422-1.828 1.156-1.828zm0 0"/></symbol><symbol overflow="visible" id="aa"><path d="M.719 1.984c.547-.125.765-.53.765-1.203V.047H.688v.765h.437c0 .485-.094.766-.516.938zm0 0"/></symbol><symbol overflow="visible" id="ab"><path d="M6.094-1.563v-4.312h-.5v1.078H4.25v.422h1.344v1.11H4.03v.421h1.563v1.281zM3.859 1.345c1.5 0 2.36-.594 2.36-1.407 0-.812-.86-1.421-2.36-1.421-1.468 0-2.359.609-2.359 1.421 0 .813.89 1.407 2.36 1.407zM2.016-.063c0-.64.828-1 1.843-1 1.047 0 1.86.36 1.86 1 0 .625-.828 1-1.86 1-1.015 0-1.843-.375-1.843-1zM.89-5.53v.422h2.593a2.914 2.914 0 0 1-.89 1.687c-.578.563-1.36.953-2.172 1.188.14.125.297.265.39.39.922-.297 1.72-.781 2.297-1.453.516-.578.844-1.328.938-2.234zm0 0"/></symbol><symbol overflow="visible" id="ac"><path d="M1.406-.047c0 .797.828 1.39 2.39 1.39 1.563 0 2.376-.577 2.376-1.374 0-.797-.813-1.422-2.375-1.422-1.563 0-2.39.61-2.39 1.406zm.5-.015c0-.625.766-.97 1.89-.97 1.095 0 1.876.36 1.876 1 0 .61-.781.97-1.875.97-1.125 0-1.89-.375-1.89-1zm-.828-3.954c0-.75.469-1.328 1.281-1.328.829 0 1.282.578 1.282 1.328 0 .735-.454 1.329-1.282 1.329-.812 0-1.28-.594-1.28-1.329zm2.984.563a1.77 1.77 0 0 0 .094-.563c0-.203-.047-.421-.11-.593h1.548v1.156zm2.032 1.89v-4.312h-.5v.828h-1.75C3.516-5.5 3-5.78 2.359-5.78c-1.046 0-1.796.797-1.796 1.765 0 .97.75 1.782 1.796 1.782.657 0 1.204-.313 1.516-.797h1.719v1.469zm0 0"/></symbol><symbol overflow="visible" id="ad"><path d="M6.172-.61v-5.265h-.5v1.656H4.094v.438h1.578V-.61zm.219 1.672V.625H2.203V-1.25h-.5v2.313zM.797-5.109H2.28v.375a2.82 2.82 0 0 1-.531 1.687c-.36.469-.875.844-1.453 1.11.125.093.328.265.437.359.407-.234.782-.5 1.094-.828.313-.328.563-.719.703-1.156.188.39.438.703.735.984.359.328.75.594 1.109.765.094-.14.234-.28.36-.406a3.162 3.162 0 0 1-1.329-.906 2.444 2.444 0 0 1-.61-1.61v-.374H4.25v-.422H.797zm0 0"/></symbol><symbol overflow="visible" id="ae"><path d="M6.766-2.828v-.422H5.78v-1.188h.985v-.421H5.78v-1.016h-.515v4.406h.515v-1.36zm-1.782.219c-.578.125-1.906.265-2.562.28l-1.297.017v-1.22h2.672v-2.062H.657v.422h2.655v1.234H.656v2.063c.063 0 1.078 0 1.86-.016.75-.03 1.984-.187 2.468-.28zm.797 3.875v-2.344H1.25v.422h4.016v1.922zm0 0"/></symbol><symbol overflow="visible" id="af"><path d="M6.094-.61v-5.265h-.5v2.156H4.078v.438h1.516V-.61zm.218 1.672V.625H2.125V-1.25h-.5v2.313zM.75-1.5c.922-.375 1.734-.922 2.328-1.656.531-.64.875-1.438.953-2.375H.921v.422h2.563c-.062.39-.203.796-.375 1.109-.78.047-2.28.063-2.359.063v.39c.063 0 1.406 0 2.11-.062-.547.734-1.516 1.359-2.532 1.718.14.11.344.297.422.391zm0 0"/></symbol><symbol overflow="visible" id="ag"><path d="M6.094-2.156v-3.719h-.5v1.234H3.937v.422h1.657v2.063zm.172 3.281V.703H2.109v-.828h3.985v-1.672H1.609v.422h3.97v.813h-3.97v1.687zM2.719-5.063v-.656h-.516v.625c0 .657-.234 1.172-.578 1.563-.375.39-.86.687-1.406.89.125.094.328.266.437.36A4.91 4.91 0 0 0 1.75-3c.297-.281.547-.594.703-1.016.219.407.516.704.844.954.328.234.672.39 1 .546.094-.125.219-.28.36-.406a3.14 3.14 0 0 1-1.376-.781 1.871 1.871 0 0 1-.562-1.36zm0 0"/></symbol><symbol overflow="visible" id="ah"><path d="M6.047-.594v-5.281h-.5v1.797h-1.36v.437h1.375v3.047zm.187 1.656V.625H2.078v-1.656h-.5v2.093zm-1.25-3.5c-.718.126-1.546.235-2.437.25l-1.266.016v-1.312h2.594v-.407H1.281v-1.28h2.657v-.423H.812v3.844c.063 0 1.22.016 2.047-.031a25.964 25.964 0 0 0 2.125-.25zm0 0"/></symbol><symbol overflow="visible" id="ai"><path d="M6.719.172V-.25H.234v.422zM1.14-1.61h4.718v-.422H1.641v-1.313h4.156v-.422H1.64v-1.328h4.171v-.422H1.141zm0 0"/></symbol><symbol overflow="visible" id="aj"><path d="M6.938-3.328v-.438H5.921v-2.109h-.484v5.266h.484v-2.72zm-.766 4.39V.625H2.109V-.969h-.5v2.031zm-2.61-6.515v-.422H1.47v.422zm.985 1.078v-.422H.53v.422zm-2.016.469C1.5-3.906.844-3.36.844-2.703c0 .64.656 1.187 1.687 1.187 1.063 0 1.703-.546 1.703-1.187 0-.656-.625-1.203-1.703-1.203zM1.36-2.72c0-.437.422-.765 1.172-.765.766 0 1.172.328 1.172.765 0 .453-.406.797-1.172.797-.75 0-1.172-.344-1.172-.797zm0 0"/></symbol><symbol overflow="visible" id="ak"><path d="M.656-4.984h1.547v.562c0 .828-.187 1.578-.547 2.234A4.476 4.476 0 0 1 .11-.577a3 3 0 0 1 .485.36c.39-.298.812-.704 1.14-1.173.344-.468.61-.968.72-1.437.202.547.468 1.031.827 1.453.328.36.688.688 1.078.953.094-.11.282-.281.407-.39-.704-.422-1.22-.907-1.563-1.5C2.891-2.86 2.72-3.5 2.72-4.266v-.718h1.61v-.438H.655zm4.61-.891v7.094h.515v-3.844H6.86v-.453H5.781v-2.797zm0 0"/></symbol><symbol overflow="visible" id="al"><path d="M6.703-1.781v-.438H.25v.438h3.063v1.625h.5v-1.625zm-.64 2.843V.625H1.625V-1h-.484v2.063zm-.75-4.671H1.624v-1.625h3.688zm-4.172.421h4.671v-2.468H1.141zm0 0"/></symbol><symbol overflow="visible" id="am"><path d="M2.766-3.328c1.046 0 1.687-.594 1.687-1.281 0-.672-.625-1.282-1.687-1.282-1.047 0-1.688.61-1.688 1.282 0 .687.64 1.28 1.688 1.28zm.015-.406c-.828 0-1.234-.47-1.234-.875 0-.422.39-.891 1.219-.891.828 0 1.218.469 1.218.89 0 .407-.39.876-1.203.876zM6.187-.406v-5.469h-.5v4.172h-1.75v.406h1.75v.89zm.157 1.453V.625H2.187v-1.36h-.515v1.782zm-.89-4c-.407.078-1.798.203-2.798.203l-2.172.016v.421h1.704v1.22h.484v-1.235c.875 0 2.203-.11 2.781-.188zm0 0"/></symbol><symbol overflow="visible" id="an"><path d="M6.031 1.125V.703H2v-.828h3.86v-1.672H1.483v.422h3.86v.813h-3.86v1.687zM.766-2.109c.937-.329 1.812-.829 2.406-1.532.437-.5.734-1.125.828-1.89H.89v.422h2.532a3.09 3.09 0 0 1-.344.843c-.812.047-2.297.047-2.375.047v.39c.078 0 1.406 0 2.11-.077C2.25-3.25 1.343-2.796.39-2.5c.14.11.28.25.375.39zm6.109-1.735v-.437H5.844v-1.594h-.5v3.672h.5v-1.64zm0 0"/></symbol><symbol overflow="visible" id="ao"><path d="M6.047 1.14v-2.515H1.594v2.516zM5.563.704h-3.47V-.953h3.47zm.484-2.484v-4.094h-.5v1.563H4.203v.437h1.36v2.094zM4.984-2.875c-.578.125-1.906.266-2.562.266l-1.14.015v-1.078h2.546v-1.922H.813v.422h2.53v1.094H.814v1.937c.062 0 .921 0 1.703-.015.75-.031 1.984-.188 2.468-.281zm0 0"/></symbol><symbol overflow="visible" id="ap"><path d="M5.188-1.422c-.47.11-1.563.266-2.25.297l-1.516.016v-4.422h-.5v4.89c.047 0 1.062.016 1.984-.015.781-.031 1.844-.203 2.281-.297zm.328-4.453v7.094h.5v-7.094zm0 0"/></symbol><symbol overflow="visible" id="aq"><path d="M6.719.172v-.438H.234v.438zM3.734-5v-.563H3.22V-5c0 .625-.344 1.25-.86 1.766A4.567 4.567 0 0 1 .516-2.141c.187.141.328.282.437.422a5.694 5.694 0 0 0 1.594-1c.422-.39.75-.844.937-1.312.157.5.563 1.015 1.063 1.422.469.406 1.016.718 1.469.875.109-.141.25-.282.39-.407A4.685 4.685 0 0 1 4.61-3.219C4.08-3.734 3.734-4.375 3.734-5zm0 0"/></symbol><symbol overflow="visible" id="ar"><path d="M3.172-6.14h-.5L.25 1.405h.516zm0 0"/></symbol><symbol overflow="visible" id="as"><path d="M6.39 1.063V.625H2.095v-1.64h-.5v2.077zm-.187-1.61v-5.328h-.5v5.328zM4.86-.719V-5.75h-.5v1.656h-.984v.438h.984V-.72zm-.984-1.64c-.313.046-.969.14-1.453.14l-1.172.016v-1.281h1.906v-.407H1.25v-1.25h2.094v-.421H.78v3.796c.047 0 .906.016 1.703-.03a15.108 15.108 0 0 0 1.391-.141zm0 0"/></symbol><symbol overflow="visible" id="at"><path d="M6.719.188V-.25H.234v.438zM4.75-5.22v-.437H2.187v.437zM1.031-3.906h2.157c-.032.5-.313.937-.75 1.281-.5.39-1.188.672-1.829.828.125.11.282.297.36.406a4.943 4.943 0 0 0 1.578-.718c.39-.297.734-.641.937-1.079.188.438.547.813.97 1.11.484.344 1.046.562 1.515.687.11-.156.234-.28.375-.406-.563-.125-1.235-.39-1.735-.766-.484-.343-.812-.796-.843-1.343h2.156v-.438h-4.89zm0 0"/></symbol><symbol overflow="visible" id="au"><path d="M1.703-4.984h1.469L3.14-1.125c-.407.016-.797.016-1.391.016zM.36-.672l2.344-.015c.625 0 1.735-.094 2.219-.157v-.422c-.406.063-1.063.11-1.281.125l.03-3.843h.657v-.422H.547v.422h.672L1.25-1.11H.36zM6.844-3.14v-.453H5.75v-2.281h-.531v7.094h.531v-4.36zm0 0"/></symbol><symbol overflow="visible" id="av"><path d="M6.016 1.219v-7.094h-.5v1.922H3.484v.437h2.032V1.22zm-1.11-2.64c-.468.109-1.515.265-2.203.296l-1.281.016v-4.422h-.5v4.89c.031 0 .828.016 1.765-.015.766-.031 1.782-.203 2.22-.297zm0 0"/></symbol><symbol overflow="visible" id="ay"><path d="M5.781 1.266v-2.594H1.25v.437h4.016v2.157zm.985-4.313v-.422H5.78v-1.094h.985v-.421H5.78v-.891h-.515v4.172h.515v-1.344zm-6.36-.937c0 .968.75 1.78 1.797 1.78s1.781-.812 1.781-1.78c0-.97-.734-1.766-1.78-1.766-1.048 0-1.798.797-1.798 1.766zm.516 0c0-.75.469-1.329 1.281-1.329.828 0 1.281.579 1.281 1.329 0 .734-.453 1.328-1.28 1.328-.813 0-1.282-.594-1.282-1.328zm0 0"/></symbol><symbol overflow="visible" id="az"><path d="M3.563-5.453v-.422H1.469v.422zm.984 1.047v-.422H.53v.422zm-2.016.468C1.5-3.938.844-3.421.844-2.766c0 .641.656 1.157 1.687 1.157 1.063 0 1.703-.516 1.703-1.157 0-.656-.625-1.171-1.703-1.171zM1.36-2.78c0-.438.422-.735 1.172-.735.766 0 1.172.297 1.172.735 0 .453-.406.765-1.172.765-.75 0-1.172-.312-1.172-.765zM6.938-3.5v-.438H5.921v-1.937h-.5v4.547h.5V-3.5zM5.921 1.266V-.97h-4.5v.438h4.016v1.797zm0 0"/></symbol><symbol overflow="visible" id="aA"><path d="M3.844-2.172v-3.437h-.469v1.296H1.203v-1.296H.734v3.437zm-.469-.422H1.203V-3.89h2.172zm2.469 3.86V-1.25H1.328v.438H5.36v2.078zm1-5.094v-.438h-1V-5.89h-.5v4.266h.5v-2.203zm0 0"/></symbol><symbol overflow="visible" id="aB"><path d="M5.516-5.875v7.094h.5v-7.094zm-1.5 5.234v-4.765H.859v4.765zm-.5-.437H1.359v-3.89h2.157zm0 0"/></symbol><symbol overflow="visible" id="aC"><path d="M6.703-2.047v-.422H.25v.422h2.969v.969H1.14V1.14h4.671v-2.22H3.72v-.968zM5.313.72H1.64V-.656h3.671zM.89-3.187h5.171v-.407h-.968l.015-1.64h.813v-.422h-4.89v.422h.812l.015 1.64H.891zm3.75-2.047l-.016 1.64H2.344l-.016-1.64zm0 0"/></symbol><symbol overflow="visible" id="aD"><path d="M1.281-.047c0 .813.782 1.39 2.344 1.39 1.531 0 2.313-.577 2.313-1.39 0-.797-.782-1.39-2.313-1.39-1.563 0-2.344.593-2.344 1.39zm.547.016c0-.625.703-1 1.813-1 1.062 0 1.78.375 1.78 1 0 .61-.718.984-1.78.984-1.11 0-1.813-.375-1.813-.984zM6.781-3.72v-.437h-1v-1.719h-.515v4.328h.515v-2.172zM2.547-5.016v-.671H2.03v.656c0 .656-.187 1.203-.531 1.625-.36.453-.86.797-1.453 1.047.14.093.344.265.437.359a4.338 4.338 0 0 0 1.125-.766c.313-.296.547-.671.688-1.093.219.437.547.78.89 1.062.313.235.641.422.938.563.11-.125.234-.266.36-.391a3.31 3.31 0 0 1-1.344-.86 2.246 2.246 0 0 1-.594-1.53zm0 0"/></symbol><symbol overflow="visible" id="aE"><path d="M5.813-2.938v-2.656H1.14v2.657zm-.5-.421H1.64v-1.813h3.671zm1.39 1.968v-.437H.25v.437h3v2.61h.516v-2.61zm0 0"/></symbol><symbol overflow="visible" id="aF"><path d="M1.063-2.531v-2.453h1.906c.781 0 1.14.5 1.14 1.203 0 .844-.5 1.25-1.25 1.25zm-.47-2.86V.547h.47v-2.672h1.765c.828 0 1.172.328 1.188 1.078L4.062 0c0 .266.079.547.11.547h.61v-.11c-.282-.156-.266-.484-.282-1l-.031-.687c-.032-.61-.282-.938-.735-1.11.563-.203.844-.78.844-1.515 0-1.047-.656-1.516-1.64-1.516zm0 0"/></symbol><symbol overflow="visible" id="aG"><path d="M1.5-3.64a1.685 1.685 0 0 1-.14-.61c0-.375.265-.813.765-.813.469 0 .719.375.719.829a1 1 0 0 1-.25.703c-.156.203-.39.422-.625.594-.188-.25-.407-.563-.469-.704zM.766-.829c0-.594.343-1.047 1.109-1.594l1.281 1.86c-.281.484-.828.89-1.297.89C1.281.328.75-.078.766-.828zm-.422 0C.344.187 1.016.687 1.813.687a1.81 1.81 0 0 0 1.562-.906l.531.766h.516l-.813-1.14c.188-.376.36-.954.454-1.454l-.391-.031c-.063.36-.188.75-.328 1.11L2.188-2.642c.296-.218.562-.437.734-.671.234-.297.312-.579.328-.985.016-.5-.36-1.094-1.11-1.094-.718 0-1.171.5-1.171 1.172 0 .203.047.453.11.61.062.156.343.578.562.89-.782.5-1.297 1.156-1.297 1.89zm0 0"/></symbol><symbol overflow="visible" id="aH"><path d="M3.36-2.64c.515-.11.859-.672.859-1.376 0-.765-.5-1.375-1.438-1.375H.594V.547h2.14c1.11 0 1.735-.64 1.735-1.672 0-.813-.5-1.375-1.11-1.516zM1.062.124v-2.531h1.562c.719 0 1.39.375 1.39 1.25 0 .86-.562 1.281-1.265 1.281zm0-2.922v-2.172h1.406c.828 0 1.297.282 1.297 1.063 0 .719-.532 1.11-1.266 1.11zm0 0"/></symbol><symbol overflow="visible" id="aI"><path d="M1.063.125v-5.11H2.5c1.39 0 1.797 1.25 1.797 2.485 0 1.594-.5 2.625-1.797 2.625zm-.47-5.516V.547h2.048c1.515 0 2.14-1.36 2.14-3.063 0-1.64-.703-2.875-2.14-2.875zm0 0"/></symbol><symbol overflow="visible" id="aJ"><path d="M.594-5.39V.546h3.234V.125H1.063v-5.516zm0 0"/></symbol><symbol overflow="visible" id="aK"><path d="M.406-1.516c0 1.47.75 2.25 1.672 2.25.969 0 1.563-.656 1.656-1.312h-.468c-.11.515-.516.906-1.141.906-.75 0-1.172-.61-1.203-1.766h2.906c.016-.109-.015-.359-.015-.578-.047-1.125-.782-1.843-1.626-1.843-1 0-1.78.828-1.78 2.343zm.547-.375c0-.89.5-1.562 1.188-1.562.796 0 1.187.719 1.187 1.562zm0 0"/></symbol><symbol overflow="visible" id="aO"><path d="M.969-.047c0 .797.922 1.39 2.5 1.39 1.61 0 2.5-.593 2.5-1.39 0-.797-.907-1.39-2.5-1.39-1.578 0-2.5.593-2.5 1.39zm2.5.985C2.313.938 1.5.594 1.5-.063c0-.625.813-.97 1.969-.97 1.156 0 1.984.345 1.984.97 0 .656-.828 1-1.984 1zm2.14-4.063c.141-.64.282-1.656.313-2.531h-4.89v.422h4.374c0 .64-.14 1.546-.281 2.109zm1.094.938v-.422H3.297v-1.625h-.485v1.625H.25v.421zm0 0"/></symbol><symbol overflow="visible" id="aP"><path d="M5.61-2.89a4.168 4.168 0 0 1-1.141-.438c-.39-.219-.782-.563-.782-.875v-.188h1.579v-.343H1.703v.343h1.578v.188c0 .312-.39.656-.781.875-.438.25-.906.39-1.14.437l.25.282c.202-.032.671-.188 1.077-.407.36-.203.735-.515.797-.656.063.14.422.453.797.656.407.22.875.375 1.078.407zm1.156.5c0-1.5-.61-2.422-1-2.922H5.53c.578.796.875 1.859.875 2.921 0 1.063-.312 2.11-.875 2.907h.235c.39-.485 1-1.47 1-2.907zM1.453.515C.875-.281.578-1.328.578-2.391c0-1.062.297-2.125.875-2.921H1.22A4.536 4.536 0 0 0 .203-2.392C.203-.953.828.031 1.22.516zm4.438-2.36v-.343H1.062v.343h2.22V0h.405v-1.844zm0 0"/></symbol><symbol overflow="visible" id="aQ"><path d="M5.578-5.875v7.094h.5v-7.094zm-2.86 1.61v-1.282h-.515v1.125c0 .828-.187 1.578-.547 2.234A4.476 4.476 0 0 1 .11-.577a3 3 0 0 1 .485.36c.39-.298.812-.704 1.14-1.173.344-.468.61-.968.72-1.437.202.547.468 1.031.827 1.453.328.36.688.688 1.078.953.094-.11.282-.281.407-.39-.704-.422-1.22-.907-1.563-1.5C2.891-2.86 2.72-3.5 2.72-4.266zm0 0"/></symbol><symbol overflow="visible" id="aR"><path d="M5.75-5.875v7.094h.5v-7.094zm-4.938.89H2.36v.563c0 .828-.171 1.578-.53 2.234A4.61 4.61 0 0 1 .28-.577c.14.094.375.25.469.36.39-.298.813-.704 1.156-1.173.328-.468.594-.968.719-1.437.188.547.469 1.031.828 1.453.313.36.672.688 1.063.953.109-.11.28-.281.406-.39-.688-.422-1.219-.907-1.547-1.5-.328-.547-.5-1.188-.5-1.954v-.718h1.61v-.438H.811zm0 0"/></symbol><symbol overflow="visible" id="aS"><path d="M3.875-.578V-5.5h-.484v1.906H1.17V-5.5h-.5v4.922zm-.484-.438H1.17v-2.14h2.22zM6.859-2.75v-.438H5.766v-2.687h-.532v7.094h.532V-2.75zm0 0"/></symbol><symbol overflow="visible" id="aT"><path d="M5.813-2.578v-3.125h-.5v1H1.64v-1h-.5v3.125zM5.313-3H1.64v-1.297h3.671zm1.39 1.766v-.422H.25v.422h3v2.453h.516v-2.453zm0 0"/></symbol><symbol overflow="visible" id="aU"><path d="M6.313 1.063V.625H2.125V-1.25h-.5v2.313zM2.358-2.531c-.812 0-1.28-.625-1.28-1.406 0-.797.468-1.407 1.28-1.407.829 0 1.282.61 1.282 1.407 0 .78-.454 1.406-1.282 1.406zm1.704-.813c.062-.187.093-.39.093-.594 0-.218-.047-.421-.11-.609h1.548v1.203zm2.03 2.75v-5.281h-.5v.89H3.86a1.774 1.774 0 0 0-1.5-.812c-1.062 0-1.796.844-1.796 1.86 0 1.015.734 1.859 1.796 1.859a1.78 1.78 0 0 0 1.516-.828h1.719v2.312zm0 0"/></symbol><symbol overflow="visible" id="aV"><path d="M5.578-2.406c.14-.828.266-2.188.313-3.188H1.016v.422h4.359c-.063.938-.14 1.797-.313 2.766H.234v.422h2.907v3.203h.515v-3.203H6.72v-.422zm0 0"/></symbol><symbol overflow="visible" id="aW"><path d="M3.734-5v-.563H3.22V-5c0 .61-.313 1.203-.813 1.703-.484.5-1.172.89-1.89 1.125.187.14.328.281.437.422a5.63 5.63 0 0 0 1.516-.922c.453-.39.828-.86 1.015-1.36.157.5.563.985 1.047 1.391.469.407 1.016.72 1.485.875.109-.14.25-.28.39-.406-.61-.172-1.265-.562-1.765-1.047-.547-.515-.907-1.156-.907-1.781zM3.72-2.172h-.5v1.985H.234v.421H6.72v-.421h-3zm0 0"/></symbol><symbol overflow="visible" id="aX"><path d="M.734-8.39h2.47v1.265c0 .543-.06 1.02-.173 1.422a3.82 3.82 0 0 1-.562 1.156c-.25.356-.582.711-.985 1.063-.398.355-.879.746-1.437 1.171l.812.782a26.94 26.94 0 0 0 1.672-1.39A6.196 6.196 0 0 0 3.72-4.329c.445.512.91 1.012 1.39 1.5.477.492.883.887 1.22 1.187l.812-.812c-.45-.383-.93-.832-1.438-1.344-.5-.52-.992-1.066-1.469-1.64.07-.239.13-.489.172-.75.04-.27.063-.555.063-.86V-8.39h2.437v-1H.734zm9 2.328v-4.157l-1.265.203V1.516h1.265v-6.532h1.875v-1.046zm0 0"/></symbol><symbol overflow="visible" id="aY"><path d="M6.86-.469v-2.687h4.593v-1.031H.422v1.03h5.14v2.688zM2.03-1.829v2.97c0 .332.063.566.188.703.133.144.394.218.781.218h6.938V1.048H3.516c-.086 0-.145-.02-.172-.047C3.32.969 3.313.91 3.313.828v-2.656zm1.422-6.968H8.36v2.25H3.703c-.105 0-.176-.016-.203-.047-.031-.039-.047-.101-.047-.187zM2.172-6.453c0 .355.078.598.234.719.153.125.39.187.703.187h6.547v-4.25H2.172zm0 0"/></symbol><symbol overflow="visible" id="ba"><path d="M8.656-4.078c-.68.105-1.34.207-1.984.297-.637.086-1.274.16-1.906.219-.649.074-1.305.144-1.97.203-.655.054-1.347.101-2.062.14l.094 1.047c.164-.008.375-.02.625-.031.246-.02.52-.047.813-.078.277-.02.562-.04.843-.063.278-.027.536-.062.766-.094v3.704h1.281v-3.86c.676-.07 1.336-.148 1.985-.234.652-.082 1.203-.16 1.64-.235zm1.89-6.14l-1.265.202V1.516h1.266zM4.47-4.579c.933 0 1.687-.234 2.25-.703.57-.477.86-1.098.86-1.86v-.203c0-.746-.294-1.36-.876-1.828-.574-.465-1.32-.703-2.234-.703-.98 0-1.746.242-2.297.719-.555.469-.828 1.074-.828 1.812v.203c0 .75.273 1.368.828 1.844.55.48 1.316.719 2.297.719zM6.344-7.25c0 .531-.176.945-.516 1.234-.336.293-.789.438-1.36.438-.624 0-1.1-.14-1.421-.422-.313-.29-.469-.707-.469-1.25 0-.465.16-.852.485-1.156.32-.309.789-.469 1.406-.469.57 0 1.023.16 1.36.469.339.304.515.691.515 1.156zm0 0"/></symbol><symbol overflow="visible" id="bb"><path d="M9.297-.375h1.25v-9.844l-1.25.172v7.297H6.469v.969h2.828zm-4.75-4.86c.883 0 1.598-.187 2.14-.562.54-.383.813-.96.813-1.734v-.203c0-.746-.285-1.313-.844-1.688-.562-.383-1.27-.578-2.11-.578-.898 0-1.616.195-2.155.578-.532.375-.797.942-.797 1.688v.203c0 .75.258 1.324.781 1.718.52.387 1.242.579 2.172.579zm1.75-2.406c0 .532-.164.91-.484 1.125-.313.22-.739.329-1.266.329-.563 0-.996-.11-1.297-.329-.305-.214-.453-.593-.453-1.125 0-.464.148-.82.453-1.062.309-.246.742-.375 1.297-.375.52 0 .941.129 1.266.375.32.242.484.598.484 1.062zM2.969-1.062V1.14c0 .332.062.566.187.703.133.144.395.218.781.218h6.954V1.048H4.453c-.086 0-.144-.02-.172-.047C4.258.969 4.25.91 4.25.828v-1.89zm5.703-3.97c-.586.095-1.211.18-1.875.25-.656.063-1.324.122-2 .173-.668.043-1.34.086-2.016.125-.668.03-1.308.058-1.922.078l.079 1.015c.414-.007.843-.03 1.28-.062.446-.027.884-.063 1.313-.094v1.89h1.297v-2c.29-.007.617-.03.984-.062.364-.027.727-.062 1.094-.094.352-.027.692-.062 1.016-.093.332-.04.613-.082.844-.125zm0 0"/></symbol></defs><g fill="#393536"><use xlink:href="#a" x="42.468" y="48.426"/><use xlink:href="#b" x="48.041" y="48.426"/><use xlink:href="#c" x="53.614" y="48.426"/></g><g fill="#231f20"><use xlink:href="#d" x="74.885" y="47.727"/><use xlink:href="#e" x="82.886" y="47.727"/><use xlink:href="#f" x="85.492" y="47.727"/><use xlink:href="#g" x="88.099" y="47.727"/><use xlink:href="#f" x="96.1" y="47.727"/><use xlink:href="#h" x="98.706" y="47.727"/></g><use xlink:href="#i" x="192.522" y="628.349" fill="#8a8e98"/><g fill="#33459a"><use xlink:href="#j" x="202.026" y="628.948"/><use xlink:href="#k" x="213.642" y="628.948"/><use xlink:href="#l" x="225.258" y="628.948"/></g><g fill="#231f20"><use xlink:href="#m" x="192.522" y="645.532"/><use xlink:href="#n" x="199.42" y="645.532"/><use xlink:href="#o" x="206.318" y="645.532"/><use xlink:href="#p" x="213.216" y="645.532"/><use xlink:href="#q" x="215.463" y="645.532"/><use xlink:href="#r" x="222.361" y="645.532"/><use xlink:href="#s" x="229.259" y="645.532"/><use xlink:href="#p" x="236.157" y="645.532"/><use xlink:href="#t" x="238.405" y="645.532"/><use xlink:href="#u" x="242.133" y="645.532"/><use xlink:href="#p" x="245.892" y="645.532"/><use xlink:href="#v" x="248.14" y="645.532"/><use xlink:href="#w" x="255.038" y="645.532"/><use xlink:href="#x" x="261.936" y="645.532"/><use xlink:href="#y" x="268.834" y="645.532"/><use xlink:href="#z" x="275.732" y="645.532"/><use xlink:href="#p" x="282.63" y="645.532"/><use xlink:href="#A" x="284.878" y="645.532"/><use xlink:href="#B" x="291.776" y="645.532"/><use xlink:href="#C" x="298.674" y="645.532"/><use xlink:href="#D" x="305.572" y="645.532"/></g><use xlink:href="#m" x="192.522" y="657.934" fill="#231f20"/><use xlink:href="#p" x="199.42" y="657.934" fill="#231f20"/><g fill="#231f20"><use xlink:href="#E" x="199.42" y="657.934"/><use xlink:href="#F" x="206.318" y="657.934"/><use xlink:href="#G" x="213.216" y="657.934"/><use xlink:href="#H" x="220.114" y="657.934"/><use xlink:href="#I" x="227.012" y="657.934"/><use xlink:href="#J" x="233.91" y="657.934"/><use xlink:href="#p" x="240.808" y="657.934"/><use xlink:href="#y" x="243.055" y="657.934"/><use xlink:href="#K" x="249.953" y="657.934"/><use xlink:href="#J" x="256.852" y="657.934"/><use xlink:href="#y" x="263.75" y="657.934"/></g><g clip-path="url(#L)"><path d="M-15.57 410.852h610.12" fill="none" stroke-width=".499395" stroke="#cabfbb" stroke-dasharray="2.003,2.003"/></g><use xlink:href="#i" x="364.093" y="625.557" fill="#8a8e98"/><g fill="#33459a"><use xlink:href="#j" x="373.597" y="626.157"/><use xlink:href="#M" x="385.213" y="626.157"/><use xlink:href="#N" x="396.829" y="626.157"/></g><g fill="#231f20"><use xlink:href="#m" x="364.093" y="642.741"/><use xlink:href="#O" x="370.991" y="642.741"/><use xlink:href="#P" x="374.447" y="642.741"/><use xlink:href="#Q" x="380.4" y="642.741"/><use xlink:href="#p" x="381.965" y="642.741"/><use xlink:href="#R" x="384.213" y="642.741"/><use xlink:href="#S" x="389.29" y="642.741"/><use xlink:href="#T" x="393.428" y="642.741"/><use xlink:href="#U" x="397.482" y="642.741"/><use xlink:href="#V" x="401.21" y="642.741"/><use xlink:href="#W" x="405.248" y="642.741"/><use xlink:href="#X" x="406.814" y="642.741"/><use xlink:href="#Y" x="408.899" y="642.741"/><use xlink:href="#T" x="410.464" y="642.741"/><use xlink:href="#Z" x="414.518" y="642.741"/><use xlink:href="#aa" x="418.649" y="642.741"/><use xlink:href="#p" x="420.897" y="642.741"/><use xlink:href="#ab" x="423.144" y="642.741"/><use xlink:href="#ac" x="430.042" y="642.741"/><use xlink:href="#ad" x="436.94" y="642.741"/><use xlink:href="#ae" x="443.838" y="642.741"/><use xlink:href="#p" x="450.736" y="642.741"/><use xlink:href="#af" x="452.984" y="642.741"/><use xlink:href="#ag" x="459.882" y="642.741"/><use xlink:href="#ah" x="466.78" y="642.741"/><use xlink:href="#ai" x="473.678" y="642.741"/></g><g fill="#231f20"><use xlink:href="#m" x="364.093" y="655.143"/><use xlink:href="#aj" x="370.991" y="655.143"/><use xlink:href="#n" x="377.889" y="655.143"/><use xlink:href="#ab" x="384.787" y="655.143"/><use xlink:href="#ac" x="391.685" y="655.143"/><use xlink:href="#ak" x="398.583" y="655.143"/><use xlink:href="#al" x="405.481" y="655.143"/><use xlink:href="#am" x="412.379" y="655.143"/><use xlink:href="#p" x="419.277" y="655.143"/><use xlink:href="#an" x="421.524" y="655.143"/><use xlink:href="#ao" x="428.422" y="655.143"/><use xlink:href="#ap" x="435.32" y="655.143"/><use xlink:href="#aq" x="442.218" y="655.143"/><use xlink:href="#ai" x="449.116" y="655.143"/></g><g fill="#231f20"><use xlink:href="#p" x="364.093" y="667.545"/><use xlink:href="#p" x="366.34" y="667.545"/><use xlink:href="#p" x="368.588" y="667.545"/><use xlink:href="#ar" x="370.836" y="667.545"/><use xlink:href="#ab" x="374.199" y="667.545"/><use xlink:href="#ac" x="381.097" y="667.545"/><use xlink:href="#ad" x="387.995" y="667.545"/><use xlink:href="#ae" x="394.893" y="667.545"/><use xlink:href="#p" x="401.791" y="667.545"/><use xlink:href="#af" x="404.039" y="667.545"/><use xlink:href="#as" x="410.937" y="667.545"/><use xlink:href="#at" x="417.835" y="667.545"/><use xlink:href="#p" x="424.733" y="667.545"/><use xlink:href="#au" x="426.981" y="667.545"/><use xlink:href="#ai" x="433.879" y="667.545"/><use xlink:href="#av" x="440.777" y="667.545"/></g><use xlink:href="#i" x="192.522" y="326.137" fill="#8a8e98"/><g fill="#33459a"><use xlink:href="#aw" x="202.026" y="326.736"/><use xlink:href="#l" x="213.642" y="326.736"/><use xlink:href="#ax" x="225.258" y="326.736"/></g><g fill="#231f20"><use xlink:href="#m" x="192.522" y="343.32"/><use xlink:href="#ay" x="199.42" y="343.32"/><use xlink:href="#az" x="206.318" y="343.32"/><use xlink:href="#aA" x="213.216" y="343.32"/><use xlink:href="#y" x="220.114" y="343.32"/></g><use xlink:href="#m" x="192.522" y="355.722" fill="#231f20"/><use xlink:href="#p" x="199.42" y="355.722" fill="#231f20"/><use xlink:href="#p" x="199.42" y="355.722" fill="#231f20"/><g fill="#231f20"><use xlink:href="#aj" x="199.42" y="355.722"/><use xlink:href="#aB" x="206.318" y="355.722"/><use xlink:href="#ay" x="213.216" y="355.722"/><use xlink:href="#aC" x="220.114" y="355.722"/><use xlink:href="#p" x="227.012" y="355.722"/><use xlink:href="#v" x="229.259" y="355.722"/><use xlink:href="#w" x="236.157" y="355.722"/><use xlink:href="#aD" x="243.055" y="355.722"/><use xlink:href="#aE" x="249.953" y="355.722"/><use xlink:href="#J" x="256.852" y="355.722"/><use xlink:href="#y" x="263.75" y="355.722"/><use xlink:href="#p" x="270.648" y="355.722"/><use xlink:href="#aF" x="272.895" y="355.722"/><use xlink:href="#aG" x="277.894" y="355.722"/><use xlink:href="#aH" x="282.56" y="355.722"/><use xlink:href="#aI" x="287.288" y="355.722"/><use xlink:href="#aa" x="292.318" y="355.722"/><use xlink:href="#p" x="294.566" y="355.722"/></g><g fill="#231f20"><use xlink:href="#aJ" x="199.497" y="366.709"/><use xlink:href="#Y" x="203.357" y="366.709"/><use xlink:href="#u" x="204.923" y="366.709"/><use xlink:href="#aK" x="208.682" y="366.709"/><use xlink:href="#T" x="212.82" y="366.709"/><use xlink:href="#U" x="216.874" y="366.709"/><use xlink:href="#Y" x="220.602" y="366.709"/><use xlink:href="#T" x="222.168" y="366.709"/><use xlink:href="#Z" x="226.221" y="366.709"/><use xlink:href="#p" x="230.352" y="366.709"/><use xlink:href="#A" x="232.6" y="366.709"/><use xlink:href="#B" x="239.498" y="366.709"/></g><use xlink:href="#i" x="363.81" y="326.506" fill="#8a8e98"/><g fill="#33459a"><use xlink:href="#aL" x="373.313" y="327.105"/><use xlink:href="#aM" x="384.93" y="327.105"/><use xlink:href="#aN" x="396.546" y="327.105"/></g><g fill="#231f20"><use xlink:href="#m" x="363.81" y="343.689"/><use xlink:href="#aO" x="370.708" y="343.689"/><use xlink:href="#az" x="377.606" y="343.689"/><use xlink:href="#aA" x="384.504" y="343.689"/><use xlink:href="#y" x="391.402" y="343.689"/></g><g fill="#231f20"><use xlink:href="#m" x="363.81" y="356.091"/><use xlink:href="#aP" x="370.708" y="356.091"/><use xlink:href="#aQ" x="377.606" y="356.091"/><use xlink:href="#aR" x="384.504" y="356.091"/><use xlink:href="#aS" x="391.402" y="356.091"/><use xlink:href="#J" x="398.3" y="356.091"/><use xlink:href="#G" x="405.198" y="356.091"/><use xlink:href="#p" x="412.096" y="356.091"/><use xlink:href="#aT" x="414.343" y="356.091"/><use xlink:href="#ag" x="421.241" y="356.091"/><use xlink:href="#aU" x="428.139" y="356.091"/><use xlink:href="#aV" x="435.037" y="356.091"/><use xlink:href="#aW" x="441.935" y="356.091"/><use xlink:href="#p" x="448.833" y="356.091"/><use xlink:href="#C" x="451.081" y="356.091"/><use xlink:href="#D" x="457.979" y="356.091"/></g><g fill="#fff"><use xlink:href="#aX" x="43.334" y="165.5"/><use xlink:href="#aY" x="55.219" y="165.5"/><use xlink:href="#aZ" x="67.105" y="165.5"/><use xlink:href="#ba" x="71.3" y="165.5"/><use xlink:href="#bb" x="83.185" y="165.5"/></g></svg>