<svg xmlns="http://www.w3.org/2000/svg" xmlns:xlink="http://www.w3.org/1999/xlink" width="793.701" height="1058.268" viewBox="0 0 595.276 793.701" version="1.2"><defs><symbol overflow="visible" id="a"><path d="M2.875.031c.434 0 .82-.144 1.156-.437.332-.301.594-.64.782-1.016.183-.34.316-.71.39-1.11.082-.402.125-.804.125-1.202 0-.403-.05-.813-.14-1.22a4.843 4.843 0 0 0-.407-1.155A3.031 3.031 0 0 0 4-7.063a1.747 1.747 0 0 0-1.14-.421c-.844 0-1.473.457-1.876 1.359-.406.906-.609 1.707-.609 2.39 0 .712.203 1.52.61 2.422C1.386-.413 2.02.032 2.874.032zm0-.281c-.75 0-1.227-.441-1.422-1.328-.2-.895-.297-1.613-.297-2.156 0-.54.098-1.254.297-2.141.195-.895.672-1.344 1.422-1.344.363 0 .648.137.86.407.206.273.363.566.468.875.113.343.195.71.25 1.093.059.387.094.758.094 1.11 0 .324-.035.675-.094 1.046a9.33 9.33 0 0 1-.203 1.016c-.094.336-.254.66-.469.969-.21.305-.511.453-.906.453zm0 0"/></symbol><symbol overflow="visible" id="b"><path d="M4.094-6.734l.203-.032a.45.45 0 0 0 .14-.015c.04-.02.07-.055.094-.11l.078-.312c0-.008.008-.067.032-.172.027-.102.046-.16.046-.172 0-.058-.027-.086-.078-.078a.7.7 0 0 0-.14.016l-2.594.343c-.219.032-.352.067-.39.094-.044.031-.098.152-.157.36l-.61 2.109a.385.385 0 0 0-.046.11.438.438 0 0 0-.031.14c0 .043.02.07.062.078.04.012.078.016.11.016a10.782 10.782 0 0 1 2 .28c.433.126.796.325 1.078.595.277.273.421.652.421 1.14 0 .45-.144.867-.421 1.25a3.069 3.069 0 0 1-.985.89 5.708 5.708 0 0 1-1.015.407A5.046 5.046 0 0 1 .828.422a.758.758 0 0 0-.14.016C.632.457.609.5.609.561c0 .04.016.067.047.079a.19.19 0 0 0 .11.03c.101 0 .257-.023.468-.062A9.032 9.032 0 0 0 2.531.25c.278-.094.535-.207.766-.328a4.62 4.62 0 0 0 1.219-1.047c.363-.426.546-.914.546-1.469 0-.37-.097-.734-.28-1.078A2.1 2.1 0 0 0 4-4.5a3.72 3.72 0 0 0-1.047-.375 8.69 8.69 0 0 0-1.11-.172l-.421-.031a5.264 5.264 0 0 1-.203-.031c-.074-.008-.11-.051-.11-.125 0-.028.008-.079.032-.141a.934.934 0 0 1 .046-.14l.125-.47c.07-.226.133-.35.188-.374.05-.028.203-.063.453-.094zm0 0"/></symbol><symbol overflow="visible" id="c"><path d="M2.5-4.39l.86-.47c.245-.132.503-.304.765-.515a.964.964 0 0 0 .406-.797c0-.445-.183-.773-.547-.984a2.113 2.113 0 0 0-1.125-.297c-.304.012-.59.066-.859.156-.273.086-.52.238-.734.453a1.957 1.957 0 0 0-.204.266c-.085.117-.125.215-.125.297 0 .031.008.066.032.093.02.032.047.047.078.047.039 0 .078-.023.11-.078.027-.05.054-.093.077-.125.133-.215.32-.398.563-.547a1.4 1.4 0 0 1 .766-.234c.269 0 .519.082.75.234.226.157.343.387.343.688 0 .48-.293.902-.875 1.266-.574.367-1.039.667-1.39.906l-.375.25-.11.078c-.043.023-.062.066-.062.125 0 .031.008.058.031.078a.143.143 0 0 0 .094.031c.039 0 .086-.008.14-.031a.53.53 0 0 0 .125-.063c.184-.113.391-.203.61-.265.226-.07.457-.11.687-.11.559 0 1.008.196 1.344.579.332.375.5.836.5 1.375 0 .367-.086.714-.25 1.046a2.37 2.37 0 0 1-.656.844 3.086 3.086 0 0 1-.688.422c-.281.145-.55.219-.797.219a.489.489 0 0 1-.328-.11 1.133 1.133 0 0 1-.203-.28 1.328 1.328 0 0 0-.219-.298.44.44 0 0 0-.328-.14c-.136 0-.242.043-.312.125a.456.456 0 0 0-.11.312c0 .278.133.473.407.578.277.102.53.157.75.157.445 0 .894-.118 1.343-.344.446-.23.832-.492 1.157-.781.308-.278.562-.614.75-1 .195-.383.296-.786.296-1.204 0-.59-.207-1.078-.609-1.453-.398-.37-.894-.562-1.484-.562zm0 0"/></symbol><symbol overflow="visible" id="d"><path d="M7.422 1.36v-7.985h-.734v2.938h-.954V-6.5H5V.984h.734v-3.953h.954V1.36zM2.938-4.626v-.813H4.28v-.625H.813v.625h1.359v.688c0 .953-.156 1.766-.469 2.453A4.316 4.316 0 0 1 .172-.594c.234.14.531.313.687.453.36-.265.735-.656 1.047-1.093.297-.407.532-.875.64-1.297.126.422.345.828.61 1.187.297.375.64.703.969.907.14-.172.36-.36.547-.5a3.485 3.485 0 0 1-1.344-1.516c-.25-.594-.39-1.328-.39-2.172zm0 0"/></symbol><symbol overflow="visible" id="e"><path d="M6.078-6.625V-.75h.75v-3.266h1.11v-.64h-1.11v-1.969zm-.344 3.234c-.546.11-2.015.282-2.843.297l-1.313.016v-2.547H4.61v-.64H.844v3.843c.031 0 1.375 0 1.984-.015 1.047-.032 2.328-.188 2.906-.329zm1.344 4.594v-.64H2.422v-2.016h-.75v2.656zm0 0"/></symbol><symbol overflow="visible" id="f"><path d="M7.11-2.313v-4.312h-.75v1.578H4.624v-1.312h-.719v1.187h-2.25v-1.187H.922v3.687h3.703V-4.39h1.734v2.079zm-3.204-1h-2.25V-4.53h2.25zM7.11 1.282v-3.234h-.75v.922H2.547v-.922h-.75V1.28zm-.75-.61H2.547V-.405h3.812zm0 0"/></symbol><symbol overflow="visible" id="g"><path d="M7.11-.75v-5.875h-.75V-.75zM.61-4.406c0 1.14.874 2.093 2.124 2.093 1.235 0 2.11-.953 2.11-2.093 0-1.172-.875-2.11-2.11-2.11-1.25 0-2.125.938-2.125 2.11zm.765 0c0-.828.5-1.469 1.36-1.469.859 0 1.359.64 1.359 1.469 0 .797-.5 1.437-1.36 1.437-.859 0-1.359-.64-1.359-1.437zm5.969 5.61V.562H2.562v-1.985h-.75v2.625zm0 0"/></symbol><symbol overflow="visible" id="i"><path d="M7.047 1.36v-7.985H6.28v7.984zM4.687-.657v-5.469H.97v5.469zm-.734-.64H1.72V-5.47h2.234zm0 0"/></symbol><symbol overflow="visible" id="j"><path d="M7.203 1.36v-7.985H6.47v2.844h-.985V-6.5H4.75V.984h.734v-4.046h.985v4.421zm-2.75-2.75c-.344.062-1.187.156-1.734.156l-1.063.015V-3.03h2.157v-3.125H.921v.64h2.172v1.844H.922v3.11l1.547-.016A19.11 19.11 0 0 0 4.453-.75zm0 0"/></symbol><symbol overflow="visible" id="k"><path d="M7.203 1.36v-7.985h-.75v7.984zM1.031-4.376c0 1.094.875 2 2.125 2 1.235 0 2.125-.906 2.125-2 0-1.094-.89-1.984-2.125-1.984-1.25 0-2.125.89-2.125 1.984zm.735 0c0-.75.53-1.36 1.39-1.36.86 0 1.36.61 1.36 1.36 0 .75-.5 1.36-1.36 1.36-.86 0-1.39-.61-1.39-1.36zm4.406 3.016c-.64.109-2.531.25-3.219.265-.328.016-2.312.016-2.344.016v.656c.016 0 1.657.016 1.985 0a26.518 26.518 0 0 0 3.578-.297zm0 0"/></symbol><symbol overflow="visible" id="l"><path d="M8.047-3.813v-.671H6.922v-2.141h-.766V-1.5h.766v-2.313zM4.14-6.046v-.594H1.687v.594zm1.14 1.203v-.593H.594v.593zM.921-3.078c0 .719.829 1.312 2 1.312 1.25 0 2.032-.593 2.032-1.312 0-.735-.75-1.328-2.016-1.328-1.203 0-2.015.593-2.015 1.328zm.782-.016c0-.453.484-.719 1.234-.719.766 0 1.235.266 1.235.72 0 .452-.453.75-1.234.75-.75 0-1.235-.282-1.235-.75zm5.219 4.5v-2.515h-5.36v.625h4.579v1.89zm0 0"/></symbol><symbol overflow="visible" id="m"><path d="M7.11-.75v-5.875h-.75v.922H4.421c-.36-.5-.969-.844-1.703-.844-1.235 0-2.11.969-2.11 2.125 0 1.156.875 2.11 2.11 2.11.765 0 1.39-.36 1.75-.891h1.89V-.75zm-.75-3.11H4.75a1.7 1.7 0 0 0 .094-.562c0-.219-.032-.437-.094-.625h1.61zm-4.985-.562c0-.812.5-1.469 1.344-1.469.875 0 1.36.657 1.36 1.47 0 .796-.485 1.452-1.36 1.452-.844 0-1.344-.656-1.344-1.453zm5.953 5.625v-.64H2.562v-1.985h-.75v2.625zm0 0"/></symbol><symbol overflow="visible" id="n"><path d="M7.781-2.156v-.64H6.484c.204-.907.375-2.438.407-3.548H1.156v.64h4.938a16.656 16.656 0 0 1-.39 2.907H.265v.64h3.312V1.36h.75v-3.515zm0 0"/></symbol><symbol overflow="visible" id="p"><path d="M3.813-4.36v-.015h1.593v-.813h-4.25v.813h1.578v.016c-.046.359-.265.687-.593.968-.407.344-.97.594-1.5.735.234.203.546.5.718.703.422-.156.813-.36 1.141-.61.344-.234.625-.515.781-.812.203.297.485.563.813.781.343.219.703.39 1.015.485.125-.188.375-.47.594-.688a3.35 3.35 0 0 1-1.219-.578c-.343-.266-.625-.61-.671-.984zm2.25 3.126c-.641.093-1.954.171-2.313.171V-2.25h-.969v1.203H.562v.86h1.844c1.172 0 2.985-.094 3.656-.204zm1.25 2.609v-8.016h-.954v8.016zm-2.86-7.11v-.796H2.016v.797zm0 0"/></symbol><symbol overflow="visible" id="q"><path d="M7.203-.75v-5.89h-.969v5.89zM3.328-5.39v-1.094H2.297v1.125c0 .593-.219 1.125-.563 1.562-.39.516-.968.922-1.562 1.203.266.203.625.485.781.656a5.38 5.38 0 0 0 1.094-.796c.344-.329.64-.704.765-1.079.204.376.532.735.891 1.016.328.266.688.5 1 .656.14-.203.422-.515.625-.75a3.228 3.228 0 0 1-1.39-.953c-.376-.437-.61-.969-.61-1.547zm4.063 6.609V.375H2.766v-1.734h-1v2.578zm0 0"/></symbol><symbol overflow="visible" id="r"><path d="M7.781-2.063v-.843h-3.25v-.906h2.39v-.829H2.204v-.984h4.64v-.828H1.235v2.64h2.297v.907H.281v.844zm-3.75 3.594c1.938 0 2.985-.687 2.985-1.562 0-.89-1.047-1.547-2.985-1.547-1.937 0-3 .656-3 1.547 0 .875 1.063 1.562 3 1.562zM2.156-.047c0-.515.703-.781 1.875-.781 1.14 0 1.86.297 1.86.797 0 .484-.72.781-1.86.781C2.86.75 2.156.453 2.156-.047zm0 0"/></symbol><symbol overflow="visible" id="s"><path d="M7.906-2.875v-.828H6.875v-.922h1.031v-.828H6.875v-1.188h-.969v5.063h.969v-1.297zM4.063-5.953v-.734H1.578v.734zm1.125 1.219v-.735H.468v.735zM.702-3.188c0 .688.906 1.25 2.125 1.25 1.297 0 2.125-.546 2.125-1.265 0-.703-.828-1.203-2.11-1.203-1.234 0-2.14.531-2.14 1.218zm3.235-.015c0 .375-.407.578-1.094.578-.688 0-1.11-.188-1.11-.563 0-.374.422-.578 1.11-.578.687 0 1.094.204 1.094.563zM7.046 0c0-.938-1.188-1.5-2.844-1.5-1.594 0-2.875.516-2.875 1.469 0 .953 1.234 1.547 2.86 1.547C5.796 1.516 7.046.984 7.046 0zm-4.64-.016c0-.562.874-.75 1.78-.75.985 0 1.75.235 1.75.75 0 .532-.828.782-1.734.782-.922 0-1.797-.25-1.797-.782zm0 0"/></symbol><symbol overflow="visible" id="t"><path d="M7.797.484v-.843H4.53V-2h2.282v-4.422h-.97v1.313h-3.64v-1.313h-.969V-2h2.282v1.64H.28v.844zM5.844-2.844h-3.64v-1.422h3.64zm0 0"/></symbol><symbol overflow="visible" id="u"><path d="M1.078-6.203v.828h4.766a28.365 28.365 0 0 1-.453 3.953h.968c.25-1.39.47-3.406.532-4.781zM7.797.484v-.843H3.844v-2.985h-.985v2.985H.281v.843zm0 0"/></symbol><symbol overflow="visible" id="v"><path d="M7.203 1.375v-8.016H6.22v2.313H4.53v.906H6.22v4.797zm-3.89-5.938v-1.765H2.296v1.719c0 .796-.172 1.515-.516 2.14C1.406-1.766.828-1.188.094-.75c.281.188.625.469.812.64a6.26 6.26 0 0 0 1.14-1.046c.345-.422.642-.89.767-1.297.203.453.5.906.859 1.281.344.36.719.672 1.031.89.172-.187.438-.437.719-.655-.672-.422-1.234-.938-1.61-1.594-.312-.563-.5-1.219-.5-2.031zm0 0"/></symbol><symbol overflow="visible" id="x"><path d="M2.766-.547L1.125-6.125H.109L2.266.672h.968l2.172-6.797H4.391zm0 0"/></symbol><symbol overflow="visible" id="y"><path d="M2.438-3.688c.765 0 1.171.766 1.171 1.922C3.61-.609 3.203.141 2.438.141c-.735 0-1.141-.75-1.141-1.907 0-1.156.406-1.921 1.14-1.921zm0-.75C1.046-4.438.344-3.375.344-1.765c0 1.61.703 2.641 2.094 2.641 1.406 0 2.14-1.031 2.14-2.64 0-1.61-.734-2.673-2.14-2.673zm0 0"/></symbol><symbol overflow="visible" id="z"><path d="M.563-6.125V.672h.906v-6.797zm0 0"/></symbol><symbol overflow="visible" id="A"><path d="M.64-.047v1.203h1.25V-.047zm0 0"/></symbol><symbol overflow="visible" id="B"><path d="M.563-4.219H1.75V.703h.938v-6.922h-.766c-.11.922-.406 1.282-1.36 1.328zm0 0"/></symbol><symbol overflow="visible" id="C"><path d="M2-6.25C.797-6.25.203-4.89.203-2.656.203-.437.797.906 2 .906c1.203 0 1.828-1.344 1.828-3.562C3.828-4.891 3.203-6.25 2-6.25zm0 .797c.547 0 .906 1.078.906 2.797C2.906-.97 2.546.109 2 .109c-.531 0-.875-1.078-.875-2.765 0-1.719.344-2.797.875-2.797zm0 0"/></symbol><symbol overflow="visible" id="D"><path d="M6.844-2.688l-5.219-3.14V.453zm-.61 0L1.922-.108v-5.157zm0 0"/></symbol><symbol overflow="visible" id="E"><path d="M4.531.375v-.5h-3.39c.125-.547.453-1.11.968-1.453l1.032-.719c.609-.437 1.25-.922 1.296-1.937.047-1.016-.687-1.891-1.968-1.891-1.313 0-1.985 1-1.969 1.953h.563c0-.734.453-1.39 1.375-1.39.874 0 1.39.562 1.374 1.328-.015.625-.437 1.03-.937 1.39l-1.047.735C.594-1.234.5-.422.468.375zm0 0"/></symbol><symbol overflow="visible" id="F"><path d="M3 .438v-6.391h-.453c-.016.328-.203.64-.438.828-.328.219-.625.313-.968.313v.484h1.265V.438zm0 0"/></symbol><symbol overflow="visible" id="G"><path d="M1.484.969V0H.5v.969zm0 0"/></symbol><symbol overflow="visible" id="H"><path d="M2.469-6.078C1.016-6.078.234-4.703.234-2.766.234-.812 1.016.563 2.47.563c1.453 0 2.25-1.375 2.25-3.329 0-1.937-.797-3.312-2.25-3.312zm0 6.094C1.453.016.906-1.172.906-2.766c0-1.578.547-2.765 1.563-2.765 1.031 0 1.562 1.187 1.562 2.765C4.031-1.172 3.5.016 2.47.016zm0 0"/></symbol><symbol overflow="visible" id="I"><path d="M4.906-.797v-.5h-.953v-4.672H3.36l-3.015 4.5v.672h3.015V.438h.594V-.798zm-1.547-.5H.922L3.359-5zm0 0"/></symbol><symbol overflow="visible" id="J"><path d="M2.453-6.125C1.297-6.125.422-5.235.391-4c-.032 1.172.734 2.156 1.875 2.234A1.898 1.898 0 0 0 4.03-2.64c.047.344.016 1-.218 1.579-.266.656-.61 1.125-1.376 1.125C1.61.063 1.11-.531 1-1.157H.422c.094.86.86 1.798 1.984 1.766.985-.03 1.64-.593 2.016-1.593.375-1 .36-2.704.094-3.532-.313-.937-1.032-1.609-2.063-1.609zm.016 3.813c-.86 0-1.453-.688-1.453-1.657 0-.953.593-1.61 1.453-1.61.875 0 1.469.673 1.469 1.61 0 .953-.594 1.656-1.47 1.656zm0 0"/></symbol><symbol overflow="visible" id="L"><path d="M1.688 1.406v-8.203H1.14v8.203zm0 0"/></symbol><symbol overflow="visible" id="M"><path d="M4.64-.75c-.312-.203-.734-.578-1.156-1.234-.437-.672-.656-1.641-.656-2.47v-.655h1.453v-.547H.671v.547h1.47v.656c0 .812-.188 1.578-.547 2.297A5.205 5.205 0 0 1 .187-.5l.547.406c.375-.312.829-.828 1.157-1.328.328-.531.53-1 .593-1.281.079.281.313.86.657 1.312.375.5.765.891 1.046 1.079zM5.89.89v-7.343h-.64v2.766H3.89v.578h1.36v4zm1.626.36v-7.89h-.657v7.89zm0 0"/></symbol><symbol overflow="visible" id="N"><path d="M4.5-5.797v-.562H1.984v.562zm1.11 1.25v-.562H.905v.562zM7.218 1.25v-7.89h-.657v7.89zM6.187-.25v-.563c-.687.11-1.812.172-2.562.188v-.938c.969-.093 1.64-.625 1.64-1.25 0-.687-.827-1.296-1.984-1.296-1.156 0-1.953.593-1.953 1.28 0 .657.64 1.188 1.625 1.282v.938h-2.5v.562H3.25A36.04 36.04 0 0 0 6.188-.25zM4.625-2.813c0 .422-.547.735-1.344.735-.765 0-1.328-.313-1.328-.75 0-.422.563-.75 1.328-.75.797 0 1.344.328 1.344.765zm0 0"/></symbol><symbol overflow="visible" id="O"><path d="M5.484-.813c-.468-.25-1.156-.765-1.609-1.453-.547-.78-.734-1.671-.734-2.546v-1.375h-.688v1.375c0 .875-.219 1.828-.687 2.562C1.328-1.562.64-.953.062-.61l.532.454a6.183 6.183 0 0 0 1.36-1.25c.5-.657.765-1.25.843-1.578.11.328.39.921.86 1.515a5.32 5.32 0 0 0 1.359 1.14zM6.891-6.64h-.657V1.25h.657v-4.11h1.265v-.578H6.891zm0 0"/></symbol><symbol overflow="visible" id="P"><path d="M4.734-3.125c0-1.766-.78-2.906-2.015-2.906C1.5-6.031.703-4.891.703-3.125c0 1.75.797 2.906 2.016 2.906 1.234 0 2.015-1.172 2.015-2.906zM7.22 1.25v-7.89h-.657v7.89zM4.094-3.14c0 1.265-.485 2.312-1.36 2.312-.875 0-1.375-1.047-1.375-2.313 0-1.234.5-2.28 1.375-2.28s1.36 1.046 1.36 2.28zm0 0"/></symbol><symbol overflow="visible" id="Q"><path d="M7.188-.906v-5.735H6.53v1.954H4.734c-.14-.954-.968-1.688-2.093-1.688-1.235 0-2.11.906-2.11 2.016 0 1.093.875 2 2.11 2 1.156 0 2-.766 2.109-1.75h1.781v3.203zm.187 1.984V.531H2.437v-1.953h-.671v2.5zm-4.734-6.86c.921 0 1.437.641 1.437 1.423 0 .78-.516 1.39-1.437 1.39-.907 0-1.422-.61-1.422-1.39 0-.782.515-1.422 1.422-1.422zm0 0"/></symbol><symbol overflow="visible" id="R"><path d="M7.469-2.188c-.375-.109-1.328-.546-2-1.171C4.844-3.938 4.422-4.75 4.422-5.5v-.61h-.734v.61c0 .75-.422 1.563-1.047 2.14-.672.626-1.625 1.063-2 1.172l.453.485c.312-.094 1.14-.484 1.812-1.063.578-.515 1.047-1.203 1.14-1.562.11.36.579 1.047 1.157 1.562.672.579 1.5.97 1.813 1.063zm.468 2.22v-.548H.173v.547zm0 0"/></symbol><symbol overflow="visible" id="S"><path d="M7-5.328v-.563H1.094v.563zM7.938.219v-.563H4.374V-2.14h2.813v-.546H5.905l.172-2.36h-.656l-.172 2.36H2.86l-.188-2.36h-.656l.171 2.36H.907v.546h2.796v1.797H.172V.22zm0 0"/></symbol><symbol overflow="visible" id="T"><path d="M7.188-1.922V-6.64H6.53v1.813H4.938v.547H6.53v2.36zM5.609-2.5v-.547c-.421.063-1.296.156-2.078.188-.86.03-2 .015-2.062.015v-1.14H4.5V-6.22H.812v.563h3.032v1.125H.813v2.25c.093 0 1.718.015 2.78-.047A19.89 19.89 0 0 0 5.61-2.5zm1.547 3.672v-2.64H1.75v2.64zM6.484.609H2.422V-.92h4.062zm0 0"/></symbol></defs><g fill="#393536"><use xlink:href="#a" x="535.245" y="48.426"/><use xlink:href="#b" x="540.818" y="48.426"/><use xlink:href="#c" x="546.392" y="48.426"/></g><g fill="#4f4c4d"><use xlink:href="#d" x="336.467" y="47.727"/><use xlink:href="#e" x="344.467" y="47.727"/><use xlink:href="#f" x="352.468" y="47.727"/><use xlink:href="#g" x="360.468" y="47.727"/><use xlink:href="#h" x="368.468" y="47.727"/><use xlink:href="#i" x="371.075" y="47.727"/><use xlink:href="#j" x="379.075" y="47.727"/><use xlink:href="#k" x="387.076" y="47.727"/><use xlink:href="#l" x="395.076" y="47.727"/><use xlink:href="#m" x="403.076" y="47.727"/><use xlink:href="#n" x="411.076" y="47.727"/><use xlink:href="#d" x="419.077" y="47.727"/><use xlink:href="#e" x="427.077" y="47.727"/></g><use xlink:href="#o" x="435.076" y="47.727" fill="#231f20"/><g fill="#231f20"><use xlink:href="#p" x="437.683" y="47.727"/><use xlink:href="#q" x="445.683" y="47.727"/><use xlink:href="#r" x="453.684" y="47.727"/><use xlink:href="#s" x="461.684" y="47.727"/><use xlink:href="#t" x="469.684" y="47.727"/><use xlink:href="#u" x="477.684" y="47.727"/><use xlink:href="#v" x="485.685" y="47.727"/><use xlink:href="#w" x="493.685" y="47.727"/><use xlink:href="#x" x="496.292" y="47.727"/><use xlink:href="#y" x="501.703" y="47.727"/><use xlink:href="#z" x="506.503" y="47.727"/><use xlink:href="#A" x="508.436" y="47.727"/><use xlink:href="#w" x="511.043" y="47.727"/><use xlink:href="#B" x="513.65" y="47.727"/><use xlink:href="#C" x="517.605" y="47.727"/></g><use xlink:href="#D" x="370.606" y="693.734" fill="#33459a"/><g fill="#231f20"><use xlink:href="#E" x="378.623" y="693.734"/><use xlink:href="#F" x="383.485" y="693.734"/><use xlink:href="#G" x="388.348" y="693.734"/><use xlink:href="#H" x="390.506" y="693.734"/><use xlink:href="#I" x="395.369" y="693.734"/><use xlink:href="#G" x="400.232" y="693.734"/><use xlink:href="#H" x="402.39" y="693.734"/><use xlink:href="#J" x="407.253" y="693.734"/><use xlink:href="#K" x="412.116" y="693.734"/><use xlink:href="#K" x="415.111" y="693.734"/></g><use xlink:href="#L" x="418.105" y="693.734" fill="#616471"/><g fill="#231f20"><use xlink:href="#K" x="420.862" y="693.734"/><use xlink:href="#K" x="423.858" y="693.734"/></g><g fill="#33459a"><use xlink:href="#M" x="426.853" y="693.734"/><use xlink:href="#F" x="434.869" y="693.734"/><use xlink:href="#N" x="439.732" y="693.734"/><use xlink:href="#K" x="447.748" y="693.734"/><use xlink:href="#O" x="450.743" y="693.734"/><use xlink:href="#P" x="458.76" y="693.734"/><use xlink:href="#Q" x="466.776" y="693.734"/><use xlink:href="#R" x="474.793" y="693.734"/><use xlink:href="#K" x="482.809" y="693.734"/><use xlink:href="#S" x="485.804" y="693.734"/><use xlink:href="#T" x="493.821" y="693.734"/></g><use xlink:href="#D" x="370.606" y="345.004" fill="#33459a"/><g fill="#231f20"><use xlink:href="#E" x="378.623" y="345.004"/><use xlink:href="#F" x="383.485" y="345.004"/><use xlink:href="#G" x="388.348" y="345.004"/><use xlink:href="#H" x="390.506" y="345.004"/><use xlink:href="#I" x="395.369" y="345.004"/><use xlink:href="#G" x="400.232" y="345.004"/><use xlink:href="#H" x="402.39" y="345.004"/><use xlink:href="#J" x="407.253" y="345.004"/><use xlink:href="#K" x="412.116" y="345.004"/><use xlink:href="#K" x="415.111" y="345.004"/></g><use xlink:href="#L" x="418.105" y="345.004" fill="#616471"/><g fill="#231f20"><use xlink:href="#K" x="420.863" y="345.004"/><use xlink:href="#K" x="423.858" y="345.004"/></g><g fill="#33459a"><use xlink:href="#M" x="426.853" y="345.004"/><use xlink:href="#F" x="434.869" y="345.004"/><use xlink:href="#N" x="439.732" y="345.004"/><use xlink:href="#K" x="447.748" y="345.004"/><use xlink:href="#O" x="450.743" y="345.004"/><use xlink:href="#P" x="458.76" y="345.004"/><use xlink:href="#Q" x="466.776" y="345.004"/><use xlink:href="#R" x="474.793" y="345.004"/><use xlink:href="#K" x="482.809" y="345.004"/><use xlink:href="#S" x="485.804" y="345.004"/><use xlink:href="#T" x="493.821" y="345.004"/></g></svg>