<svg xmlns="http://www.w3.org/2000/svg" xmlns:xlink="http://www.w3.org/1999/xlink" width="793.701" height="1058.268" viewBox="0 0 595.276 793.701" version="1.2"><defs><symbol overflow="visible" id="a"><path d="M6-10.86v-1.64h1.797v1.64H12v1.594H9.734a3.266 3.266 0 0 1 .766 2.079 3.022 3.022 0 0 1-1.047 2.313 3.502 3.502 0 0 1-1.14.655 4.209 4.209 0 0 1-1.422.235c-.512 0-.993-.079-1.438-.235a3.422 3.422 0 0 1-1.14-.656 3.316 3.316 0 0 1-.75-1.016 3.094 3.094 0 0 1-.266-1.296c0-.79.25-1.485.75-2.079H1.75v-1.593zm7.234 7.61v1.594H7.797v3.515H5.984v-3.515H.547V-3.25zM5.016-7.188c0 .481.171.887.515 1.22.34.335.797.5 1.36.5.277 0 .535-.04.765-.126.227-.09.426-.218.594-.375a1.52 1.52 0 0 0 .375-.547c.09-.207.14-.43.14-.671 0-.258-.05-.504-.14-.735a1.707 1.707 0 0 0-.375-.594 1.73 1.73 0 0 0-.594-.406 1.889 1.889 0 0 0-.765-.156 1.93 1.93 0 0 0-.766.156c-.23.094-.43.23-.594.406-.168.18-.3.383-.39.61-.086.218-.125.46-.125.718zm0 0"/></symbol><symbol overflow="visible" id="b"><path d="M2.094-8.672c0-.445.082-.867.25-1.265.176-.395.41-.735.703-1.016a3.388 3.388 0 0 1 2.36-.938 3.38 3.38 0 0 1 2.359.938c.308.281.55.621.718 1.015.164.399.25.82.25 1.266 0 .438-.086.852-.25 1.235-.168.386-.41.726-.718 1.015a3.51 3.51 0 0 1-1.063.672 3.526 3.526 0 0 1-1.297.234c-.46 0-.894-.078-1.297-.234a3.418 3.418 0 0 1-1.062-.672 3.376 3.376 0 0 1-.703-1.016 3.045 3.045 0 0 1-.25-1.234zm8.89.453v-3.531h1.813v10.734h-1.813V-6.64H9.11v-1.578zM5.531.141c0 .207.008.379.032.515.019.133.062.25.125.344.07.09.171.156.296.188.121.039.297.062.516.062h6.469v1.61H6.547a9.037 9.037 0 0 1-1.406-.094c-.356-.055-.645-.18-.86-.375-.21-.2-.355-.493-.437-.875-.086-.375-.125-.88-.125-1.5v-1.329H5.53zm-.875-3.375H.938v-1.594h8.937v1.594H6.453v1.64H4.656zM3.641-8.672c0 .242.039.465.125.672.09.2.218.379.375.531.152.157.336.278.546.36.215.086.458.125.72.125.238 0 .46-.04.671-.125.215-.082.406-.204.563-.36.152-.152.28-.332.375-.531a1.668 1.668 0 0 0 0-1.344 1.89 1.89 0 0 0-.375-.562 1.58 1.58 0 0 0-.563-.375c-.21-.09-.433-.14-.672-.14-.261 0-.504.05-.718.14a1.52 1.52 0 0 0-.547.375 1.752 1.752 0 0 0-.375.562c-.086.211-.125.434-.125.672zm0 0"/></symbol><symbol overflow="visible" id="c"><path d="M5.766-11.203c.601 0 1.035.137 1.296.406.258.262.372.664.344 1.203A6.114 6.114 0 0 1 7-7.906c-.219.593-.527 1.21-.922 1.843.152.262.375.555.656.875.278.313.579.633.891.954.309.312.61.605.89.875.278.261.505.46.672.593L8-1.359a10.8 10.8 0 0 1-.625-.594A32.423 32.423 0 0 1 5.75-3.672c-.281-.308-.535-.61-.75-.89-.46.593-.96 1.175-1.5 1.734a21.417 21.417 0 0 1-1.75 1.594L.61-2.625A17.258 17.258 0 0 0 2.53-4.359c.57-.602 1.07-1.192 1.5-1.766.426-.57.77-1.117 1.032-1.64.257-.52.437-.977.53-1.376.071-.3-.042-.453-.343-.453H1.203v-1.61zm4.562-.547h1.813v4.516h1.921v1.625h-1.921V.03h-1.813zm0 0"/></symbol><symbol overflow="visible" id="e"><path d="M8.11-11.547a6.079 6.079 0 0 1-.188.89c-.086.274-.184.552-.297.829.184.336.473.683.86 1.047.382.355.82.707 1.312 1.047.488.336.992.644 1.515.921.528.282 1.024.508 1.485.672l-.766 1.547a8.126 8.126 0 0 1-1.422-.578 16 16 0 0 1-1.515-.906c-.492-.34-.95-.703-1.375-1.078A6.622 6.622 0 0 1 6.703-8.22a9.42 9.42 0 0 1-1.078 1.25c-.398.387-.805.742-1.219 1.063-.406.312-.82.597-1.234.843-.406.243-.8.45-1.172.625l-.875-1.5c.613-.277 1.203-.609 1.766-.984a9.276 9.276 0 0 0 1.53-1.312A8.469 8.469 0 0 0 5.61-9.86c.34-.59.594-1.254.75-1.985zM5.983-1.922v-2.937h1.813v2.937h5.437v1.625H.547v-1.625zm0 0"/></symbol><symbol overflow="visible" id="f"><path d="M8.063-11.75h1.765v4.203h1.485v-4.203h1.765V.031h-1.765V-5.89H9.828V.031H8.063zm-2.829.719c.551 0 .938.183 1.157.547.226.367.332.851.312 1.453a12.661 12.661 0 0 1-.25 1.953 7.108 7.108 0 0 1-.734 1.937c-.344.637-.832 1.274-1.453 1.907-.618.625-1.426 1.246-2.422 1.859L.89-2.828c.808-.508 1.472-1.008 1.984-1.5.52-.488.93-.969 1.234-1.438.309-.476.524-.941.641-1.39.121-.446.203-.89.234-1.328.02-.352-.02-.586-.109-.704-.086-.113-.258-.171-.516-.171H.906v-1.672zm0 0"/></symbol><symbol overflow="visible" id="g"><path d="M4.86-7.266L3.218-5.594l1.64 1.703 1.61-1.703zm0 4.625L3.218-.953 4.859.75 6.47-.953zM2.624-4.984L.985-3.297l1.64 1.703L4.25-3.297zm4.438 0L5.405-3.297l1.657 1.703 1.609-1.703zm0 0"/></symbol><symbol overflow="visible" id="i"><path d="M5.781-5.453c0-1.297-1.062-2.344-2.547-2.344-1.468 0-2.53 1.047-2.53 2.344s1.062 2.36 2.53 2.36c1.485 0 2.547-1.063 2.547-2.36zM8.72-2.391v-5.734h-.781v5.734zm0 3.922V-1.75h-6.75v.672h5.968v2.61zM4.953-5.453c0 .906-.61 1.64-1.719 1.64-1.093 0-1.703-.734-1.703-1.64 0-.89.61-1.625 1.703-1.625 1.11 0 1.72.734 1.72 1.625zm0 0"/></symbol><symbol overflow="visible" id="j"><path d="M8.594-2.188v-5.937h-.781v1.484H5.405v-.78H1v4.202h4.406v-.953h2.407v1.984zm.125 2.016c0-1.11-1.219-1.922-3.469-1.922S1.781-1.28 1.781-.172c0 1.11 1.219 1.89 3.469 1.89s3.469-.78 3.469-1.89zm-.906-4.656H5.405v-1.14h2.407zm-3.188.922H1.781V-6.75h2.844zM7.891-.172c0 .766-1.094 1.219-2.641 1.219-1.563 0-2.64-.469-2.64-1.219 0-.797 1.078-1.234 2.64-1.234 1.547 0 2.64.453 2.64 1.234zm0 0"/></symbol><symbol overflow="visible" id="k"><path d="M6.406-5.125c0-1.297-1.062-2.36-2.562-2.36-1.516 0-2.578 1.063-2.578 2.36S2.328-2.75 3.844-2.75c1.5 0 2.562-1.078 2.562-2.375zm2.407 6.656v-9.656H8.03v9.656zM7.655-.75v-.703c-.812.125-2.531.219-3.906.234l-3.063.016v.687L3.72-.53C4.984-.562 6.984-.656 7.656-.75zM5.594-5.125c0 .906-.625 1.672-1.75 1.672-1.14 0-1.766-.766-1.766-1.672 0-.906.625-1.672 1.766-1.672 1.125 0 1.75.766 1.75 1.672zm0 0"/></symbol><symbol overflow="visible" id="l"><path d="M6.828-7.406v-.672H2.86v.672zM8.641-6v-.672H1.062V-6zM8-4.016c0-.843-1.297-1.437-3.172-1.437-1.89 0-3.156.594-3.156 1.437 0 .829 1.266 1.438 3.156 1.438C6.703-2.578 8-3.188 8-4.016zm1.5 2.844v-.687H.219v.687h4.234v2.703h.797v-2.703zM7.078-4.016c0 .485-1.031.782-2.25.782-1.234 0-2.266-.297-2.266-.782 0-.5 1.032-.78 2.266-.78 1.219 0 2.25.28 2.25.78zm0 0"/></symbol><symbol overflow="visible" id="m"><path d="M3.844-8.188c-1.516 0-2.469.829-2.469 1.766 0 .938.938 1.75 2.469 1.75s2.453-.797 2.453-1.75c0-.937-.922-1.766-2.453-1.766zM8.75-.577v-7.547h-.781v5.61h-2.5v.656h2.5v1.28zM7.594-3.563v-.671c-.469.078-2.219.265-3.438.28l-3.61.017v.671H2.97v1.813h.781v-1.828c1.563 0 3.094-.156 3.844-.281zM9 1.314V.64H3v-1.688h-.781v2.36zM3.844-7.531c1.14 0 1.687.593 1.687 1.11 0 .5-.547 1.077-1.687 1.077-1.125 0-1.688-.578-1.688-1.078 0-.516.547-1.11 1.688-1.11zm0 0"/></symbol><symbol overflow="visible" id="n"><path d="M6.344-1.063c-.453-.25-1.047-.703-1.594-1.468-.578-.766-.906-1.906-.906-2.922v-.89h2.281v-.688H.765v.687H3v.89c0 1.032-.406 2.204-.969 3.016C1.516-1.671.766-1.062.187-.702l.625.562c.516-.343 1.125-.875 1.735-1.687a6.005 6.005 0 0 0 .875-1.719c.094.344.375 1.078.906 1.75a5.995 5.995 0 0 0 1.5 1.375zm3.468-2.421v-.704H8.297v-3.937h-.781v9.656h.78v-5.015zm0 0"/></symbol><symbol overflow="visible" id="o"><path d="M7.219 1.094v-9h-.75v3.64H5.297v.704h1.172v4.656zm1.843.437v-9.656h-.765v9.656zm-5.734-8.39H1.016v.687h1.53a8.32 8.32 0 0 1-.608 2.719C1.453-2.328.921-1.484.421-.906l.64.265c.5-.593 1.016-1.453 1.563-2.75.422-1 .672-2.578.703-3.468zm2.219 0H3.594v.687H4.75c0 .672-.172 1.906-.61 3.063C3.689-1.922 2.907-.797 2.47-.297l.672.281c.421-.53 1.14-1.578 1.718-3.03.547-1.376.688-3.267.688-3.813zm0 0"/></symbol><symbol overflow="visible" id="p"><path d="M9.5.234v-.687H5.234v-2.36H8.36V-3.5H2.297v-2.984H8.25v-.672H1.516v4.343h2.921v2.36H.22v.687zm0 0"/></symbol><symbol overflow="visible" id="q"><path d="M9.688-4.844v-.687H8.296v-2.594h-.781v5.5h.78v-2.219zm-4.11-2.578H1.031v.672h3.594c-.047.516-.375 1.531-1.453 2.406-1.016.828-1.985 1.14-2.735 1.36l.454.578c.859-.25 1.921-.656 3.046-1.672.97-.86 1.532-2.11 1.641-3.344zm2.734 8.844v-3.484h-6.28v3.484zM7.516.75H2.828v-2.14h4.688zm0 0"/></symbol><symbol overflow="visible" id="r"><path d="M6.563-.984C6-1.313 5.188-1.938 4.64-2.766c-.657-.968-.891-2.046-.891-3.109v-1.688h-.813v1.688c0 1.063-.265 2.234-.812 3.125C1.578-1.906.765-1.172.078-.734l.625.546a7.016 7.016 0 0 0 1.625-1.53c.61-.813.938-1.532 1.031-1.938.125.422.454 1.14 1.016 1.86.563.687 1.219 1.14 1.64 1.405zM8.25-8.125h-.797v9.656h.797V-3.5h1.5v-.703h-1.5zm0 0"/></symbol><symbol overflow="visible" id="s"><path d="M8.344-2.578v-.672H2.297v-3.063h5.969v-.671h-6.75v4.406zM9.5.062v-.687H.219v.688zm0 0"/></symbol><symbol overflow="visible" id="t"><path d="M8.547-2.797v-5.328h-.781v5.328zm-1.485-.531V-4c-.64.094-1.843.219-2.78.25l-2.532.016v-1.204h3.89v-2.687H.97v.672h3.89v1.36H.97v2.546l3.094-.047a31.393 31.393 0 0 0 3-.234zm1.47 4.75v-3.64H7.75v1.062H2.86V-2.22h-.782v3.64zM7.75.766H2.86V-.5h4.89zm0 0"/></symbol><symbol overflow="visible" id="u"><path d="M7.031-1.25v-.688a20.7 20.7 0 0 1-3.093.375l-1.97.032v-5.672h-.78v6.375c.078 0 1.64 0 2.718-.047 1.14-.031 2.469-.25 3.125-.375zM8.5 1.531v-9.656h-.797v9.656zm0 0"/></symbol><symbol overflow="visible" id="v"><path d="M6.5-1.031v-.672c-.453.094-1.75.234-2.703.266l-2.063.015v-4.844h3.75v-.671H.954v6.203c.062 0 1.452.015 2.609-.032A23.84 23.84 0 0 0 6.5-1.03zM9.469-3.5v-.703h-1.5v-3.922h-.782v9.656h.782V-3.5zm0 0"/></symbol><symbol overflow="visible" id="w"><path d="M1.766 1.188V0H.594v1.188zm0 0"/></symbol><symbol overflow="visible" id="x"><path d="M2.906-7.203C1.312-7.203.61-6.031.594-4.828h.86c.03-.75.359-1.531 1.437-1.531.89 0 1.328.546 1.328 1.437 0 .672-.39 1.172-.938 1.578l-1.203.89C.718-1.453.391-.436.375.564h4.844V-.25H1.484c.172-.625.72-1.172 1.11-1.453l1.172-.86C4.39-3.015 5.25-3.718 5.25-4.921c0-1.234-.766-2.281-2.344-2.281zm0 0"/></symbol><symbol overflow="visible" id="y"><path d="M2.813-7.094c-1.72 0-2.61 1.594-2.61 3.907C.203-.86 1.093.75 2.813.75 4.53.75 5.469-.86 5.469-3.188c0-2.312-.938-3.906-2.657-3.906zm0 6.969c-1.032 0-1.579-1.328-1.579-3.063 0-1.734.547-3.046 1.579-3.046 1.078 0 1.593 1.312 1.593 3.046 0 1.735-.515 3.063-1.593 3.063zm0 0"/></symbol><symbol overflow="visible" id="z"><path d="M3.578.625v-7.61h-.687c-.032.407-.266.813-.532 1.016-.359.25-.765.375-1.234.39v.75h1.547V.626zm0 0"/></symbol><symbol overflow="visible" id="A"><path d="M3.172-4.344c-.781-.031-1.328.219-1.828.688-.016-.438.031-.89.234-1.453.203-.547.563-1.235 1.484-1.235.829 0 1.36.75 1.454 1.266h.875c-.157-1.063-1.079-2.11-2.329-2.11-1.218 0-2 .72-2.406 1.907C.266-4.156.234-2.22.562-1.22.906-.109 1.641.828 3 .828c1.36 0 2.422-1.125 2.422-2.562 0-1.407-.906-2.547-2.25-2.61zM2.953.016c-.875 0-1.453-.75-1.453-1.75s.578-1.72 1.453-1.72c.89 0 1.485.72 1.485 1.72S3.844.016 2.952.016zm0 0"/></symbol><symbol overflow="visible" id="B"><path d="M8.219-1.078v-6.688H7.203v1H4.656v.844h2.547v.828H4.656v.844h2.547v3.172zm.187 2.344V.375H2.875v-1.906h-1v2.797zm-2.14-4.032v-.859c-.688.14-1.97.297-3.172.328l-1.188.016v-4.094H.891v4.969l2.203-.016c1.328-.015 2.594-.203 3.172-.344zm0 0"/></symbol><symbol overflow="visible" id="C"><path d="M2.719-7.188C1.329-7.188.297-6.063.297-4.64c0 1.391.906 2.563 2.265 2.657.766.03 1.36-.391 1.829-.86 0 .438 0 1.047-.22 1.64C3.954-.608 3.61-.015 2.75-.015c-.875 0-1.438-.734-1.5-1.28H.36C.468-.235 1.452.827 2.718.827c1.203 0 1.953-.703 2.375-1.89.39-1.11.406-3.157.062-4.172-.375-1.11-1.14-1.954-2.437-1.954zM2.75-2.89c-.875 0-1.469-.718-1.469-1.75 0-1.015.594-1.718 1.469-1.718.875 0 1.469.718 1.469 1.718 0 1.032-.594 1.75-1.469 1.75zm0 0"/></symbol><symbol overflow="visible" id="D"><path d="M4.297-3.438c.625-.421.969-1.078.969-1.656 0-1.14-1.11-2.11-2.422-2.11-1.36 0-2.438.97-2.438 2.11 0 .578.344 1.235.985 1.672C.609-2.937.156-2.219.156-1.484.156-.234 1.375.844 2.844.844 4.297.844 5.53-.234 5.53-1.484c0-.735-.453-1.454-1.234-1.954zM2.844-3.89c-1.016 0-1.453-.546-1.453-1.218 0-.688.437-1.25 1.453-1.25.937 0 1.453.562 1.453 1.25 0 .671-.516 1.218-1.453 1.218zm0 3.907c-1.078 0-1.703-.672-1.703-1.5 0-.844.625-1.47 1.703-1.47 1.047 0 1.719.626 1.719 1.47 0 .828-.672 1.5-1.72 1.5zm0 0"/></symbol><symbol overflow="visible" id="E"><path d="M5.234-6.89H.47v.859h3.75c-.39.531-1.203 1.937-1.797 3.234-.64 1.375-.89 2.719-.938 3.422h1.079c-.016-.86.39-2.375 1.03-3.75.61-1.36 1.266-2.39 1.641-2.844zm0 0"/></symbol><symbol overflow="visible" id="F"><path d="M5.172-5.844h-.734V.453h.734zM1.844.453h1l1.36-6.297h-.845L2.344-.484l-1-5.36h-.86zm4.468-6.297h-.734V.453h.734zm1.125 0H6.72V.453h.718zm0 0"/></symbol><symbol overflow="visible" id="G"><path d="M.75.047v1.016h1.031V.046zm0 0"/></symbol><symbol overflow="visible" id="I"><path d="M7.984-4.125v-.64h-1.14v-1.86h-.75v4.516h.75v-2.016zM.875-6.265v.64h2.89a3.218 3.218 0 0 1-.953 1.766C2.204-3.25 1.36-2.83.406-2.563c.203.157.422.407.531.563 1.094-.36 2.047-.938 2.704-1.734.562-.672.921-1.516 1-2.532zM6.859 1.28v-2.984H1.72V1.28zM6.125.656H2.469v-1.734h3.656zm0 0"/></symbol><symbol overflow="visible" id="J"><path d="M6-6.625v8h.766v-4.234h1.187v-.672H6.766v-3.094zM3.125-4.687v-1.594h-.797v1.468c0 .875-.187 1.672-.578 2.36C1.36-1.75.766-1.156.016-.688c.234.141.5.36.656.5.422-.28.86-.703 1.25-1.203.375-.468.672-.984.812-1.468.188.546.532 1.03.907 1.468.359.391.765.735 1.14 1 .157-.14.375-.375.594-.53-.75-.438-1.328-.985-1.734-1.641-.344-.594-.516-1.297-.516-2.126zm0 0"/></symbol><symbol overflow="visible" id="K"><path d="M7.203 1.36v-7.985h-.75v7.984zM1.031-4.376c0 1.094.875 2 2.125 2 1.235 0 2.125-.906 2.125-2 0-1.094-.89-1.984-2.125-1.984-1.25 0-2.125.89-2.125 1.984zm.735 0c0-.75.53-1.36 1.39-1.36.86 0 1.36.61 1.36 1.36 0 .75-.5 1.36-1.36 1.36-.86 0-1.39-.61-1.39-1.36zm4.406 3.016c-.64.109-2.531.25-3.219.265-.328.016-2.312.016-2.344.016v.656c.016 0 1.657.016 1.985 0a26.518 26.518 0 0 0 3.578-.297zm0 0"/></symbol><symbol overflow="visible" id="L"><path d="M7.766-3.188v-.624H6.562a13.29 13.29 0 0 0 .36-2.594H1.156v.625h5c-.031.593-.187 1.437-.328 1.968H.281v.626zm-.797 4.485v-.61h-4.86V-.25h4.672v-2.11H1.297v.626h4.672v.875H1.297v2.156zm0 0"/></symbol><symbol overflow="visible" id="M"><path d="M3.781-6.922h-.765l-2.829 8.5H.97zm0 0"/></symbol><symbol overflow="visible" id="N"><path d="M5.656-5.984v-.61H2.391v.61zM7.11-4.828v-.61H.938v.61zm-5.687 1.61C1.422-2.5 2.5-2 4-2c1.531 0 2.594-.5 2.594-1.219 0-.719-1.063-1.187-2.594-1.187-1.516 0-2.578.468-2.578 1.187zM4-2.579c-.906 0-1.703-.203-1.703-.625 0-.438.797-.64 1.703-.64.922 0 1.719.202 1.719.64 0 .422-.797.625-1.719.625zM7.766-.766v-.64H.28v.64h3.39V1.36h.782V-.766zm0 0"/></symbol><symbol overflow="visible" id="O"><path d="M7.219-.516v-6.109h-.735v4.64H4.563v.594h1.921v.875zM1.203-5.203c0 .781.719 1.453 1.984 1.453 1.235 0 1.954-.672 1.954-1.453 0-.766-.688-1.469-1.954-1.469-1.25 0-1.984.703-1.984 1.469zm.719 0c0-.422.39-.89 1.266-.89.859 0 1.25.468 1.25.89 0 .39-.391.875-1.25.875-.86 0-1.266-.484-1.266-.875zm4.25 1.797c-.438.078-2.063.219-3.094.219l-2.531.015v.625h1.86v1.328h.75v-1.343c.874 0 2.374-.11 3.015-.22zm1.219 4.61V.562H2.64V-.829h-.782v2.031zm0 0"/></symbol><symbol overflow="visible" id="P"><path d="M6.031-6.625v8h.75v-4.234h1.203v-.672H6.781v-3.094zM3.25-4.719v-.765h1.781v-.641H.734v.64H2.47v.641c0 .922-.219 1.719-.625 2.422-.39.703-.969 1.266-1.735 1.719.266.172.516.36.688.515.422-.28.875-.718 1.25-1.203.36-.468.672-.984.797-1.468.203.53.531 1.03.922 1.468.359.391.75.72 1.171.985.141-.156.375-.39.563-.531-.781-.454-1.344-1-1.734-1.657-.344-.61-.516-1.312-.516-2.125zm0 0"/></symbol><symbol overflow="visible" id="Q"><path d="M4.438-5.656v-.657h-.813v.657c0 .703-.344 1.36-.89 1.89-.563.547-1.329.97-2.157 1.22.235.218.438.421.578.593a5.89 5.89 0 0 0 1.703-.953c.516-.422.938-.922 1.172-1.469.219.531.672 1.063 1.203 1.484.547.438 1.157.766 1.672.938.14-.188.36-.39.547-.578a5.116 5.116 0 0 1-2.031-1.156c-.578-.547-.984-1.25-.984-1.97zM7.78.359v-.64H4.406v-2.016h-.765V-.28H.28v.64zm0 0"/></symbol><symbol overflow="visible" id="R"><path d="M7.203 1.375v-8h-.75v2.969h-1V-6.5H4.72V.984h.734v-3.921h1v4.312zM.781-6.063v.641h2.25c-.031.906-.25 1.734-.656 2.469-.469.828-1.14 1.547-2.094 2.156.203.11.547.313.703.453.938-.687 1.688-1.515 2.172-2.594.39-.859.61-1.89.64-3.124zm0 0"/></symbol><symbol overflow="visible" id="S"><path d="M1.672.344c-.012.02-.008.031.016.031.019.008.035.016.046.016h.172c.082 0 .13-.028.14-.079.02-.042.052-.105.095-.187l3.125-7.047c.02-.027.039-.066.062-.11a.385.385 0 0 0 .031-.124c0-.082-.054-.125-.156-.125C5.11-7.29 5.04-7.297 5-7.297H.5c-.074 0-.121.024-.14.063a.329.329 0 0 0-.032.156l.047.61c.008.011.016.042.016.093.007.055.03.078.062.078.02 0 .04-.004.063-.016l.046-.046c.114-.028.204-.051.266-.063.07-.008.164-.016.281-.016h3.235c.05 0 .097.012.14.032.051.023.079.066.079.125 0 .031-.02.082-.047.14a.712.712 0 0 0-.063.157zm0 0"/></symbol><symbol overflow="visible" id="T"><path d="M4.61-8.531a8.282 8.282 0 0 0-1.594.828A7.178 7.178 0 0 0 1.687-6.5a6.863 6.863 0 0 0-.953 1.453A3.928 3.928 0 0 0 .36-3.359c0 .75.223 1.507.672 2.265C1.477-.344 2.13.031 2.984.031c.715 0 1.286-.27 1.704-.812.425-.551.64-1.16.64-1.828a2.92 2.92 0 0 0-.516-1.641c-.343-.508-.847-.766-1.5-.766-.167 0-.34.036-.515.094-.18.055-.34.145-.485.266a.984.984 0 0 0-.187.156c-.063.074-.094.145-.094.203 0 .031.004.067.016.094.02.023.047.031.078.031.059 0 .148-.078.266-.234.12-.164.347-.25.671-.25.208 0 .395.058.563.172a1.5 1.5 0 0 1 .453.421c.152.243.274.508.36.797.09.293.14.586.14.875 0 .282-.043.555-.125.813-.086.262-.21.52-.375.766-.125.18-.273.324-.437.437a1.095 1.095 0 0 1-.594.156c-.7 0-1.195-.375-1.485-1.125-.292-.758-.437-1.406-.437-1.937 0-.614.11-1.192.328-1.735.215-.539.524-1.05.922-1.53.309-.384.703-.75 1.172-1.095.476-.34.953-.597 1.422-.765.039-.02.093-.04.156-.063.07-.027.11-.066.11-.11 0-.038-.012-.07-.032-.093a.122.122 0 0 0-.094-.047.728.728 0 0 0-.265.078c-.117.055-.196.09-.235.11zm0 0"/></symbol></defs><g fill="#33459a"><use xlink:href="#a" x="266.479" y="119.287"/><use xlink:href="#b" x="279.965" y="119.287"/><use xlink:href="#c" x="293.994" y="119.287"/><use xlink:href="#d" x="308.022" y="119.287"/><use xlink:href="#e" x="312.518" y="119.287"/><use xlink:href="#f" x="326.004" y="119.287"/></g><g fill="#231f20"><use xlink:href="#g" x="85.018" y="744.527"/><use xlink:href="#h" x="94.616" y="744.527"/><use xlink:href="#i" x="98.202" y="744.527"/><use xlink:href="#j" x="107.8" y="744.527"/><use xlink:href="#k" x="117.398" y="744.527"/><use xlink:href="#h" x="126.996" y="744.527"/><use xlink:href="#l" x="130.582" y="744.527"/><use xlink:href="#m" x="140.18" y="744.527"/><use xlink:href="#n" x="149.778" y="744.527"/><use xlink:href="#o" x="159.375" y="744.527"/><use xlink:href="#p" x="168.973" y="744.527"/><use xlink:href="#h" x="178.571" y="744.527"/><use xlink:href="#q" x="182.157" y="744.527"/><use xlink:href="#r" x="191.755" y="744.527"/><use xlink:href="#s" x="201.353" y="744.527"/><use xlink:href="#t" x="210.951" y="744.527"/><use xlink:href="#u" x="220.549" y="744.527"/><use xlink:href="#v" x="230.147" y="744.527"/><use xlink:href="#w" x="239.745" y="744.527"/></g><g fill="#fff"><use xlink:href="#x" x="86.862" y="630.138"/><use xlink:href="#y" x="92.419" y="630.138"/><use xlink:href="#z" x="97.976" y="630.138"/><use xlink:href="#A" x="103.534" y="630.138"/><use xlink:href="#B" x="109.091" y="630.138"/></g><g fill="#fff"><use xlink:href="#x" x="86.862" y="367.764"/><use xlink:href="#y" x="92.419" y="367.764"/><use xlink:href="#z" x="97.976" y="367.764"/><use xlink:href="#C" x="103.534" y="367.764"/><use xlink:href="#B" x="109.091" y="367.764"/></g><g fill="#fff"><use xlink:href="#x" x="86.862" y="468.22"/><use xlink:href="#y" x="92.419" y="468.22"/><use xlink:href="#z" x="97.976" y="468.22"/><use xlink:href="#D" x="103.534" y="468.22"/><use xlink:href="#B" x="109.091" y="468.22"/></g><g fill="#fff"><use xlink:href="#x" x="86.862" y="536.685"/><use xlink:href="#y" x="92.419" y="536.685"/><use xlink:href="#z" x="97.976" y="536.685"/><use xlink:href="#E" x="103.534" y="536.685"/><use xlink:href="#B" x="109.091" y="536.685"/></g><g fill="#231f20"><use xlink:href="#F" x="74.885" y="47.727"/><use xlink:href="#G" x="82.886" y="47.727"/><use xlink:href="#H" x="85.492" y="47.727"/><use xlink:href="#I" x="88.099" y="47.727"/><use xlink:href="#J" x="96.1" y="47.727"/><use xlink:href="#K" x="104.1" y="47.727"/><use xlink:href="#H" x="112.1" y="47.727"/><use xlink:href="#L" x="114.707" y="47.727"/><use xlink:href="#M" x="122.707" y="47.727"/><use xlink:href="#N" x="126.608" y="47.727"/><use xlink:href="#O" x="134.609" y="47.727"/><use xlink:href="#P" x="142.609" y="47.727"/><use xlink:href="#H" x="150.609" y="47.727"/><use xlink:href="#Q" x="153.216" y="47.727"/><use xlink:href="#R" x="161.216" y="47.727"/></g><g fill="#393536"><use xlink:href="#S" x="42.468" y="48.426"/><use xlink:href="#T" x="48.041" y="48.426"/></g><path d="M79.84 161.547h438.68" fill="none" stroke-width=".499395" stroke="#bdbcbc"/><g fill="#fff"><use xlink:href="#x" x="86.862" y="267.591"/><use xlink:href="#y" x="92.419" y="267.591"/><use xlink:href="#x" x="97.976" y="267.591"/><use xlink:href="#y" x="103.534" y="267.591"/><use xlink:href="#B" x="109.091" y="267.591"/></g><g fill="#fff"><use xlink:href="#x" x="86.862" y="172.23"/><use xlink:href="#y" x="92.419" y="172.23"/><use xlink:href="#x" x="97.976" y="172.23"/><use xlink:href="#z" x="103.534" y="172.23"/><use xlink:href="#B" x="109.091" y="172.23"/></g></svg>