<svg xmlns="http://www.w3.org/2000/svg" xmlns:xlink="http://www.w3.org/1999/xlink" width="793.701" height="1058.268" viewBox="0 0 595.276 793.701" version="1.2"><defs><symbol overflow="visible" id="a"><path d="M10.406 1.969V-9.578H9.375v4.234H8.031V-9.39H7V1.422h1.031v-5.719h1.344V1.97zM4.125-6.687V-7.86H6v-.907H1.14v.907h1.907v.984c0 1.375-.219 2.547-.672 3.547-.453 1-1.172 1.812-2.14 2.469.328.203.75.437.968.671.516-.39 1.031-.968 1.469-1.593.406-.594.734-1.25.89-1.875.172.625.5 1.203.876 1.703.406.547.89 1.016 1.343 1.328.203-.25.516-.516.766-.734a4.896 4.896 0 0 1-1.875-2.188c-.36-.875-.547-1.922-.547-3.14zm0 0"/></symbol><symbol overflow="visible" id="b"><path d="M8.516-9.578v8.484h1.062v-4.703h1.547v-.937H9.578v-2.844zM8.03-4.906c-.75.172-2.812.406-3.984.422l-1.844.03v-3.671h4.25v-.922H1.187V-3.5c.047 0 1.922 0 2.766-.031 1.485-.047 3.281-.266 4.078-.453zm1.89 6.64V.813H3.407v-2.907H2.344v3.828zm0 0"/></symbol><symbol overflow="visible" id="c"><path d="M9.969-3.344v-6.234H8.922v2.297H6.484v-1.907h-1v1.72H2.328v-1.72H1.297v5.313h5.187v-2.469h2.438v3zM5.484-4.78H2.328v-1.782h3.156zm4.485 6.64v-4.687H8.922v1.344H3.578v-1.344H2.516v4.687zM8.922.97H3.578V-.594h5.344zm0 0"/></symbol><symbol overflow="visible" id="d"><path d="M9.969-1.078v-8.5H8.922v8.5zM.859-6.375c0 1.656 1.22 3.031 2.97 3.031 1.733 0 2.968-1.375 2.968-3.031 0-1.688-1.234-3.047-2.969-3.047-1.75 0-2.969 1.36-2.969 3.047zm1.063 0c0-1.188.703-2.11 1.906-2.11 1.203 0 1.906.922 1.906 2.11 0 1.156-.703 2.078-1.906 2.078-1.203 0-1.906-.922-1.906-2.078zm8.375 8.11V.811H3.609v-2.875H2.531v3.797zm0 0"/></symbol><symbol overflow="visible" id="f"><path d="M9.875 1.969V-9.578H8.812V1.969zM6.578-.953v-7.89H1.36v7.89zm-1.031-.922H2.422v-6.031h3.125zm0 0"/></symbol><symbol overflow="visible" id="g"><path d="M10.094 1.969V-9.578H9.063v4.11H7.687v-3.923h-1.03V1.422h1.03v-5.844h1.375v6.39zM6.234-2c-.484.094-1.656.203-2.437.219l-1.485.031v-2.625H5.36v-4.516H1.281v.922h3.063v2.672H1.28v4.484l2.172-.03a21.41 21.41 0 0 0 2.781-.25zm0 0"/></symbol><symbol overflow="visible" id="h"><path d="M10.094 1.969V-9.578H9.063V1.969zM1.438-6.328c0 1.594 1.25 2.89 2.984 2.89 1.719 0 2.969-1.296 2.969-2.89 0-1.563-1.25-2.86-2.97-2.86-1.734 0-2.984 1.297-2.984 2.86zm1.046 0c0-1.078.735-1.953 1.938-1.953 1.203 0 1.906.875 1.906 1.953 0 1.094-.703 1.969-1.906 1.969-1.203 0-1.938-.875-1.938-1.97zm6.172 4.375c-.906.14-3.562.344-4.531.375-.453.016-3.234.016-3.281.016v.953c.031 0 2.328.015 2.781 0 2.078-.032 4.063-.282 5.031-.422zm0 0"/></symbol><symbol overflow="visible" id="i"><path d="M11.266-5.516v-.968H9.703v-3.094H8.641v7.406h1.062v-3.344zM5.812-8.734v-.875H2.376v.875zM7.407-7v-.875H.828V-7zM1.281-4.453c0 1.031 1.172 1.89 2.828 1.89 1.75 0 2.844-.843 2.844-1.89 0-1.063-1.062-1.906-2.828-1.906-1.688 0-2.844.843-2.844 1.906zm1.11-.016c0-.64.671-1.047 1.734-1.047 1.078 0 1.719.391 1.719 1.047 0 .657-.625 1.078-1.719 1.078-1.063 0-1.734-.406-1.734-1.078zm7.312 6.5v-3.64H2.188v.906h6.421V2.03zm0 0"/></symbol><symbol overflow="visible" id="j"><path d="M9.969-1.078v-8.5H8.922v1.344H6.203a2.878 2.878 0 0 0-2.39-1.235c-1.735 0-2.97 1.406-2.97 3.078s1.235 3.047 2.97 3.047c1.062 0 1.937-.515 2.453-1.297h2.656v3.563zM8.922-5.562H6.656c.094-.266.14-.547.14-.829 0-.312-.046-.64-.14-.906h2.266zm-7-.829c0-1.171.703-2.125 1.89-2.125 1.22 0 1.907.954 1.907 2.125 0 1.157-.688 2.11-1.907 2.11-1.187 0-1.89-.953-1.89-2.11zm8.36 8.125V.813H3.608v-2.875H2.531v3.796zm0 0"/></symbol><symbol overflow="visible" id="k"><path d="M10.906-3.11v-.937H9.094c.281-1.312.515-3.516.562-5.125H1.61v.922h6.922A25.348 25.348 0 0 1 8-4.047H.375v.938h4.64v5.078h1.048V-3.11zm0 0"/></symbol><symbol overflow="visible" id="l"><path d="M6.266-7.375v-.031h2.609v-1.375H1.906v1.375H4.5v.015c-.063.61-.438 1.172-.969 1.641-.687.578-1.594 1.016-2.469 1.266.391.328.891.828 1.188 1.187.672-.265 1.328-.61 1.875-1.047.547-.406 1-.875 1.266-1.375.328.516.796.953 1.328 1.328a7.083 7.083 0 0 0 1.672.813c.218-.313.625-.797.968-1.172a5.38 5.38 0 0 1-1.968-.969c-.579-.453-1.047-1.031-1.125-1.656zm3.687 5.297c-1.031.14-3.187.281-3.781.281v-2.016h-1.61v2.047H.938v1.454h3c1.954 0 4.922-.172 6.016-.36zm2.063 4.406v-13.594h-1.579V2.328zM7.328-9.719v-1.344h-4v1.344zm0 0"/></symbol><symbol overflow="visible" id="m"><path d="M11.828-1.281v-9.985H10.25v9.985zm-6.36-7.844v-1.844H3.782v1.89c0 1.017-.36 1.907-.937 2.657-.64.86-1.578 1.547-2.563 2.031.438.344 1.016.829 1.281 1.11A8.03 8.03 0 0 0 3.36-4.625c.563-.563 1.063-1.203 1.266-1.828.344.64.875 1.234 1.453 1.719a9.06 9.06 0 0 0 1.64 1.093c.25-.328.704-.843 1.032-1.25a5.363 5.363 0 0 1-2.281-1.625c-.61-.734-1-1.625-1-2.609zm6.673 11.188V.64H4.53v-2.938H2.906v4.36zm0 0"/></symbol><symbol overflow="visible" id="n"><path d="M12.781-3.5v-1.438H7.437v-1.53h3.954v-1.407H3.625v-1.656h7.625v-1.39H2.016v4.452h3.78v1.532H.47V-3.5zM6.61 2.594c3.204 0 4.922-1.156 4.922-2.656 0-1.5-1.719-2.61-4.922-2.61-3.171 0-4.906 1.11-4.906 2.61 0 1.5 1.734 2.656 4.906 2.656zM3.547-.078c0-.86 1.156-1.344 3.062-1.344 1.891 0 3.079.516 3.079 1.375 0 .828-1.188 1.313-3.079 1.313-1.906 0-3.062-.5-3.062-1.344zm0 0"/></symbol><symbol overflow="visible" id="o"><path d="M13-4.875v-1.406h-1.703v-1.563H13v-1.39h-1.703v-2.032H9.719v8.61h1.578v-2.219zm-6.313-5.203v-1.25H2.579v1.25zm1.844 2.062v-1.25H.766v1.25zm-7.36 2.61c0 1.156 1.485 2.125 3.485 2.125 2.14 0 3.485-.938 3.485-2.14 0-1.188-1.344-2.048-3.47-2.048-2.03 0-3.5.89-3.5 2.063zm5.298-.016c0 .64-.672.984-1.797.984s-1.828-.328-1.828-.968c0-.625.703-.969 1.828-.969s1.797.328 1.797.953zM11.579 0c0-1.578-1.938-2.547-4.688-2.547-2.61 0-4.72.89-4.72 2.5 0 1.61 2.032 2.625 4.704 2.625 2.656 0 4.703-.922 4.703-2.578zM3.936-.031c0-.938 1.47-1.266 2.938-1.266 1.625 0 2.89.406 2.89 1.266 0 .906-1.374 1.328-2.874 1.328S3.937.875 3.937-.031zm0 0"/></symbol><symbol overflow="visible" id="p"><path d="M12.797.828V-.609h-5.36v-2.766h3.766v-7.484H9.61v2.218H3.625v-2.218H2.031v7.484h3.75v2.766H.453V.828zm-3.188-5.64H3.625v-2.422h5.984zm0 0"/></symbol><symbol overflow="visible" id="q"><path d="M1.766-10.516v1.422h7.843c-.078 2.125-.359 4.531-.75 6.672h1.579c.437-2.344.78-5.75.89-8.094zM12.796.828V-.609H6.314v-5.063h-1.61v5.063H.453V.828zm0 0"/></symbol><symbol overflow="visible" id="r"><path d="M11.828 2.328v-13.594h-1.594v3.954h-2.78v1.515h2.78v8.125zM5.438-7.719v-3H3.766v2.906c0 1.36-.282 2.579-.829 3.625C2.313-3 1.375-2.03.142-1.265c.484.329 1.046.782 1.343 1.079.579-.391 1.282-1.047 1.875-1.782.563-.703 1.063-1.484 1.266-2.187A7.706 7.706 0 0 0 6.047-2 9.645 9.645 0 0 0 7.719-.484a10.94 10.94 0 0 1 1.203-1.11c-1.125-.703-2.047-1.578-2.656-2.703-.516-.937-.829-2.062-.829-3.422zm0 0"/></symbol><symbol overflow="visible" id="t"><path d="M4.531-.922l-2.687-9.453H.172L3.734 1.141h1.579L8.89-10.375H7.219zm0 0"/></symbol><symbol overflow="visible" id="u"><path d="M4.016-6.25C5.25-6.25 5.937-4.969 5.937-3S5.25.25 4.016.25C2.796.25 2.125-1.031 2.125-3s.672-3.25 1.89-3.25zm0-1.266C1.734-7.516.578-5.703.578-3c0 2.719 1.156 4.484 3.438 4.484 2.296 0 3.5-1.765 3.5-4.484 0-2.703-1.204-4.516-3.5-4.516zm0 0"/></symbol><symbol overflow="visible" id="v"><path d="M.922-10.375V1.141h1.5v-11.516zm0 0"/></symbol><symbol overflow="visible" id="w"><path d="M1.063-.078v2.047h2.03V-.078zm0 0"/></symbol><symbol overflow="visible" id="x"><path d="M.938-7.14h1.937v8.343h1.547v-11.75H3.156C2.984-8.984 2.484-8.359.937-8.28zm0 0"/></symbol><symbol overflow="visible" id="y"><path d="M3.297-10.594C1.312-10.594.328-8.297.328-4.5c0 3.766.984 6.031 2.969 6.031 1.969 0 3-2.265 3-6.031 0-3.797-1.031-6.094-3-6.094zm0 1.36c.875 0 1.469 1.828 1.469 4.734 0 2.875-.594 4.688-1.47 4.688-.874 0-1.452-1.813-1.452-4.688 0-2.906.578-4.734 1.453-4.734zm0 0"/></symbol><symbol overflow="visible" id="z"><path d="M2.719-11.11l2.437 9.532L7.61-11.11h1.563L5.875.42H4.344l-3.266-11.53zm8.719 0V.423H9.905V-11.11zm0 0"/></symbol><symbol overflow="visible" id="A"><path d="M1.39-.766h1.766v1.844H1.391zm0 0"/></symbol><symbol overflow="visible" id="C"><path d="M12.938 2.234h-1.5v-8.109H9.812v7.39h-1.5v-13.718h1.5v4.953h1.626v-5.25h1.5zM4.124-4.937a2.16 2.16 0 0 1-.266.5c-.117.18-.254.363-.406.546-.312.387-.664.793-1.047 1.22-.375.429-.773.862-1.187 1.296L.187-2.453c.465-.457.899-.899 1.297-1.328.403-.434.774-.88 1.11-1.328.3-.414.504-.829.61-1.235a5.29 5.29 0 0 0 .155-1.297V-9.75H.922v-1.328H7.14v1.328H4.844v2.11c0 .46.054.886.172 1.28.12.4.343.805.656 1.22.332.437.672.855 1.016 1.25.351.386.765.808 1.234 1.265L6.875-1.562c-.406-.426-.785-.82-1.125-1.188a19.914 19.914 0 0 1-.953-1.14 4.811 4.811 0 0 1-.406-.547 2.058 2.058 0 0 1-.25-.5zm0 0"/></symbol><symbol overflow="visible" id="D"><path d="M9.11-4.875a37.658 37.658 0 0 1-3.125.281c-.575.024-1.243.04-2 .047-.762.012-1.708.016-2.829.016v-7.016h6.625v1.36h-5.11v4.312c.79 0 1.462-.004 2.017-.016a92.168 92.168 0 0 0 2.828-.14c.425-.04.906-.094 1.437-.157zm4.703-2.406H11.78v5.297h-1.515V-12.5h1.515v3.844h2.031zM4.592.703h7.579v1.375H3.047v-4.89h1.547zm0 0"/></symbol><symbol overflow="visible" id="E"><path d="M5.328-4.406c-.586 0-1.113-.086-1.578-.266a4.018 4.018 0 0 1-1.203-.719 3.209 3.209 0 0 1-.75-1.03 2.799 2.799 0 0 1-.266-1.204v-.734c0-.414.086-.817.266-1.204.176-.382.426-.722.75-1.015.332-.3.734-.54 1.203-.719a4.271 4.271 0 0 1 1.578-.281c.59 0 1.117.098 1.578.281.465.18.867.418 1.203.719a2.9 2.9 0 0 1 .75 1.015c.176.387.266.79.266 1.204v.734c0 .418-.09.82-.266 1.203-.168.387-.418.73-.75 1.031a4.118 4.118 0 0 1-1.203.72c-.46.179-.988.265-1.578.265zm0-1.375c.32 0 .625-.051.906-.157.29-.113.54-.257.75-.437.207-.176.368-.379.485-.61.12-.238.187-.484.187-.734v-.547c0-.257-.066-.507-.187-.75a1.792 1.792 0 0 0-.485-.609 2.495 2.495 0 0 0-.75-.422 2.66 2.66 0 0 0-.906-.156 2.628 2.628 0 0 0-1.656.578c-.211.168-.379.371-.5.61a1.698 1.698 0 0 0-.172.75v.546c0 .25.055.496.172.735.121.23.289.433.5.609.215.18.469.324.75.438.277.105.582.156.906.156zM10.25-1.22a97.43 97.43 0 0 1-2.016.172c-.68.055-1.398.098-2.156.125-.762.031-1.574.059-2.437.078-.856.012-1.79.016-2.797.016v-1.375c1.02 0 1.953-.004 2.797-.016.851-.008 1.648-.023 2.39-.047a73.347 73.347 0 0 0 2.11-.109c.664-.05 1.32-.11 1.968-.172zm.734 3.453V-12.5h1.532V2.234zm0 0"/></symbol><symbol overflow="visible" id="F"><path d="M3.734-6.188v.72H2.25v-.72zm0 1.75v.782H2.25v-.781zm2.797-1.75v.72H5.063v-.72zm0 1.75v.782H5.063v-.781zM8.047.704V-.03c-.063 0-2.89.328-2.985.328v-.984h2.766v-1.079H5.062v-.89h2.766v-4.531h-2.75v-.844h3.125v-1.094H5.078v-.89c1.406-.157 2.422-.438 2.469-.454l-.5-1.047c-2.39.72-6.078.5-6.094.5l.516 1.11c.031 0 1.25.062 2.265.015v.766H.547v1.094h3.187v.844H1.016v4.53H3.75v.891H1.031v1.079H3.75V.421L.547.672l.297 1.234 6.984-.875a6.446 6.446 0 0 1-.39.485l1.25.75c.062-.094 1.484-1.875 2.124-4.688.547-2.344.563-5.36.563-5.515h1.438c0 .015.109 2.39-.032 4.406-.094 1.5-.187 3.781-.656 4.11-.297.187-1.328 0-1.375-.016l.484 1.406c.047 0 1.297.25 2.032-.532.656-.687.75-3.515.843-5.515.11-2.578.063-4.953.063-5.078h-2.828l.187-2.797-1.61-.14.11 2.937H8.625v1.219h1.406c.016.093.172 2.078-.437 4.89-.36 1.719-1.031 3-1.547 3.75zm0 0"/></symbol><symbol overflow="visible" id="G"><path d="M4.234-3.516h1.157v1.797H4.234zM.672-4.64v6.875H1.89V-.609h3.5v.75c0 .515.015.687-.25.812-.204.11-1 .031-1.047.031l.484 1.235c.406.015.969.078 1.594-.297.594-.39.5-.969.5-1.703v-4.86zM1.89-3.516h1.062v1.797H1.891zm9.14-.343h1.172v1.406h-1.172zM8.062-7.547v1.172h1.766v1.36H7.141v1.156h2.687v1.406H7.922v1.187h1.906V.016c0 .343-.031.734-.187.812C9.375.953 8.5.86 8.484.844c.032.062.485 1.265.5 1.375.047.015 1.079.031 1.454-.219.64-.453.593-1.469.593-1.781v-1.485h2.36v-2.593h1.296v-1.157h-1.296v-2.53zm2.97 1.172h1.171v1.36h-1.172zm-4.47-2.203v-.016H4.235v-.86H6.86v-1.077H4.22v-.64c0-.485.11-.72.11-.735L2.812-12c0 .047.093.61.093.89v.579h-2.5v1.078h2.516v.86H.812v1.062h2.11v.953H.125v1.125h7.016v-1.125H4.234v-.953h2.329v-.422l.734.594c.078-.063.703-.688 1.516-2.688.093 0 .609.016.703.016.468.984.656 2.047.687 2.14l1.219-.421c-.172-.626-.485-1.282-.719-1.829 1.89-.125 2.703-.5 2.75-.515l-.672-1.188c-.797.297-1.39.485-2.547.61-1.218.125-2.187.015-2.234.015-.39 1.328-1.047 2.203-1.438 2.64zm5.532-1.172c.031.063.687 1.375 1.969 2.063l.796-1.125c-.28-.079-1.265-.532-1.953-1.547zm0 0"/></symbol><symbol overflow="visible" id="H"><path d="M8.063-3.578l.218 1.047h-.469v-1.047zm3.671-.016v1.063h-.484l.266-1.063zm-1.03 0L10.5-2.53h-.25v-1.063zm-1.423.016v1.062h-.25l-.187-1.062zm3.672 3.453c-.031 0-1.515-.89-2.515-1.469h2.203v-2.89h-2.344v-.61h2.515v-.89h-2.515v-.641h3.078V.094c0 .312.063.828-.328.844-.328 0-.672-.047-.688-.047zm.422-8.39v.906h-1.969v-.907zM8.891-1.595C7.75-.109 6.406.25 6.328.266v-6.891H9.25v.64H6.734v.891H9.25v.61H6.937v2.89zm-.704-6.922v.907H6.329v-.907zm0-1.75v.86H6.329v-.86zm5.188 0v.86h-1.969v-.86zM5.109-3.594V2.22h1.235V.453L7 1.297c.047-.016.984-.39 2.25-1.781v2.546h1.047V-.53L12.203.875l.219 1.297c.031 0 .515.062 1.078-.016.875-.11 1.047-.906 1.047-1.469v-11.874h-4.328v4.093h-.86v-4.093H5.11v6.656c-.671-.657-1.03-1.516-1.546-2.657v-.968h1.28V-9.36H3.548l.125-2.563-1.516-.172.094 2.735H.766v1.203H2.14C2-5.844.859-3.61-.125-2.531l.953.937C1.844-3 2.141-3.969 2.297-4.297V2.22h1.25v-7.14c.25.515.5 1.202 1.203 1.905zm0 0"/></symbol></defs><g fill="#33459a"><use xlink:href="#a" x="377.966" y="195.92"/><use xlink:href="#b" x="389.049" y="195.92"/><use xlink:href="#c" x="400.132" y="195.92"/><use xlink:href="#d" x="411.215" y="195.92"/><use xlink:href="#e" x="422.299" y="195.92"/><use xlink:href="#f" x="425.825" y="195.92"/><use xlink:href="#g" x="436.909" y="195.92"/><use xlink:href="#h" x="447.992" y="195.92"/><use xlink:href="#i" x="459.075" y="195.92"/><use xlink:href="#j" x="470.159" y="195.92"/><use xlink:href="#k" x="481.242" y="195.92"/><use xlink:href="#a" x="492.325" y="195.92"/><use xlink:href="#b" x="503.409" y="195.92"/><use xlink:href="#e" x="514.492" y="195.92"/></g><g fill="#495756"><use xlink:href="#l" x="377.966" y="218.358"/><use xlink:href="#m" x="390.962" y="218.358"/><use xlink:href="#n" x="403.959" y="218.358"/><use xlink:href="#o" x="416.956" y="218.358"/><use xlink:href="#p" x="429.953" y="218.358"/><use xlink:href="#q" x="442.949" y="218.358"/><use xlink:href="#r" x="455.946" y="218.358"/><use xlink:href="#s" x="468.943" y="218.358"/><use xlink:href="#t" x="473.078" y="218.358"/><use xlink:href="#u" x="481.821" y="218.358"/><use xlink:href="#v" x="489.56" y="218.358"/><use xlink:href="#w" x="492.588" y="218.358"/><use xlink:href="#s" x="496.723" y="218.358"/><use xlink:href="#x" x="500.859" y="218.358"/><use xlink:href="#y" x="507.209" y="218.358"/></g><g fill="#33459a"><use xlink:href="#z" x="391.743" y="372.96"/><use xlink:href="#A" x="405.694" y="372.96"/><use xlink:href="#B" x="410.096" y="372.96"/><use xlink:href="#C" x="413.817" y="372.96"/><use xlink:href="#D" x="427.768" y="372.96"/><use xlink:href="#E" x="441.719" y="372.96"/><use xlink:href="#B" x="455.67" y="372.96"/></g><g fill="#33459a"><use xlink:href="#F" x="459.389" y="372.68"/><use xlink:href="#G" x="475.665" y="372.68"/><use xlink:href="#H" x="491.941" y="372.68"/></g></svg>