<svg xmlns="http://www.w3.org/2000/svg" xmlns:xlink="http://www.w3.org/1999/xlink" width="793.701" height="1058.268" viewBox="0 0 595.276 793.701" version="1.2"><defs><symbol overflow="visible" id="a"><path d="M2.875.031c.434 0 .82-.144 1.156-.437.332-.301.594-.64.782-1.016.183-.34.316-.71.39-1.11.082-.402.125-.804.125-1.202 0-.403-.05-.813-.14-1.22a4.843 4.843 0 0 0-.407-1.155A3.031 3.031 0 0 0 4-7.063a1.747 1.747 0 0 0-1.14-.421c-.844 0-1.473.457-1.876 1.359-.406.906-.609 1.707-.609 2.39 0 .712.203 1.52.61 2.422C1.386-.413 2.02.032 2.874.032zm0-.281c-.75 0-1.227-.441-1.422-1.328-.2-.895-.297-1.613-.297-2.156 0-.54.098-1.254.297-2.141.195-.895.672-1.344 1.422-1.344.363 0 .648.137.86.407.206.273.363.566.468.875.113.343.195.71.25 1.093.059.387.094.758.094 1.11 0 .324-.035.675-.094 1.046a9.33 9.33 0 0 1-.203 1.016c-.094.336-.254.66-.469.969-.21.305-.511.453-.906.453zm0 0"/></symbol><symbol overflow="visible" id="b"><path d="M1.875-1.047h-.203c-.117 0-.172-.02-.172-.062 0-.04.031-.102.094-.188.058-.09.11-.156.14-.187L3.656-3.36c.34-.301.66-.633.953-1 .29-.371.438-.805.438-1.297 0-.559-.227-1-.672-1.313a2.416 2.416 0 0 0-1.453-.484c-.375 0-.723.066-1.031.187-.313.125-.598.34-.844.641a6.377 6.377 0 0 1-.219.328c-.117.168-.172.293-.172.375 0 .031.008.059.031.078.02.024.047.032.079.032.05 0 .093-.024.125-.079.039-.05.07-.093.093-.125.153-.3.375-.55.657-.75.277-.207.597-.312.953-.312.445 0 .812.144 1.094.422.277.281.421.644.421 1.078 0 .555-.23 1.121-.687 1.703-.45.574-.852 1.059-1.203 1.453L.703-.594a.789.789 0 0 1-.094.156.3.3 0 0 0-.062.157c0 .074.047.11.14.11.09-.009.165-.016.22-.016h3.968a.406.406 0 0 0 .188-.032c.039-.027.062-.082.062-.156v-1.328-.156c0-.059-.043-.094-.125-.094-.063 0-.102.035-.11.094-.011.054-.023.105-.03.156-.032.293-.114.476-.235.547-.125.074-.336.11-.625.11zm0 0"/></symbol><symbol overflow="visible" id="c"><path d="M2.5-4.39l.86-.47c.245-.132.503-.304.765-.515a.964.964 0 0 0 .406-.797c0-.445-.183-.773-.547-.984a2.113 2.113 0 0 0-1.125-.297c-.304.012-.59.066-.859.156-.273.086-.52.238-.734.453a1.957 1.957 0 0 0-.204.266c-.085.117-.125.215-.125.297 0 .031.008.066.032.093.02.032.047.047.078.047.039 0 .078-.023.11-.078.027-.05.054-.093.077-.125.133-.215.32-.398.563-.547a1.4 1.4 0 0 1 .766-.234c.269 0 .519.082.75.234.226.157.343.387.343.688 0 .48-.293.902-.875 1.266-.574.367-1.039.667-1.39.906l-.375.25-.11.078c-.043.023-.062.066-.062.125 0 .031.008.058.031.078a.143.143 0 0 0 .094.031c.039 0 .086-.008.14-.031a.53.53 0 0 0 .125-.063c.184-.113.391-.203.61-.265.226-.07.457-.11.687-.11.559 0 1.008.196 1.344.579.332.375.5.836.5 1.375 0 .367-.086.714-.25 1.046a2.37 2.37 0 0 1-.656.844 3.086 3.086 0 0 1-.688.422c-.281.145-.55.219-.797.219a.489.489 0 0 1-.328-.11 1.133 1.133 0 0 1-.203-.28 1.328 1.328 0 0 0-.219-.298.44.44 0 0 0-.328-.14c-.136 0-.242.043-.312.125a.456.456 0 0 0-.11.312c0 .278.133.473.407.578.277.102.53.157.75.157.445 0 .894-.118 1.343-.344.446-.23.832-.492 1.157-.781.308-.278.562-.614.75-1 .195-.383.296-.786.296-1.204 0-.59-.207-1.078-.609-1.453-.398-.37-.894-.562-1.484-.562zm0 0"/></symbol><symbol overflow="visible" id="d"><path d="M7.422 1.36v-7.985h-.734v2.938h-.954V-6.5H5V.984h.734v-3.953h.954V1.36zM2.938-4.626v-.813H4.28v-.625H.813v.625h1.359v.688c0 .953-.156 1.766-.469 2.453A4.316 4.316 0 0 1 .172-.594c.234.14.531.313.687.453.36-.265.735-.656 1.047-1.093.297-.407.532-.875.64-1.297.126.422.345.828.61 1.187.297.375.64.703.969.907.14-.172.36-.36.547-.5a3.485 3.485 0 0 1-1.344-1.516c-.25-.594-.39-1.328-.39-2.172zm0 0"/></symbol><symbol overflow="visible" id="e"><path d="M6.078-6.625V-.75h.75v-3.266h1.11v-.64h-1.11v-1.969zm-.344 3.234c-.546.11-2.015.282-2.843.297l-1.313.016v-2.547H4.61v-.64H.844v3.843c.031 0 1.375 0 1.984-.015 1.047-.032 2.328-.188 2.906-.329zm1.344 4.594v-.64H2.422v-2.016h-.75v2.656zm0 0"/></symbol><symbol overflow="visible" id="f"><path d="M7.11-2.313v-4.312h-.75v1.578H4.624v-1.312h-.719v1.187h-2.25v-1.187H.922v3.687h3.703V-4.39h1.734v2.079zm-3.204-1h-2.25V-4.53h2.25zM7.11 1.282v-3.234h-.75v.922H2.547v-.922h-.75V1.28zm-.75-.61H2.547V-.405h3.812zm0 0"/></symbol><symbol overflow="visible" id="g"><path d="M7.11-.75v-5.875h-.75V-.75zM.61-4.406c0 1.14.874 2.093 2.124 2.093 1.235 0 2.11-.953 2.11-2.093 0-1.172-.875-2.11-2.11-2.11-1.25 0-2.125.938-2.125 2.11zm.765 0c0-.828.5-1.469 1.36-1.469.859 0 1.359.64 1.359 1.469 0 .797-.5 1.437-1.36 1.437-.859 0-1.359-.64-1.359-1.437zm5.969 5.61V.562H2.562v-1.985h-.75v2.625zm0 0"/></symbol><symbol overflow="visible" id="i"><path d="M7.047 1.36v-7.985H6.28v7.984zM4.687-.657v-5.469H.97v5.469zm-.734-.64H1.72V-5.47h2.234zm0 0"/></symbol><symbol overflow="visible" id="j"><path d="M7.203 1.36v-7.985H6.47v2.844h-.985V-6.5H4.75V.984h.734v-4.046h.985v4.421zm-2.75-2.75c-.344.062-1.187.156-1.734.156l-1.063.015V-3.03h2.157v-3.125H.921v.64h2.172v1.844H.922v3.11l1.547-.016A19.11 19.11 0 0 0 4.453-.75zm0 0"/></symbol><symbol overflow="visible" id="k"><path d="M7.203 1.36v-7.985h-.75v7.984zM1.031-4.376c0 1.094.875 2 2.125 2 1.235 0 2.125-.906 2.125-2 0-1.094-.89-1.984-2.125-1.984-1.25 0-2.125.89-2.125 1.984zm.735 0c0-.75.53-1.36 1.39-1.36.86 0 1.36.61 1.36 1.36 0 .75-.5 1.36-1.36 1.36-.86 0-1.39-.61-1.39-1.36zm4.406 3.016c-.64.109-2.531.25-3.219.265-.328.016-2.312.016-2.344.016v.656c.016 0 1.657.016 1.985 0a26.518 26.518 0 0 0 3.578-.297zm0 0"/></symbol><symbol overflow="visible" id="l"><path d="M8.047-3.813v-.671H6.922v-2.141h-.766V-1.5h.766v-2.313zM4.14-6.046v-.594H1.687v.594zm1.14 1.203v-.593H.594v.593zM.921-3.078c0 .719.829 1.312 2 1.312 1.25 0 2.032-.593 2.032-1.312 0-.735-.75-1.328-2.016-1.328-1.203 0-2.015.593-2.015 1.328zm.782-.016c0-.453.484-.719 1.234-.719.766 0 1.235.266 1.235.72 0 .452-.453.75-1.234.75-.75 0-1.235-.282-1.235-.75zm5.219 4.5v-2.515h-5.36v.625h4.579v1.89zm0 0"/></symbol><symbol overflow="visible" id="m"><path d="M7.11-.75v-5.875h-.75v.922H4.421c-.36-.5-.969-.844-1.703-.844-1.235 0-2.11.969-2.11 2.125 0 1.156.875 2.11 2.11 2.11.765 0 1.39-.36 1.75-.891h1.89V-.75zm-.75-3.11H4.75a1.7 1.7 0 0 0 .094-.562c0-.219-.032-.437-.094-.625h1.61zm-4.985-.562c0-.812.5-1.469 1.344-1.469.875 0 1.36.657 1.36 1.47 0 .796-.485 1.452-1.36 1.452-.844 0-1.344-.656-1.344-1.453zm5.953 5.625v-.64H2.562v-1.985h-.75v2.625zm0 0"/></symbol><symbol overflow="visible" id="n"><path d="M7.781-2.156v-.64H6.484c.204-.907.375-2.438.407-3.548H1.156v.64h4.938a16.656 16.656 0 0 1-.39 2.907H.265v.64h3.312V1.36h.75v-3.515zm0 0"/></symbol><symbol overflow="visible" id="p"><path d="M3.813-4.36v-.015h1.593v-.813h-4.25v.813h1.578v.016c-.046.359-.265.687-.593.968-.407.344-.97.594-1.5.735.234.203.546.5.718.703.422-.156.813-.36 1.141-.61.344-.234.625-.515.781-.812.203.297.485.563.813.781.343.219.703.39 1.015.485.125-.188.375-.47.594-.688a3.35 3.35 0 0 1-1.219-.578c-.343-.266-.625-.61-.671-.984zm2.25 3.126c-.641.093-1.954.171-2.313.171V-2.25h-.969v1.203H.562v.86h1.844c1.172 0 2.985-.094 3.656-.204zm1.25 2.609v-8.016h-.954v8.016zm-2.86-7.11v-.796H2.016v.797zm0 0"/></symbol><symbol overflow="visible" id="q"><path d="M7.203-.75v-5.89h-.969v5.89zM3.328-5.39v-1.094H2.297v1.125c0 .593-.219 1.125-.563 1.562-.39.516-.968.922-1.562 1.203.266.203.625.485.781.656a5.38 5.38 0 0 0 1.094-.796c.344-.329.64-.704.765-1.079.204.376.532.735.891 1.016.328.266.688.5 1 .656.14-.203.422-.515.625-.75a3.228 3.228 0 0 1-1.39-.953c-.376-.437-.61-.969-.61-1.547zm4.063 6.609V.375H2.766v-1.734h-1v2.578zm0 0"/></symbol><symbol overflow="visible" id="r"><path d="M7.781-2.063v-.843h-3.25v-.906h2.39v-.829H2.204v-.984h4.64v-.828H1.235v2.64h2.297v.907H.281v.844zm-3.75 3.594c1.938 0 2.985-.687 2.985-1.562 0-.89-1.047-1.547-2.985-1.547-1.937 0-3 .656-3 1.547 0 .875 1.063 1.562 3 1.562zM2.156-.047c0-.515.703-.781 1.875-.781 1.14 0 1.86.297 1.86.797 0 .484-.72.781-1.86.781C2.86.75 2.156.453 2.156-.047zm0 0"/></symbol><symbol overflow="visible" id="s"><path d="M7.906-2.875v-.828H6.875v-.922h1.031v-.828H6.875v-1.188h-.969v5.063h.969v-1.297zM4.063-5.953v-.734H1.578v.734zm1.125 1.219v-.735H.468v.735zM.702-3.188c0 .688.906 1.25 2.125 1.25 1.297 0 2.125-.546 2.125-1.265 0-.703-.828-1.203-2.11-1.203-1.234 0-2.14.531-2.14 1.218zm3.235-.015c0 .375-.407.578-1.094.578-.688 0-1.11-.188-1.11-.563 0-.374.422-.578 1.11-.578.687 0 1.094.204 1.094.563zM7.046 0c0-.938-1.188-1.5-2.844-1.5-1.594 0-2.875.516-2.875 1.469 0 .953 1.234 1.547 2.86 1.547C5.796 1.516 7.046.984 7.046 0zm-4.64-.016c0-.562.874-.75 1.78-.75.985 0 1.75.235 1.75.75 0 .532-.828.782-1.734.782-.922 0-1.797-.25-1.797-.782zm0 0"/></symbol><symbol overflow="visible" id="t"><path d="M7.797.484v-.843H4.53V-2h2.282v-4.422h-.97v1.313h-3.64v-1.313h-.969V-2h2.282v1.64H.28v.844zM5.844-2.844h-3.64v-1.422h3.64zm0 0"/></symbol><symbol overflow="visible" id="u"><path d="M1.078-6.203v.828h4.766a28.365 28.365 0 0 1-.453 3.953h.968c.25-1.39.47-3.406.532-4.781zM7.797.484v-.843H3.844v-2.985h-.985v2.985H.281v.843zm0 0"/></symbol><symbol overflow="visible" id="v"><path d="M7.203 1.375v-8.016H6.22v2.313H4.53v.906H6.22v4.797zm-3.89-5.938v-1.765H2.296v1.719c0 .796-.172 1.515-.516 2.14C1.406-1.766.828-1.188.094-.75c.281.188.625.469.812.64a6.26 6.26 0 0 0 1.14-1.046c.345-.422.642-.89.767-1.297.203.453.5.906.859 1.281.344.36.719.672 1.031.89.172-.187.438-.437.719-.655-.672-.422-1.234-.938-1.61-1.594-.312-.563-.5-1.219-.5-2.031zm0 0"/></symbol><symbol overflow="visible" id="x"><path d="M2.766-.547L1.125-6.125H.109L2.266.672h.968l2.172-6.797H4.391zm0 0"/></symbol><symbol overflow="visible" id="y"><path d="M2.438-3.688c.765 0 1.171.766 1.171 1.922C3.61-.609 3.203.141 2.438.141c-.735 0-1.141-.75-1.141-1.907 0-1.156.406-1.921 1.14-1.921zm0-.75C1.046-4.438.344-3.375.344-1.765c0 1.61.703 2.641 2.094 2.641 1.406 0 2.14-1.031 2.14-2.64 0-1.61-.734-2.673-2.14-2.673zm0 0"/></symbol><symbol overflow="visible" id="z"><path d="M.563-6.125V.672h.906v-6.797zm0 0"/></symbol><symbol overflow="visible" id="A"><path d="M.64-.047v1.203h1.25V-.047zm0 0"/></symbol><symbol overflow="visible" id="B"><path d="M.563-4.219H1.75V.703h.938v-6.922h-.766c-.11.922-.406 1.282-1.36 1.328zm0 0"/></symbol><symbol overflow="visible" id="C"><path d="M2-6.25C.797-6.25.203-4.89.203-2.656.203-.437.797.906 2 .906c1.203 0 1.828-1.344 1.828-3.562C3.828-4.891 3.203-6.25 2-6.25zm0 .797c.547 0 .906 1.078.906 2.797C2.906-.97 2.546.109 2 .109c-.531 0-.875-1.078-.875-2.765 0-1.719.344-2.797.875-2.797zm0 0"/></symbol><symbol overflow="visible" id="D"><path d="M1.516-6.063l5.578 3.375L1.516.688zm0 0"/></symbol><symbol overflow="visible" id="E"><path d="M7.39-.156c0 .656-.468 1.218-1.14 1.218-.672 0-1.14-.562-1.14-1.218 0-.672.484-1.235 1.14-1.235.672 0 1.14.563 1.14 1.235zm-1.14 1.86c1.219 0 2.172-.766 2.172-1.86 0-1.5-1.64-1.688-1.64-1.719 0-.172.171-.156.03-.36-.156-.218-1.171-.296-1.171.016 0 .11.28.14.109.344 0 .016-1.688.234-1.688 1.719 0 1.093.97 1.86 2.188 1.86zm1.266-6.485l.03 1.656c.016.797.079 1.328.345 1.328.28-.016.609-.656.609-1.781l-.031-3.578c0-.532.25-.844-.156-1-.282-.11-1.11-.235-1.266-.25-.688-.047-.703.281-.281.469.515.218.718.328.718.78l.032 1.845c-.625.03-1.391.062-1.797 0-.828-.063-.578.296-.313.437 1.078.578 1.25.313 1.438.25.015-.016.281-.11.531-.14 0 0 .063-.016.14-.016zM4-4.313a36.561 36.561 0 0 1 1.516 1.454c.562.515.937.234.75-.25-.032-.094-.344-.704-.657-.954-.265-.171-.28-.062-.562-.203-.11-.078-.344-.203-.672-.5.375-.421.75-.937 1.11-1.468.296-.407.609-.86.14-1.032-.11-.03-.906-.078-1.125.032-.281.156-.969.171-1.75.171-.469 0-.875-.046-1.016-.062-.609-.063-.734.172-.28.438.937.53 1.124.375 1.405.234 0 0 .235-.047.47-.078.296-.016.64-.078 1.14-.11C3.53-4.797 1.844-3.17.734-2.578c-.234.125-.14.484.594.187.61-.25 1.64-.859 2.672-1.921zm0 0"/></symbol><symbol overflow="visible" id="F"><path d="M4.844-3.563c0 .626-.485 1.126-1.094 1.126-.61 0-1.094-.5-1.094-1.126 0-.64.485-1.14 1.094-1.14.61 0 1.094.5 1.094 1.14zM8.859.5C8.516.453 7.891.469 7.688.61c-.204.156-.516.171-.75.171L5.125.797c-.172 0-.344-.094-.344-.297V-.531c0-.39.235-.672-.312-.75-.297-.032-.875-.063-1.203-.032-.907.094-.47.407-.172.485.469.078.625.187.625.547V.5c0 .703.531.828 1.094.828l3.953-.047c.703 0 .875-.593.093-.781zM7.5-5.11c-.578.032-1.25.063-1.625 0-.781-.077-.531.282-.297.438 1.047.578 1.203.297 1.375.25 0-.016.266-.11.5-.14 0 0 .016 0 .047-.016l.016 1.422c-.579.031-1.266.062-1.641 0h-.063c.032-.11.047-.235.047-.375C5.86-5 4.281-5.125 4.281-5.156c.016-.157.172-.172 0-.344-.14-.156-1.11-.281-1.11.031 0 .11.267.125.126.313-.016 0-1.656.172-1.656 1.625 0 1.11 1.125 1.734 2.109 1.734.719 0 1.5-.312 1.875-.906 1 .547 1.156.281 1.328.234 0-.015.266-.11.5-.14 0 0 .031-.016.063-.016v.719c.015.781.046 1.484.359 1.484.328-.016.625-.828.625-2l-.031-4.734c0-.532.234-.844-.172-1-.281-.11-1.11-.235-1.25-.25-.703-.047-.703.281-.297.469.531.218.734.328.734.78zM6.328-6.343c-.25-.11-1.016-.218-1.547 0-.406.157-1.687.157-2.218.157a12.88 12.88 0 0 1-1.36-.094c-.453-.063-1.016.078-.25.484 1.203.64 1.297.188 1.906.125.75-.078 2.75-.078 3.375-.047.454 0 .657-.39.094-.625zm-1.687-.61c.703-.046.859-.64-.141-.671-.766-.016-1.063-.078-1.594-.156-.515-.094-.781.11-.422.36.422.296.72.468.985.484.344.03.672.03 1.172-.016zm0 0"/></symbol><symbol overflow="visible" id="G"><path d="M6.25-3.547c0 .688-.578 1.235-1.234 1.235-.672 0-1.25-.547-1.25-1.235 0-.687.578-1.25 1.25-1.25.656 0 1.234.563 1.234 1.25zM4.437-5.766c-.03.032-.062.079-.062.125 0 .125.328.141.125.344 0 .031-1.813.25-1.813 1.781 0 .985.829 1.641 1.782 1.829V-.5H2.797C1.719-.5 1.437-.578.812-.61.22-.64-.109-.39.547-.093c1.687.735 1.719.235 2.39.188.047 0 .829-.11 2.485-.11C6.969-.03 7.89-.046 8.609 0c.594.031 1.204.016 1.22-.344.046-.515-1.47-.562-2.313-.25-.25.094-1.282.094-1.97.094v-1.188c.954-.187 1.782-.843 1.782-1.828 0-1.53-1.75-1.75-1.75-1.765-.031-.157.14-.219 0-.39-.031-.048-.094-.079-.172-.11 1.094 0 2.516-.016 2.86 0 .437.015.671-.438.093-.64-.25-.095-1.062-.25-1.578-.016-.468.234-2.906.203-3.437.171a24.828 24.828 0 0 1-1.438-.078c-.422-.031-.922.14-.156.516 1.344.687 1.422.187 1.89.11.079 0 .407-.032.797-.048zm1.672-1.25c.688-.078.844-.656-.156-.687a14.997 14.997 0 0 1-2.016-.203c-.437-.094-.75.078-.406.375.406.312.766.484 1.016.515.36.063 1.062.079 1.562 0zm0 0"/></symbol><symbol overflow="visible" id="W"><path d="M7.406-7.156l.047 3.25c.016.797.078 1.36.344 1.344.297-.016.625-.672.625-1.813L8.39-7.156c0-.532.234-.844-.157-1-.296-.11-1.109-.235-1.265-.25-.688-.047-.703.281-.282.469.516.218.72.328.72.78zm-1.765.078c-.125-.016-.86-.078-1.094.031-.281.14-1.11.156-1.906.156-.454 0-.907-.046-1.063-.062-.594-.063-.719.14-.25.437.969.61 1.125.297 1.406.235.016 0 .266-.078.485-.094.297 0 .812-.078 1.344-.11C3.625-4.452 1.765-2.734.75-2.202c-.281.156.016.437.656.156 1.188-.5 3.016-2.078 4.11-4.015.187-.329.671-.875.125-1.016zm1.546 5.39L7.173.672H4.469l-.032-2.36zM8.422.922c0-.156-.266-.235-.39-.25l.234-2.203c.03-.282.515-.532 0-.766-.344-.156-.875-.062-1.188.016-.172.078-2.406.078-2.531.078-.188 0-.61-.156-1.281-.125-.532.015-.766.39-.5.453.328.094.578.14.609.406l.156 2.547c.016.422.219.64.438.64.156 0 .422-.218.469-.484.375 0 2.218-.03 3.484-.03.312 0 .5-.095.5-.282zm0 0"/></symbol><symbol overflow="visible" id="X"><path d="M3.438-5.89c.296-.016.5-.063 1.015-.094C3.484-4.422 2.016-3.328.781-2.688c-.234.11-.094.422.578.204.813-.266 1.97-.97 2.75-1.72.516.485 1.188 1.095 1.375 1.266.532.532.985.22.829-.156-.063-.203-.391-.75-.641-.984-.172-.14-.328-.047-.563-.188-.171-.093-.312-.156-.578-.375.344-.359.594-.625.985-1.109.296-.39.5-.734.14-.86-.11-.03-.922-.093-1.156.032-.266.14-.922.156-1.703.156-.422 0-.906-.047-1.047-.062-.594-.079-.734.156-.266.437 1.047.625 1.22.375 1.516.266.016 0 .219-.078.438-.11zM4.64-7.126c.703-.031.859-.656-.094-.703-.766-.031-1.11-.063-1.656-.156-.516-.094-.782.093-.422.39.437.328.734.469 1 .5.344.016.672.016 1.172-.031zm.062 8.578l3.906-.031c.72 0 .875-.594.094-.75C8.36.609 7.75.64 7.516.766c-.204.125-.5.14-.75.14L4.969.937c-.172 0-.344-.109-.344-.312l-.016-.844c.5 0 2.813-.015 3.438-.015.39 0 .531-.11.531-.313 0-.187-.25-.203-.36-.219l.25-1.03c.048-.235.376-.5-.077-.657-.313-.125-.938-.078-1.157.047-.187.125-2.437.078-2.562.078-.453 0-.828-.047-1.234-.094-.547-.047-.579.219-.36.344 1.094.719 1.36.422 1.563.344 0 0 .25-.079.5-.094.265-.031 1.796-.031 2.218-.031L7.313-.766c-.47.016-2.516.047-2.688.032a4.95 4.95 0 0 0-1.36-.11c-.609.094-.64.328-.093.469.297.063.406.172.406.39l.016.688c0 .703.547.75 1.11.75zm2.89-6.61c-.624.032-1.421.063-1.859 0-.828-.077-.562.298-.312.438 1.094.578 1.266.297 1.437.25.016-.015.282-.11.532-.14.015-.016.093-.016.218-.032l.016.625c0 .782.063 1.329.328 1.313.297-.016.625-.64.625-1.781l-.031-2.672c0-.532.25-.844-.156-1-.297-.11-1.11-.235-1.266-.25-.688-.047-.703.281-.281.469.515.218.718.328.718.78zm0 0"/></symbol><symbol overflow="visible" id="ap"><path d="M6.781-.172c0 .64-.468 1.234-1.14 1.234C4.969 1.063 4.5.47 4.5-.171c0-.687.484-1.266 1.14-1.266.673 0 1.141.594 1.141 1.266zm-1.14 1.875c1.218 0 2.171-.781 2.171-1.875 0-1.516-1.625-1.719-1.625-1.734 0-.188.157-.172.016-.375-.156-.219-1.172-.297-1.172.015 0 .11.282.141.11.36 0 0-1.688.234-1.688 1.734 0 1.094.969 1.875 2.188 1.875zm2.234-5.969h1.578c.719 0 .86-.609.094-.765-.313-.047-.828-.047-.953.062-.14.157-.453.203-.719.235l-.016-2.422c0-.532.235-.844-.171-1-.282-.11-1.11-.235-1.25-.25-.688-.047-.704.281-.282.469.516.218.719.328.719.78l.047 3.938c.016.797.078 1.39.344 1.39.296-.015.625-.78.625-1.905zM5.312-7c-.109-.016-.843-.078-1.078.031-.28.14-1.109.172-1.906.172-.469 0-.906-.062-1.078-.062-.578-.063-.703.14-.234.437.953.594 1.109.297 1.406.234 0 0 .25-.078.484-.093.297-.016.797-.094 1.328-.125C3.297-4.344 1.422-2.625.438-2.078c-.282.156.015.453.656.172C2.28-2.438 4.14-3.953 5.187-5.984c.188-.36.688-.875.125-1.016zm0 0"/></symbol><symbol overflow="visible" id="aq"><path d="M7.234-.156c0 .656-.453 1.218-1.125 1.218-.671 0-1.14-.562-1.14-1.218 0-.672.484-1.235 1.14-1.235.672 0 1.125.563 1.125 1.235zM6.11 1.704c1.22 0 2.157-.782 2.157-1.86 0-1.5-1.61-1.688-1.61-1.719 0-.172.157-.156.016-.36-.156-.218-1.172-.296-1.172.016 0 .11.281.14.11.344 0 .016-1.673.234-1.673 1.719 0 1.078.954 1.86 2.172 1.86zM4.797-5.204L4.78-3.61 2.5-3.563l-.016-1.593zm2.672-1.031c-.578.015-1.297.03-1.688 0v-.438c0-.266.14-.531-.234-.672a4.473 4.473 0 0 0-1.078-.172c-.703.047-.5.329-.266.438.36.125.61.187.61.469l-.016.859-2.313.031-.015-.64c0-.282.125-.454-.25-.594-.328-.094-.828-.125-1.078-.156-.735.062-.47.359-.313.406.406.14.656.281.656.547l.032 2.64c.015.72.234.985.437.97.281-.032.484-.345.516-.47l2.344-.046c.03.124.171.374.421.374.235 0 .485-.437.532-.937.687.313.843.094.984.063.016-.016.266-.126.5-.157h.25c0-.015.016.422.016.453 0 .782.078 1.391.343 1.375.282-.015.61-.765.61-1.906l-.031-3.36c0-.53.25-.843-.157-1-.281-.109-1.11-.234-1.265-.25-.688-.046-.704.282-.282.47.516.218.72.328.72.78zm.015 2c-.593.015-1.328.03-1.718 0l.015-1.391c.688.313.828.094.969.063.016-.016.266-.11.5-.157h.219zm0 0"/></symbol><symbol overflow="visible" id="ar"><path d="M8.516.094L8.5-1.328c.016-.344.36-.672-.219-.797-.328-.047-.687 0-1.047.11-.343.093-3.359.156-4.203.03-.937-.109-.625.298-.39.423 1.484.812 1.562.25 2.234.218.016 0 2.219-.078 2.61-.093L7.514.5c.016.625.173 1.266.391 1.25.25 0 .625-.734.61-1.656zm-.891-5.657c-.656.032-1.625.094-2.11.032-.827-.078-.577.281-.312.422 1.078.578 1.25.312 1.438.25.015 0 .28-.11.53-.141.016-.016.282-.016.47-.031l.015 1.406c.016.797.078 1.328.344 1.313.297 0 .625-.641.625-1.782l-.031-3.062c0-.532.234-.844-.172-1-.281-.11-1.094-.235-1.25-.25-.688-.047-.703.281-.281.469.515.218.718.328.718.78zM3.5-4.671A78.201 78.201 0 0 1 5.14-3c.532.531.97.313.782-.25-.047-.11-.39-.719-.703-.984-.25-.141-.235-.032-.547-.22-.14-.077-.516-.374-.828-.687.265-.39.578-.921.765-1.28.172-.298.313-.438-.109-.766-.234-.188-.938-.485-1.125-.5-.672-.094-.61.171-.203.437.453.281.406.469.297.75C2.797-4.875 1.594-3.531.656-2.906c-.406.281-.031.547.563.219.906-.47 1.672-1.25 2.281-1.985zm0 0"/></symbol><symbol overflow="visible" id="aJ"><path d="M3.594-4.484c.594.546 1.469 1.359 1.89 1.734.547.484.922.297.72-.266-.048-.109-.391-.687-.688-.937-.266-.14-.266-.016-.579-.203-.14-.078-.625-.469-1.015-.813.265-.39.547-.89.75-1.297.14-.296.297-.437-.125-.765-.234-.188-.922-.485-1.125-.5-.672-.094-.594.172-.188.437.438.266.391.453.282.75-.641 1.64-1.891 3.14-2.86 3.813-.406.265-.047.515.563.219.906-.454 1.765-1.376 2.375-2.172zM8.984.5C8.641.453 8.031.469 7.828.61 7.61.765 7.297.78 7.062.78l-1.78.016c-.173 0-.345-.094-.345-.297V-.828c0-.406.235-.672-.312-.75a6.108 6.108 0 0 0-1.203-.047c-.906.094-.469.422-.156.484.453.094.609.188.609.563V.5c0 .703.531.828 1.094.828l3.922-.047c.703 0 .875-.593.093-.781zM7.61-7.156l.047 5.25c0 .781.032 1.484.344 1.484.328-.016.625-.828.625-2l-.031-4.734c0-.532.234-.844-.172-1-.281-.11-1.094-.235-1.25-.25-.688-.047-.703.281-.281.469.515.218.718.328.718.78zm0 0"/></symbol><symbol overflow="visible" id="aK"><path d="M6.89-.14c0 .624-.468 1.203-1.14 1.203-.672 0-1.14-.579-1.14-1.204 0-.656.484-1.234 1.14-1.234.672 0 1.14.578 1.14 1.234zM5.75 1.702c1.219 0 2.172-.797 2.172-1.844 0-1.484-1.64-1.687-1.64-1.703 0-.187.171-.172.03-.375-.156-.203-1.171-.281-1.171.016 0 .11.28.156.109.36 0 .015-1.688.234-1.688 1.702 0 1.079.97 1.844 2.188 1.844zM5.984-6.5c.063-.36.438-.656-.171-.828-.297-.094-.735-.031-1.063.094-.344.109-2.5.171-3.328.046-.938-.078-.578.297-.344.407 1.422.734 1.547.265 2.031.234.016 0 1.47-.094 1.797-.125-.047.906-.015.828-.11 1.453-.109.719-.187 1.094.079 1.14.25.063.578-.234.813-1.046.187-.656.296-1.344.296-1.375zm2.032 1.86L8-7.157c0-.532.234-.844-.172-1-.281-.11-1.11-.235-1.25-.25-.703-.047-.703.281-.297.469.532.218.735.328.735.78l.03 3.329c-.812.125-2.171.297-3.374.406v-1.25c0-.344.219-.625-.219-.75-.281-.078-.844-.094-1.031-.11-.61.032-.656.298-.281.407.296.078.562.188.562.5v1.266c-.297.015-.578.03-.812.03-.375 0-.766-.015-1.094-.062-.875-.062-.766.313-.203.594 1.36.672 1.562.235 2.14.125 1.032-.062 3.079-.422 4.329-.672v.14c.015.798.078 1.407.343 1.392.282-.016.625-.766.625-1.907v-.437h1.563c.719 0 .844-.625.094-.782-.329-.03-.829-.046-.954.079-.14.14-.453.187-.718.218zm0 0"/></symbol><symbol overflow="visible" id="aL"><path d="M4.875-5.938c.813.375 2.625 1.172 3.25 1.438.703.328 1.156-.031.688-.5-.22-.234-.641-.5-.891-.61-.375-.109-.438.048-.813-.077a28.495 28.495 0 0 1-1.828-.657c.157-.172.407-.437.532-.625.187-.281.375-.453-.032-.765-.265-.204-.875-.485-1.078-.5-.797-.079-.64.203-.375.359.406.234.438.39.344.578C4-6.078 2.359-4.907 1.156-4.469c-.343.125-.297.532.438.344.937-.25 2.297-.922 3.281-1.813zM4.469-2.5L4.5-.062c0 .984.094 1.937.422 1.921.39-.015.672-1.015.656-2.546l-.047-1.829c1.485-.015 2.39-.015 3.078.016.594.047 1.204.031 1.22-.344.046-.5-1.47-.562-2.313-.25C7.187-2.969 5.5-3 5.03-3H2.797c-1.078 0-1.36-.063-1.985-.094-.593-.031-.921.203-.265.5 1.687.75 1.719.25 2.39.188.032 0 .5-.063 1.532-.094zm0 0"/></symbol><symbol overflow="visible" id="H"><path d="M4.328-2.39c0-.47-.39-.86-.844-.86-.453 0-.828.39-.828.86 0 .468.375.859.828.859.454 0 .844-.39.844-.86zm0 0"/></symbol><symbol overflow="visible" id="I"><path d="M.656-3c0 .984.235 1.656.547 2.078.328.422.734.61 1.125.61.39 0 .797-.188 1.11-.61.328-.422.546-1.094.546-2.078 0-.984-.218-1.656-.546-2.078-.329-.422-.735-.594-1.11-.594-.36 0-.781.156-1.11.578C.907-4.672.657-4 .657-3zm.485 0c0-1.172.421-2.25 1.187-2.25S3.5-4.172 3.5-3c0 1.188-.406 2.25-1.172 2.25-.765 0-1.187-1.047-1.187-2.25zm4.421-2.875v7.094h.5v-7.094zm0 0"/></symbol><symbol overflow="visible" id="J"><path d="M3.563-5.453v-.422H1.469v.422zm.984 1.047v-.422H.53v.422zm-2.016.468C1.5-3.938.844-3.421.844-2.766c0 .641.656 1.157 1.687 1.157 1.063 0 1.703-.516 1.703-1.157 0-.656-.625-1.171-1.703-1.171zM1.36-2.78c0-.438.422-.735 1.172-.735.766 0 1.172.297 1.172.735 0 .453-.406.765-1.172.765-.75 0-1.172-.312-1.172-.765zM6.938-3.5v-.438H5.921v-1.937h-.5v4.547h.5V-3.5zM5.921 1.266V-.97h-4.5v.438h4.016v1.797zm0 0"/></symbol><symbol overflow="visible" id="K"><path d="M3.844-2.172v-3.437h-.469v1.296H1.203v-1.296H.734v3.437zm-.469-.422H1.203V-3.89h2.172zm2.469 3.86V-1.25H1.328v.438H5.36v2.078zm1-5.094v-.438h-1V-5.89h-.5v4.266h.5v-2.203zm0 0"/></symbol><symbol overflow="visible" id="L"><path d="M2.64-4.266v-1.28h-.515v1.124c0 .828-.188 1.578-.547 2.234A4.476 4.476 0 0 1 .031-.577a3 3 0 0 1 .485.36c.39-.298.796-.704 1.14-1.173.344-.468.61-.968.719-1.437.203.547.484 1.031.828 1.453.328.36.688.688 1.078.953.094-.11.282-.281.407-.39-.704-.422-1.22-.907-1.563-1.5-.313-.547-.484-1.188-.484-1.954zm2.657-1.609v7.094h.516v-3.844h1.093v-.453H5.813v-2.797zm0 0"/></symbol><symbol overflow="visible" id="M"><path d="M5.61-2.89a4.168 4.168 0 0 1-1.141-.438c-.39-.219-.782-.563-.782-.875v-.188h1.579v-.343H1.703v.343h1.578v.188c0 .312-.39.656-.781.875-.438.25-.906.39-1.14.437l.25.282c.202-.032.671-.188 1.077-.407.36-.203.735-.515.797-.656.063.14.422.453.797.656.407.22.875.375 1.078.407zm1.156.5c0-1.5-.61-2.422-1-2.922H5.53c.578.796.875 1.859.875 2.921 0 1.063-.312 2.11-.875 2.907h.235c.39-.485 1-1.47 1-2.907zM1.453.515C.875-.281.578-1.328.578-2.391c0-1.062.297-2.125.875-2.921H1.22A4.536 4.536 0 0 0 .203-2.392C.203-.953.828.031 1.22.516zm4.438-2.36v-.343H1.062v.343h2.22V0h.405v-1.844zm0 0"/></symbol><symbol overflow="visible" id="N"><path d="M6.703-1.469v-.437H.25v.437h1.797v2.625h.5v-2.625h1.86V1.22h.5V-1.47zm-.672-1.484v-.422H1.625v-2.281h-.516v2.703zm0 0"/></symbol><symbol overflow="visible" id="O"><path d="M6.703-2.39v-.422H.25v.421zM5.97 1.124v-.39H1.656v-.829h4.157v-1.578H1.14v.406h4.156V-.5H1.14v1.625zM.89-3.485h5.171v-.406h-.968l.015-1.375h.813v-.406h-4.89v.406h.812l.015 1.375H.891zm3.75-1.78l-.016 1.374H2.344l-.016-1.375zm0 0"/></symbol><symbol overflow="visible" id="P"><path d="M4.922-1.25c-.39.063-1.547.25-2.5.266l-1.25.015v-1.844h2.625v-2.671H.687v.437h2.61v1.813H.687v2.718c.032 0 1.032 0 1.891-.03a17.606 17.606 0 0 0 2.344-.266zm1.922-1.5v-.453H5.75v-2.672h-.531v7.094h.531V-2.75zm0 0"/></symbol><symbol overflow="visible" id="Q"><path d="M6.719.172V-.25H.234v.422zM1.14-1.61h4.718v-.422H1.641v-1.313h4.156v-.422H1.64v-1.328h4.171v-.422H1.141zm0 0"/></symbol><symbol overflow="visible" id="S"><path d="M3.875-.578V-5.5h-.484v1.906H1.17V-5.5h-.5v4.922zm-.484-.438H1.17v-2.14h2.22zM6.859-2.75v-.438H5.766v-2.687h-.532v7.094h.532V-2.75zm0 0"/></symbol><symbol overflow="visible" id="T"><path d="M1.031-3.797c0 1 .89 1.813 2.188 1.906v1.704H.234v.421H6.72v-.421h-3v-1.704c1.312-.078 2.203-.89 2.203-1.906 0-1.062-1-1.922-2.438-1.922-1.437 0-2.453.86-2.453 1.922zm.532 0c0-.937.796-1.515 1.921-1.515 1.094 0 1.907.562 1.907 1.515 0 .875-.829 1.5-1.907 1.5-1.109 0-1.921-.625-1.921-1.5zm0 0"/></symbol><symbol overflow="visible" id="U"><path d="M6.094 1.14v-2.906h-.5v.938H2.109v-.938h-.5v2.907zm-.5-.421H2.109V-.406h3.485zM2.359-2.36c.891 0 1.61-.594 1.75-1.438h1.485v1.656h.5v-3.734h-.5v1.64H4.125C4.047-5.14 3.281-5.78 2.359-5.78c-1.015 0-1.796.718-1.796 1.703 0 .984.812 1.719 1.796 1.719zM1.063-4.08c0-.718.53-1.265 1.296-1.265s1.282.547 1.282 1.266c0 .703-.516 1.266-1.282 1.266-.765 0-1.296-.563-1.296-1.266zm0 0"/></symbol><symbol overflow="visible" id="V"><path d="M5.813-2.578v-3.125h-.5v1H1.64v-1h-.5v3.125zM5.313-3H1.64v-1.297h3.671zm1.39 1.766v-.422H.25v.422h3v2.453h.516v-2.453zm0 0"/></symbol><symbol overflow="visible" id="Y"><path d="M6.938-3.328v-.438H5.921v-2.109h-.484v5.266h.484v-2.72zm-.766 4.39V.625H2.109V-.969h-.5v2.031zm-2.61-6.515v-.422H1.47v.422zm.985 1.078v-.422H.53v.422zm-2.016.469C1.5-3.906.844-3.36.844-2.703c0 .64.656 1.187 1.687 1.187 1.063 0 1.703-.546 1.703-1.187 0-.656-.625-1.203-1.703-1.203zM1.36-2.72c0-.437.422-.765 1.172-.765.766 0 1.172.328 1.172.765 0 .453-.406.797-1.172.797-.75 0-1.172-.344-1.172-.797zm0 0"/></symbol><symbol overflow="visible" id="Z"><path d="M5.64-3.047c.157-.781.25-1.86.282-2.61h-4.89v.423h4.374c-.031.64-.156 1.578-.265 2.187H.25v.422h2.875v1.438H1.047v.421h4.25v2.032h.516v-2.454H3.624v-1.437h3.078v-.422zm0 0"/></symbol><symbol overflow="visible" id="aa"><path d="M6.719.234v-.421h-3v-1.657h2.078V-5.53h-.5v1.312h-3.64V-5.53h-.5v3.687h2.062v1.657H.234v.421zm-1.422-2.5h-3.64v-1.546h3.64zm0 0"/></symbol><symbol overflow="visible" id="ab"><path d="M6.094-.61v-5.265h-.5v2.156H4.078v.438h1.516V-.61zm.218 1.672V.625H2.125V-1.25h-.5v2.313zM.875-5.53v.422h2.594c-.094.718-.438 1.328-.906 1.828-.594.625-1.391 1.094-2.235 1.39.14.11.344.297.422.391.906-.375 1.719-.906 2.313-1.625.53-.656.89-1.453.968-2.406zm0 0"/></symbol><symbol overflow="visible" id="ac"><path d="M6.781-3.25v-.438h-1v-2.187h-.515v5.266h.515V-3.25zM6 1.063V.625H1.953V-1.25h-.5v2.313zM2.547-4.923v-.766H2.03v.766c0 .672-.187 1.234-.531 1.688-.36.484-.86.843-1.453 1.125.14.093.344.265.437.359.407-.219.782-.5 1.11-.813a2.98 2.98 0 0 0 .703-1.171c.187.421.5.796.844 1.093.328.282.671.516.984.657.11-.125.25-.282.375-.407-.516-.187-1-.515-1.375-.968a2.46 2.46 0 0 1-.578-1.563zm0 0"/></symbol><symbol overflow="visible" id="ad"><path d="M6.39 1.063V.625H2.204V-1.25h-.5v2.313zm-.718-6.938v5.266h.5v-5.266zm-4.875.766h1.547v.28c0 .657-.219 1.22-.547 1.673-.375.484-.922.844-1.547 1.125.14.094.344.25.453.344.422-.235.813-.5 1.156-.813.313-.328.579-.719.75-1.203.188.422.47.75.782 1.031a4.7 4.7 0 0 0 1.125.75c.109-.125.25-.266.375-.39A3.359 3.359 0 0 1 3.5-3.22c-.406-.453-.64-.984-.64-1.61v-.28h1.515v-.422H.797zm0 0"/></symbol><symbol overflow="visible" id="ae"><path d="M1 .203c0 .672.89 1.156 2.469 1.156 1.61 0 2.484-.484 2.484-1.156 0-.672-.875-1.14-2.484-1.14C1.89-.938 1-.47 1 .202zm4.406 0c0 .5-.781.766-1.937.766-1.156 0-1.922-.266-1.922-.766 0-.516.766-.766 1.922-.766s1.937.266 1.937.766zM6.703-1.53v-.407H.25v.407zM1.266-3.36c0 .546.89.859 2.203.859 1.312 0 2.203-.313 2.203-.86 0-.53-.89-.828-2.203-.828-1.313 0-2.203.282-2.203.829zm.578 0c0-.344.734-.47 1.625-.47.906 0 1.625.126 1.625.47 0 .343-.735.484-1.625.484s-1.625-.14-1.625-.484zM4.75-5.5v-.406H2.187v.406zm1.36.922v-.406H.827v.406zm0 0"/></symbol><symbol overflow="visible" id="af"><path d="M2.766-3.328c1.046 0 1.687-.594 1.687-1.281 0-.672-.625-1.282-1.687-1.282-1.047 0-1.688.61-1.688 1.282 0 .687.64 1.28 1.688 1.28zm.015-.406c-.828 0-1.234-.47-1.234-.875 0-.422.39-.891 1.219-.891.828 0 1.218.469 1.218.89 0 .407-.39.876-1.203.876zM6.187-.406v-5.469h-.5v4.172h-1.75v.406h1.75v.89zm.157 1.453V.625H2.187v-1.36h-.515v1.782zm-.89-4c-.407.078-1.798.203-2.798.203l-2.172.016v.421h1.704v1.22h.484v-1.235c.875 0 2.203-.11 2.781-.188zm0 0"/></symbol><symbol overflow="visible" id="ag"><path d="M1.063-2.531v-2.453h1.906c.781 0 1.14.5 1.14 1.203 0 .844-.5 1.25-1.25 1.25zm-.47-2.86V.547h.47v-2.672h1.765c.828 0 1.172.328 1.188 1.078L4.062 0c0 .266.079.547.11.547h.61v-.11c-.282-.156-.266-.484-.282-1l-.031-.687c-.032-.61-.282-.938-.735-1.11.563-.203.844-.78.844-1.515 0-1.047-.656-1.516-1.64-1.516zm0 0"/></symbol><symbol overflow="visible" id="ah"><path d="M1.5-3.64a1.685 1.685 0 0 1-.14-.61c0-.375.265-.813.765-.813.469 0 .719.375.719.829a1 1 0 0 1-.25.703c-.156.203-.39.422-.625.594-.188-.25-.407-.563-.469-.704zM.766-.829c0-.594.343-1.047 1.109-1.594l1.281 1.86c-.281.484-.828.89-1.297.89C1.281.328.75-.078.766-.828zm-.422 0C.344.187 1.016.687 1.813.687a1.81 1.81 0 0 0 1.562-.906l.531.766h.516l-.813-1.14c.188-.376.36-.954.454-1.454l-.391-.031c-.063.36-.188.75-.328 1.11L2.188-2.642c.296-.218.562-.437.734-.671.234-.297.312-.579.328-.985.016-.5-.36-1.094-1.11-1.094-.718 0-1.171.5-1.171 1.172 0 .203.047.453.11.61.062.156.343.578.562.89-.782.5-1.297 1.156-1.297 1.89zm0 0"/></symbol><symbol overflow="visible" id="ai"><path d="M1.063.125v-5.11H2.5c1.39 0 1.797 1.25 1.797 2.485 0 1.594-.5 2.625-1.797 2.625zm-.47-5.516V.547h2.048c1.515 0 2.14-1.36 2.14-3.063 0-1.64-.703-2.875-2.14-2.875zm0 0"/></symbol><symbol overflow="visible" id="aj"><path d="M6.172-.61v-5.265h-.5v1.656H4.094v.438h1.578V-.61zm.219 1.672V.625H2.203V-1.25h-.5v2.313zM.797-5.109H2.28v.375a2.82 2.82 0 0 1-.531 1.687c-.36.469-.875.844-1.453 1.11.125.093.328.265.437.359.407-.234.782-.5 1.094-.828.313-.328.563-.719.703-1.156.188.39.438.703.735.984.359.328.75.594 1.109.765.094-.14.234-.28.36-.406a3.162 3.162 0 0 1-1.329-.906 2.444 2.444 0 0 1-.61-1.61v-.374H4.25v-.422H.797zm0 0"/></symbol><symbol overflow="visible" id="ak"><path d="M6.766-2.828v-.422H5.78v-1.188h.985v-.421H5.78v-1.016h-.515v4.406h.515v-1.36zm-1.782.219c-.578.125-1.906.265-2.562.28l-1.297.017v-1.22h2.672v-2.062H.657v.422h2.655v1.234H.656v2.063c.063 0 1.078 0 1.86-.016.75-.03 1.984-.187 2.468-.28zm.797 3.875v-2.344H1.25v.422h4.016v1.922zm0 0"/></symbol><symbol overflow="visible" id="al"><path d="M6.844-3.719v-.437h-1v-1.719h-.5v5.281h.5v-3.125zm-.766 4.781V.625H2V-1.25h-.5v2.313zM1.25-5.109h2.719v-.422H.766v3.343c.062 0 1.093 0 1.859-.03.89-.032 1.938-.157 2.438-.282v-.438c-.485.126-1.782.266-2.594.282l-1.219.031zm0 0"/></symbol><symbol overflow="visible" id="am"><path d="M6.953-3.797v-.437H5.922v-1.641h-.484v4.328h.484v-2.25zM1.453-.03c0 .765.781 1.375 2.344 1.375 1.515 0 2.297-.625 2.297-1.375s-.782-1.375-2.297-1.375c-1.563 0-2.344.656-2.344 1.375zm.516.015c0-.578.718-.984 1.828-.984 1.062 0 1.781.406 1.781.984 0 .516-.719.97-1.781.97-1.11 0-1.828-.423-1.828-.97zM.797-5.109H2.28v.171c0 .657-.203 1.188-.531 1.61-.344.469-.86.812-1.453 1.078.125.094.328.234.437.328a4.39 4.39 0 0 0 1.125-.781c.297-.297.532-.656.672-1.078.188.375.453.687.735.937.359.297.75.516 1.109.703.094-.14.234-.265.36-.375-.516-.187-1.016-.484-1.391-.906-.344-.39-.547-.89-.547-1.5v-.187H4.25v-.422H.797zm0 0"/></symbol><symbol overflow="visible" id="an"><path d="M6.078 1.219v-7.094h-.5v7.094zM.953-5.421v.437h2.5a5.635 5.635 0 0 1-.797 2.375C2.141-1.813 1.422-1.156.484-.656a3 3 0 0 1 .485.36c.969-.626 1.703-1.376 2.219-2.298.468-.828.75-1.765.812-2.828zm0 0"/></symbol><symbol overflow="visible" id="ao"><path d="M5.969 1.125v-.39H1.656v-.86h4.157v-1.61H3.719v-.796h2.984v-.422H.25v.422h2.969v.797H1.14v.406h4.156v.797H1.14v1.656zM3.734-5.719v-.187h-.53v.187c0 .563-.345.969-.845 1.282-.484.312-1.14.5-1.734.609.125.125.266.297.344.406.562-.125 1.094-.297 1.531-.547.406-.25.75-.562.984-.969.25.47.688.813 1.157 1.047.437.235.921.375 1.328.47.125-.142.218-.267.36-.392-.516-.109-1.126-.28-1.626-.562-.547-.297-.969-.734-.969-1.344zm0 0"/></symbol><symbol overflow="visible" id="as"><path d="M6.094-1.563v-4.312h-.5v1.078H4.25v.422h1.344v1.11H4.03v.421h1.563v1.281zM3.859 1.345c1.5 0 2.36-.594 2.36-1.407 0-.812-.86-1.421-2.36-1.421-1.468 0-2.359.609-2.359 1.421 0 .813.89 1.407 2.36 1.407zM2.016-.063c0-.64.828-1 1.843-1 1.047 0 1.86.36 1.86 1 0 .625-.828 1-1.86 1-1.015 0-1.843-.375-1.843-1zM.89-5.53v.422h2.593a2.914 2.914 0 0 1-.89 1.687c-.578.563-1.36.953-2.172 1.188.14.125.297.265.39.39.922-.297 1.72-.781 2.297-1.453.516-.578.844-1.328.938-2.234zm0 0"/></symbol><symbol overflow="visible" id="at"><path d="M1.406-.047c0 .797.828 1.39 2.39 1.39 1.563 0 2.376-.577 2.376-1.374 0-.797-.813-1.422-2.375-1.422-1.563 0-2.39.61-2.39 1.406zm.5-.015c0-.625.766-.97 1.89-.97 1.095 0 1.876.36 1.876 1 0 .61-.781.97-1.875.97-1.125 0-1.89-.375-1.89-1zm-.828-3.954c0-.75.469-1.328 1.281-1.328.829 0 1.282.578 1.282 1.328 0 .735-.454 1.329-1.282 1.329-.812 0-1.28-.594-1.28-1.329zm2.984.563a1.77 1.77 0 0 0 .094-.563c0-.203-.047-.421-.11-.593h1.548v1.156zm2.032 1.89v-4.312h-.5v.828h-1.75C3.516-5.5 3-5.78 2.359-5.78c-1.046 0-1.796.797-1.796 1.765 0 .97.75 1.782 1.796 1.782.657 0 1.204-.313 1.516-.797h1.719v1.469zm0 0"/></symbol><symbol overflow="visible" id="au"><path d="M.89-5.36v4.735c.032 0 .704.016 1.376-.016a17.88 17.88 0 0 0 1.562-.156v-.453c-.297.047-1.094.14-1.484.14l-.969.032v-3.86h1.906v-.421zM6.157 1.22v-7.094h-.5v2.703H4.625V-5.75h-.5V.875h.5v-3.578h1.031v3.922zm0 0"/></symbol><symbol overflow="visible" id="av"><path d="M.969.047c0 .75.922 1.297 2.5 1.297 1.61 0 2.5-.547 2.5-1.297 0-.781-.89-1.328-2.5-1.328-1.578 0-2.5.547-2.5 1.328zM1.516.03c0-.594.796-.937 1.953-.937 1.14 0 1.969.344 1.969.953 0 .562-.829.906-1.97.906C2.314.953 1.517.61 1.517.031zM6.703-1.89v-.421H3.72V-3.47h-.485v1.156H.25v.422zM3.734-5.609v-.266h-.53v.266c0 .578-.345 1.03-.86 1.359-.485.328-1.125.547-1.735.688.125.109.282.28.36.39.515-.14 1.015-.312 1.469-.578.421-.25.78-.578 1.046-1.047.25.469.688.844 1.172 1.11.422.25.907.406 1.313.515.11-.156.218-.265.36-.39-.516-.126-1.126-.313-1.626-.626-.547-.343-.969-.812-.969-1.421zm0 0"/></symbol><symbol overflow="visible" id="aw"><path d="M6.219 1.14v-2.468H1.75V1.14zm-.5-.437H2.25v-1.61h3.469zm.5-2.422v-4.156h-.5v2H4.312v.438H5.72v1.718zm-2.64-3.734v-.422H1.593v.422zM.811-4.391h1.5A2.143 2.143 0 0 1 1.72-3c-.36.406-.844.703-1.39.906.14.094.312.25.405.344a3.645 3.645 0 0 0 1.094-.703c.313-.297.578-.64.75-1.047.203.344.5.656.844.906a4.47 4.47 0 0 0 1.031.578c.11-.125.203-.234.328-.359-.453-.156-.906-.375-1.281-.672-.375-.328-.64-.765-.672-1.344H4.36v-.406H.813zm0 0"/></symbol><symbol overflow="visible" id="ax"><path d="M.969-3.89c0 .937.75 1.734 1.797 1.734 1.03 0 1.78-.797 1.78-1.735 0-.953-.75-1.718-1.78-1.718-1.047 0-1.797.765-1.797 1.718zm.484 0c0-.72.484-1.297 1.313-1.297.812 0 1.28.578 1.28 1.296 0 .72-.468 1.282-1.28 1.282-.829 0-1.313-.563-1.313-1.282zm4.703 5.109v-7.094h-.5v7.094zm-.734-2.36c-.61.11-2.563.235-3.156.235H.546v.437h1.47c1.437 0 2.78-.14 3.406-.219zm0 0"/></symbol><symbol overflow="visible" id="ay"><path d="M4.86-.172v-1.437h1.124v-.422H1.641v-1.313h4.062v-2.172H1.11v.422h4.094v1.344H1.141v2.14h1.03v1.438H.235V.25H6.72v-.422zM2.671-1.609h1.703v1.437H2.672zm0 0"/></symbol><symbol overflow="visible" id="az"><path d="M6.36 1.219v-7.094h-.5v2.672h-.954V-5.75h-.5V.875h.5V-2.75h.953v3.969zM.765-4.938H2v.5c0 .907-.125 1.688-.438 2.375A3.776 3.776 0 0 1 .188-.452c.157.094.391.219.5.312.344-.265.704-.656.985-1.078.266-.422.484-.86.562-1.297.11.422.297.829.547 1.188.25.375.578.703.89.89.095-.109.267-.25.407-.343-.562-.328-.953-.813-1.203-1.438-.234-.562-.36-1.25-.36-2.031v-.688H3.72v-.421H.766zm0 0"/></symbol><symbol overflow="visible" id="aA"><path d="M6.094-.61v-5.265h-.5v1.5h-1.64v.453h1.64v3.313zm.218 1.672V.625H2.125V-1.25h-.5v2.313zM2.72-4.875v-.813h-.516v.813c0 .672-.219 1.219-.547 1.688-.36.468-.86.843-1.437 1.109.125.094.328.281.437.375.39-.234.781-.5 1.094-.813a2.98 2.98 0 0 0 .703-1.171c.203.421.5.796.844 1.093.328.281.672.5 1 .656a2.91 2.91 0 0 1 .36-.406c-.5-.187-1-.515-1.376-.969a2.393 2.393 0 0 1-.562-1.562zm0 0"/></symbol><symbol overflow="visible" id="aB"><path d="M6.094 1.14v-2.609H1.625v2.61zm-.5-.437H2.125V-1.03h3.469zM.562-4.016c0 .97.75 1.782 1.797 1.782a1.764 1.764 0 0 0 1.797-1.782c0-.968-.75-1.765-1.797-1.765-1.046 0-1.796.797-1.796 1.765zm.516 0c0-.75.469-1.328 1.281-1.328.829 0 1.282.578 1.282 1.328 0 .735-.454 1.329-1.282 1.329-.812 0-1.28-.594-1.28-1.329zm4.516-1.859v4.031h.5v-4.031zm0 0"/></symbol><symbol overflow="visible" id="aC"><path d="M6.313 1.063V.625H2.125V-1.25h-.5v2.313zM2.358-2.531c-.812 0-1.28-.625-1.28-1.406 0-.797.468-1.407 1.28-1.407.829 0 1.282.61 1.282 1.407 0 .78-.454 1.406-1.282 1.406zm1.704-.813c.062-.187.093-.39.093-.594 0-.218-.047-.421-.11-.609h1.548v1.203zm2.03 2.75v-5.281h-.5v.89H3.86a1.774 1.774 0 0 0-1.5-.812c-1.062 0-1.796.844-1.796 1.86 0 1.015.734 1.859 1.796 1.859a1.78 1.78 0 0 0 1.516-.828h1.719v2.312zm0 0"/></symbol><symbol overflow="visible" id="aD"><path d="M5.578-2.406c.14-.828.266-2.188.313-3.188H1.016v.422h4.359c-.063.938-.14 1.797-.313 2.766H.234v.422h2.907v3.203h.515v-3.203H6.72v-.422zm0 0"/></symbol><symbol overflow="visible" id="aM"><path d="M5 .875V-5.75h-.5v2.234H3.219v.454H4.5V.874zm1.36.344v-7.094h-.5v7.094zM.765-4.938H2v.5c0 .907-.125 1.688-.438 2.375A3.776 3.776 0 0 1 .188-.452c.157.094.391.219.5.312.344-.265.704-.656.985-1.078.266-.422.484-.86.562-1.297.11.422.297.829.547 1.188.25.375.578.703.89.89.095-.109.267-.25.407-.343-.562-.328-.953-.813-1.203-1.438-.234-.562-.36-1.25-.36-2.031v-.688H3.72v-.421H.766zm0 0"/></symbol><symbol overflow="visible" id="aN"><path d="M6.703-1.89v-.423H.25v.422h2.969v.766C1.766-1.062 1-.562 1 .109c0 .72.89 1.235 2.469 1.235 1.61 0 2.484-.516 2.484-1.235 0-.656-.781-1.171-2.219-1.234v-.766zm-5.172 2c0-.547.782-.844 1.938-.844s1.969.296 1.969.859c0 .516-.813.844-1.97.844-1.155 0-1.937-.328-1.937-.86zm3.203-5.594v-.422h-2.53v.422zm-3.687 1.03h2.11c-.095.345-.407.61-.829.798-.469.219-1.094.344-1.703.453.125.11.266.281.344.39a8.413 8.413 0 0 0 1.5-.437c.422-.203.765-.453 1.015-.797.282.438.704.703 1.204.89.406.157.859.266 1.28.345.126-.141.22-.25.36-.391-.5-.078-1.047-.188-1.5-.36-.516-.203-.922-.484-1.031-.89h2.11v-.406h-4.86zm0 0"/></symbol><symbol overflow="visible" id="aO"><path d="M6.703-1.89v-.423H.25v.422h2.969v.97H1.047V-.5h4.25v1.766h.516V-.922H3.719v-.969zm-1.39-1.673H1.624V-4.5h3.688zM1.14-3.14h4.671v-2.656h-.5v.875H1.626v-.875h-.484zm0 0"/></symbol><symbol overflow="visible" id="aP"><path d="M6.719.234v-.421H4.062v-2.735h-.484v2.735H2.313v-2.735h-.47v2.735H.235v.421zM1.047-5.453v.437h4.375c-.047 1.094-.266 2.516-.5 3.735h.516c.28-1.344.421-2.828.5-4.172zm0 0"/></symbol><symbol overflow="visible" id="aQ"><path d="M3.906-1.86c.203-1.062.328-2.671.344-3.577H.703v.421h3.031c0 1-.171 2.36-.312 3.157zm1.172.844c-.578.125-2.25.204-2.844.22v-2.5H1.75v2.5H.328v.437h1.266c1.156 0 2.797-.125 3.484-.22zm.234-4.859v7.094h.516V-2.47H6.86v-.453H5.83v-2.953zm0 0"/></symbol><symbol overflow="visible" id="aR"><path d="M3.172-6.14h-.5L.25 1.405h.516zm0 0"/></symbol><symbol overflow="visible" id="aS"><path d="M3.813 1.344c1.484 0 2.39-.594 2.39-1.407 0-.812-.906-1.421-2.39-1.421-1.5 0-2.407.609-2.407 1.421 0 .813.907 1.407 2.407 1.407zM1.921-.063c0-.64.828-1 1.89-1 1.047 0 1.876.36 1.876 1 0 .625-.829 1-1.875 1-1.063 0-1.891-.375-1.891-1zM6.156-1.53v-4.344h-.5v1.75h-.953V-5.75h-.5v3.969h.5v-1.89h.953v2.14zM2.313-4.97v-.672h-.5v.657c0 .656-.125 1.171-.375 1.593-.266.454-.672.829-1.22 1.157.126.109.329.265.438.359.39-.281.672-.531.906-.828.204-.266.36-.578.5-.985.126.36.344.672.594.938.25.281.547.484.844.656.11-.14.234-.281.36-.406-.47-.203-.876-.516-1.141-.953-.266-.406-.406-.922-.406-1.516zm0 0"/></symbol><symbol overflow="visible" id="aT"><path d="M1.39-.047c0 .766.829 1.406 2.407 1.406S6.203.734 6.203-.047c0-.781-.828-1.406-2.406-1.406-1.578 0-2.406.625-2.406 1.406zm.5 0c0-.594.782-.984 1.923-.984 1.093 0 1.874.39 1.874.984 0 .61-.78 1-1.875 1-1.14 0-1.921-.39-1.921-1zm2.063-4.406h1.64v.922h-1.64zm0 2.14v-.796h1.64v1.562h.5v-4.328h-.5v1h-1.64v-.656H.843v3.218zm-.469-.421H1.313V-5.11h2.171zm0 0"/></symbol><symbol overflow="visible" id="aU"><path d="M6.703-2.156v-.422H.25v.422h1.813v1.078C1.359-.86.968-.438.968.047c0 .75.922 1.312 2.515 1.312C5.078 1.36 5.97.797 5.97.047c0-.469-.344-.89-1.063-1.11v-1.093zm-2.281.969a5.536 5.536 0 0 0-.938-.079c-.328 0-.671.016-.937.079v-.97h1.875zM5.453.046c0 .562-.828.906-1.969.906C2.328.953 1.5.61 1.5.047c0-.594.813-.922 1.969-.922 1.14 0 1.984.328 1.984.922zM1.031-4.578c0 .75.86 1.344 2.438 1.344 1.594 0 2.453-.579 2.453-1.329s-.86-1.359-2.453-1.359c-1.578 0-2.438.594-2.438 1.344zm.532 0c0-.578.75-.953 1.906-.953s1.937.39 1.937.968c0 .547-.797.922-1.937.922-1.156 0-1.906-.39-1.906-.937zm0 0"/></symbol><symbol overflow="visible" id="aV"><path d="M2.531-4.063C1.5-4.063.844-3.563.844-3S1.5-1.953 2.53-1.953c1.063 0 1.703-.484 1.703-1.047S3.61-4.063 2.531-4.063zM3.703-3c0 .422-.406.64-1.172.64-.75 0-1.172-.234-1.172-.64 0-.438.422-.672 1.172-.672.766 0 1.172.297 1.172.672zm2.235 4.14V-1.53h-.485v.843H2.11v-.843h-.5V1.14zM5.452.735H2.11V-.28h3.344zm1.484-4.406v-.437H5.923v-1.766h-.5v4h.5v-1.797zM3.563-5.469v-.406H1.47v.406zm.985 1.016v-.422H.53v.422zm0 0"/></symbol><symbol overflow="visible" id="aW"><path d="M6.703-1.484v-.422H.25v.422h3v2.703h.516v-2.703zm-2.969-3.86v-.343h-.53v.343c0 .594-.329 1.094-.845 1.469-.484.344-1.125.594-1.796.75.14.11.312.313.39.406a5.21 5.21 0 0 0 1.485-.64A2.952 2.952 0 0 0 3.484-4.5c.204.484.594.86 1.032 1.14A5.024 5.024 0 0 0 6-2.718c.11-.14.219-.297.36-.422-.61-.14-1.298-.39-1.798-.78-.5-.36-.828-.845-.828-1.423zm0 0"/></symbol><symbol overflow="visible" id="aX"><path d="M5.203-1.406c-.375.078-1.656.297-2.797.297l-.984.015v-3.875h2.766v-.437H.905v4.765h1.578c.797 0 2.047-.187 2.72-.312zm.313-4.469v7.094h.5v-7.094zm0 0"/></symbol><symbol overflow="visible" id="aY"><path d="M5.75-5.875v7.094h.5v-7.094zm-4.938.89H2.36v.563c0 .828-.171 1.578-.53 2.234A4.61 4.61 0 0 1 .28-.577c.14.094.375.25.469.36.39-.298.813-.704 1.156-1.173.328-.468.594-.968.719-1.437.188.547.469 1.031.828 1.453.313.36.672.688 1.063.953.109-.11.28-.281.406-.39-.688-.422-1.219-.907-1.547-1.5-.328-.547-.5-1.188-.5-1.954v-.718h1.61v-.438H.811zm0 0"/></symbol><symbol overflow="visible" id="aZ"><path d="M6.047-2.188v-3.687h-.5v1.453h-1.36V-4h1.375v1.813zm.187 3.313V.719H2.078v-.86h3.969v-1.656H1.563v.422H5.53v.828H1.563v1.672zm-1.25-4.36c-.718.126-1.546.235-2.437.25l-1.266.016v-.922h2.594v-.39H1.281v-.907h2.657v-.406H.812v3.032c.063 0 1.188.015 2.047-.032a16.97 16.97 0 0 0 2.125-.25zm0 0"/></symbol><symbol overflow="visible" id="ba"><path d="M3-5.406v-.422H1.328v.422zm.813.906v-.406H.546v.406zm-1.641.344c-.86 0-1.438.453-1.453 1.062-.016.625.594 1.078 1.453 1.078.86 0 1.437-.453 1.453-1.078.016-.594-.578-1.062-1.453-1.062zm0 1.75c-.61 0-.969-.266-.969-.688 0-.39.36-.687.969-.687.625 0 .984.297.984.687 0 .453-.36.688-.984.688zm4.312 3.531V.703H2.281V.016h4.031v-1.547H1.766v.422h4.03v.703h-4.03v1.531zm-.171-3.016v-3.984h-.5v3.984zm-1.235 0V-5.75h-.5v1.953h-.812v.422h.812v1.484zm0 0"/></symbol><symbol overflow="visible" id="bb"><path d="M6.719.172v-.438H.234v.438zM3.734-5v-.563H3.22V-5c0 .625-.344 1.25-.86 1.766A4.567 4.567 0 0 1 .516-2.141c.187.141.328.282.437.422a5.694 5.694 0 0 0 1.594-1c.422-.39.75-.844.937-1.312.157.5.563 1.015 1.063 1.422.469.406 1.016.718 1.469.875.109-.141.25-.282.39-.407A4.685 4.685 0 0 1 4.61-3.219C4.08-3.734 3.734-4.375 3.734-5zm0 0"/></symbol><symbol overflow="visible" id="bc"><path d="M4.844.875V-5.75h-.5v2.531H3.156v.469h1.188V.875zm1.312.344v-7.094h-.5v7.094zM.781-.375c.735-.547 1.36-1.188 1.813-2 .422-.797.672-1.75.703-2.984h-2.5v.421h2c0 .5-.11 1.032-.266 1.47a73.26 73.26 0 0 1-1.906.046v.406c.063 0 1.14 0 1.75-.046C2-2.125 1.312-1.36.297-.672c.14.063.375.203.484.297zm0 0"/></symbol><symbol overflow="visible" id="bd"><path d="M5.563-2.86V1.22h.5v-7.094h-.5v2.578H3.968c-.031-.875-.266-1.469-.578-1.844-.329-.375-.704-.53-1.063-.53-.36 0-.781.155-1.11.577C.907-4.672.657-4 .657-3c0 .984.235 1.656.547 2.078.328.422.734.61 1.125.61.375 0 .781-.172 1.094-.579.312-.406.547-1.046.562-1.968zM1.14-3c0-1.172.421-2.25 1.187-2.25S3.5-4.172 3.5-3c0 1.188-.406 2.25-1.172 2.25-.765 0-1.187-1.047-1.187-2.25zm0 0"/></symbol><symbol overflow="visible" id="be"><path d="M2.297-5.016h2.375L4.64-2.453H2.328zM6.719.234v-.421h-3v-1.844h2.375v-.422h-.969l.031-2.563h.782v-.437H1v.437h.797l.031 2.563H.844v.422h2.375v1.844H.234v.421zm0 0"/></symbol><symbol overflow="visible" id="bf"><path d="M6.047 1.14v-2.515H1.594v2.516zM5.563.704h-3.47V-.953h3.47zm.484-2.484v-4.094h-.5v1.563H4.203v.437h1.36v2.094zM4.984-2.875c-.578.125-1.906.266-2.562.266l-1.14.015v-1.078h2.546v-1.922H.813v.422h2.53v1.094H.814v1.937c.062 0 .921 0 1.703-.015.75-.031 1.984-.188 2.468-.281zm0 0"/></symbol><symbol overflow="visible" id="bg"><path d="M6.094 1.14v-2.874h-.5v.921H2.109v-.921h-.5V1.14zm-.5-.421H2.109V-.406h3.485zm-1.64-3.125V-4h1.64v1.922h.5v-3.797h-.5v1.438h-1.64V-5.61h-.47v1.125H1.313V-5.61h-.47v3.203zm-.47-.422H1.313v-1.235h2.171zm0 0"/></symbol><symbol overflow="visible" id="aE"><path d="M.734-8.39h2.47v1.265c0 .543-.06 1.02-.173 1.422a3.82 3.82 0 0 1-.562 1.156c-.25.356-.582.711-.985 1.063-.398.355-.879.746-1.437 1.171l.812.782a26.94 26.94 0 0 0 1.672-1.39A6.196 6.196 0 0 0 3.72-4.329c.445.512.91 1.012 1.39 1.5.477.492.883.887 1.22 1.187l.812-.812c-.45-.383-.93-.832-1.438-1.344-.5-.52-.992-1.066-1.469-1.64.07-.239.13-.489.172-.75.04-.27.063-.555.063-.86V-8.39h2.437v-1H.734zm9 2.328v-4.157l-1.265.203V1.516h1.265v-6.532h1.875v-1.046zm0 0"/></symbol><symbol overflow="visible" id="aF"><path d="M6.86-.469v-2.687h4.593v-1.031H.422v1.03h5.14v2.688zM2.03-1.829v2.97c0 .332.063.566.188.703.133.144.394.218.781.218h6.938V1.048H3.516c-.086 0-.145-.02-.172-.047C3.32.969 3.313.91 3.313.828v-2.656zm1.422-6.968H8.36v2.25H3.703c-.105 0-.176-.016-.203-.047-.031-.039-.047-.101-.047-.187zM2.172-6.453c0 .355.078.598.234.719.153.125.39.187.703.187h6.547v-4.25H2.172zm0 0"/></symbol><symbol overflow="visible" id="aH"><path d="M8.656-4.078c-.68.105-1.34.207-1.984.297-.637.086-1.274.16-1.906.219-.649.074-1.305.144-1.97.203-.655.054-1.347.101-2.062.14l.094 1.047c.164-.008.375-.02.625-.031.246-.02.52-.047.813-.078.277-.02.562-.04.843-.063.278-.027.536-.062.766-.094v3.704h1.281v-3.86c.676-.07 1.336-.148 1.985-.234.652-.082 1.203-.16 1.64-.235zm1.89-6.14l-1.265.202V1.516h1.266zM4.47-4.579c.933 0 1.687-.234 2.25-.703.57-.477.86-1.098.86-1.86v-.203c0-.746-.294-1.36-.876-1.828-.574-.465-1.32-.703-2.234-.703-.98 0-1.746.242-2.297.719-.555.469-.828 1.074-.828 1.812v.203c0 .75.273 1.368.828 1.844.55.48 1.316.719 2.297.719zM6.344-7.25c0 .531-.176.945-.516 1.234-.336.293-.789.438-1.36.438-.624 0-1.1-.14-1.421-.422-.313-.29-.469-.707-.469-1.25 0-.465.16-.852.485-1.156.32-.309.789-.469 1.406-.469.57 0 1.023.16 1.36.469.339.304.515.691.515 1.156zm0 0"/></symbol><symbol overflow="visible" id="aI"><path d="M9.297-.375h1.25v-9.844l-1.25.172v7.297H6.469v.969h2.828zm-4.75-4.86c.883 0 1.598-.187 2.14-.562.54-.383.813-.96.813-1.734v-.203c0-.746-.285-1.313-.844-1.688-.562-.383-1.27-.578-2.11-.578-.898 0-1.616.195-2.155.578-.532.375-.797.942-.797 1.688v.203c0 .75.258 1.324.781 1.718.52.387 1.242.579 2.172.579zm1.75-2.406c0 .532-.164.91-.484 1.125-.313.22-.739.329-1.266.329-.563 0-.996-.11-1.297-.329-.305-.214-.453-.593-.453-1.125 0-.464.148-.82.453-1.062.309-.246.742-.375 1.297-.375.52 0 .941.129 1.266.375.32.242.484.598.484 1.062zM2.969-1.062V1.14c0 .332.062.566.187.703.133.144.395.218.781.218h6.954V1.048H4.453c-.086 0-.144-.02-.172-.047C4.258.969 4.25.91 4.25.828v-1.89zm5.703-3.97c-.586.095-1.211.18-1.875.25-.656.063-1.324.122-2 .173-.668.043-1.34.086-2.016.125-.668.03-1.308.058-1.922.078l.079 1.015c.414-.007.843-.03 1.28-.062.446-.027.884-.063 1.313-.094v1.89h1.297v-2c.29-.007.617-.03.984-.062.364-.027.727-.062 1.094-.094.352-.027.692-.062 1.016-.093.332-.04.613-.082.844-.125zm0 0"/></symbol></defs><g fill="#393536"><use xlink:href="#a" x="535.245" y="48.426"/><use xlink:href="#b" x="540.818" y="48.426"/><use xlink:href="#c" x="546.392" y="48.426"/></g><g fill="#4f4c4d"><use xlink:href="#d" x="336.467" y="47.727"/><use xlink:href="#e" x="344.467" y="47.727"/><use xlink:href="#f" x="352.468" y="47.727"/><use xlink:href="#g" x="360.468" y="47.727"/><use xlink:href="#h" x="368.468" y="47.727"/><use xlink:href="#i" x="371.075" y="47.727"/><use xlink:href="#j" x="379.075" y="47.727"/><use xlink:href="#k" x="387.076" y="47.727"/><use xlink:href="#l" x="395.076" y="47.727"/><use xlink:href="#m" x="403.076" y="47.727"/><use xlink:href="#n" x="411.076" y="47.727"/><use xlink:href="#d" x="419.077" y="47.727"/><use xlink:href="#e" x="427.077" y="47.727"/></g><use xlink:href="#o" x="435.076" y="47.727" fill="#231f20"/><g fill="#231f20"><use xlink:href="#p" x="437.683" y="47.727"/><use xlink:href="#q" x="445.683" y="47.727"/><use xlink:href="#r" x="453.684" y="47.727"/><use xlink:href="#s" x="461.684" y="47.727"/><use xlink:href="#t" x="469.684" y="47.727"/><use xlink:href="#u" x="477.684" y="47.727"/><use xlink:href="#v" x="485.685" y="47.727"/><use xlink:href="#w" x="493.685" y="47.727"/><use xlink:href="#x" x="496.292" y="47.727"/><use xlink:href="#y" x="501.703" y="47.727"/><use xlink:href="#z" x="506.503" y="47.727"/><use xlink:href="#A" x="508.436" y="47.727"/><use xlink:href="#w" x="511.043" y="47.727"/><use xlink:href="#B" x="513.65" y="47.727"/><use xlink:href="#C" x="517.605" y="47.727"/></g><use xlink:href="#D" x="215.171" y="627.98" fill="#8a8e98"/><g fill="#33459a"><use xlink:href="#E" x="224.675" y="628.579"/><use xlink:href="#F" x="236.292" y="628.579"/><use xlink:href="#G" x="247.908" y="628.579"/></g><g fill="#231f20"><use xlink:href="#H" x="215.171" y="645.163"/><use xlink:href="#I" x="222.069" y="645.163"/><use xlink:href="#J" x="228.967" y="645.163"/><use xlink:href="#K" x="235.865" y="645.163"/><use xlink:href="#L" x="242.763" y="645.163"/></g><g fill="#231f20"><use xlink:href="#H" x="215.171" y="657.565"/><use xlink:href="#M" x="222.069" y="657.565"/><use xlink:href="#N" x="228.967" y="657.565"/><use xlink:href="#O" x="235.865" y="657.565"/><use xlink:href="#P" x="242.763" y="657.565"/><use xlink:href="#I" x="249.661" y="657.565"/><use xlink:href="#Q" x="256.559" y="657.565"/><use xlink:href="#R" x="263.457" y="657.565"/><use xlink:href="#S" x="265.705" y="657.565"/><use xlink:href="#I" x="272.603" y="657.565"/><use xlink:href="#T" x="279.501" y="657.565"/><use xlink:href="#L" x="286.399" y="657.565"/><use xlink:href="#U" x="293.297" y="657.565"/><use xlink:href="#V" x="300.195" y="657.565"/><use xlink:href="#R" x="307.093" y="657.565"/><use xlink:href="#I" x="309.341" y="657.565"/><use xlink:href="#L" x="316.239" y="657.565"/></g><use xlink:href="#D" x="213.331" y="323.714" fill="#8a8e98"/><g fill="#33459a"><use xlink:href="#W" x="222.835" y="324.314"/><use xlink:href="#F" x="234.451" y="324.314"/><use xlink:href="#X" x="246.067" y="324.314"/></g><g fill="#231f20"><use xlink:href="#H" x="213.331" y="340.898"/><use xlink:href="#I" x="220.229" y="340.898"/><use xlink:href="#J" x="227.127" y="340.898"/><use xlink:href="#K" x="234.025" y="340.898"/><use xlink:href="#L" x="240.923" y="340.898"/></g><g fill="#231f20"><use xlink:href="#H" x="213.331" y="353.3"/><use xlink:href="#Y" x="220.229" y="353.3"/><use xlink:href="#Z" x="227.127" y="353.3"/><use xlink:href="#aa" x="234.025" y="353.3"/><use xlink:href="#ab" x="240.923" y="353.3"/><use xlink:href="#ac" x="247.821" y="353.3"/><use xlink:href="#U" x="254.719" y="353.3"/><use xlink:href="#ad" x="261.617" y="353.3"/><use xlink:href="#ae" x="268.515" y="353.3"/><use xlink:href="#af" x="275.413" y="353.3"/><use xlink:href="#R" x="282.311" y="353.3"/><use xlink:href="#ag" x="284.559" y="353.3"/><use xlink:href="#ah" x="289.558" y="353.3"/><use xlink:href="#ai" x="294.224" y="353.3"/><use xlink:href="#aj" x="299.254" y="353.3"/><use xlink:href="#ak" x="306.152" y="353.3"/><use xlink:href="#al" x="313.05" y="353.3"/><use xlink:href="#am" x="319.948" y="353.3"/></g><use xlink:href="#H" x="213.331" y="365.702" fill="#231f20"/><use xlink:href="#R" x="220.229" y="365.702" fill="#231f20"/><g fill="#231f20"><use xlink:href="#ac" x="220.229" y="365.702"/><use xlink:href="#U" x="227.127" y="365.702"/><use xlink:href="#an" x="234.025" y="365.702"/><use xlink:href="#ao" x="240.923" y="365.702"/><use xlink:href="#R" x="247.821" y="365.702"/><use xlink:href="#ag" x="250.069" y="365.702"/><use xlink:href="#ah" x="255.068" y="365.702"/><use xlink:href="#ai" x="259.734" y="365.702"/><use xlink:href="#R" x="264.764" y="365.702"/><use xlink:href="#aj" x="267.012" y="365.702"/><use xlink:href="#ak" x="273.91" y="365.702"/><use xlink:href="#al" x="280.808" y="365.702"/><use xlink:href="#am" x="287.706" y="365.702"/></g><use xlink:href="#D" x="384.619" y="323.714" fill="#8a8e98"/><g fill="#33459a"><use xlink:href="#ap" x="394.123" y="324.314"/><use xlink:href="#aq" x="405.739" y="324.314"/><use xlink:href="#ar" x="417.355" y="324.314"/></g><g fill="#231f20"><use xlink:href="#H" x="384.619" y="340.898"/><use xlink:href="#as" x="391.517" y="340.898"/><use xlink:href="#at" x="398.415" y="340.898"/><use xlink:href="#au" x="405.313" y="340.898"/><use xlink:href="#J" x="412.211" y="340.898"/><use xlink:href="#af" x="419.109" y="340.898"/><use xlink:href="#R" x="426.007" y="340.898"/><use xlink:href="#K" x="428.255" y="340.898"/><use xlink:href="#L" x="435.153" y="340.898"/></g><g fill="#231f20"><use xlink:href="#H" x="384.619" y="353.3"/><use xlink:href="#T" x="391.517" y="353.3"/><use xlink:href="#av" x="398.415" y="353.3"/><use xlink:href="#aw" x="405.313" y="353.3"/><use xlink:href="#al" x="412.211" y="353.3"/><use xlink:href="#ax" x="419.109" y="353.3"/><use xlink:href="#ay" x="426.007" y="353.3"/><use xlink:href="#ac" x="432.905" y="353.3"/><use xlink:href="#U" x="439.803" y="353.3"/><use xlink:href="#ad" x="446.701" y="353.3"/><use xlink:href="#ae" x="453.599" y="353.3"/><use xlink:href="#az" x="460.497" y="353.3"/><use xlink:href="#al" x="467.395" y="353.3"/><use xlink:href="#R" x="474.293" y="353.3"/><use xlink:href="#aA" x="476.541" y="353.3"/><use xlink:href="#aB" x="483.439" y="353.3"/><use xlink:href="#aC" x="490.337" y="353.3"/><use xlink:href="#aD" x="497.235" y="353.3"/><use xlink:href="#af" x="504.133" y="353.3"/></g><g fill="#fff"><use xlink:href="#aE" x="50.27" y="165.5"/><use xlink:href="#aF" x="62.156" y="165.5"/><use xlink:href="#aG" x="74.041" y="165.5"/><use xlink:href="#aH" x="78.236" y="165.5"/><use xlink:href="#aI" x="90.122" y="165.5"/></g><use xlink:href="#D" x="384.619" y="628.349" fill="#8a8e98"/><g fill="#33459a"><use xlink:href="#aJ" x="394.123" y="628.948"/><use xlink:href="#aK" x="405.739" y="628.948"/><use xlink:href="#aL" x="417.355" y="628.948"/></g><g fill="#231f20"><use xlink:href="#H" x="384.619" y="645.532"/><use xlink:href="#as" x="391.517" y="645.532"/><use xlink:href="#aM" x="398.415" y="645.532"/><use xlink:href="#J" x="405.313" y="645.532"/><use xlink:href="#R" x="412.211" y="645.532"/><use xlink:href="#K" x="414.459" y="645.532"/><use xlink:href="#L" x="421.357" y="645.532"/></g><use xlink:href="#H" x="384.619" y="657.934" fill="#231f20"/><use xlink:href="#R" x="391.517" y="657.934" fill="#231f20"/><use xlink:href="#R" x="391.517" y="657.934" fill="#231f20"/><g fill="#231f20"><use xlink:href="#aN" x="391.517" y="657.934"/><use xlink:href="#aO" x="398.415" y="657.934"/><use xlink:href="#au" x="405.313" y="657.934"/><use xlink:href="#J" x="412.211" y="657.934"/><use xlink:href="#aP" x="419.109" y="657.934"/><use xlink:href="#R" x="426.007" y="657.934"/><use xlink:href="#ax" x="428.255" y="657.934"/><use xlink:href="#aQ" x="435.153" y="657.934"/><use xlink:href="#au" x="442.051" y="657.934"/><use xlink:href="#J" x="448.949" y="657.934"/><use xlink:href="#R" x="455.847" y="657.934"/><use xlink:href="#ax" x="458.094" y="657.934"/><use xlink:href="#J" x="464.992" y="657.934"/><use xlink:href="#aQ" x="471.89" y="657.934"/><use xlink:href="#aR" x="478.788" y="657.934"/></g><g fill="#231f20"><use xlink:href="#R" x="384.619" y="670.337"/><use xlink:href="#R" x="386.866" y="670.337"/><use xlink:href="#R" x="389.114" y="670.337"/><use xlink:href="#ax" x="391.362" y="670.337"/><use xlink:href="#aS" x="398.26" y="670.337"/><use xlink:href="#aT" x="405.158" y="670.337"/><use xlink:href="#aU" x="412.056" y="670.337"/><use xlink:href="#aV" x="418.954" y="670.337"/><use xlink:href="#au" x="425.852" y="670.337"/><use xlink:href="#J" x="432.75" y="670.337"/><use xlink:href="#af" x="439.648" y="670.337"/><use xlink:href="#R" x="446.546" y="670.337"/><use xlink:href="#V" x="448.794" y="670.337"/><use xlink:href="#aP" x="455.692" y="670.337"/><use xlink:href="#aW" x="462.59" y="670.337"/><use xlink:href="#am" x="469.488" y="670.337"/></g><g fill="#231f20"><use xlink:href="#H" x="384.619" y="682.739"/><use xlink:href="#aX" x="391.517" y="682.739"/><use xlink:href="#aY" x="398.415" y="682.739"/><use xlink:href="#aZ" x="405.313" y="682.739"/><use xlink:href="#ba" x="412.211" y="682.739"/><use xlink:href="#bb" x="419.109" y="682.739"/><use xlink:href="#bc" x="426.007" y="682.739"/><use xlink:href="#bd" x="432.905" y="682.739"/><use xlink:href="#aC" x="439.803" y="682.739"/><use xlink:href="#aV" x="446.701" y="682.739"/><use xlink:href="#be" x="453.599" y="682.739"/><use xlink:href="#bf" x="460.497" y="682.739"/><use xlink:href="#R" x="467.395" y="682.739"/><use xlink:href="#bg" x="469.643" y="682.739"/><use xlink:href="#aM" x="476.541" y="682.739"/><use xlink:href="#I" x="483.439" y="682.739"/><use xlink:href="#L" x="490.337" y="682.739"/></g></svg>