<svg xmlns="http://www.w3.org/2000/svg" xmlns:xlink="http://www.w3.org/1999/xlink" width="793.701" height="1058.268" viewBox="0 0 595.276 793.701" version="1.2"><defs><symbol overflow="visible" id="a"><path d="M2.875.031c.434 0 .82-.144 1.156-.437.332-.301.594-.64.782-1.016.183-.34.316-.71.39-1.11.082-.402.125-.804.125-1.202 0-.403-.05-.813-.14-1.22a4.843 4.843 0 0 0-.407-1.155A3.031 3.031 0 0 0 4-7.063a1.747 1.747 0 0 0-1.14-.421c-.844 0-1.473.457-1.876 1.359-.406.906-.609 1.707-.609 2.39 0 .712.203 1.52.61 2.422C1.386-.413 2.02.032 2.874.032zm0-.281c-.75 0-1.227-.441-1.422-1.328-.2-.895-.297-1.613-.297-2.156 0-.54.098-1.254.297-2.141.195-.895.672-1.344 1.422-1.344.363 0 .648.137.86.407.206.273.363.566.468.875.113.343.195.71.25 1.093.059.387.094.758.094 1.11 0 .324-.035.675-.094 1.046a9.33 9.33 0 0 1-.203 1.016c-.094.336-.254.66-.469.969-.21.305-.511.453-.906.453zm0 0"/></symbol><symbol overflow="visible" id="b"><path d="M4.094-6.734l.203-.032a.45.45 0 0 0 .14-.015c.04-.02.07-.055.094-.11l.078-.312c0-.008.008-.067.032-.172.027-.102.046-.16.046-.172 0-.058-.027-.086-.078-.078a.7.7 0 0 0-.14.016l-2.594.343c-.219.032-.352.067-.39.094-.044.031-.098.152-.157.36l-.61 2.109a.385.385 0 0 0-.046.11.438.438 0 0 0-.031.14c0 .043.02.07.062.078.04.012.078.016.11.016a10.782 10.782 0 0 1 2 .28c.433.126.796.325 1.078.595.277.273.421.652.421 1.14 0 .45-.144.867-.421 1.25a3.069 3.069 0 0 1-.985.89 5.708 5.708 0 0 1-1.015.407A5.046 5.046 0 0 1 .828.422a.758.758 0 0 0-.14.016C.632.457.609.5.609.561c0 .04.016.067.047.079a.19.19 0 0 0 .11.03c.101 0 .257-.023.468-.062A9.032 9.032 0 0 0 2.531.25c.278-.094.535-.207.766-.328a4.62 4.62 0 0 0 1.219-1.047c.363-.426.546-.914.546-1.469 0-.37-.097-.734-.28-1.078A2.1 2.1 0 0 0 4-4.5a3.72 3.72 0 0 0-1.047-.375 8.69 8.69 0 0 0-1.11-.172l-.421-.031a5.264 5.264 0 0 1-.203-.031c-.074-.008-.11-.051-.11-.125 0-.028.008-.079.032-.141a.934.934 0 0 1 .046-.14l.125-.47c.07-.226.133-.35.188-.374.05-.028.203-.063.453-.094zm0 0"/></symbol><symbol overflow="visible" id="c"><path d="M1.828-3.625c-.375.18-.726.383-1.047.61-.324.23-.484.59-.484 1.078 0 .292.078.57.234.828.164.25.36.46.578.625.239.18.493.308.766.39.27.086.555.125.86.125.34 0 .68-.05 1.015-.156.332-.102.629-.266.89-.484a2.03 2.03 0 0 0 .532-.72 2.01 2.01 0 0 0 .203-.874c0-.527-.2-.957-.594-1.281a2.944 2.944 0 0 0-1.265-.657l.328-.171c.332-.153.633-.329.906-.516.277-.195.422-.508.422-.938 0-.59-.242-1.023-.719-1.296a2.967 2.967 0 0 0-1.5-.422c-.281 0-.566.043-.844.125-.28.074-.539.199-.765.375a2.03 2.03 0 0 0-.563.625c-.148.261-.219.539-.219.828 0 .492.16.87.485 1.14.32.274.695.489 1.125.641zm1.328-.672c-.094 0-.242-.031-.437-.094a3.164 3.164 0 0 1-.438-.156 2.052 2.052 0 0 1-.703-.516 1.21 1.21 0 0 1-.297-.828c0-.183.04-.367.125-.546.09-.184.207-.336.344-.454.152-.132.328-.234.516-.296.183-.06.379-.094.578-.094.445 0 .828.144 1.14.422.32.273.485.644.485 1.109 0 .242-.059.465-.172.672-.106.21-.262.383-.469.516a2.53 2.53 0 0 1-.328.171.968.968 0 0 1-.344.094zm-.328 4.11c-.242 0-.473-.032-.687-.094a1.445 1.445 0 0 1-.594-.375 1.77 1.77 0 0 1-.36-.547 1.608 1.608 0 0 1-.125-.625c0-.352.083-.656.25-.906.165-.246.391-.47.672-.657.051-.039.141-.093.266-.156a.764.764 0 0 1 .297-.094c.09 0 .27.051.531.141.27.094.445.168.531.219.278.136.516.324.704.562.195.242.296.528.296.86 0 .199-.039.394-.109.578a2.04 2.04 0 0 1-.297.515c-.18.22-.387.371-.625.454a2.13 2.13 0 0 1-.75.124zm0 0"/></symbol><symbol overflow="visible" id="d"><path d="M6.703-5.844h-.812V.453h.812zM2.86.453h.985l1.734-6.297h-.844L3.36-.484l-1.375-5.36h-.859zm0 0"/></symbol><symbol overflow="visible" id="e"><path d="M.75.047v1.016h1.031V.046zm0 0"/></symbol><symbol overflow="visible" id="g"><path d="M7.422 1.36v-7.985h-.734v2.938h-.954V-6.5H5V.984h.734v-3.953h.954V1.36zM2.938-4.626v-.813H4.28v-.625H.813v.625h1.359v.688c0 .953-.156 1.766-.469 2.453A4.316 4.316 0 0 1 .172-.594c.234.14.531.313.687.453.36-.265.735-.656 1.047-1.093.297-.407.532-.875.64-1.297.126.422.345.828.61 1.187.297.375.64.703.969.907.14-.172.36-.36.547-.5a3.485 3.485 0 0 1-1.344-1.516c-.25-.594-.39-1.328-.39-2.172zm0 0"/></symbol><symbol overflow="visible" id="h"><path d="M6.078-6.625V-.75h.75v-3.266h1.11v-.64h-1.11v-1.969zm-.344 3.234c-.546.11-2.015.282-2.843.297l-1.313.016v-2.547H4.61v-.64H.844v3.843c.031 0 1.375 0 1.984-.015 1.047-.032 2.328-.188 2.906-.329zm1.344 4.594v-.64H2.422v-2.016h-.75v2.656zm0 0"/></symbol><symbol overflow="visible" id="i"><path d="M7.203 1.36v-7.985h-.75v7.984zM1.031-4.376c0 1.094.875 2 2.125 2 1.235 0 2.125-.906 2.125-2 0-1.094-.89-1.984-2.125-1.984-1.25 0-2.125.89-2.125 1.984zm.735 0c0-.75.53-1.36 1.39-1.36.86 0 1.36.61 1.36 1.36 0 .75-.5 1.36-1.36 1.36-.86 0-1.39-.61-1.39-1.36zm4.406 3.016c-.64.109-2.531.25-3.219.265-.328.016-2.312.016-2.344.016v.656c.016 0 1.657.016 1.985 0a26.518 26.518 0 0 0 3.578-.297zm0 0"/></symbol><symbol overflow="visible" id="j"><path d="M7.438-4.797H6.046v-.875l.047-.844-.735-.109.063.953v.875h-.844v.563h.844c0 1.39-.125 3.125-1.016 4.28v-.155L2.86-.016v-.562h1.5v-.485h-1.5v-.421h1.407V-3.97H2.859v-.515h1.547v-.485H2.86v-.687c.422-.078 1.016-.188 1.5-.328l-.234-.485c-.969.328-2.594.5-3.438.485l.204.5c.359 0 .859-.032 1.359-.094v.61H.453v.484H2.25v.515H.875v2.485H2.25v.421H.734v.485H2.25v.61L.469.108l.14.563L4.094.39c-.11.109-.235.218-.375.343l.453.5C5 .406 5.484-.437 5.703-1.296c.25-.954.281-1.891.313-2.938h.828v2.578c0 .468.031 1.906-.485 2.093-.25.094-.437.079-.875.032l.25.687c.313 0 .672-.078.891-.172.828-.312.781-1.734.797-2.453.016-1.11.016-2.203.016-3.328zm-3.75 1.281v.563h-.829v-.563zm0 1.016v.578h-.829V-2.5zM2.266-3.516v.563h-.844v-.563zm0 1.016v.578h-.844V-2.5zm0 0"/></symbol><symbol overflow="visible" id="k"><path d="M.61-3.188h3.5v-.5H2.561v-.656H3.72v-.468H2.563v-.641h1.406v-.469H2.563l.109-.625-.75-.078.062.703H.672v.469h1.312v.64H.844v.47h1.14v.655H.61zm6.796 1.22h.407v-.516h-.407v-1.297H4.328v.5h1.219v.797H3.984v.515h1.563v.735H4.313v.515h1.234v.875c0 .157.016.313-.172.375-.156.078-.406.047-.688-.015.125.328.204.609.235.64.25.016.594.032.844-.093.265-.125.328-.407.328-.594V-.72h1.312zM3.72-2.642H.859v3.875h.532V-.469h1.78v.563c0 .125.017.375-.124.453-.156.078-.328.047-.688-.031l.204.64c.28.016.515.016.765-.093.281-.125.39-.391.39-.688zm3.125-.64v.797h-.75v-.797zm0 1.312v.735h-.75v-.735zM3.172-2.14v1.188h-.61v-1.188zM2-2.14v1.188h-.61v-1.188zm5-1.953c.203-.297.297-.531.563-1.156L7-5.484c-.14.437-.25.796-.484 1.156zm.266-2.312c-.813.328-2.172.39-3.157.36l.141.5c1.156 0 2.453-.048 3.406-.376zM6.328-4.36c-.172-.329-.281-.657-.469-1.094l-.5.25c.172.422.25.734.454 1.094zm-1.11 0c-.171-.235-.327-.688-.5-1l-.468.265c.156.36.313.782.5 1.047zm0 0"/></symbol><symbol overflow="visible" id="l"><path d="M3.344-3.938h1.469l.03.547H3.517v.422h1.328v.406H3.609v1.657h.985c-.313.453-.61.781-1.14 1.062l.343.438c.484-.281.75-.61 1.047-1.047V1.03h.547V-.5c.25.313.625.672.89.89l.36-.359c-.329-.203-.72-.625-.97-.937h1v-1.656h-1.28v-.407h1.375v-.422h-1.36l.047-.484-.469-.047v-2.437H2.781v7.53h.563zm1.5 2.594h-.719v-.781h.719zM4.75-1.5c-.063-.188-.125-.375-.172-.547l-.328.11c.047.203.11.343.188.53zm1.406.156h-.765v-.781h.765zm-.484-.703c-.047.172-.125.36-.188.547l.313.094c.094-.188.156-.328.203-.532zM4.453-4.39h-1.11v-.562h1.11zm0-.968h-1.11v-.579h1.11zm3.063-1.032H5.375v2.407h1.578V.328c0 .281-.047.313-.234.313l-.61-.032.188.547c.062 0 .64-.031.812-.093.375-.141.407-.485.407-.86zm-.563 1.97h-1v-.532h1zm0-.938h-1v-.61h1zM2.641-2.406c-.313-.531-.407-.719-.657-1.125l-.14.156v-.75h.718v-.516H1.86v-1.015l.079-.797-.72-.078.063.922v.968H.328v.516h.922a7.56 7.56 0 0 1-.969 2.766L.766-1c.187-.406.328-.688.484-1.047V1.22h.594v-3.86c.156.25.203.36.36.641zm0 0"/></symbol><symbol overflow="visible" id="m"><path d="M6.844-2.688l-5.219-3.14V.453zm-.61 0L1.922-.108v-5.157zm0 0"/></symbol><symbol overflow="visible" id="n"><path d="M4.531.375v-.5h-3.39c.125-.547.453-1.11.968-1.453l1.032-.719c.609-.437 1.25-.922 1.296-1.937.047-1.016-.687-1.891-1.968-1.891-1.313 0-1.985 1-1.969 1.953h.563c0-.734.453-1.39 1.375-1.39.874 0 1.39.562 1.374 1.328-.015.625-.437 1.03-.937 1.39l-1.047.735C.594-1.234.5-.422.468.375zm0 0"/></symbol><symbol overflow="visible" id="o"><path d="M3 .438v-6.391h-.453c-.016.328-.203.64-.438.828-.328.219-.625.313-.968.313v.484h1.265V.438zm0 0"/></symbol><symbol overflow="visible" id="p"><path d="M1.484.969V0H.5v.969zm0 0"/></symbol><symbol overflow="visible" id="q"><path d="M2.469-6.078C1.016-6.078.234-4.703.234-2.766.234-.812 1.016.563 2.47.563c1.453 0 2.25-1.375 2.25-3.329 0-1.937-.797-3.312-2.25-3.312zm0 6.094C1.453.016.906-1.172.906-2.766c0-1.578.547-2.765 1.563-2.765 1.031 0 1.562 1.187 1.562 2.765C4.031-1.172 3.5.016 2.47.016zm0 0"/></symbol><symbol overflow="visible" id="r"><path d="M2.672-3.813a2.255 2.255 0 0 0-1.453.454l.265-1.985 2.797-.015v-.516H1L.547-2.562h.531c.219-.329.656-.72 1.438-.704.812.032 1.437.735 1.39 1.735C3.875-.656 3.328.047 2.422.047 1.547.047 1-.641.937-1.172H.36C.484-.266 1.25.61 2.453.61c1.031 0 2.031-.78 2.078-2.171.047-1.391-.937-2.157-1.86-2.25zm0 0"/></symbol><symbol overflow="visible" id="t"><path d="M1.688 1.406v-8.203H1.14v8.203zm0 0"/></symbol><symbol overflow="visible" id="u"><path d="M4.625-.484v-5.157H.891v5.157zM7.094 1.25v-7.89h-.657v7.89zM3.969-1.047H1.547v-4.031h2.422zm0 0"/></symbol><symbol overflow="visible" id="v"><path d="M4.453-.578v-.547c-.36.063-1.25.14-1.812.156l-1.25.016v-1.875h2.234V-5.75H.719v.563h2.25v1.796H.734v3l1.75-.015c.704-.016 1.61-.11 1.97-.172zM7.25 1.25v-7.89h-.656v3.124h-1.11v-2.953h-.64v7.36h.64v-3.813h1.11V1.25zm0 0"/></symbol><symbol overflow="visible" id="w"><path d="M5.36-4.203c0-1.047-.891-1.922-2.157-1.922-1.25 0-2.14.875-2.14 1.922 0 1.062.89 1.953 2.14 1.953 1.266 0 2.156-.89 2.156-1.953zM7.374 1.25v-7.89h-.672v7.89zM6.391-.61v-.578c-.672.094-2.11.172-3.25.188L.578-.984v.562L3.11-.438C4.156-.453 5.83-.53 6.391-.609zM4.67-4.202c0 .75-.515 1.375-1.468 1.375-.937 0-1.469-.625-1.469-1.375 0-.734.532-1.36 1.47-1.36.952 0 1.468.625 1.468 1.36zm0 0"/></symbol><symbol overflow="visible" id="x"><path d="M4.188-6.078v-.516H1.624v.516zm1.187 1.187v-.515H.5v.515zm2.734 1.063v-.563H6.953v-2.25h-.656v5.047h.656v-2.234zM2.938-1.844c1.28 0 2.046-.562 2.046-1.297 0-.734-.75-1.28-2.046-1.28-1.266 0-2.063.546-2.063 1.28 0 .735.797 1.297 2.063 1.297zM6.952 1.25v-2.344H1.422v.532h4.875V1.25zM4.297-3.14c0 .453-.469.78-1.36.78-.874 0-1.343-.328-1.343-.78 0-.438.468-.782 1.343-.782.891 0 1.36.328 1.36.781zm0 0"/></symbol><symbol overflow="visible" id="y"><path d="M7.453 1.078V.531H2.47v-1.953h-.656v2.5zM7.25-.906v-5.735h-.656v1.063H4.437c-.375-.484-.984-.797-1.718-.797-1.25 0-2.125.875-2.125 1.969 0 1.078.875 1.953 2.125 1.953.781 0 1.437-.344 1.797-.89h2.078v2.437zm-.656-3H4.75a1.76 1.76 0 0 0 .078-.5c0-.219-.031-.422-.094-.61h1.86zM2.719-5.781c.922 0 1.422.61 1.422 1.375 0 .75-.5 1.36-1.422 1.36-.922 0-1.438-.61-1.438-1.36 0-.766.516-1.375 1.438-1.375zm0 0"/></symbol><symbol overflow="visible" id="z"><path d="M7.938-2.203v-.563H6.5c.031-.218.188-.89.266-1.468.109-.704.234-1.625.25-1.922H1.078v.562h5.188c-.079.89-.344 2.375-.454 2.828H.173v.563h3.375V1.25h.656v-3.453zm0 0"/></symbol><symbol overflow="visible" id="A"><path d="M4.672-.75C4.359-.953 3.938-1.328 3.5-2c-.422-.656-.64-1.625-.64-2.453v-.656h1.453v-.547H.703v.547h1.469v.656c0 .812-.188 1.594-.547 2.297A5.176 5.176 0 0 1 .235-.5l.53.406a6.092 6.092 0 0 0 1.157-1.328c.328-.531.531-1 .594-1.281.078.281.328.86.671 1.312.36.5.75.875 1.032 1.079zm2.86 2v-7.89H6.89v3.171H5.766v-3h-.641v7.36h.64v-3.75h1.126V1.25zm0 0"/></symbol><symbol overflow="visible" id="B"><path d="M5.61-2.672v-.547c-.532.094-1.516.188-2.329.203l-1.875.032v-2.532h3.235v-.546H.75v3.625c.063 0 1.406.015 2.328-.032 1.016-.031 2-.125 2.531-.203zM6.827-6.64h-.656v5.735h.656v-2.938H8v-.562H6.828zm.266 7.72V.53H2.25V-1.5h-.656v2.578zm0 0"/></symbol><symbol overflow="visible" id="C"><path d="M5.36-2.313v-.546H.171v.546zm0 0"/></symbol><symbol overflow="visible" id="D"><path d="M4.64-.75c-.312-.203-.734-.578-1.156-1.234-.437-.672-.656-1.641-.656-2.47v-.655h1.453v-.547H.671v.547h1.47v.656c0 .812-.188 1.578-.547 2.297A5.205 5.205 0 0 1 .187-.5l.547.406c.375-.312.829-.828 1.157-1.328.328-.531.53-1 .593-1.281.079.281.313.86.657 1.312.375.5.765.891 1.046 1.079zM5.89.89v-7.343h-.64v2.766H3.89v.578h1.36v4zm1.626.36v-7.89h-.657v7.89zm0 0"/></symbol><symbol overflow="visible" id="E"><path d="M4.313-2.64v-.563c-.36.078-1.266.172-1.813.187l-1.078.032V-6.25H.766v3.844l1.671-.031c.75-.032 1.547-.126 1.876-.204zm2.953.687v-4.688h-.641v4.688zm-1.75 0v-4.563h-.641v1.438H3.203v.562h1.672v2.563zM7.25 1.25v-2.688H1.578v.563h5.016V1.25zm0 0"/></symbol><symbol overflow="visible" id="F"><path d="M5.484-2.484c-.359-.125-1.109-.657-1.562-1.188-.422-.469-.719-1.265-.719-2v-.734h-.687v.734c0 .719-.266 1.5-.704 2.094A4.948 4.948 0 0 1 .22-2.297l.453.438c.422-.204.984-.61 1.437-1.125.407-.47.625-.891.75-1.282.125.375.407.797.766 1.172.453.485 1.14.953 1.406 1.078zM7.313-.922V-6.64h-.657v5.72zm.171 2V.531h-4.89v-1.89h-.64v2.437zm0 0"/></symbol><symbol overflow="visible" id="G"><path d="M6.281.406l.016-6.297h-.734L3.421-.28l-2.125-5.61H.563V.406h.593v-5.031L3.063.406h.734l1.89-5.047V.406zm0 0"/></symbol><symbol overflow="visible" id="H"><path d="M3.11-6.047c-1.72 0-2.813 1.36-2.813 3.313C.297-.766 1.39.594 3.109.594c1.72 0 2.829-1.36 2.829-3.328 0-1.954-1.11-3.313-2.829-3.313zm0 6.078C1.78.031.937-1.125.937-2.734c0-1.61.843-2.75 2.171-2.75 1.313 0 2.172 1.14 2.172 2.75C5.281-1.125 4.421.03 3.11.03zm0 0"/></symbol><symbol overflow="visible" id="I"><path d="M5.14-5.89h-.609l.016 4.25C4.547-.735 3.969.03 2.78.03c-1.203 0-1.75-.765-1.75-1.672v-4.25H.438v4.36C.438-.375 1.265.594 2.78.594c1.516 0 2.36-.969 2.36-2.125zm0 0"/></symbol><symbol overflow="visible" id="J"><path d="M3.61-5.5v-.578H1.405v.578zM5.874.89v-7.343h-.656v3.234H3.953v.578H5.22V.891zm1.61.36v-7.89h-.641v7.89zM4.577-.813c-.266-.14-.64-.375-1.094-.968-.375-.485-.609-1.188-.609-1.844v-.406h1.516v-.563H.609v.563h1.563v.406c0 .64-.266 1.39-.656 1.906-.438.594-1.094 1-1.36 1.14l.516.454c.234-.125.719-.469 1.125-.938.39-.453.656-1 .719-1.25.062.25.328.766.703 1.188.422.484.797.734.953.813zm0 0"/></symbol><symbol overflow="visible" id="K"><path d="M7.281-2.484v-4.157h-.656v1.22H5.062v.546h1.563v.969H4.922v.531h1.703v.89zm.188 3.656V.656H2.53v-.86h4.735v-1.874H1.859v.515h4.735v.86H1.859v1.875zM4.797-6.062H1.03v.546H3.97c-.078.266-.36 1.032-1.188 1.657-.781.593-1.656.875-2.25 1.03l.375.438a6.299 6.299 0 0 0 2.485-1.234c.812-.64 1.312-1.625 1.406-2.438zm0 0"/></symbol><symbol overflow="visible" id="L"><path d="M3.469-2.953c.406-.188.89-.64.89-1.453.016-.922-.859-1.719-1.906-1.719-1.172 0-1.969.813-1.937 1.797h.578c0-.625.406-1.25 1.328-1.25.797 0 1.328.516 1.312 1.187 0 .579-.328.97-.828 1.141-.281.094-.61.094-.875.094v.531c.25 0 .547 0 .875.063.453.093 1.031.546 1.031 1.234 0 .781-.609 1.375-1.484 1.375C1.406.047.875-.703.875-1.406H.312C.297-.313 1.188.609 2.438.609c1.28 0 2.14-.828 2.156-1.937 0-.719-.485-1.281-1.125-1.625zm0 0"/></symbol><symbol overflow="visible" id="M"><path d="M7.031-4.813c0-.968-1.125-1.703-2.984-1.703-1.828 0-2.969.735-2.969 1.704 0 .968 1.14 1.687 2.969 1.687 1.86 0 2.984-.719 2.984-1.688zM7.938-1.5v-.563H.171v.563h2.11v2.672h.655V-1.5H5.22v2.75h.656V-1.5zM4.046-5.969c1.281 0 2.281.453 2.281 1.157 0 .687-1 1.14-2.281 1.14-1.281 0-2.281-.453-2.281-1.14 0-.72 1-1.157 2.28-1.157zm0 0"/></symbol><symbol overflow="visible" id="N"><path d="M7.25-1.844V-6.64h-.656v1.032H4.406c-.375-.47-.984-.766-1.703-.766-1.234 0-2.125.86-2.125 1.922 0 1.062.89 1.922 2.125 1.922.75 0 1.375-.328 1.735-.813h2.156v1.5zM7.36-.14c0-.906-1-1.578-2.891-1.578-1.875 0-2.89.657-2.89 1.563 0 .906 1.015 1.562 2.89 1.562 1.89 0 2.89-.64 2.89-1.547zm-.766-3.765H4.719c.062-.172.11-.36.11-.547 0-.219-.048-.422-.11-.61h1.875zm-2.469-.547c0 .734-.5 1.328-1.422 1.328-.922 0-1.437-.594-1.437-1.328 0-.734.515-1.328 1.437-1.328s1.422.593 1.422 1.328zM2.265-.156c0-.64.891-1 2.204-1 1.297 0 2.203.39 2.203 1.015 0 .641-.906 1-2.203 1C3.156.86 2.266.47 2.266-.156zm0 0"/></symbol><symbol overflow="visible" id="O"><path d="M4.656-4.453c0-1.063-.86-1.922-2.11-1.922-1.233 0-2.124.86-2.124 1.922 0 1.062.89 1.922 2.125 1.922 1.25 0 2.11-.86 2.11-1.922zm3.36 1.234v-.547H6.844v-1.14h1.172v-.563H6.844V-6.64h-.657v4.672h.657v-1.25zM6.859 1.25v-2.672h-5.5v.547h4.86V1.25zM3.97-4.453c0 .734-.5 1.328-1.422 1.328-.922 0-1.422-.594-1.422-1.328 0-.734.5-1.328 1.422-1.328.922 0 1.422.593 1.422 1.328zm0 0"/></symbol></defs><g fill="#393536"><use xlink:href="#a" x="42.468" y="48.426"/><use xlink:href="#b" x="48.041" y="48.426"/><use xlink:href="#c" x="53.614" y="48.426"/></g><g fill="#231f20"><use xlink:href="#d" x="74.885" y="47.727"/><use xlink:href="#e" x="82.886" y="47.727"/><use xlink:href="#f" x="85.492" y="47.727"/><use xlink:href="#g" x="88.099" y="47.727"/><use xlink:href="#h" x="96.1" y="47.727"/><use xlink:href="#i" x="104.1" y="47.727"/><use xlink:href="#f" x="112.1" y="47.727"/><use xlink:href="#j" x="114.707" y="47.727"/><use xlink:href="#k" x="122.707" y="47.727"/><use xlink:href="#l" x="130.707" y="47.727"/></g><use xlink:href="#m" x="294.623" y="345.004" fill="#33459a"/><g fill="#231f20"><use xlink:href="#n" x="302.64" y="345.004"/><use xlink:href="#o" x="307.503" y="345.004"/><use xlink:href="#p" x="312.365" y="345.004"/><use xlink:href="#q" x="314.524" y="345.004"/><use xlink:href="#r" x="319.386" y="345.004"/><use xlink:href="#p" x="324.249" y="345.004"/><use xlink:href="#n" x="326.407" y="345.004"/><use xlink:href="#o" x="331.27" y="345.004"/><use xlink:href="#s" x="336.133" y="345.004"/><use xlink:href="#s" x="339.128" y="345.004"/></g><use xlink:href="#t" x="342.122" y="345.004" fill="#616471"/><g fill="#231f20"><use xlink:href="#s" x="344.88" y="345.004"/><use xlink:href="#s" x="347.875" y="345.004"/></g><g fill="#33459a"><use xlink:href="#u" x="350.87" y="345.004"/><use xlink:href="#v" x="358.886" y="345.004"/><use xlink:href="#w" x="366.903" y="345.004"/><use xlink:href="#x" x="374.919" y="345.004"/><use xlink:href="#y" x="382.936" y="345.004"/><use xlink:href="#z" x="390.952" y="345.004"/><use xlink:href="#A" x="398.969" y="345.004"/><use xlink:href="#B" x="406.985" y="345.004"/><use xlink:href="#C" x="415.001" y="345.004"/><use xlink:href="#D" x="420.402" y="345.004"/><use xlink:href="#E" x="428.418" y="345.004"/><use xlink:href="#F" x="436.434" y="345.004"/><use xlink:href="#s" x="444.451" y="345.004"/><use xlink:href="#G" x="447.446" y="345.004"/><use xlink:href="#H" x="454.212" y="345.004"/><use xlink:href="#I" x="460.343" y="345.004"/><use xlink:href="#s" x="465.822" y="345.004"/><use xlink:href="#J" x="468.817" y="345.004"/><use xlink:href="#K" x="476.834" y="345.004"/></g><use xlink:href="#m" x="286.607" y="693.734" fill="#33459a"/><g fill="#231f20"><use xlink:href="#n" x="294.623" y="693.734"/><use xlink:href="#o" x="299.486" y="693.734"/><use xlink:href="#p" x="304.349" y="693.734"/><use xlink:href="#q" x="306.507" y="693.734"/><use xlink:href="#r" x="311.37" y="693.734"/><use xlink:href="#p" x="316.233" y="693.734"/><use xlink:href="#L" x="318.391" y="693.734"/><use xlink:href="#o" x="323.254" y="693.734"/><use xlink:href="#s" x="328.116" y="693.734"/><use xlink:href="#s" x="331.112" y="693.734"/></g><use xlink:href="#t" x="334.106" y="693.734" fill="#616471"/><g fill="#231f20"><use xlink:href="#s" x="336.863" y="693.734"/><use xlink:href="#s" x="339.859" y="693.734"/></g><g fill="#33459a"><use xlink:href="#u" x="342.854" y="693.734"/><use xlink:href="#v" x="350.87" y="693.734"/><use xlink:href="#w" x="358.886" y="693.734"/><use xlink:href="#x" x="366.903" y="693.734"/><use xlink:href="#y" x="374.919" y="693.734"/><use xlink:href="#z" x="382.936" y="693.734"/><use xlink:href="#A" x="390.952" y="693.734"/><use xlink:href="#B" x="398.969" y="693.734"/><use xlink:href="#C" x="406.985" y="693.734"/><use xlink:href="#M" x="412.385" y="693.734"/><use xlink:href="#N" x="420.402" y="693.734"/><use xlink:href="#D" x="428.418" y="693.734"/><use xlink:href="#O" x="436.435" y="693.734"/><use xlink:href="#s" x="444.451" y="693.734"/><use xlink:href="#G" x="447.446" y="693.734"/><use xlink:href="#H" x="454.212" y="693.734"/><use xlink:href="#I" x="460.343" y="693.734"/><use xlink:href="#s" x="465.822" y="693.734"/><use xlink:href="#J" x="468.817" y="693.734"/><use xlink:href="#K" x="476.834" y="693.734"/></g></svg>