<svg xmlns="http://www.w3.org/2000/svg" xmlns:xlink="http://www.w3.org/1999/xlink" width="793.701" height="1058.268" viewBox="0 0 595.276 793.701" version="1.2"><defs><clipPath id="R"><path d="M0 410h594.555v2H0zm0 0"/></clipPath><symbol overflow="visible" id="a"><path d="M2.875.031c.434 0 .82-.144 1.156-.437.332-.301.594-.64.782-1.016.183-.34.316-.71.39-1.11.082-.402.125-.804.125-1.202 0-.403-.05-.813-.14-1.22a4.843 4.843 0 0 0-.407-1.155A3.031 3.031 0 0 0 4-7.063a1.747 1.747 0 0 0-1.14-.421c-.844 0-1.473.457-1.876 1.359-.406.906-.609 1.707-.609 2.39 0 .712.203 1.52.61 2.422C1.386-.413 2.02.032 2.874.032zm0-.281c-.75 0-1.227-.441-1.422-1.328-.2-.895-.297-1.613-.297-2.156 0-.54.098-1.254.297-2.141.195-.895.672-1.344 1.422-1.344.363 0 .648.137.86.407.206.273.363.566.468.875.113.343.195.71.25 1.093.059.387.094.758.094 1.11 0 .324-.035.675-.094 1.046a9.33 9.33 0 0 1-.203 1.016c-.094.336-.254.66-.469.969-.21.305-.511.453-.906.453zm0 0"/></symbol><symbol overflow="visible" id="b"><path d="M3.422-7.313a.124.124 0 0 0-.031-.078.119.119 0 0 0-.079-.062.133.133 0 0 0-.078 0 .589.589 0 0 0-.078.047l-1.844.828a.934.934 0 0 0-.218.078c-.086.043-.125.102-.125.172 0 .043.008.082.031.11a.143.143 0 0 0 .094.03c.05 0 .113-.015.187-.046.07-.028.133-.051.188-.063l.687-.312c.051-.02.102-.04.156-.063a.364.364 0 0 1 .172-.047c.07 0 .118.024.141.063.02.043.031.097.031.156v5.078c0 .367-.043.617-.125.75-.074.125-.316.188-.719.188-.25 0-.414.011-.484.03-.074.013-.11.052-.11.11 0 .063.016.106.048.125.027.024.082.032.156.032h3.094c.058 0 .109-.008.14-.032.028-.02.047-.054.047-.11 0-.058-.02-.1-.047-.124a.278.278 0 0 0-.14-.031h-.329c-.375 0-.601-.079-.671-.235-.063-.164-.094-.41-.094-.734zm0 0"/></symbol><symbol overflow="visible" id="c"><path d="M4.61-8.531a8.282 8.282 0 0 0-1.594.828A7.178 7.178 0 0 0 1.687-6.5a6.863 6.863 0 0 0-.953 1.453A3.928 3.928 0 0 0 .36-3.359c0 .75.223 1.507.672 2.265C1.477-.344 2.13.031 2.984.031c.715 0 1.286-.27 1.704-.812.425-.551.64-1.16.64-1.828a2.92 2.92 0 0 0-.516-1.641c-.343-.508-.847-.766-1.5-.766-.167 0-.34.036-.515.094-.18.055-.34.145-.485.266a.984.984 0 0 0-.187.156c-.063.074-.094.145-.094.203 0 .031.004.067.016.094.02.023.047.031.078.031.059 0 .148-.078.266-.234.12-.164.347-.25.671-.25.208 0 .395.058.563.172a1.5 1.5 0 0 1 .453.421c.152.243.274.508.36.797.09.293.14.586.14.875 0 .282-.043.555-.125.813-.086.262-.21.52-.375.766-.125.18-.273.324-.437.437a1.095 1.095 0 0 1-.594.156c-.7 0-1.195-.375-1.485-1.125-.292-.758-.437-1.406-.437-1.937 0-.614.11-1.192.328-1.735.215-.539.524-1.05.922-1.53.309-.384.703-.75 1.172-1.095.476-.34.953-.597 1.422-.765.039-.02.093-.04.156-.063.07-.027.11-.066.11-.11 0-.038-.012-.07-.032-.093a.122.122 0 0 0-.094-.047.728.728 0 0 0-.265.078c-.117.055-.196.09-.235.11zm0 0"/></symbol><symbol overflow="visible" id="d"><path d="M5.422-5.844V.453h.797v-6.297zm-3.563 0V.453h.813v-6.297zm1.782 0V.453h.812v-6.297zm0 0"/></symbol><symbol overflow="visible" id="e"><path d="M.75.047v1.016h1.031V.046zm0 0"/></symbol><symbol overflow="visible" id="g"><path d="M4.453-5.328v-.234H6.86v-.641H1.203v.64H3.61v.235c0 .703-.343 1.266-.859 1.703-.563.484-1.36.828-2.203 1.063.25.203.422.39.578.578.61-.204 1.234-.5 1.75-.86s.938-.781 1.156-1.312c.235.547.735 1.031 1.313 1.406.515.344 1.093.61 1.578.75l.562-.563c-.75-.187-1.53-.562-2.125-1.062-.53-.453-.906-1.031-.906-1.703zM7.781.359v-.64H4.406v-1.953h-.765v1.953H.28v.64zm0 0"/></symbol><symbol overflow="visible" id="h"><path d="M7.234-1.813v-4.812h-.75v4.813zM7.22 1.422v-2.844H1.78v.64h4.672v2.204zM3.39-5.36v-.266h1.671v-.64H.923v.64h1.703v.25c0 .625-.203 1.14-.547 1.578C1.641-3.25 1-2.859.281-2.562c.219.156.516.374.64.5.47-.22.907-.5 1.282-.86.344-.297.64-.687.813-1.125.234.438.562.781.937 1.063.39.296.797.515 1.156.671.125-.156.329-.359.516-.53C5-3.048 4.422-3.392 4-3.86c-.375-.422-.61-.907-.61-1.5zm0 0"/></symbol><symbol overflow="visible" id="i"><path d="M1.516-6.063l5.578 3.375L1.516.688zm0 0"/></symbol><symbol overflow="visible" id="j"><path d="M7.64-7.156l.048 3.25c.015.797.078 1.36.359 1.344.297-.016.625-.672.625-1.813L8.64-7.156c0-.532.25-.844-.157-1-.296-.11-1.14-.235-1.296-.25-.72-.047-.735.281-.297.469.53.218.75.328.75.78zm-1.827.078c-.125-.016-.875-.078-1.125.031-.282.14-1.141.156-1.97.156-.468 0-.921-.046-1.093-.062-.61-.063-.734.14-.25.437.984.61 1.156.297 1.453.235 0 0 .266-.078.485-.094.312 0 .843-.078 1.39-.11-.969 2.032-2.875 3.75-3.922 4.282-.297.156.016.437.672.156 1.234-.5 3.11-2.078 4.219-4.015.203-.329.703-.875.14-1.016zm1.609 5.39L7.39.672H4.609l-.046-2.36zM8.688.922c0-.156-.282-.235-.422-.25l.25-2.203c.03-.282.53-.532 0-.766-.36-.156-.907-.062-1.22.016-.171.078-2.484.078-2.609.078-.187 0-.625-.156-1.312-.125-.563.015-.797.39-.531.453.36.094.61.14.625.406l.172 2.547c.015.422.218.64.453.64.156 0 .437-.218.484-.484.375 0 2.281-.03 3.594-.03.312 0 .515-.095.515-.282zm0 0"/></symbol><symbol overflow="visible" id="k"><path d="M7.188-3.125c.703 0 1.234 0 1.687.031.61.031 1.234.016 1.266-.36.03-.5-1.516-.562-2.391-.233-.094.046-.266.062-.484.078.171-.25.328-.657.5-1.141.328-.969.578-2.047.593-2.11.063-.359.516-.671-.171-.827-.329-.079-.813-.032-1.141.093-.36.11-4.031.188-4.922.063-.844-.078-.594.281-.328.406 1.516.781 1.64.313 2.266.234.015 0 2.656-.109 3.125-.125-.079.86-.141 1.344-.36 2.22-.125.53-.266.952-.266 1.218-.546.015-1.125 0-1.375 0l-2.312.015c-1.094 0-1.39-.062-2.047-.093-.61-.031-.937.203-.25.5 1.719.734 1.766.234 2.453.172h.094v2.703c0 .984.094 1.922.422 1.922.39-.016.687-1.016.656-2.547v-2.14c.36-.032.828-.048 1.39-.048.173 0 .345-.015.516-.015l.016 3.046c0 .985.094 1.938.422 1.922.39-.015.687-1.015.656-2.546zm0 0"/></symbol><symbol overflow="visible" id="l"><path d="M5.188-5.813c0 .61-.485 1.141-1.141 1.141s-1.14-.531-1.14-1.14c0-.641.484-1.125 1.14-1.125.656 0 1.14.484 1.14 1.125zm1.046.032c0-1.422-1.609-1.61-1.609-1.64 0-.188.125-.22.031-.36-.125-.25-1.265-.344-1.265.015 0 .125.328.125.125.344 0 .016-1.672.219-1.672 1.64 0 1.063 1.093 1.72 2.203 1.72 1.11 0 2.187-.657 2.187-1.72zM9.36.5C9 .453 8.375.469 8.156.61c-.219.156-.531.171-.781.171L5.172.797C5 .797 4.828.703 4.828.5v-.813c0-.406.219-.671-.328-.75a6.595 6.595 0 0 0-1.25-.046c-.938.093-.484.421-.156.484.469.094.625.188.625.563V.5c0 .703.547.828 1.14.828l4.407-.047c.718 0 .89-.593.093-.781zM4.58-2.984c.952-.141 1.952-.329 2.655-.516.454-.11.36-.516 0-.438-1.203.188-3.437.454-4.843.454-.391 0-.782-.016-1.125-.047-.922-.078-.782.281-.22.547 1.47.734 1.516.265 2.141.171.126-.015.235-.015.376-.046v.312c.015.735.124 1.297.39 1.281.344-.015.64-.734.625-1.718zm3.405 1.046v.032c.016.781.047 1.484.36 1.484.344-.016.64-.828.64-2l-.03-4.734c0-.532.25-.844-.173-1-.297-.11-1.14-.235-1.297-.25-.703-.047-.718.281-.296.469.546.218.75.328.75.78l.046 4.688c-.718.031-1.78.063-2.25.016-.843-.078-.578.281-.312.422 1.11.578 1.297.312 1.469.25.015-.016.296-.11.562-.14 0-.016.297-.016.531-.016zm0 0"/></symbol><symbol overflow="visible" id="B"><path d="M7.594-.172c0 .64-.469 1.234-1.157 1.234-.703 0-1.187-.593-1.187-1.234 0-.687.5-1.266 1.188-1.266.687 0 1.156.594 1.156 1.266zM6.437 1.703c1.25 0 2.235-.781 2.235-1.875 0-1.516-1.688-1.719-1.688-1.734 0-.188.172-.172.032-.375-.172-.219-1.22-.297-1.22.015 0 .11.298.141.126.36 0 0-1.75.234-1.75 1.734 0 1.094 1 1.875 2.266 1.875zM4.813-5.016c0 .75-.5 1.344-1.296 1.344-.75 0-1.313-.61-1.313-1.344 0-.828.563-1.375 1.313-1.375.796 0 1.296.61 1.296 1.375zm2.891-1.421c-.703.03-1.656.062-2.062 0-.25-.016-.391-.016-.47.03-.5-.374-1.062-.468-1.062-.484 0-.187.141-.234.032-.406-.157-.234-1.297-.328-1.297.031 0 .11.344.157.14.375 0 .016-1.859.282-1.859 1.891 0 1.25 1.266 1.969 2.39 1.969.704 0 1.438-.281 1.907-.797.984.531 1.14.265 1.328.219 0-.016.266-.11.516-.141 0-.016.234-.016.468-.031l.016.469c0 .78.078 1.39.344 1.374.297 0 .64-.765.64-1.89l-.03-3.328c0-.532.25-.844-.173-1-.297-.11-1.14-.235-1.297-.25-.703-.047-.718.281-.296.469.546.218.75.328.75.78zm.016 2.14c-.64.031-1.547.047-2 .016.11-.219.156-.453.156-.719 0-.328-.078-.61-.203-.828.766.328.922.11 1.078.078 0-.016.266-.11.516-.156 0 0 .218 0 .437-.016zm0 0"/></symbol><symbol overflow="visible" id="C"><path d="M5.094-5.188c.875.532 2.718 1.625 3.265 1.954.72.437 1.22.015.75-.516-.234-.266-.64-.672-.906-.781-.375-.125-.344.015-.781-.125-.281-.094-1.375-.657-1.953-.985.172-.218.39-.53.531-.75.156-.25.36-.453-.047-.734-.281-.203-1.031-.484-1.219-.516-.812-.078-.656.22-.39.375.422.25.531.407.453.594-.672 1.484-2.422 2.953-3.656 3.5-.313.125-.125.5.562.266 1.047-.36 2.281-1.125 3.39-2.281zm.625 4.422l.015-1.671c0-.344.22-.626-.234-.75-.281-.079-.969-.094-1.156-.126-.625.047-.688.297-.297.422.312.063.594.188.594.5v1.625H2.875c-1.094 0-1.39-.062-2.047-.109-.61-.031-.937.219-.25.516 1.719.75 1.766.234 2.453.187.047 0 .844-.11 2.563-.11 1.593-.015 2.547-.03 3.281.016.61.032 1.234.032 1.266-.343.03-.516-1.516-.563-2.391-.25-.266.093-1.313.093-2.031.093zm0 0"/></symbol><symbol overflow="visible" id="V"><path d="M5.719-.75l.015-1.469c0-.344.22-.625-.234-.75-.281-.078-.969-.094-1.156-.125-.625.047-.688.297-.297.422.312.063.594.188.594.5V-.75H2.875c-1.094 0-1.39-.063-2.047-.094-.61-.031-.937.203-.25.5 1.719.75 1.766.25 2.453.188.047 0 .844-.094 2.563-.11C7.187-.28 8.14-.28 8.875-.234c.61.03 1.234.015 1.266-.36.03-.5-1.516-.562-2.391-.234-.266.078-1.313.094-2.031.078zm-.407-3.563c.813.375 2.547 1.141 3.094 1.375.781.329 1.219-.171.656-.593-.234-.188-.562-.438-.906-.563-.36-.11-.469.032-.86-.078a29.702 29.702 0 0 1-1.437-.547c.61-.406 1.157-.937 1.625-1.39.594-.47.704-.829.172-1-.125-.047-.937-.094-1.172.03-.296.141-2.359.141-3.171.141-.485 0-.891-.03-1.032-.046-.64-.063-.765.187-.297.453.922.515 1.22.36 1.516.25.016 0 .25-.078.5-.094.297-.031 1.64-.078 2.313-.11C5.046-4.968 2.921-3.5 1.188-2.936c-.297.109-.235.484.546.296.985-.218 2.391-.843 3.579-1.671zm0 0"/></symbol><symbol overflow="visible" id="W"><path d="M5-3.563c0 .626-.5 1.126-1.14 1.126a1.12 1.12 0 0 1-1.126-1.126c0-.64.5-1.14 1.125-1.14.641 0 1.141.5 1.141 1.14zM9.125.5C8.781.453 8.141.469 7.937.61c-.218.156-.546.171-.78.171L5.28.797C5.11.797 4.938.703 4.938.5V-.531c0-.39.218-.672-.329-.75-.312-.032-.906-.063-1.25-.032-.937.094-.484.407-.156.485.469.078.625.187.625.547V.5c0 .703.547.828 1.14.828l4.063-.047c.719 0 .906-.593.094-.781zm-1.39-5.61c-.594.032-1.282.063-1.688 0-.797-.077-.547.282-.297.438 1.078.578 1.234.297 1.406.25.016-.016.282-.11.532-.14 0 0 .015 0 .046-.016l.016 1.422c-.594.031-1.297.062-1.703 0H6c.031-.11.047-.235.047-.375 0-1.469-1.625-1.594-1.625-1.625 0-.157.172-.172 0-.344-.156-.156-1.156-.281-1.156.031 0 .11.265.125.125.313 0 0-1.704.172-1.704 1.625 0 1.11 1.157 1.734 2.172 1.734.75 0 1.547-.312 1.938-.906 1.031.547 1.187.281 1.36.234.015-.015.28-.11.53-.14 0 0 .032-.016.063-.016v.719c.016.781.047 1.484.375 1.484.328-.016.625-.828.625-2l-.031-4.734c0-.532.25-.844-.156-1-.297-.11-1.141-.235-1.297-.25-.72-.047-.735.281-.297.469.531.218.75.328.75.78zM6.53-6.343c-.265-.11-1.062-.218-1.593 0-.438.157-1.735.157-2.297.157a13.95 13.95 0 0 1-1.407-.094c-.453-.063-1.03.078-.25.484 1.25.64 1.329.188 1.954.125.78-.078 2.843-.078 3.484-.047.469 0 .672-.39.11-.625zm-1.734-.61c.703-.046.875-.64-.156-.671-.782-.016-1.094-.078-1.657-.156-.53-.094-.796.11-.421.36.421.296.734.468 1 .484.374.03.703.03 1.234-.016zm0 0"/></symbol><symbol overflow="visible" id="X"><path d="M8.063-3.625H7.016L7-6.672c0-.531.234-.844-.172-1-.281-.11-1.094-.234-1.25-.25-.687-.047-.703.281-.281.469.516.219.719.328.719.781l.046 6.234c0 .985.032 1.938.375 1.922.375-.015.625-1.015.61-2.546l-.031-1.97h1.046l.016 2.97c0 .984.047 1.937.375 1.921.375-.015.625-1.015.61-2.546l-.047-6.47c0-.53.25-.843-.157-1-.296-.109-1.109-.234-1.265-.25-.688-.046-.703.282-.282.47.516.218.735.328.735.78zM3.5-3.344a47.94 47.94 0 0 1 1.375 1.688c.5.61 1.063.453.844-.094-.063-.188-.344-.86-.563-1.047-.218-.187-.343-.125-.593-.281-.079-.078-.454-.422-.704-.719.375-.515.72-1.11 1.079-1.765.296-.407.515-.86.14-1-.078-.047-.922-.11-1.14.015-.297.125-.844.14-1.485.14-.469 0-.875-.03-1.031-.046-.625-.078-.734.172-.281.437.921.547 1.093.36 1.421.22.016 0 .235-.063.485-.079.234-.016.5-.063.89-.094-.796 2-2.187 3.844-3.312 4.625-.234.157-.11.516.61.125.593-.312 1.437-1.047 2.265-2.125zm0 0"/></symbol><symbol overflow="visible" id="m"><path d="M4.328-2.39c0-.47-.39-.86-.844-.86-.453 0-.828.39-.828.86 0 .468.375.859.828.859.454 0 .844-.39.844-.86zm0 0"/></symbol><symbol overflow="visible" id="n"><path d="M6.703-1.75v-.422H.25v.422h3.063v1.64h.5v-1.64zm-.64 2.813V.625H1.625V-1h-.484v2.063zm-.75-4.516H1.624v-.969h3.688zm-4.172.422h4.671v-2.766h-.5v.953H1.626v-.953h-.484zm0 0"/></symbol><symbol overflow="visible" id="o"><path d="M.656-4.984h1.547v.562c0 .828-.187 1.578-.547 2.234A4.476 4.476 0 0 1 .11-.577a3 3 0 0 1 .485.36c.39-.298.812-.704 1.14-1.173.344-.468.61-.968.72-1.437.202.547.468 1.031.827 1.453.328.36.688.688 1.078.953.094-.11.282-.281.407-.39-.704-.422-1.22-.907-1.563-1.5C2.891-2.86 2.72-3.5 2.72-4.266v-.718h1.61v-.438H.655zm4.61-.891v7.094h.515v-3.844H6.86v-.453H5.781v-2.797zm0 0"/></symbol><symbol overflow="visible" id="p"><path d="M3.813 1.344c1.484 0 2.39-.594 2.39-1.407 0-.812-.906-1.421-2.39-1.421-1.5 0-2.407.609-2.407 1.421 0 .813.907 1.407 2.407 1.407zM1.921-.063c0-.64.828-1 1.89-1 1.047 0 1.876.36 1.876 1 0 .625-.829 1-1.875 1-1.063 0-1.891-.375-1.891-1zM6.156-1.53v-4.344h-.5v1.75h-.953V-5.75h-.5v3.969h.5v-1.89h.953v2.14zM2.313-4.97v-.672h-.5v.657c0 .656-.125 1.171-.375 1.593-.266.454-.672.829-1.22 1.157.126.109.329.265.438.359.39-.281.672-.531.906-.828.204-.266.36-.578.5-.985.126.36.344.672.594.938.25.281.547.484.844.656.11-.14.234-.281.36-.406-.47-.203-.876-.516-1.141-.953-.266-.406-.406-.922-.406-1.516zm0 0"/></symbol><symbol overflow="visible" id="q"><path d="M5.969 1.125v-.39H1.656v-.829h4.157v-1.562H3.719v-.797h2.984v-.406H.25v.406h2.969v.797H1.14v.406h4.156v.766H1.14v1.609zM5.312-4H1.626v-1.25h3.688zm-4.171.406h4.671v-2.062H1.141zm0 0"/></symbol><symbol overflow="visible" id="r"><path d="M3.563-5.453v-.422H1.469v.422zm.984 1.047v-.422H.53v.422zm-2.016.468C1.5-3.938.844-3.421.844-2.766c0 .641.656 1.157 1.687 1.157 1.063 0 1.703-.516 1.703-1.157 0-.656-.625-1.171-1.703-1.171zM1.36-2.78c0-.438.422-.735 1.172-.735.766 0 1.172.297 1.172.735 0 .453-.406.765-1.172.765-.75 0-1.172-.312-1.172-.765zM6.938-3.5v-.438H5.921v-1.937h-.5v4.547h.5V-3.5zM5.921 1.266V-.97h-4.5v.438h4.016v1.797zm0 0"/></symbol><symbol overflow="visible" id="t"><path d="M3.844-2.172v-3.437h-.469v1.296H1.203v-1.296H.734v3.437zm-.469-.422H1.203V-3.89h2.172zm2.469 3.86V-1.25H1.328v.438H5.36v2.078zm1-5.094v-.438h-1V-5.89h-.5v4.266h.5v-2.203zm0 0"/></symbol><symbol overflow="visible" id="u"><path d="M2.64-4.266v-1.28h-.515v1.124c0 .828-.188 1.578-.547 2.234A4.476 4.476 0 0 1 .031-.577a3 3 0 0 1 .485.36c.39-.298.796-.704 1.14-1.173.344-.468.61-.968.719-1.437.203.547.484 1.031.828 1.453.328.36.688.688 1.078.953.094-.11.282-.281.407-.39-.704-.422-1.22-.907-1.563-1.5-.313-.547-.484-1.188-.484-1.954zm2.657-1.609v7.094h.516v-3.844h1.093v-.453H5.813v-2.797zm0 0"/></symbol><symbol overflow="visible" id="v"><path d="M6.078 1.219v-7.094h-.5v2.172H3.922v.453h1.656v4.469zm-3.36-5.485v-1.28h-.515v1.124c0 .828-.187 1.578-.547 2.234A4.476 4.476 0 0 1 .11-.577a3 3 0 0 1 .485.36c.39-.298.812-.704 1.14-1.173.344-.468.61-.968.72-1.437.202.547.468 1.031.827 1.453.328.36.688.688 1.078.953.094-.11.282-.281.407-.39-.704-.422-1.22-.907-1.563-1.5C2.891-2.86 2.72-3.5 2.72-4.266zm0 0"/></symbol><symbol overflow="visible" id="w"><path d="M3.469-3.453c1.578 0 2.422-.516 2.422-1.219 0-.656-.844-1.25-2.422-1.25-1.547 0-2.422.547-2.422 1.25s.875 1.219 2.422 1.219zm0-.375c-1.125 0-1.906-.328-1.906-.844 0-.547.765-.875 1.906-.875 1.125 0 1.922.344 1.922.875 0 .516-.797.844-1.922.844zm2.5 4.953v-.39H1.656V-.11h4.157v-1.594H3.719v-.766h2.984v-.406H.25v.406h2.969v.766H1.14v.406h4.156v.781H1.14v1.641zm0 0"/></symbol><symbol overflow="visible" id="x"><path d="M.89-5.36v4.735c.032 0 .704.016 1.376-.016a17.88 17.88 0 0 0 1.562-.156v-.453c-.297.047-1.094.14-1.484.14l-.969.032v-3.86h1.906v-.421zM6.157 1.22v-7.094h-.5v2.703H4.625V-5.75h-.5V.875h.5v-3.578h1.031v3.922zm0 0"/></symbol><symbol overflow="visible" id="y"><path d="M6.719.234v-.421H4.062v-2.735h-.484v2.735H2.313v-2.735h-.47v2.735H.235v.421zM1.047-5.453v.437h4.375c-.047 1.094-.266 2.516-.5 3.735h.516c.28-1.344.421-2.828.5-4.172zm0 0"/></symbol><symbol overflow="visible" id="z"><path d="M5.781 1.266v-2.594H1.25v.437h4.016v2.157zm.985-4.313v-.422H5.78v-1.094h.985v-.421H5.78v-.891h-.515v4.172h.515v-1.344zm-6.36-.937c0 .968.75 1.78 1.797 1.78s1.781-.812 1.781-1.78c0-.97-.734-1.766-1.78-1.766-1.048 0-1.798.797-1.798 1.766zm.516 0c0-.75.469-1.329 1.281-1.329.828 0 1.281.579 1.281 1.329 0 .734-.453 1.328-1.28 1.328-.813 0-1.282-.594-1.282-1.328zm0 0"/></symbol><symbol overflow="visible" id="A"><path d="M6.703-1.484v-.422H.25v.422h3v2.703h.516v-2.703zm-2.969-3.86v-.343h-.53v.343c0 .594-.329 1.094-.845 1.469-.484.344-1.125.594-1.796.75.14.11.312.313.39.406a5.21 5.21 0 0 0 1.485-.64A2.952 2.952 0 0 0 3.484-4.5c.204.484.594.86 1.032 1.14A5.024 5.024 0 0 0 6-2.718c.11-.14.219-.297.36-.422-.61-.14-1.298-.39-1.798-.78-.5-.36-.828-.845-.828-1.423zm0 0"/></symbol><symbol overflow="visible" id="D"><path d="M.984 0c0 .781.907 1.344 2.485 1.344 1.61 0 2.5-.563 2.5-1.344 0-.797-.89-1.36-2.5-1.36C1.89-1.36.984-.796.984 0zM3.47.938c-1.14 0-1.953-.329-1.953-.954 0-.609.812-.937 1.953-.937 1.156 0 1.984.328 1.984.937 0 .625-.828.954-1.984.954zm3.234-2.891v-.422H3.72v-1.203h2.25V-4H1.64v-1.844h-.5v2.266h2.093v1.203H.25v.422zm0 0"/></symbol><symbol overflow="visible" id="E"><path d="M3.86-.64v-4.766H.702v4.765zm-.5-.422H1.202v-3.922H3.36zm3.484-1.844v-.453H5.75v-2.516h-.531v7.094h.531v-4.125zm0 0"/></symbol><symbol overflow="visible" id="F"><path d="M5.969 1.125V.719H1.656v-.89h4.157v-1.673H1.14v.422h4.156v.828H1.14v1.719zm.734-3.64v-.422H3.375v-.86h-.5v.86H.25v.421zm-1.062-.86c.14-.656.25-1.328.28-2.297H1.079v.422h4.328c-.015.266-.031.453-.047.625-1.515.11-4.218.094-4.359.094v.39c.14 0 2.906.032 4.297-.093-.047.375-.078.5-.14.859zm0 0"/></symbol><symbol overflow="visible" id="G"><path d="M6.078 1.219v-7.094h-.5v2.578H4v.438h1.578v4.078zm-5.062-1.5c1.093-.703 1.906-1.625 2.421-2.703a6.826 6.826 0 0 0 .61-2.438H.953V-5H3.5c-.063.484-.188 1.063-.36 1.5-.796.063-1.609.063-2.437.063v.421c.75 0 1.5 0 2.25-.078C2.5-2.109 1.672-1.25.516-.64c.14.079.406.266.5.36zm0 0"/></symbol><symbol overflow="visible" id="H"><path d="M6.703-1.39v-.438H.25v.437h1.797v2.547h.5V-1.39h1.86v2.61h.5v-2.61zm-.89-1.548v-2.656H1.14v2.657zm-.5-.421H1.64v-1.813h3.671zm0 0"/></symbol><symbol overflow="visible" id="I"><path d="M5.188-1.422c-.47.11-1.563.266-2.25.297l-1.516.016v-4.422h-.5v4.89c.047 0 1.062.016 1.984-.015.781-.031 1.844-.203 2.281-.297zm.328-4.453v7.094h.5v-7.094zm0 0"/></symbol><symbol overflow="visible" id="J"><path d="M4.844.875V-5.75h-.5v2.531H3.156v.469h1.188V.875zm1.312.344v-7.094h-.5v7.094zM.781-.375c.735-.547 1.36-1.188 1.813-2 .422-.797.672-1.75.703-2.984h-2.5v.421h2c0 .5-.11 1.032-.266 1.47a73.26 73.26 0 0 1-1.906.046v.406c.063 0 1.14 0 1.75-.046C2-2.125 1.312-1.36.297-.672c.14.063.375.203.484.297zm0 0"/></symbol><symbol overflow="visible" id="K"><path d="M.656-3c0 .984.235 1.656.547 2.078.328.422.734.61 1.125.61.39 0 .797-.188 1.11-.61.328-.422.546-1.094.546-2.078 0-.984-.218-1.656-.546-2.078-.329-.422-.735-.594-1.11-.594-.36 0-.781.156-1.11.578C.907-4.672.657-4 .657-3zm.485 0c0-1.172.421-2.25 1.187-2.25S3.5-4.172 3.5-3c0 1.188-.406 2.25-1.172 2.25-.765 0-1.187-1.047-1.187-2.25zm4.421-2.875v7.094h.5v-7.094zm0 0"/></symbol><symbol overflow="visible" id="L"><path d="M6.313 1.063V.625H2.125V-1.25h-.5v2.313zM6.093-.61v-5.266h-.5v.86H4.079v.437h1.516v.906H4.078v.438h1.516V-.61zM2.72-4.875v-.813h-.516v.813c0 .672-.219 1.219-.547 1.688-.36.468-.86.843-1.437 1.109.125.094.328.281.437.375.39-.234.781-.5 1.094-.813a2.98 2.98 0 0 0 .703-1.171c.203.421.5.796.844 1.093.328.281.672.5 1 .656a2.91 2.91 0 0 1 .36-.406c-.5-.187-1-.515-1.376-.969a2.393 2.393 0 0 1-.562-1.562zm0 0"/></symbol><symbol overflow="visible" id="M"><path d="M6.094-.61v-5.265h-.5v2.156H4.078v.438h1.516V-.61zm.218 1.672V.625H2.125V-1.25h-.5v2.313zM.75-1.5c.922-.375 1.734-.922 2.328-1.656.531-.64.875-1.438.953-2.375H.921v.422h2.563c-.062.39-.203.796-.375 1.109-.78.047-2.28.063-2.359.063v.39c.063 0 1.406 0 2.11-.062-.547.734-1.516 1.359-2.532 1.718.14.11.344.297.422.391zm0 0"/></symbol><symbol overflow="visible" id="N"><path d="M6.094-2.156v-3.719h-.5v1.234H3.937v.422h1.657v2.063zm.172 3.281V.703H2.109v-.828h3.985v-1.672H1.609v.422h3.97v.813h-3.97v1.687zM2.719-5.063v-.656h-.516v.625c0 .657-.234 1.172-.578 1.563-.375.39-.86.687-1.406.89.125.094.328.266.437.36A4.91 4.91 0 0 0 1.75-3c.297-.281.547-.594.703-1.016.219.407.516.704.844.954.328.234.672.39 1 .546.094-.125.219-.28.36-.406a3.14 3.14 0 0 1-1.376-.781 1.871 1.871 0 0 1-.562-1.36zm0 0"/></symbol><symbol overflow="visible" id="O"><path d="M1.297.047c0 .765.89 1.297 2.437 1.297 1.547 0 2.407-.532 2.407-1.297 0-.766-.86-1.313-2.407-1.313-1.546 0-2.437.547-2.437 1.313zm4.328 0c0 .578-.813.906-1.89.906C2.64.953 1.827.61 1.827.047c0-.61.813-.906 1.906-.906 1.079 0 1.891.296 1.891.906zm-.063-5.922v4.5h.485v-4.5zM5.22-2.687c-.719.124-1.719.25-2.594.25l-1.344.015v-1.172h2.657v-.422H1.28v-1.156h2.735v-.422H.812V-2c.079 0 1.282.016 2.11-.031.703-.031 1.86-.172 2.297-.25zm0 0"/></symbol><symbol overflow="visible" id="P"><path d="M1.047-5.453v.437h4.328c-.031 1.094-.25 2.532-.484 3.75h.515c.266-1.343.422-2.843.485-4.187zM6.719.234v-.421H3.203V-2.97h-.5v2.781H.234v.422zm0 0"/></symbol><symbol overflow="visible" id="Q"><path d="M6.703-1.781v-.438H.25v.438h3.063v1.625h.5v-1.625zm-.64 2.843V.625H1.625V-1h-.484v2.063zm-.75-4.671H1.624v-1.625h3.688zm-4.172.421h4.671v-2.468H1.141zm0 0"/></symbol><symbol overflow="visible" id="Y"><path d="M.969-3.89c0 .937.75 1.734 1.797 1.734 1.03 0 1.78-.797 1.78-1.735 0-.953-.75-1.718-1.78-1.718-1.047 0-1.797.765-1.797 1.718zm.484 0c0-.72.484-1.297 1.313-1.297.812 0 1.28.578 1.28 1.296 0 .72-.468 1.282-1.28 1.282-.829 0-1.313-.563-1.313-1.282zm4.703 5.109v-7.094h-.5v7.094zm-.734-2.36c-.61.11-2.563.235-3.156.235H.546v.437h1.47c1.437 0 2.78-.14 3.406-.219zm0 0"/></symbol><symbol overflow="visible" id="Z"><path d="M3.797 1.36C5.359 1.36 6.203.78 6.203.015c0-.782-.844-1.36-2.406-1.36-1.563 0-2.39.578-2.39 1.36 0 .765.827 1.343 2.39 1.343zM1.89.015c0-.61.796-.954 1.906-.954 1.11 0 1.906.36 1.906.954 0 .578-.797.937-1.89.937C2.687.953 1.89.578 1.89.016zm1.593-2.61H1.313v-1.375h2.171zm.47-.75v-.984h1.64v.984zm1.64.422v1.485h.5v-4.438h-.5v1.125h-1.64v-.86h-.47v1.22H1.313v-1.22h-.47v3.423h3.11v-.735zm0 0"/></symbol><symbol overflow="visible" id="aa"><path d="M2.766-3.328c1.046 0 1.687-.594 1.687-1.281 0-.672-.625-1.282-1.687-1.282-1.047 0-1.688.61-1.688 1.282 0 .687.64 1.28 1.688 1.28zm.015-.406c-.828 0-1.234-.47-1.234-.875 0-.422.39-.891 1.219-.891.828 0 1.218.469 1.218.89 0 .407-.39.876-1.203.876zM6.187-.406v-5.469h-.5v4.172h-1.75v.406h1.75v.89zm.157 1.453V.625H2.187v-1.36h-.515v1.782zm-.89-4c-.407.078-1.798.203-2.798.203l-2.172.016v.421h1.704v1.22h.484v-1.235c.875 0 2.203-.11 2.781-.188zm0 0"/></symbol><symbol overflow="visible" id="ab"><path d="M6.703-1.875v-.422H.25v.422h3.063v1.766h.5v-1.766zm-.64 2.938V.625H1.625V-1h-.484v2.063zM3.733-5.579v-.297h-.53v.297c0 .594-.345 1.062-.86 1.406-.485.344-1.125.594-1.735.734.125.11.282.297.36.391a4.996 4.996 0 0 0 1.531-.64c.406-.266.766-.626.984-1.094.204.468.594.843 1.047 1.125.469.297 1 .515 1.438.61.11-.142.234-.25.375-.392-.594-.109-1.297-.374-1.828-.78-.454-.345-.782-.798-.782-1.36zm0 0"/></symbol><symbol overflow="visible" id="ac"><path d="M5.203-1.797c-.562.094-1.812.188-2.234.188v-.672c.844-.078 1.375-.485 1.375-.938 0-.547-.672-.984-1.657-.984-.968 0-1.656.437-1.656.969 0 .468.547.89 1.422.953v.672H.391v.406h2.5c.921 0 1.828-.125 2.312-.188zm-3.64-1.437c0-.36.437-.594 1.125-.594.703 0 1.124.234 1.124.594 0 .359-.421.593-1.124.593-.688 0-1.126-.234-1.126-.593zm4.609 4.296V.625H2.078V-.703h-.5v1.765zm.766-4.187v-.438H5.921v-2.312h-.5v5.469h.5v-2.719zM3.655-5.5v-.39H1.703v.39zm.953.938v-.391H.72v.39zm0 0"/></symbol><symbol overflow="visible" id="ad"><path d="M6.078 1.219v-7.094h-.5v7.094zM.953-5.421v.437h2.5a5.635 5.635 0 0 1-.797 2.375C2.141-1.813 1.422-1.156.484-.656a3 3 0 0 1 .485.36c.969-.626 1.703-1.376 2.219-2.298.468-.828.75-1.765.812-2.828zm0 0"/></symbol><symbol overflow="visible" id="ae"><path d="M3.828-1.25c-.297.047-1.094.14-1.484.14l-.953.032v-4.438h-.5v4.907c.03 0 .703 0 1.375-.032.546-.015 1.312-.109 1.562-.14zm2.328 2.469v-7.094h-.5v2.703H4.625V-5.75h-.5V.875h.5v-3.578h1.031v3.922zm0 0"/></symbol><symbol overflow="visible" id="af"><path d="M3.906-1.86c.203-1.062.328-2.671.344-3.577H.703v.421h3.031c0 1-.171 2.36-.312 3.157zm1.172.844c-.578.125-2.25.204-2.844.22v-2.5H1.75v2.5H.328v.437h1.266c1.156 0 2.797-.125 3.484-.22zm.234-4.859v7.094h.516V-2.47H6.86v-.453H5.83v-2.953zm0 0"/></symbol><symbol overflow="visible" id="ag"><path d="M1.39-.047c0 .766.829 1.406 2.407 1.406S6.203.734 6.203-.047c0-.781-.828-1.406-2.406-1.406-1.578 0-2.406.625-2.406 1.406zm.5 0c0-.594.782-.984 1.923-.984 1.093 0 1.874.39 1.874.984 0 .61-.78 1-1.875 1-1.14 0-1.921-.39-1.921-1zm2.063-4.406h1.64v.922h-1.64zm0 2.14v-.796h1.64v1.562h.5v-4.328h-.5v1h-1.64v-.656H.843v3.218zm-.469-.421H1.313V-5.11h2.171zm0 0"/></symbol><symbol overflow="visible" id="ah"><path d="M6.313 1.063V.625H2.125V-1.25h-.5v2.313zM2.358-2.531c-.812 0-1.28-.625-1.28-1.406 0-.797.468-1.407 1.28-1.407.829 0 1.282.61 1.282 1.407 0 .78-.454 1.406-1.282 1.406zm1.704-.813c.062-.187.093-.39.093-.594 0-.218-.047-.421-.11-.609h1.548v1.203zm2.03 2.75v-5.281h-.5v.89H3.86a1.774 1.774 0 0 0-1.5-.812c-1.062 0-1.796.844-1.796 1.86 0 1.015.734 1.859 1.796 1.859a1.78 1.78 0 0 0 1.516-.828h1.719v2.312zm0 0"/></symbol><symbol overflow="visible" id="ai"><path d="M5.578-2.406c.14-.828.266-2.188.313-3.188H1.016v.422h4.359c-.063.938-.14 1.797-.313 2.766H.234v.422h2.907v3.203h.515v-3.203H6.72v-.422zm0 0"/></symbol><symbol overflow="visible" id="aj"><path d="M6.703-2.25v-.422H.25v.438h2.969v.937C1.78-1.234.953-.687.953.031c0 .766.938 1.328 2.516 1.328 1.61 0 2.515-.562 2.515-1.328 0-.719-.812-1.265-2.25-1.328v-.953zM1.5.031c0-.594.813-.953 1.969-.953 1.14 0 1.969.36 1.969.953 0 .563-.829.922-1.97.922C2.314.953 1.5.593 1.5.031zm2.266-5.265h2.093v-.422H1.08v.422h2.109c-.063.453-.376.78-.813 1.046-.484.297-1.14.47-1.75.594.125.11.266.281.344.39.578-.124 1.125-.296 1.578-.546.39-.219.719-.516.937-.906.25.484.704.797 1.188 1.031.437.203.906.328 1.297.422.125-.14.218-.25.36-.39-.516-.11-1.157-.282-1.657-.548-.469-.265-.828-.609-.906-1.093zm0 0"/></symbol><symbol overflow="visible" id="ak"><path d="M6.156 1.219v-7.094h-.5v2.703h-.953V-5.75h-.5V.875h.5v-3.578h.953v3.922zM3.25-5.36H.719v.421H2.75c-.031.86-.234 1.625-.625 2.313C1.719-1.891 1.094-1.25.25-.672c.14.063.375.203.484.297.829-.61 1.485-1.313 1.938-2.25.344-.75.547-1.625.578-2.734zm0 0"/></symbol><symbol overflow="visible" id="al"><path d="M3.734-5v-.563H3.22V-5c0 .61-.313 1.203-.813 1.703-.484.5-1.172.89-1.89 1.125.187.14.328.281.437.422a5.63 5.63 0 0 0 1.516-.922c.453-.39.828-.86 1.015-1.36.157.5.563.985 1.047 1.391.469.407 1.016.72 1.485.875.109-.14.25-.28.39-.406-.61-.172-1.265-.562-1.765-1.047-.547-.515-.907-1.156-.907-1.781zM3.72-2.172h-.5v1.985H.234v.421H6.72v-.421h-3zm0 0"/></symbol><symbol overflow="visible" id="am"><path d="M6.266 1.125V.703H2.109v-.828h3.985v-1.672H1.609v.422h3.97v.813h-3.97v1.687zm-.672-7v3.719h.5v-3.719zm-2.875.813v-.657h-.516v.625c0 .657-.234 1.172-.578 1.563-.375.39-.86.687-1.406.89.125.094.328.266.437.36A4.91 4.91 0 0 0 1.75-3c.297-.281.547-.594.703-1.016.219.407.516.704.844.954.328.234.672.39 1 .546.094-.125.219-.28.36-.406a3.14 3.14 0 0 1-1.376-.781 1.871 1.871 0 0 1-.562-1.36zm0 0"/></symbol><symbol overflow="visible" id="an"><path d="M6.219 1.14v-2.327H1.75V1.14zm-.5-.421H2.25V-.766h3.469zm.5-2.297v-4.297h-.5v2.25h-1.25v.438h1.25v1.609zM2.53-4.016c-1 0-1.687.5-1.687 1.125 0 .61.672 1.125 1.687 1.125 1.063 0 1.703-.515 1.703-1.125 0-.625-.64-1.125-1.703-1.125zM3.72-2.89c0 .438-.422.672-1.188.672-.734 0-1.172-.234-1.172-.672 0-.453.438-.718 1.172-.718.766 0 1.188.265 1.188.718zm-.156-2.578v-.406H1.469v.406zm.984 1.016v-.422H.53v.422zm0 0"/></symbol><symbol overflow="visible" id="ao"><path d="M5.813-2.578v-3.125h-.5v1H1.64v-1h-.5v3.125zM5.313-3H1.64v-1.297h3.671zm1.39 1.766v-.422H.25v.422h3v2.453h.516v-2.453zm0 0"/></symbol><symbol overflow="visible" id="ap"><path d="M6.953-3.797v-.437H5.922v-1.641h-.484v4.328h.484v-2.25zM1.453-.03c0 .765.781 1.375 2.344 1.375 1.515 0 2.297-.625 2.297-1.375s-.782-1.375-2.297-1.375c-1.563 0-2.344.656-2.344 1.375zm.516.015c0-.578.718-.984 1.828-.984 1.062 0 1.781.406 1.781.984 0 .516-.719.97-1.781.97-1.11 0-1.828-.423-1.828-.97zM.797-5.109H2.28v.171c0 .657-.203 1.188-.531 1.61-.344.469-.86.812-1.453 1.078.125.094.328.234.437.328a4.39 4.39 0 0 0 1.125-.781c.297-.297.532-.656.672-1.078.188.375.453.687.735.937.359.297.75.516 1.109.703.094-.14.234-.265.36-.375-.516-.187-1.016-.484-1.391-.906-.344-.39-.547-.89-.547-1.5v-.187H4.25v-.422H.797zm0 0"/></symbol><symbol overflow="visible" id="S"><path d="M4.078-9.61c-.918 0-1.613.223-2.078.657-.469.43-.73 1.105-.781 2.031-.043.5-.063.988-.063 1.453.008.469.032.934.063 1.39.039.888.312 1.556.812 2 .496.45 1.18.673 2.047.673.82 0 1.488-.219 2-.657.52-.445.813-1.117.875-2.015.008-.215.016-.438.016-.656.008-.227.015-.454.015-.672 0-.239-.007-.477-.015-.719a16.588 16.588 0 0 1-.016-.781c-.031-.926-.316-1.61-.844-2.047-.523-.434-1.199-.656-2.03-.656zm1.688 5.422c-.032.618-.207 1.067-.516 1.344-.305.274-.695.406-1.172.406-.5 0-.898-.128-1.187-.39-.282-.258-.442-.719-.47-1.375a18.063 18.063 0 0 1 0-2.578c.028-.676.192-1.145.485-1.407.29-.269.68-.406 1.172-.406.508 0 .91.145 1.203.422.29.274.453.73.485 1.375.007.461.015.902.015 1.328 0 .418-.008.848-.015 1.282zm3.406 5.704h1.265V-10.22l-1.265.235zm0 0"/></symbol><symbol overflow="visible" id="U"><path d="M9.734-6.344v-3.875l-1.265.203V1.516h1.265v-6.813h1.875v-1.047zm-6.468-.781c0 .523-.055.988-.157 1.39a3.88 3.88 0 0 1-.515 1.141 6.382 6.382 0 0 1-.969 1.14c-.398.376-.895.802-1.484 1.267l.78.796a22.38 22.38 0 0 0 1.75-1.484 7.155 7.155 0 0 0 1.126-1.344 46.226 46.226 0 0 0 2.594 2.64l.843-.75c-.468-.401-.96-.866-1.468-1.39a22.65 22.65 0 0 1-1.47-1.64c.071-.258.126-.536.157-.829.04-.289.063-.609.063-.953v-1.156c0-.277-.024-.55-.063-.812a4.133 4.133 0 0 0-.187-.813l-1.204.39c.051.169.098.352.141.548.04.187.063.382.063.578zm0 0"/></symbol></defs><g fill="#393536"><use xlink:href="#a" x="42.468" y="48.426"/><use xlink:href="#b" x="48.041" y="48.426"/><use xlink:href="#c" x="53.614" y="48.426"/></g><g fill="#231f20"><use xlink:href="#d" x="74.885" y="47.727"/><use xlink:href="#e" x="82.886" y="47.727"/><use xlink:href="#f" x="85.492" y="47.727"/><use xlink:href="#g" x="88.099" y="47.727"/><use xlink:href="#f" x="96.1" y="47.727"/><use xlink:href="#h" x="98.706" y="47.727"/></g><use xlink:href="#i" x="365.225" y="323.714" fill="#8a8e98"/><g fill="#33459a"><use xlink:href="#j" x="374.729" y="324.314"/><use xlink:href="#k" x="386.704" y="324.314"/><use xlink:href="#l" x="398.68" y="324.314"/></g><g fill="#231f20"><use xlink:href="#m" x="365.225" y="340.898"/><use xlink:href="#n" x="372.123" y="340.898"/><use xlink:href="#o" x="379.021" y="340.898"/><use xlink:href="#p" x="385.919" y="340.898"/><use xlink:href="#q" x="392.817" y="340.898"/><use xlink:href="#r" x="399.715" y="340.898"/><use xlink:href="#s" x="406.613" y="340.898"/><use xlink:href="#t" x="408.861" y="340.898"/><use xlink:href="#u" x="415.759" y="340.898"/></g><g fill="#231f20"><use xlink:href="#m" x="365.225" y="353.3"/><use xlink:href="#v" x="372.123" y="353.3"/><use xlink:href="#w" x="379.021" y="353.3"/><use xlink:href="#x" x="385.919" y="353.3"/><use xlink:href="#r" x="392.817" y="353.3"/><use xlink:href="#y" x="399.715" y="353.3"/><use xlink:href="#s" x="406.613" y="353.3"/><use xlink:href="#z" x="408.861" y="353.3"/><use xlink:href="#r" x="415.759" y="353.3"/><use xlink:href="#x" x="422.657" y="353.3"/><use xlink:href="#r" x="429.555" y="353.3"/><use xlink:href="#s" x="436.453" y="353.3"/><use xlink:href="#y" x="438.701" y="353.3"/><use xlink:href="#A" x="445.599" y="353.3"/></g><use xlink:href="#i" x="363.809" y="638.967" fill="#8a8e98"/><g fill="#33459a"><use xlink:href="#j" x="373.313" y="639.566"/><use xlink:href="#B" x="385.289" y="639.566"/><use xlink:href="#C" x="397.264" y="639.566"/></g><g fill="#231f20"><use xlink:href="#m" x="363.809" y="656.15"/><use xlink:href="#D" x="370.707" y="656.15"/><use xlink:href="#r" x="377.605" y="656.15"/><use xlink:href="#s" x="384.503" y="656.15"/><use xlink:href="#t" x="386.751" y="656.15"/><use xlink:href="#u" x="393.649" y="656.15"/></g><g fill="#231f20"><use xlink:href="#m" x="363.809" y="668.552"/><use xlink:href="#E" x="370.707" y="668.552"/><use xlink:href="#F" x="377.605" y="668.552"/><use xlink:href="#G" x="384.503" y="668.552"/><use xlink:href="#H" x="391.401" y="668.552"/><use xlink:href="#I" x="398.299" y="668.552"/><use xlink:href="#J" x="405.197" y="668.552"/><use xlink:href="#K" x="412.095" y="668.552"/><use xlink:href="#L" x="418.994" y="668.552"/><use xlink:href="#s" x="425.892" y="668.552"/><use xlink:href="#M" x="428.139" y="668.552"/><use xlink:href="#N" x="435.037" y="668.552"/><use xlink:href="#O" x="441.935" y="668.552"/><use xlink:href="#s" x="448.833" y="668.552"/><use xlink:href="#P" x="451.081" y="668.552"/><use xlink:href="#Q" x="457.979" y="668.552"/></g><g clip-path="url(#R)"><path d="M-15.57 410.852h1230.156" fill="none" stroke-width=".499395" stroke="#cabfbb" stroke-dasharray="2.003,2.003"/></g><g fill="#fff"><use xlink:href="#S" x="52.123" y="165.5"/><use xlink:href="#T" x="64.008" y="165.5"/><use xlink:href="#T" x="68.203" y="165.5"/><use xlink:href="#U" x="72.398" y="165.5"/></g><use xlink:href="#i" x="192.805" y="639.673" fill="#8a8e98"/><g fill="#33459a"><use xlink:href="#V" x="202.309" y="640.272"/><use xlink:href="#W" x="214.284" y="640.272"/><use xlink:href="#X" x="226.26" y="640.272"/></g><g fill="#231f20"><use xlink:href="#m" x="192.805" y="656.856"/><use xlink:href="#K" x="199.703" y="656.856"/><use xlink:href="#r" x="206.601" y="656.856"/><use xlink:href="#s" x="213.499" y="656.856"/><use xlink:href="#Y" x="215.747" y="656.856"/><use xlink:href="#r" x="222.645" y="656.856"/><use xlink:href="#s" x="229.543" y="656.856"/><use xlink:href="#t" x="231.79" y="656.856"/><use xlink:href="#u" x="238.688" y="656.856"/></g><g fill="#231f20"><use xlink:href="#m" x="192.805" y="669.258"/><use xlink:href="#v" x="199.703" y="669.258"/><use xlink:href="#w" x="206.601" y="669.258"/><use xlink:href="#x" x="213.499" y="669.258"/><use xlink:href="#r" x="220.397" y="669.258"/><use xlink:href="#y" x="227.295" y="669.258"/><use xlink:href="#Z" x="234.193" y="669.258"/><use xlink:href="#aa" x="241.091" y="669.258"/><use xlink:href="#s" x="247.989" y="669.258"/><use xlink:href="#ab" x="250.237" y="669.258"/><use xlink:href="#ac" x="257.135" y="669.258"/><use xlink:href="#ad" x="264.033" y="669.258"/><use xlink:href="#ae" x="270.931" y="669.258"/><use xlink:href="#af" x="277.829" y="669.258"/><use xlink:href="#s" x="284.727" y="669.258"/><use xlink:href="#y" x="286.974" y="669.258"/><use xlink:href="#A" x="293.872" y="669.258"/></g><use xlink:href="#m" x="192.805" y="681.66" fill="#231f20"/><use xlink:href="#s" x="199.703" y="681.66" fill="#231f20"/><g fill="#231f20"><use xlink:href="#Y" x="199.703" y="681.66"/><use xlink:href="#p" x="206.601" y="681.66"/><use xlink:href="#ag" x="213.499" y="681.66"/><use xlink:href="#ah" x="220.397" y="681.66"/><use xlink:href="#ai" x="227.295" y="681.66"/><use xlink:href="#aa" x="234.193" y="681.66"/><use xlink:href="#s" x="241.091" y="681.66"/><use xlink:href="#aj" x="243.339" y="681.66"/><use xlink:href="#ak" x="250.237" y="681.66"/><use xlink:href="#Y" x="257.135" y="681.66"/><use xlink:href="#r" x="264.033" y="681.66"/><use xlink:href="#ah" x="270.931" y="681.66"/><use xlink:href="#ai" x="277.829" y="681.66"/><use xlink:href="#al" x="284.727" y="681.66"/><use xlink:href="#s" x="291.625" y="681.66"/><use xlink:href="#ah" x="293.872" y="681.66"/><use xlink:href="#ai" x="300.77" y="681.66"/></g><g fill="#231f20"><use xlink:href="#am" x="199.78" y="692.647"/><use xlink:href="#an" x="206.678" y="692.647"/><use xlink:href="#ao" x="213.576" y="692.647"/><use xlink:href="#s" x="220.474" y="692.647"/><use xlink:href="#ao" x="222.722" y="692.647"/><use xlink:href="#ap" x="229.62" y="692.647"/></g></svg>