<svg xmlns="http://www.w3.org/2000/svg" xmlns:xlink="http://www.w3.org/1999/xlink" width="793.701" height="1058.268" viewBox="0 0 595.276 793.701" version="1.2"><defs><symbol overflow="visible" id="a"><path d="M10.406 1.969V-9.578H9.375v4.234H8.031V-9.39H7V1.422h1.031v-5.719h1.344V1.97zM4.125-6.687V-7.86H6v-.907H1.14v.907h1.907v.984c0 1.375-.219 2.547-.672 3.547-.453 1-1.172 1.812-2.14 2.469.328.203.75.437.968.671.516-.39 1.031-.968 1.469-1.593.406-.594.734-1.25.89-1.875.172.625.5 1.203.876 1.703.406.547.89 1.016 1.343 1.328.203-.25.516-.516.766-.734a4.896 4.896 0 0 1-1.875-2.188c-.36-.875-.547-1.922-.547-3.14zm0 0"/></symbol><symbol overflow="visible" id="b"><path d="M8.516-9.578v8.484h1.062v-4.703h1.547v-.937H9.578v-2.844zM8.03-4.906c-.75.172-2.812.406-3.984.422l-1.844.03v-3.671h4.25v-.922H1.187V-3.5c.047 0 1.922 0 2.766-.031 1.485-.047 3.281-.266 4.078-.453zm1.89 6.64V.813H3.407v-2.907H2.344v3.828zm0 0"/></symbol><symbol overflow="visible" id="c"><path d="M9.969-3.344v-6.234H8.922v2.297H6.484v-1.907h-1v1.72H2.328v-1.72H1.297v5.313h5.187v-2.469h2.438v3zM5.484-4.78H2.328v-1.782h3.156zm4.485 6.64v-4.687H8.922v1.344H3.578v-1.344H2.516v4.687zM8.922.97H3.578V-.594h5.344zm0 0"/></symbol><symbol overflow="visible" id="d"><path d="M9.969-1.078v-8.5H8.922v8.5zM.859-6.375c0 1.656 1.22 3.031 2.97 3.031 1.733 0 2.968-1.375 2.968-3.031 0-1.688-1.234-3.047-2.969-3.047-1.75 0-2.969 1.36-2.969 3.047zm1.063 0c0-1.188.703-2.11 1.906-2.11 1.203 0 1.906.922 1.906 2.11 0 1.156-.703 2.078-1.906 2.078-1.203 0-1.906-.922-1.906-2.078zm8.375 8.11V.811H3.609v-2.875H2.531v3.797zm0 0"/></symbol><symbol overflow="visible" id="f"><path d="M9.875 1.969V-9.578H8.812V1.969zM6.578-.953v-7.89H1.36v7.89zm-1.031-.922H2.422v-6.031h3.125zm0 0"/></symbol><symbol overflow="visible" id="g"><path d="M10.094 1.969V-9.578H9.063v4.11H7.687v-3.923h-1.03V1.422h1.03v-5.844h1.375v6.39zM6.234-2c-.484.094-1.656.203-2.437.219l-1.485.031v-2.625H5.36v-4.516H1.281v.922h3.063v2.672H1.28v4.484l2.172-.03a21.41 21.41 0 0 0 2.781-.25zm0 0"/></symbol><symbol overflow="visible" id="h"><path d="M10.094 1.969V-9.578H9.063V1.969zM1.438-6.328c0 1.594 1.25 2.89 2.984 2.89 1.719 0 2.969-1.296 2.969-2.89 0-1.563-1.25-2.86-2.97-2.86-1.734 0-2.984 1.297-2.984 2.86zm1.046 0c0-1.078.735-1.953 1.938-1.953 1.203 0 1.906.875 1.906 1.953 0 1.094-.703 1.969-1.906 1.969-1.203 0-1.938-.875-1.938-1.97zm6.172 4.375c-.906.14-3.562.344-4.531.375-.453.016-3.234.016-3.281.016v.953c.031 0 2.328.015 2.781 0 2.078-.032 4.063-.282 5.031-.422zm0 0"/></symbol><symbol overflow="visible" id="i"><path d="M11.266-5.516v-.968H9.703v-3.094H8.641v7.406h1.062v-3.344zM5.812-8.734v-.875H2.376v.875zM7.407-7v-.875H.828V-7zM1.281-4.453c0 1.031 1.172 1.89 2.828 1.89 1.75 0 2.844-.843 2.844-1.89 0-1.063-1.062-1.906-2.828-1.906-1.688 0-2.844.843-2.844 1.906zm1.11-.016c0-.64.671-1.047 1.734-1.047 1.078 0 1.719.391 1.719 1.047 0 .657-.625 1.078-1.719 1.078-1.063 0-1.734-.406-1.734-1.078zm7.312 6.5v-3.64H2.188v.906h6.421V2.03zm0 0"/></symbol><symbol overflow="visible" id="j"><path d="M9.969-1.078v-8.5H8.922v1.344H6.203a2.878 2.878 0 0 0-2.39-1.235c-1.735 0-2.97 1.406-2.97 3.078s1.235 3.047 2.97 3.047c1.062 0 1.937-.515 2.453-1.297h2.656v3.563zM8.922-5.562H6.656c.094-.266.14-.547.14-.829 0-.312-.046-.64-.14-.906h2.266zm-7-.829c0-1.171.703-2.125 1.89-2.125 1.22 0 1.907.954 1.907 2.125 0 1.157-.688 2.11-1.907 2.11-1.187 0-1.89-.953-1.89-2.11zm8.36 8.125V.813H3.608v-2.875H2.531v3.796zm0 0"/></symbol><symbol overflow="visible" id="k"><path d="M10.906-3.11v-.937H9.094c.281-1.312.515-3.516.562-5.125H1.61v.922h6.922A25.348 25.348 0 0 1 8-4.047H.375v.938h4.64v5.078h1.048V-3.11zm0 0"/></symbol><symbol overflow="visible" id="l"><path d="M6.266-7.375v-.031h2.609v-1.375H1.906v1.375H4.5v.015c-.063.61-.438 1.172-.969 1.641-.687.578-1.594 1.016-2.469 1.266.391.328.891.828 1.188 1.187.672-.265 1.328-.61 1.875-1.047.547-.406 1-.875 1.266-1.375.328.516.796.953 1.328 1.328a7.083 7.083 0 0 0 1.672.813c.218-.313.625-.797.968-1.172a5.38 5.38 0 0 1-1.968-.969c-.579-.453-1.047-1.031-1.125-1.656zm3.687 5.297c-1.031.14-3.187.281-3.781.281v-2.016h-1.61v2.047H.938v1.454h3c1.954 0 4.922-.172 6.016-.36zm2.063 4.406v-13.594h-1.579V2.328zM7.328-9.719v-1.344h-4v1.344zm0 0"/></symbol><symbol overflow="visible" id="m"><path d="M11.828-1.281v-9.985H10.25v9.985zm-6.36-7.844v-1.844H3.782v1.89c0 1.017-.36 1.907-.937 2.657-.64.86-1.578 1.547-2.563 2.031.438.344 1.016.829 1.281 1.11A8.03 8.03 0 0 0 3.36-4.625c.563-.563 1.063-1.203 1.266-1.828.344.64.875 1.234 1.453 1.719a9.06 9.06 0 0 0 1.64 1.093c.25-.328.704-.843 1.032-1.25a5.363 5.363 0 0 1-2.281-1.625c-.61-.734-1-1.625-1-2.609zm6.673 11.188V.64H4.53v-2.938H2.906v4.36zm0 0"/></symbol><symbol overflow="visible" id="n"><path d="M12.781-3.5v-1.438H7.437v-1.53h3.954v-1.407H3.625v-1.656h7.625v-1.39H2.016v4.452h3.78v1.532H.47V-3.5zM6.61 2.594c3.204 0 4.922-1.156 4.922-2.656 0-1.5-1.719-2.61-4.922-2.61-3.171 0-4.906 1.11-4.906 2.61 0 1.5 1.734 2.656 4.906 2.656zM3.547-.078c0-.86 1.156-1.344 3.062-1.344 1.891 0 3.079.516 3.079 1.375 0 .828-1.188 1.313-3.079 1.313-1.906 0-3.062-.5-3.062-1.344zm0 0"/></symbol><symbol overflow="visible" id="o"><path d="M13-4.875v-1.406h-1.703v-1.563H13v-1.39h-1.703v-2.032H9.719v8.61h1.578v-2.219zm-6.313-5.203v-1.25H2.579v1.25zm1.844 2.062v-1.25H.766v1.25zm-7.36 2.61c0 1.156 1.485 2.125 3.485 2.125 2.14 0 3.485-.938 3.485-2.14 0-1.188-1.344-2.048-3.47-2.048-2.03 0-3.5.89-3.5 2.063zm5.298-.016c0 .64-.672.984-1.797.984s-1.828-.328-1.828-.968c0-.625.703-.969 1.828-.969s1.797.328 1.797.953zM11.579 0c0-1.578-1.938-2.547-4.688-2.547-2.61 0-4.72.89-4.72 2.5 0 1.61 2.032 2.625 4.704 2.625 2.656 0 4.703-.922 4.703-2.578zM3.936-.031c0-.938 1.47-1.266 2.938-1.266 1.625 0 2.89.406 2.89 1.266 0 .906-1.374 1.328-2.874 1.328S3.937.875 3.937-.031zm0 0"/></symbol><symbol overflow="visible" id="p"><path d="M12.797.828V-.609h-5.36v-2.766h3.766v-7.484H9.61v2.218H3.625v-2.218H2.031v7.484h3.75v2.766H.453V.828zm-3.188-5.64H3.625v-2.422h5.984zm0 0"/></symbol><symbol overflow="visible" id="q"><path d="M1.766-10.516v1.422h7.843c-.078 2.125-.359 4.531-.75 6.672h1.579c.437-2.344.78-5.75.89-8.094zM12.796.828V-.609H6.314v-5.063h-1.61v5.063H.453V.828zm0 0"/></symbol><symbol overflow="visible" id="r"><path d="M11.828 2.328v-13.594h-1.594v3.954h-2.78v1.515h2.78v8.125zM5.438-7.719v-3H3.766v2.906c0 1.36-.282 2.579-.829 3.625C2.313-3 1.375-2.03.142-1.265c.484.329 1.046.782 1.343 1.079.579-.391 1.282-1.047 1.875-1.782.563-.703 1.063-1.484 1.266-2.187A7.706 7.706 0 0 0 6.047-2 9.645 9.645 0 0 0 7.719-.484a10.94 10.94 0 0 1 1.203-1.11c-1.125-.703-2.047-1.578-2.656-2.703-.516-.937-.829-2.062-.829-3.422zm0 0"/></symbol><symbol overflow="visible" id="t"><path d="M4.531-.922l-2.687-9.453H.172L3.734 1.141h1.579L8.89-10.375H7.219zm0 0"/></symbol><symbol overflow="visible" id="u"><path d="M4.016-6.25C5.25-6.25 5.937-4.969 5.937-3S5.25.25 4.016.25C2.796.25 2.125-1.031 2.125-3s.672-3.25 1.89-3.25zm0-1.266C1.734-7.516.578-5.703.578-3c0 2.719 1.156 4.484 3.438 4.484 2.296 0 3.5-1.765 3.5-4.484 0-2.703-1.204-4.516-3.5-4.516zm0 0"/></symbol><symbol overflow="visible" id="v"><path d="M.922-10.375V1.141h1.5v-11.516zm0 0"/></symbol><symbol overflow="visible" id="w"><path d="M1.063-.078v2.047h2.03V-.078zm0 0"/></symbol><symbol overflow="visible" id="x"><path d="M.938-7.14h1.937v8.343h1.547v-11.75H3.156C2.984-8.984 2.484-8.359.937-8.28zm0 0"/></symbol><symbol overflow="visible" id="y"><path d="M3.297-10.594C1.312-10.594.328-8.297.328-4.5c0 3.766.984 6.031 2.969 6.031 1.969 0 3-2.265 3-6.031 0-3.797-1.031-6.094-3-6.094zm0 1.36c.875 0 1.469 1.828 1.469 4.734 0 2.875-.594 4.688-1.47 4.688-.874 0-1.452-1.813-1.452-4.688 0-2.906.578-4.734 1.453-4.734zm0 0"/></symbol><symbol overflow="visible" id="z"><path d="M1.969-11.11l2.234 9.532 2.172-9.531h1.516L4.984.42H3.375L.406-11.108zm7.953 0V.423H8.5V-11.11zm2.687 0V.423h-1.421V-11.11zm0 0"/></symbol><symbol overflow="visible" id="A"><path d="M1.39-.766h1.766v1.844H1.391zm0 0"/></symbol><symbol overflow="visible" id="C"><path d="M11.938-4.328h-4.11v3.25h5.781V.266H.5v-1.344h5.781v-3.25H2.266v-6.938h9.5v1.344h-7.97v4.25h8.142zm0 0"/></symbol><symbol overflow="visible" id="D"><path d="M.5-4.297V-5.64h13.11v1.344H7.827v1.484h3.906V2.22H2.375v-5.031h3.906v-1.485zm6.547-8c.683 0 1.312.067 1.875.188.558.117 1.039.289 1.437.515.403.219.72.492.938.813.226.312.344.68.344 1.094v.453c0 .418-.118.789-.344 1.109-.219.313-.535.586-.938.813a5.084 5.084 0 0 1-1.437.5 9.256 9.256 0 0 1-1.875.171c-.68 0-1.3-.054-1.86-.171a5.196 5.196 0 0 1-1.453-.5c-.406-.227-.722-.5-.937-.813a1.922 1.922 0 0 1-.328-1.11v-.453c0-.414.11-.78.328-1.093.215-.32.531-.594.937-.813.403-.226.891-.398 1.454-.515a8.786 8.786 0 0 1 1.859-.188zm0 4.36c.445 0 .86-.032 1.234-.094.383-.07.711-.164.985-.281a1.83 1.83 0 0 0 .64-.422.81.81 0 0 0 .235-.563v-.328c0-.195-.082-.379-.235-.547a1.802 1.802 0 0 0-.64-.437 4.043 4.043 0 0 0-.985-.282 8.262 8.262 0 0 0-2.484 0c-.375.063-.7.16-.969.282a1.768 1.768 0 0 0-.625.437.792.792 0 0 0-.234.547v.328c0 .211.078.399.234.563.152.168.363.308.625.421.27.118.594.211.969.282.383.062.8.094 1.25.094zm3.172 6.453H3.89V.89h6.328zm0 0"/></symbol><symbol overflow="visible" id="E"><path d="M8.781-6.797c-.511-.258-.902-.488-1.172-.687-.273-.207-.457-.407-.546-.594h-.016c-.086.187-.262.387-.531.594-.274.21-.668.445-1.188.703-.418.218-.894.46-1.422.718-.523.25-1.105.504-1.75.75l-.61-1.28a26.606 26.606 0 0 0 1.704-.735 22.463 22.463 0 0 0 1.594-.813c.3-.164.547-.336.734-.515.195-.176.348-.352.453-.531.102-.184.172-.368.203-.547.04-.184.063-.38.063-.579h-4.11v-1.343h9.766v1.344H7.828c0 .199.016.394.047.578.04.18.11.363.203.546.102.18.25.356.438.532.183.18.437.351.75.515.496.282 1.023.555 1.578.813.558.262 1.133.508 1.719.734l-.594 1.266c-.656-.246-1.246-.5-1.766-.75a91.81 91.81 0 0 1-1.422-.719zm-2.5 9.031v-5.046H.5v-1.344h13.11v1.343H7.827v5.047zm0 0"/></symbol><symbol overflow="visible" id="F"><path d="M4.89.703h7.735v1.375H3.359v-4.953h1.532zm5.876-2.719V-12.5h1.53v10.484zM4.953-7.03c-.043.136-.168.332-.375.578-.2.242-.418.476-.656.703-.324.305-.707.645-1.14 1.016-.43.375-.852.738-1.266 1.078L.609-4.781c.239-.184.477-.38.72-.578.245-.207.484-.407.702-.594.227-.195.43-.383.61-.563.183-.175.347-.332.484-.468.195-.196.36-.391.484-.579.133-.183.239-.378.313-.578.082-.195.14-.406.172-.625a6.39 6.39 0 0 0 .047-.765v-2.281h1.546v2.218c0 .25.004.477.016.672.02.2.055.383.11.547.05.168.128.336.234.5.113.168.266.336.453.5.352.344.75.707 1.188 1.078.445.367.898.715 1.359 1.047l-.89 1.11c-.4-.31-.79-.63-1.173-.954-.375-.32-.754-.644-1.125-.968a5.304 5.304 0 0 1-.593-.547 1.656 1.656 0 0 1-.297-.422zm0 0"/></symbol><symbol overflow="visible" id="G"><path d="M11.719-6.25H2.375v-5.844h1.516v1.719h6.312v-1.734h1.516zM6.469-.86v-2.734H.5v-1.344h13.11v1.344H8.015v2.735zM3.922.704H12v1.375H2.39v-4.187h1.532zM3.89-7.578h6.312v-1.516H3.891zm0 0"/></symbol><symbol overflow="visible" id="H"><path d="M2.375 2.328v-3.687h7.844v-1.125H2.297v-1.282h9.422v3.672H3.875v1.125h8.266v1.297zm11.234-8.562v1.312H.5v-1.312zm-2.015-5.875v1.312h-7.64v2.078h7.733v1.328h-9.25v-4.718zm0 0"/></symbol><symbol overflow="visible" id="I"><path d="M4.938.703h7.687v1.375H3.406v-4.89h1.531zm5.875-2.687V-12.5h1.53v10.516zM6.78-8.47c0-.246-.043-.492-.125-.734a1.79 1.79 0 0 0-1.031-1.14 2.216 2.216 0 0 0-.938-.188c-.375 0-.699.066-.968.187a1.726 1.726 0 0 0-.656.469c-.168.2-.293.426-.376.672-.074.242-.109.488-.109.734v.703c0 .243.04.489.125.735.082.242.207.46.375.656.164.2.379.363.64.484.27.125.595.188.97.188.363 0 .675-.063.937-.188.27-.12.488-.285.656-.484.176-.195.301-.414.375-.656a2.32 2.32 0 0 0 .125-.735zM1.094-8.53c0-.364.07-.742.218-1.14a3.13 3.13 0 0 1 .672-1.095c.301-.332.672-.601 1.11-.812.445-.215.976-.328 1.594-.328.59 0 1.113.113 1.562.328.445.21.82.48 1.125.812.3.325.523.692.672 1.094.144.399.219.777.219 1.14v.829c0 .367-.075.746-.22 1.14a3.368 3.368 0 0 1-.671 1.094c-.305.336-.68.614-1.125.828-.45.211-.973.313-1.563.313-.617 0-1.148-.102-1.593-.313a3.605 3.605 0 0 1-1.11-.828 3.239 3.239 0 0 1-.671-1.093 3.22 3.22 0 0 1-.22-1.141zm0 0"/></symbol><symbol overflow="visible" id="J"><path d="M2.375 2.328v-3.656h7.844v-1.078H2.297v-1.297H6.28v-1.39H.5v-1.313h13.11v1.312H7.827v1.39h3.89v3.642H3.876V1.03h8.266v1.297zm9.328-9.75H2.406v-4.734h9.297zm-1.5-3.437H3.906v2.125h6.297zm0 0"/></symbol><symbol overflow="visible" id="K"><path d="M7.047-7.172c-.086.18-.277.41-.578.688-.305.273-.723.582-1.25.921-.45.305-.93.614-1.438.922-.511.313-1.09.66-1.734 1.032L1.28-4.86a90.99 90.99 0 0 0 1.703-.985c.52-.308 1.04-.648 1.563-1.015.34-.239.629-.47.86-.688.226-.226.405-.46.53-.703.133-.246.223-.52.266-.813.05-.3.078-.648.078-1.046v-1.438h1.547v1.438c0 .398.02.746.063 1.046.039.293.129.567.265.813.133.25.32.496.563.734.246.23.586.489 1.015.766.489.336.973.648 1.454.938.488.28 1.035.597 1.64.937l-.734 1.234c-.586-.34-1.153-.675-1.703-1a30.53 30.53 0 0 1-1.516-.953c-.5-.332-.91-.633-1.219-.906-.312-.27-.511-.492-.593-.672zm6.562 6.094V.266H.5v-1.344h5.781v-3.156h1.532v3.156zm0 0"/></symbol><symbol overflow="visible" id="L"><path d="M12.906 2.234h-1.5v-8.218H9.687v7.5h-1.5v-13.72h1.5v4.845h1.72V-12.5h1.5zM4.97-9.703H1v-1.36h5.484v3c0 .481-.023.918-.062 1.313a5.436 5.436 0 0 1-.25 1.14 4.34 4.34 0 0 1-.516 1.048c-.23.335-.535.69-.906 1.062-.367.367-.82.762-1.36 1.188-.542.43-1.19.898-1.937 1.406L.61-2.141a27.167 27.167 0 0 0 1.829-1.312c.496-.395.91-.758 1.234-1.094.332-.332.586-.648.765-.953.176-.309.301-.613.375-.906.07-.29.114-.594.125-.907.02-.308.032-.648.032-1.015zm0 0"/></symbol><symbol overflow="visible" id="M"><path d="M2.016-11.11L3.5-1.577l1.422-9.531H6.39L4.297.42h-1.61L.517-11.108zm6.296 0V.423H6.954V-11.11zm2.422 0V.423H9.391V-11.11zm2.438 0V.423h-1.344V-11.11zm0 0"/></symbol><symbol overflow="visible" id="N"><path d="M11.781-3.5v5.719H3.062V-3.5zm-5.86-6.797H1.36v-1.344h6.063v2.235c0 .625-.09 1.164-.266 1.61-.18.448-.496.87-.953 1.265-.45.398-1.07.804-1.86 1.218-.78.407-1.784.88-3 1.407L.782-5.172a35.177 35.177 0 0 0 2.64-1.234c.677-.364 1.196-.703 1.563-1.016.371-.32.625-.644.75-.969.121-.332.188-.707.188-1.125zM4.595.875h5.672v-3.031H4.594zm9.218-8.578h-2.03v3.484h-1.516V-12.5h1.515v3.422h2.031zm0 0"/></symbol><symbol overflow="visible" id="O"><path d="M13.875-5.797h-2.203v8.031H10.14V-12.5h1.53v5.328h2.204zm-9.14.64c-.075.18-.184.364-.329.548-.136.18-.332.402-.578.671-.324.368-.695.762-1.11 1.188-.405.418-.878.879-1.405 1.375l-1-1.078a32.272 32.272 0 0 0 2.453-2.469c.226-.277.421-.535.578-.766.152-.238.273-.472.36-.703.089-.226.155-.46.187-.703.039-.238.062-.5.062-.781v-3.547H5.5v3.547c0 .313.02.598.063.844a3.406 3.406 0 0 0 .578 1.406c.164.23.367.48.609.75.32.375.664.742 1.031 1.094.364.355.774.746 1.235 1.172L8.03-1.516a39.083 39.083 0 0 1-1.36-1.328c-.366-.383-.698-.742-1-1.078-.218-.238-.413-.46-.577-.672a2.286 2.286 0 0 1-.344-.562zm0 0"/></symbol><symbol overflow="visible" id="P"><path d="M5.328-4.406c-.586 0-1.113-.086-1.578-.266a4.018 4.018 0 0 1-1.203-.719 3.209 3.209 0 0 1-.75-1.03 2.799 2.799 0 0 1-.266-1.204v-.734c0-.414.086-.817.266-1.204.176-.382.426-.722.75-1.015.332-.3.734-.54 1.203-.719a4.271 4.271 0 0 1 1.578-.281c.59 0 1.117.098 1.578.281.465.18.867.418 1.203.719a2.9 2.9 0 0 1 .75 1.015c.176.387.266.79.266 1.204v.734c0 .418-.09.82-.266 1.203-.168.387-.418.73-.75 1.031a4.118 4.118 0 0 1-1.203.72c-.46.179-.988.265-1.578.265zm0-1.375c.32 0 .625-.051.906-.157.29-.113.54-.257.75-.437.207-.176.368-.379.485-.61.12-.238.187-.484.187-.734v-.547c0-.257-.066-.507-.187-.75a1.792 1.792 0 0 0-.485-.609 2.495 2.495 0 0 0-.75-.422 2.66 2.66 0 0 0-.906-.156 2.628 2.628 0 0 0-1.656.578c-.211.168-.379.371-.5.61a1.698 1.698 0 0 0-.172.75v.546c0 .25.055.496.172.735.121.23.289.433.5.609.215.18.469.324.75.438.277.105.582.156.906.156zM10.25-1.22a97.43 97.43 0 0 1-2.016.172c-.68.055-1.398.098-2.156.125-.762.031-1.574.059-2.437.078-.856.012-1.79.016-2.797.016v-1.375c1.02 0 1.953-.004 2.797-.016.851-.008 1.648-.023 2.39-.047a73.347 73.347 0 0 0 2.11-.109c.664-.05 1.32-.11 1.968-.172zm.734 3.453V-12.5h1.532V2.234zm0 0"/></symbol><symbol overflow="visible" id="Q"><path d="M2.375 2.328v-3.937h7.844V-3H2.297v-1.297h9.422v3.938H3.875v1.39h8.266v1.297zm-.172-14.344h9.438v1.797c0 .406-.028.899-.079 1.469a24.21 24.21 0 0 1-.203 1.594h2.25v1.343H.5v-1.343h9.266c.113-.54.195-1.078.25-1.61.05-.527.078-1.035.078-1.515v-.406h-7.89zm0 0"/></symbol><symbol overflow="visible" id="R"><path d="M6.5-12.281L1.75 2.047H.281L5-12.281zm0 0"/></symbol><symbol overflow="visible" id="S"><path d="M2.703-6.719c0-.332.086-.648.266-.953.176-.3.445-.562.812-.781.371-.215.832-.383 1.375-.5a8.692 8.692 0 0 1 1.89-.188c.727 0 1.364.067 1.907.188.54.117.992.285 1.36.5.363.219.632.48.812.781.184.305.281.621.281.953v.39c0 .345-.097.669-.281.97-.18.293-.45.55-.813.765-.367.219-.82.395-1.359.516-.543.117-1.18.172-1.906.172-.719 0-1.352-.055-1.89-.172a4.745 4.745 0 0 1-1.376-.516c-.367-.215-.636-.472-.812-.765-.18-.301-.266-.625-.266-.97zm3.578 8.953V-1.78H.5V-3.11h13.11v1.328H7.827v4.015zm1.563-13.343h4.547v1.328H1.719v-1.328h4.547v-1.672h1.578zM4.219-6.406c0 .125.05.27.156.422.113.148.285.277.516.39.226.117.52.215.875.297.363.086.789.125 1.28.125.497 0 .927-.039 1.282-.125.352-.082.645-.18.875-.297.238-.113.41-.242.516-.39.113-.153.172-.297.172-.422v-.235c0-.12-.059-.257-.172-.406-.106-.144-.278-.273-.516-.39a3.41 3.41 0 0 0-.875-.297 5.78 5.78 0 0 0-1.281-.125c-.492 0-.918.043-1.281.125a3.308 3.308 0 0 0-.875.296c-.23.118-.403.247-.516.391-.105.149-.156.285-.156.406zm0 0"/></symbol><symbol overflow="visible" id="T"><path d="M5.203-6.703a4.89 4.89 0 0 1-1.469-.203 3.464 3.464 0 0 1-1.109-.547 2.424 2.424 0 0 1-.703-.797 2.094 2.094 0 0 1-.234-.953v-.516c0-.332.078-.644.234-.937.164-.301.398-.567.703-.797.3-.238.672-.426 1.11-.563a4.642 4.642 0 0 1 1.468-.218c.55 0 1.04.074 1.469.218.433.137.805.325 1.11.563.308.23.546.496.702.797.153.293.235.605.235.937v.516c0 .324-.082.644-.235.953-.156.305-.394.57-.703.797-.304.23-.676.414-1.11.547-.429.136-.917.203-1.468.203zm5.703 5.61v-1.298H7.891v-1.328h3.015V-12.5h1.531v11.406zM4.61.733h8.11v1.36H3.063V-1.86h1.546zm-.312-3.187v-2.11A89.849 89.849 0 0 1 .766-4.5v-1.375h2.39c.739-.008 1.461-.031 2.172-.063A106.37 106.37 0 0 0 7.5-6.046c.738-.05 1.531-.113 2.375-.187l.11 1.328c-.669.074-1.348.136-2.032.187a80.59 80.59 0 0 1-2.14.11v2.156zm.906-5.578c.332 0 .625-.035.875-.11a2.07 2.07 0 0 0 .64-.28c.177-.122.313-.259.407-.407a.931.931 0 0 0 .14-.469v-.328a.878.878 0 0 0-.14-.453 1.34 1.34 0 0 0-.406-.406 2.272 2.272 0 0 0-.64-.282 2.814 2.814 0 0 0-.876-.125c-.324 0-.617.043-.875.125-.25.075-.465.168-.64.282-.18.117-.317.254-.407.406a.843.843 0 0 0-.14.453v.328c0 .156.046.317.14.469.09.148.227.285.406.406.176.117.391.211.641.281.258.075.55.11.875.11zm0 0"/></symbol><symbol overflow="visible" id="U"><path d="M4.781-5.047c-.074.18-.183.367-.328.563-.148.187-.348.425-.594.703-.324.355-.683.742-1.078 1.156-.386.406-.847.863-1.375 1.36l-1-1.063a43.2 43.2 0 0 0 1.266-1.25c.394-.395.77-.797 1.125-1.203.246-.278.453-.54.61-.782.152-.238.273-.468.359-.687a3.03 3.03 0 0 0 .171-.672c.028-.238.047-.508.047-.812v-2.047H.922v-1.375h7.61v1.375h-3v2.047c0 .324.015.605.046.843.027.23.086.45.172.657.09.21.223.43.39.656.165.23.383.504.657.812.332.375.672.739 1.016 1.079.351.335.757.71 1.218 1.124l-1 1.079a47.8 47.8 0 0 1-1.328-1.282c-.344-.363-.668-.707-.969-1.03a28.774 28.774 0 0 1-.593-.688c-.18-.215-.293-.407-.344-.563zm9.094-.625h-2.203v7.906H10.14V-12.5h1.53v5.453h2.204zm0 0"/></symbol><symbol overflow="visible" id="V"><path d="M10.031-5.516L13.125.422h-1.766L9-4.5 6.734.422H5.031L8.078-5.61l-2.812-5.5h1.718l2.157 4.546 2.109-4.546h1.64zm-5.64-5.593V.42h-1.5v-11.53zm0 0"/></symbol><symbol overflow="visible" id="W"><path d="M1.094-2.234a45.91 45.91 0 0 0 2.11-1.329c.57-.394 1.046-.753 1.421-1.078.383-.32.688-.625.906-.906.215-.289.38-.578.485-.86.113-.277.18-.57.203-.874.027-.309.047-.66.047-1.047v-1.453H1.375v-1.36h6.406v2.829c0 .48-.02.917-.047 1.312a3.97 3.97 0 0 1-.218 1.094 4.471 4.471 0 0 1-.547 1.031c-.242.336-.586.695-1.032 1.078-.437.375-.988.793-1.64 1.25-.656.461-1.457.988-2.39 1.578zm9.703 4.468V-12.5h1.547V2.234zm0 0"/></symbol><symbol overflow="visible" id="X"><path d="M11.75-5.406H2.36v-6.516h1.515v2.016h6.36v-2.031h1.515zm-5.469 7.64v-4.687H.5v-1.328h13.11v1.328H7.827v4.687zm-2.406-9h6.36v-1.796h-6.36zm0 0"/></symbol><symbol overflow="visible" id="Y"><path d="M11.734 2.219H2.375v-5.594h9.36zm-9.53-14.094h9.437v2.266c0 .449-.028.957-.079 1.515a19.781 19.781 0 0 1-.234 1.672h2.281v1.344H.5v-1.344h9.25c.121-.59.21-1.16.266-1.703.05-.55.078-1.066.078-1.547v-.86h-7.89zm8.015 9.828H3.89V.891h6.328zm0 0"/></symbol><symbol overflow="visible" id="Z"><path d="M7.047-12.313c.683 0 1.312.067 1.875.188.558.125 1.039.305 1.437.531.403.23.72.512.938.844.226.324.344.695.344 1.11v.453c0 .449-.13.847-.375 1.187-.243.336-.582.617-1.016.844v1.953h3.36v1.328H.5v-1.328h3.375v-1.938c-.46-.238-.809-.523-1.047-.859a1.996 1.996 0 0 1-.36-1.188v-.453c0-.414.11-.785.329-1.109.215-.332.531-.613.937-.844.403-.226.891-.406 1.454-.531a8.786 8.786 0 0 1 1.859-.188zm0 14.97c-.73 0-1.379-.083-1.938-.235-.562-.149-1.039-.348-1.421-.594-.387-.25-.676-.535-.86-.844a1.862 1.862 0 0 1-.281-.968v-.547c0-.309.094-.63.281-.953.184-.32.473-.602.86-.844a5.21 5.21 0 0 1 1.421-.61 7.394 7.394 0 0 1 1.938-.234c.738 0 1.39.082 1.953.235.559.156 1.031.363 1.406.609.371.242.66.523.86.844.195.324.296.644.296.953v.547c0 .32-.101.64-.296.953-.2.32-.489.601-.86.844-.375.246-.847.453-1.406.609a7.496 7.496 0 0 1-1.953.234zm0-10.485c.445 0 .86-.035 1.234-.11.383-.07.711-.164.985-.28.27-.122.484-.274.64-.454a.868.868 0 0 0 .235-.578v-.328c0-.207-.082-.399-.235-.578a1.934 1.934 0 0 0-.64-.453 4.043 4.043 0 0 0-.985-.282C7.906-10.96 7.492-11 7.047-11c-.45 0-.867.04-1.25.11-.375.062-.7.16-.969.28a1.9 1.9 0 0 0-.625.454.864.864 0 0 0-.234.578v.328c0 .21.078.402.234.578.152.18.363.332.625.453.27.117.594.211.969.281.383.075.8.11 1.25.11zm0 5.953c-.461 0-.879.05-1.25.14a4.09 4.09 0 0 0-.938.344c-.25.137-.449.293-.593.47-.137.179-.204.35-.204.515v.297c0 .164.067.336.204.515.144.176.343.332.593.469.246.145.563.258.938.344.371.09.789.14 1.25.14.465 0 .883-.05 1.25-.14.371-.086.687-.2.937-.344.258-.137.457-.293.594-.469.145-.18.219-.351.219-.515v-.297c0-.164-.074-.336-.219-.516a1.816 1.816 0 0 0-.594-.469 4.232 4.232 0 0 0-.937-.343 5.269 5.269 0 0 0-1.25-.141zm0-4.64c-.293 0-.582-.005-.86-.016a4.534 4.534 0 0 1-.796-.125v1.453h3.328v-1.469a8.3 8.3 0 0 1-1.672.156zm0 0"/></symbol><symbol overflow="visible" id="aa"><path d="M12.86 2.234h-1.5v-8.562H9.546v7.844h-1.5v-13.72h1.5v4.5h1.812V-12.5h1.5zM2.702-11.109v7.906h.61c.59 0 1.187-.016 1.78-.047.602-.04 1.227-.117 1.876-.234L7.14-2.11c-.625.117-1.309.195-2.047.234-.742.043-1.555.063-2.438.063h-1.5v-9.297zm0 0"/></symbol><symbol overflow="visible" id="ab"><path d="M8.047-7.922c0 .344-.074.711-.219 1.094a2.973 2.973 0 0 1-.64 1.047A3.556 3.556 0 0 1 6.077-5c-.45.2-.976.297-1.578.297-.617 0-1.148-.098-1.594-.297a3.748 3.748 0 0 1-1.11-.781 2.864 2.864 0 0 1-.64-1.047 3.259 3.259 0 0 1-.203-1.094v-.828c0-.34.067-.707.203-1.094a2.93 2.93 0 0 1 .64-1.047 3.64 3.64 0 0 1 1.11-.765c.446-.207.977-.313 1.594-.313.602 0 1.129.106 1.578.313.445.199.817.457 1.11.765.289.313.503.664.64 1.047.145.387.219.754.219 1.094zM3.016-3.188h9.421v5.563h-1.546v-4.203H3.016zm7.906-.765v-2H8.687v-1.36h2.235v-1.953H8.687v-1.359h2.235V-12.5h1.515v8.547zM6.578-8.656c0-.239-.043-.473-.125-.703a1.887 1.887 0 0 0-.39-.625 1.73 1.73 0 0 0-.657-.438 2.273 2.273 0 0 0-.906-.172c-.367 0-.68.059-.938.172a1.698 1.698 0 0 0-.64.438 1.993 1.993 0 0 0-.5 1.328v.64c0 .243.039.477.125.704a1.829 1.829 0 0 0 1.015 1.078c.258.105.57.156.938.156.34 0 .645-.05.906-.156.27-.114.489-.266.657-.454.175-.183.304-.394.39-.625.082-.226.125-.46.125-.703zm0 0"/></symbol><symbol overflow="visible" id="ac"><path d="M7.953-5.531H1.422v-6.235h6.531zM12.5-3.11v1.296H8.61c.007.18.03.336.062.47.039.136.11.273.203.405.102.125.238.247.406.36.164.105.375.223.625.344.239.105.469.207.688.296.226.102.469.208.719.313.246.102.515.207.796.313.29.101.614.218.97.343l-.548 1.282a52.309 52.309 0 0 1-1.656-.641l-1.406-.594C8.625.691 8.082.301 7.844-.094c-.25.403-.801.801-1.64 1.188-.438.183-.915.383-1.423.593-.5.208-1.05.422-1.64.641l-.563-1.265C3.273.788 3.868.554 4.36.359c.489-.187.957-.382 1.407-.593.488-.239.82-.473 1-.704.175-.238.273-.53.296-.875H3.156v-1.296h3.906v-1.563H8.61v1.563zM2.906-6.86H6.47v-3.579H2.906zm7.906 2.437V-12.5h1.532v8.078zm0 0"/></symbol><symbol overflow="visible" id="ad"><path d="M.89-8.531c0-.364.067-.742.204-1.14a3.13 3.13 0 0 1 .672-1.095c.3-.332.671-.601 1.109-.812.445-.215.977-.328 1.594-.328.59 0 1.113.113 1.562.328.457.21.832.48 1.125.812.301.325.524.692.672 1.094.145.399.219.777.219 1.14v.829c0 .367-.074.746-.219 1.14a3.368 3.368 0 0 1-.672 1.094 3.373 3.373 0 0 1-1.125.828c-.449.211-.972.313-1.562.313-.617 0-1.149-.102-1.594-.313a3.605 3.605 0 0 1-1.11-.828 3.239 3.239 0 0 1-.671-1.093A3.468 3.468 0 0 1 .89-7.704zM13.813-7h-2.03v5.016h-1.516V-12.5h1.515v4.125h2.031zM4.595.703h7.578v1.375H3.047v-4.89h1.547zm1.984-9.172c0-.246-.043-.492-.125-.734a2.008 2.008 0 0 0-.39-.672 1.79 1.79 0 0 0-.657-.469 2.216 2.216 0 0 0-.937-.187c-.375 0-.7.066-.969.187a1.726 1.726 0 0 0-.656.469c-.168.2-.293.426-.375.672-.074.242-.11.488-.11.734v.703c0 .243.04.489.125.735.082.242.207.46.375.656.164.2.38.363.641.484.27.125.594.188.969.188.363 0 .676-.063.937-.188.27-.12.489-.285.657-.484a1.94 1.94 0 0 0 .39-.656 2.32 2.32 0 0 0 .125-.735zm0 0"/></symbol></defs><g fill="#33459a"><use xlink:href="#a" x="377.966" y="195.92"/><use xlink:href="#b" x="389.049" y="195.92"/><use xlink:href="#c" x="400.132" y="195.92"/><use xlink:href="#d" x="411.215" y="195.92"/><use xlink:href="#e" x="422.299" y="195.92"/><use xlink:href="#f" x="425.825" y="195.92"/><use xlink:href="#g" x="436.909" y="195.92"/><use xlink:href="#h" x="447.992" y="195.92"/><use xlink:href="#i" x="459.075" y="195.92"/><use xlink:href="#j" x="470.159" y="195.92"/><use xlink:href="#k" x="481.242" y="195.92"/><use xlink:href="#a" x="492.325" y="195.92"/><use xlink:href="#b" x="503.409" y="195.92"/><use xlink:href="#e" x="514.492" y="195.92"/></g><g fill="#495756"><use xlink:href="#l" x="377.966" y="218.358"/><use xlink:href="#m" x="390.962" y="218.358"/><use xlink:href="#n" x="403.959" y="218.358"/><use xlink:href="#o" x="416.956" y="218.358"/><use xlink:href="#p" x="429.953" y="218.358"/><use xlink:href="#q" x="442.949" y="218.358"/><use xlink:href="#r" x="455.946" y="218.358"/><use xlink:href="#s" x="468.943" y="218.358"/><use xlink:href="#t" x="473.078" y="218.358"/><use xlink:href="#u" x="481.821" y="218.358"/><use xlink:href="#v" x="489.56" y="218.358"/><use xlink:href="#w" x="492.588" y="218.358"/><use xlink:href="#s" x="496.723" y="218.358"/><use xlink:href="#x" x="500.859" y="218.358"/><use xlink:href="#y" x="507.209" y="218.358"/></g><g fill="#33459a"><use xlink:href="#z" x="333.925" y="372.96"/><use xlink:href="#A" x="347.876" y="372.96"/><use xlink:href="#B" x="352.278" y="372.96"/><use xlink:href="#C" x="355.998" y="372.96"/><use xlink:href="#D" x="369.949" y="372.96"/><use xlink:href="#E" x="383.9" y="372.96"/><use xlink:href="#F" x="397.851" y="372.96"/><use xlink:href="#B" x="411.802" y="372.96"/><use xlink:href="#G" x="415.523" y="372.96"/><use xlink:href="#H" x="429.474" y="372.96"/><use xlink:href="#B" x="443.425" y="372.96"/><use xlink:href="#I" x="447.145" y="372.96"/><use xlink:href="#J" x="461.096" y="372.96"/><use xlink:href="#B" x="475.047" y="372.96"/><use xlink:href="#K" x="478.767" y="372.96"/><use xlink:href="#L" x="492.718" y="372.96"/></g><g fill="#33459a"><use xlink:href="#M" x="344.977" y="399.927"/><use xlink:href="#A" x="358.928" y="399.927"/><use xlink:href="#B" x="363.33" y="399.927"/><use xlink:href="#N" x="367.05" y="399.927"/><use xlink:href="#O" x="381.001" y="399.927"/><use xlink:href="#P" x="394.952" y="399.927"/><use xlink:href="#B" x="408.903" y="399.927"/><use xlink:href="#Q" x="412.624" y="399.927"/><use xlink:href="#R" x="426.575" y="399.927"/><use xlink:href="#S" x="433.194" y="399.927"/><use xlink:href="#T" x="447.145" y="399.927"/><use xlink:href="#U" x="461.096" y="399.927"/><use xlink:href="#B" x="475.047" y="399.927"/><use xlink:href="#K" x="478.767" y="399.927"/><use xlink:href="#L" x="492.718" y="399.927"/></g><g fill="#33459a"><use xlink:href="#V" x="302.303" y="426.894"/><use xlink:href="#A" x="316.254" y="426.894"/><use xlink:href="#B" x="320.656" y="426.894"/><use xlink:href="#W" x="324.376" y="426.894"/><use xlink:href="#X" x="338.327" y="426.894"/><use xlink:href="#Y" x="352.278" y="426.894"/><use xlink:href="#B" x="366.229" y="426.894"/><use xlink:href="#O" x="369.95" y="426.894"/><use xlink:href="#Z" x="383.901" y="426.894"/><use xlink:href="#B" x="397.852" y="426.894"/><use xlink:href="#aa" x="401.572" y="426.894"/><use xlink:href="#ab" x="415.523" y="426.894"/><use xlink:href="#B" x="429.474" y="426.894"/><use xlink:href="#ac" x="433.194" y="426.894"/><use xlink:href="#B" x="447.145" y="426.894"/><use xlink:href="#S" x="450.866" y="426.894"/><use xlink:href="#T" x="464.817" y="426.894"/><use xlink:href="#ad" x="478.768" y="426.894"/><use xlink:href="#aa" x="492.719" y="426.894"/></g></svg>