<svg xmlns="http://www.w3.org/2000/svg" xmlns:xlink="http://www.w3.org/1999/xlink" width="793.701" height="1058.268" viewBox="0 0 595.276 793.701" version="1.2"><defs><symbol overflow="visible" id="a"><path d="M7.422 1.36v-7.985h-.734v2.938h-.954V-6.5H5V.984h.734v-3.953h.954V1.36zM2.938-4.626v-.813H4.28v-.625H.813v.625h1.359v.688c0 .953-.156 1.766-.469 2.453A4.316 4.316 0 0 1 .172-.594c.234.14.531.313.687.453.36-.265.735-.656 1.047-1.093.297-.407.532-.875.64-1.297.126.422.345.828.61 1.187.297.375.64.703.969.907.14-.172.36-.36.547-.5a3.485 3.485 0 0 1-1.344-1.516c-.25-.594-.39-1.328-.39-2.172zm0 0"/></symbol><symbol overflow="visible" id="b"><path d="M6.078-6.625V-.75h.75v-3.266h1.11v-.64h-1.11v-1.969zm-.344 3.234c-.546.11-2.015.282-2.843.297l-1.313.016v-2.547H4.61v-.64H.844v3.843c.031 0 1.375 0 1.984-.015 1.047-.032 2.328-.188 2.906-.329zm1.344 4.594v-.64H2.422v-2.016h-.75v2.656zm0 0"/></symbol><symbol overflow="visible" id="c"><path d="M7.11-2.313v-4.312h-.75v1.578H4.624v-1.312h-.719v1.187h-2.25v-1.187H.922v3.687h3.703V-4.39h1.734v2.079zm-3.204-1h-2.25V-4.53h2.25zM7.11 1.282v-3.234h-.75v.922H2.547v-.922h-.75V1.28zm-.75-.61H2.547V-.405h3.812zm0 0"/></symbol><symbol overflow="visible" id="d"><path d="M7.11-.75v-5.875h-.75V-.75zM.61-4.406c0 1.14.874 2.093 2.124 2.093 1.235 0 2.11-.953 2.11-2.093 0-1.172-.875-2.11-2.11-2.11-1.25 0-2.125.938-2.125 2.11zm.765 0c0-.828.5-1.469 1.36-1.469.859 0 1.359.64 1.359 1.469 0 .797-.5 1.437-1.36 1.437-.859 0-1.359-.64-1.359-1.437zm5.969 5.61V.562H2.562v-1.985h-.75v2.625zm0 0"/></symbol><symbol overflow="visible" id="f"><path d="M7.047 1.36v-7.985H6.28v7.984zM4.687-.657v-5.469H.97v5.469zm-.734-.64H1.72V-5.47h2.234zm0 0"/></symbol><symbol overflow="visible" id="g"><path d="M7.203 1.36v-7.985H6.47v2.844h-.985V-6.5H4.75V.984h.734v-4.046h.985v4.421zm-2.75-2.75c-.344.062-1.187.156-1.734.156l-1.063.015V-3.03h2.157v-3.125H.921v.64h2.172v1.844H.922v3.11l1.547-.016A19.11 19.11 0 0 0 4.453-.75zm0 0"/></symbol><symbol overflow="visible" id="h"><path d="M7.203 1.36v-7.985h-.75v7.984zM1.031-4.376c0 1.094.875 2 2.125 2 1.235 0 2.125-.906 2.125-2 0-1.094-.89-1.984-2.125-1.984-1.25 0-2.125.89-2.125 1.984zm.735 0c0-.75.53-1.36 1.39-1.36.86 0 1.36.61 1.36 1.36 0 .75-.5 1.36-1.36 1.36-.86 0-1.39-.61-1.39-1.36zm4.406 3.016c-.64.109-2.531.25-3.219.265-.328.016-2.312.016-2.344.016v.656c.016 0 1.657.016 1.985 0a26.518 26.518 0 0 0 3.578-.297zm0 0"/></symbol><symbol overflow="visible" id="i"><path d="M8.047-3.813v-.671H6.922v-2.141h-.766V-1.5h.766v-2.313zM4.14-6.046v-.594H1.687v.594zm1.14 1.203v-.593H.594v.593zM.921-3.078c0 .719.829 1.312 2 1.312 1.25 0 2.032-.593 2.032-1.312 0-.735-.75-1.328-2.016-1.328-1.203 0-2.015.593-2.015 1.328zm.782-.016c0-.453.484-.719 1.234-.719.766 0 1.235.266 1.235.72 0 .452-.453.75-1.234.75-.75 0-1.235-.282-1.235-.75zm5.219 4.5v-2.515h-5.36v.625h4.579v1.89zm0 0"/></symbol><symbol overflow="visible" id="j"><path d="M7.11-.75v-5.875h-.75v.922H4.421c-.36-.5-.969-.844-1.703-.844-1.235 0-2.11.969-2.11 2.125 0 1.156.875 2.11 2.11 2.11.765 0 1.39-.36 1.75-.891h1.89V-.75zm-.75-3.11H4.75a1.7 1.7 0 0 0 .094-.562c0-.219-.032-.437-.094-.625h1.61zm-4.985-.562c0-.812.5-1.469 1.344-1.469.875 0 1.36.657 1.36 1.47 0 .796-.485 1.452-1.36 1.452-.844 0-1.344-.656-1.344-1.453zm5.953 5.625v-.64H2.562v-1.985h-.75v2.625zm0 0"/></symbol><symbol overflow="visible" id="k"><path d="M7.781-2.156v-.64H6.484c.204-.907.375-2.438.407-3.548H1.156v.64h4.938a16.656 16.656 0 0 1-.39 2.907H.265v.64h3.312V1.36h.75v-3.515zm0 0"/></symbol><symbol overflow="visible" id="m"><path d="M3.813-4.36v-.015h1.593v-.813h-4.25v.813h1.578v.016c-.046.359-.265.687-.593.968-.407.344-.97.594-1.5.735.234.203.546.5.718.703.422-.156.813-.36 1.141-.61.344-.234.625-.515.781-.812.203.297.485.563.813.781.343.219.703.39 1.015.485.125-.188.375-.47.594-.688a3.35 3.35 0 0 1-1.219-.578c-.343-.266-.625-.61-.671-.984zm2.25 3.126c-.641.093-1.954.171-2.313.171V-2.25h-.969v1.203H.562v.86h1.844c1.172 0 2.985-.094 3.656-.204zm1.25 2.609v-8.016h-.954v8.016zm-2.86-7.11v-.796H2.016v.797zm0 0"/></symbol><symbol overflow="visible" id="n"><path d="M7.203-.75v-5.89h-.969v5.89zM3.328-5.39v-1.094H2.297v1.125c0 .593-.219 1.125-.563 1.562-.39.516-.968.922-1.562 1.203.266.203.625.485.781.656a5.38 5.38 0 0 0 1.094-.796c.344-.329.64-.704.765-1.079.204.376.532.735.891 1.016.328.266.688.5 1 .656.14-.203.422-.515.625-.75a3.228 3.228 0 0 1-1.39-.953c-.376-.437-.61-.969-.61-1.547zm4.063 6.609V.375H2.766v-1.734h-1v2.578zm0 0"/></symbol><symbol overflow="visible" id="o"><path d="M7.781-2.063v-.843h-3.25v-.906h2.39v-.829H2.204v-.984h4.64v-.828H1.235v2.64h2.297v.907H.281v.844zm-3.75 3.594c1.938 0 2.985-.687 2.985-1.562 0-.89-1.047-1.547-2.985-1.547-1.937 0-3 .656-3 1.547 0 .875 1.063 1.562 3 1.562zM2.156-.047c0-.515.703-.781 1.875-.781 1.14 0 1.86.297 1.86.797 0 .484-.72.781-1.86.781C2.86.75 2.156.453 2.156-.047zm0 0"/></symbol><symbol overflow="visible" id="p"><path d="M7.906-2.875v-.828H6.875v-.922h1.031v-.828H6.875v-1.188h-.969v5.063h.969v-1.297zM4.063-5.953v-.734H1.578v.734zm1.125 1.219v-.735H.468v.735zM.702-3.188c0 .688.906 1.25 2.125 1.25 1.297 0 2.125-.546 2.125-1.265 0-.703-.828-1.203-2.11-1.203-1.234 0-2.14.531-2.14 1.218zm3.235-.015c0 .375-.407.578-1.094.578-.688 0-1.11-.188-1.11-.563 0-.374.422-.578 1.11-.578.687 0 1.094.204 1.094.563zM7.046 0c0-.938-1.188-1.5-2.844-1.5-1.594 0-2.875.516-2.875 1.469 0 .953 1.234 1.547 2.86 1.547C5.796 1.516 7.046.984 7.046 0zm-4.64-.016c0-.562.874-.75 1.78-.75.985 0 1.75.235 1.75.75 0 .532-.828.782-1.734.782-.922 0-1.797-.25-1.797-.782zm0 0"/></symbol><symbol overflow="visible" id="q"><path d="M7.797.484v-.843H4.53V-2h2.282v-4.422h-.97v1.313h-3.64v-1.313h-.969V-2h2.282v1.64H.28v.844zM5.844-2.844h-3.64v-1.422h3.64zm0 0"/></symbol><symbol overflow="visible" id="r"><path d="M1.078-6.203v.828h4.766a28.365 28.365 0 0 1-.453 3.953h.968c.25-1.39.47-3.406.532-4.781zM7.797.484v-.843H3.844v-2.985h-.985v2.985H.281v.843zm0 0"/></symbol><symbol overflow="visible" id="s"><path d="M7.203 1.375v-8.016H6.22v2.313H4.53v.906H6.22v4.797zm-3.89-5.938v-1.765H2.296v1.719c0 .796-.172 1.515-.516 2.14C1.406-1.766.828-1.188.094-.75c.281.188.625.469.812.64a6.26 6.26 0 0 0 1.14-1.046c.345-.422.642-.89.767-1.297.203.453.5.906.859 1.281.344.36.719.672 1.031.89.172-.187.438-.437.719-.655-.672-.422-1.234-.938-1.61-1.594-.312-.563-.5-1.219-.5-2.031zm0 0"/></symbol><symbol overflow="visible" id="u"><path d="M2.766-.547L1.125-6.125H.109L2.266.672h.968l2.172-6.797H4.391zm0 0"/></symbol><symbol overflow="visible" id="v"><path d="M2.438-3.688c.765 0 1.171.766 1.171 1.922C3.61-.609 3.203.141 2.438.141c-.735 0-1.141-.75-1.141-1.907 0-1.156.406-1.921 1.14-1.921zm0-.75C1.046-4.438.344-3.375.344-1.765c0 1.61.703 2.641 2.094 2.641 1.406 0 2.14-1.031 2.14-2.64 0-1.61-.734-2.673-2.14-2.673zm0 0"/></symbol><symbol overflow="visible" id="w"><path d="M.563-6.125V.672h.906v-6.797zm0 0"/></symbol><symbol overflow="visible" id="x"><path d="M.64-.047v1.203h1.25V-.047zm0 0"/></symbol><symbol overflow="visible" id="y"><path d="M.563-4.219H1.75V.703h.938v-6.922h-.766c-.11.922-.406 1.282-1.36 1.328zm0 0"/></symbol><symbol overflow="visible" id="z"><path d="M2-6.25C.797-6.25.203-4.89.203-2.656.203-.437.797.906 2 .906c1.203 0 1.828-1.344 1.828-3.562C3.828-4.891 3.203-6.25 2-6.25zm0 .797c.547 0 .906 1.078.906 2.797C2.906-.97 2.546.109 2 .109c-.531 0-.875-1.078-.875-2.765 0-1.719.344-2.797.875-2.797zm0 0"/></symbol><symbol overflow="visible" id="A"><path d="M4.61-8.531a8.282 8.282 0 0 0-1.594.828A7.178 7.178 0 0 0 1.687-6.5a6.863 6.863 0 0 0-.953 1.453A3.928 3.928 0 0 0 .36-3.359c0 .75.223 1.507.672 2.265C1.477-.344 2.13.031 2.984.031c.715 0 1.286-.27 1.704-.812.425-.551.64-1.16.64-1.828a2.92 2.92 0 0 0-.516-1.641c-.343-.508-.847-.766-1.5-.766-.167 0-.34.036-.515.094-.18.055-.34.145-.485.266a.984.984 0 0 0-.187.156c-.063.074-.094.145-.094.203 0 .031.004.067.016.094.02.023.047.031.078.031.059 0 .148-.078.266-.234.12-.164.347-.25.671-.25.208 0 .395.058.563.172a1.5 1.5 0 0 1 .453.421c.152.243.274.508.36.797.09.293.14.586.14.875 0 .282-.043.555-.125.813-.086.262-.21.52-.375.766-.125.18-.273.324-.437.437a1.095 1.095 0 0 1-.594.156c-.7 0-1.195-.375-1.485-1.125-.292-.758-.437-1.406-.437-1.937 0-.614.11-1.192.328-1.735.215-.539.524-1.05.922-1.53.309-.384.703-.75 1.172-1.095.476-.34.953-.597 1.422-.765.039-.02.093-.04.156-.063.07-.027.11-.066.11-.11 0-.038-.012-.07-.032-.093a.122.122 0 0 0-.094-.047.728.728 0 0 0-.265.078c-.117.055-.196.09-.235.11zm0 0"/></symbol><symbol overflow="visible" id="B"><path d="M.594.953c.09 0 .258-.058.5-.172C1.34.664 1.5.59 1.562.562c.333-.18.657-.37.97-.578.308-.207.609-.43.89-.671a7.089 7.089 0 0 0 1.36-1.672 3.96 3.96 0 0 0 .562-2.063c0-.371-.067-.75-.188-1.125a2.87 2.87 0 0 0-.547-1.016 2.51 2.51 0 0 0-.828-.656 2.134 2.134 0 0 0-1.031-.265c-.7 0-1.277.261-1.734.78a2.635 2.635 0 0 0-.688 1.798c0 .586.192 1.09.578 1.515.383.43.88.641 1.485.641.195 0 .382-.023.562-.078a1.77 1.77 0 0 0 .5-.235.762.762 0 0 0 .094-.078c.027-.039.047-.078.047-.109a.17.17 0 0 0-.031-.078c-.024-.027-.043-.047-.063-.047-.055 0-.145.055-.266.156-.125.094-.304.14-.53.14-.556 0-.962-.233-1.22-.702A3.072 3.072 0 0 1 1.11-5.22c0-.308.051-.593.157-.843.101-.247.242-.477.421-.688a1.2 1.2 0 0 1 .438-.344c.184-.082.375-.125.563-.125.34 0 .632.114.874.328.239.22.426.465.563.735a5.4 5.4 0 0 1 .313.812c.082.293.125.586.125.875 0 .563-.13 1.106-.375 1.625a8.026 8.026 0 0 1-.875 1.438A7.447 7.447 0 0 1 2.187-.25C1.75.102 1.293.39.829.61a1.935 1.935 0 0 0-.203.078c-.094.05-.14.101-.14.156 0 .027.007.054.03.078a.11.11 0 0 0 .079.031zm0 0"/></symbol><symbol overflow="visible" id="C"><path d="M4.328 0v-.422h-1.64V-7h-.422L.562-5.437l.282.296L2.25-6.437v6.015H.594V0zm0 0"/></symbol><symbol overflow="visible" id="D"><path d="M1.406-.281c0-.25-.11-.36-.343-.36-.235 0-.344.11-.344.36 0 .234.11.36.344.36.234 0 .343-.126.343-.36zm0 0"/></symbol><symbol overflow="visible" id="F"><path d="M5.719-1.781h-.422C5.297-.72 4.859-.36 3.344-.36c-2.11 0-2.063-1.079-2.063-3.125 0-2.079-.047-3.157 2.063-3.157 1.515 0 1.953.36 1.953 1.438h.422c0-1.375-.657-1.86-2.297-1.86C.828-7.063.828-5.734.828-3.483c0 2.234 0 3.562 2.594 3.562 1.64 0 2.297-.5 2.297-1.86zm0 0"/></symbol><symbol overflow="visible" id="G"><path d="M4.672 0v-2.672c0-.953.031-1.531-.406-2-.266-.281-.72-.422-1.36-.422-.64 0-1.265.172-1.61.813v-3.032H.86V0h.438v-2.219c0-1.156-.078-2.453 1.61-2.453.452 0 .796.094 1.015.313.328.312.312.78.312 1.765V0zm0 0"/></symbol><symbol overflow="visible" id="H"><path d="M4.844-2.5c0-1.5-.14-2.594-2.094-2.594C.797-5.094.672-4 .672-2.5.672-1 .797.078 2.75.078 4.703.078 4.844-1 4.844-2.5zm-.438 0c0 1.406-.093 2.14-1.656 2.14-1.547 0-1.64-.734-1.64-2.14 0-1.406.093-2.172 1.64-2.172 1.563 0 1.656.766 1.656 2.172zm0 0"/></symbol><symbol overflow="visible" id="I"><path d="M1.406-6.734c0-.235-.11-.329-.328-.329-.219 0-.328.094-.328.329 0 .218.11.343.328.343.219 0 .328-.125.328-.343zM1.296 0v-5.016H.86V0zm0 0"/></symbol><symbol overflow="visible" id="J"><path d="M4.422-2.156V-7h-.453v4.86c0 1.187-.219 1.78-1.531 1.78C1.359-.36.843-.624.843-1.78H.422c0 1.422.687 1.86 2.015 1.86 1.594 0 1.985-.782 1.985-2.235zm0 0"/></symbol><symbol overflow="visible" id="K"><path d="M8.36-7h-.438L6.406-.656 4.703-7h-.531L2.469-.656.969-7H.516l1.656 7h.547l1.719-6.39L6.14 0h.53zm0 0"/></symbol><symbol overflow="visible" id="L"><path d="M4.719-2.469c0-1.656-.188-2.625-2.016-2.625C.891-5.094.672-4.14.672-2.5.672-.812.922.078 2.719.078c.984 0 1.922-.281 1.922-1.453h-.407c0 .875-.796 1.016-1.5 1.016-1.515 0-1.625-.72-1.625-2.11zm-.422-.406H1.109c0-1.219.329-1.797 1.594-1.797 1.266 0 1.594.547 1.594 1.797zm0 0"/></symbol><symbol overflow="visible" id="M"><path d="M4.188-1.375H3.78c0 .75-.36 1.031-1.14 1.031-.75 0-1.11-.219-1.11-1.031v-3.234h2.25v-.407h-2.25V-7h-.437v1.984H.266v.407h.828v3.234c0 1.078.531 1.453 1.531 1.453.969 0 1.563-.39 1.563-1.453zm0 0"/></symbol><symbol overflow="visible" id="N"><path d="M4.625 0v-2.922c0-1.14.14-2.172-1.875-2.172-1.016 0-2.031.219-2.031 1.453h.406c0-.937.828-1.03 1.547-1.03 1.625 0 1.515.609 1.515 1.702H2.47c-1.156 0-1.875.235-1.875 1.547 0 1.063.562 1.5 1.812 1.5.906 0 1.547-.281 1.813-.86V0zm-.438-2.563c.032 1.391-.14 2.235-1.812 2.235-.984 0-1.344-.328-1.344-1.094 0-1 .532-1.14 1.39-1.14zm0 0"/></symbol><symbol overflow="visible" id="O"><path d="M1.297 0v-7.313H.859V0zm0 0"/></symbol><symbol overflow="visible" id="P"><path d="M1.281.156v-.781H.86v.781c0 .438-.015.656-.343.969l-.188.203.266.281.265-.234c.36-.328.422-.625.422-1.219zm0 0"/></symbol><symbol overflow="visible" id="Q"><path d="M5.656-5.11C5.656-7 4.672-7 3.188-7H1v7h.438v-3.234h1.75c1.468 0 2.468-.032 2.468-1.875zm-.453-.015c0 1.547-.812 1.469-2.062 1.469H1.437v-2.922h1.704c1.234 0 2.062-.063 2.062 1.453zm0 0"/></symbol><symbol overflow="visible" id="R"><path d="M4.281-3.656c0-1.016-.562-1.438-1.5-1.438-.578 0-1.156.157-1.515.813v-.735H.859V0h.438v-2.172c0-1.125-.094-2.5 1.437-2.5.72 0 1.141.219 1.141 1.016zm0 0"/></symbol><symbol overflow="visible" id="S"><path d="M4.531 0L1.703-2.688 4.5-5.015h-.61L1.298-2.859v-4.454H.859V0h.438v-2.531L3.922 0zm0 0"/></symbol><symbol overflow="visible" id="T"><path d="M5.578 0l-3.75-3.516L5.562-7h-.625l-3.5 3.313V-7H1v7h.438v-3.297L4.905 0zm0 0"/></symbol><symbol overflow="visible" id="U"><path d="M5.875-3.5c0-1.547-.094-2.125-.375-2.64C5.11-6.767 4.531-7 3.297-7H1v7h2.297C4.53 0 5.109-.219 5.5-.86c.281-.5.375-1.093.375-2.64zm-.438 0c0 1.516-.109 2.078-.359 2.469-.281.437-.719.61-1.844.61H1.438v-6.157h1.796c1.125 0 1.563.156 1.844.61.25.39.36.952.36 2.468zm0 0"/></symbol><symbol overflow="visible" id="V"><path d="M5.031-5.11l-.125-.374-2.047.656V-7h-.39v2.172L.406-5.484l-.125.375 2.078.656-1.265 1.766.312.218 1.25-1.734L3.922-2.47l.312-.219L2.97-4.452zm0 0"/></symbol><symbol overflow="visible" id="W"><path d="M3.438-6.797l-.282-.297-.25.235c-.36.328-.422.625-.422 1.218v.782h.422v-.782c0-.437.016-.656.344-.968zm-1.641 0l-.281-.297-.25.235c-.375.328-.438.625-.438 1.218v.782h.438v-.782c0-.437 0-.656.328-.968zm0 0"/></symbol><symbol overflow="visible" id="X"><path d="M4.438-5.016h-.454l-1.64 4.5-1.672-4.5H.219L2.079 0h.5zm0 0"/></symbol><symbol overflow="visible" id="Y"><path d="M4.938-2.5c0-1.563-.172-2.594-1.954-2.594-.843 0-1.406.297-1.718.844v-.766H.859V2h.438V-.734c.312.546.844.812 1.687.812C4.781.078 4.938-.953 4.938-2.5zM4.5-2.516c0 1.204-.047 2.157-1.453 2.157-1.313 0-1.766-.5-1.766-2.157 0-1.64.453-2.14 1.766-2.14 1.406 0 1.453.937 1.453 2.14zm0 0"/></symbol><symbol overflow="visible" id="Z"><path d="M7.438 0v-3.031c0-.781.125-2.063-1.594-2.063-.61 0-1.282.219-1.594.907-.203-.704-.813-.907-1.469-.907-.61 0-1.219.203-1.515.797v-.719H.859V0h.438v-2.203c0-1.125-.094-2.469 1.437-2.469 1.125 0 1.188.61 1.188 1.625V0h.437v-2.203c0-1.188-.046-2.453 1.454-2.453 1.14 0 1.187.593 1.187 1.61V0zm0 0"/></symbol><symbol overflow="visible" id="aa"><path d="M4.672 0v-2.672c0-.953.031-1.547-.406-2-.266-.281-.704-.422-1.36-.422-.64 0-1.297.188-1.64.844v-.766H.859V0h.438v-2.219c0-1.156-.078-2.453 1.61-2.453.452 0 .796.094 1.015.313.328.312.312.78.312 1.765V0zm0 0"/></symbol><symbol overflow="visible" id="ab"><path d="M4.766 0v-7.313h-.438v3.032c-.328-.547-.844-.813-1.703-.813C.828-5.094.672-4.016.672-2.5.672-.937.828.078 2.625.078c.844 0 1.406-.281 1.719-.828V0zm-.438-2.5c0 1.656-.437 2.14-1.75 2.14C1.156-.36 1.11-1.28 1.11-2.5c0-1.25.079-2.156 1.47-2.156 1.312 0 1.75.5 1.75 2.156zm0 0"/></symbol><symbol overflow="visible" id="ac"><path d="M4.266 0v-.438H1.109L4.266-4.64v-.375H.546v.407H3.72L.547-.391V0zm0 0"/></symbol><symbol overflow="visible" id="ad"><path d="M4.297-6.219c0-.875-.75-1.156-1.61-1.156-.546 0-.984.094-1.28.39-.25.25-.345.579-.345 1.048v.921H.25v.407h.813V0H1.5v-4.61h2.188v-.406H1.5v-.921c0-.844.469-1.016 1.203-1.016.516 0 1.188.094 1.188.734zm0 0"/></symbol><symbol overflow="visible" id="ae"><path d="M4.75-.453v-4.563h-.422v.735c-.312-.547-.875-.813-1.719-.813C.766-5.094.672-3.969.672-2.562.672-1 .812.015 2.609.015 3.453.016 4-.266 4.313-.813 4.296-.234 4.39.391 4.14.923c-.25.531-.829.687-1.5.687-.938 0-1.438-.312-1.438-1.015H.781c.016 1.015.735 1.437 1.89 1.437.845 0 1.548-.234 1.86-.937.172-.375.219-.797.219-1.547zm-.422-2.094c0 1.64-.469 2.11-1.766 2.11-1.406 0-1.453-.891-1.453-2.11 0-1.203.047-2.125 1.454-2.125 1.312 0 1.765.516 1.765 2.125zm0 0"/></symbol><symbol overflow="visible" id="af"><path d="M4.36-5.016h-.47L2.376-.578.797-5.016H.328l1.813 5L1.406 2h.438zm0 0"/></symbol><symbol overflow="visible" id="ag"><path d="M4.484-1.422c0-1.5-1.093-1.234-2.406-1.375-.719-.078-.969-.172-.953-.937 0-.688.422-.938 1.547-.938 1.078 0 1.39.313 1.39 1.016h.407c0-.453-.11-.797-.313-1.016-.281-.297-.765-.422-1.484-.422C1.312-5.109.687-4.75.687-3.656c0 1.484 1.016 1.234 2.36 1.36.812.077 1 .25 1 .905 0 .766-.453 1.047-1.563 1.047-1.125 0-1.468-.25-1.468-1.031H.609C.61-.281 1.156.063 2.484.078c1.344 0 2-.406 2-1.5zm0 0"/></symbol><symbol overflow="visible" id="ah"><path d="M4.594 0v-5.016h-.438v2.235c0 1.14.078 2.437-1.61 2.437-.452 0-.796-.094-1.015-.312-.328-.313-.328-.781-.328-1.766v-2.594H.766v2.672c0 .953-.016 1.547.421 2 .266.281.704.422 1.36.422.64 0 1.281-.187 1.64-.828V0zm0 0"/></symbol><symbol overflow="visible" id="ai"><path d="M5.625 0v-7h-.438v6.344L1.547-7H1v7h.438v-6.36L5.063 0zm0 0"/></symbol><symbol overflow="visible" id="aj"><path d="M4.875-5.125c0-.75-.156-1.234-.516-1.531-.328-.282-.875-.407-1.515-.407-1.281 0-1.985.36-1.985 1.47h.438c0-.798.5-1.048 1.578-1.048.766 0 1.219.188 1.406.594.11.234.157.531.157.922 0 .516-.11.844-.344 1.094-.375.437-1.438.672-2.032.906C1.345-2.844.86-2.437.86-1.531V0h4v-.422H1.297v-.906c0-.75.125-1.063.875-1.39.547-.235 1.719-.485 2.219-.97.343-.343.484-.796.484-1.437zm0 0"/></symbol><symbol overflow="visible" id="ak"><path d="M4.656-1.375h-.422c0 .89-.78 1.016-1.484 1.016-1.563 0-1.64-.766-1.64-2.157 0-1.406.077-2.156 1.64-2.156.703 0 1.484.156 1.484 1.031h.422c0-1.171-.937-1.453-1.922-1.453C.922-5.094.672-4.187.672-2.5.672-.812.906.078 2.734.078c.985 0 1.922-.266 1.922-1.453zm0 0"/></symbol><symbol overflow="visible" id="al"><path d="M3.922-2.313v-.406H.953v.406zm0 0"/></symbol><symbol overflow="visible" id="am"><path d="M1.281-6.203V-7H.86v.797c0 .437-.015.656-.343.969l-.188.187.266.281.265-.218c.36-.329.422-.625.422-1.22zm0 0"/></symbol><symbol overflow="visible" id="an"><path d="M2.922-6.203V-7H2.5v.797c0 .437-.016.656-.328.969l-.203.187.281.281.25-.218c.375-.329.422-.625.422-1.22zm-1.64 0V-7H.858v.797c0 .437-.015.656-.343.969l-.188.187.266.281.265-.218c.36-.329.422-.625.422-1.22zm0 0"/></symbol><symbol overflow="visible" id="ao"><path d="M5.078 0v-.422H1.453V-3.39H4.97v-.421H1.453v-2.766h3.625V-7H1v7zm0 0"/></symbol><symbol overflow="visible" id="ap"><path d="M7.328 0v-7h-.61L4.173-.5 1.594-7H1v7h.422v-6.344L3.922 0h.469l2.5-6.344V0zm0 0"/></symbol><symbol overflow="visible" id="aq"><path d="M4.922-3.484c0-1.766-.047-2.235-.25-2.657-.313-.64-.89-.921-1.828-.921-.938 0-1.516.28-1.813.921-.203.422-.25.891-.25 2.657 0 1.53.031 2.03.172 2.421.25.782.875 1.141 1.89 1.141 1.032 0 1.657-.36 1.923-1.14.125-.391.156-.891.156-2.422zm-.438 0c0 1.53-.046 2.062-.203 2.421-.203.485-.61.72-1.437.72-.813 0-1.219-.235-1.438-.72-.14-.359-.187-.89-.187-2.421 0-1.344.047-1.938.14-2.266.188-.61.594-.89 1.485-.89.906 0 1.312.28 1.5.89.093.328.14.922.14 2.266zm0 0"/></symbol><symbol overflow="visible" id="ar"><path d="M4.828-1.906c0-.953-.234-1.532-1-1.735.766-.234.938-.875.938-1.64 0-1.313-.563-1.782-2.016-1.782-1.313 0-2.016.36-2.016 1.47h.422c0-.782.5-1.048 1.594-1.048 1.219 0 1.578.313 1.578 1.391 0 1.188-.516 1.406-1.578 1.406h-.953v.422h.953c.625 0 .969.063 1.234.266.282.219.407.594.407 1.281 0 1.25-.516 1.531-1.672 1.531-1.078 0-1.563-.281-1.563-1.078H.734c0 1.172.797 1.5 1.985 1.5 1.406 0 2.11-.469 2.11-1.984zm0 0"/></symbol><symbol overflow="visible" id="as"><path d="M5.64 0v-7h-.437v3.188H1.437V-7H1v7h.438v-3.39h3.765V0zm0 0"/></symbol><symbol overflow="visible" id="at"><path d="M5.906 0L3.313-7h-.47L.267 0h.453L1.5-2.14h3.14L5.439 0zM4.484-2.531H1.656l1.422-3.922zm0 0"/></symbol><symbol overflow="visible" id="au"><path d="M4.938-1.89c0-1.063-.313-1.563-1.047-1.75.828-.235.984-.813.984-1.641 0-1.313-.563-1.782-2.016-1.782S.844-6.593.844-5.28c0 .875.14 1.406.984 1.64-.719.188-1.047.688-1.047 1.75 0 1.5.672 1.97 2.078 1.97 1.407 0 2.079-.47 2.079-1.97zm-.5-3.36c0 1.188-.485 1.406-1.579 1.406-1.093 0-1.578-.234-1.578-1.437 0-1.047.344-1.36 1.578-1.36 1.22 0 1.579.313 1.579 1.391zM4.5-1.86c0 1.266-.484 1.5-1.64 1.5-1.188 0-1.641-.234-1.641-1.515 0-1.313.453-1.547 1.64-1.547 1.157 0 1.641.281 1.641 1.563zm0 0"/></symbol><symbol overflow="visible" id="av"><path d="M4.906-2.125c0-1.453-.422-2.25-1.953-2.25-.719 0-1.281.172-1.547.531v-2.734h3.282V-7H.983v3.969h.407c.03-.625.546-.922 1.546-.922 1.329 0 1.532.64 1.532 1.86 0 1.327-.407 1.734-1.657 1.734-1.078 0-1.515-.266-1.515-1.063H.875c0 1.125.672 1.5 1.938 1.5 1.546 0 2.093-.64 2.093-2.203zm0 0"/></symbol><symbol overflow="visible" id="aw"><path d="M4.344-6.578V-7H.297v.422h3.578L.906 0h.485zm0 0"/></symbol><symbol overflow="visible" id="ax"><path d="M5.719-2.016c0-1.765-1.125-1.765-2.485-1.78-1.093-.017-2.046.093-2.046-1.329 0-1.406.812-1.516 2-1.516 1.078 0 2.046.063 2.046 1.438h.422c0-1.64-1.093-1.86-2.453-1.86C1.75-7.063.75-6.827.75-5.109c0 1.765 1.125 1.718 2.469 1.75 1.203.015 2.047-.079 2.047 1.375C5.266-.578 4.453-.36 3.25-.36c-1.11 0-2.063-.063-2.063-1.422H.75c0 1.64 1.11 1.86 2.469 1.86 1.484 0 2.5-.392 2.5-2.095zm0 0"/></symbol><symbol overflow="visible" id="ay"><path d="M4.36 0L2.577-2.547l1.75-2.469h-.516L2.329-2.89.86-5.016H.33L2.062-2.53.296 0h.516l1.5-2.188L3.827 0zm0 0"/></symbol><symbol overflow="visible" id="az"><path d="M4.906-2.14c0-1.61-.547-2.235-1.984-2.235-.86 0-1.39.344-1.688.906 0-.64-.015-1.703.157-2.281.187-.625.609-.89 1.53-.89.97 0 1.454.327 1.454 1.046h.422c0-1.047-.703-1.468-1.875-1.468-1.188 0-1.844.421-2 1.39-.094.516-.14 1.36-.14 2.469 0 1 .077 1.719.218 2.14.266.735.938 1.141 1.89 1.141 1.407 0 2.016-.687 2.016-2.219zm-.437.015c0 1.297-.438 1.766-1.594 1.766-1.11 0-1.61-.532-1.61-1.829 0-1.187.563-1.765 1.72-1.765 1.109 0 1.484.437 1.484 1.828zm0 0"/></symbol><symbol overflow="visible" id="aA"><path d="M4.875-3.797c0-1-.063-1.719-.203-2.125-.266-.75-.953-1.14-1.89-1.14-1.407 0-2.016.671-2.016 2.203 0 1.625.53 2.25 1.968 2.25.86 0 1.407-.36 1.704-.907 0 .625 0 1.688-.172 2.282-.172.609-.61.89-1.532.89-.968 0-1.437-.344-1.437-1.062H.859C.86-.36 1.563.078 2.75.078c1.172 0 1.844-.422 2-1.406.094-.5.125-1.36.125-2.469zm-.484-1.015c0 1.203-.563 1.765-1.704 1.765-1.109 0-1.5-.437-1.5-1.812 0-1.313.454-1.782 1.594-1.782 1.11 0 1.61.532 1.61 1.829zm0 0"/></symbol><symbol overflow="visible" id="aB"><path d="M5.031-2.094V-2.5h-1V-7h-.453L.547-2.5v.406h3.047V0h.437v-2.094zM3.594-2.5H1.063l2.53-3.797zm0 0"/></symbol><symbol overflow="visible" id="aC"><path d="M5.922-3.5c0-2.125.078-3.563-2.547-3.563S.828-5.625.828-3.5.75.078 3.375.078 5.922-1.375 5.922-3.5zm-.453.016c0 2.03.078 3.125-2.094 3.125-2.172 0-2.094-1.094-2.094-3.125 0-2.047-.078-3.157 2.094-3.157 2.172 0 2.094 1.11 2.094 3.157zm0 0"/></symbol><symbol overflow="visible" id="aD"><path d="M2.563 2v-.406c-.891 0-1.188-.25-1.376-.719C1 .359.829-1.265.829-3.219c0-1.953.172-3.594.36-4.11.187-.468.484-.718 1.375-.718v-.406c-1.063 0-1.594.312-1.844 1.14C.53-6.64.406-5.124.406-3.202.406-1.297.531.187.72.859.969 1.703 1.5 2 2.563 2zm0 0"/></symbol><symbol overflow="visible" id="aE"><path d="M2.563-3.203c0-1.922-.126-3.438-.313-4.11C2-8.14 1.469-8.453.406-8.453v.406c.89 0 1.188.25 1.375.719.188.516.36 2.156.36 4.11 0 1.952-.172 3.577-.36 4.093-.187.469-.484.719-1.375.719V2C1.47 2 2 1.703 2.25.86c.188-.672.313-2.157.313-4.063zm0 0"/></symbol><symbol overflow="visible" id="aF"><path d="M1-8.672h3.11c.495 0 .93.067 1.296.188.364.125.66.304.89.53.24.231.415.509.532.829.121.313.188.652.188 1.016v.265c0 .367-.067.711-.188 1.032a2.337 2.337 0 0 1-.562.843 2.637 2.637 0 0 1-.907.578c-.355.137-.773.204-1.25.204H2.188V.328H1zm1.188 1.063v3.359h1.718c1.258 0 1.89-.54 1.89-1.625v-.219c0-.508-.151-.89-.452-1.14-.305-.246-.739-.375-1.297-.375zm0 0"/></symbol><symbol overflow="visible" id="aG"><path d="M.844-6.5h1.172v4.234c0 .586.113 1.008.343 1.266.227.25.586.375 1.079.375.195 0 .394-.035.593-.11.196-.07.375-.175.532-.312.152-.133.28-.305.375-.516.09-.207.14-.44.14-.703V-6.5h1.188V.328H5.125v-.86h-.016c-.199.313-.46.552-.78.72-.325.175-.724.265-1.188.265-.325 0-.63-.055-.907-.156a1.969 1.969 0 0 1-.718-.438 2.19 2.19 0 0 1-.5-.765c-.118-.301-.172-.66-.172-1.078zm0 0"/></symbol><symbol overflow="visible" id="aH"><path d="M2.125-5.719c.207-.34.484-.578.828-.703.34-.133.695-.203 1.063-.203.832 0 1.468.254 1.906.75.445.5.672 1.223.672 2.156v1.203c0 .47-.067.887-.188 1.25a2.433 2.433 0 0 1-.547.922 2.2 2.2 0 0 1-.828.563c-.324.133-.68.203-1.062.203-.5 0-.903-.09-1.203-.266a1.843 1.843 0 0 1-.657-.625h-.03v.797H.936v-9.437h1.188zm-.016 3.61c0 .18.04.355.125.53.082.18.204.337.36.47.152.136.336.254.547.343.214.086.453.125.703.125.496 0 .89-.175 1.172-.53.277-.352.421-.86.421-1.516v-.829c0-.652-.144-1.16-.421-1.515-.282-.352-.676-.532-1.172-.532-.242 0-.465.043-.672.125a1.604 1.604 0 0 0-.922.89c-.094.212-.14.45-.14.72zm0 0"/></symbol><symbol overflow="visible" id="aI"><path d="M2.125-9.11V.329H.937v-9.437zm0 0"/></symbol><symbol overflow="visible" id="aJ"><path d="M2.156-6.5V.328H.984V-6.5zm.031-2.453v1.328H.938v-1.328zm0 0"/></symbol><symbol overflow="visible" id="aK"><path d="M3.469-6.625c.539 0 .988.074 1.344.219.351.136.664.316.937.531l-.563.906a3.097 3.097 0 0 0-.843-.468 2.922 2.922 0 0 0-.875-.125c-.219 0-.434.042-.64.125a1.38 1.38 0 0 0-.532.359 1.75 1.75 0 0 0-.36.61c-.093.25-.14.55-.14.89v.875c0 .367.047.68.14.937.09.262.22.477.375.641.153.156.333.277.532.36.207.074.422.109.64.109.434 0 .797-.055 1.079-.172.289-.121.554-.274.796-.453l.563.922c-.242.199-.559.375-.953.53-.387.165-.887.25-1.5.25-.918 0-1.63-.273-2.125-.812C.852-.94.609-1.71.609-2.703v-.86c0-.488.067-.921.204-1.296.132-.383.32-.707.562-.97.246-.257.55-.456.906-.593a3.35 3.35 0 0 1 1.188-.203zm0 0"/></symbol><symbol overflow="visible" id="aL"><path d="M2.781.422c-.668 0-1.199-.168-1.594-.5C.801-.418.61-.895.61-1.5v-.328c0-.582.188-1.055.563-1.422.383-.371 1-.563 1.844-.563h1.687v-.39c0-.457-.113-.797-.328-1.016-.21-.226-.559-.343-1.047-.343-.387 0-.726.066-1.015.187a5.978 5.978 0 0 0-.891.5l-.578-.89c.32-.239.687-.442 1.094-.61.402-.164.875-.25 1.406-.25.37 0 .71.05 1.015.14.301.094.563.239.782.423.226.187.406.417.53.687.122.273.188.582.188.922V.328H4.734V-.5H4.72a1.164 1.164 0 0 1-.266.344 1.841 1.841 0 0 1-.344.265c-.18.102-.37.18-.578.235-.21.05-.46.078-.75.078zm1.922-3.203H3.047c-.469 0-.805.097-1 .281-.2.18-.297.43-.297.75v.172c0 .336.113.582.344.734.226.149.5.219.812.219.29 0 .54-.035.75-.11.215-.07.414-.175.594-.312a.994.994 0 0 0 .344-.422c.07-.164.11-.379.11-.64zm0 0"/></symbol><symbol overflow="visible" id="aM"><path d="M1.36-5.469H.265V-6.5h1.093v-1.734h1.172V-6.5h1.75v1.031h-1.75v3.89c0 .212.02.38.063.5.039.126.097.227.172.298.07.062.16.113.265.14.114.024.227.032.344.032.29 0 .582-.055.875-.172l.188.984a4.19 4.19 0 0 1-.563.14 2.98 2.98 0 0 1-.672.079c-.637 0-1.105-.164-1.406-.484-.293-.32-.438-.829-.438-1.516zm0 0"/></symbol><symbol overflow="visible" id="aN"><path d="M3.563-6.625c.902 0 1.624.273 2.156.813.527.542.797 1.308.797 2.296v.829c0 .992-.27 1.757-.797 2.296-.532.54-1.254.813-2.157.813-.917 0-1.644-.274-2.171-.813C.867-.93.609-1.695.609-2.687v-.829c0-.996.258-1.765.782-2.296.527-.54 1.254-.813 2.171-.813zm0 5.984c.519 0 .94-.175 1.265-.53.332-.352.5-.891.5-1.61v-.64c0-.716-.168-1.255-.5-1.61-.324-.352-.746-.532-1.266-.532-.53 0-.96.18-1.28.532-.325.355-.485.894-.485 1.61v.64c0 .719.16 1.258.484 1.61.32.355.75.53 1.281.53zm0 0"/></symbol><symbol overflow="visible" id="aO"><path d="M6.406.328H5.234v-4.25c0-.57-.12-.988-.359-1.25-.23-.258-.59-.39-1.078-.39-.211 0-.414.039-.61.109a1.636 1.636 0 0 0-.922.828c-.093.21-.14.45-.14.719V.328H.937V-6.5h1.141v.86h.016c.195-.32.46-.567.797-.735.332-.164.726-.25 1.187-.25.32 0 .625.055.906.156.278.094.524.242.735.438.215.199.383.457.5.765.12.305.187.664.187 1.079zm0 0"/></symbol><symbol overflow="visible" id="aP"><path d="M3-.625c.434 0 .773-.078 1.016-.234a.738.738 0 0 0 .375-.657v-.093a.941.941 0 0 0-.063-.36.602.602 0 0 0-.234-.265 2.26 2.26 0 0 0-.469-.204 11.98 11.98 0 0 0-.75-.203 5.824 5.824 0 0 1-.969-.265 3.106 3.106 0 0 1-.718-.39 1.5 1.5 0 0 1-.454-.563 1.914 1.914 0 0 1-.14-.766v-.156c0-.227.047-.457.14-.688.102-.226.254-.426.454-.593.195-.165.453-.301.765-.407.309-.101.68-.156 1.11-.156.445 0 .867.055 1.265.156.395.106.754.278 1.078.516l-.515.906a2.57 2.57 0 0 0-.782-.39 3.051 3.051 0 0 0-.968-.157c-.493 0-.848.082-1.063.235a.709.709 0 0 0-.312.593v.11c0 .273.109.472.328.593.215.125.586.243 1.11.344a6.41 6.41 0 0 1 1.046.281c.3.106.547.243.734.407.196.156.344.351.438.578.09.219.14.492.14.812v.157c0 .261-.058.511-.171.75a1.9 1.9 0 0 1-.5.609 2.572 2.572 0 0 1-.797.39 3.385 3.385 0 0 1-1.047.157A4.763 4.763 0 0 1 1.53.188C1.082.039.7-.156.391-.406l.546-.938c.29.211.602.383.938.516.34.137.719.203 1.125.203zm0 0"/></symbol><symbol overflow="visible" id="aR"><path d="M1.453-1.594h1.375v1.438H1.453zm0-5.578h1.375v1.438H1.453zm0 0"/></symbol><symbol overflow="visible" id="aS"><path d="M2.14-3.422c0 .95.118 1.895.36 2.828.246.926.68 1.832 1.297 2.719h-1.11A7.412 7.412 0 0 1 1.345-.391C1.05-1.336.906-2.367.906-3.484v-.5c0-1.114.145-2.133.438-3.063a7.412 7.412 0 0 1 1.343-2.516h1.11a8.52 8.52 0 0 0-1.281 2.626 10.96 10.96 0 0 0-.375 2.89zm0 0"/></symbol><symbol overflow="visible" id="aT"><path d="M2.188.328H1v-9h3.156c.434 0 .828.067 1.172.188.352.125.645.3.875.515.238.211.422.465.547.766.121.305.188.633.188.984v.328c0 .512-.133.965-.391 1.36-.25.386-.613.676-1.078.86l1.734 4H5.906L4.328-3.439h-2.14zm0-4.812h1.671c.676 0 1.157-.13 1.438-.391.289-.258.437-.613.437-1.063v-.25c0-.433-.144-.78-.421-1.03-.282-.259-.727-.391-1.329-.391H2.188zm0 0"/></symbol><symbol overflow="visible" id="aU"><path d="M3.453-5.594c-.242 0-.465.051-.672.14-.21.087-.394.208-.547.36a1.504 1.504 0 0 0-.343.563c-.086.218-.125.46-.125.718v.172h3.312v-.234c0-.52-.148-.938-.437-1.25-.282-.309-.68-.469-1.188-.469zm2.61 5.266c-.293.21-.645.383-1.047.531-.399.145-.899.219-1.5.219-.418 0-.805-.067-1.157-.188a2.547 2.547 0 0 1-.921-.546 2.602 2.602 0 0 1-.61-.985C.68-1.69.61-2.164.61-2.719V-3.5c0-.508.067-.957.204-1.344.144-.394.343-.722.593-.984a2.36 2.36 0 0 1 .907-.594 3.12 3.12 0 0 1 1.14-.203c.84 0 1.516.27 2.016.797.496.531.75 1.285.75 2.25v.922H1.766v.047c0 .648.164 1.144.5 1.484.332.336.765.5 1.296.5.434 0 .805-.05 1.11-.156.308-.114.61-.266.89-.453zm0 0"/></symbol><symbol overflow="visible" id="aV"><path d="M6.766-2.39c0 .335-.059.675-.172 1.015a2.525 2.525 0 0 1-.532.922 2.641 2.641 0 0 1-.937.656C4.738.38 4.273.47 3.735.47a5.13 5.13 0 0 1-1.641-.25 4.234 4.234 0 0 1-1.328-.75l.593-.985c.414.336.817.567 1.204.688.382.117.78.172 1.187.172.309 0 .582-.051.813-.156.238-.102.43-.235.578-.391.144-.164.25-.352.312-.563.07-.207.11-.414.11-.625v-.14c0-.602-.153-1.051-.454-1.344-.304-.29-.738-.438-1.296-.438-.376 0-.711.075-1 .22-.282.136-.52.3-.704.484h-.921l.28-5.063h4.735v1.063h-3.64l-.141 2.796c.195-.144.445-.269.75-.375.3-.113.633-.171 1-.171.402 0 .77.074 1.094.218.32.149.593.352.812.61.227.25.399.55.516.89.113.336.172.692.172 1.063zm0 0"/></symbol><symbol overflow="visible" id="aW"><path d="M4.39-3.297V.328H3.204v-3.625L.188-8.672H1.53l2.282 4.203 2.234-4.203h1.328zm0 0"/></symbol><symbol overflow="visible" id="aX"><path d="M4.547-5.313a1.762 1.762 0 0 0-.36-.125 2.307 2.307 0 0 0-.453-.046c-.21 0-.414.05-.609.14-.2.086-.371.211-.516.375-.148.157-.27.352-.359.578a1.999 1.999 0 0 0-.125.735V.328H.937V-6.5h1.141v1.078h.016c.195-.383.445-.68.75-.89.308-.208.71-.313 1.203-.313.289 0 .578.05.86.14zm0 0"/></symbol><symbol overflow="visible" id="aY"><path d="M1.938-4.047a10.65 10.65 0 0 0-.391-2.89C1.297-7.853.87-8.727.28-9.563h1.11a7.55 7.55 0 0 1 1.343 2.515c.29.93.438 1.95.438 3.063v.5c0 1.117-.149 2.148-.438 3.093a7.55 7.55 0 0 1-1.343 2.516H.28C.895 1.238 1.321.332 1.562-.594c.247-.933.375-1.879.375-2.828zm0 0"/></symbol></defs><g fill="#4f4c4d"><use xlink:href="#a" x="336.467" y="47.727"/><use xlink:href="#b" x="344.467" y="47.727"/><use xlink:href="#c" x="352.468" y="47.727"/><use xlink:href="#d" x="360.468" y="47.727"/><use xlink:href="#e" x="368.468" y="47.727"/><use xlink:href="#f" x="371.075" y="47.727"/><use xlink:href="#g" x="379.075" y="47.727"/><use xlink:href="#h" x="387.076" y="47.727"/><use xlink:href="#i" x="395.076" y="47.727"/><use xlink:href="#j" x="403.076" y="47.727"/><use xlink:href="#k" x="411.076" y="47.727"/><use xlink:href="#a" x="419.077" y="47.727"/><use xlink:href="#b" x="427.077" y="47.727"/></g><use xlink:href="#l" x="435.076" y="47.727" fill="#231f20"/><g fill="#231f20"><use xlink:href="#m" x="437.683" y="47.727"/><use xlink:href="#n" x="445.683" y="47.727"/><use xlink:href="#o" x="453.684" y="47.727"/><use xlink:href="#p" x="461.684" y="47.727"/><use xlink:href="#q" x="469.684" y="47.727"/><use xlink:href="#r" x="477.684" y="47.727"/><use xlink:href="#s" x="485.685" y="47.727"/><use xlink:href="#t" x="493.685" y="47.727"/><use xlink:href="#u" x="496.292" y="47.727"/><use xlink:href="#v" x="501.703" y="47.727"/><use xlink:href="#w" x="506.503" y="47.727"/><use xlink:href="#x" x="508.436" y="47.727"/><use xlink:href="#t" x="511.043" y="47.727"/><use xlink:href="#y" x="513.65" y="47.727"/><use xlink:href="#z" x="517.605" y="47.727"/></g><g fill="#393536"><use xlink:href="#A" x="540.818" y="48.426"/><use xlink:href="#B" x="546.392" y="48.426"/></g><g fill="#231f20"><use xlink:href="#C" x="94.845" y="357.686"/><use xlink:href="#D" x="99.301" y="357.686"/><use xlink:href="#E" x="101.315" y="357.686"/></g><use xlink:href="#E" x="103.96" y="357.686" fill="#231f20"/><use xlink:href="#E" x="103.96" y="357.686" fill="#231f20"/><g fill="#231f20"><use xlink:href="#F" x="103.96" y="357.686"/><use xlink:href="#G" x="110.318" y="357.686"/><use xlink:href="#H" x="115.669" y="357.686"/><use xlink:href="#I" x="121.08" y="357.686"/><use xlink:href="#E" x="123.125" y="357.686"/><use xlink:href="#J" x="125.77" y="357.686"/><use xlink:href="#D" x="131.019" y="357.686"/><use xlink:href="#E" x="133.033" y="357.686"/><use xlink:href="#K" x="135.678" y="357.686"/><use xlink:href="#D" x="144.447" y="357.686"/><use xlink:href="#E" x="146.461" y="357.686"/><use xlink:href="#L" x="149.106" y="357.686"/><use xlink:href="#M" x="154.396" y="357.686"/><use xlink:href="#E" x="158.74" y="357.686"/><use xlink:href="#N" x="161.384" y="357.686"/><use xlink:href="#O" x="166.684" y="357.686"/><use xlink:href="#P" x="168.729" y="357.686"/><use xlink:href="#E" x="170.743" y="357.686"/><use xlink:href="#Q" x="173.388" y="357.686"/><use xlink:href="#N" x="179.41" y="357.686"/><use xlink:href="#R" x="184.71" y="357.686"/><use xlink:href="#S" x="189.013" y="357.686"/><use xlink:href="#E" x="193.632" y="357.686"/><use xlink:href="#T" x="196.277" y="357.686"/><use xlink:href="#D" x="201.994" y="357.686"/><use xlink:href="#E" x="204.008" y="357.686"/><use xlink:href="#U" x="206.653" y="357.686"/><use xlink:href="#D" x="213.265" y="357.686"/><use xlink:href="#V" x="215.279" y="357.686"/><use xlink:href="#E" x="220.498" y="357.686"/><use xlink:href="#W" x="223.142" y="357.686"/><use xlink:href="#U" x="226.805" y="357.686"/><use xlink:href="#L" x="233.417" y="357.686"/><use xlink:href="#X" x="238.707" y="357.686"/><use xlink:href="#L" x="243.254" y="357.686"/><use xlink:href="#O" x="248.543" y="357.686"/><use xlink:href="#H" x="250.588" y="357.686"/><use xlink:href="#Y" x="256" y="357.686"/><use xlink:href="#Z" x="261.514" y="357.686"/><use xlink:href="#L" x="269.621" y="357.686"/><use xlink:href="#aa" x="274.911" y="357.686"/><use xlink:href="#M" x="280.262" y="357.686"/><use xlink:href="#E" x="284.605" y="357.686"/><use xlink:href="#N" x="287.25" y="357.686"/><use xlink:href="#aa" x="292.55" y="357.686"/><use xlink:href="#ab" x="297.901" y="357.686"/><use xlink:href="#E" x="303.415" y="357.686"/><use xlink:href="#H" x="306.06" y="357.686"/><use xlink:href="#Y" x="311.471" y="357.686"/><use xlink:href="#M" x="316.985" y="357.686"/><use xlink:href="#I" x="321.329" y="357.686"/><use xlink:href="#Z" x="323.373" y="357.686"/><use xlink:href="#I" x="331.481" y="357.686"/><use xlink:href="#ac" x="333.526" y="357.686"/><use xlink:href="#N" x="338.246" y="357.686"/><use xlink:href="#M" x="343.546" y="357.686"/><use xlink:href="#I" x="347.889" y="357.686"/><use xlink:href="#H" x="349.934" y="357.686"/><use xlink:href="#aa" x="355.346" y="357.686"/><use xlink:href="#E" x="360.697" y="357.686"/><use xlink:href="#H" x="363.342" y="357.686"/><use xlink:href="#ad" x="368.753" y="357.686"/><use xlink:href="#E" x="373.056" y="357.686"/><use xlink:href="#G" x="375.701" y="357.686"/><use xlink:href="#N" x="381.052" y="357.686"/><use xlink:href="#O" x="386.352" y="357.686"/><use xlink:href="#H" x="388.397" y="357.686"/><use xlink:href="#ae" x="393.809" y="357.686"/><use xlink:href="#L" x="399.312" y="357.686"/><use xlink:href="#aa" x="404.602" y="357.686"/><use xlink:href="#N" x="409.953" y="357.686"/><use xlink:href="#M" x="415.252" y="357.686"/><use xlink:href="#L" x="419.596" y="357.686"/><use xlink:href="#ab" x="424.886" y="357.686"/><use xlink:href="#E" x="430.4" y="357.686"/><use xlink:href="#X" x="433.044" y="357.686"/><use xlink:href="#I" x="437.592" y="357.686"/><use xlink:href="#aa" x="439.636" y="357.686"/><use xlink:href="#af" x="444.987" y="357.686"/><use xlink:href="#O" x="449.514" y="357.686"/><use xlink:href="#E" x="451.559" y="357.686"/><use xlink:href="#ag" x="454.203" y="357.686"/><use xlink:href="#ah" x="459.198" y="357.686"/><use xlink:href="#O" x="464.549" y="357.686"/><use xlink:href="#ad" x="466.594" y="357.686"/><use xlink:href="#H" x="470.897" y="357.686"/><use xlink:href="#aa" x="476.309" y="357.686"/><use xlink:href="#L" x="481.659" y="357.686"/><use xlink:href="#ag" x="486.949" y="357.686"/><use xlink:href="#E" x="491.944" y="357.686"/><use xlink:href="#N" x="494.589" y="357.686"/><use xlink:href="#ag" x="499.889" y="357.686"/><use xlink:href="#E" x="504.884" y="357.686"/></g><g fill="#231f20"><use xlink:href="#ai" x="104.061" y="372.667"/><use xlink:href="#R" x="110.582" y="372.667"/><use xlink:href="#ad" x="114.885" y="372.667"/><use xlink:href="#aj" x="119.188" y="372.667"/><use xlink:href="#E" x="124.681" y="372.667"/><use xlink:href="#N" x="127.326" y="372.667"/><use xlink:href="#ak" x="132.626" y="372.667"/><use xlink:href="#M" x="137.763" y="372.667"/><use xlink:href="#I" x="142.107" y="372.667"/><use xlink:href="#al" x="144.152" y="372.667"/><use xlink:href="#X" x="148.933" y="372.667"/><use xlink:href="#N" x="153.48" y="372.667"/><use xlink:href="#M" x="158.78" y="372.667"/><use xlink:href="#H" x="163.124" y="372.667"/><use xlink:href="#R" x="168.536" y="372.667"/><use xlink:href="#ag" x="172.839" y="372.667"/><use xlink:href="#E" x="177.833" y="372.667"/><use xlink:href="#ad" x="180.478" y="372.667"/><use xlink:href="#H" x="184.781" y="372.667"/><use xlink:href="#R" x="190.193" y="372.667"/><use xlink:href="#E" x="194.496" y="372.667"/><use xlink:href="#M" x="197.141" y="372.667"/><use xlink:href="#G" x="201.485" y="372.667"/><use xlink:href="#L" x="206.835" y="372.667"/><use xlink:href="#E" x="212.125" y="372.667"/><use xlink:href="#M" x="214.77" y="372.667"/><use xlink:href="#R" x="219.114" y="372.667"/><use xlink:href="#L" x="223.417" y="372.667"/><use xlink:href="#N" x="228.707" y="372.667"/><use xlink:href="#M" x="234.007" y="372.667"/><use xlink:href="#Z" x="238.35" y="372.667"/><use xlink:href="#L" x="246.458" y="372.667"/><use xlink:href="#aa" x="251.748" y="372.667"/><use xlink:href="#M" x="257.098" y="372.667"/><use xlink:href="#E" x="261.442" y="372.667"/><use xlink:href="#H" x="264.087" y="372.667"/><use xlink:href="#ad" x="269.499" y="372.667"/><use xlink:href="#E" x="273.802" y="372.667"/><use xlink:href="#Q" x="276.447" y="372.667"/><use xlink:href="#N" x="282.469" y="372.667"/><use xlink:href="#R" x="287.769" y="372.667"/><use xlink:href="#S" x="292.072" y="372.667"/><use xlink:href="#I" x="296.69" y="372.667"/><use xlink:href="#aa" x="298.735" y="372.667"/><use xlink:href="#ag" x="304.086" y="372.667"/><use xlink:href="#H" x="309.081" y="372.667"/><use xlink:href="#aa" x="314.492" y="372.667"/><use xlink:href="#am" x="319.843" y="372.667"/><use xlink:href="#ag" x="321.857" y="372.667"/><use xlink:href="#E" x="326.852" y="372.667"/><use xlink:href="#ab" x="329.497" y="372.667"/><use xlink:href="#I" x="335.011" y="372.667"/><use xlink:href="#ag" x="337.055" y="372.667"/><use xlink:href="#L" x="342.05" y="372.667"/><use xlink:href="#N" x="347.34" y="372.667"/><use xlink:href="#ag" x="352.64" y="372.667"/><use xlink:href="#L" x="357.635" y="372.667"/><use xlink:href="#D" x="362.924" y="372.667"/><use xlink:href="#an" x="364.938" y="372.667"/><use xlink:href="#E" x="368.601" y="372.667"/><use xlink:href="#ao" x="371.245" y="372.667"/><use xlink:href="#ah" x="377.074" y="372.667"/><use xlink:href="#R" x="382.425" y="372.667"/><use xlink:href="#D" x="386.728" y="372.667"/><use xlink:href="#E" x="388.742" y="372.667"/><use xlink:href="#J" x="391.387" y="372.667"/><use xlink:href="#D" x="396.636" y="372.667"/><use xlink:href="#E" x="398.651" y="372.667"/><use xlink:href="#ap" x="401.295" y="372.667"/><use xlink:href="#L" x="409.525" y="372.667"/><use xlink:href="#ab" x="414.815" y="372.667"/><use xlink:href="#D" x="420.328" y="372.667"/><use xlink:href="#E" x="422.343" y="372.667"/><use xlink:href="#F" x="424.987" y="372.667"/><use xlink:href="#G" x="431.345" y="372.667"/><use xlink:href="#L" x="436.696" y="372.667"/><use xlink:href="#Z" x="441.986" y="372.667"/><use xlink:href="#D" x="450.094" y="372.667"/><use xlink:href="#E" x="452.108" y="372.667"/><use xlink:href="#aj" x="454.753" y="372.667"/><use xlink:href="#aq" x="460.246" y="372.667"/><use xlink:href="#aj" x="465.851" y="372.667"/><use xlink:href="#C" x="471.344" y="372.667"/><use xlink:href="#P" x="475.8" y="372.667"/><use xlink:href="#E" x="477.814" y="372.667"/><use xlink:href="#aj" x="480.459" y="372.667"/><use xlink:href="#C" x="485.952" y="372.667"/><use xlink:href="#aj" x="490.408" y="372.667"/><use xlink:href="#P" x="495.901" y="372.667"/><use xlink:href="#E" x="497.915" y="372.667"/></g><g fill="#231f20"><use xlink:href="#C" x="104.061" y="387.649"/><use xlink:href="#C" x="108.517" y="387.649"/><use xlink:href="#ar" x="112.973" y="387.649"/><use xlink:href="#C" x="118.476" y="387.649"/><use xlink:href="#aq" x="122.932" y="387.649"/><use xlink:href="#ar" x="128.537" y="387.649"/><use xlink:href="#D" x="134.04" y="387.649"/></g><g fill="#231f20"><use xlink:href="#aj" x="94.845" y="409.461"/><use xlink:href="#D" x="100.338" y="409.461"/><use xlink:href="#E" x="102.353" y="409.461"/></g><use xlink:href="#E" x="104.998" y="409.461" fill="#231f20"/><use xlink:href="#E" x="104.998" y="409.461" fill="#231f20"/><g fill="#231f20"><use xlink:href="#T" x="104.998" y="409.461"/><use xlink:href="#I" x="110.715" y="409.461"/><use xlink:href="#Z" x="112.759" y="409.461"/><use xlink:href="#E" x="120.867" y="409.461"/><use xlink:href="#as" x="123.512" y="409.461"/><use xlink:href="#D" x="130.053" y="409.461"/><use xlink:href="#E" x="132.067" y="409.461"/><use xlink:href="#J" x="134.712" y="409.461"/><use xlink:href="#D" x="139.961" y="409.461"/><use xlink:href="#E" x="141.975" y="409.461"/><use xlink:href="#L" x="144.62" y="409.461"/><use xlink:href="#M" x="149.91" y="409.461"/><use xlink:href="#E" x="154.253" y="409.461"/><use xlink:href="#N" x="156.898" y="409.461"/><use xlink:href="#O" x="162.198" y="409.461"/><use xlink:href="#P" x="164.243" y="409.461"/><use xlink:href="#E" x="166.257" y="409.461"/><use xlink:href="#Q" x="168.902" y="409.461"/><use xlink:href="#N" x="174.924" y="409.461"/><use xlink:href="#R" x="180.224" y="409.461"/><use xlink:href="#S" x="184.527" y="409.461"/><use xlink:href="#E" x="189.146" y="409.461"/><use xlink:href="#T" x="191.79" y="409.461"/><use xlink:href="#D" x="197.507" y="409.461"/><use xlink:href="#E" x="199.522" y="409.461"/><use xlink:href="#U" x="202.166" y="409.461"/><use xlink:href="#D" x="208.779" y="409.461"/><use xlink:href="#V" x="210.793" y="409.461"/><use xlink:href="#E" x="216.011" y="409.461"/><use xlink:href="#W" x="218.656" y="409.461"/><use xlink:href="#at" x="222.318" y="409.461"/><use xlink:href="#E" x="228.392" y="409.461"/><use xlink:href="#aa" x="231.036" y="409.461"/><use xlink:href="#H" x="236.387" y="409.461"/><use xlink:href="#X" x="241.799" y="409.461"/><use xlink:href="#L" x="246.346" y="409.461"/><use xlink:href="#O" x="251.636" y="409.461"/><use xlink:href="#E" x="253.681" y="409.461"/><use xlink:href="#ak" x="256.326" y="409.461"/><use xlink:href="#G" x="261.463" y="409.461"/><use xlink:href="#N" x="266.814" y="409.461"/><use xlink:href="#O" x="272.113" y="409.461"/><use xlink:href="#ak" x="274.158" y="409.461"/><use xlink:href="#H" x="279.295" y="409.461"/><use xlink:href="#aa" x="284.707" y="409.461"/><use xlink:href="#L" x="290.058" y="409.461"/><use xlink:href="#E" x="295.348" y="409.461"/><use xlink:href="#ab" x="297.993" y="409.461"/><use xlink:href="#L" x="303.506" y="409.461"/><use xlink:href="#R" x="308.796" y="409.461"/><use xlink:href="#I" x="313.099" y="409.461"/><use xlink:href="#X" x="315.144" y="409.461"/><use xlink:href="#N" x="319.691" y="409.461"/><use xlink:href="#M" x="324.991" y="409.461"/><use xlink:href="#I" x="329.334" y="409.461"/><use xlink:href="#X" x="331.379" y="409.461"/><use xlink:href="#L" x="335.926" y="409.461"/><use xlink:href="#E" x="341.216" y="409.461"/><use xlink:href="#N" x="343.861" y="409.461"/><use xlink:href="#ag" x="349.161" y="409.461"/><use xlink:href="#E" x="354.156" y="409.461"/><use xlink:href="#ai" x="356.801" y="409.461"/><use xlink:href="#R" x="363.321" y="409.461"/><use xlink:href="#ad" x="367.624" y="409.461"/><use xlink:href="#aj" x="371.927" y="409.461"/><use xlink:href="#E" x="377.42" y="409.461"/><use xlink:href="#N" x="380.065" y="409.461"/><use xlink:href="#ak" x="385.365" y="409.461"/><use xlink:href="#M" x="390.502" y="409.461"/><use xlink:href="#I" x="394.846" y="409.461"/><use xlink:href="#X" x="396.891" y="409.461"/><use xlink:href="#N" x="401.438" y="409.461"/><use xlink:href="#M" x="406.738" y="409.461"/><use xlink:href="#H" x="411.082" y="409.461"/><use xlink:href="#R" x="416.494" y="409.461"/><use xlink:href="#E" x="420.797" y="409.461"/><use xlink:href="#N" x="423.441" y="409.461"/><use xlink:href="#M" x="428.741" y="409.461"/><use xlink:href="#M" x="433.085" y="409.461"/><use xlink:href="#L" x="437.429" y="409.461"/><use xlink:href="#aa" x="442.719" y="409.461"/><use xlink:href="#ah" x="448.069" y="409.461"/><use xlink:href="#N" x="453.42" y="409.461"/><use xlink:href="#M" x="458.72" y="409.461"/><use xlink:href="#L" x="463.064" y="409.461"/><use xlink:href="#ag" x="468.354" y="409.461"/><use xlink:href="#E" x="473.348" y="409.461"/><use xlink:href="#O" x="475.993" y="409.461"/><use xlink:href="#L" x="478.038" y="409.461"/><use xlink:href="#N" x="483.328" y="409.461"/><use xlink:href="#R" x="488.628" y="409.461"/><use xlink:href="#aa" x="492.931" y="409.461"/><use xlink:href="#I" x="498.281" y="409.461"/><use xlink:href="#aa" x="500.326" y="409.461"/><use xlink:href="#ae" x="505.677" y="409.461"/><use xlink:href="#E" x="511.18" y="409.461"/></g><g fill="#231f20"><use xlink:href="#N" x="105.099" y="424.443"/><use xlink:href="#aa" x="110.399" y="424.443"/><use xlink:href="#ab" x="115.75" y="424.443"/><use xlink:href="#E" x="121.263" y="424.443"/><use xlink:href="#Z" x="123.908" y="424.443"/><use xlink:href="#L" x="132.016" y="424.443"/><use xlink:href="#Z" x="137.306" y="424.443"/><use xlink:href="#H" x="145.413" y="424.443"/><use xlink:href="#R" x="150.825" y="424.443"/><use xlink:href="#af" x="155.128" y="424.443"/><use xlink:href="#E" x="159.655" y="424.443"/><use xlink:href="#I" x="162.3" y="424.443"/><use xlink:href="#Z" x="164.344" y="424.443"/><use xlink:href="#Y" x="172.452" y="424.443"/><use xlink:href="#N" x="177.966" y="424.443"/><use xlink:href="#I" x="183.265" y="424.443"/><use xlink:href="#R" x="185.31" y="424.443"/><use xlink:href="#Z" x="189.613" y="424.443"/><use xlink:href="#L" x="197.721" y="424.443"/><use xlink:href="#aa" x="203.011" y="424.443"/><use xlink:href="#M" x="208.361" y="424.443"/><use xlink:href="#E" x="212.705" y="424.443"/><use xlink:href="#I" x="215.35" y="424.443"/><use xlink:href="#aa" x="217.395" y="424.443"/><use xlink:href="#E" x="222.745" y="424.443"/><use xlink:href="#N" x="225.39" y="424.443"/><use xlink:href="#E" x="230.69" y="424.443"/><use xlink:href="#ag" x="233.335" y="424.443"/><use xlink:href="#ak" x="238.33" y="424.443"/><use xlink:href="#H" x="243.467" y="424.443"/><use xlink:href="#Y" x="248.879" y="424.443"/><use xlink:href="#H" x="254.392" y="424.443"/><use xlink:href="#O" x="259.804" y="424.443"/><use xlink:href="#N" x="261.849" y="424.443"/><use xlink:href="#Z" x="267.149" y="424.443"/><use xlink:href="#I" x="275.257" y="424.443"/><use xlink:href="#aa" x="277.301" y="424.443"/><use xlink:href="#L" x="282.652" y="424.443"/><use xlink:href="#al" x="287.942" y="424.443"/><use xlink:href="#I" x="292.723" y="424.443"/><use xlink:href="#aa" x="294.768" y="424.443"/><use xlink:href="#ab" x="300.118" y="424.443"/><use xlink:href="#ah" x="305.632" y="424.443"/><use xlink:href="#ak" x="310.983" y="424.443"/><use xlink:href="#L" x="316.12" y="424.443"/><use xlink:href="#ab" x="321.41" y="424.443"/><use xlink:href="#E" x="326.923" y="424.443"/><use xlink:href="#Z" x="329.568" y="424.443"/><use xlink:href="#H" x="337.676" y="424.443"/><use xlink:href="#ah" x="343.088" y="424.443"/><use xlink:href="#ag" x="348.438" y="424.443"/><use xlink:href="#L" x="353.433" y="424.443"/><use xlink:href="#E" x="358.723" y="424.443"/><use xlink:href="#Z" x="361.368" y="424.443"/><use xlink:href="#H" x="369.475" y="424.443"/><use xlink:href="#ab" x="374.887" y="424.443"/><use xlink:href="#L" x="380.401" y="424.443"/><use xlink:href="#O" x="385.691" y="424.443"/><use xlink:href="#D" x="387.735" y="424.443"/><use xlink:href="#an" x="389.749" y="424.443"/><use xlink:href="#E" x="393.412" y="424.443"/><use xlink:href="#ao" x="396.056" y="424.443"/><use xlink:href="#ah" x="401.885" y="424.443"/><use xlink:href="#R" x="407.236" y="424.443"/><use xlink:href="#D" x="411.539" y="424.443"/><use xlink:href="#E" x="413.553" y="424.443"/><use xlink:href="#J" x="416.198" y="424.443"/><use xlink:href="#D" x="421.447" y="424.443"/><use xlink:href="#E" x="423.462" y="424.443"/><use xlink:href="#ap" x="426.106" y="424.443"/><use xlink:href="#L" x="434.336" y="424.443"/><use xlink:href="#ab" x="439.626" y="424.443"/><use xlink:href="#D" x="445.139" y="424.443"/><use xlink:href="#E" x="447.154" y="424.443"/><use xlink:href="#F" x="449.798" y="424.443"/><use xlink:href="#G" x="456.156" y="424.443"/><use xlink:href="#L" x="461.507" y="424.443"/><use xlink:href="#Z" x="466.797" y="424.443"/><use xlink:href="#D" x="474.905" y="424.443"/><use xlink:href="#E" x="476.919" y="424.443"/><use xlink:href="#aj" x="479.564" y="424.443"/><use xlink:href="#aq" x="485.057" y="424.443"/><use xlink:href="#aj" x="490.662" y="424.443"/><use xlink:href="#aq" x="496.155" y="424.443"/><use xlink:href="#P" x="501.76" y="424.443"/><use xlink:href="#E" x="503.774" y="424.443"/></g><g fill="#231f20"><use xlink:href="#C" x="105.099" y="439.425"/><use xlink:href="#au" x="109.555" y="439.425"/><use xlink:href="#av" x="115.17" y="439.425"/><use xlink:href="#P" x="120.785" y="439.425"/><use xlink:href="#E" x="122.799" y="439.425"/><use xlink:href="#C" x="125.444" y="439.425"/><use xlink:href="#C" x="129.9" y="439.425"/><use xlink:href="#C" x="134.355" y="439.425"/><use xlink:href="#aw" x="138.811" y="439.425"/><use xlink:href="#aw" x="143.338" y="439.425"/><use xlink:href="#aw" x="147.865" y="439.425"/><use xlink:href="#D" x="152.392" y="439.425"/></g><g fill="#231f20"><use xlink:href="#ar" x="94.845" y="464.902"/><use xlink:href="#D" x="100.349" y="464.902"/><use xlink:href="#E" x="102.363" y="464.902"/></g><use xlink:href="#E" x="105.008" y="464.902" fill="#231f20"/><use xlink:href="#E" x="105.008" y="464.902" fill="#231f20"/><g fill="#231f20"><use xlink:href="#T" x="105.008" y="464.902"/><use xlink:href="#I" x="110.725" y="464.902"/><use xlink:href="#Z" x="112.769" y="464.902"/><use xlink:href="#E" x="120.877" y="464.902"/><use xlink:href="#ax" x="123.522" y="464.902"/><use xlink:href="#D" x="129.89" y="464.902"/><use xlink:href="#E" x="131.904" y="464.902"/><use xlink:href="#L" x="134.549" y="464.902"/><use xlink:href="#M" x="139.839" y="464.902"/><use xlink:href="#E" x="144.182" y="464.902"/><use xlink:href="#N" x="146.827" y="464.902"/><use xlink:href="#O" x="152.127" y="464.902"/><use xlink:href="#P" x="154.172" y="464.902"/><use xlink:href="#E" x="156.186" y="464.902"/><use xlink:href="#Q" x="158.831" y="464.902"/><use xlink:href="#N" x="164.853" y="464.902"/><use xlink:href="#R" x="170.153" y="464.902"/><use xlink:href="#S" x="174.456" y="464.902"/><use xlink:href="#E" x="179.075" y="464.902"/><use xlink:href="#T" x="181.719" y="464.902"/><use xlink:href="#D" x="187.437" y="464.902"/><use xlink:href="#E" x="189.451" y="464.902"/><use xlink:href="#U" x="192.096" y="464.902"/><use xlink:href="#D" x="198.708" y="464.902"/><use xlink:href="#V" x="200.722" y="464.902"/><use xlink:href="#E" x="205.941" y="464.902"/><use xlink:href="#W" x="208.585" y="464.902"/><use xlink:href="#ai" x="212.248" y="464.902"/><use xlink:href="#R" x="218.768" y="464.902"/><use xlink:href="#ad" x="223.071" y="464.902"/><use xlink:href="#aj" x="227.374" y="464.902"/><use xlink:href="#E" x="232.867" y="464.902"/><use xlink:href="#N" x="235.512" y="464.902"/><use xlink:href="#ak" x="240.812" y="464.902"/><use xlink:href="#M" x="245.949" y="464.902"/><use xlink:href="#I" x="250.293" y="464.902"/><use xlink:href="#X" x="252.338" y="464.902"/><use xlink:href="#N" x="256.885" y="464.902"/><use xlink:href="#M" x="262.185" y="464.902"/><use xlink:href="#H" x="266.529" y="464.902"/><use xlink:href="#R" x="271.941" y="464.902"/><use xlink:href="#E" x="276.244" y="464.902"/><use xlink:href="#X" x="278.888" y="464.902"/><use xlink:href="#I" x="283.436" y="464.902"/><use xlink:href="#N" x="285.48" y="464.902"/><use xlink:href="#E" x="290.78" y="464.902"/><use xlink:href="#I" x="293.425" y="464.902"/><use xlink:href="#aa" x="295.47" y="464.902"/><use xlink:href="#M" x="300.821" y="464.902"/><use xlink:href="#L" x="305.164" y="464.902"/><use xlink:href="#R" x="310.454" y="464.902"/><use xlink:href="#ad" x="314.757" y="464.902"/><use xlink:href="#L" x="319.06" y="464.902"/><use xlink:href="#R" x="324.35" y="464.902"/><use xlink:href="#L" x="328.653" y="464.902"/><use xlink:href="#aa" x="333.943" y="464.902"/><use xlink:href="#ak" x="339.293" y="464.902"/><use xlink:href="#L" x="344.431" y="464.902"/><use xlink:href="#E" x="349.72" y="464.902"/><use xlink:href="#H" x="352.365" y="464.902"/><use xlink:href="#ad" x="357.777" y="464.902"/><use xlink:href="#E" x="362.08" y="464.902"/><use xlink:href="#ai" x="364.725" y="464.902"/><use xlink:href="#R" x="371.246" y="464.902"/><use xlink:href="#ad" x="375.549" y="464.902"/><use xlink:href="#aj" x="379.852" y="464.902"/><use xlink:href="#al" x="385.345" y="464.902"/><use xlink:href="#T" x="390.126" y="464.902"/><use xlink:href="#L" x="395.843" y="464.902"/><use xlink:href="#N" x="401.133" y="464.902"/><use xlink:href="#Y" x="406.433" y="464.902"/><use xlink:href="#C" x="411.946" y="464.902"/><use xlink:href="#E" x="416.402" y="464.902"/><use xlink:href="#I" x="419.047" y="464.902"/><use xlink:href="#aa" x="421.092" y="464.902"/><use xlink:href="#M" x="426.442" y="464.902"/><use xlink:href="#L" x="430.786" y="464.902"/><use xlink:href="#R" x="436.076" y="464.902"/><use xlink:href="#N" x="440.379" y="464.902"/><use xlink:href="#ak" x="445.679" y="464.902"/><use xlink:href="#M" x="450.816" y="464.902"/><use xlink:href="#I" x="455.16" y="464.902"/><use xlink:href="#H" x="457.204" y="464.902"/><use xlink:href="#aa" x="462.616" y="464.902"/><use xlink:href="#E" x="467.967" y="464.902"/><use xlink:href="#G" x="470.612" y="464.902"/><use xlink:href="#N" x="475.963" y="464.902"/><use xlink:href="#ag" x="481.263" y="464.902"/><use xlink:href="#E" x="486.257" y="464.902"/></g><g fill="#231f20"><use xlink:href="#N" x="105.109" y="479.884"/><use xlink:href="#aa" x="110.409" y="479.884"/><use xlink:href="#M" x="115.76" y="479.884"/><use xlink:href="#I" x="120.104" y="479.884"/><use xlink:href="#H" x="122.148" y="479.884"/><use xlink:href="#ay" x="127.56" y="479.884"/><use xlink:href="#I" x="132.107" y="479.884"/><use xlink:href="#ab" x="134.152" y="479.884"/><use xlink:href="#N" x="139.666" y="479.884"/><use xlink:href="#aa" x="144.966" y="479.884"/><use xlink:href="#M" x="150.316" y="479.884"/><use xlink:href="#E" x="154.66" y="479.884"/><use xlink:href="#N" x="157.305" y="479.884"/><use xlink:href="#aa" x="162.605" y="479.884"/><use xlink:href="#ab" x="167.956" y="479.884"/><use xlink:href="#E" x="173.469" y="479.884"/><use xlink:href="#N" x="176.114" y="479.884"/><use xlink:href="#aa" x="181.414" y="479.884"/><use xlink:href="#M" x="186.765" y="479.884"/><use xlink:href="#I" x="191.109" y="479.884"/><use xlink:href="#al" x="193.153" y="479.884"/><use xlink:href="#I" x="197.934" y="479.884"/><use xlink:href="#aa" x="199.979" y="479.884"/><use xlink:href="#ad" x="205.33" y="479.884"/><use xlink:href="#O" x="209.633" y="479.884"/><use xlink:href="#N" x="211.678" y="479.884"/><use xlink:href="#Z" x="216.978" y="479.884"/><use xlink:href="#Z" x="225.085" y="479.884"/><use xlink:href="#N" x="233.193" y="479.884"/><use xlink:href="#M" x="238.493" y="479.884"/><use xlink:href="#H" x="242.836" y="479.884"/><use xlink:href="#R" x="248.248" y="479.884"/><use xlink:href="#af" x="252.551" y="479.884"/><use xlink:href="#E" x="257.078" y="479.884"/><use xlink:href="#Y" x="259.723" y="479.884"/><use xlink:href="#R" x="265.236" y="479.884"/><use xlink:href="#H" x="269.54" y="479.884"/><use xlink:href="#Y" x="274.951" y="479.884"/><use xlink:href="#L" x="280.465" y="479.884"/><use xlink:href="#R" x="285.755" y="479.884"/><use xlink:href="#M" x="290.058" y="479.884"/><use xlink:href="#I" x="294.401" y="479.884"/><use xlink:href="#L" x="296.446" y="479.884"/><use xlink:href="#ag" x="301.736" y="479.884"/><use xlink:href="#E" x="306.731" y="479.884"/><use xlink:href="#I" x="309.376" y="479.884"/><use xlink:href="#aa" x="311.42" y="479.884"/><use xlink:href="#E" x="316.771" y="479.884"/><use xlink:href="#Q" x="319.416" y="479.884"/><use xlink:href="#N" x="325.438" y="479.884"/><use xlink:href="#R" x="330.738" y="479.884"/><use xlink:href="#S" x="335.041" y="479.884"/><use xlink:href="#I" x="339.659" y="479.884"/><use xlink:href="#aa" x="341.704" y="479.884"/><use xlink:href="#ag" x="347.055" y="479.884"/><use xlink:href="#H" x="352.05" y="479.884"/><use xlink:href="#aa" x="357.462" y="479.884"/><use xlink:href="#am" x="362.812" y="479.884"/><use xlink:href="#ag" x="364.827" y="479.884"/><use xlink:href="#E" x="369.821" y="479.884"/><use xlink:href="#ab" x="372.466" y="479.884"/><use xlink:href="#I" x="377.98" y="479.884"/><use xlink:href="#ag" x="380.024" y="479.884"/><use xlink:href="#L" x="385.019" y="479.884"/><use xlink:href="#N" x="390.309" y="479.884"/><use xlink:href="#ag" x="395.609" y="479.884"/><use xlink:href="#L" x="400.604" y="479.884"/><use xlink:href="#E" x="405.893" y="479.884"/><use xlink:href="#N" x="408.538" y="479.884"/><use xlink:href="#aa" x="413.838" y="479.884"/><use xlink:href="#I" x="419.189" y="479.884"/><use xlink:href="#Z" x="421.234" y="479.884"/><use xlink:href="#N" x="429.341" y="479.884"/><use xlink:href="#O" x="434.641" y="479.884"/><use xlink:href="#E" x="436.686" y="479.884"/><use xlink:href="#Z" x="439.331" y="479.884"/><use xlink:href="#H" x="447.438" y="479.884"/><use xlink:href="#ab" x="452.85" y="479.884"/><use xlink:href="#L" x="458.364" y="479.884"/><use xlink:href="#O" x="463.654" y="479.884"/><use xlink:href="#D" x="465.698" y="479.884"/><use xlink:href="#an" x="467.712" y="479.884"/><use xlink:href="#E" x="471.375" y="479.884"/></g><g fill="#231f20"><use xlink:href="#ai" x="105.109" y="494.865"/><use xlink:href="#L" x="111.63" y="494.865"/><use xlink:href="#ah" x="116.92" y="494.865"/><use xlink:href="#R" x="122.27" y="494.865"/><use xlink:href="#H" x="126.573" y="494.865"/><use xlink:href="#Y" x="131.985" y="494.865"/><use xlink:href="#G" x="137.499" y="494.865"/><use xlink:href="#N" x="142.85" y="494.865"/><use xlink:href="#R" x="148.15" y="494.865"/><use xlink:href="#Z" x="152.453" y="494.865"/><use xlink:href="#N" x="160.56" y="494.865"/><use xlink:href="#ak" x="165.86" y="494.865"/><use xlink:href="#H" x="170.997" y="494.865"/><use xlink:href="#O" x="176.409" y="494.865"/><use xlink:href="#H" x="178.454" y="494.865"/><use xlink:href="#ae" x="183.866" y="494.865"/><use xlink:href="#af" x="189.369" y="494.865"/><use xlink:href="#D" x="193.896" y="494.865"/><use xlink:href="#E" x="195.91" y="494.865"/><use xlink:href="#aj" x="198.555" y="494.865"/><use xlink:href="#aq" x="204.048" y="494.865"/><use xlink:href="#aj" x="209.653" y="494.865"/><use xlink:href="#aq" x="215.146" y="494.865"/><use xlink:href="#P" x="220.752" y="494.865"/><use xlink:href="#E" x="222.766" y="494.865"/><use xlink:href="#C" x="225.411" y="494.865"/><use xlink:href="#az" x="229.866" y="494.865"/><use xlink:href="#aw" x="235.451" y="494.865"/><use xlink:href="#P" x="239.978" y="494.865"/><use xlink:href="#E" x="241.992" y="494.865"/><use xlink:href="#C" x="244.637" y="494.865"/><use xlink:href="#aq" x="249.093" y="494.865"/><use xlink:href="#aw" x="254.698" y="494.865"/><use xlink:href="#aA" x="259.224" y="494.865"/><use xlink:href="#au" x="264.789" y="494.865"/><use xlink:href="#aA" x="270.404" y="494.865"/><use xlink:href="#D" x="275.969" y="494.865"/></g><g fill="#231f20"><use xlink:href="#aB" x="94.845" y="516.677"/><use xlink:href="#D" x="100.359" y="516.677"/><use xlink:href="#E" x="102.373" y="516.677"/></g><use xlink:href="#E" x="105.018" y="516.677" fill="#231f20"/><use xlink:href="#E" x="105.018" y="516.677" fill="#231f20"/><g fill="#231f20"><use xlink:href="#T" x="105.018" y="516.677"/><use xlink:href="#I" x="110.735" y="516.677"/><use xlink:href="#Z" x="112.78" y="516.677"/><use xlink:href="#E" x="120.887" y="516.677"/><use xlink:href="#ax" x="123.532" y="516.677"/><use xlink:href="#D" x="129.9" y="516.677"/><use xlink:href="#E" x="131.914" y="516.677"/><use xlink:href="#L" x="134.559" y="516.677"/><use xlink:href="#M" x="139.849" y="516.677"/><use xlink:href="#E" x="144.193" y="516.677"/><use xlink:href="#N" x="146.838" y="516.677"/><use xlink:href="#O" x="152.137" y="516.677"/><use xlink:href="#P" x="154.182" y="516.677"/><use xlink:href="#E" x="156.196" y="516.677"/><use xlink:href="#Q" x="158.841" y="516.677"/><use xlink:href="#N" x="164.863" y="516.677"/><use xlink:href="#R" x="170.163" y="516.677"/><use xlink:href="#S" x="174.466" y="516.677"/><use xlink:href="#E" x="179.085" y="516.677"/><use xlink:href="#T" x="181.73" y="516.677"/><use xlink:href="#D" x="187.447" y="516.677"/><use xlink:href="#E" x="189.461" y="516.677"/><use xlink:href="#U" x="192.106" y="516.677"/><use xlink:href="#D" x="198.718" y="516.677"/><use xlink:href="#V" x="200.732" y="516.677"/><use xlink:href="#E" x="205.951" y="516.677"/><use xlink:href="#W" x="208.596" y="516.677"/><use xlink:href="#ai" x="212.258" y="516.677"/><use xlink:href="#R" x="218.778" y="516.677"/><use xlink:href="#ad" x="223.081" y="516.677"/><use xlink:href="#aj" x="227.384" y="516.677"/><use xlink:href="#E" x="232.878" y="516.677"/><use xlink:href="#N" x="235.523" y="516.677"/><use xlink:href="#ak" x="240.822" y="516.677"/><use xlink:href="#M" x="245.96" y="516.677"/><use xlink:href="#I" x="250.303" y="516.677"/><use xlink:href="#X" x="252.348" y="516.677"/><use xlink:href="#N" x="256.895" y="516.677"/><use xlink:href="#M" x="262.195" y="516.677"/><use xlink:href="#H" x="266.539" y="516.677"/><use xlink:href="#R" x="271.951" y="516.677"/><use xlink:href="#E" x="276.254" y="516.677"/><use xlink:href="#X" x="278.899" y="516.677"/><use xlink:href="#I" x="283.446" y="516.677"/><use xlink:href="#N" x="285.49" y="516.677"/><use xlink:href="#E" x="290.79" y="516.677"/><use xlink:href="#I" x="293.435" y="516.677"/><use xlink:href="#aa" x="295.48" y="516.677"/><use xlink:href="#M" x="300.831" y="516.677"/><use xlink:href="#L" x="305.174" y="516.677"/><use xlink:href="#R" x="310.464" y="516.677"/><use xlink:href="#ad" x="314.767" y="516.677"/><use xlink:href="#L" x="319.07" y="516.677"/><use xlink:href="#R" x="324.36" y="516.677"/><use xlink:href="#L" x="328.663" y="516.677"/><use xlink:href="#aa" x="333.953" y="516.677"/><use xlink:href="#ak" x="339.304" y="516.677"/><use xlink:href="#L" x="344.441" y="516.677"/><use xlink:href="#E" x="349.731" y="516.677"/><use xlink:href="#H" x="352.375" y="516.677"/><use xlink:href="#ad" x="357.787" y="516.677"/><use xlink:href="#E" x="362.09" y="516.677"/><use xlink:href="#ai" x="364.735" y="516.677"/><use xlink:href="#R" x="371.256" y="516.677"/><use xlink:href="#ad" x="375.559" y="516.677"/><use xlink:href="#aj" x="379.862" y="516.677"/><use xlink:href="#al" x="385.355" y="516.677"/><use xlink:href="#T" x="390.136" y="516.677"/><use xlink:href="#L" x="395.853" y="516.677"/><use xlink:href="#N" x="401.143" y="516.677"/><use xlink:href="#Y" x="406.443" y="516.677"/><use xlink:href="#C" x="411.957" y="516.677"/><use xlink:href="#E" x="416.412" y="516.677"/><use xlink:href="#I" x="419.057" y="516.677"/><use xlink:href="#aa" x="421.102" y="516.677"/><use xlink:href="#M" x="426.453" y="516.677"/><use xlink:href="#L" x="430.796" y="516.677"/><use xlink:href="#R" x="436.086" y="516.677"/><use xlink:href="#N" x="440.389" y="516.677"/><use xlink:href="#ak" x="445.689" y="516.677"/><use xlink:href="#M" x="450.826" y="516.677"/><use xlink:href="#I" x="455.17" y="516.677"/><use xlink:href="#H" x="457.215" y="516.677"/><use xlink:href="#aa" x="462.626" y="516.677"/><use xlink:href="#E" x="467.977" y="516.677"/><use xlink:href="#G" x="470.622" y="516.677"/><use xlink:href="#N" x="475.973" y="516.677"/><use xlink:href="#ag" x="481.273" y="516.677"/><use xlink:href="#E" x="486.268" y="516.677"/></g><g fill="#231f20"><use xlink:href="#N" x="105.119" y="531.659"/><use xlink:href="#aa" x="110.419" y="531.659"/><use xlink:href="#M" x="115.77" y="531.659"/><use xlink:href="#I" x="120.114" y="531.659"/><use xlink:href="#H" x="122.158" y="531.659"/><use xlink:href="#ay" x="127.57" y="531.659"/><use xlink:href="#I" x="132.117" y="531.659"/><use xlink:href="#ab" x="134.162" y="531.659"/><use xlink:href="#N" x="139.676" y="531.659"/><use xlink:href="#aa" x="144.976" y="531.659"/><use xlink:href="#M" x="150.326" y="531.659"/><use xlink:href="#E" x="154.67" y="531.659"/><use xlink:href="#N" x="157.315" y="531.659"/><use xlink:href="#aa" x="162.615" y="531.659"/><use xlink:href="#ab" x="167.966" y="531.659"/><use xlink:href="#E" x="173.479" y="531.659"/><use xlink:href="#N" x="176.124" y="531.659"/><use xlink:href="#aa" x="181.424" y="531.659"/><use xlink:href="#M" x="186.775" y="531.659"/><use xlink:href="#I" x="191.119" y="531.659"/><use xlink:href="#al" x="193.163" y="531.659"/><use xlink:href="#I" x="197.944" y="531.659"/><use xlink:href="#aa" x="199.989" y="531.659"/><use xlink:href="#ad" x="205.34" y="531.659"/><use xlink:href="#O" x="209.643" y="531.659"/><use xlink:href="#N" x="211.688" y="531.659"/><use xlink:href="#Z" x="216.988" y="531.659"/><use xlink:href="#Z" x="225.095" y="531.659"/><use xlink:href="#N" x="233.203" y="531.659"/><use xlink:href="#M" x="238.503" y="531.659"/><use xlink:href="#H" x="242.846" y="531.659"/><use xlink:href="#R" x="248.258" y="531.659"/><use xlink:href="#af" x="252.561" y="531.659"/><use xlink:href="#E" x="257.088" y="531.659"/><use xlink:href="#Y" x="259.733" y="531.659"/><use xlink:href="#R" x="265.247" y="531.659"/><use xlink:href="#H" x="269.55" y="531.659"/><use xlink:href="#Y" x="274.961" y="531.659"/><use xlink:href="#L" x="280.475" y="531.659"/><use xlink:href="#R" x="285.765" y="531.659"/><use xlink:href="#M" x="290.068" y="531.659"/><use xlink:href="#I" x="294.412" y="531.659"/><use xlink:href="#L" x="296.456" y="531.659"/><use xlink:href="#ag" x="301.746" y="531.659"/><use xlink:href="#E" x="306.741" y="531.659"/><use xlink:href="#I" x="309.386" y="531.659"/><use xlink:href="#aa" x="311.43" y="531.659"/><use xlink:href="#E" x="316.781" y="531.659"/><use xlink:href="#Q" x="319.426" y="531.659"/><use xlink:href="#N" x="325.448" y="531.659"/><use xlink:href="#R" x="330.748" y="531.659"/><use xlink:href="#S" x="335.051" y="531.659"/><use xlink:href="#I" x="339.67" y="531.659"/><use xlink:href="#aa" x="341.714" y="531.659"/><use xlink:href="#ag" x="347.065" y="531.659"/><use xlink:href="#H" x="352.06" y="531.659"/><use xlink:href="#aa" x="357.472" y="531.659"/><use xlink:href="#am" x="362.822" y="531.659"/><use xlink:href="#ag" x="364.837" y="531.659"/><use xlink:href="#E" x="369.831" y="531.659"/><use xlink:href="#ab" x="372.476" y="531.659"/><use xlink:href="#I" x="377.99" y="531.659"/><use xlink:href="#ag" x="380.035" y="531.659"/><use xlink:href="#L" x="385.029" y="531.659"/><use xlink:href="#N" x="390.319" y="531.659"/><use xlink:href="#ag" x="395.619" y="531.659"/><use xlink:href="#L" x="400.614" y="531.659"/><use xlink:href="#E" x="405.904" y="531.659"/><use xlink:href="#N" x="408.548" y="531.659"/><use xlink:href="#aa" x="413.848" y="531.659"/><use xlink:href="#I" x="419.199" y="531.659"/><use xlink:href="#Z" x="421.244" y="531.659"/><use xlink:href="#N" x="429.351" y="531.659"/><use xlink:href="#O" x="434.651" y="531.659"/><use xlink:href="#E" x="436.696" y="531.659"/><use xlink:href="#Z" x="439.341" y="531.659"/><use xlink:href="#H" x="447.449" y="531.659"/><use xlink:href="#ab" x="452.86" y="531.659"/><use xlink:href="#L" x="458.374" y="531.659"/><use xlink:href="#O" x="463.664" y="531.659"/><use xlink:href="#D" x="465.708" y="531.659"/><use xlink:href="#an" x="467.723" y="531.659"/><use xlink:href="#E" x="471.385" y="531.659"/></g><g fill="#231f20"><use xlink:href="#ai" x="105.119" y="546.641"/><use xlink:href="#L" x="111.64" y="546.641"/><use xlink:href="#ah" x="116.93" y="546.641"/><use xlink:href="#R" x="122.28" y="546.641"/><use xlink:href="#H" x="126.583" y="546.641"/><use xlink:href="#Y" x="131.995" y="546.641"/><use xlink:href="#G" x="137.509" y="546.641"/><use xlink:href="#N" x="142.86" y="546.641"/><use xlink:href="#R" x="148.16" y="546.641"/><use xlink:href="#Z" x="152.463" y="546.641"/><use xlink:href="#N" x="160.57" y="546.641"/><use xlink:href="#ak" x="165.87" y="546.641"/><use xlink:href="#H" x="171.007" y="546.641"/><use xlink:href="#O" x="176.419" y="546.641"/><use xlink:href="#H" x="178.464" y="546.641"/><use xlink:href="#ae" x="183.876" y="546.641"/><use xlink:href="#af" x="189.379" y="546.641"/><use xlink:href="#D" x="193.906" y="546.641"/><use xlink:href="#E" x="195.92" y="546.641"/><use xlink:href="#aj" x="198.565" y="546.641"/><use xlink:href="#aq" x="204.058" y="546.641"/><use xlink:href="#aj" x="209.663" y="546.641"/><use xlink:href="#aq" x="215.157" y="546.641"/><use xlink:href="#P" x="220.762" y="546.641"/><use xlink:href="#E" x="222.776" y="546.641"/><use xlink:href="#C" x="225.421" y="546.641"/><use xlink:href="#az" x="229.876" y="546.641"/><use xlink:href="#aw" x="235.461" y="546.641"/><use xlink:href="#P" x="239.988" y="546.641"/><use xlink:href="#E" x="242.002" y="546.641"/><use xlink:href="#C" x="244.647" y="546.641"/><use xlink:href="#aq" x="249.103" y="546.641"/><use xlink:href="#aw" x="254.708" y="546.641"/><use xlink:href="#aA" x="259.235" y="546.641"/><use xlink:href="#au" x="264.799" y="546.641"/><use xlink:href="#aA" x="270.414" y="546.641"/><use xlink:href="#D" x="275.979" y="546.641"/></g><g fill="#231f20"><use xlink:href="#av" x="94.845" y="568.453"/><use xlink:href="#D" x="100.461" y="568.453"/><use xlink:href="#E" x="102.475" y="568.453"/></g><use xlink:href="#E" x="105.12" y="568.453" fill="#231f20"/><use xlink:href="#E" x="105.12" y="568.453" fill="#231f20"/><g fill="#231f20"><use xlink:href="#F" x="105.12" y="568.453"/><use xlink:href="#G" x="111.477" y="568.453"/><use xlink:href="#H" x="116.828" y="568.453"/><use xlink:href="#I" x="122.24" y="568.453"/><use xlink:href="#E" x="124.285" y="568.453"/><use xlink:href="#J" x="126.93" y="568.453"/><use xlink:href="#D" x="132.179" y="568.453"/><use xlink:href="#E" x="134.193" y="568.453"/><use xlink:href="#K" x="136.838" y="568.453"/><use xlink:href="#D" x="145.607" y="568.453"/><use xlink:href="#E" x="147.621" y="568.453"/><use xlink:href="#L" x="150.266" y="568.453"/><use xlink:href="#M" x="155.555" y="568.453"/><use xlink:href="#E" x="159.899" y="568.453"/><use xlink:href="#N" x="162.544" y="568.453"/><use xlink:href="#O" x="167.844" y="568.453"/><use xlink:href="#P" x="169.889" y="568.453"/><use xlink:href="#E" x="171.903" y="568.453"/><use xlink:href="#Q" x="174.548" y="568.453"/><use xlink:href="#N" x="180.57" y="568.453"/><use xlink:href="#R" x="185.87" y="568.453"/><use xlink:href="#S" x="190.173" y="568.453"/><use xlink:href="#E" x="194.791" y="568.453"/><use xlink:href="#T" x="197.436" y="568.453"/><use xlink:href="#D" x="203.153" y="568.453"/><use xlink:href="#E" x="205.167" y="568.453"/><use xlink:href="#U" x="207.812" y="568.453"/><use xlink:href="#D" x="214.424" y="568.453"/><use xlink:href="#V" x="216.439" y="568.453"/><use xlink:href="#E" x="221.657" y="568.453"/><use xlink:href="#W" x="224.302" y="568.453"/><use xlink:href="#aC" x="227.964" y="568.453"/><use xlink:href="#Y" x="234.627" y="568.453"/><use xlink:href="#M" x="240.141" y="568.453"/><use xlink:href="#I" x="244.485" y="568.453"/><use xlink:href="#Z" x="246.529" y="568.453"/><use xlink:href="#I" x="254.637" y="568.453"/><use xlink:href="#ac" x="256.682" y="568.453"/><use xlink:href="#N" x="261.402" y="568.453"/><use xlink:href="#M" x="266.702" y="568.453"/><use xlink:href="#I" x="271.045" y="568.453"/><use xlink:href="#H" x="273.09" y="568.453"/><use xlink:href="#aa" x="278.502" y="568.453"/><use xlink:href="#E" x="283.853" y="568.453"/><use xlink:href="#H" x="286.498" y="568.453"/><use xlink:href="#ad" x="291.909" y="568.453"/><use xlink:href="#E" x="296.212" y="568.453"/><use xlink:href="#X" x="298.857" y="568.453"/><use xlink:href="#I" x="303.404" y="568.453"/><use xlink:href="#aa" x="305.449" y="568.453"/><use xlink:href="#af" x="310.8" y="568.453"/><use xlink:href="#O" x="315.327" y="568.453"/><use xlink:href="#E" x="317.371" y="568.453"/><use xlink:href="#ag" x="320.016" y="568.453"/><use xlink:href="#ah" x="325.011" y="568.453"/><use xlink:href="#O" x="330.362" y="568.453"/><use xlink:href="#ad" x="332.407" y="568.453"/><use xlink:href="#H" x="336.71" y="568.453"/><use xlink:href="#aa" x="342.121" y="568.453"/><use xlink:href="#L" x="347.472" y="568.453"/><use xlink:href="#E" x="352.762" y="568.453"/><use xlink:href="#ab" x="355.407" y="568.453"/><use xlink:href="#L" x="360.92" y="568.453"/><use xlink:href="#R" x="366.21" y="568.453"/><use xlink:href="#I" x="370.513" y="568.453"/><use xlink:href="#X" x="372.558" y="568.453"/><use xlink:href="#N" x="377.105" y="568.453"/><use xlink:href="#M" x="382.405" y="568.453"/><use xlink:href="#I" x="386.749" y="568.453"/><use xlink:href="#X" x="388.793" y="568.453"/><use xlink:href="#L" x="393.341" y="568.453"/><use xlink:href="#ag" x="398.63" y="568.453"/><use xlink:href="#E" x="403.625" y="568.453"/><use xlink:href="#N" x="406.27" y="568.453"/><use xlink:href="#ag" x="411.57" y="568.453"/><use xlink:href="#E" x="416.565" y="568.453"/><use xlink:href="#Y" x="419.21" y="568.453"/><use xlink:href="#H" x="424.723" y="568.453"/><use xlink:href="#M" x="430.135" y="568.453"/><use xlink:href="#L" x="434.479" y="568.453"/><use xlink:href="#aa" x="439.769" y="568.453"/><use xlink:href="#M" x="445.119" y="568.453"/><use xlink:href="#E" x="449.463" y="568.453"/><use xlink:href="#aa" x="452.108" y="568.453"/><use xlink:href="#ah" x="457.459" y="568.453"/><use xlink:href="#ak" x="462.81" y="568.453"/><use xlink:href="#O" x="467.947" y="568.453"/><use xlink:href="#L" x="469.991" y="568.453"/><use xlink:href="#N" x="475.281" y="568.453"/><use xlink:href="#R" x="480.581" y="568.453"/><use xlink:href="#E" x="484.884" y="568.453"/><use xlink:href="#ad" x="487.529" y="568.453"/><use xlink:href="#N" x="491.832" y="568.453"/><use xlink:href="#ak" x="497.132" y="568.453"/><use xlink:href="#M" x="502.269" y="568.453"/><use xlink:href="#H" x="506.613" y="568.453"/><use xlink:href="#R" x="512.025" y="568.453"/><use xlink:href="#E" x="516.328" y="568.453"/></g><g fill="#231f20"><use xlink:href="#L" x="105.221" y="583.435"/><use xlink:href="#R" x="110.511" y="583.435"/><use xlink:href="#af" x="114.814" y="583.435"/><use xlink:href="#M" x="119.341" y="583.435"/><use xlink:href="#G" x="123.684" y="583.435"/><use xlink:href="#R" x="129.035" y="583.435"/><use xlink:href="#H" x="133.338" y="583.435"/><use xlink:href="#I" x="138.75" y="583.435"/><use xlink:href="#ab" x="140.795" y="583.435"/><use xlink:href="#E" x="146.308" y="583.435"/><use xlink:href="#aj" x="148.953" y="583.435"/><use xlink:href="#al" x="154.446" y="583.435"/><use xlink:href="#R" x="159.228" y="583.435"/><use xlink:href="#L" x="163.531" y="583.435"/><use xlink:href="#O" x="168.82" y="583.435"/><use xlink:href="#N" x="170.865" y="583.435"/><use xlink:href="#M" x="176.165" y="583.435"/><use xlink:href="#L" x="180.509" y="583.435"/><use xlink:href="#ab" x="185.799" y="583.435"/><use xlink:href="#E" x="191.312" y="583.435"/><use xlink:href="#ad" x="193.957" y="583.435"/><use xlink:href="#N" x="198.26" y="583.435"/><use xlink:href="#ak" x="203.56" y="583.435"/><use xlink:href="#M" x="208.697" y="583.435"/><use xlink:href="#H" x="213.041" y="583.435"/><use xlink:href="#R" x="218.453" y="583.435"/><use xlink:href="#E" x="222.756" y="583.435"/><use xlink:href="#aj" x="225.401" y="583.435"/><use xlink:href="#E" x="230.894" y="583.435"/><use xlink:href="#aD" x="233.539" y="583.435"/><use xlink:href="#ai" x="236.407" y="583.435"/><use xlink:href="#R" x="242.928" y="583.435"/><use xlink:href="#ad" x="247.231" y="583.435"/><use xlink:href="#aj" x="251.534" y="583.435"/><use xlink:href="#aE" x="257.027" y="583.435"/><use xlink:href="#E" x="259.896" y="583.435"/><use xlink:href="#N" x="262.541" y="583.435"/><use xlink:href="#ak" x="267.841" y="583.435"/><use xlink:href="#M" x="272.978" y="583.435"/><use xlink:href="#I" x="277.322" y="583.435"/><use xlink:href="#X" x="279.366" y="583.435"/><use xlink:href="#N" x="283.914" y="583.435"/><use xlink:href="#M" x="289.213" y="583.435"/><use xlink:href="#H" x="293.557" y="583.435"/><use xlink:href="#R" x="298.969" y="583.435"/><use xlink:href="#ag" x="303.272" y="583.435"/><use xlink:href="#E" x="308.267" y="583.435"/><use xlink:href="#ad" x="310.912" y="583.435"/><use xlink:href="#H" x="315.215" y="583.435"/><use xlink:href="#R" x="320.627" y="583.435"/><use xlink:href="#E" x="324.93" y="583.435"/><use xlink:href="#Q" x="327.574" y="583.435"/><use xlink:href="#N" x="333.597" y="583.435"/><use xlink:href="#R" x="338.897" y="583.435"/><use xlink:href="#S" x="343.2" y="583.435"/><use xlink:href="#I" x="347.818" y="583.435"/><use xlink:href="#aa" x="349.863" y="583.435"/><use xlink:href="#ag" x="355.213" y="583.435"/><use xlink:href="#H" x="360.208" y="583.435"/><use xlink:href="#aa" x="365.62" y="583.435"/><use xlink:href="#am" x="370.971" y="583.435"/><use xlink:href="#ag" x="372.985" y="583.435"/><use xlink:href="#E" x="377.98" y="583.435"/><use xlink:href="#ab" x="380.625" y="583.435"/><use xlink:href="#I" x="386.138" y="583.435"/><use xlink:href="#ag" x="388.183" y="583.435"/><use xlink:href="#L" x="393.178" y="583.435"/><use xlink:href="#N" x="398.467" y="583.435"/><use xlink:href="#ag" x="403.767" y="583.435"/><use xlink:href="#L" x="408.762" y="583.435"/><use xlink:href="#E" x="414.052" y="583.435"/><use xlink:href="#M" x="416.697" y="583.435"/><use xlink:href="#G" x="421.041" y="583.435"/><use xlink:href="#L" x="426.391" y="583.435"/><use xlink:href="#R" x="431.681" y="583.435"/><use xlink:href="#N" x="435.984" y="583.435"/><use xlink:href="#Y" x="441.284" y="583.435"/><use xlink:href="#af" x="446.798" y="583.435"/><use xlink:href="#D" x="451.324" y="583.435"/><use xlink:href="#an" x="453.339" y="583.435"/><use xlink:href="#E" x="457.001" y="583.435"/><use xlink:href="#J" x="459.646" y="583.435"/><use xlink:href="#D" x="464.895" y="583.435"/><use xlink:href="#E" x="466.909" y="583.435"/><use xlink:href="#ap" x="469.554" y="583.435"/><use xlink:href="#L" x="477.783" y="583.435"/><use xlink:href="#ab" x="483.073" y="583.435"/><use xlink:href="#D" x="488.587" y="583.435"/><use xlink:href="#E" x="490.601" y="583.435"/></g><g fill="#231f20"><use xlink:href="#F" x="105.221" y="598.417"/><use xlink:href="#G" x="111.579" y="598.417"/><use xlink:href="#L" x="116.93" y="598.417"/><use xlink:href="#Z" x="122.22" y="598.417"/><use xlink:href="#D" x="130.327" y="598.417"/><use xlink:href="#E" x="132.341" y="598.417"/><use xlink:href="#aj" x="134.986" y="598.417"/><use xlink:href="#aq" x="140.479" y="598.417"/><use xlink:href="#C" x="146.085" y="598.417"/><use xlink:href="#aA" x="150.54" y="598.417"/><use xlink:href="#P" x="156.105" y="598.417"/><use xlink:href="#E" x="158.119" y="598.417"/><use xlink:href="#az" x="160.764" y="598.417"/><use xlink:href="#aj" x="166.348" y="598.417"/><use xlink:href="#P" x="171.842" y="598.417"/><use xlink:href="#E" x="173.856" y="598.417"/><use xlink:href="#au" x="176.501" y="598.417"/><use xlink:href="#C" x="182.116" y="598.417"/><use xlink:href="#C" x="186.572" y="598.417"/><use xlink:href="#al" x="191.027" y="598.417"/><use xlink:href="#au" x="195.808" y="598.417"/><use xlink:href="#ar" x="201.424" y="598.417"/><use xlink:href="#aq" x="206.927" y="598.417"/><use xlink:href="#D" x="212.532" y="598.417"/></g><g fill="#fff"><use xlink:href="#aF" x="136.011" y="329.994"/><use xlink:href="#aG" x="143.241" y="329.994"/><use xlink:href="#aH" x="150.204" y="329.994"/><use xlink:href="#aI" x="157.18" y="329.994"/><use xlink:href="#aJ" x="160.001" y="329.994"/><use xlink:href="#aK" x="162.896" y="329.994"/><use xlink:href="#aL" x="168.818" y="329.994"/><use xlink:href="#aM" x="175.26" y="329.994"/><use xlink:href="#aJ" x="179.729" y="329.994"/><use xlink:href="#aN" x="182.623" y="329.994"/><use xlink:href="#aO" x="189.502" y="329.994"/><use xlink:href="#aP" x="196.514" y="329.994"/><use xlink:href="#aQ" x="202.303" y="329.994"/><use xlink:href="#aR" x="205.088" y="329.994"/><use xlink:href="#aQ" x="209.133" y="329.994"/><use xlink:href="#aS" x="211.918" y="329.994"/><use xlink:href="#aT" x="215.757" y="329.994"/><use xlink:href="#aU" x="223.326" y="329.994"/><use xlink:href="#aK" x="229.89" y="329.994"/><use xlink:href="#aU" x="235.812" y="329.994"/><use xlink:href="#aO" x="242.375" y="329.994"/><use xlink:href="#aM" x="249.387" y="329.994"/><use xlink:href="#aQ" x="253.856" y="329.994"/><use xlink:href="#aV" x="256.641" y="329.994"/><use xlink:href="#aQ" x="263.786" y="329.994"/><use xlink:href="#aW" x="266.572" y="329.994"/></g><g fill="#fff"><use xlink:href="#aU" x="272.93" y="329.994"/><use xlink:href="#aL" x="279.493" y="329.994"/><use xlink:href="#aX" x="285.936" y="329.994"/><use xlink:href="#aP" x="290.744" y="329.994"/><use xlink:href="#aY" x="296.533" y="329.994"/></g></svg>