<svg xmlns="http://www.w3.org/2000/svg" xmlns:xlink="http://www.w3.org/1999/xlink" width="793.701" height="1058.268" viewBox="0 0 595.276 793.701" version="1.2"><defs><symbol overflow="visible" id="a"><path d="M2.875.031c.434 0 .82-.144 1.156-.437.332-.301.594-.64.782-1.016.183-.34.316-.71.39-1.11.082-.402.125-.804.125-1.202 0-.403-.05-.813-.14-1.22a4.843 4.843 0 0 0-.407-1.155A3.031 3.031 0 0 0 4-7.063a1.747 1.747 0 0 0-1.14-.421c-.844 0-1.473.457-1.876 1.359-.406.906-.609 1.707-.609 2.39 0 .712.203 1.52.61 2.422C1.386-.413 2.02.032 2.874.032zm0-.281c-.75 0-1.227-.441-1.422-1.328-.2-.895-.297-1.613-.297-2.156 0-.54.098-1.254.297-2.141.195-.895.672-1.344 1.422-1.344.363 0 .648.137.86.407.206.273.363.566.468.875.113.343.195.71.25 1.093.059.387.094.758.094 1.11 0 .324-.035.675-.094 1.046a9.33 9.33 0 0 1-.203 1.016c-.094.336-.254.66-.469.969-.21.305-.511.453-.906.453zm0 0"/></symbol><symbol overflow="visible" id="b"><path d="M1.828-3.625c-.375.18-.726.383-1.047.61-.324.23-.484.59-.484 1.078 0 .292.078.57.234.828.164.25.36.46.578.625.239.18.493.308.766.39.27.086.555.125.86.125.34 0 .68-.05 1.015-.156.332-.102.629-.266.89-.484a2.03 2.03 0 0 0 .532-.72 2.01 2.01 0 0 0 .203-.874c0-.527-.2-.957-.594-1.281a2.944 2.944 0 0 0-1.265-.657l.328-.171c.332-.153.633-.329.906-.516.277-.195.422-.508.422-.938 0-.59-.242-1.023-.719-1.296a2.967 2.967 0 0 0-1.5-.422c-.281 0-.566.043-.844.125-.28.074-.539.199-.765.375a2.03 2.03 0 0 0-.563.625c-.148.261-.219.539-.219.828 0 .492.16.87.485 1.14.32.274.695.489 1.125.641zm1.328-.672c-.094 0-.242-.031-.437-.094a3.164 3.164 0 0 1-.438-.156 2.052 2.052 0 0 1-.703-.516 1.21 1.21 0 0 1-.297-.828c0-.183.04-.367.125-.546.09-.184.207-.336.344-.454.152-.132.328-.234.516-.296.183-.06.379-.094.578-.094.445 0 .828.144 1.14.422.32.273.485.644.485 1.109 0 .242-.059.465-.172.672-.106.21-.262.383-.469.516a2.53 2.53 0 0 1-.328.171.968.968 0 0 1-.344.094zm-.328 4.11c-.242 0-.473-.032-.687-.094a1.445 1.445 0 0 1-.594-.375 1.77 1.77 0 0 1-.36-.547 1.608 1.608 0 0 1-.125-.625c0-.352.083-.656.25-.906.165-.246.391-.47.672-.657.051-.039.141-.093.266-.156a.764.764 0 0 1 .297-.094c.09 0 .27.051.531.141.27.094.445.168.531.219.278.136.516.324.704.562.195.242.296.528.296.86 0 .199-.039.394-.109.578a2.04 2.04 0 0 1-.297.515c-.18.22-.387.371-.625.454a2.13 2.13 0 0 1-.75.124zm0 0"/></symbol><symbol overflow="visible" id="c"><path d="M3.64-5.844V.453h.813v-6.297zm0 0"/></symbol><symbol overflow="visible" id="d"><path d="M.75.047v1.016h1.031V.046zm0 0"/></symbol><symbol overflow="visible" id="f"><path d="M7.422 1.36v-7.985h-.734v2.938h-.954V-6.5H5V.984h.734v-3.953h.954V1.36zM2.938-4.626v-.813H4.28v-.625H.813v.625h1.359v.688c0 .953-.156 1.766-.469 2.453A4.316 4.316 0 0 1 .172-.594c.234.14.531.313.687.453.36-.265.735-.656 1.047-1.093.297-.407.532-.875.64-1.297.126.422.345.828.61 1.187.297.375.64.703.969.907.14-.172.36-.36.547-.5a3.485 3.485 0 0 1-1.344-1.516c-.25-.594-.39-1.328-.39-2.172zm0 0"/></symbol><symbol overflow="visible" id="g"><path d="M6.078-6.625V-.75h.75v-3.266h1.11v-.64h-1.11v-1.969zm-.344 3.234c-.546.11-2.015.282-2.843.297l-1.313.016v-2.547H4.61v-.64H.844v3.843c.031 0 1.375 0 1.984-.015 1.047-.032 2.328-.188 2.906-.329zm1.344 4.594v-.64H2.422v-2.016h-.75v2.656zm0 0"/></symbol><symbol overflow="visible" id="h"><path d="M7.11-2.313v-4.312h-.75v1.578H4.624v-1.312h-.719v1.187h-2.25v-1.187H.922v3.687h3.703V-4.39h1.734v2.079zm-3.204-1h-2.25V-4.53h2.25zM7.11 1.282v-3.234h-.75v.922H2.547v-.922h-.75V1.28zm-.75-.61H2.547V-.405h3.812zm0 0"/></symbol><symbol overflow="visible" id="i"><path d="M7.11-.75v-5.875h-.75V-.75zM.61-4.406c0 1.14.874 2.093 2.124 2.093 1.235 0 2.11-.953 2.11-2.093 0-1.172-.875-2.11-2.11-2.11-1.25 0-2.125.938-2.125 2.11zm.765 0c0-.828.5-1.469 1.36-1.469.859 0 1.359.64 1.359 1.469 0 .797-.5 1.437-1.36 1.437-.859 0-1.359-.64-1.359-1.437zm5.969 5.61V.562H2.562v-1.985h-.75v2.625zm0 0"/></symbol><symbol overflow="visible" id="j"><path d="M7.047 1.36v-7.985H6.28v7.984zM4.687-.657v-5.469H.97v5.469zm-.734-.64H1.72V-5.47h2.234zm0 0"/></symbol><symbol overflow="visible" id="k"><path d="M7.203 1.36v-7.985H6.47v2.844h-.985V-6.5H4.75V.984h.734v-4.046h.985v4.421zm-2.75-2.75c-.344.062-1.187.156-1.734.156l-1.063.015V-3.03h2.157v-3.125H.921v.64h2.172v1.844H.922v3.11l1.547-.016A19.11 19.11 0 0 0 4.453-.75zm0 0"/></symbol><symbol overflow="visible" id="l"><path d="M7.203 1.36v-7.985h-.75v7.984zM1.031-4.376c0 1.094.875 2 2.125 2 1.235 0 2.125-.906 2.125-2 0-1.094-.89-1.984-2.125-1.984-1.25 0-2.125.89-2.125 1.984zm.735 0c0-.75.53-1.36 1.39-1.36.86 0 1.36.61 1.36 1.36 0 .75-.5 1.36-1.36 1.36-.86 0-1.39-.61-1.39-1.36zm4.406 3.016c-.64.109-2.531.25-3.219.265-.328.016-2.312.016-2.344.016v.656c.016 0 1.657.016 1.985 0a26.518 26.518 0 0 0 3.578-.297zm0 0"/></symbol><symbol overflow="visible" id="m"><path d="M8.047-3.813v-.671H6.922v-2.141h-.766V-1.5h.766v-2.313zM4.14-6.046v-.594H1.687v.594zm1.14 1.203v-.593H.594v.593zM.921-3.078c0 .719.829 1.312 2 1.312 1.25 0 2.032-.593 2.032-1.312 0-.735-.75-1.328-2.016-1.328-1.203 0-2.015.593-2.015 1.328zm.782-.016c0-.453.484-.719 1.234-.719.766 0 1.235.266 1.235.72 0 .452-.453.75-1.234.75-.75 0-1.235-.282-1.235-.75zm5.219 4.5v-2.515h-5.36v.625h4.579v1.89zm0 0"/></symbol><symbol overflow="visible" id="n"><path d="M7.11-.75v-5.875h-.75v.922H4.421c-.36-.5-.969-.844-1.703-.844-1.235 0-2.11.969-2.11 2.125 0 1.156.875 2.11 2.11 2.11.765 0 1.39-.36 1.75-.891h1.89V-.75zm-.75-3.11H4.75a1.7 1.7 0 0 0 .094-.562c0-.219-.032-.437-.094-.625h1.61zm-4.985-.562c0-.812.5-1.469 1.344-1.469.875 0 1.36.657 1.36 1.47 0 .796-.485 1.452-1.36 1.452-.844 0-1.344-.656-1.344-1.453zm5.953 5.625v-.64H2.562v-1.985h-.75v2.625zm0 0"/></symbol><symbol overflow="visible" id="o"><path d="M7.781-2.156v-.64H6.484c.204-.907.375-2.438.407-3.548H1.156v.64h4.938a16.656 16.656 0 0 1-.39 2.907H.265v.64h3.312V1.36h.75v-3.515zm0 0"/></symbol><symbol overflow="visible" id="p"><path d="M4.438-5.656v-.657h-.813v.657c0 .703-.344 1.36-.89 1.89-.563.547-1.329.97-2.157 1.22.235.218.438.421.578.593a5.89 5.89 0 0 0 1.703-.953c.516-.422.938-.922 1.172-1.469.219.531.672 1.063 1.203 1.484.547.438 1.157.766 1.672.938.14-.188.36-.39.547-.578a5.116 5.116 0 0 1-2.031-1.156c-.578-.547-.984-1.25-.984-1.97zM7.78.359v-.64H4.406v-2.016h-.765V-.28H.28v.64zm0 0"/></symbol><symbol overflow="visible" id="q"><path d="M7.203 1.375v-8h-.75v2.969h-1V-6.5H4.72V.984h.734v-3.921h1v4.312zM.781-6.063v.641h2.25c-.031.906-.25 1.734-.656 2.469-.469.828-1.14 1.547-2.094 2.156.203.11.547.313.703.453.938-.687 1.688-1.515 2.172-2.594.39-.859.61-1.89.64-3.124zm0 0"/></symbol><symbol overflow="visible" id="r"><path d="M8.203-5.625c0 1.063-1.265 1.703-2.797 1.703-1.547 0-2.797-.64-2.797-1.703 0-1.094 1.25-1.719 2.797-1.719 1.547 0 2.797.625 2.797 1.719zM6-2.891c2.125-.171 3.438-1.296 3.438-2.75 0-1.609-1.547-2.765-4.032-2.765-2.484 0-4.031 1.172-4.031 2.765 0 1.454 1.297 2.579 3.422 2.75v2.22H.234v1h10.344v-1H6zm0 0"/></symbol><symbol overflow="visible" id="s"><path d="M10.578-2.266v-1H.234v1zM9.547 1.438v-1H2.766v-2H1.578v3zm-8.39-5.75H9.64v-1H8.062l.141-2.313h1.203v-.984H1.391v.984h1.218l.141 2.313H1.156zM7.03-7.626l-.14 2.313H3.92l-.155-2.313zm0 0"/></symbol><symbol overflow="visible" id="u"><path d="M6.516-4.188c0-2.375-1.094-3.89-2.797-3.89S.89-6.563.89-4.188C.89-1.828 2.016-.28 3.719-.28c1.703 0 2.797-1.547 2.797-3.906zm3.218 5.86V-8.875H8.563V1.672zM5.36-4.188c0 1.532-.593 2.829-1.64 2.829S2.063-2.656 2.063-4.188c0-1.5.609-2.828 1.656-2.828s1.64 1.313 1.64 2.829zm0 0"/></symbol><symbol overflow="visible" id="v"><path d="M10.578.328V-.688H5.984v-2.578h3.438V-4.28H2.797v-3.985H1.625v5h3.172v2.579H.234V.327zm0 0"/></symbol><symbol overflow="visible" id="w"><path d="M7.625 1.203v-9.828h-1.14v3.766H5.186v-2.922H4.016v2.515H2.203V-7.78H1.047v7.187h4.14v-3.219h1.297v5.016zm2.172.469V-8.875h-1.14V1.672zM4.016-1.61H2.203V-4.25h1.813zm0 0"/></symbol><symbol overflow="visible" id="x"><path d="M9.75-1.234v-7.641H8.594v1.281H6.516v.985h2.078v1.187H6.516v.969h2.078v3.219zm.266 2.671v-1H3.578v-2.28H2.391v3.28zm-2.704-5c-2.53-1.093-2.875-3.203-2.875-4.156v-.86H3.204v.86c0 .953-.094 3.094-2.937 4.469l.812.781c1.266-.656 2.36-1.719 2.734-2.875.422.985 1.72 2.188 2.75 2.64zm0 0"/></symbol><symbol overflow="visible" id="ad"><path d="M5.25-5.828c0 .906-.578 1.64-1.656 1.64-1.047 0-1.64-.734-1.64-1.64 0-.906.593-1.656 1.64-1.656 1.078 0 1.656.75 1.656 1.656zm.656-1.625c-.515-.64-1.328-1.063-2.312-1.063-1.672 0-2.86 1.204-2.86 2.688 0 1.484 1.188 2.687 2.86 2.687 1.031 0 1.875-.453 2.375-1.156h2.593v3.063h1.172v-7.641H8.563v1.422zm.516 2.156c.016-.172.047-.344.047-.531 0-.219-.032-.422-.078-.625h2.171v1.156zM10 1.437v-1H3.484V-2.03H2.328v3.469zm0 0"/></symbol><symbol overflow="visible" id="ae"><path d="M10.578-2.828v-1H8.75c.328-1.14.703-4.016.703-4.453H1.36v1h6.766c-.078 1.093-.39 2.75-.61 3.453H.236v1h4.327v4.5H5.75v-4.5zm0 0"/></symbol><symbol overflow="visible" id="af"><path d="M10.656-5.625v-1.016H9.187v-2.234H8.017v5.547h1.171v-2.297zm-4.64 2v-4.797H4.859v1.563H2.047v-1.563H.875v4.797zm3.406 5.188V.609H3.25v-.796h5.938v-2.641H2.016v.953h5.921v.781H2.016v2.657zM4.859-4.61H2.047v-1.266h2.812zm0 0"/></symbol><symbol overflow="visible" id="ag"><path d="M10.578-4.328v-.984H8.86c.235-.625.547-2.547.594-3.141H1.422v1.015h6.656c-.062.782-.297 1.688-.422 2.125H.234v.985H4.72v1.203h-3.14v.938h6.405v.984H1.578v2.766h7.89V.609H2.86v-.937h6.375v-2.797H5.97v-1.203zm0 0"/></symbol><symbol overflow="visible" id="ah"><path d="M9.953 1.672V-8.875H8.781V1.672zM7.516-1.344c-2-1.125-2.72-2.875-2.72-4.578v-.797h2.345V-7.75H1.156v1.031h2.328v.797c0 1.734-.671 3.64-3.046 5.016l.953.812c1.062-.703 2.296-1.875 2.75-3.281.312 1.094 1.656 2.344 2.562 2.953zm0 0"/></symbol><symbol overflow="visible" id="ai"><path d="M9.86-.766v-8.109H8.687v6H6.25v.953h2.438v1.156zM8.312-3.828v-.985c-.516.11-2.985.329-4.407.329H.625v.984h2.547v1.828h1.172v-1.844c1.218 0 3.11-.156 3.968-.312zm1.796 5.265v-1H3.5v-1.656H2.328v2.657zm-5.89-9.5c1.156 0 1.625.594 1.625 1 0 .391-.469.97-1.61.97-1.125 0-1.625-.579-1.625-.97 0-.406.454-1 1.61-1zm0-.906c-1.782 0-2.75.89-2.75 1.906 0 1.047.953 1.922 2.75 1.922 1.797 0 2.75-.859 2.75-1.921 0-1.032-.922-1.907-2.75-1.907zm0 0"/></symbol><symbol overflow="visible" id="aq"><path d="M5.469-2.766v-1.062H4.437v1.062zm0 0"/></symbol><symbol overflow="visible" id="z"><path d="M4.953-4.5c-.656 0-1.187.547-1.187 1.219a1.19 1.19 0 0 0 1.187 1.203 1.19 1.19 0 0 0 1.188-1.203c0-.672-.532-1.219-1.188-1.219zm0 0"/></symbol><symbol overflow="visible" id="A"><path d="M8.078-8.125v9.656h.531v-9.656zm-6.406 1.75H5v5.266H1.672zm-.547-.438v6.141h4.422v-6.14zm0 0"/></symbol><symbol overflow="visible" id="B"><path d="M6.078-7.906v9h.547v-4.625h1.61V1.53h.546v-9.656h-.547v4.156H6.625v-3.937zM5.656-.844v-.422c-.968.141-2.172.266-3.5.266H1.5v-2.563h2.969v-3.421H.953v.437h2.969V-4H.969v3.438h.969c1.5 0 2.828-.125 3.718-.282zm0 0"/></symbol><symbol overflow="visible" id="C"><path d="M4-6.984c1.313 0 2.031.859 2.031 1.859C6.031-4.109 5.313-3.25 4-3.25c-1.297 0-2.016-.86-2.016-1.875 0-1 .72-1.86 2.016-1.86zm0-.47c-1.516 0-2.594 1.048-2.594 2.329 0 1.297 1.078 2.344 2.594 2.344 1.516 0 2.594-1.047 2.594-2.344 0-1.281-1.078-2.328-2.594-2.328zm4.39-.671v9.656h.547v-9.656zM8.032-.953v-.453c-.75.14-2.656.25-3.797.281-1.109.031-2.968.016-3.484.016v.453c.656 0 2.188.015 3.5-.031C5.375-.72 7.328-.845 8.031-.954zm0 0"/></symbol><symbol overflow="visible" id="D"><path d="M3.688-5.047c1.218 0 1.874.516 1.874 1.14 0 .641-.656 1.11-1.875 1.11-1.203 0-1.874-.469-1.874-1.11 0-.624.671-1.14 1.875-1.14zm0-.406c-1.532 0-2.438.687-2.438 1.562s.906 1.547 2.438 1.547c1.515 0 2.453-.672 2.453-1.547 0-.875-.922-1.562-2.454-1.562zM.75-6.547v.438h5.89v-.438zm1.172 5.25v.438h6.016v2.39h.53v-2.828zm6.531-3.531h1.5v-.438h-1.5v-2.859h-.547v6.188h.547zm-6.375-3.14v.437h3.11v-.438zm0 0"/></symbol><symbol overflow="visible" id="F"><path d="M1.563-1.094v2.407h7.156V.875H2.094v-1.969zm3.765-1.25h4.36v-.453H.217v.453h4.579v2.235h.531zM9-3.906c-.984 0-3.75-1.188-3.75-2.11v-.234h3.266v-.438H1.437v.438h3.22v.234c-.063.97-2.454 1.97-3.75 2.125l.343.407c.688-.125 2.86-.75 3.719-1.97.875 1.141 2.797 1.845 3.687 1.954zM3.125-8.125v.438h3.656v-.438zm0 0"/></symbol><symbol overflow="visible" id="G"><path d="M6.453-5.61H4.906v.454h1.547v2.375H4.766v.437h1.687v3.438H7v-9h-.547zm1.938-2.515v9.656h.546v-9.656zm-4.157 1.75C4.11-3.672 2.578-1.735.61-.547l.47.344c1.859-1.156 3.64-3.328 3.765-6.61H1.25v.438zm0 0"/></symbol><symbol overflow="visible" id="H"><path d="M7.328-6.328h-.531l-.203 3.125H3.297l-.203-3.125h-.547l.203 3.125H1.156v.453h3.516v2.438H.203v.437h9.469v-.438H5.203V-2.75H8.72v-.453H7.125zm-5.922-.328H8.47v-.438H1.406zm0 0"/></symbol><symbol overflow="visible" id="I"><path d="M2.797-1.266h5.36v2.25h-5.36zm5.89 2.688v-3.125H2.266v3.125zm-.5-7.219H6.142v.438h2.046v3.046h.532v-5.812h-.531zm-1.015 2.64v-.452c-.797.156-2.14.312-4.672.312h-.922v-1.75H5.5v-2.547H1.031v.438H4.97v1.672H1.03v2.625h1.625c2.61 0 3.906-.157 4.516-.297zm0 0"/></symbol><symbol overflow="visible" id="J"><path d="M9.688-3.61v-.437H7.905c.078-.234.563-2.875.657-3.562H1.405v.437h6.516c-.125 1.125-.469 2.703-.563 3.125H.22v.438h4.343v2.296h-3.14v.438h6.39v2.406h.532v-2.843H5.109V-3.61zm0 0"/></symbol><symbol overflow="visible" id="K"><path d="M6.625-4.406H4.797v.437h1.828v5.063h.547v-9h-.547zm1.938-3.719v9.656h.53v-9.656zM2.796-6.422v1.234C2.797-2.53.953-.968.328-.5l.453.328c.453-.36 1.766-1.516 2.297-3.469.406 1.766 1.953 3 2.25 3.204l.36-.391c-.36-.203-2.344-1.625-2.344-4.36v-1.234H5.25v-.437H.86v.437zm0 0"/></symbol><symbol overflow="visible" id="N"><path d="M6.828-5.047c-.203-.844-1.203-2.375-3.14-2.375-2.016 0-3.329 1.703-3.329 4.016C.36-1.078 1.672.625 3.688.625c2 0 2.874-1.563 3.078-2.375H6.28A2.648 2.648 0 0 1 3.688.172C2 .172.874-1.36.874-3.406c0-2.016 1.14-3.563 2.813-3.563 1.546 0 2.39 1.125 2.624 1.922zm0 0"/></symbol><symbol overflow="visible" id="O"><path d="M2.86-5.344C1.25-5.344.296-4.016.296-2.359c0 1.64.953 3 2.562 3 1.579 0 2.579-1.36 2.579-3 0-1.657-1-2.985-2.579-2.985zm0 5.532C1.624.188.78-.938.78-2.36c0-1.438.844-2.547 2.078-2.547 1.22 0 2.079 1.11 2.079 2.547 0 1.421-.86 2.546-2.079 2.546zm0 0"/></symbol><symbol overflow="visible" id="P"><path d="M5.25.406v-3.719c0-1.187-.86-2.03-1.969-2.03-1.031 0-1.734.452-2.125 1.077l-.015-.859H.67V.406h.47v-3.61c0-.718.843-1.687 2-1.687.953 0 1.625.657 1.625 1.672V.406zm0 0"/></symbol><symbol overflow="visible" id="Q"><path d="M5.281-5.125h-.484l.016 1.11C4.5-4.86 3.609-5.345 2.719-5.345 1.25-5.344.297-4.219.297-2.625c0 1.594.953 2.75 2.422 2.75.89 0 1.672-.438 2.062-1.297l.016.984c0 1.079-.734 1.907-1.875 1.907-1.125 0-1.828-.703-1.938-1.39H.531c.11.734.797 1.843 2.375 1.843 1.406 0 2.375-1.016 2.375-2.36zm-2.5 4.828C1.562-.297.797-1.28.797-2.625c0-1.344.765-2.281 1.984-2.281 1.235 0 2.016.937 2.016 2.281S4.016-.297 2.78-.297zm0 0"/></symbol><symbol overflow="visible" id="R"><path d="M3.266-5.328c-.25-.016-.797.047-1.188.25-.36.187-.687.547-.937.844v-.891H.67V.406h.47v-3.312c0-.89.328-1.266.953-1.703.375-.266.89-.266 1.172-.266zm0 0"/></symbol><symbol overflow="visible" id="S"><path d="M5.406-2.344c.047-1.86-1.14-3.031-2.562-3.031-1.563 0-2.547 1.36-2.547 2.984 0 1.657.984 3 2.547 3.016 1.36.016 2.078-.906 2.328-1.64l-.5-.016C4.453-.36 3.875.187 2.844.187 1.859.188.78-.827.766-2.328zm-4.625-.39c.016-1.235.969-2.22 2.063-2.204 1.031 0 2.047.891 2.062 2.204zm0 0"/></symbol><symbol overflow="visible" id="T"><path d="M3.703-2.36c-.469-.203-1.14-.25-1.61-.406C1.75-2.89.829-3.187.876-3.844c.047-.765.797-1.094 1.656-1.094 1.016 0 1.703.657 1.703 1.375h.485C4.766-4.28 4-5.39 2.547-5.39c-1.39 0-2.078.813-2.125 1.563-.063.734.687 1.14 1.234 1.344.469.187 1.188.234 1.688.406.547.203 1.172.547 1.078 1.172C4.312-.125 3.375.219 2.609.219c-.937 0-2-.438-1.968-1.453H.17C.126-.422.798.672 2.642.656 4 .641 4.766-.125 4.875-.938c.094-.828-.672-1.218-1.172-1.421zm0 0"/></symbol><symbol overflow="visible" id="U"><path d="M4.969-3.61c.515-.218 1.078-.921.953-2-.11-.906-.844-1.624-2.172-1.624H.672V.422h3c1.625 0 2.5-.813 2.578-2 .11-1.172-.813-1.828-1.281-2.031zm-1.11-.171H1.141v-3.047h2.718c1.125 0 1.641.75 1.641 1.531 0 .734-.453 1.516-1.64 1.516zM3.938.016H1.14v-3.391h2.828c.984 0 1.812.625 1.812 1.625 0 1.063-.765 1.766-1.843 1.766zm0 0"/></symbol><symbol overflow="visible" id="V"><path d="M1.25-6.484v-.735H.562v.735zM1.156.422v-5.734H.672V.421zm0 0"/></symbol><symbol overflow="visible" id="W"><path d="M6.453-3.266H.11v.375h6.344zm0 0"/></symbol><symbol overflow="visible" id="X"><path d="M6.938-7.219h-.454l-3 7.063L.47-7.22H.016L3.234.421h.485zm0 0"/></symbol><symbol overflow="visible" id="Y"><path d="M2.031-4.828v-.422l-.781.016v-1.688H.766v1.688L.094-5.25v.422h.672v4.172c0 .312.015.547.156.719.094.171.297.359.547.359h.453V.016c-.172 0-.39.046-.547-.11-.156-.125-.125-.297-.125-.594v-4.14zm0 0"/></symbol><symbol overflow="visible" id="Z"><path d="M5.14.438v-5.563h-.484v3.61c0 .702-.828 1.687-1.984 1.687C1.719.172 1.047-.5 1.047-1.5v-3.625h-.5v3.703c0 1.188.86 2.047 1.969 2.047 1.03 0 1.75-.438 2.14-1.031v.844zm0 0"/></symbol><symbol overflow="visible" id="aa"><path d="M7.719.406v-3.828c0-.953-.61-1.922-1.657-1.922-1.062 0-1.671.735-1.859 1.047-.187-.516-.719-1.047-1.422-1.047-.719 0-1.312.39-1.656.938v-.719H.672V.406h.469V-3.25c0-.844.656-1.656 1.578-1.656.844 0 1.234.718 1.234 1.656L3.97.406h.453V-3.25c0-.922.656-1.656 1.578-1.656.844 0 1.234.718 1.234 1.656V.406zm0 0"/></symbol><symbol overflow="visible" id="ab"><path d="M3.203-5.344c-.875 0-1.687.547-2.062 1.297v-1.078H.67v7.328h.47V-.703A2.256 2.256 0 0 0 3.203.625c1.485 0 2.453-1.313 2.453-2.984 0-1.657-.968-2.985-2.453-2.985zM3.125.188c-1.219 0-2-1.141-2-2.547 0-1.422.781-2.563 2-2.563 1.234 0 2.016 1.14 2.016 2.563C5.14-.953 4.359.187 3.125.187zm0 0"/></symbol><symbol overflow="visible" id="ac"><path d="M6.625.594L5.453-.72c.406-.562.688-1.672.766-2.39h-.485a4.578 4.578 0 0 1-.593 2.015C4.89-1.39 3.53-2.89 2.984-3.53c.516-.266 1.797-.735 1.954-1.922.125-.984-.625-1.86-1.782-1.86-1.203 0-1.937.782-1.89 1.782.03.672.53 1.343.968 1.843C1.47-3.25.36-2.546.344-1.39.297.047 1.484.797 2.688.797c.828 0 1.78-.438 2.453-1.11l.796.907zM2.672-3.891c-.375-.421-.906-1.046-.938-1.625-.03-.625.391-1.359 1.438-1.359.828 0 1.375.656 1.265 1.422-.125.875-1.03 1.219-1.765 1.562zm0 4.235C1.656.344.766-.312.782-1.328c.03-1.094 1.046-1.578 1.765-1.984L4.828-.688C4.344-.109 3.484.345 2.672.345zm0 0"/></symbol><symbol overflow="visible" id="aj"><path d="M6.516-1.938v3.47h.53v-3.47h2.641v-.453H.22v.454h2.687v3.359h.531v-3.36zM8.53-5.858c0-1.141-1.406-2-3.578-2-2.172 0-3.578.859-3.578 2 0 1.14 1.406 2 3.578 2 2.172 0 3.578-.86 3.578-2zm-.562 0c0 .937-1.39 1.53-3.016 1.53-1.64 0-3.031-.593-3.031-1.53 0-.954 1.39-1.516 3.031-1.516 1.625 0 3.016.563 3.016 1.516zm0 0"/></symbol><symbol overflow="visible" id="ak"><path d="M5.078-1.547c1.625 0 2.797.547 2.797 1.453 0 .875-1.172 1.407-2.797 1.407C3.406 1.313 2.25.78 2.25-.095c0-.906 1.156-1.453 2.828-1.453zm-.016-.437c-2.203 0-3.39.78-3.39 1.875 0 1.093 1.187 1.859 3.39 1.859 2.22 0 3.375-.766 3.375-1.86 0-1.093-1.156-1.874-3.374-1.874zm3.172-3.141H9.75v-.469H8.234v-2.531h-.53v5.938h.53zM1.5-6.969h3.328v3.235H1.5zm-.531-.453v4.125h4.406v-4.125zm0 0"/></symbol><symbol overflow="visible" id="al"><path d="M2.203-1.422v2.734h6.578V.875H2.75v-2.297zm6.25-3.187h1.5v-.438h-1.5v-3.078h-.547v7.25h.547zm-4.765-.407c1.218 0 1.874.625 1.874 1.25s-.656 1.22-1.875 1.22c-1.203 0-1.874-.595-1.874-1.22s.671-1.25 1.875-1.25zm0-.421c-1.532 0-2.438.796-2.438 1.687 0 .875.906 1.656 2.438 1.656 1.515 0 2.453-.781 2.453-1.656 0-.89-.922-1.688-2.454-1.688zM.75-6.516v.438h5.89v-.438zm1.328-1.453v.438h3.125v-.438zm0 0"/></symbol><symbol overflow="visible" id="am"><path d="M5.25-5.344c0 1.078-.703 1.922-1.984 1.922-1.25 0-1.97-.844-1.97-1.922 0-1.078.72-1.922 1.97-1.922 1.28 0 1.984.844 1.984 1.922zm.266-1.203C5.094-7.28 4.28-7.78 3.266-7.78 1.78-7.781.703-6.688.703-5.344c0 1.36 1.078 2.438 2.563 2.438.968 0 1.765-.453 2.203-1.14h2.765v2.952h.547v-7.031h-.547v1.578zM5.687-4.5c.094-.25.141-.547.141-.844 0-.265-.031-.515-.11-.765h2.516V-4.5zm3.36 5.813V.875H2.859v-2.516h-.546v2.954zm0 0"/></symbol><symbol overflow="visible" id="an"><path d="M9.688-2.813v-.437H7.859c.235-1.39.422-2.422.61-4.219H1.406v.438H7.86a47.93 47.93 0 0 1-.546 3.781H.218v.438h4.25V1.53H5v-4.343zm0 0"/></symbol><symbol overflow="visible" id="ao"><path d="M1.406-5.672h3.438v1.734H1.406zM.86-7.688V-3.5h4.516v-4.188h-.531v1.563H1.406v-1.563zm7.375 2.25H9.75v-.437H8.234v-2.25h-.53v5.047h.53zm.297 6.86V.984h-6v-1.25h5.703v-2.078h-6.25v.438h5.72v1.203h-5.72v2.125zm0 0"/></symbol><symbol overflow="visible" id="ap"><path d="M9.688-4.172v-.437h-1.75c.25-.954.437-1.766.625-3.016H1.405v.438h6.516c-.078.953-.422 2.109-.531 2.578H.219v.437h4.468v1.469H1.563v.437h6.25v1.36h-6.25v2.328h7.11V.984H2.094V-.469h6.25v-2.234H5.219v-1.469zm0 0"/></symbol><symbol overflow="visible" id="ar"><path d="M8.39-8.125v9.656h.547v-9.656zM3.485-6.531v1.062c0 2.5-1.843 4.375-2.953 4.89l.422.376C1.438-.5 3.375-1.984 3.75-4 4.156-1.937 6-.64 6.313-.469l.343-.437c-.484-.25-2.64-1.703-2.64-4.563V-6.53h2.5v-.438H1.062v.438zm0 0"/></symbol><symbol overflow="visible" id="as"><path d="M6.469-6.375c0-.938-1.016-1.781-2.5-1.781-1.469 0-2.5.844-2.5 1.781 0 .922 1.031 1.75 2.5 1.75 1.484 0 2.5-.828 2.5-1.75zM8.844-.437v-7.688h-.547v5.734H5.453v.438h2.844v1.516zm-.969-3.204v-.437c-.5.094-2.906.312-4.078.312H.547v.438h2.578v1.969h.547v-1.985c2.062-.015 3.453-.156 4.203-.297zm1.219 4.954V.875H2.922v-1.86h-.547v2.297zM5.922-6.375c0 .656-.672 1.297-1.953 1.297-1.25 0-1.938-.64-1.938-1.297 0-.672.688-1.297 1.938-1.297 1.281 0 1.953.625 1.953 1.297zm0 0"/></symbol><symbol overflow="visible" id="at"><path d="M9.156 1.422V.984H3.125V-.312h5.828v-2.141H2.547v.437h5.86v1.25H2.577v2.188zm-.765-9.547v5.11h.546v-5.11zm-4.485.828v-.547h-.531v.547c0 2.094-2.203 3.547-2.938 3.844l.407.36c.328-.173 2.203-1.22 2.797-2.985.734 1.703 2.468 2.625 2.796 2.75l.344-.406c-.422-.172-2.875-1.407-2.875-3.563zm0 0"/></symbol><symbol overflow="visible" id="au"><path d="M8.063-.016c0 .797-1.36 1.329-3.11 1.329-1.766 0-3.11-.532-3.11-1.329 0-.828 1.345-1.343 3.11-1.343 1.75 0 3.11.515 3.11 1.343zm.562 0c0-1.03-1.375-1.78-3.672-1.78-2.281 0-3.672.75-3.672 1.78C1.281 1 2.671 1.75 4.953 1.75 7.25 1.75 8.625 1 8.625-.016zm-.656-6.296c0 .796-1.282 1.375-3.032 1.375-1.765 0-2.984-.594-2.984-1.391 0-.813 1.219-1.39 2.984-1.39 1.75 0 3.032.593 3.032 1.405zM7-4.782c.969-.312 1.531-.859 1.531-1.53 0-1.016-1.297-1.844-3.594-1.844-2.28 0-3.546.812-3.546 1.828 0 .672.562 1.25 1.562 1.578v1.625H.22v.438h9.469v-.438H7zm-3.5.157c.422.094.906.125 1.438.125.578 0 1.093-.031 1.515-.14v1.515H3.5zm0 0"/></symbol><symbol overflow="visible" id="av"><path d="M5.344-7.234v-.454H2.328v.454zm1.36 1.53v-.421H1v.422zM9.921-3.5v-.438H8.39v-4.187h-.532v9.656h.532V-3.5zm-2.516 3v-.438c-.781.11-1.468.141-2.547.172-.171.016-.484.016-.718.016v-1.188c1.265-.078 2.125-.734 2.125-1.515 0-.813-.985-1.516-2.407-1.516-1.421 0-2.312.672-2.312 1.516 0 .797.781 1.437 2.047 1.515v1.204H.53v.437L4.86-.313C5.938-.343 6.656-.421 7.406-.5zM5.734-3.453c0 .61-.718 1.062-1.843 1.062-1.11 0-1.86-.468-1.86-1.062 0-.61.75-1.094 1.828-1.094 1.141 0 1.875.5 1.875 1.094zm0 0"/></symbol><symbol overflow="visible" id="aw"><path d="M2.531-1.64v2.952h6.703V.875H3.063v-2.516zm5.922-6.485v7.031h.531v-7.031zM4.031-6.969h2.297v-.437H1.234v.437H3.5v.438c0 2.437-2.344 3.625-2.828 3.843l.39.376c.282-.141 2.204-1.204 2.72-2.844.562 1.61 2.343 2.468 2.577 2.562L6.703-3c-1.422-.688-2.672-1.75-2.672-3.531zm0 0"/></symbol><symbol overflow="visible" id="ax"><path d="M8.844 1.422v-3.766h-.531v1.25H2.905v-1.25h-.531v3.766zM2.906-.641h5.406V.984H2.907zm5.39-7.484v5.219h.532v-5.219zM5.704-5.578c0-1.234-1.016-2.25-2.484-2.25-1.469 0-2.485 1-2.485 2.25C.734-4.344 1.75-3.36 3.22-3.36c1.469 0 2.484-.985 2.484-2.22zm-.594 0c0 .937-.656 1.719-1.89 1.719-1.219 0-1.89-.782-1.89-1.72 0-.937.655-1.718 1.89-1.718 1.25 0 1.89.766 1.89 1.719zm0 0"/></symbol><symbol overflow="visible" id="ay"><path d="M8.64 1.422V.984H2.095V-.234h6.25v-2H1.563v.437h6.25v1.11h-6.25v2.109zm1.047-5.063H.22v.438h9.469zM8.485-6.453c0-.89-1.28-1.703-3.53-1.703-2.235 0-3.532.75-3.532 1.703 0 .953 1.297 1.734 3.531 1.734 2.25 0 3.531-.781 3.531-1.734zm-.562 0c0 .734-1.281 1.281-2.969 1.281-1.719 0-2.969-.547-2.969-1.281 0-.75 1.25-1.266 2.97-1.266 1.687 0 2.968.516 2.968 1.266zm0 0"/></symbol><symbol overflow="visible" id="az"><path d="M8.297-8.125v9.656h.531v-9.656zm-1.89 2.344c0-1.078-1.032-2.094-2.5-2.094-1.47 0-2.5 1.016-2.5 2.094 0 1.093 1.03 2.093 2.5 2.093 1.468 0 2.5-1 2.5-2.093zm-.516 0c0 .812-.72 1.625-1.985 1.625-1.265 0-1.969-.813-1.969-1.625 0-.797.704-1.61 1.97-1.61 1.265 0 1.984.813 1.984 1.61zm1.968 3.39v-.421c-.468.093-2.625.296-3.984.296H.641v.438h2.875v3.39h.53v-3.406c1.345 0 3.063-.156 3.813-.297zm0 0"/></symbol><symbol overflow="visible" id="aA"><path d="M8.844 1.422v-3.344H2.375v3.344zM2.906-1.484h5.406V.984H2.907zm5.39-6.641v5.547h.532v-5.547zm-2.562 2.61c0-1.266-1.015-2.266-2.515-2.266-1.5 0-2.516 1-2.516 2.265 0 1.282 1.016 2.25 2.516 2.25s2.515-.968 2.515-2.25zm-.593 0c0 .984-.657 1.765-1.922 1.765-1.266 0-1.922-.781-1.922-1.766 0-.968.656-1.75 1.922-1.75 1.265 0 1.922.782 1.922 1.75zm0 0"/></symbol><symbol overflow="visible" id="aB"><path d="M5.344-1.547c1.625 0 2.828.547 2.828 1.453 0 .875-1.203 1.407-2.828 1.407-1.657 0-2.86-.532-2.86-1.407 0-.906 1.204-1.453 2.86-1.453zm-.016-.437c-2.203 0-3.406.78-3.406 1.875 0 1.093 1.203 1.859 3.406 1.859 2.219 0 3.406-.766 3.406-1.86 0-1.093-1.187-1.874-3.406-1.874zm3.016-3.063h1.5v-.437h-1.5v-2.641h-.531v5.938h.53zm-4.61-1.781v-.969h-.53v.969c0 2.094-2.048 3.562-2.985 3.969L.64-2.5c.328-.172 2.14-1.14 2.828-3.11.719 1.704 2.297 2.563 2.922 2.86l.343-.406c-.906-.375-3-1.64-3-3.672zm0 0"/></symbol><symbol overflow="visible" id="aC"><path d="M1.61-7.031h3.343v2.797H1.61zm-.532-.438v3.672h4.406v-3.672zm7.11-.656v5.547h.53v-5.547zM7.062-2.328v-.438H3.61v.438zM9.11 1.109C8.063 1.094 5.703.156 5.656-.906v-.11h3.219v-.453H1.859v.453h3.22v.11c-.063 1.062-2.423 2-3.47 2.015l.375.422c1.188-.11 2.844-.89 3.375-1.765.532.875 2.204 1.656 3.375 1.765zm0 0"/></symbol><symbol overflow="visible" id="aD"><path d="M10.766 1.563V.765H3.578v-2.829h-.953v3.626zm-.313-2.875V-9.61h-.937v1.546h-3.11C5.86-8.75 4.984-9.219 3.922-9.219 2.125-9.219.859-7.953.859-6.375c0 1.578 1.266 2.828 3.063 2.828 1.125 0 2.062-.5 2.594-1.297h3v3.532zm-.937-4.329H6.859c.079-.234.11-.468.11-.734 0-.313-.047-.61-.14-.89h2.687zM3.922-8.344c1.328 0 2.062.875 2.062 1.969S5.25-4.406 3.922-4.406c-1.328 0-2.063-.875-2.063-1.969s.735-1.969 2.063-1.969zm0 0"/></symbol><symbol overflow="visible" id="aE"><path d="M11.453-3.188V-4H9.375c.063-.328.266-1.281.39-2.125.172-1 .344-2.344.36-2.766H1.562v.797h7.485C8.922-6.797 8.547-4.656 8.39-4H.25v.813h4.86v5h.952v-5zm0 0"/></symbol><symbol overflow="visible" id="aF"><path d="M7.656-1.266c-.547-.28-1.265-.828-1.937-1.718-.688-.907-1.094-2.266-1.094-3.454v-1.046h2.75v-.829H.922v.829h2.687v1.046c0 1.204-.484 2.594-1.156 3.563C1.828-1.969.922-1.265.234-.828l.75.656c.625-.406 1.36-1.031 2.079-2 .624-.812.953-1.64 1.062-2.015.11.39.453 1.265 1.11 2.078A7.121 7.121 0 0 0 7.03-.5zm4.188-2.843v-.844h-1.828V-9.61h-.954V1.812h.954v-5.921zm0 0"/></symbol><symbol overflow="visible" id="aG"><path d="M11.453.297V-.5h-5.14v-2.453H9.89v-5.922h-.954v2.063H2.766v-2.063h-.954v5.922h3.532V-.5H.25v.797zM8.938-3.75H2.766v-2.281h6.171zm0 0"/></symbol><symbol overflow="visible" id="aH"><path d="M6.797-8.766H1.39v.797h4.296A5.053 5.053 0 0 1 3.86-4.875 10.398 10.398 0 0 1 .61-3.047l.657.625c.953-.36 2.046-.844 3.437-2.062C5.891-5.547 6.687-7.25 6.797-8.766zm3.625 7.454V-9.61h-.953v3.593H7.03v.813H9.47v3.89zm.375 2.875V.75H3.578v-2.719h-.953v3.532zm0 0"/></symbol><symbol overflow="visible" id="aI"><path d="M7.734-6.063c0-1.53-1.28-2.796-3.109-2.796-1.813 0-3.094 1.265-3.094 2.796 0 1.532 1.282 2.797 3.094 2.797 1.828 0 3.11-1.265 3.11-2.796zm2.907 7.875V-9.608h-.97V1.812zM9.234-.89v-.828c-.984.14-3.046.25-4.703.282l-3.703.015v.813l3.656-.016C6-.656 8.422-.781 9.234-.891zm-2.5-5.171c0 1.078-.75 1.968-2.109 1.968-1.36 0-2.125-.89-2.125-1.968 0-1.063.766-1.97 2.125-1.97 1.36 0 2.11.907 2.11 1.97zm0 0"/></symbol><symbol overflow="visible" id="aJ"><path d="M11.453.39v-.812h-3.25v-2.11h1.938v-.812H2.78v-1.844h6.906v-3.484H1.814v.797H8.75v1.89H1.844v3.454h1.812v2.11H.25V.39zM7.25-.421H4.61v-2.11h2.64zm0 0"/></symbol><symbol overflow="visible" id="aK"><path d="M6.797-8.25H1.516v.797h4.203c-.11.969-.532 2.516-1.532 3.906C3.297-2.328 1.954-1.375.845-.812l.719.593c1.28-.672 2.421-1.578 3.515-3.047 1.11-1.5 1.625-3.53 1.719-4.984zM10.5 1.813V-9.61h-.953V1.812zm0 0"/></symbol><symbol overflow="visible" id="aL"><path d="M7.313-8.89H1.171v.796h5.094c-.079 1.281-.422 3.14-.454 3.25h.938c.016-.031.156-.672.328-1.718.094-.657.188-1.5.234-2.329zM11.625-5v-.797h-1.64v-3.812H9.03v8.5h.953V-5zM8.578-3.156v-.797c-1.14.172-3.781.36-4.75.36v-2.673h-.953v2.672H.344v.797h1.64c2.735 0 4.61-.125 6.594-.36zm1.828 4.719V.75H3.328v-2.484h-.937v3.296zm0 0"/></symbol><symbol overflow="visible" id="aM"><path d="M6.547-.656V-8.5h-.938v2.844H2.016V-8.5h-.938v7.844zm5.047-3.547v-.844H9.766v-4.562h-.954V1.812h.954v-6.015zm-5.985 2.75H2.016v-3.39h3.593zm0 0"/></symbol><symbol overflow="visible" id="aN"><path d="M6.844-4.516c0-2.546-1.14-4.203-2.907-4.203-1.78 0-2.921 1.656-2.921 4.203 0 2.532 1.14 4.188 2.921 4.188C5.704-.328 6.845-2 6.845-4.516zm3.578 6.329V-9.61h-.953V1.812zM5.906-4.532c0 1.812-.687 3.343-1.968 3.343-1.25 0-1.97-1.515-1.97-3.343 0-1.797.72-3.313 1.97-3.313 1.28 0 1.968 1.516 1.968 3.313zm0 0"/></symbol><symbol overflow="visible" id="aO"><path d="M11.453.422v-.813H6.328v-2.64C8.734-3.187 10.141-4.47 10.141-6c0-1.656-1.625-2.969-4.297-2.969-2.672 0-4.282 1.313-4.282 2.969 0 1.531 1.407 2.813 3.813 2.953V-.39H.25v.813zm-5.61-8.547c1.829 0 3.282.844 3.282 2.125 0 1.266-1.438 2.125-3.281 2.125-1.813 0-3.266-.86-3.266-2.125 0-1.281 1.438-2.125 3.266-2.125zm0 0"/></symbol><symbol overflow="visible" id="aP"><path d="M10.875 1.563V.75H3.469v-2.547H2.53v3.36zm-2.75-3.016v-7.953h-.922v2.687h-1.64v-2.343h-.954v2.109H2v-2.11h-.938v5.907h4.5v-2.719h1.641v4.422zm2.422.266V-9.61h-.938v8.421zM4.609-3.954H2v-2.172h2.61zm0 0"/></symbol><symbol overflow="visible" id="aQ"><path d="M6.234-8.125v-.797H2.578v.797zm4.407 9.938V-9.61h-.954v4.921H7.172v.829h2.516v5.671zM8.016-.97c-.5-.234-1.141-.687-1.907-1.515-.734-.782-1.203-1.86-1.203-2.985v-.375H7.61v-.812H1.203v.812h2.703v.375c0 1-.39 2.047-1.062 2.89C2.14-1.686 1.063-.983.578-.733l.735.703c.5-.281 1.312-.922 1.937-1.594.594-.656 1-1.39 1.156-1.89.188.484.547 1.109 1.078 1.703C6.141-1.047 7-.454 7.406-.234zm0 0"/></symbol><symbol overflow="visible" id="aR"><path d="M2.953-6.39v-4.141h2.688c1.593 0 2.375.531 2.375 2.015 0 1.579-.766 2.125-2.313 2.125zm0 6.171v-4.718h3.031c1.516 0 2.61.609 2.61 2.265 0 1.61-.89 2.453-2.36 2.453zM1.172-12.047V1.328h5.047c2.64 0 4.187-1.547 4.187-3.906 0-1.969-1.125-2.844-2.203-3.281.75-.375 1.64-1.11 1.64-2.875 0-1.813-1.218-3.313-3.546-3.313zm0 0"/></symbol><symbol overflow="visible" id="aS"><path d="M1.234-12.047V1.328h1.844v-13.375zm0 0"/></symbol><symbol overflow="visible" id="aT"><path d="M.234-.14v1.468h9.454V-.266H2.452L9.688-10.53v-1.516H.765v1.61h6.656zm0 0"/></symbol><symbol overflow="visible" id="aV"><path d="M6.906-1.172l-3.25-10.875H1.172V1.328h1.703V-9.125l3.11 10.453h1.812l3.047-10.375V1.328h1.734v-13.375h-2.484zm0 0"/></symbol><symbol overflow="visible" id="aW"><path d="M6.344-12.375C2.734-12.375.53-9.5.53-5.297s2.203 7.031 5.813 7.031 5.843-2.828 5.843-7.03c0-4.204-2.234-7.079-5.843-7.079zm0 1.578c2.312 0 3.906 2.266 3.906 5.485 0 3.187-1.594 5.437-3.906 5.437-2.313 0-3.89-2.25-3.89-5.438 0-3.406 1.405-5.484 3.89-5.484zm0 0"/></symbol><symbol overflow="visible" id="aX"><path d="M3-.219V-10.5h2.688c2.828 0 3.515 2.656 3.515 4.953 0 3.172-1.015 5.328-3.5 5.328zM1.172-12.047V1.328h4.844c3.562 0 5.046-3.047 5.046-6.89 0-3.657-1.75-6.485-5.03-6.485zm0 0"/></symbol><symbol overflow="visible" id="aY"><path d="M1.172-12.047V1.328h8.844V-.266H2.953v-4.546H9.36v-1.532H2.953v-4.062h6.953v-1.64zm0 0"/></symbol><symbol overflow="visible" id="aZ"><path d="M1.172-12.047V1.328H8.89V-.266H2.984v-11.78zm0 0"/></symbol><symbol overflow="visible" id="ba"><path d="M1.406-10.156v2.36H3.86v-2.36zm0 7.594v2.374H3.86v-2.374zm0 0"/></symbol><symbol overflow="visible" id="bb"><path d="M2.969-12.047h-1.86v7.5c0 4.047 1.313 6.219 4.72 6.219 3.484 0 4.734-2.172 4.734-6.219v-7.5H8.719v8.266c0 2.297-.703 3.906-2.953 3.906-1.97 0-2.797-1.594-2.797-3.906zm0 0"/></symbol><symbol overflow="visible" id="bc"><path d="M9.813-12.047H.092v1.61h3.938V1.328h1.86v-11.765h3.921zm0 0"/></symbol><symbol overflow="visible" id="bd"><path d="M.672-2.984C.64-.078 2.437 1.719 5.406 1.719c2.719 0 4.813-1.235 4.813-4.14 0-1.907-1.047-3.032-3.031-3.548L5.546-6.39c-2.078-.546-2.734-.843-2.734-2.187 0-1.281.921-2.235 2.484-2.235 1.875 0 2.75 1.094 2.828 2.688h1.734c.079-2.75-1.875-4.266-4.5-4.266-2.687 0-4.296 1.688-4.296 4.125 0 1.985 1.218 2.813 3.39 3.375l1.594.407c1.5.39 2.375.875 2.375 2.359C8.422-.453 7.016.188 5.516.188c-2.157 0-3.063-1.266-3.11-3.172zm0 0"/></symbol><symbol overflow="visible" id="be"><path d="M8.938-1.61L3.28-12.046h-2.11V1.328h1.75V-9.094l5.75 10.422h2v-13.375H8.939zm0 0"/></symbol><symbol overflow="visible" id="bf"><path d="M1.172-12.047V1.328h1.812v-5.656h3.532c2.343 0 3.593-1.578 3.593-3.89 0-2.282-1.39-3.829-3.593-3.829zm4.844 6.203H2.984V-10.5h3.032c1.5 0 2.25.64 2.25 2.297 0 1.469-.704 2.36-2.25 2.36zm0 0"/></symbol><symbol overflow="visible" id="bg"><path d="M4.578-12.047L.172 1.328h1.86l1.296-4.016h4.344l1.187 4.016h1.97L6.593-12.047zm.938 2.39l1.64 5.5H3.75zm0 0"/></symbol><symbol overflow="visible" id="bh"><path d="M4.875 3.344C3.203.28 2.547-2.47 2.547-5.094c0-2.593.656-5.36 2.328-8.406H3.531C2.406-11.703.75-8.937.75-5.094c0 3.875 1.656 6.61 2.781 8.438zm0 0"/></symbol><symbol overflow="visible" id="bi"><path d="M2.86-11.578H1.062v7.219c0 3.89 1.265 5.968 4.546 5.968 3.344 0 4.547-2.078 4.547-5.968v-7.22H8.375v7.938c0 2.22-.656 3.766-2.844 3.766-1.875 0-2.672-1.531-2.672-3.766zm0 0"/></symbol><symbol overflow="visible" id="bj"><path d="M2.703-7.156v-.953H1.016v9.39h1.75V-3.64c0-2.062.703-3.234 2.156-3.234 1.016 0 1.36 1 1.36 2.234v5.922h1.765v-6.015c0-1.97-.5-3.579-2.844-3.579-1.094 0-1.875.454-2.5 1.157zm0 0"/></symbol><symbol overflow="visible" id="bk"><path d="M1.047-8.047v9.328H2.78v-9.328zm0-3.531v1.781H2.78v-1.781zm0 0"/></symbol><symbol overflow="visible" id="bl"><path d="M4.156-1.11l-1.984-7H.187l3.016 9.391h1.86l3.062-9.39H6.25zm0 0"/></symbol><symbol overflow="visible" id="bm"><path d="M.672-3.25c0 3.172 1.719 4.89 3.875 4.89 2.312 0 3.594-1.437 3.922-3.312H6.75C6.5-.516 5.703.25 4.672.25 3.328.25 2.594-.938 2.547-2.922h6.047c.015-.453-.016-.922-.031-1.375-.11-2.484-1.75-4.078-3.766-4.078C2.469-8.375.672-6.5.672-3.25zm1.922-.922c.015-1.469.922-2.812 2.094-2.812 1.39 0 2.093 1.453 2.109 2.812zm0 0"/></symbol><symbol overflow="visible" id="bn"><path d="M2.734-7.031V-8.11H1.047v9.39h1.75v-5.39c0-1.954 1.344-2.86 2.61-2.375V-8.22c-1.032-.187-1.845.031-2.673 1.188zm0 0"/></symbol><symbol overflow="visible" id="bo"><path d="M.64-1.672C.704.36 1.89 1.625 4.235 1.625c2.282 0 3.532-1.234 3.532-3.063 0-1.687-1.11-2.187-2.907-2.687l-.921-.25c-.704-.203-1.282-.469-1.282-1.375 0-.766.61-1.25 1.39-1.25 1.298 0 1.704.828 1.782 1.594h1.656c.016-1.469-.953-2.938-3.343-2.938-2.079 0-3.25 1.266-3.25 2.985 0 1.406 1 1.968 2.546 2.421l1.079.329c1.078.296 1.53.578 1.53 1.359 0 1.063-.765 1.563-1.75 1.563C3 .313 2.407-.36 2.345-1.673zm0 0"/></symbol><symbol overflow="visible" id="bp"><path d="M4.14-2.89L5-3c.516-.078 1-.188 1.188-.297v1.078C6.188-.813 5.266.25 3.828.25c-.656 0-1.281-.484-1.281-1.469 0-1.093.64-1.531 1.594-1.672zm-.687-1.204C1.734-3.844.734-2.734.734-1.187c0 1.546 1.047 2.78 2.766 2.78 1.234 0 2.297-.546 2.813-1.155.187 1.046 1.312 1.296 2.515.843V.078c-.765.266-.89.156-.89-.422v-5.375c0-1.765-1.532-2.61-3.438-2.61-1.953 0-3.328 1.11-3.36 3.095h1.673C2.874-6.172 3.359-7 4.484-7c1.047 0 1.735.484 1.735 1.531 0 .703-.157 1.016-.563 1.063zm0 0"/></symbol><symbol overflow="visible" id="bq"><path d="M1.047-11.578v12.86H2.78v-12.86zm0 0"/></symbol><symbol overflow="visible" id="bs"><path d="M9.422-11.578H.078v1.547h3.797V1.28h1.781V-10.03h3.766zm0 0"/></symbol><symbol overflow="visible" id="bt"><path d="M.625-3.156c0 2.89 1.469 4.703 3.703 4.703C6.781 1.547 7.781-.047 8-2.031H6.281C6.141-.937 5.578.203 4.438.203c-1.188 0-1.97-1.219-1.97-3.344 0-2 .641-3.828 2.063-3.828 1.11 0 1.594.922 1.75 2.032H8C7.828-7.11 6.656-8.376 4.531-8.376c-2.61 0-3.906 2.266-3.906 5.219zm0 0"/></symbol><symbol overflow="visible" id="bu"><path d="M2.766-7.266v-4.359h-1.75V1.281h1.75v-4.968c0-2.36 1.015-3.22 2.062-3.22 1.063 0 1.438.704 1.438 2.266v5.922h1.78v-6.015c0-2.625-1.124-3.594-2.937-3.594-.984 0-1.796.453-2.343 1.062zm0 0"/></symbol><symbol overflow="visible" id="bv"><path d="M6.094-11.89C2.625-11.89.516-9.14.516-5.095c0 4.047 2.109 6.766 5.578 6.766 3.468 0 5.625-2.719 5.625-6.766 0-4.047-2.156-6.797-5.625-6.797zm0 1.515c2.234 0 3.75 2.172 3.75 5.266 0 3.078-1.516 5.234-3.75 5.234-2.219 0-3.735-2.156-3.735-5.234 0-3.266 1.344-5.266 3.735-5.266zm0 0"/></symbol><symbol overflow="visible" id="bw"><path d="M6.531-7.25c-.515-.563-1.437-1-2.281-1C1.844-8.25.64-6 .64-3.266c0 3.25 1.454 4.657 3.485 4.657 1.11 0 1.86-.344 2.328-.891-.016 2.156-.312 3.438-2.125 3.438-1.031 0-1.578-.5-1.672-1.485H.891c.062 1.953 1.656 2.781 3.406 2.781 2.922 0 3.86-1.718 3.86-4.718V-8H6.53zm-2.047.375c1.297 0 2.047 1.375 2.047 3.516 0 2.14-.75 3.5-2.047 3.5-1.28 0-2.078-1.36-2.078-3.5 0-2.141.797-3.516 2.078-3.516zm0 0"/></symbol><symbol overflow="visible" id="bx"><path d="M.5.078v1.203h7.219V-.14H2.703l4.86-6.718v-1.25H.843v1.421H5.36zm0 0"/></symbol><symbol overflow="visible" id="by"><path d="M1.844-13.5H.53C2.187-10.453 2.86-7.687 2.86-5.078c0 2.61-.671 5.36-2.328 8.422h1.313C2.969 1.53 4.64-1.234 4.64-5.078c0-3.86-1.672-6.61-2.797-8.422zm0 0"/></symbol><symbol overflow="visible" id="bz"><path d="M1.906-2.063v-11.89h8.344v11.89zm1.89-1.687h4.548v-8.516H3.797zM13.5 2.797V-15.61h1.922V2.797zm0 0"/></symbol><symbol overflow="visible" id="bA"><path d="M16.172 2.797h-1.875V-7.281h-2.031V1.89H10.39v-17.125h1.875V-9h2.03v-6.61h1.876zM1.359-1.86v-7.063h4.922v-3.515H1.36v-1.626h6.735v6.72H3.172v3.874h1c.84 0 1.672-.02 2.484-.062.82-.051 1.645-.145 2.469-.281l.188 1.593c-1.43.242-3.34.36-5.735.36zm0 0"/></symbol><symbol overflow="visible" id="bB"><path d="M6.672-5.516c-.742 0-1.402-.109-1.984-.328a4.777 4.777 0 0 1-1.5-.906 3.876 3.876 0 0 1-.938-1.281 3.555 3.555 0 0 1-.328-1.5v-.906c0-.52.11-1.02.328-1.5.215-.477.531-.907.938-1.282a4.674 4.674 0 0 1 1.5-.89c.582-.227 1.242-.344 1.984-.344.726 0 1.383.117 1.969.344.582.218 1.078.52 1.484.89.414.375.734.805.953 1.281.215.481.328.981.328 1.5v.907c0 .523-.113 1.023-.328 1.5-.219.48-.539.91-.953 1.281-.406.375-.902.68-1.484.906-.586.219-1.243.328-1.97.328zm0-1.718c.394 0 .77-.063 1.125-.188.351-.133.66-.312.922-.531a2.3 2.3 0 0 0 .625-.766c.152-.3.234-.61.234-.922v-.687c0-.332-.082-.645-.234-.938a2.19 2.19 0 0 0-.625-.765 3.063 3.063 0 0 0-.922-.516 3.468 3.468 0 0 0-1.125-.187c-.418 0-.805.066-1.156.187-.344.125-.653.3-.922.516a2.19 2.19 0 0 0-.61.765 2.042 2.042 0 0 0-.218.938v.687c0 .313.07.621.218.922a2.3 2.3 0 0 0 .61.766c.27.219.578.398.922.531.351.125.738.188 1.156.188zm6.14 5.718c-.812.086-1.648.16-2.5.22-.855.054-1.757.1-2.703.14-.949.043-1.964.074-3.046.093a164.83 164.83 0 0 1-3.516.032V-2.75c1.277 0 2.453-.004 3.516-.016 1.058-.02 2.054-.046 2.984-.078.933-.027 1.816-.07 2.64-.125a105.98 105.98 0 0 0 2.438-.203zm.922 4.313V-15.61h1.907V2.797zm0 0"/></symbol><symbol overflow="visible" id="bC"><path d="M5.969-4.438c-.73 0-1.356-.085-1.875-.265-.524-.184-.95-.426-1.282-.719-.335-.3-.59-.633-.765-1a2.746 2.746 0 0 1-.25-1.14v-.641c0-.383.082-.766.25-1.14.176-.372.43-.708.765-1 .333-.302.758-.54 1.282-.72.52-.183 1.144-.28 1.875-.28.707 0 1.328.097 1.86.28.526.188.96.43 1.296.72a2.9 2.9 0 0 1 .75 1.015c.176.375.266.754.266 1.125v.64c0 .387-.09.77-.266 1.141-.168.367-.418.7-.75 1-.336.293-.77.535-1.297.719-.531.18-1.152.266-1.86.266zM3.422-3.171h11.297v6.14h-1.906v-4.452H3.421zm13.844-5.89h-2.547v4.921h-1.89v-11.468h1.89v4.828h2.547zm-6.188-2.954H.828v-1.656h4.188v-2.187h1.906v2.187h4.156zm-5.11 6c.384 0 .723-.046 1.016-.14.301-.102.547-.227.735-.375.195-.153.343-.332.437-.532.102-.207.156-.41.156-.609v-.437c0-.196-.054-.395-.156-.594a1.547 1.547 0 0 0-.437-.531A2.226 2.226 0 0 0 7-9.61a3.146 3.146 0 0 0-1.031-.157c-.407 0-.758.055-1.047.157a2.401 2.401 0 0 0-.719.375c-.2.156-.348.336-.437.53-.094.2-.141.4-.141.595v.437c0 .2.047.402.14.61.09.199.239.378.438.53.195.15.442.274.734.376.301.093.645.14 1.032.14zm0 0"/></symbol><symbol overflow="visible" id="bD"><path d="M5.438-14.953c.738 0 1.382.129 1.937.375.559.25 1.031.582 1.406.984.383.406.672.867.86 1.375.183.5.28 1.004.28 1.5v1.016c0 .492-.097.992-.28 1.5-.188.5-.477.957-.86 1.36a4.405 4.405 0 0 1-1.406 1c-.555.25-1.2.374-1.938.374-.73 0-1.378-.125-1.937-.375a4.539 4.539 0 0 1-1.406-1 4.025 4.025 0 0 1-.844-1.36 4.311 4.311 0 0 1-.281-1.5v-1.015c0-.496.094-1 .281-1.5.184-.508.469-.969.844-1.375a4.437 4.437 0 0 1 1.406-.984c.559-.246 1.207-.375 1.938-.375zM13.655-2.47V-7.03h-2.812V-8.72h2.812v-2.75h-2.812v-1.687h2.812v-2.453h1.875v13.14zM6.296.875h9.673v1.719H4.375v-6.11h1.922zm-.859-8.078a2.67 2.67 0 0 0 1.141-.234 2.73 2.73 0 0 0 .828-.61c.227-.246.399-.535.516-.86.113-.32.172-.64.172-.952v-.704c0-.32-.059-.64-.172-.953a2.456 2.456 0 0 0-.516-.843 2.55 2.55 0 0 0-.828-.61 2.563 2.563 0 0 0-1.14-.25c-.418 0-.793.086-1.125.25a2.662 2.662 0 0 0-.844.61 2.48 2.48 0 0 0-.5.843 2.7 2.7 0 0 0-.172.954v.703c0 .312.055.632.172.953.113.324.281.613.5.86.226.241.508.444.844.608a2.61 2.61 0 0 0 1.125.235zm0 0"/></symbol><symbol overflow="visible" id="bE"><path d="M17.016-6.188v1.672H9.78v7.313H7.844v-7.313H.625v-1.671h11.422A25.95 25.95 0 0 0 12.484-9c.082-.883.125-1.77.125-2.656v-1.078H2.672v-1.75h11.86v2.359c0 .96-.052 1.941-.141 2.938-.086 1-.223 2.003-.407 3zm0 0"/></symbol><symbol overflow="visible" id="bF"><path d="M16.172 2.797h-1.875v-10.14h-2.031V1.89H10.39v-17.125h1.875v6.171h2.03v-6.546h1.876zM5.156-6.172c-.062.2-.176.41-.328.625-.148.219-.316.45-.5.688-.398.48-.836.992-1.312 1.53a49.88 49.88 0 0 1-1.485 1.61L.234-3.062A37.683 37.683 0 0 0 1.86-4.72c.496-.55.957-1.11 1.375-1.672.383-.52.641-1.03.766-1.53.133-.509.203-1.052.203-1.626v-2.64H1.141v-1.657h7.796v1.656H6.063v2.641c0 .574.07 1.113.218 1.61.153.492.426.992.813 1.5.414.554.843 1.074 1.281 1.562a29.14 29.14 0 0 0 1.531 1.594L8.61-1.953a57.187 57.187 0 0 1-1.421-1.484A31.32 31.32 0 0 1 5.984-4.86a10.346 10.346 0 0 1-.5-.688 2.225 2.225 0 0 1-.312-.625zm0 0"/></symbol><symbol overflow="visible" id="bG"><path d="M11.39-6.094a39.35 39.35 0 0 1-1.921.219c-.594.055-1.258.102-1.985.14-.718.032-1.558.055-2.515.063-.95.012-2.121.016-3.516.016v-8.766H9.72v1.703h-6.39v5.375c.995 0 1.843-.004 2.53-.015.684-.02 1.317-.04 1.891-.063.57-.027 1.117-.066 1.64-.11.528-.05 1.133-.116 1.813-.202zm5.876-3.015h-2.547v6.64h-1.89v-13.14h1.89v4.78h2.547zM5.734.875h9.47v1.719H3.811v-6.11h1.922zm0 0"/></symbol><symbol overflow="visible" id="bI"><path d="M13.5 2.797V-15.61h1.922V2.797zM1.922-2.031v-12.094h1.89v4.36h4.516v-4.36h1.906v12.094zm1.89-1.703h4.516v-4.36H3.813zm0 0"/></symbol><symbol overflow="visible" id="bJ"><path d="M2.656-12.266v-1.718h12.328v1.718H9.86v1.22c0 .28.02.542.063.78.05.23.144.461.281.688.133.219.328.45.578.687.258.23.598.473 1.016.72.371.241.719.456 1.031.64.32.187.633.379.938.562.308.18.632.364.968.547.332.18.704.383 1.11.61l-.89 1.562c-.407-.227-.79-.438-1.142-.625-.343-.195-.68-.383-1-.563a146.23 146.23 0 0 1-.921-.546 18.612 18.612 0 0 1-.938-.579c-.648-.425-1.144-.785-1.484-1.078-.336-.3-.555-.535-.656-.703-.106.188-.333.434-.672.735-.336.293-.825.652-1.47 1.078-.667.43-1.32.824-1.952 1.187-.625.367-1.309.754-2.047 1.157L1.75-5.75c.426-.238.82-.457 1.188-.656a37.9 37.9 0 0 0 1.03-.578c.321-.196.63-.383.923-.563.3-.183.609-.379.921-.578.395-.246.72-.488.97-.719.257-.238.456-.472.593-.703.145-.238.242-.476.297-.719.05-.238.078-.5.078-.78v-1.22zm14.36 10.922V.344H.625v-1.688zm0 0"/></symbol><symbol overflow="visible" id="bK"><path d="M14.672-5.313h-4.89v3.97h7.234V.343H.625v-1.688h7.219v-3.968H2.969v-8.782h11.703zM4.859-6.984h7.907v-5.438H4.859zm0 0"/></symbol><symbol overflow="visible" id="bL"><path d="M4.422 2.922v-5h9.531v-1.719H4.328v-1.64h11.485v4.953H6.28V1.28h9.969v1.64zm2.828-14.89h3.39v-3.407h1.813v8.969h-1.812v-3.875H7.25zm6.719-3.641h1.844v9.234h-1.844zM8.14-13.094H3.17v4.39H4.25c.414 0 .816-.003 1.203-.015.395-.02.781-.039 1.156-.062.371-.028.754-.067 1.141-.11a32.7 32.7 0 0 0 1.266-.156l.187 1.594c-.5.086-.973.152-1.406.203-.43.055-.856.098-1.281.125-.418.023-.84.043-1.266.063-.43.011-.895.015-1.39.015H1.312v-7.703H8.14zm0 0"/></symbol><symbol overflow="visible" id="bM"><path d="M8.813-8.969c-.106.23-.352.52-.735.86-.375.343-.894.73-1.547 1.156-.574.375-1.18.762-1.812 1.156a78.5 78.5 0 0 1-2.157 1.281L1.61-6.078c.77-.434 1.477-.848 2.125-1.234.645-.383 1.29-.801 1.938-1.25a9.313 9.313 0 0 0 1.078-.876c.29-.277.516-.57.672-.874.164-.31.273-.649.328-1.016.059-.363.094-.797.094-1.297v-1.797H9.78v1.797c0 .5.024.934.078 1.297.051.367.16.707.329 1.015.164.313.406.618.718.907.309.293.735.62 1.266.984.601.406 1.207.793 1.812 1.156.614.356 1.301.746 2.063 1.172l-.938 1.547L13-5.797c-.688-.402-1.32-.8-1.89-1.187A15.262 15.262 0 0 1 9.562-8.11c-.387-.34-.633-.63-.735-.86zm8.203 7.625V.344H.625v-1.688h7.219v-3.953h1.922v3.953zm0 0"/></symbol><symbol overflow="visible" id="bN"><path d="M16.14 2.797h-1.874V-7.47h-2.157v9.36h-1.875v-17.125h1.875v6.046h2.157v-6.421h1.875zM6.22-12.125H1.266v-1.688h6.828v3.75c0 .594-.028 1.145-.078 1.641-.055.492-.153.961-.297 1.406a5.29 5.29 0 0 1-.657 1.313c-.28.418-.66.863-1.125 1.328-.46.46-1.027.957-1.703 1.484-.68.532-1.48 1.118-2.406 1.75L.75-2.67a36.58 36.58 0 0 0 2.297-1.642c.621-.488 1.14-.94 1.547-1.359.414-.426.734-.828.953-1.203.215-.383.375-.758.469-1.125.09-.363.148-.738.171-1.125.02-.395.032-.82.032-1.281zm0 0"/></symbol></defs><g fill="#393536"><use xlink:href="#a" x="42.468" y="48.426"/><use xlink:href="#a" x="48.041" y="48.426"/><use xlink:href="#b" x="53.614" y="48.426"/></g><g fill="#231f20"><use xlink:href="#c" x="74.885" y="47.727"/><use xlink:href="#d" x="82.886" y="47.727"/><use xlink:href="#e" x="85.492" y="47.727"/><use xlink:href="#f" x="88.099" y="47.727"/><use xlink:href="#g" x="96.1" y="47.727"/><use xlink:href="#h" x="104.1" y="47.727"/><use xlink:href="#i" x="112.1" y="47.727"/><use xlink:href="#e" x="120.1" y="47.727"/><use xlink:href="#j" x="122.707" y="47.727"/><use xlink:href="#k" x="130.707" y="47.727"/><use xlink:href="#l" x="138.708" y="47.727"/><use xlink:href="#m" x="146.708" y="47.727"/><use xlink:href="#n" x="154.708" y="47.727"/><use xlink:href="#o" x="162.709" y="47.727"/><use xlink:href="#f" x="170.709" y="47.727"/><use xlink:href="#g" x="178.709" y="47.727"/><use xlink:href="#e" x="186.709" y="47.727"/><use xlink:href="#p" x="189.316" y="47.727"/><use xlink:href="#q" x="197.316" y="47.727"/></g><g fill="#fff"><use xlink:href="#r" x="337.927" y="353.071"/><use xlink:href="#s" x="348.557" y="353.071"/><use xlink:href="#t" x="359.187" y="353.071"/><use xlink:href="#u" x="363.122" y="353.071"/><use xlink:href="#v" x="373.751" y="353.071"/><use xlink:href="#w" x="384.381" y="353.071"/><use xlink:href="#u" x="395.011" y="353.071"/><use xlink:href="#x" x="405.641" y="353.071"/></g><use xlink:href="#y" x="258.347" y="388.503" fill="#231f20"/><use xlink:href="#z" x="262.008" y="388.503" fill="#231f20"/><g fill="#231f20"><use xlink:href="#y" x="271.806" y="388.503"/><use xlink:href="#y" x="275.466" y="388.503"/></g><g fill="#231f20"><use xlink:href="#A" x="279.127" y="388.503"/><use xlink:href="#B" x="288.925" y="388.503"/><use xlink:href="#C" x="298.723" y="388.503"/><use xlink:href="#D" x="308.521" y="388.503"/><use xlink:href="#E" x="318.318" y="388.503"/><use xlink:href="#F" x="321.979" y="388.503"/><use xlink:href="#G" x="331.777" y="388.503"/><use xlink:href="#H" x="341.575" y="388.503"/><use xlink:href="#I" x="351.373" y="388.503"/></g><g fill="#231f20"><use xlink:href="#E" x="258.347" y="403.485"/><use xlink:href="#z" x="262.008" y="403.485"/><use xlink:href="#E" x="271.806" y="403.485"/><use xlink:href="#E" x="275.467" y="403.485"/><use xlink:href="#A" x="279.127" y="403.485"/><use xlink:href="#B" x="288.925" y="403.485"/><use xlink:href="#C" x="298.723" y="403.485"/><use xlink:href="#D" x="308.521" y="403.485"/><use xlink:href="#E" x="318.319" y="403.485"/><use xlink:href="#J" x="321.98" y="403.485"/><use xlink:href="#K" x="331.777" y="403.485"/><use xlink:href="#H" x="341.575" y="403.485"/><use xlink:href="#I" x="351.373" y="403.485"/></g><use xlink:href="#L" x="258.347" y="418.467" fill="#231f20"/><use xlink:href="#z" x="262.192" y="418.467" fill="#231f20"/><g fill="#231f20"><use xlink:href="#L" x="271.99" y="418.467"/><use xlink:href="#L" x="275.836" y="418.467"/></g><g fill="#231f20"><use xlink:href="#A" x="279.681" y="418.467"/><use xlink:href="#B" x="289.479" y="418.467"/><use xlink:href="#C" x="299.276" y="418.467"/><use xlink:href="#D" x="309.074" y="418.467"/></g><use xlink:href="#M" x="318.872" y="418.467" fill="#231f20"/><g fill="#231f20"><use xlink:href="#N" x="322.717" y="418.467"/><use xlink:href="#O" x="329.63" y="418.467"/><use xlink:href="#P" x="335.228" y="418.467"/><use xlink:href="#Q" x="340.956" y="418.467"/><use xlink:href="#R" x="346.771" y="418.467"/><use xlink:href="#S" x="350.044" y="418.467"/><use xlink:href="#T" x="355.642" y="418.467"/><use xlink:href="#T" x="360.595" y="418.467"/></g><use xlink:href="#L" x="258.347" y="433.449" fill="#231f20"/><use xlink:href="#z" x="262.192" y="433.449" fill="#231f20"/><g fill="#231f20"><use xlink:href="#L" x="271.99" y="433.449"/><use xlink:href="#L" x="275.836" y="433.449"/></g><g fill="#231f20"><use xlink:href="#U" x="279.681" y="433.449"/><use xlink:href="#V" x="286.087" y="433.449"/><use xlink:href="#O" x="287.777" y="433.449"/><use xlink:href="#W" x="293.376" y="433.449"/><use xlink:href="#X" x="299.847" y="433.449"/><use xlink:href="#S" x="306.673" y="433.449"/><use xlink:href="#P" x="312.272" y="433.449"/><use xlink:href="#Y" x="318" y="433.449"/><use xlink:href="#Z" x="320.207" y="433.449"/><use xlink:href="#R" x="325.914" y="433.449"/><use xlink:href="#S" x="329.187" y="433.449"/><use xlink:href="#E" x="334.786" y="433.449"/><use xlink:href="#N" x="338.446" y="433.449"/><use xlink:href="#O" x="345.359" y="433.449"/><use xlink:href="#aa" x="350.958" y="433.449"/><use xlink:href="#ab" x="359.14" y="433.449"/><use xlink:href="#S" x="364.965" y="433.449"/><use xlink:href="#Y" x="370.564" y="433.449"/><use xlink:href="#V" x="372.771" y="433.449"/><use xlink:href="#Y" x="374.462" y="433.449"/><use xlink:href="#V" x="376.669" y="433.449"/><use xlink:href="#O" x="378.359" y="433.449"/><use xlink:href="#P" x="383.958" y="433.449"/><use xlink:href="#E" x="389.686" y="433.449"/><use xlink:href="#ac" x="393.347" y="433.449"/><use xlink:href="#E" x="400.119" y="433.449"/><use xlink:href="#N" x="403.78" y="433.449"/><use xlink:href="#O" x="410.692" y="433.449"/><use xlink:href="#P" x="416.291" y="433.449"/><use xlink:href="#Q" x="422.019" y="433.449"/><use xlink:href="#R" x="427.833" y="433.449"/><use xlink:href="#S" x="431.106" y="433.449"/><use xlink:href="#T" x="436.705" y="433.449"/><use xlink:href="#T" x="441.658" y="433.449"/></g><g fill="#fff"><use xlink:href="#ad" x="343.242" y="513.034"/><use xlink:href="#ae" x="353.872" y="513.034"/><use xlink:href="#af" x="364.502" y="513.034"/><use xlink:href="#ag" x="375.132" y="513.034"/><use xlink:href="#t" x="385.761" y="513.034"/><use xlink:href="#ah" x="389.696" y="513.034"/><use xlink:href="#ai" x="400.326" y="513.034"/></g><use xlink:href="#y" x="258.347" y="563.448" fill="#231f20"/><use xlink:href="#z" x="262.008" y="563.448" fill="#231f20"/><g fill="#231f20"><use xlink:href="#y" x="271.806" y="563.448"/><use xlink:href="#y" x="275.466" y="563.448"/></g><g fill="#231f20"><use xlink:href="#aj" x="279.127" y="563.448"/><use xlink:href="#ak" x="288.925" y="563.448"/><use xlink:href="#al" x="298.723" y="563.448"/><use xlink:href="#E" x="308.521" y="563.448"/><use xlink:href="#am" x="312.181" y="563.448"/><use xlink:href="#an" x="321.979" y="563.448"/><use xlink:href="#E" x="331.777" y="563.448"/><use xlink:href="#ao" x="335.438" y="563.448"/><use xlink:href="#ap" x="345.236" y="563.448"/></g><use xlink:href="#aq" x="355.033" y="563.448" fill="#231f20"/><g fill="#231f20"><use xlink:href="#ar" x="364.831" y="563.448"/><use xlink:href="#as" x="374.629" y="563.448"/></g><g fill="#231f20"><use xlink:href="#E" x="258.347" y="578.43"/><use xlink:href="#z" x="262.008" y="578.43"/><use xlink:href="#E" x="271.806" y="578.43"/><use xlink:href="#E" x="275.467" y="578.43"/><use xlink:href="#at" x="279.127" y="578.43"/><use xlink:href="#au" x="288.925" y="578.43"/><use xlink:href="#av" x="298.723" y="578.43"/><use xlink:href="#E" x="308.521" y="578.43"/><use xlink:href="#aw" x="312.182" y="578.43"/><use xlink:href="#ax" x="321.98" y="578.43"/><use xlink:href="#ay" x="331.777" y="578.43"/><use xlink:href="#E" x="341.575" y="578.43"/><use xlink:href="#az" x="345.236" y="578.43"/><use xlink:href="#al" x="355.034" y="578.43"/><use xlink:href="#E" x="364.832" y="578.43"/><use xlink:href="#aA" x="368.493" y="578.43"/><use xlink:href="#aB" x="378.291" y="578.43"/><use xlink:href="#E" x="388.088" y="578.43"/><use xlink:href="#am" x="391.749" y="578.43"/><use xlink:href="#an" x="401.547" y="578.43"/><use xlink:href="#E" x="411.345" y="578.43"/><use xlink:href="#am" x="415.006" y="578.43"/><use xlink:href="#G" x="424.804" y="578.43"/><use xlink:href="#E" x="434.601" y="578.43"/><use xlink:href="#aC" x="438.262" y="578.43"/><use xlink:href="#E" x="448.06" y="578.43"/><use xlink:href="#ar" x="451.721" y="578.43"/><use xlink:href="#as" x="461.519" y="578.43"/></g><g fill="#231f20"><use xlink:href="#aD" x="129.699" y="372.158"/><use xlink:href="#aE" x="141.151" y="372.158"/><use xlink:href="#aF" x="152.603" y="372.158"/></g><path d="M119.395 336.937s-29.961 0-29.961 29.965v2.723s0 29.96 29.96 29.96h56.715s29.965 0 29.965-29.96v-2.723s0-29.965-29.965-29.965zm0 0" fill="none" stroke-width=".28265756999999997" stroke="#4f4c4d"/><g fill="#231f20"><use xlink:href="#aG" x="78.261" y="478.764"/><use xlink:href="#aH" x="89.713" y="478.764"/><use xlink:href="#aI" x="101.165" y="478.764"/><use xlink:href="#aJ" x="112.618" y="478.764"/><use xlink:href="#aK" x="124.07" y="478.764"/><use xlink:href="#aL" x="135.522" y="478.764"/></g><path d="M85.137 443.543s-29.965 0-29.965 29.965v2.722s0 29.965 29.965 29.965h56.715s29.96 0 29.96-29.965v-2.722s0-29.965-29.96-29.965zm0 0" fill="none" stroke-width=".28265756999999997" stroke="#4f4c4d"/><g fill="#231f20"><use xlink:href="#aM" x="118.247" y="585.371"/><use xlink:href="#aN" x="129.699" y="585.371"/><use xlink:href="#aO" x="141.151" y="585.371"/><use xlink:href="#aP" x="152.603" y="585.371"/><use xlink:href="#aQ" x="164.055" y="585.371"/></g><path d="M119.395 550.148s-29.961 0-29.961 29.965v2.723s0 29.965 29.96 29.965h56.715s29.965 0 29.965-29.965v-2.723s0-29.965-29.965-29.965zm0 0" fill="none" stroke-width=".28265756999999997" stroke="#4f4c4d"/><g fill="#231f20"><use xlink:href="#aR" x="117.353" y="187.199"/><use xlink:href="#aS" x="128.314" y="187.199"/><use xlink:href="#aT" x="132.645" y="187.199"/><use xlink:href="#aU" x="142.527" y="187.199"/><use xlink:href="#aV" x="147.831" y="187.199"/><use xlink:href="#aW" x="161.585" y="187.199"/><use xlink:href="#aX" x="174.26" y="187.199"/><use xlink:href="#aY" x="185.91" y="187.199"/><use xlink:href="#aZ" x="196.606" y="187.199"/><use xlink:href="#aU" x="205.587" y="187.199"/><use xlink:href="#ba" x="210.89" y="187.199"/><use xlink:href="#aU" x="216.194" y="187.199"/><use xlink:href="#bb" x="221.497" y="187.199"/><use xlink:href="#bc" x="233.183" y="187.199"/><use xlink:href="#aW" x="243.065" y="187.199"/><use xlink:href="#aU" x="255.741" y="187.199"/><use xlink:href="#aR" x="261.044" y="187.199"/><use xlink:href="#bb" x="272.005" y="187.199"/><use xlink:href="#bd" x="283.69" y="187.199"/><use xlink:href="#aS" x="294.51" y="187.199"/><use xlink:href="#be" x="298.841" y="187.199"/><use xlink:href="#aY" x="310.703" y="187.199"/><use xlink:href="#bd" x="321.399" y="187.199"/><use xlink:href="#bd" x="332.218" y="187.199"/><use xlink:href="#aU" x="343.037" y="187.199"/><use xlink:href="#bf" x="348.341" y="187.199"/><use xlink:href="#aZ" x="359.142" y="187.199"/><use xlink:href="#bg" x="368.123" y="187.199"/><use xlink:href="#be" x="379.083" y="187.199"/></g><g fill="#231f20"><use xlink:href="#bh" x="117.353" y="211.212"/><use xlink:href="#bi" x="122.872" y="211.212"/><use xlink:href="#bj" x="134.095" y="211.212"/><use xlink:href="#bk" x="143.145" y="211.212"/><use xlink:href="#bl" x="146.999" y="211.212"/><use xlink:href="#bm" x="155.336" y="211.212"/><use xlink:href="#bn" x="164.573" y="211.212"/><use xlink:href="#bo" x="170.227" y="211.212"/><use xlink:href="#bp" x="178.564" y="211.212"/><use xlink:href="#bq" x="187.801" y="211.212"/><use xlink:href="#br" x="191.621" y="211.212"/><use xlink:href="#bs" x="196.715" y="211.212"/><use xlink:href="#bm" x="206.206" y="211.212"/><use xlink:href="#bt" x="215.443" y="211.212"/><use xlink:href="#bu" x="223.848" y="211.212"/><use xlink:href="#br" x="232.898" y="211.212"/><use xlink:href="#bv" x="237.992" y="211.212"/><use xlink:href="#bn" x="250.166" y="211.212"/><use xlink:href="#bw" x="255.82" y="211.212"/><use xlink:href="#bp" x="265.04" y="211.212"/><use xlink:href="#bj" x="274.277" y="211.212"/><use xlink:href="#bk" x="283.327" y="211.212"/><use xlink:href="#bx" x="287.181" y="211.212"/><use xlink:href="#bm" x="295.518" y="211.212"/><use xlink:href="#bn" x="304.754" y="211.212"/><use xlink:href="#by" x="310.409" y="211.212"/></g><path d="M117.352 136.484h272.042" fill="none" stroke-width=".299637" stroke="#214099" stroke-miterlimit="10"/><g fill="#214099"><use xlink:href="#bz" x="117.353" y="128.496"/><use xlink:href="#bA" x="135.955" y="128.496"/><use xlink:href="#bB" x="154.556" y="128.496"/><use xlink:href="#bC" x="173.157" y="128.496"/><use xlink:href="#bD" x="191.759" y="128.496"/><use xlink:href="#bE" x="210.36" y="128.496"/><use xlink:href="#bF" x="228.962" y="128.496"/><use xlink:href="#bG" x="247.563" y="128.496"/><use xlink:href="#bH" x="266.164" y="128.496"/><use xlink:href="#bI" x="271.977" y="128.496"/><use xlink:href="#bJ" x="290.579" y="128.496"/><use xlink:href="#bK" x="309.18" y="128.496"/><use xlink:href="#bL" x="327.781" y="128.496"/><use xlink:href="#bH" x="346.383" y="128.496"/><use xlink:href="#bM" x="352.196" y="128.496"/><use xlink:href="#bN" x="370.797" y="128.496"/></g></svg>