<svg xmlns="http://www.w3.org/2000/svg" xmlns:xlink="http://www.w3.org/1999/xlink" width="793.701" height="1058.268" viewBox="0 0 595.276 793.701" version="1.2"><defs><symbol overflow="visible" id="a"><path d="M9.453 1.672v-10.5H8.391v4.047H7.266v-3.813H6.187v9.781h1.079v-4.796H8.39v5.28zM2.5-6.578v.375c0 1.797-.375 3.797-2.344 5.422l.89.719c.845-.782 1.766-2.11 2.032-3.172.25.984 1.266 2.39 1.938 2.906l.78-.766c-1.687-1.39-2.14-3.343-2.14-5.11v-.374h1.672v-1.016H.812v1.016zm0 0"/></symbol><symbol overflow="visible" id="b"><path d="M6.75-3.422v-.984c-.64.125-2.078.234-2.984.25l-1.797.015v-2.984H5.75v-1H.875v5l2.438-.031c1.328-.031 2.78-.156 3.437-.266zm.734-5.406v7.594h1.094v-3.5h1.39v-1h-1.39v-3.094zM8.875 1.437v-1H2.969v-2.53H1.875v3.53zm0 0"/></symbol><symbol overflow="visible" id="c"><path d="M4.594-4.422H2.078V-5.89h2.516zM7.859.562H3.156V-.516H7.86zm1.11.985V-2.61h-1.11V-1.5H3.156v-1.11H2.062v4.157zM5.672-6.516v-1.859H4.594v1.516H2.078v-1.516H.984v4.906h4.688v-2.015H7.89v2.28H9v-5.624H7.89v2.312zm0 0"/></symbol><symbol overflow="visible" id="d"><path d="M9.156-1.234v-7.594H8.062v7.594zm.219 2.671v-1H3.328V-1.89H2.203v3.329zM6.047-5.796c0-1.484-1.11-2.687-2.672-2.687-1.563 0-2.672 1.203-2.672 2.687 0 1.469 1.11 2.672 2.672 2.672 1.563 0 2.672-1.203 2.672-2.672zm-1.125 0c0 .89-.547 1.625-1.547 1.625-.984 0-1.547-.734-1.547-1.625 0-.906.563-1.656 1.547-1.656 1 0 1.547.75 1.547 1.656zm0 0"/></symbol><symbol overflow="visible" id="f"><path d="M8.906 1.672v-10.5H7.812v10.5zM5.86-.562v-7H1.063v7zm-1.078-1H2.156v-4.985h2.625zm0 0"/></symbol><symbol overflow="visible" id="g"><path d="M5.344-.734v-.97c-.438.063-1.438.141-2.14.157H1.936v-2.125H4.47v-4H.829v1H3.39v2H.828v4.14l2-.015c1.078-.031 2.063-.14 2.516-.187zm3.765 2.406v-10.5H8.047v4.047H6.922v-3.813H5.859v9.781h1.063v-4.875h1.125v5.36zm0 0"/></symbol><symbol overflow="visible" id="h"><path d="M9.25 1.672v-10.5H8.156v10.5zm-1.5-2.36v-1.03c-.938.109-2.688.218-4.375.234L.641-1.47v1l2.64-.015C4.781-.5 7.062-.625 7.75-.688zm-3.844-7.53C2.312-8.219 1.172-7 1.172-5.595c0 1.438 1.14 2.64 2.734 2.64s2.735-1.202 2.735-2.64C6.64-7 5.5-8.219 3.906-8.219zm1.61 2.624c0 .89-.594 1.625-1.61 1.625-1.015 0-1.61-.734-1.61-1.625 0-.86.595-1.61 1.61-1.61 1.016 0 1.61.75 1.61 1.61zm0 0"/></symbol><symbol overflow="visible" id="i"><path d="M5.219-7.969v-.906H2v.906zm1.453 1.625v-.922H.547v.922zm3.406 1.422v-1.031H8.703v-2.875H7.625v6.672h1.078v-2.766zM3.61-2.359c1.657 0 2.625-.75 2.625-1.75 0-.985-.937-1.72-2.609-1.72-1.61 0-2.64.735-2.64 1.72 0 1 1.03 1.75 2.624 1.75zm5.11 4.03V-1.5h-7.14v.938h6.015v2.234zM5.063-4.124c0 .516-.47.89-1.438.89-.969 0-1.469-.359-1.469-.874 0-.5.5-.844 1.469-.844.969 0 1.438.328 1.438.828zm0 0"/></symbol><symbol overflow="visible" id="j"><path d="M4.906-5.797c0 .89-.547 1.625-1.547 1.625-.968 0-1.53-.734-1.53-1.625 0-.906.562-1.656 1.53-1.656 1 0 1.547.75 1.547 1.656zm.61-1.625c-.47-.64-1.235-1.062-2.157-1.062-1.562 0-2.671 1.203-2.671 2.687 0 1.469 1.109 2.672 2.671 2.672.97 0 1.766-.453 2.22-1.156H8v3.047h1.11v-7.594H8v1.406zM6-5.282c.016-.155.047-.343.047-.515 0-.219-.031-.422-.078-.625H8v1.14zm3.344 6.72v-1H3.266v-2.454H2.172v3.454zm0 0"/></symbol><symbol overflow="visible" id="k"><path d="M9.89-2.813v-1H8.188c.297-1.124.657-4 .657-4.437H1.28v1h6.313c-.063 1.094-.36 2.734-.563 3.438H.22v1h4.047v4.484h1.109v-4.484zm0 0"/></symbol><symbol overflow="visible" id="l"><path d="M9.234 1.672v-10.5h-1.28v10.5zM5.61-7.468v-1.173H2.5v1.172zm1.297 3.671c-.343-.094-.781-.328-1.297-.734-.453-.36-.671-.657-.843-1.11h2.046v-1.171H1.345v1.171H3.39c-.125.485-.36.813-.86 1.188-.547.437-1.25.687-1.625.812l.813 1.032c.218-.094.812-.297 1.328-.688.5-.36.875-.734 1.047-.984.187.265.437.515.922.89.546.422.953.547 1.171.641zm.735 3.469v-1.188c-.766.125-2.438.22-2.907.22V-3.11H3.422v1.812H.578v1.234H3.36c1.407 0 3.625-.187 4.282-.265zm0 0"/></symbol><symbol overflow="visible" id="m"><path d="M9.188-1.234v-7.594H7.905v7.594zm.218 2.671V.234H3.453v-2.078H2.156v3.282zm-2.578-5.25C6.266-4.03 5.562-4.5 5.016-5.155c-.563-.64-.766-1.485-.766-2.328v-1.063H2.906v1.063c0 .875-.172 1.687-.797 2.484C1.547-4.281.83-3.766.203-3.422l.89.969c.407-.203.97-.594 1.485-1.11.469-.468.781-.906 1-1.328.281.438.578.766.938 1.11.515.469 1.187.875 1.562 1.015zm0 0"/></symbol><symbol overflow="visible" id="n"><path d="M8.969-.203c0-1.188-1.406-2.031-3.922-2.031-2.5 0-3.906.843-3.906 2.03 0 1.173 1.406 2.048 3.906 2.048 2.516 0 3.922-.875 3.922-2.047zm-1.547 0c0 .578-.906.937-2.375.937-1.484 0-2.36-.375-2.36-.953 0-.594.876-.922 2.36-.922 1.469 0 2.375.36 2.375.938zm2.469-2.64v-1.22H5.734v-.968h3.063v-1.203H2.703v-1.094h5.985v-1.203H1.421v3.5h2.953v.968H.219v1.22zm0 0"/></symbol><symbol overflow="visible" id="o"><path d="M9.938-4.047v-1.156H8.624v-1.094h1.313v-1.156H8.624v-1.375H7.344v6.547h1.281v-1.766zM8.905-.094c0-1.14-1.265-1.968-3.703-1.968-2.437 0-3.75.78-3.75 1.921s1.297 2 3.734 2c2.438 0 3.72-.828 3.72-1.953zM7.422-.125c0 .578-.86.922-2.219.922-1.437 0-2.297-.36-2.297-.922 0-.61.844-.906 2.281-.906 1.391 0 2.235.312 2.235.906zm-2.39-7.703v-1.063H1.796v1.063zm1.452 1.594v-1.063H.344v1.063zm-.312 2.03c0-1-1.031-1.64-2.734-1.64-1.641 0-2.782.64-2.782 1.64 0 1 1.172 1.688 2.766 1.688 1.703 0 2.75-.687 2.75-1.687zm-1.344-.015c0 .407-.531.688-1.39.688-.86 0-1.422-.25-1.422-.672 0-.406.562-.625 1.421-.625.86 0 1.391.203 1.391.61zm0 0"/></symbol><symbol overflow="visible" id="p"><path d="M9.89.531V-.672H5.72v-1.984h2.89v-5.61H7.344v1.641H2.766v-1.64H1.5v5.609h2.86v1.984H.218V.531zM7.345-3.875H2.766v-1.531h4.578zm0 0"/></symbol><symbol overflow="visible" id="q"><path d="M8.766-7.719H1.25V-6.5h6.094c-.047 1.547-.547 4.25-.563 4.406h1.25a41.71 41.71 0 0 0 .453-2.687c.141-1 .282-2.282.282-2.938zM9.89.421V-.78H4.75v-3.563H3.453V-.78H.22V.422zm0 0"/></symbol><symbol overflow="visible" id="r"><path d="M9.188 1.672v-10.5H7.905V-5.5H5.97v1.297h1.937v5.875zM6.921-1.344c-.61-.36-1.234-.875-1.828-1.734-.672-.985-.828-2.531-.828-3.438V-8.25H2.937v1.734c0 1.188-.171 2.297-.734 3.313-.484.89-1.187 1.562-2.047 2.156l.969.89c.531-.39.969-.734 1.406-1.265.516-.625.844-1.11 1.078-1.687.235.5.516.937.938 1.453C5.094-1 5.64-.625 6.094-.344zm0 0"/></symbol><symbol overflow="visible" id="t"><path d="M7.5-7.828H6.266L3.75-.906l-2.5-6.922H.016L3.046.703h1.392zm0 0"/></symbol><symbol overflow="visible" id="u"><path d="M3.14-5.688C1.39-5.688.282-4.266.282-2.374.281-.5 1.391.953 3.141.953 4.906.953 6.047-.5 6.047-2.375c0-1.89-1.14-3.313-2.906-3.313zm0 5.47c-.984 0-1.593-.907-1.593-2.157S2.157-4.5 3.14-4.5c.984 0 1.609.875 1.609 2.125S4.125-.219 3.14-.219zm0 0"/></symbol><symbol overflow="visible" id="v"><path d="M1.844.688v-8.516H.672V.687zm0 0"/></symbol><symbol overflow="visible" id="w"><path d="M2.453 1.39V-.327H.797V1.39zm0 0"/></symbol><symbol overflow="visible" id="x"><path d="M3.266.781L3.25-7.922h-.922c-.015.438-.297.875-.562 1.094-.375.297-.829.437-1.344.437v1.063l1.672.016V.78zm0 0"/></symbol><symbol overflow="visible" id="y"><path d="M3.203-8.063c-1.875 0-2.875 1.86-2.875 4.47 0 2.655 1 4.53 2.875 4.53s2.922-1.875 2.922-4.53c0-2.61-1.047-4.47-2.922-4.47zm0 7.813c-1.047 0-1.578-1.438-1.578-3.344 0-1.86.531-3.297 1.578-3.297 1.078 0 1.625 1.438 1.625 3.297 0 1.906-.547 3.344-1.625 3.344zm0 0"/></symbol><symbol overflow="visible" id="z"><path d="M19.469-2.875c0 .844-.278 1.54-.828 2.078-.555.531-1.258.797-2.11.797H6.11C5.266 0 4.57-.266 4.031-.797c-.531-.539-.797-1.234-.797-2.078v-34.75c0-.84.266-1.531.797-2.063.54-.539 1.235-.812 2.078-.812h10.422c.852 0 1.555.273 2.11.813.55.53.828 1.222.828 2.062v9.422h-3.625v-9.11H6.828v34.126h9.016v-9.954h3.625zm0 0"/></symbol><symbol overflow="visible" id="A"><path d="M6.36-13.516H2.436v-4.593H6.36zm0 0"/></symbol><symbol overflow="visible" id="B"><path d="M20.344-2.875c0 .844-.278 1.54-.828 2.078-.543.531-1.239.797-2.078.797H6.108C5.266 0 4.57-.266 4.031-.797c-.531-.539-.797-1.234-.797-2.078v-34.75c0-.84.266-1.531.797-2.063.54-.539 1.235-.812 2.078-.812h11.329c.84 0 1.535.273 2.078.813.55.53.828 1.222.828 2.062zm-3.594-.313v-34.124H6.828v34.124zm0 0"/></symbol><symbol overflow="visible" id="C"><path d="M19.922 0h-2.485L6.626-29.781V0h-3.39v-40.5h2.687l10.61 29.266V-40.5h3.39zm0 0"/></symbol><symbol overflow="visible" id="D"><path d="M17.188-37.313h-6.266V0H7.328v-37.313H1.016V-40.5h16.172zm0 0"/></symbol><symbol overflow="visible" id="E"><path d="M16.531 0H3.234v-40.5h13.141v3.188H6.828v15.109h8.703v3.234H6.828v15.782h9.703zm0 0"/></symbol><symbol overflow="visible" id="F"><path d="M19.016-2.875c0 .844-.27 1.54-.797 2.078-.524.531-1.207.797-2.047.797H5.984C5.13 0 4.43-.266 3.891-.797c-.543-.539-.813-1.234-.813-2.078v-10.266h3.594v9.954h8.75v-9.657L4.25-26.344c-.781-.933-1.172-1.96-1.172-3.078v-8.203c0-.84.27-1.531.813-2.063.539-.539 1.238-.812 2.093-.812h10.188c.84 0 1.523.273 2.047.813.527.53.797 1.222.797 2.062v9.422h-3.594v-9.11h-8.75v8.532l11.234 13.515c.739.899 1.11 1.91 1.11 3.032zm0 0"/></symbol><symbol overflow="visible" id="G"><path d="M4.86-7.797V.61h1.077v-8.406zm0 0"/></symbol><symbol overflow="visible" id="I"><path d="M9.906 1.828V-8.844h-.984v3.922H7.64v-3.75h-.985v9.985h.985V-3.97h1.28v5.797zm-5.984-8V-7.25h1.781v-.844H1.078v.844h1.828v.906c0 1.282-.219 2.36-.64 3.282-.438.921-1.11 1.656-2.032 2.265.313.188.704.406.907.61.484-.36.984-.875 1.406-1.454.39-.546.703-1.156.844-1.734.171.578.468 1.11.828 1.578.39.5.843.938 1.281 1.219.188-.219.484-.469.734-.688a4.399 4.399 0 0 1-1.78-2c-.36-.812-.532-1.78-.532-2.906zm0 0"/></symbol><symbol overflow="visible" id="J"><path d="M8.094-8.844V-1h1.015v-4.36h1.47v-.859h-1.47v-2.625zM7.64-4.53c-.72.156-2.672.39-3.797.39l-1.75.032V-7.5H6.14v-.86H1.125v5.141c.047 0 1.828-.015 2.64-.047 1.407-.03 3.11-.25 3.876-.406zm1.796 6.14V.75H3.234v-2.672h-1V1.61zm0 0"/></symbol><symbol overflow="visible" id="K"><path d="M9.484-3.078v-5.766h-1v2.125H6.172v-1.765h-.953v1.593h-3v-1.593h-.985v4.906h4.938V-5.86h2.312v2.78zM5.22-4.406h-3v-1.64h3zm4.265 6.125V-2.61h-1v1.25H3.406v-1.25H2.391v4.328zm-1-.813H3.406V-.547h5.078zm0 0"/></symbol><symbol overflow="visible" id="L"><path d="M9.484-1v-7.844h-1V-1zM.813-5.89c0 1.53 1.171 2.796 2.828 2.796 1.656 0 2.828-1.265 2.828-2.797 0-1.546-1.172-2.812-2.828-2.812-1.657 0-2.829 1.265-2.829 2.812zm1.015 0c0-1.079.672-1.954 1.813-1.954 1.156 0 1.812.875 1.812 1.953 0 1.079-.656 1.922-1.812 1.922-1.141 0-1.813-.844-1.813-1.922zm7.969 7.5V.75H3.422v-2.656H2.406v3.515zm0 0"/></symbol><symbol overflow="visible" id="M"><path d="M9.39 1.828V-8.844h-1V1.828zM6.25-.875v-7.281H1.297v7.281zm-.984-.86h-2.97v-5.562h2.97zm0 0"/></symbol><symbol overflow="visible" id="N"><path d="M9.61 1.828V-8.844h-.985v3.797H7.328v-3.625h-.984v9.985h.984v-5.407h1.297v5.922zM5.937-1.844c-.454.078-1.579.188-2.313.203l-1.422.016v-2.406h2.89v-4.172H1.22v.844H4.14v2.468H1.219V-.75L3.28-.781C4.344-.797 5.47-.937 5.937-1zm0 0"/></symbol><symbol overflow="visible" id="O"><path d="M9.61 1.828V-8.844h-1V1.828zM1.36-5.844c0 1.469 1.187 2.672 2.843 2.672 1.64 0 2.828-1.203 2.828-2.672 0-1.437-1.187-2.64-2.828-2.64-1.656 0-2.844 1.203-2.844 2.64zm1 0c0-.984.703-1.797 1.843-1.797 1.156 0 1.828.813 1.828 1.797 0 1.016-.672 1.813-1.828 1.813-1.14 0-1.844-.797-1.844-1.813zm5.874 4.032c-.859.14-3.375.328-4.296.359-.438.016-3.094.016-3.141.016v.875c.047 0 2.219.015 2.656 0a38.213 38.213 0 0 0 4.781-.391zm0 0"/></symbol><symbol overflow="visible" id="P"><path d="M10.719-5.094v-.89H9.234v-2.86H8.22V-2h1.015v-3.094zM5.53-8.062v-.813H2.25v.813zm1.516 1.609v-.813H.797v.813zM1.219-4.11c0 .953 1.125 1.75 2.687 1.75 1.672 0 2.703-.782 2.703-1.75 0-.985-1-1.766-2.687-1.766-1.61 0-2.703.781-2.703 1.766zm1.062-.016c0-.594.625-.969 1.64-.969 1.032 0 1.642.36 1.642.969 0 .61-.594 1-1.641 1-1.016 0-1.64-.39-1.64-1zm6.953 6v-3.36H2.078v.844h6.125v2.516zm0 0"/></symbol><symbol overflow="visible" id="Q"><path d="M9.484-1v-7.844h-1v1.25H5.906c-.484-.687-1.297-1.14-2.281-1.14-1.64 0-2.828 1.296-2.828 2.843 0 1.532 1.187 2.813 2.828 2.813 1.016 0 1.86-.485 2.344-1.203h2.515V-1zm-1-4.14h-2.14c.078-.235.125-.5.125-.75 0-.298-.047-.594-.125-.844h2.14zm-6.656-.75c0-1.094.672-1.97 1.797-1.97 1.172 0 1.813.876 1.813 1.97 0 1.062-.641 1.937-1.813 1.937-1.125 0-1.797-.875-1.797-1.938zm7.953 7.5V.75h-6.36v-2.656H2.407v3.515zm0 0"/></symbol><symbol overflow="visible" id="R"><path d="M10.375-2.875v-.86H8.656c.266-1.218.485-3.25.531-4.734H1.532v.86h6.594a23.095 23.095 0 0 1-.516 3.875H.36v.859h4.407v4.703H5.78v-4.703zm0 0"/></symbol><symbol overflow="visible" id="S"><path d="M5.922-7.547v-.86H4.844v.86c0 .938-.469 1.813-1.203 2.531-.735.72-1.766 1.282-2.875 1.625.312.282.593.563.78.797A8.951 8.951 0 0 0 3.829-3.89c.672-.546 1.235-1.218 1.547-1.953.297.719.906 1.438 1.61 2 .734.578 1.53 1 2.234 1.235.187-.25.469-.516.734-.766a6.757 6.757 0 0 1-2.719-1.531c-.78-.75-1.312-1.688-1.312-2.64zM10.375.484v-.859H5.891v-2.688H4.859v2.688H.375v.86zm0 0"/></symbol><symbol overflow="visible" id="T"><path d="M9.594 1.828V-8.844h-.985v3.969H7.281v-3.797h-.984v9.985h.984v-5.235H8.61v5.75zM1.047-8.078v.844H4.03C4-6.016 3.703-4.906 3.156-3.938c-.61 1.11-1.515 2.063-2.765 2.891.25.125.718.406.921.594 1.25-.922 2.25-2.031 2.891-3.469.516-1.14.813-2.515.86-4.156zm0 0"/></symbol><symbol overflow="visible" id="W"><path d="M6.75-7.797V.61h1.078v-8.406zm-3.781 0V.61h1.078v-8.406zm0 0"/></symbol><symbol overflow="visible" id="X"><path d="M9.688-1.875v-6.969H8.671v2.703H6.875v.829h1.797v1.28H6.875v.829h1.797v1.328zM5.5-8.063v-.812H2.25v.813zm1.375 1.61v-.797H.797v.797zM1.219-4.11c0 .968 1 1.75 2.562 1.75 1.656 0 2.735-.782 2.735-1.75 0-1-.985-1.75-2.641-1.75-1.594 0-2.656.765-2.656 1.75zm1.062-.016c0-.594.578-.969 1.594-.969 1.031 0 1.594.36 1.594.969 0 .61-.563 1-1.594 1-1.016 0-1.594-.39-1.594-1zm7.39 6.016v-3.375h-7.28v.843h6.265v2.532zm0 0"/></symbol><symbol overflow="visible" id="aa"><path d="M7.219-7.797V.61h1.093v-8.406zm-4.735 0V.61h1.079v-8.406zm2.375 0V.61h1.079v-8.406zm0 0"/></symbol><symbol overflow="visible" id="ab"><path d="M5.938-7.11v-.312H9.14v-.844H1.609v.844h3.204v.313c0 .953-.454 1.687-1.141 2.28-.766.641-1.813 1.095-2.938 1.407.329.281.563.516.782.766a9.607 9.607 0 0 0 2.312-1.125c.688-.485 1.25-1.063 1.547-1.75.313.718.984 1.36 1.75 1.86a8.118 8.118 0 0 0 2.11 1.015c.25-.266.468-.5.75-.766-1-.25-2.047-.734-2.844-1.406-.704-.61-1.204-1.375-1.204-2.281zM10.375.485v-.859H5.891v-2.594H4.859v2.594H.375v.86zm0 0"/></symbol><symbol overflow="visible" id="ac"><path d="M9.64-2.406v-6.438h-1v6.438zm0 4.297v-3.797H2.39v.86h6.22V1.89zM4.517-7.141V-7.5h2.25v-.86H1.234v.86H3.5v.328c0 .828-.266 1.516-.734 2.11-.579.734-1.422 1.25-2.375 1.64.28.219.656.5.828.672a7.09 7.09 0 0 0 1.734-1.14 4.298 4.298 0 0 0 1.063-1.5 4.549 4.549 0 0 0 1.25 1.406 6.729 6.729 0 0 0 1.546.906c.157-.203.438-.5.688-.719-.844-.281-1.61-.719-2.172-1.344-.5-.562-.812-1.218-.812-2zm0 0"/></symbol><symbol overflow="visible" id="ae"><path d="M1.828-7.797V.61h1.078v-8.406zM6.844.61L9.14-7.797H8.016L6.187-.64 4.345-7.797H3.219L5.53.61zm0 0"/></symbol><symbol overflow="visible" id="ag"><path d="M5.016.938v-.86H1.312c.157-.922.72-1.812 1.282-2.234l.672-.5c.609-.438 1.046-.89 1.218-1.125.422-.563.579-1.219.579-1.906 0-1.438-.766-2.61-2.297-2.61-1.61 0-2.329 1.313-2.329 3.125h.907C1.328-6.406 1.78-7.5 2.75-7.5c.844 0 1.313.703 1.313 1.828 0 .516-.125 1.11-.391 1.438-.235.375-.422.562-.86.89l-.937.719C.828-1.828.297-.391.281.938zm0 0"/></symbol><symbol overflow="visible" id="ah"><path d="M2.672-8.313C1.156-8.313.375-6.516.375-3.546c0 2.953.781 4.719 2.297 4.719 1.531 0 2.344-1.766 2.344-4.719 0-2.969-.829-4.765-2.344-4.765zm0 .829c.875 0 1.39 1.515 1.39 3.937 0 2.39-.515 3.89-1.39 3.89-.86 0-1.36-1.5-1.36-3.89 0-2.422.5-3.937 1.36-3.937zm0 0"/></symbol><symbol overflow="visible" id="ai"><path d="M.875-5.89H2.5V.921h.953V-8.25H2.72C2.594-7.047 2.14-6.5.875-6.453zm0 0"/></symbol><symbol overflow="visible" id="aj"><path d="M9.36-1v-7.844h-.985v.938H5.437v.797h2.938V-6H5.437v.813h2.938V-1zM7.421-4.188c-.703.157-2.578.375-3.719.391l-1.531.016v-4.766h-1v5.64c.062 0 1.766 0 2.562-.015 1.47-.031 2.985-.234 3.688-.406zM9.64 1.61V.75H3.312v-2.438H2.298V1.61zm0 0"/></symbol><symbol overflow="visible" id="ak"><path d="M8-8.844V1.828h1.031v-5.64h1.594v-.891H9.031v-4.14zM4.156-6.25v-2.125H3.11v1.953c0 1.172-.25 2.234-.765 3.156-.531.922-1.313 1.72-2.328 2.344.312.188.671.485.89.672.547-.375 1.14-.953 1.656-1.594.5-.64.907-1.328 1.079-1.968.265.718.703 1.374 1.218 1.968A9.23 9.23 0 0 0 6.391-.516c.187-.203.484-.5.78-.718-1-.594-1.78-1.313-2.312-2.188-.468-.797-.703-1.734-.703-2.828zm0 0"/></symbol><symbol overflow="visible" id="al"><path d="M9.453-3.203v-5.64H8.47v2.359H6.344C6.156-7.797 5.016-8.72 3.594-8.72 2-8.719.813-7.594.813-6.109.813-4.625 2.03-3.5 3.592-3.5c1.376 0 2.5-.875 2.735-2.125h2.14v2.422zM1.813-6.11c0-.97.703-1.75 1.796-1.75 1.079 0 1.766.765 1.766 1.75 0 .968-.688 1.734-1.766 1.734-1.093 0-1.796-.766-1.796-1.734zm7.625 7.828v-4.422h-.97v1.297H3.392v-1.297h-1v4.422zM8.467.89H3.392V-.58h5.078zm0 0"/></symbol><symbol overflow="visible" id="am"><path d="M10.375.484v-.859H5.891v-2.328h3.125v-5.703h-1v1.86H2.719v-1.86h-.985v5.703H4.86v2.328H.375v.86zm-2.36-4.062H2.72v-2.125h5.297zm0 0"/></symbol><symbol overflow="visible" id="an"><path d="M1.547-8.219v.844h6.531c-.062 1.656-.344 3.688-.687 5.453h1.015c.39-1.937.64-4.375.75-6.297zM10.39.484v-.859H5.03v-4.078H4.016v4.078H.375v.86zm0 0"/></symbol><symbol overflow="visible" id="ap"><path d="M6.047.61l2.969-8.407H7.89L5.39-.64 2.906-7.797H1.781L4.734.61zm0 0"/></symbol><symbol overflow="visible" id="ar"><path d="M8.938-7.797H7.859V.61h1.079zM3.827.61h1.297l2.313-8.406H6.313L4.484-.64 2.656-7.797h-1.14zm0 0"/></symbol><symbol overflow="visible" id="as"><path d="M9.906-6.406H8.062v-1.172l.063-1.125-.969-.125.063 1.25v1.172h-1.11v.75h1.11C7.234-3.781 7.062-1.47 5.875.062v-.218l-2.063.125v-.735h2.016v-.656H3.812v-.562h1.876v-3.313H3.813v-.687h2.062v-.641H3.812v-.906c.563-.11 1.36-.266 2.016-.453L5.5-8.625c-1.281.438-3.469.656-4.594.64l.281.673a22.452 22.452 0 0 0 1.829-.125v.812H.594v.64h2.422v.688H1.172v3.313h1.844v.562H.984v.656h2.032v.797L.64.156l.171.75L5.47.531c-.14.125-.313.281-.5.438l.593.687C6.657.546 7.313-.578 7.595-1.719c.343-1.281.39-2.531.422-3.937h1.109v3.453c0 .61.047 2.531-.64 2.797-.329.125-.594.094-1.157.047l.328.89c.407 0 .89-.093 1.188-.218C9.954.89 9.89-1 9.906-1.954v-4.453zm-5 1.703v.766H3.828v-.766zm0 1.375v.765H3.828v-.765zm-1.89-1.375v.766h-1.11v-.766zm0 1.375v.765h-1.11v-.765zm0 0"/></symbol><symbol overflow="visible" id="at"><path d="M.797-4.25h4.687v-.656H3.422v-.875h1.547v-.64H3.422v-.86h1.875v-.625H3.422l.14-.813-1-.11.094.923H.906v.625h1.75v.86H1.125v.64h1.531v.875H.796zm9.078 1.61h.547v-.672h-.547v-1.735H5.781v.672h1.625v1.063H5.313v.671h2.093v1H5.75v.688h1.656V.219c0 .203.016.406-.234.5-.203.094-.547.047-.922-.031.156.437.281.828.313.843.343.032.796.047 1.125-.11.359-.171.437-.546.437-.796V-.953h1.75zm-4.906-.876H1.14v5.157h.703V-.625h2.39v.75c0 .156.016.516-.171.61-.22.109-.438.062-.922-.047l.28.843c.376.032.673.032 1.017-.11.375-.155.53-.515.53-.921zm4.156-.859v1.063h-1v-1.063zm0 1.734v1h-1v-1zm-4.89-.218v1.593h-.813v-1.593zm-1.579 0v1.593h-.812v-1.593zm6.672-2.594c.281-.39.406-.719.75-1.563l-.75-.312c-.187.594-.312 1.078-.64 1.562zm.375-3.094c-1.094.453-2.906.531-4.219.485l.188.656c1.547 0 3.266-.063 4.547-.485zM8.438-5.828c-.22-.422-.376-.875-.626-1.453l-.671.343c.234.547.343.97.609 1.454zm-1.47 0c-.25-.313-.437-.89-.671-1.328l-.625.36c.203.484.406 1.046.672 1.39zm0 0"/></symbol><symbol overflow="visible" id="au"><path d="M4.469-5.266h1.953l.047.75H4.687v.547H6.47v.547H4.812v2.219h1.313C5.719-.61 5.312-.172 4.609.219l.454.578c.656-.39 1-.828 1.406-1.39v1.968h.718V-.672c.344.422.829.906 1.188 1.203l.5-.484c-.469-.281-.984-.844-1.313-1.25h1.344v-2.219H7.187v-.547h1.844v-.547H7.22l.062-.656-.64-.062v-3.25H3.719V1.562h.75zm2 3.485h-.953v-1.063h.953zM6.344-2a7.917 7.917 0 0 1-.25-.719l-.422.14c.062.267.14.454.25.704zm1.86.219H7.186v-1.063h1.016zm-.642-.938a7.917 7.917 0 0 1-.25.719l.422.125c.11-.25.204-.438.266-.703zm-1.625-3.14H4.47v-.75h1.468zm0-1.297H4.47v-.766h1.468zm4.094-1.375h-2.86v3.219h2.11v5.75c0 .374-.062.406-.328.421L8.156.813l.25.718c.078 0 .844-.015 1.078-.11.5-.202.547-.64.547-1.155zm-.75 2.64H7.937v-.718h1.344zm0-1.265H7.937v-.813h1.344zM3.516-3.22c-.407-.703-.547-.937-.86-1.484l-.203.203v-1.016h.969v-.687h-.938v-1.328l.094-1.078-.953-.11.078 1.235v1.28H.437v.688h1.235c-.219 1.407-.64 2.61-1.281 3.688l.64.484c.235-.531.438-.906.64-1.39v4.359h.782v-5.14c.203.328.266.468.485.843zm0 0"/></symbol><symbol overflow="visible" id="av"><path d="M7.703-7.797h-.969V.61h.97zM3.063.61h1.312l1.984-8.406H5.234L3.734-.64 2.22-7.797h-1.14zm6.265-8.406H8.36V.61h.97zm0 0"/></symbol><symbol overflow="visible" id="aw"><path d="M10.375.484v-.859H5.891v-2.688h3.375v-.843H2.703v-3.516h6.453v-.844H1.703v5.204H4.86v2.687H.375v.86zm0 0"/></symbol><symbol overflow="visible" id="ax"><path d="M5.375-4.938c2.422 0 3.828-.812 3.828-1.984 0-1.156-1.406-2-3.828-2-2.39 0-3.828.844-3.828 1.985 0 1.187 1.437 2 3.828 2zm0-.75c-1.64 0-2.766-.5-2.766-1.25 0-.78 1.125-1.218 2.766-1.218 1.594 0 2.75.437 2.75 1.234 0 .75-1.14 1.234-2.75 1.234zm4.984 2.532V-4H.391v.844h4.453v1.312H1.719v3.547H9.03v-3.547h-3.14v-1.312zM8.047.859H2.703V-1h5.344zm0 0"/></symbol><symbol overflow="visible" id="ay"><path d="M5.938-7.61H9.14v-.859H1.609v.86h3.204c-.063.75-.532 1.375-1.235 1.875-.719.5-1.703.859-2.765 1.078.25.234.546.547.75.765.812-.203 1.625-.515 2.328-.968.609-.375 1.14-.875 1.484-1.5.406.734 1.094 1.296 1.828 1.703.688.36 1.406.61 2.016.765.203-.25.422-.5.687-.765-.844-.157-1.765-.469-2.5-.922-.797-.5-1.375-1.172-1.468-2.031zm4.421 5.594v-.843H.391v.843h4.515v3.844h1.032v-3.844zm0 0"/></symbol><symbol overflow="visible" id="az"><path d="M9.5-1v-7.844h-.984V-1zM4.297-7.266v-1.312H3.25v1.328c0 .922-.297 1.703-.797 2.344-.531.703-1.297 1.234-2.172 1.64.266.204.672.516.844.688a6.497 6.497 0 0 0 1.578-1.156c.485-.454.875-1.016 1.078-1.594.297.578.735 1.078 1.235 1.5.484.406 1 .719 1.468.937.172-.218.438-.53.688-.78a4.533 4.533 0 0 1-2.016-1.376c-.515-.61-.86-1.36-.86-2.219zm5.5 8.875V.75H3.469v-2.578H2.438v3.437zm0 0"/></symbol><symbol overflow="visible" id="aA"><path d="M9.063-4.469v-4.265h-1v1.296H2.655v-1.296h-.969v4.265zm-1-.86H2.655v-1.28h5.406zM10.358-2.5v-.86H.391v.86h4.625v2.281H6.03V-2.5zm-.937 4.11V.75H2.703v-2.219H1.72V1.61zm0 0"/></symbol><symbol overflow="visible" id="aB"><path d="M9.172-5.328v-.781H2.703V-7.75h6.344v-.797H1.719v3.219zm1.187 1.766v-.813H.391v.813zm-1.078 5.28V.954H2.812V-.078h6.22v-2.5H1.718v.797h6.234v.953H1.72v2.547zm0 0"/></symbol><symbol overflow="visible" id="aC"><path d="M9.047-5.36v-3.187h-7.36v3.188zm-.985-.78H2.657v-1.61h5.406zm2.297 2.484v-.797H.391v.797h4.453v1.078H1.719v.797h6.234v.953H1.72v2.547H9.28V.953H2.812V-.078h6.22v-2.5H5.874v-1.078zm0 0"/></symbol><symbol overflow="visible" id="aD"><path d="M6.89-7.797h-.968V.61h.969zM2.47.61H3.78L5.61-7.797H4.484L3.125-.64 1.781-7.797H.641zm5.937-8.406h-.969V.61h.97zm1.516 0h-.969V.61h.969zm0 0"/></symbol><symbol overflow="visible" id="aE"><path d="M10.656-5.5v-.86H9.125v-2.484h-1v6.031h1V-5.5zM1.172-8.36v.86h3.86c-.173.938-.641 1.719-1.282 2.36-.813.796-1.938 1.359-3.203 1.718.25.203.562.547.703.75 1.453-.484 2.734-1.25 3.61-2.297a5.874 5.874 0 0 0 1.327-3.39zM9.156 1.704V-2.28h-6.86v3.984zm-1-.828h-4.86v-2.313h4.86zm0 0"/></symbol><symbol overflow="visible" id="aF"><path d="M10.36-4.25v-.844H8.765c.265-1.047.421-2.36.468-3.453H1.547v.844h6.656c-.047.781-.25 1.906-.437 2.61H.39v.843zM9.28 1.719V.906H2.797V-.328H9.03v-2.813H1.72v.829h6.25v1.171h-6.25v2.86zm0 0"/></symbol><symbol overflow="visible" id="aG"><path d="M5.047-9.234H4.03L.25 2.109h1.031zm0 0"/></symbol><symbol overflow="visible" id="aH"><path d="M7.531-7.984v-.813H3.188v.813zm1.953 1.546v-.828H1.25v.829zM1.906-4.296c0 .953 1.422 1.625 3.438 1.625 2.031 0 3.453-.672 3.453-1.625S7.375-5.89 5.344-5.89c-2.032 0-3.438.641-3.438 1.594zm3.438.86c-1.203 0-2.282-.282-2.282-.844 0-.578 1.079-.844 2.282-.844 1.218 0 2.281.266 2.281.844 0 .562-1.063.843-2.281.843zm5.015 2.421v-.859H.391v.86h4.515v2.843h1.032v-2.844zm0 0"/></symbol><symbol overflow="visible" id="aI"><path d="M9.64-.688v-8.156h-1v6.188H6.079v.797h2.563v1.171zM1.61-6.952C1.61-5.906 2.561-5 4.25-5c1.656 0 2.61-.89 2.61-1.953 0-1.016-.923-1.938-2.61-1.938-1.672 0-2.64.922-2.64 1.938zm.952 0c0-.547.532-1.188 1.688-1.188 1.14 0 1.672.641 1.672 1.188 0 .531-.531 1.172-1.672 1.172-1.14 0-1.688-.64-1.688-1.172zm5.672 2.406c-.593.11-2.75.297-4.14.297l-3.36.016v.843H3.22v1.766h.984v-1.797c1.172 0 3.172-.156 4.031-.281zM9.86 1.61V.75H3.516v-1.86H2.484v2.72zm0 0"/></symbol><symbol overflow="visible" id="aJ"><path d="M8.047-8.844V1.828h1v-5.64h1.61v-.891h-1.61v-4.14zM4.328-6.297v-1.031h2.39v-.844H.969v.844h2.313v.875c0 1.219-.281 2.297-.812 3.219-.547.937-1.313 1.703-2.313 2.296.328.22.688.485.906.688A7.291 7.291 0 0 0 2.72-1.86c.5-.624.906-1.296 1.078-1.968.281.719.703 1.39 1.234 1.969.469.515 1 .968 1.547 1.312.188-.203.5-.5.75-.703-1.031-.594-1.797-1.328-2.297-2.203-.468-.813-.703-1.766-.703-2.844zm0 0"/></symbol><symbol overflow="visible" id="aK"><path d="M1.61-7.797V.61h.968v-8.406zM6.14-2.75L8.173.61h1.234L6.75-3.767l2.453-4.03H7.97L6.14-4.782 4.297-7.797H3.078l2.453 4.031L2.86.61h1.235zm0 0"/></symbol><symbol overflow="visible" id="aL"><path d="M9.5 1.828V-8.828H8.484V1.828zm-8.11-10v.86h3.766a7.546 7.546 0 0 1-1.14 3.421C3.25-2.719 2.156-1.75.734-1c.25.156.72.5.907.672 1.515-.938 2.687-2.14 3.453-3.547.718-1.281 1.11-2.734 1.187-4.297zm0 0"/></symbol><symbol overflow="visible" id="aM"><path d="M9.031-3.89v-4.72h-1v1.36H2.703v-1.36H1.72v4.72zm-1-.844H2.703v-1.688h5.328zM10.36-1.72v-.875H.391v.875h4.515v3.547h1.016v-3.547zm0 0"/></symbol><symbol overflow="visible" id="aN"><path d="M10.36-3.719v-.844H8.718c.25-1.078.484-2.796.531-3.968H1.562v.844h6.641c-.062.968-.281 2.375-.469 3.125H.391v.843zM9.03 1.703v-4.016H1.72v4.016zm-1-.86H2.703v-2.312h5.328zm0 0"/></symbol><symbol overflow="visible" id="aO"><path d="M10.36-2.75v-.86H7.671v-1.578c1.016-.375 1.547-.984 1.547-1.671 0-1.141-1.406-2.063-3.86-2.063-2.406 0-3.812.906-3.812 2.031 0 .704.531 1.329 1.562 1.704v1.578H.391v.859zM2.624-6.906c0-.75 1.11-1.25 2.734-1.25 1.625 0 2.766.515 2.766 1.281 0 .734-1.14 1.234-2.766 1.234-1.64 0-2.734-.53-2.734-1.265zM6.688-3.61H4.094v-1.36c.36.078.812.11 1.265.11.485 0 .938-.032 1.329-.11zM1.468.03c0 1.14 1.391 2 3.907 2 2.531 0 3.906-.86 3.906-1.984 0-1.156-1.39-2-3.906-2S1.469-1.125 1.469.03zm1.11 0c0-.781 1.094-1.234 2.797-1.234 1.656 0 2.781.453 2.781 1.25 0 .75-1.125 1.219-2.781 1.219-1.703 0-2.797-.47-2.797-1.235zm0 0"/></symbol><symbol overflow="visible" id="aP"><path d="M9.594 1.828V-8.844h-.985v3.875H7.22v-3.703h-.985v9.985h.985v-5.329h1.39v5.844zM5.75-2.016c-.422.094-1.61.204-2.172.22l-1.25.015v-6.532h-1v7.47c.031 0 1.266 0 1.984-.032a25.794 25.794 0 0 0 2.438-.234zm0 0"/></symbol><symbol overflow="visible" id="aQ"><path d="M9.484-2.578v-6.266H8.47v1.203H5.89c-.516-.64-1.297-1.046-2.266-1.046-1.64 0-2.813 1.203-2.813 2.703 0 1.5 1.172 2.718 2.813 2.718 1.016 0 1.86-.468 2.344-1.171h2.5v1.859zM8.47-5.281h-2.11a2.55 2.55 0 0 0 .094-.703 2.25 2.25 0 0 0-.14-.797h2.156zm-6.625-.703c0-1 .656-1.844 1.797-1.844 1.156 0 1.78.844 1.78 1.844 0 1.015-.624 1.859-1.78 1.859-1.141 0-1.797-.844-1.797-1.86zm7.61 7.875v-3.938h-7.25v.86h6.265V1.89zm0 0"/></symbol><symbol overflow="visible" id="aR"><path d="M9.484-2.828v-6.016h-1v6.016zM6.156-4.094v-4.265H1.234v4.265zm-.953-.797h-3v-2.656h3zM7.61-2.359v-.797H3.938v.797zM6.438-.75h3.109v-.813h-7.39v.813h3.062c-.235.547-.703.938-1.313 1.234-.625.297-1.375.47-2.203.594.188.219.531.547.688.75a7.373 7.373 0 0 0 1.968-.61C4.953.939 5.484.564 5.844.079c.375.5.906.875 1.5 1.172.61.281 1.281.469 1.937.578.11-.172.485-.516.672-.75C9.125.953 8.328.75 7.688.422 7.125.125 6.671-.25 6.438-.75zm0 0"/></symbol><symbol overflow="visible" id="aS"><path d="M8.094-8.844V-1h1v-4.266h1.484v-.89H9.094v-2.688zM.688-5.859c0 1.515 1.187 2.796 2.828 2.796 1.656 0 2.828-1.28 2.828-2.796 0-1.563-1.172-2.813-2.828-2.813-1.641 0-2.829 1.25-2.829 2.813zm1.03 0c0-1.094.673-1.954 1.798-1.954 1.156 0 1.812.86 1.812 1.954 0 1.062-.656 1.921-1.812 1.921-1.125 0-1.797-.859-1.797-1.921zm7.72 7.468V.75H3.234v-2.64h-1v3.5zm0 0"/></symbol><symbol overflow="visible" id="U"><path d="M3.031.234c.457 0 .86-.16 1.203-.468.352-.32.63-.676.829-1.063.195-.371.332-.77.406-1.187a6.43 6.43 0 0 0 .125-1.25c0-.434-.043-.868-.125-1.297A4.419 4.419 0 0 0 5.03-6.25a3.391 3.391 0 0 0-.828-1 1.8 1.8 0 0 0-1.187-.438c-.899 0-1.559.477-1.985 1.422-.43.95-.64 1.793-.64 2.532 0 .742.21 1.59.64 2.546.426.95 1.094 1.422 2 1.422zm0-.312c-.793 0-1.277-.469-1.453-1.406-.18-.934-.266-1.688-.266-2.25 0-.57.086-1.329.266-2.266.176-.934.66-1.406 1.453-1.406.383 0 .688.144.906.422.215.28.38.59.485.921.113.368.187.754.219 1.157.027.406.046.8.046 1.172 0 .336-.019.699-.046 1.093a5.364 5.364 0 0 1-.172 1.079c-.094.343-.258.68-.485 1-.218.324-.539.484-.953.484zm0 0"/></symbol><symbol overflow="visible" id="V"><path d="M4.86-8.797a8.8 8.8 0 0 0-1.673.89 7.23 7.23 0 0 0-1.406 1.25c-.398.47-.73.989-1 1.548a4.09 4.09 0 0 0-.39 1.765c0 .793.234 1.586.703 2.375C1.559-.176 2.242.22 3.14.22c.757 0 1.359-.285 1.796-.86.446-.582.672-1.222.672-1.921 0-.614-.183-1.188-.546-1.72-.356-.527-.88-.796-1.563-.796-.188 0-.379.035-.563.094a1.37 1.37 0 0 0-.5.265 2.231 2.231 0 0 0-.187.172c-.074.074-.11.149-.11.219 0 .031.005.066.016.094.02.023.047.03.078.03.07 0 .172-.081.297-.25.121-.163.352-.25.688-.25.226 0 .43.06.61.173.175.117.331.261.468.437.164.25.281.535.344.844a4.324 4.324 0 0 1 0 1.797c-.063.273-.18.535-.344.781a1.977 1.977 0 0 1-.469.469c-.18.117-.387.172-.625.172-.73 0-1.238-.395-1.515-1.188-.274-.8-.407-1.484-.407-2.047 0-.652.098-1.265.297-1.828a5.333 5.333 0 0 1 .922-1.61c.32-.401.734-.788 1.234-1.155a6.316 6.316 0 0 1 1.5-.813c.04-.008.098-.023.172-.047.07-.027.11-.07.11-.125 0-.039-.02-.07-.047-.094a.19.19 0 0 0-.094-.03.833.833 0 0 0-.281.077 2.76 2.76 0 0 0-.235.094zm0 0"/></symbol><symbol overflow="visible" id="Y"><path d="M3.656-7.5c0-.04-.011-.07-.031-.094a.119.119 0 0 0-.078-.062.133.133 0 0 0-.078 0 .42.42 0 0 0-.094.047l-2 .875a1.27 1.27 0 0 0-.219.078c-.093.043-.14.105-.14.187 0 .043.007.082.03.11a.142.142 0 0 0 .11.046c.051 0 .114-.015.188-.046a4.1 4.1 0 0 0 .187-.094l.703-.313c.051-.02.11-.039.172-.062a.421.421 0 0 1 .172-.047c.082 0 .129.023.14.063.02.042.032.097.032.156v5.343c0 .387-.04.649-.11.782-.062.136-.308.203-.734.203a2.74 2.74 0 0 0-.515.031c-.075.012-.11.05-.11.11 0 .074.016.128.047.156A.31.31 0 0 0 1.484 0H4.75c.059 0 .11-.008.14-.031a.147.147 0 0 0 .063-.125c0-.059-.023-.102-.062-.125a.217.217 0 0 0-.141-.047h-.36c-.374 0-.597-.082-.656-.25-.054-.176-.078-.43-.078-.766zm0 0"/></symbol><symbol overflow="visible" id="Z"><path d="M1.984-.922c-.03 0-.113.008-.234.016-.117 0-.172-.024-.172-.078 0-.04.031-.11.094-.204.07-.09.125-.156.156-.187l2.016-1.969c.363-.32.695-.676 1-1.062a2.15 2.15 0 0 0 .468-1.36c0-.59-.238-1.054-.703-1.39-.46-.332-.972-.5-1.53-.5-.388 0-.747.07-1.079.203a2.284 2.284 0 0 0-.89.672 7.008 7.008 0 0 0-.25.343c-.118.168-.172.301-.172.391 0 .043.007.074.03.094.02.012.048.016.079.016.07 0 .125-.024.156-.079.027-.05.055-.093.078-.125.164-.32.395-.586.688-.796.3-.208.64-.313 1.015-.313.465 0 .848.148 1.141.438.3.292.453.667.453 1.125 0 .585-.242 1.183-.719 1.796-.48.606-.902 1.118-1.265 1.532L.75-.438C.727-.405.691-.352.64-.28a.3.3 0 0 0-.062.156c0 .086.047.125.14.125h4.407c.09 0 .156-.008.188-.031.039-.028.062-.086.062-.172V-1.61v-.172c.008-.059-.027-.094-.11-.094-.062 0-.105.04-.124.11a.87.87 0 0 0-.016.156c-.043.312-.133.507-.266.578-.125.074-.34.11-.64.11zm0 0"/></symbol><symbol overflow="visible" id="ad"><path d="M4.297-6.906l.234-.016c.059-.008.114-.02.157-.031.039-.02.066-.063.078-.125l.093-.313c0-.02.008-.082.032-.187.027-.102.046-.16.046-.172 0-.059-.035-.094-.093-.094a.7.7 0 0 0-.14.016l-2.735.375c-.23.031-.367.066-.407.094-.042.03-.097.16-.156.375L.75-4.766c0 .012-.012.055-.031.125a.438.438 0 0 0-.031.141c0 .043.019.074.062.094.04.011.078.015.11.015.308 0 .663.036 1.062.094a7.9 7.9 0 0 1 1.031.203c.465.125.848.332 1.14.61.302.28.454.683.454 1.203 0 .469-.152.914-.453 1.328a2.988 2.988 0 0 1-1.032.922A5.51 5.51 0 0 1 2 .39C1.57.523 1.195.609.875.64a.81.81 0 0 0-.156.015C.664.676.64.72.64.781c0 .04.015.07.046.094a.26.26 0 0 0 .11.031c.113 0 .285-.027.515-.078.227-.055.395-.09.5-.11.278-.062.567-.148.86-.25A4.846 4.846 0 0 0 4.75-1c.383-.444.578-.96.578-1.546 0-.402-.101-.789-.297-1.156a2.015 2.015 0 0 0-.812-.844 3.705 3.705 0 0 0-1.11-.39c-.398-.083-.789-.145-1.171-.188l-.454-.047a1.43 1.43 0 0 1-.203-.016c-.074-.007-.11-.054-.11-.14 0-.027.009-.078.032-.14a.934.934 0 0 1 .047-.141l.14-.5c.07-.246.133-.383.188-.407.059-.027.223-.062.484-.093zm0 0"/></symbol><symbol overflow="visible" id="ao"><path d="M1.75.547c-.012.02-.008.031.016.031.027.008.05.016.062.016H2c.09 0 .145-.028.156-.078.02-.055.047-.118.078-.188l3.313-7.422c.02-.027.039-.07.062-.125a.385.385 0 0 0 .032-.125c0-.09-.055-.14-.157-.14H.531c-.086 0-.136.023-.156.062-.023.031-.031.09-.031.172l.047.625c.007.023.02.059.03.11.009.042.032.062.063.062a.223.223 0 0 0 .063-.016c.027-.008.047-.02.047-.031a.925.925 0 0 1 .281-.063 2.71 2.71 0 0 1 .297-.015h3.406c.05 0 .102.012.156.031.051.024.079.067.079.125a.31.31 0 0 1-.063.156.712.712 0 0 0-.063.157zm0 0"/></symbol><symbol overflow="visible" id="aq"><path d="M4.531-1.984c0-.246.008-.38.032-.391.027-.008.218-.016.562-.016h.422c.05 0 .082-.007.094-.03.02-.02.03-.056.03-.11 0-.04-.007-.094-.015-.156-.011-.06-.039-.094-.078-.094h-.922c-.074-.008-.117-.04-.125-.094v-2.484c0-.04-.008-.13-.015-.266-.012-.133-.051-.184-.11-.156l-.718.25c-.032.011-.047.039-.047.078.007.031.015.07.015.11v2.171c0 .219-.02.348-.047.375-.023.031-.136.047-.343.047H1.109c-.03 0-.101.008-.203.016-.094 0-.14-.024-.14-.079 0-.027.03-.085.093-.171.07-.082.114-.133.125-.157l3.954-5.171c.019-.028.035-.051.046-.063A.212.212 0 0 0 5-8.453c0-.04-.02-.067-.047-.078a.461.461 0 0 0-.11-.016c-.073 0-.128.012-.155.031a.525.525 0 0 0-.11.125L.531-3.016c-.054.063-.105.13-.156.188a.378.378 0 0 0-.078.203c-.012.156.008.234.062.234H3.25c.215 0 .336.02.36.047.027.024.046.145.046.36V-.97c0 .149-.008.29-.015.422-.012.125-.102.215-.266.266a.566.566 0 0 1-.219.047h-.25a.552.552 0 0 0-.172.03c-.054.013-.078.056-.078.126 0 .062.016.098.047.11.027.007.07.015.125.015.215 0 .438-.012.656-.031a12.66 12.66 0 0 1 1.22 0c.183.02.374.03.562.03a.31.31 0 0 0 .125-.03c.05-.012.078-.04.078-.094 0-.082-.04-.129-.11-.14-.062-.009-.12-.016-.171-.016-.313 0-.504-.051-.563-.157-.063-.101-.094-.296-.094-.578zm0 0"/></symbol></defs><g fill="#8a8e98"><use xlink:href="#a" x="290.335" y="178.041"/><use xlink:href="#b" x="300.225" y="178.041"/><use xlink:href="#c" x="310.114" y="178.041"/><use xlink:href="#d" x="320.004" y="178.041"/><use xlink:href="#e" x="329.894" y="178.041"/><use xlink:href="#f" x="333.52" y="178.041"/><use xlink:href="#g" x="343.41" y="178.041"/><use xlink:href="#h" x="353.299" y="178.041"/><use xlink:href="#i" x="363.189" y="178.041"/><use xlink:href="#j" x="373.079" y="178.041"/><use xlink:href="#k" x="382.968" y="178.041"/><use xlink:href="#a" x="392.858" y="178.041"/><use xlink:href="#b" x="402.748" y="178.041"/><use xlink:href="#e" x="412.637" y="178.041"/><use xlink:href="#e" x="416.264" y="178.041"/></g><g fill="#fff"><use xlink:href="#l" x="419.889" y="178.041"/><use xlink:href="#m" x="429.779" y="178.041"/><use xlink:href="#n" x="439.669" y="178.041"/><use xlink:href="#o" x="449.558" y="178.041"/><use xlink:href="#p" x="459.448" y="178.041"/><use xlink:href="#q" x="469.338" y="178.041"/><use xlink:href="#r" x="479.227" y="178.041"/><use xlink:href="#s" x="489.117" y="178.041"/><use xlink:href="#t" x="492.743" y="178.041"/><use xlink:href="#u" x="500.04" y="178.041"/><use xlink:href="#v" x="506.138" y="178.041"/><use xlink:href="#w" x="508.435" y="178.041"/><use xlink:href="#s" x="511.501" y="178.041"/><use xlink:href="#x" x="515.127" y="178.041"/><use xlink:href="#y" x="519.369" y="178.041"/></g><use xlink:href="#z" x="286.518" y="242.057" fill="#8c8fa9"/><g fill="#8c8fa9"><use xlink:href="#A" x="310.773" y="242.057"/><use xlink:href="#B" x="321.175" y="242.057"/><use xlink:href="#A" x="346.385" y="242.057"/><use xlink:href="#C" x="356.788" y="242.057"/><use xlink:href="#A" x="381.574" y="242.057"/></g><use xlink:href="#D" x="389.8" y="242.057" fill="#8c8fa9"/><g fill="#8c8fa9"><use xlink:href="#A" x="407.474" y="242.057"/><use xlink:href="#E" x="417.876" y="242.057"/></g><g fill="#8c8fa9"><use xlink:href="#A" x="438.363" y="242.057"/><use xlink:href="#C" x="448.766" y="242.057"/><use xlink:href="#A" x="473.551" y="242.057"/></g><use xlink:href="#D" x="481.778" y="242.057" fill="#8c8fa9"/><use xlink:href="#A" x="499.452" y="242.057" fill="#8c8fa9"/><use xlink:href="#F" x="509.96" y="242.057" fill="#8c8fa9"/><g fill="#231f20"><use xlink:href="#G" x="262.594" y="497.517"/><use xlink:href="#H" x="273.261" y="497.517"/></g><use xlink:href="#H" x="276.737" y="497.517" fill="#231f20"/><g fill="#231f20"><use xlink:href="#I" x="298.55" y="497.517"/><use xlink:href="#J" x="309.217" y="497.517"/><use xlink:href="#K" x="319.884" y="497.517"/><use xlink:href="#L" x="330.551" y="497.517"/><use xlink:href="#H" x="341.218" y="497.517"/><use xlink:href="#M" x="344.694" y="497.517"/><use xlink:href="#N" x="355.361" y="497.517"/><use xlink:href="#O" x="366.028" y="497.517"/><use xlink:href="#P" x="376.695" y="497.517"/><use xlink:href="#Q" x="387.362" y="497.517"/><use xlink:href="#R" x="398.029" y="497.517"/><use xlink:href="#I" x="408.696" y="497.517"/><use xlink:href="#J" x="419.363" y="497.517"/><use xlink:href="#H" x="430.03" y="497.517"/><use xlink:href="#S" x="433.506" y="497.517"/><use xlink:href="#T" x="444.173" y="497.517"/><use xlink:href="#H" x="454.84" y="497.517"/><use xlink:href="#H" x="458.316" y="497.517"/></g><use xlink:href="#H" x="461.792" y="497.517" fill="#231f20"/><g fill="#33459a"><use xlink:href="#U" x="510.532" y="497.517"/><use xlink:href="#U" x="516.405" y="497.517"/><use xlink:href="#V" x="522.278" y="497.517"/></g><g fill="#231f20"><use xlink:href="#W" x="262.594" y="522.487"/><use xlink:href="#H" x="273.261" y="522.487"/></g><use xlink:href="#H" x="276.737" y="522.487" fill="#231f20"/><g fill="#231f20"><use xlink:href="#Q" x="298.55" y="522.487"/><use xlink:href="#H" x="309.217" y="522.487"/><use xlink:href="#H" x="312.693" y="522.487"/><use xlink:href="#H" x="316.169" y="522.487"/><use xlink:href="#X" x="319.645" y="522.487"/><use xlink:href="#H" x="330.312" y="522.487"/><use xlink:href="#H" x="333.787" y="522.487"/><use xlink:href="#H" x="337.263" y="522.487"/></g><use xlink:href="#H" x="340.739" y="522.487" fill="#231f20"/><g fill="#33459a"><use xlink:href="#U" x="510.532" y="522.487"/><use xlink:href="#Y" x="516.405" y="522.487"/><use xlink:href="#Z" x="522.278" y="522.487"/></g><g fill="#231f20"><use xlink:href="#aa" x="262.594" y="547.457"/><use xlink:href="#H" x="273.261" y="547.457"/></g><use xlink:href="#H" x="276.737" y="547.457" fill="#231f20"/><g fill="#231f20"><use xlink:href="#ab" x="298.55" y="547.457"/><use xlink:href="#H" x="309.217" y="547.457"/><use xlink:href="#H" x="312.693" y="547.457"/><use xlink:href="#H" x="316.169" y="547.457"/><use xlink:href="#ac" x="319.645" y="547.457"/><use xlink:href="#H" x="330.312" y="547.457"/><use xlink:href="#H" x="333.787" y="547.457"/><use xlink:href="#H" x="337.263" y="547.457"/><use xlink:href="#H" x="340.739" y="547.457"/></g><use xlink:href="#H" x="344.215" y="547.457" fill="#231f20"/><g fill="#33459a"><use xlink:href="#U" x="510.532" y="547.457"/><use xlink:href="#Y" x="516.405" y="547.457"/><use xlink:href="#ad" x="522.278" y="547.457"/></g><g fill="#231f20"><use xlink:href="#ae" x="262.594" y="572.426"/><use xlink:href="#H" x="273.261" y="572.426"/></g><use xlink:href="#af" x="276.737" y="572.426" fill="#33459a"/><g fill="#231f20"><use xlink:href="#ag" x="298.55" y="572.426"/><use xlink:href="#ah" x="303.824" y="572.426"/><use xlink:href="#ag" x="309.097" y="572.426"/><use xlink:href="#ai" x="314.371" y="572.426"/><use xlink:href="#aj" x="319.645" y="572.426"/><use xlink:href="#H" x="330.312" y="572.426"/><use xlink:href="#ak" x="333.787" y="572.426"/><use xlink:href="#al" x="344.454" y="572.426"/><use xlink:href="#am" x="355.121" y="572.426"/><use xlink:href="#an" x="365.789" y="572.426"/><use xlink:href="#H" x="376.456" y="572.426"/><use xlink:href="#H" x="379.931" y="572.426"/></g><use xlink:href="#H" x="383.407" y="572.426" fill="#231f20"/><g fill="#33459a"><use xlink:href="#U" x="510.532" y="572.426"/><use xlink:href="#Z" x="516.405" y="572.426"/><use xlink:href="#ao" x="522.278" y="572.426"/></g><use xlink:href="#ap" x="262.594" y="597.396" fill="#231f20"/><use xlink:href="#H" x="273.261" y="597.396" fill="#231f20"/><g fill="#231f20"><use xlink:href="#M" x="298.55" y="597.396"/><use xlink:href="#N" x="309.217" y="597.396"/><use xlink:href="#O" x="319.884" y="597.396"/><use xlink:href="#P" x="330.551" y="597.396"/><use xlink:href="#Q" x="341.218" y="597.396"/><use xlink:href="#R" x="351.885" y="597.396"/><use xlink:href="#I" x="362.552" y="597.396"/><use xlink:href="#J" x="373.219" y="597.396"/><use xlink:href="#H" x="383.887" y="597.396"/><use xlink:href="#ak" x="387.362" y="597.396"/><use xlink:href="#al" x="398.029" y="597.396"/><use xlink:href="#H" x="408.696" y="597.396"/><use xlink:href="#S" x="412.172" y="597.396"/><use xlink:href="#T" x="422.839" y="597.396"/><use xlink:href="#H" x="433.506" y="597.396"/><use xlink:href="#H" x="436.982" y="597.396"/></g><use xlink:href="#H" x="440.458" y="597.396" fill="#231f20"/><g fill="#33459a"><use xlink:href="#U" x="510.532" y="597.396"/><use xlink:href="#aq" x="516.405" y="597.396"/><use xlink:href="#ad" x="522.278" y="597.396"/></g><use xlink:href="#ar" x="262.594" y="622.365" fill="#231f20"/><use xlink:href="#H" x="273.261" y="622.365" fill="#231f20"/><g fill="#231f20"><use xlink:href="#I" x="298.55" y="622.365"/><use xlink:href="#J" x="309.217" y="622.365"/><use xlink:href="#O" x="319.884" y="622.365"/><use xlink:href="#H" x="330.551" y="622.365"/><use xlink:href="#as" x="334.027" y="622.365"/><use xlink:href="#at" x="344.694" y="622.365"/><use xlink:href="#au" x="355.361" y="622.365"/></g><use xlink:href="#H" x="366.028" y="622.365" fill="#231f20"/><g fill="#33459a"><use xlink:href="#U" x="510.532" y="622.365"/><use xlink:href="#ad" x="516.405" y="622.365"/><use xlink:href="#Y" x="522.278" y="622.365"/></g><use xlink:href="#av" x="262.594" y="647.335" fill="#231f20"/><use xlink:href="#H" x="273.261" y="647.335" fill="#231f20"/><g fill="#231f20"><use xlink:href="#aw" x="298.55" y="647.335"/><use xlink:href="#ax" x="309.217" y="647.335"/><use xlink:href="#ay" x="319.884" y="647.335"/><use xlink:href="#az" x="330.551" y="647.335"/><use xlink:href="#H" x="341.218" y="647.335"/><use xlink:href="#aA" x="344.694" y="647.335"/><use xlink:href="#aB" x="355.361" y="647.335"/><use xlink:href="#H" x="366.028" y="647.335"/><use xlink:href="#L" x="369.504" y="647.335"/><use xlink:href="#aC" x="380.171" y="647.335"/><use xlink:href="#H" x="390.838" y="647.335"/><use xlink:href="#S" x="394.314" y="647.335"/><use xlink:href="#T" x="404.981" y="647.335"/><use xlink:href="#H" x="415.648" y="647.335"/><use xlink:href="#H" x="419.124" y="647.335"/><use xlink:href="#H" x="422.599" y="647.335"/><use xlink:href="#H" x="426.075" y="647.335"/><use xlink:href="#H" x="429.551" y="647.335"/></g><use xlink:href="#H" x="433.027" y="647.335" fill="#231f20"/><g fill="#33459a"><use xlink:href="#U" x="510.532" y="647.335"/><use xlink:href="#V" x="516.405" y="647.335"/><use xlink:href="#V" x="522.278" y="647.335"/></g><use xlink:href="#aD" x="262.594" y="672.305" fill="#231f20"/><use xlink:href="#H" x="273.261" y="672.305" fill="#231f20"/><g fill="#231f20"><use xlink:href="#aE" x="298.55" y="672.305"/><use xlink:href="#ak" x="309.217" y="672.305"/><use xlink:href="#O" x="319.884" y="672.305"/><use xlink:href="#H" x="330.551" y="672.305"/><use xlink:href="#aF" x="334.027" y="672.305"/><use xlink:href="#aG" x="344.694" y="672.305"/><use xlink:href="#aH" x="349.896" y="672.305"/><use xlink:href="#aI" x="360.563" y="672.305"/><use xlink:href="#aJ" x="371.23" y="672.305"/><use xlink:href="#H" x="381.897" y="672.305"/><use xlink:href="#S" x="385.373" y="672.305"/><use xlink:href="#T" x="396.04" y="672.305"/><use xlink:href="#H" x="406.707" y="672.305"/><use xlink:href="#H" x="410.183" y="672.305"/></g><use xlink:href="#H" x="413.658" y="672.305" fill="#231f20"/><g fill="#33459a"><use xlink:href="#U" x="510.532" y="672.305"/><use xlink:href="#ao" x="516.405" y="672.305"/><use xlink:href="#ad" x="522.278" y="672.305"/></g><use xlink:href="#aK" x="262.594" y="697.274" fill="#231f20"/><use xlink:href="#H" x="273.261" y="697.274" fill="#231f20"/><g fill="#231f20"><use xlink:href="#aL" x="298.55" y="697.274"/><use xlink:href="#aM" x="309.217" y="697.274"/><use xlink:href="#aN" x="319.884" y="697.274"/><use xlink:href="#H" x="330.551" y="697.274"/><use xlink:href="#ak" x="334.027" y="697.274"/><use xlink:href="#aO" x="344.694" y="697.274"/><use xlink:href="#H" x="355.361" y="697.274"/><use xlink:href="#aP" x="358.837" y="697.274"/><use xlink:href="#aQ" x="369.504" y="697.274"/><use xlink:href="#H" x="380.171" y="697.274"/><use xlink:href="#aR" x="383.647" y="697.274"/><use xlink:href="#H" x="394.314" y="697.274"/><use xlink:href="#aH" x="397.79" y="697.274"/><use xlink:href="#aI" x="408.457" y="697.274"/><use xlink:href="#aS" x="419.124" y="697.274"/><use xlink:href="#aP" x="429.791" y="697.274"/></g><use xlink:href="#H" x="440.458" y="697.274" fill="#231f20"/><g fill="#33459a"><use xlink:href="#U" x="510.532" y="697.274"/><use xlink:href="#ao" x="516.405" y="697.274"/><use xlink:href="#ao" x="522.278" y="697.274"/></g></svg>