<svg xmlns="http://www.w3.org/2000/svg" xmlns:xlink="http://www.w3.org/1999/xlink" width="793.701" height="1058.268" viewBox="0 0 595.276 793.701" version="1.2"><defs><symbol overflow="visible" id="a"><path d="M5.781-5.844h-.734V.453h.734zM2.297.453h.984l1.485-6.297h-.844L2.797-.484l-1.14-5.36H.811zM7-5.844h-.734V.453H7zm0 0"/></symbol><symbol overflow="visible" id="b"><path d="M.75.047v1.016h1.031V.046zm0 0"/></symbol><symbol overflow="visible" id="d"><path d="M7.781.375v-.656H4.406v-2.016h2.532v-.625H2.016v-2.64h4.843v-.641H1.281v3.906h2.36V-.28H.28v.656zm0 0"/></symbol><symbol overflow="visible" id="e"><path d="M4.031-3.703c1.813 0 2.875-.61 2.875-1.485 0-.875-1.062-1.5-2.875-1.5-1.797 0-2.875.625-2.875 1.485 0 .89 1.078 1.5 2.875 1.5zm0-.563c-1.234 0-2.078-.375-2.078-.937 0-.578.844-.922 2.078-.922 1.188 0 2.063.344 2.063.938 0 .562-.86.921-2.063.921zm3.735 1.907V-3H.28v.64h3.344v.97H1.281V1.28h5.5V-1.39H4.406v-.968zM6.03.64H2.016V-.75H6.03zm0 0"/></symbol><symbol overflow="visible" id="f"><path d="M4.453-5.703H6.86v-.64H1.203v.64H3.61c-.046.562-.406 1.031-.937 1.406s-1.266.64-2.063.813c.188.171.422.406.563.562.61-.156 1.219-.39 1.734-.719.469-.28.86-.656 1.125-1.125.297.547.813.97 1.375 1.266.5.281 1.047.469 1.5.578.157-.187.313-.36.516-.562-.625-.125-1.328-.36-1.875-.704-.594-.375-1.031-.875-1.094-1.515zm3.313 4.187v-.625H.28v.625h3.39V1.36h.782v-2.875zm0 0"/></symbol><symbol overflow="visible" id="g"><path d="M7.125-.75v-5.875h-.75V-.75zM3.219-5.438v-1h-.781v1c0 .688-.235 1.282-.594 1.75-.407.532-.985.938-1.64 1.235.202.156.5.39.64.515.406-.203.844-.5 1.187-.859.36-.344.656-.765.797-1.203.219.438.563.813.938 1.14.359.297.75.532 1.093.688.125-.156.329-.39.516-.578a3.556 3.556 0 0 1-1.516-1.031c-.375-.453-.64-1.031-.64-1.656zm4.125 6.641v-.64h-4.75v-1.938h-.766v2.578zm0 0"/></symbol><symbol overflow="visible" id="h"><path d="M6.797-3.344v-3.203h-.75v.984H2v-.984h-.734v3.203zm-.75-.64H2v-.97h4.047zm1.719 2.109v-.64H.28v.64h3.485v1.719h.75v-1.719zm-.704 3.078v-.64H2.016V-1.11H1.28v2.312zm0 0"/></symbol><symbol overflow="visible" id="i"><path d="M6.875-3.984v-.594H2.031v-1.234h4.75v-.594h-5.5v2.422zm.89 1.312v-.61H.282v.61zm-.812 3.969V.703H2.11v-.75h4.672v-1.89h-5.5v.593h4.672v.719H1.281v1.922zm0 0"/></symbol><symbol overflow="visible" id="j"><path d="M7.11-.75v-5.875h-.75V-.75zM.61-4.406c0 1.14.874 2.093 2.124 2.093 1.235 0 2.11-.953 2.11-2.093 0-1.172-.875-2.11-2.11-2.11-1.25 0-2.125.938-2.125 2.11zm.765 0c0-.828.5-1.469 1.36-1.469.859 0 1.359.64 1.359 1.469 0 .797-.5 1.437-1.36 1.437-.859 0-1.359-.64-1.359-1.437zm5.969 5.61V.562H2.562v-1.985h-.75v2.625zm0 0"/></symbol><symbol overflow="visible" id="k"><path d="M6.781-4.016v-2.39H1.266v2.39zm-.734-.593H2v-1.204h4.047zm1.719 1.875v-.61H.28v.61h3.344v.796H1.281v.594h4.672v.719H1.281v1.922h5.672V.703H2.11v-.75h4.672v-1.89H4.406v-.797zm0 0"/></symbol><symbol overflow="visible" id="l"><path d="M4.438-5.656v-.657h-.813v.657c0 .703-.344 1.36-.89 1.89-.563.547-1.329.97-2.157 1.22.235.218.438.421.578.593a5.89 5.89 0 0 0 1.703-.953c.516-.422.938-.922 1.172-1.469.219.531.672 1.063 1.203 1.484.547.438 1.157.766 1.672.938.14-.188.36-.39.547-.578a5.116 5.116 0 0 1-2.031-1.156c-.578-.547-.984-1.25-.984-1.97zM7.78.359v-.64H4.406v-2.016h-.765V-.28H.28v.64zm0 0"/></symbol><symbol overflow="visible" id="m"><path d="M7.203 1.375v-8h-.75v2.969h-1V-6.5H4.72V.984h.734v-3.921h1v4.312zM.781-6.063v.641h2.25c-.031.906-.25 1.734-.656 2.469-.469.828-1.14 1.547-2.094 2.156.203.11.547.313.703.453.938-.687 1.688-1.515 2.172-2.594.39-.859.61-1.89.64-3.124zm0 0"/></symbol><symbol overflow="visible" id="n"><path d="M1.672.344c-.012.02-.008.031.016.031.019.008.035.016.046.016h.172c.082 0 .13-.028.14-.079.02-.042.052-.105.095-.187l3.125-7.047c.02-.027.039-.066.062-.11a.385.385 0 0 0 .031-.124c0-.082-.054-.125-.156-.125C5.11-7.29 5.04-7.297 5-7.297H.5c-.074 0-.121.024-.14.063a.329.329 0 0 0-.032.156l.047.61c.008.011.016.042.016.093.007.055.03.078.062.078.02 0 .04-.004.063-.016l.046-.046c.114-.028.204-.051.266-.063.07-.008.164-.016.281-.016h3.235c.05 0 .097.012.14.032.051.023.079.066.079.125 0 .031-.02.082-.047.14a.712.712 0 0 0-.063.157zm0 0"/></symbol><symbol overflow="visible" id="o"><path d="M4.297-2.078c0-.227.016-.348.047-.36.027-.007.203-.015.515-.015h.407c.039 0 .066-.008.078-.031.02-.02.031-.051.031-.094 0-.04-.008-.086-.016-.14 0-.06-.023-.095-.062-.095h-.875c-.074-.007-.117-.046-.125-.109V-5.266v-.25c0-.132-.04-.191-.11-.171l-.609.265c-.043 0-.062.024-.062.063a.427.427 0 0 1 .015.093v2.063c0 .219-.011.348-.031.375-.023.023-.137.031-.344.031h-2.11c-.023 0-.081.008-.171.016-.094.011-.14-.016-.14-.078 0-.028.03-.082.093-.157.059-.082.098-.129.11-.14l3.75-4.922c.007-.02.019-.04.03-.063.02-.02.032-.039.032-.062 0-.04-.02-.067-.047-.078a.427.427 0 0 0-.094-.016c-.074 0-.129.012-.156.031a.572.572 0 0 0-.11.11L.5-3.046c-.043.062-.09.12-.14.171a.378.378 0 0 0-.079.203c0 .149.02.219.063.219H3.14c.207 0 .32.012.343.031.028.024.047.137.047.344v.969c0 .136-.008.273-.015.406 0 .125-.086.21-.25.25a.566.566 0 0 1-.22.047h-.218a.429.429 0 0 0-.156.031c-.055.023-.078.066-.078.125 0 .055.008.09.031.11.027.011.07.015.125.015.207 0 .406-.008.594-.031a5.075 5.075 0 0 1 1.14 0 4 4 0 0 0 .532.031.235.235 0 0 0 .109-.031c.04-.02.063-.055.063-.11 0-.07-.036-.113-.094-.125a1.222 1.222 0 0 0-.172-.015c-.293 0-.473-.047-.531-.14-.063-.09-.094-.282-.094-.563zm0 0"/></symbol><symbol overflow="visible" id="p"><path d="M6.453-5.547c0 1.156-.766 2.031-1.89 2.031-1.079 0-1.891-.875-1.891-2.03 0-1.173.812-2.048 1.89-2.048 1.125 0 1.891.875 1.891 2.047zm1.422 0c0-2.312-2.39-2.734-2.531-2.766 0-.296.187-.312.031-.609-.219-.375-1.703-.5-1.703.031 0 .235.39.266.156.579 0 .03-2.578.421-2.578 2.78 0 1.86 1.703 2.97 3.313 2.97 1.593 0 3.312-1.11 3.312-2.985zm2.344-4.203l.062 9.656c0 1.36.047 2.64.5 2.625.531-.015.86-1.375.828-3.469l-.062-8.812c0-.734.344-1.156-.219-1.375-.39-.156-1.5-.328-1.703-.344-.953-.047-.969.39-.39.656.703.297.984.422.984 1.063zm0 0"/></symbol><symbol overflow="visible" id="r"><path d="M6.516-5.234c0 .812-.641 1.453-1.438 1.453-.781 0-1.422-.64-1.422-1.453 0-.797.64-1.454 1.422-1.454.797 0 1.438.657 1.438 1.454zM11.437.14l-.015-1.516c.015-.469.5-.922-.313-1.078-.437-.078-.921 0-1.421.125-.454.14-4.72.234-5.876.047-1.265-.125-.843.406-.53.594 2.015 1.109 2.124.328 3.046.28.016 0 3.172-.109 3.719-.124l.031 2.203c.016.86.219 1.734.531 1.719.344-.016.844-1.016.829-2.25zm-1.203-7.454c-.796.047-1.703.079-2.234 0-1.047-.109-.719.391-.39.579 1.421.796 1.624.421 1.859.343.015 0 .375-.14.703-.187 0 0 .031-.016.078-.016l.031 1.797c-.812.047-1.75.078-2.281 0-.047 0-.094-.016-.14-.016.015-.109.03-.218.03-.343 0-1.86-2.077-2.11-2.077-2.14.015-.204.234-.235 0-.485-.204-.203-1.532-.39-1.532.047 0 .156.375.187.188.421-.016.016-2.188.266-2.188 2.141 0 1.39 1.422 2.281 2.797 2.281 1.047 0 2.078-.5 2.547-1.312 1.406.781 1.61.406 1.844.344.015-.016.375-.157.703-.204 0 0 .047-.015.11-.015.03.844.14 1.375.452 1.36.391-.016.844-.876.844-2.423l-.047-4.609c0-.734.344-1.156-.219-1.375-.39-.156-1.5-.328-1.703-.344-.953-.047-.968.39-.39.656.703.297.984.422.984 1.063zM8.625-8.921c-.328-.14-1.39-.281-2.094 0-.578.235-2.297.235-3.047.219a16.514 16.514 0 0 1-1.843-.125c-.61-.078-1.375.11-.329.656 1.641.875 1.75.266 2.579.172 1.03-.11 3.75-.094 4.609-.047.61 0 .89-.547.125-.875zm-2.297-.687c.953-.063 1.172-.86-.203-.907-1.031-.03-1.438-.109-2.172-.234-.703-.11-1.062.156-.562.516.562.39.968.625 1.328.656a9.53 9.53 0 0 0 1.61-.031zm0 0"/></symbol><symbol overflow="visible" id="s"><path d="M8.531-.219c0 .953-.719 1.657-1.64 1.657-.938 0-1.641-.704-1.641-1.657 0-.969.703-1.672 1.64-1.672.923 0 1.641.704 1.641 1.672zm1.422.032c0-2.063-2.344-2.297-2.344-2.329 0-.25.22-.218.032-.515-.22-.281-1.594-.39-1.594.031 0 .156.39.203.156.484 0 .016-2.375.282-2.375 2.329 0 1.468 1.453 2.515 3.063 2.515 1.593 0 3.062-1.047 3.062-2.515zM7.672-4.391l.016-.906c0-.453.296-.844-.313-1.016-.375-.093-1.266-.125-1.531-.156-.828.047-.907.407-.375.563.406.093.765.25.765.672v.843H3.75c-1.36 0-1.906-.109-2.766-.156-.828-.031-1.25.313-.343.703 2.375 1.094 2.437.36 3.312.281.063-.015 1.14-.156 3.453-.171 2.157-.016 3.453-.032 4.438.046.828.047 1.672.032 1.703-.5.047-.703-2.031-.765-3.235-.343-.328.14-1.687.156-2.64.14zm-.703-3.015c1.437.437 3.64 1.078 4 1.203 1.015.297 1.375-.219 1.094-.563-.235-.28-.829-.625-1.344-.75-.563-.156-.625.016-1.047-.03a21.495 21.495 0 0 1-1.828-.391c.703-.391 1.328-.829 2-1.36.86-.672 1.031-1.187.234-1.406-.172-.047-1.219-.11-1.515.047-.376.187-2.922.234-4 .234-.641 0-1.172-.047-1.375-.062-.829-.094-1.016.25-.391.609 1.25.719 1.531.5 1.906.344.016 0 .344-.125.656-.156.391-.016 2.079-.094 2.97-.126C6.53-8.155 3.702-6.765 1.671-6.233c-.344.093-.281.593.719.437 1.546-.25 3.156-.89 4.578-1.61zm0 0"/></symbol><symbol overflow="visible" id="t"><path d="M8.422-4.016H7.219L7.203-7.28c0-.578.25-.922-.187-1.078-.297-.141-1.157-.266-1.313-.282-.734-.046-.75.313-.312.516.546.234.765.344.765.844l.032 4.234c-.954.328-2.282.656-3.032.688-.203.015-.36-.047-.36-.313v-3.422c.345 0 1.72 0 2.188-.047.766-.109.813-.734.125-.828-.453-.062-1.03-.062-1.375.172-.25.188-.718.125-.921.094-.563-.078-1.282-.156-1.61-.11-.828.141-.484.47-.187.547.5.11.703.141.703.579v3.343c0 .735.265.875.906.875 1.047 0 2.578-.562 3.578-1.031v2.016c0 1.078.047 2.109.406 2.109.391-.016.657-1.11.641-2.781l-.031-2.219h1.203l.031 3.297c0 1.078.031 2.11.39 2.11.391-.016.673-1.11.641-2.782l-.046-7.047c0-.594.25-.922-.172-1.094-.297-.14-1.157-.265-1.329-.28-.734-.048-.734.312-.296.515.546.25.765.344.765.86zm0 0"/></symbol><symbol overflow="visible" id="u"><path d="M9.219-7.61c.015-.593-1.469-.593-2.172-.312-.266.078-2.625.094-3.063.094-.828 0-1.203-.078-1.718-.094-.61-.016-.86.188-.266.531 1.422.813 1.656.297 2.11.22.077 0 1.374-.11 2.296-.11.563 0 1.078 0 1.719.031.516.031 1.078.016 1.094-.36zM7.594-.686l.125-1.391c.031-.375.265-.672-.188-.828C7.25-3 6.563-3.094 6.344-3.11c-.657-.016-.75.265-.328.437.312.078.593.235.562.578l-.11 1.438H4.61l-.046-1.36c-.016-.375.203-.687-.266-.78a6.983 6.983 0 0 0-1.234-.095c-.657.063-.688.344-.266.454.328.062.625.187.64.515l.047 1.266h-.437C1.89-.656 1.562-.734.89-.766c-.657-.03-1 .22-.282.547 1.813.813 1.86.266 2.594.203.047 0 .906-.109 2.719-.109 1.687-.016 2.687-.031 3.469.016.656.03 1.312.03 1.343-.375.032-.563-1.609-.625-2.53-.266-.11.031-.329.063-.61.063zm-2.938-4.25c-.093-.5-.734-1.407-.984-1.672-.422-.47-.781-.25-.563.25.282.656.36 1.343.438 1.906.047.422.375.594.719.469.343-.11.515-.375.39-.954zm1.64 1.046c-.952.032-2.234.032-2.53.032-.844.015-1.204-.079-1.72-.079-.608-.015-.858.188-.265.516 1.453.844 1.688.281 2.11.203.078 0 1.578-.094 2.5-.094.578 0 1.375 0 2.015.016.516.031 1.078.016 1.094-.36.016-.609-1.516-.593-2.219-.312 0 .016-.031.016-.078.031l.688-1.937c.14-.39.359-.594-.125-.828-.25-.11-.86-.266-1.11-.313-.687-.109-.765.235-.375.422.328.188.516.328.469.64zm0 0"/></symbol><symbol overflow="visible" id="v"><path d="M4.484-.453v-5.438h-.64v1.97H1.39v-1.97H.734v5.438zm3.454-2.453V-3.5H6.702v-3.14h-.656v7.89h.656v-4.156zM3.843-1H1.39v-2.344h2.453zm0 0"/></symbol><symbol overflow="visible" id="w"><path d="M4.688-3.125c0-1.766-.766-2.906-2-2.906-1.204 0-1.985 1.14-1.985 2.906 0 1.75.781 2.906 1.985 2.906 1.234 0 2-1.172 2-2.906zM7.14 1.25v-7.89h-.657v7.89zM4.047-3.14c0 1.265-.469 2.312-1.344 2.312-.86 0-1.36-1.047-1.36-2.313 0-1.234.5-2.28 1.36-2.28.875 0 1.344 1.046 1.344 2.28zm0 0"/></symbol><symbol overflow="visible" id="x"><path d="M4.266-2.64v-.563c-.36.078-1.25.172-1.797.187l-1.063.032V-6.25h-.64v3.844l1.656-.031c.719-.032 1.531-.126 1.844-.204zm2.921.687v-4.688h-.625v4.688zm-1.734 0v-4.563h-.625v1.438H3.172v.562h1.656v2.563zM7.172 1.25v-2.688h-5.61v.563h4.954V1.25zm0 0"/></symbol><symbol overflow="visible" id="y"><path d="M7.39-2.188c-.374-.109-1.312-.546-1.984-1.171C4.781-3.938 4.375-4.75 4.375-5.5v-.61h-.719v.61c0 .75-.422 1.563-1.047 2.14C1.938-2.733 1-2.296.641-2.187l.437.485c.313-.094 1.14-.484 1.797-1.063.578-.515 1.031-1.203 1.14-1.562.094.36.548 1.047 1.126 1.562.671.579 1.484.97 1.796 1.063zm.454 2.22v-.548H.172v.547zm0 0"/></symbol><symbol overflow="visible" id="z"><path d="M6.438-8.672v1.063h-4.25v2.796h3.984v1.063H2.188v3.016h4.328V.328H1v-9zm0 0"/></symbol><symbol overflow="visible" id="A"><path d="M5.125-.531a1.53 1.53 0 0 1-.797.734 2.888 2.888 0 0 1-1.125.219c-.844 0-1.488-.254-1.922-.75C.844-.836.625-1.555.625-2.484v-1.22c0-.444.063-.85.188-1.218.12-.371.3-.687.53-.937.227-.246.505-.438.829-.563.32-.133.68-.203 1.078-.203.508 0 .91.09 1.203.266.29.18.504.367.64.562v-3.312h1.173V.328H5.14v-.86zm-.016-3.594c0-.164-.043-.336-.125-.516a1.535 1.535 0 0 0-.359-.468 2.03 2.03 0 0 0-.563-.329 2.003 2.003 0 0 0-.703-.125c-.5 0-.894.18-1.171.532-.274.355-.407.863-.407 1.515v.829c0 .656.14 1.164.422 1.515.277.356.664.531 1.156.531.246 0 .477-.035.688-.109.207-.082.39-.195.547-.344.152-.152.281-.336.375-.547.09-.207.14-.445.14-.718zm0 0"/></symbol><symbol overflow="visible" id="B"><path d="M.844-6.5h1.172v4.234c0 .586.113 1.008.343 1.266.227.25.586.375 1.079.375.195 0 .394-.035.593-.11.196-.07.375-.175.532-.312.152-.133.28-.305.375-.516.09-.207.14-.44.14-.703V-6.5h1.188V.328H5.125v-.86h-.016c-.199.313-.46.552-.78.72-.325.175-.724.265-1.188.265-.325 0-.63-.055-.907-.156a1.969 1.969 0 0 1-.718-.438 2.19 2.19 0 0 1-.5-.765c-.118-.301-.172-.66-.172-1.078zm0 0"/></symbol><symbol overflow="visible" id="C"><path d="M3.469-6.625c.539 0 .988.074 1.344.219.351.136.664.316.937.531l-.563.906a3.097 3.097 0 0 0-.843-.468 2.922 2.922 0 0 0-.875-.125c-.219 0-.434.042-.64.125a1.38 1.38 0 0 0-.532.359 1.75 1.75 0 0 0-.36.61c-.093.25-.14.55-.14.89v.875c0 .367.047.68.14.937.09.262.22.477.375.641.153.156.333.277.532.36.207.074.422.109.64.109.434 0 .797-.055 1.079-.172.289-.121.554-.274.796-.453l.563.922c-.242.199-.559.375-.953.53-.387.165-.887.25-1.5.25-.918 0-1.63-.273-2.125-.812C.852-.94.609-1.71.609-2.703v-.86c0-.488.067-.921.204-1.296.132-.383.32-.707.562-.97.246-.257.55-.456.906-.593a3.35 3.35 0 0 1 1.188-.203zm0 0"/></symbol><symbol overflow="visible" id="D"><path d="M2.781.422c-.668 0-1.199-.168-1.594-.5C.801-.418.61-.895.61-1.5v-.328c0-.582.188-1.055.563-1.422.383-.371 1-.563 1.844-.563h1.687v-.39c0-.457-.113-.797-.328-1.016-.21-.226-.559-.343-1.047-.343-.387 0-.726.066-1.015.187a5.978 5.978 0 0 0-.891.5l-.578-.89c.32-.239.687-.442 1.094-.61.402-.164.875-.25 1.406-.25.37 0 .71.05 1.015.14.301.094.563.239.782.423.226.187.406.417.53.687.122.273.188.582.188.922V.328H4.734V-.5H4.72a1.164 1.164 0 0 1-.266.344 1.841 1.841 0 0 1-.344.265c-.18.102-.37.18-.578.235-.21.05-.46.078-.75.078zm1.922-3.203H3.047c-.469 0-.805.097-1 .281-.2.18-.297.43-.297.75v.172c0 .336.113.582.344.734.226.149.5.219.812.219.29 0 .54-.035.75-.11.215-.07.414-.175.594-.312a.994.994 0 0 0 .344-.422c.07-.164.11-.379.11-.64zm0 0"/></symbol><symbol overflow="visible" id="E"><path d="M1.36-5.469H.265V-6.5h1.093v-1.734h1.172V-6.5h1.75v1.031h-1.75v3.89c0 .212.02.38.063.5.039.126.097.227.172.298.07.062.16.113.265.14.114.024.227.032.344.032.29 0 .582-.055.875-.172l.188.984a4.19 4.19 0 0 1-.563.14 2.98 2.98 0 0 1-.672.079c-.637 0-1.105-.164-1.406-.484-.293-.32-.438-.829-.438-1.516zm0 0"/></symbol><symbol overflow="visible" id="F"><path d="M2.156-6.5V.328H.984V-6.5zm.031-2.453v1.328H.938v-1.328zm0 0"/></symbol><symbol overflow="visible" id="G"><path d="M3.563-6.625c.902 0 1.624.273 2.156.813.527.542.797 1.308.797 2.296v.829c0 .992-.27 1.757-.797 2.296-.532.54-1.254.813-2.157.813-.917 0-1.644-.274-2.171-.813C.867-.93.609-1.695.609-2.687v-.829c0-.996.258-1.765.782-2.296.527-.54 1.254-.813 2.171-.813zm0 5.984c.519 0 .94-.175 1.265-.53.332-.352.5-.891.5-1.61v-.64c0-.716-.168-1.255-.5-1.61-.324-.352-.746-.532-1.266-.532-.53 0-.96.18-1.28.532-.325.355-.485.894-.485 1.61v.64c0 .719.16 1.258.484 1.61.32.355.75.53 1.281.53zm0 0"/></symbol><symbol overflow="visible" id="H"><path d="M6.406.328H5.234v-4.25c0-.57-.12-.988-.359-1.25-.23-.258-.59-.39-1.078-.39-.211 0-.414.039-.61.109a1.636 1.636 0 0 0-.922.828c-.093.21-.14.45-.14.719V.328H.937V-6.5h1.141v.86h.016c.195-.32.46-.567.797-.735.332-.164.726-.25 1.187-.25.32 0 .625.055.906.156.278.094.524.242.735.438.215.199.383.457.5.765.12.305.187.664.187 1.079zm0 0"/></symbol><symbol overflow="visible" id="bR"><path d="M1-8.672h3.11c.495 0 .93.067 1.296.188.364.125.66.304.89.53.24.231.415.509.532.829.121.313.188.652.188 1.016v.265c0 .367-.067.711-.188 1.032a2.337 2.337 0 0 1-.562.843 2.637 2.637 0 0 1-.907.578c-.355.137-.773.204-1.25.204H2.188V.328H1zm1.188 1.063v3.359h1.718c1.258 0 1.89-.54 1.89-1.625v-.219c0-.508-.151-.89-.452-1.14-.305-.246-.739-.375-1.297-.375zm0 0"/></symbol><symbol overflow="visible" id="bS"><path d="M3-.625c.434 0 .773-.078 1.016-.234a.738.738 0 0 0 .375-.657v-.093a.941.941 0 0 0-.063-.36.602.602 0 0 0-.234-.265 2.26 2.26 0 0 0-.469-.204 11.98 11.98 0 0 0-.75-.203 5.824 5.824 0 0 1-.969-.265 3.106 3.106 0 0 1-.718-.39 1.5 1.5 0 0 1-.454-.563 1.914 1.914 0 0 1-.14-.766v-.156c0-.227.047-.457.14-.688.102-.226.254-.426.454-.593.195-.165.453-.301.765-.407.309-.101.68-.156 1.11-.156.445 0 .867.055 1.265.156.395.106.754.278 1.078.516l-.515.906a2.57 2.57 0 0 0-.782-.39 3.051 3.051 0 0 0-.968-.157c-.493 0-.848.082-1.063.235a.709.709 0 0 0-.312.593v.11c0 .273.109.472.328.593.215.125.586.243 1.11.344a6.41 6.41 0 0 1 1.046.281c.3.106.547.243.734.407.196.156.344.351.438.578.09.219.14.492.14.812v.157c0 .261-.058.511-.171.75a1.9 1.9 0 0 1-.5.609 2.572 2.572 0 0 1-.797.39 3.385 3.385 0 0 1-1.047.157A4.763 4.763 0 0 1 1.53.188C1.082.039.7-.156.391-.406l.546-.938c.29.211.602.383.938.516.34.137.719.203 1.125.203zm0 0"/></symbol><symbol overflow="visible" id="I"><path d="M4.328 0v-.422h-1.64V-7h-.422L.562-5.437l.282.296L2.25-6.437v6.015H.594V0zm0 0"/></symbol><symbol overflow="visible" id="J"><path d="M4.875-3.797c0-1-.063-1.719-.203-2.125-.266-.75-.953-1.14-1.89-1.14-1.407 0-2.016.671-2.016 2.203 0 1.625.53 2.25 1.968 2.25.86 0 1.407-.36 1.704-.907 0 .625 0 1.688-.172 2.282-.172.609-.61.89-1.532.89-.968 0-1.437-.344-1.437-1.062H.859C.86-.36 1.563.078 2.75.078c1.172 0 1.844-.422 2-1.406.094-.5.125-1.36.125-2.469zm-.484-1.015c0 1.203-.563 1.765-1.704 1.765-1.109 0-1.5-.437-1.5-1.812 0-1.313.454-1.782 1.594-1.782 1.11 0 1.61.532 1.61 1.829zm0 0"/></symbol><symbol overflow="visible" id="K"><path d="M4.938-1.89c0-1.063-.313-1.563-1.047-1.75.828-.235.984-.813.984-1.641 0-1.313-.563-1.782-2.016-1.782S.844-6.593.844-5.28c0 .875.14 1.406.984 1.64-.719.188-1.047.688-1.047 1.75 0 1.5.672 1.97 2.078 1.97 1.407 0 2.079-.47 2.079-1.97zm-.5-3.36c0 1.188-.485 1.406-1.579 1.406-1.093 0-1.578-.234-1.578-1.437 0-1.047.344-1.36 1.578-1.36 1.22 0 1.579.313 1.579 1.391zM4.5-1.86c0 1.266-.484 1.5-1.64 1.5-1.188 0-1.641-.234-1.641-1.515 0-1.313.453-1.547 1.64-1.547 1.157 0 1.641.281 1.641 1.563zm0 0"/></symbol><symbol overflow="visible" id="M"><path d="M5.36-2.703l-.22-.36-.827.532c-.625.39-1.11-.031-1.594-.328-.453-.282-1.11-.266-1.563.03l-.797.517.235.343.812-.5c.36-.234.735-.219 1.047-.031.188.125.36.219.547.344.453.281 1.11.265 1.563-.031zm0 0"/></symbol><symbol overflow="visible" id="N"><path d="M4.875-5.125c0-.75-.156-1.234-.516-1.531-.328-.282-.875-.407-1.515-.407-1.281 0-1.985.36-1.985 1.47h.438c0-.798.5-1.048 1.578-1.048.766 0 1.219.188 1.406.594.11.234.157.531.157.922 0 .516-.11.844-.344 1.094-.375.437-1.438.672-2.032.906C1.345-2.844.86-2.437.86-1.531V0h4v-.422H1.297v-.906c0-.75.125-1.063.875-1.39.547-.235 1.719-.485 2.219-.97.343-.343.484-.796.484-1.437zm0 0"/></symbol><symbol overflow="visible" id="Y"><path d="M5.031-2.094V-2.5h-1V-7h-.453L.547-2.5v.406h3.047V0h.437v-2.094zM3.594-2.5H1.063l2.53-3.797zm0 0"/></symbol><symbol overflow="visible" id="ak"><path d="M4.344-6.578V-7H.297v.422h3.578L.906 0h.485zm0 0"/></symbol><symbol overflow="visible" id="aJ"><path d="M4.922-3.484c0-1.766-.047-2.235-.25-2.657-.313-.64-.89-.921-1.828-.921-.938 0-1.516.28-1.813.921-.203.422-.25.891-.25 2.657 0 1.53.031 2.03.172 2.421.25.782.875 1.141 1.89 1.141 1.032 0 1.657-.36 1.923-1.14.125-.391.156-.891.156-2.422zm-.438 0c0 1.53-.046 2.062-.203 2.421-.203.485-.61.72-1.437.72-.813 0-1.219-.235-1.438-.72-.14-.359-.187-.89-.187-2.421 0-1.344.047-1.938.14-2.266.188-.61.594-.89 1.485-.89.906 0 1.312.28 1.5.89.093.328.14.922.14 2.266zm0 0"/></symbol><symbol overflow="visible" id="aK"><path d="M1.406-.281c0-.25-.11-.36-.343-.36-.235 0-.344.11-.344.36 0 .234.11.36.344.36.234 0 .343-.126.343-.36zm0 0"/></symbol><symbol overflow="visible" id="aL"><path d="M4.828-1.906c0-.953-.234-1.532-1-1.735.766-.234.938-.875.938-1.64 0-1.313-.563-1.782-2.016-1.782-1.313 0-2.016.36-2.016 1.47h.422c0-.782.5-1.048 1.594-1.048 1.219 0 1.578.313 1.578 1.391 0 1.188-.516 1.406-1.578 1.406h-.953v.422h.953c.625 0 .969.063 1.234.266.282.219.407.594.407 1.281 0 1.25-.516 1.531-1.672 1.531-1.078 0-1.563-.281-1.563-1.078H.734c0 1.172.797 1.5 1.985 1.5 1.406 0 2.11-.469 2.11-1.984zm0 0"/></symbol><symbol overflow="visible" id="aY"><path d="M4.906-2.125c0-1.453-.422-2.25-1.953-2.25-.719 0-1.281.172-1.547.531v-2.734h3.282V-7H.983v3.969h.407c.03-.625.546-.922 1.546-.922 1.329 0 1.532.64 1.532 1.86 0 1.327-.407 1.734-1.657 1.734-1.078 0-1.515-.266-1.515-1.063H.875c0 1.125.672 1.5 1.938 1.5 1.546 0 2.093-.64 2.093-2.203zm0 0"/></symbol><symbol overflow="visible" id="bi"><path d="M4.906-2.14c0-1.61-.547-2.235-1.984-2.235-.86 0-1.39.344-1.688.906 0-.64-.015-1.703.157-2.281.187-.625.609-.89 1.53-.89.97 0 1.454.327 1.454 1.046h.422c0-1.047-.703-1.468-1.875-1.468-1.188 0-1.844.421-2 1.39-.094.516-.14 1.36-.14 2.469 0 1 .077 1.719.218 2.14.266.735.938 1.141 1.89 1.141 1.407 0 2.016-.687 2.016-2.219zm-.437.015c0 1.297-.438 1.766-1.594 1.766-1.11 0-1.61-.532-1.61-1.829 0-1.187.563-1.765 1.72-1.765 1.109 0 1.484.437 1.484 1.828zm0 0"/></symbol><symbol overflow="visible" id="O"><path d="M7.89-4.406H5.548v.422H7.89v5.453h.5v-9.235h-.5zM6.564-.875C6.063-1.172 3.75-2.5 3.75-5.5v-1.688h-.516V-5.5c0 2.953-1.937 4.344-2.843 4.844l.406.36c.422-.235 2.328-1.657 2.687-3.673C4-1.953 5.875-.719 6.204-.5zm0 0"/></symbol><symbol overflow="visible" id="P"><path d="M9.156-3.219v-.422H.203v.422H4.47v1.156h-3v.422h5.906v1.032H1.469v1.968H8.14V.938H1.984V-.188h5.907v-1.875H4.969V-3.22zm-1.14-2.937c0-.844-1.204-1.64-3.344-1.64-2.11 0-3.328.734-3.328 1.64 0 .906 1.218 1.64 3.328 1.64 2.14 0 3.344-.734 3.344-1.64zm-.532 0c0 .703-1.203 1.218-2.812 1.218-1.61 0-2.797-.515-2.797-1.218 0-.719 1.188-1.219 2.797-1.219 1.61 0 2.812.5 2.812 1.219zm0 0"/></symbol><symbol overflow="visible" id="Q"><path d="M5.703-7.531v8.578h.5v-4.563h1.625V1.47h.5v-9.235h-.5v3.829H6.203v-3.594zM5.172-.938v-.421c-.61.125-2.125.203-2.984.203h-.563v-4.922h2.656V-6.5H1.125v5.766h1.031c1.063 0 2.406-.11 3.016-.204zm0 0"/></symbol><symbol overflow="visible" id="R"><path d="M3.484-4.813c1.157 0 1.782.5 1.782 1.094 0 .594-.625 1.063-1.782 1.063-1.14 0-1.765-.469-1.765-1.063s.625-1.094 1.765-1.094zm0-.39c-1.437 0-2.296.656-2.296 1.484 0 .844.843 1.485 2.296 1.485 1.438 0 2.313-.641 2.313-1.485 0-.828-.86-1.484-2.313-1.484zM.704-6.25v.422H6.28v-.422zm1.109 5.016v.421H7.5V1.47H8v-2.703zM7.984-4.61h1.422v-.407H7.984v-2.75H7.47v5.907h.515zM1.97-7.594v.407h2.937v-.407zm0 0"/></symbol><symbol overflow="visible" id="S"><path d="M6.766-1.594h.5c.39-1.922.546-3.015.671-4.968h-6.53v.421H7.39a29.435 29.435 0 0 1-.625 4.547zm2.39 1.64v-.405H5.47V-3.75h-.516v3.39H3.156v-3.39h-.5v3.39H.203v.407zm0 0"/></symbol><symbol overflow="visible" id="U"><path d="M7.828-6.125H5.797v.422h2.031v1.5H5.641v.422h2.187v1.687h.516v-5.672h-.516zm-2.625 4.64c1.547 0 2.688.5 2.688 1.36 0 .844-1.141 1.328-2.688 1.328-1.578 0-2.719-.484-2.719-1.328 0-.86 1.141-1.36 2.72-1.36zm-.016-.437c-2.078 0-3.25.75-3.25 1.781 0 1.047 1.172 1.782 3.25 1.782 2.094 0 3.25-.735 3.25-1.782 0-1.03-1.156-1.78-3.25-1.78zM1.204-6.594H4.86C4.72-4.875 2.875-3.234.594-2.687l.344.374c2.406-.703 4.296-2.28 4.53-4.703H1.204zm0 0"/></symbol><symbol overflow="visible" id="V"><path d="M3.11-6.938c1.218 0 1.859.766 1.859 1.735 0 .969-.64 1.75-1.86 1.75-1.203 0-1.859-.781-1.859-1.75s.656-1.734 1.86-1.734zM8.03-.109c0 .843-1.172 1.343-2.765 1.343-1.61 0-2.766-.5-2.766-1.343 0-.86 1.156-1.344 2.766-1.344 1.593 0 2.765.484 2.765 1.344zm.516 0c0-1.032-1.156-1.782-3.281-1.782C3.156-1.89 2-1.14 2-.109 2 .937 3.156 1.67 5.266 1.67c2.125 0 3.28-.734 3.28-1.78zM5.14-6.453C4.719-7.047 4-7.437 3.109-7.437c-1.406 0-2.421 1-2.421 2.234S1.702-2.97 3.108-2.97c.907 0 1.657-.422 2.063-1.031h2.625v1.906h.5v-5.672h-.5v1.313zm.25 2.031c.093-.25.14-.5.14-.781 0-.297-.062-.563-.156-.828h2.422v1.61zm0 0"/></symbol><symbol overflow="visible" id="W"><path d="M5.89-6.516H.97v.407h4.343c-.015 1.093-.28 2.937-.437 3.843h.5a44.64 44.64 0 0 0 .516-4.25zm1.532-1.25V1.47h.516v-4.703h1.468v-.422H7.937v-4.11zm-.453 7.11v-.406c-1.063.156-2.86.25-3.86.25v-3.094h-.515v3.094H.406v.421h1c2.985 0 4.25-.078 5.563-.265zm0 0"/></symbol><symbol overflow="visible" id="X"><path d="M6.422-.875C5.938-1.156 3.609-2.5 3.609-5.5v-1.688h-.5V-5.5C3.11-2.531 1.172-1.156.25-.656l.406.36c.438-.235 2.328-1.641 2.703-3.657C3.875-1.938 5.734-.703 6.08-.5zm2.937-2.688v-.421H7.938v-3.782h-.516V1.47h.516v-5.032zm0 0"/></symbol><symbol overflow="visible" id="Z"><path d="M2.078-1.578v.422H7.86v2.625h.5v-3.047zm5.813-4.016H5.703v.422h2.188v3.016h.5v-5.61h-.5zm-4.172-.984v-.89h-.516v.89c0 2-2.078 3.375-2.781 3.656l.406.344c.297-.156 1.985-1.016 2.625-2.844.703 1.625 2.344 2.5 2.656 2.625l.313-.39c-.406-.157-2.703-1.344-2.703-3.391zm0 0"/></symbol><symbol overflow="visible" id="aa"><path d="M2.078 1.766h.281C1.36.016.922-1.61.922-3.141c0-1.546.437-3.171 1.437-4.937h-.28C1.483-7.156.405-5.406.405-3.141c0 2.235 1.078 3.985 1.672 4.907zm0 0"/></symbol><symbol overflow="visible" id="ab"><path d="M5.5-6.516v-.375H.625V.391h.453v-3.438h3.953v-.375H1.078v-3.094zm0 0"/></symbol><symbol overflow="visible" id="ac"><path d="M1.188-6.203v-.688H.53v.688zM1.093.39v-5.454H.625V.391zm0 0"/></symbol><symbol overflow="visible" id="ad"><path d="M4.969.39v-3.562c0-1.11-.813-1.922-1.86-1.922-.984 0-1.656.422-2.015 1.032l-.016-.829H.625V.391h.453v-3.438c0-.703.797-1.625 1.89-1.625.891 0 1.532.64 1.532 1.594V.39zm0 0"/></symbol><symbol overflow="visible" id="ae"><path d="M5.031.422s-.11-.438-.11-.875v-2.875c0-1.125-.968-1.766-2.187-1.766-1.234 0-2.25.782-2.187 1.735h.422c0-.797.797-1.313 1.765-1.313 1.094 0 1.704.61 1.704 1.281 0 .454-.547.641-.891.72-.61.108-1.485.14-2.094.296C.75-2.156.187-1.594.25-.75.313.125 1.156.656 2.234.594 3.11.53 4 0 4.438-.516c.015.375.078.829.125.922zM4.438-1.36c0 .75-1.313 1.453-2.11 1.515-.937.078-1.625-.281-1.64-1 0-.515.359-1.047 1.156-1.234.312-.063 1.5-.172 1.906-.266.219-.047.484-.14.688-.312zm0 0"/></symbol><symbol overflow="visible" id="af"><path d="M4.469-1.078c-.203.719-.875 1.25-1.75 1.25C1.547.172.75-.86.75-2.25c0-1.406.797-2.422 1.969-2.422 1.11 0 1.64.813 1.781 1.344h.453c-.11-.735-.922-1.766-2.234-1.766C1.203-5.094.28-3.844.28-2.25.281-.687 1.203.61 2.72.61a2.274 2.274 0 0 0 2.234-1.688zm0 0"/></symbol><symbol overflow="visible" id="ag"><path d="M5.11-2.234C5.14-4 4.03-5.125 2.686-5.125 1.204-5.125.281-3.844.281-2.281c0 1.578.922 2.875 2.406 2.875 1.297.015 1.97-.86 2.204-1.563l-.47-.015C4.22-.344 3.657.172 2.688.172 1.766.172.734-.781.72-2.218zM.75-2.61c0-1.172.89-2.125 1.938-2.11.968 0 1.937.844 1.953 2.11zm0 0"/></symbol><symbol overflow="visible" id="ah"><path d="M2.344-1.578v2.844h6.36V.844h-5.86v-2.422zm5.594-3.766H5.796v.422h2.14v3.875h.5v-6.719h-.5zM3.702-6.672h2.172v-.422H1.062v.422h2.125v.469c0 1.687-1.359 3.031-2.687 3.61l.36.359c.265-.125 2.109-1.141 2.593-2.72.531 1.563 2.219 2.423 2.453 2.5l.313-.39c-.875-.39-2.516-1.484-2.516-3.36zm0 0"/></symbol><symbol overflow="visible" id="ai"><path d="M4.672-1.453c1.656 0 2.89.484 2.89 1.344 0 .828-1.234 1.328-2.89 1.328-1.656 0-2.875-.5-2.875-1.328 0-.86 1.219-1.344 2.875-1.344zm0-.453c-2.156 0-3.406.75-3.406 1.797 0 1.03 1.25 1.78 3.406 1.78 2.172 0 3.422-.75 3.422-1.78 0-1.047-1.25-1.797-3.422-1.797zm-.297-1.407v-2.14h-.516v2.14H.203v.422h8.953v-.421zm2.64-.703h.516c.172-.75.375-1.859.547-3.28h-6.75v.421H7.5c-.078.922-.313 2.016-.484 2.86zm0 0"/></symbol><symbol overflow="visible" id="aj"><path d="M.563-8.078H.28c1.016 1.765 1.453 3.39 1.453 4.937 0 1.532-.437 3.157-1.453 4.907h.281C1.172.844 2.25-.906 2.25-3.141c0-2.265-1.078-4.015-1.688-4.937zm0 0"/></symbol><symbol overflow="visible" id="al"><path d="M3.688-5.516c-.204.016-.454.047-.704.079-.64.062-1.5.046-2.078.046v.422c.5 0 1.375 0 2.063-.062.14-.016.312-.016.453-.032C2.687-3.843 1-3.202.406-3l.344.344C1.297-2.86 4.328-3.891 4.688-7H1.203v.422h2.86c-.032.203-.125.61-.375 1.062zm4.234.016H6.39v-2.094h-.5v4.703h.5v-2.156h1.53v2.156h.516v-4.875h-.515zm.75 6.86V.936H2.734V-.266h5.672v-2H2.234v.422h5.657v1.157H2.234v2.046zm0 0"/></symbol><symbol overflow="visible" id="am"><path d="M7.625-7.766V1.47h.516v-9.235zM6.828-.78v-.406c-.484.093-1.937.28-4.078.28H1.516v-2.546h3.859v-3.281H1v.406h3.875v2.453H1v3.39h1.844c2.125 0 3.453-.203 3.984-.296zm0 0"/></symbol><symbol overflow="visible" id="an"><path d="M6.922-6.031h-.5l-.203 2.984h-3.11L2.922-6.03h-.516l.203 2.984H1.094v.422h3.328v2.328H.188V.11H9.14v-.406H4.92v-2.328h3.313v-.422h-1.5zM1.328-6.36H8v-.407H1.328zm0 0"/></symbol><symbol overflow="visible" id="ao"><path d="M7.625-7.766V1.47h.516v-9.235zm-.61 6.454v-.422c-.64.156-2.687.359-3.952.359h-1.36v-5.5h-.516v5.922h1.625c1.688 0 3.579-.235 4.204-.36zm0 0"/></symbol><symbol overflow="visible" id="ap"><path d="M1.172-3.656c0-1.578.594-2.86 1.719-2.86 1.109 0 1.703 1.297 1.703 2.86C4.594-2.062 4-.75 2.89-.75c-1.125 0-1.72-1.297-1.72-2.906zm-.531.015c0 2.032.89 3.375 2.234 3.375 1.36 0 2.234-1.343 2.234-3.375C5.11-5.67 4.234-7 2.875-7 1.531-7 .641-5.672.641-3.64zm7.156.313h1.562v-.422H7.797v-4.016H7.28V1.47h.516zm0 0"/></symbol><symbol overflow="visible" id="aq"><path d="M1.531-4h3.203v3H1.531zm6.094-.125h-2.39v-2.688h-.5v2.407H1.53v-2.407h-.515v6.235h4.218v-3.125h2.391v5.172h.516v-9.235h-.516zm0 0"/></symbol><symbol overflow="visible" id="ar"><path d="M6.953-3.86H.203v.422h8.953v-.421H7.484c.094-.407.485-2.016.61-3.485H1.53v.422h5.985c-.047.36-.079.656-.157 1.094-.5.11-1.515.187-2.437.234-.922.032-2.844.032-3.547.032v.421c.5 0 2.406 0 3.516-.046.875-.047 1.843-.094 2.39-.204-.093.657-.265 1.282-.328 1.532zm1.188 5.22V.936H1.984v-1.25h5.907v-2H1.469v.422h5.906v1.157H1.469v2.093zm0 0"/></symbol><symbol overflow="visible" id="as"><path d="M5.938-6.89h-.485L5.47-2c0 1.344-.86 2.14-2.219 2.14C1.89.14 1.031-.655 1.031-2v-4.89H.594L.578-1.876C.578-.469 1.563.594 3.25.594c1.703 0 2.688-1.063 2.688-2.469zm0 0"/></symbol><symbol overflow="visible" id="at"><path d="M5-4.922h-.438L2.547-.234l-2-4.688H.078L2.344.391h.437zm0 0"/></symbol><symbol overflow="visible" id="au"><path d="M3.078-5.078c-.234-.031-.75.031-1.11.234-.343.172-.655.532-.89.797v-.844H.625V.391h.453v-3.157c0-.859.313-1.218.89-1.625.376-.265.845-.265 1.11-.265zm0 0"/></symbol><symbol overflow="visible" id="av"><path d="M3.5-2.25c-.453-.188-1.078-.234-1.516-.39C1.641-2.75.781-3.048.828-3.673c.047-.719.75-1.047 1.563-1.047C3.359-4.719 4-4.094 4-3.39h.453c.047-.703-.672-1.75-2.047-1.75-1.312 0-1.953.766-2.015 1.485-.047.703.656 1.094 1.171 1.281.454.188 1.125.219 1.594.39.516.204 1.11.516 1.031 1.126-.109.75-1 1.062-1.718 1.062-.89 0-1.89-.406-1.86-1.375H.156C.11-.39.75.641 2.484.625 3.781.625 4.5-.109 4.61-.906c.094-.781-.625-1.156-1.109-1.344zm0 0"/></symbol><symbol overflow="visible" id="aw"><path d="M1.922-4.61v-.406L1.188-5v-1.61h-.47V-5l-.624-.016v.407h.625v3.984c0 .297.015.516.14.688.094.171.297.343.532.343h.437v-.39c-.172 0-.39.03-.531-.094-.14-.125-.11-.297-.11-.578V-4.61zm0 0"/></symbol><symbol overflow="visible" id="ax"><path d="M4.813-4.906h-.47L2.485-.484.625-4.906H.156L2.22.109l-.406 1.032c-.11.28-.22.515-.547.53H.969v.391h.234c.313.016.453 0 .625-.14.219-.172.313-.422.453-.781zm0 0"/></symbol><symbol overflow="visible" id="ay"><path d="M2.703-5.094C1.188-5.094.281-3.844.281-2.25c0 1.563.906 2.86 2.422 2.86 1.485 0 2.438-1.297 2.438-2.86 0-1.594-.954-2.844-2.438-2.844zm0 5.266C1.531.172.734-.906.734-2.25c0-1.36.797-2.422 1.97-2.422 1.155 0 1.968 1.063 1.968 2.422 0 1.344-.813 2.422-1.969 2.422zm0 0"/></symbol><symbol overflow="visible" id="az"><path d="M1.906-4.61V-5h-.718v-.86c0-.28-.032-.452.093-.562.14-.156.422-.094.547-.094v-.39h-.437c-.235 0-.422.172-.532.328-.109.156-.14.406-.14.687V-5l-.625-.016v.407h.625V.484h.469v-5.093zm0 0"/></symbol><symbol overflow="visible" id="aA"><path d="M6.453-4.813c-.203-.812-1.14-2.28-2.969-2.28-1.906 0-3.14 1.624-3.14 3.843S1.578.594 3.484.594c1.891 0 2.72-1.485 2.907-2.266h-.454C5.734-.938 4.97.156 3.485.156 1.891.156.828-1.297.828-3.25c0-1.922 1.078-3.39 2.656-3.39 1.454 0 2.25 1.062 2.485 1.812zm0 0"/></symbol><symbol overflow="visible" id="aB"><path d="M1.094.39v-7.296H.625V.39zm0 0"/></symbol><symbol overflow="visible" id="aC"><path d="M4.688-3.438c.484-.218 1.03-.89.906-1.906-.094-.875-.797-1.562-2.047-1.562H.625V.39h2.844C5 .39 5.829-.36 5.906-1.516 6-2.625 5.141-3.25 4.688-3.437zm-1.032-.171H1.078v-2.907h2.578c1.047 0 1.547.72 1.547 1.47 0 .702-.437 1.437-1.547 1.437zM3.72.016h-2.64V-3.22H3.75c.922 0 1.719.594 1.719 1.547 0 1.016-.735 1.688-1.75 1.688zm0 0"/></symbol><symbol overflow="visible" id="aD"><path d="M5.313.39L2.578-3.062 4.75-4.984h-.64L1.077-2.36v-4.547H.625V.39h.453v-2.172a38.949 38.949 0 0 1 1.156-.985l2.5 3.157zm0 0"/></symbol><symbol overflow="visible" id="aE"><path d="M8.61-6.906h-.438L6.375-.203 4.547-6.891H4.03L2.234-.203.391-6.891h-.422L1.984.47h.47l1.827-6.64L6.125.468h.469zm0 0"/></symbol><symbol overflow="visible" id="aF"><path d="M6.5.422L3.422-6.906h-.469L-.109.406h.453l.906-2.125h3.906l.89 2.14zM4.984-2.094H1.406l1.797-4.281zm0 0"/></symbol><symbol overflow="visible" id="aG"><path d="M1.297.11H.39v.921h.906zm0 0"/></symbol><symbol overflow="visible" id="aH"><path d="M6.063.422v-7.313h-.454v3.266H1.08v-3.266H.624V.406h.453v-3.64H5.61V.422zm0 0"/></symbol><symbol overflow="visible" id="aI"><path d="M7.125.422v-7.313H6.5L3.875-.109l-2.64-6.782h-.61V.422h.453V-6.11L3.594.39h.531l2.531-6.532.016 6.563zm0 0"/></symbol><symbol overflow="visible" id="aO"><path d="M4.938-6.64v-.157h3.015v-.422H1.406v.422h3.016v.156c0 .735-1.203 2.313-3.563 2.844l.329.36c1.28-.329 2.906-1.25 3.484-2.516.687 1.375 2.25 2.14 3.5 2.516l.328-.36c-2.016-.5-3.406-1.672-3.563-2.844zm4.218 4.593v-.422H.203v.422h4.219V1.47h.516v-3.516zm0 0"/></symbol><symbol overflow="visible" id="aP"><path d="M1.422-4h3.25v3h-3.25zm-.5-2.813v6.235h4.266v-6.234h-.516v2.406h-3.25v-2.407zm6.812 3.36h1.422v-.422H7.734v-3.89H7.22v9.234h.515zm0 0"/></symbol><symbol overflow="visible" id="aQ"><path d="M7.734-7.766V1.47h.5v-9.235zm-6.359 4.11c0-1.578.594-2.86 1.719-2.86s1.703 1.297 1.703 2.86c0 1.594-.578 2.906-1.703 2.906S1.375-2.047 1.375-3.656zm-.531.015c0 2.032.89 3.375 2.234 3.375 1.36 0 2.235-1.343 2.235-3.375C5.313-5.67 4.438-7 3.078-7 1.734-7 .844-5.672.844-3.64zm0 0"/></symbol><symbol overflow="visible" id="aR"><path d="M1.938-1.594v.422h5.859v2.64h.516v-3.062zM5.796-5.78h-2.14v.422h2.14v3.109h.516v-5.344h-.516zm2.031-1.985v5.516h.516v-5.516zM5.188-3.14v-.406c-.438.094-1.563.281-3.282.281h-.484V-7.28h-.5v4.422h1.25c1.281 0 2.64-.204 3.015-.282zm0 0"/></symbol><symbol overflow="visible" id="aS"><path d="M9.156-.078V-.5H.203v.422zM4.672-5.391c.75 2.188 3.219 3.266 3.547 3.344l.328-.36C7.078-2.89 4.969-4.421 4.969-6.421v-.64H4.39v.64c0 1.984-2.157 3.594-3.579 4.016l.329.36c.328-.079 2.906-1.22 3.53-3.345zm0 0"/></symbol><symbol overflow="visible" id="aT"><path d="M1.36-6.344h6.609v-.422h-6.61zm5.093 3.672H8.22v-.422H6.703l.188-2.937h-.5l-.188 2.937H3.156L2.937-6.03h-.5l.22 2.937H1.124v.422h1.828v2.375H.203V.11h8.953v-.406H6.453zm-3 0h2.5v2.375h-2.5zm0 0"/></symbol><symbol overflow="visible" id="aU"><path d="M3.906-7.656h-.422L.063 1.766h.421zm0 0"/></symbol><symbol overflow="visible" id="aV"><path d="M5.094-1.453c1.547 0 2.703.5 2.703 1.36 0 .843-1.156 1.327-2.703 1.327-1.563 0-2.719-.484-2.719-1.328 0-.86 1.156-1.36 2.719-1.36zm0-.438c-2.094 0-3.25.75-3.25 1.782C1.844.937 3 1.67 5.094 1.67c2.093 0 3.234-.734 3.234-1.78 0-1.032-1.14-1.782-3.234-1.782zm2.922-3.062h1.406v-.453H8.016v-2.36H7.5v5.672h.516zM3.609-6.656h2.172v-.422H.97v.422h2.14v.265c0 .954-.421 1.688-.828 2.141C1.703-3.562.86-3.11.406-2.89l.36.359c.265-.125 1.078-.594 1.609-1.14.484-.5.844-.97.984-1.47.188.5.438.86.907 1.375.562.594 1.406.891 1.625.985l.312-.39c-.281-.095-1.125-.407-1.703-1.017-.5-.515-.89-1.25-.89-2.203zm0 0"/></symbol><symbol overflow="visible" id="aW"><path d="M4.672-1.219c1.656 0 2.89.469 2.89 1.235 0 .75-1.234 1.25-2.89 1.25-1.656 0-2.875-.5-2.875-1.25 0-.766 1.219-1.235 2.875-1.235zm0-.39c-2.156 0-3.406.671-3.406 1.625 0 .953 1.25 1.656 3.406 1.656 2.172 0 3.422-.703 3.422-1.656 0-.954-1.25-1.625-3.422-1.625zm.266-1.141v-1.219h-.516v1.219H.203v.422h8.953v-.422zM8.5-3.766c-.922 0-3.531-1.14-3.531-2.015v-.14h3.078v-.423H1.359v.422h3.047v.14C4.344-4.874 2.078-3.905.86-3.75l.329.39c.64-.124 2.703-.734 3.5-1.89.828 1.094 2.64 1.766 3.484 1.875zm-5.547-4v.422h3.453v-.422zm0 0"/></symbol><symbol overflow="visible" id="aX"><path d="M5.844-7.125H1.016v.422h4.25a15.046 15.046 0 0 1-.36 2.328h.5c.11-.547.328-1.39.438-2.75zM8.14 1.359V.938H2.516V-.204h5.421v-1.938H2v.422h5.422v1.094H2v1.984zm-.72-9.125v5.157h.516v-2.313h1.375v-.422H7.938v-2.422zm-.39 4.36v-.422c-.843.125-3.312.281-3.922.281v-2h-.515v2H.313v.406h2c1.843 0 3.874-.14 4.718-.265zm0 0"/></symbol><symbol overflow="visible" id="aZ"><path d="M6.266-4.203H4.53v.422h1.735v4.828h.515v-8.594h-.515zm1.828-3.563V1.47h.5v-9.235zM2.64-6.14v1.188C2.64-2.406.89-.922.312-.47l.422.313C1.156-.5 2.406-1.61 2.906-3.47 3.296-1.78 4.75-.609 5.031-.422l.344-.36c-.344-.202-2.219-1.562-2.219-4.171v-1.188H4.97v-.406H.812v.406zm0 0"/></symbol><symbol overflow="visible" id="ba"><path d="M7.938-7.766v6.72h.5v-6.72zm-5.5 6.188v2.844H8.64V.844H2.953v-2.422zm1.28-4.813v-1.046h-.515v1.046C3.203-4.375 1.22-2.78.438-2.5l.39.344c.313-.156 2-1.172 2.625-3.063.61 1.532 2.36 2.797 2.672 2.907l.328-.376C5.75-3.046 3.72-4.405 3.72-6.39zm0 0"/></symbol><symbol overflow="visible" id="bb"><path d="M5.703.39V.017H1.078v-3.204h4.36v-.39h-4.36v-2.938h4.516v-.375H.625V.391zm0 0"/></symbol><symbol overflow="visible" id="bc"><path d="M3.516-7.094C1.594-7.094.344-5.469.344-3.25S1.594.594 3.516.594c1.906 0 3.171-1.625 3.171-3.844S5.423-7.094 3.517-7.094zm0 7.25C1.906.156.828-1.312.828-3.25c0-1.922 1.078-3.39 2.688-3.39 1.593 0 2.671 1.468 2.671 3.39C6.188-1.312 5.11.156 3.517.156zm0 0"/></symbol><symbol overflow="visible" id="bd"><path d="M4.828-5.328c0 .906-.61 1.64-1.781 1.64-1.156 0-1.797-.734-1.797-1.64 0-.89.625-1.64 1.797-1.64s1.781.734 1.781 1.64zM2.641-.625h5.093V.938H2.641zM8.25 1.359V-2.25h-.516v1.219H2.641V-2.25h-.5v3.61zm-2.875-7c-.172-1.03-1.078-1.828-2.328-1.828-1.406 0-2.36.953-2.36 2.14 0 1.188.97 2.126 2.36 2.126 1.344 0 2.281-.89 2.344-2.016h2.343v2.453h.5v-5h-.5v2.125zm0 0"/></symbol><symbol overflow="visible" id="be"><path d="M3.984-6.078C3.86-3.5 2.406-1.656.547-.531l.437.328C2.75-1.297 4.438-3.36 4.547-6.5H1.125v.422zm3.844 2.172H6.312v-3.64h-.515v8.593h.516V-3.47h1.515V1.47h.516v-9.235h-.516zm0 0"/></symbol><symbol overflow="visible" id="bf"><path d="M1.328-5.422h3.25v1.656h-3.25zM.812-7.344v4h4.282v-4h-.516v1.5h-3.25v-1.5zm6.97 2.157h1.421v-.422H7.781v-2.157h-.515v4.829h.515zm.28 6.546V.938H2.391V-.25h5.39v-2H1.875v.422h5.39v1.156h-5.39V1.36zm0 0"/></symbol><symbol overflow="visible" id="bg"><path d="M6.25.563L5.156-.688c.375-.532.64-1.594.719-2.282h-.469a4.083 4.083 0 0 1-.547 1.922c-.234-.281-1.515-1.703-2.046-2.328.5-.25 1.703-.703 1.843-1.828.125-.938-.578-1.781-1.672-1.781-1.14 0-1.828.75-1.796 1.703.046.64.515 1.281.921 1.765C1.391-3.109.344-2.437.33-1.328.28.047 1.405.766 2.53.766 3.328.766 4.22.344 4.86-.297l.75.86zM2.516-3.72c-.344-.39-.844-.984-.875-1.547C1.609-5.859 2-6.562 3-6.562c.781 0 1.297.625 1.188 1.359-.11.828-.97 1.156-1.672 1.484zm0 4.047C1.562.328.719-.297.75-1.266c.016-1.046.984-1.515 1.656-1.906.5.578 1.953 2.297 2.156 2.516-.468.547-1.28.984-2.046.984zm0 0"/></symbol><symbol overflow="visible" id="bh"><path d="M1.531-1.328v.422h5.594v2.375h.5v-2.797zm5.594-6.438v5.72h.5v-1.75h1.516v-.423H7.625v-1.578h1.516v-.422H7.625v-1.547zM6.5-2.812v-.407c-.672.125-1.766.281-4.39.281h-.907v-1.78H4.97v-2.516H.703v.421H4.47v1.672H.703v2.625h1.563c2.453 0 3.671-.171 4.234-.296zm0 0"/></symbol><symbol overflow="visible" id="bj"><path d="M7.031-4.672c0 .39-1.015.64-2.36.64-1.359 0-2.359-.296-2.359-.687 0-.406 1-.656 2.36-.656 1.344 0 2.36.297 2.36.703zM8.125 1.36V.938H2V.015h5.89v-1.657H1.47v.391h5.906v.844H1.5v1.765zM4.937-3.67c1.657-.048 2.688-.485 2.688-1.048 0-.578-1.11-1.015-2.953-1.015-1.813 0-2.922.421-2.922 1.03 0 .563 1.016.985 2.672 1.032v.797H.203v.422h8.953v-.422H4.937zm3.329-2.454v-.422H1.094v.422zM6.39-7.344v-.422H2.937v.422zm0 0"/></symbol><symbol overflow="visible" id="bk"><path d="M7.688-7.703v5.64h.5v-5.64zm-.594 4.172v-.422c-.61.11-2.907.297-4.39.297h-1.11V-6.61h4.062v-.422H1.094v3.797h1.578c1.344 0 3.812-.204 4.422-.297zm-2.11 2.094c1.547 0 2.704.484 2.704 1.343C7.688.75 6.53 1.25 4.983 1.25c-1.562 0-2.703-.5-2.703-1.344 0-.86 1.14-1.343 2.703-1.343zm0-.454c-2.078 0-3.25.766-3.25 1.797 0 1.032 1.172 1.782 3.25 1.782 2.094 0 3.25-.75 3.25-1.782 0-1.031-1.156-1.797-3.25-1.797zm0 0"/></symbol><symbol overflow="visible" id="bl"><path d="M9.156-2.688v-.421H7.422c.234-1.329.406-2.313.578-4.016H1.328v.422h6.094a43.253 43.253 0 0 1-.516 3.594H.203v.421H4.22V1.47h.515v-4.157zm0 0"/></symbol><symbol overflow="visible" id="bm"><path d="M2.766-.234v-.829h-.829v.829zm.015-4.579v-.828h-.844v.829zm0 0"/></symbol><symbol overflow="visible" id="bn"><path d="M4.094-3.516c0 1.594-.547 2.86-1.469 2.86s-1.469-1.235-1.469-2.86c0-1.593.547-2.859 1.469-2.859s1.469 1.297 1.469 2.86zm4.25 4.985v-9.235h-.516V1.47zM4.625-3.984c-.125-1.766-.906-2.86-2-2.86-1.156 0-2.016 1.282-2.016 3.328 0 2.032.86 3.344 2.016 3.344 1.172 0 2.016-1.312 2.016-3.344v-.03h1.437v4.593h.516v-8.594h-.516v3.563zm0 0"/></symbol><symbol overflow="visible" id="bo"><path d="M8.14 1.36V.936H1.985V-.218h5.907v-1.89H1.469v.421h5.906V-.64H1.469v2zM9.157-3.5H.203v.422h8.953zM1.47-4.484H7.89V-7.5h-.516v.969h-5.39V-7.5h-.516zm.515-.422V-6.11h5.391v1.203zm0 0"/></symbol><symbol overflow="visible" id="bp"><path d="M7.828-7.766v6.72h.516v-6.72zM2.234-1.578v2.844h6.36V.844H2.75v-2.422zm.86-5.36c1.203 0 1.86.813 1.86 1.844 0 1.032-.657 1.828-1.86 1.828-1.188 0-1.86-.796-1.86-1.828 0-1.031.672-1.843 1.86-1.843zm0-.484C1.672-7.422.672-6.39.672-5.094c0 1.282 1 2.328 2.422 2.328 1.406 0 2.422-1.046 2.422-2.328 0-1.297-1.016-2.328-2.422-2.328zm0 0"/></symbol><symbol overflow="visible" id="bq"><path d="M1.578-4h2.438v3H1.578zm4.5-.094H4.531v-2.625h-.515v2.313H1.578v-2.328h-.516v6.156h3.47v-3.094h1.546v4.719h.516v-8.594h-.516zm1.813-3.672V1.47h.515v-9.235zm0 0"/></symbol><symbol overflow="visible" id="br"><path d="M2.031-4.188h5.797v-.421H2.031v-1.688h5.797v-.422H1.531v4.657h6.407v-.407H2.03zm7.125 3.72H.203v.421h8.953zm0 0"/></symbol><symbol overflow="visible" id="bs"><path d="M1.531-6.656h3.14v3.484h-3.14zm.61 5.078v2.844h6.343V.844H2.641v-2.422zm5.593-3.688H5.188v-1.812H1.016v4.328h4.171v-2.094h2.547v3.797h.5v-6.719h-.5zm0 0"/></symbol><symbol overflow="visible" id="bt"><path d="M4.672-1.328C6.328-1.328 7.5-.86 7.5-.047c0 .781-1.172 1.281-2.828 1.281s-2.828-.5-2.828-1.28c0-.813 1.172-1.282 2.828-1.282zm0-.453c-2.156 0-3.344.734-3.344 1.734 0 .985 1.188 1.719 3.344 1.719 2.172 0 3.36-.734 3.36-1.719 0-1-1.188-1.734-3.36-1.734zm.266-1.25V-4.5h3.046v-.422h-6v-2h5.907v-.422H1.469V-4.5h2.953v1.469H.203v.422h8.953v-.422zm0 0"/></symbol><symbol overflow="visible" id="bu"><path d="M8.031-4.938h1.422v-.437H8.031v-2.39h-.5v5.75h.5zM5.062-1.483c1.547 0 2.704.53 2.704 1.39 0 .844-1.157 1.36-2.704 1.36-1.562 0-2.718-.516-2.718-1.36 0-.86 1.156-1.39 2.719-1.39zm0-.407c-2.093 0-3.25.75-3.25 1.782 0 1.046 1.157 1.78 3.25 1.78 2.094 0 3.235-.734 3.235-1.78 0-1.032-1.14-1.782-3.235-1.782zm-3-5.765v.422h2.829v-.422zM3.22-5.813v.032c0 1.75-2.485 2.797-2.797 2.875l.375.406c.234-.078 2.125-.969 2.687-2.297.422 1.14 2.329 2.078 2.547 2.156l.282-.421C6-3.142 3.75-4.188 3.75-5.783v-.03H6v-.422H.953v.421zm0 0"/></symbol><symbol overflow="visible" id="bv"><path d="M7.906-3.453h1.547v-.422H7.906v-3.89h-.5v9.234h.5zm-4.86-2.781v1.015c0 2.39-1.718 4.172-2.765 4.672l.375.36c.469-.282 2.297-1.704 2.656-3.626.376 1.954 2.126 3.188 2.422 3.376l.313-.422c-.438-.235-2.484-1.625-2.484-4.36v-1.015h2.359v-.422H.766v.422zm0 0"/></symbol><symbol overflow="visible" id="bw"><path d="M6.11-3.125h-6v.375h6zm0 0"/></symbol><symbol overflow="visible" id="bx"><path d="M4.86.422v-5.313h-.454v3.438c0 .672-.797 1.61-1.89 1.61C1.625.156.984-.47.984-1.439V-4.89H.516v3.532c0 1.125.812 1.953 1.859 1.953.984 0 1.656-.422 2.016-.985l.015.813zm0 0"/></symbol><symbol overflow="visible" id="by"><path d="M5 .422v-7.328h-.469v3.031c-.39-.734-1.125-1.219-1.953-1.219C1.172-5.094.266-3.859.266-2.25c0 1.563.906 2.86 2.312 2.86.828 0 1.61-.516 1.969-1.282L4.53.422zM2.64.188C1.47.188.75-.907.75-2.25c0-1.36.719-2.438 1.89-2.438 1.157 0 1.891 1.079 1.891 2.438 0 1.344-.734 2.438-1.89 2.438zm0 0"/></symbol><symbol overflow="visible" id="bz"><path d="M1.984-5.14h5.844v-.423H1.984v-1.359H7.86v-.422H1.47v4.047h6.468v-.422H1.984zm7.172 3.077H.203v.422h4.234v3.11h.516v-3.11h4.203zm0 0"/></symbol><symbol overflow="visible" id="bA"><path d="M8.063-5.594c0-1.078-1.329-1.906-3.391-1.906-2.031 0-3.375.828-3.375 1.906 0 1.094 1.344 1.907 3.375 1.907 2.062 0 3.39-.813 3.39-1.907zM9.155-1.89v-.421H.203v.421h4.219v3.36h.516v-3.36zM7.531-5.594c0 .89-1.312 1.469-2.86 1.469-1.546 0-2.843-.578-2.843-1.469 0-.906 1.297-1.453 2.844-1.453s2.86.547 2.86 1.453zm0 0"/></symbol><symbol overflow="visible" id="bB"><path d="M4.672-1.516c1.656 0 2.89.532 2.89 1.391 0 .844-1.234 1.375-2.89 1.375-1.656 0-2.875-.531-2.875-1.375 0-.86 1.219-1.39 2.875-1.39zm0-.406c-2.156 0-3.406.75-3.406 1.797s1.25 1.797 3.406 1.797c2.172 0 3.422-.75 3.422-1.797s-1.25-1.797-3.422-1.797zm4.484-1.25H.203v.422h8.953zM4.937-6.875h2.985v-.406H1.406v.406h3.016c0 .953-1.984 2.313-3.563 2.531l.344.375C2.484-4.28 4.047-5.03 4.687-6.266 5.234-5.109 6.75-4.28 8.126-3.953l.313-.39c-2.032-.391-3.5-1.735-3.5-2.532zm0 0"/></symbol><symbol overflow="visible" id="bC"><path d="M7.531-4.125v-.422c-.718.14-1.172.188-1.875.234.157-.828.297-1.515.453-2.812H1.33v.422H5.5a22.37 22.37 0 0 1-.375 2.406c-.25.016-.828.047-1.156.047H.609v.422h2.454v2.234h.515v-2.25c1.594 0 3.25-.156 3.953-.281zm.907 3.39v-7.03h-.5v5.218h-2.61v.422h2.61v1.39zm.203 2V.845H2.844v-2.11h-.5v2.532zm0 0"/></symbol><symbol overflow="visible" id="bD"><path d="M9.313-3.547v-.422H7.734v-3.797H7.22V1.47h.515v-5.016zM4.968-5.734h-.5L4.297-1.22c-.578.016-1.281.016-2.11.016l-.14-4.531H1.53l.14 4.53H.407v.423c.453 0 2.14-.016 3.203-.016.875 0 2.329-.062 3-.156v-.422c-.562.078-1.515.14-1.812.14zM.656-6.156h5.188v-.422H.656zm0 0"/></symbol><symbol overflow="visible" id="bE"><path d="M5.406-1.484c1.625 0 2.813.53 2.813 1.39 0 .844-1.188 1.375-2.813 1.375C3.781 1.281 2.61.75 2.61-.094c0-.86 1.172-1.39 2.797-1.39zm0-.407c-2.14 0-3.343.75-3.343 1.782 0 1.046 1.203 1.78 3.343 1.78 2.157 0 3.36-.734 3.36-1.78 0-1.032-1.204-1.782-3.36-1.782zm2.688-3.39H6.563v-2.313h-.516v5.266h.516V-4.86h1.53v2.734h.5v-5.64h-.5zM3-5.171c.39 1.296 1.734 2.28 2.234 2.546l.313-.39C4.672-3.438 3.25-4.532 3.25-6.438v-1h-.5v1c0 1.859-1.563 3.359-2.39 3.78l.359.313C1.047-2.516 2.516-3.547 3-5.172zm0 0"/></symbol><symbol overflow="visible" id="bF"><path d="M5.047-1.484c1.547 0 2.672.53 2.672 1.39 0 .844-1.125 1.36-2.672 1.36-1.563 0-2.703-.516-2.703-1.36 0-.86 1.14-1.39 2.703-1.39zm-.016-.407c-2.078 0-3.218.75-3.218 1.782 0 1.046 1.14 1.78 3.218 1.78 2.094 0 3.235-.734 3.235-1.78 0-1.032-1.141-1.782-3.235-1.782zm2.86-2.921h1.406v-.422H7.89v-2.532h-.516v5.672h.516zM3.53-6.516v-.921h-.515v.921c0 2-1.922 3.407-2.797 3.797l.39.328c.313-.156 2.016-1.078 2.672-2.953.672 1.625 2.172 2.422 2.766 2.719l.328-.39c-.86-.36-2.844-1.563-2.844-3.5zm0 0"/></symbol><symbol overflow="visible" id="bG"><path d="M1.984.938v-2.032h5.391V.938zm.438-7.86l.125 2.11H1.125v.421h7.11v-.421H6.812l.14-2.11h1.078v-.422H1.328v.422zm4.015 0l-.125 2.11h-3.25l-.14-2.11zm-1.5 4.031h4.22v-.406H.202v.406h4.219v1.375H1.469V1.36H7.89v-2.875H4.937zm0 0"/></symbol><symbol overflow="visible" id="bH"><path d="M4.36-3.234c-.798-.297-1.72-.375-2.22-.547C1.579-3.984.89-4.312.938-5.22c.063-.937.907-1.515 2.016-1.515 1.14 0 2.078.875 2.047 1.859h.438c.078-.734-.563-2.281-2.485-2.281C1.281-7.156.547-6.141.484-5.22c-.062.922.563 1.516 1.47 1.782.655.203 1.562.328 2.202.578.672.296 1.157.843 1.078 1.562C5.11-.328 4.031.187 3.016.187 1.703.188.625-.469.656-1.905H.25C.156-.531 1.14.625 2.984.625c1.657 0 2.563-.969 2.688-1.984.078-.844-.469-1.563-1.313-1.875zm0 0"/></symbol><symbol overflow="visible" id="bI"><path d="M2.438-1.516h4.89V.938h-4.89zm5.39 2.875v-3.28h-5.89v3.28zm-.5-9.125v5.313h.5V-5.11H9.25v-.422H7.828v-2.235zm-.594 4.063v-.422C6.125-4 4-3.828 2.516-3.828h-1.11v-2.766h3.969v-.422H.906v3.61h1.578c1.344 0 3.641-.203 4.25-.297zm0 0"/></symbol><symbol overflow="visible" id="bJ"><path d="M4.781-1.438c1.547 0 2.703.485 2.703 1.344 0 .844-1.156 1.344-2.703 1.344-1.562 0-2.703-.5-2.703-1.344 0-.86 1.14-1.343 2.703-1.343zm0-.453c-2.078 0-3.25.766-3.25 1.797 0 1.032 1.172 1.782 3.25 1.782 2.094 0 3.25-.75 3.25-1.782 0-1.031-1.156-1.797-3.25-1.797zm2.547-5.906v5.64h.5v-2.89H9.25v-.422H7.828v-2.328zm-.594 4.313v-.422c-.609.125-2.734.297-4.218.297h-1.11v-2.985h3.969v-.422H.906v3.829h1.578c1.344 0 3.641-.204 4.25-.297zm0 0"/></symbol><symbol overflow="visible" id="bK"><path d="M7.297.39v-3.656c0-.906-.578-1.828-1.563-1.828-1.015 0-1.578.703-1.765 1-.172-.5-.688-1-1.328-1-.688 0-1.25.36-1.579.89v-.687H.625V.391h.453v-3.5c0-.797.625-1.563 1.484-1.563.797 0 1.172.672 1.172 1.563L3.75.39h.438v-3.5c0-.875.609-1.563 1.484-1.563.797 0 1.156.672 1.156 1.563v3.5zm0 0"/></symbol><symbol overflow="visible" id="bL"><path d="M4.984-4.89h-.453l.016 1.046c-.297-.797-1.14-1.25-1.984-1.25C1.187-5.094.28-4.03.28-2.5c0 1.516.906 2.61 2.281 2.61.844 0 1.594-.407 1.954-1.22l.015.938c0 1.016-.687 1.813-1.781 1.813C1.703 1.64 1.031.969.922.312H.516c.078.704.75 1.766 2.234 1.766 1.328 0 2.25-.984 2.234-2.25zM2.641-.282C1.469-.281.75-1.234.75-2.5c0-1.297.719-2.188 1.89-2.188 1.157 0 1.891.891 1.891 2.188 0 1.266-.734 2.219-1.89 2.219zm0 0"/></symbol><symbol overflow="visible" id="bM"><path d="M6.453.39L4.391-2.765c.796-.187 1.671-.968 1.671-2.062 0-1.14-.89-2.078-2.312-2.078H.625V.39h.453v-3.094h2.844L5.937.39zM3.687-3.077H1.079v-3.453h2.61c.937 0 1.89.468 1.89 1.703 0 1.219-.953 1.75-1.89 1.75zm0 0"/></symbol><symbol overflow="visible" id="bN"><path d="M4.969.39v-3.562c0-1.11-.813-1.922-1.86-1.922-1 0-1.609.453-2.03 1v-2.812H.624V.39h.453v-3.532c0-.578.797-1.53 1.89-1.53.891 0 1.532.64 1.532 1.593V.39zm0 0"/></symbol><symbol overflow="visible" id="bO"><path d="M1.063.39v-7.28H.625V.39zm0 0"/></symbol><symbol overflow="visible" id="bP"><path d="M7.938-7.766V1.47h.5v-9.235zM6.546-.875C6.047-1.156 3.734-2.5 3.734-5.5v-1.688H3.22V-5.5c0 2.969-1.922 4.344-2.844 4.844l.406.36c.422-.235 2.328-1.641 2.703-3.657C4-1.938 5.86-.703 6.188-.5zm0 0"/></symbol><symbol overflow="visible" id="bQ"><path d="M1.984-4.172v-1.703h5.391v1.703zm-.515.422H7.89V-7.5h-.516v1.203h-5.39V-7.5h-.516zm0 2.563v2.453h6.734V.844H1.984v-2.031zm3.562-.97h4.125v-.421H.203v.422h4.328V.016h.5zm0 0"/></symbol><symbol overflow="visible" id="aM"><path d="M1.969-1.172v2.25h5.406v-.36H2.391v-1.89zM6.75-4.609H5.36v.359h1.39v1.14H5.234v.36H6.75v2.031h.438V-6.64H6.75zm-3.766.5c.985 0 1.516.515 1.516 1.03 0 .517-.531 1-1.516 1-.968 0-1.515-.483-1.515-1 0-.515.547-1.03 1.515-1.03zm0-.344c-1.234 0-1.968.656-1.968 1.375s.734 1.36 1.968 1.36c1.235 0 1.985-.641 1.985-1.36 0-.719-.735-1.375-1.985-1.375zM.61-5.328v.36h4.766v-.36zm1.079-1.188v.36h2.53v-.36zm0 0"/></symbol><symbol overflow="visible" id="aN"><path d="M6.969-3.375H5.672v-3.094h-.438v7.36h.438v-3.907h1.297V1.25h.437v-7.89H6.97zM2.312-5.25v1.016c0 2.171-1.5 3.437-1.984 3.828l.36.265c.359-.296 1.437-1.234 1.859-2.828.328 1.438 1.578 2.453 1.828 2.61l.281-.313C4.375-.844 2.75-2 2.75-4.234V-5.25h1.563v-.36H.75v.36zm0 0"/></symbol></defs><g fill="#231f20"><use xlink:href="#a" x="74.885" y="47.763"/><use xlink:href="#b" x="82.886" y="47.763"/><use xlink:href="#c" x="85.492" y="47.763"/><use xlink:href="#d" x="88.099" y="47.763"/><use xlink:href="#e" x="96.1" y="47.763"/><use xlink:href="#f" x="104.1" y="47.763"/><use xlink:href="#g" x="112.1" y="47.763"/><use xlink:href="#c" x="120.1" y="47.763"/><use xlink:href="#h" x="122.707" y="47.763"/><use xlink:href="#i" x="130.707" y="47.763"/><use xlink:href="#c" x="138.708" y="47.763"/><use xlink:href="#j" x="141.315" y="47.763"/><use xlink:href="#k" x="149.315" y="47.763"/><use xlink:href="#c" x="157.315" y="47.763"/><use xlink:href="#l" x="159.922" y="47.763"/><use xlink:href="#m" x="167.922" y="47.763"/></g><g fill="#393536"><use xlink:href="#n" x="42.468" y="48.426"/><use xlink:href="#o" x="48.041" y="48.426"/></g><g fill="#33459a"><use xlink:href="#p" x="206.678" y="250.25"/><use xlink:href="#q" x="220.193" y="250.25"/><use xlink:href="#r" x="225.134" y="250.25"/><use xlink:href="#q" x="238.649" y="250.25"/><use xlink:href="#s" x="243.59" y="250.25"/><use xlink:href="#q" x="257.105" y="250.25"/></g><g fill="#33459a"><use xlink:href="#t" x="262.045" y="249.351"/><use xlink:href="#u" x="272.857" y="249.351"/></g><g fill="#231f20"><use xlink:href="#v" x="206.678" y="270.763"/><use xlink:href="#w" x="214.525" y="270.763"/><use xlink:href="#x" x="222.373" y="270.763"/><use xlink:href="#y" x="230.22" y="270.763"/></g><g fill="#fff"><use xlink:href="#z" x="119.052" y="323.673"/><use xlink:href="#A" x="126.052" y="323.673"/><use xlink:href="#B" x="133.027" y="323.673"/><use xlink:href="#C" x="139.991" y="323.673"/><use xlink:href="#D" x="145.913" y="323.673"/><use xlink:href="#E" x="152.355" y="323.673"/><use xlink:href="#F" x="156.824" y="323.673"/><use xlink:href="#G" x="159.718" y="323.673"/><use xlink:href="#H" x="166.597" y="323.673"/></g><path d="M76.441 421.645h83.52M159.965 421.645H501.12" fill="none" stroke-width=".299637" stroke="#33459a" stroke-miterlimit="10"/><g fill="#33459a"><use xlink:href="#I" x="77.858" y="350.8"/><use xlink:href="#J" x="82.314" y="350.8"/><use xlink:href="#K" x="87.878" y="350.8"/><use xlink:href="#K" x="93.493" y="350.8"/><use xlink:href="#L" x="99.109" y="350.8"/><use xlink:href="#M" x="101.754" y="350.8"/><use xlink:href="#L" x="107.369" y="350.8"/><use xlink:href="#I" x="110.014" y="350.8"/><use xlink:href="#J" x="114.469" y="350.8"/><use xlink:href="#J" x="120.034" y="350.8"/><use xlink:href="#N" x="125.598" y="350.8"/><use xlink:href="#L" x="131.091" y="350.8"/></g><g fill="#231f20"><use xlink:href="#O" x="161.379" y="350.449"/><use xlink:href="#P" x="170.534" y="350.449"/><use xlink:href="#Q" x="179.689" y="350.449"/><use xlink:href="#R" x="188.845" y="350.449"/><use xlink:href="#S" x="198" y="350.449"/><use xlink:href="#T" x="207.155" y="350.449"/><use xlink:href="#U" x="210.512" y="350.449"/><use xlink:href="#V" x="219.668" y="350.449"/><use xlink:href="#R" x="228.823" y="350.449"/><use xlink:href="#W" x="237.978" y="350.449"/><use xlink:href="#T" x="247.134" y="350.449"/><use xlink:href="#R" x="250.491" y="350.449"/><use xlink:href="#X" x="259.646" y="350.449"/><use xlink:href="#T" x="268.801" y="350.449"/></g><g fill="#33459a"><use xlink:href="#I" x="77.858" y="372.612"/><use xlink:href="#J" x="82.314" y="372.612"/><use xlink:href="#J" x="87.878" y="372.612"/><use xlink:href="#N" x="93.442" y="372.612"/><use xlink:href="#L" x="98.936" y="372.612"/><use xlink:href="#M" x="101.581" y="372.612"/><use xlink:href="#L" x="107.196" y="372.612"/><use xlink:href="#I" x="109.841" y="372.612"/><use xlink:href="#J" x="114.296" y="372.612"/><use xlink:href="#J" x="119.861" y="372.612"/><use xlink:href="#Y" x="125.425" y="372.612"/><use xlink:href="#L" x="130.939" y="372.612"/></g><g fill="#231f20"><use xlink:href="#O" x="161.379" y="372.261"/><use xlink:href="#P" x="170.534" y="372.261"/><use xlink:href="#Q" x="179.689" y="372.261"/><use xlink:href="#R" x="188.845" y="372.261"/><use xlink:href="#S" x="198" y="372.261"/><use xlink:href="#T" x="207.155" y="372.261"/><use xlink:href="#U" x="210.512" y="372.261"/><use xlink:href="#V" x="219.668" y="372.261"/><use xlink:href="#Q" x="228.823" y="372.261"/><use xlink:href="#R" x="237.978" y="372.261"/><use xlink:href="#T" x="247.134" y="372.261"/><use xlink:href="#U" x="250.491" y="372.261"/><use xlink:href="#V" x="259.646" y="372.261"/><use xlink:href="#R" x="268.801" y="372.261"/><use xlink:href="#T" x="277.957" y="372.261"/><use xlink:href="#Z" x="281.314" y="372.261"/><use xlink:href="#X" x="290.469" y="372.261"/><use xlink:href="#aa" x="299.625" y="372.261"/><use xlink:href="#ab" x="302.137" y="372.261"/><use xlink:href="#ac" x="307.498" y="372.261"/><use xlink:href="#ad" x="308.994" y="372.261"/><use xlink:href="#ae" x="314.304" y="372.261"/><use xlink:href="#ad" x="319.471" y="372.261"/><use xlink:href="#af" x="324.781" y="372.261"/><use xlink:href="#ag" x="329.786" y="372.261"/><use xlink:href="#ah" x="334.974" y="372.261"/><use xlink:href="#ai" x="344.13" y="372.261"/><use xlink:href="#aj" x="353.285" y="372.261"/></g><g fill="#33459a"><use xlink:href="#I" x="77.858" y="394.424"/><use xlink:href="#J" x="82.314" y="394.424"/><use xlink:href="#J" x="87.878" y="394.424"/><use xlink:href="#ak" x="93.442" y="394.424"/><use xlink:href="#L" x="97.969" y="394.424"/><use xlink:href="#M" x="100.614" y="394.424"/><use xlink:href="#L" x="106.229" y="394.424"/><use xlink:href="#I" x="108.874" y="394.424"/><use xlink:href="#J" x="113.33" y="394.424"/><use xlink:href="#J" x="118.894" y="394.424"/><use xlink:href="#J" x="124.459" y="394.424"/><use xlink:href="#L" x="130.023" y="394.424"/></g><g fill="#231f20"><use xlink:href="#al" x="161.379" y="394.073"/><use xlink:href="#am" x="170.534" y="394.073"/><use xlink:href="#an" x="179.689" y="394.073"/><use xlink:href="#ao" x="188.845" y="394.073"/><use xlink:href="#ap" x="198" y="394.073"/><use xlink:href="#T" x="207.155" y="394.073"/><use xlink:href="#Q" x="210.512" y="394.073"/><use xlink:href="#R" x="219.668" y="394.073"/><use xlink:href="#S" x="228.823" y="394.073"/><use xlink:href="#T" x="237.978" y="394.073"/><use xlink:href="#aq" x="241.335" y="394.073"/><use xlink:href="#ar" x="250.491" y="394.073"/><use xlink:href="#am" x="259.646" y="394.073"/><use xlink:href="#aa" x="268.801" y="394.073"/><use xlink:href="#as" x="271.314" y="394.073"/><use xlink:href="#ad" x="277.611" y="394.073"/><use xlink:href="#ac" x="282.921" y="394.073"/><use xlink:href="#at" x="284.416" y="394.073"/><use xlink:href="#ag" x="289.401" y="394.073"/><use xlink:href="#au" x="294.589" y="394.073"/><use xlink:href="#av" x="297.58" y="394.073"/><use xlink:href="#ac" x="302.158" y="394.073"/><use xlink:href="#aw" x="303.653" y="394.073"/><use xlink:href="#ax" x="305.637" y="394.073"/><use xlink:href="#T" x="310.397" y="394.073"/><use xlink:href="#ay" x="313.754" y="394.073"/><use xlink:href="#az" x="318.942" y="394.073"/><use xlink:href="#T" x="320.926" y="394.073"/><use xlink:href="#aA" x="324.283" y="394.073"/><use xlink:href="#ae" x="330.712" y="394.073"/><use xlink:href="#aB" x="335.88" y="394.073"/><use xlink:href="#ac" x="337.375" y="394.073"/><use xlink:href="#az" x="338.871" y="394.073"/><use xlink:href="#ay" x="340.854" y="394.073"/><use xlink:href="#au" x="346.042" y="394.073"/><use xlink:href="#ad" x="349.033" y="394.073"/><use xlink:href="#ac" x="354.343" y="394.073"/><use xlink:href="#ae" x="355.838" y="394.073"/><use xlink:href="#T" x="361.006" y="394.073"/><use xlink:href="#ae" x="364.363" y="394.073"/><use xlink:href="#aw" x="369.531" y="394.073"/><use xlink:href="#T" x="371.514" y="394.073"/><use xlink:href="#aC" x="374.871" y="394.073"/><use xlink:href="#ag" x="380.822" y="394.073"/><use xlink:href="#au" x="386.01" y="394.073"/><use xlink:href="#aD" x="389.001" y="394.073"/><use xlink:href="#ag" x="394.088" y="394.073"/><use xlink:href="#aB" x="399.276" y="394.073"/><use xlink:href="#ag" x="400.771" y="394.073"/><use xlink:href="#ax" x="405.959" y="394.073"/><use xlink:href="#aj" x="410.72" y="394.073"/><use xlink:href="#T" x="413.161" y="394.073"/><use xlink:href="#aE" x="416.518" y="394.073"/><use xlink:href="#ae" x="424.921" y="394.073"/><use xlink:href="#aB" x="430.088" y="394.073"/><use xlink:href="#aw" x="431.584" y="394.073"/><use xlink:href="#ag" x="433.568" y="394.073"/><use xlink:href="#au" x="438.756" y="394.073"/><use xlink:href="#T" x="441.746" y="394.073"/><use xlink:href="#aF" x="445.103" y="394.073"/><use xlink:href="#aG" x="451.298" y="394.073"/><use xlink:href="#T" x="453.394" y="394.073"/><use xlink:href="#aH" x="456.751" y="394.073"/></g><g fill="#231f20"><use xlink:href="#ae" x="463.241" y="394.073"/><use xlink:href="#ae" x="468.409" y="394.073"/><use xlink:href="#av" x="473.576" y="394.073"/><use xlink:href="#T" x="478.154" y="394.073"/><use xlink:href="#T" x="481.511" y="394.073"/></g><g fill="#231f20"><use xlink:href="#U" x="161.379" y="411.052"/><use xlink:href="#V" x="170.534" y="411.052"/><use xlink:href="#Q" x="179.689" y="411.052"/><use xlink:href="#R" x="188.845" y="411.052"/><use xlink:href="#T" x="198" y="411.052"/><use xlink:href="#U" x="201.357" y="411.052"/><use xlink:href="#V" x="210.512" y="411.052"/><use xlink:href="#R" x="219.668" y="411.052"/><use xlink:href="#T" x="228.823" y="411.052"/><use xlink:href="#Z" x="232.18" y="411.052"/><use xlink:href="#X" x="241.335" y="411.052"/><use xlink:href="#aa" x="250.491" y="411.052"/><use xlink:href="#aI" x="253.003" y="411.052"/><use xlink:href="#aC" x="260.562" y="411.052"/><use xlink:href="#aF" x="266.513" y="411.052"/></g><path d="M76.441 606.977h96.97M173.41 606.977h327.711" fill="none" stroke-width=".299637" stroke="#33459a" stroke-miterlimit="10"/><g fill="#33459a"><use xlink:href="#N" x="77.858" y="509.489"/><use xlink:href="#aJ" x="83.351" y="509.489"/><use xlink:href="#I" x="88.956" y="509.489"/><use xlink:href="#aJ" x="93.412" y="509.489"/><use xlink:href="#aK" x="99.017" y="509.489"/><use xlink:href="#aL" x="101.031" y="509.489"/><use xlink:href="#L" x="106.535" y="509.489"/><use xlink:href="#M" x="109.18" y="509.489"/></g><use xlink:href="#T" x="114.794" y="509.138" fill="#33459a"/><g fill="#33459a"><use xlink:href="#aM" x="118.253" y="508.688"/><use xlink:href="#aN" x="126.187" y="508.688"/></g><g fill="#231f20"><use xlink:href="#aa" x="174.827" y="509.138"/><use xlink:href="#aO" x="177.339" y="509.138"/><use xlink:href="#aj" x="186.495" y="509.138"/><use xlink:href="#T" x="188.936" y="509.138"/><use xlink:href="#aP" x="192.293" y="509.138"/><use xlink:href="#aQ" x="201.449" y="509.138"/><use xlink:href="#aR" x="210.604" y="509.138"/><use xlink:href="#aS" x="219.759" y="509.138"/><use xlink:href="#T" x="228.915" y="509.138"/><use xlink:href="#Q" x="232.272" y="509.138"/><use xlink:href="#aT" x="241.427" y="509.138"/><use xlink:href="#aQ" x="250.582" y="509.138"/><use xlink:href="#X" x="259.738" y="509.138"/><use xlink:href="#aU" x="268.893" y="509.138"/><use xlink:href="#X" x="272.657" y="509.138"/><use xlink:href="#aV" x="281.812" y="509.138"/><use xlink:href="#T" x="290.968" y="509.138"/><use xlink:href="#aW" x="294.325" y="509.138"/><use xlink:href="#aX" x="303.48" y="509.138"/></g><g fill="#33459a"><use xlink:href="#N" x="77.858" y="531.301"/><use xlink:href="#aJ" x="83.351" y="531.301"/><use xlink:href="#aJ" x="88.956" y="531.301"/><use xlink:href="#aY" x="94.562" y="531.301"/><use xlink:href="#aK" x="100.177" y="531.301"/><use xlink:href="#J" x="102.191" y="531.301"/><use xlink:href="#L" x="107.755" y="531.301"/><use xlink:href="#M" x="110.4" y="531.301"/><use xlink:href="#L" x="116.016" y="531.301"/><use xlink:href="#N" x="118.661" y="531.301"/><use xlink:href="#aJ" x="124.154" y="531.301"/><use xlink:href="#I" x="129.759" y="531.301"/><use xlink:href="#I" x="134.214" y="531.301"/><use xlink:href="#aK" x="138.67" y="531.301"/><use xlink:href="#aL" x="140.684" y="531.301"/></g><g fill="#231f20"><use xlink:href="#aa" x="174.827" y="530.95"/><use xlink:href="#aO" x="177.339" y="530.95"/><use xlink:href="#aj" x="186.495" y="530.95"/><use xlink:href="#T" x="188.936" y="530.95"/><use xlink:href="#aZ" x="192.293" y="530.95"/><use xlink:href="#aR" x="201.449" y="530.95"/><use xlink:href="#ba" x="210.604" y="530.95"/><use xlink:href="#T" x="219.759" y="530.95"/><use xlink:href="#Q" x="223.116" y="530.95"/><use xlink:href="#aT" x="232.272" y="530.95"/><use xlink:href="#aQ" x="241.427" y="530.95"/><use xlink:href="#X" x="250.582" y="530.95"/><use xlink:href="#aa" x="259.738" y="530.95"/><use xlink:href="#aA" x="262.25" y="530.95"/><use xlink:href="#bb" x="268.679" y="530.95"/><use xlink:href="#bc" x="274.447" y="530.95"/><use xlink:href="#aj" x="281.283" y="530.95"/><use xlink:href="#T" x="283.725" y="530.95"/><use xlink:href="#X" x="287.082" y="530.95"/><use xlink:href="#bd" x="296.237" y="530.95"/><use xlink:href="#be" x="305.392" y="530.95"/><use xlink:href="#bf" x="314.548" y="530.95"/><use xlink:href="#T" x="323.703" y="530.95"/><use xlink:href="#bg" x="327.06" y="530.95"/><use xlink:href="#T" x="333.357" y="530.95"/><use xlink:href="#X" x="336.714" y="530.95"/><use xlink:href="#bd" x="345.869" y="530.95"/><use xlink:href="#ah" x="355.025" y="530.95"/><use xlink:href="#bh" x="364.18" y="530.95"/><use xlink:href="#T" x="373.335" y="530.95"/><use xlink:href="#aW" x="376.692" y="530.95"/><use xlink:href="#aX" x="385.848" y="530.95"/></g><g fill="#33459a"><use xlink:href="#N" x="77.858" y="553.113"/><use xlink:href="#aJ" x="83.351" y="553.113"/><use xlink:href="#aJ" x="88.956" y="553.113"/><use xlink:href="#aJ" x="94.562" y="553.113"/><use xlink:href="#aK" x="100.167" y="553.113"/><use xlink:href="#bi" x="102.181" y="553.113"/><use xlink:href="#L" x="107.766" y="553.113"/><use xlink:href="#M" x="110.411" y="553.113"/><use xlink:href="#L" x="116.026" y="553.113"/><use xlink:href="#N" x="118.671" y="553.113"/><use xlink:href="#aJ" x="124.164" y="553.113"/><use xlink:href="#aJ" x="129.769" y="553.113"/><use xlink:href="#aY" x="135.374" y="553.113"/><use xlink:href="#aK" x="140.989" y="553.113"/><use xlink:href="#K" x="143.004" y="553.113"/></g><g fill="#231f20"><use xlink:href="#aP" x="174.827" y="552.762"/><use xlink:href="#aQ" x="183.982" y="552.762"/><use xlink:href="#aR" x="193.137" y="552.762"/><use xlink:href="#aS" x="202.293" y="552.762"/><use xlink:href="#bj" x="211.448" y="552.762"/><use xlink:href="#bk" x="220.604" y="552.762"/><use xlink:href="#aS" x="229.759" y="552.762"/><use xlink:href="#T" x="238.914" y="552.762"/><use xlink:href="#aa" x="242.271" y="552.762"/><use xlink:href="#bl" x="244.784" y="552.762"/><use xlink:href="#bm" x="253.939" y="552.762"/><use xlink:href="#T" x="258.415" y="552.762"/><use xlink:href="#bn" x="261.772" y="552.762"/><use xlink:href="#aQ" x="270.928" y="552.762"/><use xlink:href="#bo" x="280.083" y="552.762"/><use xlink:href="#bp" x="289.238" y="552.762"/><use xlink:href="#bq" x="298.394" y="552.762"/><use xlink:href="#aS" x="307.549" y="552.762"/><use xlink:href="#br" x="316.704" y="552.762"/><use xlink:href="#bs" x="325.86" y="552.762"/><use xlink:href="#br" x="335.015" y="552.762"/><use xlink:href="#aj" x="344.171" y="552.762"/><use xlink:href="#T" x="346.612" y="552.762"/><use xlink:href="#ai" x="349.969" y="552.762"/><use xlink:href="#bt" x="359.124" y="552.762"/><use xlink:href="#bu" x="368.28" y="552.762"/><use xlink:href="#bd" x="377.435" y="552.762"/><use xlink:href="#bv" x="386.59" y="552.762"/><use xlink:href="#aa" x="395.746" y="552.762"/><use xlink:href="#aA" x="398.258" y="552.762"/><use xlink:href="#ay" x="404.687" y="552.762"/><use xlink:href="#bw" x="409.876" y="552.762"/><use xlink:href="#ab" x="415.888" y="552.762"/><use xlink:href="#ay" x="421.248" y="552.762"/><use xlink:href="#bx" x="426.437" y="552.762"/><use xlink:href="#ad" x="431.726" y="552.762"/><use xlink:href="#by" x="437.036" y="552.762"/><use xlink:href="#ag" x="442.428" y="552.762"/><use xlink:href="#au" x="447.616" y="552.762"/><use xlink:href="#aj" x="450.607" y="552.762"/><use xlink:href="#T" x="453.048" y="552.762"/><use xlink:href="#bz" x="456.405" y="552.762"/><use xlink:href="#bv" x="465.56" y="552.762"/><use xlink:href="#T" x="474.716" y="552.762"/><use xlink:href="#aW" x="478.073" y="552.762"/><use xlink:href="#aX" x="487.228" y="552.762"/></g><g fill="#33459a"><use xlink:href="#I" x="77.858" y="574.925"/><use xlink:href="#J" x="82.314" y="574.925"/><use xlink:href="#J" x="87.878" y="574.925"/><use xlink:href="#J" x="93.443" y="574.925"/><use xlink:href="#aK" x="99.007" y="574.925"/><use xlink:href="#K" x="101.021" y="574.925"/><use xlink:href="#L" x="106.636" y="574.925"/><use xlink:href="#M" x="109.281" y="574.925"/><use xlink:href="#L" x="114.897" y="574.925"/><use xlink:href="#N" x="117.542" y="574.925"/><use xlink:href="#aJ" x="123.035" y="574.925"/><use xlink:href="#aJ" x="128.64" y="574.925"/><use xlink:href="#aJ" x="134.245" y="574.925"/><use xlink:href="#aK" x="139.85" y="574.925"/><use xlink:href="#aY" x="141.864" y="574.925"/></g><g fill="#231f20"><use xlink:href="#aa" x="174.827" y="574.574"/><use xlink:href="#aO" x="177.339" y="574.574"/><use xlink:href="#aj" x="186.495" y="574.574"/><use xlink:href="#T" x="188.936" y="574.574"/><use xlink:href="#Q" x="192.293" y="574.574"/><use xlink:href="#bA" x="201.449" y="574.574"/><use xlink:href="#bB" x="210.604" y="574.574"/><use xlink:href="#bC" x="219.759" y="574.574"/><use xlink:href="#T" x="228.915" y="574.574"/><use xlink:href="#W" x="232.272" y="574.574"/><use xlink:href="#aV" x="241.427" y="574.574"/><use xlink:href="#T" x="250.582" y="574.574"/><use xlink:href="#bD" x="253.939" y="574.574"/><use xlink:href="#bE" x="263.095" y="574.574"/><use xlink:href="#bF" x="272.25" y="574.574"/><use xlink:href="#bG" x="281.405" y="574.574"/><use xlink:href="#aa" x="290.561" y="574.574"/><use xlink:href="#aF" x="293.073" y="574.574"/><use xlink:href="#aC" x="299.269" y="574.574"/><use xlink:href="#bH" x="305.22" y="574.574"/><use xlink:href="#aj" x="310.906" y="574.574"/><use xlink:href="#T" x="313.347" y="574.574"/><use xlink:href="#bI" x="316.704" y="574.574"/><use xlink:href="#bJ" x="325.86" y="574.574"/></g><g fill="#33459a"><use xlink:href="#I" x="77.858" y="596.737"/><use xlink:href="#J" x="82.314" y="596.737"/><use xlink:href="#J" x="87.878" y="596.737"/><use xlink:href="#Y" x="93.443" y="596.737"/><use xlink:href="#aK" x="98.956" y="596.737"/><use xlink:href="#I" x="100.97" y="596.737"/><use xlink:href="#L" x="105.426" y="596.737"/><use xlink:href="#M" x="108.071" y="596.737"/><use xlink:href="#L" x="113.686" y="596.737"/><use xlink:href="#I" x="116.331" y="596.737"/><use xlink:href="#J" x="120.787" y="596.737"/><use xlink:href="#J" x="126.351" y="596.737"/><use xlink:href="#bi" x="131.915" y="596.737"/><use xlink:href="#L" x="137.5" y="596.737"/></g><g fill="#231f20"><use xlink:href="#aa" x="174.827" y="596.386"/><use xlink:href="#aO" x="177.339" y="596.386"/><use xlink:href="#aj" x="186.495" y="596.386"/><use xlink:href="#T" x="188.936" y="596.386"/><use xlink:href="#Q" x="192.293" y="596.386"/><use xlink:href="#bA" x="201.449" y="596.386"/><use xlink:href="#bB" x="210.604" y="596.386"/><use xlink:href="#bC" x="219.759" y="596.386"/><use xlink:href="#T" x="228.915" y="596.386"/><use xlink:href="#bb" x="232.272" y="596.386"/><use xlink:href="#bK" x="238.039" y="596.386"/><use xlink:href="#ag" x="245.669" y="596.386"/><use xlink:href="#au" x="250.857" y="596.386"/><use xlink:href="#bL" x="253.848" y="596.386"/><use xlink:href="#ac" x="259.239" y="596.386"/><use xlink:href="#ad" x="260.735" y="596.386"/><use xlink:href="#bL" x="266.045" y="596.386"/><use xlink:href="#T" x="271.436" y="596.386"/><use xlink:href="#aI" x="274.793" y="596.386"/><use xlink:href="#ae" x="282.351" y="596.386"/><use xlink:href="#au" x="287.519" y="596.386"/><use xlink:href="#aD" x="290.51" y="596.386"/><use xlink:href="#ag" x="295.596" y="596.386"/><use xlink:href="#aw" x="300.784" y="596.386"/><use xlink:href="#T" x="302.768" y="596.386"/><use xlink:href="#bM" x="306.125" y="596.386"/><use xlink:href="#ag" x="312.279" y="596.386"/><use xlink:href="#av" x="317.467" y="596.386"/><use xlink:href="#ag" x="322.045" y="596.386"/><use xlink:href="#ae" x="327.233" y="596.386"/><use xlink:href="#au" x="332.401" y="596.386"/><use xlink:href="#af" x="335.392" y="596.386"/><use xlink:href="#bN" x="340.396" y="596.386"/><use xlink:href="#T" x="345.707" y="596.386"/><use xlink:href="#aH" x="349.064" y="596.386"/><use xlink:href="#ag" x="355.554" y="596.386"/><use xlink:href="#ae" x="360.742" y="596.386"/><use xlink:href="#by" x="365.909" y="596.386"/><use xlink:href="#T" x="371.301" y="596.386"/><use xlink:href="#aA" x="374.658" y="596.386"/><use xlink:href="#bN" x="381.087" y="596.386"/><use xlink:href="#ac" x="386.397" y="596.386"/><use xlink:href="#ad" x="387.892" y="596.386"/><use xlink:href="#ae" x="393.203" y="596.386"/><use xlink:href="#T" x="398.37" y="596.386"/><use xlink:href="#bg" x="401.727" y="596.386"/><use xlink:href="#T" x="408.024" y="596.386"/><use xlink:href="#bO" x="411.381" y="596.386"/><use xlink:href="#ad" x="412.876" y="596.386"/><use xlink:href="#by" x="418.187" y="596.386"/><use xlink:href="#ac" x="423.578" y="596.386"/><use xlink:href="#ae" x="425.073" y="596.386"/><use xlink:href="#T" x="430.241" y="596.386"/><use xlink:href="#bP" x="433.598" y="596.386"/><use xlink:href="#aV" x="442.753" y="596.386"/><use xlink:href="#T" x="451.909" y="596.386"/><use xlink:href="#bQ" x="455.266" y="596.386"/><use xlink:href="#Z" x="464.421" y="596.386"/></g><g fill="#fff"><use xlink:href="#bR" x="119.052" y="482.22"/><use xlink:href="#G" x="126.282" y="482.22"/><use xlink:href="#bS" x="133.16" y="482.22"/><use xlink:href="#F" x="138.949" y="482.22"/><use xlink:href="#E" x="141.844" y="482.22"/><use xlink:href="#F" x="146.312" y="482.22"/><use xlink:href="#G" x="149.207" y="482.22"/><use xlink:href="#H" x="156.085" y="482.22"/></g></svg>