<svg xmlns="http://www.w3.org/2000/svg" xmlns:xlink="http://www.w3.org/1999/xlink" width="793.701" height="1058.268" viewBox="0 0 595.276 793.701" version="1.2"><defs><symbol overflow="visible" id="a"><path d="M5.781-5.844h-.734V.453h.734zM2.297.453h.984l1.485-6.297h-.844L2.797-.484l-1.14-5.36H.811zM7-5.844h-.734V.453H7zm0 0"/></symbol><symbol overflow="visible" id="b"><path d="M.75.047v1.016h1.031V.046zm0 0"/></symbol><symbol overflow="visible" id="d"><path d="M7.781.375v-.656H4.406v-2.016h2.532v-.625H2.016v-2.64h4.843v-.641H1.281v3.906h2.36V-.28H.28v.656zm0 0"/></symbol><symbol overflow="visible" id="e"><path d="M4.031-3.703c1.813 0 2.875-.61 2.875-1.485 0-.875-1.062-1.5-2.875-1.5-1.797 0-2.875.625-2.875 1.485 0 .89 1.078 1.5 2.875 1.5zm0-.563c-1.234 0-2.078-.375-2.078-.937 0-.578.844-.922 2.078-.922 1.188 0 2.063.344 2.063.938 0 .562-.86.921-2.063.921zm3.735 1.907V-3H.28v.64h3.344v.97H1.281V1.28h5.5V-1.39H4.406v-.968zM6.03.64H2.016V-.75H6.03zm0 0"/></symbol><symbol overflow="visible" id="f"><path d="M4.453-5.703H6.86v-.64H1.203v.64H3.61c-.046.562-.406 1.031-.937 1.406s-1.266.64-2.063.813c.188.171.422.406.563.562.61-.156 1.219-.39 1.734-.719.469-.28.86-.656 1.125-1.125.297.547.813.97 1.375 1.266.5.281 1.047.469 1.5.578.157-.187.313-.36.516-.562-.625-.125-1.328-.36-1.875-.704-.594-.375-1.031-.875-1.094-1.515zm3.313 4.187v-.625H.28v.625h3.39V1.36h.782v-2.875zm0 0"/></symbol><symbol overflow="visible" id="g"><path d="M7.125-.75v-5.875h-.75V-.75zM3.219-5.438v-1h-.781v1c0 .688-.235 1.282-.594 1.75-.407.532-.985.938-1.64 1.235.202.156.5.39.64.515.406-.203.844-.5 1.187-.859.36-.344.656-.765.797-1.203.219.438.563.813.938 1.14.359.297.75.532 1.093.688.125-.156.329-.39.516-.578a3.556 3.556 0 0 1-1.516-1.031c-.375-.453-.64-1.031-.64-1.656zm4.125 6.641v-.64h-4.75v-1.938h-.766v2.578zm0 0"/></symbol><symbol overflow="visible" id="h"><path d="M6.797-3.344v-3.203h-.75v.984H2v-.984h-.734v3.203zm-.75-.64H2v-.97h4.047zm1.719 2.109v-.64H.28v.64h3.485v1.719h.75v-1.719zm-.704 3.078v-.64H2.016V-1.11H1.28v2.312zm0 0"/></symbol><symbol overflow="visible" id="i"><path d="M6.875-3.984v-.594H2.031v-1.234h4.75v-.594h-5.5v2.422zm.89 1.312v-.61H.282v.61zm-.812 3.969V.703H2.11v-.75h4.672v-1.89h-5.5v.593h4.672v.719H1.281v1.922zm0 0"/></symbol><symbol overflow="visible" id="j"><path d="M7.11-.75v-5.875h-.75V-.75zM.61-4.406c0 1.14.874 2.093 2.124 2.093 1.235 0 2.11-.953 2.11-2.093 0-1.172-.875-2.11-2.11-2.11-1.25 0-2.125.938-2.125 2.11zm.765 0c0-.828.5-1.469 1.36-1.469.859 0 1.359.64 1.359 1.469 0 .797-.5 1.437-1.36 1.437-.859 0-1.359-.64-1.359-1.437zm5.969 5.61V.562H2.562v-1.985h-.75v2.625zm0 0"/></symbol><symbol overflow="visible" id="k"><path d="M6.781-4.016v-2.39H1.266v2.39zm-.734-.593H2v-1.204h4.047zm1.719 1.875v-.61H.28v.61h3.344v.796H1.281v.594h4.672v.719H1.281v1.922h5.672V.703H2.11v-.75h4.672v-1.89H4.406v-.797zm0 0"/></symbol><symbol overflow="visible" id="l"><path d="M4.438-5.656v-.657h-.813v.657c0 .703-.344 1.36-.89 1.89-.563.547-1.329.97-2.157 1.22.235.218.438.421.578.593a5.89 5.89 0 0 0 1.703-.953c.516-.422.938-.922 1.172-1.469.219.531.672 1.063 1.203 1.484.547.438 1.157.766 1.672.938.14-.188.36-.39.547-.578a5.116 5.116 0 0 1-2.031-1.156c-.578-.547-.984-1.25-.984-1.97zM7.78.359v-.64H4.406v-2.016h-.765V-.28H.28v.64zm0 0"/></symbol><symbol overflow="visible" id="m"><path d="M7.203 1.375v-8h-.75v2.969h-1V-6.5H4.72V.984h.734v-3.921h1v4.312zM.781-6.063v.641h2.25c-.031.906-.25 1.734-.656 2.469-.469.828-1.14 1.547-2.094 2.156.203.11.547.313.703.453.938-.687 1.688-1.515 2.172-2.594.39-.859.61-1.89.64-3.124zm0 0"/></symbol><symbol overflow="visible" id="n"><path d="M4.61-8.531a8.282 8.282 0 0 0-1.594.828A7.178 7.178 0 0 0 1.687-6.5a6.863 6.863 0 0 0-.953 1.453A3.928 3.928 0 0 0 .36-3.359c0 .75.223 1.507.672 2.265C1.477-.344 2.13.031 2.984.031c.715 0 1.286-.27 1.704-.812.425-.551.64-1.16.64-1.828a2.92 2.92 0 0 0-.516-1.641c-.343-.508-.847-.766-1.5-.766-.167 0-.34.036-.515.094-.18.055-.34.145-.485.266a.984.984 0 0 0-.187.156c-.063.074-.094.145-.094.203 0 .031.004.067.016.094.02.023.047.031.078.031.059 0 .148-.078.266-.234.12-.164.347-.25.671-.25.208 0 .395.058.563.172a1.5 1.5 0 0 1 .453.421c.152.243.274.508.36.797.09.293.14.586.14.875 0 .282-.043.555-.125.813-.086.262-.21.52-.375.766-.125.18-.273.324-.437.437a1.095 1.095 0 0 1-.594.156c-.7 0-1.195-.375-1.485-1.125-.292-.758-.437-1.406-.437-1.937 0-.614.11-1.192.328-1.735.215-.539.524-1.05.922-1.53.309-.384.703-.75 1.172-1.095.476-.34.953-.597 1.422-.765.039-.02.093-.04.156-.063.07-.027.11-.066.11-.11 0-.038-.012-.07-.032-.093a.122.122 0 0 0-.094-.047.728.728 0 0 0-.265.078c-.117.055-.196.09-.235.11zm0 0"/></symbol><symbol overflow="visible" id="o"><path d="M1.828-3.625c-.375.18-.726.383-1.047.61-.324.23-.484.59-.484 1.078 0 .292.078.57.234.828.164.25.36.46.578.625.239.18.493.308.766.39.27.086.555.125.86.125.34 0 .68-.05 1.015-.156.332-.102.629-.266.89-.484a2.03 2.03 0 0 0 .532-.72 2.01 2.01 0 0 0 .203-.874c0-.527-.2-.957-.594-1.281a2.944 2.944 0 0 0-1.265-.657l.328-.171c.332-.153.633-.329.906-.516.277-.195.422-.508.422-.938 0-.59-.242-1.023-.719-1.296a2.967 2.967 0 0 0-1.5-.422c-.281 0-.566.043-.844.125-.28.074-.539.199-.765.375a2.03 2.03 0 0 0-.563.625c-.148.261-.219.539-.219.828 0 .492.16.87.485 1.14.32.274.695.489 1.125.641zm1.328-.672c-.094 0-.242-.031-.437-.094a3.164 3.164 0 0 1-.438-.156 2.052 2.052 0 0 1-.703-.516 1.21 1.21 0 0 1-.297-.828c0-.183.04-.367.125-.546.09-.184.207-.336.344-.454.152-.132.328-.234.516-.296.183-.06.379-.094.578-.094.445 0 .828.144 1.14.422.32.273.485.644.485 1.109 0 .242-.059.465-.172.672-.106.21-.262.383-.469.516a2.53 2.53 0 0 1-.328.171.968.968 0 0 1-.344.094zm-.328 4.11c-.242 0-.473-.032-.687-.094a1.445 1.445 0 0 1-.594-.375 1.77 1.77 0 0 1-.36-.547 1.608 1.608 0 0 1-.125-.625c0-.352.083-.656.25-.906.165-.246.391-.47.672-.657.051-.039.141-.093.266-.156a.764.764 0 0 1 .297-.094c.09 0 .27.051.531.141.27.094.445.168.531.219.278.136.516.324.704.562.195.242.296.528.296.86 0 .199-.039.394-.109.578a2.04 2.04 0 0 1-.297.515c-.18.22-.387.371-.625.454a2.13 2.13 0 0 1-.75.124zm0 0"/></symbol><symbol overflow="visible" id="p"><path d="M6.11-7.11l-.016 2.204-3.125.062-.016-2.203zm1.312 2.126l.031-4.11c0-.375.188-.734-.328-.922-.438-.156-1.203-.234-1.469-.234-.953.063-.687.453-.36.578.485.188.829.281.829.672l-.016 1.14-3.156.048-.015-.86c0-.39.171-.625-.344-.812-.438-.141-1.125-.188-1.469-.204-1.016.063-.64.47-.438.547.563.188.907.375.907.75l.031 3.625c.016.985.328 1.344.61 1.313.374-.016.656-.453.703-.64l3.187-.063c.047.172.234.515.578.515.328 0 .688-.64.719-1.343zM10.64.14l-.016-1.75c.016-.454.484-.907-.313-1.079-.453-.062-.921 0-1.421.141-.47.14-4.25.219-5.422.047-1.266-.14-.844.406-.516.578C4.97-.812 5.078-1.594 6-1.64c.016 0 2.703-.093 3.234-.109L9.281.672c.016.86.219 1.734.531 1.719.344-.016.844-1.016.829-2.25zm.125-6.875l-.032-3.016c0-.734.344-1.156-.218-1.375-.391-.156-1.5-.328-1.704-.344-.953-.047-.968.39-.406.656.719.297 1 .422 1 1.063l.063 4.89c.015 1.079.11 1.907.469 1.891.39-.015.843-1.047.843-2.594v-.515h2.14c.97 0 1.157-.844.126-1.047-.438-.063-1.125-.078-1.297.078-.203.219-.625.281-.984.313zm0 0"/></symbol><symbol overflow="visible" id="r"><path d="M10-9.75l.063 9.656c0 1.36.046 2.64.5 2.625.53-.015.859-1.375.828-3.469l-.063-8.812c0-.734.344-1.156-.219-1.375-.39-.156-1.5-.328-1.703-.344-.953-.047-.969.39-.39.656.703.297.984.422.984 1.063zm-2.219.797c-.172-.031-1.172-.11-1.484.047-.375.172-1.875.172-2.953.172-.656 0-1.235-.094-1.438-.11-.75-.078-.984.25-.343.64 1.343.829 1.671.47 2.062.345.016 0 .266-.079.578-.094.39-.016 1.344-.094 2.125-.125-1.375 3.297-3.734 5.953-5.187 6.906-.422.266-.11.703.828.234C3.579-1.75 6.03-4.233 7.656-7.5c.25-.516.938-1.234.125-1.453zm0 0"/></symbol><symbol overflow="visible" id="s"><path d="M8.64-4.781c.485-.188.391-.735 0-.625-1.453.406-3.374.75-4.578.781-.25 0-.437-.063-.437-.39v-3.5c.422 0 3.078 0 3.672-.063.984-.11 1.031-.906.14-1.031-.578-.079-1.312-.079-1.75.234-.328.234-1.812.14-2.062.11-.75-.094-1.656-.188-2.078-.126-1.078.157-.625.579-.25.672.64.125.906.172.906.735v3.375c0 .921.36 1.125 1.172 1.109 1.563-.031 3.844-.688 5.266-1.281zm1.438-2.657c-.937.047-2.703.125-3.36.032-1.124-.094-.78.39-.421.593C7.78-6.03 8-6.39 8.25-6.468c.016-.015.375-.156.734-.203.016-.016.75-.047 1.11-.047l.031 1.782c.016 1.078.11 1.89.469 1.875.39-.016.844-1.047.844-2.594L11.39-9.75c0-.734.343-1.156-.22-1.375-.39-.156-1.515-.328-1.718-.344-.937-.047-.953.39-.39.656.718.297 1 .422 1 1.063zM11.297.141l-.016-1.813c.016-.469.485-.922-.312-1.078-.453-.078-.922 0-1.422.125-.469.14-4.25.234-5.422.047-1.266-.14-.844.406-.516.578 2.016 1.11 2.11.344 3.047.297.016 0 2.703-.11 3.235-.125l.046 2.5c.016.86.22 1.734.532 1.719.344-.016.844-1.016.828-2.25zm0 0"/></symbol><symbol overflow="visible" id="t"><path d="M3.39-5.844c.282-.047.297-.062.688-.093C3.11-4.173 1.891-3.11.625-2.36c-.234.14-.11.484.625.218.781-.28 1.656-.921 2.516-1.734.484.406 1.203 1.063 1.406 1.234.656.563 1.11.235.89-.218-.078-.172-.359-.641-.625-.875-.187-.172-.328-.063-.593-.204-.188-.078-.313-.187-.64-.406.39-.406.687-.828 1.046-1.328.313-.422.5-.828.047-.984-.11-.032-.953-.094-1.188.047-.28.156-.656.171-1.5.171-.437 0-.937-.062-1.093-.078-.625-.078-.782.204-.282.516 1.11.672 1.282.406 1.61.266.015 0 .312-.063.547-.11zm.891-1.437c.735-.047.922-.735-.078-.782-.75-.03-1.047-.093-1.625-.187-.547-.094-.828.125-.437.438.437.359.734.515 1.015.546.36.032.594.047 1.125-.015zM9.47.109v-1.218c0-.375.39-.735-.25-.875-.36-.047-.75 0-1.14.109-.376.11-4.22.188-5.157.047-1-.11-.672.312-.406.469 1.609.875 1.687.25 2.437.218.016 0 2.969-.078 3.406-.093l.032 1.78c.015.673.171 1.376.421 1.376.282-.016.672-.813.657-1.813zm-.906-4.375v.579c.015.859.078 1.515.359 1.5.312 0 .656-.829.656-2.063l-.031-3.547c0-.594.25-.922-.172-1.094-.313-.14-1.172-.265-1.328-.28-.735-.048-.75.312-.297.515.531.25.766.344.766.86l.03 2.89H7.454l-.031-2.375c0-.578.266-.922-.172-1.078-.297-.141-1.156-.266-1.328-.282-.719-.046-.734.313-.297.516.547.234.766.344.766.844l.062 3.64c.016.86.063 1.516.36 1.5.296 0 .656-.78.656-2.015v-.11zm0 0"/></symbol><symbol overflow="visible" id="u"><path d="M6.219-5.453c0-1.734-1.875-2.031-1.875-2.063 0-.218.156-.25.031-.437-.156-.266-1.36-.36-1.36.016 0 .14.36.187.141.421 0 .016-1.953.313-1.953 2.063 0 1.36 1.328 2.14 2.516 2.14 1.203 0 2.5-.78 2.5-2.14zM5.094-5.47C5.094-4.656 4.562-4 3.719-4c-.797 0-1.375-.672-1.375-1.469 0-.906.578-1.5 1.375-1.5.844 0 1.375.672 1.375 1.5zM8.14-7.797l.062 3.625c0 .86.078 1.516.36 1.516.312-.016.671-.844.671-2.078l-.03-3.063c0-.594.265-.922-.173-1.094-.312-.14-1.203-.265-1.375-.28-.75-.048-.765.312-.312.515.578.25.797.344.797.86zm-.235 6.125L7.875.734H5.094l-.047-2.39zM9.25 1c0-.172-.297-.25-.438-.266l.25-2.218c.047-.313.579-.594 0-.844-.359-.172-.953-.063-1.28.031-.188.063-2.485.078-2.61.078-.203 0-.656-.172-1.39-.14-.595.015-.845.437-.563.5.375.093.64.14.656.437l.188 2.594c.015.453.234.703.484.703.156 0 .453-.234.516-.531.39 0 2.265-.032 3.64-.032.328 0 .547-.109.547-.312zm0 0"/></symbol><symbol overflow="visible" id="v"><path d="M5.14-5.266c0 .797-.53 1.485-1.39 1.485-.844 0-1.406-.688-1.406-1.485 0-.89.562-1.562 1.406-1.562.875 0 1.39.703 1.39 1.562zm3.016-1.593c-.75.046-1.765.062-2.187 0-.219-.016-.375 0-.453.03-.547-.421-1.172-.515-1.172-.53 0-.235.156-.235.031-.438-.14-.281-1.36-.39-1.36 0 0 .156.344.188.141.438 0 .015-1.953.28-1.953 2.109 0 1.39 1.36 2.188 2.547 2.188.688 0 1.422-.266 1.922-.766 1.094.61 1.281.312 1.469.25.015 0 .28-.11.546-.156.016 0 .235 0 .485-.016l.015 1.672c.016.86.047 1.625.376 1.61.359-.016.671-.891.671-2.188l-.03-5.14c0-.595.265-.923-.173-1.095-.312-.14-1.203-.265-1.375-.28-.75-.048-.765.312-.312.515.578.25.797.344.797.86zm0 2.546c-.687.032-1.656.063-2.125.016.157-.281.235-.594.235-.953a2.01 2.01 0 0 0-.204-.922c.766.328.907.11 1.079.063.015-.016.28-.125.546-.157.016-.015.235-.015.47-.03zM9.641.548C9.266.484 8.594.516 8.375.672c-.234.172-.578.172-.828.172l-2 .031c-.188 0-.375-.11-.375-.328V-.906c0-.438.25-.735-.344-.813a6.066 6.066 0 0 0-1.312-.062c-1 .11-.516.468-.172.531.5.094.672.203.672.61V.546c0 .765.578.906 1.187.906l4.328-.047c.766 0 .953-.656.11-.86zm0 0"/></symbol><symbol overflow="visible" id="w"><path d="M6.031-3.25c1.625-.016 2.61-.047 3.36 0 .656.031 1.312.031 1.343-.375.032-.563-1.609-.625-2.53-.266-.095.047-.298.063-.548.079.203-.282.375-.72.547-1.235.36-1.047.625-2.36.64-2.437.079-.391.548-.735-.171-.907-.36-.078-.875-.015-1.219.11-.375.125-4.266.203-5.203.062-.906-.094-.64.313-.36.453 1.61.844 1.75.329 2.407.25.016 0 2.812-.125 3.312-.14-.093.937-.171 1.61-.39 2.547-.125.562-.297 1.03-.297 1.328-.578.015-1.172 0-1.438 0l-2.437.015C1.89-3.75 1.562-3.828.89-3.859c-.657-.032-1 .234-.282.546 1.813.813 1.86.25 2.594.204.031 0 .547-.079 1.672-.11l.047 3.14c0 1.079.094 2.11.453 2.11.422-.015.734-1.11.703-2.781zm0 0"/></symbol><symbol overflow="visible" id="x"><path d="M5.484-6.344c0 .672-.515 1.235-1.203 1.235-.703 0-1.218-.563-1.218-1.235 0-.687.515-1.234 1.218-1.234.688 0 1.203.547 1.203 1.234zm1.125.047c0-1.562-1.718-1.766-1.718-1.797 0-.219.125-.234.03-.406-.124-.266-1.343-.36-1.343.031 0 .125.36.14.14.375 0 .016-1.765.235-1.765 1.797 0 1.156 1.156 1.86 2.328 1.86s2.328-.704 2.328-1.86zM9.906.547C9.531.484 8.86.516 8.641.672c-.235.172-.579.172-.829.172L5.47.875c-.172 0-.36-.11-.36-.328v-.89c0-.438.235-.735-.359-.813-.328-.047-.953-.094-1.313-.047-.984.094-.515.453-.171.516.5.093.671.203.671.609v.625c0 .765.579.906 1.204.906l4.656-.047c.765 0 .953-.656.11-.86zM4.844-3.266c1-.156 2.062-.343 2.812-.546.485-.126.39-.563 0-.485-1.281.203-3.64.5-5.125.5-.422 0-.828-.031-1.187-.062-.969-.079-.828.312-.235.609 1.547.797 1.594.281 2.266.188.125-.016.25-.032.39-.047.016 0 .016.312.016.328.016.797.11 1.422.406 1.406.36-.016.672-.813.657-1.89zm3.61 1.141v.047c.015.86.046 1.625.374 1.61.375-.016.688-.891.688-2.188l-.047-5.14c0-.595.265-.923-.172-1.095-.313-.14-1.203-.265-1.375-.28-.75-.048-.766.312-.313.515.579.25.797.344.797.86l.047 5.093c-.75.047-1.89.078-2.39.015-.891-.078-.61.313-.329.47 1.188.64 1.375.343 1.563.28a2.17 2.17 0 0 1 .578-.156c.016-.015.328-.031.578-.031zm0 0"/></symbol><symbol overflow="visible" id="y"><path d="M4.156-6.078v-.516H1.61v.516zm1.157 1.234v-.515H.5v.515zM6.875-6.64h-.64V-.75h.64v-2.906h1.156v-.563H6.875zm-3.969 5c1.266 0 2.031-.625 2.031-1.343 0-.75-.75-1.375-2.03-1.375-1.25 0-2.032.625-2.032 1.375 0 .718.766 1.343 2.031 1.343zm4.219 2.72V.53H2.344V-1.14h-.656v2.22zM4.25-3c0 .453-.469.844-1.344.844-.86 0-1.328-.39-1.328-.844 0-.453.469-.86 1.328-.86.875 0 1.344.407 1.344.86zm0 0"/></symbol><symbol overflow="visible" id="z"><path d="M7.844-2.844v-.562H6.469c.047-.203.172-.735.281-1.313.094-.515.172-1.047.219-1.547H1.094v.547h5.125c-.078.828-.328 1.969-.407 2.313H.173v.562h3.39v1.672H1.11v.547h5.032V1.25h.656v-2.422H4.234v-1.672zm0 0"/></symbol><symbol overflow="visible" id="A"><path d="M5.016-5.703H.75v.562h3.563c-.016.938-.344 3.047-.36 3.157h.64c.016-.032.141-.782.266-1.72.063-.593.141-1.358.157-2zm1.828-.938h-.657V1.25h.657v-3.906h1.218v-.563H6.845zM5.828-.453V-1c-.672.11-2.406.219-3.187.219v-2.547h-.657v2.547H.313v.562h.875c2.406 0 3.812-.125 4.64-.234zm0 0"/></symbol><symbol overflow="visible" id="B"><path d="M4.156-6.078v-.516H1.61v.516zm1.157 1.187v-.515H.5v.515zM8.03-3.828v-.563H6.875v-2.25h-.64v5.047h.64v-2.234zM2.906-1.844c1.266 0 2.031-.562 2.031-1.297 0-.734-.75-1.28-2.03-1.28-1.25 0-2.032.546-2.032 1.28 0 .735.781 1.297 2.031 1.297zM6.875 1.25v-2.344H1.406v.532h4.828V1.25zM4.25-3.14c0 .453-.453.78-1.344.78-.86 0-1.344-.328-1.344-.78 0-.438.485-.782 1.344-.782.89 0 1.344.328 1.344.781zm0 0"/></symbol><symbol overflow="visible" id="C"><path d="M4.672-5.703h-3.64v.547h2.89a5.999 5.999 0 0 1-1.047 2.703c-.61.844-1.531 1.5-2.297 1.89l.5.407a6.956 6.956 0 0 0 2.406-2.11c.766-1.03 1.11-2.437 1.188-3.437zM7.203 1.25v-7.89h-.656v7.89zm0 0"/></symbol><symbol overflow="visible" id="D"><path d="M7.344-4.266c-.297-.046-1.266-.328-1.953-.75-.625-.39-1.032-.89-1.032-1.343v-.266h-.703v.266c0 .453-.406.953-1.031 1.343-.688.422-1.656.704-1.938.75l.375.47c.375-.079 1.172-.313 1.829-.72.593-.359 1.03-.796 1.125-1.078.078.282.515.719 1.109 1.078.656.407 1.453.641 1.828.72zm.5 1.5v-.53H.172v.53h3.5v.875H1.219v.516h4.89v.734H1.22v1.813H7V.625H1.922v-.734h4.89v-1.782H4.345v-.875zm0 0"/></symbol><symbol overflow="visible" id="E"><path d="M7.375 1.078V.531H2.453v-1.953h-.656v2.5zM7.172-.906v-5.735h-.656v1.063H4.39c-.375-.484-.97-.797-1.704-.797-1.234 0-2.109.875-2.109 1.969 0 1.078.875 1.953 2.11 1.953.78 0 1.421-.344 1.78-.89h2.048v2.437zm-.656-3H4.703a1.76 1.76 0 0 0 .078-.5c0-.219-.031-.422-.093-.61h1.828zM2.687-5.781c.907 0 1.407.61 1.407 1.375 0 .75-.5 1.36-1.407 1.36-.906 0-1.421-.61-1.421-1.36 0-.766.515-1.375 1.421-1.375zm0 0"/></symbol><symbol overflow="visible" id="F"><path d="M7.844-2.203v-.563H6.422c.047-.218.187-.89.281-1.468.11-.704.234-1.625.234-1.922H1.079v.562h5.125c-.078.89-.344 2.375-.453 2.828H.172v.563H3.5V1.25h.656v-3.453zm0 0"/></symbol><symbol overflow="visible" id="G"><path d="M3.172-6.688c-1.25 0-2.031.672-2.031 1.438 0 .766.765 1.438 2.03 1.438 1.267 0 2.032-.657 2.032-1.438 0-.766-.75-1.438-2.031-1.438zm4.062 6.22v-6.173h-.656v4.579H4.531v.546h2.047v1.047zm-.953-2.454v-.547c-.39.078-1.843.219-2.843.235L.453-3.22v.547h2v1.485h.64v-1.5c1.298 0 2.563-.126 3.188-.235zm1.157 4V.516h-4.97V-.86h-.64v1.937zM3.171-6.156c.953 0 1.39.484 1.39.906 0 .406-.437.89-1.375.89-.937 0-1.406-.484-1.406-.89 0-.422.453-.906 1.39-.906zm0 0"/></symbol><symbol overflow="visible" id="H"><path d="M5.719-1.922c0-.734-.14-1.453-.922-1.672.687-.219.86-.953.86-1.61C5.656-7.062 4.53-7 3.202-7H1v7h2.266c1.453 0 2.453-.016 2.453-1.922zm-.5-3.328c0 1.5-.813 1.469-2.016 1.469H1.438v-2.797H3.14c1.187 0 2.078-.125 2.078 1.328zm.047 3.36c0 1.562-.797 1.468-2.079 1.468h-1.75V-3.39h1.75c1.344 0 2.079-.046 2.079 1.5zm0 0"/></symbol><symbol overflow="visible" id="I"><path d="M1.406-.281c0-.25-.11-.36-.343-.36-.235 0-.344.11-.344.36 0 .234.11.36.344.36.234 0 .343-.126.343-.36zm0 0"/></symbol><symbol overflow="visible" id="J"><path d="M5.719-2.016c0-1.765-1.125-1.765-2.485-1.78-1.093-.017-2.046.093-2.046-1.329 0-1.406.812-1.516 2-1.516 1.078 0 2.046.063 2.046 1.438h.422c0-1.64-1.093-1.86-2.453-1.86C1.75-7.063.75-6.827.75-5.109c0 1.765 1.125 1.718 2.469 1.75 1.203.015 2.047-.079 2.047 1.375C5.266-.578 4.453-.36 3.25-.36c-1.11 0-2.063-.063-2.063-1.422H.75c0 1.64 1.11 1.86 2.469 1.86 1.484 0 2.5-.392 2.5-2.095zm0 0"/></symbol><symbol overflow="visible" id="L"><path d="M2.563 2v-.406c-.891 0-1.188-.25-1.376-.719C1 .359.829-1.265.829-3.219c0-1.953.172-3.594.36-4.11.187-.468.484-.718 1.375-.718v-.406c-1.063 0-1.594.312-1.844 1.14C.53-6.64.406-5.124.406-3.202.406-1.297.531.187.72.859.969 1.703 1.5 2 2.563 2zm0 0"/></symbol><symbol overflow="visible" id="M"><path d="M4.328 0v-.422h-1.64V-7h-.422L.562-5.437l.282.296L2.25-6.437v6.015H.594V0zm0 0"/></symbol><symbol overflow="visible" id="N"><path d="M4.875-3.797c0-1-.063-1.719-.203-2.125-.266-.75-.953-1.14-1.89-1.14-1.407 0-2.016.671-2.016 2.203 0 1.625.53 2.25 1.968 2.25.86 0 1.407-.36 1.704-.907 0 .625 0 1.688-.172 2.282-.172.609-.61.89-1.532.89-.968 0-1.437-.344-1.437-1.062H.859C.86-.36 1.563.078 2.75.078c1.172 0 1.844-.422 2-1.406.094-.5.125-1.36.125-2.469zm-.484-1.015c0 1.203-.563 1.765-1.704 1.765-1.109 0-1.5-.437-1.5-1.812 0-1.313.454-1.782 1.594-1.782 1.11 0 1.61.532 1.61 1.829zm0 0"/></symbol><symbol overflow="visible" id="O"><path d="M5.031-2.094V-2.5h-1V-7h-.453L.547-2.5v.406h3.047V0h.437v-2.094zM3.594-2.5H1.063l2.53-3.797zm0 0"/></symbol><symbol overflow="visible" id="P"><path d="M5.406-2.313v-.406H.313v.406zm0 0"/></symbol><symbol overflow="visible" id="Q"><path d="M2.563-3.203c0-1.922-.126-3.438-.313-4.11C2-8.14 1.469-8.453.406-8.453v.406c.89 0 1.188.25 1.375.719.188.516.36 2.156.36 4.11 0 1.952-.172 3.577-.36 4.093-.187.469-.484.719-1.375.719V2C1.47 2 2 1.703 2.25.86c.188-.672.313-2.157.313-4.063zm0 0"/></symbol><symbol overflow="visible" id="R"><path d="M5.188-7h-.485L2.672-3.516.609-7h-.5l2.313 3.922V0h.437v-3.078zm0 0"/></symbol><symbol overflow="visible" id="S"><path d="M4.844-2.5c0-1.5-.14-2.594-2.094-2.594C.797-5.094.672-4 .672-2.5.672-1 .797.078 2.75.078 4.703.078 4.844-1 4.844-2.5zm-.438 0c0 1.406-.093 2.14-1.656 2.14-1.547 0-1.64-.734-1.64-2.14 0-1.406.093-2.172 1.64-2.172 1.563 0 1.656.766 1.656 2.172zm0 0"/></symbol><symbol overflow="visible" id="T"><path d="M4.672 0v-2.672c0-.953.031-1.547-.406-2-.266-.281-.704-.422-1.36-.422-.64 0-1.297.188-1.64.844v-.766H.859V0h.438v-2.219c0-1.156-.078-2.453 1.61-2.453.452 0 .796.094 1.015.313.328.312.312.78.312 1.765V0zm0 0"/></symbol><symbol overflow="visible" id="U"><path d="M4.484-1.422c0-1.5-1.093-1.234-2.406-1.375-.719-.078-.969-.172-.953-.937 0-.688.422-.938 1.547-.938 1.078 0 1.39.313 1.39 1.016h.407c0-.453-.11-.797-.313-1.016-.281-.297-.765-.422-1.484-.422C1.312-5.109.687-4.75.687-3.656c0 1.484 1.016 1.234 2.36 1.36.812.077 1 .25 1 .905 0 .766-.453 1.047-1.563 1.047-1.125 0-1.468-.25-1.468-1.031H.609C.61-.281 1.156.063 2.484.078c1.344 0 2-.406 2-1.5zm0 0"/></symbol><symbol overflow="visible" id="V"><path d="M4.719-2.469c0-1.656-.188-2.625-2.016-2.625C.891-5.094.672-4.14.672-2.5.672-.812.922.078 2.719.078c.984 0 1.922-.281 1.922-1.453h-.407c0 .875-.796 1.016-1.5 1.016-1.515 0-1.625-.72-1.625-2.11zm-.422-.406H1.109c0-1.219.329-1.797 1.594-1.797 1.266 0 1.594.547 1.594 1.797zm0 0"/></symbol><symbol overflow="visible" id="W"><path d="M1.406-6.734c0-.235-.11-.329-.328-.329-.219 0-.328.094-.328.329 0 .218.11.343.328.343.219 0 .328-.125.328-.343zM1.296 0v-5.016H.86V0zm0 0"/></symbol><symbol overflow="visible" id="X"><path d="M5.672-3.516V-7h-.453v3.484c0 1.36.015 1.985-.219 2.422-.25.453-.766.735-1.703.735-.938 0-1.469-.282-1.719-.735-.234-.422-.187-1.062-.187-2.422V-7H.937v3.484c0 .579-.046 1.875.157 2.422C1.39-.297 2.14.078 3.297.078c1.062 0 1.687-.312 2.047-.906.375-.594.328-1.672.328-2.688zm0 0"/></symbol><symbol overflow="visible" id="Y"><path d="M4.438-5.016h-.454l-1.64 4.5-1.672-4.5H.219L2.079 0h.5zm0 0"/></symbol><symbol overflow="visible" id="Z"><path d="M4.281-3.656c0-1.016-.562-1.438-1.5-1.438-.578 0-1.156.157-1.515.813v-.735H.859V0h.438v-2.172c0-1.125-.094-2.5 1.437-2.5.72 0 1.141.219 1.141 1.016zm0 0"/></symbol><symbol overflow="visible" id="aa"><path d="M4.188-1.375H3.78c0 .75-.36 1.031-1.14 1.031-.75 0-1.11-.219-1.11-1.031v-3.234h2.25v-.407h-2.25V-7h-.437v1.984H.266v.407h.828v3.234c0 1.078.531 1.453 1.531 1.453.969 0 1.563-.39 1.563-1.453zm0 0"/></symbol><symbol overflow="visible" id="ab"><path d="M4.36-5.016h-.47L2.376-.578.797-5.016H.328l1.813 5L1.406 2h.438zm0 0"/></symbol><symbol overflow="visible" id="ac"><path d="M1.281.156v-.781H.86v.781c0 .438-.015.656-.343.969l-.188.203.266.281.265-.234c.36-.328.422-.625.422-1.219zm0 0"/></symbol><symbol overflow="visible" id="ad"><path d="M5.719-1.781h-.422C5.297-.72 4.859-.36 3.344-.36c-2.11 0-2.063-1.079-2.063-3.125 0-2.079-.047-3.157 2.063-3.157 1.515 0 1.953.36 1.953 1.438h.422c0-1.375-.657-1.86-2.297-1.86C.828-7.063.828-5.734.828-3.483c0 2.234 0 3.562 2.594 3.562 1.64 0 2.297-.5 2.297-1.86zm0 0"/></symbol><symbol overflow="visible" id="ae"><path d="M1.297 0v-7.313H.859V0zm0 0"/></symbol><symbol overflow="visible" id="af"><path d="M4.75-.453v-4.563h-.422v.735c-.312-.547-.875-.813-1.719-.813C.766-5.094.672-3.969.672-2.562.672-1 .812.015 2.609.015 3.453.016 4-.266 4.313-.813 4.296-.234 4.39.391 4.14.923c-.25.531-.829.687-1.5.687-.938 0-1.438-.312-1.438-1.015H.781c.016 1.015.735 1.437 1.89 1.437.845 0 1.548-.234 1.86-.937.172-.375.219-.797.219-1.547zm-.422-2.094c0 1.64-.469 2.11-1.766 2.11-1.406 0-1.453-.891-1.453-2.11 0-1.203.047-2.125 1.454-2.125 1.312 0 1.765.516 1.765 2.125zm0 0"/></symbol><symbol overflow="visible" id="ag"><path d="M4.297-6.219c0-.875-.75-1.156-1.61-1.156-.546 0-.984.094-1.28.39-.25.25-.345.579-.345 1.048v.921H.25v.407h.813V0H1.5v-4.61h2.188v-.406H1.5v-.921c0-.844.469-1.016 1.203-1.016.516 0 1.188.094 1.188.734zm0 0"/></symbol><symbol overflow="visible" id="ah"><path d="M5.078 0v-.422H1.453V-3.39H4.97v-.421H1.453v-2.766h3.625V-7H1v7zm0 0"/></symbol><symbol overflow="visible" id="ai"><path d="M5.875-3.5c0-1.547-.094-2.125-.375-2.64C5.11-6.767 4.531-7 3.297-7H1v7h2.297C4.53 0 5.109-.219 5.5-.86c.281-.5.375-1.093.375-2.64zm-.438 0c0 1.516-.109 2.078-.359 2.469-.281.437-.719.61-1.844.61H1.438v-6.157h1.796c1.125 0 1.563.156 1.844.61.25.39.36.952.36 2.468zm0 0"/></symbol><symbol overflow="visible" id="aj"><path d="M4.938-2.5c0-1.563-.172-2.594-1.954-2.594-.843 0-1.406.297-1.718.844v-.766H.859V2h.438V-.734c.312.546.844.812 1.687.812C4.781.078 4.938-.953 4.938-2.5zM4.5-2.516c0 1.204-.047 2.157-1.453 2.157-1.313 0-1.766-.5-1.766-2.157 0-1.64.453-2.14 1.766-2.14 1.406 0 1.453.937 1.453 2.14zm0 0"/></symbol><symbol overflow="visible" id="ak"><path d="M4.625 0v-2.922c0-1.14.14-2.172-1.875-2.172-1.016 0-2.031.219-2.031 1.453h.406c0-.937.828-1.03 1.547-1.03 1.625 0 1.515.609 1.515 1.702H2.47c-1.156 0-1.875.235-1.875 1.547 0 1.063.562 1.5 1.812 1.5.906 0 1.547-.281 1.813-.86V0zm-.438-2.563c.032 1.391-.14 2.235-1.812 2.235-.984 0-1.344-.328-1.344-1.094 0-1 .532-1.14 1.39-1.14zm0 0"/></symbol><symbol overflow="visible" id="al"><path d="M7.438 0v-3.031c0-.781.125-2.063-1.594-2.063-.61 0-1.282.219-1.594.907-.203-.704-.813-.907-1.469-.907-.61 0-1.219.203-1.515.797v-.719H.859V0h.438v-2.203c0-1.125-.094-2.469 1.437-2.469 1.125 0 1.188.61 1.188 1.625V0h.437v-2.203c0-1.188-.046-2.453 1.454-2.453 1.14 0 1.187.593 1.187 1.61V0zm0 0"/></symbol><symbol overflow="visible" id="am"><path d="M4.656-1.375h-.422c0 .89-.78 1.016-1.484 1.016-1.563 0-1.64-.766-1.64-2.157 0-1.406.077-2.156 1.64-2.156.703 0 1.484.156 1.484 1.031h.422c0-1.171-.937-1.453-1.922-1.453C.922-5.094.672-4.187.672-2.5.672-.812.906.078 2.734.078c.985 0 1.922-.266 1.922-1.453zm0 0"/></symbol><symbol overflow="visible" id="an"><path d="M4.672 0v-2.672c0-.953.031-1.531-.406-2-.266-.281-.72-.422-1.36-.422-.64 0-1.265.172-1.61.813v-3.032H.86V0h.438v-2.219c0-1.156-.078-2.453 1.61-2.453.452 0 .796.094 1.015.313.328.312.312.78.312 1.765V0zm0 0"/></symbol><symbol overflow="visible" id="ao"><path d="M7.328 0v-7h-.61L4.173-.5 1.594-7H1v7h.422v-6.344L3.922 0h.469l2.5-6.344V0zm0 0"/></symbol><symbol overflow="visible" id="ap"><path d="M4.875-5.125c0-.75-.156-1.234-.516-1.531-.328-.282-.875-.407-1.515-.407-1.281 0-1.985.36-1.985 1.47h.438c0-.798.5-1.048 1.578-1.048.766 0 1.219.188 1.406.594.11.234.157.531.157.922 0 .516-.11.844-.344 1.094-.375.437-1.438.672-2.032.906C1.345-2.844.86-2.437.86-1.531V0h4v-.422H1.297v-.906c0-.75.125-1.063.875-1.39.547-.235 1.719-.485 2.219-.97.343-.343.484-.796.484-1.437zm0 0"/></symbol><symbol overflow="visible" id="aq"><path d="M4.922-3.484c0-1.766-.047-2.235-.25-2.657-.313-.64-.89-.921-1.828-.921-.938 0-1.516.28-1.813.921-.203.422-.25.891-.25 2.657 0 1.53.031 2.03.172 2.421.25.782.875 1.141 1.89 1.141 1.032 0 1.657-.36 1.923-1.14.125-.391.156-.891.156-2.422zm-.438 0c0 1.53-.046 2.062-.203 2.421-.203.485-.61.72-1.437.72-.813 0-1.219-.235-1.438-.72-.14-.359-.187-.89-.187-2.421 0-1.344.047-1.938.14-2.266.188-.61.594-.89 1.485-.89.906 0 1.312.28 1.5.89.093.328.14.922.14 2.266zm0 0"/></symbol><symbol overflow="visible" id="ar"><path d="M5.656-5.11C5.656-7 4.672-7 3.188-7H1v7h.438v-3.234h1.75c1.468 0 2.468-.032 2.468-1.875zm-.453-.015c0 1.547-.812 1.469-2.062 1.469H1.437v-2.922h1.704c1.234 0 2.062-.063 2.062 1.453zm0 0"/></symbol><symbol overflow="visible" id="aB"><path d="M5.656 0v-1.61c0-.671.11-1.687-.875-1.937.703-.203.875-.86.875-1.562C5.656-7.063 4.61-7 3.188-7H1v7h.438v-3.328H3.14c1.921 0 2.078.125 2.078 1.75V0zM5.22-5.14c0 1.5-.813 1.39-2.016 1.39H1.438v-2.828H3.14c1.218 0 2.078-.078 2.078 1.437zm0 0"/></symbol><symbol overflow="visible" id="aC"><path d="M1.438 0v-7H1v7zm0 0"/></symbol><symbol overflow="visible" id="aD"><path d="M4.594 0v-5.016h-.438v2.235c0 1.14.078 2.437-1.61 2.437-.452 0-.796-.094-1.015-.312-.328-.313-.328-.781-.328-1.766v-2.594H.766v2.672c0 .953-.016 1.547.421 2 .266.281.704.422 1.36.422.64 0 1.281-.187 1.64-.828V0zm0 0"/></symbol><symbol overflow="visible" id="aE"><path d="M5.578 0l-3.75-3.516L5.562-7h-.625l-3.5 3.313V-7H1v7h.438v-3.297L4.905 0zm0 0"/></symbol><symbol overflow="visible" id="aF"><path d="M5.734-3.484v-.422H5.11v-.735h-.406v.735H2.781c-1.031 0-1.562-.188-1.562-1.344 0-1.078.343-1.39 1.562-1.39 1.078 0 1.516.265 1.547 1.109h.422c-.031-1.157-.672-1.532-1.984-1.532-1.438 0-1.97.47-1.97 1.782 0 .843.157 1.343.97 1.578-.72.187-1.032.734-1.032 1.797 0 1.61.704 1.984 2.188 1.984.828 0 1.406-.156 1.734-.515.407-.407.469-.985.469-1.86v-1.187zm-1.03 1.187c0 .781-.048 1.266-.345 1.563-.234.234-.671.375-1.437.375-1.203 0-1.766-.188-1.766-1.516 0-1.313.407-1.61 1.625-1.61h1.922zm0 0"/></symbol><symbol overflow="visible" id="aG"><path d="M5.14-6.578V-7H.314v.422H2.5V0h.453v-6.578zm0 0"/></symbol><symbol overflow="visible" id="aH"><path d="M4.906-2.14c0-1.61-.547-2.235-1.984-2.235-.86 0-1.39.344-1.688.906 0-.64-.015-1.703.157-2.281.187-.625.609-.89 1.53-.89.97 0 1.454.327 1.454 1.046h.422c0-1.047-.703-1.468-1.875-1.468-1.188 0-1.844.421-2 1.39-.094.516-.14 1.36-.14 2.469 0 1 .077 1.719.218 2.14.266.735.938 1.141 1.89 1.141 1.407 0 2.016-.687 2.016-2.219zm-.437.015c0 1.297-.438 1.766-1.594 1.766-1.11 0-1.61-.532-1.61-1.829 0-1.187.563-1.765 1.72-1.765 1.109 0 1.484.437 1.484 1.828zm0 0"/></symbol><symbol overflow="visible" id="aI"><path d="M3.922-2.313v-.406H.953v.406zm0 0"/></symbol><symbol overflow="visible" id="aJ"><path d="M4.766 0v-7.313h-.438v3.032c-.328-.547-.844-.813-1.703-.813C.828-5.094.672-4.016.672-2.5.672-.937.828.078 2.625.078c.844 0 1.406-.281 1.719-.828V0zm-.438-2.5c0 1.656-.437 2.14-1.75 2.14C1.156-.36 1.11-1.28 1.11-2.5c0-1.25.079-2.156 1.47-2.156 1.312 0 1.75.5 1.75 2.156zm0 0"/></symbol><symbol overflow="visible" id="aK"><path d="M5.625 0v-7h-.438v6.344L1.547-7H1v7h.438v-6.36L5.063 0zm0 0"/></symbol><symbol overflow="visible" id="aL"><path d="M5.64 0v-7h-.437v3.188H1.437V-7H1v7h.438v-3.39h3.765V0zm0 0"/></symbol><symbol overflow="visible" id="aM"><path d="M5.906 0L3.313-7h-.47L.267 0h.453L1.5-2.14h3.14L5.439 0zM4.484-2.531H1.656l1.422-3.922zm0 0"/></symbol><symbol overflow="visible" id="as"><path d="M6.438-8.672v1.063h-4.25v2.796h3.984v1.063H2.188v3.016h4.328V.328H1v-9zm0 0"/></symbol><symbol overflow="visible" id="at"><path d="M5.125-.531a1.53 1.53 0 0 1-.797.734 2.888 2.888 0 0 1-1.125.219c-.844 0-1.488-.254-1.922-.75C.844-.836.625-1.555.625-2.484v-1.22c0-.444.063-.85.188-1.218.12-.371.3-.687.53-.937.227-.246.505-.438.829-.563.32-.133.68-.203 1.078-.203.508 0 .91.09 1.203.266.29.18.504.367.64.562v-3.312h1.173V.328H5.14v-.86zm-.016-3.594c0-.164-.043-.336-.125-.516a1.535 1.535 0 0 0-.359-.468 2.03 2.03 0 0 0-.563-.329 2.003 2.003 0 0 0-.703-.125c-.5 0-.894.18-1.171.532-.274.355-.407.863-.407 1.515v.829c0 .656.14 1.164.422 1.515.277.356.664.531 1.156.531.246 0 .477-.035.688-.109.207-.082.39-.195.547-.344.152-.152.281-.336.375-.547.09-.207.14-.445.14-.718zm0 0"/></symbol><symbol overflow="visible" id="au"><path d="M.844-6.5h1.172v4.234c0 .586.113 1.008.343 1.266.227.25.586.375 1.079.375.195 0 .394-.035.593-.11.196-.07.375-.175.532-.312.152-.133.28-.305.375-.516.09-.207.14-.44.14-.703V-6.5h1.188V.328H5.125v-.86h-.016c-.199.313-.46.552-.78.72-.325.175-.724.265-1.188.265-.325 0-.63-.055-.907-.156a1.969 1.969 0 0 1-.718-.438 2.19 2.19 0 0 1-.5-.765c-.118-.301-.172-.66-.172-1.078zm0 0"/></symbol><symbol overflow="visible" id="av"><path d="M3.469-6.625c.539 0 .988.074 1.344.219.351.136.664.316.937.531l-.563.906a3.097 3.097 0 0 0-.843-.468 2.922 2.922 0 0 0-.875-.125c-.219 0-.434.042-.64.125a1.38 1.38 0 0 0-.532.359 1.75 1.75 0 0 0-.36.61c-.093.25-.14.55-.14.89v.875c0 .367.047.68.14.937.09.262.22.477.375.641.153.156.333.277.532.36.207.074.422.109.64.109.434 0 .797-.055 1.079-.172.289-.121.554-.274.796-.453l.563.922c-.242.199-.559.375-.953.53-.387.165-.887.25-1.5.25-.918 0-1.63-.273-2.125-.812C.852-.94.609-1.71.609-2.703v-.86c0-.488.067-.921.204-1.296.132-.383.32-.707.562-.97.246-.257.55-.456.906-.593a3.35 3.35 0 0 1 1.188-.203zm0 0"/></symbol><symbol overflow="visible" id="aw"><path d="M2.781.422c-.668 0-1.199-.168-1.594-.5C.801-.418.61-.895.61-1.5v-.328c0-.582.188-1.055.563-1.422.383-.371 1-.563 1.844-.563h1.687v-.39c0-.457-.113-.797-.328-1.016-.21-.226-.559-.343-1.047-.343-.387 0-.726.066-1.015.187a5.978 5.978 0 0 0-.891.5l-.578-.89c.32-.239.687-.442 1.094-.61.402-.164.875-.25 1.406-.25.37 0 .71.05 1.015.14.301.094.563.239.782.423.226.187.406.417.53.687.122.273.188.582.188.922V.328H4.734V-.5H4.72a1.164 1.164 0 0 1-.266.344 1.841 1.841 0 0 1-.344.265c-.18.102-.37.18-.578.235-.21.05-.46.078-.75.078zm1.922-3.203H3.047c-.469 0-.805.097-1 .281-.2.18-.297.43-.297.75v.172c0 .336.113.582.344.734.226.149.5.219.812.219.29 0 .54-.035.75-.11.215-.07.414-.175.594-.312a.994.994 0 0 0 .344-.422c.07-.164.11-.379.11-.64zm0 0"/></symbol><symbol overflow="visible" id="ax"><path d="M1.36-5.469H.265V-6.5h1.093v-1.734h1.172V-6.5h1.75v1.031h-1.75v3.89c0 .212.02.38.063.5.039.126.097.227.172.298.07.062.16.113.265.14.114.024.227.032.344.032.29 0 .582-.055.875-.172l.188.984a4.19 4.19 0 0 1-.563.14 2.98 2.98 0 0 1-.672.079c-.637 0-1.105-.164-1.406-.484-.293-.32-.438-.829-.438-1.516zm0 0"/></symbol><symbol overflow="visible" id="ay"><path d="M2.156-6.5V.328H.984V-6.5zm.031-2.453v1.328H.938v-1.328zm0 0"/></symbol><symbol overflow="visible" id="az"><path d="M3.563-6.625c.902 0 1.624.273 2.156.813.527.542.797 1.308.797 2.296v.829c0 .992-.27 1.757-.797 2.296-.532.54-1.254.813-2.157.813-.917 0-1.644-.274-2.171-.813C.867-.93.609-1.695.609-2.687v-.829c0-.996.258-1.765.782-2.296.527-.54 1.254-.813 2.171-.813zm0 5.984c.519 0 .94-.175 1.265-.53.332-.352.5-.891.5-1.61v-.64c0-.716-.168-1.255-.5-1.61-.324-.352-.746-.532-1.266-.532-.53 0-.96.18-1.28.532-.325.355-.485.894-.485 1.61v.64c0 .719.16 1.258.484 1.61.32.355.75.53 1.281.53zm0 0"/></symbol><symbol overflow="visible" id="aA"><path d="M6.406.328H5.234v-4.25c0-.57-.12-.988-.359-1.25-.23-.258-.59-.39-1.078-.39-.211 0-.414.039-.61.109a1.636 1.636 0 0 0-.922.828c-.093.21-.14.45-.14.719V.328H.937V-6.5h1.141v.86h.016c.195-.32.46-.567.797-.735.332-.164.726-.25 1.187-.25.32 0 .625.055.906.156.278.094.524.242.735.438.215.199.383.457.5.765.12.305.187.664.187 1.079zm0 0"/></symbol><symbol overflow="visible" id="aN"><path d="M1-8.672h3.11c.495 0 .93.067 1.296.188.364.125.66.304.89.53.24.231.415.509.532.829.121.313.188.652.188 1.016v.265c0 .367-.067.711-.188 1.032a2.337 2.337 0 0 1-.562.843 2.637 2.637 0 0 1-.907.578c-.355.137-.773.204-1.25.204H2.188V.328H1zm1.188 1.063v3.359h1.718c1.258 0 1.89-.54 1.89-1.625v-.219c0-.508-.151-.89-.452-1.14-.305-.246-.739-.375-1.297-.375zm0 0"/></symbol><symbol overflow="visible" id="aO"><path d="M3-.625c.434 0 .773-.078 1.016-.234a.738.738 0 0 0 .375-.657v-.093a.941.941 0 0 0-.063-.36.602.602 0 0 0-.234-.265 2.26 2.26 0 0 0-.469-.204 11.98 11.98 0 0 0-.75-.203 5.824 5.824 0 0 1-.969-.265 3.106 3.106 0 0 1-.718-.39 1.5 1.5 0 0 1-.454-.563 1.914 1.914 0 0 1-.14-.766v-.156c0-.227.047-.457.14-.688.102-.226.254-.426.454-.593.195-.165.453-.301.765-.407.309-.101.68-.156 1.11-.156.445 0 .867.055 1.265.156.395.106.754.278 1.078.516l-.515.906a2.57 2.57 0 0 0-.782-.39 3.051 3.051 0 0 0-.968-.157c-.493 0-.848.082-1.063.235a.709.709 0 0 0-.312.593v.11c0 .273.109.472.328.593.215.125.586.243 1.11.344a6.41 6.41 0 0 1 1.046.281c.3.106.547.243.734.407.196.156.344.351.438.578.09.219.14.492.14.812v.157c0 .261-.058.511-.171.75a1.9 1.9 0 0 1-.5.609 2.572 2.572 0 0 1-.797.39 3.385 3.385 0 0 1-1.047.157A4.763 4.763 0 0 1 1.53.188C1.082.039.7-.156.391-.406l.546-.938c.29.211.602.383.938.516.34.137.719.203 1.125.203zm0 0"/></symbol></defs><g fill="#231f20"><use xlink:href="#a" x="74.885" y="47.763"/><use xlink:href="#b" x="82.886" y="47.763"/><use xlink:href="#c" x="85.492" y="47.763"/><use xlink:href="#d" x="88.099" y="47.763"/><use xlink:href="#e" x="96.1" y="47.763"/><use xlink:href="#f" x="104.1" y="47.763"/><use xlink:href="#g" x="112.1" y="47.763"/><use xlink:href="#c" x="120.1" y="47.763"/><use xlink:href="#h" x="122.707" y="47.763"/><use xlink:href="#i" x="130.707" y="47.763"/><use xlink:href="#c" x="138.708" y="47.763"/><use xlink:href="#j" x="141.315" y="47.763"/><use xlink:href="#k" x="149.315" y="47.763"/><use xlink:href="#c" x="157.315" y="47.763"/><use xlink:href="#l" x="159.922" y="47.763"/><use xlink:href="#m" x="167.922" y="47.763"/></g><g fill="#393536"><use xlink:href="#n" x="42.468" y="48.426"/><use xlink:href="#o" x="48.041" y="48.426"/></g><g fill="#33459a"><use xlink:href="#p" x="206.678" y="250.25"/><use xlink:href="#q" x="220.193" y="250.25"/><use xlink:href="#r" x="225.134" y="250.25"/><use xlink:href="#q" x="238.649" y="250.25"/><use xlink:href="#s" x="243.59" y="250.25"/><use xlink:href="#q" x="257.105" y="250.25"/></g><g fill="#33459a"><use xlink:href="#t" x="262.045" y="249.351"/><use xlink:href="#u" x="272.857" y="249.351"/><use xlink:href="#v" x="283.669" y="249.351"/><use xlink:href="#w" x="294.481" y="249.351"/><use xlink:href="#x" x="305.293" y="249.351"/></g><g fill="#231f20"><use xlink:href="#y" x="206.678" y="270.763"/><use xlink:href="#z" x="214.525" y="270.763"/><use xlink:href="#A" x="222.373" y="270.763"/><use xlink:href="#B" x="230.22" y="270.763"/><use xlink:href="#C" x="238.068" y="270.763"/><use xlink:href="#D" x="245.915" y="270.763"/><use xlink:href="#E" x="253.762" y="270.763"/><use xlink:href="#F" x="261.61" y="270.763"/><use xlink:href="#G" x="269.457" y="270.763"/></g><g fill="#33459a"><use xlink:href="#H" x="77.858" y="356.482"/><use xlink:href="#I" x="84.328" y="356.482"/><use xlink:href="#J" x="86.342" y="356.482"/><use xlink:href="#I" x="92.71" y="356.482"/><use xlink:href="#K" x="94.724" y="356.482"/><use xlink:href="#L" x="97.369" y="356.482"/><use xlink:href="#M" x="100.238" y="356.482"/><use xlink:href="#N" x="104.693" y="356.482"/><use xlink:href="#N" x="110.258" y="356.482"/><use xlink:href="#O" x="115.822" y="356.482"/><use xlink:href="#K" x="121.336" y="356.482"/><use xlink:href="#P" x="123.981" y="356.482"/><use xlink:href="#K" x="129.596" y="356.482"/><use xlink:href="#M" x="132.241" y="356.482"/><use xlink:href="#N" x="136.696" y="356.482"/><use xlink:href="#N" x="142.261" y="356.482"/><use xlink:href="#N" x="147.825" y="356.482"/><use xlink:href="#Q" x="153.39" y="356.482"/></g><g fill="#231f20"><use xlink:href="#R" x="174.827" y="356.482"/><use xlink:href="#S" x="180.025" y="356.482"/><use xlink:href="#T" x="185.437" y="356.482"/><use xlink:href="#U" x="190.788" y="356.482"/><use xlink:href="#V" x="195.782" y="356.482"/><use xlink:href="#W" x="201.072" y="356.482"/><use xlink:href="#K" x="203.117" y="356.482"/><use xlink:href="#X" x="205.762" y="356.482"/><use xlink:href="#T" x="212.262" y="356.482"/><use xlink:href="#W" x="217.613" y="356.482"/><use xlink:href="#Y" x="219.658" y="356.482"/><use xlink:href="#V" x="224.205" y="356.482"/><use xlink:href="#Z" x="229.494" y="356.482"/><use xlink:href="#U" x="233.797" y="356.482"/><use xlink:href="#W" x="238.792" y="356.482"/><use xlink:href="#aa" x="240.837" y="356.482"/><use xlink:href="#ab" x="245.181" y="356.482"/><use xlink:href="#ac" x="249.707" y="356.482"/><use xlink:href="#K" x="251.722" y="356.482"/><use xlink:href="#ad" x="254.367" y="356.482"/><use xlink:href="#S" x="260.724" y="356.482"/><use xlink:href="#ae" x="266.136" y="356.482"/><use xlink:href="#ae" x="268.181" y="356.482"/><use xlink:href="#V" x="270.226" y="356.482"/><use xlink:href="#af" x="275.515" y="356.482"/><use xlink:href="#V" x="281.019" y="356.482"/><use xlink:href="#K" x="286.309" y="356.482"/><use xlink:href="#S" x="288.953" y="356.482"/><use xlink:href="#ag" x="294.365" y="356.482"/><use xlink:href="#K" x="298.668" y="356.482"/><use xlink:href="#ah" x="301.313" y="356.482"/><use xlink:href="#T" x="307.142" y="356.482"/><use xlink:href="#af" x="312.493" y="356.482"/><use xlink:href="#W" x="317.996" y="356.482"/><use xlink:href="#T" x="320.041" y="356.482"/><use xlink:href="#V" x="325.392" y="356.482"/><use xlink:href="#V" x="330.682" y="356.482"/><use xlink:href="#Z" x="335.971" y="356.482"/><use xlink:href="#W" x="340.274" y="356.482"/><use xlink:href="#T" x="342.319" y="356.482"/><use xlink:href="#af" x="347.67" y="356.482"/><use xlink:href="#ac" x="353.173" y="356.482"/><use xlink:href="#K" x="355.187" y="356.482"/><use xlink:href="#ai" x="357.832" y="356.482"/><use xlink:href="#V" x="364.445" y="356.482"/><use xlink:href="#aj" x="369.734" y="356.482"/><use xlink:href="#ak" x="375.248" y="356.482"/><use xlink:href="#Z" x="380.548" y="356.482"/><use xlink:href="#aa" x="384.851" y="356.482"/><use xlink:href="#al" x="389.195" y="356.482"/><use xlink:href="#V" x="397.302" y="356.482"/><use xlink:href="#T" x="402.592" y="356.482"/><use xlink:href="#aa" x="407.943" y="356.482"/><use xlink:href="#K" x="412.286" y="356.482"/><use xlink:href="#S" x="414.931" y="356.482"/><use xlink:href="#ag" x="420.343" y="356.482"/><use xlink:href="#K" x="424.646" y="356.482"/><use xlink:href="#H" x="427.291" y="356.482"/><use xlink:href="#W" x="433.761" y="356.482"/><use xlink:href="#S" x="435.806" y="356.482"/><use xlink:href="#aa" x="441.217" y="356.482"/><use xlink:href="#V" x="445.561" y="356.482"/><use xlink:href="#am" x="450.851" y="356.482"/><use xlink:href="#an" x="455.988" y="356.482"/><use xlink:href="#T" x="461.339" y="356.482"/><use xlink:href="#S" x="466.69" y="356.482"/><use xlink:href="#ae" x="472.101" y="356.482"/><use xlink:href="#S" x="474.146" y="356.482"/><use xlink:href="#af" x="479.558" y="356.482"/><use xlink:href="#ab" x="485.061" y="356.482"/><use xlink:href="#I" x="489.588" y="356.482"/></g><g fill="#33459a"><use xlink:href="#ao" x="77.858" y="376.879"/><use xlink:href="#I" x="86.088" y="376.879"/><use xlink:href="#J" x="88.102" y="376.879"/><use xlink:href="#I" x="94.47" y="376.879"/><use xlink:href="#K" x="96.484" y="376.879"/><use xlink:href="#L" x="99.129" y="376.879"/><use xlink:href="#M" x="101.998" y="376.879"/><use xlink:href="#N" x="106.453" y="376.879"/><use xlink:href="#N" x="112.018" y="376.879"/><use xlink:href="#N" x="117.582" y="376.879"/><use xlink:href="#K" x="123.147" y="376.879"/><use xlink:href="#P" x="125.791" y="376.879"/><use xlink:href="#K" x="131.407" y="376.879"/><use xlink:href="#ap" x="134.052" y="376.879"/><use xlink:href="#aq" x="139.545" y="376.879"/><use xlink:href="#aq" x="145.15" y="376.879"/><use xlink:href="#M" x="150.755" y="376.879"/><use xlink:href="#Q" x="155.211" y="376.879"/></g><g fill="#231f20"><use xlink:href="#R" x="174.827" y="376.879"/><use xlink:href="#S" x="180.025" y="376.879"/><use xlink:href="#T" x="185.437" y="376.879"/><use xlink:href="#U" x="190.788" y="376.879"/><use xlink:href="#V" x="195.782" y="376.879"/><use xlink:href="#W" x="201.072" y="376.879"/><use xlink:href="#K" x="203.117" y="376.879"/><use xlink:href="#X" x="205.762" y="376.879"/><use xlink:href="#T" x="212.262" y="376.879"/><use xlink:href="#W" x="217.613" y="376.879"/><use xlink:href="#Y" x="219.658" y="376.879"/><use xlink:href="#V" x="224.205" y="376.879"/><use xlink:href="#Z" x="229.494" y="376.879"/><use xlink:href="#U" x="233.797" y="376.879"/><use xlink:href="#W" x="238.792" y="376.879"/><use xlink:href="#aa" x="240.837" y="376.879"/><use xlink:href="#ab" x="245.181" y="376.879"/><use xlink:href="#ac" x="249.707" y="376.879"/><use xlink:href="#K" x="251.722" y="376.879"/><use xlink:href="#ad" x="254.367" y="376.879"/><use xlink:href="#S" x="260.724" y="376.879"/><use xlink:href="#ae" x="266.136" y="376.879"/><use xlink:href="#ae" x="268.181" y="376.879"/><use xlink:href="#V" x="270.226" y="376.879"/><use xlink:href="#af" x="275.515" y="376.879"/><use xlink:href="#V" x="281.019" y="376.879"/><use xlink:href="#K" x="286.309" y="376.879"/><use xlink:href="#S" x="288.953" y="376.879"/><use xlink:href="#ag" x="294.365" y="376.879"/><use xlink:href="#K" x="298.668" y="376.879"/><use xlink:href="#ah" x="301.313" y="376.879"/><use xlink:href="#T" x="307.142" y="376.879"/><use xlink:href="#af" x="312.493" y="376.879"/><use xlink:href="#W" x="317.996" y="376.879"/><use xlink:href="#T" x="320.041" y="376.879"/><use xlink:href="#V" x="325.392" y="376.879"/><use xlink:href="#V" x="330.682" y="376.879"/><use xlink:href="#Z" x="335.971" y="376.879"/><use xlink:href="#W" x="340.274" y="376.879"/><use xlink:href="#T" x="342.319" y="376.879"/><use xlink:href="#af" x="347.67" y="376.879"/><use xlink:href="#ac" x="353.173" y="376.879"/><use xlink:href="#K" x="355.187" y="376.879"/><use xlink:href="#ai" x="357.832" y="376.879"/><use xlink:href="#V" x="364.445" y="376.879"/><use xlink:href="#aj" x="369.734" y="376.879"/><use xlink:href="#ak" x="375.248" y="376.879"/><use xlink:href="#Z" x="380.548" y="376.879"/><use xlink:href="#aa" x="384.851" y="376.879"/><use xlink:href="#al" x="389.195" y="376.879"/><use xlink:href="#V" x="397.302" y="376.879"/><use xlink:href="#T" x="402.592" y="376.879"/><use xlink:href="#aa" x="407.943" y="376.879"/><use xlink:href="#K" x="412.286" y="376.879"/><use xlink:href="#S" x="414.931" y="376.879"/><use xlink:href="#ag" x="420.343" y="376.879"/><use xlink:href="#K" x="424.646" y="376.879"/><use xlink:href="#H" x="427.291" y="376.879"/><use xlink:href="#W" x="433.761" y="376.879"/><use xlink:href="#S" x="435.806" y="376.879"/><use xlink:href="#aa" x="441.217" y="376.879"/><use xlink:href="#V" x="445.561" y="376.879"/><use xlink:href="#am" x="450.851" y="376.879"/><use xlink:href="#an" x="455.988" y="376.879"/><use xlink:href="#T" x="461.339" y="376.879"/><use xlink:href="#S" x="466.69" y="376.879"/><use xlink:href="#ae" x="472.101" y="376.879"/><use xlink:href="#S" x="474.146" y="376.879"/><use xlink:href="#af" x="479.558" y="376.879"/><use xlink:href="#ab" x="485.061" y="376.879"/><use xlink:href="#I" x="489.588" y="376.879"/></g><g fill="#33459a"><use xlink:href="#ar" x="77.858" y="398.691"/><use xlink:href="#an" x="83.88" y="398.691"/><use xlink:href="#I" x="89.231" y="398.691"/><use xlink:href="#ai" x="91.245" y="398.691"/><use xlink:href="#I" x="97.857" y="398.691"/><use xlink:href="#K" x="99.872" y="398.691"/><use xlink:href="#L" x="102.516" y="398.691"/><use xlink:href="#ap" x="105.385" y="398.691"/><use xlink:href="#aq" x="110.878" y="398.691"/><use xlink:href="#aq" x="116.483" y="398.691"/><use xlink:href="#M" x="122.089" y="398.691"/><use xlink:href="#K" x="126.544" y="398.691"/><use xlink:href="#P" x="129.189" y="398.691"/><use xlink:href="#K" x="134.804" y="398.691"/><use xlink:href="#ap" x="137.449" y="398.691"/><use xlink:href="#aq" x="142.942" y="398.691"/><use xlink:href="#aq" x="148.548" y="398.691"/><use xlink:href="#O" x="154.153" y="398.691"/><use xlink:href="#Q" x="159.666" y="398.691"/><use xlink:href="#K" x="162.535" y="398.691"/></g><g fill="#231f20"><use xlink:href="#R" x="174.827" y="398.691"/><use xlink:href="#S" x="180.025" y="398.691"/><use xlink:href="#T" x="185.437" y="398.691"/><use xlink:href="#U" x="190.788" y="398.691"/><use xlink:href="#V" x="195.782" y="398.691"/><use xlink:href="#W" x="201.072" y="398.691"/><use xlink:href="#K" x="203.117" y="398.691"/><use xlink:href="#X" x="205.762" y="398.691"/><use xlink:href="#T" x="212.262" y="398.691"/><use xlink:href="#W" x="217.613" y="398.691"/><use xlink:href="#Y" x="219.658" y="398.691"/><use xlink:href="#V" x="224.205" y="398.691"/><use xlink:href="#Z" x="229.494" y="398.691"/><use xlink:href="#U" x="233.797" y="398.691"/><use xlink:href="#W" x="238.792" y="398.691"/><use xlink:href="#aa" x="240.837" y="398.691"/><use xlink:href="#ab" x="245.181" y="398.691"/><use xlink:href="#ac" x="249.707" y="398.691"/><use xlink:href="#K" x="251.722" y="398.691"/><use xlink:href="#ad" x="254.367" y="398.691"/><use xlink:href="#S" x="260.724" y="398.691"/><use xlink:href="#ae" x="266.136" y="398.691"/><use xlink:href="#ae" x="268.181" y="398.691"/><use xlink:href="#V" x="270.226" y="398.691"/><use xlink:href="#af" x="275.515" y="398.691"/><use xlink:href="#V" x="281.019" y="398.691"/><use xlink:href="#K" x="286.309" y="398.691"/><use xlink:href="#S" x="288.953" y="398.691"/><use xlink:href="#ag" x="294.365" y="398.691"/><use xlink:href="#K" x="298.668" y="398.691"/><use xlink:href="#ah" x="301.313" y="398.691"/><use xlink:href="#T" x="307.142" y="398.691"/><use xlink:href="#af" x="312.493" y="398.691"/><use xlink:href="#W" x="317.996" y="398.691"/><use xlink:href="#T" x="320.041" y="398.691"/><use xlink:href="#V" x="325.392" y="398.691"/><use xlink:href="#V" x="330.682" y="398.691"/><use xlink:href="#Z" x="335.971" y="398.691"/><use xlink:href="#W" x="340.274" y="398.691"/><use xlink:href="#T" x="342.319" y="398.691"/><use xlink:href="#af" x="347.67" y="398.691"/><use xlink:href="#ac" x="353.173" y="398.691"/><use xlink:href="#K" x="355.187" y="398.691"/><use xlink:href="#ai" x="357.832" y="398.691"/><use xlink:href="#V" x="364.445" y="398.691"/><use xlink:href="#aj" x="369.734" y="398.691"/><use xlink:href="#ak" x="375.248" y="398.691"/><use xlink:href="#Z" x="380.548" y="398.691"/><use xlink:href="#aa" x="384.851" y="398.691"/><use xlink:href="#al" x="389.195" y="398.691"/><use xlink:href="#V" x="397.302" y="398.691"/><use xlink:href="#T" x="402.592" y="398.691"/><use xlink:href="#aa" x="407.943" y="398.691"/><use xlink:href="#K" x="412.286" y="398.691"/><use xlink:href="#S" x="414.931" y="398.691"/><use xlink:href="#ag" x="420.343" y="398.691"/><use xlink:href="#K" x="424.646" y="398.691"/><use xlink:href="#H" x="427.291" y="398.691"/><use xlink:href="#W" x="433.761" y="398.691"/><use xlink:href="#S" x="435.806" y="398.691"/><use xlink:href="#aa" x="441.217" y="398.691"/><use xlink:href="#V" x="445.561" y="398.691"/><use xlink:href="#am" x="450.851" y="398.691"/><use xlink:href="#an" x="455.988" y="398.691"/><use xlink:href="#T" x="461.339" y="398.691"/><use xlink:href="#S" x="466.69" y="398.691"/><use xlink:href="#ae" x="472.101" y="398.691"/><use xlink:href="#S" x="474.146" y="398.691"/><use xlink:href="#af" x="479.558" y="398.691"/><use xlink:href="#ab" x="485.061" y="398.691"/><use xlink:href="#I" x="489.588" y="398.691"/></g><g fill="#fff"><use xlink:href="#as" x="119.052" y="329.355"/><use xlink:href="#at" x="126.052" y="329.355"/><use xlink:href="#au" x="133.027" y="329.355"/><use xlink:href="#av" x="139.991" y="329.355"/><use xlink:href="#aw" x="145.913" y="329.355"/><use xlink:href="#ax" x="152.355" y="329.355"/><use xlink:href="#ay" x="156.824" y="329.355"/><use xlink:href="#az" x="159.718" y="329.355"/><use xlink:href="#aA" x="166.597" y="329.355"/></g><path d="M76.441 600.926h96.97M173.41 600.926h327.711" fill="none" stroke-width=".299637" stroke="#33459a" stroke-miterlimit="10"/><g fill="#33459a"><use xlink:href="#ap" x="77.858" y="488.963"/><use xlink:href="#aq" x="83.351" y="488.963"/><use xlink:href="#M" x="88.956" y="488.963"/><use xlink:href="#M" x="93.412" y="488.963"/><use xlink:href="#P" x="97.868" y="488.963"/><use xlink:href="#aj" x="103.483" y="488.963"/><use xlink:href="#Z" x="108.996" y="488.963"/><use xlink:href="#V" x="113.299" y="488.963"/><use xlink:href="#U" x="118.589" y="488.963"/><use xlink:href="#V" x="123.584" y="488.963"/><use xlink:href="#T" x="128.874" y="488.963"/><use xlink:href="#aa" x="134.225" y="488.963"/><use xlink:href="#K" x="138.568" y="488.963"/></g><g fill="#231f20"><use xlink:href="#ar" x="174.827" y="488.963"/><use xlink:href="#Z" x="180.849" y="488.963"/><use xlink:href="#W" x="185.152" y="488.963"/><use xlink:href="#T" x="187.197" y="488.963"/><use xlink:href="#am" x="192.547" y="488.963"/><use xlink:href="#W" x="197.685" y="488.963"/><use xlink:href="#aj" x="199.729" y="488.963"/><use xlink:href="#ak" x="205.243" y="488.963"/><use xlink:href="#ae" x="210.543" y="488.963"/><use xlink:href="#K" x="212.588" y="488.963"/><use xlink:href="#aB" x="215.232" y="488.963"/><use xlink:href="#V" x="221.682" y="488.963"/><use xlink:href="#U" x="226.972" y="488.963"/><use xlink:href="#V" x="231.966" y="488.963"/><use xlink:href="#ak" x="237.256" y="488.963"/><use xlink:href="#Z" x="242.556" y="488.963"/><use xlink:href="#am" x="246.859" y="488.963"/><use xlink:href="#an" x="251.996" y="488.963"/><use xlink:href="#V" x="257.347" y="488.963"/><use xlink:href="#Z" x="262.637" y="488.963"/><use xlink:href="#ac" x="266.94" y="488.963"/><use xlink:href="#K" x="268.954" y="488.963"/><use xlink:href="#H" x="271.599" y="488.963"/><use xlink:href="#Z" x="278.069" y="488.963"/><use xlink:href="#ak" x="282.372" y="488.963"/><use xlink:href="#W" x="287.672" y="488.963"/><use xlink:href="#T" x="289.716" y="488.963"/><use xlink:href="#K" x="295.067" y="488.963"/><use xlink:href="#J" x="297.712" y="488.963"/><use xlink:href="#am" x="304.08" y="488.963"/><use xlink:href="#W" x="309.217" y="488.963"/><use xlink:href="#V" x="311.262" y="488.963"/><use xlink:href="#T" x="316.552" y="488.963"/><use xlink:href="#am" x="321.903" y="488.963"/><use xlink:href="#V" x="327.04" y="488.963"/><use xlink:href="#K" x="332.33" y="488.963"/><use xlink:href="#aC" x="334.974" y="488.963"/><use xlink:href="#T" x="337.314" y="488.963"/><use xlink:href="#U" x="342.665" y="488.963"/><use xlink:href="#aa" x="347.66" y="488.963"/><use xlink:href="#W" x="352.003" y="488.963"/><use xlink:href="#aa" x="354.048" y="488.963"/><use xlink:href="#aD" x="358.392" y="488.963"/><use xlink:href="#aa" x="363.743" y="488.963"/><use xlink:href="#V" x="368.086" y="488.963"/><use xlink:href="#K" x="373.376" y="488.963"/><use xlink:href="#aE" x="376.021" y="488.963"/><use xlink:href="#S" x="381.738" y="488.963"/><use xlink:href="#Z" x="387.15" y="488.963"/><use xlink:href="#V" x="391.453" y="488.963"/><use xlink:href="#ak" x="396.743" y="488.963"/><use xlink:href="#K" x="402.043" y="488.963"/><use xlink:href="#aC" x="404.687" y="488.963"/><use xlink:href="#T" x="407.027" y="488.963"/><use xlink:href="#U" x="412.378" y="488.963"/><use xlink:href="#aa" x="417.373" y="488.963"/><use xlink:href="#W" x="421.716" y="488.963"/><use xlink:href="#aa" x="423.761" y="488.963"/><use xlink:href="#aD" x="428.105" y="488.963"/><use xlink:href="#aa" x="433.456" y="488.963"/><use xlink:href="#V" x="437.799" y="488.963"/><use xlink:href="#K" x="443.089" y="488.963"/><use xlink:href="#S" x="445.734" y="488.963"/><use xlink:href="#ag" x="451.146" y="488.963"/><use xlink:href="#K" x="455.449" y="488.963"/><use xlink:href="#K" x="458.094" y="488.963"/><use xlink:href="#J" x="460.739" y="488.963"/><use xlink:href="#am" x="467.107" y="488.963"/><use xlink:href="#W" x="472.244" y="488.963"/><use xlink:href="#V" x="474.289" y="488.963"/><use xlink:href="#T" x="479.578" y="488.963"/><use xlink:href="#am" x="484.929" y="488.963"/><use xlink:href="#V" x="490.066" y="488.963"/><use xlink:href="#K" x="495.356" y="488.963"/></g><g fill="#231f20"><use xlink:href="#aF" x="174.827" y="502.946"/><use xlink:href="#K" x="180.839" y="502.946"/><use xlink:href="#aG" x="183.484" y="502.946"/><use xlink:href="#V" x="188.834" y="502.946"/><use xlink:href="#am" x="194.124" y="502.946"/><use xlink:href="#an" x="199.261" y="502.946"/><use xlink:href="#T" x="204.612" y="502.946"/><use xlink:href="#S" x="209.963" y="502.946"/><use xlink:href="#ae" x="215.375" y="502.946"/><use xlink:href="#S" x="217.42" y="502.946"/><use xlink:href="#af" x="222.831" y="502.946"/><use xlink:href="#ab" x="228.335" y="502.946"/><use xlink:href="#K" x="232.862" y="502.946"/><use xlink:href="#L" x="235.506" y="502.946"/><use xlink:href="#aE" x="238.375" y="502.946"/><use xlink:href="#aC" x="244.092" y="502.946"/><use xlink:href="#J" x="246.432" y="502.946"/><use xlink:href="#aG" x="252.8" y="502.946"/><use xlink:href="#Q" x="258.151" y="502.946"/></g><g fill="#33459a"><use xlink:href="#ap" x="77.858" y="523.342"/><use xlink:href="#aq" x="83.351" y="523.342"/><use xlink:href="#M" x="88.956" y="523.342"/><use xlink:href="#ap" x="93.412" y="523.342"/><use xlink:href="#P" x="98.905" y="523.342"/><use xlink:href="#aj" x="104.52" y="523.342"/><use xlink:href="#Z" x="110.034" y="523.342"/><use xlink:href="#V" x="114.337" y="523.342"/><use xlink:href="#U" x="119.627" y="523.342"/><use xlink:href="#V" x="124.622" y="523.342"/><use xlink:href="#T" x="129.911" y="523.342"/><use xlink:href="#aa" x="135.262" y="523.342"/><use xlink:href="#K" x="139.606" y="523.342"/></g><g fill="#231f20"><use xlink:href="#ar" x="174.827" y="523.342"/><use xlink:href="#Z" x="180.849" y="523.342"/><use xlink:href="#S" x="185.152" y="523.342"/><use xlink:href="#ag" x="190.564" y="523.342"/><use xlink:href="#V" x="194.867" y="523.342"/><use xlink:href="#U" x="200.157" y="523.342"/><use xlink:href="#U" x="205.151" y="523.342"/><use xlink:href="#S" x="210.146" y="523.342"/><use xlink:href="#Z" x="215.558" y="523.342"/><use xlink:href="#ac" x="219.861" y="523.342"/><use xlink:href="#K" x="221.875" y="523.342"/><use xlink:href="#aE" x="224.52" y="523.342"/><use xlink:href="#aC" x="230.237" y="523.342"/><use xlink:href="#J" x="232.577" y="523.342"/><use xlink:href="#aG" x="238.945" y="523.342"/><use xlink:href="#K" x="244.296" y="523.342"/><use xlink:href="#J" x="246.941" y="523.342"/><use xlink:href="#am" x="253.309" y="523.342"/><use xlink:href="#an" x="258.446" y="523.342"/><use xlink:href="#S" x="263.797" y="523.342"/><use xlink:href="#S" x="269.208" y="523.342"/><use xlink:href="#ae" x="274.62" y="523.342"/><use xlink:href="#ac" x="276.665" y="523.342"/><use xlink:href="#K" x="278.679" y="523.342"/><use xlink:href="#X" x="281.324" y="523.342"/><use xlink:href="#T" x="287.824" y="523.342"/><use xlink:href="#W" x="293.175" y="523.342"/><use xlink:href="#Y" x="295.22" y="523.342"/><use xlink:href="#V" x="299.767" y="523.342"/><use xlink:href="#Z" x="305.057" y="523.342"/><use xlink:href="#U" x="309.36" y="523.342"/><use xlink:href="#W" x="314.355" y="523.342"/><use xlink:href="#aa" x="316.399" y="523.342"/><use xlink:href="#ab" x="320.743" y="523.342"/><use xlink:href="#K" x="325.27" y="523.342"/><use xlink:href="#S" x="327.915" y="523.342"/><use xlink:href="#ag" x="333.326" y="523.342"/><use xlink:href="#K" x="337.63" y="523.342"/><use xlink:href="#J" x="340.274" y="523.342"/><use xlink:href="#am" x="346.642" y="523.342"/><use xlink:href="#W" x="351.78" y="523.342"/><use xlink:href="#V" x="353.824" y="523.342"/><use xlink:href="#T" x="359.114" y="523.342"/><use xlink:href="#am" x="364.465" y="523.342"/><use xlink:href="#V" x="369.602" y="523.342"/><use xlink:href="#K" x="374.892" y="523.342"/><use xlink:href="#aF" x="377.537" y="523.342"/><use xlink:href="#K" x="383.549" y="523.342"/><use xlink:href="#aG" x="386.194" y="523.342"/><use xlink:href="#V" x="391.544" y="523.342"/><use xlink:href="#am" x="396.834" y="523.342"/><use xlink:href="#an" x="401.971" y="523.342"/><use xlink:href="#T" x="407.322" y="523.342"/><use xlink:href="#S" x="412.673" y="523.342"/><use xlink:href="#ae" x="418.085" y="523.342"/><use xlink:href="#S" x="420.13" y="523.342"/><use xlink:href="#af" x="425.541" y="523.342"/><use xlink:href="#ab" x="431.045" y="523.342"/><use xlink:href="#K" x="435.572" y="523.342"/><use xlink:href="#L" x="438.216" y="523.342"/><use xlink:href="#X" x="441.085" y="523.342"/><use xlink:href="#J" x="447.585" y="523.342"/><use xlink:href="#aG" x="453.953" y="523.342"/><use xlink:href="#Q" x="459.304" y="523.342"/></g><g fill="#33459a"><use xlink:href="#ap" x="77.858" y="543.739"/><use xlink:href="#aq" x="83.351" y="543.739"/><use xlink:href="#aq" x="88.956" y="543.739"/><use xlink:href="#aH" x="94.561" y="543.739"/><use xlink:href="#P" x="100.146" y="543.739"/><use xlink:href="#ap" x="105.762" y="543.739"/><use xlink:href="#aq" x="111.255" y="543.739"/><use xlink:href="#M" x="116.86" y="543.739"/><use xlink:href="#M" x="121.315" y="543.739"/><use xlink:href="#K" x="125.771" y="543.739"/></g><g fill="#231f20"><use xlink:href="#ar" x="174.827" y="543.739"/><use xlink:href="#S" x="180.849" y="543.739"/><use xlink:href="#U" x="186.261" y="543.739"/><use xlink:href="#aa" x="191.256" y="543.739"/><use xlink:href="#aI" x="195.599" y="543.739"/><use xlink:href="#aJ" x="200.38" y="543.739"/><use xlink:href="#S" x="205.894" y="543.739"/><use xlink:href="#am" x="211.306" y="543.739"/><use xlink:href="#I" x="216.443" y="543.739"/><use xlink:href="#ac" x="218.457" y="543.739"/><use xlink:href="#K" x="220.471" y="543.739"/><use xlink:href="#J" x="223.116" y="543.739"/><use xlink:href="#am" x="229.484" y="543.739"/><use xlink:href="#an" x="234.621" y="543.739"/><use xlink:href="#S" x="239.972" y="543.739"/><use xlink:href="#S" x="245.384" y="543.739"/><use xlink:href="#ae" x="250.796" y="543.739"/><use xlink:href="#K" x="252.841" y="543.739"/><use xlink:href="#S" x="255.486" y="543.739"/><use xlink:href="#ag" x="260.897" y="543.739"/><use xlink:href="#K" x="265.2" y="543.739"/><use xlink:href="#ar" x="267.845" y="543.739"/><use xlink:href="#an" x="273.867" y="543.739"/><use xlink:href="#ak" x="279.218" y="543.739"/><use xlink:href="#Z" x="284.518" y="543.739"/><use xlink:href="#al" x="288.821" y="543.739"/><use xlink:href="#ak" x="296.929" y="543.739"/><use xlink:href="#am" x="302.229" y="543.739"/><use xlink:href="#ab" x="307.366" y="543.739"/><use xlink:href="#ac" x="311.893" y="543.739"/><use xlink:href="#K" x="313.907" y="543.739"/><use xlink:href="#X" x="316.552" y="543.739"/><use xlink:href="#T" x="323.052" y="543.739"/><use xlink:href="#W" x="328.403" y="543.739"/><use xlink:href="#Y" x="330.448" y="543.739"/><use xlink:href="#V" x="334.995" y="543.739"/><use xlink:href="#Z" x="340.285" y="543.739"/><use xlink:href="#U" x="344.588" y="543.739"/><use xlink:href="#W" x="349.582" y="543.739"/><use xlink:href="#aa" x="351.627" y="543.739"/><use xlink:href="#ab" x="355.971" y="543.739"/><use xlink:href="#K" x="360.498" y="543.739"/><use xlink:href="#S" x="363.142" y="543.739"/><use xlink:href="#ag" x="368.554" y="543.739"/><use xlink:href="#K" x="372.857" y="543.739"/><use xlink:href="#aK" x="375.502" y="543.739"/><use xlink:href="#S" x="382.023" y="543.739"/><use xlink:href="#Z" x="387.435" y="543.739"/><use xlink:href="#aa" x="391.738" y="543.739"/><use xlink:href="#an" x="396.081" y="543.739"/><use xlink:href="#K" x="401.432" y="543.739"/><use xlink:href="#ad" x="404.077" y="543.739"/><use xlink:href="#ak" x="410.435" y="543.739"/><use xlink:href="#Z" x="415.735" y="543.739"/><use xlink:href="#S" x="420.038" y="543.739"/><use xlink:href="#ae" x="425.45" y="543.739"/><use xlink:href="#W" x="427.494" y="543.739"/><use xlink:href="#T" x="429.539" y="543.739"/><use xlink:href="#ak" x="434.89" y="543.739"/><use xlink:href="#K" x="440.19" y="543.739"/><use xlink:href="#ak" x="442.835" y="543.739"/><use xlink:href="#aa" x="448.135" y="543.739"/><use xlink:href="#K" x="452.478" y="543.739"/><use xlink:href="#ad" x="455.123" y="543.739"/><use xlink:href="#an" x="461.481" y="543.739"/><use xlink:href="#ak" x="466.832" y="543.739"/><use xlink:href="#aj" x="472.132" y="543.739"/><use xlink:href="#V" x="477.646" y="543.739"/><use xlink:href="#ae" x="482.935" y="543.739"/><use xlink:href="#K" x="484.98" y="543.739"/></g><g fill="#231f20"><use xlink:href="#aL" x="174.827" y="557.722"/><use xlink:href="#W" x="181.368" y="557.722"/><use xlink:href="#ae" x="183.412" y="557.722"/><use xlink:href="#ae" x="185.457" y="557.722"/><use xlink:href="#ac" x="187.502" y="557.722"/><use xlink:href="#K" x="189.516" y="557.722"/><use xlink:href="#X" x="192.161" y="557.722"/><use xlink:href="#J" x="198.661" y="557.722"/><use xlink:href="#aM" x="205.029" y="557.722"/></g><g fill="#33459a"><use xlink:href="#ap" x="77.858" y="579.534"/><use xlink:href="#aq" x="83.351" y="579.534"/><use xlink:href="#aq" x="88.956" y="579.534"/><use xlink:href="#O" x="94.561" y="579.534"/><use xlink:href="#P" x="100.075" y="579.534"/><use xlink:href="#ap" x="105.69" y="579.534"/><use xlink:href="#aq" x="111.184" y="579.534"/><use xlink:href="#aq" x="116.789" y="579.534"/><use xlink:href="#aH" x="122.394" y="579.534"/><use xlink:href="#K" x="127.979" y="579.534"/></g><g fill="#231f20"><use xlink:href="#ar" x="174.827" y="579.534"/><use xlink:href="#S" x="180.849" y="579.534"/><use xlink:href="#U" x="186.261" y="579.534"/><use xlink:href="#aa" x="191.256" y="579.534"/><use xlink:href="#aI" x="195.599" y="579.534"/><use xlink:href="#aJ" x="200.38" y="579.534"/><use xlink:href="#S" x="205.894" y="579.534"/><use xlink:href="#am" x="211.306" y="579.534"/><use xlink:href="#I" x="216.443" y="579.534"/><use xlink:href="#K" x="218.457" y="579.534"/><use xlink:href="#L" x="221.102" y="579.534"/><use xlink:href="#aM" x="223.971" y="579.534"/><use xlink:href="#Z" x="230.044" y="579.534"/><use xlink:href="#al" x="234.347" y="579.534"/><use xlink:href="#ab" x="242.454" y="579.534"/><use xlink:href="#K" x="246.981" y="579.534"/><use xlink:href="#U" x="249.626" y="579.534"/><use xlink:href="#V" x="254.621" y="579.534"/><use xlink:href="#Z" x="259.911" y="579.534"/><use xlink:href="#Y" x="264.214" y="579.534"/><use xlink:href="#W" x="268.761" y="579.534"/><use xlink:href="#am" x="270.806" y="579.534"/><use xlink:href="#V" x="275.943" y="579.534"/><use xlink:href="#Q" x="281.232" y="579.534"/><use xlink:href="#ac" x="284.101" y="579.534"/><use xlink:href="#K" x="286.115" y="579.534"/><use xlink:href="#aE" x="288.76" y="579.534"/><use xlink:href="#S" x="294.477" y="579.534"/><use xlink:href="#Z" x="299.889" y="579.534"/><use xlink:href="#V" x="304.192" y="579.534"/><use xlink:href="#ak" x="309.482" y="579.534"/><use xlink:href="#K" x="314.782" y="579.534"/><use xlink:href="#aB" x="317.427" y="579.534"/><use xlink:href="#V" x="323.876" y="579.534"/><use xlink:href="#U" x="329.166" y="579.534"/><use xlink:href="#V" x="334.161" y="579.534"/><use xlink:href="#ak" x="339.45" y="579.534"/><use xlink:href="#Z" x="344.75" y="579.534"/><use xlink:href="#am" x="349.053" y="579.534"/><use xlink:href="#an" x="354.191" y="579.534"/><use xlink:href="#K" x="359.541" y="579.534"/><use xlink:href="#aC" x="362.186" y="579.534"/><use xlink:href="#T" x="364.526" y="579.534"/><use xlink:href="#U" x="369.877" y="579.534"/><use xlink:href="#aa" x="374.871" y="579.534"/><use xlink:href="#W" x="379.215" y="579.534"/><use xlink:href="#aa" x="381.26" y="579.534"/><use xlink:href="#aD" x="385.604" y="579.534"/><use xlink:href="#aa" x="390.954" y="579.534"/><use xlink:href="#V" x="395.298" y="579.534"/><use xlink:href="#K" x="400.588" y="579.534"/><use xlink:href="#S" x="403.233" y="579.534"/><use xlink:href="#ag" x="408.645" y="579.534"/><use xlink:href="#K" x="412.948" y="579.534"/><use xlink:href="#H" x="415.593" y="579.534"/><use xlink:href="#W" x="422.062" y="579.534"/><use xlink:href="#S" x="424.107" y="579.534"/><use xlink:href="#U" x="429.519" y="579.534"/><use xlink:href="#am" x="434.514" y="579.534"/><use xlink:href="#W" x="439.651" y="579.534"/><use xlink:href="#V" x="441.695" y="579.534"/><use xlink:href="#T" x="446.985" y="579.534"/><use xlink:href="#am" x="452.336" y="579.534"/><use xlink:href="#V" x="457.473" y="579.534"/><use xlink:href="#K" x="462.763" y="579.534"/><use xlink:href="#aF" x="465.408" y="579.534"/><use xlink:href="#K" x="471.42" y="579.534"/></g><g fill="#231f20"><use xlink:href="#H" x="174.827" y="593.517"/><use xlink:href="#W" x="181.297" y="593.517"/><use xlink:href="#S" x="183.341" y="593.517"/><use xlink:href="#aa" x="188.753" y="593.517"/><use xlink:href="#V" x="193.097" y="593.517"/><use xlink:href="#am" x="198.387" y="593.517"/><use xlink:href="#an" x="203.524" y="593.517"/><use xlink:href="#T" x="208.875" y="593.517"/><use xlink:href="#S" x="214.225" y="593.517"/><use xlink:href="#ae" x="219.637" y="593.517"/><use xlink:href="#S" x="221.682" y="593.517"/><use xlink:href="#af" x="227.094" y="593.517"/><use xlink:href="#ab" x="232.597" y="593.517"/><use xlink:href="#K" x="237.124" y="593.517"/><use xlink:href="#L" x="239.769" y="593.517"/><use xlink:href="#aE" x="242.638" y="593.517"/><use xlink:href="#aB" x="248.355" y="593.517"/><use xlink:href="#aC" x="254.804" y="593.517"/><use xlink:href="#H" x="257.144" y="593.517"/><use xlink:href="#H" x="263.613" y="593.517"/><use xlink:href="#Q" x="270.083" y="593.517"/></g><g fill="#fff"><use xlink:href="#aN" x="119.052" y="459.57"/><use xlink:href="#az" x="126.282" y="459.57"/><use xlink:href="#aO" x="133.16" y="459.57"/><use xlink:href="#ay" x="138.949" y="459.57"/><use xlink:href="#ax" x="141.844" y="459.57"/><use xlink:href="#ay" x="146.312" y="459.57"/><use xlink:href="#az" x="149.207" y="459.57"/><use xlink:href="#aA" x="156.085" y="459.57"/></g></svg>