<svg xmlns="http://www.w3.org/2000/svg" xmlns:xlink="http://www.w3.org/1999/xlink" width="793.701" height="1058.268" viewBox="0 0 595.276 793.701" version="1.2"><defs><symbol overflow="visible" id="a"><path d="M1.36-5.844V.453h.812v-6.297zM5.124.453l1.734-6.297h-.843L4.64-.484l-1.375-5.36h-.86L4.141.453zm0 0"/></symbol><symbol overflow="visible" id="b"><path d="M.75.047v1.016h1.031V.046zm0 0"/></symbol><symbol overflow="visible" id="d"><path d="M3.75.703v-.64H.984c.11-.704.532-1.36.97-1.672l.5-.375c.452-.329.78-.672.905-.844.313-.422.438-.922.438-1.438 0-1.078-.578-1.953-1.719-1.953-1.203 0-1.75.985-1.75 2.344H1c0-.922.328-1.75 1.063-1.75.624 0 .984.531.984 1.375 0 .39-.094.828-.297 1.078-.172.281-.313.406-.64.672l-.704.531C.625-1.359.22-.297.203.703zm0 0"/></symbol><symbol overflow="visible" id="e"><path d="M2-6.219C.86-6.219.281-4.89.281-2.656.281-.437.86.875 2 .875c1.156 0 1.75-1.313 1.75-3.531C3.75-4.891 3.14-6.22 2-6.22zm0 .61c.656 0 1.047 1.14 1.047 2.953C3.047-.86 2.657.266 2 .266 1.36.266.984-.86.984-2.656.984-4.47 1.36-5.61 2-5.61zm0 0"/></symbol><symbol overflow="visible" id="f"><path d="M.656-4.422h1.219v5.11h.719v-6.875h-.547c-.11.906-.453 1.312-1.39 1.359zm0 0"/></symbol><symbol overflow="visible" id="g"><path d="M7.016-.75v-5.875H6.28v.703H4.078v.594h2.203v.828H4.078v.61h2.203v3.14zM5.562-3.14c-.515.124-1.937.28-2.78.296l-1.157.016v-3.578h-.75v4.234c.047 0 1.328 0 1.922-.015 1.11-.032 2.25-.172 2.765-.313zM7.22 1.202v-.64H2.484v-1.829H1.72v2.47zm0 0"/></symbol><symbol overflow="visible" id="h"><path d="M6-6.625v8h.766v-4.234h1.187v-.672H6.766v-3.094zM3.125-4.687v-1.594h-.797v1.468c0 .875-.187 1.672-.578 2.36C1.36-1.75.766-1.156.016-.688c.234.141.5.36.656.5.422-.28.86-.703 1.25-1.203.375-.468.672-.984.812-1.468.188.546.532 1.03.907 1.468.359.391.765.735 1.14 1 .157-.14.375-.375.594-.53-.75-.438-1.328-.985-1.734-1.641-.344-.594-.516-1.297-.516-2.126zm0 0"/></symbol><symbol overflow="visible" id="i"><path d="M7.094-2.406v-4.219h-.75v1.766H4.75c-.125-.985-.984-1.688-2.063-1.688C1.5-6.547.61-5.703.61-4.578c0 1.11.907 1.953 2.079 1.953 1.046 0 1.874-.656 2.062-1.594h1.594v1.813zM1.359-4.578c0-.734.532-1.313 1.344-1.313.813 0 1.328.579 1.328 1.313 0 .719-.515 1.297-1.328 1.297-.812 0-1.344-.578-1.344-1.297zm5.72 5.86v-3.298h-.735v.97H2.547v-.97H1.78v3.297zm-.735-.61H2.547v-1.11h3.797zm0 0"/></symbol><symbol overflow="visible" id="j"><path d="M7.781.375v-.656H4.406v-1.75H6.75v-4.281h-.734v1.406h-3.97v-1.407h-.75v4.282h2.345v1.75H.28v.656zM6.016-2.672h-3.97v-1.61h3.97zm0 0"/></symbol><symbol overflow="visible" id="k"><path d="M1.156-6.156v.625h4.907c-.047 1.25-.266 2.765-.516 4.078h.75c.297-1.438.484-3.266.562-4.703zM7.796.375v-.656h-4.03v-3.063h-.75V-.28H.28v.656zm0 0"/></symbol><symbol overflow="visible" id="l"><path d="M2.875.031c.434 0 .82-.144 1.156-.437.332-.301.594-.64.782-1.016.183-.34.316-.71.39-1.11.082-.402.125-.804.125-1.202 0-.403-.05-.813-.14-1.22a4.843 4.843 0 0 0-.407-1.155A3.031 3.031 0 0 0 4-7.063a1.747 1.747 0 0 0-1.14-.421c-.844 0-1.473.457-1.876 1.359-.406.906-.609 1.707-.609 2.39 0 .712.203 1.52.61 2.422C1.386-.413 2.02.032 2.874.032zm0-.281c-.75 0-1.227-.441-1.422-1.328-.2-.895-.297-1.613-.297-2.156 0-.54.098-1.254.297-2.141.195-.895.672-1.344 1.422-1.344.363 0 .648.137.86.407.206.273.363.566.468.875.113.343.195.71.25 1.093.059.387.094.758.094 1.11 0 .324-.035.675-.094 1.046a9.33 9.33 0 0 1-.203 1.016c-.094.336-.254.66-.469.969-.21.305-.511.453-.906.453zm0 0"/></symbol><symbol overflow="visible" id="m"><path d="M1.875-1.047h-.203c-.117 0-.172-.02-.172-.062 0-.04.031-.102.094-.188.058-.09.11-.156.14-.187L3.656-3.36c.34-.301.66-.633.953-1 .29-.371.438-.805.438-1.297 0-.559-.227-1-.672-1.313a2.416 2.416 0 0 0-1.453-.484c-.375 0-.723.066-1.031.187-.313.125-.598.34-.844.641a6.377 6.377 0 0 1-.219.328c-.117.168-.172.293-.172.375 0 .031.008.059.031.078.02.024.047.032.079.032.05 0 .093-.024.125-.079.039-.05.07-.093.093-.125.153-.3.375-.55.657-.75.277-.207.597-.312.953-.312.445 0 .812.144 1.094.422.277.281.421.644.421 1.078 0 .555-.23 1.121-.687 1.703-.45.574-.852 1.059-1.203 1.453L.703-.594a.789.789 0 0 1-.094.156.3.3 0 0 0-.062.157c0 .074.047.11.14.11.09-.009.165-.016.22-.016h3.968a.406.406 0 0 0 .188-.032c.039-.027.062-.082.062-.156v-1.328-.156c0-.059-.043-.094-.125-.094-.063 0-.102.035-.11.094-.011.054-.023.105-.03.156-.032.293-.114.476-.235.547-.125.074-.336.11-.625.11zm0 0"/></symbol><symbol overflow="visible" id="n"><path d="M1.828-3.625c-.375.18-.726.383-1.047.61-.324.23-.484.59-.484 1.078 0 .292.078.57.234.828.164.25.36.46.578.625.239.18.493.308.766.39.27.086.555.125.86.125.34 0 .68-.05 1.015-.156.332-.102.629-.266.89-.484a2.03 2.03 0 0 0 .532-.72 2.01 2.01 0 0 0 .203-.874c0-.527-.2-.957-.594-1.281a2.944 2.944 0 0 0-1.265-.657l.328-.171c.332-.153.633-.329.906-.516.277-.195.422-.508.422-.938 0-.59-.242-1.023-.719-1.296a2.967 2.967 0 0 0-1.5-.422c-.281 0-.566.043-.844.125-.28.074-.539.199-.765.375a2.03 2.03 0 0 0-.563.625c-.148.261-.219.539-.219.828 0 .492.16.87.485 1.14.32.274.695.489 1.125.641zm1.328-.672c-.094 0-.242-.031-.437-.094a3.164 3.164 0 0 1-.438-.156 2.052 2.052 0 0 1-.703-.516 1.21 1.21 0 0 1-.297-.828c0-.183.04-.367.125-.546.09-.184.207-.336.344-.454.152-.132.328-.234.516-.296.183-.06.379-.094.578-.094.445 0 .828.144 1.14.422.32.273.485.644.485 1.109 0 .242-.059.465-.172.672-.106.21-.262.383-.469.516a2.53 2.53 0 0 1-.328.171.968.968 0 0 1-.344.094zm-.328 4.11c-.242 0-.473-.032-.687-.094a1.445 1.445 0 0 1-.594-.375 1.77 1.77 0 0 1-.36-.547 1.608 1.608 0 0 1-.125-.625c0-.352.083-.656.25-.906.165-.246.391-.47.672-.657.051-.039.141-.093.266-.156a.764.764 0 0 1 .297-.094c.09 0 .27.051.531.141.27.094.445.168.531.219.278.136.516.324.704.562.195.242.296.528.296.86 0 .199-.039.394-.109.578a2.04 2.04 0 0 1-.297.515c-.18.22-.387.371-.625.454a2.13 2.13 0 0 1-.75.124zm0 0"/></symbol><symbol overflow="visible" id="o"><path d="M15.266-13.234h-2.25l-2.72 11.437-2.765-11.437H5.313l3.75 14.5h2.468zM4.844 1.266v-14.5h-2.11v14.5zm0 0"/></symbol><symbol overflow="visible" id="p"><path d="M4.234 2.313V-.563H1.391v2.875zm0 0"/></symbol><symbol overflow="visible" id="r"><path d="M5.156-13.594c-2.984 0-4.437 2.39-4.39 4.703h1.89c.016-1.375.703-2.828 2.485-2.828 1.562 0 2.343 1.078 2.312 2.547 0 1.25-.812 2.11-1.703 2.781L3.469-4.67C.906-2.735.438-.798.438 1.171h9.156v-1.89l-6.75.015c.328-1 1.125-1.75 1.765-2.25L6.953-4.72c1.156-.86 2.688-2.156 2.688-4.468 0-2.313-1.5-4.407-4.485-4.407zm0 0"/></symbol><symbol overflow="visible" id="s"><path d="M5.547-13.484c-3.25 0-4.984 3.093-4.984 7.468 0 4.438 1.734 7.579 4.984 7.579s5.031-3.141 5.031-7.579c0-4.375-1.781-7.468-5.031-7.468zm0 13.062c-1.828 0-2.734-2.406-2.734-5.594 0-3.109.906-5.5 2.734-5.5 1.86 0 2.781 2.391 2.781 5.5 0 3.188-.922 5.594-2.781 5.594zm0 0"/></symbol><symbol overflow="visible" id="t"><path d="M5.64 1.313l-.015-14.579H4.031c-.047.75-.515 1.485-.968 1.844-.672.5-1.454.735-2.329.735v1.78l2.891.016V1.313zm0 0"/></symbol><symbol overflow="visible" id="u"><path d="M15.563-2.078v-12.703h-2.204v1.765H8.594v1.875h4.765v1.391H8.594v1.875h4.765v5.797zm.343 4.469V.375H5.594v-3.484H3.359v5.5zm-4.219-7.25v-1.985c-1.156.235-3.093.438-4.953.469l-2.968.047v-7.844H1.562v9.875c.172 0 3.22.031 5.141-.062 1.984-.032 3.922-.266 4.984-.5zm0 0"/></symbol><symbol overflow="visible" id="v"><path d="M17.39-5.766v-2.14h-2.406v-6.875h-2.203V2.797h2.203v-8.563zm-5.906 3.532C10.438-2.86 9.36-3.72 8.328-5.156c-1.156-1.64-1.437-4.235-1.437-5.75v-2.89H4.594v2.89c0 2-.282 3.86-1.25 5.547C2.5-3.875 1.297-2.734-.203-1.75L1.469-.266C2.39-.922 3.156-1.5 3.89-2.375c.89-1.063 1.468-1.86 1.875-2.844.406.844.875 1.578 1.625 2.438.937 1.11 1.89 1.719 2.671 2.203zm0 0"/></symbol><symbol overflow="visible" id="w"><path d="M7.89-10.203c0 1.156-1.077 2.094-2.265 2.094-1.203 0-2.281-.938-2.281-2.094 0-1.125 1.078-2.031 2.281-2.031 1.188 0 2.266.89 2.266 2.03zM13.423.64H5.687V-.984h7.735zm2.203 1.953V-4.75h-2.203v1.813H5.687V-4.75H3.517v7.344zm-5.64-13.938c-.563-1.797-2.391-2.937-4.36-2.937-2.39 0-4.547 1.656-4.547 4.11 0 2.483 2.188 4.14 4.547 4.14 2.063 0 3.984-1.282 4.438-3.25h3.39v3.75h2.203v-9.25h-2.203v3.437zm0 0"/></symbol><symbol overflow="visible" id="x"><path d="M17.078.906v-2.031H9.891v-3.313h5v-9.406h-2.204v2.766H4.782v-2.766H2.578v9.406h4.953v3.313H.375V.906zm-4.39-7.375H4.78v-2.578h7.907zm0 0"/></symbol><symbol overflow="visible" id="y"><path d="M15.156-12.906H2.172v2.015h10.531c-.078 2.61-.953 7.141-.984 7.375h2.156c.016-.093.406-1.875.781-4.468.25-1.688.5-3.813.5-4.922zM17.078.704v-2.016h-8.86v-5.954h-2.25v5.954H.376V.703zm0 0"/></symbol><symbol overflow="visible" id="z"><path d="M7.781-13.188l2.907 11.313 2.921-11.313h1.86L11.547.5H9.719l-3.86-13.688zm-2.797 0V.5H3.172v-13.688zm0 0"/></symbol><symbol overflow="visible" id="A"><path d="M.844-7.14h6v1.593h-6zm0 0"/></symbol><symbol overflow="visible" id="B"><path d="M6 .5v-11.484l-3.11 1.89-.859-1.515 4.266-2.579h1.531V.5zm0 0"/></symbol><symbol overflow="visible" id="C"><path d="M1.656-.906H3.75v2.172H1.656zm0 0"/></symbol><symbol overflow="visible" id="E"><path d="M1.797-1.953v-11.313h7.937v11.313zm1.812-1.61h4.329v-8.093H3.609zm9.22 6.22v-17.5h1.827v17.5zm0 0"/></symbol><symbol overflow="visible" id="F"><path d="M15.375 2.656h-1.797v-9.578h-1.922v8.719H9.86v-16.281h1.797v5.921h1.922v-6.28h1.797zM1.281-1.766v-6.718H5.97v-3.344H1.28v-1.531h6.407v6.375H3.016v3.687h.937c.809 0 1.602-.02 2.375-.062.77-.051 1.55-.141 2.344-.266l.187 1.516c-1.367.23-3.183.343-5.453.343zm0 0"/></symbol><symbol overflow="visible" id="G"><path d="M6.328-5.234c-.7 0-1.324-.11-1.875-.329a4.562 4.562 0 0 1-1.422-.859 3.725 3.725 0 0 1-.89-1.203 3.392 3.392 0 0 1-.313-1.438v-.859c0-.496.102-.973.313-1.422.207-.457.504-.863.89-1.219.395-.351.867-.64 1.422-.859a5.127 5.127 0 0 1 1.875-.328c.695 0 1.32.113 1.875.328.55.219 1.024.508 1.422.86.395.355.695.761.906 1.218.207.45.313.926.313 1.422v.86c0 .5-.106.98-.313 1.437a3.72 3.72 0 0 1-.906 1.203 4.654 4.654 0 0 1-1.422.86c-.555.218-1.18.328-1.875.328zm0-1.641c.383 0 .742-.063 1.078-.188.34-.12.64-.289.89-.5.247-.207.442-.453.579-.734.145-.277.219-.57.219-.875v-.64c0-.32-.074-.626-.219-.907a2.139 2.139 0 0 0-.578-.719 2.833 2.833 0 0 0-.89-.484 3.158 3.158 0 0 0-1.079-.187c-.387 0-.746.066-1.078.187a2.751 2.751 0 0 0-.875.485c-.25.199-.45.44-.594.718a2.052 2.052 0 0 0-.203.906v.641c0 .305.067.598.203.875.145.281.344.527.594.735.246.21.54.378.875.5.332.125.691.187 1.078.187zm5.844 5.438c-.781.074-1.582.144-2.39.203-.805.054-1.66.101-2.563.14A183.203 183.203 0 0 1 1-.984v-1.641c1.207 0 2.316-.004 3.328-.016a101.22 101.22 0 0 0 2.844-.062c.883-.027 1.719-.07 2.5-.125.789-.05 1.566-.113 2.328-.188zm.875 4.093v-17.5h1.812v17.5zm0 0"/></symbol><symbol overflow="visible" id="H"><path d="M5.672-4.219c-.688 0-1.285-.086-1.781-.265-.5-.176-.914-.399-1.235-.672a2.7 2.7 0 0 1-.703-.953 2.63 2.63 0 0 1-.234-1.079v-.609c0-.371.078-.738.234-1.094.152-.351.39-.671.703-.953.32-.277.735-.504 1.235-.672.496-.175 1.093-.265 1.78-.265.677 0 1.266.09 1.766.265.497.18.907.41 1.22.688.32.273.562.59.718.953.164.367.25.727.25 1.078v.61c0 .367-.086.726-.25 1.078a2.7 2.7 0 0 1-.719.953c-.312.273-.722.496-1.219.672-.5.18-1.09.265-1.765.265zM3.266-3.016h10.718v5.844h-1.812v-4.234H3.266zm13.14-5.609h-2.422v4.688h-1.796v-10.907h1.796v4.594h2.422zm-5.875-2.797H.797V-13h3.969v-2.078h1.812V-13h3.953zm-4.86 5.703c.364 0 .688-.047.97-.14.277-.09.515-.211.703-.36.183-.144.32-.312.406-.5.09-.183.14-.379.14-.578v-.406c0-.195-.05-.39-.14-.578a1.428 1.428 0 0 0-.406-.5 2.423 2.423 0 0 0-.703-.36 3.11 3.11 0 0 0-.97-.14c-.386 0-.722.05-1 .14a2.325 2.325 0 0 0-.687.36 1.52 1.52 0 0 0-.406.5c-.094.187-.14.383-.14.578v.406c0 .2.046.395.14.578.09.188.227.356.406.5.184.149.422.27.704.36.277.093.609.14.984.14zm0 0"/></symbol><symbol overflow="visible" id="I"><path d="M4.469-.86c0-.464.117-.894.36-1.28.245-.395.6-.739 1.062-1.032.464-.289 1.03-.515 1.687-.672a9.064 9.064 0 0 1 2.203-.25c.801 0 1.524.086 2.172.25.652.156 1.211.383 1.672.672a3.36 3.36 0 0 1 1.063 1.047c.257.398.39.82.39 1.266v.765c0 .457-.133.883-.39 1.282-.25.394-.606.738-1.063 1.03-.46.29-1.02.52-1.672.688a8.847 8.847 0 0 1-2.172.25c-.812 0-1.55-.086-2.203-.25-.656-.168-1.223-.398-1.687-.687-.461-.293-.817-.637-1.063-1.031a2.369 2.369 0 0 1-.36-1.282zm8.75-13.984h1.75v10.516h-1.75v-4.938h-1.735v4.25H9.75v-9.609h1.734v3.75h1.735zM4.829-8.39c-.044.157-.15.348-.313.563-.168.21-.332.402-.485.578-.25.293-.613.676-1.078 1.14-.469.462-.965.919-1.484 1.376L.312-6a81.235 81.235 0 0 0 1.579-1.5c.488-.477.859-.875 1.109-1.188.195-.257.352-.492.469-.703.113-.214.203-.43.265-.64a3.21 3.21 0 0 0 .141-.672c.02-.238.031-.516.031-.828v-2.422h1.766v2.312c0 .293.008.559.031.797.027.242.078.48.14.719.06.23.157.46.282.688.133.23.305.472.516.718.3.356.648.723 1.046 1.094.403.367.833.73 1.282 1.094l-1.14 1.25a37.442 37.442 0 0 1-1.173-1.063c-.355-.34-.652-.64-.89-.89a8.682 8.682 0 0 1-.61-.657 1.96 1.96 0 0 1-.312-.5zm8.468 7.657c0-.227-.09-.454-.266-.672A2.169 2.169 0 0 0 12.312-2a3.843 3.843 0 0 0-1.109-.406 6.293 6.293 0 0 0-1.422-.156c-.523 0-1.004.054-1.437.156-.438.094-.809.23-1.11.406a2.295 2.295 0 0 0-.718.594c-.168.218-.25.445-.25.672v.5c0 .246.082.484.25.703.175.215.414.41.718.578.301.176.672.312 1.11.406.433.102.914.156 1.437.156.508 0 .985-.054 1.422-.156.434-.094.805-.23 1.11-.406.308-.168.55-.363.718-.578.176-.219.266-.446.266-.672zm0 0"/></symbol><symbol overflow="visible" id="J"><path d="M4.422-.953c0-.445.117-.875.36-1.281a3.367 3.367 0 0 1 1.03-1.063c.446-.308.989-.555 1.625-.734.645-.176 1.375-.266 2.188-.266.809 0 1.54.09 2.188.266.644.18 1.19.426 1.64.734.445.305.785.66 1.016 1.063.238.406.36.836.36 1.28v.766c0 .458-.122.883-.36 1.282-.23.402-.57.758-1.016 1.062-.45.309-.996.555-1.64.735a8.37 8.37 0 0 1-2.188.265c-.813 0-1.543-.09-2.188-.265-.636-.18-1.18-.426-1.625-.735a3.367 3.367 0 0 1-1.03-1.062 2.417 2.417 0 0 1-.36-1.282zm4.875-4.969H1.64v-7.906h7.656zm3.672 1.406v-2.796H10.28v-1.61h2.688v-1.781H10.28v-1.625h2.688v-2.516h1.797v10.328zm.078 3.688c0-.227-.082-.457-.235-.688-.156-.238-.386-.445-.687-.625a4.33 4.33 0 0 0-1.078-.437 5.455 5.455 0 0 0-1.422-.172 5.6 5.6 0 0 0-1.438.172 4.265 4.265 0 0 0-1.062.437c-.293.18-.523.387-.688.625-.156.23-.234.461-.234.688v.531c0 .219.078.442.234.672.165.238.395.445.688.625.29.176.645.32 1.063.438a5.6 5.6 0 0 0 1.437.171c.527 0 1.004-.058 1.422-.171A4.33 4.33 0 0 0 12.125 1c.3-.18.531-.387.688-.625.152-.23.234-.453.234-.672zM3.422-7.516h4.094v-4.703H3.422zm0 0"/></symbol><symbol overflow="visible" id="K"><path d="M12.375 2.656v-17.5h1.797v6.453h2.547v1.625h-2.547v9.422zm-.938-4.328c-.773.074-1.496.137-2.171.188a46.71 46.71 0 0 1-2.188.125c-.793.03-1.707.058-2.734.078a336.16 336.16 0 0 1-3.703.015v-1.64h1.765c.551 0 1.067-.004 1.547-.016v-5.234h1.813v5.187c.55-.008 1.066-.02 1.546-.031.477-.02.93-.047 1.36-.078.433-.027.867-.067 1.297-.11.426-.039.863-.078 1.312-.109zM1.47-13.187h8.578v2.609c0 .324-.008.71-.016 1.156-.011.438-.039.899-.078 1.375-.031.48-.082.957-.14 1.422a18.28 18.28 0 0 1-.188 1.266l-1.781-.22c.082-.456.148-.91.203-1.359a18.55 18.55 0 0 0 .188-2.469c.007-.34.015-.628.015-.859v-1.296H1.469zm0 0"/></symbol><symbol overflow="visible" id="L"><path d="M2.594-3.297h4.812v-3.047H.594v-1.593h10.953c.152-.708.265-1.391.328-2.047.059-.664.094-1.286.094-1.86v-.703H2.625v-1.594h11.172v2.375c0 .532-.035 1.137-.094 1.813a20.31 20.31 0 0 1-.265 2.015h2.718v1.594H9.234v3.047h4.75v6.125h-1.812v-4.531H2.594zm0 0"/></symbol><symbol overflow="visible" id="M"><path d="M15.281 2.656h-1.797V-7.516h-2.14v9.313H9.547v-16.281h1.797v5.328h2.14v-5.688h1.797zM3.203-13.188v9.391h.735c.695 0 1.398-.02 2.109-.062.715-.051 1.46-.145 2.234-.282L8.484-2.5c-.75.137-1.566.23-2.437.281a47.18 47.18 0 0 1-2.906.078H1.375v-11.046zm0 0"/></symbol><symbol overflow="visible" id="N"><path d="M12.797-5.016v-9.828h1.797v9.828zm1.797.86V2.64H4.016v-6.797zM5.813 1.047h6.984v-3.61H5.812zM5.89-9.188c-.055.168-.207.399-.454.688-.242.293-.503.57-.78.828a27.85 27.85 0 0 1-1.345 1.219c-.511.437-1.019.863-1.515 1.266L.719-6.516a43.154 43.154 0 0 0 1.703-1.406c.258-.226.5-.445.719-.656.226-.207.421-.39.578-.547.226-.238.422-.469.578-.688.152-.226.273-.457.36-.687.09-.238.16-.488.202-.75.04-.27.063-.57.063-.906v-1.969H6.75v1.906c0 .281.008.543.031.781.02.231.063.45.125.657.059.199.157.398.282.594.12.199.3.398.53.593.427.406.9.832 1.423 1.266.52.437 1.054.863 1.609 1.265L9.687-5.75c-.48-.363-.945-.734-1.39-1.11-.45-.382-.899-.769-1.344-1.156a6.72 6.72 0 0 1-.687-.656c-.18-.207-.301-.379-.36-.515zm0 0"/></symbol><symbol overflow="visible" id="O"><path d="M14.547-6.281v1.547H9.28v3.468h6.875V.328H.594v-1.594h6.89v-3.468h-5.28v-1.547h2.374v-5.516H2.344v-1.547H14.39v1.547h-2.204v5.516zm-8.14 0h3.952v-5.516H6.406zm0 0"/></symbol><symbol overflow="visible" id="P"><path d="M6.234-5.969a2.737 2.737 0 0 1-.39.672c-.168.23-.399.508-.688.828a51.65 51.65 0 0 1-1.281 1.39c-.46.481-1.004 1.02-1.625 1.61L1.047-2.734c.55-.52 1.055-1.016 1.516-1.485.464-.465.91-.941 1.328-1.422.3-.34.539-.648.718-.921.184-.278.329-.551.422-.813.102-.27.172-.547.203-.828.04-.277.063-.598.063-.953v-2.485h-3.64v-1.625h9.03v1.625H7.142v2.485c0 .386.015.722.046 1a3.352 3.352 0 0 0 .672 1.578c.196.273.461.59.797.953.383.45.781.879 1.188 1.281.414.407.898.856 1.453 1.344l-1.188 1.266A66.642 66.642 0 0 1 8.547-3.25a46.323 46.323 0 0 1-1.172-1.234c-.25-.29-.48-.563-.688-.813-.21-.246-.351-.473-.421-.672zM13 2.656v-17.5h1.813v17.5zm0 0"/></symbol><symbol overflow="visible" id="Q"><path d="M12.953-5.016v-4.25H9.531a4.335 4.335 0 0 1-.36 1.188 3.792 3.792 0 0 1-.796 1.094 4.284 4.284 0 0 1-1.281.812c-.5.219-1.086.328-1.75.328-.73 0-1.364-.125-1.89-.375a4.047 4.047 0 0 1-1.313-.937 3.906 3.906 0 0 1-.766-1.235 3.525 3.525 0 0 1-.25-1.234v-.813c0-.382.082-.796.25-1.234a3.74 3.74 0 0 1 .766-1.234c.34-.383.78-.696 1.312-.938.527-.246 1.16-.375 1.89-.375.653 0 1.235.106 1.735.313.496.21.922.476 1.266.797.34.324.61.691.797 1.093.183.399.312.778.375 1.141h3.437v-3.969h1.813v9.828zm1.813.86V2.64H4.172v-6.797zM5.984 1.047h6.97v-3.61h-6.97zm1.813-11.39c0-.247-.055-.509-.156-.782a2.118 2.118 0 0 0-.47-.719 2.51 2.51 0 0 0-.78-.531 2.411 2.411 0 0 0-1.047-.219 2.53 2.53 0 0 0-1.844.75c-.21.211-.367.45-.469.719a2.172 2.172 0 0 0-.156.781v.625c0 .25.05.512.156.781.102.262.258.504.469.72.207.218.46.398.766.53.308.137.671.204 1.078.204.394 0 .742-.067 1.047-.204.308-.132.57-.312.78-.53.208-.216.364-.458.47-.72.101-.269.156-.53.156-.78zm0 0"/></symbol><symbol overflow="visible" id="R"><path d="M15.328 2.656h-1.781v-9.75H11.5v8.89H9.719v-16.28H11.5v5.75h2.047v-6.11h1.781zM5.906-11.53H1.203v-1.61h6.484v3.579c0 .562-.027 1.082-.078 1.546a5.825 5.825 0 0 1-.28 1.344 4.93 4.93 0 0 1-.61 1.25 8.46 8.46 0 0 1-1.078 1.25c-.438.438-.98.914-1.625 1.422-.637.5-1.399 1.059-2.282 1.672L.72-2.547A30.872 30.872 0 0 0 2.89-4.094 14.108 14.108 0 0 0 4.375-5.39c.383-.402.68-.785.89-1.14.208-.364.36-.719.454-1.063a5.06 5.06 0 0 0 .156-1.093c.02-.372.031-.774.031-1.204zm0 0"/></symbol><symbol overflow="visible" id="S"><path d="M11.078-11.047H7.422c0 .242.004.473.016.688.019.21.062.418.125.625.07.199.171.398.296.593.133.188.305.371.516.547.895.762 1.953 1.512 3.172 2.25L10.53-4.969A23.754 23.754 0 0 1 8.97-6.047a93.4 93.4 0 0 1-1.406-1.11 24.794 24.794 0 0 1-.641-.53 1.346 1.346 0 0 1-.328-.422h-.016c-.062.156-.2.355-.406.593-.211.23-.465.473-.766.72-.386.343-.851.726-1.39 1.14-.543.418-1.114.832-1.704 1.234l-1.078-1.39c.645-.415 1.25-.844 1.813-1.282.558-.433 1.02-.812 1.375-1.125.457-.426.766-.867.922-1.328.152-.457.238-.957.25-1.5H1.875v-1.61h3.719v-2.077h1.828v2.078h3.656zm2.063 13.703v-17.5h1.812v17.5zm-.922-3.906c-.774.074-1.567.145-2.375.203-.813.055-1.676.102-2.578.14-.899.032-1.856.06-2.875.079-1.024.023-2.137.031-3.344.031v-1.64c.84.023 1.633.027 2.375.015.738-.008 1.445-.02 2.125-.031v-2.844h1.86V-2.5c.84-.04 1.64-.086 2.39-.14.758-.051 1.515-.114 2.265-.188zm0 0"/></symbol><symbol overflow="visible" id="T"><path d="M.734-5.89H2.36V1h1.5v-9.953H2.625C2.5-7.61 2.078-7.141.735-7.078zm0 0"/></symbol><symbol overflow="visible" id="U"><path d="M.797-.172v1.953h1.969V-.172zm0 0"/></symbol><symbol overflow="visible" id="W"><path d="M4.578-9.188H2.906v2.735c0 1.11-.234 2.094-.687 2.937-.5.97-1.297 1.766-2.313 2.375.469.329 1 .766 1.313 1.063.797-.531 2.172-1.938 2.547-3.063C4.28-2.016 5.53-.812 6.25-.312 6.531-.61 6.984-1 7.422-1.391c-1.578-1-2.844-2.546-2.844-5.062zm6.578 5.391v-1.469h-1.5V-9.64H8.078V1.984h1.578v-5.78zm0 0"/></symbol><symbol overflow="visible" id="X"><path d="M10.094 1.875v-4.89H8.547v1.124H3.844v-1.125H2.297v4.891zM8.547.531H3.844V-.563h4.703zm1.562-3.953V-9.64H8.531v2.329H6.656C6.328-8.61 5.188-9.517 3.734-9.517 1.954-9.516.72-8.219.72-6.594c0 1.625 1.234 2.89 3.015 2.89 1.454 0 2.594-.89 2.922-2.187h1.875v2.47zM2.297-6.594c0-.843.531-1.515 1.437-1.515.875 0 1.422.671 1.422 1.515 0 .844-.547 1.516-1.422 1.516-.906 0-1.437-.672-1.437-1.516zm0 0"/></symbol><symbol overflow="visible" id="Y"><path d="M11.031-2.672v-1.437h-4.5v-1.079h3.235v-4.187H1.64v4.188h3.234v1.078H.391v1.437zM8.22-6.562H3.203v-1.422H8.22zM9.75 2.046v-3.89H1.562v1.421h6.532v2.469zm0 0"/></symbol><symbol overflow="visible" id="Z"><path d="M10.438-2.625v-7.016H8.858v2.5H6.875v1.454h1.984v3.062zm-.016 4.688v-4.204H2.406v1.422h6.438v2.781zm-5.5-9.829h1.984v-1.406H1.234v1.406H3.22v.407c0 .796-.328 1.453-.797 2C1.859-4.734 1.062-4.281.328-4c.469.422.922.89 1.172 1.125.86-.406 2.234-1.484 2.563-2.234.484.843 1.859 1.75 2.468 1.953.157-.219.625-.813.953-1.188-1.375-.422-2.562-1.531-2.562-2.984zm0 0"/></symbol><symbol overflow="visible" id="bG"><path d="M5.453.984V-.39H1.75c.063-.562.75-1.484 1.156-1.796l.672-.532c.594-.469.985-.797 1.25-1.203.547-.719.672-1.187.672-2.062 0-1.625-.797-3.047-2.563-3.047-1.812 0-2.609 1.453-2.624 3.719H1.78c.016-1.313.39-2.36 1.14-2.36.626 0 1.032.719 1.032 1.719 0 .39-.187 1.031-.312 1.234-.125.14-.454.532-.86.89l-.937.735C.656-2.109.187-.813.156.984zm0 0"/></symbol><symbol overflow="visible" id="bH"><path d="M10.36 1.969v-11.61h-1.5v3.766H7.78v-3.563h-1.5v10.86h1.5v-5.656H8.86v6.203zM5.75-2.5c-.39.094-1.531.234-2.016.234l-.843.032v-6.829H1.328V-.75l1.734-.016C3.97-.78 5.36-.969 5.75-1.078zm0 0"/></symbol><symbol overflow="visible" id="bI"><path d="M11.031-2.906v-1.438H8.344v-1.422c1.031-.39 1.61-1 1.61-1.765 0-1.25-1.72-2.172-4.25-2.172-2.5 0-4.25.953-4.25 2.14 0 .766.593 1.391 1.624 1.782v1.437H.391v1.438zM5.703-6.641c-1.437 0-2.437-.359-2.437-.921 0-.563 1.046-.922 2.437-.922 1.375 0 2.422.359 2.422.937 0 .594-.984.906-2.422.906zm1.031 2.297H4.672v-1.078c.312.031.672.047 1.031.047.344 0 .719-.016 1.031-.047zM5.704 2.22c2.812 0 4.312-.985 4.312-2.203 0-1.282-1.5-2.22-4.329-2.22-2.812 0-4.296.892-4.296 2.204 0 1.234 1.5 2.219 4.312 2.219zm0-1.266C4.14.953 3.25.61 3.25 0c0-.594.89-.953 2.453-.953 1.516 0 2.453.36 2.453.969 0 .562-.937.937-2.453.937zm0 0"/></symbol><symbol overflow="visible" id="bY"><path d="M5.531-2c0-1.281-.578-2.078-1.093-2.297.421-.266.828-.906.828-2.016 0-1.578-.829-2.718-2.5-2.718C1.094-9.031.344-7.61.344-5.562H1.75c.016-1.172.344-2.094 1.094-2.094.625 0 .953.797.953 1.39 0 .97-.406 1.47-1.078 1.47h-.156c-.063 0-.454-.063-.532-.079v1.422c.156-.031.39-.063.469-.063h.14c.844 0 1.391.454 1.391 1.688 0 1.172-.578 1.734-1.234 1.734-.844 0-1.172-.922-1.172-2.156H.141c0 1.922.578 3.516 2.609 3.516 2 0 2.781-1.547 2.781-3.266zm0 0"/></symbol><symbol overflow="visible" id="bZ"><path d="M11.36-5.734v-1.454H9.952V-9.64H8.375v6.891h1.578v-2.984zM9.952 1.875v-4.156h-7.64v4.156zM8.391.5H3.875V-.906h4.516zM5.812-8.453v-1.25h-3.53v1.25zm1.22 1.89v-1.312H1.046v1.313h2.11C2.983-5.36 1.656-4.345.233-3.876c.375.36.829.844 1.094 1.188 1.172-.485 2.219-1.344 2.734-2.25.547.78 1.61 1.53 2.579 1.843.265-.344.609-.781.921-1.172-1.171-.265-2.437-1.156-2.718-2.296zm0 0"/></symbol><symbol overflow="visible" id="ca"><path d="M11.234-3.672v-1.5h-1.5V-9.64H8.172V1.984h1.562v-5.656zM6.672-8.937H1.125v1.421h3.766a6.887 6.887 0 0 1-.985 3.329C3.172-2.954 2.031-1.908.546-1.11c.376.25 1.032.78 1.313 1.078a9.918 9.918 0 0 0 3.782-4.157c.718-1.468 1.046-3.093 1.03-4.75zm0 0"/></symbol><symbol overflow="visible" id="cb"><path d="M10.36 1.984V-9.64h-1.5v3.688H7.812v-3.484h-1.5V1.437h1.5v-5.734h1.046v6.281zM5.827-2.437c-.328.062-1.328.25-2.11.25h-.937v-5.329h2.485v-1.406H1.234V-.75h1.704c.921 0 2.359-.14 2.89-.281zm0 0"/></symbol><symbol overflow="visible" id="cc"><path d="M11.25-5.781v-1.407H9.781V-9.64H8.22v6.907H9.78v-3.047zM4.61-9.406H2.905v1.39c0 .75-.265 1.407-.672 1.985C1.688-5.266.844-4.641 0-4.22c.422.313.938.797 1.266 1.078.812-.421 2.171-1.609 2.484-2.5.531.922 1.688 1.797 2.547 2.22.219-.267.703-.907.984-1.22C5.97-5.109 4.61-6.484 4.61-8.047zM1.905-.266c0 1.454 1.516 2.454 4.203 2.454 2.75 0 4.047-1 4.047-2.454 0-1.406-1.422-2.437-4.156-2.437-2.688 0-4.094 1.031-4.094 2.437zm1.719 0c0-.703.922-1.125 2.39-1.125 1.5 0 2.438.438 2.438 1.157 0 .703-.828 1.14-2.328 1.14-1.469 0-2.5-.453-2.5-1.172zm0 0"/></symbol><symbol overflow="visible" id="aa"><path d="M4.672-6.031c-1.5 0-2.703 1.25-2.703 2.797 0 1.53 1.203 2.796 2.703 2.796 1.516 0 2.719-1.265 2.719-2.796 0-1.547-1.204-2.797-2.72-2.797zm0 .468c1.234 0 2.25 1.032 2.25 2.329 0 1.28-1.016 2.328-2.25 2.328-1.219 0-2.234-1.047-2.234-2.328 0-1.297 1.015-2.329 2.234-2.329zm0 0"/></symbol><symbol overflow="visible" id="ac"><path d="M5.406-.875c-.375-.234-.86-.672-1.36-1.453-.5-.781-.75-1.906-.75-2.875v-.75h1.688v-.656H.813v.656h1.703v.75c0 .953-.22 1.86-.641 2.687A6.185 6.185 0 0 1 .265-.578l.61.469a7.47 7.47 0 0 0 1.344-1.563c.39-.61.625-1.156.687-1.484.094.328.375 1 .766 1.547.422.578.875 1.015 1.203 1.25zm3.297 2.344v-9.235h-.75v3.72H6.656v-3.5h-.734v8.593h.734v-4.39h1.297v4.812zm0 0"/></symbol><symbol overflow="visible" id="ad"><path d="M6.484-3.125v-.64c-.609.124-1.765.218-2.703.25l-2.156.03v-2.953h3.734v-.64H.86v4.234c.094 0 1.625.016 2.704-.031 1.171-.047 2.296-.14 2.921-.25zm1.407-4.64h-.766v6.702h.766v-3.421h1.343v-.657H7.891zm.296 9.03v-.64H2.595V-1.75h-.75v3.016zm0 0"/></symbol><symbol overflow="visible" id="ae"><path d="M8.016-5.813c0-1.109-1.235-1.984-3.36-1.984-2.093 0-3.36.89-3.36 1.984 0 1.11 1.282 1.922 3.36 1.922 2.157 0 3.36-.812 3.36-1.921zm1.14 3.563v-.64H.203v.64zm-.922 3.516V.609H2.188v-2.015h-.766v2.672zM7.22-5.813c0 .797-1.11 1.282-2.563 1.282-1.39 0-2.547-.485-2.547-1.282 0-.78 1.094-1.375 2.547-1.375 1.485 0 2.563.579 2.563 1.375zm0 0"/></symbol><symbol overflow="visible" id="af"><path d="M5.328-.563v-6.015H1.031v6.016zm2.86 2.032v-9.235h-.766V1.47zM4.578-1.22H1.781v-4.703h2.797zm0 0"/></symbol><symbol overflow="visible" id="ag"><path d="M5.14-.672v-.64c-.406.062-1.437.171-2.093.187l-1.453.016v-2.188h2.593v-3.406H.829v.656h2.594v2.094H.844v3.5L2.875-.47a25.72 25.72 0 0 0 2.266-.203zm3.22 2.14v-9.234h-.735v3.672H6.328v-3.453h-.75v8.594h.75v-4.469h1.297v4.89zm0 0"/></symbol><symbol overflow="visible" id="ah"><path d="M6.188-4.89c0-1.25-1.032-2.266-2.485-2.266-1.453 0-2.484 1.015-2.484 2.265 0 1.235 1.031 2.266 2.484 2.266s2.485-1.031 2.485-2.266zM8.5 1.468v-9.235h-.766V1.47zM7.39-.72v-.672c-.796.125-2.452.204-3.765.235H.656V-.5h2.922c1.219-.031 3.156-.125 3.813-.219zm-2-4.172c0 .86-.593 1.594-1.687 1.594S2-4.03 2-4.89c0-.859.61-1.593 1.703-1.593 1.094 0 1.688.734 1.688 1.593zm0 0"/></symbol><symbol overflow="visible" id="ai"><path d="M4.844-7.094v-.61H1.875v.61zm1.36 1.39v-.609H.577v.61zm3.171 1.235v-.656H8.031v-2.64h-.765v5.906h.765v-2.61zM3.391-2.156c1.484 0 2.359-.656 2.359-1.5 0-.86-.86-1.516-2.36-1.516-1.453 0-2.374.656-2.374 1.516 0 .844.921 1.5 2.375 1.5zm4.64 3.625v-2.75h-6.39v.625h5.625v2.125zm-3.078-5.14c0 .53-.531.921-1.562.921-1.016 0-1.563-.39-1.563-.922 0-.515.547-.906 1.563-.906 1.03 0 1.562.39 1.562.906zm0 0"/></symbol><symbol overflow="visible" id="aj"><path d="M8.766-.172C8.766-1.234 7.562-2 5.344-2 3.14-2 1.937-1.234 1.937-.172c0 1.063 1.204 1.813 3.407 1.813 2.218 0 3.422-.75 3.422-1.813zm-.813.016c0 .719-1.078 1.187-2.594 1.187-1.546 0-2.609-.468-2.609-1.203 0-.734 1.063-1.203 2.61-1.203 1.515 0 2.593.469 2.593 1.219zm.703-1.969v-5.64h-.75v2.28H6.625v-2.109h-.75v5.188h.75v-2.406h1.281v2.687zM5.47-3.281C5.14-3.406 4.5-3.875 4.016-4.5c-.407-.516-.704-1.25-.704-2.172v-.797h-.78v.797c0 .922-.345 1.75-.75 2.36-.438.64-1.22 1.218-1.5 1.39l.546.485c.328-.172.86-.594 1.328-1.172.453-.579.735-1.157.766-1.36.062.203.39.782.797 1.235.469.5 1.015.89 1.265 1.015zm0 0"/></symbol><symbol overflow="visible" id="ak"><path d="M8.297-2.094v-5.672H7.53v1.438H5.22v-.766H.969v4.016h4.25v-.906H7.53v1.89zm.11 1.922c0-1.062-1.173-1.812-3.345-1.812-2.156 0-3.343.75-3.343 1.812 0 1.063 1.187 1.813 3.343 1.813 2.172 0 3.344-.75 3.344-1.813zM7.53-4.609H5.22v-1.094H7.53zm-3.062.89h-2.75v-2.719h2.75zm3.14 3.547C7.61.562 6.547 1 5.063 1 3.546 1 2.515.562 2.515-.172c0-.75 1.03-1.172 2.546-1.172 1.485 0 2.547.438 2.547 1.172zm0 0"/></symbol><symbol overflow="visible" id="al"><path d="M5.86-6.64H.874V-6h4.156C5-4.906 4.625-2.437 4.61-2.312h.75c.016-.047.157-.907.313-2.016.078-.688.156-1.578.187-2.313zm2.124-1.126H7.22V1.47h.765v-4.563h1.422v-.656H7.984zM6.797-.53v-.64c-.781.124-2.797.265-3.719.265v-2.969h-.765v2.969H.359v.64h1.032c2.796 0 4.453-.14 5.406-.265zm0 0"/></symbol><symbol overflow="visible" id="am"><path d="M8.063-6.156c0-.89-1.204-1.657-3.391-1.657-2.172 0-3.375.72-3.375 1.657C1.297-5.203 2.5-4.5 4.672-4.5c2.187 0 3.39-.703 3.39-1.656zm1.093 3.093v-.624H.203v.624zm-1 4.422V.734H2.234v-.906h5.704V-2.25H1.421v.61h5.703v.859H1.422v2.14zm-.922-7.515c0 .61-1.046 1.078-2.546 1.078-1.532 0-2.563-.469-2.563-1.078 0-.61 1.016-1.063 2.547-1.063 1.516 0 2.562.453 2.562 1.063zm0 0"/></symbol><symbol overflow="visible" id="an"><path d="M6.453-2.89c-.406-.157-1.281-.782-1.812-1.391-.485-.547-.829-1.485-.829-2.328v-.86h-.78v.86c0 .828-.313 1.75-.813 2.421a5.17 5.17 0 0 1-1.86 1.516l.532.5c.5-.234 1.14-.703 1.671-1.328.454-.531.72-1.047.86-1.484.156.437.469.921.89 1.375.516.562 1.313 1.125 1.625 1.265zm1.984 1.828v-6.704h-.75v2.188H5.579v.656h2.11v3.86zm.235 2.328V.625H3.016v-2.219h-.75v2.86zm0 0"/></symbol><symbol overflow="visible" id="ao"><path d="M9.156.219v-.656H5.062v-2.25h3v-.641H2.22v-2.86h5.734v-.64H1.47v4.14H4.28v2.25H.203V.22zm0 0"/></symbol><symbol overflow="visible" id="ap"><path d="M4.844-7.125v-.594H1.875v.594zm1.36 1.219V-6.5H.577v.594zm3.171 1.078v-.64H8.031v-2.298h-.765v5.204h.765v-2.266zm-5.984 2.11c1.484 0 2.39-.579 2.39-1.329s-.89-1.375-2.375-1.375c-1.469 0-2.39.594-2.39 1.375 0 .734.921 1.328 2.375 1.328zm4.875 4.077V.766H2.719v-.813H8.03V-2.03H1.906v.594H7.25v.796H1.937v2zM1.844-4.062c0-.485.547-.782 1.562-.782 1.031 0 1.547.36 1.547.782 0 .468-.516.75-1.547.75s-1.562-.297-1.562-.75zm0 0"/></symbol><symbol overflow="visible" id="aq"><path d="M8.11-5.625c0-1.125-1.297-1.969-3.438-1.969-2.125 0-3.438.844-3.438 1.969 0 1.14 1.313 1.969 3.438 1.969 2.156 0 3.437-.828 3.437-1.969zM9.155-1.75v-.656H.203v.656h2.438v3.11h.75v-3.11h2.625v3.219h.765V-1.75zM4.672-6.969c1.484 0 2.625.532 2.625 1.36 0 .796-1.156 1.328-2.625 1.328-1.484 0-2.625-.547-2.625-1.344 0-.828 1.14-1.344 2.625-1.344zm0 0"/></symbol><symbol overflow="visible" id="ar"><path d="M5.11-3.078v-4.016H.811v4.016zM9.202-4.75v-.672h-1.36v-2.344h-.75v5.641h.75V-4.75zM8.063-.172c0-1.062-1.141-1.812-3.282-1.812-2.156 0-3.297.765-3.297 1.812 0 1.063 1.141 1.813 3.297 1.813 2.14 0 3.282-.75 3.282-1.813zM4.358-3.719H1.563v-2.719h2.796zM7.25-.156c0 .719-1.016 1.187-2.453 1.187-1.484 0-2.484-.468-2.484-1.187 0-.75 1-1.203 2.484-1.203 1.437 0 2.453.453 2.453 1.203zm0 0"/></symbol><symbol overflow="visible" id="as"><path d="M5.438-6.656H1.202v.64h3.375a7.024 7.024 0 0 1-1.234 3.157C2.64-1.875 1.563-1.11.672-.656l.578.484C2.266-.719 3.188-1.453 4.063-2.64c.89-1.203 1.296-2.843 1.375-4.015zm2.968 8.125v-9.235h-.765V1.47zm0 0"/></symbol><symbol overflow="visible" id="at"><path d="M8.563-4.984c-.344-.047-1.47-.375-2.282-.875-.718-.438-1.187-1.047-1.187-1.563v-.312h-.828v.312c0 .516-.485 1.125-1.204 1.563-.796.5-1.921.828-2.265.875l.437.546a7.036 7.036 0 0 0 2.141-.828c.688-.421 1.203-.937 1.297-1.265.094.328.625.843 1.312 1.265a7.13 7.13 0 0 0 2.125.829zm.593 1.765v-.625H.203v.625h4.078v1.016h-2.86v.594h5.704v.859H1.422v2.11h6.734V.733H2.234V-.14h5.704v-2.062h-2.86V-3.22zm0 0"/></symbol><symbol overflow="visible" id="au"><path d="M5.234-3.14a.574.574 0 0 0-.562-.579c-.297 0-.547.266-.547.578 0 .313.25.563.547.563a.56.56 0 0 0 .562-.563zm0 0"/></symbol><symbol overflow="visible" id="av"><path d="M8.61 1.266V.625H2.86v-2.297h-.766v2.938zm-.25-2.329v-6.703h-.75v1.25H5.124c-.438-.546-1.14-.921-1.984-.921-1.438 0-2.454 1.015-2.454 2.296 0 1.266 1.016 2.282 2.454 2.282.89 0 1.656-.407 2.062-1.047H7.61v2.844zm-.75-3.484H5.483c.063-.187.094-.39.094-.594 0-.265-.047-.5-.11-.718H7.61zM3.14-6.734c1.063 0 1.641.703 1.641 1.593 0 .875-.578 1.594-1.64 1.594-1.063 0-1.657-.719-1.657-1.594 0-.89.594-1.593 1.657-1.593zm0 0"/></symbol><symbol overflow="visible" id="aw"><path d="M9.156-2.578v-.656H7.5c.047-.25.203-1.032.313-1.72.125-.796.28-1.874.28-2.234H1.25v.657h5.984c-.093 1.047-.406 2.765-.515 3.297H.203v.656h3.89v4.047h.766v-4.047zm0 0"/></symbol><symbol overflow="visible" id="ax"><path d="M6.656 1.047v-8.594h-.75v3.516H4.688c-.125-1.766-.922-2.844-2.016-2.844-1.188 0-2.047 1.281-2.047 3.36 0 2.062.86 3.343 2.047 3.343 1.156 0 1.984-1.187 2.031-3.125v-.031h1.203v4.375zm1.797.422v-9.235h-.75V1.47zm-4.5-4.985c0 1.485-.5 2.641-1.281 2.641-.797 0-1.281-1.14-1.281-2.64 0-1.5.484-2.657 1.28-2.657.782 0 1.282 1.156 1.282 2.656zm0 0"/></symbol><symbol overflow="visible" id="ay"><path d="M5.844-7.188H.937v.657h4.079C4.953-5.5 4.672-4 4.656-3.906h.75c0-.031.11-.547.25-1.39.078-.532.157-1.22.188-1.891zM9.297-4.03v-.657H7.984v-3.078H7.22V-.89h.765v-3.14zM6.859-2.547v-.656c-.906.156-3.03.297-3.796.297v-2.14h-.766v2.14H.28v.656h1.313c2.187 0 3.687-.11 5.265-.297zm1.47 3.813V.609H2.671v-2.015h-.766v2.672zm0 0"/></symbol><symbol overflow="visible" id="az"><path d="M4.844-7.094v-.61H1.875v.61zm1.36 1.438v-.61H.577v.61zm1.827-2.11h-.765v6.891h.765v-3.39h1.344v-.657H8.031zm-4.64 5.86c1.484 0 2.375-.75 2.375-1.578 0-.875-.891-1.594-2.375-1.594-1.454 0-2.375.719-2.375 1.594 0 .828.906 1.578 2.375 1.578zm4.921 3.172V.625H2.734v-1.953H1.97v2.594zM4.954-3.5c0 .531-.531.984-1.562.984-1.016 0-1.547-.468-1.547-.984 0-.531.531-1.016 1.547-1.016 1.03 0 1.562.485 1.562 1.016zm0 0"/></symbol><symbol overflow="visible" id="aA"><path d="M9.156-2.578v-.656H5.062V-4.47h2.985v-.64H2.172V-6.75h5.765v-.656H1.423v2.937h2.86v1.235H.202v.656zM8.141-.094c0-1.015-1.235-1.75-3.47-1.75-2.202 0-3.452.735-3.452 1.75 0 1 1.25 1.75 3.453 1.75 2.234 0 3.469-.75 3.469-1.75zM2.062-.109c0-.704 1.063-1.125 2.61-1.125s2.625.437 2.625 1.14c0 .672-1.078 1.11-2.625 1.11S2.062.578 2.062-.11zm0 0"/></symbol><symbol overflow="visible" id="aB"><path d="M4.703-7.078v-.625H1.734v.625zm4.531 3.36v-.626H7.891v-1.36h1.343v-.624H7.891v-1.438h-.766v5.844h.766v-1.797zM8.094 0c0-.969-1.125-1.672-3.266-1.672-2.156 0-3.297.672-3.297 1.656 0 .985 1.14 1.688 3.282 1.688 2.156 0 3.28-.703 3.28-1.672zm-.828-.016c0 .672-1.016 1.079-2.438 1.079-1.484 0-2.484-.407-2.484-1.079 0-.687 1-1.062 2.469-1.062 1.453 0 2.453.39 2.453 1.062zM6.062-5.78v-.61H.438v.61zM3.25-2.328c1.469 0 2.39-.625 2.39-1.453 0-.828-.906-1.438-2.39-1.438-1.422 0-2.39.61-2.39 1.438s.953 1.453 2.39 1.453zM1.672-3.781c0-.516.594-.86 1.578-.86 1.016 0 1.578.344 1.578.86 0 .515-.562.828-1.578.828-1 0-1.578-.313-1.578-.828zm0 0"/></symbol><symbol overflow="visible" id="aC"><path d="M4.172-6.422v-.672H1.625v.672zm2.61 7.469v-8.578h-.75v3.781h-1.47v.672h1.47v4.125zm1.859.422v-9.235h-.75V1.47zM5.28-.938c-.297-.171-.734-.453-1.265-1.156-.422-.547-.704-1.375-.704-2.14v-.47h1.75v-.655H.72v.656H2.5v.469c0 .75-.297 1.64-.75 2.234C1.234-1.328.484-.844.187-.687l.579.546c.265-.14.828-.546 1.312-1.109.453-.516.766-1.156.828-1.438.078.282.375.891.813 1.376.484.562.922.843 1.094.953zm0 0"/></symbol><symbol overflow="visible" id="aD"><path d="M4.61-6.547h-3.5v.656h2.656C3.687-5.109 3.5-4 2.844-2.953 2.188-1.86 1.204-1.063.547-.656l.61.469C2.03-.781 2.78-1.532 3.483-2.61c.75-1.172 1.047-2.704 1.125-3.938zm2.062 7.594v-8.578h-.734v2.11H4.64v.64h1.296v1.953H4.47v.64h1.468v3.235zm1.86.422v-9.235h-.75V1.47zm0 0"/></symbol><symbol overflow="visible" id="aE"><path d="M8.531-2.281v-5.485h-.765v2.235H5.703v.672h2.063v2.578zm-2.234-.985c-.344-.109-1.172-.484-1.703-1.015a2.73 2.73 0 0 1-.797-1.953v-.25h2.047v-.641H.984v.64h2.032v.25c0 .829-.375 1.548-.797 2.016C1.64-3.609.89-3.203.406-2.984l.531.546c.297-.124.938-.484 1.485-.984.484-.469.812-.89.969-1.312.234.421.468.734.937 1.171.547.516 1.281.797 1.516.876zM8.53 1.47v-3.125H2.062v.64h5.704V1.47zm0 0"/></symbol><symbol overflow="visible" id="aF"><path d="M8.016-4.688c0-1.312-1.344-2.375-3.344-2.375-1.953 0-3.328 1.063-3.328 2.375 0 1.329 1.36 2.375 3.328 2.375 1.984 0 3.344-1.046 3.344-2.374zM9.156.095v-.656H.203v.656zM7.203-4.688c0 .985-1.11 1.672-2.531 1.672-1.422 0-2.516-.687-2.516-1.671 0-1.016 1.078-1.672 2.516-1.672 1.437 0 2.531.64 2.531 1.671zm0 0"/></symbol><symbol overflow="visible" id="aG"><path d="M9.156.313v-.641H5.031v-1.688H8.11v-.64H2.234v-1.531H7.75v-2.797H1.437v.656H7v1.5H1.469v2.812H4.25v1.688H.203v.64zm0 0"/></symbol><symbol overflow="visible" id="aH"><path d="M8.563-2.719c-.422-.11-1.407-.531-2.157-1.125-.703-.531-1.328-1.406-1.328-2.062v-.297h2.953v-.672H1.328v.672h2.953v.297c0 .656-.625 1.531-1.328 2.078-.75.578-1.75 1-2.156 1.11l.5.546c.375-.11 1.172-.437 1.953-1 .703-.515 1.297-1.281 1.422-1.61.14.329.734 1.095 1.437 1.61.782.578 1.579.906 1.954 1.016zM9.155.297V-.36H5.062v-2.188h-.78v2.188H.202v.656zm0 0"/></symbol><symbol overflow="visible" id="aI"><path d="M6.328-.938C5.781-1.25 5-1.844 4.468-2.64c-.624-.921-.843-1.953-.843-2.968v-1.61h-.781v1.61c0 1.015-.266 2.125-.797 2.984A6.553 6.553 0 0 1 .078-.703l.61.531C1.155-.5 1.796-1.032 2.25-1.64c.594-.765.89-1.468.984-1.843.125.39.438 1.078.985 1.765.547.657 1.187 1.094 1.578 1.344zm1.625-6.828h-.766V1.47h.766v-4.797h1.453v-.688H7.953zm0 0"/></symbol><symbol overflow="visible" id="aJ"><path d="M8.578-4.172c-.437-.11-1.437-.437-2.234-1.016-.813-.593-1.25-1.312-1.25-1.968v-.469h-.828v.469c0 .656-.438 1.375-1.25 1.968-.797.579-1.797.907-2.25 1.016l.468.531c.407-.093 1.391-.421 2.157-1 .671-.515 1.156-1.125 1.28-1.468.126.343.626.953 1.282 1.468.781.579 1.75.907 2.156 1zm.578 2.156v-.64H.203v.64h4.094V1.47h.766v-3.485zm0 0"/></symbol><symbol overflow="visible" id="aK"><path d="M8.563-2.781v-4.985h-.766v4.985zm-2.204-.875c-.328-.094-.984-.406-1.593-.953-.485-.422-.875-1.063-.875-1.704v-.171h2.015v-.657H1.063v.657h2.015v.171c0 .657-.297 1.25-.797 1.75C1.703-3.984.953-3.546.484-3.375l.547.578c.25-.094 1-.515 1.547-1.031.422-.39.766-.844.906-1.203.157.328.47.718.922 1.093.594.5 1.203.782 1.485.891zm2.204 5.015v-3.656h-.766v1.063H3.016v-1.063H2.25V1.36zM7.796.734H3.016V-.594h4.78zm0 0"/></symbol><symbol overflow="visible" id="aL"><path d="M4.75-6.547v-.672H1.844v.672zm1.328 1.64v-.655H.5v.656zm1.875-2.859h-.766V1.47h.766v-4.672h1.453v-.688H7.953zM5.656-1.984c0-1.141-.984-2.094-2.343-2.094-1.407 0-2.376.969-2.376 2.094S1.907.125 3.313.125c1.36 0 2.344-1 2.344-2.11zm-.781 0c0 .78-.578 1.453-1.563 1.453-1 0-1.578-.672-1.578-1.453 0-.766.579-1.438 1.579-1.438.984 0 1.562.672 1.562 1.438zm0 0"/></symbol><symbol overflow="visible" id="aM"><path d="M8.36 1.469v-9.235h-.766v2.454h-2.36c-.359-1.079-1.093-1.72-2.078-1.72-1.422 0-2.328 1.329-2.328 3.376 0 2.047.906 3.39 2.328 3.39 1.047 0 1.813-.734 2.14-1.921h2.298v3.656zM7.593-2.86H5.437c.032-.25.047-.5.047-.797a5.19 5.19 0 0 0-.078-1h2.188zm-2.875-.797c0 1.469-.532 2.687-1.563 2.687-1.015 0-1.562-1.219-1.562-2.687 0-1.453.547-2.672 1.562-2.672 1.031 0 1.563 1.219 1.563 2.672zm0 0"/></symbol><symbol overflow="visible" id="aN"><path d="M9.156-3.328v-.64h-1.61c.063-.25.204-.86.329-1.532.11-.61.203-1.219.25-1.813H1.281v.641H7.25c-.094.969-.39 2.297-.469 2.703H.203v.64h3.953v1.954h-2.86v.656h5.876V1.47h.766v-2.844h-3v-1.953zm0 0"/></symbol><symbol overflow="visible" id="aO"><path d="M5-1v-.688c-.406.063-1.234.172-1.781.188l-1.375.016v-5.344h-.766v6.047c.047 0 1 0 1.938-.031A23.39 23.39 0 0 0 5-1zm3.406 2.469v-9.235h-.734v3.547h-1.39v-3.328h-.75v8.594h.75v-4.578h1.39v5zm0 0"/></symbol><symbol overflow="visible" id="aP"><path d="M9.156.266v-.657H5.062v-2.203h-.765V-.39H.203v.657zm-4.062-6.86v-.75h-.828v.75c0 .875-.485 1.828-1.22 2.5-.78.735-1.858 1.282-2.296 1.407l.516.53c.359-.109 1.312-.562 2.093-1.25C4.016-4 4.563-4.811 4.672-5.233 4.797-4.813 5.344-4 6-3.406c.781.687 1.734 1.14 2.094 1.25l.515-.531c-.437-.126-1.515-.672-2.296-1.407-.735-.672-1.22-1.625-1.22-2.5zm0 0"/></symbol><symbol overflow="visible" id="aQ"><path d="M4.531-6.547h-3.5v.656h2.657C3.624-5.109 3.421-4 2.78-2.953 2.11-1.86 1.125-1.063.484-.656l.579.469c.906-.594 1.64-1.344 2.328-2.422.78-1.172 1.046-2.704 1.14-3.938zm3.89 8.016v-9.235h-.733v3.688H6.39v-3.469h-.75v8.594h.75v-4.422h1.296v4.844zm0 0"/></symbol><symbol overflow="visible" id="aR"><path d="M4.844-7.094v-.61H1.875v.61zm1.36 1.313v-.61H.577v.61zm3.171 1.11v-.657H8.031v-2.438h-.765v5.594h.765v-2.5zM3.391-2.329c1.468 0 2.39-.625 2.39-1.453 0-.828-.906-1.438-2.39-1.438C1.969-5.219 1-4.609 1-3.78s.953 1.453 2.39 1.453zm4.64 3.687v-2.921H1.937v2.921zM1.828-3.78c0-.516.578-.86 1.563-.86 1.015 0 1.578.344 1.578.86 0 .515-.563.828-1.578.828-1 0-1.563-.313-1.563-.828zm5.438 4.5H2.687V-.937h4.579zm0 0"/></symbol><symbol overflow="visible" id="aS"><path d="M6.969 1.047v-8.594h-.735v3.484H5.11v.672h1.125v4.438zm1.765.422v-9.235H8V1.47zM3.22-6.547H.984v.656h1.47a7.881 7.881 0 0 1-.595 2.594C1.406-2.219.891-1.422.406-.875l.61.266C1.5-1.188 2-1.984 2.53-3.234c.406-.954.656-2.454.688-3.313zm2.125 0H3.469v.656h1.125a9.245 9.245 0 0 1-.61 2.922C3.547-1.829 2.797-.766 2.375-.28l.656.265c.406-.515 1.094-1.5 1.64-2.89.532-1.313.673-3.125.673-3.64zm0 0"/></symbol><symbol overflow="visible" id="aT"><path d="M6.125-1.016c-.438-.234-1.016-.671-1.547-1.39-.547-.735-.875-1.828-.875-2.797v-.844h2.203v-.656H.75v.656h2.14v.844c0 .984-.39 2.094-.921 2.875C1.469-1.594.75-1.016.187-.672l.594.531A6.551 6.551 0 0 0 2.453-1.75c.5-.656.766-1.328.844-1.64.094.328.36 1.03.89 1.687A5.697 5.697 0 0 0 5.625-.406zm3.344-2.312V-4H8v-3.766h-.75V1.47H8v-4.797zm0 0"/></symbol><symbol overflow="visible" id="aU"><path d="M8.047-4.703v-.64h-5.86v-1.423h5.75v-.64H1.423v2.703zm1.11 1.484v-.625H.202v.625zm-1 4.578V.734H2.233v-.937h5.704V-2.36H1.421v.625h5.703v.921H1.422V1.36zm0 0"/></symbol><symbol overflow="visible" id="aV"><path d="M5.375-7.078H1v.64h3.484c-.093.704-.453 1.672-1.437 2.5a8.088 8.088 0 0 1-2.672 1.47l.516.515A8.063 8.063 0 0 0 3.75-3.641c.938-.859 1.547-2.25 1.625-3.437zm4 2.984v-.64H8v-3.032h-.75v6.704H8v-3.032zm-1.047 5.36V.625h-5.61v-2.219h-.75v2.86zm0 0"/></symbol><symbol overflow="visible" id="aW"><path d="M8.094-6.64H1.297v.656h5.969c-.032 1.406-.516 4.156-.547 4.312h.734c.016-.062.25-1.219.39-2.36.126-.921.22-1.624.25-2.609zM9.156.171v-.656H5.578v-3.297h-.766v3.297H3.234v-3.297h-.75v3.297H.204v.656zm0 0"/></symbol><symbol overflow="visible" id="aX"><path d="M9.156-1.453v-.64H.203v.64h2.438v2.812h.75v-2.812h2.546v2.922h.766v-2.922zm-1.094-1.64v-.657H2.234v-1.172H7.75V-7.39H1.437v.657H7v1.171H1.469v2.47zm0 0"/></symbol><symbol overflow="visible" id="aY"><path d="M5.266-3.578v-3.594H.969v3.594zm3.03 1.11v-5.298h-.765v5.297zm-1.608.312v-.594H3.39v.594zM8.717.875C8.235.812 7.626.672 6.86.344 6.188.047 5.641-.47 5.547-.781c0-.016 0-.063-.016-.078h2.875v-.61h-6.64v.61h2.89c0 .015 0 .078-.015.078C4.562-.47 4 .047 3.328.344c-.75.328-1.36.469-1.86.531l.5.594c.438-.063.923-.172 1.688-.5C4.36.656 4.97.109 5.11-.094c.11.203.735.75 1.438 1.063.75.328 1.25.437 1.672.5zM4.517-4.219H1.719V-6.53h2.797zm0 0"/></symbol><symbol overflow="visible" id="aZ"><path d="M7.938-3.75v-3.797h-.75v1.11H2.171v-1.11h-.75v3.797zm1.218 1.625v-.656H.203v.656h4.219v1.984h.766v-1.984zm-.922 3.39V.61H2.188v-1.843h-.766v2.5zm-1.046-5.64H2.171v-1.438h5.015zm0 0"/></symbol><symbol overflow="visible" id="ba"><path d="M9.266-1.828V-2.5h-1.47v-2.172h1.47v-.672h-1.47v-2.422h-.765V1.47h.766v-3.297zm-4.11-1.828c0-2.547-1.281-3.375-2.328-3.375C1.813-7.031.5-6.234.5-3.656c0 2.515 1.25 3.39 2.328 3.39 1.094 0 2.328-.89 2.328-3.39zm-.765 0c0 1.469-.532 2.687-1.547 2.687-1.016 0-1.578-1.219-1.578-2.687 0-1.453.562-2.672 1.578-2.672 1.015 0 1.547 1.219 1.547 2.672zm0 0"/></symbol><symbol overflow="visible" id="bb"><path d="M6.781-.453v-.672c-.687.125-1.86.188-2.703.219h-.281V-2.86c1.25-.172 2.094-1.079 2.094-2.157 0-1.125-1.032-2.234-2.5-2.234-1.47 0-2.5.984-2.5 2.203 0 1.125.875 2.047 2.14 2.188v1.984H.328v.64h2.985c1.39-.03 2.812-.124 3.468-.218zM7.97-7.766h-.766V1.47h.766V-3.11h1.375v-.672H7.969zm-2.844 2.72c0 .843-.61 1.53-1.719 1.53-1.125 0-1.765-.687-1.765-1.53 0-.829.625-1.532 1.75-1.532 1.109 0 1.734.703 1.734 1.531zm0 0"/></symbol><symbol overflow="visible" id="bc"><path d="M8.094-6.031c0-.985-1.203-1.766-3.422-1.766-2.203 0-3.39.766-3.39 1.766 0 .984 1.187 1.75 3.39 1.75 2.219 0 3.422-.75 3.422-1.75zm1.062 3.203v-.656H.203v.656h2.5v1.297c-.969.281-1.547.812-1.547 1.468 0 1 1.313 1.72 3.532 1.72 2.234 0 3.5-.72 3.5-1.72 0-.625-.516-1.171-1.485-1.453v-1.312zm-1.89-3.203c0 .656-1.047 1.125-2.594 1.125-1.563 0-2.578-.5-2.578-1.14 0-.673 1.015-1.157 2.578-1.157 1.547 0 2.594.5 2.594 1.172zM5.937-1.703a9.915 9.915 0 0 0-1.25-.078c-.453 0-.859.015-1.234.078v-1.125h2.485zM2-.078c0-.688 1.125-1.094 2.672-1.094 1.547 0 2.687.422 2.687 1.11 0 .656-1.14 1.093-2.671 1.093C3.14 1.031 2 .594 2-.079zm0 0"/></symbol><symbol overflow="visible" id="bd"><path d="M4.844-7.094v-.61H1.875v.61zm1.36 1.297v-.625H.577v.625zm3.171 1.063v-.641H8.031v-2.39h-.765v5.234h.765v-2.203zM3.391-2.531c1.484 0 2.375-.61 2.375-1.375 0-.75-.875-1.39-2.375-1.39C1.937-5.297 1-4.673 1-3.907c0 .75.938 1.375 2.39 1.375zm4.64 3.89v-3.375h-.765V-1H2.703v-1.016h-.765V1.36zM1.828-3.906c0-.5.547-.797 1.563-.797 1.03 0 1.562.375 1.562.797 0 .484-.531.765-1.562.765-1.016 0-1.563-.312-1.563-.765zM7.266.734H2.703V-.375h4.563zm0 0"/></symbol><symbol overflow="visible" id="be"><path d="M6.453-7.188v-.64H2.891v.64zm2.094 3.25a7.673 7.673 0 0 1-2.125-.64c-.672-.313-1.188-.734-1.313-1.11v-.046h2.954v-.641H1.296v.64H4.25l-.016.048c-.109.375-.609.796-1.28 1.109a7.598 7.598 0 0 1-2.142.64l.438.579c.328-.047 1.266-.235 2-.61.703-.344 1.313-.844 1.438-1.047.125.204.718.704 1.421 1.047.75.375 1.688.563 2 .61zm.61 1.954v-.641H5.093v-1.313h-.828v1.313H.203v.64zm-1.22 3.453v-2.5h-6.64v.656h5.875v1.844zm0 0"/></symbol><symbol overflow="visible" id="bf"><path d="M6.281-3.078c-.437-.203-1.172-.625-1.687-1.235a3.037 3.037 0 0 1-.703-1.921v-.25h2.015v-.641H1.063v.64h2.015v.25c0 .798-.297 1.594-.828 2.173-.578.609-1.266 1.015-1.781 1.28l.578.579c.312-.14.969-.547 1.484-1.063.453-.453.828-.968.953-1.375.172.391.5.829.875 1.188.547.515 1.11.828 1.47.984zm2.266 2.015v-6.703h-.75v6.704zm.234 2.329V.625h-5.75v-2.266H2.25v2.907zm0 0"/></symbol><symbol overflow="visible" id="bg"><path d="M9.156-2.281v-.656H5.062V-4.22h2.875v-3.187H1.423v3.187h2.875v1.282H.203v.656zm-1.219 3.75v-2.657h-6.64v.657h5.875v2zm-.75-6.344H2.173V-6.75h5.015zm0 0"/></symbol><symbol overflow="visible" id="bh"><path d="M6.281-.984v-.641c-.437.078-1.703.219-2.625.25l-1.984.016v-4.61h3.625v-.656H.922v5.922c.062 0 1.39.015 2.515-.031a20.452 20.452 0 0 0 2.844-.25zm2.86-2.344V-4H7.687v-3.766h-.765V1.47h.766v-4.797zm0 0"/></symbol><symbol overflow="visible" id="bi"><path d="M1.703 1.125V0H.563v1.125zm0 0"/></symbol><symbol overflow="visible" id="bj"><path d="M5.469-3.656c0-2.047-.907-3.375-2.328-3.375-1.407 0-2.329 1.328-2.329 3.375 0 2.047.922 3.39 2.329 3.39 1.421 0 2.328-1.343 2.328-3.39zm2.86 5.125v-9.235h-.767V1.47zm-3.61-5.125c0 1.469-.547 2.687-1.563 2.687-1.015 0-1.578-1.219-1.578-2.687 0-1.453.563-2.672 1.578-2.672 1.016 0 1.563 1.219 1.563 2.672zm0 0"/></symbol><symbol overflow="visible" id="bk"><path d="M9.156-2.719v-.625H.203v.625zm-1.265.766H1.42v.61h5.673v.75H1.422v1.952H8.14V.75H2.219V0H7.89zm.203-2.172v-.61h-5.86v-.75h5.61v-1.952H1.422v.609h5.61v.75h-5.61v1.953zm0 0"/></symbol><symbol overflow="visible" id="bl"><path d="M9.156-2.219v-.656H5.078v-.953h2.953v-.625h-5.86v-.922h5.767v-.594H2.171v-.875h5.765v-.625h-6.53v3.64h2.859v.954H.203v.656zm-4.484.594c-2.219 0-3.453.688-3.453 1.625 0 .938 1.25 1.64 3.453 1.64C6.906 1.64 8.125.97 8.125.017c0-.938-1.219-1.641-3.453-1.641zm2.61 1.64c0 .61-1.063 1.016-2.61 1.016C3.109 1.031 2.078.625 2.078 0c0-.625 1.047-1 2.594-1s2.61.36 2.61 1.016zm0 0"/></symbol><symbol overflow="visible" id="bm"><path d="M3.984-6.313v-.656H1.5v.657zm1.079 1.579v-.641H.421v.64zM8.53 1.469v-9.235h-.734v3.891H6.516v-3.672H5.78v8.594h.735v-4.203h1.28v4.625zm-3.765-3.5c0-1.125-.86-1.922-2.016-1.922-1.125 0-2.031.797-2.031 1.922 0 1.172.906 1.953 2.031 1.953 1.156 0 2.016-.797 2.016-1.953zm-.735.015c0 .782-.5 1.297-1.281 1.297-.781 0-1.281-.515-1.281-1.297 0-.765.5-1.312 1.281-1.312.781 0 1.281.547 1.281 1.312zm0 0"/></symbol><symbol overflow="visible" id="bn"><path d="M2.172-4.297v-.578h-.75v-.688c0-.28-.016-.468.14-.625.172-.171.454-.109.579-.109v-.594h-.547c-.313.016-.563.172-.688.375-.156.204-.172.438-.172.86v.781H.078v.578h.656V.516h.688v-4.813zm0 0"/></symbol><symbol overflow="visible" id="bo"><path d="M5.14.5C5.14.484 5 .11 5-.36V-3.28c0-1.125-1.031-1.781-2.25-1.781-1.281 0-2.344.718-2.234 1.765h.671c-.03-.672.579-1.156 1.563-1.156 1.047 0 1.531.578 1.531 1.156 0 .469-.5.594-.843.656-.641.11-1.422.11-2.032.297C.672-2.125.094-1.578.188-.656.28.266 1.14.75 2.217.672 3.079.625 3.86.14 4.282-.344c.016.36.078.703.157.844zm-.859-1.906C4.281-.75 3.297 0 2.313.078 1.563.141.937-.125.89-.782c-.032-.546.328-.921 1.046-1.109.329-.093 1.282-.171 1.72-.265.218-.047.468-.156.624-.281zm0 0"/></symbol><symbol overflow="visible" id="bp"><path d="M3.64-2.25c-.468-.25-1.156-.313-1.609-.453-.39-.125-.984-.328-.953-.875.031-.547.5-.89 1.328-.89.985 0 1.39.593 1.39 1.077h.688c.047-.703-.625-1.718-2.046-1.718-1.313 0-2 .765-2.047 1.53-.032.72.515 1.11 1.109 1.329.438.156 1.125.234 1.64.453.485.219.876.469.813.953-.11.61-.75.906-1.469.906C1.61.063.86-.39.86-1.171H.156C.156-.469.72.734 2.516.703 3.75.688 4.562-.047 4.656-.922c.063-.734-.515-1.094-1.015-1.328zm0 0"/></symbol><symbol overflow="visible" id="bq"><path d="M2.172-4.297v-.578h-.75v-1.656H.734v1.656H.078v.578h.656V-.75c0 .422.016.64.172.844.14.203.375.406.688.406h.547v-.578c-.157 0-.422 0-.579-.156-.171-.157-.14-.329-.14-.61v-3.453zm0 0"/></symbol><symbol overflow="visible" id="br"><path d="M2.781-5.047C1.203-5.047.25-3.813.25-2.187.25-.563 1.203.687 2.781.687c1.578 0 2.547-1.25 2.547-2.875 0-1.624-.969-2.859-2.547-2.859zm0 5.11C1.703.063.984-.907.984-2.188c0-1.282.72-2.22 1.797-2.22 1.078 0 1.813.938 1.813 2.22 0 1.28-.735 2.25-1.813 2.25zm0 0"/></symbol><symbol overflow="visible" id="bs"><path d="M1.328.469v-7.344H.641V.469zm0 0"/></symbol><symbol overflow="visible" id="bt"><path d="M7.281-4.86H6.61L5.36-.577h-.062L4.063-4.86h-.766L2.062-.58H2L.75-4.858H.062L1.657.484h.75l1.235-4.14h.062L4.938.484h.765zm0 0"/></symbol><symbol overflow="visible" id="bu"><path d="M5.313-2.016c.03-2-1.157-3.03-2.547-3.03C1.234-5.047.25-3.813.25-2.188.25-.563 1.266.687 2.781.687c1.406 0 2.078-.89 2.328-1.625h-.78c-.157.5-.641 1-1.563 1C1.89.063 1-.765.969-2zM1-2.594c.063-1.11.813-1.828 1.766-1.828.984 0 1.75.734 1.796 1.828zm0 0"/></symbol><symbol overflow="visible" id="bv"><path d="M3.266-5.031c-.22 0-.657.047-.985.218-.39.188-.687.47-.89.813l-.063-.016v-.828H.641V.47h.687v-2.781c0-.922.313-1.438.922-1.797.297-.172.703-.204 1.016-.204zm0 0"/></symbol><symbol overflow="visible" id="bw"><path d="M5.266-6.656H1.03v.64h3.36a6.793 6.793 0 0 1-1.22 3.157C2.47-1.875 1.392-1.11.485-.656l.594.484c1-.547 1.938-1.281 2.813-2.469.89-1.203 1.28-2.843 1.375-4.015zm2.609-1.11h-.766V1.47h.766v-4.61h1.469v-.671H7.875zm0 0"/></symbol><symbol overflow="visible" id="bx"><path d="M7.89-7.766h-.765V1.47h.766v-4.64h1.468v-.673H7.891zm-2.624 4.11c0-2.547-1.282-3.375-2.344-3.375-1.016 0-2.328.797-2.328 3.375 0 2.515 1.25 3.39 2.328 3.39 1.094 0 2.344-.89 2.344-3.39zm-.766 0C4.5-2.187 3.953-.97 2.937-.97c-1.015 0-1.578-1.219-1.578-2.687 0-1.453.563-2.672 1.579-2.672C3.952-6.328 4.5-5.11 4.5-3.656zm0 0"/></symbol><symbol overflow="visible" id="by"><path d="M6.734-3.266v-.64c-.656.156-1.906.297-3.015.344l-2 .015v-3.781h-.75v4.437l2.719-.03a21.322 21.322 0 0 0 3.046-.345zm1.47 2.204v-6.704h-.75v6.704zm.202 2.328V.625H2.703v-2.328h-.75v2.969zm0 0"/></symbol><symbol overflow="visible" id="bz"><path d="M1.375-6.11v-.812H.594v.813zM1.328.485v-5.437H.641V.484zm0 0"/></symbol><symbol overflow="visible" id="bA"><path d="M7.469.469v-3.656c0-.891-.407-1.797-1.422-1.86-1.063-.062-1.625.656-1.828.953-.219-.531-.672-.922-1.266-.953-.781-.031-1.297.406-1.656.86v-.657H.609V.47h.688V-2.86c0-.86.531-1.516 1.328-1.532.797-.015 1.078.547 1.078 1.422L3.72.47h.672V-2.86c0-.891.53-1.516 1.328-1.532.797-.015 1.062.547 1.062 1.422V.47zm0 0"/></symbol><symbol overflow="visible" id="bB"><path d="M5.125-4.844h-.719l-1.812 4.5-1.797-4.5H.062L2.204.484H3zm0 0"/></symbol><symbol overflow="visible" id="bC"><path d="M9.234-3.844v-.64H7.875v-1.297h1.36v-.64h-1.36v-1.345h-.75v5.563h.75v-1.64zM8.188-.188c0-1.062-1.157-1.828-3.313-1.828S1.562-1.25 1.562-.187c0 1.062 1.157 1.812 3.313 1.812S8.188.875 8.188-.188zm-.829.016C7.36.547 6.344 1 4.875 1s-2.5-.469-2.5-1.188c0-.75 1.031-1.187 2.5-1.187s2.484.453 2.484 1.203zM5.344-5.203c0-1.234-1.016-2.234-2.438-2.234-1.437 0-2.453 1-2.453 2.234s1.016 2.25 2.453 2.25c1.422 0 2.438-1.016 2.438-2.25zm-.797 0c0 .86-.578 1.562-1.64 1.562-1.063 0-1.657-.703-1.657-1.562 0-.86.594-1.547 1.656-1.547 1.063 0 1.64.688 1.64 1.547zm0 0"/></symbol><symbol overflow="visible" id="bD"><path d="M6.5-3.219c-.531-.172-1.266-.625-1.875-1.297-.469-.5-.813-1.171-.813-2.109v-.844h-.78v.844c0 .922-.36 1.688-.845 2.297-.5.61-1.312 1.172-1.812 1.406l.547.516c.437-.235 1.031-.672 1.547-1.203.437-.454.812-1.016.953-1.485.187.453.484.86.906 1.297.547.578 1.313 1.016 1.688 1.156zm1.938 1.047v-5.594h-.75v1.985h-2.11v.672h2.11v2.937zm.171 2c0-1.062-1.156-1.812-3.312-1.812-2.14 0-3.313.765-3.313 1.812 0 1.063 1.172 1.813 3.313 1.813 2.156 0 3.312-.75 3.312-1.813zm-.812.016c0 .719-1.031 1.187-2.484 1.187-1.485 0-2.5-.468-2.5-1.187 0-.75 1.015-1.203 2.5-1.203 1.453 0 2.484.453 2.484 1.203zm0 0"/></symbol><symbol overflow="visible" id="bE"><path d="M8.047-4.453v-.656h-5.86v-2.579h-.78v3.235zm1.11 2.078v-.64H.202v.64zm-.86 3.64V.61H2.172v-2.14h-.75v2.797zm0 0"/></symbol><symbol overflow="visible" id="bF"><path d="M5-.844v-.672c-.375.063-1.094.157-1.703.157l-1.485.03v-4.577h2.422v-.657H1.047v5.907c.062 0 1.125 0 2.047-.031C4.016-.72 4.672-.781 5-.845zm1.438 1.89v-8.593h-.735v3.39H3.937v.657h1.766v4.547zm1.953.423v-9.235h-.735V1.47zm0 0"/></symbol><symbol overflow="visible" id="bJ"><path d="M5.281-6.797v-.656H2.47v.656zm1.313 3.781c-.313-.078-.875-.312-1.453-.796-.485-.422-.782-.86-.829-1.297-.015-.032-.015-.125-.015-.141h2.125v-.656H1.375v.656H3.5l-.016.14c-.046.47-.375.938-.906 1.36-.578.469-1.328.766-1.656.86l.469.578a6.49 6.49 0 0 0 1.5-.797c.53-.391.89-.86 1-1.079.093.22.421.641.906 1.016.578.469 1.14.688 1.328.735zM8.437 1.47v-9.235h-.75V1.47zM7.25-.421v-.657c-.672.11-1.938.172-2.719.203h-.25v-1.781H3.5V-.86H.61v.671l3.265-.015C5-.22 6.594-.328 7.25-.422zm0 0"/></symbol><symbol overflow="visible" id="bK"><path d="M6.328-2.89c-.422-.157-1.266-.782-1.797-1.391-.5-.547-.828-1.485-.828-2.344v-.844h-.797v.844c0 .844-.312 1.766-.828 2.438-.515.703-1.297 1.25-1.828 1.5l.531.515c.485-.234 1.125-.703 1.656-1.312.47-.547.72-1.047.86-1.5.156.437.484.937.89 1.375.516.562 1.313 1.109 1.625 1.265zm2.11 1.828v-6.704h-.75v6.704zm.203 2.328V.625H3v-2.219h-.75v2.86zm0 0"/></symbol><symbol overflow="visible" id="bL"><path d="M6.625-.844v-.64c-.297.03-.766.093-1.188.125-.437.03-.984.03-1.015.03v-4.687h1.766v-.64H3.671v5.968c.047 0 .937 0 1.625-.03.422-.032 1.016-.095 1.328-.126zm-3.25.063v-.64a8.99 8.99 0 0 1-1.14.093h-.657v-4.688h1.547v-.64H.828v5.968L2.36-.703c.375-.016.735-.047 1.016-.078zm5.828-2.594v-.672H7.828v-3.719h-.766V1.47h.766v-4.844zm0 0"/></symbol><symbol overflow="visible" id="bM"><path d="M8.094-3.39v-.657H2.219V-5.14h5.625v-2.328H1.422v.64h5.625v1.048H1.422v2.39zm1.062 1.656v-.641H.203v.64zm-.953 3V.609H2.188v-1.703h-.766v2.36zm0 0"/></symbol><symbol overflow="visible" id="bN"><path d="M9.328-4.594v-.656H8v-2.516h-.75v5.47H8v-2.298zM5.391-7.078H1v.64h3.484c-.046.5-.39 1.5-1.406 2.313-.953.75-1.875 1.078-2.64 1.297l.453.531c.875-.25 1.859-.64 2.906-1.562.953-.844 1.484-2.016 1.594-3.22zM8 1.469v-3.11H1.734V-1H7.25v2.469zm0 0"/></symbol><symbol overflow="visible" id="bO"><path d="M8.281-2.906v-4.86h-.75v1.47H5.25v-1.048H4.5v1.438H1.687v-1.438h-.75v4.14H5.25v-.858h2.281v1.156zm-.75-1.781H5.25v-1h2.281zM4.5-3.829H1.687v-1.453H4.5zm3.969 5.187V.766H2.813v-.938h5.421v-2.14H2.031v.593h5.422v.938H2.031v2.14zm0 0"/></symbol><symbol overflow="visible" id="bP"><path d="M6.203-3.078A4.91 4.91 0 0 1 4.5-4.297a3.081 3.081 0 0 1-.703-1.937v-.25h2.015v-.641H.984v.64h2.032v.25c0 .798-.313 1.594-.844 2.173-.578.625-1.25 1.015-1.781 1.28l.578.579c.297-.156.969-.547 1.484-1.063.453-.468.828-.984.938-1.375.187.391.515.829.89 1.188.547.5 1.11.828 1.469 1zm2.328 2.015v-6.703h-.765v2.297H5.703v.672h2.063v3.734zm.235 2.329V.625H2.984v-2.25H2.22v2.89zm0 0"/></symbol><symbol overflow="visible" id="bQ"><path d="M7.938-4.063v-3.343H1.421v3.343zm1.218 1.797v-.656H.203v.656h4.219v2.063h.766v-2.063zm-.922 3.532V.609H2.188v-1.875h-.766v2.532zM7.188-4.72H2.171V-6.75h5.015zm0 0"/></symbol><symbol overflow="visible" id="bR"><path d="M6.484-6.734v-.657H2.875v.657zm2.094 4.328c-.437-.078-1.265-.344-2.078-.828-.625-.391-1.297-1.079-1.39-1.625l-.016-.125h3v-.657H1.266v.657h3c0 .015 0 .109-.016.125-.094.562-.766 1.234-1.39 1.625-.797.484-1.641.75-2.079.828l.485.578c.406-.078 1.234-.39 1.984-.828.672-.406 1.281-1.125 1.422-1.406.156.28.766 1 1.437 1.406.75.453 1.579.75 1.985.828zm.578 2.86v-.657H5.062v-2.094h-.765v2.094H.203v.656zm0 0"/></symbol><symbol overflow="visible" id="bS"><path d="M5.297-2.828v-4.485h-.75v1.594H1.672v-1.593h-.75v4.484zm2.969.703v-5.64H7.5v5.64zm.078 2.016c0-1.016-1.172-1.766-3.328-1.766-2.141 0-3.329.75-3.329 1.766 0 1.015 1.188 1.75 3.329 1.75 2.156 0 3.328-.735 3.328-1.75zM4.547-3.453H1.672v-1.61h2.875zM7.53-.11c0 .687-1.047 1.14-2.5 1.14C3.547 1.031 2.5.578 2.5-.109c0-.72 1.047-1.141 2.531-1.141 1.453 0 2.5.438 2.5 1.14zm0 0"/></symbol><symbol overflow="visible" id="bT"><path d="M8.438-2.453v-5.313h-.75v5.313zM6.39-3.36c-.532-.172-1.266-.61-1.875-1.297-.454-.5-.797-1.172-.797-2.11v-.703h-.797v.703c0 .922-.36 1.688-.844 2.297-.5.61-1.312 1.172-1.812 1.422l.562.5a6.318 6.318 0 0 0 1.516-1.187c.453-.454.812-1.016.969-1.485.203.453.484.86.921 1.297.532.578 1.297 1 1.672 1.156zm2.03 4.718v-3.25H2.235v3.25zM7.657.72H3V-1.25h4.656zm0 0"/></symbol><symbol overflow="visible" id="bU"><path d="M8.078-6.219v-.656H1.266v.656zM9.156.25v-.64H5.062V-2.5h3.235v-.64H6.812l.204-2.75H6.25l-.203 2.75h-2.75l-.203-2.75h-.766l.203 2.75h-1.5v.64h3.25v2.11H.203v.64zm0 0"/></symbol><symbol overflow="visible" id="bV"><path d="M6.344-1.016c-.453-.25-1.032-.687-1.563-1.39-.547-.735-.86-1.828-.86-2.797v-.844H6.11v-.656H.938v.656h2.156v.844c0 .984-.39 2.094-.922 2.875A6.075 6.075 0 0 1 .375-.672L1-.14c.484-.312 1.078-.828 1.672-1.609.469-.656.75-1.328.828-1.64a5.36 5.36 0 0 0 .89 1.687C4.939-1 5.5-.61 5.814-.391zM8.53 1.47v-9.235h-.765V1.47zm0 0"/></symbol><symbol overflow="visible" id="bW"><path d="M8.063-6.063c0-1.015-1.188-1.734-3.391-1.734-2.172 0-3.36.719-3.36 1.734 0 1.016 1.188 1.75 3.36 1.75 2.203 0 3.39-.734 3.39-1.75zm1.093 3.25v-.64H.203v.64h4.094v1.22H1.422v2.952h6.516v-2.953H5.063v-1.218zM7.25-6.063c0 .688-1.047 1.157-2.578 1.157s-2.563-.469-2.563-1.157c0-.703 1.016-1.156 2.563-1.156 1.531 0 2.578.453 2.578 1.157zM7.187.72H2.173V-.953h5.015zm0 0"/></symbol><symbol overflow="visible" id="bX"><path d="M8.531-2.156v-5.61h-.765v2.235H5.687v.672h2.079v2.703zM6.297-3.391c-.344-.093-1.156-.468-1.688-1a2.67 2.67 0 0 1-.796-1.875l-.016-.218h2.047v-.657H1v.657h2.016L3-6.25a3.137 3.137 0 0 1-.781 1.922C1.64-3.718.89-3.297.39-3.078l.546.547c.297-.14.954-.485 1.5-1 .47-.453.797-.875.97-1.313.218.438.452.735.921 1.172.547.531 1.281.797 1.516.89zM8.672-.14c0-1.046-1.172-1.812-3.328-1.812-2.157 0-3.328.766-3.328 1.812 0 1.032 1.171 1.782 3.328 1.782C7.5 1.64 8.672.89 8.672-.141zm-.844 0c0 .72-1.016 1.172-2.484 1.172-1.469 0-2.5-.468-2.5-1.172 0-.734 1.031-1.187 2.5-1.187 1.468 0 2.484.453 2.484 1.187zm0 0"/></symbol><symbol overflow="visible" id="cd"><path d="M8.578-4.516c-.484-.093-1.453-.406-2.234-.953-.75-.531-1.25-1.203-1.25-1.812v-.422h-.828v.422c0 .61-.5 1.281-1.25 1.812-.782.547-1.75.86-2.25.953l.468.532a6.832 6.832 0 0 0 2.094-.875C4-5.33 4.578-5.984 4.672-6.281c.11.297.672.953 1.36 1.422.78.515 1.765.812 2.077.875zm.578 2.172v-.64H5.062v-1.532h-.765v1.532H.203v.64zM7.97 1.47v-2.703H1.266v.64h5.953V1.47zm0 0"/></symbol><symbol overflow="visible" id="ce"><path d="M3.14-7.438C1.704-7.438.688-6.39.688-5.094c0 1.282 1.016 2.344 2.454 2.344 1.421 0 2.437-1.063 2.437-2.344 0-1.297-1.016-2.343-2.437-2.343zm5.266 6.375v-6.703h-.75v6.704zm.235 2.329V.625H2.906v-2.234h-.765v2.875zm-5.5-8c1.062 0 1.64.734 1.64 1.64 0 .907-.578 1.64-1.64 1.64-1.063 0-1.657-.733-1.657-1.64 0-.906.594-1.64 1.657-1.64zm0 0"/></symbol><symbol overflow="visible" id="cf"><path d="M4.969-.906v-.64c-.36.062-1.078.171-1.688.187l-1.469.015v-4.562h2.422v-.657H1.047v5.891c.047 0 1.11.016 2.031-.031.922-.031 1.578-.14 1.89-.203zM8.39 1.469v-9.235h-.735v3.672H6.25v-3.453h-.734v8.594h.734v-4.469h1.406v4.89zm0 0"/></symbol><symbol overflow="visible" id="cg"><path d="M3.703-7.813c-1.469 0-2.375.782-2.375 1.672 0 .907.906 1.688 2.375 1.688 1.469 0 2.375-.766 2.375-1.688 0-.89-.89-1.671-2.375-1.671zM8.438-.546v-7.219h-.75v5.36H5.28v.64h2.407v1.22zm-1.11-2.86v-.64c-.469.078-2.156.25-3.328.266L.531-3.75v.625H2.86v1.734h.75v-1.75c1.5 0 2.985-.14 3.72-.265zm1.344 4.673V.609H2.89V-1h-.75v2.266zM3.703-7.188c1.11 0 1.625.563 1.625 1.047 0 .485-.516 1.047-1.61 1.047-1.093 0-1.64-.562-1.64-1.047 0-.484.531-1.046 1.625-1.046zm0 0"/></symbol><symbol overflow="visible" id="ch"><path d="M2.625 1.86c-1.031-1.813-1.469-3.438-1.469-5 0-1.547.438-3.157 1.469-5h-.516C1.47-7.126.391-5.407.391-3.14c0 2.296 1.078 3.984 1.718 5zm0 0"/></symbol><symbol overflow="visible" id="ci"><path d="M5.516-5.234c0-1.235-1-2.204-2.422-2.204-1.438 0-2.422.97-2.422 2.204 0 1.234.984 2.203 2.422 2.203 1.422 0 2.422-.969 2.422-2.203zM8.406-2.5v-5.266h-.75V-2.5zm0 3.86v-3.282H2.141V1.36zM4.703-5.235c0 .859-.547 1.53-1.61 1.53-1.062 0-1.624-.671-1.624-1.53 0-.844.562-1.516 1.625-1.516 1.062 0 1.61.672 1.61 1.516zM7.656.719H2.922v-2h4.734zm0 0"/></symbol><symbol overflow="visible" id="cj"><path d="M1.719 0H.562v1h.641c0 .234-.25.516-.61.563l.266.328c.188-.079.438-.172.61-.407.172-.25.25-.515.25-.765zm0 0"/></symbol><symbol overflow="visible" id="ck"><path d="M5.375-.531v-6.344h-.75v2.297H1.75v-2.297H.984v6.344zm2.813 2v-9.235h-.766V1.47zm-3.563-2.64H1.75v-2.735h2.875zm0 0"/></symbol><symbol overflow="visible" id="cl"><path d="M.797-8.14H.28c1.047 1.843 1.469 3.453 1.469 5 0 1.562-.422 3.187-1.469 5h.516c.64-1.016 1.719-2.704 1.719-5 0-2.266-1.079-3.985-1.72-5zm0 0"/></symbol><symbol overflow="visible" id="cm"><path d="M7.938-3.422v-4.047h-.766v1.235H2.188V-7.47h-.766v4.047zm1.218 1.844v-.64H.203v.64h4.063v3.047h.78v-3.047zM7.172-4.062H2.188v-1.532h4.984zm0 0"/></symbol><symbol overflow="visible" id="cn"><path d="M8.438-2.875v-4.89h-.75V-6h-2.11v.625h2.11v2.5zm-2.016-.828c-.406-.14-1.125-.531-1.719-1.094-.484-.453-.89-1.078-.89-1.906V-7.5H3.03v.797c0 .89-.515 1.672-1 2.156C1.5-4.03.812-3.594.36-3.422l.532.547c.312-.14 1-.547 1.53-1.063.485-.468.829-.921 1-1.374.204.421.548.828.97 1.203.562.484 1.218.843 1.578.984zm2.234 5.062V.766h-5.61v-1h5.36v-2.188h-6.14v.594h5.359v1h-5.36v2.187zm0 0"/></symbol><symbol overflow="visible" id="co"><path d="M8.297-2.813v-4.953H7.53v2.032H5.375C5.156-6.75 4.203-7.47 3.031-7.47c-1.344 0-2.375.907-2.375 2.14 0 1.235 1.047 2.126 2.375 2.126 1.235 0 2.235-.797 2.36-1.89h2.14v2.28zm0 4.172v-3.671H7.53v1.124H2.797v-1.125h-.75V1.36zM4.609-5.344c0 .797-.625 1.438-1.578 1.438-.953 0-1.594-.64-1.594-1.438 0-.781.641-1.422 1.594-1.422.953 0 1.578.625 1.578 1.422zM7.531.72H2.797V-.562H7.53zm0 0"/></symbol><symbol overflow="visible" id="cp"><path d="M9.188-5.063v-.64H7.843v-2.063h-.75v4.844h.75v-2.14zm-4.063 1.72v-4h-.75v1.374H1.562v-1.375h-.75v4zm2.984 4.702V.766H2.58v-.938h5.265v-2.14H1.797v.593h5.266v.938H1.796v2.14zM4.375-3.969H1.562v-1.375h2.813zm0 0"/></symbol><symbol overflow="visible" id="cq"><path d="M7.89 1.36V-2H1.845v3.36zM7.126.718H2.594V-1.36h4.531zm2.11-5.688v-.656H7.89v-2.14h-.766v5.234h.766V-4.97zm-2.75 1.453v-.64c-.61.125-1.657.218-2.844.265l-2.016.016v-2.563h3.734v-.656H.86v3.875l2.547-.031c1.422-.047 2.453-.156 3.078-.266zm0 0"/></symbol><symbol overflow="visible" id="cr"><path d="M8.438 1.469v-9.235h-.766v3.22H5.438v.671h2.234v5.344zM6.562-.938c-.546-.312-1.328-.906-1.859-1.703-.625-.921-.844-1.953-.844-2.968v-1.61h-.78v1.61c0 1.015-.267 2.125-.798 2.984C1.766-1.828.97-1.109.312-.703l.61.531c.469-.328 1.11-.86 1.562-1.469.594-.765.891-1.468.985-1.843.125.39.437 1.078.984 1.765C5-1.062 5.641-.625 6.031-.375zm0 0"/></symbol></defs><g fill="#231f20"><use xlink:href="#a" x="74.885" y="47.727"/><use xlink:href="#b" x="82.886" y="47.727"/><use xlink:href="#c" x="85.492" y="47.727"/><use xlink:href="#d" x="88.099" y="47.727"/><use xlink:href="#e" x="92.054" y="47.727"/><use xlink:href="#d" x="96.01" y="47.727"/><use xlink:href="#f" x="99.965" y="47.727"/><use xlink:href="#g" x="103.92" y="47.727"/><use xlink:href="#c" x="111.92" y="47.727"/><use xlink:href="#h" x="114.527" y="47.727"/><use xlink:href="#i" x="122.527" y="47.727"/><use xlink:href="#j" x="130.528" y="47.727"/><use xlink:href="#k" x="138.528" y="47.727"/></g><g fill="#393536"><use xlink:href="#l" x="42.468" y="48.426"/><use xlink:href="#m" x="48.041" y="48.426"/><use xlink:href="#n" x="53.614" y="48.426"/></g><g fill="#33459a"><use xlink:href="#o" x="76.442" y="106.204"/><use xlink:href="#p" x="93.522" y="106.204"/><use xlink:href="#q" x="98.816" y="106.204"/><use xlink:href="#r" x="105.079" y="106.204"/><use xlink:href="#s" x="114.681" y="106.204"/><use xlink:href="#r" x="125.574" y="106.204"/><use xlink:href="#t" x="135.176" y="106.204"/><use xlink:href="#u" x="142.501" y="106.204"/><use xlink:href="#q" x="159.58" y="106.204"/><use xlink:href="#v" x="165.843" y="106.204"/><use xlink:href="#w" x="182.922" y="106.204"/><use xlink:href="#x" x="200.001" y="106.204"/><use xlink:href="#y" x="217.08" y="106.204"/></g><path d="M76.441 173.164h318.707" fill="none" stroke-width=".299637" stroke="#33459a" stroke-miterlimit="10"/><use xlink:href="#z" x="76.442" y="168.171" fill="#33459a"/><g fill="#33459a"><use xlink:href="#A" x="92.825" y="168.171"/><use xlink:href="#B" x="100.188" y="168.171"/><use xlink:href="#C" x="111.049" y="168.171"/><use xlink:href="#D" x="116.092" y="168.171"/></g><use xlink:href="#D" x="120.326" y="168.171" fill="#33459a"/><use xlink:href="#D" x="120.326" y="168.171" fill="#33459a"/><g fill="#33459a"><use xlink:href="#E" x="120.326" y="168.171"/><use xlink:href="#F" x="136.709" y="168.171"/><use xlink:href="#G" x="153.092" y="168.171"/><use xlink:href="#H" x="169.474" y="168.171"/><use xlink:href="#I" x="185.857" y="168.171"/><use xlink:href="#J" x="202.24" y="168.171"/><use xlink:href="#K" x="218.623" y="168.171"/><use xlink:href="#H" x="235.005" y="168.171"/><use xlink:href="#D" x="251.388" y="168.171"/><use xlink:href="#L" x="255.622" y="168.171"/><use xlink:href="#M" x="272.005" y="168.171"/><use xlink:href="#D" x="288.387" y="168.171"/><use xlink:href="#N" x="292.621" y="168.171"/><use xlink:href="#O" x="309.004" y="168.171"/><use xlink:href="#P" x="325.387" y="168.171"/><use xlink:href="#Q" x="341.77" y="168.171"/><use xlink:href="#D" x="358.152" y="168.171"/><use xlink:href="#R" x="362.386" y="168.171"/><use xlink:href="#S" x="378.769" y="168.171"/></g><g fill="#33459a"><use xlink:href="#T" x="76.442" y="214.567"/><use xlink:href="#U" x="82.041" y="214.567"/></g><use xlink:href="#V" x="85.731" y="214.567" fill="#336387"/><g fill="#33459a"><use xlink:href="#W" x="89.421" y="214.567"/><use xlink:href="#X" x="100.746" y="214.567"/></g><use xlink:href="#V" x="112.071" y="214.567" fill="#336387"/><g fill="#33459a"><use xlink:href="#Y" x="115.761" y="214.567"/><use xlink:href="#Z" x="127.085" y="214.567"/></g><g fill="#231f20"><use xlink:href="#aa" x="76.442" y="237.142"/><use xlink:href="#ab" x="85.598" y="237.142"/></g><use xlink:href="#ab" x="88.955" y="237.142" fill="#231f20"/><use xlink:href="#ab" x="88.955" y="237.142" fill="#231f20"/><g fill="#231f20"><use xlink:href="#ac" x="88.955" y="237.142"/><use xlink:href="#ad" x="98.11" y="237.142"/><use xlink:href="#ae" x="107.265" y="237.142"/><use xlink:href="#ab" x="116.421" y="237.142"/></g><g fill="#231f20"><use xlink:href="#af" x="120.602" y="237.142"/><use xlink:href="#ag" x="129.757" y="237.142"/><use xlink:href="#ab" x="138.913" y="237.142"/></g><g fill="#231f20"><use xlink:href="#ah" x="143.093" y="237.142"/><use xlink:href="#ai" x="152.249" y="237.142"/><use xlink:href="#aj" x="161.404" y="237.142"/><use xlink:href="#ak" x="170.56" y="237.142"/><use xlink:href="#al" x="179.715" y="237.142"/><use xlink:href="#ai" x="188.87" y="237.142"/><use xlink:href="#am" x="198.026" y="237.142"/><use xlink:href="#ab" x="207.181" y="237.142"/></g><g fill="#231f20"><use xlink:href="#an" x="211.362" y="237.142"/><use xlink:href="#ao" x="220.517" y="237.142"/><use xlink:href="#ap" x="229.673" y="237.142"/><use xlink:href="#ab" x="238.828" y="237.142"/></g><g fill="#231f20"><use xlink:href="#aq" x="243.009" y="237.142"/><use xlink:href="#ar" x="252.164" y="237.142"/><use xlink:href="#ab" x="261.32" y="237.142"/></g><g fill="#231f20"><use xlink:href="#as" x="265.501" y="237.142"/><use xlink:href="#at" x="274.656" y="237.142"/><use xlink:href="#au" x="283.811" y="237.142"/><use xlink:href="#av" x="292.967" y="237.142"/><use xlink:href="#aw" x="302.122" y="237.142"/><use xlink:href="#ax" x="311.278" y="237.142"/><use xlink:href="#ab" x="320.433" y="237.142"/></g><g fill="#231f20"><use xlink:href="#ay" x="324.614" y="237.142"/><use xlink:href="#az" x="333.769" y="237.142"/><use xlink:href="#ab" x="342.925" y="237.142"/></g><g fill="#231f20"><use xlink:href="#aA" x="347.106" y="237.142"/><use xlink:href="#aB" x="356.261" y="237.142"/><use xlink:href="#am" x="365.416" y="237.142"/><use xlink:href="#ab" x="374.572" y="237.142"/></g><g fill="#231f20"><use xlink:href="#aC" x="378.753" y="237.142"/><use xlink:href="#aD" x="387.908" y="237.142"/><use xlink:href="#aE" x="397.063" y="237.142"/><use xlink:href="#aF" x="406.219" y="237.142"/><use xlink:href="#aG" x="415.374" y="237.142"/><use xlink:href="#ab" x="424.529" y="237.142"/></g><g fill="#231f20"><use xlink:href="#aH" x="428.71" y="237.142"/><use xlink:href="#aI" x="437.866" y="237.142"/><use xlink:href="#ab" x="447.021" y="237.142"/></g><g fill="#231f20"><use xlink:href="#aJ" x="451.202" y="237.142"/><use xlink:href="#aK" x="460.357" y="237.142"/><use xlink:href="#aL" x="469.513" y="237.142"/><use xlink:href="#aM" x="478.668" y="237.142"/><use xlink:href="#ab" x="487.823" y="237.142"/></g><use xlink:href="#aN" x="492.004" y="237.142" fill="#231f20"/><g fill="#231f20"><use xlink:href="#aO" x="89.158" y="256.618"/><use xlink:href="#ax" x="98.313" y="256.618"/><use xlink:href="#ab" x="107.469" y="256.618"/></g><g fill="#231f20"><use xlink:href="#aP" x="111.416" y="256.618"/><use xlink:href="#aQ" x="120.571" y="256.618"/><use xlink:href="#aR" x="129.727" y="256.618"/><use xlink:href="#al" x="138.882" y="256.618"/><use xlink:href="#ab" x="148.037" y="256.618"/></g><g fill="#231f20"><use xlink:href="#aR" x="151.984" y="256.618"/><use xlink:href="#aS" x="161.14" y="256.618"/><use xlink:href="#ab" x="170.295" y="256.618"/></g><g fill="#231f20"><use xlink:href="#ah" x="174.242" y="256.618"/><use xlink:href="#ai" x="183.397" y="256.618"/><use xlink:href="#aj" x="192.553" y="256.618"/><use xlink:href="#ak" x="201.708" y="256.618"/><use xlink:href="#al" x="210.863" y="256.618"/><use xlink:href="#ai" x="220.019" y="256.618"/><use xlink:href="#aT" x="229.174" y="256.618"/><use xlink:href="#aU" x="238.329" y="256.618"/><use xlink:href="#aV" x="247.485" y="256.618"/><use xlink:href="#ah" x="256.64" y="256.618"/><use xlink:href="#ab" x="265.796" y="256.618"/></g><g fill="#231f20"><use xlink:href="#ai" x="269.743" y="256.618"/><use xlink:href="#at" x="278.898" y="256.618"/><use xlink:href="#aW" x="288.053" y="256.618"/><use xlink:href="#aX" x="297.209" y="256.618"/><use xlink:href="#ab" x="306.364" y="256.618"/></g><g fill="#231f20"><use xlink:href="#aY" x="310.311" y="256.618"/><use xlink:href="#ab" x="319.466" y="256.618"/></g><g fill="#231f20"><use xlink:href="#aq" x="323.413" y="256.618"/><use xlink:href="#ar" x="332.569" y="256.618"/><use xlink:href="#ab" x="341.724" y="256.618"/></g><g fill="#231f20"><use xlink:href="#aZ" x="345.671" y="256.618"/><use xlink:href="#ba" x="354.826" y="256.618"/><use xlink:href="#bb" x="363.982" y="256.618"/><use xlink:href="#ah" x="373.137" y="256.618"/><use xlink:href="#ab" x="382.293" y="256.618"/></g><g fill="#231f20"><use xlink:href="#bc" x="386.239" y="256.618"/><use xlink:href="#bd" x="395.395" y="256.618"/><use xlink:href="#ab" x="404.55" y="256.618"/></g><g fill="#231f20"><use xlink:href="#be" x="408.497" y="256.618"/><use xlink:href="#bf" x="417.653" y="256.618"/><use xlink:href="#am" x="426.808" y="256.618"/><use xlink:href="#ab" x="435.963" y="256.618"/></g><g fill="#231f20"><use xlink:href="#bg" x="439.91" y="256.618"/><use xlink:href="#aE" x="449.066" y="256.618"/><use xlink:href="#aF" x="458.221" y="256.618"/><use xlink:href="#aG" x="467.376" y="256.618"/><use xlink:href="#ab" x="476.532" y="256.618"/></g><g fill="#231f20"><use xlink:href="#az" x="480.479" y="256.618"/><use xlink:href="#bh" x="489.634" y="256.618"/><use xlink:href="#bi" x="498.789" y="256.618"/><use xlink:href="#ab" x="501.18" y="256.618"/></g><g fill="#231f20"><use xlink:href="#bj" x="89.158" y="276.094"/><use xlink:href="#bk" x="98.313" y="276.094"/><use xlink:href="#ab" x="107.469" y="276.094"/><use xlink:href="#bl" x="110.826" y="276.094"/><use xlink:href="#bm" x="119.981" y="276.094"/><use xlink:href="#ab" x="129.136" y="276.094"/><use xlink:href="#af" x="132.493" y="276.094"/><use xlink:href="#ag" x="141.649" y="276.094"/><use xlink:href="#ab" x="150.804" y="276.094"/><use xlink:href="#ah" x="154.161" y="276.094"/><use xlink:href="#ai" x="163.317" y="276.094"/><use xlink:href="#aj" x="172.472" y="276.094"/><use xlink:href="#ak" x="181.627" y="276.094"/><use xlink:href="#al" x="190.783" y="276.094"/><use xlink:href="#ai" x="199.938" y="276.094"/><use xlink:href="#aZ" x="209.093" y="276.094"/><use xlink:href="#ba" x="218.249" y="276.094"/><use xlink:href="#ah" x="227.404" y="276.094"/><use xlink:href="#ab" x="236.559" y="276.094"/><use xlink:href="#bn" x="239.916" y="276.094"/><use xlink:href="#bo" x="242.165" y="276.094"/><use xlink:href="#bp" x="247.424" y="276.094"/><use xlink:href="#bq" x="252.124" y="276.094"/><use xlink:href="#ab" x="254.372" y="276.094"/><use xlink:href="#bn" x="257.729" y="276.094"/><use xlink:href="#br" x="259.977" y="276.094"/><use xlink:href="#bs" x="265.338" y="276.094"/><use xlink:href="#bs" x="267.087" y="276.094"/><use xlink:href="#br" x="268.837" y="276.094"/><use xlink:href="#bt" x="274.198" y="276.094"/><use xlink:href="#bu" x="281.35" y="276.094"/><use xlink:href="#bv" x="286.71" y="276.094"/><use xlink:href="#bw" x="289.864" y="276.094"/><use xlink:href="#ab" x="299.019" y="276.094"/><use xlink:href="#bx" x="302.376" y="276.094"/><use xlink:href="#by" x="311.532" y="276.094"/><use xlink:href="#ab" x="320.687" y="276.094"/><use xlink:href="#bn" x="324.044" y="276.094"/><use xlink:href="#bz" x="326.292" y="276.094"/><use xlink:href="#bv" x="328.042" y="276.094"/><use xlink:href="#bp" x="331.195" y="276.094"/><use xlink:href="#bq" x="335.895" y="276.094"/><use xlink:href="#ab" x="338.143" y="276.094"/><use xlink:href="#bA" x="341.5" y="276.094"/><use xlink:href="#br" x="349.282" y="276.094"/><use xlink:href="#bB" x="354.643" y="276.094"/><use xlink:href="#bu" x="359.689" y="276.094"/><use xlink:href="#bv" x="365.05" y="276.094"/><use xlink:href="#bk" x="368.203" y="276.094"/><use xlink:href="#ab" x="377.359" y="276.094"/><use xlink:href="#bC" x="380.716" y="276.094"/><use xlink:href="#bD" x="389.871" y="276.094"/><use xlink:href="#aL" x="399.026" y="276.094"/><use xlink:href="#bE" x="408.182" y="276.094"/><use xlink:href="#bF" x="417.337" y="276.094"/><use xlink:href="#ab" x="426.493" y="276.094"/><use xlink:href="#as" x="429.85" y="276.094"/><use xlink:href="#aM" x="439.005" y="276.094"/><use xlink:href="#az" x="448.16" y="276.094"/><use xlink:href="#bh" x="457.316" y="276.094"/></g><g fill="#33459a"><use xlink:href="#bG" x="76.442" y="317.045"/><use xlink:href="#U" x="82.041" y="317.045"/><use xlink:href="#V" x="85.731" y="317.045"/><use xlink:href="#W" x="89.421" y="317.045"/><use xlink:href="#X" x="100.746" y="317.045"/><use xlink:href="#V" x="112.071" y="317.045"/><use xlink:href="#bH" x="115.761" y="317.045"/><use xlink:href="#bI" x="127.086" y="317.045"/></g><g fill="#231f20"><use xlink:href="#aa" x="76.442" y="339.62"/><use xlink:href="#ab" x="85.598" y="339.62"/></g><use xlink:href="#ab" x="88.955" y="339.62" fill="#231f20"/><use xlink:href="#ab" x="88.955" y="339.62" fill="#231f20"/><g fill="#231f20"><use xlink:href="#bJ" x="88.955" y="339.62"/><use xlink:href="#bK" x="98.11" y="339.62"/><use xlink:href="#ab" x="107.265" y="339.62"/><use xlink:href="#av" x="110.622" y="339.62"/><use xlink:href="#aw" x="119.778" y="339.62"/><use xlink:href="#aA" x="128.933" y="339.62"/><use xlink:href="#aB" x="138.089" y="339.62"/><use xlink:href="#ax" x="147.244" y="339.62"/><use xlink:href="#ab" x="156.399" y="339.62"/><use xlink:href="#bL" x="159.756" y="339.62"/><use xlink:href="#bM" x="168.912" y="339.62"/><use xlink:href="#ab" x="178.067" y="339.62"/><use xlink:href="#bN" x="181.424" y="339.62"/><use xlink:href="#ab" x="190.579" y="339.62"/><use xlink:href="#aZ" x="193.936" y="339.62"/><use xlink:href="#ba" x="203.092" y="339.62"/><use xlink:href="#bO" x="212.247" y="339.62"/><use xlink:href="#ab" x="221.402" y="339.62"/><use xlink:href="#aN" x="224.759" y="339.62"/><use xlink:href="#aO" x="233.915" y="339.62"/><use xlink:href="#ab" x="243.07" y="339.62"/><use xlink:href="#bP" x="246.427" y="339.62"/><use xlink:href="#bQ" x="255.582" y="339.62"/><use xlink:href="#bw" x="264.738" y="339.62"/><use xlink:href="#bk" x="273.893" y="339.62"/><use xlink:href="#ab" x="283.048" y="339.62"/><use xlink:href="#bR" x="286.405" y="339.62"/><use xlink:href="#bS" x="295.561" y="339.62"/><use xlink:href="#aL" x="304.716" y="339.62"/><use xlink:href="#aM" x="313.872" y="339.62"/><use xlink:href="#ab" x="323.027" y="339.62"/><use xlink:href="#bT" x="326.384" y="339.62"/><use xlink:href="#bU" x="335.539" y="339.62"/><use xlink:href="#bV" x="344.695" y="339.62"/><use xlink:href="#bW" x="353.85" y="339.62"/><use xlink:href="#am" x="363.005" y="339.62"/><use xlink:href="#ab" x="372.161" y="339.62"/><use xlink:href="#bX" x="375.518" y="339.62"/><use xlink:href="#as" x="384.673" y="339.62"/><use xlink:href="#aE" x="393.828" y="339.62"/><use xlink:href="#aF" x="402.984" y="339.62"/><use xlink:href="#aG" x="412.139" y="339.62"/><use xlink:href="#ab" x="421.295" y="339.62"/><use xlink:href="#aQ" x="424.651" y="339.62"/><use xlink:href="#bJ" x="433.807" y="339.62"/><use xlink:href="#az" x="442.962" y="339.62"/><use xlink:href="#bh" x="452.118" y="339.62"/><use xlink:href="#bi" x="461.273" y="339.62"/></g><g fill="#33459a"><use xlink:href="#bY" x="76.442" y="380.57"/><use xlink:href="#U" x="82.041" y="380.57"/><use xlink:href="#V" x="85.731" y="380.57"/><use xlink:href="#bZ" x="89.421" y="380.57"/><use xlink:href="#ca" x="100.746" y="380.57"/><use xlink:href="#V" x="112.071" y="380.57"/><use xlink:href="#cb" x="115.761" y="380.57"/><use xlink:href="#cc" x="127.086" y="380.57"/></g><g fill="#231f20"><use xlink:href="#aa" x="76.442" y="403.145"/><use xlink:href="#ab" x="85.598" y="403.145"/><use xlink:href="#aN" x="88.955" y="403.145"/><use xlink:href="#aO" x="98.11" y="403.145"/><use xlink:href="#ab" x="107.265" y="403.145"/><use xlink:href="#aP" x="110.622" y="403.145"/><use xlink:href="#ac" x="119.778" y="403.145"/><use xlink:href="#ab" x="128.933" y="403.145"/><use xlink:href="#av" x="132.29" y="403.145"/><use xlink:href="#aw" x="141.446" y="403.145"/><use xlink:href="#as" x="150.601" y="403.145"/><use xlink:href="#ay" x="159.756" y="403.145"/><use xlink:href="#ab" x="168.912" y="403.145"/><use xlink:href="#aP" x="172.269" y="403.145"/><use xlink:href="#cd" x="181.424" y="403.145"/><use xlink:href="#ah" x="190.579" y="403.145"/><use xlink:href="#ab" x="199.735" y="403.145"/><use xlink:href="#aO" x="203.092" y="403.145"/><use xlink:href="#aN" x="212.247" y="403.145"/><use xlink:href="#ce" x="221.402" y="403.145"/><use xlink:href="#ab" x="230.558" y="403.145"/><use xlink:href="#bP" x="233.915" y="403.145"/><use xlink:href="#bQ" x="243.07" y="403.145"/><use xlink:href="#bw" x="252.225" y="403.145"/></g><g fill="#231f20"><use xlink:href="#aa" x="76.442" y="422.621"/><use xlink:href="#ab" x="85.598" y="422.621"/><use xlink:href="#aN" x="88.955" y="422.621"/><use xlink:href="#aO" x="98.11" y="422.621"/><use xlink:href="#ab" x="107.265" y="422.621"/><use xlink:href="#cf" x="110.622" y="422.621"/><use xlink:href="#ai" x="119.778" y="422.621"/><use xlink:href="#ab" x="128.933" y="422.621"/><use xlink:href="#aW" x="132.29" y="422.621"/><use xlink:href="#cg" x="141.446" y="422.621"/><use xlink:href="#ch" x="150.601" y="422.621"/><use xlink:href="#bP" x="153.378" y="422.621"/><use xlink:href="#ci" x="162.533" y="422.621"/><use xlink:href="#cj" x="171.689" y="422.621"/><use xlink:href="#ab" x="174.079" y="422.621"/><use xlink:href="#ck" x="177.436" y="422.621"/><use xlink:href="#bP" x="186.592" y="422.621"/><use xlink:href="#ci" x="195.747" y="422.621"/><use xlink:href="#cl" x="204.902" y="422.621"/><use xlink:href="#ab" x="207.629" y="422.621"/><use xlink:href="#aY" x="210.986" y="422.621"/><use xlink:href="#ab" x="220.141" y="422.621"/><use xlink:href="#cm" x="223.498" y="422.621"/><use xlink:href="#cn" x="232.653" y="422.621"/><use xlink:href="#ab" x="241.809" y="422.621"/><use xlink:href="#av" x="245.166" y="422.621"/><use xlink:href="#aw" x="254.321" y="422.621"/><use xlink:href="#aP" x="263.476" y="422.621"/><use xlink:href="#ab" x="272.632" y="422.621"/><use xlink:href="#av" x="275.989" y="422.621"/><use xlink:href="#aw" x="285.144" y="422.621"/><use xlink:href="#cg" x="294.299" y="422.621"/></g><g fill="#231f20"><use xlink:href="#aa" x="76.442" y="442.097"/><use xlink:href="#ab" x="85.598" y="442.097"/><use xlink:href="#as" x="88.955" y="442.097"/><use xlink:href="#co" x="98.11" y="442.097"/><use xlink:href="#ab" x="107.265" y="442.097"/><use xlink:href="#cm" x="110.622" y="442.097"/><use xlink:href="#cn" x="119.778" y="442.097"/><use xlink:href="#av" x="128.933" y="442.097"/><use xlink:href="#aw" x="138.089" y="442.097"/><use xlink:href="#aP" x="147.244" y="442.097"/><use xlink:href="#ch" x="156.399" y="442.097"/><use xlink:href="#av" x="159.176" y="442.097"/><use xlink:href="#aw" x="168.332" y="442.097"/><use xlink:href="#aQ" x="177.487" y="442.097"/><use xlink:href="#cp" x="186.643" y="442.097"/><use xlink:href="#ab" x="195.798" y="442.097"/><use xlink:href="#bP" x="199.155" y="442.097"/><use xlink:href="#cq" x="208.31" y="442.097"/><use xlink:href="#cm" x="217.466" y="442.097"/><use xlink:href="#cr" x="226.621" y="442.097"/><use xlink:href="#ab" x="235.776" y="442.097"/><use xlink:href="#bU" x="239.133" y="442.097"/><use xlink:href="#aR" x="248.289" y="442.097"/><use xlink:href="#cl" x="257.444" y="442.097"/><use xlink:href="#ab" x="260.17" y="442.097"/><use xlink:href="#av" x="263.527" y="442.097"/><use xlink:href="#aw" x="272.683" y="442.097"/><use xlink:href="#cg" x="281.838" y="442.097"/></g></svg>