<svg xmlns="http://www.w3.org/2000/svg" xmlns:xlink="http://www.w3.org/1999/xlink" width="793.701" height="1058.268" viewBox="0 0 595.276 793.701" version="1.2"><defs><symbol overflow="visible" id="a"><path d="M2.875.031c.434 0 .82-.144 1.156-.437.332-.301.594-.64.782-1.016.183-.34.316-.71.39-1.11.082-.402.125-.804.125-1.202 0-.403-.05-.813-.14-1.22a4.843 4.843 0 0 0-.407-1.155A3.031 3.031 0 0 0 4-7.063a1.747 1.747 0 0 0-1.14-.421c-.844 0-1.473.457-1.876 1.359-.406.906-.609 1.707-.609 2.39 0 .712.203 1.52.61 2.422C1.386-.413 2.02.032 2.874.032zm0-.281c-.75 0-1.227-.441-1.422-1.328-.2-.895-.297-1.613-.297-2.156 0-.54.098-1.254.297-2.141.195-.895.672-1.344 1.422-1.344.363 0 .648.137.86.407.206.273.363.566.468.875.113.343.195.71.25 1.093.059.387.094.758.094 1.11 0 .324-.035.675-.094 1.046a9.33 9.33 0 0 1-.203 1.016c-.094.336-.254.66-.469.969-.21.305-.511.453-.906.453zm0 0"/></symbol><symbol overflow="visible" id="b"><path d="M3.422-7.313a.124.124 0 0 0-.031-.078.119.119 0 0 0-.079-.062.133.133 0 0 0-.078 0 .589.589 0 0 0-.078.047l-1.844.828a.934.934 0 0 0-.218.078c-.086.043-.125.102-.125.172 0 .043.008.082.031.11a.143.143 0 0 0 .094.03c.05 0 .113-.015.187-.046.07-.028.133-.051.188-.063l.687-.312c.051-.02.102-.04.156-.063a.364.364 0 0 1 .172-.047c.07 0 .118.024.141.063.02.043.031.097.031.156v5.078c0 .367-.043.617-.125.75-.074.125-.316.188-.719.188-.25 0-.414.011-.484.03-.074.013-.11.052-.11.11 0 .063.016.106.048.125.027.024.082.032.156.032h3.094c.058 0 .109-.008.14-.032.028-.02.047-.054.047-.11 0-.058-.02-.1-.047-.124a.278.278 0 0 0-.14-.031h-.329c-.375 0-.601-.079-.671-.235-.063-.164-.094-.41-.094-.734zm0 0"/></symbol><symbol overflow="visible" id="c"><path d="M4.297-2.078c0-.227.016-.348.047-.36.027-.007.203-.015.515-.015h.407c.039 0 .066-.008.078-.031.02-.02.031-.051.031-.094 0-.04-.008-.086-.016-.14 0-.06-.023-.095-.062-.095h-.875c-.074-.007-.117-.046-.125-.109V-5.266v-.25c0-.132-.04-.191-.11-.171l-.609.265c-.043 0-.062.024-.062.063a.427.427 0 0 1 .015.093v2.063c0 .219-.011.348-.031.375-.023.023-.137.031-.344.031h-2.11c-.023 0-.081.008-.171.016-.094.011-.14-.016-.14-.078 0-.028.03-.082.093-.157.059-.082.098-.129.11-.14l3.75-4.922c.007-.02.019-.04.03-.063.02-.02.032-.039.032-.062 0-.04-.02-.067-.047-.078a.427.427 0 0 0-.094-.016c-.074 0-.129.012-.156.031a.572.572 0 0 0-.11.11L.5-3.046c-.043.062-.09.12-.14.171a.378.378 0 0 0-.079.203c0 .149.02.219.063.219H3.14c.207 0 .32.012.343.031.028.024.047.137.047.344v.969c0 .136-.008.273-.015.406 0 .125-.086.21-.25.25a.566.566 0 0 1-.22.047h-.218a.429.429 0 0 0-.156.031c-.055.023-.078.066-.078.125 0 .055.008.09.031.11.027.011.07.015.125.015.207 0 .406-.008.594-.031a5.075 5.075 0 0 1 1.14 0 4 4 0 0 0 .532.031.235.235 0 0 0 .109-.031c.04-.02.063-.055.063-.11 0-.07-.036-.113-.094-.125a1.222 1.222 0 0 0-.172-.015c-.293 0-.473-.047-.531-.14-.063-.09-.094-.282-.094-.563zm0 0"/></symbol><symbol overflow="visible" id="d"><path d="M5.063-5.844V.453h.796v-6.297zm-2.829 0V.453h.797v-6.297zm0 0"/></symbol><symbol overflow="visible" id="e"><path d="M.75.047v1.016h1.031V.046zm0 0"/></symbol><symbol overflow="visible" id="g"><path d="M7.11-.75v-5.875h-.75v.922H4.421c-.36-.5-.969-.844-1.703-.844-1.235 0-2.11.969-2.11 2.125 0 1.156.875 2.11 2.11 2.11.765 0 1.39-.36 1.75-.891h1.89V-.75zm-.75-3.11H4.75a1.7 1.7 0 0 0 .094-.562c0-.219-.032-.437-.094-.625h1.61zm-4.985-.562c0-.812.5-1.469 1.344-1.469.875 0 1.36.657 1.36 1.47 0 .796-.485 1.452-1.36 1.452-.844 0-1.344-.656-1.344-1.453zm5.953 5.625v-.64H2.562v-1.985h-.75v2.625zm0 0"/></symbol><symbol overflow="visible" id="h"><path d="M7.266-1.406v-5.219H6.5v2.031H5.156v.61H6.5v.953H5.156v.625H6.5v1zm-3.141-4.64v-.595H1.687v.594zm1.031 1.218v-.61H.594v.61zM.922-3.078c0 .719.734 1.312 1.906 1.312 1.25 0 2.063-.593 2.063-1.312 0-.75-.75-1.313-1.985-1.313-1.187 0-1.984.579-1.984 1.313zm.781-.016c0-.453.438-.719 1.203-.719.766 0 1.188.266 1.188.72 0 .452-.422.75-1.188.75-.765 0-1.203-.282-1.203-.75zM7.25 1.422V-1.11H1.797v.625h4.687v1.906zm0 0"/></symbol><symbol overflow="visible" id="i"><path d="M7.516-.984v-6.032h-.922v.891H4.266v.766h2.328v.75H4.266v.765h2.328v2.86zm.171 2.125V.344H2.625v-1.735h-.906v2.532zM5.734-2.5v-.781a17.77 17.77 0 0 1-2.906.297l-1.094.015v-3.703H.813v4.5l2.015-.015c1.219-.016 2.375-.188 2.906-.313zm0 0"/></symbol><symbol overflow="visible" id="j"><path d="M8.281.266v-.797H4.72v-1.813h2.61v-.797H2.187v-2.312H7.25v-.813H1.281v3.922h2.485V-.53H.187v.797zm0 0"/></symbol><symbol overflow="visible" id="k"><path d="M4.344-.828v-.86c-.328.063-1.172.172-1.61.188l-.89.016v-4.72H.937v5.595l1.454-.032c.703-.015 1.656-.14 1.953-.187zm3.328 2.156v-8.344h-.89v3.188H5.75v-3h-.906V.953h.906v-3.937h1.031v4.312zm0 0"/></symbol><symbol overflow="visible" id="m"><path d="M8.281-2.25v-.797h-2.14v-1.078c.812-.281 1.234-.766 1.234-1.328 0-.922-1.078-1.61-3.14-1.61-2.048 0-3.141.672-3.141 1.594 0 .578.422 1.063 1.25 1.344v1.078H.188v.797zM6.406-5.453c0 .5-.89.875-2.172.875-1.312 0-2.156-.406-2.156-.906s.828-.907 2.156-.907c1.313 0 2.172.438 2.172.938zM5.203-3.047H3.281v-.89c.281.046.61.062.953.062.36 0 .688-.016.97-.063zm2.25 2.938c0-.922-1.156-1.563-3.219-1.563C2.172-1.672 1-1.032 1-.109c0 .921 1.172 1.593 3.234 1.593 2.063 0 3.22-.671 3.22-1.593zM4.234-.953c1.282 0 2.172.328 2.172.844 0 .515-.89.843-2.172.843-1.312 0-2.187-.343-2.187-.843 0-.532.875-.844 2.187-.844zm0 0"/></symbol><symbol overflow="visible" id="n"><path d="M4.484.375v-.5H1.141c.109-.547.421-1.11.937-1.453l1.031-.719c.61-.437 1.235-.922 1.282-1.937.046-1.016-.688-1.891-1.954-1.891-1.296 0-1.953 1-1.937 1.953h.547c.016-.734.453-1.39 1.36-1.39.874 0 1.39.562 1.374 1.328-.031.625-.437 1.03-.937 1.39l-1.031.735C.593-1.234.484-.422.468.375zm0 0"/></symbol><symbol overflow="visible" id="o"><path d="M2.438-6.078C1-6.078.233-4.703.233-2.766.234-.812 1 .563 2.438.563c1.437 0 2.234-1.375 2.234-3.329 0-1.937-.797-3.312-2.234-3.312zm0 6.094C1.438.016.89-1.172.89-2.766c0-1.578.546-2.765 1.546-2.765C3.47-5.531 4-4.344 4-2.766 4-1.172 3.469.016 2.437.016zm0 0"/></symbol><symbol overflow="visible" id="p"><path d="M2.969.438v-6.391h-.453c-.016.328-.204.64-.438.828a1.58 1.58 0 0 1-.953.313v.484h1.25V.438zm0 0"/></symbol><symbol overflow="visible" id="q"><path d="M5.484-2.422v-.547c-.5.11-1.625.235-2.453.266-.594.031-1.5.031-1.547.031v-3.625H.828v4.188c.063 0 1.266 0 2.172-.032 1.047-.046 2.031-.171 2.484-.28zm1.563 1.5V-6.64h-.64v.922h-2.36v.547h2.36v.875h-2.36v.547h2.36v2.828zm.203 2V.531H2.36v-1.875h-.657v2.422zm0 0"/></symbol><symbol overflow="visible" id="L"><path d="M2.438-6.125C1.28-6.125.421-5.235.39-4c-.047 1.172.718 2.156 1.843 2.234.797.063 1.407-.343 1.75-.875.047.344.016 1-.218 1.579C3.5-.406 3.172.063 2.406.063 1.594.063 1.094-.531 1-1.157H.422C.516-.296 1.266.642 2.375.61c.984-.03 1.64-.593 2-1.593.375-1 .36-2.704.094-3.532-.313-.937-1.016-1.609-2.032-1.609zm.015 3.813c-.86 0-1.437-.688-1.437-1.657 0-.953.578-1.61 1.437-1.61.86 0 1.438.673 1.438 1.61 0 .953-.579 1.656-1.438 1.656zm0 0"/></symbol><symbol overflow="visible" id="an"><path d="M3.563-2.969c.5-.297.906-.828.906-1.437 0-.938-.844-1.735-2.016-1.735-1.203 0-2.031.797-2.031 1.735 0 .61.39 1.14.89 1.437C.704-2.625.204-2 .204-1.297c0 1.047.953 1.922 2.25 1.922 1.281 0 2.25-.875 2.25-1.922 0-.703-.516-1.328-1.14-1.672zm-1.11-.297c-.984 0-1.406-.53-1.406-1.14 0-.64.422-1.172 1.406-1.172.906 0 1.406.531 1.406 1.172 0 .61-.5 1.14-1.406 1.14zm0 3.329c-1.031 0-1.64-.61-1.64-1.36 0-.766.609-1.36 1.64-1.36 1 0 1.61.595 1.61 1.36 0 .75-.61 1.36-1.61 1.36zm0 0"/></symbol><symbol overflow="visible" id="aT"><path d="M4.422-5.875H.359v.531h3.422c-.281.438-1.11 1.75-1.594 2.797-.578 1.25-.796 2.438-.843 3h.734c0-.703.313-1.937.813-3.078.468-1.063 1.234-2.328 1.53-2.703zm0 0"/></symbol><symbol overflow="visible" id="bv"><path d="M2.734-3.75c-.796-.063-1.421.328-1.734.89a3.488 3.488 0 0 1 .219-1.593c.25-.625.593-1.125 1.375-1.125.812 0 1.281.625 1.375 1.219h.578c-.094-.86-.828-1.782-1.953-1.766-.969.016-1.625.594-1.985 1.594C.25-3.547.25-1.86.5-1.047.797-.094 1.484.61 2.531.61c1.14 0 2.016-.906 2.047-2.14.047-1.157-.719-2.14-1.844-2.219zM2.516.078c-.875 0-1.438-.703-1.438-1.64 0-.954.563-1.641 1.438-1.641.859 0 1.453.687 1.453 1.64 0 .938-.594 1.641-1.453 1.641zm0 0"/></symbol><symbol overflow="visible" id="bH"><path d="M4.844-.797v-.5h-.938v-4.672h-.578l-2.984 4.5v.672h2.984V.438h.578V-.798zm-1.516-.5H.906L3.328-5zm0 0"/></symbol><symbol overflow="visible" id="bO"><path d="M3.422-2.953c.422-.188.89-.64.89-1.453.016-.922-.843-1.719-1.89-1.719-1.156 0-1.938.813-1.906 1.797h.562c0-.625.406-1.25 1.313-1.25.796 0 1.328.516 1.312 1.187-.015.579-.344.97-.828 1.141-.281.094-.61.094-.875.094v.531c.266 0 .547 0 .875.063.453.093 1.016.546 1.016 1.234 0 .781-.61 1.375-1.454 1.375C1.391.047.875-.703.875-1.406H.312C.282-.313 1.172.609 2.422.609s2.11-.828 2.125-1.937c0-.719-.484-1.281-1.125-1.625zm0 0"/></symbol><symbol overflow="visible" id="r"><path d="M4.016-3.672a.977.977 0 0 0-.97.985c0 .546.438.984.97.984.53 0 .953-.438.953-.984 0-.547-.422-.985-.953-.985zm0 0"/></symbol><symbol overflow="visible" id="s"><path d="M5.047-5.594H.828v.36h3.735c-.032.937-.25 2.515-.391 3.296h.437c.172-1.015.313-2.109.438-3.656zM6.359-6.64V1.25h.438v-4.016h1.266v-.375H6.796v-3.5zM5.97-.562v-.36c-.907.156-2.453.235-3.313.235v-2.657H2.22v2.656H.344v.36h.86c2.562 0 3.64-.078 4.765-.234zm0 0"/></symbol><symbol overflow="visible" id="t"><path d="M2.984-4.125c.985 0 1.516.422 1.516.938 0 .515-.531.906-1.516.906-.968 0-1.515-.39-1.515-.906s.547-.938 1.515-.938zm0-.344c-1.234 0-1.968.563-1.968 1.282 0 .718.734 1.28 1.968 1.28 1.235 0 1.985-.562 1.985-1.28 0-.72-.735-1.282-1.985-1.282zM.61-5.359V-5h4.766v-.36zm.938 4.296v.36h4.875V1.25h.437v-2.313zm5.297-2.875h1.218v-.359H6.845V-6.64h-.438v5.047h.438zM1.687-6.515v.36h2.516v-.36zm0 0"/></symbol><symbol overflow="visible" id="u"><path d="M6.719-6.64v7.89h.437v-7.89zM.656-.47l.36.281c1.953-1 3.39-2.89 3.609-5.468H1.141v.36h3C3.969-3.423 2.734-1.423.656-.47zm0 0"/></symbol><symbol overflow="visible" id="v"><path d="M4.234-1.797v-1.047h3.61v-.36H.172v.36h3.625v1.047H1.266v.36h5.062v.906H1.266v1.703h5.703v-.36H1.703v-.984H6.75v-1.625zM4-5.719c.453.969 2 1.813 3.031 1.985l.282-.313C6.171-4.266 4.25-5.172 4.25-6.359v-.204h-.5v.204c0 1.156-1.656 1.968-3.063 2.328l.282.297C1.922-3.954 3.672-4.75 4-5.72zm0 0"/></symbol><symbol overflow="visible" id="w"><path d="M6.797-4.656H4.969v.36h1.828v2.515h.437v-4.86h-.437zM4.609-1.234c1.313 0 2.297.421 2.297 1.156 0 .719-.984 1.14-2.297 1.14-1.343 0-2.328-.421-2.328-1.14 0-.735.985-1.156 2.328-1.156zm-.015-.391c-1.782 0-2.782.64-2.782 1.531 0 .89 1 1.532 2.782 1.532 1.797 0 2.781-.641 2.781-1.532 0-.89-.984-1.531-2.781-1.531zM3.172-5.719h1.844v-.36H.89v.36h1.843v.313c0 2-1.921 2.812-2.312 3l.297.297c.234-.094 1.812-.875 2.234-2.22.453 1.376 1.969 1.938 2.172 2.016l.266-.343c-.25-.063-2.22-.688-2.22-2.75zm0 0"/></symbol><symbol overflow="visible" id="x"><path d="M1.719-2.438v-1.796h4.578v1.796zm2.484.36h2.531V-6.11h-.437v1.515H1.719v-1.515H1.28v4.03h2.485V-.25H.172v.36h7.672v-.36h-3.64zm0 0"/></symbol><symbol overflow="visible" id="y"><path d="M4.016-1.031c1.406 0 2.421.406 2.421 1.062 0 .625-1.015 1.063-2.421 1.063-1.438 0-2.438-.438-2.438-1.063 0-.656 1-1.062 2.438-1.062zm0-.36c-1.86 0-2.875.61-2.875 1.422 0 .797 1.015 1.407 2.875 1.407C5.875 1.438 6.89.828 6.89.03c0-.812-1.016-1.422-2.875-1.422zm.203-.953v-.984h2.625v-.36H1.687v-1H6.75v-.359H1.687v-.969H6.75v-.359h-5.5v3.047h2.531v.984H.171v.36h7.673v-.36zm0 0"/></symbol><symbol overflow="visible" id="z"><path d="M6.797-6.64v5.75h.437v-5.75zM2.094-1.345v2.422h5.312v-.36H2.531v-2.062zm1.094-4.125v-.906H2.75v.906C2.75-3.75 1.047-2.39.375-2.14l.344.297c.25-.14 1.703-1.015 2.25-2.625.515 1.313 2.015 2.39 2.281 2.5l.281-.343c-.61-.297-2.343-1.454-2.343-3.157zm0 0"/></symbol><symbol overflow="visible" id="A"><path d="M1.266-2.922H6.75v-3.406h-.422v1.14H1.703v-1.14h-.437zm.437-.36v-1.546h4.625v1.547zm6.14 1.548H.173v.359h3.625V1.25h.437v-2.625h3.61zm0 0"/></symbol><symbol overflow="visible" id="C"><path d="M4.234-1.813v-1.046h3.61v-.36H.172v.36h3.625v1.046H1.266v.36h5.062v.906H1.266v1.719h5.703v-.36H1.703v-1H6.75v-1.625zM3.781-6c.016.922-2.062 1.89-3.015 2.047l.265.328c.438-.063 2.297-.64 2.969-1.75.39.75 1.594 1.438 2.969 1.75l.281-.313C6.344-4.109 4.234-4.984 4.203-6h2.578v-.344H1.188V-6zm0 0"/></symbol><symbol overflow="visible" id="D"><path d="M4.516-.688c-.72-.53-1.891-1.78-1.891-3.687v-1.64h-.438v1.64C2.188-2.422.938-1 .158-.453l.359.234c.859-.672 1.718-1.875 1.89-2.922C2.625-2.03 3.5-.937 4.203-.437zM6.844-6.64V1.25h.437v-7.89zm-1.578.172v2.719H3.703v.36h1.563V.89h.437v-7.359zm0 0"/></symbol><symbol overflow="visible" id="E"><path d="M5.938-5.172H5.5l-.172 2.563H2.672L2.5-5.172h-.438l.172 2.563H.938v.359H3.78v1.984H.171v.36h7.673v-.36H4.219V-2.25h2.843v-.36H5.766zM1.14-5.438h5.718v-.359H1.141zm0 0"/></symbol><symbol overflow="visible" id="F"><path d="M5.281-1.594V1.25h.422v-2.844h2.14v-.36H.173v.36h2.187v2.766h.438v-2.766zM6.906-4.78c0-.938-1.14-1.64-2.89-1.64-1.75 0-2.907.702-2.907 1.64 0 .922 1.157 1.625 2.907 1.625s2.89-.703 2.89-1.625zm-.453 0c0 .75-1.125 1.234-2.437 1.234-1.344 0-2.454-.484-2.454-1.234 0-.782 1.11-1.25 2.454-1.25 1.312 0 2.437.468 2.437 1.25zm0 0"/></symbol><symbol overflow="visible" id="G"><path d="M4.11-1.266c1.327 0 2.265.454 2.265 1.188 0 .719-.938 1.156-2.266 1.156-1.343 0-2.28-.437-2.28-1.156 0-.735.937-1.188 2.28-1.188zm-.016-.359c-1.782 0-2.735.64-2.735 1.531 0 .89.954 1.532 2.735 1.532 1.797 0 2.734-.641 2.734-1.532 0-.89-.937-1.531-2.734-1.531zm2.578-2.578H7.89v-.375H6.67v-2.063h-.437v4.86h.438zm-5.453-1.5h2.703v2.656H1.219zm-.438-.36v3.375h3.563v-3.374zm0 0"/></symbol><symbol overflow="visible" id="H"><path d="M4.25-4.36c0 .876-.578 1.563-1.594 1.563-1.031 0-1.594-.687-1.594-1.562 0-.891.563-1.579 1.594-1.579 1.016 0 1.594.688 1.594 1.579zm.219-1c-.344-.593-1-1-1.813-1-1.219 0-2.078.891-2.078 2 0 1.094.86 1.985 2.078 1.985.781 0 1.422-.375 1.766-.938h2.25V-.89h.437v-5.75h-.437v1.282zm.14 1.688c.079-.219.11-.453.11-.687 0-.22-.032-.438-.094-.641h2.047v1.328zm2.72 4.75v-.36H2.312v-2.062h-.438v2.422zm0 0"/></symbol><symbol overflow="visible" id="I"><path d="M7.844-2.297v-.36H6.359c.204-1.14.344-1.984.5-3.452H1.141v.359h5.218c-.093.984-.25 2.063-.437 3.094H.172v.36h3.453V1.25h.422v-3.547zm0 0"/></symbol><symbol overflow="visible" id="J"><path d="M2.266-1.14H6.64V.811H2.266zm4.812 2.312V-1.5h-5.25v2.672zm-.453-7.813v4.672h.438V-6.64zM6-2.828v-.36c-.438.094-1.016.157-1.906.204-.828.03-2.016.03-2.75.03v-1.265H4.78v-.36H1.344V-5.75h3.531v-.36H.922v3.516c.828 0 2.187 0 3.156-.031.906-.047 1.469-.11 1.922-.203zm0 0"/></symbol><symbol overflow="visible" id="K"><path d="M2.078-1.344v2.422h5.328v-.36h-4.89v-2.062zM6.75-4.64H4.875v.36H6.75v3.39h.438v-5.75H6.75zM3.156-5.5v-.906H2.72v.906c0 1.719-1.703 3.078-2.375 3.328l.344.297c.265-.14 1.703-1.016 2.25-2.625.53 1.313 2.03 2.39 2.28 2.5l.282-.328C4.906-2.641 3.156-3.797 3.156-5.5zm0 0"/></symbol><symbol overflow="visible" id="M"><path d="M6.797-6.64v7.89h.437v-7.89zM2.813-5.345v.875c0 2.047-1.485 3.578-2.376 4l.329.313c.39-.25 1.968-1.453 2.265-3.11C3.36-1.594 4.86-.53 5.125-.375l.266-.36C5-.937 3.25-2.124 3.25-4.468v-.875h2.031v-.36H.86v.36zm0 0"/></symbol><symbol overflow="visible" id="N"><path d="M7.39-5.906h-.374L5.453-.172 3.891-5.906h-.438L1.906-.172.344-5.906h-.375L1.703.406h.39l1.579-5.703L5.25.406h.406zm0 0"/></symbol><symbol overflow="visible" id="O"><path d="M2.313-4.36C1.016-4.36.233-3.28.233-1.936c0 1.359.782 2.453 2.079 2.453 1.28 0 2.093-1.094 2.093-2.454 0-1.343-.812-2.421-2.093-2.421zm0 4.516c-1 0-1.688-.922-1.688-2.094C.625-3.093 1.313-4 2.313-4 3.296-4 4-3.094 4-1.937 4-.766 3.297.155 2.312.155zm0 0"/></symbol><symbol overflow="visible" id="P"><path d="M2.64-4.36c-.203-.015-.64.032-.953.204-.296.156-.562.453-.765.687v-.734H.547V.328h.375v-2.703c0-.734.265-1.031.765-1.39.313-.22.735-.22.954-.22zm0 0"/></symbol><symbol overflow="visible" id="Q"><path d="M.938.344v-6.25H.546v6.25zm0 0"/></symbol><symbol overflow="visible" id="R"><path d="M4.281.36v-6.266h-.406v2.578c-.328-.625-.953-1.031-1.672-1.031C1-4.36.234-3.313.234-1.938.234-.577 1 .517 2.204.517c.718 0 1.39-.438 1.687-1.094v.937zM2.266.155C1.266.156.64-.78.64-1.938c0-1.156.625-2.078 1.625-2.078.984 0 1.625.922 1.625 2.079C3.89-.782 3.25.155 2.266.155zm0 0"/></symbol><symbol overflow="visible" id="S"><path d="M5.234-2.672H.094v.313h5.14zm0 0"/></symbol><symbol overflow="visible" id="T"><path d="M5.531-4.125c-.172-.688-.968-1.953-2.547-1.953-1.64 0-2.687 1.39-2.687 3.297C.297-.875 1.344.516 2.984.516 4.61.516 5.313-.766 5.47-1.422l-.375-.016C4.922-.813 4.266.141 2.984.141 1.625.14.72-1.11.72-2.781c0-1.656.906-2.922 2.265-2.922 1.25 0 1.938.922 2.141 1.578zm0 0"/></symbol><symbol overflow="visible" id="U"><path d="M4.313.36s-.094-.376-.094-.75v-2.47c0-.953-.828-1.5-1.875-1.5-1.063 0-1.922.657-1.875 1.485h.375C.828-3.563 1.516-4 2.344-4c.937 0 1.469.516 1.469 1.094 0 .39-.485.547-.766.61-.531.093-1.281.124-1.797.265C.64-1.844.172-1.36.203-.641.266.11 1 .563 1.922.5c.75-.047 1.5-.5 1.89-.938 0 .329.063.704.11.782zm-.5-1.516C3.813-.516 2.671.078 2 .14 1.187.203.61-.11.594-.72c-.016-.453.297-.906 1-1.062.25-.047 1.265-.157 1.625-.235.187-.03.406-.109.594-.265zm0 0"/></symbol><symbol overflow="visible" id="V"><path d="M3-1.938c-.39-.156-.922-.187-1.297-.328-.297-.093-1.031-.343-1-.875.047-.625.64-.906 1.344-.906.828 0 1.39.547 1.39 1.14h.376c.046-.593-.563-1.5-1.75-1.5-1.126 0-1.672.657-1.72 1.282-.046.594.548.938 1 1.094.376.156.954.187 1.376.328.422.172.937.453.86.969-.079.64-.845.906-1.47.906C1.344.172.5-.172.516-1H.14c-.047.656.5 1.547 2 1.531 1.109 0 1.718-.625 1.812-1.297.078-.687-.547-1-.953-1.171zm0 0"/></symbol><symbol overflow="visible" id="W"><path d="M5.078-5.906h-.406l.016 4.187C4.688-.562 3.953.11 2.78.11 1.625.11.891-.562.891-1.719v-4.187H.5v4.297C.5-.391 1.328.516 2.781.516c1.469 0 2.297-.907 2.297-2.125zm0 0"/></symbol><symbol overflow="visible" id="X"><path d="M4.25.328v-3.047c0-.953-.688-1.64-1.594-1.64-.828 0-1.406.359-1.719.875l-.015-.72H.547V.329h.375v-2.937C.922-3.203 1.609-4 2.547-4c.765 0 1.312.547 1.312 1.375V.328zm0 0"/></symbol><symbol overflow="visible" id="Y"><path d="M1.016-5.313v-.593H.453v.593zM.937.345v-4.688h-.39V.344zm0 0"/></symbol><symbol overflow="visible" id="Z"><path d="M4.297-4.219h-.39L2.171-.203.469-4.22H.063L2 .344h.39zm0 0"/></symbol><symbol overflow="visible" id="aa"><path d="M4.375-1.906c.031-1.532-.922-2.485-2.078-2.485C1.03-4.39.234-3.28.234-1.953.234-.61 1.031.5 2.297.516c1.11 0 1.687-.735 1.89-1.344l-.406-.016c-.172.547-.64 1-1.484 1C1.516.156.625-.672.625-1.906zM.641-2.234c0-1.016.765-1.813 1.656-1.813.844 0 1.672.734 1.672 1.813zm0 0"/></symbol><symbol overflow="visible" id="ab"><path d="M1.64-3.953v-.344l-.624.016v-1.375H.625v1.375l-.547-.016v.344h.547v3.422c0 .25 0 .437.11.578.078.156.25.297.453.297h.375V.016c-.141 0-.329.03-.454-.094-.125-.094-.093-.25-.093-.484v-3.391zm0 0"/></symbol><symbol overflow="visible" id="ac"><path d="M4.125-4.203h-.406L2.125-.406.547-4.203H.125L1.906.094l-.36.89c-.077.235-.187.438-.452.454h-.25v.328h.187c.266.015.39 0 .532-.125.187-.141.28-.36.39-.657zm0 0"/></symbol><symbol overflow="visible" id="ad"><path d="M7.844-.406H.172v.36h7.672zM5.875-5.031h-.438l-.156 2.703H2.734l-.156-2.703h-.437l.156 2.703H.953v.36h6.11v-.36h-1.36zm-4.734-.266h5.75v-.36H1.14zm0 0"/></symbol><symbol overflow="visible" id="ae"><path d="M3.734-1.828v1.625H.172v.36h7.672v-.36H4.172v-1.625h2.812v-.36H1.72v-1.5h4.875V-5.89H1.25v.36h4.922v1.484h-4.89v2.219zm0 0"/></symbol><symbol overflow="visible" id="af"><path d="M7.844-.156v-.36H6.016c.062-.343.546-2.89.625-4.875H1.17v.36h5c-.046 1.281-.468 3.86-.577 4.515H.172v.36zm0 0"/></symbol><symbol overflow="visible" id="ag"><path d="M2.266-1.031h4.421V.812H2.266zm4.859 2.203v-2.563H1.828v2.563zM4.969-6.516v4.5h.437v-2.14H6.72v2.14h.437V-6.64H6.72v2.125H5.406v-2zM4.53-2.5v-.344c-.453.078-1.234.219-2.781.219h-.578v-1.484h2.484v-2.094H.734v.36H3.22v1.374H.734v2.203h1c1.704 0 2.438-.171 2.797-.234zm0 0"/></symbol><symbol overflow="visible" id="ah"><path d="M1.14.14H.345v.704h.484c-.047.281-.219.375-.469.5l.188.203c.156-.078.375-.234.484-.438.11-.218.11-.203.11-.468zm0 0"/></symbol><symbol overflow="visible" id="ai"><path d="M6.11.36v-6.266h-.532L3.328-.094 1.063-5.906H.546V.359h.375v-5.593L3.094.344h.453L5.703-5.25 5.72.36zm0 0"/></symbol><symbol overflow="visible" id="aj"><path d="M4.016-2.953c.421-.172.89-.75.78-1.625-.093-.75-.687-1.328-1.75-1.328h-2.5v6.25H2.97C4.297.344 5-.312 5.063-1.296c.078-.954-.657-1.485-1.047-1.657zm-.891-.14H.922v-2.485h2.203c.906 0 1.328.61 1.328 1.25 0 .594-.36 1.234-1.328 1.234zM3.188.015H.921v-2.782h2.297c.797 0 1.469.516 1.469 1.329 0 .875-.625 1.453-1.5 1.453zm0 0"/></symbol><symbol overflow="visible" id="ak"><path d="M3.734-2.766c-.687-.265-1.468-.328-1.89-.484-.5-.156-1.078-.453-1.047-1.219.062-.812.781-1.297 1.734-1.297.985 0 1.781.75 1.766 1.594h.375c.047-.64-.5-1.953-2.14-1.953-1.438 0-2.063.875-2.11 1.656-.063.782.469 1.297 1.25 1.516.562.172 1.344.281 1.89.515.579.235 1 .72.922 1.329C4.375-.281 3.454.156 2.578.156 1.468.156.547-.406.563-1.64h-.36C.141-.453.97.531 2.563.531c1.406 0 2.203-.828 2.296-1.687.079-.735-.39-1.344-1.125-1.61zm0 0"/></symbol><symbol overflow="visible" id="al"><path d="M6.89-4.234h1.204v-.375H6.89v-2.032h-.438v4.922h.438zM4.345-1.266c1.328 0 2.312.454 2.312 1.188 0 .719-.984 1.172-2.312 1.172C3 1.094 2.016.64 2.016-.078c0-.735.984-1.188 2.328-1.188zm-.016-.359c-1.781 0-2.781.64-2.781 1.531 0 .89 1 1.532 2.781 1.532 1.797 0 2.781-.641 2.781-1.532 0-.89-.984-1.531-2.78-1.531zM1.766-6.563v.36h2.421v-.36zm.984 1.579v.03c0 1.5-2.125 2.391-2.39 2.47l.328.343c.187-.062 1.828-.828 2.296-1.968.36.984 2 1.78 2.188 1.843l.25-.359c-.281-.063-2.219-.969-2.219-2.328v-.031h1.938v-.36H.812v.36zm0 0"/></symbol><symbol overflow="visible" id="am"><path d="M6.75-4.969H4.875v.36H6.75v2.14h.438V-6.64H6.75zm.656 6.14V.813h-4.89V-.266h4.656v-1.75H2.078v.36h4.656v1.031H2.078v1.797zm-4.234-7.14v-.453h-.438v.453c0 1.703-1.78 2.89-2.39 3.14l.344.298c.265-.14 1.78-1 2.265-2.438.594 1.39 2.031 2.172 2.281 2.282l.282-.344c-.344-.125-2.344-1.172-2.344-2.938zm0 0"/></symbol><symbol overflow="visible" id="ao"><path d="M4.625.344V.016H.906v-5.922h-.36v6.25zm0 0"/></symbol><symbol overflow="visible" id="ap"><path d="M5.547.344v-3.11H3.109v.329h2.11v.5c0 .921-.813 2.078-2.25 2.078C1.656.14.719-1.094.719-2.766c0-1.703.922-2.937 2.265-2.937 1.188 0 1.922.89 2.141 1.578h.406c-.172-.656-.968-1.953-2.547-1.953-1.625 0-2.687 1.39-2.687 3.297C.297-.891 1.344.516 2.984.516c.907 0 1.766-.47 2.204-1.266L5.202.344zm0 0"/></symbol><symbol overflow="visible" id="aq"><path d="M4.64-1.281c1.391 0 2.407.468 2.407 1.203 0 .719-1.016 1.172-2.406 1.172-1.407 0-2.407-.453-2.407-1.172 0-.735 1-1.203 2.407-1.203zm0-.344c-1.843 0-2.874.64-2.874 1.531 0 .89 1.03 1.532 2.875 1.532C6.484 1.438 7.5.796 7.5-.095c0-.89-1.016-1.531-2.86-1.531zm2.298-2.906H5.625v-1.985h-.438V-2h.438v-2.172h1.313v2.36h.437v-4.829h-.438zm-4.36.093c.328 1.125 1.469 1.97 1.906 2.188l.266-.344c-.734-.36-1.953-1.281-1.953-2.922v-.859h-.438v.86c0 1.593-1.343 2.89-2.046 3.234L.625-2c.266-.156 1.531-1.031 1.953-2.438zm0 0"/></symbol><symbol overflow="visible" id="ar"><path d="M1.313-5.703h2.703v2.719H1.312zM4.39-1.234c1.359 0 2.359.406 2.359 1.14 0 .719-1 1.157-2.36 1.157-1.374 0-2.374-.438-2.374-1.157 0-.734 1-1.14 2.375-1.14zm0-.391c-1.813 0-2.813.64-2.813 1.531 0 .89 1 1.532 2.813 1.532 1.812 0 2.796-.641 2.796-1.532 0-.89-.984-1.531-2.796-1.531zm2.234-3.688H4.453v-.75H.875v3.438h3.578v-.86h2.172v1.704h.438v-4.86h-.438zm0 1.47H4.453v-1.11h2.172zm0 0"/></symbol><symbol overflow="visible" id="as"><path d="M6.75-6.64v7.89h.438v-7.89zm-5.016.577v.36h2.547v-.36zm1.047 1.907v.281C2.781-1.672.625-.453.375-.328l.328.312C1.078-.203 2.641-1.328 3-2.766 3.406-1.406 4.719-.39 5.219-.109l.25-.344c-.282-.125-2.25-1.313-2.25-3.422v-.281h1.984v-.36H.797v.36zm0 0"/></symbol><symbol overflow="visible" id="at"><path d="M5.063-1.844v1.64H3.046v-1.64zm-2.454 0v1.64H.172v.36h7.672v-.36H5.5v-1.64h1.453v-.36H1.72v-1.483h4.89v-2.22H1.25v.36h4.922v1.5h-4.89v2.203zm0 0"/></symbol><symbol overflow="visible" id="au"><path d="M5.375-3.61H3.891v.36h1.484V.89h.438v-7.359h-.438zm1.563-3.03v7.89h.437v-7.89zM2.266-5.25v1.016c0 2.171-1.5 3.437-2 3.828l.359.265C1-.437 2.063-1.375 2.5-2.969 2.828-1.53 4.078-.516 4.313-.359l.296-.313C4.313-.844 2.703-2 2.703-4.234V-5.25H4.25v-.36H.703v.36zm0 0"/></symbol><symbol overflow="visible" id="av"><path d="M4.016-1.25c1.406 0 2.468.422 2.468 1.156 0 .703-1.062 1.14-2.468 1.14-1.438 0-2.47-.437-2.47-1.14 0-.734 1.032-1.156 2.47-1.156zm0-.39c-1.86 0-2.922.656-2.922 1.546s1.062 1.532 2.922 1.532c1.859 0 2.921-.641 2.921-1.532 0-.89-1.062-1.547-2.921-1.547zM3.75-2.845v-1.828h-.438v1.828H.172v.36h7.672v-.36zm2.266-.594h.437c.14-.656.328-1.609.469-2.812H1.14v.36h5.28c-.062.78-.25 1.734-.405 2.452zm0 0"/></symbol><symbol overflow="visible" id="aw"><path d="M4.016-1.14c1.406 0 2.421.406 2.421 1.093 0 .672-1.015 1.094-2.421 1.094-1.438 0-2.422-.422-2.422-1.094 0-.687.984-1.094 2.422-1.094zm0-.391c-1.86 0-2.875.64-2.875 1.484 0 .86 1.015 1.484 2.875 1.484 1.859 0 2.875-.625 2.875-1.484 0-.844-1.016-1.484-2.875-1.484zm.218-1.063v-1.265h2.61v-.36h-5.14v-1.703H6.75v-.36H1.266v2.423h2.53v1.265H.173v.36h7.672v-.36zm0 0"/></symbol><symbol overflow="visible" id="ax"><path d="M1.313-5.75h2.703v2.281H1.312zm-.438-.36v3h3.578v-3zm5.75-.53v4.53h.438v-4.53zm-.906 4.734v-.36H2.922v.36zM7.375.906C6.531.891 4.625.125 4.578-.734v-.094h2.61v-.375H1.5v.375h2.61v.094C4.061.125 2.155.89 1.311.906l.297.344c.954-.094 2.313-.734 2.735-1.438.422.704 1.781 1.344 2.734 1.438zm0 0"/></symbol><symbol overflow="visible" id="ay"><path d="M4.328-1.266c1.328 0 2.297.454 2.297 1.188 0 .719-.969 1.156-2.297 1.156-1.344 0-2.312-.437-2.312-1.156 0-.735.968-1.188 2.312-1.188zm-.016-.359c-1.78 0-2.765.64-2.765 1.531 0 .89.984 1.532 2.766 1.532 1.796 0 2.765-.641 2.765-1.532 0-.89-.969-1.531-2.766-1.531zm2.438-2.5h1.219v-.36H6.75V-6.64h-.422v4.86h.422zM3.031-5.594v-.781h-.437v.781c0 1.719-1.656 2.922-2.406 3.266l.328.281c.265-.14 1.734-.922 2.296-2.531.579 1.39 1.86 2.078 2.36 2.328l.281-.344c-.734-.297-2.422-1.328-2.422-3zm0 0"/></symbol><symbol overflow="visible" id="az"><path d="M6.531-.016c0 .657-1.11 1.094-2.515 1.094-1.438 0-2.532-.437-2.532-1.094 0-.671 1.094-1.093 2.532-1.093 1.406 0 2.515.421 2.515 1.093zm.453 0c0-.843-1.109-1.453-2.968-1.453-1.86 0-2.985.61-2.985 1.453 0 .829 1.125 1.454 2.985 1.454 1.859 0 2.968-.625 2.968-1.454zm-.53-5.14c0 .64-1.032 1.11-2.454 1.11-1.422 0-2.422-.485-2.422-1.126 0-.672 1-1.14 2.422-1.14 1.422 0 2.453.484 2.453 1.156zm-.782 1.25c.781-.266 1.234-.719 1.234-1.25C6.906-6 5.86-6.672 4-6.672c-1.844 0-2.875.656-2.875 1.5 0 .547.469 1.016 1.266 1.281v1.329H.17v.359h7.673v-.36H5.672zm-2.844.125c.344.078.735.11 1.172.11.469 0 .875-.032 1.234-.126v1.235H2.828zm0 0"/></symbol><symbol overflow="visible" id="aA"><path d="M4.328-5.922v-.36H1.891v.36zm1.094 1.266v-.36H.812v.36zm2.61 1.797v-.36H6.796V-6.64h-.438V1.25h.438v-4.11zM6-.406v-.36c-.625.079-1.188.125-2.063.141-.14.016-.39.016-.593.016v-.985c1.031-.062 1.734-.593 1.734-1.234 0-.656-.797-1.235-1.953-1.235-1.14 0-1.875.547-1.875 1.235 0 .656.64 1.172 1.656 1.234v.985H.437v.359l3.5-.016C4.798-.28 5.391-.344 6-.406zM4.64-2.828c0 .5-.577.875-1.5.875-.874 0-1.5-.375-1.5-.875s.61-.89 1.485-.89c.922 0 1.516.405 1.516.89zm0 0"/></symbol><symbol overflow="visible" id="aB"><path d="M1.14-4.64h2.782v1.421H1.14zM.704-6.282v3.422H4.36v-3.422h-.437V-5H1.14v-1.281zm5.969 1.828H7.89v-.36H6.67V-6.64h-.437v4.125h.438zm.234 5.625v-.36h-4.86v-1.03h4.626v-1.704H1.609v.36h4.625v.984H1.61v1.75zm0 0"/></symbol><symbol overflow="visible" id="aC"><path d="M7.844-3.406v-.36H6.422c.219-.796.36-1.437.516-2.468H1.14v.359h5.28c-.077.781-.343 1.719-.437 2.11H.172v.359h3.625v1.203H1.266v.36h5.062V-.75H1.266v1.922h5.75v-.36H1.703V-.39H6.75v-1.812H4.234v-1.203zm0 0"/></symbol><symbol overflow="visible" id="aD"><path d="M1.781 1.516h.235C1.172.016.78-1.391.78-2.688c0-1.328.39-2.718 1.235-4.234H1.78C1.266-6.125.344-4.625.344-2.688c0 1.922.922 3.422 1.437 4.204zm0 0"/></symbol><symbol overflow="visible" id="aE"><path d="M3.016-6.078c-1.641 0-2.72 1.39-2.72 3.297C.297-.875 1.376.516 3.017.516c1.625 0 2.718-1.391 2.718-3.297 0-1.906-1.093-3.297-2.718-3.297zm0 6.219C1.64.14.719-1.125.719-2.781c0-1.656.922-2.922 2.297-2.922 1.359 0 2.296 1.266 2.296 2.922C5.313-1.125 4.375.14 3.017.14zm0 0"/></symbol><symbol overflow="visible" id="aF"><path d="M.484-6.922H.25c.86 1.516 1.234 2.906 1.234 4.234C1.484-1.39 1.11.017.25 1.516h.234C1 .734 1.922-.766 1.922-2.688 1.922-4.625 1-6.124.484-6.921zm0 0"/></symbol><symbol overflow="visible" id="aG"><path d="M5.313-3.203H3.921v.375h1.39V.89h.438v-7.36h-.438zM6.89-6.641V1.25h.437v-7.89zM2.312-4.219v.453C2.313-1.734.407-.594.142-.469l.343.313c.282-.14 1.75-1.188 2.047-2.531.36 1.312 1.656 2.218 1.797 2.312l.281-.344C4.031-1.03 2.75-2.109 2.75-3.766v-.453h1.64v-.36H.626v.36zm-.906-1.797v.375h2.219v-.375zm0 0"/></symbol><symbol overflow="visible" id="aH"><path d="M6.719-5.297h-1.75v.36h1.75v1.109H4.844v.36h1.875v1h.437v-4.173H6.72zm.562 6.469v-.36H2.36V-.266h4.766v-1.75H1.922v.36h4.766v1.031H1.921v1.797zM1.047-5.656h3.14C4.063-4.391 2.563-3.078.626-2.625l.281.328c2.063-.656 3.672-1.906 3.797-3.719H1.047zm0 0"/></symbol><symbol overflow="visible" id="aI"><path d="M2.875.344v-6.282h-.297c0 .329-.172.625-.422.813-.312.219-.547.297-.844.297v.312H2.5v4.86zm0 0"/></symbol><symbol overflow="visible" id="aJ"><path d="M6.625-6.64v7.89h.438v-7.89zm-2.156.718v-.36H2.016v.36zm1.093 1.266v-.36H.954v.36zm.657 4.25v-.36c-.625.094-1.266.125-2.14.157h-.595v-1c1.032-.063 1.735-.594 1.735-1.235 0-.656-.797-1.234-1.953-1.234-1.141 0-1.875.547-1.875 1.234 0 .656.625 1.172 1.656 1.235v1.015H.484v.36L4.078-.25c.86-.031 1.531-.094 2.14-.156zM4.78-2.844c0 .5-.578.875-1.5.875-.89 0-1.5-.39-1.5-.875 0-.5.61-.89 1.485-.89.921 0 1.515.406 1.515.89zm0 0"/></symbol><symbol overflow="visible" id="aK"><path d="M1-3.125c0-1.36.516-2.469 1.469-2.469.969 0 1.469 1.125 1.469 2.469 0 1.36-.5 2.484-1.47 2.484C1.517-.64 1-1.75 1-3.125zm-.453 0c0 1.734.765 2.89 1.922 2.89 1.172 0 1.922-1.156 1.922-2.89C4.39-4.859 3.64-6 2.469-6 1.313-6 .547-4.86.547-3.125zm6.125.281h1.344v-.36H6.672V-6.64H6.25V1.25h.422zm0 0"/></symbol><symbol overflow="visible" id="aL"><path d="M1.89-1.344v2.422h5.22v-.36H2.311v-2.062zm4.86-2.484h1.203v-.36H6.75V-6.64h-.422v5.75h.422zm-3.719-1.64v-.907h-.437v.906C2.594-3.75.89-2.39.219-2.14l.344.297c.25-.14 1.703-1.015 2.25-2.625.515 1.313 2.015 2.39 2.28 2.5l.282-.343c-.61-.297-2.344-1.454-2.344-3.157zm0 0"/></symbol><symbol overflow="visible" id="aM"><path d="M3.25-5.719c1.047 0 1.625.703 1.625 1.532 0 .828-.578 1.53-1.625 1.53-1.063 0-1.64-.702-1.64-1.53 0-.829.577-1.532 1.64-1.532zm0-.375c-1.234 0-2.11.86-2.11 1.907 0 1.046.876 1.921 2.11 1.921 1.219 0 2.094-.875 2.094-1.921 0-1.047-.875-1.907-2.094-1.907zm3.547-.547V1.25h.437v-7.89zM6.5-.78v-.375c-.594.125-2.14.218-3.063.234-.906.031-2.421.016-2.828.016v.375c.532 0 1.766 0 2.829-.031.906-.016 2.484-.125 3.062-.22zm0 0"/></symbol><symbol overflow="visible" id="aN"><path d="M4.875-6.453V.89h.438v-3.907h1.39V1.25h.438v-7.89h-.438v3.265h-1.39v-3.078zM4.437-.797v-.36c-.515.095-1.828.173-2.562.173h-.484v-4.22h2.28v-.359H.954v4.938h.89c.923 0 2.079-.094 2.595-.172zm0 0"/></symbol><symbol overflow="visible" id="aO"><path d="M4.016-5.328c.609 1.219 2 2.062 3.03 2.312l.282-.312c-1.156-.188-3.078-1.5-3.078-2.703v-.407h-.484v.407c0 1.156-1.625 2.39-3.063 2.703l.266.312c.953-.234 2.594-1.125 3.047-2.312zM7.844-1.75v-.36H.172v.36h3.625v3h.437v-3zm0 0"/></symbol><symbol overflow="visible" id="aP"><path d="M2.375-.203v-.719h-.719v.719zm0-3.922v-.703h-.703v.703zm0 0"/></symbol><symbol overflow="visible" id="aQ"><path d="M7.188-2.063V-6.64H6.75v4.579zM1.109-5.655H4.25C4.125-4.188 2.531-2.781.594-2.313l.281.329c2.063-.61 3.688-1.954 3.89-4.032H1.11zM2.391-1.25h4.343V.813H2.391zm4.78 2.422V-1.61H1.97v2.78zm0 0"/></symbol><symbol overflow="visible" id="aR"><path d="M6.031-2.547c0 .547-.875.906-2.015.906-1.172 0-2.032-.359-2.032-.906 0-.594.86-.937 2.032-.937 1.14 0 2.015.343 2.015.937zM5.484-1.5c.641-.234 1.032-.578 1.032-1.063 0-.718-.938-1.28-2.5-1.28-1.563 0-2.5.53-2.5 1.28 0 .485.39.844 1.03 1.079v1.453H.173v.36h7.672v-.36h-2.36zm-2.5.125a6.64 6.64 0 0 0 1.032.094c.375 0 .734-.047 1.03-.11v1.36H2.985zm4.047-3.14v-.36H.97v.36zM2.438-6.204v.36h3.14v-.36zm0 0"/></symbol><symbol overflow="visible" id="aS"><path d="M5.797-1.36h.422c.343-1.656.484-2.593.593-4.265H1.22v.36h5.125a26.227 26.227 0 0 1-.547 3.906zM7.844.048v-.36H4.687v-2.89H4.25v2.89H2.703v-2.89h-.422v2.89H.171v.36zm0 0"/></symbol><symbol overflow="visible" id="aU"><path d="M1.734-1.172v2.25h5.36v-.36H2.172v-1.89zM5-6.109H.86v.359H4.5a18.835 18.835 0 0 1-.313 2.438h.438c.188-.907.297-1.72.375-2.797zm1.36-.532v5.922h.437v-2.844h1.156v-.359H6.797V-6.64zm-.344 4.375v-.359c-.813.125-2.657.25-3.36.25v-1.953H2.22v1.953H.25v.36h1.234c1.829 0 2.922-.063 4.532-.25zm0 0"/></symbol><symbol overflow="visible" id="aV"><path d="M1.172-5.703h2.14v2.734h-2.14zm-.438-.36v3.454H3.75v-3.454zm.922 4.766v.36h5.032V1.25h.437v-2.547zM6.72-4.578H5.406v-1.938H4.97v4.579h.437V-4.22H6.72v2.282h.437v-4.704H6.72zm0 0"/></symbol><symbol overflow="visible" id="aW"><path d="M7.844-.078v-.36H.172v.36zM4.016-4.625c.625 1.89 2.75 2.797 3.03 2.875l.282-.313C6.062-2.469 4.25-3.796 4.25-5.5v-.547h-.484v.547c0 1.703-1.844 3.078-3.063 3.438l.266.312c.281-.078 2.5-1.047 3.047-2.875zm0 0"/></symbol><symbol overflow="visible" id="aX"><path d="M1.828-1.25v2.328h5.547v-.36h-5.11V-1.25zm3.313-3.219H3.844v.36H5.14v3.218h.437v-5.625h-.437zM6.719-6.64v5.829h.437v-5.829zm-2.36 4.407v-.36c-.343.063-1.515.156-2.156.156H1.22v-1.468h2.36v-.36h-2.36V-5.75h2.437v-.36H.781v4.032h1.39c.829 0 1.907-.11 2.188-.156zm0 0"/></symbol><symbol overflow="visible" id="aY"><path d="M1.75-3.594h4.969v-.36H1.75v-1.452h4.969v-.36H1.312v4h5.5v-.359H1.75zM7.844-.406H.172v.36h7.672zm0 0"/></symbol><symbol overflow="visible" id="aZ"><path d="M6.969-3.375H5.672v-3.094h-.438v7.36h.438v-3.907h1.297V1.25h.437v-7.89H6.97zM2.312-5.25v1.016c0 2.171-1.5 3.437-1.984 3.828l.36.265c.359-.296 1.437-1.234 1.859-2.828.328 1.438 1.578 2.453 1.828 2.61l.281-.313C4.375-.844 2.75-2 2.75-4.234V-5.25h1.563v-.36H.75v.36zm0 0"/></symbol><symbol overflow="visible" id="ba"><path d="M4.078-1.172c1.328 0 2.328.422 2.328 1.125 0 .688-1 1.14-2.328 1.14-1.344 0-2.312-.452-2.312-1.14 0-.703.968-1.125 2.312-1.125zm0-.36c-1.781 0-2.781.626-2.781 1.485 0 .86 1 1.484 2.781 1.484 1.797 0 2.781-.625 2.781-1.484 0-.86-.984-1.484-2.78-1.484zm2.594-2.593h1.203v-.36H6.672V-6.64h-.438v4.86h.438zM1.14-4.422h2.78v1.625h-2.78zM.703-6.25v3.813H4.36V-6.25h-.437v1.469H1.14V-6.25zm0 0"/></symbol><symbol overflow="visible" id="bb"><path d="M1.219-4.563h2.797v1.516H1.219zm1 4.079h4.344V.812H2.218zM7 1.172v-3h-.438v.984H2.22v-.984H1.78v3zm-.422-5.906H4.453V-6.25h-.437v1.328H1.219V-6.25H.78v3.563h3.672v-1.688h2.125v2h.438v-4.266h-.438zm0 0"/></symbol><symbol overflow="visible" id="bc"><path d="M6.75-6.64v7.89h.438v-7.89zM3.187-4.626v.14c0 1.235-2.015 2.094-2.296 2.188l.265.328c.14-.047 1.907-.86 2.235-1.812.484 1 1.828 1.656 1.968 1.687l.282-.328c-.25-.062-2.016-.922-2.016-2.062v-.141h1.906v-.36H1.266v.36zm-.984-1.64v.359h2.36v-.36zm4.078 5.78v-.374c-.61.109-1.578.171-2.453.187-.14.016-.031.016-.234.016v-1.64h-.422v1.655H.562v.36l3.282-.031c.86-.016 1.828-.094 2.437-.172zm0 0"/></symbol><symbol overflow="visible" id="bd"><path d="M5.531-5.844v-.36H2.484v.36zM7.844.266v-.36h-3.61V-1.89h-.437v1.797H.172v.36zM3.797-4.36v.171c0 .907-1.469 2.047-3.094 2.375L.97-1.5C2.688-1.969 3.719-2.86 4-3.625 4.469-2.609 6.078-1.641 7.047-1.5l.281-.313C6.11-2.015 4.234-3.155 4.234-4.188v-.171h2.657v-.36H1.14v.36zm0 0"/></symbol><symbol overflow="visible" id="be"><path d="M3.406-5.203C3.296-3 2.062-1.422.47-.453l.375.281c1.515-.937 2.953-2.719 3.047-5.39H.953v.359zm3.313 1.86H5.406V-6.47H4.97v7.36h.437v-3.86H6.72V1.25h.437v-7.89H6.72zm0 0"/></symbol><symbol overflow="visible" id="bf"><path d="M3.844-.922c-.188.61-.75 1.063-1.516 1.063-1 0-1.687-.875-1.687-2.079C.64-3.125 1.328-4 2.328-4c.953 0 1.406.688 1.531 1.14h.391c-.094-.624-.797-1.5-1.922-1.5C1.031-4.36.234-3.28.234-1.936c0 1.359.797 2.453 2.094 2.453 1.11 0 1.75-.766 1.922-1.438zm0 0"/></symbol><symbol overflow="visible" id="bg"><path d="M3.516-3.016c0 1.375-.485 2.454-1.266 2.454-.797 0-1.266-1.063-1.266-2.454 0-1.359.47-2.453 1.266-2.453.781 0 1.266 1.11 1.266 2.453zm3.64 4.266v-7.89H6.72v7.89zM3.953-3.406C3.86-4.937 3.188-5.86 2.25-5.86c-1 0-1.734 1.093-1.734 2.843S1.25-.156 2.25-.156c1.016 0 1.719-1.11 1.719-2.86v-.015h1.25V.89h.437v-7.36H5.22v3.063zm0 0"/></symbol><symbol overflow="visible" id="bh"><path d="M1.156-5.438h5.672v-.359H1.156zm4.375 3.141h1.516v-.36H5.75l.156-2.515H5.47l-.157 2.516H2.704l-.187-2.516h-.438l.203 2.516H.953v.36h1.578v2.03H.171v.36h7.673v-.36H5.53zm-2.562 0h2.125v2.031H2.969zm0 0"/></symbol><symbol overflow="visible" id="bi"><path d="M1.828-1.344v2.422h5.547v-.36h-5.11v-2.062zm4.797-2.75H4.797v.375h1.828V-.89h.438v-5.75h-.438zM.953-5.656h3.14C4.079-4.094 2.439-2.625.439-2.016l.296.313c2.22-.797 3.75-2.234 3.875-4.313H.953zm0 0"/></symbol><symbol overflow="visible" id="bj"><path d="M1.703-3.844v-1.265h4.625v1.265zm-.547 3v.36h5.172V1.25h.438V-.844zm3.078-1.39v-1.25h2.532v-2.938h-.438v.953H1.703v-.953h-.437v2.938h2.53v1.25H.173v.359h7.672v-.36zm0 0"/></symbol><symbol overflow="visible" id="bk"><path d="M6.75-4.719H5.36v.36h1.39v1.078H5.234v.36H6.75v1.327h.438V-6.64H6.75zM1.734-1.047v.36H6.75V1.25h.438v-2.297zm1.25-3.078c.985 0 1.516.422 1.516.938 0 .515-.531.906-1.516.906-.968 0-1.515-.39-1.515-.906s.547-.938 1.515-.938zm0-.344c-1.234 0-1.968.563-1.968 1.282 0 .718.734 1.28 1.968 1.28 1.235 0 1.985-.562 1.985-1.28 0-.72-.735-1.282-1.985-1.282zM.61-5.359V-5h4.766v-.36zm1.079-1.157v.36h2.515v-.36zm0 0"/></symbol><symbol overflow="visible" id="bl"><path d="M4.469-1.047c1.328 0 2.328.406 2.328 1.063 0 .656-1 1.078-2.328 1.078-1.344 0-2.313-.422-2.313-1.078 0-.657.969-1.063 2.313-1.063zm0-.36c-1.782 0-2.782.595-2.782 1.423 0 .828 1 1.421 2.782 1.421C6.266 1.438 7.25.845 7.25.016c0-.829-.984-1.422-2.781-1.422zM2.984-4.14c.985 0 1.516.36 1.516.875 0 .5-.531.844-1.516.844-.968 0-1.515-.344-1.515-.844 0-.515.547-.875 1.515-.875zm0-.343c-1.234 0-1.968.5-1.968 1.218 0 .72.734 1.204 1.968 1.204 1.235 0 1.985-.485 1.985-1.204 0-.718-.735-1.218-1.985-1.218zM.61-5.422v.36h4.766v-.36zm1.079-1.094v.36h2.515v-.36zM6.75-3.328H5.234v.36H6.75v1.343h.438v-5.016H6.75v1.875H5.36v.36h1.39zm0 0"/></symbol><symbol overflow="visible" id="bm"><path d="M4.016-1.172c1.406 0 2.468.438 2.468 1.125 0 .672-1.062 1.125-2.468 1.125-1.438 0-2.47-.453-2.47-1.125 0-.687 1.032-1.125 2.47-1.125zm-.22-1.406v1.047C2.079-1.47 1.095-.86 1.095-.047c0 .86 1.062 1.484 2.922 1.484 1.859 0 2.921-.625 2.921-1.484 0-.812-.984-1.422-2.703-1.484v-1.047h3.61v-.36H.172v.36zM3.75-5.922C3.781-5 1.812-4.032.766-3.875l.265.328C1.47-3.625 3.344-4.234 4-5.312c.469.75 1.594 1.437 2.969 1.75l.281-.313c-.906-.172-3.031-1.016-3.047-2.047h2.578v-.344H1.188v.344zm0 0"/></symbol><symbol overflow="visible" id="bn"><path d="M7.234 1.172v-2.703h-5.14v2.703zM2.531-1.172h4.266V.812H2.53zm4.25-5.469v4.579h.422v-4.579zm-3.625.938v-.656H2.72v.656c0 1.719-1.797 3-2.406 3.25l.343.281c.266-.125 1.719-.922 2.281-2.531.579 1.39 1.86 2.094 2.376 2.328l.28-.328c-.734-.313-2.437-1.328-2.437-3zm0 0"/></symbol><symbol overflow="visible" id="bo"><path d="M1.219-4.422h2.797v1.64H1.219zm3.093 3.266c1.36 0 2.36.422 2.36 1.125 0 .672-1 1.11-2.36 1.11-1.39 0-2.359-.454-2.359-1.141 0-.704.969-1.094 2.36-1.094zm0-.39c-1.812 0-2.812.64-2.812 1.5 0 .859 1 1.484 2.813 1.484 1.812 0 2.796-.625 2.796-1.485 0-.86-.984-1.5-2.796-1.5zm2.266-3.641H4.453V-6.25h-.437v1.469H1.219V-6.25H.78v3.828h3.672v-.86h2.125v1.579h.438v-4.938h-.438zm0 1.546H4.453v-1.187h2.125zm0 0"/></symbol><symbol overflow="visible" id="bp"><path d="M5.234-5.219c0-.765-.828-1.453-2.015-1.453-1.203 0-2.031.688-2.031 1.453 0 .766.828 1.438 2.03 1.438 1.188 0 2.016-.672 2.016-1.438zm1.922 4.86v-6.282H6.72v4.688H4.422v.36h2.297V-.36zm-.781-2.61v-.36c-.406.063-2.344.25-3.297.25H.438v.36H2.53v1.61h.438v-1.625C4.64-2.75 5.766-2.86 6.375-2.97zm1 4.047v-.36H2.359v-1.53h-.437v1.89zM4.797-5.219c0 .532-.547 1.063-1.578 1.063-1.016 0-1.578-.532-1.578-1.063 0-.547.562-1.047 1.578-1.047 1.031 0 1.578.5 1.578 1.047zm0 0"/></symbol><symbol overflow="visible" id="bq"><path d="M5.516-.75C5.078-1 3.094-2.14 3.094-4.703v-1.453h-.438v1.453C2.656-2.172 1-.984.22-.563l.344.313c.375-.203 2-1.406 2.312-3.14.453 1.734 2.047 2.78 2.328 2.968zm2.5-2.297v-.36h-1.22V-6.64H6.36V1.25h.438v-4.297zm0 0"/></symbol><symbol overflow="visible" id="br"><path d="M4.14-4.563c0 .766-.53 1.407-1.53 1.407-.985 0-1.532-.64-1.532-1.406 0-.766.531-1.407 1.531-1.407 1.016 0 1.532.625 1.532 1.407zM2.267-.53H6.64V.813H2.266zm4.812 1.703v-3.094h-.437V-.89H2.266v-1.03h-.438v3.093zm-2.469-6c-.14-.89-.921-1.563-2-1.563-1.203 0-2.015.813-2.015 1.829 0 1.015.828 1.812 2.015 1.812 1.157 0 1.954-.75 2.016-1.719h2v2.094h.438v-4.266h-.438v1.813zm0 0"/></symbol><symbol overflow="visible" id="bs"><path d="M1.656-1.438v2.516H6.97v-.36H2.094v-2.155zM6.281-6.64v5.75h.438v-3.234h1.203v-.36H6.719V-6.64zm-.515 3.875v-.359c-.516.11-2.329.266-3.61.266H1.22v-2.797h3.39v-.36H.781V-2.5h1.36c1.14 0 3.109-.172 3.625-.266zm0 0"/></symbol><symbol overflow="visible" id="bt"><path d="M4.234-1.64v-.923h3.61v-.359H.172v.36h3.625v.921H1.266v.36h5.062v.828H1.266v1.625H7v-.36H1.703v-.906H6.75V-1.64zm-1.703-5v.359H5.5v-.36zm1.735 1.452H6.89v-.343H1.14v.343h2.64c0 .594-1.734 1.329-3.047 1.438l.25.297c1.36-.14 2.594-.75 3.016-1.313.531.563 1.75 1.172 3.031 1.313l.25-.297c-1.406-.14-3.015-.922-3.015-1.438zm0 0"/></symbol><symbol overflow="visible" id="bu"><path d="M1.219-4.422h2.797v1.469H1.219zm1 3.266h4.344V.812H2.218zM7 1.172v-2.688H1.781v2.688zm-.422-5.828H4.453V-6.25h-.437v1.469H1.219V-6.25H.78v3.656h3.672v-1.703h2.125v2.11h.438v-4.454h-.438zm0 0"/></symbol><symbol overflow="visible" id="bw"><path d="M4.234-1.234C5.5-1.234 6.5-.813 6.5-.078c0 .719-1.031 1.14-2.266 1.14-1.218 0-2.28-.421-2.28-1.14 0-.735 1.03-1.156 2.28-1.156zm0-.391c-1.687 0-2.75.64-2.75 1.531 0 .89 1.063 1.532 2.75 1.532 1.688 0 2.735-.641 2.735-1.532 0-.89-1.047-1.531-2.735-1.531zm2.563-2.406h1.219v-.36h-1.22v-2.25H6.36v4.86h.438zM.844-5.656h3.14C3.86-4.172 2.281-2.781.328-2.296l.297.327c2.047-.61 3.672-1.968 3.875-4.047H.844zm0 0"/></symbol><symbol overflow="visible" id="bx"><path d="M1.266-1.031v2.11h5.78v-.36H1.704v-1.75zM2.875-2.25v2.031h.438V-2.25h2v2.031h.437V-2.25h2.094v-.36H.172v.36zm4-2.86c0-.89-1.031-1.562-2.86-1.562-1.812 0-2.859.672-2.859 1.563 0 .89 1.047 1.562 2.86 1.562 1.828 0 2.859-.672 2.859-1.562zm-.453 0c0 .688-1.031 1.204-2.406 1.204-1.375 0-2.407-.516-2.407-1.203 0-.72 1.032-1.204 2.407-1.204s2.406.485 2.406 1.204zm0 0"/></symbol><symbol overflow="visible" id="by"><path d="M4.688-3.688c0 .407-.547.735-1.47.735-.874 0-1.437-.328-1.437-.735 0-.39.563-.718 1.453-.718.922 0 1.454.328 1.454.718zM6.452-6.64v6.25h.438v-3.046h1.171v-.36H6.891V-6.64zM3.484-2.594c1-.062 1.657-.531 1.657-1.078 0-.625-.75-1.094-1.907-1.094-1.156 0-1.921.485-1.921 1.079 0 .578.687 1.046 1.734 1.093v.766H.344v.36l3.547-.016c.859-.032 1.625-.11 2.234-.172v-.375c-.656.11-2.219.203-2.64.203zm3.688 3.672v-.36H2.266V-.905h-.438v1.984zM5.469-5.188v-.359H.89v.36zM4.39-6.202v-.36H2.03v.36zm0 0"/></symbol><symbol overflow="visible" id="bz"><path d="M1.703-3.578v-1.453h4.625v1.453zm-.437.36H6.75v-3.204h-.422v1.031H1.703v-1.03h-.437zm0 2.187v2.11H7.03v-.36H1.703v-1.75zm3.046-.813h3.532v-.36H.172v.36h3.703v1.86h.438zm0 0"/></symbol><symbol overflow="visible" id="bA"><path d="M6.75-6.64v7.89h.438v-7.89zm-3.188.75v-.423h-.437v.422c0 1.579-1.844 2.375-2.14 2.485l.296.281c.36-.14 1.813-.922 2.063-1.938C3.719-4 5.234-3.25 5.39-3.202l.234-.297c-.234-.078-2.063-.89-2.063-2.39zm-.656 4v2.968h.438v-2.984c1.11 0 2.469-.14 3.062-.25V-2.5c-.375.078-2.14.25-3.078.25H.563v.36zm0 0"/></symbol><symbol overflow="visible" id="bB"><path d="M5.203-1.656h1.61V.812h-1.61zM7.25 1.172v-3.188H4.766v3.188zm-2.797-.11V.704C4.234.75 4 .75 3.641.766c-.36.03-1.141.03-1.407.03V-.265h2.079v-1.75h-2.5v.36h2.062v1.031H1.812v1.797c.172 0 1.125 0 1.829-.047.359-.016.609-.016.812-.063zM6.797-4.78H4.969v.36h1.828v1.89h.437v-4.11h-.437zm-3.61-.969H5v-.36H.906v.36H2.75v.172c0 1.328-1.063 2.266-2.297 2.766l.281.328C1.313-2.688 2.72-3.563 2.97-4.61c.344.921 1.375 1.578 2.062 1.921l.282-.359c-.625-.234-2.125-.984-2.125-2.531zm0 0"/></symbol><symbol overflow="visible" id="bC"><path d="M1.266-1.234v2.312h5.796v-.36H1.704v-1.952zm6.578-1.094H.172v.36h7.672zm-3.86-4.344c-1.703 0-2.828.781-2.828 1.688 0 .937 1.14 1.609 2.828 1.609 1.766 0 2.829-.672 2.829-1.61 0-.921-1.079-1.687-2.829-1.687zm0 .375c1.329 0 2.375.547 2.375 1.313 0 .765-1.062 1.234-2.375 1.234-1.234 0-2.375-.453-2.375-1.234 0-.75 1.079-1.313 2.375-1.313zm0 0"/></symbol><symbol overflow="visible" id="bD"><path d="M6.781-2.969H8.11v-.36H6.781V-6.64h-.437V1.25h.437zM2.61-5.344v.875c0 2.047-1.468 3.578-2.375 4l.329.313c.39-.25 1.968-1.453 2.265-3.11C3.172-1.594 4.672-.53 4.922-.375l.266-.36c-.391-.203-2.141-1.39-2.141-3.734v-.875h2.031v-.36H.656v.36zm0 0"/></symbol><symbol overflow="visible" id="bE"><path d="M7.172 1.172v-2.75h-5.25v2.75zm-4.813-2.39h4.375v2.03H2.36zm4.36-5.423v4.532h.437v-4.532zM4.64-4.516c0-1.03-.829-1.859-2.032-1.859-1.218 0-2.03.828-2.03 1.86 0 1.046.812 1.843 2.03 1.843 1.204 0 2.032-.797 2.032-1.844zm-.485 0c0 .813-.515 1.438-1.547 1.438-1.015 0-1.546-.625-1.546-1.438 0-.796.53-1.437 1.546-1.437 1.032 0 1.547.64 1.547 1.437zm0 0"/></symbol><symbol overflow="visible" id="bF"><path d="M1.703-3.844v-2.078h4.625v2.078zm-.437.36H6.75v-2.797H1.266zm0 2.421v2.141h5.796v-.36H1.704v-1.78zm3.046-.875h3.532v-.359H.172v.36h3.703v1.843h.438zm0 0"/></symbol><symbol overflow="visible" id="bG"><path d="M1.969-1.172v2.25h5.406v-.36H2.391v-1.89zM6.75-4.609H5.36v.359h1.39v1.14H5.234v.36H6.75v2.031h.438V-6.64H6.75zm-3.766.5c.985 0 1.516.515 1.516 1.03 0 .517-.531 1-1.516 1-.968 0-1.515-.483-1.515-1 0-.515.547-1.03 1.515-1.03zm0-.344c-1.234 0-1.968.656-1.968 1.375s.734 1.36 1.968 1.36c1.235 0 1.985-.641 1.985-1.36 0-.719-.735-1.375-1.985-1.375zM.61-5.328v.36h4.766v-.36zm1.079-1.188v.36h2.53v-.36zm0 0"/></symbol><symbol overflow="visible" id="bI"><path d="M7.844-2.953v-.36H6.406c.047-.187.453-2.343.532-2.906H1.14v.36h5.28c-.109.921-.374 2.203-.452 2.546H.172v.36h3.531v1.875H1.156v.36h5.172V1.25h.422v-2.328H4.125v-1.875zm0 0"/></symbol><symbol overflow="visible" id="bJ"><path d="M6.672-2.781H8v-.375H6.672v-3.485H6.25V1.25h.422zM.484-.47l.36.281c1.953-1 3.39-2.89 3.61-5.468h-3.5v.36h3.015C3.797-3.423 2.563-1.423.484-.47zm0 0"/></symbol><symbol overflow="visible" id="bK"><path d="M7.422 1.172v-.36h-4.89V-.266H7.25v-1.75H2.062v.36h4.75v1.031H2.095v1.797zm-.625-7.813v4.172h.437V-6.64zm-3.625.672v-.453h-.438v.453c0 1.703-1.78 2.89-2.39 3.14l.344.298c.265-.14 1.78-1 2.265-2.438.594 1.39 2 2.14 2.266 2.25l.281-.328c-.36-.14-2.328-1.156-2.328-2.922zm0 0"/></symbol><symbol overflow="visible" id="bL"><path d="M1.313-5.219h2.093V-.89H1.312zm-.438-.36V-.53h2.969v-5.047zm5.844 2.204H5.406v-3.094H4.97v7.36h.437v-3.907H6.72V1.25h.437v-7.89H6.72zm0 0"/></symbol><symbol overflow="visible" id="bM"><path d="M1.844-1.39v.359h4.968V1.25h.438v-2.64zm5-5.25v4.796h.437V-6.64zm-3.578.937h1.859v-.36H1v.36h1.828v.219c0 2-1.906 2.828-2.312 3l.312.312c.235-.11 1.813-.875 2.219-2.234.469 1.375 1.984 1.937 2.172 2.015l.281-.328c-.25-.078-2.234-.687-2.234-2.765zm0 0"/></symbol><symbol overflow="visible" id="bN"><path d="M7.64 1.172v-.36H2.579V-.25h4.766v-1.719H2.14v.36h4.765v1H2.141v1.78zM2.517-4.75c.343 1.125 1.468 1.828 1.89 2.063L4.672-3c-.75-.36-1.938-1.156-1.938-2.89v-.485h-.437v.484c0 1.594-.797 2.563-2.031 3.235l.296.281c.829-.516 1.72-1.25 1.954-2.375zm2.796-.188H3.798v.36h1.515v2.11h.438v-4.048h-.438zM6.938-6.64v4.172h.438V-6.64zm0 0"/></symbol><symbol overflow="visible" id="bP"><path d="M7.844-2.453v-.36H6.406c.078-.5.39-2.265.532-3.406H1.266v.36h5.156c-.094.937-.39 2.64-.453 3.046H.172v.36zm-.782 3.531v-.36H1.704v-2.374h-.437v2.734zm0 0"/></symbol><symbol overflow="visible" id="bQ"><path d="M6.719-5.25h-1.75v.36h1.75v1.28H4.844v.36h1.875v1.469h.437v-4.86H6.72zM4.453-1.266c1.328 0 2.313.422 2.313 1.157 0 .718-.985 1.14-2.313 1.14-1.344 0-2.328-.422-2.328-1.14 0-.735.984-1.157 2.328-1.157zm0-.39C2.656-1.656 1.672-1 1.672-.11c0 .875.984 1.515 2.781 1.515 1.797 0 2.781-.64 2.781-1.515 0-.891-.984-1.547-2.78-1.547zm-3.422-4h3.14C4.048-4.172 2.454-2.781.517-2.296l.28.327c2.063-.61 3.688-1.968 3.891-4.047H1.031zm0 0"/></symbol><symbol overflow="visible" id="bR"><path d="M2.578-4.438c.328 1.125 1.469 1.97 1.906 2.188l.266-.344c-.734-.36-1.953-1.281-1.953-2.922v-.859h-.438v.86c0 1.593-1.343 2.89-2.046 3.234L.625-2c.266-.156 1.531-1.031 1.953-2.438zm-.703 3.141v.36h5.031V1.25h.438v-2.547zm5.063-3.187H5.625v-2.032h-.438v4.625h.438v-2.234h1.313v2.234h.437v-4.75h-.438zm0 0"/></symbol><symbol overflow="visible" id="bS"><path d="M4.016-1.297c1.406 0 2.468.453 2.468 1.188 0 .718-1.062 1.171-2.468 1.171-1.438 0-2.47-.453-2.47-1.171 0-.735 1.032-1.188 2.47-1.188zm0-.36c-1.86 0-2.922.657-2.922 1.548 0 .906 1.062 1.546 2.922 1.546 1.859 0 2.921-.64 2.921-1.546 0-.891-1.062-1.547-2.921-1.547zm3.828-1.062H.172v.36h7.672zM4.234-5.89h2.563v-.359H1.219v.36h2.578c0 .812-1.703 1.984-3.063 2.171l.297.328c1.094-.28 2.438-.921 2.985-1.968.468.968 1.765 1.687 2.953 1.968l.265-.328c-1.734-.344-3-1.484-3-2.172zm0 0"/></symbol><symbol overflow="visible" id="bT"><path d="M6.797-6.64v7.89h.437v-7.89zM5.609-.75C5.188-1 3.203-2.14 3.203-4.703v-1.453h-.437v1.453c0 2.531-1.657 3.719-2.438 4.14l.344.313c.36-.203 2-1.406 2.312-3.14.438 1.734 2.032 2.78 2.329 2.968zm0 0"/></symbol><symbol overflow="visible" id="bU"><path d="M3.094-5.703h1.86v-.36H.827v.36h1.828v.219c0 2-1.922 2.828-2.312 3l.312.312c.235-.11 1.813-.875 2.219-2.234.469 1.375 1.984 1.937 2.172 2.015l.266-.328c-.235-.078-2.22-.687-2.22-2.765zM1.656-1.391v.36H6.47V1.25h.437v-2.64zm5.235-2.812h1.203v-.375H6.89v-2.063h-.438v4.797h.438zm0 0"/></symbol><symbol overflow="visible" id="bV"><path d="M3.188 1.156v-14.219H1.155v14.22zm0 0"/></symbol><symbol overflow="visible" id="bW"><path d="M11.594-4.672v-2.125H.516v2.125zm0 0"/></symbol><symbol overflow="visible" id="bX"><path d="M5.156-13.594c-2.984 0-4.437 2.39-4.39 4.703h1.89c.016-1.375.703-2.828 2.485-2.828 1.562 0 2.343 1.078 2.312 2.547 0 1.25-.812 2.11-1.703 2.781L3.469-4.67C.906-2.735.438-.798.438 1.171h9.156v-1.89l-6.75.015c.328-1 1.125-1.75 1.765-2.25L6.953-4.72c1.156-.86 2.688-2.156 2.688-4.468 0-2.313-1.5-4.407-4.485-4.407zm0 0"/></symbol><symbol overflow="visible" id="bY"><path d="M4.234 2.313V-.563H1.391v2.875zm0 0"/></symbol><symbol overflow="visible" id="ca"><path d="M15.875 2.797v-17.578h-2.203v5.578h-3.36v2.172h3.36v9.828zm-3.922-5.031a10.154 10.154 0 0 1-3.14-2.922c-1.157-1.64-1.454-4.235-1.454-5.75v-2.89H5.063v2.89c0 2-.282 3.86-1.25 5.547C2.984-3.875 1.765-2.734.265-1.75L1.937-.266C2.86-.922 3.625-1.5 4.36-2.375c.907-1.063 1.47-1.86 1.891-2.844.39.844.875 1.578 1.61 2.438.952 1.11 1.906 1.719 2.671 2.203zm0 0"/></symbol><symbol overflow="visible" id="cb"><path d="M17.078-5.906v-1.907H.375v1.907h7.203v1.218h-5.11v1.829h10.095v1H2.469v4.453H15.39V.766H4.875v-1H15v-4.454H9.969v-1.218zm-1.812-5.89c0-1.782-2.547-3.095-6.532-3.095-4 0-6.53 1.25-6.53 3.094 0 1.953 2.53 3.078 6.53 3.078 3.985 0 6.532-1.11 6.532-3.078zm-2.454.03c0 .72-1.578 1.407-4.078 1.407-2.562 0-4.078-.75-4.078-1.438 0-.828 1.797-1.437 4.078-1.437 2.235 0 4.079.656 4.079 1.468zm0 0"/></symbol><symbol overflow="visible" id="cc"><path d="M8.797-1.281v-2.11c-.563.079-1.938.22-3.14.235H3.983v-7.406H7.75v-2.172H1.781v11.75L4.75-1c2.313-.016 3.516-.203 4.047-.281zm7.062 4.078v-17.578h-2.14v6.39h-1.86v-5.984H9.734V2h2.125v-8.172h1.86v8.969zm0 0"/></symbol><symbol overflow="visible" id="cd"><path d="M8.906-13.047v-1.828H3.328v1.828zm2.516 2.688v-1.844H.812v1.844zm5.969 2.406V-10h-2.282v-4.781h-2.203v11.187h2.203v-4.36zm-6.516 1.062c0-1.671-1.781-2.875-4.719-2.875-2.828 0-4.812 1.204-4.812 2.875 0 1.672 2.015 2.954 4.765 2.954 2.954 0 4.766-1.282 4.766-2.954zm4.234 9.688v-5.531H2.72v2h10.14v3.53zM8.547-6.906c0 .734-.922 1.234-2.39 1.234-1.485 0-2.454-.484-2.454-1.219 0-.718.969-1.156 2.453-1.156 1.469 0 2.39.422 2.39 1.14zm0 0"/></symbol><symbol overflow="visible" id="ce"><path d="M17.078.703v-2.015H10.61V-7.25H8.375v5.938H6.359V-7.25H4.125v5.938H.375V.703zm-1.687-13.625H2.17v2.016h10.782c-.078 2.594-.953 7.11-1 7.36h2.203c.031-.11.36-1.829.75-4.423.25-1.672.485-3.86.485-4.953zm0 0"/></symbol><symbol overflow="visible" id="cf"><path d="M15.89-.406c0-1.985-2.234-3.453-6.5-3.453-4.234 0-6.484 1.468-6.484 3.453 0 2.031 2.25 3.437 6.485 3.437 4.265 0 6.5-1.406 6.5-3.437zm-2.437.031c0 .953-1.5 1.516-4.031 1.516-2.516 0-4.094-.579-4.094-1.547 0-.969 1.5-1.516 4.094-1.516 2.469 0 4.031.578 4.031 1.547zM7.688-7.094h-3.97v-2.265h3.97zm2.203-5.11v-1.937H7.687v2.735H3.72v-2.735H1.516v9.063H9.89v-1.656h3.593v2.468h2.204V-14.78h-2.204v2.578zm0 3.5v-1.546h3.593v1.547zm0 0"/></symbol><symbol overflow="visible" id="cg"><path d="M16-1.516V-14.78h-2.203v9.922h-3.89v1.921h3.89v1.422zm-2.766-4.609v-2.016c-.812.172-4.734.516-6.578.516H.97v2.047h3.89v2.969h2.297v-2.985c1.157 0 4.672-.25 6.078-.531zm3.157 8.516V.375H6.063v-2.297H3.733v4.313zM6.813-13.313c1.656 0 2.312.907 2.312 1.516 0 .547-.656 1.438-2.297 1.438-1.594 0-2.297-.891-2.297-1.438 0-.61.657-1.515 2.282-1.515zm0-1.765c-2.922 0-4.485 1.562-4.485 3.281 0 1.75 1.547 3.266 4.485 3.266 2.953 0 4.484-1.5 4.484-3.266 0-1.734-1.485-3.281-4.485-3.281zm0 0"/></symbol><symbol overflow="visible" id="ch"><path d="M15.875-4.766V-14.78h-2.203v10.015zm-.047 7.36v-6.547H3.734v6.547zM13.625.578H5.922v-2.515h7.703zm-1.828-7.64C10.78-7.47 9.703-8.142 8.687-9.22c-.89-1-1.343-2.281-1.343-3.844v-1.234H5.016v1.235c0 1.562-.36 2.843-1.391 4.062C2.703-7.89 1.437-6.984.469-6.469l1.562 1.61c.781-.454 1.406-.875 2.328-1.735a8.887 8.887 0 0 0 1.829-2.312c.515.797 1 1.312 1.687 1.922.844.734 1.922 1.375 2.64 1.656zm0 0"/></symbol><symbol overflow="visible" id="ci"><path d="M15.734-4.938v-9.843h-2.203v3.094h-2.375v1.78h2.375v1.641h-2.75v1.813h2.75v1.516zM8.391-13.28v-1.688H3.187v1.688zm2.53 2.5v-1.703H.689v1.703zm-.53 3.234c0-1.516-1.594-2.703-4.547-2.703-2.828 0-4.625 1.188-4.625 2.703 0 1.469 1.812 2.64 4.593 2.64 2.938 0 4.579-1.14 4.579-2.64zm-2.375-.016c0 .594-.657 1.047-2.188 1.047-1.516 0-2.219-.406-2.219-1.03 0-.657.72-1.095 2.22-1.095 1.53 0 2.187.47 2.187 1.079zm8.296 10.157V.906H5.845v-.89h9.86v-4.11H3.358v1.672h9.875v.922H3.375v4.094zm0 0"/></symbol><symbol overflow="visible" id="cj"><path d="M10.984-13.875h-9.5v2.016h7.094c-.11 1.953-.625 4.109-.64 4.234h2.187c.016-.063.266-1.016.5-2.64a29.05 29.05 0 0 0 .36-3.61zm6.47 6.703v-2.094h-2.36v-5.515H12.89V-1.86h2.203v-5.313zm-5.157 2.64v-2.015c-1.531.234-5.266.516-6.531.516v-3.766H3.562v3.766H.422v2.062h2.547c3.937 0 7.344-.297 9.328-.562zm3.25 6.923V.375H5.266v-3.203H3.03V2.39zm0 0"/></symbol><symbol overflow="visible" id="ck"><path d="M5.813-12.219c1.546 0 2.406 1.14 2.406 2.5 0 1.328-.86 2.469-2.406 2.469-1.547 0-2.391-1.14-2.391-2.469 0-1.36.844-2.5 2.39-2.5zm3.703-.297c-.844-1.046-2.157-1.718-3.704-1.718-2.718 0-4.656 2.03-4.656 4.515 0 2.469 1.938 4.485 4.657 4.485 1.593 0 2.921-.704 3.75-1.782h4.046v4.938h2.204v-12.703h-2.204v2.265zm.906 3.547c.031-.234.062-.5.062-.75a4.8 4.8 0 0 0-.078-.828h3.203v1.578zm5.765 11.36V.375H5.845v-3.61H3.562v5.626zm0 0"/></symbol><symbol overflow="visible" id="cl"><path d="M17.078-4.531v-2.016h-2.922c.14-.578.469-1.86.672-3.156.203-1.281.5-3.578.5-4.172H2.234v2.016h10.563c-.11 1.859-.594 4.343-.89 5.312H.374v2.016h6.813v7.328h2.265v-7.328zm0 0"/></symbol><symbol overflow="visible" id="cm"><path d="M17.234-7.64v-2.126h-2.328v-5.015h-2.203v12.719h2.203v-5.579zM11.47-5.657v-2.016c-1.156.219-3.735.422-5.203.438l-2.735.03v-4.421h6.375v-2.047H1.328v8.516l3.969-.016c2.469-.016 5.094-.312 6.172-.484zm3.984 8.047V.375H5.375v-3.953h-2.25V2.39zm0 0"/></symbol><symbol overflow="visible" id="cn"><path d="M15.734-3.61V-14.78h-2.203v3.703h-2.39v1.86h2.39v1.796h-2.765v1.89h2.765v1.923zm-.046 6.407v-5.531H3.108v2h10.375v3.53zM8.39-13.047v-1.828H3.187v1.828zm2.53 2.688v-1.844H.689v1.844zm-.562 3.468c0-1.671-1.593-2.875-4.53-2.875-2.829 0-4.61 1.204-4.61 2.875 0 1.672 1.812 2.954 4.578 2.954 2.937 0 4.562-1.282 4.562-2.954zm-2.328-.015c0 .734-.719 1.234-2.203 1.234S3.562-6.156 3.562-6.89c0-.718.782-1.156 2.266-1.156s2.203.422 2.203 1.14zm0 0"/></symbol></defs><g fill="#393536"><use xlink:href="#a" x="42.468" y="48.426"/><use xlink:href="#b" x="48.041" y="48.426"/><use xlink:href="#c" x="53.614" y="48.426"/></g><g fill="#231f20"><use xlink:href="#d" x="74.885" y="47.727"/><use xlink:href="#e" x="82.886" y="47.727"/><use xlink:href="#f" x="85.492" y="47.727"/><use xlink:href="#g" x="88.099" y="47.727"/><use xlink:href="#h" x="96.1" y="47.727"/></g><g fill="#393536"><use xlink:href="#a" x="42.468" y="48.426"/><use xlink:href="#b" x="48.041" y="48.426"/><use xlink:href="#c" x="53.614" y="48.426"/></g><g fill="#fff"><use xlink:href="#i" x="88.901" y="183.458"/><use xlink:href="#j" x="97.277" y="183.458"/></g><g fill="#fff"><use xlink:href="#k" x="293.418" y="183.458"/><use xlink:href="#l" x="301.794" y="183.458"/><use xlink:href="#l" x="304.923" y="183.458"/><use xlink:href="#l" x="308.052" y="183.458"/><use xlink:href="#l" x="311.182" y="183.458"/><use xlink:href="#l" x="314.311" y="183.458"/><use xlink:href="#m" x="317.44" y="183.458"/></g><g fill="#33459a"><use xlink:href="#n" x="79.274" y="205.854"/><use xlink:href="#o" x="84" y="205.854"/><use xlink:href="#p" x="88.726" y="205.854"/><use xlink:href="#o" x="93.451" y="205.854"/><use xlink:href="#q" x="98.177" y="205.854"/></g><g fill="#231f20"><use xlink:href="#r" x="123.865" y="205.854"/><use xlink:href="#s" x="131.713" y="205.854"/><use xlink:href="#t" x="139.56" y="205.854"/><use xlink:href="#u" x="147.407" y="205.854"/><use xlink:href="#v" x="155.255" y="205.854"/><use xlink:href="#w" x="163.102" y="205.854"/><use xlink:href="#x" x="170.95" y="205.854"/><use xlink:href="#y" x="178.797" y="205.854"/><use xlink:href="#z" x="186.645" y="205.854"/><use xlink:href="#A" x="194.492" y="205.854"/><use xlink:href="#B" x="202.34" y="205.854"/><use xlink:href="#C" x="205.217" y="205.854"/><use xlink:href="#u" x="213.064" y="205.854"/><use xlink:href="#D" x="220.912" y="205.854"/><use xlink:href="#E" x="228.759" y="205.854"/><use xlink:href="#B" x="236.607" y="205.854"/><use xlink:href="#F" x="239.484" y="205.854"/><use xlink:href="#G" x="247.332" y="205.854"/><use xlink:href="#B" x="255.179" y="205.854"/><use xlink:href="#H" x="258.057" y="205.854"/><use xlink:href="#I" x="265.904" y="205.854"/><use xlink:href="#J" x="273.751" y="205.854"/><use xlink:href="#B" x="281.599" y="205.854"/><use xlink:href="#K" x="284.476" y="205.854"/><use xlink:href="#w" x="292.324" y="205.854"/></g><g fill="#33459a"><use xlink:href="#n" x="79.274" y="230.131"/><use xlink:href="#o" x="84" y="230.131"/><use xlink:href="#o" x="88.726" y="230.131"/><use xlink:href="#L" x="93.451" y="230.131"/><use xlink:href="#q" x="98.177" y="230.131"/></g><g fill="#231f20"><use xlink:href="#r" x="123.865" y="230.131"/><use xlink:href="#s" x="131.713" y="230.131"/><use xlink:href="#t" x="139.56" y="230.131"/><use xlink:href="#u" x="147.407" y="230.131"/><use xlink:href="#v" x="155.255" y="230.131"/><use xlink:href="#A" x="163.102" y="230.131"/><use xlink:href="#M" x="170.95" y="230.131"/><use xlink:href="#w" x="178.797" y="230.131"/><use xlink:href="#B" x="186.645" y="230.131"/><use xlink:href="#N" x="189.522" y="230.131"/><use xlink:href="#O" x="196.724" y="230.131"/><use xlink:href="#P" x="201.171" y="230.131"/><use xlink:href="#Q" x="203.735" y="230.131"/><use xlink:href="#R" x="205.016" y="230.131"/><use xlink:href="#S" x="209.638" y="230.131"/><use xlink:href="#T" x="214.791" y="230.131"/><use xlink:href="#Q" x="220.302" y="230.131"/><use xlink:href="#U" x="221.583" y="230.131"/><use xlink:href="#V" x="226.013" y="230.131"/><use xlink:href="#V" x="229.936" y="230.131"/><use xlink:href="#B" x="233.86" y="230.131"/><use xlink:href="#W" x="236.738" y="230.131"/><use xlink:href="#X" x="242.135" y="230.131"/><use xlink:href="#Y" x="246.686" y="230.131"/><use xlink:href="#Z" x="247.968" y="230.131"/><use xlink:href="#aa" x="252.241" y="230.131"/><use xlink:href="#P" x="256.688" y="230.131"/><use xlink:href="#V" x="259.251" y="230.131"/><use xlink:href="#Y" x="263.175" y="230.131"/><use xlink:href="#ab" x="264.457" y="230.131"/><use xlink:href="#ac" x="266.157" y="230.131"/><use xlink:href="#B" x="270.238" y="230.131"/><use xlink:href="#ad" x="273.115" y="230.131"/><use xlink:href="#ae" x="280.962" y="230.131"/><use xlink:href="#af" x="288.81" y="230.131"/><use xlink:href="#ag" x="296.657" y="230.131"/><use xlink:href="#B" x="304.505" y="230.131"/><use xlink:href="#K" x="307.382" y="230.131"/><use xlink:href="#w" x="315.23" y="230.131"/><use xlink:href="#ah" x="323.077" y="230.131"/><use xlink:href="#B" x="324.873" y="230.131"/><use xlink:href="#ai" x="327.751" y="230.131"/><use xlink:href="#ai" x="334.229" y="230.131"/><use xlink:href="#aj" x="340.708" y="230.131"/><use xlink:href="#ak" x="345.809" y="230.131"/><use xlink:href="#B" x="350.683" y="230.131"/><use xlink:href="#t" x="353.56" y="230.131"/><use xlink:href="#s" x="361.408" y="230.131"/><use xlink:href="#B" x="369.255" y="230.131"/><use xlink:href="#al" x="372.132" y="230.131"/><use xlink:href="#am" x="379.98" y="230.131"/></g><g fill="#33459a"><use xlink:href="#n" x="79.274" y="261.401"/><use xlink:href="#o" x="84" y="261.401"/><use xlink:href="#o" x="88.726" y="261.401"/><use xlink:href="#an" x="93.451" y="261.401"/><use xlink:href="#q" x="98.177" y="261.401"/></g><g fill="#231f20"><use xlink:href="#r" x="123.865" y="254.409"/><use xlink:href="#ao" x="131.713" y="254.409"/><use xlink:href="#ap" x="136.186" y="254.409"/><use xlink:href="#B" x="142.001" y="254.409"/><use xlink:href="#aq" x="144.879" y="254.409"/><use xlink:href="#ar" x="152.726" y="254.409"/><use xlink:href="#s" x="160.574" y="254.409"/><use xlink:href="#t" x="168.421" y="254.409"/><use xlink:href="#s" x="176.269" y="254.409"/><use xlink:href="#B" x="184.116" y="254.409"/><use xlink:href="#D" x="186.993" y="254.409"/><use xlink:href="#E" x="194.841" y="254.409"/><use xlink:href="#as" x="202.688" y="254.409"/><use xlink:href="#at" x="210.536" y="254.409"/><use xlink:href="#au" x="218.383" y="254.409"/><use xlink:href="#B" x="226.231" y="254.409"/><use xlink:href="#av" x="229.108" y="254.409"/><use xlink:href="#aw" x="236.956" y="254.409"/><use xlink:href="#B" x="244.803" y="254.409"/><use xlink:href="#H" x="247.68" y="254.409"/><use xlink:href="#I" x="255.528" y="254.409"/><use xlink:href="#B" x="263.375" y="254.409"/><use xlink:href="#ax" x="266.253" y="254.409"/><use xlink:href="#B" x="274.1" y="254.409"/><use xlink:href="#ay" x="276.978" y="254.409"/><use xlink:href="#az" x="284.825" y="254.409"/><use xlink:href="#aA" x="292.673" y="254.409"/><use xlink:href="#B" x="300.52" y="254.409"/><use xlink:href="#s" x="303.397" y="254.409"/><use xlink:href="#au" x="311.245" y="254.409"/><use xlink:href="#B" x="319.092" y="254.409"/><use xlink:href="#aB" x="321.97" y="254.409"/><use xlink:href="#aC" x="329.817" y="254.409"/><use xlink:href="#B" x="337.665" y="254.409"/><use xlink:href="#aD" x="340.542" y="254.409"/><use xlink:href="#ai" x="342.696" y="254.409"/><use xlink:href="#aE" x="349.174" y="254.409"/><use xlink:href="#W" x="355.034" y="254.409"/><use xlink:href="#aF" x="360.431" y="254.409"/><use xlink:href="#B" x="362.524" y="254.409"/><use xlink:href="#aG" x="365.401" y="254.409"/><use xlink:href="#aH" x="373.248" y="254.409"/></g><g fill="#231f20"><use xlink:href="#r" x="123.865" y="268.392"/><use xlink:href="#au" x="131.713" y="268.392"/><use xlink:href="#aI" x="139.56" y="268.392"/><use xlink:href="#aJ" x="144.286" y="268.392"/><use xlink:href="#B" x="152.133" y="268.392"/><use xlink:href="#aK" x="155.011" y="268.392"/><use xlink:href="#aL" x="162.858" y="268.392"/><use xlink:href="#aM" x="170.706" y="268.392"/><use xlink:href="#t" x="178.553" y="268.392"/><use xlink:href="#ay" x="186.401" y="268.392"/><use xlink:href="#B" x="194.248" y="268.392"/><use xlink:href="#aN" x="197.125" y="268.392"/><use xlink:href="#ay" x="204.973" y="268.392"/><use xlink:href="#B" x="212.82" y="268.392"/><use xlink:href="#aO" x="215.698" y="268.392"/><use xlink:href="#ay" x="223.545" y="268.392"/><use xlink:href="#aP" x="231.393" y="268.392"/><use xlink:href="#B" x="235.229" y="268.392"/><use xlink:href="#aQ" x="238.107" y="268.392"/><use xlink:href="#aR" x="245.954" y="268.392"/><use xlink:href="#aO" x="253.801" y="268.392"/><use xlink:href="#B" x="261.649" y="268.392"/><use xlink:href="#aS" x="264.526" y="268.392"/><use xlink:href="#aO" x="272.374" y="268.392"/></g><g fill="#33459a"><use xlink:href="#n" x="79.274" y="299.661"/><use xlink:href="#o" x="84" y="299.661"/><use xlink:href="#o" x="88.726" y="299.661"/><use xlink:href="#aT" x="93.451" y="299.661"/><use xlink:href="#q" x="98.177" y="299.661"/></g><g fill="#231f20"><use xlink:href="#r" x="123.865" y="292.67"/><use xlink:href="#aU" x="131.713" y="292.67"/><use xlink:href="#aw" x="139.56" y="292.67"/><use xlink:href="#aV" x="147.407" y="292.67"/><use xlink:href="#aW" x="155.255" y="292.67"/><use xlink:href="#aX" x="163.102" y="292.67"/><use xlink:href="#aY" x="170.95" y="292.67"/><use xlink:href="#B" x="178.797" y="292.67"/><use xlink:href="#aZ" x="181.675" y="292.67"/><use xlink:href="#aB" x="189.522" y="292.67"/><use xlink:href="#ba" x="197.37" y="292.67"/><use xlink:href="#M" x="205.217" y="292.67"/><use xlink:href="#bb" x="213.064" y="292.67"/><use xlink:href="#B" x="220.912" y="292.67"/><use xlink:href="#bc" x="223.789" y="292.67"/><use xlink:href="#bd" x="231.637" y="292.67"/><use xlink:href="#be" x="239.484" y="292.67"/><use xlink:href="#aB" x="247.332" y="292.67"/><use xlink:href="#B" x="255.179" y="292.67"/><use xlink:href="#ao" x="258.057" y="292.67"/><use xlink:href="#U" x="262.53" y="292.67"/><use xlink:href="#X" x="266.959" y="292.67"/><use xlink:href="#bf" x="271.511" y="292.67"/><use xlink:href="#aa" x="275.801" y="292.67"/><use xlink:href="#ab" x="280.247" y="292.67"/><use xlink:href="#M" x="281.948" y="292.67"/><use xlink:href="#bg" x="289.795" y="292.67"/><use xlink:href="#B" x="297.643" y="292.67"/><use xlink:href="#aB" x="300.52" y="292.67"/><use xlink:href="#bh" x="308.367" y="292.67"/></g><g fill="#231f20"><use xlink:href="#r" x="123.865" y="306.653"/><use xlink:href="#x" x="131.713" y="306.653"/><use xlink:href="#bi" x="139.56" y="306.653"/><use xlink:href="#bj" x="147.407" y="306.653"/><use xlink:href="#M" x="155.255" y="306.653"/><use xlink:href="#A" x="163.102" y="306.653"/><use xlink:href="#M" x="170.95" y="306.653"/><use xlink:href="#w" x="178.797" y="306.653"/><use xlink:href="#B" x="186.645" y="306.653"/><use xlink:href="#bk" x="189.522" y="306.653"/><use xlink:href="#z" x="197.37" y="306.653"/><use xlink:href="#bl" x="205.217" y="306.653"/><use xlink:href="#B" x="213.064" y="306.653"/><use xlink:href="#D" x="215.942" y="306.653"/><use xlink:href="#E" x="223.789" y="306.653"/><use xlink:href="#as" x="231.637" y="306.653"/><use xlink:href="#at" x="239.484" y="306.653"/><use xlink:href="#B" x="247.332" y="306.653"/><use xlink:href="#H" x="250.209" y="306.653"/><use xlink:href="#I" x="258.057" y="306.653"/><use xlink:href="#bm" x="265.904" y="306.653"/><use xlink:href="#bn" x="273.751" y="306.653"/><use xlink:href="#bo" x="281.599" y="306.653"/><use xlink:href="#bp" x="289.446" y="306.653"/><use xlink:href="#bq" x="297.294" y="306.653"/><use xlink:href="#br" x="305.141" y="306.653"/><use xlink:href="#bs" x="312.989" y="306.653"/><use xlink:href="#B" x="320.836" y="306.653"/><use xlink:href="#K" x="323.714" y="306.653"/><use xlink:href="#w" x="331.561" y="306.653"/><use xlink:href="#B" x="339.408" y="306.653"/><use xlink:href="#ax" x="342.286" y="306.653"/><use xlink:href="#B" x="350.133" y="306.653"/><use xlink:href="#bt" x="353.011" y="306.653"/><use xlink:href="#bu" x="360.858" y="306.653"/></g><g fill="#33459a"><use xlink:href="#n" x="79.274" y="337.922"/><use xlink:href="#o" x="84" y="337.922"/><use xlink:href="#o" x="88.726" y="337.922"/><use xlink:href="#bv" x="93.451" y="337.922"/><use xlink:href="#q" x="98.177" y="337.922"/></g><g fill="#231f20"><use xlink:href="#r" x="123.865" y="330.93"/><use xlink:href="#au" x="131.713" y="330.93"/><use xlink:href="#aI" x="139.56" y="330.93"/><use xlink:href="#aJ" x="144.286" y="330.93"/><use xlink:href="#B" x="152.133" y="330.93"/><use xlink:href="#H" x="155.011" y="330.93"/><use xlink:href="#bw" x="162.858" y="330.93"/><use xlink:href="#t" x="170.706" y="330.93"/><use xlink:href="#v" x="178.553" y="330.93"/><use xlink:href="#ay" x="186.401" y="330.93"/><use xlink:href="#B" x="194.248" y="330.93"/><use xlink:href="#aP" x="197.125" y="330.93"/><use xlink:href="#B" x="200.962" y="330.93"/><use xlink:href="#bx" x="203.839" y="330.93"/><use xlink:href="#al" x="211.687" y="330.93"/><use xlink:href="#by" x="219.534" y="330.93"/><use xlink:href="#B" x="227.382" y="330.93"/><use xlink:href="#aS" x="230.259" y="330.93"/><use xlink:href="#aO" x="238.107" y="330.93"/></g><g fill="#231f20"><use xlink:href="#r" x="123.865" y="344.913"/><use xlink:href="#bz" x="131.713" y="344.913"/><use xlink:href="#bA" x="139.56" y="344.913"/><use xlink:href="#aM" x="147.407" y="344.913"/><use xlink:href="#t" x="155.255" y="344.913"/><use xlink:href="#ay" x="163.102" y="344.913"/><use xlink:href="#B" x="170.95" y="344.913"/><use xlink:href="#bB" x="173.827" y="344.913"/><use xlink:href="#bC" x="181.675" y="344.913"/><use xlink:href="#B" x="189.522" y="344.913"/><use xlink:href="#H" x="192.399" y="344.913"/><use xlink:href="#I" x="200.247" y="344.913"/><use xlink:href="#bD" x="208.094" y="344.913"/><use xlink:href="#ay" x="215.942" y="344.913"/><use xlink:href="#B" x="223.789" y="344.913"/><use xlink:href="#bE" x="226.667" y="344.913"/><use xlink:href="#ay" x="234.514" y="344.913"/><use xlink:href="#A" x="242.362" y="344.913"/><use xlink:href="#bF" x="250.209" y="344.913"/><use xlink:href="#B" x="258.057" y="344.913"/><use xlink:href="#aP" x="260.934" y="344.913"/><use xlink:href="#B" x="264.77" y="344.913"/><use xlink:href="#bw" x="267.648" y="344.913"/><use xlink:href="#bG" x="275.495" y="344.913"/><use xlink:href="#aZ" x="283.343" y="344.913"/><use xlink:href="#B" x="291.19" y="344.913"/><use xlink:href="#aS" x="294.068" y="344.913"/><use xlink:href="#aO" x="301.915" y="344.913"/></g><g fill="#33459a"><use xlink:href="#n" x="79.274" y="376.182"/><use xlink:href="#o" x="84" y="376.182"/><use xlink:href="#o" x="88.726" y="376.182"/><use xlink:href="#bH" x="93.451" y="376.182"/><use xlink:href="#q" x="98.177" y="376.182"/></g><g fill="#231f20"><use xlink:href="#r" x="123.865" y="369.191"/><use xlink:href="#s" x="131.713" y="369.191"/><use xlink:href="#t" x="139.56" y="369.191"/><use xlink:href="#u" x="147.407" y="369.191"/><use xlink:href="#v" x="155.255" y="369.191"/><use xlink:href="#A" x="163.102" y="369.191"/><use xlink:href="#M" x="170.95" y="369.191"/><use xlink:href="#w" x="178.797" y="369.191"/><use xlink:href="#B" x="186.645" y="369.191"/><use xlink:href="#bI" x="189.522" y="369.191"/><use xlink:href="#bJ" x="197.37" y="369.191"/><use xlink:href="#M" x="205.217" y="369.191"/><use xlink:href="#w" x="213.064" y="369.191"/><use xlink:href="#H" x="220.912" y="369.191"/><use xlink:href="#I" x="228.759" y="369.191"/><use xlink:href="#bK" x="236.607" y="369.191"/><use xlink:href="#B" x="244.454" y="369.191"/><use xlink:href="#K" x="247.332" y="369.191"/><use xlink:href="#w" x="255.179" y="369.191"/></g><g fill="#231f20"><use xlink:href="#r" x="123.865" y="383.174"/><use xlink:href="#bL" x="131.713" y="383.174"/><use xlink:href="#bM" x="139.56" y="383.174"/><use xlink:href="#bN" x="147.407" y="383.174"/><use xlink:href="#B" x="155.255" y="383.174"/><use xlink:href="#H" x="158.132" y="383.174"/><use xlink:href="#I" x="165.98" y="383.174"/><use xlink:href="#B" x="173.827" y="383.174"/><use xlink:href="#bc" x="176.705" y="383.174"/><use xlink:href="#bd" x="184.552" y="383.174"/><use xlink:href="#B" x="192.399" y="383.174"/><use xlink:href="#aH" x="195.277" y="383.174"/><use xlink:href="#s" x="203.124" y="383.174"/><use xlink:href="#B" x="210.972" y="383.174"/><use xlink:href="#ao" x="213.849" y="383.174"/><use xlink:href="#U" x="218.322" y="383.174"/><use xlink:href="#X" x="222.752" y="383.174"/><use xlink:href="#bf" x="227.303" y="383.174"/><use xlink:href="#aa" x="231.593" y="383.174"/><use xlink:href="#ab" x="236.04" y="383.174"/><use xlink:href="#M" x="237.74" y="383.174"/><use xlink:href="#bg" x="245.588" y="383.174"/><use xlink:href="#B" x="253.435" y="383.174"/><use xlink:href="#aB" x="256.313" y="383.174"/><use xlink:href="#bh" x="264.16" y="383.174"/></g><g fill="#33459a"><use xlink:href="#n" x="79.274" y="407.451"/><use xlink:href="#o" x="84" y="407.451"/><use xlink:href="#o" x="88.726" y="407.451"/><use xlink:href="#bO" x="93.451" y="407.451"/><use xlink:href="#q" x="98.177" y="407.451"/></g><g fill="#231f20"><use xlink:href="#r" x="123.865" y="407.451"/><use xlink:href="#bn" x="131.713" y="407.451"/><use xlink:href="#bP" x="139.56" y="407.451"/><use xlink:href="#bQ" x="147.407" y="407.451"/><use xlink:href="#bR" x="155.255" y="407.451"/><use xlink:href="#bS" x="163.102" y="407.451"/><use xlink:href="#B" x="170.95" y="407.451"/><use xlink:href="#D" x="173.827" y="407.451"/><use xlink:href="#E" x="181.675" y="407.451"/><use xlink:href="#as" x="189.522" y="407.451"/><use xlink:href="#at" x="197.37" y="407.451"/><use xlink:href="#bb" x="205.217" y="407.451"/><use xlink:href="#B" x="213.064" y="407.451"/><use xlink:href="#bL" x="215.942" y="407.451"/><use xlink:href="#bM" x="223.789" y="407.451"/><use xlink:href="#bN" x="231.637" y="407.451"/><use xlink:href="#B" x="239.484" y="407.451"/><use xlink:href="#H" x="242.362" y="407.451"/><use xlink:href="#I" x="250.209" y="407.451"/><use xlink:href="#B" x="258.057" y="407.451"/><use xlink:href="#bT" x="260.934" y="407.451"/><use xlink:href="#bU" x="268.781" y="407.451"/></g><g fill="#33459a"><use xlink:href="#bV" x="76.442" y="113.087"/><use xlink:href="#bV" x="80.409" y="113.087"/><use xlink:href="#bW" x="84.375" y="113.087"/><use xlink:href="#bX" x="96.046" y="113.087"/><use xlink:href="#bY" x="105.648" y="113.087"/><use xlink:href="#bZ" x="110.942" y="113.087"/><use xlink:href="#ca" x="117.205" y="113.087"/><use xlink:href="#cb" x="134.284" y="113.087"/><use xlink:href="#cc" x="151.363" y="113.087"/><use xlink:href="#cd" x="168.443" y="113.087"/><use xlink:href="#ce" x="185.522" y="113.087"/><use xlink:href="#cf" x="202.601" y="113.087"/><use xlink:href="#cg" x="219.68" y="113.087"/><use xlink:href="#bZ" x="236.759" y="113.087"/><use xlink:href="#ch" x="243.022" y="113.087"/><use xlink:href="#ci" x="260.101" y="113.087"/><use xlink:href="#cj" x="277.18" y="113.087"/><use xlink:href="#bZ" x="294.26" y="113.087"/><use xlink:href="#ck" x="300.522" y="113.087"/><use xlink:href="#cl" x="317.601" y="113.087"/><use xlink:href="#cm" x="334.68" y="113.087"/><use xlink:href="#bZ" x="351.76" y="113.087"/><use xlink:href="#ck" x="358.022" y="113.087"/><use xlink:href="#cn" x="375.101" y="113.087"/></g></svg>