<svg xmlns="http://www.w3.org/2000/svg" xmlns:xlink="http://www.w3.org/1999/xlink" width="793.701" height="1058.268" viewBox="0 0 595.276 793.701" version="1.2"><defs><clipPath id="i"><path d="M0 410h594.555v2H0zm0 0"/></clipPath><symbol overflow="visible" id="a"><path d="M2.875.031c.434 0 .82-.144 1.156-.437.332-.301.594-.64.782-1.016.183-.34.316-.71.39-1.11.082-.402.125-.804.125-1.202 0-.403-.05-.813-.14-1.22a4.843 4.843 0 0 0-.407-1.155A3.031 3.031 0 0 0 4-7.063a1.747 1.747 0 0 0-1.14-.421c-.844 0-1.473.457-1.876 1.359-.406.906-.609 1.707-.609 2.39 0 .712.203 1.52.61 2.422C1.386-.413 2.02.032 2.874.032zm0-.281c-.75 0-1.227-.441-1.422-1.328-.2-.895-.297-1.613-.297-2.156 0-.54.098-1.254.297-2.141.195-.895.672-1.344 1.422-1.344.363 0 .648.137.86.407.206.273.363.566.468.875.113.343.195.71.25 1.093.059.387.094.758.094 1.11 0 .324-.035.675-.094 1.046a9.33 9.33 0 0 1-.203 1.016c-.094.336-.254.66-.469.969-.21.305-.511.453-.906.453zm0 0"/></symbol><symbol overflow="visible" id="b"><path d="M3.422-7.313a.124.124 0 0 0-.031-.078.119.119 0 0 0-.079-.062.133.133 0 0 0-.078 0 .589.589 0 0 0-.078.047l-1.844.828a.934.934 0 0 0-.218.078c-.086.043-.125.102-.125.172 0 .043.008.082.031.11a.143.143 0 0 0 .094.03c.05 0 .113-.015.187-.046.07-.028.133-.051.188-.063l.687-.312c.051-.02.102-.04.156-.063a.364.364 0 0 1 .172-.047c.07 0 .118.024.141.063.02.043.031.097.031.156v5.078c0 .367-.043.617-.125.75-.074.125-.316.188-.719.188-.25 0-.414.011-.484.03-.074.013-.11.052-.11.11 0 .063.016.106.048.125.027.024.082.032.156.032h3.094c.058 0 .109-.008.14-.032.028-.02.047-.054.047-.11 0-.058-.02-.1-.047-.124a.278.278 0 0 0-.14-.031h-.329c-.375 0-.601-.079-.671-.235-.063-.164-.094-.41-.094-.734zm0 0"/></symbol><symbol overflow="visible" id="c"><path d="M1.828-3.625c-.375.18-.726.383-1.047.61-.324.23-.484.59-.484 1.078 0 .292.078.57.234.828.164.25.36.46.578.625.239.18.493.308.766.39.27.086.555.125.86.125.34 0 .68-.05 1.015-.156.332-.102.629-.266.89-.484a2.03 2.03 0 0 0 .532-.72 2.01 2.01 0 0 0 .203-.874c0-.527-.2-.957-.594-1.281a2.944 2.944 0 0 0-1.265-.657l.328-.171c.332-.153.633-.329.906-.516.277-.195.422-.508.422-.938 0-.59-.242-1.023-.719-1.296a2.967 2.967 0 0 0-1.5-.422c-.281 0-.566.043-.844.125-.28.074-.539.199-.765.375a2.03 2.03 0 0 0-.563.625c-.148.261-.219.539-.219.828 0 .492.16.87.485 1.14.32.274.695.489 1.125.641zm1.328-.672c-.094 0-.242-.031-.437-.094a3.164 3.164 0 0 1-.438-.156 2.052 2.052 0 0 1-.703-.516 1.21 1.21 0 0 1-.297-.828c0-.183.04-.367.125-.546.09-.184.207-.336.344-.454.152-.132.328-.234.516-.296.183-.06.379-.094.578-.094.445 0 .828.144 1.14.422.32.273.485.644.485 1.109 0 .242-.059.465-.172.672-.106.21-.262.383-.469.516a2.53 2.53 0 0 1-.328.171.968.968 0 0 1-.344.094zm-.328 4.11c-.242 0-.473-.032-.687-.094a1.445 1.445 0 0 1-.594-.375 1.77 1.77 0 0 1-.36-.547 1.608 1.608 0 0 1-.125-.625c0-.352.083-.656.25-.906.165-.246.391-.47.672-.657.051-.039.141-.093.266-.156a.764.764 0 0 1 .297-.094c.09 0 .27.051.531.141.27.094.445.168.531.219.278.136.516.324.704.562.195.242.296.528.296.86 0 .199-.039.394-.109.578a2.04 2.04 0 0 1-.297.515c-.18.22-.387.371-.625.454a2.13 2.13 0 0 1-.75.124zm0 0"/></symbol><symbol overflow="visible" id="d"><path d="M5.422-5.844V.453h.797v-6.297zm-3.563 0V.453h.813v-6.297zm1.782 0V.453h.812v-6.297zm0 0"/></symbol><symbol overflow="visible" id="e"><path d="M.75.047v1.016h1.031V.046zm0 0"/></symbol><symbol overflow="visible" id="g"><path d="M4.453-5.328v-.234H6.86v-.641H1.203v.64H3.61v.235c0 .703-.343 1.266-.859 1.703-.563.484-1.36.828-2.203 1.063.25.203.422.39.578.578.61-.204 1.234-.5 1.75-.86s.938-.781 1.156-1.312c.235.547.735 1.031 1.313 1.406.515.344 1.093.61 1.578.75l.562-.563c-.75-.187-1.53-.562-2.125-1.062-.53-.453-.906-1.031-.906-1.703zM7.781.359v-.64H4.406v-1.953h-.765v1.953H.28v.64zm0 0"/></symbol><symbol overflow="visible" id="h"><path d="M7.234-1.813v-4.812h-.75v4.813zM7.22 1.422v-2.844H1.78v.64h4.672v2.204zM3.39-5.36v-.266h1.671v-.64H.923v.64h1.703v.25c0 .625-.203 1.14-.547 1.578C1.641-3.25 1-2.859.281-2.562c.219.156.516.374.64.5.47-.22.907-.5 1.282-.86.344-.297.64-.687.813-1.125.234.438.562.781.937 1.063.39.296.797.515 1.156.671.125-.156.329-.359.516-.53C5-3.048 4.422-3.392 4-3.86c-.375-.422-.61-.907-.61-1.5zm0 0"/></symbol><symbol overflow="visible" id="j"><path d="M1.516-6.063l5.578 3.375L1.516.688zm0 0"/></symbol><symbol overflow="visible" id="k"><path d="M4.094-4.125a51.161 51.161 0 0 1 1.625 1.64c.515.563.968.313.765-.234-.046-.11-.375-.75-.687-1-.25-.172-.281-.047-.578-.219-.125-.062-.407-.312-.735-.624.391-.422.797-.97 1.172-1.485.282-.406.625-.86.14-1.031-.124-.031-.937-.078-1.155.031-.297.156-1 .172-1.813.172-.484 0-.89-.047-1.031-.063-.625-.078-.766.172-.297.438.953.531 1.156.375 1.438.234.015 0 .25-.046.484-.078.312-.015.672-.078 1.187-.11C3.625-4.562 1.875-2.874.766-2.28c-.25.125-.157.469.609.187.672-.25 1.719-.984 2.719-2.031zm3.656-.922c-.656.031-1.438.063-1.86 0-.843-.078-.577.297-.327.438 1.125.578 1.296.296 1.484.25.016-.016.297-.11.547-.141 0 0 .078-.016.156-.016l.016 2.61c.015.781.046 1.484.359 1.484.344-.016.64-.828.64-2l-.03-4.734c0-.532.25-.844-.172-1-.297-.11-1.141-.235-1.297-.25-.704-.047-.72.281-.297.469.547.218.75.328.75.78zM9.14.5C8.782.453 8.157.469 7.938.61c-.218.156-.53.171-.78.171L5.311.797c-.187 0-.359-.094-.359-.297V-.828c0-.39.234-.672-.328-.75-.313-.031-.906-.063-1.234-.031-.938.093-.485.406-.172.484.469.078.64.188.64.547V.5c0 .703.547.828 1.125.828l4.063-.047c.719 0 .89-.593.094-.781zm0 0"/></symbol><symbol overflow="visible" id="l"><path d="M8.328.5c-.36-.047-.984-.031-1.203.11-.219.156-.531.171-.781.171L4.047.797c-.172 0-.344-.094-.344-.297V-.547c0-.39.235-.672-.328-.75a6.595 6.595 0 0 0-1.25-.047c-.922.11-.484.422-.156.485.468.093.64.187.64.562V.5c0 .703.547.828 1.125.828l4.5-.047c.72 0 .891-.593.094-.781zM6.156-2.531l.016 1c.016.797.047 1.5.36 1.484.343-.015.64-.828.64-2v-.484c.703 0 1.328 0 1.781.031.625.047 1.266.031 1.281-.36.032-.515-1.53-.562-2.437-.25-.344.126-2.125.094-2.61.094H2.829c-1.031 0-1.437-.078-2.078-.109-.625-.031-.953.219-.266.516 1.797.796 1.844.265 2.5.203.016 0 .266-.047.985-.078v.843c.015.797.047 1.5.375 1.485.328-.016.625-.828.625-2v-.36c.172-.015.39-.015.578-.015zm.547-3.266c0 .734-.656 1.313-1.375 1.313s-1.375-.579-1.375-1.313.656-1.328 1.375-1.328 1.375.594 1.375 1.328zm1.078-.016c0-1.5-1.843-1.78-1.843-1.796-.016-.22.171-.204 0-.391-.188-.219-1.266-.313-1.282.031 0 .078.36.11.125.328 0 .047-1.922.313-1.922 1.829 0 1.218 1.297 2 2.47 2 1.202 0 2.452-.782 2.452-2zm0 0"/></symbol><symbol overflow="visible" id="m"><path d="M3.547-5.89c.312-.016.515-.063 1.047-.094-1 1.562-2.516 2.656-3.782 3.296-.234.11-.109.422.594.204.828-.266 2.016-.97 2.828-1.72.532.485 1.22 1.095 1.407 1.266.562.532 1.03.22.875-.156-.079-.203-.422-.75-.672-.984-.172-.14-.328-.047-.578-.188-.172-.093-.329-.156-.594-.375.36-.359.61-.625 1-1.109.312-.39.531-.734.156-.86-.11-.03-.953-.093-1.187.032-.282.14-.954.156-1.766.156-.422 0-.922-.047-1.078-.062-.61-.079-.75.156-.266.437 1.078.625 1.266.375 1.563.266.015 0 .219-.078.453-.11zm1.25-1.235c.703-.031.875-.656-.125-.703-.766-.031-1.14-.063-1.688-.156-.53-.094-.812.093-.437.39.453.328.75.469 1.015.5.376.016.704.016 1.235-.031zm.047 8.578l4.031-.031c.734 0 .906-.594.094-.75C8.625.609 7.984.64 7.75.766c-.219.125-.516.14-.781.14L5.125.937c-.188 0-.36-.109-.36-.312L4.75-.219c.516 0 2.89-.015 3.547-.015.406 0 .547-.11.547-.313 0-.187-.25-.203-.375-.219l.25-1.03c.062-.235.39-.5-.063-.657-.328-.125-.984-.078-1.203.047-.187.125-2.516.078-2.625.078-.484 0-.875-.047-1.297-.094-.547-.047-.578.219-.36.344 1.142.719 1.392.422 1.61.344.016 0 .266-.079.516-.094.281-.031 1.86-.031 2.281-.031L7.531-.766c-.484.016-2.593.047-2.765.032a5.228 5.228 0 0 0-1.391-.11c-.64.094-.656.328-.11.469.297.063.422.172.422.39l.016.688c0 .703.563.75 1.14.75zm2.984-6.61c-.64.032-1.469.063-1.922 0-.843-.077-.578.298-.312.438 1.125.578 1.297.297 1.484.25 0-.015.281-.11.547-.14.016-.016.094-.016.219-.032l.015.625c0 .782.079 1.329.344 1.313.297-.016.64-.64.64-1.781l-.03-2.672c0-.532.25-.844-.172-1-.297-.11-1.141-.235-1.297-.25-.703-.047-.719.281-.297.469.547.218.75.328.75.78zm0 0"/></symbol><symbol overflow="visible" id="O"><path d="M7.64-7.156l.048 3.25c.015.797.078 1.36.359 1.344.297-.016.625-.672.625-1.813L8.64-7.156c0-.532.25-.844-.157-1-.296-.11-1.14-.235-1.296-.25-.72-.047-.735.281-.297.469.53.218.75.328.75.78zm-1.827.078c-.125-.016-.875-.078-1.125.031-.282.14-1.141.156-1.97.156-.468 0-.921-.046-1.093-.062-.61-.063-.734.14-.25.437.984.61 1.156.297 1.453.235 0 0 .266-.078.485-.094.312 0 .843-.078 1.39-.11-.969 2.032-2.875 3.75-3.922 4.282-.297.156.016.437.672.156 1.234-.5 3.11-2.078 4.219-4.015.203-.329.703-.875.14-1.016zm1.609 5.39L7.39.672H4.609l-.046-2.36zM8.688.922c0-.156-.282-.235-.422-.25l.25-2.203c.03-.282.53-.532 0-.766-.36-.156-.907-.062-1.22.016-.171.078-2.484.078-2.609.078-.187 0-.625-.156-1.312-.125-.563.015-.797.39-.531.453.36.094.61.14.625.406l.172 2.547c.015.422.218.64.453.64.156 0 .437-.218.484-.484.375 0 2.281-.03 3.594-.03.312 0 .515-.095.515-.282zm0 0"/></symbol><symbol overflow="visible" id="P"><path d="M5.266-5.203c1.078.312 2.765.828 3.03.922.767.218 1.032-.172.813-.422-.171-.203-.625-.453-1-.547-.421-.11-.468.016-.78-.016a21.062 21.062 0 0 1-1.407-.328c.5-.281 1.047-.703 1.531-1.078.625-.516.766-.89.188-1.047-.141-.031-.922-.078-1.157.047-.28.125-2.171.156-2.984.156-.484 0-.875-.03-1.031-.046-.625-.063-.75.187-.297.453.937.53 1.156.359 1.437.25.016 0 .25-.079.485-.11.297-.015 1.562-.078 2.218-.093C5-5.798 2.86-4.672 1.345-4.267c-.266.063-.219.438.531.313 1.156-.188 2.313-.688 3.39-1.25zM8.375.5c-.36-.047-1-.031-1.203.11C6.953.765 6.64.78 6.39.78L4.094.797C3.922.797 3.75.703 3.75.5V-.61c0-.406.219-.671-.328-.75a6.595 6.595 0 0 0-1.25-.046c-.938.093-.485.422-.156.484.468.094.625.188.625.563V.5c0 .703.562.828 1.14.828l4.485-.047c.734 0 .906-.593.109-.781zm-3.39-3.094L5-1.563c.016.797.047 1.5.375 1.485.344-.016.64-.828.64-2v-.531c1.391 0 2.25-.016 2.938.03.625.048 1.266.032 1.281-.358.032-.516-1.53-.563-2.437-.25-.344.14-2.125.093-2.61.093H2.829c-1.031 0-1.437-.062-2.078-.11-.625-.03-.953.22-.266.517 1.797.796 1.844.265 2.5.203.032 0 .657-.094 2-.11zm0 0"/></symbol><symbol overflow="visible" id="Q"><path d="M6.61-5.813c0 .782-.657 1.36-1.391 1.36-.735 0-1.39-.578-1.39-1.36 0-.78.655-1.343 1.39-1.343.734 0 1.39.562 1.39 1.343zm1.093.016c0-1.547-1.875-1.828-1.875-1.844-.016-.203.172-.203 0-.406-.187-.203-1.266-.312-1.281.031 0 .079.36.141.125.36 0 .031-1.938.312-1.938 1.86 0 1.234 1.266 2.03 2.485 2.03 1.234 0 2.484-.796 2.484-2.03zM4.61-2.313l.032 2.25c0 .985.093 1.938.437 1.922.39-.015.688-1.015.672-2.546l-.047-1.657c1.531 0 2.453-.015 3.172.031.61.032 1.234.016 1.266-.359.03-.5-1.516-.562-2.391-.234-.328.11-2.078.078-2.563.078H2.876c-1.094 0-1.39-.063-2.047-.094-.61-.031-.937.203-.25.5 1.719.75 1.766.25 2.453.188.016 0 .516-.063 1.578-.079zm0 0"/></symbol><symbol overflow="visible" id="at"><path d="M4.875-4.063c0 .844-.578 1.485-1.422 1.485-.812 0-1.437-.64-1.437-1.485 0-.859.625-1.5 1.437-1.5.844 0 1.422.641 1.422 1.5zm1.078 0c0-1.687-1.812-2.015-1.906-2.03 0-.22.14-.235.016-.438-.157-.282-1.282-.375-1.282.015 0 .172.297.188.11.422 0 .016-1.954.313-1.954 2.047 0 1.36 1.297 2.172 2.516 2.172 1.203 0 2.5-.813 2.5-2.188zM7.72-7.155l.047 7.093c0 .985.046 1.938.39 1.922.39-.015.64-1.015.625-2.546l-.047-6.47c0-.53.25-.843-.171-1-.297-.109-1.141-.234-1.297-.25-.704-.046-.72.282-.297.47.547.218.75.328.75.78zm0 0"/></symbol><symbol overflow="visible" id="au"><path d="M8.781.094l-.015-1.422c.015-.344.375-.672-.235-.797-.344-.047-.703 0-1.078.11-.344.093-3.453.156-4.328.03-.969-.109-.64.298-.406.423 1.531.812 1.61.25 2.312.218l2.688-.093L7.75.5c.016.625.172 1.266.406 1.25.266 0 .625-.734.625-1.656zM7.86-5.563c-.671.032-1.671.094-2.187.032-.844-.078-.578.281-.313.422 1.125.578 1.297.312 1.485.25.015 0 .281-.11.547-.141.015-.016.28-.016.484-.031l.016 1.406c.015.797.078 1.328.359 1.313.297 0 .64-.641.64-1.782l-.03-3.062c0-.532.25-.844-.172-1-.297-.11-1.141-.235-1.297-.25-.72-.047-.72.281-.297.469.547.218.75.328.75.78zm-4.25.891C4.11-4.203 4.906-3.39 5.313-3c.53.531 1 .313.78-.25-.046-.11-.39-.719-.718-.984-.25-.141-.234-.032-.563-.22-.14-.077-.53-.374-.859-.687.281-.39.61-.921.797-1.28.172-.298.328-.438-.11-.766-.25-.188-.952-.485-1.171-.5-.688-.094-.61.171-.203.437.468.281.421.469.296.75C2.891-4.875 1.641-3.531.688-2.906c-.422.281-.047.547.578.219.921-.47 1.718-1.25 2.343-1.985zm0 0"/></symbol><symbol overflow="visible" id="n"><path d="M4.328-2.39c0-.47-.39-.86-.844-.86-.453 0-.828.39-.828.86 0 .468.375.859.828.859.454 0 .844-.39.844-.86zm0 0"/></symbol><symbol overflow="visible" id="o"><path d="M5 .875V-5.75h-.5v2.234H3.219v.454H4.5V.874zm1.36.344v-7.094h-.5v7.094zM.765-4.938H2v.5c0 .907-.125 1.688-.438 2.375A3.776 3.776 0 0 1 .188-.452c.157.094.391.219.5.312.344-.265.704-.656.985-1.078.266-.422.484-.86.562-1.297.11.422.297.829.547 1.188.25.375.578.703.89.89.095-.109.267-.25.407-.343-.562-.328-.953-.813-1.203-1.438-.234-.562-.36-1.25-.36-2.031v-.688H3.72v-.421H.766zm0 0"/></symbol><symbol overflow="visible" id="p"><path d="M.64-4.016h1.032v4.61h.484v-6.078h-.344c-.093.859-.39 1.171-1.171 1.203zm0 0"/></symbol><symbol overflow="visible" id="q"><path d="M2.688-2.188C2.608-.609 2.233.422 1.625.422 1.109.422.859-.156.828-.594H.344c0 .828.531 1.39 1.281 1.39 1.125 0 1.547-1.562 1.547-3.484 0-1.703-.453-2.828-1.453-2.828-.86 0-1.438.782-1.438 2.063 0 1.344.656 1.906 1.313 1.906.453 0 .843-.219 1.093-.64zm-1 .22c-.594 0-.922-.688-.922-1.579 0-.906.328-1.578.921-1.578.563 0 .938.688.938 1.578 0 .906-.375 1.578-.938 1.578zm0 0"/></symbol><symbol overflow="visible" id="r"><path d="M.89-5.36v4.735c.032 0 .704.016 1.376-.016a17.88 17.88 0 0 0 1.562-.156v-.453c-.297.047-1.094.14-1.484.14l-.969.032v-3.86h1.906v-.421zM6.157 1.22v-7.094h-.5v2.703H4.625V-5.75h-.5V.875h.5v-3.578h1.031v3.922zm0 0"/></symbol><symbol overflow="visible" id="s"><path d="M.719 1.984c.547-.125.765-.53.765-1.203V.047H.688v.765h.437c0 .485-.094.766-.516.938zm0 0"/></symbol><symbol overflow="visible" id="u"><path d="M3.156.594V.172H.796c.079-.656.438-1.297.829-1.594l.469-.39a3.29 3.29 0 0 0 .75-.766c.25-.406.344-.813.344-1.25 0-.953-.454-1.688-1.391-1.688-.984 0-1.438.86-1.453 1.97h.5c-.016-.782.265-1.579.937-1.579.578 0 .907.516.907 1.297 0 .422-.094.75-.282 1.015-.156.235-.36.47-.562.641l-.594.469C.61-1.187.266-.234.266.594zm0 0"/></symbol><symbol overflow="visible" id="v"><path d="M1.734-5.531C.781-5.531.281-4.344.281-2.36c0 1.968.5 3.125 1.453 3.125.97 0 1.454-1.157 1.454-3.125 0-1.985-.5-3.172-1.454-3.172zm0 .406c.625 0 .97 1.063.97 2.766 0 1.687-.345 2.734-.97 2.734-.64 0-.968-1.047-.968-2.734 0-1.704.328-2.766.968-2.766zm0 0"/></symbol><symbol overflow="visible" id="w"><path d="M5.86 1.14v-2.609H1.53v2.61zM5.374.704H2.031V-1.03h3.344zm1.5-4.437v-.438H5.844v-1.703h-.5v4h.5v-1.86zM.765-5.531v.422h2.641a3.15 3.15 0 0 1-.844 1.703C2-2.812 1.204-2.391.345-2.141c.125.11.281.25.375.391 1.015-.344 1.86-.89 2.422-1.64.453-.579.734-1.282.828-2.141zm0 0"/></symbol><symbol overflow="visible" id="x"><path d="M2.64-4.266v-1.28h-.515v1.124c0 .828-.188 1.578-.547 2.234A4.476 4.476 0 0 1 .031-.577a3 3 0 0 1 .485.36c.39-.298.796-.704 1.14-1.173.344-.468.61-.968.719-1.437.203.547.484 1.031.828 1.453.328.36.688.688 1.078.953.094-.11.282-.281.407-.39-.704-.422-1.22-.907-1.563-1.5-.313-.547-.484-1.188-.484-1.954zm2.657-1.609v7.094h.516v-3.844h1.093v-.453H5.813v-2.797zm0 0"/></symbol><symbol overflow="visible" id="y"><path d="M2.766-3.328c1.046 0 1.687-.594 1.687-1.281 0-.672-.625-1.282-1.687-1.282-1.047 0-1.688.61-1.688 1.282 0 .687.64 1.28 1.688 1.28zm.015-.406c-.828 0-1.234-.47-1.234-.875 0-.422.39-.891 1.219-.891.828 0 1.218.469 1.218.89 0 .407-.39.876-1.203.876zM6.187-.406v-5.469h-.5v4.172h-1.75v.406h1.75v.89zm.157 1.453V.625H2.187v-1.36h-.515v1.782zm-.89-4c-.407.078-1.798.203-2.798.203l-2.172.016v.421h1.704v1.22h.484v-1.235c.875 0 2.203-.11 2.781-.188zm0 0"/></symbol><symbol overflow="visible" id="z"><path d="M6.953-3.797v-.437H5.922v-1.641h-.484v4.328h.484v-2.25zM1.453-.03c0 .765.781 1.375 2.344 1.375 1.515 0 2.297-.625 2.297-1.375s-.782-1.375-2.297-1.375c-1.563 0-2.344.656-2.344 1.375zm.516.015c0-.578.718-.984 1.828-.984 1.062 0 1.781.406 1.781.984 0 .516-.719.97-1.781.97-1.11 0-1.828-.423-1.828-.97zM.797-5.109H2.28v.171c0 .657-.203 1.188-.531 1.61-.344.469-.86.812-1.453 1.078.125.094.328.234.437.328a4.39 4.39 0 0 0 1.125-.781c.297-.297.532-.656.672-1.078.188.375.453.687.735.937.359.297.75.516 1.109.703.094-.14.234-.265.36-.375-.516-.187-1.016-.484-1.391-.906-.344-.39-.547-.89-.547-1.5v-.187H4.25v-.422H.797zm0 0"/></symbol><symbol overflow="visible" id="A"><path d="M.953-2.938l.203-2.03h1.766v-.438H.734L.406-2.25l.438.016c.187-.375.484-.61.828-.61.578 0 1 .578 1 1.531 0 .907-.36 1.688-1.016 1.688-.5 0-.89-.422-.906-1.094H.266C.296.156.844.75 1.609.75c1.047 0 1.563-.797 1.563-2.156 0-1.078-.61-1.828-1.39-1.828-.25 0-.61.078-.829.296zm0 0"/></symbol><symbol overflow="visible" id="B"><path d="M6.36 1.219v-7.094h-.5v2.672h-.954V-5.75h-.5V.875h.5V-2.75h.953v3.969zM.765-4.938H2v.5c0 .907-.125 1.688-.438 2.375A3.776 3.776 0 0 1 .188-.452c.157.094.391.219.5.312.344-.265.704-.656.985-1.078.266-.422.484-.86.562-1.297.11.422.297.829.547 1.188.25.375.578.703.89.89.095-.109.267-.25.407-.343-.562-.328-.953-.813-1.203-1.438-.234-.562-.36-1.25-.36-2.031v-.688H3.72v-.421H.766zm0 0"/></symbol><symbol overflow="visible" id="C"><path d="M6.172-1.547V-5.89h-.5v1.657H4.094v.437h1.578v2.25zm-2.234 2.89c1.5 0 2.359-.593 2.359-1.405 0-.813-.86-1.422-2.36-1.422-1.468 0-2.359.609-2.359 1.421 0 .813.89 1.407 2.36 1.407zM2.093-.061c0-.641.812-1 1.844-1 1.046 0 1.859.359 1.859 1 0 .625-.828 1-1.86 1-1.015 0-1.843-.375-1.843-1zM.797-5.11H2.28v.265c0 .657-.203 1.172-.531 1.61-.344.468-.86.812-1.453 1.078.125.094.328.234.437.328.407-.219.813-.469 1.125-.797.297-.297.532-.656.672-1.078.188.39.453.687.735.953.359.297.75.516 1.109.688.094-.141.234-.266.36-.376-.516-.187-1.016-.484-1.391-.906-.344-.39-.547-.89-.547-1.5v-.265H4.25v-.422H.797zm0 0"/></symbol><symbol overflow="visible" id="D"><path d="M6.094-1.563v-4.312h-.5v1.078H4.25v.422h1.344v1.11H4.03v.421h1.563v1.281zM3.859 1.345c1.5 0 2.36-.594 2.36-1.407 0-.812-.86-1.421-2.36-1.421-1.468 0-2.359.609-2.359 1.421 0 .813.89 1.407 2.36 1.407zM2.016-.063c0-.64.828-1 1.843-1 1.047 0 1.86.36 1.86 1 0 .625-.828 1-1.86 1-1.015 0-1.843-.375-1.843-1zM.89-5.53v.422h2.593a2.914 2.914 0 0 1-.89 1.687c-.578.563-1.36.953-2.172 1.188.14.125.297.265.39.39.922-.297 1.72-.781 2.297-1.453.516-.578.844-1.328.938-2.234zm0 0"/></symbol><symbol overflow="visible" id="E"><path d="M5.813-2.578v-3.125h-.5v1H1.64v-1h-.5v3.125zM5.313-3H1.64v-1.297h3.671zm1.39 1.766v-.422H.25v.422h3v2.453h.516v-2.453zm0 0"/></symbol><symbol overflow="visible" id="F"><path d="M6.078 1.063V.625H2v-1.688h-.5v2.125zm.781-4.11v-.437H5.844v-2.391h-.5v5.469h.5v-2.64zm-2.89.094c.156-.64.281-1.703.328-2.61h-3.5v.422H3.78c-.047.61-.156 1.641-.297 2.188zm1.156.578c-.813.125-2.281.219-2.86.219v-1.797h-.484v1.812H.313v.422h.843c2 0 3.25-.125 3.969-.234zm0 0"/></symbol><symbol overflow="visible" id="G"><path d="M.969.125c0 .719.922 1.234 2.5 1.234 1.61 0 2.5-.515 2.5-1.234 0-.703-.89-1.203-2.5-1.203-1.578 0-2.5.5-2.5 1.203zm4.453.016c0 .53-.813.812-1.953.812C2.313.953 1.53.656 1.53.125c0-.578.782-.813 1.938-.813 1.14 0 1.953.266 1.953.829zm-.688-5.625v-.422h-2.53v.422zM1.047-4.406h2.125c-.094.343-.39.625-.813.828-.468.25-1.125.406-1.734.515.125.126.266.297.344.391.547-.11 1.047-.234 1.484-.437.422-.204.781-.485 1.031-.86.282.422.672.703 1.125.89.454.204.938.313 1.36.407.125-.125.218-.25.36-.375-.579-.094-1.204-.25-1.688-.5-.422-.219-.766-.5-.86-.86h2.125v-.421h-4.86zM6.703-1.61v-.422H3.734v-1.016H3.22v1.016H.25v.422zm0 0"/></symbol><symbol overflow="visible" id="H"><path d="M5.25-1.25c-.406.063-1.688.25-2.625.266L1.406-.97v-1.844h2.625v-2.671H.921v.437h2.626v1.813H.922v2.718c.031 0 1 0 1.86-.03A20.467 20.467 0 0 0 5.25-.813zm.313-4.625v7.094h.5v-7.094zm0 0"/></symbol><symbol overflow="visible" id="I"><path d="M2.156.594h.469V-.953h.625v-.406h-.625v-4.157h-.422L.25-1.53v.578h1.906zm0-5.047v3.094h-1.5zm0 0"/></symbol><symbol overflow="visible" id="J"><path d="M3.469 1.36c1.61 0 2.469-.532 2.469-1.266 0-.735-.86-1.282-2.47-1.282C1.892-1.188 1-.655 1 .079c0 .735.89 1.281 2.469 1.281zM1.547.077c0-.547.766-.86 1.922-.86s1.937.298 1.937.876c0 .531-.781.875-1.937.875-1.156 0-1.922-.36-1.922-.89zm5.156-1.781v-.422H3.734v-.813h2.141v-.406h-4.25v-.781h4.188v-.406H1.625v-.766h4.188v-.406H1.14v2.766h2.078v.812H.25v.422zm0 0"/></symbol><symbol overflow="visible" id="K"><path d="M1.297.047c0 .765.89 1.297 2.437 1.297 1.547 0 2.407-.532 2.407-1.297 0-.766-.86-1.313-2.407-1.313-1.546 0-2.437.547-2.437 1.313zm4.328 0c0 .578-.813.906-1.89.906C2.64.953 1.827.61 1.827.047c0-.61.813-.906 1.906-.906 1.079 0 1.891.296 1.891.906zm-.64-2.703c-.579.125-1.907.265-2.563.281l-1.14.016v-1.204h2.546v-2.03H.813v.421h2.53v1.203H.814v2.047c.062 0 .921 0 1.703-.016.75-.03 1.984-.187 2.468-.28zM5.561-4.5v.844H4.234v.422h1.329v1.843h.484v-4.484h-.5v.953H4.234v.422zm0 0"/></symbol><symbol overflow="visible" id="L"><path d="M4.063-.578V-5.5h-.5v1.906h-2.22V-5.5H.86v4.922zm-.5-.438h-2.22v-2.14h2.22zm1.984-4.859v7.094h.5v-7.094zm0 0"/></symbol><symbol overflow="visible" id="M"><path d="M6.078 1.219v-7.094h-.5v2.172H3.922v.453h1.656v4.469zm-3.36-5.485v-1.28h-.515v1.124c0 .828-.187 1.578-.547 2.234A4.476 4.476 0 0 1 .11-.577a3 3 0 0 1 .485.36c.39-.298.812-.704 1.14-1.173.344-.468.61-.968.72-1.437.202.547.468 1.031.827 1.453.328.36.688.688 1.078.953.094-.11.282-.281.407-.39-.704-.422-1.22-.907-1.563-1.5C2.891-2.86 2.72-3.5 2.72-4.266zm0 0"/></symbol><symbol overflow="visible" id="N"><path d="M6.266 1.125V.703H2.109v-.828h3.985v-1.672H1.609v.422h3.97v.813h-3.97v1.687zm-.672-7v3.719h.5v-3.719zm-2.875.813v-.657h-.516v.625c0 .657-.234 1.172-.578 1.563-.375.39-.86.687-1.406.89.125.094.328.266.437.36A4.91 4.91 0 0 0 1.75-3c.297-.281.547-.594.703-1.016.219.407.516.704.844.954.328.234.672.39 1 .546.094-.125.219-.28.36-.406a3.14 3.14 0 0 1-1.376-.781 1.871 1.871 0 0 1-.562-1.36zm0 0"/></symbol><symbol overflow="visible" id="R"><path d="M6.094 1.14v-2.874h-.5v.921H2.109v-.921h-.5V1.14zm-.5-.421H2.109V-.406h3.485zm-1.64-3.125V-4h1.64v1.922h.5v-3.797h-.5v1.438h-1.64V-5.61h-.47v1.125H1.313V-5.61h-.47v3.203zm-.47-.422H1.313v-1.235h2.171zm0 0"/></symbol><symbol overflow="visible" id="S"><path d="M5.813-2.938v-2.656H1.14v2.657zm-.5-.421H1.64v-1.813h3.671zm1.39 1.968v-.437H.25v.437h3v2.61h.516v-2.61zm0 0"/></symbol><symbol overflow="visible" id="T"><path d="M6.313 1.063V.625H2.125V-1.25h-.5v2.313zM2.358-2.063c1.047 0 1.797-.829 1.797-1.844 0-1.031-.75-1.86-1.797-1.86-1.062 0-1.796.829-1.796 1.86 0 1.015.734 1.844 1.796 1.844zm0-.454c-.812 0-1.28-.609-1.28-1.39 0-.797.468-1.422 1.28-1.422.829 0 1.282.625 1.282 1.422 0 .781-.454 1.39-1.282 1.39zm3.235-3.359v5.266h.5v-5.266zm0 0"/></symbol><symbol overflow="visible" id="U"><path d="M6.047-1.594v-4.281h-.5v1.64H3.5v.438h2.063v2.203zm0 2.86v-2.47H1.453v.423h4.094v2.047zM1.328-5.11H4v-.422H.844v3.406c.062 0 .937 0 1.703-.031.89-.031 1.922-.172 2.437-.281v-.438c-.484.11-1.78.266-2.593.281l-1.063.016zm0 0"/></symbol><symbol overflow="visible" id="V"><path d="M6.703-1.484v-.422H.25v.422h3v2.703h.516v-2.703zm-2.969-3.86v-.343h-.53v.343c0 .594-.329 1.094-.845 1.469-.484.344-1.125.594-1.796.75.14.11.312.313.39.406a5.21 5.21 0 0 0 1.485-.64A2.952 2.952 0 0 0 3.484-4.5c.204.484.594.86 1.032 1.14A5.024 5.024 0 0 0 6-2.718c.11-.14.219-.297.36-.422-.61-.14-1.298-.39-1.798-.78-.5-.36-.828-.845-.828-1.423zm0 0"/></symbol><symbol overflow="visible" id="W"><path d="M6.281 1.063V.625H2.125v-1.797h-.5v2.234zM3.484-2.454H1.313V-3.86h2.171zm.47-.828v-1.047h1.64v1.047zm1.64.437v2.219h.5v-5.25h-.5v1.125h-1.64v-.86h-.47v1.344H1.313v-1.343h-.47v3.562h3.11v-.797zm0 0"/></symbol><symbol overflow="visible" id="X"><path d="M4.828-5.203v-.453H2.11v.453zm1.266 1.156v-.437H.844v.437zM6.719.266v-.438H3.734v-1.062c1.157-.063 1.907-.516 1.907-1.157 0-.687-.86-1.187-2.172-1.187-1.313 0-2.172.484-2.172 1.187 0 .641.75 1.094 1.922 1.157v1.062H.234v.438zm-3.25-1.891c-.875 0-1.61-.281-1.61-.766 0-.53.735-.78 1.61-.78.89 0 1.61.25 1.61.78 0 .485-.72.766-1.61.766zm0 0"/></symbol><symbol overflow="visible" id="Y"><path d="M6.172-.61v-5.265h-.5v1.656H4.094v.438h1.578V-.61zm.219 1.672V.625H2.203V-1.25h-.5v2.313zM.797-5.109H2.28v.375a2.82 2.82 0 0 1-.531 1.687c-.36.469-.875.844-1.453 1.11.125.093.328.265.437.359.407-.234.782-.5 1.094-.828.313-.328.563-.719.703-1.156.188.39.438.703.735.984.359.328.75.594 1.109.765.094-.14.234-.28.36-.406a3.162 3.162 0 0 1-1.329-.906 2.444 2.444 0 0 1-.61-1.61v-.374H4.25v-.422H.797zm0 0"/></symbol><symbol overflow="visible" id="Z"><path d="M6.281 1.063V.625H2.125v-1.86h-.5v2.298zM3.953-2.235v-3.297H.843v3.297zm-.469-.422H1.313V-5.11h2.171zm2.11-3.219v5.281h.5v-5.281zm0 0"/></symbol><symbol overflow="visible" id="aa"><path d="M6.703-1.375v-.438H.25v.438h3v2.594h.516v-2.594zM1.078-5.172h2.125c0 .563-.297 1.016-.765 1.375-.5.36-1.172.64-1.876.797.141.125.313.281.391.39.547-.156 1.094-.359 1.563-.687.39-.265.734-.61.968-1.078.235.531.672.938 1.172 1.219.438.265.922.437 1.344.547.11-.141.219-.266.36-.407a4.644 4.644 0 0 1-1.688-.687c-.547-.36-.922-.844-.938-1.469h2.141v-.422H1.078zm0 0"/></symbol><symbol overflow="visible" id="ab"><path d="M6.234 1.219v-7.094H5.75v7.094zM3.875-5.297v-.437h-2v.437zm.922 1.156v-.437H.953v.437zM5.516-.75c-.563.094-1.797.14-2.36.156v-.89c.828-.079 1.36-.563 1.36-1.11 0-.594-.672-1.14-1.61-1.14-.953 0-1.61.53-1.61 1.14 0 .563.532 1.047 1.376 1.125v.89H.609v.423h2.313c.969 0 2.047-.11 2.594-.172zm-3.75-1.844c0-.422.484-.734 1.14-.734.672 0 1.125.312 1.125.734 0 .438-.437.719-1.125.719-.656 0-1.14-.281-1.14-.719zm0 0"/></symbol><symbol overflow="visible" id="ac"><path d="M6.703-2.156v-.406H.25v.406zM5.97 1.125v-.39H1.656v-.72h4.157v-1.5H1.14v.407h4.156v.687H1.14v1.516zM1.14-3.172h4.78v-.406h-4.28v-.672H5.75v-1.453H1.14v.39h4.094v.672H1.141zm0 0"/></symbol><symbol overflow="visible" id="ad"><path d="M6.172 1.219v-7.094h-.5v7.094zm-.797-3.344c-.344.063-1.14.125-1.906.156-.844.047-2.828.047-2.938.047v.422h1.86v2.547h.484V-1.5c.75 0 1.969-.125 2.5-.203zM.953-4.235c0 .798.735 1.5 1.781 1.5 1.063 0 1.782-.703 1.782-1.5 0-.796-.72-1.515-1.782-1.515-1.046 0-1.78.719-1.78 1.516zM2.734-3.14c-.843 0-1.296-.546-1.296-1.093 0-.579.453-1.11 1.296-1.11.86 0 1.297.532 1.297 1.11 0 .546-.437 1.093-1.297 1.093zm0 0"/></symbol><symbol overflow="visible" id="ae"><path d="M6.938-3.328v-.438H5.921v-2.109h-.484v5.266h.484v-2.72zm-.766 4.39V.625H2.109V-.969h-.5v2.031zm-2.61-6.515v-.422H1.47v.422zm.985 1.078v-.422H.53v.422zm-2.016.469C1.5-3.906.844-3.36.844-2.703c0 .64.656 1.187 1.687 1.187 1.063 0 1.703-.546 1.703-1.187 0-.656-.625-1.203-1.703-1.203zM1.36-2.72c0-.437.422-.765 1.172-.765.766 0 1.172.328 1.172.765 0 .453-.406.797-1.172.797-.75 0-1.172-.344-1.172-.797zm0 0"/></symbol><symbol overflow="visible" id="af"><path d="M6.719.234v-.421h-3v-1.891h2.078v-3.375h-4.64v3.375h2.062v1.89H.234v.422zM5.297-2.5h-3.64v-2.516h3.64zm0 0"/></symbol><symbol overflow="visible" id="ag"><path d="M6.094 1.14v-2.609H1.625v2.61zm-.5-.437H2.125V-1.03h3.469zM.562-4.016c0 .97.75 1.782 1.797 1.782a1.764 1.764 0 0 0 1.797-1.782c0-.968-.75-1.765-1.797-1.765-1.046 0-1.796.797-1.796 1.765zm.516 0c0-.75.469-1.328 1.281-1.328.829 0 1.282.578 1.282 1.328 0 .735-.454 1.329-1.282 1.329-.812 0-1.28-.594-1.28-1.329zm4.516-1.859v4.031h.5v-4.031zm0 0"/></symbol><symbol overflow="visible" id="ah"><path d="M6.25 1.219v-7.094h-.5v2.953H4.219v.438H5.75v3.703zM3.703-5.266v-.421H1.578v.421zm-.797 1.672v-.328H4.5v-.437H.797v.437H2.39v.328c0 .625-.188 1.203-.5 1.688A4.378 4.378 0 0 1 .39-.531c.14.11.359.25.468.36.422-.345.766-.641 1.063-1 .297-.36.531-.75.734-1.282.188.484.422.89.719 1.234.281.344.61.625 1.031.922.078-.125.25-.281.36-.375a3.882 3.882 0 0 1-1.344-1.234 3.116 3.116 0 0 1-.516-1.688zm0 0"/></symbol><symbol overflow="visible" id="ai"><path d="M6.36 1.063V.625H2.14V-1.25h-.5v2.313zM4.905-.704V-5.75h-.484v1.453H3.156v.438h1.266v3.156zm1.25.156V-5.89h-.5v5.344zM2.313-4.875v-.766h-.5v.75c0 .72-.157 1.313-.47 1.813-.265.422-.64.781-1.14 1.094.125.093.328.25.438.343a4.53 4.53 0 0 0 .875-.843c.234-.313.406-.657.546-1.079.126.36.344.72.626 1.016.234.281.53.531.812.688.11-.125.234-.282.36-.407a2.42 2.42 0 0 1-1.11-.953 3.192 3.192 0 0 1-.438-1.656zm0 0"/></symbol><symbol overflow="visible" id="aj"><path d="M6.188-.406v-5.469h-.5V-2H3.984v.422h1.704v1.172zm.156 1.453V.625H2.187V-.891h-.515v1.938zM1.016-5.578v.406h2.859c-.047.656-.156 1.39-.266 1.844-.921.047-3 .031-3.109.031v.438h1.688v1.609h.484v-1.625c.89 0 2.203-.11 2.781-.203V-3.5c-.25.047-1.297.125-1.36.14.126-.609.25-1.421.282-2.218zm0 0"/></symbol><symbol overflow="visible" id="ak"><path d="M6.844-3.719v-.437h-1v-1.719h-.5v5.281h.5v-3.125zm-.766 4.781V.625H2V-1.25h-.5v2.313zM1.25-5.109h2.719v-.422H.766v3.343c.062 0 1.093 0 1.859-.03.89-.032 1.938-.157 2.438-.282v-.438c-.485.126-1.782.266-2.594.282l-1.219.031zm0 0"/></symbol><symbol overflow="visible" id="al"><path d="M5.64-3.047c.157-.781.25-1.86.282-2.61h-4.89v.423h4.374c-.031.64-.156 1.578-.265 2.187H.25v.422h2.875v1.438H1.047v.421h4.25v2.032h.516v-2.454H3.624v-1.437h3.078v-.422zm0 0"/></symbol><symbol overflow="visible" id="am"><path d="M6.172 1.219v-7.094h-.5v7.094zm-.797-3.14c-.344.062-1.14.124-1.906.171-.844.047-2.828.031-2.938.031v.422h1.86v2.344h.484v-2.344c.75 0 1.969-.125 2.5-.203zm-1.5-3.454v-.453H1.922v.453zm-.656 1.078h1.437v-.453H1.141v.453h1.546c-.062.328-.265.61-.546.86-.344.312-.829.562-1.36.734.125.078.313.234.406.344.407-.172.75-.344 1.047-.563.297-.219.532-.484.72-.844.187.329.452.563.733.75.313.188.657.329 1.016.454.094-.126.172-.235.313-.36-.375-.11-.829-.265-1.172-.515-.313-.235-.547-.5-.625-.86zm0 0"/></symbol><symbol overflow="visible" id="an"><path d="M5.781 1.266v-2.594H1.25v.437h4.016v2.157zm.985-4.313v-.422H5.78v-1.094h.985v-.421H5.78v-.891h-.515v4.172h.515v-1.344zm-6.36-.937c0 .968.75 1.78 1.797 1.78s1.781-.812 1.781-1.78c0-.97-.734-1.766-1.78-1.766-1.048 0-1.798.797-1.798 1.766zm.516 0c0-.75.469-1.329 1.281-1.329.828 0 1.281.579 1.281 1.329 0 .734-.453 1.328-1.28 1.328-.813 0-1.282-.594-1.282-1.328zm0 0"/></symbol><symbol overflow="visible" id="ao"><path d="M6.719.234v-.421H3.766v-2.079h2.28v-.421H1.626v-2.907h-.516v3.328H3.25v2.079H.234v.421zm0 0"/></symbol><symbol overflow="visible" id="ap"><path d="M5.75-5.875v7.094h.5v-7.094zm-4.938.89H2.36v.563c0 .828-.171 1.578-.53 2.234A4.61 4.61 0 0 1 .28-.577c.14.094.375.25.469.36.39-.298.813-.704 1.156-1.173.328-.468.594-.968.719-1.437.188.547.469 1.031.828 1.453.313.36.672.688 1.063.953.109-.11.28-.281.406-.39-.688-.422-1.219-.907-1.547-1.5-.328-.547-.5-1.188-.5-1.954v-.718h1.61v-.438H.811zm0 0"/></symbol><symbol overflow="visible" id="av"><path d="M6.703-2.484v-.407H.25v.407h1.86v.828h-.97v.406h4.157v.766H1.14v1.609h4.828v-.39H1.656v-.829h4.157v-1.562h-.97v-.828zm-2.344.828H2.61v-.828h1.75zm-.89-1.797c1.578 0 2.422-.516 2.422-1.219 0-.656-.844-1.25-2.422-1.25-1.547 0-2.422.547-2.422 1.25s.875 1.219 2.422 1.219zm0-.375c-1.125 0-1.906-.328-1.906-.844 0-.547.765-.875 1.906-.875 1.125 0 1.922.344 1.922.875 0 .516-.797.844-1.922.844zm0 0"/></symbol><symbol overflow="visible" id="aw"><path d="M6.703-1.39v-.423H3.734V-2.89H3.22v1.079H.25v.421zm-.64 2.452V.641H1.625V-.844h-.484v1.906zM4.734-5.484v-.422h-2.53v.422zM1.047-4.375h2.14c-.062.39-.359.672-.796.906-.485.25-1.141.422-1.766.531.125.126.266.282.344.391.578-.125 1.11-.265 1.547-.484.39-.203.718-.469.968-.828.313.484.782.78 1.297.984.407.14.828.234 1.188.328.125-.14.218-.25.36-.39-.532-.079-1.11-.22-1.579-.438-.516-.234-.906-.547-.984-1h2.14v-.406h-4.86zm0 0"/></symbol><symbol overflow="visible" id="ax"><path d="M.969-.047c0 .797.922 1.39 2.5 1.39 1.61 0 2.5-.593 2.5-1.39 0-.797-.907-1.39-2.5-1.39-1.578 0-2.5.593-2.5 1.39zm2.5.985C2.313.938 1.5.594 1.5-.063c0-.625.813-.97 1.969-.97 1.156 0 1.984.345 1.984.97 0 .656-.828 1-1.984 1zm2.14-4.063c.141-.64.282-1.656.313-2.531h-4.89v.422h4.374c0 .64-.14 1.546-.281 2.109zm1.094.938v-.422H3.297v-1.625h-.485v1.625H.25v.421zm0 0"/></symbol><symbol overflow="visible" id="ay"><path d="M6.078 1.219v-7.094h-.5v2.656H4v.438h1.578v4zM.953-5.421v.437h2.5c-.094.875-.36 1.671-.797 2.359-.515.797-1.234 1.453-2.172 1.969a3 3 0 0 1 .485.36c.984-.641 1.75-1.438 2.265-2.376A6.607 6.607 0 0 0 4-5.422zm0 0"/></symbol><symbol overflow="visible" id="az"><path d="M3.938-1.125c-.297.047-1.047.125-1.532.14l-1.094.016v-1.797h2v-2.671H.829v.421h2.016v1.829h-2v2.656L2.28-.547C2.86-.562 3.625-.64 3.937-.703zm2.218 2.344v-7.094h-.5v2.625h-.953v-2.5h-.5V.875h.5v-3.656h.953v4zm0 0"/></symbol><symbol overflow="visible" id="aA"><path d="M5.125-.281c.406-1.39.719-3.344.781-4.985H1.031v.422h4.36c0 1.125-.375 3.203-.766 4.563H.235V.14h6.484v-.422zm0 0"/></symbol><symbol overflow="visible" id="aB"><path d="M6.703-1.969v-.422H.25v.422h2.969v.922h.515v-.922zm-.89 3.11v-2.485h-.5v.782H1.624v-.782h-.484v2.485zm-.5-.407H1.624v-.89h3.688zM1.14-3.016h4.78v-.406h-4.28v-.765H5.75v-1.516H1.14v.406h4.094v.719H1.141zm0 0"/></symbol><symbol overflow="visible" id="aC"><path d="M4.906-1.578v-.438h-2.36v.438zm.688-4.297v4.047h.5v-4.047zM3.954-2.75v-2.781H.843v2.781zm-.47-.406H1.313v-1.969h2.171zm2.532 4.36c.062-.079.28-.282.359-.391C5.812.734 5.25.593 4.828.343c-.39-.202-.672-.5-.828-.89h2.14v-.422H1.407v.422h2.078c-.14.422-.437.719-.859.938-.406.203-.922.343-1.484.421.093.125.296.282.375.391.437-.078.89-.203 1.28-.406.376-.203.72-.469.985-.828.235.375.578.64.953.844.391.187.829.312 1.282.39zm0 0"/></symbol><symbol overflow="visible" id="aD"><path d="M.969-3.89c0 .937.75 1.734 1.797 1.734 1.03 0 1.78-.797 1.78-1.735 0-.953-.75-1.718-1.78-1.718-1.047 0-1.797.765-1.797 1.718zm.484 0c0-.72.484-1.297 1.313-1.297.812 0 1.28.578 1.28 1.296 0 .72-.468 1.282-1.28 1.282-.829 0-1.313-.563-1.313-1.282zm4.703 5.109v-7.094h-.5v7.094zm-.734-2.36c-.61.11-2.563.235-3.156.235H.546v.437h1.47c1.437 0 2.78-.14 3.406-.219zm0 0"/></symbol><symbol overflow="visible" id="aE"><path d="M4.86-.172v-1.437h1.124v-.422H1.641v-1.313h4.062v-2.172H1.11v.422h4.094v1.344H1.141v2.14h1.03v1.438H.235V.25H6.72v-.422zM2.671-1.609h1.703v1.437H2.672zm0 0"/></symbol><symbol overflow="visible" id="aF"><path d="M6.719-1.984v-.422h-1.14c.14-.828.265-2.188.312-3.188H1.016v.422h4.359c-.063.938-.14 1.797-.313 2.766H.234v.422h1.829v3.14h.5v-3.14h1.874v3.203h.485v-3.203zm0 0"/></symbol><symbol overflow="visible" id="aG"><path d="M6.047 1.14v-2.515H1.594v2.516zM5.563.704h-3.47V-.953h3.47zm0-6.578v4.094h.484v-4.094zm-.344 2.938c-.719.124-1.719.25-2.594.25l-1.344.015v-1.062h2.657v-.407H1.28v-1.03h2.735v-.423H.812v3.344c.079 0 1.282.016 2.11-.031.703-.031 1.86-.156 2.297-.25zm0 0"/></symbol><symbol overflow="visible" id="aH"><path d="M6.672-4.234v-.391H4.594l.687-1.11-.437-.218c-.125.36-.703 1.266-.735 1.328H2.781l.25-.234a7.722 7.722 0 0 0-.781-1.016l-.344.281c.39.39.594.828.719.969H.312v.39zM1.297-.5H2.89v.578c0 .297-.032.547-.282.578L2.141.641l.171.437c.141 0 .422.016.594-.062.25-.125.375-.344.375-.891v-3.594H.891v4.485h.406zm1.578-1.734H1.297v-.844h1.578zm0 1.343H1.297v-.968h1.578zm2.703-2.843l.031.875V.078c0 .422-.062.5-.421.5C5.03.563 4.843.547 4.702.531l.094.531c.234 0 .469 0 .625-.03.406-.063.61-.157.61-.657v-3.234l.062-.829zm-1.453.312l.031.813V.078h.422v-2.672l.047-.75zm0 0"/></symbol><symbol overflow="visible" id="aI"><path d="M6.203 1.14V-1.53h-.5v.843H2.234v-.843h-.5V1.14zm-.5-.406H2.234V-.28h3.47zM2.531-4.062C1.5-4.063.844-3.563.844-3c0 .563.656 1.047 1.687 1.047 1.063 0 1.703-.484 1.703-1.047S3.61-4.063 2.531-4.063zM3.703-3c0 .422-.406.64-1.172.64-.75 0-1.172-.234-1.172-.64 0-.438.422-.672 1.172-.672.766 0 1.172.297 1.172.672zm-.14-2.469v-.406H1.469v.406zM4.5-4.453v-.422H.531v.422zm1.719 2.578v-4h-.5v1.781H4.484v.422H5.72v.813H4.484v.421H5.72v.563zm0 0"/></symbol><symbol overflow="visible" id="aJ"><path d="M3.953 1.344c1.5 0 2.406-.594 2.406-1.407 0-.812-.906-1.421-2.406-1.421-1.484 0-2.39.609-2.39 1.421 0 .813.906 1.407 2.39 1.407zM2.078-.063c0-.64.828-1 1.875-1 1.063 0 1.89.36 1.89 1 0 .625-.827 1-1.89 1-1.047 0-1.875-.375-1.875-1zM6.313-1.53v-4.344h-.5v1.75h-.97V-5.75H4.36v3.984h.485v-1.906h.968v2.14zM.766-5.11h1.187v.328c0 .562-.11 1.015-.344 1.406-.265.438-.671.781-1.234 1.094.125.094.344.234.438.328.359-.234.64-.453.859-.703.234-.25.39-.516.547-.875.187.328.39.578.625.797.234.234.515.39.812.546.11-.124.235-.218.36-.343-.485-.235-.875-.485-1.125-.813-.282-.36-.422-.812-.422-1.437v-.328H3.64v-.422H.766zm0 0"/></symbol><symbol overflow="visible" id="aK"><path d="M6.078 1.14v-2.546H1.625V1.14zm-.5-.437H2.125V-.984h3.453zm.016-6.578v4.11h.5v-4.11zm-2.875.86v-.673h-.516v.657c0 .625-.187 1.14-.5 1.562-.36.485-.875.844-1.484 1.125.125.094.328.266.437.36.39-.204.766-.438 1.078-.75.329-.297.579-.672.72-1.11.218.422.53.781.89 1.047.312.235.64.422.953.578.094-.125.219-.281.36-.406C4.14-2.797 3.64-3.094 3.28-3.5c-.36-.39-.562-.906-.562-1.516zm0 0"/></symbol><symbol overflow="visible" id="aQ"><path d="M6.078 1.219v-7.094h-.5v7.094zM.953-5.421v.437h2.5a5.635 5.635 0 0 1-.797 2.375C2.141-1.813 1.422-1.156.484-.656a3 3 0 0 1 .485.36c.969-.626 1.703-1.376 2.219-2.298.468-.828.75-1.765.812-2.828zm0 0"/></symbol><symbol overflow="visible" id="aR"><path d="M6.703-1.781v-.438H.25v.438h3.063v1.625h.5v-1.625zm-.64 2.843V.625H1.625V-1h-.484v2.063zm-.75-4.671H1.624v-1.625h3.688zm-4.172.421h4.671v-2.468H1.141zm0 0"/></symbol><symbol overflow="visible" id="aS"><path d="M3.625-5.297v-.437h-2v.437zm.938 1.156v-.437H.719v.437zM5.171-.75c-.563.094-1.688.14-2.25.156v-.89c.828-.079 1.36-.563 1.36-1.11 0-.594-.673-1.14-1.61-1.14-.953 0-1.61.53-1.61 1.14 0 .563.516 1.047 1.36 1.125v.89H.39v.423h2.25c.953 0 1.984-.11 2.53-.172zm-3.64-1.844c0-.422.468-.734 1.14-.734.672 0 1.125.312 1.125.734 0 .438-.453.719-1.125.719-.672 0-1.14-.281-1.14-.719zm3.874-3.281v7.094h.5V-2.47h1.047v-.453H5.906v-2.953zm0 0"/></symbol><symbol overflow="visible" id="aT"><path d="M6.313 1.063V.625H2.125V-1.25h-.5v2.313zM2.358-2.531c-.812 0-1.28-.625-1.28-1.406 0-.797.468-1.407 1.28-1.407.829 0 1.282.61 1.282 1.407 0 .78-.454 1.406-1.282 1.406zm1.704-.813c.062-.187.093-.39.093-.594 0-.218-.047-.421-.11-.609h1.548v1.203zm2.03 2.75v-5.281h-.5v.89H3.86a1.774 1.774 0 0 0-1.5-.812c-1.062 0-1.796.844-1.796 1.86 0 1.015.734 1.859 1.796 1.859a1.78 1.78 0 0 0 1.516-.828h1.719v2.312zm0 0"/></symbol><symbol overflow="visible" id="aU"><path d="M5.578-2.406c.14-.828.266-2.188.313-3.188H1.016v.422h4.359c-.063.938-.14 1.797-.313 2.766H.234v.422h2.907v3.203h.515v-3.203H6.72v-.422zm0 0"/></symbol><symbol overflow="visible" id="aV"><path d="M3.734-5v-.563H3.22V-5c0 .61-.313 1.203-.813 1.703-.484.5-1.172.89-1.89 1.125.187.14.328.281.437.422a5.63 5.63 0 0 0 1.516-.922c.453-.39.828-.86 1.015-1.36.157.5.563.985 1.047 1.391.469.407 1.016.72 1.485.875.109-.14.25-.28.39-.406-.61-.172-1.265-.562-1.765-1.047-.547-.515-.907-1.156-.907-1.781zM3.72-2.172h-.5v1.985H.234v.421H6.72v-.421h-3zm0 0"/></symbol><symbol overflow="visible" id="aW"><path d="M1.047-5.453v.437h4.328c-.031 1.094-.25 2.532-.484 3.75h.515c.266-1.343.422-2.843.485-4.187zM6.719.234v-.421H3.203V-2.97h-.5v2.781H.234v.422zm0 0"/></symbol><symbol overflow="visible" id="aX"><path d="M4.969-1.25c-.39.063-1.563.25-2.5.266L1.406-.97v-1.844h2.5v-2.671H.922v.437h2.5v1.813h-2.5v2.718c.031 0 .844 0 1.703-.03a17.606 17.606 0 0 0 2.344-.266zm1.093 2.469v-7.094h-.5v1.406h-1.25v.438h1.25v1.375h-1.25v.437h1.25V1.22zm0 0"/></symbol><symbol overflow="visible" id="aY"><path d="M3.563-5.453v-.422H1.469v.422zm.984 1.047v-.422H.53v.422zm-2.016.468C1.5-3.938.844-3.421.844-2.766c0 .641.656 1.157 1.687 1.157 1.063 0 1.703-.516 1.703-1.157 0-.656-.625-1.171-1.703-1.171zM1.36-2.78c0-.438.422-.735 1.172-.735.766 0 1.172.297 1.172.735 0 .453-.406.765-1.172.765-.75 0-1.172-.312-1.172-.765zM6.938-3.5v-.438H5.921v-1.937h-.5v4.547h.5V-3.5zM5.921 1.266V-.97h-4.5v.438h4.016v1.797zm0 0"/></symbol><symbol overflow="visible" id="aZ"><path d="M6.719.234v-.421H4.062v-2.735h-.484v2.735H2.313v-2.735h-.47v2.735H.235v.421zM1.047-5.453v.437h4.375c-.047 1.094-.266 2.516-.5 3.735h.516c.28-1.344.421-2.828.5-4.172zm0 0"/></symbol><symbol overflow="visible" id="ba"><path d="M3.906-1.86c.203-1.062.328-2.671.344-3.577H.703v.421h3.031c0 1-.171 2.36-.312 3.157zm1.172.844c-.578.125-2.25.204-2.844.22v-2.5H1.75v2.5H.328v.437h1.266c1.156 0 2.797-.125 3.484-.22zm.234-4.859v7.094h.516V-2.47H6.86v-.453H5.83v-2.953zm0 0"/></symbol><symbol overflow="visible" id="bb"><path d="M4.75-5.219v-.437H2.187v.437zM3.719-1.797h-.5v1.625H.234V.25H6.72v-.422h-3zM1.03-3.907h2.157c-.032.485-.313.891-.72 1.22-.515.421-1.218.703-1.859.843.125.125.282.313.36.422a5.18 5.18 0 0 0 1.562-.703c.39-.297.735-.656.953-1.094.204.469.594.86 1.063 1.156.469.313.984.532 1.422.641.11-.156.234-.281.375-.422-.563-.11-1.25-.375-1.766-.765-.453-.344-.766-.766-.812-1.297h2.156v-.438h-4.89zm0 0"/></symbol><symbol overflow="visible" id="bc"><path d="M3.797 1.36C5.359 1.36 6.203.78 6.203.015c0-.782-.844-1.36-2.406-1.36-1.563 0-2.39.578-2.39 1.36 0 .765.827 1.343 2.39 1.343zM1.89.015c0-.61.796-.954 1.906-.954 1.11 0 1.906.36 1.906.954 0 .578-.797.937-1.89.937C2.687.953 1.89.578 1.89.016zm2.062-2.22v-3.405h-.469v1.203H1.313V-5.61h-.47v3.406zm-.469-.421H1.313v-1.36h2.171zm2.11-3.25v4.453h.5v-4.453zm0 0"/></symbol><symbol overflow="visible" id="aq"><path d="M4.047-1.36H.422v1.032h11.031V-1.36H5.328v-4.297H4.047zm5-1.327c.226-.715.39-1.41.484-2.079.09-.664.14-1.273.14-1.828v-1.89c0-.301-.07-.516-.202-.641-.125-.121-.356-.188-.688-.188H2v1.016h6.188c.09 0 .148.02.171.047a.35.35 0 0 1 .032.172v1.469c0 .543-.051 1.148-.141 1.812a14.164 14.164 0 0 1-.39 1.875zm0 0"/></symbol><symbol overflow="visible" id="as"><path d="M6.86-.469v-2.687h4.593v-1.031H.422v1.03h5.14v2.688zM2.03-1.829v2.97c0 .332.063.566.188.703.133.144.394.218.781.218h6.938V1.048H3.516c-.086 0-.145-.02-.172-.047C3.32.969 3.313.91 3.313.828v-2.656zm1.422-6.968H8.36v2.25H3.703c-.105 0-.176-.016-.203-.047-.031-.039-.047-.101-.047-.187zM2.172-6.453c0 .355.078.598.234.719.153.125.39.187.703.187h6.547v-4.25H2.172zm0 0"/></symbol><symbol overflow="visible" id="aL"><path d="M7.484-7.156l.032 7.093c0 .985.046 1.938.375 1.922.39-.015.64-1.015.609-2.546l-.031-6.47c0-.53.234-.843-.172-1-.281-.109-1.11-.234-1.25-.25-.703-.046-.703.282-.297.47.531.218.734.328.734.78zM4.906-4.422l-.015 1.984-2.266.047-.016-1.984zM5.875-2.5l.016-3.656c0-.266.14-.532-.25-.672C5.328-6.938 4.78-7 4.578-7c-.703.047-.5.328-.266.438.36.125.594.187.594.484v1.094l-2.297.046-.015-.906c0-.281.14-.453-.25-.593-.313-.094-.813-.125-1.078-.157-.735.063-.47.36-.313.407.406.14.672.28.672.546l.016 3.297c.015.735.234 1 .453.969.265-.016.469-.344.5-.469l2.328-.047c.031.125.172.375.422.375.234 0 .5-.468.531-.984zm0 0"/></symbol><symbol overflow="visible" id="aM"><path d="M7.828-7.156l.047 7.093c0 .985.031 1.938.36 1.922.359-.015.609-1.015.593-2.546l-.047-6.47c0-.53.235-.843-.156-1-.281-.109-1.063-.234-1.219-.25-.672-.046-.687.282-.281.47.5.218.703.328.703.78zM3.938-3.36A.216.216 0 0 1 4-3.313c.984.579 1.14.297 1.313.25 0-.015.234-.109.468-.14 0-.016.172-.031.328-.031l.016 2.796c0 .985.031 1.938.36 1.922.374-.015.609-1.015.593-2.546l-.047-5.61c0-.531.235-.844-.156-1-.281-.11-1.063-.234-1.219-.25-.672-.047-.687.281-.281.469.5.219.703.328.703.781L6.11-3.75c-.609.031-1.437.063-1.828 0h-.093C4.5-4.297 4.78-4.828 5-5.328c.14-.344.531-.906.063-1.047-.125-.047-.813-.078-1.047.031-.266.125-.75.125-1.47.125-.452 0-.89-.031-1.03-.047-.594-.062-.688.188-.282.454.938.546 1.094.359 1.36.25.015 0 .234-.079.469-.11.25-.031.468-.047.937-.062-.156.5-.344.984-.563 1.421-.265.079-.671.11-1.203.125-.468.032-.906.032-1.046 0-.594-.015-.672.25-.25.485.968.5 1.125.297 1.375.172.015 0 .218-.078.453-.125.125-.031.234-.047.375-.063C2.42-2.422 1.547-1.375.859-.859c-.312.218-.14.546.547.171.953-.546 1.844-1.593 2.532-2.671zm0 0"/></symbol><symbol overflow="visible" id="aN"><path d="M4.734-4.063c0 .844-.562 1.485-1.39 1.485-.781 0-1.39-.64-1.39-1.485 0-.859.609-1.5 1.39-1.5.828 0 1.39.641 1.39 1.5zm1.047 0c0-1.687-1.765-2.015-1.86-2.03 0-.22.142-.235.017-.438-.157-.282-1.235-.375-1.235.015 0 .172.281.188.094.422 0 .016-1.875.313-1.875 2.047 0 1.36 1.234 2.172 2.422 2.172 1.172 0 2.437-.813 2.437-2.188zm1.703-3.093l.047 7.093c0 .985.047 1.938.375 1.922.39-.015.625-1.015.61-2.546l-.047-6.47c0-.53.25-.843-.156-1-.282-.109-1.11-.234-1.266-.25-.688-.046-.703.282-.281.47.515.218.718.328.718.78zm0 0"/></symbol><symbol overflow="visible" id="aP"><path d="M4.344-4.828c0 .734-.485 1.375-1.282 1.375-.765 0-1.296-.64-1.296-1.375 0-.813.53-1.438 1.296-1.438.813 0 1.282.657 1.282 1.438zm1.031.016c0-1.672-1.766-1.907-1.766-1.938 0-.203.141-.203.032-.406-.141-.25-1.25-.344-1.25.015 0 .141.312.172.14.391C2.516-6.734.72-6.484.72-4.812c0 1.28 1.25 2 2.344 2 1.093 0 2.312-.72 2.312-2zM8.25.5C7.906.453 7.281.469 7.094.61c-.219.156-.532.171-.766.171l-1.75.016c-.172 0-.344-.094-.344-.297V-.828c0-.406.235-.672-.312-.75a6.108 6.108 0 0 0-1.203-.047c-.906.094-.469.422-.156.484.453.094.609.188.609.563V.5c0 .703.531.828 1.094.828l3.89-.047c.703 0 .875-.593.094-.781zm-.375-5.063l-.016-2.593c0-.532.235-.844-.171-1-.282-.11-1.11-.235-1.25-.25-.688-.047-.704.281-.282.469.516.218.719.328.719.78l.047 5.25c0 .782.031 1.485.344 1.485.328-.016.625-.828.625-2l-.016-1.672h1.578c.719 0 .86-.61.094-.765-.313-.047-.828-.047-.953.062-.14.156-.453.203-.719.234zm0 0"/></symbol></defs><g fill="#393536"><use xlink:href="#a" x="42.468" y="48.426"/><use xlink:href="#b" x="48.041" y="48.426"/><use xlink:href="#c" x="53.614" y="48.426"/></g><g fill="#231f20"><use xlink:href="#d" x="74.885" y="47.727"/><use xlink:href="#e" x="82.886" y="47.727"/><use xlink:href="#f" x="85.492" y="47.727"/><use xlink:href="#g" x="88.099" y="47.727"/><use xlink:href="#f" x="96.1" y="47.727"/><use xlink:href="#h" x="98.706" y="47.727"/></g><g clip-path="url(#i)"><path d="M-15.57 410.852h1221.663" fill="none" stroke-width=".499395" stroke="#cabfbb" stroke-dasharray="2.002,2.002"/></g><use xlink:href="#j" x="192.522" y="326.117" fill="#8a8e98"/><g fill="#33459a"><use xlink:href="#k" x="202.026" y="326.716"/><use xlink:href="#l" x="214.001" y="326.716"/><use xlink:href="#m" x="225.977" y="326.716"/></g><g fill="#231f20"><use xlink:href="#n" x="192.522" y="343.3"/><use xlink:href="#o" x="199.42" y="343.3"/><use xlink:href="#p" x="206.318" y="343.3"/><use xlink:href="#q" x="209.728" y="343.3"/><use xlink:href="#r" x="213.138" y="343.3"/><use xlink:href="#s" x="220.036" y="343.3"/><use xlink:href="#t" x="222.284" y="343.3"/><use xlink:href="#o" x="224.532" y="343.3"/><use xlink:href="#u" x="231.43" y="343.3"/><use xlink:href="#v" x="234.84" y="343.3"/><use xlink:href="#r" x="238.25" y="343.3"/><use xlink:href="#t" x="245.148" y="343.3"/><use xlink:href="#w" x="247.396" y="343.3"/><use xlink:href="#x" x="254.294" y="343.3"/><use xlink:href="#y" x="261.192" y="343.3"/><use xlink:href="#z" x="268.09" y="343.3"/></g><g fill="#231f20"><use xlink:href="#n" x="192.522" y="355.702"/><use xlink:href="#o" x="199.42" y="355.702"/><use xlink:href="#A" x="206.318" y="355.702"/><use xlink:href="#r" x="209.728" y="355.702"/><use xlink:href="#t" x="216.626" y="355.702"/><use xlink:href="#B" x="218.874" y="355.702"/><use xlink:href="#C" x="225.772" y="355.702"/><use xlink:href="#D" x="232.67" y="355.702"/><use xlink:href="#o" x="239.568" y="355.702"/><use xlink:href="#E" x="246.466" y="355.702"/><use xlink:href="#t" x="253.364" y="355.702"/><use xlink:href="#z" x="255.611" y="355.702"/><use xlink:href="#F" x="262.509" y="355.702"/><use xlink:href="#s" x="269.407" y="355.702"/><use xlink:href="#t" x="271.655" y="355.702"/><use xlink:href="#D" x="273.903" y="355.702"/><use xlink:href="#o" x="280.801" y="355.702"/><use xlink:href="#E" x="287.699" y="355.702"/><use xlink:href="#G" x="294.597" y="355.702"/><use xlink:href="#H" x="301.495" y="355.702"/><use xlink:href="#t" x="308.393" y="355.702"/></g><g fill="#231f20"><use xlink:href="#n" x="192.522" y="368.105"/><use xlink:href="#o" x="199.42" y="368.105"/><use xlink:href="#u" x="206.318" y="368.105"/><use xlink:href="#I" x="209.728" y="368.105"/><use xlink:href="#r" x="213.138" y="368.105"/><use xlink:href="#t" x="220.036" y="368.105"/><use xlink:href="#r" x="222.284" y="368.105"/><use xlink:href="#J" x="229.182" y="368.105"/><use xlink:href="#K" x="236.08" y="368.105"/><use xlink:href="#L" x="242.978" y="368.105"/><use xlink:href="#M" x="249.876" y="368.105"/><use xlink:href="#N" x="256.774" y="368.105"/><use xlink:href="#t" x="263.672" y="368.105"/><use xlink:href="#L" x="265.92" y="368.105"/><use xlink:href="#M" x="272.818" y="368.105"/><use xlink:href="#N" x="279.716" y="368.105"/><use xlink:href="#z" x="286.614" y="368.105"/></g><use xlink:href="#j" x="192.522" y="631.388" fill="#8a8e98"/><g fill="#33459a"><use xlink:href="#O" x="202.026" y="631.987"/><use xlink:href="#P" x="214.001" y="631.987"/><use xlink:href="#Q" x="225.977" y="631.987"/></g><g fill="#231f20"><use xlink:href="#n" x="192.522" y="649.07"/><use xlink:href="#R" x="199.42" y="649.07"/><use xlink:href="#S" x="206.318" y="649.07"/><use xlink:href="#R" x="213.216" y="649.07"/><use xlink:href="#T" x="220.114" y="649.07"/><use xlink:href="#t" x="227.012" y="649.07"/><use xlink:href="#U" x="229.259" y="649.07"/><use xlink:href="#V" x="236.157" y="649.07"/><use xlink:href="#t" x="243.055" y="649.07"/><use xlink:href="#W" x="245.303" y="649.07"/><use xlink:href="#X" x="252.201" y="649.07"/><use xlink:href="#x" x="259.099" y="649.07"/></g><g fill="#231f20"><use xlink:href="#n" x="192.522" y="661.472"/><use xlink:href="#Y" x="199.42" y="661.472"/><use xlink:href="#t" x="206.318" y="661.472"/><use xlink:href="#Z" x="208.565" y="661.472"/><use xlink:href="#aa" x="215.463" y="661.472"/><use xlink:href="#x" x="222.361" y="661.472"/><use xlink:href="#ab" x="229.259" y="661.472"/><use xlink:href="#ac" x="236.157" y="661.472"/><use xlink:href="#t" x="243.055" y="661.472"/><use xlink:href="#ad" x="245.303" y="661.472"/><use xlink:href="#ae" x="252.201" y="661.472"/><use xlink:href="#t" x="259.099" y="661.472"/><use xlink:href="#W" x="261.347" y="661.472"/><use xlink:href="#X" x="268.245" y="661.472"/><use xlink:href="#x" x="275.143" y="661.472"/><use xlink:href="#t" x="282.041" y="661.472"/><use xlink:href="#af" x="284.289" y="661.472"/><use xlink:href="#ag" x="291.187" y="661.472"/><use xlink:href="#t" x="298.085" y="661.472"/><use xlink:href="#x" x="300.332" y="661.472"/><use xlink:href="#S" x="307.23" y="661.472"/><use xlink:href="#ah" x="314.128" y="661.472"/><use xlink:href="#z" x="321.026" y="661.472"/></g><g fill="#231f20"><use xlink:href="#n" x="192.522" y="673.874"/><use xlink:href="#ae" x="199.42" y="673.874"/><use xlink:href="#ai" x="206.318" y="673.874"/><use xlink:href="#T" x="213.216" y="673.874"/><use xlink:href="#aj" x="220.114" y="673.874"/><use xlink:href="#W" x="227.012" y="673.874"/><use xlink:href="#X" x="233.91" y="673.874"/><use xlink:href="#ak" x="240.808" y="673.874"/><use xlink:href="#t" x="247.706" y="673.874"/><use xlink:href="#W" x="249.953" y="673.874"/><use xlink:href="#X" x="256.852" y="673.874"/><use xlink:href="#x" x="263.75" y="673.874"/></g><g fill="#231f20"><use xlink:href="#n" x="192.522" y="686.277"/><use xlink:href="#ae" x="199.42" y="686.277"/><use xlink:href="#al" x="206.318" y="686.277"/><use xlink:href="#am" x="213.216" y="686.277"/><use xlink:href="#an" x="220.114" y="686.277"/><use xlink:href="#ao" x="227.012" y="686.277"/><use xlink:href="#T" x="233.91" y="686.277"/><use xlink:href="#ap" x="240.808" y="686.277"/><use xlink:href="#y" x="247.706" y="686.277"/><use xlink:href="#B" x="254.604" y="686.277"/><use xlink:href="#ak" x="261.502" y="686.277"/><use xlink:href="#t" x="268.4" y="686.277"/><use xlink:href="#w" x="270.648" y="686.277"/><use xlink:href="#x" x="277.546" y="686.277"/></g><g fill="#fff"><use xlink:href="#aq" x="54.22" y="165.5"/><use xlink:href="#ar" x="66.106" y="165.5"/><use xlink:href="#as" x="70.301" y="165.5"/></g><use xlink:href="#j" x="365.225" y="326.713" fill="#8a8e98"/><g fill="#33459a"><use xlink:href="#at" x="374.729" y="327.313"/><use xlink:href="#au" x="386.705" y="327.313"/><use xlink:href="#P" x="398.68" y="327.313"/></g><use xlink:href="#n" x="365.225" y="344.396" fill="#231f20"/><use xlink:href="#t" x="372.123" y="344.396" fill="#231f20"/><use xlink:href="#t" x="372.123" y="344.396" fill="#231f20"/><g fill="#231f20"><use xlink:href="#av" x="372.123" y="344.396"/><use xlink:href="#aw" x="379.021" y="344.396"/><use xlink:href="#ax" x="385.919" y="344.396"/><use xlink:href="#C" x="392.817" y="344.396"/><use xlink:href="#ay" x="399.715" y="344.396"/><use xlink:href="#az" x="406.613" y="344.396"/><use xlink:href="#aA" x="413.511" y="344.396"/><use xlink:href="#aB" x="420.409" y="344.396"/><use xlink:href="#t" x="427.307" y="344.396"/><use xlink:href="#E" x="429.555" y="344.396"/><use xlink:href="#aA" x="436.453" y="344.396"/><use xlink:href="#aB" x="443.351" y="344.396"/><use xlink:href="#z" x="450.249" y="344.396"/><use xlink:href="#t" x="457.147" y="344.396"/><use xlink:href="#aC" x="459.395" y="344.396"/><use xlink:href="#t" x="466.293" y="344.396"/></g><use xlink:href="#t" x="468.539" y="344.396" fill="#231f20"/><g fill="#231f20"><use xlink:href="#aD" x="372.201" y="355.382"/><use xlink:href="#aE" x="379.099" y="355.382"/><use xlink:href="#o" x="385.997" y="355.382"/><use xlink:href="#an" x="392.895" y="355.382"/><use xlink:href="#aF" x="399.793" y="355.382"/><use xlink:href="#o" x="406.691" y="355.382"/><use xlink:href="#aG" x="413.589" y="355.382"/><use xlink:href="#z" x="420.487" y="355.382"/></g><use xlink:href="#n" x="365.225" y="367.785" fill="#231f20"/><use xlink:href="#t" x="372.123" y="367.785" fill="#231f20"/><use xlink:href="#t" x="372.123" y="367.785" fill="#231f20"/><g fill="#231f20"><use xlink:href="#aH" x="372.123" y="367.785"/><use xlink:href="#t" x="379.021" y="367.785"/><use xlink:href="#ae" x="381.269" y="367.785"/><use xlink:href="#al" x="388.167" y="367.785"/><use xlink:href="#o" x="395.065" y="367.785"/><use xlink:href="#an" x="401.963" y="367.785"/><use xlink:href="#aI" x="408.861" y="367.785"/><use xlink:href="#ab" x="415.759" y="367.785"/><use xlink:href="#t" x="422.657" y="367.785"/></g><use xlink:href="#t" x="424.904" y="367.785" fill="#231f20"/><g fill="#231f20"><use xlink:href="#ax" x="372.201" y="378.771"/><use xlink:href="#C" x="379.099" y="378.771"/><use xlink:href="#D" x="385.997" y="378.771"/><use xlink:href="#aJ" x="392.895" y="378.771"/><use xlink:href="#aF" x="399.793" y="378.771"/><use xlink:href="#an" x="406.691" y="378.771"/><use xlink:href="#aK" x="413.589" y="378.771"/><use xlink:href="#aD" x="420.487" y="378.771"/><use xlink:href="#ad" x="427.385" y="378.771"/><use xlink:href="#y" x="434.283" y="378.771"/><use xlink:href="#ab" x="441.181" y="378.771"/><use xlink:href="#t" x="448.079" y="378.771"/><use xlink:href="#ad" x="450.326" y="378.771"/><use xlink:href="#y" x="457.224" y="378.771"/></g><use xlink:href="#j" x="365.225" y="631.388" fill="#8a8e98"/><g fill="#33459a"><use xlink:href="#aL" x="374.729" y="631.987"/><use xlink:href="#aM" x="386.345" y="631.987"/><use xlink:href="#aN" x="397.961" y="631.987"/><use xlink:href="#aO" x="409.578" y="631.987"/><use xlink:href="#aP" x="414.906" y="631.987"/></g><use xlink:href="#n" x="365.225" y="649.07" fill="#231f20"/><use xlink:href="#t" x="372.123" y="649.07" fill="#231f20"/><use xlink:href="#t" x="372.123" y="649.07" fill="#231f20"/><g fill="#231f20"><use xlink:href="#ae" x="372.123" y="649.07"/><use xlink:href="#al" x="379.021" y="649.07"/><use xlink:href="#aQ" x="385.919" y="649.07"/><use xlink:href="#E" x="392.817" y="649.07"/><use xlink:href="#aR" x="399.715" y="649.07"/><use xlink:href="#aS" x="406.613" y="649.07"/><use xlink:href="#aT" x="413.511" y="649.07"/><use xlink:href="#aU" x="420.409" y="649.07"/><use xlink:href="#aV" x="427.307" y="649.07"/><use xlink:href="#t" x="434.205" y="649.07"/><use xlink:href="#aV" x="436.453" y="649.07"/><use xlink:href="#z" x="443.351" y="649.07"/></g><use xlink:href="#n" x="365.225" y="661.472" fill="#231f20"/><use xlink:href="#t" x="372.123" y="661.472" fill="#231f20"/><use xlink:href="#t" x="372.123" y="661.472" fill="#231f20"/><g fill="#231f20"><use xlink:href="#aW" x="372.123" y="661.472"/><use xlink:href="#aX" x="379.021" y="661.472"/><use xlink:href="#r" x="385.919" y="661.472"/><use xlink:href="#aY" x="392.817" y="661.472"/><use xlink:href="#aZ" x="399.715" y="661.472"/><use xlink:href="#t" x="406.613" y="661.472"/><use xlink:href="#aD" x="408.861" y="661.472"/><use xlink:href="#ba" x="415.759" y="661.472"/><use xlink:href="#r" x="422.657" y="661.472"/><use xlink:href="#aY" x="429.555" y="661.472"/><use xlink:href="#t" x="436.453" y="661.472"/><use xlink:href="#bb" x="438.701" y="661.472"/><use xlink:href="#bc" x="445.599" y="661.472"/><use xlink:href="#aZ" x="452.497" y="661.472"/><use xlink:href="#V" x="459.395" y="661.472"/></g></svg>