<svg xmlns="http://www.w3.org/2000/svg" xmlns:xlink="http://www.w3.org/1999/xlink" width="793.701" height="1058.268" viewBox="0 0 595.276 793.701" version="1.2"><defs><clipPath id="D"><path d="M0 425h594.555v1H0zm0 0"/></clipPath><symbol overflow="visible" id="a"><path d="M2.875.031c.434 0 .82-.144 1.156-.437.332-.301.594-.64.782-1.016.183-.34.316-.71.39-1.11.082-.402.125-.804.125-1.202 0-.403-.05-.813-.14-1.22a4.843 4.843 0 0 0-.407-1.155A3.031 3.031 0 0 0 4-7.063a1.747 1.747 0 0 0-1.14-.421c-.844 0-1.473.457-1.876 1.359-.406.906-.609 1.707-.609 2.39 0 .712.203 1.52.61 2.422C1.386-.413 2.02.032 2.874.032zm0-.281c-.75 0-1.227-.441-1.422-1.328-.2-.895-.297-1.613-.297-2.156 0-.54.098-1.254.297-2.141.195-.895.672-1.344 1.422-1.344.363 0 .648.137.86.407.206.273.363.566.468.875.113.343.195.71.25 1.093.059.387.094.758.094 1.11 0 .324-.035.675-.094 1.046a9.33 9.33 0 0 1-.203 1.016c-.094.336-.254.66-.469.969-.21.305-.511.453-.906.453zm0 0"/></symbol><symbol overflow="visible" id="b"><path d="M1.875-1.047h-.203c-.117 0-.172-.02-.172-.062 0-.04.031-.102.094-.188.058-.09.11-.156.14-.187L3.656-3.36c.34-.301.66-.633.953-1 .29-.371.438-.805.438-1.297 0-.559-.227-1-.672-1.313a2.416 2.416 0 0 0-1.453-.484c-.375 0-.723.066-1.031.187-.313.125-.598.34-.844.641a6.377 6.377 0 0 1-.219.328c-.117.168-.172.293-.172.375 0 .031.008.059.031.078.02.024.047.032.079.032.05 0 .093-.024.125-.079.039-.05.07-.093.093-.125.153-.3.375-.55.657-.75.277-.207.597-.312.953-.312.445 0 .812.144 1.094.422.277.281.421.644.421 1.078 0 .555-.23 1.121-.687 1.703-.45.574-.852 1.059-1.203 1.453L.703-.594a.789.789 0 0 1-.094.156.3.3 0 0 0-.062.157c0 .074.047.11.14.11.09-.009.165-.016.22-.016h3.968a.406.406 0 0 0 .188-.032c.039-.027.062-.082.062-.156v-1.328-.156c0-.059-.043-.094-.125-.094-.063 0-.102.035-.11.094-.011.054-.023.105-.03.156-.032.293-.114.476-.235.547-.125.074-.336.11-.625.11zm0 0"/></symbol><symbol overflow="visible" id="c"><path d="M3.422-7.313a.124.124 0 0 0-.031-.078.119.119 0 0 0-.079-.062.133.133 0 0 0-.078 0 .589.589 0 0 0-.078.047l-1.844.828a.934.934 0 0 0-.218.078c-.086.043-.125.102-.125.172 0 .043.008.082.031.11a.143.143 0 0 0 .094.03c.05 0 .113-.015.187-.046.07-.028.133-.051.188-.063l.687-.312c.051-.02.102-.04.156-.063a.364.364 0 0 1 .172-.047c.07 0 .118.024.141.063.02.043.031.097.031.156v5.078c0 .367-.043.617-.125.75-.074.125-.316.188-.719.188-.25 0-.414.011-.484.03-.074.013-.11.052-.11.11 0 .063.016.106.048.125.027.024.082.032.156.032h3.094c.058 0 .109-.008.14-.032.028-.02.047-.054.047-.11 0-.058-.02-.1-.047-.124a.278.278 0 0 0-.14-.031h-.329c-.375 0-.601-.079-.671-.235-.063-.164-.094-.41-.094-.734zm0 0"/></symbol><symbol overflow="visible" id="d"><path d="M7.422 1.36v-7.985h-.734v2.938h-.954V-6.5H5V.984h.734v-3.953h.954V1.36zM2.938-4.626v-.813H4.28v-.625H.813v.625h1.359v.688c0 .953-.156 1.766-.469 2.453A4.316 4.316 0 0 1 .172-.594c.234.14.531.313.687.453.36-.265.735-.656 1.047-1.093.297-.407.532-.875.64-1.297.126.422.345.828.61 1.187.297.375.64.703.969.907.14-.172.36-.36.547-.5a3.485 3.485 0 0 1-1.344-1.516c-.25-.594-.39-1.328-.39-2.172zm0 0"/></symbol><symbol overflow="visible" id="e"><path d="M6.078-6.625V-.75h.75v-3.266h1.11v-.64h-1.11v-1.969zm-.344 3.234c-.546.11-2.015.282-2.843.297l-1.313.016v-2.547H4.61v-.64H.844v3.843c.031 0 1.375 0 1.984-.015 1.047-.032 2.328-.188 2.906-.329zm1.344 4.594v-.64H2.422v-2.016h-.75v2.656zm0 0"/></symbol><symbol overflow="visible" id="f"><path d="M7.11-2.313v-4.312h-.75v1.578H4.624v-1.312h-.719v1.187h-2.25v-1.187H.922v3.687h3.703V-4.39h1.734v2.079zm-3.204-1h-2.25V-4.53h2.25zM7.11 1.282v-3.234h-.75v.922H2.547v-.922h-.75V1.28zm-.75-.61H2.547V-.405h3.812zm0 0"/></symbol><symbol overflow="visible" id="g"><path d="M7.11-.75v-5.875h-.75V-.75zM.61-4.406c0 1.14.874 2.093 2.124 2.093 1.235 0 2.11-.953 2.11-2.093 0-1.172-.875-2.11-2.11-2.11-1.25 0-2.125.938-2.125 2.11zm.765 0c0-.828.5-1.469 1.36-1.469.859 0 1.359.64 1.359 1.469 0 .797-.5 1.437-1.36 1.437-.859 0-1.359-.64-1.359-1.437zm5.969 5.61V.562H2.562v-1.985h-.75v2.625zm0 0"/></symbol><symbol overflow="visible" id="i"><path d="M7.047 1.36v-7.985H6.28v7.984zM4.687-.657v-5.469H.97v5.469zm-.734-.64H1.72V-5.47h2.234zm0 0"/></symbol><symbol overflow="visible" id="j"><path d="M7.203 1.36v-7.985H6.47v2.844h-.985V-6.5H4.75V.984h.734v-4.046h.985v4.421zm-2.75-2.75c-.344.062-1.187.156-1.734.156l-1.063.015V-3.03h2.157v-3.125H.921v.64h2.172v1.844H.922v3.11l1.547-.016A19.11 19.11 0 0 0 4.453-.75zm0 0"/></symbol><symbol overflow="visible" id="k"><path d="M7.203 1.36v-7.985h-.75v7.984zM1.031-4.376c0 1.094.875 2 2.125 2 1.235 0 2.125-.906 2.125-2 0-1.094-.89-1.984-2.125-1.984-1.25 0-2.125.89-2.125 1.984zm.735 0c0-.75.53-1.36 1.39-1.36.86 0 1.36.61 1.36 1.36 0 .75-.5 1.36-1.36 1.36-.86 0-1.39-.61-1.39-1.36zm4.406 3.016c-.64.109-2.531.25-3.219.265-.328.016-2.312.016-2.344.016v.656c.016 0 1.657.016 1.985 0a26.518 26.518 0 0 0 3.578-.297zm0 0"/></symbol><symbol overflow="visible" id="l"><path d="M8.047-3.813v-.671H6.922v-2.141h-.766V-1.5h.766v-2.313zM4.14-6.046v-.594H1.687v.594zm1.14 1.203v-.593H.594v.593zM.921-3.078c0 .719.829 1.312 2 1.312 1.25 0 2.032-.593 2.032-1.312 0-.735-.75-1.328-2.016-1.328-1.203 0-2.015.593-2.015 1.328zm.782-.016c0-.453.484-.719 1.234-.719.766 0 1.235.266 1.235.72 0 .452-.453.75-1.234.75-.75 0-1.235-.282-1.235-.75zm5.219 4.5v-2.515h-5.36v.625h4.579v1.89zm0 0"/></symbol><symbol overflow="visible" id="m"><path d="M7.11-.75v-5.875h-.75v.922H4.421c-.36-.5-.969-.844-1.703-.844-1.235 0-2.11.969-2.11 2.125 0 1.156.875 2.11 2.11 2.11.765 0 1.39-.36 1.75-.891h1.89V-.75zm-.75-3.11H4.75a1.7 1.7 0 0 0 .094-.562c0-.219-.032-.437-.094-.625h1.61zm-4.985-.562c0-.812.5-1.469 1.344-1.469.875 0 1.36.657 1.36 1.47 0 .796-.485 1.452-1.36 1.452-.844 0-1.344-.656-1.344-1.453zm5.953 5.625v-.64H2.562v-1.985h-.75v2.625zm0 0"/></symbol><symbol overflow="visible" id="n"><path d="M7.781-2.156v-.64H6.484c.204-.907.375-2.438.407-3.548H1.156v.64h4.938a16.656 16.656 0 0 1-.39 2.907H.265v.64h3.312V1.36h.75v-3.515zm0 0"/></symbol><symbol overflow="visible" id="p"><path d="M3.813-4.36v-.015h1.593v-.813h-4.25v.813h1.578v.016c-.046.359-.265.687-.593.968-.407.344-.97.594-1.5.735.234.203.546.5.718.703.422-.156.813-.36 1.141-.61.344-.234.625-.515.781-.812.203.297.485.563.813.781.343.219.703.39 1.015.485.125-.188.375-.47.594-.688a3.35 3.35 0 0 1-1.219-.578c-.343-.266-.625-.61-.671-.984zm2.25 3.126c-.641.093-1.954.171-2.313.171V-2.25h-.969v1.203H.562v.86h1.844c1.172 0 2.985-.094 3.656-.204zm1.25 2.609v-8.016h-.954v8.016zm-2.86-7.11v-.796H2.016v.797zm0 0"/></symbol><symbol overflow="visible" id="q"><path d="M7.203-.75v-5.89h-.969v5.89zM3.328-5.39v-1.094H2.297v1.125c0 .593-.219 1.125-.563 1.562-.39.516-.968.922-1.562 1.203.266.203.625.485.781.656a5.38 5.38 0 0 0 1.094-.796c.344-.329.64-.704.765-1.079.204.376.532.735.891 1.016.328.266.688.5 1 .656.14-.203.422-.515.625-.75a3.228 3.228 0 0 1-1.39-.953c-.376-.437-.61-.969-.61-1.547zm4.063 6.609V.375H2.766v-1.734h-1v2.578zm0 0"/></symbol><symbol overflow="visible" id="r"><path d="M7.781-2.063v-.843h-3.25v-.906h2.39v-.829H2.204v-.984h4.64v-.828H1.235v2.64h2.297v.907H.281v.844zm-3.75 3.594c1.938 0 2.985-.687 2.985-1.562 0-.89-1.047-1.547-2.985-1.547-1.937 0-3 .656-3 1.547 0 .875 1.063 1.562 3 1.562zM2.156-.047c0-.515.703-.781 1.875-.781 1.14 0 1.86.297 1.86.797 0 .484-.72.781-1.86.781C2.86.75 2.156.453 2.156-.047zm0 0"/></symbol><symbol overflow="visible" id="s"><path d="M7.906-2.875v-.828H6.875v-.922h1.031v-.828H6.875v-1.188h-.969v5.063h.969v-1.297zM4.063-5.953v-.734H1.578v.734zm1.125 1.219v-.735H.468v.735zM.702-3.188c0 .688.906 1.25 2.125 1.25 1.297 0 2.125-.546 2.125-1.265 0-.703-.828-1.203-2.11-1.203-1.234 0-2.14.531-2.14 1.218zm3.235-.015c0 .375-.407.578-1.094.578-.688 0-1.11-.188-1.11-.563 0-.374.422-.578 1.11-.578.687 0 1.094.204 1.094.563zM7.046 0c0-.938-1.188-1.5-2.844-1.5-1.594 0-2.875.516-2.875 1.469 0 .953 1.234 1.547 2.86 1.547C5.796 1.516 7.046.984 7.046 0zm-4.64-.016c0-.562.874-.75 1.78-.75.985 0 1.75.235 1.75.75 0 .532-.828.782-1.734.782-.922 0-1.797-.25-1.797-.782zm0 0"/></symbol><symbol overflow="visible" id="t"><path d="M7.797.484v-.843H4.53V-2h2.282v-4.422h-.97v1.313h-3.64v-1.313h-.969V-2h2.282v1.64H.28v.844zM5.844-2.844h-3.64v-1.422h3.64zm0 0"/></symbol><symbol overflow="visible" id="u"><path d="M1.078-6.203v.828h4.766a28.365 28.365 0 0 1-.453 3.953h.968c.25-1.39.47-3.406.532-4.781zM7.797.484v-.843H3.844v-2.985h-.985v2.985H.281v.843zm0 0"/></symbol><symbol overflow="visible" id="v"><path d="M7.203 1.375v-8.016H6.22v2.313H4.53v.906H6.22v4.797zm-3.89-5.938v-1.765H2.296v1.719c0 .796-.172 1.515-.516 2.14C1.406-1.766.828-1.188.094-.75c.281.188.625.469.812.64a6.26 6.26 0 0 0 1.14-1.046c.345-.422.642-.89.767-1.297.203.453.5.906.859 1.281.344.36.719.672 1.031.89.172-.187.438-.437.719-.655-.672-.422-1.234-.938-1.61-1.594-.312-.563-.5-1.219-.5-2.031zm0 0"/></symbol><symbol overflow="visible" id="x"><path d="M2.766-.547L1.125-6.125H.109L2.266.672h.968l2.172-6.797H4.391zm0 0"/></symbol><symbol overflow="visible" id="y"><path d="M2.438-3.688c.765 0 1.171.766 1.171 1.922C3.61-.609 3.203.141 2.438.141c-.735 0-1.141-.75-1.141-1.907 0-1.156.406-1.921 1.14-1.921zm0-.75C1.046-4.438.344-3.375.344-1.765c0 1.61.703 2.641 2.094 2.641 1.406 0 2.14-1.031 2.14-2.64 0-1.61-.734-2.673-2.14-2.673zm0 0"/></symbol><symbol overflow="visible" id="z"><path d="M.563-6.125V.672h.906v-6.797zm0 0"/></symbol><symbol overflow="visible" id="A"><path d="M.64-.047v1.203h1.25V-.047zm0 0"/></symbol><symbol overflow="visible" id="B"><path d="M.563-4.219H1.75V.703h.938v-6.922h-.766c-.11.922-.406 1.282-1.36 1.328zm0 0"/></symbol><symbol overflow="visible" id="C"><path d="M2-6.25C.797-6.25.203-4.89.203-2.656.203-.437.797.906 2 .906c1.203 0 1.828-1.344 1.828-3.562C3.828-4.891 3.203-6.25 2-6.25zm0 .797c.547 0 .906 1.078.906 2.797C2.906-.97 2.546.109 2 .109c-.531 0-.875-1.078-.875-2.765 0-1.719.344-2.797.875-2.797zm0 0"/></symbol><symbol overflow="visible" id="E"><path d="M1.516-6.063l5.578 3.375L1.516.688zm0 0"/></symbol><symbol overflow="visible" id="F"><path d="M4.61-5.203v1.61l-2.376.046v-1.61zm1 1.547l.03-3.016c0-.266.141-.531-.265-.672-.328-.11-.89-.172-1.11-.172-.702.047-.515.329-.25.438.36.125.61.187.61.469l-.016.843-2.375.047-.015-.64c0-.282.125-.454-.266-.594-.328-.094-.844-.125-1.11-.156-.75.062-.484.359-.327.406.421.14.687.281.687.547L1.234-3.5c0 .734.235 1 .454.969.296-.016.5-.328.53-.469l2.423-.047c.03.125.171.375.421.375.25 0 .532-.469.547-.984zM8.046.094L8.03-1.172c.016-.344.375-.672-.234-.797-.344-.047-.703 0-1.078.094-.344.11-3.219.172-4.094.047-.953-.11-.64.297-.39.422 1.515.812 1.593.234 2.296.203.016 0 2.047-.078 2.453-.078L7.016.5c.015.625.171 1.266.406 1.25.25 0 .625-.734.625-1.656zm.094-5.032l-.016-2.218c0-.532.25-.844-.172-1-.297-.11-1.14-.235-1.297-.25-.718-.047-.718.281-.297.469.532.218.75.328.75.78l.047 3.595c.016.796.078 1.406.36 1.39.296-.015.64-.765.64-1.906v-.375h1.61c.734 0 .875-.625.093-.781-.328-.032-.859-.047-.968.078-.157.14-.47.187-.75.218zm0 0"/></symbol><symbol overflow="visible" id="G"><path d="M7.484-.172c0 .64-.484 1.234-1.171 1.234-.704 0-1.188-.593-1.188-1.234 0-.687.516-1.266 1.188-1.266.687 0 1.171.594 1.171 1.266zM6.313 1.703c1.25 0 2.234-.781 2.234-1.875 0-1.516-1.688-1.719-1.688-1.734 0-.188.172-.172.032-.375-.172-.219-1.22-.297-1.22.015 0 .11.298.141.126.36 0 0-1.75.234-1.75 1.734 0 1.094 1 1.875 2.266 1.875zm-.938-7.156c.781.344.938.125 1.11.078 0 0 .28-.11.546-.14.016-.016.39-.016.625-.032l.016 1.5c-.703.031-1.922.078-2.438.016-.843-.078-.578.281-.312.422 1.125.593 1.297.312 1.484.265a2.5 2.5 0 0 1 .547-.156c.016 0 .484-.031.734-.031v.312c.016.797.079 1.39.36 1.39.297-.015.625-.78.625-1.905L8.64-7.156c0-.532.25-.844-.157-1-.296-.11-1.14-.235-1.296-.25-.72-.047-.735.281-.297.469.53.218.75.328.75.78v1.095c-.563.015-1.375.046-1.938.046.203-.359.656-.843.11-.984-.125-.016-.875-.078-1.125.031-.282.14-1.141.172-1.97.172-.468 0-.921-.062-1.093-.062-.61-.063-.734.14-.25.437.984.594 1.156.297 1.453.234 0 0 .266-.078.485-.093.312-.016.843-.094 1.39-.125C3.734-4.344 1.797-2.625.781-2.078c-.297.156.016.453.672.172 1.125-.485 2.813-1.782 3.922-3.547zm0 0"/></symbol><symbol overflow="visible" id="H"><path d="M6.61-5.813c0 .782-.657 1.36-1.391 1.36-.735 0-1.39-.578-1.39-1.36 0-.78.655-1.343 1.39-1.343.734 0 1.39.562 1.39 1.343zm1.093.016c0-1.547-1.875-1.828-1.875-1.844-.016-.203.172-.203 0-.406-.187-.203-1.266-.312-1.281.031 0 .079.36.141.125.36 0 .031-1.938.312-1.938 1.86 0 1.234 1.266 2.03 2.485 2.03 1.234 0 2.484-.796 2.484-2.03zM4.61-2.313l.032 2.25c0 .985.093 1.938.437 1.922.39-.015.688-1.015.672-2.546l-.047-1.657c1.531 0 2.453-.015 3.172.031.61.032 1.234.016 1.266-.359.03-.5-1.516-.562-2.391-.234-.328.11-2.078.078-2.563.078H2.876c-1.094 0-1.39-.063-2.047-.094-.61-.031-.937.203-.25.5 1.719.75 1.766.25 2.453.188.016 0 .516-.063 1.578-.079zm0 0"/></symbol><symbol overflow="visible" id="ax"><path d="M5.703-2.984c1.531-.016 2.453-.032 3.172 0 .61.046 1.234.03 1.266-.344.03-.5-1.516-.563-2.391-.235a1.813 1.813 0 0 1-.516.063c.188-.25.36-.656.516-1.125.328-.969.594-2.156.61-2.234.062-.36.515-.672-.172-.829-.329-.078-.813-.03-1.141.094-.36.11-4.031.188-4.922.063-.844-.078-.594.281-.328.406 1.516.781 1.64.313 2.266.234.015 0 2.656-.109 3.125-.125-.079.86-.157 1.47-.36 2.344-.125.5-.281.938-.281 1.219H2.875c-1.094.015-1.39-.047-2.047-.078-.61-.031-.937.203-.25.5 1.719.734 1.766.234 2.453.172.016 0 .516-.063 1.578-.094l.032 2.89c0 .985.093 1.938.437 1.922.39-.015.688-1.015.672-2.546zm0 0"/></symbol><symbol overflow="visible" id="ay"><path d="M6.797-5.938L6.78-4.609l-3.047.046-.015-1.343zM8.375.5c-.36-.047-1-.031-1.203.11C6.953.765 6.64.78 6.39.78L4.094.797C3.922.797 3.75.703 3.75.5v-.875c0-.39.219-.672-.328-.75a6.595 6.595 0 0 0-1.25-.047c-.938.11-.485.422-.156.484.468.094.625.188.625.563V.5c0 .703.562.828 1.14.828l4.485-.047c.734 0 .906-.593.109-.781zM4.672-2.453H2.828c-1.031 0-1.437-.078-2.078-.125-.625-.031-.953.234-.266.531 1.797.781 1.844.25 2.5.188.047-.016.875-.11 2.625-.125 1.625 0 2.594-.016 3.344.046.625.032 1.266.016 1.281-.375.032-.515-1.53-.562-2.437-.25-.25.11-1.313.11-2.031.11v-1.594h1.03c.032.14.22.313.454.313.281 0 .61-.391.61-1.032l.03-2.484c0-.36.22-.578-.25-.734-.312-.125-.937-.172-1.14-.172-.719.031-.531.312-.266.406.375.14.579.188.579.484l-.016.766-3.078.047-.016-.484c0-.297.14-.516-.265-.672-.329-.094-.86-.141-1.126-.157-.75.047-.468.391-.312.438.422.14.625.187.625.5L2.656-4.5c0 .719.281.922.5.922.281 0 .531-.297.563-.438h.953zm0 0"/></symbol><symbol overflow="visible" id="az"><path d="M9.36.5C9 .453 8.374.469 8.155.61c-.219.156-.531.171-.781.171L5.172.797C5 .797 4.828.703 4.828.5V-.531c0-.406.219-.672-.328-.75a6.595 6.595 0 0 0-1.25-.047c-.938.094-.484.422-.156.484.469.078.625.188.625.563V.5c0 .703.547.828 1.14.828l4.407-.047c.718 0 .89-.593.093-.781zM4.562-3.64c.953-.141 1.968-.329 2.671-.516.454-.11.36-.516 0-.453-.375.062-.843.14-1.359.203.11-.157.203-.375.281-.61.235-.609.375-1.421.39-1.468.079-.344.516-.672-.155-.829a2.168 2.168 0 0 0-1.141.094c-.344.094-2.297.14-3.047.032-1.062-.079-.672.296-.437.406 1.437.734 1.453.281 2.109.218.016 0 1.063-.078 1.547-.078-.016.47-.047 1.032-.172 1.563-.063.281-.125.562-.14.766-.954.093-1.954.171-2.72.171-.39 0-.78-.015-1.124-.062-.922-.063-.782.297-.22.562 1.47.735 1.516.25 2.141.172.126-.015.235-.031.376-.047v.72c.015.733.124 1.327.39 1.312.36-.016.656-.797.625-1.829zm3.421 1.28v.454c.016.781.047 1.484.36 1.484.344-.016.64-.828.64-2l-.03-4.734c0-.532.25-.844-.173-1-.297-.11-1.14-.235-1.297-.25-.703-.047-.718.281-.296.469.546.218.75.328.75.78l.03 4.282c-.702.031-1.765.063-2.234.016-.843-.079-.578.28-.312.421 1.11.579 1.297.313 1.469.25.015-.015.296-.109.562-.14 0-.016.297-.016.531-.031zm0 0"/></symbol><symbol overflow="visible" id="aD"><path d="M7.64-7.156l.048 3.25c.015.797.078 1.36.359 1.344.297-.016.625-.672.625-1.813L8.64-7.156c0-.532.25-.844-.157-1-.296-.11-1.14-.235-1.296-.25-.72-.047-.735.281-.297.469.53.218.75.328.75.78zm-1.827.078c-.125-.016-.875-.078-1.125.031-.282.14-1.141.156-1.97.156-.468 0-.921-.046-1.093-.062-.61-.063-.734.14-.25.437.984.61 1.156.297 1.453.235 0 0 .266-.078.485-.094.312 0 .843-.078 1.39-.11-.969 2.032-2.875 3.75-3.922 4.282-.297.156.016.437.672.156 1.234-.5 3.11-2.078 4.219-4.015.203-.329.703-.875.14-1.016zm1.609 5.39L7.39.672H4.609l-.046-2.36zM8.688.922c0-.156-.282-.235-.422-.25l.25-2.203c.03-.282.53-.532 0-.766-.36-.156-.907-.062-1.22.016-.171.078-2.484.078-2.609.078-.187 0-.625-.156-1.312-.125-.563.015-.797.39-.531.453.36.094.61.14.625.406l.172 2.547c.015.422.218.64.453.64.156 0 .437-.218.484-.484.375 0 2.281-.03 3.594-.03.312 0 .515-.095.515-.282zm0 0"/></symbol><symbol overflow="visible" id="aE"><path d="M6.453-.172c0 .703-.547 1.219-1.25 1.219S3.97.53 3.97-.172c0-.703.531-1.219 1.234-1.219s1.25.516 1.25 1.22zm1.078.031c0-1.5-1.781-1.687-1.781-1.703 0-.187.172-.172.031-.375-.172-.203-1.218-.281-1.218.016 0 .11.296.156.125.36 0 .015-1.797.202-1.797 1.702 0 1.079 1.093 1.844 2.312 1.844 1.219 0 2.328-.766 2.328-1.844zM5.797-3.219l.016-.656c0-.344.218-.625-.235-.75-.281-.078-.969-.094-1.156-.125-.625.031-.688.297-.297.422.313.062.594.187.594.5v.61h-1.89c-1.032 0-1.438-.079-2.079-.11-.625-.031-.953.219-.266.515 1.797.797 1.844.25 2.5.204.047-.016.875-.11 2.625-.125 1.625-.016 2.594-.016 3.344.03.625.032 1.266.017 1.281-.358.032-.516-1.53-.579-2.437-.25-.25.093-1.266.109-2 .093zm-.531-2.203c1.078.313 2.75.781 3.03.875.767.219 1.048-.172.813-.422-.171-.187-.625-.453-1-.547-.437-.109-.468.016-.796-.015-.172-.032-.891-.157-1.375-.297.515-.281 1-.594 1.5-.984.656-.485.78-.875.187-1.032-.14-.031-.922-.093-1.156.032-.282.14-2.203.171-3.016.171-.484 0-.89-.03-1.047-.046-.625-.063-.765.187-.297.453.938.515 1.157.359 1.454.25 0 0 .25-.094.484-.11.297-.031 1.578-.078 2.25-.093-1.36 1.218-3.5 2.218-5.031 2.625-.266.062-.22.437.53.312 1.188-.188 2.407-.656 3.47-1.172zm0 0"/></symbol><symbol overflow="visible" id="aF"><path d="M6.813-6.875c.03-.516-1.344-.5-1.985-.25-.25.063-1.25.078-1.656.078-.828 0-1.047-.031-1.563-.062-.562-.032-.812.187-.234.5 1.313.671 1.469.234 1.906.156.031 0 .688-.078 1.14-.078h1.407c.484.015.953.031.984-.344zM3.546-4.547c-.125-.469-.516-1.062-.828-1.39-.438-.454-.703-.188-.531.25.187.484.234 1.046.296 1.578.032.359.407.453.657.359.296-.125.515-.344.406-.797zm1.344 6l3.921-.031c.735 0 .891-.594.094-.75C8.562.609 7.922.64 7.687.766c-.218.125-.515.14-.78.14L5.171.937c-.188 0-.36-.109-.36-.312l-.015-.781c.516 0 2.781-.016 3.437-.016.407 0 .547-.11.547-.312 0-.188-.25-.204-.375-.22l.25-.952c.047-.25.39-.5-.062-.657-.328-.124-.985-.093-1.203.032-.204.125-2.407.078-2.532.078-.468 0-.859-.031-1.28-.078-.563-.063-.579.203-.36.344 1.125.703 1.39.406 1.61.328 0 0 .25-.079.515-.094.281-.016 1.734-.016 2.172-.016L7.469-.687c-.485 0-2.485.046-2.657.015a5.228 5.228 0 0 0-1.39-.11c-.64.095-.672.329-.11.47.297.078.422.171.422.406l.016.61c0 .702.563.75 1.14.75zm2.875-5.625c-.688.125-1.422.234-2.188.344l.5-1.469c.078-.344.344-.531-.11-.75a5.951 5.951 0 0 0-1.077-.312c-.625-.079-.735.203-.36.39.328.14.516.36.485.64l-.344 1.61c-.734.078-1.469.156-2.172.156-.438 0-.813-.046-1.156-.062-.86-.063-.735.281-.188.547 1.469.734 1.563.265 2.14.172 1.017-.14 3.376-.547 4.485-.813.016.703.094 1.172.344 1.156.297-.015.64-.64.64-1.78l-.03-2.813c0-.532.25-.844-.172-1-.297-.11-1.141-.235-1.297-.25-.704-.047-.72.281-.297.469.547.218.75.328.75.78zm0 0"/></symbol><symbol overflow="visible" id="I"><path d="M4.328-2.39c0-.47-.39-.86-.844-.86-.453 0-.828.39-.828.86 0 .468.375.859.828.859.454 0 .844-.39.844-.86zm0 0"/></symbol><symbol overflow="visible" id="J"><path d="M.656-3c0 .984.235 1.656.547 2.078.328.422.734.61 1.125.61.39 0 .797-.188 1.11-.61.328-.422.546-1.094.546-2.078 0-.984-.218-1.656-.546-2.078-.329-.422-.735-.594-1.11-.594-.36 0-.781.156-1.11.578C.907-4.672.657-4 .657-3zm.485 0c0-1.172.421-2.25 1.187-2.25S3.5-4.172 3.5-3c0 1.188-.406 2.25-1.172 2.25-.765 0-1.187-1.047-1.187-2.25zm4.421-2.875v7.094h.5v-7.094zm0 0"/></symbol><symbol overflow="visible" id="K"><path d="M3.563-5.453v-.422H1.469v.422zm.984 1.047v-.422H.53v.422zm-2.016.468C1.5-3.938.844-3.421.844-2.766c0 .641.656 1.157 1.687 1.157 1.063 0 1.703-.516 1.703-1.157 0-.656-.625-1.171-1.703-1.171zM1.36-2.78c0-.438.422-.735 1.172-.735.766 0 1.172.297 1.172.735 0 .453-.406.765-1.172.765-.75 0-1.172-.312-1.172-.765zM6.938-3.5v-.438H5.921v-1.937h-.5v4.547h.5V-3.5zM5.921 1.266V-.97h-4.5v.438h4.016v1.797zm0 0"/></symbol><symbol overflow="visible" id="M"><path d="M.969-3.89c0 .937.75 1.734 1.797 1.734 1.03 0 1.78-.797 1.78-1.735 0-.953-.75-1.718-1.78-1.718-1.047 0-1.797.765-1.797 1.718zm.484 0c0-.72.484-1.297 1.313-1.297.812 0 1.28.578 1.28 1.296 0 .72-.468 1.282-1.28 1.282-.829 0-1.313-.563-1.313-1.282zm4.703 5.109v-7.094h-.5v7.094zm-.734-2.36c-.61.11-2.563.235-3.156.235H.546v.437h1.47c1.437 0 2.78-.14 3.406-.219zm0 0"/></symbol><symbol overflow="visible" id="N"><path d="M3.844-2.172v-3.437h-.469v1.296H1.203v-1.296H.734v3.437zm-.469-.422H1.203V-3.89h2.172zm2.469 3.86V-1.25H1.328v.438H5.36v2.078zm1-5.094v-.438h-1V-5.89h-.5v4.266h.5v-2.203zm0 0"/></symbol><symbol overflow="visible" id="O"><path d="M2.64-4.266v-1.28h-.515v1.124c0 .828-.188 1.578-.547 2.234A4.476 4.476 0 0 1 .031-.577a3 3 0 0 1 .485.36c.39-.298.796-.704 1.14-1.173.344-.468.61-.968.719-1.437.203.547.484 1.031.828 1.453.328.36.688.688 1.078.953.094-.11.282-.281.407-.39-.704-.422-1.22-.907-1.563-1.5-.313-.547-.484-1.188-.484-1.954zm2.657-1.609v7.094h.516v-3.844h1.093v-.453H5.813v-2.797zm0 0"/></symbol><symbol overflow="visible" id="P"><path d="M.719 1.984c.547-.125.765-.53.765-1.203V.047H.688v.765h.437c0 .485-.094.766-.516.938zm0 0"/></symbol><symbol overflow="visible" id="Q"><path d="M6.094-1.563v-4.312h-.5v1.078H4.25v.422h1.344v1.11H4.03v.421h1.563v1.281zM3.859 1.345c1.5 0 2.36-.594 2.36-1.407 0-.812-.86-1.421-2.36-1.421-1.468 0-2.359.609-2.359 1.421 0 .813.89 1.407 2.36 1.407zM2.016-.063c0-.64.828-1 1.843-1 1.047 0 1.86.36 1.86 1 0 .625-.828 1-1.86 1-1.015 0-1.843-.375-1.843-1zM.89-5.53v.422h2.593a2.914 2.914 0 0 1-.89 1.687c-.578.563-1.36.953-2.172 1.188.14.125.297.265.39.39.922-.297 1.72-.781 2.297-1.453.516-.578.844-1.328.938-2.234zm0 0"/></symbol><symbol overflow="visible" id="R"><path d="M1.406-.047c0 .797.828 1.39 2.39 1.39 1.563 0 2.376-.577 2.376-1.374 0-.797-.813-1.422-2.375-1.422-1.563 0-2.39.61-2.39 1.406zm.5-.015c0-.625.766-.97 1.89-.97 1.095 0 1.876.36 1.876 1 0 .61-.781.97-1.875.97-1.125 0-1.89-.375-1.89-1zm-.828-3.954c0-.75.469-1.328 1.281-1.328.829 0 1.282.578 1.282 1.328 0 .735-.454 1.329-1.282 1.329-.812 0-1.28-.594-1.28-1.329zm2.984.563a1.77 1.77 0 0 0 .094-.563c0-.203-.047-.421-.11-.593h1.548v1.156zm2.032 1.89v-4.312h-.5v.828h-1.75C3.516-5.5 3-5.78 2.359-5.78c-1.046 0-1.796.797-1.796 1.765 0 .97.75 1.782 1.796 1.782.657 0 1.204-.313 1.516-.797h1.719v1.469zm0 0"/></symbol><symbol overflow="visible" id="S"><path d="M6.094-1.625v-4.25h-.5v1.313H3.937v.421h1.657v2.516zm-.016 2.89V-1.25H1.5v.438h4.094v2.078zm-3.36-6.124v-.829h-.515v.813c0 .64-.187 1.156-.5 1.578-.36.485-.875.844-1.484 1.11.125.093.328.265.437.359a4.53 4.53 0 0 0 1.172-.828c.266-.297.5-.64.625-1.031.203.39.469.718.797.984.328.265.703.484 1.047.64a2.09 2.09 0 0 1 .36-.39c-.548-.203-1.063-.516-1.438-.953a2.24 2.24 0 0 1-.5-1.453zm0 0"/></symbol><symbol overflow="visible" id="T"><path d="M6.078 1.219v-7.094h-.5v2.172H3.922v.453h1.656v4.469zm-3.36-5.485v-1.28h-.515v1.124c0 .828-.187 1.578-.547 2.234A4.476 4.476 0 0 1 .11-.577a3 3 0 0 1 .485.36c.39-.298.812-.704 1.14-1.173.344-.468.61-.968.72-1.437.202.547.468 1.031.827 1.453.328.36.688.688 1.078.953.094-.11.282-.281.407-.39-.704-.422-1.22-.907-1.563-1.5C2.891-2.86 2.72-3.5 2.72-4.266zm0 0"/></symbol><symbol overflow="visible" id="U"><path d="M3.469-3.453c1.578 0 2.422-.516 2.422-1.219 0-.656-.844-1.25-2.422-1.25-1.547 0-2.422.547-2.422 1.25s.875 1.219 2.422 1.219zm0-.375c-1.125 0-1.906-.328-1.906-.844 0-.547.765-.875 1.906-.875 1.125 0 1.922.344 1.922.875 0 .516-.797.844-1.922.844zm2.5 4.953v-.39H1.656V-.11h4.157v-1.594H3.719v-.766h2.984v-.406H.25v.406h2.969v.766H1.14v.406h4.156v.781H1.14v1.641zm0 0"/></symbol><symbol overflow="visible" id="V"><path d="M.89-5.36v4.735c.032 0 .704.016 1.376-.016a17.88 17.88 0 0 0 1.562-.156v-.453c-.297.047-1.094.14-1.484.14l-.969.032v-3.86h1.906v-.421zM6.157 1.22v-7.094h-.5v2.703H4.625V-5.75h-.5V.875h.5v-3.578h1.031v3.922zm0 0"/></symbol><symbol overflow="visible" id="W"><path d="M6.719.234v-.421H4.062v-2.735h-.484v2.735H2.313v-2.735h-.47v2.735H.235v.421zM1.047-5.453v.437h4.375c-.047 1.094-.266 2.516-.5 3.735h.516c.28-1.344.421-2.828.5-4.172zm0 0"/></symbol><symbol overflow="visible" id="X"><path d="M3.797 1.36C5.359 1.36 6.203.78 6.203.015c0-.782-.844-1.36-2.406-1.36-1.563 0-2.39.578-2.39 1.36 0 .765.827 1.343 2.39 1.343zM1.89.015c0-.61.796-.954 1.906-.954 1.11 0 1.906.36 1.906.954 0 .578-.797.937-1.89.937C2.687.953 1.89.578 1.89.016zm1.593-2.61H1.313v-1.375h2.171zm.47-.75v-.984h1.64v.984zm1.64.422v1.485h.5v-4.438h-.5v1.125h-1.64v-.86h-.47v1.22H1.313v-1.22h-.47v3.423h3.11v-.735zm0 0"/></symbol><symbol overflow="visible" id="Y"><path d="M2.766-3.328c1.046 0 1.687-.594 1.687-1.281 0-.672-.625-1.282-1.687-1.282-1.047 0-1.688.61-1.688 1.282 0 .687.64 1.28 1.688 1.28zm.015-.406c-.828 0-1.234-.47-1.234-.875 0-.422.39-.891 1.219-.891.828 0 1.218.469 1.218.89 0 .407-.39.876-1.203.876zM6.187-.406v-5.469h-.5v4.172h-1.75v.406h1.75v.89zm.157 1.453V.625H2.187v-1.36h-.515v1.782zm-.89-4c-.407.078-1.798.203-2.798.203l-2.172.016v.421h1.704v1.22h.484v-1.235c.875 0 2.203-.11 2.781-.188zm0 0"/></symbol><symbol overflow="visible" id="Z"><path d="M6.703-1.875v-.422H.25v.422h3.063v1.766h.5v-1.766zm-.64 2.938V.625H1.625V-1h-.484v2.063zM3.733-5.579v-.297h-.53v.297c0 .594-.345 1.062-.86 1.406-.485.344-1.125.594-1.735.734.125.11.282.297.36.391a4.996 4.996 0 0 0 1.531-.64c.406-.266.766-.626.984-1.094.204.468.594.843 1.047 1.125.469.297 1 .515 1.438.61.11-.142.234-.25.375-.392-.594-.109-1.297-.374-1.828-.78-.454-.345-.782-.798-.782-1.36zm0 0"/></symbol><symbol overflow="visible" id="aa"><path d="M5.203-1.797c-.562.094-1.812.188-2.234.188v-.672c.844-.078 1.375-.485 1.375-.938 0-.547-.672-.984-1.657-.984-.968 0-1.656.437-1.656.969 0 .468.547.89 1.422.953v.672H.391v.406h2.5c.921 0 1.828-.125 2.312-.188zm-3.64-1.437c0-.36.437-.594 1.125-.594.703 0 1.124.234 1.124.594 0 .359-.421.593-1.124.593-.688 0-1.126-.234-1.126-.593zm4.609 4.296V.625H2.078V-.703h-.5v1.765zm.766-4.187v-.438H5.921v-2.312h-.5v5.469h.5v-2.719zM3.655-5.5v-.39H1.703v.39zm.953.938v-.391H.72v.39zm0 0"/></symbol><symbol overflow="visible" id="ab"><path d="M6.078 1.219v-7.094h-.5v7.094zM.953-5.421v.437h2.5a5.635 5.635 0 0 1-.797 2.375C2.141-1.813 1.422-1.156.484-.656a3 3 0 0 1 .485.36c.969-.626 1.703-1.376 2.219-2.298.468-.828.75-1.765.812-2.828zm0 0"/></symbol><symbol overflow="visible" id="ac"><path d="M3.828-1.25c-.297.047-1.094.14-1.484.14l-.953.032v-4.438h-.5v4.907c.03 0 .703 0 1.375-.032.546-.015 1.312-.109 1.562-.14zm2.328 2.469v-7.094h-.5v2.703H4.625V-5.75h-.5V.875h.5v-3.578h1.031v3.922zm0 0"/></symbol><symbol overflow="visible" id="ad"><path d="M3.906-1.86c.203-1.062.328-2.671.344-3.577H.703v.421h3.031c0 1-.171 2.36-.312 3.157zm1.172.844c-.578.125-2.25.204-2.844.22v-2.5H1.75v2.5H.328v.437h1.266c1.156 0 2.797-.125 3.484-.22zm.234-4.859v7.094h.516V-2.47H6.86v-.453H5.83v-2.953zm0 0"/></symbol><symbol overflow="visible" id="ae"><path d="M6.703-1.484v-.422H.25v.422h3v2.703h.516v-2.703zm-2.969-3.86v-.343h-.53v.343c0 .594-.329 1.094-.845 1.469-.484.344-1.125.594-1.796.75.14.11.312.313.39.406a5.21 5.21 0 0 0 1.485-.64A2.952 2.952 0 0 0 3.484-4.5c.204.484.594.86 1.032 1.14A5.024 5.024 0 0 0 6-2.718c.11-.14.219-.297.36-.422-.61-.14-1.298-.39-1.798-.78-.5-.36-.828-.845-.828-1.423zm0 0"/></symbol><symbol overflow="visible" id="af"><path d="M3.813 1.344c1.484 0 2.39-.594 2.39-1.407 0-.812-.906-1.421-2.39-1.421-1.5 0-2.407.609-2.407 1.421 0 .813.907 1.407 2.407 1.407zM1.921-.063c0-.64.828-1 1.89-1 1.047 0 1.876.36 1.876 1 0 .625-.829 1-1.875 1-1.063 0-1.891-.375-1.891-1zM6.156-1.53v-4.344h-.5v1.75h-.953V-5.75h-.5v3.969h.5v-1.89h.953v2.14zM2.313-4.97v-.672h-.5v.657c0 .656-.125 1.171-.375 1.593-.266.454-.672.829-1.22 1.157.126.109.329.265.438.359.39-.281.672-.531.906-.828.204-.266.36-.578.5-.985.126.36.344.672.594.938.25.281.547.484.844.656.11-.14.234-.281.36-.406-.47-.203-.876-.516-1.141-.953-.266-.406-.406-.922-.406-1.516zm0 0"/></symbol><symbol overflow="visible" id="ag"><path d="M1.39-.047c0 .766.829 1.406 2.407 1.406S6.203.734 6.203-.047c0-.781-.828-1.406-2.406-1.406-1.578 0-2.406.625-2.406 1.406zm.5 0c0-.594.782-.984 1.923-.984 1.093 0 1.874.39 1.874.984 0 .61-.78 1-1.875 1-1.14 0-1.921-.39-1.921-1zm2.063-4.406h1.64v.922h-1.64zm0 2.14v-.796h1.64v1.562h.5v-4.328h-.5v1h-1.64v-.656H.843v3.218zm-.469-.421H1.313V-5.11h2.171zm0 0"/></symbol><symbol overflow="visible" id="ah"><path d="M6.313 1.063V.625H2.125V-1.25h-.5v2.313zM2.358-2.531c-.812 0-1.28-.625-1.28-1.406 0-.797.468-1.407 1.28-1.407.829 0 1.282.61 1.282 1.407 0 .78-.454 1.406-1.282 1.406zm1.704-.813c.062-.187.093-.39.093-.594 0-.218-.047-.421-.11-.609h1.548v1.203zm2.03 2.75v-5.281h-.5v.89H3.86a1.774 1.774 0 0 0-1.5-.812c-1.062 0-1.796.844-1.796 1.86 0 1.015.734 1.859 1.796 1.859a1.78 1.78 0 0 0 1.516-.828h1.719v2.312zm0 0"/></symbol><symbol overflow="visible" id="ai"><path d="M5.578-2.406c.14-.828.266-2.188.313-3.188H1.016v.422h4.359c-.063.938-.14 1.797-.313 2.766H.234v.422h2.907v3.203h.515v-3.203H6.72v-.422zm0 0"/></symbol><symbol overflow="visible" id="aj"><path d="M6.094 1.14v-2.609H1.625v2.61zm-.5-.437H2.125V-1.03h3.469zM.562-4.016c0 .97.75 1.782 1.797 1.782a1.764 1.764 0 0 0 1.797-1.782c0-.968-.75-1.765-1.797-1.765-1.046 0-1.796.797-1.796 1.765zm.516 0c0-.75.469-1.328 1.281-1.328.829 0 1.282.578 1.282 1.328 0 .735-.454 1.329-1.282 1.329-.812 0-1.28-.594-1.28-1.329zm4.516-1.859v4.031h.5v-4.031zm0 0"/></symbol><symbol overflow="visible" id="ak"><path d="M1.281-.047c0 .813.782 1.39 2.344 1.39 1.531 0 2.313-.577 2.313-1.39 0-.797-.782-1.39-2.313-1.39-1.563 0-2.344.593-2.344 1.39zm.547.016c0-.625.703-1 1.813-1 1.062 0 1.78.375 1.78 1 0 .61-.718.984-1.78.984-1.11 0-1.813-.375-1.813-.984zM6.781-3.72v-.437h-1v-1.719h-.515v4.328h.515v-2.172zM2.547-5.016v-.671H2.03v.656c0 .656-.187 1.203-.531 1.625-.36.453-.86.797-1.453 1.047.14.093.344.265.437.359a4.338 4.338 0 0 0 1.125-.766c.313-.296.547-.671.688-1.093.219.437.547.78.89 1.062.313.235.641.422.938.563.11-.125.234-.266.36-.391a3.31 3.31 0 0 1-1.344-.86 2.246 2.246 0 0 1-.594-1.53zm0 0"/></symbol><symbol overflow="visible" id="al"><path d="M5.578-5.875v7.094h.5v-7.094zm-2.86 1.61v-1.282h-.515v1.125c0 .828-.187 1.578-.547 2.234A4.476 4.476 0 0 1 .11-.577a3 3 0 0 1 .485.36c.39-.298.812-.704 1.14-1.173.344-.468.61-.968.72-1.437.202.547.468 1.031.827 1.453.328.36.688.688 1.078.953.094-.11.282-.281.407-.39-.704-.422-1.22-.907-1.563-1.5C2.891-2.86 2.72-3.5 2.72-4.266zm0 0"/></symbol><symbol overflow="visible" id="am"><path d="M6.219 1.14v-2.327H1.75V1.14zm-.5-.421H2.25V-.766h3.469zm.5-2.297v-4.297h-.5v2.25h-1.25v.438h1.25v1.609zM2.53-4.016c-1 0-1.687.5-1.687 1.125 0 .61.672 1.125 1.687 1.125 1.063 0 1.703-.515 1.703-1.125 0-.625-.64-1.125-1.703-1.125zM3.72-2.89c0 .438-.422.672-1.188.672-.734 0-1.172-.234-1.172-.672 0-.453.438-.718 1.172-.718.766 0 1.188.265 1.188.718zm-.156-2.578v-.406H1.469v.406zm.984 1.016v-.422H.53v.422zm0 0"/></symbol><symbol overflow="visible" id="an"><path d="M6.36 1.063V.625H2.14V-1.25h-.5v2.313zM4.905-.704V-5.75h-.484v1.453H3.156v.438h1.266v3.156zm1.25.156V-5.89h-.5v5.344zM2.313-4.875v-.766h-.5v.75c0 .72-.157 1.313-.47 1.813-.265.422-.64.781-1.14 1.094.125.093.328.25.438.343a4.53 4.53 0 0 0 .875-.843c.234-.313.406-.657.546-1.079.126.36.344.72.626 1.016.234.281.53.531.812.688.11-.125.234-.282.36-.407a2.42 2.42 0 0 1-1.11-.953 3.192 3.192 0 0 1-.438-1.656zm0 0"/></symbol><symbol overflow="visible" id="ao"><path d="M6.063 1.219v-7.094h-.5v2.438H4.25v.453h1.313v4.203zM4.968-1.25c-.657.11-1.469.203-2.063.234-.719.032-1.422.032-1.484.032V-2.86h2.547v-.438H1.422v-1.75h2.672v-.437H.937v4.937c.079 0 1.11.016 1.938-.031.64-.031 1.61-.156 2.094-.266zm0 0"/></symbol><symbol overflow="visible" id="ap"><path d="M5.813-2.047H1.14v.422h4.156v.922H1.14v1.828h4.828V.703H1.656v-.969h4.157zM.25-2.89h6.453v-.421H5.61c.188-.735.266-1.579.313-2.36h-4.89v.422h4.39c-.031.578-.188 1.375-.313 1.938H.25zm0 0"/></symbol><symbol overflow="visible" id="aq"><path d="M6.719.25v-.422h-3v-1.437h2.265v-.422H1.641v-1.313h4.062v-2.172H1.11v.422h4.094v1.344H1.141v2.14h2.078v1.438H.234V.25zm0 0"/></symbol><symbol overflow="visible" id="ar"><path d="M6.266 1.125V.719H2.109v-.875h3.985V-1.86H1.609v.437h3.97v.844h-3.97v1.703zm-2.313-3.75v-1.406h1.64v1.812h.5v-3.656h-.5v1.422h-1.64v-1.172h-.469v1.047H1.313v-1.047h-.47v3zm-.469-.406H1.313v-1.14h2.171zm0 0"/></symbol><symbol overflow="visible" id="as"><path d="M6.172-.61v-5.265h-.5v1.656H4.094v.438h1.578V-.61zm.219 1.672V.625H2.203V-1.25h-.5v2.313zM.797-5.109H2.28v.375a2.82 2.82 0 0 1-.531 1.687c-.36.469-.875.844-1.453 1.11.125.093.328.265.437.359.407-.234.782-.5 1.094-.828.313-.328.563-.719.703-1.156.188.39.438.703.735.984.359.328.75.594 1.109.765.094-.14.234-.28.36-.406a3.162 3.162 0 0 1-1.329-.906 2.444 2.444 0 0 1-.61-1.61v-.374H4.25v-.422H.797zm0 0"/></symbol><symbol overflow="visible" id="at"><path d="M6.766-2.828v-.422H5.78v-1.188h.985v-.421H5.78v-1.016h-.515v4.406h.515v-1.36zm-1.782.219c-.578.125-1.906.265-2.562.28l-1.297.017v-1.22h2.672v-2.062H.657v.422h2.655v1.234H.656v2.063c.063 0 1.078 0 1.86-.016.75-.03 1.984-.187 2.468-.28zm.797 3.875v-2.344H1.25v.422h4.016v1.922zm0 0"/></symbol><symbol overflow="visible" id="au"><path d="M3.89-5.5v-.39H1.938v.39zm.938.906v-.39H.953v.39zm.64 2.657c-.577.062-1.655.171-2.28.171v-.656c.843-.062 1.406-.406 1.406-.86 0-.546-.688-.952-1.688-.952-.969 0-1.656.421-1.656.937 0 .469.563.828 1.422.875v.672H.547v.406c.11 0 1.734.016 2.64-.015.735-.016 1.797-.11 2.282-.172zM1.75-3.298c0-.36.484-.562 1.156-.562.719 0 1.172.203 1.172.562 0 .344-.453.516-1.172.516-.672 0-1.156-.156-1.156-.516zM6.203 1.25V-.64H1.516v.421h4.187V1.25zm0-2.25v-4.875h-.516V-1zm0 0"/></symbol><symbol overflow="visible" id="av"><path d="M6.266 1.125V.703H2.109v-.828h3.985v-1.672H1.609v.422h3.97v.813h-3.97v1.687zm-.672-7v3.719h.5v-3.719zm-2.875.813v-.657h-.516v.625c0 .657-.234 1.172-.578 1.563-.375.39-.86.687-1.406.89.125.094.328.266.437.36A4.91 4.91 0 0 0 1.75-3c.297-.281.547-.594.703-1.016.219.407.516.704.844.954.328.234.672.39 1 .546.094-.125.219-.28.36-.406a3.14 3.14 0 0 1-1.376-.781 1.871 1.871 0 0 1-.562-1.36zm0 0"/></symbol><symbol overflow="visible" id="aw"><path d="M6.953-3.797v-.437H5.922v-1.641h-.484v4.328h.484v-2.25zM1.453-.03c0 .765.781 1.375 2.344 1.375 1.515 0 2.297-.625 2.297-1.375s-.782-1.375-2.297-1.375c-1.563 0-2.344.656-2.344 1.375zm.516.015c0-.578.718-.984 1.828-.984 1.062 0 1.781.406 1.781.984 0 .516-.719.97-1.781.97-1.11 0-1.828-.423-1.828-.97zM.797-5.109H2.28v.171c0 .657-.203 1.188-.531 1.61-.344.469-.86.812-1.453 1.078.125.094.328.234.437.328a4.39 4.39 0 0 0 1.125-.781c.297-.297.532-.656.672-1.078.188.375.453.687.735.937.359.297.75.516 1.109.703.094-.14.234-.265.36-.375-.516-.187-1.016-.484-1.391-.906-.344-.39-.547-.89-.547-1.5v-.187H4.25v-.422H.797zm0 0"/></symbol><symbol overflow="visible" id="aA"><path d="M6.078 1.14v-2.546H1.625V1.14zm-.5-.437H2.125V-.984h3.453zm.016-6.578v4.11h.5v-4.11zm-2.875.86v-.673h-.516v.657c0 .625-.187 1.14-.5 1.562-.36.485-.875.844-1.484 1.125.125.094.328.266.437.36.39-.204.766-.438 1.078-.75.329-.297.579-.672.72-1.11.218.422.53.781.89 1.047.312.235.64.422.953.578.094-.125.219-.281.36-.406C4.14-2.797 3.64-3.094 3.28-3.5c-.36-.39-.562-.906-.562-1.516zm0 0"/></symbol><symbol overflow="visible" id="aB"><path d="M3.563-5.5v-.422H1.469v.422zM2.546-4.172c-1.031 0-1.703.484-1.703 1.063 0 .53.656 1.03 1.687 1.03 1.063 0 1.703-.483 1.703-1.03 0-.563-.625-1.063-1.687-1.063zm1.156 1.063c0 .39-.39.609-1.156.609-.766 0-1.172-.219-1.172-.61 0-.421.422-.656 1.172-.656.765 0 1.156.266 1.156.657zM4.5-4.531v-.422H.531v.422zm1.89 5.656V.703H2.235V.016H6.22v-1.547h-4.5v.422h3.968v.703H1.72v1.531zM6.22-1.891v-3.984h-.5v1.672H4.484v.422H5.72v.797H4.484v.421H5.72v.672zm0 0"/></symbol><symbol overflow="visible" id="aC"><path d="M6.078 1.063V.625H2v-1.688h-.5v2.125zm.781-4.11v-.437H5.844v-2.391h-.5v5.469h.5v-2.64zm-2.89.094c.156-.64.281-1.703.328-2.61h-3.5v.422H3.78c-.047.61-.156 1.641-.297 2.188zm1.156.578c-.813.125-2.281.219-2.86.219v-1.797h-.484v1.812H.313v.422h.843c2 0 3.25-.125 3.969-.234zm0 0"/></symbol><symbol overflow="visible" id="bm"><path d="M5.781 1.266v-2.594H1.25v.437h4.016v2.157zm.985-4.313v-.422H5.78v-1.094h.985v-.421H5.78v-.891h-.515v4.172h.515v-1.344zm-6.36-.937c0 .968.75 1.78 1.797 1.78s1.781-.812 1.781-1.78c0-.97-.734-1.766-1.78-1.766-1.048 0-1.798.797-1.798 1.766zm.516 0c0-.75.469-1.329 1.281-1.329.828 0 1.281.579 1.281 1.329 0 .734-.453 1.328-1.28 1.328-.813 0-1.282-.594-1.282-1.328zm0 0"/></symbol><symbol overflow="visible" id="bn"><path d="M6.703-2.125v-.438H.25v.438h2.969v1.078H1.047v.422h4.25v1.89h.516v-2.312H3.719v-1.078zm-2.969-3.5v-.25h-.53v.25c0 .563-.313 1-.798 1.344-.5.36-1.172.593-1.797.75.125.11.282.281.36.39.547-.156 1.078-.343 1.547-.656.39-.265.734-.594.968-1.015.235.437.625.812 1.094 1.078.453.296.969.484 1.39.593.11-.156.22-.265.36-.39-.516-.125-1.14-.344-1.64-.672-.547-.344-.954-.813-.954-1.422zm0 0"/></symbol><symbol overflow="visible" id="bo"><path d="M3.766-4.406c-.141-.469-.375-.782-.641-.985a1.244 1.244 0 0 0-.797-.28c-.36 0-.781.155-1.11.577C.907-4.672.657-4 .657-3c0 .984.235 1.656.547 2.078.328.422.734.61 1.125.61.266 0 .563-.094.828-.297a2.16 2.16 0 0 0 .625-1h1.781v2.828h.5v-7.094h-.5v1.469zm1.796.437v1.922H3.875c.078-.281.11-.594.11-.953 0-.375-.032-.703-.11-.969zM1.141-3c0-1.172.421-2.25 1.187-2.25S3.5-4.172 3.5-3c0 1.188-.406 2.25-1.172 2.25-.765 0-1.187-1.047-1.187-2.25zm0 0"/></symbol><symbol overflow="visible" id="bp"><path d="M.656-4.984h1.547v.562c0 .828-.187 1.578-.547 2.234A4.476 4.476 0 0 1 .11-.577a3 3 0 0 1 .485.36c.39-.298.812-.704 1.14-1.173.344-.468.61-.968.72-1.437.202.547.468 1.031.827 1.453.328.36.688.688 1.078.953.094-.11.282-.281.407-.39-.704-.422-1.22-.907-1.563-1.5C2.891-2.86 2.72-3.5 2.72-4.266v-.718h1.61v-.438H.655zm4.61-.891v7.094h.515v-3.844H6.86v-.453H5.781v-2.797zm0 0"/></symbol><symbol overflow="visible" id="bq"><path d="M6.078 1.266V-1.25H1.5v.438h4.094v2.078zm-.484-7.141v4.25h.5v-4.25zM2.719-4.859v-.829h-.516v.813c0 .64-.187 1.156-.5 1.578-.36.485-.875.844-1.484 1.11.125.093.328.265.437.359a4.53 4.53 0 0 0 1.172-.828c.266-.297.5-.64.625-1.031.203.39.469.718.797.984.328.265.703.484 1.047.64a2.09 2.09 0 0 1 .36-.39c-.548-.203-1.063-.516-1.438-.953a2.24 2.24 0 0 1-.5-1.453zm0 0"/></symbol><symbol overflow="visible" id="br"><path d="M6.703-2.047v-.422H.25v.422h2.969v.969H1.14V1.14h4.671v-2.22H3.72v-.968zM5.313.72H1.64V-.656h3.671zM.89-3.187h5.171v-.407h-.968l.015-1.64h.813v-.422h-4.89v.422h.812l.015 1.64H.891zm3.75-2.047l-.016 1.64H2.344l-.016-1.64zm0 0"/></symbol><symbol overflow="visible" id="bs"><path d="M2.281-2.047c1.047 0 1.797-.844 1.797-1.86 0-1.015-.75-1.859-1.797-1.859-1.062 0-1.797.844-1.797 1.86 0 1.015.735 1.86 1.797 1.86zm0-.453C1.47-2.5 1-3.125 1-3.906c0-.781.469-1.406 1.281-1.406.828 0 1.281.625 1.281 1.406 0 .781-.453 1.406-1.28 1.406zm4.563-1.14v-.438h-1v-1.797h-.5v5.281h.5V-3.64zm-.766 4.703V.625H2V-1.25h-.5v2.313zm0 0"/></symbol><symbol overflow="visible" id="bt"><path d="M6.25 1.219v-7.094h-.5v2.953H4.219v.438H5.75v3.703zM3.703-5.266v-.421H1.578v.421zm-.797 1.672v-.328H4.5v-.437H.797v.437H2.39v.328c0 .625-.188 1.203-.5 1.688A4.378 4.378 0 0 1 .39-.531c.14.11.359.25.468.36.422-.345.766-.641 1.063-1 .297-.36.531-.75.734-1.282.188.484.422.89.719 1.234.281.344.61.625 1.031.922.078-.125.25-.281.36-.375a3.882 3.882 0 0 1-1.344-1.234 3.116 3.116 0 0 1-.516-1.688zm0 0"/></symbol><symbol overflow="visible" id="bu"><path d="M6.703-2.25v-.422H.25v.438h2.969v.937C1.78-1.234.953-.687.953.031c0 .766.938 1.328 2.516 1.328 1.61 0 2.515-.562 2.515-1.328 0-.719-.812-1.265-2.25-1.328v-.953zM1.5.031c0-.594.813-.953 1.969-.953 1.14 0 1.969.36 1.969.953 0 .563-.829.922-1.97.922C2.314.953 1.5.593 1.5.031zm2.266-5.265h2.093v-.422H1.08v.422h2.109c-.063.453-.376.78-.813 1.046-.484.297-1.14.47-1.75.594.125.11.266.281.344.39.578-.124 1.125-.296 1.578-.546.39-.219.719-.516.937-.906.25.484.704.797 1.188 1.031.437.203.906.328 1.297.422.125-.14.218-.25.36-.39-.516-.11-1.157-.282-1.657-.548-.469-.265-.828-.609-.906-1.093zm0 0"/></symbol><symbol overflow="visible" id="bv"><path d="M3.656 1.344C5.156 1.344 6 .75 6-.063c0-.812-.844-1.421-2.344-1.421-1.469 0-2.344.609-2.344 1.421 0 .813.875 1.407 2.344 1.407zM1.844-.063c0-.64.797-1 1.812-1 1.063 0 1.844.36 1.844 1 0 .625-.797 1-1.844 1-1 0-1.812-.375-1.812-1zm5-3.812v-.422h-1v-1.578h-.485v4.297h.485v-2.297zm-6.36-.14c0 .968.75 1.78 1.797 1.78s1.781-.812 1.781-1.78c0-.97-.734-1.766-1.78-1.766-1.048 0-1.798.797-1.798 1.765zm.516 0c0-.75.469-1.329 1.281-1.329.828 0 1.281.578 1.281 1.328 0 .735-.453 1.329-1.28 1.329C1.468-2.688 1-3.281 1-4.016zm0 0"/></symbol><symbol overflow="visible" id="bw"><path d="M6.172 1.219v-7.094h-.5v7.094zm-.797-3.344c-.344.063-1.14.125-1.906.156-.844.047-2.828.047-2.938.047v.422h1.86v2.547h.484V-1.5c.75 0 1.969-.125 2.5-.203zM.953-4.235c0 .798.735 1.5 1.781 1.5 1.063 0 1.782-.703 1.782-1.5 0-.796-.72-1.515-1.782-1.515-1.046 0-1.78.719-1.78 1.516zM2.734-3.14c-.843 0-1.296-.546-1.296-1.093 0-.579.453-1.11 1.296-1.11.86 0 1.297.532 1.297 1.11 0 .546-.437 1.093-1.297 1.093zm0 0"/></symbol><symbol overflow="visible" id="aG"><path d="M4.422-2.39a.87.87 0 0 0-.86-.876c-.468 0-.843.391-.843.875 0 .485.375.875.844.875a.87.87 0 0 0 .859-.875zm0 0"/></symbol><symbol overflow="visible" id="aH"><path d="M4.828-2.203C4.5-2.328 3.86-2.797 3.453-3.25c-.375-.438-.625-1.14-.625-1.797v-.64h-.61v.64c0 .64-.25 1.344-.624 1.86-.407.53-1 .953-1.407 1.14l.407.39c.375-.171.86-.53 1.265-1 .344-.421.547-.796.657-1.14.109.344.359.719.671 1.047.391.438 1 .844 1.235.969zm1.594 1.39v-5.093h-.578v5.093zM6.578.954V.47H2.281V-1.22H1.72V.953zm0 0"/></symbol><symbol overflow="visible" id="aI"><path d="M6.406-1.64v-4.266h-.578v1.156H4.453v.5h1.375v.969H4.344v.5h1.484v1.14zM4.203-5.39H.906v.484H3.5c-.047.375-.281 1.093-1.047 1.734-.719.594-1.453.844-1.984 1l.344.406A5.4 5.4 0 0 0 3-2.984c.703-.61 1.11-1.5 1.203-2.407zM6.531-.14c0-.813-.86-1.422-2.515-1.422-1.625 0-2.5.609-2.5 1.421 0 .813.875 1.391 2.5 1.391C5.672 1.25 6.53.672 6.53-.14zm-.61 0c0 .562-.78.921-1.89.921-1.125 0-1.906-.36-1.906-.922 0-.578.781-.921 1.906-.921 1.11 0 1.89.343 1.89.921zm0 0"/></symbol><symbol overflow="visible" id="aJ"><path d="M5.14.797V-5.75h-.562v2.328H3.297v.516h1.281V.797zm1.423.328v-7.031H6v7.031zM4.03-.641a4.512 4.512 0 0 1-1-1.109c-.453-.719-.594-1.625-.594-2.281v-1.313h-.593v1.313c0 .64-.125 1.328-.485 2.078C1.016-1.266.47-.734.094-.437l.484.328c.36-.313.75-.72 1.031-1.204.313-.5.454-.89.516-1.156.078.281.313.828.625 1.266.297.422.61.719.875.922zm0 0"/></symbol><symbol overflow="visible" id="aK"><path d="M6.156-4.734v-.5H.97v.5zM6.97.187v-.484h-3.11v-1.61h2.47v-.484H5.187l.156-2.093h-.578l-.157 2.093H2.516l-.157-2.093h-.578l.157 2.093H.796v.485h2.469v1.61H.156v.483zm0 0"/></symbol><symbol overflow="visible" id="aL"><path d="M3.688-5.39v-.47h-2.25v.47zm1.046 1.046v-.468H.438v.468zm2.407.938v-.5H6.109v-2h-.562v4.484h.562v-1.984zM2.578-1.641c1.14 0 1.813-.5 1.813-1.14 0-.656-.657-1.156-1.797-1.156-1.125 0-1.813.5-1.813 1.156 0 .64.688 1.14 1.797 1.14zM6.11 1.125V-.969H1.25V-.5h4.297v1.625zM3.781-2.797c0 .406-.406.703-1.187.703S1.39-2.39 1.39-2.797c0-.39.421-.687 1.203-.687.781 0 1.187.296 1.187.687zm0 0"/></symbol><symbol overflow="visible" id="aN"><path d="M3.906-2.094v-3.484h-.578v1.25h-2.14v-1.25H.625v3.484zM7-3.672v-.484H5.969v-1.75h-.563v4.203h.563v-1.969zM5.969 1.125v-2.39H1.172v.5H5.39v1.89zm-2.64-3.719H1.186v-1.234h2.141zm0 0"/></symbol><symbol overflow="visible" id="aO"><path d="M4.828-.719c-.422-.234-1.016-.687-1.422-1.297-.484-.703-.64-1.484-.64-2.25V-5.5h-.61v1.234c0 .766-.187 1.61-.594 2.266-.406.61-1 1.156-1.515 1.469l.469.39c.375-.234.843-.656 1.203-1.109.437-.594.672-1.11.75-1.406.094.297.328.828.75 1.344.406.5.89.828 1.203 1.03zm1.234-5.187h-.578v7.031h.579v-3.656h1.109v-.531h-1.11zm0 0"/></symbol><symbol overflow="visible" id="aP"><path d="M6.969-1.969v-.484h-3.11v-.953h2.266v-.485H1.656v-1.25h4.39v-.5H1.079v2.235h2.188v.953H.156v.484zm-.766 1.89c0-.765-.937-1.327-2.64-1.327-1.688 0-2.626.562-2.626 1.328 0 .765.938 1.344 2.625 1.344 1.704 0 2.641-.579 2.641-1.344zm-4.64 0c0-.53.812-.859 2-.859 1.171 0 2 .329 2 .86 0 .515-.829.86-2 .86-1.188 0-2-.345-2-.86zm0 0"/></symbol><symbol overflow="visible" id="aQ"><path d="M6.969-2.531v-.5H5.75c.047-.172.156-.656.25-1.156.078-.47.156-.938.188-1.391H.968v.5h4.563c-.078.734-.297 1.75-.375 2.047h-5v.5h3v1.484H.984v.5H5.47v1.672h.578v-2.172H3.766V-2.53zm0 0"/></symbol><symbol overflow="visible" id="aR"><path d="M3.797-.688v-.5c-.281.047-.844.141-1.297.157l-1.125.015V-4.5h1.844V-5H.797v4.484c.047 0 .844.016 1.547-.015s1.203-.11 1.453-.156zM6.39 1.125v-7.031h-.563v2.781H4.766V-5.75h-.563V.797h.563V-2.61h1.062v3.734zm0 0"/></symbol><symbol overflow="visible" id="aS"><path d="M6.172-5.047H.984v.484h4.563C5.516-3.484 5.14-1.39 5.109-1.28h.579c0-.047.171-.922.28-1.797.095-.703.173-1.235.204-1.969zM6.969.125v-.5H4.25v-2.5h-.578v2.5H2.469v-2.5H1.89v2.5H.156v.5zm0 0"/></symbol><symbol overflow="visible" id="aT"><path d="M6.547-3.172c-.344-.078-1.11-.328-1.719-.781-.61-.453-.953-1-.953-1.5v-.344H3.25v.344c0 .5-.344 1.047-.953 1.5-.61.453-1.36.703-1.703.781l.36.406C1.25-2.844 2-3.094 2.593-3.53c.5-.39.875-.86.969-1.11.093.25.468.72.984 1.11.578.437 1.328.687 1.64.765zm.422 1.64v-.5H.156v.5h3.11v2.657h.593v-2.656zm0 0"/></symbol><symbol overflow="visible" id="aU"><path d="M4.11-.656c-.266-.188-.641-.516-1.032-1.11-.375-.593-.562-1.453-.562-2.187v-.578h1.28v-.5H.626v.5h1.297v.578c0 .719-.172 1.406-.484 2.031A5.029 5.029 0 0 1 .202-.438l.469.36c.328-.297.734-.75 1.015-1.188.297-.468.47-.875.532-1.14.062.25.281.765.578 1.172.328.437.672.78.922.968zm2.515 1.781v-7.031h-.563v2.828h-.984V-5.75h-.562V.797h.562v-3.344h.984v3.672zm0 0"/></symbol><symbol overflow="visible" id="aV"><path d="M6.672-.125c0-.813-.906-1.406-2.594-1.406-1.687 0-2.594.593-2.594 1.406 0 .797.907 1.375 2.594 1.375 1.688 0 2.594-.578 2.594-1.375zm-.61 0c0 .563-.828.906-1.984.906-1.172 0-1.984-.344-1.984-.906 0-.563.812-.922 1.984-.922 1.156 0 1.984.36 1.984.922zm.532-1.484v-4.297H6.03v1.734h-.984v-1.61h-.563v3.954h.563v-1.844h.984v2.063zM4.172-2.5c-.25-.094-.734-.453-1.11-.922-.312-.406-.53-.953-.53-1.672v-.593h-.595v.593c0 .719-.265 1.344-.578 1.797-.343.5-.921.938-1.156 1.063l.438.375c.234-.125.64-.454 1-.891.343-.438.562-.89.593-1.031.047.156.297.594.61.937.344.39.765.688.953.781zm0 0"/></symbol><symbol overflow="visible" id="aW"><path d="M4.719-3.734c0-.938-.797-1.72-1.89-1.72-1.11 0-1.892.782-1.892 1.72C.938-2.781 1.72-2 2.829-2c1.094 0 1.89-.781 1.89-1.734zm1.765 4.859v-7.031h-.593v7.031zM5.625-.547v-.5c-.594.078-1.86.14-2.86.156L.5-.875v.5l2.234-.016c.922-.015 2.391-.093 2.891-.156zM4.109-3.734c0 .671-.453 1.218-1.28 1.218-.845 0-1.298-.546-1.298-1.218 0-.657.453-1.204 1.297-1.204.828 0 1.281.547 1.281 1.204zm0 0"/></symbol><symbol overflow="visible" id="aX"><path d="M6.188-5.578H.968v.5h4.563c-.062.672-.328 1.89-.343 1.953h.578c.015-.016.125-.453.265-1.219.047-.328.125-.781.157-1.234zm.78 3.422v-.5H3.423v-1.485h-.594v1.485H.156v.5zm-.75 2.015c0-.796-.968-1.39-2.655-1.39-1.688 0-2.641.593-2.641 1.39 0 .813.953 1.391 2.64 1.391C5.266 1.25 6.22.672 6.22-.14zm-2.655-.89c1.187 0 2.03.328 2.03.89 0 .579-.843.907-2.03.907C2.375.766 1.53.437 1.53-.141c0-.562.844-.89 2.032-.89zm0 0"/></symbol><symbol overflow="visible" id="aY"><path d="M4.11-2.172c-.22-.11-.735-.5-1.079-.969-.297-.421-.562-1.093-.562-1.734v-.813h-.594v.813c0 .656-.234 1.297-.563 1.766-.359.53-.859.937-1.187 1.156l.469.375c.234-.14.64-.5 1-.953.297-.39.531-.89.578-1.047.047.172.25.578.578.969.328.406.781.75.969.859zm1.015 1.25v-4.86h-.563v1.563h-1.25v.5h1.25v2.797zm1.453.156v-5.14H6v5.14zm.203 1.72V.468H2.344V-1.22h-.578V.953zm0 0"/></symbol><symbol overflow="visible" id="aZ"><path d="M4.844-.563v-.5c-.422.063-1.078.125-1.719.157-.734.031-1.656.015-1.703.015v-1.718h2.531v-.5H1.422v-1.547h2.672v-.5H.844v4.765c.062 0 1.39.016 2.265-.03a19.96 19.96 0 0 0 1.735-.142zm1.422 1.688v-7.031h-.579v2.625H4.329v.484h1.36v3.922zm0 0"/></symbol><symbol overflow="visible" id="ba"><path d="M6.172-5.906h-.563v4.281h.563v-2.078h1.047v-.5H6.172zM4.766-2.578c-.266-.078-.891-.36-1.297-.766-.344-.344-.578-.828-.61-1.422v-.171h1.547v-.485H.72v.484H2.25v.172a2.342 2.342 0 0 1-.594 1.47c-.437.468-1.015.78-1.39.952l.406.406a3.96 3.96 0 0 0 1.14-.75c.36-.359.61-.687.75-1 .157.329.344.563.688.891.422.39.984.61 1.172.672zM6.39-.11c0-.782-.875-1.36-2.516-1.36-1.64 0-2.531.578-2.531 1.36 0 .796.89 1.359 2.531 1.359 1.64 0 2.516-.563 2.516-1.36zm-.61.015c0 .531-.797.875-1.906.875-1.125 0-1.906-.344-1.906-.875 0-.547.781-.89 1.906-.89 1.11 0 1.906.343 1.906.89zm0 0"/></symbol><symbol overflow="visible" id="bb"><path d="M7.406-7.156l.047 3.25c.016.797.078 1.36.344 1.344.297-.016.625-.672.625-1.813L8.39-7.156c0-.532.234-.844-.157-1-.296-.11-1.109-.235-1.265-.25-.688-.047-.703.281-.282.469.516.218.72.328.72.78zm-1.765.078c-.125-.016-.86-.078-1.094.031-.281.14-1.11.156-1.906.156-.454 0-.907-.046-1.063-.062-.594-.063-.719.14-.25.437.969.61 1.125.297 1.406.235.016 0 .266-.078.485-.094.297 0 .812-.078 1.344-.11C3.625-4.452 1.765-2.734.75-2.202c-.281.156.016.437.656.156 1.188-.5 3.016-2.078 4.11-4.015.187-.329.671-.875.125-1.016zm1.546 5.39L7.173.672H4.469l-.032-2.36zM8.422.922c0-.156-.266-.235-.39-.25l.234-2.203c.03-.282.515-.532 0-.766-.344-.156-.875-.062-1.188.016-.172.078-2.406.078-2.531.078-.188 0-.61-.156-1.281-.125-.532.015-.766.39-.5.453.328.094.578.14.609.406l.156 2.547c.016.422.219.64.438.64.156 0 .422-.218.469-.484.375 0 2.218-.03 3.484-.03.312 0 .5-.095.5-.282zm0 0"/></symbol><symbol overflow="visible" id="bc"><path d="M8.86.5C8.53.453 7.905.469 7.702.61c-.219.156-.516.171-.75.171L5.141.797c-.172 0-.329-.094-.329-.297V-.828c0-.39.22-.672-.328-.75-.296-.031-.875-.063-1.203-.031-.906.093-.469.406-.156.484.453.078.61.188.61.547V.5c0 .703.53.828 1.109.828l3.922-.047c.703 0 .875-.593.093-.781zM7.483-7.156l.047 5.25c.016.781.047 1.484.36 1.484.328-.016.609-.828.609-2l-.031-4.734c0-.532.25-.844-.156-1-.282-.11-1.11-.235-1.266-.25-.688-.047-.703.281-.281.469.515.218.718.328.718.78zM4-4.094c.578.5 1.375 1.266 1.781 1.594.563.469.969.234.719-.297-.047-.11-.406-.719-.719-.953-.265-.156-.281-.031-.578-.172-.125-.047-.469-.328-.812-.61.375-.437.765-.984 1.125-1.515.296-.406.609-.86.14-1.031-.11-.031-.906-.078-1.11.031-.296.156-1.015.172-1.796.172-.469 0-.875-.047-1.016-.063-.609-.078-.734.172-.28.438.937.531 1.124.375 1.405.234 0 0 .235-.046.47-.078.296-.015.671-.078 1.171-.11C3.547-4.562 1.828-2.905.734-2.312c-.234.141-.14.485.594.188.656-.25 1.625-.906 2.672-1.969zm0 0"/></symbol><symbol overflow="visible" id="bd"><path d="M8.516.094L8.5-1.328c.016-.344.36-.672-.219-.797-.328-.047-.687 0-1.047.11-.343.093-3.359.156-4.203.03-.937-.109-.625.298-.39.423 1.484.812 1.562.25 2.234.218.016 0 2.219-.078 2.61-.093L7.514.5c.016.625.173 1.266.391 1.25.25 0 .625-.734.61-1.656zm-.891-5.657c-.656.032-1.625.094-2.11.032-.827-.078-.577.281-.312.422 1.078.578 1.25.312 1.438.25.015 0 .28-.11.53-.141.016-.016.282-.016.47-.031l.015 1.406c.016.797.078 1.328.344 1.313.297 0 .625-.641.625-1.782l-.031-3.062c0-.532.234-.844-.172-1-.281-.11-1.094-.235-1.25-.25-.688-.047-.703.281-.281.469.515.218.718.328.718.78zM3.5-4.671A78.201 78.201 0 0 1 5.14-3c.532.531.97.313.782-.25-.047-.11-.39-.719-.703-.984-.25-.141-.235-.032-.547-.22-.14-.077-.516-.374-.828-.687.265-.39.578-.921.765-1.28.172-.298.313-.438-.109-.766-.234-.188-.938-.485-1.125-.5-.672-.094-.61.171-.203.437.453.281.406.469.297.75C2.797-4.875 1.594-3.531.656-2.906c-.406.281-.031.547.563.219.906-.47 1.672-1.25 2.281-1.985zm0 0"/></symbol><symbol overflow="visible" id="bf"><path d="M7.969.344C7.656.297 7 .297 6.797.438c-.203.124-.484.156-.688.156L4.83.609C4.671.61 4.53.516 4.53.33V-.735c0-.36.203-.641-.297-.735-.265-.031-.984-.078-1.296-.047-.797.094-.407.422-.141.5.406.094.562.266.562.547V.47c0 .64.485.75 1 .75l3.516-.047c.64 0 .797-.672.094-.828zM6.625-4.578c-.531 0-1.172.031-1.516 0-.78-.078-.437.281-.25.422.844.64 1.016.36 1.266.281 0 0 .234-.063.469-.094h.047l.015 2.047c.016 1.078.125 1.516.407 1.5.328-.016.687-.64.671-1.969L7.72-6.484c0-.5.218-.797-.157-.938-.265-.11-1.171-.219-1.343-.234-.625-.016-.64.328-.266.5.484.218.656.406.656.781zM5.703-2.5c-.031-.078-.344-.688-.625-.922-.219-.156-.25-.047-.5-.187-.11-.063-.36-.282-.594-.485.36-.406.688-.89 1-1.36.204-.296.563-.78.063-.968-.11-.031-.969-.078-1.172.031-.25.11-.656.125-1.36.125-.437 0-.89-.046-1.03-.062-.563-.063-.626.219-.235.484.922.625 1.094.407 1.36.282 0 0 .203-.063.406-.094.265-.016.421-.047.78-.078C3-4.141 1.595-2.656.595-2.063c-.203.141-.063.5.61.235.624-.25 1.577-.922 2.359-1.766A34.49 34.49 0 0 1 4.89-2.219c.5.547 1.015.25.812-.281zm0 0"/></symbol><symbol overflow="visible" id="bg"><path d="M5.922-6.344l-.078 1.766-2.422.031-.063-1.766zm1.297 2.078c0-.25-.25-.312-.375-.312l.265-1.625c.063-.313.485-.61.016-.844-.328-.125-1-.047-1.281.063-.14.062-2.297.062-2.422.062-.203 0-.906-.156-1.375-.125-.547.063-.672.438-.422.516.313.093.563.218.578.453l.172 1.984c.031.453.281.61.469.61.187 0 .484-.172.547-.422.171 0 2.453-.031 3.312-.047.266 0 .516-.11.516-.313zm.156 4.61C7.062.297 6.406.297 6.203.438 6 .561 5.72.594 5.516.594l-1.75.015c-.157 0-.313-.093-.313-.28v-.845c0-.359.203-.64-.281-.734-.281-.031-.969-.078-1.266-.047-.828.094-.422.422-.156.5.406.094.563.266.563.547v.719c0 .64.484.75 1 .75l3.968-.047c.64 0 .797-.672.094-.828zM4.328-2.25l.016.734c0 1.032.125 1.438.406 1.422.328-.031.719-.578.703-1.828l-.016-.344c1.141-.015 1.86-.015 2.438.032.61.03 1.125.03 1.156-.391.031-.563-1.5-.594-2.172-.328-.296.14-1.843.125-2.28.125l-2.063.015c-.829 0-1.313-.078-1.86-.124-.594-.032-.812.234-.234.546 1.547.907 1.656.297 2.265.25.032 0 .516-.078 1.641-.109zm0 0"/></symbol><symbol overflow="visible" id="bh"><path d="M7.844-4.016l-.032-2.468c0-.5.22-.797-.156-.938-.25-.11-1.156-.219-1.343-.234-.625-.016-.641.328-.266.5.484.218.672.406.672.781l.031 2.781c.016 1.063.14 1.375.406 1.344.313 0 .703-.469.688-1.766zm-2.235.797c-.046-.11-.343-.594-.656-.86-.234-.124-.328-.046-.562-.171-.172-.094-.454-.297-.75-.516.25-.359.515-.812.687-1.109.14-.25.25-.438-.11-.688-.234-.156-.937-.468-1.218-.484-.61-.016-.484.219-.188.453.344.25.329.453.25.657C2.485-4.579 1.438-3.329.579-2.75c-.375.266-.047.547.531.281.829-.375 1.61-1.14 2.141-1.75.563.469 1.266 1.047 1.625 1.36.547.406.953.109.734-.36zM7.813.797C7.827.609 7.577.516 7.452.5l.203-1.672c.032-.266.485-.61 0-.828-.312-.125-.937-.063-1.218.031-.172.063-1.829.063-1.907.063-.187 0-.703-.157-1.343-.125-.532.047-.75.422-.485.5.313.078.563.156.578.406L3.406.953c.016.406.25.61.5.61.188 0 .485-.204.547-.438.328 0 1.766-.016 2.906-.016.25 0 .438-.14.454-.312zM6.484-1.328L6.47.5h-2l-.032-1.813zm0 0"/></symbol><symbol overflow="visible" id="bi"><path d="M4.672-4.563c0 .641-.422 1.141-1.047 1.141s-1.063-.5-1.063-1.14c0-.672.438-1.172 1.063-1.172s1.047.515 1.047 1.171zm1.125.016c0-1.5-1.547-1.75-1.625-1.75 0-.156.14-.187.031-.375-.14-.25-1.219-.375-1.219 0 0 .14.297.172.11.375 0 0-1.656.25-1.656 1.766 0 1.187 1.156 1.875 2.187 1.875 1.047 0 2.172-.688 2.172-1.89zm.969 2.484c-1.125.172-3.438.454-4.61.454-.36 0-.812-.032-1.11-.063-.78-.062-.655.328-.171.61 1.313.812 1.422.312 2 .203.938-.094 2.797-.407 3.89-.641l.016 1.344c.016 1.218.11 1.86.422 1.843.422-.03.688-.843.672-2.359l-.031-5.812c0-.5.218-.797-.157-.938-.25-.11-1.156-.219-1.343-.234-.625-.016-.64.328-.266.5.484.218.672.406.672.781zm0 0"/></symbol><symbol overflow="visible" id="bj"><path d="M4.61-5.078c0 .562-.407 1-.954 1-.562 0-.969-.438-.969-1 0-.531.407-1 .97-1 .562 0 .952.484.952 1zm1.109.031c0-1.36-1.5-1.578-1.5-1.594-.032-.156.125-.171.031-.343-.156-.235-1.234-.36-1.234 0 0 .125.296.14.109.343 0 .016-1.547.235-1.547 1.594 0 1.078 1.063 1.734 2.078 1.734 1.031 0 2.063-.656 2.063-1.734zm1.11 1.984c-1.126.188-3.454.454-4.641.454-.376 0-.813-.032-1.11-.063-.797-.047-.656.328-.187.61 1.312.796 1.421.312 2 .203.078-.016.156-.016.234-.032l.016 1.516c0 1.188.125 1.797.421 1.766.422-.032.704-.829.688-2.266l-.031-1.156c.89-.14 1.922-.313 2.61-.469l.015 2.344c.015 1.218.125 1.86.422 1.843.421-.03.687-.843.671-2.359l-.03-5.812c0-.5.218-.797-.141-.938-.266-.11-1.172-.219-1.36-.234-.625-.016-.625.328-.25.5.469.218.657.406.657.781zm0 0"/></symbol><symbol overflow="visible" id="bk"><path d="M4.469-5.297c0 .5-.407.906-.89.906-.5 0-.892-.406-.892-.906s.391-.906.891-.906c.485 0 .89.406.89.906zm1.093.031c0-1.296-1.453-1.468-1.453-1.484 0-.156.141-.156.032-.313-.125-.218-1.172-.359-1.172 0 0 .125.281.11.11.313 0 .016-1.5.188-1.5 1.484 0 1 1 1.61 2 1.61 1.015 0 1.983-.61 1.983-1.61zM8.235.344C7.922.297 7.281.297 7.063.438c-.188.124-.47.156-.688.156l-1.64.015c-.157 0-.313-.093-.313-.28v-.595c0-.359.203-.64-.281-.718-.282-.047-.985-.094-1.282-.063-.812.094-.406.422-.14.5.406.094.562.281.562.563v.453c0 .64.485.75.985.75l3.875-.047c.64 0 .796-.672.093-.828zM3.016-2.531v.234c.015.735.156 1.125.421 1.125.344-.016.657-.578.672-1.5.672-.11 1.391-.219 1.938-.36.344-.077.469-.25.36-.405-.063-.126-.141-.157-.423-.11-1.062.156-2.796.328-3.906.328a10.1 10.1 0 0 1-1-.062c-.781-.078-.656.25-.203.531 1.281.797 1.328.344 1.86.25.093-.016.187-.031.28-.031zm3.859.297c-.563.015-1.406.03-1.813 0-.796-.079-.453.296-.265.437.844.64 1.016.328 1.266.266.015 0 .25-.078.468-.11 0 0 .188 0 .36-.015.015.89.14 1.25.39 1.234.328-.016.688-.64.688-1.969l-.032-4.093c0-.5.22-.797-.156-.938-.25-.11-1.172-.219-1.343-.234-.625-.016-.641.328-.25.5.468.218.656.406.656.781zm0 0"/></symbol><symbol overflow="visible" id="bl"><path d="M5.172-1.172c.5 0 .86.438.86.984 0 .563-.36 1-.86 1-.531 0-.875-.437-.875-1 0-.546.36-.984.875-.984zm2 1.016c0-1.344-1.484-1.532-1.484-1.547 0-.156.156-.156.03-.328-.155-.188-1.14-.313-1.14 0 0 .11.25.156.094.328 0 0-1.531.203-1.531 1.547 0 1 .906 1.703 2.03 1.703 1.141 0 2-.703 2-1.703zM5.547-2.97c-.047-.094-.375-.61-.672-.828-.219-.14-.281-.031-.531-.14a7.413 7.413 0 0 1-.61-.391c.329-.39.657-.797.97-1.25.202-.297.562-.797.062-.969-.11-.016-.97-.078-1.188.031-.25.11-.703.141-1.422.141-.422 0-.875-.063-1.015-.078-.563-.063-.625.219-.235.484.922.61 1.094.407 1.344.282.203-.032.219-.079.406-.094.266-.016.5-.063.86-.078C2.703-4.313 1.234-2.953.234-2.375c-.203.125-.062.484.61.219.61-.235 1.5-.766 2.453-1.688.484.39 1.094.89 1.453 1.203.563.438 1.031.157.797-.328zm1.64-.937H8.61c.657 0 .782-.688.094-.828-.297-.032-.765-.047-.86.062-.14.14-.421.172-.671.203l-.016-2.015c0-.5.219-.797-.14-.938-.266-.11-1.172-.219-1.344-.234-.64-.016-.64.328-.266.5.469.218.657.406.657.781l.046 3.36c.016.968.125 1.312.407 1.296.296-.015.687-.422.671-1.703zm0 0"/></symbol><symbol overflow="visible" id="bx"><path d="M1.344-8.563h2.312v1.47c0 .405-.082.788-.234 1.14a3.565 3.565 0 0 1-.625.969 5.45 5.45 0 0 1-.938.906 11.87 11.87 0 0 1-1.171.766l.765.796c.59-.363 1.133-.75 1.625-1.156.488-.414.89-.86 1.203-1.328.414.398.867.793 1.36 1.188A64 64 0 0 0 7-2.75l.75-.828a24.182 24.182 0 0 1-1.531-1.156 21.43 21.43 0 0 1-1.453-1.282c.05-.152.086-.312.109-.468.027-.164.047-.336.047-.516v-1.563H7.25v-1H1.344zM9.172-1.25h1.265v-8.969l-1.265.203v2.86H6.75v1.031h2.422zm-5.89-.578V1.14c0 .332.062.566.187.703.133.144.398.218.797.218h6.453V1.048H4.766c-.086 0-.137-.02-.157-.047-.023-.031-.03-.09-.03-.172v-2.656zm0 0"/></symbol><symbol overflow="visible" id="by"><path d="M6.86-.469v-2.687h4.593v-1.031H.422v1.03h5.14v2.688zM2.03-1.829v2.97c0 .332.063.566.188.703.133.144.394.218.781.218h6.938V1.048H3.516c-.086 0-.145-.02-.172-.047C3.32.969 3.313.91 3.313.828v-2.656zm1.422-6.968H8.36v2.25H3.703c-.105 0-.176-.016-.203-.047-.031-.039-.047-.101-.047-.187zM2.172-6.453c0 .355.078.598.234.719.153.125.39.187.703.187h6.547v-4.25H2.172zm0 0"/></symbol><symbol overflow="visible" id="bz"><path d="M3.203 1.344c0 .332.078.566.235.703.164.144.406.219.718.219h6.282V-2.47H3.202zm1.594-9.797c0-.29-.024-.563-.063-.813a4.186 4.186 0 0 0-.187-.796l-1.188.359a4.532 4.532 0 0 1 .172 1.14v.516c0 .406-.058.777-.172 1.11A3.33 3.33 0 0 1 2.83-6c-.243.305-.552.605-.923.906-.375.293-.82.606-1.328.938l.813.828a13.79 13.79 0 0 0 1.656-1.219 5.525 5.525 0 0 0 1.156-1.36c.445.43.926.868 1.438 1.313.52.45.976.817 1.375 1.094l.765-.86a14.24 14.24 0 0 1-1.578-1.202 36.878 36.878 0 0 1-1.531-1.422c.027-.145.055-.29.078-.438.027-.152.047-.32.047-.5zm-.328 6.969h4.703V1.28H4.64c-.075 0-.121-.011-.141-.031-.023-.023-.031-.074-.031-.156zm4.703-1.844h1.265v-6.89l-1.265.202zm0 0"/></symbol><symbol overflow="visible" id="bA"><path d="M10.547-10.219l-1.266.203V1.516h1.266zM8.657-3.03a62.34 62.34 0 0 1-3.813.5A105.12 105.12 0 0 1 1-2.203l.078 1.047a82.57 82.57 0 0 0 1.906-.157c.696-.058 1.391-.132 2.079-.218a68.92 68.92 0 0 0 2-.235c.652-.09 1.226-.18 1.718-.265zM4.577-9.72c-.95 0-1.71.242-2.281.719-.563.469-.844 1.09-.844 1.86v.39c0 .762.274 1.379.828 1.844.551.468 1.317.703 2.297.703.457 0 .879-.063 1.266-.188a3.187 3.187 0 0 0 1-.515c.27-.227.484-.5.64-.813.153-.308.235-.656.235-1.031v-.39A2.33 2.33 0 0 0 6.829-9a3.135 3.135 0 0 0-1-.531 4.168 4.168 0 0 0-1.25-.188zM6.5-6.829c0 .481-.18.88-.531 1.188-.344.313-.809.47-1.39.47-.587 0-1.052-.157-1.391-.47-.336-.308-.5-.707-.5-1.187v-.234c0-.56.171-.985.515-1.266.34-.277.8-.422 1.375-.422.582 0 1.047.148 1.39.438.352.292.532.71.532 1.25zm0 0"/></symbol><symbol overflow="visible" id="bB"><path d="M8.656-4.078c-.68.105-1.34.207-1.984.297-.637.086-1.274.16-1.906.219-.649.074-1.305.144-1.97.203-.655.054-1.347.101-2.062.14l.094 1.047c.164-.008.375-.02.625-.031.246-.02.52-.047.813-.078.277-.02.562-.04.843-.063.278-.027.536-.062.766-.094v3.704h1.281v-3.86c.676-.07 1.336-.148 1.985-.234.652-.082 1.203-.16 1.64-.235zm1.89-6.14l-1.265.202V1.516h1.266zM4.47-4.579c.933 0 1.687-.234 2.25-.703.57-.477.86-1.098.86-1.86v-.203c0-.746-.294-1.36-.876-1.828-.574-.465-1.32-.703-2.234-.703-.98 0-1.746.242-2.297.719-.555.469-.828 1.074-.828 1.812v.203c0 .75.273 1.368.828 1.844.55.48 1.316.719 2.297.719zM6.344-7.25c0 .531-.176.945-.516 1.234-.336.293-.789.438-1.36.438-.624 0-1.1-.14-1.421-.422-.313-.29-.469-.707-.469-1.25 0-.465.16-.852.485-1.156.32-.309.789-.469 1.406-.469.57 0 1.023.16 1.36.469.339.304.515.691.515 1.156zm0 0"/></symbol><symbol overflow="visible" id="bC"><path d="M9.297-.375h1.25v-9.844l-1.25.172v7.297H6.469v.969h2.828zm-4.75-4.86c.883 0 1.598-.187 2.14-.562.54-.383.813-.96.813-1.734v-.203c0-.746-.285-1.313-.844-1.688-.562-.383-1.27-.578-2.11-.578-.898 0-1.616.195-2.155.578-.532.375-.797.942-.797 1.688v.203c0 .75.258 1.324.781 1.718.52.387 1.242.579 2.172.579zm1.75-2.406c0 .532-.164.91-.484 1.125-.313.22-.739.329-1.266.329-.563 0-.996-.11-1.297-.329-.305-.214-.453-.593-.453-1.125 0-.464.148-.82.453-1.062.309-.246.742-.375 1.297-.375.52 0 .941.129 1.266.375.32.242.484.598.484 1.062zM2.969-1.062V1.14c0 .332.062.566.187.703.133.144.395.218.781.218h6.954V1.048H4.453c-.086 0-.144-.02-.172-.047C4.258.969 4.25.91 4.25.828v-1.89zm5.703-3.97c-.586.095-1.211.18-1.875.25-.656.063-1.324.122-2 .173-.668.043-1.34.086-2.016.125-.668.03-1.308.058-1.922.078l.079 1.015c.414-.007.843-.03 1.28-.062.446-.027.884-.063 1.313-.094v1.89h1.297v-2c.29-.007.617-.03.984-.062.364-.027.727-.062 1.094-.094.352-.027.692-.062 1.016-.093.332-.04.613-.082.844-.125zm0 0"/></symbol></defs><g fill="#393536"><use xlink:href="#a" x="535.245" y="48.426"/><use xlink:href="#b" x="540.818" y="48.426"/><use xlink:href="#c" x="546.392" y="48.426"/></g><g fill="#4f4c4d"><use xlink:href="#d" x="336.467" y="47.727"/><use xlink:href="#e" x="344.467" y="47.727"/><use xlink:href="#f" x="352.468" y="47.727"/><use xlink:href="#g" x="360.468" y="47.727"/><use xlink:href="#h" x="368.468" y="47.727"/><use xlink:href="#i" x="371.075" y="47.727"/><use xlink:href="#j" x="379.075" y="47.727"/><use xlink:href="#k" x="387.076" y="47.727"/><use xlink:href="#l" x="395.076" y="47.727"/><use xlink:href="#m" x="403.076" y="47.727"/><use xlink:href="#n" x="411.076" y="47.727"/><use xlink:href="#d" x="419.077" y="47.727"/><use xlink:href="#e" x="427.077" y="47.727"/></g><use xlink:href="#o" x="435.076" y="47.727" fill="#231f20"/><g fill="#231f20"><use xlink:href="#p" x="437.683" y="47.727"/><use xlink:href="#q" x="445.683" y="47.727"/><use xlink:href="#r" x="453.684" y="47.727"/><use xlink:href="#s" x="461.684" y="47.727"/><use xlink:href="#t" x="469.684" y="47.727"/><use xlink:href="#u" x="477.684" y="47.727"/><use xlink:href="#v" x="485.685" y="47.727"/><use xlink:href="#w" x="493.685" y="47.727"/><use xlink:href="#x" x="496.292" y="47.727"/><use xlink:href="#y" x="501.703" y="47.727"/><use xlink:href="#z" x="506.503" y="47.727"/><use xlink:href="#A" x="508.436" y="47.727"/><use xlink:href="#w" x="511.043" y="47.727"/><use xlink:href="#B" x="513.65" y="47.727"/><use xlink:href="#C" x="517.605" y="47.727"/></g><g clip-path="url(#D)"><path d="M-610.125 425.262H620.031" fill="none" stroke-width=".499395" stroke="#cabfbb" stroke-dasharray="2.003,2.003"/></g><use xlink:href="#E" x="215.171" y="628.348" fill="#8a8e98"/><g fill="#33459a"><use xlink:href="#F" x="224.675" y="628.947"/><use xlink:href="#G" x="236.651" y="628.947"/><use xlink:href="#H" x="248.626" y="628.947"/></g><g fill="#231f20"><use xlink:href="#I" x="215.171" y="645.531"/><use xlink:href="#J" x="222.069" y="645.531"/><use xlink:href="#K" x="228.967" y="645.531"/><use xlink:href="#L" x="235.865" y="645.531"/><use xlink:href="#M" x="238.113" y="645.531"/><use xlink:href="#K" x="245.011" y="645.531"/><use xlink:href="#L" x="251.909" y="645.531"/><use xlink:href="#N" x="254.157" y="645.531"/><use xlink:href="#O" x="261.055" y="645.531"/><use xlink:href="#P" x="267.953" y="645.531"/><use xlink:href="#L" x="270.2" y="645.531"/><use xlink:href="#Q" x="272.448" y="645.531"/><use xlink:href="#R" x="279.346" y="645.531"/><use xlink:href="#K" x="286.244" y="645.531"/><use xlink:href="#L" x="293.142" y="645.531"/><use xlink:href="#S" x="295.39" y="645.531"/><use xlink:href="#O" x="302.288" y="645.531"/></g><g fill="#231f20"><use xlink:href="#I" x="215.171" y="657.933"/><use xlink:href="#T" x="222.069" y="657.933"/><use xlink:href="#U" x="228.967" y="657.933"/><use xlink:href="#V" x="235.865" y="657.933"/><use xlink:href="#K" x="242.763" y="657.933"/><use xlink:href="#W" x="249.661" y="657.933"/><use xlink:href="#X" x="256.559" y="657.933"/><use xlink:href="#Y" x="263.457" y="657.933"/><use xlink:href="#L" x="270.355" y="657.933"/><use xlink:href="#Z" x="272.603" y="657.933"/><use xlink:href="#aa" x="279.501" y="657.933"/><use xlink:href="#ab" x="286.399" y="657.933"/><use xlink:href="#ac" x="293.297" y="657.933"/><use xlink:href="#ad" x="300.195" y="657.933"/><use xlink:href="#L" x="307.093" y="657.933"/><use xlink:href="#W" x="309.341" y="657.933"/><use xlink:href="#ae" x="316.239" y="657.933"/></g><use xlink:href="#I" x="215.171" y="670.335" fill="#231f20"/><use xlink:href="#L" x="222.069" y="670.335" fill="#231f20"/><g fill="#231f20"><use xlink:href="#M" x="222.069" y="670.335"/><use xlink:href="#af" x="228.967" y="670.335"/><use xlink:href="#ag" x="235.865" y="670.335"/><use xlink:href="#ah" x="242.763" y="670.335"/><use xlink:href="#ai" x="249.661" y="670.335"/><use xlink:href="#Y" x="256.559" y="670.335"/><use xlink:href="#L" x="263.457" y="670.335"/><use xlink:href="#aj" x="265.705" y="670.335"/><use xlink:href="#ak" x="272.603" y="670.335"/><use xlink:href="#al" x="279.501" y="670.335"/><use xlink:href="#am" x="286.399" y="670.335"/><use xlink:href="#an" x="293.297" y="670.335"/><use xlink:href="#ao" x="300.195" y="670.335"/><use xlink:href="#L" x="307.093" y="670.335"/><use xlink:href="#ap" x="309.341" y="670.335"/><use xlink:href="#aq" x="316.239" y="670.335"/><use xlink:href="#ar" x="323.137" y="670.335"/><use xlink:href="#as" x="330.035" y="670.335"/><use xlink:href="#at" x="336.933" y="670.335"/></g><g fill="#231f20"><use xlink:href="#ab" x="222.147" y="681.322"/><use xlink:href="#au" x="229.045" y="681.322"/><use xlink:href="#av" x="235.943" y="681.322"/><use xlink:href="#L" x="242.841" y="681.322"/><use xlink:href="#av" x="245.089" y="681.322"/><use xlink:href="#aw" x="251.987" y="681.322"/></g><use xlink:href="#E" x="384.336" y="627.98" fill="#8a8e98"/><g fill="#33459a"><use xlink:href="#ax" x="393.84" y="628.579"/><use xlink:href="#ay" x="405.815" y="628.579"/><use xlink:href="#az" x="417.791" y="628.579"/></g><g fill="#231f20"><use xlink:href="#I" x="384.336" y="645.163"/><use xlink:href="#J" x="391.234" y="645.163"/><use xlink:href="#K" x="398.132" y="645.163"/><use xlink:href="#L" x="405.03" y="645.163"/><use xlink:href="#M" x="407.277" y="645.163"/><use xlink:href="#K" x="414.175" y="645.163"/><use xlink:href="#L" x="421.073" y="645.163"/><use xlink:href="#N" x="423.321" y="645.163"/><use xlink:href="#O" x="430.219" y="645.163"/></g><g fill="#231f20"><use xlink:href="#I" x="384.336" y="657.565"/><use xlink:href="#T" x="391.234" y="657.565"/><use xlink:href="#U" x="398.132" y="657.565"/><use xlink:href="#V" x="405.03" y="657.565"/><use xlink:href="#K" x="411.928" y="657.565"/><use xlink:href="#W" x="418.826" y="657.565"/><use xlink:href="#X" x="425.724" y="657.565"/><use xlink:href="#Y" x="432.622" y="657.565"/><use xlink:href="#L" x="439.52" y="657.565"/><use xlink:href="#Z" x="441.768" y="657.565"/><use xlink:href="#aa" x="448.666" y="657.565"/><use xlink:href="#ab" x="455.564" y="657.565"/><use xlink:href="#ac" x="462.462" y="657.565"/><use xlink:href="#ad" x="469.36" y="657.565"/><use xlink:href="#L" x="476.258" y="657.565"/><use xlink:href="#W" x="478.505" y="657.565"/><use xlink:href="#ae" x="485.403" y="657.565"/></g><g fill="#231f20"><use xlink:href="#I" x="384.336" y="669.967"/><use xlink:href="#T" x="391.234" y="669.967"/><use xlink:href="#U" x="398.132" y="669.967"/><use xlink:href="#V" x="405.03" y="669.967"/><use xlink:href="#X" x="411.928" y="669.967"/><use xlink:href="#Y" x="418.826" y="669.967"/><use xlink:href="#L" x="425.724" y="669.967"/><use xlink:href="#aA" x="427.971" y="669.967"/><use xlink:href="#aB" x="434.869" y="669.967"/><use xlink:href="#aC" x="441.768" y="669.967"/><use xlink:href="#an" x="448.666" y="669.967"/><use xlink:href="#ao" x="455.564" y="669.967"/><use xlink:href="#L" x="462.462" y="669.967"/><use xlink:href="#an" x="464.709" y="669.967"/><use xlink:href="#ao" x="471.607" y="669.967"/><use xlink:href="#aw" x="478.505" y="669.967"/></g><use xlink:href="#E" x="384.619" y="326.506" fill="#8a8e98"/><g fill="#33459a"><use xlink:href="#aD" x="394.123" y="327.105"/><use xlink:href="#aE" x="406.098" y="327.105"/><use xlink:href="#aF" x="418.074" y="327.105"/></g><g fill="#231f20"><use xlink:href="#aG" x="384.619" y="343.689"/><use xlink:href="#aH" x="391.672" y="343.689"/><use xlink:href="#aI" x="398.725" y="343.689"/><use xlink:href="#aJ" x="405.778" y="343.689"/><use xlink:href="#aK" x="412.831" y="343.689"/><use xlink:href="#aL" x="419.884" y="343.689"/><use xlink:href="#aM" x="426.937" y="343.689"/><use xlink:href="#aN" x="429.572" y="343.689"/><use xlink:href="#aO" x="436.625" y="343.689"/></g><g fill="#231f20"><use xlink:href="#aG" x="384.619" y="356.091"/><use xlink:href="#aP" x="391.672" y="356.091"/><use xlink:href="#aQ" x="398.725" y="356.091"/><use xlink:href="#aR" x="405.778" y="356.091"/><use xlink:href="#aL" x="412.831" y="356.091"/><use xlink:href="#aS" x="419.884" y="356.091"/><use xlink:href="#aM" x="426.937" y="356.091"/><use xlink:href="#aS" x="429.572" y="356.091"/><use xlink:href="#aT" x="436.625" y="356.091"/></g><use xlink:href="#I" x="384.619" y="368.494" fill="#231f20"/><g fill="#231f20"><use xlink:href="#aP" x="391.517" y="368.494"/><use xlink:href="#aQ" x="398.57" y="368.494"/><use xlink:href="#aR" x="405.623" y="368.494"/><use xlink:href="#aL" x="412.676" y="368.494"/><use xlink:href="#aS" x="419.729" y="368.494"/><use xlink:href="#aM" x="426.782" y="368.494"/><use xlink:href="#aU" x="429.417" y="368.494"/><use xlink:href="#aV" x="436.47" y="368.494"/><use xlink:href="#aW" x="443.523" y="368.494"/><use xlink:href="#aX" x="450.576" y="368.494"/><use xlink:href="#aL" x="457.629" y="368.494"/><use xlink:href="#aY" x="464.682" y="368.494"/><use xlink:href="#aZ" x="471.735" y="368.494"/><use xlink:href="#ba" x="478.788" y="368.494"/></g><use xlink:href="#E" x="213.331" y="326.506" fill="#8a8e98"/><g fill="#33459a"><use xlink:href="#bb" x="222.835" y="327.105"/><use xlink:href="#bc" x="234.451" y="327.105"/><use xlink:href="#bd" x="246.067" y="327.105"/><use xlink:href="#be" x="257.684" y="327.105"/></g><g fill="#231f20"><use xlink:href="#bf" x="263.012" y="326.806"/><use xlink:href="#bg" x="272.119" y="326.806"/><use xlink:href="#bh" x="281.225" y="326.806"/><use xlink:href="#bi" x="290.332" y="326.806"/><use xlink:href="#bj" x="299.439" y="326.806"/><use xlink:href="#bk" x="308.546" y="326.806"/><use xlink:href="#bl" x="317.653" y="326.806"/></g><g fill="#231f20"><use xlink:href="#I" x="213.331" y="343.689"/><use xlink:href="#bm" x="220.229" y="343.689"/><use xlink:href="#K" x="227.127" y="343.689"/><use xlink:href="#L" x="234.025" y="343.689"/><use xlink:href="#N" x="236.273" y="343.689"/><use xlink:href="#O" x="243.171" y="343.689"/></g><g fill="#231f20"><use xlink:href="#I" x="213.331" y="356.091"/><use xlink:href="#bn" x="220.229" y="356.091"/><use xlink:href="#ag" x="227.127" y="356.091"/><use xlink:href="#bo" x="234.025" y="356.091"/><use xlink:href="#bp" x="240.923" y="356.091"/><use xlink:href="#V" x="247.821" y="356.091"/><use xlink:href="#K" x="254.719" y="356.091"/><use xlink:href="#W" x="261.617" y="356.091"/><use xlink:href="#L" x="268.515" y="356.091"/><use xlink:href="#bm" x="270.763" y="356.091"/><use xlink:href="#K" x="277.661" y="356.091"/><use xlink:href="#V" x="284.559" y="356.091"/><use xlink:href="#K" x="291.457" y="356.091"/><use xlink:href="#L" x="298.355" y="356.091"/><use xlink:href="#W" x="300.602" y="356.091"/><use xlink:href="#ae" x="307.501" y="356.091"/></g><g fill="#231f20"><use xlink:href="#I" x="213.331" y="368.494"/><use xlink:href="#bq" x="220.229" y="368.494"/><use xlink:href="#br" x="227.127" y="368.494"/><use xlink:href="#M" x="234.025" y="368.494"/><use xlink:href="#bm" x="240.923" y="368.494"/><use xlink:href="#br" x="247.821" y="368.494"/><use xlink:href="#bs" x="254.719" y="368.494"/><use xlink:href="#as" x="261.617" y="368.494"/><use xlink:href="#bt" x="268.515" y="368.494"/><use xlink:href="#L" x="275.413" y="368.494"/><use xlink:href="#bu" x="277.661" y="368.494"/><use xlink:href="#bv" x="284.559" y="368.494"/><use xlink:href="#bm" x="291.457" y="368.494"/><use xlink:href="#O" x="298.355" y="368.494"/><use xlink:href="#L" x="305.253" y="368.494"/><use xlink:href="#aA" x="307.501" y="368.494"/><use xlink:href="#M" x="314.399" y="368.494"/><use xlink:href="#bw" x="321.297" y="368.494"/><use xlink:href="#Y" x="328.195" y="368.494"/></g><g fill="#fff"><use xlink:href="#bx" x="31.281" y="165.5"/><use xlink:href="#by" x="43.166" y="165.5"/><use xlink:href="#bz" x="55.052" y="165.5"/><use xlink:href="#bA" x="66.937" y="165.5"/><use xlink:href="#bB" x="78.823" y="165.5"/><use xlink:href="#bC" x="90.709" y="165.5"/></g></svg>