<svg xmlns="http://www.w3.org/2000/svg" xmlns:xlink="http://www.w3.org/1999/xlink" width="793.701" height="1058.268" viewBox="0 0 595.276 793.701" version="1.2"><defs><symbol overflow="visible" id="a"><path d="M1.672.344c-.012.02-.008.031.016.031.019.008.035.016.046.016h.172c.082 0 .13-.028.14-.079.02-.042.052-.105.095-.187l3.125-7.047c.02-.027.039-.066.062-.11a.385.385 0 0 0 .031-.124c0-.082-.054-.125-.156-.125C5.11-7.29 5.04-7.297 5-7.297H.5c-.074 0-.121.024-.14.063a.329.329 0 0 0-.032.156l.047.61c.008.011.016.042.016.093.007.055.03.078.062.078.02 0 .04-.004.063-.016l.046-.046c.114-.028.204-.051.266-.063.07-.008.164-.016.281-.016h3.235c.05 0 .097.012.14.032.051.023.079.066.079.125 0 .031-.02.082-.047.14a.712.712 0 0 0-.063.157zm0 0"/></symbol><symbol overflow="visible" id="b"><path d="M4.094-6.734l.203-.032a.45.45 0 0 0 .14-.015c.04-.02.07-.055.094-.11l.078-.312c0-.008.008-.067.032-.172.027-.102.046-.16.046-.172 0-.058-.027-.086-.078-.078a.7.7 0 0 0-.14.016l-2.594.343c-.219.032-.352.067-.39.094-.044.031-.098.152-.157.36l-.61 2.109a.385.385 0 0 0-.046.11.438.438 0 0 0-.031.14c0 .043.02.07.062.078.04.012.078.016.11.016a10.782 10.782 0 0 1 2 .28c.433.126.796.325 1.078.595.277.273.421.652.421 1.14 0 .45-.144.867-.421 1.25a3.069 3.069 0 0 1-.985.89 5.708 5.708 0 0 1-1.015.407A5.046 5.046 0 0 1 .828.422a.758.758 0 0 0-.14.016C.632.457.609.5.609.561c0 .04.016.067.047.079a.19.19 0 0 0 .11.03c.101 0 .257-.023.468-.062A9.032 9.032 0 0 0 2.531.25c.278-.094.535-.207.766-.328a4.62 4.62 0 0 0 1.219-1.047c.363-.426.546-.914.546-1.469 0-.37-.097-.734-.28-1.078A2.1 2.1 0 0 0 4-4.5a3.72 3.72 0 0 0-1.047-.375 8.69 8.69 0 0 0-1.11-.172l-.421-.031a5.264 5.264 0 0 1-.203-.031c-.074-.008-.11-.051-.11-.125 0-.028.008-.079.032-.141a.934.934 0 0 1 .046-.14l.125-.47c.07-.226.133-.35.188-.374.05-.028.203-.063.453-.094zm0 0"/></symbol><symbol overflow="visible" id="c"><path d="M7.422 1.36v-7.985h-.734v2.938h-.954V-6.5H5V.984h.734v-3.953h.954V1.36zM2.938-4.626v-.813H4.28v-.625H.813v.625h1.359v.688c0 .953-.156 1.766-.469 2.453A4.316 4.316 0 0 1 .172-.594c.234.14.531.313.687.453.36-.265.735-.656 1.047-1.093.297-.407.532-.875.64-1.297.126.422.345.828.61 1.187.297.375.64.703.969.907.14-.172.36-.36.547-.5a3.485 3.485 0 0 1-1.344-1.516c-.25-.594-.39-1.328-.39-2.172zm0 0"/></symbol><symbol overflow="visible" id="d"><path d="M6.078-6.625V-.75h.75v-3.266h1.11v-.64h-1.11v-1.969zm-.344 3.234c-.546.11-2.015.282-2.843.297l-1.313.016v-2.547H4.61v-.64H.844v3.843c.031 0 1.375 0 1.984-.015 1.047-.032 2.328-.188 2.906-.329zm1.344 4.594v-.64H2.422v-2.016h-.75v2.656zm0 0"/></symbol><symbol overflow="visible" id="e"><path d="M7.11-2.313v-4.312h-.75v1.578H4.624v-1.312h-.719v1.187h-2.25v-1.187H.922v3.687h3.703V-4.39h1.734v2.079zm-3.204-1h-2.25V-4.53h2.25zM7.11 1.282v-3.234h-.75v.922H2.547v-.922h-.75V1.28zm-.75-.61H2.547V-.405h3.812zm0 0"/></symbol><symbol overflow="visible" id="f"><path d="M7.11-.75v-5.875h-.75V-.75zM.61-4.406c0 1.14.874 2.093 2.124 2.093 1.235 0 2.11-.953 2.11-2.093 0-1.172-.875-2.11-2.11-2.11-1.25 0-2.125.938-2.125 2.11zm.765 0c0-.828.5-1.469 1.36-1.469.859 0 1.359.64 1.359 1.469 0 .797-.5 1.437-1.36 1.437-.859 0-1.359-.64-1.359-1.437zm5.969 5.61V.562H2.562v-1.985h-.75v2.625zm0 0"/></symbol><symbol overflow="visible" id="h"><path d="M7.047 1.36v-7.985H6.28v7.984zM4.687-.657v-5.469H.97v5.469zm-.734-.64H1.72V-5.47h2.234zm0 0"/></symbol><symbol overflow="visible" id="i"><path d="M7.203 1.36v-7.985H6.47v2.844h-.985V-6.5H4.75V.984h.734v-4.046h.985v4.421zm-2.75-2.75c-.344.062-1.187.156-1.734.156l-1.063.015V-3.03h2.157v-3.125H.921v.64h2.172v1.844H.922v3.11l1.547-.016A19.11 19.11 0 0 0 4.453-.75zm0 0"/></symbol><symbol overflow="visible" id="j"><path d="M7.203 1.36v-7.985h-.75v7.984zM1.031-4.376c0 1.094.875 2 2.125 2 1.235 0 2.125-.906 2.125-2 0-1.094-.89-1.984-2.125-1.984-1.25 0-2.125.89-2.125 1.984zm.735 0c0-.75.53-1.36 1.39-1.36.86 0 1.36.61 1.36 1.36 0 .75-.5 1.36-1.36 1.36-.86 0-1.39-.61-1.39-1.36zm4.406 3.016c-.64.109-2.531.25-3.219.265-.328.016-2.312.016-2.344.016v.656c.016 0 1.657.016 1.985 0a26.518 26.518 0 0 0 3.578-.297zm0 0"/></symbol><symbol overflow="visible" id="k"><path d="M8.047-3.813v-.671H6.922v-2.141h-.766V-1.5h.766v-2.313zM4.14-6.046v-.594H1.687v.594zm1.14 1.203v-.593H.594v.593zM.921-3.078c0 .719.829 1.312 2 1.312 1.25 0 2.032-.593 2.032-1.312 0-.735-.75-1.328-2.016-1.328-1.203 0-2.015.593-2.015 1.328zm.782-.016c0-.453.484-.719 1.234-.719.766 0 1.235.266 1.235.72 0 .452-.453.75-1.234.75-.75 0-1.235-.282-1.235-.75zm5.219 4.5v-2.515h-5.36v.625h4.579v1.89zm0 0"/></symbol><symbol overflow="visible" id="l"><path d="M7.11-.75v-5.875h-.75v.922H4.421c-.36-.5-.969-.844-1.703-.844-1.235 0-2.11.969-2.11 2.125 0 1.156.875 2.11 2.11 2.11.765 0 1.39-.36 1.75-.891h1.89V-.75zm-.75-3.11H4.75a1.7 1.7 0 0 0 .094-.562c0-.219-.032-.437-.094-.625h1.61zm-4.985-.562c0-.812.5-1.469 1.344-1.469.875 0 1.36.657 1.36 1.47 0 .796-.485 1.452-1.36 1.452-.844 0-1.344-.656-1.344-1.453zm5.953 5.625v-.64H2.562v-1.985h-.75v2.625zm0 0"/></symbol><symbol overflow="visible" id="m"><path d="M7.781-2.156v-.64H6.484c.204-.907.375-2.438.407-3.548H1.156v.64h4.938a16.656 16.656 0 0 1-.39 2.907H.265v.64h3.312V1.36h.75v-3.515zm0 0"/></symbol><symbol overflow="visible" id="o"><path d="M3.813-4.36v-.015h1.593v-.813h-4.25v.813h1.578v.016c-.046.359-.265.687-.593.968-.407.344-.97.594-1.5.735.234.203.546.5.718.703.422-.156.813-.36 1.141-.61.344-.234.625-.515.781-.812.203.297.485.563.813.781.343.219.703.39 1.015.485.125-.188.375-.47.594-.688a3.35 3.35 0 0 1-1.219-.578c-.343-.266-.625-.61-.671-.984zm2.25 3.126c-.641.093-1.954.171-2.313.171V-2.25h-.969v1.203H.562v.86h1.844c1.172 0 2.985-.094 3.656-.204zm1.25 2.609v-8.016h-.954v8.016zm-2.86-7.11v-.796H2.016v.797zm0 0"/></symbol><symbol overflow="visible" id="p"><path d="M7.203-.75v-5.89h-.969v5.89zM3.328-5.39v-1.094H2.297v1.125c0 .593-.219 1.125-.563 1.562-.39.516-.968.922-1.562 1.203.266.203.625.485.781.656a5.38 5.38 0 0 0 1.094-.796c.344-.329.64-.704.765-1.079.204.376.532.735.891 1.016.328.266.688.5 1 .656.14-.203.422-.515.625-.75a3.228 3.228 0 0 1-1.39-.953c-.376-.437-.61-.969-.61-1.547zm4.063 6.609V.375H2.766v-1.734h-1v2.578zm0 0"/></symbol><symbol overflow="visible" id="q"><path d="M7.781-2.063v-.843h-3.25v-.906h2.39v-.829H2.204v-.984h4.64v-.828H1.235v2.64h2.297v.907H.281v.844zm-3.75 3.594c1.938 0 2.985-.687 2.985-1.562 0-.89-1.047-1.547-2.985-1.547-1.937 0-3 .656-3 1.547 0 .875 1.063 1.562 3 1.562zM2.156-.047c0-.515.703-.781 1.875-.781 1.14 0 1.86.297 1.86.797 0 .484-.72.781-1.86.781C2.86.75 2.156.453 2.156-.047zm0 0"/></symbol><symbol overflow="visible" id="r"><path d="M7.906-2.875v-.828H6.875v-.922h1.031v-.828H6.875v-1.188h-.969v5.063h.969v-1.297zM4.063-5.953v-.734H1.578v.734zm1.125 1.219v-.735H.468v.735zM.702-3.188c0 .688.906 1.25 2.125 1.25 1.297 0 2.125-.546 2.125-1.265 0-.703-.828-1.203-2.11-1.203-1.234 0-2.14.531-2.14 1.218zm3.235-.015c0 .375-.407.578-1.094.578-.688 0-1.11-.188-1.11-.563 0-.374.422-.578 1.11-.578.687 0 1.094.204 1.094.563zM7.046 0c0-.938-1.188-1.5-2.844-1.5-1.594 0-2.875.516-2.875 1.469 0 .953 1.234 1.547 2.86 1.547C5.796 1.516 7.046.984 7.046 0zm-4.64-.016c0-.562.874-.75 1.78-.75.985 0 1.75.235 1.75.75 0 .532-.828.782-1.734.782-.922 0-1.797-.25-1.797-.782zm0 0"/></symbol><symbol overflow="visible" id="s"><path d="M7.797.484v-.843H4.53V-2h2.282v-4.422h-.97v1.313h-3.64v-1.313h-.969V-2h2.282v1.64H.28v.844zM5.844-2.844h-3.64v-1.422h3.64zm0 0"/></symbol><symbol overflow="visible" id="t"><path d="M1.078-6.203v.828h4.766a28.365 28.365 0 0 1-.453 3.953h.968c.25-1.39.47-3.406.532-4.781zM7.797.484v-.843H3.844v-2.985h-.985v2.985H.281v.843zm0 0"/></symbol><symbol overflow="visible" id="u"><path d="M7.203 1.375v-8.016H6.22v2.313H4.53v.906H6.22v4.797zm-3.89-5.938v-1.765H2.296v1.719c0 .796-.172 1.515-.516 2.14C1.406-1.766.828-1.188.094-.75c.281.188.625.469.812.64a6.26 6.26 0 0 0 1.14-1.046c.345-.422.642-.89.767-1.297.203.453.5.906.859 1.281.344.36.719.672 1.031.89.172-.187.438-.437.719-.655-.672-.422-1.234-.938-1.61-1.594-.312-.563-.5-1.219-.5-2.031zm0 0"/></symbol><symbol overflow="visible" id="w"><path d="M2.766-.547L1.125-6.125H.109L2.266.672h.968l2.172-6.797H4.391zm0 0"/></symbol><symbol overflow="visible" id="x"><path d="M2.438-3.688c.765 0 1.171.766 1.171 1.922C3.61-.609 3.203.141 2.438.141c-.735 0-1.141-.75-1.141-1.907 0-1.156.406-1.921 1.14-1.921zm0-.75C1.046-4.438.344-3.375.344-1.765c0 1.61.703 2.641 2.094 2.641 1.406 0 2.14-1.031 2.14-2.64 0-1.61-.734-2.673-2.14-2.673zm0 0"/></symbol><symbol overflow="visible" id="y"><path d="M.563-6.125V.672h.906v-6.797zm0 0"/></symbol><symbol overflow="visible" id="z"><path d="M.64-.047v1.203h1.25V-.047zm0 0"/></symbol><symbol overflow="visible" id="A"><path d="M.563-4.219H1.75V.703h.938v-6.922h-.766c-.11.922-.406 1.282-1.36 1.328zm0 0"/></symbol><symbol overflow="visible" id="B"><path d="M2-6.25C.797-6.25.203-4.89.203-2.656.203-.437.797.906 2 .906c1.203 0 1.828-1.344 1.828-3.562C3.828-4.891 3.203-6.25 2-6.25zm0 .797c.547 0 .906 1.078.906 2.797C2.906-.97 2.546.109 2 .109c-.531 0-.875-1.078-.875-2.765 0-1.719.344-2.797.875-2.797zm0 0"/></symbol><symbol overflow="visible" id="C"><path d="M16.375.766v-13.532h-1.922V.766zm-2.64 0v-13.532h-1.891V.766zm-2.657 0v-13.532h-1.89V.766zm-2.39-13.532H6.562L4.72-2.609l-1.89-10.157H.733L3.422.766h2.562zm0 0"/></symbol><symbol overflow="visible" id="D"><path d="M1.375-.5h2.781v-2.688H1.375zm0 0"/></symbol><symbol overflow="visible" id="F"><path d="M14.453-15.25h-2.687v8.781h2.687v-4.11h2.703v-1.546h-2.703zm-12.86 1.875h5.22v.203c0 3.5-2.594 5.625-6.25 5.906l1.5 1.032C5.655-6.266 9.686-9 9.686-13.563v-1.328H1.595zM3.5-5.297v4.781c0 1.079.734 1.797 1.86 1.797h9.093v-6.578zM6.188-.266V-3.75h5.578v3.484zm0 0"/></symbol><symbol overflow="visible" id="G"><path d="M4.156-14.89v3.171c0 3.156-1.984 5.625-4.156 6.047l1.313 1.156c1.765-.156 3.812-1.75 4.218-3.265C5.953-6.266 8-4.656 9.75-4.516l1.313-1.156C8.89-6.094 6.89-8.547 6.89-11.719v-3.172zm10.266-.36h-2.703V1.281h2.703V-9.78h2.687v-1.516h-2.687zm0 0"/></symbol><symbol overflow="visible" id="H"><path d="M1.36-4.578v1.547h8.265c1.14 0 2.203-.266 2.953-.578v4.89h2.672V-15.25h-2.672v10.313c-.656.203-1.656.359-2.828.359zm5.015-10.375c-2.563 0-4.656 1.89-4.656 4.156 0 2.25 2.093 4.14 4.656 4.14 2.594 0 4.672-1.89 4.672-4.14 0-2.265-2.078-4.156-4.672-4.156zm0 1.531c1.047 0 1.938 1.125 1.938 2.64 0 1.5-.907 2.657-1.938 2.657-1.016 0-1.922-1.156-1.922-2.656 0-1.516.922-2.64 1.922-2.64zm0 0"/></symbol><symbol overflow="visible" id="I"><path d="M14.578-.234H5.844V-1.86h8.406v-4.516H2.969v1.5h8.594v1.578H3.155v2.781c0 1.079.75 1.797 1.89 1.797h9.532zM2.797-13.766h8.812v1.86c0 .937-.062 1.719-.328 2.406H.953V-8h15.281v-1.5h-2.593c.359-.469.656-1.547.656-2.469v-3.281h-11.5zm0 0"/></symbol><symbol overflow="visible" id="J"><path d="M-.438-.156h2.172L7.47-15.094H5.297zm0 0"/></symbol><symbol overflow="visible" id="K"><path d="M.86-5.094v1.516h6.39v4.844h2.688v-4.844h6.374v-1.516zm6.374-10.36v1.97H2.297v1.546h2.875c-.719.641-1.156 1.516-1.156 2.438 0 2.031 2.015 3.672 4.578 3.672 2.547 0 4.562-1.64 4.562-3.672 0-.922-.437-1.797-1.156-2.438h2.875v-1.546H9.937v-1.97zm1.36 3.75c.984 0 1.89 1.048 1.89 2.204 0 1.172-.906 2.188-1.89 2.188-1 0-1.906-1.016-1.906-2.188 0-1.156.906-2.203 1.906-2.203zm0 0"/></symbol><symbol overflow="visible" id="L"><path d="M6.75-3.25H4.047v2.734c0 1.11.812 1.797 1.89 1.797H16V-.266H6.75zm5.984-12v9.719H9.11v1.343h3.625v1.516h2.704V-15.25zM1.063-7.953v1.437h3.671v2.438h2.688v-2.438h4.14v-1.437zm5.046-7.39c-2.28 0-4.078 1.546-4.078 3.421 0 1.89 1.797 3.39 4.078 3.39 2.25 0 4.063-1.5 4.063-3.39 0-1.875-1.813-3.422-4.063-3.422zm0 1.468c.797 0 1.454.828 1.454 1.953s-.657 1.953-1.454 1.953c-.812 0-1.484-.828-1.484-1.953s.672-1.953 1.484-1.953zm0 0"/></symbol><symbol overflow="visible" id="M"><path d="M11.766 1.281h2.671v-10.89h2.704v-1.532l-2.703.016v-4.125h-2.672zM4.359-13.203v1.625c0 3.125-1.984 5.61-4.171 6.031L1.516-4.39c1.734-.156 3.812-1.765 4.203-3.25.437 1.485 2.484 3.11 4.218 3.25l1.329-1.156c-2.188-.422-4.172-2.875-4.172-6.031v-1.625l3.11.031v-1.547H1.218v1.547zm0 0"/></symbol><symbol overflow="visible" id="N"><path d="M7.234-15.203v2.062c0 3.25-3.328 5.625-5.89 5.735L2.53-6.25c2.297 0 5.422-1.5 6.063-3.313.656 1.797 3.765 3.313 6.047 3.313l1.187-1.156c-2.562-.11-5.89-2.485-5.89-5.735v-2.062zm.016 9.172v3.312l-6.11.016v1.531h14.922v-1.531L9.938-2.72V-6.03zm0 0"/></symbol><symbol overflow="visible" id="O"><path d="M11.922 1.281V-9.25h1.297V1.281h2.562V-15.25H13.22v4.484h-1.297v-4.484H9.359V1.281zM1.5-13.203h4.016v.39c0 4.485-1.625 6.797-5.032 7.579L1.922-4.22c3.656-.531 6.312-3.562 6.312-8.797v-1.703H1.5zm0 0"/></symbol><symbol overflow="visible" id="P"><path d="M5.594-.906c-.375-.266-.875-.703-1.39-1.531-.516-.813-.782-2-.782-3.016v-.781h1.75v-.688H.844v.688h1.765v.78c0 1-.218 1.954-.656 2.813A6.396 6.396 0 0 1 .281-.609l.625.5a7.327 7.327 0 0 0 1.39-1.641c.407-.64.642-1.203.72-1.563.093.344.375 1.047.796 1.626.438.593.907 1.062 1.235 1.312zM9.016 1.53v-9.656H8.25v3.89H6.906v-3.671h-.765v9h.765V-3.5H8.25v5.031zm0 0"/></symbol><symbol overflow="visible" id="Q"><path d="M6.719-3.266v-.671c-.64.124-1.828.218-2.797.25l-2.25.03V-6.75h3.89v-.672H.891v4.438c.093 0 1.687.015 2.796-.032 1.22-.03 2.391-.14 3.032-.25zm1.453-4.859H7.39v7.016h.78v-3.594h1.407v-.672H8.172zm.312 9.438V.64H2.688v-2.47h-.782v3.141zm0 0"/></symbol><symbol overflow="visible" id="R"><path d="M8.563-2.938v-5.187H7.78v2.203h-2.36v-1.75h-.78v1.516H1.734v-1.516H.938v4.36h4.484v-1.922h2.36v2.296zm-.032 4.36v-3.734h-.797v1.156H2.86v-1.157h-.78v3.735zm-3.89-5.39H1.734V-5.5h2.907zM7.734.765H2.86V-.5h4.875zm0 0"/></symbol><symbol overflow="visible" id="S"><path d="M3.25-7.781C1.766-7.781.703-6.688.703-5.344c0 1.36 1.063 2.453 2.547 2.453 1.469 0 2.547-1.093 2.547-2.453 0-1.343-1.078-2.437-2.547-2.437zM8.719-1.11v-7.016h-.781v7.016zm.234 2.421V.641H3.016v-2.329h-.797v3zM3.25-7.062c1.11 0 1.703.765 1.703 1.718 0 .969-.594 1.719-1.703 1.719-1.094 0-1.703-.75-1.703-1.719 0-.953.61-1.718 1.703-1.718zm0 0"/></symbol><symbol overflow="visible" id="U"><path d="M5.531-.594V-6.89H1.063v6.297zm2.953 2.125v-9.656h-.78v9.656zM4.75-1.28H1.844v-4.922H4.75zm0 0"/></symbol><symbol overflow="visible" id="V"><path d="M5.344-.703v-.672c-.438.063-1.5.172-2.188.188l-1.5.015v-2.281h2.672v-3.578H.86v.687h2.688v2.203H.875v3.672L2.969-.5c.844-.016 1.922-.14 2.375-.203zM8.672 1.53v-9.656h-.766v3.828H6.563v-3.61h-.766v9h.766v-4.671h1.343v5.11zm0 0"/></symbol><symbol overflow="visible" id="W"><path d="M6.406-5.125c0-1.297-1.062-2.36-2.562-2.36-1.516 0-2.578 1.063-2.578 2.36S2.328-2.75 3.844-2.75c1.5 0 2.562-1.078 2.562-2.375zm2.407 6.656v-9.656H8.03v9.656zM7.655-.75v-.703c-.812.125-2.531.219-3.906.234l-3.063.016v.687L3.72-.53C4.984-.562 6.984-.656 7.656-.75zM5.594-5.125c0 .906-.625 1.672-1.75 1.672-1.14 0-1.766-.766-1.766-1.672 0-.906.625-1.672 1.766-1.672 1.125 0 1.75.766 1.75 1.672zm0 0"/></symbol><symbol overflow="visible" id="X"><path d="M5.016-7.422v-.64H1.953v.64zm1.421 1.453v-.64H.595v.64zM9.72-4.672v-.703h-1.39v-2.75h-.782v6.172h.781v-2.719zM3.516-2.266c1.53 0 2.453-.671 2.453-1.562 0-.906-.89-1.594-2.453-1.594-1.516 0-2.454.688-2.454 1.594 0 .89.938 1.562 2.454 1.562zm4.812 3.797v-2.875H1.703v.657h5.844V1.53zM5.141-3.844c0 .547-.547.969-1.625.969-1.047 0-1.61-.406-1.61-.969 0-.531.563-.953 1.61-.953 1.078 0 1.625.406 1.625.953zm0 0"/></symbol><symbol overflow="visible" id="Y"><path d="M8.922 1.313V.64H2.969V-1.75h-.797v3.063zm-.25-2.422v-7.016H7.89v1.297H5.312c-.453-.578-1.171-.969-2.062-.969C1.766-7.797.703-6.719.703-5.39.703-4.062 1.766-3 3.25-3c.938 0 1.719-.422 2.156-1.094h2.485v2.985zM7.89-4.766H5.687c.063-.203.094-.406.094-.625a2.36 2.36 0 0 0-.125-.75h2.235zM3.25-7.062c1.11 0 1.703.75 1.703 1.671 0 .922-.594 1.672-1.703 1.672-1.094 0-1.703-.75-1.703-1.672 0-.921.61-1.671 1.703-1.671zm0 0"/></symbol><symbol overflow="visible" id="Z"><path d="M9.5-2.703v-.688H7.766a21.21 21.21 0 0 0 .328-1.796c.14-.844.297-1.97.297-2.344H1.297v.687H7.5c-.094 1.094-.406 2.907-.531 3.453H.219v.688h4.015V1.53h.797v-4.234zm0 0"/></symbol><symbol overflow="visible" id="aa"><path d="M6.89 1.094v-9h-.765v3.672H4.859c-.125-1.844-.953-2.954-2.093-2.954-1.22 0-2.125 1.329-2.125 3.5 0 2.172.906 3.516 2.125 3.516 1.203 0 2.046-1.25 2.125-3.281V-3.5h1.234v4.594zm1.876.437v-9.656H8v9.656zM4.094-3.687c0 1.562-.5 2.78-1.313 2.78-.844 0-1.344-1.202-1.344-2.78 0-1.579.5-2.782 1.344-2.782.813 0 1.313 1.219 1.313 2.782zm0 0"/></symbol><symbol overflow="visible" id="ab"><path d="M6.063-7.531H.968v.687h4.234c-.062 1.078-.36 2.657-.39 2.75h.78c.016-.031.141-.578.266-1.453.094-.562.157-1.281.204-1.984zM9.64-4.234v-.672H8.28v-3.219h-.797v7.188h.797v-3.297zM7.109-2.672v-.672c-.937.14-3.14.297-3.937.297v-2.25H2.39v2.25H.28v.688h1.36c2.265 0 3.828-.11 5.468-.313zm1.516 3.985V.64h-5.86v-2.11h-.78v2.782zm0 0"/></symbol><symbol overflow="visible" id="ac"><path d="M8.75-2.578v-5.547h-.781v5.547zm-2.125-.938c-.547-.187-1.313-.64-1.938-1.359-.484-.531-.843-1.234-.843-2.203v-.75H3.03v.75c0 .953-.375 1.766-.875 2.406-.515.625-1.36 1.219-1.875 1.469l.578.531a6.072 6.072 0 0 0 1.579-1.234c.468-.485.843-1.063 1-1.563.203.469.5.907.953 1.36.562.609 1.343 1.062 1.734 1.203zm2.11 4.938v-3.406H2.327v3.406zM7.937.75H3.109v-2.063h4.829zm0 0"/></symbol><symbol overflow="visible" id="ad"><path d="M8.36-6.453c0-.922-1.235-1.734-3.5-1.734-2.266 0-3.516.765-3.516 1.734 0 1 1.25 1.734 3.515 1.734 2.266 0 3.5-.734 3.5-1.734zm1.14 3.25v-.656H.219v.656zM8.453 1.422V.766H2.328v-.938h5.906v-2.187h-6.75v.64h5.907v.907H1.484v2.234zM7.5-6.453c0 .64-1.078 1.125-2.64 1.125-1.579 0-2.657-.484-2.657-1.125 0-.64 1.047-1.11 2.656-1.11 1.547 0 2.641.47 2.641 1.11zm0 0"/></symbol><symbol overflow="visible" id="ae"><path d="M5.453-6.969H1.078v.657h3.484A7.436 7.436 0 0 1 3.298-3C2.547-1.969 1.437-1.172.5-.687l.625.5a8.663 8.663 0 0 0 2.906-2.579C4.953-4.03 5.375-5.75 5.453-6.969zm2.703-1.156h-.781v9.656h.781V-3.28h1.531V-4h-1.53zm0 0"/></symbol><symbol overflow="visible" id="af"><path d="M6.578-1.063c-.469-.25-1.062-.718-1.625-1.468-.562-.766-.89-1.906-.89-2.922v-.89h2.265v-.688H.968v.687h2.235v.89c0 1.032-.39 2.188-.953 3.016A6.379 6.379 0 0 1 .39-.702l.641.562c.516-.328 1.125-.875 1.735-1.687.5-.688.78-1.406.859-1.719.094.344.39 1.078.922 1.75A6 6 0 0 0 6.03-.422zm2.266 2.594v-9.656h-.781v9.656zm0 0"/></symbol><symbol overflow="visible" id="ag"><path d="M8.281-6.922H1.344v.688h6.078c-.063 1.437-.594 4.328-.625 4.484h.781c0-.047.234-1.047.438-2.484.109-.891.218-1.797.265-2.688zM9.5.172v-.688H4.469V-4h-.813v3.484H.22v.688zm0 0"/></symbol><symbol overflow="visible" id="ah"><path d="M6.828-7.406v-.672H2.86v.672zM8.641-6v-.672H1.062V-6zM8-4.016c0-.843-1.297-1.437-3.172-1.437-1.89 0-3.156.594-3.156 1.437 0 .829 1.266 1.438 3.156 1.438C6.703-2.578 8-3.188 8-4.016zm1.5 2.844v-.687H.219v.687h4.234v2.703h.797v-2.703zM7.078-4.016c0 .485-1.031.782-2.25.782-1.234 0-2.266-.297-2.266-.782 0-.5 1.032-.78 2.266-.78 1.219 0 2.25.28 2.25.78zm0 0"/></symbol><symbol overflow="visible" id="ai"><path d="M3.844-8.188c-1.516 0-2.469.829-2.469 1.766 0 .938.938 1.75 2.469 1.75s2.453-.797 2.453-1.75c0-.937-.922-1.766-2.453-1.766zM8.75-.577v-7.547h-.781v5.61h-2.5v.656h2.5v1.28zM7.594-3.563v-.671c-.469.078-2.219.265-3.438.28l-3.61.017v.671H2.97v1.813h.781v-1.828c1.563 0 3.094-.156 3.844-.281zM9 1.314V.64H3v-1.688h-.781v2.36zM3.844-7.531c1.14 0 1.687.593 1.687 1.11 0 .5-.547 1.077-1.687 1.077-1.125 0-1.688-.578-1.688-1.078 0-.516.547-1.11 1.688-1.11zm0 0"/></symbol><symbol overflow="visible" id="aj"><path d="M5.047-7.422v-.656H2.125v.656zm4.766 2.406v-.703H8.421v-2.406H7.64v5.656h.78v-2.547zm-3.235 1.61c-.328-.078-.922-.297-1.531-.766C4.469-4.609 4.03-5.219 4-5.766v-.093h2.156v-.672H1v.672h2.172v.078c-.016.547-.406 1.203-.985 1.656-.624.5-1.437.875-1.78.984l.5.61c.265-.078 1-.406 1.64-.922.515-.438.906-.922 1.047-1.266.156.313.515.766 1.062 1.172a5.738 5.738 0 0 0 1.516.781zm1.86 4.828v-3.297H2.093v3.297zM7.655.75H2.875v-1.938h4.781zm0 0"/></symbol><symbol overflow="visible" id="ak"><path d="M8.672 1.531v-9.656h-.797v2.563H5.437c-.39-1.141-1.14-1.813-2.171-1.813-1.47 0-2.407 1.406-2.407 3.547 0 2.14.938 3.547 2.407 3.547 1.093 0 1.875-.766 2.234-2h2.375V1.53zm-.797-4.515h-2.25a4.87 4.87 0 0 0 .063-.844 5.55 5.55 0 0 0-.094-1.047h2.281zm-2.984-.844c0 1.531-.563 2.812-1.61 2.812-1.062 0-1.64-1.265-1.64-2.812 0-1.516.578-2.813 1.64-2.813 1.047 0 1.61 1.297 1.61 2.813zm0 0"/></symbol><symbol overflow="visible" id="al"><path d="M4.125-6.61v-.687H1.562v.688zm1.11 1.657v-.688H.436v.688zM8.843 1.53v-9.656h-.766v4.078H6.766v-3.86h-.782v9h.782v-4.405h1.312V1.53zm-3.89-3.656c0-1.188-.907-2.016-2.11-2.016C1.672-4.14.75-3.312.75-2.125c0 1.219.922 2.047 2.094 2.047 1.203 0 2.11-.828 2.11-2.047zm-.782.016c0 .812-.516 1.343-1.328 1.343-.797 0-1.328-.53-1.328-1.343 0-.797.53-1.375 1.328-1.375.812 0 1.328.578 1.328 1.375zm0 0"/></symbol><symbol overflow="visible" id="am"><path d="M8.875-4.156a6.571 6.571 0 0 1-2.234-.969c-.672-.453-1.266-1.188-1.36-1.703 0-.031 0-.125-.015-.14h3.062v-.704H1.375v.703h3.063c0 .016 0 .11-.016.14-.094.516-.688 1.25-1.36 1.704a6.571 6.571 0 0 1-2.234.969l.531.593c.407-.109 1.36-.437 2.125-.953.672-.468 1.204-1.125 1.375-1.437.157.312.688.969 1.36 1.437.765.516 1.718.844 2.125.954zM9.5-1.984v-.672H.219v.672h4.234V1.53h.797v-3.515zm0 0"/></symbol><symbol overflow="visible" id="an"><path d="M8.75 1.531v-9.656h-.797v2.078H5.86v.688h2.094v1.75H5.86v.703h2.094V1.53zM6.797-.984c-.547-.329-1.36-.954-1.906-1.782C4.234-3.734 4-4.812 4-5.875v-1.688h-.813v1.688c0 1.063-.265 2.234-.828 3.125-.53.844-1.343 1.578-2.046 2.016l.64.546a7.696 7.696 0 0 0 1.625-1.53c.61-.813.922-1.532 1.016-1.938.125.422.453 1.14 1.031 1.86.547.687 1.219 1.14 1.625 1.405zm0 0"/></symbol><symbol overflow="visible" id="ao"><path d="M8.75 1.531v-9.656h-.797v3.375H5.641v.688h2.312V1.53zM6.797-.984c-.547-.329-1.36-.954-1.906-1.782C4.234-3.734 4-4.812 4-5.875v-1.688h-.813v1.688c0 1.063-.265 2.234-.828 3.125-.53.844-1.343 1.578-2.046 2.016l.64.546a7.696 7.696 0 0 0 1.625-1.53c.61-.813.922-1.532 1.016-1.938.125.422.453 1.14 1.031 1.86.547.687 1.219 1.14 1.625 1.405zm0 0"/></symbol><symbol overflow="visible" id="ap"><path d="M9.688-4.844v-.687H8.296v-2.594h-.781v5.5h.78v-2.219zm-4.11-2.578H1.031v.672h3.594c-.047.516-.375 1.531-1.453 2.406-1.016.828-1.985 1.14-2.735 1.36l.454.578c.859-.25 1.921-.656 3.046-1.672.97-.86 1.532-2.11 1.641-3.344zm2.734 8.844v-3.484h-6.28v3.484zM7.516.75H2.828v-2.14h4.688zm0 0"/></symbol><symbol overflow="visible" id="aq"><path d="M6.563-.984C6-1.313 5.188-1.938 4.64-2.766c-.657-.968-.891-2.046-.891-3.109v-1.688h-.813v1.688c0 1.063-.265 2.234-.812 3.125C1.578-1.906.765-1.172.078-.734l.625.546a7.016 7.016 0 0 0 1.625-1.53c.61-.813.938-1.532 1.031-1.938.125.422.454 1.14 1.016 1.86.563.687 1.219 1.14 1.64 1.405zM8.25-8.125h-.797v9.656h.797V-3.5h1.5v-.703h-1.5zm0 0"/></symbol><symbol overflow="visible" id="ar"><path d="M5.016-7.422v-.64H1.953v.64zm1.421 1.344v-.64H.595v.64zm3.282 1.11v-.673h-1.39v-2.484h-.782v5.469h.781V-4.97zM3.516-2.657c1.53 0 2.468-.64 2.468-1.438 0-.781-.906-1.453-2.468-1.453-1.516 0-2.47.64-2.47 1.453 0 .782.954 1.438 2.47 1.438zm4.812 4.078V-2.11h-.781v1.062H2.813v-1.062h-.797v3.53zM1.891-4.094c0-.515.578-.843 1.625-.843 1.078 0 1.625.406 1.625.843 0 .5-.547.797-1.625.797-1.047 0-1.625-.312-1.625-.797zM7.547.766H2.813V-.391h4.734zm0 0"/></symbol><symbol overflow="visible" id="as"><path d="M7.031-1.25v-.688a20.7 20.7 0 0 1-3.093.375l-1.97.032v-5.672h-.78v6.375c.078 0 1.64 0 2.718-.047 1.14-.031 2.469-.25 3.125-.375zM8.5 1.531v-9.656h-.797v9.656zm0 0"/></symbol><symbol overflow="visible" id="at"><path d="M6.5-1.031v-.672c-.453.094-1.75.234-2.703.266l-2.063.015v-4.844h3.75v-.671H.954v6.203c.062 0 1.452.015 2.609-.032A23.84 23.84 0 0 0 6.5-1.03zM9.469-3.5v-.703h-1.5v-3.922h-.782v9.656h.782V-3.5zm0 0"/></symbol><symbol overflow="visible" id="au"><path d="M1.766 1.188V0H.594v1.188zm0 0"/></symbol><symbol overflow="visible" id="av"><path d="M6.344-1.063c-.453-.25-1.047-.703-1.594-1.468-.578-.766-.906-1.906-.906-2.922v-.89h2.281v-.688H.765v.687H3v.89c0 1.032-.406 2.204-.969 3.016C1.516-1.671.766-1.062.187-.702l.625.562c.516-.343 1.125-.875 1.735-1.687a6.005 6.005 0 0 0 .875-1.719c.094.344.375 1.078.906 1.75a5.995 5.995 0 0 0 1.5 1.375zm3.468-2.421v-.704H8.297v-3.937h-.781v9.656h.78v-5.015zm0 0"/></symbol><symbol overflow="visible" id="aw"><path d="M6.984-3.938v-.671c-.687.156-1.968.312-3.14.359l-2.063.016v-3.438H1v4.125l2.828-.031a22.232 22.232 0 0 0 3.156-.36zM8.5-2.688v-5.437h-.781v5.438zm-.016 4.11v-3.61H2.031v3.61zM7.688.75H2.813V-1.5h4.874zm0 0"/></symbol><symbol overflow="visible" id="ax"><path d="M8.344-4.938v-.671H2.266v-1.47h5.968v-.671h-6.75v2.813zM9.5-3.375v-.64H.219v.64zM8.453 1.422V.766H2.328v-.97h5.906v-2.265h-6.75v.656h5.907v.97H1.484v2.265zm0 0"/></symbol><symbol overflow="visible" id="ay"><path d="M9.5-2.328v-.688H5.266v-1h3.062v-.656H2.25v-.953h5.984v-.64H2.25v-.907h5.984v-.656H1.47v3.812h2.953v1H.219v.688zm-4.64.625c-2.313 0-3.594.719-3.594 1.703 0 .984 1.28 1.719 3.593 1.719 2.297 0 3.563-.703 3.563-1.703 0-.985-1.266-1.72-3.563-1.72zM7.546.016c0 .64-1.094 1.078-2.688 1.078C3.234 1.094 2.156.64 2.156 0c0-.656 1.078-1.047 2.703-1.047 1.594 0 2.688.375 2.688 1.063zm0 0"/></symbol><symbol overflow="visible" id="az"><path d="M9.578-4.016v-.671H8.156v-1.36h1.422v-.687H8.156v-1.391h-.765v5.813h.765v-1.704zM8.484-.203c0-1.11-1.203-1.906-3.437-1.906-2.219 0-3.422.796-3.422 1.906 0 1.11 1.203 1.906 3.422 1.906 2.234 0 3.437-.797 3.437-1.906zm-.859.016c0 .765-1.047 1.234-2.563 1.234-1.53 0-2.593-.484-2.593-1.25 0-.781 1.062-1.234 2.594-1.234 1.515 0 2.562.468 2.562 1.25zM5.531-5.454C5.531-6.75 4.484-7.797 3-7.797 1.531-7.797.469-6.75.469-5.453S1.53-3.093 3-3.093c1.484 0 2.531-1.063 2.531-2.36zm-.812 0c0 .906-.61 1.64-1.719 1.64-1.094 0-1.703-.734-1.703-1.64 0-.89.61-1.625 1.703-1.625 1.11 0 1.719.734 1.719 1.625zm0 0"/></symbol><symbol overflow="visible" id="aA"><path d="M5.016-7.422v-.64H1.953v.64zm1.421 1.5v-.64H.595v.64zm1.891-2.203h-.781v7.203h.781v-3.547h1.39v-.687h-1.39zM3.516-2c1.53 0 2.468-.781 2.468-1.656 0-.906-.921-1.672-2.468-1.672-1.516 0-2.454.766-2.454 1.672C1.063-2.781 2-2 3.517-2zm5.093 3.313V.64H2.844v-2.032h-.797v2.704zM5.141-3.673c0 .563-.563 1.031-1.625 1.031-1.047 0-1.61-.484-1.61-1.03 0-.563.563-1.048 1.61-1.048 1.062 0 1.625.485 1.625 1.047zm0 0"/></symbol><symbol overflow="visible" id="aB"><path d="M9.5-2.39v-.688H5.25v-1.344h2.984V-7.75h-6.75v3.328h2.97v1.344H.218v.687zM8.234 1.53v-2.765h-6.89v.671h6.093v2.094zm-.78-6.64H2.25v-1.97h5.203zm0 0"/></symbol><symbol overflow="visible" id="aC"><path d="M8.844-2.39v-5.735h-.781v2.328H5.905v.703h2.157v2.703zM6.53-3.423c-.36-.11-1.218-.5-1.765-1.062-.5-.5-.829-1.188-.829-2.047v-.266h2.11v-.672H1.016v.672h2.109v.266c0 .86-.375 1.625-.828 2.11-.594.64-1.375 1.077-1.875 1.296l.547.578c.312-.14.984-.5 1.547-1.047.484-.484.843-.937 1-1.375.234.453.484.766.968 1.235.563.53 1.329.828 1.579.921zm2.313 4.953v-3.265H2.14v.671h5.921v2.594zm0 0"/></symbol><symbol overflow="visible" id="aD"><path d="M8.594-2.938v-5.187h-.781v2.11h-2.25c-.22-1.063-1.204-1.813-2.422-1.813-1.391 0-2.47.953-2.47 2.25 0 1.281 1.095 2.234 2.47 2.234 1.296 0 2.312-.844 2.453-2h2.218v2.407zm0 4.36v-3.844h-.781v1.188H2.905v-1.188h-.781v3.844zM4.78-5.594c0 .828-.656 1.5-1.64 1.5-.985 0-1.641-.672-1.641-1.5s.656-1.484 1.64-1.484c.985 0 1.641.656 1.641 1.484zM7.813.766H2.905V-.578h4.906zm0 0"/></symbol><symbol overflow="visible" id="aE"><path d="M8.906-4.375c-.469-.11-1.5-.453-2.328-1.063-.844-.609-1.297-1.375-1.297-2.046v-.5h-.843v.5c0 .671-.47 1.437-1.313 2.046-.828.61-1.86.954-2.328 1.063l.484.563c.422-.094 1.438-.454 2.235-1.047.703-.547 1.203-1.188 1.343-1.532.125.344.625.985 1.329 1.532.796.593 1.812.953 2.234 1.046zM9.5-2.109v-.688H.219v.688h4.234v3.64h.797v-3.64zm0 0"/></symbol><symbol overflow="visible" id="aF"><path d="M8.906-2.063v-6.062h-.765v2.547H6.828v-2.39h-.781v5.687h.781v-2.594h1.313v2.813zM8.953-.03c0-1.032-1.25-1.766-3.515-1.766-2.282 0-3.563.719-3.563 1.734 0 1.047 1.266 1.797 3.547 1.797S8.953.984 8.953-.03zm-.86 0c0 .687-1.124 1.093-2.671 1.093-1.578 0-2.688-.406-2.688-1.109 0-.719 1.11-1.094 2.688-1.094 1.562 0 2.672.375 2.672 1.11zM4.142-7.25v-.672H1.75v.672zm1.171 1.281v-.672H.641v.672zM2.954-2.39c1.281 0 2.094-.64 2.094-1.53 0-.892-.797-1.532-2.078-1.532-1.281 0-2.094.64-2.094 1.531 0 .89.813 1.531 2.078 1.531zm.016-2.421c.844 0 1.265.359 1.265.89s-.421.906-1.265.906c-.844 0-1.297-.375-1.297-.906s.453-.89 1.297-.89zm0 0"/></symbol><symbol overflow="visible" id="aG"><path d="M5.016-7.453v-.625H1.953v.625zm1.421 1.266v-.625H.595v.625zm3.282 1.14v-.687h-1.39v-2.391h-.782v5.438h.781v-2.36zM3.516-2.844c1.546 0 2.468-.61 2.468-1.39 0-.797-.906-1.438-2.453-1.438-1.515 0-2.469.61-2.469 1.438 0 .765.938 1.39 2.454 1.39zm5.062 4.266V.797h-5.75v-.844h5.5v-2.078H1.984v.625h5.532v.828h-5.5v2.094zM1.906-4.25c0-.5.578-.828 1.625-.828 1.063 0 1.61.375 1.61.828 0 .484-.547.781-1.61.781-1.062 0-1.625-.312-1.625-.781zm0 0"/></symbol><symbol overflow="visible" id="aH"><path d="M5.813-5.453c0-1.297-1.063-2.344-2.532-2.344C1.797-7.797.734-6.75.734-5.453s1.063 2.36 2.547 2.36c1.469 0 2.531-1.063 2.531-2.36zm2.906 2.875v-5.547h-.781v5.547zM4.984-5.453c0 .906-.593 1.64-1.703 1.64-1.094 0-1.703-.734-1.703-1.64 0-.89.61-1.625 1.703-1.625 1.11 0 1.703.734 1.703 1.625zm4.532 6.469A3.695 3.695 0 0 1 8.187-.22c-.39-.64-.546-1.11-.546-1.687v-.172h-.766v.172c0 .547-.14 1-.5 1.593-.234.407-.547.75-.86 1a3.38 3.38 0 0 1-.859-1c-.36-.593-.5-1.046-.5-1.593v-.172h-.781v.172c0 .578-.14 1.047-.563 1.687C2.454.328 2 .734 1.484 1.016l.532.515c.406-.25.734-.515 1.078-.953.375-.484.578-.844.687-1.125.094.297.36.735.656 1.125.36.438.61.625 1.079.953.53-.297.734-.515 1.093-.953.297-.39.547-.828.657-1.125.093.281.28.64.656 1.125.344.438.656.703 1.078.953zm0 0"/></symbol><symbol overflow="visible" id="aI"><path d="M8.594-2.563v-5.562h-.781v2.297H5.688C5.5-6.953 4.5-7.797 3.171-7.797 1.703-7.797.64-6.75.64-5.453s1.062 2.36 2.53 2.36c1.376 0 2.376-.907 2.517-2.063h2.125v2.593zm.765 3.594a3.702 3.702 0 0 1-1.312-1.25C7.64-.859 7.5-1.329 7.5-1.906v-.188h-.781v.188c0 .547-.14 1-.5 1.593-.235.407-.547.75-.86 1a3.622 3.622 0 0 1-.859-1C4.14-.905 4-1.359 4-1.905v-.188h-.766v.188c0 .578-.171 1.047-.578 1.687a3.743 3.743 0 0 1-1.328 1.25l.531.5c.407-.25.72-.515 1.079-.953.374-.484.578-.844.687-1.125.094.297.344.735.656 1.125.36.438.61.625 1.078.953.532-.297.72-.515 1.079-.953C6.766.172 7-.25 7.125-.547c.078.281.281.64.64 1.125.344.438.657.703 1.079.953zM4.891-5.453c0 .906-.61 1.64-1.72 1.64-1.093 0-1.702-.734-1.702-1.64 0-.89.61-1.625 1.703-1.625 1.11 0 1.719.734 1.719 1.625zm0 0"/></symbol><symbol overflow="visible" id="aJ"><path d="M9.5-3.14v-.672H.219v.671zM8.234 1.421v-3.875h-.78v1.11H2.25v-1.11h-.766v3.875zm-.78-.656H2.25V-.672h5.203zm1.421-5.891c-.36-.078-1.531-.438-2.36-.953-.75-.469-1.234-1.094-1.234-1.64v-.36h-.843v.36c0 .546-.516 1.171-1.266 1.64-.828.516-1.985.875-2.344.953l.453.547c.453-.094 1.422-.39 2.219-.875.703-.438 1.25-.984 1.36-1.328.093.343.624.89 1.343 1.328.797.484 1.766.781 2.203.875zm0 0"/></symbol><symbol overflow="visible" id="aK"><path d="M4.922-6.86v-.702H1.906v.703zm1.39 1.72v-.688H.516v.687zM8.25-8.126h-.797v9.656h.797v-4.89h1.5v-.72h-1.5zM5.86-2.078c0-1.188-1-2.188-2.438-2.188-1.453 0-2.453 1-2.453 2.188C.969-.906 1.984.125 3.422.125c1.437 0 2.437-1.031 2.437-2.203zm-.813 0c0 .812-.594 1.515-1.625 1.515-1.031 0-1.625-.703-1.625-1.515 0-.813.594-1.516 1.625-1.516 1.031 0 1.625.703 1.625 1.516zm0 0"/></symbol><symbol overflow="visible" id="aL"><path d="M4.86-8.172c-2.298 0-3.532.75-3.532 1.828S2.562-4.53 4.86-4.53s3.532-.735 3.532-1.813c0-1.078-1.235-1.828-3.532-1.828zM9.5-2.906v-.672H.219v.672zm-1 2.781c0-1.047-1.328-1.86-3.64-1.86-2.329 0-3.641.813-3.641 1.86 0 1.031 1.343 1.86 3.64 1.86C7.172 1.734 8.5.905 8.5-.126zm-.953-6.219c0 .719-1.094 1.172-2.688 1.172-1.625 0-2.687-.469-2.687-1.172 0-.75 1.047-1.203 2.687-1.203 1.61 0 2.688.469 2.688 1.203zM2.094-.125c0-.734 1.11-1.203 2.765-1.203 1.594 0 2.766.484 2.766 1.203 0 .703-1.172 1.172-2.766 1.172-1.609 0-2.765-.484-2.765-1.172zm0 0"/></symbol><symbol overflow="visible" id="aM"><path d="M6.563-3.031c-.438-.172-1.329-.813-1.875-1.453-.5-.579-.844-1.563-.844-2.454v-.89h-.828v.89c0 .875-.329 1.844-.86 2.563A5.467 5.467 0 0 1 .25-2.812l.563.53c.5-.234 1.171-.734 1.718-1.374.469-.578.735-1.094.89-1.563.157.469.485.985.923 1.438.531.594 1.36 1.172 1.672 1.328zM8.75-1.125v-7h-.781v7zm.203 2.438V.64H3.11v-2.313h-.78v2.984zm0 0"/></symbol><symbol overflow="visible" id="aN"><path d="M7.219 1.094v-9h-.75v3.64H5.297v.704h1.172v4.656zm1.843.437v-9.656h-.765v9.656zm-5.734-8.39H1.016v.687h1.53a8.32 8.32 0 0 1-.608 2.719C1.453-2.328.921-1.484.421-.906l.64.265c.5-.593 1.016-1.453 1.563-2.75.422-1 .672-2.578.703-3.468zm2.219 0H3.594v.687H4.75c0 .672-.172 1.906-.61 3.063C3.689-1.922 2.907-.797 2.47-.297l.672.281c.421-.53 1.14-1.578 1.718-3.03.547-1.376.688-3.267.688-3.813zm0 0"/></symbol><symbol overflow="visible" id="aO"><path d="M8.781 1.531v-9.656H8v9.656zM6.734-.984c-.546-.329-1.359-.954-1.921-1.782-.641-.968-.875-2.046-.875-3.109v-1.688h-.813v1.688c0 1.063-.266 2.234-.828 3.125C1.766-1.906.953-1.172.25-.734l.64.546a7.696 7.696 0 0 0 1.626-1.53c.609-.813.921-1.532 1.015-1.938.125.422.453 1.14 1.031 1.86.547.687 1.22 1.14 1.625 1.405zm0 0"/></symbol><symbol overflow="visible" id="aP"><path d="M8.563-1.094v-7.031H7.78v2.563h-2.36v-2.11h-.78v1.766H1.734v-1.766h-.78v4.953h4.468v-2.14h2.36v3.765zm.234 2.407V.64H2.875v-2.266h-.797v2.938zM4.64-3.391H1.734v-1.843h2.907zm0 0"/></symbol><symbol overflow="visible" id="aQ"><path d="M9.531-5.375v-.703H8.125v-2.047h-.781v5.031h.781v-2.281zM5.312-3.641v-3.843H.845v3.843zm3.094 5.063V.797H2.672V-.266h5.453V-2.53H1.859v.625h5.454v1.015H1.859v2.313zM4.531-4.312H1.625v-2.516h2.906zm0 0"/></symbol><symbol overflow="visible" id="aR"><path d="M9.14-4.844C8.829-5 8.204-5.375 7.75-5.937c-.39-.5-.656-1.016-.656-1.688v-.453h-.782v.453c0 .672-.265 1.156-.625 1.656a5.163 5.163 0 0 1-.828.828 5.223 5.223 0 0 1-.843-.828c-.36-.5-.625-.984-.625-1.656v-.453h-.782v.453c0 .672-.265 1.188-.656 1.688C1.5-5.375.875-5 .563-4.845l.562.563c.25-.125.61-.375 1.031-.766.39-.36.719-.844.844-1.14.125.296.484.78.844 1.14.172.172.687.64 1.015.781.22-.109.61-.39 1-.78.36-.36.72-.845.844-1.141.125.296.453.78.844 1.14.422.39.781.64 1.031.766zm.36 1.938v-.672H.219v.672zM8.234 1.422v-3.328h-6.75v3.328zM7.454.75H2.25v-1.969h5.203zm0 0"/></symbol><symbol overflow="visible" id="aS"><path d="M8.344-2.578v-.672H2.297v-3.063h5.969v-.671h-6.75v4.406zM9.5.062v-.687H.219v.688zm0 0"/></symbol><symbol overflow="visible" id="aT"><path d="M7-.719v-.672c-.563.094-1.969.22-2.938.266l-2.218.016v-2.375h3.75v-3.657H1.062v.688h3.75v2.297h-3.75v3.734l2.875-.047A36.057 36.057 0 0 0 7-.719zm1.516 2.25v-9.656h-.797v9.656zm0 0"/></symbol><symbol overflow="visible" id="aU"><path d="M8.484 1.531v-9.656h-.78v2.672H5.405v-1.438H1.141v6.297h4.265v-1.703h2.297v3.828zm-.78-4.5H5.405v-1.797h2.297zM4.624-1.28H1.922v-4.922h2.703zm0 0"/></symbol><symbol overflow="visible" id="aV"><path d="M1.781 0H.594v1.047h.656c0 .234-.266.547-.64.594l.28.343c.204-.078.454-.187.626-.437.187-.266.265-.531.265-.781zm0 0"/></symbol><symbol overflow="visible" id="aW"><path d="M5.61-5.484c0-1.297-1.016-2.313-2.516-2.313-1.469 0-2.5 1.016-2.5 2.313 0 1.28 1.031 2.312 2.5 2.312 1.5 0 2.515-1.031 2.515-2.312zm4.046.28v-.687h-1.39v-2.234h-.782v5.422h.782v-2.5zm-.953 6.626V.75H7.281l.203-2.219h1v-.687H1.906v.687H3L3.172.75H1.719v.672zM4.781-5.484c0 .89-.578 1.609-1.687 1.609-1.094 0-1.688-.719-1.688-1.61 0-.874.594-1.593 1.688-1.593 1.11 0 1.687.719 1.687 1.594zM6.688-1.47L6.5.75H3.937l-.156-2.219zm0 0"/></symbol><symbol overflow="visible" id="aX"><path d="M8.313-4.906c0-1.375-1.391-2.485-3.454-2.485-2.046 0-3.468 1.11-3.468 2.485 0 1.375 1.421 2.484 3.468 2.484 2.032 0 3.454-1.11 3.454-2.484zm1.187 5v-.672H.219v.672zm-2.031-5c0 1.031-1.157 1.75-2.61 1.75-1.5 0-2.625-.719-2.625-1.75 0-1.063 1.125-1.75 2.625-1.75 1.47 0 2.61.656 2.61 1.75zm0 0"/></symbol><symbol overflow="visible" id="aY"><path d="M9.5.328v-.672H5.219v-1.765h3.187v-.688H2.312v-1.578h5.72v-2.938H1.5v.672h5.75v1.594H1.531v2.938h2.875v1.765H.22v.672zm0 0"/></symbol><symbol overflow="visible" id="aZ"><path d="M9.5.234v-.687H5.234v-2.36H8.36V-3.5H2.297v-2.984H8.25v-.672H1.516v4.343h2.921v2.36H.22v.687zm0 0"/></symbol><symbol overflow="visible" id="ba"><path d="M5.672-3.828c0-2.14-.938-3.547-2.406-3.547-1.47 0-2.422 1.406-2.422 3.547 0 2.14.953 3.547 2.422 3.547 1.468 0 2.406-1.406 2.406-3.547zm2.969 5.36v-9.657h-.797v9.656zm-3.75-5.36c0 1.531-.563 2.812-1.625 2.812-1.047 0-1.625-1.265-1.625-2.812 0-1.516.578-2.813 1.625-2.813 1.062 0 1.625 1.297 1.625 2.813zm0 0"/></symbol><symbol overflow="visible" id="bb"><path d="M6.656-.719v-.672c-.562.094-2 .22-2.968.266l-1.922.016v-2.375h3.593v-3.657H.984v.688h3.594v2.297H.984v3.734c.079 0 1.375 0 2.579-.047C4.655-.5 6.046-.625 6.655-.719zm1.469-7.406h-.797v9.656h.797v-4.953h1.484v-.719H8.125zm0 0"/></symbol><symbol overflow="visible" id="bc"><path d="M8.344-4.672v-.672H2.266v-2.703h-.797v3.375zM9.5-2.484v-.672H.219v.672zm-.906 3.796V.641H2.25v-2.25h-.766v2.921zm0 0"/></symbol><symbol overflow="visible" id="bd"><path d="M9.5-3.188v-.671H.219v.671zm-.938 4.61V.766H2.329v-.891h5.906v-2.203h-6.75v.656h5.907v.906H1.484v2.188zm.032-6.219v-.64H7.188l.109-1.641H8.39v-.672H1.312v.672h1.094l.125 1.64H1.11v.641zM6.5-7.078l-.125 1.64H3.328l-.125-1.64zm0 0"/></symbol><symbol overflow="visible" id="be"><path d="M5.313-2.797v-.64a18.19 18.19 0 0 1-2.141.187l-1.531.016V-4.72h2.796v-2.86H.86v.688h2.782v1.516H.859v2.813L3-2.579c.719-.031 1.86-.14 2.313-.219zm3.406 1.344v-6.672h-.766V-5.5H6.61v-2.469h-.765v5.922h.765v-2.75h1.344v3.344zM8.844.953C8.469.875 7.64.61 6.828.016c-.781-.594-1.25-1.172-1.25-1.75v-.22h-.922v.22c0 .578-.453 1.156-1.234 1.75-.813.593-1.64.859-2.016.937l.532.578c.484-.125 1.093-.36 1.796-.828C4.5.172 5.047-.453 5.125-.687c.078.234.625.859 1.39 1.39.704.469 1.313.703 1.798.828zm0 0"/></symbol><symbol overflow="visible" id="bf"><path d="M9.5-2.531v-.688H5.266v-1.203h3.328v-.687H7.172l.125-1.97H8.39v-.671H1.312v.672h1.094l.14 1.969H1.11v.687h3.329v1.203H.218v.688zM8.234 1.422v-3.047h-6.75v3.047zM6.5-7.078L6.375-5.11H3.344l-.14-1.97zM7.453.75H2.25V-.953h5.203zm0 0"/></symbol><symbol overflow="visible" id="bg"><path d="M5.156-.938v-.687c-.375.063-1.125.188-1.765.203l-1.516.016v-4.782h2.516v-.687H1.094v6.172c.047 0 1.14.015 2.093-.031.954-.032 1.626-.141 1.97-.204zm3.547 2.47v-9.657h-.765v3.828H6.484v-3.61H5.72v9h.765v-4.671h1.454v5.11zm0 0"/></symbol><symbol overflow="visible" id="bh"><path d="M5.469-2.938v-4.484H1v4.484zm3.125 1.829v-7.016h-.781v7.016zm.25 2.421V.641H2.922v-2.344h-.797v3.016zM4.688-3.609H1.78V-6.75h2.907zm0 0"/></symbol><symbol overflow="visible" id="bi"><path d="M9.5-3.484v-.672H7.828c.063-.266.203-.907.328-1.61.125-.64.219-1.28.266-1.906H1.328v.688h6.188c-.094 1.015-.391 2.406-.485 2.828H.22v.672h4.078v2.046H1.344v.672h6.093v2.297h.797v-2.968H5.11v-2.047zm0 0"/></symbol><symbol overflow="visible" id="bj"><path d="M5.64-7.422H1.157v.672H4.72a4.22 4.22 0 0 1-1.516 2.625A8.426 8.426 0 0 1 .5-2.578l.547.531c.797-.297 1.703-.719 2.86-1.75.984-.89 1.64-2.328 1.734-3.625zm3 6.313v-7.016h-.78v3.047H5.827v.672H7.86v3.297zm.313 2.421V.641H2.97v-2.313h-.797v2.984zm0 0"/></symbol><symbol overflow="visible" id="bk"><path d="M9.688-4.828v-.688H8.296v-2.609h-.781v5.813h.78v-2.516zm-4.11-2.594H1.031v.672h3.594c-.063.516-.39 1.531-1.453 2.406-1.031.828-2 1.14-2.75 1.36l.469.578c.843-.25 1.906-.656 3.046-1.672.954-.86 1.532-2.11 1.641-3.344zM8.516-.203c0-1.11-1.25-1.938-3.407-1.938-2.109 0-3.375.829-3.375 1.938C1.734.922 3 1.719 5.11 1.719c2.157 0 3.407-.797 3.407-1.922zm-.829.016c0 .765-1.125 1.25-2.562 1.25-1.422 0-2.563-.485-2.563-1.25 0-.797 1.126-1.266 2.563-1.266 1.453 0 2.563.469 2.563 1.266zm0 0"/></symbol><symbol overflow="visible" id="bl"><path d="M9.078-.172c0-1.11-1.234-1.922-3.531-1.922-2.281 0-3.531.813-3.531 1.922 0 1.11 1.25 1.89 3.53 1.89 2.298 0 3.532-.78 3.532-1.89zm-.828 0c0 .766-1.125 1.25-2.688 1.25-1.609 0-2.718-.484-2.718-1.25 0-.781 1.11-1.266 2.719-1.266 1.562 0 2.687.485 2.687 1.266zm.719-2.047v-5.906h-.766v2.375H6.86v-2.219h-.765v5.453h.765v-2.53h1.344v2.827zM5.672-3.438c-.328-.124-1-.609-1.5-1.28C3.75-5.267 3.438-6.017 3.438-7v-.828h-.813V-7c0 .984-.36 1.844-.781 2.469C1.39-3.844.594-3.234.28-3.063l.578.516c.329-.187.891-.625 1.375-1.234.47-.594.766-1.219.797-1.422.063.219.406.828.828 1.297a6.009 6.009 0 0 0 1.313 1.062zm0 0"/></symbol><symbol overflow="visible" id="bm"><path d="M5.219-.688v-.687c-.438.063-.86.11-1.469.14-.906.032-1.922.032-1.969.032v-2.313h2.657v-.687H1.78v-2.11h2.75V-7H.984v6.484c.094 0 1.594.016 2.735-.046.719-.032 1.11-.079 1.5-.125zm3.453 2.22v-9.657h-.766v3.75h-1.36v-3.516h-.765v8.985h.766v-4.766h1.36v5.203zm0 0"/></symbol><symbol overflow="visible" id="bn"><path d="M4.781-6.86H1.156v.688h2.75c-.078.828-.281 1.969-.953 3.078C2.266-1.938 1.25-1.125.563-.688l.625.485c.921-.625 1.687-1.406 2.421-2.531.782-1.22 1.079-2.829 1.172-4.125zm2.14 7.954v-8.985h-.765v2.22H4.813v.655h1.343v2.047H4.625v.688h1.531v3.375zm1.923.437v-9.656h-.781v9.656zm0 0"/></symbol><symbol overflow="visible" id="bo"><path d="M9.5-2.844V-3.5H.219v.656zm-1.328.797H1.484v.64h5.86v.782h-5.86v2.047h6.954v-.64H2.296V0h5.875zm.219-2.265v-.657H2.312v-.781h5.813v-2.047h-6.64v.64h5.812v.782H1.484v2.063zm0 0"/></symbol><symbol overflow="visible" id="bp"><path d="M5.156-7.516v-.609H2.281v.61zM6.5-6.328v-.61H.875v.61zm3.219 1.64v-.671h-1.36v-2.766h-.796v5.875h.796v-2.438zM7.172-2.766v-.656c-.813.125-2.39.266-3.031.266v-.594c1.203-.078 2-.516 2-1.11 0-.671-.97-1.124-2.391-1.124-1.438 0-2.406.468-2.406 1.125 0 .578.765 1.015 1.937 1.109v.61H.36v.64l3.094-.016c1.281-.015 3.031-.171 3.719-.25zm1.406 4.188v-.61H2.86V.095h5.5v-1.89H2.031v.609h5.485v.703H2.03v1.906zM5.281-4.86c0 .328-.562.546-1.531.546-.969 0-1.563-.218-1.563-.546 0-.36.594-.547 1.563-.547s1.531.187 1.531.547zm0 0"/></symbol><symbol overflow="visible" id="bq"><path d="M6.734-3.375c-.546-.188-1.312-.64-1.953-1.36a3.209 3.209 0 0 1-.828-2.202v-.891h-.812v.89c0 .97-.36 1.766-.875 2.407C1.75-3.906.906-3.313.39-3.047l.562.516c.453-.235 1.078-.688 1.594-1.25.453-.485.844-1.063 1-1.563.203.485.5.907.953 1.375.563.594 1.36 1.047 1.734 1.203zM8.75-2.281v-5.844h-.781v2.078H5.797v.688h2.172v3.078zm.188 2.11c0-1.11-1.204-1.923-3.438-1.923S2.062-1.28 2.062-.172c0 1.11 1.204 1.89 3.438 1.89s3.438-.78 3.438-1.89zm-.844 0c0 .765-1.078 1.25-2.594 1.25-1.531 0-2.594-.485-2.594-1.25 0-.782 1.063-1.25 2.594-1.25 1.516 0 2.594.484 2.594 1.25zm0 0"/></symbol><symbol overflow="visible" id="br"><path d="M5.125-7.078v-.688H2.172v.688zm1.328 1.516v-.672H.875v.671zm1.844-2.563H7.5v9.656h.797v-4.828H9.75V-4H8.297zM7.047-.281v-.703c-.813.125-2.125.203-2.938.218v-1.14c1.172-.11 1.938-.782 1.938-1.532 0-.843-.969-1.578-2.36-1.578-1.374 0-2.312.704-2.312 1.563 0 .797.75 1.437 1.922 1.547V-.75H.437v.688h3.22c1.359-.032 2.593-.141 3.39-.22zM5.266-3.437c0 .515-.61.89-1.563.89-.922 0-1.578-.375-1.578-.906 0-.516.656-.922 1.563-.922.953 0 1.578.406 1.578.938zm0 0"/></symbol><symbol overflow="visible" id="bs"><path d="M6.625-1.031v-.672c-.453.094-1.766.234-2.719.266l-2 .015v-4.844h3.75v-.671H1.125v6.203c.063 0 1.406.015 2.563-.032a23.84 23.84 0 0 0 2.937-.265zm1.89 2.562v-9.656H7.72v3.719h-2.75v.672h2.75V1.53zm0 0"/></symbol><symbol overflow="visible" id="bt"><path d="M6.64-1.234v-.704c-.702.141-2.109.344-3.077.375l-1.766.032v-5.672h-.781v6.375L3.53-.875c1.125-.031 2.469-.25 3.11-.36zm2.985-2.407v-.703h-1.5v-3.781h-.797v9.656h.797V-3.64zm0 0"/></symbol><symbol overflow="visible" id="bu"><path d="M8.188-8.125H7.39v9.656h.796v-4.86h1.516v-.702H8.188zM5.453-3.828c0-2.656-1.328-3.547-2.422-3.547-1.047 0-2.406.844-2.406 3.547 0 2.625 1.297 3.547 2.406 3.547 1.14 0 2.422-.922 2.422-3.547zm-.797 0c0 1.531-.547 2.812-1.61 2.812-1.046 0-1.64-1.265-1.64-2.812 0-1.516.594-2.813 1.64-2.813 1.063 0 1.61 1.297 1.61 2.813zm0 0"/></symbol><symbol overflow="visible" id="bv"><path d="M6.25-5.813c0-1.093-.984-2.078-2.453-2.078-1.469 0-2.453.985-2.453 2.079 0 1.093.984 2.078 2.453 2.078 1.469 0 2.453-.985 2.453-2.079zm2.484 7.344v-9.656h-.796v9.656zM7.578-2.28v-.672c-.547.094-2.375.234-3.469.265H.61v.704h2.688v3.296h.781V-2c1.031 0 2.734-.156 3.5-.281zM3.797-7.234c1.11 0 1.672.718 1.672 1.421 0 .704-.563 1.391-1.672 1.391-1.094 0-1.672-.687-1.672-1.39 0-.704.578-1.422 1.672-1.422zm0 0"/></symbol><symbol overflow="visible" id="bw"><path d="M8.422-7.672H1.328v.688h6.203c-.078.921-.453 2.609-.468 2.687h.78c.016-.031.188-.64.36-1.672.078-.468.172-1.078.219-1.703zM9.5-2.984v-.672H4.656v-2.031h-.812v2.03H.219v.673zM8.453-.188c0-1.109-1.297-1.906-3.594-1.906-2.312 0-3.609.797-3.609 1.906 0 1.11 1.297 1.907 3.61 1.907 2.296 0 3.593-.797 3.593-1.907zM4.86-1.421c1.594 0 2.75.438 2.75 1.219 0 .812-1.156 1.25-2.75 1.25-1.625 0-2.765-.438-2.765-1.25 0-.781 1.14-1.219 2.765-1.219zm0 0"/></symbol><symbol overflow="visible" id="bx"><path d="M5.781-5.453c0-1.297-1.062-2.344-2.547-2.344-1.468 0-2.53 1.047-2.53 2.344s1.062 2.36 2.53 2.36c1.485 0 2.547-1.063 2.547-2.36zM8.72-2.391v-5.734h-.781v5.734zm0 3.922V-1.75h-6.75v.672h5.968v2.61zM4.953-5.453c0 .906-.61 1.64-1.719 1.64-1.093 0-1.703-.734-1.703-1.64 0-.89.61-1.625 1.703-1.625 1.11 0 1.72.734 1.72 1.625zm0 0"/></symbol><symbol overflow="visible" id="by"><path d="M8.75-3.016v-5.109h-.781v5.11zm-2.219-.968A5.725 5.725 0 0 1 4.75-5.141c-.484-.468-.906-1.125-.906-1.984v-.734h-.828v.734c0 .922-.532 1.734-1.032 2.234-.546.547-1.265 1-1.734 1.188l.563.578c.312-.14 1.015-.563 1.578-1.11.5-.484.843-.952 1.03-1.437.22.438.548.86 1.017 1.25.578.516 1.25.89 1.609 1.031zm2.453 5.406V.797H3.125V-.234h5.61v-2.297h-6.47v.625h5.657v1.031h-5.61v2.297zm0 0"/></symbol><symbol overflow="visible" id="bz"><path d="M4.922-7.422v-.64H1.953v.64zm1.406 1.5v-.64H.594v.64zm2.39 4.984v-7.187h-.78v2.328H6.405v.672h1.532v1.25H6.25v.672h1.688v2.265zM3.454-2c1.563 0 2.422-.781 2.422-1.656 0-.906-.86-1.672-2.406-1.672-1.516 0-2.406.766-2.406 1.672 0 .875.875 1.656 2.39 1.656zm5.453 3.313V.64H2.97v-2.032h-.797v2.704zM5.031-3.673c0 .563-.5 1.031-1.562 1.031-1.047 0-1.563-.484-1.563-1.03 0-.563.516-1.048 1.563-1.048 1.062 0 1.562.485 1.562 1.047zm0 0"/></symbol><symbol overflow="visible" id="bA"><path d="M5.172-.89v-.688c-.375.062-1.125.156-1.75.156l-1.547.031v-4.796h2.516v-.688H1.094v6.188c.062 0 1.156 0 2.11-.032.968-.047 1.64-.11 1.968-.172zm1.5 1.984v-9h-.766v3.547H4.078v.687h1.828v4.766zm2.031.437v-9.656h-.765v9.656zm0 0"/></symbol><symbol overflow="visible" id="bB"><path d="M5.64-6.969H1.25v.657h3.5A7.49 7.49 0 0 1 3.469-3C2.734-1.969 1.625-1.172.703-.687l.594.5c1.062-.579 2-1.329 2.906-2.579.938-1.265 1.36-2.984 1.438-4.203zm3.079 8.5v-9.656h-.797v9.656zm0 0"/></symbol><symbol overflow="visible" id="bC"><path d="M9.5-2.016v-.671H5.234v-1.094h3.157v-.672H2.297v-1.031h5.828v-2.344h-6.64v.672h5.827v1.015H1.484v2.36h2.907v1.094H.219v.671zM8.266 1.531v-2.625H1.344v.688h6.14V1.53zm0 0"/></symbol><symbol overflow="visible" id="bD"><path d="M5.469-7.125v-.688H2.547v.688zm1.36 3.969c-.313-.078-.907-.328-1.485-.844-.516-.438-.813-.89-.875-1.36 0-.015 0-.124-.016-.14h2.203v-.688H1.422v.688h2.203v.14c-.063.5-.39.985-.953 1.438-.61.485-1.375.797-1.719.906l.485.594A6.081 6.081 0 0 0 3-3.266c.547-.406.922-.89 1.031-1.125.11.235.438.672.953 1.079a4.331 4.331 0 0 0 1.36.765zM8.75 1.53v-9.656h-.781v9.656zM7.516-.437v-.688c-.704.11-2 .188-2.829.203-.125.016-.109.016-.25.016v-1.875h-.812v1.875H.641v.703h3.375c1.156-.031 2.812-.14 3.5-.234zm0 0"/></symbol><symbol overflow="visible" id="bE"><path d="M6.688-3.031c-.422-.172-1.313-.813-1.875-1.453-.516-.579-.86-1.563-.86-2.454v-.89h-.812v.89c0 .891-.313 1.86-.844 2.563A5.568 5.568 0 0 1 .375-2.797l.547.516c.515-.25 1.187-.735 1.734-1.39.469-.563.75-1.079.89-1.548.157.453.5.969.923 1.438.547.594 1.36 1.172 1.687 1.328zM8.75-1.11v-7.016h-.781v2.281H5.797v.688h2.172v4.047zm.234 2.421V.641H3.125v-2.313h-.766v2.984zm0 0"/></symbol><symbol overflow="visible" id="bF"><path d="M8.844-2.531v-5.594h-.781v5.594zm-1.985 0V-7.97h-.765v2.5H4.687v.688h1.407v2.25zm-2-4.828H1.125v.671h2.797c-.11.641-.344 1.485-1.11 2.297-.703.75-1.718 1.266-2.374 1.5l.5.547c.703-.265 1.656-.75 2.609-1.781.89-.969 1.234-2.297 1.312-3.234zM9.453 1A3.602 3.602 0 0 1 8.125-.203c-.406-.64-.547-1.188-.547-1.781v-.172h-.781v.172c0 .562-.14 1.078-.516 1.671a3.409 3.409 0 0 1-.86 1c-.312-.234-.609-.593-.859-1-.359-.593-.484-1.109-.484-1.671v-.172h-.797l.016.172c0 .593-.172 1.14-.594 1.78C2.36.345 1.875.72 1.375 1l.516.531C2.297 1.281 2.656 1 3 .578c.39-.484.578-.844.672-1.125.11.297.344.719.672 1.125.281.328.578.625 1.093.969.516-.344.813-.64 1.079-.969.312-.406.562-.828.671-1.125.094.281.266.64.641 1.11.36.437.688.718 1.11.968zm0 0"/></symbol><symbol overflow="visible" id="bG"><path d="M8.344-5.234v-.672H2.266v-2.172h-.797v2.844zM9.5-3.594v-.656H.219v.656zM8.453 1.422V.766H2.328V-.297h5.906v-2.281h-6.75v.656h5.907v.969H1.484v2.375zm0 0"/></symbol><symbol overflow="visible" id="bH"><path d="M8.578-1.094v-7.031h-.765v1.734H5.438v-1.28h-.782v1.765H1.75v-1.766H.969v5.047h4.468V-3.75h2.375v2.656zm.235 2.407V.64H2.905v-2.172h-.812v2.843zm-1-5.72H5.438v-1.327h2.375zm-3.157 1.11H1.75v-1.937h2.906zm0 0"/></symbol><symbol overflow="visible" id="bI"><path d="M5.016-7.422v-.64H1.953v.64zm1.421 1.375v-.64H.595v.64zm3.282 1.14v-.671h-1.39v-2.547h-.782v5.844h.781v-2.625zm-6.203 2.47c1.53 0 2.468-.657 2.468-1.532 0-.86-.937-1.5-2.468-1.5-1.485 0-2.47.64-2.47 1.516 0 .86.985 1.515 2.47 1.515zm4.812 3.859v-3.063H2v3.063zm-6.437-5.39c0-.532.593-.891 1.625-.891 1.046 0 1.625.359 1.625.89 0 .547-.579.875-1.625.875-1.032 0-1.625-.328-1.625-.875zM7.547.765H2.78v-1.75h4.766zm0 0"/></symbol><symbol overflow="visible" id="bJ"><path d="M8.594-2.938v-5.187h-.781v2.11h-2.25c-.22-1.063-1.204-1.813-2.422-1.813-1.391 0-2.47.953-2.47 2.25 0 1.281 1.095 2.234 2.47 2.234 1.296 0 2.312-.844 2.453-2h2.218v2.407zM4.78-5.594c0 .828-.656 1.5-1.64 1.5-.985 0-1.641-.672-1.641-1.5s.656-1.484 1.64-1.484c.985 0 1.641.656 1.641 1.484zM4.688.766h-2v-1.36h2zm.765.203v-3.39h-.766v1.171h-2v-1.172h-.75v3.844h3.516V1l.469.563a4.04 4.04 0 0 0 1-.829c.297-.343.578-.812.656-1.062.063.25.344.719.64 1.062.298.36.75.688 1.016.829L9.72.984C9.453.86 8.813.391 8.453-.172c-.39-.594-.5-1.25-.5-1.844v-.437h-.766v.437c0 .594-.109 1.25-.484 1.844-.36.563-.984 1-1.25 1.14zm0 0"/></symbol><symbol overflow="visible" id="bK"><path d="M6.078-6.969H.906v.688h4.297c-.016 1.14-.406 3.718-.422 3.86h.782c0-.048.171-.954.312-2.11a39.41 39.41 0 0 0 .203-2.438zm2.203-1.156h-.797v9.656h.797v-4.765H9.75v-.704H8.281zM7.047-.562v-.672c-.797.14-2.906.28-3.86.28v-3.109h-.796v3.11H.375v.672h1.063c2.906 0 4.609-.14 5.609-.281zm0 0"/></symbol><symbol overflow="visible" id="bL"><path d="M8.234-3.578v-4.25h-.796v1.297H2.266v-1.297h-.782v4.25zM9.5-1.641v-.687H.219v.687h4.218v3.172h.797V-1.64zM7.437-4.266H2.266v-1.593h5.171zm0 0"/></symbol><symbol overflow="visible" id="bM"><path d="M8.188 1.531v-3.156H1.671v.688h5.734V1.53zm1.406-6.656v-.672H8.188v-2.328h-.766v5.844h.766v-2.844zM6.766-3.109v-.672c-.547.11-1.922.219-2.907.25L1.688-3.5v-1.36h3.78v-.671h-3.78v-1.297h3.89v-.688H.906v4.688c.11 0 2 .015 3.172-.031 1-.047 2.125-.157 2.688-.25zm0 0"/></symbol><symbol overflow="visible" id="bN"><path d="M8.328-8.125h-.781v6.11h.781v-2.907h1.39v-.687h-1.39zM8.516 0c0-1.016-1.157-1.75-3.391-1.75-2.219 0-3.39.703-3.39 1.734 0 1.032 1.171 1.766 3.39 1.766 2.219 0 3.39-.734 3.39-1.75zM7.64-.016c0 .704-1.016 1.125-2.516 1.125-1.531 0-2.547-.421-2.547-1.125 0-.718 1.016-1.109 2.547-1.109 1.5 0 2.516.406 2.516 1.11zM5.016-7.422v-.64H1.953v.64zm1.421 1.375v-.64H.595v.64zm-2.921 3.61c1.53 0 2.468-.657 2.468-1.532 0-.86-.937-1.5-2.468-1.5-1.485 0-2.47.64-2.47 1.516 0 .86.985 1.515 2.47 1.515zM1.89-3.97c0-.531.593-.89 1.625-.89 1.046 0 1.625.359 1.625.89 0 .547-.579.875-1.625.875-1.032 0-1.625-.328-1.625-.875zm0 0"/></symbol><symbol overflow="visible" id="bO"><path d="M6.547-3.484c-.563-.188-1.344-.641-1.969-1.36a3.209 3.209 0 0 1-.828-2.203v-.781h-.813v.781c0 .969-.374 1.766-.874 2.406-.516.625-1.36 1.22-1.876 1.485l.563.515c.453-.234 1.078-.687 1.594-1.25.469-.484.86-1.062 1-1.562.187.484.5.906.953 1.36a5.593 5.593 0 0 0 1.719 1.218zm3.14-1.454v-.703h-1.39v-2.484h-.781v5.86h.78v-2.672zM8.531-.171c0-1.11-1.11-1.922-3.328-1.922-2.234 0-3.36.813-3.36 1.922 0 1.11 1.126 1.89 3.36 1.89 2.219 0 3.328-.78 3.328-1.89zm-.844 0c0 .766-.984 1.25-2.484 1.25-1.531 0-2.5-.484-2.5-1.25 0-.781.969-1.25 2.5-1.25 1.5 0 2.484.484 2.484 1.25zm0 0"/></symbol><symbol overflow="visible" id="bP"><path d="M9.5-2.203v-.688H5.266v-1.265h2.968v-3.75h-.78v1.11H2.25v-1.11h-.766v3.75h2.954v1.265H.218v.688zM8.234 1.53v-2.703h-6.89V-.5h6.093v2.031zm-.78-6.375H2.25V-6.14h5.203zm0 0"/></symbol><symbol overflow="visible" id="bQ"><path d="M8.344-4.547v-.687H2.25v-1.844h5.984v-.672h-6.75v3.203zM9.5-2.657v-.687H.219v.688zM8.234 1.532V-1.5h-6.89v.688h6.11V1.53zm0 0"/></symbol><symbol overflow="visible" id="bR"><path d="M8.766-3v-5.125h-.782V-3zm-2.86-4.422H1.328v.672h3.594c-.078.297-.406 1.297-1.469 2.094-.922.718-2.015 1.093-2.687 1.265l.453.563a7.99 7.99 0 0 0 3.047-1.578c.984-.797 1.53-2.016 1.64-3.016zm3.047 8.844V.797H3.125V-.234H8.75v-2.297H2.297v.625h5.64v1.031h-5.64v2.297zm0 0"/></symbol><symbol overflow="visible" id="bS"><path d="M12.14-2.828v5.281H5.735c-.375 0-.695-.043-.953-.125a1.456 1.456 0 0 1-.625-.36 1.504 1.504 0 0 1-.343-.655c-.075-.262-.11-.59-.11-.985v-3.156zm-6.203-8.547c.34 0 .614.043.813.125.207.086.363.21.469.375.113.156.18.355.203.594.02.23.008.492-.031.781a5.69 5.69 0 0 1-.657 2A7.958 7.958 0 0 1 5.47-5.781c-.5.523-1.067 1.008-1.688 1.453-.625.437-1.27.824-1.922 1.156l-.828-1.531a10.827 10.827 0 0 0 1.594-.906c.508-.352.973-.727 1.39-1.125A6.63 6.63 0 0 0 5.048-7.97c.277-.426.469-.86.562-1.297.04-.195.036-.328-.015-.39-.055-.07-.211-.11-.469-.11H1.406v-1.609zm4.391-.375h1.813v3.11h1.921v1.624h-1.921v3.204h-1.813zM5.516-1.203V.234c0 .239.035.395.109.47.082.07.238.109.469.109h4.265v-2.016zm0 0"/></symbol><symbol overflow="visible" id="bT"><path d="M5.86-11.203c-.024.492-.07 1.004-.141 1.531a14.09 14.09 0 0 1-.328 1.625c.132.43.347.879.64 1.344.29.46.61.902.953 1.328.352.43.711.82 1.079 1.172a6.53 6.53 0 0 0 1 .812L7.984-1.953a7.042 7.042 0 0 1-.859-.703c-.293-.278-.59-.586-.89-.922-.305-.34-.598-.695-.876-1.063a9.706 9.706 0 0 1-.75-1.14 14.487 14.487 0 0 1-1.28 2.203 12.628 12.628 0 0 1-1.86 2.062L.28-2.812c.707-.645 1.301-1.313 1.781-2 .477-.696.86-1.407 1.141-2.125.29-.727.504-1.461.64-2.204.134-.738.212-1.476.235-2.218zm4.468-.547h1.813v4.516h1.921v1.625h-1.921V.03h-1.813zm0 0"/></symbol><symbol overflow="visible" id="bU"><path d="M1.625-7.766c0-.507.098-.988.297-1.437a3.531 3.531 0 0 1 2.016-1.922c.464-.184.96-.281 1.484-.281.527 0 1.023.097 1.484.281a3.639 3.639 0 0 1 2.016 1.922c.195.45.297.93.297 1.437 0 .512-.102.993-.297 1.438-.2.437-.473.82-.813 1.14a3.81 3.81 0 0 1-1.203.766c-.46.18-.957.266-1.484.266-.524 0-1.02-.086-1.484-.266a3.714 3.714 0 0 1-1.22-.766 3.572 3.572 0 0 1-.796-1.14 3.483 3.483 0 0 1-.297-1.438zm6.484 5.688c.551 0 1.079-.02 1.579-.063.496-.039.863-.132 1.093-.28v-9.329h1.813V.734H10.78V-.719c-.375.117-.8.192-1.265.219-.47.023-.918.031-1.344.031H.766v-1.61zM3.406-7.766c0 .274.051.528.156.766.102.23.243.434.422.61.176.18.383.32.625.421.246.094.52.14.813.14.27 0 .523-.046.766-.14.246-.101.46-.242.64-.422.176-.175.317-.379.422-.609a1.783 1.783 0 0 0 0-1.531 2.076 2.076 0 0 0-.422-.64 2.076 2.076 0 0 0-.64-.423 1.958 1.958 0 0 0-.766-.156 2.12 2.12 0 0 0-.813.156A1.946 1.946 0 0 0 3.562-8.53a1.89 1.89 0 0 0-.156.765zm0 0"/></symbol><symbol overflow="visible" id="bW"><path d="M11.516-3.234V.578h-7.47v.39c0 .208.024.337.079.391.05.059.172.094.36.094h7.14v1.5h-7.89c-.45-.023-.817-.148-1.094-.375-.274-.23-.407-.598-.407-1.094v-2.39h7.47v-.813h-7.47v-1.515zM9.719-9.281c0-.332-.055-.555-.156-.672-.106-.113-.336-.172-.688-.172H2.062v-1.61h6.813c.52 0 .945.036 1.281.094.332.055.598.168.797.344.207.18.352.426.438.735.082.312.125.726.125 1.234v3.234h1.703v1.485H.547v-1.485h9.172zm0 0"/></symbol></defs><g fill="#393536"><use xlink:href="#a" x="540.818" y="48.426"/><use xlink:href="#b" x="546.392" y="48.426"/></g><g fill="#4f4c4d"><use xlink:href="#c" x="336.467" y="47.727"/><use xlink:href="#d" x="344.467" y="47.727"/><use xlink:href="#e" x="352.468" y="47.727"/><use xlink:href="#f" x="360.468" y="47.727"/><use xlink:href="#g" x="368.468" y="47.727"/><use xlink:href="#h" x="371.075" y="47.727"/><use xlink:href="#i" x="379.075" y="47.727"/><use xlink:href="#j" x="387.076" y="47.727"/><use xlink:href="#k" x="395.076" y="47.727"/><use xlink:href="#l" x="403.076" y="47.727"/><use xlink:href="#m" x="411.076" y="47.727"/><use xlink:href="#c" x="419.077" y="47.727"/><use xlink:href="#d" x="427.077" y="47.727"/></g><use xlink:href="#n" x="435.076" y="47.727" fill="#231f20"/><g fill="#231f20"><use xlink:href="#o" x="437.683" y="47.727"/><use xlink:href="#p" x="445.683" y="47.727"/><use xlink:href="#q" x="453.684" y="47.727"/><use xlink:href="#r" x="461.684" y="47.727"/><use xlink:href="#s" x="469.684" y="47.727"/><use xlink:href="#t" x="477.684" y="47.727"/><use xlink:href="#u" x="485.685" y="47.727"/><use xlink:href="#v" x="493.685" y="47.727"/><use xlink:href="#w" x="496.292" y="47.727"/><use xlink:href="#x" x="501.703" y="47.727"/><use xlink:href="#y" x="506.503" y="47.727"/><use xlink:href="#z" x="508.436" y="47.727"/><use xlink:href="#v" x="511.043" y="47.727"/><use xlink:href="#A" x="513.65" y="47.727"/><use xlink:href="#B" x="517.605" y="47.727"/></g><use xlink:href="#C" x="93.43" y="122.484" fill="#33459a"/><g fill="#33459a"><use xlink:href="#D" x="110.409" y="122.484"/><use xlink:href="#E" x="115.762" y="122.484"/><use xlink:href="#F" x="121.116" y="122.484"/><use xlink:href="#G" x="138.095" y="122.484"/><use xlink:href="#H" x="155.074" y="122.484"/><use xlink:href="#E" x="172.054" y="122.484"/><use xlink:href="#I" x="177.407" y="122.484"/><use xlink:href="#J" x="194.387" y="122.484"/><use xlink:href="#K" x="201.218" y="122.484"/><use xlink:href="#L" x="218.198" y="122.484"/><use xlink:href="#M" x="235.177" y="122.484"/><use xlink:href="#E" x="252.156" y="122.484"/><use xlink:href="#N" x="257.51" y="122.484"/><use xlink:href="#O" x="274.489" y="122.484"/></g><g fill="#231f20"><use xlink:href="#P" x="95.553" y="525.559"/><use xlink:href="#Q" x="105.151" y="525.559"/><use xlink:href="#R" x="114.749" y="525.559"/><use xlink:href="#S" x="124.347" y="525.559"/><use xlink:href="#T" x="133.945" y="525.559"/><use xlink:href="#U" x="137.531" y="525.559"/><use xlink:href="#V" x="147.129" y="525.559"/><use xlink:href="#W" x="156.727" y="525.559"/><use xlink:href="#X" x="166.325" y="525.559"/><use xlink:href="#Y" x="175.923" y="525.559"/><use xlink:href="#Z" x="185.52" y="525.559"/><use xlink:href="#P" x="195.118" y="525.559"/><use xlink:href="#Q" x="204.716" y="525.559"/><use xlink:href="#aa" x="214.314" y="525.559"/><use xlink:href="#T" x="223.912" y="525.559"/><use xlink:href="#ab" x="227.498" y="525.559"/><use xlink:href="#ac" x="237.096" y="525.559"/><use xlink:href="#ad" x="246.694" y="525.559"/><use xlink:href="#T" x="256.292" y="525.559"/><use xlink:href="#ae" x="259.878" y="525.559"/><use xlink:href="#af" x="269.476" y="525.559"/><use xlink:href="#ag" x="279.074" y="525.559"/><use xlink:href="#T" x="288.672" y="525.559"/><use xlink:href="#ah" x="292.258" y="525.559"/><use xlink:href="#ai" x="301.856" y="525.559"/><use xlink:href="#aa" x="311.454" y="525.559"/><use xlink:href="#T" x="321.052" y="525.559"/><use xlink:href="#aj" x="324.638" y="525.559"/><use xlink:href="#ak" x="334.236" y="525.559"/><use xlink:href="#al" x="343.834" y="525.559"/><use xlink:href="#am" x="353.431" y="525.559"/><use xlink:href="#an" x="363.029" y="525.559"/><use xlink:href="#ao" x="372.627" y="525.559"/><use xlink:href="#T" x="382.225" y="525.559"/><use xlink:href="#ap" x="385.811" y="525.559"/><use xlink:href="#aq" x="395.409" y="525.559"/><use xlink:href="#ar" x="405.007" y="525.559"/><use xlink:href="#as" x="414.605" y="525.559"/><use xlink:href="#at" x="424.203" y="525.559"/><use xlink:href="#au" x="433.801" y="525.559"/></g><g fill="#231f20"><use xlink:href="#ah" x="95.553" y="544.536"/><use xlink:href="#ai" x="105.151" y="544.536"/><use xlink:href="#av" x="114.749" y="544.536"/><use xlink:href="#aw" x="124.347" y="544.536"/><use xlink:href="#ax" x="133.945" y="544.536"/><use xlink:href="#W" x="143.543" y="544.536"/><use xlink:href="#T" x="153.141" y="544.536"/><use xlink:href="#ah" x="156.727" y="544.536"/><use xlink:href="#ai" x="166.325" y="544.536"/><use xlink:href="#ad" x="175.923" y="544.536"/><use xlink:href="#T" x="185.52" y="544.536"/><use xlink:href="#ay" x="189.107" y="544.536"/><use xlink:href="#al" x="198.704" y="544.536"/><use xlink:href="#T" x="208.302" y="544.536"/><use xlink:href="#at" x="211.888" y="544.536"/><use xlink:href="#az" x="221.486" y="544.536"/><use xlink:href="#aA" x="231.084" y="544.536"/><use xlink:href="#T" x="240.682" y="544.536"/><use xlink:href="#aB" x="244.268" y="544.536"/><use xlink:href="#aC" x="253.866" y="544.536"/><use xlink:href="#aq" x="263.464" y="544.536"/><use xlink:href="#aD" x="273.062" y="544.536"/><use xlink:href="#ad" x="282.66" y="544.536"/><use xlink:href="#T" x="292.258" y="544.536"/><use xlink:href="#aE" x="295.844" y="544.536"/><use xlink:href="#aF" x="305.442" y="544.536"/><use xlink:href="#aG" x="315.04" y="544.536"/><use xlink:href="#T" x="324.638" y="544.536"/><use xlink:href="#aE" x="328.224" y="544.536"/><use xlink:href="#T" x="337.822" y="544.536"/><use xlink:href="#aH" x="341.408" y="544.536"/><use xlink:href="#aI" x="351.006" y="544.536"/><use xlink:href="#aJ" x="360.604" y="544.536"/><use xlink:href="#as" x="370.201" y="544.536"/><use xlink:href="#at" x="379.799" y="544.536"/><use xlink:href="#au" x="389.397" y="544.536"/></g><g fill="#231f20"><use xlink:href="#P" x="95.553" y="582.49"/><use xlink:href="#Q" x="105.151" y="582.49"/><use xlink:href="#ad" x="114.749" y="582.49"/><use xlink:href="#T" x="124.347" y="582.49"/></g><g fill="#231f20"><use xlink:href="#ah" x="128.692" y="582.49"/><use xlink:href="#ai" x="138.29" y="582.49"/><use xlink:href="#aK" x="147.888" y="582.49"/><use xlink:href="#ag" x="157.486" y="582.49"/><use xlink:href="#T" x="167.084" y="582.49"/></g><g fill="#231f20"><use xlink:href="#aL" x="171.429" y="582.49"/><use xlink:href="#ai" x="181.027" y="582.49"/><use xlink:href="#al" x="190.625" y="582.49"/><use xlink:href="#am" x="200.223" y="582.49"/><use xlink:href="#aM" x="209.821" y="582.49"/><use xlink:href="#T" x="219.419" y="582.49"/></g><g fill="#231f20"><use xlink:href="#ah" x="223.765" y="582.49"/><use xlink:href="#ai" x="233.362" y="582.49"/><use xlink:href="#av" x="242.96" y="582.49"/><use xlink:href="#aw" x="252.558" y="582.49"/><use xlink:href="#ax" x="262.156" y="582.49"/><use xlink:href="#aN" x="271.754" y="582.49"/><use xlink:href="#T" x="281.352" y="582.49"/></g><g fill="#231f20"><use xlink:href="#at" x="285.698" y="582.49"/><use xlink:href="#aO" x="295.295" y="582.49"/><use xlink:href="#T" x="304.893" y="582.49"/></g><g fill="#231f20"><use xlink:href="#aA" x="309.239" y="582.49"/><use xlink:href="#aP" x="318.837" y="582.49"/><use xlink:href="#T" x="328.435" y="582.49"/></g><g fill="#231f20"><use xlink:href="#ap" x="332.78" y="582.49"/><use xlink:href="#aq" x="342.378" y="582.49"/><use xlink:href="#W" x="351.976" y="582.49"/><use xlink:href="#T" x="361.574" y="582.49"/></g><g fill="#231f20"><use xlink:href="#aQ" x="365.919" y="582.49"/><use xlink:href="#aR" x="375.517" y="582.49"/><use xlink:href="#ad" x="385.115" y="582.49"/><use xlink:href="#T" x="394.713" y="582.49"/></g><g fill="#231f20"><use xlink:href="#aS" x="399.059" y="582.49"/><use xlink:href="#aT" x="408.656" y="582.49"/><use xlink:href="#aU" x="418.254" y="582.49"/><use xlink:href="#aV" x="427.852" y="582.49"/><use xlink:href="#T" x="430.436" y="582.49"/></g><g fill="#231f20"><use xlink:href="#aW" x="434.782" y="582.49"/><use xlink:href="#aX" x="444.38" y="582.49"/><use xlink:href="#aY" x="453.978" y="582.49"/><use xlink:href="#aZ" x="463.576" y="582.49"/><use xlink:href="#T" x="473.173" y="582.49"/></g><g fill="#231f20"><use xlink:href="#U" x="477.519" y="582.49"/><use xlink:href="#V" x="487.117" y="582.49"/><use xlink:href="#W" x="496.715" y="582.49"/><use xlink:href="#X" x="506.313" y="582.49"/></g><g fill="#231f20"><use xlink:href="#Y" x="95.553" y="601.467"/><use xlink:href="#Z" x="105.151" y="601.467"/><use xlink:href="#P" x="114.749" y="601.467"/><use xlink:href="#Q" x="124.347" y="601.467"/><use xlink:href="#ba" x="133.945" y="601.467"/><use xlink:href="#bb" x="143.543" y="601.467"/><use xlink:href="#bc" x="153.141" y="601.467"/><use xlink:href="#T" x="162.739" y="601.467"/></g><g fill="#231f20"><use xlink:href="#bd" x="166.377" y="601.467"/><use xlink:href="#be" x="175.975" y="601.467"/><use xlink:href="#bf" x="185.573" y="601.467"/><use xlink:href="#ad" x="195.171" y="601.467"/><use xlink:href="#T" x="204.769" y="601.467"/></g><g fill="#231f20"><use xlink:href="#ay" x="208.408" y="601.467"/><use xlink:href="#al" x="218.006" y="601.467"/><use xlink:href="#T" x="227.604" y="601.467"/></g><g fill="#231f20"><use xlink:href="#bg" x="231.242" y="601.467"/><use xlink:href="#aA" x="240.84" y="601.467"/><use xlink:href="#bh" x="250.438" y="601.467"/><use xlink:href="#bi" x="260.036" y="601.467"/><use xlink:href="#T" x="269.634" y="601.467"/></g><g fill="#231f20"><use xlink:href="#U" x="273.273" y="601.467"/><use xlink:href="#V" x="282.871" y="601.467"/><use xlink:href="#W" x="292.469" y="601.467"/><use xlink:href="#X" x="302.067" y="601.467"/><use xlink:href="#W" x="311.665" y="601.467"/><use xlink:href="#T" x="321.263" y="601.467"/></g><g fill="#231f20"><use xlink:href="#bj" x="324.901" y="601.467"/><use xlink:href="#bk" x="334.499" y="601.467"/><use xlink:href="#aA" x="344.097" y="601.467"/><use xlink:href="#T" x="353.695" y="601.467"/></g><g fill="#231f20"><use xlink:href="#Y" x="357.334" y="601.467"/><use xlink:href="#Z" x="366.932" y="601.467"/><use xlink:href="#T" x="376.53" y="601.467"/></g><g fill="#231f20"><use xlink:href="#bl" x="380.169" y="601.467"/><use xlink:href="#bm" x="389.766" y="601.467"/><use xlink:href="#bn" x="399.364" y="601.467"/><use xlink:href="#bo" x="408.962" y="601.467"/><use xlink:href="#T" x="418.56" y="601.467"/></g><g fill="#231f20"><use xlink:href="#bp" x="422.199" y="601.467"/><use xlink:href="#bq" x="431.797" y="601.467"/><use xlink:href="#br" x="441.395" y="601.467"/><use xlink:href="#aK" x="450.993" y="601.467"/><use xlink:href="#ag" x="460.591" y="601.467"/><use xlink:href="#T" x="470.189" y="601.467"/></g><g fill="#231f20"><use xlink:href="#bs" x="473.827" y="601.467"/><use xlink:href="#T" x="483.425" y="601.467"/></g><g fill="#231f20"><use xlink:href="#bt" x="487.064" y="601.467"/><use xlink:href="#bu" x="496.662" y="601.467"/><use xlink:href="#ae" x="506.26" y="601.467"/><use xlink:href="#T" x="515.858" y="601.467"/></g><g fill="#231f20"><use xlink:href="#bi" x="95.553" y="620.444"/><use xlink:href="#bh" x="105.151" y="620.444"/><use xlink:href="#T" x="114.749" y="620.444"/><use xlink:href="#bj" x="118.335" y="620.444"/><use xlink:href="#bk" x="127.933" y="620.444"/><use xlink:href="#ad" x="137.531" y="620.444"/><use xlink:href="#T" x="147.129" y="620.444"/><use xlink:href="#bv" x="150.715" y="620.444"/><use xlink:href="#aA" x="160.313" y="620.444"/><use xlink:href="#T" x="169.911" y="620.444"/><use xlink:href="#bw" x="173.497" y="620.444"/><use xlink:href="#bx" x="183.095" y="620.444"/><use xlink:href="#ad" x="192.693" y="620.444"/><use xlink:href="#T" x="202.29" y="620.444"/><use xlink:href="#by" x="205.877" y="620.444"/><use xlink:href="#bz" x="215.474" y="620.444"/><use xlink:href="#aK" x="225.072" y="620.444"/><use xlink:href="#bc" x="234.67" y="620.444"/><use xlink:href="#bA" x="244.268" y="620.444"/><use xlink:href="#T" x="253.866" y="620.444"/><use xlink:href="#bB" x="257.452" y="620.444"/><use xlink:href="#ak" x="267.05" y="620.444"/><use xlink:href="#aG" x="276.648" y="620.444"/><use xlink:href="#T" x="286.246" y="620.444"/><use xlink:href="#aE" x="289.832" y="620.444"/><use xlink:href="#T" x="299.43" y="620.444"/><use xlink:href="#aH" x="303.016" y="620.444"/><use xlink:href="#aZ" x="312.614" y="620.444"/><use xlink:href="#bC" x="322.212" y="620.444"/><use xlink:href="#T" x="331.81" y="620.444"/><use xlink:href="#bD" x="335.396" y="620.444"/><use xlink:href="#bE" x="344.994" y="620.444"/><use xlink:href="#ad" x="354.592" y="620.444"/><use xlink:href="#T" x="364.19" y="620.444"/><use xlink:href="#at" x="367.776" y="620.444"/><use xlink:href="#aK" x="377.374" y="620.444"/><use xlink:href="#bF" x="386.971" y="620.444"/><use xlink:href="#aJ" x="396.569" y="620.444"/><use xlink:href="#as" x="406.167" y="620.444"/><use xlink:href="#at" x="415.765" y="620.444"/><use xlink:href="#au" x="425.363" y="620.444"/></g><g fill="#231f20"><use xlink:href="#bG" x="95.553" y="658.398"/><use xlink:href="#T" x="105.151" y="658.398"/><use xlink:href="#bH" x="108.737" y="658.398"/><use xlink:href="#bI" x="118.335" y="658.398"/><use xlink:href="#bJ" x="127.933" y="658.398"/><use xlink:href="#bc" x="137.531" y="658.398"/><use xlink:href="#T" x="147.129" y="658.398"/><use xlink:href="#ab" x="150.715" y="658.398"/><use xlink:href="#ac" x="160.313" y="658.398"/><use xlink:href="#bK" x="169.911" y="658.398"/><use xlink:href="#T" x="179.509" y="658.398"/><use xlink:href="#af" x="183.095" y="658.398"/><use xlink:href="#af" x="192.693" y="658.398"/><use xlink:href="#T" x="202.29" y="658.398"/><use xlink:href="#bL" x="205.877" y="658.398"/><use xlink:href="#bM" x="215.474" y="658.398"/><use xlink:href="#aS" x="225.072" y="658.398"/><use xlink:href="#aT" x="234.67" y="658.398"/><use xlink:href="#aU" x="244.268" y="658.398"/><use xlink:href="#aV" x="253.866" y="658.398"/><use xlink:href="#T" x="256.45" y="658.398"/><use xlink:href="#bN" x="260.036" y="658.398"/><use xlink:href="#bO" x="269.634" y="658.398"/><use xlink:href="#T" x="279.232" y="658.398"/><use xlink:href="#bj" x="282.818" y="658.398"/><use xlink:href="#bk" x="292.416" y="658.398"/><use xlink:href="#aK" x="302.014" y="658.398"/><use xlink:href="#aO" x="311.612" y="658.398"/><use xlink:href="#ag" x="321.21" y="658.398"/><use xlink:href="#T" x="330.808" y="658.398"/><use xlink:href="#aF" x="334.394" y="658.398"/><use xlink:href="#bP" x="343.992" y="658.398"/><use xlink:href="#ba" x="353.59" y="658.398"/><use xlink:href="#T" x="363.188" y="658.398"/><use xlink:href="#ae" x="366.774" y="658.398"/><use xlink:href="#bQ" x="376.372" y="658.398"/><use xlink:href="#aK" x="385.969" y="658.398"/><use xlink:href="#aO" x="395.567" y="658.398"/><use xlink:href="#bR" x="405.165" y="658.398"/><use xlink:href="#T" x="414.763" y="658.398"/><use xlink:href="#bB" x="418.349" y="658.398"/><use xlink:href="#ai" x="427.947" y="658.398"/><use xlink:href="#ar" x="437.545" y="658.398"/><use xlink:href="#as" x="447.143" y="658.398"/><use xlink:href="#at" x="456.741" y="658.398"/><use xlink:href="#au" x="466.339" y="658.398"/><use xlink:href="#T" x="468.923" y="658.398"/></g><g fill="#231f20"><use xlink:href="#ap" x="95.553" y="696.351"/><use xlink:href="#aq" x="105.151" y="696.351"/><use xlink:href="#ar" x="114.749" y="696.351"/><use xlink:href="#as" x="124.347" y="696.351"/><use xlink:href="#at" x="133.945" y="696.351"/><use xlink:href="#au" x="143.543" y="696.351"/></g><path d="M275.11 189.98h60.066" fill="none" stroke="#33459a" stroke-miterlimit="10" stroke-width=".99879"/><g fill="#33459a"><use xlink:href="#bS" x="275.11" y="182.99"/><use xlink:href="#bT" x="289.138" y="182.99"/><use xlink:href="#bU" x="303.167" y="182.99"/><use xlink:href="#bV" x="317.195" y="182.99"/><use xlink:href="#bW" x="321.691" y="182.99"/></g></svg>