<svg xmlns="http://www.w3.org/2000/svg" xmlns:xlink="http://www.w3.org/1999/xlink" width="793.701" height="1058.268" viewBox="0 0 595.276 793.701" version="1.2"><defs><symbol overflow="visible" id="a"><path d="M2.875.031c.434 0 .82-.144 1.156-.437.332-.301.594-.64.782-1.016.183-.34.316-.71.39-1.11.082-.402.125-.804.125-1.202 0-.403-.05-.813-.14-1.22a4.843 4.843 0 0 0-.407-1.155A3.031 3.031 0 0 0 4-7.063a1.747 1.747 0 0 0-1.14-.421c-.844 0-1.473.457-1.876 1.359-.406.906-.609 1.707-.609 2.39 0 .712.203 1.52.61 2.422C1.386-.413 2.02.032 2.874.032zm0-.281c-.75 0-1.227-.441-1.422-1.328-.2-.895-.297-1.613-.297-2.156 0-.54.098-1.254.297-2.141.195-.895.672-1.344 1.422-1.344.363 0 .648.137.86.407.206.273.363.566.468.875.113.343.195.71.25 1.093.059.387.094.758.094 1.11 0 .324-.035.675-.094 1.046a9.33 9.33 0 0 1-.203 1.016c-.094.336-.254.66-.469.969-.21.305-.511.453-.906.453zm0 0"/></symbol><symbol overflow="visible" id="b"><path d="M4.61-8.531a8.282 8.282 0 0 0-1.594.828A7.178 7.178 0 0 0 1.687-6.5a6.863 6.863 0 0 0-.953 1.453A3.928 3.928 0 0 0 .36-3.359c0 .75.223 1.507.672 2.265C1.477-.344 2.13.031 2.984.031c.715 0 1.286-.27 1.704-.812.425-.551.64-1.16.64-1.828a2.92 2.92 0 0 0-.516-1.641c-.343-.508-.847-.766-1.5-.766-.167 0-.34.036-.515.094-.18.055-.34.145-.485.266a.984.984 0 0 0-.187.156c-.063.074-.094.145-.094.203 0 .031.004.067.016.094.02.023.047.031.078.031.059 0 .148-.078.266-.234.12-.164.347-.25.671-.25.208 0 .395.058.563.172a1.5 1.5 0 0 1 .453.421c.152.243.274.508.36.797.09.293.14.586.14.875 0 .282-.043.555-.125.813-.086.262-.21.52-.375.766-.125.18-.273.324-.437.437a1.095 1.095 0 0 1-.594.156c-.7 0-1.195-.375-1.485-1.125-.292-.758-.437-1.406-.437-1.937 0-.614.11-1.192.328-1.735.215-.539.524-1.05.922-1.53.309-.384.703-.75 1.172-1.095.476-.34.953-.597 1.422-.765.039-.02.093-.04.156-.063.07-.027.11-.066.11-.11 0-.038-.012-.07-.032-.093a.122.122 0 0 0-.094-.047.728.728 0 0 0-.265.078c-.117.055-.196.09-.235.11zm0 0"/></symbol><symbol overflow="visible" id="c"><path d="M6.703-5.844h-.812V.453h.812zM2.86.453h.985l1.734-6.297h-.844L3.36-.484l-1.375-5.36h-.859zm0 0"/></symbol><symbol overflow="visible" id="d"><path d="M.75.047v1.016h1.031V.046zm0 0"/></symbol><symbol overflow="visible" id="f"><path d="M7.422 1.36v-7.985h-.734v2.938h-.954V-6.5H5V.984h.734v-3.953h.954V1.36zM2.938-4.626v-.813H4.28v-.625H.813v.625h1.359v.688c0 .953-.156 1.766-.469 2.453A4.316 4.316 0 0 1 .172-.594c.234.14.531.313.687.453.36-.265.735-.656 1.047-1.093.297-.407.532-.875.64-1.297.126.422.345.828.61 1.187.297.375.64.703.969.907.14-.172.36-.36.547-.5a3.485 3.485 0 0 1-1.344-1.516c-.25-.594-.39-1.328-.39-2.172zm0 0"/></symbol><symbol overflow="visible" id="g"><path d="M6.078-6.625V-.75h.75v-3.266h1.11v-.64h-1.11v-1.969zm-.344 3.234c-.546.11-2.015.282-2.843.297l-1.313.016v-2.547H4.61v-.64H.844v3.843c.031 0 1.375 0 1.984-.015 1.047-.032 2.328-.188 2.906-.329zm1.344 4.594v-.64H2.422v-2.016h-.75v2.656zm0 0"/></symbol><symbol overflow="visible" id="h"><path d="M7.203 1.36v-7.985h-.75v7.984zM1.031-4.376c0 1.094.875 2 2.125 2 1.235 0 2.125-.906 2.125-2 0-1.094-.89-1.984-2.125-1.984-1.25 0-2.125.89-2.125 1.984zm.735 0c0-.75.53-1.36 1.39-1.36.86 0 1.36.61 1.36 1.36 0 .75-.5 1.36-1.36 1.36-.86 0-1.39-.61-1.39-1.36zm4.406 3.016c-.64.109-2.531.25-3.219.265-.328.016-2.312.016-2.344.016v.656c.016 0 1.657.016 1.985 0a26.518 26.518 0 0 0 3.578-.297zm0 0"/></symbol><symbol overflow="visible" id="i"><path d="M7.438-4.797H6.046v-.875l.047-.844-.735-.109.063.953v.875h-.844v.563h.844c0 1.39-.125 3.125-1.016 4.28v-.155L2.86-.016v-.562h1.5v-.485h-1.5v-.421h1.407V-3.97H2.859v-.515h1.547v-.485H2.86v-.687c.422-.078 1.016-.188 1.5-.328l-.234-.485c-.969.328-2.594.5-3.438.485l.204.5c.359 0 .859-.032 1.359-.094v.61H.453v.484H2.25v.515H.875v2.485H2.25v.421H.734v.485H2.25v.61L.469.108l.14.563L4.094.39c-.11.109-.235.218-.375.343l.453.5C5 .406 5.484-.437 5.703-1.296c.25-.954.281-1.891.313-2.938h.828v2.578c0 .468.031 1.906-.485 2.093-.25.094-.437.079-.875.032l.25.687c.313 0 .672-.078.891-.172.828-.312.781-1.734.797-2.453.016-1.11.016-2.203.016-3.328zm-3.75 1.281v.563h-.829v-.563zm0 1.016v.578h-.829V-2.5zM2.266-3.516v.563h-.844v-.563zm0 1.016v.578h-.844V-2.5zm0 0"/></symbol><symbol overflow="visible" id="j"><path d="M.61-3.188h3.5v-.5H2.561v-.656H3.72v-.468H2.563v-.641h1.406v-.469H2.563l.109-.625-.75-.078.062.703H.672v.469h1.312v.64H.844v.47h1.14v.655H.61zm6.796 1.22h.407v-.516h-.407v-1.297H4.328v.5h1.219v.797H3.984v.515h1.563v.735H4.313v.515h1.234v.875c0 .157.016.313-.172.375-.156.078-.406.047-.688-.015.125.328.204.609.235.64.25.016.594.032.844-.093.265-.125.328-.407.328-.594V-.72h1.312zM3.72-2.642H.859v3.875h.532V-.469h1.78v.563c0 .125.017.375-.124.453-.156.078-.328.047-.688-.031l.204.64c.28.016.515.016.765-.093.281-.125.39-.391.39-.688zm3.125-.64v.797h-.75v-.797zm0 1.312v.735h-.75v-.735zM3.172-2.14v1.188h-.61v-1.188zM2-2.14v1.188h-.61v-1.188zm5-1.953c.203-.297.297-.531.563-1.156L7-5.484c-.14.437-.25.796-.484 1.156zm.266-2.312c-.813.328-2.172.39-3.157.36l.141.5c1.156 0 2.453-.048 3.406-.376zM6.328-4.36c-.172-.329-.281-.657-.469-1.094l-.5.25c.172.422.25.734.454 1.094zm-1.11 0c-.171-.235-.327-.688-.5-1l-.468.265c.156.36.313.782.5 1.047zm0 0"/></symbol><symbol overflow="visible" id="k"><path d="M3.344-3.938h1.469l.03.547H3.517v.422h1.328v.406H3.609v1.657h.985c-.313.453-.61.781-1.14 1.062l.343.438c.484-.281.75-.61 1.047-1.047V1.03h.547V-.5c.25.313.625.672.89.89l.36-.359c-.329-.203-.72-.625-.97-.937h1v-1.656h-1.28v-.407h1.375v-.422h-1.36l.047-.484-.469-.047v-2.437H2.781v7.53h.563zm1.5 2.594h-.719v-.781h.719zM4.75-1.5c-.063-.188-.125-.375-.172-.547l-.328.11c.047.203.11.343.188.53zm1.406.156h-.765v-.781h.765zm-.484-.703c-.047.172-.125.36-.188.547l.313.094c.094-.188.156-.328.203-.532zM4.453-4.39h-1.11v-.562h1.11zm0-.968h-1.11v-.579h1.11zm3.063-1.032H5.375v2.407h1.578V.328c0 .281-.047.313-.234.313l-.61-.032.188.547c.062 0 .64-.031.812-.093.375-.141.407-.485.407-.86zm-.563 1.97h-1v-.532h1zm0-.938h-1v-.61h1zM2.641-2.406c-.313-.531-.407-.719-.657-1.125l-.14.156v-.75h.718v-.516H1.86v-1.015l.079-.797-.72-.078.063.922v.968H.328v.516h.922a7.56 7.56 0 0 1-.969 2.766L.766-1c.187-.406.328-.688.484-1.047V1.22h.594v-3.86c.156.25.203.36.36.641zm0 0"/></symbol><symbol overflow="visible" id="l"><path d="M6.844-2.688l-5.219-3.14V.453zm-.61 0L1.922-.108v-5.157zm0 0"/></symbol><symbol overflow="visible" id="m"><path d="M4.828-5.36v-.53H.562V.405h.594v-2.875h3.266v-.547H1.156v-2.343zm0 0"/></symbol><symbol overflow="visible" id="n"><path d="M6.281.406l.016-6.297h-.734L3.421-.28l-2.125-5.61H.563V.406h.593v-5.031L3.063.406h.734l1.89-5.047V.406zm0 0"/></symbol><symbol overflow="visible" id="o"><path d="M1.125.406V-5.89H.562V.406zm0 0"/></symbol><symbol overflow="visible" id="q"><path d="M4.656-.453v-5.438H4v1.97H1.516v-1.97H.859v5.438zM7.094 1.25v-7.89h-.657v7.89zM4-1H1.516v-2.344H4zm0 0"/></symbol><symbol overflow="visible" id="r"><path d="M7.422-2.219c-.36-.094-1.188-.469-1.86-.984-.609-.453-1.171-1.219-1.171-1.813v-.203h2.593v-.562H1.125v.562h2.578v.203c0 .594-.547 1.329-1.14 1.813-.672.515-1.516.89-1.876.969l.438.484a5.667 5.667 0 0 0 1.688-.906c.593-.453 1.124-1.11 1.234-1.39.11.296.656.968 1.25 1.405.672.5 1.36.813 1.687.891zM7.938.094V-.47H.171v.563zm0 0"/></symbol><symbol overflow="visible" id="s"><path d="M5.875-1.031v-.547a16.76 16.76 0 0 1-2.578.297L1.64-1.25v-4.64H.984v5.202c.079 0 1.375.016 2.282-.015.953-.031 2.062-.219 2.609-.328zM7.109 1.25v-7.89h-.671v7.89zm0 0"/></symbol><symbol overflow="visible" id="t"><path d="M7.469-2.188c-.375-.109-1.328-.546-2-1.171C4.844-3.938 4.422-4.75 4.422-5.5v-.61h-.734v.61c0 .75-.422 1.563-1.047 2.14-.672.626-1.625 1.063-2 1.172l.453.485c.312-.094 1.14-.484 1.812-1.063.578-.515 1.047-1.203 1.14-1.562.11.36.579 1.047 1.157 1.562.672.579 1.5.97 1.813 1.063zm.468 2.22v-.548H.173v.547zm0 0"/></symbol><symbol overflow="visible" id="u"><path d="M7.938-2.906v-.547H6.563c.062-.25.171-.719.28-1.266a18.29 18.29 0 0 0 .22-1.593H1.234v.546h5.063a4.753 4.753 0 0 1-.11.72c-.421.093-1.234.124-1.968.171-.797.031-3 .031-3.11.031v.5c.11 0 2.11 0 3.079-.047a20.147 20.147 0 0 0 1.921-.125c-.078.407-.187.844-.234 1.063H.172v.547h3.515v.969H1.22v.546h4.953v.72H1.219v1.843h5.86V.625H1.937v-.75h4.937v-1.813h-2.5v-.968zm0 0"/></symbol><symbol overflow="visible" id="v"><path d="M1.688 1.406v-8.203H1.14v8.203zm0 0"/></symbol><symbol overflow="visible" id="w"><path d="M7.938-1.75v-.547H.171v.547zm-1.063 3V-.938h-5.75v.547h5.094V1.25zm-5.64-4.39h5.718v-.563H1.906v-.813H6.86v-.53H1.906v-.798h4.969v-.562h-5.64zm0 0"/></symbol><symbol overflow="visible" id="x"><path d="M7.266 1.25v-7.89h-.657v3.437H5.031v.61H6.61V1.25zm-3.11-6.86v-.577H1.641v.578zm1.157 1.407v-.563H.468v.563zm-.375 2.5c0-.969-.844-1.797-2.032-1.797C1.687-3.5.86-2.672.86-1.703S1.703.109 2.906.109c1.188 0 2.031-.859 2.031-1.812zm-.672 0c0 .672-.5 1.25-1.36 1.25-.86 0-1.36-.578-1.36-1.25 0-.656.5-1.234 1.36-1.234.86 0 1.36.578 1.36 1.234zm0 0"/></symbol><symbol overflow="visible" id="y"><path d="M4.719-5.703H1.047v.547h2.922a6.052 6.052 0 0 1-1.063 2.703C2.281-1.61 1.36-.953.578-.563l.5.407a6.768 6.768 0 0 0 2.438-2.11c.78-1.03 1.125-2.437 1.203-3.437zM7.28 1.25v-7.89h-.656v7.89zm0 0"/></symbol><symbol overflow="visible" id="z"><path d="M7.422-4.266c-.297-.046-1.281-.328-1.969-.75-.625-.39-1.047-.89-1.047-1.343v-.266h-.703v.266c0 .453-.422.953-1.047 1.343-.703.422-1.672.704-1.969.75l.391.47c.36-.079 1.188-.313 1.844-.72.594-.359 1.047-.796 1.125-1.078.094.282.531.719 1.14 1.078.657.407 1.47.641 1.844.72zm.516 1.5v-.53H.171v.53h3.531v.875H1.234v.516h4.938v.734H1.234v1.813h5.829V.625H1.938v-.734h4.937v-1.782H4.391v-.875zm0 0"/></symbol><symbol overflow="visible" id="A"><path d="M5.484-.813c-.468-.25-1.156-.765-1.609-1.453-.547-.78-.734-1.671-.734-2.546v-1.375h-.688v1.375c0 .875-.219 1.828-.687 2.562C1.328-1.562.64-.953.062-.61l.532.454a6.183 6.183 0 0 0 1.36-1.25c.5-.657.765-1.25.843-1.578.11.328.39.921.86 1.515a5.32 5.32 0 0 0 1.359 1.14zM6.891-6.64h-.657V1.25h.657v-4.11h1.265v-.578H6.891zm0 0"/></symbol><symbol overflow="visible" id="B"><path d="M7.188-2.406v-4.235H6.53v1.72H4.656c-.187-.86-1.015-1.47-2.031-1.47-1.156 0-2.063.766-2.063 1.829 0 1.046.922 1.828 2.063 1.828 1.078 0 1.938-.688 2.047-1.625h1.86v1.953zm0 3.578v-3.156H6.53v.968h-4.11v-.968h-.655v3.156zm-3.204-5.75c0 .672-.53 1.234-1.359 1.234-.813 0-1.375-.562-1.375-1.234 0-.672.563-1.219 1.375-1.219.828 0 1.36.547 1.36 1.219zM6.531.625h-4.11V-.469h4.11zm0 0"/></symbol><symbol overflow="visible" id="C"><path d="M4.281-5.797v-.562H1.813v.562zm1.11 1.25v-.562H.734v.562zM6.92-6.64h-.655V1.25h.656v-3.938H8.14v-.578H6.92zM5.892-.234v-.563c-.688.094-1.782.156-2.454.172v-.938c.97-.093 1.626-.625 1.626-1.25 0-.687-.829-1.296-1.985-1.296-1.14 0-1.937.593-1.937 1.28 0 .657.625 1.188 1.625 1.282v.938H.359v.562h2.688c1.14-.031 2.172-.11 2.844-.187zm-1.5-2.579c0 .422-.5.735-1.297.735-.781 0-1.313-.313-1.313-.75 0-.422.532-.75 1.297-.75.797 0 1.313.328 1.313.765zm0 0"/></symbol><symbol overflow="visible" id="D"><path d="M5.375-2.625c-.39-.172-1.016-.531-1.469-1.063a2.557 2.557 0 0 1-.61-1.656v-.218h1.75v-.547H.86v.546h1.75v.22c0 .687-.265 1.374-.718 1.859-.5.53-1.094.875-1.547 1.109l.5.484a5.82 5.82 0 0 0 1.281-.906c.39-.406.719-.844.813-1.187.156.343.453.718.765 1.015.485.438.969.719 1.281.86zM7.391-.906v-5.735h-.657v1.954H4.938v.578h1.796v3.203zm.203 1.984V.531H2.578V-1.39h-.656v2.47zm0 0"/></symbol><symbol overflow="visible" id="E"><path d="M6.688 1.25v-2.484h-5.47v.546h4.813V1.25zm-1.22-3.547v-.547c-.53.063-1.53.172-2.327.188l-1.922.031v-1.25h3.125v-2.344H.578v.563h3.11v1.234H.578v2.344c.063 0 1.469.015 2.39-.031a27.228 27.228 0 0 0 2.5-.188zm2.454-.828v-.547H6.688v-1.187h1.234v-.547H6.688v-1.235H6.03v4.86h.657v-1.344zm0 0"/></symbol><symbol overflow="visible" id="F"><path d="M6.844-6.64h-.672v7.89h.672v-3.969h1.265v-.578H6.844zM4.562-3.126c0-2.188-1.109-2.906-2.03-2.906-.876 0-2.016.687-2.016 2.906 0 2.14 1.093 2.906 2.015 2.906.953 0 2.031-.765 2.031-2.906zm-.671-.016c0 1.266-.47 2.313-1.344 2.313-.875 0-1.36-1.047-1.36-2.313 0-1.234.485-2.28 1.36-2.28.875 0 1.344 1.046 1.344 2.28zm0 0"/></symbol><symbol overflow="visible" id="G"><path d="M4.688-5.719H1.046v.578h2.89c-.046.36-.14.907-.343 1.391a16.78 16.78 0 0 1-.813.063c-.562.046-1.922.046-2 .046v.532c.063 0 1.297 0 1.922-.032.203-.015.422-.03.64-.062-.124.25-.28.515-.468.75C2.265-1.61 1.297-.891.531-.5l.516.406c.875-.469 1.703-1.14 2.469-2.156.78-1.047 1.109-2.453 1.171-3.469zm2.171-.922h-.656V1.25h.656v-4h1.266v-.594H6.859zm0 0"/></symbol><symbol overflow="visible" id="H"><path d="M4.328-.734v-.563c-.312.063-.937.125-1.469.14l-1.296.016v-3.921h2.109v-.563H.906v5.063c.047 0 .985 0 1.766-.032.812-.031 1.375-.078 1.656-.14zM5.578.89v-7.36h-.64v2.907H3.405V-3h1.531V.89zm1.688.359v-7.89h-.641v7.89zm0 0"/></symbol><symbol overflow="visible" id="I"><path d="M4.625-.484v-5.157H.891v5.157zM7.094 1.25v-7.89h-.657v7.89zM3.969-1.047H1.547v-4.031h2.422zm0 0"/></symbol><symbol overflow="visible" id="J"><path d="M7.25-1.844V-6.64h-.656v1.032H4.406c-.375-.47-.984-.766-1.703-.766-1.234 0-2.125.86-2.125 1.922 0 1.062.89 1.922 2.125 1.922.75 0 1.375-.328 1.735-.813h2.156v1.5zM7.36-.14c0-.906-1-1.578-2.891-1.578-1.875 0-2.89.657-2.89 1.563 0 .906 1.015 1.562 2.89 1.562 1.89 0 2.89-.64 2.89-1.547zm-.766-3.765H4.719c.062-.172.11-.36.11-.547 0-.219-.048-.422-.11-.61h1.875zm-2.469-.547c0 .734-.5 1.328-1.422 1.328-.922 0-1.437-.594-1.437-1.328 0-.734.515-1.328 1.437-1.328s1.422.593 1.422 1.328zM2.265-.156c0-.64.891-1 2.204-1 1.297 0 2.203.39 2.203 1.015 0 .641-.906 1-2.203 1C3.156.86 2.266.47 2.266-.156zm0 0"/></symbol><symbol overflow="visible" id="K"><path d="M7.125 1.25v-7.89h-.656v3.14H4.64c-.11-1.547-.875-2.531-2.016-2.531-1.219 0-2.016 1.14-2.016 2.906 0 1.75.797 2.906 2.016 2.906 1.188 0 1.953-1.062 2.016-2.687h1.828V1.25zm-3.14-4.39c0 1.265-.47 2.312-1.344 2.312-.875 0-1.375-1.047-1.375-2.313 0-1.234.5-2.28 1.375-2.28s1.343 1.046 1.343 2.28zm0 0"/></symbol></defs><g fill="#393536"><use xlink:href="#a" x="42.468" y="48.426"/><use xlink:href="#b" x="48.041" y="48.426"/><use xlink:href="#a" x="53.614" y="48.426"/></g><g fill="#231f20"><use xlink:href="#c" x="74.885" y="47.727"/><use xlink:href="#d" x="82.886" y="47.727"/><use xlink:href="#e" x="85.492" y="47.727"/><use xlink:href="#f" x="88.099" y="47.727"/><use xlink:href="#g" x="96.1" y="47.727"/><use xlink:href="#h" x="104.1" y="47.727"/><use xlink:href="#e" x="112.1" y="47.727"/><use xlink:href="#i" x="114.707" y="47.727"/><use xlink:href="#j" x="122.707" y="47.727"/><use xlink:href="#k" x="130.707" y="47.727"/></g><g fill="#33459a"><use xlink:href="#l" x="281.656" y="693.734"/><use xlink:href="#m" x="289.672" y="693.734"/><use xlink:href="#n" x="294.456" y="693.734"/><use xlink:href="#o" x="301.221" y="693.734"/><use xlink:href="#p" x="302.825" y="693.734"/><use xlink:href="#q" x="305.82" y="693.734"/><use xlink:href="#r" x="313.836" y="693.734"/><use xlink:href="#s" x="321.853" y="693.734"/><use xlink:href="#t" x="329.869" y="693.734"/><use xlink:href="#p" x="337.886" y="693.734"/><use xlink:href="#t" x="340.881" y="693.734"/><use xlink:href="#u" x="348.897" y="693.734"/><use xlink:href="#p" x="356.914" y="693.734"/><use xlink:href="#p" x="359.909" y="693.734"/><use xlink:href="#v" x="362.904" y="693.734"/><use xlink:href="#p" x="365.661" y="693.734"/><use xlink:href="#p" x="368.657" y="693.734"/><use xlink:href="#w" x="371.652" y="693.734"/><use xlink:href="#x" x="379.668" y="693.734"/><use xlink:href="#y" x="387.685" y="693.734"/><use xlink:href="#z" x="395.701" y="693.734"/><use xlink:href="#p" x="403.718" y="693.734"/><use xlink:href="#A" x="406.713" y="693.734"/><use xlink:href="#B" x="414.729" y="693.734"/><use xlink:href="#C" x="422.746" y="693.734"/><use xlink:href="#p" x="430.762" y="693.734"/><use xlink:href="#D" x="433.757" y="693.734"/><use xlink:href="#E" x="441.774" y="693.734"/><use xlink:href="#p" x="449.79" y="693.734"/><use xlink:href="#F" x="452.785" y="693.734"/><use xlink:href="#G" x="460.802" y="693.734"/><use xlink:href="#H" x="468.818" y="693.734"/><use xlink:href="#I" x="476.835" y="693.734"/></g><g fill="#33459a"><use xlink:href="#l" x="308.7" y="345.004"/><use xlink:href="#m" x="316.717" y="345.004"/><use xlink:href="#n" x="321.5" y="345.004"/><use xlink:href="#o" x="328.266" y="345.004"/><use xlink:href="#p" x="329.869" y="345.004"/><use xlink:href="#q" x="332.864" y="345.004"/><use xlink:href="#r" x="340.881" y="345.004"/><use xlink:href="#s" x="348.897" y="345.004"/><use xlink:href="#t" x="356.914" y="345.004"/><use xlink:href="#p" x="364.93" y="345.004"/><use xlink:href="#t" x="367.925" y="345.004"/><use xlink:href="#u" x="375.942" y="345.004"/><use xlink:href="#p" x="383.958" y="345.004"/><use xlink:href="#p" x="386.953" y="345.004"/><use xlink:href="#v" x="389.948" y="345.004"/><use xlink:href="#p" x="392.706" y="345.004"/><use xlink:href="#p" x="395.701" y="345.004"/><use xlink:href="#q" x="398.696" y="345.004"/><use xlink:href="#r" x="406.713" y="345.004"/><use xlink:href="#s" x="414.729" y="345.004"/><use xlink:href="#t" x="422.745" y="345.004"/><use xlink:href="#p" x="430.762" y="345.004"/><use xlink:href="#J" x="433.757" y="345.004"/><use xlink:href="#K" x="441.774" y="345.004"/><use xlink:href="#p" x="449.79" y="345.004"/><use xlink:href="#F" x="452.785" y="345.004"/><use xlink:href="#G" x="460.802" y="345.004"/><use xlink:href="#H" x="468.818" y="345.004"/><use xlink:href="#I" x="476.834" y="345.004"/></g></svg>