<svg xmlns="http://www.w3.org/2000/svg" xmlns:xlink="http://www.w3.org/1999/xlink" width="793.701" height="1058.268" viewBox="0 0 595.276 793.701" version="1.2"><defs><symbol overflow="visible" id="a"><path d="M5.781-5.844h-.734V.453h.734zM2.297.453h.984l1.485-6.297h-.844L2.797-.484l-1.14-5.36H.811zM7-5.844h-.734V.453H7zm0 0"/></symbol><symbol overflow="visible" id="b"><path d="M.75.047v1.016h1.031V.046zm0 0"/></symbol><symbol overflow="visible" id="d"><path d="M7.781.375v-.656H4.406v-2.016h2.532v-.625H2.016v-2.64h4.843v-.641H1.281v3.906h2.36V-.28H.28v.656zm0 0"/></symbol><symbol overflow="visible" id="e"><path d="M4.031-3.703c1.813 0 2.875-.61 2.875-1.485 0-.875-1.062-1.5-2.875-1.5-1.797 0-2.875.625-2.875 1.485 0 .89 1.078 1.5 2.875 1.5zm0-.563c-1.234 0-2.078-.375-2.078-.937 0-.578.844-.922 2.078-.922 1.188 0 2.063.344 2.063.938 0 .562-.86.921-2.063.921zm3.735 1.907V-3H.28v.64h3.344v.97H1.281V1.28h5.5V-1.39H4.406v-.968zM6.03.64H2.016V-.75H6.03zm0 0"/></symbol><symbol overflow="visible" id="f"><path d="M4.453-5.703H6.86v-.64H1.203v.64H3.61c-.046.562-.406 1.031-.937 1.406s-1.266.64-2.063.813c.188.171.422.406.563.562.61-.156 1.219-.39 1.734-.719.469-.28.86-.656 1.125-1.125.297.547.813.97 1.375 1.266.5.281 1.047.469 1.5.578.157-.187.313-.36.516-.562-.625-.125-1.328-.36-1.875-.704-.594-.375-1.031-.875-1.094-1.515zm3.313 4.187v-.625H.28v.625h3.39V1.36h.782v-2.875zm0 0"/></symbol><symbol overflow="visible" id="g"><path d="M7.125-.75v-5.875h-.75V-.75zM3.219-5.438v-1h-.781v1c0 .688-.235 1.282-.594 1.75-.407.532-.985.938-1.64 1.235.202.156.5.39.64.515.406-.203.844-.5 1.187-.859.36-.344.656-.765.797-1.203.219.438.563.813.938 1.14.359.297.75.532 1.093.688.125-.156.329-.39.516-.578a3.556 3.556 0 0 1-1.516-1.031c-.375-.453-.64-1.031-.64-1.656zm4.125 6.641v-.64h-4.75v-1.938h-.766v2.578zm0 0"/></symbol><symbol overflow="visible" id="h"><path d="M6.797-3.344v-3.203h-.75v.984H2v-.984h-.734v3.203zm-.75-.64H2v-.97h4.047zm1.719 2.109v-.64H.28v.64h3.485v1.719h.75v-1.719zm-.704 3.078v-.64H2.016V-1.11H1.28v2.312zm0 0"/></symbol><symbol overflow="visible" id="i"><path d="M6.875-3.984v-.594H2.031v-1.234h4.75v-.594h-5.5v2.422zm.89 1.312v-.61H.282v.61zm-.812 3.969V.703H2.11v-.75h4.672v-1.89h-5.5v.593h4.672v.719H1.281v1.922zm0 0"/></symbol><symbol overflow="visible" id="j"><path d="M7.11-.75v-5.875h-.75V-.75zM.61-4.406c0 1.14.874 2.093 2.124 2.093 1.235 0 2.11-.953 2.11-2.093 0-1.172-.875-2.11-2.11-2.11-1.25 0-2.125.938-2.125 2.11zm.765 0c0-.828.5-1.469 1.36-1.469.859 0 1.359.64 1.359 1.469 0 .797-.5 1.437-1.36 1.437-.859 0-1.359-.64-1.359-1.437zm5.969 5.61V.562H2.562v-1.985h-.75v2.625zm0 0"/></symbol><symbol overflow="visible" id="k"><path d="M6.781-4.016v-2.39H1.266v2.39zm-.734-.593H2v-1.204h4.047zm1.719 1.875v-.61H.28v.61h3.344v.796H1.281v.594h4.672v.719H1.281v1.922h5.672V.703H2.11v-.75h4.672v-1.89H4.406v-.797zm0 0"/></symbol><symbol overflow="visible" id="l"><path d="M4.438-5.656v-.657h-.813v.657c0 .703-.344 1.36-.89 1.89-.563.547-1.329.97-2.157 1.22.235.218.438.421.578.593a5.89 5.89 0 0 0 1.703-.953c.516-.422.938-.922 1.172-1.469.219.531.672 1.063 1.203 1.484.547.438 1.157.766 1.672.938.14-.188.36-.39.547-.578a5.116 5.116 0 0 1-2.031-1.156c-.578-.547-.984-1.25-.984-1.97zM7.78.359v-.64H4.406v-2.016h-.765V-.28H.28v.64zm0 0"/></symbol><symbol overflow="visible" id="m"><path d="M7.203 1.375v-8h-.75v2.969h-1V-6.5H4.72V.984h.734v-3.921h1v4.312zM.781-6.063v.641h2.25c-.031.906-.25 1.734-.656 2.469-.469.828-1.14 1.547-2.094 2.156.203.11.547.313.703.453.938-.687 1.688-1.515 2.172-2.594.39-.859.61-1.89.64-3.124zm0 0"/></symbol><symbol overflow="visible" id="n"><path d="M1.672.344c-.012.02-.008.031.016.031.019.008.035.016.046.016h.172c.082 0 .13-.028.14-.079.02-.042.052-.105.095-.187l3.125-7.047c.02-.027.039-.066.062-.11a.385.385 0 0 0 .031-.124c0-.082-.054-.125-.156-.125C5.11-7.29 5.04-7.297 5-7.297H.5c-.074 0-.121.024-.14.063a.329.329 0 0 0-.032.156l.047.61c.008.011.016.042.016.093.007.055.03.078.062.078.02 0 .04-.004.063-.016l.046-.046c.114-.028.204-.051.266-.063.07-.008.164-.016.281-.016h3.235c.05 0 .097.012.14.032.051.023.079.066.079.125 0 .031-.02.082-.047.14a.712.712 0 0 0-.063.157zm0 0"/></symbol><symbol overflow="visible" id="o"><path d="M1.875-1.047h-.203c-.117 0-.172-.02-.172-.062 0-.04.031-.102.094-.188.058-.09.11-.156.14-.187L3.656-3.36c.34-.301.66-.633.953-1 .29-.371.438-.805.438-1.297 0-.559-.227-1-.672-1.313a2.416 2.416 0 0 0-1.453-.484c-.375 0-.723.066-1.031.187-.313.125-.598.34-.844.641a6.377 6.377 0 0 1-.219.328c-.117.168-.172.293-.172.375 0 .031.008.059.031.078.02.024.047.032.079.032.05 0 .093-.024.125-.079.039-.05.07-.093.093-.125.153-.3.375-.55.657-.75.277-.207.597-.312.953-.312.445 0 .812.144 1.094.422.277.281.421.644.421 1.078 0 .555-.23 1.121-.687 1.703-.45.574-.852 1.059-1.203 1.453L.703-.594a.789.789 0 0 1-.094.156.3.3 0 0 0-.062.157c0 .074.047.11.14.11.09-.009.165-.016.22-.016h3.968a.406.406 0 0 0 .188-.032c.039-.027.062-.082.062-.156v-1.328-.156c0-.059-.043-.094-.125-.094-.063 0-.102.035-.11.094-.011.054-.023.105-.03.156-.032.293-.114.476-.235.547-.125.074-.336.11-.625.11zm0 0"/></symbol><symbol overflow="visible" id="p"><path d="M6.438-8.672v1.063h-4.25v2.796h3.984v1.063H2.188v3.016h4.328V.328H1v-9zm0 0"/></symbol><symbol overflow="visible" id="q"><path d="M5.125-.531a1.53 1.53 0 0 1-.797.734 2.888 2.888 0 0 1-1.125.219c-.844 0-1.488-.254-1.922-.75C.844-.836.625-1.555.625-2.484v-1.22c0-.444.063-.85.188-1.218.12-.371.3-.687.53-.937.227-.246.505-.438.829-.563.32-.133.68-.203 1.078-.203.508 0 .91.09 1.203.266.29.18.504.367.64.562v-3.312h1.173V.328H5.14v-.86zm-.016-3.594c0-.164-.043-.336-.125-.516a1.535 1.535 0 0 0-.359-.468 2.03 2.03 0 0 0-.563-.329 2.003 2.003 0 0 0-.703-.125c-.5 0-.894.18-1.171.532-.274.355-.407.863-.407 1.515v.829c0 .656.14 1.164.422 1.515.277.356.664.531 1.156.531.246 0 .477-.035.688-.109.207-.082.39-.195.547-.344.152-.152.281-.336.375-.547.09-.207.14-.445.14-.718zm0 0"/></symbol><symbol overflow="visible" id="r"><path d="M.844-6.5h1.172v4.234c0 .586.113 1.008.343 1.266.227.25.586.375 1.079.375.195 0 .394-.035.593-.11.196-.07.375-.175.532-.312.152-.133.28-.305.375-.516.09-.207.14-.44.14-.703V-6.5h1.188V.328H5.125v-.86h-.016c-.199.313-.46.552-.78.72-.325.175-.724.265-1.188.265-.325 0-.63-.055-.907-.156a1.969 1.969 0 0 1-.718-.438 2.19 2.19 0 0 1-.5-.765c-.118-.301-.172-.66-.172-1.078zm0 0"/></symbol><symbol overflow="visible" id="s"><path d="M3.469-6.625c.539 0 .988.074 1.344.219.351.136.664.316.937.531l-.563.906a3.097 3.097 0 0 0-.843-.468 2.922 2.922 0 0 0-.875-.125c-.219 0-.434.042-.64.125a1.38 1.38 0 0 0-.532.359 1.75 1.75 0 0 0-.36.61c-.093.25-.14.55-.14.89v.875c0 .367.047.68.14.937.09.262.22.477.375.641.153.156.333.277.532.36.207.074.422.109.64.109.434 0 .797-.055 1.079-.172.289-.121.554-.274.796-.453l.563.922c-.242.199-.559.375-.953.53-.387.165-.887.25-1.5.25-.918 0-1.63-.273-2.125-.812C.852-.94.609-1.71.609-2.703v-.86c0-.488.067-.921.204-1.296.132-.383.32-.707.562-.97.246-.257.55-.456.906-.593a3.35 3.35 0 0 1 1.188-.203zm0 0"/></symbol><symbol overflow="visible" id="t"><path d="M2.781.422c-.668 0-1.199-.168-1.594-.5C.801-.418.61-.895.61-1.5v-.328c0-.582.188-1.055.563-1.422.383-.371 1-.563 1.844-.563h1.687v-.39c0-.457-.113-.797-.328-1.016-.21-.226-.559-.343-1.047-.343-.387 0-.726.066-1.015.187a5.978 5.978 0 0 0-.891.5l-.578-.89c.32-.239.687-.442 1.094-.61.402-.164.875-.25 1.406-.25.37 0 .71.05 1.015.14.301.094.563.239.782.423.226.187.406.417.53.687.122.273.188.582.188.922V.328H4.734V-.5H4.72a1.164 1.164 0 0 1-.266.344 1.841 1.841 0 0 1-.344.265c-.18.102-.37.18-.578.235-.21.05-.46.078-.75.078zm1.922-3.203H3.047c-.469 0-.805.097-1 .281-.2.18-.297.43-.297.75v.172c0 .336.113.582.344.734.226.149.5.219.812.219.29 0 .54-.035.75-.11.215-.07.414-.175.594-.312a.994.994 0 0 0 .344-.422c.07-.164.11-.379.11-.64zm0 0"/></symbol><symbol overflow="visible" id="u"><path d="M1.36-5.469H.265V-6.5h1.093v-1.734h1.172V-6.5h1.75v1.031h-1.75v3.89c0 .212.02.38.063.5.039.126.097.227.172.298.07.062.16.113.265.14.114.024.227.032.344.032.29 0 .582-.055.875-.172l.188.984a4.19 4.19 0 0 1-.563.14 2.98 2.98 0 0 1-.672.079c-.637 0-1.105-.164-1.406-.484-.293-.32-.438-.829-.438-1.516zm0 0"/></symbol><symbol overflow="visible" id="v"><path d="M2.156-6.5V.328H.984V-6.5zm.031-2.453v1.328H.938v-1.328zm0 0"/></symbol><symbol overflow="visible" id="w"><path d="M3.563-6.625c.902 0 1.624.273 2.156.813.527.542.797 1.308.797 2.296v.829c0 .992-.27 1.757-.797 2.296-.532.54-1.254.813-2.157.813-.917 0-1.644-.274-2.171-.813C.867-.93.609-1.695.609-2.687v-.829c0-.996.258-1.765.782-2.296.527-.54 1.254-.813 2.171-.813zm0 5.984c.519 0 .94-.175 1.265-.53.332-.352.5-.891.5-1.61v-.64c0-.716-.168-1.255-.5-1.61-.324-.352-.746-.532-1.266-.532-.53 0-.96.18-1.28.532-.325.355-.485.894-.485 1.61v.64c0 .719.16 1.258.484 1.61.32.355.75.53 1.281.53zm0 0"/></symbol><symbol overflow="visible" id="x"><path d="M6.406.328H5.234v-4.25c0-.57-.12-.988-.359-1.25-.23-.258-.59-.39-1.078-.39-.211 0-.414.039-.61.109a1.636 1.636 0 0 0-.922.828c-.093.21-.14.45-.14.719V.328H.937V-6.5h1.141v.86h.016c.195-.32.46-.567.797-.735.332-.164.726-.25 1.187-.25.32 0 .625.055.906.156.278.094.524.242.735.438.215.199.383.457.5.765.12.305.187.664.187 1.079zm0 0"/></symbol><symbol overflow="visible" id="y"><path d="M4.328 0v-.422h-1.64V-7h-.422L.562-5.437l.282.296L2.25-6.437v6.015H.594V0zm0 0"/></symbol><symbol overflow="visible" id="z"><path d="M4.875-3.797c0-1-.063-1.719-.203-2.125-.266-.75-.953-1.14-1.89-1.14-1.407 0-2.016.671-2.016 2.203 0 1.625.53 2.25 1.968 2.25.86 0 1.407-.36 1.704-.907 0 .625 0 1.688-.172 2.282-.172.609-.61.89-1.532.89-.968 0-1.437-.344-1.437-1.062H.859C.86-.36 1.563.078 2.75.078c1.172 0 1.844-.422 2-1.406.094-.5.125-1.36.125-2.469zm-.484-1.015c0 1.203-.563 1.765-1.704 1.765-1.109 0-1.5-.437-1.5-1.812 0-1.313.454-1.782 1.594-1.782 1.11 0 1.61.532 1.61 1.829zm0 0"/></symbol><symbol overflow="visible" id="A"><path d="M5.719-1.922c0-.734-.14-1.453-.922-1.672.687-.219.86-.953.86-1.61C5.656-7.062 4.53-7 3.202-7H1v7h2.266c1.453 0 2.453-.016 2.453-1.922zm-.5-3.328c0 1.5-.813 1.469-2.016 1.469H1.438v-2.797H3.14c1.187 0 2.078-.125 2.078 1.328zm.047 3.36c0 1.562-.797 1.468-2.079 1.468h-1.75V-3.39h1.75c1.344 0 2.079-.046 2.079 1.5zm0 0"/></symbol><symbol overflow="visible" id="B"><path d="M1.406-.281c0-.25-.11-.36-.343-.36-.235 0-.344.11-.344.36 0 .234.11.36.344.36.234 0 .343-.126.343-.36zm0 0"/></symbol><symbol overflow="visible" id="C"><path d="M5.719-2.016c0-1.765-1.125-1.765-2.485-1.78-1.093-.017-2.046.093-2.046-1.329 0-1.406.812-1.516 2-1.516 1.078 0 2.046.063 2.046 1.438h.422c0-1.64-1.093-1.86-2.453-1.86C1.75-7.063.75-6.827.75-5.109c0 1.765 1.125 1.718 2.469 1.75 1.203.015 2.047-.079 2.047 1.375C5.266-.578 4.453-.36 3.25-.36c-1.11 0-2.063-.063-2.063-1.422H.75c0 1.64 1.11 1.86 2.469 1.86 1.484 0 2.5-.392 2.5-2.095zm0 0"/></symbol><symbol overflow="visible" id="E"><path d="M1.406-6.734c0-.235-.11-.329-.328-.329-.219 0-.328.094-.328.329 0 .218.11.343.328.343.219 0 .328-.125.328-.343zM1.296 0v-5.016H.86V0zm0 0"/></symbol><symbol overflow="visible" id="F"><path d="M4.672 0v-2.672c0-.953.031-1.547-.406-2-.266-.281-.704-.422-1.36-.422-.64 0-1.297.188-1.64.844v-.766H.859V0h.438v-2.219c0-1.156-.078-2.453 1.61-2.453.452 0 .796.094 1.015.313.328.312.312.78.312 1.765V0zm0 0"/></symbol><symbol overflow="visible" id="G"><path d="M4.844-2.5c0-1.5-.14-2.594-2.094-2.594C.797-5.094.672-4 .672-2.5.672-1 .797.078 2.75.078 4.703.078 4.844-1 4.844-2.5zm-.438 0c0 1.406-.093 2.14-1.656 2.14-1.547 0-1.64-.734-1.64-2.14 0-1.406.093-2.172 1.64-2.172 1.563 0 1.656.766 1.656 2.172zm0 0"/></symbol><symbol overflow="visible" id="H"><path d="M1.297 0v-7.313H.859V0zm0 0"/></symbol><symbol overflow="visible" id="I"><path d="M4.75-.453v-4.563h-.422v.735c-.312-.547-.875-.813-1.719-.813C.766-5.094.672-3.969.672-2.562.672-1 .812.015 2.609.015 3.453.016 4-.266 4.313-.813 4.296-.234 4.39.391 4.14.923c-.25.531-.829.687-1.5.687-.938 0-1.438-.312-1.438-1.015H.781c.016 1.015.735 1.437 1.89 1.437.845 0 1.548-.234 1.86-.937.172-.375.219-.797.219-1.547zm-.422-2.094c0 1.64-.469 2.11-1.766 2.11-1.406 0-1.453-.891-1.453-2.11 0-1.203.047-2.125 1.454-2.125 1.312 0 1.765.516 1.765 2.125zm0 0"/></symbol><symbol overflow="visible" id="J"><path d="M4.36-5.016h-.47L2.376-.578.797-5.016H.328l1.813 5L1.406 2h.438zm0 0"/></symbol><symbol overflow="visible" id="K"><path d="M1.281.156v-.781H.86v.781c0 .438-.015.656-.343.969l-.188.203.266.281.265-.234c.36-.328.422-.625.422-1.219zm0 0"/></symbol><symbol overflow="visible" id="L"><path d="M5.875-3.5c0-1.547-.094-2.125-.375-2.64C5.11-6.767 4.531-7 3.297-7H1v7h2.297C4.53 0 5.109-.219 5.5-.86c.281-.5.375-1.093.375-2.64zm-.438 0c0 1.516-.109 2.078-.359 2.469-.281.437-.719.61-1.844.61H1.438v-6.157h1.796c1.125 0 1.563.156 1.844.61.25.39.36.952.36 2.468zm0 0"/></symbol><symbol overflow="visible" id="M"><path d="M4.625 0v-2.922c0-1.14.14-2.172-1.875-2.172-1.016 0-2.031.219-2.031 1.453h.406c0-.937.828-1.03 1.547-1.03 1.625 0 1.515.609 1.515 1.702H2.47c-1.156 0-1.875.235-1.875 1.547 0 1.063.562 1.5 1.812 1.5.906 0 1.547-.281 1.813-.86V0zm-.438-2.563c.032 1.391-.14 2.235-1.812 2.235-.984 0-1.344-.328-1.344-1.094 0-1 .532-1.14 1.39-1.14zm0 0"/></symbol><symbol overflow="visible" id="N"><path d="M4.719-2.469c0-1.656-.188-2.625-2.016-2.625C.891-5.094.672-4.14.672-2.5.672-.812.922.078 2.719.078c.984 0 1.922-.281 1.922-1.453h-.407c0 .875-.796 1.016-1.5 1.016-1.515 0-1.625-.72-1.625-2.11zm-.422-.406H1.109c0-1.219.329-1.797 1.594-1.797 1.266 0 1.594.547 1.594 1.797zm0 0"/></symbol><symbol overflow="visible" id="O"><path d="M4.594 0v-5.016h-.438v2.235c0 1.14.078 2.437-1.61 2.437-.452 0-.796-.094-1.015-.312-.328-.313-.328-.781-.328-1.766v-2.594H.766v2.672c0 .953-.016 1.547.421 2 .266.281.704.422 1.36.422.64 0 1.281-.187 1.64-.828V0zm0 0"/></symbol><symbol overflow="visible" id="P"><path d="M5.672-3.516V-7h-.453v3.484c0 1.36.015 1.985-.219 2.422-.25.453-.766.735-1.703.735-.938 0-1.469-.282-1.719-.735-.234-.422-.187-1.062-.187-2.422V-7H.937v3.484c0 .579-.046 1.875.157 2.422C1.39-.297 2.14.078 3.297.078c1.062 0 1.687-.312 2.047-.906.375-.594.328-1.672.328-2.688zm0 0"/></symbol><symbol overflow="visible" id="Q"><path d="M4.438-5.016h-.454l-1.64 4.5-1.672-4.5H.219L2.079 0h.5zm0 0"/></symbol><symbol overflow="visible" id="R"><path d="M4.281-3.656c0-1.016-.562-1.438-1.5-1.438-.578 0-1.156.157-1.515.813v-.735H.859V0h.438v-2.172c0-1.125-.094-2.5 1.437-2.5.72 0 1.141.219 1.141 1.016zm0 0"/></symbol><symbol overflow="visible" id="S"><path d="M4.484-1.422c0-1.5-1.093-1.234-2.406-1.375-.719-.078-.969-.172-.953-.937 0-.688.422-.938 1.547-.938 1.078 0 1.39.313 1.39 1.016h.407c0-.453-.11-.797-.313-1.016-.281-.297-.765-.422-1.484-.422C1.312-5.109.687-4.75.687-3.656c0 1.484 1.016 1.234 2.36 1.36.812.077 1 .25 1 .905 0 .766-.453 1.047-1.563 1.047-1.125 0-1.468-.25-1.468-1.031H.609C.61-.281 1.156.063 2.484.078c1.344 0 2-.406 2-1.5zm0 0"/></symbol><symbol overflow="visible" id="T"><path d="M4.188-1.375H3.78c0 .75-.36 1.031-1.14 1.031-.75 0-1.11-.219-1.11-1.031v-3.234h2.25v-.407h-2.25V-7h-.437v1.984H.266v.407h.828v3.234c0 1.078.531 1.453 1.531 1.453.969 0 1.563-.39 1.563-1.453zm0 0"/></symbol><symbol overflow="visible" id="U"><path d="M5.578 0l-3.75-3.516L5.562-7h-.625l-3.5 3.313V-7H1v7h.438v-3.297L4.905 0zm0 0"/></symbol><symbol overflow="visible" id="V"><path d="M4.906-2.125c0-1.453-.422-2.25-1.953-2.25-.719 0-1.281.172-1.547.531v-2.734h3.282V-7H.983v3.969h.407c.03-.625.546-.922 1.546-.922 1.329 0 1.532.64 1.532 1.86 0 1.327-.407 1.734-1.657 1.734-1.078 0-1.515-.266-1.515-1.063H.875c0 1.125.672 1.5 1.938 1.5 1.546 0 2.093-.64 2.093-2.203zm0 0"/></symbol><symbol overflow="visible" id="W"><path d="M7.328 0v-7h-.61L4.173-.5 1.594-7H1v7h.422v-6.344L3.922 0h.469l2.5-6.344V0zm0 0"/></symbol><symbol overflow="visible" id="X"><path d="M4.875-5.125c0-.75-.156-1.234-.516-1.531-.328-.282-.875-.407-1.515-.407-1.281 0-1.985.36-1.985 1.47h.438c0-.798.5-1.048 1.578-1.048.766 0 1.219.188 1.406.594.11.234.157.531.157.922 0 .516-.11.844-.344 1.094-.375.437-1.438.672-2.032.906C1.345-2.844.86-2.437.86-1.531V0h4v-.422H1.297v-.906c0-.75.125-1.063.875-1.39.547-.235 1.719-.485 2.219-.97.343-.343.484-.796.484-1.437zm0 0"/></symbol><symbol overflow="visible" id="Y"><path d="M4.922-3.484c0-1.766-.047-2.235-.25-2.657-.313-.64-.89-.921-1.828-.921-.938 0-1.516.28-1.813.921-.203.422-.25.891-.25 2.657 0 1.53.031 2.03.172 2.421.25.782.875 1.141 1.89 1.141 1.032 0 1.657-.36 1.923-1.14.125-.391.156-.891.156-2.422zm-.438 0c0 1.53-.046 2.062-.203 2.421-.203.485-.61.72-1.437.72-.813 0-1.219-.235-1.438-.72-.14-.359-.187-.89-.187-2.421 0-1.344.047-1.938.14-2.266.188-.61.594-.89 1.485-.89.906 0 1.312.28 1.5.89.093.328.14.922.14 2.266zm0 0"/></symbol><symbol overflow="visible" id="Z"><path d="M5.656-5.11C5.656-7 4.672-7 3.188-7H1v7h.438v-3.234h1.75c1.468 0 2.468-.032 2.468-1.875zm-.453-.015c0 1.547-.812 1.469-2.062 1.469H1.437v-2.922h1.704c1.234 0 2.062-.063 2.062 1.453zm0 0"/></symbol><symbol overflow="visible" id="aa"><path d="M4.672 0v-2.672c0-.953.031-1.531-.406-2-.266-.281-.72-.422-1.36-.422-.64 0-1.265.172-1.61.813v-3.032H.86V0h.438v-2.219c0-1.156-.078-2.453 1.61-2.453.452 0 .796.094 1.015.313.328.312.312.78.312 1.765V0zm0 0"/></symbol><symbol overflow="visible" id="ab"><path d="M4.656-1.375h-.422c0 .89-.78 1.016-1.484 1.016-1.563 0-1.64-.766-1.64-2.157 0-1.406.077-2.156 1.64-2.156.703 0 1.484.156 1.484 1.031h.422c0-1.171-.937-1.453-1.922-1.453C.922-5.094.672-4.187.672-2.5.672-.812.906.078 2.734.078c.985 0 1.922-.266 1.922-1.453zm0 0"/></symbol><symbol overflow="visible" id="ac"><path d="M4.938-2.5c0-1.547-.172-2.594-1.954-2.594-.843 0-1.375.266-1.687.813v-3.032H.859V0h.407v-.75c.28.484.796.828 1.718.828C4.766.078 4.938-.938 4.938-2.5zm-.438 0c0 1.203-.047 2.14-1.453 2.14C1.734-.36 1.28-.874 1.28-2.5c0-1.656.453-2.156 1.766-2.156 1.39 0 1.453.922 1.453 2.156zm0 0"/></symbol><symbol overflow="visible" id="ad"><path d="M6.75-5.016h-.438L5.063-.578l-1.28-4.438h-.5L2-.578.75-5.016H.297L1.734 0h.516l1.281-4.453L4.797 0h.516zm0 0"/></symbol><symbol overflow="visible" id="ae"><path d="M5.625 0v-7h-.438v6.344L1.547-7H1v7h.438v-6.36L5.063 0zm0 0"/></symbol><symbol overflow="visible" id="af"><path d="M4.422-2.156V-7h-.453v4.86c0 1.187-.219 1.78-1.531 1.78C1.359-.36.843-.624.843-1.78H.422c0 1.422.687 1.86 2.015 1.86 1.594 0 1.985-.782 1.985-2.235zm0 0"/></symbol><symbol overflow="visible" id="ag"><path d="M5.219 0L3.062-3.531 5.188-7h-.516l-1.86 3.125L.923-7H.406l2.11 3.469L.375 0h.516l1.89-3.172L4.703 0zm0 0"/></symbol><symbol overflow="visible" id="ah"><path d="M5.719-1.781h-.422C5.297-.72 4.859-.36 3.344-.36c-2.11 0-2.063-1.079-2.063-3.125 0-2.079-.047-3.157 2.063-3.157 1.515 0 1.953.36 1.953 1.438h.422c0-1.375-.657-1.86-2.297-1.86C.828-7.063.828-5.734.828-3.483c0 2.234 0 3.562 2.594 3.562 1.64 0 2.297-.5 2.297-1.86zm0 0"/></symbol><symbol overflow="visible" id="ai"><path d="M5.656 0v-1.61c0-.671.11-1.687-.875-1.937.703-.203.875-.86.875-1.562C5.656-7.063 4.61-7 3.188-7H1v7h.438v-3.328H3.14c1.921 0 2.078.125 2.078 1.75V0zM5.22-5.14c0 1.5-.813 1.39-2.016 1.39H1.438v-2.828H3.14c1.218 0 2.078-.078 2.078 1.437zm0 0"/></symbol><symbol overflow="visible" id="aj"><path d="M5.031-6.578V-7H1v7h.438v-3.39h3.5v-.422h-3.5v-2.766zm0 0"/></symbol><symbol overflow="visible" id="ak"><path d="M4.766 0v-7.313h-.438v3.032c-.328-.547-.844-.813-1.703-.813C.828-5.094.672-4.016.672-2.5.672-.937.828.078 2.625.078c.844 0 1.406-.281 1.719-.828V0zm-.438-2.5c0 1.656-.437 2.14-1.75 2.14C1.156-.36 1.11-1.28 1.11-2.5c0-1.25.079-2.156 1.47-2.156 1.312 0 1.75.5 1.75 2.156zm0 0"/></symbol><symbol overflow="visible" id="al"><path d="M4.531 0L1.703-2.688 4.5-5.015h-.61L1.298-2.859v-4.454H.859V0h.438v-2.531L3.922 0zm0 0"/></symbol><symbol overflow="visible" id="am"><path d="M2.563 2v-.406c-.891 0-1.188-.25-1.376-.719C1 .359.829-1.265.829-3.219c0-1.953.172-3.594.36-4.11.187-.468.484-.718 1.375-.718v-.406c-1.063 0-1.594.312-1.844 1.14C.53-6.64.406-5.124.406-3.202.406-1.297.531.187.72.859.969 1.703 1.5 2 2.563 2zm0 0"/></symbol><symbol overflow="visible" id="an"><path d="M4.906-2.14c0-1.61-.547-2.235-1.984-2.235-.86 0-1.39.344-1.688.906 0-.64-.015-1.703.157-2.281.187-.625.609-.89 1.53-.89.97 0 1.454.327 1.454 1.046h.422c0-1.047-.703-1.468-1.875-1.468-1.188 0-1.844.421-2 1.39-.094.516-.14 1.36-.14 2.469 0 1 .077 1.719.218 2.14.266.735.938 1.141 1.89 1.141 1.407 0 2.016-.687 2.016-2.219zm-.437.015c0 1.297-.438 1.766-1.594 1.766-1.11 0-1.61-.532-1.61-1.829 0-1.187.563-1.765 1.72-1.765 1.109 0 1.484.437 1.484 1.828zm0 0"/></symbol><symbol overflow="visible" id="ao"><path d="M2.563-3.203c0-1.922-.126-3.438-.313-4.11C2-8.14 1.469-8.453.406-8.453v.406c.89 0 1.188.25 1.375.719.188.516.36 2.156.36 4.11 0 1.952-.172 3.577-.36 4.093-.187.469-.484.719-1.375.719V2C1.47 2 2 1.703 2.25.86c.188-.672.313-2.157.313-4.063zm0 0"/></symbol><symbol overflow="visible" id="ap"><path d="M5.14-6.578V-7H.314v.422H2.5V0h.453v-6.578zm0 0"/></symbol><symbol overflow="visible" id="aq"><path d="M4.297-6.219c0-.875-.75-1.156-1.61-1.156-.546 0-.984.094-1.28.39-.25.25-.345.579-.345 1.048v.921H.25v.407h.813V0H1.5v-4.61h2.188v-.406H1.5v-.921c0-.844.469-1.016 1.203-1.016.516 0 1.188.094 1.188.734zm0 0"/></symbol><symbol overflow="visible" id="ar"><path d="M7.438 0v-3.031c0-.781.125-2.063-1.594-2.063-.61 0-1.282.219-1.594.907-.203-.704-.813-.907-1.469-.907-.61 0-1.219.203-1.515.797v-.719H.859V0h.438v-2.203c0-1.125-.094-2.469 1.437-2.469 1.125 0 1.188.61 1.188 1.625V0h.437v-2.203c0-1.188-.046-2.453 1.454-2.453 1.14 0 1.187.593 1.187 1.61V0zm0 0"/></symbol><symbol overflow="visible" id="as"><path d="M4.938-2.5c0-1.563-.172-2.594-1.954-2.594-.843 0-1.406.297-1.718.844v-.766H.859V2h.438V-.734c.312.546.844.812 1.687.812C4.781.078 4.938-.953 4.938-2.5zM4.5-2.516c0 1.204-.047 2.157-1.453 2.157-1.313 0-1.766-.5-1.766-2.157 0-1.64.453-2.14 1.766-2.14 1.406 0 1.453.937 1.453 2.14zm0 0"/></symbol><symbol overflow="visible" id="at"><path d="M5.906 0L3.313-7h-.47L.267 0h.453L1.5-2.14h3.14L5.439 0zM4.484-2.531H1.656l1.422-3.922zm0 0"/></symbol><symbol overflow="visible" id="au"><path d="M5.078 0v-.422H1.453V-3.39H4.97v-.421H1.453v-2.766h3.625V-7H1v7zm0 0"/></symbol><symbol overflow="visible" id="av"><path d="M4.938-1.89c0-1.063-.313-1.563-1.047-1.75.828-.235.984-.813.984-1.641 0-1.313-.563-1.782-2.016-1.782S.844-6.593.844-5.28c0 .875.14 1.406.984 1.64-.719.188-1.047.688-1.047 1.75 0 1.5.672 1.97 2.078 1.97 1.407 0 2.079-.47 2.079-1.97zm-.5-3.36c0 1.188-.485 1.406-1.579 1.406-1.093 0-1.578-.234-1.578-1.437 0-1.047.344-1.36 1.578-1.36 1.22 0 1.579.313 1.579 1.391zM4.5-1.86c0 1.266-.484 1.5-1.64 1.5-1.188 0-1.641-.234-1.641-1.515 0-1.313.453-1.547 1.64-1.547 1.157 0 1.641.281 1.641 1.563zm0 0"/></symbol><symbol overflow="visible" id="aw"><path d="M1.406-4.734c0-.25-.11-.36-.343-.36-.235 0-.344.11-.344.36 0 .234.11.359.344.359.234 0 .343-.125.343-.36zm0 4.453c0-.25-.11-.36-.343-.36-.235 0-.344.11-.344.36 0 .234.11.36.344.36.234 0 .343-.126.343-.36zm0 0"/></symbol><symbol overflow="visible" id="ax"><path d="M4.344-6.578V-7H.297v.422h3.578L.906 0h.485zm0 0"/></symbol><symbol overflow="visible" id="ay"><path d="M3.922-2.313v-.406H.953v.406zm0 0"/></symbol><symbol overflow="visible" id="az"><path d="M5.031-2.094V-2.5h-1V-7h-.453L.547-2.5v.406h3.047V0h.437v-2.094zM3.594-2.5H1.063l2.53-3.797zm0 0"/></symbol><symbol overflow="visible" id="aA"><path d="M1-8.672h3.11c.495 0 .93.067 1.296.188.364.125.66.304.89.53.24.231.415.509.532.829.121.313.188.652.188 1.016v.265c0 .367-.067.711-.188 1.032a2.337 2.337 0 0 1-.562.843 2.637 2.637 0 0 1-.907.578c-.355.137-.773.204-1.25.204H2.188V.328H1zm1.188 1.063v3.359h1.718c1.258 0 1.89-.54 1.89-1.625v-.219c0-.508-.151-.89-.452-1.14-.305-.246-.739-.375-1.297-.375zm0 0"/></symbol><symbol overflow="visible" id="aB"><path d="M.844-6.5h1.172v4.234c0 .586.113 1.008.343 1.266.227.25.586.375 1.079.375.195 0 .394-.035.593-.11.196-.07.375-.175.532-.312.152-.133.28-.305.375-.516.09-.207.14-.44.14-.703V-6.5h1.188V.328H5.125v-.86h-.016c-.199.313-.46.552-.78.72-.325.175-.724.265-1.188.265-.325 0-.63-.055-.907-.156a1.969 1.969 0 0 1-.718-.438 2.19 2.19 0 0 1-.5-.765c-.118-.301-.172-.66-.172-1.078zm0 0"/></symbol><symbol overflow="visible" id="aC"><path d="M2.125-5.719c.207-.34.484-.578.828-.703.34-.133.695-.203 1.063-.203.832 0 1.468.254 1.906.75.445.5.672 1.223.672 2.156v1.203c0 .47-.067.887-.188 1.25a2.433 2.433 0 0 1-.547.922 2.2 2.2 0 0 1-.828.563c-.324.133-.68.203-1.062.203-.5 0-.903-.09-1.203-.266a1.843 1.843 0 0 1-.657-.625h-.03v.797H.936v-9.437h1.188zm-.016 3.61c0 .18.04.355.125.53.082.18.204.337.36.47.152.136.336.254.547.343.214.086.453.125.703.125.496 0 .89-.175 1.172-.53.277-.352.421-.86.421-1.516v-.829c0-.652-.144-1.16-.421-1.515-.282-.352-.676-.532-1.172-.532-.242 0-.465.043-.672.125a1.604 1.604 0 0 0-.922.89c-.094.212-.14.45-.14.72zm0 0"/></symbol><symbol overflow="visible" id="aD"><path d="M2.125-9.11V.329H.937v-9.437zm0 0"/></symbol><symbol overflow="visible" id="aE"><path d="M2.156-6.5V.328H.984V-6.5zm.031-2.453v1.328H.938v-1.328zm0 0"/></symbol><symbol overflow="visible" id="aF"><path d="M3.469-6.625c.539 0 .988.074 1.344.219.351.136.664.316.937.531l-.563.906a3.097 3.097 0 0 0-.843-.468 2.922 2.922 0 0 0-.875-.125c-.219 0-.434.042-.64.125a1.38 1.38 0 0 0-.532.359 1.75 1.75 0 0 0-.36.61c-.093.25-.14.55-.14.89v.875c0 .367.047.68.14.937.09.262.22.477.375.641.153.156.333.277.532.36.207.074.422.109.64.109.434 0 .797-.055 1.079-.172.289-.121.554-.274.796-.453l.563.922c-.242.199-.559.375-.953.53-.387.165-.887.25-1.5.25-.918 0-1.63-.273-2.125-.812C.852-.94.609-1.71.609-2.703v-.86c0-.488.067-.921.204-1.296.132-.383.32-.707.562-.97.246-.257.55-.456.906-.593a3.35 3.35 0 0 1 1.188-.203zm0 0"/></symbol><symbol overflow="visible" id="aG"><path d="M2.781.422c-.668 0-1.199-.168-1.594-.5C.801-.418.61-.895.61-1.5v-.328c0-.582.188-1.055.563-1.422.383-.371 1-.563 1.844-.563h1.687v-.39c0-.457-.113-.797-.328-1.016-.21-.226-.559-.343-1.047-.343-.387 0-.726.066-1.015.187a5.978 5.978 0 0 0-.891.5l-.578-.89c.32-.239.687-.442 1.094-.61.402-.164.875-.25 1.406-.25.37 0 .71.05 1.015.14.301.094.563.239.782.423.226.187.406.417.53.687.122.273.188.582.188.922V.328H4.734V-.5H4.72a1.164 1.164 0 0 1-.266.344 1.841 1.841 0 0 1-.344.265c-.18.102-.37.18-.578.235-.21.05-.46.078-.75.078zm1.922-3.203H3.047c-.469 0-.805.097-1 .281-.2.18-.297.43-.297.75v.172c0 .336.113.582.344.734.226.149.5.219.812.219.29 0 .54-.035.75-.11.215-.07.414-.175.594-.312a.994.994 0 0 0 .344-.422c.07-.164.11-.379.11-.64zm0 0"/></symbol><symbol overflow="visible" id="aH"><path d="M1.36-5.469H.265V-6.5h1.093v-1.734h1.172V-6.5h1.75v1.031h-1.75v3.89c0 .212.02.38.063.5.039.126.097.227.172.298.07.062.16.113.265.14.114.024.227.032.344.032.29 0 .582-.055.875-.172l.188.984a4.19 4.19 0 0 1-.563.14 2.98 2.98 0 0 1-.672.079c-.637 0-1.105-.164-1.406-.484-.293-.32-.438-.829-.438-1.516zm0 0"/></symbol><symbol overflow="visible" id="aI"><path d="M3.563-6.625c.902 0 1.624.273 2.156.813.527.542.797 1.308.797 2.296v.829c0 .992-.27 1.757-.797 2.296-.532.54-1.254.813-2.157.813-.917 0-1.644-.274-2.171-.813C.867-.93.609-1.695.609-2.687v-.829c0-.996.258-1.765.782-2.296.527-.54 1.254-.813 2.171-.813zm0 5.984c.519 0 .94-.175 1.265-.53.332-.352.5-.891.5-1.61v-.64c0-.716-.168-1.255-.5-1.61-.324-.352-.746-.532-1.266-.532-.53 0-.96.18-1.28.532-.325.355-.485.894-.485 1.61v.64c0 .719.16 1.258.484 1.61.32.355.75.53 1.281.53zm0 0"/></symbol><symbol overflow="visible" id="aJ"><path d="M6.406.328H5.234v-4.25c0-.57-.12-.988-.359-1.25-.23-.258-.59-.39-1.078-.39-.211 0-.414.039-.61.109a1.636 1.636 0 0 0-.922.828c-.093.21-.14.45-.14.719V.328H.937V-6.5h1.141v.86h.016c.195-.32.46-.567.797-.735.332-.164.726-.25 1.187-.25.32 0 .625.055.906.156.278.094.524.242.735.438.215.199.383.457.5.765.12.305.187.664.187 1.079zm0 0"/></symbol><symbol overflow="visible" id="aK"><path d="M3-.625c.434 0 .773-.078 1.016-.234a.738.738 0 0 0 .375-.657v-.093a.941.941 0 0 0-.063-.36.602.602 0 0 0-.234-.265 2.26 2.26 0 0 0-.469-.204 11.98 11.98 0 0 0-.75-.203 5.824 5.824 0 0 1-.969-.265 3.106 3.106 0 0 1-.718-.39 1.5 1.5 0 0 1-.454-.563 1.914 1.914 0 0 1-.14-.766v-.156c0-.227.047-.457.14-.688.102-.226.254-.426.454-.593.195-.165.453-.301.765-.407.309-.101.68-.156 1.11-.156.445 0 .867.055 1.265.156.395.106.754.278 1.078.516l-.515.906a2.57 2.57 0 0 0-.782-.39 3.051 3.051 0 0 0-.968-.157c-.493 0-.848.082-1.063.235a.709.709 0 0 0-.312.593v.11c0 .273.109.472.328.593.215.125.586.243 1.11.344a6.41 6.41 0 0 1 1.046.281c.3.106.547.243.734.407.196.156.344.351.438.578.09.219.14.492.14.812v.157c0 .261-.058.511-.171.75a1.9 1.9 0 0 1-.5.609 2.572 2.572 0 0 1-.797.39 3.385 3.385 0 0 1-1.047.157A4.763 4.763 0 0 1 1.53.188C1.082.039.7-.156.391-.406l.546-.938c.29.211.602.383.938.516.34.137.719.203 1.125.203zm0 0"/></symbol></defs><g fill="#231f20"><use xlink:href="#a" x="74.885" y="47.763"/><use xlink:href="#b" x="82.886" y="47.763"/><use xlink:href="#c" x="85.492" y="47.763"/><use xlink:href="#d" x="88.099" y="47.763"/><use xlink:href="#e" x="96.1" y="47.763"/><use xlink:href="#f" x="104.1" y="47.763"/><use xlink:href="#g" x="112.1" y="47.763"/><use xlink:href="#c" x="120.1" y="47.763"/><use xlink:href="#h" x="122.707" y="47.763"/><use xlink:href="#i" x="130.707" y="47.763"/><use xlink:href="#c" x="138.708" y="47.763"/><use xlink:href="#j" x="141.315" y="47.763"/><use xlink:href="#k" x="149.315" y="47.763"/><use xlink:href="#c" x="157.315" y="47.763"/><use xlink:href="#l" x="159.922" y="47.763"/><use xlink:href="#m" x="167.922" y="47.763"/></g><g fill="#393536"><use xlink:href="#n" x="42.468" y="48.426"/><use xlink:href="#o" x="48.041" y="48.426"/></g><g fill="#fff"><use xlink:href="#p" x="119.052" y="139.645"/><use xlink:href="#q" x="126.052" y="139.645"/><use xlink:href="#r" x="133.027" y="139.645"/><use xlink:href="#s" x="139.991" y="139.645"/><use xlink:href="#t" x="145.913" y="139.645"/><use xlink:href="#u" x="152.355" y="139.645"/><use xlink:href="#v" x="156.824" y="139.645"/><use xlink:href="#w" x="159.718" y="139.645"/><use xlink:href="#x" x="166.597" y="139.645"/></g><path d="M76.441 219.219h96.97M173.41 219.219h327.711" fill="none" stroke-width=".299637" stroke="#33459a" stroke-miterlimit="10"/><g fill="#33459a"><use xlink:href="#y" x="77.858" y="166.772"/><use xlink:href="#z" x="82.314" y="166.772"/><use xlink:href="#z" x="87.878" y="166.772"/><use xlink:href="#y" x="93.442" y="166.772"/></g><g fill="#231f20"><use xlink:href="#A" x="174.827" y="166.772"/><use xlink:href="#B" x="181.296" y="166.772"/><use xlink:href="#C" x="183.311" y="166.772"/><use xlink:href="#B" x="189.679" y="166.772"/><use xlink:href="#D" x="191.693" y="166.772"/><use xlink:href="#E" x="194.338" y="166.772"/><use xlink:href="#F" x="196.382" y="166.772"/><use xlink:href="#D" x="201.733" y="166.772"/><use xlink:href="#A" x="204.378" y="166.772"/><use xlink:href="#E" x="210.848" y="166.772"/><use xlink:href="#G" x="212.893" y="166.772"/><use xlink:href="#H" x="218.304" y="166.772"/><use xlink:href="#G" x="220.349" y="166.772"/><use xlink:href="#I" x="225.761" y="166.772"/><use xlink:href="#J" x="231.264" y="166.772"/><use xlink:href="#K" x="235.791" y="166.772"/><use xlink:href="#D" x="237.805" y="166.772"/><use xlink:href="#L" x="240.45" y="166.772"/><use xlink:href="#M" x="247.062" y="166.772"/><use xlink:href="#N" x="252.362" y="166.772"/><use xlink:href="#I" x="257.652" y="166.772"/><use xlink:href="#O" x="263.156" y="166.772"/><use xlink:href="#D" x="268.506" y="166.772"/><use xlink:href="#P" x="271.151" y="166.772"/><use xlink:href="#F" x="277.652" y="166.772"/><use xlink:href="#E" x="283.002" y="166.772"/><use xlink:href="#Q" x="285.047" y="166.772"/><use xlink:href="#N" x="289.594" y="166.772"/><use xlink:href="#R" x="294.884" y="166.772"/><use xlink:href="#S" x="299.187" y="166.772"/><use xlink:href="#E" x="304.182" y="166.772"/><use xlink:href="#T" x="306.226" y="166.772"/><use xlink:href="#J" x="310.57" y="166.772"/><use xlink:href="#K" x="315.097" y="166.772"/><use xlink:href="#D" x="317.111" y="166.772"/><use xlink:href="#U" x="319.756" y="166.772"/><use xlink:href="#G" x="325.473" y="166.772"/><use xlink:href="#R" x="330.885" y="166.772"/><use xlink:href="#N" x="335.188" y="166.772"/><use xlink:href="#M" x="340.478" y="166.772"/><use xlink:href="#D" x="345.778" y="166.772"/></g><g fill="#33459a"><use xlink:href="#y" x="77.858" y="187.168"/><use xlink:href="#z" x="82.314" y="187.168"/><use xlink:href="#z" x="87.878" y="187.168"/><use xlink:href="#V" x="93.442" y="187.168"/></g><g fill="#231f20"><use xlink:href="#W" x="174.827" y="187.168"/><use xlink:href="#B" x="183.056" y="187.168"/><use xlink:href="#C" x="185.071" y="187.168"/><use xlink:href="#B" x="191.439" y="187.168"/><use xlink:href="#D" x="193.453" y="187.168"/><use xlink:href="#E" x="196.098" y="187.168"/><use xlink:href="#F" x="198.142" y="187.168"/><use xlink:href="#D" x="203.493" y="187.168"/><use xlink:href="#A" x="206.138" y="187.168"/><use xlink:href="#E" x="212.608" y="187.168"/><use xlink:href="#G" x="214.653" y="187.168"/><use xlink:href="#H" x="220.064" y="187.168"/><use xlink:href="#G" x="222.109" y="187.168"/><use xlink:href="#I" x="227.521" y="187.168"/><use xlink:href="#J" x="233.024" y="187.168"/><use xlink:href="#K" x="237.551" y="187.168"/><use xlink:href="#D" x="239.565" y="187.168"/><use xlink:href="#L" x="242.21" y="187.168"/><use xlink:href="#M" x="248.822" y="187.168"/><use xlink:href="#N" x="254.122" y="187.168"/><use xlink:href="#I" x="259.412" y="187.168"/><use xlink:href="#O" x="264.915" y="187.168"/><use xlink:href="#D" x="270.266" y="187.168"/><use xlink:href="#P" x="272.911" y="187.168"/><use xlink:href="#F" x="279.411" y="187.168"/><use xlink:href="#E" x="284.762" y="187.168"/><use xlink:href="#Q" x="286.807" y="187.168"/><use xlink:href="#N" x="291.354" y="187.168"/><use xlink:href="#R" x="296.644" y="187.168"/><use xlink:href="#S" x="300.947" y="187.168"/><use xlink:href="#E" x="305.942" y="187.168"/><use xlink:href="#T" x="307.986" y="187.168"/><use xlink:href="#J" x="312.33" y="187.168"/><use xlink:href="#K" x="316.857" y="187.168"/><use xlink:href="#D" x="318.871" y="187.168"/><use xlink:href="#U" x="321.516" y="187.168"/><use xlink:href="#G" x="327.233" y="187.168"/><use xlink:href="#R" x="332.645" y="187.168"/><use xlink:href="#N" x="336.948" y="187.168"/><use xlink:href="#M" x="342.238" y="187.168"/></g><g fill="#33459a"><use xlink:href="#X" x="77.858" y="208.981"/><use xlink:href="#Y" x="83.351" y="208.981"/><use xlink:href="#Y" x="88.956" y="208.981"/><use xlink:href="#y" x="94.561" y="208.981"/></g><g fill="#231f20"><use xlink:href="#Z" x="174.827" y="208.981"/><use xlink:href="#aa" x="180.849" y="208.981"/><use xlink:href="#B" x="186.2" y="208.981"/><use xlink:href="#L" x="188.214" y="208.981"/><use xlink:href="#B" x="194.826" y="208.981"/><use xlink:href="#D" x="196.84" y="208.981"/><use xlink:href="#E" x="199.485" y="208.981"/><use xlink:href="#F" x="201.53" y="208.981"/><use xlink:href="#D" x="206.881" y="208.981"/><use xlink:href="#W" x="209.526" y="208.981"/><use xlink:href="#E" x="217.755" y="208.981"/><use xlink:href="#ab" x="219.8" y="208.981"/><use xlink:href="#R" x="224.937" y="208.981"/><use xlink:href="#G" x="229.24" y="208.981"/><use xlink:href="#ac" x="234.652" y="208.981"/><use xlink:href="#E" x="240.165" y="208.981"/><use xlink:href="#G" x="242.21" y="208.981"/><use xlink:href="#H" x="247.622" y="208.981"/><use xlink:href="#G" x="249.667" y="208.981"/><use xlink:href="#I" x="255.079" y="208.981"/><use xlink:href="#J" x="260.582" y="208.981"/><use xlink:href="#K" x="265.109" y="208.981"/><use xlink:href="#D" x="267.123" y="208.981"/><use xlink:href="#U" x="269.768" y="208.981"/><use xlink:href="#M" x="275.485" y="208.981"/><use xlink:href="#F" x="280.785" y="208.981"/><use xlink:href="#I" x="286.136" y="208.981"/><use xlink:href="#ad" x="291.639" y="208.981"/><use xlink:href="#G" x="298.587" y="208.981"/><use xlink:href="#F" x="303.999" y="208.981"/><use xlink:href="#D" x="309.349" y="208.981"/><use xlink:href="#ae" x="311.994" y="208.981"/><use xlink:href="#M" x="318.515" y="208.981"/><use xlink:href="#T" x="323.815" y="208.981"/><use xlink:href="#E" x="328.159" y="208.981"/><use xlink:href="#G" x="330.203" y="208.981"/><use xlink:href="#F" x="335.615" y="208.981"/><use xlink:href="#M" x="340.966" y="208.981"/><use xlink:href="#H" x="346.266" y="208.981"/><use xlink:href="#D" x="348.311" y="208.981"/><use xlink:href="#P" x="350.956" y="208.981"/><use xlink:href="#F" x="357.456" y="208.981"/><use xlink:href="#E" x="362.807" y="208.981"/><use xlink:href="#Q" x="364.851" y="208.981"/><use xlink:href="#N" x="369.399" y="208.981"/><use xlink:href="#R" x="374.688" y="208.981"/><use xlink:href="#S" x="378.991" y="208.981"/><use xlink:href="#E" x="383.986" y="208.981"/><use xlink:href="#T" x="386.031" y="208.981"/><use xlink:href="#J" x="390.374" y="208.981"/><use xlink:href="#K" x="394.901" y="208.981"/><use xlink:href="#D" x="396.915" y="208.981"/><use xlink:href="#U" x="399.56" y="208.981"/><use xlink:href="#G" x="405.277" y="208.981"/><use xlink:href="#R" x="410.689" y="208.981"/><use xlink:href="#N" x="414.992" y="208.981"/><use xlink:href="#M" x="420.282" y="208.981"/><use xlink:href="#D" x="425.582" y="208.981"/></g><path d="M76.441 339.996h424.68" fill="none" stroke-width=".299637" stroke="#33459a" stroke-miterlimit="10"/><g fill="#231f20"><use xlink:href="#C" x="77.858" y="310.944"/><use xlink:href="#T" x="84.226" y="310.944"/><use xlink:href="#R" x="88.57" y="310.944"/><use xlink:href="#N" x="92.873" y="310.944"/><use xlink:href="#H" x="98.163" y="310.944"/><use xlink:href="#G" x="100.207" y="310.944"/><use xlink:href="#ad" x="105.619" y="310.944"/><use xlink:href="#D" x="112.567" y="310.944"/><use xlink:href="#af" x="115.212" y="310.944"/><use xlink:href="#W" x="120.461" y="310.944"/><use xlink:href="#K" x="128.691" y="310.944"/><use xlink:href="#D" x="130.705" y="310.944"/><use xlink:href="#ag" x="133.35" y="310.944"/><use xlink:href="#E" x="138.843" y="310.944"/><use xlink:href="#M" x="140.888" y="310.944"/><use xlink:href="#G" x="146.188" y="310.944"/><use xlink:href="#D" x="151.599" y="310.944"/><use xlink:href="#W" x="154.244" y="310.944"/><use xlink:href="#K" x="162.474" y="310.944"/><use xlink:href="#D" x="164.488" y="310.944"/><use xlink:href="#ah" x="167.133" y="310.944"/><use xlink:href="#M" x="173.491" y="310.944"/><use xlink:href="#Q" x="178.791" y="310.944"/><use xlink:href="#E" x="183.338" y="310.944"/><use xlink:href="#T" x="185.383" y="310.944"/><use xlink:href="#T" x="189.726" y="310.944"/><use xlink:href="#D" x="194.07" y="310.944"/><use xlink:href="#ai" x="196.715" y="310.944"/><use xlink:href="#ae" x="203.164" y="310.944"/><use xlink:href="#K" x="209.685" y="310.944"/><use xlink:href="#D" x="211.699" y="310.944"/><use xlink:href="#aj" x="214.344" y="310.944"/><use xlink:href="#E" x="219.919" y="310.944"/><use xlink:href="#T" x="221.963" y="310.944"/><use xlink:href="#N" x="226.307" y="310.944"/><use xlink:href="#D" x="231.597" y="310.944"/><use xlink:href="#ae" x="234.242" y="310.944"/><use xlink:href="#ah" x="240.762" y="310.944"/><use xlink:href="#K" x="247.12" y="310.944"/><use xlink:href="#D" x="249.135" y="310.944"/><use xlink:href="#W" x="251.779" y="310.944"/><use xlink:href="#M" x="260.009" y="310.944"/><use xlink:href="#R" x="265.309" y="310.944"/><use xlink:href="#I" x="269.612" y="310.944"/><use xlink:href="#G" x="275.115" y="310.944"/><use xlink:href="#H" x="280.527" y="310.944"/><use xlink:href="#E" x="282.572" y="310.944"/><use xlink:href="#S" x="284.617" y="310.944"/><use xlink:href="#D" x="289.611" y="310.944"/><use xlink:href="#A" x="292.256" y="310.944"/><use xlink:href="#af" x="298.726" y="310.944"/><use xlink:href="#K" x="303.975" y="310.944"/><use xlink:href="#D" x="305.989" y="310.944"/><use xlink:href="#M" x="308.634" y="310.944"/><use xlink:href="#F" x="313.934" y="310.944"/><use xlink:href="#ak" x="319.285" y="310.944"/><use xlink:href="#D" x="324.799" y="310.944"/><use xlink:href="#Z" x="327.443" y="310.944"/><use xlink:href="#M" x="333.466" y="310.944"/><use xlink:href="#R" x="338.766" y="310.944"/><use xlink:href="#al" x="343.069" y="310.944"/><use xlink:href="#D" x="347.687" y="310.944"/><use xlink:href="#U" x="350.332" y="310.944"/><use xlink:href="#af" x="356.049" y="310.944"/><use xlink:href="#B" x="361.298" y="310.944"/><use xlink:href="#D" x="363.312" y="310.944"/><use xlink:href="#am" x="365.957" y="310.944"/><use xlink:href="#X" x="368.826" y="310.944"/><use xlink:href="#Y" x="374.319" y="310.944"/><use xlink:href="#y" x="379.924" y="310.944"/><use xlink:href="#an" x="384.38" y="310.944"/><use xlink:href="#ao" x="389.964" y="310.944"/><use xlink:href="#D" x="392.833" y="310.944"/><use xlink:href="#ap" x="395.478" y="310.944"/><use xlink:href="#aa" x="400.829" y="310.944"/><use xlink:href="#N" x="406.18" y="310.944"/><use xlink:href="#D" x="411.469" y="310.944"/><use xlink:href="#O" x="414.114" y="310.944"/><use xlink:href="#S" x="419.465" y="310.944"/><use xlink:href="#N" x="424.46" y="310.944"/><use xlink:href="#D" x="429.75" y="310.944"/><use xlink:href="#G" x="432.394" y="310.944"/><use xlink:href="#aq" x="437.806" y="310.944"/><use xlink:href="#D" x="442.109" y="310.944"/><use xlink:href="#F" x="444.754" y="310.944"/><use xlink:href="#O" x="450.105" y="310.944"/><use xlink:href="#ab" x="455.456" y="310.944"/><use xlink:href="#H" x="460.593" y="310.944"/><use xlink:href="#N" x="462.638" y="310.944"/><use xlink:href="#G" x="467.927" y="310.944"/><use xlink:href="#S" x="473.339" y="310.944"/><use xlink:href="#G" x="478.334" y="310.944"/><use xlink:href="#ar" x="483.746" y="310.944"/><use xlink:href="#N" x="491.853" y="310.944"/><use xlink:href="#D" x="497.143" y="310.944"/></g><g fill="#231f20"><use xlink:href="#S" x="77.858" y="326.924"/><use xlink:href="#O" x="82.853" y="326.924"/><use xlink:href="#ac" x="88.204" y="326.924"/><use xlink:href="#S" x="93.717" y="326.924"/><use xlink:href="#T" x="98.712" y="326.924"/><use xlink:href="#R" x="103.056" y="326.924"/><use xlink:href="#M" x="107.359" y="326.924"/><use xlink:href="#T" x="112.659" y="326.924"/><use xlink:href="#N" x="117.002" y="326.924"/><use xlink:href="#S" x="122.292" y="326.924"/><use xlink:href="#D" x="127.287" y="326.924"/><use xlink:href="#E" x="129.932" y="326.924"/><use xlink:href="#ar" x="131.976" y="326.924"/><use xlink:href="#as" x="140.084" y="326.924"/><use xlink:href="#R" x="145.598" y="326.924"/><use xlink:href="#G" x="149.901" y="326.924"/><use xlink:href="#Q" x="155.312" y="326.924"/><use xlink:href="#N" x="159.86" y="326.924"/><use xlink:href="#S" x="165.149" y="326.924"/><use xlink:href="#D" x="170.144" y="326.924"/><use xlink:href="#ac" x="172.789" y="326.924"/><use xlink:href="#E" x="178.303" y="326.924"/><use xlink:href="#F" x="180.347" y="326.924"/><use xlink:href="#ak" x="185.698" y="326.924"/><use xlink:href="#E" x="191.212" y="326.924"/><use xlink:href="#F" x="193.256" y="326.924"/><use xlink:href="#I" x="198.607" y="326.924"/><use xlink:href="#D" x="204.11" y="326.924"/><use xlink:href="#G" x="206.755" y="326.924"/><use xlink:href="#aq" x="212.167" y="326.924"/><use xlink:href="#D" x="216.47" y="326.924"/><use xlink:href="#C" x="219.115" y="326.924"/><use xlink:href="#at" x="225.483" y="326.924"/><use xlink:href="#W" x="231.556" y="326.924"/><use xlink:href="#D" x="239.786" y="326.924"/><use xlink:href="#M" x="242.431" y="326.924"/><use xlink:href="#F" x="247.731" y="326.924"/><use xlink:href="#M" x="253.082" y="326.924"/><use xlink:href="#H" x="258.381" y="326.924"/><use xlink:href="#G" x="260.426" y="326.924"/><use xlink:href="#I" x="265.838" y="326.924"/><use xlink:href="#S" x="271.341" y="326.924"/><use xlink:href="#D" x="276.336" y="326.924"/><use xlink:href="#T" x="278.981" y="326.924"/><use xlink:href="#G" x="283.325" y="326.924"/><use xlink:href="#D" x="288.737" y="326.924"/><use xlink:href="#C" x="291.381" y="326.924"/><use xlink:href="#au" x="297.75" y="326.924"/><use xlink:href="#ap" x="303.578" y="326.924"/><use xlink:href="#L" x="308.929" y="326.924"/><use xlink:href="#av" x="315.541" y="326.924"/><use xlink:href="#B" x="321.157" y="326.924"/><use xlink:href="#D" x="323.171" y="326.924"/><use xlink:href="#af" x="325.816" y="326.924"/><use xlink:href="#B" x="331.065" y="326.924"/><use xlink:href="#D" x="333.079" y="326.924"/><use xlink:href="#A" x="335.724" y="326.924"/><use xlink:href="#E" x="342.194" y="326.924"/><use xlink:href="#G" x="344.238" y="326.924"/><use xlink:href="#ar" x="349.65" y="326.924"/><use xlink:href="#G" x="357.758" y="326.924"/><use xlink:href="#H" x="363.17" y="326.924"/><use xlink:href="#B" x="365.214" y="326.924"/><use xlink:href="#D" x="367.229" y="326.924"/><use xlink:href="#C" x="369.873" y="326.924"/><use xlink:href="#ab" x="376.242" y="326.924"/><use xlink:href="#R" x="381.379" y="326.924"/><use xlink:href="#N" x="385.682" y="326.924"/><use xlink:href="#N" x="390.971" y="326.924"/><use xlink:href="#F" x="396.261" y="326.924"/><use xlink:href="#B" x="401.612" y="326.924"/><use xlink:href="#D" x="403.626" y="326.924"/><use xlink:href="#X" x="406.271" y="326.924"/><use xlink:href="#y" x="411.764" y="326.924"/><use xlink:href="#aw" x="416.22" y="326.924"/><use xlink:href="#ax" x="418.234" y="326.924"/><use xlink:href="#av" x="422.761" y="326.924"/><use xlink:href="#an" x="428.376" y="326.924"/><use xlink:href="#ay" x="433.961" y="326.924"/><use xlink:href="#ax" x="438.742" y="326.924"/><use xlink:href="#z" x="443.269" y="326.924"/><use xlink:href="#az" x="448.833" y="326.924"/><use xlink:href="#B" x="454.347" y="326.924"/></g><g fill="#fff"><use xlink:href="#aA" x="119.052" y="283.252"/><use xlink:href="#aB" x="126.282" y="283.252"/><use xlink:href="#aC" x="133.245" y="283.252"/><use xlink:href="#aD" x="140.221" y="283.252"/><use xlink:href="#aE" x="143.042" y="283.252"/><use xlink:href="#aF" x="145.937" y="283.252"/><use xlink:href="#aG" x="151.859" y="283.252"/><use xlink:href="#aH" x="158.301" y="283.252"/><use xlink:href="#aE" x="162.77" y="283.252"/><use xlink:href="#aI" x="165.664" y="283.252"/><use xlink:href="#aJ" x="172.543" y="283.252"/><use xlink:href="#aK" x="179.555" y="283.252"/><use xlink:href="#aL" x="185.344" y="283.252"/></g></svg>