<svg xmlns="http://www.w3.org/2000/svg" xmlns:xlink="http://www.w3.org/1999/xlink" width="793.701" height="1058.268" viewBox="0 0 595.276 793.701" version="1.2"><defs><clipPath id="D"><path d="M0 410h594.555v2H0zm0 0"/></clipPath><symbol overflow="visible" id="a"><path d="M2.875.031c.434 0 .82-.144 1.156-.437.332-.301.594-.64.782-1.016.183-.34.316-.71.39-1.11.082-.402.125-.804.125-1.202 0-.403-.05-.813-.14-1.22a4.843 4.843 0 0 0-.407-1.155A3.031 3.031 0 0 0 4-7.063a1.747 1.747 0 0 0-1.14-.421c-.844 0-1.473.457-1.876 1.359-.406.906-.609 1.707-.609 2.39 0 .712.203 1.52.61 2.422C1.386-.413 2.02.032 2.874.032zm0-.281c-.75 0-1.227-.441-1.422-1.328-.2-.895-.297-1.613-.297-2.156 0-.54.098-1.254.297-2.141.195-.895.672-1.344 1.422-1.344.363 0 .648.137.86.407.206.273.363.566.468.875.113.343.195.71.25 1.093.059.387.094.758.094 1.11 0 .324-.035.675-.094 1.046a9.33 9.33 0 0 1-.203 1.016c-.094.336-.254.66-.469.969-.21.305-.511.453-.906.453zm0 0"/></symbol><symbol overflow="visible" id="b"><path d="M3.422-7.313a.124.124 0 0 0-.031-.078.119.119 0 0 0-.079-.062.133.133 0 0 0-.078 0 .589.589 0 0 0-.078.047l-1.844.828a.934.934 0 0 0-.218.078c-.086.043-.125.102-.125.172 0 .043.008.082.031.11a.143.143 0 0 0 .094.03c.05 0 .113-.015.187-.046.07-.028.133-.051.188-.063l.687-.312c.051-.02.102-.04.156-.063a.364.364 0 0 1 .172-.047c.07 0 .118.024.141.063.02.043.031.097.031.156v5.078c0 .367-.043.617-.125.75-.074.125-.316.188-.719.188-.25 0-.414.011-.484.03-.074.013-.11.052-.11.11 0 .063.016.106.048.125.027.024.082.032.156.032h3.094c.058 0 .109-.008.14-.032.028-.02.047-.054.047-.11 0-.058-.02-.1-.047-.124a.278.278 0 0 0-.14-.031h-.329c-.375 0-.601-.079-.671-.235-.063-.164-.094-.41-.094-.734zm0 0"/></symbol><symbol overflow="visible" id="c"><path d="M1.672.344c-.012.02-.008.031.016.031.019.008.035.016.046.016h.172c.082 0 .13-.028.14-.079.02-.042.052-.105.095-.187l3.125-7.047c.02-.027.039-.066.062-.11a.385.385 0 0 0 .031-.124c0-.082-.054-.125-.156-.125C5.11-7.29 5.04-7.297 5-7.297H.5c-.074 0-.121.024-.14.063a.329.329 0 0 0-.032.156l.047.61c.008.011.016.042.016.093.007.055.03.078.062.078.02 0 .04-.004.063-.016l.046-.046c.114-.028.204-.051.266-.063.07-.008.164-.016.281-.016h3.235c.05 0 .097.012.14.032.051.023.079.066.079.125 0 .031-.02.082-.047.14a.712.712 0 0 0-.063.157zm0 0"/></symbol><symbol overflow="visible" id="d"><path d="M7.422 1.36v-7.985h-.734v2.938h-.954V-6.5H5V.984h.734v-3.953h.954V1.36zM2.938-4.626v-.813H4.28v-.625H.813v.625h1.359v.688c0 .953-.156 1.766-.469 2.453A4.316 4.316 0 0 1 .172-.594c.234.14.531.313.687.453.36-.265.735-.656 1.047-1.093.297-.407.532-.875.64-1.297.126.422.345.828.61 1.187.297.375.64.703.969.907.14-.172.36-.36.547-.5a3.485 3.485 0 0 1-1.344-1.516c-.25-.594-.39-1.328-.39-2.172zm0 0"/></symbol><symbol overflow="visible" id="e"><path d="M6.078-6.625V-.75h.75v-3.266h1.11v-.64h-1.11v-1.969zm-.344 3.234c-.546.11-2.015.282-2.843.297l-1.313.016v-2.547H4.61v-.64H.844v3.843c.031 0 1.375 0 1.984-.015 1.047-.032 2.328-.188 2.906-.329zm1.344 4.594v-.64H2.422v-2.016h-.75v2.656zm0 0"/></symbol><symbol overflow="visible" id="f"><path d="M7.11-2.313v-4.312h-.75v1.578H4.624v-1.312h-.719v1.187h-2.25v-1.187H.922v3.687h3.703V-4.39h1.734v2.079zm-3.204-1h-2.25V-4.53h2.25zM7.11 1.282v-3.234h-.75v.922H2.547v-.922h-.75V1.28zm-.75-.61H2.547V-.405h3.812zm0 0"/></symbol><symbol overflow="visible" id="g"><path d="M7.11-.75v-5.875h-.75V-.75zM.61-4.406c0 1.14.874 2.093 2.124 2.093 1.235 0 2.11-.953 2.11-2.093 0-1.172-.875-2.11-2.11-2.11-1.25 0-2.125.938-2.125 2.11zm.765 0c0-.828.5-1.469 1.36-1.469.859 0 1.359.64 1.359 1.469 0 .797-.5 1.437-1.36 1.437-.859 0-1.359-.64-1.359-1.437zm5.969 5.61V.562H2.562v-1.985h-.75v2.625zm0 0"/></symbol><symbol overflow="visible" id="i"><path d="M7.047 1.36v-7.985H6.28v7.984zM4.687-.657v-5.469H.97v5.469zm-.734-.64H1.72V-5.47h2.234zm0 0"/></symbol><symbol overflow="visible" id="j"><path d="M7.203 1.36v-7.985H6.47v2.844h-.985V-6.5H4.75V.984h.734v-4.046h.985v4.421zm-2.75-2.75c-.344.062-1.187.156-1.734.156l-1.063.015V-3.03h2.157v-3.125H.921v.64h2.172v1.844H.922v3.11l1.547-.016A19.11 19.11 0 0 0 4.453-.75zm0 0"/></symbol><symbol overflow="visible" id="k"><path d="M7.203 1.36v-7.985h-.75v7.984zM1.031-4.376c0 1.094.875 2 2.125 2 1.235 0 2.125-.906 2.125-2 0-1.094-.89-1.984-2.125-1.984-1.25 0-2.125.89-2.125 1.984zm.735 0c0-.75.53-1.36 1.39-1.36.86 0 1.36.61 1.36 1.36 0 .75-.5 1.36-1.36 1.36-.86 0-1.39-.61-1.39-1.36zm4.406 3.016c-.64.109-2.531.25-3.219.265-.328.016-2.312.016-2.344.016v.656c.016 0 1.657.016 1.985 0a26.518 26.518 0 0 0 3.578-.297zm0 0"/></symbol><symbol overflow="visible" id="l"><path d="M8.047-3.813v-.671H6.922v-2.141h-.766V-1.5h.766v-2.313zM4.14-6.046v-.594H1.687v.594zm1.14 1.203v-.593H.594v.593zM.921-3.078c0 .719.829 1.312 2 1.312 1.25 0 2.032-.593 2.032-1.312 0-.735-.75-1.328-2.016-1.328-1.203 0-2.015.593-2.015 1.328zm.782-.016c0-.453.484-.719 1.234-.719.766 0 1.235.266 1.235.72 0 .452-.453.75-1.234.75-.75 0-1.235-.282-1.235-.75zm5.219 4.5v-2.515h-5.36v.625h4.579v1.89zm0 0"/></symbol><symbol overflow="visible" id="m"><path d="M7.11-.75v-5.875h-.75v.922H4.421c-.36-.5-.969-.844-1.703-.844-1.235 0-2.11.969-2.11 2.125 0 1.156.875 2.11 2.11 2.11.765 0 1.39-.36 1.75-.891h1.89V-.75zm-.75-3.11H4.75a1.7 1.7 0 0 0 .094-.562c0-.219-.032-.437-.094-.625h1.61zm-4.985-.562c0-.812.5-1.469 1.344-1.469.875 0 1.36.657 1.36 1.47 0 .796-.485 1.452-1.36 1.452-.844 0-1.344-.656-1.344-1.453zm5.953 5.625v-.64H2.562v-1.985h-.75v2.625zm0 0"/></symbol><symbol overflow="visible" id="n"><path d="M7.781-2.156v-.64H6.484c.204-.907.375-2.438.407-3.548H1.156v.64h4.938a16.656 16.656 0 0 1-.39 2.907H.265v.64h3.312V1.36h.75v-3.515zm0 0"/></symbol><symbol overflow="visible" id="p"><path d="M3.813-4.36v-.015h1.593v-.813h-4.25v.813h1.578v.016c-.046.359-.265.687-.593.968-.407.344-.97.594-1.5.735.234.203.546.5.718.703.422-.156.813-.36 1.141-.61.344-.234.625-.515.781-.812.203.297.485.563.813.781.343.219.703.39 1.015.485.125-.188.375-.47.594-.688a3.35 3.35 0 0 1-1.219-.578c-.343-.266-.625-.61-.671-.984zm2.25 3.126c-.641.093-1.954.171-2.313.171V-2.25h-.969v1.203H.562v.86h1.844c1.172 0 2.985-.094 3.656-.204zm1.25 2.609v-8.016h-.954v8.016zm-2.86-7.11v-.796H2.016v.797zm0 0"/></symbol><symbol overflow="visible" id="q"><path d="M7.203-.75v-5.89h-.969v5.89zM3.328-5.39v-1.094H2.297v1.125c0 .593-.219 1.125-.563 1.562-.39.516-.968.922-1.562 1.203.266.203.625.485.781.656a5.38 5.38 0 0 0 1.094-.796c.344-.329.64-.704.765-1.079.204.376.532.735.891 1.016.328.266.688.5 1 .656.14-.203.422-.515.625-.75a3.228 3.228 0 0 1-1.39-.953c-.376-.437-.61-.969-.61-1.547zm4.063 6.609V.375H2.766v-1.734h-1v2.578zm0 0"/></symbol><symbol overflow="visible" id="r"><path d="M7.781-2.063v-.843h-3.25v-.906h2.39v-.829H2.204v-.984h4.64v-.828H1.235v2.64h2.297v.907H.281v.844zm-3.75 3.594c1.938 0 2.985-.687 2.985-1.562 0-.89-1.047-1.547-2.985-1.547-1.937 0-3 .656-3 1.547 0 .875 1.063 1.562 3 1.562zM2.156-.047c0-.515.703-.781 1.875-.781 1.14 0 1.86.297 1.86.797 0 .484-.72.781-1.86.781C2.86.75 2.156.453 2.156-.047zm0 0"/></symbol><symbol overflow="visible" id="s"><path d="M7.906-2.875v-.828H6.875v-.922h1.031v-.828H6.875v-1.188h-.969v5.063h.969v-1.297zM4.063-5.953v-.734H1.578v.734zm1.125 1.219v-.735H.468v.735zM.702-3.188c0 .688.906 1.25 2.125 1.25 1.297 0 2.125-.546 2.125-1.265 0-.703-.828-1.203-2.11-1.203-1.234 0-2.14.531-2.14 1.218zm3.235-.015c0 .375-.407.578-1.094.578-.688 0-1.11-.188-1.11-.563 0-.374.422-.578 1.11-.578.687 0 1.094.204 1.094.563zM7.046 0c0-.938-1.188-1.5-2.844-1.5-1.594 0-2.875.516-2.875 1.469 0 .953 1.234 1.547 2.86 1.547C5.796 1.516 7.046.984 7.046 0zm-4.64-.016c0-.562.874-.75 1.78-.75.985 0 1.75.235 1.75.75 0 .532-.828.782-1.734.782-.922 0-1.797-.25-1.797-.782zm0 0"/></symbol><symbol overflow="visible" id="t"><path d="M7.797.484v-.843H4.53V-2h2.282v-4.422h-.97v1.313h-3.64v-1.313h-.969V-2h2.282v1.64H.28v.844zM5.844-2.844h-3.64v-1.422h3.64zm0 0"/></symbol><symbol overflow="visible" id="u"><path d="M1.078-6.203v.828h4.766a28.365 28.365 0 0 1-.453 3.953h.968c.25-1.39.47-3.406.532-4.781zM7.797.484v-.843H3.844v-2.985h-.985v2.985H.281v.843zm0 0"/></symbol><symbol overflow="visible" id="v"><path d="M7.203 1.375v-8.016H6.22v2.313H4.53v.906H6.22v4.797zm-3.89-5.938v-1.765H2.296v1.719c0 .796-.172 1.515-.516 2.14C1.406-1.766.828-1.188.094-.75c.281.188.625.469.812.64a6.26 6.26 0 0 0 1.14-1.046c.345-.422.642-.89.767-1.297.203.453.5.906.859 1.281.344.36.719.672 1.031.89.172-.187.438-.437.719-.655-.672-.422-1.234-.938-1.61-1.594-.312-.563-.5-1.219-.5-2.031zm0 0"/></symbol><symbol overflow="visible" id="x"><path d="M2.766-.547L1.125-6.125H.109L2.266.672h.968l2.172-6.797H4.391zm0 0"/></symbol><symbol overflow="visible" id="y"><path d="M2.438-3.688c.765 0 1.171.766 1.171 1.922C3.61-.609 3.203.141 2.438.141c-.735 0-1.141-.75-1.141-1.907 0-1.156.406-1.921 1.14-1.921zm0-.75C1.046-4.438.344-3.375.344-1.765c0 1.61.703 2.641 2.094 2.641 1.406 0 2.14-1.031 2.14-2.64 0-1.61-.734-2.673-2.14-2.673zm0 0"/></symbol><symbol overflow="visible" id="z"><path d="M.563-6.125V.672h.906v-6.797zm0 0"/></symbol><symbol overflow="visible" id="A"><path d="M.64-.047v1.203h1.25V-.047zm0 0"/></symbol><symbol overflow="visible" id="B"><path d="M.563-4.219H1.75V.703h.938v-6.922h-.766c-.11.922-.406 1.282-1.36 1.328zm0 0"/></symbol><symbol overflow="visible" id="C"><path d="M2-6.25C.797-6.25.203-4.89.203-2.656.203-.437.797.906 2 .906c1.203 0 1.828-1.344 1.828-3.562C3.828-4.891 3.203-6.25 2-6.25zm0 .797c.547 0 .906 1.078.906 2.797C2.906-.97 2.546.109 2 .109c-.531 0-.875-1.078-.875-2.765 0-1.719.344-2.797.875-2.797zm0 0"/></symbol><symbol overflow="visible" id="E"><path d="M1.516-6.063l5.578 3.375L1.516.688zm0 0"/></symbol><symbol overflow="visible" id="F"><path d="M9.36.5C9 .453 8.374.469 8.155.61c-.219.156-.531.171-.781.171L5.172.797C5 .797 4.828.703 4.828.5V-.531c0-.406.219-.672-.328-.75a6.595 6.595 0 0 0-1.25-.047c-.938.094-.484.422-.156.484.469.078.625.188.625.563V.5c0 .703.547.828 1.14.828l4.407-.047c.718 0 .89-.593.093-.781zM4.562-3.64c.953-.141 1.968-.329 2.671-.516.454-.11.36-.516 0-.453-.375.062-.843.14-1.359.203.11-.157.203-.375.281-.61.235-.609.375-1.421.39-1.468.079-.344.516-.672-.155-.829a2.168 2.168 0 0 0-1.141.094c-.344.094-2.297.14-3.047.032-1.062-.079-.672.296-.437.406 1.437.734 1.453.281 2.109.218.016 0 1.063-.078 1.547-.078-.016.47-.047 1.032-.172 1.563-.063.281-.125.562-.14.766-.954.093-1.954.171-2.72.171-.39 0-.78-.015-1.124-.062-.922-.063-.782.297-.22.562 1.47.735 1.516.25 2.141.172.126-.015.235-.031.376-.047v.72c.015.733.124 1.327.39 1.312.36-.016.656-.797.625-1.829zm3.421 1.28v.454c.016.781.047 1.484.36 1.484.344-.016.64-.828.64-2l-.03-4.734c0-.532.25-.844-.173-1-.297-.11-1.14-.235-1.297-.25-.703-.047-.718.281-.296.469.546.218.75.328.75.78l.03 4.282c-.702.031-1.765.063-2.234.016-.843-.079-.578.28-.312.421 1.11.579 1.297.313 1.469.25.015-.015.296-.109.562-.14 0-.016.297-.016.531-.031zm0 0"/></symbol><symbol overflow="visible" id="G"><path d="M6.11-2.375l.015 2.313c0 .984.094 1.937.422 1.921.39-.015.687-1.015.656-2.546l-.016-1.704c.688 0 1.25.016 1.688.047.61.031 1.234.016 1.266-.36.03-.5-1.516-.562-2.391-.233-.328.109-2.078.078-2.563.078H2.876c-1.094 0-1.39-.063-2.047-.094-.61-.031-.937.203-.25.5 1.719.75 1.766.25 2.453.187 0 0 .063 0 .14-.015l.017 2c0 .984.078 1.922.421 1.922.375-.016.672-1.016.657-2.547L4.25-2.344c.375-.015.797-.031 1.344-.031zm.5-3.438c0 .782-.657 1.36-1.391 1.36-.735 0-1.39-.578-1.39-1.36 0-.78.655-1.343 1.39-1.343.734 0 1.39.562 1.39 1.343zm1.093.016c0-1.547-1.875-1.828-1.875-1.844-.016-.203.172-.203 0-.406-.187-.203-1.266-.312-1.281.031 0 .079.36.141.125.36 0 .031-1.938.312-1.938 1.86 0 1.234 1.266 2.03 2.485 2.03 1.234 0 2.484-.796 2.484-2.03zm0 0"/></symbol><symbol overflow="visible" id="H"><path d="M6.563-5.984c0 .734-.657 1.25-1.344 1.25-.688 0-1.36-.516-1.36-1.25 0-.735.688-1.25 1.36-1.25.687 0 1.343.515 1.343 1.25zm1.078 0c0-1.47-1.813-1.735-1.813-1.735-.016-.218.172-.203 0-.406-.187-.203-1.266-.297-1.281.047 0 .078.36.11.125.328 0 .031-1.875.297-1.875 1.766 0 1.218 1.25 1.906 2.422 1.906 1.203 0 2.422-.688 2.422-1.906zM5.766-1.531v-1.266c1.53 0 2.468-.015 3.187.047.625.031 1.266.016 1.281-.375.032-.516-1.53-.563-2.437-.25-.344.14-2.125.11-2.61.11H2.829c-1.031 0-1.437-.079-2.078-.126-.625-.03-.953.235-.266.532 1.797.78 1.844.25 2.5.187.032 0 .563-.062 1.688-.094v1.25c-.906.016-1.844 0-2.266-.062-.953-.11-.64.297-.39.422 1.515.812 1.593.25 2.296.218.016 0 2.313-.078 2.72-.093L7.061.5c.016.625.172 1.266.391 1.25.266 0 .64-.734.625-1.656V-.922c0-.344.375-.672-.234-.797-.344-.047-.703 0-1.078.11-.11.03-.5.062-1 .078zm0 0"/></symbol><symbol overflow="visible" id="ac"><path d="M5.703-2.516c1.531-.015 2.453-.015 3.172.016.61.047 1.234.031 1.266-.344.03-.5-1.516-.562-2.391-.25C7.422-2.969 5.672-3 5.187-3H2.876c-1.094 0-1.39-.063-2.047-.094-.61-.031-.937.203-.25.5 1.719.75 1.766.25 2.453.188.016 0 .516-.063 1.578-.094l.032 2.438c0 .984.109 1.937.453 1.921.406-.015.672-1.015.656-2.546zM5.078-5.25c1.094.297 3.031.844 3.344.938.765.218 1-.157.797-.438-.172-.188-.719-.453-1.094-.547-.39-.078-.484.031-.781-.016-.219-.015-.953-.187-1.625-.328A9.91 9.91 0 0 0 7.39-6.828c.671-.469.78-.86.171-1.016-.109-.031-.953-.093-1.171.032-.297.14-2.157.171-2.954.171-.5 0-1-.03-1.156-.062-.594-.063-.703.219-.265.469 1.03.578 1.265.343 1.546.265 0 0 .235-.093.485-.11.297-.03 1.5-.109 2.172-.124-1.407 1.25-3.516 2.484-5.11 2.875-.265.062-.203.484.532.344 1.203-.235 2.328-.672 3.437-1.266zm0 0"/></symbol><symbol overflow="visible" id="ad"><path d="M8.375.5c-.36-.047-1-.031-1.203.11C6.953.765 6.64.78 6.39.78L4.094.797C3.922.797 3.75.703 3.75.5V-.594c0-.39.219-.672-.328-.75a6.595 6.595 0 0 0-1.25-.047c-.938.11-.485.422-.156.485.468.094.625.187.625.562V.5c0 .703.562.828 1.14.828l4.485-.047c.734 0 .906-.593.109-.781zM5.078-5.828A85.16 85.16 0 0 0 8.25-4.344c.719.328 1.219-.031.719-.5-.235-.234-.672-.5-.922-.61-.39-.109-.453.032-.844-.077-.312-.11-1.187-.485-1.703-.719.14-.172.406-.469.531-.64.188-.282.39-.454-.031-.766-.281-.203-.906-.485-1.125-.5-.813-.078-.656.203-.375.36.422.234.438.39.344.577-.672 1.203-2.219 2.469-3.438 2.89-.36.126-.312.532.453.345.954-.25 2.22-.954 3.22-1.844zm-.094 3.312L5-1.453c.016.797.047 1.422.375 1.406.344-.015.64-.75.64-1.922v-.562c1.391 0 2.25-.016 2.938.031.625.047 1.266.031 1.281-.36.032-.515-1.53-.562-2.437-.25-.344.126-2.125.094-2.61.094H2.829c-1.031 0-1.437-.078-2.078-.109-.625-.031-.953.219-.266.516 1.797.796 1.844.265 2.5.203.032 0 .657-.094 2-.11zm0 0"/></symbol><symbol overflow="visible" id="ae"><path d="M3.703-4.719c.64.516 1.453 1.235 1.875 1.594.578.484.969.297.75-.266-.047-.109-.406-.687-.734-.937-.266-.14-.266-.016-.594-.188-.14-.078-.547-.375-.953-.671.281-.391.562-.875.766-1.235.156-.297.312-.437-.125-.766-.235-.187-.954-.484-1.157-.5-.703-.093-.625.172-.203.438.469.281.422.469.297.75C2.922-4.875 1.641-3.531.687-2.906c-.421.281-.062.531.579.219.937-.438 1.765-1.282 2.437-2.032zm4.14-2.437l.048 3.531c.015.797.078 1.328.359 1.313.297 0 .64-.641.64-1.782l-.03-3.062c0-.532.25-.844-.172-1-.297-.11-1.141-.235-1.297-.25-.72-.047-.72.281-.297.469.547.218.75.328.75.78zm.938 7.25l-.015-1.422c.015-.344.375-.672-.235-.797-.344-.047-.703 0-1.078.11-.344.093-3.453.156-4.328.03-.969-.109-.64.298-.406.423 1.531.812 1.61.25 2.312.218l2.688-.093L7.75.5c.016.625.172 1.266.406 1.25.266 0 .625-.734.625-1.656zm0 0"/></symbol><symbol overflow="visible" id="as"><path d="M4.094-4.906v1.562l-1.672.031v-1.546zm.968 1.484l.032-2.937c0-.282.14-.532-.25-.672-.313-.125-.875-.172-1.094-.172-.688.047-.5.328-.25.422.36.14.61.203.61.484l-.016.844-1.672.031-.016-.625c0-.297.125-.453-.265-.594-.313-.109-.829-.14-1.094-.156-.734.047-.469.344-.313.406.422.141.688.266.688.547l.016 2.594c.015.719.234.984.453.969.265-.031.484-.344.515-.469l1.719-.047c.031.11.156.375.406.375s.516-.484.532-1zM8.938.094l-.015-1.172c.015-.344.375-.672-.235-.797-.343-.047-.703 0-1.078.11-.343.093-3.75.156-4.625.03-.953-.093-.64.298-.39.423 1.531.812 1.61.25 2.312.218 0 0 2.563-.078 2.969-.093L7.906.5c.016.625.172 1.266.39 1.25.267 0 .642-.734.642-1.656zm-.906-4.219l.016.688c0 .796.062 1.39.328 1.39.297-.015.625-.781.625-1.906l-.031-3.203c0-.532.234-.844-.172-1-.281-.11-1.094-.235-1.25-.25-.688-.047-.703.281-.281.469.515.218.718.328.718.78l.032 2.438h-1l-.032-1.953c0-.531.25-.844-.156-1-.297-.11-1.11-.234-1.266-.25-.687-.047-.703.281-.28.469.515.219.734.328.734.781l.046 3.281c.016.782.063 1.391.344 1.375.282 0 .61-.765.61-1.89v-.219zm0 0"/></symbol><symbol overflow="visible" id="at"><path d="M7.719-.172c0 .64-.485 1.234-1.157 1.234-.703 0-1.187-.593-1.187-1.234 0-.687.5-1.266 1.188-1.266.671 0 1.156.594 1.156 1.266zM6.562 1.703c1.25 0 2.22-.781 2.22-1.875 0-1.516-1.673-1.719-1.673-1.734 0-.188.157-.172.016-.375-.156-.219-1.203-.297-1.203.015 0 .11.297.141.125.36 0 0-1.75.234-1.75 1.734 0 1.094 1 1.875 2.266 1.875zM3.61-4.64c.5.47 1.297 1.282 1.704 1.657.53.53 1 .312.78-.25-.046-.11-.39-.72-.718-.97-.25-.14-.234-.046-.563-.218-.14-.078-.53-.375-.859-.703.281-.39.61-.89.797-1.234.172-.297.328-.438-.11-.766-.25-.188-.952-.484-1.171-.516-.688-.078-.61.188-.203.454.468.265.421.453.296.734C2.891-4.828 1.641-3.5.688-2.875c-.422.266-.047.531.578.219.921-.469 1.718-1.25 2.343-1.985zM7.86-5.5c-.671.016-1.671.078-2.187 0-.844-.063-.578.297-.313.438 1.125.578 1.297.312 1.485.25.015-.016.281-.11.547-.141.015-.016.28-.016.484-.031l.016 1.734c.015.797.078 1.328.359 1.313.297 0 .64-.641.64-1.782l-.03-3.437c0-.532.25-.844-.172-1-.297-.11-1.141-.235-1.297-.25-.72-.047-.72.281-.297.469.547.218.75.328.75.78zm0 0"/></symbol><symbol overflow="visible" id="au"><path d="M5.39-3.797c0 .625-.5 1.094-1.124 1.094-.625 0-1.141-.469-1.141-1.094 0-.625.516-1.11 1.14-1.11.626 0 1.126.485 1.126 1.11zM3.72-5.78c-.031.031-.063.062-.063.11 0 .109.281.14.14.312-.015.015-1.702.14-1.702 1.609 0 1.11 1.14 1.703 2.172 1.703 1.015 0 2.171-.594 2.171-1.703 0-1.453-1.625-1.578-1.625-1.594.016-.156.172-.187 0-.36-.046-.046-.14-.077-.25-.109.891-.015 1.954 0 2.375.032.454 0 .657-.407.094-.64-.25-.11-1.062-.22-1.593 0-.422.155-1.844.155-2.407.155a13.262 13.262 0 0 1-1.39-.093c-.47-.063-1.047.078-.25.484 1.234.64 1.328.188 1.953.125.094-.016.219-.031.375-.031zm1.469-1.172c.718-.047.875-.64-.157-.672-.781-.016-1.093-.078-1.64-.156-.532-.094-.813.11-.438.36.438.296.735.468 1.016.484.36.03.703.03 1.219-.016zm2.718 5.172c-1.281.203-4.156.531-5.515.531-.391 0-.782-.031-1.125-.063-.922-.078-.797.313-.22.594 1.407.672 1.61.25 2.22.14 1.109-.077 3.375-.468 4.64-.718l.016 1.234c0 .985.047 1.938.375 1.922.406-.015.656-1.015.64-2.546l-.046-6.47c0-.53.25-.843-.172-1-.297-.109-1.14-.234-1.297-.25-.703-.046-.719.282-.297.47.547.218.75.328.75.78zm0 0"/></symbol><symbol overflow="visible" id="aI"><path d="M6.766-4.953c0 .86-.72 1.547-1.563 1.547-.86 0-1.578-.688-1.578-1.547 0-.86.719-1.547 1.578-1.547.844 0 1.563.688 1.563 1.547zM4.656-.766H2.875c-1.094 0-1.39-.062-2.047-.109-.61-.031-.937.219-.25.516 1.719.75 1.766.234 2.453.187.047 0 .844-.11 2.563-.11 1.593-.015 2.547-.03 3.281.016.61.032 1.234.032 1.266-.343.03-.516-1.516-.563-2.391-.25-.25.093-1.281.093-2 .093V-2.75c1.172-.219 2.14-1.047 2.14-2.188 0-1.796-2.077-2.046-2.077-2.078 0-.218.171-.187-.016-.406-.266-.328-1.328-.39-1.328.016 0 .093.39.14.156.39 0 .032-2.125.282-2.125 2.079 0 1.156.984 1.984 2.156 2.187zm0 0"/></symbol><symbol overflow="visible" id="aJ"><path d="M5.703-2.984c1.531-.016 2.453-.032 3.172 0 .61.046 1.234.03 1.266-.344.03-.5-1.516-.563-2.391-.235a1.813 1.813 0 0 1-.516.063c.188-.25.36-.656.516-1.125.328-.969.594-2.156.61-2.234.062-.36.515-.672-.172-.829-.329-.078-.813-.03-1.141.094-.36.11-4.031.188-4.922.063-.844-.078-.594.281-.328.406 1.516.781 1.64.313 2.266.234.015 0 2.656-.109 3.125-.125-.079.86-.157 1.47-.36 2.344-.125.5-.281.938-.281 1.219H2.875c-1.094.015-1.39-.047-2.047-.078-.61-.031-.937.203-.25.5 1.719.734 1.766.234 2.453.172.016 0 .516-.063 1.578-.094l.032 2.89c0 .985.093 1.938.437 1.922.39-.015.688-1.015.672-2.546zm0 0"/></symbol><symbol overflow="visible" id="aK"><path d="M8.938.094l-.016-1.14c.015-.345.375-.673-.235-.782-.343-.063-.703 0-1.078.094-.343.093-3.75.156-4.625.03-.953-.093-.64.298-.39.423 1.531.812 1.61.25 2.312.218 0 0 2.563-.078 2.969-.093L7.906.5c.016.625.172 1.266.39 1.25.267 0 .642-.734.642-1.656zm-.907-4.25l.016.75c0 .797.062 1.39.328 1.39.297-.015.625-.78.625-1.906l-.031-3.234c0-.532.234-.844-.172-1-.281-.11-1.094-.235-1.25-.25-.688-.047-.703.281-.281.469.515.218.718.328.718.78l.032 2.407H6.937l-.015-1.922c0-.531.234-.844-.172-1-.281-.11-1.094-.234-1.25-.25-.688-.047-.703.281-.281.469.515.219.718.328.718.781l.047 2.813c-.906.265-2.234.515-3.015.562-.188.016-.328-.047-.328-.281v-.813c.453 0 1.609 0 2-.046.734-.094.765-.672.109-.766-.422-.047-.953-.047-1.297.172-.187.156-.578.125-.812.11v-1.173c.312 0 1.625 0 2.062-.047.719-.093.75-.671.11-.75-.438-.062-.97-.062-1.297.157-.235.171-.672.109-.875.093-.532-.078-1.204-.14-1.516-.109-.781.125-.453.438-.188.5.485.094.672.125.672.531v2.422c0 .688.266.844.86.813 1-.047 2.594-.5 3.531-.907v.032c.016.78.063 1.39.344 1.375.281 0 .61-.766.61-1.891v-.281zm0 0"/></symbol><symbol overflow="visible" id="I"><path d="M4.328-2.39c0-.47-.39-.86-.844-.86-.453 0-.828.39-.828.86 0 .468.375.859.828.859.454 0 .844-.39.844-.86zm0 0"/></symbol><symbol overflow="visible" id="J"><path d="M6.703-1.75v-.422H.25v.422h3.063v1.64h.5v-1.64zm-.64 2.813V.625H1.625V-1h-.484v2.063zm-.75-4.516H1.624v-.969h3.688zm-4.172.422h4.671v-2.766h-.5v.953H1.626v-.953h-.484zm0 0"/></symbol><symbol overflow="visible" id="K"><path d="M.656-4.984h1.547v.562c0 .828-.187 1.578-.547 2.234A4.476 4.476 0 0 1 .11-.577a3 3 0 0 1 .485.36c.39-.298.812-.704 1.14-1.173.344-.468.61-.968.72-1.437.202.547.468 1.031.827 1.453.328.36.688.688 1.078.953.094-.11.282-.281.407-.39-.704-.422-1.22-.907-1.563-1.5C2.891-2.86 2.72-3.5 2.72-4.266v-.718h1.61v-.438H.655zm4.61-.891v7.094h.515v-3.844H6.86v-.453H5.781v-2.797zm0 0"/></symbol><symbol overflow="visible" id="L"><path d="M3.813 1.344c1.484 0 2.39-.594 2.39-1.407 0-.812-.906-1.421-2.39-1.421-1.5 0-2.407.609-2.407 1.421 0 .813.907 1.407 2.407 1.407zM1.921-.063c0-.64.828-1 1.89-1 1.047 0 1.876.36 1.876 1 0 .625-.829 1-1.875 1-1.063 0-1.891-.375-1.891-1zM6.156-1.53v-4.344h-.5v1.75h-.953V-5.75h-.5v3.969h.5v-1.89h.953v2.14zM2.313-4.97v-.672h-.5v.657c0 .656-.125 1.171-.375 1.593-.266.454-.672.829-1.22 1.157.126.109.329.265.438.359.39-.281.672-.531.906-.828.204-.266.36-.578.5-.985.126.36.344.672.594.938.25.281.547.484.844.656.11-.14.234-.281.36-.406-.47-.203-.876-.516-1.141-.953-.266-.406-.406-.922-.406-1.516zm0 0"/></symbol><symbol overflow="visible" id="M"><path d="M5.969 1.125v-.39H1.656v-.829h4.157v-1.562H3.719v-.797h2.984v-.406H.25v.406h2.969v.797H1.14v.406h4.156v.766H1.14v1.609zM5.312-4H1.626v-1.25h3.688zm-4.171.406h4.671v-2.062H1.141zm0 0"/></symbol><symbol overflow="visible" id="N"><path d="M3.563-5.453v-.422H1.469v.422zm.984 1.047v-.422H.53v.422zm-2.016.468C1.5-3.938.844-3.421.844-2.766c0 .641.656 1.157 1.687 1.157 1.063 0 1.703-.516 1.703-1.157 0-.656-.625-1.171-1.703-1.171zM1.36-2.78c0-.438.422-.735 1.172-.735.766 0 1.172.297 1.172.735 0 .453-.406.765-1.172.765-.75 0-1.172-.312-1.172-.765zM6.938-3.5v-.438H5.921v-1.937h-.5v4.547h.5V-3.5zM5.921 1.266V-.97h-4.5v.438h4.016v1.797zm0 0"/></symbol><symbol overflow="visible" id="P"><path d="M3.844-2.172v-3.437h-.469v1.296H1.203v-1.296H.734v3.437zm-.469-.422H1.203V-3.89h2.172zm2.469 3.86V-1.25H1.328v.438H5.36v2.078zm1-5.094v-.438h-1V-5.89h-.5v4.266h.5v-2.203zm0 0"/></symbol><symbol overflow="visible" id="Q"><path d="M2.64-4.266v-1.28h-.515v1.124c0 .828-.188 1.578-.547 2.234A4.476 4.476 0 0 1 .031-.577a3 3 0 0 1 .485.36c.39-.298.796-.704 1.14-1.173.344-.468.61-.968.719-1.437.203.547.484 1.031.828 1.453.328.36.688.688 1.078.953.094-.11.282-.281.407-.39-.704-.422-1.22-.907-1.563-1.5-.313-.547-.484-1.188-.484-1.954zm2.657-1.609v7.094h.516v-3.844h1.093v-.453H5.813v-2.797zm0 0"/></symbol><symbol overflow="visible" id="R"><path d="M6.078 1.219v-7.094h-.5v2.172H3.922v.453h1.656v4.469zm-3.36-5.485v-1.28h-.515v1.124c0 .828-.187 1.578-.547 2.234A4.476 4.476 0 0 1 .11-.577a3 3 0 0 1 .485.36c.39-.298.812-.704 1.14-1.173.344-.468.61-.968.72-1.437.202.547.468 1.031.827 1.453.328.36.688.688 1.078.953.094-.11.282-.281.407-.39-.704-.422-1.22-.907-1.563-1.5C2.891-2.86 2.72-3.5 2.72-4.266zm0 0"/></symbol><symbol overflow="visible" id="S"><path d="M3.469-3.453c1.578 0 2.422-.516 2.422-1.219 0-.656-.844-1.25-2.422-1.25-1.547 0-2.422.547-2.422 1.25s.875 1.219 2.422 1.219zm0-.375c-1.125 0-1.906-.328-1.906-.844 0-.547.765-.875 1.906-.875 1.125 0 1.922.344 1.922.875 0 .516-.797.844-1.922.844zm2.5 4.953v-.39H1.656V-.11h4.157v-1.594H3.719v-.766h2.984v-.406H.25v.406h2.969v.766H1.14v.406h4.156v.781H1.14v1.641zm0 0"/></symbol><symbol overflow="visible" id="T"><path d="M.89-5.36v4.735c.032 0 .704.016 1.376-.016a17.88 17.88 0 0 0 1.562-.156v-.453c-.297.047-1.094.14-1.484.14l-.969.032v-3.86h1.906v-.421zM6.157 1.22v-7.094h-.5v2.703H4.625V-5.75h-.5V.875h.5v-3.578h1.031v3.922zm0 0"/></symbol><symbol overflow="visible" id="U"><path d="M6.719.234v-.421H4.062v-2.735h-.484v2.735H2.313v-2.735h-.47v2.735H.235v.421zM1.047-5.453v.437h4.375c-.047 1.094-.266 2.516-.5 3.735h.516c.28-1.344.421-2.828.5-4.172zm0 0"/></symbol><symbol overflow="visible" id="V"><path d="M3.797 1.36C5.359 1.36 6.203.78 6.203.015c0-.782-.844-1.36-2.406-1.36-1.563 0-2.39.578-2.39 1.36 0 .765.827 1.343 2.39 1.343zM1.89.015c0-.61.796-.954 1.906-.954 1.11 0 1.906.36 1.906.954 0 .578-.797.937-1.89.937C2.687.953 1.89.578 1.89.016zm1.593-2.61H1.313v-1.375h2.171zm.47-.75v-.984h1.64v.984zm1.64.422v1.485h.5v-4.438h-.5v1.125h-1.64v-.86h-.47v1.22H1.313v-1.22h-.47v3.423h3.11v-.735zm0 0"/></symbol><symbol overflow="visible" id="W"><path d="M2.766-3.328c1.046 0 1.687-.594 1.687-1.281 0-.672-.625-1.282-1.687-1.282-1.047 0-1.688.61-1.688 1.282 0 .687.64 1.28 1.688 1.28zm.015-.406c-.828 0-1.234-.47-1.234-.875 0-.422.39-.891 1.219-.891.828 0 1.218.469 1.218.89 0 .407-.39.876-1.203.876zM6.187-.406v-5.469h-.5v4.172h-1.75v.406h1.75v.89zm.157 1.453V.625H2.187v-1.36h-.515v1.782zm-.89-4c-.407.078-1.798.203-2.798.203l-2.172.016v.421h1.704v1.22h.484v-1.235c.875 0 2.203-.11 2.781-.188zm0 0"/></symbol><symbol overflow="visible" id="X"><path d="M.969-3.89c0 .937.75 1.734 1.797 1.734 1.03 0 1.78-.797 1.78-1.735 0-.953-.75-1.718-1.78-1.718-1.047 0-1.797.765-1.797 1.718zm.484 0c0-.72.484-1.297 1.313-1.297.812 0 1.28.578 1.28 1.296 0 .72-.468 1.282-1.28 1.282-.829 0-1.313-.563-1.313-1.282zm4.703 5.109v-7.094h-.5v7.094zm-.734-2.36c-.61.11-2.563.235-3.156.235H.546v.437h1.47c1.437 0 2.78-.14 3.406-.219zm0 0"/></symbol><symbol overflow="visible" id="Y"><path d="M1.39-.047c0 .766.829 1.406 2.407 1.406S6.203.734 6.203-.047c0-.781-.828-1.406-2.406-1.406-1.578 0-2.406.625-2.406 1.406zm.5 0c0-.594.782-.984 1.923-.984 1.093 0 1.874.39 1.874.984 0 .61-.78 1-1.875 1-1.14 0-1.921-.39-1.921-1zm2.063-4.406h1.64v.922h-1.64zm0 2.14v-.796h1.64v1.562h.5v-4.328h-.5v1h-1.64v-.656H.843v3.218zm-.469-.421H1.313V-5.11h2.171zm0 0"/></symbol><symbol overflow="visible" id="Z"><path d="M6.313 1.063V.625H2.125V-1.25h-.5v2.313zM2.358-2.531c-.812 0-1.28-.625-1.28-1.406 0-.797.468-1.407 1.28-1.407.829 0 1.282.61 1.282 1.407 0 .78-.454 1.406-1.282 1.406zm1.704-.813c.062-.187.093-.39.093-.594 0-.218-.047-.421-.11-.609h1.548v1.203zm2.03 2.75v-5.281h-.5v.89H3.86a1.774 1.774 0 0 0-1.5-.812c-1.062 0-1.796.844-1.796 1.86 0 1.015.734 1.859 1.796 1.859a1.78 1.78 0 0 0 1.516-.828h1.719v2.312zm0 0"/></symbol><symbol overflow="visible" id="aa"><path d="M5.578-2.406c.14-.828.266-2.188.313-3.188H1.016v.422h4.359c-.063.938-.14 1.797-.313 2.766H.234v.422h2.907v3.203h.515v-3.203H6.72v-.422zm0 0"/></symbol><symbol overflow="visible" id="ab"><path d="M6.703-1.484v-.422H.25v.422h3v2.703h.516v-2.703zm-2.969-3.86v-.343h-.53v.343c0 .594-.329 1.094-.845 1.469-.484.344-1.125.594-1.796.75.14.11.312.313.39.406a5.21 5.21 0 0 0 1.485-.64A2.952 2.952 0 0 0 3.484-4.5c.204.484.594.86 1.032 1.14A5.024 5.024 0 0 0 6-2.718c.11-.14.219-.297.36-.422-.61-.14-1.298-.39-1.798-.78-.5-.36-.828-.845-.828-1.423zm0 0"/></symbol><symbol overflow="visible" id="af"><path d="M6.094-1.563v-4.312h-.5v1.078H4.25v.422h1.344v1.11H4.03v.421h1.563v1.281zM3.859 1.345c1.5 0 2.36-.594 2.36-1.407 0-.812-.86-1.421-2.36-1.421-1.468 0-2.359.609-2.359 1.421 0 .813.89 1.407 2.36 1.407zM2.016-.063c0-.64.828-1 1.843-1 1.047 0 1.86.36 1.86 1 0 .625-.828 1-1.86 1-1.015 0-1.843-.375-1.843-1zM.89-5.53v.422h2.593a2.914 2.914 0 0 1-.89 1.687c-.578.563-1.36.953-2.172 1.188.14.125.297.265.39.39.922-.297 1.72-.781 2.297-1.453.516-.578.844-1.328.938-2.234zm0 0"/></symbol><symbol overflow="visible" id="ag"><path d="M5 .875V-5.75h-.5v2.234H3.219v.454H4.5V.874zm1.36.344v-7.094h-.5v7.094zM.765-4.938H2v.5c0 .907-.125 1.688-.438 2.375A3.776 3.776 0 0 1 .188-.452c.157.094.391.219.5.312.344-.265.704-.656.985-1.078.266-.422.484-.86.562-1.297.11.422.297.829.547 1.188.25.375.578.703.89.89.095-.109.267-.25.407-.343-.562-.328-.953-.813-1.203-1.438-.234-.562-.36-1.25-.36-2.031v-.688H3.72v-.421H.766zm0 0"/></symbol><symbol overflow="visible" id="ah"><path d="M6.094 1.14v-2.874h-.5v.921H2.109v-.921h-.5V1.14zm-.5-.421H2.109V-.406h3.485zm-1.64-3.125V-4h1.64v1.922h.5v-3.797h-.5v1.438h-1.64V-5.61h-.47v1.125H1.313V-5.61h-.47v3.203zm-.47-.422H1.313v-1.235h2.171zm0 0"/></symbol><symbol overflow="visible" id="ai"><path d="M5.813-2.938v-2.656H1.14v2.657zm-.5-.421H1.64v-1.813h3.671zm1.39 1.968v-.437H.25v.437h3v2.61h.516v-2.61zm0 0"/></symbol><symbol overflow="visible" id="aj"><path d="M6.313 1.063V.625H2.125V-1.25h-.5v2.313zM2.358-2.063c1.047 0 1.797-.829 1.797-1.844 0-1.031-.75-1.86-1.797-1.86-1.062 0-1.796.829-1.796 1.86 0 1.015.734 1.844 1.796 1.844zm0-.454c-.812 0-1.28-.609-1.28-1.39 0-.797.468-1.422 1.28-1.422.829 0 1.282.625 1.282 1.422 0 .781-.454 1.39-1.282 1.39zm3.235-3.359v5.266h.5v-5.266zm0 0"/></symbol><symbol overflow="visible" id="ak"><path d="M2.063 1.578C1.313.203.952-.969.952-2.39c0-1.421.36-2.578 1.11-3.953h-.329c-.53.875-1.25 2.157-1.25 3.953 0 1.797.72 3.063 1.25 3.97zm0 0"/></symbol><symbol overflow="visible" id="al"><path d="M6.703-1.39v-.438H.25v.437h1.797v2.547h.5V-1.39h1.86v2.61h.5v-2.61zM1.016-4.204c0 .906.937 1.594 2.453 1.594 1.547 0 2.469-.688 2.469-1.594 0-.906-.922-1.594-2.47-1.594-1.53 0-2.452.688-2.452 1.594zM3.469-3C2.375-3 1.53-3.453 1.53-4.203c0-.766.844-1.203 1.938-1.203 1.094 0 1.937.453 1.937 1.218C5.406-3.453 4.563-3 3.47-3zm0 0"/></symbol><symbol overflow="visible" id="am"><path d="M6.938-3.328v-.438H5.921v-2.109h-.484v5.266h.484v-2.72zm-.766 4.39V.625H2.109V-.969h-.5v2.031zm-2.61-6.515v-.422H1.47v.422zm.985 1.078v-.422H.53v.422zm-2.016.469C1.5-3.906.844-3.36.844-2.703c0 .64.656 1.187 1.687 1.187 1.063 0 1.703-.546 1.703-1.187 0-.656-.625-1.203-1.703-1.203zM1.36-2.72c0-.437.422-.765 1.172-.765.766 0 1.172.328 1.172.765 0 .453-.406.797-1.172.797-.75 0-1.172-.344-1.172-.797zm0 0"/></symbol><symbol overflow="visible" id="an"><path d="M.719-6.344H.39c.75 1.375 1.125 2.532 1.125 3.953C1.516-.969 1.14.203.39 1.58h.328c.531-.907 1.25-2.173 1.25-3.97 0-1.796-.719-3.062-1.25-3.953zm0 0"/></symbol><symbol overflow="visible" id="ao"><path d="M6.703-2.484v-.407H.25v.407h1.86v.828h-.97v.406h4.157v.766H1.14v1.609h4.828v-.39H1.656v-.829h4.157v-1.562h-.97v-.828zm-2.344.828H2.61v-.828h1.75zm-.89-1.797c1.578 0 2.422-.516 2.422-1.219 0-.656-.844-1.25-2.422-1.25-1.547 0-2.422.547-2.422 1.25s.875 1.219 2.422 1.219zm0-.375c-1.125 0-1.906-.328-1.906-.844 0-.547.765-.875 1.906-.875 1.125 0 1.922.344 1.922.875 0 .516-.797.844-1.922.844zm0 0"/></symbol><symbol overflow="visible" id="ap"><path d="M6.703-1.39v-.423H3.734V-2.89H3.22v1.079H.25v.421zm-.64 2.452V.641H1.625V-.844h-.484v1.906zM4.734-5.484v-.422h-2.53v.422zM1.047-4.375h2.14c-.062.39-.359.672-.796.906-.485.25-1.141.422-1.766.531.125.126.266.282.344.391.578-.125 1.11-.265 1.547-.484.39-.203.718-.469.968-.828.313.484.782.78 1.297.984.407.14.828.234 1.188.328.125-.14.218-.25.36-.39-.532-.079-1.11-.22-1.579-.438-.516-.234-.906-.547-.984-1h2.14v-.406h-4.86zm0 0"/></symbol><symbol overflow="visible" id="aq"><path d="M1.047-5.453v.437h4.328c-.031 1.094-.25 2.532-.484 3.75h.515c.266-1.343.422-2.843.485-4.187zM6.719.234v-.421H3.203V-2.97h-.5v2.781H.234v.422zm0 0"/></symbol><symbol overflow="visible" id="ar"><path d="M6.703-1.781v-.438H.25v.438h3.063v1.625h.5v-1.625zm-.64 2.843V.625H1.625V-1h-.484v2.063zm-.75-4.671H1.624v-1.625h3.688zm-4.172.421h4.671v-2.468H1.141zm0 0"/></symbol><symbol overflow="visible" id="av"><path d="M.656-3c0 .984.235 1.656.547 2.078.328.422.734.61 1.125.61.39 0 .797-.188 1.11-.61.328-.422.546-1.094.546-2.078 0-.984-.218-1.656-.546-2.078-.329-.422-.735-.594-1.11-.594-.36 0-.781.156-1.11.578C.907-4.672.657-4 .657-3zm.485 0c0-1.172.421-2.25 1.187-2.25S3.5-4.172 3.5-3c0 1.188-.406 2.25-1.172 2.25-.765 0-1.187-1.047-1.187-2.25zm4.421-2.875v7.094h.5v-7.094zm0 0"/></symbol><symbol overflow="visible" id="aw"><path d="M3.906-1.86c.203-1.062.328-2.671.344-3.577H.703v.421h3.031c0 1-.171 2.36-.312 3.157zm1.172.844c-.578.125-2.25.204-2.844.22v-2.5H1.75v2.5H.328v.437h1.266c1.156 0 2.797-.125 3.484-.22zm.234-4.859v7.094h.516V-2.47H6.86v-.453H5.83v-2.953zm0 0"/></symbol><symbol overflow="visible" id="ax"><path d="M5.813-2.578v-3.125h-.5v1H1.64v-1h-.5v3.125zM5.313-3H1.64v-1.297h3.671zm1.39 1.766v-.422H.25v.422h3v2.453h.516v-2.453zm0 0"/></symbol><symbol overflow="visible" id="ay"><path d="M4.828-5.39v-.438H2.11v.437zm1.266.984v-.438H.844v.438zM1.266-2.938c0 .594.89 1.047 2.187 1.047 1.297 0 2.188-.453 2.188-1.046 0-.594-.891-1.032-2.188-1.032-1.297 0-2.187.438-2.187 1.031zm.578 0c0-.421.734-.624 1.61-.624.89 0 1.624.203 1.624.624 0 .422-.734.641-1.625.641-.875 0-1.61-.219-1.61-.64zM6.704-.89v-.421H.25v.421h3v2.11h.516v-2.11zm0 0"/></symbol><symbol overflow="visible" id="az"><path d="M6.094-1.547v-4.328h-.5v1.438H3.937V-4h1.657v2.453zm-2.235 2.89c1.5 0 2.36-.593 2.36-1.405 0-.813-.86-1.422-2.36-1.422-1.468 0-2.359.609-2.359 1.421 0 .813.89 1.407 2.36 1.407zM2.016-.061c0-.641.828-1 1.843-1 1.047 0 1.86.359 1.86 1 0 .625-.828 1-1.86 1-1.015 0-1.843-.375-1.843-1zm.703-4.922v-.704h-.516V-5c0 .672-.219 1.203-.547 1.64-.36.454-.86.782-1.437 1.047.125.094.328.266.437.36.406-.203.797-.453 1.11-.766.296-.312.546-.672.687-1.094.219.438.547.782.89 1.063.313.234.641.422.954.563.094-.126.219-.282.36-.407-.5-.172-1-.453-1.36-.86-.36-.39-.578-.89-.578-1.53zm0 0"/></symbol><symbol overflow="visible" id="aA"><path d="M6.172-.61v-5.265h-.5v1.656H4.094v.438h1.578V-.61zm.219 1.672V.625H2.203V-1.25h-.5v2.313zM.797-5.109H2.28v.375a2.82 2.82 0 0 1-.531 1.687c-.36.469-.875.844-1.453 1.11.125.093.328.265.437.359.407-.234.782-.5 1.094-.828.313-.328.563-.719.703-1.156.188.39.438.703.735.984.359.328.75.594 1.109.765.094-.14.234-.28.36-.406a3.162 3.162 0 0 1-1.329-.906 2.444 2.444 0 0 1-.61-1.61v-.374H4.25v-.422H.797zm0 0"/></symbol><symbol overflow="visible" id="aB"><path d="M6.719.234v-.421H3.203v-1.954h-.5v1.954H.234v.421zm-5.64-5.687v.422h4.296c-.016.39-.078.922-.125 1.375-1.188.11-4.125.094-4.281.094v.406c.14 0 2.906.015 4.234-.078a39.138 39.138 0 0 1-.312 1.953h.515c.266-1.344.422-2.828.485-4.172zm0 0"/></symbol><symbol overflow="visible" id="aC"><path d="M1.125-2.078h4.844V-2.5H1.625v-2.516h4.266v-.437H1.125zM6.719.172v-.438H.234v.438zm0 0"/></symbol><symbol overflow="visible" id="aD"><path d="M4.906-1.578v-.438h-2.36v.438zm.688-4.297v4.047h.5v-4.047zM3.954-2.75v-2.781H.843v2.781zm-.47-.406H1.313v-1.969h2.171zm2.532 4.36c.062-.079.28-.282.359-.391C5.812.734 5.25.593 4.828.343c-.39-.202-.672-.5-.828-.89h2.14v-.422H1.407v.422h2.078c-.14.422-.437.719-.859.938-.406.203-.922.343-1.484.421.093.125.296.282.375.391.437-.078.89-.203 1.28-.406.376-.203.72-.469.985-.828.235.375.578.64.953.844.391.187.829.312 1.282.39zm0 0"/></symbol><symbol overflow="visible" id="aE"><path d="M6.344 1.125V.703h-4.14v-.828h3.968v-1.672H1.688v.422h3.968v.813H1.688v1.687zm-.672-7.016v3.735h.5v-3.735zm-4.875.75h1.547v.125c0 .625-.219 1.11-.578 1.5-.375.407-.907.688-1.516.907.14.093.36.234.469.328.453-.219.86-.453 1.219-.766.265-.234.484-.547.671-.969.235.454.563.766.907.985.328.219.671.39 1 .531.109-.125.25-.25.375-.36a3.612 3.612 0 0 1-1.454-.796C3.079-4.016 2.86-4.453 2.86-5v-.14h1.516v-.423H.797zm0 0"/></symbol><symbol overflow="visible" id="aF"><path d="M5.203-1.797c-.562.094-1.812.188-2.234.188v-.672c.844-.078 1.375-.485 1.375-.938 0-.547-.672-.984-1.657-.984-.968 0-1.656.437-1.656.969 0 .468.547.89 1.422.953v.672H.391v.406h2.5c.921 0 1.828-.125 2.312-.188zm-3.64-1.437c0-.36.437-.594 1.125-.594.703 0 1.124.234 1.124.594 0 .359-.421.593-1.124.593-.688 0-1.126-.234-1.126-.593zm4.609 4.296V.625H2.078V-.703h-.5v1.765zm.766-4.187v-.438H5.921v-2.312h-.5v5.469h.5v-2.719zM3.655-5.5v-.39H1.703v.39zm.953.938v-.391H.72v.39zm0 0"/></symbol><symbol overflow="visible" id="aG"><path d="M6.844-3.719v-.437h-1v-1.719h-.5v5.281h.5v-3.125zm-.766 4.781V.625H2V-1.25h-.5v2.313zM1.25-5.109h2.719v-.422H.766v3.343c.062 0 1.093 0 1.859-.03.89-.032 1.938-.157 2.438-.282v-.438c-.485.126-1.782.266-2.594.282l-1.219.031zm0 0"/></symbol><symbol overflow="visible" id="aH"><path d="M6.953-3.797v-.437H5.922v-1.641h-.484v4.328h.484v-2.25zM1.453-.03c0 .765.781 1.375 2.344 1.375 1.515 0 2.297-.625 2.297-1.375s-.782-1.375-2.297-1.375c-1.563 0-2.344.656-2.344 1.375zm.516.015c0-.578.718-.984 1.828-.984 1.062 0 1.781.406 1.781.984 0 .516-.719.97-1.781.97-1.11 0-1.828-.423-1.828-.97zM.797-5.109H2.28v.171c0 .657-.203 1.188-.531 1.61-.344.469-.86.812-1.453 1.078.125.094.328.234.437.328a4.39 4.39 0 0 0 1.125-.781c.297-.297.532-.656.672-1.078.188.375.453.687.735.937.359.297.75.516 1.109.703.094-.14.234-.265.36-.375-.516-.187-1.016-.484-1.391-.906-.344-.39-.547-.89-.547-1.5v-.187H4.25v-.422H.797zm0 0"/></symbol><symbol overflow="visible" id="aL"><path d="M3.625-5.297v-.437h-2v.437zm.938 1.156v-.437H.719v.437zM5.171-.75c-.563.094-1.688.14-2.25.156v-.89c.828-.079 1.36-.563 1.36-1.11 0-.594-.673-1.14-1.61-1.14-.953 0-1.61.53-1.61 1.14 0 .563.516 1.047 1.36 1.125v.89H.39v.423h2.25c.953 0 1.984-.11 2.53-.172zm-3.64-1.844c0-.422.468-.734 1.14-.734.672 0 1.125.312 1.125.734 0 .438-.453.719-1.125.719-.672 0-1.14-.281-1.14-.719zm3.874-3.281v7.094h.5V-2.47h1.047v-.453H5.906v-2.953zm0 0"/></symbol><symbol overflow="visible" id="aM"><path d="M3.766-4.406c-.141-.469-.375-.782-.641-.985a1.244 1.244 0 0 0-.797-.28c-.36 0-.781.155-1.11.577C.907-4.672.657-4 .657-3c0 .984.235 1.656.547 2.078.328.422.734.61 1.125.61.266 0 .563-.094.828-.297a2.16 2.16 0 0 0 .625-1h1.781v2.828h.5v-7.094h-.5v1.469zm1.796.437v1.922H3.875c.078-.281.11-.594.11-.953 0-.375-.032-.703-.11-.969zM1.141-3c0-1.172.421-2.25 1.187-2.25S3.5-4.172 3.5-3c0 1.188-.406 2.25-1.172 2.25-.765 0-1.187-1.047-1.187-2.25zm0 0"/></symbol></defs><g fill="#393536"><use xlink:href="#a" x="535.245" y="48.426"/><use xlink:href="#b" x="540.818" y="48.426"/><use xlink:href="#c" x="546.392" y="48.426"/></g><g fill="#4f4c4d"><use xlink:href="#d" x="336.467" y="47.727"/><use xlink:href="#e" x="344.467" y="47.727"/><use xlink:href="#f" x="352.468" y="47.727"/><use xlink:href="#g" x="360.468" y="47.727"/><use xlink:href="#h" x="368.468" y="47.727"/><use xlink:href="#i" x="371.075" y="47.727"/><use xlink:href="#j" x="379.075" y="47.727"/><use xlink:href="#k" x="387.076" y="47.727"/><use xlink:href="#l" x="395.076" y="47.727"/><use xlink:href="#m" x="403.076" y="47.727"/><use xlink:href="#n" x="411.076" y="47.727"/><use xlink:href="#d" x="419.077" y="47.727"/><use xlink:href="#e" x="427.077" y="47.727"/></g><use xlink:href="#o" x="435.076" y="47.727" fill="#231f20"/><g fill="#231f20"><use xlink:href="#p" x="437.683" y="47.727"/><use xlink:href="#q" x="445.683" y="47.727"/><use xlink:href="#r" x="453.684" y="47.727"/><use xlink:href="#s" x="461.684" y="47.727"/><use xlink:href="#t" x="469.684" y="47.727"/><use xlink:href="#u" x="477.684" y="47.727"/><use xlink:href="#v" x="485.685" y="47.727"/><use xlink:href="#w" x="493.685" y="47.727"/><use xlink:href="#x" x="496.292" y="47.727"/><use xlink:href="#y" x="501.703" y="47.727"/><use xlink:href="#z" x="506.503" y="47.727"/><use xlink:href="#A" x="508.436" y="47.727"/><use xlink:href="#w" x="511.043" y="47.727"/><use xlink:href="#B" x="513.65" y="47.727"/><use xlink:href="#C" x="517.605" y="47.727"/></g><g clip-path="url(#D)"><path d="M-610.125 410.852H620.031" fill="none" stroke-width=".499395" stroke="#cabfbb" stroke-dasharray="2.003,2.003"/></g><use xlink:href="#E" x="384.336" y="636.174" fill="#8a8e98"/><g fill="#33459a"><use xlink:href="#F" x="393.84" y="636.774"/><use xlink:href="#G" x="405.815" y="636.774"/><use xlink:href="#H" x="417.791" y="636.774"/></g><g fill="#231f20"><use xlink:href="#I" x="384.336" y="653.358"/><use xlink:href="#J" x="391.234" y="653.358"/><use xlink:href="#K" x="398.132" y="653.358"/><use xlink:href="#L" x="405.03" y="653.358"/><use xlink:href="#M" x="411.928" y="653.358"/><use xlink:href="#N" x="418.826" y="653.358"/><use xlink:href="#O" x="425.724" y="653.358"/><use xlink:href="#P" x="427.971" y="653.358"/><use xlink:href="#Q" x="434.869" y="653.358"/></g><use xlink:href="#I" x="384.336" y="665.76" fill="#231f20"/><use xlink:href="#O" x="391.234" y="665.76" fill="#231f20"/><use xlink:href="#O" x="391.234" y="665.76" fill="#231f20"/><g fill="#231f20"><use xlink:href="#R" x="391.234" y="665.76"/><use xlink:href="#S" x="398.132" y="665.76"/><use xlink:href="#T" x="405.03" y="665.76"/><use xlink:href="#N" x="411.928" y="665.76"/><use xlink:href="#U" x="418.826" y="665.76"/><use xlink:href="#V" x="425.724" y="665.76"/><use xlink:href="#W" x="432.622" y="665.76"/><use xlink:href="#O" x="439.52" y="665.76"/><use xlink:href="#X" x="441.768" y="665.76"/><use xlink:href="#L" x="448.666" y="665.76"/><use xlink:href="#Y" x="455.564" y="665.76"/><use xlink:href="#Z" x="462.462" y="665.76"/><use xlink:href="#aa" x="469.36" y="665.76"/><use xlink:href="#W" x="476.258" y="665.76"/><use xlink:href="#O" x="483.156" y="665.76"/><use xlink:href="#U" x="485.403" y="665.76"/><use xlink:href="#ab" x="492.301" y="665.76"/></g><use xlink:href="#E" x="210.5" y="639.673" fill="#8a8e98"/><g fill="#33459a"><use xlink:href="#ac" x="220.004" y="640.272"/><use xlink:href="#ad" x="231.979" y="640.272"/><use xlink:href="#ae" x="243.955" y="640.272"/></g><g fill="#231f20"><use xlink:href="#I" x="210.5" y="656.856"/><use xlink:href="#af" x="217.398" y="656.856"/><use xlink:href="#ag" x="224.296" y="656.856"/><use xlink:href="#N" x="231.194" y="656.856"/><use xlink:href="#O" x="238.092" y="656.856"/><use xlink:href="#P" x="240.34" y="656.856"/><use xlink:href="#Q" x="247.238" y="656.856"/></g><g fill="#231f20"><use xlink:href="#I" x="210.5" y="669.258"/><use xlink:href="#ah" x="217.398" y="669.258"/><use xlink:href="#ai" x="224.296" y="669.258"/><use xlink:href="#ah" x="231.194" y="669.258"/><use xlink:href="#aj" x="238.092" y="669.258"/><use xlink:href="#ak" x="244.99" y="669.258"/><use xlink:href="#al" x="247.431" y="669.258"/><use xlink:href="#am" x="254.329" y="669.258"/><use xlink:href="#an" x="261.227" y="669.258"/><use xlink:href="#O" x="263.661" y="669.258"/><use xlink:href="#ao" x="265.909" y="669.258"/><use xlink:href="#ap" x="272.807" y="669.258"/><use xlink:href="#O" x="279.705" y="669.258"/><use xlink:href="#aq" x="281.952" y="669.258"/><use xlink:href="#ar" x="288.85" y="669.258"/></g><use xlink:href="#E" x="214.464" y="326.506" fill="#8a8e98"/><g fill="#33459a"><use xlink:href="#as" x="223.968" y="327.106"/><use xlink:href="#at" x="235.943" y="327.106"/><use xlink:href="#au" x="247.918" y="327.106"/></g><g fill="#231f20"><use xlink:href="#I" x="214.464" y="343.689"/><use xlink:href="#av" x="221.362" y="343.689"/><use xlink:href="#N" x="228.26" y="343.689"/><use xlink:href="#O" x="235.158" y="343.689"/><use xlink:href="#P" x="237.405" y="343.689"/><use xlink:href="#Q" x="244.303" y="343.689"/></g><use xlink:href="#I" x="214.464" y="356.092" fill="#231f20"/><use xlink:href="#O" x="221.362" y="356.092" fill="#231f20"/><use xlink:href="#O" x="221.362" y="356.092" fill="#231f20"/><g fill="#231f20"><use xlink:href="#R" x="221.362" y="356.092"/><use xlink:href="#S" x="228.26" y="356.092"/><use xlink:href="#T" x="235.158" y="356.092"/><use xlink:href="#N" x="242.056" y="356.092"/><use xlink:href="#U" x="248.954" y="356.092"/><use xlink:href="#O" x="255.852" y="356.092"/><use xlink:href="#K" x="258.099" y="356.092"/><use xlink:href="#Z" x="264.997" y="356.092"/><use xlink:href="#aw" x="271.895" y="356.092"/><use xlink:href="#N" x="278.793" y="356.092"/><use xlink:href="#T" x="285.691" y="356.092"/><use xlink:href="#N" x="292.589" y="356.092"/><use xlink:href="#O" x="299.487" y="356.092"/><use xlink:href="#L" x="301.735" y="356.092"/><use xlink:href="#Y" x="308.633" y="356.092"/><use xlink:href="#aw" x="315.531" y="356.092"/><use xlink:href="#N" x="322.429" y="356.092"/><use xlink:href="#ax" x="329.327" y="356.092"/><use xlink:href="#O" x="336.225" y="356.092"/><use xlink:href="#U" x="338.473" y="356.092"/><use xlink:href="#ab" x="345.371" y="356.092"/></g><g fill="#231f20"><use xlink:href="#I" x="214.464" y="368.494"/><use xlink:href="#ay" x="221.362" y="368.494"/><use xlink:href="#az" x="228.26" y="368.494"/><use xlink:href="#al" x="235.158" y="368.494"/><use xlink:href="#aA" x="242.056" y="368.494"/><use xlink:href="#aB" x="248.954" y="368.494"/><use xlink:href="#aC" x="255.852" y="368.494"/><use xlink:href="#O" x="262.75" y="368.494"/><use xlink:href="#aD" x="264.997" y="368.494"/><use xlink:href="#O" x="271.895" y="368.494"/><use xlink:href="#aE" x="274.143" y="368.494"/><use xlink:href="#aF" x="281.041" y="368.494"/><use xlink:href="#O" x="287.939" y="368.494"/><use xlink:href="#Z" x="290.187" y="368.494"/><use xlink:href="#aa" x="297.085" y="368.494"/><use xlink:href="#aG" x="303.983" y="368.494"/><use xlink:href="#O" x="310.881" y="368.494"/><use xlink:href="#aG" x="313.128" y="368.494"/><use xlink:href="#aH" x="320.026" y="368.494"/></g><use xlink:href="#E" x="384.619" y="326.117" fill="#8a8e98"/><g fill="#33459a"><use xlink:href="#aI" x="394.123" y="326.716"/><use xlink:href="#aJ" x="406.098" y="326.716"/><use xlink:href="#aK" x="418.074" y="326.716"/></g><g fill="#231f20"><use xlink:href="#I" x="384.619" y="343.3"/><use xlink:href="#ab" x="391.517" y="343.3"/><use xlink:href="#X" x="398.415" y="343.3"/><use xlink:href="#N" x="405.313" y="343.3"/><use xlink:href="#O" x="412.211" y="343.3"/><use xlink:href="#P" x="414.459" y="343.3"/><use xlink:href="#Q" x="421.357" y="343.3"/></g><use xlink:href="#I" x="384.619" y="355.702" fill="#231f20"/><use xlink:href="#O" x="391.517" y="355.702" fill="#231f20"/><use xlink:href="#O" x="391.517" y="355.702" fill="#231f20"/><g fill="#231f20"><use xlink:href="#av" x="391.517" y="355.702"/><use xlink:href="#aL" x="398.415" y="355.702"/><use xlink:href="#aM" x="405.313" y="355.702"/><use xlink:href="#K" x="412.211" y="355.702"/><use xlink:href="#T" x="419.109" y="355.702"/><use xlink:href="#N" x="426.007" y="355.702"/><use xlink:href="#U" x="432.905" y="355.702"/><use xlink:href="#O" x="439.803" y="355.702"/><use xlink:href="#K" x="442.051" y="355.702"/><use xlink:href="#Z" x="448.949" y="355.702"/><use xlink:href="#aw" x="455.847" y="355.702"/><use xlink:href="#N" x="462.745" y="355.702"/><use xlink:href="#T" x="469.643" y="355.702"/><use xlink:href="#N" x="476.541" y="355.702"/><use xlink:href="#O" x="483.439" y="355.702"/><use xlink:href="#L" x="485.686" y="355.702"/><use xlink:href="#Y" x="492.584" y="355.702"/><use xlink:href="#aw" x="499.482" y="355.702"/><use xlink:href="#N" x="506.38" y="355.702"/><use xlink:href="#aw" x="513.278" y="355.702"/><use xlink:href="#O" x="520.176" y="355.702"/><use xlink:href="#U" x="522.424" y="355.702"/><use xlink:href="#ab" x="529.322" y="355.702"/></g></svg>