<svg xmlns="http://www.w3.org/2000/svg" xmlns:xlink="http://www.w3.org/1999/xlink" width="793.701" height="1058.268" viewBox="0 0 595.276 793.701" version="1.2"><defs><symbol overflow="visible" id="a"><path d="M2.875.031c.434 0 .82-.144 1.156-.437.332-.301.594-.64.782-1.016.183-.34.316-.71.39-1.11.082-.402.125-.804.125-1.202 0-.403-.05-.813-.14-1.22a4.843 4.843 0 0 0-.407-1.155A3.031 3.031 0 0 0 4-7.063a1.747 1.747 0 0 0-1.14-.421c-.844 0-1.473.457-1.876 1.359-.406.906-.609 1.707-.609 2.39 0 .712.203 1.52.61 2.422C1.386-.413 2.02.032 2.874.032zm0-.281c-.75 0-1.227-.441-1.422-1.328-.2-.895-.297-1.613-.297-2.156 0-.54.098-1.254.297-2.141.195-.895.672-1.344 1.422-1.344.363 0 .648.137.86.407.206.273.363.566.468.875.113.343.195.71.25 1.093.059.387.094.758.094 1.11 0 .324-.035.675-.094 1.046a9.33 9.33 0 0 1-.203 1.016c-.094.336-.254.66-.469.969-.21.305-.511.453-.906.453zm0 0"/></symbol><symbol overflow="visible" id="b"><path d="M3.422-7.313a.124.124 0 0 0-.031-.078.119.119 0 0 0-.079-.062.133.133 0 0 0-.078 0 .589.589 0 0 0-.078.047l-1.844.828a.934.934 0 0 0-.218.078c-.086.043-.125.102-.125.172 0 .043.008.082.031.11a.143.143 0 0 0 .094.03c.05 0 .113-.015.187-.046.07-.028.133-.051.188-.063l.687-.312c.051-.02.102-.04.156-.063a.364.364 0 0 1 .172-.047c.07 0 .118.024.141.063.02.043.031.097.031.156v5.078c0 .367-.043.617-.125.75-.074.125-.316.188-.719.188-.25 0-.414.011-.484.03-.074.013-.11.052-.11.11 0 .063.016.106.048.125.027.024.082.032.156.032h3.094c.058 0 .109-.008.14-.032.028-.02.047-.054.047-.11 0-.058-.02-.1-.047-.124a.278.278 0 0 0-.14-.031h-.329c-.375 0-.601-.079-.671-.235-.063-.164-.094-.41-.094-.734zm0 0"/></symbol><symbol overflow="visible" id="c"><path d="M3.64-5.844V.453h.813v-6.297zm0 0"/></symbol><symbol overflow="visible" id="d"><path d="M.75.047v1.016h1.031V.046zm0 0"/></symbol><symbol overflow="visible" id="f"><path d="M7.422 1.36v-7.985h-.734v2.938h-.954V-6.5H5V.984h.734v-3.953h.954V1.36zM2.938-4.626v-.813H4.28v-.625H.813v.625h1.359v.688c0 .953-.156 1.766-.469 2.453A4.316 4.316 0 0 1 .172-.594c.234.14.531.313.687.453.36-.265.735-.656 1.047-1.093.297-.407.532-.875.64-1.297.126.422.345.828.61 1.187.297.375.64.703.969.907.14-.172.36-.36.547-.5a3.485 3.485 0 0 1-1.344-1.516c-.25-.594-.39-1.328-.39-2.172zm0 0"/></symbol><symbol overflow="visible" id="g"><path d="M6.078-6.625V-.75h.75v-3.266h1.11v-.64h-1.11v-1.969zm-.344 3.234c-.546.11-2.015.282-2.843.297l-1.313.016v-2.547H4.61v-.64H.844v3.843c.031 0 1.375 0 1.984-.015 1.047-.032 2.328-.188 2.906-.329zm1.344 4.594v-.64H2.422v-2.016h-.75v2.656zm0 0"/></symbol><symbol overflow="visible" id="h"><path d="M7.11-2.313v-4.312h-.75v1.578H4.624v-1.312h-.719v1.187h-2.25v-1.187H.922v3.687h3.703V-4.39h1.734v2.079zm-3.204-1h-2.25V-4.53h2.25zM7.11 1.282v-3.234h-.75v.922H2.547v-.922h-.75V1.28zm-.75-.61H2.547V-.405h3.812zm0 0"/></symbol><symbol overflow="visible" id="i"><path d="M7.11-.75v-5.875h-.75V-.75zM.61-4.406c0 1.14.874 2.093 2.124 2.093 1.235 0 2.11-.953 2.11-2.093 0-1.172-.875-2.11-2.11-2.11-1.25 0-2.125.938-2.125 2.11zm.765 0c0-.828.5-1.469 1.36-1.469.859 0 1.359.64 1.359 1.469 0 .797-.5 1.437-1.36 1.437-.859 0-1.359-.64-1.359-1.437zm5.969 5.61V.562H2.562v-1.985h-.75v2.625zm0 0"/></symbol><symbol overflow="visible" id="j"><path d="M7.047 1.36v-7.985H6.28v7.984zM4.687-.657v-5.469H.97v5.469zm-.734-.64H1.72V-5.47h2.234zm0 0"/></symbol><symbol overflow="visible" id="k"><path d="M7.203 1.36v-7.985H6.47v2.844h-.985V-6.5H4.75V.984h.734v-4.046h.985v4.421zm-2.75-2.75c-.344.062-1.187.156-1.734.156l-1.063.015V-3.03h2.157v-3.125H.921v.64h2.172v1.844H.922v3.11l1.547-.016A19.11 19.11 0 0 0 4.453-.75zm0 0"/></symbol><symbol overflow="visible" id="l"><path d="M7.203 1.36v-7.985h-.75v7.984zM1.031-4.376c0 1.094.875 2 2.125 2 1.235 0 2.125-.906 2.125-2 0-1.094-.89-1.984-2.125-1.984-1.25 0-2.125.89-2.125 1.984zm.735 0c0-.75.53-1.36 1.39-1.36.86 0 1.36.61 1.36 1.36 0 .75-.5 1.36-1.36 1.36-.86 0-1.39-.61-1.39-1.36zm4.406 3.016c-.64.109-2.531.25-3.219.265-.328.016-2.312.016-2.344.016v.656c.016 0 1.657.016 1.985 0a26.518 26.518 0 0 0 3.578-.297zm0 0"/></symbol><symbol overflow="visible" id="m"><path d="M8.047-3.813v-.671H6.922v-2.141h-.766V-1.5h.766v-2.313zM4.14-6.046v-.594H1.687v.594zm1.14 1.203v-.593H.594v.593zM.921-3.078c0 .719.829 1.312 2 1.312 1.25 0 2.032-.593 2.032-1.312 0-.735-.75-1.328-2.016-1.328-1.203 0-2.015.593-2.015 1.328zm.782-.016c0-.453.484-.719 1.234-.719.766 0 1.235.266 1.235.72 0 .452-.453.75-1.234.75-.75 0-1.235-.282-1.235-.75zm5.219 4.5v-2.515h-5.36v.625h4.579v1.89zm0 0"/></symbol><symbol overflow="visible" id="n"><path d="M7.11-.75v-5.875h-.75v.922H4.421c-.36-.5-.969-.844-1.703-.844-1.235 0-2.11.969-2.11 2.125 0 1.156.875 2.11 2.11 2.11.765 0 1.39-.36 1.75-.891h1.89V-.75zm-.75-3.11H4.75a1.7 1.7 0 0 0 .094-.562c0-.219-.032-.437-.094-.625h1.61zm-4.985-.562c0-.812.5-1.469 1.344-1.469.875 0 1.36.657 1.36 1.47 0 .796-.485 1.452-1.36 1.452-.844 0-1.344-.656-1.344-1.453zm5.953 5.625v-.64H2.562v-1.985h-.75v2.625zm0 0"/></symbol><symbol overflow="visible" id="o"><path d="M7.781-2.156v-.64H6.484c.204-.907.375-2.438.407-3.548H1.156v.64h4.938a16.656 16.656 0 0 1-.39 2.907H.265v.64h3.312V1.36h.75v-3.515zm0 0"/></symbol><symbol overflow="visible" id="p"><path d="M4.438-5.656v-.657h-.813v.657c0 .703-.344 1.36-.89 1.89-.563.547-1.329.97-2.157 1.22.235.218.438.421.578.593a5.89 5.89 0 0 0 1.703-.953c.516-.422.938-.922 1.172-1.469.219.531.672 1.063 1.203 1.484.547.438 1.157.766 1.672.938.14-.188.36-.39.547-.578a5.116 5.116 0 0 1-2.031-1.156c-.578-.547-.984-1.25-.984-1.97zM7.78.359v-.64H4.406v-2.016h-.765V-.28H.28v.64zm0 0"/></symbol><symbol overflow="visible" id="q"><path d="M7.203 1.375v-8h-.75v2.969h-1V-6.5H4.72V.984h.734v-3.921h1v4.312zM.781-6.063v.641h2.25c-.031.906-.25 1.734-.656 2.469-.469.828-1.14 1.547-2.094 2.156.203.11.547.313.703.453.938-.687 1.688-1.515 2.172-2.594.39-.859.61-1.89.64-3.124zm0 0"/></symbol><symbol overflow="visible" id="r"><path d="M10.11 2.094V-11.72h1.437V2.094zM2.86-5.453v2.937h1.374a45.318 45.318 0 0 0 2.454-.062c.363-.027.718-.063 1.062-.094.34-.039.703-.086 1.078-.14l.14 1.234a24.15 24.15 0 0 1-1.03.14c-.344.043-.723.083-1.125.11a21.18 21.18 0 0 1-1.313.062 68.12 68.12 0 0 1-1.625.016H1.437v-5.453H6v-2.64H1.39v-1.282h6.032v5.172zm0 0"/></symbol><symbol overflow="visible" id="s"><path d="M10.234 2.094v-8.235H7.375v-1.312h2.86v-4.266h1.437V2.094zM4.5-4.844c-.063.18-.164.352-.297.516a8.369 8.369 0 0 1-.547.64c-.293.344-.636.715-1.031 1.11-.387.387-.824.82-1.313 1.297L.36-2.297c.883-.8 1.649-1.57 2.297-2.312.227-.258.41-.5.547-.72.145-.226.258-.444.344-.655a3.07 3.07 0 0 0 .172-.657c.039-.226.062-.476.062-.75v-3.328h1.453v3.328c0 .305.016.575.047.813.04.23.102.457.188.672.09.21.21.426.36.64.151.22.343.457.562.704.308.343.632.683.968 1.015.34.336.735.707 1.172 1.11l-.937 1.015a39.7 39.7 0 0 1-1.266-1.25 28.78 28.78 0 0 1-.937-1 8.802 8.802 0 0 1-.547-.64 2.068 2.068 0 0 1-.328-.532zm0 0"/></symbol><symbol overflow="visible" id="t"><path d="M4.938-4.484a1.96 1.96 0 0 1-.297.53c-.137.18-.325.4-.563.657-.305.344-.637.711-1 1.094-.367.375-.8.805-1.297 1.281L.844-1.937c.433-.403.836-.79 1.203-1.157a24.7 24.7 0 0 0 1.031-1.125c.238-.27.43-.515.578-.734.145-.227.254-.445.328-.656.082-.207.141-.422.172-.641A5.97 5.97 0 0 0 4.203-7v-1.422h-3v-1.281h3v-1.969h1.453v1.969h2.875v1.281H5.656V-7c0 .305.008.566.032.781.027.219.085.43.171.625.082.2.204.41.36.625.152.219.363.477.625.766.308.344.629.68.953 1 .32.312.703.668 1.14 1.062l-.953 1A50.457 50.457 0 0 1 6.75-2.344a28.066 28.066 0 0 1-.906-.969c-.211-.226-.399-.44-.563-.64a2.068 2.068 0 0 1-.328-.531zm5.328 6.578V-11.72h1.437V2.094zm0 0"/></symbol><symbol overflow="visible" id="v"><path d="M12.766-1V.25H.469V-1zm-1.891-9.422v2.047c0 .668-.02 1.285-.047 1.844a43.65 43.65 0 0 1-.094 1.578c-.043.492-.097.965-.156 1.422-.062.46-.144.926-.234 1.39l-1.438-.187c.184-.977.32-1.906.406-2.781.083-.883.126-1.801.126-2.75v-1.266h-7.47v-1.297zm0 0"/></symbol><symbol overflow="visible" id="w"><path d="M11-2.828v4.937H2.219v-4.937H3.64v1.187h5.937v-1.187zM2.234-5.875v-3.328H9.5v-.906H2.172v-1.22h8.734v3.298H3.641v.937h7.53v1.219zm3.657 3.531v-1.422H.469v-1.218h12.297v1.218H7.344v1.422zM9.578.86V-.42H3.641v1.28zm0 0"/></symbol><symbol overflow="visible" id="x"><path d="M3.094-7.406a2.472 2.472 0 0 1-.14-.313c-.032-.101-.071-.21-.11-.328a4.674 4.674 0 0 0-.125-.375 4.19 4.19 0 0 1-.156-.484V.39H1.187v-10.813h2.125L6.22-3.344l2.828-7.078h2.11V.391H9.78v-9.297c-.054.21-.101.383-.14.515l-.125.36c-.032.117-.07.226-.11.328a2.31 2.31 0 0 1-.125.297l-2.5 6H5.563zm0 0"/></symbol><symbol overflow="visible" id="y"><path d="M5.125.547C4.5.547 3.925.445 3.406.25a3.346 3.346 0 0 1-1.344-.875 4.2 4.2 0 0 1-.874-1.484C.977-2.7.875-3.4.875-4.203v-1.625c0-.79.102-1.477.313-2.063.207-.59.5-1.086.875-1.484a3.5 3.5 0 0 1 1.343-.906 4.917 4.917 0 0 1 1.719-.297c.621 0 1.195.101 1.719.297.52.199.968.504 1.343.906.383.398.68.895.891 1.484.207.586.313 1.274.313 2.063v1.625c0 .805-.106 1.504-.313 2.094a4.172 4.172 0 0 1-.89 1.484A3.4 3.4 0 0 1 6.843.25a4.886 4.886 0 0 1-1.719.297zm0-9.781c-.406 0-.785.07-1.125.203a2.254 2.254 0 0 0-.89.64c-.243.282-.434.653-.579 1.11-.136.449-.203.988-.203 1.61v1.312c0 .625.067 1.168.203 1.625.145.46.336.832.578 1.109.246.281.547.492.891.625.34.137.719.203 1.125.203.402 0 .781-.066 1.125-.203.34-.133.64-.344.89-.625.247-.277.442-.648.579-1.11.144-.456.218-1 .218-1.624v-1.313c0-.621-.074-1.16-.218-1.61-.137-.456-.332-.827-.578-1.109a2.31 2.31 0 0 0-.891-.64 3.112 3.112 0 0 0-1.125-.203zm0 0"/></symbol><symbol overflow="visible" id="z"><path d="M8.86-10.422v6.485c0 .812-.09 1.507-.266 2.078-.168.574-.418 1.043-.75 1.406-.324.355-.73.61-1.219.766a5.486 5.486 0 0 1-1.656.234A5.541 5.541 0 0 1 3.312.312a2.834 2.834 0 0 1-1.218-.765c-.336-.363-.59-.832-.766-1.406-.168-.57-.25-1.266-.25-2.079v-6.484h1.438v6.297c0 .617.046 1.137.14 1.563.09.417.242.761.453 1.03.207.262.461.458.766.579.309.117.676.172 1.094.172.414 0 .781-.055 1.093-.172.31-.121.567-.317.766-.578.207-.27.36-.614.453-1.032.09-.425.14-.945.14-1.562v-6.297zm0 0"/></symbol><symbol overflow="visible" id="A"><path d="M3.86-4.516c-.044.157-.122.32-.235.485-.117.156-.246.332-.39.515-.294.356-.618.739-.97 1.141-.355.398-.73.8-1.124 1.203l-.97-1c.434-.426.845-.844 1.22-1.25.382-.414.726-.832 1.03-1.25.29-.394.485-.781.579-1.156.102-.371.156-.781.156-1.219v-1.328H.72v-1.25h2.437v-1.797h1.39v1.797h2.282v1.25H4.547v1.328c0 .438.05.84.156 1.203.113.367.317.746.61 1.14.308.407.628.802.953 1.173.332.367.718.761 1.156 1.187l-.969 1a99.022 99.022 0 0 1-1.062-1.125c-.313-.34-.618-.691-.907-1.047a6.191 6.191 0 0 1-.375-.515 2.11 2.11 0 0 1-.234-.485zm4.203-6.921h1.406V1.421H8.063v-6.89H6.109v-1.298h1.954zm4.078 13.53h-1.422v-13.812h1.422zm0 0"/></symbol><symbol overflow="visible" id="B"><path d="M3.36 2.188v-3.735h6.89v-1.281H3.281v-1.235h8.375v3.72h-6.89V.952h7.265v1.235zM5.718-9.876H1.453v-1.25h5.688v1.828c0 .594-.09 1.106-.266 1.531-.168.43-.473.825-.906 1.188-.438.355-1.028.707-1.766 1.047-.742.343-1.68.738-2.812 1.172L.906-5.563a53.44 53.44 0 0 0 1.781-.734c.497-.215.926-.422 1.282-.61.363-.195.66-.382.89-.562.227-.183.407-.375.532-.562.12-.196.207-.399.25-.61.05-.214.078-.457.078-.718zM10.25-4.75v-1.531H7.656v-1.235h2.594V-8.89H7.875v-1.234h2.375v-1.594h1.406v6.969zm0 0"/></symbol><symbol overflow="visible" id="C"><path d="M1.031-2.094A46.21 46.21 0 0 0 3-3.344c.54-.363.988-.695 1.344-1 .351-.308.633-.597.843-.86.208-.269.36-.534.454-.796.101-.258.164-.535.187-.828.027-.29.047-.617.047-.984v-1.36H1.297v-1.265h6v2.64c0 .45-.02.856-.047 1.219-.023.367-.09.715-.203 1.047-.117.324-.29.644-.516.953-.23.312-.554.652-.968 1.016-.407.355-.918.753-1.532 1.187-.617.43-1.367.918-2.25 1.469zm9.094 4.188V-11.72h1.438V2.094zm0 0"/></symbol><symbol overflow="visible" id="D"><path d="M9.703-1.469v-10.25h1.422V-7.5h1.89v1.281h-1.89v4.75zM4.031.688H11.5v1.28H2.594v-4.155H4.03zM9-3.86c-.586.054-1.148.105-1.688.156-.53.043-1.12.082-1.765.11-.649.023-1.379.042-2.188.062-.812.011-1.777.015-2.89.015v-1.28H3.14v-2.86h1.421v2.828c.395-.008.77-.02 1.125-.031.364-.02.72-.04 1.063-.063.34-.02.688-.039 1.031-.062a30.47 30.47 0 0 0 1.094-.11zM6.203-6.266c.102-.52.18-1.023.234-1.515.06-.489.094-.946.094-1.375v-.578H1.36v-1.282h6.594v1.657c0 .273-.012.554-.031.843-.012.282-.035.57-.063.86-.03.293-.07.574-.109.843-.043.274-.09.52-.14.735zm0 0"/></symbol><symbol overflow="visible" id="E"><path d="M1.64-4.11c0 1.15.15 2.278.454 3.391.3 1.114.82 2.203 1.562 3.266h-.61A8.745 8.745 0 0 1 1.454-.516a12.912 12.912 0 0 1-.516-3.671v-.594c0-1.278.172-2.492.516-3.64a8.918 8.918 0 0 1 1.594-3.063h.61c-.712 1-1.227 2.054-1.548 3.156a12.691 12.691 0 0 0-.468 3.469zm0 0"/></symbol><symbol overflow="visible" id="F"><path d="M6.594 2.313a7.893 7.893 0 0 1-1.61-.157 4.45 4.45 0 0 1-1.28-.437 2.485 2.485 0 0 1-.86-.688A1.528 1.528 0 0 1 2.547.11v-.546a1.5 1.5 0 0 1 .297-.907c.207-.277.492-.515.86-.703a4.45 4.45 0 0 1 1.28-.437 7.893 7.893 0 0 1 1.61-.157 7.95 7.95 0 0 1 1.61.157c.495.093.929.242 1.296.437.363.188.645.426.844.703.207.274.312.574.312.907v.546c0 .34-.105.649-.312.922-.2.27-.48.5-.844.688-.367.195-.8.343-1.297.437a7.95 7.95 0 0 1-1.61.156zm0-4.376c-.461 0-.903.04-1.328.11a3.969 3.969 0 0 0-1.094.312 2.127 2.127 0 0 0-.75.516c-.18.21-.266.45-.266.719v.484c0 .27.086.508.266.719.183.207.437.379.75.515.308.145.676.25 1.094.313a8.125 8.125 0 0 0 2.656 0c.426-.063.789-.168 1.094-.313a2.2 2.2 0 0 0 .75-.515c.183-.211.28-.45.28-.719v-.484c0-.27-.097-.508-.28-.719a2.2 2.2 0 0 0-.75-.516 3.853 3.853 0 0 0-1.094-.312 8.017 8.017 0 0 0-1.328-.11zm.015-6.109c-.125.293-.402.543-.828.75-.418.211-.926.43-1.515.656-.407.168-.801.317-1.172.438-.367.125-.785.262-1.25.406l-.203-.484c.214-.07.425-.14.625-.203.195-.07.39-.141.578-.204.183-.058.379-.128.578-.203.195-.07.406-.148.625-.234.383-.152.719-.29 1-.406.277-.121.508-.258.687-.407.184-.144.329-.32.422-.53.09-.216.14-.485.14-.798v-.39H2.11v-.547h4.188v-1.485h.64v1.485h4.172v.547H6.938v.39c0 .313.039.582.125.797.09.211.234.387.421.531.184.149.422.286.704.407.277.117.609.254.984.406.215.086.422.164.61.234.195.075.39.145.577.204.196.062.395.132.594.203.195.062.406.132.625.203l-.203.484a62.46 62.46 0 0 1-1.25-.406 15.18 15.18 0 0 1-1.172-.438 17.775 17.775 0 0 1-1.531-.656c-.418-.207-.692-.457-.813-.75zm6.063 3.61V-4H.547v-.563h5.75v-1.703h.625v1.704zm0 0"/></symbol><symbol overflow="visible" id="H"><path d="M5.656-5.5c.227-.277.41-.523.547-.734.133-.215.234-.414.297-.594.07-.176.117-.336.14-.484.02-.153.032-.329.032-.516v-.11c0-.632-.2-1.132-.594-1.5-.387-.363-.957-.546-1.703-.546-.555 0-1.05.144-1.484.421-.43.274-.809.723-1.141 1.344l-.531-.312c.133-.258.297-.508.484-.75a3.265 3.265 0 0 1 1.531-1.125 3.425 3.425 0 0 1 1.11-.172c.433 0 .836.066 1.203.187.363.118.676.29.937.516.258.219.457.492.594.813.145.324.219.69.219 1.093v.14c0 .25-.024.49-.063.704-.043.21-.113.418-.203.625-.093.21-.222.43-.375.656-.148.219-.332.465-.547.735l-4 4.875h5.579V.39H1.234v-.563zm0 0"/></symbol><symbol overflow="visible" id="I"><path d="M6.672-6.328v3.578h1.625v.64H6.672v2.5h-.64v-2.5H.686v-.64l5.235-7.672h.766L1.421-2.75h4.61v-3.578zm0 0"/></symbol><symbol overflow="visible" id="J"><path d="M5.297-9.625H1.03v-.594h4.875v2.203c0 .555-.027 1.043-.078 1.47a5.173 5.173 0 0 1-.25 1.155c-.125.356-.3.696-.516 1.016a7.003 7.003 0 0 1-.843.969 15.53 15.53 0 0 1-1.25 1.047c-.492.375-1.067.8-1.719 1.265l-.36-.531c.614-.457 1.157-.86 1.626-1.203.464-.34.863-.66 1.187-.953.32-.29.586-.57.797-.844.207-.277.367-.578.484-.89.114-.32.192-.673.235-1.048.05-.382.078-.832.078-1.343zm6.406 11.61h-.625v-7.923H8.672v7.235h-.625v-12.61h.625v4.782h2.406v-5.063h.625zm0 0"/></symbol><symbol overflow="visible" id="K"><path d="M10.688 1.984v-13.578h.624V1.984zM1.344-1.828c1.082-.613 1.953-1.156 2.61-1.625.663-.465 1.179-.91 1.546-1.328.363-.426.61-.86.734-1.297.121-.434.188-.938.188-1.5v-2.11H1.375v-.593h5.656v2.75c0 .68-.086 1.273-.25 1.781-.168.512-.46 1.004-.875 1.469-.406.46-.957.926-1.64 1.39a42.5 42.5 0 0 1-2.594 1.61zm0 0"/></symbol><symbol overflow="visible" id="L"><path d="M10.344-1.531v-10.063h.61v4.422h2.093v.594h-2.094v5.047zM3.547 1.203h7.765v.594h-8.39v-3.984h.625zM.609-4.469h1.657c.507 0 .984-.004 1.421-.015V-7.75h.61v3.25c.496-.008.957-.02 1.375-.031a79.124 79.124 0 0 0 2.312-.14c.371-.028.758-.071 1.157-.126l.062.594c-.586.055-1.144.105-1.672.156-.523.043-1.101.082-1.734.11-.637.023-1.367.039-2.188.046-.824.012-1.824.016-3 .016zm6.266-1.703c.102-.52.188-1.047.25-1.578.059-.54.094-1.113.094-1.719v-.828H1.484v-.562h6.344v1.218c0 .774-.039 1.434-.11 1.985-.073.554-.16 1.074-.25 1.562zm0 0"/></symbol><symbol overflow="visible" id="M"><path d="M10.813-4.11v-1.109H8.28v-.593h2.531v-1.766h-2.53v-.61h2.53v-3.406h.61v7.485zM8.328-9.39H.641v-.579h3.437v-1.844h.625v1.844h3.625zM4.406-3.907c-.398 0-.773-.047-1.125-.14a3.324 3.324 0 0 1-.937-.423 2.188 2.188 0 0 1-.656-.64 1.55 1.55 0 0 1-.235-.844v-.578c0-.301.078-.578.234-.828.165-.246.383-.461.657-.641.27-.176.582-.316.937-.422a4.035 4.035 0 0 1 1.125-.156c.383 0 .754.055 1.11.156.363.094.68.23.953.406.27.18.484.395.64.641.164.25.25.535.25.844v.578c0 .312-.086.598-.25.844-.156.25-.37.464-.64.64-.274.18-.59.32-.953.422a4.34 4.34 0 0 1-1.11.14zm0-.578c.309 0 .61-.032.89-.094.278-.07.532-.172.75-.297.216-.133.391-.29.516-.469a1.12 1.12 0 0 0 .188-.625v-.547c0-.214-.066-.421-.188-.609a1.578 1.578 0 0 0-.515-.469 2.51 2.51 0 0 0-.75-.297A3.683 3.683 0 0 0 4.407-8c-.313 0-.618.04-.907.11a2.429 2.429 0 0 0-.75.296 1.503 1.503 0 0 0-.516.469 1.086 1.086 0 0 0-.187.61v.546c0 .23.062.442.187.625.121.18.297.336.516.469.215.125.469.227.75.297.277.062.582.094.906.094zm7.016 1.328v5.11h-7.86v-5.11h.626v1.844h6.609v-1.844zm-.625 4.515V-.734h-6.61v2.093zm0 0"/></symbol><symbol overflow="visible" id="N"><path d="M2.453-2.89h8.188v4.937h-.61v-4.344H2.453zm8.188-3.813h2.171v.61h-2.171v2.296h-.61v-7.797h.61v2.172h2.171v.594h-2.171zm-3.547-.61c0 .407-.09.786-.266 1.125a2.604 2.604 0 0 1-.687.875c-.282.243-.614.43-.985.563a3.742 3.742 0 0 1-1.187.188c-.418 0-.82-.063-1.203-.188a3.217 3.217 0 0 1-1-.563 2.61 2.61 0 0 1-.672-.875 2.515 2.515 0 0 1-.25-1.125v-.968c0-.414.082-.79.25-1.125.164-.34.39-.633.672-.875.289-.239.625-.426 1-.563a3.653 3.653 0 0 1 1.203-.203c.414 0 .812.07 1.187.203.371.137.703.324.985.563.289.242.52.535.687.875.176.336.266.71.266 1.125zm-.625-.89a2.178 2.178 0 0 0-.688-1.594 2.308 2.308 0 0 0-.797-.453 2.964 2.964 0 0 0-1.015-.172c-.367 0-.707.059-1.016.172A2.129 2.129 0 0 0 1.64-9.094c-.117.274-.171.57-.171.89v.798c0 .336.054.636.172.906.12.273.296.508.515.703.215.2.485.356.797.469.309.105.649.156 1.016.156.363 0 .703-.05 1.015-.156.309-.113.579-.27.797-.469a2.01 2.01 0 0 0 .5-.703c.121-.27.188-.57.188-.906zm0 0"/></symbol><symbol overflow="visible" id="O"><path d="M.516-4.016h2.03c.602 0 1.165-.007 1.688-.03v-1.907c-.43-.027-.82-.11-1.171-.234a3.235 3.235 0 0 1-.907-.485 2.158 2.158 0 0 1-.578-.719 1.909 1.909 0 0 1-.203-.875v-.64c0-.32.078-.625.234-.906.153-.29.368-.54.641-.75a3.22 3.22 0 0 1 1-.485 4.177 4.177 0 0 1 1.266-.187c.464 0 .89.066 1.265.187.383.117.711.277.985.485.277.21.5.46.656.75.152.28.234.585.234.906v.64c0 .305-.07.59-.203.86a2.26 2.26 0 0 1-.578.718c-.242.211-.54.38-.89.5a4.133 4.133 0 0 1-1.141.235v1.89c.808-.019 1.539-.05 2.187-.093.645-.04 1.317-.102 2.016-.188l.062.578c-.586.063-1.144.121-1.671.172-.524.043-1.102.074-1.735.094-.637.023-1.367.04-2.187.047-.825.012-1.825.015-3 .015zm6.562-4.828a1.52 1.52 0 0 0-.172-.703 1.807 1.807 0 0 0-.5-.594 2.537 2.537 0 0 0-.812-.39 4.025 4.025 0 0 0-1.078-.14c-.399 0-.758.05-1.079.14a2.488 2.488 0 0 0-.796.39 1.717 1.717 0 0 0-.5.594 1.474 1.474 0 0 0-.172.703v.516c0 .262.054.504.172.719.113.218.28.414.5.578.214.168.484.3.796.39.32.094.68.141 1.079.141.394 0 .754-.047 1.078-.14.32-.09.593-.223.812-.391.215-.164.383-.36.5-.578.114-.215.172-.457.172-.72zm3.188 7.406v-10.156h.609V-7h2.094v.61h-2.094v4.952zM3.453 1.204h7.781v.594H2.828v-3.688h.625zm0 0"/></symbol><symbol overflow="visible" id="P"><path d="M8.938-3.61v3h3.734v.563H.547v-.562h3.781v-3H2.422v-3.75h7.75v-2.61H2.39v-.562h8.375v3.734h-7.75v2.61h8.046v.578zm-.61 3v-3h-3.39v3zm0 0"/></symbol><symbol overflow="visible" id="Q"><path d="M1.094-.719h.968l-.859 3.344h-.64zm0 0"/></symbol><symbol overflow="visible" id="R"><path d="M.563-3.844h2.093c.614 0 1.18-.004 1.703-.015v-1.266a5.973 5.973 0 0 1-1.03-.14 3.334 3.334 0 0 1-.845-.329 2.13 2.13 0 0 1-.562-.5 1.147 1.147 0 0 1-.203-.672v-.609c0-.258.078-.488.234-.688.152-.207.367-.378.64-.515.27-.145.579-.254.923-.328a5.828 5.828 0 0 1 2.25 0 3.3 3.3 0 0 1 .937.328c.27.137.484.308.64.515.153.2.235.43.235.688v.61c0 .242-.074.46-.219.656a1.91 1.91 0 0 1-.562.5 2.81 2.81 0 0 1-.828.343 5.712 5.712 0 0 1-1 .141v1.25a50.81 50.81 0 0 0 2.125-.094c.644-.05 1.312-.117 2-.203l.062.594a52.52 52.52 0 0 1-1.672.156c-.523.043-1.101.082-1.734.11-.637.023-1.367.039-2.188.046-.824.012-1.824.016-3 .016zm4.093-1.844c.29 0 .578-.019.86-.062.289-.05.539-.125.75-.219.214-.09.39-.207.515-.343a.645.645 0 0 0 .203-.47v-.577a.659.659 0 0 0-.203-.47c-.125-.132-.3-.25-.515-.343a3.328 3.328 0 0 0-.75-.203 4.85 4.85 0 0 0-1.735 0 3.218 3.218 0 0 0-.75.203c-.219.094-.398.211-.531.344a.675.675 0 0 0-.188.469v.578c0 .18.063.336.188.468.133.137.305.254.516.344.214.094.468.168.75.219.277.043.578.063.89.063zM2.36-1.844h8.547v3.922h-.594V-1.25H2.36zm7.938-.89v-8.86h.61v4.5H13v.61h-2.094v3.75zM8.25-9.875H1.047v-.563h3.281v-1.359h.625v1.36H8.25zm0 0"/></symbol><symbol overflow="visible" id="S"><path d="M6.125-9.703h-4.25v7.328h.469a45.439 45.439 0 0 0 2.453-.063c.371-.019.726-.05 1.062-.093.34-.051.688-.11 1.032-.172l.062.61a21.98 21.98 0 0 1-2.016.234c-.699.054-1.414.078-2.14.078H1.25v-8.531h4.875zm5.469 11.687h-.625v-7.937H8.688v7.25h-.626v-12.61h.626v4.766h2.28v-5.047h.626zm0 0"/></symbol><symbol overflow="visible" id="T"><path d="M6.594 2.313a7.893 7.893 0 0 1-1.61-.157 4.45 4.45 0 0 1-1.28-.437 2.431 2.431 0 0 1-.86-.703 1.55 1.55 0 0 1-.297-.938V-.5c0-.332.094-.633.281-.906.184-.27.445-.5.781-.688a4.537 4.537 0 0 1 1.188-.437 8.93 8.93 0 0 1 1.516-.188v-1.844H.546v-.562h12.125v.563h-5.75v1.843a8.41 8.41 0 0 1 1.484.188 4.25 4.25 0 0 1 1.188.453c.332.187.594.418.781.687.184.262.281.559.281.891v.578c0 .352-.105.664-.312.938-.2.277-.48.515-.844.703-.367.195-.8.343-1.297.437a7.95 7.95 0 0 1-1.61.156zm0-4.47c-.461 0-.903.04-1.328.11a4.405 4.405 0 0 0-1.094.328 2.058 2.058 0 0 0-.75.532c-.18.21-.266.449-.266.718v.516c0 .27.086.508.266.719.183.214.437.394.75.53.308.145.676.255 1.094.329a8.125 8.125 0 0 0 2.656 0c.426-.074.789-.184 1.094-.328.308-.137.562-.317.75-.531.183-.211.28-.45.28-.72v-.515c0-.27-.097-.508-.28-.719a2.126 2.126 0 0 0-.75-.53 4.258 4.258 0 0 0-1.094-.329 8.017 8.017 0 0 0-1.328-.11zm.031-6.546c-.137.324-.41.601-.813.828-.398.23-.914.465-1.546.703-.407.156-.805.305-1.188.438-.375.136-.793.289-1.25.453l-.234-.485c.457-.164.867-.316 1.234-.453a94.56 94.56 0 0 0 1.235-.453c.382-.133.71-.27.984-.406.277-.133.516-.281.703-.438.184-.164.328-.347.422-.546.09-.196.14-.438.14-.72v-.671H2.157V-11h8.922v.547H6.953v.672c0 .281.04.523.125.719.09.199.234.382.422.546.184.157.414.305.688.438.277.137.613.273 1 .406.445.168.851.32 1.218.453.371.137.79.29 1.25.453l-.234.485-1.266-.453a42.07 42.07 0 0 1-1.172-.438c-.636-.238-1.16-.473-1.562-.703-.399-.227-.664-.504-.797-.828zm0 0"/></symbol><symbol overflow="visible" id="U"><path d="M2.563-4.86c0-1.206-.165-2.363-.485-3.468-.312-1.102-.832-2.156-1.547-3.156h.61A8.885 8.885 0 0 1 2.75-8.422c.34 1.149.516 2.363.516 3.64v.595c0 1.28-.176 2.507-.516 3.671a8.713 8.713 0 0 1-1.61 3.063H.532C1.277 1.484 1.805.395 2.11-.72c.301-1.113.454-2.242.454-3.39zm0 0"/></symbol></defs><g fill="#393536"><use xlink:href="#a" x="42.468" y="48.426"/><use xlink:href="#b" x="48.041" y="48.426"/><use xlink:href="#a" x="53.614" y="48.426"/></g><g fill="#231f20"><use xlink:href="#c" x="74.885" y="47.727"/><use xlink:href="#d" x="82.886" y="47.727"/><use xlink:href="#e" x="85.492" y="47.727"/><use xlink:href="#f" x="88.099" y="47.727"/><use xlink:href="#g" x="96.1" y="47.727"/><use xlink:href="#h" x="104.1" y="47.727"/><use xlink:href="#i" x="112.1" y="47.727"/><use xlink:href="#e" x="120.1" y="47.727"/><use xlink:href="#j" x="122.707" y="47.727"/><use xlink:href="#k" x="130.707" y="47.727"/><use xlink:href="#l" x="138.708" y="47.727"/><use xlink:href="#m" x="146.708" y="47.727"/><use xlink:href="#n" x="154.708" y="47.727"/><use xlink:href="#o" x="162.709" y="47.727"/><use xlink:href="#f" x="170.709" y="47.727"/><use xlink:href="#g" x="178.709" y="47.727"/><use xlink:href="#e" x="186.709" y="47.727"/><use xlink:href="#p" x="189.316" y="47.727"/><use xlink:href="#q" x="197.316" y="47.727"/></g><g fill="#214099"><use xlink:href="#r" x="76.442" y="103.179"/><use xlink:href="#s" x="89.376" y="103.179"/><use xlink:href="#t" x="102.31" y="103.179"/><use xlink:href="#u" x="115.244" y="103.179"/><use xlink:href="#v" x="118.586" y="103.179"/><use xlink:href="#w" x="131.52" y="103.179"/></g><path d="M76.441 312.203h90.102M166.543 312.258h218.476" fill="none" stroke-width=".299637" stroke="#214099" stroke-miterlimit="10"/><g fill="#214099"><use xlink:href="#x" x="76.442" y="304.214"/><use xlink:href="#y" x="88.504" y="304.214"/><use xlink:href="#z" x="98.473" y="304.214"/><use xlink:href="#u" x="108.123" y="304.214"/><use xlink:href="#A" x="111.465" y="304.214"/><use xlink:href="#B" x="124.399" y="304.214"/><use xlink:href="#u" x="137.333" y="304.214"/><use xlink:href="#C" x="140.675" y="304.214"/><use xlink:href="#D" x="153.609" y="304.214"/></g><g fill="#214099"><use xlink:href="#E" x="166.542" y="304.267"/><use xlink:href="#F" x="170.451" y="304.267"/><use xlink:href="#G" x="183.385" y="304.267"/><use xlink:href="#H" x="186.727" y="304.267"/><use xlink:href="#I" x="195.011" y="304.267"/><use xlink:href="#J" x="203.294" y="304.267"/><use xlink:href="#G" x="216.228" y="304.267"/><use xlink:href="#K" x="219.57" y="304.267"/><use xlink:href="#L" x="232.504" y="304.267"/><use xlink:href="#G" x="245.438" y="304.267"/><use xlink:href="#M" x="248.78" y="304.267"/><use xlink:href="#N" x="261.714" y="304.267"/><use xlink:href="#G" x="274.648" y="304.267"/><use xlink:href="#O" x="277.99" y="304.267"/><use xlink:href="#P" x="290.924" y="304.267"/><use xlink:href="#Q" x="303.858" y="304.267"/><use xlink:href="#G" x="306.415" y="304.267"/><use xlink:href="#M" x="309.758" y="304.267"/><use xlink:href="#N" x="322.692" y="304.267"/><use xlink:href="#G" x="335.625" y="304.267"/><use xlink:href="#R" x="338.968" y="304.267"/><use xlink:href="#S" x="351.902" y="304.267"/><use xlink:href="#G" x="364.835" y="304.267"/><use xlink:href="#T" x="368.178" y="304.267"/><use xlink:href="#U" x="381.112" y="304.267"/></g></svg>