<svg xmlns="http://www.w3.org/2000/svg" xmlns:xlink="http://www.w3.org/1999/xlink" width="793.701" height="1058.268" viewBox="0 0 595.276 793.701" version="1.2"><defs><symbol overflow="visible" id="a"><path d="M2.875.031c.434 0 .82-.144 1.156-.437.332-.301.594-.64.782-1.016.183-.34.316-.71.39-1.11.082-.402.125-.804.125-1.202 0-.403-.05-.813-.14-1.22a4.843 4.843 0 0 0-.407-1.155A3.031 3.031 0 0 0 4-7.063a1.747 1.747 0 0 0-1.14-.421c-.844 0-1.473.457-1.876 1.359-.406.906-.609 1.707-.609 2.39 0 .712.203 1.52.61 2.422C1.386-.413 2.02.032 2.874.032zm0-.281c-.75 0-1.227-.441-1.422-1.328-.2-.895-.297-1.613-.297-2.156 0-.54.098-1.254.297-2.141.195-.895.672-1.344 1.422-1.344.363 0 .648.137.86.407.206.273.363.566.468.875.113.343.195.71.25 1.093.059.387.094.758.094 1.11 0 .324-.035.675-.094 1.046a9.33 9.33 0 0 1-.203 1.016c-.094.336-.254.66-.469.969-.21.305-.511.453-.906.453zm0 0"/></symbol><symbol overflow="visible" id="b"><path d="M4.094-6.734l.203-.032a.45.45 0 0 0 .14-.015c.04-.02.07-.055.094-.11l.078-.312c0-.008.008-.067.032-.172.027-.102.046-.16.046-.172 0-.058-.027-.086-.078-.078a.7.7 0 0 0-.14.016l-2.594.343c-.219.032-.352.067-.39.094-.044.031-.098.152-.157.36l-.61 2.109a.385.385 0 0 0-.046.11.438.438 0 0 0-.031.14c0 .043.02.07.062.078.04.012.078.016.11.016a10.782 10.782 0 0 1 2 .28c.433.126.796.325 1.078.595.277.273.421.652.421 1.14 0 .45-.144.867-.421 1.25a3.069 3.069 0 0 1-.985.89 5.708 5.708 0 0 1-1.015.407A5.046 5.046 0 0 1 .828.422a.758.758 0 0 0-.14.016C.632.457.609.5.609.561c0 .04.016.067.047.079a.19.19 0 0 0 .11.03c.101 0 .257-.023.468-.062A9.032 9.032 0 0 0 2.531.25c.278-.094.535-.207.766-.328a4.62 4.62 0 0 0 1.219-1.047c.363-.426.546-.914.546-1.469 0-.37-.097-.734-.28-1.078A2.1 2.1 0 0 0 4-4.5a3.72 3.72 0 0 0-1.047-.375 8.69 8.69 0 0 0-1.11-.172l-.421-.031a5.264 5.264 0 0 1-.203-.031c-.074-.008-.11-.051-.11-.125 0-.028.008-.079.032-.141a.934.934 0 0 1 .046-.14l.125-.47c.07-.226.133-.35.188-.374.05-.028.203-.063.453-.094zm0 0"/></symbol><symbol overflow="visible" id="c"><path d="M.594.953c.09 0 .258-.058.5-.172C1.34.664 1.5.59 1.562.562c.333-.18.657-.37.97-.578.308-.207.609-.43.89-.671a7.089 7.089 0 0 0 1.36-1.672 3.96 3.96 0 0 0 .562-2.063c0-.371-.067-.75-.188-1.125a2.87 2.87 0 0 0-.547-1.016 2.51 2.51 0 0 0-.828-.656 2.134 2.134 0 0 0-1.031-.265c-.7 0-1.277.261-1.734.78a2.635 2.635 0 0 0-.688 1.798c0 .586.192 1.09.578 1.515.383.43.88.641 1.485.641.195 0 .382-.023.562-.078a1.77 1.77 0 0 0 .5-.235.762.762 0 0 0 .094-.078c.027-.039.047-.078.047-.109a.17.17 0 0 0-.031-.078c-.024-.027-.043-.047-.063-.047-.055 0-.145.055-.266.156-.125.094-.304.14-.53.14-.556 0-.962-.233-1.22-.702A3.072 3.072 0 0 1 1.11-5.22c0-.308.051-.593.157-.843.101-.247.242-.477.421-.688a1.2 1.2 0 0 1 .438-.344c.184-.082.375-.125.563-.125.34 0 .632.114.874.328.239.22.426.465.563.735a5.4 5.4 0 0 1 .313.812c.082.293.125.586.125.875 0 .563-.13 1.106-.375 1.625a8.026 8.026 0 0 1-.875 1.438A7.447 7.447 0 0 1 2.187-.25C1.75.102 1.293.39.829.61a1.935 1.935 0 0 0-.203.078c-.094.05-.14.101-.14.156 0 .027.007.054.03.078a.11.11 0 0 0 .079.031zm0 0"/></symbol><symbol overflow="visible" id="d"><path d="M7.422 1.36v-7.985h-.734v2.938h-.954V-6.5H5V.984h.734v-3.953h.954V1.36zM2.938-4.626v-.813H4.28v-.625H.813v.625h1.359v.688c0 .953-.156 1.766-.469 2.453A4.316 4.316 0 0 1 .172-.594c.234.14.531.313.687.453.36-.265.735-.656 1.047-1.093.297-.407.532-.875.64-1.297.126.422.345.828.61 1.187.297.375.64.703.969.907.14-.172.36-.36.547-.5a3.485 3.485 0 0 1-1.344-1.516c-.25-.594-.39-1.328-.39-2.172zm0 0"/></symbol><symbol overflow="visible" id="e"><path d="M6.078-6.625V-.75h.75v-3.266h1.11v-.64h-1.11v-1.969zm-.344 3.234c-.546.11-2.015.282-2.843.297l-1.313.016v-2.547H4.61v-.64H.844v3.843c.031 0 1.375 0 1.984-.015 1.047-.032 2.328-.188 2.906-.329zm1.344 4.594v-.64H2.422v-2.016h-.75v2.656zm0 0"/></symbol><symbol overflow="visible" id="f"><path d="M7.11-2.313v-4.312h-.75v1.578H4.624v-1.312h-.719v1.187h-2.25v-1.187H.922v3.687h3.703V-4.39h1.734v2.079zm-3.204-1h-2.25V-4.53h2.25zM7.11 1.282v-3.234h-.75v.922H2.547v-.922h-.75V1.28zm-.75-.61H2.547V-.405h3.812zm0 0"/></symbol><symbol overflow="visible" id="g"><path d="M7.11-.75v-5.875h-.75V-.75zM.61-4.406c0 1.14.874 2.093 2.124 2.093 1.235 0 2.11-.953 2.11-2.093 0-1.172-.875-2.11-2.11-2.11-1.25 0-2.125.938-2.125 2.11zm.765 0c0-.828.5-1.469 1.36-1.469.859 0 1.359.64 1.359 1.469 0 .797-.5 1.437-1.36 1.437-.859 0-1.359-.64-1.359-1.437zm5.969 5.61V.562H2.562v-1.985h-.75v2.625zm0 0"/></symbol><symbol overflow="visible" id="i"><path d="M7.047 1.36v-7.985H6.28v7.984zM4.687-.657v-5.469H.97v5.469zm-.734-.64H1.72V-5.47h2.234zm0 0"/></symbol><symbol overflow="visible" id="j"><path d="M7.203 1.36v-7.985H6.47v2.844h-.985V-6.5H4.75V.984h.734v-4.046h.985v4.421zm-2.75-2.75c-.344.062-1.187.156-1.734.156l-1.063.015V-3.03h2.157v-3.125H.921v.64h2.172v1.844H.922v3.11l1.547-.016A19.11 19.11 0 0 0 4.453-.75zm0 0"/></symbol><symbol overflow="visible" id="k"><path d="M7.203 1.36v-7.985h-.75v7.984zM1.031-4.376c0 1.094.875 2 2.125 2 1.235 0 2.125-.906 2.125-2 0-1.094-.89-1.984-2.125-1.984-1.25 0-2.125.89-2.125 1.984zm.735 0c0-.75.53-1.36 1.39-1.36.86 0 1.36.61 1.36 1.36 0 .75-.5 1.36-1.36 1.36-.86 0-1.39-.61-1.39-1.36zm4.406 3.016c-.64.109-2.531.25-3.219.265-.328.016-2.312.016-2.344.016v.656c.016 0 1.657.016 1.985 0a26.518 26.518 0 0 0 3.578-.297zm0 0"/></symbol><symbol overflow="visible" id="l"><path d="M8.047-3.813v-.671H6.922v-2.141h-.766V-1.5h.766v-2.313zM4.14-6.046v-.594H1.687v.594zm1.14 1.203v-.593H.594v.593zM.921-3.078c0 .719.829 1.312 2 1.312 1.25 0 2.032-.593 2.032-1.312 0-.735-.75-1.328-2.016-1.328-1.203 0-2.015.593-2.015 1.328zm.782-.016c0-.453.484-.719 1.234-.719.766 0 1.235.266 1.235.72 0 .452-.453.75-1.234.75-.75 0-1.235-.282-1.235-.75zm5.219 4.5v-2.515h-5.36v.625h4.579v1.89zm0 0"/></symbol><symbol overflow="visible" id="m"><path d="M7.11-.75v-5.875h-.75v.922H4.421c-.36-.5-.969-.844-1.703-.844-1.235 0-2.11.969-2.11 2.125 0 1.156.875 2.11 2.11 2.11.765 0 1.39-.36 1.75-.891h1.89V-.75zm-.75-3.11H4.75a1.7 1.7 0 0 0 .094-.562c0-.219-.032-.437-.094-.625h1.61zm-4.985-.562c0-.812.5-1.469 1.344-1.469.875 0 1.36.657 1.36 1.47 0 .796-.485 1.452-1.36 1.452-.844 0-1.344-.656-1.344-1.453zm5.953 5.625v-.64H2.562v-1.985h-.75v2.625zm0 0"/></symbol><symbol overflow="visible" id="n"><path d="M7.781-2.156v-.64H6.484c.204-.907.375-2.438.407-3.548H1.156v.64h4.938a16.656 16.656 0 0 1-.39 2.907H.265v.64h3.312V1.36h.75v-3.515zm0 0"/></symbol><symbol overflow="visible" id="p"><path d="M3.813-4.36v-.015h1.593v-.813h-4.25v.813h1.578v.016c-.046.359-.265.687-.593.968-.407.344-.97.594-1.5.735.234.203.546.5.718.703.422-.156.813-.36 1.141-.61.344-.234.625-.515.781-.812.203.297.485.563.813.781.343.219.703.39 1.015.485.125-.188.375-.47.594-.688a3.35 3.35 0 0 1-1.219-.578c-.343-.266-.625-.61-.671-.984zm2.25 3.126c-.641.093-1.954.171-2.313.171V-2.25h-.969v1.203H.562v.86h1.844c1.172 0 2.985-.094 3.656-.204zm1.25 2.609v-8.016h-.954v8.016zm-2.86-7.11v-.796H2.016v.797zm0 0"/></symbol><symbol overflow="visible" id="q"><path d="M7.203-.75v-5.89h-.969v5.89zM3.328-5.39v-1.094H2.297v1.125c0 .593-.219 1.125-.563 1.562-.39.516-.968.922-1.562 1.203.266.203.625.485.781.656a5.38 5.38 0 0 0 1.094-.796c.344-.329.64-.704.765-1.079.204.376.532.735.891 1.016.328.266.688.5 1 .656.14-.203.422-.515.625-.75a3.228 3.228 0 0 1-1.39-.953c-.376-.437-.61-.969-.61-1.547zm4.063 6.609V.375H2.766v-1.734h-1v2.578zm0 0"/></symbol><symbol overflow="visible" id="r"><path d="M7.781-2.063v-.843h-3.25v-.906h2.39v-.829H2.204v-.984h4.64v-.828H1.235v2.64h2.297v.907H.281v.844zm-3.75 3.594c1.938 0 2.985-.687 2.985-1.562 0-.89-1.047-1.547-2.985-1.547-1.937 0-3 .656-3 1.547 0 .875 1.063 1.562 3 1.562zM2.156-.047c0-.515.703-.781 1.875-.781 1.14 0 1.86.297 1.86.797 0 .484-.72.781-1.86.781C2.86.75 2.156.453 2.156-.047zm0 0"/></symbol><symbol overflow="visible" id="s"><path d="M7.906-2.875v-.828H6.875v-.922h1.031v-.828H6.875v-1.188h-.969v5.063h.969v-1.297zM4.063-5.953v-.734H1.578v.734zm1.125 1.219v-.735H.468v.735zM.702-3.188c0 .688.906 1.25 2.125 1.25 1.297 0 2.125-.546 2.125-1.265 0-.703-.828-1.203-2.11-1.203-1.234 0-2.14.531-2.14 1.218zm3.235-.015c0 .375-.407.578-1.094.578-.688 0-1.11-.188-1.11-.563 0-.374.422-.578 1.11-.578.687 0 1.094.204 1.094.563zM7.046 0c0-.938-1.188-1.5-2.844-1.5-1.594 0-2.875.516-2.875 1.469 0 .953 1.234 1.547 2.86 1.547C5.796 1.516 7.046.984 7.046 0zm-4.64-.016c0-.562.874-.75 1.78-.75.985 0 1.75.235 1.75.75 0 .532-.828.782-1.734.782-.922 0-1.797-.25-1.797-.782zm0 0"/></symbol><symbol overflow="visible" id="t"><path d="M7.797.484v-.843H4.53V-2h2.282v-4.422h-.97v1.313h-3.64v-1.313h-.969V-2h2.282v1.64H.28v.844zM5.844-2.844h-3.64v-1.422h3.64zm0 0"/></symbol><symbol overflow="visible" id="u"><path d="M1.078-6.203v.828h4.766a28.365 28.365 0 0 1-.453 3.953h.968c.25-1.39.47-3.406.532-4.781zM7.797.484v-.843H3.844v-2.985h-.985v2.985H.281v.843zm0 0"/></symbol><symbol overflow="visible" id="v"><path d="M7.203 1.375v-8.016H6.22v2.313H4.53v.906H6.22v4.797zm-3.89-5.938v-1.765H2.296v1.719c0 .796-.172 1.515-.516 2.14C1.406-1.766.828-1.188.094-.75c.281.188.625.469.812.64a6.26 6.26 0 0 0 1.14-1.046c.345-.422.642-.89.767-1.297.203.453.5.906.859 1.281.344.36.719.672 1.031.89.172-.187.438-.437.719-.655-.672-.422-1.234-.938-1.61-1.594-.312-.563-.5-1.219-.5-2.031zm0 0"/></symbol><symbol overflow="visible" id="x"><path d="M2.766-.547L1.125-6.125H.109L2.266.672h.968l2.172-6.797H4.391zm0 0"/></symbol><symbol overflow="visible" id="y"><path d="M2.438-3.688c.765 0 1.171.766 1.171 1.922C3.61-.609 3.203.141 2.438.141c-.735 0-1.141-.75-1.141-1.907 0-1.156.406-1.921 1.14-1.921zm0-.75C1.046-4.438.344-3.375.344-1.765c0 1.61.703 2.641 2.094 2.641 1.406 0 2.14-1.031 2.14-2.64 0-1.61-.734-2.673-2.14-2.673zm0 0"/></symbol><symbol overflow="visible" id="z"><path d="M.563-6.125V.672h.906v-6.797zm0 0"/></symbol><symbol overflow="visible" id="A"><path d="M.64-.047v1.203h1.25V-.047zm0 0"/></symbol><symbol overflow="visible" id="B"><path d="M.563-4.219H1.75V.703h.938v-6.922h-.766c-.11.922-.406 1.282-1.36 1.328zm0 0"/></symbol><symbol overflow="visible" id="C"><path d="M2-6.25C.797-6.25.203-4.89.203-2.656.203-.437.797.906 2 .906c1.203 0 1.828-1.344 1.828-3.562C3.828-4.891 3.203-6.25 2-6.25zm0 .797c.547 0 .906 1.078.906 2.797C2.906-.97 2.546.109 2 .109c-.531 0-.875-1.078-.875-2.765 0-1.719.344-2.797.875-2.797zm0 0"/></symbol><symbol overflow="visible" id="D"><path d="M6.844-2.688l-5.219-3.14V.453zm-.61 0L1.922-.108v-5.157zm0 0"/></symbol><symbol overflow="visible" id="E"><path d="M4.531.375v-.5h-3.39c.125-.547.453-1.11.968-1.453l1.032-.719c.609-.437 1.25-.922 1.296-1.937.047-1.016-.687-1.891-1.968-1.891-1.313 0-1.985 1-1.969 1.953h.563c0-.734.453-1.39 1.375-1.39.874 0 1.39.562 1.374 1.328-.015.625-.437 1.03-.937 1.39l-1.047.735C.594-1.234.5-.422.468.375zm0 0"/></symbol><symbol overflow="visible" id="F"><path d="M3 .438v-6.391h-.453c-.016.328-.203.64-.438.828-.328.219-.625.313-.968.313v.484h1.265V.438zm0 0"/></symbol><symbol overflow="visible" id="G"><path d="M1.484.969V0H.5v.969zm0 0"/></symbol><symbol overflow="visible" id="H"><path d="M2.469-6.078C1.016-6.078.234-4.703.234-2.766.234-.812 1.016.563 2.47.563c1.453 0 2.25-1.375 2.25-3.329 0-1.937-.797-3.312-2.25-3.312zm0 6.094C1.453.016.906-1.172.906-2.766c0-1.578.547-2.765 1.563-2.765 1.031 0 1.562 1.187 1.562 2.765C4.031-1.172 3.5.016 2.47.016zm0 0"/></symbol><symbol overflow="visible" id="I"><path d="M4.469-5.875H.375v.531h3.453c-.297.438-1.125 1.75-1.61 2.797-.593 1.25-.812 2.438-.859 3h.735c0-.703.328-1.937.828-3.078.469-1.063 1.25-2.328 1.547-2.703zm0 0"/></symbol><symbol overflow="visible" id="K"><path d="M1.688 1.406v-8.203H1.14v8.203zm0 0"/></symbol><symbol overflow="visible" id="L"><path d="M4.625-.484v-5.157H.891v5.157zM7.094 1.25v-7.89h-.657v7.89zM3.969-1.047H1.547v-4.031h2.422zm0 0"/></symbol><symbol overflow="visible" id="M"><path d="M4.453-.578v-.547c-.36.063-1.25.14-1.812.156l-1.25.016v-1.875h2.234V-5.75H.719v.563h2.25v1.796H.734v3l1.75-.015c.704-.016 1.61-.11 1.97-.172zM7.25 1.25v-7.89h-.656v3.124h-1.11v-2.953h-.64v7.36h.64v-3.813h1.11V1.25zm0 0"/></symbol><symbol overflow="visible" id="N"><path d="M5.36-4.203c0-1.047-.891-1.922-2.157-1.922-1.25 0-2.14.875-2.14 1.922 0 1.062.89 1.953 2.14 1.953 1.266 0 2.156-.89 2.156-1.953zM7.374 1.25v-7.89h-.672v7.89zM6.391-.61v-.578c-.672.094-2.11.172-3.25.188L.578-.984v.562L3.11-.438C4.156-.453 5.83-.53 6.391-.609zM4.67-4.202c0 .75-.515 1.375-1.468 1.375-.937 0-1.469-.625-1.469-1.375 0-.734.532-1.36 1.47-1.36.952 0 1.468.625 1.468 1.36zm0 0"/></symbol><symbol overflow="visible" id="O"><path d="M4.188-6.078v-.516H1.624v.516zm1.187 1.187v-.515H.5v.515zm2.734 1.063v-.563H6.953v-2.25h-.656v5.047h.656v-2.234zM2.938-1.844c1.28 0 2.046-.562 2.046-1.297 0-.734-.75-1.28-2.046-1.28-1.266 0-2.063.546-2.063 1.28 0 .735.797 1.297 2.063 1.297zM6.952 1.25v-2.344H1.422v.532h4.875V1.25zM4.297-3.14c0 .453-.469.78-1.36.78-.874 0-1.343-.328-1.343-.78 0-.438.468-.782 1.343-.782.891 0 1.36.328 1.36.781zm0 0"/></symbol><symbol overflow="visible" id="P"><path d="M7.453 1.078V.531H2.47v-1.953h-.656v2.5zM7.25-.906v-5.735h-.656v1.063H4.437c-.375-.484-.984-.797-1.718-.797-1.25 0-2.125.875-2.125 1.969 0 1.078.875 1.953 2.125 1.953.781 0 1.437-.344 1.797-.89h2.078v2.437zm-.656-3H4.75a1.76 1.76 0 0 0 .078-.5c0-.219-.031-.422-.094-.61h1.86zM2.719-5.781c.922 0 1.422.61 1.422 1.375 0 .75-.5 1.36-1.422 1.36-.922 0-1.438-.61-1.438-1.36 0-.766.516-1.375 1.438-1.375zm0 0"/></symbol><symbol overflow="visible" id="Q"><path d="M7.938-2.203v-.563H6.5c.031-.218.188-.89.266-1.468.109-.704.234-1.625.25-1.922H1.078v.562h5.188c-.079.89-.344 2.375-.454 2.828H.173v.563h3.375V1.25h.656v-3.453zm0 0"/></symbol><symbol overflow="visible" id="R"><path d="M4.672-.75C4.359-.953 3.938-1.328 3.5-2c-.422-.656-.64-1.625-.64-2.453v-.656h1.453v-.547H.703v.547h1.469v.656c0 .812-.188 1.594-.547 2.297A5.176 5.176 0 0 1 .235-.5l.53.406a6.092 6.092 0 0 0 1.157-1.328c.328-.531.531-1 .594-1.281.078.281.328.86.671 1.312.36.5.75.875 1.032 1.079zm2.86 2v-7.89H6.89v3.171H5.766v-3h-.641v7.36h.64v-3.75h1.126V1.25zm0 0"/></symbol><symbol overflow="visible" id="S"><path d="M5.61-2.672v-.547c-.532.094-1.516.188-2.329.203l-1.875.032v-2.532h3.235v-.546H.75v3.625c.063 0 1.406.015 2.328-.032 1.016-.031 2-.125 2.531-.203zM6.827-6.64h-.656v5.735h.656v-2.938H8v-.562H6.828zm.266 7.72V.53H2.25V-1.5h-.656v2.578zm0 0"/></symbol><symbol overflow="visible" id="T"><path d="M5.36-2.313v-.546H.171v.546zm0 0"/></symbol><symbol overflow="visible" id="U"><path d="M4.188-6.078v-.516H1.624v.516zm1.187 1.234v-.515H.5v.515zM6.953-6.64h-.656V-.75h.656v-2.906H8.11v-.563H6.953zm-4.016 5C4.22-1.64 5-2.266 5-2.984c0-.75-.766-1.375-2.063-1.375-1.265 0-2.062.625-2.062 1.375 0 .718.797 1.343 2.063 1.343zm4.266 2.72V.53H2.375V-1.14h-.672v2.22zM4.297-3c0 .453-.469.844-1.36.844-.874 0-1.343-.39-1.343-.844 0-.453.468-.86 1.343-.86.891 0 1.36.407 1.36.86zm0 0"/></symbol><symbol overflow="visible" id="V"><path d="M7.938-2.844v-.562H6.53a15.6 15.6 0 0 0 .297-1.313c.094-.515.172-1.047.219-1.547H1.109v.547h5.172c-.078.828-.328 1.969-.406 2.313H.172v.562h3.422v1.672H1.125v.547h5.094V1.25h.656v-2.422H4.281v-1.672zm0 0"/></symbol><symbol overflow="visible" id="W"><path d="M7.422-2.328c-.36-.094-1.219-.453-1.875-.953-.61-.469-1.156-1.203-1.156-1.781v-.25h2.562v-.579H1.156v.579h2.547v.25c0 .578-.547 1.312-1.14 1.78-.657.5-1.516.86-1.876.954l.438.469a6.248 6.248 0 0 0 1.688-.86c.609-.437 1.124-1.094 1.234-1.375.125.282.64.938 1.25 1.375.672.485 1.36.781 1.687.875zM7.938.25v-.563H4.374v-1.875h-.672v1.876H.172V.25zm0 0"/></symbol><symbol overflow="visible" id="X"><path d="M5.484-.875c-.375-.203-.875-.578-1.343-1.188-.47-.624-.75-1.562-.75-2.39v-.734h1.89v-.563H.813v.563h1.859v.734c0 .828-.328 1.781-.797 2.453C1.437-1.36.812-.875.328-.578L.86-.11A5.866 5.866 0 0 0 2.313-1.5c.406-.563.656-1.14.718-1.406.078.281.328.89.766 1.437.484.61.969.953 1.25 1.125zM7.391 1.25v-7.89h-.657v7.89zm0 0"/></symbol><symbol overflow="visible" id="Y"><path d="M5.61.89v-7.359h-.641v2.907h-1.14v-2.063H.796v5.094h3.031V-2.97h1.14v3.86zm1.64.36v-7.89h-.656v7.89zM3.187-1.11H1.454v-3.952h1.734zm0 0"/></symbol><symbol overflow="visible" id="Z"><path d="M4.734-3.125c0-1.766-.78-2.906-2.015-2.906C1.5-6.031.703-4.891.703-3.125c0 1.75.797 2.906 2.016 2.906 1.234 0 2.015-1.172 2.015-2.906zM7.22 1.25v-7.89h-.657v7.89zM4.094-3.14c0 1.265-.485 2.312-1.36 2.312-.875 0-1.375-1.047-1.375-2.313 0-1.234.5-2.28 1.375-2.28s1.36 1.046 1.36 2.28zm0 0"/></symbol><symbol overflow="visible" id="aa"><path d="M7.938-2v-.563H.171V-2zM7.14 1.078V.516H1.89v-1.844h-.657v2.406zm.312-4.812c-.422-.11-1.266-.36-1.969-.86-.703-.484-1.078-1.125-1.078-1.672v-.343h-.703v.343c0 .547-.375 1.188-1.078 1.672-.703.5-1.547.75-1.969.86l.406.437c.407-.094 1.25-.375 1.875-.828.563-.422 1.016-.938 1.11-1.266.11.329.547.844 1.125 1.266.625.453 1.469.734 1.875.828zm0 0"/></symbol><symbol overflow="visible" id="ab"><path d="M4.313-.766v-.562c-.329.047-.954.156-1.47.156l-1.28.016v-3.907h2.109v-.562H.906v5.047c.047 0 .969.015 1.75-.031.813-.016 1.375-.11 1.656-.157zM7.265 1.25v-7.89h-.641v3.124H5.422v-2.953h-.64v7.36h.64v-3.813h1.203V1.25zm0 0"/></symbol><symbol overflow="visible" id="ac"><path d="M7.016-5.688H1.125v.563h5.172c-.031 1.203-.453 3.563-.484 3.688h.64c.016-.047.219-1.032.344-2.016.11-.797.187-1.39.219-2.235zM7.937.141v-.547H4.829v-2.828h-.656v2.828H2.797v-2.828h-.64v2.828H.171V.14zm0 0"/></symbol><symbol overflow="visible" id="ad"><path d="M6.281.406l.016-6.297h-.734L3.421-.28l-2.125-5.61H.563V.406h.593v-5.031L3.063.406h.734l1.89-5.047V.406zm0 0"/></symbol><symbol overflow="visible" id="ae"><path d="M3.11-6.047c-1.72 0-2.813 1.36-2.813 3.313C.297-.766 1.39.594 3.109.594c1.72 0 2.829-1.36 2.829-3.328 0-1.954-1.11-3.313-2.829-3.313zm0 6.078C1.78.031.937-1.125.937-2.734c0-1.61.843-2.75 2.171-2.75 1.313 0 2.172 1.14 2.172 2.75C5.281-1.125 4.421.03 3.11.03zm0 0"/></symbol><symbol overflow="visible" id="af"><path d="M5.14-5.89h-.609l.016 4.25C4.547-.735 3.969.03 2.78.03c-1.203 0-1.75-.765-1.75-1.672v-4.25H.438v4.36C.438-.375 1.265.594 2.78.594c1.516 0 2.36-.969 2.36-2.125zm0 0"/></symbol><symbol overflow="visible" id="ag"><path d="M3.61-5.5v-.578H1.405v.578zM5.874.89v-7.343h-.656v3.234H3.953v.578H5.22V.891zm1.61.36v-7.89h-.641v7.89zM4.577-.813c-.266-.14-.64-.375-1.094-.968-.375-.485-.609-1.188-.609-1.844v-.406h1.516v-.563H.609v.563h1.563v.406c0 .64-.266 1.39-.656 1.906-.438.594-1.094 1-1.36 1.14l.516.454c.234-.125.719-.469 1.125-.938.39-.453.656-1 .719-1.25.062.25.328.766.703 1.188.422.484.797.734.953.813zm0 0"/></symbol><symbol overflow="visible" id="ah"><path d="M7.281-2.484v-4.157h-.656v1.22H5.062v.546h1.563v.969H4.922v.531h1.703v.89zm.188 3.656V.656H2.53v-.86h4.735v-1.874H1.859v.515h4.735v.86H1.859v1.875zM4.797-6.062H1.03v.546H3.97c-.078.266-.36 1.032-1.188 1.657-.781.593-1.656.875-2.25 1.03l.375.438a6.299 6.299 0 0 0 2.485-1.234c.812-.64 1.312-1.625 1.406-2.438zm0 0"/></symbol><symbol overflow="visible" id="ai"><path d="M4.828-5.36v-.53H.562V.405h.594v-2.875h3.266v-.547H1.156v-2.343zm0 0"/></symbol><symbol overflow="visible" id="aj"><path d="M1.125.406V-5.89H.562V.406zm0 0"/></symbol><symbol overflow="visible" id="ak"><path d="M4.656-.453v-5.438H4v1.97H1.516v-1.97H.859v5.438zM7.094 1.25v-7.89h-.657v7.89zM4-1H1.516v-2.344H4zm0 0"/></symbol><symbol overflow="visible" id="al"><path d="M7.422-2.219c-.36-.094-1.188-.469-1.86-.984-.609-.453-1.171-1.219-1.171-1.813v-.203h2.593v-.562H1.125v.562h2.578v.203c0 .594-.547 1.329-1.14 1.813-.672.515-1.516.89-1.876.969l.438.484a5.667 5.667 0 0 0 1.688-.906c.593-.453 1.124-1.11 1.234-1.39.11.296.656.968 1.25 1.405.672.5 1.36.813 1.687.891zM7.938.094V-.47H.171v.563zm0 0"/></symbol><symbol overflow="visible" id="am"><path d="M5.875-1.031v-.547a16.76 16.76 0 0 1-2.578.297L1.64-1.25v-4.64H.984v5.202c.079 0 1.375.016 2.282-.015.953-.031 2.062-.219 2.609-.328zM7.109 1.25v-7.89h-.671v7.89zm0 0"/></symbol><symbol overflow="visible" id="an"><path d="M7.469-2.188c-.375-.109-1.328-.546-2-1.171C4.844-3.938 4.422-4.75 4.422-5.5v-.61h-.734v.61c0 .75-.422 1.563-1.047 2.14-.672.626-1.625 1.063-2 1.172l.453.485c.312-.094 1.14-.484 1.812-1.063.578-.515 1.047-1.203 1.14-1.562.11.36.579 1.047 1.157 1.562.672.579 1.5.97 1.813 1.063zm.468 2.22v-.548H.173v.547zm0 0"/></symbol><symbol overflow="visible" id="ao"><path d="M7.938-2.906v-.547H6.563c.062-.25.171-.719.28-1.266a18.29 18.29 0 0 0 .22-1.593H1.234v.546h5.063a4.753 4.753 0 0 1-.11.72c-.421.093-1.234.124-1.968.171-.797.031-3 .031-3.11.031v.5c.11 0 2.11 0 3.079-.047a20.147 20.147 0 0 0 1.921-.125c-.078.407-.187.844-.234 1.063H.172v.547h3.515v.969H1.22v.546h4.953v.72H1.219v1.843h5.86V.625H1.937v-.75h4.937v-1.813h-2.5v-.968zm0 0"/></symbol><symbol overflow="visible" id="ap"><path d="M7.25-1.844V-6.64h-.656v1.032H4.406c-.375-.47-.984-.766-1.703-.766-1.234 0-2.125.86-2.125 1.922 0 1.062.89 1.922 2.125 1.922.75 0 1.375-.328 1.735-.813h2.156v1.5zM7.36-.14c0-.906-1-1.578-2.891-1.578-1.875 0-2.89.657-2.89 1.563 0 .906 1.015 1.562 2.89 1.562 1.89 0 2.89-.64 2.89-1.547zm-.766-3.765H4.719c.062-.172.11-.36.11-.547 0-.219-.048-.422-.11-.61h1.875zm-2.469-.547c0 .734-.5 1.328-1.422 1.328-.922 0-1.437-.594-1.437-1.328 0-.734.515-1.328 1.437-1.328s1.422.593 1.422 1.328zM2.265-.156c0-.64.891-1 2.204-1 1.297 0 2.203.39 2.203 1.015 0 .641-.906 1-2.203 1C3.156.86 2.266.47 2.266-.156zm0 0"/></symbol><symbol overflow="visible" id="aq"><path d="M7.125 1.25v-7.89h-.656v3.14H4.64c-.11-1.547-.875-2.531-2.016-2.531-1.219 0-2.016 1.14-2.016 2.906 0 1.75.797 2.906 2.016 2.906 1.188 0 1.953-1.062 2.016-2.687h1.828V1.25zm-3.14-4.39c0 1.265-.47 2.312-1.344 2.312-.875 0-1.375-1.047-1.375-2.313 0-1.234.5-2.28 1.375-2.28s1.343 1.046 1.343 2.28zm0 0"/></symbol><symbol overflow="visible" id="ar"><path d="M6.844-6.64h-.672v7.89h.672v-3.969h1.265v-.578H6.844zM4.562-3.126c0-2.188-1.109-2.906-2.03-2.906-.876 0-2.016.687-2.016 2.906 0 2.14 1.093 2.906 2.015 2.906.953 0 2.031-.765 2.031-2.906zm-.671-.016c0 1.266-.47 2.313-1.344 2.313-.875 0-1.36-1.047-1.36-2.313 0-1.234.485-2.28 1.36-2.28.875 0 1.344 1.046 1.344 2.28zm0 0"/></symbol><symbol overflow="visible" id="as"><path d="M4.688-5.719H1.046v.578h2.89c-.046.36-.14.907-.343 1.391a16.78 16.78 0 0 1-.813.063c-.562.046-1.922.046-2 .046v.532c.063 0 1.297 0 1.922-.032.203-.015.422-.03.64-.062-.124.25-.28.515-.468.75C2.265-1.61 1.297-.891.531-.5l.516.406c.875-.469 1.703-1.14 2.469-2.156.78-1.047 1.109-2.453 1.171-3.469zm2.171-.922h-.656V1.25h.656v-4h1.266v-.594H6.859zm0 0"/></symbol><symbol overflow="visible" id="at"><path d="M4.328-.734v-.563c-.312.063-.937.125-1.469.14l-1.296.016v-3.921h2.109v-.563H.906v5.063c.047 0 .985 0 1.766-.032.812-.031 1.375-.078 1.656-.14zM5.578.89v-7.36h-.64v2.907H3.405V-3h1.531V.89zm1.688.359v-7.89h-.641v7.89zm0 0"/></symbol></defs><g fill="#393536"><use xlink:href="#a" x="535.245" y="48.426"/><use xlink:href="#b" x="540.818" y="48.426"/><use xlink:href="#c" x="546.392" y="48.426"/></g><g fill="#4f4c4d"><use xlink:href="#d" x="336.467" y="47.727"/><use xlink:href="#e" x="344.467" y="47.727"/><use xlink:href="#f" x="352.468" y="47.727"/><use xlink:href="#g" x="360.468" y="47.727"/><use xlink:href="#h" x="368.468" y="47.727"/><use xlink:href="#i" x="371.075" y="47.727"/><use xlink:href="#j" x="379.075" y="47.727"/><use xlink:href="#k" x="387.076" y="47.727"/><use xlink:href="#l" x="395.076" y="47.727"/><use xlink:href="#m" x="403.076" y="47.727"/><use xlink:href="#n" x="411.076" y="47.727"/><use xlink:href="#d" x="419.077" y="47.727"/><use xlink:href="#e" x="427.077" y="47.727"/></g><use xlink:href="#o" x="435.076" y="47.727" fill="#231f20"/><g fill="#231f20"><use xlink:href="#p" x="437.683" y="47.727"/><use xlink:href="#q" x="445.683" y="47.727"/><use xlink:href="#r" x="453.684" y="47.727"/><use xlink:href="#s" x="461.684" y="47.727"/><use xlink:href="#t" x="469.684" y="47.727"/><use xlink:href="#u" x="477.684" y="47.727"/><use xlink:href="#v" x="485.685" y="47.727"/><use xlink:href="#w" x="493.685" y="47.727"/><use xlink:href="#x" x="496.292" y="47.727"/><use xlink:href="#y" x="501.703" y="47.727"/><use xlink:href="#z" x="506.503" y="47.727"/><use xlink:href="#A" x="508.436" y="47.727"/><use xlink:href="#w" x="511.043" y="47.727"/><use xlink:href="#B" x="513.65" y="47.727"/><use xlink:href="#C" x="517.605" y="47.727"/></g><use xlink:href="#D" x="261.538" y="345.004" fill="#33459a"/><g fill="#231f20"><use xlink:href="#E" x="269.554" y="345.004"/><use xlink:href="#F" x="274.417" y="345.004"/><use xlink:href="#G" x="279.28" y="345.004"/><use xlink:href="#H" x="281.438" y="345.004"/><use xlink:href="#I" x="286.301" y="345.004"/><use xlink:href="#G" x="291.164" y="345.004"/><use xlink:href="#F" x="293.322" y="345.004"/><use xlink:href="#J" x="298.185" y="345.004"/><use xlink:href="#J" x="301.18" y="345.004"/></g><use xlink:href="#K" x="304.174" y="345.004" fill="#616471"/><g fill="#231f20"><use xlink:href="#J" x="306.932" y="345.004"/><use xlink:href="#J" x="309.927" y="345.004"/></g><g fill="#33459a"><use xlink:href="#L" x="312.922" y="345.004"/><use xlink:href="#M" x="320.938" y="345.004"/><use xlink:href="#N" x="328.955" y="345.004"/><use xlink:href="#O" x="336.971" y="345.004"/><use xlink:href="#P" x="344.988" y="345.004"/><use xlink:href="#Q" x="353.004" y="345.004"/><use xlink:href="#R" x="361.021" y="345.004"/><use xlink:href="#S" x="369.037" y="345.004"/><use xlink:href="#T" x="377.053" y="345.004"/><use xlink:href="#U" x="382.454" y="345.004"/><use xlink:href="#V" x="390.47" y="345.004"/><use xlink:href="#W" x="398.486" y="345.004"/><use xlink:href="#X" x="406.503" y="345.004"/><use xlink:href="#Y" x="414.519" y="345.004"/><use xlink:href="#Z" x="422.536" y="345.004"/><use xlink:href="#aa" x="430.552" y="345.004"/><use xlink:href="#ab" x="438.569" y="345.004"/><use xlink:href="#O" x="446.585" y="345.004"/><use xlink:href="#ac" x="454.602" y="345.004"/><use xlink:href="#J" x="462.618" y="345.004"/><use xlink:href="#ad" x="465.613" y="345.004"/><use xlink:href="#ae" x="472.379" y="345.004"/><use xlink:href="#af" x="478.51" y="345.004"/><use xlink:href="#J" x="483.989" y="345.004"/><use xlink:href="#ag" x="486.984" y="345.004"/><use xlink:href="#ah" x="495.001" y="345.004"/></g><g fill="#33459a"><use xlink:href="#D" x="326.867" y="693.734"/><use xlink:href="#ai" x="334.884" y="693.734"/><use xlink:href="#ad" x="339.667" y="693.734"/><use xlink:href="#aj" x="346.433" y="693.734"/><use xlink:href="#J" x="348.036" y="693.734"/><use xlink:href="#ak" x="351.031" y="693.734"/><use xlink:href="#al" x="359.048" y="693.734"/><use xlink:href="#am" x="367.064" y="693.734"/><use xlink:href="#an" x="375.081" y="693.734"/><use xlink:href="#J" x="383.097" y="693.734"/><use xlink:href="#an" x="386.092" y="693.734"/><use xlink:href="#ao" x="394.109" y="693.734"/><use xlink:href="#J" x="402.125" y="693.734"/><use xlink:href="#J" x="405.12" y="693.734"/><use xlink:href="#K" x="408.115" y="693.734"/><use xlink:href="#J" x="410.873" y="693.734"/><use xlink:href="#J" x="413.868" y="693.734"/><use xlink:href="#ak" x="416.863" y="693.734"/><use xlink:href="#al" x="424.879" y="693.734"/><use xlink:href="#am" x="432.896" y="693.734"/><use xlink:href="#an" x="440.912" y="693.734"/><use xlink:href="#J" x="448.929" y="693.734"/><use xlink:href="#ap" x="451.924" y="693.734"/><use xlink:href="#aq" x="459.94" y="693.734"/><use xlink:href="#J" x="467.957" y="693.734"/><use xlink:href="#ar" x="470.952" y="693.734"/><use xlink:href="#as" x="478.968" y="693.734"/><use xlink:href="#at" x="486.985" y="693.734"/><use xlink:href="#L" x="495.001" y="693.734"/></g></svg>