<svg xmlns="http://www.w3.org/2000/svg" xmlns:xlink="http://www.w3.org/1999/xlink" width="793.701" height="1058.268" viewBox="0 0 595.276 793.701" version="1.2"><defs><symbol overflow="visible" id="a"><path d="M5.781-5.844h-.734V.453h.734zM2.297.453h.984l1.485-6.297h-.844L2.797-.484l-1.14-5.36H.811zM7-5.844h-.734V.453H7zm0 0"/></symbol><symbol overflow="visible" id="b"><path d="M.75.047v1.016h1.031V.046zm0 0"/></symbol><symbol overflow="visible" id="d"><path d="M7.781.375v-.656H4.406v-2.016h2.532v-.625H2.016v-2.64h4.843v-.641H1.281v3.906h2.36V-.28H.28v.656zm0 0"/></symbol><symbol overflow="visible" id="e"><path d="M4.031-3.703c1.813 0 2.875-.61 2.875-1.485 0-.875-1.062-1.5-2.875-1.5-1.797 0-2.875.625-2.875 1.485 0 .89 1.078 1.5 2.875 1.5zm0-.563c-1.234 0-2.078-.375-2.078-.937 0-.578.844-.922 2.078-.922 1.188 0 2.063.344 2.063.938 0 .562-.86.921-2.063.921zm3.735 1.907V-3H.28v.64h3.344v.97H1.281V1.28h5.5V-1.39H4.406v-.968zM6.03.64H2.016V-.75H6.03zm0 0"/></symbol><symbol overflow="visible" id="f"><path d="M4.453-5.703H6.86v-.64H1.203v.64H3.61c-.046.562-.406 1.031-.937 1.406s-1.266.64-2.063.813c.188.171.422.406.563.562.61-.156 1.219-.39 1.734-.719.469-.28.86-.656 1.125-1.125.297.547.813.97 1.375 1.266.5.281 1.047.469 1.5.578.157-.187.313-.36.516-.562-.625-.125-1.328-.36-1.875-.704-.594-.375-1.031-.875-1.094-1.515zm3.313 4.187v-.625H.28v.625h3.39V1.36h.782v-2.875zm0 0"/></symbol><symbol overflow="visible" id="g"><path d="M7.125-.75v-5.875h-.75V-.75zM3.219-5.438v-1h-.781v1c0 .688-.235 1.282-.594 1.75-.407.532-.985.938-1.64 1.235.202.156.5.39.64.515.406-.203.844-.5 1.187-.859.36-.344.656-.765.797-1.203.219.438.563.813.938 1.14.359.297.75.532 1.093.688.125-.156.329-.39.516-.578a3.556 3.556 0 0 1-1.516-1.031c-.375-.453-.64-1.031-.64-1.656zm4.125 6.641v-.64h-4.75v-1.938h-.766v2.578zm0 0"/></symbol><symbol overflow="visible" id="h"><path d="M6.797-3.344v-3.203h-.75v.984H2v-.984h-.734v3.203zm-.75-.64H2v-.97h4.047zm1.719 2.109v-.64H.28v.64h3.485v1.719h.75v-1.719zm-.704 3.078v-.64H2.016V-1.11H1.28v2.312zm0 0"/></symbol><symbol overflow="visible" id="i"><path d="M6.875-3.984v-.594H2.031v-1.234h4.75v-.594h-5.5v2.422zm.89 1.312v-.61H.282v.61zm-.812 3.969V.703H2.11v-.75h4.672v-1.89h-5.5v.593h4.672v.719H1.281v1.922zm0 0"/></symbol><symbol overflow="visible" id="j"><path d="M7.11-.75v-5.875h-.75V-.75zM.61-4.406c0 1.14.874 2.093 2.124 2.093 1.235 0 2.11-.953 2.11-2.093 0-1.172-.875-2.11-2.11-2.11-1.25 0-2.125.938-2.125 2.11zm.765 0c0-.828.5-1.469 1.36-1.469.859 0 1.359.64 1.359 1.469 0 .797-.5 1.437-1.36 1.437-.859 0-1.359-.64-1.359-1.437zm5.969 5.61V.562H2.562v-1.985h-.75v2.625zm0 0"/></symbol><symbol overflow="visible" id="k"><path d="M6.781-4.016v-2.39H1.266v2.39zm-.734-.593H2v-1.204h4.047zm1.719 1.875v-.61H.28v.61h3.344v.796H1.281v.594h4.672v.719H1.281v1.922h5.672V.703H2.11v-.75h4.672v-1.89H4.406v-.797zm0 0"/></symbol><symbol overflow="visible" id="l"><path d="M4.438-5.656v-.657h-.813v.657c0 .703-.344 1.36-.89 1.89-.563.547-1.329.97-2.157 1.22.235.218.438.421.578.593a5.89 5.89 0 0 0 1.703-.953c.516-.422.938-.922 1.172-1.469.219.531.672 1.063 1.203 1.484.547.438 1.157.766 1.672.938.14-.188.36-.39.547-.578a5.116 5.116 0 0 1-2.031-1.156c-.578-.547-.984-1.25-.984-1.97zM7.78.359v-.64H4.406v-2.016h-.765V-.28H.28v.64zm0 0"/></symbol><symbol overflow="visible" id="m"><path d="M7.203 1.375v-8h-.75v2.969h-1V-6.5H4.72V.984h.734v-3.921h1v4.312zM.781-6.063v.641h2.25c-.031.906-.25 1.734-.656 2.469-.469.828-1.14 1.547-2.094 2.156.203.11.547.313.703.453.938-.687 1.688-1.515 2.172-2.594.39-.859.61-1.89.64-3.124zm0 0"/></symbol><symbol overflow="visible" id="n"><path d="M4.61-8.531a8.282 8.282 0 0 0-1.594.828A7.178 7.178 0 0 0 1.687-6.5a6.863 6.863 0 0 0-.953 1.453A3.928 3.928 0 0 0 .36-3.359c0 .75.223 1.507.672 2.265C1.477-.344 2.13.031 2.984.031c.715 0 1.286-.27 1.704-.812.425-.551.64-1.16.64-1.828a2.92 2.92 0 0 0-.516-1.641c-.343-.508-.847-.766-1.5-.766-.167 0-.34.036-.515.094-.18.055-.34.145-.485.266a.984.984 0 0 0-.187.156c-.063.074-.094.145-.094.203 0 .031.004.067.016.094.02.023.047.031.078.031.059 0 .148-.078.266-.234.12-.164.347-.25.671-.25.208 0 .395.058.563.172a1.5 1.5 0 0 1 .453.421c.152.243.274.508.36.797.09.293.14.586.14.875 0 .282-.043.555-.125.813-.086.262-.21.52-.375.766-.125.18-.273.324-.437.437a1.095 1.095 0 0 1-.594.156c-.7 0-1.195-.375-1.485-1.125-.292-.758-.437-1.406-.437-1.937 0-.614.11-1.192.328-1.735.215-.539.524-1.05.922-1.53.309-.384.703-.75 1.172-1.095.476-.34.953-.597 1.422-.765.039-.02.093-.04.156-.063.07-.027.11-.066.11-.11 0-.038-.012-.07-.032-.093a.122.122 0 0 0-.094-.047.728.728 0 0 0-.265.078c-.117.055-.196.09-.235.11zm0 0"/></symbol><symbol overflow="visible" id="o"><path d="M5.781-5.844h-.734V.453h.734zM2.297.453h.984l1.485-6.297h-.844L2.797-.484l-1.14-5.36H.811zM7-5.844h-.734V.453H7zm0 0"/></symbol><symbol overflow="visible" id="p"><path d="M.75.047v1.016h1.031V.046zm0 0"/></symbol><symbol overflow="visible" id="r"><path d="M7.781.375v-.656H4.406v-2.016h2.532v-.625H2.016v-2.64h4.843v-.641H1.281v3.906h2.36V-.28H.28v.656zm0 0"/></symbol><symbol overflow="visible" id="s"><path d="M4.031-3.703c1.813 0 2.875-.61 2.875-1.485 0-.875-1.062-1.5-2.875-1.5-1.797 0-2.875.625-2.875 1.485 0 .89 1.078 1.5 2.875 1.5zm0-.563c-1.234 0-2.078-.375-2.078-.937 0-.578.844-.922 2.078-.922 1.188 0 2.063.344 2.063.938 0 .562-.86.921-2.063.921zm3.735 1.907V-3H.28v.64h3.344v.97H1.281V1.28h5.5V-1.39H4.406v-.968zM6.03.64H2.016V-.75H6.03zm0 0"/></symbol><symbol overflow="visible" id="t"><path d="M4.453-5.703H6.86v-.64H1.203v.64H3.61c-.046.562-.406 1.031-.937 1.406s-1.266.64-2.063.813c.188.171.422.406.563.562.61-.156 1.219-.39 1.734-.719.469-.28.86-.656 1.125-1.125.297.547.813.97 1.375 1.266.5.281 1.047.469 1.5.578.157-.187.313-.36.516-.562-.625-.125-1.328-.36-1.875-.704-.594-.375-1.031-.875-1.094-1.515zm3.313 4.187v-.625H.28v.625h3.39V1.36h.782v-2.875zm0 0"/></symbol><symbol overflow="visible" id="u"><path d="M7.125-.75v-5.875h-.75V-.75zM3.219-5.438v-1h-.781v1c0 .688-.235 1.282-.594 1.75-.407.532-.985.938-1.64 1.235.202.156.5.39.64.515.406-.203.844-.5 1.187-.859.36-.344.656-.765.797-1.203.219.438.563.813.938 1.14.359.297.75.532 1.093.688.125-.156.329-.39.516-.578a3.556 3.556 0 0 1-1.516-1.031c-.375-.453-.64-1.031-.64-1.656zm4.125 6.641v-.64h-4.75v-1.938h-.766v2.578zm0 0"/></symbol><symbol overflow="visible" id="v"><path d="M6.797-3.344v-3.203h-.75v.984H2v-.984h-.734v3.203zm-.75-.64H2v-.97h4.047zm1.719 2.109v-.64H.28v.64h3.485v1.719h.75v-1.719zm-.704 3.078v-.64H2.016V-1.11H1.28v2.312zm0 0"/></symbol><symbol overflow="visible" id="w"><path d="M6.875-3.984v-.594H2.031v-1.234h4.75v-.594h-5.5v2.422zm.89 1.312v-.61H.282v.61zm-.812 3.969V.703H2.11v-.75h4.672v-1.89h-5.5v.593h4.672v.719H1.281v1.922zm0 0"/></symbol><symbol overflow="visible" id="x"><path d="M7.11-.75v-5.875h-.75V-.75zM.61-4.406c0 1.14.874 2.093 2.124 2.093 1.235 0 2.11-.953 2.11-2.093 0-1.172-.875-2.11-2.11-2.11-1.25 0-2.125.938-2.125 2.11zm.765 0c0-.828.5-1.469 1.36-1.469.859 0 1.359.64 1.359 1.469 0 .797-.5 1.437-1.36 1.437-.859 0-1.359-.64-1.359-1.437zm5.969 5.61V.562H2.562v-1.985h-.75v2.625zm0 0"/></symbol><symbol overflow="visible" id="y"><path d="M6.781-4.016v-2.39H1.266v2.39zm-.734-.593H2v-1.204h4.047zm1.719 1.875v-.61H.28v.61h3.344v.796H1.281v.594h4.672v.719H1.281v1.922h5.672V.703H2.11v-.75h4.672v-1.89H4.406v-.797zm0 0"/></symbol><symbol overflow="visible" id="z"><path d="M4.438-5.656v-.657h-.813v.657c0 .703-.344 1.36-.89 1.89-.563.547-1.329.97-2.157 1.22.235.218.438.421.578.593a5.89 5.89 0 0 0 1.703-.953c.516-.422.938-.922 1.172-1.469.219.531.672 1.063 1.203 1.484.547.438 1.157.766 1.672.938.14-.188.36-.39.547-.578a5.116 5.116 0 0 1-2.031-1.156c-.578-.547-.984-1.25-.984-1.97zM7.78.359v-.64H4.406v-2.016h-.765V-.28H.28v.64zm0 0"/></symbol><symbol overflow="visible" id="A"><path d="M7.203 1.375v-8h-.75v2.969h-1V-6.5H4.72V.984h.734v-3.921h1v4.312zM.781-6.063v.641h2.25c-.031.906-.25 1.734-.656 2.469-.469.828-1.14 1.547-2.094 2.156.203.11.547.313.703.453.938-.687 1.688-1.515 2.172-2.594.39-.859.61-1.89.64-3.124zm0 0"/></symbol><symbol overflow="visible" id="B"><path d="M15.61 1.266v-14.5h-1.938v14.5zm-2.829 0v-14.5h-1.937v14.5zm-2.422-14.5H8.125L5.891-1.891 3.656-13.234H1.422l3.234 14.5h2.485zm0 0"/></symbol><symbol overflow="visible" id="C"><path d="M4.234 2.313V-.563H1.391v2.875zm0 0"/></symbol><symbol overflow="visible" id="E"><path d="M17.078.86v-2.016H9.891V-4.75h5.296v-2.016H4.845v-4.5h10.203v-2.015H2.562v8.531h4.97v3.594H.374V.859zm0 0"/></symbol><symbol overflow="visible" id="F"><path d="M17.078-5.047v-2.016H.375v2.016h7.188v1.734H2.468v5.907H15v-5.906H9.89v-1.735zM12.75.578H4.703v-1.875h8.047zm2.516-12.094c0-2.015-2.25-3.343-6.532-3.343-3.875 0-6.53 1.296-6.53 3.296 0 2.235 2.655 3.36 6.53 3.36 4.282 0 6.532-1.156 6.532-3.313zm-2.438.016c0 .938-1.625 1.516-4.094 1.516-2.5 0-4.078-.641-4.078-1.594 0-.938 1.532-1.547 4.078-1.547 2.5 0 4.094.672 4.094 1.625zm0 0"/></symbol><symbol overflow="visible" id="G"><path d="M10.125-12.14h5.047v-1.985H2.266v1.984h5.093c-.28.938-1.03 1.704-2.062 2.375-1.266.844-3.063 1.485-3.969 1.672l1.313 1.656c.906-.187 2.328-.656 3.687-1.484 1.125-.703 1.953-1.36 2.438-2.047.453.688 1.28 1.344 2.421 2.047 1.344.828 2.766 1.297 3.672 1.484l1.313-1.656c-.906-.187-2.688-.828-3.969-1.672-1.015-.671-1.781-1.437-2.078-2.375zm6.953 9.03v-1.984H.375v1.985h7.203v5.906h2.25V-3.11zm0 0"/></symbol><symbol overflow="visible" id="H"><path d="M15.875-2.078v-12.703h-2.203v12.703zm.375 4.469V.375H5.969v-3.469h-2.25v5.485zm-4.453-8.782c-.953-.359-2.172-1.14-3.14-2.234-.954-1.078-1.313-2.484-1.313-3.89v-1.782H5.016v1.781c0 1.454-.282 2.813-1.375 4.157C2.67-7.172 1.437-6.313.344-5.734l1.547 1.64c.687-.36 1.671-1 2.546-1.86.829-.796 1.375-1.515 1.75-2.234.47.735.985 1.297 1.61 1.86.89.797 2.062 1.453 2.703 1.703zm0 0"/></symbol><symbol overflow="visible" id="I"><path d="M17.078-3.828v-2.016H.375v2.016h7.547v3.047h2.234v-3.047zM15.547 2.39V.375H4.734v-2.813H2.47v4.829zM2.469-7.172H15v-7.469h-2.203v1.922H4.672v-1.922H2.469zm10.328-1.906H4.672v-1.719h8.125zm0 0"/></symbol><symbol overflow="visible" id="J"><path d="M17.078-5.797v-1.937H.375v1.937zM2.468-8.828h12.72v-1.938H4.733v-1.578H15v-1.937H2.469zM15.392 2.594V.734H4.844V-.28H15v-4.485H2.469v1.844h10.14v1.031H2.47v4.485zm0 0"/></symbol><symbol overflow="visible" id="K"><path d="M15.906-2.078v-12.703h-2.203v12.703zm.375 4.469V.375H5.97v-3.61H3.656v5.626zM5.86-14.234c-2.703 0-4.64 2.03-4.64 4.515 0 2.469 1.937 4.485 4.64 4.485 2.72 0 4.672-2.016 4.672-4.485 0-2.484-1.953-4.515-4.672-4.515zm0 2.015c1.563 0 2.422 1.14 2.422 2.5 0 1.328-.86 2.469-2.422 2.469-1.53 0-2.39-1.14-2.39-2.469 0-1.36.86-2.5 2.39-2.5zm0 0"/></symbol><symbol overflow="visible" id="L"><path d="M12.797-10.719H4.672v-1.687h8.125zM15-8.844v-5.437H2.469v5.437zM7.578-4.688h-5.11v1.829H12.61v1H2.47v4.453H15.39V.766H4.844v-1H15v-4.454H9.89v-1.156h7.188V-7.75H.375v1.906h7.203zm0 0"/></symbol><symbol overflow="visible" id="M"><path d="M8.734-8.828C9.11-8 10-7.063 11.156-6.125c1.235 1 2.766 1.625 3.578 1.938l1.422-1.625a13.414 13.414 0 0 1-4.203-2.5 5.886 5.886 0 0 1-1.969-4.422v-1.47h-2.5v1.47A5.847 5.847 0 0 1 5.5-8.313c-1.406 1.25-3 2.063-4.188 2.5l1.422 1.625c.813-.312 2.329-.937 3.563-1.937C7.453-7.063 8.39-8 8.734-8.828zM17.078.906v-2.031H9.891v-3.406H7.53v3.406H.375V.906zm0 0"/></symbol><symbol overflow="visible" id="N"><path d="M8.375-12.719H1.672v1.969h4.344c-.11 1.266-.422 3.297-1.485 5.234C3.594-3.78 1.844-2 .766-1.234L2.437 0c1.329-.984 3.25-2.922 4.516-5.594C7.97-7.78 8.375-11 8.375-12.719zm7.61 15.516v-17.578h-2.126v6.64h-1.671v-6.234h-2.126V2h2.126v-7.906h1.671v8.703zm0 0"/></symbol><symbol overflow="visible" id="O"><path d="M6.453-5.547c0 1.156-.766 2.031-1.89 2.031-1.079 0-1.891-.875-1.891-2.03 0-1.173.812-2.048 1.89-2.048 1.125 0 1.891.875 1.891 2.047zm1.422 0c0-2.312-2.39-2.734-2.531-2.766 0-.296.187-.312.031-.609-.219-.375-1.703-.5-1.703.031 0 .235.39.266.156.579 0 .03-2.578.421-2.578 2.78 0 1.86 1.703 2.97 3.313 2.97 1.593 0 3.312-1.11 3.312-2.985zm2.344-4.203l.062 9.656c0 1.36.047 2.64.5 2.625.531-.015.86-1.375.828-3.469l-.062-8.812c0-.734.344-1.156-.219-1.375-.39-.156-1.5-.328-1.703-.344-.953-.047-.969.39-.39.656.703.297.984.422.984 1.063zm0 0"/></symbol><symbol overflow="visible" id="Q"><path d="M6.703-8.297c1.063.485 3.297 1.547 4.14 1.922.954.438 1.61-.031.938-.688-.297-.328-.875-.687-1.219-.828-.5-.14-.578.047-1.109-.109-.406-.14-1.5-.578-2.203-.875.203-.219.453-.484.625-.734.266-.36.531-.547-.047-1-.375-.282-1.187-.641-1.484-.672-1.063-.11-.86.281-.5.5.562.328.61.515.468.781-.828 1.516-3 3.094-4.578 3.672-.484.187-.406.734.594.469 1.235-.329 2.969-1.172 4.375-2.438zm3.61 3.36c-.454.187-2.797.14-3.454.14H3.75c-1.36 0-1.906-.11-2.766-.14-.828-.047-1.25.296-.343.703 2.375 1.078 2.437.343 3.312.265.063-.015 1.14-.156 3.453-.172 2.157-.015 3.453-.03 4.438.047.828.047 1.672.032 1.703-.484.047-.719-2.031-.781-3.235-.36zm-.36 4.75c0-2.063-2.344-2.297-2.344-2.329 0-.25.22-.218.032-.515-.22-.281-1.594-.39-1.594.031 0 .156.39.203.156.484 0 .016-2.375.282-2.375 2.329 0 1.468 1.453 2.515 3.063 2.515 1.593 0 3.062-1.047 3.062-2.515zM8.531-.22c0 .953-.719 1.657-1.64 1.657-.938 0-1.641-.704-1.641-1.657 0-.969.703-1.672 1.64-1.672.923 0 1.641.704 1.641 1.672zm0 0"/></symbol><symbol overflow="visible" id="R"><path d="M9.5-4.25c.953-.016 1.64 0 2.234.031.829.032 1.657.016 1.672-.484.047-.688-2-.766-3.156-.313-.125.047-.36.079-.64.079.234-.344.453-.891.671-1.532.422-1.328.766-2.812.781-2.875.079-.5.672-.937-.218-1.14-.453-.11-1.094-.032-1.531.125-.47.156-5.329.265-6.516.078-1.11-.11-.781.39-.422.578 2 1.062 2.172.406 3 .312.016 0 3.5-.156 4.14-.187-.109 1.187-.203 1.844-.484 3.031-.172.719-.36 1.297-.344 1.656-.718.016-1.5 0-1.828 0l-3.046.016c-1.454.016-1.844-.063-2.704-.11-.812-.046-1.25.282-.359.688 2.281 1 2.344.313 3.266.234 0 0 .03 0 .109-.015l.016 3.687c0 1.344.109 2.641.546 2.625.516-.015.907-1.375.875-3.484l-.015-2.922c.5-.031 1.11-.031 1.844-.047.234 0 .468-.015.687-.015l.031 4.14c0 1.36.11 2.64.547 2.625.516-.015.906-1.375.875-3.469zm0 0"/></symbol><symbol overflow="visible" id="T"><path d="M7.203-6.547l-.031 1.484-3.219.047L3.922-6.5zM3.922-4.39l3.281-.062c.031.156.219.36.469.36.297 0 .64-.423.64-1.126l.032-2.718c0-.391.234-.625-.266-.797-.328-.141-.984-.188-1.203-.188-.75.047-.547.344-.266.453.375.14.594.203.594.516v.797l-3.281.047v-.485c0-.312.14-.562-.281-.734-.344-.094-.907-.14-1.188-.172-.797.063-.5.422-.344.484.454.141.672.204.672.547l.031 2.532c0 .796.297 1 .532 1 .297 0 .547-.313.578-.454zm.953 1.954l.047 2.359c0 1.078.094 2.11.453 2.11.422-.016.734-1.11.703-2.782l-.047-1.719c1.625-.015 2.61-.031 3.36.031.656.032 1.312.016 1.343-.39.032-.547-1.609-.61-2.53-.266C7.843-2.954 6-3 5.483-3H3.047C1.89-3 1.562-3.063.89-3.11c-.657-.03-1 .235-.282.563 1.813.813 1.86.266 2.594.203.031 0 .547-.078 1.672-.094zm0 0"/></symbol><symbol overflow="visible" id="U"><path d="M5.703-4.203c0 .687-.531 1.187-1.187 1.187-.672 0-1.204-.5-1.204-1.187 0-.688.532-1.203 1.204-1.203a1.18 1.18 0 0 1 1.187 1.203zm-.219-3.39c.766-.048.938-.688-.156-.72-.828-.03-1.156-.093-1.75-.187-.562-.094-.844.125-.453.406.453.313.781.5 1.078.531a6.07 6.07 0 0 0 1.281-.03zm2.891 5.687c-.766.125-2.078.281-3.313.422v-.86c.907-.187 1.75-.812 1.75-1.812 0-1.578-1.718-1.719-1.718-1.735.015-.171.187-.203 0-.39-.032-.016-.078-.063-.157-.078.938-.016 1.97 0 2.391.015.5 0 .719-.422.11-.687-.266-.125-1.11-.235-1.688 0-.453.172-1.953.172-2.547.172-.656-.016-1.062-.063-1.469-.11-.484-.047-1.109.094-.265.532 1.312.703 1.406.203 2.062.14.11-.016.219-.031.36-.031-.016.031-.016.047-.016.078 0 .125.281.156.14.344-.015.015-1.812.156-1.812 1.75 0 1 .844 1.61 1.735 1.797v.968c-.532.032-1.016.063-1.407.063-.422 0-.828-.031-1.187-.063-.969-.078-.844.344-.235.641 1.485.734 1.704.266 2.344.156 1.172-.094 3.578-.515 4.922-.781v1.297c0 1.078.047 2.11.406 2.11.422-.016.688-1.11.672-2.782l-.047-7.047c0-.594.266-.922-.172-1.094-.312-.14-1.218-.265-1.375-.28-.75-.048-.765.312-.312.515.562.25.781.344.781.86zm0 0"/></symbol><symbol overflow="visible" id="V"><path d="M7.469-.172c0 .719-.5 1.328-1.219 1.328-.75 0-1.266-.61-1.266-1.328 0-.734.532-1.344 1.266-1.344.719 0 1.219.61 1.219 1.344zM6.25 1.86c1.313 0 2.36-.828 2.36-2.03 0-1.641-1.782-1.845-1.782-1.86 0-.203.172-.188.016-.406-.172-.235-1.282-.313-1.282.015 0 .125.313.156.141.39 0 0-1.86.235-1.86 1.86 0 1.203 1.063 2.031 2.407 2.031zm2.313-6.937l-.016-2.719c0-.594.265-.922-.172-1.094-.313-.14-1.219-.265-1.375-.28-.75-.048-.766.312-.313.515.563.25.782.344.782.86l.062 4.374c.016.875.078 1.453.375 1.438.313 0 .672-.704.672-1.938l-.015-.64h1.718c.781 0 .938-.672.11-.844-.344-.047-.907-.063-1.032.078-.156.156-.5.203-.796.25zm-4.61.266c.61.515 1.469 1.234 1.875 1.593.61.547 1.063.219.797-.312-.047-.094-.438-.735-.797-.985-.266-.171-.297-.03-.625-.187a5.864 5.864 0 0 1-.828-.563 16.33 16.33 0 0 0 1.188-1.53c.312-.423.656-.938.14-1.11-.125-.047-.984-.094-1.219.031-.312.156-1.093.188-1.953.188-.515 0-.953-.047-1.094-.079-.671-.078-.812.188-.312.485 1.016.562 1.219.406 1.531.265 0 0 .25-.062.5-.093.328-.016.735-.079 1.297-.11C3.406-5.203 1.516-3.516.343-2.875c-.265.14-.156.531.641.203.688-.281 1.86-.984 2.97-2.14zm0 0"/></symbol><symbol overflow="visible" id="W"><path d="M4.156-6.078v-.516H1.61v.516zm1.157 1.234v-.515H.5v.515zM6.875-6.64h-.64V-.75h.64v-2.906h1.156v-.563H6.875zm-3.969 5c1.266 0 2.031-.625 2.031-1.343 0-.75-.75-1.375-2.03-1.375-1.25 0-2.032.625-2.032 1.375 0 .718.766 1.343 2.031 1.343zm4.219 2.72V.53H2.344V-1.14h-.656v2.22zM4.25-3c0 .453-.469.844-1.344.844-.86 0-1.328-.39-1.328-.844 0-.453.469-.86 1.328-.86.875 0 1.344.407 1.344.86zm0 0"/></symbol><symbol overflow="visible" id="X"><path d="M7.844-2.844v-.562H6.469c.047-.203.172-.735.281-1.313.094-.515.172-1.047.219-1.547H1.094v.547h5.125c-.078.828-.328 1.969-.407 2.313H.173v.562h3.39v1.672H1.11v.547h5.032V1.25h.656v-2.422H4.234v-1.672zm0 0"/></symbol><symbol overflow="visible" id="Y"><path d="M4.484-.453v-5.438h-.64v1.97H1.39v-1.97H.734v5.438zm3.454-2.453V-3.5H6.702v-3.14h-.656v7.89h.656v-4.156zM3.843-1H1.39v-2.344h2.453zm0 0"/></symbol><symbol overflow="visible" id="Z"><path d="M4.688-3.125c0-1.766-.766-2.906-2-2.906-1.204 0-1.985 1.14-1.985 2.906 0 1.75.781 2.906 1.985 2.906 1.234 0 2-1.172 2-2.906zM7.14 1.25v-7.89h-.657v7.89zM4.047-3.14c0 1.265-.469 2.312-1.344 2.312-.86 0-1.36-1.047-1.36-2.313 0-1.234.5-2.28 1.36-2.28.875 0 1.344 1.046 1.344 2.28zm0 0"/></symbol><symbol overflow="visible" id="aa"><path d="M7.844.281v-.547h-3.5v-1.843c1.64-.094 2.61-.985 2.61-2.047 0-1.14-1.11-2.047-2.938-2.047-1.844 0-2.938.906-2.938 2.047 0 1.062.969 1.953 2.594 2.047v1.843h-3.5v.547zM4.016-5.625c1.234 0 2.234.578 2.234 1.469 0 .875-.984 1.484-2.234 1.484s-2.25-.61-2.25-1.484c0-.89.984-1.469 2.25-1.469zm0 0"/></symbol><symbol overflow="visible" id="ab"><path d="M4.078-6.078v-.516H1.61v.516zm1.156 1.11V-5.5H.5v.531zm1.97 2.796V-6.64h-.641v1.688H5.296v.531h1.266v.828H5.155v.547h1.407v.875zm-4.345 0c1.282 0 2-.515 2-1.172 0-.64-.703-1.187-1.984-1.187C1.609-4.531.859-4 .859-3.344c0 .64.75 1.172 2 1.172zm4.329 3.344v-2.906h-.672v.875H2.453v-.86h-.672v2.89zM1.563-3.344c0-.422.437-.687 1.312-.687s1.297.328 1.297.687c0 .406-.422.656-1.297.656s-1.313-.265-1.313-.656zM6.516.625H2.453v-.953h4.063zm0 0"/></symbol><symbol overflow="visible" id="ac"><path d="M4.453-5.797v-.562H1.97v.562zm1.094 1.25v-.562H.89v.562zM7.14 1.25v-7.89h-.657v7.89zM6.125-.25v-.563c-.672.11-1.797.172-2.531.188v-.938c.953-.093 1.625-.625 1.625-1.25 0-.687-.828-1.296-1.969-1.296-1.156 0-1.938.593-1.938 1.28 0 .657.625 1.188 1.61 1.282v.938H.453v.562h2.75A35.578 35.578 0 0 0 6.125-.25zM4.562-2.813c0 .422-.53.735-1.312.735-.766 0-1.313-.313-1.313-.75 0-.422.547-.75 1.313-.75.781 0 1.313.328 1.313.765zm0 0"/></symbol><symbol overflow="visible" id="ae"><path d="M6.438-8.672v1.063h-4.25v2.796h3.984v1.063H2.188v3.016h4.328V.328H1v-9zm0 0"/></symbol><symbol overflow="visible" id="af"><path d="M5.125-.531a1.53 1.53 0 0 1-.797.734 2.888 2.888 0 0 1-1.125.219c-.844 0-1.488-.254-1.922-.75C.844-.836.625-1.555.625-2.484v-1.22c0-.444.063-.85.188-1.218.12-.371.3-.687.53-.937.227-.246.505-.438.829-.563.32-.133.68-.203 1.078-.203.508 0 .91.09 1.203.266.29.18.504.367.64.562v-3.312h1.173V.328H5.14v-.86zm-.016-3.594c0-.164-.043-.336-.125-.516a1.535 1.535 0 0 0-.359-.468 2.03 2.03 0 0 0-.563-.329 2.003 2.003 0 0 0-.703-.125c-.5 0-.894.18-1.171.532-.274.355-.407.863-.407 1.515v.829c0 .656.14 1.164.422 1.515.277.356.664.531 1.156.531.246 0 .477-.035.688-.109.207-.082.39-.195.547-.344.152-.152.281-.336.375-.547.09-.207.14-.445.14-.718zm0 0"/></symbol><symbol overflow="visible" id="ag"><path d="M.844-6.5h1.172v4.234c0 .586.113 1.008.343 1.266.227.25.586.375 1.079.375.195 0 .394-.035.593-.11.196-.07.375-.175.532-.312.152-.133.28-.305.375-.516.09-.207.14-.44.14-.703V-6.5h1.188V.328H5.125v-.86h-.016c-.199.313-.46.552-.78.72-.325.175-.724.265-1.188.265-.325 0-.63-.055-.907-.156a1.969 1.969 0 0 1-.718-.438 2.19 2.19 0 0 1-.5-.765c-.118-.301-.172-.66-.172-1.078zm0 0"/></symbol><symbol overflow="visible" id="ah"><path d="M3.469-6.625c.539 0 .988.074 1.344.219.351.136.664.316.937.531l-.563.906a3.097 3.097 0 0 0-.843-.468 2.922 2.922 0 0 0-.875-.125c-.219 0-.434.042-.64.125a1.38 1.38 0 0 0-.532.359 1.75 1.75 0 0 0-.36.61c-.093.25-.14.55-.14.89v.875c0 .367.047.68.14.937.09.262.22.477.375.641.153.156.333.277.532.36.207.074.422.109.64.109.434 0 .797-.055 1.079-.172.289-.121.554-.274.796-.453l.563.922c-.242.199-.559.375-.953.53-.387.165-.887.25-1.5.25-.918 0-1.63-.273-2.125-.812C.852-.94.609-1.71.609-2.703v-.86c0-.488.067-.921.204-1.296.132-.383.32-.707.562-.97.246-.257.55-.456.906-.593a3.35 3.35 0 0 1 1.188-.203zm0 0"/></symbol><symbol overflow="visible" id="ai"><path d="M2.781.422c-.668 0-1.199-.168-1.594-.5C.801-.418.61-.895.61-1.5v-.328c0-.582.188-1.055.563-1.422.383-.371 1-.563 1.844-.563h1.687v-.39c0-.457-.113-.797-.328-1.016-.21-.226-.559-.343-1.047-.343-.387 0-.726.066-1.015.187a5.978 5.978 0 0 0-.891.5l-.578-.89c.32-.239.687-.442 1.094-.61.402-.164.875-.25 1.406-.25.37 0 .71.05 1.015.14.301.094.563.239.782.423.226.187.406.417.53.687.122.273.188.582.188.922V.328H4.734V-.5H4.72a1.164 1.164 0 0 1-.266.344 1.841 1.841 0 0 1-.344.265c-.18.102-.37.18-.578.235-.21.05-.46.078-.75.078zm1.922-3.203H3.047c-.469 0-.805.097-1 .281-.2.18-.297.43-.297.75v.172c0 .336.113.582.344.734.226.149.5.219.812.219.29 0 .54-.035.75-.11.215-.07.414-.175.594-.312a.994.994 0 0 0 .344-.422c.07-.164.11-.379.11-.64zm0 0"/></symbol><symbol overflow="visible" id="aj"><path d="M1.36-5.469H.265V-6.5h1.093v-1.734h1.172V-6.5h1.75v1.031h-1.75v3.89c0 .212.02.38.063.5.039.126.097.227.172.298.07.062.16.113.265.14.114.024.227.032.344.032.29 0 .582-.055.875-.172l.188.984a4.19 4.19 0 0 1-.563.14 2.98 2.98 0 0 1-.672.079c-.637 0-1.105-.164-1.406-.484-.293-.32-.438-.829-.438-1.516zm0 0"/></symbol><symbol overflow="visible" id="ak"><path d="M2.156-6.5V.328H.984V-6.5zm.031-2.453v1.328H.938v-1.328zm0 0"/></symbol><symbol overflow="visible" id="al"><path d="M3.563-6.625c.902 0 1.624.273 2.156.813.527.542.797 1.308.797 2.296v.829c0 .992-.27 1.757-.797 2.296-.532.54-1.254.813-2.157.813-.917 0-1.644-.274-2.171-.813C.867-.93.609-1.695.609-2.687v-.829c0-.996.258-1.765.782-2.296.527-.54 1.254-.813 2.171-.813zm0 5.984c.519 0 .94-.175 1.265-.53.332-.352.5-.891.5-1.61v-.64c0-.716-.168-1.255-.5-1.61-.324-.352-.746-.532-1.266-.532-.53 0-.96.18-1.28.532-.325.355-.485.894-.485 1.61v.64c0 .719.16 1.258.484 1.61.32.355.75.53 1.281.53zm0 0"/></symbol><symbol overflow="visible" id="am"><path d="M6.406.328H5.234v-4.25c0-.57-.12-.988-.359-1.25-.23-.258-.59-.39-1.078-.39-.211 0-.414.039-.61.109a1.636 1.636 0 0 0-.922.828c-.093.21-.14.45-.14.719V.328H.937V-6.5h1.141v.86h.016c.195-.32.46-.567.797-.735.332-.164.726-.25 1.187-.25.32 0 .625.055.906.156.278.094.524.242.735.438.215.199.383.457.5.765.12.305.187.664.187 1.079zm0 0"/></symbol><symbol overflow="visible" id="ar"><path d="M1-8.672h3.11c.495 0 .93.067 1.296.188.364.125.66.304.89.53.24.231.415.509.532.829.121.313.188.652.188 1.016v.265c0 .367-.067.711-.188 1.032a2.337 2.337 0 0 1-.562.843 2.637 2.637 0 0 1-.907.578c-.355.137-.773.204-1.25.204H2.188V.328H1zm1.188 1.063v3.359h1.718c1.258 0 1.89-.54 1.89-1.625v-.219c0-.508-.151-.89-.452-1.14-.305-.246-.739-.375-1.297-.375zm0 0"/></symbol><symbol overflow="visible" id="as"><path d="M3-.625c.434 0 .773-.078 1.016-.234a.738.738 0 0 0 .375-.657v-.093a.941.941 0 0 0-.063-.36.602.602 0 0 0-.234-.265 2.26 2.26 0 0 0-.469-.204 11.98 11.98 0 0 0-.75-.203 5.824 5.824 0 0 1-.969-.265 3.106 3.106 0 0 1-.718-.39 1.5 1.5 0 0 1-.454-.563 1.914 1.914 0 0 1-.14-.766v-.156c0-.227.047-.457.14-.688.102-.226.254-.426.454-.593.195-.165.453-.301.765-.407.309-.101.68-.156 1.11-.156.445 0 .867.055 1.265.156.395.106.754.278 1.078.516l-.515.906a2.57 2.57 0 0 0-.782-.39 3.051 3.051 0 0 0-.968-.157c-.493 0-.848.082-1.063.235a.709.709 0 0 0-.312.593v.11c0 .273.109.472.328.593.215.125.586.243 1.11.344a6.41 6.41 0 0 1 1.046.281c.3.106.547.243.734.407.196.156.344.351.438.578.09.219.14.492.14.812v.157c0 .261-.058.511-.171.75a1.9 1.9 0 0 1-.5.609 2.572 2.572 0 0 1-.797.39 3.385 3.385 0 0 1-1.047.157A4.763 4.763 0 0 1 1.53.188C1.082.039.7-.156.391-.406l.546-.938c.29.211.602.383.938.516.34.137.719.203 1.125.203zm0 0"/></symbol><symbol overflow="visible" id="an"><path d="M3.61-6.906H.624V.39h.453v-3.016H3.61c1.391 0 2.407-.781 2.407-2.094C6.016-6.03 5-6.906 3.609-6.906zm.015 3.89H1.078v-3.5h2.547c1.031 0 1.89.61 1.89 1.797 0 1.14-.859 1.703-1.89 1.703zm0 0"/></symbol><symbol overflow="visible" id="ao"><path d="M4.969.39v-3.562c0-1.11-.813-1.922-1.86-1.922-1 0-1.609.453-2.03 1v-2.812H.624V.39h.453v-3.532c0-.578.797-1.53 1.89-1.53.891 0 1.532.64 1.532 1.593V.39zm0 0"/></symbol><symbol overflow="visible" id="ap"><path d="M1.297.11H.39v.921h.906zm0 0"/></symbol><symbol overflow="visible" id="aq"><path d="M2.922-6.906H.625V.39h2.297c2.015 0 3.36-1.579 3.36-3.641 0-2.063-1.345-3.656-3.36-3.656zM2.844.016H1.078v-6.532h1.766c1.89 0 2.922 1.438 2.922 3.266 0 1.703-1.032 3.266-2.922 3.266zm0 0"/></symbol><symbol overflow="visible" id="at"><path d="M5.047-1.484c1.547 0 2.672.53 2.672 1.39 0 .844-1.125 1.36-2.672 1.36-1.563 0-2.703-.516-2.703-1.36 0-.86 1.14-1.39 2.703-1.39zm-.016-.407c-2.078 0-3.218.75-3.218 1.782 0 1.046 1.14 1.78 3.218 1.78 2.094 0 3.235-.734 3.235-1.78 0-1.032-1.141-1.782-3.235-1.782zm2.86-2.921h1.406v-.422H7.89v-2.532h-.516v5.672h.516zM3.53-6.516v-.921h-.515v.921c0 2-1.922 3.407-2.797 3.797l.39.328c.313-.156 2.016-1.078 2.672-2.953.672 1.625 2.172 2.422 2.766 2.719l.328-.39c-.86-.36-2.844-1.563-2.844-3.5zm0 0"/></symbol><symbol overflow="visible" id="au"><path d="M8.36 1.36v-3.188H2.233v3.187zM2.75-1.423h5.11v2.36H2.75zm5.078-6.344v5.313h.516v-5.313zm-2.422 2.5c0-1.218-.953-2.171-2.36-2.171-1.421 0-2.374.953-2.374 2.171 0 1.22.953 2.157 2.375 2.157 1.406 0 2.36-.938 2.36-2.157zm-.547 0c0 .938-.625 1.688-1.812 1.688-1.203 0-1.813-.75-1.813-1.688 0-.937.61-1.671 1.813-1.671 1.187 0 1.812.734 1.812 1.671zm0 0"/></symbol><symbol overflow="visible" id="av"><path d="M1.469-3.406H7.89v-3.985h-.516v1.344h-5.39V-7.39h-.516zm.515-.422v-1.797h5.391v1.797zm7.172 1.797H.203v.422h4.219v3.078h.516V-1.61h4.218zm0 0"/></symbol><symbol overflow="visible" id="aw"><path d="M7.734-7.766V1.47h.5v-9.235zm-2.53.86v-.438H2.358v.438zm1.28 1.468v-.406H1.11v.407zm.782 4.97v-.423C6.53-.78 5.78-.75 4.75-.719c-.156.016-.453.016-.688.016v-1.172c1.204-.078 2.016-.688 2.016-1.438 0-.78-.922-1.453-2.266-1.453-1.343 0-2.187.641-2.187 1.438 0 .765.734 1.375 1.938 1.453v1.188h-3v.421l4.203-.03c1-.032 1.78-.095 2.5-.173zM5.578-3.314c0 .579-.672 1.016-1.75 1.016-1.031 0-1.75-.453-1.75-1.031 0-.578.703-1.031 1.735-1.031 1.062 0 1.765.468 1.765 1.046zm0 0"/></symbol><symbol overflow="visible" id="ax"><path d="M5.094-1.453c1.547 0 2.703.5 2.703 1.36 0 .843-1.156 1.327-2.703 1.327-1.563 0-2.719-.484-2.719-1.328 0-.86 1.156-1.36 2.719-1.36zm0-.438c-2.094 0-3.25.75-3.25 1.782C1.844.937 3 1.67 5.094 1.67c2.093 0 3.234-.734 3.234-1.78 0-1.032-1.14-1.782-3.234-1.782zm2.922-3.062h1.406v-.453H8.016v-2.36H7.5v5.672h.516zM3.609-6.656h2.172v-.422H.97v.422h2.14v.265c0 .954-.421 1.688-.828 2.141C1.703-3.562.86-3.11.406-2.89l.36.359c.265-.125 1.078-.594 1.609-1.14.484-.5.844-.97.984-1.47.188.5.438.86.907 1.375.562.594 1.406.891 1.625.985l.312-.39c-.281-.095-1.125-.407-1.703-1.017-.5-.515-.89-1.25-.89-2.203zm0 0"/></symbol><symbol overflow="visible" id="az"><path d="M3.906-7.656h-.422L.063 1.766h.421zm0 0"/></symbol><symbol overflow="visible" id="aA"><path d="M6.563-6.89h-.438L3.281-.14.437-6.89H.017L3.046.39h.47zm0 0"/></symbol><symbol overflow="visible" id="aB"><path d="M1.188-6.203v-.688H.53v.688zM1.093.39v-5.454H.625V.391zm0 0"/></symbol><symbol overflow="visible" id="aC"><path d="M4.469-1.078c-.203.719-.875 1.25-1.75 1.25C1.547.172.75-.86.75-2.25c0-1.406.797-2.422 1.969-2.422 1.11 0 1.64.813 1.781 1.344h.453c-.11-.735-.922-1.766-2.234-1.766C1.203-5.094.28-3.844.28-2.25.281-.687 1.203.61 2.72.61a2.274 2.274 0 0 0 2.234-1.688zm0 0"/></symbol><symbol overflow="visible" id="aD"><path d="M5.11-2.234C5.14-4 4.03-5.125 2.686-5.125 1.204-5.125.281-3.844.281-2.281c0 1.578.922 2.875 2.406 2.875 1.297.015 1.97-.86 2.204-1.563l-.47-.015C4.22-.344 3.657.172 2.688.172 1.766.172.734-.781.72-2.218zM.75-2.61c0-1.172.89-2.125 1.938-2.11.968 0 1.937.844 1.953 2.11zm0 0"/></symbol><symbol overflow="visible" id="aE"><path d="M3.016-5.11c-.813 0-1.579.532-1.938 1.235v-1.016H.625v7h.453V-.67A2.122 2.122 0 0 0 3.016.593c1.421 0 2.328-1.25 2.328-2.844 0-1.594-.922-2.86-2.328-2.86zM2.953.173c-1.156 0-1.89-1.078-1.89-2.422 0-1.36.734-2.453 1.89-2.453 1.172 0 1.906 1.094 1.906 2.453C4.86-.906 4.125.172 2.953.172zm0 0"/></symbol><symbol overflow="visible" id="aF"><path d="M3.078-5.078c-.234-.031-.75.031-1.11.234-.343.172-.655.532-.89.797v-.844H.625V.391h.453v-3.157c0-.859.313-1.218.89-1.625.376-.265.845-.265 1.11-.265zm0 0"/></symbol><symbol overflow="visible" id="aG"><path d="M3.5-2.25c-.453-.188-1.078-.234-1.516-.39C1.641-2.75.781-3.048.828-3.673c.047-.719.75-1.047 1.563-1.047C3.359-4.719 4-4.094 4-3.39h.453c.047-.703-.672-1.75-2.047-1.75-1.312 0-1.953.766-2.015 1.485-.047.703.656 1.094 1.171 1.281.454.188 1.125.219 1.594.39.516.204 1.11.516 1.031 1.126-.109.75-1 1.062-1.718 1.062-.89 0-1.89-.406-1.86-1.375H.156C.11-.39.75.641 2.484.625 3.781.625 4.5-.109 4.61-.906c.094-.781-.625-1.156-1.109-1.344zm0 0"/></symbol><symbol overflow="visible" id="aH"><path d="M5 .422v-7.328h-.469v3.031c-.39-.734-1.125-1.219-1.953-1.219C1.172-5.094.266-3.859.266-2.25c0 1.563.906 2.86 2.312 2.86.828 0 1.61-.516 1.969-1.282L4.53.422zM2.64.188C1.47.188.75-.907.75-2.25c0-1.36.719-2.438 1.89-2.438 1.157 0 1.891 1.079 1.891 2.438 0 1.344-.734 2.438-1.89 2.438zm0 0"/></symbol><symbol overflow="visible" id="aI"><path d="M4.969.39v-3.562c0-1.11-.813-1.922-1.86-1.922-.984 0-1.656.422-2.015 1.032l-.016-.829H.625V.391h.453v-3.438c0-.703.797-1.625 1.89-1.625.891 0 1.532.64 1.532 1.594V.39zm0 0"/></symbol><symbol overflow="visible" id="aJ"><path d="M1.922-4.61v-.406L1.188-5v-1.61h-.47V-5l-.624-.016v.407h.625v3.984c0 .297.015.516.14.688.094.171.297.343.532.343h.437v-.39c-.172 0-.39.03-.531-.094-.14-.125-.11-.297-.11-.578V-4.61zm0 0"/></symbol></defs><g fill="#231f20"><use xlink:href="#a" x="74.885" y="47.763"/><use xlink:href="#b" x="82.886" y="47.763"/><use xlink:href="#c" x="85.492" y="47.763"/><use xlink:href="#d" x="88.099" y="47.763"/><use xlink:href="#e" x="96.1" y="47.763"/><use xlink:href="#f" x="104.1" y="47.763"/><use xlink:href="#g" x="112.1" y="47.763"/><use xlink:href="#c" x="120.1" y="47.763"/><use xlink:href="#h" x="122.707" y="47.763"/><use xlink:href="#i" x="130.707" y="47.763"/><use xlink:href="#c" x="138.708" y="47.763"/><use xlink:href="#j" x="141.315" y="47.763"/><use xlink:href="#k" x="149.315" y="47.763"/><use xlink:href="#c" x="157.315" y="47.763"/><use xlink:href="#l" x="159.922" y="47.763"/><use xlink:href="#m" x="167.922" y="47.763"/></g><g fill="#393536"><use xlink:href="#n" x="42.468" y="48.426"/><use xlink:href="#n" x="48.041" y="48.426"/></g><g fill="#393536"><use xlink:href="#n" x="42.468" y="48.426"/><use xlink:href="#n" x="48.041" y="48.426"/></g><g fill="#231f20"><use xlink:href="#o" x="74.885" y="47.763"/><use xlink:href="#p" x="82.886" y="47.763"/><use xlink:href="#q" x="85.492" y="47.763"/><use xlink:href="#r" x="88.099" y="47.763"/><use xlink:href="#s" x="96.1" y="47.763"/><use xlink:href="#t" x="104.1" y="47.763"/><use xlink:href="#u" x="112.1" y="47.763"/><use xlink:href="#q" x="120.1" y="47.763"/><use xlink:href="#v" x="122.707" y="47.763"/><use xlink:href="#w" x="130.707" y="47.763"/><use xlink:href="#q" x="138.708" y="47.763"/><use xlink:href="#x" x="141.315" y="47.763"/><use xlink:href="#y" x="149.315" y="47.763"/><use xlink:href="#q" x="157.315" y="47.763"/><use xlink:href="#z" x="159.922" y="47.763"/><use xlink:href="#A" x="167.922" y="47.763"/></g><g fill="#33459a"><use xlink:href="#B" x="76.442" y="106.912"/><use xlink:href="#C" x="93.522" y="106.912"/><use xlink:href="#D" x="98.816" y="106.912"/><use xlink:href="#E" x="105.079" y="106.912"/><use xlink:href="#F" x="122.158" y="106.912"/><use xlink:href="#G" x="139.237" y="106.912"/><use xlink:href="#H" x="156.316" y="106.912"/><use xlink:href="#D" x="173.396" y="106.912"/><use xlink:href="#I" x="179.658" y="106.912"/><use xlink:href="#J" x="196.737" y="106.912"/><use xlink:href="#D" x="213.816" y="106.912"/><use xlink:href="#K" x="220.079" y="106.912"/><use xlink:href="#L" x="237.158" y="106.912"/><use xlink:href="#D" x="254.237" y="106.912"/><use xlink:href="#M" x="260.5" y="106.912"/><use xlink:href="#N" x="277.579" y="106.912"/></g><g fill="#33459a"><use xlink:href="#O" x="206.678" y="317.526"/><use xlink:href="#P" x="220.193" y="317.526"/><use xlink:href="#Q" x="225.134" y="317.526"/><use xlink:href="#P" x="238.649" y="317.526"/><use xlink:href="#R" x="243.59" y="317.526"/></g><use xlink:href="#S" x="257.104" y="317.526" fill="#33459a"/><g fill="#33459a"><use xlink:href="#T" x="262.045" y="316.627"/><use xlink:href="#U" x="272.857" y="316.627"/><use xlink:href="#V" x="283.669" y="316.627"/></g><g fill="#231f20"><use xlink:href="#W" x="206.678" y="338.04"/><use xlink:href="#X" x="214.525" y="338.04"/><use xlink:href="#Y" x="222.373" y="338.04"/><use xlink:href="#Z" x="230.22" y="338.04"/><use xlink:href="#aa" x="238.068" y="338.04"/><use xlink:href="#ab" x="245.915" y="338.04"/><use xlink:href="#ac" x="253.762" y="338.04"/><use xlink:href="#ad" x="261.61" y="338.04"/></g><g fill="#fff"><use xlink:href="#ae" x="119.052" y="397.028"/><use xlink:href="#af" x="126.052" y="397.028"/><use xlink:href="#ag" x="133.027" y="397.028"/><use xlink:href="#ah" x="139.991" y="397.028"/><use xlink:href="#ai" x="145.913" y="397.028"/><use xlink:href="#aj" x="152.355" y="397.028"/><use xlink:href="#ak" x="156.824" y="397.028"/><use xlink:href="#al" x="159.718" y="397.028"/><use xlink:href="#am" x="166.597" y="397.028"/></g><path d="M76.441 432.98h424.68" fill="none" stroke-width=".299637" stroke="#33459a" stroke-miterlimit="10"/><g fill="#231f20"><use xlink:href="#an" x="77.858" y="425.22"/><use xlink:href="#ao" x="83.819" y="425.22"/><use xlink:href="#ap" x="89.129" y="425.22"/><use xlink:href="#aq" x="91.225" y="425.22"/></g><g fill="#fff"><use xlink:href="#ar" x="119.052" y="487.882"/><use xlink:href="#al" x="126.282" y="487.882"/><use xlink:href="#as" x="133.16" y="487.882"/><use xlink:href="#ak" x="138.949" y="487.882"/><use xlink:href="#aj" x="141.844" y="487.882"/><use xlink:href="#ak" x="146.312" y="487.882"/><use xlink:href="#al" x="149.207" y="487.882"/><use xlink:href="#am" x="156.085" y="487.882"/></g><path d="M76.441 523.977h424.68" fill="none" stroke-width=".299637" stroke="#33459a" stroke-miterlimit="10"/><g fill="#231f20"><use xlink:href="#at" x="77.858" y="516.216"/><use xlink:href="#au" x="87.013" y="516.216"/><use xlink:href="#av" x="96.169" y="516.216"/><use xlink:href="#aw" x="105.324" y="516.216"/><use xlink:href="#ax" x="114.48" y="516.216"/><use xlink:href="#ay" x="123.635" y="516.216"/><use xlink:href="#az" x="126.992" y="516.216"/><use xlink:href="#ay" x="130.756" y="516.216"/><use xlink:href="#aA" x="134.113" y="516.216"/><use xlink:href="#aB" x="140.46" y="516.216"/><use xlink:href="#aC" x="141.956" y="516.216"/><use xlink:href="#aD" x="146.961" y="516.216"/><use xlink:href="#ay" x="152.149" y="516.216"/><use xlink:href="#aE" x="155.506" y="516.216"/><use xlink:href="#aF" x="160.907" y="516.216"/><use xlink:href="#aD" x="163.898" y="516.216"/><use xlink:href="#aG" x="169.086" y="516.216"/><use xlink:href="#aB" x="173.664" y="516.216"/><use xlink:href="#aH" x="175.159" y="516.216"/><use xlink:href="#aD" x="180.551" y="516.216"/><use xlink:href="#aI" x="185.739" y="516.216"/><use xlink:href="#aJ" x="191.049" y="516.216"/><use xlink:href="#ay" x="193.033" y="516.216"/></g></svg>