<svg xmlns="http://www.w3.org/2000/svg" xmlns:xlink="http://www.w3.org/1999/xlink" width="793.701" height="1058.268" viewBox="0 0 595.276 793.701" version="1.2"><defs><clipPath id="h"><path d="M0 412h594.555v2H0zm0 0"/></clipPath><symbol overflow="visible" id="a"><path d="M2.875.031c.434 0 .82-.144 1.156-.437.332-.301.594-.64.782-1.016.183-.34.316-.71.39-1.11.082-.402.125-.804.125-1.202 0-.403-.05-.813-.14-1.22a4.843 4.843 0 0 0-.407-1.155A3.031 3.031 0 0 0 4-7.063a1.747 1.747 0 0 0-1.14-.421c-.844 0-1.473.457-1.876 1.359-.406.906-.609 1.707-.609 2.39 0 .712.203 1.52.61 2.422C1.386-.413 2.02.032 2.874.032zm0-.281c-.75 0-1.227-.441-1.422-1.328-.2-.895-.297-1.613-.297-2.156 0-.54.098-1.254.297-2.141.195-.895.672-1.344 1.422-1.344.363 0 .648.137.86.407.206.273.363.566.468.875.113.343.195.71.25 1.093.059.387.094.758.094 1.11 0 .324-.035.675-.094 1.046a9.33 9.33 0 0 1-.203 1.016c-.094.336-.254.66-.469.969-.21.305-.511.453-.906.453zm0 0"/></symbol><symbol overflow="visible" id="b"><path d="M1.875-1.047h-.203c-.117 0-.172-.02-.172-.062 0-.04.031-.102.094-.188.058-.09.11-.156.14-.187L3.656-3.36c.34-.301.66-.633.953-1 .29-.371.438-.805.438-1.297 0-.559-.227-1-.672-1.313a2.416 2.416 0 0 0-1.453-.484c-.375 0-.723.066-1.031.187-.313.125-.598.34-.844.641a6.377 6.377 0 0 1-.219.328c-.117.168-.172.293-.172.375 0 .031.008.059.031.078.02.024.047.032.079.032.05 0 .093-.024.125-.079.039-.05.07-.093.093-.125.153-.3.375-.55.657-.75.277-.207.597-.312.953-.312.445 0 .812.144 1.094.422.277.281.421.644.421 1.078 0 .555-.23 1.121-.687 1.703-.45.574-.852 1.059-1.203 1.453L.703-.594a.789.789 0 0 1-.094.156.3.3 0 0 0-.062.157c0 .074.047.11.14.11.09-.009.165-.016.22-.016h3.968a.406.406 0 0 0 .188-.032c.039-.027.062-.082.062-.156v-1.328-.156c0-.059-.043-.094-.125-.094-.063 0-.102.035-.11.094-.011.054-.023.105-.03.156-.032.293-.114.476-.235.547-.125.074-.336.11-.625.11zm0 0"/></symbol><symbol overflow="visible" id="c"><path d="M5.422-5.844V.453h.797v-6.297zm-3.563 0V.453h.813v-6.297zm1.782 0V.453h.812v-6.297zm0 0"/></symbol><symbol overflow="visible" id="d"><path d="M.75.047v1.016h1.031V.046zm0 0"/></symbol><symbol overflow="visible" id="f"><path d="M4.453-5.328v-.234H6.86v-.641H1.203v.64H3.61v.235c0 .703-.343 1.266-.859 1.703-.563.484-1.36.828-2.203 1.063.25.203.422.39.578.578.61-.204 1.234-.5 1.75-.86s.938-.781 1.156-1.312c.235.547.735 1.031 1.313 1.406.515.344 1.093.61 1.578.75l.562-.563c-.75-.187-1.53-.562-2.125-1.062-.53-.453-.906-1.031-.906-1.703zM7.781.359v-.64H4.406v-1.953h-.765v1.953H.28v.64zm0 0"/></symbol><symbol overflow="visible" id="g"><path d="M7.234-1.813v-4.812h-.75v4.813zM7.22 1.422v-2.844H1.78v.64h4.672v2.204zM3.39-5.36v-.266h1.671v-.64H.923v.64h1.703v.25c0 .625-.203 1.14-.547 1.578C1.641-3.25 1-2.859.281-2.562c.219.156.516.374.64.5.47-.22.907-.5 1.282-.86.344-.297.64-.687.813-1.125.234.438.562.781.937 1.063.39.296.797.515 1.156.671.125-.156.329-.359.516-.53C5-3.048 4.422-3.392 4-3.86c-.375-.422-.61-.907-.61-1.5zm0 0"/></symbol><symbol overflow="visible" id="i"><path d="M1.344-8.563h2.312v1.47c0 .405-.082.788-.234 1.14a3.565 3.565 0 0 1-.625.969 5.45 5.45 0 0 1-.938.906 11.87 11.87 0 0 1-1.171.766l.765.796c.59-.363 1.133-.75 1.625-1.156.488-.414.89-.86 1.203-1.328.414.398.867.793 1.36 1.188A64 64 0 0 0 7-2.75l.75-.828a24.182 24.182 0 0 1-1.531-1.156 21.43 21.43 0 0 1-1.453-1.282c.05-.152.086-.312.109-.468.027-.164.047-.336.047-.516v-1.563H7.25v-1H1.344zM9.172-1.25h1.265v-8.969l-1.265.203v2.86H6.75v1.031h2.422zm-5.89-.578V1.14c0 .332.062.566.187.703.133.144.398.218.797.218h6.453V1.048H4.766c-.086 0-.137-.02-.157-.047-.023-.031-.03-.09-.03-.172v-2.656zm0 0"/></symbol><symbol overflow="visible" id="j"><path d="M6.86-.469v-2.687h4.593v-1.031H.422v1.03h5.14v2.688zM2.03-1.829v2.97c0 .332.063.566.188.703.133.144.394.218.781.218h6.938V1.048H3.516c-.086 0-.145-.02-.172-.047C3.32.969 3.313.91 3.313.828v-2.656zm1.422-6.968H8.36v2.25H3.703c-.105 0-.176-.016-.203-.047-.031-.039-.047-.101-.047-.187zM2.172-6.453c0 .355.078.598.234.719.153.125.39.187.703.187h6.547v-4.25H2.172zm0 0"/></symbol><symbol overflow="visible" id="k"><path d="M3.203 1.344c0 .332.078.566.235.703.164.144.406.219.718.219h6.282V-2.47H3.202zm1.594-9.797c0-.29-.024-.563-.063-.813a4.186 4.186 0 0 0-.187-.796l-1.188.359a4.532 4.532 0 0 1 .172 1.14v.516c0 .406-.058.777-.172 1.11A3.33 3.33 0 0 1 2.83-6c-.243.305-.552.605-.923.906-.375.293-.82.606-1.328.938l.813.828a13.79 13.79 0 0 0 1.656-1.219 5.525 5.525 0 0 0 1.156-1.36c.445.43.926.868 1.438 1.313.52.45.976.817 1.375 1.094l.765-.86a14.24 14.24 0 0 1-1.578-1.202 36.878 36.878 0 0 1-1.531-1.422c.027-.145.055-.29.078-.438.027-.152.047-.32.047-.5zm-.328 6.969h4.703V1.28H4.64c-.075 0-.121-.011-.141-.031-.023-.023-.031-.074-.031-.156zm4.703-1.844h1.265v-6.89l-1.265.202zm0 0"/></symbol><symbol overflow="visible" id="l"><path d="M10.547-10.219l-1.266.203V1.516h1.266zM8.657-3.03a62.34 62.34 0 0 1-3.813.5A105.12 105.12 0 0 1 1-2.203l.078 1.047a82.57 82.57 0 0 0 1.906-.157c.696-.058 1.391-.132 2.079-.218a68.92 68.92 0 0 0 2-.235c.652-.09 1.226-.18 1.718-.265zM4.577-9.72c-.95 0-1.71.242-2.281.719-.563.469-.844 1.09-.844 1.86v.39c0 .762.274 1.379.828 1.844.551.468 1.317.703 2.297.703.457 0 .879-.063 1.266-.188a3.187 3.187 0 0 0 1-.515c.27-.227.484-.5.64-.813.153-.308.235-.656.235-1.031v-.39A2.33 2.33 0 0 0 6.829-9a3.135 3.135 0 0 0-1-.531 4.168 4.168 0 0 0-1.25-.188zM6.5-6.829c0 .481-.18.88-.531 1.188-.344.313-.809.47-1.39.47-.587 0-1.052-.157-1.391-.47-.336-.308-.5-.707-.5-1.187v-.234c0-.56.171-.985.515-1.266.34-.277.8-.422 1.375-.422.582 0 1.047.148 1.39.438.352.292.532.71.532 1.25zm0 0"/></symbol><symbol overflow="visible" id="m"><path d="M8.656-4.078c-.68.105-1.34.207-1.984.297-.637.086-1.274.16-1.906.219-.649.074-1.305.144-1.97.203-.655.054-1.347.101-2.062.14l.094 1.047c.164-.008.375-.02.625-.031.246-.02.52-.047.813-.078.277-.02.562-.04.843-.063.278-.027.536-.062.766-.094v3.704h1.281v-3.86c.676-.07 1.336-.148 1.985-.234.652-.082 1.203-.16 1.64-.235zm1.89-6.14l-1.265.202V1.516h1.266zM4.47-4.579c.933 0 1.687-.234 2.25-.703.57-.477.86-1.098.86-1.86v-.203c0-.746-.294-1.36-.876-1.828-.574-.465-1.32-.703-2.234-.703-.98 0-1.746.242-2.297.719-.555.469-.828 1.074-.828 1.812v.203c0 .75.273 1.368.828 1.844.55.48 1.316.719 2.297.719zM6.344-7.25c0 .531-.176.945-.516 1.234-.336.293-.789.438-1.36.438-.624 0-1.1-.14-1.421-.422-.313-.29-.469-.707-.469-1.25 0-.465.16-.852.485-1.156.32-.309.789-.469 1.406-.469.57 0 1.023.16 1.36.469.339.304.515.691.515 1.156zm0 0"/></symbol><symbol overflow="visible" id="n"><path d="M9.297-.375h1.25v-9.844l-1.25.172v7.297H6.469v.969h2.828zm-4.75-4.86c.883 0 1.598-.187 2.14-.562.54-.383.813-.96.813-1.734v-.203c0-.746-.285-1.313-.844-1.688-.562-.383-1.27-.578-2.11-.578-.898 0-1.616.195-2.155.578-.532.375-.797.942-.797 1.688v.203c0 .75.258 1.324.781 1.718.52.387 1.242.579 2.172.579zm1.75-2.406c0 .532-.164.91-.484 1.125-.313.22-.739.329-1.266.329-.563 0-.996-.11-1.297-.329-.305-.214-.453-.593-.453-1.125 0-.464.148-.82.453-1.062.309-.246.742-.375 1.297-.375.52 0 .941.129 1.266.375.32.242.484.598.484 1.062zM2.969-1.062V1.14c0 .332.062.566.187.703.133.144.395.218.781.218h6.954V1.048H4.453c-.086 0-.144-.02-.172-.047C4.258.969 4.25.91 4.25.828v-1.89zm5.703-3.97c-.586.095-1.211.18-1.875.25-.656.063-1.324.122-2 .173-.668.043-1.34.086-2.016.125-.668.03-1.308.058-1.922.078l.079 1.015c.414-.007.843-.03 1.28-.062.446-.027.884-.063 1.313-.094v1.89h1.297v-2c.29-.007.617-.03.984-.062.364-.027.727-.062 1.094-.094.352-.027.692-.062 1.016-.093.332-.04.613-.082.844-.125zm0 0"/></symbol><symbol overflow="visible" id="o"><path d="M1.516-6.063l5.578 3.375L1.516.688zm0 0"/></symbol><symbol overflow="visible" id="p"><path d="M6.984-.172c0 .64-.484 1.234-1.156 1.234-.703 0-1.187-.593-1.187-1.234 0-.687.5-1.266 1.187-1.266.672 0 1.156.594 1.156 1.266zM5.828 1.703c1.25 0 2.219-.781 2.219-1.875 0-1.516-1.672-1.719-1.672-1.734 0-.188.156-.172.016-.375-.157-.219-1.204-.297-1.204.015 0 .11.297.141.125.36 0 0-1.75.234-1.75 1.734 0 1.094 1 1.875 2.266 1.875zm2.297-5.969H9.75c.734 0 .875-.609.094-.765-.328-.047-.86-.047-.985.062-.156.157-.468.203-.734.235l-.031-2.422c0-.532.25-.844-.156-1-.297-.11-1.157-.235-1.297-.25-.72-.047-.735.281-.297.469.531.218.734.328.734.78l.063 3.938c.015.797.078 1.39.343 1.39.297-.015.641-.78.641-1.905zM5.485-7c-.126-.016-.876-.078-1.126.031-.28.14-1.14.172-1.968.172-.47 0-.938-.062-1.094-.062-.61-.063-.734.14-.25.437.984.594 1.156.297 1.453.234 0 0 .25-.078.484-.093.313-.016.844-.094 1.391-.125C3.406-4.344 1.469-2.625.453-2.078c-.297.156.016.453.672.172 1.219-.532 3.14-2.047 4.219-4.078.187-.36.703-.875.14-1.016zm0 0"/></symbol><symbol overflow="visible" id="q"><path d="M5-3.563c0 .626-.5 1.126-1.14 1.126a1.12 1.12 0 0 1-1.126-1.126c0-.64.5-1.14 1.125-1.14.641 0 1.141.5 1.141 1.14zM9.125.5C8.781.453 8.141.469 7.937.61c-.218.156-.546.171-.78.171L5.28.797C5.11.797 4.938.703 4.938.5V-.531c0-.39.218-.672-.329-.75-.312-.032-.906-.063-1.25-.032-.937.094-.484.407-.156.485.469.078.625.187.625.547V.5c0 .703.547.828 1.14.828l4.063-.047c.719 0 .906-.593.094-.781zm-1.39-5.61c-.594.032-1.282.063-1.688 0-.797-.077-.547.282-.297.438 1.078.578 1.234.297 1.406.25.016-.016.282-.11.532-.14 0 0 .015 0 .046-.016l.016 1.422c-.594.031-1.297.062-1.703 0H6c.031-.11.047-.235.047-.375 0-1.469-1.625-1.594-1.625-1.625 0-.157.172-.172 0-.344-.156-.156-1.156-.281-1.156.031 0 .11.265.125.125.313 0 0-1.704.172-1.704 1.625 0 1.11 1.157 1.734 2.172 1.734.75 0 1.547-.312 1.938-.906 1.031.547 1.187.281 1.36.234.015-.015.28-.11.53-.14 0 0 .032-.016.063-.016v.719c.016.781.047 1.484.375 1.484.328-.016.625-.828.625-2l-.031-4.734c0-.532.25-.844-.156-1-.297-.11-1.141-.235-1.297-.25-.72-.047-.735.281-.297.469.531.218.75.328.75.78zM6.53-6.343c-.265-.11-1.062-.218-1.593 0-.438.157-1.735.157-2.297.157a13.95 13.95 0 0 1-1.407-.094c-.453-.063-1.03.078-.25.484 1.25.64 1.329.188 1.954.125.78-.078 2.843-.078 3.484-.047.469 0 .672-.39.11-.625zm-1.734-.61c.703-.046.875-.64-.156-.671-.782-.016-1.094-.078-1.657-.156-.53-.094-.796.11-.421.36.421.296.734.468 1 .484.374.03.703.03 1.234-.016zm0 0"/></symbol><symbol overflow="visible" id="r"><path d="M8.063-3.625H7.016L7-6.672c0-.531.234-.844-.172-1-.281-.11-1.094-.234-1.25-.25-.687-.047-.703.281-.281.469.516.219.719.328.719.781l.046 6.234c0 .985.032 1.938.375 1.922.375-.015.625-1.015.61-2.546l-.031-1.97h1.046l.016 2.97c0 .984.047 1.937.375 1.921.375-.015.625-1.015.61-2.546l-.047-6.47c0-.53.25-.843-.157-1-.296-.109-1.109-.234-1.265-.25-.688-.046-.703.282-.282.47.516.218.735.328.735.78zM3.5-3.344a47.94 47.94 0 0 1 1.375 1.688c.5.61 1.063.453.844-.094-.063-.188-.344-.86-.563-1.047-.218-.187-.343-.125-.593-.281-.079-.078-.454-.422-.704-.719.375-.515.72-1.11 1.079-1.765.296-.407.515-.86.14-1-.078-.047-.922-.11-1.14.015-.297.125-.844.14-1.485.14-.469 0-.875-.03-1.031-.046-.625-.078-.734.172-.281.437.921.547 1.093.36 1.421.22.016 0 .235-.063.485-.079.234-.016.5-.063.89-.094-.796 2-2.187 3.844-3.312 4.625-.234.157-.11.516.61.125.593-.312 1.437-1.047 2.265-2.125zm0 0"/></symbol><symbol overflow="visible" id="s"><path d="M4.328-2.39c0-.47-.39-.86-.844-.86-.453 0-.828.39-.828.86 0 .468.375.859.828.859.454 0 .844-.39.844-.86zm0 0"/></symbol><symbol overflow="visible" id="t"><path d="M.656-3c0 .984.235 1.656.547 2.078.328.422.734.61 1.125.61.39 0 .797-.188 1.11-.61.328-.422.546-1.094.546-2.078 0-.984-.218-1.656-.546-2.078-.329-.422-.735-.594-1.11-.594-.36 0-.781.156-1.11.578C.907-4.672.657-4 .657-3zm.485 0c0-1.172.421-2.25 1.187-2.25S3.5-4.172 3.5-3c0 1.188-.406 2.25-1.172 2.25-.765 0-1.187-1.047-1.187-2.25zm4.421-2.875v7.094h.5v-7.094zm0 0"/></symbol><symbol overflow="visible" id="u"><path d="M3.563-5.453v-.422H1.469v.422zm.984 1.047v-.422H.53v.422zm-2.016.468C1.5-3.938.844-3.421.844-2.766c0 .641.656 1.157 1.687 1.157 1.063 0 1.703-.516 1.703-1.157 0-.656-.625-1.171-1.703-1.171zM1.36-2.78c0-.438.422-.735 1.172-.735.766 0 1.172.297 1.172.735 0 .453-.406.765-1.172.765-.75 0-1.172-.312-1.172-.765zM6.938-3.5v-.438H5.921v-1.937h-.5v4.547h.5V-3.5zM5.921 1.266V-.97h-4.5v.438h4.016v1.797zm0 0"/></symbol><symbol overflow="visible" id="w"><path d="M.969-3.89c0 .937.75 1.734 1.797 1.734 1.03 0 1.78-.797 1.78-1.735 0-.953-.75-1.718-1.78-1.718-1.047 0-1.797.765-1.797 1.718zm.484 0c0-.72.484-1.297 1.313-1.297.812 0 1.28.578 1.28 1.296 0 .72-.468 1.282-1.28 1.282-.829 0-1.313-.563-1.313-1.282zm4.703 5.109v-7.094h-.5v7.094zm-.734-2.36c-.61.11-2.563.235-3.156.235H.546v.437h1.47c1.437 0 2.78-.14 3.406-.219zm0 0"/></symbol><symbol overflow="visible" id="x"><path d="M3.844-2.172v-3.437h-.469v1.296H1.203v-1.296H.734v3.437zm-.469-.422H1.203V-3.89h2.172zm2.469 3.86V-1.25H1.328v.438H5.36v2.078zm1-5.094v-.438h-1V-5.89h-.5v4.266h.5v-2.203zm0 0"/></symbol><symbol overflow="visible" id="y"><path d="M2.64-4.266v-1.28h-.515v1.124c0 .828-.188 1.578-.547 2.234A4.476 4.476 0 0 1 .031-.577a3 3 0 0 1 .485.36c.39-.298.796-.704 1.14-1.173.344-.468.61-.968.719-1.437.203.547.484 1.031.828 1.453.328.36.688.688 1.078.953.094-.11.282-.281.407-.39-.704-.422-1.22-.907-1.563-1.5-.313-.547-.484-1.188-.484-1.954zm2.657-1.609v7.094h.516v-3.844h1.093v-.453H5.813v-2.797zm0 0"/></symbol><symbol overflow="visible" id="z"><path d="M6.078 1.219v-7.094h-.5v2.172H3.922v.453h1.656v4.469zm-3.36-5.485v-1.28h-.515v1.124c0 .828-.187 1.578-.547 2.234A4.476 4.476 0 0 1 .11-.577a3 3 0 0 1 .485.36c.39-.298.812-.704 1.14-1.173.344-.468.61-.968.72-1.437.202.547.468 1.031.827 1.453.328.36.688.688 1.078.953.094-.11.282-.281.407-.39-.704-.422-1.22-.907-1.563-1.5C2.891-2.86 2.72-3.5 2.72-4.266zm0 0"/></symbol><symbol overflow="visible" id="A"><path d="M3.469-3.453c1.578 0 2.422-.516 2.422-1.219 0-.656-.844-1.25-2.422-1.25-1.547 0-2.422.547-2.422 1.25s.875 1.219 2.422 1.219zm0-.375c-1.125 0-1.906-.328-1.906-.844 0-.547.765-.875 1.906-.875 1.125 0 1.922.344 1.922.875 0 .516-.797.844-1.922.844zm2.5 4.953v-.39H1.656V-.11h4.157v-1.594H3.719v-.766h2.984v-.406H.25v.406h2.969v.766H1.14v.406h4.156v.781H1.14v1.641zm0 0"/></symbol><symbol overflow="visible" id="B"><path d="M.89-5.36v4.735c.032 0 .704.016 1.376-.016a17.88 17.88 0 0 0 1.562-.156v-.453c-.297.047-1.094.14-1.484.14l-.969.032v-3.86h1.906v-.421zM6.157 1.22v-7.094h-.5v2.703H4.625V-5.75h-.5V.875h.5v-3.578h1.031v3.922zm0 0"/></symbol><symbol overflow="visible" id="C"><path d="M6.719.234v-.421H4.062v-2.735h-.484v2.735H2.313v-2.735h-.47v2.735H.235v.421zM1.047-5.453v.437h4.375c-.047 1.094-.266 2.516-.5 3.735h.516c.28-1.344.421-2.828.5-4.172zm0 0"/></symbol><symbol overflow="visible" id="D"><path d="M6.703-1.875v-.422H.25v.422h3.063v1.766h.5v-1.766zm-.64 2.938V.625H1.625V-1h-.484v2.063zM3.733-5.579v-.297h-.53v.297c0 .594-.345 1.062-.86 1.406-.485.344-1.125.594-1.735.734.125.11.282.297.36.391a4.996 4.996 0 0 0 1.531-.64c.406-.266.766-.626.984-1.094.204.468.594.843 1.047 1.125.469.297 1 .515 1.438.61.11-.142.234-.25.375-.392-.594-.109-1.297-.374-1.828-.78-.454-.345-.782-.798-.782-1.36zm0 0"/></symbol><symbol overflow="visible" id="E"><path d="M5.203-1.797c-.562.094-1.812.188-2.234.188v-.672c.844-.078 1.375-.485 1.375-.938 0-.547-.672-.984-1.657-.984-.968 0-1.656.437-1.656.969 0 .468.547.89 1.422.953v.672H.391v.406h2.5c.921 0 1.828-.125 2.312-.188zm-3.64-1.437c0-.36.437-.594 1.125-.594.703 0 1.124.234 1.124.594 0 .359-.421.593-1.124.593-.688 0-1.126-.234-1.126-.593zm4.609 4.296V.625H2.078V-.703h-.5v1.765zm.766-4.187v-.438H5.921v-2.312h-.5v5.469h.5v-2.719zM3.655-5.5v-.39H1.703v.39zm.953.938v-.391H.72v.39zm0 0"/></symbol><symbol overflow="visible" id="F"><path d="M6.078 1.219v-7.094h-.5v7.094zM.953-5.421v.437h2.5a5.635 5.635 0 0 1-.797 2.375C2.141-1.813 1.422-1.156.484-.656a3 3 0 0 1 .485.36c.969-.626 1.703-1.376 2.219-2.298.468-.828.75-1.765.812-2.828zm0 0"/></symbol><symbol overflow="visible" id="G"><path d="M3.828-1.25c-.297.047-1.094.14-1.484.14l-.953.032v-4.438h-.5v4.907c.03 0 .703 0 1.375-.032.546-.015 1.312-.109 1.562-.14zm2.328 2.469v-7.094h-.5v2.703H4.625V-5.75h-.5V.875h.5v-3.578h1.031v3.922zm0 0"/></symbol><symbol overflow="visible" id="H"><path d="M3.906-1.86c.203-1.062.328-2.671.344-3.577H.703v.421h3.031c0 1-.171 2.36-.312 3.157zm1.172.844c-.578.125-2.25.204-2.844.22v-2.5H1.75v2.5H.328v.437h1.266c1.156 0 2.797-.125 3.484-.22zm.234-4.859v7.094h.516V-2.47H6.86v-.453H5.83v-2.953zm0 0"/></symbol><symbol overflow="visible" id="I"><path d="M6.703-1.484v-.422H.25v.422h3v2.703h.516v-2.703zm-2.969-3.86v-.343h-.53v.343c0 .594-.329 1.094-.845 1.469-.484.344-1.125.594-1.796.75.14.11.312.313.39.406a5.21 5.21 0 0 0 1.485-.64A2.952 2.952 0 0 0 3.484-4.5c.204.484.594.86 1.032 1.14A5.024 5.024 0 0 0 6-2.718c.11-.14.219-.297.36-.422-.61-.14-1.298-.39-1.798-.78-.5-.36-.828-.845-.828-1.423zm0 0"/></symbol><symbol overflow="visible" id="J"><path d="M3.813 1.344c1.484 0 2.39-.594 2.39-1.407 0-.812-.906-1.421-2.39-1.421-1.5 0-2.407.609-2.407 1.421 0 .813.907 1.407 2.407 1.407zM1.921-.063c0-.64.828-1 1.89-1 1.047 0 1.876.36 1.876 1 0 .625-.829 1-1.875 1-1.063 0-1.891-.375-1.891-1zM6.156-1.53v-4.344h-.5v1.75h-.953V-5.75h-.5v3.969h.5v-1.89h.953v2.14zM2.313-4.97v-.672h-.5v.657c0 .656-.125 1.171-.375 1.593-.266.454-.672.829-1.22 1.157.126.109.329.265.438.359.39-.281.672-.531.906-.828.204-.266.36-.578.5-.985.126.36.344.672.594.938.25.281.547.484.844.656.11-.14.234-.281.36-.406-.47-.203-.876-.516-1.141-.953-.266-.406-.406-.922-.406-1.516zm0 0"/></symbol><symbol overflow="visible" id="K"><path d="M1.39-.047c0 .766.829 1.406 2.407 1.406S6.203.734 6.203-.047c0-.781-.828-1.406-2.406-1.406-1.578 0-2.406.625-2.406 1.406zm.5 0c0-.594.782-.984 1.923-.984 1.093 0 1.874.39 1.874.984 0 .61-.78 1-1.875 1-1.14 0-1.921-.39-1.921-1zm2.063-4.406h1.64v.922h-1.64zm0 2.14v-.796h1.64v1.562h.5v-4.328h-.5v1h-1.64v-.656H.843v3.218zm-.469-.421H1.313V-5.11h2.171zm0 0"/></symbol><symbol overflow="visible" id="L"><path d="M6.313 1.063V.625H2.125V-1.25h-.5v2.313zM2.358-2.531c-.812 0-1.28-.625-1.28-1.406 0-.797.468-1.407 1.28-1.407.829 0 1.282.61 1.282 1.407 0 .78-.454 1.406-1.282 1.406zm1.704-.813c.062-.187.093-.39.093-.594 0-.218-.047-.421-.11-.609h1.548v1.203zm2.03 2.75v-5.281h-.5v.89H3.86a1.774 1.774 0 0 0-1.5-.812c-1.062 0-1.796.844-1.796 1.86 0 1.015.734 1.859 1.796 1.859a1.78 1.78 0 0 0 1.516-.828h1.719v2.312zm0 0"/></symbol><symbol overflow="visible" id="M"><path d="M5.578-2.406c.14-.828.266-2.188.313-3.188H1.016v.422h4.359c-.063.938-.14 1.797-.313 2.766H.234v.422h2.907v3.203h.515v-3.203H6.72v-.422zm0 0"/></symbol><symbol overflow="visible" id="N"><path d="M2.766-3.328c1.046 0 1.687-.594 1.687-1.281 0-.672-.625-1.282-1.687-1.282-1.047 0-1.688.61-1.688 1.282 0 .687.64 1.28 1.688 1.28zm.015-.406c-.828 0-1.234-.47-1.234-.875 0-.422.39-.891 1.219-.891.828 0 1.218.469 1.218.89 0 .407-.39.876-1.203.876zM6.187-.406v-5.469h-.5v4.172h-1.75v.406h1.75v.89zm.157 1.453V.625H2.187v-1.36h-.515v1.782zm-.89-4c-.407.078-1.798.203-2.798.203l-2.172.016v.421h1.704v1.22h.484v-1.235c.875 0 2.203-.11 2.781-.188zm0 0"/></symbol><symbol overflow="visible" id="O"><path d="M6.203 1.14V-1.53h-.5v.843H2.234v-.843h-.5V1.14zm-.5-.406H2.234V-.28h3.47zM2.531-4.062C1.5-4.063.844-3.563.844-3c0 .563.656 1.047 1.687 1.047 1.063 0 1.703-.484 1.703-1.047S3.61-4.063 2.531-4.063zM3.703-3c0 .422-.406.64-1.172.64-.75 0-1.172-.234-1.172-.64 0-.438.422-.672 1.172-.672.766 0 1.172.297 1.172.672zm-.14-2.469v-.406H1.469v.406zM4.5-4.453v-.422H.531v.422zm1.719 2.578v-4h-.5v1.781H4.484v.422H5.72v.813H4.484v.421H5.72v.563zm0 0"/></symbol><symbol overflow="visible" id="P"><path d="M5.563-4.578v.969H4.234v.421h1.329v1.72h.484v-4.407h-.5V-5H4.234v.422zm.484 5.844v-2.344H1.453v.422h4.094v1.922zM4.984-2.61c-.578.125-1.906.265-2.562.28l-1.14.017v-1.22h2.546v-2.062H.813v.422h2.53v1.234H.814v2.063c.062 0 .921 0 1.703-.016.75-.03 1.984-.187 2.468-.28zm0 0"/></symbol><symbol overflow="visible" id="Q"><path d="M6.36 1.063V.625H2.14V-1.25h-.5v2.313zM4.905-.704V-5.75h-.484v1.453H3.156v.438h1.266v3.156zm1.25.156V-5.89h-.5v5.344zM2.313-4.875v-.766h-.5v.75c0 .72-.157 1.313-.47 1.813-.265.422-.64.781-1.14 1.094.125.093.328.25.438.343a4.53 4.53 0 0 0 .875-.843c.234-.313.406-.657.546-1.079.126.36.344.72.626 1.016.234.281.53.531.812.688.11-.125.234-.282.36-.407a2.42 2.42 0 0 1-1.11-.953 3.192 3.192 0 0 1-.438-1.656zm0 0"/></symbol><symbol overflow="visible" id="R"><path d="M6.063 1.219v-7.094h-.5v2.438H4.25v.453h1.313v4.203zM4.968-1.25c-.657.11-1.469.203-2.063.234-.719.032-1.422.032-1.484.032V-2.86h2.547v-.438H1.422v-1.75h2.672v-.437H.937v4.937c.079 0 1.11.016 1.938-.031.64-.031 1.61-.156 2.094-.266zm0 0"/></symbol><symbol overflow="visible" id="S"><path d="M6.953-3.797v-.437H5.922v-1.641h-.484v4.328h.484v-2.25zM1.453-.03c0 .765.781 1.375 2.344 1.375 1.515 0 2.297-.625 2.297-1.375s-.782-1.375-2.297-1.375c-1.563 0-2.344.656-2.344 1.375zm.516.015c0-.578.718-.984 1.828-.984 1.062 0 1.781.406 1.781.984 0 .516-.719.97-1.781.97-1.11 0-1.828-.423-1.828-.97zM.797-5.109H2.28v.171c0 .657-.203 1.188-.531 1.61-.344.469-.86.812-1.453 1.078.125.094.328.234.437.328a4.39 4.39 0 0 0 1.125-.781c.297-.297.532-.656.672-1.078.188.375.453.687.735.937.359.297.75.516 1.109.703.094-.14.234-.265.36-.375-.516-.187-1.016-.484-1.391-.906-.344-.39-.547-.89-.547-1.5v-.187H4.25v-.422H.797zm0 0"/></symbol><symbol overflow="visible" id="T"><path d="M.969-.047c0 .797.922 1.39 2.5 1.39 1.61 0 2.5-.593 2.5-1.39 0-.797-.907-1.39-2.5-1.39-1.578 0-2.5.593-2.5 1.39zm2.5.985C2.313.938 1.5.594 1.5-.063c0-.625.813-.97 1.969-.97 1.156 0 1.984.345 1.984.97 0 .656-.828 1-1.984 1zm2.14-4.063c.141-.64.282-1.656.313-2.531h-4.89v.422h4.374c0 .64-.14 1.546-.281 2.109zm1.094.938v-.422H3.297v-1.625h-.485v1.625H.25v.421zm0 0"/></symbol><symbol overflow="visible" id="U"><path d="M6.719.234v-.421h-3v-1.657h2.078V-5.53h-.5v1.312h-3.64V-5.53h-.5v3.687h2.062v1.657H.234v.421zm-1.422-2.5h-3.64v-1.546h3.64zm0 0"/></symbol><symbol overflow="visible" id="V"><path d="M6.094-.61v-5.265h-.5v2.156H4.078v.438h1.516V-.61zm.218 1.672V.625H2.125V-1.25h-.5v2.313zM.875-5.53v.422h2.594c-.094.718-.438 1.328-.906 1.828-.594.625-1.391 1.094-2.235 1.39.14.11.344.297.422.391.906-.375 1.719-.906 2.313-1.625.53-.656.89-1.453.968-2.406zm0 0"/></symbol><symbol overflow="visible" id="W"><path d="M4.86-.172v-1.437h1.124v-.422H1.641v-1.313h4.062v-2.172H1.11v.422h4.094v1.344H1.141v2.14h1.03v1.438H.235V.25H6.72v-.422zM2.671-1.609h1.703v1.437H2.672zm0 0"/></symbol><symbol overflow="visible" id="X"><path d="M6.39 1.063V.625H2.204V-1.25h-.5v2.313zm-.718-6.938v5.266h.5v-5.266zm-4.875.766h1.547v.28c0 .657-.219 1.22-.547 1.673-.375.484-.922.844-1.547 1.125.14.094.344.25.453.344.422-.235.813-.5 1.156-.813.313-.328.579-.719.75-1.203.188.422.47.75.782 1.031a4.7 4.7 0 0 0 1.125.75c.109-.125.25-.266.375-.39A3.359 3.359 0 0 1 3.5-3.22c-.406-.453-.64-.984-.64-1.61v-.28h1.515v-.422H.797zm0 0"/></symbol><symbol overflow="visible" id="Y"><path d="M1 .203c0 .672.89 1.156 2.469 1.156 1.61 0 2.484-.484 2.484-1.156 0-.672-.875-1.14-2.484-1.14C1.89-.938 1-.47 1 .202zm4.406 0c0 .5-.781.766-1.937.766-1.156 0-1.922-.266-1.922-.766 0-.516.766-.766 1.922-.766s1.937.266 1.937.766zM6.703-1.53v-.407H.25v.407zM1.266-3.36c0 .546.89.859 2.203.859 1.312 0 2.203-.313 2.203-.86 0-.53-.89-.828-2.203-.828-1.313 0-2.203.282-2.203.829zm.578 0c0-.344.734-.47 1.625-.47.906 0 1.625.126 1.625.47 0 .343-.735.484-1.625.484s-1.625-.14-1.625-.484zM4.75-5.5v-.406H2.187v.406zm1.36.922v-.406H.827v.406zm0 0"/></symbol><symbol overflow="visible" id="Z"><path d="M6.078 1.14v-2.546H1.625V1.14zm-.5-.437H2.125V-.984h3.453zm.016-6.578v4.11h.5v-4.11zm-2.875.86v-.673h-.516v.657c0 .625-.187 1.14-.5 1.562-.36.485-.875.844-1.484 1.125.125.094.328.266.437.36.39-.204.766-.438 1.078-.75.329-.297.579-.672.72-1.11.218.422.53.781.89 1.047.312.235.64.422.953.578.094-.125.219-.281.36-.406C4.14-2.797 3.64-3.094 3.28-3.5c-.36-.39-.562-.906-.562-1.516zm0 0"/></symbol><symbol overflow="visible" id="aa"><path d="M6.156 1.219v-7.094h-.5v7.094zm-.734-2.235c-.594.11-1.922.188-2.188.188v-1.735h1.688v-.421H1.578v-2.594h-.5v3.016H2.75v1.765H.547v.438h1.515c.844 0 2.438-.094 3.36-.22zm0 0"/></symbol><symbol overflow="visible" id="ab"><path d="M3.563-5.5v-.422H1.469v.422zM2.546-4.172c-1.031 0-1.703.484-1.703 1.063 0 .53.656 1.03 1.687 1.03 1.063 0 1.703-.483 1.703-1.03 0-.563-.625-1.063-1.687-1.063zm1.156 1.063c0 .39-.39.609-1.156.609-.766 0-1.172-.219-1.172-.61 0-.421.422-.656 1.172-.656.765 0 1.156.266 1.156.657zM4.5-4.531v-.422H.531v.422zm1.89 5.656V.703H2.235V.016H6.22v-1.547h-4.5v.422h3.968v.703H1.72v1.531zM6.22-1.891v-3.984h-.5v1.672H4.484v.422H5.72v.797H4.484v.421H5.72v.672zm0 0"/></symbol><symbol overflow="visible" id="ac"><path d="M6.078 1.063V.625H2v-1.688h-.5v2.125zm.781-4.11v-.437H5.844v-2.391h-.5v5.469h.5v-2.64zm-2.89.094c.156-.64.281-1.703.328-2.61h-3.5v.422H3.78c-.047.61-.156 1.641-.297 2.188zm1.156.578c-.813.125-2.281.219-2.86.219v-1.797h-.484v1.812H.313v.422h.843c2 0 3.25-.125 3.969-.234zm0 0"/></symbol><symbol overflow="visible" id="ad"><path d="M6.344 1.125V.703h-4.14v-.828h3.968v-1.672H1.688v.422h3.968v.813H1.688v1.687zm-.672-7.016v3.735h.5v-3.735zm-4.875.75h1.547v.125c0 .625-.219 1.11-.578 1.5-.375.407-.907.688-1.516.907.14.093.36.234.469.328.453-.219.86-.453 1.219-.766.265-.234.484-.547.671-.969.235.454.563.766.907.985.328.219.671.39 1 .531.109-.125.25-.25.375-.36a3.612 3.612 0 0 1-1.454-.796C3.079-4.016 2.86-4.453 2.86-5v-.14h1.516v-.423H.797zm0 0"/></symbol><symbol overflow="visible" id="ae"><path d="M5.25-1.25c-.406.063-1.688.25-2.625.266L1.406-.97v-1.844h2.625v-2.671H.921v.437h2.626v1.813H.922v2.718c.031 0 1 0 1.86-.03A20.467 20.467 0 0 0 5.25-.813zm.313-4.625v7.094h.5v-7.094zm0 0"/></symbol><symbol overflow="visible" id="af"><path d="M6.703-2.25v-.422H.25v.438h2.969v.937C1.78-1.234.953-.687.953.031c0 .766.938 1.328 2.516 1.328 1.61 0 2.515-.562 2.515-1.328 0-.719-.812-1.265-2.25-1.328v-.953zM1.5.031c0-.594.813-.953 1.969-.953 1.14 0 1.969.36 1.969.953 0 .563-.829.922-1.97.922C2.314.953 1.5.593 1.5.031zm2.266-5.265h2.093v-.422H1.08v.422h2.109c-.063.453-.376.78-.813 1.046-.484.297-1.14.47-1.75.594.125.11.266.281.344.39.578-.124 1.125-.296 1.578-.546.39-.219.719-.516.937-.906.25.484.704.797 1.188 1.031.437.203.906.328 1.297.422.125-.14.218-.25.36-.39-.516-.11-1.157-.282-1.657-.548-.469-.265-.828-.609-.906-1.093zm0 0"/></symbol><symbol overflow="visible" id="ag"><path d="M3.656 1.344C5.156 1.344 6 .75 6-.063c0-.812-.844-1.421-2.344-1.421-1.469 0-2.344.609-2.344 1.421 0 .813.875 1.407 2.344 1.407zM1.844-.063c0-.64.797-1 1.812-1 1.063 0 1.844.36 1.844 1 0 .625-.797 1-1.844 1-1 0-1.812-.375-1.812-1zm5-3.812v-.422h-1v-1.578h-.485v4.297h.485v-2.297zm-6.36-.14c0 .968.75 1.78 1.797 1.78s1.781-.812 1.781-1.78c0-.97-.734-1.766-1.78-1.766-1.048 0-1.798.797-1.798 1.765zm.516 0c0-.75.469-1.329 1.281-1.329.828 0 1.281.578 1.281 1.328 0 .735-.453 1.329-1.28 1.329C1.468-2.688 1-3.281 1-4.016zm0 0"/></symbol><symbol overflow="visible" id="ah"><path d="M5.75-5.875v7.094h.5v-7.094zm-4.938.89H2.36v.563c0 .828-.171 1.578-.53 2.234A4.61 4.61 0 0 1 .28-.577c.14.094.375.25.469.36.39-.298.813-.704 1.156-1.173.328-.468.594-.968.719-1.437.188.547.469 1.031.828 1.453.313.36.672.688 1.063.953.109-.11.28-.281.406-.39-.688-.422-1.219-.907-1.547-1.5-.328-.547-.5-1.188-.5-1.954v-.718h1.61v-.438H.811zm0 0"/></symbol><symbol overflow="visible" id="ai"><path d="M6.844-3.719v-.437h-1v-1.719h-.5v5.281h.5v-3.125zm-.766 4.781V.625H2V-1.25h-.5v2.313zM1.25-5.109h2.719v-.422H.766v3.343c.062 0 1.093 0 1.859-.03.89-.032 1.938-.157 2.438-.282v-.438c-.485.126-1.782.266-2.594.282l-1.219.031zm0 0"/></symbol><symbol overflow="visible" id="aj"><path d="M6.172-1.547V-5.89h-.5v1.657H4.094v.437h1.578v2.25zm-2.234 2.89c1.5 0 2.359-.593 2.359-1.405 0-.813-.86-1.422-2.36-1.422-1.468 0-2.359.609-2.359 1.421 0 .813.89 1.407 2.36 1.407zM2.093-.061c0-.641.812-1 1.844-1 1.046 0 1.859.359 1.859 1 0 .625-.828 1-1.86 1-1.015 0-1.843-.375-1.843-1zM.797-5.11H2.28v.265c0 .657-.203 1.172-.531 1.61-.344.468-.86.812-1.453 1.078.125.094.328.234.437.328.407-.219.813-.469 1.125-.797.297-.297.532-.656.672-1.078.188.39.453.687.735.953.359.297.75.516 1.109.688.094-.141.234-.266.36-.376-.516-.187-1.016-.484-1.391-.906-.344-.39-.547-.89-.547-1.5v-.265H4.25v-.422H.797zm0 0"/></symbol><symbol overflow="visible" id="ak"><path d="M3.078-5.36v-.421H1.453v.422zm3.235 3.844v-4.359h-.5V-4h-.97v-1.734H4.36v4.218h.485v-2.03h.968v2.03zm0 2.782v-2.407H1.655v.438h4.157v1.969zM.78-4.297H2c0 .516-.125.938-.375 1.281-.281.407-.703.72-1.234.985.187.125.328.25.421.344.344-.22.641-.422.875-.688.235-.234.422-.5.579-.828.171.312.375.547.593.765.235.204.516.391.813.532a3.57 3.57 0 0 1 .344-.344c-.5-.234-.875-.484-1.125-.797-.25-.328-.375-.719-.375-1.25h1.218v-.422H.781zm0 0"/></symbol><symbol overflow="visible" id="al"><path d="M6.703-1.75v-.422H.25v.422h3.063v1.64h.5v-1.64zm-.64 2.813V.625H1.625V-1h-.484v2.063zm-.75-4.516H1.624v-.969h3.688zm-4.172.422h4.671v-2.766h-.5v.953H1.626v-.953h-.484zm0 0"/></symbol><symbol overflow="visible" id="ap"><path d="M6.281 1.063V.625H2.125v-1.797h-.5v2.234zM3.484-2.454H1.313V-3.86h2.171zm.47-.828v-1.047h1.64v1.047zm1.64.437v2.219h.5v-5.25h-.5v1.125h-1.64v-.86h-.47v1.344H1.313v-1.343h-.47v3.562h3.11v-.797zm0 0"/></symbol><symbol overflow="visible" id="aq"><path d="M6.781-3.25v-.438h-1v-2.187h-.515v5.266h.515V-3.25zM6 1.063V.625H1.953V-1.25h-.5v2.313zM2.547-4.923v-.766H2.03v.766c0 .672-.187 1.234-.531 1.688-.36.484-.86.843-1.453 1.125.14.093.344.265.437.359.407-.219.782-.5 1.11-.813a2.98 2.98 0 0 0 .703-1.171c.187.421.5.796.844 1.093.328.282.671.516.984.657.11-.125.25-.282.375-.407-.516-.187-1-.515-1.375-.968a2.46 2.46 0 0 1-.578-1.563zm0 0"/></symbol><symbol overflow="visible" id="ar"><path d="M6.172-.61v-5.265h-.5v1.656H4.094v.438h1.578V-.61zm.219 1.672V.625H2.203V-1.25h-.5v2.313zM.797-5.109H2.28v.375a2.82 2.82 0 0 1-.531 1.687c-.36.469-.875.844-1.453 1.11.125.093.328.265.437.359.407-.234.782-.5 1.094-.828.313-.328.563-.719.703-1.156.188.39.438.703.735.984.359.328.75.594 1.109.765.094-.14.234-.28.36-.406a3.162 3.162 0 0 1-1.329-.906 2.444 2.444 0 0 1-.61-1.61v-.374H4.25v-.422H.797zm0 0"/></symbol><symbol overflow="visible" id="as"><path d="M6.703-1.781v-.438H.25v.438h3.063v1.625h.5v-1.625zm-.64 2.843V.625H1.625V-1h-.484v2.063zm-.75-4.671H1.624v-1.625h3.688zm-4.172.421h4.671v-2.468H1.141zm0 0"/></symbol><symbol overflow="visible" id="at"><path d="M6.172 1.219v-7.094h-.5v7.094zm-.797-3.344c-.344.063-1.14.125-1.906.156-.844.047-2.828.047-2.938.047v.422h1.86v2.547h.484V-1.5c.75 0 1.969-.125 2.5-.203zM.953-4.235c0 .798.735 1.5 1.781 1.5 1.063 0 1.782-.703 1.782-1.5 0-.796-.72-1.515-1.782-1.515-1.046 0-1.78.719-1.78 1.516zM2.734-3.14c-.843 0-1.296-.546-1.296-1.093 0-.579.453-1.11 1.296-1.11.86 0 1.297.532 1.297 1.11 0 .546-.437 1.093-1.297 1.093zm0 0"/></symbol><symbol overflow="visible" id="am"><path d="M6.313-.219c0 .703-.563 1.266-1.235 1.266-.687 0-1.234-.563-1.234-1.266 0-.703.547-1.281 1.234-1.281.672 0 1.234.578 1.234 1.281zm1.046.016c0-1.5-1.75-1.734-1.75-1.75 0-.188.157-.172.016-.375-.156-.203-1.172-.281-1.172.015 0 .11.281.157.125.36 0 .016-1.781.266-1.781 1.75 0 1.078 1.094 1.906 2.281 1.906C6.25 1.703 7.36.875 7.36-.203zm-3.171-3.39H2.796c-1.078 0-1.36-.063-1.985-.095-.593-.03-.921.188-.265.485 1.687.765 1.719.265 2.39.203.047 0 .829-.094 2.485-.11 1.547-.015 2.469-.015 3.187.016.594.047 1.204.031 1.22-.344.046-.5-1.47-.562-2.313-.25-.297.126-1.735.094-2.344.094l.016-1.484c0-.344.218-.625-.22-.75-.28-.078-.874-.094-1.062-.11-.61.032-.672.297-.281.407.297.078.563.187.563.5zm3.968-3.345c.078-.343.5-.671-.14-.828-.329-.078-.797-.015-1.11.094-.343.11-3.828.14-4.562.031-1.016-.078-.656.297-.422.407 1.406.687 1.469.28 2.11.218 0 0 2.577-.062 3.046-.078-.031.469-.062 1.047-.156 1.61-.14.796-.203 1.171.062 1.218.25.032.579-.328.813-1.093.203-.641.36-1.532.36-1.579zm0 0"/></symbol><symbol overflow="visible" id="an"><path d="M7.719-3.688H6.625l-.031-2.984c0-.531.234-.844-.157-1-.28-.11-1.062-.234-1.218-.25-.672-.047-.672.281-.282.469.516.219.704.328.704.781l.03 3.875c-.874.297-2.093.594-2.78.64-.188 0-.329-.046-.329-.296v-3.14c.313 0 1.579 0 2.016-.048.703-.078.734-.671.094-.75-.406-.062-.938-.062-1.25.157-.219.187-.656.109-.844.093-.515-.078-1.172-.14-1.484-.093-.75.109-.438.421-.172.484.469.11.656.14.656.547v3.047c0 .687.25.812.828.812.969 0 2.36-.531 3.281-.937v1.844c0 .984.032 1.937.36 1.921.375-.015.61-1.015.594-2.546l-.016-2.032h1.094L7.75-.063c0 .985.031 1.938.36 1.922.359-.015.609-1.015.593-2.546l-.047-6.47c0-.53.235-.843-.156-1-.281-.109-1.078-.234-1.219-.25-.672-.046-.687.282-.281.47.5.218.703.328.703.78zm0 0"/></symbol><symbol overflow="visible" id="ao"><path d="M6.422-5.813a1.36 1.36 0 0 1-2.719 0c0-.78.64-1.343 1.36-1.343.718 0 1.359.562 1.359 1.343zm1.047.016c0-1.547-1.813-1.828-1.813-1.844-.015-.203.157-.203 0-.406-.187-.203-1.218-.312-1.25.031 0 .079.36.141.125.36 0 .031-1.875.312-1.875 1.86 0 1.234 1.219 2.03 2.406 2.03 1.188 0 2.407-.796 2.407-2.03zm-3 3.484L4.5-.063c0 .985.094 1.938.422 1.922.39-.015.672-1.015.656-2.546l-.047-1.657c1.485 0 2.39-.015 3.078.031.594.032 1.204.016 1.22-.359.046-.5-1.47-.562-2.313-.234-.329.11-2.016.078-2.485.078H2.797c-1.078 0-1.36-.063-1.985-.094-.593-.031-.921.203-.265.5 1.687.75 1.719.25 2.39.188.032 0 .5-.063 1.532-.079zm0 0"/></symbol></defs><g fill="#393536"><use xlink:href="#a" x="42.468" y="48.426"/><use xlink:href="#b" x="48.041" y="48.426"/><use xlink:href="#b" x="53.614" y="48.426"/></g><g fill="#231f20"><use xlink:href="#c" x="74.885" y="47.727"/><use xlink:href="#d" x="82.886" y="47.727"/><use xlink:href="#e" x="85.492" y="47.727"/><use xlink:href="#f" x="88.099" y="47.727"/><use xlink:href="#e" x="96.1" y="47.727"/><use xlink:href="#g" x="98.706" y="47.727"/></g><g clip-path="url(#h)"><path d="M-15.57 412.977h1230.156" fill="none" stroke-width=".499395" stroke="#cabfbb" stroke-dasharray="2.003,2.003"/></g><g fill="#fff"><use xlink:href="#i" x="24.203" y="165.5"/><use xlink:href="#j" x="36.088" y="165.5"/><use xlink:href="#k" x="47.974" y="165.5"/><use xlink:href="#l" x="59.859" y="165.5"/><use xlink:href="#m" x="71.745" y="165.5"/><use xlink:href="#n" x="83.631" y="165.5"/></g><use xlink:href="#o" x="192.522" y="326.506" fill="#8a8e98"/><g fill="#33459a"><use xlink:href="#p" x="202.026" y="327.105"/><use xlink:href="#q" x="214.001" y="327.105"/><use xlink:href="#r" x="225.977" y="327.105"/></g><g fill="#231f20"><use xlink:href="#s" x="192.522" y="343.689"/><use xlink:href="#t" x="199.42" y="343.689"/><use xlink:href="#u" x="206.318" y="343.689"/><use xlink:href="#v" x="213.216" y="343.689"/><use xlink:href="#w" x="215.463" y="343.689"/><use xlink:href="#u" x="222.361" y="343.689"/><use xlink:href="#v" x="229.259" y="343.689"/><use xlink:href="#x" x="231.507" y="343.689"/><use xlink:href="#y" x="238.405" y="343.689"/></g><g fill="#231f20"><use xlink:href="#s" x="192.522" y="356.091"/><use xlink:href="#z" x="199.42" y="356.091"/><use xlink:href="#A" x="206.318" y="356.091"/><use xlink:href="#B" x="213.216" y="356.091"/><use xlink:href="#u" x="220.114" y="356.091"/><use xlink:href="#C" x="227.012" y="356.091"/><use xlink:href="#v" x="233.91" y="356.091"/><use xlink:href="#D" x="236.157" y="356.091"/><use xlink:href="#E" x="243.055" y="356.091"/><use xlink:href="#F" x="249.953" y="356.091"/><use xlink:href="#G" x="256.852" y="356.091"/><use xlink:href="#H" x="263.75" y="356.091"/><use xlink:href="#v" x="270.648" y="356.091"/><use xlink:href="#C" x="272.895" y="356.091"/><use xlink:href="#I" x="279.793" y="356.091"/></g><g fill="#231f20"><use xlink:href="#s" x="192.522" y="368.494"/><use xlink:href="#w" x="199.42" y="368.494"/><use xlink:href="#J" x="206.318" y="368.494"/><use xlink:href="#K" x="213.216" y="368.494"/><use xlink:href="#L" x="220.114" y="368.494"/><use xlink:href="#M" x="227.012" y="368.494"/><use xlink:href="#N" x="233.91" y="368.494"/><use xlink:href="#v" x="240.808" y="368.494"/><use xlink:href="#w" x="243.055" y="368.494"/><use xlink:href="#u" x="249.953" y="368.494"/><use xlink:href="#L" x="256.852" y="368.494"/><use xlink:href="#M" x="263.75" y="368.494"/><use xlink:href="#O" x="270.648" y="368.494"/><use xlink:href="#P" x="277.546" y="368.494"/><use xlink:href="#Q" x="284.444" y="368.494"/><use xlink:href="#R" x="291.342" y="368.494"/><use xlink:href="#v" x="298.24" y="368.494"/><use xlink:href="#Q" x="300.487" y="368.494"/><use xlink:href="#R" x="307.385" y="368.494"/><use xlink:href="#S" x="314.283" y="368.494"/></g><use xlink:href="#s" x="192.522" y="380.896" fill="#231f20"/><use xlink:href="#v" x="199.42" y="380.896" fill="#231f20"/><g fill="#231f20"><use xlink:href="#T" x="199.42" y="380.896"/><use xlink:href="#T" x="206.318" y="380.896"/><use xlink:href="#U" x="213.216" y="380.896"/><use xlink:href="#V" x="220.114" y="380.896"/><use xlink:href="#w" x="227.012" y="380.896"/><use xlink:href="#W" x="233.91" y="380.896"/><use xlink:href="#X" x="240.808" y="380.896"/><use xlink:href="#Y" x="247.706" y="380.896"/><use xlink:href="#N" x="254.604" y="380.896"/><use xlink:href="#v" x="261.502" y="380.896"/><use xlink:href="#Z" x="263.75" y="380.896"/><use xlink:href="#aa" x="270.648" y="380.896"/><use xlink:href="#ab" x="277.546" y="380.896"/><use xlink:href="#ac" x="284.444" y="380.896"/><use xlink:href="#ad" x="291.342" y="380.896"/><use xlink:href="#E" x="298.24" y="380.896"/><use xlink:href="#ac" x="305.138" y="380.896"/><use xlink:href="#ae" x="312.036" y="380.896"/><use xlink:href="#af" x="318.934" y="380.896"/><use xlink:href="#ag" x="325.832" y="380.896"/><use xlink:href="#ah" x="332.73" y="380.896"/><use xlink:href="#N" x="339.628" y="380.896"/><use xlink:href="#ai" x="346.526" y="380.896"/><use xlink:href="#v" x="353.424" y="380.896"/></g><g fill="#231f20"><use xlink:href="#aj" x="199.497" y="391.883"/><use xlink:href="#ak" x="206.395" y="391.883"/><use xlink:href="#ah" x="213.293" y="391.883"/><use xlink:href="#N" x="220.191" y="391.883"/><use xlink:href="#al" x="227.089" y="391.883"/><use xlink:href="#H" x="233.987" y="391.883"/><use xlink:href="#v" x="240.885" y="391.883"/><use xlink:href="#al" x="243.133" y="391.883"/><use xlink:href="#H" x="250.031" y="391.883"/><use xlink:href="#S" x="256.929" y="391.883"/></g><use xlink:href="#o" x="194.645" y="627.98" fill="#8a8e98"/><g fill="#33459a"><use xlink:href="#am" x="204.149" y="628.579"/><use xlink:href="#an" x="215.765" y="628.579"/><use xlink:href="#ao" x="227.381" y="628.579"/></g><g fill="#231f20"><use xlink:href="#s" x="194.645" y="645.163"/><use xlink:href="#ap" x="201.543" y="645.163"/><use xlink:href="#ae" x="208.441" y="645.163"/><use xlink:href="#y" x="215.339" y="645.163"/></g><g fill="#231f20"><use xlink:href="#s" x="194.645" y="657.565"/><use xlink:href="#z" x="201.543" y="657.565"/><use xlink:href="#A" x="208.441" y="657.565"/><use xlink:href="#B" x="215.339" y="657.565"/><use xlink:href="#u" x="222.237" y="657.565"/><use xlink:href="#C" x="229.135" y="657.565"/><use xlink:href="#v" x="236.033" y="657.565"/><use xlink:href="#aq" x="238.281" y="657.565"/><use xlink:href="#u" x="245.179" y="657.565"/><use xlink:href="#O" x="252.077" y="657.565"/><use xlink:href="#P" x="258.975" y="657.565"/><use xlink:href="#ai" x="265.873" y="657.565"/><use xlink:href="#v" x="272.771" y="657.565"/><use xlink:href="#ar" x="275.019" y="657.565"/><use xlink:href="#as" x="281.917" y="657.565"/><use xlink:href="#at" x="288.815" y="657.565"/><use xlink:href="#N" x="295.713" y="657.565"/></g></svg>