<svg xmlns="http://www.w3.org/2000/svg" xmlns:xlink="http://www.w3.org/1999/xlink" width="793.701" height="1058.268" viewBox="0 0 595.276 793.701" version="1.2"><defs><symbol overflow="visible" id="a"><path d="M7.422 1.36v-7.985h-.734v2.938h-.954V-6.5H5V.984h.734v-3.953h.954V1.36zM2.938-4.626v-.813H4.28v-.625H.813v.625h1.359v.688c0 .953-.156 1.766-.469 2.453A4.316 4.316 0 0 1 .172-.594c.234.14.531.313.687.453.36-.265.735-.656 1.047-1.093.297-.407.532-.875.64-1.297.126.422.345.828.61 1.187.297.375.64.703.969.907.14-.172.36-.36.547-.5a3.485 3.485 0 0 1-1.344-1.516c-.25-.594-.39-1.328-.39-2.172zm0 0"/></symbol><symbol overflow="visible" id="b"><path d="M6.078-6.625V-.75h.75v-3.266h1.11v-.64h-1.11v-1.969zm-.344 3.234c-.546.11-2.015.282-2.843.297l-1.313.016v-2.547H4.61v-.64H.844v3.843c.031 0 1.375 0 1.984-.015 1.047-.032 2.328-.188 2.906-.329zm1.344 4.594v-.64H2.422v-2.016h-.75v2.656zm0 0"/></symbol><symbol overflow="visible" id="c"><path d="M7.11-2.313v-4.312h-.75v1.578H4.624v-1.312h-.719v1.187h-2.25v-1.187H.922v3.687h3.703V-4.39h1.734v2.079zm-3.204-1h-2.25V-4.53h2.25zM7.11 1.282v-3.234h-.75v.922H2.547v-.922h-.75V1.28zm-.75-.61H2.547V-.405h3.812zm0 0"/></symbol><symbol overflow="visible" id="d"><path d="M7.11-.75v-5.875h-.75V-.75zM.61-4.406c0 1.14.874 2.093 2.124 2.093 1.235 0 2.11-.953 2.11-2.093 0-1.172-.875-2.11-2.11-2.11-1.25 0-2.125.938-2.125 2.11zm.765 0c0-.828.5-1.469 1.36-1.469.859 0 1.359.64 1.359 1.469 0 .797-.5 1.437-1.36 1.437-.859 0-1.359-.64-1.359-1.437zm5.969 5.61V.562H2.562v-1.985h-.75v2.625zm0 0"/></symbol><symbol overflow="visible" id="f"><path d="M7.047 1.36v-7.985H6.28v7.984zM4.687-.657v-5.469H.97v5.469zm-.734-.64H1.72V-5.47h2.234zm0 0"/></symbol><symbol overflow="visible" id="g"><path d="M7.203 1.36v-7.985H6.47v2.844h-.985V-6.5H4.75V.984h.734v-4.046h.985v4.421zm-2.75-2.75c-.344.062-1.187.156-1.734.156l-1.063.015V-3.03h2.157v-3.125H.921v.64h2.172v1.844H.922v3.11l1.547-.016A19.11 19.11 0 0 0 4.453-.75zm0 0"/></symbol><symbol overflow="visible" id="h"><path d="M7.203 1.36v-7.985h-.75v7.984zM1.031-4.376c0 1.094.875 2 2.125 2 1.235 0 2.125-.906 2.125-2 0-1.094-.89-1.984-2.125-1.984-1.25 0-2.125.89-2.125 1.984zm.735 0c0-.75.53-1.36 1.39-1.36.86 0 1.36.61 1.36 1.36 0 .75-.5 1.36-1.36 1.36-.86 0-1.39-.61-1.39-1.36zm4.406 3.016c-.64.109-2.531.25-3.219.265-.328.016-2.312.016-2.344.016v.656c.016 0 1.657.016 1.985 0a26.518 26.518 0 0 0 3.578-.297zm0 0"/></symbol><symbol overflow="visible" id="i"><path d="M8.047-3.813v-.671H6.922v-2.141h-.766V-1.5h.766v-2.313zM4.14-6.046v-.594H1.687v.594zm1.14 1.203v-.593H.594v.593zM.921-3.078c0 .719.829 1.312 2 1.312 1.25 0 2.032-.593 2.032-1.312 0-.735-.75-1.328-2.016-1.328-1.203 0-2.015.593-2.015 1.328zm.782-.016c0-.453.484-.719 1.234-.719.766 0 1.235.266 1.235.72 0 .452-.453.75-1.234.75-.75 0-1.235-.282-1.235-.75zm5.219 4.5v-2.515h-5.36v.625h4.579v1.89zm0 0"/></symbol><symbol overflow="visible" id="j"><path d="M7.11-.75v-5.875h-.75v.922H4.421c-.36-.5-.969-.844-1.703-.844-1.235 0-2.11.969-2.11 2.125 0 1.156.875 2.11 2.11 2.11.765 0 1.39-.36 1.75-.891h1.89V-.75zm-.75-3.11H4.75a1.7 1.7 0 0 0 .094-.562c0-.219-.032-.437-.094-.625h1.61zm-4.985-.562c0-.812.5-1.469 1.344-1.469.875 0 1.36.657 1.36 1.47 0 .796-.485 1.452-1.36 1.452-.844 0-1.344-.656-1.344-1.453zm5.953 5.625v-.64H2.562v-1.985h-.75v2.625zm0 0"/></symbol><symbol overflow="visible" id="k"><path d="M7.781-2.156v-.64H6.484c.204-.907.375-2.438.407-3.548H1.156v.64h4.938a16.656 16.656 0 0 1-.39 2.907H.265v.64h3.312V1.36h.75v-3.515zm0 0"/></symbol><symbol overflow="visible" id="m"><path d="M3.813-4.36v-.015h1.593v-.813h-4.25v.813h1.578v.016c-.046.359-.265.687-.593.968-.407.344-.97.594-1.5.735.234.203.546.5.718.703.422-.156.813-.36 1.141-.61.344-.234.625-.515.781-.812.203.297.485.563.813.781.343.219.703.39 1.015.485.125-.188.375-.47.594-.688a3.35 3.35 0 0 1-1.219-.578c-.343-.266-.625-.61-.671-.984zm2.25 3.126c-.641.093-1.954.171-2.313.171V-2.25h-.969v1.203H.562v.86h1.844c1.172 0 2.985-.094 3.656-.204zm1.25 2.609v-8.016h-.954v8.016zm-2.86-7.11v-.796H2.016v.797zm0 0"/></symbol><symbol overflow="visible" id="n"><path d="M7.203-.75v-5.89h-.969v5.89zM3.328-5.39v-1.094H2.297v1.125c0 .593-.219 1.125-.563 1.562-.39.516-.968.922-1.562 1.203.266.203.625.485.781.656a5.38 5.38 0 0 0 1.094-.796c.344-.329.64-.704.765-1.079.204.376.532.735.891 1.016.328.266.688.5 1 .656.14-.203.422-.515.625-.75a3.228 3.228 0 0 1-1.39-.953c-.376-.437-.61-.969-.61-1.547zm4.063 6.609V.375H2.766v-1.734h-1v2.578zm0 0"/></symbol><symbol overflow="visible" id="o"><path d="M7.781-2.063v-.843h-3.25v-.906h2.39v-.829H2.204v-.984h4.64v-.828H1.235v2.64h2.297v.907H.281v.844zm-3.75 3.594c1.938 0 2.985-.687 2.985-1.562 0-.89-1.047-1.547-2.985-1.547-1.937 0-3 .656-3 1.547 0 .875 1.063 1.562 3 1.562zM2.156-.047c0-.515.703-.781 1.875-.781 1.14 0 1.86.297 1.86.797 0 .484-.72.781-1.86.781C2.86.75 2.156.453 2.156-.047zm0 0"/></symbol><symbol overflow="visible" id="p"><path d="M7.906-2.875v-.828H6.875v-.922h1.031v-.828H6.875v-1.188h-.969v5.063h.969v-1.297zM4.063-5.953v-.734H1.578v.734zm1.125 1.219v-.735H.468v.735zM.702-3.188c0 .688.906 1.25 2.125 1.25 1.297 0 2.125-.546 2.125-1.265 0-.703-.828-1.203-2.11-1.203-1.234 0-2.14.531-2.14 1.218zm3.235-.015c0 .375-.407.578-1.094.578-.688 0-1.11-.188-1.11-.563 0-.374.422-.578 1.11-.578.687 0 1.094.204 1.094.563zM7.046 0c0-.938-1.188-1.5-2.844-1.5-1.594 0-2.875.516-2.875 1.469 0 .953 1.234 1.547 2.86 1.547C5.796 1.516 7.046.984 7.046 0zm-4.64-.016c0-.562.874-.75 1.78-.75.985 0 1.75.235 1.75.75 0 .532-.828.782-1.734.782-.922 0-1.797-.25-1.797-.782zm0 0"/></symbol><symbol overflow="visible" id="q"><path d="M7.797.484v-.843H4.53V-2h2.282v-4.422h-.97v1.313h-3.64v-1.313h-.969V-2h2.282v1.64H.28v.844zM5.844-2.844h-3.64v-1.422h3.64zm0 0"/></symbol><symbol overflow="visible" id="r"><path d="M1.078-6.203v.828h4.766a28.365 28.365 0 0 1-.453 3.953h.968c.25-1.39.47-3.406.532-4.781zM7.797.484v-.843H3.844v-2.985h-.985v2.985H.281v.843zm0 0"/></symbol><symbol overflow="visible" id="s"><path d="M7.203 1.375v-8.016H6.22v2.313H4.53v.906H6.22v4.797zm-3.89-5.938v-1.765H2.296v1.719c0 .796-.172 1.515-.516 2.14C1.406-1.766.828-1.188.094-.75c.281.188.625.469.812.64a6.26 6.26 0 0 0 1.14-1.046c.345-.422.642-.89.767-1.297.203.453.5.906.859 1.281.344.36.719.672 1.031.89.172-.187.438-.437.719-.655-.672-.422-1.234-.938-1.61-1.594-.312-.563-.5-1.219-.5-2.031zm0 0"/></symbol><symbol overflow="visible" id="u"><path d="M2.766-.547L1.125-6.125H.109L2.266.672h.968l2.172-6.797H4.391zm0 0"/></symbol><symbol overflow="visible" id="v"><path d="M2.438-3.688c.765 0 1.171.766 1.171 1.922C3.61-.609 3.203.141 2.438.141c-.735 0-1.141-.75-1.141-1.907 0-1.156.406-1.921 1.14-1.921zm0-.75C1.046-4.438.344-3.375.344-1.765c0 1.61.703 2.641 2.094 2.641 1.406 0 2.14-1.031 2.14-2.64 0-1.61-.734-2.673-2.14-2.673zm0 0"/></symbol><symbol overflow="visible" id="w"><path d="M.563-6.125V.672h.906v-6.797zm0 0"/></symbol><symbol overflow="visible" id="x"><path d="M.64-.047v1.203h1.25V-.047zm0 0"/></symbol><symbol overflow="visible" id="y"><path d="M.563-4.219H1.75V.703h.938v-6.922h-.766c-.11.922-.406 1.282-1.36 1.328zm0 0"/></symbol><symbol overflow="visible" id="z"><path d="M2-6.25C.797-6.25.203-4.89.203-2.656.203-.437.797.906 2 .906c1.203 0 1.828-1.344 1.828-3.562C3.828-4.891 3.203-6.25 2-6.25zm0 .797c.547 0 .906 1.078.906 2.797C2.906-.97 2.546.109 2 .109c-.531 0-.875-1.078-.875-2.765 0-1.719.344-2.797.875-2.797zm0 0"/></symbol><symbol overflow="visible" id="A"><path d="M4.61-8.531a8.282 8.282 0 0 0-1.594.828A7.178 7.178 0 0 0 1.687-6.5a6.863 6.863 0 0 0-.953 1.453A3.928 3.928 0 0 0 .36-3.359c0 .75.223 1.507.672 2.265C1.477-.344 2.13.031 2.984.031c.715 0 1.286-.27 1.704-.812.425-.551.64-1.16.64-1.828a2.92 2.92 0 0 0-.516-1.641c-.343-.508-.847-.766-1.5-.766-.167 0-.34.036-.515.094-.18.055-.34.145-.485.266a.984.984 0 0 0-.187.156c-.063.074-.094.145-.094.203 0 .031.004.067.016.094.02.023.047.031.078.031.059 0 .148-.078.266-.234.12-.164.347-.25.671-.25.208 0 .395.058.563.172a1.5 1.5 0 0 1 .453.421c.152.243.274.508.36.797.09.293.14.586.14.875 0 .282-.043.555-.125.813-.086.262-.21.52-.375.766-.125.18-.273.324-.437.437a1.095 1.095 0 0 1-.594.156c-.7 0-1.195-.375-1.485-1.125-.292-.758-.437-1.406-.437-1.937 0-.614.11-1.192.328-1.735.215-.539.524-1.05.922-1.53.309-.384.703-.75 1.172-1.095.476-.34.953-.597 1.422-.765.039-.02.093-.04.156-.063.07-.027.11-.066.11-.11 0-.038-.012-.07-.032-.093a.122.122 0 0 0-.094-.047.728.728 0 0 0-.265.078c-.117.055-.196.09-.235.11zm0 0"/></symbol><symbol overflow="visible" id="B"><path d="M1.672.344c-.012.02-.008.031.016.031.019.008.035.016.046.016h.172c.082 0 .13-.028.14-.079.02-.042.052-.105.095-.187l3.125-7.047c.02-.027.039-.066.062-.11a.385.385 0 0 0 .031-.124c0-.082-.054-.125-.156-.125C5.11-7.29 5.04-7.297 5-7.297H.5c-.074 0-.121.024-.14.063a.329.329 0 0 0-.032.156l.047.61c.008.011.016.042.016.093.007.055.03.078.062.078.02 0 .04-.004.063-.016l.046-.046c.114-.028.204-.051.266-.063.07-.008.164-.016.281-.016h3.235c.05 0 .097.012.14.032.051.023.079.066.079.125 0 .031-.02.082-.047.14a.712.712 0 0 0-.063.157zm0 0"/></symbol><symbol overflow="visible" id="C"><path d="M10.094-9.75l.078 4.438c.015 1.078.11 1.843.469 1.828.39-.016.843-.938.843-2.485l-.046-3.781c0-.734.328-1.156-.22-1.375-.39-.156-1.515-.328-1.718-.344-.938-.047-.953.39-.39.656.718.297.984.422.984 1.063zm-2.406.094c-.157-.031-1.157-.11-1.485.047-.375.187-1.516.218-2.594.218-.625 0-1.234-.078-1.453-.093-.812-.079-.984.187-.344.593 1.313.829 1.532.407 1.922.313.016 0 .344-.094.657-.11.406-.015 1.109-.109 1.828-.156-1.282 2.781-3.813 5.11-5.188 5.828-.39.22.016.61.89.235 1.626-.688 4.11-2.844 5.595-5.485.265-.453.921-1.203.171-1.39zm2.125 7.344L9.78.905H6.11l-.062-3.203zM11.5 1.265c0-.235-.39-.344-.563-.36l.329-2.984c.046-.39.703-.735 0-1.047-.47-.219-1.204-.094-1.61.016C9.422-3.016 6.36-3 6.203-3c-.266 0-.828-.219-1.734-.172-.75.031-1.047.531-.703.625.468.125.796.172.828.531l.218 3.485c.032.562.297.875.61.875.203 0 .562-.297.64-.672.485 0 3.016-.031 4.75-.031.407 0 .688-.125.688-.375zm0 0"/></symbol><symbol overflow="visible" id="E"><path d="M10.531-5.016H9.094l-.031-4.078c0-.734.328-1.156-.22-1.36-.374-.171-1.452-.327-1.655-.343-.907-.062-.922.375-.375.64.687.298.968.438.968 1.063l.032 5.516c-1.235.36-2.938.703-3.922.765-.25.016-.438-.062-.438-.39v-1.735c.594 0 2.14 0 2.672-.046.953-.125 1-.922.14-1.047-.562-.063-1.28-.063-1.718.234-.266.203-.781.156-1.094.14v-2.077c.422 0 2.156 0 2.735-.063.968-.11 1-.906.14-1.031-.562-.078-1.266-.078-1.703.234-.313.235-.89.14-1.156.11-.703-.11-1.594-.188-2.016-.125-1.031.156-.594.578-.234.671.625.125.89.172.89.735v4.406c0 .922.329 1.11 1.125 1.11 1.344 0 3.36-.672 4.579-1.204l.015 2.297c0 1.344.047 2.625.5 2.61.5 0 .828-1.375.797-3.47l-.031-2.75h1.437l.031 4.11c0 1.36.047 2.64.5 2.625.485-.015.829-1.375.797-3.469l-.062-8.812c0-.734.328-1.156-.219-1.375-.375-.156-1.453-.328-1.656-.344-.906-.047-.922.39-.375.656.687.297.953.422.953 1.063zm0 0"/></symbol><symbol overflow="visible" id="F"><path d="M7.14-5.188c0 .86-.671 1.5-1.5 1.5-.827 0-1.5-.64-1.5-1.5 0-.843.673-1.5 1.5-1.5.829 0 1.5.657 1.5 1.5zM4.907-7.874c-.031.016-.062.078-.062.14 0 .157.36.188.172.423-.016.015-2.25.187-2.25 2.187 0 1.516 1.515 2.328 2.875 2.328 1.343 0 2.875-.812 2.875-2.328 0-1.984-2.157-2.14-2.157-2.172.016-.203.235-.234 0-.484-.046-.063-.171-.094-.328-.14 1.188-.016 2.578 0 3.14.03.61 0 .892-.546.126-.875-.328-.156-1.39-.28-2.11 0-.562.22-2.437.22-3.171.204-.829-.016-1.344-.047-1.844-.11-.61-.078-1.39.094-.344.656 1.64.875 1.766.25 2.594.157.125 0 .297-.016.484-.016zm1.953-1.61c.938-.062 1.157-.874-.203-.921-1.031-.016-1.437-.094-2.187-.219-.688-.125-1.047.156-.563.516.563.39.969.625 1.344.656.469.031.922.031 1.61-.031zm3.61 7.063c-1.703.266-5.5.719-7.297.719a14.77 14.77 0 0 1-1.5-.078c-1.203-.11-1.047.422-.297.797 1.86.921 2.14.343 2.938.187 1.468-.11 4.484-.64 6.156-.969l.015 1.672c0 1.36.047 2.64.5 2.625.532-.015.86-1.375.829-3.469L11.75-9.75c0-.734.344-1.156-.219-1.375-.39-.156-1.5-.328-1.703-.344-.953-.047-.969.39-.39.656.703.297.984.422.984 1.063zm0 0"/></symbol><symbol overflow="visible" id="G"><path d="M3.844-4.813c.531.547 1.406 1.5 1.812 1.907.563.562 1.063.328.844-.281-.047-.126-.422-.797-.75-1.063-.281-.156-.266-.047-.61-.25-.156-.078-.624-.516-.937-.828.297-.422.64-1.125.86-1.531.156-.313.328-.47-.141-.829-.25-.203-1-.53-1.219-.562-.734-.094-.656.203-.219.484.485.297.438.5.313.813C3.109-5.125 1.75-3.47.719-2.766c-.438.297-.031.579.625.235 1-.516 1.828-1.422 2.5-2.281zm4.469-.968c-.72.031-1.782.078-2.297 0-.907-.078-.625.312-.344.468 1.187.641 1.375.344 1.578.282 0-.016.297-.125.578-.157 0-.015.281-.03.5-.03l.016 3.14c.015.86.047 1.625.39 1.61.36-.016.672-.891.672-2.188l-.031-5.14c0-.595.266-.923-.172-1.095-.328-.14-1.219-.265-1.375-.28-.766-.048-.766.312-.312.515.562.25.78.344.78.86zM9.796.547C9.422.484 8.75.516 8.53.672c-.234.172-.562.172-.828.172L5.766.875c-.188 0-.375-.11-.375-.328V-.906c0-.438.25-.735-.344-.813a6.066 6.066 0 0 0-1.313-.062c-.984.11-.515.468-.171.531.5.094.671.203.671.61V.546c0 .765.579.906 1.188.906l4.266-.047c.78 0 .968-.656.109-.86zm0 0"/></symbol><symbol overflow="visible" id="H"><path d="M6.219-5.453c0-1.734-1.875-2.031-1.875-2.063 0-.218.156-.25.031-.437-.156-.266-1.36-.36-1.36.016 0 .14.36.187.141.421 0 .016-1.953.313-1.953 2.063 0 1.36 1.328 2.14 2.516 2.14 1.203 0 2.5-.78 2.5-2.14zM5.094-5.47C5.094-4.656 4.562-4 3.719-4c-.797 0-1.375-.672-1.375-1.469 0-.906.578-1.5 1.375-1.5.844 0 1.375.672 1.375 1.5zM8.14-7.797l.062 3.625c0 .86.078 1.516.36 1.516.312-.016.671-.844.671-2.078l-.03-3.063c0-.594.265-.922-.173-1.094-.312-.14-1.203-.265-1.375-.28-.75-.048-.765.312-.312.515.578.25.797.344.797.86zm-.235 6.125L7.875.734H5.094l-.047-2.39zM9.25 1c0-.172-.297-.25-.438-.266l.25-2.218c.047-.313.579-.594 0-.844-.359-.172-.953-.063-1.28.031-.188.063-2.485.078-2.61.078-.203 0-.656-.172-1.39-.14-.595.015-.845.437-.563.5.375.093.64.14.656.437l.188 2.594c.015.453.234.703.484.703.156 0 .453-.234.516-.531.39 0 2.265-.032 3.64-.032.328 0 .547-.109.547-.312zm0 0"/></symbol><symbol overflow="visible" id="I"><path d="M5.14-5.266c0 .797-.53 1.485-1.39 1.485-.844 0-1.406-.688-1.406-1.485 0-.89.562-1.562 1.406-1.562.875 0 1.39.703 1.39 1.562zm3.016-1.593c-.75.046-1.765.062-2.187 0-.219-.016-.375 0-.453.03-.547-.421-1.172-.515-1.172-.53 0-.235.156-.235.031-.438-.14-.281-1.36-.39-1.36 0 0 .156.344.188.141.438 0 .015-1.953.28-1.953 2.109 0 1.39 1.36 2.188 2.547 2.188.688 0 1.422-.266 1.922-.766 1.094.61 1.281.312 1.469.25.015 0 .28-.11.546-.156.016 0 .235 0 .485-.016l.015 1.672c.016.86.047 1.625.376 1.61.359-.016.671-.891.671-2.188l-.03-5.14c0-.595.265-.923-.173-1.095-.312-.14-1.203-.265-1.375-.28-.75-.048-.765.312-.312.515.578.25.797.344.797.86zm0 2.546c-.687.032-1.656.063-2.125.016.157-.281.235-.594.235-.953a2.01 2.01 0 0 0-.204-.922c.766.328.907.11 1.079.063.015-.016.28-.125.546-.157.016-.015.235-.015.47-.03zM9.641.548C9.266.484 8.594.516 8.375.672c-.234.172-.578.172-.828.172l-2 .031c-.188 0-.375-.11-.375-.328V-.906c0-.438.25-.735-.344-.813a6.066 6.066 0 0 0-1.312-.062c-1 .11-.516.468-.172.531.5.094.672.203.672.61V.546c0 .765.578.906 1.187.906l4.328-.047c.766 0 .953-.656.11-.86zm0 0"/></symbol><symbol overflow="visible" id="J"><path d="M6.031-3.25c1.625-.016 2.61-.047 3.36 0 .656.031 1.312.031 1.343-.375.032-.563-1.609-.625-2.53-.266-.095.047-.298.063-.548.079.203-.282.375-.72.547-1.235.36-1.047.625-2.36.64-2.437.079-.391.548-.735-.171-.907-.36-.078-.875-.015-1.219.11-.375.125-4.266.203-5.203.062-.906-.094-.64.313-.36.453 1.61.844 1.75.329 2.407.25.016 0 2.812-.125 3.312-.14-.093.937-.171 1.61-.39 2.547-.125.562-.297 1.03-.297 1.328-.578.015-1.172 0-1.438 0l-2.437.015C1.89-3.75 1.562-3.828.89-3.859c-.657-.032-1 .234-.282.546 1.813.813 1.86.25 2.594.204.031 0 .547-.079 1.672-.11l.047 3.14c0 1.079.094 2.11.453 2.11.422-.015.734-1.11.703-2.781zm0 0"/></symbol><symbol overflow="visible" id="K"><path d="M5.484-6.344c0 .672-.515 1.235-1.203 1.235-.703 0-1.218-.563-1.218-1.235 0-.687.515-1.234 1.218-1.234.688 0 1.203.547 1.203 1.234zm1.125.047c0-1.562-1.718-1.766-1.718-1.797 0-.219.125-.234.03-.406-.124-.266-1.343-.36-1.343.031 0 .125.36.14.14.375 0 .016-1.765.235-1.765 1.797 0 1.156 1.156 1.86 2.328 1.86s2.328-.704 2.328-1.86zM9.906.547C9.531.484 8.86.516 8.641.672c-.235.172-.579.172-.829.172L5.47.875c-.172 0-.36-.11-.36-.328v-.89c0-.438.235-.735-.359-.813-.328-.047-.953-.094-1.313-.047-.984.094-.515.453-.171.516.5.093.671.203.671.609v.625c0 .765.579.906 1.204.906l4.656-.047c.765 0 .953-.656.11-.86zM4.844-3.266c1-.156 2.062-.343 2.812-.546.485-.126.39-.563 0-.485-1.281.203-3.64.5-5.125.5-.422 0-.828-.031-1.187-.062-.969-.079-.828.312-.235.609 1.547.797 1.594.281 2.266.188.125-.016.25-.032.39-.047.016 0 .016.312.016.328.016.797.11 1.422.406 1.406.36-.016.672-.813.657-1.89zm3.61 1.141v.047c.015.86.046 1.625.374 1.61.375-.016.688-.891.688-2.188l-.047-5.14c0-.595.265-.923-.172-1.095-.313-.14-1.203-.265-1.375-.28-.75-.048-.766.312-.313.515.579.25.797.344.797.86l.047 5.093c-.75.047-1.89.078-2.39.015-.891-.078-.61.313-.329.47 1.188.64 1.375.343 1.563.28a2.17 2.17 0 0 1 .578-.156c.016-.015.328-.031.578-.031zm0 0"/></symbol><symbol overflow="visible" id="L"><path d="M4.563-.484v-5.157H.874v5.157zM7.015 1.25v-7.89h-.657v7.89zM3.922-1.047h-2.39v-4.031h2.39zm0 0"/></symbol><symbol overflow="visible" id="M"><path d="M4.406-.578v-.547c-.36.063-1.234.14-1.797.156l-1.234.016v-1.875h2.203V-5.75H.718v.563h2.22v1.796H.717v3l1.735-.015c.703-.016 1.594-.11 1.953-.172zM7.172 1.25v-7.89h-.64v3.124h-1.11v-2.953h-.64v7.36h.64v-3.813h1.11V1.25zm0 0"/></symbol><symbol overflow="visible" id="N"><path d="M5.703.89v-7.359h-.64v3.016H4.016C3.922-4.97 3.219-5.891 2.28-5.891c-1.015 0-1.75 1.11-1.75 2.875 0 1.782.735 2.875 1.75 2.875 1 0 1.703-1.03 1.75-2.687v-.031h1.032V.89zm1.547.36v-7.89h-.64v7.89zM3.39-3.016C3.39-1.734 2.97-.75 2.298-.75c-.688 0-1.11-.969-1.11-2.266 0-1.28.422-2.28 1.11-2.28.672 0 1.094 1 1.094 2.28zm0 0"/></symbol><symbol overflow="visible" id="O"><path d="M4.625-2.703c-.281-.11-.828-.5-1.25-1.047-.344-.453-.594-1.063-.594-1.86v-.796H2.11v.797c0 .796-.296 1.5-.656 2.03C1.078-3.03.422-2.53.172-2.405l.484.437a4.387 4.387 0 0 0 1.125-1.015c.39-.5.625-1 .672-1.157.047.172.313.657.672 1.047.39.438.875.781 1.094.875zm1.14.89v-4.703h-.64v1.625h-1.39v.579h1.39v2.5zm1.626.563v-5.39H6.75v5.39zM7.516.797C7.234.75 6.594.5 5.89.047c-.657-.438-1.094-1.031-1.094-1.5v-.156H4.03v.156c0 .469-.437 1.047-1.093 1.484C2.234.5 1.593.75 1.312.797l.438.453c.39-.094.844-.313 1.438-.672C3.844.172 4.343-.437 4.421-.609c.062.171.562.78 1.219 1.187.593.36 1.062.594 1.437.672zm0 0"/></symbol><symbol overflow="visible" id="P"><path d="M4.266-.766v-.562c-.313.047-.938.156-1.454.156l-1.265.016v-3.907h2.078v-.562H.891v5.047c.046 0 .953.015 1.75-.031.78-.016 1.343-.11 1.625-.157zM7.187 1.25v-7.89h-.625v3.124H5.36v-2.953h-.64v7.36h.64v-3.813h1.204V1.25zm0 0"/></symbol><symbol overflow="visible" id="Q"><path d="M6.953-4.813c0-.968-1.11-1.703-2.937-1.703-1.844 0-2.954.735-2.954 1.704 0 .968 1.125 1.687 2.954 1.687 1.828 0 2.937-.719 2.937-1.688zm.89 3.282v-.547H.173v.547h3.5V1.25h.656v-2.781zM4.017-5.97c1.25 0 2.234.453 2.234 1.157 0 .687-1 1.14-2.234 1.14-1.282 0-2.266-.453-2.266-1.14 0-.72.984-1.157 2.266-1.157zm0 0"/></symbol><symbol overflow="visible" id="S"><path d="M5.797-.594v-.547c-.469.079-1.64.188-2.438.22l-1.828.015v-1.938h3.094v-3H.875v.563h3.11v1.875H.874v3.062L3.25-.375c.906-.031 2.047-.14 2.547-.219zM7.03 1.25v-7.89h-.656v7.89zm0 0"/></symbol><symbol overflow="visible" id="T"><path d="M7.234 1.25v-7.89h-.656v2.75H4.672v.562h1.906V1.25zM5.625-.813a4.664 4.664 0 0 1-1.594-1.453c-.531-.78-.734-1.671-.734-2.546v-1.375H2.64v1.375c0 .875-.22 1.828-.688 2.562A5.414 5.414 0 0 1 .266-.61l.515.454a5.809 5.809 0 0 0 1.344-1.25c.516-.657.766-1.25.844-1.578.11.328.375.921.844 1.515a5.32 5.32 0 0 0 1.359 1.14zm0 0"/></symbol><symbol overflow="visible" id="U"><path d="M4.203-5.61v-.577h-2.5v.578zm3.031 6.86v-7.89h-.656v7.89zM5.422-.672c-.344-.156-.781-.469-1.297-1.047-.5-.547-.828-1.297-.828-2.062v-.25H5.14v-.578H.766v.578h1.843v.25a3.27 3.27 0 0 1-.718 2C1.406-1.171.656-.688.328-.5l.5.469c.36-.188.906-.625 1.328-1.094.422-.453.688-.953.797-1.313.125.344.39.782.735 1.188A5.756 5.756 0 0 0 5.016-.156zm0 0"/></symbol><symbol overflow="visible" id="V"><path d="M4.625-2.438c-.25-.124-.828-.578-1.203-1.093-.344-.469-.64-1.235-.64-1.953v-.922h-.673v.922c0 .734-.265 1.453-.625 1.984A4.877 4.877 0 0 1 .141-2.203l.53.422c.25-.157.72-.547 1.11-1.078.344-.422.61-.985.657-1.172.062.187.296.656.656 1.11.375.437.875.827 1.094.952zm1.14 1.407v-5.485h-.64v1.766h-1.39v.578h1.39v3.14zm1.626.172v-5.782H6.75v5.782zm.234 1.937V.516H2.641V-1.36h-.657v2.437zm0 0"/></symbol><symbol overflow="visible" id="W"><path d="M5.453-.64v-.547a19.07 19.07 0 0 1-1.937.156C2.687-.984 1.64-1 1.594-1v-1.938h2.86V-3.5h-2.86v-1.75h3.015v-.547H.938v5.36c.078 0 1.578.015 2.562-.032.75-.047 1.469-.094 1.953-.172zm1.594 1.89v-7.89h-.64v2.952H4.874v.547h1.531V1.25zm0 0"/></symbol><symbol overflow="visible" id="X"><path d="M6.438-8.672v1.063h-4.25v2.796h3.984v1.063H2.188v3.016h4.328V.328H1v-9zm0 0"/></symbol><symbol overflow="visible" id="Y"><path d="M5.125-.531a1.53 1.53 0 0 1-.797.734 2.888 2.888 0 0 1-1.125.219c-.844 0-1.488-.254-1.922-.75C.844-.836.625-1.555.625-2.484v-1.22c0-.444.063-.85.188-1.218.12-.371.3-.687.53-.937.227-.246.505-.438.829-.563.32-.133.68-.203 1.078-.203.508 0 .91.09 1.203.266.29.18.504.367.64.562v-3.312h1.173V.328H5.14v-.86zm-.016-3.594c0-.164-.043-.336-.125-.516a1.535 1.535 0 0 0-.359-.468 2.03 2.03 0 0 0-.563-.329 2.003 2.003 0 0 0-.703-.125c-.5 0-.894.18-1.171.532-.274.355-.407.863-.407 1.515v.829c0 .656.14 1.164.422 1.515.277.356.664.531 1.156.531.246 0 .477-.035.688-.109.207-.082.39-.195.547-.344.152-.152.281-.336.375-.547.09-.207.14-.445.14-.718zm0 0"/></symbol><symbol overflow="visible" id="Z"><path d="M.844-6.5h1.172v4.234c0 .586.113 1.008.343 1.266.227.25.586.375 1.079.375.195 0 .394-.035.593-.11.196-.07.375-.175.532-.312.152-.133.28-.305.375-.516.09-.207.14-.44.14-.703V-6.5h1.188V.328H5.125v-.86h-.016c-.199.313-.46.552-.78.72-.325.175-.724.265-1.188.265-.325 0-.63-.055-.907-.156a1.969 1.969 0 0 1-.718-.438 2.19 2.19 0 0 1-.5-.765c-.118-.301-.172-.66-.172-1.078zm0 0"/></symbol><symbol overflow="visible" id="aa"><path d="M3.469-6.625c.539 0 .988.074 1.344.219.351.136.664.316.937.531l-.563.906a3.097 3.097 0 0 0-.843-.468 2.922 2.922 0 0 0-.875-.125c-.219 0-.434.042-.64.125a1.38 1.38 0 0 0-.532.359 1.75 1.75 0 0 0-.36.61c-.093.25-.14.55-.14.89v.875c0 .367.047.68.14.937.09.262.22.477.375.641.153.156.333.277.532.36.207.074.422.109.64.109.434 0 .797-.055 1.079-.172.289-.121.554-.274.796-.453l.563.922c-.242.199-.559.375-.953.53-.387.165-.887.25-1.5.25-.918 0-1.63-.273-2.125-.812C.852-.94.609-1.71.609-2.703v-.86c0-.488.067-.921.204-1.296.132-.383.32-.707.562-.97.246-.257.55-.456.906-.593a3.35 3.35 0 0 1 1.188-.203zm0 0"/></symbol><symbol overflow="visible" id="ab"><path d="M2.781.422c-.668 0-1.199-.168-1.594-.5C.801-.418.61-.895.61-1.5v-.328c0-.582.188-1.055.563-1.422.383-.371 1-.563 1.844-.563h1.687v-.39c0-.457-.113-.797-.328-1.016-.21-.226-.559-.343-1.047-.343-.387 0-.726.066-1.015.187a5.978 5.978 0 0 0-.891.5l-.578-.89c.32-.239.687-.442 1.094-.61.402-.164.875-.25 1.406-.25.37 0 .71.05 1.015.14.301.094.563.239.782.423.226.187.406.417.53.687.122.273.188.582.188.922V.328H4.734V-.5H4.72a1.164 1.164 0 0 1-.266.344 1.841 1.841 0 0 1-.344.265c-.18.102-.37.18-.578.235-.21.05-.46.078-.75.078zm1.922-3.203H3.047c-.469 0-.805.097-1 .281-.2.18-.297.43-.297.75v.172c0 .336.113.582.344.734.226.149.5.219.812.219.29 0 .54-.035.75-.11.215-.07.414-.175.594-.312a.994.994 0 0 0 .344-.422c.07-.164.11-.379.11-.64zm0 0"/></symbol><symbol overflow="visible" id="ac"><path d="M1.36-5.469H.265V-6.5h1.093v-1.734h1.172V-6.5h1.75v1.031h-1.75v3.89c0 .212.02.38.063.5.039.126.097.227.172.298.07.062.16.113.265.14.114.024.227.032.344.032.29 0 .582-.055.875-.172l.188.984a4.19 4.19 0 0 1-.563.14 2.98 2.98 0 0 1-.672.079c-.637 0-1.105-.164-1.406-.484-.293-.32-.438-.829-.438-1.516zm0 0"/></symbol><symbol overflow="visible" id="ad"><path d="M2.156-6.5V.328H.984V-6.5zm.031-2.453v1.328H.938v-1.328zm0 0"/></symbol><symbol overflow="visible" id="ae"><path d="M3.563-6.625c.902 0 1.624.273 2.156.813.527.542.797 1.308.797 2.296v.829c0 .992-.27 1.757-.797 2.296-.532.54-1.254.813-2.157.813-.917 0-1.644-.274-2.171-.813C.867-.93.609-1.695.609-2.687v-.829c0-.996.258-1.765.782-2.296.527-.54 1.254-.813 2.171-.813zm0 5.984c.519 0 .94-.175 1.265-.53.332-.352.5-.891.5-1.61v-.64c0-.716-.168-1.255-.5-1.61-.324-.352-.746-.532-1.266-.532-.53 0-.96.18-1.28.532-.325.355-.485.894-.485 1.61v.64c0 .719.16 1.258.484 1.61.32.355.75.53 1.281.53zm0 0"/></symbol><symbol overflow="visible" id="af"><path d="M6.406.328H5.234v-4.25c0-.57-.12-.988-.359-1.25-.23-.258-.59-.39-1.078-.39-.211 0-.414.039-.61.109a1.636 1.636 0 0 0-.922.828c-.093.21-.14.45-.14.719V.328H.937V-6.5h1.141v.86h.016c.195-.32.46-.567.797-.735.332-.164.726-.25 1.187-.25.32 0 .625.055.906.156.278.094.524.242.735.438.215.199.383.457.5.765.12.305.187.664.187 1.079zm0 0"/></symbol><symbol overflow="visible" id="az"><path d="M1-8.672h3.11c.495 0 .93.067 1.296.188.364.125.66.304.89.53.24.231.415.509.532.829.121.313.188.652.188 1.016v.265c0 .367-.067.711-.188 1.032a2.337 2.337 0 0 1-.562.843 2.637 2.637 0 0 1-.907.578c-.355.137-.773.204-1.25.204H2.188V.328H1zm1.188 1.063v3.359h1.718c1.258 0 1.89-.54 1.89-1.625v-.219c0-.508-.151-.89-.452-1.14-.305-.246-.739-.375-1.297-.375zm0 0"/></symbol><symbol overflow="visible" id="aA"><path d="M3-.625c.434 0 .773-.078 1.016-.234a.738.738 0 0 0 .375-.657v-.093a.941.941 0 0 0-.063-.36.602.602 0 0 0-.234-.265 2.26 2.26 0 0 0-.469-.204 11.98 11.98 0 0 0-.75-.203 5.824 5.824 0 0 1-.969-.265 3.106 3.106 0 0 1-.718-.39 1.5 1.5 0 0 1-.454-.563 1.914 1.914 0 0 1-.14-.766v-.156c0-.227.047-.457.14-.688.102-.226.254-.426.454-.593.195-.165.453-.301.765-.407.309-.101.68-.156 1.11-.156.445 0 .867.055 1.265.156.395.106.754.278 1.078.516l-.515.906a2.57 2.57 0 0 0-.782-.39 3.051 3.051 0 0 0-.968-.157c-.493 0-.848.082-1.063.235a.709.709 0 0 0-.312.593v.11c0 .273.109.472.328.593.215.125.586.243 1.11.344a6.41 6.41 0 0 1 1.046.281c.3.106.547.243.734.407.196.156.344.351.438.578.09.219.14.492.14.812v.157c0 .261-.058.511-.171.75a1.9 1.9 0 0 1-.5.609 2.572 2.572 0 0 1-.797.39 3.385 3.385 0 0 1-1.047.157A4.763 4.763 0 0 1 1.53.188C1.082.039.7-.156.391-.406l.546-.938c.29.211.602.383.938.516.34.137.719.203 1.125.203zm0 0"/></symbol><symbol overflow="visible" id="ag"><path d="M4.672-1.375c1.656 0 2.89.516 2.89 1.328 0 .781-1.234 1.313-2.89 1.313-1.656 0-2.875-.532-2.875-1.313 0-.812 1.219-1.328 2.875-1.328zm-.25-1.64v1.234C2.438-1.72 1.266-1 1.266-.047c0 .985 1.25 1.719 3.406 1.719 2.172 0 3.422-.734 3.422-1.719 0-.953-1.156-1.672-3.156-1.734v-1.235h4.218v-.406H.203v.406zM4.39-6.907c.015 1.062-2.282 2.203-3.5 2.375l.312.39c.5-.078 2.688-.796 3.453-2.062.547.875 1.875 1.672 3.469 2.047l.328-.36c-1.062-.203-3.547-1.203-3.547-2.39h3v-.407H1.391v.407zm0 0"/></symbol><symbol overflow="visible" id="ah"><path d="M7.89-5.016h1.423v-.421H7.89v-2.329h-.5v5.672h.5zM5-1.53c1.547 0 2.672.531 2.672 1.39C7.672.688 6.547 1.203 5 1.203c-1.578 0-2.703-.516-2.703-1.344C2.297-1 3.422-1.53 5-1.53zm-.016-.422c-2.078 0-3.218.766-3.218 1.797s1.14 1.781 3.218 1.781c2.094 0 3.22-.75 3.22-1.781 0-1.032-1.126-1.797-3.22-1.797zM3.063-6.937c1.203 0 1.859.765 1.859 1.734s-.656 1.75-1.86 1.75c-1.203 0-1.859-.781-1.859-1.75s.656-1.734 1.86-1.734zm0-.5c-1.422 0-2.422 1-2.422 2.234s1 2.234 2.421 2.234c1.407 0 2.422-1 2.422-2.234S4.47-7.437 3.063-7.437zm0 0"/></symbol><symbol overflow="visible" id="ai"><path d="M5.703-7.531v8.578h.5v-4.563h1.625V1.47h.5v-9.235h-.5v3.829H6.203v-3.594zM5.172-.938v-.421c-.61.125-2.125.203-2.984.203h-.563v-4.922h2.656V-6.5H1.125v5.766h1.031c1.063 0 2.406-.11 3.016-.204zm0 0"/></symbol><symbol overflow="visible" id="aj"><path d="M3.484-4.813c1.157 0 1.782.5 1.782 1.094 0 .594-.625 1.063-1.782 1.063-1.14 0-1.765-.469-1.765-1.063s.625-1.094 1.765-1.094zm0-.39c-1.437 0-2.296.656-2.296 1.484 0 .844.843 1.485 2.296 1.485 1.438 0 2.313-.641 2.313-1.485 0-.828-.86-1.484-2.313-1.484zM.704-6.25v.422H6.28v-.422zm1.109 5.016v.421H7.5V1.47H8v-2.703zM7.984-4.61h1.422v-.407H7.984v-2.75H7.47v5.907h.515zM1.97-7.594v.407h2.937v-.407zm0 0"/></symbol><symbol overflow="visible" id="ak"><path d="M6.766-1.594h.5c.39-1.922.546-3.015.671-4.968h-6.53v.421H7.39a29.435 29.435 0 0 1-.625 4.547zm2.39 1.64v-.405H5.47V-3.75h-.516v3.39H3.156v-3.39h-.5v3.39H.203v.407zm0 0"/></symbol><symbol overflow="visible" id="am"><path d="M5.406-1.484c1.625 0 2.813.53 2.813 1.39 0 .844-1.188 1.375-2.813 1.375C3.781 1.281 2.61.75 2.61-.094c0-.86 1.172-1.39 2.797-1.39zm0-.407c-2.14 0-3.343.75-3.343 1.782 0 1.046 1.203 1.78 3.343 1.78 2.157 0 3.36-.734 3.36-1.78 0-1.032-1.204-1.782-3.36-1.782zm2.688-3.39H6.563v-2.313h-.516v5.266h.516V-4.86h1.53v2.734h.5v-5.64h-.5zM3-5.171c.39 1.296 1.734 2.28 2.234 2.546l.313-.39C4.672-3.438 3.25-4.532 3.25-6.438v-1h-.5v1c0 1.859-1.563 3.359-2.39 3.78l.359.313C1.047-2.516 2.516-3.547 3-5.172zm0 0"/></symbol><symbol overflow="visible" id="an"><path d="M1.531-6.656h3.14v3.172h-3.14zM5.11-1.453c1.594 0 2.782.484 2.782 1.344 0 .843-1.188 1.343-2.782 1.343-1.593 0-2.765-.5-2.765-1.343 0-.86 1.172-1.344 2.765-1.344zm0-.438c-2.093 0-3.265.75-3.265 1.782 0 1.046 1.172 1.78 3.265 1.78 2.125 0 3.282-.734 3.282-1.78 0-1.032-1.157-1.782-3.282-1.782zm2.625-4.312H5.188v-.875H1.016v4h4.171v-.985h2.547v1.97h.5v-5.673h-.5zm0 1.719H5.188v-1.297h2.546zm0 0"/></symbol><symbol overflow="visible" id="ao"><path d="M5.89-6.516H.97v.407h4.343c-.015 1.093-.28 2.937-.437 3.843h.5a44.64 44.64 0 0 0 .516-4.25zm1.532-1.25V1.47h.516v-4.703h1.468v-.422H7.937v-4.11zm-.453 7.11v-.406c-1.063.156-2.86.25-3.86.25v-3.094h-.515v3.094H.406v.421h1c2.985 0 4.25-.078 5.563-.265zm0 0"/></symbol><symbol overflow="visible" id="ap"><path d="M6.266-4.203H4.53v.422h1.735v4.828h.515v-8.594h-.515zm1.828-3.563V1.47h.5v-9.235zM2.64-6.14v1.188C2.64-2.406.89-.922.312-.47l.422.313C1.156-.5 2.406-1.61 2.906-3.47 3.296-1.78 4.75-.609 5.031-.422l.344-.36c-.344-.202-2.219-1.562-2.219-4.171v-1.188H4.97v-.406H.812v.406zm0 0"/></symbol><symbol overflow="visible" id="aq"><path d="M1.656-1.547v.422H7.36v2.594h.516v-3.016zm6.172-4.25H9.25v-.422H7.828v-1.547h-.5v5.61h.5v-1.688H9.25v-.406H7.828zm-4.875-1.14c1.219 0 1.875.765 1.875 1.734s-.656 1.75-1.875 1.75c-1.187 0-1.86-.781-1.86-1.75s.673-1.734 1.86-1.734zm0-.5c-1.406 0-2.406 1-2.406 2.234s1 2.234 2.406 2.234c1.422 0 2.422-1 2.422-2.234s-1-2.234-2.422-2.234zm0 0"/></symbol><symbol overflow="visible" id="ar"><path d="M1.422-4h3.25v3h-3.25zm-.5-2.813v6.235h4.266v-6.234h-.516v2.406h-3.25v-2.407zm6.812 3.36h1.422v-.422H7.734v-3.89H7.22v9.234h.515zm0 0"/></symbol><symbol overflow="visible" id="as"><path d="M7.734-7.766V1.47h.5v-9.235zm-6.359 4.11c0-1.578.594-2.86 1.719-2.86s1.703 1.297 1.703 2.86c0 1.594-.578 2.906-1.703 2.906S1.375-2.047 1.375-3.656zm-.531.015c0 2.032.89 3.375 2.234 3.375 1.36 0 2.235-1.343 2.235-3.375C5.313-5.67 4.438-7 3.078-7 1.734-7 .844-5.672.844-3.64zm0 0"/></symbol><symbol overflow="visible" id="at"><path d="M7.453-4.86c0 1.094-1.234 1.844-2.781 1.844-1.516 0-2.766-.75-2.766-1.843 0-1.11 1.25-1.844 2.766-1.844s2.781.734 2.781 1.844zM4.937-2.53C6.86-2.625 8.031-3.656 8.031-4.86c0-1.282-1.312-2.329-3.36-2.329-2.046 0-3.343 1.047-3.343 2.329 0 1.203 1.172 2.234 3.094 2.328v2.297H.203v.406h8.953v-.406H4.937zm0 0"/></symbol><symbol overflow="visible" id="au"><path d="M1.156-3.516c0-1.593.547-2.859 1.469-2.859s1.469 1.297 1.469 2.86c0 1.593-.547 2.859-1.469 2.859s-1.469-1.235-1.469-2.86zm-.547 0c0 2.032.86 3.344 2.016 3.344 1.172 0 2.016-1.312 2.016-3.344 0-2.046-.844-3.328-2.016-3.328-1.156 0-2.016 1.282-2.016 3.328zm7.22-.375H6.312v-3.656h-.516v8.594h.516v-4.5h1.515v4.922h.516v-9.235h-.516zm0 0"/></symbol><symbol overflow="visible" id="av"><path d="M6.453-3.672v-.422c-.625.14-2.437.375-4.094.375h-.828v-3.578h-.5v4h1.157c2.046 0 3.624-.25 4.265-.375zm1.234-2.453H4.626v.422h3.063v2.781h.5v-4.844h-.5zM8.5 1.359V.938H2.594V-.298h5.562v-2.047H2.078v.422h5.578v1.203H2.078V1.36zm0 0"/></symbol><symbol overflow="visible" id="aw"><path d="M7.625-7.766V1.47h.516v-9.235zM6.828-.78v-.406c-.484.093-1.937.28-4.078.28H1.516v-2.546h3.859v-3.281H1v.406h3.875v2.453H1v3.39h1.844c2.125 0 3.453-.203 3.984-.296zm0 0"/></symbol><symbol overflow="visible" id="ax"><path d="M9.156-.078V-.5H.203v.422zM4.672-5.391c.75 2.188 3.219 3.266 3.547 3.344l.328-.36C7.078-2.89 4.969-4.421 4.969-6.421v-.64H4.39v.64c0 1.984-2.157 3.594-3.579 4.016l.329.36c.328-.079 2.906-1.22 3.53-3.345zm0 0"/></symbol><symbol overflow="visible" id="ay"><path d="M2.031-4.188h5.797v-.421H2.031v-1.688h5.797v-.422H1.531v4.657h6.407v-.407H2.03zm7.125 3.72H.203v.421h8.953zm0 0"/></symbol></defs><g fill="#4f4c4d"><use xlink:href="#a" x="336.467" y="47.727"/><use xlink:href="#b" x="344.467" y="47.727"/><use xlink:href="#c" x="352.468" y="47.727"/><use xlink:href="#d" x="360.468" y="47.727"/><use xlink:href="#e" x="368.468" y="47.727"/><use xlink:href="#f" x="371.075" y="47.727"/><use xlink:href="#g" x="379.075" y="47.727"/><use xlink:href="#h" x="387.076" y="47.727"/><use xlink:href="#i" x="395.076" y="47.727"/><use xlink:href="#j" x="403.076" y="47.727"/><use xlink:href="#k" x="411.076" y="47.727"/><use xlink:href="#a" x="419.077" y="47.727"/><use xlink:href="#b" x="427.077" y="47.727"/></g><use xlink:href="#l" x="435.076" y="47.727" fill="#231f20"/><g fill="#231f20"><use xlink:href="#m" x="437.683" y="47.727"/><use xlink:href="#n" x="445.683" y="47.727"/><use xlink:href="#o" x="453.684" y="47.727"/><use xlink:href="#p" x="461.684" y="47.727"/><use xlink:href="#q" x="469.684" y="47.727"/><use xlink:href="#r" x="477.684" y="47.727"/><use xlink:href="#s" x="485.685" y="47.727"/><use xlink:href="#t" x="493.685" y="47.727"/><use xlink:href="#u" x="496.292" y="47.727"/><use xlink:href="#v" x="501.703" y="47.727"/><use xlink:href="#w" x="506.503" y="47.727"/><use xlink:href="#x" x="508.436" y="47.727"/><use xlink:href="#t" x="511.043" y="47.727"/><use xlink:href="#y" x="513.65" y="47.727"/><use xlink:href="#z" x="517.605" y="47.727"/></g><g fill="#393536"><use xlink:href="#A" x="540.818" y="48.426"/><use xlink:href="#B" x="546.392" y="48.426"/></g><g fill="#33459a"><use xlink:href="#C" x="221.525" y="317.527"/><use xlink:href="#D" x="235.04" y="317.527"/><use xlink:href="#E" x="239.981" y="317.527"/><use xlink:href="#D" x="253.496" y="317.527"/><use xlink:href="#F" x="258.437" y="317.527"/><use xlink:href="#D" x="271.952" y="317.527"/></g><g fill="#33459a"><use xlink:href="#G" x="276.892" y="316.628"/><use xlink:href="#H" x="287.704" y="316.628"/><use xlink:href="#I" x="298.516" y="316.628"/><use xlink:href="#J" x="309.328" y="316.628"/><use xlink:href="#K" x="320.14" y="316.628"/></g><g fill="#231f20"><use xlink:href="#L" x="221.525" y="338.041"/><use xlink:href="#M" x="229.373" y="338.041"/><use xlink:href="#N" x="237.22" y="338.041"/><use xlink:href="#O" x="245.067" y="338.041"/><use xlink:href="#P" x="252.915" y="338.041"/><use xlink:href="#Q" x="260.762" y="338.041"/><use xlink:href="#R" x="268.61" y="338.041"/><use xlink:href="#S" x="271.487" y="338.041"/><use xlink:href="#T" x="279.335" y="338.041"/><use xlink:href="#U" x="287.182" y="338.041"/><use xlink:href="#V" x="295.03" y="338.041"/><use xlink:href="#W" x="302.877" y="338.041"/></g><g fill="#fff"><use xlink:href="#X" x="133.871" y="394.631"/><use xlink:href="#Y" x="140.871" y="394.631"/><use xlink:href="#Z" x="147.846" y="394.631"/><use xlink:href="#aa" x="154.81" y="394.631"/><use xlink:href="#ab" x="160.732" y="394.631"/><use xlink:href="#ac" x="167.174" y="394.631"/><use xlink:href="#ad" x="171.643" y="394.631"/><use xlink:href="#ae" x="174.537" y="394.631"/><use xlink:href="#af" x="181.416" y="394.631"/></g><path d="M91.29 430.582h424.679" fill="none" stroke-width=".299637" stroke="#33459a" stroke-miterlimit="10"/><g fill="#231f20"><use xlink:href="#ag" x="92.705" y="422.823"/><use xlink:href="#ah" x="101.861" y="422.823"/><use xlink:href="#ai" x="111.016" y="422.823"/><use xlink:href="#aj" x="120.171" y="422.823"/><use xlink:href="#ak" x="129.327" y="422.823"/><use xlink:href="#al" x="138.482" y="422.823"/><use xlink:href="#am" x="141.839" y="422.823"/><use xlink:href="#an" x="150.995" y="422.823"/><use xlink:href="#ao" x="160.15" y="422.823"/><use xlink:href="#aj" x="169.305" y="422.823"/><use xlink:href="#ao" x="178.461" y="422.823"/></g><path d="M91.29 523.977h424.679" fill="none" stroke-width=".299637" stroke="#33459a" stroke-miterlimit="10"/><g fill="#231f20"><use xlink:href="#ap" x="92.705" y="516.216"/><use xlink:href="#aq" x="101.861" y="516.216"/><use xlink:href="#ar" x="111.016" y="516.216"/><use xlink:href="#as" x="120.171" y="516.216"/><use xlink:href="#at" x="129.327" y="516.216"/><use xlink:href="#al" x="138.482" y="516.216"/><use xlink:href="#au" x="141.839" y="516.216"/><use xlink:href="#av" x="150.995" y="516.216"/><use xlink:href="#aw" x="160.15" y="516.216"/><use xlink:href="#ax" x="169.305" y="516.216"/><use xlink:href="#ay" x="178.461" y="516.216"/></g><g fill="#fff"><use xlink:href="#az" x="133.871" y="487.882"/><use xlink:href="#ae" x="141.101" y="487.882"/><use xlink:href="#aA" x="147.98" y="487.882"/><use xlink:href="#ad" x="153.768" y="487.882"/><use xlink:href="#ac" x="156.663" y="487.882"/><use xlink:href="#ad" x="161.131" y="487.882"/><use xlink:href="#ae" x="164.026" y="487.882"/><use xlink:href="#af" x="170.904" y="487.882"/></g></svg>