<svg xmlns="http://www.w3.org/2000/svg" xmlns:xlink="http://www.w3.org/1999/xlink" width="793.701" height="1058.268" viewBox="0 0 595.276 793.701" version="1.2"><defs><clipPath id="bx"><path d="M364 146h230.555v233H364zm0 0"/></clipPath><clipPath id="by"><path d="M367 146h227.555v233H367zm0 0"/></clipPath><clipPath id="bz"><path d="M370 146h224.555v233H370zm0 0"/></clipPath><clipPath id="bA"><path d="M373 146h221.555v233H373zm0 0"/></clipPath><clipPath id="bB"><path d="M376 146h218.555v233H376zm0 0"/></clipPath><clipPath id="bC"><path d="M379 146h215.555v233H379zm0 0"/></clipPath><clipPath id="bD"><path d="M382 146h212.555v233H382zm0 0"/></clipPath><clipPath id="bE"><path d="M385 146h209.555v233H385zm0 0"/></clipPath><clipPath id="bF"><path d="M388 146h206.555v233H388zm0 0"/></clipPath><clipPath id="bG"><path d="M391 146h203.555v233H391zm0 0"/></clipPath><clipPath id="bH"><path d="M394 146h200.555v233H394zm0 0"/></clipPath><clipPath id="bI"><path d="M397 146h197.555v233H397zm0 0"/></clipPath><clipPath id="bJ"><path d="M400 146h194.555v233H400zm0 0"/></clipPath><symbol overflow="visible" id="a"><path d="M2.875.031c.434 0 .82-.144 1.156-.437.332-.301.594-.64.782-1.016.183-.34.316-.71.39-1.11.082-.402.125-.804.125-1.202 0-.403-.05-.813-.14-1.22a4.843 4.843 0 0 0-.407-1.155A3.031 3.031 0 0 0 4-7.063a1.747 1.747 0 0 0-1.14-.421c-.844 0-1.473.457-1.876 1.359-.406.906-.609 1.707-.609 2.39 0 .712.203 1.52.61 2.422C1.386-.413 2.02.032 2.874.032zm0-.281c-.75 0-1.227-.441-1.422-1.328-.2-.895-.297-1.613-.297-2.156 0-.54.098-1.254.297-2.141.195-.895.672-1.344 1.422-1.344.363 0 .648.137.86.407.206.273.363.566.468.875.113.343.195.71.25 1.093.059.387.094.758.094 1.11 0 .324-.035.675-.094 1.046a9.33 9.33 0 0 1-.203 1.016c-.094.336-.254.66-.469.969-.21.305-.511.453-.906.453zm0 0"/></symbol><symbol overflow="visible" id="b"><path d="M2.5-4.39l.86-.47c.245-.132.503-.304.765-.515a.964.964 0 0 0 .406-.797c0-.445-.183-.773-.547-.984a2.113 2.113 0 0 0-1.125-.297c-.304.012-.59.066-.859.156-.273.086-.52.238-.734.453a1.957 1.957 0 0 0-.204.266c-.085.117-.125.215-.125.297 0 .031.008.066.032.093.02.032.047.047.078.047.039 0 .078-.023.11-.078.027-.05.054-.093.077-.125.133-.215.32-.398.563-.547a1.4 1.4 0 0 1 .766-.234c.269 0 .519.082.75.234.226.157.343.387.343.688 0 .48-.293.902-.875 1.266-.574.367-1.039.667-1.39.906l-.375.25-.11.078c-.043.023-.062.066-.062.125 0 .031.008.058.031.078a.143.143 0 0 0 .094.031c.039 0 .086-.008.14-.031a.53.53 0 0 0 .125-.063c.184-.113.391-.203.61-.265.226-.07.457-.11.687-.11.559 0 1.008.196 1.344.579.332.375.5.836.5 1.375 0 .367-.086.714-.25 1.046a2.37 2.37 0 0 1-.656.844 3.086 3.086 0 0 1-.688.422c-.281.145-.55.219-.797.219a.489.489 0 0 1-.328-.11 1.133 1.133 0 0 1-.203-.28 1.328 1.328 0 0 0-.219-.298.44.44 0 0 0-.328-.14c-.136 0-.242.043-.312.125a.456.456 0 0 0-.11.312c0 .278.133.473.407.578.277.102.53.157.75.157.445 0 .894-.118 1.343-.344.446-.23.832-.492 1.157-.781.308-.278.562-.614.75-1 .195-.383.296-.786.296-1.204 0-.59-.207-1.078-.609-1.453-.398-.37-.894-.562-1.484-.562zm0 0"/></symbol><symbol overflow="visible" id="c"><path d="M4.094-6.734l.203-.032a.45.45 0 0 0 .14-.015c.04-.02.07-.055.094-.11l.078-.312c0-.008.008-.067.032-.172.027-.102.046-.16.046-.172 0-.058-.027-.086-.078-.078a.7.7 0 0 0-.14.016l-2.594.343c-.219.032-.352.067-.39.094-.044.031-.098.152-.157.36l-.61 2.109a.385.385 0 0 0-.046.11.438.438 0 0 0-.031.14c0 .043.02.07.062.078.04.012.078.016.11.016a10.782 10.782 0 0 1 2 .28c.433.126.796.325 1.078.595.277.273.421.652.421 1.14 0 .45-.144.867-.421 1.25a3.069 3.069 0 0 1-.985.89 5.708 5.708 0 0 1-1.015.407A5.046 5.046 0 0 1 .828.422a.758.758 0 0 0-.14.016C.632.457.609.5.609.561c0 .04.016.067.047.079a.19.19 0 0 0 .11.03c.101 0 .257-.023.468-.062A9.032 9.032 0 0 0 2.531.25c.278-.094.535-.207.766-.328a4.62 4.62 0 0 0 1.219-1.047c.363-.426.546-.914.546-1.469 0-.37-.097-.734-.28-1.078A2.1 2.1 0 0 0 4-4.5a3.72 3.72 0 0 0-1.047-.375 8.69 8.69 0 0 0-1.11-.172l-.421-.031a5.264 5.264 0 0 1-.203-.031c-.074-.008-.11-.051-.11-.125 0-.028.008-.079.032-.141a.934.934 0 0 1 .046-.14l.125-.47c.07-.226.133-.35.188-.374.05-.028.203-.063.453-.094zm0 0"/></symbol><symbol overflow="visible" id="d"><path d="M8.469 1.61v-9.376H7.406V1.61zM6.64 1.155v-8.75H5.578v2.813H4.25v1.078h1.328v4.86zM3.375-5.172v-1h1.422v-.969H.828v.97h1.406v.968c0 .984-.156 1.797-.453 2.469-.36.812-.89 1.406-1.64 1.89.312.235.687.485.921.703A5.416 5.416 0 0 0 2.11-1.234c.297-.407.563-.86.688-1.266.172.406.422.797.719 1.14.296.391.656.704.968.923.22-.25.485-.516.75-.766-.687-.438-1.156-.969-1.453-1.61-.281-.64-.406-1.406-.406-2.359zm0 0"/></symbol><symbol overflow="visible" id="e"><path d="M.14-1.25C.188.188 1 1.031 2.11 1.031c1.484 0 2.25-1.093 2.25-2.922 0-1.5-.876-2.546-2.016-2.546-.438 0-.813.171-.953.328l.218-2.079h2.422v-.984H.781L.36-2.812l.891.093c.219-.515.594-.797.953-.797.578 0 1.094.672 1.094 1.782 0 1.093-.422 1.859-1.11 1.859-.515 0-.953-.438-1-1.375zm0 0"/></symbol><symbol overflow="visible" id="f"><path d="M6.25-5.219v-.922H1.062v.922zm.625 3.907c-.625.093-2 .187-2.578.187v-.766c.937-.14 1.625-.703 1.625-1.437 0-.89-.953-1.516-2.266-1.516-1.25 0-2.25.625-2.25 1.516 0 .734.766 1.344 1.735 1.469v.765H.67v1h2.032c1.75 0 3.375-.14 4.172-.234zM3.656-2.61c-.61 0-1.172-.266-1.172-.72 0-.452.563-.702 1.172-.702.656 0 1.203.25 1.203.703 0 .437-.546.719-1.203.719zm1.438-4.125v-.891H2.297v.89zm3.203 8.343v-9.375H7.203V1.61zm0 0"/></symbol><symbol overflow="visible" id="h"><path d="M8.063 1.61v-9.376H6.968V1.61zM5.374-.673v-6.5H1.062v6.5zM4.297-1.64h-2.14v-4.562h2.14zm0 0"/></symbol><symbol overflow="visible" id="i"><path d="M8.234 1.61v-9.376h-1.03v3.172h-.938v-3H5.203v8.75h1.063v-4.61h.937V1.61zM4.86-1.782c-.375.078-1.265.172-1.89.172l-.922.015v-1.843h2.25V-7.25H.969v.984h2.25v1.86H.969V-.61l1.578-.016c1.047 0 1.937-.156 2.312-.203zm0 0"/></symbol><symbol overflow="visible" id="j"><path d="M8.25 1.61v-9.376H7.172V1.61zM1.031-5.11c0 1.329 1.032 2.423 2.469 2.423 1.438 0 2.453-1.094 2.453-2.422 0-1.297-1.016-2.375-2.453-2.375-1.438 0-2.469 1.078-2.469 2.375zm1.078 0c0-.765.532-1.406 1.391-1.406.86 0 1.375.641 1.375 1.422 0 .797-.516 1.438-1.375 1.438-.86 0-1.39-.656-1.39-1.453zm4.72 3.438c-.641.094-2.235.281-3.032.281-.828.094-3.063.032-3.156.032v1.015c.078 0 1.828.078 2.609-.015 1.453 0 2.86-.235 3.578-.375zm0 0"/></symbol><symbol overflow="visible" id="k"><path d="M9.094-4.266v-1.046H7.89v-2.454H6.812v6.032h1.079v-2.532zm-4.39-2.671v-.86H1.89v.86zm1.28 1.468v-.89H.656v.89zM.954-3.547c0 .86 1.046 1.531 2.359 1.531 1.437 0 2.39-.656 2.39-1.53 0-.876-.906-1.532-2.36-1.532-1.405 0-2.39.656-2.39 1.531zm1.14 0c0-.453.547-.703 1.234-.703.703 0 1.203.234 1.203.703 0 .438-.484.703-1.203.703-.687 0-1.234-.25-1.234-.703zM7.89 1.641v-2.985H1.67v.953h5.095v2.032zm0 0"/></symbol><symbol overflow="visible" id="l"><path d="M6.344-7v-.89H2.766V-7zM5.25-5.5h2.64v-.89H1.22v.89h2.64c-.156.422-.625.719-1.218.938-.579.218-1.282.343-1.922.437.265.313.531.656.687.875.594-.11 1.266-.266 1.844-.516.563-.234 1.063-.546 1.328-.937.313.422.89.766 1.516 1 .547.219 1.14.375 1.625.453.187-.266.39-.531.656-.875a7.683 7.683 0 0 1-1.906-.453C5.906-4.797 5.437-5.11 5.25-5.5zm3.563 3.688v-.954H.328v.954h3.828v1.578h1.11v-1.579zm-.766 3.234V.453H2.516v-1.656H1.39v2.625zm0 0"/></symbol><symbol overflow="visible" id="m"><path d="M8.234 1.61v-9.376H7.188V1.61zM.813-7.11v.97h2.296c-.015.984-.218 1.89-.609 2.702-.453.97-1.172 1.797-2.172 2.485.25.14.734.453.969.672 1.047-.813 1.812-1.813 2.297-3.047.203-.516.36-1.047.453-1.625v.156h1.328v1.531H3.922v1.016h1.453v3.406h1.047v-8.75H5.375v1.797H4.172c.047-.422.062-.844.062-1.312zm0 0"/></symbol><symbol overflow="visible" id="n"><path d="M3.313-6.36h2.484l-.031 2.954H3.359zm5.5 6.923v-1H5.124v-1.985h2.969v-.984h-1.25l.031-2.953h1.016v-.985H1.219v.985h1l.031 2.953H1.016v.984H4v1.985H.312v1zm0 0"/></symbol><symbol overflow="visible" id="o"><path d="M8.078-2.281v-5.485H6.984v1.922H5.516v.985h1.468v2.578zM6.031-3.844c-.515.125-1.64.235-2.39.235l-1.61.03v-1h2.985v-2.859H.937v.954h3.016v1.015H.938v2.844c.078 0 1.625 0 2.64-.047 1.047-.047 1.969-.156 2.453-.25zM8.078 1.5v-3.36H1.875V1.5zM6.984.562h-4.03V-.905h4.03zm0 0"/></symbol><symbol overflow="visible" id="p"><path d="M6.781-7.766V1.61h1.094v-4.671h1.266v-1.063H7.875v-3.64zm-2.125 1.11v-.938H1.86v.938zM3.86-4.5v-.39H5.75v-.985H.766v.984h1.906v.391c0 .797-.25 1.484-.656 2.094C1.562-1.766.953-1.25.25-.86c.344.265.703.562.906.78a9.387 9.387 0 0 0 1.235-1.077c.359-.438.671-.907.89-1.407.25.5.547.922.875 1.297.375.391.75.704 1.14.97.22-.235.485-.532.782-.798C5.484-1.39 4.891-1.875 4.5-2.5c-.39-.578-.64-1.25-.64-2zm0 0"/></symbol><symbol overflow="visible" id="q"><path d="M8.375 1.61v-9.376H7.328V1.61zm-1.828-.454v-8.75H5.5v2.578H4.047v1.079H5.5v5.093zM3.234-5.437V-7.36h-1.14V-5.5c0 1.031-.14 1.906-.453 2.64-.344.813-.891 1.47-1.625 2 .359.235.718.485.953.688A5.202 5.202 0 0 0 2-1.312c.297-.454.547-.938.656-1.422.14.468.39.937.688 1.359.265.39.578.719.875.953.281-.25.531-.469.843-.703-.578-.453-1.03-.984-1.328-1.656-.312-.703-.5-1.578-.5-2.656zm0 0"/></symbol><symbol overflow="visible" id="r"><path d="M8.234 1.594v-9.36H7.188v3.141h-1v-2.969H5.14v8.75h1.046v-4.64h1v5.078zM4.766-1.875c-.297.047-1.172.188-1.766.203h-.89v-4.516h2.124v-.968H1.031v6.5c.016 0 1.235 0 1.485-.016.734-.015 1.843-.125 2.25-.219zm0 0"/></symbol><symbol overflow="visible" id="s"><path d="M8.984-3.266v-1.046h-1.25v-3.454H6.625V1.61h1.11v-4.875zM5.22-.625v-6.64H4.14v2.25H1.969v-2.25H.89v6.64zM4.14-1.594H1.969V-4.03H4.14zm0 0"/></symbol><symbol overflow="visible" id="t"><path d="M8.11 1.61v-9.376H7.015V1.61zM.765-3.907c0 2.265 1.03 3.594 2.375 3.594C4.5-.313 5.5-1.657 5.5-3.906c0-2.266-1-3.578-2.36-3.578-1.343 0-2.374 1.28-2.374 3.578zm1.093 0c0-1.297.485-2.547 1.282-2.547.828 0 1.28 1.25 1.28 2.547 0 1.328-.452 2.547-1.28 2.547-.797 0-1.282-1.235-1.282-2.547zm0 0"/></symbol><symbol overflow="visible" id="u"><path d="M8.813.563v-.985H5.124v-2.015c1.781-.172 2.766-1.235 2.766-2.547 0-1.407-1.297-2.594-3.329-2.594-2.015 0-3.359 1.14-3.359 2.594 0 1.312 1 2.359 2.781 2.546v2.016H.313v.984zm-4.25-3.938c-1.172 0-2.188-.578-2.188-1.61 0-.952.969-1.624 2.188-1.624 1.218 0 2.187.64 2.187 1.625 0 1.015-.984 1.609-2.188 1.609zm0 0"/></symbol><symbol overflow="visible" id="v"><path d="M8.297-1.703v-6.063H7.203v2.422h-1.36v.938h1.36v.937h-1.36v.938h1.36v.828zM4.672-6.937v-.86H1.89v.86zM5.719-5.47v-.89H.656v.89zM.937-3.547c0 .86.938 1.531 2.25 1.531 1.438 0 2.329-.656 2.329-1.53 0-.892-.86-1.5-2.266-1.5-1.344 0-2.313.624-2.313 1.5zm1.172 0c0-.453.438-.703 1.125-.703.72 0 1.11.234 1.11.703 0 .438-.39.703-1.11.703-.703 0-1.125-.25-1.125-.703zm6.188 5.188v-2.985H1.922v.953h5.234v2.032zm0 0"/></symbol><symbol overflow="visible" id="w"><path d="M8.14-.875v-6.89H7.063v6.89zM3.767-6.297v-1.266H2.609v1.297a3.03 3.03 0 0 1-.64 1.844C1.516-3.828.875-3.359.187-3.032c.313.25.704.579.891.766a5.28 5.28 0 0 0 1.234-.921c.391-.391.735-.829.876-1.266.234.453.593.86 1 1.187.375.313.78.579 1.125.766.187-.234.484-.594.718-.86a3.93 3.93 0 0 1-1.578-1.124c-.422-.5-.687-1.125-.687-1.813zm4.593 7.719V.438H3.125v-2.016H2v3zm0 0"/></symbol><symbol overflow="visible" id="x"><path d="M8.156 1.61v-9.376H7.062V1.61zM1.094-7.188v.984h3.093a5.957 5.957 0 0 1-.875 2.812c-.609 1-1.515 1.844-2.718 2.5.265.172.734.563.937.75a8.032 8.032 0 0 0 2.985-3.25c.593-1.156.875-2.453.89-3.796zm0 0"/></symbol><symbol overflow="visible" id="y"><path d="M5.172-7.516v-.265H3.969v.265c0 .688-.453 1.172-1.14 1.516-.595.313-1.345.531-2.11.656.25.266.515.594.672.828.64-.156 1.328-.343 1.906-.625.531-.28 1-.625 1.281-1.078.313.5.89.875 1.516 1.172a7.36 7.36 0 0 0 1.64.531c.157-.187.438-.562.672-.828-.672-.093-1.453-.312-2.078-.64-.656-.36-1.156-.86-1.156-1.532zm3.64 4.391v-.922H.329v.922h3.64v.844H1.392v.86H6.5v.64H1.39v2.328h6.548v-.86H2.625V.016h5.11v-2.297H5.155v-.86zm0 0"/></symbol><symbol overflow="visible" id="z"><path d="M4.313-5.078v-.031h1.796v-.938H1.313v.938h1.796v.015c-.062.422-.312.813-.671 1.125-.47.406-1.11.703-1.704.875.266.235.61.578.813.813a4.721 4.721 0 0 0 1.297-.703c.375-.282.687-.61.875-.954.219.36.547.657.906.907.406.265.813.469 1.156.562a9.13 9.13 0 0 1 .672-.797 3.572 3.572 0 0 1-1.36-.671c-.405-.313-.718-.72-.78-1.141zm2.546 3.64c-.718.11-2.203.204-2.609.204v-1.391H3.14v1.406H.64v1H2.72c1.344 0 3.39-.11 4.14-.25zM8.281 1.61v-9.375H7.187V1.61zM5.047-6.703v-.922H2.28v.922zm0 0"/></symbol><symbol overflow="visible" id="A"><path d="M8.813-2.406v-.985H5.124v-1.062h2.719v-.969H2.5v-1.14h5.25v-.97H1.39v3.079H4v1.062H.328v.985zM4.563 1.78c2.203 0 3.375-.797 3.375-1.828 0-1.031-1.172-1.797-3.375-1.797-2.188 0-3.391.766-3.391 1.797s1.203 1.828 3.39 1.828zM2.438-.047c0-.61.796-.922 2.124-.922 1.297 0 2.11.344 2.11.938 0 .562-.813.906-2.11.906-1.328 0-2.125-.344-2.125-.922zm0 0"/></symbol><symbol overflow="visible" id="B"><path d="M8.953-3.36v-.968H7.781v-1.078h1.172v-.953H7.781v-1.407H6.688v5.938H7.78V-3.36zM4.61-6.937v-.859H1.781v.86zM5.875-5.53v-.86H.531v.86zM.797-3.72c0 .797 1.031 1.453 2.406 1.453 1.469 0 2.406-.64 2.406-1.468 0-.813-.937-1.407-2.39-1.407-1.39 0-2.422.61-2.422 1.422zm3.656-.015c0 .437-.453.671-1.234.671-.781 0-1.25-.218-1.25-.656 0-.437.468-.672 1.25-.672.781 0 1.234.235 1.234.657zM7.97 0c0-1.094-1.328-1.75-3.219-1.75-1.797 0-3.25.61-3.25 1.719 0 1.11 1.406 1.797 3.234 1.797C6.578 1.766 7.97 1.14 7.97 0zm-5.25-.016c0-.656 1-.875 2.015-.875 1.125 0 1.985.266 1.985.875 0 .61-.938.907-1.969.907-1.031 0-2.031-.282-2.031-.907zm0 0"/></symbol><symbol overflow="visible" id="C"><path d="M6.734-7.766V1.61h1.079v-4.562h1.234v-1.031H7.812v-3.782zM.86-7.219v.969h3.61c0 1.234-.188 2.89-.344 3.906H5.25c.219-1.437.36-3.156.39-4.875zm5.532 5.703c-.72.11-2.579.22-3.282.235v-2.985H2.016v2.985H.39v1h1.14c2.078 0 3.953-.156 4.86-.281zm0 0"/></symbol><symbol overflow="visible" id="D"><path d="M8.094 1.61v-9.376h-1.11V1.61zM5.39-.61v-6.656H4.297v2.25H2.14v-2.25H1.062v6.657zm-1.094-.984H2.14V-4.03h2.156zm0 0"/></symbol><symbol overflow="visible" id="E"><path d="M8.281-.875v-6.89H7.187v2.14H5.47v1.031h1.718v3.719zM8.5 1.422V.438H3.25V-1.61H2.14v3.03zM3.828-5.844v-.547h1.703v-.968H1v.968h1.688v.516c0 .594-.204 1.11-.516 1.563-.453.64-1.14 1.14-1.875 1.421.281.25.656.594.828.766a5.238 5.238 0 0 0 1.344-.938c.36-.343.656-.718.797-1.078.187.36.515.72.859 1 .438.375.906.657 1.219.797.156-.187.437-.562.703-.828a3.658 3.658 0 0 1-1.531-1.015c-.391-.438-.688-1-.688-1.657zm0 0"/></symbol><symbol overflow="visible" id="F"><path d="M7.422 1.36v-7.985h-.734v2.938h-.954V-6.5H5V.984h.734v-3.953h.954V1.36zM2.938-4.626v-.813H4.28v-.625H.813v.625h1.359v.688c0 .953-.156 1.766-.469 2.453A4.316 4.316 0 0 1 .172-.594c.234.14.531.313.687.453.36-.265.735-.656 1.047-1.093.297-.407.532-.875.64-1.297.126.422.345.828.61 1.187.297.375.64.703.969.907.14-.172.36-.36.547-.5a3.485 3.485 0 0 1-1.344-1.516c-.25-.594-.39-1.328-.39-2.172zm0 0"/></symbol><symbol overflow="visible" id="G"><path d="M6.078-6.625V-.75h.75v-3.266h1.11v-.64h-1.11v-1.969zm-.344 3.234c-.546.11-2.015.282-2.843.297l-1.313.016v-2.547H4.61v-.64H.844v3.843c.031 0 1.375 0 1.984-.015 1.047-.032 2.328-.188 2.906-.329zm1.344 4.594v-.64H2.422v-2.016h-.75v2.656zm0 0"/></symbol><symbol overflow="visible" id="H"><path d="M7.11-2.313v-4.312h-.75v1.578H4.624v-1.312h-.719v1.187h-2.25v-1.187H.922v3.687h3.703V-4.39h1.734v2.079zm-3.204-1h-2.25V-4.53h2.25zM7.11 1.282v-3.234h-.75v.922H2.547v-.922h-.75V1.28zm-.75-.61H2.547V-.405h3.812zm0 0"/></symbol><symbol overflow="visible" id="I"><path d="M7.11-.75v-5.875h-.75V-.75zM.61-4.406c0 1.14.874 2.093 2.124 2.093 1.235 0 2.11-.953 2.11-2.093 0-1.172-.875-2.11-2.11-2.11-1.25 0-2.125.938-2.125 2.11zm.765 0c0-.828.5-1.469 1.36-1.469.859 0 1.359.64 1.359 1.469 0 .797-.5 1.437-1.36 1.437-.859 0-1.359-.64-1.359-1.437zm5.969 5.61V.562H2.562v-1.985h-.75v2.625zm0 0"/></symbol><symbol overflow="visible" id="K"><path d="M7.047 1.36v-7.985H6.28v7.984zM4.687-.657v-5.469H.97v5.469zm-.734-.64H1.72V-5.47h2.234zm0 0"/></symbol><symbol overflow="visible" id="L"><path d="M7.203 1.36v-7.985H6.47v2.844h-.985V-6.5H4.75V.984h.734v-4.046h.985v4.421zm-2.75-2.75c-.344.062-1.187.156-1.734.156l-1.063.015V-3.03h2.157v-3.125H.921v.64h2.172v1.844H.922v3.11l1.547-.016A19.11 19.11 0 0 0 4.453-.75zm0 0"/></symbol><symbol overflow="visible" id="M"><path d="M7.203 1.36v-7.985h-.75v7.984zM1.031-4.376c0 1.094.875 2 2.125 2 1.235 0 2.125-.906 2.125-2 0-1.094-.89-1.984-2.125-1.984-1.25 0-2.125.89-2.125 1.984zm.735 0c0-.75.53-1.36 1.39-1.36.86 0 1.36.61 1.36 1.36 0 .75-.5 1.36-1.36 1.36-.86 0-1.39-.61-1.39-1.36zm4.406 3.016c-.64.109-2.531.25-3.219.265-.328.016-2.312.016-2.344.016v.656c.016 0 1.657.016 1.985 0a26.518 26.518 0 0 0 3.578-.297zm0 0"/></symbol><symbol overflow="visible" id="N"><path d="M8.047-3.813v-.671H6.922v-2.141h-.766V-1.5h.766v-2.313zM4.14-6.046v-.594H1.687v.594zm1.14 1.203v-.593H.594v.593zM.921-3.078c0 .719.829 1.312 2 1.312 1.25 0 2.032-.593 2.032-1.312 0-.735-.75-1.328-2.016-1.328-1.203 0-2.015.593-2.015 1.328zm.782-.016c0-.453.484-.719 1.234-.719.766 0 1.235.266 1.235.72 0 .452-.453.75-1.234.75-.75 0-1.235-.282-1.235-.75zm5.219 4.5v-2.515h-5.36v.625h4.579v1.89zm0 0"/></symbol><symbol overflow="visible" id="O"><path d="M7.11-.75v-5.875h-.75v.922H4.421c-.36-.5-.969-.844-1.703-.844-1.235 0-2.11.969-2.11 2.125 0 1.156.875 2.11 2.11 2.11.765 0 1.39-.36 1.75-.891h1.89V-.75zm-.75-3.11H4.75a1.7 1.7 0 0 0 .094-.562c0-.219-.032-.437-.094-.625h1.61zm-4.985-.562c0-.812.5-1.469 1.344-1.469.875 0 1.36.657 1.36 1.47 0 .796-.485 1.452-1.36 1.452-.844 0-1.344-.656-1.344-1.453zm5.953 5.625v-.64H2.562v-1.985h-.75v2.625zm0 0"/></symbol><symbol overflow="visible" id="P"><path d="M7.781-2.156v-.64H6.484c.204-.907.375-2.438.407-3.548H1.156v.64h4.938a16.656 16.656 0 0 1-.39 2.907H.265v.64h3.312V1.36h.75v-3.515zm0 0"/></symbol><symbol overflow="visible" id="R"><path d="M3.813-4.36v-.015h1.593v-.813h-4.25v.813h1.578v.016c-.046.359-.265.687-.593.968-.407.344-.97.594-1.5.735.234.203.546.5.718.703.422-.156.813-.36 1.141-.61.344-.234.625-.515.781-.812.203.297.485.563.813.781.343.219.703.39 1.015.485.125-.188.375-.47.594-.688a3.35 3.35 0 0 1-1.219-.578c-.343-.266-.625-.61-.671-.984zm2.25 3.126c-.641.093-1.954.171-2.313.171V-2.25h-.969v1.203H.562v.86h1.844c1.172 0 2.985-.094 3.656-.204zm1.25 2.609v-8.016h-.954v8.016zm-2.86-7.11v-.796H2.016v.797zm0 0"/></symbol><symbol overflow="visible" id="S"><path d="M7.203-.75v-5.89h-.969v5.89zM3.328-5.39v-1.094H2.297v1.125c0 .593-.219 1.125-.563 1.562-.39.516-.968.922-1.562 1.203.266.203.625.485.781.656a5.38 5.38 0 0 0 1.094-.796c.344-.329.64-.704.765-1.079.204.376.532.735.891 1.016.328.266.688.5 1 .656.14-.203.422-.515.625-.75a3.228 3.228 0 0 1-1.39-.953c-.376-.437-.61-.969-.61-1.547zm4.063 6.609V.375H2.766v-1.734h-1v2.578zm0 0"/></symbol><symbol overflow="visible" id="T"><path d="M7.781-2.063v-.843h-3.25v-.906h2.39v-.829H2.204v-.984h4.64v-.828H1.235v2.64h2.297v.907H.281v.844zm-3.75 3.594c1.938 0 2.985-.687 2.985-1.562 0-.89-1.047-1.547-2.985-1.547-1.937 0-3 .656-3 1.547 0 .875 1.063 1.562 3 1.562zM2.156-.047c0-.515.703-.781 1.875-.781 1.14 0 1.86.297 1.86.797 0 .484-.72.781-1.86.781C2.86.75 2.156.453 2.156-.047zm0 0"/></symbol><symbol overflow="visible" id="U"><path d="M7.906-2.875v-.828H6.875v-.922h1.031v-.828H6.875v-1.188h-.969v5.063h.969v-1.297zM4.063-5.953v-.734H1.578v.734zm1.125 1.219v-.735H.468v.735zM.702-3.188c0 .688.906 1.25 2.125 1.25 1.297 0 2.125-.546 2.125-1.265 0-.703-.828-1.203-2.11-1.203-1.234 0-2.14.531-2.14 1.218zm3.235-.015c0 .375-.407.578-1.094.578-.688 0-1.11-.188-1.11-.563 0-.374.422-.578 1.11-.578.687 0 1.094.204 1.094.563zM7.046 0c0-.938-1.188-1.5-2.844-1.5-1.594 0-2.875.516-2.875 1.469 0 .953 1.234 1.547 2.86 1.547C5.796 1.516 7.046.984 7.046 0zm-4.64-.016c0-.562.874-.75 1.78-.75.985 0 1.75.235 1.75.75 0 .532-.828.782-1.734.782-.922 0-1.797-.25-1.797-.782zm0 0"/></symbol><symbol overflow="visible" id="V"><path d="M7.797.484v-.843H4.53V-2h2.282v-4.422h-.97v1.313h-3.64v-1.313h-.969V-2h2.282v1.64H.28v.844zM5.844-2.844h-3.64v-1.422h3.64zm0 0"/></symbol><symbol overflow="visible" id="W"><path d="M1.078-6.203v.828h4.766a28.365 28.365 0 0 1-.453 3.953h.968c.25-1.39.47-3.406.532-4.781zM7.797.484v-.843H3.844v-2.985h-.985v2.985H.281v.843zm0 0"/></symbol><symbol overflow="visible" id="X"><path d="M7.203 1.375v-8.016H6.22v2.313H4.53v.906H6.22v4.797zm-3.89-5.938v-1.765H2.296v1.719c0 .796-.172 1.515-.516 2.14C1.406-1.766.828-1.188.094-.75c.281.188.625.469.812.64a6.26 6.26 0 0 0 1.14-1.046c.345-.422.642-.89.767-1.297.203.453.5.906.859 1.281.344.36.719.672 1.031.89.172-.187.438-.437.719-.655-.672-.422-1.234-.938-1.61-1.594-.312-.563-.5-1.219-.5-2.031zm0 0"/></symbol><symbol overflow="visible" id="Z"><path d="M2.766-.547L1.125-6.125H.109L2.266.672h.968l2.172-6.797H4.391zm0 0"/></symbol><symbol overflow="visible" id="aa"><path d="M2.438-3.688c.765 0 1.171.766 1.171 1.922C3.61-.609 3.203.141 2.438.141c-.735 0-1.141-.75-1.141-1.907 0-1.156.406-1.921 1.14-1.921zm0-.75C1.046-4.438.344-3.375.344-1.765c0 1.61.703 2.641 2.094 2.641 1.406 0 2.14-1.031 2.14-2.64 0-1.61-.734-2.673-2.14-2.673zm0 0"/></symbol><symbol overflow="visible" id="ab"><path d="M.563-6.125V.672h.906v-6.797zm0 0"/></symbol><symbol overflow="visible" id="ac"><path d="M.64-.047v1.203h1.25V-.047zm0 0"/></symbol><symbol overflow="visible" id="ad"><path d="M.563-4.219H1.75V.703h.938v-6.922h-.766c-.11.922-.406 1.282-1.36 1.328zm0 0"/></symbol><symbol overflow="visible" id="ae"><path d="M2-6.25C.797-6.25.203-4.89.203-2.656.203-.437.797.906 2 .906c1.203 0 1.828-1.344 1.828-3.562C3.828-4.891 3.203-6.25 2-6.25zm0 .797c.547 0 .906 1.078.906 2.797C2.906-.97 2.546.109 2 .109c-.531 0-.875-1.078-.875-2.765 0-1.719.344-2.797.875-2.797zm0 0"/></symbol><symbol overflow="visible" id="af"><path d="M17.656-6.625v-2.047h-2.484v-6.11h-2.125V3.064h2.125v-9.688zm-16.39-.797c0 4.313 2.015 6.828 4.671 6.828 2.657 0 4.625-2.562 4.625-6.828 0-4.312-2-6.828-4.624-6.828-2.625 0-4.672 2.453-4.672 6.828zm2.125-.031c0-2.453.937-4.828 2.562-4.828 1.594 0 2.453 2.36 2.453 4.828 0 2.547-.86 4.875-2.453 4.875-1.625 0-2.562-2.36-2.562-4.875zm0 0"/></symbol><symbol overflow="visible" id="ag"><path d="M16.156 3.063v-17.844h-2.062V3.062zm-3.781-.844v-16.703h-2.094V-9H7.094v1.953h3.187V2.22zM9.328-3.594c-.5.125-2.672.375-3.703.406l-1.469.016v-8.61h4.172v-1.843H2.031v12.344H4.72c1.812-.032 3.687-.203 4.61-.438zm0 0"/></symbol><symbol overflow="visible" id="ah"><path d="M17.313 1.078V-.797h-7.25v-4.5h5.593v-1.875H4.796v-7H2.642v8.875h5.25v4.5H.625v1.875zm0 0"/></symbol><symbol overflow="visible" id="ai"><path d="M15.172-6.516V-14.5h-2.156v2.047H4.875V-14.5H2.719v7.984zm-2.156-1.828H4.875v-2.297h8.14zm4.28 5.703V-4.5H.642v1.86h7.25v5.703h2.187v-5.704zm0 0"/></symbol><symbol overflow="visible" id="aj"><path d="M10.172-14.125v-.672h-2.39v.672c0 1.203-.75 2.203-1.891 2.984-1.235.86-2.938 1.454-4.547 1.813a21.992 21.992 0 0 1 1.39 1.562c1.22-.28 2.5-.765 3.61-1.406 1.11-.61 2.062-1.39 2.64-2.328.563.89 1.563 1.703 2.672 2.328 1.219.688 2.516 1.188 3.547 1.406.36-.437.89-1.062 1.375-1.562-1.297-.25-2.937-.797-4.219-1.61-1.25-.828-2.187-1.874-2.187-3.187zm7.125 9.688v-1.875h-7.219v-2.375H7.844v2.374H.64v1.875zm-2.094 7.593v-5.969H2.516v1.876h10.468v4.093zm0 0"/></symbol><symbol overflow="visible" id="al"><path d="M17.656-6.234v-1.97h-2.484v-6.577h-2.156V3.062h2.156v-9.296zM10.25-1.172v-12.672H8.125v4.281h-4.25v-4.28H1.75v12.671zm-2.125-1.86h-4.25v-4.64h4.25zm0 0"/></symbol><symbol overflow="visible" id="am"><path d="M15.922 3.063v-17.844h-2.156V3.062zM1.5-7.422c0 4.313 2.016 6.828 4.656 6.828 2.672 0 4.64-2.562 4.64-6.828 0-4.312-1.968-6.828-4.64-6.828-2.625 0-4.656 2.453-4.656 6.828zm2.156-.031c0-2.453.938-4.828 2.516-4.828 1.61 0 2.5 2.36 2.5 4.828 0 2.547-.89 4.875-2.5 4.875-1.578 0-2.516-2.36-2.516-4.875zm0 0"/></symbol><symbol overflow="visible" id="an"><path d="M15.875 3.063v-17.844h-2.172v5.922h-2.797v2.03h2.797v9.892zm-3.781-6.5c-1.156.203-3.844.515-5.656.546l-2.11.016v-3.672h5.64v-7.312H2.173v1.875h5.672v3.593H2.172V-1c.047 0 3.062-.016 3.672-.016 2.328-.046 5.062-.375 6.25-.562zm0 0"/></symbol><symbol overflow="visible" id="ao"><path d="M10.125-12.594v-1.578H7.781v1.578c0 1.625-.765 3.094-1.984 4.25-1.203 1.156-2.844 2.016-4.594 2.516.61.61 1.156 1.219 1.531 1.656a12.038 12.038 0 0 0 3.829-2.14c1-.813 1.843-1.782 2.39-2.875.594 1.156 1.594 2.234 2.735 3.109 1.156.86 2.406 1.531 3.53 1.89.36-.468.923-1.078 1.438-1.609a9.976 9.976 0 0 1-4.468-2.516c-1.22-1.187-2.063-2.687-2.063-4.28zM17.313.86v-1.875H.625V.86zm0 0"/></symbol><symbol overflow="visible" id="ap"><path d="M16.25-1.672v-13.11h-2.125v4.063h-3.406v1.969h3.406v7.078zm.438 4.39V.845H6.39v-3.922H4.219v5.797zM7.53-11.14v-1.015h3.328v-1.86H1.953v1.86h3.313v.953c0 1.14-.375 2.14-1 3-.891 1.219-2.25 2.156-3.688 2.687.563.485 1.297 1.141 1.625 1.485.875-.407 1.828-1.063 2.656-1.797.688-.656 1.266-1.375 1.547-2.063.39.688 1 1.36 1.703 1.922.86.703 1.782 1.235 2.391 1.5.281-.36.86-1.062 1.375-1.578-1.031-.344-2.156-.984-3.016-1.922-.765-.843-1.328-1.922-1.328-3.172zm0 0"/></symbol><symbol overflow="visible" id="aq"><path d="M13.156-14.781v9.031h2.14v-4.094h2.329v-1.89h-2.328v-3.047zm-.812 5.64c-1.203.235-4.297.594-5.969.594H3.859v-3.656h6.407v-1.86H1.734v7.391c.047 0 3.485-.016 4.032-.016 3.046-.046 5.421-.437 6.578-.687zm3.36 12.079V1.234h-9.86V-.28h9.453v-4.735H3.53v1.72h9.485v1.483H3.53v4.75zm0 0"/></symbol><symbol overflow="visible" id="ar"><path d="M16.61 3.063v-17.844H14.53V3.062zM7.843-12.5v-1.813H3.016v1.813zm5.25 14.719v-16.703h-2.078v6.812H8.453v1.906h2.563V2.22zM6.563-8.25v-.875H9.53V-11h-8.25v1.875h3.016v.844a7.207 7.207 0 0 1-1.125 3.906c-.719 1.14-1.719 2.078-2.89 2.813.655.484 1.39.968 1.812 1.343.625-.437 1.265-1.062 1.844-1.765.671-.797 1.218-1.688 1.515-2.516.39.781.89 1.5 1.453 2.125.578.656 1.219 1.219 1.797 1.594.36-.313 1.078-1 1.5-1.39-1.14-.704-2.031-1.548-2.64-2.5a6.749 6.749 0 0 1-1-3.579zm0 0"/></symbol><symbol overflow="visible" id="as"><path d="M15.438-7.75v-1.516H5.078v-1.125H15.11v-4.062H2.734v1.515h10.047v1.11H2.734v4.078zm1.859 2.703v-1.578H.64v1.578zm-1.703 7.984V1.423h-10.5V.234h10.062v-4.093H2.75v1.515h10.094v1.172H2.75v4.11zm0 0"/></symbol><symbol overflow="visible" id="at"><path d="M17.297-4.531v-1.875h-4.313v-2.375c1.625-.61 2.532-1.563 2.532-2.735 0-1.921-2.532-3.375-6.563-3.375-3.984 0-6.562 1.47-6.562 3.329 0 1.171.921 2.156 2.578 2.78v2.376H.64v1.875zM4.828-11.578c0-1.016 1.703-1.688 4.125-1.688 2.375 0 4.125.688 4.125 1.72 0 1.046-1.703 1.687-4.125 1.687-2.484 0-4.125-.704-4.125-1.72zm6 5.172H7.125v-1.907a13.27 13.27 0 0 0 1.828.126c.625 0 1.313-.047 1.875-.141zM2.281.016c0 1.906 2.344 3.375 6.672 3.375 4.344 0 6.656-1.47 6.656-3.344 0-1.938-2.328-3.375-6.687-3.375-4.313 0-6.64 1.375-6.64 3.344zm2.485 0c0-1.079 1.578-1.72 4.187-1.72 2.531 0 4.172.673 4.172 1.75 0 1.032-1.64 1.688-4.172 1.688-2.61 0-4.187-.64-4.187-1.718zm0 0"/></symbol><symbol overflow="visible" id="au"><path d="M13.36-14.781v13.219h2.14V-7.61h2.375v-1.954H15.5v-5.218zm-4.11 1.578v-1.656H3.719v1.656zm2.516 2.86v-1.72H1.28v1.72zM1.844-6.485c0 1.687 2.015 3.046 4.64 3.046 2.797 0 4.704-1.359 4.704-3.03 0-1.735-1.876-3.095-4.672-3.095-2.688 0-4.672 1.36-4.672 3.079zm2.187-.032c0-.89 1.094-1.406 2.5-1.406 1.375 0 2.422.5 2.422 1.438 0 .937-1.047 1.39-2.422 1.39-1.406 0-2.5-.453-2.5-1.422zm12 9.235V.844H5.953v-3.188H3.734V2.72zm0 0"/></symbol><symbol overflow="visible" id="av"><path d="M17.297-3.86v-1.75h-7.188v-1.5h5.282v-1.64H4.953V-10h10.188v-1.547H4.953v-1.312H15.22v-1.594H2.734v7.344h5.032v1.5H.64v1.75zM2.344.157C2.344 2 4.625 3.36 8.922 3.36c4.344 0 6.61-1.328 6.61-3.171 0-1.86-2.266-3.22-6.61-3.22-4.313 0-6.578 1.329-6.578 3.188zm6.578 1.485c-2.547 0-4.156-.5-4.156-1.454 0-1.03 1.578-1.53 4.156-1.53 2.515 0 4.203.484 4.203 1.53 0 .97-1.688 1.454-4.203 1.454zm0 0"/></symbol><symbol overflow="visible" id="aw"><path d="M10.203-12.484h5.14v-1.86H2.579v1.86h5.125c-.328.859-1.187 1.5-2.25 1.984-1.219.531-2.719.875-4.062 1.031.5.563.984 1.203 1.359 1.64 1.203-.202 2.469-.515 3.563-1.015 1.078-.484 2.015-1.094 2.609-1.922.61.829 1.578 1.454 2.687 1.938 1.204.547 2.532.86 3.563 1 .36-.5.75-1.016 1.265-1.64-1.14-.157-2.562-.423-3.78-.923-1.11-.453-2.048-1.109-2.454-2.093zm7.094 7.53v-1.843H.64v1.844zM2.28-.124c0 2.016 2.375 3.5 6.672 3.5 4.328 0 6.688-1.484 6.688-3.5 0-2.031-2.36-3.484-6.688-3.484-4.297 0-6.672 1.453-6.672 3.484zm10.86.031c0 1.157-1.641 1.797-4.188 1.797C6.343 1.703 4.75 1 4.75-.14c0-1.171 1.594-1.78 4.203-1.78 2.547 0 4.188.64 4.188 1.827zm0 0"/></symbol><symbol overflow="visible" id="ax"><path d="M16.328 3.063v-17.844h-2.172V3.062zm-6.844-15.75v-1.797H3.97v1.796zM7.922-8.564v-.75h3.703v-1.874H1.859v1.874h3.72v.75c0 1.516-.485 2.844-1.282 3.97C3.422-3.36 2.203-2.376.844-1.642c.64.5 1.36 1.079 1.765 1.485A15.709 15.709 0 0 0 5.016-2.22a10.109 10.109 0 0 0 1.75-2.672 10.814 10.814 0 0 0 1.718 2.47C9.22-1.657 10-1.064 10.75-.579c.406-.422.938-1 1.516-1.5-1.188-.563-2.297-1.5-3.125-2.672-.75-1.094-1.22-2.406-1.22-3.813zm0 0"/></symbol><symbol overflow="visible" id="ay"><path d="M17.313 1.203V-.672h-4.266v-2.875h2.422v-1.86H4.906v-2.468h10.125v-6.188H2.797v1.876h10.14v2.484H2.813v6.156H5.03v2.875H.641v1.875zM10.905-.672H7.172v-2.875h3.734zm0 0"/></symbol><symbol overflow="visible" id="az"><path d="M16.61 3.063v-17.844H14.53V3.062zm-3.563-.844v-16.703h-2.078v5.375H8.344v2.062h2.625V2.22zM6.625-9.844v-1.89h2.781v-1.86H1.625v1.86h2.766v1.828c0 1.86-.297 3.422-.891 4.687C2.797-3.672 1.734-2.53.281-1.594c.625.438 1.36.922 1.797 1.328.703-.515 1.438-1.25 2.063-2.078.593-.765 1.093-1.625 1.343-2.422a8.843 8.843 0 0 0 1.407 2.188c.593.719 1.296 1.344 1.921 1.734.407-.469.954-.969 1.454-1.453C8.922-3.14 8-4.14 7.422-5.359c-.547-1.235-.797-2.688-.797-4.485zm0 0"/></symbol><symbol overflow="visible" id="aA"><path d="M16.156 3.063v-17.86h-2.062v6.406h-1.969v-6.093h-2.047V2.219h2.047v-8.422h1.969v9.265zM1.594-13.532v1.828H6.25c-.047 1.906-.438 3.64-1.266 5.187-.937 1.829-2.39 3.407-4.343 4.704.5.25 1.453.875 1.921 1.265 2.094-1.547 3.641-3.5 4.626-5.922.843-2.015 1.265-4.36 1.28-7.062zm0 0"/></symbol><symbol overflow="visible" id="aB"><path d="M13.156-14.781v9.203h2.156v-4.11h2.313v-1.874h-2.313v-3.22zm-3.031 8.578v-8.094H8.031v2.36H3.734v-2.36h-2.14v8.094zM8.031-8H3.734v-2.172h4.297zm7.672 10.938V1.234h-9.86v-1.5h9.454v-4.593H3.53v1.703h9.485v1.406H3.53v4.688zm0 0"/></symbol><symbol overflow="visible" id="aC"><path d="M1.547 0v-2.922l1.125-1.172L5.703 0h.828l-3.36-4.547 2.86-3H5.25L1.547-3.64v-3.906H.859V0zm0 0"/></symbol><symbol overflow="visible" id="aD"><path d="M2.797.14C4.25.14 5.219-1 5.219-2.718c0-1.594-.797-2.86-2.422-2.86-1.61 0-2.422 1.282-2.422 2.86C.375-.813 1.469.125 2.797.141zm1.765-2.859c0 1.172-.5 2.297-1.765 2.297-1.156 0-1.766-.937-1.766-2.297 0-1.172.5-2.297 1.766-2.297 1.281 0 1.765 1.016 1.765 2.297zm0 0"/></symbol><symbol overflow="visible" id="aE"><path d="M1.422 0v-7.547h-.61V0zm0 0"/></symbol><symbol overflow="visible" id="aF"><path d="M1.328-2.922c0-.375.016-.687.125-1.031.203-.563.703-1.063 1.453-1.063.969 0 1.344.5 1.344 1.47V0h.61v-3.547c0-.453-.016-.86-.266-1.25-.375-.578-.953-.781-1.578-.781-.735 0-1.204.375-1.688.906v-.766h-.61V0h.61zm0 0"/></symbol><symbol overflow="visible" id="aH"><path d="M5.39 0v-.61H1.5v-6.937H.812V0zm0 0"/></symbol><symbol overflow="visible" id="aI"><path d="M1.422 0v-5.438h-.61V0zm.031-6.61v-.937H.781v.938zm0 0"/></symbol><symbol overflow="visible" id="aJ"><path d="M.969-4.906V0h.61v-4.906h1.015v-.532H1.578v-.671c0-.485.016-1.016.64-1.016.11 0 .25.016.376.047v-.578a2.752 2.752 0 0 0-.516-.047c-.797 0-1.11.547-1.11 1.406v.86H.204v.53zm0 0"/></symbol><symbol overflow="visible" id="aK"><path d="M1.094-3.094c.125-1.031.687-1.922 1.75-1.922 1.094 0 1.656.86 1.656 1.922zm4.047.531c.015-1.953-.86-3.015-2.297-3.015-1.485 0-2.39 1.297-2.39 2.89 0 1.594.718 2.829 2.39 2.829 1.328 0 1.953-.782 2.265-1.813h-.687c-.172.797-.797 1.25-1.578 1.25-1.156 0-1.75-.969-1.75-2.14zm0 0"/></symbol><symbol overflow="visible" id="aL"><path d="M.438-2.25C.438-.625 1.546.203 3.062.203 4.734.203 5.704-.625 5.704-2c0-2.922-4.11-1.516-4.422-3.469-.11-.781.39-1.672 1.782-1.672.921 0 1.78.5 1.78 1.641H5.5c0-1.219-.813-2.25-2.438-2.25C1.438-7.75.61-6.766.61-5.719c0 2.969 4.407 1.407 4.407 3.75 0 .828-.532 1.563-1.829 1.563-1.109 0-1.984-.5-2.093-1.844zm0 0"/></symbol><symbol overflow="visible" id="aM"><path d="M5.031-3.719c-.187-1.265-.968-1.86-2.156-1.86-1.563 0-2.406 1.36-2.406 2.876 0 1.61.734 2.844 2.406 2.844 1.297 0 2.031-.813 2.234-2.016h-.64c-.14.906-.703 1.453-1.594 1.453-1.25 0-1.766-1.14-1.766-2.281 0-1.14.516-2.313 1.766-2.313.797 0 1.328.485 1.547 1.297zm0 0"/></symbol><symbol overflow="visible" id="aN"><path d="M.469-1.703C.516-.672 1.219.14 2.438.14c1.234 0 2.124-.532 2.124-1.579 0-2.078-3.328-1.156-3.328-2.64 0-.563.407-.938 1.172-.938.75 0 1.297.313 1.406 1.141h.61c-.14-1.219-.875-1.703-2-1.703-1.172 0-1.844.656-1.844 1.547 0 2.14 3.344 1.031 3.344 2.61 0 .515-.406 1-1.281 1-.907 0-1.375-.345-1.563-1.282zm0 0"/></symbol><symbol overflow="visible" id="aO"><path d="M4.75-2.734c0 1.312-.625 2.312-1.766 2.312-1.015 0-1.765-.766-1.78-2.125-.048-1.36.53-2.469 1.78-2.469 1.094 0 1.766 1.047 1.766 2.282zm0-1.829c-.39-.656-1.125-1.015-1.86-1.015-1.593 0-2.328 1.36-2.328 2.875 0 1.61.672 2.844 2.36 2.844.656 0 1.453-.375 1.812-1.094h.016V0h.61v-7.547h-.61zm0 0"/></symbol><symbol overflow="visible" id="aP"><path d="M2.156 0h.688l2.015-5.438h-.656L2.516-.78.828-5.438H.172zm0 0"/></symbol><symbol overflow="visible" id="aQ"><path d="M1.406-2.688c0-1.312.61-2.328 1.75-2.328 1.016 0 1.781.766 1.781 2.125.047 1.375-.53 2.47-1.78 2.47-1.095 0-1.75-1.048-1.75-2.267zm0 1.813C1.781-.203 2.531.141 3.266.141c1.578 0 2.312-1.344 2.312-2.86 0-1.61-.672-2.86-2.344-2.86-.671 0-1.468.391-1.812 1.095h-.016v-.954h-.61v7.579h.61zm0 0"/></symbol><symbol overflow="visible" id="aR"><path d="M4.75-2.688c0 1.22-.672 2.266-1.766 2.266-1.25 0-1.828-1.094-1.78-2.469.015-1.359.765-2.125 1.78-2.125C4.125-5.016 4.75-4 4.75-2.687zm0-1.796h-.016c-.359-.704-1.156-1.094-1.812-1.094-1.688 0-2.36 1.25-2.36 2.86C.563-1.204 1.297.14 2.892.14c.734 0 1.468-.344 1.859-1.016.031 1.25-.188 2.531-1.844 2.531-.719 0-1.375-.172-1.562-1h-.64c.046.656.671 1.563 2.202 1.563 1.985 0 2.453-1.281 2.453-2.75v-4.907H4.75zm0 0"/></symbol><symbol overflow="visible" id="aS"><path d="M4.14-2c0 1.094-.952 1.578-1.906 1.578-.578 0-1.125-.312-1.125-.969 0-.734.547-1.078 1.47-1.156.515-.047 1.046-.078 1.562-.312zM2.282-3.047C1.062-2.89.47-2.328.47-1.422.469-.359 1.28.141 2.203.141c.75 0 1.438-.313 1.938-.891.015.375.078.734.484.797a.82.82 0 0 0 .281.031c.172 0 .375-.062.469-.094v-.5c-.516.188-.64.079-.64-.421v-2.954c0-1.25-.829-1.687-1.891-1.687-1.14 0-2.047.516-2.14 1.797h.609c.109-.953.687-1.235 1.53-1.235.923 0 1.298.47 1.298 1.11 0 .187-.032.469-.22.562-.202.094-.577.156-.796.172zm0 0"/></symbol><symbol overflow="visible" id="aT"><path d="M3.984-5.438h-.671L2.109-.796.75-5.437H.156L1.734 0h.735l1.156-4.563h.016L4.78 0h.64L7.11-5.438H6.5L5.125-.843zm0 0"/></symbol><symbol overflow="visible" id="aU"><path d="M2.563-.5a1.95 1.95 0 0 1-.5.078c-.5 0-.516-.234-.516-.766v-3.718h.969v-.532h-.97v-1.5H.938v1.5H.204v.532h.734v3.968c0 .813.329 1.079.922 1.079.297 0 .563-.094.704-.125zm0 0"/></symbol><symbol overflow="visible" id="aV"><path d="M1.328 0v-2.922c0-.375.016-.687.125-1.031.203-.563.703-1.063 1.453-1.063.969 0 1.344.5 1.344 1.47V0h.61v-3.547c0-.453-.016-.86-.266-1.25-.375-.578-.953-.781-1.578-.781-.735 0-1.204.375-1.688.906v-2.875h-.61V0zm0 0"/></symbol><symbol overflow="visible" id="aW"><path d="M1.36-2.656c0-1.219.359-2.266 1.718-2.235v-.687c-.875 0-1.375.297-1.703 1.172h-.016v-1.032H.75V0h.61zm0 0"/></symbol><symbol overflow="visible" id="aX"><path d="M.688 2.063c.156.046.359.078.562.078.844 0 1.172-.844 1.656-2.22l1.938-5.359h-.64L2.53-.766.86-5.437H.188L2.203.046c-.234.469-.328 1.5-1.015 1.5-.172 0-.344-.031-.5-.063zm0 0"/></symbol><symbol overflow="visible" id="aY"><path d="M4.25-2.469c0 1.188-.594 2.047-1.578 2.047-.953 0-1.344-.516-1.344-1.437v-3.579h-.61v3.579c0 1.14.47 2 1.86 2 .906 0 1.36-.516 1.672-.891V0h.61v-5.438h-.61zm0 0"/></symbol><symbol overflow="visible" id="aZ"><path d="M1.766-.922H1.03V0h.344v.36c0 .421-.188.578-.344.687v.39c.422-.14.735-.515.735-1.125zm0 0"/></symbol><symbol overflow="visible" id="ba"><path d="M.406-3.047v.64h2.547v-.64zm0 0"/></symbol><symbol overflow="visible" id="bb"><path d="M1.375-4.969c-.031-1 .625-1.86 1.547-1.86.875 0 1.562.563 1.562 1.516 0 1.75-1.968 1.735-3.453 3.516C.578-1.266.5-.703.484 0h4.641v-.563H1.172c.031-.703.453-1.125.922-1.5 1.062-.828 3.094-1.328 3.094-3.28 0-1.141-.766-2.048-2.188-2.048-1.406 0-2.313.97-2.313 2.422zm0 0"/></symbol><symbol overflow="visible" id="bc"><path d="M4.547-3.64c0 1.484-.219 3.218-1.75 3.218-1.36 0-1.766-1.25-1.766-3.14 0-1.641.344-3.266 1.75-3.266 1.5 0 1.766 1.594 1.766 3.187zm-1.75-3.75C.75-7.39.39-5.5.39-3.64.39-1.595.828.14 2.797.14c1.953 0 2.39-1.75 2.39-3.703 0-1.718-.28-3.828-2.39-3.828zm0 0"/></symbol><symbol overflow="visible" id="bd"><path d="M2.219-3.563c1.25-.093 2.25.282 2.297 1.47.03.874-.75 1.671-1.766 1.671C1.703-.422.984-1.016.984-2.14h-.64C.5-.42 1.234.141 2.875.141 4.328.109 5.156-.875 5.156-2.094c0-.687-.234-1.484-1.265-1.828.687-.297 1.015-.875 1.015-1.64 0-1.235-.906-1.829-2.031-1.829-.578 0-1.172.079-1.61.485-.468.468-.687 1-.687 1.656h.656c0-.922.61-1.578 1.516-1.578.813 0 1.5.39 1.5 1.297 0 1.14-.828 1.437-2.031 1.422zm0 0"/></symbol><symbol overflow="visible" id="be"><path d="M3.031 0h.656v-7.39h-.515C2.953-6.126 2.282-6 1.203-5.939v.438h1.828zm0 0"/></symbol><symbol overflow="visible" id="bf"><path d="M1.766 0v-.922H1.03V0zm0 0"/></symbol><symbol overflow="visible" id="bg"><path d="M1.25-2.922c0-.453.078-1.11.344-1.469a1.421 1.421 0 0 1 1.172-.625c.859 0 1.125.485 1.125 1.266V0h.593v-2.922c0-.453.079-1.11.344-1.469A1.421 1.421 0 0 1 6-5.016c.86 0 1.125.485 1.125 1.266V0h.61v-3.422c0-1.094-.204-2.156-1.626-2.156-.75 0-1.359.344-1.703 1.047-.218-.578-.562-1.047-1.531-1.047-.672 0-1.297.344-1.61.969H1.25v-.829H.64V0h.61zm0 0"/></symbol><symbol overflow="visible" id="bh"><path d="M1.406-2.734c0-1.235.657-2.282 1.75-2.282 1.25 0 1.828 1.11 1.781 2.47 0 1.358-.765 2.124-1.78 2.124-1.141 0-1.75-1-1.75-2.312zm0 1.78h.016c.344.72 1.14 1.095 1.812 1.095 1.672 0 2.344-1.235 2.344-2.844 0-1.516-.734-2.875-2.312-2.875-.735 0-1.485.36-1.86 1.016v-2.985h-.61V0h.61zm0 0"/></symbol><symbol overflow="visible" id="bi"><path d="M.86 0l.843-2.375h3.313L5.844 0h.703L3.766-7.547H3L.156 0zm2.5-6.938L4.78-2.983H1.938zm0 0"/></symbol><symbol overflow="visible" id="bj"><path d="M2.703 0h.75L5.97-7.547H5.25L3.078-.844.891-7.547H.187zm0 0"/></symbol><symbol overflow="visible" id="bk"><path d="M4.11 0h.734L2.89-2.813l1.875-2.624H4L2.531-3.267 1.094-5.437h-.75l1.844 2.625L.188 0h.734l1.61-2.344zm0 0"/></symbol><symbol overflow="visible" id="bl"><path d="M.89-5.438v6.25c0 .563-.14.829-.843.735v.547c.14.031.266.047.39.047.97 0 1.047-.5 1.047-1.422v-6.157zm.626-2.109H.859v.938h.657zm0 0"/></symbol><symbol overflow="visible" id="bm"><path d="M1.422 0v-3.61h3.625v-.609H1.422v-2.718h3.984v-.61H.75V0zm0 0"/></symbol><symbol overflow="visible" id="bn"><path d="M3.297 0c.953 0 1.89-.14 2.562-.922.657-.75.875-1.86.875-2.86 0-1.015-.25-2.484-1.203-3.202-.687-.516-1.437-.563-2.234-.563H.812V0zM1.5-6.938h1.64c.61 0 1.22.032 1.657.282 1.016.562 1.25 1.765 1.25 2.875 0 1.031-.234 2.312-1.203 2.828C4.28-.656 3.75-.61 3.14-.61H1.5zm0 0"/></symbol><symbol overflow="visible" id="bo"><path d="M1.484-4.031v-2.907h2.172c.922 0 1.766.266 1.766 1.407 0 1.047-.781 1.5-1.797 1.5zm2.157.61c.687 0 1.28.093 1.437.921.11.578.047 1.984.328 2.5h.75v-.078c-.172-.14-.265-.453-.297-1.594-.015-.797-.078-1.75-.921-2.047.828-.39 1.171-.89 1.171-1.844 0-1.406-.875-1.984-2.468-1.984H.812V0h.672v-3.422zm0 0"/></symbol><symbol overflow="visible" id="bp"><path d="M6.344-3.297c-.016.578-.078 1.094-.313 1.563C5.547-.75 4.625-.406 3.844-.406c-1.656 0-2.625-1.453-2.625-3.125 0-2.14.797-3.61 2.718-3.61 1.079 0 2.032.657 2.266 1.782h.703c-.312-1.61-1.5-2.391-3.015-2.391C1.594-7.75.53-6.031.53-3.812.531-1.126 1.875.202 3.703.202c1.422 0 2.203-.594 2.703-1.5V0H7v-3.906H3.89v.61zm0 0"/></symbol><symbol overflow="visible" id="bq"><path d="M.156-6.938h2.297V0h.688v-6.938h2.296v-.609H.157zm0 0"/></symbol><symbol overflow="visible" id="br"><path d="M2.281-7.75C1.187-6.234.547-4.812.547-2.89.547-.907 1.172.405 2.28 2h.5C1.86.562 1.25-1.094 1.25-2.844c0-1.765.578-3.453 1.531-4.906zm0 0"/></symbol><symbol overflow="visible" id="bs"><path d="M1.734 0v-7.547h-.671V0zm0 0"/></symbol><symbol overflow="visible" id="bt"><path d="M5.672 0h.781v-7.547h-.672v6.594H5.75L1.562-7.547H.797V0h.687v-6.578H1.5zm0 0"/></symbol><symbol overflow="visible" id="bu"><path d="M1.078 2C2.156.5 2.797-.938 2.797-2.86c0-1.984-.61-3.296-1.719-4.89H.562C1.485-6.312 2.11-4.64 2.11-2.906 2.11-1.141 1.516.563.563 2zm0 0"/></symbol><symbol overflow="visible" id="bv"><path d="M.828-2.844c0 1.938.906 3.047 2.797 3.047C5.5.203 6.438-.875 6.438-2.844v-4.703H5.75v4.5c0 1.781-.563 2.64-2.125 2.64-1.469 0-2.11-.78-2.11-2.64v-4.5H.829zm0 0"/></symbol><symbol overflow="visible" id="bw"><path d="M1.281 0v-2.063l1-.968L4.22 0h.687L2.72-3.469l1.953-1.969h-.828L1.28-2.858v-4.688H.688V0zm0 0"/></symbol><symbol overflow="visible" id="bK"><path d="M9.5-2.828v-6.047H8.234v6.047zm-8.203-5.61v1.126h3.531c-.203.906-.672 1.609-1.297 2.171-.734.672-1.734 1.11-2.812 1.407.328.296.687.765.828.968 1.312-.406 2.484-1.109 3.328-2.062.844-.953 1.36-2.14 1.422-3.61zM9.484 1.72v-4.11H2.438v4.11zM8.25.64H3.672v-1.938H8.25zm0 0"/></symbol><symbol overflow="visible" id="bL"><path d="M5.984-8.11v-.546H4.578v.562c0 .875-.5 1.516-1.266 2-.703.438-1.609.75-2.562.969.266.266.625.703.875.984.734-.218 1.469-.484 2.094-.843.64-.375 1.187-.86 1.562-1.454.328.594.907 1.063 1.578 1.454a9.972 9.972 0 0 0 2.11.828c.203-.25.515-.657.781-.953-.89-.204-1.86-.516-2.578-1.032-.703-.468-1.188-1.125-1.188-1.968zm4.188 6.188v-1.14H.375v1.14h4.281v3.75h1.297v-3.766zm0 0"/></symbol><symbol overflow="visible" id="bM"><path d="M9.563-2.39v-6.485h-1.25v2.344H6.327v1.11h1.984v3.03zM2.202-.173c0 1.281 1.438 2.188 3.781 2.188 2.36 0 3.797-.907 3.797-2.188 0-1.281-1.453-2.203-3.797-2.203-2.343 0-3.78.922-3.78 2.203zm1.39-.016c0-.75 1.063-1.14 2.407-1.14 1.375 0 2.422.422 2.422 1.172C8.422.563 7.375 1 6 1 4.672 1 3.594.531 3.594-.188zm.845-6.625v-.5H6.39v-1.093H1.156v1.094H3.11v.453a2.95 2.95 0 0 1-.687 1.89C1.89-4.312 1.14-3.829.344-3.516c.328.282.765.657.953.86a5.815 5.815 0 0 0 1.344-.875c.515-.438.937-.922 1.125-1.375.234.375.578.75.968 1.078.516.406 1.063.75 1.454.906.156-.203.5-.625.796-.937C6.375-4.047 5.656-4.438 5.172-5c-.438-.484-.734-1.094-.734-1.813zm0 0"/></symbol><symbol overflow="visible" id="bO"><path d="M7.86-8.844v6.453h.984V-5.5h1.484v-.86H8.844v-2.484zM4-7.5v-1.078H2.969v1.062c0 .907-.297 1.641-.766 2.266-.515.688-1.281 1.219-2.14 1.61.25.171.625.484.812.687a6.79 6.79 0 0 0 1.578-1.125c.453-.438.828-.953 1.031-1.516.297.578.782 1.078 1.297 1.485.453.328.922.625 1.344.828.172-.219.438-.547.656-.766-.703-.25-1.406-.672-1.922-1.266A3.164 3.164 0 0 1 4-7.5zm1.516 5.234c-2.407 0-3.625.907-3.625 2.141 0 1.25 1.265 2.156 3.656 2.156 2.39 0 3.578-.906 3.578-2.156 0-1.234-1.219-2.14-3.61-2.14zM2.953-.109c0-.844 1-1.36 2.563-1.36 1.562 0 2.578.516 2.578 1.375 0 .828-1 1.344-2.531 1.344-1.579 0-2.61-.516-2.61-1.36zm0 0"/></symbol><symbol overflow="visible" id="bP"><path d="M8.86-4.344v-4.125H1.687v4.125zm-.97-.843H2.64v-2.438h5.25zm2.266 3.25v-.86H.375v.86h4.438v3.765h1v-3.766zm0 0"/></symbol><symbol overflow="visible" id="bR"><path d="M7.797.266V-.22H3.703v-2.187h-.578V-.22H.281v.485zM1.25-6.125v.469h4.984c-.015.437-.093 1.031-.14 1.547-1.375.109-4.797.093-4.985.093v.47c.172 0 3.375.015 4.922-.095-.11.766-.203 1.47-.36 2.188h.595c.312-1.5.484-3.172.578-4.672zm0 0"/></symbol><symbol overflow="visible" id="bS"><path d="M1.203-4.281c0 1.14 1.031 2.047 2.531 2.156v1.906H.281v.485h7.5V-.22H4.297v-1.906c1.531-.094 2.562-1.016 2.562-2.156 0-1.188-1.14-2.157-2.828-2.157-1.656 0-2.828.97-2.828 2.157zm.61 0c0-1.032.921-1.688 2.218-1.688 1.266 0 2.219.625 2.219 1.688 0 1-.953 1.703-2.219 1.703-1.265 0-2.218-.703-2.218-1.703zm0 0"/></symbol><symbol overflow="visible" id="bT"><path d="M1.156.156c0 .813 1.032 1.375 2.875 1.375 1.844 0 2.86-.562 2.86-1.375 0-.797-1.016-1.36-2.86-1.36-1.843 0-2.875.563-2.875 1.36zm.625 0c0-.594.938-.906 2.25-.906 1.297 0 2.235.313 2.235.906 0 .594-.954.938-2.235.938-1.312 0-2.25-.344-2.25-.938zM7.766-1.78v-.485h-3.47v-.953H6.86v-.453H1.906v-.922h4.75v-1.828H1.328v.453h4.75v.907h-4.75v1.843h2.375v.953H.297v.485zm0 0"/></symbol><symbol overflow="visible" id="bU"><path d="M4.406 1.516c1.735 0 2.797-.688 2.797-1.594 0-.906-1.062-1.578-2.797-1.578-1.734 0-2.765.672-2.765 1.578s1.03 1.594 2.765 1.594zM2.234-.078c0-.719.954-1.11 2.172-1.11 1.235 0 2.172.391 2.172 1.125 0 .704-.937 1.125-2.172 1.125-1.218 0-2.172-.421-2.172-1.14zm4.907-1.64V-6.61h-.579v1.968H5.438v-1.843h-.562V-2h.563v-2.125h1.125v2.406zM2.67-5.595v-.765h-.577v.75c0 .734-.14 1.312-.438 1.796C1.36-3.296.891-2.89.25-2.5c.156.094.39.281.516.39.453-.328.765-.609 1.046-.921.235-.313.422-.656.579-1.125.156.406.39.765.687 1.062.297.313.64.547.985.735.109-.141.265-.313.406-.454-.532-.218-1-.578-1.313-1.062-.312-.469-.484-1.047-.484-1.719zm0 0"/></symbol><symbol overflow="visible" id="bV"><path d="M1.61-.047c0 .86.968 1.578 2.796 1.578 1.813 0 2.797-.718 2.797-1.578 0-.875-.984-1.594-2.797-1.594-1.828 0-2.797.72-2.797 1.594zm.577 0c0-.687.907-1.125 2.22-1.125 1.296 0 2.187.438 2.187 1.125 0 .672-.89 1.11-2.188 1.11-1.312 0-2.218-.438-2.218-1.11zm2.407-4.969h1.89v1.032h-1.89zm0 2.407V-3.5h1.89v1.75h.579v-4.86h-.579v1.126h-1.89v-.735H.984v3.61zm-.547-.47H1.53V-5.75h2.516zm0 0"/></symbol><symbol overflow="visible" id="bW"><path d="M4.531-2.078c.235-1.203.39-3.031.39-4.047H.813v.484h3.516c0 1.125-.203 2.657-.36 3.563zm1.36.922c-.688.156-2.625.234-3.297.265v-2.812h-.578v2.812H.375v.485h1.469c1.343 0 3.234-.14 4.047-.25zm.265-5.453v7.984h.594v-4.156h1.203v-.5H6.75V-6.61zm0 0"/></symbol><symbol overflow="visible" id="bX"><path d="M4.125-6.14v-.47H1.703v.47zm1.156 1.187v-.484H.61v.484zm-2.343.516c-1.188 0-1.954.593-1.954 1.312 0 .719.766 1.313 1.938 1.313 1.234 0 1.984-.594 1.984-1.313s-.734-1.313-1.968-1.313zm-1.36 1.312c0-.5.484-.844 1.36-.844.89 0 1.359.344 1.359.844s-.469.86-1.36.86c-.874 0-1.359-.344-1.359-.86zm6.469-.813v-.5H6.875v-2.171h-.594V-1.5h.594v-2.438zm-1.172 5.36v-2.516H1.641v.485h4.656v2.03zm0 0"/></symbol></defs><g fill="#393536"><use xlink:href="#a" x="535.245" y="48.426"/><use xlink:href="#b" x="540.818" y="48.426"/><use xlink:href="#c" x="546.392" y="48.426"/></g><g fill="#fff"><use xlink:href="#d" x="104.403" y="104.568"/><use xlink:href="#e" x="113.457" y="104.568"/><use xlink:href="#f" x="117.933" y="104.568"/><use xlink:href="#g" x="126.986" y="104.568"/><use xlink:href="#h" x="129.936" y="104.568"/><use xlink:href="#i" x="138.99" y="104.568"/><use xlink:href="#j" x="148.044" y="104.568"/><use xlink:href="#k" x="157.097" y="104.568"/><use xlink:href="#l" x="166.151" y="104.568"/><use xlink:href="#m" x="175.205" y="104.568"/><use xlink:href="#n" x="184.258" y="104.568"/><use xlink:href="#o" x="193.312" y="104.568"/><use xlink:href="#g" x="202.365" y="104.568"/><use xlink:href="#p" x="205.315" y="104.568"/><use xlink:href="#q" x="214.369" y="104.568"/><use xlink:href="#r" x="223.423" y="104.568"/><use xlink:href="#g" x="232.476" y="104.568"/><use xlink:href="#s" x="235.426" y="104.568"/><use xlink:href="#t" x="244.48" y="104.568"/><use xlink:href="#u" x="253.534" y="104.568"/><use xlink:href="#g" x="262.587" y="104.568"/><use xlink:href="#v" x="265.537" y="104.568"/><use xlink:href="#w" x="274.591" y="104.568"/><use xlink:href="#g" x="283.645" y="104.568"/><use xlink:href="#x" x="286.595" y="104.568"/><use xlink:href="#y" x="295.648" y="104.568"/><use xlink:href="#j" x="304.702" y="104.568"/><use xlink:href="#g" x="313.756" y="104.568"/><use xlink:href="#z" x="316.706" y="104.568"/><use xlink:href="#w" x="325.759" y="104.568"/><use xlink:href="#A" x="334.813" y="104.568"/><use xlink:href="#B" x="343.867" y="104.568"/><use xlink:href="#C" x="352.92" y="104.568"/><use xlink:href="#g" x="361.974" y="104.568"/><use xlink:href="#D" x="364.924" y="104.568"/><use xlink:href="#E" x="373.978" y="104.568"/></g><g fill="#4f4c4d"><use xlink:href="#F" x="336.467" y="47.727"/><use xlink:href="#G" x="344.467" y="47.727"/><use xlink:href="#H" x="352.468" y="47.727"/><use xlink:href="#I" x="360.468" y="47.727"/><use xlink:href="#J" x="368.468" y="47.727"/><use xlink:href="#K" x="371.075" y="47.727"/><use xlink:href="#L" x="379.075" y="47.727"/><use xlink:href="#M" x="387.076" y="47.727"/><use xlink:href="#N" x="395.076" y="47.727"/><use xlink:href="#O" x="403.076" y="47.727"/><use xlink:href="#P" x="411.076" y="47.727"/><use xlink:href="#F" x="419.077" y="47.727"/><use xlink:href="#G" x="427.077" y="47.727"/></g><use xlink:href="#Q" x="435.076" y="47.727" fill="#231f20"/><g fill="#231f20"><use xlink:href="#R" x="437.683" y="47.727"/><use xlink:href="#S" x="445.683" y="47.727"/><use xlink:href="#T" x="453.684" y="47.727"/><use xlink:href="#U" x="461.684" y="47.727"/><use xlink:href="#V" x="469.684" y="47.727"/><use xlink:href="#W" x="477.684" y="47.727"/><use xlink:href="#X" x="485.685" y="47.727"/><use xlink:href="#Y" x="493.685" y="47.727"/><use xlink:href="#Z" x="496.292" y="47.727"/><use xlink:href="#aa" x="501.703" y="47.727"/><use xlink:href="#ab" x="506.503" y="47.727"/><use xlink:href="#ac" x="508.436" y="47.727"/><use xlink:href="#Y" x="511.043" y="47.727"/><use xlink:href="#ad" x="513.65" y="47.727"/><use xlink:href="#ae" x="517.605" y="47.727"/></g><g fill="#33459a"><use xlink:href="#af" x="93.43" y="146.549"/><use xlink:href="#ag" x="110.968" y="146.549"/><use xlink:href="#ah" x="128.507" y="146.549"/><use xlink:href="#ai" x="146.046" y="146.549"/><use xlink:href="#aj" x="163.584" y="146.549"/><use xlink:href="#ak" x="181.123" y="146.549"/><use xlink:href="#al" x="186.676" y="146.549"/><use xlink:href="#am" x="204.215" y="146.549"/><use xlink:href="#an" x="221.754" y="146.549"/><use xlink:href="#ao" x="239.292" y="146.549"/><use xlink:href="#ak" x="256.831" y="146.549"/><use xlink:href="#ap" x="262.384" y="146.549"/><use xlink:href="#aq" x="279.923" y="146.549"/><use xlink:href="#ar" x="297.462" y="146.549"/><use xlink:href="#as" x="315" y="146.549"/><use xlink:href="#ak" x="332.539" y="146.549"/><use xlink:href="#am" x="338.092" y="146.549"/><use xlink:href="#at" x="355.631" y="146.549"/><use xlink:href="#au" x="373.169" y="146.549"/><use xlink:href="#ak" x="390.708" y="146.549"/></g><g fill="#33459a"><use xlink:href="#av" x="93.43" y="174.515"/><use xlink:href="#aw" x="110.968" y="174.515"/><use xlink:href="#ak" x="128.507" y="174.515"/><use xlink:href="#ax" x="134.06" y="174.515"/><use xlink:href="#ay" x="151.599" y="174.515"/><use xlink:href="#az" x="169.138" y="174.515"/><use xlink:href="#ak" x="186.676" y="174.515"/><use xlink:href="#aA" x="192.23" y="174.515"/><use xlink:href="#aB" x="209.768" y="174.515"/></g><g fill="#231f20"><use xlink:href="#aC" x="93.43" y="308.673"/><use xlink:href="#aD" x="100.044" y="308.673"/><use xlink:href="#aE" x="105.541" y="308.673"/><use xlink:href="#aD" x="107.676" y="308.673"/><use xlink:href="#aF" x="113.173" y="308.673"/><use xlink:href="#aG" x="118.67" y="308.673"/><use xlink:href="#aH" x="122.173" y="308.673"/><use xlink:href="#aI" x="127.67" y="308.673"/><use xlink:href="#aJ" x="129.804" y="308.673"/><use xlink:href="#aK" x="132.503" y="308.673"/><use xlink:href="#aG" x="138" y="308.673"/><use xlink:href="#aL" x="141.503" y="308.673"/><use xlink:href="#aM" x="147.554" y="308.673"/><use xlink:href="#aI" x="153.051" y="308.673"/><use xlink:href="#aK" x="155.185" y="308.673"/><use xlink:href="#aF" x="160.682" y="308.673"/><use xlink:href="#aM" x="166.179" y="308.673"/><use xlink:href="#aK" x="171.676" y="308.673"/><use xlink:href="#aG" x="177.173" y="308.673"/><use xlink:href="#aI" x="180.677" y="308.673"/><use xlink:href="#aN" x="182.811" y="308.673"/><use xlink:href="#aG" x="187.744" y="308.673"/><use xlink:href="#aO" x="191.248" y="308.673"/><use xlink:href="#aK" x="197.299" y="308.673"/><use xlink:href="#aP" x="202.796" y="308.673"/><use xlink:href="#aK" x="207.729" y="308.673"/><use xlink:href="#aE" x="213.226" y="308.673"/><use xlink:href="#aD" x="215.36" y="308.673"/><use xlink:href="#aQ" x="220.857" y="308.673"/><use xlink:href="#aI" x="226.908" y="308.673"/><use xlink:href="#aF" x="229.042" y="308.673"/><use xlink:href="#aR" x="234.539" y="308.673"/><use xlink:href="#aG" x="240.59" y="308.673"/><use xlink:href="#aS" x="244.094" y="308.673"/><use xlink:href="#aG" x="249.591" y="308.673"/><use xlink:href="#aF" x="253.094" y="308.673"/><use xlink:href="#aK" x="258.591" y="308.673"/><use xlink:href="#aT" x="264.088" y="308.673"/><use xlink:href="#aG" x="271.256" y="308.673"/><use xlink:href="#aR" x="274.76" y="308.673"/><use xlink:href="#aK" x="280.811" y="308.673"/><use xlink:href="#aF" x="286.308" y="308.673"/><use xlink:href="#aK" x="291.805" y="308.673"/><use xlink:href="#aG" x="297.302" y="308.673"/><use xlink:href="#aU" x="300.805" y="308.673"/><use xlink:href="#aV" x="303.503" y="308.673"/><use xlink:href="#aK" x="309" y="308.673"/><use xlink:href="#aW" x="314.497" y="308.673"/><use xlink:href="#aS" x="317.749" y="308.673"/><use xlink:href="#aQ" x="323.246" y="308.673"/><use xlink:href="#aX" x="329.297" y="308.673"/><use xlink:href="#aG" x="334.23" y="308.673"/><use xlink:href="#aQ" x="337.734" y="308.673"/><use xlink:href="#aW" x="343.785" y="308.673"/></g><g fill="#231f20"><use xlink:href="#aD" x="346.855" y="308.673"/><use xlink:href="#aO" x="352.352" y="308.673"/><use xlink:href="#aY" x="358.403" y="308.673"/><use xlink:href="#aM" x="363.9" y="308.673"/><use xlink:href="#aU" x="369.397" y="308.673"/><use xlink:href="#aZ" x="372.095" y="308.673"/><use xlink:href="#aG" x="374.793" y="308.673"/><use xlink:href="#aC" x="378.297" y="308.673"/><use xlink:href="#aH" x="384.911" y="308.673"/><use xlink:href="#aL" x="390.408" y="308.673"/><use xlink:href="#ba" x="396.459" y="308.673"/><use xlink:href="#bb" x="399.711" y="308.673"/><use xlink:href="#bc" x="405.208" y="308.673"/><use xlink:href="#bd" x="410.705" y="308.673"/><use xlink:href="#be" x="416.202" y="308.673"/><use xlink:href="#aG" x="421.699" y="308.673"/><use xlink:href="#aJ" x="425.202" y="308.673"/><use xlink:href="#aD" x="427.901" y="308.673"/><use xlink:href="#aW" x="433.398" y="308.673"/><use xlink:href="#aG" x="436.65" y="308.673"/><use xlink:href="#aF" x="440.153" y="308.673"/><use xlink:href="#aK" x="445.65" y="308.673"/><use xlink:href="#aY" x="451.147" y="308.673"/><use xlink:href="#aW" x="456.644" y="308.673"/></g><g fill="#231f20"><use xlink:href="#aD" x="459.715" y="308.673"/><use xlink:href="#aQ" x="465.212" y="308.673"/><use xlink:href="#aS" x="471.262" y="308.673"/><use xlink:href="#aU" x="476.759" y="308.673"/><use xlink:href="#aV" x="479.458" y="308.673"/><use xlink:href="#aI" x="484.955" y="308.673"/><use xlink:href="#aM" x="487.089" y="308.673"/><use xlink:href="#aG" x="492.586" y="308.673"/><use xlink:href="#aQ" x="496.09" y="308.673"/><use xlink:href="#aS" x="502.14" y="308.673"/><use xlink:href="#aI" x="507.637" y="308.673"/><use xlink:href="#aF" x="509.772" y="308.673"/><use xlink:href="#bf" x="515.269" y="308.673"/><use xlink:href="#aG" x="517.967" y="308.673"/></g><g fill="#231f20"><use xlink:href="#aC" x="93.43" y="327.65"/><use xlink:href="#aH" x="100.235" y="327.65"/><use xlink:href="#aL" x="105.924" y="327.65"/><use xlink:href="#ba" x="112.166" y="327.65"/><use xlink:href="#bb" x="115.609" y="327.65"/><use xlink:href="#bc" x="121.297" y="327.65"/><use xlink:href="#bd" x="126.985" y="327.65"/><use xlink:href="#be" x="132.674" y="327.65"/><use xlink:href="#aG" x="138.362" y="327.65"/><use xlink:href="#aM" x="142.178" y="327.65"/><use xlink:href="#aD" x="147.866" y="327.65"/><use xlink:href="#aF" x="153.554" y="327.65"/><use xlink:href="#aN" x="159.243" y="327.65"/><use xlink:href="#aI" x="164.367" y="327.65"/><use xlink:href="#aN" x="166.693" y="327.65"/><use xlink:href="#aU" x="171.817" y="327.65"/><use xlink:href="#aN" x="174.707" y="327.65"/><use xlink:href="#aG" x="179.831" y="327.65"/><use xlink:href="#aD" x="183.647" y="327.65"/><use xlink:href="#aJ" x="189.335" y="327.65"/><use xlink:href="#aG" x="192.225" y="327.65"/><use xlink:href="#aS" x="196.04" y="327.65"/><use xlink:href="#aG" x="201.729" y="327.65"/><use xlink:href="#aM" x="205.544" y="327.65"/><use xlink:href="#aD" x="211.232" y="327.65"/><use xlink:href="#bg" x="216.921" y="327.65"/><use xlink:href="#bh" x="225.398" y="327.65"/><use xlink:href="#aI" x="231.64" y="327.65"/><use xlink:href="#aF" x="233.965" y="327.65"/><use xlink:href="#aS" x="239.654" y="327.65"/><use xlink:href="#aU" x="245.342" y="327.65"/><use xlink:href="#aI" x="248.231" y="327.65"/><use xlink:href="#aD" x="250.557" y="327.65"/><use xlink:href="#aF" x="256.245" y="327.65"/><use xlink:href="#aG" x="261.934" y="327.65"/><use xlink:href="#aD" x="265.749" y="327.65"/><use xlink:href="#aJ" x="271.438" y="327.65"/><use xlink:href="#aG" x="274.327" y="327.65"/><use xlink:href="#bb" x="278.143" y="327.65"/><use xlink:href="#aG" x="283.831" y="327.65"/><use xlink:href="#aW" x="287.647" y="327.65"/><use xlink:href="#bi" x="291.09" y="327.65"/><use xlink:href="#bi" x="297.896" y="327.65"/></g><g fill="#231f20"><use xlink:href="#bj" x="303.956" y="327.65"/><use xlink:href="#aN" x="310.199" y="327.65"/><use xlink:href="#aG" x="315.323" y="327.65"/><use xlink:href="#aK" x="319.139" y="327.65"/><use xlink:href="#bk" x="324.827" y="327.65"/><use xlink:href="#aQ" x="329.951" y="327.65"/><use xlink:href="#aW" x="336.193" y="327.65"/></g><g fill="#231f20"><use xlink:href="#aK" x="339.455" y="327.65"/><use xlink:href="#aN" x="345.144" y="327.65"/><use xlink:href="#aN" x="350.268" y="327.65"/><use xlink:href="#aI" x="355.393" y="327.65"/><use xlink:href="#aF" x="357.718" y="327.65"/><use xlink:href="#aR" x="363.407" y="327.65"/><use xlink:href="#aG" x="369.649" y="327.65"/><use xlink:href="#bd" x="373.464" y="327.65"/><use xlink:href="#aG" x="379.153" y="327.65"/><use xlink:href="#aU" x="382.968" y="327.65"/><use xlink:href="#aW" x="385.858" y="327.65"/><use xlink:href="#aS" x="389.301" y="327.65"/><use xlink:href="#aF" x="394.989" y="327.65"/><use xlink:href="#aN" x="400.677" y="327.65"/><use xlink:href="#aR" x="405.802" y="327.65"/><use xlink:href="#aK" x="412.044" y="327.65"/><use xlink:href="#aF" x="417.732" y="327.65"/><use xlink:href="#aK" x="423.42" y="327.65"/><use xlink:href="#aN" x="429.109" y="327.65"/><use xlink:href="#aG" x="434.233" y="327.65"/><use xlink:href="#aU" x="438.049" y="327.65"/><use xlink:href="#aD" x="440.938" y="327.65"/><use xlink:href="#aG" x="446.627" y="327.65"/><use xlink:href="#aN" x="450.442" y="327.65"/><use xlink:href="#aI" x="455.567" y="327.65"/><use xlink:href="#bg" x="457.892" y="327.65"/><use xlink:href="#aY" x="466.37" y="327.65"/><use xlink:href="#aE" x="472.058" y="327.65"/><use xlink:href="#aU" x="474.383" y="327.65"/><use xlink:href="#aS" x="477.273" y="327.65"/><use xlink:href="#aK" x="482.961" y="327.65"/><use xlink:href="#aF" x="488.649" y="327.65"/><use xlink:href="#aD" x="494.338" y="327.65"/><use xlink:href="#aY" x="500.026" y="327.65"/><use xlink:href="#aN" x="505.714" y="327.65"/><use xlink:href="#aE" x="510.839" y="327.65"/><use xlink:href="#aX" x="513.164" y="327.65"/></g><use xlink:href="#aG" x="518.098" y="327.65" fill="#231f20"/><g fill="#231f20"><use xlink:href="#aI" x="93.43" y="346.627"/><use xlink:href="#aF" x="95.645" y="346.627"/><use xlink:href="#aV" x="101.222" y="346.627"/><use xlink:href="#aI" x="106.8" y="346.627"/><use xlink:href="#bh" x="109.015" y="346.627"/><use xlink:href="#aI" x="115.146" y="346.627"/><use xlink:href="#aU" x="117.361" y="346.627"/><use xlink:href="#aG" x="120.139" y="346.627"/><use xlink:href="#aU" x="123.834" y="346.627"/><use xlink:href="#aV" x="126.613" y="346.627"/><use xlink:href="#aK" x="132.191" y="346.627"/><use xlink:href="#aG" x="137.768" y="346.627"/><use xlink:href="#bg" x="141.463" y="346.627"/><use xlink:href="#aS" x="149.829" y="346.627"/><use xlink:href="#bl" x="155.407" y="346.627"/><use xlink:href="#aD" x="157.622" y="346.627"/><use xlink:href="#aW" x="163.199" y="346.627"/><use xlink:href="#aG" x="166.532" y="346.627"/><use xlink:href="#aQ" x="170.227" y="346.627"/><use xlink:href="#aS" x="176.358" y="346.627"/><use xlink:href="#aU" x="181.935" y="346.627"/><use xlink:href="#aV" x="184.714" y="346.627"/><use xlink:href="#aD" x="190.292" y="346.627"/><use xlink:href="#aE" x="195.869" y="346.627"/><use xlink:href="#aD" x="198.084" y="346.627"/><use xlink:href="#aR" x="203.662" y="346.627"/><use xlink:href="#aI" x="209.793" y="346.627"/><use xlink:href="#aM" x="212.008" y="346.627"/><use xlink:href="#aS" x="217.585" y="346.627"/><use xlink:href="#aE" x="223.163" y="346.627"/><use xlink:href="#aG" x="225.378" y="346.627"/><use xlink:href="#bg" x="229.073" y="346.627"/><use xlink:href="#aK" x="237.439" y="346.627"/><use xlink:href="#aM" x="243.016" y="346.627"/><use xlink:href="#aV" x="248.594" y="346.627"/><use xlink:href="#aS" x="254.171" y="346.627"/><use xlink:href="#aF" x="259.749" y="346.627"/><use xlink:href="#aI" x="265.327" y="346.627"/><use xlink:href="#aN" x="267.541" y="346.627"/><use xlink:href="#bg" x="272.555" y="346.627"/><use xlink:href="#aN" x="280.921" y="346.627"/><use xlink:href="#aG" x="285.935" y="346.627"/><use xlink:href="#aD" x="289.63" y="346.627"/><use xlink:href="#aJ" x="295.208" y="346.627"/><use xlink:href="#aG" x="297.986" y="346.627"/><use xlink:href="#aF" x="301.681" y="346.627"/><use xlink:href="#aK" x="307.259" y="346.627"/><use xlink:href="#aY" x="312.836" y="346.627"/><use xlink:href="#aW" x="318.414" y="346.627"/></g><g fill="#231f20"><use xlink:href="#aD" x="321.565" y="346.627"/><use xlink:href="#aQ" x="327.143" y="346.627"/><use xlink:href="#aS" x="333.274" y="346.627"/><use xlink:href="#aU" x="338.851" y="346.627"/><use xlink:href="#aV" x="341.63" y="346.627"/><use xlink:href="#aI" x="347.208" y="346.627"/><use xlink:href="#aM" x="349.422" y="346.627"/><use xlink:href="#aG" x="355" y="346.627"/><use xlink:href="#aQ" x="358.695" y="346.627"/><use xlink:href="#aS" x="364.826" y="346.627"/><use xlink:href="#aI" x="370.404" y="346.627"/><use xlink:href="#aF" x="372.619" y="346.627"/><use xlink:href="#bf" x="378.196" y="346.627"/><use xlink:href="#aG" x="380.975" y="346.627"/><use xlink:href="#aL" x="384.67" y="346.627"/><use xlink:href="#aI" x="390.801" y="346.627"/><use xlink:href="#aF" x="393.016" y="346.627"/><use xlink:href="#aR" x="398.593" y="346.627"/><use xlink:href="#aE" x="404.725" y="346.627"/><use xlink:href="#aK" x="406.94" y="346.627"/><use xlink:href="#aG" x="412.517" y="346.627"/><use xlink:href="#aI" x="416.212" y="346.627"/><use xlink:href="#aF" x="418.427" y="346.627"/><use xlink:href="#bl" x="424.004" y="346.627"/><use xlink:href="#aK" x="426.219" y="346.627"/><use xlink:href="#aM" x="431.797" y="346.627"/><use xlink:href="#aU" x="437.374" y="346.627"/><use xlink:href="#aI" x="440.153" y="346.627"/><use xlink:href="#aD" x="442.368" y="346.627"/><use xlink:href="#aF" x="447.946" y="346.627"/><use xlink:href="#aN" x="453.523" y="346.627"/><use xlink:href="#aG" x="458.537" y="346.627"/><use xlink:href="#aD" x="462.232" y="346.627"/><use xlink:href="#aJ" x="467.809" y="346.627"/><use xlink:href="#aG" x="470.588" y="346.627"/><use xlink:href="#aC" x="474.283" y="346.627"/><use xlink:href="#aH" x="480.978" y="346.627"/><use xlink:href="#aL" x="486.555" y="346.627"/><use xlink:href="#ba" x="492.687" y="346.627"/><use xlink:href="#bb" x="496.019" y="346.627"/><use xlink:href="#bc" x="501.597" y="346.627"/><use xlink:href="#bd" x="507.174" y="346.627"/><use xlink:href="#be" x="512.752" y="346.627"/></g><use xlink:href="#aG" x="518.249" y="346.627" fill="#231f20"/><g fill="#231f20"><use xlink:href="#aU" x="93.43" y="365.604"/><use xlink:href="#aD" x="96.269" y="365.604"/><use xlink:href="#aG" x="101.907" y="365.604"/><use xlink:href="#aU" x="105.672" y="365.604"/><use xlink:href="#aS" x="108.511" y="365.604"/><use xlink:href="#aW" x="114.149" y="365.604"/><use xlink:href="#aR" x="117.542" y="365.604"/><use xlink:href="#aK" x="123.734" y="365.604"/><use xlink:href="#aU" x="129.372" y="365.604"/><use xlink:href="#aG" x="132.211" y="365.604"/><use xlink:href="#aO" x="135.976" y="365.604"/><use xlink:href="#aD" x="142.168" y="365.604"/><use xlink:href="#aW" x="147.806" y="365.604"/><use xlink:href="#aN" x="151.198" y="365.604"/><use xlink:href="#aS" x="156.273" y="365.604"/><use xlink:href="#aE" x="161.911" y="365.604"/><use xlink:href="#aG" x="164.186" y="365.604"/><use xlink:href="#aW" x="167.951" y="365.604"/></g><g fill="#231f20"><use xlink:href="#aD" x="171.163" y="365.604"/><use xlink:href="#aD" x="176.801" y="365.604"/><use xlink:href="#aU" x="182.439" y="365.604"/><use xlink:href="#aG" x="185.278" y="365.604"/><use xlink:href="#aR" x="189.043" y="365.604"/><use xlink:href="#aS" x="195.235" y="365.604"/><use xlink:href="#aF" x="200.873" y="365.604"/><use xlink:href="#aR" x="206.511" y="365.604"/><use xlink:href="#aE" x="212.702" y="365.604"/><use xlink:href="#aI" x="214.978" y="365.604"/><use xlink:href="#aD" x="217.253" y="365.604"/><use xlink:href="#aF" x="222.891" y="365.604"/><use xlink:href="#aG" x="228.529" y="365.604"/><use xlink:href="#aQ" x="232.294" y="365.604"/><use xlink:href="#aW" x="238.486" y="365.604"/></g><g fill="#231f20"><use xlink:href="#aD" x="241.697" y="365.604"/><use xlink:href="#aO" x="247.335" y="365.604"/><use xlink:href="#aY" x="253.527" y="365.604"/><use xlink:href="#aM" x="259.165" y="365.604"/><use xlink:href="#aK" x="264.803" y="365.604"/><use xlink:href="#aO" x="270.441" y="365.604"/><use xlink:href="#aG" x="276.633" y="365.604"/><use xlink:href="#aE" x="280.398" y="365.604"/><use xlink:href="#aD" x="282.673" y="365.604"/><use xlink:href="#aF" x="288.311" y="365.604"/><use xlink:href="#aR" x="293.949" y="365.604"/><use xlink:href="#ba" x="300.141" y="365.604"/><use xlink:href="#aU" x="303.534" y="365.604"/><use xlink:href="#aK" x="306.373" y="365.604"/><use xlink:href="#aW" x="312.011" y="365.604"/></g><g fill="#231f20"><use xlink:href="#bg" x="315.585" y="365.604"/><use xlink:href="#aG" x="324.011" y="365.604"/><use xlink:href="#aS" x="327.777" y="365.604"/><use xlink:href="#aF" x="333.415" y="365.604"/><use xlink:href="#aS" x="339.053" y="365.604"/><use xlink:href="#aE" x="344.691" y="365.604"/><use xlink:href="#aR" x="346.966" y="365.604"/><use xlink:href="#aK" x="353.158" y="365.604"/><use xlink:href="#aN" x="358.796" y="365.604"/><use xlink:href="#aI" x="363.87" y="365.604"/><use xlink:href="#aM" x="366.145" y="365.604"/><use xlink:href="#aG" x="371.783" y="365.604"/><use xlink:href="#aK" x="375.548" y="365.604"/><use xlink:href="#aJ" x="381.186" y="365.604"/></g><g fill="#231f20"><use xlink:href="#aJ" x="383.844" y="365.604"/><use xlink:href="#aK" x="386.683" y="365.604"/><use xlink:href="#aM" x="392.321" y="365.604"/><use xlink:href="#aU" x="397.959" y="365.604"/><use xlink:href="#aN" x="400.798" y="365.604"/><use xlink:href="#aG" x="405.872" y="365.604"/><use xlink:href="#aI" x="409.638" y="365.604"/><use xlink:href="#aF" x="411.913" y="365.604"/><use xlink:href="#aG" x="417.551" y="365.604"/><use xlink:href="#aW" x="421.316" y="365.604"/><use xlink:href="#aS" x="424.709" y="365.604"/><use xlink:href="#aU" x="430.347" y="365.604"/><use xlink:href="#aN" x="433.186" y="365.604"/><use xlink:href="#aG" x="438.26" y="365.604"/><use xlink:href="#aT" x="442.026" y="365.604"/><use xlink:href="#aI" x="449.335" y="365.604"/><use xlink:href="#aU" x="451.61" y="365.604"/><use xlink:href="#aV" x="454.449" y="365.604"/><use xlink:href="#aG" x="460.087" y="365.604"/><use xlink:href="#aF" x="463.853" y="365.604"/><use xlink:href="#aK" x="469.491" y="365.604"/><use xlink:href="#aY" x="475.128" y="365.604"/><use xlink:href="#aW" x="480.766" y="365.604"/></g><g fill="#231f20"><use xlink:href="#aD" x="483.978" y="365.604"/><use xlink:href="#aQ" x="489.616" y="365.604"/><use xlink:href="#aS" x="495.808" y="365.604"/><use xlink:href="#aU" x="501.446" y="365.604"/><use xlink:href="#aV" x="504.285" y="365.604"/><use xlink:href="#aI" x="509.923" y="365.604"/><use xlink:href="#aM" x="512.198" y="365.604"/></g><use xlink:href="#aG" x="517.695" y="365.604" fill="#231f20"/><g fill="#231f20"><use xlink:href="#aQ" x="93.43" y="384.581"/><use xlink:href="#aS" x="99.873" y="384.581"/><use xlink:href="#aI" x="105.763" y="384.581"/><use xlink:href="#aF" x="108.29" y="384.581"/><use xlink:href="#bf" x="114.179" y="384.581"/><use xlink:href="#aG" x="117.27" y="384.581"/><use xlink:href="#bm" x="121.287" y="384.581"/><use xlink:href="#aY" x="127.177" y="384.581"/><use xlink:href="#aW" x="133.066" y="384.581"/></g><g fill="#231f20"><use xlink:href="#aU" x="136.892" y="384.581"/><use xlink:href="#aV" x="139.983" y="384.581"/><use xlink:href="#aK" x="145.873" y="384.581"/><use xlink:href="#aW" x="151.762" y="384.581"/></g><g fill="#231f20"><use xlink:href="#bg" x="155.588" y="384.581"/><use xlink:href="#aD" x="164.266" y="384.581"/><use xlink:href="#aW" x="170.156" y="384.581"/></g><g fill="#231f20"><use xlink:href="#aK" x="173.619" y="384.581"/><use xlink:href="#aZ" x="179.509" y="384.581"/><use xlink:href="#aG" x="182.6" y="384.581"/><use xlink:href="#aC" x="186.617" y="384.581"/><use xlink:href="#aH" x="193.624" y="384.581"/><use xlink:href="#aL" x="199.514" y="384.581"/><use xlink:href="#ba" x="205.957" y="384.581"/><use xlink:href="#bb" x="209.601" y="384.581"/><use xlink:href="#bc" x="215.491" y="384.581"/><use xlink:href="#bd" x="221.381" y="384.581"/><use xlink:href="#be" x="227.27" y="384.581"/><use xlink:href="#aG" x="233.16" y="384.581"/><use xlink:href="#bg" x="237.177" y="384.581"/><use xlink:href="#aI" x="245.855" y="384.581"/><use xlink:href="#aU" x="248.382" y="384.581"/><use xlink:href="#aI" x="251.473" y="384.581"/><use xlink:href="#aR" x="254" y="384.581"/><use xlink:href="#aS" x="260.444" y="384.581"/><use xlink:href="#aU" x="266.333" y="384.581"/><use xlink:href="#aK" x="269.424" y="384.581"/><use xlink:href="#aO" x="275.314" y="384.581"/><use xlink:href="#aG" x="281.757" y="384.581"/><use xlink:href="#aU" x="285.774" y="384.581"/><use xlink:href="#aV" x="288.865" y="384.581"/><use xlink:href="#aK" x="294.755" y="384.581"/><use xlink:href="#aG" x="300.644" y="384.581"/><use xlink:href="#aF" x="304.661" y="384.581"/><use xlink:href="#aK" x="310.551" y="384.581"/><use xlink:href="#aY" x="316.441" y="384.581"/><use xlink:href="#aW" x="322.33" y="384.581"/></g><g fill="#231f20"><use xlink:href="#aD" x="325.793" y="384.581"/><use xlink:href="#aI" x="331.683" y="384.581"/><use xlink:href="#aF" x="334.21" y="384.581"/><use xlink:href="#aJ" x="340.1" y="384.581"/><use xlink:href="#aE" x="343.191" y="384.581"/><use xlink:href="#aS" x="345.718" y="384.581"/><use xlink:href="#bg" x="351.607" y="384.581"/><use xlink:href="#bg" x="360.286" y="384.581"/><use xlink:href="#aS" x="368.964" y="384.581"/><use xlink:href="#aU" x="374.854" y="384.581"/><use xlink:href="#aI" x="377.944" y="384.581"/><use xlink:href="#aD" x="380.471" y="384.581"/><use xlink:href="#aF" x="386.361" y="384.581"/><use xlink:href="#aZ" x="392.251" y="384.581"/><use xlink:href="#aG" x="395.342" y="384.581"/><use xlink:href="#aF" x="399.359" y="384.581"/><use xlink:href="#aK" x="405.248" y="384.581"/><use xlink:href="#aY" x="411.138" y="384.581"/><use xlink:href="#aW" x="417.027" y="384.581"/></g><g fill="#231f20"><use xlink:href="#aD" x="420.491" y="384.581"/><use xlink:href="#aF" x="426.38" y="384.581"/><use xlink:href="#aS" x="432.27" y="384.581"/><use xlink:href="#aE" x="438.16" y="384.581"/><use xlink:href="#aG" x="440.687" y="384.581"/><use xlink:href="#aM" x="444.704" y="384.581"/><use xlink:href="#aK" x="450.593" y="384.581"/><use xlink:href="#aE" x="456.483" y="384.581"/><use xlink:href="#aE" x="459.01" y="384.581"/><use xlink:href="#aG" x="461.537" y="384.581"/><use xlink:href="#aO" x="465.554" y="384.581"/><use xlink:href="#aK" x="471.997" y="384.581"/><use xlink:href="#aS" x="477.887" y="384.581"/><use xlink:href="#aU" x="483.777" y="384.581"/><use xlink:href="#aV" x="486.867" y="384.581"/><use xlink:href="#aZ" x="492.757" y="384.581"/><use xlink:href="#aG" x="495.848" y="384.581"/><use xlink:href="#aS" x="499.865" y="384.581"/><use xlink:href="#aF" x="505.755" y="384.581"/><use xlink:href="#aO" x="511.644" y="384.581"/></g><use xlink:href="#aG" x="517.695" y="384.581" fill="#231f20"/><g fill="#231f20"><use xlink:href="#aV" x="93.43" y="403.558"/><use xlink:href="#aX" x="99.39" y="403.558"/><use xlink:href="#aQ" x="104.786" y="403.558"/><use xlink:href="#aK" x="111.3" y="403.558"/><use xlink:href="#aW" x="117.26" y="403.558"/></g><g fill="#231f20"><use xlink:href="#aK" x="120.794" y="403.558"/><use xlink:href="#bk" x="126.754" y="403.558"/><use xlink:href="#aM" x="132.15" y="403.558"/><use xlink:href="#aI" x="138.11" y="403.558"/></g><g fill="#231f20"><use xlink:href="#aU" x="140.698" y="403.558"/><use xlink:href="#aS" x="143.859" y="403.558"/><use xlink:href="#bh" x="149.819" y="403.558"/><use xlink:href="#aI" x="156.333" y="403.558"/><use xlink:href="#aE" x="158.93" y="403.558"/><use xlink:href="#aI" x="161.528" y="403.558"/><use xlink:href="#aU" x="164.125" y="403.558"/><use xlink:href="#aX" x="167.287" y="403.558"/><use xlink:href="#aG" x="172.683" y="403.558"/><use xlink:href="#aI" x="176.76" y="403.558"/></g><g fill="#231f20"><use xlink:href="#aF" x="179.348" y="403.558"/><use xlink:href="#aG" x="185.308" y="403.558"/><use xlink:href="#bn" x="189.385" y="403.558"/><use xlink:href="#bo" x="197.017" y="403.558"/><use xlink:href="#bp" x="204.094" y="403.558"/></g><g fill="#231f20"><use xlink:href="#bf" x="212.28" y="403.558"/><use xlink:href="#aG" x="215.441" y="403.558"/><use xlink:href="#bq" x="219.518" y="403.558"/><use xlink:href="#aV" x="225.478" y="403.558"/><use xlink:href="#aK" x="231.438" y="403.558"/><use xlink:href="#aN" x="237.399" y="403.558"/><use xlink:href="#aK" x="242.795" y="403.558"/></g><g fill="#231f20"><use xlink:href="#aG" x="248.745" y="403.558"/><use xlink:href="#aW" x="252.822" y="403.558"/></g><g fill="#231f20"><use xlink:href="#aK" x="256.356" y="403.558"/><use xlink:href="#aN" x="262.316" y="403.558"/><use xlink:href="#aY" x="267.713" y="403.558"/><use xlink:href="#aE" x="273.673" y="403.558"/></g><g fill="#231f20"><use xlink:href="#aU" x="276.26" y="403.558"/><use xlink:href="#aN" x="279.421" y="403.558"/><use xlink:href="#aG" x="284.818" y="403.558"/><use xlink:href="#aN" x="288.895" y="403.558"/><use xlink:href="#aY" x="294.291" y="403.558"/><use xlink:href="#aR" x="300.252" y="403.558"/></g><g fill="#231f20"><use xlink:href="#aR" x="306.755" y="403.558"/><use xlink:href="#aK" x="313.269" y="403.558"/><use xlink:href="#aN" x="319.229" y="403.558"/><use xlink:href="#aU" x="324.626" y="403.558"/><use xlink:href="#aG" x="327.787" y="403.558"/><use xlink:href="#aU" x="331.864" y="403.558"/></g><g fill="#231f20"><use xlink:href="#aV" x="335.016" y="403.558"/><use xlink:href="#aS" x="340.976" y="403.558"/><use xlink:href="#aU" x="346.936" y="403.558"/><use xlink:href="#aG" x="350.097" y="403.558"/><use xlink:href="#aC" x="354.174" y="403.558"/><use xlink:href="#aH" x="361.252" y="403.558"/></g><g fill="#231f20"><use xlink:href="#aL" x="367.202" y="403.558"/><use xlink:href="#ba" x="373.716" y="403.558"/><use xlink:href="#bb" x="377.431" y="403.558"/><use xlink:href="#bc" x="383.391" y="403.558"/><use xlink:href="#bd" x="389.351" y="403.558"/><use xlink:href="#be" x="395.311" y="403.558"/><use xlink:href="#aG" x="401.271" y="403.558"/><use xlink:href="#aW" x="405.349" y="403.558"/></g><g fill="#231f20"><use xlink:href="#aK" x="408.883" y="403.558"/><use xlink:href="#aQ" x="414.843" y="403.558"/><use xlink:href="#aW" x="421.357" y="403.558"/></g><g fill="#231f20"><use xlink:href="#aK" x="424.89" y="403.558"/><use xlink:href="#aN" x="430.85" y="403.558"/><use xlink:href="#aK" x="436.247" y="403.558"/><use xlink:href="#aF" x="442.207" y="403.558"/><use xlink:href="#aU" x="448.167" y="403.558"/><use xlink:href="#aN" x="451.328" y="403.558"/><use xlink:href="#aG" x="456.725" y="403.558"/><use xlink:href="#aS" x="460.802" y="403.558"/><use xlink:href="#aG" x="466.762" y="403.558"/><use xlink:href="#aQ" x="470.84" y="403.558"/><use xlink:href="#aW" x="477.353" y="403.558"/></g><g fill="#231f20"><use xlink:href="#aD" x="480.887" y="403.558"/><use xlink:href="#bg" x="486.847" y="403.558"/><use xlink:href="#aI" x="495.596" y="403.558"/><use xlink:href="#aN" x="498.194" y="403.558"/><use xlink:href="#aI" x="503.59" y="403.558"/><use xlink:href="#aF" x="506.187" y="403.558"/><use xlink:href="#aR" x="512.148" y="403.558"/></g><use xlink:href="#aG" x="518.198" y="403.558" fill="#231f20"/><g fill="#231f20"><use xlink:href="#aU" x="93.43" y="422.534"/><use xlink:href="#aV" x="96.118" y="422.534"/><use xlink:href="#aK" x="101.605" y="422.534"/><use xlink:href="#aW" x="107.092" y="422.534"/><use xlink:href="#aS" x="110.333" y="422.534"/><use xlink:href="#aQ" x="115.82" y="422.534"/><use xlink:href="#aK" x="121.861" y="422.534"/><use xlink:href="#aY" x="127.348" y="422.534"/><use xlink:href="#aU" x="132.835" y="422.534"/><use xlink:href="#aI" x="135.523" y="422.534"/><use xlink:href="#aM" x="137.647" y="422.534"/><use xlink:href="#aG" x="143.134" y="422.534"/><use xlink:href="#aD" x="145.822" y="422.534"/><use xlink:href="#aQ" x="151.309" y="422.534"/><use xlink:href="#aU" x="157.35" y="422.534"/><use xlink:href="#aI" x="160.038" y="422.534"/><use xlink:href="#aD" x="162.162" y="422.534"/><use xlink:href="#aF" x="167.649" y="422.534"/><use xlink:href="#aG" x="173.136" y="422.534"/><use xlink:href="#aJ" x="175.824" y="422.534"/><use xlink:href="#aD" x="178.512" y="422.534"/><use xlink:href="#aW" x="183.999" y="422.534"/><use xlink:href="#aG" x="187.241" y="422.534"/><use xlink:href="#aW" x="189.929" y="422.534"/></g><g fill="#231f20"><use xlink:href="#aK" x="192.99" y="422.534"/><use xlink:href="#aJ" x="198.477" y="422.534"/><use xlink:href="#aW" x="201.165" y="422.534"/><use xlink:href="#aS" x="204.407" y="422.534"/><use xlink:href="#aM" x="209.893" y="422.534"/><use xlink:href="#aU" x="215.38" y="422.534"/><use xlink:href="#aD" x="218.068" y="422.534"/><use xlink:href="#aW" x="223.555" y="422.534"/></g><g fill="#231f20"><use xlink:href="#aX" x="226.978" y="422.534"/><use xlink:href="#aG" x="231.902" y="422.534"/><use xlink:href="#aF" x="234.59" y="422.534"/><use xlink:href="#aK" x="240.077" y="422.534"/><use xlink:href="#aY" x="245.564" y="422.534"/><use xlink:href="#aW" x="251.05" y="422.534"/></g><g fill="#231f20"><use xlink:href="#aD" x="254.111" y="422.534"/><use xlink:href="#aQ" x="259.598" y="422.534"/><use xlink:href="#aS" x="265.639" y="422.534"/><use xlink:href="#aU" x="271.126" y="422.534"/><use xlink:href="#aV" x="273.814" y="422.534"/><use xlink:href="#aI" x="279.301" y="422.534"/><use xlink:href="#aM" x="281.425" y="422.534"/><use xlink:href="#aG" x="286.912" y="422.534"/><use xlink:href="#aQ" x="289.6" y="422.534"/><use xlink:href="#aS" x="295.641" y="422.534"/><use xlink:href="#aI" x="301.127" y="422.534"/><use xlink:href="#aF" x="303.252" y="422.534"/><use xlink:href="#bf" x="308.739" y="422.534"/><use xlink:href="#aG" x="311.427" y="422.534"/><use xlink:href="#bq" x="314.115" y="422.534"/><use xlink:href="#aV" x="319.602" y="422.534"/><use xlink:href="#aK" x="325.089" y="422.534"/><use xlink:href="#aG" x="330.576" y="422.534"/><use xlink:href="#aI" x="333.264" y="422.534"/><use xlink:href="#aF" x="335.388" y="422.534"/><use xlink:href="#aP" x="340.875" y="422.534"/><use xlink:href="#aK" x="345.798" y="422.534"/><use xlink:href="#aN" x="351.285" y="422.534"/><use xlink:href="#aU" x="356.208" y="422.534"/><use xlink:href="#aI" x="358.896" y="422.534"/><use xlink:href="#aR" x="361.021" y="422.534"/><use xlink:href="#aS" x="367.061" y="422.534"/><use xlink:href="#aU" x="372.548" y="422.534"/><use xlink:href="#aI" x="375.236" y="422.534"/><use xlink:href="#aD" x="377.36" y="422.534"/><use xlink:href="#aF" x="382.847" y="422.534"/><use xlink:href="#aS" x="388.334" y="422.534"/><use xlink:href="#aE" x="393.821" y="422.534"/><use xlink:href="#aG" x="395.946" y="422.534"/><use xlink:href="#aF" x="398.634" y="422.534"/><use xlink:href="#aK" x="404.121" y="422.534"/><use xlink:href="#aT" x="409.608" y="422.534"/><use xlink:href="#aG" x="416.766" y="422.534"/><use xlink:href="#aO" x="419.454" y="422.534"/><use xlink:href="#aW" x="425.494" y="422.534"/><use xlink:href="#aY" x="428.736" y="422.534"/><use xlink:href="#aR" x="434.223" y="422.534"/><use xlink:href="#aG" x="440.264" y="422.534"/><use xlink:href="#br" x="442.952" y="422.534"/><use xlink:href="#bs" x="446.194" y="422.534"/><use xlink:href="#bt" x="448.882" y="422.534"/><use xlink:href="#bn" x="456.04" y="422.534"/><use xlink:href="#bu" x="463.198" y="422.534"/><use xlink:href="#aG" x="466.44" y="422.534"/><use xlink:href="#aS" x="469.128" y="422.534"/><use xlink:href="#aQ" x="474.615" y="422.534"/><use xlink:href="#aQ" x="480.656" y="422.534"/><use xlink:href="#aE" x="486.696" y="422.534"/><use xlink:href="#aI" x="488.821" y="422.534"/><use xlink:href="#aM" x="490.945" y="422.534"/><use xlink:href="#aS" x="496.432" y="422.534"/><use xlink:href="#aU" x="501.919" y="422.534"/><use xlink:href="#aI" x="504.607" y="422.534"/><use xlink:href="#aD" x="506.731" y="422.534"/><use xlink:href="#aF" x="512.218" y="422.534"/></g><use xlink:href="#aG" x="517.715" y="422.534" fill="#231f20"/><g fill="#231f20"><use xlink:href="#aD" x="93.43" y="441.511"/><use xlink:href="#aJ" x="98.927" y="441.511"/><use xlink:href="#aG" x="101.625" y="441.511"/><use xlink:href="#aC" x="104.706" y="441.511"/><use xlink:href="#aH" x="111.32" y="441.511"/><use xlink:href="#aL" x="116.817" y="441.511"/><use xlink:href="#ba" x="122.868" y="441.511"/><use xlink:href="#bb" x="126.12" y="441.511"/><use xlink:href="#bc" x="131.617" y="441.511"/><use xlink:href="#bd" x="137.114" y="441.511"/><use xlink:href="#be" x="142.611" y="441.511"/><use xlink:href="#aG" x="148.108" y="441.511"/><use xlink:href="#aT" x="151.188" y="441.511"/><use xlink:href="#aS" x="158.357" y="441.511"/><use xlink:href="#aN" x="163.854" y="441.511"/><use xlink:href="#aG" x="168.787" y="441.511"/><use xlink:href="#aS" x="171.868" y="441.511"/><use xlink:href="#aQ" x="177.365" y="441.511"/><use xlink:href="#aQ" x="183.415" y="441.511"/><use xlink:href="#aW" x="189.466" y="441.511"/></g><g fill="#231f20"><use xlink:href="#aD" x="192.537" y="441.511"/><use xlink:href="#aP" x="198.034" y="441.511"/><use xlink:href="#aK" x="202.967" y="441.511"/><use xlink:href="#aO" x="208.464" y="441.511"/><use xlink:href="#aG" x="214.515" y="441.511"/><use xlink:href="#bh" x="217.595" y="441.511"/><use xlink:href="#aX" x="223.646" y="441.511"/><use xlink:href="#aG" x="228.579" y="441.511"/><use xlink:href="#aU" x="231.66" y="441.511"/><use xlink:href="#aV" x="234.358" y="441.511"/><use xlink:href="#aK" x="239.855" y="441.511"/><use xlink:href="#aG" x="245.352" y="441.511"/><use xlink:href="#bv" x="248.433" y="441.511"/><use xlink:href="#aL" x="255.601" y="441.511"/><use xlink:href="#aG" x="261.652" y="441.511"/><use xlink:href="#bm" x="264.733" y="441.511"/><use xlink:href="#bn" x="270.23" y="441.511"/><use xlink:href="#bi" x="277.398" y="441.511"/><use xlink:href="#aZ" x="284.012" y="441.511"/><use xlink:href="#aG" x="286.71" y="441.511"/><use xlink:href="#aS" x="289.791" y="441.511"/><use xlink:href="#aF" x="295.288" y="441.511"/><use xlink:href="#aO" x="300.785" y="441.511"/><use xlink:href="#aG" x="306.836" y="441.511"/><use xlink:href="#aU" x="309.917" y="441.511"/><use xlink:href="#aV" x="312.615" y="441.511"/><use xlink:href="#aK" x="318.112" y="441.511"/><use xlink:href="#aG" x="323.609" y="441.511"/><use xlink:href="#aJ" x="326.689" y="441.511"/><use xlink:href="#aI" x="329.388" y="441.511"/><use xlink:href="#aW" x="331.522" y="441.511"/><use xlink:href="#aN" x="334.774" y="441.511"/><use xlink:href="#aU" x="339.707" y="441.511"/><use xlink:href="#ba" x="342.405" y="441.511"/><use xlink:href="#aI" x="345.657" y="441.511"/><use xlink:href="#aF" x="347.792" y="441.511"/><use xlink:href="#aV" x="353.288" y="441.511"/><use xlink:href="#aY" x="358.785" y="441.511"/><use xlink:href="#bg" x="364.282" y="441.511"/><use xlink:href="#aS" x="372.568" y="441.511"/><use xlink:href="#aF" x="378.065" y="441.511"/><use xlink:href="#aG" x="383.562" y="441.511"/><use xlink:href="#aN" x="386.643" y="441.511"/><use xlink:href="#aU" x="391.576" y="441.511"/><use xlink:href="#aY" x="394.274" y="441.511"/><use xlink:href="#aO" x="399.771" y="441.511"/><use xlink:href="#aX" x="405.822" y="441.511"/><use xlink:href="#aG" x="410.755" y="441.511"/><use xlink:href="#aT" x="413.836" y="441.511"/><use xlink:href="#aS" x="421.004" y="441.511"/><use xlink:href="#aN" x="426.501" y="441.511"/><use xlink:href="#aG" x="431.434" y="441.511"/><use xlink:href="#aI" x="434.515" y="441.511"/><use xlink:href="#aF" x="436.65" y="441.511"/><use xlink:href="#aI" x="442.147" y="441.511"/><use xlink:href="#aU" x="444.281" y="441.511"/><use xlink:href="#aI" x="446.979" y="441.511"/><use xlink:href="#aS" x="449.113" y="441.511"/><use xlink:href="#aU" x="454.61" y="441.511"/><use xlink:href="#aK" x="457.309" y="441.511"/><use xlink:href="#aO" x="462.806" y="441.511"/><use xlink:href="#bf" x="468.856" y="441.511"/><use xlink:href="#aG" x="471.554" y="441.511"/><use xlink:href="#aC" x="474.635" y="441.511"/><use xlink:href="#aH" x="481.25" y="441.511"/><use xlink:href="#aL" x="486.747" y="441.511"/><use xlink:href="#ba" x="492.797" y="441.511"/><use xlink:href="#bb" x="496.049" y="441.511"/><use xlink:href="#bc" x="501.546" y="441.511"/><use xlink:href="#bd" x="507.043" y="441.511"/><use xlink:href="#be" x="512.54" y="441.511"/><use xlink:href="#aG" x="518.037" y="441.511"/></g><g fill="#231f20"><use xlink:href="#aS" x="93.43" y="460.488"/><use xlink:href="#aE" x="98.927" y="460.488"/><use xlink:href="#aN" x="101.061" y="460.488"/><use xlink:href="#aD" x="105.994" y="460.488"/><use xlink:href="#aG" x="111.491" y="460.488"/><use xlink:href="#aW" x="114.189" y="460.488"/></g><g fill="#231f20"><use xlink:href="#aK" x="117.26" y="460.488"/><use xlink:href="#aM" x="122.757" y="460.488"/><use xlink:href="#aK" x="128.254" y="460.488"/><use xlink:href="#aI" x="133.751" y="460.488"/><use xlink:href="#aP" x="135.885" y="460.488"/><use xlink:href="#aK" x="140.819" y="460.488"/><use xlink:href="#aO" x="146.316" y="460.488"/><use xlink:href="#aG" x="152.366" y="460.488"/><use xlink:href="#aJ" x="155.064" y="460.488"/><use xlink:href="#aS" x="157.763" y="460.488"/><use xlink:href="#aN" x="163.26" y="460.488"/><use xlink:href="#aU" x="168.193" y="460.488"/><use xlink:href="#aG" x="170.891" y="460.488"/><use xlink:href="#aU" x="173.589" y="460.488"/><use xlink:href="#aW" x="176.287" y="460.488"/><use xlink:href="#aS" x="179.539" y="460.488"/><use xlink:href="#aM" x="185.036" y="460.488"/><use xlink:href="#bw" x="190.533" y="460.488"/><use xlink:href="#aG" x="195.466" y="460.488"/><use xlink:href="#aO" x="198.165" y="460.488"/><use xlink:href="#aK" x="204.215" y="460.488"/><use xlink:href="#aN" x="209.712" y="460.488"/><use xlink:href="#aI" x="214.645" y="460.488"/><use xlink:href="#aR" x="216.78" y="460.488"/><use xlink:href="#aF" x="222.831" y="460.488"/><use xlink:href="#aS" x="228.328" y="460.488"/><use xlink:href="#aU" x="233.825" y="460.488"/><use xlink:href="#aI" x="236.523" y="460.488"/><use xlink:href="#aD" x="238.657" y="460.488"/><use xlink:href="#aF" x="244.154" y="460.488"/><use xlink:href="#aG" x="249.651" y="460.488"/><use xlink:href="#br" x="252.349" y="460.488"/><use xlink:href="#bm" x="255.601" y="460.488"/><use xlink:href="#bq" x="261.098" y="460.488"/><use xlink:href="#bn" x="266.595" y="460.488"/><use xlink:href="#bu" x="273.763" y="460.488"/><use xlink:href="#bf" x="277.015" y="460.488"/></g><path d="M93.625 262.3l1.387-1.312 1.383 1.313-1.383 1.312zm0 0M96.637 262.3l1.383-1.312 1.386 1.313-1.386 1.312zm0 0M99.648 262.3l1.383-1.312 1.387 1.313-1.387 1.312zm0 0M102.66 262.3l1.383-1.312 1.383 1.313-1.383 1.312zm0 0M105.668 262.3l1.387-1.312 1.382 1.313-1.382 1.312zm0 0M108.68 262.3l1.383-1.312 1.386 1.313-1.386 1.312zm0 0M111.691 262.3l1.383-1.312 1.387 1.313-1.387 1.312zm0 0M114.703 262.3l1.383-1.312 1.383 1.313-1.383 1.312zm0 0M117.71 262.3l1.388-1.312 1.382 1.313-1.382 1.312zm0 0M120.723 262.3l1.386-1.312 1.383 1.313-1.383 1.312zm0 0M123.734 262.3l1.383-1.312 1.387 1.313-1.387 1.312zm0 0M126.746 262.3l1.383-1.312 1.387 1.313-1.387 1.312zm0 0M129.758 262.3l1.383-1.312 1.382 1.313-1.382 1.312zm0 0M132.766 262.3l1.386-1.312 1.383 1.313-1.383 1.312zm0 0M135.777 262.3l1.383-1.312 1.387 1.313-1.387 1.312zm0 0M138.79 262.3l1.382-1.312 1.387 1.313-1.387 1.312zm0 0M141.8 262.3l1.384-1.312 1.382 1.313-1.382 1.312zm0 0M144.809 262.3l1.386-1.312 1.383 1.313-1.383 1.312zm0 0M147.82 262.3l1.387-1.312 1.383 1.313-1.383 1.312zm0 0M150.832 262.3l1.383-1.312 1.387 1.313-1.387 1.312zm0 0M153.844 262.3l1.383-1.312 1.382 1.313-1.382 1.312zm0 0M156.855 262.3l1.383-1.312 1.383 1.313-1.383 1.312zm0 0M159.863 262.3l1.387-1.312 1.383 1.313-1.383 1.312zm0 0M162.875 262.3l1.383-1.312 1.387 1.313-1.387 1.312zm0 0M165.887 262.3l1.383-1.312 1.386 1.313-1.386 1.312zm0 0M168.898 262.3l1.383-1.312 1.383 1.313-1.383 1.312zm0 0M171.906 262.3l1.387-1.312 1.383 1.313-1.383 1.312zm0 0M174.918 262.3l1.387-1.312 1.382 1.313-1.382 1.312zm0 0M177.93 262.3l1.382-1.312 1.387 1.313-1.387 1.312zm0 0M180.941 262.3l1.383-1.312 1.387 1.313-1.387 1.312zm0 0M183.953 262.3l1.383-1.312 1.383 1.313-1.383 1.312zm0 0M186.96 262.3l1.388-1.312 1.382 1.313-1.382 1.312zm0 0M189.973 262.3l1.382-1.312 1.387 1.313-1.387 1.312zm0 0M192.984 262.3l1.383-1.312 1.387 1.313-1.387 1.312zm0 0M195.996 262.3l1.383-1.312 1.383 1.313-1.383 1.312zm0 0M199.004 262.3l1.387-1.312 1.382 1.313-1.382 1.312zm0 0M202.016 262.3l1.386-1.312 1.383 1.313-1.383 1.312zm0 0M205.027 262.3l1.383-1.312 1.387 1.313-1.387 1.312zm0 0M208.04 262.3l1.382-1.312 1.387 1.313-1.387 1.312zm0 0M211.05 262.3l1.384-1.312 1.382 1.313-1.382 1.312zm0 0M214.059 262.3l1.386-1.312 1.383 1.313-1.383 1.312zm0 0M217.07 262.3l1.383-1.312 1.387 1.313-1.387 1.312zm0 0M220.082 262.3l1.383-1.312 1.387 1.313-1.387 1.312zm0 0M223.094 262.3l1.383-1.312 1.382 1.313-1.382 1.312zm0 0M226.102 262.3l1.386-1.312 1.383 1.313-1.383 1.312zm0 0M229.113 262.3l1.387-1.312 1.383 1.313-1.383 1.312zm0 0M232.125 262.3l1.383-1.312 1.387 1.313-1.387 1.312zm0 0M235.137 262.3l1.383-1.312 1.386 1.313-1.386 1.312zm0 0M238.148 262.3l1.383-1.312 1.383 1.313-1.383 1.312zm0 0M241.156 262.3l1.387-1.312 1.383 1.313-1.383 1.312zm0 0M244.168 262.3l1.383-1.312 1.386 1.313-1.386 1.312zm0 0M247.18 262.3l1.382-1.312 1.387 1.313-1.387 1.312zm0 0M250.191 262.3l1.383-1.312 1.383 1.313-1.383 1.312zm0 0M253.2 262.3l1.386-1.312 1.383 1.313-1.383 1.312zm0 0M256.21 262.3l1.388-1.312 1.382 1.313-1.382 1.312zm0 0M259.223 262.3l1.382-1.312 1.387 1.313-1.387 1.312zm0 0M262.234 262.3l1.383-1.312 1.387 1.313-1.387 1.312zm0 0M265.246 262.3l1.383-1.312 1.383 1.313-1.383 1.312zm0 0M268.254 262.3l1.387-1.312 1.382 1.313-1.382 1.312zm0 0M271.266 262.3l1.382-1.312 1.387 1.313-1.387 1.312zm0 0M274.277 262.3l1.383-1.312 1.387 1.313-1.387 1.312zm0 0M277.29 262.3l1.382-1.312 1.383 1.313-1.383 1.312zm0 0M280.297 262.3l1.387-1.312 1.382 1.313-1.382 1.312zm0 0M283.309 262.3l1.386-1.312 1.383 1.313-1.383 1.312zm0 0M286.32 262.3l1.383-1.312 1.387 1.313-1.387 1.312zm0 0M289.332 262.3l1.383-1.312 1.387 1.313-1.387 1.312zm0 0M292.344 262.3l1.383-1.312 1.382 1.313-1.382 1.312zm0 0M295.352 262.3l1.386-1.312 1.383 1.313-1.383 1.312zm0 0M298.363 262.3l1.387-1.312 1.383 1.313-1.383 1.312zm0 0M301.375 262.3l1.383-1.312 1.387 1.313-1.387 1.312zm0 0M304.387 262.3l1.383-1.312 1.382 1.313-1.382 1.312zm0 0M307.395 262.3l1.386-1.312 1.383 1.313-1.383 1.312zm0 0M310.406 262.3l1.387-1.312 1.383 1.313-1.383 1.312zm0 0M313.418 262.3l1.383-1.312 1.386 1.313-1.386 1.312zm0 0M316.43 262.3l1.382-1.312 1.387 1.313-1.387 1.312zm0 0M319.441 262.3l1.383-1.312 1.383 1.313-1.383 1.312zm0 0M322.45 262.3l1.386-1.312 1.383 1.313-1.383 1.312zm0 0M325.46 262.3l1.388-1.312 1.382 1.313-1.382 1.312zm0 0M328.473 262.3l1.382-1.312 1.387 1.313-1.387 1.312zm0 0M331.484 262.3l1.383-1.312 1.383 1.313-1.383 1.312zm0 0M334.492 262.3l1.387-1.312 1.383 1.313-1.383 1.312zm0 0M337.504 262.3l1.387-1.312 1.382 1.313-1.382 1.312zm0 0M340.516 262.3l1.382-1.312 1.387 1.313-1.387 1.312zm0 0M343.527 262.3l1.383-1.312 1.387 1.313-1.387 1.312zm0 0M346.54 262.3l1.382-1.312 1.383 1.313-1.383 1.312zm0 0M349.547 262.3l1.387-1.312 1.382 1.313-1.382 1.312zm0 0M352.559 262.3l1.386-1.312 1.383 1.313-1.383 1.312zm0 0M355.57 262.3l1.383-1.312 1.387 1.313-1.387 1.312zm0 0M358.582 262.3l1.383-1.312 1.383 1.313-1.383 1.312zm0 0M361.59 262.3l1.387-1.312 1.382 1.313-1.382 1.312zm0 0M364.602 262.3l1.386-1.312 1.383 1.313-1.383 1.312zm0 0M367.613 262.3l1.383-1.312 1.387 1.313-1.387 1.312zm0 0M370.625 262.3l1.383-1.312 1.387 1.313-1.387 1.312zm0 0M373.637 262.3l1.383-1.312 1.382 1.313-1.382 1.312zm0 0M376.645 262.3l1.386-1.312 1.383 1.313-1.383 1.312zm0 0M379.656 262.3l1.387-1.312 1.383 1.313-1.383 1.312zm0 0M382.668 262.3l1.383-1.312 1.386 1.313-1.386 1.312zm0 0M385.68 262.3l1.382-1.312 1.383 1.313-1.383 1.312zm0 0M388.687 262.3l1.387-1.312 1.383 1.313-1.383 1.312zm0 0M391.7 262.3l1.386-1.312 1.383 1.313-1.383 1.312zm0 0M394.71 262.3l1.384-1.312 1.386 1.313-1.386 1.312zm0 0M397.723 262.3l1.382-1.312 1.387 1.313-1.387 1.312zm0 0M400.734 262.3l1.383-1.312 1.383 1.313-1.383 1.312zm0 0M403.742 262.3l1.387-1.312 1.383 1.313-1.383 1.312zm0 0M406.754 262.3l1.387-1.312 1.382 1.313-1.382 1.312zm0 0M409.766 262.3l1.382-1.312 1.387 1.313-1.387 1.312zm0 0M412.777 262.3l1.383-1.312 1.383 1.313-1.383 1.312zm0 0M415.785 262.3l1.387-1.312 1.383 1.313-1.383 1.312zm0 0M418.797 262.3l1.387-1.312 1.382 1.313-1.382 1.312zm0 0M421.809 262.3l1.382-1.312 1.387 1.313-1.387 1.312zm0 0M424.82 262.3l1.383-1.312 1.387 1.313-1.387 1.312zm0 0M427.832 262.3l1.383-1.312 1.383 1.313-1.383 1.312zm0 0M430.84 262.3l1.387-1.312 1.382 1.313-1.382 1.312zm0 0M433.852 262.3l1.386-1.312 1.383 1.313-1.383 1.312zm0 0M436.863 262.3l1.383-1.312 1.387 1.313-1.387 1.312zm0 0M439.875 262.3l1.383-1.312 1.383 1.313-1.383 1.312zm0 0M442.887 262.3l1.383-1.312 1.382 1.313-1.382 1.312zm0 0M445.895 262.3l1.386-1.312 1.383 1.313-1.383 1.312zm0 0M448.906 262.3l1.383-1.312 1.387 1.313-1.387 1.312zm0 0M451.918 262.3l1.383-1.312 1.386 1.313-1.386 1.312zm0 0M454.93 262.3l1.383-1.312 1.382 1.313-1.382 1.312zm0 0M457.937 262.3l1.387-1.312 1.383 1.313-1.383 1.312zm0 0M460.95 262.3l1.386-1.312 1.383 1.313-1.383 1.312zm0 0M463.96 262.3l1.384-1.312 1.386 1.313-1.386 1.312zm0 0M466.973 262.3l1.382-1.312 1.387 1.313-1.387 1.312zm0 0M469.984 262.3l1.383-1.312 1.383 1.313-1.383 1.312zm0 0M472.992 262.3l1.387-1.312 1.383 1.313-1.383 1.312zm0 0M476.004 262.3l1.383-1.312 1.386 1.313-1.386 1.312zm0 0" fill="none" stroke-width=".2696733" stroke="#726e94" stroke-miterlimit="300"/><g clip-path="url(#bx)"><path d="M479.016 262.3l1.382-1.312 1.387 1.313-1.387 1.312zm0 0" fill="none" stroke-width=".2696733" stroke="#726e94" stroke-miterlimit="300"/></g><g clip-path="url(#by)"><path d="M482.027 262.3l1.383-1.312 1.383 1.313-1.383 1.312zm0 0" fill="none" stroke-width=".2696733" stroke="#726e94" stroke-miterlimit="300"/></g><g clip-path="url(#bz)"><path d="M485.035 262.3l1.387-1.312 1.383 1.313-1.383 1.312zm0 0" fill="none" stroke-width=".2696733" stroke="#726e94" stroke-miterlimit="300"/></g><g clip-path="url(#bA)"><path d="M488.047 262.3l1.387-1.312 1.382 1.313-1.382 1.312zm0 0" fill="none" stroke-width=".2696733" stroke="#726e94" stroke-miterlimit="300"/></g><g clip-path="url(#bB)"><path d="M491.059 262.3l1.382-1.312 1.387 1.313-1.387 1.312zm0 0" fill="none" stroke-width=".2696733" stroke="#726e94" stroke-miterlimit="300"/></g><g clip-path="url(#bC)"><path d="M494.07 262.3l1.383-1.312 1.387 1.313-1.387 1.312zm0 0" fill="none" stroke-width=".2696733" stroke="#726e94" stroke-miterlimit="300"/></g><g clip-path="url(#bD)"><path d="M497.082 262.3l1.383-1.312 1.383 1.313-1.383 1.312zm0 0" fill="none" stroke-width=".2696733" stroke="#726e94" stroke-miterlimit="300"/></g><g clip-path="url(#bE)"><path d="M500.09 262.3l1.387-1.312 1.382 1.313-1.382 1.312zm0 0" fill="none" stroke-width=".2696733" stroke="#726e94" stroke-miterlimit="300"/></g><g clip-path="url(#bF)"><path d="M503.102 262.3l1.382-1.312 1.387 1.313-1.387 1.312zm0 0" fill="none" stroke-width=".2696733" stroke="#726e94" stroke-miterlimit="300"/></g><g clip-path="url(#bG)"><path d="M506.113 262.3l1.383-1.312 1.387 1.313-1.387 1.312zm0 0" fill="none" stroke-width=".2696733" stroke="#726e94" stroke-miterlimit="300"/></g><g clip-path="url(#bH)"><path d="M509.125 262.3l1.383-1.312 1.383 1.313-1.383 1.312zm0 0" fill="none" stroke-width=".2696733" stroke="#726e94" stroke-miterlimit="300"/></g><g clip-path="url(#bI)"><path d="M512.133 262.3l1.387-1.312 1.382 1.313-1.382 1.312zm0 0" fill="none" stroke-width=".2696733" stroke="#726e94" stroke-miterlimit="300"/></g><g clip-path="url(#bJ)"><path d="M515.145 262.3l1.386-1.312 1.383 1.313-1.383 1.312zm0 0" fill="none" stroke-width=".2696733" stroke="#726e94" stroke-miterlimit="300"/></g><g fill="#231f20"><use xlink:href="#bK" x="459.558" y="213.768"/><use xlink:href="#bL" x="470.012" y="213.768"/><use xlink:href="#bM" x="480.465" y="213.768"/><use xlink:href="#bN" x="490.919" y="213.768"/></g><g fill="#231f20"><use xlink:href="#bO" x="494.325" y="213.768"/><use xlink:href="#bP" x="504.779" y="213.768"/><use xlink:href="#bQ" x="515.232" y="213.768"/></g><g fill="#231f20"><use xlink:href="#bR" x="459.258" y="229.184"/><use xlink:href="#bS" x="467.258" y="229.184"/><use xlink:href="#bT" x="475.259" y="229.184"/><use xlink:href="#bU" x="483.259" y="229.184"/><use xlink:href="#bV" x="491.259" y="229.184"/><use xlink:href="#bW" x="499.259" y="229.184"/><use xlink:href="#bX" x="507.26" y="229.184"/></g></svg>