<svg xmlns="http://www.w3.org/2000/svg" xmlns:xlink="http://www.w3.org/1999/xlink" width="793.701" height="1058.268" viewBox="0 0 595.276 793.701" version="1.2"><defs><symbol overflow="visible" id="a"><path d="M3.422-7.313a.124.124 0 0 0-.031-.078.119.119 0 0 0-.079-.062.133.133 0 0 0-.078 0 .589.589 0 0 0-.078.047l-1.844.828a.934.934 0 0 0-.218.078c-.086.043-.125.102-.125.172 0 .043.008.082.031.11a.143.143 0 0 0 .094.03c.05 0 .113-.015.187-.046.07-.028.133-.051.188-.063l.687-.312c.051-.02.102-.04.156-.063a.364.364 0 0 1 .172-.047c.07 0 .118.024.141.063.02.043.031.097.031.156v5.078c0 .367-.043.617-.125.75-.074.125-.316.188-.719.188-.25 0-.414.011-.484.03-.074.013-.11.052-.11.11 0 .063.016.106.048.125.027.024.082.032.156.032h3.094c.058 0 .109-.008.14-.032.028-.02.047-.054.047-.11 0-.058-.02-.1-.047-.124a.278.278 0 0 0-.14-.031h-.329c-.375 0-.601-.079-.671-.235-.063-.164-.094-.41-.094-.734zm0 0"/></symbol><symbol overflow="visible" id="b"><path d="M1.875-1.047h-.203c-.117 0-.172-.02-.172-.062 0-.04.031-.102.094-.188.058-.09.11-.156.14-.187L3.656-3.36c.34-.301.66-.633.953-1 .29-.371.438-.805.438-1.297 0-.559-.227-1-.672-1.313a2.416 2.416 0 0 0-1.453-.484c-.375 0-.723.066-1.031.187-.313.125-.598.34-.844.641a6.377 6.377 0 0 1-.219.328c-.117.168-.172.293-.172.375 0 .031.008.059.031.078.02.024.047.032.079.032.05 0 .093-.024.125-.079.039-.05.07-.093.093-.125.153-.3.375-.55.657-.75.277-.207.597-.312.953-.312.445 0 .812.144 1.094.422.277.281.421.644.421 1.078 0 .555-.23 1.121-.687 1.703-.45.574-.852 1.059-1.203 1.453L.703-.594a.789.789 0 0 1-.094.156.3.3 0 0 0-.062.157c0 .074.047.11.14.11.09-.009.165-.016.22-.016h3.968a.406.406 0 0 0 .188-.032c.039-.027.062-.082.062-.156v-1.328-.156c0-.059-.043-.094-.125-.094-.063 0-.102.035-.11.094-.011.054-.023.105-.03.156-.032.293-.114.476-.235.547-.125.074-.336.11-.625.11zm0 0"/></symbol><symbol overflow="visible" id="c"><path d="M6.844-2.688l-5.219-3.14V.453zm-.61 0L1.922-.108v-5.157zm0 0"/></symbol><symbol overflow="visible" id="d"><path d="M3 .438v-6.391h-.453a1.092 1.092 0 0 1-.14.469c-.087.148-.184.27-.298.359-.168.117-.332.2-.484.25-.156.043-.32.063-.484.063v.484h1.265V.438zm0 0"/></symbol><symbol overflow="visible" id="e"><path d="M4.469-5.875H.375v.531h3.453a5.696 5.696 0 0 0-.312.485c-.125.199-.27.43-.422.687-.156.262-.317.54-.469.828-.156.281-.293.551-.406.797-.156.324-.29.637-.39.938a7.18 7.18 0 0 0-.25.828 7.798 7.798 0 0 0-.173.719 3.574 3.574 0 0 0-.047.515h.735c0-.168.02-.371.062-.61.04-.238.094-.491.156-.765.07-.27.16-.547.266-.828a12.576 12.576 0 0 1 .734-1.688c.145-.277.29-.546.438-.796.145-.239.281-.457.406-.657.133-.195.239-.343.313-.437zm0 0"/></symbol><symbol overflow="visible" id="f"><path d="M1.484.969V0H.5v.969zm0 0"/></symbol><symbol overflow="visible" id="g"><path d="M2.469-6.078c-.367 0-.692.086-.969.25a1.91 1.91 0 0 0-.703.687 3.249 3.249 0 0 0-.422 1.047 5.92 5.92 0 0 0-.14 1.328c0 .493.046.942.14 1.344.09.406.234.758.422 1.047.183.305.422.531.703.688.277.164.602.25.969.25.351 0 .672-.086.953-.25.277-.157.52-.383.719-.688.183-.29.328-.64.421-1.047.102-.402.157-.851.157-1.344a5.48 5.48 0 0 0-.157-1.328 3.435 3.435 0 0 0-.421-1.047c-.2-.3-.442-.53-.72-.687a1.866 1.866 0 0 0-.952-.25zm0 6.094a1.17 1.17 0 0 1-.688-.204 1.812 1.812 0 0 1-.484-.593A2.78 2.78 0 0 1 1-1.656a6.152 6.152 0 0 1-.094-1.11c0-.382.031-.742.094-1.078.059-.34.16-.64.297-.89.133-.246.297-.442.484-.579.196-.144.426-.218.688-.218.246 0 .472.074.672.218.195.137.359.333.484.579.133.25.234.55.297.89a5.478 5.478 0 0 1 0 2.188 2.992 2.992 0 0 1-.297.875c-.125.25-.29.449-.484.594-.2.136-.426.203-.672.203zm0 0"/></symbol><symbol overflow="visible" id="h"><path d="M2.453-6.125a1.93 1.93 0 0 0-.812.172c-.25.105-.465.254-.641.437a2.19 2.19 0 0 0-.453.672A2.235 2.235 0 0 0 .39-4c-.012.293.023.57.109.828.09.262.219.496.375.703a1.928 1.928 0 0 0 1.39.703c.395.032.743-.035 1.047-.203.301-.176.54-.398.72-.672.007.18.003.418-.016.72-.024.292-.09.581-.204.859a2.843 2.843 0 0 1-.5.812c-.199.21-.492.313-.874.313-.22 0-.415-.036-.579-.094-.156-.07-.3-.164-.421-.281a1.33 1.33 0 0 1-.282-.391A1.6 1.6 0 0 1 1-1.156H.422c.02.218.082.441.187.656.102.21.243.398.422.563.164.164.364.3.594.406.238.101.5.148.781.14.489-.011.899-.16 1.235-.437.332-.27.593-.656.78-1.156.09-.246.161-.532.204-.844.05-.32.078-.649.078-.984a6.026 6.026 0 0 0-.047-.938 4.662 4.662 0 0 0-.14-.766 2.592 2.592 0 0 0-.766-1.14 1.917 1.917 0 0 0-1.297-.469zm.016 3.813c-.43 0-.778-.149-1.047-.454-.274-.308-.406-.71-.406-1.203 0-.465.132-.851.406-1.156.27-.3.617-.453 1.047-.453.433 0 .789.16 1.062.469.27.304.406.683.406 1.14 0 .48-.136.88-.406 1.188a1.348 1.348 0 0 1-1.062.469zm0 0"/></symbol><symbol overflow="visible" id="j"><path d="M1.688 1.406v-8.203H1.14v8.203zm0 0"/></symbol><symbol overflow="visible" id="k"><path d="M4.64-.75a3.015 3.015 0 0 1-.546-.438c-.2-.195-.403-.46-.61-.796a3.315 3.315 0 0 1-.5-1.172 5.777 5.777 0 0 1-.156-1.297v-.656h1.453v-.547H.671v.547h1.47v.656A5.2 5.2 0 0 1 2-3.266c-.094.387-.23.758-.406 1.11A5.176 5.176 0 0 1 .187-.5l.547.406c.184-.152.383-.351.594-.594.207-.238.395-.484.563-.734.152-.27.285-.516.39-.734.102-.215.172-.399.203-.547.028.148.102.351.22.61.112.25.257.488.437.702.183.262.367.489.546.672.184.18.352.317.5.406zM5.89.89v-7.343h-.64v2.766H3.89v.578h1.36v4zm1.626.36v-7.89h-.657v7.89zm0 0"/></symbol><symbol overflow="visible" id="l"><path d="M4.531.375v-.5h-3.39c.05-.27.156-.535.312-.797a2.19 2.19 0 0 1 .656-.656l1.032-.719c.144-.113.289-.226.437-.344.152-.12.297-.257.422-.406a2.04 2.04 0 0 0 .438-1.187c.007-.258-.028-.5-.11-.72a1.707 1.707 0 0 0-.375-.593 2.076 2.076 0 0 0-.64-.422 2.239 2.239 0 0 0-.844-.156 2.08 2.08 0 0 0-.875.172c-.25.117-.457.27-.61.453a1.905 1.905 0 0 0-.375.625C.535-4.645.5-4.41.5-4.172h.563c0-.183.023-.363.078-.531.05-.164.14-.313.265-.438.102-.12.242-.222.422-.296.176-.083.379-.125.61-.125.433 0 .773.128 1.015.375.246.25.367.57.36.953a1.29 1.29 0 0 1-.297.812c-.18.211-.395.402-.641.578l-1.047.735a3.66 3.66 0 0 0-.734.656 2.25 2.25 0 0 0-.39.625c-.095.21-.161.414-.188.61C.484-.02.469.175.469.374zm0 0"/></symbol><symbol overflow="visible" id="m"><path d="M4.5-5.797v-.562H1.984v.562zm1.11 1.25v-.562H.905v.562zM7.218 1.25v-7.89h-.657v7.89zM6.187-.25v-.563a6.179 6.179 0 0 1-.593.079c-.219.023-.446.039-.672.046-.23.024-.461.04-.688.047-.218.012-.425.016-.609.016v-.938c.488-.039.883-.18 1.188-.421.3-.239.453-.516.453-.829a.89.89 0 0 0-.157-.484c-.093-.164-.23-.3-.406-.406A2.368 2.368 0 0 0 4.063-4a2.796 2.796 0 0 0-.782-.11c-.293 0-.558.04-.797.11-.242.063-.449.16-.625.281-.168.117-.3.254-.39.406a.936.936 0 0 0-.14.485c0 .336.144.621.437.86.3.241.695.382 1.187.421v.938h-2.5v.562H3.25c.559-.02 1.11-.047 1.64-.078.528-.04.962-.082 1.298-.125zM4.625-2.813c0 .22-.129.399-.375.532-.25.136-.574.203-.969.203-.386 0-.707-.067-.953-.203-.25-.145-.375-.328-.375-.547 0-.207.125-.383.375-.531.246-.145.567-.22.953-.22.395 0 .719.075.969.22.246.148.375.332.375.546zm0 0"/></symbol><symbol overflow="visible" id="n"><path d="M4.734-3.125c0-.434-.05-.832-.14-1.188a3.056 3.056 0 0 0-.407-.921 1.837 1.837 0 0 0-.625-.579 1.667 1.667 0 0 0-.843-.218c-.313 0-.598.074-.844.218a1.95 1.95 0 0 0-.625.579c-.18.261-.316.57-.406.921-.094.356-.14.754-.14 1.188 0 .438.046.84.14 1.203.09.356.226.66.406.906.176.25.383.45.625.594.246.137.531.203.844.203.308 0 .594-.066.844-.203.246-.144.457-.344.624-.594.176-.257.313-.566.407-.921.09-.352.14-.75.14-1.188zM7.22 1.25v-7.89h-.657v7.89zM4.094-3.14c0 .324-.035.628-.094.906a2.778 2.778 0 0 1-.266.718A1.522 1.522 0 0 1 3.313-1a.988.988 0 0 1-.579.172A.995.995 0 0 1 2.141-1a1.447 1.447 0 0 1-.422-.5 2.54 2.54 0 0 1-.266-.734 4.138 4.138 0 0 1-.094-.907c0-.3.032-.586.094-.859.059-.277.149-.531.266-.75.113-.207.254-.367.422-.484a.978.978 0 0 1 .593-.188c.215 0 .41.067.579.188.164.117.304.277.421.484.114.219.204.473.266.75.059.273.094.559.094.86zm0 0"/></symbol><symbol overflow="visible" id="o"><path d="M5.484-.813c-.242-.12-.511-.312-.812-.562a3.882 3.882 0 0 1-.797-.89A3.9 3.9 0 0 1 3.297-3.5a5.556 5.556 0 0 1-.156-1.313v-1.375h-.688v1.375c0 .438-.058.887-.172 1.344-.117.45-.289.856-.515 1.219-.23.344-.504.664-.813.953a4.563 4.563 0 0 1-.89.688l.53.453a4.25 4.25 0 0 0 .673-.516c.246-.226.476-.473.687-.734a5.4 5.4 0 0 0 .578-.907c.133-.277.223-.503.266-.671.05.168.144.394.281.671.145.274.336.555.578.844.227.282.469.52.719.703.258.188.473.336.64.438zM6.891-6.64h-.657V1.25h.657v-4.11h1.265v-.578H6.891zm0 0"/></symbol><symbol overflow="visible" id="p"><path d="M1.14-6.25L2.439-.89l1.25-5.36h.89L2.891.234h-.938L.234-6.25zm4.61 0V.234h-.828V-6.25zm1.563 0V.234h-.829V-6.25zm0 0"/></symbol><symbol overflow="visible" id="q"><path d="M.75.047v1.016h1.031V.046zm0 0"/></symbol><symbol overflow="visible" id="s"><path d="M7.422 1.36v-7.985h-.734v2.938h-.954V-6.5H5V.984h.734v-3.953h.954V1.36zM2.938-4.626v-.813H4.28v-.625H.813v.625h1.359v.688c0 .48-.043.926-.125 1.328a4.915 4.915 0 0 1-.344 1.125 3.87 3.87 0 0 1-.64.938c-.25.28-.551.539-.891.765.05.043.11.086.172.125.07.031.133.067.187.094a17.48 17.48 0 0 0 .328.234c.176-.12.352-.28.532-.468.175-.196.347-.407.515-.625.145-.196.274-.407.39-.625a3.29 3.29 0 0 0 .25-.672c.052.219.13.43.235.625a4.693 4.693 0 0 0 .844 1.078c.164.156.332.289.5.39a1 1 0 0 1 .266-.25l.125-.125.156-.125a3.154 3.154 0 0 1-.797-.656 3.326 3.326 0 0 1-.547-.86 5.18 5.18 0 0 1-.297-.983 7.006 7.006 0 0 1-.094-1.188zm0 0"/></symbol><symbol overflow="visible" id="t"><path d="M6.078-6.625V-.75h.75v-3.266h1.11v-.64h-1.11v-1.969zm-.344 3.234a5.189 5.189 0 0 1-.562.094c-.242.031-.496.067-.766.094a19.67 19.67 0 0 1-.812.078 8.224 8.224 0 0 1-.703.031l-1.313.016v-2.547H4.61v-.64H.844v3.843H2.25c.227-.008.422-.015.578-.015.258-.008.531-.024.813-.047.277-.02.55-.047.812-.079.258-.027.5-.062.719-.093a3.59 3.59 0 0 0 .562-.11zm1.344 4.594v-.64H2.422v-2.016h-.75v2.656zm0 0"/></symbol><symbol overflow="visible" id="u"><path d="M7.203 1.36v-7.985h-.75v7.984zM1.031-4.376a1.965 1.965 0 0 0 .578 1.406c.196.188.426.336.688.438.258.105.547.156.86.156.3 0 .581-.05.843-.156.258-.102.484-.25.672-.438a1.92 1.92 0 0 0 .437-.625c.114-.246.172-.508.172-.781 0-.27-.058-.523-.172-.766a2.006 2.006 0 0 0-.437-.625A2.182 2.182 0 0 0 4-6.187a2.102 2.102 0 0 0-.844-.172c-.312 0-.601.058-.86.171a2.308 2.308 0 0 0-.687.422 1.961 1.961 0 0 0-.578 1.391zm.735 0c0-.371.117-.691.359-.953.246-.27.594-.406 1.031-.406.426 0 .758.136 1 .406.239.262.36.582.36.953 0 .375-.121.7-.36.969-.242.261-.574.39-1 .39-.437 0-.785-.129-1.031-.39a1.399 1.399 0 0 1-.36-.969zm4.406 3.016a7.804 7.804 0 0 1-.688.093c-.28.032-.586.059-.906.079-.324.023-.637.042-.937.062a8.814 8.814 0 0 1-.688.031 4.92 4.92 0 0 1-.515.016H.609v.656s.086.008.266.016h1.266c.214 0 .367-.004.453-.016.363 0 .722-.008 1.078-.031.351-.02.687-.047 1-.078.308-.028.594-.063.844-.094a9.75 9.75 0 0 0 .656-.094zm0 0"/></symbol><symbol overflow="visible" id="v"><path d="M7.438-4.797H6.046v-.875l.047-.844-.735-.109.063.953v.875h-.844v.563h.844c0 .355-.012.726-.031 1.109-.024.375-.07.754-.141 1.125-.074.375-.18.742-.313 1.094a4.201 4.201 0 0 1-.53.953V-.11l-1.548.093v-.562h1.5v-.485h-1.5v-.421h1.407V-3.97H2.859v-.515h1.547v-.485H2.86v-.687c.207-.028.446-.07.72-.125.269-.059.53-.13.78-.203l-.234-.485c-.25.086-.535.16-.844.219A14.474 14.474 0 0 1 1.437-6a5.587 5.587 0 0 1-.75.016l.204.5c.175 0 .382-.004.625-.016.238-.02.484-.047.734-.078v.61H.453v.484H2.25v.515H.875v2.485H2.25v.421H.734v.485H2.25v.61L.469.108l.14.563L4.094.39C4.062.418 4.027.445 4 .469c-.023.027-.05.062-.078.094a.781.781 0 0 1-.11.078 1.062 1.062 0 0 0-.093.093l.453.5c.402-.406.734-.82.984-1.234.246-.426.43-.86.547-1.297.121-.465.203-.941.234-1.422.028-.488.055-.992.079-1.515h.828v2.577c0 .126-.008.302-.016.516 0 .211-.02.426-.047.641-.023.219-.07.418-.14.594-.063.183-.16.3-.282.344-.125.05-.254.078-.375.078-.117 0-.285-.02-.5-.047l.25.687c.153 0 .313-.02.47-.047.163-.03.304-.074.421-.125a.841.841 0 0 0 .469-.406c.113-.2.191-.426.234-.672.04-.238.063-.476.063-.719.007-.246.02-.468.03-.656v-1.656c.009-.55.016-1.11.016-1.672zm-3.75 1.281v.563h-.829v-.563zm0 1.016v.578h-.829V-2.5zM2.266-3.516v.563h-.844v-.563zm0 1.016v.578h-.844V-2.5zm0 0"/></symbol><symbol overflow="visible" id="w"><path d="M.61-3.188h3.5v-.5H2.561v-.656H3.72v-.468H2.563v-.641h1.406v-.469H2.563l.109-.625-.75-.078.062.703H.672v.469h1.312v.64H.844v.47h1.14v.655H.61zm6.796 1.22h.407v-.516h-.407v-1.297H4.328v.5h1.219v.797H3.984v.515h1.563v.735H4.313v.515h1.234v.985c0 .039-.008.082-.016.125a.23.23 0 0 1-.062.078.2.2 0 0 1-.094.062.652.652 0 0 1-.313.047 3.749 3.749 0 0 1-.375-.062c.02.082.047.16.079.234.027.07.05.14.062.203.02.059.035.11.047.14.02.04.035.063.047.063.121.008.258.008.406 0 .152 0 .3-.035.438-.093a.503.503 0 0 0 .25-.282.813.813 0 0 0 .078-.312V-.72h1.312zM3.72-2.642H.859v3.875h.532V-.469h1.78v.563c0 .027-.007.066-.015.11v.14a.462.462 0 0 1-.047.11.2.2 0 0 1-.062.093.743.743 0 0 1-.14.047.424.424 0 0 1-.141 0 .72.72 0 0 1-.188-.031A4.682 4.682 0 0 1 2.36.515l.204.64c.144.008.273.008.39 0a.9.9 0 0 0 .375-.093.503.503 0 0 0 .297-.266.997.997 0 0 0 .094-.422zm3.125-.64v.797h-.75v-.797zm0 1.312v.735h-.75v-.735zM3.172-2.14v1.188h-.61v-1.188zM2-2.14v1.188h-.61v-1.188zm5-1.953c.05-.07.098-.14.14-.203.04-.07.079-.156.11-.25.04-.082.082-.18.125-.297.05-.113.113-.25.188-.406L7-5.484a4.03 4.03 0 0 0-.11.328c-.03.093-.066.191-.093.281a14.02 14.02 0 0 1-.125.297 1.894 1.894 0 0 1-.156.25zm.266-2.312c-.2.086-.434.152-.704.203a7.666 7.666 0 0 1-.812.125c-.281.023-.57.039-.86.047-.28 0-.542-.004-.78-.016l.14.5c.57 0 1.16-.02 1.766-.062a6.152 6.152 0 0 0 1.64-.313zM6.328-4.36l-.125-.235c-.031-.082-.07-.172-.11-.265a5.174 5.174 0 0 0-.109-.282 7.438 7.438 0 0 1-.125-.312l-.5.25c.04.105.079.207.11.297.027.093.062.183.093.265.028.094.067.192.11.282.039.086.086.168.14.25zm-1.11 0a.94.94 0 0 1-.14-.204 1.458 1.458 0 0 1-.11-.265 3.37 3.37 0 0 1-.124-.266l-.125-.265-.469.265c.027.094.066.192.11.282.038.093.081.19.124.28a1.263 1.263 0 0 0 .266.484zm0 0"/></symbol><symbol overflow="visible" id="x"><path d="M3.344-3.938h1.469l.03.547H3.517v.422h1.328v.406H3.609v1.657h.985c-.157.23-.324.433-.5.61a2.659 2.659 0 0 1-.64.452l.343.438c.238-.149.437-.305.594-.469.152-.164.304-.36.453-.578V1.03h.547V-.5c.12.156.27.32.437.484.164.164.317.301.453.407l.36-.36a2.665 2.665 0 0 1-.516-.422 6.03 6.03 0 0 1-.453-.515h1v-1.656H5.39v-.407h1.375v-.422h-1.36l.047-.484-.469-.047v-2.437H2.781v7.53h.563zm1.5 2.594h-.719v-.781h.719zM4.75-1.5a1.243 1.243 0 0 1-.063-.125c-.011-.05-.023-.098-.03-.14a1.243 1.243 0 0 1-.063-.126.684.684 0 0 1-.016-.156l-.328.11c.02.105.047.199.078.28.027.087.067.169.11.25zm1.406.156h-.765v-.781h.765zm-.484-.703a1.827 1.827 0 0 1-.094.281c-.031.086-.066.176-.094.266l.313.094c.02-.04.039-.082.062-.125a.686.686 0 0 0 .047-.125c.008-.04.02-.082.032-.125.019-.04.039-.094.062-.157zM4.453-4.39h-1.11v-.562h1.11zm0-.968h-1.11v-.579h1.11zm3.063-1.032H5.375v2.407h1.578V.328c0 .133-.02.219-.047.25-.031.04-.097.063-.187.063l-.61-.032.188.547h.125c.07 0 .148-.011.234-.031.09 0 .18-.008.266-.016a.72.72 0 0 0 .187-.046c.184-.075.301-.192.344-.344.04-.149.063-.32.063-.516zm-.563 1.97h-1v-.532h1zm0-.938h-1v-.61h1zM2.641-2.406a5.067 5.067 0 0 1-.204-.344c-.054-.09-.105-.18-.156-.266a1.165 1.165 0 0 1-.14-.234c-.043-.082-.098-.176-.157-.281l-.14.156v-.75h.718v-.516H1.86v-1.015l.079-.797-.72-.078.063.922v.968H.328v.516h.922a8.327 8.327 0 0 1-.375 1.469A6.87 6.87 0 0 1 .281-1.36L.766-1c.039-.102.082-.195.125-.281.05-.082.093-.164.125-.25.039-.082.078-.164.109-.25.04-.082.082-.172.125-.266V1.22h.594v-3.86c.027.063.054.121.078.172.027.043.062.09.094.14.02.056.046.106.078.157l.11.172zm0 0"/></symbol><symbol overflow="visible" id="y"><path d="M6.844-2.688l-5.219-3.14V.453zm-.61 0L1.922-.108v-5.157zm0 0"/></symbol><symbol overflow="visible" id="z"><path d="M4.531.375v-.5h-3.39c.05-.27.156-.535.312-.797a2.19 2.19 0 0 1 .656-.656l1.032-.719c.144-.113.289-.226.437-.344.152-.12.297-.257.422-.406a2.04 2.04 0 0 0 .438-1.187c.007-.258-.028-.5-.11-.72a1.707 1.707 0 0 0-.375-.593 2.076 2.076 0 0 0-.64-.422 2.239 2.239 0 0 0-.844-.156 2.08 2.08 0 0 0-.875.172c-.25.117-.457.27-.61.453a1.905 1.905 0 0 0-.375.625C.535-4.645.5-4.41.5-4.172h.563c0-.183.023-.363.078-.531.05-.164.14-.313.265-.438.102-.12.242-.222.422-.296.176-.083.379-.125.61-.125.433 0 .773.128 1.015.375.246.25.367.57.36.953a1.29 1.29 0 0 1-.297.812c-.18.211-.395.402-.641.578l-1.047.735a3.66 3.66 0 0 0-.734.656 2.25 2.25 0 0 0-.39.625c-.095.21-.161.414-.188.61C.484-.02.469.175.469.374zm0 0"/></symbol><symbol overflow="visible" id="A"><path d="M2.469-6.078c-.367 0-.692.086-.969.25a1.91 1.91 0 0 0-.703.687 3.249 3.249 0 0 0-.422 1.047 5.92 5.92 0 0 0-.14 1.328c0 .493.046.942.14 1.344.09.406.234.758.422 1.047.183.305.422.531.703.688.277.164.602.25.969.25.351 0 .672-.086.953-.25.277-.157.52-.383.719-.688.183-.29.328-.64.421-1.047.102-.402.157-.851.157-1.344a5.48 5.48 0 0 0-.157-1.328 3.435 3.435 0 0 0-.421-1.047c-.2-.3-.442-.53-.72-.687a1.866 1.866 0 0 0-.952-.25zm0 6.094a1.17 1.17 0 0 1-.688-.204 1.812 1.812 0 0 1-.484-.593A2.78 2.78 0 0 1 1-1.656a6.152 6.152 0 0 1-.094-1.11c0-.382.031-.742.094-1.078.059-.34.16-.64.297-.89.133-.246.297-.442.484-.579.196-.144.426-.218.688-.218.246 0 .472.074.672.218.195.137.359.333.484.579.133.25.234.55.297.89a5.478 5.478 0 0 1 0 2.188 2.992 2.992 0 0 1-.297.875c-.125.25-.29.449-.484.594-.2.136-.426.203-.672.203zm0 0"/></symbol><symbol overflow="visible" id="B"><path d="M1.484.969V0H.5v.969zm0 0"/></symbol><symbol overflow="visible" id="C"><path d="M3.61-2.969c.238-.144.445-.344.624-.594.184-.246.282-.53.282-.843a1.5 1.5 0 0 0-.157-.657 1.575 1.575 0 0 0-.421-.546A2 2 0 0 0 3.296-6c-.25-.09-.527-.14-.828-.14-.305 0-.582.05-.828.14-.25.094-.473.227-.657.39-.18.157-.32.34-.421.548a1.6 1.6 0 0 0-.141.656c0 .312.086.597.266.843.175.25.39.45.64.594a2.323 2.323 0 0 0-.797.703 1.585 1.585 0 0 0-.328.97c0 .26.05.51.156.75.114.23.274.433.485.609.195.175.437.312.719.406.277.101.582.156.906.156.332 0 .633-.055.906-.156.277-.094.52-.23.719-.406.195-.176.351-.38.468-.61a1.554 1.554 0 0 0-.156-1.719 2.397 2.397 0 0 0-.797-.703zm-1.141-.297c-.492 0-.852-.109-1.078-.328a1.133 1.133 0 0 1-.329-.812c0-.32.11-.598.329-.828.226-.227.586-.344 1.078-.344.457 0 .804.117 1.047.344.246.23.375.507.375.828 0 .312-.13.586-.375.812-.243.219-.59.328-1.047.328zm0 3.329c-.524 0-.93-.13-1.219-.391a1.297 1.297 0 0 1-.422-.969c0-.383.14-.707.422-.969.29-.257.695-.39 1.219-.39.508 0 .91.133 1.203.39.289.262.437.586.437.97 0 .374-.148.698-.437.968-.293.262-.695.39-1.203.39zm0 0"/></symbol><symbol overflow="visible" id="D"><path d="M3 .438v-6.391h-.453a1.092 1.092 0 0 1-.14.469c-.087.148-.184.27-.298.359-.168.117-.332.2-.484.25-.156.043-.32.063-.484.063v.484h1.265V.438zm0 0"/></symbol><symbol overflow="visible" id="F"><path d="M1.688 1.406v-8.203H1.14v8.203zm0 0"/></symbol><symbol overflow="visible" id="G"><path d="M4.672-.75a3.015 3.015 0 0 1-.547-.438A4.46 4.46 0 0 1 3.5-2a3.762 3.762 0 0 1-.484-1.156 5.777 5.777 0 0 1-.157-1.297v-.656h1.454v-.547H.703v.547h1.469v.656a5.2 5.2 0 0 1-.14 1.187c-.095.387-.231.758-.407 1.11-.2.367-.426.691-.672.969-.242.28-.48.511-.719.687l.532.406c.183-.152.382-.351.593-.594a5.325 5.325 0 0 0 .954-1.468c.101-.215.171-.399.203-.547.039.148.117.348.234.594.113.25.258.492.438.718.175.262.359.489.546.672.184.18.348.317.485.406zm2.86 2v-7.89H6.89v3.171H5.766v-3h-.641v7.36h.64v-3.75h1.126V1.25zm0 0"/></symbol><symbol overflow="visible" id="H"><path d="M5.61-2.672v-.547c-.137.024-.301.051-.485.078-.18.024-.371.043-.578.063a8.67 8.67 0 0 1-.64.047 11.7 11.7 0 0 1-.626.015l-1.875.032v-2.532h3.235v-.546H.75v3.625c.02 0 .11.007.266.015.152 0 .347-.004.578-.015h.734c.27 0 .52-.008.75-.032.508-.008.988-.035 1.438-.078.457-.039.82-.082 1.093-.125zM6.827-6.64h-.656v5.735h.656v-2.938H8v-.562H6.828zm.266 7.72V.53H2.25V-1.5h-.656v2.578zm0 0"/></symbol><symbol overflow="visible" id="I"><path d="M7.156-2.406v-4.235H6.5v1.797H4.531v-1.422h-.656v1.235H1.437v-1.235H.781v3.563h3.75v-1.578H6.5v1.875zm-.031 3.578v-3.063h-.656v.954H2.39v-.954h-.657v3.063zM3.875-3.25H1.437v-1.234h2.438zM6.469.625H2.39V-.406h4.078zm0 0"/></symbol><symbol overflow="visible" id="J"><path d="M2.719-6.375c-.313 0-.602.059-.86.172a2.093 2.093 0 0 0-.671.422 2.033 2.033 0 0 0-.438.64 1.938 1.938 0 0 0-.156.782 1.912 1.912 0 0 0 .594 1.406c.183.187.41.336.671.437.258.106.547.157.86.157.3 0 .582-.051.844-.157.257-.101.484-.25.671-.437a1.92 1.92 0 0 0 .438-.625c.113-.238.172-.5.172-.781 0-.278-.059-.54-.172-.782a2.17 2.17 0 0 0-.438-.64 2.182 2.182 0 0 0-.671-.422 2.102 2.102 0 0 0-.844-.172zM7.28-.906v-5.735h-.656v5.735zm.203 1.984V.531H2.516V-1.39h-.657v2.47zM2.72-5.782c.457 0 .804.145 1.047.423.246.273.375.605.375 1 0 .398-.13.73-.375 1-.243.261-.59.39-1.047.39-.461 0-.817-.129-1.063-.39a1.413 1.413 0 0 1-.375-1c0-.395.125-.727.375-1 .246-.278.602-.422 1.063-.422zm0 0"/></symbol><symbol overflow="visible" id="K"><path d="M4.625-.484v-5.157H.891v5.157zM7.094 1.25v-7.89h-.657v7.89zM3.969-1.047H1.547v-4.031h2.422zm0 0"/></symbol><symbol overflow="visible" id="L"><path d="M4.453-.578v-.547a3.5 3.5 0 0 1-.36.063c-.148.011-.304.023-.468.03-.18.024-.355.04-.531.048-.168.011-.32.015-.453.015l-1.25.016v-1.875h2.234V-5.75H.719v.563h2.25v1.796H.734v3l1.75-.015c.176 0 .36-.004.547-.016.196-.02.383-.035.563-.047.176-.02.336-.035.484-.047.152-.02.281-.039.375-.062zM7.25 1.25v-7.89h-.656v3.124h-1.11v-2.953h-.64v7.36h.64v-3.813h1.11V1.25zm0 0"/></symbol><symbol overflow="visible" id="M"><path d="M5.36-4.203c0-.258-.06-.504-.173-.734a1.815 1.815 0 0 0-.437-.61 1.837 1.837 0 0 0-.688-.422 2.367 2.367 0 0 0-.859-.156c-.312 0-.605.055-.875.156a1.805 1.805 0 0 0-.672.422 1.713 1.713 0 0 0-.437.61c-.106.23-.157.476-.157.734 0 .273.051.527.157.766.101.23.25.433.437.609.184.18.41.32.672.422.27.105.563.156.875.156.309 0 .598-.05.86-.156a2 2 0 0 0 .687-.422c.184-.176.332-.379.438-.61.113-.238.171-.492.171-.765zM7.374 1.25v-7.89h-.672v7.89zM6.391-.61v-.578a6.108 6.108 0 0 1-.641.079c-.25.023-.523.039-.813.046-.292.024-.597.04-.906.047-.312.012-.613.016-.89.016L.578-.984v.562L3.11-.438c.258 0 .551-.003.875-.015.32-.008.641-.024.954-.047.3-.008.582-.023.843-.047.27-.02.473-.039.61-.062zM4.67-4.202c0 .387-.132.715-.39.984-.25.262-.613.39-1.078.39-.469 0-.836-.128-1.094-.39a1.395 1.395 0 0 1-.375-.984c0-.363.125-.68.375-.953.258-.27.625-.407 1.094-.407.465 0 .828.137 1.078.407.258.273.39.59.39.953zm0 0"/></symbol><symbol overflow="visible" id="N"><path d="M4.188-6.078v-.516H1.624v.516zm1.187 1.187v-.515H.5v.515zm2.734 1.063v-.563H6.953v-2.25h-.656v5.047h.656v-2.234zM2.938-1.844c.632 0 1.132-.125 1.5-.375.363-.246.546-.554.546-.922 0-.363-.183-.664-.546-.906-.356-.246-.856-.375-1.5-.375-.637 0-1.145.129-1.516.375-.367.242-.547.543-.547.906 0 .368.18.676.547.922.371.25.879.375 1.516.375zM6.952 1.25v-2.344H1.422v.532h4.875V1.25zM4.297-3.14c0 .23-.117.417-.344.562-.23.148-.57.219-1.015.219-.438 0-.774-.07-1-.22-.231-.144-.344-.331-.344-.562 0-.214.113-.398.343-.546.227-.153.563-.235 1-.235.446 0 .786.074 1.016.219.227.148.344.336.344.562zm0 0"/></symbol><symbol overflow="visible" id="O"><path d="M7.453 1.078V.531H2.47v-1.953h-.656v2.5zM7.25-.906v-5.735h-.656v1.063H4.437a2.201 2.201 0 0 0-.734-.563 2.105 2.105 0 0 0-.984-.234c-.313 0-.602.055-.86.156a2.093 2.093 0 0 0-.671.422 1.885 1.885 0 0 0-.594 1.39c0 .274.05.528.156.766.102.243.25.45.438.625.183.168.41.305.671.407.258.105.547.156.86.156.383 0 .734-.078 1.047-.235.308-.164.562-.382.75-.656h2.078v2.438zm-.656-3H4.75c.02-.07.035-.149.047-.235.02-.09.031-.18.031-.265a1.54 1.54 0 0 0-.031-.313 1.818 1.818 0 0 0-.063-.297h1.86zM2.719-5.781c.457 0 .804.136 1.047.406.246.262.375.586.375.969 0 .375-.13.699-.375.968-.243.262-.59.391-1.047.391-.461 0-.817-.129-1.063-.39a1.377 1.377 0 0 1-.375-.97c0-.382.125-.706.375-.968.246-.27.602-.406 1.063-.406zm0 0"/></symbol><symbol overflow="visible" id="P"><path d="M7.938-2.203v-.563H6.5c0-.05.008-.129.031-.234.028-.102.055-.227.078-.375a22.117 22.117 0 0 0 .156-.86c.02-.163.048-.347.079-.546l.078-.563c.027-.176.05-.332.062-.468.008-.145.02-.258.032-.344H1.078v.562h5.188c-.024.23-.055.489-.094.766-.043.273-.086.543-.125.812-.043.274-.09.524-.14.75-.044.22-.075.387-.095.5H.173v.563h3.375V1.25h.656v-3.453zm0 0"/></symbol><symbol overflow="visible" id="Q"><path d="M4.172-2.922c.226-.113.426-.312.594-.594.175-.277.238-.625.187-1.03a1.53 1.53 0 0 0-.531-.954c-.305-.258-.73-.39-1.281-.39H.562V.436h2.516c.621 0 1.129-.152 1.516-.453.383-.3.597-.707.64-1.218a1.663 1.663 0 0 0-.093-.641 1.489 1.489 0 0 0-.266-.5 1.612 1.612 0 0 0-.375-.344 2.303 2.303 0 0 0-.328-.203zM3.109-3.14H1.156v-2.218h1.969c.402 0 .71.113.922.328.215.21.328.46.328.75 0 .312-.105.586-.313.812-.21.219-.527.328-.953.328zm.079 3.032H1.155v-2.5h2.047c.402 0 .742.113 1.016.328.27.21.398.496.39.86-.011.405-.144.73-.39.968-.25.23-.598.344-1.032.344zm0 0"/></symbol><symbol overflow="visible" id="R"><path d="M5.703-4.063a2.732 2.732 0 0 0-.25-.625 2.902 2.902 0 0 0-.516-.656 2.826 2.826 0 0 0-.78-.5 2.593 2.593 0 0 0-1.048-.203c-.437 0-.836.086-1.187.25a2.424 2.424 0 0 0-.875.672c-.242.293-.43.645-.563 1.047a4.56 4.56 0 0 0-.187 1.344c0 .492.062.945.187 1.359.133.406.32.758.563 1.047.238.293.531.516.875.672.351.152.75.234 1.187.234.395 0 .743-.07 1.047-.203.309-.137.57-.309.782-.516.207-.207.367-.425.484-.656.121-.238.21-.46.266-.672h-.641c-.043.168-.117.34-.219.516-.094.18-.223.348-.375.5a1.99 1.99 0 0 1-.578.344 1.94 1.94 0 0 1-.766.14 1.914 1.914 0 0 1-1.578-.765 2.745 2.745 0 0 1-.437-.875 3.802 3.802 0 0 1-.157-1.125c0-.403.051-.774.157-1.11.101-.34.25-.633.437-.875.176-.238.395-.426.657-.562.269-.133.57-.203.906-.203.289 0 .547.05.765.14.227.094.422.211.579.344.152.137.285.29.39.453.102.168.18.332.234.484zm0 0"/></symbol><symbol overflow="visible" id="S"><path d="M2.453-6.125a1.93 1.93 0 0 0-.812.172c-.25.105-.465.254-.641.437a2.19 2.19 0 0 0-.453.672A2.235 2.235 0 0 0 .39-4c-.012.293.023.57.109.828.09.262.219.496.375.703a1.928 1.928 0 0 0 1.39.703c.395.032.743-.035 1.047-.203.301-.176.54-.398.72-.672.007.18.003.418-.016.72-.024.292-.09.581-.204.859a2.843 2.843 0 0 1-.5.812c-.199.21-.492.313-.874.313-.22 0-.415-.036-.579-.094-.156-.07-.3-.164-.421-.281a1.33 1.33 0 0 1-.282-.391A1.6 1.6 0 0 1 1-1.156H.422c.02.218.082.441.187.656.102.21.243.398.422.563.164.164.364.3.594.406.238.101.5.148.781.14.489-.011.899-.16 1.235-.437.332-.27.593-.656.78-1.156.09-.246.161-.532.204-.844.05-.32.078-.649.078-.984a6.026 6.026 0 0 0-.047-.938 4.662 4.662 0 0 0-.14-.766 2.592 2.592 0 0 0-.766-1.14 1.917 1.917 0 0 0-1.297-.469zm.016 3.813c-.43 0-.778-.149-1.047-.454-.274-.308-.406-.71-.406-1.203 0-.465.132-.851.406-1.156.27-.3.617-.453 1.047-.453.433 0 .789.16 1.062.469.27.304.406.683.406 1.14 0 .48-.136.88-.406 1.188a1.348 1.348 0 0 1-1.062.469zm0 0"/></symbol><symbol overflow="visible" id="T"><path d="M5.36-2.313v-.546H.171v.546zm0 0"/></symbol><symbol overflow="visible" id="U"><path d="M7.031-4.813c0-.238-.074-.46-.218-.671a1.902 1.902 0 0 0-.579-.547 3.714 3.714 0 0 0-.953-.344 5.181 5.181 0 0 0-1.234-.14c-.461 0-.879.05-1.25.14-.367.086-.676.2-.922.344a1.76 1.76 0 0 0-.594.547 1.21 1.21 0 0 0 0 1.343c.133.211.332.387.594.532.246.156.555.277.922.359.371.086.789.125 1.25.125.457 0 .867-.04 1.234-.125.371-.082.692-.203.953-.36.246-.144.442-.32.579-.53a1.15 1.15 0 0 0 .218-.673zm.907 3.282v-.547H.171v.547h3.547V1.25h.656v-2.781zM4.046-5.97c.32 0 .617.035.89.094.27.055.508.129.72.219.206.105.366.23.484.375a.764.764 0 0 1 .171.468.74.74 0 0 1-.187.485 1.354 1.354 0 0 1-.469.344 3.69 3.69 0 0 1-.734.234 4.474 4.474 0 0 1-.875.078c-.324 0-.629-.023-.906-.078a3.528 3.528 0 0 1-.72-.234c-.21-.09-.37-.211-.483-.36a.725.725 0 0 1 0-.937 1.39 1.39 0 0 1 .484-.375c.195-.09.437-.164.719-.219.277-.059.582-.094.906-.094zm0 0"/></symbol><symbol overflow="visible" id="V"><path d="M7.39-1.844V-6.64h-.656v1.907H4.922v.562h1.812v2.328zM5.454-2.906A1.041 1.041 0 0 1 5.156-3a4.187 4.187 0 0 1-.375-.188 4.953 4.953 0 0 1-.422-.25 1.983 1.983 0 0 1-.375-.328c-.199-.183-.363-.41-.484-.671a2.299 2.299 0 0 1-.203-.922v-.188h1.765v-.578H.86v.578h1.75l-.015.188a2.47 2.47 0 0 1-.219.953c-.137.281-.29.52-.453.703-.25.262-.527.48-.828.656-.293.18-.543.317-.75.406l.469.47a4.97 4.97 0 0 0 .562-.298c.246-.144.492-.332.734-.562.207-.184.38-.375.516-.563.145-.183.254-.375.328-.562.09.199.195.37.313.515.113.149.273.317.484.5a2.1 2.1 0 0 0 .36.297c.132.086.265.16.39.219.121.063.234.117.328.156.102.031.18.059.234.078zM7.516-.125c0-.445-.254-.816-.75-1.11-.493-.3-1.207-.452-2.141-.452-.938 0-1.652.152-2.14.453-.493.293-.735.664-.735 1.109 0 .445.242.813.734 1.094.489.289 1.204.437 2.141.437.934 0 1.648-.148 2.14-.437.497-.281.75-.649.75-1.094zm-.735.016c0 .3-.207.539-.61.718-.398.176-.91.266-1.53.266-.649 0-1.176-.098-1.579-.281-.406-.18-.609-.418-.609-.719 0-.309.203-.555.61-.734.402-.176.93-.266 1.578-.266.62 0 1.132.098 1.53.281.403.18.61.426.61.735zm0 0"/></symbol><symbol overflow="visible" id="W"><path d="M4.531-.453v-5.438h-.64v1.97H1.406v-1.97H.75v5.438zm3.5-2.453V-3.5H6.766v-3.14h-.657v7.89h.657v-4.156zM3.891-1H1.406v-2.344h2.485zm0 0"/></symbol><symbol overflow="visible" id="X"><path d="M4.734-3.125c0-.434-.05-.832-.14-1.188a3.056 3.056 0 0 0-.407-.921 1.837 1.837 0 0 0-.625-.579 1.667 1.667 0 0 0-.843-.218c-.313 0-.598.074-.844.218a1.95 1.95 0 0 0-.625.579c-.18.261-.316.57-.406.921-.094.356-.14.754-.14 1.188 0 .438.046.84.14 1.203.09.356.226.66.406.906.176.25.383.45.625.594.246.137.531.203.844.203.308 0 .594-.066.844-.203.246-.144.457-.344.624-.594.176-.257.313-.566.407-.921.09-.352.14-.75.14-1.188zM7.22 1.25v-7.89h-.657v7.89zM4.094-3.14c0 .324-.035.628-.094.906a2.778 2.778 0 0 1-.266.718A1.522 1.522 0 0 1 3.313-1a.988.988 0 0 1-.579.172A.995.995 0 0 1 2.141-1a1.447 1.447 0 0 1-.422-.5 2.54 2.54 0 0 1-.266-.734 4.138 4.138 0 0 1-.094-.907c0-.3.032-.586.094-.859.059-.277.149-.531.266-.75.113-.207.254-.367.422-.484a.978.978 0 0 1 .593-.188c.215 0 .41.067.579.188.164.117.304.277.421.484.114.219.204.473.266.75.059.273.094.559.094.86zm0 0"/></symbol><symbol overflow="visible" id="Y"><path d="M7.938.281v-.547H4.39v-1.843c.402-.02.773-.086 1.109-.204.332-.113.61-.265.828-.453.215-.175.39-.382.516-.625.12-.238.187-.492.187-.765a1.58 1.58 0 0 0-.218-.797 2.132 2.132 0 0 0-.579-.656 3.158 3.158 0 0 0-.953-.438 4.617 4.617 0 0 0-1.234-.156c-.461 0-.879.055-1.25.156a2.848 2.848 0 0 0-.922.438c-.262.187-.46.41-.594.656-.136.25-.203.52-.203.797 0 .273.055.527.172.765.121.243.3.45.531.625.215.188.489.34.813.454.332.117.707.183 1.125.203v1.843H.172v.547zM4.046-5.625c.308 0 .601.04.875.11.277.074.523.175.734.296.196.137.352.293.469.469a1.101 1.101 0 0 1 .016 1.203c-.118.18-.278.336-.485.469-.21.125-.449.226-.718.297-.274.074-.57.11-.891.11-.313 0-.613-.036-.89-.11a2.666 2.666 0 0 1-.72-.297c-.199-.133-.363-.29-.484-.469a1.07 1.07 0 0 1-.172-.61c0-.214.055-.413.172-.593.113-.176.274-.332.484-.469.208-.12.446-.222.72-.297.277-.07.577-.109.89-.109zm0 0"/></symbol><symbol overflow="visible" id="Z"><path d="M6.281.406l.016-6.297h-.734L3.421-.28l-2.125-5.61H.563V.406h.593v-5.031L3.063.406h.734l1.89-5.047V.406zm0 0"/></symbol><symbol overflow="visible" id="aa"><path d="M3.11-6.047c-.438 0-.833.086-1.172.25a2.424 2.424 0 0 0-.875.672c-.25.293-.446.645-.579 1.047a4.56 4.56 0 0 0-.187 1.344c0 .492.062.945.187 1.359.133.406.329.758.579 1.047.238.293.53.516.875.672.34.164.734.25 1.171.25.426 0 .813-.086 1.157-.25.34-.156.64-.38.89-.672.246-.29.442-.64.578-1.047a4.43 4.43 0 0 0 .204-1.36c0-.488-.07-.937-.204-1.343a3.233 3.233 0 0 0-.578-1.047 2.62 2.62 0 0 0-.89-.672 2.656 2.656 0 0 0-1.157-.25zm0 6.078a1.97 1.97 0 0 1-.907-.203 1.9 1.9 0 0 1-.672-.578 2.583 2.583 0 0 1-.437-.86 3.802 3.802 0 0 1-.157-1.124c0-.395.051-.758.157-1.094.101-.34.25-.633.437-.875.184-.246.41-.442.672-.578.27-.133.57-.203.906-.203.32 0 .618.07.891.203.27.136.5.332.688.578.183.242.332.535.437.875.102.336.156.7.156 1.094 0 .406-.054.785-.156 1.125a2.738 2.738 0 0 1-.438.859C4.5-.5 4.27-.305 4-.172c-.273.137-.57.203-.89.203zm0 0"/></symbol><symbol overflow="visible" id="ab"><path d="M5.14-5.89h-.609l.016 4.25c0 .23-.04.449-.11.656a1.42 1.42 0 0 1-.328.515 1.562 1.562 0 0 1-.562.375 2.099 2.099 0 0 1-.766.125c-.304 0-.566-.039-.781-.125a1.532 1.532 0 0 1-.547-.375 1.325 1.325 0 0 1-.328-.515 2.259 2.259 0 0 1-.094-.657v-4.25H.438v4.36c0 .293.046.57.14.828A1.983 1.983 0 0 0 1.766.422c.3.113.64.172 1.015.172.371 0 .707-.059 1-.172.29-.106.54-.258.75-.453.196-.196.348-.422.453-.672.102-.258.157-.535.157-.828zm0 0"/></symbol><symbol overflow="visible" id="ac"><path d="M3.61-5.5v-.578H1.405v.578zM5.874.89v-7.343h-.656v3.234H3.953v.578H5.22V.891zm1.61.36v-7.89h-.641v7.89zM4.577-.813c-.137-.07-.3-.175-.484-.312a3.968 3.968 0 0 1-.61-.656 2.846 2.846 0 0 1-.453-.86 3.235 3.235 0 0 1-.156-.984v-.406h1.516v-.563H.609v.563h1.563v.406c0 .324-.067.664-.188 1.016a2.963 2.963 0 0 1-.468.89c-.118.157-.243.301-.375.422a4.291 4.291 0 0 1-.375.313 3.12 3.12 0 0 1-.61.406l.516.453c.113-.05.273-.16.484-.328.215-.164.43-.367.64-.61.196-.226.36-.46.485-.703a3.02 3.02 0 0 0 .235-.546c.027.124.109.304.234.53.121.231.281.45.469.657.207.242.394.43.562.563.176.125.305.21.39.25zm0 0"/></symbol><symbol overflow="visible" id="ad"><path d="M7.281-2.484v-4.157h-.656v1.22H5.062v.546h1.563v.969H4.922v.531h1.703v.89zm.188 3.656V.656H2.53v-.86h4.735v-1.874H1.859v.515h4.735v.86H1.859v1.875zM4.797-6.062H1.03v.546H3.97a3.475 3.475 0 0 1-.11.297 2.61 2.61 0 0 1-.203.407 3.771 3.771 0 0 1-.36.468c-.148.168-.32.332-.515.485-.398.304-.8.535-1.203.687a7.864 7.864 0 0 1-1.047.344l.375.437c.352-.09.735-.222 1.14-.39.415-.176.864-.457 1.345-.844a3.808 3.808 0 0 0 1.406-2.438zm0 0"/></symbol></defs><g fill="#393536"><use xlink:href="#a" x="42.468" y="48.426"/><use xlink:href="#b" x="48.041" y="48.426"/><use xlink:href="#b" x="53.614" y="48.426"/></g><use xlink:href="#c" x="381.843" y="345.004" fill="#33459a"/><g fill="#231f20"><use xlink:href="#d" x="389.859" y="345.004"/><use xlink:href="#e" x="394.722" y="345.004"/><use xlink:href="#f" x="399.585" y="345.004"/><use xlink:href="#g" x="401.743" y="345.004"/><use xlink:href="#d" x="406.606" y="345.004"/><use xlink:href="#f" x="411.469" y="345.004"/><use xlink:href="#d" x="413.627" y="345.004"/><use xlink:href="#h" x="418.49" y="345.004"/><use xlink:href="#i" x="423.352" y="345.004"/><use xlink:href="#i" x="426.347" y="345.004"/></g><use xlink:href="#j" x="429.342" y="345.004" fill="#616471"/><g fill="#231f20"><use xlink:href="#i" x="432.099" y="345.004"/><use xlink:href="#i" x="435.094" y="345.004"/></g><g fill="#33459a"><use xlink:href="#k" x="438.089" y="345.004"/><use xlink:href="#l" x="446.106" y="345.004"/><use xlink:href="#m" x="450.969" y="345.004"/><use xlink:href="#i" x="458.985" y="345.004"/><use xlink:href="#n" x="461.98" y="345.004"/><use xlink:href="#o" x="469.997" y="345.004"/><use xlink:href="#m" x="478.013" y="345.004"/></g><use xlink:href="#c" x="381.843" y="693.734" fill="#33459a"/><g fill="#231f20"><use xlink:href="#d" x="389.859" y="693.734"/><use xlink:href="#e" x="394.722" y="693.734"/><use xlink:href="#f" x="399.585" y="693.734"/><use xlink:href="#g" x="401.743" y="693.734"/><use xlink:href="#d" x="406.606" y="693.734"/><use xlink:href="#f" x="411.469" y="693.734"/><use xlink:href="#d" x="413.627" y="693.734"/><use xlink:href="#h" x="418.49" y="693.734"/><use xlink:href="#i" x="423.352" y="693.734"/><use xlink:href="#i" x="426.347" y="693.734"/></g><use xlink:href="#j" x="429.342" y="693.734" fill="#616471"/><g fill="#231f20"><use xlink:href="#i" x="432.099" y="693.734"/><use xlink:href="#i" x="435.094" y="693.734"/></g><g fill="#33459a"><use xlink:href="#k" x="438.089" y="693.734"/><use xlink:href="#l" x="446.106" y="693.734"/><use xlink:href="#m" x="450.969" y="693.734"/><use xlink:href="#i" x="458.985" y="693.734"/><use xlink:href="#n" x="461.98" y="693.734"/><use xlink:href="#o" x="469.997" y="693.734"/><use xlink:href="#m" x="478.013" y="693.734"/></g><use xlink:href="#p" x="74.885" y="47.92" fill="#231f20"/><g fill="#231f20"><use xlink:href="#q" x="82.975" y="47.763"/><use xlink:href="#r" x="85.582" y="47.763"/><use xlink:href="#s" x="88.189" y="47.763"/><use xlink:href="#t" x="96.189" y="47.763"/><use xlink:href="#u" x="104.19" y="47.763"/><use xlink:href="#r" x="112.19" y="47.763"/><use xlink:href="#v" x="114.797" y="47.763"/><use xlink:href="#w" x="122.797" y="47.763"/><use xlink:href="#x" x="130.797" y="47.763"/></g><use xlink:href="#y" x="286.854" y="345.004" fill="#33459a"/><g fill="#231f20"><use xlink:href="#z" x="294.87" y="345.004"/><use xlink:href="#A" x="299.733" y="345.004"/><use xlink:href="#B" x="304.596" y="345.004"/><use xlink:href="#A" x="306.754" y="345.004"/><use xlink:href="#C" x="311.617" y="345.004"/><use xlink:href="#B" x="316.479" y="345.004"/><use xlink:href="#z" x="318.638" y="345.004"/><use xlink:href="#D" x="323.5" y="345.004"/><use xlink:href="#E" x="328.363" y="345.004"/><use xlink:href="#E" x="331.358" y="345.004"/></g><use xlink:href="#F" x="334.353" y="345.004" fill="#616471"/><g fill="#231f20"><use xlink:href="#E" x="337.11" y="345.004"/><use xlink:href="#E" x="340.105" y="345.004"/></g><g fill="#33459a"><use xlink:href="#G" x="343.1" y="345.004"/><use xlink:href="#H" x="351.117" y="345.004"/><use xlink:href="#I" x="359.133" y="345.004"/><use xlink:href="#J" x="367.15" y="345.004"/><use xlink:href="#E" x="375.166" y="345.004"/><use xlink:href="#K" x="378.161" y="345.004"/><use xlink:href="#L" x="386.178" y="345.004"/><use xlink:href="#M" x="394.194" y="345.004"/><use xlink:href="#N" x="402.211" y="345.004"/><use xlink:href="#O" x="410.227" y="345.004"/><use xlink:href="#P" x="418.244" y="345.004"/><use xlink:href="#G" x="426.26" y="345.004"/><use xlink:href="#H" x="434.276" y="345.004"/><use xlink:href="#E" x="442.293" y="345.004"/><use xlink:href="#Q" x="445.288" y="345.004"/><use xlink:href="#R" x="450.635" y="345.004"/><use xlink:href="#R" x="456.52" y="345.004"/><use xlink:href="#E" x="462.404" y="345.004"/><use xlink:href="#z" x="465.4" y="345.004"/><use xlink:href="#A" x="470.262" y="345.004"/><use xlink:href="#z" x="475.125" y="345.004"/><use xlink:href="#A" x="479.988" y="345.004"/></g><use xlink:href="#y" x="237.54" y="693.734" fill="#33459a"/><g fill="#231f20"><use xlink:href="#z" x="245.556" y="693.734"/><use xlink:href="#A" x="250.419" y="693.734"/><use xlink:href="#B" x="255.281" y="693.734"/><use xlink:href="#A" x="257.44" y="693.734"/><use xlink:href="#S" x="262.302" y="693.734"/><use xlink:href="#B" x="267.165" y="693.734"/><use xlink:href="#D" x="269.323" y="693.734"/><use xlink:href="#C" x="274.186" y="693.734"/><use xlink:href="#E" x="279.049" y="693.734"/><use xlink:href="#E" x="282.044" y="693.734"/></g><use xlink:href="#F" x="285.039" y="693.734" fill="#616471"/><g fill="#231f20"><use xlink:href="#E" x="287.796" y="693.734"/><use xlink:href="#E" x="290.791" y="693.734"/></g><g fill="#33459a"><use xlink:href="#G" x="293.786" y="693.734"/><use xlink:href="#H" x="301.803" y="693.734"/><use xlink:href="#I" x="309.819" y="693.734"/><use xlink:href="#J" x="317.835" y="693.734"/><use xlink:href="#E" x="325.852" y="693.734"/><use xlink:href="#K" x="328.847" y="693.734"/><use xlink:href="#L" x="336.863" y="693.734"/><use xlink:href="#M" x="344.88" y="693.734"/><use xlink:href="#N" x="352.896" y="693.734"/><use xlink:href="#O" x="360.913" y="693.734"/><use xlink:href="#P" x="368.929" y="693.734"/><use xlink:href="#G" x="376.946" y="693.734"/><use xlink:href="#H" x="384.962" y="693.734"/><use xlink:href="#E" x="392.979" y="693.734"/><use xlink:href="#T" x="395.974" y="693.734"/><use xlink:href="#E" x="401.374" y="693.734"/><use xlink:href="#U" x="404.369" y="693.734"/><use xlink:href="#V" x="412.385" y="693.734"/><use xlink:href="#W" x="420.402" y="693.734"/><use xlink:href="#X" x="428.418" y="693.734"/><use xlink:href="#Y" x="436.435" y="693.734"/><use xlink:href="#E" x="444.451" y="693.734"/><use xlink:href="#Z" x="447.446" y="693.734"/><use xlink:href="#aa" x="454.212" y="693.734"/><use xlink:href="#ab" x="460.343" y="693.734"/><use xlink:href="#E" x="465.823" y="693.734"/><use xlink:href="#ac" x="468.818" y="693.734"/><use xlink:href="#ad" x="476.834" y="693.734"/></g></svg>