<svg xmlns="http://www.w3.org/2000/svg" xmlns:xlink="http://www.w3.org/1999/xlink" width="793.701" height="1058.268" viewBox="0 0 595.276 793.701" version="1.2"><defs><symbol overflow="visible" id="a"><path d="M3.422-7.313a.124.124 0 0 0-.031-.078.119.119 0 0 0-.079-.062.133.133 0 0 0-.078 0 .589.589 0 0 0-.078.047l-1.844.828a.934.934 0 0 0-.218.078c-.086.043-.125.102-.125.172 0 .043.008.082.031.11a.143.143 0 0 0 .094.03c.05 0 .113-.015.187-.046.07-.028.133-.051.188-.063l.687-.312c.051-.02.102-.04.156-.063a.364.364 0 0 1 .172-.047c.07 0 .118.024.141.063.02.043.031.097.031.156v5.078c0 .367-.043.617-.125.75-.074.125-.316.188-.719.188-.25 0-.414.011-.484.03-.074.013-.11.052-.11.11 0 .063.016.106.048.125.027.024.082.032.156.032h3.094c.058 0 .109-.008.14-.032.028-.02.047-.054.047-.11 0-.058-.02-.1-.047-.124a.278.278 0 0 0-.14-.031h-.329c-.375 0-.601-.079-.671-.235-.063-.164-.094-.41-.094-.734zm0 0"/></symbol><symbol overflow="visible" id="b"><path d="M1.875-1.047h-.203c-.117 0-.172-.02-.172-.062 0-.04.031-.102.094-.188.058-.09.11-.156.14-.187L3.656-3.36c.34-.301.66-.633.953-1 .29-.371.438-.805.438-1.297 0-.559-.227-1-.672-1.313a2.416 2.416 0 0 0-1.453-.484c-.375 0-.723.066-1.031.187-.313.125-.598.34-.844.641a6.377 6.377 0 0 1-.219.328c-.117.168-.172.293-.172.375 0 .031.008.059.031.078.02.024.047.032.079.032.05 0 .093-.024.125-.079.039-.05.07-.093.093-.125.153-.3.375-.55.657-.75.277-.207.597-.312.953-.312.445 0 .812.144 1.094.422.277.281.421.644.421 1.078 0 .555-.23 1.121-.687 1.703-.45.574-.852 1.059-1.203 1.453L.703-.594a.789.789 0 0 1-.094.156.3.3 0 0 0-.062.157c0 .074.047.11.14.11.09-.009.165-.016.22-.016h3.968a.406.406 0 0 0 .188-.032c.039-.027.062-.082.062-.156v-1.328-.156c0-.059-.043-.094-.125-.094-.063 0-.102.035-.11.094-.011.054-.023.105-.03.156-.032.293-.114.476-.235.547-.125.074-.336.11-.625.11zm0 0"/></symbol><symbol overflow="visible" id="c"><path d="M2.5-4.39l.86-.47c.245-.132.503-.304.765-.515a.964.964 0 0 0 .406-.797c0-.445-.183-.773-.547-.984a2.113 2.113 0 0 0-1.125-.297c-.304.012-.59.066-.859.156-.273.086-.52.238-.734.453a1.957 1.957 0 0 0-.204.266c-.085.117-.125.215-.125.297 0 .031.008.066.032.093.02.032.047.047.078.047.039 0 .078-.023.11-.078.027-.05.054-.093.077-.125.133-.215.32-.398.563-.547a1.4 1.4 0 0 1 .766-.234c.269 0 .519.082.75.234.226.157.343.387.343.688 0 .48-.293.902-.875 1.266-.574.367-1.039.667-1.39.906l-.375.25-.11.078c-.043.023-.062.066-.062.125 0 .031.008.058.031.078a.143.143 0 0 0 .094.031c.039 0 .086-.008.14-.031a.53.53 0 0 0 .125-.063c.184-.113.391-.203.61-.265.226-.07.457-.11.687-.11.559 0 1.008.196 1.344.579.332.375.5.836.5 1.375 0 .367-.086.714-.25 1.046a2.37 2.37 0 0 1-.656.844 3.086 3.086 0 0 1-.688.422c-.281.145-.55.219-.797.219a.489.489 0 0 1-.328-.11 1.133 1.133 0 0 1-.203-.28 1.328 1.328 0 0 0-.219-.298.44.44 0 0 0-.328-.14c-.136 0-.242.043-.312.125a.456.456 0 0 0-.11.312c0 .278.133.473.407.578.277.102.53.157.75.157.445 0 .894-.118 1.343-.344.446-.23.832-.492 1.157-.781.308-.278.562-.614.75-1 .195-.383.296-.786.296-1.204 0-.59-.207-1.078-.609-1.453-.398-.37-.894-.562-1.484-.562zm0 0"/></symbol><symbol overflow="visible" id="d"><path d="M7.422 1.36v-7.985h-.734v2.938h-.954V-6.5H5V.984h.734v-3.953h.954V1.36zM2.938-4.626v-.813H4.28v-.625H.813v.625h1.359v.688c0 .48-.043.926-.125 1.328a4.915 4.915 0 0 1-.344 1.125 3.87 3.87 0 0 1-.64.938c-.25.28-.551.539-.891.765.05.043.11.086.172.125.07.031.133.067.187.094a17.48 17.48 0 0 0 .328.234c.176-.12.352-.28.532-.468.175-.196.347-.407.515-.625.145-.196.274-.407.39-.625a3.29 3.29 0 0 0 .25-.672c.052.219.13.43.235.625a4.693 4.693 0 0 0 .844 1.078c.164.156.332.289.5.39a1 1 0 0 1 .266-.25l.125-.125.156-.125a3.154 3.154 0 0 1-.797-.656 3.326 3.326 0 0 1-.547-.86 5.18 5.18 0 0 1-.297-.983 7.006 7.006 0 0 1-.094-1.188zm0 0"/></symbol><symbol overflow="visible" id="e"><path d="M6.078-6.625V-.75h.75v-3.266h1.11v-.64h-1.11v-1.969zm-.344 3.234a5.189 5.189 0 0 1-.562.094c-.242.031-.496.067-.766.094a19.67 19.67 0 0 1-.812.078 8.224 8.224 0 0 1-.703.031l-1.313.016v-2.547H4.61v-.64H.844v3.843H2.25c.227-.008.422-.015.578-.015.258-.008.531-.024.813-.047.277-.02.55-.047.812-.079.258-.027.5-.062.719-.093a3.59 3.59 0 0 0 .562-.11zm1.344 4.594v-.64H2.422v-2.016h-.75v2.656zm0 0"/></symbol><symbol overflow="visible" id="f"><path d="M7.11-2.313v-4.312h-.75v1.578H4.624v-1.312h-.719v1.187h-2.25v-1.187H.922v3.687h3.703V-4.39h1.734v2.079zm-3.204-1h-2.25V-4.53h2.25zM7.11 1.282v-3.234h-.75v.922H2.547v-.922h-.75V1.28zm-.75-.61H2.547V-.405h3.812zm0 0"/></symbol><symbol overflow="visible" id="g"><path d="M7.11-.75v-5.875h-.75V-.75zM.61-4.406c0 .281.05.554.156.812.101.25.242.477.421.672.196.18.422.324.672.438.258.117.551.171.875.171.301 0 .582-.054.844-.171.258-.114.485-.258.672-.438.184-.195.332-.422.438-.672a2.21 2.21 0 0 0 .156-.812c0-.29-.055-.563-.157-.813a2.292 2.292 0 0 0-.437-.687 2.083 2.083 0 0 0-.672-.438 2.102 2.102 0 0 0-.844-.172c-.324 0-.617.059-.875.172-.25.106-.476.254-.671.438-.18.199-.32.43-.422.687-.106.25-.157.524-.157.813zm.765 0c0-.403.113-.75.344-1.032.238-.289.578-.437 1.015-.437.426 0 .758.148 1 .438.239.28.36.628.36 1.03 0 .4-.121.739-.36 1.016-.242.282-.574.422-1 .422-.437 0-.777-.14-1.015-.422-.23-.277-.344-.617-.344-1.015zm5.969 5.61V.562H2.562v-1.985h-.75v2.625zm0 0"/></symbol><symbol overflow="visible" id="i"><path d="M7.047 1.36v-7.985H6.28v7.984zM4.687-.657v-5.469H.97v5.469zm-.734-.64H1.72V-5.47h2.234zm0 0"/></symbol><symbol overflow="visible" id="j"><path d="M7.203 1.36v-7.985H6.47v2.844h-.985V-6.5H4.75V.984h.734v-4.046h.985v4.421zm-2.75-2.75c-.094.023-.21.042-.344.062-.136.023-.289.039-.453.047-.168.023-.336.039-.5.047H2.72l-1.063.015V-3.03h2.157v-3.125H.921v.64h2.172v1.844H.922v3.11l1.547-.016c.383 0 .765-.02 1.14-.063.371-.039.657-.078.844-.109zm0 0"/></symbol><symbol overflow="visible" id="k"><path d="M7.203 1.36v-7.985h-.75v7.984zM1.031-4.376a1.965 1.965 0 0 0 .578 1.406c.196.188.426.336.688.438.258.105.547.156.86.156.3 0 .581-.05.843-.156.258-.102.484-.25.672-.438a1.92 1.92 0 0 0 .437-.625c.114-.246.172-.508.172-.781 0-.27-.058-.523-.172-.766a2.006 2.006 0 0 0-.437-.625A2.182 2.182 0 0 0 4-6.187a2.102 2.102 0 0 0-.844-.172c-.312 0-.601.058-.86.171a2.308 2.308 0 0 0-.687.422 1.961 1.961 0 0 0-.578 1.391zm.735 0c0-.371.117-.691.359-.953.246-.27.594-.406 1.031-.406.426 0 .758.136 1 .406.239.262.36.582.36.953 0 .375-.121.7-.36.969-.242.261-.574.39-1 .39-.437 0-.785-.129-1.031-.39a1.399 1.399 0 0 1-.36-.969zm4.406 3.016a7.804 7.804 0 0 1-.688.093c-.28.032-.586.059-.906.079-.324.023-.637.042-.937.062a8.814 8.814 0 0 1-.688.031 4.92 4.92 0 0 1-.515.016H.609v.656s.086.008.266.016h1.266c.214 0 .367-.004.453-.016.363 0 .722-.008 1.078-.031.351-.02.687-.047 1-.078.308-.028.594-.063.844-.094a9.75 9.75 0 0 0 .656-.094zm0 0"/></symbol><symbol overflow="visible" id="l"><path d="M8.047-3.813v-.671H6.922v-2.141h-.766V-1.5h.766v-2.313zM4.14-6.046v-.594H1.687v.594zm1.14 1.203v-.593H.594v.593zM.921-3.078c0 .18.048.351.141.515.102.157.239.293.407.407.183.125.398.226.64.297.246.062.52.093.813.093.621 0 1.117-.125 1.484-.375.364-.257.547-.57.547-.937 0-.363-.183-.676-.547-.938-.355-.257-.847-.39-1.468-.39-.305 0-.583.039-.829.11-.25.062-.464.16-.64.28-.18.118-.317.258-.407.422-.093.168-.14.34-.14.516zm.782-.016c0-.215.11-.39.328-.515.227-.133.531-.204.906-.204.383 0 .688.067.907.188.215.125.328.305.328.531 0 .23-.113.414-.328.547-.219.137-.524.203-.906.203-.376 0-.68-.062-.907-.187a.625.625 0 0 1-.328-.563zm5.219 4.5v-2.515h-5.36v.625h4.579v1.89zm0 0"/></symbol><symbol overflow="visible" id="m"><path d="M7.11-.75v-5.875h-.75v.922H4.421a2.105 2.105 0 0 0-1.703-.844 2.076 2.076 0 0 0-1.531.64 1.962 1.962 0 0 0-.438.673c-.094.261-.14.535-.14.812 0 .293.046.57.14.828.102.25.25.477.438.672.183.188.41.34.671.453.258.106.547.156.86.156.37 0 .71-.078 1.015-.234.309-.164.555-.383.735-.656h1.89V-.75zm-.75-3.11H4.75a1.39 1.39 0 0 0 .063-.265c.019-.102.03-.203.03-.297a1.73 1.73 0 0 0-.03-.312 1.769 1.769 0 0 0-.063-.313h1.61zm-4.985-.562c0-.402.113-.75.344-1.031.238-.29.57-.438 1-.438.433 0 .77.149 1 .438.238.281.36.629.36 1.031 0 .406-.122.754-.36 1.031-.23.282-.567.422-1 .422-.43 0-.762-.14-1-.422-.23-.277-.344-.625-.344-1.03zm5.953 5.625v-.64H2.562v-1.985h-.75v2.625zm0 0"/></symbol><symbol overflow="visible" id="n"><path d="M7.781-2.156v-.64H6.484c.051-.227.098-.49.141-.782l.125-.906c.027-.32.055-.641.078-.954.027-.32.05-.625.063-.906H1.156v.64h4.938c-.024.481-.07.974-.14 1.47-.063.492-.15.972-.25 1.437H.265v.64h3.312V1.36h.75v-3.515zm0 0"/></symbol><symbol overflow="visible" id="p"><path d="M3.813-4.36v-.015h1.593v-.813h-4.25v.813h1.578v.016c-.023.18-.086.351-.187.515a2.406 2.406 0 0 1-.406.453c-.211.168-.446.317-.704.438a4.476 4.476 0 0 1-.796.297c.113.105.238.226.375.36.144.124.257.241.343.343.207-.07.407-.16.594-.266a4.05 4.05 0 0 0 .547-.344c.164-.113.316-.238.453-.374.133-.145.242-.29.328-.438.09.156.207.3.344.422.145.125.3.246.469.36.164.116.336.214.515.296.176.086.344.149.5.188.059-.09.145-.204.25-.329.114-.12.227-.242.344-.359-.2-.039-.41-.11-.625-.203a3.041 3.041 0 0 1-.594-.375 2.077 2.077 0 0 1-.453-.453 1.053 1.053 0 0 1-.218-.531zm2.25 3.126a6.179 6.179 0 0 1-.594.078c-.219.023-.446.039-.672.047-.219.011-.43.023-.625.03a7.116 7.116 0 0 1-.422.016V-2.25h-.969v1.203H.562v.86h1.844c.29 0 .614-.004.969-.016A22.94 22.94 0 0 0 4.422-.25c.34-.02.656-.04.937-.063.29-.019.524-.046.704-.078zm1.25 2.609v-8.016h-.954v8.016zm-2.86-7.11v-.796H2.016v.797zm0 0"/></symbol><symbol overflow="visible" id="q"><path d="M7.203-.75v-5.89h-.969v5.89zM3.328-5.39v-1.094H2.297v1.125c0 .304-.055.59-.156.859-.094.262-.23.496-.407.703-.199.262-.433.496-.703.703-.273.2-.558.367-.86.5.134.106.274.223.423.344.152.125.273.23.36.313.175-.09.359-.208.546-.344a5.69 5.69 0 0 0 .547-.453c.164-.153.316-.329.453-.516.145-.184.25-.375.313-.563.101.2.234.383.39.547.152.168.32.325.5.47.152.136.32.26.5.374.176.117.344.211.5.281.07-.101.164-.222.281-.359.121-.133.239-.266.344-.39a2.993 2.993 0 0 1-.75-.376 2.764 2.764 0 0 1-.64-.578 2.758 2.758 0 0 1-.454-.719 2.17 2.17 0 0 1-.156-.828zm4.063 6.609V.375H2.766v-1.734h-1v2.578zm0 0"/></symbol><symbol overflow="visible" id="r"><path d="M7.781-2.063v-.843h-3.25v-.906h2.39v-.829H2.204v-.984h4.64v-.828H1.235v2.64h2.297v.907H.281v.844zm-3.75 3.594c.965 0 1.707-.152 2.219-.453.508-.305.766-.676.766-1.11 0-.445-.258-.816-.766-1.109-.512-.289-1.254-.437-2.219-.437-.98 0-1.726.148-2.234.437-.512.293-.766.664-.766 1.11 0 .433.254.804.766 1.11.508.3 1.254.452 2.234.452zM2.156-.047c0-.246.16-.441.485-.578.332-.133.796-.203 1.39-.203.57 0 1.024.074 1.36.219.332.136.5.332.5.578 0 .246-.168.441-.5.578C5.055.68 4.6.75 4.03.75c-.593 0-1.058-.074-1.39-.219C2.316.395 2.156.2 2.156-.047zm0 0"/></symbol><symbol overflow="visible" id="s"><path d="M7.906-2.875v-.828H6.875v-.922h1.031v-.828H6.875v-1.188h-.969v5.063h.969v-1.297zM4.063-5.953v-.734H1.578v.734zm1.125 1.219v-.735H.468v.735zM.702-3.188c0 .18.05.348.156.5.114.149.266.274.454.376.183.117.41.21.671.28.258.063.54.095.844.095.645 0 1.16-.118 1.547-.36.383-.238.578-.539.578-.906 0-.34-.195-.629-.578-.86-.375-.226-.887-.343-1.531-.343-.313 0-.602.035-.86.093a2.298 2.298 0 0 0-.671.266c-.188.106-.34.238-.454.39a.794.794 0 0 0-.156.47zm3.235-.015c0 .2-.102.348-.297.437-.2.094-.465.141-.797.141-.344 0-.617-.047-.813-.14-.199-.09-.297-.235-.297-.422 0-.176.098-.317.297-.422.196-.102.469-.157.813-.157.332 0 .597.055.797.157.195.093.296.23.296.406zM7.046 0a.949.949 0 0 0-.219-.61 1.8 1.8 0 0 0-.578-.484 3.32 3.32 0 0 0-.922-.297A5.637 5.637 0 0 0 4.203-1.5c-.406 0-.789.04-1.14.11-.344.062-.649.16-.907.28a1.688 1.688 0 0 0-.61.47.927.927 0 0 0-.218.609c0 .238.067.453.203.64.145.196.348.364.61.5.257.133.562.235.906.297.351.07.734.11 1.14.11a6.6 6.6 0 0 0 1.11-.094 3.32 3.32 0 0 0 .922-.297c.258-.125.46-.285.61-.469.144-.187.218-.41.218-.656zm-4.64-.016c0-.132.046-.25.14-.343.101-.102.238-.18.406-.235a2.49 2.49 0 0 1 .563-.125c.214-.027.441-.047.671-.047.489 0 .899.067 1.235.188.34.125.516.316.516.562 0 .133-.055.25-.157.344a1.49 1.49 0 0 1-.375.25c-.168.059-.355.11-.562.14-.211.028-.426.048-.64.048-.243 0-.474-.02-.688-.047a2.957 2.957 0 0 1-.563-.14.952.952 0 0 1-.406-.25.472.472 0 0 1-.14-.345zm0 0"/></symbol><symbol overflow="visible" id="t"><path d="M7.797.484v-.843H4.53V-2h2.282v-4.422h-.97v1.313h-3.64v-1.313h-.969V-2h2.282v1.64H.28v.844zM5.844-2.844h-3.64v-1.422h3.64zm0 0"/></symbol><symbol overflow="visible" id="u"><path d="M1.078-6.203v.828h4.766c-.024.637-.074 1.3-.157 1.984-.085.68-.183 1.336-.296 1.97h.968l.172-1.141c.059-.415.114-.833.157-1.25.05-.426.093-.844.125-1.25.027-.415.054-.797.078-1.141zM7.797.484v-.843H3.844v-2.985h-.985v2.985H.281v.843zm0 0"/></symbol><symbol overflow="visible" id="v"><path d="M7.203 1.375v-8.016H6.22v2.313H4.53v.906H6.22v4.797zm-3.89-5.938v-1.765H2.296v1.719c0 .406-.05.793-.14 1.156-.087.355-.212.683-.376.984-.187.356-.43.68-.718.969a4.889 4.889 0 0 1-.97.75c.145.094.29.207.438.328.153.117.281.223.375.313.176-.114.364-.258.563-.438.195-.183.39-.39.578-.61a7.06 7.06 0 0 0 .453-.64 2.62 2.62 0 0 0 .313-.656c.09.23.21.457.359.672.152.218.32.426.5.61.164.187.336.362.515.515.176.148.348.273.516.375a5.852 5.852 0 0 1 .719-.656 5.685 5.685 0 0 1-.922-.704 3.572 3.572 0 0 1-.688-.89 3.265 3.265 0 0 1-.374-.922 4.443 4.443 0 0 1-.126-1.11zm0 0"/></symbol><symbol overflow="visible" id="x"><path d="M2.766-.547L1.125-6.125H.109L2.266.672h.968l2.172-6.797H4.391zm0 0"/></symbol><symbol overflow="visible" id="y"><path d="M2.438-3.688c.382 0 .675.18.874.532.196.355.297.82.297 1.39 0 .586-.101 1.051-.296 1.391-.2.344-.493.516-.876.516-.374 0-.664-.172-.859-.516-.187-.34-.281-.805-.281-1.39 0-.57.094-1.036.281-1.391.195-.352.484-.531.86-.531zm0-.75c-.7 0-1.227.247-1.579.735-.343.492-.515 1.137-.515 1.937C.344-.96.516-.32.859.156c.352.477.88.719 1.579.719.695 0 1.226-.242 1.593-.719.364-.476.547-1.117.547-1.922 0-.8-.183-1.445-.547-1.937-.367-.488-.898-.735-1.593-.735zm0 0"/></symbol><symbol overflow="visible" id="z"><path d="M.563-6.125V.672h.906v-6.797zm0 0"/></symbol><symbol overflow="visible" id="A"><path d="M.64-.047v1.203h1.25V-.047zm0 0"/></symbol><symbol overflow="visible" id="B"><path d="M2-6.25c-.605 0-1.059.324-1.36.969C.349-4.645.204-3.77.204-2.656c0 1.117.145 1.992.438 2.625.3.62.754.937 1.359.937.602 0 1.055-.316 1.36-.937.308-.633.468-1.508.468-2.625 0-1.114-.16-1.989-.469-2.625C3.055-5.926 2.602-6.25 2-6.25zm0 .797c.27 0 .488.258.656.766.164.5.25 1.18.25 2.03 0 .845-.086 1.52-.25 2.016-.168.5-.386.75-.656.75-.273 0-.488-.25-.64-.75-.157-.496-.235-1.171-.235-2.015 0-.852.078-1.531.234-2.031.153-.508.368-.766.641-.766zm0 0"/></symbol><symbol overflow="visible" id="C"><path d="M2.906-2.063c-.054.688-.18 1.231-.375 1.626-.187.386-.41.578-.656.578-.219 0-.395-.114-.516-.329a1.565 1.565 0 0 1-.203-.75H.25C.25-.344.395.113.688.438c.3.32.703.485 1.203.485.351 0 .656-.106.906-.313.258-.199.46-.476.61-.828.152-.351.269-.77.343-1.25.07-.476.11-1 .11-1.562 0-.477-.04-.914-.11-1.313a3.483 3.483 0 0 0-.344-1.015c-.148-.278-.34-.5-.578-.657a1.42 1.42 0 0 0-.844-.25c-.562 0-1.011.223-1.343.657-.336.437-.5 1.023-.5 1.75 0 .398.047.738.14 1.015.102.281.235.512.39.688.153.187.337.324.548.406.207.086.414.125.625.125a1.7 1.7 0 0 0 .562-.094c.184-.058.352-.176.5-.343zm-.953-.359c-.273 0-.488-.14-.64-.422-.157-.277-.235-.656-.235-1.125 0-.445.078-.812.234-1.094.153-.277.368-.421.641-.421.238 0 .445.148.625.437.176.281.266.645.266 1.078 0 .469-.09.848-.266 1.125-.168.281-.379.422-.625.422zm0 0"/></symbol><symbol overflow="visible" id="D"><path d="M6.844-2.688l-5.219-3.14V.453zm-.61 0L1.922-.108v-5.157zm0 0"/></symbol><symbol overflow="visible" id="E"><path d="M3 .438v-6.391h-.453a1.092 1.092 0 0 1-.14.469c-.087.148-.184.27-.298.359-.168.117-.332.2-.484.25-.156.043-.32.063-.484.063v.484h1.265V.438zm0 0"/></symbol><symbol overflow="visible" id="F"><path d="M4.469-5.875H.375v.531h3.453a5.696 5.696 0 0 0-.312.485c-.125.199-.27.43-.422.687-.156.262-.317.54-.469.828-.156.281-.293.551-.406.797-.156.324-.29.637-.39.938a7.18 7.18 0 0 0-.25.828 7.798 7.798 0 0 0-.173.719 3.574 3.574 0 0 0-.047.515h.735c0-.168.02-.371.062-.61.04-.238.094-.491.156-.765.07-.27.16-.547.266-.828a12.576 12.576 0 0 1 .734-1.688c.145-.277.29-.546.438-.796.145-.239.281-.457.406-.657.133-.195.239-.343.313-.437zm0 0"/></symbol><symbol overflow="visible" id="G"><path d="M1.484.969V0H.5v.969zm0 0"/></symbol><symbol overflow="visible" id="H"><path d="M2.469-6.078c-.367 0-.692.086-.969.25a1.91 1.91 0 0 0-.703.687 3.249 3.249 0 0 0-.422 1.047 5.92 5.92 0 0 0-.14 1.328c0 .493.046.942.14 1.344.09.406.234.758.422 1.047.183.305.422.531.703.688.277.164.602.25.969.25.351 0 .672-.086.953-.25.277-.157.52-.383.719-.688.183-.29.328-.64.421-1.047.102-.402.157-.851.157-1.344a5.48 5.48 0 0 0-.157-1.328 3.435 3.435 0 0 0-.421-1.047c-.2-.3-.442-.53-.72-.687a1.866 1.866 0 0 0-.952-.25zm0 6.094a1.17 1.17 0 0 1-.688-.204 1.812 1.812 0 0 1-.484-.593A2.78 2.78 0 0 1 1-1.656a6.152 6.152 0 0 1-.094-1.11c0-.382.031-.742.094-1.078.059-.34.16-.64.297-.89.133-.246.297-.442.484-.579.196-.144.426-.218.688-.218.246 0 .472.074.672.218.195.137.359.333.484.579.133.25.234.55.297.89a5.478 5.478 0 0 1 0 2.188 2.992 2.992 0 0 1-.297.875c-.125.25-.29.449-.484.594-.2.136-.426.203-.672.203zm0 0"/></symbol><symbol overflow="visible" id="I"><path d="M2.453-6.125a1.93 1.93 0 0 0-.812.172c-.25.105-.465.254-.641.437a2.19 2.19 0 0 0-.453.672A2.235 2.235 0 0 0 .39-4c-.012.293.023.57.109.828.09.262.219.496.375.703a1.928 1.928 0 0 0 1.39.703c.395.032.743-.035 1.047-.203.301-.176.54-.398.72-.672.007.18.003.418-.016.72-.024.292-.09.581-.204.859a2.843 2.843 0 0 1-.5.812c-.199.21-.492.313-.874.313-.22 0-.415-.036-.579-.094-.156-.07-.3-.164-.421-.281a1.33 1.33 0 0 1-.282-.391A1.6 1.6 0 0 1 1-1.156H.422c.02.218.082.441.187.656.102.21.243.398.422.563.164.164.364.3.594.406.238.101.5.148.781.14.489-.011.899-.16 1.235-.437.332-.27.593-.656.78-1.156.09-.246.161-.532.204-.844.05-.32.078-.649.078-.984a6.026 6.026 0 0 0-.047-.938 4.662 4.662 0 0 0-.14-.766 2.592 2.592 0 0 0-.766-1.14 1.917 1.917 0 0 0-1.297-.469zm.016 3.813c-.43 0-.778-.149-1.047-.454-.274-.308-.406-.71-.406-1.203 0-.465.132-.851.406-1.156.27-.3.617-.453 1.047-.453.433 0 .789.16 1.062.469.27.304.406.683.406 1.14 0 .48-.136.88-.406 1.188a1.348 1.348 0 0 1-1.062.469zm0 0"/></symbol><symbol overflow="visible" id="K"><path d="M1.688 1.406v-8.203H1.14v8.203zm0 0"/></symbol><symbol overflow="visible" id="L"><path d="M4.64-.75a3.015 3.015 0 0 1-.546-.438c-.2-.195-.403-.46-.61-.796a3.315 3.315 0 0 1-.5-1.172 5.777 5.777 0 0 1-.156-1.297v-.656h1.453v-.547H.671v.547h1.47v.656A5.2 5.2 0 0 1 2-3.266c-.094.387-.23.758-.406 1.11A5.176 5.176 0 0 1 .187-.5l.547.406c.184-.152.383-.351.594-.594.207-.238.395-.484.563-.734.152-.27.285-.516.39-.734.102-.215.172-.399.203-.547.028.148.102.351.22.61.112.25.257.488.437.702.183.262.367.489.546.672.184.18.352.317.5.406zM5.89.89v-7.343h-.64v2.766H3.89v.578h1.36v4zm1.626.36v-7.89h-.657v7.89zm0 0"/></symbol><symbol overflow="visible" id="M"><path d="M4.531.375v-.5h-3.39c.05-.27.156-.535.312-.797a2.19 2.19 0 0 1 .656-.656l1.032-.719c.144-.113.289-.226.437-.344.152-.12.297-.257.422-.406a2.04 2.04 0 0 0 .438-1.187c.007-.258-.028-.5-.11-.72a1.707 1.707 0 0 0-.375-.593 2.076 2.076 0 0 0-.64-.422 2.239 2.239 0 0 0-.844-.156 2.08 2.08 0 0 0-.875.172c-.25.117-.457.27-.61.453a1.905 1.905 0 0 0-.375.625C.535-4.645.5-4.41.5-4.172h.563c0-.183.023-.363.078-.531.05-.164.14-.313.265-.438.102-.12.242-.222.422-.296.176-.083.379-.125.61-.125.433 0 .773.128 1.015.375.246.25.367.57.36.953a1.29 1.29 0 0 1-.297.812c-.18.211-.395.402-.641.578l-1.047.735a3.66 3.66 0 0 0-.734.656 2.25 2.25 0 0 0-.39.625c-.095.21-.161.414-.188.61C.484-.02.469.175.469.374zm0 0"/></symbol><symbol overflow="visible" id="N"><path d="M4.5-5.797v-.562H1.984v.562zm1.11 1.25v-.562H.905v.562zM7.218 1.25v-7.89h-.657v7.89zM6.187-.25v-.563a6.179 6.179 0 0 1-.593.079c-.219.023-.446.039-.672.046-.23.024-.461.04-.688.047-.218.012-.425.016-.609.016v-.938c.488-.039.883-.18 1.188-.421.3-.239.453-.516.453-.829a.89.89 0 0 0-.157-.484c-.093-.164-.23-.3-.406-.406A2.368 2.368 0 0 0 4.063-4a2.796 2.796 0 0 0-.782-.11c-.293 0-.558.04-.797.11-.242.063-.449.16-.625.281-.168.117-.3.254-.39.406a.936.936 0 0 0-.14.485c0 .336.144.621.437.86.3.241.695.382 1.187.421v.938h-2.5v.562H3.25c.559-.02 1.11-.047 1.64-.078.528-.04.962-.082 1.298-.125zM4.625-2.813c0 .22-.129.399-.375.532-.25.136-.574.203-.969.203-.386 0-.707-.067-.953-.203-.25-.145-.375-.328-.375-.547 0-.207.125-.383.375-.531.246-.145.567-.22.953-.22.395 0 .719.075.969.22.246.148.375.332.375.546zm0 0"/></symbol><symbol overflow="visible" id="O"><path d="M4.734-3.125c0-.434-.05-.832-.14-1.188a3.056 3.056 0 0 0-.407-.921 1.837 1.837 0 0 0-.625-.579 1.667 1.667 0 0 0-.843-.218c-.313 0-.598.074-.844.218a1.95 1.95 0 0 0-.625.579c-.18.261-.316.57-.406.921-.094.356-.14.754-.14 1.188 0 .438.046.84.14 1.203.09.356.226.66.406.906.176.25.383.45.625.594.246.137.531.203.844.203.308 0 .594-.066.844-.203.246-.144.457-.344.624-.594.176-.257.313-.566.407-.921.09-.352.14-.75.14-1.188zM7.22 1.25v-7.89h-.657v7.89zM4.094-3.14c0 .324-.035.628-.094.906a2.778 2.778 0 0 1-.266.718A1.522 1.522 0 0 1 3.313-1a.988.988 0 0 1-.579.172A.995.995 0 0 1 2.141-1a1.447 1.447 0 0 1-.422-.5 2.54 2.54 0 0 1-.266-.734 4.138 4.138 0 0 1-.094-.907c0-.3.032-.586.094-.859.059-.277.149-.531.266-.75.113-.207.254-.367.422-.484a.978.978 0 0 1 .593-.188c.215 0 .41.067.579.188.164.117.304.277.421.484.114.219.204.473.266.75.059.273.094.559.094.86zm0 0"/></symbol><symbol overflow="visible" id="P"><path d="M5.484-.813c-.242-.12-.511-.312-.812-.562a3.882 3.882 0 0 1-.797-.89A3.9 3.9 0 0 1 3.297-3.5a5.556 5.556 0 0 1-.156-1.313v-1.375h-.688v1.375c0 .438-.058.887-.172 1.344-.117.45-.289.856-.515 1.219-.23.344-.504.664-.813.953a4.563 4.563 0 0 1-.89.688l.53.453a4.25 4.25 0 0 0 .673-.516c.246-.226.476-.473.687-.734a5.4 5.4 0 0 0 .578-.907c.133-.277.223-.503.266-.671.05.168.144.394.281.671.145.274.336.555.578.844.227.282.469.52.719.703.258.188.473.336.64.438zM6.891-6.64h-.657V1.25h.657v-4.11h1.265v-.578H6.891zm0 0"/></symbol><symbol overflow="visible" id="Q"><path d="M6.844-2.688l-5.219-3.14V.453zm-.61 0L1.922-.108v-5.157zm0 0"/></symbol><symbol overflow="visible" id="R"><path d="M4.531.375v-.5h-3.39c.05-.27.156-.535.312-.797a2.19 2.19 0 0 1 .656-.656l1.032-.719c.144-.113.289-.226.437-.344.152-.12.297-.257.422-.406a2.04 2.04 0 0 0 .438-1.187c.007-.258-.028-.5-.11-.72a1.707 1.707 0 0 0-.375-.593 2.076 2.076 0 0 0-.64-.422 2.239 2.239 0 0 0-.844-.156 2.08 2.08 0 0 0-.875.172c-.25.117-.457.27-.61.453a1.905 1.905 0 0 0-.375.625C.535-4.645.5-4.41.5-4.172h.563c0-.183.023-.363.078-.531.05-.164.14-.313.265-.438.102-.12.242-.222.422-.296.176-.083.379-.125.61-.125.433 0 .773.128 1.015.375.246.25.367.57.36.953a1.29 1.29 0 0 1-.297.812c-.18.211-.395.402-.641.578l-1.047.735a3.66 3.66 0 0 0-.734.656 2.25 2.25 0 0 0-.39.625c-.095.21-.161.414-.188.61C.484-.02.469.175.469.374zm0 0"/></symbol><symbol overflow="visible" id="S"><path d="M2.469-6.078c-.367 0-.692.086-.969.25a1.91 1.91 0 0 0-.703.687 3.249 3.249 0 0 0-.422 1.047 5.92 5.92 0 0 0-.14 1.328c0 .493.046.942.14 1.344.09.406.234.758.422 1.047.183.305.422.531.703.688.277.164.602.25.969.25.351 0 .672-.086.953-.25.277-.157.52-.383.719-.688.183-.29.328-.64.421-1.047.102-.402.157-.851.157-1.344a5.48 5.48 0 0 0-.157-1.328 3.435 3.435 0 0 0-.421-1.047c-.2-.3-.442-.53-.72-.687a1.866 1.866 0 0 0-.952-.25zm0 6.094a1.17 1.17 0 0 1-.688-.204 1.812 1.812 0 0 1-.484-.593A2.78 2.78 0 0 1 1-1.656a6.152 6.152 0 0 1-.094-1.11c0-.382.031-.742.094-1.078.059-.34.16-.64.297-.89.133-.246.297-.442.484-.579.196-.144.426-.218.688-.218.246 0 .472.074.672.218.195.137.359.333.484.579.133.25.234.55.297.89a5.478 5.478 0 0 1 0 2.188 2.992 2.992 0 0 1-.297.875c-.125.25-.29.449-.484.594-.2.136-.426.203-.672.203zm0 0"/></symbol><symbol overflow="visible" id="T"><path d="M1.484.969V0H.5v.969zm0 0"/></symbol><symbol overflow="visible" id="U"><path d="M2.453-6.125a1.93 1.93 0 0 0-.812.172c-.25.105-.465.254-.641.437a2.19 2.19 0 0 0-.453.672A2.235 2.235 0 0 0 .39-4c-.012.293.023.57.109.828.09.262.219.496.375.703a1.928 1.928 0 0 0 1.39.703c.395.032.743-.035 1.047-.203.301-.176.54-.398.72-.672.007.18.003.418-.016.72-.024.292-.09.581-.204.859a2.843 2.843 0 0 1-.5.812c-.199.21-.492.313-.874.313-.22 0-.415-.036-.579-.094-.156-.07-.3-.164-.421-.281a1.33 1.33 0 0 1-.282-.391A1.6 1.6 0 0 1 1-1.156H.422c.02.218.082.441.187.656.102.21.243.398.422.563.164.164.364.3.594.406.238.101.5.148.781.14.489-.011.899-.16 1.235-.437.332-.27.593-.656.78-1.156.09-.246.161-.532.204-.844.05-.32.078-.649.078-.984a6.026 6.026 0 0 0-.047-.938 4.662 4.662 0 0 0-.14-.766 2.592 2.592 0 0 0-.766-1.14 1.917 1.917 0 0 0-1.297-.469zm.016 3.813c-.43 0-.778-.149-1.047-.454-.274-.308-.406-.71-.406-1.203 0-.465.132-.851.406-1.156.27-.3.617-.453 1.047-.453.433 0 .789.16 1.062.469.27.304.406.683.406 1.14 0 .48-.136.88-.406 1.188a1.348 1.348 0 0 1-1.062.469zm0 0"/></symbol><symbol overflow="visible" id="V"><path d="M4.906-.797v-.5h-.953v-4.672H3.36l-3.015 4.5v.672h3.015V.438h.594V-.798zm-1.547-.5H.922L3.359-5zm0 0"/></symbol><symbol overflow="visible" id="X"><path d="M1.688 1.406v-8.203H1.14v8.203zm0 0"/></symbol><symbol overflow="visible" id="Y"><path d="M4.64-.75a3.015 3.015 0 0 1-.546-.438c-.2-.195-.403-.46-.61-.796a3.315 3.315 0 0 1-.5-1.172 5.777 5.777 0 0 1-.156-1.297v-.656h1.453v-.547H.671v.547h1.47v.656A5.2 5.2 0 0 1 2-3.266c-.094.387-.23.758-.406 1.11A5.176 5.176 0 0 1 .187-.5l.547.406c.184-.152.383-.351.594-.594.207-.238.395-.484.563-.734.152-.27.285-.516.39-.734.102-.215.172-.399.203-.547.028.148.102.351.22.61.112.25.257.488.437.702.183.262.367.489.546.672.184.18.352.317.5.406zM5.89.89v-7.343h-.64v2.766H3.89v.578h1.36v4zm1.626.36v-7.89h-.657v7.89zm0 0"/></symbol><symbol overflow="visible" id="Z"><path d="M3 .438v-6.391h-.453a1.092 1.092 0 0 1-.14.469c-.087.148-.184.27-.298.359-.168.117-.332.2-.484.25-.156.043-.32.063-.484.063v.484h1.265V.438zm0 0"/></symbol><symbol overflow="visible" id="aa"><path d="M4.5-5.797v-.562H1.984v.562zm1.11 1.25v-.562H.905v.562zM7.218 1.25v-7.89h-.657v7.89zM6.187-.25v-.563a6.179 6.179 0 0 1-.593.079c-.219.023-.446.039-.672.046-.23.024-.461.04-.688.047-.218.012-.425.016-.609.016v-.938c.488-.039.883-.18 1.188-.421.3-.239.453-.516.453-.829a.89.89 0 0 0-.157-.484c-.093-.164-.23-.3-.406-.406A2.368 2.368 0 0 0 4.063-4a2.796 2.796 0 0 0-.782-.11c-.293 0-.558.04-.797.11-.242.063-.449.16-.625.281-.168.117-.3.254-.39.406a.936.936 0 0 0-.14.485c0 .336.144.621.437.86.3.241.695.382 1.187.421v.938h-2.5v.562H3.25c.559-.02 1.11-.047 1.64-.078.528-.04.962-.082 1.298-.125zM4.625-2.813c0 .22-.129.399-.375.532-.25.136-.574.203-.969.203-.386 0-.707-.067-.953-.203-.25-.145-.375-.328-.375-.547 0-.207.125-.383.375-.531.246-.145.567-.22.953-.22.395 0 .719.075.969.22.246.148.375.332.375.546zm0 0"/></symbol><symbol overflow="visible" id="ab"><path d="M4.734-3.125c0-.434-.05-.832-.14-1.188a3.056 3.056 0 0 0-.407-.921 1.837 1.837 0 0 0-.625-.579 1.667 1.667 0 0 0-.843-.218c-.313 0-.598.074-.844.218a1.95 1.95 0 0 0-.625.579c-.18.261-.316.57-.406.921-.094.356-.14.754-.14 1.188 0 .438.046.84.14 1.203.09.356.226.66.406.906.176.25.383.45.625.594.246.137.531.203.844.203.308 0 .594-.066.844-.203.246-.144.457-.344.624-.594.176-.257.313-.566.407-.921.09-.352.14-.75.14-1.188zM7.22 1.25v-7.89h-.657v7.89zM4.094-3.14c0 .324-.035.628-.094.906a2.778 2.778 0 0 1-.266.718A1.522 1.522 0 0 1 3.313-1a.988.988 0 0 1-.579.172A.995.995 0 0 1 2.141-1a1.447 1.447 0 0 1-.422-.5 2.54 2.54 0 0 1-.266-.734 4.138 4.138 0 0 1-.094-.907c0-.3.032-.586.094-.859.059-.277.149-.531.266-.75.113-.207.254-.367.422-.484a.978.978 0 0 1 .593-.188c.215 0 .41.067.579.188.164.117.304.277.421.484.114.219.204.473.266.75.059.273.094.559.094.86zm0 0"/></symbol><symbol overflow="visible" id="ac"><path d="M5.484-.813c-.242-.12-.511-.312-.812-.562a3.882 3.882 0 0 1-.797-.89A3.9 3.9 0 0 1 3.297-3.5a5.556 5.556 0 0 1-.156-1.313v-1.375h-.688v1.375c0 .438-.058.887-.172 1.344-.117.45-.289.856-.515 1.219-.23.344-.504.664-.813.953a4.563 4.563 0 0 1-.89.688l.53.453a4.25 4.25 0 0 0 .673-.516c.246-.226.476-.473.687-.734a5.4 5.4 0 0 0 .578-.907c.133-.277.223-.503.266-.671.05.168.144.394.281.671.145.274.336.555.578.844.227.282.469.52.719.703.258.188.473.336.64.438zM6.891-6.64h-.657V1.25h.657v-4.11h1.265v-.578H6.891zm0 0"/></symbol></defs><g fill="#393536"><use xlink:href="#a" x="535.245" y="48.426"/><use xlink:href="#b" x="540.818" y="48.426"/><use xlink:href="#c" x="546.392" y="48.426"/></g><g fill="#4f4c4d"><use xlink:href="#d" x="336.961" y="47.727"/><use xlink:href="#e" x="344.962" y="47.727"/><use xlink:href="#f" x="352.962" y="47.727"/><use xlink:href="#g" x="360.962" y="47.727"/><use xlink:href="#h" x="368.962" y="47.727"/><use xlink:href="#i" x="371.569" y="47.727"/><use xlink:href="#j" x="379.57" y="47.727"/><use xlink:href="#k" x="387.57" y="47.727"/><use xlink:href="#l" x="395.57" y="47.727"/><use xlink:href="#m" x="403.57" y="47.727"/><use xlink:href="#n" x="411.571" y="47.727"/><use xlink:href="#d" x="419.571" y="47.727"/><use xlink:href="#e" x="427.571" y="47.727"/></g><use xlink:href="#o" x="435.571" y="47.727" fill="#231f20"/><g fill="#231f20"><use xlink:href="#p" x="438.177" y="47.727"/><use xlink:href="#q" x="446.178" y="47.727"/><use xlink:href="#r" x="454.178" y="47.727"/><use xlink:href="#s" x="462.178" y="47.727"/><use xlink:href="#t" x="470.178" y="47.727"/><use xlink:href="#u" x="478.179" y="47.727"/><use xlink:href="#v" x="486.179" y="47.727"/><use xlink:href="#w" x="494.179" y="47.727"/><use xlink:href="#x" x="496.786" y="47.727"/></g><g fill="#231f20"><use xlink:href="#y" x="501.703" y="47.727"/><use xlink:href="#z" x="506.503" y="47.727"/><use xlink:href="#A" x="508.436" y="47.727"/><use xlink:href="#w" x="511.043" y="47.727"/><use xlink:href="#B" x="513.65" y="47.727"/><use xlink:href="#C" x="517.605" y="47.727"/></g><use xlink:href="#D" x="397.651" y="345.004" fill="#33459a"/><g fill="#231f20"><use xlink:href="#E" x="405.667" y="345.004"/><use xlink:href="#F" x="410.53" y="345.004"/><use xlink:href="#G" x="415.392" y="345.004"/><use xlink:href="#H" x="417.551" y="345.004"/><use xlink:href="#E" x="422.413" y="345.004"/><use xlink:href="#G" x="427.276" y="345.004"/><use xlink:href="#E" x="429.434" y="345.004"/><use xlink:href="#I" x="434.297" y="345.004"/><use xlink:href="#J" x="439.16" y="345.004"/><use xlink:href="#J" x="442.155" y="345.004"/></g><use xlink:href="#K" x="445.15" y="345.004" fill="#616471"/><g fill="#231f20"><use xlink:href="#J" x="447.907" y="345.004"/><use xlink:href="#J" x="450.902" y="345.004"/></g><g fill="#33459a"><use xlink:href="#L" x="453.897" y="345.004"/><use xlink:href="#M" x="461.913" y="345.004"/><use xlink:href="#N" x="466.776" y="345.004"/><use xlink:href="#J" x="474.793" y="345.004"/><use xlink:href="#O" x="477.788" y="345.004"/><use xlink:href="#P" x="485.804" y="345.004"/><use xlink:href="#N" x="493.821" y="345.004"/></g><use xlink:href="#D" x="397.651" y="693.734" fill="#33459a"/><g fill="#231f20"><use xlink:href="#E" x="405.667" y="693.734"/><use xlink:href="#F" x="410.53" y="693.734"/><use xlink:href="#G" x="415.392" y="693.734"/><use xlink:href="#H" x="417.551" y="693.734"/><use xlink:href="#E" x="422.413" y="693.734"/><use xlink:href="#G" x="427.276" y="693.734"/><use xlink:href="#E" x="429.434" y="693.734"/><use xlink:href="#I" x="434.297" y="693.734"/><use xlink:href="#J" x="439.16" y="693.734"/><use xlink:href="#J" x="442.155" y="693.734"/></g><use xlink:href="#K" x="445.15" y="693.734" fill="#616471"/><g fill="#231f20"><use xlink:href="#J" x="447.907" y="693.734"/><use xlink:href="#J" x="450.902" y="693.734"/></g><g fill="#33459a"><use xlink:href="#L" x="453.897" y="693.734"/><use xlink:href="#M" x="461.913" y="693.734"/><use xlink:href="#N" x="466.776" y="693.734"/><use xlink:href="#J" x="474.793" y="693.734"/><use xlink:href="#O" x="477.788" y="693.734"/><use xlink:href="#P" x="485.804" y="693.734"/><use xlink:href="#N" x="493.821" y="693.734"/></g><use xlink:href="#Q" x="393.967" y="345.004" fill="#33459a"/><g fill="#231f20"><use xlink:href="#R" x="401.984" y="345.004"/><use xlink:href="#S" x="406.847" y="345.004"/><use xlink:href="#T" x="411.709" y="345.004"/><use xlink:href="#S" x="413.868" y="345.004"/><use xlink:href="#U" x="418.73" y="345.004"/><use xlink:href="#T" x="423.593" y="345.004"/><use xlink:href="#R" x="425.751" y="345.004"/><use xlink:href="#V" x="430.614" y="345.004"/><use xlink:href="#W" x="435.477" y="345.004"/><use xlink:href="#W" x="438.472" y="345.004"/></g><use xlink:href="#X" x="441.467" y="345.004" fill="#616471"/><g fill="#231f20"><use xlink:href="#W" x="444.224" y="345.004"/><use xlink:href="#W" x="447.219" y="345.004"/></g><g fill="#33459a"><use xlink:href="#Y" x="450.214" y="345.004"/><use xlink:href="#Z" x="458.23" y="345.004"/><use xlink:href="#Z" x="463.093" y="345.004"/><use xlink:href="#aa" x="467.956" y="345.004"/><use xlink:href="#W" x="475.972" y="345.004"/><use xlink:href="#ab" x="478.967" y="345.004"/><use xlink:href="#ac" x="486.984" y="345.004"/><use xlink:href="#aa" x="495" y="345.004"/></g><use xlink:href="#Q" x="393.967" y="693.734" fill="#33459a"/><g fill="#231f20"><use xlink:href="#R" x="401.984" y="693.734"/><use xlink:href="#S" x="406.847" y="693.734"/><use xlink:href="#T" x="411.709" y="693.734"/><use xlink:href="#S" x="413.868" y="693.734"/><use xlink:href="#U" x="418.73" y="693.734"/><use xlink:href="#T" x="423.593" y="693.734"/><use xlink:href="#R" x="425.751" y="693.734"/><use xlink:href="#V" x="430.614" y="693.734"/><use xlink:href="#W" x="435.477" y="693.734"/><use xlink:href="#W" x="438.472" y="693.734"/></g><use xlink:href="#X" x="441.467" y="693.734" fill="#616471"/><g fill="#231f20"><use xlink:href="#W" x="444.224" y="693.734"/><use xlink:href="#W" x="447.219" y="693.734"/></g><g fill="#33459a"><use xlink:href="#Y" x="450.214" y="693.734"/><use xlink:href="#Z" x="458.23" y="693.734"/><use xlink:href="#Z" x="463.093" y="693.734"/><use xlink:href="#aa" x="467.956" y="693.734"/><use xlink:href="#W" x="475.972" y="693.734"/><use xlink:href="#ab" x="478.967" y="693.734"/><use xlink:href="#ac" x="486.984" y="693.734"/><use xlink:href="#aa" x="495" y="693.734"/></g></svg>