<svg xmlns="http://www.w3.org/2000/svg" xmlns:xlink="http://www.w3.org/1999/xlink" width="793.701" height="1058.268" viewBox="0 0 595.276 793.701" version="1.2"><defs><clipPath id="ay"><path d="M362 140h232.555v233H362zm0 0"/></clipPath><clipPath id="az"><path d="M365 140h229.555v233H365zm0 0"/></clipPath><clipPath id="aA"><path d="M368 140h226.555v233H368zm0 0"/></clipPath><clipPath id="aB"><path d="M371 140h223.555v233H371zm0 0"/></clipPath><clipPath id="aC"><path d="M374 140h220.555v233H374zm0 0"/></clipPath><clipPath id="aD"><path d="M377 140h217.555v233H377zm0 0"/></clipPath><clipPath id="aE"><path d="M380 140h214.555v233H380zm0 0"/></clipPath><clipPath id="aF"><path d="M383 140h211.555v233H383zm0 0"/></clipPath><symbol overflow="visible" id="a"><path d="M1.375-5.844V.453h.813v-6.297zM5.125.453l1.734-6.297h-.843L4.64-.5 3.266-5.844h-.844L4.156.453zm0 0"/></symbol><symbol overflow="visible" id="b"><path d="M.75.047v1.016h1.031V.046zm0 0"/></symbol><symbol overflow="visible" id="d"><path d="M3.75.703v-.64H.984c.051-.34.172-.665.36-.97.183-.308.39-.546.61-.702l.5-.375c.214-.164.405-.32.562-.47.164-.151.28-.28.343-.374.153-.207.266-.43.329-.672a2.68 2.68 0 0 0 0-1.516 1.872 1.872 0 0 0-.329-.625 1.67 1.67 0 0 0-.546-.421 1.679 1.679 0 0 0-.735-.157c-.312 0-.582.067-.797.188a1.57 1.57 0 0 0-.531.484c-.148.211-.258.457-.328.734a4.355 4.355 0 0 0-.094.938H1c0-.227.02-.445.063-.656.039-.207.101-.395.187-.563.09-.164.203-.297.328-.39a.853.853 0 0 1 .484-.141c.31 0 .551.129.72.375.175.25.265.586.265 1 0 .2-.027.398-.078.594a1.47 1.47 0 0 1-.219.484c-.094.149-.184.27-.266.36-.086.085-.21.19-.375.312l-.703.531c-.398.305-.695.7-.89 1.188C.316-.29.21.203.203.703zm0 0"/></symbol><symbol overflow="visible" id="e"><path d="M2-6.219c-.574 0-1.008.32-1.297.953C.422-4.64.281-3.77.281-2.656c0 1.117.14 1.988.422 2.61.29.612.723.921 1.297.921.57 0 1.004-.309 1.297-.922.3-.621.453-1.492.453-2.61 0-1.113-.152-1.984-.453-2.609-.293-.632-.727-.953-1.297-.953zm0 .61c.32 0 .578.27.766.796.183.532.28 1.254.28 2.157 0 .898-.097 1.613-.28 2.14-.188.52-.446.782-.766.782-.324 0-.574-.262-.75-.782-.18-.527-.266-1.242-.266-2.14 0-.903.086-1.625.266-2.156.176-.528.426-.797.75-.797zm0 0"/></symbol><symbol overflow="visible" id="f"><path d="M7.016-.75v-5.875H6.28v.703H4.078v.594h2.203v.828H4.078v.61h2.203v3.14zM5.562-3.14c-.136.03-.32.07-.546.109-.22.031-.465.058-.735.078-.25.031-.511.058-.781.078a8.366 8.366 0 0 1-.719.031l-1.156.016v-3.578h-.75v4.234H2.25c.207-.008.39-.015.547-.015.27-.008.539-.02.812-.032.278-.02.54-.047.782-.078.246-.027.472-.062.671-.094.196-.027.364-.066.5-.109zM7.22 1.202v-.64H2.484v-1.829H1.72v2.47zm0 0"/></symbol><symbol overflow="visible" id="g"><path d="M6-6.625v8h.766v-4.234h1.187v-.672H6.766v-3.094zM3.125-4.687v-1.594h-.797v1.468c0 .438-.05.856-.14 1.25-.094.399-.243.77-.438 1.11-.2.355-.445.68-.734.969a5.975 5.975 0 0 1-1 .796c.101.075.218.16.343.25.133.094.239.18.313.25a3.79 3.79 0 0 0 .625-.515c.215-.207.426-.438.625-.688.176-.226.336-.468.484-.718.145-.258.254-.508.328-.75.09.273.22.535.375.78.153.25.332.481.532.688.175.2.359.387.546.563.196.168.395.316.594.437.07-.07.16-.156.266-.25a2.83 2.83 0 0 1 .328-.28 5.247 5.247 0 0 1-1-.735c-.293-.27-.54-.57-.734-.907a3.43 3.43 0 0 1-.391-.968 4.88 4.88 0 0 1-.125-1.156zm0 0"/></symbol><symbol overflow="visible" id="h"><path d="M7.094-2.406v-4.219h-.75v1.766H4.75a1.816 1.816 0 0 0-.234-.672 1.852 1.852 0 0 0-.454-.532 2.145 2.145 0 0 0-.625-.343 2.05 2.05 0 0 0-.75-.14c-.292 0-.57.054-.828.155-.25.106-.472.246-.656.422a1.713 1.713 0 0 0-.437.61 1.938 1.938 0 0 0-.157.78c0 .282.051.544.157.782.101.242.25.445.437.61.184.18.406.32.656.421.258.094.536.141.829.141.257 0 .503-.035.734-.11.226-.081.43-.19.61-.328.175-.132.327-.3.452-.5.121-.195.211-.414.266-.656h1.594v1.813zM1.359-4.578c0-.363.118-.672.36-.922.238-.258.566-.39.984-.39.402 0 .727.132.969.39.238.25.36.559.36.922 0 .367-.122.676-.36.922-.242.25-.567.375-.969.375-.418 0-.746-.125-.984-.375-.242-.246-.36-.555-.36-.922zm5.72 5.86v-3.298h-.735v.97H2.547v-.97H1.78v3.297zm-.735-.61H2.547v-1.11h3.797zm0 0"/></symbol><symbol overflow="visible" id="i"><path d="M7.781.375v-.656H4.406v-1.75H6.75v-4.281h-.734v1.406h-3.97v-1.407h-.75v4.282h2.345v1.75H.28v.656zM6.016-2.672h-3.97v-1.61h3.97zm0 0"/></symbol><symbol overflow="visible" id="j"><path d="M1.156-6.156v.625h4.907c-.032.625-.098 1.3-.188 2.015-.094.72-.207 1.41-.328 2.063h.75c.07-.352.133-.727.187-1.125.059-.402.118-.813.172-1.219.051-.402.094-.805.125-1.203.028-.402.055-.79.078-1.156zM7.796.375v-.656h-4.03v-3.063h-.75V-.28H.28v.656zm0 0"/></symbol><symbol overflow="visible" id="k"><path d="M2.875.031c.434 0 .82-.144 1.156-.437.332-.301.594-.64.782-1.016.183-.34.316-.71.39-1.11.082-.402.125-.804.125-1.202 0-.403-.05-.813-.14-1.22a4.843 4.843 0 0 0-.407-1.155A3.031 3.031 0 0 0 4-7.063a1.747 1.747 0 0 0-1.14-.421c-.844 0-1.473.457-1.876 1.359-.406.906-.609 1.707-.609 2.39 0 .712.203 1.52.61 2.422C1.386-.413 2.02.032 2.874.032zm0-.281c-.75 0-1.227-.441-1.422-1.328-.2-.895-.297-1.613-.297-2.156 0-.54.098-1.254.297-2.141.195-.895.672-1.344 1.422-1.344.363 0 .648.137.86.407.206.273.363.566.468.875.113.343.195.71.25 1.093.059.387.094.758.094 1.11 0 .324-.035.675-.094 1.046a9.33 9.33 0 0 1-.203 1.016c-.094.336-.254.66-.469.969-.21.305-.511.453-.906.453zm0 0"/></symbol><symbol overflow="visible" id="l"><path d="M4.61-8.531a8.282 8.282 0 0 0-1.594.828A7.178 7.178 0 0 0 1.687-6.5a6.863 6.863 0 0 0-.953 1.453A3.928 3.928 0 0 0 .36-3.359c0 .75.223 1.507.672 2.265C1.477-.344 2.13.031 2.984.031c.715 0 1.286-.27 1.704-.812.425-.551.64-1.16.64-1.828a2.92 2.92 0 0 0-.516-1.641c-.343-.508-.847-.766-1.5-.766-.167 0-.34.036-.515.094-.18.055-.34.145-.485.266a.984.984 0 0 0-.187.156c-.063.074-.094.145-.094.203 0 .031.004.067.016.094.02.023.047.031.078.031.059 0 .148-.078.266-.234.12-.164.347-.25.671-.25.208 0 .395.058.563.172a1.5 1.5 0 0 1 .453.421c.152.243.274.508.36.797.09.293.14.586.14.875 0 .282-.043.555-.125.813-.086.262-.21.52-.375.766-.125.18-.273.324-.437.437a1.095 1.095 0 0 1-.594.156c-.7 0-1.195-.375-1.485-1.125-.292-.758-.437-1.406-.437-1.937 0-.614.11-1.192.328-1.735.215-.539.524-1.05.922-1.53.309-.384.703-.75 1.172-1.095.476-.34.953-.597 1.422-.765.039-.02.093-.04.156-.063.07-.027.11-.066.11-.11 0-.038-.012-.07-.032-.093a.122.122 0 0 0-.094-.047.728.728 0 0 0-.265.078c-.117.055-.196.09-.235.11zm0 0"/></symbol><symbol overflow="visible" id="m"><path d="M1.875-1.047h-.203c-.117 0-.172-.02-.172-.062 0-.04.031-.102.094-.188.058-.09.11-.156.14-.187L3.656-3.36c.34-.301.66-.633.953-1 .29-.371.438-.805.438-1.297 0-.559-.227-1-.672-1.313a2.416 2.416 0 0 0-1.453-.484c-.375 0-.723.066-1.031.187-.313.125-.598.34-.844.641a6.377 6.377 0 0 1-.219.328c-.117.168-.172.293-.172.375 0 .031.008.059.031.078.02.024.047.032.079.032.05 0 .093-.024.125-.079.039-.05.07-.093.093-.125.153-.3.375-.55.657-.75.277-.207.597-.312.953-.312.445 0 .812.144 1.094.422.277.281.421.644.421 1.078 0 .555-.23 1.121-.687 1.703-.45.574-.852 1.059-1.203 1.453L.703-.594a.789.789 0 0 1-.094.156.3.3 0 0 0-.062.157c0 .074.047.11.14.11.09-.009.165-.016.22-.016h3.968a.406.406 0 0 0 .188-.032c.039-.027.062-.082.062-.156v-1.328-.156c0-.059-.043-.094-.125-.094-.063 0-.102.035-.11.094-.011.054-.023.105-.03.156-.032.293-.114.476-.235.547-.125.074-.336.11-.625.11zm0 0"/></symbol><symbol overflow="visible" id="n"><path d="M4.344.828v-.953H1.28a1.39 1.39 0 0 1 .125-.484c.07-.176.16-.344.266-.5.09-.164.191-.313.297-.438.113-.121.218-.226.312-.312l.547-.422c.238-.184.445-.364.625-.531.176-.165.317-.317.422-.454.184-.27.316-.53.39-.78.083-.247.126-.54.126-.876 0-.32-.051-.629-.141-.922a2.664 2.664 0 0 0-.36-.765 2.04 2.04 0 0 0-.64-.516 1.916 1.916 0 0 0-.906-.203c-.711 0-1.23.273-1.563.812-.336.532-.5 1.239-.5 2.11h1.047c0-.258.016-.508.047-.75.04-.239.102-.446.188-.625a1.34 1.34 0 0 1 .328-.438.641.641 0 0 1 .453-.172c.277 0 .504.145.672.422.175.274.265.633.265 1.078 0 .2-.035.403-.094.61-.054.21-.12.367-.203.468a2.048 2.048 0 0 1-.265.344 5.645 5.645 0 0 1-.406.39l-.766.626A3.5 3.5 0 0 0 .484-1 5.092 5.092 0 0 0 .141.828zm0 0"/></symbol><symbol overflow="visible" id="o"><path d="M2.266-7.297c-.688 0-1.207.379-1.547 1.125-.336.75-.5 1.774-.5 3.063 0 1.304.164 2.324.5 3.062.34.738.86 1.11 1.547 1.11.675 0 1.187-.372 1.53-1.11.352-.738.532-1.758.532-3.062 0-1.29-.18-2.313-.531-3.063-.344-.746-.856-1.125-1.531-1.125zm0 .938c.3 0 .546.293.734.875.184.586.281 1.379.281 2.375 0 1-.097 1.793-.281 2.375-.188.574-.434.859-.734.859-.305 0-.551-.285-.735-.86-.18-.581-.265-1.374-.265-2.374 0-.996.086-1.79.265-2.375.184-.582.43-.875.735-.875zm0 0"/></symbol><symbol overflow="visible" id="q"><path d="M2.61.828h1.03v-1.984h.829v-.907H3.64v-5.265H2.75L.125-2.125v.969h2.484zm0-6v3.11H1.077zm0 0"/></symbol><symbol overflow="visible" id="r"><path d="M.813-6.61V-5H.14v.797h.671v3.828c0 .367.07.66.22.89.144.239.437.36.874.36.02 0 .067-.008.14-.016.071 0 .15-.007.235-.015.07-.012.14-.028.203-.047.07-.012.125-.024.157-.031V0c-.094.02-.16.031-.188.031h-.078c-.188.008-.32-.008-.39-.047-.075-.039-.11-.18-.11-.421v-3.766h.766V-5h-.766v-1.61zm0 0"/></symbol><symbol overflow="visible" id="s"><path d="M1.656-4.484v-2.688H.61V.781h1.047V-2.28c0-.364.032-.672.094-.922.07-.246.164-.453.281-.61.114-.152.242-.269.39-.343.153-.07.313-.11.47-.11.308 0 .53.118.656.344.133.23.203.586.203 1.063V.78h1.078v-3.703c0-.8-.164-1.367-.484-1.703-.313-.34-.742-.516-1.282-.516-.304 0-.574.067-.812.188-.23.125-.43.285-.594.469zm0 0"/></symbol><symbol overflow="visible" id="t"><path d="M.719-7.156V.78h1.047v-7.937zm0 0"/></symbol><symbol overflow="visible" id="u"><path d="M1.625-4.406V-5H.609V.781h1.047V-2.25c0-.633.102-1.125.313-1.469.207-.351.535-.531.984-.531.3 0 .508.145.625.422.121.273.188.598.188.969V.78h1.062v-3.703c0-.3-.027-.586-.078-.86a2.178 2.178 0 0 0-.266-.702 1.353 1.353 0 0 0-.53-.47c-.22-.112-.505-.171-.845-.171-.324 0-.613.07-.859.203-.242.125-.45.3-.625.516zm0 0"/></symbol><symbol overflow="visible" id="v"><path d="M.406-2c0 .492.055.926.172 1.297.121.375.29.691.5.937.207.258.453.454.734.579.278.132.583.203.907.203.695 0 1.238-.2 1.625-.594a2.68 2.68 0 0 0 .734-1.453H4.031c-.074.355-.226.644-.453.86-.219.214-.48.327-.781.327-.406 0-.723-.172-.938-.515-.21-.34-.32-.82-.328-1.438h3.61v-.219-.203c0-.07-.008-.14-.016-.203v-.234a3.458 3.458 0 0 0-.219-1.031 2.37 2.37 0 0 0-.484-.797 2.085 2.085 0 0 0-.703-.5 2.07 2.07 0 0 0-.844-.188c-.355 0-.684.074-.984.219a2.34 2.34 0 0 0-.782.61 2.987 2.987 0 0 0-.515 1A4.486 4.486 0 0 0 .406-2zm1.156-.578c0-.227.032-.442.094-.64.059-.208.149-.395.266-.563.101-.153.234-.281.39-.375a.89.89 0 0 1 .5-.157c.196 0 .376.055.532.157.152.105.289.242.406.406.09.156.164.34.219.547.058.21.094.418.094.625zm0 0"/></symbol><symbol overflow="visible" id="w"><path d="M1.64-4.344V-5H.626V.781h1.047V-2.53c0-.301.047-.563.14-.781.09-.215.211-.391.36-.516a1.04 1.04 0 0 1 .5-.235c.183-.027.375-.007.562.063v-1.078a1.686 1.686 0 0 0-.843.062c-.262.094-.512.32-.75.672zm0 0"/></symbol><symbol overflow="visible" id="x"><path d="M2.484-1.781l.5-.078c.153-.02.297-.047.422-.079a1.27 1.27 0 0 0 .297-.093v.656c0 .438-.133.805-.39 1.094-.262.289-.606.437-1.032.437a.74.74 0 0 1-.515-.218C1.609-.215 1.53-.446 1.53-.75c0-.34.086-.586.266-.734.176-.153.406-.254.687-.297zm-.421-.75c-.512.086-.915.289-1.204.61-.28.312-.421.71-.421 1.187 0 .48.144.882.437 1.218.3.332.707.5 1.219.5a2.3 2.3 0 0 0 1-.218c.3-.137.531-.305.687-.5.051.32.223.523.516.609.289.082.625.05 1-.094V.047c-.242.082-.395.101-.453.062C4.78.08 4.75-.023 4.75-.203v-3.328a1.4 1.4 0 0 0-.172-.703 1.357 1.357 0 0 0-.422-.5 2.175 2.175 0 0 0-.672-.297 2.796 2.796 0 0 0-.78-.11c-.595 0-1.083.168-1.454.5-.375.336-.563.805-.563 1.407h1c.008-.278.094-.532.25-.75.153-.215.407-.329.75-.329.31 0 .563.083.75.235.184.148.282.383.282.703 0 .219-.028.383-.078.484-.043.106-.13.164-.25.172zm0 0"/></symbol><symbol overflow="visible" id="y"><path d="M.625-4.969v5.75h1.047v-5.75zm0-2.187v1.11h1.047v-1.11zm0 0"/></symbol><symbol overflow="visible" id="z"><path d="M2.766-4.313c.425 0 .754.211.984.625.227.407.344.95.344 1.626 0 .68-.117 1.222-.344 1.624-.23.407-.559.61-.984.61-.43 0-.754-.203-.97-.61-.218-.402-.327-.945-.327-1.625 0-.675.11-1.218.328-1.624.215-.415.539-.626.969-.626zm0-.859c-.793 0-1.387.29-1.782.86-.398.574-.593 1.324-.593 2.25 0 .937.195 1.69.593 2.25.395.558.989.843 1.782.843.789 0 1.39-.285 1.796-.843.403-.56.61-1.313.61-2.25 0-.926-.207-1.676-.61-2.25-.406-.57-1.007-.86-1.796-.86zm0 0"/></symbol><symbol overflow="visible" id="A"><path d="M.625-7.156V.78h1.047v-7.937zm0 0"/></symbol><symbol overflow="visible" id="B"><path d="M.672-7.156V.78h1.047v-3.61h3.297v-.937H1.719v-2.406h3.75v-.984zm0 0"/></symbol><symbol overflow="visible" id="C"><path d="M3.797.281v.5h1V-5H3.766v2.844c0 .304-.028.59-.079.86a2.678 2.678 0 0 1-.203.702 1.199 1.199 0 0 1-.375.5.99.99 0 0 1-.593.172c-.313 0-.536-.113-.657-.344-.125-.226-.187-.523-.187-.89V-5H.625v3.938c0 .292.023.566.078.812.059.242.16.445.297.625.133.184.313.328.531.422.227.09.508.14.844.14.32 0 .602-.066.844-.187.238-.125.43-.285.578-.469zm0 0"/></symbol><symbol overflow="visible" id="D"><path d="M1.656-4.453V-5H.625V.781h1.047V-2.28c0-.364.031-.672.094-.922.058-.246.148-.453.265-.61a.92.92 0 0 1 .344-.328c.133-.07.27-.109.406-.109.278 0 .469.121.563.36.09.242.14.542.14.906V.78h1.079v-3.36c0-.495.093-.898.28-1.202.184-.301.446-.453.782-.453.238 0 .414.086.531.25.121.156.188.41.188.75V.78h1.078v-3.844c0-.62-.121-1.124-.36-1.5-.242-.37-.667-.562-1.28-.562-.325 0-.622.082-.891.234-.274.157-.461.32-.563.485-.043-.121-.18-.274-.406-.453-.23-.176-.54-.266-.922-.266-.242 0-.488.066-.734.188a1.72 1.72 0 0 0-.61.484zm0 0"/></symbol><symbol overflow="visible" id="E"><path d="M3.984-.688L2.11-7.155H.672V.78h.984v-6.187L3.453.78h1.031L6.25-5.375V.781h1v-7.937H5.812zm0 0"/></symbol><symbol overflow="visible" id="F"><path d="M3.938.36V.78h.968v-7.953H3.891v2.64a1.646 1.646 0 0 0-.594-.437 1.754 1.754 0 0 0-.75-.172c-.617 0-1.133.246-1.547.735C.582-3.914.375-3.184.375-2.22c0 .45.04.871.125 1.266.09.387.234.723.422 1 .176.289.406.515.687.672.278.164.614.25 1 .25.27 0 .52-.059.75-.172.239-.106.43-.254.579-.438zM2.702-4.267c.383 0 .688.207.906.61.215.398.329.93.329 1.594 0 .667-.114 1.199-.329 1.593-.218.399-.523.594-.906.594-.398 0-.71-.195-.937-.594-.22-.394-.329-.926-.329-1.594 0-.664.11-1.195.329-1.593.226-.403.539-.61.937-.61zm0 0"/></symbol><symbol overflow="visible" id="G"><path d="M.375-1.953c0 .898.203 1.605.61 2.125.402.52.94.781 1.609.781.363 0 .676-.058.937-.172a2.01 2.01 0 0 0 .656-.469c.165-.199.297-.43.391-.703.102-.27.176-.562.219-.875H3.766c-.024.18-.059.352-.11.516-.054.168-.133.32-.234.453A.92.92 0 0 1 3.094 0a.786.786 0 0 1-.438.125c-.367 0-.66-.176-.875-.531-.21-.364-.312-.875-.312-1.531 0-.31.023-.61.078-.891.05-.277.125-.531.219-.75.101-.215.234-.39.39-.516a.836.836 0 0 1 .563-.203c.32 0 .562.129.719.375.164.25.273.543.328.875h1.03c-.062-.676-.273-1.195-.624-1.562-.344-.371-.832-.563-1.453-.563a2.15 2.15 0 0 0-1.047.25 2.052 2.052 0 0 0-.719.688c-.2.28-.348.62-.437 1.015-.094.399-.141.82-.141 1.266zm0 0"/></symbol><symbol overflow="visible" id="H"><path d="M2.484-.688L1.297-5H.109L1.922.781h1.11L4.858-5H3.75zm0 0"/></symbol><symbol overflow="visible" id="I"><path d="M.828-4.969H.156v.766h.672V.78h1.047v-4.984h.813v-.766h-.813c0-.308.008-.578.031-.797.02-.226.035-.351.047-.375.02-.082.05-.14.094-.171a.503.503 0 0 1 .234-.047c.008 0 .067.007.172.015.113.012.192.016.235.016v-.89a2.95 2.95 0 0 1-.235-.016c-.125-.008-.2-.016-.219-.016-.554 0-.93.129-1.125.375-.187.242-.28.574-.28 1zm0 0"/></symbol><symbol overflow="visible" id="J"><path d="M.36-3.266c0 1.356.269 2.41.812 3.157C1.722.629 2.484 1 3.453 1c.488 0 .91-.098 1.266-.281C5.082.539 5.39.3 5.64 0c.226-.29.41-.625.546-1 .133-.371.223-.75.266-1.125H5.422c-.031.25-.09.508-.172.766-.086.261-.2.496-.344.703-.156.21-.351.383-.578.515-.219.125-.48.188-.781.188-.656 0-1.18-.266-1.563-.797-.375-.527-.562-1.305-.562-2.328 0-1.07.195-1.895.594-2.469.402-.582.925-.875 1.562-.875.29 0 .54.059.75.172.215.105.399.242.547.406.145.168.254.352.328.547.07.188.117.367.14.531h1.032a3.284 3.284 0 0 0-.203-.859 2.654 2.654 0 0 0-.516-.844 2.746 2.746 0 0 0-.875-.64c-.343-.164-.754-.25-1.218-.25-.524 0-.989.113-1.391.328-.399.218-.727.52-.985.89-.28.368-.492.801-.625 1.297A5.965 5.965 0 0 0 .36-3.266zm0 0"/></symbol><symbol overflow="visible" id="K"><path d="M2.234-4.844a.778.778 0 0 1-.109-.281 1.553 1.553 0 0 1-.047-.344c0-.183.055-.375.172-.562.121-.196.313-.297.563-.297.207 0 .367.09.484.266a.995.995 0 0 1 .187.593c0 .149-.035.301-.093.453-.055.149-.114.27-.172.36a3.03 3.03 0 0 1-.203.25c-.086.086-.192.183-.313.297a6.044 6.044 0 0 1-.172-.204.842.842 0 0 1-.11-.203 1.248 1.248 0 0 1-.108-.171.834.834 0 0 1-.079-.157zm-.906 3.657c0-.32.094-.633.281-.938.184-.3.442-.563.766-.781L3.828-.781a1.87 1.87 0 0 1-.578.656c-.23.152-.492.234-.781.234a1.15 1.15 0 0 1-.797-.328c-.242-.226-.356-.55-.344-.969zm-.984.015C.344-.484.53.04.906.406c.371.371.875.563 1.5.563.403 0 .781-.102 1.125-.297.352-.188.625-.43.813-.719l.562.828h1.188L4.906-.922c.121-.246.239-.55.344-.906.102-.363.176-.738.219-1.125H4.53l-.093.547c-.032.23-.075.426-.125.578L3.155-3.453c.184-.145.344-.274.469-.39.133-.122.254-.243.36-.36.132-.184.234-.39.296-.61.07-.214.11-.46.11-.734 0-.164-.036-.344-.094-.531a1.58 1.58 0 0 0-.266-.516 1.85 1.85 0 0 0-.5-.39 1.473 1.473 0 0 0-.703-.157c-.273 0-.52.059-.734.172-.211.106-.387.242-.531.407a2.096 2.096 0 0 0-.329.578c-.074.21-.105.418-.093.625 0 .148.007.289.03.421.028.125.071.243.126.344.05.125.125.274.219.438.101.168.222.351.359.547-.46.312-.832.675-1.11 1.078a2.343 2.343 0 0 0-.421 1.36zm0 0"/></symbol><symbol overflow="visible" id="L"><path d="M1.703-3.797V-6.25H3.25c.445 0 .785.09 1.016.266.238.18.359.492.359.937 0 .469-.117.8-.344.984-.218.18-.554.266-1 .266zm0 3.672v-2.797h1.75c.426 0 .781.106 1.063.313.277.199.421.543.421 1.03 0 .481-.12.849-.359 1.095-.242.242-.57.359-.984.359zM.672-7.156V.78h2.906c.746 0 1.336-.21 1.766-.625.426-.414.64-.976.64-1.687 0-.278-.039-.532-.109-.75a1.97 1.97 0 0 0-.297-.563 1.535 1.535 0 0 0-.406-.375 5.204 5.204 0 0 0-.453-.265c.101-.04.21-.102.328-.188.113-.09.21-.207.297-.344.101-.132.18-.296.234-.484.059-.184.094-.41.094-.672 0-.27-.05-.523-.14-.766a1.709 1.709 0 0 0-.391-.625 2.076 2.076 0 0 0-.641-.421 2.106 2.106 0 0 0-.875-.172zm0 0"/></symbol><symbol overflow="visible" id="M"><path d="M5.64-7.156H.048v.953h2.265V.78h1.079v-6.984h2.25zm0 0"/></symbol><symbol overflow="visible" id="N"><path d="M1.594-4.5v-.484H.609v8.093h1.063V.484c.152.153.336.274.547.36.215.09.445.14.687.14.383 0 .719-.086 1-.25.278-.156.508-.382.688-.671.183-.278.32-.614.406-1 .09-.395.14-.817.14-1.266 0-.477-.058-.899-.171-1.266a3.03 3.03 0 0 0-.453-.922c-.2-.246-.43-.437-.688-.562a1.99 1.99 0 0 0-.844-.188c-.273 0-.535.067-.78.188-.25.117-.458.27-.61.453zm1.218.25c.383 0 .688.207.907.61.226.398.344.925.344 1.578 0 .68-.118 1.214-.344 1.609-.219.398-.524.594-.906.594-.387 0-.692-.196-.907-.594-.21-.395-.312-.93-.312-1.61 0-.652.101-1.18.312-1.578.215-.402.52-.609.907-.609zm0 0"/></symbol><symbol overflow="visible" id="O"><path d="M2.516-.688L1.312-5H.157L1.97.953l-.235.719c-.093.277-.191.46-.28.547-.087.09-.227.113-.423.062-.023 0-.086-.02-.187-.047a8.023 8.023 0 0 1-.25-.078v.89c.05.02.148.04.297.063.144.028.25.047.312.047.258 0 .484-.05.672-.14a.983.983 0 0 0 .422-.344c.144-.219.297-.54.453-.953.152-.418.348-1.004.578-1.75L4.844-5H3.719zm0 0"/></symbol><symbol overflow="visible" id="P"><path d="M4.719-7.328h-.75L2.344-.984h-.031L.796-7.328H.14L1.953 0h.734l1.641-6.484h.016L5.969 0h.734l1.86-7.328h-.688L6.344-.984h-.032zm0 0"/></symbol><symbol overflow="visible" id="Q"><path d="M1.297 0v-2.844c0-.36 0-.656.125-1 .187-.531.687-1.031 1.406-1.031.938 0 1.313.484 1.313 1.438V0h.578v-3.453c0-.438 0-.828-.25-1.219-.36-.547-.922-.75-1.547-.75-.703 0-1.156.36-1.625.875v-2.781H.703V0zm0 0"/></symbol><symbol overflow="visible" id="R"><path d="M4.016-1.953c0 1.078-.922 1.547-1.844 1.547-.563 0-1.094-.313-1.094-.953 0-.704.531-1.047 1.422-1.11.516-.047 1.016-.094 1.516-.297zM2.219-2.97C1.03-2.797.453-2.266.453-1.375.453-.359 1.25.141 2.141.141c.734 0 1.406-.297 1.89-.875.016.375.078.718.469.78a.774.774 0 0 0 .266.032c.171 0 .375-.062.453-.094V-.5c-.5.188-.61.078-.61-.406v-2.875c0-1.219-.812-1.64-1.843-1.64-1.11 0-2 .5-2.079 1.75h.594c.11-.923.672-1.204 1.485-1.204.906 0 1.25.453 1.25 1.078 0 .188-.016.453-.204.547-.203.094-.562.156-.78.172zm0 0"/></symbol><symbol overflow="visible" id="S"><path d="M2.484-.484A1.742 1.742 0 0 1 2-.406c-.484 0-.5-.219-.5-.75v-3.61h.953v-.515H1.5V-6.75H.906v1.469H.203v.515h.703v3.86c0 .781.328 1.047.906 1.047.282 0 .532-.094.672-.125zm0 0"/></symbol><symbol overflow="visible" id="U"><path d="M1.25 0v-2l.953-.938L4.11 0h.657L2.64-3.375l1.89-1.906h-.797L1.25-2.766v-4.562H.672V0zm0 0"/></symbol><symbol overflow="visible" id="V"><path d="M1.375 0v-5.281H.797V0zm.031-6.422v-.906h-.64v.906zm0 0"/></symbol><symbol overflow="visible" id="W"><path d="M1.297-2.844c0-.36 0-.656.125-1 .187-.531.687-1.031 1.406-1.031.938 0 1.313.484 1.313 1.438V0h.578v-3.453c0-.438 0-.828-.25-1.219-.36-.547-.922-.75-1.547-.75-.703 0-1.156.36-1.625.875v-.734H.703V0h.594zm0 0"/></symbol><symbol overflow="visible" id="X"><path d="M4.61-2.656c0 1.265-.594 2.25-1.704 2.25-.984 0-1.719-.75-1.734-2.063-.047-1.328.516-2.406 1.734-2.406 1.063 0 1.703 1.031 1.703 2.219zm0-1.781c-.36-.641-1.094-.985-1.798-.985-1.546 0-2.265 1.313-2.265 2.797 0 1.563.656 2.766 2.297 2.766.64 0 1.406-.375 1.75-1.063h.015V0h.594v-7.328H4.61zm0 0"/></symbol><symbol overflow="visible" id="Y"><path d="M2.719.14C4.14.14 5.063-.968 5.063-2.64c0-1.547-.766-2.782-2.344-2.782-1.563 0-2.344 1.25-2.344 2.781C.375-.797 1.422.125 2.719.141zm1.719-2.78c0 1.14-.485 2.234-1.72 2.234C1.595-.406 1-1.328 1-2.641c0-1.14.484-2.234 1.719-2.234 1.25 0 1.719 1 1.719 2.234zm0 0"/></symbol><symbol overflow="visible" id="Z"><path d="M.953-4.766V0h.578v-4.766h.985v-.515H1.53v-.64c0-.485.032-1 .625-1 .11 0 .235.015.36.046v-.563a2.426 2.426 0 0 0-.485-.046c-.781 0-1.078.53-1.078 1.375v.828h-.75v.515zm0 0"/></symbol><symbol overflow="visible" id="aa"><path d="M1.219-2.844c0-.437.078-1.078.328-1.422.297-.406.719-.609 1.14-.609.829 0 1.094.469 1.094 1.234V0h.578v-2.844c0-.437.079-1.078.329-1.422.296-.406.718-.609 1.156-.609.828 0 1.078.469 1.078 1.234V0h.594v-3.328c0-1.063-.204-2.094-1.579-2.094-.718 0-1.328.344-1.656 1.016-.218-.563-.547-1.016-1.484-1.016-.656 0-1.266.344-1.563.938H1.22v-.797H.625V0h.594zm0 0"/></symbol><symbol overflow="visible" id="ab"><path d="M4.89-3.61c-.171-1.234-.937-1.812-2.109-1.812-1.515 0-2.328 1.328-2.328 2.797 0 1.563.719 2.766 2.328 2.766 1.281 0 1.985-.797 2.188-1.97h-.625c-.14.876-.688 1.423-1.563 1.423-1.203 0-1.703-1.11-1.703-2.219 0-1.11.5-2.25 1.703-2.25.781 0 1.313.469 1.516 1.266zm0 0"/></symbol><symbol overflow="visible" id="ac"><path d="M1.328-2.594c0-1.172.344-2.187 1.672-2.156v-.672c-.86 0-1.344.281-1.656 1.14h-.016v-1H.734V0h.594zm0 0"/></symbol><symbol overflow="visible" id="ad"><path d="M1.375 0v-7.328H.797V0zm0 0"/></symbol><symbol overflow="visible" id="ae"><path d="M.453-1.656C.5-.656 1.187.14 2.375.14s2.063-.532 2.063-1.532c0-2.03-3.25-1.14-3.25-2.578 0-.531.406-.906 1.156-.906.734 0 1.25.297 1.36 1.11h.593c-.14-1.188-.86-1.657-1.953-1.657-1.125 0-1.781.64-1.781 1.516 0 2.078 3.25 1 3.25 2.515 0 .516-.407.985-1.25.985-.876 0-1.329-.344-1.516-1.25zm0 0"/></symbol><symbol overflow="visible" id="af"><path d="M4.14-2.406c0 1.156-.577 2-1.546 2-.922 0-1.297-.5-1.297-1.406v-3.47H.703v3.485C.703-.703 1.156.141 2.5.141c.89 0 1.328-.5 1.64-.875V0h.579v-5.281H4.14zm0 0"/></symbol><symbol overflow="visible" id="ag"><path d="M1.063-3c.125-1 .671-1.875 1.703-1.875 1.062 0 1.609.844 1.609 1.875zM5-2.5c.016-1.89-.844-2.922-2.234-2.922-1.438 0-2.329 1.266-2.329 2.797 0 1.563.704 2.766 2.329 2.766 1.296 0 1.906-.766 2.187-1.766h-.656C4.125-.844 3.53-.406 2.766-.406 1.64-.406 1.062-1.36 1.062-2.5zm0 0"/></symbol><symbol overflow="visible" id="ah"><path d="M1.36-2.625c0-1.266.609-2.25 1.718-2.25.985 0 1.719.75 1.719 2.078.047 1.313-.516 2.39-1.719 2.39C2-.406 1.36-1.421 1.36-2.624zm0 1.781c.374.64 1.093.985 1.812.985 1.547 0 2.25-1.313 2.25-2.797 0-1.547-.656-2.766-2.281-2.766-.641 0-1.422.375-1.766 1.078h-.016v-.937H.766v7.36h.593zm0 0"/></symbol><symbol overflow="visible" id="ai"><path d="M2.688-1.86c0-.406-.016-.843.203-1.202C3.453-4 4.609-4.438 4.609-5.61c0-1.157-.796-1.922-2.125-1.922C1.22-7.531.281-6.61.375-5.25h.594c-.031-.969.531-1.734 1.5-1.734s1.515.593 1.515 1.312c0 .766-.765 1.297-1.328 1.922-.515.563-.547 1.156-.547 1.89zM2.765 0v-.89h-.72V0zm0 0"/></symbol><symbol overflow="visible" id="aj"><path d="M.828 0l.828-2.297h3.219L5.688 0h.687L3.672-7.328h-.75L.14 0zm2.438-6.75L4.64-2.89H1.89zm0 0"/></symbol><symbol overflow="visible" id="ak"><path d="M3.875-5.281h-.656l-1.172 4.5-1.313-4.5H.141L1.687 0h.704l1.125-4.438h.03L4.642 0h.625l1.656-5.281h-.61L4.984-.813zm0 0"/></symbol><symbol overflow="visible" id="al"><path d="M.672 2c.156.047.344.078.547.078.812 0 1.125-.828 1.61-2.156l1.89-5.203h-.64L2.452-.75.828-5.281H.172L2.14.047C1.92.5 1.812 1.5 1.156 1.5c-.172 0-.328-.031-.484-.063zm0 0"/></symbol><symbol overflow="visible" id="am"><path d="M4.61-2.625c0 1.203-.641 2.219-1.704 2.219-1.219 0-1.781-1.078-1.734-2.39.016-1.329.75-2.079 1.734-2.079 1.11 0 1.703.984 1.703 2.25zm0-1.719h-.016c-.344-.703-1.11-1.078-1.75-1.078-1.64 0-2.297 1.219-2.297 2.766C.547-1.172 1.266.14 2.812.14c.704 0 1.438-.344 1.797-.985C4.641.36 4.438 1.61 2.83 1.61c-.704 0-1.345-.171-1.517-.968H.688c.032.625.657 1.515 2.141 1.515 1.922 0 2.375-1.25 2.375-2.672V-5.28H4.61zm0 0"/></symbol><symbol overflow="visible" id="an"><path d="M1.39 0v-3.5h3.516v-.594H1.391V-6.75h3.875v-.578H.719V0zm0 0"/></symbol><symbol overflow="visible" id="ao"><path d="M1.719-.89H1V0h.328v.344c0 .406-.172.578-.328.672v.375c.406-.125.719-.5.719-1.079zm0 0"/></symbol><symbol overflow="visible" id="ap"><path d="M4 0h.703l-1.89-2.734L4.64-5.281h-.75l-1.438 2.11-1.39-2.11H.328l1.797 2.547L.172 0H.89l1.578-2.281zm0 0"/></symbol><symbol overflow="visible" id="aq"><path d="M4.61-2.656c0 1.265-.594 2.25-1.704 2.25-.984 0-1.719-.75-1.734-2.063-.047-1.328.516-2.406 1.734-2.406 1.063 0 1.703 1.031 1.703 2.219zm0-1.688h-.016c-.344-.703-1.11-1.078-1.75-1.078-1.64 0-2.297 1.219-2.297 2.766C.547-1.172 1.266.14 2.812.14c.704 0 1.438-.344 1.797-.985v2.922h.594v-7.36H4.61zm0 0"/></symbol><symbol overflow="visible" id="ar"><path d="M1.719 0v-.89H1V0zm0 0"/></symbol><symbol overflow="visible" id="as"><path d="M.422-2.188C.422-.593 1.5.188 2.969.188c1.625 0 2.578-.782 2.578-2.141 0-2.828-3.984-1.469-4.297-3.36-.11-.765.375-1.625 1.719-1.625.906 0 1.734.485 1.734 1.594h.64c0-1.187-.78-2.187-2.374-2.187-1.563 0-2.375.953-2.375 1.968 0 2.891 4.281 1.375 4.281 3.641 0 .813-.516 1.531-1.781 1.531-1.078 0-1.922-.484-2.031-1.796zm0 0"/></symbol><symbol overflow="visible" id="at"><path d="M2.11 0h.656l1.953-5.281h-.625L2.454-.75.796-5.281H.172zm0 0"/></symbol><symbol overflow="visible" id="au"><path d="M1.36-2.656c0-1.188.64-2.219 1.718-2.219 1.203 0 1.766 1.078 1.719 2.406 0 1.313-.734 2.063-1.719 2.063-1.11 0-1.719-.985-1.719-2.25zm0 1.734h.015C1.719-.234 2.5.141 3.141.141c1.625 0 2.28-1.204 2.28-2.766 0-1.484-.702-2.797-2.25-2.797-.718 0-1.437.344-1.812.984v-2.89H.766V0h.593zm0 0"/></symbol><symbol overflow="visible" id="av"><path d="M5.234 0v-.594h-3.78v-6.734H.796V0zm0 0"/></symbol><symbol overflow="visible" id="aw"><path d="M.156-6.75h2.235V0h.656v-6.75H5.28v-.578H.156zm0 0"/></symbol><symbol overflow="visible" id="ax"><path d="M1.688 0v-7.328H1.03V0zm0 0"/></symbol><symbol overflow="visible" id="aG"><path d="M.781-8.172V.906H1.97V-2.28l1.14-1.297L5.781.906h1.5L3.97-4.516l3.203-3.656H5.609l-3.64 4.25v-4.25zm0 0"/></symbol><symbol overflow="visible" id="aH"><path d="M2.906-.781L1.516-5.72H.172l2.094 6.813L2 1.922c-.105.308-.21.52-.313.625-.105.101-.269.121-.484.062a2.245 2.245 0 0 0-.234-.062 2.602 2.602 0 0 1-.281-.094v1.031c.058.02.175.047.343.079.164.027.285.046.36.046.289 0 .546-.054.765-.156.215-.105.383-.238.5-.39.164-.25.336-.618.516-1.094.183-.48.41-1.149.672-2l1.75-5.688H4.28zm0 0"/></symbol><symbol overflow="visible" id="aI"><path d="M4.375.328v.578h1.156v-6.625H4.344v3.25c0 .344-.028.676-.078.985a3.461 3.461 0 0 1-.235.812c-.117.242-.27.43-.453.563-.18.132-.402.203-.672.203-.367 0-.62-.13-.765-.39-.149-.259-.22-.599-.22-1.016V-5.72H.72v4.5c0 .336.031.645.094.922.07.281.187.524.343.734.153.208.36.364.61.47.257.113.582.171.968.171.371 0 .704-.074.985-.219.277-.148.5-.324.656-.53zm0 0"/></symbol><symbol overflow="visible" id="aJ"><path d="M1.875-5.047v-.672H.703V.906h1.219v-3.469c0-.726.117-1.289.36-1.687.238-.402.613-.61 1.124-.61.352 0 .598.16.735.47.132.312.203.69.203 1.124V.906h1.218v-4.25c0-.34-.027-.664-.078-.969a2.26 2.26 0 0 0-.296-.812 1.495 1.495 0 0 0-.61-.531c-.262-.133-.59-.203-.984-.203-.375 0-.707.074-.985.218a2.448 2.448 0 0 0-.734.594zm0 0"/></symbol><symbol overflow="visible" id="aK"><path d="M4.531-5.125a2.923 2.923 0 0 0-.734-.484 1.872 1.872 0 0 0-.86-.22c-.417 0-.785.099-1.093.282a2.396 2.396 0 0 0-.782.766c-.21.324-.367.699-.468 1.125-.094.43-.14.883-.14 1.36 0 1.148.222 1.98.671 2.5.445.519 1.023.78 1.734.78.371 0 .692-.058.954-.171a1.79 1.79 0 0 0 .656-.47c-.012.384-.04.727-.078 1.032-.032.3-.102.555-.204.766a1.262 1.262 0 0 1-.437.468c-.188.114-.441.172-.75.172-.367 0-.648-.09-.844-.265-.187-.18-.3-.446-.328-.797H.61c.008.351.079.648.204.89.132.246.312.454.53.61.227.164.477.285.75.36.278.07.571.108.876.108.496 0 .922-.082 1.265-.234.34-.148.618-.363.829-.64.207-.282.351-.633.437-1.047.09-.407.14-.88.14-1.407v-6H4.532zm-1.422.266c.434 0 .782.23 1.032.687.257.45.39 1.05.39 1.797 0 .762-.133 1.367-.39 1.813-.25.437-.598.656-1.032.656-.449 0-.804-.219-1.062-.656-.25-.446-.375-1.051-.375-1.813 0-.746.125-1.348.375-1.797.258-.457.613-.687 1.062-.687zm0 0"/></symbol><symbol overflow="visible" id="aL"><path d="M.453-3.11h5.781v-1.14H.454zm0 0"/></symbol><symbol overflow="visible" id="aM"><path d="M.828-8.172V.906h1.219v-9.078zm0 0"/></symbol><symbol overflow="visible" id="aN"><path d="M.734-8.172V.906h1.188v-9.078zm0 0"/></symbol><symbol overflow="visible" id="aP"><path d="M.734-5.688V.907h1.188v-6.593zm0-2.484v1.25h1.188v-1.25zm0 0"/></symbol><symbol overflow="visible" id="aQ"><path d="M1.922-5.094v-.625H.719V.906h1.203v-3.5c0-.414.035-.77.11-1.062.081-.29.187-.52.312-.688.113-.176.25-.304.406-.39a.992.992 0 0 1 .469-.125c.32 0 .535.144.64.421.114.274.172.614.172 1.016V.906h1.235v-3.86c0-.558.109-1.015.328-1.358.215-.352.52-.532.906-.532.27 0 .473.098.61.282.144.187.218.48.218.875V.905h1.25V-3.5c0-.715-.144-1.29-.422-1.719-.273-.426-.761-.64-1.469-.64-.386 0-.738.09-1.046.265-.305.18-.52.367-.641.563-.055-.145-.215-.317-.484-.516-.262-.207-.614-.312-1.047-.312-.281 0-.567.07-.844.203-.281.136-.52.324-.703.562zm0 0"/></symbol><symbol overflow="visible" id="aR"><path d="M.875 3.219c.54-.074.938-.293 1.188-.656.257-.356.39-.793.39-1.313V-.125H.781v1.563h.906c0 .257-.07.484-.203.671-.125.196-.332.336-.609.422zm0 0"/></symbol><symbol overflow="visible" id="aS"><path d="M.781-8.172V.906h1.203v-3.844h2.344c.777 0 1.375-.238 1.781-.718.403-.489.61-1.13.61-1.922 0-.758-.223-1.379-.657-1.86-.43-.488-1.007-.734-1.734-.734zM4-3.969H1.984v-3.156H4c.488 0 .86.121 1.11.36.257.242.39.644.39 1.202 0 .5-.129.895-.375 1.172-.242.282-.617.422-1.125.422zm0 0"/></symbol><symbol overflow="visible" id="aT"><path d="M1.922-5.125v-3.078H.703v9.11h1.219v-3.5c0-.415.035-.77.11-1.063.081-.29.187-.524.312-.703.133-.176.285-.305.453-.391.176-.082.36-.125.547-.125.363 0 .617.133.765.39.145.262.22.669.22 1.22V.905h1.234v-4.25c0-.914-.184-1.566-.547-1.953-.356-.383-.852-.578-1.485-.578-.344 0-.652.074-.922.219a2.176 2.176 0 0 0-.687.531zm0 0"/></symbol><symbol overflow="visible" id="aU"><path d="M.844-.063v1.61h1.625v-1.61zm0 0"/></symbol><symbol overflow="visible" id="aV"><path d="M2-.14v-6.985h1.781c.465 0 .852.105 1.156.313.301.21.54.476.72.796.163.325.284.684.359 1.079.07.398.109.789.109 1.171 0 .543-.05 1.04-.14 1.485a3.96 3.96 0 0 1-.423 1.14c-.187.325-.43.575-.718.75-.293.168-.645.25-1.047.25zM.781-8.173V.906H4c.582 0 1.086-.12 1.516-.36.425-.241.773-.57 1.046-1 .27-.413.47-.91.594-1.484A8.13 8.13 0 0 0 7.36-3.78c0-.614-.074-1.188-.218-1.719A4.78 4.78 0 0 0 6.5-6.906a3.183 3.183 0 0 0-1.063-.922A2.974 2.974 0 0 0 4-8.172zm0 0"/></symbol><symbol overflow="visible" id="aW"><path d="M2.469-6.078L.266.625h.562l.688-2.172h2.593L4.75.625h.61L3.218-6.078zm.375.422l1.11 3.64H1.655zm0 0"/></symbol><symbol overflow="visible" id="aX"><path d="M.14 2.656c.465 0 .774-.101.922-.297.153-.187.235-.464.235-.828v-5.703H.719v5.625c0 .3-.051.508-.14.625-.095.113-.278.176-.548.188v.39h.063a.537.537 0 0 1 .047.016v-.016zM.72-6.078v.75h.578v-.75zm0 0"/></symbol><symbol overflow="visible" id="aY"><path d="M2.438-3.906c.476 0 .832.207 1.062.61.238.398.36.913.36 1.546 0 .637-.122 1.152-.36 1.547C3.27.19 2.914.39 2.437.39c-.48 0-.835-.2-1.062-.594-.23-.395-.344-.91-.344-1.547 0-.633.114-1.148.344-1.547.227-.402.582-.61 1.063-.61zm0-.438c-.649 0-1.137.242-1.47.719-.335.469-.5 1.098-.5 1.875 0 .793.16 1.418.485 1.875.332.465.828.703 1.485.703.652 0 1.156-.238 1.5-.703.34-.457.515-1.082.515-1.875 0-.777-.176-1.406-.516-1.875-.343-.477-.847-.719-1.5-.719zm0 0"/></symbol><symbol overflow="visible" id="aZ"><path d="M3.625-.016v.641h.484v-4.781h-.515v2.343c0 .625-.117 1.145-.344 1.547-.23.395-.574.594-1.031.594-.399 0-.664-.113-.797-.328-.137-.227-.203-.535-.203-.922v-3.234H.672v3.312c0 .48.11.864.328 1.156.227.29.602.438 1.125.438.402 0 .719-.074.938-.219.226-.148.414-.332.562-.547zm0 0"/></symbol><symbol overflow="visible" id="bb"><path d="M1.219-6.078H.656v3.781c0 1.012.172 1.785.516 2.313.351.527.953.796 1.797.796.84 0 1.437-.269 1.781-.796.352-.528.531-1.301.531-2.313v-3.781H4.72v4.187c0 .325-.035.63-.094.907a1.898 1.898 0 0 1-.281.703c-.149.21-.336.363-.563.469-.23.113-.52.171-.86.171a1.66 1.66 0 0 1-.78-.171 1.607 1.607 0 0 1-.532-.47 1.913 1.913 0 0 1-.296-.702 4.138 4.138 0 0 1-.094-.907zm0 0"/></symbol><symbol overflow="visible" id="bc"><path d="M1.219-3.453v-.703H.672V.625h.562v-2.484c0-.29.036-.551.11-.782.07-.238.172-.445.297-.625.12-.164.27-.296.437-.39.164-.09.348-.14.547-.14.383 0 .645.132.781.39.133.261.203.597.203 1V.625h.547v-3.11c0-.238-.023-.46-.062-.671a1.796 1.796 0 0 0-.219-.578 1.19 1.19 0 0 0-.422-.375 1.388 1.388 0 0 0-.687-.157c-.305 0-.59.067-.86.188-.261.117-.492.324-.687.625zm0 0"/></symbol><symbol overflow="visible" id="bd"><path d="M.672-4.125v4.75h.562v-4.75zm0-1.953v.75h.562v-.75zm0 0"/></symbol><symbol overflow="visible" id="be"><path d="M2.188.016L.89-4.156H.297L1.89.625h.593l1.61-4.781h-.578zm0 0"/></symbol><symbol overflow="visible" id="bf"><path d="M.469-1.703c0 .418.05.785.156 1.094.102.312.242.574.422.78.164.216.363.38.594.485.238.102.492.156.765.156.278 0 .531-.042.75-.125A1.91 1.91 0 0 0 3.75.376c.152-.148.281-.309.375-.484.102-.176.172-.352.203-.532h-.547c-.062.293-.21.536-.437.72-.23.194-.524.296-.875.296-.438 0-.778-.168-1.016-.5-.242-.34-.371-.844-.39-1.5h3.375c0-.02-.008-.055-.016-.11v-.156c0-.058-.008-.125-.016-.187v-.188a2.245 2.245 0 0 0-.187-.843 2.198 2.198 0 0 0-.407-.657 1.722 1.722 0 0 0-.578-.421 1.665 1.665 0 0 0-.703-.157c-.281 0-.554.067-.812.188-.25.117-.473.285-.657.5-.18.23-.324.511-.437.844a3.59 3.59 0 0 0-.156 1.109zm.625-.422c0-.246.031-.477.093-.688.07-.214.172-.406.297-.562.121-.152.27-.273.438-.36.176-.09.363-.14.562-.14.227 0 .426.05.594.14.176.094.32.223.438.376.113.156.195.347.25.562.058.211.093.434.093.672zm0 0"/></symbol><symbol overflow="visible" id="bg"><path d="M1.219-3.453v-.703H.672V.625h.547v-2.766c0-.289.039-.539.125-.75a1.23 1.23 0 0 1 .343-.5c.133-.132.286-.226.454-.28.175-.052.347-.071.515-.063v-.532a1.422 1.422 0 0 0-.812.172 1.397 1.397 0 0 0-.625.64zm0 0"/></symbol><symbol overflow="visible" id="bh"><path d="M.453-.672C.461-.254.617.094.922.375c.3.29.738.438 1.312.438.559 0 .993-.133 1.297-.391.301-.262.453-.613.453-1.063 0-.207-.039-.382-.109-.53a1.07 1.07 0 0 0-.297-.36 1.597 1.597 0 0 0-.437-.25 5.31 5.31 0 0 0-.532-.188l-.593-.172c-.293-.082-.512-.187-.657-.312-.136-.133-.203-.344-.203-.625 0-.215.098-.406.297-.563.195-.152.43-.234.703-.234.207 0 .38.035.516.094.144.054.258.117.344.187.082.086.14.18.171.281.04.094.067.184.079.266h.562c0-.133-.035-.273-.094-.422a1.247 1.247 0 0 0-.296-.406 1.588 1.588 0 0 0-.5-.313c-.211-.09-.461-.14-.75-.14-.512 0-.91.129-1.188.375-.273.25-.406.598-.406 1.031 0 .336.113.598.344.781.226.188.519.332.875.422l.656.188c.308.093.554.207.734.328.176.125.266.324.266.594 0 .343-.121.597-.36.75-.242.164-.523.25-.843.25-.399 0-.7-.102-.907-.297a1.07 1.07 0 0 1-.312-.766zm0 0"/></symbol><symbol overflow="visible" id="bi"><path d="M.906-5.61v1.438h-.61v.469h.61v3.469c0 .257.051.472.156.64.114.176.333.266.657.266h.265c.059 0 .11-.008.141-.016.027-.011.047-.015.047-.015V.234h-.047c-.25 0-.43-.027-.531-.078-.094-.054-.14-.218-.14-.5v-3.36h.718v-.468h-.719v-1.437zm0 0"/></symbol><symbol overflow="visible" id="bj"><path d="M.672 2.063v.546c.027.008.082.02.156.032.07.007.133.015.188.015.152 0 .312-.023.468-.062a.677.677 0 0 0 .375-.266c.102-.168.227-.445.375-.828.145-.375.329-.895.547-1.547l1.313-4.187h-.578L2.234.03.938-4.234h-.61L1.922.796l-.234.735c-.106.27-.223.442-.344.516-.125.07-.305.086-.532.047l-.015-.016H.766a.134.134 0 0 0-.063-.015H.672zm0 0"/></symbol><symbol overflow="visible" id="bk"><path d="M1.313-13.625V1.5h2.062v-6.39h4c1.309 0 2.313-.4 3-1.204.695-.808 1.047-1.875 1.047-3.187 0-1.278-.371-2.32-1.11-3.125-.73-.809-1.71-1.219-2.937-1.219zm5.484 7.016H3.375v-5.25h3.422c.832 0 1.46.207 1.89.609.434.398.657 1.059.657 1.984 0 .844-.211 1.504-.625 1.97-.406.46-1.051.687-1.922.687zm0 0"/></symbol><symbol overflow="visible" id="bl"><path d="M5.438-8.203c.832 0 1.472.398 1.921 1.187.446.782.672 1.809.672 3.079 0 1.292-.226 2.324-.672 3.093C6.91-.07 6.27.312 5.438.312c-.844 0-1.489-.382-1.922-1.156-.43-.77-.641-1.8-.641-3.094 0-1.269.21-2.296.64-3.078.434-.789 1.079-1.187 1.922-1.187zm0-1.656c-1.563 0-2.731.55-3.5 1.64C1.163-7.133.78-5.707.78-3.938c0 1.805.383 3.239 1.156 4.297.77 1.059 1.938 1.594 3.5 1.594 1.54 0 2.711-.535 3.516-1.594.809-1.058 1.219-2.492 1.219-4.296 0-1.77-.41-3.196-1.219-4.282-.805-1.09-1.976-1.64-3.515-1.64zm0 0"/></symbol><symbol overflow="visible" id="bm"><path d="M.766-1.953c.02 1.2.379 2.14 1.078 2.828.695.695 1.738 1.047 3.125 1.047 1.34 0 2.367-.336 3.078-1 .715-.668 1.078-1.54 1.078-2.625 0-.488-.086-.899-.25-1.234a2.351 2.351 0 0 0-.672-.844 3.733 3.733 0 0 0-1.078-.594c-.43-.152-.898-.316-1.406-.484l-1.094-.297a3.416 3.416 0 0 1-1.078-.485c-.293-.207-.438-.582-.438-1.125 0-.433.157-.789.47-1.062.308-.27.702-.406 1.171-.406.758 0 1.29.207 1.594.609.3.406.468.836.5 1.281h1.968a3.68 3.68 0 0 0-.234-1.265 3.13 3.13 0 0 0-.687-1.11A3.692 3.692 0 0 0 6.656-9.5c-.5-.195-1.097-.297-1.781-.297-1.242 0-2.195.336-2.86 1-.656.656-.984 1.488-.984 2.485 0 .843.27 1.464.813 1.859.539.398 1.27.73 2.187 1l1.282.375c.62.187 1.078.394 1.359.61.289.21.437.538.437.984 0 .648-.207 1.117-.609 1.406-.398.289-.883.437-1.453.437-.762 0-1.324-.195-1.688-.578-.367-.383-.57-.96-.609-1.734zm0 0"/></symbol><symbol overflow="visible" id="bn"><path d="M1.594-12.594v3.063H.28V-8h1.313v7.281c0 .688.14 1.254.422 1.703.289.457.863.688 1.718.688.051 0 .145-.008.282-.016.144-.011.296-.035.453-.062.144-.012.285-.035.422-.063.132-.023.234-.05.296-.078V0a2.59 2.59 0 0 1-.375.063h-.14C4.297.082 4.035.05 3.89-.032c-.149-.082-.22-.344-.22-.781V-8h1.517v-1.531H3.671v-3.063zm0 0"/></symbol><symbol overflow="visible" id="bp"><path d="M.703-6.203c0 2.574.531 4.57 1.594 5.984 1.07 1.403 2.562 2.11 4.469 2.11.976 0 1.816-.176 2.515-.516A5.37 5.37 0 0 0 11.062 0a6.436 6.436 0 0 0 1.094-1.906 8.91 8.91 0 0 0 .5-2.14h-2.015c-.063.48-.18.964-.344 1.452a4.571 4.571 0 0 1-.672 1.328c-.293.407-.66.739-1.094.985-.437.25-.96.375-1.562.375-1.293 0-2.317-.504-3.063-1.516-.742-1.008-1.11-2.492-1.11-4.453 0-2.027.392-3.598 1.173-4.703.789-1.102 1.804-1.656 3.047-1.656.582 0 1.082.105 1.5.312.414.211.765.477 1.046.797.278.324.493.668.641 1.031.145.367.242.711.297 1.031h2.016a5.983 5.983 0 0 0-.407-1.656 4.83 4.83 0 0 0-1-1.61 5.464 5.464 0 0 0-1.703-1.202c-.68-.32-1.488-.485-2.422-.485-1.023 0-1.93.211-2.718.625a5.564 5.564 0 0 0-1.954 1.688c-.53.71-.933 1.539-1.203 2.484a10.738 10.738 0 0 0-.406 3.016zm0 0"/></symbol><symbol overflow="visible" id="bq"><path d="M3.219-8.266V-9.53H1.234V1.5h2.063v-6.328c0-.57.086-1.063.265-1.469.176-.414.407-.742.688-.984.29-.239.617-.39.984-.453a2.206 2.206 0 0 1 1.11.109v-2.047a3.214 3.214 0 0 0-1.657.125c-.5.18-.992.606-1.468 1.281zm0 0"/></symbol><symbol overflow="visible" id="br"><path d="M3.172-8.406v-1.125H1.203V1.5H3.25v-5.766c0-1.214.207-2.16.625-2.828.414-.664 1.055-1 1.922-1 .59 0 1.004.262 1.234.781.239.524.36 1.145.36 1.86V1.5h2.078v-7.078c0-.57-.051-1.113-.14-1.625a3.59 3.59 0 0 0-.517-1.328 2.488 2.488 0 0 0-1.03-.906c-.438-.215-.997-.329-1.673-.329-.636 0-1.195.13-1.671.375-.481.243-.903.57-1.266.985zm0 0"/></symbol><symbol overflow="visible" id="bs"><path d="M4.875-3.39l1-.141c.3-.04.578-.094.828-.156.258-.06.445-.126.563-.188v1.266c0 .836-.258 1.527-.766 2.078-.5.55-1.168.828-2 .828a1.5 1.5 0 0 1-1.047-.422C3.148-.415 3-.852 3-1.438c0-.632.172-1.097.516-1.39.34-.3.796-.488 1.359-.563zm-.828-1.422c-1.012.156-1.8.542-2.36 1.156C1.133-3.051.86-2.293.86-1.391c0 .918.286 1.688.86 2.313.582.633 1.379.953 2.39.953.715 0 1.368-.137 1.954-.406.59-.274 1.046-.59 1.359-.953.113.613.457 1 1.031 1.156.57.164 1.219.105 1.938-.172V.094c-.461.164-.754.21-.875.14-.125-.074-.188-.285-.188-.64v-6.328c0-.52-.113-.97-.328-1.344a2.98 2.98 0 0 0-.86-.953 4.116 4.116 0 0 0-1.28-.563 6.51 6.51 0 0 0-1.563-.187c-1.168 0-2.117.32-2.844.953-.73.625-1.101 1.52-1.11 2.672h1.97c.027-.54.195-1.02.5-1.438.3-.426.785-.64 1.453-.64.613 0 1.109.152 1.484.453.371.293.563.742.563 1.343 0 .418-.055.727-.157.922a.59.59 0 0 1-.5.344zm0 0"/></symbol><symbol overflow="visible" id="bt"><path d="M1.438-.094v2.672h2.75V-.094zm0 0"/></symbol><symbol overflow="visible" id="bu"><path d="M5.172-13.625L.203 1.5h2.094L3.75-3.031h4.922L10 1.5h2.234l-4.78-15.125zm1.062 2.719l1.86 6.219h-3.86zm0 0"/></symbol><symbol overflow="visible" id="bv"><path d="M.797-3.813c0 .93.113 1.754.344 2.47.238.718.562 1.32.968 1.796.414.496.899.867 1.454 1.11.55.246 1.148.375 1.796.375 1.352 0 2.41-.38 3.172-1.125C9.29.07 9.77-.847 9.97-1.954H7.922c-.149.68-.442 1.226-.875 1.64a2.24 2.24 0 0 1-1.563.61c-.793 0-1.402-.328-1.828-.984-.418-.653-.636-1.57-.656-2.75h7.11v-.391c0-.133-.012-.27-.032-.406 0-.133-.008-.266-.015-.391v-.422a6.281 6.281 0 0 0-.422-1.969 4.885 4.885 0 0 0-.954-1.515 3.977 3.977 0 0 0-1.39-.969 4.171 4.171 0 0 0-1.672-.344c-.688 0-1.332.137-1.922.406a4.499 4.499 0 0 0-1.531 1.172c-.43.524-.77 1.16-1.016 1.907-.242.742-.36 1.59-.36 2.546zm2.265-1.093c0-.426.063-.836.188-1.235.121-.394.3-.742.531-1.046.207-.301.457-.547.75-.735.301-.183.63-.281.985-.281.394 0 .742.101 1.046.297.31.199.57.449.782.75.195.312.347.668.453 1.062.113.387.176.785.187 1.188zm0 0"/></symbol><symbol overflow="visible" id="bw"><path d="M3.25-8.547v-5.11H1.203V1.5H3.25v-5.828c0-.695.066-1.285.203-1.766.133-.476.317-.867.547-1.172a2.02 2.02 0 0 1 .766-.64c.3-.145.601-.219.906-.219.621 0 1.062.223 1.312.656.258.43.391 1.102.391 2.016V1.5h2.094v-7.078c0-1.527-.317-2.613-.938-3.25-.617-.633-1.457-.953-2.515-.953-.594 0-1.13.12-1.594.36-.461.23-.852.523-1.172.874zm0 0"/></symbol><symbol overflow="visible" id="bx"><path d="M3.36-6.688v-5.171h4.234c.832 0 1.43.242 1.797.718.363.47.546 1.07.546 1.797 0 .961-.222 1.645-.656 2.047-.437.406-1.086.61-1.937.61zm-2.047-6.937V1.5h2.046v-6.469h3.922c.871 0 1.492.18 1.86.532.363.355.566.93.609 1.718l.094 2.516V.28c.008.153.023.301.047.438.007.144.023.285.046.422.028.132.079.254.141.359h2.438v-.297c-.282-.2-.465-.504-.547-.906a6.574 6.574 0 0 1-.125-1.36l-.063-2.015c-.031-.79-.195-1.406-.484-1.844a2.763 2.763 0 0 0-1.219-1.016c.54-.214 1-.625 1.375-1.218.371-.59.563-1.39.563-2.39 0-1.352-.418-2.368-1.25-3.048-.825-.683-1.899-1.031-3.22-1.031zm0 0"/></symbol><symbol overflow="visible" id="by"><path d="M7.453.547V1.5h1.953V-9.531H7.391v5.422a9.61 9.61 0 0 1-.141 1.64c-.086.512-.223.961-.406 1.344a2.412 2.412 0 0 1-.75.953c-.313.215-.696.328-1.14.328-.626 0-1.067-.218-1.313-.656-.243-.434-.36-1.004-.36-1.703v-7.328H1.22v7.5c0 .554.054 1.07.172 1.547.113.468.3.867.562 1.203.27.34.625.61 1.063.797.433.183.984.28 1.64.28.633 0 1.188-.12 1.657-.359.476-.242.859-.539 1.14-.89zm0 0"/></symbol><symbol overflow="visible" id="bz"><path d="M1.234-13.625V1.5h2.047v-15.125zm0 0"/></symbol><symbol overflow="visible" id="bA"><path d="M1.64-9.469H.298V-8H1.64v9.5h2.03V-8h1.595v-1.469H3.687c0-.59.016-1.097.047-1.515.04-.426.07-.664.094-.72.04-.151.11-.265.203-.327.09-.059.239-.094.438-.094.027 0 .148.012.36.031.214.024.362.031.437.031v-1.671c-.063 0-.223-.008-.47-.032-.241-.027-.382-.046-.421-.046-1.063 0-1.79.238-2.172.703-.375.468-.562 1.105-.562 1.906zm0 0"/></symbol><symbol overflow="visible" id="bB"><path d="M1.313-13.625V1.5H3.39v-7.078h6.593V1.5h2.094v-15.125H9.984v6.25H3.391v-6.25zm0 0"/></symbol><symbol overflow="visible" id="bC"><path d="M3.11-8.563v-.921H1.202v15.39h2.078V.922c.301.289.66.52 1.078.687.414.176.868.266 1.36.266.746 0 1.394-.16 1.937-.469A4.102 4.102 0 0 0 9.031.125c.352-.55.614-1.195.781-1.938a10.24 10.24 0 0 0 .266-2.375c0-.925-.113-1.738-.328-2.437-.219-.695-.52-1.273-.89-1.734a3.962 3.962 0 0 0-1.344-1.063 3.917 3.917 0 0 0-1.672-.36c-.532 0-1.043.118-1.532.345-.48.218-.882.511-1.203.874zm2.421.454c.758 0 1.36.386 1.797 1.156.434.762.656 1.777.656 3.047 0 1.273-.222 2.289-.656 3.047C6.891-.11 6.29.266 5.531.266 4.77.266 4.176-.11 3.75-.86c-.43-.758-.64-1.774-.64-3.047 0-1.27.21-2.285.64-3.047.426-.77 1.02-1.156 1.781-1.156zm0 0"/></symbol><symbol overflow="visible" id="bD"><path d="M1.234-9.469V1.5h2.047V-9.469zm0-4.156v2.11h2.047v-2.11zm0 0"/></symbol><symbol overflow="visible" id="bE"><path d="M7.688-8.531a4.603 4.603 0 0 0-1.22-.813 3.385 3.385 0 0 0-1.484-.36c-.699 0-1.316.161-1.843.47A4.066 4.066 0 0 0 1.812-7.97c-.355.532-.62 1.16-.796 1.875a9.823 9.823 0 0 0-.25 2.266c0 1.918.379 3.308 1.14 4.172.77.863 1.754 1.297 2.953 1.297.633 0 1.176-.098 1.625-.282.457-.187.829-.449 1.11-.78a21.644 21.644 0 0 1-.125 1.702c-.055.496-.168.93-.344 1.297a1.976 1.976 0 0 1-.766.766c-.312.183-.738.281-1.265.281-.617 0-1.09-.148-1.422-.438-.324-.292-.512-.73-.563-1.312H1.031c.02.582.14 1.078.36 1.484.226.403.53.743.906 1.016.371.258.797.453 1.265.578.465.133.961.203 1.485.203.851 0 1.566-.133 2.14-.39A3.581 3.581 0 0 0 8.61 4.687c.34-.46.586-1.035.735-1.718.152-.688.234-1.48.234-2.375v-10h-1.89zm-2.422.437c.757 0 1.351.383 1.78 1.14.427.75.641 1.755.641 3 0 1.263-.214 2.263-.64 3-.43.743-1.024 1.11-1.781 1.11-.75 0-1.348-.367-1.782-1.11-.437-.737-.656-1.737-.656-3 0-1.245.219-2.25.656-3 .434-.757 1.032-1.14 1.782-1.14zm0 0"/></symbol><symbol overflow="visible" id="bF"><path d="M2.828-9.063c.027-1.132.258-2.035.688-2.703.425-.675 1.054-1.015 1.89-1.015.801 0 1.395.273 1.782.812.394.543.593 1.2.593 1.969 0 .344-.082.746-.234 1.203-.156.45-.395.84-.703 1.172l-.766.875c-.336.387-.621.746-.86 1.078a5.386 5.386 0 0 0-.609 1.047 5.556 5.556 0 0 0-.328 1.25c-.074.469-.11 1.023-.11 1.656h2.095c0-.87.101-1.629.312-2.265.215-.633.61-1.243 1.172-1.829A13.559 13.559 0 0 0 9.313-7.64c.445-.632.671-1.414.671-2.343 0-.614-.101-1.196-.296-1.75a4.043 4.043 0 0 0-.844-1.438 4.035 4.035 0 0 0-1.406-.984c-.563-.246-1.223-.375-1.97-.375-1.437 0-2.581.496-3.421 1.484-.844.992-1.266 2.32-1.266 3.985zm1.11 9.016v2.563h2.687V-.047zm0 0"/></symbol></defs><g fill="#231f20"><use xlink:href="#a" x="74.885" y="47.727"/><use xlink:href="#b" x="82.886" y="47.727"/><use xlink:href="#c" x="85.492" y="47.727"/><use xlink:href="#d" x="88.099" y="47.727"/><use xlink:href="#e" x="92.054" y="47.727"/><use xlink:href="#d" x="96.01" y="47.727"/><use xlink:href="#e" x="99.965" y="47.727"/><use xlink:href="#f" x="103.92" y="47.727"/><use xlink:href="#c" x="111.92" y="47.727"/><use xlink:href="#g" x="114.527" y="47.727"/><use xlink:href="#h" x="122.527" y="47.727"/><use xlink:href="#i" x="130.528" y="47.727"/><use xlink:href="#j" x="138.528" y="47.727"/></g><g fill="#393536"><use xlink:href="#k" x="42.468" y="48.426"/><use xlink:href="#l" x="48.041" y="48.426"/><use xlink:href="#m" x="53.614" y="48.426"/></g><g fill="#fff"><use xlink:href="#n" x="86.42" y="104.568"/><use xlink:href="#o" x="90.896" y="104.568"/><use xlink:href="#n" x="95.372" y="104.568"/><use xlink:href="#o" x="99.848" y="104.568"/><use xlink:href="#p" x="104.324" y="104.568"/><use xlink:href="#q" x="107.274" y="104.568"/><use xlink:href="#r" x="111.75" y="104.568"/><use xlink:href="#s" x="114.486" y="104.568"/><use xlink:href="#p" x="119.806" y="104.568"/><use xlink:href="#t" x="122.756" y="104.568"/><use xlink:href="#u" x="125.147" y="104.568"/><use xlink:href="#r" x="130.467" y="104.568"/><use xlink:href="#v" x="133.204" y="104.568"/><use xlink:href="#w" x="138.636" y="104.568"/><use xlink:href="#u" x="141.922" y="104.568"/><use xlink:href="#x" x="147.242" y="104.568"/><use xlink:href="#r" x="152.674" y="104.568"/><use xlink:href="#y" x="155.41" y="104.568"/><use xlink:href="#z" x="157.618" y="104.568"/><use xlink:href="#u" x="163.05" y="104.568"/><use xlink:href="#x" x="168.37" y="104.568"/><use xlink:href="#A" x="173.803" y="104.568"/><use xlink:href="#p" x="175.99" y="104.568"/><use xlink:href="#B" x="178.94" y="104.568"/><use xlink:href="#z" x="184.525" y="104.568"/><use xlink:href="#w" x="189.957" y="104.568"/><use xlink:href="#C" x="193.242" y="104.568"/><use xlink:href="#D" x="198.542" y="104.568"/><use xlink:href="#p" x="206.467" y="104.568"/><use xlink:href="#z" x="209.417" y="104.568"/><use xlink:href="#u" x="214.849" y="104.568"/><use xlink:href="#p" x="220.169" y="104.568"/><use xlink:href="#E" x="223.119" y="104.568"/><use xlink:href="#v" x="230.932" y="104.568"/><use xlink:href="#F" x="236.364" y="104.568"/><use xlink:href="#y" x="241.766" y="104.568"/><use xlink:href="#G" x="243.973" y="104.568"/><use xlink:href="#x" x="248.907" y="104.568"/><use xlink:href="#A" x="254.339" y="104.568"/><use xlink:href="#p" x="256.526" y="104.568"/><use xlink:href="#t" x="259.476" y="104.568"/><use xlink:href="#u" x="261.867" y="104.568"/><use xlink:href="#u" x="267.187" y="104.568"/><use xlink:href="#z" x="272.508" y="104.568"/><use xlink:href="#H" x="277.94" y="104.568"/><use xlink:href="#x" x="282.833" y="104.568"/><use xlink:href="#r" x="288.265" y="104.568"/><use xlink:href="#y" x="291.001" y="104.568"/><use xlink:href="#z" x="293.209" y="104.568"/><use xlink:href="#u" x="298.641" y="104.568"/><use xlink:href="#p" x="303.961" y="104.568"/><use xlink:href="#z" x="306.911" y="104.568"/><use xlink:href="#I" x="312.344" y="104.568"/><use xlink:href="#p" x="315.08" y="104.568"/><use xlink:href="#J" x="318.03" y="104.568"/><use xlink:href="#v" x="324.693" y="104.568"/><use xlink:href="#A" x="330.125" y="104.568"/><use xlink:href="#A" x="332.312" y="104.568"/><use xlink:href="#p" x="334.5" y="104.568"/><use xlink:href="#K" x="337.45" y="104.568"/><use xlink:href="#p" x="343.574" y="104.568"/><use xlink:href="#L" x="346.524" y="104.568"/><use xlink:href="#y" x="352.729" y="104.568"/></g><g fill="#fff"><use xlink:href="#z" x="354.936" y="104.568"/><use xlink:href="#p" x="360.369" y="104.568"/><use xlink:href="#M" x="363.319" y="104.568"/><use xlink:href="#s" x="368.903" y="104.568"/><use xlink:href="#v" x="374.224" y="104.568"/><use xlink:href="#w" x="379.656" y="104.568"/><use xlink:href="#x" x="382.942" y="104.568"/><use xlink:href="#N" x="388.374" y="104.568"/><use xlink:href="#O" x="393.806" y="104.568"/></g><g fill="#231f20"><use xlink:href="#P" x="76.442" y="291.909"/><use xlink:href="#Q" x="85.039" y="291.909"/><use xlink:href="#R" x="90.379" y="291.909"/><use xlink:href="#S" x="95.719" y="291.909"/><use xlink:href="#T" x="98.34" y="291.909"/><use xlink:href="#U" x="101.704" y="291.909"/><use xlink:href="#V" x="106.497" y="291.909"/><use xlink:href="#W" x="108.57" y="291.909"/><use xlink:href="#X" x="113.91" y="291.909"/><use xlink:href="#T" x="119.788" y="291.909"/><use xlink:href="#Y" x="123.152" y="291.909"/><use xlink:href="#Z" x="128.492" y="291.909"/><use xlink:href="#T" x="131.113" y="291.909"/><use xlink:href="#aa" x="134.478" y="291.909"/><use xlink:href="#V" x="142.527" y="291.909"/><use xlink:href="#W" x="144.6" y="291.909"/><use xlink:href="#X" x="149.94" y="291.909"/><use xlink:href="#T" x="155.818" y="291.909"/><use xlink:href="#ab" x="159.182" y="291.909"/><use xlink:href="#Y" x="164.522" y="291.909"/><use xlink:href="#W" x="169.862" y="291.909"/><use xlink:href="#S" x="175.202" y="291.909"/><use xlink:href="#ac" x="177.823" y="291.909"/></g><g fill="#231f20"><use xlink:href="#Y" x="180.806" y="291.909"/><use xlink:href="#ad" x="186.146" y="291.909"/><use xlink:href="#T" x="188.219" y="291.909"/><use xlink:href="#ae" x="191.584" y="291.909"/><use xlink:href="#Q" x="196.376" y="291.909"/><use xlink:href="#Y" x="201.716" y="291.909"/><use xlink:href="#af" x="207.056" y="291.909"/><use xlink:href="#ad" x="212.396" y="291.909"/><use xlink:href="#X" x="214.469" y="291.909"/><use xlink:href="#T" x="220.347" y="291.909"/><use xlink:href="#Q" x="223.711" y="291.909"/><use xlink:href="#af" x="229.051" y="291.909"/><use xlink:href="#aa" x="234.391" y="291.909"/><use xlink:href="#R" x="242.44" y="291.909"/><use xlink:href="#W" x="247.78" y="291.909"/><use xlink:href="#ae" x="253.12" y="291.909"/><use xlink:href="#T" x="257.912" y="291.909"/><use xlink:href="#Z" x="261.277" y="291.909"/><use xlink:href="#Y" x="263.898" y="291.909"/><use xlink:href="#ab" x="269.238" y="291.909"/><use xlink:href="#af" x="274.578" y="291.909"/><use xlink:href="#ae" x="279.918" y="291.909"/><use xlink:href="#T" x="284.71" y="291.909"/><use xlink:href="#Y" x="288.074" y="291.909"/><use xlink:href="#W" x="293.414" y="291.909"/><use xlink:href="#T" x="298.754" y="291.909"/><use xlink:href="#V" x="302.118" y="291.909"/><use xlink:href="#W" x="304.192" y="291.909"/><use xlink:href="#T" x="309.532" y="291.909"/><use xlink:href="#S" x="312.896" y="291.909"/><use xlink:href="#Q" x="315.517" y="291.909"/><use xlink:href="#ag" x="320.857" y="291.909"/><use xlink:href="#T" x="326.197" y="291.909"/><use xlink:href="#af" x="329.561" y="291.909"/><use xlink:href="#W" x="334.901" y="291.909"/><use xlink:href="#ah" x="340.241" y="291.909"/><use xlink:href="#ac" x="346.119" y="291.909"/></g><g fill="#231f20"><use xlink:href="#ag" x="349.102" y="291.909"/><use xlink:href="#ab" x="354.442" y="291.909"/><use xlink:href="#ag" x="359.782" y="291.909"/><use xlink:href="#X" x="365.122" y="291.909"/><use xlink:href="#ag" x="371" y="291.909"/><use xlink:href="#W" x="376.34" y="291.909"/><use xlink:href="#S" x="381.68" y="291.909"/><use xlink:href="#ag" x="384.301" y="291.909"/><use xlink:href="#X" x="389.641" y="291.909"/><use xlink:href="#T" x="395.518" y="291.909"/><use xlink:href="#ab" x="398.883" y="291.909"/><use xlink:href="#Y" x="404.223" y="291.909"/><use xlink:href="#ac" x="409.563" y="291.909"/></g><g fill="#231f20"><use xlink:href="#Y" x="412.546" y="291.909"/><use xlink:href="#W" x="417.885" y="291.909"/><use xlink:href="#R" x="423.225" y="291.909"/><use xlink:href="#T" x="428.565" y="291.909"/><use xlink:href="#ah" x="431.93" y="291.909"/><use xlink:href="#ag" x="437.808" y="291.909"/><use xlink:href="#W" x="443.147" y="291.909"/><use xlink:href="#X" x="448.487" y="291.909"/><use xlink:href="#ag" x="454.365" y="291.909"/><use xlink:href="#aa" x="459.705" y="291.909"/><use xlink:href="#V" x="467.754" y="291.909"/><use xlink:href="#ab" x="469.828" y="291.909"/><use xlink:href="#ai" x="475.168" y="291.909"/><use xlink:href="#T" x="479.96" y="291.909"/><use xlink:href="#aj" x="483.324" y="291.909"/><use xlink:href="#W" x="489.75" y="291.909"/><use xlink:href="#X" x="495.09" y="291.909"/><use xlink:href="#T" x="500.967" y="291.909"/></g><g fill="#231f20"><use xlink:href="#ak" x="76.442" y="310.886"/><use xlink:href="#Q" x="83.406" y="310.886"/><use xlink:href="#R" x="88.746" y="310.886"/><use xlink:href="#S" x="94.086" y="310.886"/><use xlink:href="#T" x="96.707" y="310.886"/><use xlink:href="#ad" x="99.328" y="310.886"/><use xlink:href="#ag" x="101.401" y="310.886"/><use xlink:href="#ae" x="106.741" y="310.886"/><use xlink:href="#ae" x="111.533" y="310.886"/><use xlink:href="#Y" x="116.326" y="310.886"/><use xlink:href="#W" x="121.666" y="310.886"/><use xlink:href="#ae" x="127.006" y="310.886"/><use xlink:href="#T" x="131.798" y="310.886"/><use xlink:href="#R" x="134.419" y="310.886"/><use xlink:href="#ac" x="139.759" y="310.886"/></g><g fill="#231f20"><use xlink:href="#ag" x="142.742" y="310.886"/><use xlink:href="#T" x="148.082" y="310.886"/><use xlink:href="#S" x="150.703" y="310.886"/><use xlink:href="#Q" x="153.324" y="310.886"/><use xlink:href="#ag" x="158.664" y="310.886"/><use xlink:href="#al" x="164.004" y="310.886"/><use xlink:href="#T" x="168.796" y="310.886"/><use xlink:href="#S" x="171.417" y="310.886"/><use xlink:href="#ag" x="174.038" y="310.886"/><use xlink:href="#R" x="179.378" y="310.886"/><use xlink:href="#ab" x="184.718" y="310.886"/><use xlink:href="#Q" x="190.058" y="310.886"/><use xlink:href="#V" x="195.398" y="310.886"/><use xlink:href="#W" x="197.471" y="310.886"/><use xlink:href="#am" x="202.811" y="310.886"/><use xlink:href="#T" x="208.689" y="310.886"/><use xlink:href="#af" x="211.31" y="310.886"/><use xlink:href="#ae" x="216.65" y="310.886"/><use xlink:href="#ai" x="221.442" y="310.886"/></g><g fill="#231f20"><use xlink:href="#an" x="76.442" y="348.84"/><use xlink:href="#V" x="81.782" y="348.84"/><use xlink:href="#ac" x="83.856" y="348.84"/><use xlink:href="#ae" x="87.015" y="348.84"/><use xlink:href="#S" x="91.807" y="348.84"/><use xlink:href="#ao" x="94.428" y="348.84"/><use xlink:href="#T" x="97.049" y="348.84"/><use xlink:href="#R" x="100.433" y="348.84"/><use xlink:href="#W" x="105.773" y="348.84"/><use xlink:href="#ap" x="111.113" y="348.84"/><use xlink:href="#V" x="115.905" y="348.84"/><use xlink:href="#ag" x="117.979" y="348.84"/><use xlink:href="#S" x="123.318" y="348.84"/><use xlink:href="#al" x="125.94" y="348.84"/><use xlink:href="#T" x="130.732" y="348.84"/><use xlink:href="#V" x="134.116" y="348.84"/><use xlink:href="#ae" x="136.189" y="348.84"/><use xlink:href="#T" x="140.981" y="348.84"/><use xlink:href="#R" x="144.365" y="348.84"/><use xlink:href="#W" x="149.705" y="348.84"/><use xlink:href="#T" x="155.045" y="348.84"/><use xlink:href="#ag" x="158.429" y="348.84"/><use xlink:href="#aa" x="163.769" y="348.84"/><use xlink:href="#Y" x="171.818" y="348.84"/><use xlink:href="#S" x="177.158" y="348.84"/><use xlink:href="#V" x="179.779" y="348.84"/><use xlink:href="#Y" x="181.852" y="348.84"/><use xlink:href="#W" x="187.192" y="348.84"/><use xlink:href="#T" x="192.532" y="348.84"/><use xlink:href="#S" x="195.916" y="348.84"/><use xlink:href="#Y" x="198.537" y="348.84"/><use xlink:href="#T" x="203.877" y="348.84"/><use xlink:href="#S" x="207.261" y="348.84"/><use xlink:href="#ag" x="209.882" y="348.84"/><use xlink:href="#ad" x="215.222" y="348.84"/><use xlink:href="#ad" x="217.296" y="348.84"/><use xlink:href="#T" x="219.369" y="348.84"/><use xlink:href="#S" x="222.753" y="348.84"/><use xlink:href="#Q" x="225.374" y="348.84"/><use xlink:href="#ag" x="230.714" y="348.84"/><use xlink:href="#T" x="236.054" y="348.84"/><use xlink:href="#S" x="239.438" y="348.84"/><use xlink:href="#ac" x="242.059" y="348.84"/><use xlink:href="#af" x="245.218" y="348.84"/><use xlink:href="#S" x="250.558" y="348.84"/><use xlink:href="#Q" x="253.179" y="348.84"/><use xlink:href="#ao" x="258.519" y="348.84"/><use xlink:href="#T" x="261.14" y="348.84"/><use xlink:href="#R" x="264.524" y="348.84"/><use xlink:href="#W" x="269.864" y="348.84"/><use xlink:href="#X" x="275.204" y="348.84"/><use xlink:href="#T" x="281.081" y="348.84"/><use xlink:href="#R" x="284.465" y="348.84"/><use xlink:href="#W" x="289.805" y="348.84"/><use xlink:href="#am" x="295.145" y="348.84"/><use xlink:href="#ag" x="301.023" y="348.84"/><use xlink:href="#ac" x="306.363" y="348.84"/><use xlink:href="#T" x="309.522" y="348.84"/><use xlink:href="#V" x="312.906" y="348.84"/><use xlink:href="#ae" x="314.979" y="348.84"/><use xlink:href="#T" x="319.771" y="348.84"/><use xlink:href="#R" x="323.155" y="348.84"/><use xlink:href="#W" x="328.495" y="348.84"/><use xlink:href="#T" x="333.835" y="348.84"/><use xlink:href="#ag" x="337.219" y="348.84"/><use xlink:href="#aa" x="342.559" y="348.84"/><use xlink:href="#Y" x="350.608" y="348.84"/><use xlink:href="#S" x="355.948" y="348.84"/><use xlink:href="#V" x="358.569" y="348.84"/><use xlink:href="#Y" x="360.642" y="348.84"/><use xlink:href="#W" x="365.982" y="348.84"/><use xlink:href="#T" x="371.322" y="348.84"/><use xlink:href="#S" x="374.706" y="348.84"/><use xlink:href="#Q" x="377.327" y="348.84"/><use xlink:href="#R" x="382.667" y="348.84"/><use xlink:href="#S" x="388.007" y="348.84"/><use xlink:href="#T" x="390.628" y="348.84"/><use xlink:href="#ac" x="394.012" y="348.84"/></g><g fill="#231f20"><use xlink:href="#ag" x="396.994" y="348.84"/><use xlink:href="#aq" x="402.334" y="348.84"/><use xlink:href="#af" x="408.212" y="348.84"/><use xlink:href="#V" x="413.552" y="348.84"/><use xlink:href="#ac" x="415.625" y="348.84"/></g><g fill="#231f20"><use xlink:href="#ag" x="418.608" y="348.84"/><use xlink:href="#ae" x="423.948" y="348.84"/><use xlink:href="#T" x="428.74" y="348.84"/><use xlink:href="#S" x="432.124" y="348.84"/><use xlink:href="#ac" x="434.745" y="348.84"/><use xlink:href="#af" x="437.904" y="348.84"/><use xlink:href="#S" x="443.244" y="348.84"/><use xlink:href="#Q" x="445.865" y="348.84"/><use xlink:href="#ar" x="451.205" y="348.84"/><use xlink:href="#T" x="453.826" y="348.84"/><use xlink:href="#as" x="457.21" y="348.84"/><use xlink:href="#ag" x="463.088" y="348.84"/><use xlink:href="#ab" x="468.428" y="348.84"/><use xlink:href="#Y" x="473.768" y="348.84"/><use xlink:href="#W" x="479.108" y="348.84"/><use xlink:href="#X" x="484.448" y="348.84"/><use xlink:href="#ao" x="490.326" y="348.84"/><use xlink:href="#T" x="492.947" y="348.84"/><use xlink:href="#V" x="496.331" y="348.84"/><use xlink:href="#S" x="498.404" y="348.84"/><use xlink:href="#T" x="501.025" y="348.84"/></g><g fill="#231f20"><use xlink:href="#V" x="76.442" y="367.817"/><use xlink:href="#ae" x="78.516" y="367.817"/><use xlink:href="#T" x="83.308" y="367.817"/></g><g fill="#231f20"><use xlink:href="#W" x="86.501" y="367.817"/><use xlink:href="#ag" x="91.841" y="367.817"/><use xlink:href="#ab" x="97.181" y="367.817"/><use xlink:href="#ag" x="102.521" y="367.817"/><use xlink:href="#ae" x="107.861" y="367.817"/><use xlink:href="#ae" x="112.653" y="367.817"/><use xlink:href="#R" x="117.446" y="367.817"/><use xlink:href="#ac" x="122.785" y="367.817"/></g><g fill="#231f20"><use xlink:href="#al" x="126.119" y="367.817"/><use xlink:href="#T" x="130.912" y="367.817"/><use xlink:href="#S" x="134.11" y="367.817"/><use xlink:href="#Y" x="136.731" y="367.817"/><use xlink:href="#T" x="142.071" y="367.817"/></g><g fill="#231f20"><use xlink:href="#X" x="145.264" y="367.817"/><use xlink:href="#ag" x="151.142" y="367.817"/><use xlink:href="#at" x="156.482" y="367.817"/><use xlink:href="#ag" x="161.274" y="367.817"/><use xlink:href="#ad" x="166.614" y="367.817"/><use xlink:href="#Y" x="168.687" y="367.817"/><use xlink:href="#ah" x="174.027" y="367.817"/><use xlink:href="#T" x="179.905" y="367.817"/><use xlink:href="#R" x="183.103" y="367.817"/><use xlink:href="#T" x="188.443" y="367.817"/></g><g fill="#231f20"><use xlink:href="#ae" x="191.636" y="367.817"/><use xlink:href="#al" x="196.429" y="367.817"/><use xlink:href="#ae" x="201.221" y="367.817"/><use xlink:href="#S" x="206.013" y="367.817"/><use xlink:href="#ag" x="208.634" y="367.817"/><use xlink:href="#aa" x="213.974" y="367.817"/><use xlink:href="#T" x="222.023" y="367.817"/><use xlink:href="#Y" x="225.221" y="367.817"/><use xlink:href="#Z" x="230.561" y="367.817"/><use xlink:href="#T" x="233.182" y="367.817"/></g><g fill="#231f20"><use xlink:href="#R" x="236.376" y="367.817"/><use xlink:href="#ah" x="241.715" y="367.817"/><use xlink:href="#ah" x="247.593" y="367.817"/><use xlink:href="#ac" x="253.471" y="367.817"/></g><g fill="#231f20"><use xlink:href="#Y" x="256.454" y="367.817"/><use xlink:href="#ah" x="261.794" y="367.817"/><use xlink:href="#ac" x="267.672" y="367.817"/><use xlink:href="#V" x="270.831" y="367.817"/><use xlink:href="#R" x="272.904" y="367.817"/><use xlink:href="#S" x="278.244" y="367.817"/><use xlink:href="#ag" x="280.865" y="367.817"/><use xlink:href="#T" x="286.205" y="367.817"/></g><g fill="#231f20"><use xlink:href="#ae" x="289.398" y="367.817"/><use xlink:href="#R" x="294.191" y="367.817"/><use xlink:href="#S" x="299.531" y="367.817"/><use xlink:href="#V" x="302.152" y="367.817"/><use xlink:href="#ae" x="304.225" y="367.817"/><use xlink:href="#Z" x="309.017" y="367.817"/><use xlink:href="#R" x="311.638" y="367.817"/><use xlink:href="#ab" x="316.978" y="367.817"/><use xlink:href="#S" x="322.318" y="367.817"/><use xlink:href="#V" x="324.939" y="367.817"/><use xlink:href="#Y" x="327.013" y="367.817"/><use xlink:href="#W" x="332.353" y="367.817"/><use xlink:href="#T" x="337.693" y="367.817"/></g><g fill="#231f20"><use xlink:href="#au" x="340.886" y="367.817"/><use xlink:href="#al" x="346.764" y="367.817"/><use xlink:href="#T" x="351.556" y="367.817"/><use xlink:href="#X" x="354.754" y="367.817"/><use xlink:href="#V" x="360.632" y="367.817"/><use xlink:href="#at" x="362.705" y="367.817"/><use xlink:href="#V" x="367.497" y="367.817"/><use xlink:href="#X" x="369.571" y="367.817"/><use xlink:href="#V" x="375.449" y="367.817"/><use xlink:href="#W" x="377.522" y="367.817"/><use xlink:href="#am" x="382.862" y="367.817"/><use xlink:href="#T" x="388.74" y="367.817"/></g><use xlink:href="#P" x="391.933" y="367.817" fill="#231f20"/><g fill="#231f20"><use xlink:href="#R" x="400.168" y="367.817"/><use xlink:href="#W" x="405.508" y="367.817"/><use xlink:href="#S" x="410.848" y="367.817"/><use xlink:href="#T" x="413.469" y="367.817"/></g><g fill="#231f20"><use xlink:href="#R" x="416.662" y="367.817"/><use xlink:href="#W" x="422.002" y="367.817"/><use xlink:href="#X" x="427.342" y="367.817"/><use xlink:href="#T" x="433.22" y="367.817"/></g><g fill="#231f20"><use xlink:href="#av" x="436.413" y="367.817"/><use xlink:href="#V" x="441.753" y="367.817"/><use xlink:href="#U" x="443.826" y="367.817"/><use xlink:href="#ag" x="448.618" y="367.817"/><use xlink:href="#ar" x="453.958" y="367.817"/><use xlink:href="#T" x="456.579" y="367.817"/></g><g fill="#231f20"><use xlink:href="#aw" x="459.773" y="367.817"/><use xlink:href="#Q" x="465.113" y="367.817"/><use xlink:href="#V" x="470.453" y="367.817"/><use xlink:href="#ac" x="472.526" y="367.817"/></g><g fill="#231f20"><use xlink:href="#X" x="475.509" y="367.817"/><use xlink:href="#ao" x="481.387" y="367.817"/><use xlink:href="#T" x="484.008" y="367.817"/><use xlink:href="#Y" x="487.206" y="367.817"/><use xlink:href="#af" x="492.546" y="367.817"/><use xlink:href="#ac" x="497.886" y="367.817"/><use xlink:href="#T" x="501.045" y="367.817"/></g><g fill="#231f20"><use xlink:href="#ab" x="76.442" y="386.794"/><use xlink:href="#Q" x="81.782" y="386.794"/><use xlink:href="#Y" x="87.122" y="386.794"/><use xlink:href="#V" x="92.462" y="386.794"/><use xlink:href="#ab" x="94.536" y="386.794"/><use xlink:href="#ag" x="99.876" y="386.794"/><use xlink:href="#T" x="105.215" y="386.794"/><use xlink:href="#V" x="107.837" y="386.794"/><use xlink:href="#ae" x="109.91" y="386.794"/><use xlink:href="#T" x="114.702" y="386.794"/><use xlink:href="#X" x="117.323" y="386.794"/><use xlink:href="#V" x="123.201" y="386.794"/><use xlink:href="#am" x="125.274" y="386.794"/><use xlink:href="#V" x="131.152" y="386.794"/><use xlink:href="#S" x="133.226" y="386.794"/><use xlink:href="#R" x="135.847" y="386.794"/><use xlink:href="#ad" x="141.187" y="386.794"/><use xlink:href="#ao" x="143.26" y="386.794"/><use xlink:href="#T" x="145.881" y="386.794"/><use xlink:href="#au" x="148.502" y="386.794"/><use xlink:href="#af" x="154.38" y="386.794"/><use xlink:href="#S" x="159.72" y="386.794"/><use xlink:href="#T" x="162.341" y="386.794"/><use xlink:href="#ak" x="164.962" y="386.794"/><use xlink:href="#ag" x="171.926" y="386.794"/><use xlink:href="#T" x="177.266" y="386.794"/><use xlink:href="#ah" x="179.887" y="386.794"/><use xlink:href="#R" x="185.764" y="386.794"/><use xlink:href="#al" x="191.104" y="386.794"/><use xlink:href="#T" x="195.897" y="386.794"/><use xlink:href="#aa" x="198.518" y="386.794"/><use xlink:href="#Y" x="206.567" y="386.794"/><use xlink:href="#ac" x="211.907" y="386.794"/></g><g fill="#231f20"><use xlink:href="#ag" x="214.89" y="386.794"/><use xlink:href="#T" x="220.23" y="386.794"/><use xlink:href="#Z" x="222.851" y="386.794"/><use xlink:href="#Y" x="225.472" y="386.794"/><use xlink:href="#ac" x="230.812" y="386.794"/><use xlink:href="#T" x="233.971" y="386.794"/><use xlink:href="#R" x="236.592" y="386.794"/><use xlink:href="#W" x="241.932" y="386.794"/><use xlink:href="#R" x="247.272" y="386.794"/><use xlink:href="#ad" x="252.611" y="386.794"/><use xlink:href="#Y" x="254.685" y="386.794"/><use xlink:href="#am" x="260.025" y="386.794"/><use xlink:href="#ar" x="265.903" y="386.794"/></g><g fill="#231f20"><use xlink:href="#ax" x="76.442" y="405.77"/><use xlink:href="#S" x="79.063" y="405.77"/><use xlink:href="#T" x="81.685" y="405.77"/><use xlink:href="#V" x="84.785" y="405.77"/><use xlink:href="#ae" x="86.858" y="405.77"/><use xlink:href="#T" x="91.65" y="405.77"/><use xlink:href="#X" x="94.751" y="405.77"/><use xlink:href="#V" x="100.629" y="405.77"/><use xlink:href="#ae" x="102.702" y="405.77"/><use xlink:href="#ab" x="107.494" y="405.77"/><use xlink:href="#af" x="112.834" y="405.77"/><use xlink:href="#ae" x="118.174" y="405.77"/><use xlink:href="#ae" x="122.966" y="405.77"/><use xlink:href="#ag" x="127.759" y="405.77"/><use xlink:href="#X" x="133.099" y="405.77"/><use xlink:href="#T" x="138.976" y="405.77"/><use xlink:href="#ak" x="142.077" y="405.77"/><use xlink:href="#Q" x="149.04" y="405.77"/><use xlink:href="#al" x="154.38" y="405.77"/><use xlink:href="#T" x="159.172" y="405.77"/><use xlink:href="#S" x="162.273" y="405.77"/><use xlink:href="#Q" x="164.894" y="405.77"/><use xlink:href="#ag" x="170.234" y="405.77"/><use xlink:href="#ae" x="175.574" y="405.77"/><use xlink:href="#ag" x="180.366" y="405.77"/><use xlink:href="#T" x="185.706" y="405.77"/><use xlink:href="#ae" x="188.806" y="405.77"/><use xlink:href="#Q" x="193.598" y="405.77"/><use xlink:href="#Y" x="198.938" y="405.77"/><use xlink:href="#af" x="204.278" y="405.77"/><use xlink:href="#ad" x="209.618" y="405.77"/><use xlink:href="#X" x="211.691" y="405.77"/><use xlink:href="#T" x="217.569" y="405.77"/><use xlink:href="#W" x="220.67" y="405.77"/><use xlink:href="#Y" x="226.01" y="405.77"/><use xlink:href="#S" x="231.35" y="405.77"/><use xlink:href="#T" x="233.971" y="405.77"/><use xlink:href="#au" x="237.071" y="405.77"/><use xlink:href="#ag" x="242.949" y="405.77"/><use xlink:href="#T" x="248.289" y="405.77"/><use xlink:href="#at" x="251.389" y="405.77"/><use xlink:href="#V" x="256.181" y="405.77"/><use xlink:href="#ag" x="258.255" y="405.77"/><use xlink:href="#ak" x="263.595" y="405.77"/><use xlink:href="#ag" x="270.558" y="405.77"/><use xlink:href="#X" x="275.898" y="405.77"/><use xlink:href="#T" x="281.776" y="405.77"/><use xlink:href="#R" x="284.876" y="405.77"/><use xlink:href="#ae" x="290.216" y="405.77"/><use xlink:href="#T" x="295.008" y="405.77"/><use xlink:href="#R" x="298.109" y="405.77"/><use xlink:href="#T" x="303.448" y="405.77"/><use xlink:href="#ab" x="306.549" y="405.77"/><use xlink:href="#Q" x="311.889" y="405.77"/><use xlink:href="#R" x="317.229" y="405.77"/><use xlink:href="#W" x="322.569" y="405.77"/><use xlink:href="#am" x="327.908" y="405.77"/><use xlink:href="#ag" x="333.786" y="405.77"/><use xlink:href="#T" x="339.126" y="405.77"/><use xlink:href="#Y" x="342.227" y="405.77"/><use xlink:href="#Z" x="347.566" y="405.77"/><use xlink:href="#T" x="350.188" y="405.77"/><use xlink:href="#X" x="353.288" y="405.77"/><use xlink:href="#V" x="359.166" y="405.77"/><use xlink:href="#ac" x="361.239" y="405.77"/></g><g fill="#231f20"><use xlink:href="#ag" x="364.222" y="405.77"/><use xlink:href="#ab" x="369.562" y="405.77"/><use xlink:href="#S" x="374.902" y="405.77"/><use xlink:href="#V" x="377.523" y="405.77"/><use xlink:href="#Y" x="379.596" y="405.77"/><use xlink:href="#W" x="384.936" y="405.77"/><use xlink:href="#T" x="390.276" y="405.77"/><use xlink:href="#au" x="393.377" y="405.77"/><use xlink:href="#af" x="399.254" y="405.77"/><use xlink:href="#S" x="404.594" y="405.77"/><use xlink:href="#T" x="407.215" y="405.77"/><use xlink:href="#R" x="410.316" y="405.77"/><use xlink:href="#ae" x="415.656" y="405.77"/><use xlink:href="#T" x="420.448" y="405.77"/><use xlink:href="#R" x="423.548" y="405.77"/><use xlink:href="#W" x="428.888" y="405.77"/><use xlink:href="#T" x="434.228" y="405.77"/><use xlink:href="#R" x="437.328" y="405.77"/><use xlink:href="#ab" x="442.668" y="405.77"/><use xlink:href="#ab" x="448.008" y="405.77"/><use xlink:href="#ag" x="453.348" y="405.77"/><use xlink:href="#ad" x="458.688" y="405.77"/><use xlink:href="#ag" x="460.761" y="405.77"/><use xlink:href="#ac" x="466.101" y="405.77"/><use xlink:href="#R" x="469.26" y="405.77"/><use xlink:href="#S" x="474.6" y="405.77"/><use xlink:href="#V" x="477.221" y="405.77"/><use xlink:href="#Y" x="479.295" y="405.77"/><use xlink:href="#W" x="484.635" y="405.77"/><use xlink:href="#T" x="489.975" y="405.77"/><use xlink:href="#Y" x="493.075" y="405.77"/><use xlink:href="#Z" x="498.415" y="405.77"/><use xlink:href="#T" x="501.036" y="405.77"/></g><g fill="#231f20"><use xlink:href="#ag" x="76.442" y="424.747"/><use xlink:href="#ap" x="81.782" y="424.747"/><use xlink:href="#V" x="86.575" y="424.747"/><use xlink:href="#ae" x="88.648" y="424.747"/><use xlink:href="#S" x="93.44" y="424.747"/><use xlink:href="#V" x="96.061" y="424.747"/><use xlink:href="#W" x="98.135" y="424.747"/><use xlink:href="#am" x="103.475" y="424.747"/><use xlink:href="#T" x="109.352" y="424.747"/><use xlink:href="#W" x="111.974" y="424.747"/><use xlink:href="#ag" x="117.313" y="424.747"/><use xlink:href="#ag" x="122.653" y="424.747"/><use xlink:href="#X" x="127.993" y="424.747"/><use xlink:href="#ae" x="133.871" y="424.747"/><use xlink:href="#ar" x="138.663" y="424.747"/></g><path d="M76.637 256.64l1.386-1.312 1.383 1.313-1.383 1.312zm0 0M79.648 256.64l1.387-1.312 1.383 1.313-1.383 1.312zm0 0M82.66 256.64l1.383-1.312 1.387 1.313-1.387 1.312zm0 0M85.672 256.64l1.383-1.312 1.386 1.313-1.386 1.312zm0 0M88.684 256.64l1.382-1.312 1.383 1.313-1.383 1.312zm0 0M91.691 256.64l1.387-1.312 1.383 1.313-1.383 1.312zm0 0M94.703 256.64l1.383-1.312 1.387 1.313-1.387 1.312zm0 0M97.715 256.64l1.383-1.312 1.386 1.313-1.386 1.312zm0 0M100.727 256.64l1.382-1.312 1.383 1.313-1.383 1.312zm0 0M103.734 256.64l1.387-1.312 1.383 1.313-1.383 1.312zm0 0M106.746 256.64l1.387-1.312 1.383 1.313-1.383 1.312zm0 0M109.758 256.64l1.383-1.312 1.386 1.313-1.386 1.312zm0 0M112.77 256.64l1.382-1.312 1.387 1.313-1.387 1.312zm0 0M115.781 256.64l1.383-1.312 1.383 1.313-1.383 1.312zm0 0M118.79 256.64l1.386-1.312 1.383 1.313-1.383 1.312zm0 0M121.8 256.64l1.387-1.312 1.383 1.313-1.383 1.312zm0 0M124.812 256.64l1.383-1.312 1.387 1.313-1.387 1.312zm0 0M127.824 256.64l1.383-1.312 1.383 1.313-1.383 1.312zm0 0M130.832 256.64l1.387-1.312 1.383 1.313-1.383 1.312zm0 0M133.844 256.64l1.386-1.312 1.383 1.313-1.383 1.312zm0 0M136.855 256.64l1.383-1.312 1.387 1.313-1.387 1.312zm0 0M139.867 256.64l1.383-1.312 1.387 1.313-1.387 1.312zm0 0M142.879 256.64l1.383-1.312 1.383 1.313-1.383 1.312zm0 0M145.887 256.64l1.386-1.312 1.383 1.313-1.383 1.312zm0 0M148.898 256.64l1.387-1.312 1.383 1.313-1.383 1.312zm0 0M151.91 256.64l1.383-1.312 1.387 1.313-1.387 1.312zm0 0M154.922 256.64l1.383-1.312 1.382 1.313-1.382 1.312zm0 0M157.93 256.64l1.386-1.312 1.383 1.313-1.383 1.312zm0 0M160.941 256.64l1.387-1.312 1.383 1.313-1.383 1.312zm0 0M163.953 256.64l1.383-1.312 1.387 1.313-1.387 1.312zm0 0M166.965 256.64l1.383-1.312 1.386 1.313-1.386 1.312zm0 0M169.977 256.64l1.382-1.312 1.383 1.313-1.383 1.312zm0 0M172.984 256.64l1.387-1.312 1.383 1.313-1.383 1.312zm0 0M175.996 256.64l1.387-1.312 1.383 1.313-1.383 1.312zm0 0M179.008 256.64l1.383-1.312 1.386 1.313-1.386 1.312zm0 0M182.02 256.64l1.382-1.312 1.383 1.313-1.383 1.312zm0 0M185.027 256.64l1.387-1.312 1.383 1.313-1.383 1.312zm0 0M188.04 256.64l1.386-1.312 1.383 1.313-1.383 1.312zm0 0M191.05 256.64l1.384-1.312 1.386 1.313-1.386 1.312zm0 0M194.063 256.64l1.382-1.312 1.387 1.313-1.387 1.312zm0 0M197.074 256.64l1.383-1.312 1.383 1.313-1.383 1.312zm0 0M200.082 256.64l1.387-1.312 1.383 1.313-1.383 1.312zm0 0M203.094 256.64l1.386-1.312 1.383 1.313-1.383 1.312zm0 0M206.105 256.64l1.383-1.312 1.387 1.313-1.387 1.312zm0 0M209.117 256.64l1.383-1.312 1.383 1.313-1.383 1.312zm0 0M212.125 256.64l1.387-1.312 1.383 1.313-1.383 1.312zm0 0M215.137 256.64l1.386-1.312 1.383 1.313-1.383 1.312zm0 0M218.148 256.64l1.383-1.312 1.387 1.313-1.387 1.312zm0 0M221.16 256.64l1.383-1.312 1.387 1.313-1.387 1.312zm0 0M224.172 256.64l1.383-1.312 1.382 1.313-1.382 1.312zm0 0M227.18 256.64l1.386-1.312 1.383 1.313-1.383 1.312zm0 0M230.191 256.64l1.387-1.312 1.383 1.313-1.383 1.312zm0 0M233.203 256.64l1.383-1.312 1.387 1.313-1.387 1.312zm0 0M236.215 256.64l1.383-1.312 1.382 1.313-1.382 1.312zm0 0M239.223 256.64l1.386-1.312 1.383 1.313-1.383 1.312zm0 0M242.234 256.64l1.387-1.312 1.383 1.313-1.383 1.312zm0 0M245.246 256.64l1.383-1.312 1.387 1.313-1.387 1.312zm0 0M248.258 256.64l1.383-1.312 1.386 1.313-1.386 1.312zm0 0M251.27 256.64l1.382-1.312 1.383 1.313-1.383 1.312zm0 0M254.277 256.64l1.387-1.312 1.383 1.313-1.383 1.312zm0 0M257.29 256.64l1.386-1.312 1.383 1.313-1.383 1.312zm0 0M260.3 256.64l1.384-1.312 1.386 1.313-1.386 1.312zm0 0M263.312 256.64l1.383-1.312 1.387 1.313-1.387 1.312zm0 0M266.324 256.64l1.383-1.312 1.383 1.313-1.383 1.312zm0 0M269.332 256.64l1.387-1.312 1.383 1.313-1.383 1.312zm0 0M272.344 256.64l1.383-1.312 1.386 1.313-1.386 1.312zm0 0M275.355 256.64l1.383-1.312 1.387 1.313-1.387 1.312zm0 0M278.367 256.64l1.383-1.312 1.383 1.313-1.383 1.312zm0 0M281.375 256.64l1.387-1.312 1.383 1.313-1.383 1.312zm0 0M284.387 256.64l1.386-1.312 1.383 1.313-1.383 1.312zm0 0M287.398 256.64l1.383-1.312 1.387 1.313-1.387 1.312zm0 0M290.41 256.64l1.383-1.312 1.383 1.313-1.383 1.312zm0 0M293.422 256.64l1.383-1.312 1.382 1.313-1.382 1.312zm0 0M296.43 256.64l1.386-1.312 1.383 1.313-1.383 1.312zm0 0M299.441 256.64l1.383-1.312 1.387 1.313-1.387 1.312zm0 0M302.453 256.64l1.383-1.312 1.387 1.313-1.387 1.312zm0 0M305.465 256.64l1.383-1.312 1.382 1.313-1.382 1.312zm0 0M308.473 256.64l1.386-1.312 1.383 1.313-1.383 1.312zm0 0M311.484 256.64l1.387-1.312 1.383 1.313-1.383 1.312zm0 0M314.496 256.64l1.383-1.312 1.387 1.313-1.387 1.312zm0 0M317.508 256.64l1.383-1.312 1.386 1.313-1.386 1.312zm0 0M320.52 256.64l1.382-1.312 1.383 1.313-1.383 1.312zm0 0M323.527 256.64l1.387-1.312 1.383 1.313-1.383 1.312zm0 0M326.54 256.64l1.382-1.312 1.387 1.313-1.387 1.312zm0 0M329.55 256.64l1.384-1.312 1.386 1.313-1.386 1.312zm0 0M332.562 256.64l1.383-1.312 1.383 1.313-1.383 1.312zm0 0M335.57 256.64l1.387-1.312 1.383 1.313-1.383 1.312zm0 0M338.582 256.64l1.387-1.312 1.383 1.313-1.383 1.312zm0 0M341.594 256.64l1.383-1.312 1.386 1.313-1.386 1.312zm0 0M344.605 256.64l1.383-1.312 1.387 1.313-1.387 1.312zm0 0M347.617 256.64l1.383-1.312 1.383 1.313-1.383 1.312zm0 0M350.625 256.64l1.387-1.312 1.383 1.313-1.383 1.312zm0 0M353.637 256.64l1.383-1.312 1.386 1.313-1.386 1.312zm0 0M356.648 256.64l1.383-1.312 1.387 1.313-1.387 1.312zm0 0M359.66 256.64l1.383-1.312 1.383 1.313-1.383 1.312zm0 0M362.668 256.64l1.387-1.312 1.382 1.313-1.382 1.312zm0 0M365.68 256.64l1.386-1.312 1.383 1.313-1.383 1.312zm0 0M368.691 256.64l1.383-1.312 1.387 1.313-1.387 1.312zm0 0M371.703 256.64l1.383-1.312 1.387 1.313-1.387 1.312zm0 0M374.715 256.64l1.383-1.312 1.382 1.313-1.382 1.312zm0 0M377.723 256.64l1.386-1.312 1.383 1.313-1.383 1.312zm0 0M380.734 256.64l1.383-1.312 1.387 1.313-1.387 1.312zm0 0M383.746 256.64l1.383-1.312 1.387 1.313-1.387 1.312zm0 0M386.758 256.64l1.383-1.312 1.382 1.313-1.382 1.312zm0 0M389.766 256.64l1.386-1.312 1.383 1.313-1.383 1.312zm0 0M392.777 256.64l1.387-1.312 1.383 1.313-1.383 1.312zm0 0M395.79 256.64l1.382-1.312 1.387 1.313-1.387 1.312zm0 0M398.8 256.64l1.384-1.312 1.386 1.313-1.386 1.312zm0 0M401.813 256.64l1.382-1.312 1.383 1.313-1.383 1.312zm0 0M404.82 256.64l1.387-1.312 1.383 1.313-1.383 1.312zm0 0M407.832 256.64l1.383-1.312 1.387 1.313-1.387 1.312zm0 0M410.844 256.64l1.383-1.312 1.386 1.313-1.386 1.312zm0 0M413.855 256.64l1.383-1.312 1.383 1.313-1.383 1.312zm0 0M416.863 256.64l1.387-1.312 1.383 1.313-1.383 1.312zm0 0M419.875 256.64l1.387-1.312 1.383 1.313-1.383 1.312zm0 0M422.887 256.64l1.383-1.312 1.386 1.313-1.386 1.312zm0 0M425.898 256.64l1.383-1.312 1.387 1.313-1.387 1.312zm0 0M428.91 256.64l1.383-1.312 1.383 1.313-1.383 1.312zm0 0M431.918 256.64l1.387-1.312 1.382 1.313-1.382 1.312zm0 0M434.93 256.64l1.382-1.312 1.387 1.313-1.387 1.312zm0 0M437.941 256.64l1.383-1.312 1.387 1.313-1.387 1.312zm0 0M440.953 256.64l1.383-1.312 1.383 1.313-1.383 1.312zm0 0M443.96 256.64l1.388-1.312 1.382 1.313-1.382 1.312zm0 0M446.973 256.64l1.386-1.312 1.383 1.313-1.383 1.312zm0 0M449.984 256.64l1.383-1.312 1.387 1.313-1.387 1.312zm0 0M452.996 256.64l1.383-1.312 1.387 1.313-1.387 1.312zm0 0M456.008 256.64l1.383-1.312 1.382 1.313-1.382 1.312zm0 0M459.016 256.64l1.386-1.312 1.383 1.313-1.383 1.312zm0 0M462.027 256.64l1.387-1.312 1.383 1.313-1.383 1.312zm0 0M465.04 256.64l1.382-1.312 1.387 1.313-1.387 1.312zm0 0M468.05 256.64l1.384-1.312 1.382 1.313-1.382 1.312zm0 0M471.059 256.64l1.386-1.312 1.383 1.313-1.383 1.312zm0 0M474.07 256.64l1.387-1.312 1.383 1.313-1.383 1.312zm0 0" fill="none" stroke-width=".2696733" stroke="#726e94" stroke-miterlimit="300"/><g clip-path="url(#ay)"><path d="M477.082 256.64l1.383-1.312 1.387 1.313-1.387 1.312zm0 0" fill="none" stroke-width=".2696733" stroke="#726e94" stroke-miterlimit="300"/></g><g clip-path="url(#az)"><path d="M480.094 256.64l1.383-1.312 1.386 1.313-1.386 1.312zm0 0" fill="none" stroke-width=".2696733" stroke="#726e94" stroke-miterlimit="300"/></g><g clip-path="url(#aA)"><path d="M483.105 256.64l1.383-1.312 1.383 1.313-1.383 1.312zm0 0" fill="none" stroke-width=".2696733" stroke="#726e94" stroke-miterlimit="300"/></g><g clip-path="url(#aB)"><path d="M486.113 256.64l1.387-1.312 1.383 1.313-1.383 1.312zm0 0" fill="none" stroke-width=".2696733" stroke="#726e94" stroke-miterlimit="300"/></g><g clip-path="url(#aC)"><path d="M489.125 256.64l1.387-1.312 1.383 1.313-1.383 1.312zm0 0" fill="none" stroke-width=".2696733" stroke="#726e94" stroke-miterlimit="300"/></g><g clip-path="url(#aD)"><path d="M492.137 256.64l1.383-1.312 1.386 1.313-1.386 1.312zm0 0" fill="none" stroke-width=".2696733" stroke="#726e94" stroke-miterlimit="300"/></g><g clip-path="url(#aE)"><path d="M495.148 256.64l1.383-1.312 1.383 1.313-1.383 1.312zm0 0" fill="none" stroke-width=".2696733" stroke="#726e94" stroke-miterlimit="300"/></g><g clip-path="url(#aF)"><path d="M498.156 256.64l1.387-1.312 1.383 1.313-1.383 1.312zm0 0" fill="none" stroke-width=".2696733" stroke="#726e94" stroke-miterlimit="300"/></g><g fill="#231f20"><use xlink:href="#aG" x="398.303" y="213.768"/><use xlink:href="#aH" x="405.479" y="213.768"/><use xlink:href="#aI" x="411.129" y="213.768"/><use xlink:href="#aJ" x="417.249" y="213.768"/><use xlink:href="#aK" x="423.392" y="213.768"/><use xlink:href="#aL" x="429.652" y="213.768"/><use xlink:href="#aM" x="436.23" y="213.768"/><use xlink:href="#aN" x="438.99" y="213.768"/><use xlink:href="#aO" x="441.515" y="213.768"/><use xlink:href="#aG" x="444.922" y="213.768"/><use xlink:href="#aP" x="452.098" y="213.768"/><use xlink:href="#aQ" x="454.647" y="213.768"/><use xlink:href="#aR" x="463.797" y="213.768"/><use xlink:href="#aO" x="467.203" y="213.768"/><use xlink:href="#aS" x="470.609" y="213.768"/><use xlink:href="#aT" x="477.669" y="213.768"/><use xlink:href="#aU" x="483.812" y="213.768"/><use xlink:href="#aV" x="487.218" y="213.768"/><use xlink:href="#aU" x="494.841" y="213.768"/></g><g fill="#231f20"><use xlink:href="#aW" x="441.786" y="229.184"/><use xlink:href="#aX" x="447.27" y="229.184"/><use xlink:href="#aY" x="449.121" y="229.184"/><use xlink:href="#aZ" x="453.921" y="229.184"/><use xlink:href="#ba" x="458.605" y="229.184"/><use xlink:href="#bb" x="461.212" y="229.184"/><use xlink:href="#bc" x="467.063" y="229.184"/><use xlink:href="#bd" x="471.765" y="229.184"/><use xlink:href="#be" x="473.581" y="229.184"/><use xlink:href="#bf" x="477.904" y="229.184"/><use xlink:href="#bg" x="482.704" y="229.184"/><use xlink:href="#bh" x="485.392" y="229.184"/><use xlink:href="#bd" x="489.716" y="229.184"/><use xlink:href="#bi" x="491.532" y="229.184"/><use xlink:href="#bj" x="493.95" y="229.184"/></g><g fill="#33459a"><use xlink:href="#bk" x="76.442" y="146.549"/><use xlink:href="#bl" x="88.208" y="146.549"/><use xlink:href="#bm" x="98.635" y="146.549"/><use xlink:href="#bn" x="108.004" y="146.549"/><use xlink:href="#bo" x="113.138" y="146.549"/><use xlink:href="#bp" x="118.691" y="146.549"/><use xlink:href="#bl" x="131.535" y="146.549"/><use xlink:href="#bq" x="141.963" y="146.549"/><use xlink:href="#bl" x="148.175" y="146.549"/><use xlink:href="#br" x="158.603" y="146.549"/><use xlink:href="#bs" x="168.81" y="146.549"/><use xlink:href="#bt" x="179.237" y="146.549"/><use xlink:href="#bo" x="184.791" y="146.549"/><use xlink:href="#bu" x="190.344" y="146.549"/><use xlink:href="#bq" x="202.289" y="146.549"/><use xlink:href="#bv" x="208.502" y="146.549"/><use xlink:href="#bo" x="218.929" y="146.549"/><use xlink:href="#bn" x="224.482" y="146.549"/><use xlink:href="#bw" x="229.616" y="146.549"/><use xlink:href="#bv" x="239.824" y="146.549"/><use xlink:href="#bo" x="250.251" y="146.549"/><use xlink:href="#bx" x="255.804" y="146.549"/><use xlink:href="#by" x="268.449" y="146.549"/><use xlink:href="#bz" x="278.617" y="146.549"/><use xlink:href="#bv" x="282.672" y="146.549"/><use xlink:href="#bm" x="293.099" y="146.549"/><use xlink:href="#bo" x="302.468" y="146.549"/><use xlink:href="#bl" x="308.021" y="146.549"/><use xlink:href="#bA" x="318.448" y="146.549"/></g><g fill="#33459a"><use xlink:href="#bB" x="76.442" y="174.515"/><use xlink:href="#bs" x="89.407" y="174.515"/><use xlink:href="#bC" x="99.834" y="174.515"/><use xlink:href="#bC" x="110.261" y="174.515"/><use xlink:href="#bD" x="120.689" y="174.515"/><use xlink:href="#br" x="124.784" y="174.515"/><use xlink:href="#bv" x="134.991" y="174.515"/><use xlink:href="#bm" x="145.419" y="174.515"/><use xlink:href="#bm" x="154.787" y="174.515"/><use xlink:href="#bo" x="164.156" y="174.515"/><use xlink:href="#bp" x="169.709" y="174.515"/><use xlink:href="#bw" x="182.553" y="174.515"/><use xlink:href="#bs" x="192.761" y="174.515"/><use xlink:href="#br" x="203.188" y="174.515"/><use xlink:href="#bE" x="213.396" y="174.515"/><use xlink:href="#bD" x="223.803" y="174.515"/><use xlink:href="#br" x="227.898" y="174.515"/><use xlink:href="#bE" x="238.106" y="174.515"/><use xlink:href="#bF" x="248.513" y="174.515"/></g></svg>