<svg xmlns="http://www.w3.org/2000/svg" xmlns:xlink="http://www.w3.org/1999/xlink" width="793.701" height="1058.268" viewBox="0 0 595.276 793.701" version="1.2"><defs><clipPath id="P"><path d="M362 146h232.555v233H362zm0 0"/></clipPath><clipPath id="Q"><path d="M365 146h229.555v233H365zm0 0"/></clipPath><clipPath id="R"><path d="M368 146h226.555v233H368zm0 0"/></clipPath><clipPath id="S"><path d="M371 146h223.555v233H371zm0 0"/></clipPath><clipPath id="T"><path d="M374 146h220.555v233H374zm0 0"/></clipPath><clipPath id="U"><path d="M377 146h217.555v233H377zm0 0"/></clipPath><clipPath id="V"><path d="M380 146h214.555v233H380zm0 0"/></clipPath><clipPath id="W"><path d="M383 146h211.555v233H383zm0 0"/></clipPath><symbol overflow="visible" id="a"><path d="M1.375-5.844V.453h.813v-6.297zM5.125.453l1.734-6.297h-.843L4.64-.5 3.266-5.844h-.844L4.156.453zm0 0"/></symbol><symbol overflow="visible" id="b"><path d="M.75.047v1.016h1.031V.046zm0 0"/></symbol><symbol overflow="visible" id="d"><path d="M3.75.703v-.64H.984c.051-.34.172-.665.36-.97.183-.308.39-.546.61-.702l.5-.375c.214-.164.405-.32.562-.47.164-.151.28-.28.343-.374.153-.207.266-.43.329-.672a2.68 2.68 0 0 0 0-1.516 1.872 1.872 0 0 0-.329-.625 1.67 1.67 0 0 0-.546-.421 1.679 1.679 0 0 0-.735-.157c-.312 0-.582.067-.797.188a1.57 1.57 0 0 0-.531.484c-.148.211-.258.457-.328.734a4.355 4.355 0 0 0-.094.938H1c0-.227.02-.445.063-.656.039-.207.101-.395.187-.563.09-.164.203-.297.328-.39a.853.853 0 0 1 .484-.141c.31 0 .551.129.72.375.175.25.265.586.265 1 0 .2-.027.398-.078.594a1.47 1.47 0 0 1-.219.484c-.094.149-.184.27-.266.36-.086.085-.21.19-.375.312l-.703.531c-.398.305-.695.7-.89 1.188C.316-.29.21.203.203.703zm0 0"/></symbol><symbol overflow="visible" id="e"><path d="M2-6.219c-.574 0-1.008.32-1.297.953C.422-4.64.281-3.77.281-2.656c0 1.117.14 1.988.422 2.61.29.612.723.921 1.297.921.57 0 1.004-.309 1.297-.922.3-.621.453-1.492.453-2.61 0-1.113-.152-1.984-.453-2.609-.293-.632-.727-.953-1.297-.953zm0 .61c.32 0 .578.27.766.796.183.532.28 1.254.28 2.157 0 .898-.097 1.613-.28 2.14-.188.52-.446.782-.766.782-.324 0-.574-.262-.75-.782-.18-.527-.266-1.242-.266-2.14 0-.903.086-1.625.266-2.156.176-.528.426-.797.75-.797zm0 0"/></symbol><symbol overflow="visible" id="f"><path d="M7.016-.75v-5.875H6.28v.703H4.078v.594h2.203v.828H4.078v.61h2.203v3.14zM5.562-3.14c-.136.03-.32.07-.546.109-.22.031-.465.058-.735.078-.25.031-.511.058-.781.078a8.366 8.366 0 0 1-.719.031l-1.156.016v-3.578h-.75v4.234H2.25c.207-.008.39-.015.547-.015.27-.008.539-.02.812-.032.278-.02.54-.047.782-.078.246-.027.472-.062.671-.094.196-.027.364-.066.5-.109zM7.22 1.202v-.64H2.484v-1.829H1.72v2.47zm0 0"/></symbol><symbol overflow="visible" id="g"><path d="M6-6.625v8h.766v-4.234h1.187v-.672H6.766v-3.094zM3.125-4.687v-1.594h-.797v1.468c0 .438-.05.856-.14 1.25-.094.399-.243.77-.438 1.11-.2.355-.445.68-.734.969a5.975 5.975 0 0 1-1 .796c.101.075.218.16.343.25.133.094.239.18.313.25a3.79 3.79 0 0 0 .625-.515c.215-.207.426-.438.625-.688.176-.226.336-.468.484-.718.145-.258.254-.508.328-.75.09.273.22.535.375.78.153.25.332.481.532.688.175.2.359.387.546.563.196.168.395.316.594.437.07-.07.16-.156.266-.25a2.83 2.83 0 0 1 .328-.28 5.247 5.247 0 0 1-1-.735c-.293-.27-.54-.57-.734-.907a3.43 3.43 0 0 1-.391-.968 4.88 4.88 0 0 1-.125-1.156zm0 0"/></symbol><symbol overflow="visible" id="h"><path d="M7.094-2.406v-4.219h-.75v1.766H4.75a1.816 1.816 0 0 0-.234-.672 1.852 1.852 0 0 0-.454-.532 2.145 2.145 0 0 0-.625-.343 2.05 2.05 0 0 0-.75-.14c-.292 0-.57.054-.828.155-.25.106-.472.246-.656.422a1.713 1.713 0 0 0-.437.61 1.938 1.938 0 0 0-.157.78c0 .282.051.544.157.782.101.242.25.445.437.61.184.18.406.32.656.421.258.094.536.141.829.141.257 0 .503-.035.734-.11.226-.081.43-.19.61-.328.175-.132.327-.3.452-.5.121-.195.211-.414.266-.656h1.594v1.813zM1.359-4.578c0-.363.118-.672.36-.922.238-.258.566-.39.984-.39.402 0 .727.132.969.39.238.25.36.559.36.922 0 .367-.122.676-.36.922-.242.25-.567.375-.969.375-.418 0-.746-.125-.984-.375-.242-.246-.36-.555-.36-.922zm5.72 5.86v-3.298h-.735v.97H2.547v-.97H1.78v3.297zm-.735-.61H2.547v-1.11h3.797zm0 0"/></symbol><symbol overflow="visible" id="i"><path d="M7.781.375v-.656H4.406v-1.75H6.75v-4.281h-.734v1.406h-3.97v-1.407h-.75v4.282h2.345v1.75H.28v.656zM6.016-2.672h-3.97v-1.61h3.97zm0 0"/></symbol><symbol overflow="visible" id="j"><path d="M1.156-6.156v.625h4.907c-.032.625-.098 1.3-.188 2.015-.094.72-.207 1.41-.328 2.063h.75c.07-.352.133-.727.187-1.125.059-.402.118-.813.172-1.219.051-.402.094-.805.125-1.203.028-.402.055-.79.078-1.156zM7.796.375v-.656h-4.03v-3.063h-.75V-.28H.28v.656zm0 0"/></symbol><symbol overflow="visible" id="k"><path d="M2.875.031c.434 0 .82-.144 1.156-.437.332-.301.594-.64.782-1.016.183-.34.316-.71.39-1.11.082-.402.125-.804.125-1.202 0-.403-.05-.813-.14-1.22a4.843 4.843 0 0 0-.407-1.155A3.031 3.031 0 0 0 4-7.063a1.747 1.747 0 0 0-1.14-.421c-.844 0-1.473.457-1.876 1.359-.406.906-.609 1.707-.609 2.39 0 .712.203 1.52.61 2.422C1.386-.413 2.02.032 2.874.032zm0-.281c-.75 0-1.227-.441-1.422-1.328-.2-.895-.297-1.613-.297-2.156 0-.54.098-1.254.297-2.141.195-.895.672-1.344 1.422-1.344.363 0 .648.137.86.407.206.273.363.566.468.875.113.343.195.71.25 1.093.059.387.094.758.094 1.11 0 .324-.035.675-.094 1.046a9.33 9.33 0 0 1-.203 1.016c-.094.336-.254.66-.469.969-.21.305-.511.453-.906.453zm0 0"/></symbol><symbol overflow="visible" id="l"><path d="M2.5-4.39l.86-.47c.245-.132.503-.304.765-.515a.964.964 0 0 0 .406-.797c0-.445-.183-.773-.547-.984a2.113 2.113 0 0 0-1.125-.297c-.304.012-.59.066-.859.156-.273.086-.52.238-.734.453a1.957 1.957 0 0 0-.204.266c-.085.117-.125.215-.125.297 0 .031.008.066.032.093.02.032.047.047.078.047.039 0 .078-.023.11-.078.027-.05.054-.093.077-.125.133-.215.32-.398.563-.547a1.4 1.4 0 0 1 .766-.234c.269 0 .519.082.75.234.226.157.343.387.343.688 0 .48-.293.902-.875 1.266-.574.367-1.039.667-1.39.906l-.375.25-.11.078c-.043.023-.062.066-.062.125 0 .031.008.058.031.078a.143.143 0 0 0 .094.031c.039 0 .086-.008.14-.031a.53.53 0 0 0 .125-.063c.184-.113.391-.203.61-.265.226-.07.457-.11.687-.11.559 0 1.008.196 1.344.579.332.375.5.836.5 1.375 0 .367-.086.714-.25 1.046a2.37 2.37 0 0 1-.656.844 3.086 3.086 0 0 1-.688.422c-.281.145-.55.219-.797.219a.489.489 0 0 1-.328-.11 1.133 1.133 0 0 1-.203-.28 1.328 1.328 0 0 0-.219-.298.44.44 0 0 0-.328-.14c-.136 0-.242.043-.312.125a.456.456 0 0 0-.11.312c0 .278.133.473.407.578.277.102.53.157.75.157.445 0 .894-.118 1.343-.344.446-.23.832-.492 1.157-.781.308-.278.562-.614.75-1 .195-.383.296-.786.296-1.204 0-.59-.207-1.078-.609-1.453-.398-.37-.894-.562-1.484-.562zm0 0"/></symbol><symbol overflow="visible" id="m"><path d="M1.875-1.047h-.203c-.117 0-.172-.02-.172-.062 0-.04.031-.102.094-.188.058-.09.11-.156.14-.187L3.656-3.36c.34-.301.66-.633.953-1 .29-.371.438-.805.438-1.297 0-.559-.227-1-.672-1.313a2.416 2.416 0 0 0-1.453-.484c-.375 0-.723.066-1.031.187-.313.125-.598.34-.844.641a6.377 6.377 0 0 1-.219.328c-.117.168-.172.293-.172.375 0 .031.008.059.031.078.02.024.047.032.079.032.05 0 .093-.024.125-.079.039-.05.07-.093.093-.125.153-.3.375-.55.657-.75.277-.207.597-.312.953-.312.445 0 .812.144 1.094.422.277.281.421.644.421 1.078 0 .555-.23 1.121-.687 1.703-.45.574-.852 1.059-1.203 1.453L.703-.594a.789.789 0 0 1-.094.156.3.3 0 0 0-.062.157c0 .074.047.11.14.11.09-.009.165-.016.22-.016h3.968a.406.406 0 0 0 .188-.032c.039-.027.062-.082.062-.156v-1.328-.156c0-.059-.043-.094-.125-.094-.063 0-.102.035-.11.094-.011.054-.023.105-.03.156-.032.293-.114.476-.235.547-.125.074-.336.11-.625.11zm0 0"/></symbol><symbol overflow="visible" id="n"><path d="M8.469 1.61v-9.376H7.406V1.61zM6.64 1.155v-8.75H5.578v2.813H4.25v1.078h1.328v4.86zM3.375-5.172v-1h1.422v-.969H.828v.97h1.406v.968c0 .492-.043.945-.125 1.36a5.053 5.053 0 0 1-.328 1.109 4.5 4.5 0 0 1-.687 1.078c-.274.304-.59.574-.953.812.07.063.148.13.234.188l.25.172c.082.062.16.129.234.187.07.063.141.117.204.156.175-.12.351-.28.53-.468.177-.196.348-.407.516-.625a6.36 6.36 0 0 0 .407-.625 3.14 3.14 0 0 0 .28-.641c.083.21.18.414.298.61.12.187.265.367.422.53.144.2.3.38.468.532.164.156.332.289.5.39.051-.058.102-.124.157-.187.058-.059.129-.125.203-.188L5.03-1c.059-.07.13-.14.203-.203a3.98 3.98 0 0 1-.89-.719 3.65 3.65 0 0 1-.563-.89 4.97 4.97 0 0 1-.312-1.063 8.113 8.113 0 0 1-.094-1.297zm0 0"/></symbol><symbol overflow="visible" id="o"><path d="M2.61.828h1.03v-1.984h.829v-.907H3.64v-5.265H2.75L.125-2.125v.969h2.484zm0-6v3.11H1.077zm0 0"/></symbol><symbol overflow="visible" id="p"><path d="M6.25-5.219v-.922H1.062v.922zm.625 3.907a6.179 6.179 0 0 1-.594.078c-.23.023-.472.043-.718.062-.25.012-.493.024-.72.031-.23.012-.413.016-.546.016v-.766c.465-.058.851-.222 1.156-.484.309-.258.469-.578.469-.953a1.17 1.17 0 0 0-.172-.61 1.533 1.533 0 0 0-.469-.468 2.668 2.668 0 0 0-.718-.313 3.137 3.137 0 0 0-.907-.125c-.312 0-.605.043-.875.125-.273.074-.511.18-.719.313-.199.125-.363.285-.484.468a1.134 1.134 0 0 0-.172.61c0 .375.164.7.5.969.332.273.742.441 1.235.5v.765H.67v1h2.032c.434 0 .86-.004 1.266-.015A71.7 71.7 0 0 0 5.14-.172a18.8 18.8 0 0 0 .984-.078c.3-.027.55-.055.75-.078zM3.656-2.61a1.76 1.76 0 0 1-.828-.188c-.23-.121-.344-.3-.344-.531 0-.215.114-.39.344-.516a1.81 1.81 0 0 1 .828-.187c.332 0 .614.066.844.187.238.125.36.301.36.516 0 .23-.122.41-.36.531-.23.125-.512.188-.844.188zm1.438-4.125v-.891H2.297v.89zm3.203 8.343v-9.375H7.203V1.61zm0 0"/></symbol><symbol overflow="visible" id="r"><path d="M8.063 1.61v-9.376H6.968V1.61zM5.374-.673v-6.5H1.062v6.5zM4.297-1.64h-2.14v-4.562h2.14zm0 0"/></symbol><symbol overflow="visible" id="s"><path d="M8.234 1.61v-9.376h-1.03v3.172h-.938v-3H5.203v8.75h1.063v-4.61h.937V1.61zM4.86-1.782a3.53 3.53 0 0 1-.375.062c-.148.024-.308.043-.484.063a19.59 19.59 0 0 1-1.031.047l-.922.015v-1.843h2.25V-7.25H.969v.984h2.25v1.86H.969V-.61l1.578-.016c.258 0 .508-.004.75-.016.238-.02.457-.039.656-.062.195-.02.375-.04.531-.063.153-.027.282-.05.375-.062zm0 0"/></symbol><symbol overflow="visible" id="t"><path d="M8.25 1.61v-9.376H7.172V1.61zM1.031-5.11c0 .337.055.65.172.938.121.293.3.555.531.781.215.211.473.383.766.516.3.125.633.188 1 .188.352 0 .68-.063.984-.188.301-.133.563-.305.782-.516.207-.226.375-.488.5-.78.12-.29.187-.602.187-.938 0-.32-.066-.625-.187-.907a2.622 2.622 0 0 0-.5-.765 2.551 2.551 0 0 0-.782-.5 2.439 2.439 0 0 0-.984-.203c-.367 0-.7.07-1 .203-.293.125-.55.293-.766.5-.23.218-.41.476-.53.765a2.34 2.34 0 0 0-.173.907zm1.078 0c0-.382.125-.71.375-.984.246-.277.586-.422 1.016-.422.426 0 .758.145 1 .422.246.282.375.617.375 1 0 .399-.129.739-.375 1.016-.242.281-.574.422-1 .422-.43 0-.77-.14-1.016-.422A1.525 1.525 0 0 1 2.11-5.11zm4.72 3.438l-.626.094c-.262.031-.539.066-.828.094-.293.023-.582.043-.86.062a8.698 8.698 0 0 1-.718.031c-.211.024-.492.04-.844.047a29.809 29.809 0 0 1-1.906 0C.797-1.352.66-1.359.64-1.359v1.015c.007 0 .113.008.312.016.207 0 .445.008.719.016.27.011.55.011.844 0 .289-.008.535-.024.734-.047.363 0 .723-.008 1.078-.032.352-.027.68-.066.984-.109.31-.027.598-.066.86-.11.258-.038.476-.081.656-.124zm0 0"/></symbol><symbol overflow="visible" id="u"><path d="M9.094-4.266v-1.046H7.89v-2.454H6.812v6.032h1.079v-2.532zm-4.39-2.671v-.86H1.89v.86zm1.28 1.468v-.89H.656v.89zM.954-3.547c0 .219.054.426.171.61.121.187.297.351.516.484.207.137.453.246.734.328.29.074.602.11.938.11.714 0 1.296-.145 1.734-.438.433-.29.656-.656.656-1.094 0-.433-.215-.8-.64-1.094-.43-.289-1.004-.437-1.72-.437-.355 0-.679.043-.968.125-.293.074-.543.18-.75.312-.219.137-.387.301-.5.485a1.134 1.134 0 0 0-.172.61zm1.14 0c0-.226.117-.398.36-.515.237-.122.53-.188.874-.188.352 0 .64.059.86.172.226.117.343.293.343.531 0 .23-.117.41-.343.531-.22.118-.508.172-.86.172-.344 0-.637-.054-.875-.172-.242-.12-.36-.3-.36-.53zM7.89 1.641v-2.985H1.67v.953h5.095v2.032zm0 0"/></symbol><symbol overflow="visible" id="v"><path d="M6.344-7v-.89H2.766V-7zM5.25-5.5h2.64v-.89H1.22v.89h2.64c-.074.219-.226.41-.453.563a3.327 3.327 0 0 1-.765.375 7.03 7.03 0 0 1-.954.265c-.335.074-.66.133-.968.172a18.742 18.742 0 0 1 .688.875c.288-.05.597-.117.921-.203.32-.082.629-.188.922-.313.277-.113.535-.25.766-.406.238-.152.425-.332.562-.531.152.219.367.414.64.578.27.168.563.309.876.422.27.117.547.21.828.281.289.074.555.133.797.172.09-.133.191-.27.297-.406.101-.145.222-.301.359-.469a7.436 7.436 0 0 1-.953-.156 5.312 5.312 0 0 1-.953-.297 3.36 3.36 0 0 1-.766-.39A1.23 1.23 0 0 1 5.25-5.5zm3.563 3.688v-.954H.328v.954h3.828v1.578h1.11v-1.579zm-.766 3.234V.453H2.516v-1.656H1.39v2.625zm0 0"/></symbol><symbol overflow="visible" id="w"><path d="M8.234 1.61v-9.376H7.188V1.61zM.813-7.11v.97h2.296c-.011.492-.07.964-.171 1.421A6.42 6.42 0 0 1 2.5-3.437c-.23.48-.527.933-.89 1.359A6.733 6.733 0 0 1 .327-.953c.121.074.285.18.484.312.208.137.368.258.485.36.52-.395.973-.844 1.36-1.344a7.043 7.043 0 0 0 .937-1.703c.101-.258.191-.52.265-.781.07-.27.133-.551.188-.844v.156h1.328v1.531H3.922v1.016h1.453v3.406h1.047v-8.75H5.375v1.797H4.172c.02-.207.035-.422.047-.64.008-.215.015-.442.015-.672zm0 0"/></symbol><symbol overflow="visible" id="x"><path d="M3.313-6.36h2.484l-.031 2.954H3.359zm5.5 6.923v-1H5.124v-1.985h2.969v-.984h-1.25l.031-2.953h1.016v-.985H1.219v.985h1l.031 2.953H1.016v.984H4v1.985H.312v1zm0 0"/></symbol><symbol overflow="visible" id="y"><path d="M8.078-2.281v-5.485H6.984v1.922H5.516v.985h1.468v2.578zM6.031-3.844a5.855 5.855 0 0 1-.5.094c-.187.023-.394.043-.61.063a32.9 32.9 0 0 1-.671.062c-.219.012-.426.016-.61.016l-1.609.03v-1h2.985v-2.859H.937v.954h3.016v1.015H.938v2.844h.968c.258 0 .535-.004.828-.016.301-.007.582-.02.844-.03.52-.02 1-.052 1.438-.095.433-.05.773-.101 1.015-.156zM8.078 1.5v-3.36H1.875V1.5zM6.984.562h-4.03V-.905h4.03zm0 0"/></symbol><symbol overflow="visible" id="z"><path d="M6.781-7.766V1.61h1.094v-4.671h1.266v-1.063H7.875v-3.64zm-2.125 1.11v-.938H1.86v.938zM3.86-4.5v-.39H5.75v-.985H.766v.984h1.906v.391c0 .398-.067.773-.188 1.125a4.352 4.352 0 0 1-.468.969c-.23.324-.496.617-.797.875A5.515 5.515 0 0 1 .25-.86c.164.136.332.277.5.421.164.137.3.258.406.36.227-.164.442-.336.64-.516.208-.183.407-.375.595-.562.183-.215.351-.442.5-.672.144-.238.273-.484.39-.734.114.25.242.488.39.703.153.21.317.41.485.593.184.2.375.38.563.532.183.156.379.304.578.437.05-.05.101-.11.156-.172.059-.07.129-.144.203-.219l.188-.187c.07-.07.148-.145.234-.219A3.813 3.813 0 0 1 4.5-2.5a3.475 3.475 0 0 1-.469-.922A3.299 3.299 0 0 1 3.86-4.5zm0 0"/></symbol><symbol overflow="visible" id="A"><path d="M8.375 1.61v-9.376H7.328V1.61zm-1.828-.454v-8.75H5.5v2.578H4.047v1.079H5.5v5.093zM3.234-5.437V-7.36h-1.14V-5.5c0 .523-.04 1.004-.11 1.438-.074.437-.191.84-.343 1.203A4.272 4.272 0 0 1 .969-1.75c-.274.336-.59.633-.953.89.175.118.347.239.515.36.176.117.32.227.438.328a4.23 4.23 0 0 0 .531-.5A5.597 5.597 0 0 0 2.39-2c.114-.238.204-.484.266-.734.059.242.156.476.281.703.122.23.258.449.407.656.133.2.273.383.422.547a4.2 4.2 0 0 0 .453.406c.133-.121.27-.238.406-.344.133-.113.281-.234.438-.359a4.363 4.363 0 0 1-.782-.734 4.103 4.103 0 0 1-.547-.922A4.809 4.809 0 0 1 3.36-3.97a7.63 7.63 0 0 1-.125-1.469zm0 0"/></symbol><symbol overflow="visible" id="B"><path d="M8.234 1.594v-9.36H7.188v3.141h-1v-2.969H5.14v8.75h1.046v-4.64h1v5.078zM4.766-1.875c-.075.012-.184.027-.329.047-.136.023-.285.043-.437.062-.168.024-.34.043-.516.063A3.71 3.71 0 0 1 3-1.672h-.89v-4.516h2.124v-.968H1.031v6.5h1.141c.164 0 .281-.004.344-.016.183 0 .39-.004.609-.015.215-.02.43-.04.64-.063.208-.02.4-.04.579-.063.176-.019.316-.046.422-.078zm0 0"/></symbol><symbol overflow="visible" id="C"><path d="M8.984-3.266v-1.046h-1.25v-3.454H6.625V1.61h1.11v-4.875zM5.22-.625v-6.64H4.14v2.25H1.969v-2.25H.89v6.64zM4.14-1.594H1.969V-4.03H4.14zm0 0"/></symbol><symbol overflow="visible" id="D"><path d="M8.11 1.61v-9.376H7.015V1.61zM.765-3.907c0 .574.054 1.086.171 1.531.122.45.29.82.5 1.11.215.312.47.554.75.718.29.156.61.235.954.235.332 0 .64-.079.921-.235.29-.164.547-.406.766-.719.207-.3.367-.671.484-1.109.122-.445.188-.957.188-1.531 0-.559-.066-1.063-.188-1.5a3.818 3.818 0 0 0-.484-1.14 2.31 2.31 0 0 0-.766-.688 1.804 1.804 0 0 0-.921-.25c-.344 0-.664.086-.954.25a2.304 2.304 0 0 0-.75.687c-.21.305-.378.68-.5 1.125-.117.438-.171.945-.171 1.516zm1.093 0c0-.32.024-.633.079-.938.058-.308.148-.582.265-.812.102-.227.235-.414.39-.563a.795.795 0 0 1 .548-.234c.207 0 .39.074.546.219.153.148.286.34.391.578.102.23.188.504.25.812.059.305.094.617.094.938 0 .336-.035.66-.094.969a4.238 4.238 0 0 1-.25.812c-.105.242-.238.43-.39.563a.805.805 0 0 1-.547.203.834.834 0 0 1-.547-.204 1.471 1.471 0 0 1-.39-.562 3.2 3.2 0 0 1-.267-.813 5.561 5.561 0 0 1-.078-.968zm0 0"/></symbol><symbol overflow="visible" id="E"><path d="M8.813.563v-.985H5.124v-2.015c.883-.083 1.566-.364 2.047-.844.476-.477.719-1.047.719-1.703 0-.352-.082-.688-.235-1a2.463 2.463 0 0 0-.672-.813 3.313 3.313 0 0 0-1.062-.562 4.05 4.05 0 0 0-1.36-.22c-.511 0-.976.071-1.39.204-.406.137-.758.32-1.047.547-.293.242-.523.52-.688.828a2.243 2.243 0 0 0-.234 1.016c0 .656.238 1.226.719 1.703.476.48 1.164.761 2.062.844v2.015H.313v.984zm-4.25-3.938c-.293 0-.575-.031-.844-.094a2.395 2.395 0 0 1-.703-.312 1.63 1.63 0 0 1-.47-.516 1.312 1.312 0 0 1-.171-.687c0-.239.05-.457.156-.657.114-.195.27-.367.469-.515a2.836 2.836 0 0 1 1.563-.453c.3 0 .582.043.843.125.27.074.504.183.703.328.196.148.352.32.47.515.112.2.171.418.171.657 0 .261-.066.492-.188.687-.117.2-.269.367-.453.5-.199.149-.433.258-.703.328a3.775 3.775 0 0 1-.843.094zm0 0"/></symbol><symbol overflow="visible" id="F"><path d="M8.297-1.703v-6.063H7.203v2.422h-1.36v.938h1.36v.937h-1.36v.938h1.36v.828zM4.672-6.937v-.86H1.89v.86zM5.719-5.47v-.89H.656v.89zM.937-3.547c0 .219.051.426.157.61.113.187.27.351.468.484.208.137.446.246.72.328.277.074.581.11.905.11.715 0 1.286-.145 1.704-.438.414-.29.625-.656.625-1.094 0-.445-.207-.805-.61-1.078-.406-.277-.96-.422-1.656-.422-.344 0-.66.04-.938.11-.28.074-.523.18-.718.312-.211.137-.371.3-.485.484-.117.18-.171.38-.171.594zm1.172 0c0-.226.098-.398.297-.515.207-.122.485-.188.828-.188.352 0 .625.059.813.172a.58.58 0 0 1 .297.531c0 .23-.098.41-.282.531-.187.118-.464.172-.828.172-.355 0-.632-.054-.828-.172a.586.586 0 0 1-.297-.53zm6.188 5.188v-2.985H1.922v.953h5.234v2.032zm0 0"/></symbol><symbol overflow="visible" id="G"><path d="M8.14-.875v-6.89H7.063v6.89zM3.767-6.297v-1.266H2.609v1.297c0 .368-.058.707-.171 1.016a3.134 3.134 0 0 1-.47.828c-.23.305-.503.574-.812.813a5 5 0 0 1-.968.578c.152.125.316.261.484.406.176.148.312.27.406.36.195-.102.399-.235.61-.391a4.9 4.9 0 0 0 .625-.531c.195-.184.374-.391.53-.61.153-.215.27-.437.345-.656a2.7 2.7 0 0 0 .437.64c.176.2.363.383.563.547.183.168.378.32.578.454.195.124.379.23.546.312.083-.113.192-.25.329-.406.132-.164.265-.317.39-.453a3.867 3.867 0 0 1-.843-.438 3.419 3.419 0 0 1-.735-.687 2.93 2.93 0 0 1-.5-.829 2.611 2.611 0 0 1-.187-.984zm4.593 7.719V.438H3.125v-2.016H2v3zm0 0"/></symbol><symbol overflow="visible" id="H"><path d="M8.156 1.61v-9.376H7.062V1.61zM1.094-7.188v.984h3.093a7.175 7.175 0 0 1-.28 1.484 6.35 6.35 0 0 1-.595 1.328A6.033 6.033 0 0 1 2.173-2 8.08 8.08 0 0 1 .594-.89a18.454 18.454 0 0 1 .938.75 8.427 8.427 0 0 0 1.75-1.438c.495-.55.91-1.156 1.234-1.813.289-.57.507-1.175.656-1.812a9.81 9.81 0 0 0 .234-1.984zm0 0"/></symbol><symbol overflow="visible" id="I"><path d="M5.172-7.516v-.265H3.969v.265c0 .344-.106.645-.313.891-.21.25-.488.46-.828.625a4.66 4.66 0 0 1-1 .406 8.34 8.34 0 0 1-1.11.25c.122.137.243.285.36.438.121.148.227.277.313.39.32-.07.644-.156.968-.25.332-.101.645-.226.938-.375.258-.132.5-.289.719-.468.226-.176.414-.38.562-.61.152.25.367.477.64.672.27.188.563.356.876.5.277.137.562.254.843.344.29.086.555.148.797.187.07-.09.172-.218.297-.375.121-.164.25-.316.375-.453a6.77 6.77 0 0 1-1.078-.218 5.163 5.163 0 0 1-1-.422 2.773 2.773 0 0 1-.828-.641 1.336 1.336 0 0 1-.328-.89zm3.64 4.391v-.922H.329v.922h3.64v.844H1.392v.86H6.5v.64H1.39v2.328h6.548v-.86H2.625V.016h5.11v-2.297H5.155v-.86zm0 0"/></symbol><symbol overflow="visible" id="J"><path d="M4.313-5.078v-.031h1.796v-.938H1.313v.938h1.796v.015c-.03.211-.113.414-.234.61a2.273 2.273 0 0 1-.438.515 3.6 3.6 0 0 1-.812.531c-.293.149-.59.262-.89.344.12.117.265.254.421.406.153.157.285.293.39.407a5.1 5.1 0 0 0 .673-.297c.215-.121.426-.258.625-.406.176-.145.344-.297.5-.454a2.65 2.65 0 0 0 .375-.5c.101.18.234.348.39.5.164.149.336.286.516.407.195.136.395.258.594.36.195.093.383.163.562.202.07-.101.172-.226.297-.375.121-.152.25-.297.375-.422a3.105 3.105 0 0 1-.703-.25 2.857 2.857 0 0 1-.656-.421 2.363 2.363 0 0 1-.532-.532 1.369 1.369 0 0 1-.25-.61zm2.546 3.64a7.676 7.676 0 0 1-.671.079c-.25.023-.504.043-.75.062-.25.024-.489.04-.704.047a9.542 9.542 0 0 1-.484.016v-1.391H3.14v1.406H.64v1H2.72c.332 0 .695-.004 1.094-.015.402-.008.8-.032 1.187-.063.383-.02.742-.039 1.078-.062.332-.028.594-.067.781-.11zM8.281 1.61v-9.375H7.187V1.61zM5.047-6.703v-.922H2.28v.922zm0 0"/></symbol><symbol overflow="visible" id="K"><path d="M8.813-2.406v-.985H5.124v-1.062h2.719v-.969H2.5v-1.14h5.25v-.97H1.39v3.079H4v1.062H.328v.985zM4.563 1.78c1.09 0 1.925-.18 2.5-.531.582-.344.875-.777.875-1.297 0-.508-.293-.937-.875-1.281-.575-.34-1.41-.516-2.5-.516-1.106 0-1.95.176-2.532.516-.574.344-.86.773-.86 1.281 0 .52.286.953.86 1.297.582.352 1.426.531 2.531.531zM2.438-.047c0-.3.187-.531.562-.687.371-.153.895-.235 1.563-.235.644 0 1.156.086 1.53.25.384.168.579.399.579.688 0 .277-.195.5-.578.656-.375.164-.887.25-1.532.25-.667 0-1.19-.086-1.562-.25-.375-.156-.563-.383-.563-.672zm0 0"/></symbol><symbol overflow="visible" id="L"><path d="M8.953-3.36v-.968H7.781v-1.078h1.172v-.953H7.781v-1.407H6.688v5.938H7.78V-3.36zM4.61-6.937v-.859H1.781v.86zM5.875-5.53v-.86H.531v.86zM.797-3.72c0 .2.055.387.172.563.12.18.297.336.515.469.207.124.457.23.75.312.301.074.625.11.97.11.726 0 1.312-.141 1.75-.422.433-.278.655-.63.655-1.047 0-.403-.222-.739-.656-1-.43-.27-1.008-.407-1.734-.407-.356 0-.684.04-.985.11a2.888 2.888 0 0 0-.75.297 1.547 1.547 0 0 0-.515.453 1.01 1.01 0 0 0-.172.562zm3.656-.015c0 .23-.113.402-.328.515-.219.106-.523.156-.906.156-.387 0-.696-.05-.922-.156-.219-.113-.328-.281-.328-.5 0-.207.11-.367.328-.484.226-.121.535-.188.922-.188.383 0 .687.059.906.172.215.117.328.278.328.485zM7.97 0a1.2 1.2 0 0 0-.235-.719 1.985 1.985 0 0 0-.671-.562 3.483 3.483 0 0 0-1.016-.344A6.438 6.438 0 0 0 4.75-1.75c-.46 0-.887.043-1.281.125-.387.074-.73.184-1.031.328a1.965 1.965 0 0 0-.688.547c-.168.21-.25.45-.25.719 0 .277.078.531.234.75.164.226.395.422.688.578.289.152.633.27 1.031.344.395.082.82.125 1.281.125.457 0 .88-.04 1.266-.11a4 4 0 0 0 1.031-.328c.29-.156.52-.348.688-.562A1.25 1.25 0 0 0 7.969 0zm-5.25-.016c0-.164.054-.3.172-.406.113-.113.265-.203.453-.266.183-.07.398-.125.64-.156.246-.027.5-.047.75-.047.559 0 1.032.075 1.407.22.382.136.578.355.578.655 0 .153-.059.29-.172.407a1.21 1.21 0 0 1-.438.28c-.18.071-.386.126-.625.157a4.62 4.62 0 0 1-.734.063 4.9 4.9 0 0 1-.766-.063 2.798 2.798 0 0 1-.64-.156A1.29 1.29 0 0 1 2.875.39a.59.59 0 0 1-.156-.407zm0 0"/></symbol><symbol overflow="visible" id="M"><path d="M6.734-7.766V1.61h1.079v-4.562h1.234v-1.031H7.812v-3.782zM.86-7.219v.969h3.61c0 .313-.012.648-.032 1-.023.344-.05.691-.078 1.031l-.125 1.016c-.03.324-.07.613-.109.86H5.25a34.15 34.15 0 0 0 .25-2.329c.07-.84.117-1.691.14-2.547zm5.532 5.703a9.902 9.902 0 0 1-.735.094 49.5 49.5 0 0 1-.922.063c-.312.023-.62.043-.921.062-.305.012-.54.016-.704.016v-2.985H2.016v2.985H.39v1h1.14c.508 0 1.008-.004 1.5-.016.489-.02.942-.039 1.36-.062a38.67 38.67 0 0 0 1.14-.094c.34-.027.63-.067.86-.11zm0 0"/></symbol><symbol overflow="visible" id="N"><path d="M8.094 1.61v-9.376h-1.11V1.61zM5.39-.61v-6.656H4.297v2.25H2.14v-2.25H1.062v6.657zm-1.094-.984H2.14V-4.03h2.156zm0 0"/></symbol><symbol overflow="visible" id="O"><path d="M8.281-.875v-6.89H7.187v2.14H5.47v1.031h1.718v3.719zM8.5 1.422V.438H3.25V-1.61H2.14v3.03zM3.828-5.844v-.547h1.703v-.968H1v.968h1.688v.516c0 .293-.051.574-.141.844a2.989 2.989 0 0 1-.375.718c-.23.325-.512.606-.844.844a4.487 4.487 0 0 1-1.031.578c.144.125.297.27.453.422.164.149.29.262.375.344.215-.102.441-.234.672-.39.238-.165.46-.348.672-.547.176-.165.332-.344.469-.532.144-.183.253-.367.328-.547.09.18.21.356.359.532.152.168.32.324.5.468.215.188.438.356.656.5.215.137.407.239.563.297.07-.09.172-.219.297-.375.132-.164.27-.316.406-.453a3.37 3.37 0 0 1-1.531-1.016 3.01 3.01 0 0 1-.5-.734 2.222 2.222 0 0 1-.188-.922zm0 0"/></symbol><symbol overflow="visible" id="X"><path d="M1.688 0v-7.328H1.03V0zm0 0"/></symbol><symbol overflow="visible" id="Y"><path d="M1.297-2.844c0-.36 0-.656.125-1 .187-.531.687-1.031 1.406-1.031.938 0 1.313.484 1.313 1.438V0h.578v-3.453c0-.438 0-.828-.25-1.219-.36-.547-.922-.75-1.547-.75-.703 0-1.156.36-1.625.875v-.734H.703V0h.594zm0 0"/></symbol><symbol overflow="visible" id="aa"><path d="M2.484-.484A1.742 1.742 0 0 1 2-.406c-.484 0-.5-.219-.5-.75v-3.61h.953v-.515H1.5V-6.75H.906v1.469H.203v.515h.703v3.86c0 .781.328 1.047.906 1.047.282 0 .532-.094.672-.125zm0 0"/></symbol><symbol overflow="visible" id="ab"><path d="M1.297 0v-2.844c0-.36 0-.656.125-1 .187-.531.687-1.031 1.406-1.031.938 0 1.313.484 1.313 1.438V0h.578v-3.453c0-.438 0-.828-.25-1.219-.36-.547-.922-.75-1.547-.75-.703 0-1.156.36-1.625.875v-2.781H.703V0zm0 0"/></symbol><symbol overflow="visible" id="ac"><path d="M1.063-3c.125-1 .671-1.875 1.703-1.875 1.062 0 1.609.844 1.609 1.875zM5-2.5c.016-1.89-.844-2.922-2.234-2.922-1.438 0-2.329 1.266-2.329 2.797 0 1.563.704 2.766 2.329 2.766 1.296 0 1.906-.766 2.187-1.766h-.656C4.125-.844 3.53-.406 2.766-.406 1.64-.406 1.062-1.36 1.062-2.5zm0 0"/></symbol><symbol overflow="visible" id="ad"><path d="M4.89-3.61c-.171-1.234-.937-1.812-2.109-1.812-1.515 0-2.328 1.328-2.328 2.797 0 1.563.719 2.766 2.328 2.766 1.281 0 1.985-.797 2.188-1.97h-.625c-.14.876-.688 1.423-1.563 1.423-1.203 0-1.703-1.11-1.703-2.219 0-1.11.5-2.25 1.703-2.25.781 0 1.313.469 1.516 1.266zm0 0"/></symbol><symbol overflow="visible" id="ae"><path d="M2.719.14C4.14.14 5.063-.968 5.063-2.64c0-1.547-.766-2.782-2.344-2.782-1.563 0-2.344 1.25-2.344 2.781C.375-.797 1.422.125 2.719.141zm1.719-2.78c0 1.14-.485 2.234-1.72 2.234C1.595-.406 1-1.328 1-2.641c0-1.14.484-2.234 1.719-2.234 1.25 0 1.719 1 1.719 2.234zm0 0"/></symbol><symbol overflow="visible" id="af"><path d="M1.219-2.844c0-.437.078-1.078.328-1.422.297-.406.719-.609 1.14-.609.829 0 1.094.469 1.094 1.234V0h.578v-2.844c0-.437.079-1.078.329-1.422.296-.406.718-.609 1.156-.609.828 0 1.078.469 1.078 1.234V0h.594v-3.328c0-1.063-.204-2.094-1.579-2.094-.718 0-1.328.344-1.656 1.016-.218-.563-.547-1.016-1.484-1.016-.656 0-1.266.344-1.563.938H1.22v-.797H.625V0h.594zm0 0"/></symbol><symbol overflow="visible" id="ag"><path d="M1.375 0v-5.281H.797V0zm.031-6.422v-.906h-.64v.906zm0 0"/></symbol><symbol overflow="visible" id="ah"><path d="M4.61-2.625c0 1.203-.641 2.219-1.704 2.219-1.219 0-1.781-1.078-1.734-2.39.016-1.329.75-2.079 1.734-2.079 1.11 0 1.703.984 1.703 2.25zm0-1.719h-.016c-.344-.703-1.11-1.078-1.75-1.078-1.64 0-2.297 1.219-2.297 2.766C.547-1.172 1.266.14 2.812.14c.704 0 1.438-.344 1.797-.985C4.641.36 4.438 1.61 2.83 1.61c-.704 0-1.345-.171-1.517-.968H.688c.032.625.657 1.515 2.141 1.515 1.922 0 2.375-1.25 2.375-2.672V-5.28H4.61zm0 0"/></symbol><symbol overflow="visible" id="ai"><path d="M.672 2c.156.047.344.078.547.078.812 0 1.125-.828 1.61-2.156l1.89-5.203h-.64L2.452-.75.828-5.281H.172L2.14.047C1.92.5 1.812 1.5 1.156 1.5c-.172 0-.328-.031-.484-.063zm0 0"/></symbol><symbol overflow="visible" id="aj"><path d="M4.016-1.953c0 1.078-.922 1.547-1.844 1.547-.563 0-1.094-.313-1.094-.953 0-.704.531-1.047 1.422-1.11.516-.047 1.016-.094 1.516-.297zM2.219-2.97C1.03-2.797.453-2.266.453-1.375.453-.359 1.25.141 2.141.141c.734 0 1.406-.297 1.89-.875.016.375.078.718.469.78a.774.774 0 0 0 .266.032c.171 0 .375-.062.453-.094V-.5c-.5.188-.61.078-.61-.406v-2.875c0-1.219-.812-1.64-1.843-1.64-1.11 0-2 .5-2.079 1.75h.594c.11-.923.672-1.204 1.485-1.204.906 0 1.25.453 1.25 1.078 0 .188-.016.453-.204.547-.203.094-.562.156-.78.172zm0 0"/></symbol><symbol overflow="visible" id="ak"><path d="M1.328-2.594c0-1.172.344-2.187 1.672-2.156v-.672c-.86 0-1.344.281-1.656 1.14h-.016v-1H.734V0h.594zm0 0"/></symbol><symbol overflow="visible" id="al"><path d="M.453-1.656C.5-.656 1.187.14 2.375.14s2.063-.532 2.063-1.532c0-2.03-3.25-1.14-3.25-2.578 0-.531.406-.906 1.156-.906.734 0 1.25.297 1.36 1.11h.593c-.14-1.188-.86-1.657-1.953-1.657-1.125 0-1.781.64-1.781 1.516 0 2.078 3.25 1 3.25 2.515 0 .516-.407.985-1.25.985-.876 0-1.329-.344-1.516-1.25zm0 0"/></symbol><symbol overflow="visible" id="am"><path d="M1.719-.89H1V0h.328v.344c0 .406-.172.578-.328.672v.375c.406-.125.719-.5.719-1.079zm0 0"/></symbol><symbol overflow="visible" id="an"><path d="M1.375 0v-7.328H.797V0zm0 0"/></symbol><symbol overflow="visible" id="ao"><path d="M1.36-2.656c0-1.188.64-2.219 1.718-2.219 1.203 0 1.766 1.078 1.719 2.406 0 1.313-.734 2.063-1.719 2.063-1.11 0-1.719-.985-1.719-2.25zm0 1.734h.015C1.719-.234 2.5.141 3.141.141c1.625 0 2.28-1.204 2.28-2.766 0-1.484-.702-2.797-2.25-2.797-.718 0-1.437.344-1.812.984v-2.89H.766V0h.593zm0 0"/></symbol><symbol overflow="visible" id="ap"><path d="M4 0h.703l-1.89-2.734L4.64-5.281h-.75l-1.438 2.11-1.39-2.11H.328l1.797 2.547L.172 0H.89l1.578-2.281zm0 0"/></symbol><symbol overflow="visible" id="aq"><path d="M1.36-2.625c0-1.266.609-2.25 1.718-2.25.985 0 1.719.75 1.719 2.078.047 1.313-.516 2.39-1.719 2.39C2-.406 1.36-1.421 1.36-2.624zm0 1.781c.374.64 1.093.985 1.812.985 1.547 0 2.25-1.313 2.25-2.797 0-1.547-.656-2.766-2.281-2.766-.641 0-1.422.375-1.766 1.078h-.016v-.937H.766v7.36h.593zm0 0"/></symbol><symbol overflow="visible" id="ar"><path d="M4.61-2.656c0 1.265-.594 2.25-1.704 2.25-.984 0-1.719-.75-1.734-2.063-.047-1.328.516-2.406 1.734-2.406 1.063 0 1.703 1.031 1.703 2.219zm0-1.781c-.36-.641-1.094-.985-1.798-.985-1.546 0-2.265 1.313-2.265 2.797 0 1.563.656 2.766 2.297 2.766.64 0 1.406-.375 1.75-1.063h.015V0h.594v-7.328H4.61zm0 0"/></symbol><symbol overflow="visible" id="as"><path d="M4.14-2.406c0 1.156-.577 2-1.546 2-.922 0-1.297-.5-1.297-1.406v-3.47H.703v3.485C.703-.703 1.156.141 2.5.141c.89 0 1.328-.5 1.64-.875V0h.579v-5.281H4.14zm0 0"/></symbol><symbol overflow="visible" id="at"><path d="M3.875-5.281h-.656l-1.172 4.5-1.313-4.5H.141L1.687 0h.704l1.125-4.438h.03L4.642 0h.625l1.656-5.281h-.61L4.984-.813zm0 0"/></symbol><symbol overflow="visible" id="au"><path d="M2.11 0h.656l1.953-5.281h-.625L2.454-.75.796-5.281H.172zm0 0"/></symbol><symbol overflow="visible" id="av"><path d="M.953-4.766V0h.578v-4.766h.985v-.515H1.53v-.64c0-.485.032-1 .625-1 .11 0 .235.015.36.046v-.563a2.426 2.426 0 0 0-.485-.046c-.781 0-1.078.53-1.078 1.375v.828h-.75v.515zm0 0"/></symbol><symbol overflow="visible" id="aw"><path d="M1.719 0v-.89H1V0zm0 0"/></symbol><symbol overflow="visible" id="ax"><path d="M.156-6.75h2.235V0h.656v-6.75H5.28v-.578H.156zm0 0"/></symbol><symbol overflow="visible" id="ay"><path d="M1.25 0v-2l.953-.938L4.11 0h.657L2.64-3.375l1.89-1.906h-.797L1.25-2.766v-4.562H.672V0zm0 0"/></symbol><symbol overflow="visible" id="az"><path d="M1.453 0v-3.594H5.61V0h.672v-7.328H5.61v3.14H1.453v-3.14H.781V0zm0 0"/></symbol><symbol overflow="visible" id="aA"><path d="M5.578 0v-.594H1.453V-3.5h3.64v-.594h-3.64V-6.75h4.031v-.578H.797V0zm0 0"/></symbol><symbol overflow="visible" id="aB"><path d="M4.61-2.656c0 1.265-.594 2.25-1.704 2.25-.984 0-1.719-.75-1.734-2.063-.047-1.328.516-2.406 1.734-2.406 1.063 0 1.703 1.031 1.703 2.219zm0-1.688h-.016c-.344-.703-1.11-1.078-1.75-1.078-1.64 0-2.297 1.219-2.297 2.766C.547-1.172 1.266.14 2.812.14c.704 0 1.438-.344 1.797-.985v2.922h.594v-7.36H4.61zm0 0"/></symbol><symbol overflow="visible" id="aC"><path d="M.828 0l.828-2.297h3.219L5.688 0h.687L3.672-7.328h-.75L.14 0zm2.438-6.75L4.64-2.89H1.89zm0 0"/></symbol><symbol overflow="visible" id="aD"><path d="M5.656 0v-.594H1.125L5.641-6.75v-.578H.687v.578h4.125L.298-.578V0zm0 0"/></symbol><symbol overflow="visible" id="aE"><path d="M2.203-7.531C1.156-6.063.531-4.671.531-2.813c0 1.938.61 3.204 1.672 4.766h.5C1.813.547 1.22-1.063 1.22-2.766c0-1.703.562-3.359 1.484-4.765zm0 0"/></symbol><symbol overflow="visible" id="aF"><path d="M1.047 1.953C2.109.484 2.719-.907 2.719-2.766c0-1.937-.594-3.218-1.672-4.765h-.5c.906 1.406 1.5 3.015 1.5 4.703 0 1.719-.563 3.375-1.5 4.781zm0 0"/></symbol><symbol overflow="visible" id="aG"><path d="M7.781-8.875v5.844h1.25v-2.875h1.375v-1.125H9.031v-1.844zm-.484 3.39c-.2.044-.442.09-.719.141-.281.043-.59.082-.922.11-.324.043-.668.074-1.031.093-.355.024-.695.032-1.016.032l-1.312.015v-3.515H1.062v4.671H3.11c.277-.007.46-.015.546-.015.77-.008 1.485-.055 2.14-.14.665-.09 1.165-.177 1.5-.25zm1.75 7.204v-4.297H2.109v4.297zM7.797.64H3.359v-2.11h4.438zm0 0"/></symbol><symbol overflow="visible" id="aH"><path d="M10.172-1.766V-2.89H.375v1.125h2.484v3.5h1.282v-3.5h2.343v3.594H7.75v-3.594zm-4.89-2.03c.6 0 1.144-.063 1.624-.188a4.378 4.378 0 0 0 1.219-.532 2.51 2.51 0 0 0 .766-.796c.175-.301.265-.63.265-.985 0-.34-.09-.664-.265-.969a2.396 2.396 0 0 0-.766-.796 4.148 4.148 0 0 0-1.234-.532 5.98 5.98 0 0 0-1.625-.203 6.12 6.12 0 0 0-1.641.203c-.48.125-.887.305-1.219.531a2.383 2.383 0 0 0-.75.797c-.18.305-.265.63-.265.97 0 .355.086.683.265.984.176.304.426.57.75.796.332.22.739.399 1.219.532.488.125 1.04.187 1.656.187zm-2.532-2.5c0-.415.227-.75.688-1 .464-.259 1.078-.391 1.828-.391.738 0 1.336.132 1.796.39.465.262.704.606.704 1.031 0 .418-.239.746-.704.985-.468.242-1.07.36-1.796.36-.75 0-1.364-.126-1.829-.376-.46-.258-.687-.594-.687-1zm0 0"/></symbol><symbol overflow="visible" id="aI"><path d="M9.406-1.016v-7.859h-1.25v1.906H6v1.14h2.156v4.813zm-5.062-6.14v-1.485H3.016v1.516c0 .398-.07.77-.204 1.11-.124.343-.3.663-.515.952-.25.356-.559.668-.922.938a7.196 7.196 0 0 1-1.156.703c.176.137.363.293.562.469.196.168.352.305.469.406.227-.121.46-.273.703-.453a5.72 5.72 0 0 0 .719-.61c.226-.214.43-.445.61-.687.175-.246.304-.5.39-.75.133.262.3.508.5.734.207.22.43.43.672.625.207.18.426.348.656.5.227.149.441.27.64.36.09-.133.22-.29.376-.469.152-.183.304-.36.453-.515a4.036 4.036 0 0 1-.985-.5 3.899 3.899 0 0 1-.843-.797 3.45 3.45 0 0 1-.579-.938 2.824 2.824 0 0 1-.218-1.11zm5.312 8.781V.5H3.61v-2.39H2.313v3.515zm0 0"/></symbol><symbol overflow="visible" id="aK"><path d="M9.266 1.828V-8.844H8.28V1.828zM.953-4.484c0 .699.07 1.304.219 1.812.144.512.344.93.594 1.25.226.344.5.602.812.766.32.156.656.234 1 .234.32 0 .64-.078.953-.234.32-.164.602-.422.844-.766.238-.332.43-.75.578-1.25.152-.508.234-1.113.234-1.812 0-.696-.082-1.301-.234-1.813-.148-.508-.34-.93-.578-1.266a2.54 2.54 0 0 0-.844-.718 2.043 2.043 0 0 0-.953-.25c-.336 0-.66.082-.969.234-.312.156-.59.399-.828.719-.261.336-.465.762-.61 1.281-.148.512-.218 1.117-.218 1.813zm.969-.016c0-.395.031-.781.094-1.156.07-.383.18-.723.328-1.016.133-.289.304-.523.515-.703.207-.176.446-.266.72-.266.269 0 .503.09.702.266.196.168.367.402.516.703.133.293.234.629.297 1 .07.375.11.77.11 1.172 0 .43-.04.836-.11 1.219a3.94 3.94 0 0 1-.297 1.015c-.149.293-.32.528-.516.704-.199.167-.433.25-.703.25-.273 0-.512-.083-.719-.25a1.937 1.937 0 0 1-.515-.704 3.65 3.65 0 0 1-.328-1.015A7.564 7.564 0 0 1 1.922-4.5zm0 0"/></symbol><symbol overflow="visible" id="aL"><path d="M7.844-8.844V1.828h1v-5.64h1.562v-.891H8.844v-4.14zM4.078-6.25v-2.125H3.062v1.953c0 .594-.07 1.16-.203 1.688a6.051 6.051 0 0 1-.562 1.468 6.202 6.202 0 0 1-.969 1.297A7.574 7.574 0 0 1 .016-.922c.144.094.3.211.468.344.164.125.297.238.391.328.27-.184.547-.414.828-.688.277-.277.55-.582.813-.906.226-.308.437-.633.625-.968.195-.34.343-.676.437-1 .121.367.285.714.485 1.046.207.325.44.633.703.922.226.262.468.508.718.735.258.218.52.418.782.593l.343-.343c.133-.133.274-.258.422-.375-.5-.29-.941-.614-1.312-.97a5.52 5.52 0 0 1-.953-1.218 4.787 4.787 0 0 1-.516-1.297 6.273 6.273 0 0 1-.172-1.531zm0 0"/></symbol><symbol overflow="visible" id="aM"><path d="M.625-3.375c0 .555.055 1.023.172 1.406.113.387.265.696.453.922.184.25.395.434.625.547.238.105.469.156.688.156.214 0 .44-.05.671-.156.227-.113.438-.297.625-.547.176-.226.32-.535.438-.922.121-.383.187-.851.187-1.406 0-.55-.066-1.02-.187-1.406a3.381 3.381 0 0 0-.453-.938 1.814 1.814 0 0 0-.625-.5 1.431 1.431 0 0 0-.656-.172c-.211 0-.43.055-.657.157-.23.105-.441.273-.625.5-.199.242-.363.554-.484.937-.117.387-.172.863-.172 1.422zm.563 0c0-.32.023-.633.078-.938.058-.308.156-.582.28-.812a1.59 1.59 0 0 1 .423-.563.915.915 0 0 1 1.187 0c.164.137.305.325.422.563.102.23.188.504.25.813.059.304.094.617.094.937 0 .336-.035.66-.094.969a4.238 4.238 0 0 1-.25.812c-.117.23-.258.418-.422.563a.913.913 0 0 1-.594.203.943.943 0 0 1-.593-.203 1.744 1.744 0 0 1-.422-.563 2.93 2.93 0 0 1-.281-.812 5.438 5.438 0 0 1-.079-.969zm6.75.11v-.5H6.655V-6.61h-.593v7.984h.593v-4.64zm0 0"/></symbol><symbol overflow="visible" id="aN"><path d="M7.781.188v-.485h-7.5v.484zM4.328-5.641v-.609h-.594v.61c0 .367-.097.722-.28 1.062-.18.344-.419.66-.72.937a5.01 5.01 0 0 1-.984.735 5.56 5.56 0 0 1-1.14.5c.09.086.18.168.265.25.082.074.156.148.219.219.332-.122.656-.282.968-.47.32-.195.618-.413.891-.655a4.39 4.39 0 0 0 .64-.688c.184-.246.333-.508.438-.781.09.281.25.566.469.843.227.274.488.528.781.766a4.662 4.662 0 0 0 1.688.969l.218-.219c.07-.082.157-.16.25-.234a4.887 4.887 0 0 1-2.093-1.219c-.305-.29-.551-.61-.735-.953a2.174 2.174 0 0 1-.28-1.063zm0 0"/></symbol><symbol overflow="visible" id="aO"><path d="M7.781.203V-.28h-7.5v.484zM1.328-1.812h5.469v-.47h-4.89v-1.484h4.812v-.468H1.906v-1.5h4.828v-.47H1.328zm0 0"/></symbol><symbol overflow="visible" id="aP"><path d="M5.719-1.406c-.125.023-.301.05-.516.078-.21.031-.445.066-.703.094-.273.03-.555.066-.844.093-.293.024-.574.032-.844.032l-1.453.015v-2.078h3.047v-2.984H.796v.484h3.032v2.031H.797v3.063h1.422c.258-.008.515-.02.765-.031.258-.008.524-.024.797-.047.278-.02.54-.047.781-.078.239-.028.458-.063.657-.094.207-.027.375-.055.5-.078zm2.218-1.688v-.515h-1.28v-3h-.595v7.984h.594v-4.469zm0 0"/></symbol><symbol overflow="visible" id="aQ"><path d="M5.797.984v-7.468h-.594v2.515H3.734v.531h1.47V.984zm1.578.375v-7.968h-.578v7.968zm-6.5-6.906h1.438V-5c0 .512-.043.992-.126 1.438-.074.449-.199.863-.374 1.234-.18.367-.399.707-.657 1.015A4.416 4.416 0 0 1 .22-.5a.8.8 0 0 0 .14.094c.051.023.102.05.157.078.058.031.113.066.156.094.039.03.082.058.125.078.195-.145.394-.32.594-.531a5.35 5.35 0 0 0 .953-1.407c.113-.246.195-.5.25-.75.05.25.129.492.234.719.113.219.242.43.39.625.145.219.305.418.485.594.184.18.367.32.547.422.05-.059.125-.13.219-.204.09-.07.176-.132.25-.187a3.124 3.124 0 0 1-.828-.672 3.4 3.4 0 0 1-.563-.937 4.97 4.97 0 0 1-.312-1.063 6.509 6.509 0 0 1-.11-1.234v-.766h1.406v-.484H.876zm0 0"/></symbol><symbol overflow="visible" id="aR"><path d="M5.484.984v-7.468h-.578v2.28H3.141v.5h1.765V.985zm1.657.375v-7.968h-.579v7.968zM4.39-1.406a2.864 2.864 0 0 1-.36.062c-.156.012-.32.028-.484.047-.18.012-.352.027-.516.047a5.926 5.926 0 0 1-.406.016l-1.016.015v-4.984h-.578v5.516h.938c.183-.008.379-.02.578-.032.152-.008.32-.02.5-.031.183-.008.363-.023.531-.047.176-.008.336-.02.485-.031.144-.02.253-.035.328-.047zm0 0"/></symbol><symbol overflow="visible" id="aS"><path d="M1.047-.328a8.447 8.447 0 0 0 1.64-1.344 7.229 7.229 0 0 0 1.157-1.687c.195-.414.351-.848.469-1.297.12-.457.207-.938.25-1.438H.969v.469h2.953a11.49 11.49 0 0 1-.172.875 5.33 5.33 0 0 1-.234.813c-.47.03-.946.054-1.422.062a57.1 57.1 0 0 1-1.422.016v.468h1.297c.433-.007.875-.039 1.312-.093a5.525 5.525 0 0 1-1.11 1.546A6.726 6.726 0 0 1 .47-.718c.07.054.172.12.297.202a5.7 5.7 0 0 0 .28.188zM6.078-6.61v7.984h.594v-4.328h1.266v-.516H6.671v-3.14zm0 0"/></symbol><symbol overflow="visible" id="aT"><path d="M3.531-5.313l1.703-7.03h.032l1.64 7.03zM-.188 0h2.391l.906-3.5h4.172l.89 3.5h2.376l-3.75-14.25H3.875zm0 0"/></symbol><symbol overflow="visible" id="aU"><path d="M1.031 0h2.157v-6.438c0-1.984 1.187-2.421 2.171-2.421.36 0 .735.078.891.109v-2.188a1.49 1.49 0 0 0-.516-.078c-1.218 0-2.015.75-2.5 1.954h-.046v-1.688H1.03zm0 0"/></symbol><symbol overflow="visible" id="aV"><path d="M.078-9.14h1.484v6.671c0 2.188.72 2.594 2.172 2.594.672 0 1.282-.063 1.735-.188v-1.593a4.92 4.92 0 0 1-.782.062c-.734 0-.968-.297-.968-1.14v-6.407h1.75v-1.609h-1.75v-3.047H1.563v3.047H.077zm0 0"/></symbol><symbol overflow="visible" id="aW"><path d="M1.14 0h2.157v-10.75H1.14zm0-12.266h2.157v-2.156H1.14zm0 0"/></symbol><symbol overflow="visible" id="aX"><path d="M1.703 0H3.86v-9.14h1.75v-1.61H3.86v-.938c0-.718.36-1.015 1.157-1.015h.593v-1.656a11.778 11.778 0 0 0-1.171-.063c-1.766 0-2.735.64-2.735 2.688v.984h-1.5v1.61h1.5zm0 0"/></symbol><symbol overflow="visible" id="aY"><path d="M6.25-3.906c0 1.61-.438 2.61-1.64 2.594C3.061-1.313 2.78-3 2.78-5.375s.281-4.047 1.828-4.047c1.266-.047 1.547 1.25 1.547 2.25h2.157c0-1.328-.485-3.89-3.704-3.844C1.5-11.016.625-8.703.625-5.375.625-2.031 1.5.281 4.609.281c2.657 0 3.532-1.625 3.672-4.187zm0 0"/></symbol><symbol overflow="visible" id="aZ"><path d="M8.094-8.39c0-1.891-1.531-2.626-3.422-2.626-2.828 0-3.766 1.25-3.766 3.532h2.031c0-1.047.204-2.063 1.641-2.063 1.14 0 1.469.625 1.469 1.594 0 .937-.469 1.156-1.25 1.39l-1.688.454C1.656-5.625.625-5.125.625-2.734.625-.672 1.703.28 3.422.28c1.25 0 2.094-.515 2.672-1.578h.031C6.188-.266 6.985.125 7.953.125 8.36.125 8.75-.015 9-.141v-1.39a1.112 1.112 0 0 1-.36.047c-.312 0-.546-.36-.546-.75zM6.047-3.876c0 1.578-.64 2.563-1.938 2.563-.89 0-1.328-.72-1.328-1.625 0-.797.25-1.438.875-1.735.64-.297 1.828-.562 2.39-1zm0 0"/></symbol><symbol overflow="visible" id="ba"><path d="M1.14 0h2.157v-14.25H1.14zm0 0"/></symbol><symbol overflow="visible" id="bc"><path d="M1.078 0H3.36v-14.25H1.08zm0 0"/></symbol><symbol overflow="visible" id="bd"><path d="M1.031 0h2.157v-7.203c0-1.406.843-2.11 1.718-2.11 1.078 0 1.5.547 1.5 1.938V0h2.157v-8.11c0-2.171-1.032-2.906-2.672-2.906-1.204 0-2.22.579-2.75 1.532h-.063v-1.266H1.031zm0 0"/></symbol><symbol overflow="visible" id="be"><path d="M8.5-5.094v-1.14c0-2.985-.797-4.782-3.781-4.782-3.375 0-3.985 2.985-3.985 5.797 0 4.985 2.188 5.5 3.938 5.5 2.344 0 3.781-1.5 3.781-3.875H6.406c0 .64-.172 2.39-1.718 2.39-1.61 0-1.797-1.827-1.797-3.265v-.625zM2.89-6.562v-.235c0-1.39.422-2.75 1.797-2.75 1.22 0 1.657 1.047 1.657 2.39v.595zm0 0"/></symbol><symbol overflow="visible" id="bf"><path d="M1.156.922c0 .875.36 2.75 3.563 2.75 2.89 0 4-1.578 4-4.188V-10.75H6.688v1.328h-.032c-.203-.781-1.11-1.594-2.36-1.594-3.062 0-3.421 3.172-3.421 5.532 0 2.921.703 5.406 3.219 5.406 1.031 0 2.031-.547 2.437-1.484h.032v1.75c0 1.234-.688 2.015-1.813 2.015-.953 0-1.563-.625-1.563-1.281zm1.875-6.64c0-1.985.266-3.595 1.828-3.595 1.485 0 1.704 1.938 1.704 3.704 0 1.703-.172 3.812-1.844 3.812-1.61 0-1.688-2.078-1.688-3.922zm0 0"/></symbol><symbol overflow="visible" id="bg"><path d="M7.672-5.11v.235c0 1.328-.219 3.438-2.125 3.438-1.672 0-2.438-1.157-2.438-5.75 0-4.594.766-5.625 2.438-5.625 1.64-.063 2.047 1.453 2.047 2.765v.25h2.265v-.265c0-1.485-.234-4.47-4.28-4.47-3.626 0-4.735 2.313-4.735 7.407 0 5.094 1.11 7.406 4.703 7.406 3.36 0 4.39-2.515 4.39-5.093v-.297zm0 0"/></symbol><symbol overflow="visible" id="bh"><path d="M3.453-12.547h1.875c1.984 0 2.656 1.406 2.656 5.422 0 4.172-.78 5.406-2.656 5.406H3.453zM1.172 0h4.062c4.47 0 5.032-2.922 5.032-7.125 0-4.219-.563-7.125-5.032-7.125H1.172zm0 0"/></symbol><symbol overflow="visible" id="bi"><path d="M3.016 0H5.53L8.36-10.75H6.08L4.374-2.281h-.047L2.453-10.75H.141zm0 0"/></symbol><symbol overflow="visible" id="bj"><path d="M.625-5.375C.625-2.031 1.641.281 4.609.281c3 0 4.016-2.312 4.016-5.656 0-3.328-.875-5.64-4.016-5.64-3.109 0-3.984 2.312-3.984 5.64zm2.156 0c0-2.375.281-4.047 1.828-4.047 1.579 0 1.86 1.672 1.86 4.047 0 2.734-.282 4.063-1.86 4.063-1.546 0-1.828-1.329-1.828-4.063zm0 0"/></symbol><symbol overflow="visible" id="bk"><path d="M1.031 3.516h2.157v-4.782h.046C3.641-.296 4.516.281 5.672.281c1.484 0 3.312-1 3.312-5.515 0-3.688-1-5.782-3.453-5.782-1.172 0-1.984.625-2.422 1.594h-.03v-1.328H1.03zm2.047-9c0-2.297.344-3.829 1.813-3.829 1.5 0 1.812 1.547 1.812 3.985 0 2.969-.547 3.89-1.797 3.89-1.515 0-1.828-1.484-1.828-4.046zm0 0"/></symbol><symbol overflow="visible" id="bl"><path d="M1.14 0h2.157v-7.203c0-1.406.844-2.11 1.687-2.11.907 0 1.329.547 1.329 1.938V0h2.156v-7.203c0-1.406.844-2.11 1.719-2.11.874 0 1.296.547 1.296 1.938V0h2.157v-8.172c0-2.078-1.094-2.844-2.625-2.844-1.297 0-2.094.594-2.704 1.625-.328-.89-.968-1.625-2.5-1.625-1.015 0-2.03.579-2.578 1.532h-.062v-1.266H1.14zm0 0"/></symbol><symbol overflow="visible" id="bm"><path d="M2.016-1.328h2.328L4.75 0h1.438L3.953-6.453H2.438L.171 0h1.39zM3.172-5h.015l.782 2.563h-1.61zm0 0"/></symbol><symbol overflow="visible" id="bn"><path d="M.672 0h2.672c1.297 0 1.64-.219 2-.578.343-.344.547-.828.547-1.328 0-.64-.204-1.282-.97-1.578.266-.125.766-.391.766-1.313 0-.672-.39-1.656-1.937-1.656H.672zm1.265-2.844h1.688c.469 0 .953.219.953.781 0 .657-.375.954-1.016.954H1.938zm0-2.5h1.516c.594 0 .969.172.969.703 0 .516-.406.72-.938.72H1.938zm0 0"/></symbol><symbol overflow="visible" id="bo"><path d="M.344-1.984c0 .796.39 2.156 2.703 2.156.562 0 2.5-.172 2.5-2.11 0-1.156-.797-1.515-1.656-1.734l-1.547-.39c-.266-.063-.672-.172-.672-.672 0-.579.61-.766 1.11-.766 1.155 0 1.25.672 1.296.969h1.266c-.016-.797-.532-2.094-2.469-2.094C.812-6.625.437-5.359.437-4.641c0 1.422.985 1.657 2.016 1.907l.672.156c.672.156 1.156.297 1.156.797 0 .687-.703.843-1.328.843-1.156 0-1.328-.687-1.344-1.046zm0 0"/></symbol><symbol overflow="visible" id="bp"><path d="M3.36-5.313h1.906v-1.14H.125v1.14h1.906V0H3.36zm0 0"/></symbol><symbol overflow="visible" id="bq"><path d="M.672 0h1.297v-2.531h1.36c.983 0 1.03.344 1.03 1.234 0 .656.063.984.141 1.297h1.469v-.172c-.282-.11-.282-.344-.282-1.281 0-1.203-.28-1.406-.812-1.64.625-.22.984-.829.984-1.532 0-.563-.312-1.828-1.984-1.828H.672zm1.297-3.61v-1.734h1.64c.782 0 .922.516.922.86 0 .625-.328.875-1.015.875zm0 0"/></symbol><symbol overflow="visible" id="br"><path d="M6.031-4.344c-.078-.953-.843-2.281-2.734-2.281C1.672-6.625.39-5.469.39-3.219.39-.984 1.594.171 3.28.171c1.578 0 2.485-.984 2.75-2.374H4.703C4.547-1.422 4.031-1 3.297-1c-1.11 0-1.563-1.047-1.563-2.203 0-1.813.938-2.25 1.563-2.25 1.094 0 1.297.734 1.406 1.11zm0 0"/></symbol></defs><g fill="#231f20"><use xlink:href="#a" x="74.885" y="47.727"/><use xlink:href="#b" x="82.886" y="47.727"/><use xlink:href="#c" x="85.492" y="47.727"/><use xlink:href="#d" x="88.099" y="47.727"/><use xlink:href="#e" x="92.054" y="47.727"/><use xlink:href="#d" x="96.01" y="47.727"/><use xlink:href="#e" x="99.965" y="47.727"/><use xlink:href="#f" x="103.92" y="47.727"/><use xlink:href="#c" x="111.92" y="47.727"/><use xlink:href="#g" x="114.527" y="47.727"/><use xlink:href="#h" x="122.527" y="47.727"/><use xlink:href="#i" x="130.528" y="47.727"/><use xlink:href="#j" x="138.528" y="47.727"/></g><g fill="#393536"><use xlink:href="#k" x="42.468" y="48.426"/><use xlink:href="#l" x="48.041" y="48.426"/><use xlink:href="#m" x="53.614" y="48.426"/></g><g fill="#fff"><use xlink:href="#n" x="87.416" y="104.568"/><use xlink:href="#o" x="96.469" y="104.568"/><use xlink:href="#p" x="100.945" y="104.568"/><use xlink:href="#q" x="109.999" y="104.568"/><use xlink:href="#r" x="112.949" y="104.568"/><use xlink:href="#s" x="122.003" y="104.568"/><use xlink:href="#t" x="131.056" y="104.568"/><use xlink:href="#u" x="140.11" y="104.568"/><use xlink:href="#v" x="149.164" y="104.568"/><use xlink:href="#w" x="158.217" y="104.568"/><use xlink:href="#x" x="167.271" y="104.568"/><use xlink:href="#y" x="176.325" y="104.568"/><use xlink:href="#q" x="185.378" y="104.568"/><use xlink:href="#z" x="188.328" y="104.568"/><use xlink:href="#A" x="197.382" y="104.568"/><use xlink:href="#B" x="206.436" y="104.568"/><use xlink:href="#q" x="215.489" y="104.568"/><use xlink:href="#C" x="218.439" y="104.568"/><use xlink:href="#D" x="227.493" y="104.568"/><use xlink:href="#E" x="236.547" y="104.568"/><use xlink:href="#q" x="245.6" y="104.568"/><use xlink:href="#F" x="248.55" y="104.568"/><use xlink:href="#G" x="257.604" y="104.568"/><use xlink:href="#q" x="266.657" y="104.568"/><use xlink:href="#H" x="269.608" y="104.568"/><use xlink:href="#I" x="278.661" y="104.568"/><use xlink:href="#t" x="287.715" y="104.568"/><use xlink:href="#q" x="296.768" y="104.568"/><use xlink:href="#J" x="299.719" y="104.568"/><use xlink:href="#G" x="308.772" y="104.568"/><use xlink:href="#K" x="317.826" y="104.568"/><use xlink:href="#L" x="326.879" y="104.568"/><use xlink:href="#M" x="335.933" y="104.568"/><use xlink:href="#q" x="344.987" y="104.568"/><use xlink:href="#N" x="347.937" y="104.568"/><use xlink:href="#O" x="356.99" y="104.568"/></g><path d="M76.637 262.3l1.386-1.312 1.383 1.313-1.383 1.312zm0 0M79.648 262.3l1.387-1.312 1.383 1.313-1.383 1.312zm0 0M82.66 262.3l1.383-1.312 1.387 1.313-1.387 1.312zm0 0M85.672 262.3l1.383-1.312 1.386 1.313-1.386 1.312zm0 0M88.684 262.3l1.382-1.312 1.383 1.313-1.383 1.312zm0 0M91.691 262.3l1.387-1.312 1.383 1.313-1.383 1.312zm0 0M94.703 262.3l1.383-1.312 1.387 1.313-1.387 1.312zm0 0M97.715 262.3l1.383-1.312 1.386 1.313-1.386 1.312zm0 0M100.727 262.3l1.382-1.312 1.383 1.313-1.383 1.312zm0 0M103.734 262.3l1.387-1.312 1.383 1.313-1.383 1.312zm0 0M106.746 262.3l1.387-1.312 1.383 1.313-1.383 1.312zm0 0M109.758 262.3l1.383-1.312 1.386 1.313-1.386 1.312zm0 0M112.77 262.3l1.382-1.312 1.387 1.313-1.387 1.312zm0 0M115.781 262.3l1.383-1.312 1.383 1.313-1.383 1.312zm0 0M118.79 262.3l1.386-1.312 1.383 1.313-1.383 1.312zm0 0M121.8 262.3l1.387-1.312 1.383 1.313-1.383 1.312zm0 0M124.812 262.3l1.383-1.312 1.387 1.313-1.387 1.312zm0 0M127.824 262.3l1.383-1.312 1.383 1.313-1.383 1.312zm0 0M130.832 262.3l1.387-1.312 1.383 1.313-1.383 1.312zm0 0M133.844 262.3l1.386-1.312 1.383 1.313-1.383 1.312zm0 0M136.855 262.3l1.383-1.312 1.387 1.313-1.387 1.312zm0 0M139.867 262.3l1.383-1.312 1.387 1.313-1.387 1.312zm0 0M142.879 262.3l1.383-1.312 1.383 1.313-1.383 1.312zm0 0M145.887 262.3l1.386-1.312 1.383 1.313-1.383 1.312zm0 0M148.898 262.3l1.387-1.312 1.383 1.313-1.383 1.312zm0 0M151.91 262.3l1.383-1.312 1.387 1.313-1.387 1.312zm0 0M154.922 262.3l1.383-1.312 1.382 1.313-1.382 1.312zm0 0M157.93 262.3l1.386-1.312 1.383 1.313-1.383 1.312zm0 0M160.941 262.3l1.387-1.312 1.383 1.313-1.383 1.312zm0 0M163.953 262.3l1.383-1.312 1.387 1.313-1.387 1.312zm0 0M166.965 262.3l1.383-1.312 1.386 1.313-1.386 1.312zm0 0M169.977 262.3l1.382-1.312 1.383 1.313-1.383 1.312zm0 0M172.984 262.3l1.387-1.312 1.383 1.313-1.383 1.312zm0 0M175.996 262.3l1.387-1.312 1.383 1.313-1.383 1.312zm0 0M179.008 262.3l1.383-1.312 1.386 1.313-1.386 1.312zm0 0M182.02 262.3l1.382-1.312 1.383 1.313-1.383 1.312zm0 0M185.027 262.3l1.387-1.312 1.383 1.313-1.383 1.312zm0 0M188.04 262.3l1.386-1.312 1.383 1.313-1.383 1.312zm0 0M191.05 262.3l1.384-1.312 1.386 1.313-1.386 1.312zm0 0M194.063 262.3l1.382-1.312 1.387 1.313-1.387 1.312zm0 0M197.074 262.3l1.383-1.312 1.383 1.313-1.383 1.312zm0 0M200.082 262.3l1.387-1.312 1.383 1.313-1.383 1.312zm0 0M203.094 262.3l1.386-1.312 1.383 1.313-1.383 1.312zm0 0M206.105 262.3l1.383-1.312 1.387 1.313-1.387 1.312zm0 0M209.117 262.3l1.383-1.312 1.383 1.313-1.383 1.312zm0 0M212.125 262.3l1.387-1.312 1.383 1.313-1.383 1.312zm0 0M215.137 262.3l1.386-1.312 1.383 1.313-1.383 1.312zm0 0M218.148 262.3l1.383-1.312 1.387 1.313-1.387 1.312zm0 0M221.16 262.3l1.383-1.312 1.387 1.313-1.387 1.312zm0 0M224.172 262.3l1.383-1.312 1.382 1.313-1.382 1.312zm0 0M227.18 262.3l1.386-1.312 1.383 1.313-1.383 1.312zm0 0M230.191 262.3l1.387-1.312 1.383 1.313-1.383 1.312zm0 0M233.203 262.3l1.383-1.312 1.387 1.313-1.387 1.312zm0 0M236.215 262.3l1.383-1.312 1.382 1.313-1.382 1.312zm0 0M239.223 262.3l1.386-1.312 1.383 1.313-1.383 1.312zm0 0M242.234 262.3l1.387-1.312 1.383 1.313-1.383 1.312zm0 0M245.246 262.3l1.383-1.312 1.387 1.313-1.387 1.312zm0 0M248.258 262.3l1.383-1.312 1.386 1.313-1.386 1.312zm0 0M251.27 262.3l1.382-1.312 1.383 1.313-1.383 1.312zm0 0M254.277 262.3l1.387-1.312 1.383 1.313-1.383 1.312zm0 0M257.29 262.3l1.386-1.312 1.383 1.313-1.383 1.312zm0 0M260.3 262.3l1.384-1.312 1.386 1.313-1.386 1.312zm0 0M263.312 262.3l1.383-1.312 1.387 1.313-1.387 1.312zm0 0M266.324 262.3l1.383-1.312 1.383 1.313-1.383 1.312zm0 0M269.332 262.3l1.387-1.312 1.383 1.313-1.383 1.312zm0 0M272.344 262.3l1.383-1.312 1.386 1.313-1.386 1.312zm0 0M275.355 262.3l1.383-1.312 1.387 1.313-1.387 1.312zm0 0M278.367 262.3l1.383-1.312 1.383 1.313-1.383 1.312zm0 0M281.375 262.3l1.387-1.312 1.383 1.313-1.383 1.312zm0 0M284.387 262.3l1.386-1.312 1.383 1.313-1.383 1.312zm0 0M287.398 262.3l1.383-1.312 1.387 1.313-1.387 1.312zm0 0M290.41 262.3l1.383-1.312 1.383 1.313-1.383 1.312zm0 0M293.422 262.3l1.383-1.312 1.382 1.313-1.382 1.312zm0 0M296.43 262.3l1.386-1.312 1.383 1.313-1.383 1.312zm0 0M299.441 262.3l1.383-1.312 1.387 1.313-1.387 1.312zm0 0M302.453 262.3l1.383-1.312 1.387 1.313-1.387 1.312zm0 0M305.465 262.3l1.383-1.312 1.382 1.313-1.382 1.312zm0 0M308.473 262.3l1.386-1.312 1.383 1.313-1.383 1.312zm0 0M311.484 262.3l1.387-1.312 1.383 1.313-1.383 1.312zm0 0M314.496 262.3l1.383-1.312 1.387 1.313-1.387 1.312zm0 0M317.508 262.3l1.383-1.312 1.386 1.313-1.386 1.312zm0 0M320.52 262.3l1.382-1.312 1.383 1.313-1.383 1.312zm0 0M323.527 262.3l1.387-1.312 1.383 1.313-1.383 1.312zm0 0M326.54 262.3l1.382-1.312 1.387 1.313-1.387 1.312zm0 0M329.55 262.3l1.384-1.312 1.386 1.313-1.386 1.312zm0 0M332.562 262.3l1.383-1.312 1.383 1.313-1.383 1.312zm0 0M335.57 262.3l1.387-1.312 1.383 1.313-1.383 1.312zm0 0M338.582 262.3l1.387-1.312 1.383 1.313-1.383 1.312zm0 0M341.594 262.3l1.383-1.312 1.386 1.313-1.386 1.312zm0 0M344.605 262.3l1.383-1.312 1.387 1.313-1.387 1.312zm0 0M347.617 262.3l1.383-1.312 1.383 1.313-1.383 1.312zm0 0M350.625 262.3l1.387-1.312 1.383 1.313-1.383 1.312zm0 0M353.637 262.3l1.383-1.312 1.386 1.313-1.386 1.312zm0 0M356.648 262.3l1.383-1.312 1.387 1.313-1.387 1.312zm0 0M359.66 262.3l1.383-1.312 1.383 1.313-1.383 1.312zm0 0M362.668 262.3l1.387-1.312 1.382 1.313-1.382 1.312zm0 0M365.68 262.3l1.386-1.312 1.383 1.313-1.383 1.312zm0 0M368.691 262.3l1.383-1.312 1.387 1.313-1.387 1.312zm0 0M371.703 262.3l1.383-1.312 1.387 1.313-1.387 1.312zm0 0M374.715 262.3l1.383-1.312 1.382 1.313-1.382 1.312zm0 0M377.723 262.3l1.386-1.312 1.383 1.313-1.383 1.312zm0 0M380.734 262.3l1.383-1.312 1.387 1.313-1.387 1.312zm0 0M383.746 262.3l1.383-1.312 1.387 1.313-1.387 1.312zm0 0M386.758 262.3l1.383-1.312 1.382 1.313-1.382 1.312zm0 0M389.766 262.3l1.386-1.312 1.383 1.313-1.383 1.312zm0 0M392.777 262.3l1.387-1.312 1.383 1.313-1.383 1.312zm0 0M395.79 262.3l1.382-1.312 1.387 1.313-1.387 1.312zm0 0M398.8 262.3l1.384-1.312 1.386 1.313-1.386 1.312zm0 0M401.813 262.3l1.382-1.312 1.383 1.313-1.383 1.312zm0 0M404.82 262.3l1.387-1.312 1.383 1.313-1.383 1.312zm0 0M407.832 262.3l1.383-1.312 1.387 1.313-1.387 1.312zm0 0M410.844 262.3l1.383-1.312 1.386 1.313-1.386 1.312zm0 0M413.855 262.3l1.383-1.312 1.383 1.313-1.383 1.312zm0 0M416.863 262.3l1.387-1.312 1.383 1.313-1.383 1.312zm0 0M419.875 262.3l1.387-1.312 1.383 1.313-1.383 1.312zm0 0M422.887 262.3l1.383-1.312 1.386 1.313-1.386 1.312zm0 0M425.898 262.3l1.383-1.312 1.387 1.313-1.387 1.312zm0 0M428.91 262.3l1.383-1.312 1.383 1.313-1.383 1.312zm0 0M431.918 262.3l1.387-1.312 1.382 1.313-1.382 1.312zm0 0M434.93 262.3l1.382-1.312 1.387 1.313-1.387 1.312zm0 0M437.941 262.3l1.383-1.312 1.387 1.313-1.387 1.312zm0 0M440.953 262.3l1.383-1.312 1.383 1.313-1.383 1.312zm0 0M443.96 262.3l1.388-1.312 1.382 1.313-1.382 1.312zm0 0M446.973 262.3l1.386-1.312 1.383 1.313-1.383 1.312zm0 0M449.984 262.3l1.383-1.312 1.387 1.313-1.387 1.312zm0 0M452.996 262.3l1.383-1.312 1.387 1.313-1.387 1.312zm0 0M456.008 262.3l1.383-1.312 1.382 1.313-1.382 1.312zm0 0M459.016 262.3l1.386-1.312 1.383 1.313-1.383 1.312zm0 0M462.027 262.3l1.387-1.312 1.383 1.313-1.383 1.312zm0 0M465.04 262.3l1.382-1.312 1.387 1.313-1.387 1.312zm0 0M468.05 262.3l1.384-1.312 1.382 1.313-1.382 1.312zm0 0M471.059 262.3l1.386-1.312 1.383 1.313-1.383 1.312zm0 0M474.07 262.3l1.387-1.312 1.383 1.313-1.383 1.312zm0 0" fill="none" stroke-width=".2696733" stroke="#726e94" stroke-miterlimit="300"/><g clip-path="url(#P)"><path d="M477.082 262.3l1.383-1.312 1.387 1.313-1.387 1.312zm0 0" fill="none" stroke-width=".2696733" stroke="#726e94" stroke-miterlimit="300"/></g><g clip-path="url(#Q)"><path d="M480.094 262.3l1.383-1.312 1.386 1.313-1.386 1.312zm0 0" fill="none" stroke-width=".2696733" stroke="#726e94" stroke-miterlimit="300"/></g><g clip-path="url(#R)"><path d="M483.105 262.3l1.383-1.312 1.383 1.313-1.383 1.312zm0 0" fill="none" stroke-width=".2696733" stroke="#726e94" stroke-miterlimit="300"/></g><g clip-path="url(#S)"><path d="M486.113 262.3l1.387-1.312 1.383 1.313-1.383 1.312zm0 0" fill="none" stroke-width=".2696733" stroke="#726e94" stroke-miterlimit="300"/></g><g clip-path="url(#T)"><path d="M489.125 262.3l1.387-1.312 1.383 1.313-1.383 1.312zm0 0" fill="none" stroke-width=".2696733" stroke="#726e94" stroke-miterlimit="300"/></g><g clip-path="url(#U)"><path d="M492.137 262.3l1.383-1.312 1.386 1.313-1.386 1.312zm0 0" fill="none" stroke-width=".2696733" stroke="#726e94" stroke-miterlimit="300"/></g><g clip-path="url(#V)"><path d="M495.148 262.3l1.383-1.312 1.383 1.313-1.383 1.312zm0 0" fill="none" stroke-width=".2696733" stroke="#726e94" stroke-miterlimit="300"/></g><g clip-path="url(#W)"><path d="M498.156 262.3l1.387-1.312 1.383 1.313-1.383 1.312zm0 0" fill="none" stroke-width=".2696733" stroke="#726e94" stroke-miterlimit="300"/></g><g fill="#231f20"><use xlink:href="#X" x="76.442" y="308.424"/><use xlink:href="#Y" x="79.063" y="308.424"/><use xlink:href="#Z" x="84.403" y="308.424"/><use xlink:href="#aa" x="87.66" y="308.424"/><use xlink:href="#ab" x="90.281" y="308.424"/><use xlink:href="#ac" x="95.621" y="308.424"/><use xlink:href="#Z" x="100.961" y="308.424"/><use xlink:href="#ad" x="104.218" y="308.424"/><use xlink:href="#ae" x="109.558" y="308.424"/><use xlink:href="#af" x="114.898" y="308.424"/><use xlink:href="#ag" x="122.947" y="308.424"/><use xlink:href="#Y" x="125.02" y="308.424"/><use xlink:href="#ah" x="130.36" y="308.424"/><use xlink:href="#Z" x="136.238" y="308.424"/><use xlink:href="#ai" x="139.495" y="308.424"/><use xlink:href="#ac" x="144.287" y="308.424"/><use xlink:href="#aj" x="149.627" y="308.424"/><use xlink:href="#ak" x="154.967" y="308.424"/><use xlink:href="#al" x="158.126" y="308.424"/><use xlink:href="#am" x="162.918" y="308.424"/><use xlink:href="#Z" x="165.539" y="308.424"/><use xlink:href="#aa" x="168.796" y="308.424"/><use xlink:href="#ab" x="171.417" y="308.424"/><use xlink:href="#ac" x="176.757" y="308.424"/><use xlink:href="#Z" x="182.097" y="308.424"/><use xlink:href="#ah" x="185.354" y="308.424"/><use xlink:href="#an" x="191.232" y="308.424"/><use xlink:href="#ae" x="193.305" y="308.424"/><use xlink:href="#ao" x="198.645" y="308.424"/><use xlink:href="#aj" x="204.523" y="308.424"/><use xlink:href="#an" x="209.863" y="308.424"/><use xlink:href="#Z" x="211.936" y="308.424"/><use xlink:href="#ab" x="215.193" y="308.424"/><use xlink:href="#ac" x="220.533" y="308.424"/><use xlink:href="#aj" x="225.873" y="308.424"/><use xlink:href="#an" x="231.213" y="308.424"/><use xlink:href="#aa" x="233.286" y="308.424"/><use xlink:href="#ab" x="235.907" y="308.424"/><use xlink:href="#ad" x="241.247" y="308.424"/><use xlink:href="#aj" x="246.587" y="308.424"/><use xlink:href="#ak" x="251.927" y="308.424"/></g><g fill="#231f20"><use xlink:href="#ac" x="254.91" y="308.424"/><use xlink:href="#Z" x="260.25" y="308.424"/><use xlink:href="#ac" x="263.506" y="308.424"/><use xlink:href="#ap" x="268.846" y="308.424"/><use xlink:href="#aq" x="273.639" y="308.424"/><use xlink:href="#ac" x="279.517" y="308.424"/><use xlink:href="#Y" x="284.856" y="308.424"/><use xlink:href="#ar" x="290.196" y="308.424"/><use xlink:href="#ag" x="296.074" y="308.424"/><use xlink:href="#aa" x="298.148" y="308.424"/><use xlink:href="#as" x="300.769" y="308.424"/><use xlink:href="#ak" x="306.109" y="308.424"/></g><g fill="#231f20"><use xlink:href="#ac" x="309.092" y="308.424"/><use xlink:href="#al" x="314.432" y="308.424"/><use xlink:href="#Z" x="319.224" y="308.424"/><use xlink:href="#aj" x="322.481" y="308.424"/><use xlink:href="#ak" x="327.82" y="308.424"/></g><g fill="#231f20"><use xlink:href="#ac" x="330.803" y="308.424"/><use xlink:href="#Z" x="336.143" y="308.424"/><use xlink:href="#ac" x="339.4" y="308.424"/><use xlink:href="#ap" x="344.74" y="308.424"/><use xlink:href="#aq" x="349.532" y="308.424"/><use xlink:href="#ac" x="355.41" y="308.424"/><use xlink:href="#ad" x="360.75" y="308.424"/><use xlink:href="#aa" x="366.09" y="308.424"/><use xlink:href="#ac" x="368.711" y="308.424"/><use xlink:href="#ar" x="374.051" y="308.424"/><use xlink:href="#Z" x="379.929" y="308.424"/><use xlink:href="#aa" x="383.186" y="308.424"/><use xlink:href="#ae" x="385.807" y="308.424"/><use xlink:href="#Z" x="391.147" y="308.424"/><use xlink:href="#ad" x="394.403" y="308.424"/><use xlink:href="#ae" x="399.743" y="308.424"/><use xlink:href="#Y" x="405.083" y="308.424"/><use xlink:href="#aa" x="410.423" y="308.424"/><use xlink:href="#ag" x="413.044" y="308.424"/><use xlink:href="#Y" x="415.118" y="308.424"/><use xlink:href="#as" x="420.458" y="308.424"/><use xlink:href="#ac" x="425.798" y="308.424"/><use xlink:href="#Z" x="431.137" y="308.424"/><use xlink:href="#aa" x="434.394" y="308.424"/><use xlink:href="#ae" x="437.015" y="308.424"/><use xlink:href="#Z" x="442.355" y="308.424"/><use xlink:href="#ak" x="445.612" y="308.424"/><use xlink:href="#ag" x="448.771" y="308.424"/><use xlink:href="#al" x="450.844" y="308.424"/><use xlink:href="#ac" x="455.637" y="308.424"/><use xlink:href="#Z" x="460.977" y="308.424"/><use xlink:href="#aj" x="464.233" y="308.424"/><use xlink:href="#Y" x="469.573" y="308.424"/><use xlink:href="#ar" x="474.913" y="308.424"/><use xlink:href="#Z" x="480.791" y="308.424"/><use xlink:href="#at" x="484.048" y="308.424"/><use xlink:href="#ag" x="491.011" y="308.424"/><use xlink:href="#aa" x="493.085" y="308.424"/><use xlink:href="#ab" x="495.706" y="308.424"/><use xlink:href="#Z" x="501.046" y="308.424"/></g><g fill="#231f20"><use xlink:href="#aj" x="76.442" y="327.401"/><use xlink:href="#Z" x="81.821" y="327.401"/><use xlink:href="#ah" x="85.381" y="327.401"/><use xlink:href="#ak" x="91.298" y="327.401"/></g><g fill="#231f20"><use xlink:href="#ae" x="94.321" y="327.401"/><use xlink:href="#at" x="99.7" y="327.401"/><use xlink:href="#ag" x="106.703" y="327.401"/><use xlink:href="#Y" x="108.816" y="327.401"/><use xlink:href="#ah" x="114.195" y="327.401"/><use xlink:href="#Z" x="120.112" y="327.401"/><use xlink:href="#ae" x="123.672" y="327.401"/><use xlink:href="#an" x="129.051" y="327.401"/><use xlink:href="#ar" x="131.163" y="327.401"/><use xlink:href="#ac" x="137.08" y="327.401"/><use xlink:href="#ak" x="142.459" y="327.401"/><use xlink:href="#Z" x="145.657" y="327.401"/><use xlink:href="#aq" x="149.217" y="327.401"/><use xlink:href="#ae" x="155.134" y="327.401"/><use xlink:href="#aq" x="160.513" y="327.401"/><use xlink:href="#as" x="166.43" y="327.401"/><use xlink:href="#an" x="171.809" y="327.401"/><use xlink:href="#aj" x="173.922" y="327.401"/><use xlink:href="#aa" x="179.301" y="327.401"/><use xlink:href="#ag" x="181.961" y="327.401"/><use xlink:href="#ae" x="184.073" y="327.401"/><use xlink:href="#Y" x="189.453" y="327.401"/><use xlink:href="#Z" x="194.832" y="327.401"/><use xlink:href="#an" x="198.392" y="327.401"/><use xlink:href="#ag" x="200.504" y="327.401"/><use xlink:href="#au" x="202.617" y="327.401"/><use xlink:href="#ag" x="207.448" y="327.401"/><use xlink:href="#Y" x="209.56" y="327.401"/><use xlink:href="#ah" x="214.939" y="327.401"/><use xlink:href="#Z" x="220.856" y="327.401"/><use xlink:href="#at" x="224.416" y="327.401"/><use xlink:href="#ag" x="231.419" y="327.401"/><use xlink:href="#aa" x="233.531" y="327.401"/><use xlink:href="#ab" x="236.192" y="327.401"/><use xlink:href="#Z" x="241.571" y="327.401"/><use xlink:href="#af" x="245.131" y="327.401"/><use xlink:href="#as" x="253.219" y="327.401"/><use xlink:href="#an" x="258.598" y="327.401"/><use xlink:href="#aa" x="260.71" y="327.401"/><use xlink:href="#ag" x="263.371" y="327.401"/><use xlink:href="#aq" x="265.483" y="327.401"/><use xlink:href="#an" x="271.4" y="327.401"/><use xlink:href="#ac" x="273.513" y="327.401"/><use xlink:href="#Z" x="278.892" y="327.401"/><use xlink:href="#ad" x="282.452" y="327.401"/><use xlink:href="#ab" x="287.831" y="327.401"/><use xlink:href="#ak" x="293.21" y="327.401"/></g><g fill="#231f20"><use xlink:href="#ae" x="296.233" y="327.401"/><use xlink:href="#Y" x="301.612" y="327.401"/><use xlink:href="#ag" x="306.991" y="327.401"/><use xlink:href="#ad" x="309.103" y="327.401"/><use xlink:href="#Z" x="314.482" y="327.401"/><use xlink:href="#ad" x="318.042" y="327.401"/><use xlink:href="#ae" x="323.421" y="327.401"/><use xlink:href="#Y" x="328.8" y="327.401"/><use xlink:href="#ar" x="334.179" y="327.401"/><use xlink:href="#ag" x="340.096" y="327.401"/><use xlink:href="#aa" x="342.209" y="327.401"/><use xlink:href="#ag" x="344.869" y="327.401"/><use xlink:href="#ae" x="346.982" y="327.401"/><use xlink:href="#Y" x="352.361" y="327.401"/><use xlink:href="#al" x="357.74" y="327.401"/><use xlink:href="#am" x="362.571" y="327.401"/><use xlink:href="#Z" x="365.231" y="327.401"/><use xlink:href="#aj" x="368.791" y="327.401"/><use xlink:href="#Y" x="374.17" y="327.401"/><use xlink:href="#Z" x="379.549" y="327.401"/><use xlink:href="#as" x="383.109" y="327.401"/><use xlink:href="#Y" x="388.488" y="327.401"/><use xlink:href="#aq" x="393.867" y="327.401"/><use xlink:href="#ak" x="399.784" y="327.401"/></g><g fill="#231f20"><use xlink:href="#ac" x="402.806" y="327.401"/><use xlink:href="#ad" x="408.186" y="327.401"/><use xlink:href="#ac" x="413.565" y="327.401"/><use xlink:href="#ar" x="418.944" y="327.401"/><use xlink:href="#ac" x="424.861" y="327.401"/><use xlink:href="#Y" x="430.24" y="327.401"/><use xlink:href="#aa" x="435.619" y="327.401"/><use xlink:href="#ac" x="438.279" y="327.401"/><use xlink:href="#ar" x="443.658" y="327.401"/><use xlink:href="#Z" x="449.575" y="327.401"/><use xlink:href="#ag" x="453.135" y="327.401"/><use xlink:href="#Y" x="455.247" y="327.401"/><use xlink:href="#ad" x="460.626" y="327.401"/><use xlink:href="#ak" x="466.006" y="327.401"/></g><g fill="#231f20"><use xlink:href="#ac" x="469.029" y="327.401"/><use xlink:href="#aj" x="474.408" y="327.401"/><use xlink:href="#al" x="479.787" y="327.401"/><use xlink:href="#ac" x="484.618" y="327.401"/><use xlink:href="#Z" x="489.997" y="327.401"/><use xlink:href="#ag" x="493.557" y="327.401"/><use xlink:href="#Y" x="495.67" y="327.401"/></g><use xlink:href="#Z" x="501.01" y="327.401" fill="#231f20"/><g fill="#231f20"><use xlink:href="#ar" x="76.442" y="346.378"/><use xlink:href="#ac" x="82.428" y="346.378"/><use xlink:href="#af" x="87.875" y="346.378"/><use xlink:href="#aj" x="96.032" y="346.378"/><use xlink:href="#Y" x="101.479" y="346.378"/><use xlink:href="#ar" x="106.927" y="346.378"/><use xlink:href="#Z" x="112.912" y="346.378"/><use xlink:href="#av" x="116.541" y="346.378"/><use xlink:href="#ae" x="119.27" y="346.378"/><use xlink:href="#ak" x="124.717" y="346.378"/><use xlink:href="#Z" x="127.984" y="346.378"/><use xlink:href="#ab" x="131.612" y="346.378"/><use xlink:href="#ac" x="137.06" y="346.378"/><use xlink:href="#aj" x="142.507" y="346.378"/><use xlink:href="#an" x="147.955" y="346.378"/><use xlink:href="#aa" x="150.136" y="346.378"/><use xlink:href="#ab" x="152.864" y="346.378"/><use xlink:href="#ad" x="158.312" y="346.378"/><use xlink:href="#aj" x="163.759" y="346.378"/><use xlink:href="#ak" x="169.207" y="346.378"/></g><g fill="#231f20"><use xlink:href="#ac" x="172.3" y="346.378"/><use xlink:href="#Z" x="177.748" y="346.378"/><use xlink:href="#al" x="181.376" y="346.378"/><use xlink:href="#ac" x="186.276" y="346.378"/><use xlink:href="#ak" x="191.723" y="346.378"/><use xlink:href="#au" x="194.99" y="346.378"/><use xlink:href="#ag" x="199.89" y="346.378"/><use xlink:href="#ad" x="202.071" y="346.378"/><use xlink:href="#ac" x="207.518" y="346.378"/><use xlink:href="#al" x="212.966" y="346.378"/><use xlink:href="#Z" x="217.866" y="346.378"/><use xlink:href="#ag" x="221.494" y="346.378"/><use xlink:href="#al" x="223.675" y="346.378"/><use xlink:href="#Z" x="228.575" y="346.378"/><use xlink:href="#aj" x="232.203" y="346.378"/><use xlink:href="#an" x="237.651" y="346.378"/><use xlink:href="#al" x="239.832" y="346.378"/><use xlink:href="#ae" x="244.732" y="346.378"/><use xlink:href="#Z" x="250.179" y="346.378"/><use xlink:href="#aj" x="253.808" y="346.378"/><use xlink:href="#Y" x="259.255" y="346.378"/><use xlink:href="#aa" x="264.703" y="346.378"/><use xlink:href="#ag" x="267.431" y="346.378"/><use xlink:href="#ad" x="269.612" y="346.378"/><use xlink:href="#ag" x="275.06" y="346.378"/><use xlink:href="#aq" x="277.241" y="346.378"/><use xlink:href="#aj" x="283.226" y="346.378"/><use xlink:href="#aa" x="288.674" y="346.378"/><use xlink:href="#ac" x="291.402" y="346.378"/><use xlink:href="#ar" x="296.85" y="346.378"/><use xlink:href="#aw" x="302.835" y="346.378"/><use xlink:href="#Z" x="305.564" y="346.378"/><use xlink:href="#X" x="309.192" y="346.378"/><use xlink:href="#Y" x="311.921" y="346.378"/><use xlink:href="#Z" x="317.368" y="346.378"/><use xlink:href="#aa" x="320.997" y="346.378"/><use xlink:href="#ab" x="323.726" y="346.378"/><use xlink:href="#ag" x="329.173" y="346.378"/><use xlink:href="#al" x="331.354" y="346.378"/><use xlink:href="#Z" x="336.254" y="346.378"/><use xlink:href="#ad" x="339.882" y="346.378"/><use xlink:href="#ab" x="345.33" y="346.378"/><use xlink:href="#aj" x="350.777" y="346.378"/><use xlink:href="#an" x="356.225" y="346.378"/><use xlink:href="#an" x="358.406" y="346.378"/><use xlink:href="#ac" x="360.587" y="346.378"/><use xlink:href="#Y" x="366.034" y="346.378"/><use xlink:href="#ah" x="371.482" y="346.378"/><use xlink:href="#ag" x="377.467" y="346.378"/><use xlink:href="#Y" x="379.648" y="346.378"/><use xlink:href="#ah" x="385.096" y="346.378"/><use xlink:href="#Z" x="391.081" y="346.378"/><use xlink:href="#ab" x="394.71" y="346.378"/><use xlink:href="#ac" x="400.157" y="346.378"/><use xlink:href="#aj" x="405.605" y="346.378"/><use xlink:href="#an" x="411.052" y="346.378"/><use xlink:href="#aa" x="413.233" y="346.378"/><use xlink:href="#ab" x="415.962" y="346.378"/><use xlink:href="#ad" x="421.409" y="346.378"/><use xlink:href="#aj" x="426.857" y="346.378"/><use xlink:href="#ak" x="432.304" y="346.378"/></g><g fill="#231f20"><use xlink:href="#ac" x="435.398" y="346.378"/><use xlink:href="#Z" x="440.845" y="346.378"/><use xlink:href="#ac" x="444.474" y="346.378"/><use xlink:href="#Y" x="449.921" y="346.378"/><use xlink:href="#au" x="455.369" y="346.378"/><use xlink:href="#ag" x="460.269" y="346.378"/><use xlink:href="#ak" x="462.449" y="346.378"/></g><g fill="#231f20"><use xlink:href="#ae" x="465.543" y="346.378"/><use xlink:href="#Y" x="470.99" y="346.378"/><use xlink:href="#af" x="476.438" y="346.378"/><use xlink:href="#ac" x="484.595" y="346.378"/><use xlink:href="#Y" x="490.042" y="346.378"/><use xlink:href="#aa" x="495.49" y="346.378"/><use xlink:href="#am" x="498.218" y="346.378"/></g><use xlink:href="#Z" x="500.839" y="346.378" fill="#231f20"/><g fill="#231f20"><use xlink:href="#aa" x="76.442" y="365.355"/><use xlink:href="#ab" x="79.063" y="365.355"/><use xlink:href="#ac" x="84.403" y="365.355"/><use xlink:href="#Z" x="89.743" y="365.355"/><use xlink:href="#aq" x="93.235" y="365.355"/><use xlink:href="#ab" x="99.113" y="365.355"/><use xlink:href="#aj" x="104.453" y="365.355"/><use xlink:href="#ak" x="109.793" y="365.355"/></g><g fill="#231f20"><use xlink:href="#af" x="113.128" y="365.355"/><use xlink:href="#aj" x="121.177" y="365.355"/><use xlink:href="#ad" x="126.517" y="365.355"/><use xlink:href="#ac" x="131.857" y="365.355"/><use xlink:href="#as" x="137.196" y="365.355"/><use xlink:href="#aa" x="142.536" y="365.355"/><use xlink:href="#ag" x="145.157" y="365.355"/><use xlink:href="#ad" x="147.231" y="365.355"/><use xlink:href="#aj" x="152.571" y="365.355"/><use xlink:href="#an" x="157.911" y="365.355"/><use xlink:href="#Z" x="159.984" y="365.355"/><use xlink:href="#ag" x="163.476" y="365.355"/><use xlink:href="#Y" x="165.549" y="365.355"/><use xlink:href="#ar" x="170.889" y="365.355"/><use xlink:href="#as" x="176.767" y="365.355"/><use xlink:href="#al" x="182.107" y="365.355"/><use xlink:href="#aa" x="186.899" y="365.355"/><use xlink:href="#ak" x="189.52" y="365.355"/></g><g fill="#231f20"><use xlink:href="#ai" x="192.854" y="365.355"/><use xlink:href="#Z" x="197.646" y="365.355"/><use xlink:href="#ag" x="201.138" y="365.355"/><use xlink:href="#al" x="203.211" y="365.355"/><use xlink:href="#Z" x="208.003" y="365.355"/><use xlink:href="#aj" x="211.495" y="365.355"/><use xlink:href="#an" x="216.835" y="365.355"/><use xlink:href="#al" x="218.908" y="365.355"/><use xlink:href="#ae" x="223.7" y="365.355"/><use xlink:href="#Z" x="229.04" y="365.355"/><use xlink:href="#av" x="232.532" y="365.355"/><use xlink:href="#aj" x="235.153" y="365.355"/><use xlink:href="#ad" x="240.493" y="365.355"/><use xlink:href="#ag" x="245.833" y="365.355"/><use xlink:href="#Y" x="247.906" y="365.355"/><use xlink:href="#ah" x="253.246" y="365.355"/><use xlink:href="#Z" x="259.124" y="365.355"/><use xlink:href="#ag" x="262.616" y="365.355"/><use xlink:href="#aa" x="264.689" y="365.355"/><use xlink:href="#al" x="267.31" y="365.355"/><use xlink:href="#Z" x="272.102" y="365.355"/><use xlink:href="#ae" x="275.594" y="365.355"/><use xlink:href="#at" x="280.934" y="365.355"/><use xlink:href="#Y" x="287.897" y="365.355"/><use xlink:href="#Z" x="293.237" y="365.355"/><use xlink:href="#ad" x="296.729" y="365.355"/><use xlink:href="#ab" x="302.068" y="365.355"/><use xlink:href="#aj" x="307.408" y="365.355"/><use xlink:href="#an" x="312.748" y="365.355"/><use xlink:href="#an" x="314.822" y="365.355"/><use xlink:href="#ac" x="316.895" y="365.355"/><use xlink:href="#Y" x="322.235" y="365.355"/><use xlink:href="#ah" x="327.575" y="365.355"/><use xlink:href="#ac" x="333.453" y="365.355"/><use xlink:href="#al" x="338.793" y="365.355"/><use xlink:href="#aw" x="343.585" y="365.355"/><use xlink:href="#Z" x="346.206" y="365.355"/><use xlink:href="#ax" x="349.698" y="365.355"/></g><g fill="#231f20"><use xlink:href="#ae" x="353.952" y="365.355"/><use xlink:href="#Z" x="359.292" y="365.355"/><use xlink:href="#ae" x="362.783" y="365.355"/><use xlink:href="#au" x="368.123" y="365.355"/><use xlink:href="#ac" x="372.916" y="365.355"/><use xlink:href="#ak" x="378.255" y="365.355"/></g><g fill="#231f20"><use xlink:href="#ad" x="381.238" y="365.355"/><use xlink:href="#ae" x="386.578" y="365.355"/><use xlink:href="#af" x="391.918" y="365.355"/><use xlink:href="#ac" x="399.967" y="365.355"/><use xlink:href="#Z" x="405.307" y="365.355"/><use xlink:href="#aa" x="408.799" y="365.355"/><use xlink:href="#ab" x="411.42" y="365.355"/><use xlink:href="#ac" x="416.76" y="365.355"/><use xlink:href="#al" x="422.1" y="365.355"/><use xlink:href="#ac" x="426.892" y="365.355"/><use xlink:href="#Z" x="432.232" y="365.355"/><use xlink:href="#ad" x="435.723" y="365.355"/><use xlink:href="#ab" x="441.063" y="365.355"/><use xlink:href="#aj" x="446.403" y="365.355"/><use xlink:href="#an" x="451.743" y="365.355"/><use xlink:href="#an" x="453.817" y="365.355"/><use xlink:href="#ac" x="455.89" y="365.355"/><use xlink:href="#Y" x="461.23" y="365.355"/><use xlink:href="#ah" x="466.57" y="365.355"/><use xlink:href="#ac" x="472.448" y="365.355"/><use xlink:href="#al" x="477.788" y="365.355"/><use xlink:href="#am" x="482.58" y="365.355"/><use xlink:href="#Z" x="485.201" y="365.355"/><use xlink:href="#at" x="488.692" y="365.355"/><use xlink:href="#ac" x="495.656" y="365.355"/><use xlink:href="#Z" x="500.996" y="365.355"/></g><g fill="#231f20"><use xlink:href="#Y" x="76.442" y="384.332"/><use xlink:href="#ac" x="81.782" y="384.332"/><use xlink:href="#ac" x="87.122" y="384.332"/><use xlink:href="#ar" x="92.462" y="384.332"/><use xlink:href="#Z" x="98.34" y="384.332"/><use xlink:href="#aj" x="101.528" y="384.332"/><use xlink:href="#Z" x="106.868" y="384.332"/><use xlink:href="#af" x="110.057" y="384.332"/><use xlink:href="#as" x="118.106" y="384.332"/><use xlink:href="#an" x="123.446" y="384.332"/><use xlink:href="#aa" x="125.519" y="384.332"/><use xlink:href="#ag" x="128.14" y="384.332"/><use xlink:href="#ar" x="130.213" y="384.332"/><use xlink:href="#ag" x="136.091" y="384.332"/><use xlink:href="#al" x="138.165" y="384.332"/><use xlink:href="#ad" x="142.957" y="384.332"/><use xlink:href="#ag" x="148.297" y="384.332"/><use xlink:href="#aq" x="150.37" y="384.332"/><use xlink:href="#an" x="156.248" y="384.332"/><use xlink:href="#ag" x="158.321" y="384.332"/><use xlink:href="#Y" x="160.395" y="384.332"/><use xlink:href="#aj" x="165.735" y="384.332"/><use xlink:href="#ak" x="171.075" y="384.332"/></g><g fill="#231f20"><use xlink:href="#ai" x="174.41" y="384.332"/><use xlink:href="#Z" x="179.202" y="384.332"/><use xlink:href="#aj" x="182.39" y="384.332"/><use xlink:href="#aq" x="187.73" y="384.332"/><use xlink:href="#aq" x="193.608" y="384.332"/><use xlink:href="#ak" x="199.486" y="384.332"/></g><g fill="#231f20"><use xlink:href="#ae" x="202.469" y="384.332"/><use xlink:href="#aj" x="207.809" y="384.332"/><use xlink:href="#ad" x="213.149" y="384.332"/><use xlink:href="#ab" x="218.489" y="384.332"/><use xlink:href="#am" x="223.829" y="384.332"/><use xlink:href="#Z" x="226.45" y="384.332"/><use xlink:href="#at" x="229.638" y="384.332"/><use xlink:href="#ab" x="236.601" y="384.332"/><use xlink:href="#ac" x="241.941" y="384.332"/><use xlink:href="#ak" x="247.281" y="384.332"/></g><g fill="#231f20"><use xlink:href="#ac" x="250.264" y="384.332"/><use xlink:href="#Z" x="255.604" y="384.332"/><use xlink:href="#aj" x="258.792" y="384.332"/><use xlink:href="#an" x="264.132" y="384.332"/><use xlink:href="#an" x="266.206" y="384.332"/><use xlink:href="#Z" x="268.279" y="384.332"/><use xlink:href="#al" x="271.468" y="384.332"/><use xlink:href="#aa" x="276.26" y="384.332"/><use xlink:href="#aj" x="278.881" y="384.332"/><use xlink:href="#ay" x="284.221" y="384.332"/><use xlink:href="#ac" x="289.013" y="384.332"/><use xlink:href="#ab" x="294.353" y="384.332"/><use xlink:href="#ae" x="299.693" y="384.332"/><use xlink:href="#an" x="305.033" y="384.332"/><use xlink:href="#ar" x="307.106" y="384.332"/><use xlink:href="#ac" x="312.984" y="384.332"/><use xlink:href="#ak" x="318.324" y="384.332"/><use xlink:href="#al" x="321.483" y="384.332"/><use xlink:href="#Z" x="326.275" y="384.332"/><use xlink:href="#ae" x="329.464" y="384.332"/><use xlink:href="#av" x="334.803" y="384.332"/><use xlink:href="#Z" x="337.425" y="384.332"/><use xlink:href="#aa" x="340.613" y="384.332"/><use xlink:href="#ab" x="343.234" y="384.332"/><use xlink:href="#ac" x="348.574" y="384.332"/><use xlink:href="#Z" x="353.914" y="384.332"/><use xlink:href="#az" x="357.102" y="384.332"/><use xlink:href="#ac" x="364.066" y="384.332"/><use xlink:href="#aj" x="369.405" y="384.332"/><use xlink:href="#an" x="374.745" y="384.332"/><use xlink:href="#aa" x="376.819" y="384.332"/><use xlink:href="#ab" x="379.44" y="384.332"/><use xlink:href="#Z" x="384.78" y="384.332"/><use xlink:href="#aA" x="387.968" y="384.332"/><use xlink:href="#ad" x="393.846" y="384.332"/><use xlink:href="#ae" x="399.186" y="384.332"/><use xlink:href="#al" x="404.526" y="384.332"/><use xlink:href="#ai" x="409.318" y="384.332"/><use xlink:href="#al" x="414.11" y="384.332"/><use xlink:href="#aa" x="418.903" y="384.332"/><use xlink:href="#ac" x="421.524" y="384.332"/><use xlink:href="#af" x="426.864" y="384.332"/><use xlink:href="#am" x="434.913" y="384.332"/><use xlink:href="#Z" x="437.534" y="384.332"/><use xlink:href="#Y" x="440.722" y="384.332"/><use xlink:href="#ac" x="446.062" y="384.332"/><use xlink:href="#ac" x="451.402" y="384.332"/><use xlink:href="#ar" x="456.742" y="384.332"/><use xlink:href="#Z" x="462.62" y="384.332"/><use xlink:href="#aa" x="465.808" y="384.332"/><use xlink:href="#ae" x="468.429" y="384.332"/><use xlink:href="#Z" x="473.769" y="384.332"/><use xlink:href="#ad" x="476.957" y="384.332"/><use xlink:href="#ae" x="482.297" y="384.332"/><use xlink:href="#af" x="487.637" y="384.332"/><use xlink:href="#ac" x="495.686" y="384.332"/><use xlink:href="#Z" x="501.026" y="384.332"/></g><g fill="#231f20"><use xlink:href="#aa" x="76.442" y="403.309"/><use xlink:href="#ae" x="79.073" y="403.309"/><use xlink:href="#ah" x="84.423" y="403.309"/><use xlink:href="#ac" x="90.311" y="403.309"/><use xlink:href="#aa" x="95.66" y="403.309"/><use xlink:href="#ab" x="98.291" y="403.309"/><use xlink:href="#ac" x="103.641" y="403.309"/><use xlink:href="#ak" x="108.991" y="403.309"/><use xlink:href="#Z" x="112.159" y="403.309"/><use xlink:href="#at" x="115.69" y="403.309"/><use xlink:href="#ag" x="122.663" y="403.309"/><use xlink:href="#aa" x="124.746" y="403.309"/><use xlink:href="#ab" x="127.377" y="403.309"/><use xlink:href="#Z" x="132.727" y="403.309"/><use xlink:href="#aa" x="136.258" y="403.309"/><use xlink:href="#ab" x="138.888" y="403.309"/><use xlink:href="#ac" x="144.238" y="403.309"/><use xlink:href="#Z" x="149.588" y="403.309"/><use xlink:href="#al" x="153.118" y="403.309"/><use xlink:href="#ab" x="157.92" y="403.309"/><use xlink:href="#aj" x="163.27" y="403.309"/><use xlink:href="#ak" x="168.62" y="403.309"/></g><g fill="#231f20"><use xlink:href="#ac" x="171.617" y="403.309"/><use xlink:href="#ar" x="176.966" y="403.309"/><use xlink:href="#Z" x="182.854" y="403.309"/><use xlink:href="#ah" x="186.385" y="403.309"/><use xlink:href="#ae" x="192.272" y="403.309"/><use xlink:href="#aj" x="197.622" y="403.309"/><use xlink:href="#an" x="202.972" y="403.309"/><use xlink:href="#Z" x="205.055" y="403.309"/><use xlink:href="#ae" x="208.585" y="403.309"/><use xlink:href="#av" x="213.935" y="403.309"/><use xlink:href="#Z" x="216.566" y="403.309"/><use xlink:href="#ag" x="220.097" y="403.309"/><use xlink:href="#af" x="222.18" y="403.309"/><use xlink:href="#aq" x="230.238" y="403.309"/><use xlink:href="#ak" x="236.126" y="403.309"/></g><g fill="#231f20"><use xlink:href="#ae" x="239.123" y="403.309"/><use xlink:href="#au" x="244.472" y="403.309"/><use xlink:href="#ag" x="249.274" y="403.309"/><use xlink:href="#Y" x="251.358" y="403.309"/><use xlink:href="#ah" x="256.707" y="403.309"/><use xlink:href="#Z" x="262.595" y="403.309"/><use xlink:href="#aB" x="266.126" y="403.309"/><use xlink:href="#as" x="272.013" y="403.309"/><use xlink:href="#aj" x="277.363" y="403.309"/><use xlink:href="#an" x="282.713" y="403.309"/><use xlink:href="#ag" x="284.796" y="403.309"/><use xlink:href="#aa" x="286.879" y="403.309"/><use xlink:href="#ai" x="289.51" y="403.309"/><use xlink:href="#Z" x="294.312" y="403.309"/><use xlink:href="#aj" x="297.842" y="403.309"/><use xlink:href="#Y" x="303.192" y="403.309"/><use xlink:href="#ar" x="308.542" y="403.309"/><use xlink:href="#Z" x="314.43" y="403.309"/><use xlink:href="#aj" x="317.96" y="403.309"/><use xlink:href="#ad" x="323.31" y="403.309"/><use xlink:href="#ad" x="328.66" y="403.309"/><use xlink:href="#ac" x="334.009" y="403.309"/><use xlink:href="#al" x="339.359" y="403.309"/><use xlink:href="#al" x="344.161" y="403.309"/><use xlink:href="#Z" x="348.963" y="403.309"/><use xlink:href="#aa" x="352.494" y="403.309"/><use xlink:href="#ae" x="355.125" y="403.309"/><use xlink:href="#Z" x="360.474" y="403.309"/><use xlink:href="#af" x="364.005" y="403.309"/><use xlink:href="#ac" x="372.064" y="403.309"/><use xlink:href="#ar" x="377.413" y="403.309"/><use xlink:href="#ag" x="383.301" y="403.309"/><use xlink:href="#ad" x="385.384" y="403.309"/><use xlink:href="#ag" x="390.734" y="403.309"/><use xlink:href="#Y" x="392.817" y="403.309"/><use xlink:href="#ac" x="398.167" y="403.309"/><use xlink:href="#aw" x="403.517" y="403.309"/><use xlink:href="#Z" x="406.147" y="403.309"/><use xlink:href="#ax" x="409.678" y="403.309"/><use xlink:href="#ab" x="415.028" y="403.309"/><use xlink:href="#ag" x="420.377" y="403.309"/><use xlink:href="#al" x="422.461" y="403.309"/><use xlink:href="#Z" x="427.263" y="403.309"/><use xlink:href="#aq" x="430.793" y="403.309"/><use xlink:href="#ak" x="436.681" y="403.309"/></g><g fill="#231f20"><use xlink:href="#ac" x="439.678" y="403.309"/><use xlink:href="#al" x="445.028" y="403.309"/><use xlink:href="#ac" x="449.83" y="403.309"/><use xlink:href="#Y" x="455.18" y="403.309"/><use xlink:href="#aa" x="460.53" y="403.309"/><use xlink:href="#aj" x="463.16" y="403.309"/><use xlink:href="#aa" x="468.51" y="403.309"/><use xlink:href="#ag" x="471.141" y="403.309"/><use xlink:href="#ae" x="473.224" y="403.309"/><use xlink:href="#Y" x="478.574" y="403.309"/><use xlink:href="#Z" x="483.924" y="403.309"/><use xlink:href="#at" x="487.454" y="403.309"/><use xlink:href="#ag" x="494.427" y="403.309"/><use xlink:href="#an" x="496.511" y="403.309"/><use xlink:href="#an" x="498.594" y="403.309"/></g><use xlink:href="#Z" x="500.667" y="403.309" fill="#231f20"/><use xlink:href="#aa" x="76.442" y="422.286" fill="#231f20"/><use xlink:href="#ak" x="79.127" y="422.286" fill="#231f20"/><use xlink:href="#ai" x="82.526" y="422.286" fill="#231f20"/><g fill="#231f20"><use xlink:href="#Z" x="87.381" y="422.286"/><use xlink:href="#aa" x="90.961" y="422.286"/></g><use xlink:href="#ae" x="93.646" y="422.286" fill="#231f20"/><g fill="#231f20"><use xlink:href="#Z" x="99.049" y="422.286"/><use xlink:href="#ao" x="102.629" y="422.286"/></g><use xlink:href="#ak" x="108.57" y="422.286" fill="#231f20"/><use xlink:href="#ag" x="111.793" y="422.286" fill="#231f20"/><use xlink:href="#ac" x="113.93" y="422.286" fill="#231f20"/><use xlink:href="#av" x="119.333" y="422.286" fill="#231f20"/><use xlink:href="#an" x="122.018" y="422.286" fill="#231f20"/><use xlink:href="#ai" x="124.155" y="422.286" fill="#231f20"/><g fill="#231f20"><use xlink:href="#Z" x="129.01" y="422.286"/><use xlink:href="#ac" x="132.59" y="422.286"/></g><use xlink:href="#ap" x="137.994" y="422.286" fill="#231f20"/><use xlink:href="#aq" x="142.849" y="422.286" fill="#231f20"/><use xlink:href="#an" x="148.791" y="422.286" fill="#231f20"/><use xlink:href="#aj" x="150.928" y="422.286" fill="#231f20"/><use xlink:href="#ag" x="156.331" y="422.286" fill="#231f20"/><use xlink:href="#Y" x="158.467" y="422.286" fill="#231f20"/><g fill="#231f20"><use xlink:href="#Z" x="163.871" y="422.286"/><use xlink:href="#ab" x="167.45" y="422.286"/></g><use xlink:href="#ae" x="172.854" y="422.286" fill="#231f20"/><use xlink:href="#at" x="178.257" y="422.286" fill="#231f20"/><g fill="#231f20"><use xlink:href="#Z" x="185.283" y="422.286"/><use xlink:href="#aC" x="188.863" y="422.286"/></g><use xlink:href="#al" x="195.352" y="422.286" fill="#231f20"/><use xlink:href="#aa" x="200.208" y="422.286" fill="#231f20"/><use xlink:href="#ak" x="202.892" y="422.286" fill="#231f20"/><use xlink:href="#aj" x="206.114" y="422.286" fill="#231f20"/><use xlink:href="#aD" x="211.517" y="422.286" fill="#231f20"/><use xlink:href="#ac" x="217.459" y="422.286" fill="#231f20"/><use xlink:href="#Y" x="222.862" y="422.286" fill="#231f20"/><use xlink:href="#ac" x="228.266" y="422.286" fill="#231f20"/><use xlink:href="#ad" x="233.669" y="422.286" fill="#231f20"/><use xlink:href="#aj" x="239.073" y="422.286" fill="#231f20"/><g fill="#231f20"><use xlink:href="#Z" x="244.476" y="422.286"/><use xlink:href="#ag" x="248.056" y="422.286"/></g><use xlink:href="#al" x="250.193" y="422.286" fill="#231f20"/><g fill="#231f20"><use xlink:href="#Z" x="255.049" y="422.286"/><use xlink:href="#aa" x="258.628" y="422.286"/></g><use xlink:href="#ak" x="261.312" y="422.286" fill="#231f20"/><use xlink:href="#ai" x="264.71" y="422.286" fill="#231f20"/><use xlink:href="#ag" x="269.566" y="422.286" fill="#231f20"/><use xlink:href="#Y" x="271.703" y="422.286" fill="#231f20"/><use xlink:href="#ah" x="277.107" y="422.286" fill="#231f20"/><g fill="#231f20"><use xlink:href="#Z" x="283.048" y="422.286"/><use xlink:href="#aa" x="286.628" y="422.286"/></g><use xlink:href="#ae" x="289.312" y="422.286" fill="#231f20"/><g fill="#231f20"><use xlink:href="#Z" x="294.716" y="422.286"/><use xlink:href="#ad" x="298.295" y="422.286"/></g><use xlink:href="#ae" x="303.699" y="422.286" fill="#231f20"/><use xlink:href="#Y" x="309.101" y="422.286" fill="#231f20"/><use xlink:href="#aa" x="314.505" y="422.286" fill="#231f20"/><use xlink:href="#ak" x="317.189" y="422.286" fill="#231f20"/><use xlink:href="#ag" x="320.412" y="422.286" fill="#231f20"/><use xlink:href="#ao" x="322.549" y="422.286" fill="#231f20"/><use xlink:href="#as" x="328.49" y="422.286" fill="#231f20"/><use xlink:href="#aa" x="333.894" y="422.286" fill="#231f20"/><use xlink:href="#ac" x="336.579" y="422.286" fill="#231f20"/><g fill="#231f20"><use xlink:href="#Z" x="341.982" y="422.286"/><use xlink:href="#ag" x="345.562" y="422.286"/></g><use xlink:href="#Y" x="347.699" y="422.286" fill="#231f20"/><g fill="#231f20"><use xlink:href="#Z" x="353.102" y="422.286"/><use xlink:href="#aa" x="356.682" y="422.286"/></g><use xlink:href="#ab" x="359.366" y="422.286" fill="#231f20"/><use xlink:href="#ag" x="364.77" y="422.286" fill="#231f20"/><use xlink:href="#al" x="366.907" y="422.286" fill="#231f20"/><g fill="#231f20"><use xlink:href="#Z" x="371.762" y="422.286"/><use xlink:href="#ad" x="375.342" y="422.286"/></g><use xlink:href="#ae" x="380.746" y="422.286" fill="#231f20"/><use xlink:href="#Y" x="386.149" y="422.286" fill="#231f20"/><use xlink:href="#aa" x="391.553" y="422.286" fill="#231f20"/><use xlink:href="#ac" x="394.237" y="422.286" fill="#231f20"/><use xlink:href="#ap" x="399.641" y="422.286" fill="#231f20"/><use xlink:href="#aa" x="404.496" y="422.286" fill="#231f20"/><use xlink:href="#am" x="407.181" y="422.286" fill="#231f20"/><g fill="#231f20"><use xlink:href="#Z" x="409.866" y="422.286"/><use xlink:href="#ao" x="413.445" y="422.286"/></g><use xlink:href="#ai" x="419.386" y="422.286" fill="#231f20"/><g fill="#231f20"><use xlink:href="#Z" x="424.242" y="422.286"/><use xlink:href="#ac" x="427.821" y="422.286"/></g><use xlink:href="#af" x="433.225" y="422.286" fill="#231f20"/><use xlink:href="#ao" x="441.337" y="422.286" fill="#231f20"/><use xlink:href="#ac" x="447.278" y="422.286" fill="#231f20"/><use xlink:href="#ar" x="452.681" y="422.286" fill="#231f20"/><use xlink:href="#ar" x="458.623" y="422.286" fill="#231f20"/><use xlink:href="#ag" x="464.564" y="422.286" fill="#231f20"/><use xlink:href="#Y" x="466.701" y="422.286" fill="#231f20"/><use xlink:href="#ah" x="472.104" y="422.286" fill="#231f20"/><g fill="#231f20"><use xlink:href="#Z" x="478.046" y="422.286"/><use xlink:href="#ar" x="481.625" y="422.286"/></g><use xlink:href="#aj" x="487.567" y="422.286" fill="#231f20"/><use xlink:href="#aa" x="492.97" y="422.286" fill="#231f20"/><use xlink:href="#aj" x="495.655" y="422.286" fill="#231f20"/><use xlink:href="#Z" x="500.995" y="422.286" fill="#231f20"/><g fill="#231f20"><use xlink:href="#al" x="76.442" y="441.263"/><use xlink:href="#ad" x="81.235" y="441.263"/><use xlink:href="#ag" x="86.575" y="441.263"/><use xlink:href="#ac" x="88.648" y="441.263"/><use xlink:href="#Y" x="93.988" y="441.263"/><use xlink:href="#ad" x="99.328" y="441.263"/><use xlink:href="#ac" x="104.668" y="441.263"/><use xlink:href="#Z" x="110.008" y="441.263"/><use xlink:href="#aj" x="112.629" y="441.263"/><use xlink:href="#Y" x="117.969" y="441.263"/><use xlink:href="#ar" x="123.309" y="441.263"/><use xlink:href="#Z" x="129.187" y="441.263"/><use xlink:href="#aj" x="131.808" y="441.263"/><use xlink:href="#ak" x="137.148" y="441.263"/></g><g fill="#231f20"><use xlink:href="#aa" x="140.483" y="441.263"/><use xlink:href="#ag" x="143.104" y="441.263"/><use xlink:href="#av" x="145.177" y="441.263"/><use xlink:href="#ag" x="147.798" y="441.263"/><use xlink:href="#ad" x="149.871" y="441.263"/><use xlink:href="#ag" x="155.211" y="441.263"/><use xlink:href="#aj" x="157.285" y="441.263"/><use xlink:href="#an" x="162.625" y="441.263"/><use xlink:href="#Z" x="164.698" y="441.263"/><use xlink:href="#ag" x="167.319" y="441.263"/><use xlink:href="#Y" x="169.393" y="441.263"/><use xlink:href="#aa" x="174.732" y="441.263"/><use xlink:href="#ac" x="177.354" y="441.263"/><use xlink:href="#an" x="182.693" y="441.263"/><use xlink:href="#an" x="184.767" y="441.263"/><use xlink:href="#ag" x="186.84" y="441.263"/><use xlink:href="#ah" x="188.914" y="441.263"/><use xlink:href="#ac" x="194.791" y="441.263"/><use xlink:href="#Y" x="200.131" y="441.263"/><use xlink:href="#ad" x="205.471" y="441.263"/><use xlink:href="#ac" x="210.811" y="441.263"/><use xlink:href="#Z" x="216.151" y="441.263"/><use xlink:href="#aE" x="218.772" y="441.263"/><use xlink:href="#aC" x="221.931" y="441.263"/><use xlink:href="#X" x="228.357" y="441.263"/><use xlink:href="#aF" x="230.978" y="441.263"/><use xlink:href="#Z" x="234.137" y="441.263"/><use xlink:href="#aj" x="236.758" y="441.263"/><use xlink:href="#ad" x="242.098" y="441.263"/><use xlink:href="#ak" x="247.438" y="441.263"/></g><g fill="#231f20"><use xlink:href="#ae" x="250.422" y="441.263"/><use xlink:href="#al" x="255.762" y="441.263"/><use xlink:href="#al" x="260.554" y="441.263"/><use xlink:href="#Z" x="265.346" y="441.263"/><use xlink:href="#ad" x="267.967" y="441.263"/><use xlink:href="#an" x="273.307" y="441.263"/><use xlink:href="#ag" x="275.381" y="441.263"/><use xlink:href="#Y" x="277.454" y="441.263"/><use xlink:href="#ag" x="282.794" y="441.263"/><use xlink:href="#ad" x="284.867" y="441.263"/><use xlink:href="#aj" x="290.207" y="441.263"/><use xlink:href="#an" x="295.547" y="441.263"/><use xlink:href="#Z" x="297.62" y="441.263"/><use xlink:href="#ar" x="300.242" y="441.263"/><use xlink:href="#ac" x="306.119" y="441.263"/><use xlink:href="#au" x="311.459" y="441.263"/><use xlink:href="#ac" x="316.252" y="441.263"/><use xlink:href="#an" x="321.592" y="441.263"/><use xlink:href="#ae" x="323.665" y="441.263"/><use xlink:href="#aq" x="329.005" y="441.263"/><use xlink:href="#af" x="334.883" y="441.263"/><use xlink:href="#ac" x="342.932" y="441.263"/><use xlink:href="#Y" x="348.272" y="441.263"/><use xlink:href="#aa" x="353.612" y="441.263"/><use xlink:href="#aw" x="356.233" y="441.263"/></g><g fill="#231f20"><use xlink:href="#aG" x="445.331" y="213.768"/><use xlink:href="#aH" x="455.785" y="213.768"/><use xlink:href="#aI" x="466.239" y="213.768"/><use xlink:href="#aJ" x="476.692" y="213.768"/></g><g fill="#231f20"><use xlink:href="#aK" x="480.098" y="213.768"/><use xlink:href="#aL" x="490.552" y="213.768"/></g><g fill="#231f20"><use xlink:href="#aM" x="445.031" y="229.184"/><use xlink:href="#aN" x="453.032" y="229.184"/><use xlink:href="#aO" x="461.032" y="229.184"/><use xlink:href="#aP" x="469.032" y="229.184"/><use xlink:href="#aQ" x="477.033" y="229.184"/><use xlink:href="#aR" x="485.033" y="229.184"/><use xlink:href="#aS" x="493.033" y="229.184"/></g><g fill="#33459a"><use xlink:href="#aT" x="76.442" y="148.281"/><use xlink:href="#aU" x="86.61" y="148.281"/><use xlink:href="#aV" x="92.703" y="148.281"/><use xlink:href="#aW" x="98.056" y="148.281"/><use xlink:href="#aX" x="102.291" y="148.281"/><use xlink:href="#aW" x="107.644" y="148.281"/><use xlink:href="#aY" x="111.879" y="148.281"/><use xlink:href="#aW" x="120.549" y="148.281"/><use xlink:href="#aZ" x="124.784" y="148.281"/><use xlink:href="#ba" x="133.833" y="148.281"/><use xlink:href="#bb" x="138.067" y="148.281"/><use xlink:href="#bc" x="142.662" y="148.281"/><use xlink:href="#bd" x="146.897" y="148.281"/><use xlink:href="#aV" x="156.305" y="148.281"/><use xlink:href="#be" x="161.659" y="148.281"/><use xlink:href="#ba" x="170.708" y="148.281"/><use xlink:href="#ba" x="174.943" y="148.281"/><use xlink:href="#aW" x="179.177" y="148.281"/><use xlink:href="#bf" x="183.412" y="148.281"/><use xlink:href="#be" x="192.821" y="148.281"/><use xlink:href="#bd" x="201.87" y="148.281"/><use xlink:href="#aY" x="211.278" y="148.281"/><use xlink:href="#be" x="219.948" y="148.281"/></g><g fill="#33459a"><use xlink:href="#aW" x="76.442" y="175.248"/><use xlink:href="#bd" x="80.677" y="175.248"/><use xlink:href="#bb" x="90.086" y="175.248"/><use xlink:href="#bg" x="94.68" y="175.248"/><use xlink:href="#ba" x="104.848" y="175.248"/><use xlink:href="#aW" x="109.083" y="175.248"/><use xlink:href="#bd" x="113.318" y="175.248"/><use xlink:href="#aW" x="122.726" y="175.248"/><use xlink:href="#aY" x="126.961" y="175.248"/><use xlink:href="#aZ" x="135.63" y="175.248"/><use xlink:href="#ba" x="144.679" y="175.248"/><use xlink:href="#bb" x="148.914" y="175.248"/><use xlink:href="#bh" x="153.509" y="175.248"/><use xlink:href="#be" x="164.415" y="175.248"/><use xlink:href="#bi" x="173.464" y="175.248"/><use xlink:href="#be" x="181.774" y="175.248"/><use xlink:href="#ba" x="190.823" y="175.248"/><use xlink:href="#bj" x="195.058" y="175.248"/><use xlink:href="#bk" x="204.107" y="175.248"/><use xlink:href="#bl" x="213.516" y="175.248"/><use xlink:href="#be" x="228.098" y="175.248"/><use xlink:href="#bd" x="237.147" y="175.248"/><use xlink:href="#aV" x="246.556" y="175.248"/></g><g fill="#4f4c4d"><use xlink:href="#bm" x="446.016" y="104.473"/><use xlink:href="#bn" x="452.288" y="104.473"/><use xlink:href="#bo" x="458.56" y="104.473"/></g><g fill="#4f4c4d"><use xlink:href="#bp" x="464.171" y="104.473"/><use xlink:href="#bq" x="469.466" y="104.473"/></g><use xlink:href="#bm" x="475.562" y="104.473" fill="#4f4c4d"/><g fill="#4f4c4d"><use xlink:href="#br" x="481.482" y="104.473"/><use xlink:href="#bp" x="487.754" y="104.473"/></g></svg>