<svg xmlns="http://www.w3.org/2000/svg" xmlns:xlink="http://www.w3.org/1999/xlink" width="793.701" height="1058.268" viewBox="0 0 595.276 793.701" version="1.2"><defs><symbol overflow="visible" id="a"><path d="M6-10.86v-1.64h1.797v1.64H12v1.594H9.734a3.266 3.266 0 0 1 .766 2.079 3.022 3.022 0 0 1-1.047 2.313 3.502 3.502 0 0 1-1.14.655 4.209 4.209 0 0 1-1.422.235c-.512 0-.993-.079-1.438-.235a3.422 3.422 0 0 1-1.14-.656 3.316 3.316 0 0 1-.75-1.016 3.094 3.094 0 0 1-.266-1.296c0-.79.25-1.485.75-2.079H1.75v-1.593zm7.234 7.61v1.594H7.797v3.515H5.984v-3.515H.547V-3.25zM5.016-7.188c0 .481.171.887.515 1.22.34.335.797.5 1.36.5.277 0 .535-.04.765-.126.227-.09.426-.218.594-.375a1.52 1.52 0 0 0 .375-.547c.09-.207.14-.43.14-.671 0-.258-.05-.504-.14-.735a1.707 1.707 0 0 0-.375-.594 1.73 1.73 0 0 0-.594-.406 1.889 1.889 0 0 0-.765-.156 1.93 1.93 0 0 0-.766.156c-.23.094-.43.23-.594.406-.168.18-.3.383-.39.61-.086.218-.125.46-.125.718zm0 0"/></symbol><symbol overflow="visible" id="b"><path d="M2.094-8.672c0-.445.082-.867.25-1.265.176-.395.41-.735.703-1.016a3.388 3.388 0 0 1 2.36-.938 3.38 3.38 0 0 1 2.359.938c.308.281.55.621.718 1.015.164.399.25.82.25 1.266 0 .438-.086.852-.25 1.235-.168.386-.41.726-.718 1.015a3.51 3.51 0 0 1-1.063.672 3.526 3.526 0 0 1-1.297.234c-.46 0-.894-.078-1.297-.234a3.418 3.418 0 0 1-1.062-.672 3.376 3.376 0 0 1-.703-1.016 3.045 3.045 0 0 1-.25-1.234zm8.89.453v-3.531h1.813v10.734h-1.813V-6.64H9.11v-1.578zM5.531.141c0 .207.008.379.032.515.019.133.062.25.125.344.07.09.171.156.296.188.121.039.297.062.516.062h6.469v1.61H6.547a9.037 9.037 0 0 1-1.406-.094c-.356-.055-.645-.18-.86-.375-.21-.2-.355-.493-.437-.875-.086-.375-.125-.88-.125-1.5v-1.329H5.53zm-.875-3.375H.938v-1.594h8.937v1.594H6.453v1.64H4.656zM3.641-8.672c0 .242.039.465.125.672.09.2.218.379.375.531.152.157.336.278.546.36.215.086.458.125.72.125.238 0 .46-.04.671-.125.215-.082.406-.204.563-.36.152-.152.28-.332.375-.531a1.668 1.668 0 0 0 0-1.344 1.89 1.89 0 0 0-.375-.562 1.58 1.58 0 0 0-.563-.375c-.21-.09-.433-.14-.672-.14-.261 0-.504.05-.718.14a1.52 1.52 0 0 0-.547.375 1.752 1.752 0 0 0-.375.562c-.086.211-.125.434-.125.672zm0 0"/></symbol><symbol overflow="visible" id="c"><path d="M5.766-11.203c.601 0 1.035.137 1.296.406.258.262.372.664.344 1.203A6.114 6.114 0 0 1 7-7.906c-.219.593-.527 1.21-.922 1.843.152.262.375.555.656.875.278.313.579.633.891.954.309.312.61.605.89.875.278.261.505.46.672.593L8-1.359a10.8 10.8 0 0 1-.625-.594A32.423 32.423 0 0 1 5.75-3.672c-.281-.308-.535-.61-.75-.89-.46.593-.96 1.175-1.5 1.734a21.417 21.417 0 0 1-1.75 1.594L.61-2.625A17.258 17.258 0 0 0 2.53-4.359c.57-.602 1.07-1.192 1.5-1.766.426-.57.77-1.117 1.032-1.64.257-.52.437-.977.53-1.376.071-.3-.042-.453-.343-.453H1.203v-1.61zm4.562-.547h1.813v4.516h1.921v1.625h-1.921V.03h-1.813zm0 0"/></symbol><symbol overflow="visible" id="e"><path d="M8.11-11.547a6.079 6.079 0 0 1-.188.89c-.086.274-.184.552-.297.829.184.336.473.683.86 1.047.382.355.82.707 1.312 1.047.488.336.992.644 1.515.921.528.282 1.024.508 1.485.672l-.766 1.547a8.126 8.126 0 0 1-1.422-.578 16 16 0 0 1-1.515-.906c-.492-.34-.95-.703-1.375-1.078A6.622 6.622 0 0 1 6.703-8.22a9.42 9.42 0 0 1-1.078 1.25c-.398.387-.805.742-1.219 1.063-.406.312-.82.597-1.234.843-.406.243-.8.45-1.172.625l-.875-1.5c.613-.277 1.203-.609 1.766-.984a9.276 9.276 0 0 0 1.53-1.312A8.469 8.469 0 0 0 5.61-9.86c.34-.59.594-1.254.75-1.985zM5.983-1.922v-2.937h1.813v2.937h5.437v1.625H.547v-1.625zm0 0"/></symbol><symbol overflow="visible" id="f"><path d="M8.063-11.75h1.765v4.203h1.485v-4.203h1.765V.031h-1.765V-5.89H9.828V.031H8.063zm-2.829.719c.551 0 .938.183 1.157.547.226.367.332.851.312 1.453a12.661 12.661 0 0 1-.25 1.953 7.108 7.108 0 0 1-.734 1.937c-.344.637-.832 1.274-1.453 1.907-.618.625-1.426 1.246-2.422 1.859L.89-2.828c.808-.508 1.472-1.008 1.984-1.5.52-.488.93-.969 1.234-1.438.309-.476.524-.941.641-1.39.121-.446.203-.89.234-1.328.02-.352-.02-.586-.109-.704-.086-.113-.258-.171-.516-.171H.906v-1.672zm0 0"/></symbol><symbol overflow="visible" id="g"><path d="M4.86-7.266L3.233-5.578 4.86-3.891l1.61-1.687zm0 4.625L3.233-.953 4.86.75 6.47-.953zM2.64-4.969L.985-3.297l1.657 1.688L4.25-3.297zm4.422 0L5.407-3.297l1.657 1.688 1.609-1.688zm0 0"/></symbol><symbol overflow="visible" id="i"><path d="M5.781-5.453c0-.32-.066-.625-.187-.906a2.434 2.434 0 0 0-.532-.75 2.758 2.758 0 0 0-.812-.5 2.794 2.794 0 0 0-1.016-.188c-.375 0-.722.067-1.03.188-.306.125-.571.293-.798.5a2.45 2.45 0 0 0-.515.75 2.215 2.215 0 0 0-.188.906c0 .336.063.648.188.937.12.282.296.528.515.735.227.219.492.394.797.515a2.9 2.9 0 0 0 1.031.172c.364 0 .704-.054 1.016-.172.309-.12.582-.296.813-.515a2.2 2.2 0 0 0 .53-.735c.122-.289.188-.601.188-.937zM8.72-2.391v-5.734h-.781v5.734zm0 3.922V-1.75h-6.75v.672h5.968v2.61zM4.953-5.453c0 .46-.152.851-.453 1.172-.293.312-.715.468-1.266.468-.543 0-.964-.156-1.265-.468-.293-.32-.438-.711-.438-1.172 0-.445.145-.828.438-1.14.3-.321.722-.485 1.265-.485.551 0 .973.164 1.266.484.3.313.453.696.453 1.14zm0 0"/></symbol><symbol overflow="visible" id="j"><path d="M8.594-2.188v-5.937h-.781v1.484H5.405v-.78H1v4.202h4.406v-.953h2.407v1.984zm.125 2.016c0-.55-.305-1.008-.906-1.375-.594-.363-1.45-.547-2.563-.547-1.125 0-1.988.184-2.578.547-.594.367-.89.824-.89 1.375 0 .55.296 1.004.89 1.36.59.351 1.453.53 2.578.53 1.113 0 1.969-.179 2.563-.53.601-.356.906-.81.906-1.36zm-.906-4.656H5.405v-1.14h2.407zm-3.188.922H1.781V-6.75h2.844zM7.891-.172c0 .383-.254.68-.75.89-.493.216-1.121.329-1.891.329-.781 0-1.418-.113-1.906-.328-.492-.219-.735-.52-.735-.89 0-.395.243-.696.735-.907.488-.215 1.125-.328 1.906-.328.77 0 1.398.113 1.89.328.497.21.75.512.75.906zm0 0"/></symbol><symbol overflow="visible" id="k"><path d="M6.406-5.125c0-.32-.07-.625-.203-.906-.125-.29-.3-.54-.516-.75a2.286 2.286 0 0 0-.828-.516 2.794 2.794 0 0 0-1.015-.187c-.387 0-.739.066-1.047.187-.313.117-.586.29-.813.516-.23.21-.41.46-.53.75a2.215 2.215 0 0 0-.188.906c0 .324.062.633.187.922.121.281.3.535.531.75.227.219.5.394.813.515.308.126.66.188 1.047.188.363 0 .703-.063 1.015-.188.32-.12.598-.296.829-.515.214-.215.39-.469.515-.75a2.19 2.19 0 0 0 .203-.922zm2.407 6.656v-9.656H8.03v9.656zM7.655-.75v-.703c-.21.043-.465.082-.765.11-.305.023-.633.038-.985.046-.355.024-.722.043-1.093.063-.368.011-.723.015-1.063.015l-3.063.016v.687L3.72-.53c.308 0 .66-.004 1.047-.016.382-.02.765-.039 1.14-.062.364-.02.703-.04 1.016-.063.32-.027.566-.055.734-.078zM5.594-5.125c0 .46-.153.855-.453 1.188-.305.324-.739.484-1.297.484-.574 0-1.012-.16-1.313-.485a1.69 1.69 0 0 1-.453-1.187c0-.445.149-.836.453-1.172.301-.332.739-.5 1.313-.5.558 0 .992.168 1.297.5.3.336.453.727.453 1.172zm0 0"/></symbol><symbol overflow="visible" id="l"><path d="M6.828-7.406v-.672H2.86v.672zM8.641-6v-.672H1.062V-6zM8-4.016c0-.207-.082-.398-.234-.578a1.93 1.93 0 0 0-.657-.453 4.558 4.558 0 0 0-1-.297 7.188 7.188 0 0 0-1.28-.11c-.481 0-.915.04-1.298.11a4.762 4.762 0 0 0-1 .297 1.856 1.856 0 0 0-.64.453.87.87 0 0 0 0 1.156c.152.18.367.333.64.454.278.125.614.226 1 .296.383.075.817.11 1.297.11.465 0 .895-.035 1.281-.11a4.17 4.17 0 0 0 1-.296c.278-.121.5-.274.657-.454A.868.868 0 0 0 8-4.016zm1.5 2.844v-.687H.219v.687h4.234v2.703h.797v-2.703zM7.078-4.016c0 .125-.066.243-.187.344a1.366 1.366 0 0 1-.485.235c-.21.062-.449.117-.718.156a8.021 8.021 0 0 1-1.75 0 4.326 4.326 0 0 1-.704-.156 1.454 1.454 0 0 1-.5-.235.447.447 0 0 1-.171-.344c0-.12.054-.234.171-.328.121-.09.29-.172.5-.234a5.346 5.346 0 0 1 1.594-.219c.3 0 .586.024.86.063.269.043.507.097.718.156.207.062.367.144.485.234.12.094.187.207.187.328zm0 0"/></symbol><symbol overflow="visible" id="m"><path d="M3.844-8.188c-.387 0-.73.055-1.031.157a2.482 2.482 0 0 0-.782.39c-.21.157-.37.348-.484.563a1.33 1.33 0 0 0-.172.656c0 .242.055.473.172.688.113.21.273.394.484.546.215.168.477.301.781.391.301.086.645.125 1.032.125.37 0 .71-.039 1.015-.125.301-.09.555-.223.766-.39a1.66 1.66 0 0 0 .5-.547c.113-.215.172-.446.172-.688 0-.226-.059-.445-.172-.656a1.747 1.747 0 0 0-.484-.563 2.401 2.401 0 0 0-.782-.39 3.202 3.202 0 0 0-1.015-.156zM8.75-.577v-7.547h-.781v5.61h-2.5v.656h2.5v1.28zM7.594-3.563v-.671c-.117.023-.305.05-.563.078-.261.031-.554.066-.875.093-.336.032-.68.06-1.031.079-.344.023-.668.03-.969.03l-3.61.017v.671H2.97v1.813h.781v-1.828c.383 0 .766-.004 1.14-.016.383-.02.743-.047 1.079-.078.332-.027.64-.063.922-.094.277-.027.515-.062.703-.094zM9 1.314V.64H3v-1.688h-.781v2.36zM3.844-7.531c.558 0 .984.12 1.265.36.278.241.422.491.422.75 0 .25-.144.495-.422.734-.273.23-.695.343-1.265.343-.563 0-.989-.113-1.266-.343-.281-.239-.422-.485-.422-.735 0-.258.133-.508.406-.75.278-.238.708-.36 1.282-.36zm0 0"/></symbol><symbol overflow="visible" id="n"><path d="M6.344-1.063a3.641 3.641 0 0 1-.766-.53 4.873 4.873 0 0 1-.828-.938 3.92 3.92 0 0 1-.672-1.36 5.494 5.494 0 0 1-.234-1.562v-.89h2.281v-.688H.765v.687H3v.89c0 .524-.098 1.056-.281 1.595a5.465 5.465 0 0 1-1.594 2.453 6.955 6.955 0 0 1-.938.703l.625.562c.247-.164.524-.382.829-.656.3-.277.601-.625.906-1.031a5.937 5.937 0 0 0 .875-1.719c.039.18.133.434.281.766.145.324.352.652.625.984.29.375.567.676.828.89.27.212.492.372.672.485zm3.468-2.421v-.704H8.297v-3.937h-.781v9.656h.78v-5.015zm0 0"/></symbol><symbol overflow="visible" id="o"><path d="M7.219 1.094v-9h-.75v3.64H5.297v.704h1.172v4.656zm1.843.437v-9.656h-.765v9.656zm-5.734-8.39H1.016v.687h1.53c-.023.281-.073.668-.155 1.156a7.086 7.086 0 0 1-.454 1.563 12.176 12.176 0 0 1-.75 1.484C.926-1.55.668-1.195.422-.906l.64.265c.247-.3.504-.671.766-1.109.258-.434.524-.984.797-1.64.102-.247.195-.524.281-.829.082-.308.156-.625.219-.937.05-.32.094-.63.125-.922.04-.29.066-.55.078-.781zm2.219 0H3.594v.687H4.75c0 .344-.05.8-.14 1.36a9.089 9.089 0 0 1-.47 1.703c-.124.304-.261.597-.406.875a20.4 20.4 0 0 1-.437.796 12.458 12.458 0 0 1-.828 1.141l.672.281c.207-.27.472-.66.796-1.171.32-.508.63-1.13.922-1.86.121-.332.235-.691.329-1.078a14.547 14.547 0 0 0 .328-2.078c.02-.29.03-.508.03-.656zm0 0"/></symbol><symbol overflow="visible" id="p"><path d="M9.5.234v-.687H5.234v-2.36H8.36V-3.5H2.297v-2.984H8.25v-.672H1.516v4.343h2.921v2.36H.22v.687zm0 0"/></symbol><symbol overflow="visible" id="q"><path d="M9.688-4.844v-.687H8.296v-2.594h-.781v5.5h.78v-2.219zm-4.11-2.578H1.031v.672h3.594c-.012.137-.043.3-.094.484-.054.18-.136.38-.25.594a5.17 5.17 0 0 1-.437.656c-.18.23-.403.457-.672.672-.512.418-1.008.727-1.485.922-.468.188-.886.336-1.25.438l.454.578a9.894 9.894 0 0 0 1.421-.547c.52-.238 1.063-.613 1.626-1.125a4.8 4.8 0 0 0 1.14-1.516c.277-.59.445-1.203.5-1.828zm2.734 8.844v-3.484h-6.28v3.484zM7.516.75H2.828v-2.14h4.688zm0 0"/></symbol><symbol overflow="visible" id="r"><path d="M6.563-.984a6.084 6.084 0 0 1-.97-.688 4.85 4.85 0 0 1-.952-1.094 4.71 4.71 0 0 1-.704-1.515 6.912 6.912 0 0 1-.187-1.594v-1.688h-.813v1.688c0 .531-.07 1.074-.203 1.625a5.349 5.349 0 0 1-.609 1.5 7.529 7.529 0 0 1-.984 1.172 6.177 6.177 0 0 1-1.063.844l.625.546c.246-.152.52-.367.813-.64.3-.27.57-.567.812-.89.3-.395.535-.766.703-1.11.164-.34.274-.617.328-.828.059.21.172.488.329.828.164.336.394.68.687 1.031.27.344.555.633.86.86.308.23.57.414.78.546zM8.25-8.125h-.797v9.656h.797V-3.5h1.5v-.703h-1.5zm0 0"/></symbol><symbol overflow="visible" id="s"><path d="M8.344-2.578v-.672H2.297v-3.063h5.969v-.671h-6.75v4.406zM9.5.062v-.687H.219v.688zm0 0"/></symbol><symbol overflow="visible" id="t"><path d="M8.547-2.797v-5.328h-.781v5.328zm-1.485-.531V-4c-.167.031-.363.066-.578.094-.218.023-.457.043-.703.062-.25.024-.508.043-.765.063a8.209 8.209 0 0 1-.735.031l-2.531.016v-1.204h3.89v-2.687H.97v.672h3.89v1.36H.97v2.546l3.094-.047c.269 0 .546-.008.828-.031.277-.02.554-.04.828-.063.258-.019.504-.039.734-.062.227-.027.43-.055.61-.078zm1.47 4.75v-3.64H7.75v1.062H2.86V-2.22h-.782v3.64zM7.75.766H2.86V-.5h4.89zm0 0"/></symbol><symbol overflow="visible" id="u"><path d="M7.031-1.25v-.688c-.187.043-.41.086-.656.125-.25.043-.52.086-.797.125-.281.032-.57.06-.86.079-.28.023-.542.039-.78.046l-1.97.032v-5.672h-.78v6.375H3.03c.309-.008.602-.024.875-.047.278 0 .57-.016.875-.047.301-.027.586-.062.86-.094.277-.039.539-.082.78-.125.24-.039.442-.078.61-.109zM8.5 1.531v-9.656h-.797v9.656zm0 0"/></symbol><symbol overflow="visible" id="v"><path d="M6.5-1.031v-.672c-.117.023-.277.05-.484.078a10.3 10.3 0 0 1-.672.078 17.2 17.2 0 0 1-.797.078c-.274.012-.524.024-.75.032l-2.063.015v-4.844h3.75v-.671H.954v6.203c.007 0 .097.007.265.015.164 0 .375-.004.625-.015h.828c.3-.008.598-.02.89-.032.301 0 .602-.007.907-.03.3-.02.586-.048.86-.079a8.71 8.71 0 0 0 .687-.078c.207-.027.367-.055.484-.078zM9.469-3.5v-.703h-1.5v-3.922h-.782v9.656h.782V-3.5zm0 0"/></symbol><symbol overflow="visible" id="w"><path d="M1.766 1.188V0H.594v1.188zm0 0"/></symbol><symbol overflow="visible" id="x"><path d="M2.734-7.203c-.793 0-1.379.246-1.75.734a2.741 2.741 0 0 0-.562 1.64h.86c.019-.37.128-.722.327-1.046.196-.32.567-.484 1.11-.484.445 0 .781.132 1 .39.226.25.344.602.344 1.047 0 .336-.098.633-.282.89-.18.25-.402.481-.672.688l-1.203.89c-.68.5-1.133 1.009-1.36 1.517-.218.5-.327 1-.327 1.5h4.828V-.25H1.313c.082-.309.238-.598.468-.86.239-.257.453-.456.64-.593l1.188-.86c.309-.214.633-.515.97-.89.331-.383.5-.875.5-1.469 0-.613-.196-1.144-.579-1.594-.387-.457-.977-.687-1.766-.687zm0 0"/></symbol><symbol overflow="visible" id="y"><path d="M3.016-7.094c-.868 0-1.524.367-1.97 1.094C.61-5.281.392-4.34.392-3.187c0 1.156.218 2.105.656 2.843C1.492.383 2.148.75 3.016.75 3.867.75 4.52.383 4.969-.344c.457-.738.687-1.687.687-2.844 0-1.152-.23-2.093-.687-2.812-.45-.727-1.102-1.094-1.953-1.094zm0 6.969c-.524 0-.918-.29-1.188-.875-.273-.59-.406-1.32-.406-2.188 0-.87.133-1.597.406-2.171.27-.582.664-.875 1.188-.875.527 0 .925.293 1.187.875.258.574.39 1.3.39 2.171 0 .868-.132 1.598-.39 2.188-.262.586-.66.875-1.187.875zm0 0"/></symbol><symbol overflow="visible" id="z"><path d="M8.219-1.078v-6.688H7.203v1H4.656v.844h2.547v.828H4.656v.844h2.547v3.172zm.187 2.344V.375H2.875v-1.906h-1v2.797zm-2.14-4.032v-.859c-.344.074-.809.145-1.391.203-.586.063-1.18.106-1.781.125l-1.188.016v-4.094H.891v4.969l2.203-.016c.664-.008 1.289-.05 1.875-.125.582-.07 1.015-.144 1.297-.219zm0 0"/></symbol><symbol overflow="visible" id="A"><path d="M2.813.625v-7.61H2.14c-.024.212-.086.41-.188.594-.094.18-.21.32-.344.422-.18.125-.37.223-.578.282-.21.062-.43.101-.656.109v.75h1.547V.625zm0 0"/></symbol><symbol overflow="visible" id="B"><path d="M4.313-3.438c.308-.207.55-.46.718-.765.164-.309.25-.61.25-.89 0-.571-.242-1.067-.718-1.485a2.533 2.533 0 0 0-1.704-.625c-.68 0-1.257.21-1.734.625-.469.418-.703.914-.703 1.484 0 .282.082.582.25.89.164.306.41.567.734.782a2.763 2.763 0 0 0-.922.875c-.21.344-.312.7-.312 1.063C.172-.867.43-.324.953.14 1.48.605 2.117.844 2.86.844c.715 0 1.344-.239 1.875-.703.54-.465.813-1.008.813-1.625 0-.364-.113-.72-.328-1.063a3.036 3.036 0 0 0-.907-.89zM2.859-3.89c-.511 0-.882-.117-1.109-.359a1.188 1.188 0 0 1-.344-.86c0-.34.114-.632.344-.874.227-.246.598-.375 1.11-.375.464 0 .828.129 1.078.375.246.242.374.535.374.875 0 .336-.128.62-.375.859-.25.242-.613.36-1.078.36zm0 3.907c-.543 0-.964-.145-1.265-.438a1.443 1.443 0 0 1-.453-1.062c0-.426.148-.774.453-1.047.3-.278.722-.422 1.265-.422.508 0 .922.144 1.235.422.308.273.468.62.468 1.047 0 .406-.16.761-.468 1.062-.313.293-.727.438-1.235.438zm0 0"/></symbol><symbol overflow="visible" id="C"><path d="M3.094-4.344c-.399-.008-.742.043-1.031.157-.282.117-.551.292-.797.53-.012-.214 0-.445.03-.687a3.15 3.15 0 0 1 .204-.765c.102-.278.258-.555.469-.829.215-.269.554-.406 1.015-.406.414 0 .75.149 1 .438.246.293.395.57.438.828h.875c-.074-.527-.324-1.016-.75-1.453a2.09 2.09 0 0 0-1.563-.657c-.617 0-1.12.176-1.515.516-.387.336-.684.8-.89 1.39-.2.555-.31 1.247-.329 2.079-.012.824.066 1.488.234 1.984C.66-.664.941-.184 1.328.22c.383.402.914.61 1.594.61.676 0 1.25-.255 1.719-.75.464-.49.703-1.095.703-1.813 0-.696-.211-1.297-.625-1.797a2.152 2.152 0 0 0-1.625-.813zM2.875.016c-.438 0-.793-.164-1.063-.5-.261-.332-.39-.75-.39-1.25 0-.496.129-.91.39-1.235.27-.32.625-.484 1.063-.484.445 0 .805.164 1.078.484.27.324.406.739.406 1.235 0 .5-.136.918-.406 1.25-.273.336-.633.5-1.078.5zm0 0"/></symbol><symbol overflow="visible" id="D"><path d="M2.64-7.188c-.687 0-1.261.254-1.718.75C.46-5.944.234-5.348.234-4.64c0 .7.207 1.305.625 1.813.414.512.961.793 1.641.844.371.023.71-.055 1.016-.235.3-.176.566-.383.796-.625 0 .219-.007.477-.015.766a2.818 2.818 0 0 1-.188.875 2.884 2.884 0 0 1-.484.828c-.2.242-.512.36-.938.36-.437 0-.792-.145-1.062-.438-.262-.29-.41-.57-.438-.844H.281c.051.531.301 1.02.75 1.453.446.446.985.672 1.61.672.601 0 1.097-.168 1.484-.5.383-.332.68-.797.89-1.39.196-.551.301-1.258.313-2.125.008-.864-.074-1.547-.25-2.047a3.297 3.297 0 0 0-.875-1.391c-.387-.371-.91-.563-1.562-.563zm.047 4.297c-.437 0-.8-.16-1.078-.484-.273-.332-.406-.754-.406-1.266 0-.507.133-.921.406-1.234.278-.32.641-.484 1.079-.484.433 0 .789.164 1.062.484.27.324.406.738.406 1.234 0 .512-.136.934-.406 1.266a1.325 1.325 0 0 1-1.063.484zm0 0"/></symbol><symbol overflow="visible" id="E"><path d="M4.797-6.89H.03v.859h3.735c-.188.273-.461.722-.813 1.343-.355.618-.68 1.247-.969 1.891a9.926 9.926 0 0 0-.703 1.969C1.145-.211 1.066.27 1.047.625h1.062c0-.43.094-.984.282-1.672.183-.695.441-1.39.765-2.078.301-.676.602-1.258.906-1.75.301-.496.547-.863.735-1.094zm0 0"/></symbol><symbol overflow="visible" id="F"><path d="M1.219-5.844V.453h.718v-6.297zm3.375 3.782L6.14.453h.921l-2-3.265 1.844-3.032h-.922l-1.39 2.266-1.36-2.266h-.921l1.843 3.016L2.172.453h.922zm0 0"/></symbol><symbol overflow="visible" id="G"><path d="M.75.047v1.016h1.031V.046zm0 0"/></symbol><symbol overflow="visible" id="I"><path d="M7.984-4.125v-.64h-1.14v-1.86h-.75v4.516h.75v-2.016zM.875-6.265v.64h2.89a3 3 0 0 1-.343.984 3.417 3.417 0 0 1-.61.782 3.978 3.978 0 0 1-1.078.78c-.418.212-.863.384-1.328.517.09.085.192.183.297.296.102.106.18.196.235.266.539-.176 1.039-.41 1.5-.703.464-.29.867-.633 1.203-1.031.277-.332.504-.707.671-1.125.176-.426.286-.895.329-1.407zM6.859 1.28v-2.984H1.72V1.28zM6.125.656H2.469v-1.734h3.656zm0 0"/></symbol><symbol overflow="visible" id="J"><path d="M6-6.625v8h.766v-4.234h1.187v-.672H6.766v-3.094zM3.125-4.687v-1.594h-.797v1.468c0 .438-.05.856-.14 1.25-.094.399-.243.77-.438 1.11-.2.355-.445.68-.734.969a5.975 5.975 0 0 1-1 .796c.101.075.218.16.343.25.133.094.239.18.313.25a3.79 3.79 0 0 0 .625-.515c.215-.207.426-.438.625-.688.176-.226.336-.468.484-.718.145-.258.254-.508.328-.75.09.273.22.535.375.78.153.25.332.481.532.688.175.2.359.387.546.563.196.168.395.316.594.437.07-.07.16-.156.266-.25a2.83 2.83 0 0 1 .328-.28 5.247 5.247 0 0 1-1-.735c-.293-.27-.54-.57-.734-.907a3.43 3.43 0 0 1-.391-.968 4.88 4.88 0 0 1-.125-1.156zm0 0"/></symbol><symbol overflow="visible" id="K"><path d="M7.203 1.36v-7.985h-.75v7.984zM1.031-4.376a1.965 1.965 0 0 0 .578 1.406c.196.188.426.336.688.438.258.105.547.156.86.156.3 0 .581-.05.843-.156.258-.102.484-.25.672-.438a1.92 1.92 0 0 0 .437-.625c.114-.246.172-.508.172-.781 0-.27-.058-.523-.172-.766a2.006 2.006 0 0 0-.437-.625A2.182 2.182 0 0 0 4-6.187a2.102 2.102 0 0 0-.844-.172c-.312 0-.601.058-.86.171a2.308 2.308 0 0 0-.687.422 1.961 1.961 0 0 0-.578 1.391zm.735 0c0-.371.117-.691.359-.953.246-.27.594-.406 1.031-.406.426 0 .758.136 1 .406.239.262.36.582.36.953 0 .375-.121.7-.36.969-.242.261-.574.39-1 .39-.437 0-.785-.129-1.031-.39a1.399 1.399 0 0 1-.36-.969zm4.406 3.016a7.804 7.804 0 0 1-.688.093c-.28.032-.586.059-.906.079-.324.023-.637.042-.937.062a8.814 8.814 0 0 1-.688.031 4.92 4.92 0 0 1-.515.016H.609v.656s.086.008.266.016h1.266c.214 0 .367-.004.453-.016.363 0 .722-.008 1.078-.031.351-.02.687-.047 1-.078.308-.028.594-.063.844-.094a9.75 9.75 0 0 0 .656-.094zm0 0"/></symbol><symbol overflow="visible" id="L"><path d="M7.766-3.188v-.624H6.562c.102-.395.188-.82.25-1.282.06-.457.098-.894.11-1.312H1.156v.625h5a9.37 9.37 0 0 1-.14 1.015c-.063.368-.13.684-.188.954H.281v.624zm-.797 4.485v-.61h-4.86V-.25h4.672v-2.11H1.297v.626h4.672v.875H1.297v2.156zm0 0"/></symbol><symbol overflow="visible" id="M"><path d="M3.781-6.922h-.765l-2.829 8.5H.97zm0 0"/></symbol><symbol overflow="visible" id="N"><path d="M5.656-5.984v-.61H2.391v.61zM7.11-4.828v-.61H.938v.61zm-5.687 1.61c0 .179.062.347.187.5.133.148.313.277.532.39.226.105.5.191.812.25C3.273-2.023 3.625-2 4-2c.383 0 .734-.023 1.047-.078.32-.059.594-.145.812-.25.227-.113.407-.242.532-.39a.752.752 0 0 0 .203-.5.715.715 0 0 0-.203-.485 1.567 1.567 0 0 0-.532-.375 3.252 3.252 0 0 0-.812-.234 5.828 5.828 0 0 0-2.094 0 3.461 3.461 0 0 0-.812.234 1.74 1.74 0 0 0-.532.375.734.734 0 0 0-.187.484zM4-2.579c-.219 0-.434-.008-.64-.031a2.637 2.637 0 0 1-.547-.125c-.168-.051-.301-.114-.391-.188a.375.375 0 0 1-.125-.281c0-.113.039-.207.125-.281.09-.082.223-.149.39-.204A4.894 4.894 0 0 1 4-3.844c.227 0 .445.02.656.047.207.031.39.07.547.11.152.054.281.12.375.203.09.074.14.168.14.28 0 .106-.05.2-.14.282a1.244 1.244 0 0 1-.375.188 2.76 2.76 0 0 1-.547.125A5.96 5.96 0 0 1 4-2.58zM7.766-.766v-.64H.28v.64h3.39V1.36h.782V-.766zm0 0"/></symbol><symbol overflow="visible" id="O"><path d="M7.219-.516v-6.109h-.735v4.64H4.563v.594h1.921v.875zM1.203-5.203c0 .187.04.371.125.547.09.18.223.34.39.484.165.125.368.23.61.313.246.074.535.109.86.109.3 0 .57-.035.812-.11.246-.081.457-.187.625-.312.164-.133.29-.289.375-.469.09-.183.14-.375.14-.562 0-.184-.042-.367-.124-.547a1.422 1.422 0 0 0-.375-.469 2.144 2.144 0 0 0-.625-.328 2.65 2.65 0 0 0-.829-.125c-.324 0-.613.043-.859.125a2.048 2.048 0 0 0-.61.328c-.167.137-.3.293-.39.469-.086.18-.125.363-.125.547zm.719 0c0-.207.098-.406.297-.594.207-.195.531-.297.969-.297.425 0 .738.102.937.297.207.188.313.387.313.594a.674.674 0 0 1-.079.297.885.885 0 0 1-.234.281 1.116 1.116 0 0 1-.39.219c-.157.054-.34.078-.547.078a1.7 1.7 0 0 1-.563-.078 1.05 1.05 0 0 1-.39-.219A.793.793 0 0 1 2-4.906a.625.625 0 0 1-.078-.297zm4.25 1.797c-.117.023-.293.05-.531.078a7.87 7.87 0 0 1-.797.062c-.305.032-.614.055-.922.063-.313.012-.598.015-.844.015l-2.531.016v.625h1.86v1.328h.75v-1.343c.214 0 .468-.004.75-.016.277-.008.562-.024.843-.047.277-.02.547-.04.797-.063.246-.027.457-.062.625-.093zm1.219 4.61V.562H2.64V-.829h-.782v2.031zm0 0"/></symbol><symbol overflow="visible" id="P"><path d="M6.031-6.625v8h.75v-4.234h1.203v-.672H6.781v-3.094zM3.25-4.719v-.765h1.781v-.641H.734v.64H2.47v.641c0 .461-.059.895-.172 1.297a4.553 4.553 0 0 1-1.188 2.094 4.585 4.585 0 0 1-1 .75c.133.086.258.176.375.265.121.094.227.18.313.25.207-.144.422-.32.64-.53a6.26 6.26 0 0 0 .61-.673c.176-.238.332-.476.469-.718.144-.246.254-.5.328-.75.101.261.234.52.39.765.164.25.344.489.532.703.175.2.363.383.562.547.195.168.399.317.61.438l.265-.266c.102-.101.203-.191.297-.265a4.821 4.821 0 0 1-1.031-.735 3.98 3.98 0 0 1-.703-.922 3.39 3.39 0 0 1-.391-.984 4.816 4.816 0 0 1-.125-1.14zm0 0"/></symbol><symbol overflow="visible" id="Q"><path d="M4.438-5.656v-.657h-.813v.657c0 .355-.086.695-.25 1.015a3.377 3.377 0 0 1-.64.875 4.663 4.663 0 0 1-.985.72c-.375.21-.77.378-1.172.5.113.116.219.226.313.327.101.094.191.184.265.266.301-.102.598-.238.89-.406.29-.164.563-.348.813-.547a4.4 4.4 0 0 0 .688-.688c.195-.246.36-.508.484-.781.114.273.274.54.485.797.207.25.445.48.718.687.27.22.551.414.844.579.29.156.567.277.828.359.07-.09.157-.188.25-.281.09-.102.192-.204.297-.297a4.6 4.6 0 0 1-1.078-.438 4.765 4.765 0 0 1-.953-.719 3.478 3.478 0 0 1-.719-.921 2.217 2.217 0 0 1-.266-1.047zM7.78.359v-.64H4.406v-2.016h-.765V-.28H.28v.64zm0 0"/></symbol><symbol overflow="visible" id="R"><path d="M7.203 1.375v-8h-.75v2.969h-1V-6.5H4.72V.984h.734v-3.921h1v4.312zM.781-6.063v.641h2.25c-.023.461-.09.899-.203 1.313a5.194 5.194 0 0 1-.453 1.156A6.445 6.445 0 0 1 1.5-1.781a6.913 6.913 0 0 1-1.219.984c.102.063.223.137.36.219.144.086.257.164.343.234a7.75 7.75 0 0 0 1.25-1.14c.364-.426.672-.91.922-1.454.184-.425.332-.894.438-1.406a9.83 9.83 0 0 0 .203-1.718zm0 0"/></symbol><symbol overflow="visible" id="S"><path d="M3.422-7.313a.124.124 0 0 0-.031-.078.119.119 0 0 0-.079-.062.133.133 0 0 0-.078 0 .589.589 0 0 0-.078.047l-1.844.828a.934.934 0 0 0-.218.078c-.086.043-.125.102-.125.172 0 .043.008.082.031.11a.143.143 0 0 0 .094.03c.05 0 .113-.015.187-.046.07-.028.133-.051.188-.063l.687-.312c.051-.02.102-.04.156-.063a.364.364 0 0 1 .172-.047c.07 0 .118.024.141.063.02.043.031.097.031.156v5.078c0 .367-.043.617-.125.75-.074.125-.316.188-.719.188-.25 0-.414.011-.484.03-.074.013-.11.052-.11.11 0 .063.016.106.048.125.027.024.082.032.156.032h3.094c.058 0 .109-.008.14-.032.028-.02.047-.054.047-.11 0-.058-.02-.1-.047-.124a.278.278 0 0 0-.14-.031h-.329c-.375 0-.601-.079-.671-.235-.063-.164-.094-.41-.094-.734zm0 0"/></symbol><symbol overflow="visible" id="T"><path d="M.594.953c.09 0 .258-.058.5-.172C1.34.664 1.5.59 1.562.562c.333-.18.657-.37.97-.578.308-.207.609-.43.89-.671a7.089 7.089 0 0 0 1.36-1.672 3.96 3.96 0 0 0 .562-2.063c0-.371-.067-.75-.188-1.125a2.87 2.87 0 0 0-.547-1.016 2.51 2.51 0 0 0-.828-.656 2.134 2.134 0 0 0-1.031-.265c-.7 0-1.277.261-1.734.78a2.635 2.635 0 0 0-.688 1.798c0 .586.192 1.09.578 1.515.383.43.88.641 1.485.641.195 0 .382-.023.562-.078a1.77 1.77 0 0 0 .5-.235.762.762 0 0 0 .094-.078c.027-.039.047-.078.047-.109a.17.17 0 0 0-.031-.078c-.024-.027-.043-.047-.063-.047-.055 0-.145.055-.266.156-.125.094-.304.14-.53.14-.556 0-.962-.233-1.22-.702A3.072 3.072 0 0 1 1.11-5.22c0-.308.051-.593.157-.843.101-.247.242-.477.421-.688a1.2 1.2 0 0 1 .438-.344c.184-.082.375-.125.563-.125.34 0 .632.114.874.328.239.22.426.465.563.735a5.4 5.4 0 0 1 .313.812c.082.293.125.586.125.875 0 .563-.13 1.106-.375 1.625a8.026 8.026 0 0 1-.875 1.438A7.447 7.447 0 0 1 2.187-.25C1.75.102 1.293.39.829.61a1.935 1.935 0 0 0-.203.078c-.094.05-.14.101-.14.156 0 .027.007.054.03.078a.11.11 0 0 0 .079.031zm0 0"/></symbol><symbol overflow="visible" id="U"><path d="M4.61-8.531a8.282 8.282 0 0 0-1.594.828A7.178 7.178 0 0 0 1.687-6.5a6.863 6.863 0 0 0-.953 1.453A3.928 3.928 0 0 0 .36-3.359c0 .75.223 1.507.672 2.265C1.477-.344 2.13.031 2.984.031c.715 0 1.286-.27 1.704-.812.425-.551.64-1.16.64-1.828a2.92 2.92 0 0 0-.516-1.641c-.343-.508-.847-.766-1.5-.766-.167 0-.34.036-.515.094-.18.055-.34.145-.485.266a.984.984 0 0 0-.187.156c-.063.074-.094.145-.094.203 0 .031.004.067.016.094.02.023.047.031.078.031.059 0 .148-.078.266-.234.12-.164.347-.25.671-.25.208 0 .395.058.563.172a1.5 1.5 0 0 1 .453.421c.152.243.274.508.36.797.09.293.14.586.14.875 0 .282-.043.555-.125.813-.086.262-.21.52-.375.766-.125.18-.273.324-.437.437a1.095 1.095 0 0 1-.594.156c-.7 0-1.195-.375-1.485-1.125-.292-.758-.437-1.406-.437-1.937 0-.614.11-1.192.328-1.735.215-.539.524-1.05.922-1.53.309-.384.703-.75 1.172-1.095.476-.34.953-.597 1.422-.765.039-.02.093-.04.156-.063.07-.027.11-.066.11-.11 0-.038-.012-.07-.032-.093a.122.122 0 0 0-.094-.047.728.728 0 0 0-.265.078c-.117.055-.196.09-.235.11zm0 0"/></symbol></defs><g fill="#33459a"><use xlink:href="#a" x="266.479" y="119.287"/><use xlink:href="#b" x="279.965" y="119.287"/><use xlink:href="#c" x="293.994" y="119.287"/><use xlink:href="#d" x="308.022" y="119.287"/><use xlink:href="#e" x="312.518" y="119.287"/><use xlink:href="#f" x="326.004" y="119.287"/></g><path d="M79.84 150.637h438.68" fill="none" stroke-width=".499395" stroke="#bdbcbc"/><g fill="#231f20"><use xlink:href="#g" x="85.018" y="744.527"/><use xlink:href="#h" x="94.616" y="744.527"/><use xlink:href="#i" x="98.202" y="744.527"/><use xlink:href="#j" x="107.8" y="744.527"/><use xlink:href="#k" x="117.398" y="744.527"/><use xlink:href="#h" x="126.996" y="744.527"/><use xlink:href="#l" x="130.582" y="744.527"/><use xlink:href="#m" x="140.18" y="744.527"/><use xlink:href="#n" x="149.778" y="744.527"/><use xlink:href="#o" x="159.375" y="744.527"/><use xlink:href="#p" x="168.973" y="744.527"/><use xlink:href="#h" x="178.571" y="744.527"/><use xlink:href="#q" x="182.157" y="744.527"/><use xlink:href="#r" x="191.755" y="744.527"/><use xlink:href="#s" x="201.353" y="744.527"/><use xlink:href="#t" x="210.951" y="744.527"/><use xlink:href="#u" x="220.549" y="744.527"/><use xlink:href="#v" x="230.147" y="744.527"/><use xlink:href="#w" x="239.745" y="744.527"/></g><g fill="#fff"><use xlink:href="#x" x="86.862" y="161.319"/><use xlink:href="#y" x="92.037" y="161.319"/><use xlink:href="#x" x="97.977" y="161.319"/><use xlink:href="#y" x="103.151" y="161.319"/><use xlink:href="#z" x="109.091" y="161.319"/></g><path d="M79.84 376.258h438.68" fill="none" stroke-width=".499395" stroke="#bdbcbc"/><g fill="#fff"><use xlink:href="#x" x="87.702" y="386.942"/><use xlink:href="#y" x="92.877" y="386.942"/><use xlink:href="#A" x="98.817" y="386.942"/><use xlink:href="#B" x="102.703" y="386.942"/><use xlink:href="#z" x="108.251" y="386.942"/></g><path d="M79.84 596.809h438.68" fill="none" stroke-width=".499395" stroke="#bdbcbc"/><g fill="#fff"><use xlink:href="#x" x="87.748" y="607.489"/><use xlink:href="#y" x="92.923" y="607.489"/><use xlink:href="#A" x="98.862" y="607.489"/><use xlink:href="#C" x="102.749" y="607.489"/><use xlink:href="#z" x="108.205" y="607.489"/></g><path d="M79.84 262.54h438.68" fill="none" stroke-width=".499395" stroke="#bdbcbc"/><g fill="#fff"><use xlink:href="#x" x="87.748" y="273.22"/><use xlink:href="#y" x="92.923" y="273.22"/><use xlink:href="#A" x="98.862" y="273.22"/><use xlink:href="#D" x="102.749" y="273.22"/><use xlink:href="#z" x="108.205" y="273.22"/></g><path d="M79.84 485.727h438.68" fill="none" stroke-width=".499395" stroke="#bdbcbc"/><g fill="#fff"><use xlink:href="#x" x="88.115" y="496.42"/><use xlink:href="#y" x="93.29" y="496.42"/><use xlink:href="#A" x="99.23" y="496.42"/><use xlink:href="#E" x="103.116" y="496.42"/><use xlink:href="#z" x="107.838" y="496.42"/></g><g fill="#231f20"><use xlink:href="#F" x="74.885" y="47.727"/><use xlink:href="#G" x="82.886" y="47.727"/><use xlink:href="#H" x="85.492" y="47.727"/><use xlink:href="#I" x="88.099" y="47.727"/><use xlink:href="#J" x="96.1" y="47.727"/><use xlink:href="#K" x="104.1" y="47.727"/><use xlink:href="#H" x="112.1" y="47.727"/><use xlink:href="#L" x="114.707" y="47.727"/><use xlink:href="#M" x="122.707" y="47.727"/><use xlink:href="#N" x="126.608" y="47.727"/><use xlink:href="#O" x="134.609" y="47.727"/><use xlink:href="#P" x="142.609" y="47.727"/><use xlink:href="#H" x="150.609" y="47.727"/><use xlink:href="#Q" x="153.216" y="47.727"/><use xlink:href="#R" x="161.216" y="47.727"/></g><g fill="#393536"><use xlink:href="#S" x="42.468" y="48.426"/><use xlink:href="#T" x="48.041" y="48.426"/><use xlink:href="#U" x="53.614" y="48.426"/></g></svg>