<svg xmlns="http://www.w3.org/2000/svg" xmlns:xlink="http://www.w3.org/1999/xlink" width="793.701" height="1058.268" viewBox="0 0 595.276 793.701" version="1.2"><defs><symbol overflow="visible" id="a"><path d="M3.422-7.313a.124.124 0 0 0-.031-.078.119.119 0 0 0-.079-.062.133.133 0 0 0-.078 0 .589.589 0 0 0-.078.047l-1.844.828a.934.934 0 0 0-.218.078c-.086.043-.125.102-.125.172 0 .043.008.082.031.11a.143.143 0 0 0 .094.03c.05 0 .113-.015.187-.046.07-.028.133-.051.188-.063l.687-.312c.051-.02.102-.04.156-.063a.364.364 0 0 1 .172-.047c.07 0 .118.024.141.063.02.043.031.097.031.156v5.078c0 .367-.043.617-.125.75-.074.125-.316.188-.719.188-.25 0-.414.011-.484.03-.074.013-.11.052-.11.11 0 .063.016.106.048.125.027.024.082.032.156.032h3.094c.058 0 .109-.008.14-.032.028-.02.047-.054.047-.11 0-.058-.02-.1-.047-.124a.278.278 0 0 0-.14-.031h-.329c-.375 0-.601-.079-.671-.235-.063-.164-.094-.41-.094-.734zm0 0"/></symbol><symbol overflow="visible" id="b"><path d="M2.875.031c.434 0 .82-.144 1.156-.437.332-.301.594-.64.782-1.016.183-.34.316-.71.39-1.11.082-.402.125-.804.125-1.202 0-.403-.05-.813-.14-1.22a4.843 4.843 0 0 0-.407-1.155A3.031 3.031 0 0 0 4-7.063a1.747 1.747 0 0 0-1.14-.421c-.844 0-1.473.457-1.876 1.359-.406.906-.609 1.707-.609 2.39 0 .712.203 1.52.61 2.422C1.386-.413 2.02.032 2.874.032zm0-.281c-.75 0-1.227-.441-1.422-1.328-.2-.895-.297-1.613-.297-2.156 0-.54.098-1.254.297-2.141.195-.895.672-1.344 1.422-1.344.363 0 .648.137.86.407.206.273.363.566.468.875.113.343.195.71.25 1.093.059.387.094.758.094 1.11 0 .324-.035.675-.094 1.046a9.33 9.33 0 0 1-.203 1.016c-.094.336-.254.66-.469.969-.21.305-.511.453-.906.453zm0 0"/></symbol><symbol overflow="visible" id="c"><path d="M1.14-6.25L2.439-.89l1.25-5.36h.89L2.891.234h-.938L.234-6.25zm4.61 0V.234h-.828V-6.25zm1.563 0V.234h-.829V-6.25zm0 0"/></symbol><symbol overflow="visible" id="d"><path d="M.75.047v1.016h1.031V.046zm0 0"/></symbol><symbol overflow="visible" id="f"><path d="M7.422 1.36v-7.985h-.734v2.938h-.954V-6.5H5V.984h.734v-3.953h.954V1.36zM2.938-4.626v-.813H4.28v-.625H.813v.625h1.359v.688c0 .48-.043.926-.125 1.328a4.915 4.915 0 0 1-.344 1.125 3.87 3.87 0 0 1-.64.938c-.25.28-.551.539-.891.765.05.043.11.086.172.125.07.031.133.067.187.094a17.48 17.48 0 0 0 .328.234c.176-.12.352-.28.532-.468.175-.196.347-.407.515-.625.145-.196.274-.407.39-.625a3.29 3.29 0 0 0 .25-.672c.052.219.13.43.235.625a4.693 4.693 0 0 0 .844 1.078c.164.156.332.289.5.39a1 1 0 0 1 .266-.25l.125-.125.156-.125a3.154 3.154 0 0 1-.797-.656 3.326 3.326 0 0 1-.547-.86 5.18 5.18 0 0 1-.297-.983 7.006 7.006 0 0 1-.094-1.188zm0 0"/></symbol><symbol overflow="visible" id="g"><path d="M6.078-6.625V-.75h.75v-3.266h1.11v-.64h-1.11v-1.969zm-.344 3.234a5.189 5.189 0 0 1-.562.094c-.242.031-.496.067-.766.094a19.67 19.67 0 0 1-.812.078 8.224 8.224 0 0 1-.703.031l-1.313.016v-2.547H4.61v-.64H.844v3.843H2.25c.227-.008.422-.015.578-.015.258-.008.531-.024.813-.047.277-.02.55-.047.812-.079.258-.027.5-.062.719-.093a3.59 3.59 0 0 0 .562-.11zm1.344 4.594v-.64H2.422v-2.016h-.75v2.656zm0 0"/></symbol><symbol overflow="visible" id="h"><path d="M7.203 1.36v-7.985h-.75v7.984zM1.031-4.376a1.965 1.965 0 0 0 .578 1.406c.196.188.426.336.688.438.258.105.547.156.86.156.3 0 .581-.05.843-.156.258-.102.484-.25.672-.438a1.92 1.92 0 0 0 .437-.625c.114-.246.172-.508.172-.781 0-.27-.058-.523-.172-.766a2.006 2.006 0 0 0-.437-.625A2.182 2.182 0 0 0 4-6.187a2.102 2.102 0 0 0-.844-.172c-.312 0-.601.058-.86.171a2.308 2.308 0 0 0-.687.422 1.961 1.961 0 0 0-.578 1.391zm.735 0c0-.371.117-.691.359-.953.246-.27.594-.406 1.031-.406.426 0 .758.136 1 .406.239.262.36.582.36.953 0 .375-.121.7-.36.969-.242.261-.574.39-1 .39-.437 0-.785-.129-1.031-.39a1.399 1.399 0 0 1-.36-.969zm4.406 3.016a7.804 7.804 0 0 1-.688.093c-.28.032-.586.059-.906.079-.324.023-.637.042-.937.062a8.814 8.814 0 0 1-.688.031 4.92 4.92 0 0 1-.515.016H.609v.656s.086.008.266.016h1.266c.214 0 .367-.004.453-.016.363 0 .722-.008 1.078-.031.351-.02.687-.047 1-.078.308-.028.594-.063.844-.094a9.75 9.75 0 0 0 .656-.094zm0 0"/></symbol><symbol overflow="visible" id="i"><path d="M7.438-4.797H6.046v-.875l.047-.844-.735-.109.063.953v.875h-.844v.563h.844c0 .355-.012.726-.031 1.109-.024.375-.07.754-.141 1.125-.074.375-.18.742-.313 1.094a4.201 4.201 0 0 1-.53.953V-.11l-1.548.093v-.562h1.5v-.485h-1.5v-.421h1.407V-3.97H2.859v-.515h1.547v-.485H2.86v-.687c.207-.028.446-.07.72-.125.269-.059.53-.13.78-.203l-.234-.485c-.25.086-.535.16-.844.219A14.474 14.474 0 0 1 1.437-6a5.587 5.587 0 0 1-.75.016l.204.5c.175 0 .382-.004.625-.016.238-.02.484-.047.734-.078v.61H.453v.484H2.25v.515H.875v2.485H2.25v.421H.734v.485H2.25v.61L.469.108l.14.563L4.094.39C4.062.418 4.027.445 4 .469c-.023.027-.05.062-.078.094a.781.781 0 0 1-.11.078 1.062 1.062 0 0 0-.093.093l.453.5c.402-.406.734-.82.984-1.234.246-.426.43-.86.547-1.297.121-.465.203-.941.234-1.422.028-.488.055-.992.079-1.515h.828v2.577c0 .126-.008.302-.016.516 0 .211-.02.426-.047.641-.023.219-.07.418-.14.594-.063.183-.16.3-.282.344-.125.05-.254.078-.375.078-.117 0-.285-.02-.5-.047l.25.687c.153 0 .313-.02.47-.047.163-.03.304-.074.421-.125a.841.841 0 0 0 .469-.406c.113-.2.191-.426.234-.672.04-.238.063-.476.063-.719.007-.246.02-.468.03-.656v-1.656c.009-.55.016-1.11.016-1.672zm-3.75 1.281v.563h-.829v-.563zm0 1.016v.578h-.829V-2.5zM2.266-3.516v.563h-.844v-.563zm0 1.016v.578h-.844V-2.5zm0 0"/></symbol><symbol overflow="visible" id="j"><path d="M.61-3.188h3.5v-.5H2.561v-.656H3.72v-.468H2.563v-.641h1.406v-.469H2.563l.109-.625-.75-.078.062.703H.672v.469h1.312v.64H.844v.47h1.14v.655H.61zm6.796 1.22h.407v-.516h-.407v-1.297H4.328v.5h1.219v.797H3.984v.515h1.563v.735H4.313v.515h1.234v.985c0 .039-.008.082-.016.125a.23.23 0 0 1-.062.078.2.2 0 0 1-.094.062.652.652 0 0 1-.313.047 3.749 3.749 0 0 1-.375-.062c.02.082.047.16.079.234.027.07.05.14.062.203.02.059.035.11.047.14.02.04.035.063.047.063.121.008.258.008.406 0 .152 0 .3-.035.438-.093a.503.503 0 0 0 .25-.282.813.813 0 0 0 .078-.312V-.72h1.312zM3.72-2.642H.859v3.875h.532V-.469h1.78v.563c0 .027-.007.066-.015.11v.14a.462.462 0 0 1-.047.11.2.2 0 0 1-.062.093.743.743 0 0 1-.14.047.424.424 0 0 1-.141 0 .72.72 0 0 1-.188-.031A4.682 4.682 0 0 1 2.36.515l.204.64c.144.008.273.008.39 0a.9.9 0 0 0 .375-.093.503.503 0 0 0 .297-.266.997.997 0 0 0 .094-.422zm3.125-.64v.797h-.75v-.797zm0 1.312v.735h-.75v-.735zM3.172-2.14v1.188h-.61v-1.188zM2-2.14v1.188h-.61v-1.188zm5-1.953c.05-.07.098-.14.14-.203.04-.07.079-.156.11-.25.04-.082.082-.18.125-.297.05-.113.113-.25.188-.406L7-5.484a4.03 4.03 0 0 0-.11.328c-.03.093-.066.191-.093.281a14.02 14.02 0 0 1-.125.297 1.894 1.894 0 0 1-.156.25zm.266-2.312c-.2.086-.434.152-.704.203a7.666 7.666 0 0 1-.812.125c-.281.023-.57.039-.86.047-.28 0-.542-.004-.78-.016l.14.5c.57 0 1.16-.02 1.766-.062a6.152 6.152 0 0 0 1.64-.313zM6.328-4.36l-.125-.235c-.031-.082-.07-.172-.11-.265a5.174 5.174 0 0 0-.109-.282 7.438 7.438 0 0 1-.125-.312l-.5.25c.04.105.079.207.11.297.027.093.062.183.093.265.028.094.067.192.11.282.039.086.086.168.14.25zm-1.11 0a.94.94 0 0 1-.14-.204 1.458 1.458 0 0 1-.11-.265 3.37 3.37 0 0 1-.124-.266l-.125-.265-.469.265c.027.094.066.192.11.282.038.093.081.19.124.28a1.263 1.263 0 0 0 .266.484zm0 0"/></symbol><symbol overflow="visible" id="k"><path d="M3.344-3.938h1.469l.03.547H3.517v.422h1.328v.406H3.609v1.657h.985c-.157.23-.324.433-.5.61a2.659 2.659 0 0 1-.64.452l.343.438c.238-.149.437-.305.594-.469.152-.164.304-.36.453-.578V1.03h.547V-.5c.12.156.27.32.437.484.164.164.317.301.453.407l.36-.36a2.665 2.665 0 0 1-.516-.422 6.03 6.03 0 0 1-.453-.515h1v-1.656H5.39v-.407h1.375v-.422h-1.36l.047-.484-.469-.047v-2.437H2.781v7.53h.563zm1.5 2.594h-.719v-.781h.719zM4.75-1.5a1.243 1.243 0 0 1-.063-.125c-.011-.05-.023-.098-.03-.14a1.243 1.243 0 0 1-.063-.126.684.684 0 0 1-.016-.156l-.328.11c.02.105.047.199.078.28.027.087.067.169.11.25zm1.406.156h-.765v-.781h.765zm-.484-.703a1.827 1.827 0 0 1-.094.281c-.031.086-.066.176-.094.266l.313.094c.02-.04.039-.082.062-.125a.686.686 0 0 0 .047-.125c.008-.04.02-.082.032-.125.019-.04.039-.094.062-.157zM4.453-4.39h-1.11v-.562h1.11zm0-.968h-1.11v-.579h1.11zm3.063-1.032H5.375v2.407h1.578V.328c0 .133-.02.219-.047.25-.031.04-.097.063-.187.063l-.61-.032.188.547h.125c.07 0 .148-.011.234-.031.09 0 .18-.008.266-.016a.72.72 0 0 0 .187-.046c.184-.075.301-.192.344-.344.04-.149.063-.32.063-.516zm-.563 1.97h-1v-.532h1zm0-.938h-1v-.61h1zM2.641-2.406a5.067 5.067 0 0 1-.204-.344c-.054-.09-.105-.18-.156-.266a1.165 1.165 0 0 1-.14-.234c-.043-.082-.098-.176-.157-.281l-.14.156v-.75h.718v-.516H1.86v-1.015l.079-.797-.72-.078.063.922v.968H.328v.516h.922a8.327 8.327 0 0 1-.375 1.469A6.87 6.87 0 0 1 .281-1.36L.766-1c.039-.102.082-.195.125-.281.05-.082.093-.164.125-.25.039-.082.078-.164.109-.25.04-.082.082-.172.125-.266V1.22h.594v-3.86c.027.063.054.121.078.172.027.043.062.09.094.14.02.056.046.106.078.157l.11.172zm0 0"/></symbol><symbol overflow="visible" id="l"><path d="M6.844-2.688l-5.219-3.14V.453zm-.61 0L1.922-.108v-5.157zm0 0"/></symbol><symbol overflow="visible" id="m"><path d="M4.531.375v-.5h-3.39c.05-.27.156-.535.312-.797a2.19 2.19 0 0 1 .656-.656l1.032-.719c.144-.113.289-.226.437-.344.152-.12.297-.257.422-.406a2.04 2.04 0 0 0 .438-1.187c.007-.258-.028-.5-.11-.72a1.707 1.707 0 0 0-.375-.593 2.076 2.076 0 0 0-.64-.422 2.239 2.239 0 0 0-.844-.156 2.08 2.08 0 0 0-.875.172c-.25.117-.457.27-.61.453a1.905 1.905 0 0 0-.375.625C.535-4.645.5-4.41.5-4.172h.563c0-.183.023-.363.078-.531.05-.164.14-.313.265-.438.102-.12.242-.222.422-.296.176-.083.379-.125.61-.125.433 0 .773.128 1.015.375.246.25.367.57.36.953a1.29 1.29 0 0 1-.297.812c-.18.211-.395.402-.641.578l-1.047.735a3.66 3.66 0 0 0-.734.656 2.25 2.25 0 0 0-.39.625c-.095.21-.161.414-.188.61C.484-.02.469.175.469.374zm0 0"/></symbol><symbol overflow="visible" id="n"><path d="M2.469-6.078c-.367 0-.692.086-.969.25a1.91 1.91 0 0 0-.703.687 3.249 3.249 0 0 0-.422 1.047 5.92 5.92 0 0 0-.14 1.328c0 .493.046.942.14 1.344.09.406.234.758.422 1.047.183.305.422.531.703.688.277.164.602.25.969.25.351 0 .672-.086.953-.25.277-.157.52-.383.719-.688.183-.29.328-.64.421-1.047.102-.402.157-.851.157-1.344a5.48 5.48 0 0 0-.157-1.328 3.435 3.435 0 0 0-.421-1.047c-.2-.3-.442-.53-.72-.687a1.866 1.866 0 0 0-.952-.25zm0 6.094a1.17 1.17 0 0 1-.688-.204 1.812 1.812 0 0 1-.484-.593A2.78 2.78 0 0 1 1-1.656a6.152 6.152 0 0 1-.094-1.11c0-.382.031-.742.094-1.078.059-.34.16-.64.297-.89.133-.246.297-.442.484-.579.196-.144.426-.218.688-.218.246 0 .472.074.672.218.195.137.359.333.484.579.133.25.234.55.297.89a5.478 5.478 0 0 1 0 2.188 2.992 2.992 0 0 1-.297.875c-.125.25-.29.449-.484.594-.2.136-.426.203-.672.203zm0 0"/></symbol><symbol overflow="visible" id="o"><path d="M1.484.969V0H.5v.969zm0 0"/></symbol><symbol overflow="visible" id="p"><path d="M3.469-2.953c.195-.082.394-.242.594-.485.195-.238.296-.562.296-.968 0-.227-.054-.442-.156-.64a1.812 1.812 0 0 0-.406-.563 2.305 2.305 0 0 0-.61-.375c-.23-.09-.476-.141-.734-.141a2.12 2.12 0 0 0-.812.156 1.893 1.893 0 0 0-.61.375 1.8 1.8 0 0 0-.39.578c-.094.22-.137.45-.125.688h.578c0-.152.023-.305.078-.453.05-.145.129-.282.234-.407.102-.113.239-.207.407-.28.175-.071.378-.11.609-.11.394 0 .71.117.953.344.246.23.367.511.36.843 0 .293-.083.54-.235.735a1.319 1.319 0 0 1-.594.406.8.8 0 0 1-.234.063 4.91 4.91 0 0 1-.219.03H2.031v.532c.121 0 .258.008.406.016.145 0 .301.02.47.046.1.024.21.07.327.141.121.063.243.149.36.25.09.117.172.246.234.39.07.137.11.29.11.454 0 .398-.145.726-.422.984-.274.262-.63.39-1.063.39a1.77 1.77 0 0 1-.687-.124 1.465 1.465 0 0 1-.5-.328 1.758 1.758 0 0 1-.297-.469 1.57 1.57 0 0 1-.094-.531H.312c-.011.281.036.55.141.797.102.242.254.449.453.625.184.183.41.332.672.437.258.102.547.156.86.156.32 0 .613-.05.874-.14.258-.094.485-.23.672-.406a1.66 1.66 0 0 0 .438-.61c.101-.226.16-.488.172-.781 0-.352-.114-.664-.328-.938a2.809 2.809 0 0 0-.797-.687zm0 0"/></symbol><symbol overflow="visible" id="r"><path d="M1.688 1.406v-8.203H1.14v8.203zm0 0"/></symbol><symbol overflow="visible" id="s"><path d="M4.64-.75a3.015 3.015 0 0 1-.546-.438c-.2-.195-.403-.46-.61-.796a3.315 3.315 0 0 1-.5-1.172 5.777 5.777 0 0 1-.156-1.297v-.656h1.453v-.547H.671v.547h1.47v.656A5.2 5.2 0 0 1 2-3.266c-.094.387-.23.758-.406 1.11A5.176 5.176 0 0 1 .187-.5l.547.406c.184-.152.383-.351.594-.594.207-.238.395-.484.563-.734.152-.27.285-.516.39-.734.102-.215.172-.399.203-.547.028.148.102.351.22.61.112.25.257.488.437.702.183.262.367.489.546.672.184.18.352.317.5.406zM5.89.89v-7.343h-.64v2.766H3.89v.578h1.36v4zm1.626.36v-7.89h-.657v7.89zm0 0"/></symbol><symbol overflow="visible" id="t"><path d="M3 .438v-6.391h-.453a1.092 1.092 0 0 1-.14.469c-.087.148-.184.27-.298.359-.168.117-.332.2-.484.25-.156.043-.32.063-.484.063v.484h1.265V.438zm0 0"/></symbol><symbol overflow="visible" id="u"><path d="M4.5-5.797v-.562H1.984v.562zm1.11 1.25v-.562H.905v.562zM7.218 1.25v-7.89h-.657v7.89zM6.187-.25v-.563a6.179 6.179 0 0 1-.593.079c-.219.023-.446.039-.672.046-.23.024-.461.04-.688.047-.218.012-.425.016-.609.016v-.938c.488-.039.883-.18 1.188-.421.3-.239.453-.516.453-.829a.89.89 0 0 0-.157-.484c-.093-.164-.23-.3-.406-.406A2.368 2.368 0 0 0 4.063-4a2.796 2.796 0 0 0-.782-.11c-.293 0-.558.04-.797.11-.242.063-.449.16-.625.281-.168.117-.3.254-.39.406a.936.936 0 0 0-.14.485c0 .336.144.621.437.86.3.241.695.382 1.187.421v.938h-2.5v.562H3.25c.559-.02 1.11-.047 1.64-.078.528-.04.962-.082 1.298-.125zM4.625-2.813c0 .22-.129.399-.375.532-.25.136-.574.203-.969.203-.386 0-.707-.067-.953-.203-.25-.145-.375-.328-.375-.547 0-.207.125-.383.375-.531.246-.145.567-.22.953-.22.395 0 .719.075.969.22.246.148.375.332.375.546zm0 0"/></symbol><symbol overflow="visible" id="v"><path d="M4.734-3.125c0-.434-.05-.832-.14-1.188a3.056 3.056 0 0 0-.407-.921 1.837 1.837 0 0 0-.625-.579 1.667 1.667 0 0 0-.843-.218c-.313 0-.598.074-.844.218a1.95 1.95 0 0 0-.625.579c-.18.261-.316.57-.406.921-.094.356-.14.754-.14 1.188 0 .438.046.84.14 1.203.09.356.226.66.406.906.176.25.383.45.625.594.246.137.531.203.844.203.308 0 .594-.066.844-.203.246-.144.457-.344.624-.594.176-.257.313-.566.407-.921.09-.352.14-.75.14-1.188zM7.22 1.25v-7.89h-.657v7.89zM4.094-3.14c0 .324-.035.628-.094.906a2.778 2.778 0 0 1-.266.718A1.522 1.522 0 0 1 3.313-1a.988.988 0 0 1-.579.172A.995.995 0 0 1 2.141-1a1.447 1.447 0 0 1-.422-.5 2.54 2.54 0 0 1-.266-.734 4.138 4.138 0 0 1-.094-.907c0-.3.032-.586.094-.859.059-.277.149-.531.266-.75.113-.207.254-.367.422-.484a.978.978 0 0 1 .593-.188c.215 0 .41.067.579.188.164.117.304.277.421.484.114.219.204.473.266.75.059.273.094.559.094.86zm0 0"/></symbol><symbol overflow="visible" id="w"><path d="M5.484-.813c-.242-.12-.511-.312-.812-.562a3.882 3.882 0 0 1-.797-.89A3.9 3.9 0 0 1 3.297-3.5a5.556 5.556 0 0 1-.156-1.313v-1.375h-.688v1.375c0 .438-.058.887-.172 1.344-.117.45-.289.856-.515 1.219-.23.344-.504.664-.813.953a4.563 4.563 0 0 1-.89.688l.53.453a4.25 4.25 0 0 0 .673-.516c.246-.226.476-.473.687-.734a5.4 5.4 0 0 0 .578-.907c.133-.277.223-.503.266-.671.05.168.144.394.281.671.145.274.336.555.578.844.227.282.469.52.719.703.258.188.473.336.64.438zM6.891-6.64h-.657V1.25h.657v-4.11h1.265v-.578H6.891zm0 0"/></symbol></defs><g fill="#393536"><use xlink:href="#a" x="42.468" y="48.426"/><use xlink:href="#b" x="48.041" y="48.426"/><use xlink:href="#b" x="53.614" y="48.426"/></g><use xlink:href="#c" x="74.885" y="47.92" fill="#231f20"/><g fill="#231f20"><use xlink:href="#d" x="82.975" y="47.763"/><use xlink:href="#e" x="85.582" y="47.763"/><use xlink:href="#f" x="88.189" y="47.763"/><use xlink:href="#g" x="96.189" y="47.763"/><use xlink:href="#h" x="104.19" y="47.763"/><use xlink:href="#e" x="112.19" y="47.763"/><use xlink:href="#i" x="114.797" y="47.763"/><use xlink:href="#j" x="122.797" y="47.763"/><use xlink:href="#k" x="130.797" y="47.763"/></g><use xlink:href="#l" x="376.98" y="693.734" fill="#33459a"/><g fill="#231f20"><use xlink:href="#m" x="384.997" y="693.734"/><use xlink:href="#n" x="389.859" y="693.734"/><use xlink:href="#o" x="394.722" y="693.734"/><use xlink:href="#n" x="396.88" y="693.734"/><use xlink:href="#m" x="401.743" y="693.734"/><use xlink:href="#o" x="406.606" y="693.734"/><use xlink:href="#n" x="408.764" y="693.734"/><use xlink:href="#p" x="413.627" y="693.734"/><use xlink:href="#q" x="418.49" y="693.734"/><use xlink:href="#q" x="421.485" y="693.734"/></g><use xlink:href="#r" x="424.479" y="693.734" fill="#616471"/><g fill="#231f20"><use xlink:href="#q" x="427.237" y="693.734"/><use xlink:href="#q" x="430.232" y="693.734"/></g><g fill="#33459a"><use xlink:href="#s" x="433.227" y="693.734"/><use xlink:href="#t" x="441.243" y="693.734"/><use xlink:href="#n" x="446.106" y="693.734"/><use xlink:href="#u" x="450.969" y="693.734"/><use xlink:href="#q" x="458.985" y="693.734"/><use xlink:href="#v" x="461.98" y="693.734"/><use xlink:href="#w" x="469.997" y="693.734"/><use xlink:href="#u" x="478.013" y="693.734"/></g><use xlink:href="#l" x="376.98" y="345.004" fill="#33459a"/><g fill="#231f20"><use xlink:href="#m" x="384.997" y="345.004"/><use xlink:href="#n" x="389.859" y="345.004"/><use xlink:href="#o" x="394.722" y="345.004"/><use xlink:href="#n" x="396.88" y="345.004"/><use xlink:href="#m" x="401.743" y="345.004"/><use xlink:href="#o" x="406.606" y="345.004"/><use xlink:href="#n" x="408.764" y="345.004"/><use xlink:href="#p" x="413.627" y="345.004"/><use xlink:href="#q" x="418.49" y="345.004"/><use xlink:href="#q" x="421.485" y="345.004"/></g><use xlink:href="#r" x="424.479" y="345.004" fill="#616471"/><g fill="#231f20"><use xlink:href="#q" x="427.237" y="345.004"/><use xlink:href="#q" x="430.232" y="345.004"/></g><g fill="#33459a"><use xlink:href="#s" x="433.227" y="345.004"/><use xlink:href="#t" x="441.243" y="345.004"/><use xlink:href="#n" x="446.106" y="345.004"/><use xlink:href="#u" x="450.969" y="345.004"/><use xlink:href="#q" x="458.985" y="345.004"/><use xlink:href="#v" x="461.98" y="345.004"/><use xlink:href="#w" x="469.997" y="345.004"/><use xlink:href="#u" x="478.013" y="345.004"/></g></svg>