<svg xmlns="http://www.w3.org/2000/svg" xmlns:xlink="http://www.w3.org/1999/xlink" width="793.701" height="1058.268" viewBox="0 0 595.276 793.701" version="1.2"><defs><symbol overflow="visible" id="a"><path d="M5.172-5.844h-.719V.453h.719zM1.859.453h.985l1.375-6.297h-.844L2.359-.5 1.344-5.844H.5zm4.454-6.297h-.72V.453h.72zm1.14 0H6.72V.453h.734zm0 0"/></symbol><symbol overflow="visible" id="b"><path d="M.75.047v1.016h1.031V.046zm0 0"/></symbol><symbol overflow="visible" id="d"><path d="M7.781.375v-.656H4.406v-2.016h2.532v-.625H2.016v-2.64h4.843v-.641H1.281v3.906h2.36V-.28H.28v.656zm0 0"/></symbol><symbol overflow="visible" id="e"><path d="M4.031-3.703c.903 0 1.61-.133 2.11-.406.507-.278.765-.641.765-1.079 0-.433-.258-.796-.765-1.078-.5-.277-1.207-.421-2.11-.421-.906 0-1.617.144-2.125.421-.5.282-.75.637-.75 1.063 0 .45.25.816.75 1.094.508.273 1.219.406 2.125.406zm0-.563c-.617 0-1.117-.082-1.5-.25-.386-.164-.578-.394-.578-.687 0-.29.188-.516.563-.672.382-.164.89-.25 1.515-.25.59 0 1.082.086 1.469.25.395.156.594.387.594.688 0 .28-.196.507-.578.671-.387.168-.883.25-1.485.25zm3.735 1.907V-3H.28v.64h3.344v.97H1.281V1.28h5.5V-1.39H4.406v-.968zM6.03.64H2.016V-.75H6.03zm0 0"/></symbol><symbol overflow="visible" id="f"><path d="M4.453-5.703H6.86v-.64H1.203v.64H3.61a1.592 1.592 0 0 1-.28.781 2.65 2.65 0 0 1-.657.625 4.407 4.407 0 0 1-.938.484c-.355.137-.73.247-1.125.329.09.093.192.195.297.296.102.106.192.196.266.266.3-.07.598-.164.89-.281.301-.121.583-.27.844-.438.239-.144.453-.304.64-.484.196-.184.36-.398.485-.64.145.28.336.535.578.75.246.21.516.382.797.515.246.148.504.27.766.36.258.093.504.167.734.218a10.541 10.541 0 0 1 .516-.562 6.363 6.363 0 0 1-.984-.266 3.935 3.935 0 0 1-.891-.438 2.91 2.91 0 0 1-.75-.64c-.2-.258-.317-.55-.344-.875zm3.313 4.187v-.625H.28v.625h3.39V1.36h.782v-2.875zm0 0"/></symbol><symbol overflow="visible" id="g"><path d="M7.125-.75v-5.875h-.75V-.75zM3.219-5.438v-1h-.781v1c0 .344-.06.668-.172.97a2.83 2.83 0 0 1-.422.78c-.211.274-.457.512-.735.72-.28.198-.586.37-.906.515.102.086.219.18.344.281.121.094.223.176.297.235.207-.102.41-.227.61-.375.206-.145.398-.305.577-.485.176-.164.332-.351.469-.562.145-.207.254-.422.328-.641.102.219.238.43.406.625.164.188.344.363.532.516.175.148.359.277.546.39.184.117.368.215.547.297a6.792 6.792 0 0 1 .516-.578 3.319 3.319 0 0 1-1.516-1.031 2.687 2.687 0 0 1-.468-.75 2.312 2.312 0 0 1-.172-.907zm4.125 6.641v-.64h-4.75v-1.938h-.766v2.578zm0 0"/></symbol><symbol overflow="visible" id="h"><path d="M6.797-3.344v-3.203h-.75v.984H2v-.984h-.734v3.203zm-.75-.64H2v-.97h4.047zm1.719 2.109v-.64H.28v.64h3.485v1.719h.75v-1.719zm-.704 3.078v-.64H2.016V-1.11H1.28v2.312zm0 0"/></symbol><symbol overflow="visible" id="i"><path d="M6.875-3.984v-.594H2.031v-1.234h4.75v-.594h-5.5v2.422zm.89 1.312v-.61H.282v.61zm-.812 3.969V.703H2.11v-.75h4.672v-1.89h-5.5v.593h4.672v.719H1.281v1.922zm0 0"/></symbol><symbol overflow="visible" id="j"><path d="M7.11-.75v-5.875h-.75V-.75zM.61-4.406c0 .281.05.554.156.812.101.25.242.477.421.672.196.18.422.324.672.438.258.117.551.171.875.171.301 0 .582-.054.844-.171.258-.114.485-.258.672-.438.184-.195.332-.422.438-.672a2.21 2.21 0 0 0 .156-.812c0-.29-.055-.563-.157-.813a2.292 2.292 0 0 0-.437-.687 2.083 2.083 0 0 0-.672-.438 2.102 2.102 0 0 0-.844-.172c-.324 0-.617.059-.875.172-.25.106-.476.254-.671.438-.18.199-.32.43-.422.687-.106.25-.157.524-.157.813zm.765 0c0-.403.113-.75.344-1.032.238-.289.578-.437 1.015-.437.426 0 .758.148 1 .438.239.28.36.628.36 1.03 0 .4-.121.739-.36 1.016-.242.282-.574.422-1 .422-.437 0-.777-.14-1.015-.422-.23-.277-.344-.617-.344-1.015zm5.969 5.61V.562H2.562v-1.985h-.75v2.625zm0 0"/></symbol><symbol overflow="visible" id="k"><path d="M6.781-4.016v-2.39H1.266v2.39zm-.734-.593H2v-1.204h4.047zm1.719 1.875v-.61H.28v.61h3.344v.796H1.281v.594h4.672v.719H1.281v1.922h5.672V.703H2.11v-.75h4.672v-1.89H4.406v-.797zm0 0"/></symbol><symbol overflow="visible" id="l"><path d="M4.438-5.656v-.657h-.813v.657c0 .355-.086.695-.25 1.015a3.377 3.377 0 0 1-.64.875 4.663 4.663 0 0 1-.985.72c-.375.21-.77.378-1.172.5.113.116.219.226.313.327.101.094.191.184.265.266.301-.102.598-.238.89-.406.29-.164.563-.348.813-.547a4.4 4.4 0 0 0 .688-.688c.195-.246.36-.508.484-.781.114.273.274.54.485.797.207.25.445.48.718.687.27.22.551.414.844.579.29.156.567.277.828.359.07-.09.157-.188.25-.281.09-.102.192-.204.297-.297a4.6 4.6 0 0 1-1.078-.438 4.765 4.765 0 0 1-.953-.719 3.478 3.478 0 0 1-.719-.921 2.217 2.217 0 0 1-.266-1.047zM7.78.359v-.64H4.406v-2.016h-.765V-.28H.28v.64zm0 0"/></symbol><symbol overflow="visible" id="m"><path d="M7.203 1.375v-8h-.75v2.969h-1V-6.5H4.72V.984h.734v-3.921h1v4.312zM.781-6.063v.641h2.25c-.023.461-.09.899-.203 1.313a5.194 5.194 0 0 1-.453 1.156A6.445 6.445 0 0 1 1.5-1.781a6.913 6.913 0 0 1-1.219.984c.102.063.223.137.36.219.144.086.257.164.343.234a7.75 7.75 0 0 0 1.25-1.14c.364-.426.672-.91.922-1.454.184-.425.332-.894.438-1.406a9.83 9.83 0 0 0 .203-1.718zm0 0"/></symbol><symbol overflow="visible" id="n"><path d="M3.422-7.313a.124.124 0 0 0-.031-.078.119.119 0 0 0-.079-.062.133.133 0 0 0-.078 0 .589.589 0 0 0-.078.047l-1.844.828a.934.934 0 0 0-.218.078c-.086.043-.125.102-.125.172 0 .043.008.082.031.11a.143.143 0 0 0 .094.03c.05 0 .113-.015.187-.046.07-.028.133-.051.188-.063l.687-.312c.051-.02.102-.04.156-.063a.364.364 0 0 1 .172-.047c.07 0 .118.024.141.063.02.043.031.097.031.156v5.078c0 .367-.043.617-.125.75-.074.125-.316.188-.719.188-.25 0-.414.011-.484.03-.074.013-.11.052-.11.11 0 .063.016.106.048.125.027.024.082.032.156.032h3.094c.058 0 .109-.008.14-.032.028-.02.047-.054.047-.11 0-.058-.02-.1-.047-.124a.278.278 0 0 0-.14-.031h-.329c-.375 0-.601-.079-.671-.235-.063-.164-.094-.41-.094-.734zm0 0"/></symbol><symbol overflow="visible" id="o"><path d="M4.297-2.078c0-.227.016-.348.047-.36.027-.007.203-.015.515-.015h.407c.039 0 .066-.008.078-.031.02-.02.031-.051.031-.094 0-.04-.008-.086-.016-.14 0-.06-.023-.095-.062-.095h-.875c-.074-.007-.117-.046-.125-.109V-5.266v-.25c0-.132-.04-.191-.11-.171l-.609.265c-.043 0-.062.024-.062.063a.427.427 0 0 1 .015.093v2.063c0 .219-.011.348-.031.375-.023.023-.137.031-.344.031h-2.11c-.023 0-.081.008-.171.016-.094.011-.14-.016-.14-.078 0-.028.03-.082.093-.157.059-.082.098-.129.11-.14l3.75-4.922c.007-.02.019-.04.03-.063.02-.02.032-.039.032-.062 0-.04-.02-.067-.047-.078a.427.427 0 0 0-.094-.016c-.074 0-.129.012-.156.031a.572.572 0 0 0-.11.11L.5-3.046c-.043.062-.09.12-.14.171a.378.378 0 0 0-.079.203c0 .149.02.219.063.219H3.14c.207 0 .32.012.343.031.028.024.047.137.047.344v.969c0 .136-.008.273-.015.406 0 .125-.086.21-.25.25a.566.566 0 0 1-.22.047h-.218a.429.429 0 0 0-.156.031c-.055.023-.078.066-.078.125 0 .055.008.09.031.11.027.011.07.015.125.015.207 0 .406-.008.594-.031a5.075 5.075 0 0 1 1.14 0 4 4 0 0 0 .532.031.235.235 0 0 0 .109-.031c.04-.02.063-.055.063-.11 0-.07-.036-.113-.094-.125a1.222 1.222 0 0 0-.172-.015c-.293 0-.473-.047-.531-.14-.063-.09-.094-.282-.094-.563zm0 0"/></symbol><symbol overflow="visible" id="p"><path d="M10.094-9.75l.078 4.438c0 .53.031.976.094 1.328.058.343.187.511.375.5.183 0 .375-.22.562-.657.184-.433.281-1.046.281-1.828l-.046-3.781c0-.184.007-.348.03-.484.028-.145.048-.274.048-.391a.564.564 0 0 0-.047-.281c-.031-.082-.117-.156-.25-.219-.106-.027-.246-.066-.422-.11a9.998 9.998 0 0 0-.516-.109c-.18-.027-.34-.054-.484-.078a3.77 3.77 0 0 1-.297-.047c-.469-.027-.727.043-.766.219-.043.168.082.316.375.438.352.148.602.285.75.406.153.125.235.347.235.656zm-2.406.094a2.92 2.92 0 0 1-.266-.016A6.722 6.722 0 0 0 7-9.687c-.156 0-.309.007-.453.015a.806.806 0 0 0-.344.063c-.187.093-.535.16-1.031.187-.5.024-1.024.031-1.563.031h-.484a9.214 9.214 0 0 1-.406-.03 6.59 6.59 0 0 1-.344-.032 1.17 1.17 0 0 1-.219-.031c-.406-.028-.648.011-.719.125-.062.117.063.273.375.468.32.211.583.352.782.422.207.074.379.106.515.094a.844.844 0 0 0 .329-.078c.09-.05.19-.094.296-.125h.047c.04-.008.098-.02.172-.031.059-.02.129-.036.203-.047.07-.008.149-.02.235-.031.09 0 .207-.004.343-.016.133-.008.282-.024.438-.047.164-.008.332-.02.5-.031.176-.02.36-.04.547-.063-.324.7-.715 1.364-1.172 1.985-.45.625-.914 1.195-1.39 1.703-.481.511-.958.957-1.423 1.328-.46.367-.863.637-1.203.812-.105.063-.156.13-.156.188 0 .062.035.117.11.156.09.031.21.047.359.047.152-.008.347-.063.578-.156a8.019 8.019 0 0 0 1.344-.781c.496-.34 1-.75 1.5-1.22.496-.476.988-1.007 1.468-1.593.477-.59.907-1.223 1.282-1.89.05-.114.125-.239.218-.376.102-.144.188-.28.25-.406A.733.733 0 0 0 8-9.422c-.023-.101-.129-.18-.313-.234zm2.125 7.344L9.78.905H6.11l-.062-3.203zM11.5 1.265c0-.118-.074-.207-.219-.266a1.274 1.274 0 0 0-.344-.094l.329-2.984a.62.62 0 0 1 .109-.281c.07-.09.125-.18.156-.266a.327.327 0 0 0 .016-.25c-.024-.09-.117-.176-.281-.25a1.771 1.771 0 0 0-.844-.11c-.313.032-.57.075-.766.126-.062.03-.273.054-.625.062A83.572 83.572 0 0 1 6.766-3h-.563c-.062 0-.152-.008-.266-.031-.105-.02-.23-.047-.375-.078a6.831 6.831 0 0 1-.5-.047 4.159 4.159 0 0 0-.593-.016c-.387.024-.649.121-.782.297-.124.18-.101.29.079.328.113.031.218.067.312.094l.25.078a.452.452 0 0 1 .266.36l.218 3.484c.008.289.07.508.188.656a.547.547 0 0 0 .422.219c.09 0 .21-.067.36-.188a.872.872 0 0 0 .28-.484h.688c.352 0 .758-.008 1.219-.016.445 0 .922-.008 1.422-.015h1.421c.196 0 .36-.036.485-.094.133-.063.203-.16.203-.281zm0 0"/></symbol><symbol overflow="visible" id="r"><path d="M10.531-5.016H9.094l-.031-4.078c0-.176.007-.336.03-.484.028-.145.052-.274.063-.39a.468.468 0 0 0-.062-.282c-.043-.082-.13-.148-.25-.203a3.12 3.12 0 0 0-.39-.125c-.169-.04-.337-.078-.5-.11-.18-.027-.34-.05-.485-.062a4.005 4.005 0 0 1-.282-.047c-.46-.027-.71.04-.75.203-.03.168.094.317.375.438.34.148.586.285.735.406.152.125.234.348.234.656l.032 5.516c-.305.086-.637.176-1 .265-.356.094-.711.168-1.063.22-.344.073-.684.136-1.016.187a6.441 6.441 0 0 1-.843.094.472.472 0 0 1-.313-.063c-.086-.05-.125-.16-.125-.328v-1.735h2.11a4.35 4.35 0 0 0 .562-.046c.227-.028.406-.094.531-.188.121-.101.192-.21.203-.328.02-.113-.023-.223-.125-.328-.105-.102-.261-.172-.468-.203-.293-.02-.602-.024-.922-.016a1.45 1.45 0 0 0-.797.25.473.473 0 0 1-.234.125 6.315 6.315 0 0 1-.61.047 3.106 3.106 0 0 1-.25-.031v-2.078H4.75c.277 0 .55-.004.813-.016a5.21 5.21 0 0 0 .625-.047c.226-.027.406-.094.53-.187.134-.102.208-.207.22-.313.007-.113-.04-.223-.141-.328-.094-.102-.254-.172-.469-.203a5.763 5.763 0 0 0-.906-.016c-.324.012-.59.098-.797.25-.086.055-.18.098-.281.125-.106.024-.211.031-.313.031-.117 0-.226-.003-.328-.015a2.164 2.164 0 0 1-.234-.031c-.356-.051-.73-.094-1.125-.125a4.735 4.735 0 0 0-.89 0c-.263.043-.442.101-.532.171-.094.063-.133.133-.11.204.008.062.055.129.141.187a.75.75 0 0 0 .266.11c.152.042.285.082.39.109.114.023.207.055.282.094.07.054.125.12.156.203.039.086.062.195.062.328v4.406c0 .469.082.774.25.906.176.137.47.204.875.204.332 0 .696-.036 1.094-.11.402-.07.817-.164 1.234-.281.415-.121.817-.254 1.204-.39.394-.145.742-.286 1.046-.423l.016 2.297v.985c.008.32.035.601.078.843.028.246.078.442.14.579.071.144.165.21.282.203.238 0 .43-.32.578-.954.153-.625.227-1.46.219-2.515l-.031-2.75h1.437l.031 4.11V.89c.008.32.036.601.079.843.027.246.078.446.14.594.07.145.164.211.281.203.239 0 .43-.32.579-.953.152-.637.226-1.476.218-2.516l-.062-8.812c0-.184.008-.348.031-.484.027-.145.05-.274.063-.391a.468.468 0 0 0-.063-.281.563.563 0 0 0-.25-.219c-.094-.027-.226-.066-.39-.11-.168-.038-.336-.078-.5-.109-.18-.027-.34-.054-.485-.078a4.005 4.005 0 0 1-.281-.047c-.461-.027-.711.043-.75.219-.031.168.094.316.375.438.34.148.586.285.734.406.145.125.219.347.219.656zm0 0"/></symbol><symbol overflow="visible" id="s"><path d="M7.14-5.188c0 .43-.152.79-.452 1.079a1.464 1.464 0 0 1-1.047.421 1.468 1.468 0 0 1-1.5-1.5c0-.414.144-.769.437-1.062a1.45 1.45 0 0 1 1.063-.438c.402 0 .754.149 1.046.438.301.293.454.648.454 1.063zM4.907-7.874a.097.097 0 0 0-.047.063.175.175 0 0 0-.015.078c0 .043.015.082.047.109.027.023.062.05.093.078.04.031.067.067.079.094.007.031-.008.082-.047.14-.012.012-.137.04-.375.079-.23.043-.489.136-.766.28-.281.15-.54.368-.766.657-.23.293-.343.684-.343 1.172 0 .375.082.71.25 1 .164.293.39.54.671.734.27.188.579.336.922.438.34.105.688.156 1.032.156.32 0 .656-.05 1-.156.34-.102.656-.25.937-.438.27-.195.492-.441.672-.734.176-.29.266-.625.266-1 0-.488-.118-.875-.344-1.156a2.642 2.642 0 0 0-.735-.657 3.055 3.055 0 0 0-.75-.265c-.218-.05-.328-.082-.328-.094 0-.05.008-.094.032-.125.02-.039.039-.07.062-.094a.255.255 0 0 0 0-.109c0-.04-.035-.094-.094-.156a.221.221 0 0 0-.125-.063 1.94 1.94 0 0 1-.203-.078H7.828c.277.012.535.024.766.031h.578c.144 0 .27-.023.375-.078a.377.377 0 0 0 .187-.234c.028-.082.008-.172-.062-.266-.063-.101-.192-.203-.375-.297a3.216 3.216 0 0 0-.375-.093 2.355 2.355 0 0 0-.531-.063 4.754 4.754 0 0 0-.625.016 2.2 2.2 0 0 0-.579.14 2.283 2.283 0 0 1-.64.141c-.281.023-.574.04-.875.047-.324.023-.637.031-.938.031-.304 0-.543-.004-.718-.015a13.11 13.11 0 0 1-1.844-.11 4.69 4.69 0 0 0-.469 0c-.156.012-.273.043-.344.094-.062.055-.07.129-.015.219.058.093.222.21.484.343.402.22.727.364.969.422.246.055.457.063.625.032.164-.028.316-.079.453-.141a1.86 1.86 0 0 1 .547-.156h.203a3.3 3.3 0 0 1 .281-.016zm1.953-1.61c.227-.007.41-.062.547-.156.133-.09.203-.191.203-.296 0-.102-.082-.204-.234-.297-.148-.09-.387-.149-.719-.172-.261 0-.488-.004-.672-.016a5.378 5.378 0 0 1-.53-.047 13.53 13.53 0 0 1-.485-.062c-.149-.028-.317-.063-.5-.094-.344-.059-.59-.035-.735.078-.136.106-.078.254.172.438.278.199.524.355.735.468.214.118.421.18.609.188.227.023.46.031.703.031.246-.008.55-.031.906-.062zm3.61 7.063c-.43.063-.965.145-1.61.235-.648.085-1.32.16-2.015.218a43.49 43.49 0 0 1-2.016.203 25.94 25.94 0 0 1-1.656.063c-.262 0-.524-.004-.781-.016a6.321 6.321 0 0 1-.72-.062c-.312-.02-.538-.004-.671.047-.137.043-.21.101-.219.171-.011.086.035.18.14.282.114.105.266.207.454.297.465.242.844.394 1.125.453.29.054.535.07.734.047.207-.02.391-.067.547-.141.153-.07.332-.129.531-.172.364-.02.813-.066 1.344-.14.528-.07 1.082-.157 1.657-.25A54.08 54.08 0 0 0 9-1.484c.55-.102 1.04-.196 1.469-.282l.015 1.672v.985c.008.32.032.601.063.843.039.246.094.446.156.594.07.145.164.211.281.203.258 0 .461-.32.61-.953.152-.637.226-1.476.219-2.516L11.75-9.75c0-.184.016-.348.047-.484.027-.145.047-.274.047-.391a.564.564 0 0 0-.047-.281c-.043-.082-.133-.156-.266-.219-.105-.027-.242-.066-.406-.11a9.998 9.998 0 0 0-.516-.109c-.187-.027-.355-.054-.5-.078a2.422 2.422 0 0 1-.28-.047c-.481-.027-.743.043-.782.219-.031.168.098.316.39.438.34.148.594.285.75.406.153.125.235.347.235.656zm0 0"/></symbol><symbol overflow="visible" id="t"><path d="M4.61-4.453c0 .437-.13.793-.376 1.062-.242.262-.554.391-.937.391-.399 0-.723-.129-.969-.39-.242-.27-.36-.626-.36-1.063 0-.402.118-.742.36-1.016a1.24 1.24 0 0 1 .969-.422c.383 0 .695.145.937.422.246.274.375.614.375 1.016zm1.109.047c0-.446-.102-.805-.297-1.078a2.092 2.092 0 0 0-.625-.61 2.339 2.339 0 0 0-.64-.281c-.188-.05-.282-.082-.282-.094v-.125a.466.466 0 0 1 .031-.078.19.19 0 0 0 0-.094c0-.027-.02-.066-.047-.109a1.007 1.007 0 0 0-.296-.172 1.204 1.204 0 0 0-.813-.016c-.105.032-.156.102-.156.204 0 .03.015.058.047.078.027.023.062.043.093.062.02.032.036.07.047.11.008.03-.004.074-.031.125 0 .023-.102.058-.297.109a2.18 2.18 0 0 0-.656.281 2.06 2.06 0 0 0-.656.625c-.188.274-.282.63-.282 1.063 0 .324.067.62.204.89.132.274.316.508.546.704.227.187.489.34.782.453.289.105.593.156.906.156.3 0 .598-.05.89-.156.29-.114.551-.266.782-.454.215-.195.394-.43.531-.703.145-.27.219-.566.219-.89zm2.89.86l.016 3.468v.797c.008.258.031.484.063.672.019.195.054.351.109.468.05.114.125.172.219.172.195 0 .351-.258.468-.765.121-.512.18-1.184.172-2.016L9.61-7.797c0-.144.008-.273.032-.39.02-.114.035-.22.046-.313a.546.546 0 0 0-.046-.219c-.032-.07-.102-.129-.204-.172a2.665 2.665 0 0 0-.312-.093c-.137-.028-.273-.063-.406-.094a9.805 9.805 0 0 0-.375-.047 2.338 2.338 0 0 1-.235-.047c-.367-.02-.566.04-.593.172-.032.137.066.254.296.344.27.125.461.242.579.344.12.093.187.269.187.515l.031 3.61H7.547l-.031-3.094c0-.133.007-.258.03-.375.02-.121.036-.227.048-.313a.343.343 0 0 0-.047-.218c-.031-.07-.102-.13-.203-.172a2.665 2.665 0 0 0-.313-.094 4.04 4.04 0 0 0-.406-.094 9.805 9.805 0 0 0-.375-.047 2.338 2.338 0 0 1-.234-.047c-.368-.02-.567.04-.594.172-.031.137.066.254.297.344.27.117.46.227.578.328.121.106.187.277.187.516l.047 6.797v.78c.008.259.032.49.063.688.02.196.054.352.11.47.05.112.124.171.218.171.195 0 .351-.258.469-.766.12-.511.18-1.18.171-2.015l-.015-2.39zm0 0"/></symbol><symbol overflow="visible" id="u"><path d="M4.86 1.594l4.343-.032c.184 0 .336-.039.453-.109a.383.383 0 0 0 .203-.25c.008-.086-.035-.176-.125-.266-.086-.093-.23-.164-.437-.203a3.498 3.498 0 0 0-.703-.03c-.274.019-.465.062-.578.124-.125.07-.262.117-.407.14C7.461.989 7.32 1 7.188 1l-2.032.016a.458.458 0 0 1-.265-.094.272.272 0 0 1-.11-.235L4.766-.28h3c.363-.008.632-.016.812-.016.207 0 .352-.023.438-.078.09-.05.14-.14.14-.266 0-.039-.02-.078-.047-.109a.39.39 0 0 0-.093-.063.44.44 0 0 0-.141-.03.533.533 0 0 1-.11-.032l.266-1.156a.448.448 0 0 1 .078-.188c.04-.07.07-.14.094-.203a.257.257 0 0 0-.031-.156c-.024-.059-.09-.117-.203-.172a1.816 1.816 0 0 0-.328-.063 2.758 2.758 0 0 0-.36 0c-.117.012-.23.028-.344.047a.662.662 0 0 0-.234.063c-.062.043-.242.074-.531.094-.293.011-.606.015-.938.015h-.937c-.281-.008-.434-.015-.453-.015h-.375a9.359 9.359 0 0 1-.344-.032c-.105-.007-.215-.02-.328-.03-.106-.009-.215-.02-.328-.032-.305-.027-.473.008-.5.11-.031.105.008.19.125.25.289.21.531.35.719.421.195.063.359.094.484.094a.788.788 0 0 0 .297-.047c.07-.027.14-.063.203-.094h.031c.027-.008.078-.02.14-.031a.621.621 0 0 1 .157-.047c.07-.008.14-.02.203-.031H7.281c.246-.008.43-.016.547-.016L7.781-.859a9.234 9.234 0 0 1-.672.015c-.304 0-.62.008-.953.016H5.25c-.273 0-.43-.004-.469-.016a7.52 7.52 0 0 0-.75-.094 3.984 3.984 0 0 0-.734-.015c-.336.055-.512.137-.531.25-.012.105.132.195.437.265a.678.678 0 0 1 .328.157c.07.062.11.152.11.265l.015.782c0 .183.031.336.094.453a.551.551 0 0 0 .266.25c.12.058.254.097.39.11.145.007.297.015.453.015zm2.062-6.157a.3.3 0 0 0 .187-.14.379.379 0 0 0 .032-.188.222.222 0 0 0-.079-.125.165.165 0 0 0-.14-.046c-.262.074-.55.152-.86.234-.312.074-.632.148-.953.219-.324.062-.632.117-.921.156-.293.043-.551.062-.766.062-.117.012-.207-.007-.266-.062-.062-.05-.094-.145-.094-.281l-.03-2.125c0-.102.003-.204.015-.297.02-.102.023-.196.015-.282a.494.494 0 0 0-.124-.171.806.806 0 0 0-.329-.125 5.333 5.333 0 0 0-.687-.047c-.242-.008-.426-.016-.547-.016-.273.031-.45.074-.531.125-.086.055-.117.117-.094.188.008.054.055.105.14.156.083.055.157.09.22.11.12.03.234.058.327.077.09.012.176.04.25.079.06.03.11.085.141.156.04.062.063.152.063.265l.03 2.235c0 .375.071.62.22.734.152.117.406.168.75.156.332-.007.68-.046 1.046-.109.364-.07.723-.16 1.079-.266.351-.09.691-.195 1.015-.312.32-.121.617-.242.89-.36zm1.14-2.203c-.187.024-.417.04-.687.047-.262 0-.523.008-.781.016-.274.012-.528.016-.766.016a3.684 3.684 0 0 1-.531-.047c-.23-.02-.395-.008-.484.03-.086.032-.133.071-.141.11 0 .063.023.13.078.188a.545.545 0 0 0 .203.14c.29.157.524.27.703.329.184.054.336.078.453.078.102 0 .18-.016.235-.047a.513.513 0 0 1 .172-.078l.187-.063c.121-.039.258-.07.406-.094h.11a2.25 2.25 0 0 1 .25-.015c.113-.008.222-.016.328-.016.113-.008.203-.016.266-.016l.046 1.641c0 .43.02.79.063 1.078.05.293.148.434.297.422.152 0 .304-.187.453-.562.152-.383.234-.891.234-1.516L9.11-7.797c0-.144.008-.273.032-.39.027-.114.046-.22.046-.313a.44.44 0 0 0-.03-.219c-.032-.07-.106-.129-.22-.172-.085-.027-.195-.062-.328-.093-.136-.028-.273-.063-.406-.094-.156-.02-.293-.035-.406-.047a2.338 2.338 0 0 1-.234-.047c-.375-.02-.583.04-.61.172-.031.137.067.254.297.344.277.125.484.242.61.344.12.093.187.269.187.515zm0 0"/></symbol><symbol overflow="visible" id="v"><path d="M8.281-2.75a9.83 9.83 0 0 1-1.078.328c-.45.117-.91.223-1.375.313-.48.093-.941.175-1.375.234-.43.063-.758.094-.984.094a.702.702 0 0 1-.281-.047c-.075-.027-.11-.098-.11-.203v-2.031h2.797c.246 0 .398-.032.453-.094a.327.327 0 0 0 .094-.235c0-.101-.059-.164-.172-.187l-.156-.031.281-1.97c0-.07.023-.144.078-.218.05-.082.094-.16.125-.234a.414.414 0 0 0 0-.219c-.023-.059-.098-.113-.219-.156a2.07 2.07 0 0 0-.671-.047 1.495 1.495 0 0 0-.579.125c-.043.031-.148.058-.312.078-.156.012-.332.023-.516.031H3.156a3.53 3.53 0 0 1-.36-.015c-.105-.008-.214-.02-.327-.032a3.711 3.711 0 0 0-.313-.015 2.08 2.08 0 0 1-.312-.047c-.336-.02-.528.027-.578.14-.043.118.015.211.171.282.278.168.508.285.688.343.176.063.328.094.453.094a.73.73 0 0 0 .281-.047c.07-.039.141-.07.204-.093h.046c.028 0 .07-.004.125-.016.051-.008.11-.016.172-.016.07-.007.14-.02.203-.03.059-.009.164-.016.313-.016.152-.008.312-.02.469-.032h.781l-.016 2.063c-.093 0-.254.008-.468.015H3.421c-.18-.007-.285-.015-.313-.015a3.904 3.904 0 0 1-.343-.047 6.552 6.552 0 0 0-.375-.047 7.624 7.624 0 0 0-.407-.047 2.517 2.517 0 0 0-.343 0c-.305.031-.493.117-.563.25-.074.137.016.227.266.266l.25.062c.082.024.148.051.203.078a.267.267 0 0 1 .125.157.674.674 0 0 1 .047.265v1.953c0 .375.07.621.218.735.145.105.38.156.704.156.3 0 .703-.047 1.203-.14.496-.09 1.015-.212 1.547-.36a24.34 24.34 0 0 0 1.5-.438c.488-.164.867-.312 1.14-.437v2.172c0 .27.004.535.016.797.008.258.023.484.047.672.027.195.07.351.125.468.058.114.14.172.234.172.207 0 .367-.258.485-.765.12-.512.18-1.184.171-2.016l-.046-7.047c0-.144.007-.273.03-.39.02-.114.032-.22.032-.313a.44.44 0 0 0-.031-.219c-.031-.07-.102-.129-.203-.172-.086-.027-.196-.062-.329-.093-.136-.028-.277-.063-.421-.094-.149-.02-.278-.035-.391-.047a2.338 2.338 0 0 1-.234-.047c-.375-.02-.582.04-.61.172-.031.137.067.254.297.344.277.125.477.242.594.344.121.093.187.269.187.515zm0 0"/></symbol><symbol overflow="visible" id="w"><path d="M8.203-1c-.094.031-.27.059-.515.078-.243.012-.508.016-.797.016H2.312a4.8 4.8 0 0 1-.53-.047c-.157 0-.305-.004-.438-.016a6.525 6.525 0 0 0-.453-.047 1.667 1.667 0 0 0-.438.032C.336-.961.258-.926.22-.875c-.043.055-.04.117.015.188.059.062.188.136.375.218.446.211.801.34 1.063.39.258.056.473.071.64.048.165-.02.305-.055.422-.11.121-.058.282-.101.47-.125h.187c.113-.007.28-.023.5-.046l.843-.032c.332-.02.727-.035 1.188-.047H7.984c.278 0 .536.008.766.016.227 0 .441.008.64.016.32.023.618.015.891-.016.278-.04.43-.164.453-.375 0-.133-.09-.238-.265-.313a2.39 2.39 0 0 0-.64-.14 4.109 4.109 0 0 0-.845.031c-.293.031-.554.09-.78.172zM5.391-5.578c.238.137.52.308.843.516.332.21.664.417 1 .625.332.21.645.41.938.593.289.18.508.309.656.39.184.126.352.196.5.204a.532.532 0 0 0 .36-.078c.082-.059.117-.149.109-.266 0-.12-.067-.265-.188-.422a5.872 5.872 0 0 0-.468-.468c-.18-.176-.34-.301-.485-.375a.945.945 0 0 0-.234-.047h-.156a.879.879 0 0 1-.172-.016A1.288 1.288 0 0 1 7.828-5a1.958 1.958 0 0 1-.36-.156 15.094 15.094 0 0 1-.546-.282 15.09 15.09 0 0 0-.61-.328 5.452 5.452 0 0 1-.515-.328c.082-.113.176-.25.281-.406a4.56 4.56 0 0 0 .266-.422c.039-.058.078-.125.11-.187.038-.07.07-.141.093-.204A.287.287 0 0 0 6.5-7.5a.741.741 0 0 0-.203-.234 7.623 7.623 0 0 0-.313-.157 4.792 4.792 0 0 0-.375-.187 3.305 3.305 0 0 0-.359-.125c-.117-.04-.195-.067-.234-.078a1.507 1.507 0 0 0-.485.015c-.093.024-.148.059-.156.11-.023.043-.012.09.031.14.051.055.117.102.203.141.207.137.348.258.422.36.07.093.086.19.047.28-.18.407-.418.817-.719 1.22-.304.398-.632.769-.984 1.109-.355.343-.723.652-1.094.922a6.615 6.615 0 0 1-1.047.609c-.086.043-.136.098-.156.156a.14.14 0 0 0 .047.14c.05.044.133.071.25.079.113.012.266-.02.453-.094.55-.183 1.133-.488 1.75-.906a11.128 11.128 0 0 0 1.813-1.578zm0 0"/></symbol><symbol overflow="visible" id="x"><path d="M8.203-.86c-.094.044-.27.07-.515.079-.243.011-.508.023-.797.031h-.829c-.261-.008-.457-.016-.578-.016H2.312c-.199-.007-.378-.02-.53-.03-.157-.009-.305-.02-.438-.032A5.425 5.425 0 0 1 .89-.875a1.667 1.667 0 0 0-.438.031.543.543 0 0 0-.234.11c-.043.062-.04.132.015.203.059.062.188.133.375.203.446.21.801.336 1.063.39.258.051.473.067.64.047.165-.023.305-.058.422-.109.121-.059.282-.102.47-.125h.187c.113-.008.28-.023.5-.047.226-.008.507-.02.843-.031.332-.02.727-.031 1.188-.031H8.75c.227 0 .441.007.64.015.32.024.618.016.891-.015.278-.028.43-.149.453-.36 0-.133-.09-.238-.265-.312a2.002 2.002 0 0 0-.64-.156 4.109 4.109 0 0 0-.845.03c-.293.032-.554.09-.78.173zM3.516-4.75h4.578a.837.837 0 0 0 .453-.11c.121-.07.191-.16.203-.265.02-.09-.02-.188-.11-.281-.085-.102-.23-.18-.437-.235a1.72 1.72 0 0 0-.344-.03c-.136-.009-.27-.016-.39-.016a2.5 2.5 0 0 0-.375.062.945.945 0 0 0-.25.078.964.964 0 0 1-.438.156 5.8 5.8 0 0 1-.39.016l-2.5.016v-1.594l4.812-.016a.963.963 0 0 0 .453-.093c.121-.07.192-.16.203-.266.02-.09-.02-.188-.109-.281-.094-.102-.246-.18-.453-.235a1.72 1.72 0 0 0-.344-.031 6.144 6.144 0 0 0-.375-.016 2.5 2.5 0 0 0-.375.063.945.945 0 0 0-.25.078c-.137.074-.289.121-.453.14a5.605 5.605 0 0 1-.375.016l-2.719.032a36.91 36.91 0 0 0-.875-.141 3.174 3.174 0 0 0-.719-.031c-.23.023-.386.066-.468.125-.086.054-.125.105-.125.156 0 .055.031.105.093.156a.35.35 0 0 0 .22.078c.257.074.437.149.53.219.102.063.157.191.157.375l.031 3.094c0 .199.031.363.094.484.07.117.164.207.281.266.113.062.238.105.375.125.145.023.297.031.453.031l4.828-.031c.184 0 .332-.035.438-.11a.547.547 0 0 0 .219-.28c.007-.09-.036-.192-.126-.298-.085-.101-.23-.18-.437-.234-.094-.008-.21-.02-.344-.031a3.003 3.003 0 0 0-.375 0 2.5 2.5 0 0 0-.375.062.945.945 0 0 0-.25.078 1.441 1.441 0 0 1-.468.156c-.168.032-.29.047-.36.047l-2.437.032a.397.397 0 0 1-.25-.079c-.075-.058-.11-.148-.11-.265zm0 0"/></symbol><symbol overflow="visible" id="y"><path d="M4.563-.484v-5.157H.874v5.157zM7.015 1.25v-7.89h-.657v7.89zM3.922-1.047h-2.39v-4.031h2.39zm0 0"/></symbol><symbol overflow="visible" id="z"><path d="M4.406-.578v-.547a3.5 3.5 0 0 1-.36.063c-.136.011-.292.023-.468.03-.168.024-.34.04-.515.048-.168.011-.32.015-.454.015l-1.234.016v-1.875h2.203V-5.75H.718v.563h2.22v1.796H.717v3l1.735-.015c.176 0 .36-.004.547-.016.184-.02.375-.035.563-.047.164-.02.32-.035.468-.047.153-.02.282-.039.375-.062zM7.172 1.25v-7.89h-.64v3.124h-1.11v-2.953h-.64v7.36h.64v-3.813h1.11V1.25zm0 0"/></symbol><symbol overflow="visible" id="A"><path d="M5.703.89v-7.359h-.64v3.016H4.016c-.055-.758-.243-1.352-.563-1.781-.312-.434-.707-.657-1.172-.657-.25 0-.488.07-.703.204a1.658 1.658 0 0 0-.547.578 3.21 3.21 0 0 0-.375.906 5.083 5.083 0 0 0-.125 1.187c0 .45.04.852.125 1.204.09.355.219.66.375.906.145.25.328.445.547.578.215.125.453.187.703.187.496 0 .91-.238 1.235-.718.32-.477.492-1.133.515-1.97v-.03h1.032V.89zm1.547.36v-7.89h-.64v7.89zM3.39-3.016c0 .325-.035.63-.093.907a4.186 4.186 0 0 1-.203.718 1.27 1.27 0 0 1-.36.47.682.682 0 0 1-.906 0 1.284 1.284 0 0 1-.344-.47 3.116 3.116 0 0 1-.218-.718 4.719 4.719 0 0 1-.079-.907c0-.32.024-.617.079-.89.05-.278.125-.524.218-.735.09-.195.207-.351.344-.468a.679.679 0 0 1 .469-.188c.152 0 .3.067.437.188a1.3 1.3 0 0 1 .36.484c.082.2.148.441.203.719.058.273.094.57.094.89zm0 0"/></symbol><symbol overflow="visible" id="B"><path d="M4.625-2.703c-.137-.05-.332-.164-.578-.344a3.407 3.407 0 0 1-.672-.703 2.64 2.64 0 0 1-.438-.781 3.353 3.353 0 0 1-.156-1.078v-.797H2.11v.797c0 .406-.07.785-.203 1.125a4.09 4.09 0 0 1-.453.906 3.834 3.834 0 0 1-.687.75c-.125.105-.243.2-.344.281a1.081 1.081 0 0 1-.25.14l.484.438c.121-.07.29-.195.5-.375.215-.176.426-.39.625-.64.184-.239.336-.47.453-.688.121-.226.196-.383.22-.469.007.094.077.246.202.454.133.21.29.41.469.593.195.219.398.41.61.563a2.7 2.7 0 0 0 .484.312zm1.14.89v-4.703h-.64v1.625h-1.39v.579h1.39v2.5zm1.626.563v-5.39H6.75v5.39zM7.516.797C7.379.773 7.16.699 6.859.578a6.664 6.664 0 0 1-.968-.531 2.85 2.85 0 0 1-.797-.735c-.2-.269-.297-.523-.297-.765v-.156H4.03v.156c0 .242-.101.496-.297.766-.199.273-.464.511-.796.718a5.315 5.315 0 0 1-.97.547c-.292.121-.511.195-.655.219l.437.453c.195-.043.41-.121.64-.234.239-.118.505-.262.797-.438.153-.094.305-.207.454-.328.144-.117.27-.23.375-.344.101-.113.191-.21.265-.297.07-.09.117-.164.14-.218.02.054.063.129.126.218.058.086.144.184.25.297.113.114.238.227.375.344.144.121.3.234.469.328.289.184.554.336.796.453.239.114.454.188.641.219zm0 0"/></symbol><symbol overflow="visible" id="C"><path d="M4.266-.766v-.562c-.157.031-.38.07-.657.11-.273.03-.539.046-.796.046l-1.266.016v-3.907h2.078v-.562H.891v5.047c.007 0 .066.008.171.015.114 0 .254-.003.422-.015h.547c.207 0 .41-.008.61-.031.382-.008.71-.032.984-.063.277-.039.492-.07.64-.094zM7.187 1.25v-7.89h-.625v3.124H5.36v-2.953h-.64v7.36h.64v-3.813h1.204V1.25zm0 0"/></symbol><symbol overflow="visible" id="D"><path d="M6.953-4.813c0-.238-.074-.46-.219-.671a1.931 1.931 0 0 0-.562-.547 3.699 3.699 0 0 0-.938-.344 5.119 5.119 0 0 0-1.218-.14c-.461 0-.88.05-1.25.14-.368.086-.676.2-.922.344-.25.156-.446.34-.578.547a1.21 1.21 0 0 0 0 1.343c.132.211.328.387.578.532.258.156.57.277.937.359.364.086.774.125 1.235.125.445 0 .851-.04 1.218-.125.364-.082.676-.203.938-.36.238-.144.426-.32.562-.53a1.15 1.15 0 0 0 .22-.673zm.89 3.282v-.547H.173v.547h3.5V1.25h.656v-2.781zM4.017-5.97c.308 0 .601.035.875.094.27.055.504.129.703.219.207.105.367.23.484.375a.764.764 0 0 1 .172.468.74.74 0 0 1-.188.485 1.354 1.354 0 0 1-.468.344c-.2.093-.442.175-.719.234a4.368 4.368 0 0 1-.86.078c-.324 0-.628-.023-.906-.078a3.528 3.528 0 0 1-.718-.234c-.2-.09-.356-.211-.47-.36a.725.725 0 0 1-.171-.468c0-.176.05-.333.156-.47a1.39 1.39 0 0 1 .485-.374c.195-.09.43-.164.703-.219a4.46 4.46 0 0 1 .922-.094zm0 0"/></symbol><symbol overflow="visible" id="F"><path d="M5.797-.594v-.547a6.11 6.11 0 0 1-.484.063c-.188.023-.395.05-.61.078-.23.012-.465.027-.703.047-.23.012-.445.023-.64.031L1.53-.906v-1.938h3.094v-3H.875v.563h3.11v1.875H.874v3.062L3.25-.375c.215-.008.453-.02.703-.031.246-.02.488-.04.719-.063.226-.02.437-.039.625-.062.195-.02.363-.04.5-.063zM7.03 1.25v-7.89h-.656v7.89zm0 0"/></symbol><symbol overflow="visible" id="G"><path d="M7.234 1.25v-7.89h-.656v2.75H4.672v.562h1.906V1.25zM5.625-.813a4.859 4.859 0 0 1-.797-.562 3.882 3.882 0 0 1-.797-.89A3.9 3.9 0 0 1 3.453-3.5a5.556 5.556 0 0 1-.156-1.313v-1.375H2.64v1.375c0 .438-.059.887-.172 1.344-.117.45-.29.856-.516 1.219-.23.344-.504.664-.812.953a4.88 4.88 0 0 1-.875.688l.515.453a4.25 4.25 0 0 0 .672-.516c.246-.226.473-.473.672-.734a5.4 5.4 0 0 0 .578-.907c.133-.277.223-.503.266-.671.05.168.144.394.281.671.145.274.332.555.563.844.226.282.468.52.718.703.246.188.461.336.64.438zm0 0"/></symbol><symbol overflow="visible" id="H"><path d="M4.203-5.61v-.577h-2.5v.578zm3.031 6.86v-7.89h-.656v7.89zM5.422-.672a3.534 3.534 0 0 1-.594-.36 4.396 4.396 0 0 1-.703-.687 3.261 3.261 0 0 1-.61-.937 2.943 2.943 0 0 1-.218-1.125v-.25H5.14v-.578H.766v.578h1.843v.25c0 .344-.066.695-.187 1.047a3.463 3.463 0 0 1-.531.953 4.328 4.328 0 0 1-.844.797 6.862 6.862 0 0 1-.406.296C.516-.602.41-.538.328-.5l.5.469c.176-.082.39-.223.64-.422.247-.207.477-.43.688-.672.207-.227.38-.457.516-.688.133-.238.226-.445.281-.625.059.18.156.372.281.579.121.21.274.414.454.609.226.262.468.492.718.688.258.199.461.335.61.406zm0 0"/></symbol><symbol overflow="visible" id="I"><path d="M4.625-2.438a2.346 2.346 0 0 1-.25-.14 2.516 2.516 0 0 1-.297-.266 2.1 2.1 0 0 1-.36-.297 3.669 3.669 0 0 1-.296-.39 2.916 2.916 0 0 1-.453-.875 3.196 3.196 0 0 1-.188-1.078v-.922H2.11v.922c0 .367-.066.722-.187 1.062a4.107 4.107 0 0 1-.438.922c-.21.313-.441.582-.687.797-.25.219-.473.387-.656.5l.53.422c.122-.07.29-.203.5-.39a5.64 5.64 0 0 0 .61-.688c.164-.207.313-.43.438-.672a2.98 2.98 0 0 0 .219-.5c.019.105.085.261.203.468.113.211.265.426.453.641.183.219.383.418.594.594.214.18.382.3.5.36zm1.14 1.407v-5.485h-.64v1.766h-1.39v.578h1.39v3.14zm1.626.172v-5.782H6.75v5.782zm.234 1.937V.516H2.641V-1.36h-.657v2.437zm0 0"/></symbol><symbol overflow="visible" id="J"><path d="M5.453-.64v-.547c-.242.03-.539.066-.89.093-.344.032-.696.055-1.047.063-.211.023-.426.031-.641.031h-.61a7.632 7.632 0 0 1-.468.016C1.672-.992 1.602-1 1.594-1v-1.938h2.86V-3.5h-2.86v-1.75h3.015v-.547H.938v5.36c.019 0 .117.007.296.015.176 0 .391-.004.641-.016h.813c.289-.007.562-.019.812-.03.363-.02.719-.04 1.063-.063.34-.028.64-.067.89-.11zm1.594 1.89v-7.89h-.64v2.952H4.874v.547h1.531V1.25zm0 0"/></symbol><symbol overflow="visible" id="K"><path d="M6.438-8.672v1.063h-4.25v2.796h3.984v1.063H2.188v3.016h4.328V.328H1v-9zm0 0"/></symbol><symbol overflow="visible" id="L"><path d="M5.125-.531a1.53 1.53 0 0 1-.797.734 2.888 2.888 0 0 1-1.125.219c-.844 0-1.488-.254-1.922-.75C.844-.836.625-1.555.625-2.484v-1.22c0-.444.063-.85.188-1.218.12-.371.3-.687.53-.937.227-.246.505-.438.829-.563.32-.133.68-.203 1.078-.203.508 0 .91.09 1.203.266.29.18.504.367.64.562v-3.312h1.173V.328H5.14v-.86zm-.016-3.594c0-.164-.043-.336-.125-.516a1.535 1.535 0 0 0-.359-.468 2.03 2.03 0 0 0-.563-.329 2.003 2.003 0 0 0-.703-.125c-.5 0-.894.18-1.171.532-.274.355-.407.863-.407 1.515v.829c0 .656.14 1.164.422 1.515.277.356.664.531 1.156.531.246 0 .477-.035.688-.109.207-.082.39-.195.547-.344.152-.152.281-.336.375-.547.09-.207.14-.445.14-.718zm0 0"/></symbol><symbol overflow="visible" id="M"><path d="M.844-6.5h1.172v4.234c0 .586.113 1.008.343 1.266.227.25.586.375 1.079.375.195 0 .394-.035.593-.11.196-.07.375-.175.532-.312.152-.133.28-.305.375-.516.09-.207.14-.44.14-.703V-6.5h1.188V.328H5.125v-.86h-.016c-.199.313-.46.552-.78.72-.325.175-.724.265-1.188.265-.325 0-.63-.055-.907-.156a1.969 1.969 0 0 1-.718-.438 2.19 2.19 0 0 1-.5-.765c-.118-.301-.172-.66-.172-1.078zm0 0"/></symbol><symbol overflow="visible" id="N"><path d="M3.469-6.625c.539 0 .988.074 1.344.219.351.136.664.316.937.531l-.563.906a3.097 3.097 0 0 0-.843-.468 2.922 2.922 0 0 0-.875-.125c-.219 0-.434.042-.64.125a1.38 1.38 0 0 0-.532.359 1.75 1.75 0 0 0-.36.61c-.093.25-.14.55-.14.89v.875c0 .367.047.68.14.937.09.262.22.477.375.641.153.156.333.277.532.36.207.074.422.109.64.109.434 0 .797-.055 1.079-.172.289-.121.554-.274.796-.453l.563.922c-.242.199-.559.375-.953.53-.387.165-.887.25-1.5.25-.918 0-1.63-.273-2.125-.812C.852-.94.609-1.71.609-2.703v-.86c0-.488.067-.921.204-1.296.132-.383.32-.707.562-.97.246-.257.55-.456.906-.593a3.35 3.35 0 0 1 1.188-.203zm0 0"/></symbol><symbol overflow="visible" id="O"><path d="M2.781.422c-.668 0-1.199-.168-1.594-.5C.801-.418.61-.895.61-1.5v-.328c0-.582.188-1.055.563-1.422.383-.371 1-.563 1.844-.563h1.687v-.39c0-.457-.113-.797-.328-1.016-.21-.226-.559-.343-1.047-.343-.387 0-.726.066-1.015.187a5.978 5.978 0 0 0-.891.5l-.578-.89c.32-.239.687-.442 1.094-.61.402-.164.875-.25 1.406-.25.37 0 .71.05 1.015.14.301.094.563.239.782.423.226.187.406.417.53.687.122.273.188.582.188.922V.328H4.734V-.5H4.72a1.164 1.164 0 0 1-.266.344 1.841 1.841 0 0 1-.344.265c-.18.102-.37.18-.578.235-.21.05-.46.078-.75.078zm1.922-3.203H3.047c-.469 0-.805.097-1 .281-.2.18-.297.43-.297.75v.172c0 .336.113.582.344.734.226.149.5.219.812.219.29 0 .54-.035.75-.11.215-.07.414-.175.594-.312a.994.994 0 0 0 .344-.422c.07-.164.11-.379.11-.64zm0 0"/></symbol><symbol overflow="visible" id="P"><path d="M1.36-5.469H.265V-6.5h1.093v-1.734h1.172V-6.5h1.75v1.031h-1.75v3.89c0 .212.02.38.063.5.039.126.097.227.172.298.07.062.16.113.265.14.114.024.227.032.344.032.29 0 .582-.055.875-.172l.188.984a4.19 4.19 0 0 1-.563.14 2.98 2.98 0 0 1-.672.079c-.637 0-1.105-.164-1.406-.484-.293-.32-.438-.829-.438-1.516zm0 0"/></symbol><symbol overflow="visible" id="Q"><path d="M2.156-6.5V.328H.984V-6.5zm.031-2.453v1.328H.938v-1.328zm0 0"/></symbol><symbol overflow="visible" id="R"><path d="M3.563-6.625c.902 0 1.624.273 2.156.813.527.542.797 1.308.797 2.296v.829c0 .992-.27 1.757-.797 2.296-.532.54-1.254.813-2.157.813-.917 0-1.644-.274-2.171-.813C.867-.93.609-1.695.609-2.687v-.829c0-.996.258-1.765.782-2.296.527-.54 1.254-.813 2.171-.813zm0 5.984c.519 0 .94-.175 1.265-.53.332-.352.5-.891.5-1.61v-.64c0-.716-.168-1.255-.5-1.61-.324-.352-.746-.532-1.266-.532-.53 0-.96.18-1.28.532-.325.355-.485.894-.485 1.61v.64c0 .719.16 1.258.484 1.61.32.355.75.53 1.281.53zm0 0"/></symbol><symbol overflow="visible" id="S"><path d="M6.406.328H5.234v-4.25c0-.57-.12-.988-.359-1.25-.23-.258-.59-.39-1.078-.39-.211 0-.414.039-.61.109a1.636 1.636 0 0 0-.922.828c-.093.21-.14.45-.14.719V.328H.937V-6.5h1.141v.86h.016c.195-.32.46-.567.797-.735.332-.164.726-.25 1.187-.25.32 0 .625.055.906.156.278.094.524.242.735.438.215.199.383.457.5.765.12.305.187.664.187 1.079zm0 0"/></symbol><symbol overflow="visible" id="am"><path d="M1-8.672h3.11c.495 0 .93.067 1.296.188.364.125.66.304.89.53.24.231.415.509.532.829.121.313.188.652.188 1.016v.265c0 .367-.067.711-.188 1.032a2.337 2.337 0 0 1-.562.843 2.637 2.637 0 0 1-.907.578c-.355.137-.773.204-1.25.204H2.188V.328H1zm1.188 1.063v3.359h1.718c1.258 0 1.89-.54 1.89-1.625v-.219c0-.508-.151-.89-.452-1.14-.305-.246-.739-.375-1.297-.375zm0 0"/></symbol><symbol overflow="visible" id="an"><path d="M3-.625c.434 0 .773-.078 1.016-.234a.738.738 0 0 0 .375-.657v-.093a.941.941 0 0 0-.063-.36.602.602 0 0 0-.234-.265 2.26 2.26 0 0 0-.469-.204 11.98 11.98 0 0 0-.75-.203 5.824 5.824 0 0 1-.969-.265 3.106 3.106 0 0 1-.718-.39 1.5 1.5 0 0 1-.454-.563 1.914 1.914 0 0 1-.14-.766v-.156c0-.227.047-.457.14-.688.102-.226.254-.426.454-.593.195-.165.453-.301.765-.407.309-.101.68-.156 1.11-.156.445 0 .867.055 1.265.156.395.106.754.278 1.078.516l-.515.906a2.57 2.57 0 0 0-.782-.39 3.051 3.051 0 0 0-.968-.157c-.493 0-.848.082-1.063.235a.709.709 0 0 0-.312.593v.11c0 .273.109.472.328.593.215.125.586.243 1.11.344a6.41 6.41 0 0 1 1.046.281c.3.106.547.243.734.407.196.156.344.351.438.578.09.219.14.492.14.812v.157c0 .261-.058.511-.171.75a1.9 1.9 0 0 1-.5.609 2.572 2.572 0 0 1-.797.39 3.385 3.385 0 0 1-1.047.157A4.763 4.763 0 0 1 1.53.188C1.082.039.7-.156.391-.406l.546-.938c.29.211.602.383.938.516.34.137.719.203 1.125.203zm0 0"/></symbol><symbol overflow="visible" id="T"><path d="M4.672-1.375c.414 0 .797.035 1.14.094.352.062.66.16.922.281.258.105.461.242.61.406a.827.827 0 0 1 .218.547.768.768 0 0 1-.218.531 1.828 1.828 0 0 1-.61.422c-.261.114-.57.203-.921.266a7.035 7.035 0 0 1-2.297 0 3.735 3.735 0 0 1-.907-.266 1.793 1.793 0 0 1-.593-.422.751.751 0 0 1-.22-.53c0-.196.071-.38.22-.548.144-.164.343-.3.593-.406.246-.121.551-.219.907-.281a7.035 7.035 0 0 1 1.156-.094zm-.25-1.64v1.234c-1 .031-1.777.21-2.328.531-.555.324-.828.727-.828 1.203 0 .496.296.91.89 1.234.602.32 1.442.485 2.516.485 1.082 0 1.922-.164 2.516-.484.601-.325.906-.739.906-1.235 0-.476-.285-.879-.844-1.203-.555-.32-1.324-.5-2.313-.531v-1.235h4.22v-.406H.202v.406zM4.39-6.907c0 .273-.13.539-.375.797a4.98 4.98 0 0 1-.907.734c-.375.219-.77.41-1.171.563a4.858 4.858 0 0 1-1.047.28l.312.391c.121-.02.336-.078.64-.171.302-.102.63-.243.985-.422a6.372 6.372 0 0 0 1.031-.61c.332-.246.598-.535.797-.86.27.45.711.856 1.328 1.22a7.43 7.43 0 0 0 2.141.828l.328-.36a7.958 7.958 0 0 1-1-.28 6.803 6.803 0 0 1-1.172-.548 4.512 4.512 0 0 1-.968-.703c-.274-.27-.407-.555-.407-.86h3v-.405H1.391v.406zm0 0"/></symbol><symbol overflow="visible" id="U"><path d="M7.89-5.016h1.423v-.421H7.89v-2.329h-.5v5.672h.5zM5-1.53c.383 0 .738.039 1.063.11.32.062.601.151.843.265.239.125.426.273.563.437a.915.915 0 0 1 .203.578c0 .207-.07.395-.203.563a1.687 1.687 0 0 1-.563.422c-.242.12-.523.21-.843.265a6.273 6.273 0 0 1-2.156 0 3.127 3.127 0 0 1-.86-.265A1.657 1.657 0 0 1 2.5.422a.867.867 0 0 1-.203-.563c0-.214.066-.41.203-.578.133-.164.316-.312.547-.437.246-.114.535-.203.86-.266.331-.07.695-.11 1.093-.11zm-.016-.422c-1.043 0-1.84.176-2.39.516-.555.335-.828.761-.828 1.28 0 .52.273.946.828 1.282.55.332 1.347.5 2.39.5 1.04 0 1.836-.168 2.391-.5.55-.336.828-.762.828-1.281 0-.52-.277-.946-.828-1.282-.555-.34-1.352-.515-2.39-.515zM3.063-6.937c.601 0 1.062.175 1.374.515.32.336.485.742.485 1.219 0 .48-.164.894-.484 1.234-.313.344-.774.516-1.375.516-.606 0-1.07-.172-1.391-.516a1.763 1.763 0 0 1-.469-1.234c0-.477.156-.883.469-1.219.32-.34.785-.516 1.39-.516zm0-.5c-.368 0-.696.066-.985.187-.293.117-.55.277-.765.484-.211.2-.38.434-.5.704a2.151 2.151 0 0 0-.172.859c0 .312.054.605.171.875.122.273.29.512.5.719.215.199.473.355.766.468.29.118.617.172.985.172.351 0 .675-.054.968-.172.29-.113.547-.27.766-.468.207-.207.375-.446.5-.72a2.1 2.1 0 0 0 0-1.734 2.326 2.326 0 0 0-.5-.703 2.431 2.431 0 0 0-.766-.484 2.519 2.519 0 0 0-.968-.188zm0 0"/></symbol><symbol overflow="visible" id="V"><path d="M5.703-7.531v8.578h.5v-4.563h1.625V1.47h.5v-9.235h-.5v3.829H6.203v-3.594zM5.172-.938v-.421a3.41 3.41 0 0 1-.61.093c-.25.024-.511.043-.78.063-.294.023-.583.039-.86.047H1.625v-4.922h2.656V-6.5H1.125v5.766h1.031c.258 0 .535-.004.828-.016.29-.008.57-.023.844-.047.27-.008.52-.023.75-.047.238-.027.438-.062.594-.094zm0 0"/></symbol><symbol overflow="visible" id="W"><path d="M3.484-4.813c.57 0 1.008.114 1.313.329.308.218.469.476.469.765 0 .305-.16.559-.47.766-.304.2-.741.297-1.312.297-.562 0-1.004-.098-1.312-.297-.305-.207-.453-.461-.453-.766 0-.289.148-.547.453-.765.308-.215.75-.329 1.312-.329zm0-.39c-.718 0-1.285.148-1.687.437-.406.282-.61.633-.61 1.047 0 .43.196.785.594 1.063.403.281.973.422 1.703.422.715 0 1.282-.141 1.688-.422.414-.278.625-.633.625-1.063 0-.414-.211-.765-.625-1.047-.406-.289-.973-.437-1.688-.437zM.704-6.25v.422H6.28v-.422zm1.109 5.016v.421H7.5V1.47H8v-2.703zM7.984-4.61h1.422v-.407H7.984v-2.75H7.47v5.907h.515zM1.97-7.594v.407h2.937v-.407zm0 0"/></symbol><symbol overflow="visible" id="X"><path d="M6.766-1.594h.5c.09-.476.175-.91.25-1.297.07-.394.129-.785.171-1.171.051-.383.098-.774.141-1.172.04-.395.078-.836.11-1.329H1.405v.422h5.985a30.978 30.978 0 0 1-.22 2.172c-.093.762-.23 1.555-.405 2.375zm2.39 1.64v-.405H5.47V-3.75h-.516v3.39H3.156v-3.39h-.5v3.39H.203v.407zm0 0"/></symbol><symbol overflow="visible" id="Z"><path d="M5.406-1.484c.403 0 .774.035 1.11.093.34.063.644.16.906.282.246.117.441.261.578.437.145.18.219.371.219.578A.843.843 0 0 1 8 .47c-.137.176-.332.32-.578.437a3.8 3.8 0 0 1-.906.281 6.648 6.648 0 0 1-2.234 0 3.413 3.413 0 0 1-.891-.28 1.509 1.509 0 0 1-.579-.438.867.867 0 0 1-.203-.563c0-.207.067-.398.204-.578.132-.176.328-.32.578-.437.246-.121.546-.22.89-.282.34-.058.719-.093 1.125-.093zm0-.407c-1.074 0-1.902.176-2.484.516-.574.336-.86.758-.86 1.266 0 .527.286.957.86 1.28.582.333 1.41.5 2.484.5 1.082 0 1.91-.167 2.485-.5.582-.323.875-.753.875-1.28 0-.508-.293-.93-.875-1.266-.575-.34-1.403-.516-2.485-.516zm2.688-3.39H6.563v-2.313h-.516v5.266h.516V-4.86h1.53v2.734h.5v-5.64h-.5zM3-5.171c.09.323.238.628.438.905.195.282.406.54.624.766.227.219.446.41.657.563.207.148.379.253.515.312l.313-.39a5.07 5.07 0 0 1-.734-.438 4.835 4.835 0 0 1-.75-.703 4.038 4.038 0 0 1-.579-1 3.287 3.287 0 0 1-.234-1.282v-1h-.5v1c0 .47-.09.915-.266 1.329a5.19 5.19 0 0 1-1.406 1.953c-.273.23-.512.398-.719.5l.36.312a3.12 3.12 0 0 0 .422-.281c.195-.145.414-.336.656-.578a5.98 5.98 0 0 0 .672-.86A4.1 4.1 0 0 0 3-5.171zm0 0"/></symbol><symbol overflow="visible" id="aa"><path d="M1.531-6.656h3.14v3.172h-3.14zM5.11-1.453c.395 0 .758.035 1.094.094.34.062.64.152.89.265.239.117.43.258.579.422a.843.843 0 0 1 .219.563.843.843 0 0 1-.22.562c-.148.176-.339.317-.577.422-.25.121-.551.21-.89.266a6.648 6.648 0 0 1-2.219 0 2.929 2.929 0 0 1-.86-.266 1.376 1.376 0 0 1-.578-.422.867.867 0 0 1-.203-.562c0-.207.066-.395.203-.563.133-.164.328-.305.578-.422.238-.113.523-.203.86-.265.34-.059.718-.094 1.124-.094zm0-.438c-1.054 0-1.863.176-2.421.516-.563.336-.844.758-.844 1.266 0 .527.281.957.843 1.28.56.333 1.368.5 2.422.5 1.059 0 1.875-.167 2.438-.5.558-.323.844-.753.844-1.28 0-.508-.286-.93-.844-1.266-.563-.34-1.379-.516-2.438-.516zm2.625-4.312H5.188v-.875H1.016v4h4.171v-.985h2.547v1.97h.5v-5.673h-.5zm0 1.719H5.188v-1.297h2.546zm0 0"/></symbol><symbol overflow="visible" id="ab"><path d="M5.89-6.516H.97v.407h4.343c-.011.28-.035.601-.062.953-.031.343-.07.695-.11 1.047l-.156 1.03c-.043.325-.082.599-.109.813h.5c.09-.582.18-1.21.266-1.89.09-.676.175-1.461.25-2.36zm1.532-1.25V1.47h.516v-4.703h1.468v-.422H7.937v-4.11zm-.453 7.11v-.406c-.262.042-.567.082-.907.109-.343.031-.695.058-1.046.078-.368.023-.715.04-1.047.047-.324.012-.614.015-.86.015v-3.093h-.515v3.094H.406v.421h1c.739 0 1.383-.004 1.938-.015a36.817 36.817 0 0 0 2.61-.125c.339-.028.679-.07 1.015-.125zm0 0"/></symbol><symbol overflow="visible" id="ac"><path d="M6.266-4.203H4.53v.422h1.735v4.828h.515v-8.594h-.515zm1.828-3.563V1.47h.5v-9.235zM2.64-6.14v1.188c0 .637-.098 1.21-.282 1.719-.187.5-.414.941-.671 1.312-.25.375-.508.684-.766.922-.262.242-.465.418-.61.531l.422.313a7.148 7.148 0 0 0 1.063-1.078c.207-.278.41-.602.61-.97.206-.37.374-.796.5-1.265.09.43.241.82.452 1.172.207.356.422.664.641.922a6.6 6.6 0 0 0 .625.64c.195.169.332.274.406.313l.344-.36a4.472 4.472 0 0 1-.5-.359 4.556 4.556 0 0 1-.75-.812 5.55 5.55 0 0 1-.672-1.266c-.2-.496-.297-1.078-.297-1.734v-1.188H4.97v-.406H.812v.406zm0 0"/></symbol><symbol overflow="visible" id="ad"><path d="M1.656-1.547v.422H7.36v2.594h.516v-3.016zm6.172-4.25H9.25v-.422H7.828v-1.547h-.5v5.61h.5v-1.688H9.25v-.406H7.828zm-4.875-1.14c.602 0 1.067.175 1.39.515.321.336.485.742.485 1.219 0 .48-.164.894-.484 1.234-.324.344-.79.516-1.39.516-.595 0-1.056-.172-1.376-.516a1.726 1.726 0 0 1-.484-1.234c0-.477.16-.883.484-1.219.32-.34.781-.516 1.375-.516zm0-.5c-.355 0-.683.066-.984.187-.293.117-.551.277-.766.484a2.151 2.151 0 0 0-.656 1.563c0 .312.055.605.172.875.113.273.273.512.484.719.215.199.473.355.766.468.3.118.629.172.984.172.352 0 .676-.054.969-.172.3-.113.562-.27.781-.468.207-.207.367-.446.484-.72a2.1 2.1 0 0 0 0-1.734 2.155 2.155 0 0 0-.484-.703 2.377 2.377 0 0 0-.781-.484 2.519 2.519 0 0 0-.969-.188zm0 0"/></symbol><symbol overflow="visible" id="ae"><path d="M1.422-4h3.25v3h-3.25zm-.5-2.813v6.235h4.266v-6.234h-.516v2.406h-3.25v-2.407zm6.812 3.36h1.422v-.422H7.734v-3.89H7.22v9.234h.515zm0 0"/></symbol><symbol overflow="visible" id="af"><path d="M7.734-7.766V1.47h.5v-9.235zm-6.359 4.11c0-.383.035-.75.11-1.094.07-.352.18-.66.327-.922.145-.258.32-.46.532-.61.215-.152.469-.234.75-.234.277 0 .523.082.734.235.207.148.383.351.531.61.133.26.239.57.313.921.082.344.125.71.125 1.094 0 .406-.043.789-.125 1.14-.074.356-.18.66-.313.907a1.905 1.905 0 0 1-.53.64c-.212.149-.458.219-.735.219-.281 0-.535-.07-.75-.219a1.867 1.867 0 0 1-.531-.625 3.014 3.014 0 0 1-.329-.922 5.543 5.543 0 0 1-.109-1.14zm-.531.015c0 .512.05.977.156 1.391.102.406.254.762.453 1.063.184.292.422.523.703.687.278.156.586.234.922.234.34 0 .649-.078.922-.234.277-.164.516-.395.703-.688.195-.3.348-.656.453-1.062.102-.414.157-.879.157-1.39a5.83 5.83 0 0 0-.157-1.376 3.433 3.433 0 0 0-.453-1.062A2.023 2.023 0 0 0 4-6.75 1.763 1.763 0 0 0 3.078-7c-.336 0-.644.086-.922.25-.281.156-.52.383-.703.672-.2.293-.351.648-.453 1.062A5.633 5.633 0 0 0 .844-3.64zm0 0"/></symbol><symbol overflow="visible" id="ag"><path d="M7.453-4.86c0 .274-.074.524-.219.75-.148.231-.347.43-.593.594-.25.168-.551.293-.891.375a4.34 4.34 0 0 1-1.078.125c-.375 0-.738-.039-1.078-.125a2.659 2.659 0 0 1-.875-.375 1.955 1.955 0 0 1-.594-.593 1.336 1.336 0 0 1-.219-.75c0-.278.07-.532.219-.75.145-.227.344-.426.594-.594.246-.152.539-.274.875-.36.34-.09.703-.14 1.078-.14.371 0 .726.05 1.062.14.34.086.641.208.891.36.258.168.46.367.61.594.144.218.218.472.218.75zM4.937-2.53c.465-.02.895-.094 1.282-.219.383-.133.71-.305.984-.516.258-.207.461-.445.61-.718.144-.278.218-.57.218-.875 0-.32-.082-.625-.234-.907a2.337 2.337 0 0 0-.672-.734A3.67 3.67 0 0 0 6.062-7a4.989 4.989 0 0 0-1.39-.188c-.512 0-.977.067-1.39.188a3.619 3.619 0 0 0-1.048.5c-.293.21-.52.457-.671.734a1.844 1.844 0 0 0-.235.907c0 .304.067.597.203.875.145.273.348.511.61.718.27.211.597.383.984.516.383.125.816.2 1.297.219v2.297H.203v.406h8.953v-.406H4.937zm0 0"/></symbol><symbol overflow="visible" id="ah"><path d="M1.156-3.516c0-.394.032-.765.094-1.109.059-.34.156-.645.281-.906.133-.258.29-.461.469-.61a.926.926 0 0 1 1.234 0c.184.157.344.364.47.61.12.261.218.57.28.922a5.725 5.725 0 0 1 0 2.219c-.062.355-.16.66-.28.906a1.688 1.688 0 0 1-.47.609.965.965 0 0 1-.609.219A.932.932 0 0 1 2-.875a1.828 1.828 0 0 1-.469-.61 3.142 3.142 0 0 1-.281-.89 6.545 6.545 0 0 1-.094-1.14zm-.547 0c0 .512.047.977.141 1.391.102.406.25.758.438 1.047.164.293.375.52.625.672.246.156.519.234.812.234.29 0 .555-.078.797-.234.246-.153.46-.38.64-.672.176-.29.317-.64.422-1.047.102-.414.157-.879.157-1.39 0-.508-.055-.97-.157-1.376a4.012 4.012 0 0 0-.421-1.046 2.08 2.08 0 0 0-.641-.672 1.473 1.473 0 0 0-.797-.235c-.293 0-.566.082-.813.235-.25.156-.46.382-.625.671A3.549 3.549 0 0 0 .75-4.89c-.094.407-.14.868-.14 1.375zm7.22-.375H6.312v-3.656h-.516v8.594h.516v-4.5h1.515v4.922h.516v-9.235h-.516zm0 0"/></symbol><symbol overflow="visible" id="ai"><path d="M6.453-3.672v-.422a5.427 5.427 0 0 1-.672.125 25.71 25.71 0 0 1-.984.125c-.375.031-.774.067-1.188.094a22.34 22.34 0 0 1-1.25.031h-.828v-3.578h-.5v4h1.157c1.019 0 1.906-.047 2.656-.14.746-.09 1.285-.172 1.61-.235zm1.234-2.453H4.626v.422h3.063v2.781h.5v-4.844h-.5zM8.5 1.359V.938H2.594V-.298h5.562v-2.047H2.078v.422h5.578v1.203H2.078V1.36zm0 0"/></symbol><symbol overflow="visible" id="aj"><path d="M7.625-7.766V1.47h.516v-9.235zM6.828-.78v-.406c-.25.042-.726.101-1.422.171-.699.075-1.586.11-2.656.11H1.516v-2.547h3.859v-3.281H1v.406h3.875v2.453H1v3.39h1.844c1.058 0 1.922-.035 2.578-.109.664-.07 1.133-.133 1.406-.187zm0 0"/></symbol><symbol overflow="visible" id="ak"><path d="M9.156-.078V-.5H.203v.422zM4.672-5.391c.183.555.457 1.04.812 1.454.364.406.735.746 1.11 1.015.37.281.718.496 1.031.64.309.137.508.216.594.235l.328-.36a6.013 6.013 0 0 1-1.188-.53 5.686 5.686 0 0 1-1.156-.907A4.836 4.836 0 0 1 5.313-5a2.988 2.988 0 0 1-.344-1.422v-.64H4.39v.64c0 .5-.121.977-.36 1.422-.242.438-.539.836-.89 1.188a6.825 6.825 0 0 1-1.172.89 5.263 5.263 0 0 1-1.157.516l.329.36c.082-.02.28-.102.593-.25.32-.153.672-.376 1.047-.657.383-.27.754-.61 1.11-1.016.363-.414.625-.89.78-1.422zm0 0"/></symbol><symbol overflow="visible" id="al"><path d="M2.031-4.188h5.797v-.421H2.031v-1.688h5.797v-.422H1.531v4.657h6.407v-.407H2.03zm7.125 3.72H.203v.421h8.953zm0 0"/></symbol></defs><g fill="#231f20"><use xlink:href="#a" x="74.885" y="47.763"/><use xlink:href="#b" x="82.886" y="47.763"/><use xlink:href="#c" x="85.492" y="47.763"/><use xlink:href="#d" x="88.099" y="47.763"/><use xlink:href="#e" x="96.1" y="47.763"/><use xlink:href="#f" x="104.1" y="47.763"/><use xlink:href="#g" x="112.1" y="47.763"/><use xlink:href="#c" x="120.1" y="47.763"/><use xlink:href="#h" x="122.707" y="47.763"/><use xlink:href="#i" x="130.707" y="47.763"/><use xlink:href="#c" x="138.708" y="47.763"/><use xlink:href="#j" x="141.315" y="47.763"/><use xlink:href="#k" x="149.315" y="47.763"/><use xlink:href="#c" x="157.315" y="47.763"/><use xlink:href="#l" x="159.922" y="47.763"/><use xlink:href="#m" x="167.922" y="47.763"/></g><g fill="#393536"><use xlink:href="#n" x="42.468" y="48.426"/><use xlink:href="#o" x="48.041" y="48.426"/><use xlink:href="#o" x="53.614" y="48.426"/></g><g fill="#33459a"><use xlink:href="#p" x="206.678" y="241.756"/><use xlink:href="#q" x="220.193" y="241.756"/><use xlink:href="#r" x="225.134" y="241.756"/><use xlink:href="#q" x="238.649" y="241.756"/><use xlink:href="#s" x="243.59" y="241.756"/><use xlink:href="#q" x="257.105" y="241.756"/></g><g fill="#33459a"><use xlink:href="#t" x="262.045" y="240.857"/><use xlink:href="#u" x="272.857" y="240.857"/><use xlink:href="#v" x="283.669" y="240.857"/><use xlink:href="#w" x="294.481" y="240.857"/><use xlink:href="#x" x="305.293" y="240.857"/></g><g fill="#231f20"><use xlink:href="#y" x="206.678" y="262.269"/><use xlink:href="#z" x="214.525" y="262.269"/><use xlink:href="#A" x="222.373" y="262.269"/><use xlink:href="#B" x="230.22" y="262.269"/><use xlink:href="#C" x="238.068" y="262.269"/><use xlink:href="#D" x="245.915" y="262.269"/><use xlink:href="#E" x="253.762" y="262.269"/><use xlink:href="#F" x="256.64" y="262.269"/><use xlink:href="#G" x="264.487" y="262.269"/><use xlink:href="#H" x="272.335" y="262.269"/><use xlink:href="#I" x="280.182" y="262.269"/><use xlink:href="#J" x="288.03" y="262.269"/></g><g fill="#fff"><use xlink:href="#K" x="119.024" y="318.86"/><use xlink:href="#L" x="126.023" y="318.86"/><use xlink:href="#M" x="132.999" y="318.86"/><use xlink:href="#N" x="139.962" y="318.86"/><use xlink:href="#O" x="145.884" y="318.86"/><use xlink:href="#P" x="152.327" y="318.86"/><use xlink:href="#Q" x="156.796" y="318.86"/><use xlink:href="#R" x="159.69" y="318.86"/><use xlink:href="#S" x="166.569" y="318.86"/></g><path d="M76.441 354.813h424.68" fill="none" stroke-width=".299637" stroke="#33459a" stroke-miterlimit="10"/><g fill="#231f20"><use xlink:href="#T" x="77.858" y="347.051"/><use xlink:href="#U" x="87.013" y="347.051"/><use xlink:href="#V" x="96.169" y="347.051"/><use xlink:href="#W" x="105.324" y="347.051"/><use xlink:href="#X" x="114.48" y="347.051"/><use xlink:href="#Y" x="123.635" y="347.051"/><use xlink:href="#Z" x="126.992" y="347.051"/><use xlink:href="#aa" x="136.147" y="347.051"/><use xlink:href="#ab" x="145.303" y="347.051"/><use xlink:href="#W" x="154.458" y="347.051"/><use xlink:href="#ab" x="163.613" y="347.051"/></g><path d="M76.441 451.328h424.68" fill="none" stroke-width=".299637" stroke="#33459a" stroke-miterlimit="10"/><g fill="#231f20"><use xlink:href="#ac" x="77.858" y="443.567"/><use xlink:href="#ad" x="87.013" y="443.567"/><use xlink:href="#ae" x="96.169" y="443.567"/><use xlink:href="#af" x="105.324" y="443.567"/><use xlink:href="#ag" x="114.48" y="443.567"/><use xlink:href="#Y" x="123.635" y="443.567"/><use xlink:href="#ah" x="126.992" y="443.567"/><use xlink:href="#ai" x="136.147" y="443.567"/><use xlink:href="#aj" x="145.303" y="443.567"/><use xlink:href="#ak" x="154.458" y="443.567"/><use xlink:href="#al" x="163.613" y="443.567"/></g><g fill="#fff"><use xlink:href="#am" x="119.024" y="415.234"/><use xlink:href="#R" x="126.254" y="415.234"/><use xlink:href="#an" x="133.132" y="415.234"/><use xlink:href="#Q" x="138.921" y="415.234"/><use xlink:href="#P" x="141.815" y="415.234"/><use xlink:href="#Q" x="146.284" y="415.234"/><use xlink:href="#R" x="149.178" y="415.234"/><use xlink:href="#S" x="156.057" y="415.234"/></g></svg>