<svg xmlns="http://www.w3.org/2000/svg" xmlns:xlink="http://www.w3.org/1999/xlink" width="793.701" height="1058.268" viewBox="0 0 595.276 793.701" version="1.2"><defs><clipPath id="R"><path d="M0 410h594.555v2H0zm0 0"/></clipPath><symbol overflow="visible" id="a"><path d="M2.875.031c.434 0 .82-.144 1.156-.437.332-.301.594-.64.782-1.016.183-.34.316-.71.39-1.11.082-.402.125-.804.125-1.202 0-.403-.05-.813-.14-1.22a4.843 4.843 0 0 0-.407-1.155A3.031 3.031 0 0 0 4-7.063a1.747 1.747 0 0 0-1.14-.421c-.844 0-1.473.457-1.876 1.359-.406.906-.609 1.707-.609 2.39 0 .712.203 1.52.61 2.422C1.386-.413 2.02.032 2.874.032zm0-.281c-.75 0-1.227-.441-1.422-1.328-.2-.895-.297-1.613-.297-2.156 0-.54.098-1.254.297-2.141.195-.895.672-1.344 1.422-1.344.363 0 .648.137.86.407.206.273.363.566.468.875.113.343.195.71.25 1.093.059.387.094.758.094 1.11 0 .324-.035.675-.094 1.046a9.33 9.33 0 0 1-.203 1.016c-.094.336-.254.66-.469.969-.21.305-.511.453-.906.453zm0 0"/></symbol><symbol overflow="visible" id="b"><path d="M3.422-7.313a.124.124 0 0 0-.031-.078.119.119 0 0 0-.079-.062.133.133 0 0 0-.078 0 .589.589 0 0 0-.078.047l-1.844.828a.934.934 0 0 0-.218.078c-.086.043-.125.102-.125.172 0 .043.008.082.031.11a.143.143 0 0 0 .094.03c.05 0 .113-.015.187-.046.07-.028.133-.051.188-.063l.687-.312c.051-.02.102-.04.156-.063a.364.364 0 0 1 .172-.047c.07 0 .118.024.141.063.02.043.031.097.031.156v5.078c0 .367-.043.617-.125.75-.074.125-.316.188-.719.188-.25 0-.414.011-.484.03-.074.013-.11.052-.11.11 0 .063.016.106.048.125.027.024.082.032.156.032h3.094c.058 0 .109-.008.14-.032.028-.02.047-.054.047-.11 0-.058-.02-.1-.047-.124a.278.278 0 0 0-.14-.031h-.329c-.375 0-.601-.079-.671-.235-.063-.164-.094-.41-.094-.734zm0 0"/></symbol><symbol overflow="visible" id="c"><path d="M4.61-8.531a8.282 8.282 0 0 0-1.594.828A7.178 7.178 0 0 0 1.687-6.5a6.863 6.863 0 0 0-.953 1.453A3.928 3.928 0 0 0 .36-3.359c0 .75.223 1.507.672 2.265C1.477-.344 2.13.031 2.984.031c.715 0 1.286-.27 1.704-.812.425-.551.64-1.16.64-1.828a2.92 2.92 0 0 0-.516-1.641c-.343-.508-.847-.766-1.5-.766-.167 0-.34.036-.515.094-.18.055-.34.145-.485.266a.984.984 0 0 0-.187.156c-.063.074-.094.145-.094.203 0 .031.004.067.016.094.02.023.047.031.078.031.059 0 .148-.078.266-.234.12-.164.347-.25.671-.25.208 0 .395.058.563.172a1.5 1.5 0 0 1 .453.421c.152.243.274.508.36.797.09.293.14.586.14.875 0 .282-.043.555-.125.813-.086.262-.21.52-.375.766-.125.18-.273.324-.437.437a1.095 1.095 0 0 1-.594.156c-.7 0-1.195-.375-1.485-1.125-.292-.758-.437-1.406-.437-1.937 0-.614.11-1.192.328-1.735.215-.539.524-1.05.922-1.53.309-.384.703-.75 1.172-1.095.476-.34.953-.597 1.422-.765.039-.02.093-.04.156-.063.07-.027.11-.066.11-.11 0-.038-.012-.07-.032-.093a.122.122 0 0 0-.094-.047.728.728 0 0 0-.265.078c-.117.055-.196.09-.235.11zm0 0"/></symbol><symbol overflow="visible" id="d"><path d="M5.422-5.844V.453h.812v-6.297zm-3.547 0V.453h.813v-6.297zm1.766 0V.453h.828v-6.297zm0 0"/></symbol><symbol overflow="visible" id="e"><path d="M.75.047v1.016h1.031V.046zm0 0"/></symbol><symbol overflow="visible" id="g"><path d="M4.453-5.328v-.234H6.86v-.641H1.203v.64H3.61v.235c0 .367-.082.691-.234.969a2.494 2.494 0 0 1-.625.734A4.59 4.59 0 0 1 1.734-3c-.375.18-.773.324-1.187.438.121.105.226.207.312.296l.266.282c.3-.102.602-.223.906-.36.301-.144.582-.312.844-.5.246-.176.473-.367.672-.578.207-.215.367-.46.484-.734.114.273.285.527.516.765.238.243.504.457.797.641.246.18.508.332.781.453.277.125.547.227.797.297l.266-.266.296-.296A4.76 4.76 0 0 1 6.36-2.97a4.662 4.662 0 0 1-1-.656 2.878 2.878 0 0 1-.656-.766 1.782 1.782 0 0 1-.25-.937zM7.781.359v-.64H4.406v-1.953h-.765v1.953H.28v.64zm0 0"/></symbol><symbol overflow="visible" id="h"><path d="M7.234-1.813v-4.812h-.75v4.813zM7.22 1.422v-2.844H1.78v.64h4.672v2.204zM3.39-5.36v-.266h1.671v-.64H.923v.64h1.703v.25c0 .313-.055.602-.156.86a2.666 2.666 0 0 1-.39.718 3.12 3.12 0 0 1-.798.719c-.304.2-.636.371-1 .515.059.043.117.09.172.141l.172.125c.059.043.113.086.156.125.051.043.098.082.14.11.227-.114.446-.239.657-.376.215-.144.426-.304.625-.484.164-.144.317-.312.453-.5.145-.183.266-.394.36-.625.113.23.25.434.406.61.164.167.344.32.531.453.184.148.379.277.578.39.196.117.39.211.578.281.051-.07.125-.156.22-.25a9.33 9.33 0 0 1 .296-.28 4.136 4.136 0 0 1-.906-.407A2.906 2.906 0 0 1 4-3.86c-.2-.206-.352-.43-.453-.671a2.087 2.087 0 0 1-.156-.828zm0 0"/></symbol><symbol overflow="visible" id="i"><path d="M1.516-6.063l5.578 3.375L1.516.688zm0 0"/></symbol><symbol overflow="visible" id="j"><path d="M7.39-7.266v3.344c0 .406.032.738.094.985.059.242.16.359.297.359.145 0 .282-.16.407-.485.12-.32.187-.769.187-1.343v-2.86c0-.144.004-.27.016-.375.02-.113.035-.207.046-.28a.348.348 0 0 0-.046-.188.432.432 0 0 0-.172-.141 3.909 3.909 0 0 0-.313-.078c-.136-.027-.277-.063-.422-.094-.148-.02-.285-.035-.406-.047a2.475 2.475 0 0 1-.25-.047c-.344-.02-.535.024-.562.125-.024.094.07.184.28.266.134.063.25.121.345.172.101.043.191.098.265.156.07.063.13.137.172.219.04.086.063.191.063.312zm-1.78.125a2.05 2.05 0 0 1-.204-.015 3.937 3.937 0 0 0-.328-.016c-.117 0-.226.008-.328.016a.503.503 0 0 0-.234.047c-.157.074-.418.12-.782.14a35.86 35.86 0 0 1-1.14.016H2.25c-.117-.008-.223-.016-.313-.016A3.106 3.106 0 0 1 1.688-7c-.074-.008-.132-.016-.171-.016-.313-.02-.493.004-.532.063-.03.062.063.168.282.312.238.157.43.262.578.313.152.043.285.062.39.062.09 0 .172-.015.235-.046.07-.04.144-.079.219-.11h.03c.028-.008.067-.02.11-.031.05-.008.102-.016.156-.016a2.24 2.24 0 0 0 .172-.031c.07 0 .16-.004.266-.016.113-.007.226-.02.344-.03.12-.009.25-.02.375-.032.132-.02.27-.035.406-.047a9.74 9.74 0 0 1-.89 1.563c-.337.48-.68.917-1.032 1.312-.355.398-.71.738-1.063 1.016a6.791 6.791 0 0 1-.875.609c-.125.063-.132.133-.015.203.113.063.332.024.656-.125.3-.121.633-.316 1-.578.371-.258.75-.57 1.125-.938.371-.351.735-.75 1.078-1.187.352-.445.664-.922.938-1.422.05-.09.11-.187.172-.281.07-.102.125-.203.156-.297.039-.082.043-.156.016-.219-.024-.07-.09-.129-.204-.172zm1.562 5.454L7.156.828H4.438L4.39-1.687zm1.25 2.734c0-.063-.055-.117-.156-.156A1.664 1.664 0 0 0 8 .828l.25-2.297a.8.8 0 0 1 .063-.234c.039-.07.078-.14.109-.203a.303.303 0 0 0 .015-.157c-.011-.05-.074-.101-.187-.156a1.295 1.295 0 0 0-.61-.078 3.634 3.634 0 0 0-.577.094c-.055.031-.215.055-.485.062-.262.012-.539.016-.828.016H4.516a1.491 1.491 0 0 1-.469-.078c-.117-.008-.242-.02-.375-.031a2.425 2.425 0 0 0-.453-.016c-.281.012-.473.074-.563.188-.086.105-.07.167.047.187.082.031.16.059.235.078.07.024.132.05.187.078.05.024.094.059.125.11.04.054.063.117.063.187l.156 2.625c.008.195.054.348.14.453.09.114.196.172.313.172.082 0 .176-.055.281-.156a.786.786 0 0 0 .219-.36H5.828c.332 0 .68-.007 1.047-.015h1.047a.941.941 0 0 0 .36-.063c.09-.043.14-.105.14-.187zm0 0"/></symbol><symbol overflow="visible" id="k"><path d="M6.938-3.172c.34 0 .648.008.921.016h.735c.3.023.578.015.828-.016.246-.027.379-.125.39-.281.008-.121-.07-.219-.234-.281a2.444 2.444 0 0 0-.61-.125 3.572 3.572 0 0 0-.78.03c-.274.032-.508.09-.704.173a2.104 2.104 0 0 1-.531.063c.113-.153.211-.337.297-.548.082-.207.164-.43.25-.671.07-.247.145-.5.219-.75.07-.247.133-.477.187-.688.051-.207.094-.379.125-.516.028-.132.047-.207.047-.218.02-.09.05-.18.094-.266.05-.082.086-.16.11-.234a.168.168 0 0 0-.063-.157c-.043-.05-.145-.097-.297-.14a1.633 1.633 0 0 0-.578-.016 2.76 2.76 0 0 0-.563.11.966.966 0 0 1-.265.062A10.8 10.8 0 0 1 6-7.594c-.2.012-.426.024-.672.032h-.75a17.49 17.49 0 0 1-1.531 0c-.23 0-.442-.004-.625-.016a1.813 1.813 0 0 1-.438-.063c-.199-.007-.34-.004-.421.016-.086.023-.133.055-.141.094-.012.031.004.074.047.125.05.043.113.082.187.11.371.218.672.355.89.405.216.055.4.075.548.063.144-.02.273-.055.39-.11.114-.05.25-.085.407-.109 0 0 .132-.004.406-.016.27-.007.582-.023.937-.046.34-.008.68-.02 1.016-.032.332-.02.563-.035.688-.046-.043.449-.09.84-.141 1.171-.043.336-.113.727-.203 1.172-.043.137-.082.27-.11.39-.023.126-.05.243-.078.345a7.267 7.267 0 0 0-.078.312.784.784 0 0 0 0 .235 4.768 4.768 0 0 1-.406.015H5.203c-.094-.008-.176-.015-.234-.015l-2.25.015a6.662 6.662 0 0 1-.688 0c-.18-.008-.34-.015-.484-.015a11.806 11.806 0 0 1-.828-.079c-.305-.007-.504.028-.594.11-.086.086.031.195.344.328.414.187.742.308.984.36.238.054.438.07.594.046.144-.02.273-.055.39-.11.114-.058.254-.097.422-.109h.032c.027-.007.05-.015.062-.015v2.828c0 .246.004.488.016.719.008.238.031.453.062.64.04.176.082.317.125.422.051.102.125.149.219.14.184 0 .336-.238.453-.702.121-.461.188-1.082.188-1.875v-2.25c.164-.008.363-.016.593-.016.227-.008.485-.02.766-.031h.5V.016c0 .257.004.504.016.734.02.238.046.445.078.625.027.176.07.316.125.422.058.113.133.164.218.156.184 0 .336-.238.454-.703.113-.46.171-1.086.171-1.875zm0 0"/></symbol><symbol overflow="visible" id="l"><path d="M3.36-7.5c-.481.086-.88.277-1.188.578a1.487 1.487 0 0 0-.453 1.094c0 .25.05.48.156.687.102.2.254.38.453.532.184.156.41.277.672.359.27.086.563.125.875.125.633 0 1.148-.156 1.547-.469.394-.32.594-.734.594-1.234 0-.363-.133-.695-.391-1-.25-.309-.605-.52-1.063-.625-.125-.02-.207-.04-.234-.063-.031-.027-.039-.07-.016-.125 0-.02.004-.039.016-.062a.362.362 0 0 0 .016-.094.133.133 0 0 0 0-.078.124.124 0 0 0-.032-.078c-.03-.02-.136-.04-.312-.063-.168-.027-.305-.05-.406-.062-.117 0-.196.035-.235.094-.03.062-.027.113.016.14.027.024.055.043.078.063.027.023.055.039.078.047.008.023.016.043.016.062 0 .024-.012.05-.031.078l-.063.063a.374.374 0 0 1-.094.031zm.515 2.828c-.324 0-.598-.113-.813-.344-.21-.226-.312-.5-.312-.812 0-.34.102-.633.313-.875.214-.246.488-.375.812-.375.32 0 .586.133.797.39.215.25.328.54.328.86 0 .324-.113.601-.328.828a1.091 1.091 0 0 1-.797.328zM9.063.672A4.384 4.384 0 0 0 8.765.64c-.118 0-.23.004-.344.015-.117.008-.223.02-.313.031a.7.7 0 0 0-.218.079.729.729 0 0 1-.391.156c-.137.02-.262.031-.375.031L4.969.984a.388.388 0 0 1-.25-.093C4.656.836 4.625.742 4.625.609v-.828c0-.113.004-.207.016-.281a1.02 1.02 0 0 0 0-.219.197.197 0 0 0-.094-.125.515.515 0 0 0-.234-.094A5.12 5.12 0 0 0 3.671-1a4.005 4.005 0 0 0-.61.016c-.23.03-.382.07-.453.109-.074.043-.105.086-.093.125.007.043.054.086.14.125.082.043.164.074.25.094.227.043.39.105.485.187.101.074.156.223.156.438v.531c0 .34.113.563.344.656.226.09.484.14.765.14l4.313-.03a.865.865 0 0 0 .422-.094c.101-.055.164-.121.187-.203.008-.074-.027-.153-.11-.235-.085-.074-.222-.136-.405-.187zM4.375-3.016c.465-.07.93-.148 1.39-.234.458-.09.86-.188 1.204-.281.215-.059.316-.145.297-.25-.012-.114-.114-.153-.297-.125-.293.054-.645.113-1.047.172-.399.054-.817.101-1.25.14-.43.043-.856.082-1.281.11a15.9 15.9 0 0 1-1.141.046h-.578A3.668 3.668 0 0 1 1.14-3.5c-.438-.027-.657.012-.657.125.008.117.157.238.438.36.351.199.633.324.844.374.207.043.379.055.515.032a.889.889 0 0 0 .36-.094c.101-.059.234-.102.39-.125a.73.73 0 0 0 .156-.016c.06-.008.13-.02.204-.031v.188c.007.117.015.171.015.171 0 .375.024.684.078.922.051.242.149.36.297.36.164 0 .305-.164.422-.5.113-.332.172-.758.172-1.282zm3.297 1.079v.062c0 .43.023.79.078 1.078.05.281.16.418.328.406.164 0 .305-.18.422-.546.113-.372.172-.86.172-1.454v-4.875c0-.132.004-.254.015-.359.008-.113.016-.207.016-.281a.367.367 0 0 0-.031-.203c-.024-.051-.082-.094-.172-.125a1.733 1.733 0 0 0-.313-.094 11.656 11.656 0 0 0-.421-.078 4.978 4.978 0 0 0-.407-.063 1.01 1.01 0 0 1-.234-.031c-.344-.02-.535.02-.563.11-.03.093.055.19.266.28l.36.172c.101.043.19.098.265.157.07.054.125.12.156.203.04.086.063.191.063.312v4.875c-.344.024-.727.04-1.14.047-.419 0-.759-.015-1.016-.047a1.911 1.911 0 0 0-.438.016c-.086.023-.133.055-.14.094 0 .031.023.074.078.125a.683.683 0 0 0 .187.125c.27.156.488.261.656.312.176.055.317.078.422.078.09 0 .164-.015.219-.046a.513.513 0 0 1 .172-.079c0-.007.05-.03.156-.062.113-.04.238-.07.375-.094a.425.425 0 0 1 .156-.016h.313zm0 0"/></symbol><symbol overflow="visible" id="B"><path d="M4.922-6.453a2.193 2.193 0 0 0-.484-.266 2.708 2.708 0 0 0-.579-.187c-.023-.02-.03-.035-.03-.047 0-.02.003-.04.015-.063a.73.73 0 0 1 .031-.109.73.73 0 0 1 .031-.11.427.427 0 0 0-.015-.093.19.19 0 0 0-.032-.094 1.026 1.026 0 0 0-.14-.031A1.42 1.42 0 0 0 3.5-7.5a.995.995 0 0 0-.25-.031 1.507 1.507 0 0 1-.203-.032c-.125 0-.215.04-.266.11-.043.074-.039.133.016.172.027.031.062.066.094.093.027.024.054.043.078.063.008.023.015.05.015.078 0 .024-.011.043-.03.063l-.032.03a.14.14 0 0 0-.031.048c-.555.086-1.008.3-1.36.64a1.744 1.744 0 0 0-.515 1.282c0 .273.054.527.171.765.114.23.274.434.485.61.207.18.453.32.734.421.278.094.594.141.938.141.414 0 .785-.07 1.11-.219.331-.144.597-.343.796-.593.215.125.398.214.547.265.144.043.266.063.36.063.09 0 .163-.016.218-.047.05-.027.102-.063.156-.094 0-.008.047-.031.14-.062.102-.028.224-.055.36-.079h.032a.255.255 0 0 1 .093-.015h.281v.515c0 .399.032.731.094 1 .059.262.16.387.297.376.152 0 .29-.172.406-.516.121-.352.188-.817.188-1.39v-3.423c0-.144.004-.27.015-.375a1.75 1.75 0 0 0 .032-.28.296.296 0 0 0-.031-.188.432.432 0 0 0-.172-.141c-.075-.02-.18-.047-.313-.078-.137-.027-.277-.063-.422-.094-.156-.02-.3-.035-.422-.047a1.36 1.36 0 0 1-.218-.047c-.356-.02-.551.024-.579.125-.03.094.063.184.282.266.12.063.238.121.343.172.102.043.192.098.266.156.07.063.129.137.172.219.04.086.063.191.063.312v.782c-.356.023-.727.039-1.11.046a6.72 6.72 0 0 1-.906-.046c-.086 0-.176.007-.266.015a1.942 1.942 0 0 1-.234.016zM5.344-6a1.697 1.697 0 0 0 .812.25c.09 0 .164-.008.219-.031.05-.028.102-.063.156-.094 0-.008.047-.031.14-.063.102-.027.224-.054.36-.078h.032a.362.362 0 0 1 .093-.015h.125a.87.87 0 0 0 .157-.016v1.781c-.293.012-.633.024-1.016.032-.375 0-.684-.008-.922-.032.04-.101.078-.218.11-.343.027-.121.046-.25.046-.375 0-.176-.027-.352-.078-.532A1.794 1.794 0 0 0 5.344-6zm-2 2.36c-.367 0-.676-.141-.922-.422a1.465 1.465 0 0 1-.375-1.016c0-.395.125-.727.375-1 .246-.277.555-.422.922-.422.37 0 .68.148.922.438.246.28.375.613.375.984 0 .406-.13.754-.375 1.031-.243.274-.551.406-.922.406zm2.422 1.828c-.532.074-.965.277-1.297.609a1.618 1.618 0 0 0-.485 1.187c0 .258.051.5.157.72.113.226.27.425.468.593.196.152.43.281.704.375.269.101.566.156.89.156.32 0 .617-.05.89-.14.27-.094.5-.223.688-.375a2.02 2.02 0 0 0 .453-.594c.114-.219.172-.465.172-.735 0-.414-.152-.796-.453-1.14-.305-.352-.726-.57-1.266-.657a.036.036 0 0 1-.015-.03v-.063a.73.73 0 0 1 .031-.11.466.466 0 0 1 .031-.078.253.253 0 0 0-.015-.078.17.17 0 0 0-.032-.078c-.03-.04-.144-.07-.328-.094-.187-.027-.34-.05-.453-.062a.308.308 0 0 0-.265.125c-.055.074-.047.12.015.14.07.043.13.086.172.125.04.032.04.075 0 .125 0 .012-.008.024-.016.032l-.015.015c-.012 0-.016.008-.016.016l-.015.016zm.437 3.062c-.336 0-.617-.133-.844-.39a1.415 1.415 0 0 1-.328-.938c0-.363.11-.676.328-.938.227-.27.508-.406.844-.406.164 0 .32.043.469.125.144.074.27.18.375.313.09.125.172.273.234.437.059.156.094.317.094.469 0 .371-.117.687-.344.937-.218.258-.496.391-.828.391zm0 0"/></symbol><symbol overflow="visible" id="C"><path d="M4.89-5.219c.208.149.462.32.766.516.309.2.63.398.953.594a75.81 75.81 0 0 0 1.47.953c.175.117.331.183.468.203.144.012.254-.016.328-.078.07-.051.102-.133.094-.25a.636.636 0 0 0-.14-.36 12.329 12.329 0 0 0-.454-.453 2.66 2.66 0 0 0-.438-.36c-.093-.019-.167-.034-.218-.046-.055-.008-.106-.016-.157-.016a.307.307 0 0 0-.078.016.115.115 0 0 1-.062-.016.388.388 0 0 1-.11-.015.842.842 0 0 1-.156-.047 1.963 1.963 0 0 1-.328-.156 15.338 15.338 0 0 1-.516-.282c-.199-.101-.398-.21-.593-.328-.2-.113-.367-.21-.5-.297.082-.113.176-.25.281-.406.113-.164.207-.305.281-.422.028-.07.063-.133.094-.187a.347.347 0 0 0 .063-.188A.257.257 0 0 0 5.905-7a.98.98 0 0 0-.172-.188 2.643 2.643 0 0 0-.28-.14c-.118-.05-.24-.102-.36-.156a3.305 3.305 0 0 0-.36-.125 4.983 4.983 0 0 0-.218-.079 1.292 1.292 0 0 0-.375-.046c-.086.011-.137.035-.157.062A.16.16 0 0 0 4-7.516c.027.043.078.09.14.141.196.125.333.242.407.344.082.093.101.195.062.297-.18.406-.41.804-.687 1.187a8.94 8.94 0 0 1-.906 1.063 8.399 8.399 0 0 1-1.047.875c-.344.25-.664.449-.953.593-.075.032-.121.075-.141.125-.012.043.004.082.047.11.039.031.113.047.219.047.113 0 .257-.032.437-.094.496-.184 1.04-.485 1.625-.89a9.364 9.364 0 0 0 1.688-1.5zM5.5-.312l.016-1.922c0-.09.004-.18.015-.266.008-.09.016-.172.016-.234a.446.446 0 0 0-.078-.188c-.032-.058-.098-.101-.188-.125a1.445 1.445 0 0 0-.265-.047c-.106-.008-.223-.02-.344-.031-.117-.008-.23-.016-.344-.016a1.17 1.17 0 0 1-.219-.03c-.312.023-.488.085-.515.187-.031.105.05.191.25.25.133.03.265.086.39.156.133.074.204.2.204.375v1.89H2.03c-.18-.007-.34-.019-.484-.03a11.806 11.806 0 0 1-.828-.079C.414-.43.215-.387.125-.297c-.086.086.031.192.344.313.414.195.742.32.984.375.238.05.438.058.594.03.144-.023.273-.058.39-.108.114-.055.254-.09.422-.11.008 0 .067-.008.172-.016.114 0 .27-.007.469-.015.207-.024.469-.04.781-.047.309-.012.676-.023 1.094-.031h2.609c.215.008.422.02.61.031.3.02.578.012.828-.016.246-.03.379-.132.39-.312.008-.102-.07-.188-.234-.25a1.975 1.975 0 0 0-.61-.14 6.041 6.041 0 0 0-.78.03 3.134 3.134 0 0 0-.704.157 1.346 1.346 0 0 1-.328.078c-.148.012-.32.016-.515.016-.18.011-.371.015-.579.015-.199 0-.386-.004-.562-.016zm0 0"/></symbol><symbol overflow="visible" id="V"><path d="M5.61-.313v-1.734c0-.09.003-.176.015-.25.008-.082.016-.148.016-.203a.232.232 0 0 0-.063-.156.433.433 0 0 0-.203-.11 1.445 1.445 0 0 0-.266-.046c-.105-.008-.214-.02-.328-.032-.125-.008-.246-.015-.36-.015a1.17 1.17 0 0 1-.218-.032c-.305.024-.476.082-.516.172-.03.086.051.16.25.219.145.043.282.105.407.188.12.074.187.199.187.374v1.625h-2.5c-.18 0-.34-.007-.484-.03-.149 0-.29-.005-.422-.016a5.57 5.57 0 0 0-.406-.047C.414-.414.215-.38.125-.296c-.086.085.031.19.344.312.414.195.742.32.984.375.238.05.438.058.594.03.144-.01.273-.05.39-.108.114-.055.254-.09.422-.11.008 0 .067-.008.172-.016.114 0 .27-.007.469-.015.207-.024.469-.04.781-.047.309-.012.676-.023 1.094-.031h2.609c.215.008.422.02.61.031.3.02.578.012.828-.016.246-.03.379-.132.39-.312.008-.102-.07-.188-.234-.25a1.975 1.975 0 0 0-.61-.14 6.041 6.041 0 0 0-.78.03c-.274.032-.508.09-.704.172a1.013 1.013 0 0 1-.328.063c-.136.012-.289.016-.453.016-.18.011-.367.015-.562.015-.188 0-.368-.004-.532-.016zm-.5-4.093c.195.105.437.23.718.375.29.136.582.273.875.406.29.148.567.285.828.406.258.125.457.223.594.281.184.086.348.126.484.126.145-.008.25-.051.313-.126.058-.05.082-.128.062-.234-.011-.101-.082-.21-.203-.328-.125-.09-.27-.191-.422-.297a2.115 2.115 0 0 0-.484-.265 1.077 1.077 0 0 0-.234-.032.753.753 0 0 0-.188 0h-.172a.568.568 0 0 1-.234-.062 1.374 1.374 0 0 1-.25-.078 9.018 9.018 0 0 0-.39-.157c-.15-.058-.302-.125-.454-.187a5.719 5.719 0 0 1-.39-.172c.164-.121.32-.25.468-.375.153-.121.301-.254.438-.39.133-.122.265-.25.39-.376l.375-.375c.278-.246.438-.453.47-.609.038-.152-.067-.273-.313-.36a2.05 2.05 0 0 1-.204-.015 1.642 1.642 0 0 0-.328-.031c-.125 0-.254.008-.375.015a.537.537 0 0 0-.234.063c-.086.043-.258.074-.516.094a26.426 26.426 0 0 1-1.813.063h-.765c-.242 0-.457-.005-.64-.016a1.673 1.673 0 0 1-.391-.047c-.313-.028-.496-.004-.547.078-.055.086.031.191.25.312.227.149.422.246.578.297.153.055.285.078.39.078a.73.73 0 0 0 .282-.047c.082-.027.164-.062.25-.093h.047a.567.567 0 0 0 .11-.047.67.67 0 0 0 .14-.016c.059-.02.125-.035.188-.047.058 0 .19-.004.39-.015.195-.008.41-.02.64-.032.239-.007.473-.015.704-.015.238-.008.441-.024.61-.047-.337.43-.712.848-1.126 1.25-.406.398-.836.762-1.281 1.094-.45.336-.902.636-1.36.906-.46.262-.902.465-1.328.61a.364.364 0 0 0-.156.109c-.023.03-.011.07.031.109.028.031.098.055.204.063.113 0 .27-.02.468-.063.239-.05.5-.133.782-.25.289-.113.593-.25.906-.406.3-.153.601-.328.906-.516.309-.195.613-.398.906-.61zm0 0"/></symbol><symbol overflow="visible" id="W"><path d="M5.61-2.703c.214.137.398.23.546.281.153.055.282.078.375.078.102 0 .18-.015.235-.047a.972.972 0 0 0 .156-.093c.058-.02.148-.047.266-.079.113-.039.203-.066.265-.078v.766c0 .43.024.79.078 1.078.059.281.172.418.328.406.164 0 .305-.18.422-.546.114-.372.172-.86.172-1.454v-4.875c0-.132.004-.254.016-.359.008-.113.015-.207.015-.281a.367.367 0 0 0-.03-.203c-.024-.051-.083-.094-.173-.125a1.733 1.733 0 0 0-.312-.094 11.656 11.656 0 0 0-.422-.078 4.978 4.978 0 0 0-.406-.063 1.366 1.366 0 0 1-.25-.031c-.344-.02-.536.02-.563.11-.023.093.07.19.281.28l.36.172c.101.043.191.098.265.157.07.054.125.12.157.203.039.086.062.191.062.312v2.157c-.293.023-.586.039-.875.046-.281 0-.535-.015-.75-.046a1.582 1.582 0 0 0-.39.015c-.075.024-.118.051-.125.078 0 .043.019.09.062.141.04.055.094.098.156.125.27.148.485.246.64.297.165.055.298.078.391.078.09 0 .165-.016.22-.047l.14-.078c.058-.02.144-.047.25-.078.113-.027.207-.055.281-.078v1.562c-.293.024-.586.04-.875.047-.281 0-.535-.015-.75-.047h-.047c.02-.07.035-.14.047-.203.008-.058.016-.129.016-.203 0-.363-.149-.695-.438-1-.293-.309-.695-.508-1.203-.594a.134.134 0 0 1 0-.125c0-.027.004-.054.016-.078l.031-.094a.086.086 0 0 0 0-.062.698.698 0 0 0-.047-.094c-.043-.039-.152-.07-.328-.094-.168-.02-.309-.035-.422-.046-.105 0-.183.035-.234.093-.043.063-.04.121.015.172.02.031.04.059.063.078a.32.32 0 0 1 .078.047c.008.024.016.043.016.063a.164.164 0 0 1-.016.062c-.012.012-.023.016-.031.016v.015l-.016.016c-.531.074-.96.258-1.281.547A1.395 1.395 0 0 0 1.562-3.5c0 .25.051.48.157.688.101.21.25.386.437.53.196.157.426.286.688.376.258.086.55.125.875.125.433 0 .82-.082 1.156-.25.332-.164.578-.39.734-.672zm-1.891.344c-.336 0-.606-.114-.813-.344a1.228 1.228 0 0 1-.312-.844c0-.308.101-.586.312-.828.207-.246.477-.375.813-.375.32 0 .586.133.797.39.207.262.312.536.312.813 0 .336-.105.617-.312.844-.211.23-.477.344-.797.344zM8.844.67a4.384 4.384 0 0 0-.297-.03 6.737 6.737 0 0 0-.672.047.509.509 0 0 0-.203.078.795.795 0 0 1-.39.156 2.81 2.81 0 0 1-.391.031L5.078.984a.364.364 0 0 1-.234-.093C4.78.836 4.75.742 4.75.609V-.437c0-.114.004-.208.016-.282a.563.563 0 0 0-.016-.219c0-.05-.027-.093-.078-.125a.8.8 0 0 0-.25-.109c-.086 0-.184-.004-.297-.016-.117-.007-.23-.015-.344-.015-.117-.008-.23-.016-.344-.016-.105 0-.19.008-.25.016-.242.023-.398.058-.468.11-.074.042-.102.085-.078.124.007.043.05.086.125.125.082.043.164.07.25.078.214.055.379.121.484.204.113.074.172.222.172.437v.75c0 .34.11.563.328.656.227.09.484.14.766.14l3.984-.03c.164 0 .3-.036.406-.094.114-.055.176-.121.188-.203.02-.074-.012-.153-.094-.235-.086-.074-.223-.136-.406-.187zM6.297-6.39a3.04 3.04 0 0 0-.281-.062 4.712 4.712 0 0 0-.407-.047 2.525 2.525 0 0 0-.453.016 1.219 1.219 0 0 0-.406.093c-.117.055-.277.09-.484.11-.2.023-.41.039-.625.047-.22.011-.434.015-.641.015-.21 0-.379-.004-.5-.015-.313 0-.574-.004-.781-.016-.211-.02-.41-.04-.594-.063a1.613 1.613 0 0 0-.36-.015.687.687 0 0 0-.234.031c-.043.031-.047.082-.015.14.039.063.16.15.359.25.3.169.54.274.719.313.183.043.343.055.468.032.122-.028.239-.067.344-.11.114-.05.242-.086.39-.11.184-.019.438-.034.75-.046.321-.008.657-.016 1-.016.333 0 .65.008.954.016h.703c.227 0 .363-.063.406-.188.051-.12-.054-.25-.312-.375zm-1.703-.703A.8.8 0 0 0 5-7.204c.102-.058.156-.128.156-.202 0-.059-.058-.117-.172-.172-.105-.059-.285-.102-.53-.125a8.068 8.068 0 0 1-.89-.047 7.023 7.023 0 0 0-.36-.047c-.118-.02-.243-.039-.376-.062-.262-.051-.433-.04-.515.03-.086.063-.047.153.109.266.195.149.375.27.531.36a.983.983 0 0 0 .453.125 4 4 0 0 0 .531.031c.184-.008.407-.023.657-.047zm0 0"/></symbol><symbol overflow="visible" id="X"><path d="M7.781-3.594H6.766v-3.172c0-.144.004-.27.015-.375a1.75 1.75 0 0 0 .032-.28.446.446 0 0 0-.047-.204c-.024-.05-.075-.094-.157-.125-.074-.02-.18-.047-.312-.078-.125-.027-.258-.063-.39-.094-.157-.02-.302-.035-.423-.047a1.36 1.36 0 0 1-.218-.047c-.344-.02-.536.024-.563.125-.023.094.07.184.281.266.121.063.239.121.344.172a.856.856 0 0 1 .25.156c.07.063.129.137.172.219a.68.68 0 0 1 .063.312V.375c.007.238.03.445.062.625.027.184.07.332.125.438.05.101.125.148.219.14.176 0 .312-.238.406-.703.102-.46.148-1.082.14-1.875v-2.063h1.016V.031c0 .258.004.504.016.735.008.238.031.445.062.625.028.175.07.316.125.421.051.114.118.165.204.157.183 0 .328-.239.421-.703C8.7.805 8.75.18 8.75-.61v-6.657c0-.144.004-.27.016-.375.007-.113.015-.207.015-.28a.348.348 0 0 0-.047-.188c-.023-.051-.074-.098-.156-.141a1.415 1.415 0 0 0-.297-.078c-.136-.027-.273-.063-.406-.094-.148-.02-.285-.035-.406-.047a2.338 2.338 0 0 1-.235-.047c-.336-.02-.52.024-.546.125-.024.094.07.184.28.266.122.063.235.121.329.172.101.043.191.098.266.156a.73.73 0 0 1 .156.219c.039.086.062.191.062.312zm-4.437.219c.12.156.254.324.39.5.145.18.282.355.407.531.12.156.234.305.328.438.101.125.176.215.218.265.114.149.227.258.344.329a.55.55 0 0 0 .313.078.235.235 0 0 0 .172-.141c.039-.082.039-.191 0-.328a1.845 1.845 0 0 1-.094-.203 3.302 3.302 0 0 0-.297-.61 1.153 1.153 0 0 0-.156-.234.506.506 0 0 0-.157-.094 1 1 0 0 0-.125-.047.593.593 0 0 1-.14-.046.684.684 0 0 1-.172-.094 1.379 1.379 0 0 1-.11-.11 3.315 3.315 0 0 1-.171-.203 2.536 2.536 0 0 1-.235-.219 1.546 1.546 0 0 1-.187-.25c.176-.257.351-.546.531-.859.184-.308.367-.633.547-.969.133-.207.234-.406.297-.593.07-.196.023-.329-.14-.391a.984.984 0 0 0-.204-.016c-.094-.007-.207-.02-.328-.03a5.65 5.65 0 0 0-.36.015.787.787 0 0 0-.234.047 1.362 1.362 0 0 1-.61.14 18.881 18.881 0 0 1-1.483 0 1.57 1.57 0 0 1-.375-.047C1-6.543.816-6.52.765-6.437c-.043.074.046.18.265.312.227.148.41.246.547.297.145.055.266.078.36.078a.57.57 0 0 0 .25-.047c.07-.039.148-.082.234-.125h.031c.027-.008.067-.02.11-.031a.7.7 0 0 1 .14-.016A3.75 3.75 0 0 0 2.891-6h.187l.203-.031c.07-.008.149-.016.235-.016.082-.008.175-.02.28-.031-.21.543-.444 1.058-.702 1.547a18 18 0 0 1-.813 1.375c-.304.418-.605.793-.906 1.125a5.592 5.592 0 0 1-.844.781c-.062.043-.101.09-.11.14 0 .044.02.075.063.094.04.024.114.024.22 0 .1-.02.241-.082.421-.187.29-.152.633-.414 1.031-.781.395-.371.79-.836 1.188-1.391zm0 0"/></symbol><symbol overflow="visible" id="m"><path d="M4.328-2.39a.844.844 0 0 0-.25-.61.828.828 0 0 0-1.422.61.85.85 0 0 0 .235.609.8.8 0 0 0 .593.25.812.812 0 0 0 .594-.25.831.831 0 0 0 .25-.61zm0 0"/></symbol><symbol overflow="visible" id="n"><path d="M6.703-1.75v-.422H.25v.422h3.063v1.64h.5v-1.64zm-.64 2.813V.625H1.625V-1h-.484v2.063zm-.75-4.516H1.624v-.969h3.688zm-4.172.422h4.671v-2.766h-.5v.953H1.626v-.953h-.484zm0 0"/></symbol><symbol overflow="visible" id="o"><path d="M.656-4.984h1.547v.562c0 .418-.05.817-.14 1.188a3.813 3.813 0 0 1-.407 1.046c-.18.325-.398.622-.656.891a4.573 4.573 0 0 1-.89.719c.081.055.171.117.265.187.09.063.164.121.219.172.195-.144.394-.316.594-.515.195-.196.378-.414.546-.657.164-.226.313-.46.438-.703.133-.246.226-.492.281-.734.09.273.207.535.344.781.144.242.305.465.484.672.153.18.32.352.5.516.184.156.38.304.578.437l.188-.187c.082-.082.156-.149.219-.204a5.057 5.057 0 0 1-.922-.671 3.882 3.882 0 0 1-.64-.829 3.118 3.118 0 0 1-.376-.89 4.724 4.724 0 0 1-.11-1.063v-.718h1.61v-.438H.656zm4.61-.891v7.094h.515v-3.844H6.86v-.453H5.781v-2.797zm0 0"/></symbol><symbol overflow="visible" id="p"><path d="M3.813 1.344c.363 0 .69-.04.984-.11.3-.062.555-.16.766-.28A1.34 1.34 0 0 0 6.03.5c.114-.18.172-.367.172-.563a.964.964 0 0 0-.172-.546 1.34 1.34 0 0 0-.468-.454 2.593 2.593 0 0 0-.766-.312 4.216 4.216 0 0 0-.984-.11c-.387 0-.731.04-1.032.11-.293.074-.539.18-.734.313a1.43 1.43 0 0 0-.485.453 1.01 1.01 0 0 0-.156.546c0 .196.051.383.157.563.113.176.273.328.484.453.195.121.441.219.734.281.301.07.645.11 1.031.11zM1.921-.063c0-.152.047-.296.14-.421a1.07 1.07 0 0 1 .407-.313 2.26 2.26 0 0 1 .594-.187c.226-.051.476-.079.75-.079.257 0 .5.028.718.079.227.043.43.105.61.187.164.086.296.192.39.313.102.125.157.27.157.421A.626.626 0 0 1 5.53.36a1.18 1.18 0 0 1-.39.313c-.18.09-.383.16-.61.203a4.409 4.409 0 0 1-1.469 0A2 2 0 0 1 2.47.672a1.07 1.07 0 0 1-.406-.313.694.694 0 0 1-.141-.421zM6.156-1.53v-4.344h-.5v1.75h-.953V-5.75h-.5v3.969h.5v-1.89h.953v2.14zM2.313-4.97v-.672h-.5v.657c0 .336-.036.632-.094.89a2.57 2.57 0 0 1-.282.703c-.136.23-.308.446-.515.641-.2.188-.434.363-.703.516.058.054.133.117.218.187.09.063.165.121.22.172.195-.145.363-.281.5-.406.144-.133.28-.274.405-.422.09-.121.18-.266.266-.422.082-.164.16-.352.234-.563.06.18.145.348.25.5.102.157.22.305.344.438.121.148.258.273.406.375.145.105.29.2.438.281.05-.07.11-.14.172-.203.058-.07.125-.14.187-.203a2.46 2.46 0 0 1-.64-.375 2.28 2.28 0 0 1-.5-.578 2.444 2.444 0 0 1-.313-.688 3.376 3.376 0 0 1-.094-.828zm0 0"/></symbol><symbol overflow="visible" id="q"><path d="M5.969 1.125v-.39H1.656v-.829h4.157v-1.562H3.719v-.797h2.984v-.406H.25v.406h2.969v.797H1.14v.406h4.156v.766H1.14v1.609zM5.312-4H1.626v-1.25h3.688zm-4.171.406h4.671v-2.062H1.141zm0 0"/></symbol><symbol overflow="visible" id="r"><path d="M3.563-5.453v-.422H1.469v.422zm.984 1.047v-.422H.53v.422zm-2.016.468c-.511 0-.926.118-1.234.344-.305.23-.453.508-.453.828 0 .157.035.309.11.454.081.148.194.269.343.359.144.117.32.207.531.266.207.054.442.078.703.078.52 0 .93-.114 1.235-.344.308-.227.468-.5.468-.813 0-.32-.152-.597-.453-.828-.304-.226-.722-.344-1.25-.344zM1.36-2.78c0-.215.098-.395.297-.531.207-.133.5-.204.875-.204.383 0 .676.07.875.204.196.136.297.316.297.53 0 .231-.101.419-.297.563-.199.137-.492.203-.875.203-.375 0-.668-.066-.875-.203a.664.664 0 0 1-.297-.562zM6.938-3.5v-.438H5.921v-1.937h-.5v4.547h.5V-3.5zM5.921 1.266V-.97h-4.5v.438h4.016v1.797zm0 0"/></symbol><symbol overflow="visible" id="t"><path d="M3.844-2.172v-3.437h-.469v1.296H1.203v-1.296H.734v3.437zm-.469-.422H1.203V-3.89h2.172zm2.469 3.86V-1.25H1.328v.438H5.36v2.078zm1-5.094v-.438h-1V-5.89h-.5v4.266h.5v-2.203zm0 0"/></symbol><symbol overflow="visible" id="u"><path d="M2.64-4.266v-1.28h-.515v1.124c0 .418-.05.817-.14 1.188a3.813 3.813 0 0 1-.407 1.046c-.18.325-.398.622-.656.891a4.573 4.573 0 0 1-.89.719c.07.055.155.117.25.187.1.063.179.121.234.172.195-.144.394-.316.593-.515.196-.196.38-.414.547-.657.176-.226.328-.46.453-.703.121-.246.211-.492.266-.734.09.273.207.535.344.781.144.242.304.465.484.672.152.18.32.352.5.516.184.156.379.304.578.437l.188-.187c.082-.082.156-.149.218-.204a5.057 5.057 0 0 1-.921-.671 3.882 3.882 0 0 1-.641-.829 3.459 3.459 0 0 1-.36-.89 4.109 4.109 0 0 1-.124-1.063zm2.657-1.609v7.094h.516v-3.844h1.093v-.453H5.813v-2.797zm0 0"/></symbol><symbol overflow="visible" id="v"><path d="M6.078 1.219v-7.094h-.5v2.172H3.922v.453h1.656v4.469zm-3.36-5.485v-1.28h-.515v1.124c0 .418-.05.817-.14 1.188a3.813 3.813 0 0 1-.407 1.046c-.18.325-.398.622-.656.891a4.573 4.573 0 0 1-.89.719c.081.055.171.117.265.187.09.063.164.121.219.172.195-.144.394-.316.594-.515.195-.196.378-.414.546-.657.164-.226.313-.46.438-.703.133-.246.226-.492.281-.734.09.273.207.535.344.781.144.242.305.465.484.672.153.18.32.352.5.516.184.156.38.304.578.437l.188-.187c.082-.082.156-.149.219-.204a5.057 5.057 0 0 1-.922-.671 3.882 3.882 0 0 1-.64-.829 3.118 3.118 0 0 1-.376-.89 4.724 4.724 0 0 1-.11-1.063zm0 0"/></symbol><symbol overflow="visible" id="w"><path d="M3.469-3.453c.789 0 1.39-.113 1.797-.344.414-.238.625-.531.625-.875a.822.822 0 0 0-.157-.469 1.39 1.39 0 0 0-.468-.406 2.83 2.83 0 0 0-.766-.266 4.44 4.44 0 0 0-1.031-.109c-.781 0-1.383.121-1.797.36-.418.242-.625.539-.625.89 0 .344.207.637.625.875.414.23 1.016.344 1.797.344zm0-.375c-.563 0-1.024-.07-1.375-.219-.356-.152-.531-.363-.531-.625 0-.27.171-.484.515-.64.352-.153.817-.235 1.39-.235.56 0 1.02.086 1.376.25.363.156.547.367.547.625a.484.484 0 0 1-.157.344 1.093 1.093 0 0 1-.39.266 2.074 2.074 0 0 1-.61.187c-.23.031-.488.047-.765.047zm2.5 4.953v-.39H1.656V-.11h4.157v-1.594H3.719v-.766h2.984v-.406H.25v.406h2.969v.766H1.14v.406h4.156v.781H1.14v1.641zm0 0"/></symbol><symbol overflow="visible" id="x"><path d="M.89-5.36v4.735s.04.008.126.016c.082 0 .187-.004.312-.016h.438c.164 0 .332-.004.5-.016.132-.007.28-.02.437-.03.152-.009.305-.02.453-.032.145-.02.274-.035.39-.047.122-.02.22-.035.282-.047v-.453c-.074.023-.18.043-.312.063a10.25 10.25 0 0 1-.407.03c-.136.012-.277.024-.421.032a4.079 4.079 0 0 1-.344.016l-.969.03v-3.859h1.906v-.421zM6.157 1.22v-7.094h-.5v2.703H4.625V-5.75h-.5V.875h.5v-3.578h1.031v3.922zm0 0"/></symbol><symbol overflow="visible" id="y"><path d="M6.719.234v-.421H4.062v-2.735h-.484v2.735H2.313v-2.735h-.47v2.735H.235v.421zM1.047-5.453v.437h4.375c-.012.274-.035.567-.063.875-.03.305-.074.621-.125.954-.043.324-.09.648-.14.968-.055.324-.114.637-.172.938h.516c.132-.664.238-1.36.312-2.078.082-.715.145-1.414.188-2.094zm0 0"/></symbol><symbol overflow="visible" id="z"><path d="M5.781 1.266v-2.594H1.25v.437h4.016v2.157zm.985-4.313v-.422H5.78v-1.094h.985v-.421H5.78v-.891h-.515v4.172h.515v-1.344zm-6.36-.937c0 .25.04.488.125.703.09.21.223.398.39.562.153.156.345.285.563.375.215.094.457.14.72.14.257 0 .5-.046.718-.14.215-.09.406-.219.562-.375.153-.164.274-.351.36-.562.09-.215.14-.453.14-.703 0-.239-.05-.461-.14-.672a1.919 1.919 0 0 0-.36-.578 1.89 1.89 0 0 0-.562-.375c-.219-.09-.461-.141-.719-.141A1.795 1.795 0 0 0 .531-4.656c-.086.21-.125.433-.125.672zm.516 0c0-.364.11-.676.328-.938.227-.258.547-.39.953-.39.414 0 .735.132.953.39.215.262.328.574.328.938 0 .367-.113.68-.328.937-.219.262-.539.39-.953.39-.406 0-.726-.128-.953-.39a1.4 1.4 0 0 1-.328-.937zm0 0"/></symbol><symbol overflow="visible" id="A"><path d="M6.703-1.484v-.422H.25v.422h3v2.703h.516v-2.703zm-2.969-3.86v-.343h-.53v.343c0 .305-.083.582-.235.828a2.49 2.49 0 0 1-.61.641c-.25.18-.535.332-.843.453a5.516 5.516 0 0 1-.954.297c.06.063.13.137.204.219.082.086.144.148.187.187.258-.07.516-.16.766-.265a4.5 4.5 0 0 0 .718-.375c.215-.133.415-.297.594-.485a2.68 2.68 0 0 0 .453-.656c.102.242.243.46.422.656.184.188.39.352.61.485a3.5 3.5 0 0 0 .75.406c.257.105.504.183.734.234l.156-.219c.059-.07.13-.14.203-.203a5.364 5.364 0 0 1-.953-.28 3.54 3.54 0 0 1-.843-.5 2.205 2.205 0 0 1-.61-.626 1.473 1.473 0 0 1-.219-.797zm0 0"/></symbol><symbol overflow="visible" id="D"><path d="M.984 0c0 .383.211.703.641.953.434.258 1.05.39 1.844.39.808 0 1.43-.132 1.86-.39.425-.25.64-.57.64-.953 0-.395-.223-.719-.657-.969-.43-.258-1.042-.39-1.843-.39-.793 0-1.41.132-1.844.39-.43.25-.64.574-.64.969zM3.47.938c-.574 0-1.043-.083-1.406-.235-.368-.156-.547-.398-.547-.719 0-.3.18-.53.546-.687.364-.164.833-.25 1.407-.25.277 0 .539.023.781.062.246.043.46.106.64.188.165.074.301.176.407.297a.584.584 0 0 1 0 .797 1.387 1.387 0 0 1-.406.312c-.18.082-.395.14-.641.172-.242.04-.504.063-.781.063zm3.234-2.891v-.422H3.72v-1.203h2.25V-4H1.64v-1.844h-.5v2.266h2.093v1.203H.25v.422zm0 0"/></symbol><symbol overflow="visible" id="E"><path d="M3.86-.64v-4.766H.702v4.765zm-.5-.422H1.202v-3.922H3.36zm3.484-1.844v-.453H5.75v-2.516h-.531v7.094h.531v-4.125zm0 0"/></symbol><symbol overflow="visible" id="F"><path d="M5.969 1.125V.719H1.656v-.89h4.157v-1.673H1.14v.422h4.156v.828H1.14v1.719zm.734-3.64v-.422H3.375v-.86h-.5v.86H.25v.421zm-1.062-.86c.058-.32.117-.664.171-1.031.051-.364.086-.785.11-1.266H1.078v.422h4.328l-.031.36c0 .093-.008.183-.016.265-.375.031-.808.055-1.296.063-.493.011-.961.023-1.407.03H1v.391h2.359c.239-.007.47-.015.688-.015.238-.008.46-.02.672-.032.207-.007.398-.023.578-.046-.012.093-.024.18-.031.25l-.032.187a2.472 2.472 0 0 1-.046.203 2.447 2.447 0 0 0-.032.219zm0 0"/></symbol><symbol overflow="visible" id="G"><path d="M6.078 1.219v-7.094h-.5v2.578H4v.438h1.578v4.078zm-5.062-1.5a6.716 6.716 0 0 0 1.421-1.203 6.61 6.61 0 0 0 1-1.5 5.48 5.48 0 0 0 .407-1.157c.101-.402.172-.832.203-1.28H.953V-5H3.5c-.031.25-.082.512-.14.781a5.816 5.816 0 0 1-.22.719 20.51 20.51 0 0 1-1.218.063H.703v.421h1.125c.371-.007.75-.035 1.125-.078a5.04 5.04 0 0 1-.969 1.375A5.809 5.809 0 0 1 .516-.64c.058.043.144.106.25.188.113.074.195.133.25.172zm0 0"/></symbol><symbol overflow="visible" id="H"><path d="M6.703-1.39v-.438H.25v.437h1.797v2.547h.5V-1.39h1.86v2.61h.5v-2.61zm-.89-1.548v-2.656H1.14v2.657zm-.5-.421H1.64v-1.813h3.671zm0 0"/></symbol><symbol overflow="visible" id="I"><path d="M5.188-1.422a4.935 4.935 0 0 1-.47.094c-.179.031-.37.058-.577.078-.211.031-.426.059-.641.078a9.06 9.06 0 0 1-.563.047l-1.515.016v-4.422h-.5v4.89c.008 0 .07.008.187.016.121 0 .286-.004.485-.016h.625A13.56 13.56 0 0 0 3.53-.703c.215-.027.43-.055.64-.078.208-.028.4-.055.579-.078.176-.028.32-.063.438-.094zm.328-4.453v7.094h.5v-7.094zm0 0"/></symbol><symbol overflow="visible" id="J"><path d="M4.844.875V-5.75h-.5v2.531H3.156v.469h1.188V.875zm1.312.344v-7.094h-.5v7.094zM.781-.375c.364-.27.696-.566 1-.89.309-.32.582-.692.813-1.11.207-.395.367-.836.484-1.328.121-.488.195-1.04.219-1.656h-2.5v.421h2c0 .25-.027.508-.078.766-.055.25-.117.488-.188.703-.18.012-.379.024-.594.031h-.609a7.813 7.813 0 0 1-.484.016H.625v.406H1.844a4.98 4.98 0 0 0 .531-.046 4.61 4.61 0 0 1-.797 1.296A6.669 6.669 0 0 1 .297-.672c.058.031.14.082.234.14.102.055.188.106.25.157zm0 0"/></symbol><symbol overflow="visible" id="K"><path d="M.656-3c0 .492.051.91.156 1.25.102.344.235.621.391.828a1.364 1.364 0 0 0 1.125.61c.184 0 .379-.047.578-.141.196-.09.375-.25.531-.469.153-.207.286-.484.391-.828.102-.34.156-.758.156-1.25 0-.488-.054-.906-.156-1.25a2.87 2.87 0 0 0-.39-.828 1.621 1.621 0 0 0-.547-.453 1.315 1.315 0 0 0-.563-.14c-.187 0-.383.05-.578.14-.188.086-.367.23-.531.437-.168.211-.305.489-.407.828C.708-3.922.656-3.496.656-3zm.485 0c0-.29.023-.57.078-.844.05-.27.129-.508.234-.719.09-.207.211-.375.36-.5a.782.782 0 0 1 .515-.187c.195 0 .363.066.5.188.145.125.27.292.375.5.09.21.164.449.219.718a4.612 4.612 0 0 1 0 1.703 3.552 3.552 0 0 1-.219.72 1.54 1.54 0 0 1-.375.5.741.741 0 0 1-.5.171.79.79 0 0 1-.515-.172 1.28 1.28 0 0 1-.36-.5 2.633 2.633 0 0 1-.234-.719A4.314 4.314 0 0 1 1.14-3zm4.421-2.875v7.094h.5v-7.094zm0 0"/></symbol><symbol overflow="visible" id="L"><path d="M6.313 1.063V.625H2.125V-1.25h-.5v2.313zM6.093-.61v-5.266h-.5v.86H4.079v.437h1.516v.906H4.078v.438h1.516V-.61zM2.72-4.875v-.813h-.516v.813c0 .336-.055.645-.156.922a2.83 2.83 0 0 1-.39.765c-.18.243-.395.458-.641.641-.243.18-.508.336-.797.469.027.031.062.066.093.094.04.03.083.066.126.093.039.032.078.07.109.11a1.2 1.2 0 0 0 .11.078c.195-.113.39-.238.577-.375.184-.133.36-.281.516-.438.145-.164.281-.347.406-.546.121-.196.223-.407.297-.626.09.211.211.41.36.594.144.188.304.356.484.5.152.149.316.278.484.39.176.106.348.196.516.267.039-.06.094-.13.156-.204l.203-.203a3.109 3.109 0 0 1-.734-.39 3.123 3.123 0 0 1-.64-.579 2.558 2.558 0 0 1-.423-.718 2.452 2.452 0 0 1-.14-.844zm0 0"/></symbol><symbol overflow="visible" id="M"><path d="M6.094-.61v-5.265h-.5v2.156H4.078v.438h1.516V-.61zm.218 1.672V.625H2.125V-1.25h-.5v2.313zM.75-1.5a6.614 6.614 0 0 0 1.281-.688 4.862 4.862 0 0 0 1.047-.968c.258-.32.473-.68.64-1.078.165-.395.27-.829.313-1.297H.921v.422h2.563c-.03.199-.086.398-.156.593A3.3 3.3 0 0 1 3.11-4c-.199.023-.433.04-.703.047h-.75c-.242.012-.449.015-.625.015H.75v.391h.813c.214 0 .44-.004.671-.015.239-.008.446-.024.625-.047a4.445 4.445 0 0 1-1.093 1.015c-.461.305-.942.54-1.438.703.059.063.133.137.219.22.09.073.16.132.203.171zm0 0"/></symbol><symbol overflow="visible" id="N"><path d="M6.094-2.156v-3.719h-.5v1.234H3.937v.422h1.657v2.063zm.172 3.281V.703H2.109v-.828h3.985v-1.672H1.609v.422h3.97v.813h-3.97v1.687zM2.719-5.063v-.656h-.516v.625c0 .336-.055.633-.156.89a2.093 2.093 0 0 1-.422.673c-.188.199-.402.37-.64.515a4.486 4.486 0 0 1-.766.375 5.54 5.54 0 0 1 .437.36c.196-.09.39-.196.578-.313a3.748 3.748 0 0 0 .922-.86 2.14 2.14 0 0 0 .297-.562c.113.2.238.383.375.547.145.156.3.293.469.406.152.118.316.223.484.313.176.086.348.164.516.234a1.28 1.28 0 0 1 .156-.187c.059-.07.129-.145.203-.219a3.41 3.41 0 0 1-.734-.281 2.507 2.507 0 0 1-.64-.5 1.75 1.75 0 0 1-.423-.594 1.995 1.995 0 0 1-.14-.766zm0 0"/></symbol><symbol overflow="visible" id="O"><path d="M1.297.047c0 .383.207.695.625.937.426.239 1.031.36 1.812.36.77 0 1.364-.121 1.782-.36C5.93.742 6.14.43 6.14.047s-.211-.695-.625-.938c-.418-.246-1.012-.375-1.782-.375-.78 0-1.386.13-1.812.375-.418.243-.625.555-.625.938zm4.328 0a.584.584 0 0 1-.156.39 1.072 1.072 0 0 1-.39.282c-.169.082-.372.14-.61.172a4.53 4.53 0 0 1-1.5 0 2.54 2.54 0 0 1-.61-.188 1.01 1.01 0 0 1-.39-.281.59.59 0 0 1 0-.766 1.01 1.01 0 0 1 .39-.281c.176-.082.38-.14.61-.172a4.53 4.53 0 0 1 1.5 0c.238.031.441.09.61.172.163.074.296.168.39.281a.584.584 0 0 1 .156.39zm-.063-5.922v4.5h.485v-4.5zM5.22-2.687c-.356.062-.77.12-1.235.171-.468.055-.925.079-1.359.079l-1.344.015v-1.172h2.657v-.422H1.28v-1.156h2.735v-.422H.812V-2c.02 0 .098.008.235.016.144 0 .32-.004.531-.016h.672c.238-.008.46-.02.672-.031.164 0 .36-.008.578-.031.227-.02.445-.04.656-.063.215-.027.422-.055.61-.078.183-.027.336-.055.453-.078zm0 0"/></symbol><symbol overflow="visible" id="P"><path d="M1.047-5.453v.437h4.328c-.012.274-.035.567-.063.875-.03.313-.07.633-.109.954-.043.324-.098.652-.156.984-.055.324-.106.637-.156.937h.515c.133-.664.239-1.359.313-2.078.082-.726.14-1.43.172-2.11zM6.719.234v-.421H3.203V-2.97h-.5v2.781H.234v.422zm0 0"/></symbol><symbol overflow="visible" id="Q"><path d="M6.703-1.781v-.438H.25v.438h3.063v1.625h.5v-1.625zm-.64 2.843V.625H1.625V-1h-.484v2.063zm-.75-4.671H1.624v-1.625h3.688zm-4.172.421h4.671v-2.468H1.141zm0 0"/></symbol><symbol overflow="visible" id="Y"><path d="M.969-3.89c0 .242.039.464.125.671.082.211.207.395.375.547.152.156.343.285.562.375.215.094.461.14.735.14.246 0 .484-.046.703-.14.226-.09.414-.219.562-.375a1.52 1.52 0 0 0 .375-.547 1.668 1.668 0 0 0 0-1.344 1.59 1.59 0 0 0-.375-.546 1.532 1.532 0 0 0-.562-.36 1.893 1.893 0 0 0-1.438 0c-.219.086-.41.207-.562.36a1.49 1.49 0 0 0-.375.546c-.086.211-.125.434-.125.672zm.484 0c0-.352.113-.657.344-.907.226-.258.55-.39.969-.39.394 0 .707.132.937.39.227.25.344.555.344.906 0 .368-.117.676-.344.922-.23.242-.543.36-.937.36-.418 0-.743-.118-.97-.36-.23-.246-.343-.554-.343-.922zm4.703 5.109v-7.094h-.5v7.094zm-.734-2.36c-.156.024-.383.051-.672.079-.293.03-.602.058-.922.078a13.54 13.54 0 0 1-.922.062c-.281.012-.496.016-.64.016H.546v.437h1.47c.363 0 .71-.004 1.046-.015.34-.02.66-.04.954-.063.3-.02.57-.039.812-.062.238-.028.438-.055.594-.079zm0 0"/></symbol><symbol overflow="visible" id="Z"><path d="M3.797 1.36c.777 0 1.375-.133 1.781-.391.414-.25.625-.57.625-.953s-.21-.707-.625-.97c-.406-.257-1.004-.39-1.781-.39-.781 0-1.379.133-1.781.39-.407.263-.61.587-.61.97 0 .382.203.703.61.953.402.258 1 .39 1.78.39zM1.89.015c0-.301.175-.536.53-.704.352-.164.813-.25 1.376-.25.27 0 .52.028.75.079.238.043.441.105.61.187a.992.992 0 0 1 .405.297.63.63 0 0 1 .141.39.63.63 0 0 1-.14.391c-.094.114-.231.211-.407.297a2.358 2.358 0 0 1-.593.188c-.231.039-.481.062-.75.062-.575 0-1.04-.09-1.391-.265C2.066.52 1.89.292 1.89.015zm1.593-2.61H1.313v-1.375h2.171zm.47-.75v-.984h1.64v.984zm1.64.422v1.485h.5v-4.438h-.5v1.125h-1.64v-.86h-.47v1.22H1.313v-1.22h-.47v3.423h3.11v-.735zm0 0"/></symbol><symbol overflow="visible" id="aa"><path d="M2.766-3.328c.257 0 .492-.031.703-.094A1.76 1.76 0 0 0 4-3.703c.145-.113.254-.25.328-.406a1.04 1.04 0 0 0 0-.984A1.198 1.198 0 0 0 4-5.5a1.953 1.953 0 0 0-.531-.281c-.211-.07-.446-.11-.703-.11-.262 0-.496.04-.704.11-.21.074-.386.168-.53.281a1.3 1.3 0 0 0-.345.406c-.074.157-.109.32-.109.485 0 .18.035.347.11.5.07.148.187.277.343.39.145.125.32.227.532.297.207.063.44.094.703.094zm.015-.406c-.21 0-.394-.024-.547-.079a.976.976 0 0 1-.375-.203.793.793 0 0 1-.234-.28.65.65 0 0 1-.078-.313c0-.207.098-.407.297-.594.195-.195.504-.297.922-.297.402 0 .707.102.906.297.207.187.312.387.312.594 0 .105-.027.21-.078.312-.054.106-.129.2-.219.281a1.491 1.491 0 0 1-.906.281zM6.187-.406v-5.469h-.5v4.172h-1.75v.406h1.75v.89zm.157 1.453V.625H2.187v-1.36h-.515v1.782zm-.89-4c-.106.023-.263.05-.47.078-.21.023-.445.043-.703.063a14.5 14.5 0 0 1-.828.046c-.281.012-.55.016-.797.016l-2.172.016v.421h1.704v1.22h.484v-1.235c.215 0 .457-.004.719-.016.27-.008.53-.023.78-.047.259-.007.5-.023.72-.046.226-.028.414-.055.562-.079zm0 0"/></symbol><symbol overflow="visible" id="ab"><path d="M6.703-1.875v-.422H.25v.422h3.063v1.766h.5v-1.766zm-.64 2.938V.625H1.625V-1h-.484v2.063zM3.733-5.579v-.297h-.53v.297c0 .293-.083.558-.235.797-.156.23-.367.433-.625.61-.25.179-.528.331-.828.452a4.83 4.83 0 0 1-.907.281c.059.063.125.137.188.22a3.5 3.5 0 0 0 .172.171c.246-.058.504-.144.765-.25a4.04 4.04 0 0 0 .766-.39 3.25 3.25 0 0 0 .547-.47c.176-.183.32-.394.437-.624.102.242.243.457.422.64.184.188.395.352.625.485.227.156.469.289.719.39.258.106.5.18.719.22a.903.903 0 0 0 .078-.095l.094-.093.093-.094.11-.11a5.093 5.093 0 0 1-.953-.265 3.422 3.422 0 0 1-.875-.516 2.084 2.084 0 0 1-.563-.593 1.37 1.37 0 0 1-.219-.766zm0 0"/></symbol><symbol overflow="visible" id="ac"><path d="M5.203-1.797a4.751 4.751 0 0 1-.531.078 8.67 8.67 0 0 1-.64.047c-.22.024-.43.04-.626.047a7.23 7.23 0 0 1-.437.016v-.672c.426-.04.758-.149 1-.328.246-.176.375-.38.375-.61a.645.645 0 0 0-.125-.375 1.26 1.26 0 0 0-.344-.328 2.321 2.321 0 0 0-.531-.203c-.2-.05-.418-.078-.656-.078-.25 0-.477.027-.672.078-.2.055-.38.129-.532.219a1.082 1.082 0 0 0-.343.297.687.687 0 0 0-.11.375c0 .242.125.457.375.64.258.18.61.285 1.047.313v.672H.391v.406h2.5c.226 0 .453-.004.671-.016a8.67 8.67 0 0 0 .641-.047c.195-.02.379-.039.547-.062.176-.02.328-.04.453-.063zm-3.64-1.437c0-.176.097-.317.296-.422.207-.114.485-.172.829-.172.351 0 .628.058.828.172.195.105.296.246.296.422 0 .18-.101.324-.296.437-.2.106-.477.156-.829.156-.343 0-.62-.05-.828-.156-.199-.113-.296-.258-.296-.437zm4.609 4.296V.625H2.078V-.703h-.5v1.765zm.766-4.187v-.438H5.921v-2.312h-.5v5.469h.5v-2.719zM3.655-5.5v-.39H1.703v.39zm.953.938v-.391H.72v.39zm0 0"/></symbol><symbol overflow="visible" id="ad"><path d="M6.078 1.219v-7.094h-.5v7.094zM.953-5.421v.437h2.5c-.043.449-.137.87-.281 1.265-.137.399-.309.77-.516 1.11a5.224 5.224 0 0 1-.937 1.093c-.356.325-.77.614-1.235.86.059.043.145.101.25.172.114.074.192.136.235.187a7.388 7.388 0 0 0 1.265-1.031c.371-.383.692-.805.954-1.266.226-.402.41-.844.546-1.312.145-.477.235-.985.266-1.516zm0 0"/></symbol><symbol overflow="visible" id="ae"><path d="M3.828-1.25c-.074.023-.18.043-.312.063a10.25 10.25 0 0 1-.407.03c-.136.012-.277.024-.421.032a4.079 4.079 0 0 1-.344.016l-.953.03v-4.437h-.5v4.907h.875c.164-.008.332-.02.5-.032.132 0 .28-.004.437-.015.152-.008.305-.024.453-.047.145-.008.274-.02.39-.031l.282-.047zm2.328 2.469v-7.094h-.5v2.703H4.625V-5.75h-.5V.875h.5v-3.578h1.031v3.922zm0 0"/></symbol><symbol overflow="visible" id="af"><path d="M3.906-1.86c.051-.257.098-.546.14-.859.04-.32.071-.648.095-.984.027-.32.05-.633.062-.938.02-.3.035-.566.047-.796H.703v.421h3.031c0 .25-.011.524-.03.813-.024.281-.052.566-.079.844-.031.28-.07.558-.11.828-.03.261-.066.488-.093.672zm1.172.844a6.082 6.082 0 0 1-.61.094c-.261.024-.534.043-.812.063-.281.011-.554.027-.812.046-.262.012-.465.016-.61.016v-2.5H1.75v2.5H.328v.438h1.266c.277 0 .586-.004.922-.016.34-.02.675-.04 1-.063.308-.019.609-.039.89-.062.278-.027.504-.055.672-.078zm.234-4.859v7.094h.516V-2.47H6.86v-.453H5.83v-2.953zm0 0"/></symbol><symbol overflow="visible" id="ag"><path d="M1.39-.047c0 .184.051.363.157.531.101.176.254.329.453.454.195.132.445.238.75.312.3.07.648.11 1.047.11.777 0 1.375-.145 1.781-.423.414-.273.625-.601.625-.984s-.21-.71-.625-.984c-.406-.278-1.004-.422-1.781-.422-.793 0-1.395.144-1.797.422-.406.273-.61.601-.61.984zm.5 0c0-.3.176-.539.532-.719.351-.175.816-.265 1.39-.265.551 0 1 .09 1.344.265.352.18.532.418.532.72 0 .308-.18.554-.532.734-.343.175-.793.265-1.343.265-.575 0-1.04-.09-1.391-.265-.356-.18-.531-.426-.531-.735zm2.063-4.406h1.64v.922h-1.64zm0 2.14v-.796h1.64v1.562h.5v-4.328h-.5v1h-1.64v-.656H.843v3.218zm-.469-.421H1.313V-5.11h2.171zm0 0"/></symbol><symbol overflow="visible" id="ah"><path d="M6.313 1.063V.625H2.125V-1.25h-.5v2.313zM2.358-2.531c-.406 0-.726-.133-.953-.406-.218-.27-.328-.602-.328-1 0-.395.11-.727.328-1 .227-.27.547-.407.953-.407.403 0 .72.137.938.407.226.273.344.605.344 1 0 .398-.118.73-.344 1-.219.273-.535.406-.938.406zm1.704-.813c.027-.09.05-.187.062-.281.02-.102.031-.207.031-.313a1.73 1.73 0 0 0-.031-.312 5.447 5.447 0 0 0-.078-.297h1.547v1.203zm2.03 2.75v-5.281h-.5v.89H3.86a1.816 1.816 0 0 0-.625-.577 1.715 1.715 0 0 0-.875-.235c-.273 0-.52.055-.734.156-.219.094-.41.227-.563.391-.156.18-.285.383-.375.61a1.918 1.918 0 0 0-.125.702c0 .262.04.508.125.735.09.219.22.414.375.578.153.168.344.305.563.406.215.094.46.14.734.14.32 0 .614-.07.875-.218.258-.152.473-.36.641-.61h1.719v2.313zm0 0"/></symbol><symbol overflow="visible" id="ai"><path d="M5.578-2.406c.027-.207.063-.442.094-.703.039-.258.07-.532.094-.813.027-.289.054-.578.078-.86.02-.288.035-.562.047-.812H1.016v.422h4.359c-.031.469-.074.93-.125 1.375-.043.45-.105.914-.188 1.39H.234v.423h2.907v3.203h.515v-3.203H6.72v-.422zm0 0"/></symbol><symbol overflow="visible" id="aj"><path d="M6.703-2.25v-.422H.25v.438h2.969v.937c-.719.031-1.278.176-1.672.422-.399.25-.594.555-.594.906 0 .383.219.703.656.953.446.246 1.067.375 1.86.375.8 0 1.422-.129 1.86-.375.433-.25.655-.57.655-.953 0-.351-.199-.656-.593-.906-.387-.246-.942-.39-1.657-.422v-.953zM1.5.031c0-.3.18-.535.547-.703.371-.164.848-.25 1.422-.25.277 0 .539.027.781.078.246.043.457.106.625.188.176.086.313.183.406.297a.584.584 0 0 1 .157.39.584.584 0 0 1-.157.39c-.093.114-.23.208-.406.282a2.37 2.37 0 0 1-.625.188c-.242.039-.504.062-.781.062-.574 0-1.051-.086-1.422-.25C1.68.535 1.5.31 1.5.031zm2.266-5.265h2.093v-.422H1.08v.422h2.109c-.032.23-.122.43-.266.593-.149.168-.332.32-.547.454a3.66 3.66 0 0 1-.844.359 8.84 8.84 0 0 1-.906.234c.059.063.125.133.188.203.058.075.113.137.156.188.289-.059.566-.133.828-.219.27-.082.52-.191.75-.328.195-.102.375-.227.531-.375.152-.152.29-.332.406-.531.121.242.29.445.5.61.207.167.438.308.688.421.215.105.437.195.656.266.227.062.442.117.64.156a.903.903 0 0 0 .079-.094l.094-.094a.762.762 0 0 1 .078-.093l.11-.11a9.306 9.306 0 0 1-.86-.203 3.89 3.89 0 0 1-.797-.344 2.069 2.069 0 0 1-.61-.453 1.076 1.076 0 0 1-.296-.64zm0 0"/></symbol><symbol overflow="visible" id="ak"><path d="M6.156 1.219v-7.094h-.5v2.703h-.953V-5.75h-.5V.875h.5v-3.578h.953v3.922zM3.25-5.36H.719v.421H2.75a4.801 4.801 0 0 1-.188 1.235 4.871 4.871 0 0 1-.437 1.078c-.2.375-.457.727-.766 1.047A7.621 7.621 0 0 1 .25-.672c.07.031.156.082.25.14.102.055.18.106.234.157.403-.3.77-.633 1.094-1a5.32 5.32 0 0 0 .844-1.25c.164-.363.3-.77.406-1.219.102-.457.16-.96.172-1.515zm0 0"/></symbol><symbol overflow="visible" id="al"><path d="M3.734-5v-.563H3.22V-5c0 .313-.074.617-.219.906-.148.282-.348.551-.594.797-.25.25-.543.477-.875.672-.324.188-.664.34-1.015.453.09.074.175.149.25.219.07.062.132.133.187.203.258-.113.52-.242.781-.39a5.08 5.08 0 0 0 .735-.532c.226-.195.43-.41.61-.64.175-.227.312-.47.405-.72.07.25.204.497.391.735.184.242.406.461.656.656.227.211.473.395.735.547.27.149.52.258.75.328.05-.07.109-.14.171-.203.07-.07.145-.14.22-.203a3.555 3.555 0 0 1-.938-.406 3.998 3.998 0 0 1-.828-.64 3.329 3.329 0 0 1-.657-.845A1.95 1.95 0 0 1 3.734-5zM3.72-2.172h-.5v1.985H.234v.421H6.72v-.421h-3zm0 0"/></symbol><symbol overflow="visible" id="am"><path d="M6.266 1.125V.703H2.109v-.828h3.985v-1.672H1.609v.422h3.97v.813h-3.97v1.687zm-.672-7v3.719h.5v-3.719zm-2.875.813v-.657h-.516v.625c0 .336-.055.633-.156.89a2.093 2.093 0 0 1-.422.673c-.188.199-.402.37-.64.515a4.486 4.486 0 0 1-.766.375 5.54 5.54 0 0 1 .437.36c.196-.09.39-.196.578-.313a3.748 3.748 0 0 0 .922-.86 2.14 2.14 0 0 0 .297-.562c.113.2.238.383.375.547.145.156.3.293.469.406.152.118.316.223.484.313.176.086.348.164.516.234a1.28 1.28 0 0 1 .156-.187c.059-.07.129-.145.203-.219a3.41 3.41 0 0 1-.734-.281 2.507 2.507 0 0 1-.64-.5 1.75 1.75 0 0 1-.423-.594 1.995 1.995 0 0 1-.14-.766zm0 0"/></symbol><symbol overflow="visible" id="an"><path d="M6.219 1.14v-2.327H1.75V1.14zm-.5-.421H2.25V-.766h3.469zm.5-2.297v-4.297h-.5v2.25h-1.25v.438h1.25v1.609zM2.53-4.016c-.25 0-.48.036-.687.094-.211.055-.395.133-.547.235a1.243 1.243 0 0 0-.344.359.909.909 0 0 0-.11.437c0 .157.036.305.11.438.082.137.195.258.344.36.144.093.32.175.531.234.207.062.442.093.703.093.52 0 .93-.109 1.235-.328.308-.215.468-.484.468-.797 0-.308-.152-.578-.453-.796-.304-.215-.722-.329-1.25-.329zM3.72-2.89c0 .22-.106.387-.313.5-.21.118-.504.172-.875.172-.375 0-.668-.054-.875-.172a.543.543 0 0 1-.297-.5c0-.226.098-.406.297-.53.207-.122.5-.188.875-.188.371 0 .664.066.875.187a.594.594 0 0 1 .313.531zm-.156-2.578v-.406H1.469v.406zm.984 1.016v-.422H.53v.422zm0 0"/></symbol><symbol overflow="visible" id="ao"><path d="M5.813-2.578v-3.125h-.5v1H1.64v-1h-.5v3.125zM5.313-3H1.64v-1.297h3.671zm1.39 1.766v-.422H.25v.422h3v2.453h.516v-2.453zm0 0"/></symbol><symbol overflow="visible" id="ap"><path d="M6.953-3.797v-.437H5.922v-1.641h-.484v4.328h.484v-2.25zM1.453-.03c0 .383.192.707.578.969.395.269.985.406 1.766.406.371 0 .703-.04.984-.11.29-.062.535-.164.735-.296.183-.118.328-.262.421-.438.102-.168.157-.348.157-.531 0-.371-.2-.696-.594-.969-.387-.27-.957-.406-1.703-.406-.399 0-.742.043-1.031.125-.293.074-.54.176-.735.297a1.18 1.18 0 0 0-.437.453c-.094.168-.14.336-.14.5zm.516.015c0-.289.16-.523.484-.703C2.785-.902 3.234-1 3.797-1c.527 0 .957.098 1.281.281.332.18.5.414.5.703 0 .133-.05.258-.14.375a1.303 1.303 0 0 1-.36.313 1.87 1.87 0 0 1-.562.203c-.22.05-.461.078-.72.078-.562 0-1.01-.098-1.343-.281C2.13.484 1.97.254 1.97-.016zM.797-5.109H2.28v.171c0 .336-.054.637-.156.907a2.747 2.747 0 0 1-1.016 1.328c-.25.18-.523.332-.812.453.027.023.062.05.094.078.039.031.082.067.125.094.039.031.078.066.109.094l.11.062c.195-.09.394-.203.593-.328a3.13 3.13 0 0 0 .531-.453c.145-.145.274-.305.391-.485a3.07 3.07 0 0 0 .281-.593c.09.199.203.379.328.531.121.148.258.285.407.406.175.149.359.278.546.39.184.118.376.224.563.313a.714.714 0 0 1 .156-.187c.07-.059.14-.125.203-.188a3.673 3.673 0 0 1-.75-.359 2.878 2.878 0 0 1-.64-.547 1.973 1.973 0 0 1-.406-.672 2.316 2.316 0 0 1-.141-.828v-.187H4.25v-.422H.797zm0 0"/></symbol><symbol overflow="visible" id="S"><path d="M4.078-9.61c-.918 0-1.613.223-2.078.657-.469.43-.73 1.105-.781 2.031-.043.5-.063.988-.063 1.453.008.469.032.934.063 1.39.039.888.312 1.556.812 2 .496.45 1.18.673 2.047.673.82 0 1.488-.219 2-.657.52-.445.813-1.117.875-2.015.008-.215.016-.438.016-.656.008-.227.015-.454.015-.672 0-.239-.007-.477-.015-.719a16.588 16.588 0 0 1-.016-.781c-.031-.926-.316-1.61-.844-2.047-.523-.434-1.199-.656-2.03-.656zm1.688 5.422c-.032.618-.207 1.067-.516 1.344-.305.274-.695.406-1.172.406-.5 0-.898-.128-1.187-.39-.282-.258-.442-.719-.47-1.375a18.063 18.063 0 0 1 0-2.578c.028-.676.192-1.145.485-1.407.29-.269.68-.406 1.172-.406.508 0 .91.145 1.203.422.29.274.453.73.485 1.375.007.461.015.902.015 1.328 0 .418-.008.848-.015 1.282zm3.406 5.704h1.265V-10.22l-1.265.235zm0 0"/></symbol><symbol overflow="visible" id="U"><path d="M9.734-6.344v-3.875l-1.265.203V1.516h1.265v-6.813h1.875v-1.047zm-6.468-.781c0 .523-.055.988-.157 1.39a3.88 3.88 0 0 1-.515 1.141 6.382 6.382 0 0 1-.969 1.14c-.398.376-.895.802-1.484 1.267l.78.796a22.38 22.38 0 0 0 1.75-1.484 7.155 7.155 0 0 0 1.126-1.344 46.226 46.226 0 0 0 2.594 2.64l.843-.75c-.468-.401-.96-.866-1.468-1.39a22.65 22.65 0 0 1-1.47-1.64c.071-.258.126-.536.157-.829.04-.289.063-.609.063-.953v-1.156c0-.277-.024-.55-.063-.812a4.133 4.133 0 0 0-.187-.813l-1.204.39c.051.169.098.352.141.548.04.187.063.382.063.578zm0 0"/></symbol></defs><g fill="#393536"><use xlink:href="#a" x="42.468" y="48.426"/><use xlink:href="#b" x="48.041" y="48.426"/><use xlink:href="#c" x="53.614" y="48.426"/></g><g fill="#231f20"><use xlink:href="#d" x="74.885" y="47.763"/><use xlink:href="#e" x="82.886" y="47.763"/><use xlink:href="#f" x="85.492" y="47.763"/><use xlink:href="#g" x="88.099" y="47.763"/><use xlink:href="#f" x="96.1" y="47.763"/><use xlink:href="#h" x="98.706" y="47.763"/></g><use xlink:href="#i" x="365.225" y="323.714" fill="#8a8e98"/><g fill="#33459a"><use xlink:href="#j" x="374.729" y="324.314"/><use xlink:href="#k" x="386.265" y="324.314"/><use xlink:href="#l" x="397.801" y="324.314"/></g><g fill="#231f20"><use xlink:href="#m" x="365.225" y="340.898"/><use xlink:href="#n" x="372.123" y="340.898"/><use xlink:href="#o" x="379.021" y="340.898"/><use xlink:href="#p" x="385.919" y="340.898"/><use xlink:href="#q" x="392.817" y="340.898"/><use xlink:href="#r" x="399.715" y="340.898"/><use xlink:href="#s" x="406.613" y="340.898"/><use xlink:href="#t" x="408.861" y="340.898"/><use xlink:href="#u" x="415.759" y="340.898"/></g><g fill="#231f20"><use xlink:href="#m" x="365.225" y="353.3"/><use xlink:href="#v" x="372.123" y="353.3"/><use xlink:href="#w" x="379.021" y="353.3"/><use xlink:href="#x" x="385.919" y="353.3"/><use xlink:href="#r" x="392.817" y="353.3"/><use xlink:href="#y" x="399.715" y="353.3"/><use xlink:href="#s" x="406.613" y="353.3"/><use xlink:href="#z" x="408.861" y="353.3"/><use xlink:href="#r" x="415.759" y="353.3"/><use xlink:href="#x" x="422.657" y="353.3"/><use xlink:href="#r" x="429.555" y="353.3"/><use xlink:href="#s" x="436.453" y="353.3"/><use xlink:href="#y" x="438.701" y="353.3"/><use xlink:href="#A" x="445.599" y="353.3"/></g><use xlink:href="#i" x="363.809" y="638.967" fill="#8a8e98"/><g fill="#33459a"><use xlink:href="#j" x="373.313" y="639.566"/><use xlink:href="#B" x="384.849" y="639.566"/><use xlink:href="#C" x="396.385" y="639.566"/></g><g fill="#231f20"><use xlink:href="#m" x="363.809" y="656.15"/><use xlink:href="#D" x="370.707" y="656.15"/><use xlink:href="#r" x="377.605" y="656.15"/><use xlink:href="#s" x="384.503" y="656.15"/><use xlink:href="#t" x="386.751" y="656.15"/><use xlink:href="#u" x="393.649" y="656.15"/></g><g fill="#231f20"><use xlink:href="#m" x="363.809" y="668.552"/><use xlink:href="#E" x="370.707" y="668.552"/><use xlink:href="#F" x="377.605" y="668.552"/><use xlink:href="#G" x="384.503" y="668.552"/><use xlink:href="#H" x="391.401" y="668.552"/><use xlink:href="#I" x="398.299" y="668.552"/><use xlink:href="#J" x="405.197" y="668.552"/><use xlink:href="#K" x="412.095" y="668.552"/><use xlink:href="#L" x="418.994" y="668.552"/><use xlink:href="#s" x="425.892" y="668.552"/><use xlink:href="#M" x="428.139" y="668.552"/><use xlink:href="#N" x="435.037" y="668.552"/><use xlink:href="#O" x="441.935" y="668.552"/><use xlink:href="#s" x="448.833" y="668.552"/><use xlink:href="#P" x="451.081" y="668.552"/><use xlink:href="#Q" x="457.979" y="668.552"/></g><g clip-path="url(#R)"><path d="M-15.57 410.852h1230.156" fill="none" stroke-width=".499395" stroke="#cabfbb" stroke-dasharray="2.003,2.003"/></g><g fill="#fff"><use xlink:href="#S" x="52.123" y="165.5"/><use xlink:href="#T" x="64.008" y="165.5"/><use xlink:href="#T" x="68.203" y="165.5"/><use xlink:href="#U" x="72.398" y="165.5"/></g><use xlink:href="#i" x="192.805" y="639.673" fill="#8a8e98"/><g fill="#33459a"><use xlink:href="#V" x="202.309" y="640.272"/><use xlink:href="#W" x="213.845" y="640.272"/><use xlink:href="#X" x="225.381" y="640.272"/></g><g fill="#231f20"><use xlink:href="#m" x="192.805" y="656.856"/><use xlink:href="#K" x="199.703" y="656.856"/><use xlink:href="#r" x="206.601" y="656.856"/><use xlink:href="#s" x="213.499" y="656.856"/><use xlink:href="#Y" x="215.747" y="656.856"/><use xlink:href="#r" x="222.645" y="656.856"/><use xlink:href="#s" x="229.543" y="656.856"/><use xlink:href="#t" x="231.79" y="656.856"/><use xlink:href="#u" x="238.688" y="656.856"/></g><g fill="#231f20"><use xlink:href="#m" x="192.805" y="669.258"/><use xlink:href="#v" x="199.703" y="669.258"/><use xlink:href="#w" x="206.601" y="669.258"/><use xlink:href="#x" x="213.499" y="669.258"/><use xlink:href="#r" x="220.397" y="669.258"/><use xlink:href="#y" x="227.295" y="669.258"/><use xlink:href="#Z" x="234.193" y="669.258"/><use xlink:href="#aa" x="241.091" y="669.258"/><use xlink:href="#s" x="247.989" y="669.258"/><use xlink:href="#ab" x="250.237" y="669.258"/><use xlink:href="#ac" x="257.135" y="669.258"/><use xlink:href="#ad" x="264.033" y="669.258"/><use xlink:href="#ae" x="270.931" y="669.258"/><use xlink:href="#af" x="277.829" y="669.258"/><use xlink:href="#s" x="284.727" y="669.258"/><use xlink:href="#y" x="286.974" y="669.258"/><use xlink:href="#A" x="293.872" y="669.258"/></g><use xlink:href="#m" x="192.805" y="681.66" fill="#231f20"/><use xlink:href="#s" x="199.703" y="681.66" fill="#231f20"/><g fill="#231f20"><use xlink:href="#Y" x="199.703" y="681.66"/><use xlink:href="#p" x="206.601" y="681.66"/><use xlink:href="#ag" x="213.499" y="681.66"/><use xlink:href="#ah" x="220.397" y="681.66"/><use xlink:href="#ai" x="227.295" y="681.66"/><use xlink:href="#aa" x="234.193" y="681.66"/><use xlink:href="#s" x="241.091" y="681.66"/><use xlink:href="#aj" x="243.339" y="681.66"/><use xlink:href="#ak" x="250.237" y="681.66"/><use xlink:href="#Y" x="257.135" y="681.66"/><use xlink:href="#r" x="264.033" y="681.66"/><use xlink:href="#ah" x="270.931" y="681.66"/><use xlink:href="#ai" x="277.829" y="681.66"/><use xlink:href="#al" x="284.727" y="681.66"/><use xlink:href="#s" x="291.625" y="681.66"/><use xlink:href="#ah" x="293.872" y="681.66"/><use xlink:href="#ai" x="300.77" y="681.66"/></g><g fill="#231f20"><use xlink:href="#am" x="199.703" y="692.647"/><use xlink:href="#an" x="206.601" y="692.647"/><use xlink:href="#ao" x="213.499" y="692.647"/><use xlink:href="#s" x="220.397" y="692.647"/><use xlink:href="#ao" x="222.645" y="692.647"/><use xlink:href="#ap" x="229.543" y="692.647"/></g></svg>