<svg xmlns="http://www.w3.org/2000/svg" xmlns:xlink="http://www.w3.org/1999/xlink" width="793.701" height="1058.268" viewBox="0 0 595.276 793.701" version="1.2"><defs><symbol overflow="visible" id="a"><path d="M5.172-5.844h-.719V.453h.719zM1.859.453h.985l1.375-6.297h-.844L2.359-.5 1.344-5.844H.5zm4.454-6.297h-.72V.453h.72zm1.14 0H6.72V.453h.734zm0 0"/></symbol><symbol overflow="visible" id="b"><path d="M.75.047v1.016h1.031V.046zm0 0"/></symbol><symbol overflow="visible" id="d"><path d="M7.781.375v-.656H4.406v-2.016h2.532v-.625H2.016v-2.64h4.843v-.641H1.281v3.906h2.36V-.28H.28v.656zm0 0"/></symbol><symbol overflow="visible" id="e"><path d="M4.031-3.703c.903 0 1.61-.133 2.11-.406.507-.278.765-.641.765-1.079 0-.433-.258-.796-.765-1.078-.5-.277-1.207-.421-2.11-.421-.906 0-1.617.144-2.125.421-.5.282-.75.637-.75 1.063 0 .45.25.816.75 1.094.508.273 1.219.406 2.125.406zm0-.563c-.617 0-1.117-.082-1.5-.25-.386-.164-.578-.394-.578-.687 0-.29.188-.516.563-.672.382-.164.89-.25 1.515-.25.59 0 1.082.086 1.469.25.395.156.594.387.594.688 0 .28-.196.507-.578.671-.387.168-.883.25-1.485.25zm3.735 1.907V-3H.28v.64h3.344v.97H1.281V1.28h5.5V-1.39H4.406v-.968zM6.03.64H2.016V-.75H6.03zm0 0"/></symbol><symbol overflow="visible" id="f"><path d="M4.453-5.703H6.86v-.64H1.203v.64H3.61a1.592 1.592 0 0 1-.28.781 2.65 2.65 0 0 1-.657.625 4.407 4.407 0 0 1-.938.484c-.355.137-.73.247-1.125.329.09.093.192.195.297.296.102.106.192.196.266.266.3-.07.598-.164.89-.281.301-.121.583-.27.844-.438.239-.144.453-.304.64-.484.196-.184.36-.398.485-.64.145.28.336.535.578.75.246.21.516.382.797.515.246.148.504.27.766.36.258.093.504.167.734.218a10.541 10.541 0 0 1 .516-.562 6.363 6.363 0 0 1-.984-.266 3.935 3.935 0 0 1-.891-.438 2.91 2.91 0 0 1-.75-.64c-.2-.258-.317-.55-.344-.875zm3.313 4.187v-.625H.28v.625h3.39V1.36h.782v-2.875zm0 0"/></symbol><symbol overflow="visible" id="g"><path d="M7.125-.75v-5.875h-.75V-.75zM3.219-5.438v-1h-.781v1c0 .344-.06.668-.172.97a2.83 2.83 0 0 1-.422.78c-.211.274-.457.512-.735.72-.28.198-.586.37-.906.515.102.086.219.18.344.281.121.094.223.176.297.235.207-.102.41-.227.61-.375.206-.145.398-.305.577-.485.176-.164.332-.351.469-.562.145-.207.254-.422.328-.641.102.219.238.43.406.625.164.188.344.363.532.516.175.148.359.277.546.39.184.117.368.215.547.297a6.792 6.792 0 0 1 .516-.578 3.319 3.319 0 0 1-1.516-1.031 2.687 2.687 0 0 1-.468-.75 2.312 2.312 0 0 1-.172-.907zm4.125 6.641v-.64h-4.75v-1.938h-.766v2.578zm0 0"/></symbol><symbol overflow="visible" id="h"><path d="M6.797-3.344v-3.203h-.75v.984H2v-.984h-.734v3.203zm-.75-.64H2v-.97h4.047zm1.719 2.109v-.64H.28v.64h3.485v1.719h.75v-1.719zm-.704 3.078v-.64H2.016V-1.11H1.28v2.312zm0 0"/></symbol><symbol overflow="visible" id="i"><path d="M6.875-3.984v-.594H2.031v-1.234h4.75v-.594h-5.5v2.422zm.89 1.312v-.61H.282v.61zm-.812 3.969V.703H2.11v-.75h4.672v-1.89h-5.5v.593h4.672v.719H1.281v1.922zm0 0"/></symbol><symbol overflow="visible" id="j"><path d="M7.11-.75v-5.875h-.75V-.75zM.61-4.406c0 .281.05.554.156.812.101.25.242.477.421.672.196.18.422.324.672.438.258.117.551.171.875.171.301 0 .582-.054.844-.171.258-.114.485-.258.672-.438.184-.195.332-.422.438-.672a2.21 2.21 0 0 0 .156-.812c0-.29-.055-.563-.157-.813a2.292 2.292 0 0 0-.437-.687 2.083 2.083 0 0 0-.672-.438 2.102 2.102 0 0 0-.844-.172c-.324 0-.617.059-.875.172-.25.106-.476.254-.671.438-.18.199-.32.43-.422.687-.106.25-.157.524-.157.813zm.765 0c0-.403.113-.75.344-1.032.238-.289.578-.437 1.015-.437.426 0 .758.148 1 .438.239.28.36.628.36 1.03 0 .4-.121.739-.36 1.016-.242.282-.574.422-1 .422-.437 0-.777-.14-1.015-.422-.23-.277-.344-.617-.344-1.015zm5.969 5.61V.562H2.562v-1.985h-.75v2.625zm0 0"/></symbol><symbol overflow="visible" id="k"><path d="M6.781-4.016v-2.39H1.266v2.39zm-.734-.593H2v-1.204h4.047zm1.719 1.875v-.61H.28v.61h3.344v.796H1.281v.594h4.672v.719H1.281v1.922h5.672V.703H2.11v-.75h4.672v-1.89H4.406v-.797zm0 0"/></symbol><symbol overflow="visible" id="l"><path d="M4.438-5.656v-.657h-.813v.657c0 .355-.086.695-.25 1.015a3.377 3.377 0 0 1-.64.875 4.663 4.663 0 0 1-.985.72c-.375.21-.77.378-1.172.5.113.116.219.226.313.327.101.094.191.184.265.266.301-.102.598-.238.89-.406.29-.164.563-.348.813-.547a4.4 4.4 0 0 0 .688-.688c.195-.246.36-.508.484-.781.114.273.274.54.485.797.207.25.445.48.718.687.27.22.551.414.844.579.29.156.567.277.828.359.07-.09.157-.188.25-.281.09-.102.192-.204.297-.297a4.6 4.6 0 0 1-1.078-.438 4.765 4.765 0 0 1-.953-.719 3.478 3.478 0 0 1-.719-.921 2.217 2.217 0 0 1-.266-1.047zM7.78.359v-.64H4.406v-2.016h-.765V-.28H.28v.64zm0 0"/></symbol><symbol overflow="visible" id="m"><path d="M7.203 1.375v-8h-.75v2.969h-1V-6.5H4.72V.984h.734v-3.921h1v4.312zM.781-6.063v.641h2.25c-.023.461-.09.899-.203 1.313a5.194 5.194 0 0 1-.453 1.156A6.445 6.445 0 0 1 1.5-1.781a6.913 6.913 0 0 1-1.219.984c.102.063.223.137.36.219.144.086.257.164.343.234a7.75 7.75 0 0 0 1.25-1.14c.364-.426.672-.91.922-1.454.184-.425.332-.894.438-1.406a9.83 9.83 0 0 0 .203-1.718zm0 0"/></symbol><symbol overflow="visible" id="n"><path d="M3.422-7.313a.124.124 0 0 0-.031-.078.119.119 0 0 0-.079-.062.133.133 0 0 0-.078 0 .589.589 0 0 0-.078.047l-1.844.828a.934.934 0 0 0-.218.078c-.086.043-.125.102-.125.172 0 .043.008.082.031.11a.143.143 0 0 0 .094.03c.05 0 .113-.015.187-.046.07-.028.133-.051.188-.063l.687-.312c.051-.02.102-.04.156-.063a.364.364 0 0 1 .172-.047c.07 0 .118.024.141.063.02.043.031.097.031.156v5.078c0 .367-.043.617-.125.75-.074.125-.316.188-.719.188-.25 0-.414.011-.484.03-.074.013-.11.052-.11.11 0 .063.016.106.048.125.027.024.082.032.156.032h3.094c.058 0 .109-.008.14-.032.028-.02.047-.054.047-.11 0-.058-.02-.1-.047-.124a.278.278 0 0 0-.14-.031h-.329c-.375 0-.601-.079-.671-.235-.063-.164-.094-.41-.094-.734zm0 0"/></symbol><symbol overflow="visible" id="o"><path d="M.594.953c.09 0 .258-.058.5-.172C1.34.664 1.5.59 1.562.562c.333-.18.657-.37.97-.578.308-.207.609-.43.89-.671a7.089 7.089 0 0 0 1.36-1.672 3.96 3.96 0 0 0 .562-2.063c0-.371-.067-.75-.188-1.125a2.87 2.87 0 0 0-.547-1.016 2.51 2.51 0 0 0-.828-.656 2.134 2.134 0 0 0-1.031-.265c-.7 0-1.277.261-1.734.78a2.635 2.635 0 0 0-.688 1.798c0 .586.192 1.09.578 1.515.383.43.88.641 1.485.641.195 0 .382-.023.562-.078a1.77 1.77 0 0 0 .5-.235.762.762 0 0 0 .094-.078c.027-.039.047-.078.047-.109a.17.17 0 0 0-.031-.078c-.024-.027-.043-.047-.063-.047-.055 0-.145.055-.266.156-.125.094-.304.14-.53.14-.556 0-.962-.233-1.22-.702A3.072 3.072 0 0 1 1.11-5.22c0-.308.051-.593.157-.843.101-.247.242-.477.421-.688a1.2 1.2 0 0 1 .438-.344c.184-.082.375-.125.563-.125.34 0 .632.114.874.328.239.22.426.465.563.735a5.4 5.4 0 0 1 .313.812c.082.293.125.586.125.875 0 .563-.13 1.106-.375 1.625a8.026 8.026 0 0 1-.875 1.438A7.447 7.447 0 0 1 2.187-.25C1.75.102 1.293.39.829.61a1.935 1.935 0 0 0-.203.078c-.094.05-.14.101-.14.156 0 .027.007.054.03.078a.11.11 0 0 0 .079.031zm0 0"/></symbol><symbol overflow="visible" id="p"><path d="M4.297-2.078c0-.227.016-.348.047-.36.027-.007.203-.015.515-.015h.407c.039 0 .066-.008.078-.031.02-.02.031-.051.031-.094 0-.04-.008-.086-.016-.14 0-.06-.023-.095-.062-.095h-.875c-.074-.007-.117-.046-.125-.109V-5.266v-.25c0-.132-.04-.191-.11-.171l-.609.265c-.043 0-.062.024-.062.063a.427.427 0 0 1 .015.093v2.063c0 .219-.011.348-.031.375-.023.023-.137.031-.344.031h-2.11c-.023 0-.081.008-.171.016-.094.011-.14-.016-.14-.078 0-.028.03-.082.093-.157.059-.082.098-.129.11-.14l3.75-4.922c.007-.02.019-.04.03-.063.02-.02.032-.039.032-.062 0-.04-.02-.067-.047-.078a.427.427 0 0 0-.094-.016c-.074 0-.129.012-.156.031a.572.572 0 0 0-.11.11L.5-3.046c-.043.062-.09.12-.14.171a.378.378 0 0 0-.079.203c0 .149.02.219.063.219H3.14c.207 0 .32.012.343.031.028.024.047.137.047.344v.969c0 .136-.008.273-.015.406 0 .125-.086.21-.25.25a.566.566 0 0 1-.22.047h-.218a.429.429 0 0 0-.156.031c-.055.023-.078.066-.078.125 0 .055.008.09.031.11.027.011.07.015.125.015.207 0 .406-.008.594-.031a5.075 5.075 0 0 1 1.14 0 4 4 0 0 0 .532.031.235.235 0 0 0 .109-.031c.04-.02.063-.055.063-.11 0-.07-.036-.113-.094-.125a1.222 1.222 0 0 0-.172-.015c-.293 0-.473-.047-.531-.14-.063-.09-.094-.282-.094-.563zm0 0"/></symbol><symbol overflow="visible" id="q"><path d="M4.828-1.906c0-.953-.234-1.532-1-1.735.766-.234.938-.875.938-1.64 0-1.313-.563-1.782-2.016-1.782-1.313 0-2.016.36-2.016 1.47h.422c0-.782.5-1.048 1.594-1.048 1.219 0 1.578.313 1.578 1.391 0 1.188-.516 1.406-1.578 1.406h-.953v.422h.953c.625 0 .969.063 1.234.266.282.219.407.594.407 1.281 0 1.25-.516 1.531-1.672 1.531-1.078 0-1.563-.281-1.563-1.078H.734c0 1.172.797 1.5 1.985 1.5 1.406 0 2.11-.469 2.11-1.984zm0 0"/></symbol><symbol overflow="visible" id="r"><path d="M1.406-.281c0-.25-.11-.36-.343-.36-.235 0-.344.11-.344.36 0 .234.11.36.344.36.234 0 .343-.126.343-.36zm0 0"/></symbol><symbol overflow="visible" id="t"><path d="M4.422-2.156V-7h-.453v4.86c0 1.187-.219 1.78-1.531 1.78C1.359-.36.843-.624.843-1.78H.422c0 1.422.687 1.86 2.015 1.86 1.594 0 1.985-.782 1.985-2.235zm0 0"/></symbol><symbol overflow="visible" id="u"><path d="M5.031-6.578V-7H1v7h.438v-3.39h3.5v-.422h-3.5v-2.766zm0 0"/></symbol><symbol overflow="visible" id="v"><path d="M4.594 0v-5.016h-.438v2.235c0 1.14.078 2.437-1.61 2.437-.452 0-.796-.094-1.015-.312-.328-.313-.328-.781-.328-1.766v-2.594H.766v2.672c0 .953-.016 1.547.421 2 .266.281.704.422 1.36.422.64 0 1.281-.187 1.64-.828V0zm0 0"/></symbol><symbol overflow="visible" id="w"><path d="M4.484-1.422c0-1.5-1.093-1.234-2.406-1.375-.719-.078-.969-.172-.953-.937 0-.688.422-.938 1.547-.938 1.078 0 1.39.313 1.39 1.016h.407c0-.453-.11-.797-.313-1.016-.281-.297-.765-.422-1.484-.422C1.312-5.109.687-4.75.687-3.656c0 1.484 1.016 1.234 2.36 1.36.812.077 1 .25 1 .905 0 .766-.453 1.047-1.563 1.047-1.125 0-1.468-.25-1.468-1.031H.609C.61-.281 1.156.063 2.484.078c1.344 0 2-.406 2-1.5zm0 0"/></symbol><symbol overflow="visible" id="x"><path d="M4.188-1.375H3.78c0 .75-.36 1.031-1.14 1.031-.75 0-1.11-.219-1.11-1.031v-3.234h2.25v-.407h-2.25V-7h-.437v1.984H.266v.407h.828v3.234c0 1.078.531 1.453 1.531 1.453.969 0 1.563-.39 1.563-1.453zm0 0"/></symbol><symbol overflow="visible" id="y"><path d="M4.719-2.469c0-1.656-.188-2.625-2.016-2.625C.891-5.094.672-4.14.672-2.5.672-.812.922.078 2.719.078c.984 0 1.922-.281 1.922-1.453h-.407c0 .875-.796 1.016-1.5 1.016-1.515 0-1.625-.72-1.625-2.11zm-.422-.406H1.109c0-1.219.329-1.797 1.594-1.797 1.266 0 1.594.547 1.594 1.797zm0 0"/></symbol><symbol overflow="visible" id="z"><path d="M4.281-3.656c0-1.016-.562-1.438-1.5-1.438-.578 0-1.156.157-1.515.813v-.735H.859V0h.438v-2.172c0-1.125-.094-2.5 1.437-2.5.72 0 1.141.219 1.141 1.016zm0 0"/></symbol><symbol overflow="visible" id="A"><path d="M1.281.156v-.781H.86v.781c0 .438-.015.656-.343.969l-.188.203.266.281.265-.234c.36-.328.422-.625.422-1.219zm0 0"/></symbol><symbol overflow="visible" id="B"><path d="M5.625 0v-7h-.438v6.344L1.547-7H1v7h.438v-6.36L5.063 0zm0 0"/></symbol><symbol overflow="visible" id="C"><path d="M5.922-3.5c0-2.125.078-3.563-2.547-3.563S.828-5.625.828-3.5.75.078 3.375.078 5.922-1.375 5.922-3.5zm-.453.016c0 2.03.078 3.125-2.094 3.125-2.172 0-2.094-1.094-2.094-3.125 0-2.047-.078-3.157 2.094-3.157 2.172 0 2.094 1.11 2.094 3.157zm0 0"/></symbol><symbol overflow="visible" id="D"><path d="M4.656-1.375h-.422c0 .89-.78 1.016-1.484 1.016-1.563 0-1.64-.766-1.64-2.157 0-1.406.077-2.156 1.64-2.156.703 0 1.484.156 1.484 1.031h.422c0-1.171-.937-1.453-1.922-1.453C.922-5.094.672-4.187.672-2.5.672-.812.906.078 2.734.078c.985 0 1.922-.266 1.922-1.453zm0 0"/></symbol><symbol overflow="visible" id="E"><path d="M4.672 0v-2.672c0-.953.031-1.531-.406-2-.266-.281-.72-.422-1.36-.422-.64 0-1.265.172-1.61.813v-3.032H.86V0h.438v-2.219c0-1.156-.078-2.453 1.61-2.453.452 0 .796.094 1.015.313.328.312.312.78.312 1.765V0zm0 0"/></symbol><symbol overflow="visible" id="F"><path d="M1.406-6.734c0-.235-.11-.329-.328-.329-.219 0-.328.094-.328.329 0 .218.11.343.328.343.219 0 .328-.125.328-.343zM1.296 0v-5.016H.86V0zm0 0"/></symbol><symbol overflow="visible" id="G"><path d="M5.828 0v-3.813H3.234v.422h2.172c0 .641.063 1.75-.312 2.329-.313.453-.907.703-1.766.703-2.156 0-2.047-1.079-2.047-3.125 0-2.079-.078-3.157 2.078-3.157 1.5 0 2.032.36 2.047 1.438h.422c0-1.375-.766-1.86-2.375-1.86C.828-7.063.828-5.766.828-3.483.828-1.344.781.078 3.313.078c.984 0 1.734-.312 2.109-1.031V0zm0 0"/></symbol><symbol overflow="visible" id="H"><path d="M4.844-2.5c0-1.5-.14-2.594-2.094-2.594C.797-5.094.672-4 .672-2.5.672-1 .797.078 2.75.078 4.703.078 4.844-1 4.844-2.5zm-.438 0c0 1.406-.093 2.14-1.656 2.14-1.547 0-1.64-.734-1.64-2.14 0-1.406.093-2.172 1.64-2.172 1.563 0 1.656.766 1.656 2.172zm0 0"/></symbol><symbol overflow="visible" id="I"><path d="M4.531 0L1.703-2.688 4.5-5.015h-.61L1.298-2.859v-4.454H.859V0h.438v-2.531L3.922 0zm0 0"/></symbol><symbol overflow="visible" id="J"><path d="M5.578 0l-3.75-3.516L5.562-7h-.625l-3.5 3.313V-7H1v7h.438v-3.297L4.905 0zm0 0"/></symbol><symbol overflow="visible" id="K"><path d="M8.36-7h-.438L6.406-.656 4.703-7h-.531L2.469-.656.969-7H.516l1.656 7h.547l1.719-6.39L6.14 0h.53zm0 0"/></symbol><symbol overflow="visible" id="L"><path d="M4.625 0v-2.922c0-1.14.14-2.172-1.875-2.172-1.016 0-2.031.219-2.031 1.453h.406c0-.937.828-1.03 1.547-1.03 1.625 0 1.515.609 1.515 1.702H2.47c-1.156 0-1.875.235-1.875 1.547 0 1.063.562 1.5 1.812 1.5.906 0 1.547-.281 1.813-.86V0zm-.438-2.563c.032 1.391-.14 2.235-1.812 2.235-.984 0-1.344-.328-1.344-1.094 0-1 .532-1.14 1.39-1.14zm0 0"/></symbol><symbol overflow="visible" id="M"><path d="M1.297 0v-7.313H.859V0zm0 0"/></symbol><symbol overflow="visible" id="N"><path d="M2.563 2v-.406c-.891 0-1.188-.25-1.376-.719C1 .359.829-1.265.829-3.219c0-1.953.172-3.594.36-4.11.187-.468.484-.718 1.375-.718v-.406c-1.063 0-1.594.312-1.844 1.14C.53-6.64.406-5.124.406-3.202.406-1.297.531.187.72.859.969 1.703 1.5 2 2.563 2zm0 0"/></symbol><symbol overflow="visible" id="O"><path d="M4.875-5.125c0-.75-.156-1.234-.516-1.531-.328-.282-.875-.407-1.515-.407-1.281 0-1.985.36-1.985 1.47h.438c0-.798.5-1.048 1.578-1.048.766 0 1.219.188 1.406.594.11.234.157.531.157.922 0 .516-.11.844-.344 1.094-.375.437-1.438.672-2.032.906C1.345-2.844.86-2.437.86-1.531V0h4v-.422H1.297v-.906c0-.75.125-1.063.875-1.39.547-.235 1.719-.485 2.219-.97.343-.343.484-.796.484-1.437zm0 0"/></symbol><symbol overflow="visible" id="P"><path d="M4.922-3.484c0-1.766-.047-2.235-.25-2.657-.313-.64-.89-.921-1.828-.921-.938 0-1.516.28-1.813.921-.203.422-.25.891-.25 2.657 0 1.53.031 2.03.172 2.421.25.782.875 1.141 1.89 1.141 1.032 0 1.657-.36 1.923-1.14.125-.391.156-.891.156-2.422zm-.438 0c0 1.53-.046 2.062-.203 2.421-.203.485-.61.72-1.437.72-.813 0-1.219-.235-1.438-.72-.14-.359-.187-.89-.187-2.421 0-1.344.047-1.938.14-2.266.188-.61.594-.89 1.485-.89.906 0 1.312.28 1.5.89.093.328.14.922.14 2.266zm0 0"/></symbol><symbol overflow="visible" id="Q"><path d="M4.328 0v-.422h-1.64V-7h-.422L.562-5.437l.282.296L2.25-6.437v6.015H.594V0zm0 0"/></symbol><symbol overflow="visible" id="R"><path d="M4.906-2.14c0-1.61-.547-2.235-1.984-2.235-.86 0-1.39.344-1.688.906 0-.64-.015-1.703.157-2.281.187-.625.609-.89 1.53-.89.97 0 1.454.327 1.454 1.046h.422c0-1.047-.703-1.468-1.875-1.468-1.188 0-1.844.421-2 1.39-.094.516-.14 1.36-.14 2.469 0 1 .077 1.719.218 2.14.266.735.938 1.141 1.89 1.141 1.407 0 2.016-.687 2.016-2.219zm-.437.015c0 1.297-.438 1.766-1.594 1.766-1.11 0-1.61-.532-1.61-1.829 0-1.187.563-1.765 1.72-1.765 1.109 0 1.484.437 1.484 1.828zm0 0"/></symbol><symbol overflow="visible" id="S"><path d="M2.563-3.203c0-1.922-.126-3.438-.313-4.11C2-8.14 1.469-8.453.406-8.453v.406c.89 0 1.188.25 1.375.719.188.516.36 2.156.36 4.11 0 1.952-.172 3.577-.36 4.093-.187.469-.484.719-1.375.719V2C1.47 2 2 1.703 2.25.86c.188-.672.313-2.157.313-4.063zm0 0"/></symbol><symbol overflow="visible" id="T"><path d="M4.938-2.5c0-1.547-.172-2.594-1.954-2.594-.843 0-1.375.266-1.687.813v-3.032H.859V0h.407v-.75c.28.484.796.828 1.718.828C4.766.078 4.938-.938 4.938-2.5zm-.438 0c0 1.203-.047 2.14-1.453 2.14C1.734-.36 1.28-.874 1.28-2.5c0-1.656.453-2.156 1.766-2.156 1.39 0 1.453.922 1.453 2.156zm0 0"/></symbol><symbol overflow="visible" id="U"><path d="M4.36-5.016h-.47L2.376-.578.797-5.016H.328l1.813 5L1.406 2h.438zm0 0"/></symbol><symbol overflow="visible" id="V"><path d="M3.922-2.313v-.406H.953v.406zm0 0"/></symbol><symbol overflow="visible" id="W"><path d="M4.672 0v-2.672c0-.953.031-1.547-.406-2-.266-.281-.704-.422-1.36-.422-.64 0-1.297.188-1.64.844v-.766H.859V0h.438v-2.219c0-1.156-.078-2.453 1.61-2.453.452 0 .796.094 1.015.313.328.312.312.78.312 1.765V0zm0 0"/></symbol><symbol overflow="visible" id="X"><path d="M4.766 0v-7.313h-.438v3.032c-.328-.547-.844-.813-1.703-.813C.828-5.094.672-4.016.672-2.5.672-.937.828.078 2.625.078c.844 0 1.406-.281 1.719-.828V0zm-.438-2.5c0 1.656-.437 2.14-1.75 2.14C1.156-.36 1.11-1.28 1.11-2.5c0-1.25.079-2.156 1.47-2.156 1.312 0 1.75.5 1.75 2.156zm0 0"/></symbol><symbol overflow="visible" id="Y"><path d="M4.75-.453v-4.563h-.422v.735c-.312-.547-.875-.813-1.719-.813C.766-5.094.672-3.969.672-2.562.672-1 .812.015 2.609.015 3.453.016 4-.266 4.313-.813 4.296-.234 4.39.391 4.14.923c-.25.531-.829.687-1.5.687-.938 0-1.438-.312-1.438-1.015H.781c.016 1.015.735 1.437 1.89 1.437.845 0 1.548-.234 1.86-.937.172-.375.219-.797.219-1.547zm-.422-2.094c0 1.64-.469 2.11-1.766 2.11-1.406 0-1.453-.891-1.453-2.11 0-1.203.047-2.125 1.454-2.125 1.312 0 1.765.516 1.765 2.125zm0 0"/></symbol><symbol overflow="visible" id="Z"><path d="M4.938-2.5c0-1.563-.172-2.594-1.954-2.594-.843 0-1.406.297-1.718.844v-.766H.859V2h.438V-.734c.312.546.844.812 1.687.812C4.781.078 4.938-.953 4.938-2.5zM4.5-2.516c0 1.204-.047 2.157-1.453 2.157-1.313 0-1.766-.5-1.766-2.157 0-1.64.453-2.14 1.766-2.14 1.406 0 1.453.937 1.453 2.14zm0 0"/></symbol><symbol overflow="visible" id="aa"><path d="M7.438 0v-3.031c0-.781.125-2.063-1.594-2.063-.61 0-1.282.219-1.594.907-.203-.704-.813-.907-1.469-.907-.61 0-1.219.203-1.515.797v-.719H.859V0h.438v-2.203c0-1.125-.094-2.469 1.437-2.469 1.125 0 1.188.61 1.188 1.625V0h.437v-2.203c0-1.188-.046-2.453 1.454-2.453 1.14 0 1.187.593 1.187 1.61V0zm0 0"/></symbol><symbol overflow="visible" id="ab"><path d="M4.438-5.016h-.454l-1.64 4.5-1.672-4.5H.219L2.079 0h.5zm0 0"/></symbol><symbol overflow="visible" id="ac"><path d="M5.719-1.781h-.422C5.297-.72 4.859-.36 3.344-.36c-2.11 0-2.063-1.079-2.063-3.125 0-2.079-.047-3.157 2.063-3.157 1.515 0 1.953.36 1.953 1.438h.422c0-1.375-.657-1.86-2.297-1.86C.828-7.063.828-5.734.828-3.483c0 2.234 0 3.562 2.594 3.562 1.64 0 2.297-.5 2.297-1.86zm0 0"/></symbol><symbol overflow="visible" id="ad"><path d="M5.656 0v-1.61c0-.671.11-1.687-.875-1.937.703-.203.875-.86.875-1.562C5.656-7.063 4.61-7 3.188-7H1v7h.438v-3.328H3.14c1.921 0 2.078.125 2.078 1.75V0zM5.22-5.14c0 1.5-.813 1.39-2.016 1.39H1.438v-2.828H3.14c1.218 0 2.078-.078 2.078 1.437zm0 0"/></symbol><symbol overflow="visible" id="ae"><path d="M6.75-5.016h-.438L5.063-.578l-1.28-4.438h-.5L2-.578.75-5.016H.297L1.734 0h.516l1.281-4.453L4.797 0h.516zm0 0"/></symbol><symbol overflow="visible" id="af"><path d="M4.938-1.89c0-1.063-.313-1.563-1.047-1.75.828-.235.984-.813.984-1.641 0-1.313-.563-1.782-2.016-1.782S.844-6.593.844-5.28c0 .875.14 1.406.984 1.64-.719.188-1.047.688-1.047 1.75 0 1.5.672 1.97 2.078 1.97 1.407 0 2.079-.47 2.079-1.97zm-.5-3.36c0 1.188-.485 1.406-1.579 1.406-1.093 0-1.578-.234-1.578-1.437 0-1.047.344-1.36 1.578-1.36 1.22 0 1.579.313 1.579 1.391zM4.5-1.86c0 1.266-.484 1.5-1.64 1.5-1.188 0-1.641-.234-1.641-1.515 0-1.313.453-1.547 1.64-1.547 1.157 0 1.641.281 1.641 1.563zm0 0"/></symbol><symbol overflow="visible" id="ag"><path d="M1.406-4.734c0-.25-.11-.36-.343-.36-.235 0-.344.11-.344.36 0 .234.11.359.344.359.234 0 .343-.125.343-.36zm0 4.453c0-.25-.11-.36-.343-.36-.235 0-.344.11-.344.36 0 .234.11.36.344.36.234 0 .343-.126.343-.36zm0 0"/></symbol><symbol overflow="visible" id="ah"><path d="M4.344-6.578V-7H.297v.422h3.578L.906 0h.485zm0 0"/></symbol><symbol overflow="visible" id="ai"><path d="M5.656-5.11C5.656-7 4.672-7 3.188-7H1v7h.438v-3.234h1.75c1.468 0 2.468-.032 2.468-1.875zm-.453-.015c0 1.547-.812 1.469-2.062 1.469H1.437v-2.922h1.704c1.234 0 2.062-.063 2.062 1.453zm0 0"/></symbol><symbol overflow="visible" id="aj"><path d="M7.328 0v-7h-.61L4.173-.5 1.594-7H1v7h.422v-6.344L3.922 0h.469l2.5-6.344V0zm0 0"/></symbol><symbol overflow="visible" id="ak"><path d="M1.438 0v-7H1v7zm0 0"/></symbol><symbol overflow="visible" id="al"><path d="M5.875-3.5c0-1.547-.094-2.125-.375-2.64C5.11-6.767 4.531-7 3.297-7H1v7h2.297C4.53 0 5.109-.219 5.5-.86c.281-.5.375-1.093.375-2.64zm-.438 0c0 1.516-.109 2.078-.359 2.469-.281.437-.719.61-1.844.61H1.438v-6.157h1.796c1.125 0 1.563.156 1.844.61.25.39.36.952.36 2.468zm0 0"/></symbol><symbol overflow="visible" id="am"><path d="M5.031-2.094V-2.5h-1V-7h-.453L.547-2.5v.406h3.047V0h.437v-2.094zM3.594-2.5H1.063l2.53-3.797zm0 0"/></symbol><symbol overflow="visible" id="an"><path d="M5.906 0L3.313-7h-.47L.267 0h.453L1.5-2.14h3.14L5.439 0zM4.484-2.531H1.656l1.422-3.922zm0 0"/></symbol><symbol overflow="visible" id="ao"><path d="M5.031 0v-.422H1.438V-7H1v7zm0 0"/></symbol><symbol overflow="visible" id="ap"><path d="M5.719-2.016c0-1.765-1.125-1.765-2.485-1.78-1.093-.017-2.046.093-2.046-1.329 0-1.406.812-1.516 2-1.516 1.078 0 2.046.063 2.046 1.438h.422c0-1.64-1.093-1.86-2.453-1.86C1.75-7.063.75-6.827.75-5.109c0 1.765 1.125 1.718 2.469 1.75 1.203.015 2.047-.079 2.047 1.375C5.266-.578 4.453-.36 3.25-.36c-1.11 0-2.063-.063-2.063-1.422H.75c0 1.64 1.11 1.86 2.469 1.86 1.484 0 2.5-.392 2.5-2.095zm0 0"/></symbol><symbol overflow="visible" id="aq"><path d="M4.875-3.797c0-1-.063-1.719-.203-2.125-.266-.75-.953-1.14-1.89-1.14-1.407 0-2.016.671-2.016 2.203 0 1.625.53 2.25 1.968 2.25.86 0 1.407-.36 1.704-.907 0 .625 0 1.688-.172 2.282-.172.609-.61.89-1.532.89-.968 0-1.437-.344-1.437-1.062H.859C.86-.36 1.563.078 2.75.078c1.172 0 1.844-.422 2-1.406.094-.5.125-1.36.125-2.469zm-.484-1.015c0 1.203-.563 1.765-1.704 1.765-1.109 0-1.5-.437-1.5-1.812 0-1.313.454-1.782 1.594-1.782 1.11 0 1.61.532 1.61 1.829zm0 0"/></symbol><symbol overflow="visible" id="ar"><path d="M4.906-2.125c0-1.453-.422-2.25-1.953-2.25-.719 0-1.281.172-1.547.531v-2.734h3.282V-7H.983v3.969h.407c.03-.625.546-.922 1.546-.922 1.329 0 1.532.64 1.532 1.86 0 1.327-.407 1.734-1.657 1.734-1.078 0-1.515-.266-1.515-1.063H.875c0 1.125.672 1.5 1.938 1.5 1.546 0 2.093-.64 2.093-2.203zm0 0"/></symbol><symbol overflow="visible" id="as"><path d="M5.719-1.922c0-.734-.14-1.453-.922-1.672.687-.219.86-.953.86-1.61C5.656-7.062 4.53-7 3.202-7H1v7h2.266c1.453 0 2.453-.016 2.453-1.922zm-.5-3.328c0 1.5-.813 1.469-2.016 1.469H1.438v-2.797H3.14c1.187 0 2.078-.125 2.078 1.328zm.047 3.36c0 1.562-.797 1.468-2.079 1.468h-1.75V-3.39h1.75c1.344 0 2.079-.046 2.079 1.5zm0 0"/></symbol><symbol overflow="visible" id="at"><path d="M4.844-2.5c0-1.5-.14-2.594-2.094-2.594C.797-5.094.672-4 .672-2.5.672-1 .797.078 2.75.078 4.703.078 4.844-1 4.844-2.5zm-.438 0c0 1.406-.093 2.14-1.656 2.14-1.547 0-1.64-.734-1.64-2.14 0-1.406.093-2.172 1.64-2.172 1.563 0 1.656.766 1.656 2.172zM3.641-7h-.547L1.766-5.64h.515zm0 0"/></symbol><symbol overflow="visible" id="au"><path d="M5.64 0v-7h-.437v3.188H1.437V-7H1v7h.438v-3.39h3.765V0zm0 0"/></symbol><symbol overflow="visible" id="av"><path d="M5.078 0v-.422H1.453V-3.39H4.97v-.421H1.453v-2.766h3.625V-7H1v7zm0 0"/></symbol><symbol overflow="visible" id="aw"><path d="M4.297-6.219c0-.875-.75-1.156-1.61-1.156-.546 0-.984.094-1.28.39-.25.25-.345.579-.345 1.048v.921H.25v.407h.813V0H1.5v-4.61h2.188v-.406H1.5v-.921c0-.844.469-1.016 1.203-1.016.516 0 1.188.094 1.188.734zm0 0"/></symbol><symbol overflow="visible" id="ax"><path d="M5.14-6.578V-7H.314v.422H2.5V0h.453v-6.578zm0 0"/></symbol><symbol overflow="visible" id="ay"><path d="M5.578-7h-.453L2.859-.578.594-7H.125l2.484 7h.47zm0 0"/></symbol></defs><g fill="#231f20"><use xlink:href="#a" x="74.885" y="47.763"/><use xlink:href="#b" x="82.886" y="47.763"/><use xlink:href="#c" x="85.492" y="47.763"/><use xlink:href="#d" x="88.099" y="47.763"/><use xlink:href="#e" x="96.1" y="47.763"/><use xlink:href="#f" x="104.1" y="47.763"/><use xlink:href="#g" x="112.1" y="47.763"/><use xlink:href="#c" x="120.1" y="47.763"/><use xlink:href="#h" x="122.707" y="47.763"/><use xlink:href="#i" x="130.707" y="47.763"/><use xlink:href="#c" x="138.708" y="47.763"/><use xlink:href="#j" x="141.315" y="47.763"/><use xlink:href="#k" x="149.315" y="47.763"/><use xlink:href="#c" x="157.315" y="47.763"/><use xlink:href="#l" x="159.922" y="47.763"/><use xlink:href="#m" x="167.922" y="47.763"/></g><g fill="#393536"><use xlink:href="#n" x="42.468" y="48.426"/><use xlink:href="#o" x="48.041" y="48.426"/><use xlink:href="#p" x="53.614" y="48.426"/></g><path d="M76.441 316.809h424.68" fill="none" stroke-width=".299637" stroke="#33459a" stroke-miterlimit="10"/><g fill="#231f20"><use xlink:href="#q" x="77.858" y="160.903"/><use xlink:href="#q" x="83.361" y="160.903"/><use xlink:href="#r" x="88.865" y="160.903"/><use xlink:href="#s" x="90.879" y="160.903"/></g><use xlink:href="#s" x="93.524" y="160.903" fill="#231f20"/><g fill="#231f20"><use xlink:href="#t" x="93.524" y="160.903"/><use xlink:href="#r" x="98.773" y="160.903"/><use xlink:href="#s" x="100.787" y="160.903"/><use xlink:href="#t" x="103.432" y="160.903"/><use xlink:href="#r" x="108.681" y="160.903"/><use xlink:href="#s" x="110.695" y="160.903"/><use xlink:href="#u" x="113.34" y="160.903"/><use xlink:href="#v" x="118.915" y="160.903"/><use xlink:href="#w" x="124.266" y="160.903"/><use xlink:href="#x" x="129.26" y="160.903"/><use xlink:href="#y" x="133.604" y="160.903"/><use xlink:href="#z" x="138.894" y="160.903"/><use xlink:href="#A" x="143.197" y="160.903"/><use xlink:href="#s" x="145.211" y="160.903"/><use xlink:href="#B" x="147.856" y="160.903"/><use xlink:href="#r" x="154.377" y="160.903"/><use xlink:href="#s" x="156.391" y="160.903"/><use xlink:href="#C" x="159.036" y="160.903"/><use xlink:href="#v" x="165.699" y="160.903"/><use xlink:href="#D" x="171.049" y="160.903"/><use xlink:href="#E" x="176.187" y="160.903"/><use xlink:href="#F" x="181.537" y="160.903"/><use xlink:href="#A" x="183.582" y="160.903"/><use xlink:href="#s" x="185.596" y="160.903"/><use xlink:href="#B" x="188.241" y="160.903"/><use xlink:href="#r" x="194.762" y="160.903"/><use xlink:href="#s" x="196.776" y="160.903"/><use xlink:href="#G" x="199.421" y="160.903"/><use xlink:href="#H" x="206.023" y="160.903"/><use xlink:href="#I" x="211.435" y="160.903"/><use xlink:href="#D" x="216.053" y="160.903"/><use xlink:href="#y" x="221.19" y="160.903"/><use xlink:href="#A" x="226.48" y="160.903"/><use xlink:href="#s" x="228.494" y="160.903"/><use xlink:href="#J" x="231.139" y="160.903"/><use xlink:href="#r" x="236.856" y="160.903"/><use xlink:href="#s" x="238.87" y="160.903"/><use xlink:href="#K" x="241.515" y="160.903"/><use xlink:href="#L" x="250.284" y="160.903"/><use xlink:href="#M" x="255.584" y="160.903"/><use xlink:href="#w" x="257.629" y="160.903"/><use xlink:href="#E" x="262.623" y="160.903"/><use xlink:href="#s" x="267.974" y="160.903"/><use xlink:href="#N" x="270.619" y="160.903"/><use xlink:href="#O" x="273.488" y="160.903"/><use xlink:href="#P" x="278.981" y="160.903"/><use xlink:href="#Q" x="284.586" y="160.903"/><use xlink:href="#R" x="289.042" y="160.903"/><use xlink:href="#S" x="294.627" y="160.903"/><use xlink:href="#r" x="297.495" y="160.903"/><use xlink:href="#s" x="299.509" y="160.903"/><use xlink:href="#C" x="302.154" y="160.903"/><use xlink:href="#T" x="308.817" y="160.903"/><use xlink:href="#y" x="314.331" y="160.903"/><use xlink:href="#w" x="319.621" y="160.903"/><use xlink:href="#F" x="324.615" y="160.903"/><use xlink:href="#x" x="326.66" y="160.903"/><use xlink:href="#U" x="331.004" y="160.903"/><use xlink:href="#V" x="335.531" y="160.903"/><use xlink:href="#F" x="340.312" y="160.903"/><use xlink:href="#W" x="342.356" y="160.903"/><use xlink:href="#X" x="347.707" y="160.903"/><use xlink:href="#v" x="353.221" y="160.903"/><use xlink:href="#D" x="358.572" y="160.903"/><use xlink:href="#y" x="363.709" y="160.903"/><use xlink:href="#X" x="368.999" y="160.903"/><use xlink:href="#s" x="374.512" y="160.903"/><use xlink:href="#D" x="377.157" y="160.903"/><use xlink:href="#E" x="382.294" y="160.903"/><use xlink:href="#L" x="387.645" y="160.903"/><use xlink:href="#W" x="392.945" y="160.903"/><use xlink:href="#Y" x="398.296" y="160.903"/><use xlink:href="#y" x="403.799" y="160.903"/><use xlink:href="#w" x="409.089" y="160.903"/><use xlink:href="#s" x="414.084" y="160.903"/><use xlink:href="#F" x="416.729" y="160.903"/><use xlink:href="#W" x="418.773" y="160.903"/><use xlink:href="#s" x="424.124" y="160.903"/><use xlink:href="#L" x="426.769" y="160.903"/><use xlink:href="#X" x="432.069" y="160.903"/><use xlink:href="#F" x="437.582" y="160.903"/><use xlink:href="#Z" x="439.627" y="160.903"/><use xlink:href="#H" x="445.141" y="160.903"/><use xlink:href="#w" x="450.553" y="160.903"/><use xlink:href="#y" x="455.547" y="160.903"/><use xlink:href="#s" x="460.837" y="160.903"/><use xlink:href="#x" x="463.482" y="160.903"/><use xlink:href="#F" x="467.826" y="160.903"/><use xlink:href="#w" x="469.87" y="160.903"/><use xlink:href="#w" x="474.865" y="160.903"/><use xlink:href="#v" x="479.86" y="160.903"/><use xlink:href="#y" x="485.211" y="160.903"/><use xlink:href="#s" x="490.5" y="160.903"/></g><g fill="#231f20"><use xlink:href="#aa" x="93.524" y="175.885"/><use xlink:href="#F" x="101.631" y="175.885"/><use xlink:href="#D" x="103.676" y="175.885"/><use xlink:href="#z" x="108.813" y="175.885"/><use xlink:href="#H" x="113.116" y="175.885"/><use xlink:href="#y" x="118.528" y="175.885"/><use xlink:href="#W" x="123.818" y="175.885"/><use xlink:href="#ab" x="129.168" y="175.885"/><use xlink:href="#F" x="133.716" y="175.885"/><use xlink:href="#z" x="135.76" y="175.885"/><use xlink:href="#H" x="140.063" y="175.885"/><use xlink:href="#W" x="145.475" y="175.885"/><use xlink:href="#aa" x="150.826" y="175.885"/><use xlink:href="#y" x="158.934" y="175.885"/><use xlink:href="#W" x="164.223" y="175.885"/><use xlink:href="#x" x="169.574" y="175.885"/><use xlink:href="#s" x="173.918" y="175.885"/><use xlink:href="#L" x="176.563" y="175.885"/><use xlink:href="#W" x="181.863" y="175.885"/><use xlink:href="#X" x="187.213" y="175.885"/><use xlink:href="#s" x="192.727" y="175.885"/><use xlink:href="#x" x="195.372" y="175.885"/><use xlink:href="#E" x="199.716" y="175.885"/><use xlink:href="#y" x="205.066" y="175.885"/><use xlink:href="#F" x="210.356" y="175.885"/><use xlink:href="#z" x="212.401" y="175.885"/><use xlink:href="#s" x="216.704" y="175.885"/><use xlink:href="#F" x="219.349" y="175.885"/><use xlink:href="#aa" x="221.393" y="175.885"/><use xlink:href="#Z" x="229.501" y="175.885"/><use xlink:href="#L" x="235.015" y="175.885"/><use xlink:href="#D" x="240.315" y="175.885"/><use xlink:href="#x" x="245.452" y="175.885"/><use xlink:href="#s" x="249.795" y="175.885"/><use xlink:href="#H" x="252.44" y="175.885"/><use xlink:href="#W" x="257.852" y="175.885"/><use xlink:href="#s" x="263.203" y="175.885"/><use xlink:href="#D" x="265.848" y="175.885"/><use xlink:href="#L" x="270.985" y="175.885"/><use xlink:href="#z" x="276.285" y="175.885"/><use xlink:href="#X" x="280.588" y="175.885"/><use xlink:href="#F" x="286.102" y="175.885"/><use xlink:href="#H" x="288.146" y="175.885"/><use xlink:href="#ab" x="293.558" y="175.885"/><use xlink:href="#L" x="298.105" y="175.885"/><use xlink:href="#w" x="303.405" y="175.885"/><use xlink:href="#D" x="308.4" y="175.885"/><use xlink:href="#v" x="313.537" y="175.885"/><use xlink:href="#M" x="318.888" y="175.885"/><use xlink:href="#L" x="320.933" y="175.885"/><use xlink:href="#z" x="326.233" y="175.885"/><use xlink:href="#s" x="330.536" y="175.885"/><use xlink:href="#X" x="333.18" y="175.885"/><use xlink:href="#F" x="338.694" y="175.885"/><use xlink:href="#w" x="340.739" y="175.885"/><use xlink:href="#y" x="345.734" y="175.885"/><use xlink:href="#L" x="351.023" y="175.885"/><use xlink:href="#w" x="356.323" y="175.885"/><use xlink:href="#y" x="361.318" y="175.885"/><use xlink:href="#r" x="366.608" y="175.885"/><use xlink:href="#s" x="368.622" y="175.885"/><use xlink:href="#ac" x="371.267" y="175.885"/><use xlink:href="#F" x="377.625" y="175.885"/><use xlink:href="#z" x="379.669" y="175.885"/><use xlink:href="#D" x="383.972" y="175.885"/><use xlink:href="#r" x="389.11" y="175.885"/><use xlink:href="#s" x="391.124" y="175.885"/><use xlink:href="#ad" x="393.769" y="175.885"/><use xlink:href="#y" x="400.218" y="175.885"/><use xlink:href="#w" x="405.508" y="175.885"/><use xlink:href="#r" x="410.503" y="175.885"/><use xlink:href="#s" x="412.517" y="175.885"/><use xlink:href="#ad" x="415.162" y="175.885"/><use xlink:href="#y" x="421.611" y="175.885"/><use xlink:href="#ab" x="426.901" y="175.885"/><use xlink:href="#F" x="431.448" y="175.885"/><use xlink:href="#y" x="433.493" y="175.885"/><use xlink:href="#ae" x="438.783" y="175.885"/><use xlink:href="#r" x="445.73" y="175.885"/><use xlink:href="#s" x="447.745" y="175.885"/><use xlink:href="#Q" x="450.39" y="175.885"/><use xlink:href="#Q" x="454.845" y="175.885"/><use xlink:href="#af" x="459.301" y="175.885"/><use xlink:href="#ag" x="464.916" y="175.885"/><use xlink:href="#Q" x="466.93" y="175.885"/><use xlink:href="#ah" x="471.386" y="175.885"/><use xlink:href="#af" x="475.913" y="175.885"/><use xlink:href="#R" x="481.528" y="175.885"/><use xlink:href="#V" x="487.113" y="175.885"/></g><g fill="#231f20"><use xlink:href="#Q" x="93.524" y="190.866"/><use xlink:href="#af" x="97.979" y="190.866"/><use xlink:href="#P" x="103.594" y="190.866"/><use xlink:href="#ah" x="109.2" y="190.866"/><use xlink:href="#r" x="113.726" y="190.866"/><use xlink:href="#s" x="115.741" y="190.866"/><use xlink:href="#ai" x="118.385" y="190.866"/><use xlink:href="#aj" x="124.408" y="190.866"/><use xlink:href="#ac" x="132.637" y="190.866"/><use xlink:href="#ak" x="138.995" y="190.866"/><use xlink:href="#al" x="141.335" y="190.866"/><use xlink:href="#ag" x="147.947" y="190.866"/><use xlink:href="#s" x="149.961" y="190.866"/><use xlink:href="#ai" x="152.606" y="190.866"/><use xlink:href="#aj" x="158.628" y="190.866"/><use xlink:href="#ac" x="166.858" y="190.866"/><use xlink:href="#am" x="173.216" y="190.866"/><use xlink:href="#af" x="178.729" y="190.866"/><use xlink:href="#af" x="184.345" y="190.866"/><use xlink:href="#ah" x="189.96" y="190.866"/><use xlink:href="#Q" x="194.487" y="190.866"/><use xlink:href="#am" x="198.942" y="190.866"/><use xlink:href="#ah" x="204.456" y="190.866"/><use xlink:href="#r" x="208.983" y="190.866"/></g><g fill="#231f20"><use xlink:href="#q" x="77.858" y="212.678"/><use xlink:href="#am" x="83.361" y="212.678"/><use xlink:href="#r" x="88.875" y="212.678"/><use xlink:href="#s" x="90.889" y="212.678"/></g><use xlink:href="#s" x="93.534" y="212.678" fill="#231f20"/><g fill="#231f20"><use xlink:href="#an" x="93.534" y="212.678"/><use xlink:href="#r" x="99.607" y="212.678"/><use xlink:href="#s" x="101.621" y="212.678"/><use xlink:href="#ao" x="104.266" y="212.678"/><use xlink:href="#r" x="109.342" y="212.678"/><use xlink:href="#s" x="111.356" y="212.678"/><use xlink:href="#ac" x="114.001" y="212.678"/><use xlink:href="#M" x="120.359" y="212.678"/><use xlink:href="#L" x="122.404" y="212.678"/><use xlink:href="#z" x="127.704" y="212.678"/><use xlink:href="#I" x="132.007" y="212.678"/><use xlink:href="#A" x="136.625" y="212.678"/><use xlink:href="#s" x="138.639" y="212.678"/><use xlink:href="#ap" x="141.284" y="212.678"/><use xlink:href="#r" x="147.652" y="212.678"/><use xlink:href="#s" x="149.667" y="212.678"/><use xlink:href="#aj" x="152.311" y="212.678"/><use xlink:href="#L" x="160.541" y="212.678"/><use xlink:href="#z" x="165.841" y="212.678"/><use xlink:href="#v" x="170.144" y="212.678"/><use xlink:href="#U" x="175.495" y="212.678"/><use xlink:href="#L" x="180.022" y="212.678"/><use xlink:href="#aa" x="185.322" y="212.678"/><use xlink:href="#L" x="193.429" y="212.678"/><use xlink:href="#A" x="198.729" y="212.678"/><use xlink:href="#s" x="200.743" y="212.678"/><use xlink:href="#ap" x="203.388" y="212.678"/><use xlink:href="#r" x="209.756" y="212.678"/><use xlink:href="#s" x="211.77" y="212.678"/><use xlink:href="#ap" x="214.415" y="212.678"/><use xlink:href="#L" x="220.783" y="212.678"/><use xlink:href="#W" x="226.083" y="212.678"/><use xlink:href="#H" x="231.434" y="212.678"/><use xlink:href="#A" x="236.846" y="212.678"/><use xlink:href="#s" x="238.86" y="212.678"/><use xlink:href="#an" x="241.505" y="212.678"/><use xlink:href="#r" x="247.578" y="212.678"/><use xlink:href="#s" x="249.592" y="212.678"/><use xlink:href="#an" x="252.237" y="212.678"/><use xlink:href="#D" x="258.31" y="212.678"/><use xlink:href="#D" x="263.447" y="212.678"/><use xlink:href="#H" x="268.585" y="212.678"/><use xlink:href="#z" x="273.996" y="212.678"/><use xlink:href="#w" x="278.299" y="212.678"/><use xlink:href="#F" x="283.294" y="212.678"/><use xlink:href="#A" x="285.339" y="212.678"/><use xlink:href="#s" x="287.353" y="212.678"/><use xlink:href="#aj" x="289.998" y="212.678"/><use xlink:href="#r" x="298.228" y="212.678"/><use xlink:href="#s" x="300.242" y="212.678"/><use xlink:href="#G" x="302.887" y="212.678"/><use xlink:href="#F" x="309.489" y="212.678"/><use xlink:href="#z" x="311.533" y="212.678"/><use xlink:href="#Y" x="315.836" y="212.678"/><use xlink:href="#y" x="321.34" y="212.678"/><use xlink:href="#W" x="326.63" y="212.678"/><use xlink:href="#z" x="331.98" y="212.678"/><use xlink:href="#L" x="336.283" y="212.678"/><use xlink:href="#x" x="341.583" y="212.678"/><use xlink:href="#E" x="345.927" y="212.678"/><use xlink:href="#A" x="351.278" y="212.678"/><use xlink:href="#s" x="353.292" y="212.678"/><use xlink:href="#J" x="355.937" y="212.678"/><use xlink:href="#r" x="361.654" y="212.678"/><use xlink:href="#s" x="363.668" y="212.678"/><use xlink:href="#K" x="366.313" y="212.678"/><use xlink:href="#L" x="375.082" y="212.678"/><use xlink:href="#M" x="380.382" y="212.678"/><use xlink:href="#w" x="382.426" y="212.678"/><use xlink:href="#E" x="387.421" y="212.678"/><use xlink:href="#A" x="392.772" y="212.678"/><use xlink:href="#s" x="394.786" y="212.678"/><use xlink:href="#u" x="397.431" y="212.678"/><use xlink:href="#r" x="403.006" y="212.678"/><use xlink:href="#s" x="405.02" y="212.678"/><use xlink:href="#t" x="407.665" y="212.678"/><use xlink:href="#r" x="412.914" y="212.678"/><use xlink:href="#s" x="414.928" y="212.678"/><use xlink:href="#B" x="417.573" y="212.678"/><use xlink:href="#L" x="424.094" y="212.678"/><use xlink:href="#U" x="429.393" y="212.678"/><use xlink:href="#L" x="433.92" y="212.678"/><use xlink:href="#s" x="439.22" y="212.678"/><use xlink:href="#N" x="441.865" y="212.678"/><use xlink:href="#O" x="444.734" y="212.678"/><use xlink:href="#P" x="450.227" y="212.678"/><use xlink:href="#Q" x="455.832" y="212.678"/><use xlink:href="#R" x="460.288" y="212.678"/><use xlink:href="#S" x="465.873" y="212.678"/><use xlink:href="#r" x="468.741" y="212.678"/><use xlink:href="#s" x="470.755" y="212.678"/><use xlink:href="#aa" x="473.4" y="212.678"/><use xlink:href="#F" x="481.508" y="212.678"/><use xlink:href="#ad" x="483.553" y="212.678"/><use xlink:href="#V" x="490.002" y="212.678"/></g><g fill="#231f20"><use xlink:href="#am" x="93.534" y="227.66"/><use xlink:href="#Q" x="99.047" y="227.66"/><use xlink:href="#P" x="103.503" y="227.66"/><use xlink:href="#s" x="109.108" y="227.66"/><use xlink:href="#L" x="111.753" y="227.66"/><use xlink:href="#W" x="117.053" y="227.66"/><use xlink:href="#X" x="122.404" y="227.66"/><use xlink:href="#s" x="127.917" y="227.66"/><use xlink:href="#aa" x="130.562" y="227.66"/><use xlink:href="#F" x="138.67" y="227.66"/><use xlink:href="#ad" x="140.714" y="227.66"/><use xlink:href="#V" x="147.164" y="227.66"/><use xlink:href="#am" x="151.945" y="227.66"/><use xlink:href="#aq" x="157.458" y="227.66"/><use xlink:href="#ar" x="163.023" y="227.66"/><use xlink:href="#s" x="168.638" y="227.66"/><use xlink:href="#L" x="171.283" y="227.66"/><use xlink:href="#z" x="176.583" y="227.66"/><use xlink:href="#y" x="180.886" y="227.66"/><use xlink:href="#s" x="186.176" y="227.66"/><use xlink:href="#X" x="188.821" y="227.66"/><use xlink:href="#U" x="194.334" y="227.66"/><use xlink:href="#W" x="198.861" y="227.66"/><use xlink:href="#L" x="204.212" y="227.66"/><use xlink:href="#aa" x="209.512" y="227.66"/><use xlink:href="#F" x="217.619" y="227.66"/><use xlink:href="#D" x="219.664" y="227.66"/><use xlink:href="#L" x="224.801" y="227.66"/><use xlink:href="#M" x="230.101" y="227.66"/><use xlink:href="#M" x="232.146" y="227.66"/><use xlink:href="#U" x="234.191" y="227.66"/><use xlink:href="#s" x="238.717" y="227.66"/><use xlink:href="#z" x="241.362" y="227.66"/><use xlink:href="#y" x="245.665" y="227.66"/><use xlink:href="#Y" x="250.955" y="227.66"/><use xlink:href="#v" x="256.458" y="227.66"/><use xlink:href="#M" x="261.809" y="227.66"/><use xlink:href="#L" x="263.854" y="227.66"/><use xlink:href="#x" x="269.154" y="227.66"/><use xlink:href="#y" x="273.498" y="227.66"/><use xlink:href="#X" x="278.787" y="227.66"/><use xlink:href="#s" x="284.301" y="227.66"/><use xlink:href="#F" x="286.946" y="227.66"/><use xlink:href="#W" x="288.991" y="227.66"/><use xlink:href="#s" x="294.341" y="227.66"/><use xlink:href="#X" x="296.986" y="227.66"/><use xlink:href="#F" x="302.5" y="227.66"/><use xlink:href="#ab" x="304.544" y="227.66"/><use xlink:href="#y" x="309.092" y="227.66"/><use xlink:href="#z" x="314.381" y="227.66"/><use xlink:href="#w" x="318.684" y="227.66"/><use xlink:href="#y" x="323.679" y="227.66"/><use xlink:href="#s" x="328.969" y="227.66"/><use xlink:href="#D" x="331.614" y="227.66"/><use xlink:href="#L" x="336.751" y="227.66"/><use xlink:href="#z" x="342.051" y="227.66"/><use xlink:href="#X" x="346.354" y="227.66"/><use xlink:href="#F" x="351.868" y="227.66"/><use xlink:href="#H" x="353.912" y="227.66"/><use xlink:href="#aa" x="359.324" y="227.66"/><use xlink:href="#U" x="367.432" y="227.66"/><use xlink:href="#H" x="371.958" y="227.66"/><use xlink:href="#Z" x="377.37" y="227.66"/><use xlink:href="#L" x="382.884" y="227.66"/><use xlink:href="#x" x="388.184" y="227.66"/><use xlink:href="#E" x="392.528" y="227.66"/><use xlink:href="#F" x="397.878" y="227.66"/><use xlink:href="#y" x="399.923" y="227.66"/><use xlink:href="#w" x="405.213" y="227.66"/><use xlink:href="#s" x="410.208" y="227.66"/><use xlink:href="#L" x="412.852" y="227.66"/><use xlink:href="#W" x="418.152" y="227.66"/><use xlink:href="#X" x="423.503" y="227.66"/><use xlink:href="#s" x="429.017" y="227.66"/><use xlink:href="#x" x="431.662" y="227.66"/><use xlink:href="#E" x="436.005" y="227.66"/><use xlink:href="#y" x="441.356" y="227.66"/><use xlink:href="#F" x="446.646" y="227.66"/><use xlink:href="#z" x="448.691" y="227.66"/><use xlink:href="#s" x="452.994" y="227.66"/><use xlink:href="#F" x="455.638" y="227.66"/><use xlink:href="#W" x="457.683" y="227.66"/><use xlink:href="#E" x="463.034" y="227.66"/><use xlink:href="#F" x="468.385" y="227.66"/><use xlink:href="#T" x="470.429" y="227.66"/><use xlink:href="#F" x="475.943" y="227.66"/><use xlink:href="#x" x="477.988" y="227.66"/><use xlink:href="#F" x="482.331" y="227.66"/><use xlink:href="#H" x="484.376" y="227.66"/><use xlink:href="#W" x="489.788" y="227.66"/><use xlink:href="#s" x="495.139" y="227.66"/></g><g fill="#231f20"><use xlink:href="#L" x="93.534" y="242.642"/><use xlink:href="#x" x="98.834" y="242.642"/><use xlink:href="#x" x="103.177" y="242.642"/><use xlink:href="#y" x="107.521" y="242.642"/><use xlink:href="#W" x="112.811" y="242.642"/><use xlink:href="#v" x="118.162" y="242.642"/><use xlink:href="#L" x="123.512" y="242.642"/><use xlink:href="#x" x="128.812" y="242.642"/><use xlink:href="#y" x="133.156" y="242.642"/><use xlink:href="#w" x="138.446" y="242.642"/><use xlink:href="#s" x="143.441" y="242.642"/><use xlink:href="#Z" x="146.085" y="242.642"/><use xlink:href="#L" x="151.599" y="242.642"/><use xlink:href="#x" x="156.899" y="242.642"/><use xlink:href="#E" x="161.243" y="242.642"/><use xlink:href="#H" x="166.593" y="242.642"/><use xlink:href="#M" x="172.005" y="242.642"/><use xlink:href="#H" x="174.05" y="242.642"/><use xlink:href="#Y" x="179.462" y="242.642"/><use xlink:href="#F" x="184.965" y="242.642"/><use xlink:href="#D" x="187.01" y="242.642"/><use xlink:href="#L" x="192.147" y="242.642"/><use xlink:href="#M" x="197.447" y="242.642"/><use xlink:href="#s" x="199.492" y="242.642"/><use xlink:href="#E" x="202.137" y="242.642"/><use xlink:href="#U" x="207.487" y="242.642"/><use xlink:href="#Z" x="212.014" y="242.642"/><use xlink:href="#y" x="217.528" y="242.642"/><use xlink:href="#z" x="222.818" y="242.642"/><use xlink:href="#x" x="227.121" y="242.642"/><use xlink:href="#z" x="231.464" y="242.642"/><use xlink:href="#H" x="235.767" y="242.642"/><use xlink:href="#Z" x="241.179" y="242.642"/><use xlink:href="#E" x="246.693" y="242.642"/><use xlink:href="#U" x="252.044" y="242.642"/><use xlink:href="#r" x="256.57" y="242.642"/><use xlink:href="#s" x="258.585" y="242.642"/><use xlink:href="#ai" x="261.229" y="242.642"/><use xlink:href="#ao" x="267.252" y="242.642"/><use xlink:href="#C" x="272.328" y="242.642"/><use xlink:href="#ap" x="278.991" y="242.642"/><use xlink:href="#s" x="285.359" y="242.642"/><use xlink:href="#C" x="288.004" y="242.642"/><use xlink:href="#W" x="294.667" y="242.642"/><use xlink:href="#y" x="300.018" y="242.642"/><use xlink:href="#r" x="305.307" y="242.642"/><use xlink:href="#s" x="307.322" y="242.642"/><use xlink:href="#Q" x="309.966" y="242.642"/><use xlink:href="#Q" x="314.422" y="242.642"/><use xlink:href="#ag" x="318.878" y="242.642"/><use xlink:href="#y" x="320.892" y="242.642"/><use xlink:href="#P" x="326.182" y="242.642"/><use xlink:href="#Q" x="331.787" y="242.642"/><use xlink:href="#ar" x="336.242" y="242.642"/><use xlink:href="#Q" x="341.858" y="242.642"/><use xlink:href="#ar" x="346.313" y="242.642"/><use xlink:href="#Q" x="351.929" y="242.642"/><use xlink:href="#ar" x="356.384" y="242.642"/><use xlink:href="#r" x="361.999" y="242.642"/><use xlink:href="#s" x="364.014" y="242.642"/><use xlink:href="#ai" x="366.659" y="242.642"/><use xlink:href="#aj" x="372.681" y="242.642"/><use xlink:href="#ac" x="380.91" y="242.642"/><use xlink:href="#ak" x="387.268" y="242.642"/><use xlink:href="#al" x="389.608" y="242.642"/><use xlink:href="#ag" x="396.22" y="242.642"/><use xlink:href="#ai" x="398.234" y="242.642"/><use xlink:href="#aj" x="404.257" y="242.642"/><use xlink:href="#ac" x="412.486" y="242.642"/><use xlink:href="#am" x="418.844" y="242.642"/><use xlink:href="#af" x="424.358" y="242.642"/><use xlink:href="#P" x="429.973" y="242.642"/><use xlink:href="#Q" x="435.578" y="242.642"/><use xlink:href="#q" x="440.034" y="242.642"/><use xlink:href="#q" x="445.537" y="242.642"/><use xlink:href="#Q" x="451.04" y="242.642"/><use xlink:href="#r" x="455.496" y="242.642"/></g><g fill="#231f20"><use xlink:href="#q" x="77.858" y="264.454"/><use xlink:href="#ar" x="83.361" y="264.454"/><use xlink:href="#r" x="88.977" y="264.454"/><use xlink:href="#s" x="90.991" y="264.454"/></g><use xlink:href="#s" x="93.636" y="264.454" fill="#231f20"/><g fill="#231f20"><use xlink:href="#ad" x="93.636" y="264.454"/><use xlink:href="#r" x="100.085" y="264.454"/><use xlink:href="#s" x="102.099" y="264.454"/><use xlink:href="#as" x="104.744" y="264.454"/><use xlink:href="#z" x="111.214" y="264.454"/><use xlink:href="#y" x="115.517" y="264.454"/><use xlink:href="#x" x="120.807" y="264.454"/><use xlink:href="#at" x="125.151" y="264.454"/><use xlink:href="#W" x="130.562" y="264.454"/><use xlink:href="#V" x="135.913" y="264.454"/><use xlink:href="#ad" x="140.694" y="264.454"/><use xlink:href="#H" x="147.144" y="264.454"/><use xlink:href="#aa" x="152.556" y="264.454"/><use xlink:href="#y" x="160.663" y="264.454"/><use xlink:href="#z" x="165.953" y="264.454"/><use xlink:href="#H" x="170.256" y="264.454"/><use xlink:href="#A" x="175.668" y="264.454"/><use xlink:href="#s" x="177.682" y="264.454"/><use xlink:href="#as" x="180.327" y="264.454"/><use xlink:href="#r" x="186.797" y="264.454"/><use xlink:href="#s" x="188.811" y="264.454"/><use xlink:href="#u" x="191.456" y="264.454"/><use xlink:href="#y" x="197.03" y="264.454"/><use xlink:href="#W" x="202.32" y="264.454"/><use xlink:href="#Y" x="207.671" y="264.454"/><use xlink:href="#A" x="213.174" y="264.454"/><use xlink:href="#s" x="215.188" y="264.454"/><use xlink:href="#aj" x="217.833" y="264.454"/><use xlink:href="#r" x="226.063" y="264.454"/><use xlink:href="#s" x="228.077" y="264.454"/><use xlink:href="#au" x="230.722" y="264.454"/><use xlink:href="#H" x="237.263" y="264.454"/><use xlink:href="#M" x="242.675" y="264.454"/><use xlink:href="#T" x="244.72" y="264.454"/><use xlink:href="#z" x="250.233" y="264.454"/><use xlink:href="#H" x="254.536" y="264.454"/><use xlink:href="#H" x="259.948" y="264.454"/><use xlink:href="#I" x="265.36" y="264.454"/><use xlink:href="#A" x="269.978" y="264.454"/><use xlink:href="#s" x="271.992" y="264.454"/><use xlink:href="#aj" x="274.637" y="264.454"/><use xlink:href="#r" x="282.867" y="264.454"/><use xlink:href="#s" x="284.881" y="264.454"/><use xlink:href="#G" x="287.526" y="264.454"/><use xlink:href="#r" x="294.128" y="264.454"/><use xlink:href="#s" x="296.142" y="264.454"/><use xlink:href="#u" x="298.787" y="264.454"/><use xlink:href="#L" x="304.362" y="264.454"/><use xlink:href="#z" x="309.662" y="264.454"/><use xlink:href="#T" x="313.965" y="264.454"/><use xlink:href="#A" x="319.478" y="264.454"/><use xlink:href="#s" x="321.492" y="264.454"/><use xlink:href="#t" x="324.137" y="264.454"/><use xlink:href="#r" x="329.386" y="264.454"/><use xlink:href="#s" x="331.401" y="264.454"/><use xlink:href="#ao" x="334.045" y="264.454"/><use xlink:href="#r" x="339.122" y="264.454"/><use xlink:href="#s" x="341.136" y="264.454"/><use xlink:href="#u" x="343.781" y="264.454"/><use xlink:href="#y" x="349.355" y="264.454"/><use xlink:href="#x" x="354.645" y="264.454"/><use xlink:href="#x" x="358.989" y="264.454"/><use xlink:href="#y" x="363.332" y="264.454"/><use xlink:href="#z" x="368.622" y="264.454"/><use xlink:href="#aa" x="372.925" y="264.454"/><use xlink:href="#L" x="381.033" y="264.454"/><use xlink:href="#W" x="386.333" y="264.454"/><use xlink:href="#A" x="391.684" y="264.454"/><use xlink:href="#s" x="393.698" y="264.454"/><use xlink:href="#av" x="396.343" y="264.454"/><use xlink:href="#r" x="402.172" y="264.454"/><use xlink:href="#s" x="404.186" y="264.454"/><use xlink:href="#an" x="406.831" y="264.454"/><use xlink:href="#r" x="412.904" y="264.454"/><use xlink:href="#s" x="414.918" y="264.454"/><use xlink:href="#ao" x="417.563" y="264.454"/><use xlink:href="#F" x="422.639" y="264.454"/><use xlink:href="#W" x="424.684" y="264.454"/><use xlink:href="#X" x="430.034" y="264.454"/><use xlink:href="#y" x="435.548" y="264.454"/><use xlink:href="#z" x="440.838" y="264.454"/><use xlink:href="#A" x="445.141" y="264.454"/><use xlink:href="#s" x="447.155" y="264.454"/><use xlink:href="#as" x="449.8" y="264.454"/><use xlink:href="#r" x="456.27" y="264.454"/><use xlink:href="#s" x="458.284" y="264.454"/><use xlink:href="#al" x="460.929" y="264.454"/><use xlink:href="#r" x="467.541" y="264.454"/><use xlink:href="#s" x="469.555" y="264.454"/></g><g fill="#231f20"><use xlink:href="#as" x="93.636" y="279.436"/><use xlink:href="#y" x="100.105" y="279.436"/><use xlink:href="#z" x="105.395" y="279.436"/><use xlink:href="#I" x="109.698" y="279.436"/><use xlink:href="#A" x="114.316" y="279.436"/><use xlink:href="#s" x="116.331" y="279.436"/><use xlink:href="#B" x="118.976" y="279.436"/><use xlink:href="#r" x="125.496" y="279.436"/><use xlink:href="#s" x="127.51" y="279.436"/><use xlink:href="#aj" x="130.155" y="279.436"/><use xlink:href="#L" x="138.385" y="279.436"/><use xlink:href="#w" x="143.685" y="279.436"/><use xlink:href="#L" x="148.68" y="279.436"/><use xlink:href="#I" x="153.98" y="279.436"/><use xlink:href="#F" x="158.598" y="279.436"/><use xlink:href="#A" x="160.643" y="279.436"/><use xlink:href="#s" x="162.657" y="279.436"/><use xlink:href="#ad" x="165.302" y="279.436"/><use xlink:href="#r" x="171.751" y="279.436"/><use xlink:href="#s" x="173.765" y="279.436"/><use xlink:href="#aj" x="176.41" y="279.436"/><use xlink:href="#r" x="184.64" y="279.436"/><use xlink:href="#s" x="186.654" y="279.436"/><use xlink:href="#K" x="189.299" y="279.436"/><use xlink:href="#y" x="198.068" y="279.436"/><use xlink:href="#F" x="203.357" y="279.436"/><use xlink:href="#w" x="205.402" y="279.436"/><use xlink:href="#T" x="210.397" y="279.436"/><use xlink:href="#z" x="215.911" y="279.436"/><use xlink:href="#H" x="220.214" y="279.436"/><use xlink:href="#X" x="225.625" y="279.436"/><use xlink:href="#A" x="231.139" y="279.436"/><use xlink:href="#s" x="233.153" y="279.436"/><use xlink:href="#av" x="235.798" y="279.436"/><use xlink:href="#r" x="241.627" y="279.436"/><use xlink:href="#s" x="243.641" y="279.436"/><use xlink:href="#ak" x="246.286" y="279.436"/><use xlink:href="#W" x="248.626" y="279.436"/><use xlink:href="#L" x="253.976" y="279.436"/><use xlink:href="#Y" x="259.276" y="279.436"/><use xlink:href="#L" x="264.78" y="279.436"/><use xlink:href="#I" x="270.08" y="279.436"/><use xlink:href="#F" x="274.698" y="279.436"/><use xlink:href="#A" x="276.743" y="279.436"/><use xlink:href="#s" x="278.757" y="279.436"/><use xlink:href="#B" x="281.402" y="279.436"/><use xlink:href="#r" x="287.923" y="279.436"/><use xlink:href="#s" x="289.937" y="279.436"/><use xlink:href="#G" x="292.582" y="279.436"/><use xlink:href="#H" x="299.184" y="279.436"/><use xlink:href="#I" x="304.595" y="279.436"/><use xlink:href="#D" x="309.214" y="279.436"/><use xlink:href="#y" x="314.351" y="279.436"/><use xlink:href="#A" x="319.641" y="279.436"/><use xlink:href="#s" x="321.655" y="279.436"/><use xlink:href="#t" x="324.3" y="279.436"/><use xlink:href="#r" x="329.549" y="279.436"/><use xlink:href="#s" x="331.563" y="279.436"/><use xlink:href="#t" x="334.208" y="279.436"/><use xlink:href="#r" x="339.457" y="279.436"/><use xlink:href="#s" x="341.471" y="279.436"/><use xlink:href="#u" x="344.116" y="279.436"/><use xlink:href="#v" x="349.691" y="279.436"/><use xlink:href="#w" x="355.042" y="279.436"/><use xlink:href="#x" x="360.036" y="279.436"/><use xlink:href="#y" x="364.38" y="279.436"/><use xlink:href="#z" x="369.67" y="279.436"/><use xlink:href="#A" x="373.973" y="279.436"/><use xlink:href="#s" x="375.987" y="279.436"/><use xlink:href="#J" x="378.632" y="279.436"/><use xlink:href="#r" x="384.349" y="279.436"/><use xlink:href="#s" x="386.363" y="279.436"/><use xlink:href="#K" x="389.008" y="279.436"/><use xlink:href="#L" x="397.777" y="279.436"/><use xlink:href="#M" x="403.077" y="279.436"/><use xlink:href="#w" x="405.121" y="279.436"/><use xlink:href="#E" x="410.116" y="279.436"/><use xlink:href="#A" x="415.467" y="279.436"/><use xlink:href="#s" x="417.481" y="279.436"/><use xlink:href="#B" x="420.126" y="279.436"/><use xlink:href="#r" x="426.647" y="279.436"/><use xlink:href="#s" x="428.661" y="279.436"/><use xlink:href="#aj" x="431.306" y="279.436"/><use xlink:href="#r" x="439.535" y="279.436"/><use xlink:href="#s" x="441.55" y="279.436"/><use xlink:href="#au" x="444.194" y="279.436"/><use xlink:href="#L" x="450.735" y="279.436"/><use xlink:href="#aa" x="456.035" y="279.436"/><use xlink:href="#T" x="464.143" y="279.436"/><use xlink:href="#v" x="469.657" y="279.436"/><use xlink:href="#z" x="475.007" y="279.436"/><use xlink:href="#Y" x="479.31" y="279.436"/><use xlink:href="#s" x="484.814" y="279.436"/></g><g fill="#231f20"><use xlink:href="#N" x="93.636" y="294.418"/><use xlink:href="#O" x="96.504" y="294.418"/><use xlink:href="#P" x="101.997" y="294.418"/><use xlink:href="#Q" x="107.603" y="294.418"/><use xlink:href="#R" x="112.058" y="294.418"/><use xlink:href="#S" x="117.643" y="294.418"/><use xlink:href="#r" x="120.512" y="294.418"/><use xlink:href="#s" x="122.526" y="294.418"/><use xlink:href="#av" x="125.171" y="294.418"/><use xlink:href="#W" x="131" y="294.418"/><use xlink:href="#X" x="136.35" y="294.418"/><use xlink:href="#H" x="141.864" y="294.418"/><use xlink:href="#x" x="147.276" y="294.418"/><use xlink:href="#E" x="151.619" y="294.418"/><use xlink:href="#y" x="156.97" y="294.418"/><use xlink:href="#M" x="162.26" y="294.418"/><use xlink:href="#F" x="164.305" y="294.418"/><use xlink:href="#L" x="166.349" y="294.418"/><use xlink:href="#M" x="171.649" y="294.418"/><use xlink:href="#s" x="173.694" y="294.418"/><use xlink:href="#X" x="176.339" y="294.418"/><use xlink:href="#U" x="181.853" y="294.418"/><use xlink:href="#w" x="186.379" y="294.418"/><use xlink:href="#aw" x="191.374" y="294.418"/><use xlink:href="#v" x="195.677" y="294.418"/><use xlink:href="#W" x="201.028" y="294.418"/><use xlink:href="#D" x="206.379" y="294.418"/><use xlink:href="#x" x="211.516" y="294.418"/><use xlink:href="#F" x="215.86" y="294.418"/><use xlink:href="#H" x="217.904" y="294.418"/><use xlink:href="#W" x="223.316" y="294.418"/><use xlink:href="#s" x="228.667" y="294.418"/><use xlink:href="#F" x="231.312" y="294.418"/><use xlink:href="#W" x="233.357" y="294.418"/><use xlink:href="#s" x="238.707" y="294.418"/><use xlink:href="#E" x="241.352" y="294.418"/><use xlink:href="#v" x="246.703" y="294.418"/><use xlink:href="#aa" x="252.054" y="294.418"/><use xlink:href="#L" x="260.161" y="294.418"/><use xlink:href="#W" x="265.461" y="294.418"/><use xlink:href="#s" x="270.812" y="294.418"/><use xlink:href="#X" x="273.457" y="294.418"/><use xlink:href="#F" x="278.971" y="294.418"/><use xlink:href="#L" x="281.015" y="294.418"/><use xlink:href="#T" x="286.315" y="294.418"/><use xlink:href="#y" x="291.829" y="294.418"/><use xlink:href="#x" x="297.119" y="294.418"/><use xlink:href="#y" x="301.462" y="294.418"/><use xlink:href="#w" x="306.752" y="294.418"/><use xlink:href="#s" x="311.747" y="294.418"/><use xlink:href="#F" x="314.392" y="294.418"/><use xlink:href="#w" x="316.436" y="294.418"/><use xlink:href="#s" x="321.431" y="294.418"/><use xlink:href="#aa" x="324.076" y="294.418"/><use xlink:href="#y" x="332.184" y="294.418"/><use xlink:href="#X" x="337.473" y="294.418"/><use xlink:href="#F" x="342.987" y="294.418"/><use xlink:href="#L" x="345.032" y="294.418"/><use xlink:href="#x" x="350.332" y="294.418"/><use xlink:href="#y" x="354.675" y="294.418"/><use xlink:href="#X" x="359.965" y="294.418"/><use xlink:href="#s" x="365.479" y="294.418"/><use xlink:href="#T" x="368.124" y="294.418"/><use xlink:href="#U" x="373.637" y="294.418"/><use xlink:href="#s" x="378.164" y="294.418"/><use xlink:href="#K" x="380.809" y="294.418"/><use xlink:href="#W" x="389.578" y="294.418"/><use xlink:href="#x" x="394.928" y="294.418"/><use xlink:href="#ar" x="399.272" y="294.418"/><use xlink:href="#L" x="404.887" y="294.418"/><use xlink:href="#V" x="410.187" y="294.418"/><use xlink:href="#t" x="414.968" y="294.418"/><use xlink:href="#B" x="420.218" y="294.418"/><use xlink:href="#J" x="426.738" y="294.418"/><use xlink:href="#s" x="432.455" y="294.418"/><use xlink:href="#w" x="435.1" y="294.418"/><use xlink:href="#F" x="440.095" y="294.418"/><use xlink:href="#Y" x="442.14" y="294.418"/><use xlink:href="#W" x="447.643" y="294.418"/><use xlink:href="#L" x="452.994" y="294.418"/><use xlink:href="#M" x="458.294" y="294.418"/><use xlink:href="#F" x="460.338" y="294.418"/><use xlink:href="#W" x="462.383" y="294.418"/><use xlink:href="#Y" x="467.734" y="294.418"/><use xlink:href="#r" x="473.237" y="294.418"/><use xlink:href="#s" x="475.251" y="294.418"/></g><g fill="#231f20"><use xlink:href="#an" x="93.636" y="309.399"/><use xlink:href="#z" x="99.709" y="309.399"/><use xlink:href="#x" x="104.012" y="309.399"/><use xlink:href="#y" x="108.355" y="309.399"/><use xlink:href="#z" x="113.645" y="309.399"/><use xlink:href="#F" x="117.948" y="309.399"/><use xlink:href="#H" x="119.993" y="309.399"/><use xlink:href="#w" x="125.405" y="309.399"/><use xlink:href="#D" x="130.399" y="309.399"/><use xlink:href="#M" x="135.537" y="309.399"/><use xlink:href="#y" x="137.581" y="309.399"/><use xlink:href="#z" x="142.871" y="309.399"/><use xlink:href="#r" x="147.174" y="309.399"/><use xlink:href="#s" x="149.188" y="309.399"/><use xlink:href="#ax" x="151.833" y="309.399"/><use xlink:href="#E" x="157.184" y="309.399"/><use xlink:href="#z" x="162.535" y="309.399"/><use xlink:href="#H" x="166.838" y="309.399"/><use xlink:href="#aa" x="172.25" y="309.399"/><use xlink:href="#T" x="180.357" y="309.399"/><use xlink:href="#r" x="185.871" y="309.399"/><use xlink:href="#s" x="187.885" y="309.399"/><use xlink:href="#ay" x="190.53" y="309.399"/><use xlink:href="#L" x="196.135" y="309.399"/><use xlink:href="#w" x="201.435" y="309.399"/><use xlink:href="#D" x="206.43" y="309.399"/><use xlink:href="#r" x="211.567" y="309.399"/><use xlink:href="#s" x="213.581" y="309.399"/><use xlink:href="#as" x="216.226" y="309.399"/><use xlink:href="#F" x="222.696" y="309.399"/><use xlink:href="#H" x="224.74" y="309.399"/><use xlink:href="#M" x="230.152" y="309.399"/><use xlink:href="#r" x="232.197" y="309.399"/><use xlink:href="#s" x="234.211" y="309.399"/><use xlink:href="#q" x="236.856" y="309.399"/><use xlink:href="#R" x="242.359" y="309.399"/><use xlink:href="#ag" x="247.944" y="309.399"/><use xlink:href="#ar" x="249.958" y="309.399"/><use xlink:href="#R" x="255.574" y="309.399"/><use xlink:href="#Q" x="261.158" y="309.399"/><use xlink:href="#V" x="265.614" y="309.399"/><use xlink:href="#ar" x="270.395" y="309.399"/><use xlink:href="#R" x="276.01" y="309.399"/><use xlink:href="#aq" x="281.595" y="309.399"/><use xlink:href="#r" x="287.16" y="309.399"/><use xlink:href="#s" x="289.174" y="309.399"/><use xlink:href="#ai" x="291.819" y="309.399"/><use xlink:href="#aj" x="297.841" y="309.399"/><use xlink:href="#ac" x="306.07" y="309.399"/><use xlink:href="#ak" x="312.428" y="309.399"/><use xlink:href="#al" x="314.768" y="309.399"/><use xlink:href="#ag" x="321.38" y="309.399"/><use xlink:href="#s" x="323.394" y="309.399"/><use xlink:href="#ai" x="326.039" y="309.399"/><use xlink:href="#aj" x="332.062" y="309.399"/><use xlink:href="#ac" x="340.291" y="309.399"/><use xlink:href="#am" x="346.649" y="309.399"/><use xlink:href="#aq" x="352.163" y="309.399"/><use xlink:href="#Q" x="357.727" y="309.399"/><use xlink:href="#q" x="362.183" y="309.399"/><use xlink:href="#af" x="367.686" y="309.399"/><use xlink:href="#aq" x="373.301" y="309.399"/><use xlink:href="#Q" x="378.866" y="309.399"/><use xlink:href="#r" x="383.321" y="309.399"/></g></svg>