<svg xmlns="http://www.w3.org/2000/svg" xmlns:xlink="http://www.w3.org/1999/xlink" width="793.701" height="1058.268" viewBox="0 0 595.276 793.701" version="1.2"><defs><symbol overflow="visible" id="a"><path d="M2.875.031c.434 0 .82-.144 1.156-.437.332-.301.594-.64.782-1.016.183-.34.316-.71.39-1.11.082-.402.125-.804.125-1.202 0-.403-.05-.813-.14-1.22a4.843 4.843 0 0 0-.407-1.155A3.031 3.031 0 0 0 4-7.063a1.747 1.747 0 0 0-1.14-.421c-.844 0-1.473.457-1.876 1.359-.406.906-.609 1.707-.609 2.39 0 .712.203 1.52.61 2.422C1.386-.413 2.02.032 2.874.032zm0-.281c-.75 0-1.227-.441-1.422-1.328-.2-.895-.297-1.613-.297-2.156 0-.54.098-1.254.297-2.141.195-.895.672-1.344 1.422-1.344.363 0 .648.137.86.407.206.273.363.566.468.875.113.343.195.71.25 1.093.059.387.094.758.094 1.11 0 .324-.035.675-.094 1.046a9.33 9.33 0 0 1-.203 1.016c-.094.336-.254.66-.469.969-.21.305-.511.453-.906.453zm0 0"/></symbol><symbol overflow="visible" id="b"><path d="M3.422-7.313a.124.124 0 0 0-.031-.078.119.119 0 0 0-.079-.062.133.133 0 0 0-.078 0 .589.589 0 0 0-.078.047l-1.844.828a.934.934 0 0 0-.218.078c-.086.043-.125.102-.125.172 0 .043.008.082.031.11a.143.143 0 0 0 .094.03c.05 0 .113-.015.187-.046.07-.028.133-.051.188-.063l.687-.312c.051-.02.102-.04.156-.063a.364.364 0 0 1 .172-.047c.07 0 .118.024.141.063.02.043.031.097.031.156v5.078c0 .367-.043.617-.125.75-.074.125-.316.188-.719.188-.25 0-.414.011-.484.03-.074.013-.11.052-.11.11 0 .063.016.106.048.125.027.024.082.032.156.032h3.094c.058 0 .109-.008.14-.032.028-.02.047-.054.047-.11 0-.058-.02-.1-.047-.124a.278.278 0 0 0-.14-.031h-.329c-.375 0-.601-.079-.671-.235-.063-.164-.094-.41-.094-.734zm0 0"/></symbol><symbol overflow="visible" id="c"><path d="M3.64-5.844V.453h.829v-6.297zm0 0"/></symbol><symbol overflow="visible" id="d"><path d="M.75.047v1.016h1.031V.046zm0 0"/></symbol><symbol overflow="visible" id="f"><path d="M7.125-2.438v-4.187h-.75v1.281H4.578v.64h1.797v2.266zM3.203-5.733v-.735h-.781v.735c0 .336-.059.636-.172.906-.117.273-.273.52-.469.734-.21.23-.449.43-.718.594a5.008 5.008 0 0 1-.86.422c.04.043.086.09.14.14.06.043.126.086.188.126.051.054.102.101.156.14.051.043.098.082.141.11.215-.102.426-.223.625-.36.207-.133.399-.281.578-.437.153-.145.301-.305.438-.485.144-.176.265-.375.36-.594.12.22.265.415.421.579.152.168.328.316.516.437.175.137.351.258.53.36.184.093.368.183.548.265.07-.082.148-.172.234-.265.082-.102.176-.204.281-.297-.25-.07-.511-.18-.78-.329a2.996 2.996 0 0 1-.72-.562 2.416 2.416 0 0 1-.484-.672 1.871 1.871 0 0 1-.172-.812zm4.094 7.03V.688H2.594v-.796h4.515v-1.954H1.813v.61h4.515v.766H1.812v1.984zm0 0"/></symbol><symbol overflow="visible" id="g"><path d="M7.063-2.25v-4.375h-.75v4.375zM5.905-3.453a7.152 7.152 0 0 1-.61.094c-.25.03-.51.066-.78.093-.282.024-.555.043-.813.063-.262.012-.488.015-.672.015l-1.406.016v-.984h3v-2.172H.891v.61h3.015v.968H.891v2.219H2.344c.226-.008.422-.016.578-.016.238 0 .5-.008.781-.031.29-.02.578-.047.86-.078.277-.02.539-.047.78-.078.239-.028.427-.063.563-.094zM7.063 1.28v-3.156h-.735V-1H2.5v-.875h-.734v3.156zm-.735-.61H2.5V-.39h3.828zm0 0"/></symbol><symbol overflow="visible" id="h"><path d="M7.766-2.031v-.64h-3.36v-1.032h2.375v-2.688H1.266v2.688H3.64v1.031H.28v.64zm-1.72-2.313H2v-1.422h4.047zm.735 5.766v-2.656H1.188v.625h4.828v2.03zm0 0"/></symbol><symbol overflow="visible" id="i"><path d="M7.234-1.813v-4.812h-.75v1.781H4.781v.64h1.703v2.391zM7.22 1.422v-2.844H1.78v.64h4.672v2.204zM3.312-5.266v-.359h1.594v-.64h-4v.64h1.625v.328c0 .324-.05.617-.14.875A2.666 2.666 0 0 1 2-3.703a3.12 3.12 0 0 1-.75.719 5.73 5.73 0 0 1-.938.515c.04.043.086.09.141.14.059.044.125.087.188.126.05.043.097.086.14.125.051.043.098.082.14.11a5.32 5.32 0 0 0 .641-.376c.215-.144.422-.304.61-.484.164-.152.312-.32.437-.5.133-.184.239-.379.313-.578.101.199.226.386.375.562.152.168.32.32.5.453.176.149.363.286.562.407.196.117.383.21.563.28.05-.07.125-.16.219-.265.09-.101.187-.203.28-.297a3.842 3.842 0 0 1-.859-.39 2.64 2.64 0 0 1-.703-.61 2.43 2.43 0 0 1-.406-.671 2.316 2.316 0 0 1-.14-.829zm0 0"/></symbol><symbol overflow="visible" id="j"><path d="M10.11 2.094V-11.72h1.437V2.094zM2.86-5.453v2.937h1.374a45.318 45.318 0 0 0 2.454-.062c.363-.027.718-.063 1.062-.094.34-.039.703-.086 1.078-.14l.14 1.234a24.15 24.15 0 0 1-1.03.14c-.344.043-.723.083-1.125.11a21.18 21.18 0 0 1-1.313.062 68.12 68.12 0 0 1-1.625.016H1.437v-5.453H6v-2.64H1.39v-1.282h6.032v5.172zm0 0"/></symbol><symbol overflow="visible" id="k"><path d="M10.234 2.094v-8.235H7.375v-1.312h2.86v-4.266h1.437V2.094zM4.5-4.844c-.063.18-.164.352-.297.516a8.369 8.369 0 0 1-.547.64c-.293.344-.636.715-1.031 1.11-.387.387-.824.82-1.313 1.297L.36-2.297c.883-.8 1.649-1.57 2.297-2.312.227-.258.41-.5.547-.72.145-.226.258-.444.344-.655a3.07 3.07 0 0 0 .172-.657c.039-.226.062-.476.062-.75v-3.328h1.453v3.328c0 .305.016.575.047.813.04.23.102.457.188.672.09.21.21.426.36.64.151.22.343.457.562.704.308.343.632.683.968 1.015.34.336.735.707 1.172 1.11l-.937 1.015a39.7 39.7 0 0 1-1.266-1.25 28.78 28.78 0 0 1-.937-1 8.802 8.802 0 0 1-.547-.64 2.068 2.068 0 0 1-.328-.532zm0 0"/></symbol><symbol overflow="visible" id="l"><path d="M4.938-4.484a1.96 1.96 0 0 1-.297.53c-.137.18-.325.4-.563.657-.305.344-.637.711-1 1.094-.367.375-.8.805-1.297 1.281L.844-1.937c.433-.403.836-.79 1.203-1.157a24.7 24.7 0 0 0 1.031-1.125c.238-.27.43-.515.578-.734.145-.227.254-.445.328-.656.082-.207.141-.422.172-.641A5.97 5.97 0 0 0 4.203-7v-1.422h-3v-1.281h3v-1.969h1.453v1.969h2.875v1.281H5.656V-7c0 .305.008.566.032.781.027.219.085.43.171.625.082.2.204.41.36.625.152.219.363.477.625.766.308.344.629.68.953 1 .32.312.703.668 1.14 1.062l-.953 1A50.457 50.457 0 0 1 6.75-2.344a28.066 28.066 0 0 1-.906-.969c-.211-.226-.399-.44-.563-.64a2.068 2.068 0 0 1-.328-.531zm5.328 6.578V-11.72h1.437V2.094zm0 0"/></symbol><symbol overflow="visible" id="n"><path d="M12.766-1V.25H.469V-1zm-1.891-9.422v2.047c0 .668-.02 1.285-.047 1.844a43.65 43.65 0 0 1-.094 1.578c-.043.492-.097.965-.156 1.422-.062.46-.144.926-.234 1.39l-1.438-.187c.184-.977.32-1.906.406-2.781.083-.883.126-1.801.126-2.75v-1.266h-7.47v-1.297zm0 0"/></symbol><symbol overflow="visible" id="o"><path d="M11-2.828v4.937H2.219v-4.937H3.64v1.187h5.937v-1.187zM2.234-5.875v-3.328H9.5v-.906H2.172v-1.22h8.734v3.298H3.641v.937h7.53v1.219zm3.657 3.531v-1.422H.469v-1.218h12.297v1.218H7.344v1.422zM9.578.86V-.42H3.641v1.28zm0 0"/></symbol><symbol overflow="visible" id="p"><path d="M3.094-7.406a2.472 2.472 0 0 1-.14-.313c-.032-.101-.071-.21-.11-.328a4.674 4.674 0 0 0-.125-.375 4.19 4.19 0 0 1-.156-.484V.39H1.187v-10.813h2.125L6.22-3.344l2.828-7.078h2.11V.391H9.78v-9.297c-.054.21-.101.383-.14.515l-.125.36c-.032.117-.07.226-.11.328a2.31 2.31 0 0 1-.125.297l-2.5 6H5.563zm0 0"/></symbol><symbol overflow="visible" id="q"><path d="M5.125.547C4.5.547 3.925.445 3.406.25a3.346 3.346 0 0 1-1.344-.875 4.2 4.2 0 0 1-.874-1.484C.977-2.7.875-3.4.875-4.203v-1.625c0-.79.102-1.477.313-2.063.207-.59.5-1.086.875-1.484a3.5 3.5 0 0 1 1.343-.906 4.917 4.917 0 0 1 1.719-.297c.621 0 1.195.101 1.719.297.52.199.968.504 1.343.906.383.398.68.895.891 1.484.207.586.313 1.274.313 2.063v1.625c0 .805-.106 1.504-.313 2.094a4.172 4.172 0 0 1-.89 1.484A3.4 3.4 0 0 1 6.843.25a4.886 4.886 0 0 1-1.719.297zm0-9.781c-.406 0-.785.07-1.125.203a2.254 2.254 0 0 0-.89.64c-.243.282-.434.653-.579 1.11-.136.449-.203.988-.203 1.61v1.312c0 .625.067 1.168.203 1.625.145.46.336.832.578 1.109.246.281.547.492.891.625.34.137.719.203 1.125.203.402 0 .781-.066 1.125-.203.34-.133.64-.344.89-.625.247-.277.442-.648.579-1.11.144-.456.218-1 .218-1.624v-1.313c0-.621-.074-1.16-.218-1.61-.137-.456-.332-.827-.578-1.109a2.31 2.31 0 0 0-.891-.64 3.112 3.112 0 0 0-1.125-.203zm0 0"/></symbol><symbol overflow="visible" id="r"><path d="M8.86-10.422v6.485c0 .812-.09 1.507-.266 2.078-.168.574-.418 1.043-.75 1.406-.324.355-.73.61-1.219.766a5.486 5.486 0 0 1-1.656.234A5.541 5.541 0 0 1 3.312.312a2.834 2.834 0 0 1-1.218-.765c-.336-.363-.59-.832-.766-1.406-.168-.57-.25-1.266-.25-2.079v-6.484h1.438v6.297c0 .617.046 1.137.14 1.563.09.417.242.761.453 1.03.207.262.461.458.766.579.309.117.676.172 1.094.172.414 0 .781-.055 1.093-.172.31-.121.567-.317.766-.578.207-.27.36-.614.453-1.032.09-.425.14-.945.14-1.562v-6.297zm0 0"/></symbol><symbol overflow="visible" id="s"><path d="M3.86-4.516c-.044.157-.122.32-.235.485-.117.156-.246.332-.39.515-.294.356-.618.739-.97 1.141-.355.398-.73.8-1.124 1.203l-.97-1c.434-.426.845-.844 1.22-1.25.382-.414.726-.832 1.03-1.25.29-.394.485-.781.579-1.156.102-.371.156-.781.156-1.219v-1.328H.72v-1.25h2.437v-1.797h1.39v1.797h2.282v1.25H4.547v1.328c0 .438.05.84.156 1.203.113.367.317.746.61 1.14.308.407.628.802.953 1.173.332.367.718.761 1.156 1.187l-.969 1a99.022 99.022 0 0 1-1.062-1.125c-.313-.34-.618-.691-.907-1.047a6.191 6.191 0 0 1-.375-.515 2.11 2.11 0 0 1-.234-.485zm4.203-6.921h1.406V1.421H8.063v-6.89H6.109v-1.298h1.954zm4.078 13.53h-1.422v-13.812h1.422zm0 0"/></symbol><symbol overflow="visible" id="t"><path d="M3.36 2.188v-3.735h6.89v-1.281H3.281v-1.235h8.375v3.72h-6.89V.952h7.265v1.235zM5.718-9.876H1.453v-1.25h5.688v1.828c0 .594-.09 1.106-.266 1.531-.168.43-.473.825-.906 1.188-.438.355-1.028.707-1.766 1.047-.742.343-1.68.738-2.812 1.172L.906-5.563a53.44 53.44 0 0 0 1.781-.734c.497-.215.926-.422 1.282-.61.363-.195.66-.382.89-.562.227-.183.407-.375.532-.562.12-.196.207-.399.25-.61.05-.214.078-.457.078-.718zM10.25-4.75v-1.531H7.656v-1.235h2.594V-8.89H7.875v-1.234h2.375v-1.594h1.406v6.969zm0 0"/></symbol><symbol overflow="visible" id="u"><path d="M1.031-2.094A46.21 46.21 0 0 0 3-3.344c.54-.363.988-.695 1.344-1 .351-.308.633-.597.843-.86.208-.269.36-.534.454-.796.101-.258.164-.535.187-.828.027-.29.047-.617.047-.984v-1.36H1.297v-1.265h6v2.64c0 .45-.02.856-.047 1.219-.023.367-.09.715-.203 1.047-.117.324-.29.644-.516.953-.23.312-.554.652-.968 1.016-.407.355-.918.753-1.532 1.187-.617.43-1.367.918-2.25 1.469zm9.094 4.188V-11.72h1.438V2.094zm0 0"/></symbol><symbol overflow="visible" id="v"><path d="M9.703-1.469v-10.25h1.422V-7.5h1.89v1.281h-1.89v4.75zM4.031.688H11.5v1.28H2.594v-4.155H4.03zM9-3.86c-.586.054-1.148.105-1.688.156-.53.043-1.12.082-1.765.11-.649.023-1.379.042-2.188.062-.812.011-1.777.015-2.89.015v-1.28H3.14v-2.86h1.421v2.828c.395-.008.77-.02 1.125-.031.364-.02.72-.04 1.063-.063.34-.02.688-.039 1.031-.062a30.47 30.47 0 0 0 1.094-.11zM6.203-6.266c.102-.52.18-1.023.234-1.515.06-.489.094-.946.094-1.375v-.578H1.36v-1.282h6.594v1.657c0 .273-.012.554-.031.843-.012.282-.035.57-.063.86-.03.293-.07.574-.109.843-.043.274-.09.52-.14.735zm0 0"/></symbol><symbol overflow="visible" id="w"><path d="M6.906-2.594l-.484.547c-.211-.05-.434-.14-.672-.265a4.05 4.05 0 0 1-.703-.454 3.768 3.768 0 0 1-.656-.64 3.175 3.175 0 0 1-.454-.844 3.508 3.508 0 0 1-.468.813 3.889 3.889 0 0 1-.625.64c-.23.18-.473.332-.719.453a4.745 4.745 0 0 1-.688.297l-.484-.547a4.728 4.728 0 0 0 1-.484c.309-.207.582-.438.813-.688.226-.238.41-.504.546-.796.133-.301.204-.614.204-.938v-.797h.812v.781c0 .336.067.653.203.954.145.304.336.582.578.828.239.261.516.492.829.687.308.188.632.34.968.453zM7.484.203H.281V-.5h7.203zm0 0"/></symbol><symbol overflow="visible" id="x"><path d="M7.656-3.016H6.47v4.47h-.703V-6.75h.703v3.016h1.187zM5.266-.922c-.461.086-.942.149-1.438.188-.5.043-.98.062-1.437.062H.78v-5.531h3.75v.687H1.5v1.704h2.922v.671L1.5-3.125v1.766h1.203c.414 0 .844-.016 1.281-.047.446-.04.875-.098 1.282-.172zm0 0"/></symbol><symbol overflow="visible" id="y"><path d="M7.484.203H.281v-.672h7.203zM6.266-3.734H2.25v1.25h4.172v.671h-4.89V-6.28H6.25v.672h-4v1.218h4.016zm0 0"/></symbol><symbol overflow="visible" id="z"><path d="M6.781-2.313h-.703v-2.015H4.422a1.889 1.889 0 0 1-.219.672c-.105.199-.242.37-.406.515-.156.149-.34.262-.547.344-.21.074-.434.11-.672.11-.262 0-.508-.047-.734-.141a1.605 1.605 0 0 1-.578-.406 1.566 1.566 0 0 1-.407-.594 1.943 1.943 0 0 1-.14-.75c0-.27.047-.52.14-.75.09-.227.227-.43.407-.61.164-.164.359-.296.578-.39.226-.102.472-.156.734-.156.445 0 .836.144 1.172.421.332.274.547.63.64 1.063h1.688v-1.75h.703zM6.75 1.329h-4.5v-3.281h.703v1.016h3.094v-1.016h.703zM6.047.641v-.907H2.953v.907zM2.578-5.797c-.168 0-.324.035-.469.094a1.04 1.04 0 0 0-.375.266 1.119 1.119 0 0 0-.25.39 1.196 1.196 0 0 0-.093.469c0 .168.023.332.078.484a.954.954 0 0 0 .265.375c.102.106.227.192.375.25.145.063.301.094.47.094.163 0 .316-.031.452-.094.145-.058.27-.144.375-.25a1.04 1.04 0 0 0 .266-.375c.058-.152.094-.316.094-.484 0-.164-.036-.32-.094-.469a1.1 1.1 0 0 0-.266-.39 1.112 1.112 0 0 0-.375-.266 1.145 1.145 0 0 0-.453-.094zm0 0"/></symbol><symbol overflow="visible" id="B"><path d="M5.281-1.219l-.5.5c-.199-.07-.402-.172-.61-.297-.198-.132-.386-.289-.562-.468a3.427 3.427 0 0 1-.515-.61 3.36 3.36 0 0 1-.39-.765 3.555 3.555 0 0 1-.829 1.437 4.469 4.469 0 0 1-1.172.906l-.484-.5c.27-.144.531-.32.781-.53.246-.216.469-.47.656-.75.196-.278.352-.602.469-.97a4.35 4.35 0 0 0 .172-1.265v-.907H.672v-.718h4.094v.703l-1.72.016v.906c0 .46.071.879.22 1.25.144.367.328.683.546.953.227.281.47.52.72.703.257.18.507.316.75.406zm1.5 2.672h-.703V-6.75h.703zm0 0"/></symbol><symbol overflow="visible" id="C"><path d="M6.86-.563h-.704v-.734h-1.89v-.656h1.89V-6.75h.703zM3.015-6.671c.246 0 .488.05.718.14.227.087.426.2.594.345.164.148.297.324.39.53.102.2.157.41.157.626 0 .23-.055.445-.156.64-.094.2-.227.371-.39.516a2.255 2.255 0 0 1-.595.344c-.218.086-.46.125-.718.125-.262 0-.508-.04-.735-.125a1.89 1.89 0 0 1-.578-.344 1.482 1.482 0 0 1-.39-.516 1.465 1.465 0 0 1-.141-.64c0-.215.047-.426.14-.625.09-.207.223-.383.391-.532.152-.144.348-.257.578-.343.227-.09.473-.14.735-.14zm.015 5.484h-.719v-1.234L.47-2.406v-.64l2.719-.032c.527 0 1.03-.016 1.5-.047.476-.027.894-.078 1.25-.14v.64c-.356.063-.774.113-1.25.14-.481.032-1.036.055-1.657.063zm4 2.438H2.047V-.906h.719V.609H7.03zM4.188-5.031c0-.258-.114-.492-.329-.703-.21-.207-.488-.313-.828-.313-.344 0-.629.106-.844.313a.933.933 0 0 0-.312.703c0 .273.102.508.313.703.214.187.5.281.843.281.332 0 .61-.086.828-.266a.909.909 0 0 0 .329-.718zm0 0"/></symbol><symbol overflow="visible" id="J"><path d="M7.484-1.781l-7.203.015v-.671h7.203zM6.36 1.453h-.703V-.375H1.5v-.672h4.86zM6.266-4.5l-4 .016v.671h4.109v.657H1.547v-3.297h4.75v.64H2.266v.672h4zm0 0"/></symbol><symbol overflow="visible" id="K"><path d="M6.781 1.453h-.703v-4.469H4.656v-.687h1.422V-6.75h.703zM2.297-5.563v-1.109h.75v1.11h1.86v.703H.452v-.704zm2.297 2.985c0 .262-.055.508-.157.734-.093.23-.23.434-.406.61a1.98 1.98 0 0 1-.593.406c-.231.094-.477.14-.735.14-.262 0-.508-.046-.734-.14a2.105 2.105 0 0 1-.61-.406 2.105 2.105 0 0 1-.406-.61 1.721 1.721 0 0 1-.156-.734c0-.258.05-.504.156-.735.102-.226.238-.43.406-.609.176-.164.38-.297.61-.39a1.809 1.809 0 0 1 1.469 0c.226.093.425.226.593.39.176.18.313.383.407.61.101.23.156.476.156.734zm-.719 0c0-.164-.035-.32-.094-.469a1.514 1.514 0 0 0-.25-.39 1.26 1.26 0 0 0-.375-.25c-.148-.07-.3-.11-.453-.11-.336 0-.617.121-.844.36a1.237 1.237 0 0 0-.328.859c0 .336.11.621.328.86.227.23.508.343.844.343.32 0 .598-.113.828-.344.227-.238.344-.523.344-.86zm0 0"/></symbol><symbol overflow="visible" id="L"><path d="M4.375-1.156l-.469.484a5.114 5.114 0 0 1-.922-.75 3.101 3.101 0 0 1-.703-1.172c-.094.274-.207.52-.328.735-.117.21-.246.398-.39.562a4.198 4.198 0 0 1-.438.438l-.406.343-.563-.468a4 4 0 0 0 .672-.547c.207-.215.395-.469.563-.75.152-.278.28-.602.375-.969.101-.363.156-.773.156-1.234v-1.782h.734V-4.5c0 .438.047.836.14 1.188.09.355.224.675.392.953a3.147 3.147 0 0 0 1.187 1.203zm2.578 2.61h-.687V-6.75h.687zM4.672-3.454H3.266v-.688h1.406v-2.484h.703v7.703h-.703zm0 0"/></symbol><symbol overflow="visible" id="M"><path d="M4.281 1.422h-.703v-2.719H.281v-.672h7.203v.672H4.281zm2.078-4.39H1.516v-3.407h4.843zm-.703-.657v-2.094H2.22v2.094zm0 0"/></symbol><symbol overflow="visible" id="N"><path d="M6.953 1.453h-.687V-3.14h-.938v4.22h-.703v-7.704h.703v2.781h.938V-6.75h.687zm-5.078-6.89v-1.11h.75v1.11h1.438v.671H.374v-.671zm2.063 2.843c0 .242-.051.473-.141.688-.086.21-.207.394-.36.547-.156.156-.34.285-.546.375-.2.086-.418.125-.657.125-.242 0-.464-.04-.671-.125a1.684 1.684 0 0 1-.547-.375 1.533 1.533 0 0 1-.36-.547 1.836 1.836 0 0 1-.125-.688c0-.238.04-.469.125-.687.082-.215.203-.406.36-.563.152-.152.336-.281.546-.375.208-.09.43-.14.672-.14.239 0 .457.05.657.14.207.094.39.223.546.375.153.156.274.348.36.563.09.219.14.449.14.687zm-.688-.094a.859.859 0 0 0-.11-.421 1.655 1.655 0 0 0-.218-.329 1.231 1.231 0 0 0-.344-.187.86.86 0 0 0-.344-.078.899.899 0 0 0-.39.094 1.736 1.736 0 0 0-.328.234 1.168 1.168 0 0 0-.22.36 1.005 1.005 0 0 0-.077.406c0 .156.023.304.078.437.05.125.125.238.219.328.101.106.21.192.328.25a.944.944 0 0 0 .39.078c.258 0 .493-.109.704-.328.207-.226.312-.508.312-.843zm0 0"/></symbol><symbol overflow="visible" id="O"><path d="M6.813 1.453h-.704V-6.75h.704zM5.875-.469c-.148.024-.352.051-.61.078-.261.024-.542.043-.843.063-.313.023-.637.039-.969.047-.324.011-.637.015-.937.015H.453v-.671h2.125v-1.47a1.994 1.994 0 0 1-.672-.234 1.788 1.788 0 0 1-.515-.437 1.989 1.989 0 0 1-.329-.578 1.89 1.89 0 0 1-.125-.703c0-.27.047-.524.141-.766.102-.246.25-.469.438-.656a1.74 1.74 0 0 1 .609-.438 2.12 2.12 0 0 1 1.594 0c.238.106.445.254.625.438.176.187.316.41.422.656.101.242.156.496.156.766a1.94 1.94 0 0 1-.469 1.281c-.137.18-.308.324-.515.437a1.89 1.89 0 0 1-.641.235v1.469A27.2 27.2 0 0 0 4.657-1c.456-.04.863-.086 1.218-.14zm-1.656-3.89c0-.176-.035-.344-.094-.5a1.45 1.45 0 0 0-.266-.422 1.451 1.451 0 0 0-.406-.297 1.105 1.105 0 0 0-.515-.125c-.399 0-.715.137-.954.406a1.37 1.37 0 0 0-.343.938c0 .367.117.68.359.937.238.262.55.39.938.39.37 0 .68-.124.921-.374.239-.258.36-.578.36-.953zm0 0"/></symbol><symbol overflow="visible" id="P"><path d="M5.188-1.219l-.5.5a3.655 3.655 0 0 1-.594-.297 4 4 0 0 1-.578-.468A4.5 4.5 0 0 1 3-2.094a3.36 3.36 0 0 1-.39-.765 3.401 3.401 0 0 1-.813 1.437c-.375.387-.77.692-1.172.906l-.5-.5c.27-.144.531-.32.781-.53.246-.216.469-.47.656-.75.196-.278.352-.602.47-.97a4.35 4.35 0 0 0 .171-1.265v-.907H.593v-.718h4.079v.703l-1.703.016v.906c0 .46.066.879.203 1.25.144.367.328.683.547.953a3.59 3.59 0 0 0 1.469 1.11zm2.468-1.797H6.47v4.47h-.703V-6.75h.703v3.016h1.187zm0 0"/></symbol><symbol overflow="visible" id="Q"><path d="M6.328-3.516H1.547v-2.89h4.781zm-.703-.656V-5.75H2.25v1.578zM4.453-.328H3.75v-1.625H.281v-.672h7.203v.672h-3.03zm2.203 1.61h-5.11v-2.47h.704V.579h4.406zm0 0"/></symbol><symbol overflow="visible" id="D"><path d="M8.125-1.031v-6.36h-.953v2.032H5.469v.89h1.703v3.438zm.203 2.234V.36h-5.39v-1.968h-.97v2.812zM5.953-3.14c-.48-.183-.863-.398-1.14-.64a3.33 3.33 0 0 1-.657-.75 2.32 2.32 0 0 1-.312-.703 2.811 2.811 0 0 1-.063-.532v-.25h1.781v-.828H.954v.828H2.75v.25c0 .149-.027.34-.078.579-.055.242-.16.503-.313.78-.168.274-.414.552-.734.829-.313.273-.742.523-1.281.75l.719.75a3.63 3.63 0 0 0 .687-.375c.238-.164.46-.336.672-.516.195-.183.367-.379.515-.578a1.76 1.76 0 0 0 .313-.578c.246.375.563.727.938 1.047.37.324.769.566 1.187.719zm0 0"/></symbol><symbol overflow="visible" id="E"><path d="M7.547-3.89v-3.204H1.28v3.203zM8.64-2.173V-3H.187v.828h3.876v1.86h.968v-1.86zm-.86 3.375V.36H2.266v-1.578H1.28v2.422zM6.594-4.719H2.25v-1.547h4.344zm0 0"/></symbol><symbol overflow="visible" id="F"><path d="M5.031-6.406H.891v.843h3.03a5.927 5.927 0 0 1-.25 1.172c-.136.43-.339.868-.608 1.313a6.81 6.81 0 0 1-1.079 1.297A5.882 5.882 0 0 1 .391-.72l.718.594a6.398 6.398 0 0 0 1.72-1.219 7.935 7.935 0 0 0 1.233-1.625c.31-.57.547-1.156.704-1.75a7.044 7.044 0 0 0 .265-1.687zm1.516-.985v8.782H7.5v-4.266h1.297v-.89H7.5v-3.626zm0 0"/></symbol><symbol overflow="visible" id="H"><path d="M8.64.094v-.828H6.954c.07-.29.145-.672.219-1.141.082-.465.16-.96.234-1.484a62.95 62.95 0 0 0 .157-1.547c.05-.508.078-.942.078-1.297H1.078v.828h5.5a14.61 14.61 0 0 1-.094 1.11c-.054.437-.113.886-.171 1.343-.063.45-.13.879-.188 1.281-.063.399-.117.7-.156.907H.187v.828zm0 0"/></symbol><symbol overflow="visible" id="I"><path d="M7.625-3.844v-.734H2.297v-.578h5.156v-2.032H1.281v.735h5.157v.578H1.28v2.031zm1.016.625H.187v.813h3.704v.906h1.03v-.906h3.72zM7.53 1.297v-3.11h-.968v.75H2.25v-.75h-.969v3.11zM6.563.516H2.25v-.829h4.313zm0 0"/></symbol><symbol overflow="visible" id="R"><path d="M5.156-6.406H1.031v.843h3.032a5.927 5.927 0 0 1-.25 1.172c-.137.43-.348.868-.626 1.313A6.81 6.81 0 0 1 2.11-1.781 5.882 5.882 0 0 1 .516-.72l.718.594A6.299 6.299 0 0 0 2.97-1.344a7.462 7.462 0 0 0 1.219-1.625c.32-.57.562-1.156.718-1.75.164-.601.25-1.164.25-1.687zM7.97 1.39v-8.782h-.953v8.782zm0 0"/></symbol><symbol overflow="visible" id="S"><path d="M4.125-5.11c0 .169-.04.325-.11.47a.99.99 0 0 1-.28.374 1.31 1.31 0 0 1-.407.25c-.156.055-.32.079-.484.079-.18 0-.348-.024-.5-.079a1.226 1.226 0 0 1-.406-.25 1.073 1.073 0 0 1-.297-.375 1.168 1.168 0 0 1-.094-.468c0-.145.031-.286.094-.422.07-.145.171-.27.296-.375.114-.102.25-.18.407-.235.152-.058.32-.093.5-.093.164 0 .328.035.484.093.152.055.29.133.406.235.121.105.22.226.282.36.07.136.109.284.109.437zM6.906.47H2.781V-.547h4.125zm.953.828v-3.578h-.953v.937H2.781v-.937h-.953v3.578zm-2.796-6.86a2.08 2.08 0 0 0-.329-.625 2.027 2.027 0 0 0-.5-.5A2.54 2.54 0 0 0 3.578-7a2.284 2.284 0 0 0-.734-.125c-.305 0-.598.055-.875.156a2.473 2.473 0 0 0-.719.422c-.21.18-.379.395-.5.64a1.83 1.83 0 0 0-.188.829 1.912 1.912 0 0 0 .688 1.484c.215.18.46.32.734.422.27.094.555.14.86.14.258 0 .515-.038.765-.124a2.374 2.374 0 0 0 1.188-.86 1.69 1.69 0 0 0 .281-.703h1.844v2h.953V-7.39h-.953v1.829zm0 0"/></symbol><symbol overflow="visible" id="T"><path d="M5.531-6.906H.797v.843h3.687a7.48 7.48 0 0 1-.078.766 11.9 11.9 0 0 1-.11.719c-.042.219-.081.41-.109.562a4.946 4.946 0 0 0-.046.235h.953c.058-.176.113-.41.156-.703.05-.301.098-.598.14-.891a21.872 21.872 0 0 0 .141-1.531zM8.766-3.72v-.86H7.594V-7.39h-.969v6.485h.969V-3.72zm-2.47 1.39v-.812c-.198.032-.46.067-.78.094-.325.031-.66.059-1 .078-.336.031-.66.055-.97.063-.304.011-.538.015-.702.015v-1.906h-.969v1.906H.235v.844h1.109c1.05 0 1.988-.023 2.812-.078.832-.05 1.547-.117 2.14-.203zm1.579 3.532V.36h-5.25v-1.75h-.953v2.594zm0 0"/></symbol><symbol overflow="visible" id="U"><path d="M6.969.5v-6.969h-.985L3.828-.375 1.641-6.469H.656V.5h.797v-5.063l.078-.03L3.281.5h1.063l1.75-5.078.093.016V.5zm0 0"/></symbol><symbol overflow="visible" id="V"><path d="M3.469-6.688c-.492 0-.93.09-1.313.266-.386.18-.715.43-.984.75-.274.324-.48.715-.625 1.172-.149.45-.219.95-.219 1.5 0 .574.07 1.098.219 1.563.144.46.351.851.625 1.171.27.332.598.586.984.766.383.176.82.266 1.313.266.476 0 .91-.09 1.297-.266.394-.18.722-.434.984-.766.277-.32.492-.71.64-1.171A5.01 5.01 0 0 0 6.626-3c0-.55-.082-1.05-.234-1.5a3.393 3.393 0 0 0-.641-1.172 2.69 2.69 0 0 0-.984-.75 3.104 3.104 0 0 0-1.297-.266zm0 6.625c-.7 0-1.242-.265-1.625-.796C1.469-1.4 1.28-2.113 1.28-3c0-.852.188-1.54.563-2.063.383-.527.926-.796 1.625-.796.332 0 .633.074.906.218.27.137.5.325.688.563.183.262.332.57.437.922.102.343.156.73.156 1.156 0 .438-.054.84-.156 1.203a2.848 2.848 0 0 1-.438.922 2.006 2.006 0 0 1-.687.61 1.993 1.993 0 0 1-.906.203zm0 0"/></symbol><symbol overflow="visible" id="W"><path d="M5.797-6.516h-.86v4.813a1.709 1.709 0 0 1-.39 1.063 1.694 1.694 0 0 1-.531.421c-.22.106-.496.157-.829.157-.335 0-.617-.051-.843-.157a1.61 1.61 0 0 1-.531-.422 1.401 1.401 0 0 1-.282-.53 1.862 1.862 0 0 1-.078-.532v-4.813H.578L.563-1.625c0 .324.054.629.171.906.114.281.282.54.5.766.215.215.489.39.813.515.332.133.71.204 1.14.204.415 0 .786-.07 1.11-.204.332-.125.61-.3.828-.515.215-.227.383-.484.5-.766.113-.277.172-.582.172-.906zm0 0"/></symbol><symbol overflow="visible" id="X"><path d="M4.281-4.86c0 .387-.117.715-.343.985-.231.262-.567.39-1 .39-.43 0-.762-.128-1-.39-.231-.27-.344-.598-.344-.984 0-.371.113-.696.343-.97.239-.269.57-.405 1-.405.434 0 .77.136 1 .406.227.273.344.598.344.969zm.532-1.343a2.251 2.251 0 0 0-.797-.64 2.298 2.298 0 0 0-1.079-.25c-.343 0-.664.066-.953.187a2.41 2.41 0 0 0-.734.468c-.2.211-.355.45-.469.72a2.151 2.151 0 0 0-.172.859c0 .312.055.613.172.89.114.274.27.508.469.703.207.2.453.364.734.485.29.117.61.172.954.172a2.345 2.345 0 0 0 1.937-.97H7v2.548h.953v-6.36H7v1.188zm.421 1.797c.008-.07.02-.145.032-.219.007-.07.015-.148.015-.234 0-.082-.008-.164-.015-.25a4.283 4.283 0 0 0-.047-.266H7v.969zm2.938 5.61V.358H2.844v-2.046h-.938v2.89zm0 0"/></symbol><symbol overflow="visible" id="Y"><path d="M8.64-2.36v-.828h-1.5c.07-.238.141-.546.204-.921.058-.383.125-.77.187-1.157a29.1 29.1 0 0 0 .125-1.03c.04-.31.063-.516.063-.61h-6.61v.843h5.516l-.078.766a9.99 9.99 0 0 1-.125.797l-.156.75c-.043.23-.086.418-.125.563H.187v.828H3.72v3.75h.984v-3.75zm0 0"/></symbol><symbol overflow="visible" id="Z"><path d="M5.89-2.86v-.828a4.813 4.813 0 0 1-.546.079c-.211.023-.434.043-.672.062-.242.024-.48.043-.719.063-.242.011-.46.015-.656.015H1.719v-2.484H5.03v-.844H.766v4.188l2.125-.032c.289 0 .582-.004.875-.015.3-.02.582-.04.843-.063.27-.02.516-.039.735-.062.215-.02.398-.047.547-.078zm.641-4.53v6.359H7.5V-3.97h1.203v-.828H7.5V-7.39zM7.75 1.202V.36H2.594V-1.75H1.64v2.953zm0 0"/></symbol></defs><g fill="#393536"><use xlink:href="#a" x="42.468" y="48.426"/><use xlink:href="#b" x="48.041" y="48.426"/><use xlink:href="#a" x="53.614" y="48.426"/></g><g fill="#231f20"><use xlink:href="#c" x="74.885" y="47.727"/><use xlink:href="#d" x="82.886" y="47.727"/><use xlink:href="#e" x="85.492" y="47.727"/><use xlink:href="#f" x="88.099" y="47.727"/><use xlink:href="#g" x="96.1" y="47.727"/><use xlink:href="#e" x="104.1" y="47.727"/><use xlink:href="#h" x="106.707" y="47.727"/><use xlink:href="#i" x="114.707" y="47.727"/><use xlink:href="#e" x="122.707" y="47.727"/></g><g fill="#214099"><use xlink:href="#j" x="76.442" y="125.829"/><use xlink:href="#k" x="89.376" y="125.829"/><use xlink:href="#l" x="102.31" y="125.829"/><use xlink:href="#m" x="115.244" y="125.829"/><use xlink:href="#n" x="118.586" y="125.829"/><use xlink:href="#o" x="131.52" y="125.829"/></g><path d="M76.441 332.004h90.102" fill="none" stroke-width=".299637" stroke="#214099" stroke-miterlimit="10"/><g fill="#214099"><use xlink:href="#p" x="76.442" y="324.013"/><use xlink:href="#q" x="88.504" y="324.013"/><use xlink:href="#r" x="98.473" y="324.013"/><use xlink:href="#m" x="108.123" y="324.013"/><use xlink:href="#s" x="111.465" y="324.013"/><use xlink:href="#t" x="124.399" y="324.013"/><use xlink:href="#m" x="137.333" y="324.013"/><use xlink:href="#u" x="140.675" y="324.013"/><use xlink:href="#v" x="153.609" y="324.013"/></g><g fill="#656263"><use xlink:href="#w" x="264.534" y="627.007"/><use xlink:href="#x" x="272.042" y="627.007"/><use xlink:href="#y" x="279.549" y="627.007"/><use xlink:href="#z" x="287.057" y="627.007"/><use xlink:href="#A" x="294.565" y="627.007"/><use xlink:href="#B" x="297.758" y="627.007"/><use xlink:href="#C" x="305.265" y="627.007"/></g><g fill="#fff"><use xlink:href="#D" x="265.221" y="518.22"/><use xlink:href="#E" x="273.946" y="518.22"/><use xlink:href="#F" x="282.671" y="518.22"/><use xlink:href="#G" x="291.397" y="518.22"/><use xlink:href="#H" x="294.657" y="518.22"/><use xlink:href="#I" x="303.382" y="518.22"/></g><g fill="#656263"><use xlink:href="#J" x="152.513" y="550.999"/><use xlink:href="#K" x="160.021" y="550.999"/></g><path d="M261.984 548.352h65.118" fill="none" stroke-width=".28265756999999997" stroke="#231f20" stroke-dasharray="1.144,1.144"/><g fill="#656263"><use xlink:href="#L" x="286.907" y="550.999"/><use xlink:href="#M" x="294.415" y="550.999"/></g><g fill="#656263"><use xlink:href="#N" x="403.677" y="550.999"/><use xlink:href="#O" x="411.185" y="550.999"/><use xlink:href="#P" x="418.692" y="550.999"/><use xlink:href="#Q" x="426.2" y="550.999"/></g><g fill="#fff"><use xlink:href="#R" x="322.402" y="364.764"/><use xlink:href="#G" x="331.128" y="364.764"/><use xlink:href="#G" x="334.388" y="364.764"/><use xlink:href="#S" x="337.648" y="364.764"/></g><g fill="#fff"><use xlink:href="#R" x="105.462" y="364.764"/><use xlink:href="#G" x="114.187" y="364.764"/><use xlink:href="#G" x="117.447" y="364.764"/><use xlink:href="#T" x="120.707" y="364.764"/></g><g fill="#fff"><use xlink:href="#U" x="92.398" y="441.647"/><use xlink:href="#V" x="99.924" y="441.647"/><use xlink:href="#W" x="106.799" y="441.647"/><use xlink:href="#G" x="113.06" y="441.647"/><use xlink:href="#X" x="116.32" y="441.647"/><use xlink:href="#Y" x="125.046" y="441.647"/><use xlink:href="#Z" x="133.771" y="441.647"/></g></svg>