<svg xmlns="http://www.w3.org/2000/svg" xmlns:xlink="http://www.w3.org/1999/xlink" width="793.701" height="1058.268" viewBox="0 0 595.276 793.701" version="1.2"><defs><symbol overflow="visible" id="a"><path d="M10.406 1.969V-9.578H9.375v4.234H8.031V-9.39H7V1.422h1.031v-5.719h1.344V1.97zM4.125-6.687V-7.86H6v-.907H1.14v.907h1.907v.984c0 .7-.059 1.348-.172 1.938a7.762 7.762 0 0 1-.5 1.609c-.23.5-.527.96-.89 1.375A6.393 6.393 0 0 1 .234-.86c.081.054.163.113.25.171.09.055.18.106.265.157.082.062.16.129.234.187.082.055.157.106.22.156.245-.195.5-.43.75-.703.245-.277.487-.578.718-.89.195-.29.375-.598.531-.922.164-.32.285-.64.36-.953.082.312.195.617.343.906.153.281.332.55.531.797.196.281.41.539.641.766.238.218.473.41.703.562a3.26 3.26 0 0 1 .157-.172L6.14-1c.07-.059.14-.117.203-.172.07-.058.14-.125.203-.187a4.62 4.62 0 0 1-1.125-.954 4.85 4.85 0 0 1-.75-1.234 6.056 6.056 0 0 1-.422-1.422 10.737 10.737 0 0 1-.125-1.718zm0 0"/></symbol><symbol overflow="visible" id="b"><path d="M8.516-9.578v8.484h1.062v-4.703h1.547v-.937H9.578v-2.844zM8.03-4.906c-.187.043-.449.09-.781.14-.336.055-.691.098-1.063.125-.386.043-.773.082-1.156.11a12.12 12.12 0 0 1-.984.047l-1.844.03v-3.671h4.25v-.922H1.187V-3.5H3.156c.309-.008.578-.02.797-.031.371-.008.754-.031 1.14-.063a38.79 38.79 0 0 0 2.156-.234c.321-.05.583-.102.782-.156zm1.89 6.64V.813H3.407v-2.907H2.344v3.828zm0 0"/></symbol><symbol overflow="visible" id="c"><path d="M9.969-3.344v-6.234H8.922v2.297H6.484v-1.907h-1v1.72H2.328v-1.72H1.297v5.313h5.187v-2.469h2.438v3zM5.484-4.78H2.328v-1.782h3.156zm4.485 6.64v-4.687H8.922v1.344H3.578v-1.344H2.516v4.687zM8.922.97H3.578V-.594h5.344zm0 0"/></symbol><symbol overflow="visible" id="d"><path d="M9.969-1.078v-8.5H8.922v8.5zM.859-6.375c0 .418.067.816.204 1.188.144.367.347.683.609.953.27.273.582.492.937.656.364.156.77.234 1.22.234.425 0 .82-.078 1.187-.234a2.98 2.98 0 0 0 .937-.656c.27-.27.477-.586.625-.954.145-.37.219-.769.219-1.187 0-.414-.074-.805-.219-1.172a3.042 3.042 0 0 0-.625-.984 2.802 2.802 0 0 0-.937-.656 3.066 3.066 0 0 0-1.188-.235c-.45 0-.855.082-1.219.235a2.968 2.968 0 0 0-.937.656 3.068 3.068 0 0 0-.61.984A3.33 3.33 0 0 0 .86-6.375zm1.063 0c0-.59.164-1.094.5-1.5.332-.402.8-.61 1.406-.61.602 0 1.07.208 1.406.61.332.406.5.91.5 1.5 0 .586-.168 1.082-.5 1.484-.336.399-.804.594-1.406.594-.605 0-1.074-.195-1.406-.594-.336-.402-.5-.898-.5-1.484zm8.375 8.11V.811H3.609v-2.875H2.531v3.797zm0 0"/></symbol><symbol overflow="visible" id="f"><path d="M9.875 1.969V-9.578H8.812V1.969zM6.578-.953v-7.89H1.36v7.89zm-1.031-.922H2.422v-6.031h3.125zm0 0"/></symbol><symbol overflow="visible" id="g"><path d="M10.094 1.969V-9.578H9.063v4.11H7.687v-3.923h-1.03V1.422h1.03v-5.844h1.375v6.39zM6.234-2a4.67 4.67 0 0 1-1.109.14c-.23.032-.46.055-.688.063-.23.012-.445.016-.64.016l-1.485.031v-2.625H5.36v-4.516H1.281v.922h3.063v2.672H1.28v4.484l2.172-.03c.55 0 1.086-.032 1.61-.095.527-.058.921-.113 1.171-.156zm0 0"/></symbol><symbol overflow="visible" id="h"><path d="M10.094 1.969V-9.578H9.063V1.969zM1.438-6.328c0 .406.07.789.218 1.14.145.344.348.649.61.907.27.261.586.472.953.625.363.148.765.219 1.203.219.426 0 .816-.07 1.172-.22.363-.152.68-.363.953-.624.258-.258.46-.563.61-.907a2.85 2.85 0 0 0 .234-1.14c0-.383-.082-.75-.235-1.094a2.723 2.723 0 0 0-.61-.906 3.251 3.251 0 0 0-.952-.625 2.946 2.946 0 0 0-1.172-.235c-.438 0-.84.083-1.203.235a3.152 3.152 0 0 0-.953.625c-.262.25-.465.555-.61.906-.148.344-.218.711-.218 1.094zm1.046 0c0-.527.172-.988.516-1.375.34-.383.816-.578 1.422-.578.601 0 1.07.195 1.406.578.332.387.5.848.5 1.375 0 .555-.168 1.023-.5 1.406-.336.375-.805.563-1.406.563-.606 0-1.082-.188-1.422-.563-.344-.383-.516-.851-.516-1.406zm6.172 4.375c-.23.043-.55.086-.953.125-.406.043-.84.082-1.297.11-.437.042-.87.081-1.297.109-.418.023-.746.03-.984.03a9.14 9.14 0 0 1-.703.016H.843v.954c.009 0 .134.007.376.015H3c.3 0 .508-.004.625-.015.508 0 1.016-.016 1.516-.047.496-.028.968-.067 1.406-.11.445-.039.848-.082 1.203-.125.352-.05.656-.097.906-.14zm0 0"/></symbol><symbol overflow="visible" id="i"><path d="M11.266-5.516v-.968H9.703v-3.094H8.641v7.406h1.062v-3.344zM5.812-8.734v-.875H2.376v.875zM7.407-7v-.875H.828V-7zM1.281-4.453c0 .262.067.512.203.75.145.23.336.43.579.594.246.168.546.304.89.406.34.094.727.14 1.156.14.871 0 1.567-.18 2.079-.546.507-.364.765-.813.765-1.344 0-.527-.258-.977-.766-1.344-.5-.371-1.19-.562-2.062-.562-.438 0-.832.054-1.172.156a2.79 2.79 0 0 0-.89.406c-.25.168-.446.371-.579.61-.136.23-.203.476-.203.734zm1.11-.016c0-.32.156-.578.468-.765.309-.184.735-.282 1.266-.282.527 0 .945.098 1.25.282.309.187.469.445.469.765 0 .336-.153.602-.453.797-.305.188-.727.281-1.266.281-.531 0-.957-.093-1.266-.28-.312-.184-.468-.454-.468-.798zm7.312 6.5v-3.64H2.188v.906h6.421V2.03zm0 0"/></symbol><symbol overflow="visible" id="j"><path d="M9.969-1.078v-8.5H8.922v1.344H6.203a3.074 3.074 0 0 0-1.016-.891 2.784 2.784 0 0 0-1.375-.344c-.437 0-.84.086-1.203.25-.367.168-.68.395-.937.672-.274.281-.48.613-.625.985a3.33 3.33 0 0 0-.203 1.171c0 .418.066.817.203 1.188.144.375.351.7.625.969.258.28.57.504.937.656.364.156.766.234 1.204.234.527 0 1.003-.113 1.421-.344.426-.238.77-.554 1.032-.953h2.656v3.563zM8.922-5.562H6.656c.04-.133.07-.27.094-.407.027-.144.047-.285.047-.422 0-.152-.02-.312-.047-.468a3.599 3.599 0 0 0-.094-.438h2.266zm-7-.829c0-.582.16-1.082.484-1.5.332-.414.801-.625 1.406-.625.602 0 1.07.211 1.407.625.332.418.5.918.5 1.5 0 .586-.168 1.086-.5 1.5-.336.407-.805.61-1.407.61-.605 0-1.074-.203-1.406-.61-.324-.414-.484-.914-.484-1.5zm8.36 8.125V.813H3.608v-2.875H2.531v3.796zm0 0"/></symbol><symbol overflow="visible" id="k"><path d="M10.906-3.11v-.937H9.094c.058-.32.125-.691.187-1.11.059-.425.117-.866.172-1.327.05-.465.094-.93.125-1.391.04-.457.067-.89.078-1.297H1.61v.922h6.922c-.031.71-.097 1.418-.187 2.125-.086.71-.2 1.402-.344 2.078H.375v.938h4.64v5.078h1.048V-3.11zm0 0"/></symbol><symbol overflow="visible" id="l"><path d="M6.266-7.375v-.031h2.609v-1.375H1.906v1.375H4.5v.015a2.198 2.198 0 0 1-.328.875 3.647 3.647 0 0 1-.64.766c-.345.293-.739.55-1.173.766a7.57 7.57 0 0 1-1.296.5c.183.168.39.367.609.593.226.22.422.418.578.594.332-.121.656-.273.969-.453.32-.176.625-.375.906-.594.258-.195.5-.41.719-.64.226-.239.41-.485.547-.735.152.262.347.504.578.719.226.219.476.426.75.61.277.187.562.355.843.5.29.136.567.242.829.312.101-.145.242-.328.421-.547.184-.215.368-.426.547-.625a4.672 4.672 0 0 1-1.015-.36 4.495 4.495 0 0 1-.953-.609 3.646 3.646 0 0 1-.766-.765 1.71 1.71 0 0 1-.36-.891zm3.687 5.297c-.273.031-.59.07-.953.11-.367.03-.738.066-1.11.093l-1.03.063c-.313.011-.544.015-.688.015v-2.016h-1.61v2.047H.938v1.454h3c.489 0 1.024-.004 1.61-.016.582-.02 1.156-.05 1.719-.094a36.501 36.501 0 0 0 1.546-.11c.477-.038.86-.085 1.141-.14zm2.063 4.406v-13.594h-1.579V2.328zM7.328-9.719v-1.344h-4v1.344zm0 0"/></symbol><symbol overflow="visible" id="m"><path d="M11.828-1.281v-9.985H10.25v9.985zm-6.36-7.844v-1.844H3.782v1.89c0 .513-.086.993-.25 1.438-.168.45-.398.856-.687 1.22-.324.437-.711.831-1.156 1.171a8.75 8.75 0 0 1-1.407.86c.215.18.453.378.703.593.246.211.442.383.579.516.289-.153.585-.348.89-.578.309-.227.613-.485.906-.766.278-.27.532-.563.75-.875.227-.32.399-.64.516-.953.164.324.375.633.625.922.258.293.535.558.828.797.27.23.547.445.828.64.29.188.563.34.813.453.12-.152.281-.347.468-.578.196-.238.383-.46.563-.672a5.49 5.49 0 0 1-1.234-.64 4.574 4.574 0 0 1-1.047-.985 4.69 4.69 0 0 1-.735-1.203 3.72 3.72 0 0 1-.265-1.406zm6.673 11.188V.64H4.53v-2.938H2.906v4.36zm0 0"/></symbol><symbol overflow="visible" id="n"><path d="M12.781-3.5v-1.438H7.437v-1.53h3.954v-1.407H3.625v-1.656h7.625v-1.39H2.016v4.452h3.78v1.532H.47V-3.5zM6.61 2.594c1.59 0 2.813-.258 3.657-.766.84-.512 1.265-1.144 1.265-1.89 0-.747-.426-1.368-1.265-1.86-.844-.496-2.067-.75-3.657-.75-1.593 0-2.816.254-3.656.75-.836.492-1.25 1.113-1.25 1.86 0 .746.414 1.378 1.25 1.89.84.508 2.063.766 3.656.766zM3.547-.078c0-.426.27-.754.812-.985.54-.238 1.29-.359 2.25-.359.946 0 1.696.129 2.25.375.551.242.829.574.829 1 0 .414-.278.738-.829.969-.554.226-1.304.344-2.25.344-.96 0-1.71-.121-2.25-.36-.543-.23-.812-.558-.812-.984zm0 0"/></symbol><symbol overflow="visible" id="o"><path d="M13-4.875v-1.406h-1.703v-1.563H13v-1.39h-1.703v-2.032H9.719v8.61h1.578v-2.219zm-6.313-5.203v-1.25H2.579v1.25zm1.844 2.062v-1.25H.766v1.25zm-7.36 2.61c0 .293.083.57.25.828.177.262.423.488.735.672.301.187.664.34 1.094.453.426.117.895.172 1.406.172 1.059 0 1.907-.203 2.532-.61.632-.402.953-.914.953-1.53 0-.583-.317-1.067-.938-1.454-.625-.395-1.473-.594-2.531-.594-.524 0-.996.055-1.422.157-.43.105-.793.257-1.094.453a2.19 2.19 0 0 0-.734.656c-.168.25-.25.52-.25.797zm5.298-.016c0 .324-.164.57-.485.734-.324.168-.761.25-1.312.25-.563 0-1.012-.078-1.344-.234-.324-.164-.484-.41-.484-.734 0-.301.16-.535.484-.703.332-.176.781-.266 1.344-.266.55 0 .988.086 1.312.25.32.168.485.402.485.703zM11.579 0c0-.395-.122-.742-.36-1.047a3.084 3.084 0 0 0-.953-.812 5.802 5.802 0 0 0-1.485-.5 9.175 9.175 0 0 0-1.89-.188c-.657 0-1.274.059-1.844.172a6.323 6.323 0 0 0-1.5.484c-.43.22-.77.489-1.016.797a1.63 1.63 0 0 0-.36 1.047c0 .402.114.77.345 1.094.238.32.57.598 1 .828.425.227.925.398 1.5.516a8.95 8.95 0 0 0 1.859.187c.664 0 1.281-.058 1.844-.172a6.442 6.442 0 0 0 1.5-.484c.426-.23.758-.508 1-.828.238-.313.36-.68.36-1.094zM3.936-.031c0-.227.083-.426.25-.594.165-.164.391-.29.672-.375a3.76 3.76 0 0 1 .922-.219c.352-.05.719-.078 1.094-.078.809 0 1.492.106 2.047.313.558.21.844.527.844.953a.828.828 0 0 1-.25.594 1.98 1.98 0 0 1-.641.406 4.121 4.121 0 0 1-.922.25c-.344.05-.7.078-1.062.078-.387 0-.758-.027-1.11-.078a3.988 3.988 0 0 1-.937-.25 1.58 1.58 0 0 1-.657-.406.812.812 0 0 1-.25-.594zm0 0"/></symbol><symbol overflow="visible" id="p"><path d="M12.797.828V-.609h-5.36v-2.766h3.766v-7.484H9.61v2.218H3.625v-2.218H2.031v7.484h3.75v2.766H.453V.828zm-3.188-5.64H3.625v-2.422h5.984zm0 0"/></symbol><symbol overflow="visible" id="q"><path d="M1.766-10.516v1.422h7.843a45.995 45.995 0 0 1-.265 3.344c-.137 1.156-.301 2.27-.485 3.328h1.579c.101-.57.203-1.207.296-1.906.09-.707.18-1.422.266-2.14.082-.708.148-1.41.203-2.11.05-.707.094-1.352.125-1.938zM12.796.828V-.609H6.314v-5.063h-1.61v5.063H.453V.828zm0 0"/></symbol><symbol overflow="visible" id="r"><path d="M11.828 2.328v-13.594h-1.594v3.954h-2.78v1.515h2.78v8.125zM5.438-7.719v-3H3.766v2.906c0 .688-.075 1.336-.22 1.938a6.99 6.99 0 0 1-1.78 3.328A8.17 8.17 0 0 1 .14-1.266c.238.168.484.356.734.563.246.2.453.371.61.515.288-.183.597-.437.921-.75.332-.32.649-.664.953-1.03.278-.352.532-.72.75-1.095.227-.37.399-.738.516-1.093.152.386.352.77.594 1.14.246.368.523.707.828 1.016A7.83 7.83 0 0 0 7.719-.484c.133-.153.304-.332.515-.532.215-.195.446-.39.688-.578A8.775 8.775 0 0 1 7.39-2.766a6.178 6.178 0 0 1-1.125-1.53 5.704 5.704 0 0 1-.625-1.548 8.044 8.044 0 0 1-.204-1.875zm0 0"/></symbol><symbol overflow="visible" id="t"><path d="M4.531-.922l-2.687-9.453H.172L3.734 1.141h1.579L8.89-10.375H7.219zm0 0"/></symbol><symbol overflow="visible" id="u"><path d="M4.016-6.25c.62 0 1.097.305 1.421.906.333.594.5 1.38.5 2.344 0 .992-.167 1.785-.5 2.375-.324.586-.8.875-1.421.875-.618 0-1.086-.29-1.407-.875-.324-.59-.484-1.383-.484-2.375 0-.965.16-1.75.484-2.344.32-.601.79-.906 1.407-.906zm0-1.266c-1.157 0-2.024.418-2.594 1.25C.859-5.43.578-4.34.578-3c0 1.375.281 2.465.844 3.266.57.808 1.437 1.218 2.594 1.218 1.144 0 2.015-.41 2.609-1.218.59-.801.89-1.891.89-3.266 0-1.34-.3-2.43-.89-3.266-.594-.832-1.465-1.25-2.61-1.25zm0 0"/></symbol><symbol overflow="visible" id="v"><path d="M.922-10.375V1.141h1.5v-11.516zm0 0"/></symbol><symbol overflow="visible" id="w"><path d="M1.063-.078v2.047h2.03V-.078zm0 0"/></symbol><symbol overflow="visible" id="x"><path d="M3.297-10.594c-1 0-1.746.551-2.235 1.64C.57-7.866.329-6.382.329-4.5c0 1.887.242 3.367.734 4.438C1.551.996 2.298 1.53 3.297 1.53c.976 0 1.723-.535 2.234-1.593.508-1.07.766-2.551.766-4.438 0-1.883-.258-3.367-.766-4.453-.511-1.09-1.258-1.64-2.234-1.64zm0 1.36c.433 0 .789.43 1.062 1.28.27.845.407 1.997.407 3.454 0 1.438-.137 2.582-.407 3.422C4.086-.234 3.73.188 3.297.188c-.45 0-.805-.422-1.063-1.266-.261-.84-.39-1.984-.39-3.422 0-1.457.129-2.61.39-3.453.258-.852.614-1.281 1.063-1.281zm0 0"/></symbol><symbol overflow="visible" id="y"><path d="M4.781-3.484c-.086 1.156-.289 2.07-.61 2.734-.312.656-.675.984-1.077.984-.367 0-.653-.183-.86-.546-.199-.372-.316-.801-.343-1.282H.406c0 1 .242 1.77.735 2.313.488.55 1.14.828 1.953.828.59 0 1.097-.176 1.515-.516.414-.343.75-.816 1-1.406.258-.602.442-1.313.547-2.125.114-.809.172-1.688.172-2.625 0-.809-.058-1.555-.172-2.234-.117-.676-.3-1.25-.547-1.72a3.155 3.155 0 0 0-.953-1.124c-.386-.27-.851-.406-1.39-.406-.93 0-1.668.37-2.22 1.109-.542.73-.812 1.723-.812 2.969 0 .656.078 1.226.235 1.703.152.48.367.871.64 1.172.246.312.547.543.891.687.34.149.691.219 1.047.219.308 0 .617-.05.922-.156.3-.102.57-.297.812-.578zm-1.562-.61c-.45 0-.805-.238-1.063-.718-.261-.489-.39-1.125-.39-1.907 0-.758.129-1.379.39-1.86.258-.476.614-.718 1.063-.718.394 0 .738.246 1.031.735.29.48.438 1.097.438 1.843 0 .793-.145 1.43-.422 1.907-.282.48-.633.718-1.047.718zm0 0"/></symbol><symbol overflow="visible" id="z"><path d="M1.969-11.11l2.234 9.532 2.172-9.531h1.516L4.984.42H3.375L.406-11.108zm7.953 0V.423H8.5V-11.11zm2.687 0V.423h-1.421V-11.11zm0 0"/></symbol><symbol overflow="visible" id="A"><path d="M1.39-.766h1.766v1.844H1.391zm0 0"/></symbol><symbol overflow="visible" id="C"><path d="M12.938 2.234h-1.5v-8.109H9.812v7.39h-1.5v-13.718h1.5v4.953h1.626v-5.25h1.5zM4.124-4.937a2.16 2.16 0 0 1-.266.5c-.117.18-.254.363-.406.546-.312.387-.664.793-1.047 1.22-.375.429-.773.862-1.187 1.296L.187-2.453c.465-.457.899-.899 1.297-1.328.403-.434.774-.88 1.11-1.328.3-.414.504-.829.61-1.235a5.29 5.29 0 0 0 .155-1.297V-9.75H.922v-1.328H7.14v1.328H4.844v2.11c0 .46.054.886.172 1.28.12.4.343.805.656 1.22.332.437.672.855 1.016 1.25.351.386.765.808 1.234 1.265L6.875-1.562c-.406-.426-.785-.82-1.125-1.188a19.914 19.914 0 0 1-.953-1.14 4.811 4.811 0 0 1-.406-.547 2.058 2.058 0 0 1-.25-.5zm0 0"/></symbol><symbol overflow="visible" id="D"><path d="M9.11-4.875a37.658 37.658 0 0 1-3.125.281c-.575.024-1.243.04-2 .047-.762.012-1.708.016-2.829.016v-7.016h6.625v1.36h-5.11v4.312c.79 0 1.462-.004 2.017-.016a92.168 92.168 0 0 0 2.828-.14c.425-.04.906-.094 1.437-.157zm4.703-2.406H11.78v5.297h-1.515V-12.5h1.515v3.844h2.031zM4.592.703h7.579v1.375H3.047v-4.89h1.547zm0 0"/></symbol><symbol overflow="visible" id="E"><path d="M5.328-4.406c-.586 0-1.113-.086-1.578-.266a4.018 4.018 0 0 1-1.203-.719 3.209 3.209 0 0 1-.75-1.03 2.799 2.799 0 0 1-.266-1.204v-.734c0-.414.086-.817.266-1.204.176-.382.426-.722.75-1.015.332-.3.734-.54 1.203-.719a4.271 4.271 0 0 1 1.578-.281c.59 0 1.117.098 1.578.281.465.18.867.418 1.203.719a2.9 2.9 0 0 1 .75 1.015c.176.387.266.79.266 1.204v.734c0 .418-.09.82-.266 1.203-.168.387-.418.73-.75 1.031a4.118 4.118 0 0 1-1.203.72c-.46.179-.988.265-1.578.265zm0-1.375c.32 0 .625-.051.906-.157.29-.113.54-.257.75-.437.207-.176.368-.379.485-.61.12-.238.187-.484.187-.734v-.547c0-.257-.066-.507-.187-.75a1.792 1.792 0 0 0-.485-.609 2.495 2.495 0 0 0-.75-.422 2.66 2.66 0 0 0-.906-.156 2.628 2.628 0 0 0-1.656.578c-.211.168-.379.371-.5.61a1.698 1.698 0 0 0-.172.75v.546c0 .25.055.496.172.735.121.23.289.433.5.609.215.18.469.324.75.438.277.105.582.156.906.156zM10.25-1.22a97.43 97.43 0 0 1-2.016.172c-.68.055-1.398.098-2.156.125-.762.031-1.574.059-2.437.078-.856.012-1.79.016-2.797.016v-1.375c1.02 0 1.953-.004 2.797-.016.851-.008 1.648-.023 2.39-.047a73.347 73.347 0 0 0 2.11-.109c.664-.05 1.32-.11 1.968-.172zm.734 3.453V-12.5h1.532V2.234zm0 0"/></symbol><symbol overflow="visible" id="F"><path d="M3.734-6.188v.72H2.25v-.72zm0 1.75v.782H2.25v-.781zm2.797-1.75v.72H5.063v-.72zm0 1.75v.782H5.063v-.781zM8.047.704V-.03c-.024 0-.192.02-.5.047-.305.039-.633.082-.984.125-.368.039-.708.078-1.016.109-.305.027-.465.047-.484.047v-.984h2.765v-1.079H5.062v-.89h2.766v-4.531h-2.75v-.844h3.125v-1.094H5.078v-.89c.695-.07 1.274-.16 1.734-.266.458-.114.704-.176.735-.188l-.5-1.047a9.985 9.985 0 0 1-1.969.391c-.71.074-1.371.121-1.984.14-.606.012-1.117.012-1.531 0-.407-.019-.61-.03-.61-.03l.516 1.109s.07.008.218.015c.145.012.329.016.547.016.215.012.457.016.72.016.257 0 .519-.008.78-.032v.766H.547v1.094h3.187v.844H1.016v4.53H3.75v.891H1.031v1.079H3.75V.421L.547.672l.297 1.234 6.984-.875a4.678 4.678 0 0 1-.297.36l-.093.125 1.25.75a5.16 5.16 0 0 1 .25-.375c.164-.23.363-.551.593-.954.215-.406.446-.894.688-1.453.238-.57.437-1.207.594-1.906.132-.582.238-1.187.312-1.812.07-.633.129-1.223.172-1.766.027-.527.05-.973.062-1.328.008-.363.016-.567.016-.61h1.438v.422c.007.274.019.621.03 1.047 0 .418-.007.887-.015 1.407 0 .523-.02 1.035-.047 1.53-.031.387-.066.805-.094 1.25-.023.438-.054.864-.093 1.266-.055.387-.117.73-.188 1.032-.074.3-.168.488-.281.562a.668.668 0 0 1-.344.078 4.086 4.086 0 0 1-.437 0 4.37 4.37 0 0 1-.406-.047.899.899 0 0 1-.188-.046l.484 1.406c.008 0 .082.008.22.031.144.02.32.02.53 0a2.36 2.36 0 0 0 .657-.14c.226-.075.437-.215.625-.423.152-.167.28-.457.375-.859.101-.406.187-.867.25-1.39.058-.52.101-1.067.125-1.641.027-.582.062-1.125.093-1.625.02-.633.036-1.25.047-1.844.008-.601.016-1.14.016-1.61v-1.14-.484h-2.828l.187-2.797-1.61-.14.11 2.937H8.625v1.219h1.406c0 .03.004.175.016.421.008.243.008.582 0 1.016-.024.43-.07.934-.14 1.516-.063.586-.169 1.23-.313 1.937-.188.856-.434 1.602-.735 2.235-.293.636-.566 1.14-.812 1.515zm0 0"/></symbol><symbol overflow="visible" id="G"><path d="M4.234-3.516h1.157v1.797H4.234zM.672-4.64v6.875H1.89V-.609h3.5v.75c0 .12-.008.234-.016.328a1.9 1.9 0 0 1-.016.234.514.514 0 0 1-.078.14.463.463 0 0 1-.14.11.566.566 0 0 1-.25.047 4.4 4.4 0 0 1-.329.016c-.117 0-.222-.008-.312-.016a2.19 2.19 0 0 0-.156-.016l.484 1.235c.102.008.211.015.328.015.114.008.239.004.375-.015.133-.012.274-.043.422-.094.152-.043.313-.113.469-.203a.886.886 0 0 0 .312-.328c.07-.117.125-.242.157-.375A3.83 3.83 0 0 0 6.67.75v-5.391zM1.89-3.516h1.062v1.797H1.891zm9.14-.343h1.172v1.406h-1.172zM8.062-7.547v1.172h1.766v1.36H7.141v1.156h2.687v1.406H7.922v1.187h1.906V.016c0 .164-.02.332-.047.5-.023.175-.07.28-.14.312-.075.027-.18.05-.313.063a3.003 3.003 0 0 1-.375 0c-.125 0-.238-.008-.328-.016-.094-.012-.14-.023-.14-.031 0 .02.023.097.078.234.05.133.101.281.156.438.058.164.117.316.172.453.05.144.082.226.093.25.008.008.07.015.188.015.113 0 .25-.007.406-.015.152-.012.313-.04.469-.078.164-.032.297-.082.39-.141.145-.105.258-.246.344-.422.082-.168.145-.336.188-.5a3.61 3.61 0 0 0 .047-.5c.007-.148.015-.27.015-.36v-1.484h2.36v-2.593h1.296v-1.157h-1.296v-2.53zm2.97 1.172h1.171v1.36h-1.172zm-4.47-2.203v-.016H4.235v-.86H6.86v-1.077H4.22v-.64c0-.114.004-.22.015-.313.008-.09.02-.164.032-.22a.699.699 0 0 1 .03-.14c.02-.027.032-.05.032-.062L2.812-12v.125c.008.063.024.145.047.234.008.086.02.18.032.282.007.105.015.191.015.25v.578h-2.5v1.078h2.516v.86H.812v1.062h2.11v.953H.125v1.125h7.016v-1.125H4.234v-.953h2.329v-.422l.734.594c.027-.028.187-.235.469-.61.289-.37.64-1.066 1.046-2.078.02 0 .063.008.126.016H9.515c.113.25.21.504.296.75.083.242.149.46.204.656.05.2.093.367.125.5.027.137.05.215.062.234l1.219-.421-.172-.454a9.182 9.182 0 0 0-.375-.937 5.973 5.973 0 0 1-.172-.438c.465-.027.875-.07 1.219-.125.34-.05.617-.109.828-.171a3.46 3.46 0 0 0 .5-.141c.113-.04.18-.067.203-.078l-.672-1.188a9.222 9.222 0 0 1-1.14.375 9.861 9.861 0 0 1-1.407.235c-.312.03-.605.054-.875.062a6.691 6.691 0 0 1-.687 0c-.2-.008-.363-.02-.485-.031-.117-.008-.18-.016-.187-.016-.2.668-.445 1.223-.734 1.656-.282.438-.52.77-.704.985zm5.532-1.172c0 .023.039.113.125.266.09.156.219.336.375.53.164.22.367.446.61.673.245.23.534.43.858.594l.797-1.125a1.306 1.306 0 0 1-.328-.11 3.86 3.86 0 0 1-.5-.297 5.862 5.862 0 0 1-.578-.469c-.2-.183-.383-.41-.547-.671zm0 0"/></symbol><symbol overflow="visible" id="H"><path d="M8.063-3.578l.218 1.047h-.469v-1.047zm3.671-.016v1.063h-.484l.266-1.063zm-1.03 0L10.5-2.53h-.25v-1.063zm-1.423.016v1.062h-.25l-.187-1.062zm3.672 3.453c-.012 0-.101-.047-.265-.14-.168-.102-.38-.227-.626-.376-.261-.144-.539-.3-.828-.468a57.381 57.381 0 0 1-.796-.485h2.203v-2.89h-2.344v-.61h2.515v-.89h-2.515v-.641h3.078V.359c0 .102-.012.196-.031.282a.364.364 0 0 1-.094.203.242.242 0 0 1-.203.094h-.25a1.3 1.3 0 0 1-.203-.016 4.064 4.064 0 0 1-.172-.031h-.063zm.422-8.39v.906h-1.969v-.907zM8.891-1.595a4.98 4.98 0 0 1-.875.922c-.305.242-.575.43-.813.563a3.555 3.555 0 0 1-.875.375v-6.891H9.25v.64H6.734v.891H9.25v.61H6.937v2.89zm-.704-6.922v.907H6.329v-.907zm0-1.75v.86H6.329v-.86zm5.188 0v.86h-1.969v-.86zM5.109-3.594V2.22h1.235V.453L7 1.297c.02 0 .238-.121.656-.36.426-.242.957-.714 1.594-1.421v2.546h1.047V-.53L12.203.875l.219 1.297.078.015c.059.008.145.016.25.016.09 0 .203-.008.328-.015.133 0 .274-.012.422-.032.215-.023.395-.086.531-.187.133-.106.242-.23.328-.375.07-.137.118-.29.141-.453.027-.157.047-.309.047-.454v-11.874h-4.328v4.093h-.86v-4.093H5.11v6.656a2.786 2.786 0 0 1-.468-.516 11.492 11.492 0 0 1-.375-.625 10.77 10.77 0 0 1-.344-.703 44.523 44.523 0 0 1-.36-.813v-.968h1.282V-9.36H3.547l.125-2.563-1.516-.172.094 2.735H.766v1.203H2.14a9.04 9.04 0 0 1-.297 1.719 11.823 11.823 0 0 1-.532 1.562c-.218.492-.457.941-.703 1.344a6.52 6.52 0 0 1-.734 1l.953.937c.238-.351.442-.676.61-.968.175-.29.32-.551.437-.782a7.96 7.96 0 0 0 .266-.578 3.45 3.45 0 0 1 .156-.375V2.22h1.25v-7.14c.058.124.125.269.187.421.059.148.141.3.235.453.09.18.203.352.328.516.121.168.273.34.453.515zm0 0"/></symbol></defs><g fill="#33459a"><use xlink:href="#a" x="377.966" y="195.92"/><use xlink:href="#b" x="389.049" y="195.92"/><use xlink:href="#c" x="400.132" y="195.92"/><use xlink:href="#d" x="411.215" y="195.92"/><use xlink:href="#e" x="422.299" y="195.92"/><use xlink:href="#f" x="425.825" y="195.92"/><use xlink:href="#g" x="436.909" y="195.92"/><use xlink:href="#h" x="447.992" y="195.92"/><use xlink:href="#i" x="459.075" y="195.92"/><use xlink:href="#j" x="470.159" y="195.92"/><use xlink:href="#k" x="481.242" y="195.92"/><use xlink:href="#a" x="492.325" y="195.92"/><use xlink:href="#b" x="503.409" y="195.92"/><use xlink:href="#e" x="514.492" y="195.92"/></g><g fill="#495756"><use xlink:href="#l" x="377.966" y="218.358"/><use xlink:href="#m" x="390.962" y="218.358"/><use xlink:href="#n" x="403.959" y="218.358"/><use xlink:href="#o" x="416.956" y="218.358"/><use xlink:href="#p" x="429.953" y="218.358"/><use xlink:href="#q" x="442.949" y="218.358"/><use xlink:href="#r" x="455.946" y="218.358"/><use xlink:href="#s" x="468.943" y="218.358"/><use xlink:href="#t" x="473.078" y="218.358"/></g><g fill="#495756"><use xlink:href="#u" x="481.009" y="218.358"/><use xlink:href="#v" x="488.748" y="218.358"/><use xlink:href="#w" x="491.776" y="218.358"/><use xlink:href="#s" x="495.911" y="218.358"/><use xlink:href="#x" x="500.046" y="218.358"/><use xlink:href="#y" x="506.397" y="218.358"/></g><g fill="#33459a"><use xlink:href="#z" x="391.743" y="372.96"/><use xlink:href="#A" x="405.694" y="372.96"/><use xlink:href="#B" x="410.096" y="372.96"/><use xlink:href="#C" x="413.817" y="372.96"/><use xlink:href="#D" x="427.768" y="372.96"/><use xlink:href="#E" x="441.719" y="372.96"/><use xlink:href="#B" x="455.67" y="372.96"/></g><g fill="#33459a"><use xlink:href="#F" x="459.389" y="372.68"/><use xlink:href="#G" x="475.665" y="372.68"/><use xlink:href="#H" x="491.941" y="372.68"/></g></svg>