<svg xmlns="http://www.w3.org/2000/svg" xmlns:xlink="http://www.w3.org/1999/xlink" width="793.701" height="1058.268" viewBox="0 0 595.276 793.701" version="1.2"><defs><symbol overflow="visible" id="a"><path d="M7.422 1.36v-7.985h-.734v2.938h-.954V-6.5H5V.984h.734v-3.953h.954V1.36zM2.938-4.626v-.813H4.28v-.625H.813v.625h1.359v.688c0 .48-.043.926-.125 1.328a4.915 4.915 0 0 1-.344 1.125 3.87 3.87 0 0 1-.64.938c-.25.28-.551.539-.891.765.05.043.11.086.172.125.07.031.133.067.187.094a17.48 17.48 0 0 0 .328.234c.176-.12.352-.28.532-.468.175-.196.347-.407.515-.625.145-.196.274-.407.39-.625a3.29 3.29 0 0 0 .25-.672c.052.219.13.43.235.625a4.693 4.693 0 0 0 .844 1.078c.164.156.332.289.5.39a1 1 0 0 1 .266-.25l.125-.125.156-.125a3.154 3.154 0 0 1-.797-.656 3.326 3.326 0 0 1-.547-.86 5.18 5.18 0 0 1-.297-.983 7.006 7.006 0 0 1-.094-1.188zm0 0"/></symbol><symbol overflow="visible" id="b"><path d="M6.078-6.625V-.75h.75v-3.266h1.11v-.64h-1.11v-1.969zm-.344 3.234a5.189 5.189 0 0 1-.562.094c-.242.031-.496.067-.766.094a19.67 19.67 0 0 1-.812.078 8.224 8.224 0 0 1-.703.031l-1.313.016v-2.547H4.61v-.64H.844v3.843H2.25c.227-.008.422-.015.578-.015.258-.008.531-.024.813-.047.277-.02.55-.047.812-.079.258-.027.5-.062.719-.093a3.59 3.59 0 0 0 .562-.11zm1.344 4.594v-.64H2.422v-2.016h-.75v2.656zm0 0"/></symbol><symbol overflow="visible" id="c"><path d="M7.11-2.313v-4.312h-.75v1.578H4.624v-1.312h-.719v1.187h-2.25v-1.187H.922v3.687h3.703V-4.39h1.734v2.079zm-3.204-1h-2.25V-4.53h2.25zM7.11 1.282v-3.234h-.75v.922H2.547v-.922h-.75V1.28zm-.75-.61H2.547V-.405h3.812zm0 0"/></symbol><symbol overflow="visible" id="d"><path d="M7.11-.75v-5.875h-.75V-.75zM.61-4.406c0 .281.05.554.156.812.101.25.242.477.421.672.196.18.422.324.672.438.258.117.551.171.875.171.301 0 .582-.054.844-.171.258-.114.485-.258.672-.438.184-.195.332-.422.438-.672a2.21 2.21 0 0 0 .156-.812c0-.29-.055-.563-.157-.813a2.292 2.292 0 0 0-.437-.687 2.083 2.083 0 0 0-.672-.438 2.102 2.102 0 0 0-.844-.172c-.324 0-.617.059-.875.172-.25.106-.476.254-.671.438-.18.199-.32.43-.422.687-.106.25-.157.524-.157.813zm.765 0c0-.403.113-.75.344-1.032.238-.289.578-.437 1.015-.437.426 0 .758.148 1 .438.239.28.36.628.36 1.03 0 .4-.121.739-.36 1.016-.242.282-.574.422-1 .422-.437 0-.777-.14-1.015-.422-.23-.277-.344-.617-.344-1.015zm5.969 5.61V.562H2.562v-1.985h-.75v2.625zm0 0"/></symbol><symbol overflow="visible" id="f"><path d="M7.047 1.36v-7.985H6.28v7.984zM4.687-.657v-5.469H.97v5.469zm-.734-.64H1.72V-5.47h2.234zm0 0"/></symbol><symbol overflow="visible" id="g"><path d="M7.203 1.36v-7.985H6.47v2.844h-.985V-6.5H4.75V.984h.734v-4.046h.985v4.421zm-2.75-2.75c-.094.023-.21.042-.344.062-.136.023-.289.039-.453.047-.168.023-.336.039-.5.047H2.72l-1.063.015V-3.03h2.157v-3.125H.921v.64h2.172v1.844H.922v3.11l1.547-.016c.383 0 .765-.02 1.14-.063.371-.039.657-.078.844-.109zm0 0"/></symbol><symbol overflow="visible" id="h"><path d="M7.203 1.36v-7.985h-.75v7.984zM1.031-4.376a1.965 1.965 0 0 0 .578 1.406c.196.188.426.336.688.438.258.105.547.156.86.156.3 0 .581-.05.843-.156.258-.102.484-.25.672-.438a1.92 1.92 0 0 0 .437-.625c.114-.246.172-.508.172-.781 0-.27-.058-.523-.172-.766a2.006 2.006 0 0 0-.437-.625A2.182 2.182 0 0 0 4-6.187a2.102 2.102 0 0 0-.844-.172c-.312 0-.601.058-.86.171a2.308 2.308 0 0 0-.687.422 1.961 1.961 0 0 0-.578 1.391zm.735 0c0-.371.117-.691.359-.953.246-.27.594-.406 1.031-.406.426 0 .758.136 1 .406.239.262.36.582.36.953 0 .375-.121.7-.36.969-.242.261-.574.39-1 .39-.437 0-.785-.129-1.031-.39a1.399 1.399 0 0 1-.36-.969zm4.406 3.016a7.804 7.804 0 0 1-.688.093c-.28.032-.586.059-.906.079-.324.023-.637.042-.937.062a8.814 8.814 0 0 1-.688.031 4.92 4.92 0 0 1-.515.016H.609v.656s.086.008.266.016h1.266c.214 0 .367-.004.453-.016.363 0 .722-.008 1.078-.031.351-.02.687-.047 1-.078.308-.028.594-.063.844-.094a9.75 9.75 0 0 0 .656-.094zm0 0"/></symbol><symbol overflow="visible" id="i"><path d="M8.047-3.813v-.671H6.922v-2.141h-.766V-1.5h.766v-2.313zM4.14-6.046v-.594H1.687v.594zm1.14 1.203v-.593H.594v.593zM.921-3.078c0 .18.048.351.141.515.102.157.239.293.407.407.183.125.398.226.64.297.246.062.52.093.813.093.621 0 1.117-.125 1.484-.375.364-.257.547-.57.547-.937 0-.363-.183-.676-.547-.938-.355-.257-.847-.39-1.468-.39-.305 0-.583.039-.829.11-.25.062-.464.16-.64.28-.18.118-.317.258-.407.422-.093.168-.14.34-.14.516zm.782-.016c0-.215.11-.39.328-.515.227-.133.531-.204.906-.204.383 0 .688.067.907.188.215.125.328.305.328.531 0 .23-.113.414-.328.547-.219.137-.524.203-.906.203-.376 0-.68-.062-.907-.187a.625.625 0 0 1-.328-.563zm5.219 4.5v-2.515h-5.36v.625h4.579v1.89zm0 0"/></symbol><symbol overflow="visible" id="j"><path d="M7.11-.75v-5.875h-.75v.922H4.421a2.105 2.105 0 0 0-1.703-.844 2.076 2.076 0 0 0-1.531.64 1.962 1.962 0 0 0-.438.673c-.094.261-.14.535-.14.812 0 .293.046.57.14.828.102.25.25.477.438.672.183.188.41.34.671.453.258.106.547.156.86.156.37 0 .71-.078 1.015-.234.309-.164.555-.383.735-.656h1.89V-.75zm-.75-3.11H4.75a1.39 1.39 0 0 0 .063-.265c.019-.102.03-.203.03-.297a1.73 1.73 0 0 0-.03-.312 1.769 1.769 0 0 0-.063-.313h1.61zm-4.985-.562c0-.402.113-.75.344-1.031.238-.29.57-.438 1-.438.433 0 .77.149 1 .438.238.281.36.629.36 1.031 0 .406-.122.754-.36 1.031-.23.282-.567.422-1 .422-.43 0-.762-.14-1-.422-.23-.277-.344-.625-.344-1.03zm5.953 5.625v-.64H2.562v-1.985h-.75v2.625zm0 0"/></symbol><symbol overflow="visible" id="k"><path d="M7.781-2.156v-.64H6.484c.051-.227.098-.49.141-.782l.125-.906c.027-.32.055-.641.078-.954.027-.32.05-.625.063-.906H1.156v.64h4.938c-.024.481-.07.974-.14 1.47-.063.492-.15.972-.25 1.437H.265v.64h3.312V1.36h.75v-3.515zm0 0"/></symbol><symbol overflow="visible" id="m"><path d="M3.813-4.36v-.015h1.593v-.813h-4.25v.813h1.578v.016c-.023.18-.086.351-.187.515a2.406 2.406 0 0 1-.406.453c-.211.168-.446.317-.704.438a4.476 4.476 0 0 1-.796.297c.113.105.238.226.375.36.144.124.257.241.343.343.207-.07.407-.16.594-.266a4.05 4.05 0 0 0 .547-.344c.164-.113.316-.238.453-.374.133-.145.242-.29.328-.438.09.156.207.3.344.422.145.125.3.246.469.36.164.116.336.214.515.296.176.086.344.149.5.188.059-.09.145-.204.25-.329.114-.12.227-.242.344-.359-.2-.039-.41-.11-.625-.203a3.041 3.041 0 0 1-.594-.375 2.077 2.077 0 0 1-.453-.453 1.053 1.053 0 0 1-.218-.531zm2.25 3.126a6.179 6.179 0 0 1-.594.078c-.219.023-.446.039-.672.047-.219.011-.43.023-.625.03a7.116 7.116 0 0 1-.422.016V-2.25h-.969v1.203H.562v.86h1.844c.29 0 .614-.004.969-.016A22.94 22.94 0 0 0 4.422-.25c.34-.02.656-.04.937-.063.29-.019.524-.046.704-.078zm1.25 2.609v-8.016h-.954v8.016zm-2.86-7.11v-.796H2.016v.797zm0 0"/></symbol><symbol overflow="visible" id="n"><path d="M7.203-.75v-5.89h-.969v5.89zM3.328-5.39v-1.094H2.297v1.125c0 .304-.055.59-.156.859-.094.262-.23.496-.407.703-.199.262-.433.496-.703.703-.273.2-.558.367-.86.5.134.106.274.223.423.344.152.125.273.23.36.313.175-.09.359-.208.546-.344a5.69 5.69 0 0 0 .547-.453c.164-.153.316-.329.453-.516.145-.184.25-.375.313-.563.101.2.234.383.39.547.152.168.32.325.5.47.152.136.32.26.5.374.176.117.344.211.5.281.07-.101.164-.222.281-.359.121-.133.239-.266.344-.39a2.993 2.993 0 0 1-.75-.376 2.764 2.764 0 0 1-.64-.578 2.758 2.758 0 0 1-.454-.719 2.17 2.17 0 0 1-.156-.828zm4.063 6.609V.375H2.766v-1.734h-1v2.578zm0 0"/></symbol><symbol overflow="visible" id="o"><path d="M7.781-2.063v-.843h-3.25v-.906h2.39v-.829H2.204v-.984h4.64v-.828H1.235v2.64h2.297v.907H.281v.844zm-3.75 3.594c.965 0 1.707-.152 2.219-.453.508-.305.766-.676.766-1.11 0-.445-.258-.816-.766-1.109-.512-.289-1.254-.437-2.219-.437-.98 0-1.726.148-2.234.437-.512.293-.766.664-.766 1.11 0 .433.254.804.766 1.11.508.3 1.254.452 2.234.452zM2.156-.047c0-.246.16-.441.485-.578.332-.133.796-.203 1.39-.203.57 0 1.024.074 1.36.219.332.136.5.332.5.578 0 .246-.168.441-.5.578C5.055.68 4.6.75 4.03.75c-.593 0-1.058-.074-1.39-.219C2.316.395 2.156.2 2.156-.047zm0 0"/></symbol><symbol overflow="visible" id="p"><path d="M7.906-2.875v-.828H6.875v-.922h1.031v-.828H6.875v-1.188h-.969v5.063h.969v-1.297zM4.063-5.953v-.734H1.578v.734zm1.125 1.219v-.735H.468v.735zM.702-3.188c0 .18.05.348.156.5.114.149.266.274.454.376.183.117.41.21.671.28.258.063.54.095.844.095.645 0 1.16-.118 1.547-.36.383-.238.578-.539.578-.906 0-.34-.195-.629-.578-.86-.375-.226-.887-.343-1.531-.343-.313 0-.602.035-.86.093a2.298 2.298 0 0 0-.671.266c-.188.106-.34.238-.454.39a.794.794 0 0 0-.156.47zm3.235-.015c0 .2-.102.348-.297.437-.2.094-.465.141-.797.141-.344 0-.617-.047-.813-.14-.199-.09-.297-.235-.297-.422 0-.176.098-.317.297-.422.196-.102.469-.157.813-.157.332 0 .597.055.797.157.195.093.296.23.296.406zM7.046 0a.949.949 0 0 0-.219-.61 1.8 1.8 0 0 0-.578-.484 3.32 3.32 0 0 0-.922-.297A5.637 5.637 0 0 0 4.203-1.5c-.406 0-.789.04-1.14.11-.344.062-.649.16-.907.28a1.688 1.688 0 0 0-.61.47.927.927 0 0 0-.218.609c0 .238.067.453.203.64.145.196.348.364.61.5.257.133.562.235.906.297.351.07.734.11 1.14.11a6.6 6.6 0 0 0 1.11-.094 3.32 3.32 0 0 0 .922-.297c.258-.125.46-.285.61-.469.144-.187.218-.41.218-.656zm-4.64-.016c0-.132.046-.25.14-.343.101-.102.238-.18.406-.235a2.49 2.49 0 0 1 .563-.125c.214-.027.441-.047.671-.047.489 0 .899.067 1.235.188.34.125.516.316.516.562 0 .133-.055.25-.157.344a1.49 1.49 0 0 1-.375.25c-.168.059-.355.11-.562.14-.211.028-.426.048-.64.048-.243 0-.474-.02-.688-.047a2.957 2.957 0 0 1-.563-.14.952.952 0 0 1-.406-.25.472.472 0 0 1-.14-.345zm0 0"/></symbol><symbol overflow="visible" id="q"><path d="M7.797.484v-.843H4.53V-2h2.282v-4.422h-.97v1.313h-3.64v-1.313h-.969V-2h2.282v1.64H.28v.844zM5.844-2.844h-3.64v-1.422h3.64zm0 0"/></symbol><symbol overflow="visible" id="r"><path d="M1.078-6.203v.828h4.766c-.024.637-.074 1.3-.157 1.984-.085.68-.183 1.336-.296 1.97h.968l.172-1.141c.059-.415.114-.833.157-1.25.05-.426.093-.844.125-1.25.027-.415.054-.797.078-1.141zM7.797.484v-.843H3.844v-2.985h-.985v2.985H.281v.843zm0 0"/></symbol><symbol overflow="visible" id="s"><path d="M7.203 1.375v-8.016H6.22v2.313H4.53v.906H6.22v4.797zm-3.89-5.938v-1.765H2.296v1.719c0 .406-.05.793-.14 1.156-.087.355-.212.683-.376.984-.187.356-.43.68-.718.969a4.889 4.889 0 0 1-.97.75c.145.094.29.207.438.328.153.117.281.223.375.313.176-.114.364-.258.563-.438.195-.183.39-.39.578-.61a7.06 7.06 0 0 0 .453-.64 2.62 2.62 0 0 0 .313-.656c.09.23.21.457.359.672.152.218.32.426.5.61.164.187.336.362.515.515.176.148.348.273.516.375a5.852 5.852 0 0 1 .719-.656 5.685 5.685 0 0 1-.922-.704 3.572 3.572 0 0 1-.688-.89 3.265 3.265 0 0 1-.374-.922 4.443 4.443 0 0 1-.126-1.11zm0 0"/></symbol><symbol overflow="visible" id="u"><path d="M2.766-.547L1.125-6.125H.109L2.266.672h.968l2.172-6.797H4.391zm0 0"/></symbol><symbol overflow="visible" id="v"><path d="M2.438-3.688c.382 0 .675.18.874.532.196.355.297.82.297 1.39 0 .586-.101 1.051-.296 1.391-.2.344-.493.516-.876.516-.374 0-.664-.172-.859-.516-.187-.34-.281-.805-.281-1.39 0-.57.094-1.036.281-1.391.195-.352.484-.531.86-.531zm0-.75c-.7 0-1.227.247-1.579.735-.343.492-.515 1.137-.515 1.937C.344-.96.516-.32.859.156c.352.477.88.719 1.579.719.695 0 1.226-.242 1.593-.719.364-.476.547-1.117.547-1.922 0-.8-.183-1.445-.547-1.937-.367-.488-.898-.735-1.593-.735zm0 0"/></symbol><symbol overflow="visible" id="w"><path d="M.563-6.125V.672h.906v-6.797zm0 0"/></symbol><symbol overflow="visible" id="x"><path d="M.64-.047v1.203h1.25V-.047zm0 0"/></symbol><symbol overflow="visible" id="y"><path d="M2-6.25c-.605 0-1.059.324-1.36.969C.349-4.645.204-3.77.204-2.656c0 1.117.145 1.992.438 2.625.3.62.754.937 1.359.937.602 0 1.055-.316 1.36-.937.308-.633.468-1.508.468-2.625 0-1.114-.16-1.989-.469-2.625C3.055-5.926 2.602-6.25 2-6.25zm0 .797c.27 0 .488.258.656.766.164.5.25 1.18.25 2.03 0 .845-.086 1.52-.25 2.016-.168.5-.386.75-.656.75-.273 0-.488-.25-.64-.75-.157-.496-.235-1.171-.235-2.015 0-.852.078-1.531.234-2.031.153-.508.368-.766.641-.766zm0 0"/></symbol><symbol overflow="visible" id="z"><path d="M2.906-2.063c-.054.688-.18 1.231-.375 1.626-.187.386-.41.578-.656.578-.219 0-.395-.114-.516-.329a1.565 1.565 0 0 1-.203-.75H.25C.25-.344.395.113.688.438c.3.32.703.485 1.203.485.351 0 .656-.106.906-.313.258-.199.46-.476.61-.828.152-.351.269-.77.343-1.25.07-.476.11-1 .11-1.562 0-.477-.04-.914-.11-1.313a3.483 3.483 0 0 0-.344-1.015c-.148-.278-.34-.5-.578-.657a1.42 1.42 0 0 0-.844-.25c-.562 0-1.011.223-1.343.657-.336.437-.5 1.023-.5 1.75 0 .398.047.738.14 1.015.102.281.235.512.39.688.153.187.337.324.548.406.207.086.414.125.625.125a1.7 1.7 0 0 0 .562-.094c.184-.058.352-.176.5-.343zm-.953-.359c-.273 0-.488-.14-.64-.422-.157-.277-.235-.656-.235-1.125 0-.445.078-.812.234-1.094.153-.277.368-.421.641-.421.238 0 .445.148.625.437.176.281.266.645.266 1.078 0 .469-.09.848-.266 1.125-.168.281-.379.422-.625.422zm0 0"/></symbol><symbol overflow="visible" id="A"><path d="M3.422-7.313a.124.124 0 0 0-.031-.078.119.119 0 0 0-.079-.062.133.133 0 0 0-.078 0 .589.589 0 0 0-.078.047l-1.844.828a.934.934 0 0 0-.218.078c-.086.043-.125.102-.125.172 0 .043.008.082.031.11a.143.143 0 0 0 .094.03c.05 0 .113-.015.187-.046.07-.028.133-.051.188-.063l.687-.312c.051-.02.102-.04.156-.063a.364.364 0 0 1 .172-.047c.07 0 .118.024.141.063.02.043.031.097.031.156v5.078c0 .367-.043.617-.125.75-.074.125-.316.188-.719.188-.25 0-.414.011-.484.03-.074.013-.11.052-.11.11 0 .063.016.106.048.125.027.024.082.032.156.032h3.094c.058 0 .109-.008.14-.032.028-.02.047-.054.047-.11 0-.058-.02-.1-.047-.124a.278.278 0 0 0-.14-.031h-.329c-.375 0-.601-.079-.671-.235-.063-.164-.094-.41-.094-.734zm0 0"/></symbol><symbol overflow="visible" id="B"><path d="M4.297-2.078c0-.227.016-.348.047-.36.027-.007.203-.015.515-.015h.407c.039 0 .066-.008.078-.031.02-.02.031-.051.031-.094 0-.04-.008-.086-.016-.14 0-.06-.023-.095-.062-.095h-.875c-.074-.007-.117-.046-.125-.109V-5.266v-.25c0-.132-.04-.191-.11-.171l-.609.265c-.043 0-.062.024-.062.063a.427.427 0 0 1 .015.093v2.063c0 .219-.011.348-.031.375-.023.023-.137.031-.344.031h-2.11c-.023 0-.081.008-.171.016-.094.011-.14-.016-.14-.078 0-.028.03-.082.093-.157.059-.082.098-.129.11-.14l3.75-4.922c.007-.02.019-.04.03-.063.02-.02.032-.039.032-.062 0-.04-.02-.067-.047-.078a.427.427 0 0 0-.094-.016c-.074 0-.129.012-.156.031a.572.572 0 0 0-.11.11L.5-3.046c-.043.062-.09.12-.14.171a.378.378 0 0 0-.079.203c0 .149.02.219.063.219H3.14c.207 0 .32.012.343.031.028.024.047.137.047.344v.969c0 .136-.008.273-.015.406 0 .125-.086.21-.25.25a.566.566 0 0 1-.22.047h-.218a.429.429 0 0 0-.156.031c-.055.023-.078.066-.078.125 0 .055.008.09.031.11.027.011.07.015.125.015.207 0 .406-.008.594-.031a5.075 5.075 0 0 1 1.14 0 4 4 0 0 0 .532.031.235.235 0 0 0 .109-.031c.04-.02.063-.055.063-.11 0-.07-.036-.113-.094-.125a1.222 1.222 0 0 0-.172-.015c-.293 0-.473-.047-.531-.14-.063-.09-.094-.282-.094-.563zm0 0"/></symbol><symbol overflow="visible" id="C"><path d="M10.094-9.75l.078 4.438c0 .53.031.976.094 1.328.058.343.187.511.375.5.183 0 .375-.22.562-.657.184-.433.281-1.046.281-1.828l-.046-3.781c0-.184.007-.348.03-.484.028-.145.048-.274.048-.391a.564.564 0 0 0-.047-.281c-.031-.082-.117-.156-.25-.219-.106-.027-.246-.066-.422-.11a9.998 9.998 0 0 0-.516-.109c-.18-.027-.34-.054-.484-.078a3.77 3.77 0 0 1-.297-.047c-.469-.027-.727.043-.766.219-.043.168.082.316.375.438.352.148.602.285.75.406.153.125.235.347.235.656zm-2.406.094a2.92 2.92 0 0 1-.266-.016A6.722 6.722 0 0 0 7-9.687c-.156 0-.309.007-.453.015a.806.806 0 0 0-.344.063c-.187.093-.535.16-1.031.187-.5.024-1.024.031-1.563.031h-.484a9.214 9.214 0 0 1-.406-.03 6.59 6.59 0 0 1-.344-.032 1.17 1.17 0 0 1-.219-.031c-.406-.028-.648.011-.719.125-.062.117.063.273.375.468.32.211.583.352.782.422.207.074.379.106.515.094a.844.844 0 0 0 .329-.078c.09-.05.19-.094.296-.125h.047c.04-.008.098-.02.172-.031.059-.02.129-.036.203-.047.07-.008.149-.02.235-.031.09 0 .207-.004.343-.016.133-.008.282-.024.438-.047.164-.008.332-.02.5-.031.176-.02.36-.04.547-.063-.324.7-.715 1.364-1.172 1.985-.45.625-.914 1.195-1.39 1.703-.481.511-.958.957-1.423 1.328-.46.367-.863.637-1.203.812-.105.063-.156.13-.156.188 0 .062.035.117.11.156.09.031.21.047.359.047.152-.008.347-.063.578-.156a8.019 8.019 0 0 0 1.344-.781c.496-.34 1-.75 1.5-1.22.496-.476.988-1.007 1.468-1.593.477-.59.907-1.223 1.282-1.89.05-.114.125-.239.218-.376.102-.144.188-.28.25-.406A.733.733 0 0 0 8-9.422c-.023-.101-.129-.18-.313-.234zm2.125 7.344L9.78.905H6.11l-.062-3.203zM11.5 1.265c0-.118-.074-.207-.219-.266a1.274 1.274 0 0 0-.344-.094l.329-2.984a.62.62 0 0 1 .109-.281c.07-.09.125-.18.156-.266a.327.327 0 0 0 .016-.25c-.024-.09-.117-.176-.281-.25a1.771 1.771 0 0 0-.844-.11c-.313.032-.57.075-.766.126-.062.03-.273.054-.625.062A83.572 83.572 0 0 1 6.766-3h-.563c-.062 0-.152-.008-.266-.031-.105-.02-.23-.047-.375-.078a6.831 6.831 0 0 1-.5-.047 4.159 4.159 0 0 0-.593-.016c-.387.024-.649.121-.782.297-.124.18-.101.29.079.328.113.031.218.067.312.094l.25.078a.452.452 0 0 1 .266.36l.218 3.484c.008.289.07.508.188.656a.547.547 0 0 0 .422.219c.09 0 .21-.067.36-.188a.872.872 0 0 0 .28-.484h.688c.352 0 .758-.008 1.219-.016.445 0 .922-.008 1.422-.015h1.421c.196 0 .36-.036.485-.094.133-.063.203-.16.203-.281zm0 0"/></symbol><symbol overflow="visible" id="E"><path d="M7.547-3.438h2.5c.332 0 .633.008.906.016.277 0 .54.008.781.016a5.63 5.63 0 0 0 1.125-.016c.352-.039.536-.191.547-.453.008-.176-.097-.313-.312-.406a2.898 2.898 0 0 0-.813-.188 5.314 5.314 0 0 0-1.047.047 4.575 4.575 0 0 0-.984.219c-.125.043-.34.074-.64.094-.305.011-.637.023-1 .03H7.593c-.336-.007-.582-.015-.735-.015H2.875a7.608 7.608 0 0 1-.656-.047 21.89 21.89 0 0 1-.547-.03 9.606 9.606 0 0 0-.563-.048 2.593 2.593 0 0 0-.546.032c-.149.03-.243.082-.282.14-.054.074-.047.152.016.234.07.086.223.18.453.282.559.261 1.004.426 1.328.484.332.063.602.078.813.047.207-.02.382-.066.53-.14.153-.07.352-.118.595-.141h.125c.082-.008.21-.024.39-.047.164-.008.38-.02.64-.031.259-.02.567-.036.923-.047L6.14-.094c0 .34.007.672.03.985.02.32.052.601.095.843.039.246.097.446.171.594.083.145.188.211.313.203.258 0 .469-.32.625-.953.152-.637.227-1.476.219-2.516zm-.828-3.718c.351.105.765.226 1.234.36.465.124.922.257 1.36.39.433.125.82.238 1.156.328.332.094.55.16.656.187.52.149.86.137 1.016-.03.164-.177.18-.36.046-.548-.117-.12-.324-.265-.624-.422a4.258 4.258 0 0 0-.829-.328 2.501 2.501 0 0 0-.328-.031h-.234a4.91 4.91 0 0 1-.219.031.637.637 0 0 1-.25-.015c-.148-.008-.433-.063-.86-.157-.417-.09-.84-.195-1.265-.312.395-.227.766-.473 1.11-.734.351-.258.718-.551 1.093-.876.434-.308.68-.593.735-.843.058-.246-.106-.43-.5-.547a5.385 5.385 0 0 0-.282-.031 8.02 8.02 0 0 0-.468-.016c-.157 0-.317.008-.47.016a.89.89 0 0 0-.343.078c-.105.054-.32.097-.64.125-.313.031-.668.058-1.063.078-.406.023-.816.031-1.219.031h-.984c-.336 0-.649-.004-.938-.015a4.689 4.689 0 0 1-.593-.063c-.407-.04-.645.02-.704.172-.062.148.051.3.344.453.34.2.625.34.844.422.227.074.41.11.547.11a.726.726 0 0 0 .36-.048 2.31 2.31 0 0 1 .296-.125l.063-.015a.736.736 0 0 0 .14-.047c.059-.008.13-.024.203-.047a2.57 2.57 0 0 1 .25-.047c.09 0 .25-.004.47-.015.226-.008.484-.024.765-.047.277-.02.566-.036.86-.047.288-.02.546-.035.765-.047-.461.43-.977.851-1.547 1.265-.563.418-1.149.801-1.75 1.141-.586.356-1.18.668-1.781.938a9.598 9.598 0 0 1-1.672.578.342.342 0 0 0-.188.156c-.031.063-.015.129.047.188.04.074.129.128.266.156.133.031.328.023.578-.032.789-.152 1.562-.378 2.312-.671.746-.29 1.493-.641 2.235-1.047zm0 0"/></symbol><symbol overflow="visible" id="F"><path d="M6.422-6.594c0 .512-.16.957-.469 1.328-.305.368-.73.547-1.281.547-.524 0-.945-.18-1.266-.547a1.954 1.954 0 0 1-.484-1.328c0-.55.16-1.015.484-1.39.32-.371.742-.563 1.266-.563.55 0 .976.195 1.281.578.309.387.469.848.469 1.375zm3.766-1.984c-.231.023-.481.039-.75.047h-.782a6.72 6.72 0 0 1-.687 0 3.596 3.596 0 0 1-.516-.047 2.717 2.717 0 0 0-.36 0 .498.498 0 0 0-.202.031 3.593 3.593 0 0 0-.516-.297 5.507 5.507 0 0 0-.469-.203 3.62 3.62 0 0 0-.343-.11c-.086-.019-.125-.034-.125-.046 0-.07.003-.125.015-.156.02-.04.035-.079.047-.11a.644.644 0 0 0 .016-.125.575.575 0 0 0-.032-.156c-.054-.082-.175-.148-.359-.203a1.849 1.849 0 0 0-.578-.094c-.2-.008-.379.012-.531.063-.157.043-.235.129-.235.25a.2.2 0 0 0 .047.125c.04.03.082.066.125.093.04.043.067.09.078.141.008.043-.02.102-.078.172-.012.012-.148.05-.406.11a3.08 3.08 0 0 0-.828.374 2.897 2.897 0 0 0-.844.797c-.25.336-.375.79-.375 1.36 0 .437.094.832.281 1.171.184.336.438.618.75.844.301.23.64.41 1.016.531a3.73 3.73 0 0 0 2.422-.062c.426-.152.8-.39 1.125-.703.332.187.601.32.812.39.207.063.38.094.516.094a.687.687 0 0 0 .297-.078c.07-.04.14-.07.203-.094l.203-.062c.145-.051.305-.094.484-.125h.047a.83.83 0 0 0 .14-.016h.188c.07 0 .149-.004.235-.016l.015 2.079c0 .543.024 1.023.079 1.437.05.406.18.606.39.594.227 0 .426-.25.594-.75.164-.508.25-1.172.25-1.984l-.031-6.438c0-.184.007-.348.03-.484.028-.145.048-.274.048-.391a.564.564 0 0 0-.047-.281c-.031-.082-.117-.156-.25-.219-.117-.027-.258-.066-.422-.11a9.998 9.998 0 0 0-.516-.109c-.187-.027-.355-.054-.5-.078a4.005 4.005 0 0 1-.28-.047c-.481-.027-.743.043-.782.219-.031.168.098.316.39.438.34.148.594.285.75.406.153.125.235.347.235.656zm.015 3.187c-.23.024-.473.04-.719.047-.25 0-.492.008-.718.016h-.688a4.398 4.398 0 0 1-.531-.047c.082-.176.148-.36.203-.547.05-.195.078-.41.078-.64 0-.227-.027-.438-.078-.625a2.735 2.735 0 0 0-.172-.532c.238.117.43.184.578.203.153.024.281.032.375.032a.498.498 0 0 0 .203-.063.934.934 0 0 1 .188-.094s.066-.023.203-.078c.145-.05.305-.093.484-.125h.047c.028 0 .07-.004.125-.015h.407zM12.047.688a8.363 8.363 0 0 0-.406-.032c-.157 0-.317.004-.47.016-.155.008-.3.031-.421.062a.778.778 0 0 0-.281.11c-.149.101-.32.164-.516.187-.2.02-.371.032-.515.032l-2.5.03A.6.6 0 0 1 6.609 1C6.516.937 6.47.824 6.47.672v-1.813c0-.12.008-.242.031-.359.02-.113.031-.21.031-.297a.323.323 0 0 0-.125-.219c-.062-.058-.191-.109-.375-.14-.21-.028-.48-.051-.812-.063a5.79 5.79 0 0 0-.828 0c-.313.043-.524.098-.625.156-.094.063-.137.133-.125.204a.457.457 0 0 0 .203.187c.113.055.222.09.328.11.308.062.531.148.656.25.121.093.188.269.188.515V.688c0 .476.148.785.453.921.3.133.648.204 1.047.204l5.406-.063c.226 0 .414-.043.562-.125.145-.086.227-.191.25-.313.02-.117-.027-.238-.14-.359-.106-.117-.29-.207-.547-.265zm0 0"/></symbol><symbol overflow="visible" id="H"><path d="M8.422-4.016H7.219L7.203-7.28c0-.133.004-.258.016-.375.02-.121.035-.227.047-.313a.343.343 0 0 0-.047-.218c-.032-.07-.102-.13-.203-.172a2.665 2.665 0 0 0-.313-.094 2.955 2.955 0 0 0-.406-.094 9.805 9.805 0 0 0-.375-.047 1.36 1.36 0 0 1-.219-.047c-.375-.02-.582.04-.61.172-.023.137.079.254.298.344.27.117.46.227.578.328.12.106.187.277.187.516l.032 4.234c-.243.094-.504.18-.782.25a16.454 16.454 0 0 1-1.61.36c-.25.042-.464.07-.64.078a.414.414 0 0 1-.265-.047c-.063-.04-.094-.13-.094-.266v-3.422h1.047c.215 0 .43-.004.64-.015.215-.008.383-.02.5-.032a.9.9 0 0 0 .422-.156c.102-.082.16-.172.172-.266.02-.082-.012-.164-.094-.25-.086-.082-.21-.132-.375-.156a3.983 3.983 0 0 0-.75-.015c-.25.011-.46.074-.625.187a.504.504 0 0 1-.218.11 1.01 1.01 0 0 1-.266.03c-.086 0-.168-.003-.25-.015a1.552 1.552 0 0 1-.188-.031c-.28-.04-.585-.07-.906-.094-.312-.027-.55-.035-.703-.016-.21.043-.355.09-.437.141-.075.055-.102.113-.079.172.008.055.047.102.11.14a.589.589 0 0 0 .219.094c.12.032.226.067.312.094.09.024.164.05.219.078a.267.267 0 0 1 .125.157.633.633 0 0 1 .047.25v3.343c0 .375.066.617.203.719.144.105.379.156.703.156.258 0 .54-.031.844-.093.308-.06.629-.141.953-.235.32-.101.633-.21.937-.328.301-.121.582-.25.844-.375V.296c.008.259.031.49.063.688.02.196.054.352.109.47.059.112.14.171.234.171.184 0 .336-.258.454-.766.12-.511.187-1.18.187-2.015l-.031-2.219h1.203l.031 3.297v.797c.008.258.031.484.063.672.02.195.054.351.109.468.05.114.125.172.219.172.195 0 .351-.258.469-.765.12-.512.18-1.184.171-2.016l-.046-7.047c0-.144.007-.273.03-.39.02-.114.036-.22.048-.313a.546.546 0 0 0-.047-.219c-.031-.07-.102-.129-.203-.172a2.665 2.665 0 0 0-.313-.093c-.137-.028-.273-.063-.406-.094-.149-.02-.277-.035-.39-.047a2.527 2.527 0 0 1-.22-.047c-.375-.02-.582.04-.609.172-.023.137.082.254.313.344.27.125.46.242.578.344.12.093.187.269.187.515zm0 0"/></symbol><symbol overflow="visible" id="I"><path d="M9.219-7.61c0-.144-.086-.253-.25-.327a2.132 2.132 0 0 0-.578-.157 5.158 5.158 0 0 0-.72.031c-.25.024-.46.07-.624.141-.074.024-.258.043-.547.063-.281.011-.59.015-.922.015-.344.012-.668.016-.969.016H3.438c-.157-.008-.305-.02-.438-.031a2.691 2.691 0 0 0-.375-.032c-.117-.007-.238-.02-.36-.03-.304 0-.503.05-.593.14-.086.093.023.226.328.39.352.211.64.34.86.391.226.055.413.074.562.063a.975.975 0 0 0 .36-.11c.1-.058.21-.101.327-.125.02 0 .11-.004.266-.016.152-.007.344-.019.563-.03.226-.02.472-.036.734-.048.258-.007.504-.015.734-.015.278 0 .555.008.828.015.27 0 .567.008.891.016.258.023.504.016.734-.016.227-.039.348-.156.36-.343zM7.594-.686l.125-1.391c0-.09.008-.18.031-.266.02-.082.035-.156.047-.219 0-.07-.02-.132-.047-.187-.031-.059-.105-.113-.219-.156a5.876 5.876 0 0 0-.281-.063 2.775 2.775 0 0 0-.344-.062 6.621 6.621 0 0 0-.328-.047 1.489 1.489 0 0 0-.234-.031c-.336 0-.528.054-.578.156-.043.105.039.2.25.281.152.055.289.121.406.203.121.086.176.211.156.375l-.11 1.438H4.61l-.046-1.36c0-.082.003-.164.015-.25a.692.692 0 0 0 .016-.234.3.3 0 0 0-.063-.172.467.467 0 0 0-.234-.125c-.168-.02-.387-.039-.656-.062a9.067 9.067 0 0 0-.579-.032c-.335.032-.519.106-.546.22-.032.116.062.194.28.233.165.032.313.086.438.157a.433.433 0 0 1 .204.36l.046 1.265H2.312c-.199-.008-.378-.02-.53-.031-.157-.008-.305-.02-.438-.032A6.525 6.525 0 0 0 .89-.766a1.667 1.667 0 0 0-.438.032.543.543 0 0 0-.234.109c-.043.055-.04.117.015.188.059.074.188.148.375.218.446.211.801.336 1.063.39.258.052.473.067.64.048.165-.024.305-.067.422-.125.121-.055.282-.09.47-.11h.187c.113-.007.28-.023.5-.046l.843-.032c.332-.02.727-.031 1.188-.031H8.75c.227 0 .441.008.64.016.32.023.618.015.891-.016.278-.04.43-.16.453-.36 0-.132-.09-.238-.265-.312a2.002 2.002 0 0 0-.64-.156 4.109 4.109 0 0 0-.845.031c-.293.031-.554.09-.78.172a.95.95 0 0 1-.25.047 3.337 3.337 0 0 1-.36.015zm-2.938-4.25a2.04 2.04 0 0 0-.172-.422 4.79 4.79 0 0 0-.265-.5c-.106-.153-.211-.301-.313-.438a7.112 7.112 0 0 0-.234-.312c-.219-.239-.402-.317-.547-.235-.137.086-.14.246-.016.485.133.336.227.668.282 1 .058.336.113.636.156.906.02.21.098.355.234.437.145.086.305.094.485.032a.571.571 0 0 0 .359-.297c.082-.145.09-.364.031-.657zm1.64 1.046c-.25.012-.507.024-.765.032H3.766c-.211.011-.399.011-.563 0-.156-.008-.3-.02-.422-.032a8.068 8.068 0 0 1-.375-.03 5.41 5.41 0 0 0-.36-.017c-.304 0-.503.051-.593.141-.086.086.024.211.328.375.352.219.645.356.875.406.227.055.414.07.563.047.133-.02.254-.054.36-.11a1.48 1.48 0 0 1 .312-.14h.296c.176-.008.391-.023.641-.047.246-.007.516-.02.797-.03.277-.009.535-.017.766-.017h.968c.371 0 .723.008 1.047.016.246.024.489.016.719-.015.238-.04.363-.157.375-.344 0-.153-.086-.27-.25-.344a1.922 1.922 0 0 0-.594-.14 3.891 3.891 0 0 0-.734.015c-.25.031-.465.086-.64.156 0 .012-.009.016-.016.016H7.25c0 .012-.008.015-.016.015h-.03l.687-1.937A1.21 1.21 0 0 1 8-6.125a.537.537 0 0 0 .063-.219A.3.3 0 0 0 8-6.516a.728.728 0 0 0-.234-.187 5.976 5.976 0 0 0-.579-.172 7.884 7.884 0 0 0-.53-.14c-.356-.051-.56-.012-.61.109-.043.117.035.222.234.312.153.094.274.192.36.282.09.085.129.207.109.359zm0 0"/></symbol><symbol overflow="visible" id="J"><path d="M5.016-8.75c.027-.113.011-.207-.047-.281a.425.425 0 0 0-.25-.156.503.503 0 0 0-.313.015c-.105.031-.176.113-.203.235L.61 1.546c-.054.121-.046.226.016.312.07.082.16.13.266.141.101.02.207.008.312-.031a.462.462 0 0 0 .234-.25zm0 0"/></symbol><symbol overflow="visible" id="K"><path d="M5.234-5.484L5.22-3.641l-2.5.047-.016-1.844zM8.156-6.75a14.62 14.62 0 0 1-1.015.031c-.344 0-.621-.008-.829-.031v-.438-.218c.008-.07.016-.14.016-.203a.3.3 0 0 0-.062-.172.587.587 0 0 0-.22-.14 3.494 3.494 0 0 0-.64-.141 6.385 6.385 0 0 0-.531-.047c-.2.011-.34.039-.422.078-.074.043-.11.09-.11.14 0 .043.02.09.063.141.051.043.114.082.188.11.09.03.176.07.25.109.082.031.156.066.218.093a.6.6 0 0 1 .125.141.3.3 0 0 1 .063.172l-.016 1.031-2.53.047v-.812-.204a.52.52 0 0 0 0-.156.204.204 0 0 0-.079-.156.881.881 0 0 0-.203-.125c-.094-.02-.195-.04-.297-.063a4.144 4.144 0 0 0-.328-.046 1.73 1.73 0 0 0-.313-.032 2.164 2.164 0 0 1-.234-.03c-.21.023-.355.054-.438.093-.074.043-.109.09-.109.14 0 .043.02.09.063.141.039.043.082.07.125.078.226.074.406.16.53.25.134.086.204.2.204.344l.031 3.094c0 .398.051.68.157.844.101.156.21.226.328.203a.47.47 0 0 0 .359-.204c.102-.132.172-.238.203-.312l2.547-.047c.02.074.066.164.14.266.07.094.176.14.313.14.133 0 .258-.101.375-.312a1.85 1.85 0 0 0 .219-.766v-.062c.176.094.32.152.437.172a.977.977 0 0 0 .313.015.475.475 0 0 0 .172-.047c.05-.027.101-.054.156-.078l.156-.047c.114-.039.242-.078.39-.109H8.064a.407.407 0 0 1 .109-.016l.015 1.813c0 .43.02.808.063 1.14.04.325.145.481.313.47.175 0 .332-.196.468-.595.133-.402.203-.937.203-1.593l-.03-5.14c0-.145.007-.274.03-.391.028-.114.047-.22.047-.313a.546.546 0 0 0-.047-.219c-.023-.07-.09-.129-.203-.172-.086-.027-.195-.062-.328-.093-.137-.028-.277-.063-.422-.094-.148-.02-.277-.035-.39-.047a2.338 2.338 0 0 1-.235-.047c-.375-.02-.582.04-.61.172-.03.137.067.254.298.344.277.125.484.242.61.344.12.093.187.269.187.515zm0 2.297c-.324.023-.664.039-1.015.047-.356 0-.637-.016-.844-.047v-1.625c.183.094.336.152.453.172.121.011.227.015.313.015a.459.459 0 0 0 .156-.046c.05-.028.101-.055.156-.079l.156-.062c.114-.04.242-.07.39-.094h.063a.888.888 0 0 1 .172-.016zm1.485 5c-.094 0-.207-.008-.329-.016-.124 0-.253.004-.374.016-.126 0-.243.008-.344.031a.911.911 0 0 0-.219.094.805.805 0 0 1-.406.14c-.157.02-.301.032-.422.032L5.516.875a.423.423 0 0 1-.25-.078c-.075-.055-.11-.137-.11-.25v-1.36c0-.101.004-.203.016-.296.02-.09.031-.172.031-.235a.265.265 0 0 0-.11-.172c-.054-.05-.152-.086-.296-.109a5.12 5.12 0 0 0-.64-.063 5.031 5.031 0 0 0-.673.016c-.25.031-.418.074-.5.125-.074.055-.105.106-.093.156.02.055.07.106.156.157.09.043.18.07.265.078.247.054.422.12.516.203.102.074.156.21.156.406V.547c0 .383.118.629.36.734.246.114.531.172.843.172l4.344-.047c.184 0 .336-.039.453-.11a.383.383 0 0 0 .204-.25.37.37 0 0 0-.11-.28c-.086-.094-.23-.168-.437-.22zm0 0"/></symbol><symbol overflow="visible" id="L"><path d="M8.281-2.75a9.83 9.83 0 0 1-1.078.328c-.45.117-.91.223-1.375.313-.48.093-.941.175-1.375.234-.43.063-.758.094-.984.094a.702.702 0 0 1-.281-.047c-.075-.027-.11-.098-.11-.203v-2.031h2.797c.246 0 .398-.032.453-.094a.327.327 0 0 0 .094-.235c0-.101-.059-.164-.172-.187l-.156-.031.281-1.97c0-.07.023-.144.078-.218.05-.082.094-.16.125-.234a.414.414 0 0 0 0-.219c-.023-.059-.098-.113-.219-.156a2.07 2.07 0 0 0-.671-.047 1.495 1.495 0 0 0-.579.125c-.043.031-.148.058-.312.078-.156.012-.332.023-.516.031H3.156a3.53 3.53 0 0 1-.36-.015c-.105-.008-.214-.02-.327-.032a3.711 3.711 0 0 0-.313-.015 2.08 2.08 0 0 1-.312-.047c-.336-.02-.528.027-.578.14-.043.118.015.211.171.282.278.168.508.285.688.343.176.063.328.094.453.094a.73.73 0 0 0 .281-.047c.07-.039.141-.07.204-.093h.046c.028 0 .07-.004.125-.016.051-.008.11-.016.172-.016.07-.007.14-.02.203-.03.059-.009.164-.016.313-.016.152-.008.312-.02.469-.032h.781l-.016 2.063c-.093 0-.254.008-.468.015H3.421c-.18-.007-.285-.015-.313-.015a3.904 3.904 0 0 1-.343-.047 6.552 6.552 0 0 0-.375-.047 7.624 7.624 0 0 0-.407-.047 2.517 2.517 0 0 0-.343 0c-.305.031-.493.117-.563.25-.074.137.016.227.266.266l.25.062c.082.024.148.051.203.078a.267.267 0 0 1 .125.157.674.674 0 0 1 .047.265v1.953c0 .375.07.621.218.735.145.105.38.156.704.156.3 0 .703-.047 1.203-.14.496-.09 1.015-.212 1.547-.36a24.34 24.34 0 0 0 1.5-.438c.488-.164.867-.312 1.14-.437v2.172c0 .27.004.535.016.797.008.258.023.484.047.672.027.195.07.351.125.468.058.114.14.172.234.172.207 0 .367-.258.485-.765.12-.512.18-1.184.171-2.016l-.046-7.047c0-.144.007-.273.03-.39.02-.114.032-.22.032-.313a.44.44 0 0 0-.031-.219c-.031-.07-.102-.129-.203-.172-.086-.027-.196-.062-.329-.093-.136-.028-.277-.063-.421-.094-.149-.02-.278-.035-.391-.047a2.338 2.338 0 0 1-.234-.047c-.375-.02-.582.04-.61.172-.031.137.067.254.297.344.277.125.477.242.594.344.121.093.187.269.187.515zm0 0"/></symbol><symbol overflow="visible" id="M"><path d="M8.688-3.922l-.032-3.875c0-.144.008-.273.031-.39.028-.114.047-.22.047-.313a.546.546 0 0 0-.046-.219c-.024-.07-.09-.129-.204-.172-.086-.027-.195-.062-.328-.093-.136-.028-.273-.063-.406-.094-.156-.02-.293-.035-.406-.047a2.338 2.338 0 0 1-.235-.047c-.375-.02-.582.04-.609.172-.031.137.066.254.297.344.277.125.484.242.61.344.12.093.187.269.187.515L7.64-.078v.797c.007.258.03.484.062.672.027.195.07.351.125.468.05.114.125.172.219.172.207 0 .367-.258.484-.765.121-.512.18-1.184.172-2.016l-.015-2.656h1.718a.963.963 0 0 0 .453-.094.422.422 0 0 0 .204-.25c.007-.09-.036-.188-.126-.281-.085-.09-.226-.164-.421-.219a4.598 4.598 0 0 0-.625-.016c-.22 0-.364.036-.422.094a.627.627 0 0 1-.36.188c-.148.03-.289.054-.421.062zM3.516-4.14c.132.137.296.309.484.516.195.2.39.402.578.61l.563.609.421.453c.153.168.305.285.454.344.152.062.273.086.359.062.102-.027.164-.101.188-.219.019-.12-.02-.289-.11-.5-.043-.07-.121-.21-.234-.421a2.805 2.805 0 0 0-.39-.563.821.821 0 0 0-.173-.11 1.86 1.86 0 0 1-.156-.062.459.459 0 0 1-.172-.031.838.838 0 0 1-.203-.125 1.496 1.496 0 0 1-.219-.14c-.093-.083-.199-.18-.312-.298-.125-.101-.258-.21-.39-.328a6.32 6.32 0 0 1-.36-.343c.176-.29.336-.583.484-.875.152-.29.3-.594.438-.907.09-.164.144-.304.156-.422.02-.12-.074-.254-.281-.39a3.313 3.313 0 0 0-.313-.157 2.927 2.927 0 0 0-.406-.156 3.014 3.014 0 0 0-.375-.125 1.128 1.128 0 0 0-.281-.062c-.356-.02-.54.027-.547.14-.012.118.125.246.406.391.113.063.195.121.25.172a.494.494 0 0 1 .125.172.523.523 0 0 1-.016.203c-.011.062-.035.148-.062.25-.149.48-.34.96-.578 1.437-.242.48-.504.93-.781 1.344-.274.43-.555.817-.844 1.156a6.92 6.92 0 0 1-.797.797C.316-1.645.258-1.57.25-1.5c0 .063.023.113.078.14.059.032.149.04.266.016.12-.02.265-.082.422-.187.488-.301.941-.68 1.359-1.14.414-.466.797-.958 1.14-1.47zm0 0"/></symbol><symbol overflow="visible" id="N"><path d="M4.61-.453v-5.438h-.657v1.97H1.5v-1.97H.844v5.438zM7.015 1.25v-7.89h-.657v7.89zM3.953-1H1.5v-2.344h2.453zm0 0"/></symbol><symbol overflow="visible" id="O"><path d="M6.86-2.734v-.563H1.905v-.984h4.86v-.547h-4.86v-.953h4.89v-.547H1.235v3.594zm.984 1.437v-.562H.172v.562h3.5V1.25h.656v-2.547zm0 0"/></symbol><symbol overflow="visible" id="P"><path d="M3.172-6.672c-.313 0-.602.043-.86.125-.25.074-.46.184-.624.328a1.243 1.243 0 0 0-.547 1c0 .2.046.387.14.563.09.168.227.32.407.453.164.137.375.246.625.328.246.074.535.11.859.11.308 0 .594-.036.844-.11a2.2 2.2 0 0 0 .64-.328c.176-.133.313-.285.407-.453.09-.176.14-.364.14-.563 0-.183-.05-.367-.14-.547a1.585 1.585 0 0 0-.391-.468 2.048 2.048 0 0 0-.656-.313 2.715 2.715 0 0 0-.844-.125zM7.234-.484v-6.157h-.656v6.157zm-.953-2.329v-.53c-.105.011-.261.034-.468.062l-.704.078c-.261.023-.535.043-.812.062-.274.024-.52.032-.734.032l-3.11.015v.547h2.094v1.36h.656v-1.375c.645 0 1.238-.024 1.781-.079.551-.05.985-.109 1.297-.171zm1.157 3.891V.516h-4.97V-.875h-.64v1.953zM3.171-6.125c.465 0 .816.102 1.047.297.226.187.343.394.343.61 0 .21-.117.41-.343.593-.219.188-.567.281-1.032.281-.48 0-.835-.093-1.062-.281-.23-.184-.344-.383-.344-.594 0-.215.114-.422.344-.61.227-.194.578-.296 1.047-.296zm0 0"/></symbol><symbol overflow="visible" id="Q"><path d="M5.016-5.14v-.563H.562v.562zM.344-.595l2.75-.015h.625c.238-.008.484-.02.734-.032.227-.007.453-.02.672-.03.215-.02.398-.04.547-.063v-.563c-.125.012-.262.027-.406.047-.149.012-.29.023-.422.031a4.49 4.49 0 0 1-.407.047h-.25l.141-3.703h-.625l-.156 3.703c-.242.012-.473.016-.688.016H2l-.11-3.719h-.64l.125 3.719H.344zM6.062 1.25h.657v-4.234h1.25v-.547h-1.25v-3.11h-.657zm0 0"/></symbol><symbol overflow="visible" id="R"><path d="M6.875-1.719v-.562H1.922V-3.5h4.86v-.547h-4.86v-1.219h4.875v-.562H1.266v4.11zM7.844.11v-.562H.172v.562zm0 0"/></symbol><symbol overflow="visible" id="S"><path d="M5.578-1.016v-.562c-.156.031-.34.066-.547.094-.21.03-.43.066-.656.093-.23.032-.465.059-.703.079-.23.023-.445.03-.64.03l-1.423.032v-4.64H.953v5.202L3-.703c.227-.008.469-.024.719-.047.246-.02.484-.047.703-.078.238-.027.457-.063.656-.094.195-.027.363-.062.5-.094zM7.062 1.25v-7.89h-.656v2.468H3.984v.563h2.422V1.25zm0 0"/></symbol><symbol overflow="visible" id="T"><path d="M7.39-2.188a2.306 2.306 0 0 1-.374-.124c-.157-.07-.332-.157-.516-.25a6.996 6.996 0 0 1-.563-.36 4.792 4.792 0 0 1-.53-.437 3.396 3.396 0 0 1-.75-1A2.584 2.584 0 0 1 4.374-5.5v-.61h-.719v.61c0 .375-.101.758-.297 1.14-.187.376-.441.712-.75 1a4.627 4.627 0 0 1-.546.438 6.219 6.219 0 0 1-.547.36c-.188.093-.364.18-.516.25a2.9 2.9 0 0 1-.36.124l.438.485c.07-.02.176-.055.313-.11a5.73 5.73 0 0 0 .453-.234 7.92 7.92 0 0 0 .515-.312c.176-.121.348-.258.516-.407.277-.246.523-.523.734-.828.215-.308.352-.554.407-.734.05.18.175.426.375.734.207.305.457.582.75.828.164.149.336.286.515.407.176.117.348.222.516.312.164.094.312.176.437.235.133.054.243.09.329.109zm.454 2.22v-.548H.172v.547zm0 0"/></symbol><symbol overflow="visible" id="U"><path d="M5.703-7.531v8.578h.5v-4.563h1.625V1.47h.5v-9.235h-.5v3.829H6.203v-3.594zM5.172-.938v-.421a3.41 3.41 0 0 1-.61.093c-.25.024-.511.043-.78.063-.294.023-.583.039-.86.047H1.625v-4.922h2.656V-6.5H1.125v5.766h1.031c.258 0 .535-.004.828-.016.29-.008.57-.023.844-.047.27-.008.52-.023.75-.047.238-.027.438-.062.594-.094zm0 0"/></symbol><symbol overflow="visible" id="V"><path d="M1.36-6.344h6.609v-.422h-6.61zm5.093 3.672H8.22v-.422H6.703l.188-2.937h-.5l-.188 2.937H3.156L2.937-6.03h-.5l.22 2.937H1.124v.422h1.828v2.375H.203V.11h8.953v-.406H6.453zm-3 0h2.5v2.375h-2.5zm0 0"/></symbol><symbol overflow="visible" id="W"><path d="M1.422-5.063h3.266v2.094H1.421zm.656 3.516v2.813h6.36V.844H2.593v-2.39zm5.61-4.484H5.203v-1.25h-.516v1.797H1.422v-1.797h-.5v4.734h4.281v-1.14h2.484v2.671h.5v-6.75h-.5zm0 1.922H5.203v-1.5h2.484zm0 0"/></symbol><symbol overflow="visible" id="X"><path d="M7.625-7.766V1.47h.516v-9.235zM6.828-.78v-.406c-.25.042-.726.101-1.422.171-.699.075-1.586.11-2.656.11H1.516v-2.547h3.859v-3.281H1v.406h3.875v2.453H1v3.39h1.844c1.058 0 1.922-.035 2.578-.109.664-.07 1.133-.133 1.406-.187zm0 0"/></symbol><symbol overflow="visible" id="Y"><path d="M6.422-.875a5.725 5.725 0 0 1-.656-.406 5.587 5.587 0 0 1-1.797-2.25c-.242-.551-.36-1.207-.36-1.969v-1.688h-.5V-5.5c0 .75-.113 1.402-.328 1.953-.21.555-.465 1.02-.765 1.39a4.833 4.833 0 0 1-.938.954 6.872 6.872 0 0 1-.828.547l.406.36c.102-.052.285-.177.547-.376.258-.195.535-.457.828-.781.29-.309.563-.68.813-1.11a4.38 4.38 0 0 0 .515-1.39c.121.5.32.957.594 1.36.27.405.547.757.828 1.046.278.305.54.543.782.719.246.18.421.289.515.328zm2.937-2.688v-.421H7.938v-3.782h-.516V1.47h.516v-5.032zm0 0"/></symbol><symbol overflow="visible" id="Z"><path d="M7.828-7.766V1.47h.516v-9.235zM.766-.546l.421.327A7.934 7.934 0 0 0 2.75-1.28 7.361 7.361 0 0 0 4.047-2.72a7.56 7.56 0 0 0 .89-1.765 8.619 8.619 0 0 0 .47-2.125H1.327v.421h3.5a6.497 6.497 0 0 1-.39 1.657c-.2.543-.473 1.07-.813 1.578a7.478 7.478 0 0 1-1.234 1.36A6.81 6.81 0 0 1 .766-.548zm0 0"/></symbol><symbol overflow="visible" id="aa"><path d="M4.828-5.328c0 .46-.152.851-.453 1.172-.305.312-.746.468-1.328.468-.586 0-1.035-.156-1.344-.468a1.634 1.634 0 0 1-.453-1.172c0-.434.148-.817.453-1.14.309-.333.758-.5 1.344-.5.582 0 1.023.163 1.328.484.3.324.453.71.453 1.156zM2.641-.625h5.093V.938H2.641zM8.25 1.359V-2.25h-.516v1.219H2.641V-2.25h-.5v3.61zm-2.875-7a2.027 2.027 0 0 0-.266-.703 2.681 2.681 0 0 0-.484-.593 2.501 2.501 0 0 0-.719-.391c-.261-.09-.55-.14-.86-.14-.355 0-.679.058-.968.171-.293.117-.539.274-.734.469a2.005 2.005 0 0 0-.656 1.5c0 .305.054.586.171.844.114.261.274.488.485.671.207.188.453.34.734.454.29.105.613.156.969.156.332 0 .64-.05.922-.156a2.39 2.39 0 0 0 .734-.422 2.17 2.17 0 0 0 .469-.64c.121-.247.195-.516.219-.798h2.343v2.453h.5v-5h-.5v2.125zm0 0"/></symbol><symbol overflow="visible" id="ab"><path d="M4.938-2.094v-1.219h4.218v-.421H.203v.421h4.219v1.22H1.469v.421h5.906v1.047H1.469v1.984H8.14V.938H1.984V-.204h5.907v-1.89zm-.266-4.578c.121.293.32.57.594.828.27.25.57.48.906.688.34.199.691.37 1.047.515.351.149.68.243.984.282l.328-.36a6.355 6.355 0 0 1-1.125-.328 5.506 5.506 0 0 1-1.172-.594 3.603 3.603 0 0 1-.921-.796c-.243-.301-.36-.625-.36-.97v-.25h-.562v.25c0 .337-.118.65-.344.938a3.287 3.287 0 0 1-.844.75c-.344.23-.73.434-1.156.61-.43.168-.848.304-1.25.406l.328.36c.27-.071.586-.177.953-.313a7.799 7.799 0 0 0 1.078-.516c.352-.207.664-.437.938-.687a2.01 2.01 0 0 0 .578-.813zm0 0"/></symbol><symbol overflow="visible" id="ac"><path d="M7.797-3.25h1.547v-.438H7.797v-4.078H7.28V1.47h.516zM.563-.547l.421.328A7.934 7.934 0 0 0 2.547-1.28 7.361 7.361 0 0 0 3.844-2.72a7.56 7.56 0 0 0 .89-1.765 8.619 8.619 0 0 0 .47-2.125H1.124v.421h3.5a6.497 6.497 0 0 1-.39 1.657c-.2.543-.473 1.07-.813 1.578a7.478 7.478 0 0 1-1.235 1.36A6.81 6.81 0 0 1 .563-.548zm0 0"/></symbol><symbol overflow="visible" id="ad"><path d="M7.89-7.766V1.47h.5v-9.235zm-5.859.688v.422H5v-.422zM3.25-4.844v.328c0 .649-.137 1.223-.406 1.72a6.252 6.252 0 0 1-.906 1.265 5.785 5.785 0 0 1-.954.812 17.5 17.5 0 0 1-.546.344l.374.36c.102-.051.282-.172.532-.36.258-.184.531-.414.812-.688.278-.289.547-.617.797-.984A3.46 3.46 0 0 0 3.5-3.234c.113.406.285.785.516 1.125.226.336.472.644.734.921.258.262.508.489.75.672.246.18.445.305.594.375l.297-.39c-.094-.04-.286-.156-.563-.344a4.838 4.838 0 0 1-.89-.781 5.016 5.016 0 0 1-.829-1.219c-.242-.477-.359-1.023-.359-1.64v-.329h2.328v-.422H.922v.422zm0 0"/></symbol><symbol overflow="visible" id="ae"><path d="M5.14-1.39c.395 0 .758.035 1.094.093.34.063.633.152.875.266.239.105.43.242.579.406.144.156.218.34.218.547 0 .207-.074.39-.218.547-.149.164-.34.304-.579.422a3.321 3.321 0 0 1-.875.25 6.648 6.648 0 0 1-2.219 0 3.41 3.41 0 0 1-.874-.25 1.611 1.611 0 0 1-.563-.422.805.805 0 0 1-.203-.547c0-.207.066-.39.203-.547.133-.164.32-.3.563-.406.246-.114.539-.203.875-.266.34-.058.718-.094 1.125-.094zm0-.438c-1.062 0-1.878.168-2.437.5-.562.336-.844.754-.844 1.25 0 .508.282.926.844 1.25.559.332 1.375.5 2.438.5 1.05 0 1.859-.168 2.421-.5.56-.324.844-.742.844-1.25 0-.496-.285-.914-.844-1.25-.562-.332-1.37-.5-2.421-.5zM7.89-6H6.064v.406H7.89v1.047H6.062v.422h1.829v2.031h.515v-5.672h-.515zm-2.687-.328h-.5l-.14 3.047c-.293.011-.618.015-.97.015H2.423l-.14-3.062h-.5l.124 3.062H.594v.407h3.781c.402 0 .813-.016 1.219-.047.414-.028.816-.07 1.203-.125v-.39c-.25.042-.535.073-.844.093-.305.023-.601.039-.89.047zm-4.36-.313h5.391v-.421H.844zm0 0"/></symbol><symbol overflow="visible" id="af"><path d="M7.125.422v-7.313H6.5L3.875-.109l-2.64-6.782h-.61V.422h.453V-6.11L3.594.39h.531l2.531-6.532.016 6.563zm0 0"/></symbol><symbol overflow="visible" id="ag"><path d="M4.688-3.438c.12-.05.242-.128.359-.234.121-.113.234-.254.328-.422.082-.152.145-.336.188-.547a2.06 2.06 0 0 0 .03-.703A1.749 1.749 0 0 0 5-6.454c-.344-.3-.832-.452-1.453-.452H.625V.39h2.844c.77 0 1.36-.176 1.765-.516.403-.352.63-.816.672-1.39.02-.27-.011-.516-.093-.735a1.963 1.963 0 0 0-.313-.578 2.173 2.173 0 0 0-.422-.375 3.108 3.108 0 0 0-.39-.235zm-1.032-.171H1.078v-2.907h2.578c.258 0 .485.043.672.125.195.086.363.196.5.329.113.148.203.308.266.484.07.168.11.348.11.531 0 .18-.036.356-.095.531a1.24 1.24 0 0 1-.265.454c-.125.136-.29.246-.485.328-.199.086-.433.125-.703.125zM3.72.016h-2.64V-3.22H3.75c.227 0 .445.04.656.11.207.074.39.18.547.312.152.137.281.3.375.485.09.187.14.402.14.64 0 .512-.167.926-.5 1.234-.323.305-.741.454-1.25.454zm0 0"/></symbol><symbol overflow="visible" id="ah"><path d="M6.5.422L3.422-6.906h-.469L-.109.406h.453l.906-2.125h3.906l.89 2.14zM4.984-2.094H1.406l1.797-4.281zm0 0"/></symbol><symbol overflow="visible" id="ai"><path d="M2.344-1.578v2.844h6.36V.844h-5.86v-2.422zm5.594-3.766H5.796v.422h2.14v3.875h.5v-6.719h-.5zM3.702-6.672h2.172v-.422H1.062v.422h2.125v.469c0 .43-.082.832-.234 1.203-.156.367-.363.71-.61 1.031-.25.305-.538.574-.859.813a5.47 5.47 0 0 1-.984.562l.36.36c.058-.028.206-.114.437-.25.238-.133.5-.32.781-.563.27-.226.535-.5.797-.812.258-.32.453-.688.578-1.094.121.398.313.746.563 1.047.246.304.507.558.78.765.247.211.477.371.688.485.215.117.36.183.422.203l.313-.39a4.904 4.904 0 0 1-.766-.423 4.063 4.063 0 0 1-.828-.703 3.525 3.525 0 0 1-.656-.969 2.879 2.879 0 0 1-.266-1.265zm0 0"/></symbol><symbol overflow="visible" id="aj"><path d="M1.984-4.484v-2.438h5.391v2.438zm-.515.421H7.89v-3.28H1.469zm0 2.813v2.516h6.765V.844h-6.25V-1.25zM5.03-2.266h4.125v-.421H.203v.421h4.328v2.157h.5zm0 0"/></symbol><symbol overflow="visible" id="ak"><path d="M6.563-6.89h-.438L3.281-.14.437-6.89H.017L3.046.39h.47zm0 0"/></symbol><symbol overflow="visible" id="al"><path d="M6.453-4.813a3.308 3.308 0 0 0-.297-.687 3.715 3.715 0 0 0-.578-.75 3.889 3.889 0 0 0-.89-.594 2.769 2.769 0 0 0-1.204-.25c-.48 0-.914.102-1.296.297-.387.2-.715.465-.985.797a3.594 3.594 0 0 0-.64 1.219c-.149.468-.22.98-.22 1.531 0 .563.071 1.082.22 1.547.144.469.359.871.64 1.203.27.344.598.61.984.797.383.195.817.297 1.297.297.465 0 .875-.086 1.22-.25.339-.156.632-.348.874-.578.227-.239.406-.489.531-.75.133-.258.227-.489.282-.688h-.454a2.948 2.948 0 0 1-.265.61c-.117.21-.277.402-.484.578-.2.187-.446.347-.735.468a2.582 2.582 0 0 1-.969.172c-.398 0-.761-.086-1.093-.25a2.514 2.514 0 0 1-.829-.719c-.242-.3-.425-.66-.546-1.078A4.687 4.687 0 0 1 .828-3.25c0-.477.063-.922.188-1.328a3.27 3.27 0 0 1 .546-1.094c.227-.3.504-.535.829-.703.32-.176.687-.266 1.093-.266.364 0 .688.067.97.188.276.117.519.262.718.437.215.18.39.38.516.594.12.211.218.41.28.594zm0 0"/></symbol><symbol overflow="visible" id="am"><path d="M7.734-7.766V1.47h.5v-9.235zm-6.359 4.11c0-.383.035-.75.11-1.094.07-.352.18-.66.327-.922.145-.258.32-.46.532-.61.215-.152.469-.234.75-.234.277 0 .523.082.734.235.207.148.383.351.531.61.133.26.239.57.313.921.082.344.125.71.125 1.094 0 .406-.043.789-.125 1.14-.074.356-.18.66-.313.907a1.905 1.905 0 0 1-.53.64c-.212.149-.458.219-.735.219-.281 0-.535-.07-.75-.219a1.867 1.867 0 0 1-.531-.625 3.014 3.014 0 0 1-.329-.922 5.543 5.543 0 0 1-.109-1.14zm-.531.015c0 .512.05.977.156 1.391.102.406.254.762.453 1.063.184.292.422.523.703.687.278.156.586.234.922.234.34 0 .649-.078.922-.234.277-.164.516-.395.703-.688.195-.3.348-.656.453-1.062.102-.414.157-.879.157-1.39a5.83 5.83 0 0 0-.157-1.376 3.433 3.433 0 0 0-.453-1.062A2.023 2.023 0 0 0 4-6.75 1.763 1.763 0 0 0 3.078-7c-.336 0-.644.086-.922.25-.281.156-.52.383-.703.672-.2.293-.351.648-.453 1.062A5.633 5.633 0 0 0 .844-3.64zm0 0"/></symbol><symbol overflow="visible" id="an"><path d="M5.047-6.906v-.438H2.203v.438zm1.281 1.468v-.406H.953v.407zm3.047 2.11v-.422H7.937v-4.016h-.515V1.47h.516v-4.797zM7-.484v-.422a9.64 9.64 0 0 1-1.11.125c-.367.023-.8.043-1.296.062h-.688v-1.14c.59-.028 1.078-.18 1.453-.454.371-.269.563-.597.563-.984a.943.943 0 0 0-.172-.531 1.905 1.905 0 0 0-.453-.469 2.668 2.668 0 0 0-.734-.312 3.137 3.137 0 0 0-.907-.125c-.68 0-1.215.144-1.61.421-.398.274-.593.614-.593 1.016 0 .387.172.715.516.985.34.273.816.425 1.422.453v1.156H.516v.422l4.078-.016c.246-.008.476-.02.687-.031.215-.008.426-.024.625-.047.184-.008.367-.023.547-.047.176-.02.36-.039.547-.062zM5.406-3.297c0 .293-.16.54-.468.735-.313.187-.739.28-1.266.28-.524 0-.95-.093-1.281-.28-.325-.196-.485-.442-.485-.735 0-.289.16-.535.485-.734.32-.207.742-.313 1.265-.313.52 0 .942.106 1.266.313.32.21.484.457.484.734zm0 0"/></symbol><symbol overflow="visible" id="ao"><path d="M4.797-3.656c0 .406-.043.789-.125 1.14-.074.356-.18.66-.313.907a1.905 1.905 0 0 1-.53.64c-.212.149-.458.219-.735.219-.281 0-.535-.07-.75-.219a1.867 1.867 0 0 1-.531-.625 3.014 3.014 0 0 1-.329-.922 5.543 5.543 0 0 1-.109-1.14c0-.383.035-.75.11-1.094.07-.352.18-.66.327-.922.145-.258.32-.46.532-.61.215-.152.469-.234.75-.234.277 0 .523.082.734.235.207.148.383.351.531.61.133.26.239.57.313.921.082.344.125.71.125 1.094zm.328-1.516c-.168-.558-.43-1.004-.781-1.328A1.793 1.793 0 0 0 3.078-7c-.336 0-.644.086-.922.25-.281.156-.52.383-.703.672-.2.293-.351.648-.453 1.062A5.633 5.633 0 0 0 .844-3.64c0 .512.05.977.156 1.391.102.406.254.762.453 1.063.184.292.422.523.703.687.278.156.586.234.922.234.508 0 .942-.175 1.297-.53.363-.364.629-.852.797-1.47h2.61V1.47h.515v-9.235H7.78v2.594zm.125 2.484c.02-.144.035-.296.047-.453.008-.164.016-.332.016-.5 0-.195-.012-.382-.032-.562a6.328 6.328 0 0 0-.062-.547H7.78v2.063zm0 0"/></symbol><symbol overflow="visible" id="ap"><path d="M7.906-3.453h1.547v-.422H7.906v-3.89h-.5v9.234h.5zm-4.86-2.781v1.015c0 .606-.1 1.164-.296 1.672a6.46 6.46 0 0 1-.688 1.375 6.01 6.01 0 0 1-.921 1.031 4.457 4.457 0 0 1-.86.594l.375.36a6.755 6.755 0 0 0 1.36-1.204c.277-.308.539-.671.78-1.078a4.7 4.7 0 0 0 .517-1.344c.09.493.253.934.484 1.329.238.398.488.742.75 1.03.258.282.504.513.734.688.227.18.38.29.453.329l.313-.422c-.117-.051-.309-.18-.578-.391a4.602 4.602 0 0 1-.828-.844 5.813 5.813 0 0 1-.75-1.312c-.22-.52-.329-1.125-.329-1.813v-1.015h2.36v-.422H.766v.422zm0 0"/></symbol><symbol overflow="visible" id="aq"><path d="M3.484-4.813c.57 0 1.008.114 1.313.329.308.218.469.476.469.765 0 .305-.16.559-.47.766-.304.2-.741.297-1.312.297-.562 0-1.004-.098-1.312-.297-.305-.207-.453-.461-.453-.766 0-.289.148-.547.453-.765.308-.215.75-.329 1.312-.329zm0-.39c-.718 0-1.285.148-1.687.437-.406.282-.61.633-.61 1.047 0 .43.196.785.594 1.063.403.281.973.422 1.703.422.715 0 1.282-.141 1.688-.422.414-.278.625-.633.625-1.063 0-.414-.211-.765-.625-1.047-.406-.289-.973-.437-1.688-.437zM.704-6.25v.422H6.28v-.422zm1.109 5.016v.421H7.5V1.47H8v-2.703zM7.984-4.61h1.422v-.407H7.984v-2.75H7.47v5.907h.515zM1.97-7.594v.407h2.937v-.407zm0 0"/></symbol><symbol overflow="visible" id="ar"><path d="M6.766-1.594h.5c.09-.476.175-.91.25-1.297.07-.394.129-.785.171-1.171.051-.383.098-.774.141-1.172.04-.395.078-.836.11-1.329H1.405v.422h5.985a30.978 30.978 0 0 1-.22 2.172c-.093.762-.23 1.555-.405 2.375zm2.39 1.64v-.405H5.47V-3.75h-.516v3.39H3.156v-3.39h-.5v3.39H.203v.407zm0 0"/></symbol><symbol overflow="visible" id="aJ"><path d="M5.031.422S5.008.324 4.97.14a3.422 3.422 0 0 1-.047-.594v-2.875a1.62 1.62 0 0 0-.172-.75 1.85 1.85 0 0 0-.469-.563 2.163 2.163 0 0 0-.703-.328 2.893 2.893 0 0 0-1.734.016 1.85 1.85 0 0 0-.688.375c-.199.156-.355.34-.468.547-.118.21-.165.433-.141.672h.422c0-.196.039-.375.125-.532.09-.164.222-.304.39-.421.164-.114.352-.204.563-.266a2.61 2.61 0 0 1 .687-.094c.54 0 .957.133 1.25.39.301.25.454.552.454.891a.498.498 0 0 1-.094.297.768.768 0 0 1-.219.203 1.543 1.543 0 0 1-.297.157 1.55 1.55 0 0 1-.281.062 5.848 5.848 0 0 1-.5.078c-.18.024-.363.043-.547.063-.188.023-.379.043-.563.062a3.68 3.68 0 0 0-.484.094c-.355.105-.652.3-.89.578C.32-1.516.219-1.164.25-.75.277-.3.484.04.86.281c.37.239.831.34 1.374.313A3.04 3.04 0 0 0 3.5.204c.402-.216.719-.458.938-.72 0 .188.015.38.046.563.028.195.055.316.079.36zM4.438-1.36c0 .199-.075.386-.22.562a2.978 2.978 0 0 1-.53.469A3.295 3.295 0 0 1 2.984 0a2.33 2.33 0 0 1-.656.156C1.86.196 1.465.133 1.156-.03.844-.207.688-.477.688-.844c0-.258.085-.504.265-.734.184-.238.485-.406.89-.5.083-.008.208-.024.376-.047l.531-.063.563-.078c.183-.027.332-.054.437-.078a1.64 1.64 0 0 0 .344-.11c.12-.05.238-.116.343-.202zm0 0"/></symbol><symbol overflow="visible" id="aK"><path d="M1.094.39v-7.296H.625V.39zm0 0"/></symbol><symbol overflow="visible" id="aL"><path d="M1.922-4.61v-.406L1.188-5v-1.61h-.47V-5l-.624-.016v.407h.625v3.984c0 .148.004.277.015.39.02.118.063.215.125.297.04.083.11.16.204.235.09.07.203.11.328.11h.437V.015h-.281A.7.7 0 0 1 1.407 0a.327.327 0 0 1-.11-.078.305.305 0 0 1-.094-.094.439.439 0 0 1-.016-.125.684.684 0 0 1-.015-.156c.008-.059.016-.129.016-.203V-4.61zm0 0"/></symbol><symbol overflow="visible" id="aM"><path d="M2.703-5.094c-.387 0-.73.082-1.031.235a2.138 2.138 0 0 0-.75.593 2.537 2.537 0 0 0-.485.907A3.77 3.77 0 0 0 .281-2.25c0 .398.051.77.156 1.11.102.343.266.648.485.906.195.257.445.46.75.609.3.152.644.234 1.031.234A2.282 2.282 0 0 0 4.47-.235c.215-.257.383-.562.5-.906.113-.34.172-.71.172-1.109a3.53 3.53 0 0 0-.172-1.11 2.92 2.92 0 0 0-.5-.906 2.391 2.391 0 0 0-.766-.593 2.204 2.204 0 0 0-1-.235zm0 5.266c-.293 0-.566-.067-.812-.188a1.883 1.883 0 0 1-.625-.515 2.36 2.36 0 0 1-.391-.766c-.094-.289-.14-.61-.14-.953 0-.332.046-.648.14-.953.09-.3.223-.555.39-.766.176-.215.383-.39.626-.515.246-.121.52-.188.812-.188.277 0 .54.067.781.188.246.125.457.3.625.515.176.211.313.465.407.766a2.99 2.99 0 0 1 0 1.906c-.094.293-.23.55-.407.766a1.773 1.773 0 0 1-.625.515 1.732 1.732 0 0 1-.78.188zm0 0"/></symbol><symbol overflow="visible" id="aN"><path d="M5.938-6.89h-.485L5.47-2c0 .68-.207 1.207-.61 1.578-.398.375-.933.563-1.609.563-.68 0-1.223-.188-1.625-.563C1.227-.793 1.031-1.32 1.031-2v-4.89H.594L.578-1.876c0 .355.055.684.172.984.121.305.297.567.516.782.238.226.52.398.843.515.332.121.711.188 1.141.188.426 0 .8-.067 1.125-.188.332-.117.617-.289.86-.515.214-.215.39-.477.515-.782.121-.3.188-.629.188-.984zm0 0"/></symbol><symbol overflow="visible" id="aO"><path d="M4.969.39v-3.562c0-.27-.055-.52-.157-.75a2.014 2.014 0 0 0-.39-.625 1.868 1.868 0 0 0-.594-.39 1.777 1.777 0 0 0-.719-.157c-.492 0-.91.102-1.25.297-.336.188-.59.434-.765.734l-.016-.828H.625V.391h.453v-3.438a1.2 1.2 0 0 1 .14-.531 1.7 1.7 0 0 1 .391-.531c.164-.153.364-.286.594-.391.227-.113.485-.172.766-.172.445 0 .812.149 1.094.438.289.293.437.68.437 1.156V.39zm0 0"/></symbol><symbol overflow="visible" id="aP"><path d="M1.188-6.203v-.688H.53v.688zM1.093.39v-5.454H.625V.391zm0 0"/></symbol><symbol overflow="visible" id="aQ"><path d="M5-4.922h-.438L2.547-.234l-2-4.688H.078L2.344.391h.437zm0 0"/></symbol><symbol overflow="visible" id="aR"><path d="M1.297.11H.39v.921h.906zm0 0"/></symbol><symbol overflow="visible" id="at"><path d="M8.125-4.406H5.719v.422h2.406v5.453h.531v-9.235h-.531zM6.765-.875a8.688 8.688 0 0 1-.687-.422 5.086 5.086 0 0 1-.969-.875 5.29 5.29 0 0 1-.875-1.375c-.25-.55-.375-1.203-.375-1.953v-1.688h-.53V-5.5c0 .742-.114 1.387-.329 1.938a5.574 5.574 0 0 1-.781 1.406 5.413 5.413 0 0 1-.969.953 6.882 6.882 0 0 1-.86.547l.422.36c.102-.06.29-.192.563-.392.27-.195.55-.453.844-.765.3-.32.582-.692.844-1.11.257-.425.437-.894.53-1.406.134.512.337.973.61 1.375.277.406.567.758.86 1.047.289.293.562.527.812.703.258.18.43.293.516.344zm0 0"/></symbol><symbol overflow="visible" id="au"><path d="M9.438-3.219v-.422H.203v.422H4.61v1.156H1.516v.422h6.078v1.032H1.516v1.968H8.39V.938H2.047V-.188h6.078v-1.875h-3V-3.22zM8.265-6.156c0-.207-.082-.41-.235-.61-.156-.195-.383-.367-.672-.515a4.386 4.386 0 0 0-1.078-.375c-.43-.09-.914-.14-1.453-.14-1.094 0-1.945.163-2.547.484-.594.324-.89.71-.89 1.156 0 .46.296.851.89 1.172.602.312 1.453.468 2.547.468 1.082 0 1.926-.156 2.531-.468.602-.32.907-.711.907-1.172zm-.547 0a.68.68 0 0 1-.235.5 1.764 1.764 0 0 1-.609.375c-.262.117-.57.207-.922.265a7.234 7.234 0 0 1-1.125.079c-.43 0-.82-.024-1.172-.079a3.703 3.703 0 0 1-.906-.265 1.693 1.693 0 0 1-.61-.375.676.676 0 0 1-.218-.5c0-.176.07-.336.219-.485a1.71 1.71 0 0 1 .609-.39c.258-.102.563-.188.906-.25a7.124 7.124 0 0 1 2.297 0c.352.062.66.148.922.25.258.105.46.238.61.39.152.149.234.309.234.485zm0 0"/></symbol><symbol overflow="visible" id="av"><path d="M6.078-6.516H1v.407h4.484c-.011.28-.035.601-.062.953-.031.343-.074.695-.125 1.047-.055.355-.106.699-.156 1.03-.043.325-.086.599-.125.813h.515c.102-.582.196-1.21.282-1.89.09-.676.18-1.461.265-2.36zm1.578-1.25V1.47h.516v-4.703h1.531v-.422H8.172v-4.11zm-.468 7.11v-.406c-.282.042-.602.082-.954.109-.343.031-.699.058-1.062.078-.375.023-.738.04-1.078.047a26.26 26.26 0 0 1-.89.015v-3.093h-.532v3.094H.422v.421h1.031c.758 0 1.422-.004 1.984-.015a38.7 38.7 0 0 0 2.704-.125c.351-.028.703-.07 1.046-.125zm0 0"/></symbol><symbol overflow="visible" id="aw"><path d="M3.594-4.813c.59 0 1.047.114 1.36.329.308.218.468.476.468.765 0 .305-.16.559-.469.766-.312.2-.77.297-1.36.297-.585 0-1.038-.098-1.359-.297-.312-.207-.468-.461-.468-.766 0-.289.156-.547.468-.765.32-.215.774-.329 1.36-.329zm0-.39c-.75 0-1.336.148-1.75.437-.418.282-.625.633-.625 1.047 0 .43.207.785.625 1.063.414.281.992.422 1.734.422.746 0 1.332-.141 1.75-.422.426-.278.64-.633.64-1.063 0-.414-.214-.765-.64-1.047-.418-.289-.996-.437-1.734-.437zM.719-6.25v.422h5.75v-.422zm1.14 5.016v.421h5.875V1.47h.516v-2.703zM8.234-4.61h1.454v-.407H8.233v-2.75h-.53v5.907h.53zM2.031-7.594v.407h3.016v-.407zm0 0"/></symbol><symbol overflow="visible" id="ax"><path d="M4.828-1.36c.414 0 .805.036 1.172.094.363.063.676.153.938.266.269.105.476.242.625.406.152.168.234.352.234.547a.753.753 0 0 1-.234.531 2.099 2.099 0 0 1-.625.422 4.9 4.9 0 0 1-.938.25 7.561 7.561 0 0 1-2.375 0 4.746 4.746 0 0 1-.938-.25 2.056 2.056 0 0 1-.609-.422.751.751 0 0 1-.219-.53c0-.196.07-.38.22-.548.144-.164.347-.3.608-.406.258-.113.57-.203.938-.266a7.561 7.561 0 0 1 1.203-.093zm0-.421c-1.117 0-1.98.168-2.594.5-.617.324-.921.738-.921 1.234s.304.91.921 1.234c.614.32 1.477.485 2.594.485 1.102 0 1.961-.164 2.578-.484.614-.325.922-.739.922-1.235 0-.496-.308-.91-.922-1.234-.617-.332-1.476-.5-2.578-.5zm.25-1.235v-1.578h-.516v1.578H.204v.422h9.235v-.422zm0-3.906h3.094v-.422H1.453v.422h3.094c0 .293-.121.586-.36.875a3.93 3.93 0 0 1-.906.766c-.355.242-.754.449-1.187.625a5.86 5.86 0 0 1-1.203.343l.375.375c.933-.226 1.703-.55 2.296-.968.59-.426 1.016-.848 1.266-1.266.145.25.348.496.61.734.269.231.566.446.89.641.332.211.676.395 1.031.547a5.95 5.95 0 0 0 1 .328l.36-.375a5.19 5.19 0 0 1-1.188-.36 6.525 6.525 0 0 1-1.172-.64 4.396 4.396 0 0 1-.921-.781c-.243-.29-.36-.57-.36-.844zm0 0"/></symbol><symbol overflow="visible" id="ay"><path d="M2.672-.438h5.031V.938H2.672zM8.234 1.36V-2h-.53v1.14H2.671V-2h-.516v3.36zm0-6.218h1.47v-.422h-1.47v-2.485h-.53v5.22h.53zm-4.64-.125c.59 0 1.047.117 1.36.343.308.22.468.446.468.672 0 .281-.16.512-.469.688-.312.18-.77.265-1.36.265-.585 0-1.038-.093-1.359-.28-.312-.184-.468-.411-.468-.673 0-.277.156-.52.468-.719.32-.195.774-.296 1.36-.296zm0-.391c-.75 0-1.336.145-1.75.422-.418.281-.625.617-.625 1 0 .355.207.668.625.937.414.274.992.407 1.734.407.746 0 1.332-.13 1.75-.391.426-.258.64-.578.64-.953a.99.99 0 0 0-.155-.516 1.34 1.34 0 0 0-.47-.453 3.015 3.015 0 0 0-.75-.328 3.724 3.724 0 0 0-1-.125zM.719-6.422V-6h5.75v-.422zM2.03-7.609v.421h3.031v-.421zm0 0"/></symbol><symbol overflow="visible" id="az"><path d="M5.875-7.531v8.578h.516v-4.563h1.671V1.47h.532v-9.235h-.531v3.829H6.39v-3.594zM5.344-.938v-.421a3.829 3.829 0 0 1-.64.093c-.263.024-.536.043-.813.063-.293.023-.586.039-.875.047H1.672v-4.922h2.734V-6.5h-3.25v5.766H2.22c.27 0 .554-.004.86-.016.3-.008.593-.023.874-.047.277-.008.54-.023.781-.047.239-.027.442-.062.61-.094zm0 0"/></symbol><symbol overflow="visible" id="aA"><path d="M6.297-6.094a1.2 1.2 0 0 0-.188-.625 1.78 1.78 0 0 0-.484-.547 2.846 2.846 0 0 0-.781-.375 3.296 3.296 0 0 0-.969-.14c-.367 0-.7.05-1 .14-.293.094-.55.223-.766.375-.218.157-.386.34-.5.547-.117.2-.171.41-.171.625 0 .23.054.45.171.657.114.199.282.37.5.515.215.156.473.285.766.375.3.094.633.14 1 .14.352 0 .676-.046.969-.14.3-.09.562-.219.781-.375a1.64 1.64 0 0 0 .484-.516c.121-.207.188-.425.188-.656zM8.609-.422v-7.344h-.53v5.485H5.311v.422h2.766v1.437zm-.937-3.047v-.422c-.137.024-.367.055-.688.094-.312.031-.668.059-1.062.078-.387.043-.785.074-1.188.094-.406.023-.754.031-1.03.031H.53v.422h2.516v1.875h.531v-1.89c.996-.008 1.836-.04 2.516-.094a19.99 19.99 0 0 0 1.578-.188zm1.187 4.735V.844H2.844V-.937h-.531v2.203zm-3.093-7.36c0 .313-.164.602-.485.86-.324.25-.793.375-1.406.375-.617 0-1.09-.125-1.422-.375-.324-.258-.484-.547-.484-.86 0-.308.16-.593.484-.843.332-.247.805-.375 1.422-.375.613 0 1.082.128 1.406.375.32.25.485.535.485.843zm0 0"/></symbol><symbol overflow="visible" id="aC"><path d="M8.172-7.766V1.47h.531v-9.235zM3.39-6.234v1.015c0 .606-.106 1.164-.313 1.672-.2.512-.441.973-.719 1.375a5.614 5.614 0 0 1-.937 1.031c-.336.274-.633.473-.89.594l.39.36c.113-.07.3-.208.562-.407.27-.207.547-.472.829-.797.289-.308.562-.671.812-1.078.246-.414.426-.863.531-1.344.09.493.258.934.5 1.329.246.398.504.742.766 1.03.277.282.535.513.766.688.226.18.382.29.468.329l.328-.422c-.125-.051-.332-.18-.609-.391a4.81 4.81 0 0 1-.86-.844 5.86 5.86 0 0 1-.78-1.312c-.22-.52-.329-1.125-.329-1.813v-1.015h2.438v-.422H1.03v.422zm0 0"/></symbol><symbol overflow="visible" id="aD"><path d="M8.172-7.766v5.61h.531v-5.61zM2.203-1.578v.422h5.938v2.625h.53v-3.047zm1.625-4.969v-.89h-.531v.89c0 .5-.117.961-.344 1.375-.23.418-.504.79-.812 1.11a5.86 5.86 0 0 1-.954.78c-.324.2-.574.333-.75.391l.407.344c.082-.027.238-.11.469-.234.226-.133.476-.317.75-.547.277-.238.554-.524.828-.86.277-.34.504-.742.671-1.203.176.418.399.786.672 1.094.278.305.563.567.844.781.27.23.52.41.75.532.227.117.383.191.469.218l.328-.39c-.105-.028-.316-.13-.625-.297a5.943 5.943 0 0 1-.938-.688 4.642 4.642 0 0 1-.859-1.03 2.558 2.558 0 0 1-.375-1.376zm0 0"/></symbol><symbol overflow="visible" id="aE"><path d="M8.39-3.938H6.813v-3.609h-.515v8.594h.516v-4.563H8.39V1.47h.515v-9.235h-.515zM2.782-6.14v1.188c0 .637-.101 1.21-.297 1.719a5.54 5.54 0 0 1-.687 1.312c-.25.375-.512.684-.781.922-.274.242-.48.418-.625.531l.421.313c.102-.082.254-.211.454-.39.207-.184.421-.415.64-.688.215-.278.43-.602.64-.97.208-.37.38-.796.517-1.265.09.43.242.82.453 1.172A6.184 6.184 0 0 0 4.844-.734c.195.168.332.273.406.312l.344-.36a6.737 6.737 0 0 1-.5-.359 4.755 4.755 0 0 1-.782-.812A5.568 5.568 0 0 1 3.61-3.22c-.199-.496-.296-1.078-.296-1.734v-1.188h1.859v-.406H.906v.406zm0 0"/></symbol><symbol overflow="visible" id="aF"><path d="M2.266-1.578v2.844h6.296V.844h-5.78v-2.422zm5.859-2.89h1.453v-.423H8.125v-2.875h-.531v6.72h.531zM3.641-6.392v-1.046h-.532v1.046c0 .512-.117.989-.343 1.422a5.57 5.57 0 0 1-1.719 2.031c-.324.231-.586.38-.781.438l.406.344c.07-.04.223-.133.453-.281.238-.145.492-.348.766-.61.277-.246.554-.555.828-.922.27-.363.488-.781.656-1.25.152.387.367.754.64 1.094.278.344.563.645.844.89.278.274.54.493.782.657.238.156.398.246.484.265l.328-.374a8.08 8.08 0 0 1-.75-.454 5.95 5.95 0 0 1-.937-.78 4.807 4.807 0 0 1-.797-1.095A2.905 2.905 0 0 1 3.64-6.39zm0 0"/></symbol><symbol overflow="visible" id="aG"><path d="M7.344.422v-7.313h-.64L4-.109 1.281-6.891H.656V.422h.453V-6.11L3.72.39h.531l2.625-6.532V.422zm0 0"/></symbol><symbol overflow="visible" id="aH"><path d="M4.828-3.438c.121-.05.25-.128.375-.234.121-.113.234-.254.328-.422.09-.152.16-.336.203-.547a2.06 2.06 0 0 0 .032-.703 1.717 1.717 0 0 0-.61-1.11c-.355-.3-.855-.452-1.5-.452h-3V.39h2.922c.79 0 1.395-.176 1.813-.516.425-.352.66-.816.703-1.39.02-.27-.012-.516-.094-.735-.086-.215-.2-.41-.344-.578a1.725 1.725 0 0 0-.422-.375 3.8 3.8 0 0 0-.406-.235zm-1.062-.171H1.109v-2.907h2.657c.27 0 .504.043.703.125.195.086.363.196.5.329.12.148.218.308.281.484.07.168.11.348.11.531 0 .18-.036.356-.094.531a1.4 1.4 0 0 1-.282.454 1.328 1.328 0 0 1-.5.328 1.82 1.82 0 0 1-.718.125zM3.844.016H1.109V-3.22h2.766c.227 0 .445.04.656.11.215.074.41.18.578.312.153.137.282.3.375.485.09.187.141.402.141.64 0 .512-.168.926-.5 1.234-.336.305-.762.454-1.281.454zm0 0"/></symbol><symbol overflow="visible" id="aI"><path d="M6.703.422L3.531-6.906h-.484L-.11.406h.468l.938-2.125h4.016l.921 2.14zM5.141-2.094H1.453l1.844-4.281zm0 0"/></symbol><symbol overflow="visible" id="aS"><path d="M6.438-8.672v1.063h-4.25v2.796h3.984v1.063H2.188v3.016h4.328V.328H1v-9zm0 0"/></symbol><symbol overflow="visible" id="aT"><path d="M5.125-.531a1.53 1.53 0 0 1-.797.734 2.888 2.888 0 0 1-1.125.219c-.844 0-1.488-.254-1.922-.75C.844-.836.625-1.555.625-2.484v-1.22c0-.444.063-.85.188-1.218.12-.371.3-.687.53-.937.227-.246.505-.438.829-.563.32-.133.68-.203 1.078-.203.508 0 .91.09 1.203.266.29.18.504.367.64.562v-3.312h1.173V.328H5.14v-.86zm-.016-3.594c0-.164-.043-.336-.125-.516a1.535 1.535 0 0 0-.359-.468 2.03 2.03 0 0 0-.563-.329 2.003 2.003 0 0 0-.703-.125c-.5 0-.894.18-1.171.532-.274.355-.407.863-.407 1.515v.829c0 .656.14 1.164.422 1.515.277.356.664.531 1.156.531.246 0 .477-.035.688-.109.207-.082.39-.195.547-.344.152-.152.281-.336.375-.547.09-.207.14-.445.14-.718zm0 0"/></symbol><symbol overflow="visible" id="aU"><path d="M.844-6.5h1.172v4.234c0 .586.113 1.008.343 1.266.227.25.586.375 1.079.375.195 0 .394-.035.593-.11.196-.07.375-.175.532-.312.152-.133.28-.305.375-.516.09-.207.14-.44.14-.703V-6.5h1.188V.328H5.125v-.86h-.016c-.199.313-.46.552-.78.72-.325.175-.724.265-1.188.265-.325 0-.63-.055-.907-.156a1.969 1.969 0 0 1-.718-.438 2.19 2.19 0 0 1-.5-.765c-.118-.301-.172-.66-.172-1.078zm0 0"/></symbol><symbol overflow="visible" id="aV"><path d="M3.469-6.625c.539 0 .988.074 1.344.219.351.136.664.316.937.531l-.563.906a3.097 3.097 0 0 0-.843-.468 2.922 2.922 0 0 0-.875-.125c-.219 0-.434.042-.64.125a1.38 1.38 0 0 0-.532.359 1.75 1.75 0 0 0-.36.61c-.093.25-.14.55-.14.89v.875c0 .367.047.68.14.937.09.262.22.477.375.641.153.156.333.277.532.36.207.074.422.109.64.109.434 0 .797-.055 1.079-.172.289-.121.554-.274.796-.453l.563.922c-.242.199-.559.375-.953.53-.387.165-.887.25-1.5.25-.918 0-1.63-.273-2.125-.812C.852-.94.609-1.71.609-2.703v-.86c0-.488.067-.921.204-1.296.132-.383.32-.707.562-.97.246-.257.55-.456.906-.593a3.35 3.35 0 0 1 1.188-.203zm0 0"/></symbol><symbol overflow="visible" id="aW"><path d="M2.781.422c-.668 0-1.199-.168-1.594-.5C.801-.418.61-.895.61-1.5v-.328c0-.582.188-1.055.563-1.422.383-.371 1-.563 1.844-.563h1.687v-.39c0-.457-.113-.797-.328-1.016-.21-.226-.559-.343-1.047-.343-.387 0-.726.066-1.015.187a5.978 5.978 0 0 0-.891.5l-.578-.89c.32-.239.687-.442 1.094-.61.402-.164.875-.25 1.406-.25.37 0 .71.05 1.015.14.301.094.563.239.782.423.226.187.406.417.53.687.122.273.188.582.188.922V.328H4.734V-.5H4.72a1.164 1.164 0 0 1-.266.344 1.841 1.841 0 0 1-.344.265c-.18.102-.37.18-.578.235-.21.05-.46.078-.75.078zm1.922-3.203H3.047c-.469 0-.805.097-1 .281-.2.18-.297.43-.297.75v.172c0 .336.113.582.344.734.226.149.5.219.812.219.29 0 .54-.035.75-.11.215-.07.414-.175.594-.312a.994.994 0 0 0 .344-.422c.07-.164.11-.379.11-.64zm0 0"/></symbol><symbol overflow="visible" id="aX"><path d="M1.36-5.469H.265V-6.5h1.093v-1.734h1.172V-6.5h1.75v1.031h-1.75v3.89c0 .212.02.38.063.5.039.126.097.227.172.298.07.062.16.113.265.14.114.024.227.032.344.032.29 0 .582-.055.875-.172l.188.984a4.19 4.19 0 0 1-.563.14 2.98 2.98 0 0 1-.672.079c-.637 0-1.105-.164-1.406-.484-.293-.32-.438-.829-.438-1.516zm0 0"/></symbol><symbol overflow="visible" id="aY"><path d="M2.156-6.5V.328H.984V-6.5zm.031-2.453v1.328H.938v-1.328zm0 0"/></symbol><symbol overflow="visible" id="aZ"><path d="M3.563-6.625c.902 0 1.624.273 2.156.813.527.542.797 1.308.797 2.296v.829c0 .992-.27 1.757-.797 2.296-.532.54-1.254.813-2.157.813-.917 0-1.644-.274-2.171-.813C.867-.93.609-1.695.609-2.687v-.829c0-.996.258-1.765.782-2.296.527-.54 1.254-.813 2.171-.813zm0 5.984c.519 0 .94-.175 1.265-.53.332-.352.5-.891.5-1.61v-.64c0-.716-.168-1.255-.5-1.61-.324-.352-.746-.532-1.266-.532-.53 0-.96.18-1.28.532-.325.355-.485.894-.485 1.61v.64c0 .719.16 1.258.484 1.61.32.355.75.53 1.281.53zm0 0"/></symbol><symbol overflow="visible" id="ba"><path d="M6.406.328H5.234v-4.25c0-.57-.12-.988-.359-1.25-.23-.258-.59-.39-1.078-.39-.211 0-.414.039-.61.109a1.636 1.636 0 0 0-.922.828c-.093.21-.14.45-.14.719V.328H.937V-6.5h1.141v.86h.016c.195-.32.46-.567.797-.735.332-.164.726-.25 1.187-.25.32 0 .625.055.906.156.278.094.524.242.735.438.215.199.383.457.5.765.12.305.187.664.187 1.079zm0 0"/></symbol><symbol overflow="visible" id="bb"><path d="M1-8.672h3.11c.495 0 .93.067 1.296.188.364.125.66.304.89.53.24.231.415.509.532.829.121.313.188.652.188 1.016v.265c0 .367-.067.711-.188 1.032a2.337 2.337 0 0 1-.562.843 2.637 2.637 0 0 1-.907.578c-.355.137-.773.204-1.25.204H2.188V.328H1zm1.188 1.063v3.359h1.718c1.258 0 1.89-.54 1.89-1.625v-.219c0-.508-.151-.89-.452-1.14-.305-.246-.739-.375-1.297-.375zm0 0"/></symbol><symbol overflow="visible" id="bc"><path d="M3-.625c.434 0 .773-.078 1.016-.234a.738.738 0 0 0 .375-.657v-.093a.941.941 0 0 0-.063-.36.602.602 0 0 0-.234-.265 2.26 2.26 0 0 0-.469-.204 11.98 11.98 0 0 0-.75-.203 5.824 5.824 0 0 1-.969-.265 3.106 3.106 0 0 1-.718-.39 1.5 1.5 0 0 1-.454-.563 1.914 1.914 0 0 1-.14-.766v-.156c0-.227.047-.457.14-.688.102-.226.254-.426.454-.593.195-.165.453-.301.765-.407.309-.101.68-.156 1.11-.156.445 0 .867.055 1.265.156.395.106.754.278 1.078.516l-.515.906a2.57 2.57 0 0 0-.782-.39 3.051 3.051 0 0 0-.968-.157c-.493 0-.848.082-1.063.235a.709.709 0 0 0-.312.593v.11c0 .273.109.472.328.593.215.125.586.243 1.11.344a6.41 6.41 0 0 1 1.046.281c.3.106.547.243.734.407.196.156.344.351.438.578.09.219.14.492.14.812v.157c0 .261-.058.511-.171.75a1.9 1.9 0 0 1-.5.609 2.572 2.572 0 0 1-.797.39 3.385 3.385 0 0 1-1.047.157A4.763 4.763 0 0 1 1.53.188C1.082.039.7-.156.391-.406l.546-.938c.29.211.602.383.938.516.34.137.719.203 1.125.203zm0 0"/></symbol></defs><g fill="#4f4c4d"><use xlink:href="#a" x="336.961" y="47.727"/><use xlink:href="#b" x="344.962" y="47.727"/><use xlink:href="#c" x="352.962" y="47.727"/><use xlink:href="#d" x="360.962" y="47.727"/><use xlink:href="#e" x="368.962" y="47.727"/><use xlink:href="#f" x="371.569" y="47.727"/><use xlink:href="#g" x="379.57" y="47.727"/><use xlink:href="#h" x="387.57" y="47.727"/><use xlink:href="#i" x="395.57" y="47.727"/><use xlink:href="#j" x="403.57" y="47.727"/><use xlink:href="#k" x="411.571" y="47.727"/><use xlink:href="#a" x="419.571" y="47.727"/><use xlink:href="#b" x="427.571" y="47.727"/></g><use xlink:href="#l" x="435.571" y="47.727" fill="#231f20"/><g fill="#231f20"><use xlink:href="#m" x="438.177" y="47.727"/><use xlink:href="#n" x="446.178" y="47.727"/><use xlink:href="#o" x="454.178" y="47.727"/><use xlink:href="#p" x="462.178" y="47.727"/><use xlink:href="#q" x="470.178" y="47.727"/><use xlink:href="#r" x="478.179" y="47.727"/><use xlink:href="#s" x="486.179" y="47.727"/><use xlink:href="#t" x="494.179" y="47.727"/><use xlink:href="#u" x="496.786" y="47.727"/></g><g fill="#231f20"><use xlink:href="#v" x="501.703" y="47.727"/><use xlink:href="#w" x="506.503" y="47.727"/><use xlink:href="#x" x="508.436" y="47.727"/><use xlink:href="#t" x="511.043" y="47.727"/><use xlink:href="#y" x="513.65" y="47.727"/><use xlink:href="#z" x="517.605" y="47.727"/></g><g fill="#393536"><use xlink:href="#A" x="535.245" y="48.426"/><use xlink:href="#B" x="540.818" y="48.426"/><use xlink:href="#A" x="546.392" y="48.426"/></g><g fill="#33459a"><use xlink:href="#C" x="223.665" y="250.25"/><use xlink:href="#D" x="237.18" y="250.25"/><use xlink:href="#E" x="242.121" y="250.25"/><use xlink:href="#D" x="255.636" y="250.25"/><use xlink:href="#F" x="260.577" y="250.25"/></g><g fill="#33459a"><use xlink:href="#G" x="274.091" y="249.351"/><use xlink:href="#H" x="278.044" y="249.351"/><use xlink:href="#I" x="288.856" y="249.351"/><use xlink:href="#J" x="299.668" y="249.351"/><use xlink:href="#K" x="305.179" y="249.351"/><use xlink:href="#L" x="315.991" y="249.351"/><use xlink:href="#M" x="326.803" y="249.351"/></g><g fill="#231f20"><use xlink:href="#N" x="223.665" y="270.763"/><use xlink:href="#O" x="231.512" y="270.763"/><use xlink:href="#P" x="239.36" y="270.763"/><use xlink:href="#Q" x="247.207" y="270.763"/><use xlink:href="#R" x="255.055" y="270.763"/><use xlink:href="#S" x="262.902" y="270.763"/><use xlink:href="#T" x="270.75" y="270.763"/></g><g fill="#231f20"><use xlink:href="#U" x="101.923" y="482.1"/><use xlink:href="#V" x="111.079" y="482.1"/></g><g fill="#231f20"><use xlink:href="#W" x="101.923" y="503.912"/><use xlink:href="#X" x="111.079" y="503.912"/><use xlink:href="#Y" x="120.234" y="503.912"/></g><g fill="#231f20"><use xlink:href="#Z" x="101.923" y="525.724"/><use xlink:href="#aa" x="111.079" y="525.724"/><use xlink:href="#Z" x="120.234" y="525.724"/><use xlink:href="#ab" x="129.389" y="525.724"/><use xlink:href="#ac" x="138.545" y="525.724"/><use xlink:href="#ad" x="147.7" y="525.724"/><use xlink:href="#ae" x="156.855" y="525.724"/><use xlink:href="#ac" x="166.011" y="525.724"/><use xlink:href="#Y" x="175.166" y="525.724"/></g><g fill="#231f20"><use xlink:href="#af" x="101.923" y="547.536"/><use xlink:href="#ag" x="109.481" y="547.536"/><use xlink:href="#ah" x="115.432" y="547.536"/></g><g fill="#231f20"><use xlink:href="#ai" x="101.923" y="569.348"/><use xlink:href="#aj" x="111.079" y="569.348"/><use xlink:href="#ak" x="120.234" y="569.348"/></g><use xlink:href="#al" x="126.032" y="569.348" fill="#231f20"/><path d="M93.43 404.027h424.68" fill="none" stroke-width=".299637" stroke="#33459a" stroke-miterlimit="10"/><g fill="#231f20"><use xlink:href="#am" x="103.339" y="352.644"/><use xlink:href="#an" x="112.494" y="352.644"/><use xlink:href="#ao" x="121.65" y="352.644"/><use xlink:href="#ap" x="130.805" y="352.644"/><use xlink:href="#U" x="139.96" y="352.644"/><use xlink:href="#aq" x="149.116" y="352.644"/><use xlink:href="#ar" x="158.271" y="352.644"/><use xlink:href="#as" x="167.426" y="352.644"/><use xlink:href="#am" x="170.783" y="352.644"/><use xlink:href="#aq" x="179.939" y="352.644"/><use xlink:href="#Y" x="189.094" y="352.644"/></g><g fill="#231f20"><use xlink:href="#at" x="103.339" y="374.456"/><use xlink:href="#au" x="112.777" y="374.456"/><use xlink:href="#av" x="122.216" y="374.456"/><use xlink:href="#aw" x="131.654" y="374.456"/><use xlink:href="#ax" x="141.093" y="374.456"/><use xlink:href="#ay" x="150.532" y="374.456"/><use xlink:href="#az" x="159.97" y="374.456"/><use xlink:href="#aw" x="169.409" y="374.456"/><use xlink:href="#aA" x="178.847" y="374.456"/><use xlink:href="#aB" x="188.286" y="374.456"/><use xlink:href="#aC" x="191.746" y="374.456"/><use xlink:href="#aD" x="201.185" y="374.456"/><use xlink:href="#aE" x="210.623" y="374.456"/><use xlink:href="#aF" x="220.062" y="374.456"/><use xlink:href="#aB" x="229.5" y="374.456"/><use xlink:href="#aG" x="232.961" y="374.456"/><use xlink:href="#aH" x="240.753" y="374.456"/><use xlink:href="#aI" x="246.888" y="374.456"/></g><g fill="#231f20"><use xlink:href="#aJ" x="103.339" y="396.268"/><use xlink:href="#ah" x="108.507" y="396.268"/><use xlink:href="#aK" x="114.702" y="396.268"/><use xlink:href="#aL" x="116.197" y="396.268"/><use xlink:href="#aM" x="118.181" y="396.268"/><use xlink:href="#as" x="123.369" y="396.268"/><use xlink:href="#aN" x="126.726" y="396.268"/><use xlink:href="#aO" x="133.023" y="396.268"/><use xlink:href="#aP" x="138.333" y="396.268"/><use xlink:href="#aQ" x="139.828" y="396.268"/><use xlink:href="#aR" x="144.813" y="396.268"/><use xlink:href="#as" x="146.908" y="396.268"/><use xlink:href="#af" x="150.265" y="396.268"/><use xlink:href="#ag" x="157.824" y="396.268"/><use xlink:href="#ah" x="163.774" y="396.268"/></g><g fill="#fff"><use xlink:href="#aS" x="136.011" y="327.353"/><use xlink:href="#aT" x="143.011" y="327.353"/><use xlink:href="#aU" x="149.986" y="327.353"/><use xlink:href="#aV" x="156.95" y="327.353"/><use xlink:href="#aW" x="162.872" y="327.353"/><use xlink:href="#aX" x="169.314" y="327.353"/><use xlink:href="#aY" x="173.783" y="327.353"/><use xlink:href="#aZ" x="176.677" y="327.353"/><use xlink:href="#ba" x="183.556" y="327.353"/></g><g fill="#fff"><use xlink:href="#bb" x="136.011" y="458.155"/><use xlink:href="#aZ" x="143.241" y="458.155"/><use xlink:href="#bc" x="150.119" y="458.155"/><use xlink:href="#aY" x="155.908" y="458.155"/><use xlink:href="#aX" x="158.803" y="458.155"/><use xlink:href="#aY" x="163.271" y="458.155"/><use xlink:href="#aZ" x="166.166" y="458.155"/><use xlink:href="#ba" x="173.044" y="458.155"/></g></svg>