<svg xmlns="http://www.w3.org/2000/svg" xmlns:xlink="http://www.w3.org/1999/xlink" width="793.701" height="1058.268" viewBox="0 0 595.276 793.701" version="1.2"><defs><symbol overflow="visible" id="a"><path d="M5.172-5.844h-.719V.453h.719zM1.859.453h.985l1.375-6.297h-.844L2.359-.5 1.344-5.844H.5zm4.454-6.297h-.72V.453h.72zm1.14 0H6.72V.453h.734zm0 0"/></symbol><symbol overflow="visible" id="b"><path d="M.75.047v1.016h1.031V.046zm0 0"/></symbol><symbol overflow="visible" id="d"><path d="M7.781.375v-.656H4.406v-2.016h2.532v-.625H2.016v-2.64h4.843v-.641H1.281v3.906h2.36V-.28H.28v.656zm0 0"/></symbol><symbol overflow="visible" id="e"><path d="M4.031-3.703c.903 0 1.61-.133 2.11-.406.507-.278.765-.641.765-1.079 0-.433-.258-.796-.765-1.078-.5-.277-1.207-.421-2.11-.421-.906 0-1.617.144-2.125.421-.5.282-.75.637-.75 1.063 0 .45.25.816.75 1.094.508.273 1.219.406 2.125.406zm0-.563c-.617 0-1.117-.082-1.5-.25-.386-.164-.578-.394-.578-.687 0-.29.188-.516.563-.672.382-.164.89-.25 1.515-.25.59 0 1.082.086 1.469.25.395.156.594.387.594.688 0 .28-.196.507-.578.671-.387.168-.883.25-1.485.25zm3.735 1.907V-3H.28v.64h3.344v.97H1.281V1.28h5.5V-1.39H4.406v-.968zM6.03.64H2.016V-.75H6.03zm0 0"/></symbol><symbol overflow="visible" id="f"><path d="M4.453-5.703H6.86v-.64H1.203v.64H3.61a1.592 1.592 0 0 1-.28.781 2.65 2.65 0 0 1-.657.625 4.407 4.407 0 0 1-.938.484c-.355.137-.73.247-1.125.329.09.093.192.195.297.296.102.106.192.196.266.266.3-.07.598-.164.89-.281.301-.121.583-.27.844-.438.239-.144.453-.304.64-.484.196-.184.36-.398.485-.64.145.28.336.535.578.75.246.21.516.382.797.515.246.148.504.27.766.36.258.093.504.167.734.218a10.541 10.541 0 0 1 .516-.562 6.363 6.363 0 0 1-.984-.266 3.935 3.935 0 0 1-.891-.438 2.91 2.91 0 0 1-.75-.64c-.2-.258-.317-.55-.344-.875zm3.313 4.187v-.625H.28v.625h3.39V1.36h.782v-2.875zm0 0"/></symbol><symbol overflow="visible" id="g"><path d="M7.125-.75v-5.875h-.75V-.75zM3.219-5.438v-1h-.781v1c0 .344-.06.668-.172.97a2.83 2.83 0 0 1-.422.78c-.211.274-.457.512-.735.72-.28.198-.586.37-.906.515.102.086.219.18.344.281.121.094.223.176.297.235.207-.102.41-.227.61-.375.206-.145.398-.305.577-.485.176-.164.332-.351.469-.562.145-.207.254-.422.328-.641.102.219.238.43.406.625.164.188.344.363.532.516.175.148.359.277.546.39.184.117.368.215.547.297a6.792 6.792 0 0 1 .516-.578 3.319 3.319 0 0 1-1.516-1.031 2.687 2.687 0 0 1-.468-.75 2.312 2.312 0 0 1-.172-.907zm4.125 6.641v-.64h-4.75v-1.938h-.766v2.578zm0 0"/></symbol><symbol overflow="visible" id="h"><path d="M6.797-3.344v-3.203h-.75v.984H2v-.984h-.734v3.203zm-.75-.64H2v-.97h4.047zm1.719 2.109v-.64H.28v.64h3.485v1.719h.75v-1.719zm-.704 3.078v-.64H2.016V-1.11H1.28v2.312zm0 0"/></symbol><symbol overflow="visible" id="i"><path d="M6.875-3.984v-.594H2.031v-1.234h4.75v-.594h-5.5v2.422zm.89 1.312v-.61H.282v.61zm-.812 3.969V.703H2.11v-.75h4.672v-1.89h-5.5v.593h4.672v.719H1.281v1.922zm0 0"/></symbol><symbol overflow="visible" id="j"><path d="M7.11-.75v-5.875h-.75V-.75zM.61-4.406c0 .281.05.554.156.812.101.25.242.477.421.672.196.18.422.324.672.438.258.117.551.171.875.171.301 0 .582-.054.844-.171.258-.114.485-.258.672-.438.184-.195.332-.422.438-.672a2.21 2.21 0 0 0 .156-.812c0-.29-.055-.563-.157-.813a2.292 2.292 0 0 0-.437-.687 2.083 2.083 0 0 0-.672-.438 2.102 2.102 0 0 0-.844-.172c-.324 0-.617.059-.875.172-.25.106-.476.254-.671.438-.18.199-.32.43-.422.687-.106.25-.157.524-.157.813zm.765 0c0-.403.113-.75.344-1.032.238-.289.578-.437 1.015-.437.426 0 .758.148 1 .438.239.28.36.628.36 1.03 0 .4-.121.739-.36 1.016-.242.282-.574.422-1 .422-.437 0-.777-.14-1.015-.422-.23-.277-.344-.617-.344-1.015zm5.969 5.61V.562H2.562v-1.985h-.75v2.625zm0 0"/></symbol><symbol overflow="visible" id="k"><path d="M6.781-4.016v-2.39H1.266v2.39zm-.734-.593H2v-1.204h4.047zm1.719 1.875v-.61H.28v.61h3.344v.796H1.281v.594h4.672v.719H1.281v1.922h5.672V.703H2.11v-.75h4.672v-1.89H4.406v-.797zm0 0"/></symbol><symbol overflow="visible" id="l"><path d="M4.438-5.656v-.657h-.813v.657c0 .355-.086.695-.25 1.015a3.377 3.377 0 0 1-.64.875 4.663 4.663 0 0 1-.985.72c-.375.21-.77.378-1.172.5.113.116.219.226.313.327.101.094.191.184.265.266.301-.102.598-.238.89-.406.29-.164.563-.348.813-.547a4.4 4.4 0 0 0 .688-.688c.195-.246.36-.508.484-.781.114.273.274.54.485.797.207.25.445.48.718.687.27.22.551.414.844.579.29.156.567.277.828.359.07-.09.157-.188.25-.281.09-.102.192-.204.297-.297a4.6 4.6 0 0 1-1.078-.438 4.765 4.765 0 0 1-.953-.719 3.478 3.478 0 0 1-.719-.921 2.217 2.217 0 0 1-.266-1.047zM7.78.359v-.64H4.406v-2.016h-.765V-.28H.28v.64zm0 0"/></symbol><symbol overflow="visible" id="m"><path d="M7.203 1.375v-8h-.75v2.969h-1V-6.5H4.72V.984h.734v-3.921h1v4.312zM.781-6.063v.641h2.25c-.023.461-.09.899-.203 1.313a5.194 5.194 0 0 1-.453 1.156A6.445 6.445 0 0 1 1.5-1.781a6.913 6.913 0 0 1-1.219.984c.102.063.223.137.36.219.144.086.257.164.343.234a7.75 7.75 0 0 0 1.25-1.14c.364-.426.672-.91.922-1.454.184-.425.332-.894.438-1.406a9.83 9.83 0 0 0 .203-1.718zm0 0"/></symbol><symbol overflow="visible" id="n"><path d="M3.422-7.313a.124.124 0 0 0-.031-.078.119.119 0 0 0-.079-.062.133.133 0 0 0-.078 0 .589.589 0 0 0-.078.047l-1.844.828a.934.934 0 0 0-.218.078c-.086.043-.125.102-.125.172 0 .043.008.082.031.11a.143.143 0 0 0 .094.03c.05 0 .113-.015.187-.046.07-.028.133-.051.188-.063l.687-.312c.051-.02.102-.04.156-.063a.364.364 0 0 1 .172-.047c.07 0 .118.024.141.063.02.043.031.097.031.156v5.078c0 .367-.043.617-.125.75-.074.125-.316.188-.719.188-.25 0-.414.011-.484.03-.074.013-.11.052-.11.11 0 .063.016.106.048.125.027.024.082.032.156.032h3.094c.058 0 .109-.008.14-.032.028-.02.047-.054.047-.11 0-.058-.02-.1-.047-.124a.278.278 0 0 0-.14-.031h-.329c-.375 0-.601-.079-.671-.235-.063-.164-.094-.41-.094-.734zm0 0"/></symbol><symbol overflow="visible" id="o"><path d="M1.672.344c-.012.02-.008.031.016.031.019.008.035.016.046.016h.172c.082 0 .13-.028.14-.079.02-.042.052-.105.095-.187l3.125-7.047c.02-.027.039-.066.062-.11a.385.385 0 0 0 .031-.124c0-.082-.054-.125-.156-.125C5.11-7.29 5.04-7.297 5-7.297H.5c-.074 0-.121.024-.14.063a.329.329 0 0 0-.032.156l.047.61c.008.011.016.042.016.093.007.055.03.078.062.078.02 0 .04-.004.063-.016l.046-.046c.114-.028.204-.051.266-.063.07-.008.164-.016.281-.016h3.235c.05 0 .097.012.14.032.051.023.079.066.079.125 0 .031-.02.082-.047.14a.712.712 0 0 0-.063.157zm0 0"/></symbol><symbol overflow="visible" id="p"><path d="M4.61-8.531a8.282 8.282 0 0 0-1.594.828A7.178 7.178 0 0 0 1.687-6.5a6.863 6.863 0 0 0-.953 1.453A3.928 3.928 0 0 0 .36-3.359c0 .75.223 1.507.672 2.265C1.477-.344 2.13.031 2.984.031c.715 0 1.286-.27 1.704-.812.425-.551.64-1.16.64-1.828a2.92 2.92 0 0 0-.516-1.641c-.343-.508-.847-.766-1.5-.766-.167 0-.34.036-.515.094-.18.055-.34.145-.485.266a.984.984 0 0 0-.187.156c-.063.074-.094.145-.094.203 0 .031.004.067.016.094.02.023.047.031.078.031.059 0 .148-.078.266-.234.12-.164.347-.25.671-.25.208 0 .395.058.563.172a1.5 1.5 0 0 1 .453.421c.152.243.274.508.36.797.09.293.14.586.14.875 0 .282-.043.555-.125.813-.086.262-.21.52-.375.766-.125.18-.273.324-.437.437a1.095 1.095 0 0 1-.594.156c-.7 0-1.195-.375-1.485-1.125-.292-.758-.437-1.406-.437-1.937 0-.614.11-1.192.328-1.735.215-.539.524-1.05.922-1.53.309-.384.703-.75 1.172-1.095.476-.34.953-.597 1.422-.765.039-.02.093-.04.156-.063.07-.027.11-.066.11-.11 0-.038-.012-.07-.032-.093a.122.122 0 0 0-.094-.047.728.728 0 0 0-.265.078c-.117.055-.196.09-.235.11zm0 0"/></symbol><symbol overflow="visible" id="q"><path d="M6.453-5.547c0 .586-.18 1.07-.531 1.453-.356.387-.809.578-1.36.578-.542 0-.996-.191-1.359-.578-.355-.383-.531-.867-.531-1.453 0-.57.176-1.055.531-1.453a1.773 1.773 0 0 1 1.36-.594c.55 0 1.003.2 1.359.594.351.398.531.883.531 1.453zm1.422 0c0-.558-.129-1.023-.375-1.39a3.038 3.038 0 0 0-.844-.844 3.382 3.382 0 0 0-.875-.407 7.218 7.218 0 0 1-.437-.124c0-.07.004-.13.015-.172a.53.53 0 0 1 .063-.125.644.644 0 0 0 .016-.125.563.563 0 0 0-.063-.188c-.055-.082-.176-.156-.36-.219a1.946 1.946 0 0 0-.577-.093c-.2-.008-.38.02-.532.078-.156.054-.234.144-.234.265 0 .063.015.118.047.157.039.03.082.07.125.109.02.031.035.074.047.125.007.055-.012.117-.063.188 0 .011-.137.054-.406.124-.274.063-.57.196-.89.391-.325.211-.622.496-.891.86-.262.355-.391.824-.391 1.406 0 .468.094.886.281 1.25.196.367.453.68.766.937.308.25.664.446 1.062.578.395.137.797.204 1.204.204.394 0 .785-.067 1.171-.204a3.68 3.68 0 0 0 1.079-.578c.308-.258.566-.57.765-.937a2.69 2.69 0 0 0 .297-1.266zm2.344-4.203l.062 9.656v.985c.008.32.031.601.063.843.039.246.094.446.156.594.07.145.164.211.281.203.258 0 .461-.32.61-.953.152-.637.226-1.476.218-2.516l-.062-8.812c0-.184.015-.348.047-.484.027-.145.047-.274.047-.391a.564.564 0 0 0-.047-.281c-.043-.082-.133-.156-.266-.219-.105-.027-.242-.066-.406-.11a9.998 9.998 0 0 0-.516-.109c-.187-.027-.355-.054-.5-.078a2.422 2.422 0 0 1-.281-.047c-.48-.027-.742.043-.781.219-.031.168.097.316.39.438.34.148.594.285.75.406.153.125.235.347.235.656zm0 0"/></symbol><symbol overflow="visible" id="s"><path d="M13.547-3.656c.008-.164-.102-.297-.328-.39a2.595 2.595 0 0 0-.844-.204 6.624 6.624 0 0 0-1.063.031c-.374.043-.71.117-1 .219-.117.055-.332.09-.64.11-.313.023-.652.03-1.016.03-.367.012-.722.016-1.062.016-.336-.008-.582-.015-.735-.015H3.75a27.203 27.203 0 0 1-1.578-.047c-.211-.02-.41-.035-.594-.047l-.594-.063a1.801 1.801 0 0 0-.53.047c-.15.031-.247.082-.298.14-.043.063-.031.145.032.235.07.086.222.18.453.281.59.274 1.054.446 1.39.516.34.063.617.086.828.063.207-.028.383-.082.532-.157.152-.082.343-.132.562-.156.027 0 .32-.02.875-.062.559-.051 1.422-.082 2.578-.094h2.657c.351 0 .675.008.968.015.29.012.563.024.813.032.195.023.394.031.594.031.207-.008.39-.031.546-.063a.978.978 0 0 0 .391-.156.403.403 0 0 0 .172-.312zM11.078.688c-.125-.012-.27-.024-.422-.032-.148 0-.3.004-.453.016-.156.008-.3.031-.422.062a.989.989 0 0 0-.297.11c-.148.101-.32.164-.515.187a5.11 5.11 0 0 1-.516.032l-3.031.03A.652.652 0 0 1 5.094 1C5 .937 4.954.824 4.954.672V-.703c0-.133.007-.258.03-.375a1.75 1.75 0 0 0 .032-.281.323.323 0 0 0-.125-.22c-.063-.058-.192-.109-.375-.14-.2-.027-.465-.05-.797-.062a6.025 6.025 0 0 0-.844 0c-.313.043-.523.097-.625.156-.094.063-.133.133-.11.203.02.063.083.129.188.188.113.054.223.09.328.109.309.063.531.148.656.25.122.094.188.27.188.516V.687c0 .477.148.786.453.922.309.133.66.204 1.047.204l5.938-.063c.238 0 .43-.043.578-.125.144-.086.222-.191.234-.313.02-.117-.023-.238-.125-.359-.105-.117-.29-.207-.547-.265zM8.766-7.892c0 .262-.055.504-.157.72-.105.218-.242.41-.406.562a1.8 1.8 0 0 1-1.25.53c-.25 0-.488-.046-.703-.14a1.55 1.55 0 0 1-.563-.39 1.63 1.63 0 0 1-.421-.563 1.788 1.788 0 0 1-.141-.719 1.652 1.652 0 0 1 .563-1.281c.152-.164.343-.297.562-.39.215-.09.453-.141.703-.141.227 0 .453.05.672.14a1.936 1.936 0 0 1 .984.97c.102.218.157.456.157.702zm1.437-.015c0-.508-.133-.926-.39-1.25a3.03 3.03 0 0 0-.829-.75 3.573 3.573 0 0 0-.843-.36c-.25-.07-.375-.113-.375-.125a.35.35 0 0 1 0-.156c.02-.039.035-.078.046-.11a.114.114 0 0 0 .016-.093.44.44 0 0 0-.062-.172c-.075-.07-.207-.129-.391-.172a3.682 3.682 0 0 0-.563-.078c-.187 0-.363.024-.515.063-.156.043-.234.12-.234.234 0 .031.019.059.062.078l.125.078a.21.21 0 0 1 .063.14c.007.044-.024.099-.094.157 0 .024-.137.07-.407.14-.261.063-.55.184-.859.36-.324.18-.617.434-.875.766-.262.324-.39.742-.39 1.25 0 .418.093.8.28 1.14.184.336.438.621.75.86.31.242.66.426 1.048.547a3.814 3.814 0 0 0 2.359 0 3.35 3.35 0 0 0 1.047-.547c.3-.239.547-.524.734-.86.196-.34.297-.722.297-1.14zm0 0"/></symbol><symbol overflow="visible" id="t"><path d="M7.547-3.438h2.5c.332 0 .633.008.906.016.277 0 .54.008.781.016a5.63 5.63 0 0 0 1.125-.016c.352-.039.536-.191.547-.453.008-.176-.097-.313-.312-.406a2.898 2.898 0 0 0-.813-.188 5.314 5.314 0 0 0-1.047.047 4.575 4.575 0 0 0-.984.219c-.125.043-.34.074-.64.094-.305.011-.637.023-1 .03H7.593c-.336-.007-.582-.015-.735-.015H2.875a7.608 7.608 0 0 1-.656-.047 21.89 21.89 0 0 1-.547-.03 9.606 9.606 0 0 0-.563-.048 2.593 2.593 0 0 0-.546.032c-.149.03-.243.082-.282.14-.054.074-.047.152.016.234.07.086.223.18.453.282.559.261 1.004.426 1.328.484.332.063.602.078.813.047.207-.02.382-.066.53-.14.153-.07.352-.118.595-.141h.125c.082-.008.21-.024.39-.047.164-.008.38-.02.64-.031.259-.02.567-.036.923-.047L6.14-.094c0 .34.007.672.03.985.02.32.052.601.095.843.039.246.097.446.171.594.083.145.188.211.313.203.258 0 .469-.32.625-.953.152-.637.227-1.476.219-2.516zm-.828-3.718c.351.105.765.226 1.234.36.465.124.922.257 1.36.39.433.125.82.238 1.156.328.332.094.55.16.656.187.52.149.86.137 1.016-.03.164-.177.18-.36.046-.548-.117-.12-.324-.265-.624-.422a4.258 4.258 0 0 0-.829-.328 2.501 2.501 0 0 0-.328-.031h-.234a4.91 4.91 0 0 1-.219.031.637.637 0 0 1-.25-.015c-.148-.008-.433-.063-.86-.157-.417-.09-.84-.195-1.265-.312.395-.227.766-.473 1.11-.734.351-.258.718-.551 1.093-.876.434-.308.68-.593.735-.843.058-.246-.106-.43-.5-.547a5.385 5.385 0 0 0-.282-.031 8.02 8.02 0 0 0-.468-.016c-.157 0-.317.008-.47.016a.89.89 0 0 0-.343.078c-.105.054-.32.097-.64.125-.313.031-.668.058-1.063.078-.406.023-.816.031-1.219.031h-.984c-.336 0-.649-.004-.938-.015a4.689 4.689 0 0 1-.593-.063c-.407-.04-.645.02-.704.172-.062.148.051.3.344.453.34.2.625.34.844.422.227.074.41.11.547.11a.726.726 0 0 0 .36-.048 2.31 2.31 0 0 1 .296-.125l.063-.015a.736.736 0 0 0 .14-.047c.059-.008.13-.024.203-.047a2.57 2.57 0 0 1 .25-.047c.09 0 .25-.004.47-.015.226-.008.484-.024.765-.047.277-.02.566-.036.86-.047.288-.02.546-.035.765-.047-.461.43-.977.851-1.547 1.265-.563.418-1.149.801-1.75 1.141-.586.356-1.18.668-1.781.938a9.598 9.598 0 0 1-1.672.578.342.342 0 0 0-.188.156c-.031.063-.015.129.047.188.04.074.129.128.266.156.133.031.328.023.578-.032.789-.152 1.562-.378 2.312-.671.746-.29 1.493-.641 2.235-1.047zm0 0"/></symbol><symbol overflow="visible" id="u"><path d="M5.656-.922H4.375l.016-2.812c0-.082.004-.164.015-.25.02-.082.032-.16.032-.235a.318.318 0 0 0-.063-.187c-.031-.051-.105-.098-.219-.14l-.297-.032a4.658 4.658 0 0 0-.312-.047 4.29 4.29 0 0 0-.313-.016 1.17 1.17 0 0 1-.218-.03c-.336.023-.524.089-.563.202-.031.106.055.192.266.25.152.043.297.102.422.172.12.074.187.2.187.375v2.735H2.406c-.199-.008-.37-.02-.515-.032-.157-.008-.305-.02-.438-.031a5.65 5.65 0 0 1-.437-.047c-.157 0-.293.02-.407.047-.117.023-.195.055-.234.094-.043.062-.04.133.016.203.058.062.18.137.359.219.434.199.781.324 1.031.375.258.054.473.07.64.046a.963.963 0 0 0 .407-.109c.121-.058.281-.098.469-.11a20.829 20.829 0 0 1 .656-.047c.207-.019.473-.034.797-.046.32-.008.707-.02 1.156-.031h2c.27 0 .516.008.735.015h.609c.32.032.617.032.89 0 .27-.039.41-.164.422-.375.008-.132-.074-.238-.25-.312a1.855 1.855 0 0 0-.64-.156 3.988 3.988 0 0 0-.828.03c-.281.032-.54.09-.766.173-.062.023-.215.043-.453.062-.242.012-.54.024-.89.031L6.75-4.03c0-.082.004-.164.016-.25.007-.082.015-.16.015-.235a.318.318 0 0 0-.062-.187c-.032-.05-.106-.098-.219-.14l-.281-.032a4.144 4.144 0 0 0-.328-.047 7.69 7.69 0 0 1-.313-.031c-.105-.008-.18-.016-.219-.016-.324.024-.507.09-.546.203-.043.106.039.192.25.25.152.043.289.102.406.172.12.074.187.196.187.36zm3.469-5.844c.02-.101.05-.195.094-.28.05-.09.086-.18.11-.266a.22.22 0 0 0-.048-.204c-.043-.058-.152-.117-.328-.171a2.727 2.727 0 0 0-.625-.016c-.23.023-.43.066-.594.125-.054.023-.16.043-.312.062-.156.012-.352.024-.578.032a33.592 33.592 0 0 1-1.64.046H3.436c-.261 0-.496-.003-.703-.015-.21-.02-.37-.04-.484-.063-.23-.007-.395.004-.484.032-.094.03-.141.07-.141.109-.012.063.016.129.078.188a.683.683 0 0 0 .188.125c.394.218.71.363.953.421.238.055.437.075.594.063.164-.02.304-.055.421-.11.121-.05.27-.093.438-.125 0 0 .16-.003.484-.015.332-.008.707-.02 1.125-.031.414-.02.817-.036 1.203-.047.395-.02.657-.035.782-.047a26.596 26.596 0 0 1-.11 1.61c-.043.491-.105.976-.187 1.452-.063.344-.121.63-.172.844-.043.219-.074.399-.094.531 0 .137.016.239.047.297.027.063.094.102.188.11.175.023.347-.118.515-.422.176-.309.336-.739.485-1.281.082-.29.156-.602.218-.938.059-.332.117-.645.172-.938.05-.289.086-.535.11-.734.027-.207.05-.32.062-.344zm0 0"/></symbol><symbol overflow="visible" id="v"><path d="M5.328-6.469c.215.106.488.23.813.375.332.149.671.301 1.015.453.34.149.672.29.985.422.308.137.55.242.718.313.184.093.352.148.5.156.153 0 .27-.035.344-.11.082-.05.117-.128.11-.234-.012-.101-.083-.222-.204-.36a3.122 3.122 0 0 0-.484-.374 3.394 3.394 0 0 0-.484-.297 1.848 1.848 0 0 0-.266-.031c-.063 0-.121.008-.172.015H8a.68.68 0 0 1-.25-.062c-.086-.027-.21-.07-.375-.125-.168-.05-.348-.11-.531-.172-.188-.07-.383-.145-.578-.219-.2-.07-.368-.14-.5-.203.039-.039.082-.094.125-.156.05-.059.109-.117.171-.172.051-.059.102-.125.157-.188.05-.058.093-.117.125-.171.05-.07.097-.141.14-.204A.519.519 0 0 0 6.563-8a.349.349 0 0 0-.047-.203.741.741 0 0 0-.204-.235 3.466 3.466 0 0 0-.28-.171c-.118-.059-.231-.118-.345-.172a2.236 2.236 0 0 0-.328-.14c-.105-.028-.183-.052-.234-.063-.219-.02-.379-.012-.469.015-.093.024-.152.055-.172.094-.011.043.004.09.047.14.051.055.114.102.188.141.226.137.36.258.39.36a.41.41 0 0 1-.015.28 5.034 5.034 0 0 1-.735.985 7.995 7.995 0 0 1-.968.875 8.9 8.9 0 0 1-1.079.735c-.374.21-.726.37-1.046.484a.472.472 0 0 0-.22.156c-.03.055-.026.114.016.172.028.043.098.074.204.094.113.023.273.008.484-.047.238-.07.508-.164.813-.281a10.438 10.438 0 0 0 1.875-1c.32-.207.617-.438.89-.688zm-.453 3.75l.047 2.64c0 .27.004.536.016.798.007.258.03.484.062.672.04.195.086.351.14.468.06.114.141.172.235.172.207 0 .379-.258.516-.765.132-.512.195-1.184.187-2.016l-.047-2h2c.27 0 .516.008.735.016.226 0 .437.007.625.015.32.024.617.016.89-.015.278-.04.43-.164.453-.375 0-.133-.09-.239-.265-.313a2.7 2.7 0 0 0-.64-.156 5.19 5.19 0 0 0-.845.047 4.12 4.12 0 0 0-.78.156c-.095.043-.27.074-.517.094-.242.011-.507.015-.796.015H2.312a4.8 4.8 0 0 1-.53-.046c-.157 0-.305-.004-.438-.016a6.525 6.525 0 0 0-.453-.047 1.667 1.667 0 0 0-.438.031c-.117.024-.195.059-.234.11-.043.054-.04.117.015.187.059.063.188.137.375.219.446.21.801.34 1.063.39.258.055.473.07.64.047.165-.02.305-.054.422-.109.121-.059.282-.102.47-.125h.108c.07-.008.176-.02.313-.031.133-.008.305-.02.516-.031.207-.008.453-.02.734-.032zm0 0"/></symbol><symbol overflow="visible" id="w"><path d="M7.234 1.25v-7.89h-.656v2.75H4.672v.562h1.906V1.25zM5.625-.813a4.859 4.859 0 0 1-.797-.562 3.882 3.882 0 0 1-.797-.89A3.9 3.9 0 0 1 3.453-3.5a5.556 5.556 0 0 1-.156-1.313v-1.375H2.64v1.375c0 .438-.059.887-.172 1.344-.117.45-.29.856-.516 1.219-.23.344-.504.664-.812.953a4.88 4.88 0 0 1-.875.688l.515.453a4.25 4.25 0 0 0 .672-.516c.246-.226.473-.473.672-.734a5.4 5.4 0 0 0 .578-.907c.133-.277.223-.503.266-.671.05.168.144.394.281.671.145.274.332.555.563.844.226.282.468.52.718.703.246.188.461.336.64.438zm0 0"/></symbol><symbol overflow="visible" id="x"><path d="M4.016-6.688c-.938 0-1.66.137-2.157.407-.5.273-.75.605-.75 1 0 .398.25.73.75 1 .496.273 1.22.406 2.157.406.933 0 1.648-.133 2.14-.406.496-.27.75-.602.75-1a.855.855 0 0 0-.203-.532 1.526 1.526 0 0 0-.547-.453 3.679 3.679 0 0 0-.906-.296 5.663 5.663 0 0 0-1.234-.125zm3.828 3.985v-.547H.172v.547h3.531v.812H1.22v.532h4.89v.718H1.22v1.813H7V.625H1.922v-.734h4.89v-1.782H4.376v-.812zM4.016-6.188c.308 0 .601.024.875.063.27.043.504.113.703.203.195.074.347.168.453.281a.485.485 0 0 1 .172.36.523.523 0 0 1-.172.375 1.22 1.22 0 0 1-.453.265c-.2.086-.434.153-.703.204a5.659 5.659 0 0 1-.875.062c-.336 0-.637-.02-.907-.063a2.888 2.888 0 0 1-.687-.203c-.2-.07-.352-.16-.453-.265a.537.537 0 0 1-.157-.375c0-.27.196-.489.594-.657.403-.164.942-.25 1.61-.25zm0 0"/></symbol><symbol overflow="visible" id="y"><path d="M4.266-.766v-.562c-.157.031-.38.07-.657.11-.273.03-.539.046-.796.046l-1.266.016v-3.907h2.078v-.562H.891v5.047c.007 0 .066.008.171.015.114 0 .254-.003.422-.015h.547c.207 0 .41-.008.61-.031.382-.008.71-.032.984-.063.277-.039.492-.07.64-.094zM7.187 1.25v-7.89h-.625v3.124H5.36v-2.953h-.64v7.36h.64v-3.813h1.204V1.25zm0 0"/></symbol><symbol overflow="visible" id="z"><path d="M4.156-6.078v-.516H1.61v.516zm1.157 1.187v-.515H.5v.515zM8.03-3.828v-.563H6.875v-2.25h-.64v5.047h.64v-2.234zM2.906-1.844c.633 0 1.13-.125 1.485-.375.363-.246.546-.554.546-.922 0-.363-.18-.664-.53-.906-.356-.246-.856-.375-1.5-.375-.626 0-1.122.129-1.485.375-.367.242-.547.543-.547.906 0 .368.18.676.547.922.363.25.86.375 1.484.375zM6.875 1.25v-2.344H1.406v.532h4.828V1.25zM4.25-3.14c0 .23-.117.417-.344.562-.23.148-.566.219-1 .219-.43 0-.761-.07-1-.22-.23-.144-.343-.331-.343-.562 0-.214.113-.398.343-.546.239-.153.57-.235 1-.235.434 0 .77.074 1 .219.227.148.344.336.344.562zm0 0"/></symbol><symbol overflow="visible" id="A"><path d="M6.938-5.688H1.109v.563h5.125c-.011.305-.043.664-.093 1.078-.055.406-.106.8-.157 1.172-.054.375-.105.707-.156.984-.043.274-.07.426-.078.454h.64c0-.008.008-.07.032-.188.02-.121.05-.281.094-.469.027-.183.062-.394.093-.625.04-.238.079-.484.11-.734.05-.395.093-.758.125-1.094.039-.34.07-.723.093-1.14zM7.843.141v-.547H4.78v-2.828h-.656v2.828h-1.36v-2.828h-.64v2.828H.172V.14zm0 0"/></symbol><symbol overflow="visible" id="B"><path d="M7.094-1.734v-4.907h-.64v1.375H4.5v-1h-.64v1.391H1.452v-1.39H.797v3.937H4.5v-.86h1.953v1.454zm.078 1.64c0-.433-.246-.797-.734-1.078-.493-.289-1.2-.437-2.125-.437-.93 0-1.637.148-2.125.437-.493.281-.735.645-.735 1.078 0 .434.242.797.734 1.078.489.278 1.196.422 2.126.422.925 0 1.632-.144 2.125-.422.488-.28.734-.644.734-1.078zm-.719-3.64H4.5v-.985h1.953zm-2.594.843H1.453v-1.437H3.86zM2.141-.109c0-.301.195-.536.593-.704.395-.164.922-.25 1.579-.25.632 0 1.156.09 1.562.266.414.18.625.418.625.719 0 .289-.207.52-.61.687-.406.176-.933.266-1.577.266-.649 0-1.176-.09-1.579-.266-.398-.18-.593-.418-.593-.718zm0 0"/></symbol><symbol overflow="visible" id="C"><path d="M3.172-6.688c-.313 0-.602.043-.86.125-.25.075-.46.18-.624.313a1.243 1.243 0 0 0-.547 1c0 .2.046.387.14.563.09.167.227.32.407.453.164.125.375.23.625.312.246.074.535.11.859.11.308 0 .594-.036.844-.11.246-.082.46-.187.64-.312.176-.133.313-.286.407-.454.09-.175.14-.363.14-.562 0-.184-.05-.367-.14-.547a1.397 1.397 0 0 0-.391-.453 2.048 2.048 0 0 0-.656-.313 2.715 2.715 0 0 0-.844-.125zm4.062 6.22v-6.173h-.656v4.579H4.531v.546h2.047v1.047zm-.953-2.454v-.547c-.105.024-.27.051-.484.078-.211.024-.45.043-.719.063-.262.031-.539.058-.828.078-.293.012-.566.016-.813.016L.454-3.22v.547h2v1.485h.64v-1.5c.321 0 .641-.004.954-.016.308-.008.61-.031.89-.063.278-.02.536-.039.766-.062a7.51 7.51 0 0 0 .578-.094zm1.157 4V.516h-4.97V-.86h-.64v1.937zM3.171-6.156c.465 0 .816.101 1.047.297.226.199.343.402.343.609 0 .21-.117.414-.343.61-.219.187-.567.28-1.032.28-.48 0-.835-.093-1.062-.28-.23-.196-.344-.4-.344-.61 0-.207.114-.41.344-.61.227-.195.578-.296 1.047-.296zm0 0"/></symbol><symbol overflow="visible" id="D"><path d="M5.719-1.922c0-.734-.14-1.453-.922-1.672.687-.219.86-.953.86-1.61C5.656-7.062 4.53-7 3.202-7H1v7h2.266c1.453 0 2.453-.016 2.453-1.922zm-.5-3.328c0 1.5-.813 1.469-2.016 1.469H1.438v-2.797H3.14c1.187 0 2.078-.125 2.078 1.328zm.047 3.36c0 1.562-.797 1.468-2.079 1.468h-1.75V-3.39h1.75c1.344 0 2.079-.046 2.079 1.5zm0 0"/></symbol><symbol overflow="visible" id="E"><path d="M5.719-2.016c0-1.765-1.125-1.765-2.485-1.78-1.093-.017-2.046.093-2.046-1.329 0-1.406.812-1.516 2-1.516 1.078 0 2.046.063 2.046 1.438h.422c0-1.64-1.093-1.86-2.453-1.86C1.75-7.063.75-6.827.75-5.109c0 1.765 1.125 1.718 2.469 1.75 1.203.015 2.047-.079 2.047 1.375C5.266-.578 4.453-.36 3.25-.36c-1.11 0-2.063-.063-2.063-1.422H.75c0 1.64 1.11 1.86 2.469 1.86 1.484 0 2.5-.392 2.5-2.095zm0 0"/></symbol><symbol overflow="visible" id="G"><path d="M5.875-3.5c0-1.547-.094-2.125-.375-2.64C5.11-6.767 4.531-7 3.297-7H1v7h2.297C4.53 0 5.109-.219 5.5-.86c.281-.5.375-1.093.375-2.64zm-.438 0c0 1.516-.109 2.078-.359 2.469-.281.437-.719.61-1.844.61H1.438v-6.157h1.796c1.125 0 1.563.156 1.844.61.25.39.36.952.36 2.468zm0 0"/></symbol><symbol overflow="visible" id="H"><path d="M4.625 0v-2.922c0-1.14.14-2.172-1.875-2.172-1.016 0-2.031.219-2.031 1.453h.406c0-.937.828-1.03 1.547-1.03 1.625 0 1.515.609 1.515 1.702H2.47c-1.156 0-1.875.235-1.875 1.547 0 1.063.562 1.5 1.812 1.5.906 0 1.547-.281 1.813-.86V0zm-.438-2.563c.032 1.391-.14 2.235-1.812 2.235-.984 0-1.344-.328-1.344-1.094 0-1 .532-1.14 1.39-1.14zm0 0"/></symbol><symbol overflow="visible" id="I"><path d="M4.719-2.469c0-1.656-.188-2.625-2.016-2.625C.891-5.094.672-4.14.672-2.5.672-.812.922.078 2.719.078c.984 0 1.922-.281 1.922-1.453h-.407c0 .875-.796 1.016-1.5 1.016-1.515 0-1.625-.72-1.625-2.11zm-.422-.406H1.109c0-1.219.329-1.797 1.594-1.797 1.266 0 1.594.547 1.594 1.797zm0 0"/></symbol><symbol overflow="visible" id="J"><path d="M4.75-.453v-4.563h-.422v.735c-.312-.547-.875-.813-1.719-.813C.766-5.094.672-3.969.672-2.562.672-1 .812.015 2.609.015 3.453.016 4-.266 4.313-.813 4.296-.234 4.39.391 4.14.923c-.25.531-.829.687-1.5.687-.938 0-1.438-.312-1.438-1.015H.781c.016 1.015.735 1.437 1.89 1.437.845 0 1.548-.234 1.86-.937.172-.375.219-.797.219-1.547zm-.422-2.094c0 1.64-.469 2.11-1.766 2.11-1.406 0-1.453-.891-1.453-2.11 0-1.203.047-2.125 1.454-2.125 1.312 0 1.765.516 1.765 2.125zm0 0"/></symbol><symbol overflow="visible" id="K"><path d="M4.594 0v-5.016h-.438v2.235c0 1.14.078 2.437-1.61 2.437-.452 0-.796-.094-1.015-.312-.328-.313-.328-.781-.328-1.766v-2.594H.766v2.672c0 .953-.016 1.547.421 2 .266.281.704.422 1.36.422.64 0 1.281-.187 1.64-.828V0zm0 0"/></symbol><symbol overflow="visible" id="L"><path d="M5.672-3.516V-7h-.453v3.484c0 1.36.015 1.985-.219 2.422-.25.453-.766.735-1.703.735-.938 0-1.469-.282-1.719-.735-.234-.422-.187-1.062-.187-2.422V-7H.937v3.484c0 .579-.046 1.875.157 2.422C1.39-.297 2.14.078 3.297.078c1.062 0 1.687-.312 2.047-.906.375-.594.328-1.672.328-2.688zm0 0"/></symbol><symbol overflow="visible" id="M"><path d="M4.672 0v-2.672c0-.953.031-1.547-.406-2-.266-.281-.704-.422-1.36-.422-.64 0-1.297.188-1.64.844v-.766H.859V0h.438v-2.219c0-1.156-.078-2.453 1.61-2.453.452 0 .796.094 1.015.313.328.312.312.78.312 1.765V0zm0 0"/></symbol><symbol overflow="visible" id="N"><path d="M1.406-6.734c0-.235-.11-.329-.328-.329-.219 0-.328.094-.328.329 0 .218.11.343.328.343.219 0 .328-.125.328-.343zM1.296 0v-5.016H.86V0zm0 0"/></symbol><symbol overflow="visible" id="O"><path d="M4.438-5.016h-.454l-1.64 4.5-1.672-4.5H.219L2.079 0h.5zm0 0"/></symbol><symbol overflow="visible" id="P"><path d="M4.281-3.656c0-1.016-.562-1.438-1.5-1.438-.578 0-1.156.157-1.515.813v-.735H.859V0h.438v-2.172c0-1.125-.094-2.5 1.437-2.5.72 0 1.141.219 1.141 1.016zm0 0"/></symbol><symbol overflow="visible" id="Q"><path d="M4.484-1.422c0-1.5-1.093-1.234-2.406-1.375-.719-.078-.969-.172-.953-.937 0-.688.422-.938 1.547-.938 1.078 0 1.39.313 1.39 1.016h.407c0-.453-.11-.797-.313-1.016-.281-.297-.765-.422-1.484-.422C1.312-5.109.687-4.75.687-3.656c0 1.484 1.016 1.234 2.36 1.36.812.077 1 .25 1 .905 0 .766-.453 1.047-1.563 1.047-1.125 0-1.468-.25-1.468-1.031H.609C.61-.281 1.156.063 2.484.078c1.344 0 2-.406 2-1.5zm0 0"/></symbol><symbol overflow="visible" id="R"><path d="M4.188-1.375H3.78c0 .75-.36 1.031-1.14 1.031-.75 0-1.11-.219-1.11-1.031v-3.234h2.25v-.407h-2.25V-7h-.437v1.984H.266v.407h.828v3.234c0 1.078.531 1.453 1.531 1.453.969 0 1.563-.39 1.563-1.453zm0 0"/></symbol><symbol overflow="visible" id="S"><path d="M4.36-5.016h-.47L2.376-.578.797-5.016H.328l1.813 5L1.406 2h.438zm0 0"/></symbol><symbol overflow="visible" id="T"><path d="M1.281.156v-.781H.86v.781c0 .438-.015.656-.343.969l-.188.203.266.281.265-.234c.36-.328.422-.625.422-1.219zm0 0"/></symbol><symbol overflow="visible" id="U"><path d="M5.578 0l-3.75-3.516L5.562-7h-.625l-3.5 3.313V-7H1v7h.438v-3.297L4.905 0zm0 0"/></symbol><symbol overflow="visible" id="V"><path d="M4.844-2.5c0-1.5-.14-2.594-2.094-2.594C.797-5.094.672-4 .672-2.5.672-1 .797.078 2.75.078 4.703.078 4.844-1 4.844-2.5zm-.438 0c0 1.406-.093 2.14-1.656 2.14-1.547 0-1.64-.734-1.64-2.14 0-1.406.093-2.172 1.64-2.172 1.563 0 1.656.766 1.656 2.172zm0 0"/></symbol><symbol overflow="visible" id="W"><path d="M7.328 0v-7h-.61L4.173-.5 1.594-7H1v7h.422v-6.344L3.922 0h.469l2.5-6.344V0zm0 0"/></symbol><symbol overflow="visible" id="X"><path d="M4.938-2.5c0-1.547-.172-2.594-1.954-2.594-.843 0-1.375.266-1.687.813v-3.032H.859V0h.407v-.75c.28.484.796.828 1.718.828C4.766.078 4.938-.938 4.938-2.5zm-.438 0c0 1.203-.047 2.14-1.453 2.14C1.734-.36 1.28-.874 1.28-2.5c0-1.656.453-2.156 1.766-2.156 1.39 0 1.453.922 1.453 2.156zm0 0"/></symbol><symbol overflow="visible" id="Y"><path d="M4.531 0L1.703-2.688 4.5-5.015h-.61L1.298-2.859v-4.454H.859V0h.438v-2.531L3.922 0zm0 0"/></symbol><symbol overflow="visible" id="Z"><path d="M5.625 0v-7h-.438v6.344L1.547-7H1v7h.438v-6.36L5.063 0zm0 0"/></symbol><symbol overflow="visible" id="aa"><path d="M1.297 0v-7.313H.859V0zm0 0"/></symbol><symbol overflow="visible" id="ab"><path d="M5.656-5.11C5.656-7 4.672-7 3.188-7H1v7h.438v-3.234h1.75c1.468 0 2.468-.032 2.468-1.875zm-.453-.015c0 1.547-.812 1.469-2.062 1.469H1.437v-2.922h1.704c1.234 0 2.062-.063 2.062 1.453zm0 0"/></symbol><symbol overflow="visible" id="ac"><path d="M4.672 0v-2.672c0-.953.031-1.531-.406-2-.266-.281-.72-.422-1.36-.422-.64 0-1.265.172-1.61.813v-3.032H.86V0h.438v-2.219c0-1.156-.078-2.453 1.61-2.453.452 0 .796.094 1.015.313.328.312.312.78.312 1.765V0zm0 0"/></symbol><symbol overflow="visible" id="ad"><path d="M1.406-.281c0-.25-.11-.36-.343-.36-.235 0-.344.11-.344.36 0 .234.11.36.344.36.234 0 .343-.126.343-.36zm0 0"/></symbol><symbol overflow="visible" id="an"><path d="M4.297-6.219c0-.875-.75-1.156-1.61-1.156-.546 0-.984.094-1.28.39-.25.25-.345.579-.345 1.048v.921H.25v.407h.813V0H1.5v-4.61h2.188v-.406H1.5v-.921c0-.844.469-1.016 1.203-1.016.516 0 1.188.094 1.188.734zm0 0"/></symbol><symbol overflow="visible" id="ao"><path d="M7.438 0v-3.031c0-.781.125-2.063-1.594-2.063-.61 0-1.282.219-1.594.907-.203-.704-.813-.907-1.469-.907-.61 0-1.219.203-1.515.797v-.719H.859V0h.438v-2.203c0-1.125-.094-2.469 1.437-2.469 1.125 0 1.188.61 1.188 1.625V0h.437v-2.203c0-1.188-.046-2.453 1.454-2.453 1.14 0 1.187.593 1.187 1.61V0zm0 0"/></symbol><symbol overflow="visible" id="ap"><path d="M4.766 0v-7.313h-.438v3.032c-.328-.547-.844-.813-1.703-.813C.828-5.094.672-4.016.672-2.5.672-.937.828.078 2.625.078c.844 0 1.406-.281 1.719-.828V0zm-.438-2.5c0 1.656-.437 2.14-1.75 2.14C1.156-.36 1.11-1.28 1.11-2.5c0-1.25.079-2.156 1.47-2.156 1.312 0 1.75.5 1.75 2.156zm0 0"/></symbol><symbol overflow="visible" id="aq"><path d="M4.656-1.375h-.422c0 .89-.78 1.016-1.484 1.016-1.563 0-1.64-.766-1.64-2.157 0-1.406.077-2.156 1.64-2.156.703 0 1.484.156 1.484 1.031h.422c0-1.171-.937-1.453-1.922-1.453C.922-5.094.672-4.187.672-2.5.672-.812.906.078 2.734.078c.985 0 1.922-.266 1.922-1.453zm0 0"/></symbol><symbol overflow="visible" id="ar"><path d="M5.656 0v-1.61c0-.671.11-1.687-.875-1.937.703-.203.875-.86.875-1.562C5.656-7.063 4.61-7 3.188-7H1v7h.438v-3.328H3.14c1.921 0 2.078.125 2.078 1.75V0zM5.22-5.14c0 1.5-.813 1.39-2.016 1.39H1.438v-2.828H3.14c1.218 0 2.078-.078 2.078 1.437zm0 0"/></symbol><symbol overflow="visible" id="as"><path d="M1.438 0v-7H1v7zm0 0"/></symbol><symbol overflow="visible" id="at"><path d="M5.719-1.781h-.422C5.297-.72 4.859-.36 3.344-.36c-2.11 0-2.063-1.079-2.063-3.125 0-2.079-.047-3.157 2.063-3.157 1.515 0 1.953.36 1.953 1.438h.422c0-1.375-.657-1.86-2.297-1.86C.828-7.063.828-5.734.828-3.483c0 2.234 0 3.562 2.594 3.562 1.64 0 2.297-.5 2.297-1.86zm0 0"/></symbol><symbol overflow="visible" id="au"><path d="M5.734-3.484v-.422H5.11v-.735h-.406v.735H2.781c-1.031 0-1.562-.188-1.562-1.344 0-1.078.343-1.39 1.562-1.39 1.078 0 1.516.265 1.547 1.109h.422c-.031-1.157-.672-1.532-1.984-1.532-1.438 0-1.97.47-1.97 1.782 0 .843.157 1.343.97 1.578-.72.187-1.032.734-1.032 1.797 0 1.61.704 1.984 2.188 1.984.828 0 1.406-.156 1.734-.515.407-.407.469-.985.469-1.86v-1.187zm-1.03 1.187c0 .781-.048 1.266-.345 1.563-.234.234-.671.375-1.437.375-1.203 0-1.766-.188-1.766-1.516 0-1.313.407-1.61 1.625-1.61h1.922zm0 0"/></symbol><symbol overflow="visible" id="av"><path d="M5.828 0v-3.813H3.234v.422h2.172c0 .641.063 1.75-.312 2.329-.313.453-.907.703-1.766.703-2.156 0-2.047-1.079-2.047-3.125 0-2.079-.078-3.157 2.078-3.157 1.5 0 2.032.36 2.047 1.438h.422c0-1.375-.766-1.86-2.375-1.86C.828-7.063.828-5.766.828-3.483.828-1.344.781.078 3.313.078c.984 0 1.734-.312 2.109-1.031V0zm0 0"/></symbol><symbol overflow="visible" id="aw"><path d="M5.14-6.578V-7H.314v.422H2.5V0h.453v-6.578zm0 0"/></symbol><symbol overflow="visible" id="ax"><path d="M4.938-2.5c0-1.563-.172-2.594-1.954-2.594-.843 0-1.406.297-1.718.844v-.766H.859V2h.438V-.734c.312.546.844.812 1.687.812C4.781.078 4.938-.953 4.938-2.5zM4.5-2.516c0 1.204-.047 2.157-1.453 2.157-1.313 0-1.766-.5-1.766-2.157 0-1.64.453-2.14 1.766-2.14 1.406 0 1.453.937 1.453 2.14zm0 0"/></symbol><symbol overflow="visible" id="ay"><path d="M5.64 0v-7h-.437v3.188H1.437V-7H1v7h.438v-3.39h3.765V0zm0 0"/></symbol><symbol overflow="visible" id="aB"><path d="M5.031 0v-.422H1.438V-7H1v7zm0 0"/></symbol><symbol overflow="visible" id="aC"><path d="M5.078 0v-.422H1.453V-3.39H4.97v-.421H1.453v-2.766h3.625V-7H1v7zm0 0"/></symbol><symbol overflow="visible" id="aD"><path d="M4.422-2.156V-7h-.453v4.86c0 1.187-.219 1.78-1.531 1.78C1.359-.36.843-.624.843-1.78H.422c0 1.422.687 1.86 2.015 1.86 1.594 0 1.985-.782 1.985-2.235zm0 0"/></symbol><symbol overflow="visible" id="aE"><path d="M6.75-5.016h-.438L5.063-.578l-1.28-4.438h-.5L2-.578.75-5.016H.297L1.734 0h.516l1.281-4.453L4.797 0h.516zm0 0"/></symbol><symbol overflow="visible" id="aF"><path d="M5.188-7h-.485L2.672-3.516.609-7h-.5l2.313 3.922V0h.437v-3.078zm0 0"/></symbol><symbol overflow="visible" id="aG"><path d="M8.36-7h-.438L6.406-.656 4.703-7h-.531L2.469-.656.969-7H.516l1.656 7h.547l1.719-6.39L6.14 0h.53zm0 0"/></symbol><symbol overflow="visible" id="aH"><path d="M3.922-2.313v-.406H.953v.406zm0 0"/></symbol><symbol overflow="visible" id="aI"><path d="M4.328 0v-.422h-1.64V-7h-.422L.562-5.437l.282.296L2.25-6.437v6.015H.594V0zm0 0"/></symbol><symbol overflow="visible" id="aK"><path d="M4.875-5.125c0-.75-.156-1.234-.516-1.531-.328-.282-.875-.407-1.515-.407-1.281 0-1.985.36-1.985 1.47h.438c0-.798.5-1.048 1.578-1.048.766 0 1.219.188 1.406.594.11.234.157.531.157.922 0 .516-.11.844-.344 1.094-.375.437-1.438.672-2.032.906C1.345-2.844.86-2.437.86-1.531V0h4v-.422H1.297v-.906c0-.75.125-1.063.875-1.39.547-.235 1.719-.485 2.219-.97.343-.343.484-.796.484-1.437zm0 0"/></symbol><symbol overflow="visible" id="aL"><path d="M4.922-3.484c0-1.766-.047-2.235-.25-2.657-.313-.64-.89-.921-1.828-.921-.938 0-1.516.28-1.813.921-.203.422-.25.891-.25 2.657 0 1.53.031 2.03.172 2.421.25.782.875 1.141 1.89 1.141 1.032 0 1.657-.36 1.923-1.14.125-.391.156-.891.156-2.422zm-.438 0c0 1.53-.046 2.062-.203 2.421-.203.485-.61.72-1.437.72-.813 0-1.219-.235-1.438-.72-.14-.359-.187-.89-.187-2.421 0-1.344.047-1.938.14-2.266.188-.61.594-.89 1.485-.89.906 0 1.312.28 1.5.89.093.328.14.922.14 2.266zm0 0"/></symbol><symbol overflow="visible" id="aM"><path d="M5.906 0L3.313-7h-.47L.267 0h.453L1.5-2.14h3.14L5.439 0zM4.484-2.531H1.656l1.422-3.922zm0 0"/></symbol><symbol overflow="visible" id="aN"><path d="M4.875-3.797c0-1-.063-1.719-.203-2.125-.266-.75-.953-1.14-1.89-1.14-1.407 0-2.016.671-2.016 2.203 0 1.625.53 2.25 1.968 2.25.86 0 1.407-.36 1.704-.907 0 .625 0 1.688-.172 2.282-.172.609-.61.89-1.532.89-.968 0-1.437-.344-1.437-1.062H.859C.86-.36 1.563.078 2.75.078c1.172 0 1.844-.422 2-1.406.094-.5.125-1.36.125-2.469zm-.484-1.015c0 1.203-.563 1.765-1.704 1.765-1.109 0-1.5-.437-1.5-1.812 0-1.313.454-1.782 1.594-1.782 1.11 0 1.61.532 1.61 1.829zm0 0"/></symbol><symbol overflow="visible" id="aO"><path d="M4.86-7.922h-.423L.157.875h.437zm0 0"/></symbol><symbol overflow="visible" id="aP"><path d="M4.36 0L2.577-2.547l1.75-2.469h-.516L2.329-2.89.86-5.016H.33L2.062-2.53.296 0h.516l1.5-2.188L3.827 0zm0 0"/></symbol><symbol overflow="visible" id="aQ"><path d="M4.828-1.906c0-.953-.234-1.532-1-1.735.766-.234.938-.875.938-1.64 0-1.313-.563-1.782-2.016-1.782-1.313 0-2.016.36-2.016 1.47h.422c0-.782.5-1.048 1.594-1.048 1.219 0 1.578.313 1.578 1.391 0 1.188-.516 1.406-1.578 1.406h-.953v.422h.953c.625 0 .969.063 1.234.266.282.219.407.594.407 1.281 0 1.25-.516 1.531-1.672 1.531-1.078 0-1.563-.281-1.563-1.078H.734c0 1.172.797 1.5 1.985 1.5 1.406 0 2.11-.469 2.11-1.984zm0 0"/></symbol><symbol overflow="visible" id="aR"><path d="M4.906-2.14c0-1.61-.547-2.235-1.984-2.235-.86 0-1.39.344-1.688.906 0-.64-.015-1.703.157-2.281.187-.625.609-.89 1.53-.89.97 0 1.454.327 1.454 1.046h.422c0-1.047-.703-1.468-1.875-1.468-1.188 0-1.844.421-2 1.39-.094.516-.14 1.36-.14 2.469 0 1 .077 1.719.218 2.14.266.735.938 1.141 1.89 1.141 1.407 0 2.016-.687 2.016-2.219zm-.437.015c0 1.297-.438 1.766-1.594 1.766-1.11 0-1.61-.532-1.61-1.829 0-1.187.563-1.765 1.72-1.765 1.109 0 1.484.437 1.484 1.828zm0 0"/></symbol><symbol overflow="visible" id="ae"><path d="M6.438-8.672v1.063h-4.25v2.796h3.984v1.063H2.188v3.016h4.328V.328H1v-9zm0 0"/></symbol><symbol overflow="visible" id="af"><path d="M5.125-.531a1.53 1.53 0 0 1-.797.734 2.888 2.888 0 0 1-1.125.219c-.844 0-1.488-.254-1.922-.75C.844-.836.625-1.555.625-2.484v-1.22c0-.444.063-.85.188-1.218.12-.371.3-.687.53-.937.227-.246.505-.438.829-.563.32-.133.68-.203 1.078-.203.508 0 .91.09 1.203.266.29.18.504.367.64.562v-3.312h1.173V.328H5.14v-.86zm-.016-3.594c0-.164-.043-.336-.125-.516a1.535 1.535 0 0 0-.359-.468 2.03 2.03 0 0 0-.563-.329 2.003 2.003 0 0 0-.703-.125c-.5 0-.894.18-1.171.532-.274.355-.407.863-.407 1.515v.829c0 .656.14 1.164.422 1.515.277.356.664.531 1.156.531.246 0 .477-.035.688-.109.207-.082.39-.195.547-.344.152-.152.281-.336.375-.547.09-.207.14-.445.14-.718zm0 0"/></symbol><symbol overflow="visible" id="ag"><path d="M.844-6.5h1.172v4.234c0 .586.113 1.008.343 1.266.227.25.586.375 1.079.375.195 0 .394-.035.593-.11.196-.07.375-.175.532-.312.152-.133.28-.305.375-.516.09-.207.14-.44.14-.703V-6.5h1.188V.328H5.125v-.86h-.016c-.199.313-.46.552-.78.72-.325.175-.724.265-1.188.265-.325 0-.63-.055-.907-.156a1.969 1.969 0 0 1-.718-.438 2.19 2.19 0 0 1-.5-.765c-.118-.301-.172-.66-.172-1.078zm0 0"/></symbol><symbol overflow="visible" id="ah"><path d="M3.469-6.625c.539 0 .988.074 1.344.219.351.136.664.316.937.531l-.563.906a3.097 3.097 0 0 0-.843-.468 2.922 2.922 0 0 0-.875-.125c-.219 0-.434.042-.64.125a1.38 1.38 0 0 0-.532.359 1.75 1.75 0 0 0-.36.61c-.093.25-.14.55-.14.89v.875c0 .367.047.68.14.937.09.262.22.477.375.641.153.156.333.277.532.36.207.074.422.109.64.109.434 0 .797-.055 1.079-.172.289-.121.554-.274.796-.453l.563.922c-.242.199-.559.375-.953.53-.387.165-.887.25-1.5.25-.918 0-1.63-.273-2.125-.812C.852-.94.609-1.71.609-2.703v-.86c0-.488.067-.921.204-1.296.132-.383.32-.707.562-.97.246-.257.55-.456.906-.593a3.35 3.35 0 0 1 1.188-.203zm0 0"/></symbol><symbol overflow="visible" id="ai"><path d="M2.781.422c-.668 0-1.199-.168-1.594-.5C.801-.418.61-.895.61-1.5v-.328c0-.582.188-1.055.563-1.422.383-.371 1-.563 1.844-.563h1.687v-.39c0-.457-.113-.797-.328-1.016-.21-.226-.559-.343-1.047-.343-.387 0-.726.066-1.015.187a5.978 5.978 0 0 0-.891.5l-.578-.89c.32-.239.687-.442 1.094-.61.402-.164.875-.25 1.406-.25.37 0 .71.05 1.015.14.301.094.563.239.782.423.226.187.406.417.53.687.122.273.188.582.188.922V.328H4.734V-.5H4.72a1.164 1.164 0 0 1-.266.344 1.841 1.841 0 0 1-.344.265c-.18.102-.37.18-.578.235-.21.05-.46.078-.75.078zm1.922-3.203H3.047c-.469 0-.805.097-1 .281-.2.18-.297.43-.297.75v.172c0 .336.113.582.344.734.226.149.5.219.812.219.29 0 .54-.035.75-.11.215-.07.414-.175.594-.312a.994.994 0 0 0 .344-.422c.07-.164.11-.379.11-.64zm0 0"/></symbol><symbol overflow="visible" id="aj"><path d="M1.36-5.469H.265V-6.5h1.093v-1.734h1.172V-6.5h1.75v1.031h-1.75v3.89c0 .212.02.38.063.5.039.126.097.227.172.298.07.062.16.113.265.14.114.024.227.032.344.032.29 0 .582-.055.875-.172l.188.984a4.19 4.19 0 0 1-.563.14 2.98 2.98 0 0 1-.672.079c-.637 0-1.105-.164-1.406-.484-.293-.32-.438-.829-.438-1.516zm0 0"/></symbol><symbol overflow="visible" id="ak"><path d="M2.156-6.5V.328H.984V-6.5zm.031-2.453v1.328H.938v-1.328zm0 0"/></symbol><symbol overflow="visible" id="al"><path d="M3.563-6.625c.902 0 1.624.273 2.156.813.527.542.797 1.308.797 2.296v.829c0 .992-.27 1.757-.797 2.296-.532.54-1.254.813-2.157.813-.917 0-1.644-.274-2.171-.813C.867-.93.609-1.695.609-2.687v-.829c0-.996.258-1.765.782-2.296.527-.54 1.254-.813 2.171-.813zm0 5.984c.519 0 .94-.175 1.265-.53.332-.352.5-.891.5-1.61v-.64c0-.716-.168-1.255-.5-1.61-.324-.352-.746-.532-1.266-.532-.53 0-.96.18-1.28.532-.325.355-.485.894-.485 1.61v.64c0 .719.16 1.258.484 1.61.32.355.75.53 1.281.53zm0 0"/></symbol><symbol overflow="visible" id="am"><path d="M6.406.328H5.234v-4.25c0-.57-.12-.988-.359-1.25-.23-.258-.59-.39-1.078-.39-.211 0-.414.039-.61.109a1.636 1.636 0 0 0-.922.828c-.093.21-.14.45-.14.719V.328H.937V-6.5h1.141v.86h.016c.195-.32.46-.567.797-.735.332-.164.726-.25 1.187-.25.32 0 .625.055.906.156.278.094.524.242.735.438.215.199.383.457.5.765.12.305.187.664.187 1.079zm0 0"/></symbol><symbol overflow="visible" id="az"><path d="M1-8.672h3.11c.495 0 .93.067 1.296.188.364.125.66.304.89.53.24.231.415.509.532.829.121.313.188.652.188 1.016v.265c0 .367-.067.711-.188 1.032a2.337 2.337 0 0 1-.562.843 2.637 2.637 0 0 1-.907.578c-.355.137-.773.204-1.25.204H2.188V.328H1zm1.188 1.063v3.359h1.718c1.258 0 1.89-.54 1.89-1.625v-.219c0-.508-.151-.89-.452-1.14-.305-.246-.739-.375-1.297-.375zm0 0"/></symbol><symbol overflow="visible" id="aA"><path d="M3-.625c.434 0 .773-.078 1.016-.234a.738.738 0 0 0 .375-.657v-.093a.941.941 0 0 0-.063-.36.602.602 0 0 0-.234-.265 2.26 2.26 0 0 0-.469-.204 11.98 11.98 0 0 0-.75-.203 5.824 5.824 0 0 1-.969-.265 3.106 3.106 0 0 1-.718-.39 1.5 1.5 0 0 1-.454-.563 1.914 1.914 0 0 1-.14-.766v-.156c0-.227.047-.457.14-.688.102-.226.254-.426.454-.593.195-.165.453-.301.765-.407.309-.101.68-.156 1.11-.156.445 0 .867.055 1.265.156.395.106.754.278 1.078.516l-.515.906a2.57 2.57 0 0 0-.782-.39 3.051 3.051 0 0 0-.968-.157c-.493 0-.848.082-1.063.235a.709.709 0 0 0-.312.593v.11c0 .273.109.472.328.593.215.125.586.243 1.11.344a6.41 6.41 0 0 1 1.046.281c.3.106.547.243.734.407.196.156.344.351.438.578.09.219.14.492.14.812v.157c0 .261-.058.511-.171.75a1.9 1.9 0 0 1-.5.609 2.572 2.572 0 0 1-.797.39 3.385 3.385 0 0 1-1.047.157A4.763 4.763 0 0 1 1.53.188C1.082.039.7-.156.391-.406l.546-.938c.29.211.602.383.938.516.34.137.719.203 1.125.203zm0 0"/></symbol><symbol overflow="visible" id="aS"><path d="M2.125-5.719c.207-.34.484-.578.828-.703.34-.133.695-.203 1.063-.203.832 0 1.468.254 1.906.75.445.5.672 1.223.672 2.156v1.203c0 .47-.067.887-.188 1.25a2.433 2.433 0 0 1-.547.922 2.2 2.2 0 0 1-.828.563c-.324.133-.68.203-1.062.203-.5 0-.903-.09-1.203-.266a1.843 1.843 0 0 1-.657-.625h-.03v.797H.936v-9.437h1.188zm-.016 3.61c0 .18.04.355.125.53.082.18.204.337.36.47.152.136.336.254.547.343.214.086.453.125.703.125.496 0 .89-.175 1.172-.53.277-.352.421-.86.421-1.516v-.829c0-.652-.144-1.16-.421-1.515-.282-.352-.676-.532-1.172-.532-.242 0-.465.043-.672.125a1.604 1.604 0 0 0-.922.89c-.094.212-.14.45-.14.72zm0 0"/></symbol><symbol overflow="visible" id="aT"><path d="M2.125-9.11V.329H.937v-9.437zm0 0"/></symbol><symbol overflow="visible" id="aV"><path d="M1.453-1.594h1.375v1.438H1.453zm0-5.578h1.375v1.438H1.453zm0 0"/></symbol><symbol overflow="visible" id="aW"><path d="M2.14-3.422c0 .95.118 1.895.36 2.828.246.926.68 1.832 1.297 2.719h-1.11A7.412 7.412 0 0 1 1.345-.391C1.05-1.336.906-2.367.906-3.484v-.5c0-1.114.145-2.133.438-3.063a7.412 7.412 0 0 1 1.343-2.516h1.11a8.52 8.52 0 0 0-1.281 2.626 10.96 10.96 0 0 0-.375 2.89zm0 0"/></symbol><symbol overflow="visible" id="aX"><path d="M2.188.328H1v-9h3.156c.434 0 .828.067 1.172.188.352.125.645.3.875.515.238.211.422.465.547.766.121.305.188.633.188.984v.328c0 .512-.133.965-.391 1.36-.25.386-.613.676-1.078.86l1.734 4H5.906L4.328-3.439h-2.14zm0-4.812h1.671c.676 0 1.157-.13 1.438-.391.289-.258.437-.613.437-1.063v-.25c0-.433-.144-.78-.421-1.03-.282-.259-.727-.391-1.329-.391H2.188zm0 0"/></symbol><symbol overflow="visible" id="aY"><path d="M3.453-5.594c-.242 0-.465.051-.672.14-.21.087-.394.208-.547.36a1.504 1.504 0 0 0-.343.563c-.086.218-.125.46-.125.718v.172h3.312v-.234c0-.52-.148-.938-.437-1.25-.282-.309-.68-.469-1.188-.469zm2.61 5.266c-.293.21-.645.383-1.047.531-.399.145-.899.219-1.5.219-.418 0-.805-.067-1.157-.188a2.547 2.547 0 0 1-.921-.546 2.602 2.602 0 0 1-.61-.985C.68-1.69.61-2.164.61-2.719V-3.5c0-.508.067-.957.204-1.344.144-.394.343-.722.593-.984a2.36 2.36 0 0 1 .907-.594 3.12 3.12 0 0 1 1.14-.203c.84 0 1.516.27 2.016.797.496.531.75 1.285.75 2.25v.922H1.766v.047c0 .648.164 1.144.5 1.484.332.336.765.5 1.296.5.434 0 .805-.05 1.11-.156.308-.114.61-.266.89-.453zm0 0"/></symbol><symbol overflow="visible" id="aZ"><path d="M6.766-2.39c0 .335-.059.675-.172 1.015a2.525 2.525 0 0 1-.532.922 2.641 2.641 0 0 1-.937.656C4.738.38 4.273.47 3.735.47a5.13 5.13 0 0 1-1.641-.25 4.234 4.234 0 0 1-1.328-.75l.593-.985c.414.336.817.567 1.204.688.382.117.78.172 1.187.172.309 0 .582-.051.813-.156.238-.102.43-.235.578-.391.144-.164.25-.352.312-.563.07-.207.11-.414.11-.625v-.14c0-.602-.153-1.051-.454-1.344-.304-.29-.738-.438-1.296-.438-.376 0-.711.075-1 .22-.282.136-.52.3-.704.484h-.921l.28-5.063h4.735v1.063h-3.64l-.141 2.796c.195-.144.445-.269.75-.375.3-.113.633-.171 1-.171.402 0 .77.074 1.094.218.32.149.593.352.812.61.227.25.399.55.516.89.113.336.172.692.172 1.063zm0 0"/></symbol><symbol overflow="visible" id="ba"><path d="M4.39-3.297V.328H3.204v-3.625L.188-8.672H1.53l2.282 4.203 2.234-4.203h1.328zm0 0"/></symbol><symbol overflow="visible" id="bb"><path d="M4.547-5.313a1.762 1.762 0 0 0-.36-.125 2.307 2.307 0 0 0-.453-.046c-.21 0-.414.05-.609.14-.2.086-.371.211-.516.375-.148.157-.27.352-.359.578a1.999 1.999 0 0 0-.125.735V.328H.937V-6.5h1.141v1.078h.016c.195-.383.445-.68.75-.89.308-.208.71-.313 1.203-.313.289 0 .578.05.86.14zm0 0"/></symbol><symbol overflow="visible" id="bc"><path d="M1.938-4.047a10.65 10.65 0 0 0-.391-2.89C1.297-7.853.87-8.727.28-9.563h1.11a7.55 7.55 0 0 1 1.343 2.515c.29.93.438 1.95.438 3.063v.5c0 1.117-.149 2.148-.438 3.093a7.55 7.55 0 0 1-1.343 2.516H.28C.895 1.238 1.321.332 1.562-.594c.247-.933.375-1.879.375-2.828zm0 0"/></symbol></defs><g fill="#231f20"><use xlink:href="#a" x="74.885" y="47.763"/><use xlink:href="#b" x="82.886" y="47.763"/><use xlink:href="#c" x="85.492" y="47.763"/><use xlink:href="#d" x="88.099" y="47.763"/><use xlink:href="#e" x="96.1" y="47.763"/><use xlink:href="#f" x="104.1" y="47.763"/><use xlink:href="#g" x="112.1" y="47.763"/><use xlink:href="#c" x="120.1" y="47.763"/><use xlink:href="#h" x="122.707" y="47.763"/><use xlink:href="#i" x="130.707" y="47.763"/><use xlink:href="#c" x="138.708" y="47.763"/><use xlink:href="#j" x="141.315" y="47.763"/><use xlink:href="#k" x="149.315" y="47.763"/><use xlink:href="#c" x="157.315" y="47.763"/><use xlink:href="#l" x="159.922" y="47.763"/><use xlink:href="#m" x="167.922" y="47.763"/></g><g fill="#393536"><use xlink:href="#n" x="42.468" y="48.426"/><use xlink:href="#o" x="48.041" y="48.426"/><use xlink:href="#p" x="53.614" y="48.426"/></g><g fill="#33459a"><use xlink:href="#q" x="206.678" y="250.25"/><use xlink:href="#r" x="220.193" y="250.25"/><use xlink:href="#s" x="225.134" y="250.25"/><use xlink:href="#r" x="238.649" y="250.25"/><use xlink:href="#t" x="243.59" y="250.25"/><use xlink:href="#r" x="257.105" y="250.25"/></g><g fill="#33459a"><use xlink:href="#u" x="262.045" y="249.351"/><use xlink:href="#v" x="272.857" y="249.351"/></g><g fill="#231f20"><use xlink:href="#w" x="206.678" y="270.763"/><use xlink:href="#x" x="214.525" y="270.763"/><use xlink:href="#y" x="222.373" y="270.763"/><use xlink:href="#z" x="230.22" y="270.763"/><use xlink:href="#A" x="238.068" y="270.763"/><use xlink:href="#B" x="245.915" y="270.763"/><use xlink:href="#C" x="253.762" y="270.763"/></g><g fill="#231f20"><use xlink:href="#D" x="77.858" y="353.065"/><use xlink:href="#E" x="84.226" y="353.065"/><use xlink:href="#F" x="90.492" y="353.065"/><use xlink:href="#G" x="93.036" y="353.065"/><use xlink:href="#H" x="99.546" y="353.065"/><use xlink:href="#I" x="104.744" y="353.065"/><use xlink:href="#J" x="109.932" y="353.065"/><use xlink:href="#K" x="115.334" y="353.065"/><use xlink:href="#F" x="120.583" y="353.065"/><use xlink:href="#L" x="123.126" y="353.065"/><use xlink:href="#M" x="129.525" y="353.065"/><use xlink:href="#N" x="134.774" y="353.065"/><use xlink:href="#O" x="136.717" y="353.065"/><use xlink:href="#I" x="141.162" y="353.065"/><use xlink:href="#P" x="146.35" y="353.065"/><use xlink:href="#Q" x="150.552" y="353.065"/><use xlink:href="#N" x="155.445" y="353.065"/><use xlink:href="#R" x="157.388" y="353.065"/><use xlink:href="#S" x="161.63" y="353.065"/><use xlink:href="#T" x="166.055" y="353.065"/><use xlink:href="#F" x="167.967" y="353.065"/><use xlink:href="#U" x="170.51" y="353.065"/><use xlink:href="#V" x="176.126" y="353.065"/><use xlink:href="#P" x="181.436" y="353.065"/><use xlink:href="#I" x="185.637" y="353.065"/><use xlink:href="#H" x="190.825" y="353.065"/></g><g fill="#231f20"><use xlink:href="#W" x="77.858" y="372.884"/><use xlink:href="#E" x="85.986" y="372.884"/><use xlink:href="#F" x="92.252" y="372.884"/><use xlink:href="#U" x="94.795" y="372.884"/><use xlink:href="#S" x="100.411" y="372.884"/><use xlink:href="#K" x="104.836" y="372.884"/><use xlink:href="#M" x="110.085" y="372.884"/><use xlink:href="#J" x="115.334" y="372.884"/><use xlink:href="#X" x="120.736" y="372.884"/><use xlink:href="#K" x="126.147" y="372.884"/><use xlink:href="#Y" x="131.397" y="372.884"/><use xlink:href="#F" x="135.913" y="372.884"/><use xlink:href="#Z" x="138.456" y="372.884"/><use xlink:href="#H" x="144.875" y="372.884"/><use xlink:href="#R" x="150.073" y="372.884"/><use xlink:href="#N" x="154.315" y="372.884"/><use xlink:href="#V" x="156.258" y="372.884"/><use xlink:href="#M" x="161.569" y="372.884"/><use xlink:href="#H" x="166.818" y="372.884"/><use xlink:href="#aa" x="172.016" y="372.884"/><use xlink:href="#F" x="173.959" y="372.884"/><use xlink:href="#L" x="176.502" y="372.884"/><use xlink:href="#M" x="182.901" y="372.884"/><use xlink:href="#N" x="188.15" y="372.884"/><use xlink:href="#O" x="190.093" y="372.884"/><use xlink:href="#I" x="194.538" y="372.884"/><use xlink:href="#P" x="199.726" y="372.884"/><use xlink:href="#Q" x="203.927" y="372.884"/><use xlink:href="#N" x="208.82" y="372.884"/><use xlink:href="#R" x="210.763" y="372.884"/><use xlink:href="#S" x="215.005" y="372.884"/><use xlink:href="#T" x="219.43" y="372.884"/><use xlink:href="#F" x="221.343" y="372.884"/><use xlink:href="#U" x="223.886" y="372.884"/><use xlink:href="#V" x="229.501" y="372.884"/><use xlink:href="#P" x="234.811" y="372.884"/><use xlink:href="#I" x="239.013" y="372.884"/><use xlink:href="#H" x="244.201" y="372.884"/></g><g fill="#231f20"><use xlink:href="#ab" x="77.858" y="395.533"/><use xlink:href="#ac" x="83.778" y="395.533"/><use xlink:href="#ad" x="89.028" y="395.533"/><use xlink:href="#G" x="90.94" y="395.533"/><use xlink:href="#ad" x="97.45" y="395.533"/><use xlink:href="#F" x="99.363" y="395.533"/><use xlink:href="#E" x="101.906" y="395.533"/><use xlink:href="#I" x="108.172" y="395.533"/><use xlink:href="#V" x="113.36" y="395.533"/><use xlink:href="#K" x="118.671" y="395.533"/><use xlink:href="#aa" x="123.92" y="395.533"/><use xlink:href="#F" x="125.863" y="395.533"/><use xlink:href="#Z" x="128.406" y="395.533"/><use xlink:href="#H" x="134.825" y="395.533"/><use xlink:href="#R" x="140.023" y="395.533"/><use xlink:href="#N" x="144.265" y="395.533"/><use xlink:href="#V" x="146.208" y="395.533"/><use xlink:href="#M" x="151.518" y="395.533"/><use xlink:href="#H" x="156.767" y="395.533"/><use xlink:href="#aa" x="161.965" y="395.533"/><use xlink:href="#F" x="163.908" y="395.533"/><use xlink:href="#L" x="166.451" y="395.533"/><use xlink:href="#M" x="172.85" y="395.533"/><use xlink:href="#N" x="178.099" y="395.533"/><use xlink:href="#O" x="180.042" y="395.533"/><use xlink:href="#I" x="184.487" y="395.533"/><use xlink:href="#P" x="189.676" y="395.533"/><use xlink:href="#Q" x="193.877" y="395.533"/><use xlink:href="#N" x="198.77" y="395.533"/><use xlink:href="#R" x="200.713" y="395.533"/><use xlink:href="#S" x="204.955" y="395.533"/><use xlink:href="#T" x="209.38" y="395.533"/><use xlink:href="#F" x="211.292" y="395.533"/><use xlink:href="#U" x="213.836" y="395.533"/><use xlink:href="#V" x="219.451" y="395.533"/><use xlink:href="#P" x="224.761" y="395.533"/><use xlink:href="#I" x="228.962" y="395.533"/><use xlink:href="#H" x="234.15" y="395.533"/></g><g fill="#fff"><use xlink:href="#ae" x="119.052" y="327.353"/><use xlink:href="#af" x="126.052" y="327.353"/><use xlink:href="#ag" x="133.027" y="327.353"/><use xlink:href="#ah" x="139.991" y="327.353"/><use xlink:href="#ai" x="145.913" y="327.353"/><use xlink:href="#aj" x="152.355" y="327.353"/><use xlink:href="#ak" x="156.824" y="327.353"/><use xlink:href="#al" x="159.718" y="327.353"/><use xlink:href="#am" x="166.597" y="327.353"/></g><path d="M76.441 549.113h424.68" fill="none" stroke-width=".299637" stroke="#33459a" stroke-miterlimit="10"/><g fill="#231f20"><use xlink:href="#ab" x="77.858" y="481.831"/><use xlink:href="#P" x="83.778" y="481.831"/><use xlink:href="#V" x="87.98" y="481.831"/><use xlink:href="#an" x="93.29" y="481.831"/><use xlink:href="#I" x="97.491" y="481.831"/><use xlink:href="#Q" x="102.679" y="481.831"/><use xlink:href="#Q" x="107.572" y="481.831"/><use xlink:href="#V" x="112.465" y="481.831"/><use xlink:href="#P" x="117.775" y="481.831"/><use xlink:href="#T" x="121.977" y="481.831"/><use xlink:href="#F" x="123.889" y="481.831"/><use xlink:href="#D" x="126.432" y="481.831"/><use xlink:href="#N" x="132.8" y="481.831"/><use xlink:href="#V" x="134.743" y="481.831"/><use xlink:href="#ao" x="140.053" y="481.831"/><use xlink:href="#I" x="148.059" y="481.831"/><use xlink:href="#ap" x="153.247" y="481.831"/><use xlink:href="#N" x="158.659" y="481.831"/><use xlink:href="#aq" x="160.602" y="481.831"/><use xlink:href="#H" x="165.638" y="481.831"/><use xlink:href="#aa" x="170.836" y="481.831"/><use xlink:href="#F" x="172.779" y="481.831"/><use xlink:href="#ar" x="175.322" y="481.831"/><use xlink:href="#I" x="181.67" y="481.831"/><use xlink:href="#Q" x="186.858" y="481.831"/><use xlink:href="#I" x="191.751" y="481.831"/><use xlink:href="#H" x="196.939" y="481.831"/><use xlink:href="#P" x="202.137" y="481.831"/><use xlink:href="#aq" x="206.338" y="481.831"/><use xlink:href="#ac" x="211.374" y="481.831"/><use xlink:href="#F" x="216.623" y="481.831"/><use xlink:href="#as" x="219.166" y="481.831"/><use xlink:href="#M" x="221.404" y="481.831"/><use xlink:href="#Q" x="226.653" y="481.831"/><use xlink:href="#R" x="231.546" y="481.831"/><use xlink:href="#N" x="235.788" y="481.831"/><use xlink:href="#R" x="237.731" y="481.831"/><use xlink:href="#K" x="241.973" y="481.831"/><use xlink:href="#R" x="247.222" y="481.831"/><use xlink:href="#I" x="251.464" y="481.831"/></g><g fill="#231f20"><use xlink:href="#G" x="77.858" y="501.649"/><use xlink:href="#N" x="84.368" y="501.649"/><use xlink:href="#P" x="86.311" y="501.649"/><use xlink:href="#I" x="90.513" y="501.649"/><use xlink:href="#aq" x="95.701" y="501.649"/><use xlink:href="#R" x="100.736" y="501.649"/><use xlink:href="#V" x="104.978" y="501.649"/><use xlink:href="#P" x="110.288" y="501.649"/><use xlink:href="#T" x="114.49" y="501.649"/><use xlink:href="#F" x="116.402" y="501.649"/><use xlink:href="#at" x="118.945" y="501.649"/><use xlink:href="#I" x="125.201" y="501.649"/><use xlink:href="#M" x="130.389" y="501.649"/><use xlink:href="#R" x="135.639" y="501.649"/><use xlink:href="#I" x="139.881" y="501.649"/><use xlink:href="#P" x="145.069" y="501.649"/><use xlink:href="#F" x="149.27" y="501.649"/><use xlink:href="#an" x="151.813" y="501.649"/><use xlink:href="#V" x="156.014" y="501.649"/><use xlink:href="#P" x="161.324" y="501.649"/><use xlink:href="#F" x="165.526" y="501.649"/><use xlink:href="#at" x="168.069" y="501.649"/><use xlink:href="#I" x="174.325" y="501.649"/><use xlink:href="#aa" x="179.513" y="501.649"/><use xlink:href="#aa" x="181.456" y="501.649"/><use xlink:href="#F" x="183.399" y="501.649"/><use xlink:href="#au" x="185.942" y="501.649"/><use xlink:href="#F" x="191.852" y="501.649"/><use xlink:href="#av" x="194.396" y="501.649"/><use xlink:href="#I" x="200.896" y="501.649"/><use xlink:href="#M" x="206.084" y="501.649"/><use xlink:href="#I" x="211.333" y="501.649"/><use xlink:href="#F" x="216.521" y="501.649"/><use xlink:href="#aw" x="219.064" y="501.649"/><use xlink:href="#ac" x="224.313" y="501.649"/><use xlink:href="#I" x="229.562" y="501.649"/><use xlink:href="#P" x="234.75" y="501.649"/><use xlink:href="#H" x="238.952" y="501.649"/><use xlink:href="#ax" x="244.15" y="501.649"/><use xlink:href="#S" x="249.562" y="501.649"/></g><g fill="#231f20"><use xlink:href="#ay" x="77.858" y="521.468"/><use xlink:href="#I" x="84.297" y="521.468"/><use xlink:href="#H" x="89.485" y="521.468"/><use xlink:href="#ap" x="94.684" y="521.468"/><use xlink:href="#F" x="100.095" y="521.468"/><use xlink:href="#V" x="102.639" y="521.468"/><use xlink:href="#an" x="107.949" y="521.468"/><use xlink:href="#F" x="112.15" y="521.468"/><use xlink:href="#E" x="114.693" y="521.468"/><use xlink:href="#Z" x="120.959" y="521.468"/><use xlink:href="#L" x="127.378" y="521.468"/><use xlink:href="#ay" x="133.777" y="521.468"/><use xlink:href="#F" x="140.216" y="521.468"/><use xlink:href="#ar" x="142.759" y="521.468"/><use xlink:href="#au" x="149.107" y="521.468"/><use xlink:href="#G" x="155.017" y="521.468"/><use xlink:href="#D" x="161.528" y="521.468"/><use xlink:href="#T" x="167.896" y="521.468"/><use xlink:href="#F" x="169.808" y="521.468"/><use xlink:href="#E" x="172.352" y="521.468"/><use xlink:href="#I" x="178.618" y="521.468"/><use xlink:href="#V" x="183.806" y="521.468"/><use xlink:href="#K" x="189.116" y="521.468"/><use xlink:href="#aa" x="194.365" y="521.468"/><use xlink:href="#F" x="196.308" y="521.468"/><use xlink:href="#Z" x="198.851" y="521.468"/><use xlink:href="#H" x="205.27" y="521.468"/><use xlink:href="#R" x="210.468" y="521.468"/><use xlink:href="#N" x="214.71" y="521.468"/><use xlink:href="#V" x="216.653" y="521.468"/><use xlink:href="#M" x="221.963" y="521.468"/><use xlink:href="#H" x="227.213" y="521.468"/><use xlink:href="#aa" x="232.411" y="521.468"/><use xlink:href="#F" x="234.354" y="521.468"/><use xlink:href="#L" x="236.897" y="521.468"/><use xlink:href="#M" x="243.295" y="521.468"/><use xlink:href="#N" x="248.545" y="521.468"/><use xlink:href="#O" x="250.487" y="521.468"/><use xlink:href="#I" x="254.933" y="521.468"/><use xlink:href="#P" x="260.121" y="521.468"/><use xlink:href="#Q" x="264.322" y="521.468"/><use xlink:href="#N" x="269.215" y="521.468"/><use xlink:href="#R" x="271.158" y="521.468"/><use xlink:href="#S" x="275.4" y="521.468"/><use xlink:href="#F" x="279.825" y="521.468"/><use xlink:href="#ay" x="282.369" y="521.468"/><use xlink:href="#V" x="288.808" y="521.468"/><use xlink:href="#Q" x="294.118" y="521.468"/><use xlink:href="#ax" x="299.011" y="521.468"/><use xlink:href="#N" x="304.423" y="521.468"/><use xlink:href="#R" x="306.366" y="521.468"/><use xlink:href="#H" x="310.608" y="521.468"/><use xlink:href="#aa" x="315.806" y="521.468"/></g><g fill="#231f20"><use xlink:href="#ab" x="77.858" y="541.286"/><use xlink:href="#P" x="83.778" y="541.286"/><use xlink:href="#V" x="87.98" y="541.286"/><use xlink:href="#an" x="93.29" y="541.286"/><use xlink:href="#I" x="97.491" y="541.286"/><use xlink:href="#Q" x="102.679" y="541.286"/><use xlink:href="#Q" x="107.572" y="541.286"/><use xlink:href="#V" x="112.465" y="541.286"/><use xlink:href="#P" x="117.775" y="541.286"/><use xlink:href="#T" x="121.977" y="541.286"/><use xlink:href="#F" x="123.889" y="541.286"/><use xlink:href="#E" x="126.432" y="541.286"/><use xlink:href="#I" x="132.699" y="541.286"/><use xlink:href="#V" x="137.887" y="541.286"/><use xlink:href="#K" x="143.197" y="541.286"/><use xlink:href="#aa" x="148.446" y="541.286"/><use xlink:href="#F" x="150.389" y="541.286"/><use xlink:href="#Z" x="152.932" y="541.286"/><use xlink:href="#H" x="159.351" y="541.286"/><use xlink:href="#R" x="164.549" y="541.286"/><use xlink:href="#N" x="168.791" y="541.286"/><use xlink:href="#V" x="170.734" y="541.286"/><use xlink:href="#M" x="176.044" y="541.286"/><use xlink:href="#H" x="181.293" y="541.286"/><use xlink:href="#aa" x="186.491" y="541.286"/><use xlink:href="#F" x="188.434" y="541.286"/><use xlink:href="#L" x="190.978" y="541.286"/><use xlink:href="#M" x="197.376" y="541.286"/><use xlink:href="#N" x="202.625" y="541.286"/><use xlink:href="#O" x="204.568" y="541.286"/><use xlink:href="#I" x="209.014" y="541.286"/><use xlink:href="#P" x="214.202" y="541.286"/><use xlink:href="#Q" x="218.403" y="541.286"/><use xlink:href="#N" x="223.296" y="541.286"/><use xlink:href="#R" x="225.239" y="541.286"/><use xlink:href="#S" x="229.481" y="541.286"/><use xlink:href="#F" x="233.906" y="541.286"/><use xlink:href="#at" x="236.449" y="541.286"/><use xlink:href="#V" x="242.705" y="541.286"/><use xlink:href="#aa" x="248.016" y="541.286"/><use xlink:href="#aa" x="249.959" y="541.286"/><use xlink:href="#I" x="251.901" y="541.286"/><use xlink:href="#J" x="257.09" y="541.286"/><use xlink:href="#I" x="262.491" y="541.286"/><use xlink:href="#F" x="267.679" y="541.286"/><use xlink:href="#V" x="270.222" y="541.286"/><use xlink:href="#an" x="275.533" y="541.286"/><use xlink:href="#F" x="279.734" y="541.286"/><use xlink:href="#W" x="282.277" y="541.286"/><use xlink:href="#I" x="290.405" y="541.286"/><use xlink:href="#ap" x="295.593" y="541.286"/><use xlink:href="#N" x="301.005" y="541.286"/><use xlink:href="#aq" x="302.948" y="541.286"/><use xlink:href="#N" x="307.983" y="541.286"/><use xlink:href="#M" x="309.926" y="541.286"/><use xlink:href="#I" x="315.175" y="541.286"/></g><g fill="#fff"><use xlink:href="#az" x="119.052" y="455.324"/><use xlink:href="#al" x="126.282" y="455.324"/><use xlink:href="#aA" x="133.16" y="455.324"/><use xlink:href="#ak" x="138.949" y="455.324"/><use xlink:href="#aj" x="141.844" y="455.324"/><use xlink:href="#ak" x="146.312" y="455.324"/><use xlink:href="#al" x="149.207" y="455.324"/><use xlink:href="#am" x="156.085" y="455.324"/></g><path d="M76.441 731.715h424.68" fill="none" stroke-width=".299637" stroke="#33459a" stroke-miterlimit="10"/><g fill="#231f20"><use xlink:href="#aB" x="77.858" y="627.586"/><use xlink:href="#I" x="82.934" y="627.586"/><use xlink:href="#I" x="88.224" y="627.586"/><use xlink:href="#F" x="93.514" y="627.586"/><use xlink:href="#aC" x="96.159" y="627.586"/><use xlink:href="#aD" x="101.987" y="627.586"/><use xlink:href="#T" x="107.237" y="627.586"/><use xlink:href="#F" x="109.251" y="627.586"/><use xlink:href="#ay" x="111.896" y="627.586"/><use xlink:href="#aE" x="118.437" y="627.586"/><use xlink:href="#H" x="125.385" y="627.586"/><use xlink:href="#M" x="130.684" y="627.586"/><use xlink:href="#J" x="136.035" y="627.586"/><use xlink:href="#F" x="141.539" y="627.586"/><use xlink:href="#as" x="144.184" y="627.586"/><use xlink:href="#T" x="146.523" y="627.586"/><use xlink:href="#F" x="148.537" y="627.586"/><use xlink:href="#aB" x="151.182" y="627.586"/><use xlink:href="#I" x="156.258" y="627.586"/><use xlink:href="#I" x="161.548" y="627.586"/><use xlink:href="#F" x="166.838" y="627.586"/><use xlink:href="#aD" x="169.483" y="627.586"/><use xlink:href="#aF" x="174.732" y="627.586"/><use xlink:href="#T" x="179.93" y="627.586"/><use xlink:href="#F" x="181.944" y="627.586"/><use xlink:href="#ab" x="184.589" y="627.586"/><use xlink:href="#H" x="190.611" y="627.586"/><use xlink:href="#P" x="195.911" y="627.586"/><use xlink:href="#Y" x="200.214" y="627.586"/><use xlink:href="#F" x="204.833" y="627.586"/><use xlink:href="#aD" x="207.478" y="627.586"/><use xlink:href="#Z" x="212.727" y="627.586"/><use xlink:href="#T" x="219.247" y="627.586"/><use xlink:href="#F" x="221.262" y="627.586"/><use xlink:href="#U" x="223.906" y="627.586"/><use xlink:href="#N" x="229.623" y="627.586"/><use xlink:href="#ao" x="231.668" y="627.586"/><use xlink:href="#F" x="239.776" y="627.586"/><use xlink:href="#U" x="242.421" y="627.586"/><use xlink:href="#at" x="248.138" y="627.586"/><use xlink:href="#T" x="254.496" y="627.586"/><use xlink:href="#F" x="256.51" y="627.586"/><use xlink:href="#U" x="259.155" y="627.586"/><use xlink:href="#N" x="264.872" y="627.586"/><use xlink:href="#ao" x="266.916" y="627.586"/><use xlink:href="#F" x="275.024" y="627.586"/><use xlink:href="#as" x="277.669" y="627.586"/><use xlink:href="#T" x="280.008" y="627.586"/><use xlink:href="#F" x="282.023" y="627.586"/><use xlink:href="#W" x="284.668" y="627.586"/><use xlink:href="#V" x="292.897" y="627.586"/><use xlink:href="#V" x="298.309" y="627.586"/><use xlink:href="#M" x="303.721" y="627.586"/><use xlink:href="#F" x="309.072" y="627.586"/><use xlink:href="#G" x="311.717" y="627.586"/><use xlink:href="#T" x="318.329" y="627.586"/><use xlink:href="#F" x="320.343" y="627.586"/><use xlink:href="#ab" x="322.988" y="627.586"/><use xlink:href="#H" x="329.01" y="627.586"/><use xlink:href="#P" x="334.31" y="627.586"/><use xlink:href="#Y" x="338.613" y="627.586"/><use xlink:href="#F" x="343.231" y="627.586"/><use xlink:href="#ay" x="345.876" y="627.586"/><use xlink:href="#T" x="352.417" y="627.586"/><use xlink:href="#F" x="354.431" y="627.586"/><use xlink:href="#aB" x="357.076" y="627.586"/><use xlink:href="#I" x="362.152" y="627.586"/><use xlink:href="#I" x="367.442" y="627.586"/><use xlink:href="#F" x="372.732" y="627.586"/><use xlink:href="#E" x="375.377" y="627.586"/><use xlink:href="#T" x="381.745" y="627.586"/><use xlink:href="#F" x="383.759" y="627.586"/><use xlink:href="#U" x="386.404" y="627.586"/><use xlink:href="#N" x="392.121" y="627.586"/><use xlink:href="#ao" x="394.166" y="627.586"/><use xlink:href="#F" x="402.273" y="627.586"/><use xlink:href="#ay" x="404.918" y="627.586"/><use xlink:href="#E" x="411.459" y="627.586"/><use xlink:href="#T" x="417.827" y="627.586"/><use xlink:href="#F" x="419.841" y="627.586"/><use xlink:href="#aD" x="422.486" y="627.586"/><use xlink:href="#K" x="427.735" y="627.586"/><use xlink:href="#M" x="433.086" y="627.586"/><use xlink:href="#F" x="438.437" y="627.586"/><use xlink:href="#G" x="441.082" y="627.586"/><use xlink:href="#aG" x="447.694" y="627.586"/><use xlink:href="#T" x="456.463" y="627.586"/><use xlink:href="#F" x="458.477" y="627.586"/><use xlink:href="#ab" x="461.122" y="627.586"/><use xlink:href="#H" x="467.144" y="627.586"/><use xlink:href="#P" x="472.444" y="627.586"/><use xlink:href="#Y" x="476.747" y="627.586"/><use xlink:href="#F" x="481.365" y="627.586"/></g><g fill="#231f20"><use xlink:href="#E" x="77.858" y="642.567"/><use xlink:href="#T" x="84.226" y="642.567"/><use xlink:href="#F" x="86.24" y="642.567"/><use xlink:href="#U" x="88.885" y="642.567"/><use xlink:href="#N" x="94.602" y="642.567"/><use xlink:href="#ao" x="96.647" y="642.567"/><use xlink:href="#F" x="104.754" y="642.567"/><use xlink:href="#ay" x="107.399" y="642.567"/><use xlink:href="#ad" x="113.94" y="642.567"/><use xlink:href="#F" x="115.954" y="642.567"/><use xlink:href="#ay" x="118.599" y="642.567"/><use xlink:href="#I" x="125.14" y="642.567"/><use xlink:href="#ax" x="130.43" y="642.567"/><use xlink:href="#H" x="135.944" y="642.567"/><use xlink:href="#R" x="141.244" y="642.567"/><use xlink:href="#N" x="145.587" y="642.567"/><use xlink:href="#aq" x="147.632" y="642.567"/><use xlink:href="#F" x="152.769" y="642.567"/><use xlink:href="#Q" x="155.414" y="642.567"/><use xlink:href="#R" x="160.409" y="642.567"/><use xlink:href="#I" x="164.753" y="642.567"/><use xlink:href="#aa" x="170.042" y="642.567"/><use xlink:href="#aa" x="172.087" y="642.567"/><use xlink:href="#H" x="174.132" y="642.567"/><use xlink:href="#R" x="179.432" y="642.567"/><use xlink:href="#I" x="183.775" y="642.567"/><use xlink:href="#F" x="189.065" y="642.567"/><use xlink:href="#aq" x="191.71" y="642.567"/><use xlink:href="#I" x="196.847" y="642.567"/><use xlink:href="#aa" x="202.137" y="642.567"/><use xlink:href="#aa" x="204.182" y="642.567"/><use xlink:href="#aH" x="206.226" y="642.567"/><use xlink:href="#Q" x="211.008" y="642.567"/><use xlink:href="#ax" x="216.002" y="642.567"/><use xlink:href="#I" x="221.516" y="642.567"/><use xlink:href="#aq" x="226.806" y="642.567"/><use xlink:href="#N" x="231.943" y="642.567"/><use xlink:href="#an" x="233.987" y="642.567"/><use xlink:href="#N" x="238.291" y="642.567"/><use xlink:href="#aq" x="240.335" y="642.567"/><use xlink:href="#F" x="245.472" y="642.567"/><use xlink:href="#Y" x="248.117" y="642.567"/><use xlink:href="#M" x="252.736" y="642.567"/><use xlink:href="#V" x="258.086" y="642.567"/><use xlink:href="#aq" x="263.498" y="642.567"/><use xlink:href="#Y" x="268.635" y="642.567"/><use xlink:href="#V" x="273.254" y="642.567"/><use xlink:href="#K" x="278.666" y="642.567"/><use xlink:href="#R" x="284.016" y="642.567"/><use xlink:href="#F" x="288.36" y="642.567"/><use xlink:href="#V" x="291.005" y="642.567"/><use xlink:href="#an" x="296.417" y="642.567"/><use xlink:href="#F" x="300.72" y="642.567"/><use xlink:href="#R" x="303.365" y="642.567"/><use xlink:href="#P" x="307.709" y="642.567"/><use xlink:href="#H" x="312.012" y="642.567"/><use xlink:href="#M" x="317.311" y="642.567"/><use xlink:href="#Q" x="322.662" y="642.567"/><use xlink:href="#aq" x="327.657" y="642.567"/><use xlink:href="#P" x="332.794" y="642.567"/><use xlink:href="#N" x="337.097" y="642.567"/><use xlink:href="#ax" x="339.142" y="642.567"/><use xlink:href="#R" x="344.656" y="642.567"/><use xlink:href="#N" x="348.999" y="642.567"/><use xlink:href="#V" x="351.044" y="642.567"/><use xlink:href="#M" x="356.456" y="642.567"/><use xlink:href="#H" x="361.807" y="642.567"/><use xlink:href="#aa" x="367.106" y="642.567"/><use xlink:href="#F" x="369.151" y="642.567"/><use xlink:href="#N" x="371.796" y="642.567"/><use xlink:href="#M" x="373.841" y="642.567"/><use xlink:href="#R" x="379.192" y="642.567"/><use xlink:href="#I" x="383.535" y="642.567"/><use xlink:href="#P" x="388.825" y="642.567"/><use xlink:href="#ao" x="393.128" y="642.567"/><use xlink:href="#I" x="401.236" y="642.567"/><use xlink:href="#ap" x="406.525" y="642.567"/><use xlink:href="#N" x="412.039" y="642.567"/><use xlink:href="#H" x="414.084" y="642.567"/><use xlink:href="#P" x="419.384" y="642.567"/><use xlink:href="#S" x="423.687" y="642.567"/><use xlink:href="#F" x="428.213" y="642.567"/><use xlink:href="#an" x="430.858" y="642.567"/><use xlink:href="#H" x="435.161" y="642.567"/><use xlink:href="#aq" x="440.461" y="642.567"/><use xlink:href="#R" x="445.598" y="642.567"/><use xlink:href="#V" x="449.942" y="642.567"/><use xlink:href="#P" x="455.354" y="642.567"/><use xlink:href="#F" x="459.657" y="642.567"/><use xlink:href="#aI" x="462.302" y="642.567"/></g><use xlink:href="#aJ" x="466.758" y="642.567" fill="#231f20"/><use xlink:href="#F" x="476.828" y="642.567" fill="#231f20"/><g fill="#231f20"><use xlink:href="#H" x="77.858" y="657.549"/><use xlink:href="#J" x="83.158" y="657.549"/><use xlink:href="#J" x="88.661" y="657.549"/><use xlink:href="#P" x="94.165" y="657.549"/><use xlink:href="#H" x="98.468" y="657.549"/><use xlink:href="#O" x="103.768" y="657.549"/><use xlink:href="#H" x="108.315" y="657.549"/><use xlink:href="#R" x="113.615" y="657.549"/><use xlink:href="#I" x="117.959" y="657.549"/><use xlink:href="#Q" x="123.248" y="657.549"/><use xlink:href="#F" x="128.243" y="657.549"/><use xlink:href="#aa" x="130.888" y="657.549"/><use xlink:href="#N" x="132.933" y="657.549"/><use xlink:href="#O" x="134.977" y="657.549"/><use xlink:href="#I" x="139.524" y="657.549"/><use xlink:href="#P" x="144.814" y="657.549"/><use xlink:href="#F" x="149.117" y="657.549"/><use xlink:href="#an" x="151.762" y="657.549"/><use xlink:href="#N" x="156.065" y="657.549"/><use xlink:href="#X" x="158.11" y="657.549"/><use xlink:href="#P" x="163.623" y="657.549"/><use xlink:href="#V" x="167.926" y="657.549"/><use xlink:href="#Q" x="173.338" y="657.549"/><use xlink:href="#N" x="178.333" y="657.549"/><use xlink:href="#Q" x="180.378" y="657.549"/><use xlink:href="#ad" x="185.373" y="657.549"/><use xlink:href="#F" x="187.387" y="657.549"/><use xlink:href="#aD" x="190.032" y="657.549"/><use xlink:href="#aC" x="195.281" y="657.549"/><use xlink:href="#W" x="201.11" y="657.549"/><use xlink:href="#F" x="209.339" y="657.549"/><use xlink:href="#aK" x="211.984" y="657.549"/><use xlink:href="#aL" x="217.477" y="657.549"/><use xlink:href="#aK" x="223.082" y="657.549"/><use xlink:href="#aL" x="228.576" y="657.549"/></g><g fill="#231f20"><use xlink:href="#aB" x="77.858" y="679.361"/><use xlink:href="#I" x="82.934" y="679.361"/><use xlink:href="#I" x="88.224" y="679.361"/><use xlink:href="#F" x="93.514" y="679.361"/><use xlink:href="#E" x="96.159" y="679.361"/><use xlink:href="#aH" x="102.527" y="679.361"/><use xlink:href="#aF" x="107.308" y="679.361"/><use xlink:href="#T" x="112.506" y="679.361"/><use xlink:href="#F" x="114.52" y="679.361"/><use xlink:href="#aF" x="117.165" y="679.361"/><use xlink:href="#H" x="122.363" y="679.361"/><use xlink:href="#M" x="127.663" y="679.361"/><use xlink:href="#J" x="133.014" y="679.361"/><use xlink:href="#F" x="138.517" y="679.361"/><use xlink:href="#aD" x="141.162" y="679.361"/><use xlink:href="#T" x="146.411" y="679.361"/><use xlink:href="#F" x="148.426" y="679.361"/><use xlink:href="#ab" x="151.07" y="679.361"/><use xlink:href="#H" x="157.093" y="679.361"/><use xlink:href="#P" x="162.393" y="679.361"/><use xlink:href="#Y" x="166.696" y="679.361"/><use xlink:href="#F" x="171.314" y="679.361"/><use xlink:href="#aD" x="173.959" y="679.361"/><use xlink:href="#ay" x="179.208" y="679.361"/><use xlink:href="#T" x="185.749" y="679.361"/><use xlink:href="#F" x="187.763" y="679.361"/><use xlink:href="#E" x="190.408" y="679.361"/><use xlink:href="#ac" x="196.776" y="679.361"/><use xlink:href="#N" x="202.127" y="679.361"/><use xlink:href="#M" x="204.172" y="679.361"/><use xlink:href="#F" x="209.522" y="679.361"/><use xlink:href="#ay" x="212.167" y="679.361"/><use xlink:href="#U" x="218.708" y="679.361"/><use xlink:href="#T" x="224.425" y="679.361"/><use xlink:href="#F" x="226.439" y="679.361"/><use xlink:href="#U" x="229.084" y="679.361"/><use xlink:href="#N" x="234.801" y="679.361"/><use xlink:href="#ao" x="236.846" y="679.361"/><use xlink:href="#F" x="244.954" y="679.361"/><use xlink:href="#aG" x="247.598" y="679.361"/><use xlink:href="#aD" x="256.367" y="679.361"/><use xlink:href="#T" x="261.616" y="679.361"/><use xlink:href="#F" x="263.631" y="679.361"/><use xlink:href="#U" x="266.275" y="679.361"/><use xlink:href="#N" x="271.992" y="679.361"/><use xlink:href="#ao" x="274.037" y="679.361"/><use xlink:href="#F" x="282.145" y="679.361"/><use xlink:href="#E" x="284.79" y="679.361"/><use xlink:href="#aH" x="291.158" y="679.361"/><use xlink:href="#aF" x="295.939" y="679.361"/><use xlink:href="#T" x="301.137" y="679.361"/><use xlink:href="#F" x="303.151" y="679.361"/><use xlink:href="#aB" x="305.796" y="679.361"/><use xlink:href="#I" x="310.872" y="679.361"/><use xlink:href="#I" x="316.162" y="679.361"/><use xlink:href="#F" x="321.452" y="679.361"/><use xlink:href="#aC" x="324.097" y="679.361"/><use xlink:href="#aD" x="329.926" y="679.361"/><use xlink:href="#T" x="335.175" y="679.361"/><use xlink:href="#F" x="337.189" y="679.361"/><use xlink:href="#ay" x="339.834" y="679.361"/><use xlink:href="#aE" x="346.375" y="679.361"/><use xlink:href="#H" x="353.323" y="679.361"/><use xlink:href="#M" x="358.623" y="679.361"/><use xlink:href="#J" x="363.973" y="679.361"/><use xlink:href="#F" x="369.477" y="679.361"/><use xlink:href="#as" x="372.122" y="679.361"/><use xlink:href="#T" x="374.461" y="679.361"/><use xlink:href="#F" x="376.475" y="679.361"/><use xlink:href="#aB" x="379.12" y="679.361"/><use xlink:href="#I" x="384.197" y="679.361"/><use xlink:href="#I" x="389.486" y="679.361"/><use xlink:href="#F" x="394.776" y="679.361"/><use xlink:href="#at" x="397.421" y="679.361"/><use xlink:href="#aH" x="403.779" y="679.361"/><use xlink:href="#E" x="408.56" y="679.361"/><use xlink:href="#T" x="414.928" y="679.361"/><use xlink:href="#F" x="416.942" y="679.361"/><use xlink:href="#aB" x="419.587" y="679.361"/><use xlink:href="#I" x="424.663" y="679.361"/><use xlink:href="#I" x="429.953" y="679.361"/><use xlink:href="#F" x="435.243" y="679.361"/><use xlink:href="#aD" x="437.888" y="679.361"/><use xlink:href="#T" x="443.137" y="679.361"/><use xlink:href="#F" x="445.151" y="679.361"/><use xlink:href="#U" x="447.796" y="679.361"/><use xlink:href="#N" x="453.513" y="679.361"/><use xlink:href="#ao" x="455.557" y="679.361"/><use xlink:href="#F" x="463.665" y="679.361"/></g><g fill="#231f20"><use xlink:href="#ay" x="77.858" y="694.343"/><use xlink:href="#ad" x="84.399" y="694.343"/><use xlink:href="#F" x="86.413" y="694.343"/><use xlink:href="#W" x="89.058" y="694.343"/><use xlink:href="#N" x="97.288" y="694.343"/><use xlink:href="#aq" x="99.332" y="694.343"/><use xlink:href="#P" x="104.47" y="694.343"/><use xlink:href="#V" x="108.773" y="694.343"/><use xlink:href="#ar" x="114.184" y="694.343"/><use xlink:href="#Z" x="120.634" y="694.343"/><use xlink:href="#aM" x="127.155" y="694.343"/><use xlink:href="#aH" x="133.228" y="694.343"/><use xlink:href="#aN" x="138.009" y="694.343"/><use xlink:href="#aK" x="143.573" y="694.343"/><use xlink:href="#H" x="149.066" y="694.343"/><use xlink:href="#aO" x="154.366" y="694.343"/><use xlink:href="#E" x="159.29" y="694.343"/><use xlink:href="#ax" x="165.658" y="694.343"/><use xlink:href="#aI" x="171.172" y="694.343"/><use xlink:href="#aO" x="175.627" y="694.343"/><use xlink:href="#W" x="180.551" y="694.343"/><use xlink:href="#S" x="188.78" y="694.343"/><use xlink:href="#V" x="193.307" y="694.343"/><use xlink:href="#G" x="198.719" y="694.343"/><use xlink:href="#F" x="205.331" y="694.343"/><use xlink:href="#H" x="207.976" y="694.343"/><use xlink:href="#aP" x="213.276" y="694.343"/><use xlink:href="#N" x="217.823" y="694.343"/><use xlink:href="#Q" x="219.868" y="694.343"/><use xlink:href="#F" x="224.863" y="694.343"/><use xlink:href="#P" x="227.508" y="694.343"/><use xlink:href="#I" x="231.811" y="694.343"/><use xlink:href="#J" x="237.1" y="694.343"/><use xlink:href="#K" x="242.604" y="694.343"/><use xlink:href="#aa" x="247.955" y="694.343"/><use xlink:href="#H" x="249.999" y="694.343"/><use xlink:href="#R" x="255.299" y="694.343"/><use xlink:href="#I" x="259.643" y="694.343"/><use xlink:href="#Q" x="264.933" y="694.343"/><use xlink:href="#F" x="269.927" y="694.343"/><use xlink:href="#ac" x="272.572" y="694.343"/><use xlink:href="#S" x="277.923" y="694.343"/><use xlink:href="#ax" x="282.45" y="694.343"/><use xlink:href="#V" x="287.963" y="694.343"/><use xlink:href="#aP" x="293.375" y="694.343"/><use xlink:href="#N" x="297.922" y="694.343"/><use xlink:href="#aq" x="299.967" y="694.343"/><use xlink:href="#F" x="305.104" y="694.343"/><use xlink:href="#Q" x="307.749" y="694.343"/><use xlink:href="#R" x="312.744" y="694.343"/><use xlink:href="#N" x="317.088" y="694.343"/><use xlink:href="#ao" x="319.132" y="694.343"/><use xlink:href="#K" x="327.24" y="694.343"/><use xlink:href="#aa" x="332.591" y="694.343"/><use xlink:href="#H" x="334.635" y="694.343"/><use xlink:href="#R" x="339.935" y="694.343"/><use xlink:href="#N" x="344.279" y="694.343"/><use xlink:href="#V" x="346.324" y="694.343"/><use xlink:href="#M" x="351.736" y="694.343"/><use xlink:href="#F" x="357.086" y="694.343"/><use xlink:href="#V" x="359.731" y="694.343"/><use xlink:href="#an" x="365.143" y="694.343"/><use xlink:href="#F" x="369.446" y="694.343"/><use xlink:href="#ao" x="372.091" y="694.343"/><use xlink:href="#S" x="380.199" y="694.343"/><use xlink:href="#V" x="384.725" y="694.343"/><use xlink:href="#J" x="390.137" y="694.343"/><use xlink:href="#I" x="395.641" y="694.343"/><use xlink:href="#M" x="400.93" y="694.343"/><use xlink:href="#N" x="406.281" y="694.343"/><use xlink:href="#aq" x="408.326" y="694.343"/><use xlink:href="#aH" x="413.463" y="694.343"/><use xlink:href="#aa" x="418.244" y="694.343"/><use xlink:href="#N" x="420.289" y="694.343"/><use xlink:href="#M" x="422.334" y="694.343"/><use xlink:href="#I" x="427.684" y="694.343"/><use xlink:href="#H" x="432.974" y="694.343"/><use xlink:href="#J" x="438.274" y="694.343"/><use xlink:href="#I" x="443.778" y="694.343"/><use xlink:href="#F" x="449.067" y="694.343"/></g><g fill="#231f20"><use xlink:href="#ap" x="77.858" y="709.325"/><use xlink:href="#N" x="83.372" y="709.325"/><use xlink:href="#an" x="85.416" y="709.325"/><use xlink:href="#an" x="89.719" y="709.325"/><use xlink:href="#I" x="94.022" y="709.325"/><use xlink:href="#P" x="99.312" y="709.325"/><use xlink:href="#I" x="103.615" y="709.325"/><use xlink:href="#M" x="108.905" y="709.325"/><use xlink:href="#R" x="114.256" y="709.325"/><use xlink:href="#N" x="118.599" y="709.325"/><use xlink:href="#H" x="120.644" y="709.325"/><use xlink:href="#R" x="125.944" y="709.325"/><use xlink:href="#N" x="130.288" y="709.325"/><use xlink:href="#V" x="132.332" y="709.325"/><use xlink:href="#M" x="137.744" y="709.325"/><use xlink:href="#F" x="143.095" y="709.325"/><use xlink:href="#N" x="145.74" y="709.325"/><use xlink:href="#M" x="147.785" y="709.325"/><use xlink:href="#F" x="153.135" y="709.325"/><use xlink:href="#ao" x="155.78" y="709.325"/><use xlink:href="#V" x="163.888" y="709.325"/><use xlink:href="#K" x="169.3" y="709.325"/><use xlink:href="#Q" x="174.651" y="709.325"/><use xlink:href="#I" x="179.645" y="709.325"/><use xlink:href="#F" x="184.935" y="709.325"/><use xlink:href="#I" x="187.58" y="709.325"/><use xlink:href="#ao" x="192.87" y="709.325"/><use xlink:href="#X" x="200.977" y="709.325"/><use xlink:href="#P" x="206.491" y="709.325"/><use xlink:href="#S" x="210.794" y="709.325"/><use xlink:href="#V" x="215.321" y="709.325"/><use xlink:href="#M" x="220.733" y="709.325"/><use xlink:href="#N" x="226.083" y="709.325"/><use xlink:href="#aq" x="228.128" y="709.325"/><use xlink:href="#F" x="233.265" y="709.325"/><use xlink:href="#Q" x="235.91" y="709.325"/><use xlink:href="#R" x="240.905" y="709.325"/><use xlink:href="#I" x="245.249" y="709.325"/><use xlink:href="#ao" x="250.538" y="709.325"/><use xlink:href="#F" x="258.646" y="709.325"/><use xlink:href="#aq" x="261.291" y="709.325"/><use xlink:href="#I" x="266.428" y="709.325"/><use xlink:href="#aa" x="271.718" y="709.325"/><use xlink:href="#aa" x="273.762" y="709.325"/><use xlink:href="#Q" x="275.807" y="709.325"/><use xlink:href="#ad" x="280.802" y="709.325"/><use xlink:href="#F" x="282.816" y="709.325"/><use xlink:href="#W" x="285.461" y="709.325"/><use xlink:href="#V" x="293.691" y="709.325"/><use xlink:href="#aa" x="299.102" y="709.325"/><use xlink:href="#I" x="301.147" y="709.325"/><use xlink:href="#aq" x="306.437" y="709.325"/><use xlink:href="#K" x="311.574" y="709.325"/><use xlink:href="#aa" x="316.925" y="709.325"/><use xlink:href="#H" x="318.97" y="709.325"/><use xlink:href="#P" x="324.27" y="709.325"/><use xlink:href="#F" x="328.573" y="709.325"/><use xlink:href="#aw" x="331.217" y="709.325"/><use xlink:href="#ac" x="336.568" y="709.325"/><use xlink:href="#I" x="341.919" y="709.325"/><use xlink:href="#P" x="347.209" y="709.325"/><use xlink:href="#H" x="351.512" y="709.325"/><use xlink:href="#ax" x="356.812" y="709.325"/><use xlink:href="#S" x="362.325" y="709.325"/><use xlink:href="#F" x="366.852" y="709.325"/><use xlink:href="#W" x="369.497" y="709.325"/><use xlink:href="#aw" x="377.727" y="709.325"/><use xlink:href="#aD" x="383.078" y="709.325"/><use xlink:href="#aH" x="388.327" y="709.325"/><use xlink:href="#aI" x="393.108" y="709.325"/><use xlink:href="#aN" x="397.563" y="709.325"/><use xlink:href="#aH" x="403.128" y="709.325"/><use xlink:href="#aQ" x="407.909" y="709.325"/><use xlink:href="#aR" x="413.412" y="709.325"/><use xlink:href="#aR" x="418.997" y="709.325"/><use xlink:href="#aN" x="424.582" y="709.325"/><use xlink:href="#ar" x="430.146" y="709.325"/><use xlink:href="#aK" x="436.596" y="709.325"/><use xlink:href="#ad" x="442.089" y="709.325"/><use xlink:href="#F" x="444.103" y="709.325"/><use xlink:href="#aK" x="446.748" y="709.325"/><use xlink:href="#aL" x="452.241" y="709.325"/><use xlink:href="#aI" x="457.846" y="709.325"/><use xlink:href="#aN" x="462.302" y="709.325"/></g><g fill="#231f20"><use xlink:href="#aB" x="77.858" y="724.307"/><use xlink:href="#I" x="82.934" y="724.307"/><use xlink:href="#I" x="88.224" y="724.307"/><use xlink:href="#F" x="93.514" y="724.307"/><use xlink:href="#aC" x="96.159" y="724.307"/><use xlink:href="#aD" x="101.987" y="724.307"/><use xlink:href="#T" x="107.237" y="724.307"/><use xlink:href="#F" x="109.251" y="724.307"/><use xlink:href="#ay" x="111.896" y="724.307"/><use xlink:href="#aE" x="118.437" y="724.307"/><use xlink:href="#H" x="125.385" y="724.307"/><use xlink:href="#M" x="130.684" y="724.307"/><use xlink:href="#J" x="136.035" y="724.307"/><use xlink:href="#F" x="141.539" y="724.307"/><use xlink:href="#as" x="144.184" y="724.307"/><use xlink:href="#T" x="146.523" y="724.307"/><use xlink:href="#F" x="148.537" y="724.307"/><use xlink:href="#U" x="151.182" y="724.307"/><use xlink:href="#N" x="156.899" y="724.307"/><use xlink:href="#ao" x="158.944" y="724.307"/><use xlink:href="#F" x="167.052" y="724.307"/><use xlink:href="#av" x="169.696" y="724.307"/><use xlink:href="#ay" x="176.299" y="724.307"/><use xlink:href="#T" x="182.84" y="724.307"/><use xlink:href="#F" x="184.854" y="724.307"/><use xlink:href="#W" x="187.499" y="724.307"/><use xlink:href="#V" x="195.728" y="724.307"/><use xlink:href="#V" x="201.14" y="724.307"/><use xlink:href="#M" x="206.552" y="724.307"/><use xlink:href="#F" x="211.903" y="724.307"/><use xlink:href="#G" x="214.548" y="724.307"/><use xlink:href="#T" x="221.16" y="724.307"/><use xlink:href="#F" x="223.174" y="724.307"/><use xlink:href="#U" x="225.819" y="724.307"/><use xlink:href="#H" x="231.536" y="724.307"/><use xlink:href="#M" x="236.836" y="724.307"/><use xlink:href="#J" x="242.187" y="724.307"/><use xlink:href="#F" x="247.69" y="724.307"/><use xlink:href="#E" x="250.335" y="724.307"/><use xlink:href="#aF" x="256.703" y="724.307"/><use xlink:href="#T" x="261.901" y="724.307"/><use xlink:href="#F" x="263.915" y="724.307"/><use xlink:href="#ay" x="266.56" y="724.307"/><use xlink:href="#aE" x="273.101" y="724.307"/><use xlink:href="#H" x="280.049" y="724.307"/><use xlink:href="#M" x="285.349" y="724.307"/><use xlink:href="#J" x="290.7" y="724.307"/><use xlink:href="#F" x="296.203" y="724.307"/><use xlink:href="#as" x="298.848" y="724.307"/><use xlink:href="#at" x="301.188" y="724.307"/><use xlink:href="#T" x="307.546" y="724.307"/><use xlink:href="#F" x="309.56" y="724.307"/><use xlink:href="#aB" x="312.205" y="724.307"/><use xlink:href="#I" x="317.281" y="724.307"/><use xlink:href="#I" x="322.571" y="724.307"/><use xlink:href="#F" x="327.861" y="724.307"/><use xlink:href="#E" x="330.505" y="724.307"/><use xlink:href="#aF" x="336.873" y="724.307"/><use xlink:href="#T" x="342.072" y="724.307"/><use xlink:href="#F" x="344.086" y="724.307"/><use xlink:href="#W" x="346.731" y="724.307"/><use xlink:href="#H" x="354.96" y="724.307"/><use xlink:href="#P" x="360.26" y="724.307"/><use xlink:href="#N" x="364.563" y="724.307"/><use xlink:href="#I" x="366.608" y="724.307"/><use xlink:href="#F" x="371.898" y="724.307"/><use xlink:href="#ab" x="374.543" y="724.307"/><use xlink:href="#aD" x="380.565" y="724.307"/><use xlink:href="#T" x="385.814" y="724.307"/><use xlink:href="#F" x="387.828" y="724.307"/><use xlink:href="#U" x="390.473" y="724.307"/><use xlink:href="#N" x="396.19" y="724.307"/><use xlink:href="#ao" x="398.235" y="724.307"/><use xlink:href="#F" x="406.342" y="724.307"/><use xlink:href="#ay" x="408.987" y="724.307"/><use xlink:href="#ad" x="415.528" y="724.307"/></g><g fill="#fff"><use xlink:href="#az" x="119.052" y="602.725"/><use xlink:href="#ag" x="126.282" y="602.725"/><use xlink:href="#aS" x="133.245" y="602.725"/><use xlink:href="#aT" x="140.221" y="602.725"/><use xlink:href="#ak" x="143.042" y="602.725"/><use xlink:href="#ah" x="145.937" y="602.725"/><use xlink:href="#ai" x="151.859" y="602.725"/><use xlink:href="#aj" x="158.301" y="602.725"/><use xlink:href="#ak" x="162.77" y="602.725"/><use xlink:href="#al" x="165.664" y="602.725"/><use xlink:href="#am" x="172.543" y="602.725"/><use xlink:href="#aA" x="179.555" y="602.725"/><use xlink:href="#aU" x="185.344" y="602.725"/><use xlink:href="#aV" x="188.129" y="602.725"/><use xlink:href="#aU" x="192.174" y="602.725"/><use xlink:href="#aW" x="194.959" y="602.725"/><use xlink:href="#aX" x="198.798" y="602.725"/><use xlink:href="#aY" x="206.367" y="602.725"/><use xlink:href="#ah" x="212.931" y="602.725"/><use xlink:href="#aY" x="218.853" y="602.725"/><use xlink:href="#am" x="225.417" y="602.725"/><use xlink:href="#aj" x="232.428" y="602.725"/><use xlink:href="#aU" x="236.897" y="602.725"/><use xlink:href="#aZ" x="239.682" y="602.725"/><use xlink:href="#aU" x="246.827" y="602.725"/><use xlink:href="#ba" x="249.613" y="602.725"/></g><g fill="#fff"><use xlink:href="#aY" x="255.971" y="602.725"/><use xlink:href="#ai" x="262.534" y="602.725"/><use xlink:href="#bb" x="268.977" y="602.725"/><use xlink:href="#aA" x="273.785" y="602.725"/><use xlink:href="#bc" x="279.574" y="602.725"/></g></svg>