<svg xmlns="http://www.w3.org/2000/svg" xmlns:xlink="http://www.w3.org/1999/xlink" width="793.701" height="1058.268" viewBox="0 0 595.276 793.701" version="1.2"><defs><symbol overflow="visible" id="a"><path d="M10.406 1.969V-9.578H9.375v4.234H8.031V-9.39H7V1.422h1.031v-5.719h1.344V1.97zM4.125-6.687V-7.86H6v-.907H1.14v.907h1.907v.984c0 .7-.059 1.348-.172 1.938a7.762 7.762 0 0 1-.5 1.609c-.23.5-.527.96-.89 1.375A6.393 6.393 0 0 1 .234-.86c.081.054.163.113.25.171.09.055.18.106.265.157.082.062.16.129.234.187.082.055.157.106.22.156.245-.195.5-.43.75-.703.245-.277.487-.578.718-.89.195-.29.375-.598.531-.922.164-.32.285-.64.36-.953.082.312.195.617.343.906.153.281.332.55.531.797.196.281.41.539.641.766.238.218.473.41.703.562a3.26 3.26 0 0 1 .157-.172L6.14-1c.07-.059.14-.117.203-.172.07-.058.14-.125.203-.187a4.62 4.62 0 0 1-1.125-.954 4.85 4.85 0 0 1-.75-1.234 6.056 6.056 0 0 1-.422-1.422 10.737 10.737 0 0 1-.125-1.718zm0 0"/></symbol><symbol overflow="visible" id="b"><path d="M8.516-9.578v8.484h1.062v-4.703h1.547v-.937H9.578v-2.844zM8.03-4.906c-.187.043-.449.09-.781.14-.336.055-.691.098-1.063.125-.386.043-.773.082-1.156.11a12.12 12.12 0 0 1-.984.047l-1.844.03v-3.671h4.25v-.922H1.187V-3.5H3.156c.309-.008.578-.02.797-.031.371-.008.754-.031 1.14-.063a38.79 38.79 0 0 0 2.156-.234c.321-.05.583-.102.782-.156zm1.89 6.64V.813H3.407v-2.907H2.344v3.828zm0 0"/></symbol><symbol overflow="visible" id="c"><path d="M9.969-3.344v-6.234H8.922v2.297H6.484v-1.907h-1v1.72H2.328v-1.72H1.297v5.313h5.187v-2.469h2.438v3zM5.484-4.78H2.328v-1.782h3.156zm4.485 6.64v-4.687H8.922v1.344H3.578v-1.344H2.516v4.687zM8.922.97H3.578V-.594h5.344zm0 0"/></symbol><symbol overflow="visible" id="d"><path d="M9.969-1.078v-8.5H8.922v8.5zM.859-6.375c0 .418.067.816.204 1.188.144.367.347.683.609.953.27.273.582.492.937.656.364.156.77.234 1.22.234.425 0 .82-.078 1.187-.234a2.98 2.98 0 0 0 .937-.656c.27-.27.477-.586.625-.954.145-.37.219-.769.219-1.187 0-.414-.074-.805-.219-1.172a3.042 3.042 0 0 0-.625-.984 2.802 2.802 0 0 0-.937-.656 3.066 3.066 0 0 0-1.188-.235c-.45 0-.855.082-1.219.235a2.968 2.968 0 0 0-.937.656 3.068 3.068 0 0 0-.61.984A3.33 3.33 0 0 0 .86-6.375zm1.063 0c0-.59.164-1.094.5-1.5.332-.402.8-.61 1.406-.61.602 0 1.07.208 1.406.61.332.406.5.91.5 1.5 0 .586-.168 1.082-.5 1.484-.336.399-.804.594-1.406.594-.605 0-1.074-.195-1.406-.594-.336-.402-.5-.898-.5-1.484zm8.375 8.11V.811H3.609v-2.875H2.531v3.797zm0 0"/></symbol><symbol overflow="visible" id="f"><path d="M9.875 1.969V-9.578H8.812V1.969zM6.578-.953v-7.89H1.36v7.89zm-1.031-.922H2.422v-6.031h3.125zm0 0"/></symbol><symbol overflow="visible" id="g"><path d="M10.094 1.969V-9.578H9.063v4.11H7.687v-3.923h-1.03V1.422h1.03v-5.844h1.375v6.39zM6.234-2a4.67 4.67 0 0 1-1.109.14c-.23.032-.46.055-.688.063-.23.012-.445.016-.64.016l-1.485.031v-2.625H5.36v-4.516H1.281v.922h3.063v2.672H1.28v4.484l2.172-.03c.55 0 1.086-.032 1.61-.095.527-.058.921-.113 1.171-.156zm0 0"/></symbol><symbol overflow="visible" id="h"><path d="M10.094 1.969V-9.578H9.063V1.969zM1.438-6.328c0 .406.07.789.218 1.14.145.344.348.649.61.907.27.261.586.472.953.625.363.148.765.219 1.203.219.426 0 .816-.07 1.172-.22.363-.152.68-.363.953-.624.258-.258.46-.563.61-.907a2.85 2.85 0 0 0 .234-1.14c0-.383-.082-.75-.235-1.094a2.723 2.723 0 0 0-.61-.906 3.251 3.251 0 0 0-.952-.625 2.946 2.946 0 0 0-1.172-.235c-.438 0-.84.083-1.203.235a3.152 3.152 0 0 0-.953.625c-.262.25-.465.555-.61.906-.148.344-.218.711-.218 1.094zm1.046 0c0-.527.172-.988.516-1.375.34-.383.816-.578 1.422-.578.601 0 1.07.195 1.406.578.332.387.5.848.5 1.375 0 .555-.168 1.023-.5 1.406-.336.375-.805.563-1.406.563-.606 0-1.082-.188-1.422-.563-.344-.383-.516-.851-.516-1.406zm6.172 4.375c-.23.043-.55.086-.953.125-.406.043-.84.082-1.297.11-.437.042-.87.081-1.297.109-.418.023-.746.03-.984.03a9.14 9.14 0 0 1-.703.016H.843v.954c.009 0 .134.007.376.015H3c.3 0 .508-.004.625-.015.508 0 1.016-.016 1.516-.047.496-.028.968-.067 1.406-.11.445-.039.848-.082 1.203-.125.352-.05.656-.097.906-.14zm0 0"/></symbol><symbol overflow="visible" id="i"><path d="M11.266-5.516v-.968H9.703v-3.094H8.641v7.406h1.062v-3.344zM5.812-8.734v-.875H2.376v.875zM7.407-7v-.875H.828V-7zM1.281-4.453c0 .262.067.512.203.75.145.23.336.43.579.594.246.168.546.304.89.406.34.094.727.14 1.156.14.871 0 1.567-.18 2.079-.546.507-.364.765-.813.765-1.344 0-.527-.258-.977-.766-1.344-.5-.371-1.19-.562-2.062-.562-.438 0-.832.054-1.172.156a2.79 2.79 0 0 0-.89.406c-.25.168-.446.371-.579.61-.136.23-.203.476-.203.734zm1.11-.016c0-.32.156-.578.468-.765.309-.184.735-.282 1.266-.282.527 0 .945.098 1.25.282.309.187.469.445.469.765 0 .336-.153.602-.453.797-.305.188-.727.281-1.266.281-.531 0-.957-.093-1.266-.28-.312-.184-.468-.454-.468-.798zm7.312 6.5v-3.64H2.188v.906h6.421V2.03zm0 0"/></symbol><symbol overflow="visible" id="j"><path d="M9.969-1.078v-8.5H8.922v1.344H6.203a3.074 3.074 0 0 0-1.016-.891 2.784 2.784 0 0 0-1.375-.344c-.437 0-.84.086-1.203.25-.367.168-.68.395-.937.672-.274.281-.48.613-.625.985a3.33 3.33 0 0 0-.203 1.171c0 .418.066.817.203 1.188.144.375.351.7.625.969.258.28.57.504.937.656.364.156.766.234 1.204.234.527 0 1.003-.113 1.421-.344.426-.238.77-.554 1.032-.953h2.656v3.563zM8.922-5.562H6.656c.04-.133.07-.27.094-.407.027-.144.047-.285.047-.422 0-.152-.02-.312-.047-.468a3.599 3.599 0 0 0-.094-.438h2.266zm-7-.829c0-.582.16-1.082.484-1.5.332-.414.801-.625 1.406-.625.602 0 1.07.211 1.407.625.332.418.5.918.5 1.5 0 .586-.168 1.086-.5 1.5-.336.407-.805.61-1.407.61-.605 0-1.074-.203-1.406-.61-.324-.414-.484-.914-.484-1.5zm8.36 8.125V.813H3.608v-2.875H2.531v3.796zm0 0"/></symbol><symbol overflow="visible" id="k"><path d="M10.906-3.11v-.937H9.094c.058-.32.125-.691.187-1.11.059-.425.117-.866.172-1.327.05-.465.094-.93.125-1.391.04-.457.067-.89.078-1.297H1.61v.922h6.922c-.031.71-.097 1.418-.187 2.125-.086.71-.2 1.402-.344 2.078H.375v.938h4.64v5.078h1.048V-3.11zm0 0"/></symbol><symbol overflow="visible" id="l"><path d="M6.266-7.375v-.031h2.609v-1.375H1.906v1.375H4.5v.015a2.198 2.198 0 0 1-.328.875 3.647 3.647 0 0 1-.64.766c-.345.293-.739.55-1.173.766a7.57 7.57 0 0 1-1.296.5c.183.168.39.367.609.593.226.22.422.418.578.594.332-.121.656-.273.969-.453.32-.176.625-.375.906-.594.258-.195.5-.41.719-.64.226-.239.41-.485.547-.735.152.262.347.504.578.719.226.219.476.426.75.61.277.187.562.355.843.5.29.136.567.242.829.312.101-.145.242-.328.421-.547.184-.215.368-.426.547-.625a4.672 4.672 0 0 1-1.015-.36 4.495 4.495 0 0 1-.953-.609 3.646 3.646 0 0 1-.766-.765 1.71 1.71 0 0 1-.36-.891zm3.687 5.297c-.273.031-.59.07-.953.11-.367.03-.738.066-1.11.093l-1.03.063c-.313.011-.544.015-.688.015v-2.016h-1.61v2.047H.938v1.454h3c.489 0 1.024-.004 1.61-.016.582-.02 1.156-.05 1.719-.094a36.501 36.501 0 0 0 1.546-.11c.477-.038.86-.085 1.141-.14zm2.063 4.406v-13.594h-1.579V2.328zM7.328-9.719v-1.344h-4v1.344zm0 0"/></symbol><symbol overflow="visible" id="m"><path d="M11.828-1.281v-9.985H10.25v9.985zm-6.36-7.844v-1.844H3.782v1.89c0 .513-.086.993-.25 1.438-.168.45-.398.856-.687 1.22-.324.437-.711.831-1.156 1.171a8.75 8.75 0 0 1-1.407.86c.215.18.453.378.703.593.246.211.442.383.579.516.289-.153.585-.348.89-.578.309-.227.613-.485.906-.766.278-.27.532-.563.75-.875.227-.32.399-.64.516-.953.164.324.375.633.625.922.258.293.535.558.828.797.27.23.547.445.828.64.29.188.563.34.813.453.12-.152.281-.347.468-.578.196-.238.383-.46.563-.672a5.49 5.49 0 0 1-1.234-.64 4.574 4.574 0 0 1-1.047-.985 4.69 4.69 0 0 1-.735-1.203 3.72 3.72 0 0 1-.265-1.406zm6.673 11.188V.64H4.53v-2.938H2.906v4.36zm0 0"/></symbol><symbol overflow="visible" id="n"><path d="M12.781-3.5v-1.438H7.437v-1.53h3.954v-1.407H3.625v-1.656h7.625v-1.39H2.016v4.452h3.78v1.532H.47V-3.5zM6.61 2.594c1.59 0 2.813-.258 3.657-.766.84-.512 1.265-1.144 1.265-1.89 0-.747-.426-1.368-1.265-1.86-.844-.496-2.067-.75-3.657-.75-1.593 0-2.816.254-3.656.75-.836.492-1.25 1.113-1.25 1.86 0 .746.414 1.378 1.25 1.89.84.508 2.063.766 3.656.766zM3.547-.078c0-.426.27-.754.812-.985.54-.238 1.29-.359 2.25-.359.946 0 1.696.129 2.25.375.551.242.829.574.829 1 0 .414-.278.738-.829.969-.554.226-1.304.344-2.25.344-.96 0-1.71-.121-2.25-.36-.543-.23-.812-.558-.812-.984zm0 0"/></symbol><symbol overflow="visible" id="o"><path d="M13-4.875v-1.406h-1.703v-1.563H13v-1.39h-1.703v-2.032H9.719v8.61h1.578v-2.219zm-6.313-5.203v-1.25H2.579v1.25zm1.844 2.062v-1.25H.766v1.25zm-7.36 2.61c0 .293.083.57.25.828.177.262.423.488.735.672.301.187.664.34 1.094.453.426.117.895.172 1.406.172 1.059 0 1.907-.203 2.532-.61.632-.402.953-.914.953-1.53 0-.583-.317-1.067-.938-1.454-.625-.395-1.473-.594-2.531-.594-.524 0-.996.055-1.422.157-.43.105-.793.257-1.094.453a2.19 2.19 0 0 0-.734.656c-.168.25-.25.52-.25.797zm5.298-.016c0 .324-.164.57-.485.734-.324.168-.761.25-1.312.25-.563 0-1.012-.078-1.344-.234-.324-.164-.484-.41-.484-.734 0-.301.16-.535.484-.703.332-.176.781-.266 1.344-.266.55 0 .988.086 1.312.25.32.168.485.402.485.703zM11.579 0c0-.395-.122-.742-.36-1.047a3.084 3.084 0 0 0-.953-.812 5.802 5.802 0 0 0-1.485-.5 9.175 9.175 0 0 0-1.89-.188c-.657 0-1.274.059-1.844.172a6.323 6.323 0 0 0-1.5.484c-.43.22-.77.489-1.016.797a1.63 1.63 0 0 0-.36 1.047c0 .402.114.77.345 1.094.238.32.57.598 1 .828.425.227.925.398 1.5.516a8.95 8.95 0 0 0 1.859.187c.664 0 1.281-.058 1.844-.172a6.442 6.442 0 0 0 1.5-.484c.426-.23.758-.508 1-.828.238-.313.36-.68.36-1.094zM3.936-.031c0-.227.083-.426.25-.594.165-.164.391-.29.672-.375a3.76 3.76 0 0 1 .922-.219c.352-.05.719-.078 1.094-.078.809 0 1.492.106 2.047.313.558.21.844.527.844.953a.828.828 0 0 1-.25.594 1.98 1.98 0 0 1-.641.406 4.121 4.121 0 0 1-.922.25c-.344.05-.7.078-1.062.078-.387 0-.758-.027-1.11-.078a3.988 3.988 0 0 1-.937-.25 1.58 1.58 0 0 1-.657-.406.812.812 0 0 1-.25-.594zm0 0"/></symbol><symbol overflow="visible" id="p"><path d="M12.797.828V-.609h-5.36v-2.766h3.766v-7.484H9.61v2.218H3.625v-2.218H2.031v7.484h3.75v2.766H.453V.828zm-3.188-5.64H3.625v-2.422h5.984zm0 0"/></symbol><symbol overflow="visible" id="q"><path d="M1.766-10.516v1.422h7.843a45.995 45.995 0 0 1-.265 3.344c-.137 1.156-.301 2.27-.485 3.328h1.579c.101-.57.203-1.207.296-1.906.09-.707.18-1.422.266-2.14.082-.708.148-1.41.203-2.11.05-.707.094-1.352.125-1.938zM12.796.828V-.609H6.314v-5.063h-1.61v5.063H.453V.828zm0 0"/></symbol><symbol overflow="visible" id="r"><path d="M11.828 2.328v-13.594h-1.594v3.954h-2.78v1.515h2.78v8.125zM5.438-7.719v-3H3.766v2.906c0 .688-.075 1.336-.22 1.938a6.99 6.99 0 0 1-1.78 3.328A8.17 8.17 0 0 1 .14-1.266c.238.168.484.356.734.563.246.2.453.371.61.515.288-.183.597-.437.921-.75.332-.32.649-.664.953-1.03.278-.352.532-.72.75-1.095.227-.37.399-.738.516-1.093.152.386.352.77.594 1.14.246.368.523.707.828 1.016A7.83 7.83 0 0 0 7.719-.484c.133-.153.304-.332.515-.532.215-.195.446-.39.688-.578A8.775 8.775 0 0 1 7.39-2.766a6.178 6.178 0 0 1-1.125-1.53 5.704 5.704 0 0 1-.625-1.548 8.044 8.044 0 0 1-.204-1.875zm0 0"/></symbol><symbol overflow="visible" id="t"><path d="M4.531-.922l-2.687-9.453H.172L3.734 1.141h1.579L8.89-10.375H7.219zm0 0"/></symbol><symbol overflow="visible" id="u"><path d="M4.016-6.25c.62 0 1.097.305 1.421.906.333.594.5 1.38.5 2.344 0 .992-.167 1.785-.5 2.375-.324.586-.8.875-1.421.875-.618 0-1.086-.29-1.407-.875-.324-.59-.484-1.383-.484-2.375 0-.965.16-1.75.484-2.344.32-.601.79-.906 1.407-.906zm0-1.266c-1.157 0-2.024.418-2.594 1.25C.859-5.43.578-4.34.578-3c0 1.375.281 2.465.844 3.266.57.808 1.437 1.218 2.594 1.218 1.144 0 2.015-.41 2.609-1.218.59-.801.89-1.891.89-3.266 0-1.34-.3-2.43-.89-3.266-.594-.832-1.465-1.25-2.61-1.25zm0 0"/></symbol><symbol overflow="visible" id="v"><path d="M.922-10.375V1.141h1.5v-11.516zm0 0"/></symbol><symbol overflow="visible" id="w"><path d="M1.063-.078v2.047h2.03V-.078zm0 0"/></symbol><symbol overflow="visible" id="x"><path d="M3.297-10.594c-1 0-1.746.551-2.235 1.64C.57-7.866.329-6.382.329-4.5c0 1.887.242 3.367.734 4.438C1.551.996 2.298 1.53 3.297 1.53c.976 0 1.723-.535 2.234-1.593.508-1.07.766-2.551.766-4.438 0-1.883-.258-3.367-.766-4.453-.511-1.09-1.258-1.64-2.234-1.64zm0 1.36c.433 0 .789.43 1.062 1.28.27.845.407 1.997.407 3.454 0 1.438-.137 2.582-.407 3.422C4.086-.234 3.73.188 3.297.188c-.45 0-.805-.422-1.063-1.266-.261-.84-.39-1.984-.39-3.422 0-1.457.129-2.61.39-3.453.258-.852.614-1.281 1.063-1.281zm0 0"/></symbol><symbol overflow="visible" id="y"><path d="M4.781-3.484c-.086 1.156-.289 2.07-.61 2.734-.312.656-.675.984-1.077.984-.367 0-.653-.183-.86-.546-.199-.372-.316-.801-.343-1.282H.406c0 1 .242 1.77.735 2.313.488.55 1.14.828 1.953.828.59 0 1.097-.176 1.515-.516.414-.343.75-.816 1-1.406.258-.602.442-1.313.547-2.125.114-.809.172-1.688.172-2.625 0-.809-.058-1.555-.172-2.234-.117-.676-.3-1.25-.547-1.72a3.155 3.155 0 0 0-.953-1.124c-.386-.27-.851-.406-1.39-.406-.93 0-1.668.37-2.22 1.109-.542.73-.812 1.723-.812 2.969 0 .656.078 1.226.235 1.703.152.48.367.871.64 1.172.246.312.547.543.891.687.34.149.691.219 1.047.219.308 0 .617-.05.922-.156.3-.102.57-.297.812-.578zm-1.562-.61c-.45 0-.805-.238-1.063-.718-.261-.489-.39-1.125-.39-1.907 0-.758.129-1.379.39-1.86.258-.476.614-.718 1.063-.718.394 0 .738.246 1.031.735.29.48.438 1.097.438 1.843 0 .793-.145 1.43-.422 1.907-.282.48-.633.718-1.047.718zm0 0"/></symbol><symbol overflow="visible" id="z"><path d="M2.016-11.11L3.5-1.577l1.422-9.531H6.39L4.297.42h-1.61L.517-11.108zm6.296 0V.423H6.954V-11.11zm2.422 0V.423H9.391V-11.11zm2.438 0V.423h-1.344V-11.11zm0 0"/></symbol><symbol overflow="visible" id="A"><path d="M1.39-.766h1.766v1.844H1.391zm0 0"/></symbol><symbol overflow="visible" id="C"><path d="M11.938-4.328h-4.11v3.25h5.781V.266H.5v-1.344h5.781v-3.25H2.266v-6.938h9.5v1.344h-7.97v4.25h8.142zm0 0"/></symbol><symbol overflow="visible" id="D"><path d="M.5-4.297V-5.64h13.11v1.344H7.827v1.484h3.906V2.22H2.375v-5.031h3.906v-1.485zm6.547-8c.683 0 1.312.067 1.875.188.558.117 1.039.289 1.437.515.403.219.72.492.938.813.226.312.344.68.344 1.094v.453c0 .418-.118.789-.344 1.109-.219.313-.535.586-.938.813a5.084 5.084 0 0 1-1.437.5 9.256 9.256 0 0 1-1.875.171c-.68 0-1.3-.054-1.86-.171a5.196 5.196 0 0 1-1.453-.5c-.406-.227-.722-.5-.937-.813a1.922 1.922 0 0 1-.328-1.11v-.453c0-.414.11-.78.328-1.093.215-.32.531-.594.937-.813.403-.226.891-.398 1.454-.515a8.786 8.786 0 0 1 1.859-.188zm0 4.36c.445 0 .86-.032 1.234-.094.383-.07.711-.164.985-.281a1.83 1.83 0 0 0 .64-.422.81.81 0 0 0 .235-.563v-.328c0-.195-.082-.379-.235-.547a1.802 1.802 0 0 0-.64-.437 4.043 4.043 0 0 0-.985-.282 8.262 8.262 0 0 0-2.484 0c-.375.063-.7.16-.969.282a1.768 1.768 0 0 0-.625.437.792.792 0 0 0-.234.547v.328c0 .211.078.399.234.563.152.168.363.308.625.421.27.118.594.211.969.282.383.062.8.094 1.25.094zm3.172 6.453H3.89V.89h6.328zm0 0"/></symbol><symbol overflow="visible" id="E"><path d="M8.781-6.797c-.511-.258-.902-.488-1.172-.687-.273-.207-.457-.407-.546-.594h-.016c-.086.187-.262.387-.531.594-.274.21-.668.445-1.188.703-.418.218-.894.46-1.422.718-.523.25-1.105.504-1.75.75l-.61-1.28a26.606 26.606 0 0 0 1.704-.735 22.463 22.463 0 0 0 1.594-.813c.3-.164.547-.336.734-.515.195-.176.348-.352.453-.531.102-.184.172-.368.203-.547.04-.184.063-.38.063-.579h-4.11v-1.343h9.766v1.344H7.828c0 .199.016.394.047.578.04.18.11.363.203.546.102.18.25.356.438.532.183.18.437.351.75.515.496.282 1.023.555 1.578.813.558.262 1.133.508 1.719.734l-.594 1.266c-.656-.246-1.246-.5-1.766-.75a91.81 91.81 0 0 1-1.422-.719zm-2.5 9.031v-5.046H.5v-1.344h13.11v1.343H7.827v5.047zm0 0"/></symbol><symbol overflow="visible" id="F"><path d="M4.89.703h7.735v1.375H3.359v-4.953h1.532zm5.876-2.719V-12.5h1.53v10.484zM4.953-7.03c-.043.136-.168.332-.375.578-.2.242-.418.476-.656.703-.324.305-.707.645-1.14 1.016-.43.375-.852.738-1.266 1.078L.609-4.781c.239-.184.477-.38.72-.578.245-.207.484-.407.702-.594.227-.195.43-.383.61-.563.183-.175.347-.332.484-.468.195-.196.36-.391.484-.579.133-.183.239-.378.313-.578.082-.195.14-.406.172-.625a6.39 6.39 0 0 0 .047-.765v-2.281h1.546v2.218c0 .25.004.477.016.672.02.2.055.383.11.547.05.168.128.336.234.5.113.168.266.336.453.5.352.344.75.707 1.188 1.078.445.367.898.715 1.359 1.047l-.89 1.11c-.4-.31-.79-.63-1.173-.954-.375-.32-.754-.644-1.125-.968a5.304 5.304 0 0 1-.593-.547 1.656 1.656 0 0 1-.297-.422zm0 0"/></symbol><symbol overflow="visible" id="G"><path d="M11.719-6.25H2.375v-5.844h1.516v1.719h6.312v-1.734h1.516zM6.469-.86v-2.734H.5v-1.344h13.11v1.344H8.015v2.735zM3.922.704H12v1.375H2.39v-4.187h1.532zM3.89-7.578h6.312v-1.516H3.891zm0 0"/></symbol><symbol overflow="visible" id="H"><path d="M2.375 2.328v-3.687h7.844v-1.125H2.297v-1.282h9.422v3.672H3.875v1.125h8.266v1.297zm11.234-8.562v1.312H.5v-1.312zm-2.015-5.875v1.312h-7.64v2.078h7.733v1.328h-9.25v-4.718zm0 0"/></symbol><symbol overflow="visible" id="I"><path d="M4.938.703h7.687v1.375H3.406v-4.89h1.531zm5.875-2.687V-12.5h1.53v10.516zM6.78-8.47c0-.246-.043-.492-.125-.734a1.79 1.79 0 0 0-1.031-1.14 2.216 2.216 0 0 0-.938-.188c-.375 0-.699.066-.968.187a1.726 1.726 0 0 0-.656.469c-.168.2-.293.426-.376.672-.074.242-.109.488-.109.734v.703c0 .243.04.489.125.735.082.242.207.46.375.656.164.2.379.363.64.484.27.125.595.188.97.188.363 0 .675-.063.937-.188.27-.12.488-.285.656-.484.176-.195.301-.414.375-.656a2.32 2.32 0 0 0 .125-.735zM1.094-8.53c0-.364.07-.742.218-1.14a3.13 3.13 0 0 1 .672-1.095c.301-.332.672-.601 1.11-.812.445-.215.976-.328 1.594-.328.59 0 1.113.113 1.562.328.445.21.82.48 1.125.812.3.325.523.692.672 1.094.144.399.219.777.219 1.14v.829c0 .367-.075.746-.22 1.14a3.368 3.368 0 0 1-.671 1.094c-.305.336-.68.614-1.125.828-.45.211-.973.313-1.563.313-.617 0-1.148-.102-1.593-.313a3.605 3.605 0 0 1-1.11-.828 3.239 3.239 0 0 1-.671-1.093 3.22 3.22 0 0 1-.22-1.141zm0 0"/></symbol><symbol overflow="visible" id="J"><path d="M2.375 2.328v-3.656h7.844v-1.078H2.297v-1.297H6.28v-1.39H.5v-1.313h13.11v1.312H7.827v1.39h3.89v3.642H3.876V1.03h8.266v1.297zm9.328-9.75H2.406v-4.734h9.297zm-1.5-3.437H3.906v2.125h6.297zm0 0"/></symbol><symbol overflow="visible" id="K"><path d="M7.047-7.172c-.086.18-.277.41-.578.688-.305.273-.723.582-1.25.921-.45.305-.93.614-1.438.922-.511.313-1.09.66-1.734 1.032L1.28-4.86a90.99 90.99 0 0 0 1.703-.985c.52-.308 1.04-.648 1.563-1.015.34-.239.629-.47.86-.688.226-.226.405-.46.53-.703.133-.246.223-.52.266-.813.05-.3.078-.648.078-1.046v-1.438h1.547v1.438c0 .398.02.746.063 1.046.039.293.129.567.265.813.133.25.32.496.563.734.246.23.586.489 1.015.766.489.336.973.648 1.454.938.488.28 1.035.597 1.64.937l-.734 1.234c-.586-.34-1.153-.675-1.703-1a30.53 30.53 0 0 1-1.516-.953c-.5-.332-.91-.633-1.219-.906-.312-.27-.511-.492-.593-.672zm6.562 6.094V.266H.5v-1.344h5.781v-3.156h1.532v3.156zm0 0"/></symbol><symbol overflow="visible" id="L"><path d="M12.906 2.234h-1.5v-8.218H9.687v7.5h-1.5v-13.72h1.5v4.845h1.72V-12.5h1.5zM4.97-9.703H1v-1.36h5.484v3c0 .481-.023.918-.062 1.313a5.436 5.436 0 0 1-.25 1.14 4.34 4.34 0 0 1-.516 1.048c-.23.335-.535.69-.906 1.062-.367.367-.82.762-1.36 1.188-.542.43-1.19.898-1.937 1.406L.61-2.141a27.167 27.167 0 0 0 1.829-1.312c.496-.395.91-.758 1.234-1.094.332-.332.586-.648.765-.953.176-.309.301-.613.375-.906.07-.29.114-.594.125-.907.02-.308.032-.648.032-1.015zm0 0"/></symbol><symbol overflow="visible" id="M"><path d="M10.031-5.516L13.125.422h-1.766L9-4.5 6.734.422H5.031L8.078-5.61l-2.812-5.5h1.718l2.157 4.546 2.109-4.546h1.64zm-5.64-5.593V.42h-1.5v-11.53zm0 0"/></symbol><symbol overflow="visible" id="N"><path d="M11.781-3.5v5.719H3.062V-3.5zm-5.86-6.797H1.36v-1.344h6.063v2.235c0 .625-.09 1.164-.266 1.61-.18.448-.496.87-.953 1.265-.45.398-1.07.804-1.86 1.218-.78.407-1.784.88-3 1.407L.782-5.172a35.177 35.177 0 0 0 2.64-1.234c.677-.364 1.196-.703 1.563-1.016.371-.32.625-.644.75-.969.121-.332.188-.707.188-1.125zM4.595.875h5.672v-3.031H4.594zm9.218-8.578h-2.03v3.484h-1.516V-12.5h1.515v3.422h2.031zm0 0"/></symbol><symbol overflow="visible" id="O"><path d="M13.875-5.797h-2.203v8.031H10.14V-12.5h1.53v5.328h2.204zm-9.14.64c-.075.18-.184.364-.329.548-.136.18-.332.402-.578.671-.324.368-.695.762-1.11 1.188-.405.418-.878.879-1.405 1.375l-1-1.078a32.272 32.272 0 0 0 2.453-2.469c.226-.277.421-.535.578-.766.152-.238.273-.472.36-.703.089-.226.155-.46.187-.703.039-.238.062-.5.062-.781v-3.547H5.5v3.547c0 .313.02.598.063.844a3.406 3.406 0 0 0 .578 1.406c.164.23.367.48.609.75.32.375.664.742 1.031 1.094.364.355.774.746 1.235 1.172L8.03-1.516a39.083 39.083 0 0 1-1.36-1.328c-.366-.383-.698-.742-1-1.078-.218-.238-.413-.46-.577-.672a2.286 2.286 0 0 1-.344-.562zm0 0"/></symbol><symbol overflow="visible" id="P"><path d="M5.328-4.406c-.586 0-1.113-.086-1.578-.266a4.018 4.018 0 0 1-1.203-.719 3.209 3.209 0 0 1-.75-1.03 2.799 2.799 0 0 1-.266-1.204v-.734c0-.414.086-.817.266-1.204.176-.382.426-.722.75-1.015.332-.3.734-.54 1.203-.719a4.271 4.271 0 0 1 1.578-.281c.59 0 1.117.098 1.578.281.465.18.867.418 1.203.719a2.9 2.9 0 0 1 .75 1.015c.176.387.266.79.266 1.204v.734c0 .418-.09.82-.266 1.203-.168.387-.418.73-.75 1.031a4.118 4.118 0 0 1-1.203.72c-.46.179-.988.265-1.578.265zm0-1.375c.32 0 .625-.051.906-.157.29-.113.54-.257.75-.437.207-.176.368-.379.485-.61.12-.238.187-.484.187-.734v-.547c0-.257-.066-.507-.187-.75a1.792 1.792 0 0 0-.485-.609 2.495 2.495 0 0 0-.75-.422 2.66 2.66 0 0 0-.906-.156 2.628 2.628 0 0 0-1.656.578c-.211.168-.379.371-.5.61a1.698 1.698 0 0 0-.172.75v.546c0 .25.055.496.172.735.121.23.289.433.5.609.215.18.469.324.75.438.277.105.582.156.906.156zM10.25-1.22a97.43 97.43 0 0 1-2.016.172c-.68.055-1.398.098-2.156.125-.762.031-1.574.059-2.437.078-.856.012-1.79.016-2.797.016v-1.375c1.02 0 1.953-.004 2.797-.016.851-.008 1.648-.023 2.39-.047a73.347 73.347 0 0 0 2.11-.109c.664-.05 1.32-.11 1.968-.172zm.734 3.453V-12.5h1.532V2.234zm0 0"/></symbol><symbol overflow="visible" id="Q"><path d="M2.375 2.328v-3.937h7.844V-3H2.297v-1.297h9.422v3.938H3.875v1.39h8.266v1.297zm-.172-14.344h9.438v1.797c0 .406-.028.899-.079 1.469a24.21 24.21 0 0 1-.203 1.594h2.25v1.343H.5v-1.343h9.266c.113-.54.195-1.078.25-1.61.05-.527.078-1.035.078-1.515v-.406h-7.89zm0 0"/></symbol><symbol overflow="visible" id="R"><path d="M6.5-12.281L1.75 2.047H.281L5-12.281zm0 0"/></symbol><symbol overflow="visible" id="S"><path d="M2.703-6.719c0-.332.086-.648.266-.953.176-.3.445-.562.812-.781.371-.215.832-.383 1.375-.5a8.692 8.692 0 0 1 1.89-.188c.727 0 1.364.067 1.907.188.54.117.992.285 1.36.5.363.219.632.48.812.781.184.305.281.621.281.953v.39c0 .345-.097.669-.281.97-.18.293-.45.55-.813.765-.367.219-.82.395-1.359.516-.543.117-1.18.172-1.906.172-.719 0-1.352-.055-1.89-.172a4.745 4.745 0 0 1-1.376-.516c-.367-.215-.636-.472-.812-.765-.18-.301-.266-.625-.266-.97zm3.578 8.953V-1.78H.5V-3.11h13.11v1.328H7.827v4.015zm1.563-13.343h4.547v1.328H1.719v-1.328h4.547v-1.672h1.578zM4.219-6.406c0 .125.05.27.156.422.113.148.285.277.516.39.226.117.52.215.875.297.363.086.789.125 1.28.125.497 0 .927-.039 1.282-.125.352-.082.645-.18.875-.297.238-.113.41-.242.516-.39.113-.153.172-.297.172-.422v-.235c0-.12-.059-.257-.172-.406-.106-.144-.278-.273-.516-.39a3.41 3.41 0 0 0-.875-.297 5.78 5.78 0 0 0-1.281-.125c-.492 0-.918.043-1.281.125a3.308 3.308 0 0 0-.875.296c-.23.118-.403.247-.516.391-.105.149-.156.285-.156.406zm0 0"/></symbol><symbol overflow="visible" id="T"><path d="M5.203-6.703a4.89 4.89 0 0 1-1.469-.203 3.464 3.464 0 0 1-1.109-.547 2.424 2.424 0 0 1-.703-.797 2.094 2.094 0 0 1-.234-.953v-.516c0-.332.078-.644.234-.937.164-.301.398-.567.703-.797.3-.238.672-.426 1.11-.563a4.642 4.642 0 0 1 1.468-.218c.55 0 1.04.074 1.469.218.433.137.805.325 1.11.563.308.23.546.496.702.797.153.293.235.605.235.937v.516c0 .324-.082.644-.235.953-.156.305-.394.57-.703.797-.304.23-.676.414-1.11.547-.429.136-.917.203-1.468.203zm5.703 5.61v-1.298H7.891v-1.328h3.015V-12.5h1.531v11.406zM4.61.733h8.11v1.36H3.063V-1.86h1.546zm-.312-3.187v-2.11A89.849 89.849 0 0 1 .766-4.5v-1.375h2.39c.739-.008 1.461-.031 2.172-.063A106.37 106.37 0 0 0 7.5-6.046c.738-.05 1.531-.113 2.375-.187l.11 1.328c-.669.074-1.348.136-2.032.187a80.59 80.59 0 0 1-2.14.11v2.156zm.906-5.578c.332 0 .625-.035.875-.11a2.07 2.07 0 0 0 .64-.28c.177-.122.313-.259.407-.407a.931.931 0 0 0 .14-.469v-.328a.878.878 0 0 0-.14-.453 1.34 1.34 0 0 0-.406-.406 2.272 2.272 0 0 0-.64-.282 2.814 2.814 0 0 0-.876-.125c-.324 0-.617.043-.875.125-.25.075-.465.168-.64.282-.18.117-.317.254-.407.406a.843.843 0 0 0-.14.453v.328c0 .156.046.317.14.469.09.148.227.285.406.406.176.117.391.211.641.281.258.075.55.11.875.11zm0 0"/></symbol><symbol overflow="visible" id="U"><path d="M4.781-5.047c-.074.18-.183.367-.328.563-.148.187-.348.425-.594.703-.324.355-.683.742-1.078 1.156-.386.406-.847.863-1.375 1.36l-1-1.063a43.2 43.2 0 0 0 1.266-1.25c.394-.395.77-.797 1.125-1.203.246-.278.453-.54.61-.782.152-.238.273-.468.359-.687a3.03 3.03 0 0 0 .171-.672c.028-.238.047-.508.047-.812v-2.047H.922v-1.375h7.61v1.375h-3v2.047c0 .324.015.605.046.843.027.23.086.45.172.657.09.21.223.43.39.656.165.23.383.504.657.812.332.375.672.739 1.016 1.079.351.335.757.71 1.218 1.124l-1 1.079a47.8 47.8 0 0 1-1.328-1.282c-.344-.363-.668-.707-.969-1.03a28.774 28.774 0 0 1-.593-.688c-.18-.215-.293-.407-.344-.563zm9.094-.625h-2.203v7.906H10.14V-12.5h1.53v5.453h2.204zm0 0"/></symbol><symbol overflow="visible" id="V"><path d="M8.047-5.531l3.61 5.953H9.843L7-4.531 4.172.422H2.438l3.609-6.016-3.375-5.515H4.5l2.625 4.546 2.625-4.546h1.719zm0 0"/></symbol><symbol overflow="visible" id="W"><path d="M1.094-2.234a45.91 45.91 0 0 0 2.11-1.329c.57-.394 1.046-.753 1.421-1.078.383-.32.688-.625.906-.906.215-.289.38-.578.485-.86.113-.277.18-.57.203-.874.027-.309.047-.66.047-1.047v-1.453H1.375v-1.36h6.406v2.829c0 .48-.02.917-.047 1.312a3.97 3.97 0 0 1-.218 1.094 4.471 4.471 0 0 1-.547 1.031c-.242.336-.586.695-1.032 1.078-.437.375-.988.793-1.64 1.25-.656.461-1.457.988-2.39 1.578zm9.703 4.468V-12.5h1.547V2.234zm0 0"/></symbol><symbol overflow="visible" id="X"><path d="M11.75-5.406H2.36v-6.516h1.515v2.016h6.36v-2.031h1.515zm-5.469 7.64v-4.687H.5v-1.328h13.11v1.328H7.827v4.687zm-2.406-9h6.36v-1.796h-6.36zm0 0"/></symbol><symbol overflow="visible" id="Y"><path d="M11.734 2.219H2.375v-5.594h9.36zm-9.53-14.094h9.437v2.266c0 .449-.028.957-.079 1.515a19.781 19.781 0 0 1-.234 1.672h2.281v1.344H.5v-1.344h9.25c.121-.59.21-1.16.266-1.703.05-.55.078-1.066.078-1.547v-.86h-7.89zm8.015 9.828H3.89V.891h6.328zm0 0"/></symbol><symbol overflow="visible" id="Z"><path d="M7.047-12.313c.683 0 1.312.067 1.875.188.558.125 1.039.305 1.437.531.403.23.72.512.938.844.226.324.344.695.344 1.11v.453c0 .449-.13.847-.375 1.187-.243.336-.582.617-1.016.844v1.953h3.36v1.328H.5v-1.328h3.375v-1.938c-.46-.238-.809-.523-1.047-.859a1.996 1.996 0 0 1-.36-1.188v-.453c0-.414.11-.785.329-1.109.215-.332.531-.613.937-.844.403-.226.891-.406 1.454-.531a8.786 8.786 0 0 1 1.859-.188zm0 14.97c-.73 0-1.379-.083-1.938-.235-.562-.149-1.039-.348-1.421-.594-.387-.25-.676-.535-.86-.844a1.862 1.862 0 0 1-.281-.968v-.547c0-.309.094-.63.281-.953.184-.32.473-.602.86-.844a5.21 5.21 0 0 1 1.421-.61 7.394 7.394 0 0 1 1.938-.234c.738 0 1.39.082 1.953.235.559.156 1.031.363 1.406.609.371.242.66.523.86.844.195.324.296.644.296.953v.547c0 .32-.101.64-.296.953-.2.32-.489.601-.86.844-.375.246-.847.453-1.406.609a7.496 7.496 0 0 1-1.953.234zm0-10.485c.445 0 .86-.035 1.234-.11.383-.07.711-.164.985-.28.27-.122.484-.274.64-.454a.868.868 0 0 0 .235-.578v-.328c0-.207-.082-.399-.235-.578a1.934 1.934 0 0 0-.64-.453 4.043 4.043 0 0 0-.985-.282C7.906-10.96 7.492-11 7.047-11c-.45 0-.867.04-1.25.11-.375.062-.7.16-.969.28a1.9 1.9 0 0 0-.625.454.864.864 0 0 0-.234.578v.328c0 .21.078.402.234.578.152.18.363.332.625.453.27.117.594.211.969.281.383.075.8.11 1.25.11zm0 5.953c-.461 0-.879.05-1.25.14a4.09 4.09 0 0 0-.938.344c-.25.137-.449.293-.593.47-.137.179-.204.35-.204.515v.297c0 .164.067.336.204.515.144.176.343.332.593.469.246.145.563.258.938.344.371.09.789.14 1.25.14.465 0 .883-.05 1.25-.14.371-.086.687-.2.937-.344.258-.137.457-.293.594-.469.145-.18.219-.351.219-.515v-.297c0-.164-.074-.336-.219-.516a1.816 1.816 0 0 0-.594-.469 4.232 4.232 0 0 0-.937-.343 5.269 5.269 0 0 0-1.25-.141zm0-4.64c-.293 0-.582-.005-.86-.016a4.534 4.534 0 0 1-.796-.125v1.453h3.328v-1.469a8.3 8.3 0 0 1-1.672.156zm0 0"/></symbol><symbol overflow="visible" id="aa"><path d="M12.86 2.234h-1.5v-8.562H9.546v7.844h-1.5v-13.72h1.5v4.5h1.812V-12.5h1.5zM2.702-11.109v7.906h.61c.59 0 1.187-.016 1.78-.047.602-.04 1.227-.117 1.876-.234L7.14-2.11c-.625.117-1.309.195-2.047.234-.742.043-1.555.063-2.438.063h-1.5v-9.297zm0 0"/></symbol><symbol overflow="visible" id="ab"><path d="M8.047-7.922c0 .344-.074.711-.219 1.094a2.973 2.973 0 0 1-.64 1.047A3.556 3.556 0 0 1 6.077-5c-.45.2-.976.297-1.578.297-.617 0-1.148-.098-1.594-.297a3.748 3.748 0 0 1-1.11-.781 2.864 2.864 0 0 1-.64-1.047 3.259 3.259 0 0 1-.203-1.094v-.828c0-.34.067-.707.203-1.094a2.93 2.93 0 0 1 .64-1.047 3.64 3.64 0 0 1 1.11-.765c.446-.207.977-.313 1.594-.313.602 0 1.129.106 1.578.313.445.199.817.457 1.11.765.289.313.503.664.64 1.047.145.387.219.754.219 1.094zM3.016-3.188h9.421v5.563h-1.546v-4.203H3.016zm7.906-.765v-2H8.687v-1.36h2.235v-1.953H8.687v-1.359h2.235V-12.5h1.515v8.547zM6.578-8.656c0-.239-.043-.473-.125-.703a1.887 1.887 0 0 0-.39-.625 1.73 1.73 0 0 0-.657-.438 2.273 2.273 0 0 0-.906-.172c-.367 0-.68.059-.938.172a1.698 1.698 0 0 0-.64.438 1.993 1.993 0 0 0-.5 1.328v.64c0 .243.039.477.125.704a1.829 1.829 0 0 0 1.015 1.078c.258.105.57.156.938.156.34 0 .645-.05.906-.156.27-.114.489-.266.657-.454.175-.183.304-.394.39-.625.082-.226.125-.46.125-.703zm0 0"/></symbol><symbol overflow="visible" id="ac"><path d="M7.953-5.531H1.422v-6.235h6.531zM12.5-3.11v1.296H8.61c.007.18.03.336.062.47.039.136.11.273.203.405.102.125.238.247.406.36.164.105.375.223.625.344.239.105.469.207.688.296.226.102.469.208.719.313.246.102.515.207.796.313.29.101.614.218.97.343l-.548 1.282a52.309 52.309 0 0 1-1.656-.641l-1.406-.594C8.625.691 8.082.301 7.844-.094c-.25.403-.801.801-1.64 1.188-.438.183-.915.383-1.423.593-.5.208-1.05.422-1.64.641l-.563-1.265C3.273.788 3.868.554 4.36.359c.489-.187.957-.382 1.407-.593.488-.239.82-.473 1-.704.175-.238.273-.53.296-.875H3.156v-1.296h3.906v-1.563H8.61v1.563zM2.906-6.86H6.47v-3.579H2.906zm7.906 2.437V-12.5h1.532v8.078zm0 0"/></symbol><symbol overflow="visible" id="ad"><path d="M.89-8.531c0-.364.067-.742.204-1.14a3.13 3.13 0 0 1 .672-1.095c.3-.332.671-.601 1.109-.812.445-.215.977-.328 1.594-.328.59 0 1.113.113 1.562.328.457.21.832.48 1.125.812.301.325.524.692.672 1.094.145.399.219.777.219 1.14v.829c0 .367-.074.746-.219 1.14a3.368 3.368 0 0 1-.672 1.094 3.373 3.373 0 0 1-1.125.828c-.449.211-.972.313-1.562.313-.617 0-1.149-.102-1.594-.313a3.605 3.605 0 0 1-1.11-.828 3.239 3.239 0 0 1-.671-1.093A3.468 3.468 0 0 1 .89-7.704zM13.813-7h-2.03v5.016h-1.516V-12.5h1.515v4.125h2.031zM4.595.703h7.578v1.375H3.047v-4.89h1.547zm1.984-9.172c0-.246-.043-.492-.125-.734a2.008 2.008 0 0 0-.39-.672 1.79 1.79 0 0 0-.657-.469 2.216 2.216 0 0 0-.937-.187c-.375 0-.7.066-.969.187a1.726 1.726 0 0 0-.656.469c-.168.2-.293.426-.375.672-.074.242-.11.488-.11.734v.703c0 .243.04.489.125.735.082.242.207.46.375.656.164.2.38.363.641.484.27.125.594.188.969.188.363 0 .676-.063.937-.188.27-.12.489-.285.657-.484a1.94 1.94 0 0 0 .39-.656 2.32 2.32 0 0 0 .125-.735zm0 0"/></symbol></defs><g fill="#33459a"><use xlink:href="#a" x="377.966" y="195.92"/><use xlink:href="#b" x="389.049" y="195.92"/><use xlink:href="#c" x="400.132" y="195.92"/><use xlink:href="#d" x="411.215" y="195.92"/><use xlink:href="#e" x="422.299" y="195.92"/><use xlink:href="#f" x="425.825" y="195.92"/><use xlink:href="#g" x="436.909" y="195.92"/><use xlink:href="#h" x="447.992" y="195.92"/><use xlink:href="#i" x="459.075" y="195.92"/><use xlink:href="#j" x="470.159" y="195.92"/><use xlink:href="#k" x="481.242" y="195.92"/><use xlink:href="#a" x="492.325" y="195.92"/><use xlink:href="#b" x="503.409" y="195.92"/><use xlink:href="#e" x="514.492" y="195.92"/></g><g fill="#495756"><use xlink:href="#l" x="377.966" y="218.358"/><use xlink:href="#m" x="390.962" y="218.358"/><use xlink:href="#n" x="403.959" y="218.358"/><use xlink:href="#o" x="416.956" y="218.358"/><use xlink:href="#p" x="429.953" y="218.358"/><use xlink:href="#q" x="442.949" y="218.358"/><use xlink:href="#r" x="455.946" y="218.358"/><use xlink:href="#s" x="468.943" y="218.358"/><use xlink:href="#t" x="473.078" y="218.358"/></g><g fill="#495756"><use xlink:href="#u" x="481.009" y="218.358"/><use xlink:href="#v" x="488.748" y="218.358"/><use xlink:href="#w" x="491.776" y="218.358"/><use xlink:href="#s" x="495.911" y="218.358"/><use xlink:href="#x" x="500.046" y="218.358"/><use xlink:href="#y" x="506.397" y="218.358"/></g><g fill="#33459a"><use xlink:href="#z" x="333.925" y="372.96"/><use xlink:href="#A" x="347.876" y="372.96"/><use xlink:href="#B" x="352.278" y="372.96"/><use xlink:href="#C" x="355.998" y="372.96"/><use xlink:href="#D" x="369.949" y="372.96"/><use xlink:href="#E" x="383.9" y="372.96"/><use xlink:href="#F" x="397.851" y="372.96"/><use xlink:href="#B" x="411.802" y="372.96"/><use xlink:href="#G" x="415.523" y="372.96"/><use xlink:href="#H" x="429.474" y="372.96"/><use xlink:href="#B" x="443.425" y="372.96"/><use xlink:href="#I" x="447.145" y="372.96"/><use xlink:href="#J" x="461.096" y="372.96"/><use xlink:href="#B" x="475.047" y="372.96"/><use xlink:href="#K" x="478.767" y="372.96"/><use xlink:href="#L" x="492.718" y="372.96"/></g><g fill="#33459a"><use xlink:href="#M" x="344.977" y="399.927"/><use xlink:href="#A" x="358.928" y="399.927"/><use xlink:href="#B" x="363.33" y="399.927"/><use xlink:href="#N" x="367.05" y="399.927"/><use xlink:href="#O" x="381.001" y="399.927"/><use xlink:href="#P" x="394.952" y="399.927"/><use xlink:href="#B" x="408.903" y="399.927"/><use xlink:href="#Q" x="412.624" y="399.927"/><use xlink:href="#R" x="426.575" y="399.927"/><use xlink:href="#S" x="433.194" y="399.927"/><use xlink:href="#T" x="447.145" y="399.927"/><use xlink:href="#U" x="461.096" y="399.927"/><use xlink:href="#B" x="475.047" y="399.927"/><use xlink:href="#K" x="478.767" y="399.927"/><use xlink:href="#L" x="492.718" y="399.927"/></g><g fill="#33459a"><use xlink:href="#V" x="302.303" y="426.894"/><use xlink:href="#A" x="316.254" y="426.894"/><use xlink:href="#B" x="320.656" y="426.894"/><use xlink:href="#W" x="324.376" y="426.894"/><use xlink:href="#X" x="338.327" y="426.894"/><use xlink:href="#Y" x="352.278" y="426.894"/><use xlink:href="#B" x="366.229" y="426.894"/><use xlink:href="#O" x="369.95" y="426.894"/><use xlink:href="#Z" x="383.901" y="426.894"/><use xlink:href="#B" x="397.852" y="426.894"/><use xlink:href="#aa" x="401.572" y="426.894"/><use xlink:href="#ab" x="415.523" y="426.894"/><use xlink:href="#B" x="429.474" y="426.894"/><use xlink:href="#ac" x="433.194" y="426.894"/><use xlink:href="#B" x="447.145" y="426.894"/><use xlink:href="#S" x="450.866" y="426.894"/><use xlink:href="#T" x="464.817" y="426.894"/><use xlink:href="#ad" x="478.768" y="426.894"/><use xlink:href="#aa" x="492.719" y="426.894"/></g></svg>