<svg xmlns="http://www.w3.org/2000/svg" xmlns:xlink="http://www.w3.org/1999/xlink" width="793.701" height="1058.268" viewBox="0 0 595.276 793.701" version="1.2"><defs><symbol overflow="visible" id="a"><path d="M7.422 1.36v-7.985h-.734v2.938h-.954V-6.5H5V.984h.734v-3.953h.954V1.36zM2.938-4.626v-.813H4.28v-.625H.813v.625h1.359v.688c0 .48-.043.926-.125 1.328a4.915 4.915 0 0 1-.344 1.125 3.87 3.87 0 0 1-.64.938c-.25.28-.551.539-.891.765.05.043.11.086.172.125.07.031.133.067.187.094a17.48 17.48 0 0 0 .328.234c.176-.12.352-.28.532-.468.175-.196.347-.407.515-.625.145-.196.274-.407.39-.625a3.29 3.29 0 0 0 .25-.672c.052.219.13.43.235.625a4.693 4.693 0 0 0 .844 1.078c.164.156.332.289.5.39a1 1 0 0 1 .266-.25l.125-.125.156-.125a3.154 3.154 0 0 1-.797-.656 3.326 3.326 0 0 1-.547-.86 5.18 5.18 0 0 1-.297-.983 7.006 7.006 0 0 1-.094-1.188zm0 0"/></symbol><symbol overflow="visible" id="b"><path d="M6.078-6.625V-.75h.75v-3.266h1.11v-.64h-1.11v-1.969zm-.344 3.234a5.189 5.189 0 0 1-.562.094c-.242.031-.496.067-.766.094a19.67 19.67 0 0 1-.812.078 8.224 8.224 0 0 1-.703.031l-1.313.016v-2.547H4.61v-.64H.844v3.843H2.25c.227-.008.422-.015.578-.015.258-.008.531-.024.813-.047.277-.02.55-.047.812-.079.258-.027.5-.062.719-.093a3.59 3.59 0 0 0 .562-.11zm1.344 4.594v-.64H2.422v-2.016h-.75v2.656zm0 0"/></symbol><symbol overflow="visible" id="c"><path d="M7.11-2.313v-4.312h-.75v1.578H4.624v-1.312h-.719v1.187h-2.25v-1.187H.922v3.687h3.703V-4.39h1.734v2.079zm-3.204-1h-2.25V-4.53h2.25zM7.11 1.282v-3.234h-.75v.922H2.547v-.922h-.75V1.28zm-.75-.61H2.547V-.405h3.812zm0 0"/></symbol><symbol overflow="visible" id="d"><path d="M7.11-.75v-5.875h-.75V-.75zM.61-4.406c0 .281.05.554.156.812.101.25.242.477.421.672.196.18.422.324.672.438.258.117.551.171.875.171.301 0 .582-.054.844-.171.258-.114.485-.258.672-.438.184-.195.332-.422.438-.672a2.21 2.21 0 0 0 .156-.812c0-.29-.055-.563-.157-.813a2.292 2.292 0 0 0-.437-.687 2.083 2.083 0 0 0-.672-.438 2.102 2.102 0 0 0-.844-.172c-.324 0-.617.059-.875.172-.25.106-.476.254-.671.438-.18.199-.32.43-.422.687-.106.25-.157.524-.157.813zm.765 0c0-.403.113-.75.344-1.032.238-.289.578-.437 1.015-.437.426 0 .758.148 1 .438.239.28.36.628.36 1.03 0 .4-.121.739-.36 1.016-.242.282-.574.422-1 .422-.437 0-.777-.14-1.015-.422-.23-.277-.344-.617-.344-1.015zm5.969 5.61V.562H2.562v-1.985h-.75v2.625zm0 0"/></symbol><symbol overflow="visible" id="f"><path d="M7.047 1.36v-7.985H6.28v7.984zM4.687-.657v-5.469H.97v5.469zm-.734-.64H1.72V-5.47h2.234zm0 0"/></symbol><symbol overflow="visible" id="g"><path d="M7.203 1.36v-7.985H6.47v2.844h-.985V-6.5H4.75V.984h.734v-4.046h.985v4.421zm-2.75-2.75c-.094.023-.21.042-.344.062-.136.023-.289.039-.453.047-.168.023-.336.039-.5.047H2.72l-1.063.015V-3.03h2.157v-3.125H.921v.64h2.172v1.844H.922v3.11l1.547-.016c.383 0 .765-.02 1.14-.063.371-.039.657-.078.844-.109zm0 0"/></symbol><symbol overflow="visible" id="h"><path d="M7.203 1.36v-7.985h-.75v7.984zM1.031-4.376a1.965 1.965 0 0 0 .578 1.406c.196.188.426.336.688.438.258.105.547.156.86.156.3 0 .581-.05.843-.156.258-.102.484-.25.672-.438a1.92 1.92 0 0 0 .437-.625c.114-.246.172-.508.172-.781 0-.27-.058-.523-.172-.766a2.006 2.006 0 0 0-.437-.625A2.182 2.182 0 0 0 4-6.187a2.102 2.102 0 0 0-.844-.172c-.312 0-.601.058-.86.171a2.308 2.308 0 0 0-.687.422 1.961 1.961 0 0 0-.578 1.391zm.735 0c0-.371.117-.691.359-.953.246-.27.594-.406 1.031-.406.426 0 .758.136 1 .406.239.262.36.582.36.953 0 .375-.121.7-.36.969-.242.261-.574.39-1 .39-.437 0-.785-.129-1.031-.39a1.399 1.399 0 0 1-.36-.969zm4.406 3.016a7.804 7.804 0 0 1-.688.093c-.28.032-.586.059-.906.079-.324.023-.637.042-.937.062a8.814 8.814 0 0 1-.688.031 4.92 4.92 0 0 1-.515.016H.609v.656s.086.008.266.016h1.266c.214 0 .367-.004.453-.016.363 0 .722-.008 1.078-.031.351-.02.687-.047 1-.078.308-.028.594-.063.844-.094a9.75 9.75 0 0 0 .656-.094zm0 0"/></symbol><symbol overflow="visible" id="i"><path d="M8.047-3.813v-.671H6.922v-2.141h-.766V-1.5h.766v-2.313zM4.14-6.046v-.594H1.687v.594zm1.14 1.203v-.593H.594v.593zM.921-3.078c0 .18.048.351.141.515.102.157.239.293.407.407.183.125.398.226.64.297.246.062.52.093.813.093.621 0 1.117-.125 1.484-.375.364-.257.547-.57.547-.937 0-.363-.183-.676-.547-.938-.355-.257-.847-.39-1.468-.39-.305 0-.583.039-.829.11-.25.062-.464.16-.64.28-.18.118-.317.258-.407.422-.093.168-.14.34-.14.516zm.782-.016c0-.215.11-.39.328-.515.227-.133.531-.204.906-.204.383 0 .688.067.907.188.215.125.328.305.328.531 0 .23-.113.414-.328.547-.219.137-.524.203-.906.203-.376 0-.68-.062-.907-.187a.625.625 0 0 1-.328-.563zm5.219 4.5v-2.515h-5.36v.625h4.579v1.89zm0 0"/></symbol><symbol overflow="visible" id="j"><path d="M7.11-.75v-5.875h-.75v.922H4.421a2.105 2.105 0 0 0-1.703-.844 2.076 2.076 0 0 0-1.531.64 1.962 1.962 0 0 0-.438.673c-.094.261-.14.535-.14.812 0 .293.046.57.14.828.102.25.25.477.438.672.183.188.41.34.671.453.258.106.547.156.86.156.37 0 .71-.078 1.015-.234.309-.164.555-.383.735-.656h1.89V-.75zm-.75-3.11H4.75a1.39 1.39 0 0 0 .063-.265c.019-.102.03-.203.03-.297a1.73 1.73 0 0 0-.03-.312 1.769 1.769 0 0 0-.063-.313h1.61zm-4.985-.562c0-.402.113-.75.344-1.031.238-.29.57-.438 1-.438.433 0 .77.149 1 .438.238.281.36.629.36 1.031 0 .406-.122.754-.36 1.031-.23.282-.567.422-1 .422-.43 0-.762-.14-1-.422-.23-.277-.344-.625-.344-1.03zm5.953 5.625v-.64H2.562v-1.985h-.75v2.625zm0 0"/></symbol><symbol overflow="visible" id="k"><path d="M7.781-2.156v-.64H6.484c.051-.227.098-.49.141-.782l.125-.906c.027-.32.055-.641.078-.954.027-.32.05-.625.063-.906H1.156v.64h4.938c-.024.481-.07.974-.14 1.47-.063.492-.15.972-.25 1.437H.265v.64h3.312V1.36h.75v-3.515zm0 0"/></symbol><symbol overflow="visible" id="m"><path d="M3.813-4.36v-.015h1.593v-.813h-4.25v.813h1.578v.016c-.023.18-.086.351-.187.515a2.406 2.406 0 0 1-.406.453c-.211.168-.446.317-.704.438a4.476 4.476 0 0 1-.796.297c.113.105.238.226.375.36.144.124.257.241.343.343.207-.07.407-.16.594-.266a4.05 4.05 0 0 0 .547-.344c.164-.113.316-.238.453-.374.133-.145.242-.29.328-.438.09.156.207.3.344.422.145.125.3.246.469.36.164.116.336.214.515.296.176.086.344.149.5.188.059-.09.145-.204.25-.329.114-.12.227-.242.344-.359-.2-.039-.41-.11-.625-.203a3.041 3.041 0 0 1-.594-.375 2.077 2.077 0 0 1-.453-.453 1.053 1.053 0 0 1-.218-.531zm2.25 3.126a6.179 6.179 0 0 1-.594.078c-.219.023-.446.039-.672.047-.219.011-.43.023-.625.03a7.116 7.116 0 0 1-.422.016V-2.25h-.969v1.203H.562v.86h1.844c.29 0 .614-.004.969-.016A22.94 22.94 0 0 0 4.422-.25c.34-.02.656-.04.937-.063.29-.019.524-.046.704-.078zm1.25 2.609v-8.016h-.954v8.016zm-2.86-7.11v-.796H2.016v.797zm0 0"/></symbol><symbol overflow="visible" id="n"><path d="M7.203-.75v-5.89h-.969v5.89zM3.328-5.39v-1.094H2.297v1.125c0 .304-.055.59-.156.859-.094.262-.23.496-.407.703-.199.262-.433.496-.703.703-.273.2-.558.367-.86.5.134.106.274.223.423.344.152.125.273.23.36.313.175-.09.359-.208.546-.344a5.69 5.69 0 0 0 .547-.453c.164-.153.316-.329.453-.516.145-.184.25-.375.313-.563.101.2.234.383.39.547.152.168.32.325.5.47.152.136.32.26.5.374.176.117.344.211.5.281.07-.101.164-.222.281-.359.121-.133.239-.266.344-.39a2.993 2.993 0 0 1-.75-.376 2.764 2.764 0 0 1-.64-.578 2.758 2.758 0 0 1-.454-.719 2.17 2.17 0 0 1-.156-.828zm4.063 6.609V.375H2.766v-1.734h-1v2.578zm0 0"/></symbol><symbol overflow="visible" id="o"><path d="M7.781-2.063v-.843h-3.25v-.906h2.39v-.829H2.204v-.984h4.64v-.828H1.235v2.64h2.297v.907H.281v.844zm-3.75 3.594c.965 0 1.707-.152 2.219-.453.508-.305.766-.676.766-1.11 0-.445-.258-.816-.766-1.109-.512-.289-1.254-.437-2.219-.437-.98 0-1.726.148-2.234.437-.512.293-.766.664-.766 1.11 0 .433.254.804.766 1.11.508.3 1.254.452 2.234.452zM2.156-.047c0-.246.16-.441.485-.578.332-.133.796-.203 1.39-.203.57 0 1.024.074 1.36.219.332.136.5.332.5.578 0 .246-.168.441-.5.578C5.055.68 4.6.75 4.03.75c-.593 0-1.058-.074-1.39-.219C2.316.395 2.156.2 2.156-.047zm0 0"/></symbol><symbol overflow="visible" id="p"><path d="M7.906-2.875v-.828H6.875v-.922h1.031v-.828H6.875v-1.188h-.969v5.063h.969v-1.297zM4.063-5.953v-.734H1.578v.734zm1.125 1.219v-.735H.468v.735zM.702-3.188c0 .18.05.348.156.5.114.149.266.274.454.376.183.117.41.21.671.28.258.063.54.095.844.095.645 0 1.16-.118 1.547-.36.383-.238.578-.539.578-.906 0-.34-.195-.629-.578-.86-.375-.226-.887-.343-1.531-.343-.313 0-.602.035-.86.093a2.298 2.298 0 0 0-.671.266c-.188.106-.34.238-.454.39a.794.794 0 0 0-.156.47zm3.235-.015c0 .2-.102.348-.297.437-.2.094-.465.141-.797.141-.344 0-.617-.047-.813-.14-.199-.09-.297-.235-.297-.422 0-.176.098-.317.297-.422.196-.102.469-.157.813-.157.332 0 .597.055.797.157.195.093.296.23.296.406zM7.046 0a.949.949 0 0 0-.219-.61 1.8 1.8 0 0 0-.578-.484 3.32 3.32 0 0 0-.922-.297A5.637 5.637 0 0 0 4.203-1.5c-.406 0-.789.04-1.14.11-.344.062-.649.16-.907.28a1.688 1.688 0 0 0-.61.47.927.927 0 0 0-.218.609c0 .238.067.453.203.64.145.196.348.364.61.5.257.133.562.235.906.297.351.07.734.11 1.14.11a6.6 6.6 0 0 0 1.11-.094 3.32 3.32 0 0 0 .922-.297c.258-.125.46-.285.61-.469.144-.187.218-.41.218-.656zm-4.64-.016c0-.132.046-.25.14-.343.101-.102.238-.18.406-.235a2.49 2.49 0 0 1 .563-.125c.214-.027.441-.047.671-.047.489 0 .899.067 1.235.188.34.125.516.316.516.562 0 .133-.055.25-.157.344a1.49 1.49 0 0 1-.375.25c-.168.059-.355.11-.562.14-.211.028-.426.048-.64.048-.243 0-.474-.02-.688-.047a2.957 2.957 0 0 1-.563-.14.952.952 0 0 1-.406-.25.472.472 0 0 1-.14-.345zm0 0"/></symbol><symbol overflow="visible" id="q"><path d="M7.797.484v-.843H4.53V-2h2.282v-4.422h-.97v1.313h-3.64v-1.313h-.969V-2h2.282v1.64H.28v.844zM5.844-2.844h-3.64v-1.422h3.64zm0 0"/></symbol><symbol overflow="visible" id="r"><path d="M1.078-6.203v.828h4.766c-.024.637-.074 1.3-.157 1.984-.085.68-.183 1.336-.296 1.97h.968l.172-1.141c.059-.415.114-.833.157-1.25.05-.426.093-.844.125-1.25.027-.415.054-.797.078-1.141zM7.797.484v-.843H3.844v-2.985h-.985v2.985H.281v.843zm0 0"/></symbol><symbol overflow="visible" id="s"><path d="M7.203 1.375v-8.016H6.22v2.313H4.53v.906H6.22v4.797zm-3.89-5.938v-1.765H2.296v1.719c0 .406-.05.793-.14 1.156-.087.355-.212.683-.376.984-.187.356-.43.68-.718.969a4.889 4.889 0 0 1-.97.75c.145.094.29.207.438.328.153.117.281.223.375.313.176-.114.364-.258.563-.438.195-.183.39-.39.578-.61a7.06 7.06 0 0 0 .453-.64 2.62 2.62 0 0 0 .313-.656c.09.23.21.457.359.672.152.218.32.426.5.61.164.187.336.362.515.515.176.148.348.273.516.375a5.852 5.852 0 0 1 .719-.656 5.685 5.685 0 0 1-.922-.704 3.572 3.572 0 0 1-.688-.89 3.265 3.265 0 0 1-.374-.922 4.443 4.443 0 0 1-.126-1.11zm0 0"/></symbol><symbol overflow="visible" id="u"><path d="M2.766-.547L1.125-6.125H.109L2.266.672h.968l2.172-6.797H4.391zm0 0"/></symbol><symbol overflow="visible" id="v"><path d="M2.438-3.688c.382 0 .675.18.874.532.196.355.297.82.297 1.39 0 .586-.101 1.051-.296 1.391-.2.344-.493.516-.876.516-.374 0-.664-.172-.859-.516-.187-.34-.281-.805-.281-1.39 0-.57.094-1.036.281-1.391.195-.352.484-.531.86-.531zm0-.75c-.7 0-1.227.247-1.579.735-.343.492-.515 1.137-.515 1.937C.344-.96.516-.32.859.156c.352.477.88.719 1.579.719.695 0 1.226-.242 1.593-.719.364-.476.547-1.117.547-1.922 0-.8-.183-1.445-.547-1.937-.367-.488-.898-.735-1.593-.735zm0 0"/></symbol><symbol overflow="visible" id="w"><path d="M.563-6.125V.672h.906v-6.797zm0 0"/></symbol><symbol overflow="visible" id="x"><path d="M.64-.047v1.203h1.25V-.047zm0 0"/></symbol><symbol overflow="visible" id="y"><path d="M2-6.25c-.605 0-1.059.324-1.36.969C.349-4.645.204-3.77.204-2.656c0 1.117.145 1.992.438 2.625.3.62.754.937 1.359.937.602 0 1.055-.316 1.36-.937.308-.633.468-1.508.468-2.625 0-1.114-.16-1.989-.469-2.625C3.055-5.926 2.602-6.25 2-6.25zm0 .797c.27 0 .488.258.656.766.164.5.25 1.18.25 2.03 0 .845-.086 1.52-.25 2.016-.168.5-.386.75-.656.75-.273 0-.488-.25-.64-.75-.157-.496-.235-1.171-.235-2.015 0-.852.078-1.531.234-2.031.153-.508.368-.766.641-.766zm0 0"/></symbol><symbol overflow="visible" id="z"><path d="M2.906-2.063c-.054.688-.18 1.231-.375 1.626-.187.386-.41.578-.656.578-.219 0-.395-.114-.516-.329a1.565 1.565 0 0 1-.203-.75H.25C.25-.344.395.113.688.438c.3.32.703.485 1.203.485.351 0 .656-.106.906-.313.258-.199.46-.476.61-.828.152-.351.269-.77.343-1.25.07-.476.11-1 .11-1.562 0-.477-.04-.914-.11-1.313a3.483 3.483 0 0 0-.344-1.015c-.148-.278-.34-.5-.578-.657a1.42 1.42 0 0 0-.844-.25c-.562 0-1.011.223-1.343.657-.336.437-.5 1.023-.5 1.75 0 .398.047.738.14 1.015.102.281.235.512.39.688.153.187.337.324.548.406.207.086.414.125.625.125a1.7 1.7 0 0 0 .562-.094c.184-.058.352-.176.5-.343zm-.953-.359c-.273 0-.488-.14-.64-.422-.157-.277-.235-.656-.235-1.125 0-.445.078-.812.234-1.094.153-.277.368-.421.641-.421.238 0 .445.148.625.437.176.281.266.645.266 1.078 0 .469-.09.848-.266 1.125-.168.281-.379.422-.625.422zm0 0"/></symbol><symbol overflow="visible" id="A"><path d="M3.422-7.313a.124.124 0 0 0-.031-.078.119.119 0 0 0-.079-.062.133.133 0 0 0-.078 0 .589.589 0 0 0-.078.047l-1.844.828a.934.934 0 0 0-.218.078c-.086.043-.125.102-.125.172 0 .043.008.082.031.11a.143.143 0 0 0 .094.03c.05 0 .113-.015.187-.046.07-.028.133-.051.188-.063l.687-.312c.051-.02.102-.04.156-.063a.364.364 0 0 1 .172-.047c.07 0 .118.024.141.063.02.043.031.097.031.156v5.078c0 .367-.043.617-.125.75-.074.125-.316.188-.719.188-.25 0-.414.011-.484.03-.074.013-.11.052-.11.11 0 .063.016.106.048.125.027.024.082.032.156.032h3.094c.058 0 .109-.008.14-.032.028-.02.047-.054.047-.11 0-.058-.02-.1-.047-.124a.278.278 0 0 0-.14-.031h-.329c-.375 0-.601-.079-.671-.235-.063-.164-.094-.41-.094-.734zm0 0"/></symbol><symbol overflow="visible" id="B"><path d="M2.5-4.39l.86-.47c.245-.132.503-.304.765-.515a.964.964 0 0 0 .406-.797c0-.445-.183-.773-.547-.984a2.113 2.113 0 0 0-1.125-.297c-.304.012-.59.066-.859.156-.273.086-.52.238-.734.453a1.957 1.957 0 0 0-.204.266c-.085.117-.125.215-.125.297 0 .031.008.066.032.093.02.032.047.047.078.047.039 0 .078-.023.11-.078.027-.05.054-.093.077-.125.133-.215.32-.398.563-.547a1.4 1.4 0 0 1 .766-.234c.269 0 .519.082.75.234.226.157.343.387.343.688 0 .48-.293.902-.875 1.266-.574.367-1.039.667-1.39.906l-.375.25-.11.078c-.043.023-.062.066-.062.125 0 .031.008.058.031.078a.143.143 0 0 0 .094.031c.039 0 .086-.008.14-.031a.53.53 0 0 0 .125-.063c.184-.113.391-.203.61-.265.226-.07.457-.11.687-.11.559 0 1.008.196 1.344.579.332.375.5.836.5 1.375 0 .367-.086.714-.25 1.046a2.37 2.37 0 0 1-.656.844 3.086 3.086 0 0 1-.688.422c-.281.145-.55.219-.797.219a.489.489 0 0 1-.328-.11 1.133 1.133 0 0 1-.203-.28 1.328 1.328 0 0 0-.219-.298.44.44 0 0 0-.328-.14c-.136 0-.242.043-.312.125a.456.456 0 0 0-.11.312c0 .278.133.473.407.578.277.102.53.157.75.157.445 0 .894-.118 1.343-.344.446-.23.832-.492 1.157-.781.308-.278.562-.614.75-1 .195-.383.296-.786.296-1.204 0-.59-.207-1.078-.609-1.453-.398-.37-.894-.562-1.484-.562zm0 0"/></symbol><symbol overflow="visible" id="C"><path d="M.594.953c.09 0 .258-.058.5-.172C1.34.664 1.5.59 1.562.562c.333-.18.657-.37.97-.578.308-.207.609-.43.89-.671a7.089 7.089 0 0 0 1.36-1.672 3.96 3.96 0 0 0 .562-2.063c0-.371-.067-.75-.188-1.125a2.87 2.87 0 0 0-.547-1.016 2.51 2.51 0 0 0-.828-.656 2.134 2.134 0 0 0-1.031-.265c-.7 0-1.277.261-1.734.78a2.635 2.635 0 0 0-.688 1.798c0 .586.192 1.09.578 1.515.383.43.88.641 1.485.641.195 0 .382-.023.562-.078a1.77 1.77 0 0 0 .5-.235.762.762 0 0 0 .094-.078c.027-.039.047-.078.047-.109a.17.17 0 0 0-.031-.078c-.024-.027-.043-.047-.063-.047-.055 0-.145.055-.266.156-.125.094-.304.14-.53.14-.556 0-.962-.233-1.22-.702A3.072 3.072 0 0 1 1.11-5.22c0-.308.051-.593.157-.843.101-.247.242-.477.421-.688a1.2 1.2 0 0 1 .438-.344c.184-.082.375-.125.563-.125.34 0 .632.114.874.328.239.22.426.465.563.735a5.4 5.4 0 0 1 .313.812c.082.293.125.586.125.875 0 .563-.13 1.106-.375 1.625a8.026 8.026 0 0 1-.875 1.438A7.447 7.447 0 0 1 2.187-.25C1.75.102 1.293.39.829.61a1.935 1.935 0 0 0-.203.078c-.094.05-.14.101-.14.156 0 .027.007.054.03.078a.11.11 0 0 0 .079.031zm0 0"/></symbol><symbol overflow="visible" id="D"><path d="M10.094-9.75l.078 4.438c0 .53.031.976.094 1.328.058.343.187.511.375.5.183 0 .375-.22.562-.657.184-.433.281-1.046.281-1.828l-.046-3.781c0-.184.007-.348.03-.484.028-.145.048-.274.048-.391a.564.564 0 0 0-.047-.281c-.031-.082-.117-.156-.25-.219-.106-.027-.246-.066-.422-.11a9.998 9.998 0 0 0-.516-.109c-.18-.027-.34-.054-.484-.078a3.77 3.77 0 0 1-.297-.047c-.469-.027-.727.043-.766.219-.043.168.082.316.375.438.352.148.602.285.75.406.153.125.235.347.235.656zm-2.406.094a2.92 2.92 0 0 1-.266-.016A6.722 6.722 0 0 0 7-9.687c-.156 0-.309.007-.453.015a.806.806 0 0 0-.344.063c-.187.093-.535.16-1.031.187-.5.024-1.024.031-1.563.031h-.484a9.214 9.214 0 0 1-.406-.03 6.59 6.59 0 0 1-.344-.032 1.17 1.17 0 0 1-.219-.031c-.406-.028-.648.011-.719.125-.062.117.063.273.375.468.32.211.583.352.782.422.207.074.379.106.515.094a.844.844 0 0 0 .329-.078c.09-.05.19-.094.296-.125h.047c.04-.008.098-.02.172-.031.059-.02.129-.036.203-.047.07-.008.149-.02.235-.031.09 0 .207-.004.343-.016.133-.008.282-.024.438-.047.164-.008.332-.02.5-.031.176-.02.36-.04.547-.063-.324.7-.715 1.364-1.172 1.985-.45.625-.914 1.195-1.39 1.703-.481.511-.958.957-1.423 1.328-.46.367-.863.637-1.203.812-.105.063-.156.13-.156.188 0 .062.035.117.11.156.09.031.21.047.359.047.152-.008.347-.063.578-.156a8.019 8.019 0 0 0 1.344-.781c.496-.34 1-.75 1.5-1.22.496-.476.988-1.007 1.468-1.593.477-.59.907-1.223 1.282-1.89.05-.114.125-.239.218-.376.102-.144.188-.28.25-.406A.733.733 0 0 0 8-9.422c-.023-.101-.129-.18-.313-.234zm2.125 7.344L9.78.905H6.11l-.062-3.203zM11.5 1.265c0-.118-.074-.207-.219-.266a1.274 1.274 0 0 0-.344-.094l.329-2.984a.62.62 0 0 1 .109-.281c.07-.09.125-.18.156-.266a.327.327 0 0 0 .016-.25c-.024-.09-.117-.176-.281-.25a1.771 1.771 0 0 0-.844-.11c-.313.032-.57.075-.766.126-.062.03-.273.054-.625.062A83.572 83.572 0 0 1 6.766-3h-.563c-.062 0-.152-.008-.266-.031-.105-.02-.23-.047-.375-.078a6.831 6.831 0 0 1-.5-.047 4.159 4.159 0 0 0-.593-.016c-.387.024-.649.121-.782.297-.124.18-.101.29.079.328.113.031.218.067.312.094l.25.078a.452.452 0 0 1 .266.36l.218 3.484c.008.289.07.508.188.656a.547.547 0 0 0 .422.219c.09 0 .21-.067.36-.188a.872.872 0 0 0 .28-.484h.688c.352 0 .758-.008 1.219-.016.445 0 .922-.008 1.422-.015h1.421c.196 0 .36-.036.485-.094.133-.063.203-.16.203-.281zm0 0"/></symbol><symbol overflow="visible" id="F"><path d="M6.156-4.14v3.093H2.875a7.608 7.608 0 0 1-.656-.047 21.89 21.89 0 0 1-.547-.031c-.168-.02-.356-.04-.563-.063a1.941 1.941 0 0 0-.546.047C.413-1.109.32-1.059.28-1c-.054.063-.047.145.016.234C.367-.68.52-.59.75-.5c.559.262 1.004.43 1.328.5.332.059.602.074.813.047.207-.024.382-.067.53-.14.153-.071.352-.118.595-.141.007 0 .082-.004.218-.016.145-.008.36-.023.641-.047.277-.02.625-.035 1.031-.047.414-.02.91-.035 1.485-.047h2.593c.34 0 .657.008.938.016.289 0 .562.008.812.016a5.63 5.63 0 0 0 1.125-.016c.352-.05.536-.207.547-.469.008-.164-.097-.297-.312-.39a2.898 2.898 0 0 0-.813-.188 5.314 5.314 0 0 0-1.047.047 5.456 5.456 0 0 0-.984.203 2.185 2.185 0 0 1-.438.078c-.187.024-.41.04-.656.047-.25.012-.511.016-.781.016-.273 0-.527-.004-.766-.016v-3.11l2.922-.015c.239 0 .426-.047.563-.14.144-.09.226-.204.25-.329.02-.12-.028-.25-.14-.375-.106-.132-.29-.226-.548-.28a4.613 4.613 0 0 0-.422-.048 5.007 5.007 0 0 0-.484 0 4.01 4.01 0 0 0-.469.063.848.848 0 0 0-.312.093c-.168.106-.364.18-.578.22-.211.03-.356.046-.438.046l-3.11.031a.536.536 0 0 1-.312-.093c-.093-.07-.14-.18-.14-.329l-.032-3.296 6.079-.016c.238 0 .43-.047.578-.14.144-.09.226-.196.25-.313.027-.121-.02-.25-.141-.375-.117-.121-.305-.219-.563-.281a4.613 4.613 0 0 0-.421-.047 5.005 5.005 0 0 0-.485 0 4.01 4.01 0 0 0-.469.062 1.03 1.03 0 0 0-.312.094 1.266 1.266 0 0 1-.563.188c-.21.023-.367.03-.468.03l-3.453.032c-.368-.059-.73-.117-1.094-.172-.367-.058-.668-.082-.906-.062-.282.03-.48.086-.594.156-.106.074-.152.144-.14.203 0 .074.038.145.124.203a.432.432 0 0 0 .266.094c.32.094.547.183.672.265.12.086.187.243.187.47l.031 2.952c0 .25.04.457.126.61.09.148.21.261.359.343.133.075.289.13.469.157.175.023.363.031.562.031zm0 0"/></symbol><symbol overflow="visible" id="G"><path d="M11.063.688a8.363 8.363 0 0 0-.407-.032c-.156 0-.316.004-.469.016-.156.008-.3.031-.421.062a.989.989 0 0 0-.297.11c-.149.101-.32.164-.516.187a5.11 5.11 0 0 1-.515.032l-3.094.03A.652.652 0 0 1 5.016 1C4.922.937 4.875.824 4.875.672v-2c0-.133.008-.258.031-.375.02-.113.032-.211.032-.297a.36.36 0 0 0-.125-.219c-.063-.058-.184-.11-.36-.14-.21-.02-.48-.036-.812-.047a6.025 6.025 0 0 0-.844 0c-.305.031-.508.086-.61.156-.105.063-.148.133-.124.203.027.055.097.113.203.172.101.063.21.105.328.125.3.063.515.148.64.25.121.094.188.27.188.516V.687c0 .477.148.786.453.922.309.133.66.204 1.047.204l6-.063c.238 0 .43-.043.578-.125.145-.086.223-.191.234-.313.02-.117-.023-.238-.125-.359-.105-.117-.289-.207-.546-.265zm-1.22-5.875c.052-.083.102-.188.157-.313.059-.121.117-.258.172-.406.05-.121.098-.266.14-.422.051-.152.11-.313.172-.469.059-.215.125-.46.188-.734.07-.27.133-.532.187-.782.051-.246.094-.46.125-.64.04-.184.067-.29.079-.313a.965.965 0 0 1 .124-.328.798.798 0 0 0 .126-.328.337.337 0 0 0-.063-.265c-.055-.083-.184-.157-.39-.22a3.043 3.043 0 0 0-.782-.015 2.587 2.587 0 0 0-.734.156 1.813 1.813 0 0 1-.36.063c-.18.012-.398.023-.656.031-.25.012-.539.024-.86.031-.312.012-.636.016-.968.016H4.562c-.292-.008-.554-.02-.78-.031-.231-.02-.403-.04-.516-.063-.344-.02-.586-.008-.72.031-.136.043-.21.09-.218.141 0 .074.04.149.125.219a.699.699 0 0 0 .25.156c.477.242.852.399 1.125.469.277.062.508.09.688.078a2.09 2.09 0 0 0 .5-.11c.144-.058.328-.1.546-.124 0 0 .176-.004.532-.016.363-.008.773-.02 1.234-.031.457-.02.906-.035 1.344-.047.433-.008.738-.02.906-.031-.012.168-.035.363-.062.578-.024.219-.051.449-.079.687-.023.242-.054.48-.093.719-.031.23-.067.434-.094.61-.031.21-.07.41-.11.593-.042.18-.081.34-.109.484a7.292 7.292 0 0 0-.078.375 1.504 1.504 0 0 0-.031.297c-.211.012-.418.016-.625.016H7.203c-.148-.008-.262-.016-.344-.016H2.875a7.608 7.608 0 0 1-.656-.046 21.89 21.89 0 0 1-.547-.032c-.168-.02-.356-.039-.563-.062a2.593 2.593 0 0 0-.546.031c-.149.031-.243.082-.282.14-.054.063-.047.137.016.22.07.085.223.18.453.28.559.274 1.004.446 1.328.516.332.063.602.078.813.047.207-.02.382-.066.53-.14.153-.07.352-.118.595-.141h.078a7.82 7.82 0 0 1 .265-.031c.102-.008.239-.02.407-.032.164-.007.363-.02.593-.03l.032 2.109c0 .542.023 1.023.078 1.437.05.406.187.605.406.594.215 0 .41-.25.578-.75.176-.508.266-1.172.266-1.985l-.016-1.453h.328c.114-.008.235-.015.36-.015h.89l.016 2.328c0 .543.023 1.02.078 1.422.05.406.188.605.406.593.215 0 .41-.25.578-.75.176-.496.266-1.156.266-1.968V-4.5c.434 0 .828.008 1.172.016.34.011.656.023.937.03a5.63 5.63 0 0 0 1.125-.015c.352-.05.536-.207.547-.468.008-.165-.097-.297-.312-.391a2.898 2.898 0 0 0-.813-.188 5.314 5.314 0 0 0-1.047.047 5.456 5.456 0 0 0-.984.203.85.85 0 0 1-.172.063 1.508 1.508 0 0 1-.234.016zm0 0"/></symbol><symbol overflow="visible" id="H"><path d="M8.422-4.016H7.219L7.203-7.28c0-.133.004-.258.016-.375.02-.121.035-.227.047-.313a.343.343 0 0 0-.047-.218c-.032-.07-.102-.13-.203-.172a2.665 2.665 0 0 0-.313-.094 2.955 2.955 0 0 0-.406-.094 9.805 9.805 0 0 0-.375-.047 1.36 1.36 0 0 1-.219-.047c-.375-.02-.582.04-.61.172-.023.137.079.254.298.344.27.117.46.227.578.328.12.106.187.277.187.516l.032 4.234c-.243.094-.504.18-.782.25a16.454 16.454 0 0 1-1.61.36c-.25.042-.464.07-.64.078a.414.414 0 0 1-.265-.047c-.063-.04-.094-.13-.094-.266v-3.422h1.047c.215 0 .43-.004.64-.015.215-.008.383-.02.5-.032a.9.9 0 0 0 .422-.156c.102-.082.16-.172.172-.266.02-.082-.012-.164-.094-.25-.086-.082-.21-.132-.375-.156a3.983 3.983 0 0 0-.75-.015c-.25.011-.46.074-.625.187a.504.504 0 0 1-.218.11 1.01 1.01 0 0 1-.266.03c-.086 0-.168-.003-.25-.015a1.552 1.552 0 0 1-.188-.031c-.28-.04-.585-.07-.906-.094-.312-.027-.55-.035-.703-.016-.21.043-.355.09-.437.141-.075.055-.102.113-.079.172.008.055.047.102.11.14a.589.589 0 0 0 .219.094c.12.032.226.067.312.094.09.024.164.05.219.078a.267.267 0 0 1 .125.157.633.633 0 0 1 .047.25v3.343c0 .375.066.617.203.719.144.105.379.156.703.156.258 0 .54-.031.844-.093.308-.06.629-.141.953-.235.32-.101.633-.21.937-.328.301-.121.582-.25.844-.375V.296c.008.259.031.49.063.688.02.196.054.352.109.47.059.112.14.171.234.171.184 0 .336-.258.454-.766.12-.511.187-1.18.187-2.015l-.031-2.219h1.203l.031 3.297v.797c.008.258.031.484.063.672.02.195.054.351.109.468.05.114.125.172.219.172.195 0 .351-.258.469-.765.12-.512.18-1.184.171-2.016l-.046-7.047c0-.144.007-.273.03-.39.02-.114.036-.22.048-.313a.546.546 0 0 0-.047-.219c-.031-.07-.102-.129-.203-.172a2.665 2.665 0 0 0-.313-.093c-.137-.028-.273-.063-.406-.094-.149-.02-.277-.035-.39-.047a2.527 2.527 0 0 1-.22-.047c-.375-.02-.582.04-.609.172-.023.137.082.254.313.344.27.125.46.242.578.344.12.093.187.269.187.515zm0 0"/></symbol><symbol overflow="visible" id="I"><path d="M9.219-7.61c0-.144-.086-.253-.25-.327a2.132 2.132 0 0 0-.578-.157 5.158 5.158 0 0 0-.72.031c-.25.024-.46.07-.624.141-.074.024-.258.043-.547.063-.281.011-.59.015-.922.015-.344.012-.668.016-.969.016H3.438c-.157-.008-.305-.02-.438-.031a2.691 2.691 0 0 0-.375-.032c-.117-.007-.238-.02-.36-.03-.304 0-.503.05-.593.14-.086.093.023.226.328.39.352.211.64.34.86.391.226.055.413.074.562.063a.975.975 0 0 0 .36-.11c.1-.058.21-.101.327-.125.02 0 .11-.004.266-.016.152-.007.344-.019.563-.03.226-.02.472-.036.734-.048.258-.007.504-.015.734-.015.278 0 .555.008.828.015.27 0 .567.008.891.016.258.023.504.016.734-.016.227-.039.348-.156.36-.343zM7.594-.686l.125-1.391c0-.09.008-.18.031-.266.02-.082.035-.156.047-.219 0-.07-.02-.132-.047-.187-.031-.059-.105-.113-.219-.156a5.876 5.876 0 0 0-.281-.063 2.775 2.775 0 0 0-.344-.062 6.621 6.621 0 0 0-.328-.047 1.489 1.489 0 0 0-.234-.031c-.336 0-.528.054-.578.156-.043.105.039.2.25.281.152.055.289.121.406.203.121.086.176.211.156.375l-.11 1.438H4.61l-.046-1.36c0-.082.003-.164.015-.25a.692.692 0 0 0 .016-.234.3.3 0 0 0-.063-.172.467.467 0 0 0-.234-.125c-.168-.02-.387-.039-.656-.062a9.067 9.067 0 0 0-.579-.032c-.335.032-.519.106-.546.22-.032.116.062.194.28.233.165.032.313.086.438.157a.433.433 0 0 1 .204.36l.046 1.265H2.312c-.199-.008-.378-.02-.53-.031-.157-.008-.305-.02-.438-.032A6.525 6.525 0 0 0 .89-.766a1.667 1.667 0 0 0-.438.032.543.543 0 0 0-.234.109c-.043.055-.04.117.015.188.059.074.188.148.375.218.446.211.801.336 1.063.39.258.052.473.067.64.048.165-.024.305-.067.422-.125.121-.055.282-.09.47-.11h.187c.113-.007.28-.023.5-.046l.843-.032c.332-.02.727-.031 1.188-.031H8.75c.227 0 .441.008.64.016.32.023.618.015.891-.016.278-.04.43-.16.453-.36 0-.132-.09-.238-.265-.312a2.002 2.002 0 0 0-.64-.156 4.109 4.109 0 0 0-.845.031c-.293.031-.554.09-.78.172a.95.95 0 0 1-.25.047 3.337 3.337 0 0 1-.36.015zm-2.938-4.25a2.04 2.04 0 0 0-.172-.422 4.79 4.79 0 0 0-.265-.5c-.106-.153-.211-.301-.313-.438a7.112 7.112 0 0 0-.234-.312c-.219-.239-.402-.317-.547-.235-.137.086-.14.246-.016.485.133.336.227.668.282 1 .058.336.113.636.156.906.02.21.098.355.234.437.145.086.305.094.485.032a.571.571 0 0 0 .359-.297c.082-.145.09-.364.031-.657zm1.64 1.046c-.25.012-.507.024-.765.032H3.766c-.211.011-.399.011-.563 0-.156-.008-.3-.02-.422-.032a8.068 8.068 0 0 1-.375-.03 5.41 5.41 0 0 0-.36-.017c-.304 0-.503.051-.593.141-.086.086.024.211.328.375.352.219.645.356.875.406.227.055.414.07.563.047.133-.02.254-.054.36-.11a1.48 1.48 0 0 1 .312-.14h.296c.176-.008.391-.023.641-.047.246-.007.516-.02.797-.03.277-.009.535-.017.766-.017h.968c.371 0 .723.008 1.047.016.246.024.489.016.719-.015.238-.04.363-.157.375-.344 0-.153-.086-.27-.25-.344a1.922 1.922 0 0 0-.594-.14 3.891 3.891 0 0 0-.734.015c-.25.031-.465.086-.64.156 0 .012-.009.016-.016.016H7.25c0 .012-.008.015-.016.015h-.03l.687-1.937A1.21 1.21 0 0 1 8-6.125a.537.537 0 0 0 .063-.219A.3.3 0 0 0 8-6.516a.728.728 0 0 0-.234-.187 5.976 5.976 0 0 0-.579-.172 7.884 7.884 0 0 0-.53-.14c-.356-.051-.56-.012-.61.109-.043.117.035.222.234.312.153.094.274.192.36.282.09.085.129.207.109.359zm0 0"/></symbol><symbol overflow="visible" id="J"><path d="M3.422-5.89h-.594v4.765c0 .219-.039.41-.11.563a.921.921 0 0 1-.28.343.942.942 0 0 1-.36.203c-.137.028-.27.047-.39.047-.118 0-.243-.02-.375-.047a1.073 1.073 0 0 1-.36-.203.93.93 0 0 1-.265-.344 1.29 1.29 0 0 1-.11-.562v-.453h-.594v.5c.012.293.055.543.141.75.09.21.219.379.375.516.152.132.332.234.531.296a2.029 2.029 0 0 0 1.313 0A1.39 1.39 0 0 0 2.89.172c.152-.137.28-.305.375-.516.101-.207.156-.453.156-.734zm0 0"/></symbol><symbol overflow="visible" id="K"><path d="M6.219.406V-5.89H5.5L3.39-.28l-2.109-5.61H.547V.406h.61v-5.031L3.03.406h.719L5.625-4.64V.406zm0 0"/></symbol><symbol overflow="visible" id="L"><path d="M1.11.406V-5.89H.546V.406zm0 0"/></symbol><symbol overflow="visible" id="N"><path d="M7.203-1.844V-6.64h-.64v1.297H5.016v.563h1.546v1.093H4.875v.563h1.688v1.281zM4.72-6.062H1.016v.546h2.921c-.011.106-.042.23-.093.375a3.38 3.38 0 0 1-.188.485 4.114 4.114 0 0 1-.36.531 3.024 3.024 0 0 1-.53.547c-.418.344-.825.601-1.22.765-.386.157-.726.286-1.015.376l.375.453c.352-.102.735-.25 1.14-.438.403-.195.849-.504 1.329-.922a3.79 3.79 0 0 0 .922-1.234 4.57 4.57 0 0 0 .422-1.484zM7.344-.157c0-.457-.242-.836-.719-1.14-.48-.302-1.18-.454-2.094-.454-.93 0-1.633.152-2.11.453-.48.305-.718.684-.718 1.14 0 .458.238.833.719 1.126.476.289 1.18.437 2.11.437.913 0 1.613-.148 2.093-.437.477-.293.719-.668.719-1.125zm-.672 0c0 .32-.207.57-.61.75-.398.183-.91.281-1.53.281-.637 0-1.153-.098-1.548-.281-.398-.18-.593-.43-.593-.75s.195-.57.593-.75c.395-.184.91-.281 1.547-.281.621 0 1.133.097 1.532.28.402.18.609.43.609.75zm0 0"/></symbol><symbol overflow="visible" id="O"><path d="M7.172-1.844V-6.64h-.656v1.032H4.359a2.068 2.068 0 0 0-.718-.547 2.165 2.165 0 0 0-.97-.219c-.312 0-.6.055-.858.156A1.916 1.916 0 0 0 .718-5.187c-.106.23-.156.476-.156.734 0 .273.05.527.156.766.101.23.25.43.437.593.184.18.407.32.657.422.257.094.546.14.859.14.363 0 .691-.07.984-.218.301-.145.547-.344.735-.594h2.125v1.5zm.11 1.703c0-.445-.247-.82-.735-1.125-.492-.3-1.2-.453-2.125-.453-.93 0-1.637.153-2.125.453-.492.293-.735.664-.735 1.11 0 .457.243.832.735 1.125.488.289 1.195.437 2.125.437.926 0 1.633-.148 2.125-.437.488-.281.734-.653.734-1.11zm-.766-3.765H4.672a1.39 1.39 0 0 0 .062-.266c.02-.09.032-.187.032-.281a1.54 1.54 0 0 0-.032-.313c-.023-.101-.043-.203-.062-.296h1.844zm-2.438-.547c0 .367-.129.68-.375.937-.242.262-.586.391-1.031.391-.461 0-.817-.129-1.063-.39a1.316 1.316 0 0 1-.359-.938c0-.363.117-.676.36-.938.245-.257.6-.39 1.062-.39.445 0 .789.133 1.031.39.246.262.375.575.375.938zM2.234-.156c0-.32.204-.567.61-.735.402-.175.93-.265 1.578-.265.633 0 1.156.097 1.562.281.403.18.61.426.61.734 0 .32-.207.567-.61.735-.406.176-.93.265-1.562.265-.649 0-1.176-.097-1.578-.28-.406-.18-.61-.427-.61-.735zm0 0"/></symbol><symbol overflow="visible" id="P"><path d="M5.313-2.625a8.646 8.646 0 0 1-.704-.39 2.909 2.909 0 0 1-.75-.672 2.291 2.291 0 0 1-.437-.735 2.673 2.673 0 0 1-.156-.922v-.218h1.718v-.547H.844v.546h1.734v.22c0 .343-.066.683-.187 1.015a2.54 2.54 0 0 1-.532.844 4.09 4.09 0 0 1-.78.671c-.274.18-.52.325-.735.438l.484.484a7.04 7.04 0 0 0 .563-.328c.246-.164.484-.36.703-.578.195-.195.367-.398.515-.61.145-.206.243-.398.297-.577a2.96 2.96 0 0 0 .766 1.016c.226.23.457.417.687.562.227.136.422.238.579.297zm2 1.719v-5.735h-.657v1.954H4.875v.578h1.781v3.203zM7.5 1.078V.531H2.547V-1.39h-.64v2.47zm0 0"/></symbol><symbol overflow="visible" id="Q"><path d="M6.625 1.25v-2.484H1.203l.016.546h4.75V1.25zM5.422-2.297v-.547c-.137.012-.3.028-.484.047-.18.024-.372.043-.579.063-.21.023-.425.043-.64.062-.211.012-.414.016-.61.016l-1.89.031v-1.25h3.078v-2.344H.563v.563h3.093v1.234H.562v2.344c.02 0 .11.008.266.015.164 0 .367-.003.61-.015h.75c.269 0 .519-.008.75-.031.214 0 .44-.004.671-.016.239-.008.473-.031.704-.063a7.04 7.04 0 0 0 .609-.046c.195-.02.363-.04.5-.063zm2.422-.828v-.547H6.625v-1.187h1.219v-.547H6.625v-1.235h-.656v4.86h.656v-1.344zm0 0"/></symbol><symbol overflow="visible" id="R"><path d="M7.375 1.078V.531H2.453v-1.953h-.656v2.5zM7.172-.906v-5.735h-.656v1.063H4.39a2.259 2.259 0 0 0-.72-.563 2.105 2.105 0 0 0-.983-.234c-.313 0-.602.055-.86.156-.25.106-.473.246-.656.422a1.885 1.885 0 0 0-.594 1.39c0 .274.05.528.156.766.102.243.25.45.438.625.183.168.406.305.656.407.258.105.547.156.86.156.382 0 .726-.078 1.03-.235.31-.164.563-.382.75-.656h2.048v2.438zm-.656-3H4.703c.02-.07.035-.149.047-.235.02-.09.031-.18.031-.265a1.54 1.54 0 0 0-.031-.313c-.023-.101-.043-.203-.063-.297h1.829zM2.687-5.781c.446 0 .79.136 1.032.406.246.262.375.586.375.969 0 .375-.13.699-.375.968-.242.262-.586.391-1.031.391-.461 0-.817-.129-1.063-.39a1.399 1.399 0 0 1-.36-.97c0-.382.118-.706.36-.968.246-.27.602-.406 1.063-.406zm0 0"/></symbol><symbol overflow="visible" id="S"><path d="M7.844-2.203v-.563H6.422c.008-.05.023-.129.047-.234.02-.102.039-.227.062-.375.028-.121.055-.258.078-.406.028-.153.063-.305.094-.453.02-.164.04-.348.063-.547.027-.196.062-.383.093-.563.02-.176.036-.332.047-.468.02-.145.032-.258.032-.344h-5.86v.562h5.125c-.023.23-.055.489-.094.766-.043.273-.086.543-.125.812-.043.274-.086.524-.125.75-.043.22-.082.387-.109.5H.172v.563H3.5V1.25h.656v-3.453zm0 0"/></symbol><symbol overflow="visible" id="T"><path d="M7.844.219v-.547h-3.5v-1.906h-.672v1.906h-3.5v.547zM4.359-5.656v-.64h-.703v.64c0 .386-.101.773-.297 1.156-.187.375-.441.71-.75 1a4.627 4.627 0 0 1-.546.438 6.219 6.219 0 0 1-.547.359A7.376 7.376 0 0 1 1-2.438c-.148.075-.27.122-.36.141l.438.453c.07-.02.176-.062.313-.125a9 9 0 0 0 .453-.218 7.92 7.92 0 0 0 .515-.313c.176-.121.348-.266.516-.422.277-.246.523-.523.734-.828.215-.309.352-.555.407-.734.05.18.18.425.39.734.207.305.453.582.735.828.164.156.336.3.515.422.176.117.348.223.516.313.164.085.312.16.437.218.133.063.243.106.329.125l.453-.453A1.601 1.601 0 0 1 7-2.437a7.316 7.316 0 0 1-.5-.266 4.685 4.685 0 0 1-.563-.36 4.792 4.792 0 0 1-.53-.437 3.666 3.666 0 0 1-.766-1 2.61 2.61 0 0 1-.282-1.156zm0 0"/></symbol><symbol overflow="visible" id="U"><path d="M7.89-4.406H5.548v.422H7.89v5.453h.5v-9.235h-.5zM6.564-.875c-.125-.07-.348-.21-.657-.422a4.374 4.374 0 0 1-.937-.875c-.336-.371-.621-.832-.86-1.375-.242-.55-.359-1.203-.359-1.953v-1.688h-.516V-5.5c0 .742-.113 1.387-.328 1.938-.21.554-.465 1.023-.765 1.406a4.727 4.727 0 0 1-.938.953 8.007 8.007 0 0 1-.812.547l.406.36c.101-.06.285-.192.547-.392a5.99 5.99 0 0 0 .812-.765c.29-.32.563-.692.813-1.11.246-.425.422-.894.515-1.406.133.512.332.973.594 1.375.27.406.547.758.828 1.047.29.293.555.527.797.703.246.18.414.293.5.344zm0 0"/></symbol><symbol overflow="visible" id="V"><path d="M4.938-1.453c.37 0 .718.035 1.03.094.321.062.602.152.845.265.238.125.425.274.562.438a.843.843 0 0 1 .219.562.843.843 0 0 1-.219.563 1.966 1.966 0 0 1-.563.422c-.25.113-.539.195-.859.25a5.509 5.509 0 0 1-2.031 0 3.208 3.208 0 0 1-.844-.25 1.793 1.793 0 0 1-.594-.422.867.867 0 0 1-.203-.563c0-.207.067-.394.203-.562.145-.164.336-.313.579-.438.238-.113.519-.203.843-.265.32-.059.664-.094 1.031-.094zm0-.438c-.493 0-.934.051-1.329.141a3.55 3.55 0 0 0-1 .36 2.134 2.134 0 0 0-.656.577 1.19 1.19 0 0 0-.219.704c0 .27.07.507.22.718.151.215.374.41.655.579.27.152.602.273 1 .359.395.082.836.125 1.329.125.976 0 1.753-.168 2.328-.5.57-.324.859-.754.859-1.281 0-.508-.29-.93-.86-1.266-.562-.34-1.34-.516-2.327-.516zm3-2.812h1.406v-.422H7.938v-2.64h-.516v5.671h.516zM.984-6.593h3.672a3.057 3.057 0 0 1-.422 1.265c-.23.406-.539.789-.921 1.14a7.414 7.414 0 0 1-1.329.907c-.5.261-1.035.46-1.593.594l.328.374a8.007 8.007 0 0 0 1.687-.671 6.46 6.46 0 0 0 1.39-1.032c.395-.394.72-.843.97-1.343.257-.496.421-1.051.484-1.657H.984zm0 0"/></symbol><symbol overflow="visible" id="W"><path d="M5.703-7.531v8.578h.5v-4.563h1.625V1.47h.5v-9.235h-.5v3.829H6.203v-3.594zM5.172-.938v-.421a3.41 3.41 0 0 1-.61.093c-.25.024-.511.043-.78.063-.294.023-.583.039-.86.047H1.625v-4.922h2.656V-6.5H1.125v5.766h1.031c.258 0 .535-.004.828-.016.29-.008.57-.023.844-.047.27-.008.52-.023.75-.047.238-.027.438-.062.594-.094zm0 0"/></symbol><symbol overflow="visible" id="X"><path d="M3.484-4.813c.57 0 1.008.114 1.313.329.308.218.469.476.469.765 0 .305-.16.559-.47.766-.304.2-.741.297-1.312.297-.562 0-1.004-.098-1.312-.297-.305-.207-.453-.461-.453-.766 0-.289.148-.547.453-.765.308-.215.75-.329 1.312-.329zm0-.39c-.718 0-1.285.148-1.687.437-.406.282-.61.633-.61 1.047 0 .43.196.785.594 1.063.403.281.973.422 1.703.422.715 0 1.282-.141 1.688-.422.414-.278.625-.633.625-1.063 0-.414-.211-.765-.625-1.047-.406-.289-.973-.437-1.688-.437zM.704-6.25v.422H6.28v-.422zm1.109 5.016v.421H7.5V1.47H8v-2.703zM7.984-4.61h1.422v-.407H7.984v-2.75H7.47v5.907h.515zM1.97-7.594v.407h2.937v-.407zm0 0"/></symbol><symbol overflow="visible" id="Y"><path d="M6.766-1.594h.5c.09-.476.175-.91.25-1.297.07-.394.129-.785.171-1.171.051-.383.098-.774.141-1.172.04-.395.078-.836.11-1.329H1.405v.422h5.985a30.978 30.978 0 0 1-.22 2.172c-.093.762-.23 1.555-.405 2.375zm2.39 1.64v-.405H5.47V-3.75h-.516v3.39H3.156v-3.39h-.5v3.39H.203v.407zm0 0"/></symbol><symbol overflow="visible" id="aa"><path d="M7.828-6.125H5.797v.422h2.031v1.5H5.641v.422h2.187v1.687h.516v-5.672h-.516zm-2.625 4.64c.383 0 .738.036 1.063.094.332.063.617.153.859.266a1.9 1.9 0 0 1 .547.438.843.843 0 0 1 .219.562.843.843 0 0 1-.22.563c-.136.164-.32.304-.546.421a3.286 3.286 0 0 1-.86.25 6.273 6.273 0 0 1-2.156 0A3.199 3.199 0 0 1 3.25.86a1.611 1.611 0 0 1-.563-.421.867.867 0 0 1-.203-.563c0-.207.067-.395.204-.563.132-.164.32-.312.562-.437.238-.113.523-.203.86-.266a6.273 6.273 0 0 1 1.093-.093zm-.016-.437c-1.042 0-1.847.176-2.406.516-.562.336-.844.758-.844 1.265 0 .528.282.957.844 1.282.559.332 1.364.5 2.406.5 1.04 0 1.844-.168 2.407-.5.558-.325.843-.754.843-1.282 0-.507-.285-.93-.843-1.265-.563-.34-1.367-.516-2.407-.516zM1.204-6.594H4.86a3.057 3.057 0 0 1-.421 1.266c-.231.406-.54.789-.922 1.14a6.852 6.852 0 0 1-2.922 1.5l.344.376a8.131 8.131 0 0 0 1.671-.672c.528-.29.993-.633 1.391-1.032.402-.394.734-.843.984-1.343.258-.496.422-1.051.485-1.657H1.203zm0 0"/></symbol><symbol overflow="visible" id="ab"><path d="M3.11-6.938c.6 0 1.062.176 1.374.516.32.336.485.742.485 1.219 0 .48-.164.894-.485 1.234-.312.344-.773.516-1.375.516-.605 0-1.07-.172-1.39-.516a1.763 1.763 0 0 1-.469-1.234c0-.477.156-.883.469-1.219.32-.34.785-.516 1.39-.516zM8.03-.109a.843.843 0 0 1-.219.562 1.426 1.426 0 0 1-.562.422c-.25.121-.55.21-.89.266a6.648 6.648 0 0 1-2.219 0 2.929 2.929 0 0 1-.86-.266 1.376 1.376 0 0 1-.578-.422.867.867 0 0 1-.203-.562c0-.207.066-.395.203-.563.133-.164.328-.305.578-.422.239-.113.524-.203.86-.265a6.648 6.648 0 0 1 2.218 0c.34.062.641.152.891.265.238.117.426.258.563.422a.843.843 0 0 1 .218.563zm.516 0c0-.508-.285-.93-.844-1.266-.562-.34-1.379-.516-2.437-.516-1.055 0-1.864.176-2.422.516C2.28-1.039 2-.617 2-.109c0 .527.281.957.844 1.28.558.333 1.367.5 2.422.5 1.058 0 1.875-.167 2.437-.5.559-.323.844-.753.844-1.28zM5.14-6.453a2.341 2.341 0 0 0-.844-.703 2.492 2.492 0 0 0-1.188-.282c-.355 0-.683.067-.984.188-.293.117-.55.277-.766.484-.21.2-.379.434-.5.704a2.151 2.151 0 0 0-.171.859c0 .312.054.605.171.875.121.273.29.512.5.719.215.199.473.355.766.468.3.118.629.172.984.172.446 0 .848-.094 1.204-.281.363-.184.648-.438.859-.75h2.625v1.906h.5v-5.672h-.5v1.313zm.25 2.031c.039-.121.07-.25.093-.375a1.842 1.842 0 0 0 0-.828 9.037 9.037 0 0 0-.109-.406h2.422v1.61zm0 0"/></symbol><symbol overflow="visible" id="ac"><path d="M2.344-1.578v2.844h6.36V.844h-5.86v-2.422zm5.594-3.766H5.796v.422h2.14v3.875h.5v-6.719h-.5zM3.702-6.672h2.172v-.422H1.062v.422h2.125v.469c0 .43-.082.832-.234 1.203-.156.367-.363.71-.61 1.031-.25.305-.538.574-.859.813a5.47 5.47 0 0 1-.984.562l.36.36c.058-.028.206-.114.437-.25.238-.133.5-.32.781-.563.27-.226.535-.5.797-.812.258-.32.453-.688.578-1.094.121.398.313.746.563 1.047.246.304.507.558.78.765.247.211.477.371.688.485.215.117.36.183.422.203l.313-.39a4.904 4.904 0 0 1-.766-.423 4.063 4.063 0 0 1-.828-.703 3.525 3.525 0 0 1-.656-.969 2.879 2.879 0 0 1-.266-1.265zm0 0"/></symbol><symbol overflow="visible" id="ad"><path d="M1.984-4.484v-2.438h5.391v2.438zm-.515.421H7.89v-3.28H1.469zm0 2.813v2.516h6.765V.844h-6.25V-1.25zM5.03-2.266h4.125v-.421H.203v.421h4.328v2.157h.5zm0 0"/></symbol><symbol overflow="visible" id="ae"><path d="M6.11-6.094c0-.215-.06-.426-.173-.625a1.78 1.78 0 0 0-.484-.547 2.696 2.696 0 0 0-.75-.375 3.248 3.248 0 0 0-.953-.14c-.355 0-.68.05-.969.14a2.65 2.65 0 0 0-.734.375c-.211.157-.371.34-.485.547-.117.2-.171.41-.171.625 0 .23.054.45.171.657.114.199.274.37.485.515.207.156.453.285.734.375.29.094.614.14.969.14.34 0 .66-.046.953-.14.29-.09.54-.219.75-.375a1.64 1.64 0 0 0 .484-.516 1.35 1.35 0 0 0 .172-.656zM8.343-.422v-7.344h-.5v5.485H5.156v.422h2.688v1.437zm-.906-3.047v-.422c-.125.024-.348.055-.657.094-.312.031-.66.059-1.031.078a19.21 19.21 0 0 1-1.172.094c-.387.023-.715.031-.984.031H.516v.422h2.437v1.875h.516v-1.89c.976-.008 1.797-.04 2.453-.094.652-.059 1.16-.125 1.516-.188zm1.156 4.735V.844H2.75V-.937h-.5v2.203zm-3-7.36c0 .313-.16.602-.469.86-.313.25-.773.375-1.375.375-.594 0-1.055-.125-1.375-.375-.313-.258-.469-.547-.469-.86 0-.308.157-.593.469-.843.32-.247.781-.375 1.375-.375.602 0 1.063.128 1.375.375.309.25.469.535.469.843zm0 0"/></symbol><symbol overflow="visible" id="af"><path d="M1.328.172H.391v.812h.578c-.024.082-.051.157-.078.22a.538.538 0 0 1-.125.155.791.791 0 0 1-.157.11c-.054.027-.117.066-.187.11l.203.218c.09-.043.195-.106.313-.188a.924.924 0 0 0 .265-.312c.059-.125.098-.211.11-.25.007-.043.015-.145.015-.297zm0 0"/></symbol><symbol overflow="visible" id="ag"><path d="M1.531-1.328v.422h5.594v2.375h.5v-2.797zm5.594-6.438v5.72h.5v-1.75h1.516v-.423H7.625v-1.578h1.516v-.422H7.625v-1.547zM6.5-2.812v-.407c-.168.031-.371.07-.61.11-.23.03-.519.058-.859.078a25.23 25.23 0 0 1-1.234.078c-.469.012-1.035.015-1.688.015h-.906v-1.78H4.97v-2.516H.703v.421H4.47v1.672H.703v2.625h1.563c1.214 0 2.156-.03 2.812-.093.664-.07 1.14-.141 1.422-.204zm0 0"/></symbol><symbol overflow="visible" id="as"><path d="M3.89-6.89h-.484l.016 5.656c0 .273-.055.496-.156.671-.106.18-.239.32-.391.422a1.393 1.393 0 0 1-.484.22c-.168.038-.32.062-.454.062-.148 0-.308-.024-.484-.063A1.497 1.497 0 0 1 .97-.14a1.236 1.236 0 0 1-.375-.421C.5-.738.454-.962.454-1.235v-.61h-.47v.532c.012.343.067.636.172.875.102.242.25.437.438.593.176.153.379.266.61.328a2.401 2.401 0 0 0 1.438 0c.237-.062.452-.175.64-.328.175-.156.32-.351.437-.594.113-.238.172-.53.172-.875zm0 0"/></symbol><symbol overflow="visible" id="at"><path d="M7.125.422v-7.313H6.5L3.875-.109l-2.64-6.782h-.61V.422h.453V-6.11L3.594.39h.531l2.531-6.532.016 6.563zm0 0"/></symbol><symbol overflow="visible" id="au"><path d="M1.063.39v-7.28H.625V.39zm0 0"/></symbol><symbol overflow="visible" id="av"><path d="M4.953-5.094c0 .524-.164.961-.484 1.313-.324.344-.785.515-1.375.515-.594 0-1.055-.171-1.375-.515-.324-.352-.485-.79-.485-1.313 0-.508.16-.941.485-1.297.32-.363.781-.546 1.375-.546.59 0 1.05.183 1.375.546.32.356.484.79.484 1.297zm.25-1.156a2.436 2.436 0 0 0-2.11-1.172c-.366 0-.695.067-.984.188-.293.117-.55.285-.765.5-.211.21-.38.457-.5.734a2.34 2.34 0 0 0-.172.906c0 .324.055.633.172.922a2.289 2.289 0 0 0 1.265 1.234c.29.118.618.172.985.172.457 0 .863-.097 1.219-.296.363-.196.648-.47.859-.813h2.61v2.828h.515v-6.719H7.78v1.516zm.172 1.969c.04-.133.07-.266.094-.39a2.082 2.082 0 0 0 .015-.798 9.7 9.7 0 0 0-.078-.36h2.375v1.548zm3.172 5.547V.844H2.703v-2.422h-.515v2.844zm0 0"/></symbol><symbol overflow="visible" id="aw"><path d="M9.156-2.688v-.421H7.422c.05-.32.101-.633.156-.938.05-.3.102-.61.156-.922l.125-.984c.051-.352.098-.742.141-1.172H1.328v.422h6.094a48.862 48.862 0 0 1-.234 1.781c-.086.617-.18 1.223-.282 1.813H.203v.421H4.22V1.47h.515v-4.157zm0 0"/></symbol><symbol overflow="visible" id="ax"><path d="M4.672-5.563c.183.555.457 1.04.812 1.454.364.418.735.761 1.11 1.03.37.282.718.497 1.031.642.309.148.508.23.594.25l.328-.36a6.013 6.013 0 0 1-1.188-.531 5.686 5.686 0 0 1-1.156-.906 5.164 5.164 0 0 1-.89-1.172 2.96 2.96 0 0 1-.344-1.407v-.718H4.39v.718c0 .5-.121.977-.36 1.422-.242.438-.539.832-.89 1.172a6.37 6.37 0 0 1-1.172.906 5.263 5.263 0 0 1-1.157.516l.329.36c.082-.02.28-.11.593-.266.32-.152.672-.375 1.047-.656a6.78 6.78 0 0 0 1.11-1.032c.363-.414.625-.89.78-1.421zM9.156.11v-.421H4.937V-2.75h-.515v2.438H.203v.421zm0 0"/></symbol><symbol overflow="visible" id="ay"><path d="M1.36-6.344h6.609v-.422h-6.61zm5.093 3.672H8.22v-.422H6.703l.188-2.937h-.5l-.188 2.937H3.156L2.937-6.03h-.5l.22 2.937H1.124v.422h1.828v2.375H.203V.11h8.953v-.406H6.453zm-3 0h2.5v2.375h-2.5zm0 0"/></symbol><symbol overflow="visible" id="az"><path d="M7.938-7.766V1.47h.5v-9.235zM3.28-6.234v1.015c0 .606-.101 1.164-.297 1.672a6.145 6.145 0 0 1-.703 1.375 5.503 5.503 0 0 1-.906 1.031 4.457 4.457 0 0 1-.86.594l.376.36A6.755 6.755 0 0 0 2.25-1.391c.277-.308.54-.671.781-1.078a4.7 4.7 0 0 0 .516-1.344c.09.493.254.934.484 1.329.239.398.489.742.75 1.03.258.282.504.513.735.688.226.18.379.29.453.329L6.28-.86c-.117-.051-.308-.18-.578-.391a4.602 4.602 0 0 1-.828-.844c-.293-.363-.55-.8-.766-1.312-.21-.52-.312-1.125-.312-1.813v-1.015h2.36v-.422H1v.422zm0 0"/></symbol><symbol overflow="visible" id="aA"><path d="M4.672-6.438c.176.356.398.676.672.954.277.273.582.511.906.718.332.211.664.387 1 .532.34.136.664.238.969.296l.328-.343a4.363 4.363 0 0 1-1.14-.36 6.704 6.704 0 0 1-1.157-.671 4.116 4.116 0 0 1-.922-.875c-.242-.32-.36-.657-.36-1v-.407h-.577v.407c0 .343-.114.675-.329.984a4.014 4.014 0 0 1-.843.844 5.6 5.6 0 0 1-1.156.703c-.43.187-.848.336-1.25.437l.328.344c.27-.059.582-.164.937-.313a6.711 6.711 0 0 0 1.047-.546 5.18 5.18 0 0 0 .922-.735c.277-.289.488-.613.625-.968zm4.484 4.016v-.422H4.937v-1.672h-.515v1.672H.203v.422zm-1.219 3.89V-1.14h-6.64v.422h6.125V1.47zm0 0"/></symbol><symbol overflow="visible" id="aB"><path d="M7.89-5.625H5.704v.422h2.188v3.11h.515v-5.673h-.515zm-2.546 4.14c.394 0 .754.04 1.078.11.332.063.613.16.844.281.238.117.425.262.562.438a.843.843 0 0 1 .219.562.843.843 0 0 1-.219.563 1.828 1.828 0 0 1-.562.437c-.23.114-.512.203-.844.266a6.19 6.19 0 0 1-2.156 0A3.733 3.733 0 0 1 3.39.906 1.798 1.798 0 0 1 2.844.47a.867.867 0 0 1-.203-.563c0-.207.066-.394.203-.562.133-.176.316-.32.547-.438.246-.12.539-.218.875-.281.332-.07.691-.11 1.078-.11zm0-.406c-1.043 0-1.848.176-2.407.516-.562.336-.843.758-.843 1.266 0 .527.281.957.844 1.28.558.333 1.363.5 2.406.5 1.039 0 1.836-.167 2.39-.5.559-.323.844-.753.844-1.28 0-.508-.285-.93-.844-1.266-.554-.34-1.351-.516-2.39-.516zM3.719-6.516v-.89h-.516v.89c0 .5-.117.961-.344 1.375-.218.418-.48.79-.78 1.11a5.871 5.871 0 0 1-.923.781c-.312.2-.558.332-.734.39l.406.344A4.773 4.773 0 0 0 2-3.296c.27-.24.54-.524.813-.86.269-.34.484-.742.64-1.203.176.418.399.785.672 1.093.277.313.563.586.844.813.277.219.535.394.765.515.227.126.383.208.47.235l.327-.39c-.105-.028-.316-.13-.625-.298a5.426 5.426 0 0 1-.937-.703 4.332 4.332 0 0 1-.875-1.047 2.558 2.558 0 0 1-.375-1.375zm0 0"/></symbol><symbol overflow="visible" id="aC"><path d="M5.094-1.453c.383 0 .738.035 1.062.094.332.062.617.152.86.265.238.125.425.274.562.438a.843.843 0 0 1 .219.562.843.843 0 0 1-.219.563 1.687 1.687 0 0 1-.562.422 3.286 3.286 0 0 1-.86.25A6.273 6.273 0 0 1 4 1.14a3.426 3.426 0 0 1-.86-.25 1.611 1.611 0 0 1-.562-.422.867.867 0 0 1-.203-.563c0-.207.066-.394.203-.562.133-.164.32-.313.563-.438.246-.113.535-.203.859-.265a6.273 6.273 0 0 1 1.094-.094zm0-.438c-1.055 0-1.864.176-2.422.516-.555.336-.828.758-.828 1.266 0 .527.273.957.828 1.28.558.333 1.367.5 2.422.5 1.039 0 1.836-.167 2.39-.5.559-.323.844-.753.844-1.28 0-.508-.285-.93-.844-1.266-.554-.34-1.351-.516-2.39-.516zm2.922-3.062h1.406v-.453H8.016v-2.36H7.5v5.672h.516zM3.609-6.656h2.172v-.422H.97v.422h2.14v.265c0 .48-.09.903-.265 1.266-.18.355-.367.648-.563.875a4.256 4.256 0 0 1-.984.86c-.367.23-.664.398-.89.5l.359.359.28-.14c.122-.071.266-.165.423-.282.144-.09.297-.195.453-.313.164-.12.316-.257.453-.406.238-.246.441-.492.61-.734.175-.239.3-.485.374-.735.082.25.192.48.329.688.144.21.335.441.578.687.132.149.285.278.453.391a4.156 4.156 0 0 0 .89.484c.121.043.22.082.282.11l.312-.39a2.585 2.585 0 0 1-.312-.11 4.996 4.996 0 0 1-.438-.203 5.557 5.557 0 0 1-.5-.297 2.825 2.825 0 0 1-.453-.406 3.514 3.514 0 0 1-.64-.938c-.169-.363-.25-.785-.25-1.266zm0 0"/></symbol><symbol overflow="visible" id="aD"><path d="M2.031-1.36v2.626h6.25V.844h-5.75V-1.36zm3.797-5.765H1v.422h4.266a35.466 35.466 0 0 1-.157 1.469c-.062.468-.136.93-.218 1.375h.5c.101-.528.187-1.051.25-1.563.07-.508.132-1.078.187-1.703zm1.594-.64v6.921h.5v-3.312h1.36v-.422h-1.36v-3.188zm-.406 5.109v-.422c-.243.043-.543.086-.907.125-.355.043-.726.074-1.109.094-.375.03-.742.058-1.094.078-.344.011-.617.015-.812.015v-2.28h-.516v2.28H.297v.422h1.437a56.36 56.36 0 0 0 2.735-.062c.414-.02.828-.051 1.234-.094.402-.04.844-.094 1.313-.156zm0 0"/></symbol><symbol overflow="visible" id="aE"><path d="M2.844-1.36h5.094V.939H2.843zm5.61 2.72v-3.141h-6.11v3.14zm-.517-6.782h-2.14V-5h2.14v2.594h.5v-5.36h-.5zm-4.25-1.266H5.86v-.421H1.047v.421h2.14v.266c0 .586-.12 1.09-.359 1.516A4.05 4.05 0 0 1 2-3.875a4.602 4.602 0 0 1-.906.656c-.293.149-.496.246-.61.297l.36.36c.07-.028.222-.11.453-.235.226-.121.484-.3.766-.531.269-.215.535-.477.796-.781.258-.309.454-.664.579-1.063.12.406.316.758.578 1.047.27.281.539.52.812.703.258.188.5.332.719.422.215.094.36.152.422.172l.312-.375a5.272 5.272 0 0 1-.531-.203 3.797 3.797 0 0 1-.875-.531 3.791 3.791 0 0 1-.828-.97c-.242-.402-.36-.91-.36-1.515zm0 0"/></symbol><symbol overflow="visible" id="aF"><path d="M4.094-3.516c0 .399-.04.774-.11 1.125-.062.356-.16.66-.28.907a1.688 1.688 0 0 1-.47.609.965.965 0 0 1-.609.219A.932.932 0 0 1 2-.875a1.828 1.828 0 0 1-.469-.61 3.142 3.142 0 0 1-.281-.89 6.545 6.545 0 0 1-.094-1.14c0-.395.032-.766.094-1.11.059-.34.156-.645.281-.906.133-.258.29-.461.469-.61a.926.926 0 0 1 1.234 0c.184.157.344.364.47.61.12.261.218.57.28.922.07.343.11.71.11 1.093zm4.25 4.985v-9.235h-.516V1.47zM4.625-3.984c-.063-.883-.277-1.582-.64-2.094-.368-.508-.82-.766-1.36-.766-.293 0-.566.082-.813.235-.25.156-.46.382-.625.671A3.549 3.549 0 0 0 .75-4.89c-.094.407-.14.868-.14 1.375 0 .512.046.977.14 1.391.102.406.25.758.438 1.047.164.293.375.52.625.672.246.156.519.234.812.234.29 0 .555-.078.797-.234.246-.153.46-.38.64-.672.176-.29.317-.64.422-1.047.102-.414.157-.879.157-1.39v-.032h1.437v4.594h.516v-8.594h-.516v3.563zm0 0"/></symbol><symbol overflow="visible" id="aG"><path d="M1.422-4h3.25v3h-3.25zm-.5-2.813v6.235h4.266v-6.234h-.516v2.406h-3.25v-2.407zm6.812 3.36h1.422v-.422H7.734v-3.89H7.22v9.234h.515zm0 0"/></symbol><symbol overflow="visible" id="aH"><path d="M7.25-7.766V1.47h.516v-4.89H9.28v-.423H7.766v-3.922zM6.64-.78v-.406c-.25.042-.73.101-1.437.171-.7.075-1.582.11-2.64.11h-1v-2.547h3.656v-3.281H1.047v.406h3.656v2.453H1.047v3.39H2.64c1.058 0 1.925-.035 2.593-.109.664-.07 1.133-.133 1.407-.187zm0 0"/></symbol><symbol overflow="visible" id="aI"><path d="M1.984-4.25v-1.625h5.391v1.625zm2.954 1.922v-1.5H7.89V-7.5h-.516v1.203h-5.39V-7.5h-.516v3.672h2.953v1.5H.203v.422h8.953v-.422zm-3.47 1.094v2.5h6.766V.844h-6.25v-2.078zm0 0"/></symbol><symbol overflow="visible" id="aJ"><path d="M2.406-6.922l.11 1.719H1.125v.422h7.11v-.422H6.827l.125-1.719h1.078v-.422H1.328v.422zm4.047 0l-.125 1.719H3.031l-.125-1.719zM4.937-2.125v-1.203h4.22v-.422H.202v.422h4.219v1.203H1.469v.422h5.906v1.062H1.469v2h6.687V.938H1.984V-.22h5.907v-1.906zm0 0"/></symbol><symbol overflow="visible" id="aK"><path d="M9.156-2.313H.203v.422h4.219v3.36h.516v-3.36h4.218zM1.47-3.843h6.36v-3.391h-6.36zm.515-.423v-2.546h5.344v2.546zm0 0"/></symbol><symbol overflow="visible" id="aL"><path d="M2.078 1.766h.281C1.86.89 1.492.043 1.266-.766A8.644 8.644 0 0 1 .922-3.14c0-.77.113-1.562.344-2.375.226-.82.593-1.675 1.093-2.562h-.28c-.157.23-.337.512-.532.844-.188.336-.367.71-.531 1.125-.18.43-.325.894-.438 1.39A6.81 6.81 0 0 0 .406-3.14c0 .563.055 1.098.172 1.594.113.492.258.945.438 1.36.164.414.343.785.53 1.109.196.332.376.613.532.844zm0 0"/></symbol><symbol overflow="visible" id="aM"><path d="M5.344.328v-.36H1.266a3.27 3.27 0 0 1 .265-1.03c.153-.34.426-.649.813-.922l1.172-.829c.195-.132.382-.269.562-.406.184-.133.348-.281.484-.437.133-.164.243-.348.329-.547.09-.207.148-.457.171-.75.02-.277-.023-.55-.125-.813a2.127 2.127 0 0 0-.453-.687 2.476 2.476 0 0 0-.718-.453 2.362 2.362 0 0 0-.938-.188c-.344 0-.66.07-.937.203-.282.125-.52.293-.704.5-.187.211-.332.446-.421.704-.094.261-.133.519-.11.765h.406c0-.238.036-.457.11-.656.082-.207.203-.39.36-.547.152-.152.335-.281.546-.375.215-.09.457-.14.719-.14.277 0 .535.05.765.14.227.094.422.223.579.375.164.156.285.34.359.547.082.2.117.41.11.625-.024.406-.153.738-.391.984-.23.242-.496.465-.797.672l-1.203.86a3.81 3.81 0 0 0-.844.75c-.188.242-.324.48-.406.718-.094.23-.153.457-.172.672a5.58 5.58 0 0 0-.031.625zm0 0"/></symbol><symbol overflow="visible" id="aN"><path d="M2.844-7.11c-.406 0-.77.102-1.078.298-.313.199-.575.472-.782.812-.21.336-.37.742-.484 1.219-.105.468-.156.98-.156 1.531 0 .563.05 1.082.156 1.547.113.469.273.871.484 1.203.207.344.47.61.782.797.308.195.671.297 1.078.297.402 0 .765-.102 1.078-.297A2.35 2.35 0 0 0 4.703-.5c.215-.332.379-.734.484-1.203.114-.465.172-.984.172-1.547 0-.55-.058-1.063-.171-1.531A3.752 3.752 0 0 0 4.702-6a2.553 2.553 0 0 0-.781-.813 2.003 2.003 0 0 0-1.078-.296zm0 7.25c-.324 0-.614-.085-.86-.25-.242-.163-.449-.406-.625-.718-.168-.3-.293-.66-.375-1.078A6.63 6.63 0 0 1 .86-3.25c0-.477.04-.926.125-1.344.082-.414.207-.781.375-1.093.176-.301.383-.536.625-.704.246-.175.536-.265.86-.265.32 0 .61.09.86.265.245.168.456.403.624.704.176.312.305.68.39 1.093.09.418.141.867.141 1.344 0 .48-.05.93-.14 1.344a3.538 3.538 0 0 1-.39 1.078 1.96 1.96 0 0 1-.626.719c-.25.164-.539.25-.86.25zm0 0"/></symbol><symbol overflow="visible" id="aO"><path d="M3.36.39v-7.327h-.344c0 .199-.051.382-.141.546a1.21 1.21 0 0 1-.36.407c-.187.136-.363.23-.515.28a1.677 1.677 0 0 1-.469.063v.375h1.375V.391zm0 0"/></symbol><symbol overflow="visible" id="aP"><path d="M4.031-3.516a2.53 2.53 0 0 0 .766-.609c.246-.277.375-.625.375-1.031 0-.27-.059-.524-.172-.766a1.874 1.874 0 0 0-.453-.625 2.217 2.217 0 0 0-.719-.437 2.803 2.803 0 0 0-.953-.157 2.77 2.77 0 0 0-.953.157 2.137 2.137 0 0 0-.719.437c-.2.18-.351.387-.453.625a1.89 1.89 0 0 0-.156.766c0 .406.117.754.36 1.031.245.273.507.477.78.61-.18.085-.351.19-.515.312-.157.125-.301.277-.422.453a2.125 2.125 0 0 0-.328.563c-.074.199-.11.414-.11.64 0 .305.055.59.172.86.121.261.297.488.516.671.226.184.492.336.797.454a2.99 2.99 0 0 0 1.031.171c.383 0 .734-.058 1.047-.171.308-.118.57-.27.781-.454.227-.183.399-.41.516-.671.12-.27.187-.555.187-.86 0-.226-.043-.441-.125-.64a2.785 2.785 0 0 0-.312-.563 2.487 2.487 0 0 0-.453-.453 5.251 5.251 0 0 0-.485-.313zM2.875-3.75c-.605 0-1.055-.14-1.344-.422a1.397 1.397 0 0 1-.437-1.031c0-.395.144-.734.437-1.016.29-.289.739-.437 1.344-.437.59 0 1.04.148 1.344.437.3.282.453.621.453 1.016 0 .398-.152.742-.453 1.031-.305.281-.754.422-1.344.422zm0 3.875c-.648 0-1.148-.16-1.5-.484C1.02-.691.844-1.086.844-1.547c0-.465.176-.863.531-1.187.352-.332.852-.5 1.5-.5.645 0 1.145.168 1.5.5.363.324.547.722.547 1.187 0 .461-.184.856-.547 1.188-.355.324-.855.484-1.5.484zm0 0"/></symbol><symbol overflow="visible" id="aQ"><path d="M.563-8.078H.28c.496.887.864 1.742 1.094 2.562a8.43 8.43 0 0 1 .36 2.375c0 .774-.122 1.567-.36 2.375C1.145.043.777.891.281 1.766h.281c.153-.23.329-.512.516-.844.195-.324.379-.695.547-1.11.176-.414.32-.867.438-1.359A6.725 6.725 0 0 0 2.25-3.14c0-.558-.066-1.086-.188-1.578a9.352 9.352 0 0 0-.437-1.39 8.878 8.878 0 0 0-.547-1.125 14.109 14.109 0 0 0-.516-.844zm0 0"/></symbol><symbol overflow="visible" id="aR"><path d="M4.672-1.375c.414 0 .797.035 1.14.094.352.062.66.16.922.281.258.105.461.242.61.406a.827.827 0 0 1 .218.547.768.768 0 0 1-.218.531 1.828 1.828 0 0 1-.61.422c-.261.114-.57.203-.921.266a7.035 7.035 0 0 1-2.297 0 3.735 3.735 0 0 1-.907-.266 1.793 1.793 0 0 1-.593-.422.751.751 0 0 1-.22-.53c0-.196.071-.38.22-.548.144-.164.343-.3.593-.406.246-.121.551-.219.907-.281a7.035 7.035 0 0 1 1.156-.094zm-.25-1.64v1.234c-1 .031-1.777.21-2.328.531-.555.324-.828.727-.828 1.203 0 .496.296.91.89 1.234.602.32 1.442.485 2.516.485 1.082 0 1.922-.164 2.516-.484.601-.325.906-.739.906-1.235 0-.476-.285-.879-.844-1.203-.555-.32-1.324-.5-2.313-.531v-1.235h4.22v-.406H.202v.406zM4.39-6.907c0 .273-.13.539-.375.797a4.98 4.98 0 0 1-.907.734c-.375.219-.77.41-1.171.563a4.858 4.858 0 0 1-1.047.28l.312.391c.121-.02.336-.078.64-.171.302-.102.63-.243.985-.422a6.372 6.372 0 0 0 1.031-.61c.332-.246.598-.535.797-.86.27.45.711.856 1.328 1.22a7.43 7.43 0 0 0 2.141.828l.328-.36a7.958 7.958 0 0 1-1-.28 6.803 6.803 0 0 1-1.172-.548 4.512 4.512 0 0 1-.968-.703c-.274-.27-.407-.555-.407-.86h3v-.405H1.391v.406zm0 0"/></symbol><symbol overflow="visible" id="aS"><path d="M7.828-7.766V1.47h.516v-9.235zM.766-.546l.421.327A7.934 7.934 0 0 0 2.75-1.28 7.361 7.361 0 0 0 4.047-2.72a7.56 7.56 0 0 0 .89-1.765 8.619 8.619 0 0 0 .47-2.125H1.327v.421h3.5a6.497 6.497 0 0 1-.39 1.657c-.2.543-.473 1.07-.813 1.578a7.478 7.478 0 0 1-1.234 1.36A6.81 6.81 0 0 1 .766-.548zm0 0"/></symbol><symbol overflow="visible" id="aT"><path d="M4.828-5.328c0 .46-.152.851-.453 1.172-.305.312-.746.468-1.328.468-.586 0-1.035-.156-1.344-.468a1.634 1.634 0 0 1-.453-1.172c0-.434.148-.817.453-1.14.309-.333.758-.5 1.344-.5.582 0 1.023.163 1.328.484.3.324.453.71.453 1.156zM2.641-.625h5.093V.938H2.641zM8.25 1.359V-2.25h-.516v1.219H2.641V-2.25h-.5v3.61zm-2.875-7a2.027 2.027 0 0 0-.266-.703 2.681 2.681 0 0 0-.484-.593 2.501 2.501 0 0 0-.719-.391c-.261-.09-.55-.14-.86-.14-.355 0-.679.058-.968.171-.293.117-.539.274-.734.469a2.005 2.005 0 0 0-.656 1.5c0 .305.054.586.171.844.114.261.274.488.485.671.207.188.453.34.734.454.29.105.613.156.969.156.332 0 .64-.05.922-.156a2.39 2.39 0 0 0 .734-.422 2.17 2.17 0 0 0 .469-.64c.121-.247.195-.516.219-.798h2.343v2.453h.5v-5h-.5v2.125zm0 0"/></symbol><symbol overflow="visible" id="aU"><path d="M3.781-6.672c.301 0 .57.055.813.156.238.094.441.223.61.375.151.168.273.364.359.579.09.21.14.433.14.671 0 .25-.05.489-.14.704-.086.21-.208.398-.36.562a1.843 1.843 0 0 1-.61.375 2.23 2.23 0 0 1-.812.14c-.312 0-.59-.046-.828-.14a1.81 1.81 0 0 1-.594-.375 1.58 1.58 0 0 1-.375-.563 2.157 2.157 0 0 1-.109-.703c0-.238.035-.46.11-.671a1.64 1.64 0 0 1 .374-.579c.164-.152.364-.28.594-.375.238-.101.516-.156.828-.156zm0-.453c-.355 0-.683.066-.984.188a2.299 2.299 0 0 0-.781.484c-.22.2-.395.433-.516.703a2.151 2.151 0 0 0-.172.86c0 .312.055.605.172.874.121.274.297.512.516.72.214.198.476.355.78.468.302.117.63.172.985.172.352 0 .68-.055.985-.172.3-.113.562-.27.78-.469.216-.207.384-.445.5-.719a2.1 2.1 0 0 0 0-1.734 2.085 2.085 0 0 0-.5-.703 2.377 2.377 0 0 0-.78-.484 2.644 2.644 0 0 0-.985-.188zm4.156-.64v9.234h.5v-9.235zM7.595-.907v-.438c-.18.032-.418.07-.719.11-.293.03-.605.058-.938.078-.335.023-.675.043-1.015.062-.344.012-.652.024-.922.032-.262.011-.559.015-.89.015H1.28C1.02-1.055.832-1.063.72-1.063v.438h2.344c.32 0 .64-.008.953-.031.27 0 .57-.008.906-.031.34-.02.68-.04 1.016-.063.34-.02.66-.047.953-.078.289-.027.523-.055.703-.078zm0 0"/></symbol><symbol overflow="visible" id="aV"><path d="M8.156 1.36V.936H1.984V-.234h5.907v-1.907H1.469v.422h5.906v1.063H1.469v2.015zm1-4.844H.203v.421h8.953zm-1.14-2.672c0-.207-.082-.41-.235-.61a1.935 1.935 0 0 0-.64-.515 4.122 4.122 0 0 0-1.047-.375 6.793 6.793 0 0 0-1.422-.14c-1.055 0-1.871.163-2.453.484-.586.324-.875.71-.875 1.156 0 .46.289.851.875 1.172.582.312 1.398.468 2.453.468 1.058 0 1.883-.156 2.469-.468.582-.32.875-.711.875-1.172zm-.532 0a.691.691 0 0 1-.218.5 1.802 1.802 0 0 1-.594.375c-.25.117-.55.207-.89.265a7.097 7.097 0 0 1-1.11.079c-.406 0-.785-.024-1.125-.079a3.397 3.397 0 0 1-.875-.265c-.262-.102-.461-.227-.594-.375a.698.698 0 0 1 0-.984c.133-.153.332-.286.594-.391a4.43 4.43 0 0 1 .875-.25 6.648 6.648 0 0 1 2.234 0c.34.062.64.148.89.25.247.105.446.238.595.39.144.149.218.309.218.485zm0 0"/></symbol><symbol overflow="visible" id="aW"><path d="M7.828-7.766V1.47h.516v-9.235zm-1.781 2.25c0-.257-.059-.507-.172-.75a2.12 2.12 0 0 0-.484-.64 2.37 2.37 0 0 0-.75-.438 2.542 2.542 0 0 0-.954-.172c-.355 0-.68.059-.968.172a2.336 2.336 0 0 0-.735.438c-.21.187-.37.402-.484.64a1.698 1.698 0 0 0-.172.75c0 .274.055.528.172.766.113.242.273.45.484.625.207.188.454.34.735.453.289.106.613.156.969.156.351 0 .671-.05.953-.156.289-.113.539-.265.75-.453.207-.176.367-.383.484-.625.113-.238.172-.492.172-.766zm-.484 0c0 .2-.043.395-.125.579-.086.18-.208.34-.36.484a2.01 2.01 0 0 1-.594.36c-.23.085-.496.124-.796.124-.293 0-.56-.039-.797-.125-.23-.09-.426-.21-.579-.36a1.52 1.52 0 0 1-.359-.484 1.352 1.352 0 0 1 0-1.14c.082-.184.203-.348.36-.484.152-.145.347-.266.578-.36.238-.09.504-.14.796-.14.301 0 .567.05.797.14.227.094.426.215.594.36a1.41 1.41 0 0 1 .484 1.047zM7.421-2.28v-.406c-.117.03-.32.066-.61.093a26.68 26.68 0 0 1-.968.094c-.356.031-.73.059-1.125.078-.387.012-.742.016-1.063.016H.61v.422h2.704v3.25h.515v-3.25c.309 0 .64-.008.985-.032.351-.02.695-.046 1.03-.078.321-.02.618-.047.891-.078.278-.027.508-.066.688-.11zm0 0"/></symbol><symbol overflow="visible" id="aX"><path d="M2.078-1.36v2.626h6.219V.844H2.594V-1.36zm5.906-3.046h1.422v-.422H7.984v-2.938H7.47v6.922h.515zm-4.5-.39c.57 0 1.008.132 1.313.39.308.25.469.523.469.812 0 .305-.16.574-.47.813-.304.23-.741.344-1.312.344-.562 0-1.004-.114-1.312-.344-.305-.239-.453-.508-.453-.813 0-.289.148-.562.453-.812.308-.258.75-.39 1.312-.39zm0-.391c-.367 0-.695.05-.984.14-.281.086-.52.2-.703.344-.2.148-.352.32-.453.516a1.231 1.231 0 0 0-.157.609c0 .21.047.414.141.61.102.187.254.355.453.5.196.148.438.261.719.343.277.086.61.125.984.125.352 0 .672-.04.954-.125.289-.082.535-.195.734-.344.195-.144.348-.312.453-.5a1.2 1.2 0 0 0 .172-.61c0-.214-.055-.421-.156-.608a1.535 1.535 0 0 0-.47-.516 2.456 2.456 0 0 0-.718-.344 3.182 3.182 0 0 0-.969-.14zM.704-6.22v.422H6.28v-.422zm1.265-1.39v.421h2.937v-.421zm0 0"/></symbol><symbol overflow="visible" id="aY"><path d="M5.047-6.906v-.438H2.203v.438zm1.281 1.468v-.406H.953v.407zm3.047 2.11v-.422H7.937v-4.016h-.515V1.47h.516v-4.797zM7-.484v-.422a9.64 9.64 0 0 1-1.11.125c-.367.023-.8.043-1.296.062h-.688v-1.14c.59-.028 1.078-.18 1.453-.454.371-.269.563-.597.563-.984a.943.943 0 0 0-.172-.531 1.905 1.905 0 0 0-.453-.469 2.668 2.668 0 0 0-.734-.312 3.137 3.137 0 0 0-.907-.125c-.68 0-1.215.144-1.61.421-.398.274-.593.614-.593 1.016 0 .387.172.715.516.985.34.273.816.425 1.422.453v1.156H.516v.422l4.078-.016c.246-.008.476-.02.687-.031.215-.008.426-.024.625-.047.184-.008.367-.023.547-.047.176-.02.36-.039.547-.062zM5.406-3.297c0 .293-.16.54-.468.735-.313.187-.739.28-1.266.28-.524 0-.95-.093-1.281-.28-.325-.196-.485-.442-.485-.735 0-.289.16-.535.485-.734.32-.207.742-.313 1.265-.313.52 0 .942.106 1.266.313.32.21.484.457.484.734zm0 0"/></symbol><symbol overflow="visible" id="aZ"><path d="M2.781-7.11c-.324 0-.629.067-.906.188a2.264 2.264 0 0 0-.719.484c-.21.211-.379.465-.5.766a2.86 2.86 0 0 0-.219.969c-.023.344.016.668.11.969.09.293.234.554.422.78.176.231.394.419.656.563.27.149.555.239.86.266.519.055.976-.035 1.374-.266.395-.226.688-.53.875-.906.02.211.008.512-.03.906a3.52 3.52 0 0 1-.298 1.141c-.187.438-.41.785-.656 1.031-.25.246-.605.375-1.063.375-.511 0-.914-.152-1.203-.453a2.016 2.016 0 0 1-.546-1.125h-.47c.028.242.098.488.204.734a2 2 0 0 0 .453.657c.176.195.395.351.656.469.258.12.555.18.89.171.528-.011.977-.18 1.345-.5.37-.32.664-.757.875-1.312.113-.309.203-.656.265-1.031.059-.371.098-.75.11-1.125a9.32 9.32 0 0 0-.063-1.079 5.625 5.625 0 0 0-.14-.859 2.672 2.672 0 0 0-.875-1.312 2.167 2.167 0 0 0-1.407-.5zm0 4.579c-.273 0-.527-.047-.765-.14a1.69 1.69 0 0 1-.594-.438 1.941 1.941 0 0 1-.39-.657 2.374 2.374 0 0 1-.141-.843c0-.602.175-1.094.53-1.47.352-.37.806-.562 1.36-.562.551 0 1.004.192 1.36.563.351.375.53.867.53 1.469 0 .312-.05.597-.14.843-.093.25-.226.473-.39.657a1.713 1.713 0 0 1-.61.437c-.23.094-.48.14-.75.14zm0 0"/></symbol><symbol overflow="visible" id="ba"><path d="M7.938-7.766v6.72h.5v-6.72zm-5.5 6.188v2.844H8.64V.844H2.953v-2.422zm1.28-4.813v-1.046h-.515v1.046c0 .512-.113.989-.328 1.422a5.835 5.835 0 0 1-.766 1.172 5.086 5.086 0 0 1-.921.86c-.313.23-.567.378-.75.437l.39.344c.082-.04.235-.133.453-.281.227-.145.477-.348.75-.61.258-.246.52-.555.781-.922.27-.363.485-.781.641-1.25.152.387.363.754.625 1.094.27.344.547.645.828.89.27.274.52.493.75.657.227.156.383.246.469.265l.328-.374a6.866 6.866 0 0 1-.734-.454 5.795 5.795 0 0 1-.907-.78 4.43 4.43 0 0 1-.78-1.095 2.99 2.99 0 0 1-.313-1.375zm0 0"/></symbol><symbol overflow="visible" id="bb"><path d="M6.422-.875a5.725 5.725 0 0 1-.656-.406 5.587 5.587 0 0 1-1.797-2.25c-.242-.551-.36-1.207-.36-1.969v-1.688h-.5V-5.5c0 .75-.113 1.402-.328 1.953-.21.555-.465 1.02-.765 1.39a4.833 4.833 0 0 1-.938.954 6.872 6.872 0 0 1-.828.547l.406.36c.102-.052.285-.177.547-.376.258-.195.535-.457.828-.781.29-.309.563-.68.813-1.11a4.38 4.38 0 0 0 .515-1.39c.121.5.32.957.594 1.36.27.405.547.757.828 1.046.278.305.54.543.782.719.246.18.421.289.515.328zm2.937-2.688v-.421H7.938v-3.782h-.516V1.47h.516v-5.032zm0 0"/></symbol><symbol overflow="visible" id="ah"><path d="M6.438-8.672v1.063h-4.25v2.796h3.984v1.063H2.188v3.016h4.328V.328H1v-9zm0 0"/></symbol><symbol overflow="visible" id="ai"><path d="M5.125-.531a1.53 1.53 0 0 1-.797.734 2.888 2.888 0 0 1-1.125.219c-.844 0-1.488-.254-1.922-.75C.844-.836.625-1.555.625-2.484v-1.22c0-.444.063-.85.188-1.218.12-.371.3-.687.53-.937.227-.246.505-.438.829-.563.32-.133.68-.203 1.078-.203.508 0 .91.09 1.203.266.29.18.504.367.64.562v-3.312h1.173V.328H5.14v-.86zm-.016-3.594c0-.164-.043-.336-.125-.516a1.535 1.535 0 0 0-.359-.468 2.03 2.03 0 0 0-.563-.329 2.003 2.003 0 0 0-.703-.125c-.5 0-.894.18-1.171.532-.274.355-.407.863-.407 1.515v.829c0 .656.14 1.164.422 1.515.277.356.664.531 1.156.531.246 0 .477-.035.688-.109.207-.082.39-.195.547-.344.152-.152.281-.336.375-.547.09-.207.14-.445.14-.718zm0 0"/></symbol><symbol overflow="visible" id="aj"><path d="M.844-6.5h1.172v4.234c0 .586.113 1.008.343 1.266.227.25.586.375 1.079.375.195 0 .394-.035.593-.11.196-.07.375-.175.532-.312.152-.133.28-.305.375-.516.09-.207.14-.44.14-.703V-6.5h1.188V.328H5.125v-.86h-.016c-.199.313-.46.552-.78.72-.325.175-.724.265-1.188.265-.325 0-.63-.055-.907-.156a1.969 1.969 0 0 1-.718-.438 2.19 2.19 0 0 1-.5-.765c-.118-.301-.172-.66-.172-1.078zm0 0"/></symbol><symbol overflow="visible" id="ak"><path d="M3.469-6.625c.539 0 .988.074 1.344.219.351.136.664.316.937.531l-.563.906a3.097 3.097 0 0 0-.843-.468 2.922 2.922 0 0 0-.875-.125c-.219 0-.434.042-.64.125a1.38 1.38 0 0 0-.532.359 1.75 1.75 0 0 0-.36.61c-.093.25-.14.55-.14.89v.875c0 .367.047.68.14.937.09.262.22.477.375.641.153.156.333.277.532.36.207.074.422.109.64.109.434 0 .797-.055 1.079-.172.289-.121.554-.274.796-.453l.563.922c-.242.199-.559.375-.953.53-.387.165-.887.25-1.5.25-.918 0-1.63-.273-2.125-.812C.852-.94.609-1.71.609-2.703v-.86c0-.488.067-.921.204-1.296.132-.383.32-.707.562-.97.246-.257.55-.456.906-.593a3.35 3.35 0 0 1 1.188-.203zm0 0"/></symbol><symbol overflow="visible" id="al"><path d="M2.781.422c-.668 0-1.199-.168-1.594-.5C.801-.418.61-.895.61-1.5v-.328c0-.582.188-1.055.563-1.422.383-.371 1-.563 1.844-.563h1.687v-.39c0-.457-.113-.797-.328-1.016-.21-.226-.559-.343-1.047-.343-.387 0-.726.066-1.015.187a5.978 5.978 0 0 0-.891.5l-.578-.89c.32-.239.687-.442 1.094-.61.402-.164.875-.25 1.406-.25.37 0 .71.05 1.015.14.301.094.563.239.782.423.226.187.406.417.53.687.122.273.188.582.188.922V.328H4.734V-.5H4.72a1.164 1.164 0 0 1-.266.344 1.841 1.841 0 0 1-.344.265c-.18.102-.37.18-.578.235-.21.05-.46.078-.75.078zm1.922-3.203H3.047c-.469 0-.805.097-1 .281-.2.18-.297.43-.297.75v.172c0 .336.113.582.344.734.226.149.5.219.812.219.29 0 .54-.035.75-.11.215-.07.414-.175.594-.312a.994.994 0 0 0 .344-.422c.07-.164.11-.379.11-.64zm0 0"/></symbol><symbol overflow="visible" id="am"><path d="M1.36-5.469H.265V-6.5h1.093v-1.734h1.172V-6.5h1.75v1.031h-1.75v3.89c0 .212.02.38.063.5.039.126.097.227.172.298.07.062.16.113.265.14.114.024.227.032.344.032.29 0 .582-.055.875-.172l.188.984a4.19 4.19 0 0 1-.563.14 2.98 2.98 0 0 1-.672.079c-.637 0-1.105-.164-1.406-.484-.293-.32-.438-.829-.438-1.516zm0 0"/></symbol><symbol overflow="visible" id="an"><path d="M2.156-6.5V.328H.984V-6.5zm.031-2.453v1.328H.938v-1.328zm0 0"/></symbol><symbol overflow="visible" id="ao"><path d="M3.563-6.625c.902 0 1.624.273 2.156.813.527.542.797 1.308.797 2.296v.829c0 .992-.27 1.757-.797 2.296-.532.54-1.254.813-2.157.813-.917 0-1.644-.274-2.171-.813C.867-.93.609-1.695.609-2.687v-.829c0-.996.258-1.765.782-2.296.527-.54 1.254-.813 2.171-.813zm0 5.984c.519 0 .94-.175 1.265-.53.332-.352.5-.891.5-1.61v-.64c0-.716-.168-1.255-.5-1.61-.324-.352-.746-.532-1.266-.532-.53 0-.96.18-1.28.532-.325.355-.485.894-.485 1.61v.64c0 .719.16 1.258.484 1.61.32.355.75.53 1.281.53zm0 0"/></symbol><symbol overflow="visible" id="ap"><path d="M6.406.328H5.234v-4.25c0-.57-.12-.988-.359-1.25-.23-.258-.59-.39-1.078-.39-.211 0-.414.039-.61.109a1.636 1.636 0 0 0-.922.828c-.093.21-.14.45-.14.719V.328H.937V-6.5h1.141v.86h.016c.195-.32.46-.567.797-.735.332-.164.726-.25 1.187-.25.32 0 .625.055.906.156.278.094.524.242.735.438.215.199.383.457.5.765.12.305.187.664.187 1.079zm0 0"/></symbol><symbol overflow="visible" id="aq"><path d="M1-8.672h3.11c.495 0 .93.067 1.296.188.364.125.66.304.89.53.24.231.415.509.532.829.121.313.188.652.188 1.016v.265c0 .367-.067.711-.188 1.032a2.337 2.337 0 0 1-.562.843 2.637 2.637 0 0 1-.907.578c-.355.137-.773.204-1.25.204H2.188V.328H1zm1.188 1.063v3.359h1.718c1.258 0 1.89-.54 1.89-1.625v-.219c0-.508-.151-.89-.452-1.14-.305-.246-.739-.375-1.297-.375zm0 0"/></symbol><symbol overflow="visible" id="ar"><path d="M3-.625c.434 0 .773-.078 1.016-.234a.738.738 0 0 0 .375-.657v-.093a.941.941 0 0 0-.063-.36.602.602 0 0 0-.234-.265 2.26 2.26 0 0 0-.469-.204 11.98 11.98 0 0 0-.75-.203 5.824 5.824 0 0 1-.969-.265 3.106 3.106 0 0 1-.718-.39 1.5 1.5 0 0 1-.454-.563 1.914 1.914 0 0 1-.14-.766v-.156c0-.227.047-.457.14-.688.102-.226.254-.426.454-.593.195-.165.453-.301.765-.407.309-.101.68-.156 1.11-.156.445 0 .867.055 1.265.156.395.106.754.278 1.078.516l-.515.906a2.57 2.57 0 0 0-.782-.39 3.051 3.051 0 0 0-.968-.157c-.493 0-.848.082-1.063.235a.709.709 0 0 0-.312.593v.11c0 .273.109.472.328.593.215.125.586.243 1.11.344a6.41 6.41 0 0 1 1.046.281c.3.106.547.243.734.407.196.156.344.351.438.578.09.219.14.492.14.812v.157c0 .261-.058.511-.171.75a1.9 1.9 0 0 1-.5.609 2.572 2.572 0 0 1-.797.39 3.385 3.385 0 0 1-1.047.157A4.763 4.763 0 0 1 1.53.188C1.082.039.7-.156.391-.406l.546-.938c.29.211.602.383.938.516.34.137.719.203 1.125.203zm0 0"/></symbol><symbol overflow="visible" id="bc"><path d="M2.125-5.719c.207-.34.484-.578.828-.703.34-.133.695-.203 1.063-.203.832 0 1.468.254 1.906.75.445.5.672 1.223.672 2.156v1.203c0 .47-.067.887-.188 1.25a2.433 2.433 0 0 1-.547.922 2.2 2.2 0 0 1-.828.563c-.324.133-.68.203-1.062.203-.5 0-.903-.09-1.203-.266a1.843 1.843 0 0 1-.657-.625h-.03v.797H.936v-9.437h1.188zm-.016 3.61c0 .18.04.355.125.53.082.18.204.337.36.47.152.136.336.254.547.343.214.086.453.125.703.125.496 0 .89-.175 1.172-.53.277-.352.421-.86.421-1.516v-.829c0-.652-.144-1.16-.421-1.515-.282-.352-.676-.532-1.172-.532-.242 0-.465.043-.672.125a1.604 1.604 0 0 0-.922.89c-.094.212-.14.45-.14.72zm0 0"/></symbol><symbol overflow="visible" id="bd"><path d="M2.125-9.11V.329H.937v-9.437zm0 0"/></symbol><symbol overflow="visible" id="bf"><path d="M1.453-1.594h1.375v1.438H1.453zm0-5.578h1.375v1.438H1.453zm0 0"/></symbol><symbol overflow="visible" id="bg"><path d="M2.14-3.422c0 .95.118 1.895.36 2.828.246.926.68 1.832 1.297 2.719h-1.11A7.412 7.412 0 0 1 1.345-.391C1.05-1.336.906-2.367.906-3.484v-.5c0-1.114.145-2.133.438-3.063a7.412 7.412 0 0 1 1.343-2.516h1.11a8.52 8.52 0 0 0-1.281 2.626 10.96 10.96 0 0 0-.375 2.89zm0 0"/></symbol><symbol overflow="visible" id="bh"><path d="M2.188.328H1v-9h3.156c.434 0 .828.067 1.172.188.352.125.645.3.875.515.238.211.422.465.547.766.121.305.188.633.188.984v.328c0 .512-.133.965-.391 1.36-.25.386-.613.676-1.078.86l1.734 4H5.906L4.328-3.439h-2.14zm0-4.812h1.671c.676 0 1.157-.13 1.438-.391.289-.258.437-.613.437-1.063v-.25c0-.433-.144-.78-.421-1.03-.282-.259-.727-.391-1.329-.391H2.188zm0 0"/></symbol><symbol overflow="visible" id="bi"><path d="M3.453-5.594c-.242 0-.465.051-.672.14-.21.087-.394.208-.547.36a1.504 1.504 0 0 0-.343.563c-.086.218-.125.46-.125.718v.172h3.312v-.234c0-.52-.148-.938-.437-1.25-.282-.309-.68-.469-1.188-.469zm2.61 5.266c-.293.21-.645.383-1.047.531-.399.145-.899.219-1.5.219-.418 0-.805-.067-1.157-.188a2.547 2.547 0 0 1-.921-.546 2.602 2.602 0 0 1-.61-.985C.68-1.69.61-2.164.61-2.719V-3.5c0-.508.067-.957.204-1.344.144-.394.343-.722.593-.984a2.36 2.36 0 0 1 .907-.594 3.12 3.12 0 0 1 1.14-.203c.84 0 1.516.27 2.016.797.496.531.75 1.285.75 2.25v.922H1.766v.047c0 .648.164 1.144.5 1.484.332.336.765.5 1.296.5.434 0 .805-.05 1.11-.156.308-.114.61-.266.89-.453zm0 0"/></symbol><symbol overflow="visible" id="bj"><path d="M6.766-2.39c0 .335-.059.675-.172 1.015a2.525 2.525 0 0 1-.532.922 2.641 2.641 0 0 1-.937.656C4.738.38 4.273.47 3.735.47a5.13 5.13 0 0 1-1.641-.25 4.234 4.234 0 0 1-1.328-.75l.593-.985c.414.336.817.567 1.204.688.382.117.78.172 1.187.172.309 0 .582-.051.813-.156.238-.102.43-.235.578-.391.144-.164.25-.352.312-.563.07-.207.11-.414.11-.625v-.14c0-.602-.153-1.051-.454-1.344-.304-.29-.738-.438-1.296-.438-.376 0-.711.075-1 .22-.282.136-.52.3-.704.484h-.921l.28-5.063h4.735v1.063h-3.64l-.141 2.796c.195-.144.445-.269.75-.375.3-.113.633-.171 1-.171.402 0 .77.074 1.094.218.32.149.593.352.812.61.227.25.399.55.516.89.113.336.172.692.172 1.063zm0 0"/></symbol><symbol overflow="visible" id="bk"><path d="M4.39-3.297V.328H3.204v-3.625L.188-8.672H1.53l2.282 4.203 2.234-4.203h1.328zm0 0"/></symbol><symbol overflow="visible" id="bl"><path d="M4.547-5.313a1.762 1.762 0 0 0-.36-.125 2.307 2.307 0 0 0-.453-.046c-.21 0-.414.05-.609.14-.2.086-.371.211-.516.375-.148.157-.27.352-.359.578a1.999 1.999 0 0 0-.125.735V.328H.937V-6.5h1.141v1.078h.016c.195-.383.445-.68.75-.89.308-.208.71-.313 1.203-.313.289 0 .578.05.86.14zm0 0"/></symbol><symbol overflow="visible" id="bm"><path d="M1.938-4.047a10.65 10.65 0 0 0-.391-2.89C1.297-7.853.87-8.727.28-9.563h1.11a7.55 7.55 0 0 1 1.343 2.515c.29.93.438 1.95.438 3.063v.5c0 1.117-.149 2.148-.438 3.093a7.55 7.55 0 0 1-1.343 2.516H.28C.895 1.238 1.321.332 1.562-.594c.247-.933.375-1.879.375-2.828zm0 0"/></symbol></defs><g fill="#4f4c4d"><use xlink:href="#a" x="336.961" y="47.727"/><use xlink:href="#b" x="344.962" y="47.727"/><use xlink:href="#c" x="352.962" y="47.727"/><use xlink:href="#d" x="360.962" y="47.727"/><use xlink:href="#e" x="368.962" y="47.727"/><use xlink:href="#f" x="371.569" y="47.727"/><use xlink:href="#g" x="379.57" y="47.727"/><use xlink:href="#h" x="387.57" y="47.727"/><use xlink:href="#i" x="395.57" y="47.727"/><use xlink:href="#j" x="403.57" y="47.727"/><use xlink:href="#k" x="411.571" y="47.727"/><use xlink:href="#a" x="419.571" y="47.727"/><use xlink:href="#b" x="427.571" y="47.727"/></g><use xlink:href="#l" x="435.571" y="47.727" fill="#231f20"/><g fill="#231f20"><use xlink:href="#m" x="438.177" y="47.727"/><use xlink:href="#n" x="446.178" y="47.727"/><use xlink:href="#o" x="454.178" y="47.727"/><use xlink:href="#p" x="462.178" y="47.727"/><use xlink:href="#q" x="470.178" y="47.727"/><use xlink:href="#r" x="478.179" y="47.727"/><use xlink:href="#s" x="486.179" y="47.727"/><use xlink:href="#t" x="494.179" y="47.727"/><use xlink:href="#u" x="496.786" y="47.727"/></g><g fill="#231f20"><use xlink:href="#v" x="501.703" y="47.727"/><use xlink:href="#w" x="506.503" y="47.727"/><use xlink:href="#x" x="508.436" y="47.727"/><use xlink:href="#t" x="511.043" y="47.727"/><use xlink:href="#y" x="513.65" y="47.727"/><use xlink:href="#z" x="517.605" y="47.727"/></g><g fill="#393536"><use xlink:href="#A" x="535.245" y="48.426"/><use xlink:href="#B" x="540.818" y="48.426"/><use xlink:href="#C" x="546.392" y="48.426"/></g><g fill="#33459a"><use xlink:href="#D" x="223.665" y="250.25"/><use xlink:href="#E" x="237.18" y="250.25"/><use xlink:href="#F" x="242.121" y="250.25"/><use xlink:href="#E" x="255.636" y="250.25"/><use xlink:href="#G" x="260.577" y="250.25"/><use xlink:href="#E" x="274.092" y="250.25"/></g><g fill="#33459a"><use xlink:href="#H" x="279.032" y="249.351"/><use xlink:href="#I" x="289.844" y="249.351"/></g><g fill="#231f20"><use xlink:href="#J" x="223.665" y="270.763"/><use xlink:href="#K" x="227.362" y="270.763"/><use xlink:href="#L" x="233.971" y="270.763"/><use xlink:href="#M" x="235.471" y="270.763"/><use xlink:href="#N" x="238.348" y="270.763"/><use xlink:href="#O" x="246.196" y="270.763"/><use xlink:href="#P" x="254.043" y="270.763"/><use xlink:href="#Q" x="261.891" y="270.763"/><use xlink:href="#M" x="269.738" y="270.763"/><use xlink:href="#R" x="272.616" y="270.763"/><use xlink:href="#S" x="280.463" y="270.763"/><use xlink:href="#T" x="288.311" y="270.763"/></g><g fill="#231f20"><use xlink:href="#U" x="94.845" y="355.545"/><use xlink:href="#V" x="104.001" y="355.545"/><use xlink:href="#W" x="113.156" y="355.545"/><use xlink:href="#X" x="122.311" y="355.545"/><use xlink:href="#Y" x="131.467" y="355.545"/><use xlink:href="#Z" x="140.622" y="355.545"/><use xlink:href="#aa" x="143.979" y="355.545"/><use xlink:href="#ab" x="153.134" y="355.545"/><use xlink:href="#ac" x="162.29" y="355.545"/><use xlink:href="#ad" x="171.445" y="355.545"/><use xlink:href="#W" x="180.6" y="355.545"/><use xlink:href="#X" x="189.756" y="355.545"/><use xlink:href="#ae" x="198.911" y="355.545"/><use xlink:href="#af" x="208.067" y="355.545"/><use xlink:href="#Z" x="210.162" y="355.545"/><use xlink:href="#aa" x="213.519" y="355.545"/><use xlink:href="#ab" x="222.674" y="355.545"/><use xlink:href="#ac" x="231.83" y="355.545"/><use xlink:href="#ag" x="240.985" y="355.545"/></g><g fill="#fff"><use xlink:href="#ah" x="136.039" y="327.353"/><use xlink:href="#ai" x="143.039" y="327.353"/><use xlink:href="#aj" x="150.014" y="327.353"/><use xlink:href="#ak" x="156.978" y="327.353"/><use xlink:href="#al" x="162.9" y="327.353"/><use xlink:href="#am" x="169.342" y="327.353"/><use xlink:href="#an" x="173.811" y="327.353"/><use xlink:href="#ao" x="176.706" y="327.353"/><use xlink:href="#ap" x="183.584" y="327.353"/></g><g fill="#fff"><use xlink:href="#aq" x="136.039" y="417.102"/><use xlink:href="#ao" x="143.269" y="417.102"/><use xlink:href="#ar" x="150.148" y="417.102"/><use xlink:href="#an" x="155.937" y="417.102"/><use xlink:href="#am" x="158.831" y="417.102"/><use xlink:href="#an" x="163.3" y="417.102"/><use xlink:href="#ao" x="166.194" y="417.102"/><use xlink:href="#ap" x="173.073" y="417.102"/></g><path d="M93.43 453.055h424.68" fill="none" stroke-width=".299637" stroke="#33459a" stroke-miterlimit="10"/><g fill="#231f20"><use xlink:href="#as" x="94.845" y="445.294"/><use xlink:href="#at" x="99.067" y="445.294"/><use xlink:href="#au" x="106.625" y="445.294"/><use xlink:href="#Z" x="108.121" y="445.294"/><use xlink:href="#aa" x="111.477" y="445.294"/><use xlink:href="#ab" x="120.633" y="445.294"/><use xlink:href="#ac" x="129.788" y="445.294"/><use xlink:href="#ag" x="138.944" y="445.294"/><use xlink:href="#Z" x="148.099" y="445.294"/><use xlink:href="#av" x="151.456" y="445.294"/><use xlink:href="#aw" x="160.611" y="445.294"/><use xlink:href="#ax" x="169.767" y="445.294"/><use xlink:href="#Z" x="178.922" y="445.294"/><use xlink:href="#W" x="182.279" y="445.294"/><use xlink:href="#ay" x="191.434" y="445.294"/></g><path d="M93.43 584.223h424.68" fill="none" stroke-width=".299637" stroke="#33459a" stroke-miterlimit="10"/><g fill="#231f20"><use xlink:href="#az" x="94.845" y="532"/><use xlink:href="#aA" x="104.001" y="532"/><use xlink:href="#aB" x="113.156" y="532"/><use xlink:href="#aC" x="122.311" y="532"/><use xlink:href="#Z" x="131.467" y="532"/><use xlink:href="#aD" x="134.824" y="532"/><use xlink:href="#aE" x="143.979" y="532"/><use xlink:href="#aF" x="153.134" y="532"/><use xlink:href="#U" x="162.29" y="532"/><use xlink:href="#Z" x="171.445" y="532"/><use xlink:href="#aG" x="174.802" y="532"/><use xlink:href="#aH" x="183.957" y="532"/><use xlink:href="#aI" x="193.113" y="532"/><use xlink:href="#Z" x="202.268" y="532"/><use xlink:href="#aJ" x="205.625" y="532"/><use xlink:href="#aK" x="214.781" y="532"/><use xlink:href="#ae" x="223.936" y="532"/><use xlink:href="#Z" x="233.091" y="532"/><use xlink:href="#aa" x="236.448" y="532"/><use xlink:href="#ab" x="245.604" y="532"/><use xlink:href="#ac" x="254.759" y="532"/><use xlink:href="#ag" x="263.914" y="532"/><use xlink:href="#Z" x="273.07" y="532"/><use xlink:href="#aL" x="276.427" y="532"/><use xlink:href="#aM" x="278.939" y="532"/><use xlink:href="#aN" x="284.453" y="532"/><use xlink:href="#aO" x="289.966" y="532"/><use xlink:href="#aP" x="295.48" y="532"/><use xlink:href="#aQ" x="300.994" y="532"/></g><g fill="#231f20"><use xlink:href="#aR" x="94.845" y="554.649"/><use xlink:href="#ax" x="104.001" y="554.649"/><use xlink:href="#aS" x="113.156" y="554.649"/><use xlink:href="#aT" x="122.311" y="554.649"/><use xlink:href="#aU" x="131.467" y="554.649"/><use xlink:href="#Z" x="140.622" y="554.649"/><use xlink:href="#az" x="143.979" y="554.649"/><use xlink:href="#aA" x="153.134" y="554.649"/><use xlink:href="#aB" x="162.29" y="554.649"/><use xlink:href="#aC" x="171.445" y="554.649"/><use xlink:href="#aV" x="180.6" y="554.649"/><use xlink:href="#Z" x="189.756" y="554.649"/><use xlink:href="#aW" x="193.113" y="554.649"/><use xlink:href="#aX" x="202.268" y="554.649"/><use xlink:href="#Z" x="211.424" y="554.649"/><use xlink:href="#aS" x="214.781" y="554.649"/><use xlink:href="#aT" x="223.936" y="554.649"/><use xlink:href="#ad" x="233.091" y="554.649"/><use xlink:href="#aY" x="242.247" y="554.649"/><use xlink:href="#Z" x="251.402" y="554.649"/><use xlink:href="#aL" x="254.759" y="554.649"/><use xlink:href="#aM" x="257.272" y="554.649"/><use xlink:href="#aN" x="262.785" y="554.649"/><use xlink:href="#aO" x="268.299" y="554.649"/><use xlink:href="#aZ" x="273.812" y="554.649"/><use xlink:href="#aQ" x="279.326" y="554.649"/></g><g fill="#231f20"><use xlink:href="#aR" x="94.845" y="576.461"/><use xlink:href="#ax" x="104.001" y="576.461"/><use xlink:href="#aS" x="113.156" y="576.461"/><use xlink:href="#aT" x="122.311" y="576.461"/><use xlink:href="#aU" x="131.467" y="576.461"/><use xlink:href="#Z" x="140.622" y="576.461"/><use xlink:href="#az" x="143.979" y="576.461"/><use xlink:href="#aA" x="153.134" y="576.461"/><use xlink:href="#aB" x="162.29" y="576.461"/><use xlink:href="#aC" x="171.445" y="576.461"/><use xlink:href="#aV" x="180.6" y="576.461"/><use xlink:href="#Z" x="189.756" y="576.461"/><use xlink:href="#aW" x="193.113" y="576.461"/><use xlink:href="#aX" x="202.268" y="576.461"/><use xlink:href="#Z" x="211.424" y="576.461"/><use xlink:href="#ba" x="214.781" y="576.461"/><use xlink:href="#bb" x="223.936" y="576.461"/><use xlink:href="#aT" x="233.091" y="576.461"/><use xlink:href="#Z" x="242.247" y="576.461"/><use xlink:href="#ac" x="245.604" y="576.461"/><use xlink:href="#ag" x="254.759" y="576.461"/><use xlink:href="#Z" x="263.914" y="576.461"/><use xlink:href="#aL" x="267.271" y="576.461"/><use xlink:href="#aM" x="269.784" y="576.461"/><use xlink:href="#aN" x="275.297" y="576.461"/><use xlink:href="#aO" x="280.811" y="576.461"/><use xlink:href="#aZ" x="286.325" y="576.461"/><use xlink:href="#aQ" x="291.838" y="576.461"/></g><g fill="#fff"><use xlink:href="#aq" x="136.039" y="507.49"/><use xlink:href="#aj" x="143.269" y="507.49"/><use xlink:href="#bc" x="150.232" y="507.49"/><use xlink:href="#bd" x="157.208" y="507.49"/><use xlink:href="#an" x="160.03" y="507.49"/><use xlink:href="#ak" x="162.924" y="507.49"/><use xlink:href="#al" x="168.846" y="507.49"/><use xlink:href="#am" x="175.289" y="507.49"/><use xlink:href="#an" x="179.757" y="507.49"/><use xlink:href="#ao" x="182.652" y="507.49"/><use xlink:href="#ap" x="189.53" y="507.49"/><use xlink:href="#ar" x="196.542" y="507.49"/><use xlink:href="#be" x="202.331" y="507.49"/><use xlink:href="#bf" x="205.116" y="507.49"/><use xlink:href="#be" x="209.161" y="507.49"/><use xlink:href="#bg" x="211.946" y="507.49"/><use xlink:href="#bh" x="215.785" y="507.49"/><use xlink:href="#bi" x="223.354" y="507.49"/><use xlink:href="#ak" x="229.918" y="507.49"/><use xlink:href="#bi" x="235.84" y="507.49"/><use xlink:href="#ap" x="242.404" y="507.49"/><use xlink:href="#am" x="249.416" y="507.49"/><use xlink:href="#be" x="253.884" y="507.49"/><use xlink:href="#bj" x="256.67" y="507.49"/><use xlink:href="#be" x="263.815" y="507.49"/><use xlink:href="#bk" x="266.6" y="507.49"/></g><g fill="#fff"><use xlink:href="#bi" x="272.958" y="507.49"/><use xlink:href="#al" x="279.522" y="507.49"/><use xlink:href="#bl" x="285.964" y="507.49"/><use xlink:href="#ar" x="290.772" y="507.49"/><use xlink:href="#bm" x="296.561" y="507.49"/></g></svg>