<svg xmlns="http://www.w3.org/2000/svg" xmlns:xlink="http://www.w3.org/1999/xlink" width="793.701" height="1058.268" viewBox="0 0 595.276 793.701" version="1.2"><defs><clipPath id="D"><path d="M0 410h594.555v2H0zm0 0"/></clipPath><symbol overflow="visible" id="a"><path d="M2.875.031c.434 0 .82-.144 1.156-.437.332-.301.594-.64.782-1.016.183-.34.316-.71.39-1.11.082-.402.125-.804.125-1.202 0-.403-.05-.813-.14-1.22a4.843 4.843 0 0 0-.407-1.155A3.031 3.031 0 0 0 4-7.063a1.747 1.747 0 0 0-1.14-.421c-.844 0-1.473.457-1.876 1.359-.406.906-.609 1.707-.609 2.39 0 .712.203 1.52.61 2.422C1.386-.413 2.02.032 2.874.032zm0-.281c-.75 0-1.227-.441-1.422-1.328-.2-.895-.297-1.613-.297-2.156 0-.54.098-1.254.297-2.141.195-.895.672-1.344 1.422-1.344.363 0 .648.137.86.407.206.273.363.566.468.875.113.343.195.71.25 1.093.059.387.094.758.094 1.11 0 .324-.035.675-.094 1.046a9.33 9.33 0 0 1-.203 1.016c-.094.336-.254.66-.469.969-.21.305-.511.453-.906.453zm0 0"/></symbol><symbol overflow="visible" id="b"><path d="M1.875-1.047h-.203c-.117 0-.172-.02-.172-.062 0-.04.031-.102.094-.188.058-.09.11-.156.14-.187L3.656-3.36c.34-.301.66-.633.953-1 .29-.371.438-.805.438-1.297 0-.559-.227-1-.672-1.313a2.416 2.416 0 0 0-1.453-.484c-.375 0-.723.066-1.031.187-.313.125-.598.34-.844.641a6.377 6.377 0 0 1-.219.328c-.117.168-.172.293-.172.375 0 .031.008.059.031.078.02.024.047.032.079.032.05 0 .093-.024.125-.079.039-.05.07-.093.093-.125.153-.3.375-.55.657-.75.277-.207.597-.312.953-.312.445 0 .812.144 1.094.422.277.281.421.644.421 1.078 0 .555-.23 1.121-.687 1.703-.45.574-.852 1.059-1.203 1.453L.703-.594a.789.789 0 0 1-.094.156.3.3 0 0 0-.062.157c0 .074.047.11.14.11.09-.009.165-.016.22-.016h3.968a.406.406 0 0 0 .188-.032c.039-.027.062-.082.062-.156v-1.328-.156c0-.059-.043-.094-.125-.094-.063 0-.102.035-.11.094-.011.054-.023.105-.03.156-.032.293-.114.476-.235.547-.125.074-.336.11-.625.11zm0 0"/></symbol><symbol overflow="visible" id="c"><path d="M4.094-6.734l.203-.032a.45.45 0 0 0 .14-.015c.04-.02.07-.055.094-.11l.078-.312c0-.008.008-.067.032-.172.027-.102.046-.16.046-.172 0-.058-.027-.086-.078-.078a.7.7 0 0 0-.14.016l-2.594.343c-.219.032-.352.067-.39.094-.044.031-.098.152-.157.36l-.61 2.109a.385.385 0 0 0-.046.11.438.438 0 0 0-.031.14c0 .043.02.07.062.078.04.012.078.016.11.016a10.782 10.782 0 0 1 2 .28c.433.126.796.325 1.078.595.277.273.421.652.421 1.14 0 .45-.144.867-.421 1.25a3.069 3.069 0 0 1-.985.89 5.708 5.708 0 0 1-1.015.407A5.046 5.046 0 0 1 .828.422a.758.758 0 0 0-.14.016C.632.457.609.5.609.561c0 .04.016.067.047.079a.19.19 0 0 0 .11.03c.101 0 .257-.023.468-.062A9.032 9.032 0 0 0 2.531.25c.278-.094.535-.207.766-.328a4.62 4.62 0 0 0 1.219-1.047c.363-.426.546-.914.546-1.469 0-.37-.097-.734-.28-1.078A2.1 2.1 0 0 0 4-4.5a3.72 3.72 0 0 0-1.047-.375 8.69 8.69 0 0 0-1.11-.172l-.421-.031a5.264 5.264 0 0 1-.203-.031c-.074-.008-.11-.051-.11-.125 0-.028.008-.079.032-.141a.934.934 0 0 1 .046-.14l.125-.47c.07-.226.133-.35.188-.374.05-.028.203-.063.453-.094zm0 0"/></symbol><symbol overflow="visible" id="d"><path d="M7.422 1.36v-7.985h-.734v2.938h-.954V-6.5H5V.984h.734v-3.953h.954V1.36zM2.938-4.626v-.813H4.28v-.625H.813v.625h1.359v.688c0 .48-.043.926-.125 1.328a4.915 4.915 0 0 1-.344 1.125 3.87 3.87 0 0 1-.64.938c-.25.28-.551.539-.891.765.05.043.11.086.172.125.07.031.133.067.187.094a17.48 17.48 0 0 0 .328.234c.176-.12.352-.28.532-.468.175-.196.347-.407.515-.625.145-.196.274-.407.39-.625a3.29 3.29 0 0 0 .25-.672c.052.219.13.43.235.625a4.693 4.693 0 0 0 .844 1.078c.164.156.332.289.5.39a1 1 0 0 1 .266-.25l.125-.125.156-.125a3.154 3.154 0 0 1-.797-.656 3.326 3.326 0 0 1-.547-.86 5.18 5.18 0 0 1-.297-.983 7.006 7.006 0 0 1-.094-1.188zm0 0"/></symbol><symbol overflow="visible" id="e"><path d="M6.078-6.625V-.75h.75v-3.266h1.11v-.64h-1.11v-1.969zm-.344 3.234a5.189 5.189 0 0 1-.562.094c-.242.031-.496.067-.766.094a19.67 19.67 0 0 1-.812.078 8.224 8.224 0 0 1-.703.031l-1.313.016v-2.547H4.61v-.64H.844v3.843H2.25c.227-.008.422-.015.578-.015.258-.008.531-.024.813-.047.277-.02.55-.047.812-.079.258-.027.5-.062.719-.093a3.59 3.59 0 0 0 .562-.11zm1.344 4.594v-.64H2.422v-2.016h-.75v2.656zm0 0"/></symbol><symbol overflow="visible" id="f"><path d="M7.11-2.313v-4.312h-.75v1.578H4.624v-1.312h-.719v1.187h-2.25v-1.187H.922v3.687h3.703V-4.39h1.734v2.079zm-3.204-1h-2.25V-4.53h2.25zM7.11 1.282v-3.234h-.75v.922H2.547v-.922h-.75V1.28zm-.75-.61H2.547V-.405h3.812zm0 0"/></symbol><symbol overflow="visible" id="g"><path d="M7.11-.75v-5.875h-.75V-.75zM.61-4.406c0 .281.05.554.156.812.101.25.242.477.421.672.196.18.422.324.672.438.258.117.551.171.875.171.301 0 .582-.054.844-.171.258-.114.485-.258.672-.438.184-.195.332-.422.438-.672a2.21 2.21 0 0 0 .156-.812c0-.29-.055-.563-.157-.813a2.292 2.292 0 0 0-.437-.687 2.083 2.083 0 0 0-.672-.438 2.102 2.102 0 0 0-.844-.172c-.324 0-.617.059-.875.172-.25.106-.476.254-.671.438-.18.199-.32.43-.422.687-.106.25-.157.524-.157.813zm.765 0c0-.403.113-.75.344-1.032.238-.289.578-.437 1.015-.437.426 0 .758.148 1 .438.239.28.36.628.36 1.03 0 .4-.121.739-.36 1.016-.242.282-.574.422-1 .422-.437 0-.777-.14-1.015-.422-.23-.277-.344-.617-.344-1.015zm5.969 5.61V.562H2.562v-1.985h-.75v2.625zm0 0"/></symbol><symbol overflow="visible" id="i"><path d="M7.047 1.36v-7.985H6.28v7.984zM4.687-.657v-5.469H.97v5.469zm-.734-.64H1.72V-5.47h2.234zm0 0"/></symbol><symbol overflow="visible" id="j"><path d="M7.203 1.36v-7.985H6.47v2.844h-.985V-6.5H4.75V.984h.734v-4.046h.985v4.421zm-2.75-2.75c-.094.023-.21.042-.344.062-.136.023-.289.039-.453.047-.168.023-.336.039-.5.047H2.72l-1.063.015V-3.03h2.157v-3.125H.921v.64h2.172v1.844H.922v3.11l1.547-.016c.383 0 .765-.02 1.14-.063.371-.039.657-.078.844-.109zm0 0"/></symbol><symbol overflow="visible" id="k"><path d="M7.203 1.36v-7.985h-.75v7.984zM1.031-4.376a1.965 1.965 0 0 0 .578 1.406c.196.188.426.336.688.438.258.105.547.156.86.156.3 0 .581-.05.843-.156.258-.102.484-.25.672-.438a1.92 1.92 0 0 0 .437-.625c.114-.246.172-.508.172-.781 0-.27-.058-.523-.172-.766a2.006 2.006 0 0 0-.437-.625A2.182 2.182 0 0 0 4-6.187a2.102 2.102 0 0 0-.844-.172c-.312 0-.601.058-.86.171a2.308 2.308 0 0 0-.687.422 1.961 1.961 0 0 0-.578 1.391zm.735 0c0-.371.117-.691.359-.953.246-.27.594-.406 1.031-.406.426 0 .758.136 1 .406.239.262.36.582.36.953 0 .375-.121.7-.36.969-.242.261-.574.39-1 .39-.437 0-.785-.129-1.031-.39a1.399 1.399 0 0 1-.36-.969zm4.406 3.016a7.804 7.804 0 0 1-.688.093c-.28.032-.586.059-.906.079-.324.023-.637.042-.937.062a8.814 8.814 0 0 1-.688.031 4.92 4.92 0 0 1-.515.016H.609v.656s.086.008.266.016h1.266c.214 0 .367-.004.453-.016.363 0 .722-.008 1.078-.031.351-.02.687-.047 1-.078.308-.028.594-.063.844-.094a9.75 9.75 0 0 0 .656-.094zm0 0"/></symbol><symbol overflow="visible" id="l"><path d="M8.047-3.813v-.671H6.922v-2.141h-.766V-1.5h.766v-2.313zM4.14-6.046v-.594H1.687v.594zm1.14 1.203v-.593H.594v.593zM.921-3.078c0 .18.048.351.141.515.102.157.239.293.407.407.183.125.398.226.64.297.246.062.52.093.813.093.621 0 1.117-.125 1.484-.375.364-.257.547-.57.547-.937 0-.363-.183-.676-.547-.938-.355-.257-.847-.39-1.468-.39-.305 0-.583.039-.829.11-.25.062-.464.16-.64.28-.18.118-.317.258-.407.422-.093.168-.14.34-.14.516zm.782-.016c0-.215.11-.39.328-.515.227-.133.531-.204.906-.204.383 0 .688.067.907.188.215.125.328.305.328.531 0 .23-.113.414-.328.547-.219.137-.524.203-.906.203-.376 0-.68-.062-.907-.187a.625.625 0 0 1-.328-.563zm5.219 4.5v-2.515h-5.36v.625h4.579v1.89zm0 0"/></symbol><symbol overflow="visible" id="m"><path d="M7.11-.75v-5.875h-.75v.922H4.421a2.105 2.105 0 0 0-1.703-.844 2.076 2.076 0 0 0-1.531.64 1.962 1.962 0 0 0-.438.673c-.094.261-.14.535-.14.812 0 .293.046.57.14.828.102.25.25.477.438.672.183.188.41.34.671.453.258.106.547.156.86.156.37 0 .71-.078 1.015-.234.309-.164.555-.383.735-.656h1.89V-.75zm-.75-3.11H4.75a1.39 1.39 0 0 0 .063-.265c.019-.102.03-.203.03-.297a1.73 1.73 0 0 0-.03-.312 1.769 1.769 0 0 0-.063-.313h1.61zm-4.985-.562c0-.402.113-.75.344-1.031.238-.29.57-.438 1-.438.433 0 .77.149 1 .438.238.281.36.629.36 1.031 0 .406-.122.754-.36 1.031-.23.282-.567.422-1 .422-.43 0-.762-.14-1-.422-.23-.277-.344-.625-.344-1.03zm5.953 5.625v-.64H2.562v-1.985h-.75v2.625zm0 0"/></symbol><symbol overflow="visible" id="n"><path d="M7.781-2.156v-.64H6.484c.051-.227.098-.49.141-.782l.125-.906c.027-.32.055-.641.078-.954.027-.32.05-.625.063-.906H1.156v.64h4.938c-.024.481-.07.974-.14 1.47-.063.492-.15.972-.25 1.437H.265v.64h3.312V1.36h.75v-3.515zm0 0"/></symbol><symbol overflow="visible" id="p"><path d="M3.813-4.36v-.015h1.593v-.813h-4.25v.813h1.578v.016c-.023.18-.086.351-.187.515a2.406 2.406 0 0 1-.406.453c-.211.168-.446.317-.704.438a4.476 4.476 0 0 1-.796.297c.113.105.238.226.375.36.144.124.257.241.343.343.207-.07.407-.16.594-.266a4.05 4.05 0 0 0 .547-.344c.164-.113.316-.238.453-.374.133-.145.242-.29.328-.438.09.156.207.3.344.422.145.125.3.246.469.36.164.116.336.214.515.296.176.086.344.149.5.188.059-.09.145-.204.25-.329.114-.12.227-.242.344-.359-.2-.039-.41-.11-.625-.203a3.041 3.041 0 0 1-.594-.375 2.077 2.077 0 0 1-.453-.453 1.053 1.053 0 0 1-.218-.531zm2.25 3.126a6.179 6.179 0 0 1-.594.078c-.219.023-.446.039-.672.047-.219.011-.43.023-.625.03a7.116 7.116 0 0 1-.422.016V-2.25h-.969v1.203H.562v.86h1.844c.29 0 .614-.004.969-.016A22.94 22.94 0 0 0 4.422-.25c.34-.02.656-.04.937-.063.29-.019.524-.046.704-.078zm1.25 2.609v-8.016h-.954v8.016zm-2.86-7.11v-.796H2.016v.797zm0 0"/></symbol><symbol overflow="visible" id="q"><path d="M7.203-.75v-5.89h-.969v5.89zM3.328-5.39v-1.094H2.297v1.125c0 .304-.055.59-.156.859-.094.262-.23.496-.407.703-.199.262-.433.496-.703.703-.273.2-.558.367-.86.5.134.106.274.223.423.344.152.125.273.23.36.313.175-.09.359-.208.546-.344a5.69 5.69 0 0 0 .547-.453c.164-.153.316-.329.453-.516.145-.184.25-.375.313-.563.101.2.234.383.39.547.152.168.32.325.5.47.152.136.32.26.5.374.176.117.344.211.5.281.07-.101.164-.222.281-.359.121-.133.239-.266.344-.39a2.993 2.993 0 0 1-.75-.376 2.764 2.764 0 0 1-.64-.578 2.758 2.758 0 0 1-.454-.719 2.17 2.17 0 0 1-.156-.828zm4.063 6.609V.375H2.766v-1.734h-1v2.578zm0 0"/></symbol><symbol overflow="visible" id="r"><path d="M7.781-2.063v-.843h-3.25v-.906h2.39v-.829H2.204v-.984h4.64v-.828H1.235v2.64h2.297v.907H.281v.844zm-3.75 3.594c.965 0 1.707-.152 2.219-.453.508-.305.766-.676.766-1.11 0-.445-.258-.816-.766-1.109-.512-.289-1.254-.437-2.219-.437-.98 0-1.726.148-2.234.437-.512.293-.766.664-.766 1.11 0 .433.254.804.766 1.11.508.3 1.254.452 2.234.452zM2.156-.047c0-.246.16-.441.485-.578.332-.133.796-.203 1.39-.203.57 0 1.024.074 1.36.219.332.136.5.332.5.578 0 .246-.168.441-.5.578C5.055.68 4.6.75 4.03.75c-.593 0-1.058-.074-1.39-.219C2.316.395 2.156.2 2.156-.047zm0 0"/></symbol><symbol overflow="visible" id="s"><path d="M7.906-2.875v-.828H6.875v-.922h1.031v-.828H6.875v-1.188h-.969v5.063h.969v-1.297zM4.063-5.953v-.734H1.578v.734zm1.125 1.219v-.735H.468v.735zM.702-3.188c0 .18.05.348.156.5.114.149.266.274.454.376.183.117.41.21.671.28.258.063.54.095.844.095.645 0 1.16-.118 1.547-.36.383-.238.578-.539.578-.906 0-.34-.195-.629-.578-.86-.375-.226-.887-.343-1.531-.343-.313 0-.602.035-.86.093a2.298 2.298 0 0 0-.671.266c-.188.106-.34.238-.454.39a.794.794 0 0 0-.156.47zm3.235-.015c0 .2-.102.348-.297.437-.2.094-.465.141-.797.141-.344 0-.617-.047-.813-.14-.199-.09-.297-.235-.297-.422 0-.176.098-.317.297-.422.196-.102.469-.157.813-.157.332 0 .597.055.797.157.195.093.296.23.296.406zM7.046 0a.949.949 0 0 0-.219-.61 1.8 1.8 0 0 0-.578-.484 3.32 3.32 0 0 0-.922-.297A5.637 5.637 0 0 0 4.203-1.5c-.406 0-.789.04-1.14.11-.344.062-.649.16-.907.28a1.688 1.688 0 0 0-.61.47.927.927 0 0 0-.218.609c0 .238.067.453.203.64.145.196.348.364.61.5.257.133.562.235.906.297.351.07.734.11 1.14.11a6.6 6.6 0 0 0 1.11-.094 3.32 3.32 0 0 0 .922-.297c.258-.125.46-.285.61-.469.144-.187.218-.41.218-.656zm-4.64-.016c0-.132.046-.25.14-.343.101-.102.238-.18.406-.235a2.49 2.49 0 0 1 .563-.125c.214-.027.441-.047.671-.047.489 0 .899.067 1.235.188.34.125.516.316.516.562 0 .133-.055.25-.157.344a1.49 1.49 0 0 1-.375.25c-.168.059-.355.11-.562.14-.211.028-.426.048-.64.048-.243 0-.474-.02-.688-.047a2.957 2.957 0 0 1-.563-.14.952.952 0 0 1-.406-.25.472.472 0 0 1-.14-.345zm0 0"/></symbol><symbol overflow="visible" id="t"><path d="M7.797.484v-.843H4.53V-2h2.282v-4.422h-.97v1.313h-3.64v-1.313h-.969V-2h2.282v1.64H.28v.844zM5.844-2.844h-3.64v-1.422h3.64zm0 0"/></symbol><symbol overflow="visible" id="u"><path d="M1.078-6.203v.828h4.766c-.024.637-.074 1.3-.157 1.984-.085.68-.183 1.336-.296 1.97h.968l.172-1.141c.059-.415.114-.833.157-1.25.05-.426.093-.844.125-1.25.027-.415.054-.797.078-1.141zM7.797.484v-.843H3.844v-2.985h-.985v2.985H.281v.843zm0 0"/></symbol><symbol overflow="visible" id="v"><path d="M7.203 1.375v-8.016H6.22v2.313H4.53v.906H6.22v4.797zm-3.89-5.938v-1.765H2.296v1.719c0 .406-.05.793-.14 1.156-.087.355-.212.683-.376.984-.187.356-.43.68-.718.969a4.889 4.889 0 0 1-.97.75c.145.094.29.207.438.328.153.117.281.223.375.313.176-.114.364-.258.563-.438.195-.183.39-.39.578-.61a7.06 7.06 0 0 0 .453-.64 2.62 2.62 0 0 0 .313-.656c.09.23.21.457.359.672.152.218.32.426.5.61.164.187.336.362.515.515.176.148.348.273.516.375a5.852 5.852 0 0 1 .719-.656 5.685 5.685 0 0 1-.922-.704 3.572 3.572 0 0 1-.688-.89 3.265 3.265 0 0 1-.374-.922 4.443 4.443 0 0 1-.126-1.11zm0 0"/></symbol><symbol overflow="visible" id="x"><path d="M2.766-.547L1.125-6.125H.109L2.266.672h.968l2.172-6.797H4.391zm0 0"/></symbol><symbol overflow="visible" id="y"><path d="M2.438-3.688c.382 0 .675.18.874.532.196.355.297.82.297 1.39 0 .586-.101 1.051-.296 1.391-.2.344-.493.516-.876.516-.374 0-.664-.172-.859-.516-.187-.34-.281-.805-.281-1.39 0-.57.094-1.036.281-1.391.195-.352.484-.531.86-.531zm0-.75c-.7 0-1.227.247-1.579.735-.343.492-.515 1.137-.515 1.937C.344-.96.516-.32.859.156c.352.477.88.719 1.579.719.695 0 1.226-.242 1.593-.719.364-.476.547-1.117.547-1.922 0-.8-.183-1.445-.547-1.937-.367-.488-.898-.735-1.593-.735zm0 0"/></symbol><symbol overflow="visible" id="z"><path d="M.563-6.125V.672h.906v-6.797zm0 0"/></symbol><symbol overflow="visible" id="A"><path d="M.64-.047v1.203h1.25V-.047zm0 0"/></symbol><symbol overflow="visible" id="B"><path d="M2-6.25c-.605 0-1.059.324-1.36.969C.349-4.645.204-3.77.204-2.656c0 1.117.145 1.992.438 2.625.3.62.754.937 1.359.937.602 0 1.055-.316 1.36-.937.308-.633.468-1.508.468-2.625 0-1.114-.16-1.989-.469-2.625C3.055-5.926 2.602-6.25 2-6.25zm0 .797c.27 0 .488.258.656.766.164.5.25 1.18.25 2.03 0 .845-.086 1.52-.25 2.016-.168.5-.386.75-.656.75-.273 0-.488-.25-.64-.75-.157-.496-.235-1.171-.235-2.015 0-.852.078-1.531.234-2.031.153-.508.368-.766.641-.766zm0 0"/></symbol><symbol overflow="visible" id="C"><path d="M2.906-2.063c-.054.688-.18 1.231-.375 1.626-.187.386-.41.578-.656.578-.219 0-.395-.114-.516-.329a1.565 1.565 0 0 1-.203-.75H.25C.25-.344.395.113.688.438c.3.32.703.485 1.203.485.351 0 .656-.106.906-.313.258-.199.46-.476.61-.828.152-.351.269-.77.343-1.25.07-.476.11-1 .11-1.562 0-.477-.04-.914-.11-1.313a3.483 3.483 0 0 0-.344-1.015c-.148-.278-.34-.5-.578-.657a1.42 1.42 0 0 0-.844-.25c-.562 0-1.011.223-1.343.657-.336.437-.5 1.023-.5 1.75 0 .398.047.738.14 1.015.102.281.235.512.39.688.153.187.337.324.548.406.207.086.414.125.625.125a1.7 1.7 0 0 0 .562-.094c.184-.058.352-.176.5-.343zm-.953-.359c-.273 0-.488-.14-.64-.422-.157-.277-.235-.656-.235-1.125 0-.445.078-.812.234-1.094.153-.277.368-.421.641-.421.238 0 .445.148.625.437.176.281.266.645.266 1.078 0 .469-.09.848-.266 1.125-.168.281-.379.422-.625.422zm0 0"/></symbol><symbol overflow="visible" id="E"><path d="M1.516-6.063l5.578 3.375L1.516.688zm0 0"/></symbol><symbol overflow="visible" id="F"><path d="M2.719-6.125a2.314 2.314 0 0 0-1.36.719 1.984 1.984 0 0 0-.53 1.39c0 .305.054.586.171.844.121.262.29.488.5.672.207.2.457.355.75.469.29.105.61.156.953.156.352 0 .676-.05.969-.156.289-.114.535-.266.734-.453a1.95 1.95 0 0 0 .485-.672 2.07 2.07 0 0 0-.297-2.188c-.324-.394-.77-.644-1.328-.75-.043-.02-.07-.039-.079-.062a.173.173 0 0 1 0-.11c.008-.027.02-.062.032-.093a.644.644 0 0 0 .015-.125v-.094a.19.19 0 0 0-.03-.094l-.142-.047a.69.69 0 0 0-.203-.031 1.123 1.123 0 0 0-.25-.031 1.507 1.507 0 0 1-.203-.032c-.117 0-.199.04-.25.11-.043.074-.039.129.016.156a.305.305 0 0 0 .094.094.23.23 0 0 1 .062.078c.02.023.031.05.031.078 0 .024-.011.05-.03.078l-.063.063a.14.14 0 0 1-.047.031zM3.203-2.5a1.25 1.25 0 0 1-1-.453c-.25-.309-.375-.692-.375-1.14 0-.458.125-.833.375-1.126.258-.3.594-.453 1-.453a1.266 1.266 0 0 1 1 .469c.113.156.203.336.266.531.07.188.11.383.11.578 0 .45-.134.832-.391 1.14-.25.306-.583.454-.985.454zM7.25-7.266V.031c0 .258.004.504.016.735.007.238.03.445.062.625.027.175.07.316.125.421.05.114.117.165.203.157.196 0 .336-.239.422-.703.09-.461.133-1.086.125-1.875v-6.657c0-.144.004-.27.016-.375.02-.113.035-.207.047-.28a.348.348 0 0 0-.047-.188c-.024-.051-.074-.098-.156-.141a1.892 1.892 0 0 0-.313-.078c-.125-.027-.27-.063-.422-.094a8.745 8.745 0 0 0-.39-.047c-.125-.02-.2-.035-.22-.047-.343-.02-.534.024-.562.125-.031.094.055.184.266.266.133.063.25.121.344.172a.856.856 0 0 1 .25.156c.07.055.129.129.171.219.04.086.063.191.063.312zm0 0"/></symbol><symbol overflow="visible" id="G"><path d="M5.563-7.516a.87.87 0 0 0 .39-.093c.102-.051.16-.11.172-.172 0-.07-.055-.133-.156-.188-.094-.058-.258-.097-.485-.11-.367-.019-.695-.038-.984-.062a5.804 5.804 0 0 1-.828-.14c-.262-.04-.43-.028-.5.031-.074.055-.04.145.11.266.195.168.378.293.546.375.176.074.332.117.469.125.164.023.351.03.562.03.207-.007.442-.03.704-.062zm-.579 2.797c.215.063.47.145.75.235.29.086.567.168.829.25.269.086.507.164.718.234.207.063.348.105.422.125.195.063.352.09.469.078a.487.487 0 0 0 .265-.078c.06-.04.086-.094.079-.156a.27.27 0 0 0-.079-.188c-.062-.058-.199-.16-.406-.297a2.928 2.928 0 0 0-.547-.28 1.545 1.545 0 0 0-.265-.032c-.063 0-.121.008-.172.016-.055.011-.106.023-.156.03a.62.62 0 0 1-.141-.015c-.043 0-.117-.008-.219-.031-.093-.02-.207-.04-.328-.063l-.36-.078a3.19 3.19 0 0 1-.28-.078c.238-.133.484-.289.734-.469.258-.175.457-.316.594-.421.277-.215.425-.399.437-.547.02-.153-.098-.266-.344-.329-.023 0-.082-.003-.171-.015a3.711 3.711 0 0 0-.313-.016c-.117 0-.23.008-.344.016-.105 0-.18.02-.218.047-.086.043-.231.082-.438.11a16.807 16.807 0 0 1-1.469.063L3.36-6.61c-.23 0-.449-.004-.656-.016-.21-.008-.34-.023-.39-.047-.305-.027-.481-.008-.532.063-.043.074.04.175.25.296.227.149.414.247.563.297.152.055.285.086.39.094a.558.558 0 0 0 .25-.016c.07-.027.145-.066.22-.109h.03c.028-.008.063-.02.094-.031l.14-.031.188-.032c.059 0 .164-.004.313-.015.152-.008.328-.02.515-.032.184-.007.375-.019.563-.03.195-.009.367-.024.516-.048-.336.274-.7.54-1.094.797-.387.25-.778.48-1.172.688-.399.218-.793.414-1.188.578a6.562 6.562 0 0 1-1.14.344.297.297 0 0 0-.14.093c-.024.032-.016.067.015.094.02.043.078.074.172.094.101.012.242.008.421-.016a6.572 6.572 0 0 0 1.688-.437c.59-.227 1.129-.457 1.61-.688zM7.86.671a4.384 4.384 0 0 0-.296-.03c-.118 0-.227.004-.329.015-.117.008-.222.02-.312.031a.509.509 0 0 0-.203.079.795.795 0 0 1-.39.156c-.126.02-.243.031-.345.031L3.797.984a.364.364 0 0 1-.235-.093C3.5.836 3.47.742 3.47.609V-.437c0-.114.004-.208.015-.282a.563.563 0 0 0-.015-.219c0-.05-.028-.093-.078-.125a.8.8 0 0 0-.25-.109c-.075 0-.168-.004-.282-.016a4.4 4.4 0 0 0-.328-.015c-.117-.008-.226-.016-.328-.016-.105 0-.191.008-.25.016-.23.023-.383.058-.453.11-.074.042-.102.085-.078.124.008.043.05.086.125.125.082.043.164.07.25.078.215.055.375.121.469.204.101.074.156.222.156.437v.75c0 .34.101.563.312.656.215.09.473.14.766.14l4.266-.03a.74.74 0 0 0 .39-.094c.102-.055.164-.121.188-.203.008-.074-.028-.153-.11-.235C8.16.773 8.035.711 7.86.672zM4.641-2.28v.781c0 .406.02.758.062 1.047.05.293.156.437.313.437.152 0 .296-.187.421-.562.122-.371.188-.86.188-1.453v-.266H7.25c.227 0 .438.008.625.016.184 0 .36.008.516.015.3.024.578.016.828-.015.258-.028.394-.133.406-.313.008-.113-.07-.203-.234-.265a1.776 1.776 0 0 0-.594-.125 4.386 4.386 0 0 0-.781.015 2.81 2.81 0 0 0-.704.172 2.363 2.363 0 0 1-.484.078c-.219.012-.46.024-.719.031h-.75c-.242-.007-.418-.015-.53-.015H1.953c-.18-.008-.34-.02-.485-.031-.149-.008-.29-.02-.422-.032a6.962 6.962 0 0 0-.422-.046c-.313-.008-.508.027-.578.109-.07.086.031.195.312.328.426.21.758.34 1 .39.239.055.438.07.594.048.145-.028.27-.07.375-.125.113-.06.25-.098.406-.11.008 0 .051-.004.125-.015.082-.008.204-.02.36-.032.152-.008.347-.02.578-.031.238-.02.52-.031.844-.031zm0 0"/></symbol><symbol overflow="visible" id="H"><path d="M4.672-6.047c.195.094.441.211.734.344.301.137.61.285.922.437.3.137.594.274.875.407.277.125.5.222.656.28.164.087.313.134.438.141.133 0 .238-.019.312-.062.059-.05.086-.125.079-.219 0-.09-.055-.191-.157-.297a1.83 1.83 0 0 0-.422-.343 4.96 4.96 0 0 0-.453-.282 1.53 1.53 0 0 0-.25-.03H7.25a.828.828 0 0 1-.172.015 1.001 1.001 0 0 1-.219-.063 4.284 4.284 0 0 1-.343-.11c-.157-.058-.325-.124-.5-.187-.18-.07-.356-.144-.532-.218a9.981 9.981 0 0 1-.453-.188c.028-.039.07-.094.125-.156.059-.059.117-.125.172-.188.05-.058.098-.125.14-.187.052-.059.098-.113.141-.156.04-.07.079-.141.11-.204a.32.32 0 0 0 .062-.171.257.257 0 0 0-.031-.157.98.98 0 0 0-.172-.187 4.898 4.898 0 0 0-.25-.14 7.765 7.765 0 0 1-.312-.157c-.118-.04-.223-.078-.313-.11a.909.909 0 0 1-.203-.109 1.292 1.292 0 0 0-.375-.047c-.086.012-.137.04-.156.079-.024.03-.016.082.015.14a.272.272 0 0 0 .157.125c.195.125.312.242.343.344a.38.38 0 0 1-.015.312 4.532 4.532 0 0 1-.657.938 8.481 8.481 0 0 1-.874.844 7.197 7.197 0 0 1-.97.687c-.323.2-.632.356-.921.469a.405.405 0 0 0-.188.125c-.03.043-.03.086 0 .125.02.031.079.055.172.062.102.012.25-.007.438-.062.215-.059.46-.149.734-.266.277-.113.567-.25.86-.406.289-.164.57-.348.843-.547a6.82 6.82 0 0 0 .766-.625zm-.297 3.531V.031c0 .258.004.504.016.735.02.238.046.445.078.625.039.175.086.316.14.421.059.114.133.165.22.157.183 0 .331-.239.437-.703C5.379.805 5.43.18 5.422-.61v-1.922H7.78c.196 0 .38.008.547.015.29.024.555.016.797-.015.246-.028.383-.13.406-.297 0-.113-.082-.203-.234-.266a1.922 1.922 0 0 0-.594-.14c-.23-.008-.48.004-.75.03a3.46 3.46 0 0 0-.703.157c-.086.043-.242.074-.469.094a13.37 13.37 0 0 1-.703.015H2.641a12.71 12.71 0 0 1-1.14-.047 9.952 9.952 0 0 1-.392-.03c-.125-.008-.27-.02-.421-.032-.293-.02-.481.012-.563.094-.086.086.023.195.328.328.402.2.723.324.953.375.239.055.43.07.578.047.133-.02.258-.055.375-.11.114-.058.254-.097.422-.109h.11c.07-.008.175-.02.312-.031.133-.008.3-.02.5-.031.195-.008.422-.02.672-.032zm0 0"/></symbol><symbol overflow="visible" id="ae"><path d="M5.61-1.797c-.512.074-.93.277-1.25.61-.313.324-.47.726-.47 1.203 0 .246.051.484.157.703.101.226.25.426.437.594.196.164.426.296.688.39.258.09.547.14.86.14.632 0 1.144-.179 1.53-.53.395-.344.594-.778.594-1.297 0-.414-.148-.797-.437-1.141-.293-.34-.696-.566-1.203-.672-.024 0-.032-.008-.032-.031 0-.02.004-.04.016-.063l.031-.093c.008-.04.016-.07.016-.094v-.078a.17.17 0 0 0-.031-.078c-.043-.028-.153-.055-.329-.079-.18-.027-.324-.05-.437-.062-.117-.008-.2.027-.25.11-.055.074-.047.12.016.14.058.055.113.102.156.14.039.032.039.07 0 .11l-.031.031v.016c-.012 0-.024.008-.032.016v.015zm.421 3.078a1.02 1.02 0 0 1-.812-.39 1.442 1.442 0 0 1-.328-.954c0-.363.109-.675.328-.937a1.02 1.02 0 0 1 1.265-.281c.133.074.258.18.375.312.09.125.164.274.22.438.058.156.093.316.093.469 0 .37-.113.69-.328.953-.219.257-.492.39-.813.39zm1.219-6.14v1.75c0 .406.023.73.078.968.059.23.164.344.313.344.144 0 .273-.156.39-.469.114-.308.172-.754.172-1.328v-3.672c0-.144.004-.27.016-.375.02-.113.035-.207.047-.28a.348.348 0 0 0-.047-.188c-.024-.051-.074-.098-.156-.141-.075-.02-.18-.047-.313-.078-.125-.027-.262-.063-.406-.094-.149-.02-.285-.035-.407-.047a1.36 1.36 0 0 1-.218-.047c-.344-.02-.535.024-.563.125-.031.094.055.184.266.266.133.063.25.121.344.172.101.043.191.098.265.156.07.063.125.137.157.219.039.086.062.191.062.312v1.954c-.156 0-.316.007-.469.015a6.332 6.332 0 0 1-.468.016h-.438a6.222 6.222 0 0 1-.36-.032c-.21-.019-.355-.019-.437 0-.074.024-.117.055-.125.094-.012.043.008.09.063.14a.842.842 0 0 0 .203.11c.258.157.472.262.64.313a.946.946 0 0 0 .391.062c.102 0 .18-.015.234-.047.051-.027.098-.054.141-.078.008 0 .066-.015.172-.047.101-.039.21-.07.328-.093h.125zm-3.422.484c.258.262.531.535.813.813.277.273.504.496.671.671.133.137.254.227.36.266.113.031.207.04.281.016.059-.02.102-.07.125-.157a.534.534 0 0 0-.031-.296c-.012-.02-.04-.07-.078-.157a2.018 2.018 0 0 0-.344-.563 2.743 2.743 0 0 0-.219-.265 1.603 1.603 0 0 0-.156-.062.462.462 0 0 0-.11-.047h-.093a1.083 1.083 0 0 1-.078-.032l-.11-.062a.418.418 0 0 1-.109-.047c-.031-.027-.082-.07-.14-.125a2.466 2.466 0 0 1-.188-.156 2.603 2.603 0 0 1-.25-.234c.176-.208.36-.446.547-.72.195-.269.383-.538.562-.812.07-.09.14-.191.203-.297.059-.101.11-.203.141-.296a.341.341 0 0 0-.016-.22c-.023-.07-.082-.132-.171-.187H5.25c-.105-.008-.223-.02-.344-.031-.117 0-.23.008-.343.016a.505.505 0 0 0-.22.062c-.155.086-.394.137-.702.156-.305.012-.649.016-1.032.016-.23 0-.441-.004-.625-.016-.18-.02-.3-.035-.359-.046-.305-.028-.48-.008-.531.062-.055.074.031.176.25.297.226.137.414.238.562.297.145.054.266.078.36.078a.75.75 0 0 0 .25-.031c.058-.028.129-.067.203-.11h.031a.407.407 0 0 1 .11-.015c.05-.008.1-.02.156-.032.05-.007.101-.02.156-.03.07 0 .148-.005.234-.016.082-.008.172-.02.266-.032.09-.008.191-.015.297-.015.113-.008.238-.024.375-.047-.25.5-.535.98-.844 1.437-.313.45-.637.856-.969 1.219a9.816 9.816 0 0 1-1 .984c-.324.274-.617.48-.875.625a.375.375 0 0 0-.125.125c-.011.043.004.075.047.094.027.031.098.043.203.031.114-.007.258-.062.438-.156.3-.121.687-.344 1.156-.656.477-.32.96-.754 1.453-1.297zm0 0"/></symbol><symbol overflow="visible" id="af"><path d="M5.453-2.703c.207.137.383.23.531.281.145.055.266.078.36.078.09 0 .164-.015.218-.047a.972.972 0 0 0 .157-.093c.05-.02.133-.047.25-.079.113-.039.203-.066.265-.078v.766c0 .43.024.79.079 1.078.05.281.156.418.312.406.152 0 .285-.18.39-.546.114-.372.172-.86.172-1.454v-4.875c0-.132.004-.254.016-.359a1.75 1.75 0 0 0 .031-.281.367.367 0 0 0-.03-.203.335.335 0 0 0-.173-.125 1.805 1.805 0 0 0-.297-.094c-.136-.027-.273-.055-.406-.078a4.978 4.978 0 0 0-.406-.063 1.238 1.238 0 0 1-.234-.031c-.336-.02-.52.02-.547.11-.024.093.07.19.28.28l.329.172c.102.043.191.098.266.157.07.054.125.12.156.203.039.086.062.191.062.312v2.157c-.28.023-.566.039-.843.046-.282 0-.528-.015-.735-.046a1.411 1.411 0 0 0-.375.015c-.074.024-.117.051-.125.078-.011.043.004.09.047.141.05.055.11.098.172.125.246.148.453.246.61.297.152.055.28.078.374.078.09 0 .164-.016.22-.047l.14-.078c.058-.02.144-.047.25-.078.101-.027.191-.055.265-.078v1.562c-.28.024-.566.04-.843.047-.282 0-.528-.015-.735-.047H5.61c.02-.07.036-.14.047-.203.008-.058.016-.129.016-.203 0-.363-.149-.695-.438-1-.28-.309-.668-.508-1.156-.594a.134.134 0 0 1 0-.125c0-.027.004-.054.016-.078l.031-.094a.086.086 0 0 0 0-.062.698.698 0 0 0-.047-.094c-.043-.039-.148-.07-.312-.094-.168-.02-.305-.035-.407-.046-.105 0-.183.035-.234.093-.043.063-.04.121.016.172.02.031.039.059.062.078.027.012.05.028.063.047.02.024.03.043.03.063 0 .023-.01.043-.03.062 0 .012-.008.016-.016.016v.015c-.012 0-.016.008-.016.016-.511.074-.93.258-1.25.547A1.42 1.42 0 0 0 1.516-3.5c0 .25.05.48.156.688.101.21.242.386.422.53.183.157.406.286.656.376.258.086.547.125.86.125a2.38 2.38 0 0 0 1.109-.25c.332-.164.578-.39.734-.672zM3.61-2.36c-.324 0-.59-.114-.796-.344-.2-.238-.297-.52-.297-.844 0-.308.097-.586.296-.828a1 1 0 0 1 .797-.375c.309 0 .567.133.766.39.195.262.297.536.297.813 0 .336-.102.617-.297.844a.968.968 0 0 1-.766.344zM8.58.67a3.225 3.225 0 0 0-.282-.03c-.117 0-.23.004-.344.015a7.69 7.69 0 0 0-.312.031.509.509 0 0 0-.204.079.718.718 0 0 1-.375.156c-.136.02-.261.031-.375.031l-1.75.031a.364.364 0 0 1-.234-.093C4.641.836 4.61.742 4.61.609V-.437c0-.114.004-.208.016-.282a.563.563 0 0 0-.016-.219c0-.05-.027-.093-.078-.125a.8.8 0 0 0-.25-.109c-.074 0-.168-.004-.281-.016a4.4 4.4 0 0 0-.328-.015c-.117-.008-.227-.016-.328-.016-.106 0-.192.008-.25.016-.23.023-.383.058-.453.11-.075.042-.102.085-.079.124.008.043.051.086.126.125.07.043.148.07.234.078.215.055.379.121.484.204.102.074.156.222.156.437v.75c0 .34.102.563.313.656.215.09.469.14.75.14l3.86-.03c.163 0 .3-.036.406-.094.101-.055.16-.121.171-.203.02-.074-.011-.153-.093-.235-.074-.074-.207-.136-.39-.187zM6.108-6.39a3.111 3.111 0 0 0-.265-.062 4.675 4.675 0 0 0-.39-.047A2.525 2.525 0 0 0 5-6.484a1.17 1.17 0 0 0-.39.093c-.118.055-.274.09-.47.11a7.04 7.04 0 0 1-.609.047c-.21.011-.418.015-.625.015-.199 0-.363-.004-.484-.015-.305 0-.559-.004-.766-.016-.199-.02-.386-.04-.562-.063a1.46 1.46 0 0 0-.344-.015.687.687 0 0 0-.234.031c-.043.031-.047.082-.016.14.04.063.16.15.36.25.288.169.519.274.687.313.176.043.328.055.453.032.121-.028.238-.067.344-.11.101-.05.226-.086.375-.11.176-.019.414-.034.719-.046a37.9 37.9 0 0 1 .968-.016c.332 0 .645.008.938.016h.672c.214 0 .347-.063.39-.188.051-.12-.05-.25-.297-.375zm-1.656-.703a.875.875 0 0 0 .406-.11c.102-.058.157-.128.157-.202 0-.059-.059-.117-.172-.172-.117-.059-.293-.102-.532-.125a8.068 8.068 0 0 1-.86-.047 7.023 7.023 0 0 0-.358-.047c-.106-.02-.223-.039-.344-.062-.262-.051-.434-.04-.516.03-.074.063-.039.153.11.266.195.149.367.27.515.36.153.086.301.125.438.125a4 4 0 0 0 .531.031c.176-.008.383-.023.625-.047zm0 0"/></symbol><symbol overflow="visible" id="av"><path d="M7.172-7.266v3.344c0 .406.031.738.094.985.058.242.16.359.296.359.133 0 .258-.16.375-.485.122-.32.188-.769.188-1.343v-2.86c0-.144.004-.27.016-.375.02-.113.035-.207.046-.28a.348.348 0 0 0-.046-.188.432.432 0 0 0-.172-.141 4.645 4.645 0 0 0-.297-.078c-.137-.027-.277-.063-.422-.094a8.745 8.745 0 0 0-.39-.047 2.338 2.338 0 0 1-.235-.047c-.344-.02-.527.024-.547.125-.023.094.067.184.266.266.133.063.25.121.343.172.102.043.192.098.266.156.059.063.113.137.156.219.04.086.063.191.063.312zm-1.719.125a1.66 1.66 0 0 1-.203-.015 3.711 3.711 0 0 0-.313-.016c-.117 0-.226.008-.328.016a.503.503 0 0 0-.234.047c-.148.074-.398.12-.75.14-.355.012-.727.016-1.11.016h-.343c-.106-.008-.207-.016-.297-.016A3.106 3.106 0 0 1 1.625-7c-.063-.008-.117-.016-.156-.016-.305-.02-.477.004-.516.063-.031.062.055.168.266.312.238.157.43.262.578.313.144.043.266.062.36.062.09 0 .171-.015.234-.046.07-.04.14-.079.203-.11h.047c.027-.008.066-.02.109-.031.05-.008.102-.016.156-.016.051-.008.102-.02.156-.031.07 0 .16-.004.266-.016.102-.007.211-.02.328-.03.121-.009.25-.02.375-.032.121-.02.25-.035.375-.047a9.593 9.593 0 0 1-.86 1.563c-.323.48-.66.917-1 1.312a8.358 8.358 0 0 1-1.03 1.016 6.282 6.282 0 0 1-.86.609c-.117.063-.117.133 0 .203.114.063.328.024.64-.125.278-.121.599-.316.954-.578.363-.258.727-.57 1.094-.938a11.215 11.215 0 0 0 1.969-2.61c.039-.089.093-.186.156-.28.07-.102.125-.203.156-.297.04-.082.043-.156.016-.219-.024-.07-.086-.129-.188-.172zm1.5 5.454L6.937.828H4.313l-.046-2.515zm1.203 2.734C8.156.984 8.102.93 8 .89a1.424 1.424 0 0 0-.234-.063L8-1.469a.8.8 0 0 1 .063-.234c.039-.07.078-.14.109-.203a.216.216 0 0 0 0-.157c-.012-.05-.07-.101-.172-.156a1.208 1.208 0 0 0-.594-.078c-.23.024-.414.055-.547.094-.054.031-.21.055-.468.062-.25.012-.524.016-.813.016H4.375a1.491 1.491 0 0 1-.453-.078c-.106-.008-.227-.02-.36-.031a2.22 2.22 0 0 0-.437-.016c-.281.012-.465.074-.547.188-.074.105-.058.167.047.187.07.031.145.059.219.078.07.024.133.05.187.078.051.024.094.059.125.11.028.054.051.117.063.187l.156 2.625c0 .195.04.348.125.453.09.114.191.172.297.172.082 0 .176-.055.281-.156a.675.675 0 0 0 .203-.36H5.641c.332 0 .675-.007 1.03-.015h1.016a.792.792 0 0 0 .329-.063c.09-.043.14-.105.14-.187zm0 0"/></symbol><symbol overflow="visible" id="aw"><path d="M4.328-2.969V-.28H1.984c-.18-.008-.34-.02-.484-.031a9.952 9.952 0 0 1-.39-.032A4.791 4.791 0 0 1 .686-.39c-.292-.007-.48.028-.562.11-.086.086.023.195.328.328.402.195.723.316.953.36.239.05.43.066.578.046.133-.023.258-.058.375-.11.114-.054.254-.09.422-.109L2.937.22c.102-.012.258-.024.47-.032l.75-.046c.3-.012.655-.016 1.062-.016H7.75c.207 0 .398.004.578.016.29.02.555.011.797-.016.246-.031.383-.129.406-.297 0-.113-.082-.203-.234-.266a2.713 2.713 0 0 0-.594-.14c-.23-.008-.48.004-.75.031a2.81 2.81 0 0 0-.703.172.847.847 0 0 1-.313.063c-.136.011-.292.023-.468.03H5.375v-2.702h2.094c.164 0 .3-.032.406-.094.102-.059.16-.14.172-.235.008-.07-.027-.148-.11-.234-.074-.09-.207-.164-.39-.219a1.332 1.332 0 0 0-.297-.03h-.36a3.681 3.681 0 0 0-.327.046 1.14 1.14 0 0 0-.22.063c-.124.093-.269.16-.421.187a2.18 2.18 0 0 1-.313.031l-2.234.016a.369.369 0 0 1-.234-.078c-.075-.051-.11-.149-.11-.297V-6.61h4.36a.925.925 0 0 0 .421-.079A.371.371 0 0 0 8-6.905c.008-.082-.027-.164-.11-.25-.085-.082-.222-.149-.406-.203a1.332 1.332 0 0 0-.296-.032 2.758 2.758 0 0 0-.36 0 3.681 3.681 0 0 0-.328.047 1.14 1.14 0 0 0-.219.063.874.874 0 0 1-.422.14 4.31 4.31 0 0 1-.312.016l-2.484.031a34.53 34.53 0 0 1-.797-.125 3.308 3.308 0 0 0-.641-.047 1.448 1.448 0 0 0-.406.094c-.074.043-.11.086-.11.125-.011.055.008.102.063.14.05.032.117.048.203.048.227.074.39.148.484.218.09.063.141.196.141.391v2.469c0 .18.031.32.094.422a.772.772 0 0 0 .25.265c.101.055.219.09.344.11.132.023.269.03.406.03zm0 0"/></symbol><symbol overflow="visible" id="ax"><path d="M7.844.656a2.234 2.234 0 0 0-.297-.015h-.328a1.704 1.704 0 0 0-.313.046.509.509 0 0 0-.203.079.718.718 0 0 1-.375.156c-.137.008-.258.015-.36.015L3.75.97A.388.388 0 0 1 3.5.875C3.437.82 3.406.73 3.406.609V-.906c0-.114.004-.207.016-.281.008-.083.015-.157.015-.22a.283.283 0 0 0-.109-.14.515.515 0 0 0-.234-.094c-.074 0-.168-.004-.281-.015-.106-.008-.215-.02-.329-.032h-.593c-.22.032-.368.075-.438.125-.074.043-.105.086-.094.125.02.043.067.086.141.125.082.043.16.07.234.079.215.043.375.105.47.187.1.086.155.23.155.438V.609c0 .34.11.563.329.657.226.101.476.156.75.156l4.312-.047a.74.74 0 0 0 .39-.094c.102-.054.165-.117.188-.187.02-.074-.012-.153-.094-.235-.074-.086-.207-.152-.39-.203zM6.906-3.78c.059-.082.114-.176.157-.281.05-.102.097-.208.14-.313.027-.102.063-.207.094-.313l.125-.359.14-.547a8.13 8.13 0 0 0 .125-.593c.051-.196.086-.364.11-.5.02-.133.035-.208.047-.22.02-.09.05-.179.093-.265A.554.554 0 0 0 8-7.406c.02-.059.004-.117-.047-.172-.043-.05-.133-.098-.266-.14a1.818 1.818 0 0 0-.546 0 2.205 2.205 0 0 0-.532.109c-.093.03-.34.058-.734.078-.398.011-.832.023-1.297.031-.469.012-.93.012-1.375 0a8.184 8.184 0 0 1-.937-.078c-.262-.008-.442-.004-.532.016-.093.011-.148.039-.156.078-.012.043.016.086.078.125.059.043.125.082.188.109.34.188.613.309.812.36.196.042.36.058.485.046.132-.008.254-.035.359-.078.113-.05.25-.082.406-.094l.375-.015c.258-.008.555-.02.89-.032.321-.007.641-.019.954-.03.309-.009.531-.02.656-.032-.011.125-.027.277-.047.453-.011.168-.027.352-.046.547-.024.18-.051.363-.079.547l-.062.484c-.031.157-.067.305-.094.438l-.062.375a1.942 1.942 0 0 0-.078.531 6.06 6.06 0 0 1-.454.016h-.781c-.105-.008-.191-.016-.25-.016H1.984c-.18 0-.34-.008-.484-.031a9.952 9.952 0 0 1-.39-.031c-.126-.008-.27-.02-.423-.032-.292-.008-.48.024-.562.094-.074.074.035.18.328.313.402.199.723.324.953.374.239.055.43.07.578.047a1.02 1.02 0 0 0 .375-.093c.114-.059.254-.098.422-.11h.063a.979.979 0 0 1 .187-.015c.082-.008.18-.016.297-.016l.438-.031v1.64c0 .407.02.758.062 1.047.04.293.14.434.297.422.164 0 .3-.18.406-.547.114-.37.172-.86.172-1.453v-1.14c.082-.008.164-.016.25-.016a2.78 2.78 0 0 1 .266-.016h.625v1.813c0 .406.02.758.062 1.047.04.293.14.433.297.421.164 0 .305-.18.422-.546.121-.371.188-.86.188-1.454v-1.28c.308 0 .593.007.843.015.246 0 .473.008.672.015.29.032.555.032.797 0 .246-.039.383-.144.406-.312 0-.113-.082-.203-.234-.266a1.655 1.655 0 0 0-.594-.125c-.23-.02-.48-.011-.75.016a2.81 2.81 0 0 0-.703.172.47.47 0 0 1-.14.031 1.128 1.128 0 0 1-.204.016zm0 0"/></symbol><symbol overflow="visible" id="bc"><path d="M5.422-2.547h1.734c.227 0 .438.008.625.016h.547c.29.023.555.015.797-.016.246-.027.383-.129.406-.297 0-.113-.082-.203-.234-.265a2.382 2.382 0 0 0-.594-.125c-.23-.02-.48-.008-.75.03a3.46 3.46 0 0 0-.703.157c-.086.043-.242.074-.469.094a13.37 13.37 0 0 1-.703.015h-.734c-.23-.007-.403-.015-.516-.015H1.984c-.18-.008-.34-.02-.484-.031a9.952 9.952 0 0 1-.39-.032c-.126-.007-.27-.02-.423-.03-.292-.02-.48.01-.562.093-.086.086.023.195.328.328.402.2.723.324.953.375.239.043.43.055.578.031a1.02 1.02 0 0 0 .375-.094c.114-.058.254-.101.422-.124h.11c.07-.008.175-.02.312-.032.133-.008.3-.02.5-.031l.672-.031V.016c0 .257.004.504.016.734.02.238.05.445.093.625.04.176.086.316.141.422.059.113.133.164.219.156.195 0 .343-.238.437-.703.102-.46.149-1.086.14-1.875zm-.703-2.812c.258.086.554.18.89.28.332.095.657.192.97.282.308.094.585.18.827.25.246.074.41.121.485.14.37.118.617.122.734.016.113-.113.121-.234.031-.359-.074-.09-.226-.195-.453-.313a3.694 3.694 0 0 0-.594-.25 1.53 1.53 0 0 0-.25-.03h-.171c-.043.011-.09.023-.141.03a.879.879 0 0 1-.172-.015c-.063 0-.152-.008-.266-.031-.117-.028-.246-.063-.39-.094a45.58 45.58 0 0 1-.485-.125c-.168-.04-.332-.082-.484-.125.277-.176.563-.367.844-.578.277-.215.554-.453.828-.703.308-.239.488-.438.531-.594.04-.164-.082-.285-.36-.36a2.05 2.05 0 0 1-.187-.015 4.632 4.632 0 0 0-.343-.016c-.118 0-.231.008-.344.016-.117 0-.196.02-.235.047a2.32 2.32 0 0 1-.468.093c-.23.024-.493.04-.782.047-.28.012-.57.024-.859.032h-.703c-.242 0-.473-.004-.688-.016a5.3 5.3 0 0 1-.406-.047c-.305-.027-.476.004-.515.094-.032.086.046.18.234.281.238.156.441.27.61.328.163.055.3.078.405.078a.687.687 0 0 0 .266-.046l.203-.079h.047a.567.567 0 0 0 .11-.046.67.67 0 0 0 .14-.016c.059-.02.125-.035.188-.047.058 0 .175-.004.343-.016.164-.02.352-.035.563-.046.207-.008.422-.02.64-.032.215-.02.407-.031.563-.031-.355.344-.742.684-1.156 1.016-.418.324-.848.62-1.282.89-.43.262-.855.496-1.28.703-.419.2-.821.348-1.204.438-.062.023-.105.058-.125.11-.023.042-.012.081.031.109.028.043.094.074.188.093.09.012.234-.004.422-.046a9.028 9.028 0 0 0 1.64-.5c.54-.227 1.079-.493 1.61-.797zm0 0"/></symbol><symbol overflow="visible" id="bd"><path d="M4.813-6.281a2.34 2.34 0 0 0-.47-.297 1.93 1.93 0 0 0-.577-.188c-.024-.02-.032-.039-.032-.062v-.078a.73.73 0 0 1 .032-.11.73.73 0 0 1 .03-.109v-.094c0-.027-.019-.054-.046-.078a.297.297 0 0 0-.125-.047 1.547 1.547 0 0 0-.203-.047 1.123 1.123 0 0 0-.25-.03 1.507 1.507 0 0 1-.203-.032c-.125 0-.215.039-.266.11-.055.073-.047.128.016.155a.528.528 0 0 0 .094.11c.027.023.062.043.093.062a.427.427 0 0 1 .016.094c0 .024-.012.043-.031.063a.2.2 0 0 0-.047.062.14.14 0 0 1-.047.031c-.531.086-.973.305-1.313.657-.336.343-.5.777-.5 1.296 0 .282.055.551.172.797.114.243.27.45.469.625.195.18.438.32.719.422.277.106.586.156.922.156.382 0 .722-.062 1.015-.187.301-.121.547-.297.735-.516.214.125.398.215.546.266.145.043.266.063.36.063.101.011.18 0 .234-.032a.972.972 0 0 0 .157-.094c.007 0 .062-.015.156-.046.101-.04.218-.07.343-.094h.032a.362.362 0 0 1 .093-.016h.11c.05 0 .11-.004.172-.015v1.609c0 .43.023.79.078 1.078.05.281.148.418.297.406.176 0 .312-.18.406-.546.102-.372.156-.86.156-1.454v-4.875c0-.132.004-.254.016-.359.02-.113.035-.207.047-.281a.446.446 0 0 0-.047-.203c-.024-.051-.074-.094-.156-.125a1.805 1.805 0 0 0-.297-.094 11.656 11.656 0 0 0-.422-.078 4.023 4.023 0 0 0-.39-.063 1.01 1.01 0 0 1-.235-.031c-.344-.02-.535.02-.563.11-.023.093.07.19.282.28.12.063.238.122.343.172a.856.856 0 0 1 .25.157.62.62 0 0 1 .172.203c.04.086.063.191.063.312v.954c-.344.023-.707.039-1.078.046a6.58 6.58 0 0 1-.891-.046 1.02 1.02 0 0 0-.219 0 .701.701 0 0 0-.218.03zm.421.468c.184.106.336.176.454.204a.904.904 0 0 0 .328.03.475.475 0 0 0 .171-.046.549.549 0 0 0 .125-.094c.008 0 .063-.015.157-.047.101-.039.218-.07.343-.093h.235c.05 0 .11-.004.172-.016v1.953a16.338 16.338 0 0 1-1.016.047 7.198 7.198 0 0 1-.5.016 2.715 2.715 0 0 1-.406-.047 1.797 1.797 0 0 0 .234-.906c0-.176-.027-.348-.078-.516a2.677 2.677 0 0 0-.219-.484zM3.266-3.421c-.375 0-.692-.14-.938-.422-.242-.277-.36-.633-.36-1.062 0-.414.118-.766.36-1.047a1.21 1.21 0 0 1 .938-.422c.195 0 .375.043.53.125.153.086.29.195.407.328.102.137.188.3.25.484.059.18.094.356.094.532 0 .43-.121.785-.36 1.062-.242.281-.55.422-.921.422zM8.562.672A4.384 4.384 0 0 0 8.267.64c-.106 0-.215.004-.329.015-.117.008-.222.02-.312.031a.509.509 0 0 0-.203.079.718.718 0 0 1-.375.156 2.63 2.63 0 0 1-.36.031L4.875.984a.364.364 0 0 1-.234-.093C4.578.836 4.547.742 4.547.609V-.766c0-.101.004-.195.016-.28.007-.083.015-.15.015-.204a.209.209 0 0 0-.094-.14.669.669 0 0 0-.25-.094 2.627 2.627 0 0 0-.28-.016 7.69 7.69 0 0 1-.313-.031h-.61c-.219.031-.367.074-.437.125-.074.043-.102.086-.078.125.007.054.05.101.125.14.082.032.164.059.25.079.214.042.375.105.468.187.102.074.157.215.157.422V.625c0 .34.109.563.328.656.215.09.46.14.734.14l3.89-.03c.165 0 .302-.036.407-.094.102-.055.16-.121.172-.203.008-.074-.027-.153-.11-.235-.074-.074-.199-.136-.374-.187zm0 0"/></symbol><symbol overflow="visible" id="I"><path d="M4.422-2.39c0 .242-.09.449-.266.624a.812.812 0 0 1-.593.25.8.8 0 0 1-.594-.25.87.87 0 0 1-.25-.625c0-.238.082-.441.25-.609a.8.8 0 0 1 1.188 0 .814.814 0 0 1 .265.61zm0 0"/></symbol><symbol overflow="visible" id="J"><path d="M6.047-2.86v-2.89h-.578v.844H1.656v-.844h-.578v2.89zm.922 1.235v-.484H.156v.484h3.219v1.516h.578v-1.516zM6.28.953V.47h-4.61V-.937h-.593v1.89zM5.47-3.344H1.656v-1.078H5.47zm0 0"/></symbol><symbol overflow="visible" id="K"><path d="M4.672-.781a2.761 2.761 0 0 1-.578-.375 4.38 4.38 0 0 1-.61-.688A2.9 2.9 0 0 1 3-2.828a3.824 3.824 0 0 1-.172-1.125v-.656H4.5v-.5H.562v.5h1.641v.656c0 .367-.07.746-.203 1.14a4.735 4.735 0 0 1-.5 1.047 4.28 4.28 0 0 1-.672.75c-.25.211-.48.38-.687.5l.453.407c.183-.114.39-.27.61-.47a7.38 7.38 0 0 0 .671-.75c.176-.245.316-.487.422-.718.113-.238.187-.414.219-.531.027.125.097.308.203.547.113.242.27.488.469.734.207.274.41.488.609.64.195.15.36.262.484.345zm2.547-1.75v-.516H6.094v-2.86h-.578v7.032h.578v-3.656zm0 0"/></symbol><symbol overflow="visible" id="L"><path d="M6.188-4.281c0-.207-.067-.407-.188-.594a1.76 1.76 0 0 0-.516-.484 3.025 3.025 0 0 0-.828-.313 5.183 5.183 0 0 0-1.093-.11c-.407 0-.774.04-1.094.11a2.93 2.93 0 0 0-.828.313c-.23.136-.403.3-.516.484a1.101 1.101 0 0 0-.172.594c0 .218.055.426.172.61.113.179.285.335.516.468.226.137.504.242.828.312.32.075.687.11 1.094.11.402 0 .769-.035 1.093-.11.32-.07.598-.175.828-.312.215-.133.391-.29.516-.469.121-.183.188-.39.188-.61zm.78 2.953v-.5H.157v.5H2v2.36h.594v-2.36h2v2.453h.562v-2.453zM3.564-5.297c.277 0 .539.027.78.078.247.043.462.114.641.203.176.086.317.196.422.329a.623.623 0 0 1 0 .828 1.353 1.353 0 0 1-.422.328 2.81 2.81 0 0 1-.64.203 4.491 4.491 0 0 1-.782.062c-.28 0-.55-.02-.796-.062a2.569 2.569 0 0 1-.641-.219 1.146 1.146 0 0 1-.422-.312.678.678 0 0 1-.14-.422c0-.153.046-.297.14-.422.102-.121.242-.227.422-.313.184-.09.398-.16.64-.203.239-.05.505-.078.797-.078zm0 0"/></symbol><symbol overflow="visible" id="M"><path d="M4.734-2.344a3.942 3.942 0 0 1-.64-.344 2.68 2.68 0 0 1-.657-.593 2.213 2.213 0 0 1-.39-.64 2.41 2.41 0 0 1-.14-.829v-.188h1.53v-.484H.75v.484h1.547v.188c0 .313-.059.617-.172.906a2.589 2.589 0 0 1-.469.75 3.285 3.285 0 0 1-.703.594c-.242.156-.46.29-.656.39l.437.438c.114-.058.282-.16.5-.297.215-.144.43-.316.641-.515.164-.176.313-.36.438-.547a2.15 2.15 0 0 0 .28-.5 2.236 2.236 0 0 0 .673.89c.207.2.41.364.609.485.195.125.367.222.516.281zM6.5-.813v-5.093h-.578v1.734H4.344v.516h1.578v2.844zM6.672.954V.47H2.266v-1.703h-.579V.953zm0 0"/></symbol><symbol overflow="visible" id="N"><path d="M3.172-4.89v-.5H1.234v.5zM5.156.796v-6.531h-.562v2.875H3.469v.515h1.125v3.14zm1.422.328v-7.031h-.562v7.031zM4.016-.719A3.77 3.77 0 0 1 3.609-1c-.168-.121-.351-.32-.546-.594a2.205 2.205 0 0 1-.391-.75 2.827 2.827 0 0 1-.14-.875v-.36h1.327v-.5H.547v.5h1.36v.36c0 .281-.055.582-.157.89a2.528 2.528 0 0 1-.422.798c-.094.136-.2.261-.312.375-.118.105-.23.199-.344.281-.106.086-.211.16-.313.219-.093.062-.168.113-.218.14l.453.407a4.062 4.062 0 0 0 .984-.844c.176-.195.317-.399.422-.61a3.06 3.06 0 0 0 .219-.484c.02.106.082.262.187.469.114.2.254.394.422.578.184.219.352.387.5.5.152.117.27.195.344.234zm0 0"/></symbol><symbol overflow="visible" id="O"><path d="M4.719-3.734a1.5 1.5 0 0 0-.157-.657 1.752 1.752 0 0 0-.39-.546 2.048 2.048 0 0 0-.594-.375 2.05 2.05 0 0 0-.75-.141c-.281 0-.543.05-.781.14-.23.094-.43.223-.594.375-.168.157-.3.34-.39.547a1.72 1.72 0 0 0-.125.657c0 .242.039.464.125.671.09.211.222.399.39.563.164.148.363.27.594.36.238.093.5.14.781.14.27 0 .52-.047.75-.14.227-.09.426-.212.594-.36.164-.164.297-.352.39-.563.102-.207.157-.43.157-.671zm1.765 4.859v-7.031h-.593v7.031zM5.625-.547v-.5a8.448 8.448 0 0 1-.563.063c-.218.023-.46.039-.718.046a48.924 48.924 0 0 1-1.578.047L.5-.875v.5l2.234-.016c.227 0 .485-.004.766-.015.277-.008.563-.024.844-.047.27-.008.52-.02.75-.031.226-.02.406-.04.531-.063zM4.109-3.734c0 .343-.117.636-.343.875-.22.23-.536.343-.938.343-.43 0-.754-.113-.969-.343a1.249 1.249 0 0 1-.328-.875c0-.32.11-.602.328-.844.215-.238.54-.36.97-.36.401 0 .718.122.937.36.226.242.343.523.343.844zm0 0"/></symbol><symbol overflow="visible" id="P"><path d="M3.688-5.39v-.47h-2.25v.47zm1.046 1.046v-.468H.438v.468zm2.407.938v-.5H6.109v-2h-.562v4.484h.562v-1.984zM2.578-1.641c.559 0 1.004-.109 1.328-.328.32-.215.485-.488.485-.812 0-.332-.164-.61-.485-.828-.312-.215-.754-.329-1.312-.329-.563 0-1.008.114-1.328.329-.325.218-.485.496-.485.828 0 .324.16.597.485.812.32.219.757.328 1.312.328zM6.11 1.125V-.969H1.25V-.5h4.297v1.625zM3.781-2.797c0 .211-.105.383-.312.516-.2.125-.492.187-.875.187-.399 0-.7-.062-.906-.187-.2-.133-.297-.305-.297-.516 0-.183.097-.348.296-.484.208-.133.508-.203.907-.203.383 0 .676.07.875.203.207.125.312.289.312.484zm0 0"/></symbol><symbol overflow="visible" id="R"><path d="M3.906-2.094v-3.484h-.578v1.25h-2.14v-1.25H.625v3.484zM7-3.672v-.484H5.969v-1.75h-.563v4.203h.563v-1.969zM5.969 1.125v-2.39H1.172v.5H5.39v1.89zm-2.64-3.719H1.186v-1.234h2.141zm0 0"/></symbol><symbol overflow="visible" id="S"><path d="M4.828-.719a4.78 4.78 0 0 1-.719-.5 4.078 4.078 0 0 1-.703-.797 3.08 3.08 0 0 1-.5-1.093 4.852 4.852 0 0 1-.14-1.157V-5.5h-.61v1.234c0 .387-.054.786-.156 1.188A3.676 3.676 0 0 1 1.562-2c-.21.305-.449.586-.718.844-.274.261-.54.472-.797.625l.469.39c.183-.113.39-.27.609-.468.215-.196.414-.41.594-.641a4.83 4.83 0 0 0 .5-.813c.12-.246.207-.445.25-.593.039.156.125.363.25.61.12.241.289.487.5.733.195.262.406.477.625.641.226.156.422.29.578.39zm1.234-5.187h-.578v7.031h.579v-3.656h1.109v-.531h-1.11zm0 0"/></symbol><symbol overflow="visible" id="T"><path d="M6.422 1.125v-7.031h-.578v2.453H4.14v.5h1.703v4.078zM5-.719a4.78 4.78 0 0 1-.719-.5 3.663 3.663 0 0 1-.687-.797 2.987 2.987 0 0 1-.516-1.093 4.852 4.852 0 0 1-.14-1.157V-5.5h-.594v1.234c0 .387-.055.786-.156 1.188A4.05 4.05 0 0 1 1.734-2c-.199.305-.441.586-.718.844a4.874 4.874 0 0 1-.782.625l.47.39c.175-.113.374-.27.593-.468.215-.196.414-.41.594-.641.214-.29.39-.563.515-.813.121-.246.203-.445.235-.593.05.156.132.363.25.61.12.241.289.487.5.733.207.262.421.477.64.641.215.156.407.29.563.39zm0 0"/></symbol><symbol overflow="visible" id="U"><path d="M3.563-5.953c-.836 0-1.477.129-1.922.375-.438.242-.657.539-.657.89 0 .356.22.653.657.891.445.23 1.086.344 1.921.344.833 0 1.47-.113 1.907-.344.445-.238.672-.535.672-.89a.764.764 0 0 0-.172-.47 1.71 1.71 0 0 0-.5-.421 4.218 4.218 0 0 0-.813-.266c-.312-.07-.68-.11-1.093-.11zm3.406 3.547v-.469H.156v.469h3.125v.719H1.078v.468h4.344v.657H1.078V1.03h5.14V.563H1.704V-.11h4.344v-1.579H3.89v-.718zM3.562-5.5c.278 0 .54.023.782.063.246.042.457.101.625.171.176.063.312.149.406.25a.444.444 0 0 1 .156.329.464.464 0 0 1-.156.328c-.094.093-.23.175-.406.234a2.56 2.56 0 0 1-.625.172 4.491 4.491 0 0 1-.782.062c-.292 0-.558-.02-.796-.062a2.718 2.718 0 0 1-.625-.172.99.99 0 0 1-.391-.234.476.476 0 0 1-.14-.329c0-.238.175-.43.53-.578.364-.152.837-.234 1.422-.234zm0 0"/></symbol><symbol overflow="visible" id="V"><path d="M3.797-.688v-.5c-.149.032-.348.07-.594.11a5.495 5.495 0 0 1-.703.047l-1.125.015V-4.5h1.844V-5H.797v4.484c.008 0 .062.008.156.016.09 0 .211-.004.36-.016h.5c.175 0 .351-.004.53-.015.352-.008.65-.031.891-.063.246-.027.438-.062.563-.094zM6.39 1.125v-7.031h-.563v2.781H4.766V-5.75h-.563V.797h.563V-2.61h1.062v3.734zm0 0"/></symbol><symbol overflow="visible" id="W"><path d="M6.172-5.047H.984v.484h4.563c-.012.274-.043.59-.094.954l-.125 1.046-.14.891c-.043.242-.07.371-.079.39h.579c0-.007.007-.066.03-.171.02-.102.048-.238.079-.406.02-.164.047-.352.078-.563.027-.207.063-.426.094-.656.05-.34.093-.664.125-.969.027-.3.054-.633.078-1zM6.969.125v-.5H4.25v-2.5h-.578v2.5H2.469v-2.5H1.89v2.5H.156v.5zm0 0"/></symbol><symbol overflow="visible" id="X"><path d="M6.313-1.547v-4.36h-.579v1.235H4v-.906h-.578v1.25h-2.14v-1.25H.702v3.5H4v-.75h1.734v1.281zm.062 1.469c0-.383-.223-.707-.656-.969-.438-.258-1.067-.39-1.875-.39-.836 0-1.473.132-1.906.39-.438.262-.657.586-.657.969s.219.703.657.953c.433.246 1.07.375 1.906.375.808 0 1.437-.129 1.875-.375.433-.25.656-.57.656-.953zm-.64-3.235H4v-.89h1.734zm-2.313.735h-2.14v-1.266h2.14zM1.906-.094c0-.27.172-.476.516-.625.351-.144.828-.219 1.422-.219.558 0 1.023.083 1.39.235.364.148.547.355.547.625 0 .258-.183.469-.547.625-.355.152-.82.234-1.39.234-.586 0-1.055-.086-1.406-.25-.356-.156-.532-.367-.532-.625zm0 0"/></symbol><symbol overflow="visible" id="Y"><path d="M2.828-5.953c-.281 0-.539.039-.765.11-.22.073-.41.167-.563.28-.156.125-.277.27-.36.422a.917.917 0 0 0-.124.47 1 1 0 0 0 .125.5c.082.155.203.292.359.405.152.118.344.211.563.282.214.062.472.093.765.093.27 0 .516-.03.735-.093.226-.07.421-.164.578-.282.152-.113.273-.25.359-.406.082-.152.125-.32.125-.5A.957.957 0 0 0 4.5-5.14a1.51 1.51 0 0 0-.36-.421 2.098 2.098 0 0 0-.577-.282 2.396 2.396 0 0 0-.735-.11zm3.61 5.531v-5.484h-.594v4.078H4.016v.484h1.828v.922zm-.86-2.172v-.484c-.086.012-.226.035-.422.062-.187.024-.402.043-.64.063a36.37 36.37 0 0 1-.75.062c-.25.012-.493.016-.72.016l-2.64.016v.484h1.766v1.328h.578V-2.39c.277 0 .563-.004.844-.015.277-.008.547-.024.797-.047.246-.02.472-.04.671-.063.208-.027.38-.054.516-.078zM6.61.953V.47H2.203V-.766h-.578v1.72zM2.83-5.484c.413 0 .722.09.921.265.207.18.313.364.313.547 0 .188-.106.371-.313.547-.2.168-.508.25-.922.25-.418 0-.73-.082-.937-.25-.2-.176-.297-.36-.297-.547 0-.183.097-.367.297-.547.195-.176.507-.265.937-.265zm0 0"/></symbol><symbol overflow="visible" id="Z"><path d="M6.672-.125c0-.402-.227-.738-.672-1-.438-.27-1.082-.406-1.922-.406-.844 0-1.492.136-1.937.406-.438.262-.657.598-.657 1s.22.734.657.984c.445.258 1.093.391 1.937.391.84 0 1.484-.133 1.922-.39.445-.25.672-.583.672-.985zm-.61 0c0 .145-.054.27-.156.375-.093.113-.23.21-.406.297a3.34 3.34 0 0 1-.625.172c-.242.039-.508.062-.797.062-.586 0-1.066-.086-1.437-.25-.368-.156-.547-.379-.547-.656s.18-.504.547-.672c.37-.164.851-.25 1.437-.25.29 0 .555.024.797.063.238.043.445.105.625.187.176.086.313.184.406.297a.57.57 0 0 1 .157.375zm.532-1.484v-4.297H6.03v1.734h-.984v-1.61h-.563v3.954h.563v-1.844h.984v2.063zM4.172-2.5c-.125-.05-.3-.156-.516-.313a3.267 3.267 0 0 1-.594-.609 2.527 2.527 0 0 1-.39-.703 3.032 3.032 0 0 1-.14-.969v-.593h-.595v.593c0 .367-.058.707-.171 1.016a3.561 3.561 0 0 1-.704 1.156 2.088 2.088 0 0 1-.328.297c-.105.105-.21.191-.312.25-.094.063-.168.113-.219.14l.438.376c.113-.059.265-.164.453-.313.183-.152.367-.348.547-.578.175-.215.312-.426.406-.625a3.12 3.12 0 0 0 .187-.406c.02.074.086.21.204.406.113.188.25.367.406.531a3.755 3.755 0 0 0 .953.781zm0 0"/></symbol><symbol overflow="visible" id="aa"><path d="M6.313-1.594v-4.312H5.75v1.078H3.969v-.563H.734v3.047H3.97v-.687H5.75v1.437zm.093 1.469c0-.402-.222-.738-.656-1-.438-.258-1.07-.39-1.89-.39-.825 0-1.458.132-1.891.39-.438.262-.657.598-.657 1s.22.734.657.984c.433.258 1.066.391 1.89.391.82 0 1.454-.133 1.891-.39.434-.25.656-.583.656-.985zm-.656-3.39H3.969v-.829H5.75zm-2.344.687H1.312v-2.078h2.094zm2.39 2.703c0 .277-.183.5-.546.656-.367.153-.832.235-1.39.235-.587 0-1.055-.086-1.407-.25-.355-.157-.531-.371-.531-.641 0-.29.176-.508.531-.656.352-.153.82-.235 1.406-.235.559 0 1.024.082 1.391.235.363.156.547.379.547.656zm0 0"/></symbol><symbol overflow="visible" id="ab"><path d="M6.563.953V.47H2.171v-1.735h-.578v2.22zM6.375-.812v-5.094h-.578v.953h-1.89a2.049 2.049 0 0 0-.641-.516 1.912 1.912 0 0 0-.875-.203c-.282 0-.54.05-.766.14-.23.095-.43.223-.594.376a1.752 1.752 0 0 0-.375.562c-.094.211-.14.434-.14.672 0 .25.046.48.14.688a1.684 1.684 0 0 0 .969.921c.227.086.484.126.766.126.34 0 .648-.067.921-.204.278-.144.5-.343.657-.593h1.828v2.171zM5.797-3.47H4.172c.02-.058.035-.129.047-.203a1.069 1.069 0 0 0 0-.515 1.923 1.923 0 0 0-.063-.282h1.64zM2.39-5.14c.394 0 .703.121.921.36.215.242.329.527.329.86 0 .335-.114.62-.329.858-.218.243-.527.36-.921.36-.407 0-.723-.117-.938-.36a1.224 1.224 0 0 1-.328-.859c0-.332.11-.617.328-.86.215-.238.531-.359.938-.359zm0 0"/></symbol><symbol overflow="visible" id="ac"><path d="M6.969-1.969v-.484h-1.25a.93.93 0 0 1 .031-.219c.02-.09.04-.203.063-.328.019-.113.039-.234.062-.36.027-.132.055-.269.078-.406.02-.152.04-.316.063-.484l.078-.5c.02-.152.035-.297.047-.422.007-.121.02-.223.03-.297H.954v.5h4.563a17 17 0 0 1-.094.672c-.031.25-.07.496-.11.734-.03.243-.07.461-.109.657-.043.199-.074.351-.094.453H.156v.484H3.11v3.094h.594v-3.094zm0 0"/></symbol><symbol overflow="visible" id="ad"><path d="M6.547-3.172c-.094-.02-.211-.05-.344-.094a5.39 5.39 0 0 1-.422-.156 4.34 4.34 0 0 1-.484-.219 2.966 2.966 0 0 1-.469-.312 2.513 2.513 0 0 1-.719-.719 1.497 1.497 0 0 1-.234-.781v-.344H3.25v.344c0 .262-.086.523-.25.781a2.398 2.398 0 0 1-.703.719 4.075 4.075 0 0 1-.953.531 5.061 5.061 0 0 1-.438.156c-.125.043-.23.075-.312.094l.36.406c.07-.02.171-.05.296-.093.121-.04.258-.094.406-.157a3.86 3.86 0 0 0 .469-.218c.152-.09.313-.192.469-.297a3.87 3.87 0 0 0 .625-.61c.176-.207.289-.375.344-.5.05.125.16.293.328.5.175.211.394.414.656.61.144.105.297.207.453.297.152.086.313.16.469.218.144.063.281.118.406.157.121.043.227.074.313.093zm.422 1.64v-.5H.156v.5h3.11v2.657h.593v-2.656zm0 0"/></symbol><symbol overflow="visible" id="ag"><path d="M4.328-2.39a.844.844 0 0 0-.25-.61.828.828 0 0 0-1.422.61.85.85 0 0 0 .235.609.8.8 0 0 0 .593.25.812.812 0 0 0 .594-.25.831.831 0 0 0 .25-.61zm0 0"/></symbol><symbol overflow="visible" id="ah"><path d="M6.172-.61v-5.265h-.5v1.656H4.094v.438h1.578V-.61zm.219 1.672V.625H2.203V-1.25h-.5v2.313zM.797-5.109H2.28v.375c0 .343-.054.66-.156.937a3.208 3.208 0 0 1-.375.75c-.18.242-.395.457-.64.64-.25.188-.524.348-.813.47.058.054.133.117.219.187.09.063.164.121.218.172.196-.113.391-.238.579-.375.183-.133.359-.285.515-.453.152-.153.29-.332.406-.531.121-.196.223-.407.297-.626.09.188.203.368.328.532.121.168.258.32.407.453.175.168.359.32.546.453.184.125.376.23.563.313A1.28 1.28 0 0 1 4.531-2c.07-.07.14-.145.203-.219a3.035 3.035 0 0 1-.718-.344 2.685 2.685 0 0 1-.61-.562 2.66 2.66 0 0 1-.453-.734 2.384 2.384 0 0 1-.156-.875v-.375H4.25v-.422H.797zm0 0"/></symbol><symbol overflow="visible" id="ai"><path d="M.656-4.984h1.547v.562c0 .418-.05.817-.14 1.188a3.813 3.813 0 0 1-.407 1.046c-.18.325-.398.622-.656.891a4.573 4.573 0 0 1-.89.719c.081.055.171.117.265.187.09.063.164.121.219.172.195-.144.394-.316.594-.515.195-.196.378-.414.546-.657.164-.226.313-.46.438-.703.133-.246.226-.492.281-.734.09.273.207.535.344.781.144.242.305.465.484.672.153.18.32.352.5.516.184.156.38.304.578.437l.188-.187c.082-.082.156-.149.219-.204a5.057 5.057 0 0 1-.922-.671 3.882 3.882 0 0 1-.64-.829 3.118 3.118 0 0 1-.376-.89 4.724 4.724 0 0 1-.11-1.063v-.718h1.61v-.438H.656zm4.61-.891v7.094h.515v-3.844H6.86v-.453H5.781v-2.797zm0 0"/></symbol><symbol overflow="visible" id="aj"><path d="M6.313 1.063V.625H2.125V-1.25h-.5v2.313zm-.72-6.938v5.266h.5v-5.266zm-2.874 1v-.813h-.516v.813c0 .336-.055.645-.156.922a2.83 2.83 0 0 1-.39.765c-.18.243-.395.458-.641.641-.243.18-.508.336-.797.469.027.031.062.066.093.094.04.03.083.066.126.093.039.032.078.07.109.11a1.2 1.2 0 0 0 .11.078c.195-.113.39-.238.577-.375.184-.133.36-.281.516-.438.145-.164.281-.347.406-.546.121-.196.223-.407.297-.626.09.211.211.41.36.594.144.188.304.356.484.5.152.149.316.278.484.39.176.106.348.196.516.267.039-.06.094-.13.156-.204l.203-.203a3.109 3.109 0 0 1-.734-.39 3.123 3.123 0 0 1-.64-.579 2.558 2.558 0 0 1-.423-.718 2.452 2.452 0 0 1-.14-.844zm0 0"/></symbol><symbol overflow="visible" id="ak"><path d="M6.703-1.781v-.438H.25v.438h3.063v1.625h.5v-1.625zm-.64 2.843V.625H1.625V-1h-.484v2.063zm-.75-4.671H1.624v-1.625h3.688zm-4.172.421h4.671v-2.468H1.141zm0 0"/></symbol><symbol overflow="visible" id="am"><path d="M.578-5.39V.546h.485v-5.938zm0 0"/></symbol><symbol overflow="visible" id="an"><path d="M.328-2.484c0 1.03.203 1.832.61 2.39.414.551.976.828 1.687.828.363 0 .676-.074.938-.218.269-.137.492-.309.671-.516.176-.207.313-.438.407-.688.101-.257.164-.503.187-.734h-.453c-.023.188-.07.387-.14.594a1.62 1.62 0 0 1-.298.562c-.124.168-.292.301-.5.407-.199.101-.445.156-.734.156-.586 0-1.043-.227-1.375-.672-.336-.457-.5-1.113-.5-1.969 0-.445.04-.844.125-1.187.09-.352.223-.649.39-.89.165-.24.364-.423.595-.548.238-.12.5-.187.78-.187.278 0 .516.05.704.14.195.086.36.196.484.329.121.136.219.285.281.437.06.148.102.285.125.406h.454a1.796 1.796 0 0 0-.141-.531 2.08 2.08 0 0 0-.375-.563 2.213 2.213 0 0 0-.64-.453 2.036 2.036 0 0 0-.891-.187c-.387 0-.73.086-1.031.25a2.28 2.28 0 0 0-.735.672c-.2.281-.355.613-.469.984a4.38 4.38 0 0 0-.156 1.188zm0 0"/></symbol><symbol overflow="visible" id="ao"><path d="M4.219-5.39H.109v.421h1.829V.547h.468V-4.97H4.22zm0 0"/></symbol><symbol overflow="visible" id="ap"><path d="M6.703-2.156v-.422H.25v.422h1.813v1.078c-.356.117-.63.273-.813.469-.188.199-.281.418-.281.656 0 .371.219.687.656.937.434.246 1.055.375 1.86.375.8 0 1.413-.129 1.843-.375.426-.25.64-.566.64-.937 0-.227-.09-.442-.265-.64-.18-.196-.445-.352-.797-.47v-1.093zm-2.281.969a6.525 6.525 0 0 0-.453-.047 3.931 3.931 0 0 0-.485-.032c-.168 0-.336.008-.5.016a3.465 3.465 0 0 0-.437.063v-.97h1.875zM5.453.046c0 .144-.055.27-.156.375-.106.113-.242.21-.406.297-.18.082-.387.14-.625.172a5.203 5.203 0 0 1-1.594 0 2.11 2.11 0 0 1-.625-.172A1.385 1.385 0 0 1 1.64.422.59.59 0 0 1 1.5.047c0-.3.18-.531.547-.688.371-.152.848-.234 1.422-.234.277 0 .539.023.781.063.246.042.457.105.625.187.176.074.316.168.422.281a.584.584 0 0 1 .156.39zM1.031-4.578c0 .375.207.695.625.953.414.262 1.02.39 1.813.39.8 0 1.41-.124 1.828-.374.414-.258.625-.579.625-.954 0-.37-.211-.69-.625-.953-.418-.27-1.027-.406-1.828-.406-.793 0-1.399.133-1.813.39-.418.262-.625.583-.625.954zm.532 0c0-.29.171-.52.515-.688.34-.175.805-.265 1.39-.265.571 0 1.036.09 1.391.265.364.18.547.414.547.704 0 .273-.183.496-.547.671-.355.168-.82.25-1.39.25-.586 0-1.051-.086-1.39-.265-.345-.176-.517-.399-.517-.672zm0 0"/></symbol><symbol overflow="visible" id="aq"><path d="M2.531-4.063c-.261 0-.496.036-.703.094-.21.055-.387.13-.531.219a1.243 1.243 0 0 0-.344.36.759.759 0 0 0-.11.39c0 .148.036.285.11.406.082.125.195.239.344.328.144.106.32.184.531.235.207.054.442.078.703.078.52 0 .93-.102 1.235-.313.308-.207.468-.453.468-.734 0-.277-.152-.523-.453-.734-.304-.215-.722-.329-1.25-.329zM3.703-3c0 .21-.101.371-.297.484-.199.106-.492.157-.875.157-.375 0-.668-.051-.875-.157-.199-.113-.297-.273-.297-.484a.55.55 0 0 1 .297-.5c.207-.113.5-.172.875-.172.383 0 .676.07.875.203.196.125.297.285.297.469zm2.235 4.14V-1.53h-.485v.843H2.11v-.843h-.5V1.14zM5.452.735H2.11V-.28h3.344zm1.484-4.406v-.437H5.923v-1.766h-.5v4h.5v-1.797zM3.563-5.469v-.406H1.47v.406zm.985 1.016v-.422H.53v.422zm0 0"/></symbol><symbol overflow="visible" id="ar"><path d="M5.813-2.578v-3.125h-.5v1H1.64v-1h-.5v3.125zM5.313-3H1.64v-1.297h3.671zm1.39 1.766v-.422H.25v.422h3v2.453h.516v-2.453zm0 0"/></symbol><symbol overflow="visible" id="as"><path d="M6.094-.61v-5.265h-.5v1.5h-1.64v.453h1.64v3.313zm.218 1.672V.625H2.125V-1.25h-.5v2.313zM2.72-4.875v-.813h-.516v.813c0 .336-.055.645-.156.922a2.83 2.83 0 0 1-.39.765c-.18.243-.395.458-.641.641-.243.18-.508.336-.797.469.027.031.062.066.093.094.04.03.083.066.126.093.039.032.078.07.109.11a1.2 1.2 0 0 0 .11.078c.195-.113.39-.238.577-.375.184-.133.36-.281.516-.438.145-.164.281-.347.406-.546.121-.196.223-.407.297-.626.09.211.211.41.36.594.144.188.304.356.484.5.152.149.316.278.484.39.176.106.348.196.516.267.039-.06.094-.13.156-.204l.203-.203a3.109 3.109 0 0 1-.734-.39 3.123 3.123 0 0 1-.64-.579 2.558 2.558 0 0 1-.423-.718 2.452 2.452 0 0 1-.14-.844zm0 0"/></symbol><symbol overflow="visible" id="at"><path d="M6.094 1.14v-2.609H1.625v2.61zm-.5-.437H2.125V-1.03h3.469zM.562-4.016c0 .243.04.473.125.688.09.219.22.414.375.578a1.868 1.868 0 0 0 1.297.516c.258 0 .5-.047.72-.141.214-.09.41-.219.577-.375.145-.164.266-.36.36-.578.09-.215.14-.445.14-.688 0-.238-.05-.46-.14-.671a2.288 2.288 0 0 0-.36-.579 2.134 2.134 0 0 0-.578-.375c-.219-.09-.46-.14-.719-.14a1.857 1.857 0 0 0-1.296.515 1.964 1.964 0 0 0-.375.579c-.086.21-.125.433-.125.671zm.516 0c0-.363.11-.675.328-.937.227-.258.547-.39.953-.39.414 0 .735.132.954.39.214.262.328.574.328.937 0 .368-.114.68-.329.938-.218.262-.539.39-.953.39-.406 0-.726-.128-.953-.39a1.4 1.4 0 0 1-.328-.938zm4.516-1.859v4.031h.5v-4.031zm0 0"/></symbol><symbol overflow="visible" id="au"><path d="M6.078 1.219v-7.094h-.5v7.094zM.953-5.421v.437h2.5c-.043.449-.137.87-.281 1.265-.137.399-.309.77-.516 1.11a5.224 5.224 0 0 1-.937 1.093c-.356.325-.77.614-1.235.86.059.043.145.101.25.172.114.074.192.136.235.187a7.388 7.388 0 0 0 1.265-1.031c.371-.383.692-.805.954-1.266.226-.402.41-.844.546-1.312.145-.477.235-.985.266-1.516zm0 0"/></symbol><symbol overflow="visible" id="ay"><path d="M2.969-5.406h-.453v4.031c0 .305-.02.566-.047.781-.024.211-.07.383-.14.516a.7.7 0 0 1-.298.312 1.24 1.24 0 0 1-.515.094C1.21.328.976.223.812.016.656-.191.579-.484.579-.86v-.282H.156v.282C.156-.33.27.066.5.328c.238.258.566.39.984.39.528 0 .91-.152 1.141-.452.227-.29.344-.766.344-1.422zm0 0"/></symbol><symbol overflow="visible" id="az"><path d="M3.016-.031l-1.672-5.36H.578V.547h.469v-5.422L2.78.547h.469l1.734-5.453V.547h.47v-5.938h-.75zm0 0"/></symbol><symbol overflow="visible" id="aA"><path d="M2.11-3.469c.402 0 .706.18.906.531.207.356.312.817.312 1.376 0 .574-.105 1.039-.312 1.39a.99.99 0 0 1-.907.516c-.418 0-.726-.176-.921-.516C.988-.523.89-.988.89-1.562c0-.56.097-1.02.296-1.375.196-.352.504-.532.922-.532zm0-.39c-.563 0-.993.214-1.282.64-.281.418-.422.973-.422 1.656 0 .711.14 1.27.422 1.672.277.414.707.625 1.281.625.559 0 .989-.21 1.282-.625.3-.402.453-.96.453-1.671 0-.684-.153-1.239-.453-1.657-.293-.426-.723-.64-1.282-.64zm0 0"/></symbol><symbol overflow="visible" id="aB"><path d="M1.047-3.078v-.61H.578v4.25h.485v-2.218c0-.246.03-.477.093-.688.059-.215.145-.398.25-.547.114-.152.242-.273.39-.359a.936.936 0 0 1 .47-.125c.332 0 .554.121.671.36.114.23.172.523.172.874V.563h.485v-2.766c0-.207-.024-.406-.063-.594a1.423 1.423 0 0 0-.187-.515 1.057 1.057 0 0 0-.375-.344 1.185 1.185 0 0 0-.578-.125c-.274 0-.524.054-.75.156-.23.105-.43.29-.594.547zm0 0"/></symbol><symbol overflow="visible" id="aC"><path d="M.39-.594c.008.367.145.672.407.922.258.258.64.39 1.14.39.477 0 .848-.116 1.11-.343.258-.23.39-.547.39-.953 0-.176-.035-.328-.093-.453a.874.874 0 0 0-.266-.328 1.492 1.492 0 0 0-.375-.235 4.776 4.776 0 0 0-.453-.156l-.516-.156c-.25-.07-.441-.164-.562-.282-.125-.113-.188-.296-.188-.546 0-.196.082-.364.25-.5a.952.952 0 0 1 .625-.22c.176 0 .32.028.438.079.121.055.223.117.297.188.07.074.125.16.156.25.04.085.066.164.078.234h.469a1.092 1.092 0 0 0-.328-.75 1.63 1.63 0 0 0-.438-.266 1.536 1.536 0 0 0-.64-.125c-.438 0-.778.114-1.016.328-.242.22-.36.524-.36.907 0 .304.094.539.282.703a1.9 1.9 0 0 0 .765.375l.563.172c.27.086.477.183.625.296.152.106.234.278.234.516 0 .305-.105.527-.312.672-.2.145-.442.219-.719.219-.344 0-.605-.09-.781-.266-.168-.164-.258-.39-.266-.672zm0 0"/></symbol><symbol overflow="visible" id="aD"><path d="M3.125-.016v.563h.422v-4.25h-.453v2.094c0 .554-.102 1.011-.297 1.375-.188.351-.48.53-.875.53-.344 0-.582-.1-.703-.296-.117-.195-.172-.469-.172-.813v-2.89H.578V-.75c0 .43.094.77.281 1.031.196.258.52.39.97.39.35 0 .624-.07.812-.202.195-.125.359-.29.484-.485zm0 0"/></symbol><symbol overflow="visible" id="aE"><path d="M.578-5.39V.546h.485v-5.938zm0 0"/></symbol><symbol overflow="visible" id="aF"><path d="M.781-4.984v1.265H.25v.422h.531v3.094c0 .226.047.414.14.562.09.153.282.235.563.235h.235c.05 0 .086-.008.11-.016h.046V.203h-.047c-.219 0-.371-.027-.453-.078-.086-.043-.125-.18-.125-.422v-3h.625v-.422H1.25v-1.265zm0 0"/></symbol><symbol overflow="visible" id="aG"><path d="M.578-3.672V.547h.485v-4.219zm0-1.719v.657h.485v-.657zm0 0"/></symbol><symbol overflow="visible" id="aH"><path d="M3.156-3.234a1.213 1.213 0 0 0-.531-.454 1.5 1.5 0 0 0-.656-.156 1.31 1.31 0 0 0-.703.188 1.34 1.34 0 0 0-.485.484c-.136.211-.238.457-.297.735a3.928 3.928 0 0 0-.093.874c0 .375.039.7.125.97.09.273.21.495.359.671.133.176.297.305.484.39.196.083.407.126.625.126a1.4 1.4 0 0 0 .672-.156c.196-.106.364-.247.5-.422 0 .34-.02.64-.047.89a1.855 1.855 0 0 1-.156.64.825.825 0 0 1-.344.36c-.156.082-.37.125-.64.125-.305 0-.535-.074-.688-.219A.879.879 0 0 1 1 1.282H.5c.008.183.05.347.125.484.082.144.191.265.328.359.121.09.274.164.453.219.176.05.36.078.547.078.32 0 .586-.05.797-.14.215-.095.39-.239.516-.423.132-.18.226-.402.28-.671.052-.262.079-.57.079-.922V-3.72h-.469zm-1.125-.22c.371 0 .656.177.844.517.184.335.281.773.281 1.312 0 .543-.097.98-.281 1.313a.924.924 0 0 1-.844.484.952.952 0 0 1-.86-.484C.974-.645.876-1.083.876-1.625c0-.54.098-.977.297-1.313.195-.34.484-.515.86-.515zm0 0"/></symbol><symbol overflow="visible" id="aI"><path d="M.719 1.984c.27-.062.46-.199.578-.406.121-.2.187-.465.187-.797V.047H.688v.765h.437c0 .239-.04.43-.11.579-.062.144-.199.265-.406.359zm0 0"/></symbol><symbol overflow="visible" id="aJ"><path d="M6.094-1.563v-4.312h-.5v1.078H4.25v.422h1.344v1.11H4.03v.421h1.563v1.281zM3.859 1.345c.739 0 1.317-.137 1.735-.407.414-.261.625-.597.625-1 0-.394-.211-.726-.625-1-.418-.277-.996-.421-1.735-.421-.375 0-.71.039-1 .109-.293.074-.539.18-.734.313-.2.125-.355.277-.469.453a1.01 1.01 0 0 0-.156.546c0 .403.207.739.625 1 .414.27.992.407 1.734.407zM2.016-.063c0-.152.046-.296.14-.421.09-.121.223-.227.39-.313.165-.082.36-.144.579-.187a3.36 3.36 0 0 1 .734-.079c.258 0 .5.028.72.079.226.043.425.105.593.187.164.086.297.192.39.313.102.125.157.27.157.421a.626.626 0 0 1-.157.422 1.18 1.18 0 0 1-.39.313 2.08 2.08 0 0 1-.594.203c-.23.04-.473.063-.719.063-.261 0-.504-.024-.718-.063a2.262 2.262 0 0 1-.594-.203 1.105 1.105 0 0 1-.39-.313.654.654 0 0 1-.141-.421zM.89-5.53v.422h2.593a3.086 3.086 0 0 1-.328.953c-.156.273-.347.52-.562.734a4.403 4.403 0 0 1-1 .719c-.375.2-.77.355-1.172.469.058.062.129.132.203.203.07.062.133.129.188.187a5.488 5.488 0 0 0 1.265-.578 4.2 4.2 0 0 0 1.031-.875c.246-.289.454-.617.61-.984.164-.371.273-.79.328-1.25zm0 0"/></symbol><symbol overflow="visible" id="aK"><path d="M1.406-.047c0 .395.203.723.61.985.402.269 1 .406 1.78.406.77 0 1.36-.133 1.767-.39.402-.263.609-.59.609-.985s-.207-.727-.61-1c-.406-.278-.996-.422-1.765-.422-.781 0-1.379.137-1.781.406-.407.274-.61.606-.61 1zm.5-.015c0-.31.172-.551.516-.72.351-.163.812-.25 1.375-.25.539 0 .988.09 1.344.266.351.168.53.414.53.735 0 .308-.179.55-.53.719-.356.164-.805.25-1.344.25-.563 0-1.024-.09-1.375-.266-.344-.168-.516-.414-.516-.735zm-.828-3.954c0-.363.11-.675.328-.937.227-.258.547-.39.953-.39.414 0 .735.132.954.39.214.262.328.574.328.937 0 .368-.114.68-.329.938-.218.262-.539.39-.953.39-.406 0-.726-.128-.953-.39a1.4 1.4 0 0 1-.328-.938zm2.984.563a1.39 1.39 0 0 0 .063-.266 1.471 1.471 0 0 0 0-.594 5.447 5.447 0 0 0-.078-.296h1.547v1.156zm2.032 1.89v-4.312h-.5v.828h-1.75a2.057 2.057 0 0 0-.625-.531 1.813 1.813 0 0 0-.86-.203 1.857 1.857 0 0 0-1.296.515 1.964 1.964 0 0 0-.375.579c-.086.21-.125.433-.125.671 0 .243.039.473.125.688.09.219.218.414.375.578a1.868 1.868 0 0 0 1.296.516 1.771 1.771 0 0 0 1.516-.797h1.719v1.469zm0 0"/></symbol><symbol overflow="visible" id="aL"><path d="M6.766-2.828v-.422H5.78v-1.188h.985v-.421H5.78v-1.016h-.515v4.406h.515v-1.36zm-1.782.219c-.148.03-.336.07-.562.109-.219.031-.45.059-.688.078-.242.031-.48.059-.718.078-.23.012-.43.016-.594.016l-1.297.015V-3.53h2.672v-2.063H.657v.422h2.655v1.234H.656v2.063H1.891c.214 0 .425-.004.625-.016.183-.007.394-.02.625-.03.238-.02.472-.048.703-.079.226-.027.441-.055.64-.078.207-.027.375-.063.5-.094zm.797 3.875v-2.344H1.25v.422h4.016v1.922zm0 0"/></symbol><symbol overflow="visible" id="aM"><path d="M6.094-.61v-5.265h-.5v2.156H4.078v.438h1.516V-.61zm.218 1.672V.625H2.125V-1.25h-.5v2.313zM.75-1.5a6.614 6.614 0 0 0 1.281-.688 4.862 4.862 0 0 0 1.047-.968c.258-.32.473-.68.64-1.078.165-.395.27-.829.313-1.297H.921v.422h2.563c-.03.199-.086.398-.156.593A3.3 3.3 0 0 1 3.11-4c-.199.023-.433.04-.703.047h-.75c-.242.012-.449.015-.625.015H.75v.391h.813c.214 0 .44-.004.671-.015.239-.008.446-.024.625-.047a4.445 4.445 0 0 1-1.093 1.015c-.461.305-.942.54-1.438.703.059.063.133.137.219.22.09.073.16.132.203.171zm0 0"/></symbol><symbol overflow="visible" id="aN"><path d="M6.094-2.156v-3.719h-.5v1.234H3.937v.422h1.657v2.063zm.172 3.281V.703H2.109v-.828h3.985v-1.672H1.609v.422h3.97v.813h-3.97v1.687zM2.719-5.063v-.656h-.516v.625c0 .336-.055.633-.156.89a2.093 2.093 0 0 1-.422.673c-.188.199-.402.37-.64.515a4.486 4.486 0 0 1-.766.375 5.54 5.54 0 0 1 .437.36c.196-.09.39-.196.578-.313a3.748 3.748 0 0 0 .922-.86 2.14 2.14 0 0 0 .297-.562c.113.2.238.383.375.547.145.156.3.293.469.406.152.118.316.223.484.313.176.086.348.164.516.234a1.28 1.28 0 0 1 .156-.187c.059-.07.129-.145.203-.219a3.41 3.41 0 0 1-.734-.281 2.507 2.507 0 0 1-.64-.5 1.75 1.75 0 0 1-.423-.594 1.995 1.995 0 0 1-.14-.766zm0 0"/></symbol><symbol overflow="visible" id="aO"><path d="M6.047-.594v-5.281h-.5v1.797h-1.36v.437h1.375v3.047zm.187 1.656V.625H2.078v-1.656h-.5v2.093zm-1.25-3.5a25.4 25.4 0 0 1-1.171.172 9.534 9.534 0 0 1-1.266.079l-1.266.015v-1.312h2.594v-.407H1.281v-1.28h2.657v-.423H.812v3.844c.008 0 .083.008.22.016.132 0 .304-.004.515-.016h.64c.239-.008.461-.02.672-.031.164 0 .348-.008.547-.032L4-1.89c.195-.02.379-.039.547-.062.176-.027.32-.055.437-.078zm0 0"/></symbol><symbol overflow="visible" id="aP"><path d="M6.719.172V-.25H.234v.422zM1.14-1.61h4.718v-.422H1.641v-1.313h4.156v-.422H1.64v-1.328h4.171v-.422H1.141zm0 0"/></symbol><symbol overflow="visible" id="aQ"><path d="M6.938-3.328v-.438H5.921v-2.109h-.484v5.266h.484v-2.72zm-.766 4.39V.625H2.109V-.969h-.5v2.031zm-2.61-6.515v-.422H1.47v.422zm.985 1.078v-.422H.53v.422zm-2.016.469c-.261 0-.496.035-.703.094-.21.062-.387.152-.531.265-.149.106-.262.23-.344.375a1.033 1.033 0 0 0 0 .922c.082.148.195.273.344.375.144.117.32.207.531.266.207.062.442.093.703.093.258 0 .492-.03.703-.093.207-.059.391-.149.547-.266.133-.102.242-.227.328-.375a.911.911 0 0 0 .125-.453c0-.32-.152-.602-.453-.844-.304-.238-.722-.36-1.25-.36zM1.36-2.72c0-.215.098-.398.297-.547.207-.144.5-.218.875-.218.383 0 .676.074.875.218.196.149.297.332.297.547 0 .23-.101.426-.297.578-.199.149-.492.22-.875.22-.375 0-.668-.071-.875-.22a.7.7 0 0 1-.297-.578zm0 0"/></symbol><symbol overflow="visible" id="aR"><path d="M5.64-3.047c.028-.183.063-.394.094-.625.04-.226.067-.457.079-.687.027-.227.05-.454.062-.672.02-.215.035-.426.047-.625h-4.89v.422h4.374c-.011.168-.027.347-.047.53a7.672 7.672 0 0 1-.062.579c-.024.2-.05.395-.078.578a17.19 17.19 0 0 0-.078.5H.25v.422h2.875v1.438H1.047v.421h4.25v2.032h.516v-2.454H3.624v-1.437h3.078v-.422zm0 0"/></symbol><symbol overflow="visible" id="aS"><path d="M2.766-3.328c.257 0 .492-.031.703-.094A1.76 1.76 0 0 0 4-3.703c.145-.113.254-.25.328-.406a1.04 1.04 0 0 0 0-.984A1.198 1.198 0 0 0 4-5.5a1.953 1.953 0 0 0-.531-.281c-.211-.07-.446-.11-.703-.11-.262 0-.496.04-.704.11-.21.074-.386.168-.53.281a1.3 1.3 0 0 0-.345.406c-.074.157-.109.32-.109.485 0 .18.035.347.11.5.07.148.187.277.343.39.145.125.32.227.532.297.207.063.44.094.703.094zm.015-.406c-.21 0-.394-.024-.547-.079a.976.976 0 0 1-.375-.203.793.793 0 0 1-.234-.28.65.65 0 0 1-.078-.313c0-.207.098-.407.297-.594.195-.195.504-.297.922-.297.402 0 .707.102.906.297.207.187.312.387.312.594 0 .105-.027.21-.078.312-.054.106-.129.2-.219.281a1.491 1.491 0 0 1-.906.281zM6.187-.406v-5.469h-.5v4.172h-1.75v.406h1.75v.89zm.157 1.453V.625H2.187v-1.36h-.515v1.782zm-.89-4c-.106.023-.263.05-.47.078-.21.023-.445.043-.703.063a14.5 14.5 0 0 1-.828.046c-.281.012-.55.016-.797.016l-2.172.016v.421h1.704v1.22h.484v-1.235c.215 0 .457-.004.719-.016.27-.008.53-.023.78-.047.259-.007.5-.023.72-.046.226-.028.414-.055.562-.079zm0 0"/></symbol><symbol overflow="visible" id="aT"><path d="M6.031 1.125V.703H2v-.828h3.86v-1.672H1.483v.422h3.86v.813h-3.86v1.687zM.766-2.109c.464-.164.91-.375 1.328-.625a4.32 4.32 0 0 0 1.078-.907c.215-.246.394-.53.531-.843.145-.309.242-.66.297-1.047H.89v.422h2.532a3.01 3.01 0 0 1-.14.453 2.79 2.79 0 0 1-.204.39c-.2.012-.433.024-.703.032-.273.011-.527.015-.766.015H.704v.39h.812c.214-.007.441-.019.671-.03.239-.008.446-.024.626-.047a3.892 3.892 0 0 1-1.079.844c-.43.23-.879.417-1.343.562.058.055.125.117.187.188.07.062.133.132.188.203zm6.109-1.735v-.437H5.844v-1.594h-.5v3.672h.5v-1.64zm0 0"/></symbol><symbol overflow="visible" id="aU"><path d="M6.047 1.14v-2.515H1.594v2.516zM5.563.704h-3.47V-.953h3.47zm.484-2.484v-4.094h-.5v1.563H4.203v.437h1.36v2.094zM4.984-2.875a6.43 6.43 0 0 1-.562.094c-.219.031-.45.066-.688.094-.242.023-.48.042-.718.062-.23.012-.43.016-.594.016l-1.14.015v-1.078h2.546v-1.922H.813v.422h2.53v1.094H.814v1.937H1.92c.196 0 .395-.004.595-.015.183-.008.394-.024.625-.047.238-.02.472-.047.703-.078.226-.02.441-.047.64-.078.207-.028.375-.055.5-.079zm0 0"/></symbol><symbol overflow="visible" id="aV"><path d="M5.188-1.422a4.935 4.935 0 0 1-.47.094c-.179.031-.37.058-.577.078-.211.031-.426.059-.641.078a9.06 9.06 0 0 1-.563.047l-1.515.016v-4.422h-.5v4.89c.008 0 .07.008.187.016.121 0 .286-.004.485-.016h.625A13.56 13.56 0 0 0 3.53-.703c.215-.027.43-.055.64-.078.208-.028.4-.055.579-.078.176-.028.32-.063.438-.094zm.328-4.453v7.094h.5v-7.094zm0 0"/></symbol><symbol overflow="visible" id="aW"><path d="M6.719.172v-.438H.234v.438zM3.734-5v-.563H3.22V-5c0 .313-.082.629-.235.938a3.105 3.105 0 0 1-.625.828c-.25.242-.539.457-.859.64-.313.188-.645.34-.984.453.09.075.175.149.25.22.07.062.132.132.187.202.277-.113.555-.254.828-.422.27-.175.524-.367.766-.578.215-.195.406-.406.562-.625a3.18 3.18 0 0 0 .375-.687c.07.25.204.504.391.75.195.242.422.465.672.672.226.21.473.394.734.546.258.149.504.258.735.329.05-.07.109-.141.171-.204.07-.07.145-.14.22-.203a4.216 4.216 0 0 1-.954-.421 4.104 4.104 0 0 1-.844-.657 3.544 3.544 0 0 1-.64-.844A2.068 2.068 0 0 1 3.734-5zm0 0"/></symbol><symbol overflow="visible" id="aX"><path d="M3.172-6.14h-.5L.25 1.405h.516zm0 0"/></symbol><symbol overflow="visible" id="aY"><path d="M6.39 1.063V.625H2.095v-1.64h-.5v2.077zm-.187-1.61v-5.328h-.5v5.328zM4.86-.719V-5.75h-.5v1.656h-.984v.438h.984V-.72zm-.984-1.64a3.233 3.233 0 0 1-.297.062c-.117.012-.238.024-.36.031-.136.012-.273.024-.405.032-.137.011-.27.015-.391.015l-1.172.016v-1.281h1.906v-.407H1.25v-1.25h2.094v-.421H.78v3.796c.008 0 .063.008.156.016.102 0 .239-.004.407-.016h.531c.195-.007.398-.02.61-.03.288-.02.55-.04.78-.063.239-.028.442-.055.61-.079zm0 0"/></symbol><symbol overflow="visible" id="aZ"><path d="M6.719.188V-.25H.234v.438zM4.75-5.22v-.437H2.187v.437zM1.031-3.906h2.157a1.477 1.477 0 0 1-.22.719c-.136.21-.316.398-.53.562-.25.2-.543.371-.876.516a5.766 5.766 0 0 1-.953.312c.059.063.125.137.188.219.07.074.129.137.172.187.27-.07.539-.164.812-.28.27-.122.524-.27.766-.438.195-.145.375-.305.531-.485.164-.176.3-.375.406-.594.09.22.223.426.391.61.176.187.367.355.578.5.246.168.504.308.766.422.27.117.52.207.75.265.05-.07.11-.14.172-.203.058-.07.129-.14.203-.203a5.281 5.281 0 0 1-.89-.281 3.148 3.148 0 0 1-.845-.485 2.265 2.265 0 0 1-.593-.578 1.397 1.397 0 0 1-.25-.765h2.156v-.438h-4.89zm0 0"/></symbol><symbol overflow="visible" id="ba"><path d="M1.703-4.984h1.469L3.14-1.125c-.2.012-.41.016-.625.016H1.75zM.36-.672l2.344-.015h.531c.207-.008.414-.024.625-.047.207-.02.407-.036.594-.047.184-.02.344-.04.469-.063v-.422c-.106.024-.223.04-.344.047-.125.012-.254.024-.375.032a3.25 3.25 0 0 1-.344.046h-.218l.03-3.843h.657v-.422H.547v.422h.672L1.25-1.11H.36zM6.844-3.14v-.453H5.75v-2.281h-.531v7.094h.531v-4.36zm0 0"/></symbol><symbol overflow="visible" id="bb"><path d="M6.016 1.219v-7.094h-.5v1.922H3.484v.437h2.032V1.22zm-1.11-2.64c-.117.03-.27.066-.453.093-.18.031-.371.058-.578.078-.2.031-.402.059-.61.078a9.06 9.06 0 0 1-.562.047l-1.281.016v-4.422h-.5v4.89s.047.008.14.016c.102 0 .235-.004.391-.016h.563c.207 0 .43-.004.671-.015a8.8 8.8 0 0 0 .594-.047c.215-.027.426-.055.625-.078.207-.028.399-.055.578-.078.176-.028.317-.063.422-.094zm0 0"/></symbol><symbol overflow="visible" id="be"><path d="M2.063 1.578c-.376-.687-.66-1.34-.844-1.953a7.248 7.248 0 0 1-.266-2.016c0-.707.086-1.367.266-1.984.183-.621.468-1.281.843-1.969h-.328a12.89 12.89 0 0 0-.421.735 6.723 6.723 0 0 0-.407.906c-.125.324-.23.68-.312 1.062-.074.387-.11.805-.11 1.25 0 .45.036.868.11 1.25.082.387.187.743.312 1.063.121.332.258.633.406.906.145.27.286.52.422.75zm0 0"/></symbol><symbol overflow="visible" id="bf"><path d="M6.703-1.375v-.438H.25v.438h3v2.594h.516v-2.594zM1.078-5.172h2.125c0 .281-.074.54-.219.766a2.18 2.18 0 0 1-.546.61 3.96 3.96 0 0 1-.86.483C1.254-3.187.914-3.082.562-3c.06.063.13.133.204.203.082.074.144.137.187.188.27-.07.535-.16.797-.266a4.18 4.18 0 0 0 .766-.422c.195-.121.379-.273.546-.453.165-.184.305-.395.422-.625.114.273.274.508.485.703.207.2.437.371.687.516.215.136.442.254.672.344.238.085.461.152.672.203.05-.07.102-.141.156-.204.059-.058.13-.128.203-.203a4.263 4.263 0 0 1-.875-.25 3.533 3.533 0 0 1-.812-.437A2.193 2.193 0 0 1 4-4.328a1.399 1.399 0 0 1-.266-.844h2.141v-.422H1.078zm0 0"/></symbol><symbol overflow="visible" id="bg"><path d="M.719-6.344H.39c.37.688.656 1.348.843 1.969a6.92 6.92 0 0 1 .282 1.984 7.1 7.1 0 0 1-.282 2.016 10.846 10.846 0 0 1-.843 1.953h.328c.133-.23.273-.48.422-.75.144-.273.28-.574.406-.906.121-.32.223-.676.297-1.063.082-.382.125-.8.125-1.25 0-.445-.043-.859-.125-1.234a7.24 7.24 0 0 0-.297-1.078 8.582 8.582 0 0 0-.406-.89c-.149-.278-.29-.532-.422-.75zm0 0"/></symbol><symbol overflow="visible" id="bh"><path d="M4.063-.578V-5.5h-.5v1.906h-2.22V-5.5H.86v4.922zm-.5-.438h-2.22v-2.14h2.22zm1.984-4.859v7.094h.5v-7.094zm0 0"/></symbol><symbol overflow="visible" id="bi"><path d="M5.844-2.422v-.422H1.656v-1h4.125v-.406H1.656v-.984h4.14v-.422h-4.64v3.234zm.86 1.25v-.422H.25v.422h3v2.39h.516v-2.39zm0 0"/></symbol><symbol overflow="visible" id="bj"><path d="M5.453-2.953c-.105.023-.262.05-.469.078-.21.023-.445.043-.703.063a14.5 14.5 0 0 1-.828.046c-.281.012-.55.016-.797.016L.5-2.734v.421h1.797v1.22h.5v-1.235c.215 0 .453-.004.703-.016.246-.008.492-.023.734-.047.239-.007.461-.023.672-.046.215-.028.399-.055.547-.079zm.734 2.547v-5.485h-.5v5.485zm.157 1.453V.625H2.187V-.781h-.515v1.828zM2.766-3.328c.257 0 .492-.031.703-.094A1.76 1.76 0 0 0 4-3.703c.145-.113.254-.25.328-.406a1.04 1.04 0 0 0 0-.984A1.198 1.198 0 0 0 4-5.5a1.953 1.953 0 0 0-.531-.281c-.211-.07-.446-.11-.703-.11-.262 0-.496.04-.704.11-.21.074-.386.168-.53.281a1.3 1.3 0 0 0-.345.406c-.074.157-.109.32-.109.485 0 .18.035.347.11.5.07.148.187.277.343.39.145.125.32.227.532.297.207.063.44.094.703.094zm.015-.406c-.21 0-.394-.024-.547-.079a.976.976 0 0 1-.375-.203.793.793 0 0 1-.234-.28.65.65 0 0 1-.078-.313c0-.207.098-.407.297-.594.195-.195.504-.297.922-.297.402 0 .707.102.906.297.207.187.312.387.312.594 0 .105-.027.21-.078.312-.054.106-.129.2-.219.281a1.491 1.491 0 0 1-.906.281zm0 0"/></symbol><symbol overflow="visible" id="bk"><path d="M.89-5.36v4.735s.04.008.126.016c.082 0 .187-.004.312-.016h.438c.164 0 .332-.004.5-.016.132-.007.28-.02.437-.03.152-.009.305-.02.453-.032.145-.02.274-.035.39-.047.122-.02.22-.035.282-.047v-.453c-.074.023-.18.043-.312.063a10.25 10.25 0 0 1-.407.03c-.136.012-.277.024-.421.032a4.079 4.079 0 0 1-.344.016l-.969.03v-3.859h1.906v-.421zM6.157 1.22v-7.094h-.5v2.703H4.625V-5.75h-.5V.875h.5v-3.578h1.031v3.922zm0 0"/></symbol><symbol overflow="visible" id="bl"><path d="M5.078-1.89h-.484v1.702H2.39V-1.89h-.485v1.704H.234v.421H6.72v-.421h-1.64zM2.297-5.017h2.375L4.64-2.672H2.328zM.844-2.25h5.25v-.422h-.969l.031-2.344h.782v-.437H1v.437h.797l.031 2.344H.844zm0 0"/></symbol><symbol overflow="visible" id="bm"><path d="M6.281 1.063V.625H2.125v-1.797h-.5v2.234zM3.484-2.454H1.313V-3.86h2.171zm.47-.828v-1.047h1.64v1.047zm1.64.437v2.219h.5v-5.25h-.5v1.125h-1.64v-.86h-.47v1.344H1.313v-1.343h-.47v3.562h3.11v-.797zm0 0"/></symbol><symbol overflow="visible" id="bn"><path d="M5.25-1.25c-.105.023-.258.05-.453.078l-.656.078c-.243.032-.496.059-.766.078a8.734 8.734 0 0 1-.75.032L1.406-.97v-1.844h2.625v-2.671H.921v.437h2.626v1.813H.922v2.718H2.125c.215-.007.438-.02.656-.03a11.369 11.369 0 0 0 1.406-.11c.227-.02.43-.047.61-.078.183-.028.336-.055.453-.079zm.313-4.625v7.094h.5v-7.094zm0 0"/></symbol><symbol overflow="visible" id="bo"><path d="M2.64-4.266v-1.28h-.515v1.124c0 .418-.05.817-.14 1.188a3.813 3.813 0 0 1-.407 1.046c-.18.325-.398.622-.656.891a4.573 4.573 0 0 1-.89.719c.07.055.155.117.25.187.1.063.179.121.234.172.195-.144.394-.316.593-.515.196-.196.38-.414.547-.657.176-.226.328-.46.453-.703.121-.246.211-.492.266-.734.09.273.207.535.344.781.144.242.304.465.484.672.152.18.32.352.5.516.184.156.379.304.578.437l.188-.187c.082-.082.156-.149.218-.204a5.057 5.057 0 0 1-.921-.671 3.882 3.882 0 0 1-.641-.829 3.459 3.459 0 0 1-.36-.89 4.109 4.109 0 0 1-.124-1.063zm2.657-1.609v7.094h.516v-3.844h1.093v-.453H5.813v-2.797zm0 0"/></symbol><symbol overflow="visible" id="bp"><path d="M6.094 1.14v-2.906h-.5v.938H2.109v-.938h-.5v2.907zm-.5-.421H2.109V-.406h3.485zM2.359-2.36a1.86 1.86 0 0 0 1.156-.406c.153-.122.282-.274.376-.454.101-.176.175-.367.218-.578h1.485v1.656h.5v-3.734h-.5v1.64H4.125a1.665 1.665 0 0 0-.188-.624 1.681 1.681 0 0 0-.374-.485A1.773 1.773 0 0 0 3-5.672a2.011 2.011 0 0 0-1.36.016c-.218.086-.41.207-.562.36a1.617 1.617 0 0 0-.375.53c-.094.211-.14.442-.14.688 0 .25.046.48.14.687.09.211.219.395.375.547.164.149.36.27.578.36.215.086.453.125.703.125zM1.063-4.08c0-.35.117-.648.359-.89.238-.246.55-.375.937-.375.371 0 .68.13.922.375.239.242.36.54.36.89 0 .356-.121.661-.36.907-.242.242-.55.36-.922.36-.386 0-.699-.118-.937-.36a1.243 1.243 0 0 1-.36-.906zm0 0"/></symbol><symbol overflow="visible" id="bq"><path d="M5.969 1.125v-.39H1.656v-.86h4.157v-1.61H3.719v-.796h2.984v-.422H.25v.422h2.969v.797H1.14v.406h4.156v.797H1.14v1.656zM3.734-5.719v-.187h-.53v.187c0 .282-.083.535-.235.75-.156.211-.364.387-.61.532-.25.156-.535.289-.843.39a7.381 7.381 0 0 1-.891.219c.059.062.125.137.188.219.058.074.113.136.156.187.277-.058.55-.133.812-.219.258-.09.5-.203.719-.328.207-.12.395-.265.563-.422.164-.152.304-.336.421-.546.121.242.286.449.485.625.207.167.43.308.672.421.214.118.441.211.671.282.239.074.458.136.657.187a.903.903 0 0 0 .078-.094l.094-.093a.43.43 0 0 1 .078-.11.956.956 0 0 1 .11-.094 8.768 8.768 0 0 1-.829-.203 3.369 3.369 0 0 1-.797-.359A2.252 2.252 0 0 1 4-4.922a1.241 1.241 0 0 1-.266-.797zm0 0"/></symbol><symbol overflow="visible" id="br"><path d="M5.25-5.875v7.094h.516V-2.47h1.078v-.453H5.766v-2.953zm-4.453.453v.438h2.5a7.908 7.908 0 0 1-.25 1.187c-.117.375-.27.727-.453 1.047-.25.43-.57.82-.953 1.172a6.6 6.6 0 0 1-1.313.922c.059.043.145.101.25.172.113.074.195.136.25.187.488-.308.914-.66 1.281-1.047a5.977 5.977 0 0 0 1.485-2.562c.133-.477.222-.985.265-1.516zm0 0"/></symbol><symbol overflow="visible" id="bs"><path d="M3.703-5.266v-.421H1.578v.421zm2.047-.609v7.094h.5v-7.094zM2.906-3.594v-.328H4.5v-.437H.797v.437H2.39v.328c0 .313-.051.617-.141.906a3.163 3.163 0 0 1-.36.782c-.187.281-.413.539-.671.765-.25.23-.528.434-.828.61A.528.528 0 0 0 .5-.437a.8.8 0 0 0 .14.093c.04.031.079.067.11.094a1.2 1.2 0 0 0 .11.078c.206-.164.398-.328.578-.484.175-.164.335-.336.484-.516.144-.164.273-.351.39-.562.122-.207.239-.446.344-.72.09.25.196.477.313.673.12.199.258.386.406.562.145.18.3.34.469.485.164.148.351.293.562.437.04-.058.094-.129.157-.203.07-.07.14-.129.203-.172a3.205 3.205 0 0 1-.735-.515 3.512 3.512 0 0 1-.61-.72 3.205 3.205 0 0 1-.374-.78 2.931 2.931 0 0 1-.14-.907zm0 0"/></symbol><symbol overflow="visible" id="bt"><path d="M3.844 1.36c.77 0 1.363-.133 1.781-.391.414-.25.625-.57.625-.953s-.21-.707-.625-.97c-.418-.257-1.012-.39-1.781-.39-.793 0-1.395.133-1.797.39-.406.263-.61.587-.61.97 0 .382.204.703.61.953.414.258 1.015.39 1.797.39zM1.938.015c0-.301.175-.536.53-.704.352-.164.813-.25 1.376-.25.55 0 1.004.086 1.36.25.362.168.546.403.546.704a.63.63 0 0 1-.14.39c-.094.114-.231.211-.407.297a2.337 2.337 0 0 1-.61.188c-.23.039-.48.062-.75.062-.562 0-1.023-.09-1.374-.265C2.113.52 1.938.292 1.938.015zm3.687-3.297v1.812h.516v-4.406h-.516v1.063H4.453v.421h1.188v.704H4.453v.406zM1.844-5.11h1.422L3.25-2.625c-.2.012-.414.016-.64.016h-.735zm3.218 2.328a7.936 7.936 0 0 1-.656.094 5.91 5.91 0 0 1-.687.046l.031-2.468h.734v-.422H.688v.422h.671l.032 2.5H.469v.421l2.672-.015c.289 0 .613-.016.968-.047l.954-.11zm0 0"/></symbol><symbol overflow="visible" id="bu"><path d="M6.078 1.219v-7.094h-.5v2.656H4v.438h1.578v4zM.953-5.421v.437h2.5c-.043.449-.133.87-.265 1.265a5.447 5.447 0 0 1-.532 1.094 5.628 5.628 0 0 1-.937 1.11c-.356.324-.77.613-1.235.859.059.043.145.101.25.172.114.074.192.136.235.187A7.03 7.03 0 0 0 2.28-1.375c.371-.395.692-.828.953-1.297.215-.402.391-.836.516-1.297.133-.457.219-.941.25-1.453zm0 0"/></symbol><symbol overflow="visible" id="bv"><path d="M3.938-1.125l-.297.047c-.125.012-.262.027-.407.047-.148.011-.293.023-.437.031a4.923 4.923 0 0 1-.39.016L1.311-.97v-1.797h2v-2.671H.829v.421h2.016v1.829h-2v2.656L2.28-.547c.145 0 .297-.004.453-.015.153-.008.313-.024.47-.047.151-.008.296-.02.421-.032.133-.02.238-.039.313-.062zm2.218 2.344v-7.094h-.5v2.625h-.953v-2.5h-.5V.875h.5v-3.656h.953v4zm0 0"/></symbol><symbol overflow="visible" id="bw"><path d="M3.36-2.64c.257-.051.468-.204.624-.454.153-.258.235-.566.235-.922 0-.37-.13-.695-.375-.968-.242-.27-.598-.407-1.063-.407H.594V.547h2.14c.551 0 .977-.152 1.282-.453.3-.29.453-.696.453-1.219a1.57 1.57 0 0 0-.328-1 1.44 1.44 0 0 0-.782-.516zM1.062.124v-2.531h1.562c.176 0 .348.027.516.078.164.043.316.117.453.219.12.105.222.238.297.39.082.157.125.348.125.563 0 .43-.13.754-.375.968-.25.208-.551.313-.891.313zm0-2.922v-2.172h1.406c.414 0 .734.082.953.235.226.156.344.433.344.828 0 .355-.121.633-.36.828-.242.187-.543.281-.906.281zm0 0"/></symbol><symbol overflow="visible" id="bx"><path d="M2.125-5.39L.219.546h.5l.578-1.922h2.25L4.094.547h.531L2.781-5.391zm.328.374l.953 3.235H1.422zm0 0"/></symbol><symbol overflow="visible" id="by"><path d="M2.375.063L.75-5.391H.234L2.078.547h.594l1.844-5.938H4zm0 0"/></symbol><symbol overflow="visible" id="bz"><path d="M2.75-.89v2.265c0 .402.078.66.234.766.153.113.422.171.797.171h6.281v-.984h-5.89c-.063 0-.102-.012-.11-.031a.377.377 0 0 1-.015-.14V.077h5.687v-3.156H2.75v.984h5.703V-.89zM1-6.595h3.516c-.313.407-.77.801-1.36 1.172-.586.367-1.3.73-2.14 1.094l.656.844c1.402-.582 2.531-1.266 3.375-2.047.84-.778 1.266-1.625 1.266-2.532v-.796c0-.332-.083-.563-.235-.688-.148-.133-.379-.203-.687-.203H1.266v1h3.578c.09 0 .148.02.172.047.02.023.03.082.03.172v.515c0 .075-.007.149-.015.22L5-7.595H1zm8.734-.953v-2.687l-1.265.203v6.234h1.265v-2.719h1.829v-1.03zm0 0"/></symbol><symbol overflow="visible" id="bA"><path d="M3.172 1.344c0 .332.078.566.234.703.164.144.406.219.719.219h6.281v-4.422H3.172zm-.453-7.485h3.328v-3.687H1.469v.969h3.343v1.734H1.485v3.078c0 .293.082.508.25.64.164.137.375.2.625.188a39.339 39.339 0 0 0 2.672-.187 50.634 50.634 0 0 0 2.735-.375l-.141-.953c-.762.105-1.52.199-2.266.28-.75.087-1.558.161-2.421.22-.106.011-.168-.004-.188-.047-.023-.04-.031-.102-.031-.188zm1.719 4.97H9.14V1.28H4.609c-.074 0-.12-.011-.14-.031-.024-.023-.032-.074-.032-.156zm4.734-1.782h1.265v-7.266l-1.265.203v2.547H6.703v1.016h2.469zm0 0"/></symbol><symbol overflow="visible" id="bB"><path d="M8.25-3.578c-.867.125-1.684.238-2.453.328a48.01 48.01 0 0 1-2.438.203.511.511 0 0 1-.187-.031c-.063-.027-.094-.086-.094-.172v-6.5l-1.265.234v6.704c0 .355.093.59.28.703.196.117.438.156.72.125.402-.02.843-.047 1.312-.079.465-.039.941-.085 1.422-.14.488-.059.969-.117 1.437-.172.477-.059.93-.129 1.36-.203zm.922 5.094h1.265v-11.75L9.172-10zm0 0"/></symbol><symbol overflow="visible" id="bC"><path d="M5.344-7.89c0 .386-.13.753-.375 1.093-.25.344-.582.68-.985 1a9.608 9.608 0 0 1-1.343.875c-.493.274-.989.52-1.485.734l.672.922c.777-.351 1.52-.742 2.219-1.171.695-.434 1.27-.907 1.719-1.407.3.219.629.446.984.672.352.219.719.445 1.094.672.37.219.738.434 1.093.64.364.212.708.403 1.032.579l.672-.938a49.3 49.3 0 0 1-2.172-1.218A32.023 32.023 0 0 1 6.39-6.766c.082-.164.144-.332.187-.5.04-.175.063-.351.063-.53v-.313c0-.32-.02-.602-.047-.844a3.256 3.256 0 0 0-.219-.781l-1.219.375c.04.18.082.37.125.578.04.21.063.398.063.562zM.422-1.345v1.016h11.031v-1.016zm0 0"/></symbol><symbol overflow="visible" id="bD"><path d="M9.844-3v-1.031H3.719c-.106 0-.18-.016-.219-.047-.043-.027-.063-.113-.063-.25v-1.36h6.188v-1.03H3.437v-1.72h6.25v-1.015h-7.53v5.469c0 .367.066.62.202.765.133.149.375.219.72.219zM.422-1.281v1.015h11.031V-1.28zm0 0"/></symbol></defs><g fill="#393536"><use xlink:href="#a" x="535.245" y="48.426"/><use xlink:href="#b" x="540.818" y="48.426"/><use xlink:href="#c" x="546.392" y="48.426"/></g><g fill="#4f4c4d"><use xlink:href="#d" x="336.961" y="47.727"/><use xlink:href="#e" x="344.962" y="47.727"/><use xlink:href="#f" x="352.962" y="47.727"/><use xlink:href="#g" x="360.962" y="47.727"/><use xlink:href="#h" x="368.962" y="47.727"/><use xlink:href="#i" x="371.569" y="47.727"/><use xlink:href="#j" x="379.57" y="47.727"/><use xlink:href="#k" x="387.57" y="47.727"/><use xlink:href="#l" x="395.57" y="47.727"/><use xlink:href="#m" x="403.57" y="47.727"/><use xlink:href="#n" x="411.571" y="47.727"/><use xlink:href="#d" x="419.571" y="47.727"/><use xlink:href="#e" x="427.571" y="47.727"/></g><use xlink:href="#o" x="435.571" y="47.727" fill="#231f20"/><g fill="#231f20"><use xlink:href="#p" x="438.177" y="47.727"/><use xlink:href="#q" x="446.178" y="47.727"/><use xlink:href="#r" x="454.178" y="47.727"/><use xlink:href="#s" x="462.178" y="47.727"/><use xlink:href="#t" x="470.178" y="47.727"/><use xlink:href="#u" x="478.179" y="47.727"/><use xlink:href="#v" x="486.179" y="47.727"/><use xlink:href="#w" x="494.179" y="47.727"/><use xlink:href="#x" x="496.786" y="47.727"/></g><g fill="#231f20"><use xlink:href="#y" x="501.703" y="47.727"/><use xlink:href="#z" x="506.503" y="47.727"/><use xlink:href="#A" x="508.436" y="47.727"/><use xlink:href="#w" x="511.043" y="47.727"/><use xlink:href="#B" x="513.65" y="47.727"/><use xlink:href="#C" x="517.605" y="47.727"/></g><g clip-path="url(#D)"><path d="M-610.125 410.852H611.539" fill="none" stroke-width=".499395" stroke="#cabfbb" stroke-dasharray="2.002,2.002"/></g><use xlink:href="#E" x="213.331" y="628.349" fill="#8a8e98"/><g fill="#33459a"><use xlink:href="#F" x="222.835" y="628.948"/><use xlink:href="#G" x="234.025" y="628.948"/><use xlink:href="#H" x="245.215" y="628.948"/></g><g fill="#231f20"><use xlink:href="#I" x="213.331" y="645.532"/><use xlink:href="#J" x="220.384" y="645.532"/><use xlink:href="#K" x="227.437" y="645.532"/><use xlink:href="#L" x="234.49" y="645.532"/><use xlink:href="#M" x="241.543" y="645.532"/><use xlink:href="#N" x="248.596" y="645.532"/><use xlink:href="#O" x="255.649" y="645.532"/><use xlink:href="#P" x="262.702" y="645.532"/><use xlink:href="#Q" x="269.755" y="645.532"/><use xlink:href="#R" x="272.39" y="645.532"/><use xlink:href="#S" x="279.443" y="645.532"/></g><g fill="#231f20"><use xlink:href="#I" x="213.331" y="657.934"/><use xlink:href="#T" x="220.384" y="657.934"/><use xlink:href="#U" x="227.437" y="657.934"/><use xlink:href="#V" x="234.49" y="657.934"/><use xlink:href="#P" x="241.543" y="657.934"/><use xlink:href="#W" x="248.596" y="657.934"/><use xlink:href="#X" x="255.649" y="657.934"/><use xlink:href="#Y" x="262.702" y="657.934"/><use xlink:href="#Q" x="269.755" y="657.934"/><use xlink:href="#O" x="272.39" y="657.934"/><use xlink:href="#Z" x="279.443" y="657.934"/><use xlink:href="#aa" x="286.496" y="657.934"/><use xlink:href="#ab" x="293.549" y="657.934"/><use xlink:href="#ac" x="300.602" y="657.934"/><use xlink:href="#Y" x="307.656" y="657.934"/><use xlink:href="#Q" x="314.709" y="657.934"/><use xlink:href="#ab" x="317.344" y="657.934"/><use xlink:href="#ac" x="324.397" y="657.934"/><use xlink:href="#W" x="331.45" y="657.934"/><use xlink:href="#ad" x="338.503" y="657.934"/></g><use xlink:href="#E" x="384.336" y="628.263" fill="#8a8e98"/><g fill="#33459a"><use xlink:href="#ae" x="393.84" y="628.862"/><use xlink:href="#af" x="405.03" y="628.862"/><use xlink:href="#ae" x="416.219" y="628.862"/></g><g fill="#231f20"><use xlink:href="#ag" x="384.336" y="645.446"/><use xlink:href="#ah" x="391.234" y="645.446"/><use xlink:href="#ai" x="398.132" y="645.446"/><use xlink:href="#aj" x="405.03" y="645.446"/><use xlink:href="#ak" x="411.928" y="645.446"/><use xlink:href="#al" x="418.826" y="645.446"/><use xlink:href="#am" x="421.073" y="645.446"/><use xlink:href="#an" x="422.639" y="645.446"/><use xlink:href="#ao" x="427.716" y="645.446"/><use xlink:href="#ap" x="431.971" y="645.446"/><use xlink:href="#aq" x="438.869" y="645.446"/><use xlink:href="#ar" x="445.767" y="645.446"/><use xlink:href="#al" x="452.665" y="645.446"/><use xlink:href="#as" x="454.912" y="645.446"/><use xlink:href="#at" x="461.81" y="645.446"/><use xlink:href="#au" x="468.708" y="645.446"/><use xlink:href="#ai" x="475.607" y="645.446"/></g><use xlink:href="#E" x="213.331" y="323.714" fill="#8a8e98"/><g fill="#33459a"><use xlink:href="#av" x="222.835" y="324.314"/><use xlink:href="#aw" x="234.025" y="324.314"/><use xlink:href="#ax" x="245.215" y="324.314"/></g><g fill="#231f20"><use xlink:href="#ag" x="213.331" y="340.898"/><use xlink:href="#ay" x="220.229" y="340.898"/><use xlink:href="#az" x="223.686" y="340.898"/><use xlink:href="#am" x="229.638" y="340.898"/><use xlink:href="#al" x="231.204" y="340.898"/><use xlink:href="#an" x="233.452" y="340.898"/><use xlink:href="#aA" x="238.528" y="340.898"/><use xlink:href="#aB" x="242.667" y="340.898"/><use xlink:href="#aC" x="246.721" y="340.898"/><use xlink:href="#aD" x="250.449" y="340.898"/><use xlink:href="#aE" x="254.487" y="340.898"/><use xlink:href="#aF" x="256.052" y="340.898"/><use xlink:href="#aG" x="258.137" y="340.898"/><use xlink:href="#aB" x="259.703" y="340.898"/><use xlink:href="#aH" x="263.756" y="340.898"/><use xlink:href="#aI" x="267.887" y="340.898"/><use xlink:href="#al" x="270.135" y="340.898"/><use xlink:href="#aJ" x="272.383" y="340.898"/><use xlink:href="#aK" x="279.281" y="340.898"/><use xlink:href="#ah" x="286.179" y="340.898"/><use xlink:href="#aL" x="293.077" y="340.898"/><use xlink:href="#al" x="299.975" y="340.898"/><use xlink:href="#aM" x="302.222" y="340.898"/><use xlink:href="#aN" x="309.12" y="340.898"/><use xlink:href="#aO" x="316.018" y="340.898"/><use xlink:href="#aP" x="322.916" y="340.898"/></g><g fill="#231f20"><use xlink:href="#ag" x="213.331" y="353.3"/><use xlink:href="#aQ" x="220.229" y="353.3"/><use xlink:href="#aR" x="227.127" y="353.3"/><use xlink:href="#aJ" x="234.025" y="353.3"/><use xlink:href="#aK" x="240.923" y="353.3"/><use xlink:href="#ai" x="247.821" y="353.3"/><use xlink:href="#ak" x="254.719" y="353.3"/><use xlink:href="#aS" x="261.617" y="353.3"/><use xlink:href="#al" x="268.515" y="353.3"/><use xlink:href="#aT" x="270.763" y="353.3"/><use xlink:href="#aU" x="277.661" y="353.3"/><use xlink:href="#aV" x="284.559" y="353.3"/><use xlink:href="#aW" x="291.457" y="353.3"/><use xlink:href="#aP" x="298.355" y="353.3"/></g><g fill="#231f20"><use xlink:href="#al" x="213.331" y="365.702"/><use xlink:href="#al" x="215.579" y="365.702"/><use xlink:href="#al" x="217.826" y="365.702"/><use xlink:href="#aX" x="220.074" y="365.702"/><use xlink:href="#aJ" x="223.438" y="365.702"/><use xlink:href="#aK" x="230.336" y="365.702"/><use xlink:href="#ah" x="237.234" y="365.702"/><use xlink:href="#aL" x="244.132" y="365.702"/><use xlink:href="#al" x="251.03" y="365.702"/><use xlink:href="#aM" x="253.277" y="365.702"/><use xlink:href="#aY" x="260.176" y="365.702"/><use xlink:href="#aZ" x="267.074" y="365.702"/><use xlink:href="#al" x="273.972" y="365.702"/><use xlink:href="#ba" x="276.219" y="365.702"/><use xlink:href="#aP" x="283.117" y="365.702"/><use xlink:href="#bb" x="290.015" y="365.702"/></g><use xlink:href="#E" x="384.619" y="323.714" fill="#8a8e98"/><g fill="#33459a"><use xlink:href="#av" x="394.123" y="324.314"/><use xlink:href="#bc" x="405.313" y="324.314"/><use xlink:href="#bd" x="416.503" y="324.314"/></g><g fill="#231f20"><use xlink:href="#ag" x="384.619" y="340.898"/><use xlink:href="#be" x="391.517" y="340.898"/><use xlink:href="#bf" x="393.958" y="340.898"/><use xlink:href="#bg" x="400.856" y="340.898"/><use xlink:href="#bh" x="403.29" y="340.898"/><use xlink:href="#bi" x="410.188" y="340.898"/><use xlink:href="#bj" x="417.086" y="340.898"/><use xlink:href="#ba" x="423.984" y="340.898"/><use xlink:href="#aP" x="430.882" y="340.898"/><use xlink:href="#bb" x="437.78" y="340.898"/><use xlink:href="#aW" x="444.678" y="340.898"/><use xlink:href="#al" x="451.576" y="340.898"/><use xlink:href="#bk" x="453.824" y="340.898"/><use xlink:href="#bl" x="460.722" y="340.898"/></g><use xlink:href="#al" x="467.62" y="340.898" fill="#231f20"/><use xlink:href="#ag" x="384.619" y="353.3" fill="#231f20"/><use xlink:href="#al" x="391.517" y="353.3" fill="#231f20"/><use xlink:href="#al" x="391.517" y="353.3" fill="#231f20"/><g fill="#231f20"><use xlink:href="#bm" x="391.517" y="353.3"/><use xlink:href="#bn" x="398.392" y="353.3"/><use xlink:href="#bo" x="405.266" y="353.3"/><use xlink:href="#aI" x="412.141" y="353.3"/><use xlink:href="#al" x="414.366" y="353.3"/><use xlink:href="#au" x="416.59" y="353.3"/><use xlink:href="#bp" x="423.465" y="353.3"/><use xlink:href="#au" x="430.339" y="353.3"/><use xlink:href="#bq" x="437.214" y="353.3"/><use xlink:href="#br" x="444.089" y="353.3"/><use xlink:href="#bs" x="450.964" y="353.3"/><use xlink:href="#bt" x="457.838" y="353.3"/><use xlink:href="#br" x="464.713" y="353.3"/><use xlink:href="#bo" x="471.588" y="353.3"/><use xlink:href="#aI" x="478.463" y="353.3"/><use xlink:href="#al" x="480.687" y="353.3"/><use xlink:href="#au" x="482.912" y="353.3"/><use xlink:href="#bq" x="489.786" y="353.3"/><use xlink:href="#bu" x="496.661" y="353.3"/><use xlink:href="#bv" x="503.536" y="353.3"/><use xlink:href="#bo" x="510.411" y="353.3"/><use xlink:href="#aI" x="517.285" y="353.3"/></g><use xlink:href="#al" x="519.533" y="353.3" fill="#231f20"/><g fill="#231f20"><use xlink:href="#az" x="391.517" y="364.286"/><use xlink:href="#bw" x="397.469" y="364.286"/><use xlink:href="#bx" x="402.197" y="364.286"/><use xlink:href="#aI" x="406.925" y="364.286"/><use xlink:href="#al" x="409.173" y="364.286"/><use xlink:href="#ah" x="411.42" y="364.286"/><use xlink:href="#ak" x="418.318" y="364.286"/><use xlink:href="#by" x="425.216" y="364.286"/><use xlink:href="#an" x="429.882" y="364.286"/><use xlink:href="#aS" x="434.959" y="364.286"/></g><g fill="#fff"><use xlink:href="#bz" x="40.055" y="165.5"/><use xlink:href="#bA" x="51.94" y="165.5"/><use xlink:href="#bB" x="63.826" y="165.5"/><use xlink:href="#bC" x="75.711" y="165.5"/><use xlink:href="#bD" x="87.597" y="165.5"/></g></svg>