<svg xmlns="http://www.w3.org/2000/svg" xmlns:xlink="http://www.w3.org/1999/xlink" width="793.701" height="1058.268" viewBox="0 0 595.276 793.701" version="1.2"><defs><symbol overflow="visible" id="a"><path d="M5.172-5.844h-.719V.453h.719zM1.859.453h.985l1.375-6.297h-.844L2.359-.5 1.344-5.844H.5zm4.454-6.297h-.72V.453h.72zm1.14 0H6.72V.453h.734zm0 0"/></symbol><symbol overflow="visible" id="b"><path d="M.75.047v1.016h1.031V.046zm0 0"/></symbol><symbol overflow="visible" id="d"><path d="M7.781.375v-.656H4.406v-2.016h2.532v-.625H2.016v-2.64h4.843v-.641H1.281v3.906h2.36V-.28H.28v.656zm0 0"/></symbol><symbol overflow="visible" id="e"><path d="M4.031-3.703c.903 0 1.61-.133 2.11-.406.507-.278.765-.641.765-1.079 0-.433-.258-.796-.765-1.078-.5-.277-1.207-.421-2.11-.421-.906 0-1.617.144-2.125.421-.5.282-.75.637-.75 1.063 0 .45.25.816.75 1.094.508.273 1.219.406 2.125.406zm0-.563c-.617 0-1.117-.082-1.5-.25-.386-.164-.578-.394-.578-.687 0-.29.188-.516.563-.672.382-.164.89-.25 1.515-.25.59 0 1.082.086 1.469.25.395.156.594.387.594.688 0 .28-.196.507-.578.671-.387.168-.883.25-1.485.25zm3.735 1.907V-3H.28v.64h3.344v.97H1.281V1.28h5.5V-1.39H4.406v-.968zM6.03.64H2.016V-.75H6.03zm0 0"/></symbol><symbol overflow="visible" id="f"><path d="M4.453-5.703H6.86v-.64H1.203v.64H3.61a1.592 1.592 0 0 1-.28.781 2.65 2.65 0 0 1-.657.625 4.407 4.407 0 0 1-.938.484c-.355.137-.73.247-1.125.329.09.093.192.195.297.296.102.106.192.196.266.266.3-.07.598-.164.89-.281.301-.121.583-.27.844-.438.239-.144.453-.304.64-.484.196-.184.36-.398.485-.64.145.28.336.535.578.75.246.21.516.382.797.515.246.148.504.27.766.36.258.093.504.167.734.218a10.541 10.541 0 0 1 .516-.562 6.363 6.363 0 0 1-.984-.266 3.935 3.935 0 0 1-.891-.438 2.91 2.91 0 0 1-.75-.64c-.2-.258-.317-.55-.344-.875zm3.313 4.187v-.625H.28v.625h3.39V1.36h.782v-2.875zm0 0"/></symbol><symbol overflow="visible" id="g"><path d="M7.125-.75v-5.875h-.75V-.75zM3.219-5.438v-1h-.781v1c0 .344-.06.668-.172.97a2.83 2.83 0 0 1-.422.78c-.211.274-.457.512-.735.72-.28.198-.586.37-.906.515.102.086.219.18.344.281.121.094.223.176.297.235.207-.102.41-.227.61-.375.206-.145.398-.305.577-.485.176-.164.332-.351.469-.562.145-.207.254-.422.328-.641.102.219.238.43.406.625.164.188.344.363.532.516.175.148.359.277.546.39.184.117.368.215.547.297a6.792 6.792 0 0 1 .516-.578 3.319 3.319 0 0 1-1.516-1.031 2.687 2.687 0 0 1-.468-.75 2.312 2.312 0 0 1-.172-.907zm4.125 6.641v-.64h-4.75v-1.938h-.766v2.578zm0 0"/></symbol><symbol overflow="visible" id="h"><path d="M6.797-3.344v-3.203h-.75v.984H2v-.984h-.734v3.203zm-.75-.64H2v-.97h4.047zm1.719 2.109v-.64H.28v.64h3.485v1.719h.75v-1.719zm-.704 3.078v-.64H2.016V-1.11H1.28v2.312zm0 0"/></symbol><symbol overflow="visible" id="i"><path d="M6.875-3.984v-.594H2.031v-1.234h4.75v-.594h-5.5v2.422zm.89 1.312v-.61H.282v.61zm-.812 3.969V.703H2.11v-.75h4.672v-1.89h-5.5v.593h4.672v.719H1.281v1.922zm0 0"/></symbol><symbol overflow="visible" id="j"><path d="M7.11-.75v-5.875h-.75V-.75zM.61-4.406c0 .281.05.554.156.812.101.25.242.477.421.672.196.18.422.324.672.438.258.117.551.171.875.171.301 0 .582-.054.844-.171.258-.114.485-.258.672-.438.184-.195.332-.422.438-.672a2.21 2.21 0 0 0 .156-.812c0-.29-.055-.563-.157-.813a2.292 2.292 0 0 0-.437-.687 2.083 2.083 0 0 0-.672-.438 2.102 2.102 0 0 0-.844-.172c-.324 0-.617.059-.875.172-.25.106-.476.254-.671.438-.18.199-.32.43-.422.687-.106.25-.157.524-.157.813zm.765 0c0-.403.113-.75.344-1.032.238-.289.578-.437 1.015-.437.426 0 .758.148 1 .438.239.28.36.628.36 1.03 0 .4-.121.739-.36 1.016-.242.282-.574.422-1 .422-.437 0-.777-.14-1.015-.422-.23-.277-.344-.617-.344-1.015zm5.969 5.61V.562H2.562v-1.985h-.75v2.625zm0 0"/></symbol><symbol overflow="visible" id="k"><path d="M6.781-4.016v-2.39H1.266v2.39zm-.734-.593H2v-1.204h4.047zm1.719 1.875v-.61H.28v.61h3.344v.796H1.281v.594h4.672v.719H1.281v1.922h5.672V.703H2.11v-.75h4.672v-1.89H4.406v-.797zm0 0"/></symbol><symbol overflow="visible" id="l"><path d="M4.438-5.656v-.657h-.813v.657c0 .355-.086.695-.25 1.015a3.377 3.377 0 0 1-.64.875 4.663 4.663 0 0 1-.985.72c-.375.21-.77.378-1.172.5.113.116.219.226.313.327.101.094.191.184.265.266.301-.102.598-.238.89-.406.29-.164.563-.348.813-.547a4.4 4.4 0 0 0 .688-.688c.195-.246.36-.508.484-.781.114.273.274.54.485.797.207.25.445.48.718.687.27.22.551.414.844.579.29.156.567.277.828.359.07-.09.157-.188.25-.281.09-.102.192-.204.297-.297a4.6 4.6 0 0 1-1.078-.438 4.765 4.765 0 0 1-.953-.719 3.478 3.478 0 0 1-.719-.921 2.217 2.217 0 0 1-.266-1.047zM7.78.359v-.64H4.406v-2.016h-.765V-.28H.28v.64zm0 0"/></symbol><symbol overflow="visible" id="m"><path d="M7.203 1.375v-8h-.75v2.969h-1V-6.5H4.72V.984h.734v-3.921h1v4.312zM.781-6.063v.641h2.25c-.023.461-.09.899-.203 1.313a5.194 5.194 0 0 1-.453 1.156A6.445 6.445 0 0 1 1.5-1.781a6.913 6.913 0 0 1-1.219.984c.102.063.223.137.36.219.144.086.257.164.343.234a7.75 7.75 0 0 0 1.25-1.14c.364-.426.672-.91.922-1.454.184-.425.332-.894.438-1.406a9.83 9.83 0 0 0 .203-1.718zm0 0"/></symbol><symbol overflow="visible" id="n"><path d="M3.422-7.313a.124.124 0 0 0-.031-.078.119.119 0 0 0-.079-.062.133.133 0 0 0-.078 0 .589.589 0 0 0-.078.047l-1.844.828a.934.934 0 0 0-.218.078c-.086.043-.125.102-.125.172 0 .043.008.082.031.11a.143.143 0 0 0 .094.03c.05 0 .113-.015.187-.046.07-.028.133-.051.188-.063l.687-.312c.051-.02.102-.04.156-.063a.364.364 0 0 1 .172-.047c.07 0 .118.024.141.063.02.043.031.097.031.156v5.078c0 .367-.043.617-.125.75-.074.125-.316.188-.719.188-.25 0-.414.011-.484.03-.074.013-.11.052-.11.11 0 .063.016.106.048.125.027.024.082.032.156.032h3.094c.058 0 .109-.008.14-.032.028-.02.047-.054.047-.11 0-.058-.02-.1-.047-.124a.278.278 0 0 0-.14-.031h-.329c-.375 0-.601-.079-.671-.235-.063-.164-.094-.41-.094-.734zm0 0"/></symbol><symbol overflow="visible" id="o"><path d="M1.672.344c-.012.02-.008.031.016.031.019.008.035.016.046.016h.172c.082 0 .13-.028.14-.079.02-.042.052-.105.095-.187l3.125-7.047c.02-.027.039-.066.062-.11a.385.385 0 0 0 .031-.124c0-.082-.054-.125-.156-.125C5.11-7.29 5.04-7.297 5-7.297H.5c-.074 0-.121.024-.14.063a.329.329 0 0 0-.032.156l.047.61c.008.011.016.042.016.093.007.055.03.078.062.078.02 0 .04-.004.063-.016l.046-.046c.114-.028.204-.051.266-.063.07-.008.164-.016.281-.016h3.235c.05 0 .097.012.14.032.051.023.079.066.079.125 0 .031-.02.082-.047.14a.712.712 0 0 0-.063.157zm0 0"/></symbol><symbol overflow="visible" id="p"><path d="M1.875-1.047h-.203c-.117 0-.172-.02-.172-.062 0-.04.031-.102.094-.188.058-.09.11-.156.14-.187L3.656-3.36c.34-.301.66-.633.953-1 .29-.371.438-.805.438-1.297 0-.559-.227-1-.672-1.313a2.416 2.416 0 0 0-1.453-.484c-.375 0-.723.066-1.031.187-.313.125-.598.34-.844.641a6.377 6.377 0 0 1-.219.328c-.117.168-.172.293-.172.375 0 .031.008.059.031.078.02.024.047.032.079.032.05 0 .093-.024.125-.079.039-.05.07-.093.093-.125.153-.3.375-.55.657-.75.277-.207.597-.312.953-.312.445 0 .812.144 1.094.422.277.281.421.644.421 1.078 0 .555-.23 1.121-.687 1.703-.45.574-.852 1.059-1.203 1.453L.703-.594a.789.789 0 0 1-.094.156.3.3 0 0 0-.062.157c0 .074.047.11.14.11.09-.009.165-.016.22-.016h3.968a.406.406 0 0 0 .188-.032c.039-.027.062-.082.062-.156v-1.328-.156c0-.059-.043-.094-.125-.094-.063 0-.102.035-.11.094-.011.054-.023.105-.03.156-.032.293-.114.476-.235.547-.125.074-.336.11-.625.11zm0 0"/></symbol><symbol overflow="visible" id="q"><path d="M8.078-3.234l.031 3.14c0 .34.004.672.016.985.02.32.047.601.078.843.05.246.11.446.172.594.07.145.164.211.281.203.246 0 .457-.32.625-.953.176-.637.258-1.476.25-2.516L9.5-3.25c.457 0 .875.008 1.25.016.371.011.703.023.984.03a5.63 5.63 0 0 0 1.125-.015c.352-.05.536-.207.547-.469.008-.164-.097-.296-.312-.39a2.898 2.898 0 0 0-.813-.188 6.34 6.34 0 0 0-1.047.032 4.575 4.575 0 0 0-.984.218c-.125.055-.34.09-.64.11-.305.011-.637.023-1 .031H7.593c-.336-.008-.582-.016-.735-.016H2.875a7.608 7.608 0 0 1-.656-.046 21.89 21.89 0 0 1-.547-.032c-.168-.02-.356-.039-.563-.062a1.941 1.941 0 0 0-.546.047c-.149.03-.243.082-.282.14-.054.063-.047.145.016.235.07.086.223.175.453.265.559.262 1.004.43 1.328.5.332.063.602.078.813.047.207-.02.382-.066.53-.14.153-.083.352-.133.595-.157h.046a.83.83 0 0 0 .141-.015L4.22-.391c0 .344.004.672.015.985.008.32.036.601.079.844.05.246.109.445.171.593.07.145.164.211.282.203.246 0 .457-.32.625-.953.175-.636.257-1.476.25-2.531l-.016-1.938c.238-.007.504-.019.797-.03.289-.009.613-.016.969-.016zm.672-4.688c0 .531-.191.977-.563 1.328-.374.344-.804.516-1.28.516-.5 0-.934-.172-1.298-.516-.367-.351-.546-.797-.546-1.328 0-.527.18-.969.546-1.312a1.807 1.807 0 0 1 1.297-.532c.477 0 .907.18 1.282.532.37.343.562.785.562 1.312zm1.438.016c0-.52-.133-.946-.391-1.282a3.13 3.13 0 0 0-.844-.765 3.463 3.463 0 0 0-.86-.36c-.25-.058-.374-.097-.374-.109a.231.231 0 0 1 .015-.156c.02-.04.036-.078.047-.11a.44.44 0 0 0-.063-.281c-.073-.07-.206-.129-.39-.172a2.06 2.06 0 0 0-.562-.078 1.798 1.798 0 0 0-.516.047c-.156.043-.234.121-.234.235 0 .03.02.066.062.093.04.031.082.059.125.078.04.043.067.09.078.141.008.055-.027.117-.11.188 0 .011-.136.054-.405.124a3.419 3.419 0 0 0-.875.376c-.313.18-.606.433-.875.765-.262.324-.391.746-.391 1.266 0 .43.094.816.281 1.156.184.336.438.621.75.86.301.242.649.43 1.047.562.395.125.797.187 1.203.187.403 0 .801-.062 1.188-.187.394-.133.75-.32 1.062-.563.301-.238.547-.523.735-.859.195-.34.296-.727.296-1.156zm0 0"/></symbol><symbol overflow="visible" id="s"><path d="M8.563-.25c0 .477-.168.879-.5 1.203a1.61 1.61 0 0 1-1.172.485A1.62 1.62 0 0 1 5.703.953 1.635 1.635 0 0 1 5.22-.25c0-.477.16-.879.484-1.203.32-.332.719-.5 1.188-.5.457 0 .847.168 1.171.5.333.324.5.726.5 1.203zm1.421.031c0-.508-.129-.914-.375-1.218a3.008 3.008 0 0 0-.812-.72 3.687 3.687 0 0 0-.828-.312c-.242-.058-.36-.097-.36-.11 0-.058.008-.108.032-.14a.42.42 0 0 0 .046-.094.114.114 0 0 0 .016-.093.563.563 0 0 0-.062-.188c-.055-.058-.168-.113-.344-.156a2.011 2.011 0 0 0-.547-.078 1.28 1.28 0 0 0-.484.062c-.149.043-.22.114-.22.204 0 .042.016.082.048.109a.528.528 0 0 0 .11.094.23.23 0 0 1 .077.109c.008.043-.02.102-.078.172 0 .012-.129.05-.375.11-.25.054-.527.16-.828.312-.313.168-.598.41-.844.719-.242.304-.36.71-.36 1.218 0 .364.083.703.25 1.016.165.32.391.594.673.812.289.227.625.407 1 .532.37.12.765.187 1.172.187.394 0 .78-.066 1.156-.187.371-.125.703-.305.984-.532A2.72 2.72 0 0 0 9.72.797c.176-.313.265-.652.265-1.016zM8.672-8.25c0 .512-.184.918-.547 1.219a1.906 1.906 0 0 1-1.219.437c-.468 0-.886-.144-1.25-.437-.355-.301-.531-.707-.531-1.219 0-.246.047-.477.14-.688.102-.207.243-.378.423-.515.152-.152.335-.27.546-.344a1.88 1.88 0 0 1 .672-.125c.446 0 .852.16 1.219.469.363.305.547.707.547 1.203zM9.5-4.453l.094-.844c.008-.113.023-.223.047-.328.027-.102.046-.195.046-.281a.5.5 0 0 0-.062-.235.625.625 0 0 0-.25-.203h-.063a.084.084 0 0 0-.046-.015c-.024-.008-.043-.016-.063-.016a.084.084 0 0 0-.047-.016c.278-.214.504-.476.672-.78.176-.31.266-.673.266-1.079 0-.488-.13-.883-.375-1.188a3.008 3.008 0 0 0-.813-.718 3.296 3.296 0 0 0-.828-.328c-.242-.051-.36-.082-.36-.094-.011-.07-.007-.125.016-.156.02-.04.036-.079.047-.11a.44.44 0 0 0-.063-.281c-.073-.059-.206-.113-.39-.156a2.645 2.645 0 0 0-.562-.094c-.188 0-.364.027-.516.078-.156.043-.234.117-.234.219 0 .031.02.066.062.094.04.023.082.05.125.078.04.043.067.086.078.125.008.043-.027.101-.11.172 0 .023-.132.058-.39.109a2.846 2.846 0 0 0-.843.344 2.72 2.72 0 0 0-.86.703c-.25.305-.375.707-.375 1.203 0 .45.102.84.313 1.172.207.336.484.605.828.812-.18-.007-.352-.02-.516-.03-.168-.009-.293-.016-.375-.016-.398.042-.617.136-.656.28-.043.137.066.239.328.298.195.043.367.113.516.203a.526.526 0 0 1 .265.422v.125c0 .074.004.152.016.234v.234a.884.884 0 0 0 .016.094H3.75a27.203 27.203 0 0 1-1.578-.047c-.211-.02-.41-.035-.594-.047-.18-.02-.379-.035-.594-.046a2.408 2.408 0 0 0-.53.03c-.15.032-.247.087-.298.157-.043.063-.031.145.032.234.07.086.222.18.453.282.59.261 1.054.43 1.39.5.34.074.617.093.828.062.207-.027.383-.082.532-.156.152-.07.343-.117.562-.14.027 0 .32-.024.875-.079.559-.05 1.422-.082 2.578-.094h2.657c.351 0 .675.008.968.016.29.012.563.023.813.031.195.024.394.031.594.031.207-.007.39-.03.546-.062.153-.027.286-.078.391-.14a.403.403 0 0 0 .172-.313c.008-.176-.102-.313-.328-.406a2.595 2.595 0 0 0-.844-.204 5.575 5.575 0 0 0-1.063.047 5.5 5.5 0 0 0-1 .204 1.077 1.077 0 0 1-.312.078 3.266 3.266 0 0 1-.5.03zm-3.688.031l-.03-.797a.684.684 0 0 1-.016-.156 2.24 2.24 0 0 1 .03-.172v-.14c.009-.051.016-.102.016-.157.176.063.352.106.532.125.183.024.375.032.562.032.164 0 .344-.008.532-.032.183-.02.367-.054.546-.11.059.063.114.138.157.22.039.086.062.183.062.296l-.094.891zm0 0"/></symbol><symbol overflow="visible" id="t"><path d="M6.39-6c0 .406-.152.738-.452.984-.293.25-.606.375-.938.375A1.47 1.47 0 0 1 4.031-5c-.281-.238-.422-.57-.422-1 0-.383.141-.703.422-.953.29-.258.614-.39.969-.39.332 0 .645.132.938.39.3.25.453.57.453.953zm-.218-3.734c.238-.008.426-.063.562-.157.133-.09.204-.187.204-.28 0-.102-.083-.196-.235-.282-.148-.082-.394-.133-.734-.156-.262 0-.489-.004-.672-.016a14.4 14.4 0 0 1-.531-.063 13.53 13.53 0 0 1-.97-.14c-.355-.059-.605-.04-.75.062-.136.106-.077.243.173.407.277.21.523.37.734.484.215.105.422.164.61.172.226.012.468.015.718.015.246 0 .547-.015.89-.046zM11.422.687a8.363 8.363 0 0 0-.406-.03c-.157 0-.317.003-.47.015-.155.008-.3.031-.421.062a.778.778 0 0 0-.281.11c-.149.101-.32.164-.516.187-.2.02-.371.032-.515.032l-2.657.03A.566.566 0 0 1 5.844 1c-.094-.063-.14-.176-.14-.328v-.938c0-.132.003-.257.015-.375a1.75 1.75 0 0 0 .031-.28.376.376 0 0 0-.125-.235c-.063-.059-.184-.102-.36-.125-.21-.028-.48-.051-.812-.063a5.79 5.79 0 0 0-.828 0c-.313.043-.523.098-.625.157-.105.062-.148.132-.125.203.027.054.098.113.203.171.102.063.211.106.328.125.301.063.516.149.64.25.134.094.204.27.204.516v.61c0 .476.148.785.453.921.3.133.645.204 1.031.204l5.563-.063c.226 0 .414-.043.562-.125.145-.086.227-.191.25-.313.02-.117-.027-.238-.14-.359-.106-.117-.29-.207-.547-.265zm-.516-5.234h2.156c.239 0 .426-.039.563-.125.145-.082.227-.18.25-.297.02-.12-.027-.242-.14-.36-.106-.112-.29-.202-.547-.265a4.99 4.99 0 0 0-.75-.031c-.282 0-.461.043-.532.125a.886.886 0 0 1-.453.234c-.187.032-.371.059-.547.079l-.015-4.563c0-.184.007-.348.03-.484.028-.145.048-.274.048-.391a.564.564 0 0 0-.047-.281c-.031-.082-.117-.156-.25-.219-.117-.027-.258-.066-.422-.11a9.998 9.998 0 0 0-.516-.109c-.187-.027-.355-.054-.5-.078a4.005 4.005 0 0 1-.28-.047c-.481-.027-.743.043-.782.219-.031.168.098.316.39.438.34.148.594.285.75.406.153.125.235.347.235.656l.047 6.344c-.492.086-1.086.164-1.781.234-.7.074-1.403.137-2.11.188v-.891a2.959 2.959 0 0 0 1.438-.688c.414-.351.625-.812.625-1.375 0-.425-.114-.769-.329-1.03a2.417 2.417 0 0 0-.687-.595 2.809 2.809 0 0 0-.719-.28c-.21-.04-.312-.067-.312-.079 0-.05.008-.094.031-.125.02-.039.04-.082.063-.125a.19.19 0 0 0 0-.094c0-.039-.028-.093-.079-.156.528 0 1.04.008 1.532.016.496 0 .879.008 1.14.015.145 0 .27-.023.375-.078.114-.058.18-.133.203-.219.028-.082.008-.171-.062-.265-.063-.102-.192-.195-.375-.281a3.089 3.089 0 0 0-.922-.14 4.57 4.57 0 0 0-.61.015c-.21.023-.402.066-.577.125a2.196 2.196 0 0 1-.61.14c-.25.024-.523.043-.812.063-.293.011-.582.015-.86.015-.281 0-.52-.004-.703-.015a13.11 13.11 0 0 1-1.844-.11 4.69 4.69 0 0 0-.468 0c-.149.012-.258.043-.329.094-.062.055-.07.129-.015.219.058.086.223.191.484.312.403.22.727.356.969.407.238.054.445.062.625.03.164-.026.316-.077.453-.14.145-.058.32-.101.531-.125h.063a.277.277 0 0 0 .094-.015h.078a.43.43 0 0 0 .11-.016c0 .043.015.082.046.11a1.2 1.2 0 0 0 .11.078c.027.03.05.07.062.109.008.043-.008.09-.047.14-.012.012-.133.04-.36.079-.218.043-.46.136-.718.28-.274.138-.52.337-.735.595-.218.261-.328.605-.328 1.03 0 .563.204 1.028.61 1.391.402.356.89.586 1.453.688v.969c-.324.031-.637.054-.938.062h-.78c-.274 0-.54-.004-.798-.015a6.275 6.275 0 0 1-.703-.063c-.312-.02-.539-.004-.672.047-.136.043-.21.102-.219.172-.011.086.036.18.141.281.113.106.266.207.453.297.465.23.844.379 1.125.438.29.062.535.078.735.046.207-.007.39-.05.546-.125.153-.082.333-.144.532-.187.351-.02.773-.055 1.265-.11.496-.05 1.02-.113 1.563-.187.539-.082 1.078-.164 1.61-.25.538-.082 1.023-.164 1.452-.25v.438c0 .542.024 1.023.079 1.437.05.406.18.605.39.594.227 0 .426-.25.594-.75.164-.508.25-1.172.25-1.985zm0 0"/></symbol><symbol overflow="visible" id="u"><path d="M8.422-4.016H7.219L7.203-7.28c0-.133.004-.258.016-.375.02-.121.035-.227.047-.313a.343.343 0 0 0-.047-.218c-.032-.07-.102-.13-.203-.172a2.665 2.665 0 0 0-.313-.094 2.955 2.955 0 0 0-.406-.094 9.805 9.805 0 0 0-.375-.047 1.36 1.36 0 0 1-.219-.047c-.375-.02-.582.04-.61.172-.023.137.079.254.298.344.27.117.46.227.578.328.12.106.187.277.187.516l.032 4.234c-.243.094-.504.18-.782.25a16.454 16.454 0 0 1-1.61.36c-.25.042-.464.07-.64.078a.414.414 0 0 1-.265-.047c-.063-.04-.094-.13-.094-.266v-3.422h1.047c.215 0 .43-.004.64-.015.215-.008.383-.02.5-.032a.9.9 0 0 0 .422-.156c.102-.082.16-.172.172-.266.02-.082-.012-.164-.094-.25-.086-.082-.21-.132-.375-.156a3.983 3.983 0 0 0-.75-.015c-.25.011-.46.074-.625.187a.504.504 0 0 1-.218.11 1.01 1.01 0 0 1-.266.03c-.086 0-.168-.003-.25-.015a1.552 1.552 0 0 1-.188-.031c-.28-.04-.585-.07-.906-.094-.312-.027-.55-.035-.703-.016-.21.043-.355.09-.437.141-.075.055-.102.113-.079.172.008.055.047.102.11.14a.589.589 0 0 0 .219.094c.12.032.226.067.312.094.09.024.164.05.219.078a.267.267 0 0 1 .125.157.633.633 0 0 1 .047.25v3.343c0 .375.066.617.203.719.144.105.379.156.703.156.258 0 .54-.031.844-.093.308-.06.629-.141.953-.235.32-.101.633-.21.937-.328.301-.121.582-.25.844-.375V.296c.008.259.031.49.063.688.02.196.054.352.109.47.059.112.14.171.234.171.184 0 .336-.258.454-.766.12-.511.187-1.18.187-2.015l-.031-2.219h1.203l.031 3.297v.797c.008.258.031.484.063.672.02.195.054.351.109.468.05.114.125.172.219.172.195 0 .351-.258.469-.765.12-.512.18-1.184.171-2.016l-.046-7.047c0-.144.007-.273.03-.39.02-.114.036-.22.048-.313a.546.546 0 0 0-.047-.219c-.031-.07-.102-.129-.203-.172a2.665 2.665 0 0 0-.313-.093c-.137-.028-.273-.063-.406-.094-.149-.02-.277-.035-.39-.047a2.527 2.527 0 0 1-.22-.047c-.375-.02-.582.04-.609.172-.023.137.082.254.313.344.27.125.46.242.578.344.12.093.187.269.187.515zm0 0"/></symbol><symbol overflow="visible" id="v"><path d="M9.219-7.61c0-.144-.086-.253-.25-.327a2.132 2.132 0 0 0-.578-.157 5.158 5.158 0 0 0-.72.031c-.25.024-.46.07-.624.141-.074.024-.258.043-.547.063-.281.011-.59.015-.922.015-.344.012-.668.016-.969.016H3.438c-.157-.008-.305-.02-.438-.031a2.691 2.691 0 0 0-.375-.032c-.117-.007-.238-.02-.36-.03-.304 0-.503.05-.593.14-.086.093.023.226.328.39.352.211.64.34.86.391.226.055.413.074.562.063a.975.975 0 0 0 .36-.11c.1-.058.21-.101.327-.125.02 0 .11-.004.266-.016.152-.007.344-.019.563-.03.226-.02.472-.036.734-.048.258-.007.504-.015.734-.015.278 0 .555.008.828.015.27 0 .567.008.891.016.258.023.504.016.734-.016.227-.039.348-.156.36-.343zM7.594-.686l.125-1.391c0-.09.008-.18.031-.266.02-.082.035-.156.047-.219 0-.07-.02-.132-.047-.187-.031-.059-.105-.113-.219-.156a5.876 5.876 0 0 0-.281-.063 2.775 2.775 0 0 0-.344-.062 6.621 6.621 0 0 0-.328-.047 1.489 1.489 0 0 0-.234-.031c-.336 0-.528.054-.578.156-.043.105.039.2.25.281.152.055.289.121.406.203.121.086.176.211.156.375l-.11 1.438H4.61l-.046-1.36c0-.082.003-.164.015-.25a.692.692 0 0 0 .016-.234.3.3 0 0 0-.063-.172.467.467 0 0 0-.234-.125c-.168-.02-.387-.039-.656-.062a9.067 9.067 0 0 0-.579-.032c-.335.032-.519.106-.546.22-.032.116.062.194.28.233.165.032.313.086.438.157a.433.433 0 0 1 .204.36l.046 1.265H2.312c-.199-.008-.378-.02-.53-.031-.157-.008-.305-.02-.438-.032A6.525 6.525 0 0 0 .89-.766a1.667 1.667 0 0 0-.438.032.543.543 0 0 0-.234.109c-.043.055-.04.117.015.188.059.074.188.148.375.218.446.211.801.336 1.063.39.258.052.473.067.64.048.165-.024.305-.067.422-.125.121-.055.282-.09.47-.11h.187c.113-.007.28-.023.5-.046l.843-.032c.332-.02.727-.031 1.188-.031H8.75c.227 0 .441.008.64.016.32.023.618.015.891-.016.278-.04.43-.16.453-.36 0-.132-.09-.238-.265-.312a2.002 2.002 0 0 0-.64-.156 4.109 4.109 0 0 0-.845.031c-.293.031-.554.09-.78.172a.95.95 0 0 1-.25.047 3.337 3.337 0 0 1-.36.015zm-2.938-4.25a2.04 2.04 0 0 0-.172-.422 4.79 4.79 0 0 0-.265-.5c-.106-.153-.211-.301-.313-.438a7.112 7.112 0 0 0-.234-.312c-.219-.239-.402-.317-.547-.235-.137.086-.14.246-.016.485.133.336.227.668.282 1 .058.336.113.636.156.906.02.21.098.355.234.437.145.086.305.094.485.032a.571.571 0 0 0 .359-.297c.082-.145.09-.364.031-.657zm1.64 1.046c-.25.012-.507.024-.765.032H3.766c-.211.011-.399.011-.563 0-.156-.008-.3-.02-.422-.032a8.068 8.068 0 0 1-.375-.03 5.41 5.41 0 0 0-.36-.017c-.304 0-.503.051-.593.141-.086.086.024.211.328.375.352.219.645.356.875.406.227.055.414.07.563.047.133-.02.254-.054.36-.11a1.48 1.48 0 0 1 .312-.14h.296c.176-.008.391-.023.641-.047.246-.007.516-.02.797-.03.277-.009.535-.017.766-.017h.968c.371 0 .723.008 1.047.016.246.024.489.016.719-.015.238-.04.363-.157.375-.344 0-.153-.086-.27-.25-.344a1.922 1.922 0 0 0-.594-.14 3.891 3.891 0 0 0-.734.015c-.25.031-.465.086-.64.156 0 .012-.009.016-.016.016H7.25c0 .012-.008.015-.016.015h-.03l.687-1.937A1.21 1.21 0 0 1 8-6.125a.537.537 0 0 0 .063-.219A.3.3 0 0 0 8-6.516a.728.728 0 0 0-.234-.187 5.976 5.976 0 0 0-.579-.172 7.884 7.884 0 0 0-.53-.14c-.356-.051-.56-.012-.61.109-.043.117.035.222.234.312.153.094.274.192.36.282.09.085.129.207.109.359zm0 0"/></symbol><symbol overflow="visible" id="w"><path d="M5.156-4.438c0 .47-.144.864-.422 1.172-.28.305-.644.454-1.078.454-.437 0-.804-.149-1.094-.454-.28-.308-.421-.703-.421-1.171 0-.458.14-.844.421-1.157.29-.32.657-.484 1.094-.484.434 0 .797.164 1.078.484.278.313.422.7.422 1.157zm1.14 0c0-.457-.1-.828-.296-1.109-.2-.289-.426-.516-.672-.672a3.014 3.014 0 0 0-.703-.328 2.706 2.706 0 0 1-.344-.11c0-.05.004-.093.016-.124a.274.274 0 0 1 .047-.11v-.093a.475.475 0 0 0-.047-.141c-.043-.07-.137-.129-.281-.172a1.44 1.44 0 0 0-.47-.078c-.155-.008-.3.008-.421.047-.125.043-.188.117-.188.219 0 .054.008.097.032.125.027.023.062.05.094.078.027.031.046.07.046.11.008.042-.007.089-.046.14 0 .011-.114.05-.329.11-.218.054-.46.16-.718.312-.25.168-.489.398-.704.687-.21.281-.312.66-.312 1.125 0 .375.078.711.234 1 .153.293.36.543.61.75.238.2.515.356.828.469.32.105.648.156.984.156.309 0 .625-.05.938-.156.308-.113.597-.27.86-.469.245-.207.452-.457.609-.75.152-.3.234-.64.234-1.015zm1.876-3.359l.047 7.719v.797c.008.258.031.484.062.672.028.195.07.351.125.468.051.114.125.172.219.172.207 0 .367-.258.484-.765.121-.512.18-1.184.172-2.016l-.047-7.047c0-.144.008-.273.032-.39.027-.114.046-.22.046-.313a.44.44 0 0 0-.03-.219c-.032-.07-.106-.129-.22-.172-.085-.027-.195-.062-.328-.093-.136-.028-.273-.063-.406-.094-.148-.02-.285-.035-.406-.047a1.36 1.36 0 0 1-.219-.047c-.387-.02-.598.04-.625.172-.031.137.067.254.297.344.277.125.484.242.61.344.12.093.187.269.187.515zm0 0"/></symbol><symbol overflow="visible" id="x"><path d="M8.688-3.922l-.032-3.875c0-.144.008-.273.031-.39.028-.114.047-.22.047-.313a.546.546 0 0 0-.046-.219c-.024-.07-.09-.129-.204-.172-.086-.027-.195-.062-.328-.093-.136-.028-.273-.063-.406-.094-.156-.02-.293-.035-.406-.047a2.338 2.338 0 0 1-.235-.047c-.375-.02-.582.04-.609.172-.031.137.066.254.297.344.277.125.484.242.61.344.12.093.187.269.187.515L7.64-.078v.797c.007.258.03.484.062.672.027.195.07.351.125.468.05.114.125.172.219.172.207 0 .367-.258.484-.765.121-.512.18-1.184.172-2.016l-.015-2.656h1.718a.963.963 0 0 0 .453-.094.422.422 0 0 0 .204-.25c.007-.09-.036-.188-.126-.281-.085-.09-.226-.164-.421-.219a4.598 4.598 0 0 0-.625-.016c-.22 0-.364.036-.422.094a.627.627 0 0 1-.36.188c-.148.03-.289.054-.421.062zM3.516-4.14c.132.137.296.309.484.516.195.2.39.402.578.61l.563.609.421.453c.153.168.305.285.454.344.152.062.273.086.359.062.102-.027.164-.101.188-.219.019-.12-.02-.289-.11-.5-.043-.07-.121-.21-.234-.421a2.805 2.805 0 0 0-.39-.563.821.821 0 0 0-.173-.11 1.86 1.86 0 0 1-.156-.062.459.459 0 0 1-.172-.031.838.838 0 0 1-.203-.125 1.496 1.496 0 0 1-.219-.14c-.093-.083-.199-.18-.312-.298-.125-.101-.258-.21-.39-.328a6.32 6.32 0 0 1-.36-.343c.176-.29.336-.583.484-.875.152-.29.3-.594.438-.907.09-.164.144-.304.156-.422.02-.12-.074-.254-.281-.39a3.313 3.313 0 0 0-.313-.157 2.927 2.927 0 0 0-.406-.156 3.014 3.014 0 0 0-.375-.125 1.128 1.128 0 0 0-.281-.062c-.356-.02-.54.027-.547.14-.012.118.125.246.406.391.113.063.195.121.25.172a.494.494 0 0 1 .125.172.523.523 0 0 1-.016.203c-.011.062-.035.148-.062.25-.149.48-.34.96-.578 1.437-.242.48-.504.93-.781 1.344-.274.43-.555.817-.844 1.156a6.92 6.92 0 0 1-.797.797C.316-1.645.258-1.57.25-1.5c0 .063.023.113.078.14.059.032.149.04.266.016.12-.02.265-.082.422-.187.488-.301.941-.68 1.359-1.14.414-.466.797-.958 1.14-1.47zm0 0"/></symbol><symbol overflow="visible" id="y"><path d="M4.688-3.125c0-.434-.051-.832-.141-1.188a3.361 3.361 0 0 0-.39-.921 1.998 1.998 0 0 0-.641-.579 1.63 1.63 0 0 0-.829-.218 1.61 1.61 0 0 0-.828.218 1.95 1.95 0 0 0-.625.579c-.18.261-.316.57-.406.921a5.083 5.083 0 0 0-.125 1.188c0 .438.04.84.125 1.203.09.356.227.66.406.906.176.25.383.45.625.594.246.137.524.203.829.203.3 0 .578-.066.828-.203.246-.144.46-.344.64-.594.164-.257.297-.566.39-.921.09-.352.141-.75.141-1.188zM7.14 1.25v-7.89h-.657v7.89zM4.047-3.14c0 .324-.035.628-.094.906a2.512 2.512 0 0 1-.25.718A1.522 1.522 0 0 1 3.281-1a.988.988 0 0 1-.578.172A.971.971 0 0 1 2.125-1a1.447 1.447 0 0 1-.422-.5 2.54 2.54 0 0 1-.266-.734 4.138 4.138 0 0 1-.093-.907c0-.3.031-.586.093-.859.06-.277.149-.531.266-.75.113-.207.254-.367.422-.484a.957.957 0 0 1 .578-.188c.215 0 .41.067.578.188.164.117.305.277.422.484.113.219.195.473.25.75.059.273.094.559.094.86zm0 0"/></symbol><symbol overflow="visible" id="z"><path d="M7.375 1.078V.531H2.453v-1.953h-.656v2.5zM7.172-.906v-5.735h-.656v1.063H4.39a2.259 2.259 0 0 0-.72-.563 2.105 2.105 0 0 0-.983-.234c-.313 0-.602.055-.86.156-.25.106-.473.246-.656.422a1.885 1.885 0 0 0-.594 1.39c0 .274.05.528.156.766.102.243.25.45.438.625.183.168.406.305.656.407.258.105.547.156.86.156.382 0 .726-.078 1.03-.235.31-.164.563-.382.75-.656h2.048v2.438zm-.656-3H4.703c.02-.07.035-.149.047-.235.02-.09.031-.18.031-.265a1.54 1.54 0 0 0-.031-.313c-.023-.101-.043-.203-.063-.297h1.829zM2.687-5.781c.446 0 .79.136 1.032.406.246.262.375.586.375.969 0 .375-.13.699-.375.968-.242.262-.586.391-1.031.391-.461 0-.817-.129-1.063-.39a1.399 1.399 0 0 1-.36-.97c0-.382.118-.706.36-.968.246-.27.602-.406 1.063-.406zm0 0"/></symbol><symbol overflow="visible" id="A"><path d="M4.594-.75a3.015 3.015 0 0 1-.547-.438c-.2-.195-.402-.46-.61-.796a3.525 3.525 0 0 1-.484-1.172 5.777 5.777 0 0 1-.156-1.297v-.656h1.437v-.547H.656v.547h1.469v.656a5.2 5.2 0 0 1-.14 1.187c-.094.387-.231.758-.407 1.11-.2.367-.426.691-.672.969-.242.273-.48.503-.719.687l.532.406c.183-.152.383-.351.594-.594a5.862 5.862 0 0 0 .937-1.468c.102-.215.172-.399.203-.547.04.148.113.351.219.61.113.25.258.488.437.702.184.262.368.489.547.672.184.18.348.317.485.406zM5.828.89v-7.343h-.625v2.766h-1.36v.578h1.36v4zm1.594.36v-7.89h-.625v7.89zm0 0"/></symbol><symbol overflow="visible" id="B"><path d="M4.61-4.453c0-.258-.055-.504-.157-.734a2.006 2.006 0 0 0-.437-.625 1.81 1.81 0 0 0-.657-.407 2.314 2.314 0 0 0-.843-.156c-.305 0-.586.055-.844.156-.25.094-.473.23-.656.407-.2.18-.352.386-.454.625-.093.23-.14.476-.14.734 0 .273.047.527.14.766.102.23.254.43.454.593.183.18.406.32.656.422.258.094.539.14.844.14.3 0 .582-.046.843-.14.258-.101.477-.242.657-.422.183-.164.332-.363.437-.594a1.93 1.93 0 0 0 .156-.765zM7.936-3.22v-.547H6.782v-1.14h1.157v-.563H6.78V-6.64h-.656v4.672h.656v-1.25zM6.798 1.25v-2.672H1.344v.547H6.14V1.25zm-2.86-5.703c0 .367-.128.68-.374.937-.243.262-.59.391-1.047.391-.45 0-.801-.129-1.047-.39a1.316 1.316 0 0 1-.36-.938c0-.363.118-.676.36-.938.246-.257.597-.39 1.047-.39.457 0 .804.133 1.046.39.247.262.376.575.376.938zm0 0"/></symbol><symbol overflow="visible" id="C"><path d="M6.438-8.672v1.063h-4.25v2.796h3.984v1.063H2.188v3.016h4.328V.328H1v-9zm0 0"/></symbol><symbol overflow="visible" id="D"><path d="M5.125-.531a1.53 1.53 0 0 1-.797.734 2.888 2.888 0 0 1-1.125.219c-.844 0-1.488-.254-1.922-.75C.844-.836.625-1.555.625-2.484v-1.22c0-.444.063-.85.188-1.218.12-.371.3-.687.53-.937.227-.246.505-.438.829-.563.32-.133.68-.203 1.078-.203.508 0 .91.09 1.203.266.29.18.504.367.64.562v-3.312h1.173V.328H5.14v-.86zm-.016-3.594c0-.164-.043-.336-.125-.516a1.535 1.535 0 0 0-.359-.468 2.03 2.03 0 0 0-.563-.329 2.003 2.003 0 0 0-.703-.125c-.5 0-.894.18-1.171.532-.274.355-.407.863-.407 1.515v.829c0 .656.14 1.164.422 1.515.277.356.664.531 1.156.531.246 0 .477-.035.688-.109.207-.082.39-.195.547-.344.152-.152.281-.336.375-.547.09-.207.14-.445.14-.718zm0 0"/></symbol><symbol overflow="visible" id="E"><path d="M.844-6.5h1.172v4.234c0 .586.113 1.008.343 1.266.227.25.586.375 1.079.375.195 0 .394-.035.593-.11.196-.07.375-.175.532-.312.152-.133.28-.305.375-.516.09-.207.14-.44.14-.703V-6.5h1.188V.328H5.125v-.86h-.016c-.199.313-.46.552-.78.72-.325.175-.724.265-1.188.265-.325 0-.63-.055-.907-.156a1.969 1.969 0 0 1-.718-.438 2.19 2.19 0 0 1-.5-.765c-.118-.301-.172-.66-.172-1.078zm0 0"/></symbol><symbol overflow="visible" id="F"><path d="M3.469-6.625c.539 0 .988.074 1.344.219.351.136.664.316.937.531l-.563.906a3.097 3.097 0 0 0-.843-.468 2.922 2.922 0 0 0-.875-.125c-.219 0-.434.042-.64.125a1.38 1.38 0 0 0-.532.359 1.75 1.75 0 0 0-.36.61c-.093.25-.14.55-.14.89v.875c0 .367.047.68.14.937.09.262.22.477.375.641.153.156.333.277.532.36.207.074.422.109.64.109.434 0 .797-.055 1.079-.172.289-.121.554-.274.796-.453l.563.922c-.242.199-.559.375-.953.53-.387.165-.887.25-1.5.25-.918 0-1.63-.273-2.125-.812C.852-.94.609-1.71.609-2.703v-.86c0-.488.067-.921.204-1.296.132-.383.32-.707.562-.97.246-.257.55-.456.906-.593a3.35 3.35 0 0 1 1.188-.203zm0 0"/></symbol><symbol overflow="visible" id="G"><path d="M2.781.422c-.668 0-1.199-.168-1.594-.5C.801-.418.61-.895.61-1.5v-.328c0-.582.188-1.055.563-1.422.383-.371 1-.563 1.844-.563h1.687v-.39c0-.457-.113-.797-.328-1.016-.21-.226-.559-.343-1.047-.343-.387 0-.726.066-1.015.187a5.978 5.978 0 0 0-.891.5l-.578-.89c.32-.239.687-.442 1.094-.61.402-.164.875-.25 1.406-.25.37 0 .71.05 1.015.14.301.094.563.239.782.423.226.187.406.417.53.687.122.273.188.582.188.922V.328H4.734V-.5H4.72a1.164 1.164 0 0 1-.266.344 1.841 1.841 0 0 1-.344.265c-.18.102-.37.18-.578.235-.21.05-.46.078-.75.078zm1.922-3.203H3.047c-.469 0-.805.097-1 .281-.2.18-.297.43-.297.75v.172c0 .336.113.582.344.734.226.149.5.219.812.219.29 0 .54-.035.75-.11.215-.07.414-.175.594-.312a.994.994 0 0 0 .344-.422c.07-.164.11-.379.11-.64zm0 0"/></symbol><symbol overflow="visible" id="H"><path d="M1.36-5.469H.265V-6.5h1.093v-1.734h1.172V-6.5h1.75v1.031h-1.75v3.89c0 .212.02.38.063.5.039.126.097.227.172.298.07.062.16.113.265.14.114.024.227.032.344.032.29 0 .582-.055.875-.172l.188.984a4.19 4.19 0 0 1-.563.14 2.98 2.98 0 0 1-.672.079c-.637 0-1.105-.164-1.406-.484-.293-.32-.438-.829-.438-1.516zm0 0"/></symbol><symbol overflow="visible" id="I"><path d="M2.156-6.5V.328H.984V-6.5zm.031-2.453v1.328H.938v-1.328zm0 0"/></symbol><symbol overflow="visible" id="J"><path d="M3.563-6.625c.902 0 1.624.273 2.156.813.527.542.797 1.308.797 2.296v.829c0 .992-.27 1.757-.797 2.296-.532.54-1.254.813-2.157.813-.917 0-1.644-.274-2.171-.813C.867-.93.609-1.695.609-2.687v-.829c0-.996.258-1.765.782-2.296.527-.54 1.254-.813 2.171-.813zm0 5.984c.519 0 .94-.175 1.265-.53.332-.352.5-.891.5-1.61v-.64c0-.716-.168-1.255-.5-1.61-.324-.352-.746-.532-1.266-.532-.53 0-.96.18-1.28.532-.325.355-.485.894-.485 1.61v.64c0 .719.16 1.258.484 1.61.32.355.75.53 1.281.53zm0 0"/></symbol><symbol overflow="visible" id="K"><path d="M6.406.328H5.234v-4.25c0-.57-.12-.988-.359-1.25-.23-.258-.59-.39-1.078-.39-.211 0-.414.039-.61.109a1.636 1.636 0 0 0-.922.828c-.093.21-.14.45-.14.719V.328H.937V-6.5h1.141v.86h.016c.195-.32.46-.567.797-.735.332-.164.726-.25 1.187-.25.32 0 .625.055.906.156.278.094.524.242.735.438.215.199.383.457.5.765.12.305.187.664.187 1.079zm0 0"/></symbol><symbol overflow="visible" id="ab"><path d="M1-8.672h3.11c.495 0 .93.067 1.296.188.364.125.66.304.89.53.24.231.415.509.532.829.121.313.188.652.188 1.016v.265c0 .367-.067.711-.188 1.032a2.337 2.337 0 0 1-.562.843 2.637 2.637 0 0 1-.907.578c-.355.137-.773.204-1.25.204H2.188V.328H1zm1.188 1.063v3.359h1.718c1.258 0 1.89-.54 1.89-1.625v-.219c0-.508-.151-.89-.452-1.14-.305-.246-.739-.375-1.297-.375zm0 0"/></symbol><symbol overflow="visible" id="ac"><path d="M3-.625c.434 0 .773-.078 1.016-.234a.738.738 0 0 0 .375-.657v-.093a.941.941 0 0 0-.063-.36.602.602 0 0 0-.234-.265 2.26 2.26 0 0 0-.469-.204 11.98 11.98 0 0 0-.75-.203 5.824 5.824 0 0 1-.969-.265 3.106 3.106 0 0 1-.718-.39 1.5 1.5 0 0 1-.454-.563 1.914 1.914 0 0 1-.14-.766v-.156c0-.227.047-.457.14-.688.102-.226.254-.426.454-.593.195-.165.453-.301.765-.407.309-.101.68-.156 1.11-.156.445 0 .867.055 1.265.156.395.106.754.278 1.078.516l-.515.906a2.57 2.57 0 0 0-.782-.39 3.051 3.051 0 0 0-.968-.157c-.493 0-.848.082-1.063.235a.709.709 0 0 0-.312.593v.11c0 .273.109.472.328.593.215.125.586.243 1.11.344a6.41 6.41 0 0 1 1.046.281c.3.106.547.243.734.407.196.156.344.351.438.578.09.219.14.492.14.812v.157c0 .261-.058.511-.171.75a1.9 1.9 0 0 1-.5.609 2.572 2.572 0 0 1-.797.39 3.385 3.385 0 0 1-1.047.157A4.763 4.763 0 0 1 1.53.188C1.082.039.7-.156.391-.406l.546-.938c.29.211.602.383.938.516.34.137.719.203 1.125.203zm0 0"/></symbol><symbol overflow="visible" id="L"><path d="M2.344-1.578v2.844H8.78V.844H2.844v-2.422zm3.89-3.453H4.781v.422h1.453v3.515h.516v-6.5h-.516zm1.797-2.735V-1h.516v-6.766zM.72-6.656H5.03v-.422H.72zm4.75 4.031v-.422c-.211.024-.414.043-.61.063-.199.023-.464.039-.796.046l.156-3.406h-.516l-.14 3.422c-.211.024-.442.031-.688.031h-.797l-.14-3.453h-.5l.14 3.453H.453v.422H2.875c.371-.008.68-.02.922-.031.371-.02.68-.035.922-.047.246-.02.5-.047.75-.078zm0 0"/></symbol><symbol overflow="visible" id="M"><path d="M8.656 1.36V.936H2.953V-.296h5.5v-2.047H2.406v.422h5.531v1.203h-5.5V1.36zm-.719-9.126v4.891h.5v-4.89zm-4.25.797v-.515h-.5v.515c0 .512-.117.977-.343 1.39-.219.419-.48.786-.781 1.095a6.325 6.325 0 0 1-.938.78c-.313.212-.555.349-.719.407l.39.344c.083-.04.24-.129.47-.266.226-.144.484-.344.765-.594a5.56 5.56 0 0 0 .797-.843c.258-.34.461-.723.61-1.14.164.417.382.784.656 1.093.27.305.539.566.812.781.258.23.5.41.719.531.215.118.367.192.453.22l.328-.392c-.105-.027-.308-.128-.61-.296a5.783 5.783 0 0 1-.905-.688 4.925 4.925 0 0 1-.844-1.031c-.242-.402-.36-.867-.36-1.39zm0 0"/></symbol><symbol overflow="visible" id="N"><path d="M1.578-4h2.438v3H1.578zm4.5-.094H4.531v-2.625h-.515v2.313H1.578v-2.328h-.516v6.156h3.47v-3.094h1.546v4.719h.516v-8.594h-.516zm1.813-3.672V1.47h.515v-9.235zm0 0"/></symbol><symbol overflow="visible" id="O"><path d="M7.625-7.766V1.47h.516v-9.235zm-.61 6.454v-.422c-.167.043-.41.086-.718.125-.313.043-.66.086-1.031.125a34.41 34.41 0 0 1-1.157.078c-.386.023-.738.031-1.046.031h-1.36v-5.5h-.516v5.922h1.625c.415 0 .836-.008 1.266-.031.434-.028.848-.063 1.234-.094.372-.04.711-.082 1.016-.125.3-.04.531-.078.688-.11zm0 0"/></symbol><symbol overflow="visible" id="P"><path d="M1.172-3.656c0-.383.035-.75.11-1.094.07-.352.179-.66.327-.922.145-.258.32-.46.532-.61.214-.152.468-.234.75-.234.277 0 .523.082.734.235.207.148.383.351.531.61.133.26.239.57.313.921.082.344.125.71.125 1.094 0 .406-.043.789-.125 1.14-.074.356-.18.66-.313.907a1.905 1.905 0 0 1-.531.64c-.21.149-.457.219-.734.219-.282 0-.536-.07-.75-.219a1.867 1.867 0 0 1-.532-.625 3.014 3.014 0 0 1-.328-.922 5.543 5.543 0 0 1-.11-1.14zm-.531.015c0 .512.05.977.156 1.391.101.406.254.762.453 1.063.184.292.422.523.703.687.277.156.586.234.922.234.34 0 .648-.078.922-.234.277-.164.515-.395.703-.688.195-.3.348-.656.453-1.062.102-.414.156-.879.156-1.39a5.83 5.83 0 0 0-.156-1.376A3.433 3.433 0 0 0 4.5-6.078a2.023 2.023 0 0 0-.703-.672A1.763 1.763 0 0 0 2.875-7c-.336 0-.645.086-.922.25-.281.156-.52.383-.703.672-.2.293-.352.648-.453 1.062A5.633 5.633 0 0 0 .64-3.64zm7.156.313h1.562v-.422H7.797v-4.016H7.28V1.47h.516zm0 0"/></symbol><symbol overflow="visible" id="R"><path d="M5.703-7.531v8.578h.5v-4.563h1.625V1.47h.5v-9.235h-.5v3.829H6.203v-3.594zM5.172-.938v-.421a3.41 3.41 0 0 1-.61.093c-.25.024-.511.043-.78.063-.294.023-.583.039-.86.047H1.625v-4.922h2.656V-6.5H1.125v5.766h1.031c.258 0 .535-.004.828-.016.29-.008.57-.023.844-.047.27-.008.52-.023.75-.047.238-.027.438-.062.594-.094zm0 0"/></symbol><symbol overflow="visible" id="S"><path d="M3.484-4.813c.57 0 1.008.114 1.313.329.308.218.469.476.469.765 0 .305-.16.559-.47.766-.304.2-.741.297-1.312.297-.562 0-1.004-.098-1.312-.297-.305-.207-.453-.461-.453-.766 0-.289.148-.547.453-.765.308-.215.75-.329 1.312-.329zm0-.39c-.718 0-1.285.148-1.687.437-.406.282-.61.633-.61 1.047 0 .43.196.785.594 1.063.403.281.973.422 1.703.422.715 0 1.282-.141 1.688-.422.414-.278.625-.633.625-1.063 0-.414-.211-.765-.625-1.047-.406-.289-.973-.437-1.688-.437zM.704-6.25v.422H6.28v-.422zm1.109 5.016v.421H7.5V1.47H8v-2.703zM7.984-4.61h1.422v-.407H7.984v-2.75H7.47v5.907h.515zM1.97-7.594v.407h2.937v-.407zm0 0"/></symbol><symbol overflow="visible" id="T"><path d="M6.766-1.594h.5c.09-.476.175-.91.25-1.297.07-.394.129-.785.171-1.171.051-.383.098-.774.141-1.172.04-.395.078-.836.11-1.329H1.405v.422h5.985a30.978 30.978 0 0 1-.22 2.172c-.093.762-.23 1.555-.405 2.375zm2.39 1.64v-.405H5.47V-3.75h-.516v3.39H3.156v-3.39h-.5v3.39H.203v.407zm0 0"/></symbol><symbol overflow="visible" id="U"><path d="M1.297.11H.39v.921h.906zm0 0"/></symbol><symbol overflow="visible" id="V"><path d="M6.422-.875a5.725 5.725 0 0 1-.656-.406 5.587 5.587 0 0 1-1.797-2.25c-.242-.551-.36-1.207-.36-1.969v-1.688h-.5V-5.5c0 .75-.113 1.402-.328 1.953-.21.555-.465 1.02-.765 1.39a4.833 4.833 0 0 1-.938.954 6.872 6.872 0 0 1-.828.547l.406.36c.102-.052.285-.177.547-.376.258-.195.535-.457.828-.781.29-.309.563-.68.813-1.11a4.38 4.38 0 0 0 .515-1.39c.121.5.32.957.594 1.36.27.405.547.757.828 1.046.278.305.54.543.782.719.246.18.421.289.515.328zm2.937-2.688v-.421H7.938v-3.782h-.516V1.47h.516v-5.032zm0 0"/></symbol><symbol overflow="visible" id="W"><path d="M7.734-7.766V1.47h.5v-9.235zm-6.359 4.11c0-.383.035-.75.11-1.094.07-.352.18-.66.327-.922.145-.258.32-.46.532-.61.215-.152.469-.234.75-.234.277 0 .523.082.734.235.207.148.383.351.531.61.133.26.239.57.313.921.082.344.125.71.125 1.094 0 .406-.043.789-.125 1.14-.074.356-.18.66-.313.907a1.905 1.905 0 0 1-.53.64c-.212.149-.458.219-.735.219-.281 0-.535-.07-.75-.219a1.867 1.867 0 0 1-.531-.625 3.014 3.014 0 0 1-.329-.922 5.543 5.543 0 0 1-.109-1.14zm-.531.015c0 .512.05.977.156 1.391.102.406.254.762.453 1.063.184.292.422.523.703.687.278.156.586.234.922.234.34 0 .649-.078.922-.234.277-.164.516-.395.703-.688.195-.3.348-.656.453-1.062.102-.414.157-.879.157-1.39a5.83 5.83 0 0 0-.157-1.376 3.433 3.433 0 0 0-.453-1.062A2.023 2.023 0 0 0 4-6.75 1.763 1.763 0 0 0 3.078-7c-.336 0-.644.086-.922.25-.281.156-.52.383-.703.672-.2.293-.351.648-.453 1.062A5.633 5.633 0 0 0 .844-3.64zm0 0"/></symbol><symbol overflow="visible" id="X"><path d="M4.953-5.094c0 .524-.164.961-.484 1.313-.324.344-.785.515-1.375.515-.594 0-1.055-.171-1.375-.515-.324-.352-.485-.79-.485-1.313 0-.508.16-.941.485-1.297.32-.363.781-.546 1.375-.546.59 0 1.05.183 1.375.546.32.356.484.79.484 1.297zm.25-1.156a2.436 2.436 0 0 0-2.11-1.172c-.366 0-.695.067-.984.188-.293.117-.55.285-.765.5-.211.21-.38.457-.5.734a2.34 2.34 0 0 0-.172.906c0 .324.055.633.172.922a2.289 2.289 0 0 0 1.265 1.234c.29.118.618.172.985.172.457 0 .863-.097 1.219-.296.363-.196.648-.47.859-.813h2.61v2.828h.515v-6.719H7.78v1.516zm.172 1.969c.04-.133.07-.266.094-.39a2.082 2.082 0 0 0 .015-.798 9.7 9.7 0 0 0-.078-.36h2.375v1.548zm3.172 5.547V.844H2.703v-2.422h-.515v2.844zm0 0"/></symbol><symbol overflow="visible" id="Y"><path d="M6.266-4.203H4.53v.422h1.735v4.828h.515v-8.594h-.515zm1.828-3.563V1.47h.5v-9.235zM2.64-6.14v1.188c0 .637-.098 1.21-.282 1.719-.187.5-.414.941-.671 1.312-.25.375-.508.684-.766.922-.262.242-.465.418-.61.531l.422.313a7.148 7.148 0 0 0 1.063-1.078c.207-.278.41-.602.61-.97.206-.37.374-.796.5-1.265.09.43.241.82.452 1.172.207.356.422.664.641.922a6.6 6.6 0 0 0 .625.64c.195.169.332.274.406.313l.344-.36a4.472 4.472 0 0 1-.5-.359 4.556 4.556 0 0 1-.75-.812 5.55 5.55 0 0 1-.672-1.266c-.2-.496-.297-1.078-.297-1.734v-1.188H4.97v-.406H.812v.406zm0 0"/></symbol><symbol overflow="visible" id="Z"><path d="M1.656-1.547v.422H7.36v2.594h.516v-3.016zm6.172-4.25H9.25v-.422H7.828v-1.547h-.5v5.61h.5v-1.688H9.25v-.406H7.828zm-4.875-1.14c.602 0 1.067.175 1.39.515.321.336.485.742.485 1.219 0 .48-.164.894-.484 1.234-.324.344-.79.516-1.39.516-.595 0-1.056-.172-1.376-.516a1.726 1.726 0 0 1-.484-1.234c0-.477.16-.883.484-1.219.32-.34.781-.516 1.375-.516zm0-.5c-.355 0-.683.066-.984.187-.293.117-.551.277-.766.484a2.151 2.151 0 0 0-.656 1.563c0 .312.055.605.172.875.113.273.273.512.484.719.215.199.473.355.766.468.3.118.629.172.984.172.352 0 .676-.054.969-.172.3-.113.562-.27.781-.468.207-.207.367-.446.484-.72a2.1 2.1 0 0 0 0-1.734 2.155 2.155 0 0 0-.484-.703 2.377 2.377 0 0 0-.781-.484 2.519 2.519 0 0 0-.969-.188zm0 0"/></symbol><symbol overflow="visible" id="aa"><path d="M1.36-6.344h6.609v-.422h-6.61zm5.093 3.672H8.22v-.422H6.703l.188-2.937h-.5l-.188 2.937H3.156L2.937-6.03h-.5l.22 2.937H1.124v.422h1.828v2.375H.203V.11h8.953v-.406H6.453zm-3 0h2.5v2.375h-2.5zm0 0"/></symbol></defs><g fill="#231f20"><use xlink:href="#a" x="74.885" y="47.763"/><use xlink:href="#b" x="82.886" y="47.763"/><use xlink:href="#c" x="85.492" y="47.763"/><use xlink:href="#d" x="88.099" y="47.763"/><use xlink:href="#e" x="96.1" y="47.763"/><use xlink:href="#f" x="104.1" y="47.763"/><use xlink:href="#g" x="112.1" y="47.763"/><use xlink:href="#c" x="120.1" y="47.763"/><use xlink:href="#h" x="122.707" y="47.763"/><use xlink:href="#i" x="130.707" y="47.763"/><use xlink:href="#c" x="138.708" y="47.763"/><use xlink:href="#j" x="141.315" y="47.763"/><use xlink:href="#k" x="149.315" y="47.763"/><use xlink:href="#c" x="157.315" y="47.763"/><use xlink:href="#l" x="159.922" y="47.763"/><use xlink:href="#m" x="167.922" y="47.763"/></g><g fill="#393536"><use xlink:href="#n" x="42.468" y="48.426"/><use xlink:href="#o" x="48.041" y="48.426"/><use xlink:href="#p" x="53.614" y="48.426"/></g><g fill="#33459a"><use xlink:href="#q" x="206.678" y="250.25"/><use xlink:href="#r" x="220.193" y="250.25"/><use xlink:href="#s" x="225.134" y="250.25"/><use xlink:href="#r" x="238.649" y="250.25"/><use xlink:href="#t" x="243.59" y="250.25"/><use xlink:href="#r" x="257.105" y="250.25"/></g><g fill="#33459a"><use xlink:href="#u" x="262.045" y="249.351"/><use xlink:href="#v" x="272.857" y="249.351"/><use xlink:href="#w" x="283.669" y="249.351"/><use xlink:href="#x" x="294.481" y="249.351"/></g><g fill="#231f20"><use xlink:href="#y" x="206.678" y="270.763"/><use xlink:href="#z" x="214.525" y="270.763"/><use xlink:href="#A" x="222.373" y="270.763"/><use xlink:href="#B" x="230.22" y="270.763"/></g><g fill="#fff"><use xlink:href="#C" x="119.052" y="327.353"/><use xlink:href="#D" x="126.052" y="327.353"/><use xlink:href="#E" x="133.027" y="327.353"/><use xlink:href="#F" x="139.991" y="327.353"/><use xlink:href="#G" x="145.913" y="327.353"/><use xlink:href="#H" x="152.355" y="327.353"/><use xlink:href="#I" x="156.824" y="327.353"/><use xlink:href="#J" x="159.718" y="327.353"/><use xlink:href="#K" x="166.597" y="327.353"/></g><path d="M76.441 363.305h424.68" fill="none" stroke-width=".299637" stroke="#33459a" stroke-miterlimit="10"/><g fill="#231f20"><use xlink:href="#L" x="77.858" y="355.545"/><use xlink:href="#M" x="87.013" y="355.545"/><use xlink:href="#N" x="96.169" y="355.545"/><use xlink:href="#O" x="105.324" y="355.545"/><use xlink:href="#P" x="114.479" y="355.545"/><use xlink:href="#Q" x="123.635" y="355.545"/><use xlink:href="#R" x="126.992" y="355.545"/><use xlink:href="#S" x="136.147" y="355.545"/><use xlink:href="#T" x="145.303" y="355.545"/><use xlink:href="#U" x="154.458" y="355.545"/><use xlink:href="#Q" x="156.553" y="355.545"/><use xlink:href="#S" x="159.91" y="355.545"/><use xlink:href="#V" x="169.066" y="355.545"/></g><path d="M76.441 459.82h424.68" fill="none" stroke-width=".299637" stroke="#33459a" stroke-miterlimit="10"/><g fill="#231f20"><use xlink:href="#W" x="77.858" y="452.061"/><use xlink:href="#X" x="87.013" y="452.061"/><use xlink:href="#Y" x="96.169" y="452.061"/><use xlink:href="#Z" x="105.324" y="452.061"/><use xlink:href="#Q" x="114.479" y="452.061"/><use xlink:href="#R" x="117.836" y="452.061"/><use xlink:href="#aa" x="126.992" y="452.061"/><use xlink:href="#W" x="136.147" y="452.061"/><use xlink:href="#V" x="145.303" y="452.061"/></g><g fill="#fff"><use xlink:href="#ab" x="119.052" y="423.727"/><use xlink:href="#J" x="126.282" y="423.727"/><use xlink:href="#ac" x="133.16" y="423.727"/><use xlink:href="#I" x="138.949" y="423.727"/><use xlink:href="#H" x="141.844" y="423.727"/><use xlink:href="#I" x="146.312" y="423.727"/><use xlink:href="#J" x="149.207" y="423.727"/><use xlink:href="#K" x="156.085" y="423.727"/></g></svg>