<svg xmlns="http://www.w3.org/2000/svg" xmlns:xlink="http://www.w3.org/1999/xlink" width="793.701" height="1058.268" viewBox="0 0 595.276 793.701" version="1.2"><defs><symbol overflow="visible" id="a"><path d="M5.172-5.844h-.719V.453h.719zM1.859.453h.985l1.375-6.297h-.844L2.359-.5 1.344-5.844H.5zm4.454-6.297h-.72V.453h.72zm1.14 0H6.72V.453h.734zm0 0"/></symbol><symbol overflow="visible" id="b"><path d="M.75.047v1.016h1.031V.046zm0 0"/></symbol><symbol overflow="visible" id="d"><path d="M7.781.375v-.656H4.406v-2.016h2.532v-.625H2.016v-2.64h4.843v-.641H1.281v3.906h2.36V-.28H.28v.656zm0 0"/></symbol><symbol overflow="visible" id="e"><path d="M4.031-3.703c.903 0 1.61-.133 2.11-.406.507-.278.765-.641.765-1.079 0-.433-.258-.796-.765-1.078-.5-.277-1.207-.421-2.11-.421-.906 0-1.617.144-2.125.421-.5.282-.75.637-.75 1.063 0 .45.25.816.75 1.094.508.273 1.219.406 2.125.406zm0-.563c-.617 0-1.117-.082-1.5-.25-.386-.164-.578-.394-.578-.687 0-.29.188-.516.563-.672.382-.164.89-.25 1.515-.25.59 0 1.082.086 1.469.25.395.156.594.387.594.688 0 .28-.196.507-.578.671-.387.168-.883.25-1.485.25zm3.735 1.907V-3H.28v.64h3.344v.97H1.281V1.28h5.5V-1.39H4.406v-.968zM6.03.64H2.016V-.75H6.03zm0 0"/></symbol><symbol overflow="visible" id="f"><path d="M4.453-5.703H6.86v-.64H1.203v.64H3.61a1.592 1.592 0 0 1-.28.781 2.65 2.65 0 0 1-.657.625 4.407 4.407 0 0 1-.938.484c-.355.137-.73.247-1.125.329.09.093.192.195.297.296.102.106.192.196.266.266.3-.07.598-.164.89-.281.301-.121.583-.27.844-.438.239-.144.453-.304.64-.484.196-.184.36-.398.485-.64.145.28.336.535.578.75.246.21.516.382.797.515.246.148.504.27.766.36.258.093.504.167.734.218a10.541 10.541 0 0 1 .516-.562 6.363 6.363 0 0 1-.984-.266 3.935 3.935 0 0 1-.891-.438 2.91 2.91 0 0 1-.75-.64c-.2-.258-.317-.55-.344-.875zm3.313 4.187v-.625H.28v.625h3.39V1.36h.782v-2.875zm0 0"/></symbol><symbol overflow="visible" id="g"><path d="M7.125-.75v-5.875h-.75V-.75zM3.219-5.438v-1h-.781v1c0 .344-.06.668-.172.97a2.83 2.83 0 0 1-.422.78c-.211.274-.457.512-.735.72-.28.198-.586.37-.906.515.102.086.219.18.344.281.121.094.223.176.297.235.207-.102.41-.227.61-.375.206-.145.398-.305.577-.485.176-.164.332-.351.469-.562.145-.207.254-.422.328-.641.102.219.238.43.406.625.164.188.344.363.532.516.175.148.359.277.546.39.184.117.368.215.547.297a6.792 6.792 0 0 1 .516-.578 3.319 3.319 0 0 1-1.516-1.031 2.687 2.687 0 0 1-.468-.75 2.312 2.312 0 0 1-.172-.907zm4.125 6.641v-.64h-4.75v-1.938h-.766v2.578zm0 0"/></symbol><symbol overflow="visible" id="h"><path d="M6.797-3.344v-3.203h-.75v.984H2v-.984h-.734v3.203zm-.75-.64H2v-.97h4.047zm1.719 2.109v-.64H.28v.64h3.485v1.719h.75v-1.719zm-.704 3.078v-.64H2.016V-1.11H1.28v2.312zm0 0"/></symbol><symbol overflow="visible" id="i"><path d="M6.875-3.984v-.594H2.031v-1.234h4.75v-.594h-5.5v2.422zm.89 1.312v-.61H.282v.61zm-.812 3.969V.703H2.11v-.75h4.672v-1.89h-5.5v.593h4.672v.719H1.281v1.922zm0 0"/></symbol><symbol overflow="visible" id="j"><path d="M7.11-.75v-5.875h-.75V-.75zM.61-4.406c0 .281.05.554.156.812.101.25.242.477.421.672.196.18.422.324.672.438.258.117.551.171.875.171.301 0 .582-.054.844-.171.258-.114.485-.258.672-.438.184-.195.332-.422.438-.672a2.21 2.21 0 0 0 .156-.812c0-.29-.055-.563-.157-.813a2.292 2.292 0 0 0-.437-.687 2.083 2.083 0 0 0-.672-.438 2.102 2.102 0 0 0-.844-.172c-.324 0-.617.059-.875.172-.25.106-.476.254-.671.438-.18.199-.32.43-.422.687-.106.25-.157.524-.157.813zm.765 0c0-.403.113-.75.344-1.032.238-.289.578-.437 1.015-.437.426 0 .758.148 1 .438.239.28.36.628.36 1.03 0 .4-.121.739-.36 1.016-.242.282-.574.422-1 .422-.437 0-.777-.14-1.015-.422-.23-.277-.344-.617-.344-1.015zm5.969 5.61V.562H2.562v-1.985h-.75v2.625zm0 0"/></symbol><symbol overflow="visible" id="k"><path d="M6.781-4.016v-2.39H1.266v2.39zm-.734-.593H2v-1.204h4.047zm1.719 1.875v-.61H.28v.61h3.344v.796H1.281v.594h4.672v.719H1.281v1.922h5.672V.703H2.11v-.75h4.672v-1.89H4.406v-.797zm0 0"/></symbol><symbol overflow="visible" id="l"><path d="M4.438-5.656v-.657h-.813v.657c0 .355-.086.695-.25 1.015a3.377 3.377 0 0 1-.64.875 4.663 4.663 0 0 1-.985.72c-.375.21-.77.378-1.172.5.113.116.219.226.313.327.101.094.191.184.265.266.301-.102.598-.238.89-.406.29-.164.563-.348.813-.547a4.4 4.4 0 0 0 .688-.688c.195-.246.36-.508.484-.781.114.273.274.54.485.797.207.25.445.48.718.687.27.22.551.414.844.579.29.156.567.277.828.359.07-.09.157-.188.25-.281.09-.102.192-.204.297-.297a4.6 4.6 0 0 1-1.078-.438 4.765 4.765 0 0 1-.953-.719 3.478 3.478 0 0 1-.719-.921 2.217 2.217 0 0 1-.266-1.047zM7.78.359v-.64H4.406v-2.016h-.765V-.28H.28v.64zm0 0"/></symbol><symbol overflow="visible" id="m"><path d="M7.203 1.375v-8h-.75v2.969h-1V-6.5H4.72V.984h.734v-3.921h1v4.312zM.781-6.063v.641h2.25c-.023.461-.09.899-.203 1.313a5.194 5.194 0 0 1-.453 1.156A6.445 6.445 0 0 1 1.5-1.781a6.913 6.913 0 0 1-1.219.984c.102.063.223.137.36.219.144.086.257.164.343.234a7.75 7.75 0 0 0 1.25-1.14c.364-.426.672-.91.922-1.454.184-.425.332-.894.438-1.406a9.83 9.83 0 0 0 .203-1.718zm0 0"/></symbol><symbol overflow="visible" id="n"><path d="M3.422-7.313a.124.124 0 0 0-.031-.078.119.119 0 0 0-.079-.062.133.133 0 0 0-.078 0 .589.589 0 0 0-.078.047l-1.844.828a.934.934 0 0 0-.218.078c-.086.043-.125.102-.125.172 0 .043.008.082.031.11a.143.143 0 0 0 .094.03c.05 0 .113-.015.187-.046.07-.028.133-.051.188-.063l.687-.312c.051-.02.102-.04.156-.063a.364.364 0 0 1 .172-.047c.07 0 .118.024.141.063.02.043.031.097.031.156v5.078c0 .367-.043.617-.125.75-.074.125-.316.188-.719.188-.25 0-.414.011-.484.03-.074.013-.11.052-.11.11 0 .063.016.106.048.125.027.024.082.032.156.032h3.094c.058 0 .109-.008.14-.032.028-.02.047-.054.047-.11 0-.058-.02-.1-.047-.124a.278.278 0 0 0-.14-.031h-.329c-.375 0-.601-.079-.671-.235-.063-.164-.094-.41-.094-.734zm0 0"/></symbol><symbol overflow="visible" id="o"><path d="M4.297-2.078c0-.227.016-.348.047-.36.027-.007.203-.015.515-.015h.407c.039 0 .066-.008.078-.031.02-.02.031-.051.031-.094 0-.04-.008-.086-.016-.14 0-.06-.023-.095-.062-.095h-.875c-.074-.007-.117-.046-.125-.109V-5.266v-.25c0-.132-.04-.191-.11-.171l-.609.265c-.043 0-.062.024-.062.063a.427.427 0 0 1 .015.093v2.063c0 .219-.011.348-.031.375-.023.023-.137.031-.344.031h-2.11c-.023 0-.081.008-.171.016-.094.011-.14-.016-.14-.078 0-.028.03-.082.093-.157.059-.082.098-.129.11-.14l3.75-4.922c.007-.02.019-.04.03-.063.02-.02.032-.039.032-.062 0-.04-.02-.067-.047-.078a.427.427 0 0 0-.094-.016c-.074 0-.129.012-.156.031a.572.572 0 0 0-.11.11L.5-3.046c-.043.062-.09.12-.14.171a.378.378 0 0 0-.079.203c0 .149.02.219.063.219H3.14c.207 0 .32.012.343.031.028.024.047.137.047.344v.969c0 .136-.008.273-.015.406 0 .125-.086.21-.25.25a.566.566 0 0 1-.22.047h-.218a.429.429 0 0 0-.156.031c-.055.023-.078.066-.078.125 0 .055.008.09.031.11.027.011.07.015.125.015.207 0 .406-.008.594-.031a5.075 5.075 0 0 1 1.14 0 4 4 0 0 0 .532.031.235.235 0 0 0 .109-.031c.04-.02.063-.055.063-.11 0-.07-.036-.113-.094-.125a1.222 1.222 0 0 0-.172-.015c-.293 0-.473-.047-.531-.14-.063-.09-.094-.282-.094-.563zm0 0"/></symbol><symbol overflow="visible" id="p"><path d="M2.875.031c.434 0 .82-.144 1.156-.437.332-.301.594-.64.782-1.016.183-.34.316-.71.39-1.11.082-.402.125-.804.125-1.202 0-.403-.05-.813-.14-1.22a4.843 4.843 0 0 0-.407-1.155A3.031 3.031 0 0 0 4-7.063a1.747 1.747 0 0 0-1.14-.421c-.844 0-1.473.457-1.876 1.359-.406.906-.609 1.707-.609 2.39 0 .712.203 1.52.61 2.422C1.386-.413 2.02.032 2.874.032zm0-.281c-.75 0-1.227-.441-1.422-1.328-.2-.895-.297-1.613-.297-2.156 0-.54.098-1.254.297-2.141.195-.895.672-1.344 1.422-1.344.363 0 .648.137.86.407.206.273.363.566.468.875.113.343.195.71.25 1.093.059.387.094.758.094 1.11 0 .324-.035.675-.094 1.046a9.33 9.33 0 0 1-.203 1.016c-.094.336-.254.66-.469.969-.21.305-.511.453-.906.453zm0 0"/></symbol><symbol overflow="visible" id="q"><path d="M10.094-9.75l.078 4.438c0 .53.031.976.094 1.328.058.343.187.511.375.5.183 0 .375-.22.562-.657.184-.433.281-1.046.281-1.828l-.046-3.781c0-.184.007-.348.03-.484.028-.145.048-.274.048-.391a.564.564 0 0 0-.047-.281c-.031-.082-.117-.156-.25-.219-.106-.027-.246-.066-.422-.11a9.998 9.998 0 0 0-.516-.109c-.18-.027-.34-.054-.484-.078a3.77 3.77 0 0 1-.297-.047c-.469-.027-.727.043-.766.219-.043.168.082.316.375.438.352.148.602.285.75.406.153.125.235.347.235.656zm-2.406.094a2.92 2.92 0 0 1-.266-.016A6.722 6.722 0 0 0 7-9.687c-.156 0-.309.007-.453.015a.806.806 0 0 0-.344.063c-.187.093-.535.16-1.031.187-.5.024-1.024.031-1.563.031h-.484a9.214 9.214 0 0 1-.406-.03 6.59 6.59 0 0 1-.344-.032 1.17 1.17 0 0 1-.219-.031c-.406-.028-.648.011-.719.125-.062.117.063.273.375.468.32.211.583.352.782.422.207.074.379.106.515.094a.844.844 0 0 0 .329-.078c.09-.05.19-.094.296-.125h.047c.04-.008.098-.02.172-.031.059-.02.129-.036.203-.047.07-.008.149-.02.235-.031.09 0 .207-.004.343-.016.133-.008.282-.024.438-.047.164-.008.332-.02.5-.031.176-.02.36-.04.547-.063-.324.7-.715 1.364-1.172 1.985-.45.625-.914 1.195-1.39 1.703-.481.511-.958.957-1.423 1.328-.46.367-.863.637-1.203.812-.105.063-.156.13-.156.188 0 .062.035.117.11.156.09.031.21.047.359.047.152-.008.347-.063.578-.156a8.019 8.019 0 0 0 1.344-.781c.496-.34 1-.75 1.5-1.22.496-.476.988-1.007 1.468-1.593.477-.59.907-1.223 1.282-1.89.05-.114.125-.239.218-.376.102-.144.188-.28.25-.406A.733.733 0 0 0 8-9.422c-.023-.101-.129-.18-.313-.234zm2.125 7.344L9.78.905H6.11l-.062-3.203zM11.5 1.265c0-.118-.074-.207-.219-.266a1.274 1.274 0 0 0-.344-.094l.329-2.984a.62.62 0 0 1 .109-.281c.07-.09.125-.18.156-.266a.327.327 0 0 0 .016-.25c-.024-.09-.117-.176-.281-.25a1.771 1.771 0 0 0-.844-.11c-.313.032-.57.075-.766.126-.062.03-.273.054-.625.062A83.572 83.572 0 0 1 6.766-3h-.563c-.062 0-.152-.008-.266-.031-.105-.02-.23-.047-.375-.078a6.831 6.831 0 0 1-.5-.047 4.159 4.159 0 0 0-.593-.016c-.387.024-.649.121-.782.297-.124.18-.101.29.079.328.113.031.218.067.312.094l.25.078a.452.452 0 0 1 .266.36l.218 3.484c.008.289.07.508.188.656a.547.547 0 0 0 .422.219c.09 0 .21-.067.36-.188a.872.872 0 0 0 .28-.484h.688c.352 0 .758-.008 1.219-.016.445 0 .922-.008 1.422-.015h1.421c.196 0 .36-.036.485-.094.133-.063.203-.16.203-.281zm0 0"/></symbol><symbol overflow="visible" id="s"><path d="M8.563-.266c0 .477-.168.88-.5 1.204a1.58 1.58 0 0 1-1.172.5 1.59 1.59 0 0 1-1.188-.5A1.635 1.635 0 0 1 5.22-.266c0-.476.16-.882.484-1.218.32-.332.719-.5 1.188-.5.457 0 .847.168 1.171.5.333.336.5.742.5 1.218zm1.421.032c0-.508-.129-.922-.375-1.235a2.754 2.754 0 0 0-.812-.703 3.296 3.296 0 0 0-.828-.328c-.242-.059-.36-.098-.36-.11 0-.058.008-.109.032-.14a.42.42 0 0 0 .046-.094.114.114 0 0 0 .016-.094.44.44 0 0 0-.062-.171c-.055-.07-.168-.13-.344-.172a2.011 2.011 0 0 0-.547-.078 1.28 1.28 0 0 0-.484.062c-.149.043-.22.113-.22.203 0 .043.016.082.048.11a.528.528 0 0 0 .11.093.23.23 0 0 1 .077.11c.008.043-.02.101-.078.172 0 .011-.129.05-.375.109-.25.055-.527.164-.828.328-.313.168-.598.41-.844.719-.242.305-.36.71-.36 1.219 0 .363.083.703.25 1.015.165.32.391.598.673.828.289.227.625.407 1 .532.37.12.765.187 1.172.187.394 0 .78-.066 1.156-.187.371-.125.703-.305.984-.532.278-.23.508-.507.688-.828.176-.312.265-.652.265-1.015zm-3.812-4.36H3.75a27.203 27.203 0 0 1-1.578-.047c-.211-.02-.41-.035-.594-.046L.984-4.75a1.801 1.801 0 0 0-.53.047c-.15.031-.247.082-.298.14-.043.063-.031.145.032.235.07.086.222.18.453.281.59.274 1.054.445 1.39.516.34.062.617.086.828.062.207-.027.383-.082.532-.156.152-.082.343-.133.562-.156.027 0 .32-.02.875-.063.559-.05 1.422-.082 2.578-.094h2.657c.351 0 .675.008.968.016.29.012.563.024.813.031.195.024.394.032.594.032.207-.008.39-.032.546-.063a.978.978 0 0 0 .391-.156.403.403 0 0 0 .172-.313c.008-.164-.102-.296-.328-.39a2.595 2.595 0 0 0-.844-.203 6.624 6.624 0 0 0-1.063.03c-.374.044-.71.118-1 .22-.085.043-.23.074-.437.093-.2.024-.426.04-.672.047-.25.012-.52.016-.797.016-.281 0-.543-.004-.781-.016v-1.672l2.672-.015c.238 0 .426-.047.562-.14a.502.502 0 0 0 .25-.345c.02-.113-.027-.234-.14-.359-.106-.133-.29-.234-.547-.297A4.613 4.613 0 0 0 10-7.469a5.007 5.007 0 0 0-.484 0 4.01 4.01 0 0 0-.47.063.96.96 0 0 0-.312.11c-.168.105-.363.179-.578.218-.21.031-.355.047-.437.047L5.125-7a.536.536 0 0 1-.313-.094c-.093-.07-.14-.187-.14-.343l-.016-2.22 5.547-.015c.238 0 .43-.039.578-.125.145-.09.227-.195.25-.312.028-.121-.02-.25-.14-.375-.118-.121-.305-.223-.563-.297-.117-.008-.258-.02-.422-.031a5.005 5.005 0 0 0-.484 0 4.01 4.01 0 0 0-.469.062 1.03 1.03 0 0 0-.312.094c-.157.105-.34.168-.547.187-.211.024-.371.031-.485.031l-2.937.016c-.367-.05-.73-.101-1.094-.156-.367-.059-.664-.082-.89-.063-.293.032-.493.086-.594.157-.106.062-.153.132-.14.203 0 .074.034.144.109.203a.574.574 0 0 0 .28.094c.31.093.532.183.657.265.133.086.203.242.203.469l.016 1.875c0 .25.039.457.125.61.09.148.21.261.36.343.132.074.288.129.468.156.183.024.375.032.562.032l1.438-.016zm0 0"/></symbol><symbol overflow="visible" id="t"><path d="M8.75-7.922c0 .531-.191.977-.563 1.328-.374.344-.804.516-1.28.516-.5 0-.934-.172-1.298-.516-.367-.351-.546-.797-.546-1.328 0-.527.18-.969.546-1.312a1.807 1.807 0 0 1 1.297-.532c.477 0 .907.18 1.282.532.37.343.562.785.562 1.312zm1.438.016c0-.52-.133-.946-.391-1.282a3.13 3.13 0 0 0-.844-.765 3.463 3.463 0 0 0-.86-.36c-.25-.058-.374-.097-.374-.109a.231.231 0 0 1 .015-.156c.02-.04.036-.078.047-.11a.44.44 0 0 0-.063-.281c-.073-.07-.206-.129-.39-.172a2.06 2.06 0 0 0-.562-.078 1.798 1.798 0 0 0-.516.047c-.156.043-.234.121-.234.235 0 .03.02.066.062.093.04.031.082.059.125.078.04.043.067.09.078.141.008.055-.027.117-.11.188 0 .011-.136.054-.405.124a3.419 3.419 0 0 0-.875.376c-.313.18-.606.433-.875.765-.262.324-.391.746-.391 1.266 0 .43.094.816.281 1.156.184.336.438.621.75.86.301.242.649.43 1.047.562.395.125.797.187 1.203.187.403 0 .801-.062 1.188-.187.394-.133.75-.32 1.062-.563.301-.238.547-.523.735-.859.195-.34.296-.727.296-1.156zm-4.094 4.75L6.14-.094c0 .34.004.672.015.985.02.32.051.601.094.843.05.246.11.446.172.594.07.145.172.211.297.203.258 0 .472-.32.64-.953.164-.637.243-1.476.235-2.516l-.047-2.25h2.5c.332 0 .633.008.906.016.277 0 .54.008.781.016a5.63 5.63 0 0 0 1.125-.016c.352-.05.536-.207.547-.469.008-.164-.097-.296-.312-.39a2.348 2.348 0 0 0-.813-.188 6.34 6.34 0 0 0-1.047.032 4.575 4.575 0 0 0-.984.218c-.125.055-.34.09-.64.11-.305.011-.637.015-1 .015H2.874a7.608 7.608 0 0 1-.656-.047 21.89 21.89 0 0 1-.547-.03c-.168-.02-.356-.04-.563-.063a1.941 1.941 0 0 0-.546.046c-.149.032-.243.075-.282.126-.054.074-.047.152.016.234.07.086.223.18.453.281.559.262 1.004.426 1.328.485.332.062.602.085.813.062.207-.02.382-.066.53-.14.153-.083.352-.133.595-.157h.125c.082-.008.21-.023.39-.047.164-.008.38-.02.64-.031l.923-.031zm0 0"/></symbol><symbol overflow="visible" id="u"><path d="M7.563-.188c0 .352-.118.665-.344.938a1.12 1.12 0 0 1-.89.406c-.368 0-.669-.136-.907-.406a1.412 1.412 0 0 1-.344-.938c0-.37.117-.695.36-.968.238-.27.535-.407.89-.407.363 0 .66.145.89.422.227.274.345.59.345.954zM6.327 1.86c.332 0 .64-.054.922-.156.29-.094.547-.238.766-.422.207-.18.375-.394.5-.64.12-.25.187-.528.187-.829 0-.402-.098-.734-.281-.984a2.047 2.047 0 0 0-.625-.562A2.156 2.156 0 0 0 7.187-2c-.18-.05-.265-.078-.265-.078 0-.05.004-.086.016-.11a.168.168 0 0 0 .03-.093c.02-.02.024-.04.016-.063a.659.659 0 0 0-.046-.156c-.043-.05-.137-.094-.282-.125a1.531 1.531 0 0 0-.422-.063 1.13 1.13 0 0 0-.406.047c-.117.032-.172.09-.172.172 0 .031.016.067.047.094.027.023.063.043.094.063.02.023.035.054.047.093.008.031-.008.082-.047.14L5.5-2c-.2.043-.414.133-.64.266-.231.136-.446.332-.641.578-.188.242-.282.566-.282.968 0 .301.063.579.188.829.121.246.29.46.5.64.215.184.473.328.766.422.289.102.601.156.937.156zm2.375-7.218l-.031-2.438c0-.144.008-.273.031-.39.02-.114.031-.22.031-.313a.44.44 0 0 0-.03-.219c-.032-.07-.102-.129-.204-.172-.086-.027-.195-.062-.328-.093-.137-.028-.277-.063-.422-.094-.148-.02-.277-.035-.39-.047a2.338 2.338 0 0 1-.235-.047c-.375-.02-.582.04-.61.172-.03.137.067.254.298.344.277.125.484.242.609.344.121.093.187.269.187.515l.047 4.25c0 .43.024.777.078 1.047.051.273.149.402.297.39.153 0 .305-.163.453-.5.145-.331.22-.812.22-1.437v-.797h1.718a.963.963 0 0 0 .453-.093c.113-.07.176-.157.188-.25.019-.09-.02-.188-.11-.282-.086-.09-.23-.164-.437-.218a4.332 4.332 0 0 0-.61-.016c-.219 0-.363.035-.422.094a.768.768 0 0 1-.359.187c-.148.031-.29.055-.422.063zm-5.25.28c.164.15.336.302.516.454.183.156.367.32.547.484.183.149.359.29.515.422.153.137.29.254.407.344.3.273.535.371.703.297.175-.07.207-.266.093-.578a.718.718 0 0 1-.109-.156 3.242 3.242 0 0 0-.172-.282 9.725 9.725 0 0 1-.25-.312 2.787 2.787 0 0 0-.25-.266c-.074-.027-.133-.05-.172-.062a.729.729 0 0 0-.125-.016c-.031-.008-.074-.02-.125-.031a1.677 1.677 0 0 1-.203-.094 2.66 2.66 0 0 1-.406-.266 11.538 11.538 0 0 1-.594-.453l.422-.687c.145-.239.27-.453.375-.64.04-.083.078-.157.11-.22a.347.347 0 0 0 .062-.187.369.369 0 0 0-.063-.188 1.094 1.094 0 0 0-.234-.25 2.205 2.205 0 0 0-.281-.156A10.153 10.153 0 0 0 3.5-8.25a.803.803 0 0 0-.234-.063c-.375-.05-.563-.019-.563.094.008.117.129.242.36.375.238.157.363.301.374.422a.792.792 0 0 1-.062.406 9.26 9.26 0 0 1-.656 1.25c-.25.399-.52.77-.797 1.11-.281.336-.57.633-.86.89a5.732 5.732 0 0 1-.812.641c-.117.074-.18.148-.188.219-.011.062.016.113.079.14a.53.53 0 0 0 .28.032c.122-.008.274-.063.454-.157a5.766 5.766 0 0 0 1.39-.968 16.45 16.45 0 0 0 1.188-1.22zm0 0"/></symbol><symbol overflow="visible" id="v"><path d="M7.328-7.797l-.11 2.531-3.359.047-.109-2.547zm-3.5 3.188h1.234c.215-.008.446-.02.688-.032.238-.007.473-.015.703-.015h.656c.207-.008.383-.016.532-.016.152-.008.273-.016.359-.016.176 0 .32-.023.438-.078.12-.05.187-.129.187-.234 0-.102-.059-.176-.172-.219a2.557 2.557 0 0 0-.265-.078L8.5-7.609a.43.43 0 0 1 .11-.235.657.657 0 0 0 .124-.218.217.217 0 0 0 .032-.188c-.024-.07-.106-.145-.25-.219a1.279 1.279 0 0 0-.657-.078c-.25.031-.457.082-.609.14-.055.032-.254.055-.594.063-.343 0-.726.008-1.14.016-.399.012-.774.015-1.125.015h-.563c-.074 0-.168-.003-.281-.015l-.344-.063a3.54 3.54 0 0 1-.39-.046 2.81 2.81 0 0 0-.391-.032c-.305.031-.496.117-.578.25-.086.137-.055.223.093.25.083.024.16.051.235.078.082.024.156.051.219.079.05.023.093.058.125.109.039.043.066.101.078.172l.219 2.75c.019.242.082.414.187.515.113.094.21.141.297.141.082 0 .176-.04.281-.125a.798.798 0 0 0 .25-.36zm1.047 2.078l.047 2.453c0 .27.004.535.016.797.007.258.03.484.062.672.04.195.086.351.14.468.06.114.141.172.235.172.207 0 .379-.258.516-.765.132-.512.195-1.184.187-2.016l-.047-1.797h2.735c.226 0 .437.008.625.016.32.023.617.015.89-.016.278-.027.43-.148.453-.36 0-.132-.09-.238-.265-.312a2.002 2.002 0 0 0-.64-.156 4.109 4.109 0 0 0-.845.031c-.293.031-.554.09-.78.172-.095.043-.27.07-.517.078-.242.012-.507.024-.796.031h-.829c-.261-.007-.457-.015-.578-.015H2.312c-.199-.008-.378-.02-.53-.031-.157-.008-.305-.02-.438-.032a5.425 5.425 0 0 1-.453-.046 1.667 1.667 0 0 0-.438.03.543.543 0 0 0-.234.11c-.043.063-.04.133.015.203.059.063.188.133.375.203.446.211.801.34 1.063.391.258.055.473.07.64.047.165-.02.305-.055.422-.11.121-.058.282-.101.47-.124h.108c.07 0 .176-.008.313-.032.133-.008.305-.02.516-.031l.734-.031zm0 0"/></symbol><symbol overflow="visible" id="w"><path d="M5.547.89v-7.359h-.64v2.907h-1.11v-2.063h-3v5.094h3V-2.97h1.11v3.86zm1.625.36v-7.89h-.64v7.89zM3.14-1.11H1.437v-3.952h1.704zm0 0"/></symbol><symbol overflow="visible" id="x"><path d="M6.89-2.11v-.546H1.907v-2.5h4.922v-.563H1.25v3.61zM7.845.048v-.563H.172v.563zm0 0"/></symbol><symbol overflow="visible" id="y"><path d="M6.875-1.719v-.562H1.922V-3.5h4.86v-.547h-4.86v-1.219h4.875v-.562H1.266v4.11zM7.844.11v-.562H.172v.562zm0 0"/></symbol><symbol overflow="visible" id="z"><path d="M7.844.266v-.547H4.312V-1.72h2.641v-.562H1.906v-1.297h4.735v-2.406H1.234v.562H6v1.297H1.266v2.406H3.64V-.28H.17v.547zm0 0"/></symbol><symbol overflow="visible" id="A"><path d="M5.766-2.969v-.562c-.149.031-.32.066-.516.094a13.76 13.76 0 0 1-.625.093c-.23.024-.473.043-.719.063-.242.023-.48.031-.719.031l-1.718.031V-6.28h-.64v3.625l2.343-.016c.52-.02 1.015-.062 1.484-.125.477-.058.848-.117 1.11-.172zm1.265.906V-6.64h-.656v4.579zM7.016 1.25V-1.5H1.469v.547h4.89V1.25zm0 0"/></symbol><symbol overflow="visible" id="B"><path d="M6.906-5.781H1.172v.547h5.031c-.012.199-.027.386-.047.562l-.093.734c-.231.043-.528.083-.891.11-.356.023-.707.043-1.047.062-.2.012-.465.024-.797.032H1.062v.546c.02 0 .145.008.375.016H3.22c.34-.008.633-.023.875-.047.34-.008.68-.023 1.015-.047a9.33 9.33 0 0 0 .875-.109c-.03.262-.07.512-.109.75-.031.242-.07.457-.11.64-.023.188-.05.348-.077.47a1.89 1.89 0 0 0-.032.187h.657c0-.008.007-.07.03-.188.02-.12.048-.285.079-.484.039-.195.082-.426.125-.688.039-.257.082-.546.125-.859.05-.383.098-.781.14-1.187.051-.414.083-.766.094-1.047zM7.844.187v-.562h-4.14v-2.031H3.03v2.031H.171v.563zm0 0"/></symbol><symbol overflow="visible" id="C"><path d="M5.797-.594v-.547a6.11 6.11 0 0 1-.484.063c-.188.023-.395.05-.61.078-.23.012-.465.027-.703.047-.23.012-.445.023-.64.031L1.53-.906v-1.938h3.094v-3H.875v.563h3.11v1.875H.874v3.062L3.25-.375c.215-.008.453-.02.703-.031.246-.02.488-.04.719-.063.226-.02.437-.039.625-.062.195-.02.363-.04.5-.063zM7.03 1.25v-7.89h-.656v7.89zm0 0"/></symbol><symbol overflow="visible" id="D"><path d="M6.766-6.64h-.657v7.89h.657v-3.969h1.25v-.578h-1.25zM4.5-3.126c0-.54-.066-.992-.188-1.36a2.981 2.981 0 0 0-.468-.906c-.2-.226-.418-.39-.656-.484a1.678 1.678 0 0 0-.672-.156c-.23 0-.465.054-.704.156a1.65 1.65 0 0 0-.625.469c-.199.23-.363.535-.484.906-.125.367-.187.824-.187 1.375 0 .543.054.996.171 1.36.122.367.282.667.47.906.195.23.41.398.64.5.238.093.476.14.719.14.226 0 .457-.05.687-.156.238-.102.457-.27.656-.5.184-.227.336-.523.454-.89.12-.364.187-.817.187-1.36zm-.64-.016c0 .325-.036.63-.094.907a3.291 3.291 0 0 1-.25.718A1.522 1.522 0 0 1 3.094-1a.988.988 0 0 1-.578.172A.971.971 0 0 1 1.937-1a1.447 1.447 0 0 1-.421-.5 2.54 2.54 0 0 1-.266-.734 4.719 4.719 0 0 1-.078-.907c0-.3.023-.586.078-.859.059-.277.148-.531.266-.75.113-.207.254-.367.421-.484a.957.957 0 0 1 .579-.188c.214 0 .41.067.578.188.164.117.304.277.422.484.101.219.187.473.25.75.058.273.093.559.093.86zm0 0"/></symbol><symbol overflow="visible" id="E"><path d="M6.453-3.266a3.288 3.288 0 0 1-.578-.156 5.377 5.377 0 0 1-.734-.344 3.112 3.112 0 0 1-.625-.468c-.18-.176-.266-.352-.266-.532V-5h1.813v-.375h-4.11V-5h1.813v.234c0 .18-.098.356-.282.532a3.67 3.67 0 0 1-.609.468c-.25.137-.504.254-.75.344-.242.086-.43.137-.563.156l.297.329c.102-.02.274-.07.516-.157.238-.082.477-.187.719-.312.207-.121.398-.258.578-.406.183-.145.3-.266.344-.36.027.094.132.215.312.36.184.148.383.285.594.406.226.125.46.23.703.312.238.086.422.137.547.156zm1.328.579c0-.434-.043-.829-.125-1.172a5.333 5.333 0 0 0-.281-.938 6.396 6.396 0 0 0-.39-.719 5.91 5.91 0 0 0-.36-.53h-.266c.332.468.582.995.75 1.577a6.176 6.176 0 0 1 0 3.578A5.63 5.63 0 0 1 6.36.656h.266c.113-.136.234-.316.36-.531.132-.207.265-.453.39-.734.113-.278.207-.594.281-.938a4.88 4.88 0 0 0 .125-1.14zM1.671.655A5.16 5.16 0 0 1 .907-.89a6.44 6.44 0 0 1-.25-1.796c0-.614.082-1.208.25-1.782.176-.582.43-1.11.766-1.578H1.39a6.68 6.68 0 0 0-.375.531A4.744 4.744 0 0 0 .36-3.86c-.075.344-.11.739-.11 1.173 0 .417.035.8.11 1.14.07.344.163.66.28.938.114.28.239.527.376.734.132.215.257.395.375.531zm5.11-2.719v-.374H1.234v.374h2.532v2.11h.484v-2.11zm0 0"/></symbol><symbol overflow="visible" id="F"><path d="M6.438-8.672v1.063h-4.25v2.796h3.984v1.063H2.188v3.016h4.328V.328H1v-9zm0 0"/></symbol><symbol overflow="visible" id="G"><path d="M5.125-.531a1.53 1.53 0 0 1-.797.734 2.888 2.888 0 0 1-1.125.219c-.844 0-1.488-.254-1.922-.75C.844-.836.625-1.555.625-2.484v-1.22c0-.444.063-.85.188-1.218.12-.371.3-.687.53-.937.227-.246.505-.438.829-.563.32-.133.68-.203 1.078-.203.508 0 .91.09 1.203.266.29.18.504.367.64.562v-3.312h1.173V.328H5.14v-.86zm-.016-3.594c0-.164-.043-.336-.125-.516a1.535 1.535 0 0 0-.359-.468 2.03 2.03 0 0 0-.563-.329 2.003 2.003 0 0 0-.703-.125c-.5 0-.894.18-1.171.532-.274.355-.407.863-.407 1.515v.829c0 .656.14 1.164.422 1.515.277.356.664.531 1.156.531.246 0 .477-.035.688-.109.207-.082.39-.195.547-.344.152-.152.281-.336.375-.547.09-.207.14-.445.14-.718zm0 0"/></symbol><symbol overflow="visible" id="H"><path d="M.844-6.5h1.172v4.234c0 .586.113 1.008.343 1.266.227.25.586.375 1.079.375.195 0 .394-.035.593-.11.196-.07.375-.175.532-.312.152-.133.28-.305.375-.516.09-.207.14-.44.14-.703V-6.5h1.188V.328H5.125v-.86h-.016c-.199.313-.46.552-.78.72-.325.175-.724.265-1.188.265-.325 0-.63-.055-.907-.156a1.969 1.969 0 0 1-.718-.438 2.19 2.19 0 0 1-.5-.765c-.118-.301-.172-.66-.172-1.078zm0 0"/></symbol><symbol overflow="visible" id="I"><path d="M3.469-6.625c.539 0 .988.074 1.344.219.351.136.664.316.937.531l-.563.906a3.097 3.097 0 0 0-.843-.468 2.922 2.922 0 0 0-.875-.125c-.219 0-.434.042-.64.125a1.38 1.38 0 0 0-.532.359 1.75 1.75 0 0 0-.36.61c-.093.25-.14.55-.14.89v.875c0 .367.047.68.14.937.09.262.22.477.375.641.153.156.333.277.532.36.207.074.422.109.64.109.434 0 .797-.055 1.079-.172.289-.121.554-.274.796-.453l.563.922c-.242.199-.559.375-.953.53-.387.165-.887.25-1.5.25-.918 0-1.63-.273-2.125-.812C.852-.94.609-1.71.609-2.703v-.86c0-.488.067-.921.204-1.296.132-.383.32-.707.562-.97.246-.257.55-.456.906-.593a3.35 3.35 0 0 1 1.188-.203zm0 0"/></symbol><symbol overflow="visible" id="J"><path d="M2.781.422c-.668 0-1.199-.168-1.594-.5C.801-.418.61-.895.61-1.5v-.328c0-.582.188-1.055.563-1.422.383-.371 1-.563 1.844-.563h1.687v-.39c0-.457-.113-.797-.328-1.016-.21-.226-.559-.343-1.047-.343-.387 0-.726.066-1.015.187a5.978 5.978 0 0 0-.891.5l-.578-.89c.32-.239.687-.442 1.094-.61.402-.164.875-.25 1.406-.25.37 0 .71.05 1.015.14.301.094.563.239.782.423.226.187.406.417.53.687.122.273.188.582.188.922V.328H4.734V-.5H4.72a1.164 1.164 0 0 1-.266.344 1.841 1.841 0 0 1-.344.265c-.18.102-.37.18-.578.235-.21.05-.46.078-.75.078zm1.922-3.203H3.047c-.469 0-.805.097-1 .281-.2.18-.297.43-.297.75v.172c0 .336.113.582.344.734.226.149.5.219.812.219.29 0 .54-.035.75-.11.215-.07.414-.175.594-.312a.994.994 0 0 0 .344-.422c.07-.164.11-.379.11-.64zm0 0"/></symbol><symbol overflow="visible" id="K"><path d="M1.36-5.469H.265V-6.5h1.093v-1.734h1.172V-6.5h1.75v1.031h-1.75v3.89c0 .212.02.38.063.5.039.126.097.227.172.298.07.062.16.113.265.14.114.024.227.032.344.032.29 0 .582-.055.875-.172l.188.984a4.19 4.19 0 0 1-.563.14 2.98 2.98 0 0 1-.672.079c-.637 0-1.105-.164-1.406-.484-.293-.32-.438-.829-.438-1.516zm0 0"/></symbol><symbol overflow="visible" id="L"><path d="M2.156-6.5V.328H.984V-6.5zm.031-2.453v1.328H.938v-1.328zm0 0"/></symbol><symbol overflow="visible" id="M"><path d="M3.563-6.625c.902 0 1.624.273 2.156.813.527.542.797 1.308.797 2.296v.829c0 .992-.27 1.757-.797 2.296-.532.54-1.254.813-2.157.813-.917 0-1.644-.274-2.171-.813C.867-.93.609-1.695.609-2.687v-.829c0-.996.258-1.765.782-2.296.527-.54 1.254-.813 2.171-.813zm0 5.984c.519 0 .94-.175 1.265-.53.332-.352.5-.891.5-1.61v-.64c0-.716-.168-1.255-.5-1.61-.324-.352-.746-.532-1.266-.532-.53 0-.96.18-1.28.532-.325.355-.485.894-.485 1.61v.64c0 .719.16 1.258.484 1.61.32.355.75.53 1.281.53zm0 0"/></symbol><symbol overflow="visible" id="N"><path d="M6.406.328H5.234v-4.25c0-.57-.12-.988-.359-1.25-.23-.258-.59-.39-1.078-.39-.211 0-.414.039-.61.109a1.636 1.636 0 0 0-.922.828c-.093.21-.14.45-.14.719V.328H.937V-6.5h1.141v.86h.016c.195-.32.46-.567.797-.735.332-.164.726-.25 1.187-.25.32 0 .625.055.906.156.278.094.524.242.735.438.215.199.383.457.5.765.12.305.187.664.187 1.079zm0 0"/></symbol><symbol overflow="visible" id="aC"><path d="M1-8.672h3.11c.495 0 .93.067 1.296.188.364.125.66.304.89.53.24.231.415.509.532.829.121.313.188.652.188 1.016v.265c0 .367-.067.711-.188 1.032a2.337 2.337 0 0 1-.562.843 2.637 2.637 0 0 1-.907.578c-.355.137-.773.204-1.25.204H2.188V.328H1zm1.188 1.063v3.359h1.718c1.258 0 1.89-.54 1.89-1.625v-.219c0-.508-.151-.89-.452-1.14-.305-.246-.739-.375-1.297-.375zm0 0"/></symbol><symbol overflow="visible" id="aD"><path d="M3-.625c.434 0 .773-.078 1.016-.234a.738.738 0 0 0 .375-.657v-.093a.941.941 0 0 0-.063-.36.602.602 0 0 0-.234-.265 2.26 2.26 0 0 0-.469-.204 11.98 11.98 0 0 0-.75-.203 5.824 5.824 0 0 1-.969-.265 3.106 3.106 0 0 1-.718-.39 1.5 1.5 0 0 1-.454-.563 1.914 1.914 0 0 1-.14-.766v-.156c0-.227.047-.457.14-.688.102-.226.254-.426.454-.593.195-.165.453-.301.765-.407.309-.101.68-.156 1.11-.156.445 0 .867.055 1.265.156.395.106.754.278 1.078.516l-.515.906a2.57 2.57 0 0 0-.782-.39 3.051 3.051 0 0 0-.968-.157c-.493 0-.848.082-1.063.235a.709.709 0 0 0-.312.593v.11c0 .273.109.472.328.593.215.125.586.243 1.11.344a6.41 6.41 0 0 1 1.046.281c.3.106.547.243.734.407.196.156.344.351.438.578.09.219.14.492.14.812v.157c0 .261-.058.511-.171.75a1.9 1.9 0 0 1-.5.609 2.572 2.572 0 0 1-.797.39 3.385 3.385 0 0 1-1.047.157A4.763 4.763 0 0 1 1.53.188C1.082.039.7-.156.391-.406l.546-.938c.29.211.602.383.938.516.34.137.719.203 1.125.203zm0 0"/></symbol><symbol overflow="visible" id="O"><path d="M4.875-5.125c0-.75-.156-1.234-.516-1.531-.328-.282-.875-.407-1.515-.407-1.281 0-1.985.36-1.985 1.47h.438c0-.798.5-1.048 1.578-1.048.766 0 1.219.188 1.406.594.11.234.157.531.157.922 0 .516-.11.844-.344 1.094-.375.437-1.438.672-2.032.906C1.345-2.844.86-2.437.86-1.531V0h4v-.422H1.297v-.906c0-.75.125-1.063.875-1.39.547-.235 1.719-.485 2.219-.97.343-.343.484-.796.484-1.437zm0 0"/></symbol><symbol overflow="visible" id="P"><path d="M4.922-3.484c0-1.766-.047-2.235-.25-2.657-.313-.64-.89-.921-1.828-.921-.938 0-1.516.28-1.813.921-.203.422-.25.891-.25 2.657 0 1.53.031 2.03.172 2.421.25.782.875 1.141 1.89 1.141 1.032 0 1.657-.36 1.923-1.14.125-.391.156-.891.156-2.422zm-.438 0c0 1.53-.046 2.062-.203 2.421-.203.485-.61.72-1.437.72-.813 0-1.219-.235-1.438-.72-.14-.359-.187-.89-.187-2.421 0-1.344.047-1.938.14-2.266.188-.61.594-.89 1.485-.89.906 0 1.312.28 1.5.89.093.328.14.922.14 2.266zm0 0"/></symbol><symbol overflow="visible" id="Q"><path d="M4.328 0v-.422h-1.64V-7h-.422L.562-5.437l.282.296L2.25-6.437v6.015H.594V0zm0 0"/></symbol><symbol overflow="visible" id="av"><path d="M4.828-1.906c0-.953-.234-1.532-1-1.735.766-.234.938-.875.938-1.64 0-1.313-.563-1.782-2.016-1.782-1.313 0-2.016.36-2.016 1.47h.422c0-.782.5-1.048 1.594-1.048 1.219 0 1.578.313 1.578 1.391 0 1.188-.516 1.406-1.578 1.406h-.953v.422h.953c.625 0 .969.063 1.234.266.282.219.407.594.407 1.281 0 1.25-.516 1.531-1.672 1.531-1.078 0-1.563-.281-1.563-1.078H.734c0 1.172.797 1.5 1.985 1.5 1.406 0 2.11-.469 2.11-1.984zm0 0"/></symbol><symbol overflow="visible" id="R"><path d="M2.922-6.906H.625V.39h2.297C3.43.39 3.89.293 4.297.109c.402-.175.754-.43 1.047-.765.289-.309.52-.692.687-1.14.164-.446.25-.93.25-1.454 0-.508-.086-.988-.25-1.438a3.663 3.663 0 0 0-.687-1.156 3.172 3.172 0 0 0-1.047-.781 3.313 3.313 0 0 0-1.375-.281zM2.844.016H1.078v-6.532h1.766c.465 0 .883.09 1.25.266.363.168.664.398.906.688.246.292.438.636.563 1.03.132.4.203.825.203 1.282 0 .43-.07.84-.204 1.234A3.107 3.107 0 0 1 5-.969a2.563 2.563 0 0 1-.906.719 2.81 2.81 0 0 1-1.25.266zm0 0"/></symbol><symbol overflow="visible" id="S"><path d="M5.11-2.234c0-.434-.067-.832-.188-1.188a2.925 2.925 0 0 0-.5-.922 2.513 2.513 0 0 0-.797-.578 2.247 2.247 0 0 0-.938-.203 2.222 2.222 0 0 0-1.765.844c-.211.261-.371.566-.485.906-.105.344-.156.71-.156 1.094 0 .406.051.785.156 1.125.114.343.274.648.485.906a2.222 2.222 0 0 0 1.766.844c.308.008.593-.04.843-.14C3.777.358 4 .23 4.187.077c.165-.144.305-.312.422-.5.121-.183.22-.367.282-.547l-.47-.015c-.105.324-.3.601-.577.828-.281.215-.668.328-1.156.328-.243 0-.477-.059-.704-.172a1.987 1.987 0 0 1-.625-.484 2.576 2.576 0 0 1-.468-.75 2.602 2.602 0 0 1-.172-.985zM.75-2.61c0-.29.05-.563.156-.813.102-.258.242-.484.422-.672.176-.195.379-.347.61-.453.226-.113.476-.172.75-.172.238 0 .472.055.703.157.238.105.445.253.625.437.183.18.332.398.437.656.113.262.176.551.188.86zm0 0"/></symbol><symbol overflow="visible" id="T"><path d="M4.984-4.89h-.453l.016 1.046a1.748 1.748 0 0 0-.797-.922 2.367 2.367 0 0 0-1.188-.328c-.343 0-.664.07-.953.203a2.03 2.03 0 0 0-.718.532c-.2.218-.352.492-.454.812A3.273 3.273 0 0 0 .281-2.5c0 .387.051.742.156 1.063.102.312.254.585.454.812.195.242.437.426.718.547.29.121.61.187.954.187.414 0 .796-.101 1.14-.296.352-.208.625-.516.813-.922l.015.937c0 .508-.164.938-.484 1.281-.313.352-.746.532-1.297.532-.262 0-.504-.04-.719-.11a1.877 1.877 0 0 1-.547-.297A1.835 1.835 0 0 1 1.11.797 1.4 1.4 0 0 1 .922.312H.516c.02.184.078.38.171.579.09.195.227.39.407.578.183.176.414.32.687.437.27.114.594.172.969.172.332 0 .633-.058.906-.172.27-.117.504-.273.703-.468a2.25 2.25 0 0 0 .454-.735 2.27 2.27 0 0 0 .171-.875zM2.641-.282c-.293 0-.559-.051-.797-.156-.23-.114-.43-.27-.594-.47a1.9 1.9 0 0 1-.375-.702A3.012 3.012 0 0 1 .75-2.5c0-.645.164-1.172.5-1.578.34-.402.805-.61 1.39-.61.57 0 1.032.208 1.376.61.34.406.515.933.515 1.578 0 .313-.05.613-.14.89a2.02 2.02 0 0 1-.375.704c-.168.199-.371.355-.61.469-.23.105-.488.156-.765.156zm0 0"/></symbol><symbol overflow="visible" id="U"><path d="M3.078-5.078a2.371 2.371 0 0 0-.515.047 1.89 1.89 0 0 0-.594.187c-.18.094-.348.223-.5.375-.149.149-.278.29-.39.422v-.844H.624V.391h.453v-3.157c0-.425.07-.75.219-.968.152-.227.379-.446.672-.657a1.34 1.34 0 0 1 .593-.218 4.24 4.24 0 0 1 .516-.047zm0 0"/></symbol><symbol overflow="visible" id="W"><path d="M7.125.422v-7.313H6.5L3.875-.109l-2.64-6.782h-.61V.422h.453V-6.11L3.594.39h.531l2.531-6.532.016 6.563zm0 0"/></symbol><symbol overflow="visible" id="X"><path d="M4.688-3.438c.12-.05.242-.128.359-.234.121-.113.234-.254.328-.422.082-.152.145-.336.188-.547a2.06 2.06 0 0 0 .03-.703A1.749 1.749 0 0 0 5-6.454c-.344-.3-.832-.452-1.453-.452H.625V.39h2.844c.77 0 1.36-.176 1.765-.516.403-.352.63-.816.672-1.39.02-.27-.011-.516-.093-.735a1.963 1.963 0 0 0-.313-.578 2.173 2.173 0 0 0-.422-.375 3.108 3.108 0 0 0-.39-.235zm-1.032-.171H1.078v-2.907h2.578c.258 0 .485.043.672.125.195.086.363.196.5.329.113.148.203.308.266.484.07.168.11.348.11.531 0 .18-.036.356-.095.531a1.24 1.24 0 0 1-.265.454c-.125.136-.29.246-.485.328-.199.086-.433.125-.703.125zM3.72.016h-2.64V-3.22H3.75c.227 0 .445.04.656.11.207.074.39.18.547.312.152.137.281.3.375.485.09.187.14.402.14.64 0 .512-.167.926-.5 1.234-.323.305-.741.454-1.25.454zm0 0"/></symbol><symbol overflow="visible" id="Y"><path d="M6.5.422L3.422-6.906h-.469L-.109.406h.453l.906-2.125h3.906l.89 2.14zM4.984-2.094H1.406l1.797-4.281zm0 0"/></symbol><symbol overflow="visible" id="Z"><path d="M2.078 1.766h.281C1.86.89 1.492.043 1.266-.766A8.644 8.644 0 0 1 .922-3.14c0-.77.113-1.562.344-2.375.226-.82.593-1.675 1.093-2.562h-.28c-.157.23-.337.512-.532.844-.188.336-.367.71-.531 1.125-.18.43-.325.894-.438 1.39A6.81 6.81 0 0 0 .406-3.14c0 .563.055 1.098.172 1.594.113.492.258.945.438 1.36.164.414.343.785.53 1.109.196.332.376.613.532.844zm0 0"/></symbol><symbol overflow="visible" id="aa"><path d="M5.031.422S5.008.324 4.97.14a3.422 3.422 0 0 1-.047-.594v-2.875a1.62 1.62 0 0 0-.172-.75 1.85 1.85 0 0 0-.469-.563 2.163 2.163 0 0 0-.703-.328 2.893 2.893 0 0 0-1.734.016 1.85 1.85 0 0 0-.688.375c-.199.156-.355.34-.468.547-.118.21-.165.433-.141.672h.422c0-.196.039-.375.125-.532.09-.164.222-.304.39-.421.164-.114.352-.204.563-.266a2.61 2.61 0 0 1 .687-.094c.54 0 .957.133 1.25.39.301.25.454.552.454.891a.498.498 0 0 1-.094.297.768.768 0 0 1-.219.203 1.543 1.543 0 0 1-.297.157 1.55 1.55 0 0 1-.281.062 5.848 5.848 0 0 1-.5.078c-.18.024-.363.043-.547.063-.188.023-.379.043-.563.062a3.68 3.68 0 0 0-.484.094c-.355.105-.652.3-.89.578C.32-1.516.219-1.164.25-.75.277-.3.484.04.86.281c.37.239.831.34 1.374.313A3.04 3.04 0 0 0 3.5.204c.402-.216.719-.458.938-.72 0 .188.015.38.046.563.028.195.055.316.079.36zM4.438-1.36c0 .199-.075.386-.22.562a2.978 2.978 0 0 1-.53.469A3.295 3.295 0 0 1 2.984 0a2.33 2.33 0 0 1-.656.156C1.86.196 1.465.133 1.156-.03.844-.207.688-.477.688-.844c0-.258.085-.504.265-.734.184-.238.485-.406.89-.5.083-.008.208-.024.376-.047l.531-.063.563-.078c.183-.027.332-.054.437-.078a1.64 1.64 0 0 0 .344-.11c.12-.05.238-.116.343-.202zm0 0"/></symbol><symbol overflow="visible" id="ab"><path d="M3.5-2.25a4.283 4.283 0 0 0-.375-.11c-.137-.027-.27-.062-.39-.093-.137-.027-.274-.055-.407-.078a1.974 1.974 0 0 1-.344-.11c-.093-.027-.21-.066-.343-.109a1.449 1.449 0 0 1-.375-.203 1.211 1.211 0 0 1-.344-.297.546.546 0 0 1-.094-.422.894.894 0 0 1 .485-.781A2.152 2.152 0 0 1 2.39-4.72c.476 0 .863.137 1.156.407.3.273.453.582.453.921h.453a1.32 1.32 0 0 0-.11-.562 1.823 1.823 0 0 0-.39-.578 2.04 2.04 0 0 0-.64-.438 2.273 2.273 0 0 0-.907-.172c-.336 0-.629.051-.875.141a2.048 2.048 0 0 0-.61.328c-.167.149-.3.317-.39.5-.086.18-.133.352-.14.516a.871.871 0 0 0 .093.484c.07.137.164.258.282.36.113.105.238.195.375.265.144.074.285.133.421.172.114.055.239.098.375.125.133.031.27.059.407.078.144.031.285.067.422.094.144.023.273.055.39.094.121.062.254.129.39.187.134.063.25.137.345.219.101.094.18.207.234.328a.655.655 0 0 1 .063.39.986.986 0 0 1-.22.485 1.337 1.337 0 0 1-.421.328c-.156.09-.336.156-.531.188-.2.039-.383.062-.547.062-.23 0-.461-.027-.688-.078a2.166 2.166 0 0 1-.593-.234A1.376 1.376 0 0 1 .75-.547a1.083 1.083 0 0 1-.14-.625H.155c-.011.2.02.41.094.625.082.211.219.402.406.578.176.176.414.32.719.438.3.113.672.164 1.11.156.32 0 .609-.05.859-.14.246-.087.46-.196.64-.329.176-.136.317-.289.422-.469.102-.183.172-.382.203-.593a.923.923 0 0 0-.078-.5 1.1 1.1 0 0 0-.265-.39 1.965 1.965 0 0 0-.391-.266A2.39 2.39 0 0 0 3.5-2.25zm0 0"/></symbol><symbol overflow="visible" id="ac"><path d="M1.922-4.61v-.406L1.188-5v-1.61h-.47V-5l-.624-.016v.407h.625v3.984c0 .148.004.277.015.39.02.118.063.215.125.297.04.083.11.16.204.235.09.07.203.11.328.11h.437V.015h-.281A.7.7 0 0 1 1.407 0a.327.327 0 0 1-.11-.078.305.305 0 0 1-.094-.094.439.439 0 0 1-.016-.125.684.684 0 0 1-.015-.156c.008-.059.016-.129.016-.203V-4.61zm0 0"/></symbol><symbol overflow="visible" id="ad"><path d="M2.703-5.094c-.387 0-.73.082-1.031.235a2.138 2.138 0 0 0-.75.593 2.537 2.537 0 0 0-.485.907A3.77 3.77 0 0 0 .281-2.25c0 .398.051.77.156 1.11.102.343.266.648.485.906.195.257.445.46.75.609.3.152.644.234 1.031.234A2.282 2.282 0 0 0 4.47-.235c.215-.257.383-.562.5-.906.113-.34.172-.71.172-1.109a3.53 3.53 0 0 0-.172-1.11 2.92 2.92 0 0 0-.5-.906 2.391 2.391 0 0 0-.766-.593 2.204 2.204 0 0 0-1-.235zm0 5.266c-.293 0-.566-.067-.812-.188a1.883 1.883 0 0 1-.625-.515 2.36 2.36 0 0 1-.391-.766c-.094-.289-.14-.61-.14-.953 0-.332.046-.648.14-.953.09-.3.223-.555.39-.766.176-.215.383-.39.626-.515.246-.121.52-.188.812-.188.277 0 .54.067.781.188.246.125.457.3.625.515.176.211.313.465.407.766a2.99 2.99 0 0 1 0 1.906c-.094.293-.23.55-.407.766a1.773 1.773 0 0 1-.625.515 1.732 1.732 0 0 1-.78.188zm0 0"/></symbol><symbol overflow="visible" id="ae"><path d="M1.906-4.61V-5h-.718v-.86c0-.07-.008-.132-.016-.187 0-.058.004-.113.016-.156 0-.04.003-.078.015-.11a.43.43 0 0 1 .078-.109.198.198 0 0 1 .11-.078c.05-.008.109-.016.171-.016h.266v-.39h-.437a.527.527 0 0 0-.329.11.768.768 0 0 0-.203.218.722.722 0 0 0-.125.312 3.798 3.798 0 0 0-.015.375V-5l-.625-.016v.407h.625V.484h.469v-5.093zm0 0"/></symbol><symbol overflow="visible" id="af"><path d="M4.86.422v-5.313h-.454v3.438c0 .18-.05.363-.14.547-.094.187-.23.363-.407.515-.168.168-.367.301-.593.391-.23.102-.48.156-.75.156-.45 0-.82-.148-1.11-.437-.281-.29-.422-.676-.422-1.156v-3.454H.516v3.532c0 .293.046.558.14.796.09.243.223.446.39.61.165.164.364.297.595.39.226.102.472.157.734.157.488 0 .898-.098 1.234-.281.34-.18.602-.41.782-.704l.015.813zm0 0"/></symbol><symbol overflow="visible" id="ag"><path d="M1.188-6.203v-.688H.53v.688zM1.093.39v-5.454H.625V.391zm0 0"/></symbol><symbol overflow="visible" id="ah"><path d="M4.969.39v-3.562c0-.27-.055-.52-.157-.75a2.014 2.014 0 0 0-.39-.625 1.868 1.868 0 0 0-.594-.39 1.777 1.777 0 0 0-.719-.157c-.492 0-.91.102-1.25.297-.336.188-.59.434-.765.734l-.016-.828H.625V.391h.453v-3.438a1.2 1.2 0 0 1 .14-.531 1.7 1.7 0 0 1 .391-.531c.164-.153.364-.286.594-.391.227-.113.485-.172.766-.172.445 0 .812.149 1.094.438.289.293.437.68.437 1.156V.39zm0 0"/></symbol><symbol overflow="visible" id="ai"><path d="M5 .422v-7.328h-.469v3.031a2.343 2.343 0 0 0-.828-.875 2.017 2.017 0 0 0-1.125-.344c-.355 0-.68.074-.969.219a2.155 2.155 0 0 0-.718.61c-.2.25-.356.55-.47.89A3.84 3.84 0 0 0 .267-2.25c0 .398.05.77.156 1.11.113.343.27.648.469.906.195.257.437.46.718.609A2.053 2.053 0 0 0 3.72.25c.363-.23.64-.535.828-.922L4.53.422zM2.64.188C2.349.188 2.083.12 1.845 0c-.23-.121-.43-.3-.594-.531a2.191 2.191 0 0 1-.375-.766A3.447 3.447 0 0 1 .75-2.25c0-.332.04-.645.125-.938.082-.3.207-.562.375-.78.164-.216.363-.391.594-.516.238-.133.504-.204.797-.204.289 0 .55.07.78.204.24.125.438.3.595.515.164.219.289.48.375.781.09.293.14.606.14.938 0 .336-.05.652-.14.953-.086.293-.211.55-.375.766-.157.23-.356.41-.594.531a1.66 1.66 0 0 1-.781.188zm0 0"/></symbol><symbol overflow="visible" id="aj"><path d="M7.297.39v-3.656c0-.226-.04-.445-.11-.656a2.212 2.212 0 0 0-.312-.594c-.125-.164-.29-.3-.484-.406a1.306 1.306 0 0 0-.657-.172 1.77 1.77 0 0 0-.687.125c-.2.074-.371.164-.516.266-.148.105-.27.215-.36.328-.093.117-.163.21-.202.281a1.773 1.773 0 0 0-.5-.687 1.2 1.2 0 0 0-.828-.313 1.77 1.77 0 0 0-.938.25 1.862 1.862 0 0 0-.64.64v-.687H.625V.391h.453v-3.5c0-.184.035-.375.11-.563a1.51 1.51 0 0 1 .312-.515c.121-.145.273-.258.453-.344.184-.09.39-.14.61-.14.394 0 .687.151.874.452.196.305.297.676.297 1.11L3.75.39h.438v-3.5c0-.434.132-.805.406-1.11.277-.3.64-.453 1.078-.453.394 0 .687.152.875.453.183.305.281.676.281 1.11v3.5zm0 0"/></symbol><symbol overflow="visible" id="ak"><path d="M.563-8.078H.28c.496.887.864 1.742 1.094 2.562a8.43 8.43 0 0 1 .36 2.375c0 .774-.122 1.567-.36 2.375C1.145.043.777.891.281 1.766h.281c.153-.23.329-.512.516-.844.195-.324.379-.695.547-1.11.176-.414.32-.867.438-1.359A6.725 6.725 0 0 0 2.25-3.14c0-.558-.066-1.086-.188-1.578a9.352 9.352 0 0 0-.437-1.39 8.878 8.878 0 0 0-.547-1.125 14.109 14.109 0 0 0-.516-.844zm0 0"/></symbol><symbol overflow="visible" id="al"><path d="M5.938-6.89h-.485L5.47-2c0 .68-.207 1.207-.61 1.578-.398.375-.933.563-1.609.563-.68 0-1.223-.188-1.625-.563C1.227-.793 1.031-1.32 1.031-2v-4.89H.594L.578-1.876c0 .355.055.684.172.984.121.305.297.567.516.782.238.226.52.398.843.515.332.121.711.188 1.141.188.426 0 .8-.067 1.125-.188.332-.117.617-.289.86-.515.214-.215.39-.477.515-.782.121-.3.188-.629.188-.984zm0 0"/></symbol><symbol overflow="visible" id="am"><path d="M5-4.922h-.438L2.547-.234l-2-4.688H.078L2.344.391h.437zm0 0"/></symbol><symbol overflow="visible" id="an"><path d="M4.813-4.906h-.47L2.485-.484.625-4.906H.156L2.22.109l-.406 1.032c-.055.144-.122.27-.204.375-.074.101-.191.156-.343.156H.969v.39h.234c.152.008.274.004.36-.015a.534.534 0 0 0 .265-.125c.102-.086.188-.192.25-.313.059-.125.129-.285.203-.468zm0 0"/></symbol><symbol overflow="visible" id="ao"><path d="M8.61-6.906h-.438L6.375-.203 4.547-6.891H4.03L2.234-.203.391-6.891h-.422L1.984.47h.47l1.827-6.64L6.125.468h.469zm0 0"/></symbol><symbol overflow="visible" id="ap"><path d="M4.969.39v-3.562c0-.27-.055-.52-.157-.75a2.014 2.014 0 0 0-.39-.625 1.868 1.868 0 0 0-.594-.39 1.777 1.777 0 0 0-.719-.157c-.511 0-.93.102-1.25.297a2.707 2.707 0 0 0-.78.703v-2.812H.624V.39h.453v-3.532c0-.144.047-.304.14-.484.09-.176.223-.344.391-.5a2.41 2.41 0 0 1 .594-.375c.227-.113.485-.172.766-.172.445 0 .812.149 1.094.438.289.293.437.68.437 1.156V.39zm0 0"/></symbol><symbol overflow="visible" id="aq"><path d="M4.36-3.234a17.702 17.702 0 0 0-1.22-.313c-.199-.039-.386-.078-.562-.11a4.13 4.13 0 0 1-.437-.124c-.137-.051-.286-.11-.438-.172a1.514 1.514 0 0 1-.406-.281 1.303 1.303 0 0 1-.281-.407 1.356 1.356 0 0 1-.079-.578c.02-.457.22-.82.594-1.093.383-.278.86-.422 1.422-.422.277 0 .547.054.797.156.246.105.473.242.672.406.176.18.316.379.422.594.101.219.156.457.156.703h.438c.019-.176-.012-.395-.094-.656a2.147 2.147 0 0 0-.407-.75 2.288 2.288 0 0 0-.78-.61c-.337-.175-.739-.265-1.204-.265-.43 0-.793.066-1.094.187-.304.117-.554.27-.75.453-.199.18-.351.383-.453.61-.094.23-.152.46-.172.687-.043.461.079.84.36 1.14.277.306.648.52 1.11.641.163.055.335.102.515.141.183.043.379.086.578.125.195.055.39.106.578.156.184.043.363.098.531.157.332.156.602.37.813.64.215.262.304.57.265.922-.043.25-.132.473-.265.656-.137.18-.309.332-.516.454-.21.124-.441.218-.687.28a3.313 3.313 0 0 1-1.688-.03 1.745 1.745 0 0 1-.75-.376 1.812 1.812 0 0 1-.516-.656c-.117-.258-.167-.57-.156-.937H.25c-.023.343.02.676.125.984.113.305.285.574.516.813.226.226.515.406.859.53.352.134.766.204 1.234.204.403 0 .77-.059 1.094-.172a2.65 2.65 0 0 0 .828-.437c.215-.176.39-.383.516-.625a2.57 2.57 0 0 0 .25-.75c.039-.414-.067-.79-.313-1.125a2.201 2.201 0 0 0-1-.75zm0 0"/></symbol><symbol overflow="visible" id="ar"><path d="M4.469-1.078a1.725 1.725 0 0 1-.625.906 1.876 1.876 0 0 1-1.125.344c-.305 0-.574-.059-.813-.172a1.883 1.883 0 0 1-.625-.516 2.36 2.36 0 0 1-.39-.765C.797-1.582.75-1.906.75-2.25c0-.34.047-.66.14-.953.09-.3.223-.555.391-.766.176-.215.383-.39.625-.515.239-.121.508-.188.813-.188.277 0 .52.05.719.14.207.095.382.212.53.345.145.125.259.273.345.437.082.156.144.3.187.422h.453a1.982 1.982 0 0 0-.219-.578 2.613 2.613 0 0 0-.453-.578 2.628 2.628 0 0 0-.687-.422 2.066 2.066 0 0 0-.875-.188c-.387 0-.73.082-1.031.235a2.309 2.309 0 0 0-.766.593c-.211.262-.371.567-.485.907A3.77 3.77 0 0 0 .281-2.25c0 .398.051.77.156 1.11.114.343.274.648.485.906.207.257.46.46.765.609.301.152.645.234 1.032.234.308 0 .594-.054.844-.156.257-.105.484-.238.671-.39.184-.153.336-.333.454-.532.12-.207.21-.41.265-.61zm0 0"/></symbol><symbol overflow="visible" id="as"><path d="M1.094.39v-7.296H.625V.39zm0 0"/></symbol><symbol overflow="visible" id="at"><path d="M1.328.172H.391v.812h.578c-.024.082-.051.157-.078.22a.538.538 0 0 1-.125.155.791.791 0 0 1-.157.11c-.054.027-.117.066-.187.11l.203.218c.09-.043.195-.106.313-.188a.924.924 0 0 0 .265-.312c.059-.125.098-.211.11-.25.007-.043.015-.145.015-.297zm0 0"/></symbol><symbol overflow="visible" id="au"><path d="M3.61-6.906H.624V.39h.453v-3.016H3.61c.34 0 .66-.047.954-.14.289-.102.546-.239.765-.407a2.17 2.17 0 0 0 .5-.656c.121-.258.188-.555.188-.89 0-.321-.067-.618-.188-.891-.125-.27-.293-.5-.5-.688a2.542 2.542 0 0 0-.766-.437 2.631 2.631 0 0 0-.953-.172zm.015 3.89H1.078v-3.5h2.547c.246 0 .488.043.719.125.238.075.441.184.61.329.175.156.312.351.405.578.102.218.157.476.157.765 0 .293-.055.543-.157.75-.093.211-.23.387-.406.531a1.582 1.582 0 0 1-.61.329c-.23.062-.472.093-.718.093zm0 0"/></symbol><symbol overflow="visible" id="aw"><path d="M5.813-6.89h-.454L2.891-2.845.406-6.89H-.03l2.703 4.454L2.656.469h.453l.016-2.922zm0 0"/></symbol><symbol overflow="visible" id="ax"><path d="M3.016-5.11c-.407 0-.79.122-1.141.36a2.386 2.386 0 0 0-.797.875v-1.016H.625v7h.453V-.67a2 2 0 0 0 .797.921c.352.227.734.344 1.14.344.352 0 .672-.074.954-.219.289-.148.535-.352.734-.61.195-.245.352-.546.469-.89.113-.352.172-.727.172-1.125a3.314 3.314 0 0 0-.64-2.016 2.421 2.421 0 0 0-.735-.609 1.98 1.98 0 0 0-.953-.234zM2.953.173c-.293 0-.555-.067-.781-.188a1.78 1.78 0 0 1-.594-.515 2.36 2.36 0 0 1-.39-.766 3.447 3.447 0 0 1-.125-.953c0-.332.039-.648.125-.953.09-.3.222-.555.39-.766.164-.226.363-.406.594-.531.226-.133.488-.203.781-.203.29 0 .55.07.781.203.239.125.442.305.61.531.164.211.289.465.375.766a3.308 3.308 0 0 1 0 1.906c-.086.293-.211.55-.375.766a1.793 1.793 0 0 1-.61.515 1.66 1.66 0 0 1-.78.188zm0 0"/></symbol><symbol overflow="visible" id="ay"><path d="M6.25.563L5.156-.688c.09-.122.176-.282.25-.47a5.91 5.91 0 0 0 .219-.609c.059-.207.113-.414.156-.625.04-.207.07-.398.094-.578h-.469A5.17 5.17 0 0 1 5.25-2a3.902 3.902 0 0 1-.39.953 11.404 11.404 0 0 1-.36-.375l-.563-.656c-.21-.238-.417-.473-.624-.703l-.5-.594.468-.234c.196-.09.39-.211.578-.36.196-.133.368-.3.516-.5a1.72 1.72 0 0 0 .281-.734 1.54 1.54 0 0 0-.062-.672 1.34 1.34 0 0 0-.328-.563 1.589 1.589 0 0 0-.547-.39 1.729 1.729 0 0 0-.735-.156c-.574 0-1.023.168-1.343.5a1.524 1.524 0 0 0-.454 1.203c.02.324.125.644.313.953.195.305.398.574.61.812a12.08 12.08 0 0 0-.594.36c-.211.136-.399.3-.563.484-.18.18-.332.383-.453.61a1.532 1.532 0 0 0-.172.734c-.012.344.04.652.156.922.121.261.29.472.5.64.207.176.446.305.72.391.269.09.546.14.827.14.395 0 .801-.1 1.219-.296a3.807 3.807 0 0 0 1.11-.766l.75.86zM2.516-3.72a8.8 8.8 0 0 1-.282-.312 2.749 2.749 0 0 1-.28-.39 2.741 2.741 0 0 1-.22-.407 1.089 1.089 0 0 1-.093-.438c-.012-.144.004-.289.046-.437.051-.152.133-.3.25-.438.102-.12.243-.222.422-.296A1.51 1.51 0 0 1 3-6.563c.383 0 .691.136.922.406.226.273.316.59.265.953-.03.21-.105.394-.218.547a1.764 1.764 0 0 1-.39.39 2.683 2.683 0 0 1-.517.297c-.187.086-.37.168-.546.25zm0 4.047c-.243 0-.473-.039-.688-.11a1.517 1.517 0 0 1-.562-.327 1.33 1.33 0 0 1-.391-.5 1.344 1.344 0 0 1-.125-.657c0-.257.05-.484.156-.671.114-.196.254-.368.422-.516a3.25 3.25 0 0 1 .516-.39c.195-.114.383-.223.562-.329.114.149.281.352.5.61.227.261.457.523.688.78.215.262.414.505.594.72.183.218.312.355.375.406-.231.281-.536.52-.907.703a2.586 2.586 0 0 1-1.14.281zm0 0"/></symbol><symbol overflow="visible" id="az"><path d="M6.453.406L3.016-3.906c.425-.414.875-.875 1.343-1.375a31.33 31.33 0 0 0 1.422-1.625h-.61A37.096 37.096 0 0 1 3.25-4.781c-.71.73-1.441 1.441-2.188 2.125v-4.235H.625V.391h.453v-2.407c.164-.132.395-.343.688-.625l.937-.906L5.875.406zm0 0"/></symbol><symbol overflow="visible" id="aA"><path d="M3.016-5.094c-.407 0-.79.106-1.141.313-.344.21-.605.523-.781.937l-.016-3.062H.625V.406h.453V-.625c.176.387.442.688.797.906a2.16 2.16 0 0 0 1.14.328c.352 0 .672-.082.954-.234.277-.148.523-.352.734-.61.195-.257.352-.562.469-.906.113-.34.172-.71.172-1.109 0-.402-.059-.781-.172-1.125a3.06 3.06 0 0 0-.469-.89c-.2-.258-.445-.462-.734-.61a2.063 2.063 0 0 0-.953-.219zM2.953.188C2.66.188 2.398.12 2.172 0c-.23-.121-.43-.3-.594-.531a2.36 2.36 0 0 1-.39-.766 3.447 3.447 0 0 1-.125-.953c0-.332.039-.645.125-.938.09-.3.222-.562.39-.78.164-.216.363-.391.594-.516.226-.133.488-.204.781-.204.29 0 .55.07.781.204.239.125.442.3.61.515.164.219.289.48.375.781.09.293.14.606.14.938 0 .336-.05.652-.14.953-.086.293-.211.55-.375.766-.168.23-.371.41-.61.531a1.66 1.66 0 0 1-.78.188zm0 0"/></symbol><symbol overflow="visible" id="aB"><path d="M6.484.39v-3.624H3.625v.375h2.453v.609c0 .273-.058.55-.172.828a2.74 2.74 0 0 1-.5.781c-.23.23-.508.426-.828.579a2.703 2.703 0 0 1-1.11.218c-.386 0-.741-.086-1.062-.25a2.496 2.496 0 0 1-.844-.703c-.23-.3-.414-.656-.546-1.062a4.687 4.687 0 0 1-.188-1.36c0-.496.063-.957.188-1.375.132-.414.316-.773.546-1.078.239-.308.52-.55.844-.719.332-.164.692-.25 1.078-.25.34 0 .657.059.938.172.277.117.52.262.719.438.214.18.394.379.53.593.134.22.24.426.313.61l.47.016a3.52 3.52 0 0 0-.298-.672 3.259 3.259 0 0 0-1.469-1.36 2.769 2.769 0 0 0-1.203-.25c-.48 0-.914.102-1.296.297-.387.2-.715.465-.985.797a3.594 3.594 0 0 0-.64 1.219c-.149.468-.22.98-.22 1.531 0 .563.071 1.082.22 1.547.144.469.351.871.625 1.203.269.344.597.61.984.797a2.92 2.92 0 0 0 1.312.297c.52 0 1.008-.133 1.47-.39.464-.247.831-.61 1.093-1.079L6.063.391zm0 0"/></symbol></defs><g fill="#231f20"><use xlink:href="#a" x="74.885" y="47.763"/><use xlink:href="#b" x="82.886" y="47.763"/><use xlink:href="#c" x="85.492" y="47.763"/><use xlink:href="#d" x="88.099" y="47.763"/><use xlink:href="#e" x="96.1" y="47.763"/><use xlink:href="#f" x="104.1" y="47.763"/><use xlink:href="#g" x="112.1" y="47.763"/><use xlink:href="#c" x="120.1" y="47.763"/><use xlink:href="#h" x="122.707" y="47.763"/><use xlink:href="#i" x="130.707" y="47.763"/><use xlink:href="#c" x="138.708" y="47.763"/><use xlink:href="#j" x="141.315" y="47.763"/><use xlink:href="#k" x="149.315" y="47.763"/><use xlink:href="#c" x="157.315" y="47.763"/><use xlink:href="#l" x="159.922" y="47.763"/><use xlink:href="#m" x="167.922" y="47.763"/></g><g fill="#393536"><use xlink:href="#n" x="42.468" y="48.426"/><use xlink:href="#o" x="48.041" y="48.426"/><use xlink:href="#p" x="53.614" y="48.426"/></g><g fill="#33459a"><use xlink:href="#q" x="206.678" y="250.25"/><use xlink:href="#r" x="220.193" y="250.25"/><use xlink:href="#s" x="225.134" y="250.25"/><use xlink:href="#r" x="238.649" y="250.25"/><use xlink:href="#t" x="243.59" y="250.25"/><use xlink:href="#r" x="257.105" y="250.25"/></g><g fill="#33459a"><use xlink:href="#u" x="262.045" y="249.351"/><use xlink:href="#v" x="272.857" y="249.351"/></g><g fill="#231f20"><use xlink:href="#w" x="206.678" y="270.763"/><use xlink:href="#x" x="214.525" y="270.763"/><use xlink:href="#y" x="222.373" y="270.763"/><use xlink:href="#z" x="230.22" y="270.763"/><use xlink:href="#A" x="238.068" y="270.763"/><use xlink:href="#B" x="245.915" y="270.763"/><use xlink:href="#C" x="253.762" y="270.763"/><use xlink:href="#D" x="261.61" y="270.763"/><use xlink:href="#E" x="269.457" y="270.763"/></g><g fill="#fff"><use xlink:href="#F" x="119.052" y="327.353"/><use xlink:href="#G" x="126.052" y="327.353"/><use xlink:href="#H" x="133.027" y="327.353"/><use xlink:href="#I" x="139.991" y="327.353"/><use xlink:href="#J" x="145.913" y="327.353"/><use xlink:href="#K" x="152.355" y="327.353"/><use xlink:href="#L" x="156.824" y="327.353"/><use xlink:href="#M" x="159.718" y="327.353"/><use xlink:href="#N" x="166.597" y="327.353"/></g><path d="M76.441 413.664h83.52M159.965 413.664H501.12" fill="none" stroke-width=".299637" stroke="#33459a" stroke-miterlimit="10"/><g fill="#33459a"><use xlink:href="#O" x="77.858" y="354.481"/><use xlink:href="#P" x="83.351" y="354.481"/><use xlink:href="#Q" x="88.956" y="354.481"/><use xlink:href="#P" x="93.412" y="354.481"/></g><g fill="#231f20"><use xlink:href="#R" x="161.379" y="354.129"/><use xlink:href="#S" x="167.808" y="354.129"/><use xlink:href="#T" x="172.996" y="354.129"/><use xlink:href="#U" x="178.387" y="354.129"/></g><g fill="#231f20"><use xlink:href="#S" x="180.91" y="354.129"/><use xlink:href="#S" x="186.098" y="354.129"/><use xlink:href="#V" x="191.286" y="354.129"/><use xlink:href="#V" x="194.643" y="354.129"/><use xlink:href="#W" x="198" y="354.129"/><use xlink:href="#X" x="205.558" y="354.129"/><use xlink:href="#Y" x="211.509" y="354.129"/><use xlink:href="#V" x="217.704" y="354.129"/><use xlink:href="#Z" x="221.061" y="354.129"/><use xlink:href="#W" x="223.574" y="354.129"/><use xlink:href="#aa" x="231.132" y="354.129"/><use xlink:href="#ab" x="236.3" y="354.129"/><use xlink:href="#ac" x="240.878" y="354.129"/><use xlink:href="#S" x="242.861" y="354.129"/><use xlink:href="#U" x="248.049" y="354.129"/><use xlink:href="#V" x="251.04" y="354.129"/><use xlink:href="#ad" x="254.397" y="354.129"/><use xlink:href="#ae" x="259.585" y="354.129"/><use xlink:href="#V" x="261.569" y="354.129"/><use xlink:href="#X" x="264.926" y="354.129"/><use xlink:href="#af" x="270.877" y="354.129"/><use xlink:href="#ab" x="276.166" y="354.129"/><use xlink:href="#ag" x="280.744" y="354.129"/><use xlink:href="#ah" x="282.24" y="354.129"/><use xlink:href="#S" x="287.55" y="354.129"/><use xlink:href="#ab" x="292.738" y="354.129"/><use xlink:href="#ab" x="297.315" y="354.129"/><use xlink:href="#V" x="301.893" y="354.129"/><use xlink:href="#Y" x="305.25" y="354.129"/><use xlink:href="#ai" x="311.445" y="354.129"/><use xlink:href="#aj" x="316.837" y="354.129"/><use xlink:href="#ag" x="324.466" y="354.129"/><use xlink:href="#ah" x="325.961" y="354.129"/><use xlink:href="#ag" x="331.272" y="354.129"/><use xlink:href="#ab" x="332.767" y="354.129"/><use xlink:href="#ac" x="337.345" y="354.129"/><use xlink:href="#U" x="339.328" y="354.129"/></g><g fill="#231f20"><use xlink:href="#aa" x="341.943" y="354.129"/><use xlink:href="#ac" x="347.11" y="354.129"/><use xlink:href="#ag" x="349.094" y="354.129"/><use xlink:href="#ad" x="350.589" y="354.129"/><use xlink:href="#ah" x="355.777" y="354.129"/><use xlink:href="#ak" x="361.088" y="354.129"/></g><g fill="#231f20"><use xlink:href="#al" x="161.379" y="369.111"/><use xlink:href="#ah" x="167.675" y="369.111"/><use xlink:href="#ag" x="172.985" y="369.111"/><use xlink:href="#am" x="174.481" y="369.111"/></g><g fill="#231f20"><use xlink:href="#S" x="179.15" y="369.111"/><use xlink:href="#U" x="184.338" y="369.111"/></g><g fill="#231f20"><use xlink:href="#ab" x="187.064" y="369.111"/><use xlink:href="#ag" x="191.642" y="369.111"/><use xlink:href="#ac" x="193.137" y="369.111"/></g><g fill="#231f20"><use xlink:href="#an" x="195.314" y="369.111"/><use xlink:href="#V" x="200.075" y="369.111"/><use xlink:href="#ao" x="203.432" y="369.111"/><use xlink:href="#ap" x="211.835" y="369.111"/><use xlink:href="#aa" x="217.145" y="369.111"/><use xlink:href="#U" x="222.313" y="369.111"/></g><g fill="#231f20"><use xlink:href="#ac" x="225.497" y="369.111"/><use xlink:href="#ad" x="227.48" y="369.111"/><use xlink:href="#ah" x="232.668" y="369.111"/><use xlink:href="#V" x="237.978" y="369.111"/><use xlink:href="#aq" x="241.335" y="369.111"/><use xlink:href="#ar" x="247.022" y="369.111"/><use xlink:href="#ap" x="252.027" y="369.111"/><use xlink:href="#ad" x="257.337" y="369.111"/><use xlink:href="#ad" x="262.525" y="369.111"/><use xlink:href="#as" x="267.713" y="369.111"/><use xlink:href="#at" x="269.208" y="369.111"/><use xlink:href="#V" x="271.304" y="369.111"/><use xlink:href="#al" x="274.661" y="369.111"/><use xlink:href="#ah" x="280.958" y="369.111"/><use xlink:href="#ag" x="286.268" y="369.111"/><use xlink:href="#am" x="287.763" y="369.111"/></g><g fill="#231f20"><use xlink:href="#S" x="292.432" y="369.111"/><use xlink:href="#U" x="297.621" y="369.111"/></g><g fill="#231f20"><use xlink:href="#ab" x="300.348" y="369.111"/><use xlink:href="#ag" x="304.925" y="369.111"/><use xlink:href="#ac" x="306.421" y="369.111"/></g><g fill="#231f20"><use xlink:href="#an" x="308.597" y="369.111"/><use xlink:href="#V" x="313.358" y="369.111"/><use xlink:href="#ad" x="316.715" y="369.111"/><use xlink:href="#ae" x="321.903" y="369.111"/><use xlink:href="#V" x="323.886" y="369.111"/><use xlink:href="#au" x="327.243" y="369.111"/></g><g fill="#231f20"><use xlink:href="#S" x="332.808" y="369.111"/><use xlink:href="#ah" x="337.996" y="369.111"/><use xlink:href="#ah" x="343.306" y="369.111"/><use xlink:href="#ab" x="348.616" y="369.111"/></g><g fill="#231f20"><use xlink:href="#an" x="352.97" y="369.111"/><use xlink:href="#as" x="357.731" y="369.111"/><use xlink:href="#am" x="359.226" y="369.111"/></g><g fill="#231f20"><use xlink:href="#aa" x="363.895" y="369.111"/><use xlink:href="#ah" x="369.063" y="369.111"/><use xlink:href="#ag" x="374.373" y="369.111"/><use xlink:href="#aa" x="375.868" y="369.111"/></g><g fill="#33459a"><use xlink:href="#O" x="77.858" y="391.275"/><use xlink:href="#P" x="83.351" y="391.275"/><use xlink:href="#P" x="88.956" y="391.275"/><use xlink:href="#av" x="94.561" y="391.275"/></g><g fill="#231f20"><use xlink:href="#R" x="161.379" y="390.923"/><use xlink:href="#S" x="167.808" y="390.923"/><use xlink:href="#T" x="172.996" y="390.923"/><use xlink:href="#U" x="178.387" y="390.923"/></g><g fill="#231f20"><use xlink:href="#S" x="180.91" y="390.923"/><use xlink:href="#S" x="186.098" y="390.923"/><use xlink:href="#V" x="191.286" y="390.923"/><use xlink:href="#V" x="194.643" y="390.923"/><use xlink:href="#X" x="198" y="390.923"/><use xlink:href="#Y" x="203.951" y="390.923"/><use xlink:href="#V" x="210.146" y="390.923"/><use xlink:href="#Z" x="213.503" y="390.923"/><use xlink:href="#X" x="216.016" y="390.923"/><use xlink:href="#aa" x="221.967" y="390.923"/><use xlink:href="#ar" x="227.134" y="390.923"/><use xlink:href="#ap" x="232.139" y="390.923"/><use xlink:href="#S" x="237.449" y="390.923"/><use xlink:href="#as" x="242.637" y="390.923"/><use xlink:href="#ad" x="244.133" y="390.923"/><use xlink:href="#U" x="249.321" y="390.923"/><use xlink:href="#V" x="252.312" y="390.923"/><use xlink:href="#ad" x="255.669" y="390.923"/><use xlink:href="#ae" x="260.857" y="390.923"/><use xlink:href="#V" x="262.84" y="390.923"/><use xlink:href="#Y" x="266.197" y="390.923"/><use xlink:href="#U" x="272.392" y="390.923"/></g><g fill="#231f20"><use xlink:href="#ac" x="275.576" y="390.923"/><use xlink:href="#ab" x="277.56" y="390.923"/><use xlink:href="#ak" x="282.138" y="390.923"/></g><g fill="#231f20"><use xlink:href="#al" x="161.379" y="405.905"/><use xlink:href="#ah" x="167.675" y="405.905"/><use xlink:href="#ag" x="172.985" y="405.905"/><use xlink:href="#am" x="174.481" y="405.905"/></g><g fill="#231f20"><use xlink:href="#S" x="179.15" y="405.905"/><use xlink:href="#U" x="184.338" y="405.905"/></g><g fill="#231f20"><use xlink:href="#ab" x="187.064" y="405.905"/><use xlink:href="#ag" x="191.642" y="405.905"/><use xlink:href="#ac" x="193.137" y="405.905"/></g><g fill="#231f20"><use xlink:href="#an" x="195.314" y="405.905"/><use xlink:href="#V" x="200.075" y="405.905"/><use xlink:href="#aw" x="203.432" y="405.905"/></g><g fill="#231f20"><use xlink:href="#ad" x="207.959" y="405.905"/><use xlink:href="#ah" x="213.147" y="405.905"/><use xlink:href="#ab" x="218.457" y="405.905"/><use xlink:href="#S" x="223.035" y="405.905"/><use xlink:href="#ag" x="228.223" y="405.905"/><use xlink:href="#V" x="229.718" y="405.905"/><use xlink:href="#al" x="233.075" y="405.905"/><use xlink:href="#ah" x="239.372" y="405.905"/><use xlink:href="#ag" x="244.682" y="405.905"/><use xlink:href="#am" x="246.178" y="405.905"/></g><g fill="#231f20"><use xlink:href="#S" x="250.847" y="405.905"/><use xlink:href="#U" x="256.035" y="405.905"/></g><g fill="#231f20"><use xlink:href="#ab" x="258.761" y="405.905"/><use xlink:href="#ag" x="263.339" y="405.905"/><use xlink:href="#ac" x="264.834" y="405.905"/></g><use xlink:href="#an" x="267.011" y="405.905" fill="#231f20"/><path d="M76.441 523.395h424.68" fill="none" stroke-width=".299637" stroke="#33459a" stroke-miterlimit="10"/><g fill="#231f20"><use xlink:href="#R" x="77.858" y="493.822"/><use xlink:href="#ag" x="84.287" y="493.822"/><use xlink:href="#U" x="85.782" y="493.822"/></g><g fill="#231f20"><use xlink:href="#S" x="88.305" y="493.822"/><use xlink:href="#ar" x="93.493" y="493.822"/><use xlink:href="#ac" x="98.498" y="493.822"/><use xlink:href="#ad" x="100.482" y="493.822"/><use xlink:href="#U" x="105.67" y="493.822"/><use xlink:href="#at" x="108.661" y="493.822"/><use xlink:href="#V" x="110.756" y="493.822"/><use xlink:href="#X" x="114.113" y="493.822"/><use xlink:href="#af" x="120.064" y="493.822"/><use xlink:href="#ab" x="125.354" y="493.822"/><use xlink:href="#ag" x="129.932" y="493.822"/><use xlink:href="#ah" x="131.427" y="493.822"/><use xlink:href="#S" x="136.737" y="493.822"/><use xlink:href="#ab" x="141.925" y="493.822"/><use xlink:href="#ab" x="146.503" y="493.822"/><use xlink:href="#V" x="151.081" y="493.822"/><use xlink:href="#R" x="154.438" y="493.822"/><use xlink:href="#S" x="160.867" y="493.822"/></g><use xlink:href="#am" x="165.739" y="493.822" fill="#231f20"/><g fill="#231f20"><use xlink:href="#S" x="170.409" y="493.822"/><use xlink:href="#as" x="175.597" y="493.822"/><use xlink:href="#ad" x="177.092" y="493.822"/><use xlink:href="#ax" x="182.28" y="493.822"/><use xlink:href="#aj" x="187.682" y="493.822"/><use xlink:href="#S" x="195.311" y="493.822"/><use xlink:href="#ah" x="200.499" y="493.822"/><use xlink:href="#ac" x="205.809" y="493.822"/><use xlink:href="#V" x="207.793" y="493.822"/><use xlink:href="#ay" x="211.15" y="493.822"/><use xlink:href="#V" x="217.447" y="493.822"/><use xlink:href="#aq" x="220.804" y="493.822"/><use xlink:href="#ac" x="226.49" y="493.822"/><use xlink:href="#U" x="228.474" y="493.822"/></g><g fill="#231f20"><use xlink:href="#aa" x="231.088" y="493.822"/><use xlink:href="#ac" x="236.256" y="493.822"/><use xlink:href="#S" x="238.24" y="493.822"/><use xlink:href="#T" x="243.428" y="493.822"/><use xlink:href="#an" x="248.819" y="493.822"/><use xlink:href="#at" x="253.58" y="493.822"/><use xlink:href="#V" x="255.676" y="493.822"/><use xlink:href="#W" x="259.033" y="493.822"/><use xlink:href="#S" x="266.591" y="493.822"/><use xlink:href="#ai" x="271.779" y="493.822"/><use xlink:href="#ac" x="277.17" y="493.822"/><use xlink:href="#U" x="279.154" y="493.822"/></g><g fill="#231f20"><use xlink:href="#ad" x="281.677" y="493.822"/><use xlink:href="#ah" x="286.865" y="493.822"/><use xlink:href="#ag" x="292.175" y="493.822"/><use xlink:href="#ar" x="293.67" y="493.822"/><use xlink:href="#V" x="298.675" y="493.822"/><use xlink:href="#az" x="302.032" y="493.822"/></g><g fill="#231f20"><use xlink:href="#ad" x="307.525" y="493.822"/><use xlink:href="#U" x="312.713" y="493.822"/></g><g fill="#231f20"><use xlink:href="#S" x="315.236" y="493.822"/><use xlink:href="#aa" x="320.424" y="493.822"/></g><g fill="#231f20"><use xlink:href="#X" x="77.858" y="515.634"/><use xlink:href="#af" x="83.809" y="515.634"/><use xlink:href="#ab" x="89.099" y="515.634"/><use xlink:href="#ag" x="93.676" y="515.634"/><use xlink:href="#ah" x="95.172" y="515.634"/><use xlink:href="#S" x="100.482" y="515.634"/><use xlink:href="#ab" x="105.67" y="515.634"/><use xlink:href="#ab" x="110.248" y="515.634"/><use xlink:href="#V" x="114.825" y="515.634"/><use xlink:href="#R" x="118.182" y="515.634"/><use xlink:href="#ag" x="124.611" y="515.634"/><use xlink:href="#U" x="126.107" y="515.634"/></g><g fill="#231f20"><use xlink:href="#S" x="128.63" y="515.634"/><use xlink:href="#ar" x="133.818" y="515.634"/><use xlink:href="#ac" x="138.823" y="515.634"/><use xlink:href="#ad" x="140.806" y="515.634"/><use xlink:href="#U" x="145.994" y="515.634"/><use xlink:href="#at" x="148.985" y="515.634"/><use xlink:href="#V" x="151.081" y="515.634"/><use xlink:href="#R" x="154.438" y="515.634"/><use xlink:href="#ag" x="160.867" y="515.634"/><use xlink:href="#aa" x="162.362" y="515.634"/><use xlink:href="#aA" x="167.53" y="515.634"/><use xlink:href="#S" x="172.931" y="515.634"/><use xlink:href="#ac" x="178.119" y="515.634"/><use xlink:href="#S" x="180.103" y="515.634"/><use xlink:href="#ab" x="185.291" y="515.634"/><use xlink:href="#V" x="189.869" y="515.634"/><use xlink:href="#aB" x="193.226" y="515.634"/><use xlink:href="#U" x="200.011" y="515.634"/></g><g fill="#231f20"><use xlink:href="#ad" x="202.534" y="515.634"/><use xlink:href="#af" x="207.722" y="515.634"/><use xlink:href="#ax" x="213.012" y="515.634"/><use xlink:href="#at" x="218.413" y="515.634"/><use xlink:href="#V" x="220.509" y="515.634"/><use xlink:href="#W" x="223.866" y="515.634"/><use xlink:href="#S" x="231.424" y="515.634"/><use xlink:href="#ai" x="236.612" y="515.634"/><use xlink:href="#ac" x="242.004" y="515.634"/><use xlink:href="#U" x="243.987" y="515.634"/></g><g fill="#231f20"><use xlink:href="#ad" x="246.51" y="515.634"/><use xlink:href="#ah" x="251.698" y="515.634"/><use xlink:href="#ag" x="257.008" y="515.634"/><use xlink:href="#ar" x="258.504" y="515.634"/><use xlink:href="#V" x="263.508" y="515.634"/><use xlink:href="#az" x="266.865" y="515.634"/></g><g fill="#231f20"><use xlink:href="#ad" x="272.359" y="515.634"/><use xlink:href="#U" x="277.547" y="515.634"/></g><g fill="#231f20"><use xlink:href="#S" x="280.069" y="515.634"/><use xlink:href="#aa" x="285.258" y="515.634"/></g><g fill="#fff"><use xlink:href="#aC" x="119.052" y="465.488"/><use xlink:href="#M" x="126.282" y="465.488"/><use xlink:href="#aD" x="133.16" y="465.488"/><use xlink:href="#L" x="138.949" y="465.488"/><use xlink:href="#K" x="141.844" y="465.488"/><use xlink:href="#L" x="146.312" y="465.488"/><use xlink:href="#M" x="149.207" y="465.488"/><use xlink:href="#N" x="156.085" y="465.488"/></g></svg>