<svg xmlns="http://www.w3.org/2000/svg" xmlns:xlink="http://www.w3.org/1999/xlink" width="793.701" height="1058.268" viewBox="0 0 595.276 793.701" version="1.2"><defs><symbol overflow="visible" id="a"><path d="M10.406 1.969V-9.578H9.375v4.234H8.031V-9.39H7V1.422h1.031v-5.719h1.344V1.97zM4.125-6.687V-7.86H6v-.907H1.14v.907h1.907v.984c0 .7-.059 1.348-.172 1.938a7.762 7.762 0 0 1-.5 1.609c-.23.5-.527.96-.89 1.375A6.393 6.393 0 0 1 .234-.86c.081.054.163.113.25.171.09.055.18.106.265.157.082.062.16.129.234.187.082.055.157.106.22.156.245-.195.5-.43.75-.703.245-.277.487-.578.718-.89.195-.29.375-.598.531-.922.164-.32.285-.64.36-.953.082.312.195.617.343.906.153.281.332.55.531.797.196.281.41.539.641.766.238.218.473.41.703.562a3.26 3.26 0 0 1 .157-.172L6.14-1c.07-.059.14-.117.203-.172.07-.058.14-.125.203-.187a4.62 4.62 0 0 1-1.125-.954 4.85 4.85 0 0 1-.75-1.234 6.056 6.056 0 0 1-.422-1.422 10.737 10.737 0 0 1-.125-1.718zm0 0"/></symbol><symbol overflow="visible" id="b"><path d="M8.516-9.578v8.484h1.062v-4.703h1.547v-.937H9.578v-2.844zM8.03-4.906c-.187.043-.449.09-.781.14-.336.055-.691.098-1.063.125-.386.043-.773.082-1.156.11a12.12 12.12 0 0 1-.984.047l-1.844.03v-3.671h4.25v-.922H1.187V-3.5H3.156c.309-.008.578-.02.797-.031.371-.008.754-.031 1.14-.063a38.79 38.79 0 0 0 2.156-.234c.321-.05.583-.102.782-.156zm1.89 6.64V.813H3.407v-2.907H2.344v3.828zm0 0"/></symbol><symbol overflow="visible" id="c"><path d="M9.969-3.344v-6.234H8.922v2.297H6.484v-1.907h-1v1.72H2.328v-1.72H1.297v5.313h5.187v-2.469h2.438v3zM5.484-4.78H2.328v-1.782h3.156zm4.485 6.64v-4.687H8.922v1.344H3.578v-1.344H2.516v4.687zM8.922.97H3.578V-.594h5.344zm0 0"/></symbol><symbol overflow="visible" id="d"><path d="M9.969-1.078v-8.5H8.922v8.5zM.859-6.375c0 .418.067.816.204 1.188.144.367.347.683.609.953.27.273.582.492.937.656.364.156.77.234 1.22.234.425 0 .82-.078 1.187-.234a2.98 2.98 0 0 0 .937-.656c.27-.27.477-.586.625-.954.145-.37.219-.769.219-1.187 0-.414-.074-.805-.219-1.172a3.042 3.042 0 0 0-.625-.984 2.802 2.802 0 0 0-.937-.656 3.066 3.066 0 0 0-1.188-.235c-.45 0-.855.082-1.219.235a2.968 2.968 0 0 0-.937.656 3.068 3.068 0 0 0-.61.984A3.33 3.33 0 0 0 .86-6.375zm1.063 0c0-.59.164-1.094.5-1.5.332-.402.8-.61 1.406-.61.602 0 1.07.208 1.406.61.332.406.5.91.5 1.5 0 .586-.168 1.082-.5 1.484-.336.399-.804.594-1.406.594-.605 0-1.074-.195-1.406-.594-.336-.402-.5-.898-.5-1.484zm8.375 8.11V.811H3.609v-2.875H2.531v3.797zm0 0"/></symbol><symbol overflow="visible" id="f"><path d="M9.875 1.969V-9.578H8.812V1.969zM6.578-.953v-7.89H1.36v7.89zm-1.031-.922H2.422v-6.031h3.125zm0 0"/></symbol><symbol overflow="visible" id="g"><path d="M10.094 1.969V-9.578H9.063v4.11H7.687v-3.923h-1.03V1.422h1.03v-5.844h1.375v6.39zM6.234-2a4.67 4.67 0 0 1-1.109.14c-.23.032-.46.055-.688.063-.23.012-.445.016-.64.016l-1.485.031v-2.625H5.36v-4.516H1.281v.922h3.063v2.672H1.28v4.484l2.172-.03c.55 0 1.086-.032 1.61-.095.527-.058.921-.113 1.171-.156zm0 0"/></symbol><symbol overflow="visible" id="h"><path d="M10.094 1.969V-9.578H9.063V1.969zM1.438-6.328c0 .406.07.789.218 1.14.145.344.348.649.61.907.27.261.586.472.953.625.363.148.765.219 1.203.219.426 0 .816-.07 1.172-.22.363-.152.68-.363.953-.624.258-.258.46-.563.61-.907a2.85 2.85 0 0 0 .234-1.14c0-.383-.082-.75-.235-1.094a2.723 2.723 0 0 0-.61-.906 3.251 3.251 0 0 0-.952-.625 2.946 2.946 0 0 0-1.172-.235c-.438 0-.84.083-1.203.235a3.152 3.152 0 0 0-.953.625c-.262.25-.465.555-.61.906-.148.344-.218.711-.218 1.094zm1.046 0c0-.527.172-.988.516-1.375.34-.383.816-.578 1.422-.578.601 0 1.07.195 1.406.578.332.387.5.848.5 1.375 0 .555-.168 1.023-.5 1.406-.336.375-.805.563-1.406.563-.606 0-1.082-.188-1.422-.563-.344-.383-.516-.851-.516-1.406zm6.172 4.375c-.23.043-.55.086-.953.125-.406.043-.84.082-1.297.11-.437.042-.87.081-1.297.109-.418.023-.746.03-.984.03a9.14 9.14 0 0 1-.703.016H.843v.954c.009 0 .134.007.376.015H3c.3 0 .508-.004.625-.015.508 0 1.016-.016 1.516-.047.496-.028.968-.067 1.406-.11.445-.039.848-.082 1.203-.125.352-.05.656-.097.906-.14zm0 0"/></symbol><symbol overflow="visible" id="i"><path d="M11.266-5.516v-.968H9.703v-3.094H8.641v7.406h1.062v-3.344zM5.812-8.734v-.875H2.376v.875zM7.407-7v-.875H.828V-7zM1.281-4.453c0 .262.067.512.203.75.145.23.336.43.579.594.246.168.546.304.89.406.34.094.727.14 1.156.14.871 0 1.567-.18 2.079-.546.507-.364.765-.813.765-1.344 0-.527-.258-.977-.766-1.344-.5-.371-1.19-.562-2.062-.562-.438 0-.832.054-1.172.156a2.79 2.79 0 0 0-.89.406c-.25.168-.446.371-.579.61-.136.23-.203.476-.203.734zm1.11-.016c0-.32.156-.578.468-.765.309-.184.735-.282 1.266-.282.527 0 .945.098 1.25.282.309.187.469.445.469.765 0 .336-.153.602-.453.797-.305.188-.727.281-1.266.281-.531 0-.957-.093-1.266-.28-.312-.184-.468-.454-.468-.798zm7.312 6.5v-3.64H2.188v.906h6.421V2.03zm0 0"/></symbol><symbol overflow="visible" id="j"><path d="M9.969-1.078v-8.5H8.922v1.344H6.203a3.074 3.074 0 0 0-1.016-.891 2.784 2.784 0 0 0-1.375-.344c-.437 0-.84.086-1.203.25-.367.168-.68.395-.937.672-.274.281-.48.613-.625.985a3.33 3.33 0 0 0-.203 1.171c0 .418.066.817.203 1.188.144.375.351.7.625.969.258.28.57.504.937.656.364.156.766.234 1.204.234.527 0 1.003-.113 1.421-.344.426-.238.77-.554 1.032-.953h2.656v3.563zM8.922-5.562H6.656c.04-.133.07-.27.094-.407.027-.144.047-.285.047-.422 0-.152-.02-.312-.047-.468a3.599 3.599 0 0 0-.094-.438h2.266zm-7-.829c0-.582.16-1.082.484-1.5.332-.414.801-.625 1.406-.625.602 0 1.07.211 1.407.625.332.418.5.918.5 1.5 0 .586-.168 1.086-.5 1.5-.336.407-.805.61-1.407.61-.605 0-1.074-.203-1.406-.61-.324-.414-.484-.914-.484-1.5zm8.36 8.125V.813H3.608v-2.875H2.531v3.796zm0 0"/></symbol><symbol overflow="visible" id="k"><path d="M10.906-3.11v-.937H9.094c.058-.32.125-.691.187-1.11.059-.425.117-.866.172-1.327.05-.465.094-.93.125-1.391.04-.457.067-.89.078-1.297H1.61v.922h6.922c-.031.71-.097 1.418-.187 2.125-.086.71-.2 1.402-.344 2.078H.375v.938h4.64v5.078h1.048V-3.11zm0 0"/></symbol><symbol overflow="visible" id="l"><path d="M6.266-7.375v-.031h2.609v-1.375H1.906v1.375H4.5v.015a2.198 2.198 0 0 1-.328.875 3.647 3.647 0 0 1-.64.766c-.345.293-.739.55-1.173.766a7.57 7.57 0 0 1-1.296.5c.183.168.39.367.609.593.226.22.422.418.578.594.332-.121.656-.273.969-.453.32-.176.625-.375.906-.594.258-.195.5-.41.719-.64.226-.239.41-.485.547-.735.152.262.347.504.578.719.226.219.476.426.75.61.277.187.562.355.843.5.29.136.567.242.829.312.101-.145.242-.328.421-.547.184-.215.368-.426.547-.625a4.672 4.672 0 0 1-1.015-.36 4.495 4.495 0 0 1-.953-.609 3.646 3.646 0 0 1-.766-.765 1.71 1.71 0 0 1-.36-.891zm3.687 5.297c-.273.031-.59.07-.953.11-.367.03-.738.066-1.11.093l-1.03.063c-.313.011-.544.015-.688.015v-2.016h-1.61v2.047H.938v1.454h3c.489 0 1.024-.004 1.61-.016.582-.02 1.156-.05 1.719-.094a36.501 36.501 0 0 0 1.546-.11c.477-.038.86-.085 1.141-.14zm2.063 4.406v-13.594h-1.579V2.328zM7.328-9.719v-1.344h-4v1.344zm0 0"/></symbol><symbol overflow="visible" id="m"><path d="M11.828-1.281v-9.985H10.25v9.985zm-6.36-7.844v-1.844H3.782v1.89c0 .513-.086.993-.25 1.438-.168.45-.398.856-.687 1.22-.324.437-.711.831-1.156 1.171a8.75 8.75 0 0 1-1.407.86c.215.18.453.378.703.593.246.211.442.383.579.516.289-.153.585-.348.89-.578.309-.227.613-.485.906-.766.278-.27.532-.563.75-.875.227-.32.399-.64.516-.953.164.324.375.633.625.922.258.293.535.558.828.797.27.23.547.445.828.64.29.188.563.34.813.453.12-.152.281-.347.468-.578.196-.238.383-.46.563-.672a5.49 5.49 0 0 1-1.234-.64 4.574 4.574 0 0 1-1.047-.985 4.69 4.69 0 0 1-.735-1.203 3.72 3.72 0 0 1-.265-1.406zm6.673 11.188V.64H4.53v-2.938H2.906v4.36zm0 0"/></symbol><symbol overflow="visible" id="n"><path d="M12.781-3.5v-1.438H7.437v-1.53h3.954v-1.407H3.625v-1.656h7.625v-1.39H2.016v4.452h3.78v1.532H.47V-3.5zM6.61 2.594c1.59 0 2.813-.258 3.657-.766.84-.512 1.265-1.144 1.265-1.89 0-.747-.426-1.368-1.265-1.86-.844-.496-2.067-.75-3.657-.75-1.593 0-2.816.254-3.656.75-.836.492-1.25 1.113-1.25 1.86 0 .746.414 1.378 1.25 1.89.84.508 2.063.766 3.656.766zM3.547-.078c0-.426.27-.754.812-.985.54-.238 1.29-.359 2.25-.359.946 0 1.696.129 2.25.375.551.242.829.574.829 1 0 .414-.278.738-.829.969-.554.226-1.304.344-2.25.344-.96 0-1.71-.121-2.25-.36-.543-.23-.812-.558-.812-.984zm0 0"/></symbol><symbol overflow="visible" id="o"><path d="M13-4.875v-1.406h-1.703v-1.563H13v-1.39h-1.703v-2.032H9.719v8.61h1.578v-2.219zm-6.313-5.203v-1.25H2.579v1.25zm1.844 2.062v-1.25H.766v1.25zm-7.36 2.61c0 .293.083.57.25.828.177.262.423.488.735.672.301.187.664.34 1.094.453.426.117.895.172 1.406.172 1.059 0 1.907-.203 2.532-.61.632-.402.953-.914.953-1.53 0-.583-.317-1.067-.938-1.454-.625-.395-1.473-.594-2.531-.594-.524 0-.996.055-1.422.157-.43.105-.793.257-1.094.453a2.19 2.19 0 0 0-.734.656c-.168.25-.25.52-.25.797zm5.298-.016c0 .324-.164.57-.485.734-.324.168-.761.25-1.312.25-.563 0-1.012-.078-1.344-.234-.324-.164-.484-.41-.484-.734 0-.301.16-.535.484-.703.332-.176.781-.266 1.344-.266.55 0 .988.086 1.312.25.32.168.485.402.485.703zM11.579 0c0-.395-.122-.742-.36-1.047a3.084 3.084 0 0 0-.953-.812 5.802 5.802 0 0 0-1.485-.5 9.175 9.175 0 0 0-1.89-.188c-.657 0-1.274.059-1.844.172a6.323 6.323 0 0 0-1.5.484c-.43.22-.77.489-1.016.797a1.63 1.63 0 0 0-.36 1.047c0 .402.114.77.345 1.094.238.32.57.598 1 .828.425.227.925.398 1.5.516a8.95 8.95 0 0 0 1.859.187c.664 0 1.281-.058 1.844-.172a6.442 6.442 0 0 0 1.5-.484c.426-.23.758-.508 1-.828.238-.313.36-.68.36-1.094zM3.936-.031c0-.227.083-.426.25-.594.165-.164.391-.29.672-.375a3.76 3.76 0 0 1 .922-.219c.352-.05.719-.078 1.094-.078.809 0 1.492.106 2.047.313.558.21.844.527.844.953a.828.828 0 0 1-.25.594 1.98 1.98 0 0 1-.641.406 4.121 4.121 0 0 1-.922.25c-.344.05-.7.078-1.062.078-.387 0-.758-.027-1.11-.078a3.988 3.988 0 0 1-.937-.25 1.58 1.58 0 0 1-.657-.406.812.812 0 0 1-.25-.594zm0 0"/></symbol><symbol overflow="visible" id="p"><path d="M12.797.828V-.609h-5.36v-2.766h3.766v-7.484H9.61v2.218H3.625v-2.218H2.031v7.484h3.75v2.766H.453V.828zm-3.188-5.64H3.625v-2.422h5.984zm0 0"/></symbol><symbol overflow="visible" id="q"><path d="M1.766-10.516v1.422h7.843a45.995 45.995 0 0 1-.265 3.344c-.137 1.156-.301 2.27-.485 3.328h1.579c.101-.57.203-1.207.296-1.906.09-.707.18-1.422.266-2.14.082-.708.148-1.41.203-2.11.05-.707.094-1.352.125-1.938zM12.796.828V-.609H6.314v-5.063h-1.61v5.063H.453V.828zm0 0"/></symbol><symbol overflow="visible" id="r"><path d="M11.828 2.328v-13.594h-1.594v3.954h-2.78v1.515h2.78v8.125zM5.438-7.719v-3H3.766v2.906c0 .688-.075 1.336-.22 1.938a6.99 6.99 0 0 1-1.78 3.328A8.17 8.17 0 0 1 .14-1.266c.238.168.484.356.734.563.246.2.453.371.61.515.288-.183.597-.437.921-.75.332-.32.649-.664.953-1.03.278-.352.532-.72.75-1.095.227-.37.399-.738.516-1.093.152.386.352.77.594 1.14.246.368.523.707.828 1.016A7.83 7.83 0 0 0 7.719-.484c.133-.153.304-.332.515-.532.215-.195.446-.39.688-.578A8.775 8.775 0 0 1 7.39-2.766a6.178 6.178 0 0 1-1.125-1.53 5.704 5.704 0 0 1-.625-1.548 8.044 8.044 0 0 1-.204-1.875zm0 0"/></symbol><symbol overflow="visible" id="t"><path d="M4.531-.922l-2.687-9.453H.172L3.734 1.141h1.579L8.89-10.375H7.219zm0 0"/></symbol><symbol overflow="visible" id="u"><path d="M4.016-6.25c.62 0 1.097.305 1.421.906.333.594.5 1.38.5 2.344 0 .992-.167 1.785-.5 2.375-.324.586-.8.875-1.421.875-.618 0-1.086-.29-1.407-.875-.324-.59-.484-1.383-.484-2.375 0-.965.16-1.75.484-2.344.32-.601.79-.906 1.407-.906zm0-1.266c-1.157 0-2.024.418-2.594 1.25C.859-5.43.578-4.34.578-3c0 1.375.281 2.465.844 3.266.57.808 1.437 1.218 2.594 1.218 1.144 0 2.015-.41 2.609-1.218.59-.801.89-1.891.89-3.266 0-1.34-.3-2.43-.89-3.266-.594-.832-1.465-1.25-2.61-1.25zm0 0"/></symbol><symbol overflow="visible" id="v"><path d="M.922-10.375V1.141h1.5v-11.516zm0 0"/></symbol><symbol overflow="visible" id="w"><path d="M1.063-.078v2.047h2.03V-.078zm0 0"/></symbol><symbol overflow="visible" id="x"><path d="M3.297-10.594c-1 0-1.746.551-2.235 1.64C.57-7.866.329-6.382.329-4.5c0 1.887.242 3.367.734 4.438C1.551.996 2.298 1.53 3.297 1.53c.976 0 1.723-.535 2.234-1.593.508-1.07.766-2.551.766-4.438 0-1.883-.258-3.367-.766-4.453-.511-1.09-1.258-1.64-2.234-1.64zm0 1.36c.433 0 .789.43 1.062 1.28.27.845.407 1.997.407 3.454 0 1.438-.137 2.582-.407 3.422C4.086-.234 3.73.188 3.297.188c-.45 0-.805-.422-1.063-1.266-.261-.84-.39-1.984-.39-3.422 0-1.457.129-2.61.39-3.453.258-.852.614-1.281 1.063-1.281zm0 0"/></symbol><symbol overflow="visible" id="y"><path d="M4.781-3.484c-.086 1.156-.289 2.07-.61 2.734-.312.656-.675.984-1.077.984-.367 0-.653-.183-.86-.546-.199-.372-.316-.801-.343-1.282H.406c0 1 .242 1.77.735 2.313.488.55 1.14.828 1.953.828.59 0 1.097-.176 1.515-.516.414-.343.75-.816 1-1.406.258-.602.442-1.313.547-2.125.114-.809.172-1.688.172-2.625 0-.809-.058-1.555-.172-2.234-.117-.676-.3-1.25-.547-1.72a3.155 3.155 0 0 0-.953-1.124c-.386-.27-.851-.406-1.39-.406-.93 0-1.668.37-2.22 1.109-.542.73-.812 1.723-.812 2.969 0 .656.078 1.226.235 1.703.152.48.367.871.64 1.172.246.312.547.543.891.687.34.149.691.219 1.047.219.308 0 .617-.05.922-.156.3-.102.57-.297.812-.578zm-1.562-.61c-.45 0-.805-.238-1.063-.718-.261-.489-.39-1.125-.39-1.907 0-.758.129-1.379.39-1.86.258-.476.614-.718 1.063-.718.394 0 .738.246 1.031.735.29.48.438 1.097.438 1.843 0 .793-.145 1.43-.422 1.907-.282.48-.633.718-1.047.718zm0 0"/></symbol><symbol overflow="visible" id="z"><path d="M2.719-11.11l2.437 9.532L7.61-11.11h1.563L5.875.42H4.344l-3.266-11.53zm8.719 0V.423H9.905V-11.11zm0 0"/></symbol><symbol overflow="visible" id="A"><path d="M1.39-.766h1.766v1.844H1.391zm0 0"/></symbol><symbol overflow="visible" id="C"><path d="M1.516-1.64v-9.532h6.687v9.531zM3.03-3h3.656v-6.813H3.031zm7.766 5.234V-12.5h1.547V2.234zm0 0"/></symbol><symbol overflow="visible" id="D"><path d="M12.938 2.234h-1.5v-8.062H9.812v7.344h-1.5v-13.72h1.5v5h1.626V-12.5h1.5zM1.078-1.484v-5.657h3.938v-2.812H1.078v-1.297h5.406v5.375H2.547v3.094h.781c.684 0 1.352-.016 2-.047a19.96 19.96 0 0 0 1.969-.219l.156 1.266c-1.148.199-2.676.297-4.578.297zm0 0"/></symbol><symbol overflow="visible" id="E"><path d="M5.328-4.406c-.586 0-1.113-.086-1.578-.266a4.018 4.018 0 0 1-1.203-.719 3.209 3.209 0 0 1-.75-1.03 2.799 2.799 0 0 1-.266-1.204v-.734c0-.414.086-.817.266-1.204.176-.382.426-.722.75-1.015.332-.3.734-.54 1.203-.719a4.271 4.271 0 0 1 1.578-.281c.59 0 1.117.098 1.578.281.465.18.867.418 1.203.719a2.9 2.9 0 0 1 .75 1.015c.176.387.266.79.266 1.204v.734c0 .418-.09.82-.266 1.203-.168.387-.418.73-.75 1.031a4.118 4.118 0 0 1-1.203.72c-.46.179-.988.265-1.578.265zm0-1.375c.32 0 .625-.051.906-.157.29-.113.54-.257.75-.437.207-.176.368-.379.485-.61.12-.238.187-.484.187-.734v-.547c0-.257-.066-.507-.187-.75a1.792 1.792 0 0 0-.485-.609 2.495 2.495 0 0 0-.75-.422 2.66 2.66 0 0 0-.906-.156 2.628 2.628 0 0 0-1.656.578c-.211.168-.379.371-.5.61a1.698 1.698 0 0 0-.172.75v.546c0 .25.055.496.172.735.121.23.289.433.5.609.215.18.469.324.75.438.277.105.582.156.906.156zM10.25-1.22a97.43 97.43 0 0 1-2.016.172c-.68.055-1.398.098-2.156.125-.762.031-1.574.059-2.437.078-.856.012-1.79.016-2.797.016v-1.375c1.02 0 1.953-.004 2.797-.016.851-.008 1.648-.023 2.39-.047a73.347 73.347 0 0 0 2.11-.109c.664-.05 1.32-.11 1.968-.172zm.734 3.453V-12.5h1.532V2.234zm0 0"/></symbol><symbol overflow="visible" id="F"><path d="M4.781-3.547c-.586 0-1.086-.07-1.5-.219a3.326 3.326 0 0 1-1.031-.578 2.34 2.34 0 0 1-.61-.797c-.136-.3-.202-.609-.202-.921v-.5c0-.31.066-.614.203-.907.132-.3.336-.57.609-.812.27-.239.613-.43 1.031-.578.414-.145.914-.22 1.5-.22.559 0 1.051.083 1.469.235.426.149.773.34 1.047.578a2.256 2.256 0 0 1 .813 1.703v.5c0 .313-.07.622-.204.922-.136.293-.34.559-.61.797-.273.23-.62.426-1.046.578-.418.149-.91.22-1.469.22zm-2.031 1h9.031v4.922H10.25v-3.563h-7.5zM13.813-7.25H11.78v3.938h-1.515V-12.5h1.515v3.875h2.031zM8.858-9.625H.672v-1.328h3.344v-1.735H5.53v1.735H8.86zM4.781-4.812c.301 0 .57-.036.813-.11.238-.082.437-.187.593-.312.153-.121.27-.266.344-.422.082-.153.125-.317.125-.485v-.343a1.04 1.04 0 0 0-.125-.485 1.28 1.28 0 0 0-.343-.422 1.877 1.877 0 0 0-.594-.296 2.432 2.432 0 0 0-.813-.125c-.324 0-.605.042-.843.125-.231.074-.426.175-.579.296a1.19 1.19 0 0 0-.343.422c-.075.157-.11.32-.11.485v.343c0 .168.035.332.11.485.07.156.187.3.343.422.153.125.352.23.594.312.238.074.516.11.828.11zm0 0"/></symbol><symbol overflow="visible" id="G"><path d="M4.36-11.969c.581 0 1.097.106 1.546.313.446.199.82.46 1.125.781.301.324.524.691.672 1.094.152.406.234.808.234 1.203v.812c0 .399-.082.801-.234 1.204a3.368 3.368 0 0 1-.672 1.093c-.304.324-.68.59-1.125.797-.449.2-.965.297-1.547.297-.593 0-1.117-.098-1.562-.297a3.754 3.754 0 0 1-1.125-.797A3.239 3.239 0 0 1 1-6.562a3.456 3.456 0 0 1-.219-1.204v-.812c0-.395.07-.797.219-1.203a3.13 3.13 0 0 1 .672-1.094c.308-.32.687-.582 1.125-.781.445-.207.969-.313 1.562-.313zm6.562 9.985v-3.641H8.687v-1.36h2.235v-2.187H8.687v-1.36h2.235V-12.5h1.515v10.516zM5.032.703h7.734v1.375H3.5v-4.89h1.531zm-.673-6.469c.332 0 .63-.062.891-.187.27-.133.492-.3.672-.5.183-.195.328-.422.422-.672.09-.258.14-.516.14-.766v-.562c0-.258-.05-.516-.14-.766a2.043 2.043 0 0 0-.422-.687 2.106 2.106 0 0 0-1.563-.672c-.343 0-.652.066-.921.187a2.08 2.08 0 0 0-.657.485c-.18.199-.316.43-.406.687-.094.25-.14.508-.14.766v.562c0 .25.046.508.14.766.09.25.227.477.406.672.176.2.395.367.656.5.27.125.579.187.922.187zm0 0"/></symbol><symbol overflow="visible" id="H"><path d="M13.61-4.953v1.344H7.827v5.843H6.281v-5.843H.5v-1.344h9.14c.165-.79.282-1.54.344-2.25.07-.707.11-1.414.11-2.125v-.875H2.14v-1.39h9.484v1.89c0 .773-.04 1.558-.11 2.36-.074.792-.183 1.59-.328 2.39zm0 0"/></symbol><symbol overflow="visible" id="I"><path d="M12.938 2.234h-1.5v-8.109H9.812v7.39h-1.5v-13.718h1.5v4.953h1.626v-5.25h1.5zM4.124-4.937a2.16 2.16 0 0 1-.266.5c-.117.18-.254.363-.406.546-.312.387-.664.793-1.047 1.22-.375.429-.773.862-1.187 1.296L.187-2.453c.465-.457.899-.899 1.297-1.328.403-.434.774-.88 1.11-1.328.3-.414.504-.829.61-1.235a5.29 5.29 0 0 0 .155-1.297V-9.75H.922v-1.328H7.14v1.328H4.844v2.11c0 .46.054.886.172 1.28.12.4.343.805.656 1.22.332.437.672.855 1.016 1.25.351.386.765.808 1.234 1.265L6.875-1.562c-.406-.426-.785-.82-1.125-1.188a19.914 19.914 0 0 1-.953-1.14 4.811 4.811 0 0 1-.406-.547 2.058 2.058 0 0 1-.25-.5zm0 0"/></symbol><symbol overflow="visible" id="J"><path d="M9.11-4.875a37.658 37.658 0 0 1-3.125.281c-.575.024-1.243.04-2 .047-.762.012-1.708.016-2.829.016v-7.016h6.625v1.36h-5.11v4.312c.79 0 1.462-.004 2.017-.016a92.168 92.168 0 0 0 2.828-.14c.425-.04.906-.094 1.437-.157zm4.703-2.406H11.78v5.297h-1.515V-12.5h1.515v3.844h2.031zM4.592.703h7.579v1.375H3.047v-4.89h1.547zm0 0"/></symbol><symbol overflow="visible" id="K"><path d="M13.875-5.797h-2.203v8.031H10.14V-12.5h1.53v5.328h2.204zm-9.14.64c-.075.18-.184.364-.329.548-.136.18-.332.402-.578.671-.324.368-.695.762-1.11 1.188-.405.418-.878.879-1.405 1.375l-1-1.078a32.272 32.272 0 0 0 2.453-2.469c.226-.277.421-.535.578-.766.152-.238.273-.472.36-.703.089-.226.155-.46.187-.703.039-.238.062-.5.062-.781v-3.547H5.5v3.547c0 .313.02.598.063.844a3.406 3.406 0 0 0 .578 1.406c.164.23.367.48.609.75.32.375.664.742 1.031 1.094.364.355.774.746 1.235 1.172L8.03-1.516a39.083 39.083 0 0 1-1.36-1.328c-.366-.383-.698-.742-1-1.078-.218-.238-.413-.46-.577-.672a2.286 2.286 0 0 1-.344-.562zm0 0"/></symbol><symbol overflow="visible" id="L"><path d="M10.906-4.953v-2.984h-2.89a2.92 2.92 0 0 1-.329 1 2.965 2.965 0 0 1-.687.89c-.293.25-.652.457-1.078.61a4.05 4.05 0 0 1-1.422.234c-.594 0-1.117-.086-1.563-.266a3.534 3.534 0 0 1-1.109-.718 3 3 0 0 1-.656-1 2.909 2.909 0 0 1-.219-1.11v-.61c0-.37.07-.741.219-1.109A2.9 2.9 0 0 1 1.828-11a3.5 3.5 0 0 1 1.11-.703c.445-.184.968-.281 1.562-.281.527 0 1.004.082 1.422.234.414.148.77.352 1.062.61.29.25.52.538.688.859.176.312.289.644.344.984h2.89V-12.5h1.531v7.547zm1.531.719v6.468H3.517v-6.468H5.03v1.875h5.875v-1.875zM4.5-6.563c.32 0 .613-.05.875-.156.258-.113.477-.254.656-.422.176-.175.313-.367.407-.578.09-.215.14-.437.14-.656v-.453c0-.215-.05-.43-.14-.64a1.787 1.787 0 0 0-.407-.579c-.18-.164-.398-.3-.656-.406a2.406 2.406 0 0 0-.875-.156c-.336 0-.633.054-.89.156-.262.105-.481.242-.657.406a1.8 1.8 0 0 0-.39.578c-.094.211-.141.426-.141.64v.454c0 .219.047.441.14.656.09.211.223.403.391.578.176.168.395.309.656.422.258.106.555.157.891.157zM10.906.891v-1.922H5.031V.89zm0 0"/></symbol><symbol overflow="visible" id="M"><path d="M7.047-7.172c-.086.18-.277.41-.578.688-.305.273-.723.582-1.25.921-.45.305-.93.614-1.438.922-.511.313-1.09.66-1.734 1.032L1.28-4.86a90.99 90.99 0 0 0 1.703-.985c.52-.308 1.04-.648 1.563-1.015.34-.239.629-.47.86-.688.226-.226.405-.46.53-.703.133-.246.223-.52.266-.813.05-.3.078-.648.078-1.046v-1.438h1.547v1.438c0 .398.02.746.063 1.046.039.293.129.567.265.813.133.25.32.496.563.734.246.23.586.489 1.015.766.489.336.973.648 1.454.938.488.28 1.035.597 1.64.937l-.734 1.234c-.586-.34-1.153-.675-1.703-1a30.53 30.53 0 0 1-1.516-.953c-.5-.332-.91-.633-1.219-.906-.312-.27-.511-.492-.593-.672zm6.562 6.094V.266H.5v-1.344h5.781v-3.156h1.532v3.156zm0 0"/></symbol><symbol overflow="visible" id="N"><path d="M12.906 2.234h-1.5v-8.218H9.687v7.5h-1.5v-13.72h1.5v4.845h1.72V-12.5h1.5zM4.97-9.703H1v-1.36h5.484v3c0 .481-.023.918-.062 1.313a5.436 5.436 0 0 1-.25 1.14 4.34 4.34 0 0 1-.516 1.048c-.23.335-.535.69-.906 1.062-.367.367-.82.762-1.36 1.188-.542.43-1.19.898-1.937 1.406L.61-2.141a27.167 27.167 0 0 0 1.829-1.312c.496-.395.91-.758 1.234-1.094.332-.332.586-.648.765-.953.176-.309.301-.613.375-.906.07-.29.114-.594.125-.907.02-.308.032-.648.032-1.015zm0 0"/></symbol></defs><g fill="#33459a"><use xlink:href="#a" x="377.966" y="195.92"/><use xlink:href="#b" x="389.049" y="195.92"/><use xlink:href="#c" x="400.132" y="195.92"/><use xlink:href="#d" x="411.215" y="195.92"/><use xlink:href="#e" x="422.299" y="195.92"/><use xlink:href="#f" x="425.825" y="195.92"/><use xlink:href="#g" x="436.909" y="195.92"/><use xlink:href="#h" x="447.992" y="195.92"/><use xlink:href="#i" x="459.075" y="195.92"/><use xlink:href="#j" x="470.159" y="195.92"/><use xlink:href="#k" x="481.242" y="195.92"/><use xlink:href="#a" x="492.325" y="195.92"/><use xlink:href="#b" x="503.409" y="195.92"/><use xlink:href="#e" x="514.492" y="195.92"/></g><g fill="#495756"><use xlink:href="#l" x="377.966" y="218.358"/><use xlink:href="#m" x="390.962" y="218.358"/><use xlink:href="#n" x="403.959" y="218.358"/><use xlink:href="#o" x="416.956" y="218.358"/><use xlink:href="#p" x="429.953" y="218.358"/><use xlink:href="#q" x="442.949" y="218.358"/><use xlink:href="#r" x="455.946" y="218.358"/><use xlink:href="#s" x="468.943" y="218.358"/><use xlink:href="#t" x="473.078" y="218.358"/></g><g fill="#495756"><use xlink:href="#u" x="481.009" y="218.358"/><use xlink:href="#v" x="488.748" y="218.358"/><use xlink:href="#w" x="491.776" y="218.358"/><use xlink:href="#s" x="495.911" y="218.358"/><use xlink:href="#x" x="500.046" y="218.358"/><use xlink:href="#y" x="506.397" y="218.358"/></g><g fill="#33459a"><use xlink:href="#z" x="313.463" y="372.96"/><use xlink:href="#A" x="327.414" y="372.96"/><use xlink:href="#B" x="331.817" y="372.96"/><use xlink:href="#C" x="335.537" y="372.96"/><use xlink:href="#D" x="349.488" y="372.96"/><use xlink:href="#E" x="363.439" y="372.96"/><use xlink:href="#F" x="377.39" y="372.96"/><use xlink:href="#G" x="391.341" y="372.96"/><use xlink:href="#H" x="405.292" y="372.96"/><use xlink:href="#I" x="419.243" y="372.96"/><use xlink:href="#J" x="433.194" y="372.96"/><use xlink:href="#B" x="447.145" y="372.96"/><use xlink:href="#K" x="450.866" y="372.96"/><use xlink:href="#L" x="464.817" y="372.96"/><use xlink:href="#M" x="478.768" y="372.96"/><use xlink:href="#N" x="492.719" y="372.96"/></g></svg>