<svg xmlns="http://www.w3.org/2000/svg" xmlns:xlink="http://www.w3.org/1999/xlink" width="793.701" height="1058.268" viewBox="0 0 595.276 793.701" version="1.2"><defs><clipPath id="h"><path d="M0 425h594.555v1H0zm0 0"/></clipPath><symbol overflow="visible" id="a"><path d="M2.875.031c.434 0 .82-.144 1.156-.437.332-.301.594-.64.782-1.016.183-.34.316-.71.39-1.11.082-.402.125-.804.125-1.202 0-.403-.05-.813-.14-1.22a4.843 4.843 0 0 0-.407-1.155A3.031 3.031 0 0 0 4-7.063a1.747 1.747 0 0 0-1.14-.421c-.844 0-1.473.457-1.876 1.359-.406.906-.609 1.707-.609 2.39 0 .712.203 1.52.61 2.422C1.386-.413 2.02.032 2.874.032zm0-.281c-.75 0-1.227-.441-1.422-1.328-.2-.895-.297-1.613-.297-2.156 0-.54.098-1.254.297-2.141.195-.895.672-1.344 1.422-1.344.363 0 .648.137.86.407.206.273.363.566.468.875.113.343.195.71.25 1.093.059.387.094.758.094 1.11 0 .324-.035.675-.094 1.046a9.33 9.33 0 0 1-.203 1.016c-.094.336-.254.66-.469.969-.21.305-.511.453-.906.453zm0 0"/></symbol><symbol overflow="visible" id="b"><path d="M1.875-1.047h-.203c-.117 0-.172-.02-.172-.062 0-.04.031-.102.094-.188.058-.09.11-.156.14-.187L3.656-3.36c.34-.301.66-.633.953-1 .29-.371.438-.805.438-1.297 0-.559-.227-1-.672-1.313a2.416 2.416 0 0 0-1.453-.484c-.375 0-.723.066-1.031.187-.313.125-.598.34-.844.641a6.377 6.377 0 0 1-.219.328c-.117.168-.172.293-.172.375 0 .031.008.059.031.078.02.024.047.032.079.032.05 0 .093-.024.125-.079.039-.05.07-.093.093-.125.153-.3.375-.55.657-.75.277-.207.597-.312.953-.312.445 0 .812.144 1.094.422.277.281.421.644.421 1.078 0 .555-.23 1.121-.687 1.703-.45.574-.852 1.059-1.203 1.453L.703-.594a.789.789 0 0 1-.094.156.3.3 0 0 0-.062.157c0 .074.047.11.14.11.09-.009.165-.016.22-.016h3.968a.406.406 0 0 0 .188-.032c.039-.027.062-.082.062-.156v-1.328-.156c0-.059-.043-.094-.125-.094-.063 0-.102.035-.11.094-.011.054-.023.105-.03.156-.032.293-.114.476-.235.547-.125.074-.336.11-.625.11zm0 0"/></symbol><symbol overflow="visible" id="c"><path d="M5.422-5.844V.453h.812v-6.297zm-3.547 0V.453h.813v-6.297zm1.766 0V.453h.828v-6.297zm0 0"/></symbol><symbol overflow="visible" id="d"><path d="M.75.047v1.016h1.031V.046zm0 0"/></symbol><symbol overflow="visible" id="f"><path d="M4.453-5.328v-.234H6.86v-.641H1.203v.64H3.61v.235c0 .367-.082.691-.234.969a2.494 2.494 0 0 1-.625.734A4.59 4.59 0 0 1 1.734-3c-.375.18-.773.324-1.187.438.121.105.226.207.312.296l.266.282c.3-.102.602-.223.906-.36.301-.144.582-.312.844-.5.246-.176.473-.367.672-.578.207-.215.367-.46.484-.734.114.273.285.527.516.765.238.243.504.457.797.641.246.18.508.332.781.453.277.125.547.227.797.297l.266-.266.296-.296A4.76 4.76 0 0 1 6.36-2.97a4.662 4.662 0 0 1-1-.656 2.878 2.878 0 0 1-.656-.766 1.782 1.782 0 0 1-.25-.937zM7.781.359v-.64H4.406v-1.953h-.765v1.953H.28v.64zm0 0"/></symbol><symbol overflow="visible" id="g"><path d="M7.234-1.813v-4.812h-.75v4.813zM7.22 1.422v-2.844H1.78v.64h4.672v2.204zM3.39-5.36v-.266h1.671v-.64H.923v.64h1.703v.25c0 .313-.055.602-.156.86a2.666 2.666 0 0 1-.39.718 3.12 3.12 0 0 1-.798.719c-.304.2-.636.371-1 .515.059.043.117.09.172.141l.172.125c.059.043.113.086.156.125.051.043.098.082.14.11.227-.114.446-.239.657-.376.215-.144.426-.304.625-.484.164-.144.317-.312.453-.5.145-.183.266-.394.36-.625.113.23.25.434.406.61.164.167.344.32.531.453.184.148.379.277.578.39.196.117.39.211.578.281.051-.07.125-.156.22-.25a9.33 9.33 0 0 1 .296-.28 4.136 4.136 0 0 1-.906-.407A2.906 2.906 0 0 1 4-3.86c-.2-.206-.352-.43-.453-.671a2.087 2.087 0 0 1-.156-.828zm0 0"/></symbol><symbol overflow="visible" id="i"><path d="M3.922-1.547h4.531v2.828h-4.36c-.073 0-.12-.011-.14-.031-.023-.023-.031-.074-.031-.156zm-1.266 2.89c0 .333.078.567.235.704.164.144.406.219.718.219h6.094v-4.797H2.656zm7.078-8.812v-2.75l-1.265.203v6.75h1.265v-3.171h1.829V-7.47zm-3.64-1.36c0-.32-.074-.546-.219-.671-.148-.133-.379-.203-.688-.203H1.125v1h3.484c.09 0 .149.02.172.047.028.031.047.097.047.187v.531c0 .782-.324 1.465-.969 2.047-.648.575-1.62 1.18-2.921 1.813l.671.844C3.004-3.88 4.098-4.586 4.891-5.36 5.69-6.137 6.094-7.02 6.094-8zm0 0"/></symbol><symbol overflow="visible" id="k"><path d="M9.734-6.344v-3.875l-1.265.203V1.516h1.265v-6.813h1.875v-1.047zm-6.468-.781c0 .523-.055.988-.157 1.39a3.88 3.88 0 0 1-.515 1.141 6.382 6.382 0 0 1-.969 1.14c-.398.376-.895.802-1.484 1.267l.78.796a22.38 22.38 0 0 0 1.75-1.484 7.155 7.155 0 0 0 1.126-1.344 46.226 46.226 0 0 0 2.594 2.64l.843-.75c-.468-.401-.96-.866-1.468-1.39a22.65 22.65 0 0 1-1.47-1.64c.071-.258.126-.536.157-.829.04-.289.063-.609.063-.953v-1.156c0-.277-.024-.55-.063-.812a4.133 4.133 0 0 0-.187-.813l-1.204.39c.051.169.098.352.141.548.04.187.063.382.063.578zm0 0"/></symbol><symbol overflow="visible" id="l"><path d="M1.516-6.063l5.578 3.375L1.516.688zm0 0"/></symbol><symbol overflow="visible" id="m"><path d="M2.984-5.125c-.523.074-.945.258-1.265.547A1.395 1.395 0 0 0 1.234-3.5c0 .25.047.48.141.688.102.21.254.386.453.53.184.157.41.286.672.376.27.086.566.125.89.125.633 0 1.145-.16 1.532-.485.383-.332.578-.742.578-1.234 0-.363-.148-.695-.438-1-.28-.309-.68-.508-1.187-.594a.115.115 0 0 1-.016-.062v-.063a.466.466 0 0 1 .032-.078.362.362 0 0 0 .015-.094.086.086 0 0 0 0-.062c0-.027-.02-.063-.047-.094-.03-.039-.136-.07-.312-.094l-.422-.046c-.117 0-.195.035-.234.093-.043.063-.043.121 0 .172.07.055.125.098.156.125.027.031.027.074 0 .125-.012.012-.024.016-.031.016v.015L3-5.125h-.016zm.407 2.766c-.336 0-.606-.114-.813-.344a1.228 1.228 0 0 1-.312-.844c0-.308.101-.586.312-.828.207-.246.477-.375.813-.375.32 0 .582.133.78.39.208.262.313.536.313.813 0 .336-.105.617-.312.844-.211.23-.473.344-.781.344zM8.297.67A3.335 3.335 0 0 0 8 .642a6.737 6.737 0 0 0-.672.047.509.509 0 0 0-.203.078.729.729 0 0 1-.39.156c-.137.02-.262.031-.376.031L4.641.984a.364.364 0 0 1-.235-.093C4.344.836 4.313.742 4.313.609V-.437c0-.114.003-.208.015-.282a.563.563 0 0 0-.016-.219c0-.05-.027-.093-.078-.125a.833.833 0 0 0-.265-.109 7.615 7.615 0 0 0-.625-.047 3.733 3.733 0 0 0-.594.016c-.242.023-.398.058-.469.11-.074.042-.101.085-.078.124.008.043.05.086.125.125.082.043.164.07.25.078.227.055.395.121.5.204.102.074.156.222.156.437v.75c0 .34.11.563.329.656.226.09.484.14.765.14l3.86-.03a.865.865 0 0 0 .421-.094c.114-.055.18-.121.204-.203.007-.074-.028-.153-.11-.235-.074-.074-.21-.136-.406-.187zm-.39-4.421h1.609a.925.925 0 0 0 .421-.078c.102-.05.16-.117.172-.203.008-.07-.027-.145-.109-.219-.074-.082-.207-.145-.39-.188a3.89 3.89 0 0 0-.579-.015c-.21 0-.34.027-.39.078a.561.561 0 0 1-.157.11 1.503 1.503 0 0 1-.187.062.856.856 0 0 1-.203.047c-.063 0-.13.008-.188.015v-3.125c0-.132.004-.254.016-.359a1.75 1.75 0 0 0 .031-.281.367.367 0 0 0-.031-.203.335.335 0 0 0-.172-.125 2.665 2.665 0 0 0-.313-.094 11.656 11.656 0 0 0-.843-.14 1.366 1.366 0 0 1-.25-.032c-.344-.02-.535.02-.563.11-.023.093.078.19.297.28l.328.172c.102.043.192.098.266.157a.62.62 0 0 1 .172.203c.039.086.062.191.062.312v5.391c0 .43.024.79.078 1.078.059.281.172.418.329.406.164 0 .304-.18.421-.546.114-.372.172-.86.172-1.454zM6.077-6.39a3.04 3.04 0 0 0-.281-.063A4.712 4.712 0 0 0 5.39-6.5a2.525 2.525 0 0 0-.454.016 1.219 1.219 0 0 0-.406.093c-.125.055-.293.09-.5.11a13.56 13.56 0 0 1-1.344.063c-.218 0-.398-.005-.53-.016-.305 0-.56-.004-.766-.016-.211-.02-.41-.04-.594-.063a1.46 1.46 0 0 0-.344-.015c-.117 0-.2.012-.25.031-.055.031-.058.082-.016.14.04.063.16.15.36.25.3.169.539.274.719.313.175.043.328.055.453.032.12-.028.238-.067.343-.11.114-.05.243-.086.391-.11.195-.019.457-.034.781-.046.332-.008.676-.016 1.032-.016.351 0 .687.008 1 .016h.703c.238 0 .379-.063.422-.188.05-.12-.055-.25-.313-.375zm-1.812-.704a.8.8 0 0 0 .406-.11c.101-.058.156-.128.156-.202 0-.059-.058-.117-.172-.172-.117-.059-.3-.102-.547-.125a9.952 9.952 0 0 1-.89-.047 5.563 5.563 0 0 0-.344-.047L2.5-7.859c-.262-.051-.441-.04-.531.03-.086.063-.043.153.125.266.195.149.375.27.531.36a.983.983 0 0 0 .453.125 4 4 0 0 0 .531.031c.184-.008.407-.023.657-.047zm0 0"/></symbol><symbol overflow="visible" id="n"><path d="M3.64-4.563c-.093 0-.183-.003-.265-.015a4.853 4.853 0 0 1-.25-.031h-.313c-.292.03-.457.09-.484.171-.023.086.063.153.25.204.145.023.274.07.39.14.114.074.177.2.188.375v.094c0 .055.004.113.016.172v.187a.362.362 0 0 0 .015.063H2c-.18-.008-.34-.02-.484-.031-.157-.008-.305-.02-.438-.032a4.651 4.651 0 0 1-.437-.046c-.313-.008-.512.035-.594.124-.07.086.035.196.328.329.434.199.781.332 1.031.39.246.055.453.07.61.047.144-.02.273-.062.39-.125.114-.058.254-.098.422-.11.02 0 .235-.019.64-.062.415-.039 1.055-.066 1.923-.078h1.952c.259 0 .493.008.704.016.215.011.422.023.61.031.3.023.581.016.843-.016.27-.039.41-.144.422-.312.008-.113-.074-.203-.25-.266a2.122 2.122 0 0 0-.61-.14c-.25-.02-.519-.012-.796.015-.274.031-.52.09-.735.172a.687.687 0 0 1-.25.063 3.178 3.178 0 0 1-.343.015L7-3.906c.008-.09.02-.176.031-.25.008-.07.016-.14.016-.203A.295.295 0 0 0 7-4.516c-.023-.05-.074-.093-.156-.125a1.169 1.169 0 0 1-.234-.047c.238-.164.421-.363.546-.593.133-.239.203-.492.203-.766 0-.414-.168-.797-.5-1.14-.324-.352-.77-.57-1.328-.657-.023-.008-.031-.023-.031-.047v-.078c.008-.02.02-.047.031-.078.008-.027.02-.062.032-.094 0-.02-.008-.039-.016-.062a.19.19 0 0 0-.031-.094c-.043-.027-.16-.055-.344-.078-.18-.027-.324-.05-.438-.063-.125 0-.214.04-.265.11-.043.074-.04.129.015.156a.8.8 0 0 1 .172.14c.04.032.035.071-.015.11l-.047.047-.032.031c-.562.063-1.027.262-1.39.594a1.563 1.563 0 0 0-.531 1.203c0 .313.086.602.265.86.176.261.422.472.735.625zm.563.22c.121.042.254.073.39.093.134.012.274.016.423.016.132 0 .265-.004.39-.016.133-.02.266-.05.39-.094.04.063.079.137.11.219.04.086.063.168.063.25l-.063.672H4.203l-.031-.625a.439.439 0 0 1-.016-.125c.008-.04.02-.086.032-.14v-.11a.7.7 0 0 0 .015-.14zm.813-.454c-.387 0-.707-.125-.954-.375a1.34 1.34 0 0 1-.359-.953c0-.383.117-.695.36-.938.246-.246.566-.375.953-.375.394 0 .707.137.937.407.238.261.36.566.36.906 0 .375-.122.695-.36.953-.242.25-.555.375-.937.375zm-.407 3c-.574.063-1.039.262-1.39.594A1.563 1.563 0 0 0 2.688 0c0 .246.05.484.156.703.113.215.273.41.484.578.207.164.453.297.735.39.289.09.609.141.953.141.332 0 .632-.05.906-.14a2.49 2.49 0 0 0 .734-.39c.207-.157.364-.348.469-.563C7.238.5 7.297.258 7.297 0c0-.426-.164-.805-.484-1.14-.325-.34-.77-.563-1.329-.657a.036.036 0 0 1-.015-.031c0-.008.004-.024.015-.047a.73.73 0 0 1 .032-.11.307.307 0 0 0 .015-.077v-.079a.19.19 0 0 0-.031-.093c-.043-.028-.152-.055-.328-.079-.18-.019-.324-.039-.438-.062-.125 0-.214.04-.265.11-.043.074-.04.128.015.156a.8.8 0 0 1 .172.14c.04.043.035.09-.015.14l-.016.016-.016.016zm.407 3.031c-.387 0-.7-.129-.938-.375-.242-.25-.36-.566-.36-.937 0-.371.118-.688.36-.938.238-.246.55-.375.938-.375.37 0 .675.137.906.407.226.273.344.574.344.906 0 .383-.121.695-.36.937a1.17 1.17 0 0 1-.89.375zm0 0"/></symbol><symbol overflow="visible" id="o"><path d="M4.266-6.375l-.079 3.047-2.093.015L2-6.328zm1.203 3.25c0-.059-.055-.11-.157-.14-.105-.028-.195-.051-.265-.063l.297-2.828c0-.102.023-.188.078-.25.05-.059.094-.117.125-.172.027-.059.035-.113.016-.156-.024-.051-.098-.11-.22-.172-.179-.07-.386-.09-.624-.063a2.797 2.797 0 0 0-.547.094c-.055.023-.192.043-.406.063-.211.011-.434.023-.672.03H2.125c-.074 0-.164-.003-.266-.015a3.148 3.148 0 0 0-.328-.047 5.307 5.307 0 0 0-.36-.047 2.47 2.47 0 0 0-.374-.03c-.274.023-.445.089-.516.202-.074.106-.047.168.078.188.082.031.16.058.235.078.07.023.133.05.187.078.051.023.094.059.125.11.028.054.051.117.063.187l.203 3.125c.02.23.078.394.172.484.09.086.176.125.25.125a.436.436 0 0 0 .265-.11c.102-.081.164-.206.188-.374h.406c.195-.008.426-.016.688-.016.257-.008.546-.015.859-.015.32 0 .64-.004.953-.016a.95.95 0 0 0 .36-.063c.101-.05.156-.113.156-.187zM8.234.672A4.384 4.384 0 0 0 7.938.64a6.737 6.737 0 0 0-.672.047.509.509 0 0 0-.204.078.805.805 0 0 1-.406.156 2.63 2.63 0 0 1-.36.031L4.532.984a.388.388 0 0 1-.25-.093C4.22.836 4.188.742 4.188.609V-.766c0-.101.003-.195.015-.28a.874.874 0 0 0 0-.204.209.209 0 0 0-.094-.14c-.043-.04-.129-.07-.25-.094a7.615 7.615 0 0 0-.625-.047 7.76 7.76 0 0 0-.609 0c-.23.031-.387.074-.469.125-.074.043-.101.086-.078.125.02.054.067.101.14.14.083.032.16.059.235.079.238.042.406.105.5.187.102.074.156.215.156.422V.625c0 .34.114.563.344.656.227.09.485.14.766.14l3.906-.03a.865.865 0 0 0 .422-.094c.101-.055.164-.121.187-.203.008-.074-.027-.153-.109-.235-.074-.074-.207-.136-.39-.187zm-.406-5.094v-2.844c0-.132.004-.254.016-.359a1.75 1.75 0 0 0 .031-.281.367.367 0 0 0-.031-.203.335.335 0 0 0-.172-.125 2.665 2.665 0 0 0-.313-.094 11.656 11.656 0 0 0-.421-.078 4.978 4.978 0 0 0-.407-.063 1.01 1.01 0 0 1-.234-.031c-.356-.02-.55.02-.578.11-.032.093.062.19.281.28.121.063.238.122.344.172.101.043.191.098.265.157a.62.62 0 0 1 .172.203c.04.086.063.191.063.312v5.391c0 .43.023.79.078 1.078.05.281.156.418.312.406.164 0 .305-.18.422-.546.114-.372.172-.86.172-1.454v-1.64h1.625c.164 0 .3-.024.406-.078.102-.059.164-.13.188-.204.008-.082-.027-.16-.11-.234-.085-.082-.222-.144-.406-.187a3.628 3.628 0 0 0-.562-.016c-.211 0-.336.027-.375.078a.72.72 0 0 1-.36.172 5.298 5.298 0 0 1-.406.078zm0 0"/></symbol><symbol overflow="visible" id="F"><path d="M5.234-1.797c-.523.074-.949.277-1.28.61-.337.324-.5.726-.5 1.203 0 .246.054.484.171.703.113.226.27.426.469.594.183.164.414.296.687.39.278.09.578.14.89.14.665 0 1.196-.179 1.595-.53.402-.344.609-.778.609-1.297 0-.426-.152-.813-.453-1.157-.305-.34-.727-.562-1.266-.656a.036.036 0 0 1-.015-.031c0-.02.004-.04.015-.063 0-.027.004-.062.016-.093.02-.04.031-.07.031-.094a.133.133 0 0 0 0-.078c-.012-.02-.027-.047-.047-.078-.031-.028-.144-.055-.328-.079-.18-.027-.332-.05-.453-.062-.117-.008-.2.027-.25.11-.055.074-.047.12.016.14.058.055.113.102.156.14.039.032.043.07.016.11l-.032.031c0 .012-.008.016-.015.016l-.016.016c0 .011-.008.015-.016.015zm.438 3.078c-.336 0-.617-.133-.844-.39A1.442 1.442 0 0 1 4.5-.063c0-.363.11-.675.328-.937.227-.258.508-.39.844-.39.176 0 .332.038.469.109.144.074.27.18.375.312.101.125.18.274.234.438.059.156.094.316.094.469 0 .37-.117.69-.344.953-.219.257-.496.39-.828.39zm2.14-5.937v-2.61c0-.144.004-.27.016-.375a1.75 1.75 0 0 0 .031-.28.348.348 0 0 0-.046-.188c-.024-.051-.083-.098-.172-.141a3.909 3.909 0 0 0-.313-.078c-.137-.027-.277-.063-.422-.094-.148-.02-.285-.035-.406-.047a1.505 1.505 0 0 1-.234-.047c-.344-.02-.536.024-.563.125-.031.094.055.184.266.266l.36.172c.1.043.19.098.265.156.07.063.129.137.172.219.039.086.062.191.062.312v4.141c0 .406.024.73.078.969.059.242.164.355.313.344.152 0 .289-.157.406-.47.121-.308.188-.753.188-1.327v-.641h1.609a.925.925 0 0 0 .422-.078c.101-.059.16-.129.172-.203.02-.082-.02-.16-.11-.235a.848.848 0 0 0-.39-.187 3.71 3.71 0 0 0-.563-.016c-.21 0-.34.024-.39.063a.435.435 0 0 1-.157.125c-.062.023-.129.043-.187.062a.856.856 0 0 1-.203.047c-.075 0-.145.008-.204.016zm-4.25.187c.145.125.297.262.454.407.164.136.328.269.484.39.152.149.3.285.438.406.144.118.269.215.375.297.132.137.257.223.375.25a.43.43 0 0 0 .28 0c.06-.027.102-.086.126-.172a.573.573 0 0 0-.047-.328.829.829 0 0 1-.11-.14c-.042-.07-.097-.157-.156-.25-.074-.09-.152-.188-.234-.282-.086-.09-.164-.171-.234-.234a1.395 1.395 0 0 0-.157-.047 1 1 0 0 0-.125-.047h-.125a.713.713 0 0 1-.172-.093 1.805 1.805 0 0 1-.328-.172 5.042 5.042 0 0 1-.5-.375 11.41 11.41 0 0 0 1.14-1.485c.145-.195.255-.383.329-.562.082-.184.02-.328-.188-.422H5c-.105-.008-.223-.02-.344-.031-.125 0-.246.007-.36.015a.787.787 0 0 0-.234.047c-.156.094-.402.149-.734.156-.324.012-.683.016-1.078.016-.242 0-.457-.004-.64-.016-.188-.007-.317-.023-.376-.046-.312-.028-.496-.008-.546.062-.055.074.03.176.25.297.238.148.43.246.578.297.152.054.285.086.39.093.09 0 .172-.015.235-.046.07-.028.144-.063.218-.094h.047c.028-.008.067-.02.11-.031a.67.67 0 0 0 .14-.016 2.24 2.24 0 0 0 .172-.031c.07 0 .149-.004.235-.016.09-.008.19-.02.296-.031.102-.008.211-.02.329-.031.113-.008.238-.02.374-.032-.261.5-.558.977-.89 1.422-.324.45-.664.852-1.016 1.203-.344.356-.683.668-1.015.938-.336.273-.637.48-.907.625a.375.375 0 0 0-.125.125c-.011.043.004.082.047.11.028.023.098.027.203.015.114-.008.27-.055.47-.14.308-.122.718-.36 1.218-.704a9.185 9.185 0 0 0 1.515-1.297zm0 0"/></symbol><symbol overflow="visible" id="G"><path d="M5.266-1.75c-.524.063-.95.258-1.282.578A1.618 1.618 0 0 0 3.5.016c0 .257.05.492.156.703.102.215.254.41.453.578.196.152.43.281.704.375.269.09.57.14.906.14.644 0 1.164-.175 1.562-.515.403-.336.61-.762.61-1.281 0-.414-.153-.79-.454-1.125-.292-.34-.71-.555-1.25-.641a.093.093 0 0 1-.015-.047c0-.02.004-.039.016-.062 0-.028.003-.055.015-.079a.143.143 0 0 0 .031-.078v-.078c0-.02-.02-.047-.046-.078-.032-.039-.145-.07-.329-.094a3.168 3.168 0 0 0-.437-.046c-.125 0-.215.039-.266.109-.054.074-.054.121 0 .14.04.024.078.043.11.063.027.012.05.035.062.063.02.011.031.027.031.046 0 .012-.007.036-.015.063l-.032.031-.046.047zm.453 3.016c-.344 0-.633-.133-.86-.391a1.395 1.395 0 0 1-.328-.922c0-.363.11-.672.328-.922.227-.258.516-.39.86-.39.332 0 .61.144.828.421.215.274.328.57.328.891 0 .363-.117.672-.344.922-.218.258-.492.39-.812.39zm.218-7.875c.02-.09.047-.18.079-.266.027-.082.05-.148.062-.203a.318.318 0 0 0-.062-.188c-.032-.05-.114-.097-.235-.14a1.556 1.556 0 0 0-.562-.016c-.211.024-.383.059-.516.11a3.48 3.48 0 0 1-.578.093c-.281.024-.59.032-.922.032-.344.011-.691.011-1.031 0a4.76 4.76 0 0 1-.828-.079c-.242-.02-.41-.02-.5 0-.086.024-.125.055-.125.094 0 .043.023.09.078.14.058.044.125.083.187.11.364.188.649.309.86.36.207.054.383.074.531.062.133-.02.25-.05.344-.094a.829.829 0 0 1 .328-.093s.078-.004.234-.016l.547-.031c.195-.008.395-.02.594-.032a13.4 13.4 0 0 0 .422-.046 3.144 3.144 0 0 0-.016.312v.25a1.316 1.316 0 0 0-.016.203v.125a7.735 7.735 0 0 0-.03.281c0 .094-.012.223-.032.375-.031.2-.059.368-.078.5a1.966 1.966 0 0 0-.031.329c0 .085.007.152.03.203a.174.174 0 0 0 .141.093c.133.032.274-.03.422-.187.145-.164.274-.453.391-.86.09-.34.164-.66.219-.953.058-.289.093-.445.093-.468zM7.97-4.625v-2.64c0-.145.004-.27.015-.376a1.75 1.75 0 0 0 .032-.28.348.348 0 0 0-.047-.188c-.024-.051-.082-.098-.172-.141a3.909 3.909 0 0 0-.313-.078c-.136-.027-.277-.063-.421-.094-.149-.02-.286-.035-.407-.047a1.505 1.505 0 0 1-.234-.047c-.344-.02-.535.024-.563.125-.03.094.063.184.282.266.12.063.238.121.343.172.102.043.192.098.266.156.07.063.125.137.156.219.04.086.063.191.063.312v3.47c-.418.073-.934.151-1.547.233-.606.075-1.211.133-1.813.172v-1.25c0-.101.004-.191.016-.265.008-.082.016-.16.016-.235a.232.232 0 0 0-.063-.156.442.442 0 0 0-.187-.14l-.25-.032a4.658 4.658 0 0 0-.313-.047c-.105-.007-.207-.015-.297-.015a1.606 1.606 0 0 1-.219-.032c-.312.024-.488.083-.515.172-.031.094.047.176.234.235.153.031.29.09.406.172.122.086.188.21.188.375v1.296c-.148.012-.293.024-.438.032h-.374c-.2 0-.395-.004-.579-.016a5.378 5.378 0 0 1-.53-.047c-.438-.027-.657.02-.657.14.008.118.16.243.453.376.34.168.617.277.828.328a1.392 1.392 0 0 0 .953-.063c.114-.05.242-.093.39-.124.247-.02.556-.051.923-.094.363-.051.742-.114 1.14-.188.395-.058.786-.129 1.172-.203.395-.07.75-.144 1.063-.219v.188c0 .418.031.758.093 1.015.06.262.165.387.313.376.145 0 .281-.172.406-.516.121-.352.188-.817.188-1.39v-.516h1.61c.183 0 .327-.024.421-.079.102-.058.164-.128.188-.203 0-.082-.043-.16-.126-.234-.074-.07-.207-.133-.39-.188a3.89 3.89 0 0 0-.578-.015c-.211.012-.336.039-.375.078a.75.75 0 0 1-.344.188 2.957 2.957 0 0 1-.406.062zm0 0"/></symbol><symbol overflow="visible" id="H"><path d="M8.094.656a2.234 2.234 0 0 0-.297-.015h-.344a2.073 2.073 0 0 0-.328.046.509.509 0 0 0-.203.079.795.795 0 0 1-.39.156c-.137.008-.262.015-.376.015L3.938.97a.388.388 0 0 1-.25-.094C3.624.82 3.594.73 3.594.609V-.875c0-.113.004-.207.015-.281a1.02 1.02 0 0 0 0-.219.264.264 0 0 0-.093-.14.669.669 0 0 0-.25-.094 8.39 8.39 0 0 0-.625-.047 4.005 4.005 0 0 0-.61.015c-.23.024-.386.059-.469.11-.074.043-.101.086-.078.125.008.043.055.086.141.125.082.043.164.07.25.078.227.055.39.121.484.203.102.074.157.215.157.422V.609c0 .34.109.563.328.657.226.101.488.156.781.156L8 1.375a.77.77 0 0 0 .406-.094c.102-.054.164-.117.188-.187.02-.074-.012-.153-.094-.235-.086-.086-.223-.152-.406-.203zM7.03-3.53c.07-.082.133-.176.188-.281.058-.114.117-.235.172-.36.039-.113.082-.238.125-.375.05-.133.097-.27.14-.406.04-.152.086-.336.14-.547.052-.215.099-.43.141-.64.04-.196.07-.368.094-.516.028-.145.047-.227.047-.25.027-.09.063-.18.094-.266a.87.87 0 0 0 .078-.234.237.237 0 0 0-.047-.172c-.043-.05-.133-.098-.265-.14a2.03 2.03 0 0 0-.579 0c-.23.023-.414.058-.546.109-.094.03-.348.058-.75.078-.407.011-.856.023-1.344.031-.492.012-.965.012-1.422 0a8.855 8.855 0 0 1-.969-.078 2.984 2.984 0 0 0-.547.016c-.093.011-.148.039-.156.078-.012.043.016.086.078.125a.842.842 0 0 0 .203.109c.34.188.617.309.828.36.207.042.375.058.5.046.145-.008.27-.035.375-.078.114-.05.25-.082.407-.094l.39-.015c.27-.008.578-.02.922-.032.332-.007.66-.019.984-.03.32-.009.547-.02.672-.032a9.358 9.358 0 0 0-.03.469 7.672 7.672 0 0 1-.063.578c-.024.2-.051.398-.079.594-.023.187-.042.351-.062.484a11.56 11.56 0 0 0-.11.516c-.023.156-.05.293-.077.406-.024.125-.04.238-.047.328a.493.493 0 0 0 .015.234 6.332 6.332 0 0 1-.468.016H5.25c-.117-.008-.21-.016-.281-.016H2.03c-.18-.007-.34-.02-.484-.03-.149-.009-.29-.02-.422-.032C1-3.586.863-3.598.719-3.61c-.305-.02-.496.011-.578.093-.086.075.023.18.328.313.414.2.742.324.984.375.238.055.438.07.594.047.144-.008.273-.04.39-.094.114-.059.254-.102.422-.125h.172c.114-.008.27-.023.469-.047.207-.008.469-.02.781-.031l1.094-.031h1.922c.246 0 .476.007.687.015h.61c.3.031.578.031.828 0 .246-.039.379-.144.39-.312.008-.102-.07-.188-.234-.25a1.975 1.975 0 0 0-.61-.14 3.572 3.572 0 0 0-.78.03 3.134 3.134 0 0 0-.704.157.274.274 0 0 1-.109.046.613.613 0 0 0-.11.016c-.03 0-.074.008-.124.016h-.11zm0 0"/></symbol><symbol overflow="visible" id="p"><path d="M4.328-2.39a.844.844 0 0 0-.25-.61.828.828 0 0 0-1.422.61.85.85 0 0 0 .235.609.8.8 0 0 0 .593.25.812.812 0 0 0 .594-.25.831.831 0 0 0 .25-.61zm0 0"/></symbol><symbol overflow="visible" id="q"><path d="M3.813 1.344c.363 0 .69-.04.984-.11.3-.062.555-.16.766-.28A1.34 1.34 0 0 0 6.03.5c.114-.18.172-.367.172-.563a.964.964 0 0 0-.172-.546 1.34 1.34 0 0 0-.468-.454 2.593 2.593 0 0 0-.766-.312 4.216 4.216 0 0 0-.984-.11c-.387 0-.731.04-1.032.11-.293.074-.539.18-.734.313a1.43 1.43 0 0 0-.485.453 1.01 1.01 0 0 0-.156.546c0 .196.051.383.157.563.113.176.273.328.484.453.195.121.441.219.734.281.301.07.645.11 1.031.11zM1.921-.063c0-.152.047-.296.14-.421a1.07 1.07 0 0 1 .407-.313 2.26 2.26 0 0 1 .594-.187c.226-.051.476-.079.75-.079.257 0 .5.028.718.079.227.043.43.105.61.187.164.086.296.192.39.313.102.125.157.27.157.421A.626.626 0 0 1 5.53.36a1.18 1.18 0 0 1-.39.313c-.18.09-.383.16-.61.203a4.409 4.409 0 0 1-1.469 0A2 2 0 0 1 2.47.672a1.07 1.07 0 0 1-.406-.313.694.694 0 0 1-.141-.421zM6.156-1.53v-4.344h-.5v1.75h-.953V-5.75h-.5v3.969h.5v-1.89h.953v2.14zM2.313-4.97v-.672h-.5v.657c0 .336-.036.632-.094.89a2.57 2.57 0 0 1-.282.703c-.136.23-.308.446-.515.641-.2.188-.434.363-.703.516.058.054.133.117.218.187.09.063.165.121.22.172.195-.145.363-.281.5-.406.144-.133.28-.274.405-.422.09-.121.18-.266.266-.422.082-.164.16-.352.234-.563.06.18.145.348.25.5.102.157.22.305.344.438.121.148.258.273.406.375.145.105.29.2.438.281.05-.07.11-.14.172-.203.058-.07.125-.14.187-.203a2.46 2.46 0 0 1-.64-.375 2.28 2.28 0 0 1-.5-.578 2.444 2.444 0 0 1-.313-.688 3.376 3.376 0 0 1-.094-.828zm0 0"/></symbol><symbol overflow="visible" id="r"><path d="M5.969 1.125v-.39H1.656v-.829h4.157v-1.562H3.719v-.797h2.984v-.406H.25v.406h2.969v.797H1.14v.406h4.156v.766H1.14v1.609zM5.312-4H1.626v-1.25h3.688zm-4.171.406h4.671v-2.062H1.141zm0 0"/></symbol><symbol overflow="visible" id="s"><path d="M3.563-5.453v-.422H1.469v.422zm.984 1.047v-.422H.53v.422zm-2.016.468c-.511 0-.926.118-1.234.344-.305.23-.453.508-.453.828 0 .157.035.309.11.454.081.148.194.269.343.359.144.117.32.207.531.266.207.054.442.078.703.078.52 0 .93-.114 1.235-.344.308-.227.468-.5.468-.813 0-.32-.152-.597-.453-.828-.304-.226-.722-.344-1.25-.344zM1.36-2.78c0-.215.098-.395.297-.531.207-.133.5-.204.875-.204.383 0 .676.07.875.204.196.136.297.316.297.53 0 .231-.101.419-.297.563-.199.137-.492.203-.875.203-.375 0-.668-.066-.875-.203a.664.664 0 0 1-.297-.562zM6.938-3.5v-.438H5.921v-1.937h-.5v4.547h.5V-3.5zM5.921 1.266V-.97h-4.5v.438h4.016v1.797zm0 0"/></symbol><symbol overflow="visible" id="u"><path d="M3.844-2.172v-3.437h-.469v1.296H1.203v-1.296H.734v3.437zm-.469-.422H1.203V-3.89h2.172zm2.469 3.86V-1.25H1.328v.438H5.36v2.078zm1-5.094v-.438h-1V-5.89h-.5v4.266h.5v-2.203zm0 0"/></symbol><symbol overflow="visible" id="v"><path d="M2.64-4.266v-1.28h-.515v1.124c0 .418-.05.817-.14 1.188a3.813 3.813 0 0 1-.407 1.046c-.18.325-.398.622-.656.891a4.573 4.573 0 0 1-.89.719c.07.055.155.117.25.187.1.063.179.121.234.172.195-.144.394-.316.593-.515.196-.196.38-.414.547-.657.176-.226.328-.46.453-.703.121-.246.211-.492.266-.734.09.273.207.535.344.781.144.242.304.465.484.672.152.18.32.352.5.516.184.156.379.304.578.437l.188-.187c.082-.082.156-.149.218-.204a5.057 5.057 0 0 1-.921-.671 3.882 3.882 0 0 1-.641-.829 3.459 3.459 0 0 1-.36-.89 4.109 4.109 0 0 1-.124-1.063zm2.657-1.609v7.094h.516v-3.844h1.093v-.453H5.813v-2.797zm0 0"/></symbol><symbol overflow="visible" id="w"><path d="M6.938-3.328v-.438H5.921v-2.109h-.484v5.266h.484v-2.72zm-.766 4.39V.625H2.109V-.969h-.5v2.031zm-2.61-6.515v-.422H1.47v.422zm.985 1.078v-.422H.53v.422zm-2.016.469c-.261 0-.496.035-.703.094-.21.062-.387.152-.531.265-.149.106-.262.23-.344.375a1.033 1.033 0 0 0 0 .922c.082.148.195.273.344.375.144.117.32.207.531.266.207.062.442.093.703.093.258 0 .492-.03.703-.093.207-.059.391-.149.547-.266.133-.102.242-.227.328-.375a.911.911 0 0 0 .125-.453c0-.32-.152-.602-.453-.844-.304-.238-.722-.36-1.25-.36zM1.36-2.72c0-.215.098-.398.297-.547.207-.144.5-.218.875-.218.383 0 .676.074.875.218.196.149.297.332.297.547 0 .23-.101.426-.297.578-.199.149-.492.22-.875.22-.375 0-.668-.071-.875-.22a.7.7 0 0 1-.297-.578zm0 0"/></symbol><symbol overflow="visible" id="x"><path d="M5.64-3.047c.028-.183.063-.394.094-.625.04-.226.067-.457.079-.687.027-.227.05-.454.062-.672.02-.215.035-.426.047-.625h-4.89v.422h4.374c-.011.168-.027.347-.047.53a7.672 7.672 0 0 1-.062.579c-.024.2-.05.395-.078.578a17.19 17.19 0 0 0-.078.5H.25v.422h2.875v1.438H1.047v.421h4.25v2.032h.516v-2.454H3.624v-1.437h3.078v-.422zm0 0"/></symbol><symbol overflow="visible" id="y"><path d="M3.906-1.86c.051-.257.098-.546.14-.859.04-.32.071-.648.095-.984.027-.32.05-.633.062-.938.02-.3.035-.566.047-.796H.703v.421h3.031c0 .25-.011.524-.03.813-.024.281-.052.566-.079.844-.031.28-.07.558-.11.828-.03.261-.066.488-.093.672zm1.172.844a6.082 6.082 0 0 1-.61.094c-.261.024-.534.043-.812.063-.281.011-.554.027-.812.046-.262.012-.465.016-.61.016v-2.5H1.75v2.5H.328v.438h1.266c.277 0 .586-.004.922-.016.34-.02.675-.04 1-.063.308-.019.609-.039.89-.062.278-.027.504-.055.672-.078zm.234-4.859v7.094h.516V-2.47H6.86v-.453H5.83v-2.953zm0 0"/></symbol><symbol overflow="visible" id="z"><path d="M6.078 1.219v-7.094h-.5v7.094zM.953-5.421v.437h2.5c-.043.449-.137.87-.281 1.265-.137.399-.309.77-.516 1.11a5.224 5.224 0 0 1-.937 1.093c-.356.325-.77.614-1.235.86.059.043.145.101.25.172.114.074.192.136.235.187a7.388 7.388 0 0 0 1.265-1.031c.371-.383.692-.805.954-1.266.226-.402.41-.844.546-1.312.145-.477.235-.985.266-1.516zm0 0"/></symbol><symbol overflow="visible" id="A"><path d="M5.969 1.125v-.39H1.656v-.86h4.157v-1.61H3.719v-.796h2.984v-.422H.25v.422h2.969v.797H1.14v.406h4.156v.797H1.14v1.656zM3.734-5.719v-.187h-.53v.187c0 .282-.083.535-.235.75-.156.211-.364.387-.61.532-.25.156-.535.289-.843.39a7.381 7.381 0 0 1-.891.219c.059.062.125.137.188.219.058.074.113.136.156.187.277-.058.55-.133.812-.219.258-.09.5-.203.719-.328.207-.12.395-.265.563-.422.164-.152.304-.336.421-.546.121.242.286.449.485.625.207.167.43.308.672.421.214.118.441.211.671.282.239.074.458.136.657.187a.903.903 0 0 0 .078-.094l.094-.093a.43.43 0 0 1 .078-.11.956.956 0 0 1 .11-.094 8.768 8.768 0 0 1-.829-.203 3.369 3.369 0 0 1-.797-.359A2.252 2.252 0 0 1 4-4.922a1.241 1.241 0 0 1-.266-.797zm0 0"/></symbol><symbol overflow="visible" id="B"><path d="M2.766-3.328c.257 0 .492-.031.703-.094A1.76 1.76 0 0 0 4-3.703c.145-.113.254-.25.328-.406a1.04 1.04 0 0 0 0-.984A1.198 1.198 0 0 0 4-5.5a1.953 1.953 0 0 0-.531-.281c-.211-.07-.446-.11-.703-.11-.262 0-.496.04-.704.11-.21.074-.386.168-.53.281a1.3 1.3 0 0 0-.345.406c-.074.157-.109.32-.109.485 0 .18.035.347.11.5.07.148.187.277.343.39.145.125.32.227.532.297.207.063.44.094.703.094zm.015-.406c-.21 0-.394-.024-.547-.079a.976.976 0 0 1-.375-.203.793.793 0 0 1-.234-.28.65.65 0 0 1-.078-.313c0-.207.098-.407.297-.594.195-.195.504-.297.922-.297.402 0 .707.102.906.297.207.187.312.387.312.594 0 .105-.027.21-.078.312-.054.106-.129.2-.219.281a1.491 1.491 0 0 1-.906.281zM6.187-.406v-5.469h-.5v4.172h-1.75v.406h1.75v.89zm.157 1.453V.625H2.187v-1.36h-.515v1.782zm-.89-4c-.106.023-.263.05-.47.078-.21.023-.445.043-.703.063a14.5 14.5 0 0 1-.828.046c-.281.012-.55.016-.797.016l-2.172.016v.421h1.704v1.22h.484v-1.235c.215 0 .457-.004.719-.016.27-.008.53-.023.78-.047.259-.007.5-.023.72-.046.226-.028.414-.055.562-.079zm0 0"/></symbol><symbol overflow="visible" id="C"><path d="M1.39-.047c0 .184.051.363.157.531.101.176.254.329.453.454.195.132.445.238.75.312.3.07.648.11 1.047.11.777 0 1.375-.145 1.781-.423.414-.273.625-.601.625-.984s-.21-.71-.625-.984c-.406-.278-1.004-.422-1.781-.422-.793 0-1.395.144-1.797.422-.406.273-.61.601-.61.984zm.5 0c0-.3.176-.539.532-.719.351-.175.816-.265 1.39-.265.551 0 1 .09 1.344.265.352.18.532.418.532.72 0 .308-.18.554-.532.734-.343.175-.793.265-1.343.265-.575 0-1.04-.09-1.391-.265-.356-.18-.531-.426-.531-.735zm2.063-4.406h1.64v.922h-1.64zm0 2.14v-.796h1.64v1.562h.5v-4.328h-.5v1h-1.64v-.656H.843v3.218zm-.469-.421H1.313V-5.11h2.171zm0 0"/></symbol><symbol overflow="visible" id="D"><path d="M6.719.234v-.421H4.062v-2.735h-.484v2.735H2.313v-2.735h-.47v2.735H.235v.421zM1.047-5.453v.437h4.375c-.012.274-.035.567-.063.875-.03.305-.074.621-.125.954-.043.324-.09.648-.14.968-.055.324-.114.637-.172.938h.516c.132-.664.238-1.36.312-2.078.082-.715.145-1.414.188-2.094zm0 0"/></symbol><symbol overflow="visible" id="E"><path d="M6.703-1.484v-.422H.25v.422h3v2.703h.516v-2.703zm-2.969-3.86v-.343h-.53v.343c0 .305-.083.582-.235.828a2.49 2.49 0 0 1-.61.641c-.25.18-.535.332-.843.453a5.516 5.516 0 0 1-.954.297c.06.063.13.137.204.219.082.086.144.148.187.187.258-.07.516-.16.766-.265a4.5 4.5 0 0 0 .718-.375c.215-.133.415-.297.594-.485a2.68 2.68 0 0 0 .453-.656c.102.242.243.46.422.656.184.188.39.352.61.485a3.5 3.5 0 0 0 .75.406c.257.105.504.183.734.234l.156-.219c.059-.07.13-.14.203-.203a5.364 5.364 0 0 1-.953-.28 3.54 3.54 0 0 1-.843-.5 2.205 2.205 0 0 1-.61-.626 1.473 1.473 0 0 1-.219-.797zm0 0"/></symbol><symbol overflow="visible" id="I"><path d="M4.906.875V-5.75h-.484v2.156H3.14v.453h1.28V.875zm1.375.344v-7.094h-.484v7.094zm-3.89-5.563v-1.172h-.5v.985c0 .406-.036.793-.094 1.156a4.695 4.695 0 0 1-.266 1c-.148.367-.34.7-.578 1-.242.305-.539.574-.89.813.039.03.082.066.124.093l.126.078c.05.032.093.067.124.094a.32.32 0 0 0 .11.063 3.72 3.72 0 0 0 .5-.454c.176-.183.336-.39.484-.609.133-.207.254-.426.36-.656a3.48 3.48 0 0 0 .218-.688c.059.23.141.457.235.672.101.219.226.426.375.61a4.6 4.6 0 0 0 .39.468c.145.149.297.27.454.36L3.64-.61a.86.86 0 0 0 .109-.094.86.86 0 0 1 .094-.11.86.86 0 0 0 .11-.093 2.719 2.719 0 0 1-.688-.531 2.866 2.866 0 0 1-.47-.75 4.466 4.466 0 0 1-.312-.985 6.917 6.917 0 0 1-.093-1.172zm0 0"/></symbol><symbol overflow="visible" id="J"><path d="M5.813-2.938v-2.656H1.14v2.657zm-.5-.421H1.64v-1.813h3.671zm1.39 1.968v-.437H.25v.437h3v2.61h.516v-2.61zm0 0"/></symbol><symbol overflow="visible" id="K"><path d="M6.094 1.14v-2.874h-.5v.921H2.109v-.921h-.5V1.14zm-.5-.421H2.109V-.406h3.485zm-1.64-3.125V-4h1.64v1.922h.5v-3.797h-.5v1.438h-1.64V-5.61h-.47v1.125H1.313V-5.61h-.47v3.203zm-.47-.422H1.313v-1.235h2.171zm0 0"/></symbol><symbol overflow="visible" id="L"><path d="M6.313 1.063V.625H2.125V-1.25h-.5v2.313zM2.358-2.063c.258 0 .5-.047.72-.141.214-.09.41-.227.577-.406.153-.153.274-.348.36-.579.09-.226.14-.468.14-.718 0-.258-.05-.5-.14-.719a1.858 1.858 0 0 0-.36-.594 1.787 1.787 0 0 0-.578-.406c-.219-.09-.46-.14-.719-.14-.273 0-.52.05-.734.14-.219.094-.41.23-.563.406a1.896 1.896 0 0 0-.375.594c-.085.219-.125.46-.125.719 0 .25.04.492.125.719.09.23.22.425.375.578.153.18.344.316.563.406.215.094.46.14.734.14zm0-.454c-.406 0-.726-.132-.953-.406-.218-.27-.328-.598-.328-.984 0-.395.11-.727.328-1 .227-.278.547-.422.953-.422.403 0 .72.144.938.422.226.273.344.605.344 1 0 .386-.118.715-.344.984-.219.274-.535.406-.938.406zm3.235-3.359v5.266h.5v-5.266zm0 0"/></symbol><symbol overflow="visible" id="M"><path d="M6.703-2.375v-.406H3.72v-.672c.715-.027 1.258-.156 1.625-.375.363-.227.547-.508.547-.844a.822.822 0 0 0-.157-.469 1.584 1.584 0 0 0-.468-.406 2.83 2.83 0 0 0-.766-.266 4.44 4.44 0 0 0-1.031-.109c-.781 0-1.383.129-1.797.375-.418.242-.625.535-.625.875 0 .336.18.617.547.844.37.219.914.348 1.625.375v.672H.25v.406zM3.47-3.844c-.574 0-1.04-.066-1.39-.203-.345-.144-.517-.351-.517-.625 0-.258.172-.469.516-.625.352-.164.817-.25 1.39-.25.278 0 .536.027.766.078.239.043.442.102.61.172.176.074.312.168.406.281.09.106.14.227.14.36 0 .261-.183.465-.546.61-.356.136-.817.202-1.375.202zm2.5 4.969v-.39H1.656v-.86h4.157v-1.594H1.14v.407h4.156v.78H1.14v1.657zm0 0"/></symbol><symbol overflow="visible" id="N"><path d="M6.047 1.14v-2.515H1.594v2.516zM5.563.704h-3.47V-.953h3.47zm-.344-3.578a6.43 6.43 0 0 1-.563.094c-.23.031-.476.066-.734.094-.25.023-.496.042-.735.062-.242.012-.44.016-.593.016l-1.313.015v-1.094h2.657v-1.906H.812v.422H3.47v1.078H.813v1.953H2.061a12.259 12.259 0 0 0 1.25-.063c.247-.019.493-.046.735-.077.238-.02.46-.047.672-.078.207-.028.375-.055.5-.079zm.343-3v4.094h.485v-4.094zm0 0"/></symbol><symbol overflow="visible" id="O"><path d="M.656-3c0 .492.051.91.156 1.25.102.344.235.621.391.828a1.364 1.364 0 0 0 1.125.61c.184 0 .379-.047.578-.141.196-.09.375-.25.531-.469.153-.207.286-.484.391-.828.102-.34.156-.758.156-1.25 0-.488-.054-.906-.156-1.25a2.87 2.87 0 0 0-.39-.828 1.621 1.621 0 0 0-.547-.453 1.315 1.315 0 0 0-.563-.14c-.187 0-.383.05-.578.14-.188.086-.367.23-.531.437-.168.211-.305.489-.407.828C.708-3.922.656-3.496.656-3zm.485 0c0-.29.023-.57.078-.844.05-.27.129-.508.234-.719.09-.207.211-.375.36-.5a.782.782 0 0 1 .515-.187c.195 0 .363.066.5.188.145.125.27.292.375.5.09.21.164.449.219.718a4.612 4.612 0 0 1 0 1.703 3.552 3.552 0 0 1-.219.72 1.54 1.54 0 0 1-.375.5.741.741 0 0 1-.5.171.79.79 0 0 1-.515-.172 1.28 1.28 0 0 1-.36-.5 2.633 2.633 0 0 1-.234-.719A4.314 4.314 0 0 1 1.14-3zm4.421-2.875v7.094h.5v-7.094zm0 0"/></symbol></defs><g fill="#393536"><use xlink:href="#a" x="42.468" y="48.426"/><use xlink:href="#b" x="48.041" y="48.426"/><use xlink:href="#a" x="53.614" y="48.426"/></g><g fill="#231f20"><use xlink:href="#c" x="74.885" y="47.763"/><use xlink:href="#d" x="82.886" y="47.763"/><use xlink:href="#e" x="85.492" y="47.763"/><use xlink:href="#f" x="88.099" y="47.763"/><use xlink:href="#e" x="96.1" y="47.763"/><use xlink:href="#g" x="98.706" y="47.763"/></g><g clip-path="url(#h)"><path d="M-15.57 425.262h1230.156" fill="none" stroke-width=".499395" stroke="#cabfbb" stroke-dasharray="2.003,2.003"/></g><g fill="#fff"><use xlink:href="#i" x="55.219" y="165.5"/><use xlink:href="#j" x="67.105" y="165.5"/><use xlink:href="#k" x="71.3" y="165.5"/></g><use xlink:href="#l" x="192.805" y="323.714" fill="#8a8e98"/><g fill="#33459a"><use xlink:href="#m" x="202.309" y="324.314"/><use xlink:href="#n" x="213.845" y="324.314"/><use xlink:href="#o" x="225.381" y="324.314"/></g><g fill="#231f20"><use xlink:href="#p" x="192.805" y="340.898"/><use xlink:href="#q" x="199.703" y="340.898"/><use xlink:href="#r" x="206.601" y="340.898"/><use xlink:href="#s" x="213.499" y="340.898"/><use xlink:href="#t" x="220.397" y="340.898"/><use xlink:href="#u" x="222.645" y="340.898"/><use xlink:href="#v" x="229.543" y="340.898"/></g><g fill="#231f20"><use xlink:href="#p" x="192.805" y="353.3"/><use xlink:href="#w" x="199.703" y="353.3"/><use xlink:href="#x" x="206.601" y="353.3"/><use xlink:href="#y" x="213.499" y="353.3"/><use xlink:href="#s" x="220.397" y="353.3"/><use xlink:href="#z" x="227.295" y="353.3"/><use xlink:href="#A" x="234.193" y="353.3"/><use xlink:href="#B" x="241.091" y="353.3"/><use xlink:href="#t" x="247.989" y="353.3"/><use xlink:href="#q" x="250.237" y="353.3"/><use xlink:href="#C" x="257.135" y="353.3"/><use xlink:href="#y" x="264.033" y="353.3"/><use xlink:href="#s" x="270.931" y="353.3"/><use xlink:href="#y" x="277.829" y="353.3"/><use xlink:href="#t" x="284.727" y="353.3"/><use xlink:href="#D" x="286.974" y="353.3"/><use xlink:href="#E" x="293.872" y="353.3"/></g><use xlink:href="#l" x="192.805" y="625.557" fill="#8a8e98"/><g fill="#33459a"><use xlink:href="#F" x="202.309" y="626.157"/><use xlink:href="#G" x="213.845" y="626.157"/><use xlink:href="#H" x="225.381" y="626.157"/></g><g fill="#231f20"><use xlink:href="#p" x="192.805" y="642.741"/><use xlink:href="#I" x="199.703" y="642.741"/><use xlink:href="#J" x="206.601" y="642.741"/><use xlink:href="#v" x="213.499" y="642.741"/></g><g fill="#231f20"><use xlink:href="#p" x="192.805" y="655.143"/><use xlink:href="#I" x="199.703" y="655.143"/><use xlink:href="#J" x="206.601" y="655.143"/><use xlink:href="#K" x="213.499" y="655.143"/><use xlink:href="#L" x="220.397" y="655.143"/><use xlink:href="#t" x="227.295" y="655.143"/><use xlink:href="#M" x="229.543" y="655.143"/><use xlink:href="#N" x="236.441" y="655.143"/><use xlink:href="#t" x="243.339" y="655.143"/><use xlink:href="#O" x="245.586" y="655.143"/><use xlink:href="#v" x="252.484" y="655.143"/></g></svg>