<svg xmlns="http://www.w3.org/2000/svg" xmlns:xlink="http://www.w3.org/1999/xlink" width="793.701" height="1058.268" viewBox="0 0 595.276 793.701" version="1.2"><defs><clipPath id="D"><path d="M0 410h594.555v2H0zm0 0"/></clipPath><symbol overflow="visible" id="a"><path d="M2.875.031c.434 0 .82-.144 1.156-.437.332-.301.594-.64.782-1.016.183-.34.316-.71.39-1.11.082-.402.125-.804.125-1.202 0-.403-.05-.813-.14-1.22a4.843 4.843 0 0 0-.407-1.155A3.031 3.031 0 0 0 4-7.063a1.747 1.747 0 0 0-1.14-.421c-.844 0-1.473.457-1.876 1.359-.406.906-.609 1.707-.609 2.39 0 .712.203 1.52.61 2.422C1.386-.413 2.02.032 2.874.032zm0-.281c-.75 0-1.227-.441-1.422-1.328-.2-.895-.297-1.613-.297-2.156 0-.54.098-1.254.297-2.141.195-.895.672-1.344 1.422-1.344.363 0 .648.137.86.407.206.273.363.566.468.875.113.343.195.71.25 1.093.059.387.094.758.094 1.11 0 .324-.035.675-.094 1.046a9.33 9.33 0 0 1-.203 1.016c-.094.336-.254.66-.469.969-.21.305-.511.453-.906.453zm0 0"/></symbol><symbol overflow="visible" id="b"><path d="M3.422-7.313a.124.124 0 0 0-.031-.078.119.119 0 0 0-.079-.062.133.133 0 0 0-.078 0 .589.589 0 0 0-.078.047l-1.844.828a.934.934 0 0 0-.218.078c-.086.043-.125.102-.125.172 0 .043.008.082.031.11a.143.143 0 0 0 .094.03c.05 0 .113-.015.187-.046.07-.028.133-.051.188-.063l.687-.312c.051-.02.102-.04.156-.063a.364.364 0 0 1 .172-.047c.07 0 .118.024.141.063.02.043.031.097.031.156v5.078c0 .367-.043.617-.125.75-.074.125-.316.188-.719.188-.25 0-.414.011-.484.03-.074.013-.11.052-.11.11 0 .063.016.106.048.125.027.024.082.032.156.032h3.094c.058 0 .109-.008.14-.032.028-.02.047-.054.047-.11 0-.058-.02-.1-.047-.124a.278.278 0 0 0-.14-.031h-.329c-.375 0-.601-.079-.671-.235-.063-.164-.094-.41-.094-.734zm0 0"/></symbol><symbol overflow="visible" id="c"><path d="M1.672.344c-.012.02-.008.031.016.031.019.008.035.016.046.016h.172c.082 0 .13-.028.14-.079.02-.042.052-.105.095-.187l3.125-7.047c.02-.027.039-.066.062-.11a.385.385 0 0 0 .031-.124c0-.082-.054-.125-.156-.125C5.11-7.29 5.04-7.297 5-7.297H.5c-.074 0-.121.024-.14.063a.329.329 0 0 0-.032.156l.047.61c.008.011.016.042.016.093.007.055.03.078.062.078.02 0 .04-.004.063-.016l.046-.046c.114-.028.204-.051.266-.063.07-.008.164-.016.281-.016h3.235c.05 0 .097.012.14.032.051.023.079.066.079.125 0 .031-.02.082-.047.14a.712.712 0 0 0-.063.157zm0 0"/></symbol><symbol overflow="visible" id="d"><path d="M7.422 1.36v-7.985h-.734v2.938h-.954V-6.5H5V.984h.734v-3.953h.954V1.36zM2.938-4.626v-.813H4.28v-.625H.813v.625h1.359v.688c0 .48-.043.926-.125 1.328a4.915 4.915 0 0 1-.344 1.125 3.87 3.87 0 0 1-.64.938c-.25.28-.551.539-.891.765.05.043.11.086.172.125.07.031.133.067.187.094a17.48 17.48 0 0 0 .328.234c.176-.12.352-.28.532-.468.175-.196.347-.407.515-.625.145-.196.274-.407.39-.625a3.29 3.29 0 0 0 .25-.672c.052.219.13.43.235.625a4.693 4.693 0 0 0 .844 1.078c.164.156.332.289.5.39a1 1 0 0 1 .266-.25l.125-.125.156-.125a3.154 3.154 0 0 1-.797-.656 3.326 3.326 0 0 1-.547-.86 5.18 5.18 0 0 1-.297-.983 7.006 7.006 0 0 1-.094-1.188zm0 0"/></symbol><symbol overflow="visible" id="e"><path d="M6.078-6.625V-.75h.75v-3.266h1.11v-.64h-1.11v-1.969zm-.344 3.234a5.189 5.189 0 0 1-.562.094c-.242.031-.496.067-.766.094a19.67 19.67 0 0 1-.812.078 8.224 8.224 0 0 1-.703.031l-1.313.016v-2.547H4.61v-.64H.844v3.843H2.25c.227-.008.422-.015.578-.015.258-.008.531-.024.813-.047.277-.02.55-.047.812-.079.258-.027.5-.062.719-.093a3.59 3.59 0 0 0 .562-.11zm1.344 4.594v-.64H2.422v-2.016h-.75v2.656zm0 0"/></symbol><symbol overflow="visible" id="f"><path d="M7.11-2.313v-4.312h-.75v1.578H4.624v-1.312h-.719v1.187h-2.25v-1.187H.922v3.687h3.703V-4.39h1.734v2.079zm-3.204-1h-2.25V-4.53h2.25zM7.11 1.282v-3.234h-.75v.922H2.547v-.922h-.75V1.28zm-.75-.61H2.547V-.405h3.812zm0 0"/></symbol><symbol overflow="visible" id="g"><path d="M7.11-.75v-5.875h-.75V-.75zM.61-4.406c0 .281.05.554.156.812.101.25.242.477.421.672.196.18.422.324.672.438.258.117.551.171.875.171.301 0 .582-.054.844-.171.258-.114.485-.258.672-.438.184-.195.332-.422.438-.672a2.21 2.21 0 0 0 .156-.812c0-.29-.055-.563-.157-.813a2.292 2.292 0 0 0-.437-.687 2.083 2.083 0 0 0-.672-.438 2.102 2.102 0 0 0-.844-.172c-.324 0-.617.059-.875.172-.25.106-.476.254-.671.438-.18.199-.32.43-.422.687-.106.25-.157.524-.157.813zm.765 0c0-.403.113-.75.344-1.032.238-.289.578-.437 1.015-.437.426 0 .758.148 1 .438.239.28.36.628.36 1.03 0 .4-.121.739-.36 1.016-.242.282-.574.422-1 .422-.437 0-.777-.14-1.015-.422-.23-.277-.344-.617-.344-1.015zm5.969 5.61V.562H2.562v-1.985h-.75v2.625zm0 0"/></symbol><symbol overflow="visible" id="i"><path d="M7.047 1.36v-7.985H6.28v7.984zM4.687-.657v-5.469H.97v5.469zm-.734-.64H1.72V-5.47h2.234zm0 0"/></symbol><symbol overflow="visible" id="j"><path d="M7.203 1.36v-7.985H6.47v2.844h-.985V-6.5H4.75V.984h.734v-4.046h.985v4.421zm-2.75-2.75c-.094.023-.21.042-.344.062-.136.023-.289.039-.453.047-.168.023-.336.039-.5.047H2.72l-1.063.015V-3.03h2.157v-3.125H.921v.64h2.172v1.844H.922v3.11l1.547-.016c.383 0 .765-.02 1.14-.063.371-.039.657-.078.844-.109zm0 0"/></symbol><symbol overflow="visible" id="k"><path d="M7.203 1.36v-7.985h-.75v7.984zM1.031-4.376a1.965 1.965 0 0 0 .578 1.406c.196.188.426.336.688.438.258.105.547.156.86.156.3 0 .581-.05.843-.156.258-.102.484-.25.672-.438a1.92 1.92 0 0 0 .437-.625c.114-.246.172-.508.172-.781 0-.27-.058-.523-.172-.766a2.006 2.006 0 0 0-.437-.625A2.182 2.182 0 0 0 4-6.187a2.102 2.102 0 0 0-.844-.172c-.312 0-.601.058-.86.171a2.308 2.308 0 0 0-.687.422 1.961 1.961 0 0 0-.578 1.391zm.735 0c0-.371.117-.691.359-.953.246-.27.594-.406 1.031-.406.426 0 .758.136 1 .406.239.262.36.582.36.953 0 .375-.121.7-.36.969-.242.261-.574.39-1 .39-.437 0-.785-.129-1.031-.39a1.399 1.399 0 0 1-.36-.969zm4.406 3.016a7.804 7.804 0 0 1-.688.093c-.28.032-.586.059-.906.079-.324.023-.637.042-.937.062a8.814 8.814 0 0 1-.688.031 4.92 4.92 0 0 1-.515.016H.609v.656s.086.008.266.016h1.266c.214 0 .367-.004.453-.016.363 0 .722-.008 1.078-.031.351-.02.687-.047 1-.078.308-.028.594-.063.844-.094a9.75 9.75 0 0 0 .656-.094zm0 0"/></symbol><symbol overflow="visible" id="l"><path d="M8.047-3.813v-.671H6.922v-2.141h-.766V-1.5h.766v-2.313zM4.14-6.046v-.594H1.687v.594zm1.14 1.203v-.593H.594v.593zM.921-3.078c0 .18.048.351.141.515.102.157.239.293.407.407.183.125.398.226.64.297.246.062.52.093.813.093.621 0 1.117-.125 1.484-.375.364-.257.547-.57.547-.937 0-.363-.183-.676-.547-.938-.355-.257-.847-.39-1.468-.39-.305 0-.583.039-.829.11-.25.062-.464.16-.64.28-.18.118-.317.258-.407.422-.093.168-.14.34-.14.516zm.782-.016c0-.215.11-.39.328-.515.227-.133.531-.204.906-.204.383 0 .688.067.907.188.215.125.328.305.328.531 0 .23-.113.414-.328.547-.219.137-.524.203-.906.203-.376 0-.68-.062-.907-.187a.625.625 0 0 1-.328-.563zm5.219 4.5v-2.515h-5.36v.625h4.579v1.89zm0 0"/></symbol><symbol overflow="visible" id="m"><path d="M7.11-.75v-5.875h-.75v.922H4.421a2.105 2.105 0 0 0-1.703-.844 2.076 2.076 0 0 0-1.531.64 1.962 1.962 0 0 0-.438.673c-.094.261-.14.535-.14.812 0 .293.046.57.14.828.102.25.25.477.438.672.183.188.41.34.671.453.258.106.547.156.86.156.37 0 .71-.078 1.015-.234.309-.164.555-.383.735-.656h1.89V-.75zm-.75-3.11H4.75a1.39 1.39 0 0 0 .063-.265c.019-.102.03-.203.03-.297a1.73 1.73 0 0 0-.03-.312 1.769 1.769 0 0 0-.063-.313h1.61zm-4.985-.562c0-.402.113-.75.344-1.031.238-.29.57-.438 1-.438.433 0 .77.149 1 .438.238.281.36.629.36 1.031 0 .406-.122.754-.36 1.031-.23.282-.567.422-1 .422-.43 0-.762-.14-1-.422-.23-.277-.344-.625-.344-1.03zm5.953 5.625v-.64H2.562v-1.985h-.75v2.625zm0 0"/></symbol><symbol overflow="visible" id="n"><path d="M7.781-2.156v-.64H6.484c.051-.227.098-.49.141-.782l.125-.906c.027-.32.055-.641.078-.954.027-.32.05-.625.063-.906H1.156v.64h4.938c-.024.481-.07.974-.14 1.47-.063.492-.15.972-.25 1.437H.265v.64h3.312V1.36h.75v-3.515zm0 0"/></symbol><symbol overflow="visible" id="p"><path d="M3.813-4.36v-.015h1.593v-.813h-4.25v.813h1.578v.016c-.023.18-.086.351-.187.515a2.406 2.406 0 0 1-.406.453c-.211.168-.446.317-.704.438a4.476 4.476 0 0 1-.796.297c.113.105.238.226.375.36.144.124.257.241.343.343.207-.07.407-.16.594-.266a4.05 4.05 0 0 0 .547-.344c.164-.113.316-.238.453-.374.133-.145.242-.29.328-.438.09.156.207.3.344.422.145.125.3.246.469.36.164.116.336.214.515.296.176.086.344.149.5.188.059-.09.145-.204.25-.329.114-.12.227-.242.344-.359-.2-.039-.41-.11-.625-.203a3.041 3.041 0 0 1-.594-.375 2.077 2.077 0 0 1-.453-.453 1.053 1.053 0 0 1-.218-.531zm2.25 3.126a6.179 6.179 0 0 1-.594.078c-.219.023-.446.039-.672.047-.219.011-.43.023-.625.03a7.116 7.116 0 0 1-.422.016V-2.25h-.969v1.203H.562v.86h1.844c.29 0 .614-.004.969-.016A22.94 22.94 0 0 0 4.422-.25c.34-.02.656-.04.937-.063.29-.019.524-.046.704-.078zm1.25 2.609v-8.016h-.954v8.016zm-2.86-7.11v-.796H2.016v.797zm0 0"/></symbol><symbol overflow="visible" id="q"><path d="M7.203-.75v-5.89h-.969v5.89zM3.328-5.39v-1.094H2.297v1.125c0 .304-.055.59-.156.859-.094.262-.23.496-.407.703-.199.262-.433.496-.703.703-.273.2-.558.367-.86.5.134.106.274.223.423.344.152.125.273.23.36.313.175-.09.359-.208.546-.344a5.69 5.69 0 0 0 .547-.453c.164-.153.316-.329.453-.516.145-.184.25-.375.313-.563.101.2.234.383.39.547.152.168.32.325.5.47.152.136.32.26.5.374.176.117.344.211.5.281.07-.101.164-.222.281-.359.121-.133.239-.266.344-.39a2.993 2.993 0 0 1-.75-.376 2.764 2.764 0 0 1-.64-.578 2.758 2.758 0 0 1-.454-.719 2.17 2.17 0 0 1-.156-.828zm4.063 6.609V.375H2.766v-1.734h-1v2.578zm0 0"/></symbol><symbol overflow="visible" id="r"><path d="M7.781-2.063v-.843h-3.25v-.906h2.39v-.829H2.204v-.984h4.64v-.828H1.235v2.64h2.297v.907H.281v.844zm-3.75 3.594c.965 0 1.707-.152 2.219-.453.508-.305.766-.676.766-1.11 0-.445-.258-.816-.766-1.109-.512-.289-1.254-.437-2.219-.437-.98 0-1.726.148-2.234.437-.512.293-.766.664-.766 1.11 0 .433.254.804.766 1.11.508.3 1.254.452 2.234.452zM2.156-.047c0-.246.16-.441.485-.578.332-.133.796-.203 1.39-.203.57 0 1.024.074 1.36.219.332.136.5.332.5.578 0 .246-.168.441-.5.578C5.055.68 4.6.75 4.03.75c-.593 0-1.058-.074-1.39-.219C2.316.395 2.156.2 2.156-.047zm0 0"/></symbol><symbol overflow="visible" id="s"><path d="M7.906-2.875v-.828H6.875v-.922h1.031v-.828H6.875v-1.188h-.969v5.063h.969v-1.297zM4.063-5.953v-.734H1.578v.734zm1.125 1.219v-.735H.468v.735zM.702-3.188c0 .18.05.348.156.5.114.149.266.274.454.376.183.117.41.21.671.28.258.063.54.095.844.095.645 0 1.16-.118 1.547-.36.383-.238.578-.539.578-.906 0-.34-.195-.629-.578-.86-.375-.226-.887-.343-1.531-.343-.313 0-.602.035-.86.093a2.298 2.298 0 0 0-.671.266c-.188.106-.34.238-.454.39a.794.794 0 0 0-.156.47zm3.235-.015c0 .2-.102.348-.297.437-.2.094-.465.141-.797.141-.344 0-.617-.047-.813-.14-.199-.09-.297-.235-.297-.422 0-.176.098-.317.297-.422.196-.102.469-.157.813-.157.332 0 .597.055.797.157.195.093.296.23.296.406zM7.046 0a.949.949 0 0 0-.219-.61 1.8 1.8 0 0 0-.578-.484 3.32 3.32 0 0 0-.922-.297A5.637 5.637 0 0 0 4.203-1.5c-.406 0-.789.04-1.14.11-.344.062-.649.16-.907.28a1.688 1.688 0 0 0-.61.47.927.927 0 0 0-.218.609c0 .238.067.453.203.64.145.196.348.364.61.5.257.133.562.235.906.297.351.07.734.11 1.14.11a6.6 6.6 0 0 0 1.11-.094 3.32 3.32 0 0 0 .922-.297c.258-.125.46-.285.61-.469.144-.187.218-.41.218-.656zm-4.64-.016c0-.132.046-.25.14-.343.101-.102.238-.18.406-.235a2.49 2.49 0 0 1 .563-.125c.214-.027.441-.047.671-.047.489 0 .899.067 1.235.188.34.125.516.316.516.562 0 .133-.055.25-.157.344a1.49 1.49 0 0 1-.375.25c-.168.059-.355.11-.562.14-.211.028-.426.048-.64.048-.243 0-.474-.02-.688-.047a2.957 2.957 0 0 1-.563-.14.952.952 0 0 1-.406-.25.472.472 0 0 1-.14-.345zm0 0"/></symbol><symbol overflow="visible" id="t"><path d="M7.797.484v-.843H4.53V-2h2.282v-4.422h-.97v1.313h-3.64v-1.313h-.969V-2h2.282v1.64H.28v.844zM5.844-2.844h-3.64v-1.422h3.64zm0 0"/></symbol><symbol overflow="visible" id="u"><path d="M1.078-6.203v.828h4.766c-.024.637-.074 1.3-.157 1.984-.085.68-.183 1.336-.296 1.97h.968l.172-1.141c.059-.415.114-.833.157-1.25.05-.426.093-.844.125-1.25.027-.415.054-.797.078-1.141zM7.797.484v-.843H3.844v-2.985h-.985v2.985H.281v.843zm0 0"/></symbol><symbol overflow="visible" id="v"><path d="M7.203 1.375v-8.016H6.22v2.313H4.53v.906H6.22v4.797zm-3.89-5.938v-1.765H2.296v1.719c0 .406-.05.793-.14 1.156-.087.355-.212.683-.376.984-.187.356-.43.68-.718.969a4.889 4.889 0 0 1-.97.75c.145.094.29.207.438.328.153.117.281.223.375.313.176-.114.364-.258.563-.438.195-.183.39-.39.578-.61a7.06 7.06 0 0 0 .453-.64 2.62 2.62 0 0 0 .313-.656c.09.23.21.457.359.672.152.218.32.426.5.61.164.187.336.362.515.515.176.148.348.273.516.375a5.852 5.852 0 0 1 .719-.656 5.685 5.685 0 0 1-.922-.704 3.572 3.572 0 0 1-.688-.89 3.265 3.265 0 0 1-.374-.922 4.443 4.443 0 0 1-.126-1.11zm0 0"/></symbol><symbol overflow="visible" id="x"><path d="M2.766-.547L1.125-6.125H.109L2.266.672h.968l2.172-6.797H4.391zm0 0"/></symbol><symbol overflow="visible" id="y"><path d="M2.438-3.688c.382 0 .675.18.874.532.196.355.297.82.297 1.39 0 .586-.101 1.051-.296 1.391-.2.344-.493.516-.876.516-.374 0-.664-.172-.859-.516-.187-.34-.281-.805-.281-1.39 0-.57.094-1.036.281-1.391.195-.352.484-.531.86-.531zm0-.75c-.7 0-1.227.247-1.579.735-.343.492-.515 1.137-.515 1.937C.344-.96.516-.32.859.156c.352.477.88.719 1.579.719.695 0 1.226-.242 1.593-.719.364-.476.547-1.117.547-1.922 0-.8-.183-1.445-.547-1.937-.367-.488-.898-.735-1.593-.735zm0 0"/></symbol><symbol overflow="visible" id="z"><path d="M.563-6.125V.672h.906v-6.797zm0 0"/></symbol><symbol overflow="visible" id="A"><path d="M.64-.047v1.203h1.25V-.047zm0 0"/></symbol><symbol overflow="visible" id="B"><path d="M2-6.25c-.605 0-1.059.324-1.36.969C.349-4.645.204-3.77.204-2.656c0 1.117.145 1.992.438 2.625.3.62.754.937 1.359.937.602 0 1.055-.316 1.36-.937.308-.633.468-1.508.468-2.625 0-1.114-.16-1.989-.469-2.625C3.055-5.926 2.602-6.25 2-6.25zm0 .797c.27 0 .488.258.656.766.164.5.25 1.18.25 2.03 0 .845-.086 1.52-.25 2.016-.168.5-.386.75-.656.75-.273 0-.488-.25-.64-.75-.157-.496-.235-1.171-.235-2.015 0-.852.078-1.531.234-2.031.153-.508.368-.766.641-.766zm0 0"/></symbol><symbol overflow="visible" id="C"><path d="M2.906-2.063c-.054.688-.18 1.231-.375 1.626-.187.386-.41.578-.656.578-.219 0-.395-.114-.516-.329a1.565 1.565 0 0 1-.203-.75H.25C.25-.344.395.113.688.438c.3.32.703.485 1.203.485.351 0 .656-.106.906-.313.258-.199.46-.476.61-.828.152-.351.269-.77.343-1.25.07-.476.11-1 .11-1.562 0-.477-.04-.914-.11-1.313a3.483 3.483 0 0 0-.344-1.015c-.148-.278-.34-.5-.578-.657a1.42 1.42 0 0 0-.844-.25c-.562 0-1.011.223-1.343.657-.336.437-.5 1.023-.5 1.75 0 .398.047.738.14 1.015.102.281.235.512.39.688.153.187.337.324.548.406.207.086.414.125.625.125a1.7 1.7 0 0 0 .562-.094c.184-.058.352-.176.5-.343zm-.953-.359c-.273 0-.488-.14-.64-.422-.157-.277-.235-.656-.235-1.125 0-.445.078-.812.234-1.094.153-.277.368-.421.641-.421.238 0 .445.148.625.437.176.281.266.645.266 1.078 0 .469-.09.848-.266 1.125-.168.281-.379.422-.625.422zm0 0"/></symbol><symbol overflow="visible" id="E"><path d="M1.516-6.063l5.578 3.375L1.516.688zm0 0"/></symbol><symbol overflow="visible" id="F"><path d="M9.063.672A4.384 4.384 0 0 0 8.765.64c-.118 0-.23.004-.344.015-.117.008-.223.02-.313.031a.7.7 0 0 0-.218.079.729.729 0 0 1-.391.156c-.137.02-.262.031-.375.031L4.969.984a.388.388 0 0 1-.25-.093C4.656.836 4.625.742 4.625.609V-.453c0-.102.004-.195.016-.281a.874.874 0 0 0 0-.204.209.209 0 0 0-.094-.14.515.515 0 0 0-.234-.094 8.42 8.42 0 0 0-1.25-.047c-.231.032-.383.07-.454.11-.074.043-.105.086-.093.125.007.054.054.101.14.14.082.031.164.059.25.078.227.055.39.118.485.188.101.074.156.223.156.437v.766c0 .34.113.563.344.656.226.09.484.14.765.14l4.313-.03a.865.865 0 0 0 .422-.094c.101-.055.164-.121.187-.203.008-.074-.027-.153-.11-.235-.085-.074-.222-.136-.405-.187zm-4.688-4.36c.457-.07.914-.148 1.375-.234.465-.09.875-.191 1.219-.297.215-.058.316-.144.297-.25-.012-.113-.114-.152-.297-.125a5.648 5.648 0 0 1-.297.063 5.524 5.524 0 0 0-.328.047c-.125.023-.254.043-.375.062-.125.024-.246.04-.36.047.04-.05.07-.11.094-.172.027-.058.055-.117.078-.172a2.693 2.693 0 0 0 .156-.344c.051-.152.098-.32.141-.5.05-.175.086-.335.11-.484.039-.144.07-.266.093-.36.02-.1.032-.16.032-.171.019-.09.05-.18.093-.266a.87.87 0 0 0 .078-.234.237.237 0 0 0-.046-.172c-.043-.05-.137-.094-.282-.125a1.633 1.633 0 0 0-.578-.016 2.205 2.205 0 0 0-.531.11c-.094.031-.27.058-.516.078-.25.012-.535.016-.843.016-.305.011-.606.011-.907 0a5.676 5.676 0 0 1-.734-.063 2.848 2.848 0 0 0-.531.016c-.094.011-.149.039-.157.078-.011.043.016.086.079.125a.842.842 0 0 0 .203.11c.34.187.613.308.812.359.195.054.36.074.485.062.132-.02.253-.05.359-.094.101-.05.238-.082.406-.093 0 0 .055-.004.172-.016l.406-.031c.164-.008.332-.02.5-.032.164-.007.313-.015.438-.015a19.91 19.91 0 0 1-.063.812 8.602 8.602 0 0 1-.11.86 7.143 7.143 0 0 0-.109.437 2.203 2.203 0 0 0-.03.375c-.47.055-.942.098-1.407.125-.46.031-.879.047-1.25.047h-.578a5.378 5.378 0 0 1-.531-.047c-.438-.039-.657-.004-.657.11.008.117.157.242.438.375.351.199.633.324.844.374.207.055.379.07.515.047.133-.027.254-.07.36-.125.101-.058.234-.101.39-.125h.156c.06-.007.13-.023.204-.046v.78c0 .376.023.696.078.954.058.25.164.371.312.36.176 0 .317-.173.422-.516.113-.352.172-.797.172-1.329zm3.297 1.313v.5c0 .43.023.79.078 1.078.05.281.16.418.328.406.164 0 .305-.18.422-.546.113-.372.172-.86.172-1.454v-4.875c0-.132.004-.254.015-.359.008-.113.016-.207.016-.281a.367.367 0 0 0-.031-.203c-.024-.051-.082-.094-.172-.125a1.733 1.733 0 0 0-.313-.094 11.656 11.656 0 0 0-.421-.078 4.978 4.978 0 0 0-.407-.063 1.01 1.01 0 0 1-.234-.031c-.344-.02-.535.02-.563.11-.03.093.055.19.266.28l.36.172c.101.043.19.098.265.157.07.054.125.12.156.203.04.086.063.191.063.312v4.454a18.295 18.295 0 0 1-1.14.046h-.563a8.595 8.595 0 0 1-.453-.03c-.211-.02-.356-.02-.438 0-.086.023-.133.054-.14.093 0 .043.023.09.078.14.058.043.125.083.187.11.27.156.488.262.656.312.176.055.317.079.422.079.09 0 .164-.016.219-.047.059-.028.117-.055.172-.079 0-.007.05-.03.156-.062.113-.04.238-.07.375-.094h.157a.7.7 0 0 1 .14-.015.828.828 0 0 0 .172-.016zm0 0"/></symbol><symbol overflow="visible" id="G"><path d="M4.516-7.719c-.575.094-1.043.32-1.407.672a1.675 1.675 0 0 0-.53 1.25c0 .281.054.543.171.781.121.23.297.434.516.61.214.18.472.32.765.422.301.105.63.156.985.156.363 0 .691-.047.984-.14.3-.102.555-.243.766-.423.207-.175.367-.382.484-.625.121-.238.188-.5.188-.78 0-.458-.168-.864-.5-1.22-.325-.363-.786-.597-1.375-.703-.043-.008-.07-.02-.079-.031-.011-.02-.011-.047 0-.078a.212.212 0 0 0 .016-.078.73.73 0 0 1 .031-.11.427.427 0 0 0-.015-.093.253.253 0 0 0-.016-.079.313.313 0 0 0-.14-.062 1.076 1.076 0 0 1-.204-.047 4.853 4.853 0 0 1-.25-.031c-.074-.008-.136-.016-.187-.016-.125 0-.211.04-.25.11-.032.074-.028.129.015.156.07.062.13.117.172.156.04.043.035.09-.015.14a.2.2 0 0 1-.063.048.134.134 0 0 1-.062.015zm.5 3.282c-.399 0-.727-.133-.985-.407a1.391 1.391 0 0 1-.39-.984c0-.414.129-.766.39-1.047.258-.29.586-.438.985-.438.414 0 .75.153 1 .454.246.293.375.636.375 1.03 0 .376-.133.708-.391.985-.262.274-.59.407-.984.407zm.859 2.046V.031c0 .258.004.504.016.735.02.238.046.445.078.625.027.175.07.316.125.421.058.114.133.165.218.157.184 0 .336-.239.454-.703.113-.461.171-1.086.171-1.875v-1.797c.333 0 .633.008.907.015.277 0 .531.008.75.016.3.023.578.016.828-.016.246-.027.379-.129.39-.296.008-.114-.07-.204-.234-.266a2.765 2.765 0 0 0-.61-.14 6.041 6.041 0 0 0-.78.03c-.274.032-.508.09-.704.172-.093.043-.257.07-.484.079-.23.011-.477.015-.734.015H2.03c-.18-.008-.34-.02-.484-.031a11.806 11.806 0 0 1-.828-.078c-.305-.008-.504.027-.594.11-.086.085.031.194.344.327.414.2.742.324.984.375.238.043.438.055.594.031.144-.019.273-.054.39-.109.114-.05.254-.086.422-.11h.063c.039-.007.07-.015.094-.015v2.094c0 .258.004.504.015.734.008.239.031.453.063.64.027.165.07.302.125.407.058.113.129.164.203.156.195 0 .351-.238.469-.703.12-.46.18-1.082.171-1.875v-1.515c.176-.008.368-.016.579-.016.214-.008.46-.016.734-.016zm0 0"/></symbol><symbol overflow="visible" id="H"><path d="M4.547-7.797c-.574.063-1.04.262-1.39.594-.356.324-.532.73-.532 1.219 0 .25.055.492.172.718.121.22.289.414.5.579.207.156.457.289.75.39.3.094.625.14.969.14.34 0 .66-.046.953-.14.289-.09.539-.223.75-.39.207-.165.367-.36.484-.579.113-.226.172-.468.172-.718 0-.434-.164-.829-.484-1.172-.325-.34-.778-.555-1.36-.64-.023-.02-.031-.04-.031-.063 0-.02.004-.04.016-.063a.362.362 0 0 0 .015-.094c.008-.027.02-.062.032-.093v-.063a.19.19 0 0 0-.032-.094 1.918 1.918 0 0 0-.343-.078c-.188-.027-.348-.05-.47-.062-.124 0-.21.039-.25.11-.042.073-.042.128 0 .155A.8.8 0 0 1 4.642-8c.039.043.039.086 0 .125-.024.012-.043.023-.063.031a.14.14 0 0 0-.031.047zm.469 3.063c-.399 0-.723-.125-.97-.375a1.32 1.32 0 0 1-.374-.954c0-.382.125-.703.375-.953.246-.246.57-.375.969-.375.394 0 .71.137.953.407.246.273.375.582.375.921 0 .375-.13.696-.375.954-.242.25-.559.375-.953.375zm.53 3.296v-1.39h1.845c.246 0 .476.008.687.015.207.012.399.016.578.016.301.031.582.031.844 0 .27-.039.41-.148.422-.328.008-.113-.074-.203-.25-.266a1.808 1.808 0 0 0-.61-.125c-.25-.02-.519-.011-.796.016-.274.031-.52.09-.735.172-.093.043-.258.07-.484.078-.23.012-.48.023-.75.031H5.53c-.25-.008-.441-.015-.562-.015H2c-.18-.008-.34-.02-.484-.032-.157-.007-.305-.02-.438-.03a4.651 4.651 0 0 1-.437-.048c-.313-.008-.512.035-.594.125-.07.086.035.192.328.313.434.21.781.34 1.031.39.246.055.453.07.61.047.144-.02.273-.054.39-.11.114-.058.254-.1.422-.124h.11c.07-.008.171-.02.296-.031l.516-.032c.195-.007.438-.02.719-.03v1.374c-.438.012-.864.016-1.266.016a6.024 6.024 0 0 1-.953-.078c-.23-.02-.395-.02-.484 0-.094.023-.149.054-.157.093 0 .043.024.09.079.141a.48.48 0 0 0 .187.125c.363.21.656.34.875.39.215.055.398.07.547.047.144-.019.273-.062.39-.125.114-.058.258-.097.438-.109h.344l.828-.031c.3-.02.598-.031.89-.031.29-.008.489-.02.594-.032V.61c0 .32.035.614.11.875.082.258.18.391.296.391.133 0 .27-.168.407-.5.133-.324.203-.715.203-1.172V-.859c0-.09.008-.176.031-.25a.757.757 0 0 0 .047-.235c.008-.05-.008-.101-.047-.156-.043-.05-.133-.094-.266-.125a2.135 2.135 0 0 0-.5 0c-.18.023-.355.059-.53.11-.075.023-.2.042-.376.062a9.098 9.098 0 0 1-.61.016zm0 0"/></symbol><symbol overflow="visible" id="ac"><path d="M5.594-2.547H7.375c.238 0 .457.008.656.016h.563c.3.023.578.015.828-.016.246-.027.379-.129.39-.297.008-.113-.07-.203-.234-.265a2.444 2.444 0 0 0-.61-.125 3.572 3.572 0 0 0-.78.03 3.134 3.134 0 0 0-.704.157c-.093.043-.257.074-.484.094-.23.012-.477.015-.734.015h-.75c-.243-.007-.426-.015-.547-.015H2.03c-.18-.008-.34-.02-.484-.031-.149-.008-.29-.02-.422-.032-.125-.007-.262-.02-.406-.03-.305-.02-.504.01-.594.093-.086.086.031.195.344.328.414.2.742.324.984.375.238.043.438.055.594.031.144-.008.273-.039.39-.094.114-.058.254-.101.422-.124h.11c.082-.008.195-.02.344-.032.132-.008.3-.02.5-.031.207-.008.44-.02.703-.031V.016c0 .257.004.504.015.734.02.238.051.445.094.625.027.176.078.316.14.422.06.113.141.164.235.156.195 0 .348-.238.453-.703.102-.46.149-1.086.14-1.875zm-.735-2.812c.27.086.579.18.922.28.352.095.688.192 1 .282.32.094.61.18.86.25.246.074.414.121.5.14.37.118.617.122.734.016.121-.113.145-.234.063-.359-.086-.09-.243-.195-.47-.313a4.068 4.068 0 0 0-.624-.25 1.53 1.53 0 0 0-.25-.03h-.172c-.055.011-.106.023-.156.03-.055 0-.118-.003-.188-.015-.055 0-.144-.008-.266-.031-.117-.028-.253-.063-.406-.094l-.5-.125a8.487 8.487 0 0 1-.5-.125c.29-.176.582-.367.875-.578.29-.215.57-.453.844-.703.332-.239.52-.438.563-.594.039-.164-.086-.285-.375-.36a2.05 2.05 0 0 1-.188-.015 4.782 4.782 0 0 0-.36-.016c-.124 0-.245.008-.359.016-.117 0-.199.02-.25.047a1.99 1.99 0 0 1-.468.093c-.243.024-.508.04-.797.047-.293.012-.59.024-.891.032h-.734c-.243 0-.477-.004-.704-.016a5.571 5.571 0 0 1-.421-.047c-.305-.027-.477.004-.516.094-.043.086.035.18.234.281.246.156.457.27.625.328.164.055.305.078.422.078a.687.687 0 0 0 .266-.046c.07-.028.144-.055.219-.079h.03a.567.567 0 0 0 .11-.046.73.73 0 0 0 .156-.016c.06-.02.126-.035.188-.047.059 0 .18-.004.36-.016.175-.02.374-.035.593-.046.207-.008.422-.02.64-.032.227-.02.427-.031.595-.031-.375.344-.778.684-1.204 1.016-.43.324-.867.62-1.312.89-.45.262-.895.496-1.328.703-.43.2-.84.348-1.235.438-.062.023-.105.058-.125.11-.023.042-.015.081.016.109a.38.38 0 0 0 .203.093c.102.012.25-.004.438-.046a9.664 9.664 0 0 0 1.703-.5 15.06 15.06 0 0 0 1.64-.797zm0 0"/></symbol><symbol overflow="visible" id="ad"><path d="M8.094.672A4.384 4.384 0 0 0 7.797.64a6.737 6.737 0 0 0-.672.047.509.509 0 0 0-.203.078.795.795 0 0 1-.39.156c-.137.02-.262.031-.376.031l-2.25.031a.364.364 0 0 1-.234-.093c-.074-.055-.11-.149-.11-.282V-.5c0-.113.004-.207.016-.281a.414.414 0 0 0 0-.219.209.209 0 0 0-.094-.14c-.043-.04-.129-.07-.25-.094-.074 0-.168-.004-.28-.016-.106-.008-.224-.02-.345-.031h-.593c-.243.031-.403.074-.485.125-.074.043-.101.086-.078.125.02.043.067.086.14.125.083.043.165.07.25.078.239.043.407.105.5.187.102.075.157.223.157.438v.828c0 .34.11.563.328.656.215.09.477.14.781.14L8 1.392a.77.77 0 0 0 .406-.094c.102-.055.164-.121.188-.203.02-.074-.012-.153-.094-.235-.086-.086-.223-.148-.406-.187zm-3.235-6.61c.196.106.442.231.735.375.289.149.586.293.89.438.301.148.586.29.86.422.27.125.476.223.625.281.176.094.332.149.468.156a.522.522 0 0 0 .313-.078.21.21 0 0 0 .094-.203c-.012-.09-.07-.195-.172-.312a2.203 2.203 0 0 0-.422-.329 4.462 4.462 0 0 0-.484-.28 1.53 1.53 0 0 0-.25-.032h-.344a.482.482 0 0 1-.219-.063 2.124 2.124 0 0 1-.328-.109c-.137-.058-.29-.129-.453-.203-.168-.07-.336-.145-.5-.219a22.688 22.688 0 0 1-.438-.218c.07-.083.164-.196.282-.344.12-.145.222-.27.296-.375.04-.07.079-.133.11-.188A.513.513 0 0 0 6-7.39c.008-.05-.008-.101-.047-.156a.816.816 0 0 0-.172-.203l-.265-.14a7.09 7.09 0 0 0-.313-.141 3.234 3.234 0 0 0-.328-.125 1.845 1.845 0 0 1-.203-.094c-.168-.059-.3-.086-.39-.078-.087 0-.137.023-.157.062-.023.055-.016.114.016.172a.348.348 0 0 0 .156.14c.207.126.328.243.36.345a.38.38 0 0 1-.016.312c-.18.313-.399.629-.657.938a7.8 7.8 0 0 1-.828.859 8.236 8.236 0 0 1-.953.719c-.324.21-.633.367-.922.468a.533.533 0 0 0-.187.141c-.032.055-.032.098 0 .125.02.043.082.07.187.078.102 0 .25-.023.438-.078.226-.058.472-.148.734-.266.27-.12.547-.269.828-.437.27-.164.54-.348.813-.547.27-.207.523-.422.765-.64zM4.781-2.53v1.14c0 .418.02.758.063 1.016.05.262.156.39.312.39.176 0 .328-.171.453-.515.121-.352.188-.828.188-1.422v-.625h1.687c.227 0 .438.008.625.016.196 0 .38.008.547.015.301.024.582.016.844-.015.27-.028.41-.13.422-.297.008-.121-.074-.219-.25-.281a1.808 1.808 0 0 0-.61-.125c-.25-.02-.519-.012-.796.015-.274.031-.52.09-.735.172a2.363 2.363 0 0 1-.484.078c-.23.012-.48.024-.75.031H5.53c-.25-.007-.441-.015-.562-.015H2.672c-.262 0-.488-.004-.672-.016-.18-.008-.34-.015-.484-.015-.157-.02-.305-.036-.438-.047-.137-.008-.285-.02-.437-.031-.313-.02-.512.019-.594.109-.07.086.035.195.328.328.434.21.781.34 1.031.39.246.055.453.07.61.047.144-.019.273-.054.39-.109.114-.058.254-.101.422-.125h.125c.082-.008.203-.02.36-.031.164-.02.367-.035.609-.047.238-.02.523-.031.86-.031zm0 0"/></symbol><symbol overflow="visible" id="ae"><path d="M3.531-4.797c.153.149.317.3.485.453.175.149.347.293.515.438L5-3.484c.145.125.27.238.375.328.277.242.492.328.64.265.153-.058.184-.226.094-.5-.023-.007-.054-.05-.093-.125a4.2 4.2 0 0 0-.157-.265c-.074-.09-.152-.188-.234-.281a1.75 1.75 0 0 0-.234-.266c-.032-.008-.059-.016-.079-.016a.09.09 0 0 1-.046-.031h-.079a.311.311 0 0 1-.062-.031h-.063a.084.084 0 0 0-.046-.016.249.249 0 0 1-.094-.016c-.031-.019-.07-.039-.11-.062a2.937 2.937 0 0 1-.39-.281 15.024 15.024 0 0 1-.563-.453c.121-.196.258-.414.407-.657.144-.246.265-.46.359-.64.04-.082.078-.149.11-.203a.421.421 0 0 0 .046-.172.276.276 0 0 0-.062-.157c-.043-.05-.114-.117-.203-.203a4.898 4.898 0 0 0-.25-.14l-.329-.157a4.298 4.298 0 0 0-.343-.125c-.106-.039-.18-.07-.219-.093-.262-.07-.414-.059-.453.031-.043.094.039.21.25.344.238.148.36.289.36.422a.973.973 0 0 1-.063.406c-.18.43-.387.836-.625 1.219-.23.375-.473.726-.719 1.046-.273.325-.54.614-.797.86a5.45 5.45 0 0 1-.75.594c-.18.136-.203.238-.078.296.121.063.344.016.656-.14a5.085 5.085 0 0 0 1.282-.922c.402-.395.769-.785 1.093-1.172zm4.063-2.469v3.625c0 .407.031.73.093.97.06.241.16.358.297.358.153 0 .297-.156.422-.468.121-.309.188-.754.188-1.328v-3.157c0-.144.004-.27.015-.375a1.75 1.75 0 0 0 .032-.28.348.348 0 0 0-.047-.188.432.432 0 0 0-.172-.141c-.074-.02-.18-.047-.313-.078-.136-.027-.277-.063-.421-.094-.149-.02-.286-.035-.407-.047a1.505 1.505 0 0 1-.234-.047c-.356-.02-.55.024-.578.125-.024.094.07.184.281.266.121.063.238.121.344.172.101.043.191.098.265.156.07.063.13.137.172.219.04.086.063.191.063.312zm.89 7.47v-1.485c0-.09.008-.176.032-.25.027-.082.05-.157.062-.219a.232.232 0 0 0-.062-.156.6.6 0 0 0-.25-.14 2.135 2.135 0 0 0-.5 0 3.567 3.567 0 0 0-.547.108c-.094.032-.332.06-.703.079-.368.023-.774.03-1.22.03-.46.013-.91.013-1.343 0a5.87 5.87 0 0 1-.969-.077c-.25-.02-.425-.02-.515 0-.086.023-.133.054-.14.093-.013.043.015.09.077.141a.683.683 0 0 0 .188.125c.37.211.664.34.875.39.215.055.398.071.547.048.144-.02.273-.055.39-.11.114-.058.258-.101.438-.125h.36c.237-.008.507-.02.812-.031.3-.008.593-.02.875-.031.289-.008.488-.016.593-.016V.61c0 .32.036.614.11.875.082.258.18.391.297.391.132 0 .265-.168.39-.5.133-.324.203-.715.203-1.172zm0 0"/></symbol><symbol overflow="visible" id="as"><path d="M3.938-4.984v1.671l-1.657.047v-1.671zm.968 1.562v-3.031-.203a.633.633 0 0 0 0-.172.232.232 0 0 0-.062-.156.429.429 0 0 0-.188-.11 3.036 3.036 0 0 0-.578-.125 3.94 3.94 0 0 0-.516-.062.89.89 0 0 0-.343.078c-.063.031-.102.07-.11.11-.011.03.004.07.047.109a.35.35 0 0 0 .156.093c.083.043.16.082.235.11a.653.653 0 0 1 .203.093c.05.032.094.083.125.141a.34.34 0 0 1 .063.203v.86l-1.657.046v-.687-.203a.878.878 0 0 0-.015-.156.165.165 0 0 0-.079-.11l-.171-.11a1.941 1.941 0 0 0-.266-.046 3.37 3.37 0 0 0-.297-.047 9.683 9.683 0 0 1-.531-.062c-.168.023-.29.05-.36.078-.062.031-.101.07-.109.11a.103.103 0 0 0 .031.109c.04.03.082.058.125.078.196.074.364.152.5.234a.41.41 0 0 1 .204.36v2.64c0 .355.046.605.14.75.09.148.192.215.297.203a.477.477 0 0 0 .36-.187c.09-.121.148-.227.171-.313l1.64-.031a.5.5 0 0 0 .126.25c.07.086.172.125.297.125.12 0 .242-.098.36-.297.12-.195.19-.422.202-.672zM8.641.203v-1.219c0-.09.007-.175.03-.25A.757.757 0 0 0 8.72-1.5a.232.232 0 0 0-.063-.156.467.467 0 0 0-.234-.125 2.273 2.273 0 0 0-.516 0c-.18.023-.363.054-.547.093-.093.043-.347.075-.75.094-.398.012-.836.024-1.312.032-.492.011-.973.011-1.438 0a11.79 11.79 0 0 1-1.03-.079c-.231-.027-.395-.027-.485 0-.094.024-.14.055-.14.094 0 .031.019.074.062.125a.48.48 0 0 0 .187.125c.371.219.664.356.875.406.215.055.399.07.547.047.145-.02.273-.054.39-.11a1.49 1.49 0 0 1 .454-.124h.39c.27-.008.57-.02.907-.031.34-.008.671-.02.984-.032.309-.007.52-.02.625-.03v1.78c0 .32.035.614.11.875.081.258.187.391.312.391.121 0 .254-.168.39-.5.133-.324.204-.715.204-1.172zm-.907-4.39v.75c0 .406.024.742.079 1 .05.261.156.386.312.374.145 0 .273-.175.39-.53.114-.352.172-.813.172-1.376v-3.297c0-.144.004-.27.016-.375a1.75 1.75 0 0 0 .031-.28.348.348 0 0 0-.046-.188c-.024-.051-.075-.098-.157-.141-.074-.02-.18-.047-.312-.078-.125-.027-.258-.063-.39-.094-.157-.02-.302-.035-.423-.047a1.36 1.36 0 0 1-.218-.047c-.344-.02-.528.024-.547.125-.024.094.066.184.265.266.121.063.239.121.344.172a.856.856 0 0 1 .25.156c.07.063.129.137.172.219.039.086.062.191.062.312v2.547H6.75v-2.047c0-.144.004-.27.016-.375a1.51 1.51 0 0 0 .03-.28c0-.071-.019-.134-.046-.188a.257.257 0 0 0-.156-.141c-.074-.02-.18-.047-.313-.078a9.862 9.862 0 0 0-.797-.14A2.219 2.219 0 0 0 5.266-8c-.344-.027-.536.008-.563.11-.023.093.067.19.266.28.12.055.238.106.343.157a.856.856 0 0 1 .25.156c.07.063.13.137.172.219a.68.68 0 0 1 .063.312v3.375c0 .399.023.727.078.985.059.261.164.39.313.39.144 0 .273-.175.39-.53.113-.352.172-.817.172-1.392v-.25zm0 0"/></symbol><symbol overflow="visible" id="at"><path d="M5.906-1.813c-.531.063-.965.262-1.297.594a1.672 1.672 0 0 0-.484 1.203c0 .258.05.5.156.72.102.226.254.425.453.593.196.152.43.281.704.375.269.101.57.156.906.156.644 0 1.172-.18 1.578-.531.402-.344.61-.785.61-1.313 0-.414-.153-.796-.454-1.14-.305-.352-.723-.57-1.25-.657-.023-.007-.031-.019-.031-.03 0-.02.004-.04.016-.063a.73.73 0 0 1 .03-.11.307.307 0 0 0 .016-.078v-.078a.17.17 0 0 0-.03-.078c-.044-.04-.161-.07-.345-.094-.18-.027-.324-.05-.437-.062-.125 0-.215.043-.266.125-.054.074-.054.12 0 .14.082.043.14.086.172.125.04.032.043.075.016.125a.14.14 0 0 0-.032.047l-.03.032zm.438 3.063c-.344 0-.633-.133-.86-.39a1.415 1.415 0 0 1-.328-.938c0-.363.11-.676.328-.938a1.08 1.08 0 0 1 .86-.406.87.87 0 0 1 .453.125c.144.074.27.18.375.313.101.125.18.273.234.437.059.156.094.317.094.469 0 .371-.117.687-.344.937-.218.258-.492.391-.812.391zm-2.89-5.969c.112.125.241.274.39.438.152.156.312.308.469.453.144.168.285.324.421.469.145.148.27.27.375.359.258.262.473.36.641.297.176-.07.215-.242.125-.516l-.094-.156-.14-.266c-.075-.101-.149-.203-.22-.296a2.743 2.743 0 0 0-.218-.266.249.249 0 0 1-.094-.016.311.311 0 0 1-.062-.031c-.024-.008-.043-.016-.063-.016a.09.09 0 0 1-.046-.03.439.439 0 0 1-.125-.016 1.426 1.426 0 0 1-.188-.11c-.063-.027-.184-.117-.36-.266a7.922 7.922 0 0 1-.5-.468c.133-.196.274-.414.422-.657.153-.246.282-.468.375-.656.051-.082.086-.148.11-.203a.421.421 0 0 0 .047-.172A.276.276 0 0 0 4.656-7a1.07 1.07 0 0 0-.203-.203 1.775 1.775 0 0 0-.25-.14 6.455 6.455 0 0 0-.328-.173 4.46 4.46 0 0 1-.328-.125 2.275 2.275 0 0 0-.235-.078c-.261-.07-.414-.058-.453.032-.043.093.047.21.266.343.215.149.332.29.344.422a.835.835 0 0 1-.047.406c-.18.43-.383.832-.61 1.204-.23.375-.472.726-.718 1.046-.25.313-.508.598-.766.844a5.45 5.45 0 0 1-.75.594c-.18.125-.203.226-.078.297.121.074.344.023.656-.156.446-.239.864-.54 1.25-.907.383-.37.735-.75 1.047-1.125zm4.14-.812c-.168.011-.352.023-.547.031-.2 0-.387.008-.563.016-.199.011-.386.015-.562.015a3.603 3.603 0 0 1-.453-.047 1.911 1.911 0 0 0-.438.016c-.086.023-.125.05-.125.078 0 .043.024.09.078.14a.48.48 0 0 0 .188.126c.27.148.488.254.656.312.164.055.3.074.406.063.102 0 .18-.016.235-.047a2.9 2.9 0 0 0 .156-.078c.008 0 .066-.016.172-.047.113-.04.234-.07.36-.094h.03a.407.407 0 0 1 .11-.016.644.644 0 0 1 .125-.015h.172v1.828c0 .406.031.73.093.969.06.242.16.355.297.344.153 0 .297-.149.422-.454.121-.308.188-.754.188-1.328v-3.547c0-.144.004-.27.015-.375a1.75 1.75 0 0 0 .032-.28.348.348 0 0 0-.047-.188.432.432 0 0 0-.172-.141c-.074-.02-.18-.047-.313-.078-.136-.027-.277-.063-.421-.094-.149-.02-.286-.035-.407-.047a1.505 1.505 0 0 1-.234-.047c-.356-.02-.55.024-.578.125-.024.094.07.184.281.266.121.063.238.121.344.172.101.043.191.098.265.156.07.063.13.137.172.219.04.086.063.191.063.312zm0 0"/></symbol><symbol overflow="visible" id="au"><path d="M3.797-5.906c-.106 0-.176.027-.203.078-.031.055-.028.101.015.14.059.032.11.07.141.11.04.031.04.07 0 .11l-.047.046c-.012.012-.035.027-.062.047-.5.074-.914.262-1.235.563-.312.292-.469.66-.469 1.093 0 .242.051.461.157.656.113.2.265.38.453.532.183.148.41.261.672.344.27.085.562.124.875.124.633 0 1.148-.156 1.547-.468.394-.32.593-.719.593-1.188 0-.37-.136-.719-.406-1.031-.273-.309-.66-.508-1.156-.594a.26.26 0 0 1-.094-.062.295.295 0 0 1-.016-.11.466.466 0 0 1 .032-.078.307.307 0 0 0 .015-.078c.008-.02.008-.035 0-.047 0-.02-.007-.047-.015-.078-.043-.027-.153-.055-.328-.078a3.791 3.791 0 0 0-.407-.031c.239-.008.504-.016.797-.016h.86c.277 0 .523.008.734.016h.438c.226 0 .367-.063.421-.188.051-.133-.058-.258-.328-.375a2.108 2.108 0 0 0-.265-.062 2.64 2.64 0 0 0-.391-.063 2.738 2.738 0 0 0-.469.016c-.156.023-.3.058-.422.11a2.315 2.315 0 0 1-.484.109c-.21.023-.43.039-.656.046H2.875c-.305 0-.559-.007-.766-.03-.21-.02-.41-.04-.593-.063-.118-.008-.23-.016-.344-.016-.117 0-.195.02-.234.047-.055.031-.06.082-.016.14.039.055.16.133.36.235.288.168.523.273.702.313.184.042.344.054.47.03.12-.019.237-.054.343-.109.101-.05.234-.086.39-.109.06 0 .145-.004.25-.016.114-.007.235-.015.36-.015zm.297 3.328a1.08 1.08 0 0 1-.797-.344 1.188 1.188 0 0 1-.344-.86c0-.35.113-.644.344-.874.226-.227.492-.344.797-.344.308 0 .578.129.797.375.226.242.343.523.343.844 0 .344-.117.633-.343.86-.22.23-.489.343-.797.343zm.89-4.531a.902.902 0 0 0 .407-.094c.101-.059.156-.129.156-.203 0-.07-.059-.133-.172-.188-.117-.058-.3-.101-.547-.125-.187 0-.355-.004-.5-.015a9.952 9.952 0 0 1-.39-.032 2.51 2.51 0 0 1-.344-.046c-.117-.02-.239-.04-.36-.063-.273-.04-.449-.027-.53.031-.087.063-.048.16.108.282.208.148.391.261.547.343.153.086.301.133.438.14.164.013.344.016.531.016.184-.007.406-.023.656-.046zm2.641 5.421c-.324.055-.727.114-1.203.172-.469.063-.957.13-1.453.188a56.59 56.59 0 0 1-1.5.14c-.48.032-.887.047-1.219.047-.2 0-.395-.004-.578-.015a5.378 5.378 0 0 1-.531-.047c-.438-.04-.657.004-.657.125.008.117.16.246.454.39.34.18.617.293.828.344.214.043.398.055.546.031.153-.007.29-.039.407-.093a1.53 1.53 0 0 1 .39-.14c.258-.02.582-.056.97-.11.394-.051.8-.114 1.218-.188.426-.07.844-.144 1.25-.219.402-.082.766-.156 1.078-.218V.03c0 .258.004.504.016.735.007.238.03.445.062.625.027.175.07.316.125.421.05.114.125.165.219.157.195 0 .336-.239.422-.703.09-.461.14-1.086.14-1.875v-6.657c0-.144.004-.27.016-.375.02-.113.035-.207.047-.28a.348.348 0 0 0-.047-.188.432.432 0 0 0-.172-.141 1.892 1.892 0 0 0-.312-.078c-.137-.027-.278-.063-.422-.094-.157-.02-.301-.035-.422-.047a2.338 2.338 0 0 1-.234-.047c-.356-.02-.551.024-.579.125-.023.094.079.184.297.266.121.063.239.121.344.172.102.043.191.098.266.156.07.055.129.129.171.219.04.086.063.191.063.312zm0 0"/></symbol><symbol overflow="visible" id="aI"><path d="M4.453-2.672v2.375H2.031c-.18-.008-.34-.02-.484-.031-.149-.008-.29-.02-.422-.031a5.57 5.57 0 0 0-.406-.047C.414-.414.215-.38.125-.296c-.086.085.031.194.344.327.414.196.742.317.984.36.238.05.438.066.594.046.144-.023.273-.066.39-.124.114-.055.254-.086.422-.094.008 0 .067-.008.172-.016.114 0 .27-.012.469-.031.207-.012.469-.024.781-.031.309-.012.676-.024 1.094-.032h2.609c.215.008.422.016.61.016.3.027.578.023.828-.016.246-.03.379-.129.39-.296.008-.102-.07-.188-.234-.25a1.975 1.975 0 0 0-.61-.141 3.572 3.572 0 0 0-.78.031 3.134 3.134 0 0 0-.704.156 1.013 1.013 0 0 1-.328.063 13.856 13.856 0 0 1-1.062.047c-.2 0-.387-.004-.563-.016v-2.375c.633-.082 1.14-.328 1.516-.734.383-.403.578-.89.578-1.453 0-.52-.184-.989-.547-1.407-.367-.414-.879-.671-1.531-.765a.14.14 0 0 1-.047-.063v-.093c.008-.028.02-.063.031-.094.008-.04.02-.082.032-.125a.427.427 0 0 0-.016-.094.19.19 0 0 0-.031-.094l-.141-.047a1.42 1.42 0 0 0-.219-.046 1.41 1.41 0 0 0-.281-.032 1.507 1.507 0 0 1-.203-.031c-.117 0-.2.043-.25.125-.055.074-.055.133 0 .172a.898.898 0 0 1 .187.156c.04.043.04.102 0 .172l-.03.031-.016.016c-.012 0-.024.008-.032.016 0 .011-.008.015-.015.015-.637.094-1.153.34-1.547.734-.399.387-.594.872-.594 1.454 0 .554.191 1.035.578 1.437.383.406.883.66 1.5.75zm.563-.562c-.461 0-.836-.16-1.125-.485-.282-.332-.422-.738-.422-1.219 0-.476.14-.878.422-1.203.289-.32.664-.484 1.125-.484a1.439 1.439 0 0 1 1.109.516c.133.156.238.34.313.546.07.2.109.41.109.625 0 .493-.145.899-.422 1.22-.281.323-.652.484-1.11.484zm0 0"/></symbol><symbol overflow="visible" id="aJ"><path d="M5.594-3.016c.37 0 .707-.004 1-.015.289-.008.55-.016.781-.016.238 0 .457.008.656.016.196 0 .383.008.563.015.3.024.578.016.828-.015.246-.04.379-.145.39-.313.008-.101-.07-.191-.234-.265a1.71 1.71 0 0 0-.61-.125 6.041 6.041 0 0 0-.78.03c-.274.032-.508.09-.704.173a1.946 1.946 0 0 1-.125.031.644.644 0 0 0-.125.016c-.054 0-.105.007-.156.015a.535.535 0 0 1-.14.016c.101-.164.195-.348.28-.547.09-.207.18-.438.266-.688.07-.238.145-.488.22-.75a7 7 0 0 0 .187-.75c.05-.214.093-.398.125-.546.039-.145.062-.227.062-.25.02-.09.05-.18.094-.266.05-.082.086-.16.11-.234a.168.168 0 0 0-.063-.157c-.043-.05-.145-.097-.297-.14a1.633 1.633 0 0 0-.578-.016 2.76 2.76 0 0 0-.563.11.966.966 0 0 1-.265.062A10.8 10.8 0 0 1 6-7.594c-.2.012-.426.024-.672.032h-.75a17.49 17.49 0 0 1-1.531 0c-.23 0-.442-.004-.625-.016a1.813 1.813 0 0 1-.438-.063c-.199-.007-.34-.004-.421.016-.086.023-.133.055-.141.094-.012.031.004.074.047.125.05.043.113.082.187.11.371.218.672.355.89.405.216.055.4.075.548.063.144-.02.273-.055.39-.11.114-.05.25-.085.407-.109 0 0 .132-.004.406-.016.27-.007.582-.023.937-.046.34-.008.68-.02 1.016-.032.332-.02.563-.035.688-.046-.043.449-.09.867-.141 1.25-.055.375-.129.785-.219 1.218-.031.125-.066.254-.094.375-.03.125-.066.246-.093.36-.024.105-.043.21-.063.312-.012.094-.016.18-.016.25H2.718c-.273.012-.503.016-.687.016a4.16 4.16 0 0 1-.484-.047c-.149 0-.29-.004-.422-.016a5.57 5.57 0 0 0-.406-.047c-.305-.007-.504.036-.594.125-.086.086.031.192.344.313.414.187.742.308.984.36.238.054.438.062.594.03.144-.019.273-.054.39-.109.114-.05.254-.086.422-.11h.11c.082 0 .195-.007.344-.03.132 0 .3-.004.5-.016.207-.02.44-.035.703-.047V.016c0 .257.004.504.015.734.02.238.047.445.078.625.04.176.086.316.141.422.059.113.133.164.219.156.195 0 .351-.238.468-.703.114-.46.165-1.086.157-1.875zm0 0"/></symbol><symbol overflow="visible" id="aK"><path d="M8.64.203V-.984c0-.09.008-.176.032-.25.02-.082.035-.157.047-.22a.25.25 0 0 0-.063-.171.467.467 0 0 0-.234-.125 2.273 2.273 0 0 0-.516 0c-.18.023-.363.059-.547.11-.093.03-.347.058-.75.077-.398.024-.836.032-1.312.032-.492.011-.973.011-1.438 0-.468-.008-.816-.035-1.03-.078-.231-.02-.395-.02-.485 0-.094.023-.14.054-.14.093-.013.043.007.09.062.141.05.043.113.082.187.11.371.218.664.355.875.406a1.337 1.337 0 0 0 .938-.063 1.49 1.49 0 0 1 .453-.125h.39c.27-.008.57-.02.907-.031.34-.008.671-.02.984-.031.309-.008.52-.016.625-.016V.609c0 .32.035.614.11.875.081.258.187.391.312.391.121 0 .254-.168.39-.5.133-.324.204-.715.204-1.172zm-.906-4.422v.813c0 .406.024.742.079 1 .05.261.156.386.312.375.145 0 .27-.176.375-.531.113-.352.172-.813.172-1.376v-3.328c0-.144.004-.27.015-.375.02-.113.036-.207.047-.28a.348.348 0 0 0-.046-.188c-.024-.051-.075-.098-.157-.141-.074-.02-.18-.047-.312-.078-.125-.027-.262-.063-.406-.094-.149-.02-.286-.035-.407-.047a1.36 1.36 0 0 1-.218-.047c-.344-.02-.528.024-.547.125-.024.094.066.184.265.266.121.063.239.121.344.172a.856.856 0 0 1 .25.156c.07.063.129.137.172.219.039.086.062.191.062.312v2.516H6.688v-2.016c0-.144.003-.27.015-.375a1.51 1.51 0 0 0 .031-.28.33.33 0 0 0-.03-.188.317.317 0 0 0-.173-.141 7.574 7.574 0 0 0-.719-.156 4.023 4.023 0 0 0-.39-.063A2.602 2.602 0 0 0 5.188-8c-.344-.027-.536.008-.563.11-.023.093.07.19.281.28l.328.157c.102.043.192.098.266.156.07.063.129.137.172.219a.68.68 0 0 1 .062.312v2.938A8.66 8.66 0 0 1 5-3.625a19.928 19.928 0 0 1-1.547.313 7.82 7.82 0 0 1-.625.062c-.105.012-.191-.004-.25-.047-.055-.039-.078-.14-.078-.297v-.875h1c.184 0 .367-.004.547-.015.176-.008.312-.02.406-.032a.924.924 0 0 0 .406-.125c.09-.07.145-.144.157-.218 0-.07-.04-.141-.11-.204-.074-.07-.191-.117-.343-.14a5.677 5.677 0 0 0-.688-.016c-.23.012-.426.07-.578.172a.856.856 0 0 1-.39.14h-.22a.862.862 0 0 1-.187-.015v-1.312h1.547c.195-.008.351-.02.469-.032.175-.027.304-.07.39-.125.09-.058.145-.132.157-.218.007-.07-.024-.141-.094-.204a.705.705 0 0 0-.344-.156c-.21-.02-.441-.02-.688 0a1.16 1.16 0 0 0-.593.172.412.412 0 0 1-.203.11 1.508 1.508 0 0 1-.235.015h-.219a1.552 1.552 0 0 1-.187-.031c-.262-.027-.54-.055-.828-.078-.293-.028-.512-.035-.656-.016a1.29 1.29 0 0 0-.375.11c-.063.03-.09.074-.079.125 0 .042.024.082.079.109a.956.956 0 0 0 .203.078c.113.023.21.05.297.078.082.024.148.05.203.078.05.043.086.102.11.172a.674.674 0 0 1 .046.266v2.484c0 .336.063.555.188.656.132.106.351.153.656.141.238-.008.504-.04.797-.094.3-.058.601-.14.906-.234.3-.082.598-.176.89-.281.29-.102.555-.207.797-.313v.063c0 .406.024.742.079 1 .058.261.164.386.312.375.133 0 .258-.176.375-.532.121-.351.188-.816.188-1.39v-.313zm0 0"/></symbol><symbol overflow="visible" id="I"><path d="M4.328-2.39a.844.844 0 0 0-.25-.61.828.828 0 0 0-1.422.61.85.85 0 0 0 .235.609.8.8 0 0 0 .593.25.812.812 0 0 0 .594-.25.831.831 0 0 0 .25-.61zm0 0"/></symbol><symbol overflow="visible" id="J"><path d="M6.703-1.75v-.422H.25v.422h3.063v1.64h.5v-1.64zm-.64 2.813V.625H1.625V-1h-.484v2.063zm-.75-4.516H1.624v-.969h3.688zm-4.172.422h4.671v-2.766h-.5v.953H1.626v-.953h-.484zm0 0"/></symbol><symbol overflow="visible" id="K"><path d="M.656-4.984h1.547v.562c0 .418-.05.817-.14 1.188a3.813 3.813 0 0 1-.407 1.046c-.18.325-.398.622-.656.891a4.573 4.573 0 0 1-.89.719c.081.055.171.117.265.187.09.063.164.121.219.172.195-.144.394-.316.594-.515.195-.196.378-.414.546-.657.164-.226.313-.46.438-.703.133-.246.226-.492.281-.734.09.273.207.535.344.781.144.242.305.465.484.672.153.18.32.352.5.516.184.156.38.304.578.437l.188-.187c.082-.082.156-.149.219-.204a5.057 5.057 0 0 1-.922-.671 3.882 3.882 0 0 1-.64-.829 3.118 3.118 0 0 1-.376-.89 4.724 4.724 0 0 1-.11-1.063v-.718h1.61v-.438H.656zm4.61-.891v7.094h.515v-3.844H6.86v-.453H5.781v-2.797zm0 0"/></symbol><symbol overflow="visible" id="L"><path d="M3.813 1.344c.363 0 .69-.04.984-.11.3-.062.555-.16.766-.28A1.34 1.34 0 0 0 6.03.5c.114-.18.172-.367.172-.563a.964.964 0 0 0-.172-.546 1.34 1.34 0 0 0-.468-.454 2.593 2.593 0 0 0-.766-.312 4.216 4.216 0 0 0-.984-.11c-.387 0-.731.04-1.032.11-.293.074-.539.18-.734.313a1.43 1.43 0 0 0-.485.453 1.01 1.01 0 0 0-.156.546c0 .196.051.383.157.563.113.176.273.328.484.453.195.121.441.219.734.281.301.07.645.11 1.031.11zM1.921-.063c0-.152.047-.296.14-.421a1.07 1.07 0 0 1 .407-.313 2.26 2.26 0 0 1 .594-.187c.226-.051.476-.079.75-.079.257 0 .5.028.718.079.227.043.43.105.61.187.164.086.296.192.39.313.102.125.157.27.157.421A.626.626 0 0 1 5.53.36a1.18 1.18 0 0 1-.39.313c-.18.09-.383.16-.61.203a4.409 4.409 0 0 1-1.469 0A2 2 0 0 1 2.47.672a1.07 1.07 0 0 1-.406-.313.694.694 0 0 1-.141-.421zM6.156-1.53v-4.344h-.5v1.75h-.953V-5.75h-.5v3.969h.5v-1.89h.953v2.14zM2.313-4.97v-.672h-.5v.657c0 .336-.036.632-.094.89a2.57 2.57 0 0 1-.282.703c-.136.23-.308.446-.515.641-.2.188-.434.363-.703.516.058.054.133.117.218.187.09.063.165.121.22.172.195-.145.363-.281.5-.406.144-.133.28-.274.405-.422.09-.121.18-.266.266-.422.082-.164.16-.352.234-.563.06.18.145.348.25.5.102.157.22.305.344.438.121.148.258.273.406.375.145.105.29.2.438.281.05-.07.11-.14.172-.203.058-.07.125-.14.187-.203a2.46 2.46 0 0 1-.64-.375 2.28 2.28 0 0 1-.5-.578 2.444 2.444 0 0 1-.313-.688 3.376 3.376 0 0 1-.094-.828zm0 0"/></symbol><symbol overflow="visible" id="M"><path d="M5.969 1.125v-.39H1.656v-.829h4.157v-1.562H3.719v-.797h2.984v-.406H.25v.406h2.969v.797H1.14v.406h4.156v.766H1.14v1.609zM5.312-4H1.626v-1.25h3.688zm-4.171.406h4.671v-2.062H1.141zm0 0"/></symbol><symbol overflow="visible" id="N"><path d="M3.563-5.453v-.422H1.469v.422zm.984 1.047v-.422H.53v.422zm-2.016.468c-.511 0-.926.118-1.234.344-.305.23-.453.508-.453.828 0 .157.035.309.11.454.081.148.194.269.343.359.144.117.32.207.531.266.207.054.442.078.703.078.52 0 .93-.114 1.235-.344.308-.227.468-.5.468-.813 0-.32-.152-.597-.453-.828-.304-.226-.722-.344-1.25-.344zM1.36-2.78c0-.215.098-.395.297-.531.207-.133.5-.204.875-.204.383 0 .676.07.875.204.196.136.297.316.297.53 0 .231-.101.419-.297.563-.199.137-.492.203-.875.203-.375 0-.668-.066-.875-.203a.664.664 0 0 1-.297-.562zM6.938-3.5v-.438H5.921v-1.937h-.5v4.547h.5V-3.5zM5.921 1.266V-.97h-4.5v.438h4.016v1.797zm0 0"/></symbol><symbol overflow="visible" id="P"><path d="M3.844-2.172v-3.437h-.469v1.296H1.203v-1.296H.734v3.437zm-.469-.422H1.203V-3.89h2.172zm2.469 3.86V-1.25H1.328v.438H5.36v2.078zm1-5.094v-.438h-1V-5.89h-.5v4.266h.5v-2.203zm0 0"/></symbol><symbol overflow="visible" id="Q"><path d="M2.64-4.266v-1.28h-.515v1.124c0 .418-.05.817-.14 1.188a3.813 3.813 0 0 1-.407 1.046c-.18.325-.398.622-.656.891a4.573 4.573 0 0 1-.89.719c.07.055.155.117.25.187.1.063.179.121.234.172.195-.144.394-.316.593-.515.196-.196.38-.414.547-.657.176-.226.328-.46.453-.703.121-.246.211-.492.266-.734.09.273.207.535.344.781.144.242.304.465.484.672.152.18.32.352.5.516.184.156.379.304.578.437l.188-.187c.082-.082.156-.149.218-.204a5.057 5.057 0 0 1-.921-.671 3.882 3.882 0 0 1-.641-.829 3.459 3.459 0 0 1-.36-.89 4.109 4.109 0 0 1-.124-1.063zm2.657-1.609v7.094h.516v-3.844h1.093v-.453H5.813v-2.797zm0 0"/></symbol><symbol overflow="visible" id="R"><path d="M6.078 1.219v-7.094h-.5v2.172H3.922v.453h1.656v4.469zm-3.36-5.485v-1.28h-.515v1.124c0 .418-.05.817-.14 1.188a3.813 3.813 0 0 1-.407 1.046c-.18.325-.398.622-.656.891a4.573 4.573 0 0 1-.89.719c.081.055.171.117.265.187.09.063.164.121.219.172.195-.144.394-.316.594-.515.195-.196.378-.414.546-.657.164-.226.313-.46.438-.703.133-.246.226-.492.281-.734.09.273.207.535.344.781.144.242.305.465.484.672.153.18.32.352.5.516.184.156.38.304.578.437l.188-.187c.082-.082.156-.149.219-.204a5.057 5.057 0 0 1-.922-.671 3.882 3.882 0 0 1-.64-.829 3.118 3.118 0 0 1-.376-.89 4.724 4.724 0 0 1-.11-1.063zm0 0"/></symbol><symbol overflow="visible" id="S"><path d="M3.469-3.453c.789 0 1.39-.113 1.797-.344.414-.238.625-.531.625-.875a.822.822 0 0 0-.157-.469 1.39 1.39 0 0 0-.468-.406 2.83 2.83 0 0 0-.766-.266 4.44 4.44 0 0 0-1.031-.109c-.781 0-1.383.121-1.797.36-.418.242-.625.539-.625.89 0 .344.207.637.625.875.414.23 1.016.344 1.797.344zm0-.375c-.563 0-1.024-.07-1.375-.219-.356-.152-.531-.363-.531-.625 0-.27.171-.484.515-.64.352-.153.817-.235 1.39-.235.56 0 1.02.086 1.376.25.363.156.547.367.547.625a.484.484 0 0 1-.157.344 1.093 1.093 0 0 1-.39.266 2.074 2.074 0 0 1-.61.187c-.23.031-.488.047-.765.047zm2.5 4.953v-.39H1.656V-.11h4.157v-1.594H3.719v-.766h2.984v-.406H.25v.406h2.969v.766H1.14v.406h4.156v.781H1.14v1.641zm0 0"/></symbol><symbol overflow="visible" id="T"><path d="M.89-5.36v4.735s.04.008.126.016c.082 0 .187-.004.312-.016h.438c.164 0 .332-.004.5-.016.132-.007.28-.02.437-.03.152-.009.305-.02.453-.032.145-.02.274-.035.39-.047.122-.02.22-.035.282-.047v-.453c-.074.023-.18.043-.312.063a10.25 10.25 0 0 1-.407.03c-.136.012-.277.024-.421.032a4.079 4.079 0 0 1-.344.016l-.969.03v-3.859h1.906v-.421zM6.157 1.22v-7.094h-.5v2.703H4.625V-5.75h-.5V.875h.5v-3.578h1.031v3.922zm0 0"/></symbol><symbol overflow="visible" id="U"><path d="M6.719.234v-.421H4.062v-2.735h-.484v2.735H2.313v-2.735h-.47v2.735H.235v.421zM1.047-5.453v.437h4.375c-.012.274-.035.567-.063.875-.03.305-.074.621-.125.954-.043.324-.09.648-.14.968-.055.324-.114.637-.172.938h.516c.132-.664.238-1.36.312-2.078.082-.715.145-1.414.188-2.094zm0 0"/></symbol><symbol overflow="visible" id="V"><path d="M3.797 1.36c.777 0 1.375-.133 1.781-.391.414-.25.625-.57.625-.953s-.21-.707-.625-.97c-.406-.257-1.004-.39-1.781-.39-.781 0-1.379.133-1.781.39-.407.263-.61.587-.61.97 0 .382.203.703.61.953.402.258 1 .39 1.78.39zM1.89.015c0-.301.175-.536.53-.704.352-.164.813-.25 1.376-.25.27 0 .52.028.75.079.238.043.441.105.61.187a.992.992 0 0 1 .405.297.63.63 0 0 1 .141.39.63.63 0 0 1-.14.391c-.094.114-.231.211-.407.297a2.358 2.358 0 0 1-.593.188c-.231.039-.481.062-.75.062-.575 0-1.04-.09-1.391-.265C2.066.52 1.89.292 1.89.015zm1.593-2.61H1.313v-1.375h2.171zm.47-.75v-.984h1.64v.984zm1.64.422v1.485h.5v-4.438h-.5v1.125h-1.64v-.86h-.47v1.22H1.313v-1.22h-.47v3.423h3.11v-.735zm0 0"/></symbol><symbol overflow="visible" id="W"><path d="M2.766-3.328c.257 0 .492-.031.703-.094A1.76 1.76 0 0 0 4-3.703c.145-.113.254-.25.328-.406a1.04 1.04 0 0 0 0-.984A1.198 1.198 0 0 0 4-5.5a1.953 1.953 0 0 0-.531-.281c-.211-.07-.446-.11-.703-.11-.262 0-.496.04-.704.11-.21.074-.386.168-.53.281a1.3 1.3 0 0 0-.345.406c-.074.157-.109.32-.109.485 0 .18.035.347.11.5.07.148.187.277.343.39.145.125.32.227.532.297.207.063.44.094.703.094zm.015-.406c-.21 0-.394-.024-.547-.079a.976.976 0 0 1-.375-.203.793.793 0 0 1-.234-.28.65.65 0 0 1-.078-.313c0-.207.098-.407.297-.594.195-.195.504-.297.922-.297.402 0 .707.102.906.297.207.187.312.387.312.594 0 .105-.027.21-.078.312-.054.106-.129.2-.219.281a1.491 1.491 0 0 1-.906.281zM6.187-.406v-5.469h-.5v4.172h-1.75v.406h1.75v.89zm.157 1.453V.625H2.187v-1.36h-.515v1.782zm-.89-4c-.106.023-.263.05-.47.078-.21.023-.445.043-.703.063a14.5 14.5 0 0 1-.828.046c-.281.012-.55.016-.797.016l-2.172.016v.421h1.704v1.22h.484v-1.235c.215 0 .457-.004.719-.016.27-.008.53-.023.78-.047.259-.007.5-.023.72-.046.226-.028.414-.055.562-.079zm0 0"/></symbol><symbol overflow="visible" id="X"><path d="M.969-3.89c0 .242.039.464.125.671.082.211.207.395.375.547.152.156.343.285.562.375.215.094.461.14.735.14.246 0 .484-.046.703-.14.226-.09.414-.219.562-.375a1.52 1.52 0 0 0 .375-.547 1.668 1.668 0 0 0 0-1.344 1.59 1.59 0 0 0-.375-.546 1.532 1.532 0 0 0-.562-.36 1.893 1.893 0 0 0-1.438 0c-.219.086-.41.207-.562.36a1.49 1.49 0 0 0-.375.546c-.086.211-.125.434-.125.672zm.484 0c0-.352.113-.657.344-.907.226-.258.55-.39.969-.39.394 0 .707.132.937.39.227.25.344.555.344.906 0 .368-.117.676-.344.922-.23.242-.543.36-.937.36-.418 0-.743-.118-.97-.36-.23-.246-.343-.554-.343-.922zm4.703 5.109v-7.094h-.5v7.094zm-.734-2.36c-.156.024-.383.051-.672.079-.293.03-.602.058-.922.078a13.54 13.54 0 0 1-.922.062c-.281.012-.496.016-.64.016H.546v.437h1.47c.363 0 .71-.004 1.046-.015.34-.02.66-.04.954-.063.3-.02.57-.039.812-.062.238-.028.438-.055.594-.079zm0 0"/></symbol><symbol overflow="visible" id="Y"><path d="M1.39-.047c0 .184.051.363.157.531.101.176.254.329.453.454.195.132.445.238.75.312.3.07.648.11 1.047.11.777 0 1.375-.145 1.781-.423.414-.273.625-.601.625-.984s-.21-.71-.625-.984c-.406-.278-1.004-.422-1.781-.422-.793 0-1.395.144-1.797.422-.406.273-.61.601-.61.984zm.5 0c0-.3.176-.539.532-.719.351-.175.816-.265 1.39-.265.551 0 1 .09 1.344.265.352.18.532.418.532.72 0 .308-.18.554-.532.734-.343.175-.793.265-1.343.265-.575 0-1.04-.09-1.391-.265-.356-.18-.531-.426-.531-.735zm2.063-4.406h1.64v.922h-1.64zm0 2.14v-.796h1.64v1.562h.5v-4.328h-.5v1h-1.64v-.656H.843v3.218zm-.469-.421H1.313V-5.11h2.171zm0 0"/></symbol><symbol overflow="visible" id="Z"><path d="M6.313 1.063V.625H2.125V-1.25h-.5v2.313zM2.358-2.531c-.406 0-.726-.133-.953-.406-.218-.27-.328-.602-.328-1 0-.395.11-.727.328-1 .227-.27.547-.407.953-.407.403 0 .72.137.938.407.226.273.344.605.344 1 0 .398-.118.73-.344 1-.219.273-.535.406-.938.406zm1.704-.813c.027-.09.05-.187.062-.281.02-.102.031-.207.031-.313a1.73 1.73 0 0 0-.031-.312 5.447 5.447 0 0 0-.078-.297h1.547v1.203zm2.03 2.75v-5.281h-.5v.89H3.86a1.816 1.816 0 0 0-.625-.577 1.715 1.715 0 0 0-.875-.235c-.273 0-.52.055-.734.156-.219.094-.41.227-.563.391-.156.18-.285.383-.375.61a1.918 1.918 0 0 0-.125.702c0 .262.04.508.125.735.09.219.22.414.375.578.153.168.344.305.563.406.215.094.46.14.734.14.32 0 .614-.07.875-.218.258-.152.473-.36.641-.61h1.719v2.313zm0 0"/></symbol><symbol overflow="visible" id="aa"><path d="M5.578-2.406c.027-.207.063-.442.094-.703.039-.258.07-.532.094-.813.027-.289.054-.578.078-.86.02-.288.035-.562.047-.812H1.016v.422h4.359c-.031.469-.074.93-.125 1.375-.043.45-.105.914-.188 1.39H.234v.423h2.907v3.203h.515v-3.203H6.72v-.422zm0 0"/></symbol><symbol overflow="visible" id="ab"><path d="M6.703-1.484v-.422H.25v.422h3v2.703h.516v-2.703zm-2.969-3.86v-.343h-.53v.343c0 .305-.083.582-.235.828a2.49 2.49 0 0 1-.61.641c-.25.18-.535.332-.843.453a5.516 5.516 0 0 1-.954.297c.06.063.13.137.204.219.082.086.144.148.187.187.258-.07.516-.16.766-.265a4.5 4.5 0 0 0 .718-.375c.215-.133.415-.297.594-.485a2.68 2.68 0 0 0 .453-.656c.102.242.243.46.422.656.184.188.39.352.61.485a3.5 3.5 0 0 0 .75.406c.257.105.504.183.734.234l.156-.219c.059-.07.13-.14.203-.203a5.364 5.364 0 0 1-.953-.28 3.54 3.54 0 0 1-.843-.5 2.205 2.205 0 0 1-.61-.626 1.473 1.473 0 0 1-.219-.797zm0 0"/></symbol><symbol overflow="visible" id="af"><path d="M6.094-1.563v-4.312h-.5v1.078H4.25v.422h1.344v1.11H4.03v.421h1.563v1.281zM3.859 1.345c.739 0 1.317-.137 1.735-.407.414-.261.625-.597.625-1 0-.394-.211-.726-.625-1-.418-.277-.996-.421-1.735-.421-.375 0-.71.039-1 .109-.293.074-.539.18-.734.313-.2.125-.355.277-.469.453a1.01 1.01 0 0 0-.156.546c0 .403.207.739.625 1 .414.27.992.407 1.734.407zM2.016-.063c0-.152.046-.296.14-.421.09-.121.223-.227.39-.313.165-.082.36-.144.579-.187a3.36 3.36 0 0 1 .734-.079c.258 0 .5.028.72.079.226.043.425.105.593.187.164.086.297.192.39.313.102.125.157.27.157.421a.626.626 0 0 1-.157.422 1.18 1.18 0 0 1-.39.313 2.08 2.08 0 0 1-.594.203c-.23.04-.473.063-.719.063-.261 0-.504-.024-.718-.063a2.262 2.262 0 0 1-.594-.203 1.105 1.105 0 0 1-.39-.313.654.654 0 0 1-.141-.421zM.89-5.53v.422h2.593a3.086 3.086 0 0 1-.328.953c-.156.273-.347.52-.562.734a4.403 4.403 0 0 1-1 .719c-.375.2-.77.355-1.172.469.058.062.129.132.203.203.07.062.133.129.188.187a5.488 5.488 0 0 0 1.265-.578 4.2 4.2 0 0 0 1.031-.875c.246-.289.454-.617.61-.984.164-.371.273-.79.328-1.25zm0 0"/></symbol><symbol overflow="visible" id="ag"><path d="M5 .875V-5.75h-.5v2.234H3.219v.454H4.5V.874zm1.36.344v-7.094h-.5v7.094zM.765-4.938H2v.5c0 .45-.04.872-.11 1.266-.062.399-.175.77-.327 1.11a3.9 3.9 0 0 1-.563.89C.77-.898.496-.66.187-.453a.528.528 0 0 0 .11.094c.05.023.101.043.156.062.04.031.082.067.125.094l.11.062c.175-.12.347-.28.515-.468.164-.184.32-.391.469-.61.133-.207.25-.422.344-.64.101-.215.175-.438.218-.657a3.5 3.5 0 0 0 .547 1.188 3 3 0 0 0 .422.516c.152.156.313.285.469.375.039-.051.098-.11.172-.172.082-.059.16-.118.234-.172a2.36 2.36 0 0 1-.719-.594c-.199-.238-.363-.52-.484-.844a3.873 3.873 0 0 1-.281-.937 6.929 6.929 0 0 1-.078-1.094v-.688h1.203v-.421H.766zm0 0"/></symbol><symbol overflow="visible" id="ah"><path d="M6.094 1.14v-2.874h-.5v.921H2.109v-.921h-.5V1.14zm-.5-.421H2.109V-.406h3.485zm-1.64-3.125V-4h1.64v1.922h.5v-3.797h-.5v1.438h-1.64V-5.61h-.47v1.125H1.313V-5.61h-.47v3.203zm-.47-.422H1.313v-1.235h2.171zm0 0"/></symbol><symbol overflow="visible" id="ai"><path d="M5.813-2.938v-2.656H1.14v2.657zm-.5-.421H1.64v-1.813h3.671zm1.39 1.968v-.437H.25v.437h3v2.61h.516v-2.61zm0 0"/></symbol><symbol overflow="visible" id="aj"><path d="M6.313 1.063V.625H2.125V-1.25h-.5v2.313zM2.358-2.063c.258 0 .5-.047.72-.141.214-.09.41-.227.577-.406.153-.153.274-.348.36-.579.09-.226.14-.468.14-.718 0-.258-.05-.5-.14-.719a1.858 1.858 0 0 0-.36-.594 1.787 1.787 0 0 0-.578-.406c-.219-.09-.46-.14-.719-.14-.273 0-.52.05-.734.14-.219.094-.41.23-.563.406a1.896 1.896 0 0 0-.375.594c-.085.219-.125.46-.125.719 0 .25.04.492.125.719.09.23.22.425.375.578.153.18.344.316.563.406.215.094.46.14.734.14zm0-.454c-.406 0-.726-.132-.953-.406-.218-.27-.328-.598-.328-.984 0-.395.11-.727.328-1 .227-.278.547-.422.953-.422.403 0 .72.144.938.422.226.273.344.605.344 1 0 .386-.118.715-.344.984-.219.274-.535.406-.938.406zm3.235-3.359v5.266h.5v-5.266zm0 0"/></symbol><symbol overflow="visible" id="ak"><path d="M2.063 1.578c-.376-.687-.66-1.34-.844-1.953a7.248 7.248 0 0 1-.266-2.016c0-.707.086-1.367.266-1.984.183-.621.468-1.281.843-1.969h-.328a12.89 12.89 0 0 0-.421.735 6.723 6.723 0 0 0-.407.906c-.125.324-.23.68-.312 1.062-.074.387-.11.805-.11 1.25 0 .45.036.868.11 1.25.082.387.187.743.312 1.063.121.332.258.633.406.906.145.27.286.52.422.75zm0 0"/></symbol><symbol overflow="visible" id="al"><path d="M6.703-1.39v-.438H.25v.437h1.797v2.547h.5V-1.39h1.86v2.61h.5v-2.61zM1.016-4.204c0 .23.05.445.156.64.113.188.281.356.5.5.207.149.46.262.766.344.308.074.656.11 1.03.11.384 0 .727-.036 1.032-.11.3-.082.563-.195.781-.344.207-.144.367-.312.485-.5a1.26 1.26 0 0 0 0-1.265 1.727 1.727 0 0 0-.485-.516 2.491 2.491 0 0 0-.781-.328 3.968 3.968 0 0 0-1.031-.125c-.375 0-.723.043-1.031.125a2.256 2.256 0 0 0-.766.328c-.219.149-.387.32-.5.516-.106.2-.156.41-.156.625zM3.469-3c-.274 0-.528-.023-.766-.078a1.763 1.763 0 0 1-.625-.25 1.132 1.132 0 0 1-.406-.36.974.974 0 0 1-.14-.515.92.92 0 0 1 .14-.5 1.34 1.34 0 0 1 .406-.39c.176-.09.379-.165.61-.22a3.269 3.269 0 0 1 1.546 0c.239.055.442.13.61.22.176.116.312.245.406.39.102.148.156.32.156.516a.854.854 0 0 1-.156.5c-.094.148-.23.273-.406.374a2.08 2.08 0 0 1-.625.235 3.25 3.25 0 0 1-.75.078zm0 0"/></symbol><symbol overflow="visible" id="am"><path d="M6.938-3.328v-.438H5.921v-2.109h-.484v5.266h.484v-2.72zm-.766 4.39V.625H2.109V-.969h-.5v2.031zm-2.61-6.515v-.422H1.47v.422zm.985 1.078v-.422H.53v.422zm-2.016.469c-.261 0-.496.035-.703.094-.21.062-.387.152-.531.265-.149.106-.262.23-.344.375a1.033 1.033 0 0 0 0 .922c.082.148.195.273.344.375.144.117.32.207.531.266.207.062.442.093.703.093.258 0 .492-.03.703-.093.207-.059.391-.149.547-.266.133-.102.242-.227.328-.375a.911.911 0 0 0 .125-.453c0-.32-.152-.602-.453-.844-.304-.238-.722-.36-1.25-.36zM1.36-2.72c0-.215.098-.398.297-.547.207-.144.5-.218.875-.218.383 0 .676.074.875.218.196.149.297.332.297.547 0 .23-.101.426-.297.578-.199.149-.492.22-.875.22-.375 0-.668-.071-.875-.22a.7.7 0 0 1-.297-.578zm0 0"/></symbol><symbol overflow="visible" id="an"><path d="M.719-6.344H.39c.37.688.656 1.348.843 1.969a6.92 6.92 0 0 1 .282 1.984 7.1 7.1 0 0 1-.282 2.016 10.846 10.846 0 0 1-.843 1.953h.328c.133-.23.273-.48.422-.75.144-.273.28-.574.406-.906.121-.32.223-.676.297-1.063.082-.382.125-.8.125-1.25 0-.445-.043-.859-.125-1.234a7.24 7.24 0 0 0-.297-1.078 8.582 8.582 0 0 0-.406-.89c-.149-.278-.29-.532-.422-.75zm0 0"/></symbol><symbol overflow="visible" id="ao"><path d="M6.703-2.484v-.407H.25v.407h1.86v.828h-.97v.406h4.157v.766H1.14v1.609h4.828v-.39H1.656v-.829h4.157v-1.562h-.97v-.828zm-2.344.828H2.61v-.828h1.75zm-.89-1.797c.789 0 1.39-.113 1.797-.344.414-.238.625-.531.625-.875a.822.822 0 0 0-.157-.469 1.39 1.39 0 0 0-.468-.406 2.83 2.83 0 0 0-.766-.266 4.44 4.44 0 0 0-1.031-.109c-.781 0-1.383.121-1.797.36-.418.242-.625.539-.625.89 0 .344.207.637.625.875.414.23 1.016.344 1.797.344zm0-.375c-.563 0-1.024-.07-1.375-.219-.356-.152-.531-.363-.531-.625 0-.27.171-.484.515-.64.352-.153.817-.235 1.39-.235.56 0 1.02.086 1.376.25.363.156.547.367.547.625a.484.484 0 0 1-.157.344 1.093 1.093 0 0 1-.39.266 2.074 2.074 0 0 1-.61.187c-.23.031-.488.047-.765.047zm0 0"/></symbol><symbol overflow="visible" id="ap"><path d="M6.703-1.39v-.423H3.734V-2.89H3.22v1.079H.25v.421zm-.64 2.452V.641H1.625V-.844h-.484v1.906zM4.734-5.484v-.422h-2.53v.422zM1.047-4.375h2.14a.915.915 0 0 1-.265.516 1.952 1.952 0 0 1-.531.39c-.25.125-.536.239-.844.328a8.452 8.452 0 0 1-.922.204c.059.062.125.132.188.203.058.074.113.136.156.187.289-.058.566-.129.828-.203.258-.07.5-.164.719-.281.195-.09.375-.207.53-.344.165-.133.313-.297.438-.484.153.25.344.457.563.609.226.148.473.273.734.375.09.043.192.082.297.11.102.023.207.05.313.078.101.03.203.058.296.078.09.023.188.043.282.062a.903.903 0 0 0 .078-.094l.094-.093a.762.762 0 0 1 .078-.094l.11-.11c-.274-.039-.552-.093-.829-.156a3.553 3.553 0 0 1-.75-.281 2.438 2.438 0 0 1-.656-.406 1.017 1.017 0 0 1-.328-.594h2.14v-.406h-4.86zm0 0"/></symbol><symbol overflow="visible" id="aq"><path d="M1.047-5.453v.437h4.328c-.012.274-.035.567-.063.875-.03.313-.07.633-.109.954-.043.324-.098.652-.156.984-.055.324-.106.637-.156.937h.515c.133-.664.239-1.359.313-2.078.082-.726.14-1.43.172-2.11zM6.719.234v-.421H3.203V-2.97h-.5v2.781H.234v.422zm0 0"/></symbol><symbol overflow="visible" id="ar"><path d="M6.703-1.781v-.438H.25v.438h3.063v1.625h.5v-1.625zm-.64 2.843V.625H1.625V-1h-.484v2.063zm-.75-4.671H1.624v-1.625h3.688zm-4.172.421h4.671v-2.468H1.141zm0 0"/></symbol><symbol overflow="visible" id="av"><path d="M.656-3c0 .492.051.91.156 1.25.102.344.235.621.391.828a1.364 1.364 0 0 0 1.125.61c.184 0 .379-.047.578-.141.196-.09.375-.25.531-.469.153-.207.286-.484.391-.828.102-.34.156-.758.156-1.25 0-.488-.054-.906-.156-1.25a2.87 2.87 0 0 0-.39-.828 1.621 1.621 0 0 0-.547-.453 1.315 1.315 0 0 0-.563-.14c-.187 0-.383.05-.578.14-.188.086-.367.23-.531.437-.168.211-.305.489-.407.828C.708-3.922.656-3.496.656-3zm.485 0c0-.29.023-.57.078-.844.05-.27.129-.508.234-.719.09-.207.211-.375.36-.5a.782.782 0 0 1 .515-.187c.195 0 .363.066.5.188.145.125.27.292.375.5.09.21.164.449.219.718a4.612 4.612 0 0 1 0 1.703 3.552 3.552 0 0 1-.219.72 1.54 1.54 0 0 1-.375.5.741.741 0 0 1-.5.171.79.79 0 0 1-.515-.172 1.28 1.28 0 0 1-.36-.5 2.633 2.633 0 0 1-.234-.719A4.314 4.314 0 0 1 1.14-3zm4.421-2.875v7.094h.5v-7.094zm0 0"/></symbol><symbol overflow="visible" id="aw"><path d="M3.906-1.86c.051-.257.098-.546.14-.859.04-.32.071-.648.095-.984.027-.32.05-.633.062-.938.02-.3.035-.566.047-.796H.703v.421h3.031c0 .25-.011.524-.03.813-.024.281-.052.566-.079.844-.031.28-.07.558-.11.828-.03.261-.066.488-.093.672zm1.172.844a6.082 6.082 0 0 1-.61.094c-.261.024-.534.043-.812.063-.281.011-.554.027-.812.046-.262.012-.465.016-.61.016v-2.5H1.75v2.5H.328v.438h1.266c.277 0 .586-.004.922-.016.34-.02.675-.04 1-.063.308-.019.609-.039.89-.062.278-.027.504-.055.672-.078zm.234-4.859v7.094h.516V-2.47H6.86v-.453H5.83v-2.953zm0 0"/></symbol><symbol overflow="visible" id="ax"><path d="M5.813-2.578v-3.125h-.5v1H1.64v-1h-.5v3.125zM5.313-3H1.64v-1.297h3.671zm1.39 1.766v-.422H.25v.422h3v2.453h.516v-2.453zm0 0"/></symbol><symbol overflow="visible" id="ay"><path d="M4.828-5.39v-.438H2.11v.437zm1.266.984v-.438H.844v.438zM1.266-2.938c0 .149.05.29.156.422.101.125.254.239.453.329.184.093.414.167.688.218a4.5 4.5 0 0 0 .89.078c.32 0 .617-.023.89-.078.27-.05.5-.125.688-.218a1.34 1.34 0 0 0 .438-.329.644.644 0 0 0 .172-.421.6.6 0 0 0-.172-.407 1.457 1.457 0 0 0-.438-.328 2.969 2.969 0 0 0-.687-.219 4.877 4.877 0 0 0-.89-.078c-.325 0-.622.028-.892.078a2.85 2.85 0 0 0-.687.22 1.32 1.32 0 0 0-.453.327.618.618 0 0 0-.156.406zm.578 0c0-.09.039-.18.125-.265a.932.932 0 0 1 .343-.203c.145-.051.317-.086.516-.11.195-.027.406-.046.625-.046.215 0 .426.019.625.046.195.024.367.059.516.11.144.054.258.12.343.203.09.086.141.176.141.265 0 .118-.05.215-.14.297-.086.075-.2.137-.344.188-.149.055-.32.098-.516.125a5.4 5.4 0 0 1-.625.031c-.219 0-.43-.008-.625-.031-.2-.027-.371-.07-.515-.125a.978.978 0 0 1-.344-.188.39.39 0 0 1-.125-.296zM6.704-.89v-.421H.25v.421h3v2.11h.516v-2.11zm0 0"/></symbol><symbol overflow="visible" id="az"><path d="M6.094-1.547v-4.328h-.5v1.438H3.937V-4h1.657v2.453zm-2.235 2.89c.739 0 1.317-.136 1.735-.405.414-.262.625-.598.625-1 0-.395-.211-.727-.625-1-.418-.278-.996-.422-1.735-.422-.375 0-.71.039-1 .109-.293.074-.539.18-.734.313-.2.125-.355.277-.469.453a1.01 1.01 0 0 0-.156.546c0 .403.207.739.625 1 .414.27.992.407 1.734.407zM2.016-.061c0-.153.046-.297.14-.422.09-.121.223-.227.39-.313.165-.082.36-.144.579-.187a3.36 3.36 0 0 1 .734-.079c.258 0 .5.028.72.079.226.043.425.105.593.187.164.086.297.192.39.313.102.125.157.27.157.421a.626.626 0 0 1-.157.422 1.18 1.18 0 0 1-.39.313 2.08 2.08 0 0 1-.594.203c-.23.04-.473.063-.719.063-.261 0-.504-.024-.718-.063a2.262 2.262 0 0 1-.594-.203 1.105 1.105 0 0 1-.39-.313.654.654 0 0 1-.141-.421zm.703-4.922v-.704h-.516V-5c0 .336-.055.637-.156.906a2.59 2.59 0 0 1-.39.735c-.188.23-.403.433-.641.609a4.339 4.339 0 0 1-.797.438 5.54 5.54 0 0 1 .437.359c.207-.102.406-.219.594-.344.184-.121.36-.265.516-.422.144-.152.273-.32.39-.5.121-.183.223-.383.297-.594.113.22.242.418.39.594.153.168.321.324.5.469.153.117.313.223.47.313.164.093.328.18.484.25a1.28 1.28 0 0 1 .156-.188c.059-.07.129-.145.203-.219a3.952 3.952 0 0 1-.734-.328 2.414 2.414 0 0 1-.625-.531 2.123 2.123 0 0 1-.438-.672 2.417 2.417 0 0 1-.14-.86zm0 0"/></symbol><symbol overflow="visible" id="aA"><path d="M6.172-.61v-5.265h-.5v1.656H4.094v.438h1.578V-.61zm.219 1.672V.625H2.203V-1.25h-.5v2.313zM.797-5.109H2.28v.375c0 .343-.054.66-.156.937a3.208 3.208 0 0 1-.375.75c-.18.242-.395.457-.64.64-.25.188-.524.348-.813.47.058.054.133.117.219.187.09.063.164.121.218.172.196-.113.391-.238.579-.375.183-.133.359-.285.515-.453.152-.153.29-.332.406-.531.121-.196.223-.407.297-.626.09.188.203.368.328.532.121.168.258.32.407.453.175.168.359.32.546.453.184.125.376.23.563.313A1.28 1.28 0 0 1 4.531-2c.07-.07.14-.145.203-.219a3.035 3.035 0 0 1-.718-.344 2.685 2.685 0 0 1-.61-.562 2.66 2.66 0 0 1-.453-.734 2.384 2.384 0 0 1-.156-.875v-.375H4.25v-.422H.797zm0 0"/></symbol><symbol overflow="visible" id="aB"><path d="M6.719.234v-.421H3.203v-1.954h-.5v1.954H.234v.421zm-5.64-5.687v.422h4.296c0 .105-.008.215-.016.328a7.822 7.822 0 0 0-.03.328A5.782 5.782 0 0 1 5.28-4c-.011.117-.023.23-.031.344-.148.011-.32.023-.516.031a26.175 26.175 0 0 1-1.328.047c-.23 0-.46.008-.687.015H.969v.407c.008 0 .062.008.156.015H2c.195-.007.41-.015.64-.015h.657c.238-.008.469-.016.687-.016.227-.008.442-.015.641-.015.207-.008.398-.024.578-.047-.055.343-.105.68-.156 1-.043.312-.098.632-.156.953h.515c.133-.676.239-1.367.313-2.078.082-.715.14-1.414.172-2.094zm0 0"/></symbol><symbol overflow="visible" id="aC"><path d="M1.125-2.078h4.844V-2.5H1.625v-2.516h4.266v-.437H1.125zM6.719.172v-.438H.234v.438zm0 0"/></symbol><symbol overflow="visible" id="aD"><path d="M4.906-1.578v-.438h-2.36v.438zm.688-4.297v4.047h.5v-4.047zM3.954-2.75v-2.781H.843v2.781zm-.47-.406H1.313v-1.969h2.171zm2.532 4.36a.21.21 0 0 1 .062-.079c.027-.031.067-.07.11-.11.027-.03.062-.07.093-.109a.704.704 0 0 0 .094-.094 4.586 4.586 0 0 1-.828-.171 2.943 2.943 0 0 1-.719-.297c-.2-.106-.371-.23-.516-.375A1.439 1.439 0 0 1 4-.547h2.14v-.422H1.407v.422h2.078A1.394 1.394 0 0 1 3.156 0a2.012 2.012 0 0 1-.531.39c-.21.102-.441.188-.688.25-.25.07-.519.13-.796.172.02.028.046.063.078.094l.11.11a.86.86 0 0 1 .109.093c.027.04.054.07.078.094.214-.031.437-.086.656-.156.215-.063.426-.149.625-.25a3.24 3.24 0 0 0 .531-.344c.164-.137.317-.3.453-.484.114.195.254.36.422.484.164.133.344.254.531.36.184.09.391.171.61.234.215.07.441.125.672.156zm0 0"/></symbol><symbol overflow="visible" id="aE"><path d="M6.344 1.125V.703h-4.14v-.828h3.968v-1.672H1.688v.422h3.968v.813H1.688v1.687zm-.672-7.016v3.735h.5v-3.735zm-4.875.75h1.547v.125c0 .313-.055.598-.156.844-.106.242-.247.461-.422.656-.188.211-.414.387-.672.532a4.851 4.851 0 0 1-.844.375c.027.023.066.05.11.078a.8.8 0 0 0 .14.094c.04.023.078.05.11.078a1.2 1.2 0 0 0 .109.078c.226-.102.441-.211.64-.328a3.262 3.262 0 0 0 .938-.844c.113-.164.219-.352.312-.563.114.23.25.43.407.594.164.156.332.29.5.39.164.118.332.216.5.298.164.086.332.164.5.234.05-.059.109-.117.171-.172.07-.058.141-.125.204-.187a4.673 4.673 0 0 1-.766-.297c-.25-.133-.48-.301-.688-.5A1.932 1.932 0 0 1 3-4.25 1.875 1.875 0 0 1 2.86-5v-.14h1.515v-.423H.797zm0 0"/></symbol><symbol overflow="visible" id="aF"><path d="M5.203-1.797a4.751 4.751 0 0 1-.531.078 8.67 8.67 0 0 1-.64.047c-.22.024-.43.04-.626.047a7.23 7.23 0 0 1-.437.016v-.672c.426-.04.758-.149 1-.328.246-.176.375-.38.375-.61a.645.645 0 0 0-.125-.375 1.26 1.26 0 0 0-.344-.328 2.321 2.321 0 0 0-.531-.203c-.2-.05-.418-.078-.656-.078-.25 0-.477.027-.672.078-.2.055-.38.129-.532.219a1.082 1.082 0 0 0-.343.297.687.687 0 0 0-.11.375c0 .242.125.457.375.64.258.18.61.285 1.047.313v.672H.391v.406h2.5c.226 0 .453-.004.671-.016a8.67 8.67 0 0 0 .641-.047c.195-.02.379-.039.547-.062.176-.02.328-.04.453-.063zm-3.64-1.437c0-.176.097-.317.296-.422.207-.114.485-.172.829-.172.351 0 .628.058.828.172.195.105.296.246.296.422 0 .18-.101.324-.296.437-.2.106-.477.156-.829.156-.343 0-.62-.05-.828-.156-.199-.113-.296-.258-.296-.437zm4.609 4.296V.625H2.078V-.703h-.5v1.765zm.766-4.187v-.438H5.921v-2.312h-.5v5.469h.5v-2.719zM3.655-5.5v-.39H1.703v.39zm.953.938v-.391H.72v.39zm0 0"/></symbol><symbol overflow="visible" id="aG"><path d="M6.844-3.719v-.437h-1v-1.719h-.5v5.281h.5v-3.125zm-.766 4.781V.625H2V-1.25h-.5v2.313zM1.25-5.109h2.719v-.422H.766v3.343h1.25c.207-.007.41-.019.609-.03.215 0 .441-.009.672-.032.238-.02.469-.04.687-.063.215-.027.414-.062.594-.093a6.34 6.34 0 0 0 .484-.094v-.438a2.635 2.635 0 0 1-.5.11c-.21.023-.433.05-.671.078-.243.031-.489.059-.735.078-.25.012-.48.016-.687.016l-1.219.031zm0 0"/></symbol><symbol overflow="visible" id="aH"><path d="M6.953-3.797v-.437H5.922v-1.641h-.484v4.328h.484v-2.25zM1.453-.03c0 .383.192.707.578.969.395.269.985.406 1.766.406.371 0 .703-.04.984-.11.29-.062.535-.164.735-.296.183-.118.328-.262.421-.438.102-.168.157-.348.157-.531 0-.371-.2-.696-.594-.969-.387-.27-.957-.406-1.703-.406-.399 0-.742.043-1.031.125-.293.074-.54.176-.735.297a1.18 1.18 0 0 0-.437.453c-.094.168-.14.336-.14.5zm.516.015c0-.289.16-.523.484-.703C2.785-.902 3.234-1 3.797-1c.527 0 .957.098 1.281.281.332.18.5.414.5.703 0 .133-.05.258-.14.375a1.303 1.303 0 0 1-.36.313 1.87 1.87 0 0 1-.562.203c-.22.05-.461.078-.72.078-.562 0-1.01-.098-1.343-.281C2.13.484 1.97.254 1.97-.016zM.797-5.109H2.28v.171c0 .336-.054.637-.156.907a2.747 2.747 0 0 1-1.016 1.328c-.25.18-.523.332-.812.453.027.023.062.05.094.078.039.031.082.067.125.094.039.031.078.066.109.094l.11.062c.195-.09.394-.203.593-.328a3.13 3.13 0 0 0 .531-.453c.145-.145.274-.305.391-.485a3.07 3.07 0 0 0 .281-.593c.09.199.203.379.328.531.121.148.258.285.407.406.175.149.359.278.546.39.184.118.376.224.563.313a.714.714 0 0 1 .156-.187c.07-.059.14-.125.203-.188a3.673 3.673 0 0 1-.75-.359 2.878 2.878 0 0 1-.64-.547 1.973 1.973 0 0 1-.406-.672 2.316 2.316 0 0 1-.141-.828v-.187H4.25v-.422H.797zm0 0"/></symbol><symbol overflow="visible" id="aL"><path d="M3.625-5.297v-.437h-2v.437zm.938 1.156v-.437H.719v.437zM5.171-.75c-.149.031-.32.059-.516.078-.199.012-.402.024-.61.031-.21.012-.417.024-.624.032-.2.011-.367.015-.5.015v-.89c.402-.028.734-.157.984-.375.246-.215.375-.461.375-.735a.813.813 0 0 0-.125-.422 1.823 1.823 0 0 0-.328-.375 2.419 2.419 0 0 0-.515-.234c-.2-.07-.415-.11-.641-.11-.25 0-.477.036-.672.094a1.932 1.932 0 0 0-.5.25 1.25 1.25 0 0 0-.328.375.871.871 0 0 0-.11.422.95.95 0 0 0 .36.75c.246.211.582.336 1 .375v.89H.39v.423h2.25c.226 0 .46-.004.703-.016.246-.008.484-.023.703-.047.226-.008.437-.023.625-.047.195-.02.363-.039.5-.062zm-3.64-1.844c0-.207.1-.379.312-.515.215-.145.492-.22.828-.22.332 0 .601.075.812.22.207.148.313.32.313.515 0 .219-.106.399-.313.531-.21.126-.48.188-.812.188-.336 0-.613-.063-.828-.188-.211-.132-.313-.312-.313-.53zm3.874-3.281v7.094h.5V-2.47h1.047v-.453H5.906v-2.953zm0 0"/></symbol><symbol overflow="visible" id="aM"><path d="M3.766-4.406a2.098 2.098 0 0 0-.282-.578 2.35 2.35 0 0 0-.359-.407 1.716 1.716 0 0 0-.406-.203 1.138 1.138 0 0 0-.39-.078c-.188 0-.384.05-.579.14-.188.087-.367.231-.531.438-.168.211-.305.489-.407.828C.708-3.922.656-3.496.656-3c0 .492.051.91.156 1.25.102.344.235.621.391.828a1.364 1.364 0 0 0 1.125.61c.133 0 .27-.02.406-.063.145-.05.286-.129.422-.234.121-.102.239-.239.344-.407.113-.164.207-.363.281-.593h1.781v2.828h.5v-7.094h-.5v1.469zm1.796.437v1.922H3.875c.027-.133.055-.281.078-.437a4.108 4.108 0 0 0 0-1.032 8.281 8.281 0 0 0-.078-.453zM1.141-3c0-.29.023-.57.078-.844.05-.27.129-.508.234-.719.09-.207.211-.375.36-.5a.782.782 0 0 1 .515-.187c.195 0 .363.066.5.188.145.125.27.292.375.5.09.21.164.449.219.718a4.612 4.612 0 0 1 0 1.703 3.552 3.552 0 0 1-.219.72 1.54 1.54 0 0 1-.375.5.741.741 0 0 1-.5.171.79.79 0 0 1-.515-.172 1.28 1.28 0 0 1-.36-.5 2.633 2.633 0 0 1-.234-.719A4.314 4.314 0 0 1 1.14-3zm0 0"/></symbol></defs><g fill="#393536"><use xlink:href="#a" x="535.245" y="48.426"/><use xlink:href="#b" x="540.818" y="48.426"/><use xlink:href="#c" x="546.392" y="48.426"/></g><g fill="#4f4c4d"><use xlink:href="#d" x="336.961" y="47.727"/><use xlink:href="#e" x="344.962" y="47.727"/><use xlink:href="#f" x="352.962" y="47.727"/><use xlink:href="#g" x="360.962" y="47.727"/><use xlink:href="#h" x="368.962" y="47.727"/><use xlink:href="#i" x="371.569" y="47.727"/><use xlink:href="#j" x="379.57" y="47.727"/><use xlink:href="#k" x="387.57" y="47.727"/><use xlink:href="#l" x="395.57" y="47.727"/><use xlink:href="#m" x="403.57" y="47.727"/><use xlink:href="#n" x="411.571" y="47.727"/><use xlink:href="#d" x="419.571" y="47.727"/><use xlink:href="#e" x="427.571" y="47.727"/></g><use xlink:href="#o" x="435.571" y="47.727" fill="#231f20"/><g fill="#231f20"><use xlink:href="#p" x="438.177" y="47.727"/><use xlink:href="#q" x="446.178" y="47.727"/><use xlink:href="#r" x="454.178" y="47.727"/><use xlink:href="#s" x="462.178" y="47.727"/><use xlink:href="#t" x="470.178" y="47.727"/><use xlink:href="#u" x="478.179" y="47.727"/><use xlink:href="#v" x="486.179" y="47.727"/><use xlink:href="#w" x="494.179" y="47.727"/><use xlink:href="#x" x="496.786" y="47.727"/></g><g fill="#231f20"><use xlink:href="#y" x="501.703" y="47.727"/><use xlink:href="#z" x="506.503" y="47.727"/><use xlink:href="#A" x="508.436" y="47.727"/><use xlink:href="#w" x="511.043" y="47.727"/><use xlink:href="#B" x="513.65" y="47.727"/><use xlink:href="#C" x="517.605" y="47.727"/></g><g clip-path="url(#D)"><path d="M-610.125 410.852H620.031" fill="none" stroke-width=".499395" stroke="#cabfbb" stroke-dasharray="2.003,2.003"/></g><use xlink:href="#E" x="384.336" y="636.174" fill="#8a8e98"/><g fill="#33459a"><use xlink:href="#F" x="393.84" y="636.774"/><use xlink:href="#G" x="405.376" y="636.774"/><use xlink:href="#H" x="416.912" y="636.774"/></g><g fill="#231f20"><use xlink:href="#I" x="384.336" y="653.358"/><use xlink:href="#J" x="391.234" y="653.358"/><use xlink:href="#K" x="398.132" y="653.358"/><use xlink:href="#L" x="405.03" y="653.358"/><use xlink:href="#M" x="411.928" y="653.358"/><use xlink:href="#N" x="418.826" y="653.358"/><use xlink:href="#O" x="425.724" y="653.358"/><use xlink:href="#P" x="427.971" y="653.358"/><use xlink:href="#Q" x="434.869" y="653.358"/></g><use xlink:href="#I" x="384.336" y="665.76" fill="#231f20"/><use xlink:href="#O" x="391.234" y="665.76" fill="#231f20"/><use xlink:href="#O" x="391.234" y="665.76" fill="#231f20"/><g fill="#231f20"><use xlink:href="#R" x="391.234" y="665.76"/><use xlink:href="#S" x="398.132" y="665.76"/><use xlink:href="#T" x="405.03" y="665.76"/><use xlink:href="#N" x="411.928" y="665.76"/><use xlink:href="#U" x="418.826" y="665.76"/><use xlink:href="#V" x="425.724" y="665.76"/><use xlink:href="#W" x="432.622" y="665.76"/><use xlink:href="#O" x="439.52" y="665.76"/><use xlink:href="#X" x="441.768" y="665.76"/><use xlink:href="#L" x="448.666" y="665.76"/><use xlink:href="#Y" x="455.564" y="665.76"/><use xlink:href="#Z" x="462.462" y="665.76"/><use xlink:href="#aa" x="469.36" y="665.76"/><use xlink:href="#W" x="476.258" y="665.76"/><use xlink:href="#O" x="483.156" y="665.76"/><use xlink:href="#U" x="485.403" y="665.76"/><use xlink:href="#ab" x="492.301" y="665.76"/></g><use xlink:href="#E" x="210.5" y="639.673" fill="#8a8e98"/><g fill="#33459a"><use xlink:href="#ac" x="220.004" y="640.272"/><use xlink:href="#ad" x="231.54" y="640.272"/><use xlink:href="#ae" x="243.076" y="640.272"/></g><g fill="#231f20"><use xlink:href="#I" x="210.5" y="656.856"/><use xlink:href="#af" x="217.398" y="656.856"/><use xlink:href="#ag" x="224.296" y="656.856"/><use xlink:href="#N" x="231.194" y="656.856"/><use xlink:href="#O" x="238.092" y="656.856"/><use xlink:href="#P" x="240.34" y="656.856"/><use xlink:href="#Q" x="247.238" y="656.856"/></g><g fill="#231f20"><use xlink:href="#I" x="210.5" y="669.258"/><use xlink:href="#ah" x="217.398" y="669.258"/><use xlink:href="#ai" x="224.296" y="669.258"/><use xlink:href="#ah" x="231.194" y="669.258"/><use xlink:href="#aj" x="238.092" y="669.258"/><use xlink:href="#ak" x="244.99" y="669.258"/><use xlink:href="#al" x="247.431" y="669.258"/><use xlink:href="#am" x="254.329" y="669.258"/><use xlink:href="#an" x="261.227" y="669.258"/><use xlink:href="#O" x="263.661" y="669.258"/><use xlink:href="#ao" x="265.909" y="669.258"/><use xlink:href="#ap" x="272.807" y="669.258"/><use xlink:href="#O" x="279.705" y="669.258"/><use xlink:href="#aq" x="281.952" y="669.258"/><use xlink:href="#ar" x="288.85" y="669.258"/></g><use xlink:href="#E" x="214.464" y="326.506" fill="#8a8e98"/><g fill="#33459a"><use xlink:href="#as" x="223.968" y="327.106"/><use xlink:href="#at" x="235.504" y="327.106"/><use xlink:href="#au" x="247.04" y="327.106"/></g><g fill="#231f20"><use xlink:href="#I" x="214.464" y="343.689"/><use xlink:href="#av" x="221.362" y="343.689"/><use xlink:href="#N" x="228.26" y="343.689"/><use xlink:href="#O" x="235.158" y="343.689"/><use xlink:href="#P" x="237.405" y="343.689"/><use xlink:href="#Q" x="244.303" y="343.689"/></g><use xlink:href="#I" x="214.464" y="356.092" fill="#231f20"/><use xlink:href="#O" x="221.362" y="356.092" fill="#231f20"/><use xlink:href="#O" x="221.362" y="356.092" fill="#231f20"/><g fill="#231f20"><use xlink:href="#R" x="221.362" y="356.092"/><use xlink:href="#S" x="228.26" y="356.092"/><use xlink:href="#T" x="235.158" y="356.092"/><use xlink:href="#N" x="242.056" y="356.092"/><use xlink:href="#U" x="248.954" y="356.092"/><use xlink:href="#O" x="255.852" y="356.092"/><use xlink:href="#K" x="258.099" y="356.092"/><use xlink:href="#Z" x="264.997" y="356.092"/><use xlink:href="#aw" x="271.895" y="356.092"/><use xlink:href="#N" x="278.793" y="356.092"/><use xlink:href="#T" x="285.691" y="356.092"/><use xlink:href="#N" x="292.589" y="356.092"/><use xlink:href="#O" x="299.487" y="356.092"/><use xlink:href="#L" x="301.735" y="356.092"/><use xlink:href="#Y" x="308.633" y="356.092"/><use xlink:href="#aw" x="315.531" y="356.092"/><use xlink:href="#N" x="322.429" y="356.092"/><use xlink:href="#ax" x="329.327" y="356.092"/><use xlink:href="#O" x="336.225" y="356.092"/><use xlink:href="#U" x="338.473" y="356.092"/><use xlink:href="#ab" x="345.371" y="356.092"/></g><g fill="#231f20"><use xlink:href="#I" x="214.464" y="368.494"/><use xlink:href="#ay" x="221.362" y="368.494"/><use xlink:href="#az" x="228.26" y="368.494"/><use xlink:href="#al" x="235.158" y="368.494"/><use xlink:href="#aA" x="242.056" y="368.494"/><use xlink:href="#aB" x="248.954" y="368.494"/><use xlink:href="#aC" x="255.852" y="368.494"/><use xlink:href="#O" x="262.75" y="368.494"/><use xlink:href="#aD" x="264.997" y="368.494"/><use xlink:href="#O" x="271.895" y="368.494"/><use xlink:href="#aE" x="274.143" y="368.494"/><use xlink:href="#aF" x="281.041" y="368.494"/><use xlink:href="#O" x="287.939" y="368.494"/><use xlink:href="#Z" x="290.187" y="368.494"/><use xlink:href="#aa" x="297.085" y="368.494"/><use xlink:href="#aG" x="303.983" y="368.494"/><use xlink:href="#O" x="310.881" y="368.494"/><use xlink:href="#aG" x="313.128" y="368.494"/><use xlink:href="#aH" x="320.026" y="368.494"/></g><use xlink:href="#E" x="384.619" y="326.117" fill="#8a8e98"/><g fill="#33459a"><use xlink:href="#aI" x="394.123" y="326.716"/><use xlink:href="#aJ" x="405.659" y="326.716"/><use xlink:href="#aK" x="417.195" y="326.716"/></g><g fill="#231f20"><use xlink:href="#I" x="384.619" y="343.3"/><use xlink:href="#ab" x="391.517" y="343.3"/><use xlink:href="#X" x="398.415" y="343.3"/><use xlink:href="#N" x="405.313" y="343.3"/><use xlink:href="#O" x="412.211" y="343.3"/><use xlink:href="#P" x="414.459" y="343.3"/><use xlink:href="#Q" x="421.357" y="343.3"/></g><use xlink:href="#I" x="384.619" y="355.702" fill="#231f20"/><use xlink:href="#O" x="391.517" y="355.702" fill="#231f20"/><use xlink:href="#O" x="391.517" y="355.702" fill="#231f20"/><g fill="#231f20"><use xlink:href="#av" x="391.517" y="355.702"/><use xlink:href="#aL" x="398.415" y="355.702"/><use xlink:href="#aM" x="405.313" y="355.702"/><use xlink:href="#K" x="412.211" y="355.702"/><use xlink:href="#T" x="419.109" y="355.702"/><use xlink:href="#N" x="426.007" y="355.702"/><use xlink:href="#U" x="432.905" y="355.702"/><use xlink:href="#O" x="439.803" y="355.702"/><use xlink:href="#K" x="442.051" y="355.702"/><use xlink:href="#Z" x="448.949" y="355.702"/><use xlink:href="#aw" x="455.847" y="355.702"/><use xlink:href="#N" x="462.745" y="355.702"/><use xlink:href="#T" x="469.643" y="355.702"/><use xlink:href="#N" x="476.541" y="355.702"/><use xlink:href="#O" x="483.439" y="355.702"/><use xlink:href="#L" x="485.686" y="355.702"/><use xlink:href="#Y" x="492.584" y="355.702"/><use xlink:href="#aw" x="499.482" y="355.702"/><use xlink:href="#N" x="506.38" y="355.702"/><use xlink:href="#aw" x="513.278" y="355.702"/><use xlink:href="#O" x="520.176" y="355.702"/><use xlink:href="#U" x="522.424" y="355.702"/><use xlink:href="#ab" x="529.322" y="355.702"/></g></svg>