<svg xmlns="http://www.w3.org/2000/svg" xmlns:xlink="http://www.w3.org/1999/xlink" width="793.701" height="1058.268" viewBox="0 0 595.276 793.701" version="1.2"><defs><symbol overflow="visible" id="a"><path d="M7.422 1.36v-7.985h-.734v2.938h-.954V-6.5H5V.984h.734v-3.953h.954V1.36zM2.938-4.626v-.813H4.28v-.625H.813v.625h1.359v.688c0 .48-.043.926-.125 1.328a4.915 4.915 0 0 1-.344 1.125 3.87 3.87 0 0 1-.64.938c-.25.28-.551.539-.891.765.05.043.11.086.172.125.07.031.133.067.187.094a17.48 17.48 0 0 0 .328.234c.176-.12.352-.28.532-.468.175-.196.347-.407.515-.625.145-.196.274-.407.39-.625a3.29 3.29 0 0 0 .25-.672c.052.219.13.43.235.625a4.693 4.693 0 0 0 .844 1.078c.164.156.332.289.5.39a1 1 0 0 1 .266-.25l.125-.125.156-.125a3.154 3.154 0 0 1-.797-.656 3.326 3.326 0 0 1-.547-.86 5.18 5.18 0 0 1-.297-.983 7.006 7.006 0 0 1-.094-1.188zm0 0"/></symbol><symbol overflow="visible" id="b"><path d="M6.078-6.625V-.75h.75v-3.266h1.11v-.64h-1.11v-1.969zm-.344 3.234a5.189 5.189 0 0 1-.562.094c-.242.031-.496.067-.766.094a19.67 19.67 0 0 1-.812.078 8.224 8.224 0 0 1-.703.031l-1.313.016v-2.547H4.61v-.64H.844v3.843H2.25c.227-.008.422-.015.578-.015.258-.008.531-.024.813-.047.277-.02.55-.047.812-.079.258-.027.5-.062.719-.093a3.59 3.59 0 0 0 .562-.11zm1.344 4.594v-.64H2.422v-2.016h-.75v2.656zm0 0"/></symbol><symbol overflow="visible" id="c"><path d="M7.11-2.313v-4.312h-.75v1.578H4.624v-1.312h-.719v1.187h-2.25v-1.187H.922v3.687h3.703V-4.39h1.734v2.079zm-3.204-1h-2.25V-4.53h2.25zM7.11 1.282v-3.234h-.75v.922H2.547v-.922h-.75V1.28zm-.75-.61H2.547V-.405h3.812zm0 0"/></symbol><symbol overflow="visible" id="d"><path d="M7.11-.75v-5.875h-.75V-.75zM.61-4.406c0 .281.05.554.156.812.101.25.242.477.421.672.196.18.422.324.672.438.258.117.551.171.875.171.301 0 .582-.054.844-.171.258-.114.485-.258.672-.438.184-.195.332-.422.438-.672a2.21 2.21 0 0 0 .156-.812c0-.29-.055-.563-.157-.813a2.292 2.292 0 0 0-.437-.687 2.083 2.083 0 0 0-.672-.438 2.102 2.102 0 0 0-.844-.172c-.324 0-.617.059-.875.172-.25.106-.476.254-.671.438-.18.199-.32.43-.422.687-.106.25-.157.524-.157.813zm.765 0c0-.403.113-.75.344-1.032.238-.289.578-.437 1.015-.437.426 0 .758.148 1 .438.239.28.36.628.36 1.03 0 .4-.121.739-.36 1.016-.242.282-.574.422-1 .422-.437 0-.777-.14-1.015-.422-.23-.277-.344-.617-.344-1.015zm5.969 5.61V.562H2.562v-1.985h-.75v2.625zm0 0"/></symbol><symbol overflow="visible" id="f"><path d="M7.047 1.36v-7.985H6.28v7.984zM4.687-.657v-5.469H.97v5.469zm-.734-.64H1.72V-5.47h2.234zm0 0"/></symbol><symbol overflow="visible" id="g"><path d="M7.203 1.36v-7.985H6.47v2.844h-.985V-6.5H4.75V.984h.734v-4.046h.985v4.421zm-2.75-2.75c-.094.023-.21.042-.344.062-.136.023-.289.039-.453.047-.168.023-.336.039-.5.047H2.72l-1.063.015V-3.03h2.157v-3.125H.921v.64h2.172v1.844H.922v3.11l1.547-.016c.383 0 .765-.02 1.14-.063.371-.039.657-.078.844-.109zm0 0"/></symbol><symbol overflow="visible" id="h"><path d="M7.203 1.36v-7.985h-.75v7.984zM1.031-4.376a1.965 1.965 0 0 0 .578 1.406c.196.188.426.336.688.438.258.105.547.156.86.156.3 0 .581-.05.843-.156.258-.102.484-.25.672-.438a1.92 1.92 0 0 0 .437-.625c.114-.246.172-.508.172-.781 0-.27-.058-.523-.172-.766a2.006 2.006 0 0 0-.437-.625A2.182 2.182 0 0 0 4-6.187a2.102 2.102 0 0 0-.844-.172c-.312 0-.601.058-.86.171a2.308 2.308 0 0 0-.687.422 1.961 1.961 0 0 0-.578 1.391zm.735 0c0-.371.117-.691.359-.953.246-.27.594-.406 1.031-.406.426 0 .758.136 1 .406.239.262.36.582.36.953 0 .375-.121.7-.36.969-.242.261-.574.39-1 .39-.437 0-.785-.129-1.031-.39a1.399 1.399 0 0 1-.36-.969zm4.406 3.016a7.804 7.804 0 0 1-.688.093c-.28.032-.586.059-.906.079-.324.023-.637.042-.937.062a8.814 8.814 0 0 1-.688.031 4.92 4.92 0 0 1-.515.016H.609v.656s.086.008.266.016h1.266c.214 0 .367-.004.453-.016.363 0 .722-.008 1.078-.031.351-.02.687-.047 1-.078.308-.028.594-.063.844-.094a9.75 9.75 0 0 0 .656-.094zm0 0"/></symbol><symbol overflow="visible" id="i"><path d="M8.047-3.813v-.671H6.922v-2.141h-.766V-1.5h.766v-2.313zM4.14-6.046v-.594H1.687v.594zm1.14 1.203v-.593H.594v.593zM.921-3.078c0 .18.048.351.141.515.102.157.239.293.407.407.183.125.398.226.64.297.246.062.52.093.813.093.621 0 1.117-.125 1.484-.375.364-.257.547-.57.547-.937 0-.363-.183-.676-.547-.938-.355-.257-.847-.39-1.468-.39-.305 0-.583.039-.829.11-.25.062-.464.16-.64.28-.18.118-.317.258-.407.422-.093.168-.14.34-.14.516zm.782-.016c0-.215.11-.39.328-.515.227-.133.531-.204.906-.204.383 0 .688.067.907.188.215.125.328.305.328.531 0 .23-.113.414-.328.547-.219.137-.524.203-.906.203-.376 0-.68-.062-.907-.187a.625.625 0 0 1-.328-.563zm5.219 4.5v-2.515h-5.36v.625h4.579v1.89zm0 0"/></symbol><symbol overflow="visible" id="j"><path d="M7.11-.75v-5.875h-.75v.922H4.421a2.105 2.105 0 0 0-1.703-.844 2.076 2.076 0 0 0-1.531.64 1.962 1.962 0 0 0-.438.673c-.094.261-.14.535-.14.812 0 .293.046.57.14.828.102.25.25.477.438.672.183.188.41.34.671.453.258.106.547.156.86.156.37 0 .71-.078 1.015-.234.309-.164.555-.383.735-.656h1.89V-.75zm-.75-3.11H4.75a1.39 1.39 0 0 0 .063-.265c.019-.102.03-.203.03-.297a1.73 1.73 0 0 0-.03-.312 1.769 1.769 0 0 0-.063-.313h1.61zm-4.985-.562c0-.402.113-.75.344-1.031.238-.29.57-.438 1-.438.433 0 .77.149 1 .438.238.281.36.629.36 1.031 0 .406-.122.754-.36 1.031-.23.282-.567.422-1 .422-.43 0-.762-.14-1-.422-.23-.277-.344-.625-.344-1.03zm5.953 5.625v-.64H2.562v-1.985h-.75v2.625zm0 0"/></symbol><symbol overflow="visible" id="k"><path d="M7.781-2.156v-.64H6.484c.051-.227.098-.49.141-.782l.125-.906c.027-.32.055-.641.078-.954.027-.32.05-.625.063-.906H1.156v.64h4.938c-.024.481-.07.974-.14 1.47-.063.492-.15.972-.25 1.437H.265v.64h3.312V1.36h.75v-3.515zm0 0"/></symbol><symbol overflow="visible" id="m"><path d="M3.813-4.36v-.015h1.593v-.813h-4.25v.813h1.578v.016c-.023.18-.086.351-.187.515a2.406 2.406 0 0 1-.406.453c-.211.168-.446.317-.704.438a4.476 4.476 0 0 1-.796.297c.113.105.238.226.375.36.144.124.257.241.343.343.207-.07.407-.16.594-.266a4.05 4.05 0 0 0 .547-.344c.164-.113.316-.238.453-.374.133-.145.242-.29.328-.438.09.156.207.3.344.422.145.125.3.246.469.36.164.116.336.214.515.296.176.086.344.149.5.188.059-.09.145-.204.25-.329.114-.12.227-.242.344-.359-.2-.039-.41-.11-.625-.203a3.041 3.041 0 0 1-.594-.375 2.077 2.077 0 0 1-.453-.453 1.053 1.053 0 0 1-.218-.531zm2.25 3.126a6.179 6.179 0 0 1-.594.078c-.219.023-.446.039-.672.047-.219.011-.43.023-.625.03a7.116 7.116 0 0 1-.422.016V-2.25h-.969v1.203H.562v.86h1.844c.29 0 .614-.004.969-.016A22.94 22.94 0 0 0 4.422-.25c.34-.02.656-.04.937-.063.29-.019.524-.046.704-.078zm1.25 2.609v-8.016h-.954v8.016zm-2.86-7.11v-.796H2.016v.797zm0 0"/></symbol><symbol overflow="visible" id="n"><path d="M7.203-.75v-5.89h-.969v5.89zM3.328-5.39v-1.094H2.297v1.125c0 .304-.055.59-.156.859-.094.262-.23.496-.407.703-.199.262-.433.496-.703.703-.273.2-.558.367-.86.5.134.106.274.223.423.344.152.125.273.23.36.313.175-.09.359-.208.546-.344a5.69 5.69 0 0 0 .547-.453c.164-.153.316-.329.453-.516.145-.184.25-.375.313-.563.101.2.234.383.39.547.152.168.32.325.5.47.152.136.32.26.5.374.176.117.344.211.5.281.07-.101.164-.222.281-.359.121-.133.239-.266.344-.39a2.993 2.993 0 0 1-.75-.376 2.764 2.764 0 0 1-.64-.578 2.758 2.758 0 0 1-.454-.719 2.17 2.17 0 0 1-.156-.828zm4.063 6.609V.375H2.766v-1.734h-1v2.578zm0 0"/></symbol><symbol overflow="visible" id="o"><path d="M7.781-2.063v-.843h-3.25v-.906h2.39v-.829H2.204v-.984h4.64v-.828H1.235v2.64h2.297v.907H.281v.844zm-3.75 3.594c.965 0 1.707-.152 2.219-.453.508-.305.766-.676.766-1.11 0-.445-.258-.816-.766-1.109-.512-.289-1.254-.437-2.219-.437-.98 0-1.726.148-2.234.437-.512.293-.766.664-.766 1.11 0 .433.254.804.766 1.11.508.3 1.254.452 2.234.452zM2.156-.047c0-.246.16-.441.485-.578.332-.133.796-.203 1.39-.203.57 0 1.024.074 1.36.219.332.136.5.332.5.578 0 .246-.168.441-.5.578C5.055.68 4.6.75 4.03.75c-.593 0-1.058-.074-1.39-.219C2.316.395 2.156.2 2.156-.047zm0 0"/></symbol><symbol overflow="visible" id="p"><path d="M7.906-2.875v-.828H6.875v-.922h1.031v-.828H6.875v-1.188h-.969v5.063h.969v-1.297zM4.063-5.953v-.734H1.578v.734zm1.125 1.219v-.735H.468v.735zM.702-3.188c0 .18.05.348.156.5.114.149.266.274.454.376.183.117.41.21.671.28.258.063.54.095.844.095.645 0 1.16-.118 1.547-.36.383-.238.578-.539.578-.906 0-.34-.195-.629-.578-.86-.375-.226-.887-.343-1.531-.343-.313 0-.602.035-.86.093a2.298 2.298 0 0 0-.671.266c-.188.106-.34.238-.454.39a.794.794 0 0 0-.156.47zm3.235-.015c0 .2-.102.348-.297.437-.2.094-.465.141-.797.141-.344 0-.617-.047-.813-.14-.199-.09-.297-.235-.297-.422 0-.176.098-.317.297-.422.196-.102.469-.157.813-.157.332 0 .597.055.797.157.195.093.296.23.296.406zM7.046 0a.949.949 0 0 0-.219-.61 1.8 1.8 0 0 0-.578-.484 3.32 3.32 0 0 0-.922-.297A5.637 5.637 0 0 0 4.203-1.5c-.406 0-.789.04-1.14.11-.344.062-.649.16-.907.28a1.688 1.688 0 0 0-.61.47.927.927 0 0 0-.218.609c0 .238.067.453.203.64.145.196.348.364.61.5.257.133.562.235.906.297.351.07.734.11 1.14.11a6.6 6.6 0 0 0 1.11-.094 3.32 3.32 0 0 0 .922-.297c.258-.125.46-.285.61-.469.144-.187.218-.41.218-.656zm-4.64-.016c0-.132.046-.25.14-.343.101-.102.238-.18.406-.235a2.49 2.49 0 0 1 .563-.125c.214-.027.441-.047.671-.047.489 0 .899.067 1.235.188.34.125.516.316.516.562 0 .133-.055.25-.157.344a1.49 1.49 0 0 1-.375.25c-.168.059-.355.11-.562.14-.211.028-.426.048-.64.048-.243 0-.474-.02-.688-.047a2.957 2.957 0 0 1-.563-.14.952.952 0 0 1-.406-.25.472.472 0 0 1-.14-.345zm0 0"/></symbol><symbol overflow="visible" id="q"><path d="M7.797.484v-.843H4.53V-2h2.282v-4.422h-.97v1.313h-3.64v-1.313h-.969V-2h2.282v1.64H.28v.844zM5.844-2.844h-3.64v-1.422h3.64zm0 0"/></symbol><symbol overflow="visible" id="r"><path d="M1.078-6.203v.828h4.766c-.024.637-.074 1.3-.157 1.984-.085.68-.183 1.336-.296 1.97h.968l.172-1.141c.059-.415.114-.833.157-1.25.05-.426.093-.844.125-1.25.027-.415.054-.797.078-1.141zM7.797.484v-.843H3.844v-2.985h-.985v2.985H.281v.843zm0 0"/></symbol><symbol overflow="visible" id="s"><path d="M7.203 1.375v-8.016H6.22v2.313H4.53v.906H6.22v4.797zm-3.89-5.938v-1.765H2.296v1.719c0 .406-.05.793-.14 1.156-.087.355-.212.683-.376.984-.187.356-.43.68-.718.969a4.889 4.889 0 0 1-.97.75c.145.094.29.207.438.328.153.117.281.223.375.313.176-.114.364-.258.563-.438.195-.183.39-.39.578-.61a7.06 7.06 0 0 0 .453-.64 2.62 2.62 0 0 0 .313-.656c.09.23.21.457.359.672.152.218.32.426.5.61.164.187.336.362.515.515.176.148.348.273.516.375a5.852 5.852 0 0 1 .719-.656 5.685 5.685 0 0 1-.922-.704 3.572 3.572 0 0 1-.688-.89 3.265 3.265 0 0 1-.374-.922 4.443 4.443 0 0 1-.126-1.11zm0 0"/></symbol><symbol overflow="visible" id="u"><path d="M2.766-.547L1.125-6.125H.109L2.266.672h.968l2.172-6.797H4.391zm0 0"/></symbol><symbol overflow="visible" id="v"><path d="M2.438-3.688c.382 0 .675.18.874.532.196.355.297.82.297 1.39 0 .586-.101 1.051-.296 1.391-.2.344-.493.516-.876.516-.374 0-.664-.172-.859-.516-.187-.34-.281-.805-.281-1.39 0-.57.094-1.036.281-1.391.195-.352.484-.531.86-.531zm0-.75c-.7 0-1.227.247-1.579.735-.343.492-.515 1.137-.515 1.937C.344-.96.516-.32.859.156c.352.477.88.719 1.579.719.695 0 1.226-.242 1.593-.719.364-.476.547-1.117.547-1.922 0-.8-.183-1.445-.547-1.937-.367-.488-.898-.735-1.593-.735zm0 0"/></symbol><symbol overflow="visible" id="w"><path d="M.563-6.125V.672h.906v-6.797zm0 0"/></symbol><symbol overflow="visible" id="x"><path d="M.64-.047v1.203h1.25V-.047zm0 0"/></symbol><symbol overflow="visible" id="y"><path d="M2-6.25c-.605 0-1.059.324-1.36.969C.349-4.645.204-3.77.204-2.656c0 1.117.145 1.992.438 2.625.3.62.754.937 1.359.937.602 0 1.055-.316 1.36-.937.308-.633.468-1.508.468-2.625 0-1.114-.16-1.989-.469-2.625C3.055-5.926 2.602-6.25 2-6.25zm0 .797c.27 0 .488.258.656.766.164.5.25 1.18.25 2.03 0 .845-.086 1.52-.25 2.016-.168.5-.386.75-.656.75-.273 0-.488-.25-.64-.75-.157-.496-.235-1.171-.235-2.015 0-.852.078-1.531.234-2.031.153-.508.368-.766.641-.766zm0 0"/></symbol><symbol overflow="visible" id="z"><path d="M2.906-2.063c-.054.688-.18 1.231-.375 1.626-.187.386-.41.578-.656.578-.219 0-.395-.114-.516-.329a1.565 1.565 0 0 1-.203-.75H.25C.25-.344.395.113.688.438c.3.32.703.485 1.203.485.351 0 .656-.106.906-.313.258-.199.46-.476.61-.828.152-.351.269-.77.343-1.25.07-.476.11-1 .11-1.562 0-.477-.04-.914-.11-1.313a3.483 3.483 0 0 0-.344-1.015c-.148-.278-.34-.5-.578-.657a1.42 1.42 0 0 0-.844-.25c-.562 0-1.011.223-1.343.657-.336.437-.5 1.023-.5 1.75 0 .398.047.738.14 1.015.102.281.235.512.39.688.153.187.337.324.548.406.207.086.414.125.625.125a1.7 1.7 0 0 0 .562-.094c.184-.058.352-.176.5-.343zm-.953-.359c-.273 0-.488-.14-.64-.422-.157-.277-.235-.656-.235-1.125 0-.445.078-.812.234-1.094.153-.277.368-.421.641-.421.238 0 .445.148.625.437.176.281.266.645.266 1.078 0 .469-.09.848-.266 1.125-.168.281-.379.422-.625.422zm0 0"/></symbol><symbol overflow="visible" id="A"><path d="M3.422-7.313a.124.124 0 0 0-.031-.078.119.119 0 0 0-.079-.062.133.133 0 0 0-.078 0 .589.589 0 0 0-.078.047l-1.844.828a.934.934 0 0 0-.218.078c-.086.043-.125.102-.125.172 0 .043.008.082.031.11a.143.143 0 0 0 .094.03c.05 0 .113-.015.187-.046.07-.028.133-.051.188-.063l.687-.312c.051-.02.102-.04.156-.063a.364.364 0 0 1 .172-.047c.07 0 .118.024.141.063.02.043.031.097.031.156v5.078c0 .367-.043.617-.125.75-.074.125-.316.188-.719.188-.25 0-.414.011-.484.03-.074.013-.11.052-.11.11 0 .063.016.106.048.125.027.024.082.032.156.032h3.094c.058 0 .109-.008.14-.032.028-.02.047-.054.047-.11 0-.058-.02-.1-.047-.124a.278.278 0 0 0-.14-.031h-.329c-.375 0-.601-.079-.671-.235-.063-.164-.094-.41-.094-.734zm0 0"/></symbol><symbol overflow="visible" id="B"><path d="M1.672.344c-.012.02-.008.031.016.031.019.008.035.016.046.016h.172c.082 0 .13-.028.14-.079.02-.042.052-.105.095-.187l3.125-7.047c.02-.027.039-.066.062-.11a.385.385 0 0 0 .031-.124c0-.082-.054-.125-.156-.125C5.11-7.29 5.04-7.297 5-7.297H.5c-.074 0-.121.024-.14.063a.329.329 0 0 0-.032.156l.047.61c.008.011.016.042.016.093.007.055.03.078.062.078.02 0 .04-.004.063-.016l.046-.046c.114-.028.204-.051.266-.063.07-.008.164-.016.281-.016h3.235c.05 0 .097.012.14.032.051.023.079.066.079.125 0 .031-.02.082-.047.14a.712.712 0 0 0-.063.157zm0 0"/></symbol><symbol overflow="visible" id="C"><path d="M5.578 0l-3.75-3.516L5.562-7h-.625l-3.5 3.313V-7H1v7h.438v-3.297L4.905 0zm0 0"/></symbol><symbol overflow="visible" id="D"><path d="M1.406-6.734c0-.235-.11-.329-.328-.329-.219 0-.328.094-.328.329 0 .218.11.343.328.343.219 0 .328-.125.328-.343zM1.296 0v-5.016H.86V0zm0 0"/></symbol><symbol overflow="visible" id="E"><path d="M7.438 0v-3.031c0-.781.125-2.063-1.594-2.063-.61 0-1.282.219-1.594.907-.203-.704-.813-.907-1.469-.907-.61 0-1.219.203-1.515.797v-.719H.859V0h.438v-2.203c0-1.125-.094-2.469 1.437-2.469 1.125 0 1.188.61 1.188 1.625V0h.437v-2.203c0-1.188-.046-2.453 1.454-2.453 1.14 0 1.187.593 1.187 1.61V0zm0 0"/></symbol><symbol overflow="visible" id="G"><path d="M1.281.156v-.781H.86v.781c0 .438-.015.656-.343.969l-.188.203.266.281.265-.234c.36-.328.422-.625.422-1.219zm0 0"/></symbol><symbol overflow="visible" id="H"><path d="M5.656-5.11C5.656-7 4.672-7 3.188-7H1v7h.438v-3.234h1.75c1.468 0 2.468-.032 2.468-1.875zm-.453-.015c0 1.547-.812 1.469-2.062 1.469H1.437v-2.922h1.704c1.234 0 2.062-.063 2.062 1.453zm0 0"/></symbol><symbol overflow="visible" id="I"><path d="M4.625 0v-2.922c0-1.14.14-2.172-1.875-2.172-1.016 0-2.031.219-2.031 1.453h.406c0-.937.828-1.03 1.547-1.03 1.625 0 1.515.609 1.515 1.702H2.47c-1.156 0-1.875.235-1.875 1.547 0 1.063.562 1.5 1.812 1.5.906 0 1.547-.281 1.813-.86V0zm-.438-2.563c.032 1.391-.14 2.235-1.812 2.235-.984 0-1.344-.328-1.344-1.094 0-1 .532-1.14 1.39-1.14zm0 0"/></symbol><symbol overflow="visible" id="J"><path d="M4.281-3.656c0-1.016-.562-1.438-1.5-1.438-.578 0-1.156.157-1.515.813v-.735H.859V0h.438v-2.172c0-1.125-.094-2.5 1.437-2.5.72 0 1.141.219 1.141 1.016zm0 0"/></symbol><symbol overflow="visible" id="K"><path d="M4.531 0L1.703-2.688 4.5-5.015h-.61L1.298-2.859v-4.454H.859V0h.438v-2.531L3.922 0zm0 0"/></symbol><symbol overflow="visible" id="L"><path d="M5.64 0v-7h-.437v3.188H1.437V-7H1v7h.438v-3.39h3.765V0zm0 0"/></symbol><symbol overflow="visible" id="M"><path d="M8.36-7h-.438L6.406-.656 4.703-7h-.531L2.469-.656.969-7H.516l1.656 7h.547l1.719-6.39L6.14 0h.53zm0 0"/></symbol><symbol overflow="visible" id="N"><path d="M7.328 0v-7h-.61L4.173-.5 1.594-7H1v7h.422v-6.344L3.922 0h.469l2.5-6.344V0zm0 0"/></symbol><symbol overflow="visible" id="O"><path d="M4.844-2.5c0-1.5-.14-2.594-2.094-2.594C.797-5.094.672-4 .672-2.5.672-1 .797.078 2.75.078 4.703.078 4.844-1 4.844-2.5zm-.438 0c0 1.406-.093 2.14-1.656 2.14-1.547 0-1.64-.734-1.64-2.14 0-1.406.093-2.172 1.64-2.172 1.563 0 1.656.766 1.656 2.172zm0 0"/></symbol><symbol overflow="visible" id="P"><path d="M4.672 0v-2.672c0-.953.031-1.547-.406-2-.266-.281-.704-.422-1.36-.422-.64 0-1.297.188-1.64.844v-.766H.859V0h.438v-2.219c0-1.156-.078-2.453 1.61-2.453.452 0 .796.094 1.015.313.328.312.312.78.312 1.765V0zm0 0"/></symbol><symbol overflow="visible" id="Q"><path d="M5.078 0v-.422H1.453V-3.39H4.97v-.421H1.453v-2.766h3.625V-7H1v7zm0 0"/></symbol><symbol overflow="visible" id="R"><path d="M4.422-2.156V-7h-.453v4.86c0 1.187-.219 1.78-1.531 1.78C1.359-.36.843-.624.843-1.78H.422c0 1.422.687 1.86 2.015 1.86 1.594 0 1.985-.782 1.985-2.235zm0 0"/></symbol><symbol overflow="visible" id="S"><path d="M5.719-1.922c0-.734-.14-1.453-.922-1.672.687-.219.86-.953.86-1.61C5.656-7.062 4.53-7 3.202-7H1v7h2.266c1.453 0 2.453-.016 2.453-1.922zm-.5-3.328c0 1.5-.813 1.469-2.016 1.469H1.438v-2.797H3.14c1.187 0 2.078-.125 2.078 1.328zm.047 3.36c0 1.562-.797 1.468-2.079 1.468h-1.75V-3.39h1.75c1.344 0 2.079-.046 2.079 1.5zm0 0"/></symbol><symbol overflow="visible" id="T"><path d="M4.719-2.469c0-1.656-.188-2.625-2.016-2.625C.891-5.094.672-4.14.672-2.5.672-.812.922.078 2.719.078c.984 0 1.922-.281 1.922-1.453h-.407c0 .875-.796 1.016-1.5 1.016-1.515 0-1.625-.72-1.625-2.11zm-.422-.406H1.109c0-1.219.329-1.797 1.594-1.797 1.266 0 1.594.547 1.594 1.797zm0 0"/></symbol><symbol overflow="visible" id="U"><path d="M5.719-2.016c0-1.765-1.125-1.765-2.485-1.78-1.093-.017-2.046.093-2.046-1.329 0-1.406.812-1.516 2-1.516 1.078 0 2.046.063 2.046 1.438h.422c0-1.64-1.093-1.86-2.453-1.86C1.75-7.063.75-6.827.75-5.109c0 1.765 1.125 1.718 2.469 1.75 1.203.015 2.047-.079 2.047 1.375C5.266-.578 4.453-.36 3.25-.36c-1.11 0-2.063-.063-2.063-1.422H.75c0 1.64 1.11 1.86 2.469 1.86 1.484 0 2.5-.392 2.5-2.095zm0 0"/></symbol><symbol overflow="visible" id="V"><path d="M5.719-1.781h-.422C5.297-.72 4.859-.36 3.344-.36c-2.11 0-2.063-1.079-2.063-3.125 0-2.079-.047-3.157 2.063-3.157 1.515 0 1.953.36 1.953 1.438h.422c0-1.375-.657-1.86-2.297-1.86C.828-7.063.828-5.734.828-3.483c0 2.234 0 3.562 2.594 3.562 1.64 0 2.297-.5 2.297-1.86zm0 0"/></symbol><symbol overflow="visible" id="W"><path d="M4.672 0v-2.672c0-.953.031-1.531-.406-2-.266-.281-.72-.422-1.36-.422-.64 0-1.265.172-1.61.813v-3.032H.86V0h.438v-2.219c0-1.156-.078-2.453 1.61-2.453.452 0 .796.094 1.015.313.328.312.312.78.312 1.765V0zm0 0"/></symbol><symbol overflow="visible" id="X"><path d="M4.75-.453v-4.563h-.422v.735c-.312-.547-.875-.813-1.719-.813C.766-5.094.672-3.969.672-2.562.672-1 .812.015 2.609.015 3.453.016 4-.266 4.313-.813 4.296-.234 4.39.391 4.14.923c-.25.531-.829.687-1.5.687-.938 0-1.438-.312-1.438-1.015H.781c.016 1.015.735 1.437 1.89 1.437.845 0 1.548-.234 1.86-.937.172-.375.219-.797.219-1.547zm-.422-2.094c0 1.64-.469 2.11-1.766 2.11-1.406 0-1.453-.891-1.453-2.11 0-1.203.047-2.125 1.454-2.125 1.312 0 1.765.516 1.765 2.125zm0 0"/></symbol><symbol overflow="visible" id="Y"><path d="M5.922-3.5c0-2.125.078-3.563-2.547-3.563S.828-5.625.828-3.5.75.078 3.375.078 5.922-1.375 5.922-3.5zm-.453.016c0 2.03.078 3.125-2.094 3.125-2.172 0-2.094-1.094-2.094-3.125 0-2.047-.078-3.157 2.094-3.157 2.172 0 2.094 1.11 2.094 3.157zm0 0"/></symbol><symbol overflow="visible" id="Z"><path d="M5.188-7h-.485L2.672-3.516.609-7h-.5l2.313 3.922V0h.437v-3.078zm0 0"/></symbol><symbol overflow="visible" id="aa"><path d="M1.406-.281c0-.25-.11-.36-.343-.36-.235 0-.344.11-.344.36 0 .234.11.36.344.36.234 0 .343-.126.343-.36zm0 0"/></symbol><symbol overflow="visible" id="ab"><path d="M5.14-6.578V-7H.314v.422H2.5V0h.453v-6.578zm0 0"/></symbol><symbol overflow="visible" id="ac"><path d="M4.297-6.219c0-.875-.75-1.156-1.61-1.156-.546 0-.984.094-1.28.39-.25.25-.345.579-.345 1.048v.921H.25v.407h.813V0H1.5v-4.61h2.188v-.406H1.5v-.921c0-.844.469-1.016 1.203-1.016.516 0 1.188.094 1.188.734zm0 0"/></symbol><symbol overflow="visible" id="ad"><path d="M4.656-1.375h-.422c0 .89-.78 1.016-1.484 1.016-1.563 0-1.64-.766-1.64-2.157 0-1.406.077-2.156 1.64-2.156.703 0 1.484.156 1.484 1.031h.422c0-1.171-.937-1.453-1.922-1.453C.922-5.094.672-4.187.672-2.5.672-.812.906.078 2.734.078c.985 0 1.922-.266 1.922-1.453zm0 0"/></symbol><symbol overflow="visible" id="ae"><path d="M4.188-1.375H3.78c0 .75-.36 1.031-1.14 1.031-.75 0-1.11-.219-1.11-1.031v-3.234h2.25v-.407h-2.25V-7h-.437v1.984H.266v.407h.828v3.234c0 1.078.531 1.453 1.531 1.453.969 0 1.563-.39 1.563-1.453zm0 0"/></symbol><symbol overflow="visible" id="af"><path d="M4.594 0v-5.016h-.438v2.235c0 1.14.078 2.437-1.61 2.437-.452 0-.796-.094-1.015-.312-.328-.313-.328-.781-.328-1.766v-2.594H.766v2.672c0 .953-.016 1.547.421 2 .266.281.704.422 1.36.422.64 0 1.281-.187 1.64-.828V0zm0 0"/></symbol><symbol overflow="visible" id="ag"><path d="M5.672-3.516V-7h-.453v3.484c0 1.36.015 1.985-.219 2.422-.25.453-.766.735-1.703.735-.938 0-1.469-.282-1.719-.735-.234-.422-.187-1.062-.187-2.422V-7H.937v3.484c0 .579-.046 1.875.157 2.422C1.39-.297 2.14.078 3.297.078c1.062 0 1.687-.312 2.047-.906.375-.594.328-1.672.328-2.688zm0 0"/></symbol><symbol overflow="visible" id="ah"><path d="M4.938-2.5c0-1.547-.172-2.594-1.954-2.594-.843 0-1.375.266-1.687.813v-3.032H.859V0h.407v-.75c.28.484.796.828 1.718.828C4.766.078 4.938-.938 4.938-2.5zm-.438 0c0 1.203-.047 2.14-1.453 2.14C1.734-.36 1.28-.874 1.28-2.5c0-1.656.453-2.156 1.766-2.156 1.39 0 1.453.922 1.453 2.156zm0 0"/></symbol><symbol overflow="visible" id="ai"><path d="M1.297 0v-7.313H.859V0zm0 0"/></symbol><symbol overflow="visible" id="aj"><path d="M4.766 0v-7.313h-.438v3.032c-.328-.547-.844-.813-1.703-.813C.828-5.094.672-4.016.672-2.5.672-.937.828.078 2.625.078c.844 0 1.406-.281 1.719-.828V0zm-.438-2.5c0 1.656-.437 2.14-1.75 2.14C1.156-.36 1.11-1.28 1.11-2.5c0-1.25.079-2.156 1.47-2.156 1.312 0 1.75.5 1.75 2.156zm0 0"/></symbol><symbol overflow="visible" id="ak"><path d="M3.922-2.313v-.406H.953v.406zm0 0"/></symbol><symbol overflow="visible" id="al"><path d="M5.875-3.5c0-1.547-.094-2.125-.375-2.64C5.11-6.767 4.531-7 3.297-7H1v7h2.297C4.53 0 5.109-.219 5.5-.86c.281-.5.375-1.093.375-2.64zm-.438 0c0 1.516-.109 2.078-.359 2.469-.281.437-.719.61-1.844.61H1.438v-6.157h1.796c1.125 0 1.563.156 1.844.61.25.39.36.952.36 2.468zm0 0"/></symbol><symbol overflow="visible" id="am"><path d="M4.438-5.016h-.454l-1.64 4.5-1.672-4.5H.219L2.079 0h.5zm0 0"/></symbol><symbol overflow="visible" id="an"><path d="M4.484-1.422c0-1.5-1.093-1.234-2.406-1.375-.719-.078-.969-.172-.953-.937 0-.688.422-.938 1.547-.938 1.078 0 1.39.313 1.39 1.016h.407c0-.453-.11-.797-.313-1.016-.281-.297-.765-.422-1.484-.422C1.312-5.109.687-4.75.687-3.656c0 1.484 1.016 1.234 2.36 1.36.812.077 1 .25 1 .905 0 .766-.453 1.047-1.563 1.047-1.125 0-1.468-.25-1.468-1.031H.609C.61-.281 1.156.063 2.484.078c1.344 0 2-.406 2-1.5zm0 0"/></symbol><symbol overflow="visible" id="ao"><path d="M4.36-5.016h-.47L2.376-.578.797-5.016H.328l1.813 5L1.406 2h.438zm0 0"/></symbol><symbol overflow="visible" id="ap"><path d="M1.438 0v-7H1v7zm0 0"/></symbol><symbol overflow="visible" id="aq"><path d="M5.656 0v-1.61c0-.671.11-1.687-.875-1.937.703-.203.875-.86.875-1.562C5.656-7.063 4.61-7 3.188-7H1v7h.438v-3.328H3.14c1.921 0 2.078.125 2.078 1.75V0zM5.22-5.14c0 1.5-.813 1.39-2.016 1.39H1.438v-2.828H3.14c1.218 0 2.078-.078 2.078 1.437zm0 0"/></symbol><symbol overflow="visible" id="ar"><path d="M4.36 0L2.577-2.547l1.75-2.469h-.516L2.329-2.89.86-5.016H.33L2.062-2.53.296 0h.516l1.5-2.188L3.827 0zm0 0"/></symbol><symbol overflow="visible" id="as"><path d="M4.938-2.5c0-1.563-.172-2.594-1.954-2.594-.843 0-1.406.297-1.718.844v-.766H.859V2h.438V-.734c.312.546.844.812 1.687.812C4.781.078 4.938-.953 4.938-2.5zM4.5-2.516c0 1.204-.047 2.157-1.453 2.157-1.313 0-1.766-.5-1.766-2.157 0-1.64.453-2.14 1.766-2.14 1.406 0 1.453.937 1.453 2.14zm0 0"/></symbol><symbol overflow="visible" id="at"><path d="M5.625 0v-7h-.438v6.344L1.547-7H1v7h.438v-6.36L5.063 0zm0 0"/></symbol><symbol overflow="visible" id="au"><path d="M4.875-5.125c0-.75-.156-1.234-.516-1.531-.328-.282-.875-.407-1.515-.407-1.281 0-1.985.36-1.985 1.47h.438c0-.798.5-1.048 1.578-1.048.766 0 1.219.188 1.406.594.11.234.157.531.157.922 0 .516-.11.844-.344 1.094-.375.437-1.438.672-2.032.906C1.345-2.844.86-2.437.86-1.531V0h4v-.422H1.297v-.906c0-.75.125-1.063.875-1.39.547-.235 1.719-.485 2.219-.97.343-.343.484-.796.484-1.437zm0 0"/></symbol><symbol overflow="visible" id="av"><path d="M4.922-3.484c0-1.766-.047-2.235-.25-2.657-.313-.64-.89-.921-1.828-.921-.938 0-1.516.28-1.813.921-.203.422-.25.891-.25 2.657 0 1.53.031 2.03.172 2.421.25.782.875 1.141 1.89 1.141 1.032 0 1.657-.36 1.923-1.14.125-.391.156-.891.156-2.422zm-.438 0c0 1.53-.046 2.062-.203 2.421-.203.485-.61.72-1.437.72-.813 0-1.219-.235-1.438-.72-.14-.359-.187-.89-.187-2.421 0-1.344.047-1.938.14-2.266.188-.61.594-.89 1.485-.89.906 0 1.312.28 1.5.89.093.328.14.922.14 2.266zm0 0"/></symbol><symbol overflow="visible" id="aw"><path d="M4.328 0v-.422h-1.64V-7h-.422L.562-5.437l.282.296L2.25-6.437v6.015H.594V0zm0 0"/></symbol><symbol overflow="visible" id="ax"><path d="M4.906-2.125c0-1.453-.422-2.25-1.953-2.25-.719 0-1.281.172-1.547.531v-2.734h3.282V-7H.983v3.969h.407c.03-.625.546-.922 1.546-.922 1.329 0 1.532.64 1.532 1.86 0 1.327-.407 1.734-1.657 1.734-1.078 0-1.515-.266-1.515-1.063H.875c0 1.125.672 1.5 1.938 1.5 1.546 0 2.093-.64 2.093-2.203zm0 0"/></symbol><symbol overflow="visible" id="ay"><path d="M1.406-4.734c0-.25-.11-.36-.343-.36-.235 0-.344.11-.344.36 0 .234.11.359.344.359.234 0 .343-.125.343-.36zM1.281.156v-.781H.86v.781c0 .438-.015.656-.343.969l-.188.203.266.281.265-.234c.36-.328.422-.625.422-1.219zm0 0"/></symbol><symbol overflow="visible" id="az"><path d="M5.031-2.094V-2.5h-1V-7h-.453L.547-2.5v.406h3.047V0h.437v-2.094zM3.594-2.5H1.063l2.53-3.797zm0 0"/></symbol><symbol overflow="visible" id="aA"><path d="M2.563 2v-.406c-.891 0-1.188-.25-1.376-.719C1 .359.829-1.265.829-3.219c0-1.953.172-3.594.36-4.11.187-.468.484-.718 1.375-.718v-.406c-1.063 0-1.594.312-1.844 1.14C.53-6.64.406-5.124.406-3.202.406-1.297.531.187.72.859.969 1.703 1.5 2 2.563 2zm0 0"/></symbol><symbol overflow="visible" id="aB"><path d="M2.563-3.203c0-1.922-.126-3.438-.313-4.11C2-8.14 1.469-8.453.406-8.453v.406c.89 0 1.188.25 1.375.719.188.516.36 2.156.36 4.11 0 1.952-.172 3.577-.36 4.093-.187.469-.484.719-1.375.719V2C1.47 2 2 1.703 2.25.86c.188-.672.313-2.157.313-4.063zm0 0"/></symbol><symbol overflow="visible" id="aC"><path d="M1.406-4.734c0-.25-.11-.36-.343-.36-.235 0-.344.11-.344.36 0 .234.11.359.344.359.234 0 .343-.125.343-.36zm0 4.453c0-.25-.11-.36-.343-.36-.235 0-.344.11-.344.36 0 .234.11.36.344.36.234 0 .343-.126.343-.36zm0 0"/></symbol><symbol overflow="visible" id="aD"><path d="M4.906-2.14c0-1.61-.547-2.235-1.984-2.235-.86 0-1.39.344-1.688.906 0-.64-.015-1.703.157-2.281.187-.625.609-.89 1.53-.89.97 0 1.454.327 1.454 1.046h.422c0-1.047-.703-1.468-1.875-1.468-1.188 0-1.844.421-2 1.39-.094.516-.14 1.36-.14 2.469 0 1 .077 1.719.218 2.14.266.735.938 1.141 1.89 1.141 1.407 0 2.016-.687 2.016-2.219zm-.437.015c0 1.297-.438 1.766-1.594 1.766-1.11 0-1.61-.532-1.61-1.829 0-1.187.563-1.765 1.72-1.765 1.109 0 1.484.437 1.484 1.828zm0 0"/></symbol><symbol overflow="visible" id="aE"><path d="M5.031 0v-.422H1.438V-7H1v7zm0 0"/></symbol><symbol overflow="visible" id="aF"><path d="M5.031-6.578V-7H1v7h.438v-3.39h3.5v-.422h-3.5v-2.766zm0 0"/></symbol><symbol overflow="visible" id="aG"><path d="M4.938-1.89c0-1.063-.313-1.563-1.047-1.75.828-.235.984-.813.984-1.641 0-1.313-.563-1.782-2.016-1.782S.844-6.593.844-5.28c0 .875.14 1.406.984 1.64-.719.188-1.047.688-1.047 1.75 0 1.5.672 1.97 2.078 1.97 1.407 0 2.079-.47 2.079-1.97zm-.5-3.36c0 1.188-.485 1.406-1.579 1.406-1.093 0-1.578-.234-1.578-1.437 0-1.047.344-1.36 1.578-1.36 1.22 0 1.579.313 1.579 1.391zM4.5-1.86c0 1.266-.484 1.5-1.64 1.5-1.188 0-1.641-.234-1.641-1.515 0-1.313.453-1.547 1.64-1.547 1.157 0 1.641.281 1.641 1.563zm0 0"/></symbol><symbol overflow="visible" id="aH"><path d="M4.344-6.578V-7H.297v.422h3.578L.906 0h.485zm0 0"/></symbol><symbol overflow="visible" id="aI"><path d="M6.75-5.016h-.438L5.063-.578l-1.28-4.438h-.5L2-.578.75-5.016H.297L1.734 0h.516l1.281-4.453L4.797 0h.516zm0 0"/></symbol><symbol overflow="visible" id="aJ"><path d="M5.906 0L3.313-7h-.47L.267 0h.453L1.5-2.14h3.14L5.439 0zM4.484-2.531H1.656l1.422-3.922zm0 0"/></symbol><symbol overflow="visible" id="aK"><path d="M4.828-1.906c0-.953-.234-1.532-1-1.735.766-.234.938-.875.938-1.64 0-1.313-.563-1.782-2.016-1.782-1.313 0-2.016.36-2.016 1.47h.422c0-.782.5-1.048 1.594-1.048 1.219 0 1.578.313 1.578 1.391 0 1.188-.516 1.406-1.578 1.406h-.953v.422h.953c.625 0 .969.063 1.234.266.282.219.407.594.407 1.281 0 1.25-.516 1.531-1.672 1.531-1.078 0-1.563-.281-1.563-1.078H.734c0 1.172.797 1.5 1.985 1.5 1.406 0 2.11-.469 2.11-1.984zm0 0"/></symbol></defs><g fill="#4f4c4d"><use xlink:href="#a" x="336.961" y="47.727"/><use xlink:href="#b" x="344.962" y="47.727"/><use xlink:href="#c" x="352.962" y="47.727"/><use xlink:href="#d" x="360.962" y="47.727"/><use xlink:href="#e" x="368.962" y="47.727"/><use xlink:href="#f" x="371.569" y="47.727"/><use xlink:href="#g" x="379.57" y="47.727"/><use xlink:href="#h" x="387.57" y="47.727"/><use xlink:href="#i" x="395.57" y="47.727"/><use xlink:href="#j" x="403.57" y="47.727"/><use xlink:href="#k" x="411.571" y="47.727"/><use xlink:href="#a" x="419.571" y="47.727"/><use xlink:href="#b" x="427.571" y="47.727"/></g><use xlink:href="#l" x="435.571" y="47.727" fill="#231f20"/><g fill="#231f20"><use xlink:href="#m" x="438.177" y="47.727"/><use xlink:href="#n" x="446.178" y="47.727"/><use xlink:href="#o" x="454.178" y="47.727"/><use xlink:href="#p" x="462.178" y="47.727"/><use xlink:href="#q" x="470.178" y="47.727"/><use xlink:href="#r" x="478.179" y="47.727"/><use xlink:href="#s" x="486.179" y="47.727"/><use xlink:href="#t" x="494.179" y="47.727"/><use xlink:href="#u" x="496.786" y="47.727"/></g><g fill="#231f20"><use xlink:href="#v" x="501.703" y="47.727"/><use xlink:href="#w" x="506.503" y="47.727"/><use xlink:href="#x" x="508.436" y="47.727"/><use xlink:href="#t" x="511.043" y="47.727"/><use xlink:href="#y" x="513.65" y="47.727"/><use xlink:href="#z" x="517.605" y="47.727"/></g><g fill="#393536"><use xlink:href="#A" x="535.245" y="48.426"/><use xlink:href="#B" x="540.818" y="48.426"/><use xlink:href="#A" x="546.392" y="48.426"/></g><g fill="#231f20"><use xlink:href="#C" x="94.845" y="163.658"/><use xlink:href="#D" x="100.562" y="163.658"/><use xlink:href="#E" x="102.607" y="163.658"/><use xlink:href="#F" x="110.715" y="163.658"/><use xlink:href="#C" x="113.359" y="163.658"/><use xlink:href="#G" x="119.076" y="163.658"/><use xlink:href="#F" x="121.091" y="163.658"/><use xlink:href="#H" x="123.736" y="163.658"/><use xlink:href="#I" x="129.758" y="163.658"/><use xlink:href="#J" x="135.058" y="163.658"/><use xlink:href="#K" x="139.361" y="163.658"/><use xlink:href="#F" x="143.979" y="163.658"/><use xlink:href="#L" x="146.624" y="163.658"/><use xlink:href="#M" x="153.165" y="163.658"/><use xlink:href="#G" x="161.934" y="163.658"/><use xlink:href="#F" x="163.948" y="163.658"/><use xlink:href="#N" x="166.593" y="163.658"/><use xlink:href="#O" x="174.822" y="163.658"/><use xlink:href="#O" x="180.234" y="163.658"/><use xlink:href="#P" x="185.646" y="163.658"/><use xlink:href="#F" x="190.997" y="163.658"/><use xlink:href="#L" x="193.642" y="163.658"/><use xlink:href="#Q" x="200.183" y="163.658"/><use xlink:href="#G" x="206.012" y="163.658"/><use xlink:href="#F" x="208.026" y="163.658"/><use xlink:href="#C" x="210.671" y="163.658"/><use xlink:href="#D" x="216.388" y="163.658"/><use xlink:href="#E" x="218.432" y="163.658"/><use xlink:href="#F" x="226.54" y="163.658"/><use xlink:href="#R" x="229.185" y="163.658"/><use xlink:href="#M" x="234.434" y="163.658"/><use xlink:href="#G" x="243.203" y="163.658"/><use xlink:href="#F" x="245.217" y="163.658"/><use xlink:href="#S" x="247.862" y="163.658"/><use xlink:href="#I" x="254.332" y="163.658"/><use xlink:href="#T" x="259.632" y="163.658"/><use xlink:href="#F" x="264.921" y="163.658"/><use xlink:href="#U" x="267.566" y="163.658"/><use xlink:href="#G" x="273.934" y="163.658"/><use xlink:href="#F" x="275.949" y="163.658"/><use xlink:href="#V" x="278.593" y="163.658"/><use xlink:href="#W" x="284.951" y="163.658"/><use xlink:href="#I" x="290.302" y="163.658"/><use xlink:href="#P" x="295.602" y="163.658"/><use xlink:href="#X" x="300.953" y="163.658"/><use xlink:href="#F" x="306.456" y="163.658"/><use xlink:href="#R" x="309.101" y="163.658"/><use xlink:href="#M" x="314.35" y="163.658"/><use xlink:href="#G" x="323.119" y="163.658"/><use xlink:href="#F" x="325.133" y="163.658"/><use xlink:href="#Y" x="327.778" y="163.658"/><use xlink:href="#W" x="334.441" y="163.658"/><use xlink:href="#F" x="339.792" y="163.658"/><use xlink:href="#M" x="342.437" y="163.658"/><use xlink:href="#G" x="351.206" y="163.658"/><use xlink:href="#F" x="353.22" y="163.658"/><use xlink:href="#Z" x="355.865" y="163.658"/><use xlink:href="#I" x="361.063" y="163.658"/><use xlink:href="#P" x="366.363" y="163.658"/><use xlink:href="#X" x="371.714" y="163.658"/><use xlink:href="#F" x="377.217" y="163.658"/><use xlink:href="#Z" x="379.862" y="163.658"/><use xlink:href="#U" x="385.06" y="163.658"/><use xlink:href="#G" x="391.428" y="163.658"/><use xlink:href="#F" x="393.442" y="163.658"/><use xlink:href="#H" x="396.087" y="163.658"/><use xlink:href="#I" x="402.109" y="163.658"/><use xlink:href="#T" x="407.409" y="163.658"/><use xlink:href="#K" x="412.699" y="163.658"/><use xlink:href="#F" x="417.318" y="163.658"/><use xlink:href="#U" x="419.962" y="163.658"/><use xlink:href="#L" x="426.33" y="163.658"/><use xlink:href="#aa" x="432.871" y="163.658"/><use xlink:href="#F" x="434.886" y="163.658"/><use xlink:href="#ab" x="437.531" y="163.658"/><use xlink:href="#W" x="442.881" y="163.658"/><use xlink:href="#T" x="448.232" y="163.658"/><use xlink:href="#F" x="453.522" y="163.658"/><use xlink:href="#Q" x="456.167" y="163.658"/><use xlink:href="#ac" x="461.996" y="163.658"/><use xlink:href="#ac" x="466.299" y="163.658"/><use xlink:href="#T" x="470.602" y="163.658"/><use xlink:href="#ad" x="475.892" y="163.658"/><use xlink:href="#ae" x="481.029" y="163.658"/><use xlink:href="#F" x="485.372" y="163.658"/></g><g fill="#231f20"><use xlink:href="#O" x="94.845" y="178.639"/><use xlink:href="#ac" x="100.257" y="178.639"/><use xlink:href="#F" x="104.56" y="178.639"/><use xlink:href="#L" x="107.205" y="178.639"/><use xlink:href="#af" x="113.746" y="178.639"/><use xlink:href="#E" x="119.097" y="178.639"/><use xlink:href="#I" x="127.204" y="178.639"/><use xlink:href="#P" x="132.504" y="178.639"/><use xlink:href="#F" x="137.855" y="178.639"/><use xlink:href="#ag" x="140.5" y="178.639"/><use xlink:href="#E" x="147" y="178.639"/><use xlink:href="#ah" x="155.108" y="178.639"/><use xlink:href="#D" x="160.621" y="178.639"/><use xlink:href="#ai" x="162.666" y="178.639"/><use xlink:href="#D" x="164.711" y="178.639"/><use xlink:href="#ad" x="166.756" y="178.639"/><use xlink:href="#I" x="171.893" y="178.639"/><use xlink:href="#ai" x="177.193" y="178.639"/><use xlink:href="#F" x="179.237" y="178.639"/><use xlink:href="#V" x="181.882" y="178.639"/><use xlink:href="#O" x="188.24" y="178.639"/><use xlink:href="#J" x="193.652" y="178.639"/><use xlink:href="#aj" x="197.955" y="178.639"/><use xlink:href="#F" x="203.469" y="178.639"/><use xlink:href="#S" x="206.113" y="178.639"/><use xlink:href="#ai" x="212.583" y="178.639"/><use xlink:href="#O" x="214.628" y="178.639"/><use xlink:href="#O" x="220.04" y="178.639"/><use xlink:href="#aj" x="225.452" y="178.639"/><use xlink:href="#ak" x="230.965" y="178.639"/><use xlink:href="#al" x="235.746" y="178.639"/><use xlink:href="#T" x="242.359" y="178.639"/><use xlink:href="#J" x="247.648" y="178.639"/><use xlink:href="#D" x="251.951" y="178.639"/><use xlink:href="#am" x="253.996" y="178.639"/><use xlink:href="#T" x="258.543" y="178.639"/><use xlink:href="#aj" x="263.833" y="178.639"/><use xlink:href="#F" x="269.346" y="178.639"/><use xlink:href="#N" x="271.991" y="178.639"/><use xlink:href="#T" x="280.221" y="178.639"/><use xlink:href="#an" x="285.511" y="178.639"/><use xlink:href="#T" x="290.506" y="178.639"/><use xlink:href="#P" x="295.795" y="178.639"/><use xlink:href="#ad" x="301.146" y="178.639"/><use xlink:href="#W" x="306.283" y="178.639"/><use xlink:href="#ao" x="311.634" y="178.639"/><use xlink:href="#E" x="316.161" y="178.639"/><use xlink:href="#I" x="324.269" y="178.639"/><use xlink:href="#ai" x="329.568" y="178.639"/><use xlink:href="#F" x="331.613" y="178.639"/><use xlink:href="#U" x="334.258" y="178.639"/><use xlink:href="#ae" x="340.626" y="178.639"/><use xlink:href="#T" x="344.97" y="178.639"/><use xlink:href="#E" x="350.26" y="178.639"/><use xlink:href="#F" x="358.367" y="178.639"/><use xlink:href="#V" x="361.012" y="178.639"/><use xlink:href="#T" x="367.37" y="178.639"/><use xlink:href="#ai" x="372.66" y="178.639"/><use xlink:href="#ai" x="374.704" y="178.639"/><use xlink:href="#an" x="376.749" y="178.639"/><use xlink:href="#F" x="381.744" y="178.639"/><use xlink:href="#D" x="384.389" y="178.639"/><use xlink:href="#P" x="386.433" y="178.639"/><use xlink:href="#F" x="391.784" y="178.639"/><use xlink:href="#I" x="394.429" y="178.639"/><use xlink:href="#F" x="399.729" y="178.639"/><use xlink:href="#V" x="402.374" y="178.639"/><use xlink:href="#O" x="408.732" y="178.639"/><use xlink:href="#ai" x="414.144" y="178.639"/><use xlink:href="#ai" x="416.188" y="178.639"/><use xlink:href="#I" x="418.233" y="178.639"/><use xlink:href="#X" x="423.533" y="178.639"/><use xlink:href="#T" x="429.036" y="178.639"/><use xlink:href="#P" x="434.326" y="178.639"/><use xlink:href="#I" x="439.677" y="178.639"/><use xlink:href="#an" x="444.977" y="178.639"/><use xlink:href="#T" x="449.972" y="178.639"/><use xlink:href="#ak" x="455.261" y="178.639"/><use xlink:href="#ap" x="460.043" y="178.639"/><use xlink:href="#P" x="462.382" y="178.639"/><use xlink:href="#aj" x="467.733" y="178.639"/><use xlink:href="#af" x="473.247" y="178.639"/><use xlink:href="#ad" x="478.597" y="178.639"/><use xlink:href="#T" x="483.735" y="178.639"/><use xlink:href="#aj" x="489.024" y="178.639"/><use xlink:href="#F" x="494.538" y="178.639"/></g><g fill="#231f20"><use xlink:href="#ap" x="94.845" y="193.621"/><use xlink:href="#P" x="97.185" y="193.621"/><use xlink:href="#ae" x="102.536" y="193.621"/><use xlink:href="#J" x="106.879" y="193.621"/><use xlink:href="#I" x="111.182" y="193.621"/><use xlink:href="#ad" x="116.482" y="193.621"/><use xlink:href="#T" x="121.62" y="193.621"/><use xlink:href="#J" x="126.909" y="193.621"/><use xlink:href="#T" x="131.212" y="193.621"/><use xlink:href="#ah" x="136.502" y="193.621"/><use xlink:href="#J" x="142.016" y="193.621"/><use xlink:href="#I" x="146.319" y="193.621"/><use xlink:href="#ai" x="151.619" y="193.621"/><use xlink:href="#F" x="153.663" y="193.621"/><use xlink:href="#L" x="156.308" y="193.621"/><use xlink:href="#T" x="162.849" y="193.621"/><use xlink:href="#E" x="168.139" y="193.621"/><use xlink:href="#O" x="176.247" y="193.621"/><use xlink:href="#J" x="181.658" y="193.621"/><use xlink:href="#J" x="185.961" y="193.621"/><use xlink:href="#W" x="190.264" y="193.621"/><use xlink:href="#I" x="195.615" y="193.621"/><use xlink:href="#X" x="200.915" y="193.621"/><use xlink:href="#T" x="206.419" y="193.621"/><use xlink:href="#F" x="211.708" y="193.621"/><use xlink:href="#aq" x="214.353" y="193.621"/><use xlink:href="#I" x="220.803" y="193.621"/><use xlink:href="#ae" x="226.103" y="193.621"/><use xlink:href="#F" x="230.446" y="193.621"/><use xlink:href="#N" x="233.091" y="193.621"/><use xlink:href="#O" x="241.321" y="193.621"/><use xlink:href="#aj" x="246.733" y="193.621"/><use xlink:href="#T" x="252.246" y="193.621"/><use xlink:href="#ai" x="257.536" y="193.621"/><use xlink:href="#aa" x="259.581" y="193.621"/><use xlink:href="#F" x="261.595" y="193.621"/><use xlink:href="#Q" x="264.24" y="193.621"/><use xlink:href="#ar" x="270.069" y="193.621"/><use xlink:href="#as" x="274.616" y="193.621"/><use xlink:href="#F" x="280.129" y="193.621"/><use xlink:href="#at" x="282.774" y="193.621"/><use xlink:href="#T" x="289.295" y="193.621"/><use xlink:href="#af" x="294.585" y="193.621"/><use xlink:href="#J" x="299.936" y="193.621"/><use xlink:href="#O" x="304.239" y="193.621"/><use xlink:href="#ah" x="309.65" y="193.621"/><use xlink:href="#D" x="315.164" y="193.621"/><use xlink:href="#O" x="317.209" y="193.621"/><use xlink:href="#ai" x="322.621" y="193.621"/><use xlink:href="#aa" x="324.665" y="193.621"/><use xlink:href="#F" x="326.679" y="193.621"/><use xlink:href="#au" x="329.324" y="193.621"/><use xlink:href="#av" x="334.818" y="193.621"/><use xlink:href="#aw" x="340.423" y="193.621"/><use xlink:href="#ax" x="344.878" y="193.621"/><use xlink:href="#ay" x="350.494" y="193.621"/><use xlink:href="#au" x="352.508" y="193.621"/><use xlink:href="#az" x="358.001" y="193.621"/><use xlink:href="#aA" x="363.515" y="193.621"/><use xlink:href="#au" x="366.383" y="193.621"/><use xlink:href="#aB" x="371.876" y="193.621"/><use xlink:href="#aC" x="374.745" y="193.621"/><use xlink:href="#aw" x="376.759" y="193.621"/><use xlink:href="#az" x="381.215" y="193.621"/><use xlink:href="#aD" x="386.728" y="193.621"/><use xlink:href="#ak" x="392.313" y="193.621"/><use xlink:href="#ax" x="397.094" y="193.621"/><use xlink:href="#ax" x="402.71" y="193.621"/><use xlink:href="#aa" x="408.325" y="193.621"/></g><g fill="#231f20"><use xlink:href="#C" x="94.845" y="215.433"/><use xlink:href="#D" x="100.562" y="215.433"/><use xlink:href="#E" x="102.607" y="215.433"/><use xlink:href="#F" x="110.715" y="215.433"/><use xlink:href="#Q" x="113.359" y="215.433"/><use xlink:href="#U" x="119.188" y="215.433"/><use xlink:href="#G" x="125.556" y="215.433"/><use xlink:href="#F" x="127.571" y="215.433"/><use xlink:href="#R" x="130.215" y="215.433"/><use xlink:href="#T" x="135.465" y="215.433"/><use xlink:href="#O" x="140.754" y="215.433"/><use xlink:href="#P" x="146.166" y="215.433"/><use xlink:href="#F" x="151.517" y="215.433"/><use xlink:href="#L" x="154.162" y="215.433"/><use xlink:href="#S" x="160.703" y="215.433"/><use xlink:href="#G" x="167.173" y="215.433"/><use xlink:href="#F" x="169.187" y="215.433"/><use xlink:href="#aE" x="171.832" y="215.433"/><use xlink:href="#D" x="176.908" y="215.433"/><use xlink:href="#E" x="178.953" y="215.433"/><use xlink:href="#F" x="187.06" y="215.433"/><use xlink:href="#L" x="189.705" y="215.433"/><use xlink:href="#G" x="196.246" y="215.433"/><use xlink:href="#F" x="198.26" y="215.433"/><use xlink:href="#U" x="200.905" y="215.433"/><use xlink:href="#W" x="207.273" y="215.433"/><use xlink:href="#D" x="212.624" y="215.433"/><use xlink:href="#P" x="214.669" y="215.433"/><use xlink:href="#F" x="220.019" y="215.433"/><use xlink:href="#R" x="222.664" y="215.433"/><use xlink:href="#L" x="227.913" y="215.433"/><use xlink:href="#G" x="234.454" y="215.433"/><use xlink:href="#F" x="236.469" y="215.433"/><use xlink:href="#H" x="239.113" y="215.433"/><use xlink:href="#I" x="245.136" y="215.433"/><use xlink:href="#J" x="250.436" y="215.433"/><use xlink:href="#K" x="254.739" y="215.433"/><use xlink:href="#F" x="259.357" y="215.433"/><use xlink:href="#U" x="262.002" y="215.433"/><use xlink:href="#R" x="268.37" y="215.433"/><use xlink:href="#G" x="273.619" y="215.433"/><use xlink:href="#F" x="275.633" y="215.433"/><use xlink:href="#R" x="278.278" y="215.433"/><use xlink:href="#O" x="283.527" y="215.433"/><use xlink:href="#F" x="288.939" y="215.433"/><use xlink:href="#Z" x="291.584" y="215.433"/><use xlink:href="#C" x="296.782" y="215.433"/><use xlink:href="#G" x="302.499" y="215.433"/><use xlink:href="#F" x="304.513" y="215.433"/><use xlink:href="#Y" x="307.158" y="215.433"/><use xlink:href="#W" x="313.821" y="215.433"/><use xlink:href="#F" x="319.172" y="215.433"/><use xlink:href="#M" x="321.817" y="215.433"/><use xlink:href="#G" x="330.586" y="215.433"/><use xlink:href="#F" x="332.6" y="215.433"/><use xlink:href="#Z" x="335.245" y="215.433"/><use xlink:href="#I" x="340.443" y="215.433"/><use xlink:href="#P" x="345.743" y="215.433"/><use xlink:href="#X" x="351.094" y="215.433"/><use xlink:href="#F" x="356.597" y="215.433"/><use xlink:href="#Z" x="359.242" y="215.433"/><use xlink:href="#U" x="364.44" y="215.433"/><use xlink:href="#G" x="370.808" y="215.433"/><use xlink:href="#F" x="372.822" y="215.433"/><use xlink:href="#V" x="375.467" y="215.433"/><use xlink:href="#W" x="381.825" y="215.433"/><use xlink:href="#O" x="387.176" y="215.433"/><use xlink:href="#F" x="392.588" y="215.433"/><use xlink:href="#al" x="395.233" y="215.433"/><use xlink:href="#L" x="401.845" y="215.433"/><use xlink:href="#G" x="408.386" y="215.433"/><use xlink:href="#F" x="410.4" y="215.433"/><use xlink:href="#C" x="413.045" y="215.433"/><use xlink:href="#D" x="418.762" y="215.433"/><use xlink:href="#E" x="420.807" y="215.433"/><use xlink:href="#F" x="428.914" y="215.433"/><use xlink:href="#R" x="431.559" y="215.433"/><use xlink:href="#Z" x="436.808" y="215.433"/><use xlink:href="#aa" x="442.007" y="215.433"/><use xlink:href="#F" x="444.021" y="215.433"/><use xlink:href="#V" x="446.666" y="215.433"/><use xlink:href="#O" x="453.023" y="215.433"/><use xlink:href="#P" x="458.435" y="215.433"/><use xlink:href="#aj" x="463.786" y="215.433"/><use xlink:href="#D" x="469.3" y="215.433"/><use xlink:href="#ae" x="471.344" y="215.433"/><use xlink:href="#D" x="475.688" y="215.433"/><use xlink:href="#O" x="477.733" y="215.433"/><use xlink:href="#P" x="483.145" y="215.433"/><use xlink:href="#T" x="488.495" y="215.433"/><use xlink:href="#aj" x="493.785" y="215.433"/><use xlink:href="#F" x="499.299" y="215.433"/></g><g fill="#231f20"><use xlink:href="#N" x="94.845" y="230.415"/><use xlink:href="#T" x="103.075" y="230.415"/><use xlink:href="#aj" x="108.365" y="230.415"/><use xlink:href="#D" x="113.878" y="230.415"/><use xlink:href="#I" x="115.923" y="230.415"/><use xlink:href="#F" x="121.223" y="230.415"/><use xlink:href="#ac" x="123.868" y="230.415"/><use xlink:href="#J" x="128.171" y="230.415"/><use xlink:href="#O" x="132.474" y="230.415"/><use xlink:href="#E" x="137.886" y="230.415"/><use xlink:href="#F" x="145.993" y="230.415"/><use xlink:href="#L" x="148.638" y="230.415"/><use xlink:href="#af" x="155.179" y="230.415"/><use xlink:href="#E" x="160.53" y="230.415"/><use xlink:href="#I" x="168.637" y="230.415"/><use xlink:href="#P" x="173.937" y="230.415"/><use xlink:href="#F" x="179.288" y="230.415"/><use xlink:href="#ag" x="181.933" y="230.415"/><use xlink:href="#E" x="188.433" y="230.415"/><use xlink:href="#ah" x="196.541" y="230.415"/><use xlink:href="#D" x="202.055" y="230.415"/><use xlink:href="#ai" x="204.099" y="230.415"/><use xlink:href="#D" x="206.144" y="230.415"/><use xlink:href="#ad" x="208.189" y="230.415"/><use xlink:href="#I" x="213.326" y="230.415"/><use xlink:href="#ai" x="218.626" y="230.415"/><use xlink:href="#F" x="220.67" y="230.415"/><use xlink:href="#V" x="223.315" y="230.415"/><use xlink:href="#O" x="229.673" y="230.415"/><use xlink:href="#J" x="235.085" y="230.415"/><use xlink:href="#aj" x="239.388" y="230.415"/><use xlink:href="#F" x="244.902" y="230.415"/><use xlink:href="#S" x="247.547" y="230.415"/><use xlink:href="#ai" x="254.016" y="230.415"/><use xlink:href="#O" x="256.061" y="230.415"/><use xlink:href="#O" x="261.473" y="230.415"/><use xlink:href="#aj" x="266.885" y="230.415"/><use xlink:href="#ak" x="272.398" y="230.415"/><use xlink:href="#al" x="277.179" y="230.415"/><use xlink:href="#T" x="283.792" y="230.415"/><use xlink:href="#J" x="289.081" y="230.415"/><use xlink:href="#D" x="293.384" y="230.415"/><use xlink:href="#am" x="295.429" y="230.415"/><use xlink:href="#T" x="299.976" y="230.415"/><use xlink:href="#aj" x="305.266" y="230.415"/><use xlink:href="#F" x="310.78" y="230.415"/><use xlink:href="#N" x="313.424" y="230.415"/><use xlink:href="#T" x="321.654" y="230.415"/><use xlink:href="#an" x="326.944" y="230.415"/><use xlink:href="#T" x="331.939" y="230.415"/><use xlink:href="#P" x="337.228" y="230.415"/><use xlink:href="#ad" x="342.579" y="230.415"/><use xlink:href="#W" x="347.716" y="230.415"/><use xlink:href="#ao" x="353.067" y="230.415"/><use xlink:href="#E" x="357.594" y="230.415"/><use xlink:href="#I" x="365.702" y="230.415"/><use xlink:href="#ai" x="371.002" y="230.415"/><use xlink:href="#F" x="373.046" y="230.415"/><use xlink:href="#U" x="375.691" y="230.415"/><use xlink:href="#ae" x="382.059" y="230.415"/><use xlink:href="#T" x="386.403" y="230.415"/><use xlink:href="#E" x="391.693" y="230.415"/><use xlink:href="#F" x="399.8" y="230.415"/><use xlink:href="#V" x="402.445" y="230.415"/><use xlink:href="#T" x="408.803" y="230.415"/><use xlink:href="#ai" x="414.093" y="230.415"/><use xlink:href="#ai" x="416.138" y="230.415"/><use xlink:href="#an" x="418.182" y="230.415"/><use xlink:href="#F" x="423.177" y="230.415"/><use xlink:href="#ap" x="425.822" y="230.415"/><use xlink:href="#P" x="428.162" y="230.415"/><use xlink:href="#W" x="433.512" y="230.415"/><use xlink:href="#D" x="438.863" y="230.415"/><use xlink:href="#ah" x="440.908" y="230.415"/><use xlink:href="#D" x="446.421" y="230.415"/><use xlink:href="#ae" x="448.466" y="230.415"/><use xlink:href="#an" x="452.81" y="230.415"/><use xlink:href="#F" x="457.805" y="230.415"/></g><g fill="#231f20"><use xlink:href="#N" x="94.845" y="245.397"/><use xlink:href="#T" x="103.055" y="245.397"/><use xlink:href="#ai" x="108.324" y="245.397"/><use xlink:href="#I" x="110.348" y="245.397"/><use xlink:href="#P" x="115.628" y="245.397"/><use xlink:href="#O" x="120.958" y="245.397"/><use xlink:href="#X" x="126.35" y="245.397"/><use xlink:href="#T" x="131.833" y="245.397"/><use xlink:href="#P" x="137.102" y="245.397"/><use xlink:href="#T" x="142.433" y="245.397"/><use xlink:href="#an" x="147.702" y="245.397"/><use xlink:href="#D" x="152.677" y="245.397"/><use xlink:href="#an" x="154.701" y="245.397"/><use xlink:href="#F" x="159.675" y="245.397"/><use xlink:href="#ah" x="162.3" y="245.397"/><use xlink:href="#ao" x="167.793" y="245.397"/><use xlink:href="#F" x="172.3" y="245.397"/><use xlink:href="#H" x="174.924" y="245.397"/><use xlink:href="#J" x="180.926" y="245.397"/><use xlink:href="#O" x="185.209" y="245.397"/><use xlink:href="#E" x="190.6" y="245.397"/><use xlink:href="#O" x="198.687" y="245.397"/><use xlink:href="#ae" x="204.079" y="245.397"/><use xlink:href="#D" x="208.402" y="245.397"/><use xlink:href="#P" x="210.427" y="245.397"/><use xlink:href="#X" x="215.757" y="245.397"/><use xlink:href="#F" x="221.24" y="245.397"/><use xlink:href="#H" x="223.865" y="245.397"/><use xlink:href="#J" x="229.867" y="245.397"/><use xlink:href="#O" x="234.149" y="245.397"/><use xlink:href="#ae" x="239.541" y="245.397"/><use xlink:href="#T" x="243.864" y="245.397"/><use xlink:href="#I" x="249.133" y="245.397"/><use xlink:href="#an" x="254.413" y="245.397"/><use xlink:href="#O" x="259.387" y="245.397"/><use xlink:href="#E" x="264.779" y="245.397"/><use xlink:href="#I" x="272.866" y="245.397"/><use xlink:href="#ai" x="278.146" y="245.397"/><use xlink:href="#F" x="280.17" y="245.397"/><use xlink:href="#al" x="282.795" y="245.397"/><use xlink:href="#T" x="289.387" y="245.397"/><use xlink:href="#X" x="294.656" y="245.397"/><use xlink:href="#J" x="300.139" y="245.397"/><use xlink:href="#I" x="304.422" y="245.397"/><use xlink:href="#aj" x="309.701" y="245.397"/><use xlink:href="#I" x="315.195" y="245.397"/><use xlink:href="#ae" x="320.474" y="245.397"/><use xlink:href="#D" x="324.797" y="245.397"/><use xlink:href="#O" x="326.822" y="245.397"/><use xlink:href="#P" x="332.213" y="245.397"/><use xlink:href="#F" x="337.544" y="245.397"/><use xlink:href="#O" x="340.168" y="245.397"/><use xlink:href="#ac" x="345.56" y="245.397"/><use xlink:href="#F" x="349.843" y="245.397"/><use xlink:href="#N" x="352.467" y="245.397"/><use xlink:href="#ap" x="360.676" y="245.397"/><use xlink:href="#ab" x="362.996" y="245.397"/><use xlink:href="#aF" x="368.326" y="245.397"/><use xlink:href="#aa" x="373.88" y="245.397"/><use xlink:href="#F" x="375.874" y="245.397"/><use xlink:href="#H" x="378.499" y="245.397"/><use xlink:href="#aE" x="384.501" y="245.397"/><use xlink:href="#O" x="389.556" y="245.397"/><use xlink:href="#U" x="394.948" y="245.397"/><use xlink:href="#F" x="401.296" y="245.397"/><use xlink:href="#Y" x="403.92" y="245.397"/><use xlink:href="#P" x="410.563" y="245.397"/><use xlink:href="#T" x="415.893" y="245.397"/><use xlink:href="#aa" x="421.163" y="245.397"/><use xlink:href="#F" x="423.157" y="245.397"/><use xlink:href="#au" x="425.781" y="245.397"/><use xlink:href="#av" x="431.254" y="245.397"/><use xlink:href="#aw" x="436.839" y="245.397"/><use xlink:href="#ax" x="441.274" y="245.397"/><use xlink:href="#ay" x="446.869" y="245.397"/><use xlink:href="#aw" x="448.863" y="245.397"/><use xlink:href="#av" x="453.298" y="245.397"/><use xlink:href="#aA" x="458.883" y="245.397"/><use xlink:href="#ax" x="461.731" y="245.397"/><use xlink:href="#aB" x="467.326" y="245.397"/><use xlink:href="#aC" x="470.175" y="245.397"/><use xlink:href="#T" x="472.168" y="245.397"/><use xlink:href="#av" x="477.438" y="245.397"/><use xlink:href="#aw" x="483.023" y="245.397"/><use xlink:href="#au" x="487.458" y="245.397"/><use xlink:href="#aG" x="492.931" y="245.397"/><use xlink:href="#av" x="498.526" y="245.397"/><use xlink:href="#aH" x="504.11" y="245.397"/><use xlink:href="#aG" x="508.617" y="245.397"/><use xlink:href="#aa" x="514.212" y="245.397"/></g><use xlink:href="#aE" x="94.845" y="267.209" fill="#231f20"/><g fill="#231f20"><use xlink:href="#T" x="99.896" y="267.209"/><use xlink:href="#T" x="105.165" y="267.209"/><use xlink:href="#F" x="110.435" y="267.209"/></g><g fill="#231f20"><use xlink:href="#L" x="113.054" y="267.209"/><use xlink:href="#G" x="119.575" y="267.209"/></g><use xlink:href="#F" x="121.564" y="267.209" fill="#231f20"/><g fill="#231f20"><use xlink:href="#aE" x="124.183" y="267.209"/><use xlink:href="#T" x="129.239" y="267.209"/></g><g fill="#231f20"><use xlink:href="#T" x="134.503" y="267.209"/><use xlink:href="#F" x="139.773" y="267.209"/></g><g fill="#231f20"><use xlink:href="#R" x="142.392" y="267.209"/><use xlink:href="#V" x="147.621" y="267.209"/></g><g fill="#231f20"><use xlink:href="#G" x="153.953" y="267.209"/><use xlink:href="#F" x="155.947" y="267.209"/></g><g fill="#231f20"><use xlink:href="#C" x="158.567" y="267.209"/><use xlink:href="#aI" x="164.263" y="267.209"/></g><g fill="#231f20"><use xlink:href="#O" x="171.186" y="267.209"/><use xlink:href="#P" x="176.577" y="267.209"/></g><g fill="#231f20"><use xlink:href="#F" x="181.903" y="267.209"/><use xlink:href="#R" x="184.527" y="267.209"/></g><g fill="#231f20"><use xlink:href="#L" x="189.751" y="267.209"/><use xlink:href="#G" x="196.271" y="267.209"/></g><g fill="#231f20"><use xlink:href="#F" x="198.26" y="267.209"/><use xlink:href="#C" x="200.885" y="267.209"/></g><g fill="#231f20"><use xlink:href="#D" x="206.576" y="267.209"/><use xlink:href="#E" x="208.601" y="267.209"/></g><g fill="#231f20"><use xlink:href="#F" x="216.683" y="267.209"/><use xlink:href="#C" x="219.307" y="267.209"/></g><g fill="#231f20"><use xlink:href="#V" x="224.999" y="267.209"/><use xlink:href="#G" x="231.336" y="267.209"/></g><g fill="#231f20"><use xlink:href="#F" x="233.325" y="267.209"/><use xlink:href="#V" x="235.95" y="267.209"/></g><g fill="#231f20"><use xlink:href="#W" x="242.282" y="267.209"/><use xlink:href="#O" x="247.613" y="267.209"/></g><g fill="#231f20"><use xlink:href="#F" x="252.999" y="267.209"/><use xlink:href="#N" x="255.624" y="267.209"/></g><use xlink:href="#U" x="263.828" y="267.209" fill="#231f20"/><g fill="#231f20"><use xlink:href="#G" x="270.17" y="267.209"/><use xlink:href="#F" x="272.164" y="267.209"/></g><g fill="#231f20"><use xlink:href="#Z" x="274.784" y="267.209"/><use xlink:href="#I" x="279.962" y="267.209"/></g><g fill="#231f20"><use xlink:href="#P" x="285.236" y="267.209"/><use xlink:href="#X" x="290.567" y="267.209"/></g><g fill="#231f20"><use xlink:href="#F" x="296.045" y="267.209"/><use xlink:href="#Z" x="298.669" y="267.209"/></g><g fill="#231f20"><use xlink:href="#U" x="303.842" y="267.209"/><use xlink:href="#G" x="310.19" y="267.209"/></g><g fill="#231f20"><use xlink:href="#F" x="312.178" y="267.209"/><use xlink:href="#Y" x="314.803" y="267.209"/></g><g fill="#231f20"><use xlink:href="#W" x="321.441" y="267.209"/><use xlink:href="#F" x="326.771" y="267.209"/></g><g fill="#231f20"><use xlink:href="#M" x="329.39" y="267.209"/><use xlink:href="#G" x="338.139" y="267.209"/></g><g fill="#231f20"><use xlink:href="#F" x="340.128" y="267.209"/><use xlink:href="#V" x="342.752" y="267.209"/></g><g fill="#231f20"><use xlink:href="#W" x="349.085" y="267.209"/><use xlink:href="#O" x="354.415" y="267.209"/></g><g fill="#231f20"><use xlink:href="#D" x="359.802" y="267.209"/><use xlink:href="#F" x="361.826" y="267.209"/></g><g fill="#231f20"><use xlink:href="#U" x="364.445" y="267.209"/><use xlink:href="#R" x="370.793" y="267.209"/></g><use xlink:href="#G" x="376.017" y="267.209" fill="#231f20"/><g fill="#231f20"><use xlink:href="#F" x="378.005" y="267.209"/><use xlink:href="#U" x="380.63" y="267.209"/></g><g fill="#231f20"><use xlink:href="#T" x="386.973" y="267.209"/><use xlink:href="#O" x="392.242" y="267.209"/></g><g fill="#231f20"><use xlink:href="#F" x="397.628" y="267.209"/><use xlink:href="#Q" x="400.253" y="267.209"/></g><g fill="#231f20"><use xlink:href="#U" x="406.056" y="267.209"/><use xlink:href="#G" x="412.404" y="267.209"/></g><g fill="#231f20"><use xlink:href="#F" x="414.393" y="267.209"/><use xlink:href="#aE" x="417.017" y="267.209"/></g><g fill="#231f20"><use xlink:href="#T" x="422.068" y="267.209"/><use xlink:href="#T" x="427.338" y="267.209"/></g><g fill="#231f20"><use xlink:href="#F" x="432.602" y="267.209"/><use xlink:href="#U" x="435.226" y="267.209"/></g><g fill="#231f20"><use xlink:href="#R" x="441.569" y="267.209"/><use xlink:href="#G" x="446.798" y="267.209"/></g><use xlink:href="#F" x="448.787" y="267.209" fill="#231f20"/><g fill="#231f20"><use xlink:href="#M" x="451.406" y="267.209"/><use xlink:href="#I" x="460.154" y="267.209"/></g><g fill="#231f20"><use xlink:href="#P" x="465.429" y="267.209"/><use xlink:href="#X" x="470.759" y="267.209"/><use xlink:href="#F" x="476.242" y="267.209"/></g><use xlink:href="#ab" x="478.862" y="267.209" fill="#231f20"/><g fill="#231f20"><use xlink:href="#R" x="484.187" y="267.209"/><use xlink:href="#G" x="489.416" y="267.209"/></g><g fill="#231f20"><use xlink:href="#F" x="491.405" y="267.209"/><use xlink:href="#L" x="494.029" y="267.209"/></g><g fill="#231f20"><use xlink:href="#O" x="500.545" y="267.209"/><use xlink:href="#P" x="505.936" y="267.209"/></g><use xlink:href="#X" x="511.262" y="267.209" fill="#231f20"/><use xlink:href="#F" x="516.765" y="267.209" fill="#231f20"/><g fill="#231f20"><use xlink:href="#Z" x="94.845" y="282.191"/><use xlink:href="#N" x="100.043" y="282.191"/><use xlink:href="#aa" x="108.273" y="282.191"/><use xlink:href="#F" x="110.287" y="282.191"/><use xlink:href="#ab" x="112.932" y="282.191"/><use xlink:href="#W" x="118.283" y="282.191"/><use xlink:href="#T" x="123.634" y="282.191"/><use xlink:href="#F" x="128.924" y="282.191"/><use xlink:href="#Q" x="131.568" y="282.191"/><use xlink:href="#ac" x="137.397" y="282.191"/><use xlink:href="#ac" x="141.7" y="282.191"/><use xlink:href="#T" x="146.003" y="282.191"/><use xlink:href="#ad" x="151.293" y="282.191"/><use xlink:href="#ae" x="156.43" y="282.191"/><use xlink:href="#F" x="160.774" y="282.191"/><use xlink:href="#O" x="163.419" y="282.191"/><use xlink:href="#ac" x="168.831" y="282.191"/><use xlink:href="#F" x="173.134" y="282.191"/><use xlink:href="#ag" x="175.779" y="282.191"/><use xlink:href="#E" x="182.279" y="282.191"/><use xlink:href="#ah" x="190.387" y="282.191"/><use xlink:href="#D" x="195.9" y="282.191"/><use xlink:href="#ai" x="197.945" y="282.191"/><use xlink:href="#D" x="199.99" y="282.191"/><use xlink:href="#ad" x="202.034" y="282.191"/><use xlink:href="#I" x="207.171" y="282.191"/><use xlink:href="#ai" x="212.471" y="282.191"/><use xlink:href="#F" x="214.516" y="282.191"/><use xlink:href="#V" x="217.161" y="282.191"/><use xlink:href="#O" x="223.519" y="282.191"/><use xlink:href="#J" x="228.931" y="282.191"/><use xlink:href="#aj" x="233.234" y="282.191"/><use xlink:href="#F" x="238.747" y="282.191"/><use xlink:href="#S" x="241.392" y="282.191"/><use xlink:href="#ai" x="247.862" y="282.191"/><use xlink:href="#O" x="249.907" y="282.191"/><use xlink:href="#O" x="255.318" y="282.191"/><use xlink:href="#aj" x="260.73" y="282.191"/><use xlink:href="#F" x="266.244" y="282.191"/><use xlink:href="#al" x="268.889" y="282.191"/><use xlink:href="#T" x="275.501" y="282.191"/><use xlink:href="#J" x="280.791" y="282.191"/><use xlink:href="#D" x="285.094" y="282.191"/><use xlink:href="#am" x="287.138" y="282.191"/><use xlink:href="#T" x="291.686" y="282.191"/><use xlink:href="#aj" x="296.975" y="282.191"/><use xlink:href="#F" x="302.489" y="282.191"/><use xlink:href="#N" x="305.134" y="282.191"/><use xlink:href="#T" x="313.363" y="282.191"/><use xlink:href="#an" x="318.653" y="282.191"/><use xlink:href="#T" x="323.648" y="282.191"/><use xlink:href="#P" x="328.938" y="282.191"/><use xlink:href="#ad" x="334.289" y="282.191"/><use xlink:href="#W" x="339.426" y="282.191"/><use xlink:href="#ao" x="344.777" y="282.191"/><use xlink:href="#E" x="349.303" y="282.191"/><use xlink:href="#I" x="357.411" y="282.191"/><use xlink:href="#ai" x="362.711" y="282.191"/><use xlink:href="#F" x="364.756" y="282.191"/><use xlink:href="#U" x="367.4" y="282.191"/><use xlink:href="#ae" x="373.769" y="282.191"/><use xlink:href="#T" x="378.112" y="282.191"/><use xlink:href="#E" x="383.402" y="282.191"/><use xlink:href="#F" x="391.51" y="282.191"/><use xlink:href="#V" x="394.154" y="282.191"/><use xlink:href="#T" x="400.512" y="282.191"/><use xlink:href="#ai" x="405.802" y="282.191"/><use xlink:href="#ai" x="407.847" y="282.191"/><use xlink:href="#an" x="409.892" y="282.191"/><use xlink:href="#F" x="414.886" y="282.191"/><use xlink:href="#D" x="417.531" y="282.191"/><use xlink:href="#P" x="419.576" y="282.191"/><use xlink:href="#F" x="424.927" y="282.191"/><use xlink:href="#N" x="427.572" y="282.191"/><use xlink:href="#O" x="435.801" y="282.191"/><use xlink:href="#P" x="441.213" y="282.191"/><use xlink:href="#O" x="446.564" y="282.191"/><use xlink:href="#ad" x="451.976" y="282.191"/><use xlink:href="#J" x="457.113" y="282.191"/><use xlink:href="#O" x="461.416" y="282.191"/><use xlink:href="#ae" x="466.828" y="282.191"/><use xlink:href="#I" x="471.171" y="282.191"/><use xlink:href="#ai" x="476.471" y="282.191"/><use xlink:href="#D" x="478.516" y="282.191"/><use xlink:href="#P" x="480.561" y="282.191"/><use xlink:href="#T" x="485.912" y="282.191"/><use xlink:href="#ak" x="491.201" y="282.191"/></g><g fill="#231f20"><use xlink:href="#D" x="94.845" y="297.173"/><use xlink:href="#P" x="96.89" y="297.173"/><use xlink:href="#aj" x="102.241" y="297.173"/><use xlink:href="#af" x="107.754" y="297.173"/><use xlink:href="#ad" x="113.105" y="297.173"/><use xlink:href="#T" x="118.242" y="297.173"/><use xlink:href="#aj" x="123.532" y="297.173"/><use xlink:href="#F" x="129.046" y="297.173"/><use xlink:href="#H" x="131.691" y="297.173"/><use xlink:href="#af" x="137.713" y="297.173"/><use xlink:href="#ai" x="143.064" y="297.173"/><use xlink:href="#E" x="145.108" y="297.173"/><use xlink:href="#O" x="153.216" y="297.173"/><use xlink:href="#P" x="158.628" y="297.173"/><use xlink:href="#I" x="163.978" y="297.173"/><use xlink:href="#J" x="169.278" y="297.173"/><use xlink:href="#ao" x="173.581" y="297.173"/><use xlink:href="#F" x="178.108" y="297.173"/><use xlink:href="#aJ" x="180.753" y="297.173"/><use xlink:href="#J" x="186.826" y="297.173"/><use xlink:href="#ae" x="191.129" y="297.173"/><use xlink:href="#T" x="195.473" y="297.173"/><use xlink:href="#J" x="200.763" y="297.173"/><use xlink:href="#ao" x="205.066" y="297.173"/><use xlink:href="#F" x="209.592" y="297.173"/><use xlink:href="#L" x="212.237" y="297.173"/><use xlink:href="#ao" x="218.778" y="297.173"/><use xlink:href="#as" x="223.305" y="297.173"/><use xlink:href="#T" x="228.819" y="297.173"/><use xlink:href="#J" x="234.109" y="297.173"/><use xlink:href="#ae" x="238.412" y="297.173"/><use xlink:href="#T" x="242.755" y="297.173"/><use xlink:href="#P" x="248.045" y="297.173"/><use xlink:href="#an" x="253.396" y="297.173"/><use xlink:href="#D" x="258.391" y="297.173"/><use xlink:href="#O" x="260.435" y="297.173"/><use xlink:href="#P" x="265.847" y="297.173"/><use xlink:href="#F" x="271.198" y="297.173"/><use xlink:href="#aq" x="273.843" y="297.173"/><use xlink:href="#I" x="280.292" y="297.173"/><use xlink:href="#ae" x="285.592" y="297.173"/><use xlink:href="#an" x="289.936" y="297.173"/><use xlink:href="#aa" x="294.931" y="297.173"/><use xlink:href="#F" x="296.945" y="297.173"/><use xlink:href="#R" x="299.59" y="297.173"/><use xlink:href="#F" x="304.839" y="297.173"/><use xlink:href="#C" x="307.484" y="297.173"/><use xlink:href="#O" x="313.201" y="297.173"/><use xlink:href="#J" x="318.613" y="297.173"/><use xlink:href="#T" x="322.916" y="297.173"/><use xlink:href="#I" x="328.205" y="297.173"/><use xlink:href="#P" x="333.505" y="297.173"/><use xlink:href="#F" x="338.856" y="297.173"/><use xlink:href="#N" x="341.501" y="297.173"/><use xlink:href="#T" x="349.731" y="297.173"/><use xlink:href="#aj" x="355.02" y="297.173"/><use xlink:href="#F" x="360.534" y="297.173"/><use xlink:href="#U" x="363.179" y="297.173"/><use xlink:href="#ad" x="369.547" y="297.173"/><use xlink:href="#D" x="374.684" y="297.173"/><use xlink:href="#aa" x="376.729" y="297.173"/><use xlink:href="#F" x="378.743" y="297.173"/><use xlink:href="#au" x="381.388" y="297.173"/><use xlink:href="#av" x="386.881" y="297.173"/><use xlink:href="#aw" x="392.486" y="297.173"/><use xlink:href="#ax" x="396.942" y="297.173"/><use xlink:href="#ay" x="402.557" y="297.173"/><use xlink:href="#aK" x="404.571" y="297.173"/><use xlink:href="#av" x="410.075" y="297.173"/><use xlink:href="#aA" x="415.68" y="297.173"/><use xlink:href="#ax" x="418.548" y="297.173"/><use xlink:href="#aB" x="424.164" y="297.173"/><use xlink:href="#aC" x="427.032" y="297.173"/><use xlink:href="#ax" x="429.047" y="297.173"/><use xlink:href="#aH" x="434.662" y="297.173"/><use xlink:href="#aD" x="439.189" y="297.173"/><use xlink:href="#ak" x="444.773" y="297.173"/><use xlink:href="#aG" x="449.555" y="297.173"/><use xlink:href="#ax" x="455.17" y="297.173"/><use xlink:href="#aa" x="460.785" y="297.173"/></g><g fill="#231f20"><use xlink:href="#C" x="94.845" y="318.985"/><use xlink:href="#I" x="100.542" y="318.985"/><use xlink:href="#P" x="105.822" y="318.985"/><use xlink:href="#X" x="111.152" y="318.985"/><use xlink:href="#F" x="116.635" y="318.985"/><use xlink:href="#L" x="119.26" y="318.985"/><use xlink:href="#G" x="125.78" y="318.985"/><use xlink:href="#F" x="127.774" y="318.985"/><use xlink:href="#C" x="130.399" y="318.985"/><use xlink:href="#D" x="136.095" y="318.985"/><use xlink:href="#E" x="138.12" y="318.985"/><use xlink:href="#F" x="146.207" y="318.985"/><use xlink:href="#C" x="148.831" y="318.985"/><use xlink:href="#L" x="154.528" y="318.985"/><use xlink:href="#G" x="161.049" y="318.985"/><use xlink:href="#F" x="163.043" y="318.985"/><use xlink:href="#aE" x="165.667" y="318.985"/><use xlink:href="#D" x="170.723" y="318.985"/><use xlink:href="#E" x="172.747" y="318.985"/><use xlink:href="#F" x="180.834" y="318.985"/><use xlink:href="#R" x="183.459" y="318.985"/><use xlink:href="#G" x="188.688" y="318.985"/><use xlink:href="#F" x="190.682" y="318.985"/><use xlink:href="#C" x="193.306" y="318.985"/><use xlink:href="#D" x="199.003" y="318.985"/><use xlink:href="#E" x="201.027" y="318.985"/><use xlink:href="#F" x="209.114" y="318.985"/><use xlink:href="#Z" x="211.739" y="318.985"/><use xlink:href="#U" x="216.917" y="318.985"/><use xlink:href="#G" x="223.264" y="318.985"/><use xlink:href="#F" x="225.258" y="318.985"/><use xlink:href="#L" x="227.883" y="318.985"/><use xlink:href="#T" x="234.404" y="318.985"/><use xlink:href="#O" x="239.673" y="318.985"/><use xlink:href="#F" x="245.064" y="318.985"/><use xlink:href="#R" x="247.689" y="318.985"/><use xlink:href="#G" x="252.918" y="318.985"/><use xlink:href="#F" x="254.912" y="318.985"/><use xlink:href="#V" x="257.536" y="318.985"/><use xlink:href="#W" x="263.874" y="318.985"/><use xlink:href="#O" x="269.204" y="318.985"/><use xlink:href="#D" x="274.596" y="318.985"/><use xlink:href="#F" x="276.62" y="318.985"/><use xlink:href="#R" x="279.244" y="318.985"/><use xlink:href="#G" x="284.473" y="318.985"/><use xlink:href="#F" x="286.467" y="318.985"/><use xlink:href="#R" x="289.092" y="318.985"/><use xlink:href="#T" x="294.32" y="318.985"/><use xlink:href="#O" x="299.59" y="318.985"/><use xlink:href="#P" x="304.981" y="318.985"/><use xlink:href="#X" x="310.312" y="318.985"/><use xlink:href="#F" x="315.795" y="318.985"/><use xlink:href="#R" x="318.419" y="318.985"/><use xlink:href="#G" x="323.648" y="318.985"/><use xlink:href="#F" x="325.642" y="318.985"/><use xlink:href="#C" x="328.266" y="318.985"/><use xlink:href="#D" x="333.963" y="318.985"/><use xlink:href="#E" x="335.987" y="318.985"/><use xlink:href="#F" x="344.075" y="318.985"/><use xlink:href="#Z" x="346.699" y="318.985"/><use xlink:href="#G" x="351.877" y="318.985"/><use xlink:href="#F" x="353.871" y="318.985"/><use xlink:href="#C" x="356.495" y="318.985"/><use xlink:href="#D" x="362.192" y="318.985"/><use xlink:href="#E" x="364.216" y="318.985"/><use xlink:href="#F" x="372.304" y="318.985"/><use xlink:href="#U" x="374.928" y="318.985"/><use xlink:href="#M" x="381.276" y="318.985"/><use xlink:href="#G" x="390.024" y="318.985"/><use xlink:href="#F" x="392.018" y="318.985"/><use xlink:href="#Y" x="394.643" y="318.985"/><use xlink:href="#W" x="401.285" y="318.985"/><use xlink:href="#F" x="406.616" y="318.985"/><use xlink:href="#Z" x="409.24" y="318.985"/><use xlink:href="#N" x="414.418" y="318.985"/><use xlink:href="#G" x="422.628" y="318.985"/><use xlink:href="#F" x="424.621" y="318.985"/><use xlink:href="#V" x="427.246" y="318.985"/><use xlink:href="#W" x="433.584" y="318.985"/><use xlink:href="#O" x="438.914" y="318.985"/><use xlink:href="#O" x="444.306" y="318.985"/><use xlink:href="#F" x="449.697" y="318.985"/><use xlink:href="#N" x="452.322" y="318.985"/><use xlink:href="#U" x="460.531" y="318.985"/><use xlink:href="#G" x="466.879" y="318.985"/><use xlink:href="#F" x="468.872" y="318.985"/><use xlink:href="#U" x="471.497" y="318.985"/><use xlink:href="#O" x="477.845" y="318.985"/><use xlink:href="#P" x="483.236" y="318.985"/><use xlink:href="#F" x="488.567" y="318.985"/><use xlink:href="#R" x="491.191" y="318.985"/><use xlink:href="#G" x="496.42" y="318.985"/><use xlink:href="#F" x="498.414" y="318.985"/><use xlink:href="#C" x="501.038" y="318.985"/><use xlink:href="#D" x="506.735" y="318.985"/><use xlink:href="#E" x="508.759" y="318.985"/></g><use xlink:href="#F" x="516.867" y="318.985" fill="#231f20"/><g fill="#231f20"><use xlink:href="#U" x="94.845" y="333.966"/><use xlink:href="#R" x="101.213" y="333.966"/><use xlink:href="#G" x="106.462" y="333.966"/><use xlink:href="#F" x="108.477" y="333.966"/><use xlink:href="#Z" x="111.121" y="333.966"/><use xlink:href="#O" x="116.32" y="333.966"/><use xlink:href="#O" x="121.731" y="333.966"/><use xlink:href="#F" x="127.143" y="333.966"/><use xlink:href="#L" x="129.788" y="333.966"/><use xlink:href="#R" x="136.329" y="333.966"/><use xlink:href="#G" x="141.578" y="333.966"/><use xlink:href="#F" x="143.592" y="333.966"/><use xlink:href="#Y" x="146.237" y="333.966"/><use xlink:href="#W" x="152.9" y="333.966"/><use xlink:href="#F" x="158.251" y="333.966"/><use xlink:href="#M" x="160.896" y="333.966"/><use xlink:href="#G" x="169.665" y="333.966"/><use xlink:href="#F" x="171.679" y="333.966"/><use xlink:href="#V" x="174.324" y="333.966"/><use xlink:href="#W" x="180.682" y="333.966"/><use xlink:href="#O" x="186.033" y="333.966"/><use xlink:href="#D" x="191.445" y="333.966"/><use xlink:href="#F" x="193.489" y="333.966"/><use xlink:href="#U" x="196.134" y="333.966"/><use xlink:href="#R" x="202.502" y="333.966"/><use xlink:href="#G" x="207.751" y="333.966"/><use xlink:href="#F" x="209.765" y="333.966"/><use xlink:href="#aE" x="212.41" y="333.966"/><use xlink:href="#T" x="217.486" y="333.966"/><use xlink:href="#T" x="222.776" y="333.966"/><use xlink:href="#F" x="228.066" y="333.966"/><use xlink:href="#U" x="230.711" y="333.966"/><use xlink:href="#M" x="237.079" y="333.966"/><use xlink:href="#G" x="245.848" y="333.966"/><use xlink:href="#F" x="247.862" y="333.966"/><use xlink:href="#U" x="250.507" y="333.966"/><use xlink:href="#W" x="256.875" y="333.966"/><use xlink:href="#D" x="262.226" y="333.966"/><use xlink:href="#P" x="264.27" y="333.966"/><use xlink:href="#F" x="269.621" y="333.966"/><use xlink:href="#al" x="272.266" y="333.966"/><use xlink:href="#N" x="278.878" y="333.966"/><use xlink:href="#aa" x="287.108" y="333.966"/><use xlink:href="#F" x="289.122" y="333.966"/><use xlink:href="#ab" x="291.767" y="333.966"/><use xlink:href="#W" x="297.118" y="333.966"/><use xlink:href="#T" x="302.469" y="333.966"/><use xlink:href="#F" x="307.758" y="333.966"/><use xlink:href="#ab" x="310.403" y="333.966"/><use xlink:href="#W" x="315.754" y="333.966"/><use xlink:href="#T" x="321.105" y="333.966"/><use xlink:href="#J" x="326.395" y="333.966"/><use xlink:href="#I" x="330.698" y="333.966"/><use xlink:href="#as" x="335.998" y="333.966"/><use xlink:href="#T" x="341.511" y="333.966"/><use xlink:href="#af" x="346.801" y="333.966"/><use xlink:href="#ae" x="352.152" y="333.966"/><use xlink:href="#D" x="356.495" y="333.966"/><use xlink:href="#ad" x="358.54" y="333.966"/><use xlink:href="#F" x="363.677" y="333.966"/><use xlink:href="#Q" x="366.322" y="333.966"/><use xlink:href="#ac" x="372.151" y="333.966"/><use xlink:href="#ac" x="376.454" y="333.966"/><use xlink:href="#T" x="380.757" y="333.966"/><use xlink:href="#ad" x="386.047" y="333.966"/><use xlink:href="#ae" x="391.184" y="333.966"/><use xlink:href="#an" x="395.528" y="333.966"/><use xlink:href="#F" x="400.523" y="333.966"/><use xlink:href="#O" x="403.167" y="333.966"/><use xlink:href="#ac" x="408.579" y="333.966"/><use xlink:href="#F" x="412.882" y="333.966"/><use xlink:href="#L" x="415.527" y="333.966"/><use xlink:href="#af" x="422.068" y="333.966"/><use xlink:href="#E" x="427.419" y="333.966"/><use xlink:href="#I" x="435.527" y="333.966"/><use xlink:href="#P" x="440.826" y="333.966"/><use xlink:href="#F" x="446.177" y="333.966"/><use xlink:href="#N" x="448.822" y="333.966"/><use xlink:href="#T" x="457.052" y="333.966"/><use xlink:href="#an" x="462.342" y="333.966"/><use xlink:href="#T" x="467.336" y="333.966"/><use xlink:href="#P" x="472.626" y="333.966"/><use xlink:href="#ad" x="477.977" y="333.966"/><use xlink:href="#W" x="483.114" y="333.966"/><use xlink:href="#ao" x="488.465" y="333.966"/><use xlink:href="#E" x="492.992" y="333.966"/><use xlink:href="#I" x="501.099" y="333.966"/><use xlink:href="#ai" x="506.399" y="333.966"/><use xlink:href="#F" x="508.444" y="333.966"/></g><g fill="#231f20"><use xlink:href="#U" x="94.845" y="348.948"/><use xlink:href="#ae" x="101.213" y="348.948"/><use xlink:href="#T" x="105.557" y="348.948"/><use xlink:href="#E" x="110.847" y="348.948"/><use xlink:href="#F" x="118.954" y="348.948"/><use xlink:href="#V" x="121.599" y="348.948"/><use xlink:href="#T" x="127.957" y="348.948"/><use xlink:href="#ai" x="133.247" y="348.948"/><use xlink:href="#ai" x="135.292" y="348.948"/><use xlink:href="#an" x="137.336" y="348.948"/><use xlink:href="#F" x="142.331" y="348.948"/><use xlink:href="#H" x="144.976" y="348.948"/><use xlink:href="#J" x="150.998" y="348.948"/><use xlink:href="#D" x="155.301" y="348.948"/><use xlink:href="#E" x="157.346" y="348.948"/><use xlink:href="#T" x="165.453" y="348.948"/><use xlink:href="#aj" x="170.743" y="348.948"/><use xlink:href="#F" x="176.257" y="348.948"/><use xlink:href="#aI" x="178.902" y="348.948"/><use xlink:href="#D" x="185.85" y="348.948"/><use xlink:href="#ae" x="187.894" y="348.948"/><use xlink:href="#W" x="192.238" y="348.948"/><use xlink:href="#F" x="197.589" y="348.948"/><use xlink:href="#U" x="200.234" y="348.948"/><use xlink:href="#as" x="206.602" y="348.948"/><use xlink:href="#W" x="212.115" y="348.948"/><use xlink:href="#D" x="217.466" y="348.948"/><use xlink:href="#P" x="219.511" y="348.948"/><use xlink:href="#X" x="224.862" y="348.948"/><use xlink:href="#O" x="230.365" y="348.948"/><use xlink:href="#an" x="235.777" y="348.948"/><use xlink:href="#D" x="240.772" y="348.948"/><use xlink:href="#P" x="242.816" y="348.948"/><use xlink:href="#T" x="248.167" y="348.948"/><use xlink:href="#ak" x="253.457" y="348.948"/><use xlink:href="#aw" x="258.238" y="348.948"/><use xlink:href="#F" x="262.694" y="348.948"/><use xlink:href="#H" x="265.338" y="348.948"/><use xlink:href="#W" x="271.361" y="348.948"/><use xlink:href="#O" x="276.711" y="348.948"/><use xlink:href="#an" x="282.123" y="348.948"/><use xlink:href="#as" x="287.118" y="348.948"/><use xlink:href="#W" x="292.632" y="348.948"/><use xlink:href="#I" x="297.982" y="348.948"/><use xlink:href="#ae" x="303.282" y="348.948"/><use xlink:href="#T" x="307.626" y="348.948"/><use xlink:href="#F" x="312.916" y="348.948"/><use xlink:href="#O" x="315.561" y="348.948"/><use xlink:href="#P" x="320.973" y="348.948"/><use xlink:href="#F" x="326.323" y="348.948"/><use xlink:href="#H" x="328.968" y="348.948"/><use xlink:href="#af" x="334.99" y="348.948"/><use xlink:href="#ai" x="340.341" y="348.948"/><use xlink:href="#E" x="342.386" y="348.948"/><use xlink:href="#O" x="350.494" y="348.948"/><use xlink:href="#P" x="355.905" y="348.948"/><use xlink:href="#I" x="361.256" y="348.948"/><use xlink:href="#J" x="366.556" y="348.948"/><use xlink:href="#ao" x="370.859" y="348.948"/><use xlink:href="#F" x="375.386" y="348.948"/><use xlink:href="#aJ" x="378.031" y="348.948"/><use xlink:href="#J" x="384.104" y="348.948"/><use xlink:href="#ae" x="388.407" y="348.948"/><use xlink:href="#T" x="392.751" y="348.948"/><use xlink:href="#J" x="398.04" y="348.948"/><use xlink:href="#ao" x="402.343" y="348.948"/><use xlink:href="#F" x="406.87" y="348.948"/><use xlink:href="#L" x="409.515" y="348.948"/><use xlink:href="#ao" x="416.056" y="348.948"/><use xlink:href="#as" x="420.583" y="348.948"/><use xlink:href="#T" x="426.097" y="348.948"/><use xlink:href="#J" x="431.386" y="348.948"/><use xlink:href="#ae" x="435.689" y="348.948"/><use xlink:href="#T" x="440.033" y="348.948"/><use xlink:href="#P" x="445.323" y="348.948"/><use xlink:href="#an" x="450.674" y="348.948"/><use xlink:href="#D" x="455.668" y="348.948"/><use xlink:href="#O" x="457.713" y="348.948"/><use xlink:href="#P" x="463.125" y="348.948"/><use xlink:href="#aa" x="468.476" y="348.948"/><use xlink:href="#F" x="470.49" y="348.948"/><use xlink:href="#U" x="473.135" y="348.948"/><use xlink:href="#ae" x="479.503" y="348.948"/><use xlink:href="#T" x="483.847" y="348.948"/><use xlink:href="#E" x="489.136" y="348.948"/><use xlink:href="#F" x="497.244" y="348.948"/></g><g fill="#231f20"><use xlink:href="#V" x="94.845" y="363.93"/><use xlink:href="#T" x="101.203" y="363.93"/><use xlink:href="#ai" x="106.493" y="363.93"/><use xlink:href="#ai" x="108.538" y="363.93"/><use xlink:href="#an" x="110.582" y="363.93"/><use xlink:href="#F" x="115.577" y="363.93"/><use xlink:href="#al" x="118.222" y="363.93"/><use xlink:href="#T" x="124.834" y="363.93"/><use xlink:href="#am" x="130.124" y="363.93"/><use xlink:href="#aa" x="134.671" y="363.93"/><use xlink:href="#F" x="136.685" y="363.93"/><use xlink:href="#au" x="139.33" y="363.93"/><use xlink:href="#av" x="144.823" y="363.93"/><use xlink:href="#aw" x="150.428" y="363.93"/><use xlink:href="#ax" x="154.884" y="363.93"/><use xlink:href="#ay" x="160.499" y="363.93"/><use xlink:href="#au" x="162.514" y="363.93"/><use xlink:href="#az" x="168.007" y="363.93"/><use xlink:href="#aA" x="173.52" y="363.93"/><use xlink:href="#aw" x="176.389" y="363.93"/><use xlink:href="#az" x="180.845" y="363.93"/><use xlink:href="#aB" x="186.358" y="363.93"/><use xlink:href="#aC" x="189.227" y="363.93"/><use xlink:href="#aw" x="191.241" y="363.93"/><use xlink:href="#aD" x="195.697" y="363.93"/><use xlink:href="#ax" x="201.281" y="363.93"/><use xlink:href="#aG" x="206.897" y="363.93"/><use xlink:href="#ak" x="212.512" y="363.93"/><use xlink:href="#aH" x="217.293" y="363.93"/><use xlink:href="#aw" x="221.82" y="363.93"/><use xlink:href="#aa" x="226.276" y="363.93"/></g><g fill="#231f20"><use xlink:href="#U" x="94.845" y="385.742"/><use xlink:href="#O" x="101.213" y="385.742"/><use xlink:href="#P" x="106.625" y="385.742"/><use xlink:href="#X" x="111.976" y="385.742"/><use xlink:href="#F" x="117.479" y="385.742"/><use xlink:href="#N" x="120.124" y="385.742"/><use xlink:href="#G" x="128.354" y="385.742"/><use xlink:href="#F" x="130.368" y="385.742"/><use xlink:href="#aE" x="133.013" y="385.742"/><use xlink:href="#D" x="138.089" y="385.742"/><use xlink:href="#E" x="140.134" y="385.742"/><use xlink:href="#F" x="148.241" y="385.742"/><use xlink:href="#R" x="150.886" y="385.742"/><use xlink:href="#G" x="156.135" y="385.742"/><use xlink:href="#F" x="158.15" y="385.742"/><use xlink:href="#Z" x="160.794" y="385.742"/><use xlink:href="#af" x="165.993" y="385.742"/><use xlink:href="#F" x="171.343" y="385.742"/><use xlink:href="#L" x="173.988" y="385.742"/><use xlink:href="#Z" x="180.529" y="385.742"/><use xlink:href="#G" x="185.727" y="385.742"/><use xlink:href="#F" x="187.742" y="385.742"/><use xlink:href="#H" x="190.387" y="385.742"/><use xlink:href="#I" x="196.409" y="385.742"/><use xlink:href="#J" x="201.709" y="385.742"/><use xlink:href="#K" x="206.012" y="385.742"/><use xlink:href="#F" x="210.63" y="385.742"/><use xlink:href="#R" x="213.275" y="385.742"/><use xlink:href="#G" x="218.524" y="385.742"/><use xlink:href="#F" x="220.538" y="385.742"/><use xlink:href="#V" x="223.183" y="385.742"/><use xlink:href="#W" x="229.541" y="385.742"/><use xlink:href="#af" x="234.892" y="385.742"/><use xlink:href="#P" x="240.243" y="385.742"/><use xlink:href="#F" x="245.593" y="385.742"/><use xlink:href="#R" x="248.238" y="385.742"/><use xlink:href="#Z" x="253.487" y="385.742"/><use xlink:href="#G" x="258.686" y="385.742"/><use xlink:href="#F" x="260.7" y="385.742"/><use xlink:href="#R" x="263.345" y="385.742"/><use xlink:href="#T" x="268.594" y="385.742"/><use xlink:href="#O" x="273.883" y="385.742"/><use xlink:href="#P" x="279.295" y="385.742"/><use xlink:href="#X" x="284.646" y="385.742"/><use xlink:href="#F" x="290.15" y="385.742"/><use xlink:href="#R" x="292.794" y="385.742"/><use xlink:href="#G" x="298.043" y="385.742"/><use xlink:href="#F" x="300.058" y="385.742"/><use xlink:href="#L" x="302.703" y="385.742"/><use xlink:href="#T" x="309.244" y="385.742"/><use xlink:href="#O" x="314.533" y="385.742"/><use xlink:href="#F" x="319.945" y="385.742"/><use xlink:href="#R" x="322.59" y="385.742"/><use xlink:href="#G" x="327.839" y="385.742"/><use xlink:href="#F" x="329.853" y="385.742"/><use xlink:href="#C" x="332.498" y="385.742"/><use xlink:href="#I" x="338.215" y="385.742"/><use xlink:href="#P" x="343.515" y="385.742"/><use xlink:href="#X" x="348.866" y="385.742"/><use xlink:href="#F" x="354.369" y="385.742"/><use xlink:href="#L" x="357.014" y="385.742"/><use xlink:href="#G" x="363.555" y="385.742"/><use xlink:href="#F" x="365.569" y="385.742"/><use xlink:href="#C" x="368.214" y="385.742"/><use xlink:href="#D" x="373.931" y="385.742"/><use xlink:href="#E" x="375.976" y="385.742"/><use xlink:href="#F" x="384.084" y="385.742"/><use xlink:href="#Z" x="386.728" y="385.742"/><use xlink:href="#G" x="391.927" y="385.742"/><use xlink:href="#F" x="393.941" y="385.742"/><use xlink:href="#V" x="396.586" y="385.742"/><use xlink:href="#W" x="402.944" y="385.742"/><use xlink:href="#O" x="408.294" y="385.742"/><use xlink:href="#F" x="413.706" y="385.742"/><use xlink:href="#Z" x="416.351" y="385.742"/><use xlink:href="#N" x="421.549" y="385.742"/><use xlink:href="#G" x="429.779" y="385.742"/><use xlink:href="#F" x="431.793" y="385.742"/><use xlink:href="#C" x="434.438" y="385.742"/><use xlink:href="#D" x="440.155" y="385.742"/><use xlink:href="#E" x="442.2" y="385.742"/><use xlink:href="#F" x="450.307" y="385.742"/><use xlink:href="#U" x="452.952" y="385.742"/><use xlink:href="#M" x="459.32" y="385.742"/><use xlink:href="#G" x="468.089" y="385.742"/><use xlink:href="#F" x="470.103" y="385.742"/><use xlink:href="#Y" x="472.748" y="385.742"/><use xlink:href="#W" x="479.411" y="385.742"/><use xlink:href="#F" x="484.762" y="385.742"/></g><g fill="#231f20"><use xlink:href="#M" x="94.845" y="400.724"/><use xlink:href="#G" x="103.614" y="400.724"/><use xlink:href="#F" x="105.628" y="400.724"/><use xlink:href="#V" x="108.273" y="400.724"/><use xlink:href="#W" x="114.631" y="400.724"/><use xlink:href="#O" x="119.982" y="400.724"/><use xlink:href="#D" x="125.394" y="400.724"/><use xlink:href="#F" x="127.438" y="400.724"/><use xlink:href="#U" x="130.083" y="400.724"/><use xlink:href="#R" x="136.451" y="400.724"/><use xlink:href="#G" x="141.7" y="400.724"/><use xlink:href="#F" x="143.715" y="400.724"/><use xlink:href="#R" x="146.359" y="400.724"/><use xlink:href="#I" x="151.609" y="400.724"/><use xlink:href="#P" x="156.908" y="400.724"/><use xlink:href="#X" x="162.259" y="400.724"/><use xlink:href="#F" x="167.763" y="400.724"/><use xlink:href="#U" x="170.408" y="400.724"/><use xlink:href="#M" x="176.776" y="400.724"/><use xlink:href="#G" x="185.544" y="400.724"/><use xlink:href="#F" x="187.559" y="400.724"/><use xlink:href="#H" x="190.203" y="400.724"/><use xlink:href="#I" x="196.226" y="400.724"/><use xlink:href="#J" x="201.526" y="400.724"/><use xlink:href="#K" x="205.829" y="400.724"/><use xlink:href="#F" x="210.447" y="400.724"/><use xlink:href="#U" x="213.092" y="400.724"/><use xlink:href="#G" x="219.46" y="400.724"/><use xlink:href="#F" x="221.474" y="400.724"/><use xlink:href="#U" x="224.119" y="400.724"/><use xlink:href="#W" x="230.487" y="400.724"/><use xlink:href="#D" x="235.838" y="400.724"/><use xlink:href="#P" x="237.883" y="400.724"/><use xlink:href="#F" x="243.233" y="400.724"/><use xlink:href="#al" x="245.878" y="400.724"/><use xlink:href="#N" x="252.49" y="400.724"/><use xlink:href="#G" x="260.72" y="400.724"/><use xlink:href="#F" x="262.734" y="400.724"/><use xlink:href="#V" x="265.379" y="400.724"/><use xlink:href="#W" x="271.737" y="400.724"/><use xlink:href="#O" x="277.088" y="400.724"/><use xlink:href="#O" x="282.5" y="400.724"/><use xlink:href="#F" x="287.912" y="400.724"/><use xlink:href="#N" x="290.556" y="400.724"/><use xlink:href="#U" x="298.786" y="400.724"/><use xlink:href="#aa" x="305.154" y="400.724"/><use xlink:href="#F" x="307.168" y="400.724"/><use xlink:href="#N" x="309.813" y="400.724"/><use xlink:href="#T" x="318.043" y="400.724"/><use xlink:href="#an" x="323.333" y="400.724"/><use xlink:href="#T" x="328.327" y="400.724"/><use xlink:href="#P" x="333.617" y="400.724"/><use xlink:href="#ad" x="338.968" y="400.724"/><use xlink:href="#W" x="344.105" y="400.724"/><use xlink:href="#ao" x="349.456" y="400.724"/><use xlink:href="#E" x="353.983" y="400.724"/><use xlink:href="#I" x="362.09" y="400.724"/><use xlink:href="#ai" x="367.39" y="400.724"/><use xlink:href="#F" x="369.435" y="400.724"/><use xlink:href="#U" x="372.08" y="400.724"/><use xlink:href="#ae" x="378.448" y="400.724"/><use xlink:href="#T" x="382.792" y="400.724"/><use xlink:href="#E" x="388.081" y="400.724"/><use xlink:href="#F" x="396.189" y="400.724"/><use xlink:href="#V" x="398.834" y="400.724"/><use xlink:href="#T" x="405.192" y="400.724"/><use xlink:href="#ai" x="410.482" y="400.724"/><use xlink:href="#ai" x="412.526" y="400.724"/><use xlink:href="#F" x="414.571" y="400.724"/><use xlink:href="#ab" x="417.216" y="400.724"/><use xlink:href="#W" x="422.567" y="400.724"/><use xlink:href="#T" x="427.917" y="400.724"/><use xlink:href="#J" x="433.207" y="400.724"/><use xlink:href="#I" x="437.51" y="400.724"/><use xlink:href="#as" x="442.81" y="400.724"/><use xlink:href="#ao" x="448.324" y="400.724"/><use xlink:href="#F" x="452.851" y="400.724"/><use xlink:href="#aJ" x="455.495" y="400.724"/><use xlink:href="#ai" x="461.568" y="400.724"/><use xlink:href="#ai" x="463.613" y="400.724"/><use xlink:href="#T" x="465.658" y="400.724"/><use xlink:href="#am" x="470.948" y="400.724"/><use xlink:href="#D" x="475.495" y="400.724"/><use xlink:href="#I" x="477.539" y="400.724"/><use xlink:href="#ae" x="482.839" y="400.724"/><use xlink:href="#T" x="487.183" y="400.724"/><use xlink:href="#an" x="492.473" y="400.724"/><use xlink:href="#F" x="497.468" y="400.724"/></g><g fill="#231f20"><use xlink:href="#ap" x="94.845" y="415.705"/><use xlink:href="#P" x="97.185" y="415.705"/><use xlink:href="#ae" x="102.536" y="415.705"/><use xlink:href="#T" x="106.879" y="415.705"/><use xlink:href="#J" x="112.169" y="415.705"/><use xlink:href="#an" x="116.472" y="415.705"/><use xlink:href="#ae" x="121.467" y="415.705"/><use xlink:href="#D" x="125.811" y="415.705"/><use xlink:href="#ae" x="127.855" y="415.705"/><use xlink:href="#D" x="132.199" y="415.705"/><use xlink:href="#I" x="134.244" y="415.705"/><use xlink:href="#ai" x="139.544" y="415.705"/><use xlink:href="#F" x="141.588" y="415.705"/><use xlink:href="#V" x="144.233" y="415.705"/><use xlink:href="#ao" x="150.591" y="415.705"/><use xlink:href="#an" x="155.118" y="415.705"/><use xlink:href="#ae" x="160.113" y="415.705"/><use xlink:href="#D" x="164.457" y="415.705"/><use xlink:href="#ae" x="166.501" y="415.705"/><use xlink:href="#D" x="170.845" y="415.705"/><use xlink:href="#an" x="172.89" y="415.705"/><use xlink:href="#F" x="177.884" y="415.705"/><use xlink:href="#ah" x="180.529" y="415.705"/><use xlink:href="#ao" x="186.043" y="415.705"/><use xlink:href="#F" x="190.57" y="415.705"/><use xlink:href="#aJ" x="193.215" y="415.705"/><use xlink:href="#ad" x="199.288" y="415.705"/><use xlink:href="#ae" x="204.425" y="415.705"/><use xlink:href="#D" x="208.769" y="415.705"/><use xlink:href="#am" x="210.813" y="415.705"/><use xlink:href="#I" x="215.36" y="415.705"/><use xlink:href="#ae" x="220.66" y="415.705"/><use xlink:href="#D" x="225.004" y="415.705"/><use xlink:href="#P" x="227.049" y="415.705"/><use xlink:href="#X" x="232.4" y="415.705"/><use xlink:href="#F" x="237.903" y="415.705"/><use xlink:href="#M" x="240.548" y="415.705"/><use xlink:href="#P" x="249.317" y="415.705"/><use xlink:href="#ae" x="254.667" y="415.705"/><use xlink:href="#F" x="259.011" y="415.705"/><use xlink:href="#U" x="261.656" y="415.705"/><use xlink:href="#D" x="268.024" y="415.705"/><use xlink:href="#X" x="270.069" y="415.705"/><use xlink:href="#P" x="275.572" y="415.705"/><use xlink:href="#I" x="280.923" y="415.705"/><use xlink:href="#ai" x="286.223" y="415.705"/><use xlink:href="#D" x="288.268" y="415.705"/><use xlink:href="#P" x="290.312" y="415.705"/><use xlink:href="#X" x="295.663" y="415.705"/><use xlink:href="#F" x="301.166" y="415.705"/><use xlink:href="#H" x="303.811" y="415.705"/><use xlink:href="#I" x="309.834" y="415.705"/><use xlink:href="#ae" x="315.133" y="415.705"/><use xlink:href="#W" x="319.477" y="415.705"/><use xlink:href="#aI" x="324.828" y="415.705"/><use xlink:href="#I" x="331.776" y="415.705"/><use xlink:href="#ao" x="337.076" y="415.705"/><use xlink:href="#aa" x="341.603" y="415.705"/><use xlink:href="#F" x="343.617" y="415.705"/><use xlink:href="#U" x="346.262" y="415.705"/><use xlink:href="#ae" x="352.63" y="415.705"/><use xlink:href="#T" x="356.974" y="415.705"/><use xlink:href="#E" x="362.263" y="415.705"/><use xlink:href="#F" x="370.371" y="415.705"/><use xlink:href="#V" x="373.016" y="415.705"/><use xlink:href="#T" x="379.374" y="415.705"/><use xlink:href="#ai" x="384.663" y="415.705"/><use xlink:href="#ai" x="386.708" y="415.705"/><use xlink:href="#an" x="388.753" y="415.705"/><use xlink:href="#F" x="393.748" y="415.705"/><use xlink:href="#al" x="396.392" y="415.705"/><use xlink:href="#T" x="403.005" y="415.705"/><use xlink:href="#am" x="408.294" y="415.705"/><use xlink:href="#aa" x="412.842" y="415.705"/><use xlink:href="#F" x="414.856" y="415.705"/><use xlink:href="#au" x="417.501" y="415.705"/><use xlink:href="#av" x="422.994" y="415.705"/><use xlink:href="#aw" x="428.599" y="415.705"/><use xlink:href="#ax" x="433.055" y="415.705"/><use xlink:href="#ay" x="438.67" y="415.705"/><use xlink:href="#au" x="440.684" y="415.705"/><use xlink:href="#az" x="446.177" y="415.705"/><use xlink:href="#aA" x="451.691" y="415.705"/><use xlink:href="#aw" x="454.56" y="415.705"/><use xlink:href="#az" x="459.015" y="415.705"/><use xlink:href="#aB" x="464.529" y="415.705"/><use xlink:href="#aC" x="467.397" y="415.705"/><use xlink:href="#aw" x="469.412" y="415.705"/><use xlink:href="#aD" x="473.867" y="415.705"/><use xlink:href="#az" x="479.452" y="415.705"/><use xlink:href="#aG" x="484.966" y="415.705"/><use xlink:href="#ak" x="490.581" y="415.705"/><use xlink:href="#ax" x="495.362" y="415.705"/><use xlink:href="#aH" x="500.977" y="415.705"/><use xlink:href="#aa" x="505.504" y="415.705"/></g></svg>