<svg xmlns="http://www.w3.org/2000/svg" xmlns:xlink="http://www.w3.org/1999/xlink" width="793.701" height="1058.268" viewBox="0 0 595.276 793.701" version="1.2"><defs><symbol overflow="visible" id="a"><path d="M7.422 1.36v-7.985h-.734v2.938h-.954V-6.5H5V.984h.734v-3.953h.954V1.36zM2.938-4.626v-.813H4.28v-.625H.813v.625h1.359v.688c0 .48-.043.926-.125 1.328a4.915 4.915 0 0 1-.344 1.125 3.87 3.87 0 0 1-.64.938c-.25.28-.551.539-.891.765.05.043.11.086.172.125.07.031.133.067.187.094a17.48 17.48 0 0 0 .328.234c.176-.12.352-.28.532-.468.175-.196.347-.407.515-.625.145-.196.274-.407.39-.625a3.29 3.29 0 0 0 .25-.672c.052.219.13.43.235.625a4.693 4.693 0 0 0 .844 1.078c.164.156.332.289.5.39a1 1 0 0 1 .266-.25l.125-.125.156-.125a3.154 3.154 0 0 1-.797-.656 3.326 3.326 0 0 1-.547-.86 5.18 5.18 0 0 1-.297-.983 7.006 7.006 0 0 1-.094-1.188zm0 0"/></symbol><symbol overflow="visible" id="b"><path d="M6.078-6.625V-.75h.75v-3.266h1.11v-.64h-1.11v-1.969zm-.344 3.234a5.189 5.189 0 0 1-.562.094c-.242.031-.496.067-.766.094a19.67 19.67 0 0 1-.812.078 8.224 8.224 0 0 1-.703.031l-1.313.016v-2.547H4.61v-.64H.844v3.843H2.25c.227-.008.422-.015.578-.015.258-.008.531-.024.813-.047.277-.02.55-.047.812-.079.258-.027.5-.062.719-.093a3.59 3.59 0 0 0 .562-.11zm1.344 4.594v-.64H2.422v-2.016h-.75v2.656zm0 0"/></symbol><symbol overflow="visible" id="c"><path d="M7.11-2.313v-4.312h-.75v1.578H4.624v-1.312h-.719v1.187h-2.25v-1.187H.922v3.687h3.703V-4.39h1.734v2.079zm-3.204-1h-2.25V-4.53h2.25zM7.11 1.282v-3.234h-.75v.922H2.547v-.922h-.75V1.28zm-.75-.61H2.547V-.405h3.812zm0 0"/></symbol><symbol overflow="visible" id="d"><path d="M7.11-.75v-5.875h-.75V-.75zM.61-4.406c0 .281.05.554.156.812.101.25.242.477.421.672.196.18.422.324.672.438.258.117.551.171.875.171.301 0 .582-.054.844-.171.258-.114.485-.258.672-.438.184-.195.332-.422.438-.672a2.21 2.21 0 0 0 .156-.812c0-.29-.055-.563-.157-.813a2.292 2.292 0 0 0-.437-.687 2.083 2.083 0 0 0-.672-.438 2.102 2.102 0 0 0-.844-.172c-.324 0-.617.059-.875.172-.25.106-.476.254-.671.438-.18.199-.32.43-.422.687-.106.25-.157.524-.157.813zm.765 0c0-.403.113-.75.344-1.032.238-.289.578-.437 1.015-.437.426 0 .758.148 1 .438.239.28.36.628.36 1.03 0 .4-.121.739-.36 1.016-.242.282-.574.422-1 .422-.437 0-.777-.14-1.015-.422-.23-.277-.344-.617-.344-1.015zm5.969 5.61V.562H2.562v-1.985h-.75v2.625zm0 0"/></symbol><symbol overflow="visible" id="f"><path d="M7.047 1.36v-7.985H6.28v7.984zM4.687-.657v-5.469H.97v5.469zm-.734-.64H1.72V-5.47h2.234zm0 0"/></symbol><symbol overflow="visible" id="g"><path d="M7.203 1.36v-7.985H6.47v2.844h-.985V-6.5H4.75V.984h.734v-4.046h.985v4.421zm-2.75-2.75c-.094.023-.21.042-.344.062-.136.023-.289.039-.453.047-.168.023-.336.039-.5.047H2.72l-1.063.015V-3.03h2.157v-3.125H.921v.64h2.172v1.844H.922v3.11l1.547-.016c.383 0 .765-.02 1.14-.063.371-.039.657-.078.844-.109zm0 0"/></symbol><symbol overflow="visible" id="h"><path d="M7.203 1.36v-7.985h-.75v7.984zM1.031-4.376a1.965 1.965 0 0 0 .578 1.406c.196.188.426.336.688.438.258.105.547.156.86.156.3 0 .581-.05.843-.156.258-.102.484-.25.672-.438a1.92 1.92 0 0 0 .437-.625c.114-.246.172-.508.172-.781 0-.27-.058-.523-.172-.766a2.006 2.006 0 0 0-.437-.625A2.182 2.182 0 0 0 4-6.187a2.102 2.102 0 0 0-.844-.172c-.312 0-.601.058-.86.171a2.308 2.308 0 0 0-.687.422 1.961 1.961 0 0 0-.578 1.391zm.735 0c0-.371.117-.691.359-.953.246-.27.594-.406 1.031-.406.426 0 .758.136 1 .406.239.262.36.582.36.953 0 .375-.121.7-.36.969-.242.261-.574.39-1 .39-.437 0-.785-.129-1.031-.39a1.399 1.399 0 0 1-.36-.969zm4.406 3.016a7.804 7.804 0 0 1-.688.093c-.28.032-.586.059-.906.079-.324.023-.637.042-.937.062a8.814 8.814 0 0 1-.688.031 4.92 4.92 0 0 1-.515.016H.609v.656s.086.008.266.016h1.266c.214 0 .367-.004.453-.016.363 0 .722-.008 1.078-.031.351-.02.687-.047 1-.078.308-.028.594-.063.844-.094a9.75 9.75 0 0 0 .656-.094zm0 0"/></symbol><symbol overflow="visible" id="i"><path d="M8.047-3.813v-.671H6.922v-2.141h-.766V-1.5h.766v-2.313zM4.14-6.046v-.594H1.687v.594zm1.14 1.203v-.593H.594v.593zM.921-3.078c0 .18.048.351.141.515.102.157.239.293.407.407.183.125.398.226.64.297.246.062.52.093.813.093.621 0 1.117-.125 1.484-.375.364-.257.547-.57.547-.937 0-.363-.183-.676-.547-.938-.355-.257-.847-.39-1.468-.39-.305 0-.583.039-.829.11-.25.062-.464.16-.64.28-.18.118-.317.258-.407.422-.093.168-.14.34-.14.516zm.782-.016c0-.215.11-.39.328-.515.227-.133.531-.204.906-.204.383 0 .688.067.907.188.215.125.328.305.328.531 0 .23-.113.414-.328.547-.219.137-.524.203-.906.203-.376 0-.68-.062-.907-.187a.625.625 0 0 1-.328-.563zm5.219 4.5v-2.515h-5.36v.625h4.579v1.89zm0 0"/></symbol><symbol overflow="visible" id="j"><path d="M7.11-.75v-5.875h-.75v.922H4.421a2.105 2.105 0 0 0-1.703-.844 2.076 2.076 0 0 0-1.531.64 1.962 1.962 0 0 0-.438.673c-.094.261-.14.535-.14.812 0 .293.046.57.14.828.102.25.25.477.438.672.183.188.41.34.671.453.258.106.547.156.86.156.37 0 .71-.078 1.015-.234.309-.164.555-.383.735-.656h1.89V-.75zm-.75-3.11H4.75a1.39 1.39 0 0 0 .063-.265c.019-.102.03-.203.03-.297a1.73 1.73 0 0 0-.03-.312 1.769 1.769 0 0 0-.063-.313h1.61zm-4.985-.562c0-.402.113-.75.344-1.031.238-.29.57-.438 1-.438.433 0 .77.149 1 .438.238.281.36.629.36 1.031 0 .406-.122.754-.36 1.031-.23.282-.567.422-1 .422-.43 0-.762-.14-1-.422-.23-.277-.344-.625-.344-1.03zm5.953 5.625v-.64H2.562v-1.985h-.75v2.625zm0 0"/></symbol><symbol overflow="visible" id="k"><path d="M7.781-2.156v-.64H6.484c.051-.227.098-.49.141-.782l.125-.906c.027-.32.055-.641.078-.954.027-.32.05-.625.063-.906H1.156v.64h4.938c-.024.481-.07.974-.14 1.47-.063.492-.15.972-.25 1.437H.265v.64h3.312V1.36h.75v-3.515zm0 0"/></symbol><symbol overflow="visible" id="m"><path d="M3.813-4.36v-.015h1.593v-.813h-4.25v.813h1.578v.016c-.023.18-.086.351-.187.515a2.406 2.406 0 0 1-.406.453c-.211.168-.446.317-.704.438a4.476 4.476 0 0 1-.796.297c.113.105.238.226.375.36.144.124.257.241.343.343.207-.07.407-.16.594-.266a4.05 4.05 0 0 0 .547-.344c.164-.113.316-.238.453-.374.133-.145.242-.29.328-.438.09.156.207.3.344.422.145.125.3.246.469.36.164.116.336.214.515.296.176.086.344.149.5.188.059-.09.145-.204.25-.329.114-.12.227-.242.344-.359-.2-.039-.41-.11-.625-.203a3.041 3.041 0 0 1-.594-.375 2.077 2.077 0 0 1-.453-.453 1.053 1.053 0 0 1-.218-.531zm2.25 3.126a6.179 6.179 0 0 1-.594.078c-.219.023-.446.039-.672.047-.219.011-.43.023-.625.03a7.116 7.116 0 0 1-.422.016V-2.25h-.969v1.203H.562v.86h1.844c.29 0 .614-.004.969-.016A22.94 22.94 0 0 0 4.422-.25c.34-.02.656-.04.937-.063.29-.019.524-.046.704-.078zm1.25 2.609v-8.016h-.954v8.016zm-2.86-7.11v-.796H2.016v.797zm0 0"/></symbol><symbol overflow="visible" id="n"><path d="M7.203-.75v-5.89h-.969v5.89zM3.328-5.39v-1.094H2.297v1.125c0 .304-.055.59-.156.859-.094.262-.23.496-.407.703-.199.262-.433.496-.703.703-.273.2-.558.367-.86.5.134.106.274.223.423.344.152.125.273.23.36.313.175-.09.359-.208.546-.344a5.69 5.69 0 0 0 .547-.453c.164-.153.316-.329.453-.516.145-.184.25-.375.313-.563.101.2.234.383.39.547.152.168.32.325.5.47.152.136.32.26.5.374.176.117.344.211.5.281.07-.101.164-.222.281-.359.121-.133.239-.266.344-.39a2.993 2.993 0 0 1-.75-.376 2.764 2.764 0 0 1-.64-.578 2.758 2.758 0 0 1-.454-.719 2.17 2.17 0 0 1-.156-.828zm4.063 6.609V.375H2.766v-1.734h-1v2.578zm0 0"/></symbol><symbol overflow="visible" id="o"><path d="M7.781-2.063v-.843h-3.25v-.906h2.39v-.829H2.204v-.984h4.64v-.828H1.235v2.64h2.297v.907H.281v.844zm-3.75 3.594c.965 0 1.707-.152 2.219-.453.508-.305.766-.676.766-1.11 0-.445-.258-.816-.766-1.109-.512-.289-1.254-.437-2.219-.437-.98 0-1.726.148-2.234.437-.512.293-.766.664-.766 1.11 0 .433.254.804.766 1.11.508.3 1.254.452 2.234.452zM2.156-.047c0-.246.16-.441.485-.578.332-.133.796-.203 1.39-.203.57 0 1.024.074 1.36.219.332.136.5.332.5.578 0 .246-.168.441-.5.578C5.055.68 4.6.75 4.03.75c-.593 0-1.058-.074-1.39-.219C2.316.395 2.156.2 2.156-.047zm0 0"/></symbol><symbol overflow="visible" id="p"><path d="M7.906-2.875v-.828H6.875v-.922h1.031v-.828H6.875v-1.188h-.969v5.063h.969v-1.297zM4.063-5.953v-.734H1.578v.734zm1.125 1.219v-.735H.468v.735zM.702-3.188c0 .18.05.348.156.5.114.149.266.274.454.376.183.117.41.21.671.28.258.063.54.095.844.095.645 0 1.16-.118 1.547-.36.383-.238.578-.539.578-.906 0-.34-.195-.629-.578-.86-.375-.226-.887-.343-1.531-.343-.313 0-.602.035-.86.093a2.298 2.298 0 0 0-.671.266c-.188.106-.34.238-.454.39a.794.794 0 0 0-.156.47zm3.235-.015c0 .2-.102.348-.297.437-.2.094-.465.141-.797.141-.344 0-.617-.047-.813-.14-.199-.09-.297-.235-.297-.422 0-.176.098-.317.297-.422.196-.102.469-.157.813-.157.332 0 .597.055.797.157.195.093.296.23.296.406zM7.046 0a.949.949 0 0 0-.219-.61 1.8 1.8 0 0 0-.578-.484 3.32 3.32 0 0 0-.922-.297A5.637 5.637 0 0 0 4.203-1.5c-.406 0-.789.04-1.14.11-.344.062-.649.16-.907.28a1.688 1.688 0 0 0-.61.47.927.927 0 0 0-.218.609c0 .238.067.453.203.64.145.196.348.364.61.5.257.133.562.235.906.297.351.07.734.11 1.14.11a6.6 6.6 0 0 0 1.11-.094 3.32 3.32 0 0 0 .922-.297c.258-.125.46-.285.61-.469.144-.187.218-.41.218-.656zm-4.64-.016c0-.132.046-.25.14-.343.101-.102.238-.18.406-.235a2.49 2.49 0 0 1 .563-.125c.214-.027.441-.047.671-.047.489 0 .899.067 1.235.188.34.125.516.316.516.562 0 .133-.055.25-.157.344a1.49 1.49 0 0 1-.375.25c-.168.059-.355.11-.562.14-.211.028-.426.048-.64.048-.243 0-.474-.02-.688-.047a2.957 2.957 0 0 1-.563-.14.952.952 0 0 1-.406-.25.472.472 0 0 1-.14-.345zm0 0"/></symbol><symbol overflow="visible" id="q"><path d="M7.797.484v-.843H4.53V-2h2.282v-4.422h-.97v1.313h-3.64v-1.313h-.969V-2h2.282v1.64H.28v.844zM5.844-2.844h-3.64v-1.422h3.64zm0 0"/></symbol><symbol overflow="visible" id="r"><path d="M1.078-6.203v.828h4.766c-.024.637-.074 1.3-.157 1.984-.085.68-.183 1.336-.296 1.97h.968l.172-1.141c.059-.415.114-.833.157-1.25.05-.426.093-.844.125-1.25.027-.415.054-.797.078-1.141zM7.797.484v-.843H3.844v-2.985h-.985v2.985H.281v.843zm0 0"/></symbol><symbol overflow="visible" id="s"><path d="M7.203 1.375v-8.016H6.22v2.313H4.53v.906H6.22v4.797zm-3.89-5.938v-1.765H2.296v1.719c0 .406-.05.793-.14 1.156-.087.355-.212.683-.376.984-.187.356-.43.68-.718.969a4.889 4.889 0 0 1-.97.75c.145.094.29.207.438.328.153.117.281.223.375.313.176-.114.364-.258.563-.438.195-.183.39-.39.578-.61a7.06 7.06 0 0 0 .453-.64 2.62 2.62 0 0 0 .313-.656c.09.23.21.457.359.672.152.218.32.426.5.61.164.187.336.362.515.515.176.148.348.273.516.375a5.852 5.852 0 0 1 .719-.656 5.685 5.685 0 0 1-.922-.704 3.572 3.572 0 0 1-.688-.89 3.265 3.265 0 0 1-.374-.922 4.443 4.443 0 0 1-.126-1.11zm0 0"/></symbol><symbol overflow="visible" id="u"><path d="M2.766-.547L1.125-6.125H.109L2.266.672h.968l2.172-6.797H4.391zm0 0"/></symbol><symbol overflow="visible" id="v"><path d="M2.438-3.688c.382 0 .675.18.874.532.196.355.297.82.297 1.39 0 .586-.101 1.051-.296 1.391-.2.344-.493.516-.876.516-.374 0-.664-.172-.859-.516-.187-.34-.281-.805-.281-1.39 0-.57.094-1.036.281-1.391.195-.352.484-.531.86-.531zm0-.75c-.7 0-1.227.247-1.579.735-.343.492-.515 1.137-.515 1.937C.344-.96.516-.32.859.156c.352.477.88.719 1.579.719.695 0 1.226-.242 1.593-.719.364-.476.547-1.117.547-1.922 0-.8-.183-1.445-.547-1.937-.367-.488-.898-.735-1.593-.735zm0 0"/></symbol><symbol overflow="visible" id="w"><path d="M.563-6.125V.672h.906v-6.797zm0 0"/></symbol><symbol overflow="visible" id="x"><path d="M.64-.047v1.203h1.25V-.047zm0 0"/></symbol><symbol overflow="visible" id="y"><path d="M2-6.25c-.605 0-1.059.324-1.36.969C.349-4.645.204-3.77.204-2.656c0 1.117.145 1.992.438 2.625.3.62.754.937 1.359.937.602 0 1.055-.316 1.36-.937.308-.633.468-1.508.468-2.625 0-1.114-.16-1.989-.469-2.625C3.055-5.926 2.602-6.25 2-6.25zm0 .797c.27 0 .488.258.656.766.164.5.25 1.18.25 2.03 0 .845-.086 1.52-.25 2.016-.168.5-.386.75-.656.75-.273 0-.488-.25-.64-.75-.157-.496-.235-1.171-.235-2.015 0-.852.078-1.531.234-2.031.153-.508.368-.766.641-.766zm0 0"/></symbol><symbol overflow="visible" id="z"><path d="M2.906-2.063c-.054.688-.18 1.231-.375 1.626-.187.386-.41.578-.656.578-.219 0-.395-.114-.516-.329a1.565 1.565 0 0 1-.203-.75H.25C.25-.344.395.113.688.438c.3.32.703.485 1.203.485.351 0 .656-.106.906-.313.258-.199.46-.476.61-.828.152-.351.269-.77.343-1.25.07-.476.11-1 .11-1.562 0-.477-.04-.914-.11-1.313a3.483 3.483 0 0 0-.344-1.015c-.148-.278-.34-.5-.578-.657a1.42 1.42 0 0 0-.844-.25c-.562 0-1.011.223-1.343.657-.336.437-.5 1.023-.5 1.75 0 .398.047.738.14 1.015.102.281.235.512.39.688.153.187.337.324.548.406.207.086.414.125.625.125a1.7 1.7 0 0 0 .562-.094c.184-.058.352-.176.5-.343zm-.953-.359c-.273 0-.488-.14-.64-.422-.157-.277-.235-.656-.235-1.125 0-.445.078-.812.234-1.094.153-.277.368-.421.641-.421.238 0 .445.148.625.437.176.281.266.645.266 1.078 0 .469-.09.848-.266 1.125-.168.281-.379.422-.625.422zm0 0"/></symbol><symbol overflow="visible" id="A"><path d="M3.422-7.313a.124.124 0 0 0-.031-.078.119.119 0 0 0-.079-.062.133.133 0 0 0-.078 0 .589.589 0 0 0-.078.047l-1.844.828a.934.934 0 0 0-.218.078c-.086.043-.125.102-.125.172 0 .043.008.082.031.11a.143.143 0 0 0 .094.03c.05 0 .113-.015.187-.046.07-.028.133-.051.188-.063l.687-.312c.051-.02.102-.04.156-.063a.364.364 0 0 1 .172-.047c.07 0 .118.024.141.063.02.043.031.097.031.156v5.078c0 .367-.043.617-.125.75-.074.125-.316.188-.719.188-.25 0-.414.011-.484.03-.074.013-.11.052-.11.11 0 .063.016.106.048.125.027.024.082.032.156.032h3.094c.058 0 .109-.008.14-.032.028-.02.047-.054.047-.11 0-.058-.02-.1-.047-.124a.278.278 0 0 0-.14-.031h-.329c-.375 0-.601-.079-.671-.235-.063-.164-.094-.41-.094-.734zm0 0"/></symbol><symbol overflow="visible" id="B"><path d="M1.672.344c-.012.02-.008.031.016.031.019.008.035.016.046.016h.172c.082 0 .13-.028.14-.079.02-.042.052-.105.095-.187l3.125-7.047c.02-.027.039-.066.062-.11a.385.385 0 0 0 .031-.124c0-.082-.054-.125-.156-.125C5.11-7.29 5.04-7.297 5-7.297H.5c-.074 0-.121.024-.14.063a.329.329 0 0 0-.032.156l.047.61c.008.011.016.042.016.093.007.055.03.078.062.078.02 0 .04-.004.063-.016l.046-.046c.114-.028.204-.051.266-.063.07-.008.164-.016.281-.016h3.235c.05 0 .097.012.14.032.051.023.079.066.079.125 0 .031-.02.082-.047.14a.712.712 0 0 0-.063.157zm0 0"/></symbol><symbol overflow="visible" id="C"><path d="M4.094-6.734l.203-.032a.45.45 0 0 0 .14-.015c.04-.02.07-.055.094-.11l.078-.312c0-.008.008-.067.032-.172.027-.102.046-.16.046-.172 0-.058-.027-.086-.078-.078a.7.7 0 0 0-.14.016l-2.594.343c-.219.032-.352.067-.39.094-.044.031-.098.152-.157.36l-.61 2.109a.385.385 0 0 0-.046.11.438.438 0 0 0-.031.14c0 .043.02.07.062.078.04.012.078.016.11.016a10.782 10.782 0 0 1 2 .28c.433.126.796.325 1.078.595.277.273.421.652.421 1.14 0 .45-.144.867-.421 1.25a3.069 3.069 0 0 1-.985.89 5.708 5.708 0 0 1-1.015.407A5.046 5.046 0 0 1 .828.422a.758.758 0 0 0-.14.016C.632.457.609.5.609.561c0 .04.016.067.047.079a.19.19 0 0 0 .11.03c.101 0 .257-.023.468-.062A9.032 9.032 0 0 0 2.531.25c.278-.094.535-.207.766-.328a4.62 4.62 0 0 0 1.219-1.047c.363-.426.546-.914.546-1.469 0-.37-.097-.734-.28-1.078A2.1 2.1 0 0 0 4-4.5a3.72 3.72 0 0 0-1.047-.375 8.69 8.69 0 0 0-1.11-.172l-.421-.031a5.264 5.264 0 0 1-.203-.031c-.074-.008-.11-.051-.11-.125 0-.028.008-.079.032-.141a.934.934 0 0 1 .046-.14l.125-.47c.07-.226.133-.35.188-.374.05-.028.203-.063.453-.094zm0 0"/></symbol><symbol overflow="visible" id="D"><path d="M4.828-1.906c0-.953-.234-1.532-1-1.735.766-.234.938-.875.938-1.64 0-1.313-.563-1.782-2.016-1.782-1.313 0-2.016.36-2.016 1.47h.422c0-.782.5-1.048 1.594-1.048 1.219 0 1.578.313 1.578 1.391 0 1.188-.516 1.406-1.578 1.406h-.953v.422h.953c.625 0 .969.063 1.234.266.282.219.407.594.407 1.281 0 1.25-.516 1.531-1.672 1.531-1.078 0-1.563-.281-1.563-1.078H.734c0 1.172.797 1.5 1.985 1.5 1.406 0 2.11-.469 2.11-1.984zm0 0"/></symbol><symbol overflow="visible" id="E"><path d="M1.406-.281c0-.25-.11-.36-.343-.36-.235 0-.344.11-.344.36 0 .234.11.36.344.36.234 0 .343-.126.343-.36zm0 0"/></symbol><symbol overflow="visible" id="G"><path d="M4.422-2.156V-7h-.453v4.86c0 1.187-.219 1.78-1.531 1.78C1.359-.36.843-.624.843-1.78H.422c0 1.422.687 1.86 2.015 1.86 1.594 0 1.985-.782 1.985-2.235zm0 0"/></symbol><symbol overflow="visible" id="H"><path d="M5.578 0l-3.75-3.516L5.562-7h-.625l-3.5 3.313V-7H1v7h.438v-3.297L4.905 0zm0 0"/></symbol><symbol overflow="visible" id="I"><path d="M5.656-5.11C5.656-7 4.672-7 3.188-7H1v7h.438v-3.234h1.75c1.468 0 2.468-.032 2.468-1.875zm-.453-.015c0 1.547-.812 1.469-2.062 1.469H1.437v-2.922h1.704c1.234 0 2.062-.063 2.062 1.453zm0 0"/></symbol><symbol overflow="visible" id="J"><path d="M4.625 0v-2.922c0-1.14.14-2.172-1.875-2.172-1.016 0-2.031.219-2.031 1.453h.406c0-.937.828-1.03 1.547-1.03 1.625 0 1.515.609 1.515 1.702H2.47c-1.156 0-1.875.235-1.875 1.547 0 1.063.562 1.5 1.812 1.5.906 0 1.547-.281 1.813-.86V0zm-.438-2.563c.032 1.391-.14 2.235-1.812 2.235-.984 0-1.344-.328-1.344-1.094 0-1 .532-1.14 1.39-1.14zm0 0"/></symbol><symbol overflow="visible" id="K"><path d="M4.281-3.656c0-1.016-.562-1.438-1.5-1.438-.578 0-1.156.157-1.515.813v-.735H.859V0h.438v-2.172c0-1.125-.094-2.5 1.437-2.5.72 0 1.141.219 1.141 1.016zm0 0"/></symbol><symbol overflow="visible" id="L"><path d="M4.531 0L1.703-2.688 4.5-5.015h-.61L1.298-2.859v-4.454H.859V0h.438v-2.531L3.922 0zm0 0"/></symbol><symbol overflow="visible" id="M"><path d="M1.281.156v-.781H.86v.781c0 .438-.015.656-.343.969l-.188.203.266.281.265-.234c.36-.328.422-.625.422-1.219zm0 0"/></symbol><symbol overflow="visible" id="N"><path d="M5.188-7h-.485L2.672-3.516.609-7h-.5l2.313 3.922V0h.437v-3.078zm0 0"/></symbol><symbol overflow="visible" id="O"><path d="M5.719-1.922c0-.734-.14-1.453-.922-1.672.687-.219.86-.953.86-1.61C5.656-7.062 4.53-7 3.202-7H1v7h2.266c1.453 0 2.453-.016 2.453-1.922zm-.5-3.328c0 1.5-.813 1.469-2.016 1.469H1.438v-2.797H3.14c1.187 0 2.078-.125 2.078 1.328zm.047 3.36c0 1.562-.797 1.468-2.079 1.468h-1.75V-3.39h1.75c1.344 0 2.079-.046 2.079 1.5zm0 0"/></symbol><symbol overflow="visible" id="P"><path d="M4.36-5.016h-.47L2.376-.578.797-5.016H.328l1.813 5L1.406 2h.438zm0 0"/></symbol><symbol overflow="visible" id="Q"><path d="M4.594 0v-5.016h-.438v2.235c0 1.14.078 2.437-1.61 2.437-.452 0-.796-.094-1.015-.312-.328-.313-.328-.781-.328-1.766v-2.594H.766v2.672c0 .953-.016 1.547.421 2 .266.281.704.422 1.36.422.64 0 1.281-.187 1.64-.828V0zm0 0"/></symbol><symbol overflow="visible" id="R"><path d="M4.672 0v-2.672c0-.953.031-1.547-.406-2-.266-.281-.704-.422-1.36-.422-.64 0-1.297.188-1.64.844v-.766H.859V0h.438v-2.219c0-1.156-.078-2.453 1.61-2.453.452 0 .796.094 1.015.313.328.312.312.78.312 1.765V0zm0 0"/></symbol><symbol overflow="visible" id="S"><path d="M5.906 0L3.313-7h-.47L.267 0h.453L1.5-2.14h3.14L5.439 0zM4.484-2.531H1.656l1.422-3.922zm0 0"/></symbol><symbol overflow="visible" id="T"><path d="M1.406-6.734c0-.235-.11-.329-.328-.329-.219 0-.328.094-.328.329 0 .218.11.343.328.343.219 0 .328-.125.328-.343zM1.296 0v-5.016H.86V0zm0 0"/></symbol><symbol overflow="visible" id="U"><path d="M7.438 0v-3.031c0-.781.125-2.063-1.594-2.063-.61 0-1.282.219-1.594.907-.203-.704-.813-.907-1.469-.907-.61 0-1.219.203-1.515.797v-.719H.859V0h.438v-2.203c0-1.125-.094-2.469 1.437-2.469 1.125 0 1.188.61 1.188 1.625V0h.437v-2.203c0-1.188-.046-2.453 1.454-2.453 1.14 0 1.187.593 1.187 1.61V0zm0 0"/></symbol><symbol overflow="visible" id="V"><path d="M5.031 0v-.422H1.438V-7H1v7zm0 0"/></symbol><symbol overflow="visible" id="W"><path d="M4.719-2.469c0-1.656-.188-2.625-2.016-2.625C.891-5.094.672-4.14.672-2.5.672-.812.922.078 2.719.078c.984 0 1.922-.281 1.922-1.453h-.407c0 .875-.796 1.016-1.5 1.016-1.515 0-1.625-.72-1.625-2.11zm-.422-.406H1.109c0-1.219.329-1.797 1.594-1.797 1.266 0 1.594.547 1.594 1.797zm0 0"/></symbol><symbol overflow="visible" id="X"><path d="M1.438 0v-7H1v7zm0 0"/></symbol><symbol overflow="visible" id="Y"><path d="M5.922-3.5c0-2.125.078-3.563-2.547-3.563S.828-5.625.828-3.5.75.078 3.375.078 5.922-1.375 5.922-3.5zm-.453.016c0 2.03.078 3.125-2.094 3.125-2.172 0-2.094-1.094-2.094-3.125 0-2.047-.078-3.157 2.094-3.157 2.172 0 2.094 1.11 2.094 3.157zm0 0"/></symbol><symbol overflow="visible" id="Z"><path d="M4.672 0v-2.672c0-.953.031-1.531-.406-2-.266-.281-.72-.422-1.36-.422-.64 0-1.265.172-1.61.813v-3.032H.86V0h.438v-2.219c0-1.156-.078-2.453 1.61-2.453.452 0 .796.094 1.015.313.328.312.312.78.312 1.765V0zm0 0"/></symbol><symbol overflow="visible" id="aa"><path d="M5.719-2.016c0-1.765-1.125-1.765-2.485-1.78-1.093-.017-2.046.093-2.046-1.329 0-1.406.812-1.516 2-1.516 1.078 0 2.046.063 2.046 1.438h.422c0-1.64-1.093-1.86-2.453-1.86C1.75-7.063.75-6.827.75-5.109c0 1.765 1.125 1.718 2.469 1.75 1.203.015 2.047-.079 2.047 1.375C5.266-.578 4.453-.36 3.25-.36c-1.11 0-2.063-.063-2.063-1.422H.75c0 1.64 1.11 1.86 2.469 1.86 1.484 0 2.5-.392 2.5-2.095zm0 0"/></symbol><symbol overflow="visible" id="ab"><path d="M4.75-.453v-4.563h-.422v.735c-.312-.547-.875-.813-1.719-.813C.766-5.094.672-3.969.672-2.562.672-1 .812.015 2.609.015 3.453.016 4-.266 4.313-.813 4.296-.234 4.39.391 4.14.923c-.25.531-.829.687-1.5.687-.938 0-1.438-.312-1.438-1.015H.781c.016 1.015.735 1.437 1.89 1.437.845 0 1.548-.234 1.86-.937.172-.375.219-.797.219-1.547zm-.422-2.094c0 1.64-.469 2.11-1.766 2.11-1.406 0-1.453-.891-1.453-2.11 0-1.203.047-2.125 1.454-2.125 1.312 0 1.765.516 1.765 2.125zm0 0"/></symbol><symbol overflow="visible" id="ac"><path d="M5.64 0v-7h-.437v3.188H1.437V-7H1v7h.438v-3.39h3.765V0zm0 0"/></symbol><symbol overflow="visible" id="ad"><path d="M8.36-7h-.438L6.406-.656 4.703-7h-.531L2.469-.656.969-7H.516l1.656 7h.547l1.719-6.39L6.14 0h.53zm0 0"/></symbol><symbol overflow="visible" id="ae"><path d="M4.844-2.5c0-1.5-.14-2.594-2.094-2.594C.797-5.094.672-4 .672-2.5.672-1 .797.078 2.75.078 4.703.078 4.844-1 4.844-2.5zm-.438 0c0 1.406-.093 2.14-1.656 2.14-1.547 0-1.64-.734-1.64-2.14 0-1.406.093-2.172 1.64-2.172 1.563 0 1.656.766 1.656 2.172zm0 0"/></symbol><symbol overflow="visible" id="af"><path d="M7.328 0v-7h-.61L4.173-.5 1.594-7H1v7h.422v-6.344L3.922 0h.469l2.5-6.344V0zm0 0"/></symbol><symbol overflow="visible" id="ag"><path d="M5.031-5.11l-.125-.374-2.047.656V-7h-.39v2.172L.406-5.484l-.125.375 2.078.656-1.265 1.766.312.218 1.25-1.734L3.922-2.47l.312-.219L2.97-4.452zm0 0"/></symbol><symbol overflow="visible" id="ah"><path d="M5.078 0v-.422H1.453V-3.39H4.97v-.421H1.453v-2.766h3.625V-7H1v7zm0 0"/></symbol><symbol overflow="visible" id="ai"><path d="M2.563 2v-.406c-.891 0-1.188-.25-1.376-.719C1 .359.829-1.265.829-3.219c0-1.953.172-3.594.36-4.11.187-.468.484-.718 1.375-.718v-.406c-1.063 0-1.594.312-1.844 1.14C.53-6.64.406-5.124.406-3.202.406-1.297.531.187.72.859.969 1.703 1.5 2 2.563 2zm0 0"/></symbol><symbol overflow="visible" id="aj"><path d="M4.875-5.125c0-.75-.156-1.234-.516-1.531-.328-.282-.875-.407-1.515-.407-1.281 0-1.985.36-1.985 1.47h.438c0-.798.5-1.048 1.578-1.048.766 0 1.219.188 1.406.594.11.234.157.531.157.922 0 .516-.11.844-.344 1.094-.375.437-1.438.672-2.032.906C1.345-2.844.86-2.437.86-1.531V0h4v-.422H1.297v-.906c0-.75.125-1.063.875-1.39.547-.235 1.719-.485 2.219-.97.343-.343.484-.796.484-1.437zm0 0"/></symbol><symbol overflow="visible" id="ak"><path d="M4.922-3.484c0-1.766-.047-2.235-.25-2.657-.313-.64-.89-.921-1.828-.921-.938 0-1.516.28-1.813.921-.203.422-.25.891-.25 2.657 0 1.53.031 2.03.172 2.421.25.782.875 1.141 1.89 1.141 1.032 0 1.657-.36 1.923-1.14.125-.391.156-.891.156-2.422zm-.438 0c0 1.53-.046 2.062-.203 2.421-.203.485-.61.72-1.437.72-.813 0-1.219-.235-1.438-.72-.14-.359-.187-.89-.187-2.421 0-1.344.047-1.938.14-2.266.188-.61.594-.89 1.485-.89.906 0 1.312.28 1.5.89.093.328.14.922.14 2.266zm0 0"/></symbol><symbol overflow="visible" id="al"><path d="M4.328 0v-.422h-1.64V-7h-.422L.562-5.437l.282.296L2.25-6.437v6.015H.594V0zm0 0"/></symbol><symbol overflow="visible" id="am"><path d="M4.906-2.14c0-1.61-.547-2.235-1.984-2.235-.86 0-1.39.344-1.688.906 0-.64-.015-1.703.157-2.281.187-.625.609-.89 1.53-.89.97 0 1.454.327 1.454 1.046h.422c0-1.047-.703-1.468-1.875-1.468-1.188 0-1.844.421-2 1.39-.094.516-.14 1.36-.14 2.469 0 1 .077 1.719.218 2.14.266.735.938 1.141 1.89 1.141 1.407 0 2.016-.687 2.016-2.219zm-.437.015c0 1.297-.438 1.766-1.594 1.766-1.11 0-1.61-.532-1.61-1.829 0-1.187.563-1.765 1.72-1.765 1.109 0 1.484.437 1.484 1.828zm0 0"/></symbol><symbol overflow="visible" id="an"><path d="M2.563-3.203c0-1.922-.126-3.438-.313-4.11C2-8.14 1.469-8.453.406-8.453v.406c.89 0 1.188.25 1.375.719.188.516.36 2.156.36 4.11 0 1.952-.172 3.577-.36 4.093-.187.469-.484.719-1.375.719V2C1.47 2 2 1.703 2.25.86c.188-.672.313-2.157.313-4.063zm0 0"/></symbol><symbol overflow="visible" id="ao"><path d="M4.344-6.578V-7H.297v.422h3.578L.906 0h.485zm0 0"/></symbol><symbol overflow="visible" id="ap"><path d="M5.031-2.094V-2.5h-1V-7h-.453L.547-2.5v.406h3.047V0h.437v-2.094zM3.594-2.5H1.063l2.53-3.797zm0 0"/></symbol><symbol overflow="visible" id="aq"><path d="M4.438-5.016h-.454l-1.64 4.5-1.672-4.5H.219L2.079 0h.5zm0 0"/></symbol><symbol overflow="visible" id="ar"><path d="M1.297 0v-7.313H.859V0zm0 0"/></symbol><symbol overflow="visible" id="as"><path d="M4.188-1.375H3.78c0 .75-.36 1.031-1.14 1.031-.75 0-1.11-.219-1.11-1.031v-3.234h2.25v-.407h-2.25V-7h-.437v1.984H.266v.407h.828v3.234c0 1.078.531 1.453 1.531 1.453.969 0 1.563-.39 1.563-1.453zm0 0"/></symbol><symbol overflow="visible" id="at"><path d="M1.281-6.203V-7H.86v.797c0 .437-.015.656-.343.969l-.188.187.266.281.265-.218c.36-.329.422-.625.422-1.22zm0 0"/></symbol><symbol overflow="visible" id="au"><path d="M4.484-1.422c0-1.5-1.093-1.234-2.406-1.375-.719-.078-.969-.172-.953-.937 0-.688.422-.938 1.547-.938 1.078 0 1.39.313 1.39 1.016h.407c0-.453-.11-.797-.313-1.016-.281-.297-.765-.422-1.484-.422C1.312-5.109.687-4.75.687-3.656c0 1.484 1.016 1.234 2.36 1.36.812.077 1 .25 1 .905 0 .766-.453 1.047-1.563 1.047-1.125 0-1.468-.25-1.468-1.031H.609C.61-.281 1.156.063 2.484.078c1.344 0 2-.406 2-1.5zm0 0"/></symbol><symbol overflow="visible" id="av"><path d="M4.938-2.5c0-1.547-.172-2.594-1.954-2.594-.843 0-1.375.266-1.687.813v-3.032H.859V0h.407v-.75c.28.484.796.828 1.718.828C4.766.078 4.938-.938 4.938-2.5zm-.438 0c0 1.203-.047 2.14-1.453 2.14C1.734-.36 1.28-.874 1.28-2.5c0-1.656.453-2.156 1.766-2.156 1.39 0 1.453.922 1.453 2.156zm0 0"/></symbol><symbol overflow="visible" id="aw"><path d="M4.938-2.5c0-1.563-.172-2.594-1.954-2.594-.843 0-1.406.297-1.718.844v-.766H.859V2h.438V-.734c.312.546.844.812 1.687.812C4.781.078 4.938-.953 4.938-2.5zM4.5-2.516c0 1.204-.047 2.157-1.453 2.157-1.313 0-1.766-.5-1.766-2.157 0-1.64.453-2.14 1.766-2.14 1.406 0 1.453.937 1.453 2.14zm0 0"/></symbol><symbol overflow="visible" id="ax"><path d="M4.656-1.375h-.422c0 .89-.78 1.016-1.484 1.016-1.563 0-1.64-.766-1.64-2.157 0-1.406.077-2.156 1.64-2.156.703 0 1.484.156 1.484 1.031h.422c0-1.171-.937-1.453-1.922-1.453C.922-5.094.672-4.187.672-2.5.672-.812.906.078 2.734.078c.985 0 1.922-.266 1.922-1.453zm0 0"/></symbol><symbol overflow="visible" id="ay"><path d="M4.766 0v-7.313h-.438v3.032c-.328-.547-.844-.813-1.703-.813C.828-5.094.672-4.016.672-2.5.672-.937.828.078 2.625.078c.844 0 1.406-.281 1.719-.828V0zm-.438-2.5c0 1.656-.437 2.14-1.75 2.14C1.156-.36 1.11-1.28 1.11-2.5c0-1.25.079-2.156 1.47-2.156 1.312 0 1.75.5 1.75 2.156zm0 0"/></symbol><symbol overflow="visible" id="az"><path d="M1.406-4.734c0-.25-.11-.36-.343-.36-.235 0-.344.11-.344.36 0 .234.11.359.344.359.234 0 .343-.125.343-.36zm0 4.453c0-.25-.11-.36-.343-.36-.235 0-.344.11-.344.36 0 .234.11.36.344.36.234 0 .343-.126.343-.36zm0 0"/></symbol><symbol overflow="visible" id="aA"><path d="M4.297-6.219c0-.875-.75-1.156-1.61-1.156-.546 0-.984.094-1.28.39-.25.25-.345.579-.345 1.048v.921H.25v.407h.813V0H1.5v-4.61h2.188v-.406H1.5v-.921c0-.844.469-1.016 1.203-1.016.516 0 1.188.094 1.188.734zm0 0"/></symbol><symbol overflow="visible" id="aB"><path d="M5.656 0v-1.61c0-.671.11-1.687-.875-1.937.703-.203.875-.86.875-1.562C5.656-7.063 4.61-7 3.188-7H1v7h.438v-3.328H3.14c1.921 0 2.078.125 2.078 1.75V0zM5.22-5.14c0 1.5-.813 1.39-2.016 1.39H1.438v-2.828H3.14c1.218 0 2.078-.078 2.078 1.437zm0 0"/></symbol><symbol overflow="visible" id="aC"><path d="M5.734-3.484v-.422H5.11v-.735h-.406v.735H2.781c-1.031 0-1.562-.188-1.562-1.344 0-1.078.343-1.39 1.562-1.39 1.078 0 1.516.265 1.547 1.109h.422c-.031-1.157-.672-1.532-1.984-1.532-1.438 0-1.97.47-1.97 1.782 0 .843.157 1.343.97 1.578-.72.187-1.032.734-1.032 1.797 0 1.61.704 1.984 2.188 1.984.828 0 1.406-.156 1.734-.515.407-.407.469-.985.469-1.86v-1.187zm-1.03 1.187c0 .781-.048 1.266-.345 1.563-.234.234-.671.375-1.437.375-1.203 0-1.766-.188-1.766-1.516 0-1.313.407-1.61 1.625-1.61h1.922zm0 0"/></symbol><symbol overflow="visible" id="aD"><path d="M5.14-6.578V-7H.314v.422H2.5V0h.453v-6.578zm0 0"/></symbol><symbol overflow="visible" id="aE"><path d="M4.938-1.89c0-1.063-.313-1.563-1.047-1.75.828-.235.984-.813.984-1.641 0-1.313-.563-1.782-2.016-1.782S.844-6.593.844-5.28c0 .875.14 1.406.984 1.64-.719.188-1.047.688-1.047 1.75 0 1.5.672 1.97 2.078 1.97 1.407 0 2.079-.47 2.079-1.97zm-.5-3.36c0 1.188-.485 1.406-1.579 1.406-1.093 0-1.578-.234-1.578-1.437 0-1.047.344-1.36 1.578-1.36 1.22 0 1.579.313 1.579 1.391zM4.5-1.86c0 1.266-.484 1.5-1.64 1.5-1.188 0-1.641-.234-1.641-1.515 0-1.313.453-1.547 1.64-1.547 1.157 0 1.641.281 1.641 1.563zm0 0"/></symbol><symbol overflow="visible" id="aF"><path d="M4.875-3.797c0-1-.063-1.719-.203-2.125-.266-.75-.953-1.14-1.89-1.14-1.407 0-2.016.671-2.016 2.203 0 1.625.53 2.25 1.968 2.25.86 0 1.407-.36 1.704-.907 0 .625 0 1.688-.172 2.282-.172.609-.61.89-1.532.89-.968 0-1.437-.344-1.437-1.062H.859C.86-.36 1.563.078 2.75.078c1.172 0 1.844-.422 2-1.406.094-.5.125-1.36.125-2.469zm-.484-1.015c0 1.203-.563 1.765-1.704 1.765-1.109 0-1.5-.437-1.5-1.812 0-1.313.454-1.782 1.594-1.782 1.11 0 1.61.532 1.61 1.829zm0 0"/></symbol><symbol overflow="visible" id="aG"><path d="M3.922-2.313v-.406H.953v.406zm0 0"/></symbol><symbol overflow="visible" id="aH"><path d="M6.75-5.016h-.438L5.063-.578l-1.28-4.438h-.5L2-.578.75-5.016H.297L1.734 0h.516l1.281-4.453L4.797 0h.516zm0 0"/></symbol><symbol overflow="visible" id="aI"><path d="M5.719-1.781h-.422C5.297-.72 4.859-.36 3.344-.36c-2.11 0-2.063-1.079-2.063-3.125 0-2.079-.047-3.157 2.063-3.157 1.515 0 1.953.36 1.953 1.438h.422c0-1.375-.657-1.86-2.297-1.86C.828-7.063.828-5.734.828-3.483c0 2.234 0 3.562 2.594 3.562 1.64 0 2.297-.5 2.297-1.86zm0 0"/></symbol><symbol overflow="visible" id="aJ"><path d="M4.36 0L2.577-2.547l1.75-2.469h-.516L2.329-2.89.86-5.016H.33L2.062-2.53.296 0h.516l1.5-2.188L3.827 0zm0 0"/></symbol><symbol overflow="visible" id="aK"><path d="M4.906-2.125c0-1.453-.422-2.25-1.953-2.25-.719 0-1.281.172-1.547.531v-2.734h3.282V-7H.983v3.969h.407c.03-.625.546-.922 1.546-.922 1.329 0 1.532.64 1.532 1.86 0 1.327-.407 1.734-1.657 1.734-1.078 0-1.515-.266-1.515-1.063H.875c0 1.125.672 1.5 1.938 1.5 1.546 0 2.093-.64 2.093-2.203zm0 0"/></symbol><symbol overflow="visible" id="aL"><path d="M5.875-3.5c0-1.547-.094-2.125-.375-2.64C5.11-6.767 4.531-7 3.297-7H1v7h2.297C4.53 0 5.109-.219 5.5-.86c.281-.5.375-1.093.375-2.64zm-.438 0c0 1.516-.109 2.078-.359 2.469-.281.437-.719.61-1.844.61H1.438v-6.157h1.796c1.125 0 1.563.156 1.844.61.25.39.36.952.36 2.468zm0 0"/></symbol><symbol overflow="visible" id="aM"><path d="M4.86-7.922h-.423L.157.875h.437zm0 0"/></symbol><symbol overflow="visible" id="aN"><path d="M5.625 0v-7h-.438v6.344L1.547-7H1v7h.438v-6.36L5.063 0zm0 0"/></symbol><symbol overflow="visible" id="aO"><path d="M5.219 0L3.062-3.531 5.188-7h-.516l-1.86 3.125L.923-7H.406l2.11 3.469L.375 0h.516l1.89-3.172L4.703 0zm0 0"/></symbol></defs><g fill="#4f4c4d"><use xlink:href="#a" x="336.961" y="47.727"/><use xlink:href="#b" x="344.962" y="47.727"/><use xlink:href="#c" x="352.962" y="47.727"/><use xlink:href="#d" x="360.962" y="47.727"/><use xlink:href="#e" x="368.962" y="47.727"/><use xlink:href="#f" x="371.569" y="47.727"/><use xlink:href="#g" x="379.57" y="47.727"/><use xlink:href="#h" x="387.57" y="47.727"/><use xlink:href="#i" x="395.57" y="47.727"/><use xlink:href="#j" x="403.57" y="47.727"/><use xlink:href="#k" x="411.571" y="47.727"/><use xlink:href="#a" x="419.571" y="47.727"/><use xlink:href="#b" x="427.571" y="47.727"/></g><use xlink:href="#l" x="435.571" y="47.727" fill="#231f20"/><g fill="#231f20"><use xlink:href="#m" x="438.177" y="47.727"/><use xlink:href="#n" x="446.178" y="47.727"/><use xlink:href="#o" x="454.178" y="47.727"/><use xlink:href="#p" x="462.178" y="47.727"/><use xlink:href="#q" x="470.178" y="47.727"/><use xlink:href="#r" x="478.179" y="47.727"/><use xlink:href="#s" x="486.179" y="47.727"/><use xlink:href="#t" x="494.179" y="47.727"/><use xlink:href="#u" x="496.786" y="47.727"/></g><g fill="#231f20"><use xlink:href="#v" x="501.703" y="47.727"/><use xlink:href="#w" x="506.503" y="47.727"/><use xlink:href="#x" x="508.436" y="47.727"/><use xlink:href="#t" x="511.043" y="47.727"/><use xlink:href="#y" x="513.65" y="47.727"/><use xlink:href="#z" x="517.605" y="47.727"/></g><g fill="#393536"><use xlink:href="#A" x="535.245" y="48.426"/><use xlink:href="#B" x="540.818" y="48.426"/><use xlink:href="#C" x="546.392" y="48.426"/></g><g fill="#231f20"><use xlink:href="#D" x="94.845" y="166.489"/><use xlink:href="#E" x="100.349" y="166.489"/><use xlink:href="#F" x="102.363" y="166.489"/></g><use xlink:href="#F" x="105.008" y="166.489" fill="#231f20"/><g fill="#231f20"><use xlink:href="#G" x="105.008" y="166.489"/><use xlink:href="#E" x="110.257" y="166.489"/><use xlink:href="#H" x="112.271" y="166.489"/><use xlink:href="#E" x="117.988" y="166.489"/><use xlink:href="#F" x="120.002" y="166.489"/><use xlink:href="#I" x="122.647" y="166.489"/><use xlink:href="#J" x="128.669" y="166.489"/><use xlink:href="#K" x="133.969" y="166.489"/><use xlink:href="#L" x="138.272" y="166.489"/><use xlink:href="#M" x="142.891" y="166.489"/><use xlink:href="#F" x="144.905" y="166.489"/><use xlink:href="#G" x="147.55" y="166.489"/><use xlink:href="#E" x="152.799" y="166.489"/><use xlink:href="#N" x="154.813" y="166.489"/><use xlink:href="#E" x="160.011" y="166.489"/><use xlink:href="#F" x="162.025" y="166.489"/><use xlink:href="#O" x="164.67" y="166.489"/><use xlink:href="#P" x="171.14" y="166.489"/><use xlink:href="#Q" x="175.667" y="166.489"/><use xlink:href="#R" x="181.018" y="166.489"/><use xlink:href="#M" x="186.368" y="166.489"/><use xlink:href="#F" x="188.383" y="166.489"/><use xlink:href="#G" x="191.027" y="166.489"/><use xlink:href="#E" x="196.277" y="166.489"/><use xlink:href="#S" x="198.291" y="166.489"/><use xlink:href="#E" x="204.364" y="166.489"/><use xlink:href="#F" x="206.378" y="166.489"/><use xlink:href="#I" x="209.023" y="166.489"/><use xlink:href="#J" x="215.045" y="166.489"/><use xlink:href="#K" x="220.345" y="166.489"/><use xlink:href="#L" x="224.648" y="166.489"/><use xlink:href="#M" x="229.266" y="166.489"/><use xlink:href="#F" x="231.281" y="166.489"/><use xlink:href="#N" x="233.925" y="166.489"/><use xlink:href="#E" x="239.124" y="166.489"/><use xlink:href="#N" x="241.138" y="166.489"/><use xlink:href="#E" x="246.336" y="166.489"/><use xlink:href="#F" x="248.35" y="166.489"/><use xlink:href="#H" x="250.995" y="166.489"/><use xlink:href="#T" x="256.712" y="166.489"/><use xlink:href="#U" x="258.757" y="166.489"/><use xlink:href="#M" x="266.864" y="166.489"/><use xlink:href="#F" x="268.879" y="166.489"/><use xlink:href="#N" x="271.523" y="166.489"/><use xlink:href="#E" x="276.722" y="166.489"/><use xlink:href="#G" x="278.736" y="166.489"/><use xlink:href="#E" x="283.985" y="166.489"/><use xlink:href="#F" x="285.999" y="166.489"/><use xlink:href="#V" x="288.644" y="166.489"/><use xlink:href="#W" x="293.72" y="166.489"/><use xlink:href="#W" x="299.01" y="166.489"/><use xlink:href="#M" x="304.3" y="166.489"/><use xlink:href="#F" x="306.314" y="166.489"/><use xlink:href="#G" x="308.959" y="166.489"/><use xlink:href="#E" x="314.208" y="166.489"/><use xlink:href="#X" x="316.222" y="166.489"/><use xlink:href="#E" x="318.562" y="166.489"/><use xlink:href="#F" x="320.576" y="166.489"/><use xlink:href="#Y" x="323.221" y="166.489"/><use xlink:href="#Z" x="329.884" y="166.489"/><use xlink:href="#M" x="335.235" y="166.489"/><use xlink:href="#F" x="337.249" y="166.489"/><use xlink:href="#aa" x="339.894" y="166.489"/><use xlink:href="#E" x="346.262" y="166.489"/><use xlink:href="#N" x="348.276" y="166.489"/><use xlink:href="#E" x="353.474" y="166.489"/><use xlink:href="#F" x="355.488" y="166.489"/><use xlink:href="#G" x="358.133" y="166.489"/><use xlink:href="#J" x="363.382" y="166.489"/><use xlink:href="#R" x="368.682" y="166.489"/><use xlink:href="#ab" x="374.033" y="166.489"/><use xlink:href="#M" x="379.536" y="166.489"/><use xlink:href="#F" x="381.551" y="166.489"/><use xlink:href="#N" x="384.195" y="166.489"/><use xlink:href="#E" x="389.394" y="166.489"/><use xlink:href="#ac" x="391.408" y="166.489"/><use xlink:href="#E" x="397.949" y="166.489"/><use xlink:href="#F" x="399.963" y="166.489"/><use xlink:href="#H" x="402.608" y="166.489"/><use xlink:href="#T" x="408.325" y="166.489"/><use xlink:href="#U" x="410.37" y="166.489"/><use xlink:href="#M" x="418.477" y="166.489"/><use xlink:href="#F" x="420.491" y="166.489"/><use xlink:href="#N" x="423.136" y="166.489"/><use xlink:href="#E" x="428.334" y="166.489"/><use xlink:href="#ad" x="430.349" y="166.489"/><use xlink:href="#E" x="439.117" y="166.489"/><use xlink:href="#F" x="441.132" y="166.489"/><use xlink:href="#aa" x="443.777" y="166.489"/><use xlink:href="#ae" x="450.145" y="166.489"/><use xlink:href="#R" x="455.556" y="166.489"/><use xlink:href="#ab" x="460.907" y="166.489"/><use xlink:href="#M" x="466.411" y="166.489"/><use xlink:href="#F" x="468.425" y="166.489"/><use xlink:href="#G" x="471.07" y="166.489"/><use xlink:href="#E" x="476.319" y="166.489"/><use xlink:href="#F" x="478.333" y="166.489"/><use xlink:href="#aa" x="480.978" y="166.489"/><use xlink:href="#ae" x="487.346" y="166.489"/><use xlink:href="#R" x="492.758" y="166.489"/><use xlink:href="#M" x="498.109" y="166.489"/><use xlink:href="#F" x="500.123" y="166.489"/></g><g fill="#231f20"><use xlink:href="#H" x="105.007" y="181.471"/><use xlink:href="#E" x="110.725" y="181.471"/><use xlink:href="#ac" x="112.739" y="181.471"/><use xlink:href="#E" x="119.28" y="181.471"/><use xlink:href="#F" x="121.294" y="181.471"/><use xlink:href="#aa" x="123.939" y="181.471"/><use xlink:href="#Q" x="130.307" y="181.471"/><use xlink:href="#Z" x="135.658" y="181.471"/><use xlink:href="#M" x="141.008" y="181.471"/><use xlink:href="#F" x="143.023" y="181.471"/><use xlink:href="#N" x="145.667" y="181.471"/><use xlink:href="#E" x="150.866" y="181.471"/><use xlink:href="#af" x="152.88" y="181.471"/><use xlink:href="#E" x="161.11" y="181.471"/><use xlink:href="#F" x="163.124" y="181.471"/><use xlink:href="#V" x="165.769" y="181.471"/><use xlink:href="#W" x="170.845" y="181.471"/><use xlink:href="#W" x="176.134" y="181.471"/><use xlink:href="#ag" x="181.424" y="181.471"/><use xlink:href="#M" x="186.643" y="181.471"/><use xlink:href="#F" x="188.657" y="181.471"/><use xlink:href="#ah" x="191.302" y="181.471"/><use xlink:href="#E" x="197.131" y="181.471"/><use xlink:href="#O" x="199.145" y="181.471"/><use xlink:href="#E" x="205.615" y="181.471"/><use xlink:href="#F" x="207.629" y="181.471"/><use xlink:href="#V" x="210.274" y="181.471"/><use xlink:href="#W" x="215.35" y="181.471"/><use xlink:href="#W" x="220.64" y="181.471"/><use xlink:href="#ag" x="225.93" y="181.471"/><use xlink:href="#F" x="231.148" y="181.471"/><use xlink:href="#ai" x="233.793" y="181.471"/><use xlink:href="#aj" x="236.662" y="181.471"/><use xlink:href="#ak" x="242.155" y="181.471"/><use xlink:href="#al" x="247.76" y="181.471"/><use xlink:href="#am" x="252.216" y="181.471"/><use xlink:href="#an" x="257.8" y="181.471"/><use xlink:href="#F" x="260.669" y="181.471"/><use xlink:href="#ac" x="263.314" y="181.471"/><use xlink:href="#af" x="269.855" y="181.471"/><use xlink:href="#ao" x="278.085" y="181.471"/><use xlink:href="#al" x="282.611" y="181.471"/><use xlink:href="#aj" x="287.067" y="181.471"/><use xlink:href="#aj" x="292.56" y="181.471"/><use xlink:href="#ap" x="298.053" y="181.471"/><use xlink:href="#M" x="303.567" y="181.471"/><use xlink:href="#F" x="305.581" y="181.471"/><use xlink:href="#J" x="308.226" y="181.471"/><use xlink:href="#F" x="313.526" y="181.471"/><use xlink:href="#R" x="316.171" y="181.471"/><use xlink:href="#ae" x="321.522" y="181.471"/><use xlink:href="#aq" x="326.934" y="181.471"/><use xlink:href="#W" x="331.481" y="181.471"/><use xlink:href="#ar" x="336.77" y="181.471"/><use xlink:href="#F" x="338.815" y="181.471"/><use xlink:href="#O" x="341.46" y="181.471"/><use xlink:href="#K" x="347.93" y="181.471"/><use xlink:href="#Q" x="352.233" y="181.471"/><use xlink:href="#as" x="357.584" y="181.471"/><use xlink:href="#ae" x="361.927" y="181.471"/><use xlink:href="#R" x="367.339" y="181.471"/><use xlink:href="#at" x="372.69" y="181.471"/><use xlink:href="#au" x="374.704" y="181.471"/><use xlink:href="#F" x="379.699" y="181.471"/><use xlink:href="#as" x="382.344" y="181.471"/><use xlink:href="#P" x="386.688" y="181.471"/><use xlink:href="#K" x="391.214" y="181.471"/><use xlink:href="#ae" x="395.517" y="181.471"/><use xlink:href="#au" x="400.929" y="181.471"/><use xlink:href="#T" x="405.924" y="181.471"/><use xlink:href="#R" x="407.969" y="181.471"/><use xlink:href="#W" x="413.319" y="181.471"/><use xlink:href="#F" x="418.609" y="181.471"/><use xlink:href="#L" x="421.254" y="181.471"/><use xlink:href="#T" x="425.873" y="181.471"/><use xlink:href="#R" x="427.917" y="181.471"/><use xlink:href="#J" x="433.268" y="181.471"/><use xlink:href="#au" x="438.568" y="181.471"/><use xlink:href="#W" x="443.563" y="181.471"/><use xlink:href="#F" x="448.852" y="181.471"/><use xlink:href="#T" x="451.497" y="181.471"/><use xlink:href="#R" x="453.542" y="181.471"/><use xlink:href="#Z" x="458.893" y="181.471"/><use xlink:href="#T" x="464.244" y="181.471"/><use xlink:href="#av" x="466.288" y="181.471"/><use xlink:href="#T" x="471.802" y="181.471"/><use xlink:href="#as" x="473.847" y="181.471"/><use xlink:href="#ae" x="478.19" y="181.471"/><use xlink:href="#K" x="483.602" y="181.471"/><use xlink:href="#M" x="487.905" y="181.471"/><use xlink:href="#F" x="489.919" y="181.471"/></g><g fill="#231f20"><use xlink:href="#au" x="105.007" y="196.452"/><use xlink:href="#Q" x="110.002" y="196.452"/><use xlink:href="#aw" x="115.353" y="196.452"/><use xlink:href="#aw" x="120.867" y="196.452"/><use xlink:href="#K" x="126.38" y="196.452"/><use xlink:href="#W" x="130.683" y="196.452"/><use xlink:href="#au" x="135.973" y="196.452"/><use xlink:href="#au" x="140.968" y="196.452"/><use xlink:href="#W" x="145.962" y="196.452"/><use xlink:href="#au" x="151.252" y="196.452"/><use xlink:href="#F" x="156.247" y="196.452"/><use xlink:href="#O" x="158.892" y="196.452"/><use xlink:href="#F" x="165.362" y="196.452"/><use xlink:href="#ax" x="168.007" y="196.452"/><use xlink:href="#W" x="173.144" y="196.452"/><use xlink:href="#ar" x="178.434" y="196.452"/><use xlink:href="#ar" x="180.478" y="196.452"/><use xlink:href="#F" x="182.523" y="196.452"/><use xlink:href="#J" x="185.168" y="196.452"/><use xlink:href="#R" x="190.468" y="196.452"/><use xlink:href="#ay" x="195.819" y="196.452"/><use xlink:href="#F" x="201.332" y="196.452"/><use xlink:href="#U" x="203.977" y="196.452"/><use xlink:href="#ae" x="212.085" y="196.452"/><use xlink:href="#R" x="217.496" y="196.452"/><use xlink:href="#ae" x="222.847" y="196.452"/><use xlink:href="#ax" x="228.259" y="196.452"/><use xlink:href="#P" x="233.396" y="196.452"/><use xlink:href="#as" x="237.923" y="196.452"/><use xlink:href="#W" x="242.267" y="196.452"/><use xlink:href="#F" x="247.557" y="196.452"/><use xlink:href="#J" x="250.201" y="196.452"/><use xlink:href="#ax" x="255.501" y="196.452"/><use xlink:href="#as" x="260.639" y="196.452"/><use xlink:href="#T" x="264.982" y="196.452"/><use xlink:href="#aq" x="267.027" y="196.452"/><use xlink:href="#J" x="271.574" y="196.452"/><use xlink:href="#as" x="276.874" y="196.452"/><use xlink:href="#T" x="281.218" y="196.452"/><use xlink:href="#ae" x="283.262" y="196.452"/><use xlink:href="#R" x="288.674" y="196.452"/><use xlink:href="#F" x="294.025" y="196.452"/><use xlink:href="#J" x="296.67" y="196.452"/><use xlink:href="#R" x="301.97" y="196.452"/><use xlink:href="#ay" x="307.321" y="196.452"/><use xlink:href="#F" x="312.834" y="196.452"/><use xlink:href="#J" x="315.479" y="196.452"/><use xlink:href="#U" x="320.779" y="196.452"/><use xlink:href="#W" x="328.887" y="196.452"/><use xlink:href="#ar" x="334.176" y="196.452"/><use xlink:href="#T" x="336.221" y="196.452"/><use xlink:href="#ae" x="338.266" y="196.452"/><use xlink:href="#K" x="343.678" y="196.452"/><use xlink:href="#J" x="347.981" y="196.452"/><use xlink:href="#as" x="353.281" y="196.452"/><use xlink:href="#W" x="357.624" y="196.452"/><use xlink:href="#au" x="362.914" y="196.452"/><use xlink:href="#F" x="367.909" y="196.452"/><use xlink:href="#J" x="370.554" y="196.452"/><use xlink:href="#K" x="375.854" y="196.452"/><use xlink:href="#as" x="380.157" y="196.452"/><use xlink:href="#Z" x="384.5" y="196.452"/><use xlink:href="#K" x="389.851" y="196.452"/><use xlink:href="#T" x="394.154" y="196.452"/><use xlink:href="#as" x="396.199" y="196.452"/><use xlink:href="#T" x="400.543" y="196.452"/><use xlink:href="#au" x="402.587" y="196.452"/><use xlink:href="#F" x="407.582" y="196.452"/><use xlink:href="#T" x="410.227" y="196.452"/><use xlink:href="#R" x="412.272" y="196.452"/><use xlink:href="#F" x="417.623" y="196.452"/><use xlink:href="#J" x="420.267" y="196.452"/><use xlink:href="#F" x="425.567" y="196.452"/><use xlink:href="#U" x="428.212" y="196.452"/><use xlink:href="#ae" x="436.32" y="196.452"/><use xlink:href="#Q" x="441.732" y="196.452"/><use xlink:href="#au" x="447.082" y="196.452"/><use xlink:href="#W" x="452.077" y="196.452"/><use xlink:href="#F" x="457.367" y="196.452"/><use xlink:href="#U" x="460.012" y="196.452"/><use xlink:href="#ae" x="468.119" y="196.452"/><use xlink:href="#ay" x="473.531" y="196.452"/><use xlink:href="#W" x="479.045" y="196.452"/><use xlink:href="#ar" x="484.335" y="196.452"/><use xlink:href="#az" x="486.379" y="196.452"/><use xlink:href="#F" x="488.393" y="196.452"/></g><g fill="#231f20"><use xlink:href="#J" x="105.007" y="211.434"/><use xlink:href="#F" x="110.307" y="211.434"/><use xlink:href="#aw" x="112.952" y="211.434"/><use xlink:href="#ae" x="118.466" y="211.434"/><use xlink:href="#as" x="123.878" y="211.434"/><use xlink:href="#W" x="128.221" y="211.434"/><use xlink:href="#R" x="133.511" y="211.434"/><use xlink:href="#as" x="138.862" y="211.434"/><use xlink:href="#T" x="143.206" y="211.434"/><use xlink:href="#J" x="145.25" y="211.434"/><use xlink:href="#ar" x="150.55" y="211.434"/><use xlink:href="#F" x="152.595" y="211.434"/><use xlink:href="#ay" x="155.24" y="211.434"/><use xlink:href="#K" x="160.753" y="211.434"/><use xlink:href="#Q" x="165.057" y="211.434"/><use xlink:href="#ab" x="170.407" y="211.434"/><use xlink:href="#F" x="175.911" y="211.434"/><use xlink:href="#aA" x="178.556" y="211.434"/><use xlink:href="#ae" x="182.859" y="211.434"/><use xlink:href="#K" x="188.27" y="211.434"/><use xlink:href="#F" x="192.573" y="211.434"/><use xlink:href="#K" x="195.218" y="211.434"/><use xlink:href="#Z" x="199.521" y="211.434"/><use xlink:href="#W" x="204.872" y="211.434"/><use xlink:href="#Q" x="210.162" y="211.434"/><use xlink:href="#U" x="215.513" y="211.434"/><use xlink:href="#J" x="223.62" y="211.434"/><use xlink:href="#as" x="228.92" y="211.434"/><use xlink:href="#ae" x="233.264" y="211.434"/><use xlink:href="#T" x="238.676" y="211.434"/><use xlink:href="#ay" x="240.721" y="211.434"/><use xlink:href="#F" x="246.234" y="211.434"/><use xlink:href="#J" x="248.879" y="211.434"/><use xlink:href="#K" x="254.179" y="211.434"/><use xlink:href="#as" x="258.482" y="211.434"/><use xlink:href="#Z" x="262.826" y="211.434"/><use xlink:href="#K" x="268.176" y="211.434"/><use xlink:href="#T" x="272.479" y="211.434"/><use xlink:href="#as" x="274.524" y="211.434"/><use xlink:href="#T" x="278.868" y="211.434"/><use xlink:href="#au" x="280.913" y="211.434"/><use xlink:href="#E" x="285.907" y="211.434"/><use xlink:href="#F" x="287.922" y="211.434"/><use xlink:href="#S" x="290.566" y="211.434"/><use xlink:href="#K" x="296.639" y="211.434"/><use xlink:href="#as" x="300.942" y="211.434"/><use xlink:href="#Z" x="305.286" y="211.434"/><use xlink:href="#K" x="310.637" y="211.434"/><use xlink:href="#T" x="314.94" y="211.434"/><use xlink:href="#as" x="316.985" y="211.434"/><use xlink:href="#T" x="321.328" y="211.434"/><use xlink:href="#au" x="323.373" y="211.434"/><use xlink:href="#F" x="328.368" y="211.434"/><use xlink:href="#aB" x="331.013" y="211.434"/><use xlink:href="#W" x="337.462" y="211.434"/><use xlink:href="#au" x="342.752" y="211.434"/><use xlink:href="#W" x="347.747" y="211.434"/><use xlink:href="#J" x="353.036" y="211.434"/><use xlink:href="#K" x="358.336" y="211.434"/><use xlink:href="#ax" x="362.639" y="211.434"/><use xlink:href="#Z" x="367.777" y="211.434"/><use xlink:href="#F" x="373.127" y="211.434"/><use xlink:href="#aC" x="375.772" y="211.434"/><use xlink:href="#F" x="381.784" y="211.434"/><use xlink:href="#aD" x="384.429" y="211.434"/><use xlink:href="#Z" x="389.78" y="211.434"/><use xlink:href="#W" x="395.131" y="211.434"/><use xlink:href="#K" x="400.421" y="211.434"/><use xlink:href="#J" x="404.724" y="211.434"/><use xlink:href="#aw" x="410.024" y="211.434"/><use xlink:href="#P" x="415.537" y="211.434"/><use xlink:href="#M" x="420.064" y="211.434"/><use xlink:href="#F" x="422.078" y="211.434"/><use xlink:href="#al" x="424.723" y="211.434"/><use xlink:href="#aE" x="429.179" y="211.434"/><use xlink:href="#az" x="434.794" y="211.434"/><use xlink:href="#aF" x="436.808" y="211.434"/><use xlink:href="#al" x="442.373" y="211.434"/><use xlink:href="#F" x="446.828" y="211.434"/><use xlink:href="#F" x="449.473" y="211.434"/><use xlink:href="#ai" x="452.118" y="211.434"/><use xlink:href="#ag" x="454.987" y="211.434"/><use xlink:href="#ax" x="460.205" y="211.434"/><use xlink:href="#ae" x="465.342" y="211.434"/><use xlink:href="#aG" x="470.754" y="211.434"/></g><g fill="#231f20"><use xlink:href="#ax" x="105.007" y="226.416"/><use xlink:href="#ae" x="110.145" y="226.416"/><use xlink:href="#K" x="115.556" y="226.416"/><use xlink:href="#K" x="119.86" y="226.416"/><use xlink:href="#W" x="124.163" y="226.416"/><use xlink:href="#au" x="129.452" y="226.416"/><use xlink:href="#aw" x="134.447" y="226.416"/><use xlink:href="#ae" x="139.961" y="226.416"/><use xlink:href="#R" x="145.372" y="226.416"/><use xlink:href="#ay" x="150.723" y="226.416"/><use xlink:href="#T" x="156.237" y="226.416"/><use xlink:href="#R" x="158.282" y="226.416"/><use xlink:href="#ab" x="163.632" y="226.416"/><use xlink:href="#an" x="169.136" y="226.416"/><use xlink:href="#F" x="172.004" y="226.416"/></g><g fill="#231f20"><use xlink:href="#ap" x="94.845" y="248.228"/><use xlink:href="#E" x="100.359" y="248.228"/><use xlink:href="#F" x="102.373" y="248.228"/></g><use xlink:href="#F" x="105.018" y="248.228" fill="#231f20"/><g fill="#231f20"><use xlink:href="#N" x="105.018" y="248.228"/><use xlink:href="#E" x="110.216" y="248.228"/><use xlink:href="#af" x="112.23" y="248.228"/><use xlink:href="#E" x="120.46" y="248.228"/><use xlink:href="#F" x="122.474" y="248.228"/><use xlink:href="#V" x="125.119" y="248.228"/><use xlink:href="#W" x="130.195" y="248.228"/><use xlink:href="#W" x="135.485" y="248.228"/><use xlink:href="#M" x="140.775" y="248.228"/><use xlink:href="#F" x="142.789" y="248.228"/><use xlink:href="#aa" x="145.434" y="248.228"/><use xlink:href="#E" x="151.802" y="248.228"/><use xlink:href="#F" x="153.816" y="248.228"/><use xlink:href="#H" x="156.461" y="248.228"/><use xlink:href="#J" x="162.178" y="248.228"/><use xlink:href="#ay" x="167.478" y="248.228"/><use xlink:href="#Q" x="172.991" y="248.228"/><use xlink:href="#aH" x="178.342" y="248.228"/><use xlink:href="#J" x="185.29" y="248.228"/><use xlink:href="#ar" x="190.59" y="248.228"/><use xlink:href="#M" x="192.635" y="248.228"/><use xlink:href="#F" x="194.649" y="248.228"/><use xlink:href="#H" x="197.294" y="248.228"/><use xlink:href="#E" x="203.011" y="248.228"/><use xlink:href="#ac" x="205.025" y="248.228"/><use xlink:href="#E" x="211.566" y="248.228"/><use xlink:href="#F" x="213.58" y="248.228"/><use xlink:href="#V" x="216.225" y="248.228"/><use xlink:href="#W" x="221.301" y="248.228"/><use xlink:href="#W" x="226.591" y="248.228"/><use xlink:href="#M" x="231.881" y="248.228"/><use xlink:href="#F" x="233.895" y="248.228"/><use xlink:href="#G" x="236.54" y="248.228"/><use xlink:href="#E" x="241.789" y="248.228"/><use xlink:href="#aI" x="243.803" y="248.228"/><use xlink:href="#E" x="250.161" y="248.228"/><use xlink:href="#F" x="252.175" y="248.228"/><use xlink:href="#I" x="254.82" y="248.228"/><use xlink:href="#J" x="260.842" y="248.228"/><use xlink:href="#K" x="266.142" y="248.228"/><use xlink:href="#L" x="270.445" y="248.228"/><use xlink:href="#M" x="275.064" y="248.228"/><use xlink:href="#F" x="277.078" y="248.228"/><use xlink:href="#ad" x="279.723" y="248.228"/><use xlink:href="#E" x="288.491" y="248.228"/><use xlink:href="#G" x="290.506" y="248.228"/><use xlink:href="#E" x="295.755" y="248.228"/><use xlink:href="#F" x="297.769" y="248.228"/><use xlink:href="#G" x="300.414" y="248.228"/><use xlink:href="#W" x="305.663" y="248.228"/><use xlink:href="#ae" x="310.953" y="248.228"/><use xlink:href="#R" x="316.364" y="248.228"/><use xlink:href="#ab" x="321.715" y="248.228"/><use xlink:href="#M" x="327.219" y="248.228"/><use xlink:href="#F" x="329.233" y="248.228"/><use xlink:href="#H" x="331.878" y="248.228"/><use xlink:href="#E" x="337.595" y="248.228"/><use xlink:href="#N" x="339.609" y="248.228"/><use xlink:href="#E" x="344.807" y="248.228"/><use xlink:href="#F" x="346.821" y="248.228"/><use xlink:href="#aI" x="349.466" y="248.228"/><use xlink:href="#Z" x="355.824" y="248.228"/><use xlink:href="#ae" x="361.175" y="248.228"/><use xlink:href="#T" x="366.587" y="248.228"/><use xlink:href="#F" x="368.631" y="248.228"/><use xlink:href="#ai" x="371.276" y="248.228"/><use xlink:href="#aj" x="374.145" y="248.228"/><use xlink:href="#ak" x="379.638" y="248.228"/><use xlink:href="#al" x="385.243" y="248.228"/><use xlink:href="#am" x="389.699" y="248.228"/><use xlink:href="#an" x="395.284" y="248.228"/><use xlink:href="#F" x="398.152" y="248.228"/><use xlink:href="#aa" x="400.797" y="248.228"/><use xlink:href="#Q" x="407.165" y="248.228"/><use xlink:href="#K" x="412.516" y="248.228"/><use xlink:href="#aE" x="416.819" y="248.228"/><use xlink:href="#F" x="422.434" y="248.228"/><use xlink:href="#U" x="425.079" y="248.228"/><use xlink:href="#W" x="433.187" y="248.228"/><use xlink:href="#ay" x="438.477" y="248.228"/><use xlink:href="#T" x="443.99" y="248.228"/><use xlink:href="#J" x="446.035" y="248.228"/><use xlink:href="#as" x="451.335" y="248.228"/><use xlink:href="#W" x="455.679" y="248.228"/><use xlink:href="#au" x="460.968" y="248.228"/><use xlink:href="#F" x="465.963" y="248.228"/></g><g fill="#231f20"><use xlink:href="#as" x="105.018" y="263.21"/><use xlink:href="#Q" x="109.361" y="263.21"/><use xlink:href="#U" x="114.712" y="263.21"/><use xlink:href="#ae" x="122.82" y="263.21"/><use xlink:href="#K" x="128.232" y="263.21"/><use xlink:href="#T" x="132.535" y="263.21"/><use xlink:href="#ab" x="134.579" y="263.21"/><use xlink:href="#W" x="140.083" y="263.21"/><use xlink:href="#R" x="145.372" y="263.21"/><use xlink:href="#W" x="150.723" y="263.21"/><use xlink:href="#au" x="156.013" y="263.21"/><use xlink:href="#T" x="161.008" y="263.21"/><use xlink:href="#au" x="163.052" y="263.21"/><use xlink:href="#F" x="168.047" y="263.21"/><use xlink:href="#J" x="170.692" y="263.21"/><use xlink:href="#R" x="175.992" y="263.21"/><use xlink:href="#ay" x="181.343" y="263.21"/><use xlink:href="#F" x="186.856" y="263.21"/><use xlink:href="#U" x="189.501" y="263.21"/><use xlink:href="#W" x="197.609" y="263.21"/><use xlink:href="#as" x="202.899" y="263.21"/><use xlink:href="#J" x="207.242" y="263.21"/><use xlink:href="#au" x="212.542" y="263.21"/><use xlink:href="#as" x="217.537" y="263.21"/><use xlink:href="#J" x="221.881" y="263.21"/><use xlink:href="#au" x="227.181" y="263.21"/><use xlink:href="#T" x="232.175" y="263.21"/><use xlink:href="#au" x="234.22" y="263.21"/><use xlink:href="#F" x="239.215" y="263.21"/><use xlink:href="#T" x="241.86" y="263.21"/><use xlink:href="#R" x="243.904" y="263.21"/><use xlink:href="#F" x="249.255" y="263.21"/><use xlink:href="#ax" x="251.9" y="263.21"/><use xlink:href="#ae" x="257.037" y="263.21"/><use xlink:href="#ar" x="262.449" y="263.21"/><use xlink:href="#ae" x="264.494" y="263.21"/><use xlink:href="#K" x="269.906" y="263.21"/><use xlink:href="#W" x="274.209" y="263.21"/><use xlink:href="#ax" x="279.498" y="263.21"/><use xlink:href="#as" x="284.636" y="263.21"/><use xlink:href="#J" x="288.979" y="263.21"/><use xlink:href="#ar" x="294.279" y="263.21"/><use xlink:href="#F" x="296.324" y="263.21"/><use xlink:href="#ax" x="298.969" y="263.21"/><use xlink:href="#J" x="304.106" y="263.21"/><use xlink:href="#R" x="309.406" y="263.21"/><use xlink:href="#ax" x="314.757" y="263.21"/><use xlink:href="#W" x="319.894" y="263.21"/><use xlink:href="#K" x="325.184" y="263.21"/><use xlink:href="#E" x="329.487" y="263.21"/><use xlink:href="#F" x="331.501" y="263.21"/><use xlink:href="#ah" x="334.146" y="263.21"/><use xlink:href="#aJ" x="339.975" y="263.21"/><use xlink:href="#aw" x="344.522" y="263.21"/><use xlink:href="#W" x="350.035" y="263.21"/><use xlink:href="#K" x="355.325" y="263.21"/><use xlink:href="#T" x="359.628" y="263.21"/><use xlink:href="#U" x="361.673" y="263.21"/><use xlink:href="#W" x="369.781" y="263.21"/><use xlink:href="#R" x="375.07" y="263.21"/><use xlink:href="#as" x="380.421" y="263.21"/><use xlink:href="#J" x="384.765" y="263.21"/><use xlink:href="#ar" x="390.065" y="263.21"/><use xlink:href="#F" x="392.109" y="263.21"/><use xlink:href="#aC" x="394.754" y="263.21"/><use xlink:href="#F" x="400.766" y="263.21"/><use xlink:href="#af" x="403.411" y="263.21"/><use xlink:href="#ae" x="411.641" y="263.21"/><use xlink:href="#ar" x="417.053" y="263.21"/><use xlink:href="#W" x="419.097" y="263.21"/><use xlink:href="#ax" x="424.387" y="263.21"/><use xlink:href="#Q" x="429.524" y="263.21"/><use xlink:href="#ar" x="434.875" y="263.21"/><use xlink:href="#J" x="436.92" y="263.21"/><use xlink:href="#K" x="442.22" y="263.21"/><use xlink:href="#F" x="446.523" y="263.21"/><use xlink:href="#af" x="449.168" y="263.21"/><use xlink:href="#W" x="457.397" y="263.21"/><use xlink:href="#ay" x="462.687" y="263.21"/><use xlink:href="#T" x="468.201" y="263.21"/><use xlink:href="#ax" x="470.245" y="263.21"/><use xlink:href="#T" x="475.383" y="263.21"/><use xlink:href="#R" x="477.427" y="263.21"/><use xlink:href="#W" x="482.778" y="263.21"/><use xlink:href="#M" x="488.068" y="263.21"/><use xlink:href="#F" x="490.082" y="263.21"/></g><g fill="#231f20"><use xlink:href="#ap" x="105.018" y="278.192"/><use xlink:href="#aE" x="110.531" y="278.192"/><use xlink:href="#ai" x="116.146" y="278.192"/><use xlink:href="#ao" x="119.015" y="278.192"/><use xlink:href="#an" x="123.542" y="278.192"/><use xlink:href="#az" x="126.411" y="278.192"/><use xlink:href="#W" x="128.425" y="278.192"/><use xlink:href="#aj" x="133.715" y="278.192"/><use xlink:href="#ap" x="139.208" y="278.192"/><use xlink:href="#aF" x="144.721" y="278.192"/><use xlink:href="#F" x="150.286" y="278.192"/></g><use xlink:href="#aK" x="94.845" y="300.004" fill="#231f20"/><use xlink:href="#E" x="100.461" y="300.004" fill="#231f20"/><use xlink:href="#F" x="102.475" y="300.004" fill="#231f20"/><use xlink:href="#F" x="105.12" y="300.004" fill="#231f20"/><g fill="#231f20"><use xlink:href="#aa" x="105.12" y="300.004"/><use xlink:href="#E" x="111.437" y="300.004"/><use xlink:href="#F" x="113.4" y="300.004"/><use xlink:href="#H" x="115.994" y="300.004"/><use xlink:href="#J" x="121.66" y="300.004"/><use xlink:href="#ay" x="126.909" y="300.004"/><use xlink:href="#Q" x="132.372" y="300.004"/><use xlink:href="#aH" x="137.672" y="300.004"/><use xlink:href="#J" x="144.569" y="300.004"/><use xlink:href="#ar" x="149.818" y="300.004"/><use xlink:href="#M" x="151.812" y="300.004"/><use xlink:href="#F" x="153.775" y="300.004"/><use xlink:href="#ad" x="156.369" y="300.004"/><use xlink:href="#E" x="165.087" y="300.004"/><use xlink:href="#G" x="167.051" y="300.004"/><use xlink:href="#E" x="172.249" y="300.004"/><use xlink:href="#F" x="174.212" y="300.004"/><use xlink:href="#G" x="176.806" y="300.004"/><use xlink:href="#W" x="182.004" y="300.004"/><use xlink:href="#ae" x="187.243" y="300.004"/><use xlink:href="#R" x="192.604" y="300.004"/><use xlink:href="#ab" x="197.904" y="300.004"/><use xlink:href="#M" x="203.357" y="300.004"/><use xlink:href="#F" x="205.32" y="300.004"/><use xlink:href="#G" x="207.914" y="300.004"/><use xlink:href="#E" x="213.112" y="300.004"/><use xlink:href="#aI" x="215.076" y="300.004"/><use xlink:href="#E" x="221.383" y="300.004"/><use xlink:href="#F" x="223.346" y="300.004"/><use xlink:href="#I" x="225.94" y="300.004"/><use xlink:href="#J" x="231.911" y="300.004"/><use xlink:href="#K" x="237.16" y="300.004"/><use xlink:href="#L" x="241.412" y="300.004"/><use xlink:href="#M" x="245.98" y="300.004"/><use xlink:href="#F" x="247.943" y="300.004"/><use xlink:href="#H" x="250.537" y="300.004"/><use xlink:href="#E" x="256.203" y="300.004"/><use xlink:href="#ac" x="258.167" y="300.004"/><use xlink:href="#E" x="264.657" y="300.004"/><use xlink:href="#F" x="266.62" y="300.004"/><use xlink:href="#V" x="269.214" y="300.004"/><use xlink:href="#W" x="274.24" y="300.004"/><use xlink:href="#W" x="279.478" y="300.004"/><use xlink:href="#M" x="284.717" y="300.004"/><use xlink:href="#F" x="286.681" y="300.004"/><use xlink:href="#N" x="289.275" y="300.004"/><use xlink:href="#E" x="294.422" y="300.004"/><use xlink:href="#af" x="296.385" y="300.004"/><use xlink:href="#E" x="304.564" y="300.004"/><use xlink:href="#F" x="306.527" y="300.004"/><use xlink:href="#V" x="309.121" y="300.004"/><use xlink:href="#W" x="314.147" y="300.004"/><use xlink:href="#W" x="319.386" y="300.004"/><use xlink:href="#M" x="324.625" y="300.004"/><use xlink:href="#F" x="326.588" y="300.004"/><use xlink:href="#aa" x="329.182" y="300.004"/><use xlink:href="#E" x="335.499" y="300.004"/><use xlink:href="#ac" x="337.462" y="300.004"/><use xlink:href="#E" x="343.953" y="300.004"/><use xlink:href="#F" x="345.916" y="300.004"/><use xlink:href="#G" x="348.51" y="300.004"/><use xlink:href="#W" x="353.708" y="300.004"/><use xlink:href="#ae" x="358.947" y="300.004"/><use xlink:href="#R" x="364.308" y="300.004"/><use xlink:href="#M" x="369.608" y="300.004"/><use xlink:href="#F" x="371.571" y="300.004"/><use xlink:href="#N" x="374.165" y="300.004"/><use xlink:href="#E" x="379.313" y="300.004"/><use xlink:href="#O" x="381.276" y="300.004"/><use xlink:href="#E" x="387.695" y="300.004"/><use xlink:href="#F" x="389.658" y="300.004"/><use xlink:href="#V" x="392.252" y="300.004"/><use xlink:href="#T" x="397.277" y="300.004"/><use xlink:href="#U" x="399.271" y="300.004"/><use xlink:href="#M" x="407.328" y="300.004"/><use xlink:href="#F" x="409.291" y="300.004"/><use xlink:href="#aL" x="411.885" y="300.004"/><use xlink:href="#E" x="418.447" y="300.004"/><use xlink:href="#aa" x="420.41" y="300.004"/><use xlink:href="#E" x="426.727" y="300.004"/><use xlink:href="#F" x="428.691" y="300.004"/><use xlink:href="#af" x="431.285" y="300.004"/><use xlink:href="#T" x="439.463" y="300.004"/><use xlink:href="#R" x="441.457" y="300.004"/><use xlink:href="#M" x="446.757" y="300.004"/><use xlink:href="#F" x="448.72" y="300.004"/><use xlink:href="#H" x="451.314" y="300.004"/><use xlink:href="#E" x="456.981" y="300.004"/><use xlink:href="#N" x="458.944" y="300.004"/><use xlink:href="#E" x="464.091" y="300.004"/><use xlink:href="#F" x="466.055" y="300.004"/><use xlink:href="#aI" x="468.649" y="300.004"/><use xlink:href="#Z" x="474.956" y="300.004"/><use xlink:href="#ae" x="480.256" y="300.004"/><use xlink:href="#T" x="485.617" y="300.004"/><use xlink:href="#F" x="487.61" y="300.004"/><use xlink:href="#ai" x="490.204" y="300.004"/><use xlink:href="#aj" x="493.022" y="300.004"/><use xlink:href="#ak" x="498.465" y="300.004"/><use xlink:href="#al" x="504.019" y="300.004"/><use xlink:href="#aK" x="508.424" y="300.004"/><use xlink:href="#an" x="513.988" y="300.004"/></g><use xlink:href="#F" x="516.857" y="300.004" fill="#231f20"/><g fill="#231f20"><use xlink:href="#aa" x="105.119" y="314.985"/><use xlink:href="#Q" x="111.487" y="314.985"/><use xlink:href="#K" x="116.838" y="314.985"/><use xlink:href="#aE" x="121.141" y="314.985"/><use xlink:href="#aM" x="126.757" y="314.985"/><use xlink:href="#aa" x="131.68" y="314.985"/><use xlink:href="#Z" x="138.048" y="314.985"/><use xlink:href="#ae" x="143.399" y="314.985"/><use xlink:href="#ax" x="148.811" y="314.985"/><use xlink:href="#aj" x="153.948" y="314.985"/><use xlink:href="#F" x="159.441" y="314.985"/><use xlink:href="#aw" x="162.086" y="314.985"/><use xlink:href="#K" x="167.6" y="314.985"/><use xlink:href="#ae" x="171.903" y="314.985"/><use xlink:href="#U" x="177.314" y="314.985"/><use xlink:href="#ae" x="185.422" y="314.985"/><use xlink:href="#as" x="190.834" y="314.985"/><use xlink:href="#W" x="195.178" y="314.985"/><use xlink:href="#au" x="200.467" y="314.985"/><use xlink:href="#F" x="205.462" y="314.985"/><use xlink:href="#ax" x="208.107" y="314.985"/><use xlink:href="#W" x="213.244" y="314.985"/><use xlink:href="#ar" x="218.534" y="314.985"/><use xlink:href="#ar" x="220.579" y="314.985"/><use xlink:href="#F" x="222.623" y="314.985"/><use xlink:href="#U" x="225.268" y="314.985"/><use xlink:href="#ae" x="233.376" y="314.985"/><use xlink:href="#as" x="238.788" y="314.985"/><use xlink:href="#T" x="243.131" y="314.985"/><use xlink:href="#ar" x="245.176" y="314.985"/><use xlink:href="#T" x="247.221" y="314.985"/><use xlink:href="#as" x="249.265" y="314.985"/><use xlink:href="#P" x="253.609" y="314.985"/><use xlink:href="#F" x="258.136" y="314.985"/><use xlink:href="#J" x="260.781" y="314.985"/><use xlink:href="#R" x="266.081" y="314.985"/><use xlink:href="#ay" x="271.432" y="314.985"/><use xlink:href="#F" x="276.945" y="314.985"/><use xlink:href="#U" x="279.59" y="314.985"/><use xlink:href="#W" x="287.698" y="314.985"/><use xlink:href="#as" x="292.987" y="314.985"/><use xlink:href="#J" x="297.331" y="314.985"/><use xlink:href="#au" x="302.631" y="314.985"/><use xlink:href="#as" x="307.626" y="314.985"/><use xlink:href="#J" x="311.97" y="314.985"/><use xlink:href="#au" x="317.269" y="314.985"/><use xlink:href="#T" x="322.264" y="314.985"/><use xlink:href="#au" x="324.309" y="314.985"/><use xlink:href="#F" x="329.304" y="314.985"/><use xlink:href="#as" x="331.949" y="314.985"/><use xlink:href="#Z" x="336.292" y="314.985"/><use xlink:href="#K" x="341.643" y="314.985"/><use xlink:href="#ae" x="345.946" y="314.985"/><use xlink:href="#Q" x="351.358" y="314.985"/><use xlink:href="#ab" x="356.709" y="314.985"/><use xlink:href="#Z" x="362.212" y="314.985"/><use xlink:href="#F" x="367.563" y="314.985"/><use xlink:href="#J" x="370.208" y="314.985"/><use xlink:href="#ax" x="375.508" y="314.985"/><use xlink:href="#as" x="380.645" y="314.985"/><use xlink:href="#T" x="384.989" y="314.985"/><use xlink:href="#aq" x="387.033" y="314.985"/><use xlink:href="#J" x="391.581" y="314.985"/><use xlink:href="#as" x="396.88" y="314.985"/><use xlink:href="#T" x="401.224" y="314.985"/><use xlink:href="#ae" x="403.269" y="314.985"/><use xlink:href="#R" x="408.681" y="314.985"/><use xlink:href="#F" x="414.032" y="314.985"/><use xlink:href="#ae" x="416.676" y="314.985"/><use xlink:href="#aA" x="422.088" y="314.985"/><use xlink:href="#F" x="426.391" y="314.985"/><use xlink:href="#aB" x="429.036" y="314.985"/><use xlink:href="#J" x="435.486" y="314.985"/><use xlink:href="#au" x="440.786" y="314.985"/><use xlink:href="#aG" x="445.78" y="314.985"/><use xlink:href="#I" x="450.561" y="314.985"/><use xlink:href="#X" x="456.584" y="314.985"/><use xlink:href="#D" x="458.923" y="314.985"/><use xlink:href="#H" x="464.427" y="314.985"/><use xlink:href="#F" x="470.144" y="314.985"/><use xlink:href="#au" x="472.789" y="314.985"/><use xlink:href="#T" x="477.783" y="314.985"/><use xlink:href="#ab" x="479.828" y="314.985"/><use xlink:href="#R" x="485.331" y="314.985"/><use xlink:href="#J" x="490.682" y="314.985"/><use xlink:href="#ar" x="495.982" y="314.985"/><use xlink:href="#T" x="498.027" y="314.985"/><use xlink:href="#R" x="500.072" y="314.985"/><use xlink:href="#ab" x="505.422" y="314.985"/><use xlink:href="#E" x="510.926" y="314.985"/><use xlink:href="#F" x="512.94" y="314.985"/></g><g fill="#231f20"><use xlink:href="#Y" x="105.119" y="329.967"/><use xlink:href="#R" x="111.782" y="329.967"/><use xlink:href="#ax" x="117.133" y="329.967"/><use xlink:href="#ae" x="122.27" y="329.967"/><use xlink:href="#as" x="127.682" y="329.967"/><use xlink:href="#J" x="132.026" y="329.967"/><use xlink:href="#K" x="137.326" y="329.967"/><use xlink:href="#ab" x="141.629" y="329.967"/><use xlink:href="#W" x="147.132" y="329.967"/><use xlink:href="#as" x="152.422" y="329.967"/><use xlink:href="#F" x="156.766" y="329.967"/><use xlink:href="#am" x="159.411" y="329.967"/><use xlink:href="#ai" x="164.995" y="329.967"/><use xlink:href="#D" x="167.864" y="329.967"/><use xlink:href="#aj" x="173.368" y="329.967"/><use xlink:href="#an" x="178.861" y="329.967"/><use xlink:href="#az" x="181.729" y="329.967"/><use xlink:href="#D" x="183.744" y="329.967"/><use xlink:href="#D" x="189.247" y="329.967"/><use xlink:href="#ak" x="194.75" y="329.967"/><use xlink:href="#aF" x="200.355" y="329.967"/><use xlink:href="#al" x="205.92" y="329.967"/><use xlink:href="#aG" x="210.376" y="329.967"/><use xlink:href="#al" x="215.157" y="329.967"/><use xlink:href="#ak" x="219.612" y="329.967"/><use xlink:href="#aK" x="225.217" y="329.967"/><use xlink:href="#F" x="230.833" y="329.967"/></g><g fill="#231f20"><use xlink:href="#am" x="94.845" y="351.779"/><use xlink:href="#E" x="100.43" y="351.779"/><use xlink:href="#F" x="102.444" y="351.779"/></g><use xlink:href="#F" x="105.089" y="351.779" fill="#231f20"/><g fill="#231f20"><use xlink:href="#aa" x="105.089" y="351.779"/><use xlink:href="#E" x="111.457" y="351.779"/><use xlink:href="#ac" x="113.471" y="351.779"/><use xlink:href="#E" x="120.012" y="351.779"/><use xlink:href="#F" x="122.027" y="351.779"/><use xlink:href="#V" x="124.671" y="351.779"/><use xlink:href="#W" x="129.748" y="351.779"/><use xlink:href="#W" x="135.037" y="351.779"/><use xlink:href="#M" x="140.327" y="351.779"/><use xlink:href="#F" x="142.341" y="351.779"/><use xlink:href="#af" x="144.986" y="351.779"/><use xlink:href="#E" x="153.216" y="351.779"/><use xlink:href="#N" x="155.23" y="351.779"/><use xlink:href="#E" x="160.428" y="351.779"/><use xlink:href="#F" x="162.442" y="351.779"/><use xlink:href="#H" x="165.087" y="351.779"/><use xlink:href="#T" x="170.804" y="351.779"/><use xlink:href="#U" x="172.849" y="351.779"/><use xlink:href="#M" x="180.957" y="351.779"/><use xlink:href="#F" x="182.971" y="351.779"/><use xlink:href="#ac" x="185.616" y="351.779"/><use xlink:href="#E" x="192.157" y="351.779"/><use xlink:href="#N" x="194.171" y="351.779"/><use xlink:href="#E" x="199.369" y="351.779"/><use xlink:href="#F" x="201.383" y="351.779"/><use xlink:href="#H" x="204.028" y="351.779"/><use xlink:href="#T" x="209.745" y="351.779"/><use xlink:href="#U" x="211.79" y="351.779"/><use xlink:href="#M" x="219.897" y="351.779"/><use xlink:href="#F" x="221.912" y="351.779"/><use xlink:href="#N" x="224.556" y="351.779"/><use xlink:href="#E" x="229.755" y="351.779"/><use xlink:href="#af" x="231.769" y="351.779"/><use xlink:href="#E" x="239.998" y="351.779"/><use xlink:href="#F" x="242.013" y="351.779"/><use xlink:href="#V" x="244.658" y="351.779"/><use xlink:href="#W" x="249.734" y="351.779"/><use xlink:href="#W" x="255.023" y="351.779"/><use xlink:href="#M" x="260.313" y="351.779"/><use xlink:href="#F" x="262.327" y="351.779"/><use xlink:href="#ac" x="264.972" y="351.779"/><use xlink:href="#E" x="271.513" y="351.779"/><use xlink:href="#F" x="273.527" y="351.779"/><use xlink:href="#H" x="276.172" y="351.779"/><use xlink:href="#T" x="281.889" y="351.779"/><use xlink:href="#U" x="283.934" y="351.779"/><use xlink:href="#M" x="292.042" y="351.779"/><use xlink:href="#F" x="294.056" y="351.779"/><use xlink:href="#H" x="296.701" y="351.779"/><use xlink:href="#E" x="302.418" y="351.779"/><use xlink:href="#S" x="304.432" y="351.779"/><use xlink:href="#E" x="310.505" y="351.779"/><use xlink:href="#F" x="312.519" y="351.779"/><use xlink:href="#aN" x="315.164" y="351.779"/><use xlink:href="#J" x="321.685" y="351.779"/><use xlink:href="#U" x="326.985" y="351.779"/><use xlink:href="#M" x="335.092" y="351.779"/><use xlink:href="#F" x="337.106" y="351.779"/><use xlink:href="#af" x="339.751" y="351.779"/><use xlink:href="#E" x="347.981" y="351.779"/><use xlink:href="#aB" x="349.995" y="351.779"/><use xlink:href="#E" x="356.445" y="351.779"/><use xlink:href="#F" x="358.459" y="351.779"/><use xlink:href="#aB" x="361.104" y="351.779"/><use xlink:href="#ae" x="367.553" y="351.779"/><use xlink:href="#Z" x="372.965" y="351.779"/><use xlink:href="#M" x="378.316" y="351.779"/><use xlink:href="#F" x="380.33" y="351.779"/><use xlink:href="#aL" x="382.975" y="351.779"/><use xlink:href="#E" x="389.587" y="351.779"/><use xlink:href="#aa" x="391.601" y="351.779"/><use xlink:href="#E" x="397.969" y="351.779"/><use xlink:href="#F" x="399.983" y="351.779"/><use xlink:href="#af" x="402.628" y="351.779"/><use xlink:href="#T" x="410.858" y="351.779"/><use xlink:href="#R" x="412.903" y="351.779"/><use xlink:href="#M" x="418.253" y="351.779"/><use xlink:href="#F" x="420.268" y="351.779"/><use xlink:href="#H" x="422.912" y="351.779"/><use xlink:href="#E" x="428.63" y="351.779"/><use xlink:href="#N" x="430.644" y="351.779"/><use xlink:href="#E" x="435.842" y="351.779"/><use xlink:href="#F" x="437.856" y="351.779"/><use xlink:href="#aI" x="440.501" y="351.779"/><use xlink:href="#Z" x="446.859" y="351.779"/><use xlink:href="#Q" x="452.21" y="351.779"/><use xlink:href="#R" x="457.56" y="351.779"/><use xlink:href="#ab" x="462.911" y="351.779"/><use xlink:href="#M" x="468.415" y="351.779"/><use xlink:href="#F" x="470.429" y="351.779"/><use xlink:href="#H" x="473.074" y="351.779"/><use xlink:href="#E" x="478.791" y="351.779"/><use xlink:href="#N" x="480.805" y="351.779"/><use xlink:href="#E" x="486.003" y="351.779"/><use xlink:href="#F" x="488.017" y="351.779"/><use xlink:href="#aI" x="490.662" y="351.779"/><use xlink:href="#Z" x="497.02" y="351.779"/><use xlink:href="#ae" x="502.371" y="351.779"/><use xlink:href="#T" x="507.783" y="351.779"/><use xlink:href="#F" x="509.827" y="351.779"/></g><g fill="#231f20"><use xlink:href="#ai" x="105.089" y="366.761"/><use xlink:href="#aj" x="107.917" y="366.761"/><use xlink:href="#ak" x="113.369" y="366.761"/><use xlink:href="#al" x="118.934" y="366.761"/><use xlink:href="#aK" x="123.349" y="366.761"/><use xlink:href="#an" x="128.923" y="366.761"/><use xlink:href="#F" x="131.751" y="366.761"/><use xlink:href="#aD" x="134.355" y="366.761"/><use xlink:href="#Z" x="139.666" y="366.761"/><use xlink:href="#W" x="144.976" y="366.761"/><use xlink:href="#F" x="150.225" y="366.761"/><use xlink:href="#ay" x="152.829" y="366.761"/><use xlink:href="#T" x="158.302" y="366.761"/><use xlink:href="#au" x="160.306" y="366.761"/><use xlink:href="#Z" x="165.26" y="366.761"/><use xlink:href="#W" x="170.57" y="366.761"/><use xlink:href="#aq" x="175.819" y="366.761"/><use xlink:href="#W" x="180.326" y="366.761"/><use xlink:href="#ar" x="185.575" y="366.761"/><use xlink:href="#W" x="187.579" y="366.761"/><use xlink:href="#ay" x="192.828" y="366.761"/><use xlink:href="#aG" x="198.301" y="366.761"/><use xlink:href="#av" x="203.041" y="366.761"/><use xlink:href="#T" x="208.514" y="366.761"/><use xlink:href="#R" x="210.518" y="366.761"/><use xlink:href="#ay" x="215.828" y="366.761"/><use xlink:href="#T" x="221.301" y="366.761"/><use xlink:href="#R" x="223.305" y="366.761"/><use xlink:href="#ab" x="228.615" y="366.761"/><use xlink:href="#F" x="234.078" y="366.761"/><use xlink:href="#aw" x="236.682" y="366.761"/><use xlink:href="#K" x="242.155" y="366.761"/><use xlink:href="#ae" x="246.417" y="366.761"/><use xlink:href="#as" x="251.788" y="366.761"/><use xlink:href="#W" x="256.091" y="366.761"/><use xlink:href="#T" x="261.34" y="366.761"/><use xlink:href="#R" x="263.344" y="366.761"/><use xlink:href="#F" x="268.654" y="366.761"/><use xlink:href="#aI" x="271.259" y="366.761"/><use xlink:href="#aO" x="277.576" y="366.761"/><use xlink:href="#aO" x="283.028" y="366.761"/><use xlink:href="#aI" x="288.481" y="366.761"/><use xlink:href="#aK" x="294.798" y="366.761"/><use xlink:href="#F" x="300.373" y="366.761"/><use xlink:href="#R" x="302.977" y="366.761"/><use xlink:href="#W" x="308.287" y="366.761"/><use xlink:href="#ab" x="313.536" y="366.761"/><use xlink:href="#J" x="318.999" y="366.761"/><use xlink:href="#as" x="324.258" y="366.761"/><use xlink:href="#T" x="328.561" y="366.761"/><use xlink:href="#aq" x="330.565" y="366.761"/><use xlink:href="#W" x="335.072" y="366.761"/><use xlink:href="#ar" x="340.321" y="366.761"/><use xlink:href="#P" x="342.325" y="366.761"/><use xlink:href="#F" x="346.811" y="366.761"/><use xlink:href="#K" x="349.415" y="366.761"/><use xlink:href="#W" x="353.677" y="366.761"/><use xlink:href="#ab" x="358.926" y="366.761"/><use xlink:href="#Q" x="364.389" y="366.761"/><use xlink:href="#ar" x="369.699" y="366.761"/><use xlink:href="#J" x="371.703" y="366.761"/><use xlink:href="#as" x="376.962" y="366.761"/><use xlink:href="#W" x="381.265" y="366.761"/><use xlink:href="#au" x="386.515" y="366.761"/><use xlink:href="#F" x="391.469" y="366.761"/><use xlink:href="#ax" x="394.073" y="366.761"/><use xlink:href="#Q" x="399.169" y="366.761"/><use xlink:href="#as" x="404.479" y="366.761"/><use xlink:href="#J" x="408.782" y="366.761"/><use xlink:href="#R" x="414.042" y="366.761"/><use xlink:href="#W" x="419.352" y="366.761"/><use xlink:href="#ae" x="424.601" y="366.761"/><use xlink:href="#Q" x="429.972" y="366.761"/><use xlink:href="#au" x="435.282" y="366.761"/><use xlink:href="#F" x="440.236" y="366.761"/><use xlink:href="#aH" x="442.84" y="366.761"/><use xlink:href="#ae" x="449.748" y="366.761"/><use xlink:href="#Q" x="455.119" y="366.761"/><use xlink:href="#R" x="460.429" y="366.761"/><use xlink:href="#ay" x="465.739" y="366.761"/><use xlink:href="#F" x="471.212" y="366.761"/><use xlink:href="#Z" x="473.816" y="366.761"/><use xlink:href="#W" x="479.126" y="366.761"/><use xlink:href="#J" x="484.375" y="366.761"/><use xlink:href="#ar" x="489.634" y="366.761"/><use xlink:href="#T" x="491.638" y="366.761"/><use xlink:href="#R" x="493.642" y="366.761"/><use xlink:href="#ab" x="498.953" y="366.761"/><use xlink:href="#E" x="504.415" y="366.761"/><use xlink:href="#F" x="506.389" y="366.761"/><use xlink:href="#G" x="508.993" y="366.761"/><use xlink:href="#E" x="514.201" y="366.761"/></g><use xlink:href="#F" x="516.216" y="366.761" fill="#231f20"/><g fill="#231f20"><use xlink:href="#ah" x="105.089" y="381.743"/><use xlink:href="#aJ" x="110.918" y="381.743"/><use xlink:href="#aw" x="115.465" y="381.743"/><use xlink:href="#E" x="120.978" y="381.743"/><use xlink:href="#F" x="122.993" y="381.743"/><use xlink:href="#af" x="125.637" y="381.743"/><use xlink:href="#W" x="133.867" y="381.743"/><use xlink:href="#ay" x="139.157" y="381.743"/><use xlink:href="#E" x="144.67" y="381.743"/><use xlink:href="#F" x="146.685" y="381.743"/><use xlink:href="#aj" x="149.33" y="381.743"/><use xlink:href="#al" x="154.823" y="381.743"/><use xlink:href="#aj" x="159.278" y="381.743"/><use xlink:href="#F" x="164.772" y="381.743"/><use xlink:href="#ai" x="167.416" y="381.743"/><use xlink:href="#ao" x="170.285" y="381.743"/><use xlink:href="#an" x="174.812" y="381.743"/><use xlink:href="#az" x="177.681" y="381.743"/><use xlink:href="#F" x="179.695" y="381.743"/><use xlink:href="#al" x="182.34" y="381.743"/><use xlink:href="#ak" x="186.795" y="381.743"/><use xlink:href="#am" x="192.4" y="381.743"/><use xlink:href="#al" x="197.985" y="381.743"/><use xlink:href="#aG" x="202.441" y="381.743"/><use xlink:href="#aE" x="207.222" y="381.743"/><use xlink:href="#ak" x="212.837" y="381.743"/><use xlink:href="#F" x="218.442" y="381.743"/></g></svg>