<svg xmlns="http://www.w3.org/2000/svg" xmlns:xlink="http://www.w3.org/1999/xlink" width="793.701" height="1058.268" viewBox="0 0 595.276 793.701" version="1.2"><defs><symbol overflow="visible" id="a"><path d="M7.422 1.36v-7.985h-.734v2.938h-.954V-6.5H5V.984h.734v-3.953h.954V1.36zM2.938-4.626v-.813H4.28v-.625H.813v.625h1.359v.688c0 .48-.043.926-.125 1.328a4.915 4.915 0 0 1-.344 1.125 3.87 3.87 0 0 1-.64.938c-.25.28-.551.539-.891.765.05.043.11.086.172.125.07.031.133.067.187.094a17.48 17.48 0 0 0 .328.234c.176-.12.352-.28.532-.468.175-.196.347-.407.515-.625.145-.196.274-.407.39-.625a3.29 3.29 0 0 0 .25-.672c.052.219.13.43.235.625a4.693 4.693 0 0 0 .844 1.078c.164.156.332.289.5.39a1 1 0 0 1 .266-.25l.125-.125.156-.125a3.154 3.154 0 0 1-.797-.656 3.326 3.326 0 0 1-.547-.86 5.18 5.18 0 0 1-.297-.983 7.006 7.006 0 0 1-.094-1.188zm0 0"/></symbol><symbol overflow="visible" id="b"><path d="M6.078-6.625V-.75h.75v-3.266h1.11v-.64h-1.11v-1.969zm-.344 3.234a5.189 5.189 0 0 1-.562.094c-.242.031-.496.067-.766.094a19.67 19.67 0 0 1-.812.078 8.224 8.224 0 0 1-.703.031l-1.313.016v-2.547H4.61v-.64H.844v3.843H2.25c.227-.008.422-.015.578-.015.258-.008.531-.024.813-.047.277-.02.55-.047.812-.079.258-.027.5-.062.719-.093a3.59 3.59 0 0 0 .562-.11zm1.344 4.594v-.64H2.422v-2.016h-.75v2.656zm0 0"/></symbol><symbol overflow="visible" id="c"><path d="M7.11-2.313v-4.312h-.75v1.578H4.624v-1.312h-.719v1.187h-2.25v-1.187H.922v3.687h3.703V-4.39h1.734v2.079zm-3.204-1h-2.25V-4.53h2.25zM7.11 1.282v-3.234h-.75v.922H2.547v-.922h-.75V1.28zm-.75-.61H2.547V-.405h3.812zm0 0"/></symbol><symbol overflow="visible" id="d"><path d="M7.11-.75v-5.875h-.75V-.75zM.61-4.406c0 .281.05.554.156.812.101.25.242.477.421.672.196.18.422.324.672.438.258.117.551.171.875.171.301 0 .582-.054.844-.171.258-.114.485-.258.672-.438.184-.195.332-.422.438-.672a2.21 2.21 0 0 0 .156-.812c0-.29-.055-.563-.157-.813a2.292 2.292 0 0 0-.437-.687 2.083 2.083 0 0 0-.672-.438 2.102 2.102 0 0 0-.844-.172c-.324 0-.617.059-.875.172-.25.106-.476.254-.671.438-.18.199-.32.43-.422.687-.106.25-.157.524-.157.813zm.765 0c0-.403.113-.75.344-1.032.238-.289.578-.437 1.015-.437.426 0 .758.148 1 .438.239.28.36.628.36 1.03 0 .4-.121.739-.36 1.016-.242.282-.574.422-1 .422-.437 0-.777-.14-1.015-.422-.23-.277-.344-.617-.344-1.015zm5.969 5.61V.562H2.562v-1.985h-.75v2.625zm0 0"/></symbol><symbol overflow="visible" id="f"><path d="M7.047 1.36v-7.985H6.28v7.984zM4.687-.657v-5.469H.97v5.469zm-.734-.64H1.72V-5.47h2.234zm0 0"/></symbol><symbol overflow="visible" id="g"><path d="M7.203 1.36v-7.985H6.47v2.844h-.985V-6.5H4.75V.984h.734v-4.046h.985v4.421zm-2.75-2.75c-.094.023-.21.042-.344.062-.136.023-.289.039-.453.047-.168.023-.336.039-.5.047H2.72l-1.063.015V-3.03h2.157v-3.125H.921v.64h2.172v1.844H.922v3.11l1.547-.016c.383 0 .765-.02 1.14-.063.371-.039.657-.078.844-.109zm0 0"/></symbol><symbol overflow="visible" id="h"><path d="M7.203 1.36v-7.985h-.75v7.984zM1.031-4.376a1.965 1.965 0 0 0 .578 1.406c.196.188.426.336.688.438.258.105.547.156.86.156.3 0 .581-.05.843-.156.258-.102.484-.25.672-.438a1.92 1.92 0 0 0 .437-.625c.114-.246.172-.508.172-.781 0-.27-.058-.523-.172-.766a2.006 2.006 0 0 0-.437-.625A2.182 2.182 0 0 0 4-6.187a2.102 2.102 0 0 0-.844-.172c-.312 0-.601.058-.86.171a2.308 2.308 0 0 0-.687.422 1.961 1.961 0 0 0-.578 1.391zm.735 0c0-.371.117-.691.359-.953.246-.27.594-.406 1.031-.406.426 0 .758.136 1 .406.239.262.36.582.36.953 0 .375-.121.7-.36.969-.242.261-.574.39-1 .39-.437 0-.785-.129-1.031-.39a1.399 1.399 0 0 1-.36-.969zm4.406 3.016a7.804 7.804 0 0 1-.688.093c-.28.032-.586.059-.906.079-.324.023-.637.042-.937.062a8.814 8.814 0 0 1-.688.031 4.92 4.92 0 0 1-.515.016H.609v.656s.086.008.266.016h1.266c.214 0 .367-.004.453-.016.363 0 .722-.008 1.078-.031.351-.02.687-.047 1-.078.308-.028.594-.063.844-.094a9.75 9.75 0 0 0 .656-.094zm0 0"/></symbol><symbol overflow="visible" id="i"><path d="M8.047-3.813v-.671H6.922v-2.141h-.766V-1.5h.766v-2.313zM4.14-6.046v-.594H1.687v.594zm1.14 1.203v-.593H.594v.593zM.921-3.078c0 .18.048.351.141.515.102.157.239.293.407.407.183.125.398.226.64.297.246.062.52.093.813.093.621 0 1.117-.125 1.484-.375.364-.257.547-.57.547-.937 0-.363-.183-.676-.547-.938-.355-.257-.847-.39-1.468-.39-.305 0-.583.039-.829.11-.25.062-.464.16-.64.28-.18.118-.317.258-.407.422-.093.168-.14.34-.14.516zm.782-.016c0-.215.11-.39.328-.515.227-.133.531-.204.906-.204.383 0 .688.067.907.188.215.125.328.305.328.531 0 .23-.113.414-.328.547-.219.137-.524.203-.906.203-.376 0-.68-.062-.907-.187a.625.625 0 0 1-.328-.563zm5.219 4.5v-2.515h-5.36v.625h4.579v1.89zm0 0"/></symbol><symbol overflow="visible" id="j"><path d="M7.11-.75v-5.875h-.75v.922H4.421a2.105 2.105 0 0 0-1.703-.844 2.076 2.076 0 0 0-1.531.64 1.962 1.962 0 0 0-.438.673c-.094.261-.14.535-.14.812 0 .293.046.57.14.828.102.25.25.477.438.672.183.188.41.34.671.453.258.106.547.156.86.156.37 0 .71-.078 1.015-.234.309-.164.555-.383.735-.656h1.89V-.75zm-.75-3.11H4.75a1.39 1.39 0 0 0 .063-.265c.019-.102.03-.203.03-.297a1.73 1.73 0 0 0-.03-.312 1.769 1.769 0 0 0-.063-.313h1.61zm-4.985-.562c0-.402.113-.75.344-1.031.238-.29.57-.438 1-.438.433 0 .77.149 1 .438.238.281.36.629.36 1.031 0 .406-.122.754-.36 1.031-.23.282-.567.422-1 .422-.43 0-.762-.14-1-.422-.23-.277-.344-.625-.344-1.03zm5.953 5.625v-.64H2.562v-1.985h-.75v2.625zm0 0"/></symbol><symbol overflow="visible" id="k"><path d="M7.781-2.156v-.64H6.484c.051-.227.098-.49.141-.782l.125-.906c.027-.32.055-.641.078-.954.027-.32.05-.625.063-.906H1.156v.64h4.938c-.024.481-.07.974-.14 1.47-.063.492-.15.972-.25 1.437H.265v.64h3.312V1.36h.75v-3.515zm0 0"/></symbol><symbol overflow="visible" id="m"><path d="M3.813-4.36v-.015h1.593v-.813h-4.25v.813h1.578v.016c-.023.18-.086.351-.187.515a2.406 2.406 0 0 1-.406.453c-.211.168-.446.317-.704.438a4.476 4.476 0 0 1-.796.297c.113.105.238.226.375.36.144.124.257.241.343.343.207-.07.407-.16.594-.266a4.05 4.05 0 0 0 .547-.344c.164-.113.316-.238.453-.374.133-.145.242-.29.328-.438.09.156.207.3.344.422.145.125.3.246.469.36.164.116.336.214.515.296.176.086.344.149.5.188.059-.09.145-.204.25-.329.114-.12.227-.242.344-.359-.2-.039-.41-.11-.625-.203a3.041 3.041 0 0 1-.594-.375 2.077 2.077 0 0 1-.453-.453 1.053 1.053 0 0 1-.218-.531zm2.25 3.126a6.179 6.179 0 0 1-.594.078c-.219.023-.446.039-.672.047-.219.011-.43.023-.625.03a7.116 7.116 0 0 1-.422.016V-2.25h-.969v1.203H.562v.86h1.844c.29 0 .614-.004.969-.016A22.94 22.94 0 0 0 4.422-.25c.34-.02.656-.04.937-.063.29-.019.524-.046.704-.078zm1.25 2.609v-8.016h-.954v8.016zm-2.86-7.11v-.796H2.016v.797zm0 0"/></symbol><symbol overflow="visible" id="n"><path d="M7.203-.75v-5.89h-.969v5.89zM3.328-5.39v-1.094H2.297v1.125c0 .304-.055.59-.156.859-.094.262-.23.496-.407.703-.199.262-.433.496-.703.703-.273.2-.558.367-.86.5.134.106.274.223.423.344.152.125.273.23.36.313.175-.09.359-.208.546-.344a5.69 5.69 0 0 0 .547-.453c.164-.153.316-.329.453-.516.145-.184.25-.375.313-.563.101.2.234.383.39.547.152.168.32.325.5.47.152.136.32.26.5.374.176.117.344.211.5.281.07-.101.164-.222.281-.359.121-.133.239-.266.344-.39a2.993 2.993 0 0 1-.75-.376 2.764 2.764 0 0 1-.64-.578 2.758 2.758 0 0 1-.454-.719 2.17 2.17 0 0 1-.156-.828zm4.063 6.609V.375H2.766v-1.734h-1v2.578zm0 0"/></symbol><symbol overflow="visible" id="o"><path d="M7.781-2.063v-.843h-3.25v-.906h2.39v-.829H2.204v-.984h4.64v-.828H1.235v2.64h2.297v.907H.281v.844zm-3.75 3.594c.965 0 1.707-.152 2.219-.453.508-.305.766-.676.766-1.11 0-.445-.258-.816-.766-1.109-.512-.289-1.254-.437-2.219-.437-.98 0-1.726.148-2.234.437-.512.293-.766.664-.766 1.11 0 .433.254.804.766 1.11.508.3 1.254.452 2.234.452zM2.156-.047c0-.246.16-.441.485-.578.332-.133.796-.203 1.39-.203.57 0 1.024.074 1.36.219.332.136.5.332.5.578 0 .246-.168.441-.5.578C5.055.68 4.6.75 4.03.75c-.593 0-1.058-.074-1.39-.219C2.316.395 2.156.2 2.156-.047zm0 0"/></symbol><symbol overflow="visible" id="p"><path d="M7.906-2.875v-.828H6.875v-.922h1.031v-.828H6.875v-1.188h-.969v5.063h.969v-1.297zM4.063-5.953v-.734H1.578v.734zm1.125 1.219v-.735H.468v.735zM.702-3.188c0 .18.05.348.156.5.114.149.266.274.454.376.183.117.41.21.671.28.258.063.54.095.844.095.645 0 1.16-.118 1.547-.36.383-.238.578-.539.578-.906 0-.34-.195-.629-.578-.86-.375-.226-.887-.343-1.531-.343-.313 0-.602.035-.86.093a2.298 2.298 0 0 0-.671.266c-.188.106-.34.238-.454.39a.794.794 0 0 0-.156.47zm3.235-.015c0 .2-.102.348-.297.437-.2.094-.465.141-.797.141-.344 0-.617-.047-.813-.14-.199-.09-.297-.235-.297-.422 0-.176.098-.317.297-.422.196-.102.469-.157.813-.157.332 0 .597.055.797.157.195.093.296.23.296.406zM7.046 0a.949.949 0 0 0-.219-.61 1.8 1.8 0 0 0-.578-.484 3.32 3.32 0 0 0-.922-.297A5.637 5.637 0 0 0 4.203-1.5c-.406 0-.789.04-1.14.11-.344.062-.649.16-.907.28a1.688 1.688 0 0 0-.61.47.927.927 0 0 0-.218.609c0 .238.067.453.203.64.145.196.348.364.61.5.257.133.562.235.906.297.351.07.734.11 1.14.11a6.6 6.6 0 0 0 1.11-.094 3.32 3.32 0 0 0 .922-.297c.258-.125.46-.285.61-.469.144-.187.218-.41.218-.656zm-4.64-.016c0-.132.046-.25.14-.343.101-.102.238-.18.406-.235a2.49 2.49 0 0 1 .563-.125c.214-.027.441-.047.671-.047.489 0 .899.067 1.235.188.34.125.516.316.516.562 0 .133-.055.25-.157.344a1.49 1.49 0 0 1-.375.25c-.168.059-.355.11-.562.14-.211.028-.426.048-.64.048-.243 0-.474-.02-.688-.047a2.957 2.957 0 0 1-.563-.14.952.952 0 0 1-.406-.25.472.472 0 0 1-.14-.345zm0 0"/></symbol><symbol overflow="visible" id="q"><path d="M7.797.484v-.843H4.53V-2h2.282v-4.422h-.97v1.313h-3.64v-1.313h-.969V-2h2.282v1.64H.28v.844zM5.844-2.844h-3.64v-1.422h3.64zm0 0"/></symbol><symbol overflow="visible" id="r"><path d="M1.078-6.203v.828h4.766c-.024.637-.074 1.3-.157 1.984-.085.68-.183 1.336-.296 1.97h.968l.172-1.141c.059-.415.114-.833.157-1.25.05-.426.093-.844.125-1.25.027-.415.054-.797.078-1.141zM7.797.484v-.843H3.844v-2.985h-.985v2.985H.281v.843zm0 0"/></symbol><symbol overflow="visible" id="s"><path d="M7.203 1.375v-8.016H6.22v2.313H4.53v.906H6.22v4.797zm-3.89-5.938v-1.765H2.296v1.719c0 .406-.05.793-.14 1.156-.087.355-.212.683-.376.984-.187.356-.43.68-.718.969a4.889 4.889 0 0 1-.97.75c.145.094.29.207.438.328.153.117.281.223.375.313.176-.114.364-.258.563-.438.195-.183.39-.39.578-.61a7.06 7.06 0 0 0 .453-.64 2.62 2.62 0 0 0 .313-.656c.09.23.21.457.359.672.152.218.32.426.5.61.164.187.336.362.515.515.176.148.348.273.516.375a5.852 5.852 0 0 1 .719-.656 5.685 5.685 0 0 1-.922-.704 3.572 3.572 0 0 1-.688-.89 3.265 3.265 0 0 1-.374-.922 4.443 4.443 0 0 1-.126-1.11zm0 0"/></symbol><symbol overflow="visible" id="u"><path d="M2.766-.547L1.125-6.125H.109L2.266.672h.968l2.172-6.797H4.391zm0 0"/></symbol><symbol overflow="visible" id="v"><path d="M2.438-3.688c.382 0 .675.18.874.532.196.355.297.82.297 1.39 0 .586-.101 1.051-.296 1.391-.2.344-.493.516-.876.516-.374 0-.664-.172-.859-.516-.187-.34-.281-.805-.281-1.39 0-.57.094-1.036.281-1.391.195-.352.484-.531.86-.531zm0-.75c-.7 0-1.227.247-1.579.735-.343.492-.515 1.137-.515 1.937C.344-.96.516-.32.859.156c.352.477.88.719 1.579.719.695 0 1.226-.242 1.593-.719.364-.476.547-1.117.547-1.922 0-.8-.183-1.445-.547-1.937-.367-.488-.898-.735-1.593-.735zm0 0"/></symbol><symbol overflow="visible" id="w"><path d="M.563-6.125V.672h.906v-6.797zm0 0"/></symbol><symbol overflow="visible" id="x"><path d="M.64-.047v1.203h1.25V-.047zm0 0"/></symbol><symbol overflow="visible" id="y"><path d="M2-6.25c-.605 0-1.059.324-1.36.969C.349-4.645.204-3.77.204-2.656c0 1.117.145 1.992.438 2.625.3.62.754.937 1.359.937.602 0 1.055-.316 1.36-.937.308-.633.468-1.508.468-2.625 0-1.114-.16-1.989-.469-2.625C3.055-5.926 2.602-6.25 2-6.25zm0 .797c.27 0 .488.258.656.766.164.5.25 1.18.25 2.03 0 .845-.086 1.52-.25 2.016-.168.5-.386.75-.656.75-.273 0-.488-.25-.64-.75-.157-.496-.235-1.171-.235-2.015 0-.852.078-1.531.234-2.031.153-.508.368-.766.641-.766zm0 0"/></symbol><symbol overflow="visible" id="z"><path d="M2.906-2.063c-.054.688-.18 1.231-.375 1.626-.187.386-.41.578-.656.578-.219 0-.395-.114-.516-.329a1.565 1.565 0 0 1-.203-.75H.25C.25-.344.395.113.688.438c.3.32.703.485 1.203.485.351 0 .656-.106.906-.313.258-.199.46-.476.61-.828.152-.351.269-.77.343-1.25.07-.476.11-1 .11-1.562 0-.477-.04-.914-.11-1.313a3.483 3.483 0 0 0-.344-1.015c-.148-.278-.34-.5-.578-.657a1.42 1.42 0 0 0-.844-.25c-.562 0-1.011.223-1.343.657-.336.437-.5 1.023-.5 1.75 0 .398.047.738.14 1.015.102.281.235.512.39.688.153.187.337.324.548.406.207.086.414.125.625.125a1.7 1.7 0 0 0 .562-.094c.184-.058.352-.176.5-.343zm-.953-.359c-.273 0-.488-.14-.64-.422-.157-.277-.235-.656-.235-1.125 0-.445.078-.812.234-1.094.153-.277.368-.421.641-.421.238 0 .445.148.625.437.176.281.266.645.266 1.078 0 .469-.09.848-.266 1.125-.168.281-.379.422-.625.422zm0 0"/></symbol><symbol overflow="visible" id="A"><path d="M3.422-7.313a.124.124 0 0 0-.031-.078.119.119 0 0 0-.079-.062.133.133 0 0 0-.078 0 .589.589 0 0 0-.078.047l-1.844.828a.934.934 0 0 0-.218.078c-.086.043-.125.102-.125.172 0 .043.008.082.031.11a.143.143 0 0 0 .094.03c.05 0 .113-.015.187-.046.07-.028.133-.051.188-.063l.687-.312c.051-.02.102-.04.156-.063a.364.364 0 0 1 .172-.047c.07 0 .118.024.141.063.02.043.031.097.031.156v5.078c0 .367-.043.617-.125.75-.074.125-.316.188-.719.188-.25 0-.414.011-.484.03-.074.013-.11.052-.11.11 0 .063.016.106.048.125.027.024.082.032.156.032h3.094c.058 0 .109-.008.14-.032.028-.02.047-.054.047-.11 0-.058-.02-.1-.047-.124a.278.278 0 0 0-.14-.031h-.329c-.375 0-.601-.079-.671-.235-.063-.164-.094-.41-.094-.734zm0 0"/></symbol><symbol overflow="visible" id="B"><path d="M1.672.344c-.012.02-.008.031.016.031.019.008.035.016.046.016h.172c.082 0 .13-.028.14-.079.02-.042.052-.105.095-.187l3.125-7.047c.02-.027.039-.066.062-.11a.385.385 0 0 0 .031-.124c0-.082-.054-.125-.156-.125C5.11-7.29 5.04-7.297 5-7.297H.5c-.074 0-.121.024-.14.063a.329.329 0 0 0-.032.156l.047.61c.008.011.016.042.016.093.007.055.03.078.062.078.02 0 .04-.004.063-.016l.046-.046c.114-.028.204-.051.266-.063.07-.008.164-.016.281-.016h3.235c.05 0 .097.012.14.032.051.023.079.066.079.125 0 .031-.02.082-.047.14a.712.712 0 0 0-.063.157zm0 0"/></symbol><symbol overflow="visible" id="C"><path d="M5.031 0v-.422H1.438V-7H1v7zm0 0"/></symbol><symbol overflow="visible" id="D"><path d="M4.719-2.469c0-1.656-.188-2.625-2.016-2.625C.891-5.094.672-4.14.672-2.5.672-.812.922.078 2.719.078c.984 0 1.922-.281 1.922-1.453h-.407c0 .875-.796 1.016-1.5 1.016-1.515 0-1.625-.72-1.625-2.11zm-.422-.406H1.109c0-1.219.329-1.797 1.594-1.797 1.266 0 1.594.547 1.594 1.797zm0 0"/></symbol><symbol overflow="visible" id="F"><path d="M5.078 0v-.422H1.453V-3.39H4.97v-.421H1.453v-2.766h3.625V-7H1v7zm0 0"/></symbol><symbol overflow="visible" id="G"><path d="M4.422-2.156V-7h-.453v4.86c0 1.187-.219 1.78-1.531 1.78C1.359-.36.843-.624.843-1.78H.422c0 1.422.687 1.86 2.015 1.86 1.594 0 1.985-.782 1.985-2.235zm0 0"/></symbol><symbol overflow="visible" id="H"><path d="M1.281.156v-.781H.86v.781c0 .438-.015.656-.343.969l-.188.203.266.281.265-.234c.36-.328.422-.625.422-1.219zm0 0"/></symbol><symbol overflow="visible" id="I"><path d="M5.64 0v-7h-.437v3.188H1.437V-7H1v7h.438v-3.39h3.765V0zm0 0"/></symbol><symbol overflow="visible" id="J"><path d="M6.75-5.016h-.438L5.063-.578l-1.28-4.438h-.5L2-.578.75-5.016H.297L1.734 0h.516l1.281-4.453L4.797 0h.516zm0 0"/></symbol><symbol overflow="visible" id="K"><path d="M4.625 0v-2.922c0-1.14.14-2.172-1.875-2.172-1.016 0-2.031.219-2.031 1.453h.406c0-.937.828-1.03 1.547-1.03 1.625 0 1.515.609 1.515 1.702H2.47c-1.156 0-1.875.235-1.875 1.547 0 1.063.562 1.5 1.812 1.5.906 0 1.547-.281 1.813-.86V0zm-.438-2.563c.032 1.391-.14 2.235-1.812 2.235-.984 0-1.344-.328-1.344-1.094 0-1 .532-1.14 1.39-1.14zm0 0"/></symbol><symbol overflow="visible" id="L"><path d="M4.672 0v-2.672c0-.953.031-1.547-.406-2-.266-.281-.704-.422-1.36-.422-.64 0-1.297.188-1.64.844v-.766H.859V0h.438v-2.219c0-1.156-.078-2.453 1.61-2.453.452 0 .796.094 1.015.313.328.312.312.78.312 1.765V0zm0 0"/></symbol><symbol overflow="visible" id="M"><path d="M4.75-.453v-4.563h-.422v.735c-.312-.547-.875-.813-1.719-.813C.766-5.094.672-3.969.672-2.562.672-1 .812.015 2.609.015 3.453.016 4-.266 4.313-.813 4.296-.234 4.39.391 4.14.923c-.25.531-.829.687-1.5.687-.938 0-1.438-.312-1.438-1.015H.781c.016 1.015.735 1.437 1.89 1.437.845 0 1.548-.234 1.86-.937.172-.375.219-.797.219-1.547zm-.422-2.094c0 1.64-.469 2.11-1.766 2.11-1.406 0-1.453-.891-1.453-2.11 0-1.203.047-2.125 1.454-2.125 1.312 0 1.765.516 1.765 2.125zm0 0"/></symbol><symbol overflow="visible" id="N"><path d="M1.438 0v-7H1v7zm0 0"/></symbol><symbol overflow="visible" id="O"><path d="M5.578 0l-3.75-3.516L5.562-7h-.625l-3.5 3.313V-7H1v7h.438v-3.297L4.905 0zm0 0"/></symbol><symbol overflow="visible" id="P"><path d="M1.406-6.734c0-.235-.11-.329-.328-.329-.219 0-.328.094-.328.329 0 .218.11.343.328.343.219 0 .328-.125.328-.343zM1.296 0v-5.016H.86V0zm0 0"/></symbol><symbol overflow="visible" id="Q"><path d="M7.438 0v-3.031c0-.781.125-2.063-1.594-2.063-.61 0-1.282.219-1.594.907-.203-.704-.813-.907-1.469-.907-.61 0-1.219.203-1.515.797v-.719H.859V0h.438v-2.203c0-1.125-.094-2.469 1.437-2.469 1.125 0 1.188.61 1.188 1.625V0h.437v-2.203c0-1.188-.046-2.453 1.454-2.453 1.14 0 1.187.593 1.187 1.61V0zm0 0"/></symbol><symbol overflow="visible" id="R"><path d="M5.828 0v-3.813H3.234v.422h2.172c0 .641.063 1.75-.312 2.329-.313.453-.907.703-1.766.703-2.156 0-2.047-1.079-2.047-3.125 0-2.079-.078-3.157 2.078-3.157 1.5 0 2.032.36 2.047 1.438h.422c0-1.375-.766-1.86-2.375-1.86C.828-7.063.828-5.766.828-3.483.828-1.344.781.078 3.313.078c.984 0 1.734-.312 2.109-1.031V0zm0 0"/></symbol><symbol overflow="visible" id="S"><path d="M7.328 0v-7h-.61L4.173-.5 1.594-7H1v7h.422v-6.344L3.922 0h.469l2.5-6.344V0zm0 0"/></symbol><symbol overflow="visible" id="T"><path d="M4.844-2.5c0-1.5-.14-2.594-2.094-2.594C.797-5.094.672-4 .672-2.5.672-1 .797.078 2.75.078 4.703.078 4.844-1 4.844-2.5zm-.438 0c0 1.406-.093 2.14-1.656 2.14-1.547 0-1.64-.734-1.64-2.14 0-1.406.093-2.172 1.64-2.172 1.563 0 1.656.766 1.656 2.172zm0 0"/></symbol><symbol overflow="visible" id="U"><path d="M5.875-3.5c0-1.547-.094-2.125-.375-2.64C5.11-6.767 4.531-7 3.297-7H1v7h2.297C4.53 0 5.109-.219 5.5-.86c.281-.5.375-1.093.375-2.64zm-.438 0c0 1.516-.109 2.078-.359 2.469-.281.437-.719.61-1.844.61H1.438v-6.157h1.796c1.125 0 1.563.156 1.844.61.25.39.36.952.36 2.468zm0 0"/></symbol><symbol overflow="visible" id="V"><path d="M5.719-2.016c0-1.765-1.125-1.765-2.485-1.78-1.093-.017-2.046.093-2.046-1.329 0-1.406.812-1.516 2-1.516 1.078 0 2.046.063 2.046 1.438h.422c0-1.64-1.093-1.86-2.453-1.86C1.75-7.063.75-6.827.75-5.109c0 1.765 1.125 1.718 2.469 1.75 1.203.015 2.047-.079 2.047 1.375C5.266-.578 4.453-.36 3.25-.36c-1.11 0-2.063-.063-2.063-1.422H.75c0 1.64 1.11 1.86 2.469 1.86 1.484 0 2.5-.392 2.5-2.095zm0 0"/></symbol><symbol overflow="visible" id="W"><path d="M5.188-7h-.485L2.672-3.516.609-7h-.5l2.313 3.922V0h.437v-3.078zm0 0"/></symbol><symbol overflow="visible" id="X"><path d="M5.719-1.781h-.422C5.297-.72 4.859-.36 3.344-.36c-2.11 0-2.063-1.079-2.063-3.125 0-2.079-.047-3.157 2.063-3.157 1.515 0 1.953.36 1.953 1.438h.422c0-1.375-.657-1.86-2.297-1.86C.828-7.063.828-5.734.828-3.483c0 2.234 0 3.562 2.594 3.562 1.64 0 2.297-.5 2.297-1.86zm0 0"/></symbol><symbol overflow="visible" id="Y"><path d="M4.281-3.656c0-1.016-.562-1.438-1.5-1.438-.578 0-1.156.157-1.515.813v-.735H.859V0h.438v-2.172c0-1.125-.094-2.5 1.437-2.5.72 0 1.141.219 1.141 1.016zm0 0"/></symbol><symbol overflow="visible" id="Z"><path d="M5.656-5.11C5.656-7 4.672-7 3.188-7H1v7h.438v-3.234h1.75c1.468 0 2.468-.032 2.468-1.875zm-.453-.015c0 1.547-.812 1.469-2.062 1.469H1.437v-2.922h1.704c1.234 0 2.062-.063 2.062 1.453zm0 0"/></symbol><symbol overflow="visible" id="aa"><path d="M1.406-.281c0-.25-.11-.36-.343-.36-.235 0-.344.11-.344.36 0 .234.11.36.344.36.234 0 .343-.126.343-.36zm0 0"/></symbol><symbol overflow="visible" id="ab"><path d="M4.766 0v-7.313h-.438v3.032c-.328-.547-.844-.813-1.703-.813C.828-5.094.672-4.016.672-2.5.672-.937.828.078 2.625.078c.844 0 1.406-.281 1.719-.828V0zm-.438-2.5c0 1.656-.437 2.14-1.75 2.14C1.156-.36 1.11-1.28 1.11-2.5c0-1.25.079-2.156 1.47-2.156 1.312 0 1.75.5 1.75 2.156zm0 0"/></symbol><symbol overflow="visible" id="ac"><path d="M4.188-1.375H3.78c0 .75-.36 1.031-1.14 1.031-.75 0-1.11-.219-1.11-1.031v-3.234h2.25v-.407h-2.25V-7h-.437v1.984H.266v.407h.828v3.234c0 1.078.531 1.453 1.531 1.453.969 0 1.563-.39 1.563-1.453zm0 0"/></symbol><symbol overflow="visible" id="ad"><path d="M4.672 0v-2.672c0-.953.031-1.531-.406-2-.266-.281-.72-.422-1.36-.422-.64 0-1.265.172-1.61.813v-3.032H.86V0h.438v-2.219c0-1.156-.078-2.453 1.61-2.453.452 0 .796.094 1.015.313.328.312.312.78.312 1.765V0zm0 0"/></symbol><symbol overflow="visible" id="ae"><path d="M1.297 0v-7.313H.859V0zm0 0"/></symbol><symbol overflow="visible" id="af"><path d="M3.922-2.313v-.406H.953v.406zm0 0"/></symbol><symbol overflow="visible" id="ag"><path d="M4.328 0v-.422h-1.64V-7h-.422L.562-5.437l.282.296L2.25-6.437v6.015H.594V0zm0 0"/></symbol><symbol overflow="visible" id="ah"><path d="M5.906 0L3.313-7h-.47L.267 0h.453L1.5-2.14h3.14L5.439 0zM4.484-2.531H1.656l1.422-3.922zm0 0"/></symbol><symbol overflow="visible" id="ai"><path d="M4.594 0v-5.016h-.438v2.235c0 1.14.078 2.437-1.61 2.437-.452 0-.796-.094-1.015-.312-.328-.313-.328-.781-.328-1.766v-2.594H.766v2.672c0 .953-.016 1.547.421 2 .266.281.704.422 1.36.422.64 0 1.281-.187 1.64-.828V0zm0 0"/></symbol><symbol overflow="visible" id="aj"><path d="M4.484-1.422c0-1.5-1.093-1.234-2.406-1.375-.719-.078-.969-.172-.953-.937 0-.688.422-.938 1.547-.938 1.078 0 1.39.313 1.39 1.016h.407c0-.453-.11-.797-.313-1.016-.281-.297-.765-.422-1.484-.422C1.312-5.109.687-4.75.687-3.656c0 1.484 1.016 1.234 2.36 1.36.812.077 1 .25 1 .905 0 .766-.453 1.047-1.563 1.047-1.125 0-1.468-.25-1.468-1.031H.609C.61-.281 1.156.063 2.484.078c1.344 0 2-.406 2-1.5zm0 0"/></symbol><symbol overflow="visible" id="ak"><path d="M5.14-6.578V-7H.314v.422H2.5V0h.453v-6.578zm0 0"/></symbol><symbol overflow="visible" id="al"><path d="M4.938-2.5c0-1.563-.172-2.594-1.954-2.594-.843 0-1.406.297-1.718.844v-.766H.859V2h.438V-.734c.312.546.844.812 1.687.812C4.781.078 4.938-.953 4.938-2.5zM4.5-2.516c0 1.204-.047 2.157-1.453 2.157-1.313 0-1.766-.5-1.766-2.157 0-1.64.453-2.14 1.766-2.14 1.406 0 1.453.937 1.453 2.14zm0 0"/></symbol><symbol overflow="visible" id="am"><path d="M4.656-1.375h-.422c0 .89-.78 1.016-1.484 1.016-1.563 0-1.64-.766-1.64-2.157 0-1.406.077-2.156 1.64-2.156.703 0 1.484.156 1.484 1.031h.422c0-1.171-.937-1.453-1.922-1.453C.922-5.094.672-4.187.672-2.5.672-.812.906.078 2.734.078c.985 0 1.922-.266 1.922-1.453zm0 0"/></symbol><symbol overflow="visible" id="an"><path d="M4.36-5.016h-.47L2.376-.578.797-5.016H.328l1.813 5L1.406 2h.438zm0 0"/></symbol><symbol overflow="visible" id="ao"><path d="M4.297-6.219c0-.875-.75-1.156-1.61-1.156-.546 0-.984.094-1.28.39-.25.25-.345.579-.345 1.048v.921H.25v.407h.813V0H1.5v-4.61h2.188v-.406H1.5v-.921c0-.844.469-1.016 1.203-1.016.516 0 1.188.094 1.188.734zm0 0"/></symbol><symbol overflow="visible" id="ap"><path d="M4.438-5.016h-.454l-1.64 4.5-1.672-4.5H.219L2.079 0h.5zm0 0"/></symbol><symbol overflow="visible" id="aq"><path d="M4.875-5.125c0-.75-.156-1.234-.516-1.531-.328-.282-.875-.407-1.515-.407-1.281 0-1.985.36-1.985 1.47h.438c0-.798.5-1.048 1.578-1.048.766 0 1.219.188 1.406.594.11.234.157.531.157.922 0 .516-.11.844-.344 1.094-.375.437-1.438.672-2.032.906C1.345-2.844.86-2.437.86-1.531V0h4v-.422H1.297v-.906c0-.75.125-1.063.875-1.39.547-.235 1.719-.485 2.219-.97.343-.343.484-.796.484-1.437zm0 0"/></symbol><symbol overflow="visible" id="ar"><path d="M5.578-7h-.453L2.859-.578.594-7H.125l2.484 7h.47zm0 0"/></symbol><symbol overflow="visible" id="as"><path d="M5.031-6.578V-7H1v7h.438v-3.39h3.5v-.422h-3.5v-2.766zm0 0"/></symbol><symbol overflow="visible" id="at"><path d="M4.922-3.484c0-1.766-.047-2.235-.25-2.657-.313-.64-.89-.921-1.828-.921-.938 0-1.516.28-1.813.921-.203.422-.25.891-.25 2.657 0 1.53.031 2.03.172 2.421.25.782.875 1.141 1.89 1.141 1.032 0 1.657-.36 1.923-1.14.125-.391.156-.891.156-2.422zm-.438 0c0 1.53-.046 2.062-.203 2.421-.203.485-.61.72-1.437.72-.813 0-1.219-.235-1.438-.72-.14-.359-.187-.89-.187-2.421 0-1.344.047-1.938.14-2.266.188-.61.594-.89 1.485-.89.906 0 1.312.28 1.5.89.093.328.14.922.14 2.266zm0 0"/></symbol><symbol overflow="visible" id="au"><path d="M4.875-3.797c0-1-.063-1.719-.203-2.125-.266-.75-.953-1.14-1.89-1.14-1.407 0-2.016.671-2.016 2.203 0 1.625.53 2.25 1.968 2.25.86 0 1.407-.36 1.704-.907 0 .625 0 1.688-.172 2.282-.172.609-.61.89-1.532.89-.968 0-1.437-.344-1.437-1.062H.859C.86-.36 1.563.078 2.75.078c1.172 0 1.844-.422 2-1.406.094-.5.125-1.36.125-2.469zm-.484-1.015c0 1.203-.563 1.765-1.704 1.765-1.109 0-1.5-.437-1.5-1.812 0-1.313.454-1.782 1.594-1.782 1.11 0 1.61.532 1.61 1.829zm0 0"/></symbol><symbol overflow="visible" id="av"><path d="M5.031-2.094V-2.5h-1V-7h-.453L.547-2.5v.406h3.047V0h.437v-2.094zM3.594-2.5H1.063l2.53-3.797zm0 0"/></symbol><symbol overflow="visible" id="aw"><path d="M4.938-2.5c0-1.547-.172-2.594-1.954-2.594-.843 0-1.375.266-1.687.813v-3.032H.859V0h.407v-.75c.28.484.796.828 1.718.828C4.766.078 4.938-.938 4.938-2.5zm-.438 0c0 1.203-.047 2.14-1.453 2.14C1.734-.36 1.28-.874 1.28-2.5c0-1.656.453-2.156 1.766-2.156 1.39 0 1.453.922 1.453 2.156zm0 0"/></symbol><symbol overflow="visible" id="ax"><path d="M4.766 2v-7.016h-.438v.735c-.312-.547-.86-.813-1.719-.813C.83-5.094.672-4.062.672-2.516.672-.969.812.078 2.609.078 3.453.078 4-.188 4.33-.734V2zm-.438-4.5c0 1.656-.453 2.14-1.766 2.14-1.406 0-1.453-.937-1.453-2.14 0-1.219.047-2.156 1.454-2.156 1.312 0 1.765.5 1.765 2.156zm0 0"/></symbol><symbol overflow="visible" id="ay"><path d="M4.531 0L1.703-2.688 4.5-5.015h-.61L1.298-2.859v-4.454H.859V0h.438v-2.531L3.922 0zm0 0"/></symbol><symbol overflow="visible" id="az"><path d="M5.656 0v-1.61c0-.671.11-1.687-.875-1.937.703-.203.875-.86.875-1.562C5.656-7.063 4.61-7 3.188-7H1v7h.438v-3.328H3.14c1.921 0 2.078.125 2.078 1.75V0zM5.22-5.14c0 1.5-.813 1.39-2.016 1.39H1.438v-2.828H3.14c1.218 0 2.078-.078 2.078 1.437zm0 0"/></symbol><symbol overflow="visible" id="aA"><path d="M8.36-7h-.438L6.406-.656 4.703-7h-.531L2.469-.656.969-7H.516l1.656 7h.547l1.719-6.39L6.14 0h.53zm0 0"/></symbol><symbol overflow="visible" id="aB"><path d="M5.922-3.5c0-2.125.078-3.563-2.547-3.563S.828-5.625.828-3.5.75.078 3.375.078 5.922-1.375 5.922-3.5zm-.453.016c0 2.03.078 3.125-2.094 3.125-2.172 0-2.094-1.094-2.094-3.125 0-2.047-.078-3.157 2.094-3.157 2.172 0 2.094 1.11 2.094 3.157zm0 0"/></symbol><symbol overflow="visible" id="aC"><path d="M5.625 0v-7h-.438v6.344L1.547-7H1v7h.438v-6.36L5.063 0zm0 0"/></symbol><symbol overflow="visible" id="aD"><path d="M4.344-6.578V-7H.297v.422h3.578L.906 0h.485zm0 0"/></symbol><symbol overflow="visible" id="aE"><path d="M4.938-1.89c0-1.063-.313-1.563-1.047-1.75.828-.235.984-.813.984-1.641 0-1.313-.563-1.782-2.016-1.782S.844-6.593.844-5.28c0 .875.14 1.406.984 1.64-.719.188-1.047.688-1.047 1.75 0 1.5.672 1.97 2.078 1.97 1.407 0 2.079-.47 2.079-1.97zm-.5-3.36c0 1.188-.485 1.406-1.579 1.406-1.093 0-1.578-.234-1.578-1.437 0-1.047.344-1.36 1.578-1.36 1.22 0 1.579.313 1.579 1.391zM4.5-1.86c0 1.266-.484 1.5-1.64 1.5-1.188 0-1.641-.234-1.641-1.515 0-1.313.453-1.547 1.64-1.547 1.157 0 1.641.281 1.641 1.563zm0 0"/></symbol></defs><g fill="#4f4c4d"><use xlink:href="#a" x="336.961" y="47.727"/><use xlink:href="#b" x="344.962" y="47.727"/><use xlink:href="#c" x="352.962" y="47.727"/><use xlink:href="#d" x="360.962" y="47.727"/><use xlink:href="#e" x="368.962" y="47.727"/><use xlink:href="#f" x="371.569" y="47.727"/><use xlink:href="#g" x="379.57" y="47.727"/><use xlink:href="#h" x="387.57" y="47.727"/><use xlink:href="#i" x="395.57" y="47.727"/><use xlink:href="#j" x="403.57" y="47.727"/><use xlink:href="#k" x="411.571" y="47.727"/><use xlink:href="#a" x="419.571" y="47.727"/><use xlink:href="#b" x="427.571" y="47.727"/></g><use xlink:href="#l" x="435.571" y="47.727" fill="#231f20"/><g fill="#231f20"><use xlink:href="#m" x="438.177" y="47.727"/><use xlink:href="#n" x="446.178" y="47.727"/><use xlink:href="#o" x="454.178" y="47.727"/><use xlink:href="#p" x="462.178" y="47.727"/><use xlink:href="#q" x="470.178" y="47.727"/><use xlink:href="#r" x="478.179" y="47.727"/><use xlink:href="#s" x="486.179" y="47.727"/><use xlink:href="#t" x="494.179" y="47.727"/><use xlink:href="#u" x="496.786" y="47.727"/></g><g fill="#231f20"><use xlink:href="#v" x="501.703" y="47.727"/><use xlink:href="#w" x="506.503" y="47.727"/><use xlink:href="#x" x="508.436" y="47.727"/><use xlink:href="#t" x="511.043" y="47.727"/><use xlink:href="#y" x="513.65" y="47.727"/><use xlink:href="#z" x="517.605" y="47.727"/></g><g fill="#393536"><use xlink:href="#A" x="535.245" y="48.426"/><use xlink:href="#B" x="540.818" y="48.426"/><use xlink:href="#B" x="546.392" y="48.426"/></g><g fill="#231f20"><use xlink:href="#C" x="106.736" y="163.277"/><use xlink:href="#D" x="111.812" y="163.277"/><use xlink:href="#D" x="117.102" y="163.277"/><use xlink:href="#E" x="122.392" y="163.277"/><use xlink:href="#F" x="125.037" y="163.277"/><use xlink:href="#G" x="130.866" y="163.277"/><use xlink:href="#H" x="136.115" y="163.277"/><use xlink:href="#E" x="138.129" y="163.277"/><use xlink:href="#I" x="140.774" y="163.277"/><use xlink:href="#J" x="147.315" y="163.277"/><use xlink:href="#K" x="154.263" y="163.277"/><use xlink:href="#L" x="159.563" y="163.277"/><use xlink:href="#M" x="164.914" y="163.277"/><use xlink:href="#E" x="170.417" y="163.277"/><use xlink:href="#N" x="173.062" y="163.277"/><use xlink:href="#H" x="175.402" y="163.277"/><use xlink:href="#E" x="177.416" y="163.277"/><use xlink:href="#O" x="180.061" y="163.277"/><use xlink:href="#P" x="185.778" y="163.277"/><use xlink:href="#Q" x="187.822" y="163.277"/><use xlink:href="#E" x="195.93" y="163.277"/><use xlink:href="#R" x="198.575" y="163.277"/><use xlink:href="#I" x="205.177" y="163.277"/><use xlink:href="#H" x="211.718" y="163.277"/><use xlink:href="#E" x="213.732" y="163.277"/><use xlink:href="#S" x="216.377" y="163.277"/><use xlink:href="#T" x="224.607" y="163.277"/><use xlink:href="#T" x="230.018" y="163.277"/><use xlink:href="#L" x="235.43" y="163.277"/><use xlink:href="#E" x="240.781" y="163.277"/><use xlink:href="#U" x="243.426" y="163.277"/><use xlink:href="#H" x="250.038" y="163.277"/><use xlink:href="#E" x="252.052" y="163.277"/><use xlink:href="#O" x="254.697" y="163.277"/><use xlink:href="#K" x="260.414" y="163.277"/><use xlink:href="#L" x="265.714" y="163.277"/><use xlink:href="#M" x="271.065" y="163.277"/><use xlink:href="#E" x="276.568" y="163.277"/><use xlink:href="#V" x="279.213" y="163.277"/><use xlink:href="#W" x="285.581" y="163.277"/><use xlink:href="#H" x="290.779" y="163.277"/><use xlink:href="#E" x="292.794" y="163.277"/><use xlink:href="#I" x="295.439" y="163.277"/><use xlink:href="#J" x="301.98" y="163.277"/><use xlink:href="#K" x="308.927" y="163.277"/><use xlink:href="#L" x="314.227" y="163.277"/><use xlink:href="#M" x="319.578" y="163.277"/><use xlink:href="#E" x="325.082" y="163.277"/><use xlink:href="#N" x="327.726" y="163.277"/><use xlink:href="#X" x="330.066" y="163.277"/><use xlink:href="#H" x="336.424" y="163.277"/><use xlink:href="#E" x="338.438" y="163.277"/><use xlink:href="#C" x="341.083" y="163.277"/><use xlink:href="#D" x="346.159" y="163.277"/><use xlink:href="#D" x="351.449" y="163.277"/><use xlink:href="#E" x="356.739" y="163.277"/><use xlink:href="#V" x="359.384" y="163.277"/><use xlink:href="#W" x="365.752" y="163.277"/><use xlink:href="#H" x="370.95" y="163.277"/><use xlink:href="#E" x="372.964" y="163.277"/><use xlink:href="#S" x="375.609" y="163.277"/><use xlink:href="#K" x="383.839" y="163.277"/><use xlink:href="#Y" x="389.139" y="163.277"/><use xlink:href="#P" x="393.442" y="163.277"/><use xlink:href="#D" x="395.486" y="163.277"/><use xlink:href="#E" x="400.776" y="163.277"/><use xlink:href="#Z" x="403.421" y="163.277"/><use xlink:href="#G" x="409.443" y="163.277"/><use xlink:href="#H" x="414.692" y="163.277"/><use xlink:href="#E" x="416.706" y="163.277"/><use xlink:href="#O" x="419.351" y="163.277"/><use xlink:href="#P" x="425.068" y="163.277"/><use xlink:href="#Q" x="427.113" y="163.277"/><use xlink:href="#E" x="435.221" y="163.277"/><use xlink:href="#I" x="437.865" y="163.277"/><use xlink:href="#aa" x="444.406" y="163.277"/><use xlink:href="#E" x="446.421" y="163.277"/><use xlink:href="#F" x="449.066" y="163.277"/><use xlink:href="#L" x="454.894" y="163.277"/><use xlink:href="#ab" x="460.245" y="163.277"/><use xlink:href="#T" x="465.759" y="163.277"/><use xlink:href="#ac" x="471.171" y="163.277"/><use xlink:href="#ad" x="475.514" y="163.277"/><use xlink:href="#D" x="480.865" y="163.277"/><use xlink:href="#ae" x="486.155" y="163.277"/><use xlink:href="#P" x="488.2" y="163.277"/><use xlink:href="#L" x="490.244" y="163.277"/><use xlink:href="#af" x="495.595" y="163.277"/><use xlink:href="#ag" x="500.376" y="163.277"/><use xlink:href="#E" x="504.832" y="163.277"/></g><g fill="#231f20"><use xlink:href="#ah" x="106.736" y="177.26"/><use xlink:href="#ai" x="112.809" y="177.26"/><use xlink:href="#M" x="118.16" y="177.26"/><use xlink:href="#Q" x="123.664" y="177.26"/><use xlink:href="#D" x="131.771" y="177.26"/><use xlink:href="#L" x="137.061" y="177.26"/><use xlink:href="#ac" x="142.412" y="177.26"/><use xlink:href="#aj" x="146.755" y="177.26"/><use xlink:href="#E" x="151.75" y="177.26"/><use xlink:href="#ak" x="154.395" y="177.26"/><use xlink:href="#ad" x="159.746" y="177.26"/><use xlink:href="#D" x="165.097" y="177.26"/><use xlink:href="#Y" x="170.386" y="177.26"/><use xlink:href="#K" x="174.689" y="177.26"/><use xlink:href="#al" x="179.989" y="177.26"/><use xlink:href="#D" x="185.503" y="177.26"/><use xlink:href="#ai" x="190.793" y="177.26"/><use xlink:href="#ac" x="196.144" y="177.26"/><use xlink:href="#P" x="200.487" y="177.26"/><use xlink:href="#am" x="202.532" y="177.26"/><use xlink:href="#E" x="207.669" y="177.26"/><use xlink:href="#Z" x="210.314" y="177.26"/><use xlink:href="#T" x="216.336" y="177.26"/><use xlink:href="#ac" x="221.748" y="177.26"/><use xlink:href="#D" x="226.092" y="177.26"/><use xlink:href="#L" x="231.381" y="177.26"/><use xlink:href="#am" x="236.732" y="177.26"/><use xlink:href="#an" x="241.869" y="177.26"/><use xlink:href="#E" x="246.396" y="177.26"/><use xlink:href="#T" x="249.041" y="177.26"/><use xlink:href="#ao" x="254.453" y="177.26"/><use xlink:href="#E" x="258.756" y="177.26"/><use xlink:href="#I" x="261.401" y="177.26"/><use xlink:href="#ai" x="267.942" y="177.26"/><use xlink:href="#Q" x="273.293" y="177.26"/><use xlink:href="#K" x="281.4" y="177.26"/><use xlink:href="#L" x="286.7" y="177.26"/><use xlink:href="#E" x="292.051" y="177.26"/><use xlink:href="#S" x="294.696" y="177.26"/><use xlink:href="#D" x="302.926" y="177.26"/><use xlink:href="#aj" x="308.215" y="177.26"/><use xlink:href="#D" x="313.21" y="177.26"/><use xlink:href="#L" x="318.5" y="177.26"/><use xlink:href="#am" x="323.851" y="177.26"/><use xlink:href="#ad" x="328.988" y="177.26"/><use xlink:href="#an" x="334.339" y="177.26"/><use xlink:href="#Q" x="338.865" y="177.26"/><use xlink:href="#K" x="346.973" y="177.26"/><use xlink:href="#ae" x="352.273" y="177.26"/><use xlink:href="#E" x="354.318" y="177.26"/><use xlink:href="#V" x="356.963" y="177.26"/><use xlink:href="#ac" x="363.331" y="177.26"/><use xlink:href="#D" x="367.674" y="177.26"/><use xlink:href="#Q" x="372.964" y="177.26"/><use xlink:href="#E" x="381.072" y="177.26"/><use xlink:href="#X" x="383.717" y="177.26"/><use xlink:href="#D" x="390.074" y="177.26"/><use xlink:href="#ae" x="395.364" y="177.26"/><use xlink:href="#ae" x="397.409" y="177.26"/><use xlink:href="#aj" x="399.454" y="177.26"/><use xlink:href="#E" x="404.448" y="177.26"/><use xlink:href="#ap" x="407.093" y="177.26"/><use xlink:href="#P" x="411.64" y="177.26"/><use xlink:href="#K" x="413.685" y="177.26"/><use xlink:href="#E" x="418.985" y="177.26"/><use xlink:href="#X" x="421.63" y="177.26"/><use xlink:href="#U" x="427.988" y="177.26"/><use xlink:href="#I" x="434.6" y="177.26"/><use xlink:href="#aq" x="441.141" y="177.26"/><use xlink:href="#E" x="446.634" y="177.26"/><use xlink:href="#K" x="449.279" y="177.26"/><use xlink:href="#L" x="454.579" y="177.26"/><use xlink:href="#ab" x="459.93" y="177.26"/><use xlink:href="#E" x="465.443" y="177.26"/><use xlink:href="#ar" x="468.088" y="177.26"/><use xlink:href="#F" x="473.693" y="177.26"/><use xlink:href="#R" x="479.522" y="177.26"/><use xlink:href="#as" x="486.124" y="177.26"/><use xlink:href="#E" x="491.699" y="177.26"/></g><g fill="#231f20"><use xlink:href="#V" x="106.736" y="191.243"/><use xlink:href="#P" x="113.104" y="191.243"/><use xlink:href="#M" x="115.149" y="191.243"/><use xlink:href="#L" x="120.652" y="191.243"/><use xlink:href="#K" x="126.003" y="191.243"/><use xlink:href="#ae" x="131.303" y="191.243"/><use xlink:href="#P" x="133.348" y="191.243"/><use xlink:href="#L" x="135.393" y="191.243"/><use xlink:href="#M" x="140.743" y="191.243"/><use xlink:href="#aa" x="146.247" y="191.243"/><use xlink:href="#E" x="148.261" y="191.243"/><use xlink:href="#S" x="150.906" y="191.243"/><use xlink:href="#T" x="159.135" y="191.243"/><use xlink:href="#ae" x="164.547" y="191.243"/><use xlink:href="#E" x="166.592" y="191.243"/><use xlink:href="#ak" x="169.237" y="191.243"/><use xlink:href="#ad" x="174.588" y="191.243"/><use xlink:href="#D" x="179.939" y="191.243"/><use xlink:href="#Y" x="185.228" y="191.243"/><use xlink:href="#E" x="189.531" y="191.243"/><use xlink:href="#S" x="192.176" y="191.243"/><use xlink:href="#D" x="200.406" y="191.243"/><use xlink:href="#ac" x="205.696" y="191.243"/><use xlink:href="#ad" x="210.039" y="191.243"/><use xlink:href="#T" x="215.39" y="191.243"/><use xlink:href="#ab" x="220.802" y="191.243"/><use xlink:href="#aj" x="226.316" y="191.243"/><use xlink:href="#E" x="231.31" y="191.243"/><use xlink:href="#X" x="233.955" y="191.243"/><use xlink:href="#ae" x="240.313" y="191.243"/><use xlink:href="#P" x="242.358" y="191.243"/><use xlink:href="#L" x="244.402" y="191.243"/><use xlink:href="#E" x="249.753" y="191.243"/><use xlink:href="#U" x="252.398" y="191.243"/><use xlink:href="#D" x="259.01" y="191.243"/><use xlink:href="#ap" x="264.3" y="191.243"/><use xlink:href="#aa" x="268.847" y="191.243"/><use xlink:href="#E" x="270.861" y="191.243"/><use xlink:href="#aq" x="273.506" y="191.243"/><use xlink:href="#at" x="279" y="191.243"/><use xlink:href="#ag" x="284.605" y="191.243"/><use xlink:href="#au" x="289.06" y="191.243"/><use xlink:href="#E" x="294.625" y="191.243"/><use xlink:href="#G" x="297.27" y="191.243"/><use xlink:href="#ai" x="302.519" y="191.243"/><use xlink:href="#L" x="307.869" y="191.243"/><use xlink:href="#E" x="313.22" y="191.243"/><use xlink:href="#ag" x="315.865" y="191.243"/><use xlink:href="#av" x="320.321" y="191.243"/><use xlink:href="#aa" x="325.834" y="191.243"/></g><g fill="#231f20"><use xlink:href="#O" x="106.736" y="213.055"/><use xlink:href="#P" x="112.453" y="213.055"/><use xlink:href="#Q" x="114.498" y="213.055"/><use xlink:href="#E" x="122.606" y="213.055"/><use xlink:href="#X" x="125.25" y="213.055"/><use xlink:href="#H" x="131.608" y="213.055"/><use xlink:href="#E" x="133.623" y="213.055"/><use xlink:href="#C" x="136.267" y="213.055"/><use xlink:href="#P" x="141.344" y="213.055"/><use xlink:href="#Q" x="143.388" y="213.055"/><use xlink:href="#E" x="151.496" y="213.055"/><use xlink:href="#X" x="154.141" y="213.055"/><use xlink:href="#H" x="160.499" y="213.055"/><use xlink:href="#E" x="162.513" y="213.055"/><use xlink:href="#C" x="165.158" y="213.055"/><use xlink:href="#D" x="170.234" y="213.055"/><use xlink:href="#D" x="175.524" y="213.055"/><use xlink:href="#E" x="180.813" y="213.055"/><use xlink:href="#G" x="183.458" y="213.055"/><use xlink:href="#H" x="188.707" y="213.055"/><use xlink:href="#E" x="190.721" y="213.055"/><use xlink:href="#O" x="193.366" y="213.055"/><use xlink:href="#P" x="199.083" y="213.055"/><use xlink:href="#Q" x="201.128" y="213.055"/><use xlink:href="#E" x="209.236" y="213.055"/><use xlink:href="#O" x="211.881" y="213.055"/><use xlink:href="#X" x="217.598" y="213.055"/><use xlink:href="#H" x="223.955" y="213.055"/><use xlink:href="#E" x="225.97" y="213.055"/><use xlink:href="#ah" x="228.615" y="213.055"/><use xlink:href="#ad" x="234.688" y="213.055"/><use xlink:href="#L" x="240.038" y="213.055"/><use xlink:href="#E" x="245.389" y="213.055"/><use xlink:href="#G" x="248.034" y="213.055"/><use xlink:href="#W" x="253.283" y="213.055"/><use xlink:href="#H" x="258.481" y="213.055"/><use xlink:href="#E" x="260.496" y="213.055"/><use xlink:href="#C" x="263.14" y="213.055"/><use xlink:href="#D" x="268.217" y="213.055"/><use xlink:href="#D" x="273.506" y="213.055"/><use xlink:href="#E" x="278.796" y="213.055"/><use xlink:href="#F" x="281.441" y="213.055"/><use xlink:href="#G" x="287.27" y="213.055"/><use xlink:href="#aa" x="292.519" y="213.055"/><use xlink:href="#E" x="294.533" y="213.055"/><use xlink:href="#ak" x="297.178" y="213.055"/><use xlink:href="#ad" x="302.529" y="213.055"/><use xlink:href="#D" x="307.88" y="213.055"/><use xlink:href="#Y" x="313.169" y="213.055"/><use xlink:href="#K" x="317.472" y="213.055"/><use xlink:href="#al" x="322.772" y="213.055"/><use xlink:href="#D" x="328.286" y="213.055"/><use xlink:href="#ai" x="333.576" y="213.055"/><use xlink:href="#ac" x="338.927" y="213.055"/><use xlink:href="#P" x="343.27" y="213.055"/><use xlink:href="#am" x="345.315" y="213.055"/><use xlink:href="#E" x="350.452" y="213.055"/><use xlink:href="#D" x="353.097" y="213.055"/><use xlink:href="#ao" x="358.387" y="213.055"/><use xlink:href="#ao" x="362.69" y="213.055"/><use xlink:href="#D" x="366.993" y="213.055"/><use xlink:href="#am" x="372.283" y="213.055"/><use xlink:href="#ac" x="377.42" y="213.055"/><use xlink:href="#aj" x="381.763" y="213.055"/><use xlink:href="#E" x="386.758" y="213.055"/><use xlink:href="#T" x="389.403" y="213.055"/><use xlink:href="#ao" x="394.815" y="213.055"/><use xlink:href="#E" x="399.118" y="213.055"/><use xlink:href="#ad" x="401.763" y="213.055"/><use xlink:href="#ai" x="407.114" y="213.055"/><use xlink:href="#Q" x="412.464" y="213.055"/><use xlink:href="#K" x="420.572" y="213.055"/><use xlink:href="#L" x="425.872" y="213.055"/><use xlink:href="#E" x="431.223" y="213.055"/><use xlink:href="#D" x="433.868" y="213.055"/><use xlink:href="#Q" x="439.157" y="213.055"/><use xlink:href="#aw" x="447.265" y="213.055"/><use xlink:href="#Y" x="452.779" y="213.055"/><use xlink:href="#an" x="457.082" y="213.055"/><use xlink:href="#T" x="461.608" y="213.055"/><use xlink:href="#L" x="467.02" y="213.055"/><use xlink:href="#P" x="472.371" y="213.055"/><use xlink:href="#am" x="474.416" y="213.055"/><use xlink:href="#E" x="479.553" y="213.055"/><use xlink:href="#aj" x="482.198" y="213.055"/><use xlink:href="#ac" x="487.193" y="213.055"/><use xlink:href="#D" x="491.536" y="213.055"/><use xlink:href="#Q" x="496.826" y="213.055"/><use xlink:href="#E" x="504.934" y="213.055"/></g><g fill="#231f20"><use xlink:href="#am" x="106.736" y="227.038"/><use xlink:href="#D" x="111.873" y="227.038"/><use xlink:href="#ae" x="117.163" y="227.038"/><use xlink:href="#ae" x="119.208" y="227.038"/><use xlink:href="#aj" x="121.253" y="227.038"/><use xlink:href="#af" x="126.247" y="227.038"/><use xlink:href="#ab" x="131.029" y="227.038"/><use xlink:href="#D" x="136.542" y="227.038"/><use xlink:href="#Y" x="141.832" y="227.038"/><use xlink:href="#P" x="146.135" y="227.038"/><use xlink:href="#ap" x="148.18" y="227.038"/><use xlink:href="#D" x="152.727" y="227.038"/><use xlink:href="#ab" x="158.016" y="227.038"/><use xlink:href="#E" x="163.53" y="227.038"/><use xlink:href="#Q" x="166.175" y="227.038"/><use xlink:href="#D" x="174.283" y="227.038"/><use xlink:href="#aj" x="179.572" y="227.038"/><use xlink:href="#D" x="184.567" y="227.038"/><use xlink:href="#L" x="189.857" y="227.038"/><use xlink:href="#am" x="195.208" y="227.038"/><use xlink:href="#ad" x="200.345" y="227.038"/><use xlink:href="#an" x="205.696" y="227.038"/><use xlink:href="#Q" x="210.222" y="227.038"/><use xlink:href="#K" x="218.33" y="227.038"/><use xlink:href="#ae" x="223.63" y="227.038"/><use xlink:href="#E" x="225.675" y="227.038"/><use xlink:href="#aj" x="228.32" y="227.038"/><use xlink:href="#ac" x="233.314" y="227.038"/><use xlink:href="#D" x="237.658" y="227.038"/><use xlink:href="#Q" x="242.948" y="227.038"/><use xlink:href="#E" x="251.055" y="227.038"/><use xlink:href="#am" x="253.7" y="227.038"/><use xlink:href="#D" x="258.837" y="227.038"/><use xlink:href="#ae" x="264.127" y="227.038"/><use xlink:href="#ae" x="266.172" y="227.038"/><use xlink:href="#aj" x="268.217" y="227.038"/><use xlink:href="#E" x="273.211" y="227.038"/><use xlink:href="#T" x="275.856" y="227.038"/><use xlink:href="#L" x="281.268" y="227.038"/><use xlink:href="#E" x="286.619" y="227.038"/><use xlink:href="#P" x="289.264" y="227.038"/><use xlink:href="#Q" x="291.308" y="227.038"/><use xlink:href="#P" x="299.416" y="227.038"/><use xlink:href="#ax" x="301.461" y="227.038"/><use xlink:href="#ai" x="306.974" y="227.038"/><use xlink:href="#P" x="312.325" y="227.038"/><use xlink:href="#Q" x="314.37" y="227.038"/><use xlink:href="#T" x="322.477" y="227.038"/><use xlink:href="#ab" x="327.889" y="227.038"/><use xlink:href="#af" x="333.403" y="227.038"/><use xlink:href="#P" x="338.184" y="227.038"/><use xlink:href="#L" x="340.229" y="227.038"/><use xlink:href="#ab" x="345.579" y="227.038"/><use xlink:href="#ai" x="351.093" y="227.038"/><use xlink:href="#am" x="356.444" y="227.038"/><use xlink:href="#D" x="361.581" y="227.038"/><use xlink:href="#ab" x="366.871" y="227.038"/><use xlink:href="#E" x="372.384" y="227.038"/><use xlink:href="#aj" x="375.029" y="227.038"/><use xlink:href="#ay" x="380.024" y="227.038"/><use xlink:href="#P" x="384.642" y="227.038"/><use xlink:href="#L" x="386.687" y="227.038"/><use xlink:href="#E" x="392.038" y="227.038"/><use xlink:href="#Q" x="394.683" y="227.038"/><use xlink:href="#T" x="402.79" y="227.038"/><use xlink:href="#ab" x="408.202" y="227.038"/><use xlink:href="#D" x="413.716" y="227.038"/><use xlink:href="#ae" x="419.005" y="227.038"/><use xlink:href="#aa" x="421.05" y="227.038"/><use xlink:href="#E" x="423.064" y="227.038"/><use xlink:href="#ak" x="425.709" y="227.038"/><use xlink:href="#P" x="431.06" y="227.038"/><use xlink:href="#aj" x="433.105" y="227.038"/><use xlink:href="#aj" x="438.099" y="227.038"/><use xlink:href="#ai" x="443.094" y="227.038"/><use xlink:href="#D" x="448.445" y="227.038"/><use xlink:href="#E" x="453.735" y="227.038"/><use xlink:href="#F" x="456.38" y="227.038"/><use xlink:href="#L" x="462.209" y="227.038"/><use xlink:href="#M" x="467.559" y="227.038"/><use xlink:href="#P" x="473.063" y="227.038"/><use xlink:href="#L" x="475.107" y="227.038"/><use xlink:href="#D" x="480.458" y="227.038"/><use xlink:href="#D" x="485.748" y="227.038"/><use xlink:href="#Y" x="491.038" y="227.038"/><use xlink:href="#P" x="495.341" y="227.038"/><use xlink:href="#L" x="497.386" y="227.038"/><use xlink:href="#M" x="502.736" y="227.038"/><use xlink:href="#E" x="508.24" y="227.038"/><use xlink:href="#K" x="510.885" y="227.038"/><use xlink:href="#L" x="516.185" y="227.038"/><use xlink:href="#ab" x="521.535" y="227.038"/><use xlink:href="#E" x="527.049" y="227.038"/></g><g fill="#231f20"><use xlink:href="#az" x="106.736" y="241.021"/><use xlink:href="#D" x="113.186" y="241.021"/><use xlink:href="#M" x="118.475" y="241.021"/><use xlink:href="#D" x="123.979" y="241.021"/><use xlink:href="#L" x="129.269" y="241.021"/><use xlink:href="#D" x="134.619" y="241.021"/><use xlink:href="#Y" x="139.909" y="241.021"/><use xlink:href="#K" x="144.212" y="241.021"/><use xlink:href="#ac" x="149.512" y="241.021"/><use xlink:href="#P" x="153.856" y="241.021"/><use xlink:href="#ap" x="155.901" y="241.021"/><use xlink:href="#D" x="160.448" y="241.021"/><use xlink:href="#E" x="165.738" y="241.021"/><use xlink:href="#S" x="168.382" y="241.021"/><use xlink:href="#D" x="176.612" y="241.021"/><use xlink:href="#ab" x="181.902" y="241.021"/><use xlink:href="#P" x="187.415" y="241.021"/><use xlink:href="#am" x="189.46" y="241.021"/><use xlink:href="#P" x="194.597" y="241.021"/><use xlink:href="#L" x="196.642" y="241.021"/><use xlink:href="#D" x="201.993" y="241.021"/><use xlink:href="#aa" x="207.283" y="241.021"/><use xlink:href="#E" x="209.297" y="241.021"/><use xlink:href="#aq" x="211.942" y="241.021"/><use xlink:href="#at" x="217.435" y="241.021"/><use xlink:href="#ag" x="223.04" y="241.021"/><use xlink:href="#au" x="227.496" y="241.021"/><use xlink:href="#aa" x="233.06" y="241.021"/></g><g fill="#231f20"><use xlink:href="#W" x="106.736" y="262.833"/><use xlink:href="#T" x="111.934" y="262.833"/><use xlink:href="#ai" x="117.346" y="262.833"/><use xlink:href="#L" x="122.697" y="262.833"/><use xlink:href="#E" x="128.048" y="262.833"/><use xlink:href="#V" x="130.693" y="262.833"/><use xlink:href="#aA" x="137.061" y="262.833"/><use xlink:href="#H" x="145.83" y="262.833"/><use xlink:href="#E" x="147.844" y="262.833"/><use xlink:href="#C" x="150.489" y="262.833"/><use xlink:href="#D" x="155.565" y="262.833"/><use xlink:href="#D" x="160.855" y="262.833"/><use xlink:href="#E" x="166.144" y="262.833"/><use xlink:href="#I" x="168.789" y="262.833"/><use xlink:href="#X" x="175.33" y="262.833"/><use xlink:href="#H" x="181.688" y="262.833"/><use xlink:href="#E" x="183.702" y="262.833"/><use xlink:href="#C" x="186.347" y="262.833"/><use xlink:href="#D" x="191.423" y="262.833"/><use xlink:href="#D" x="196.713" y="262.833"/><use xlink:href="#E" x="202.003" y="262.833"/><use xlink:href="#V" x="204.648" y="262.833"/><use xlink:href="#aA" x="211.016" y="262.833"/><use xlink:href="#H" x="219.785" y="262.833"/><use xlink:href="#E" x="221.799" y="262.833"/><use xlink:href="#C" x="224.444" y="262.833"/><use xlink:href="#D" x="229.52" y="262.833"/><use xlink:href="#D" x="234.81" y="262.833"/><use xlink:href="#E" x="240.099" y="262.833"/><use xlink:href="#G" x="242.744" y="262.833"/><use xlink:href="#H" x="247.993" y="262.833"/><use xlink:href="#E" x="250.008" y="262.833"/><use xlink:href="#G" x="252.652" y="262.833"/><use xlink:href="#K" x="257.902" y="262.833"/><use xlink:href="#L" x="263.201" y="262.833"/><use xlink:href="#M" x="268.552" y="262.833"/><use xlink:href="#E" x="274.056" y="262.833"/><use xlink:href="#I" x="276.701" y="262.833"/><use xlink:href="#H" x="283.242" y="262.833"/><use xlink:href="#E" x="285.256" y="262.833"/><use xlink:href="#C" x="287.901" y="262.833"/><use xlink:href="#D" x="292.977" y="262.833"/><use xlink:href="#D" x="298.267" y="262.833"/><use xlink:href="#E" x="303.556" y="262.833"/><use xlink:href="#F" x="306.201" y="262.833"/><use xlink:href="#G" x="312.03" y="262.833"/><use xlink:href="#H" x="317.279" y="262.833"/><use xlink:href="#E" x="319.293" y="262.833"/><use xlink:href="#O" x="321.938" y="262.833"/><use xlink:href="#P" x="327.655" y="262.833"/><use xlink:href="#Q" x="329.7" y="262.833"/><use xlink:href="#E" x="337.808" y="262.833"/><use xlink:href="#I" x="340.452" y="262.833"/><use xlink:href="#aa" x="346.993" y="262.833"/><use xlink:href="#E" x="349.008" y="262.833"/><use xlink:href="#X" x="351.652" y="262.833"/><use xlink:href="#aB" x="358.01" y="262.833"/><use xlink:href="#S" x="364.673" y="262.833"/><use xlink:href="#Z" x="372.903" y="262.833"/><use xlink:href="#af" x="378.925" y="262.833"/><use xlink:href="#ah" x="383.706" y="262.833"/><use xlink:href="#L" x="389.779" y="262.833"/><use xlink:href="#M" x="395.13" y="262.833"/><use xlink:href="#P" x="400.634" y="262.833"/><use xlink:href="#T" x="402.678" y="262.833"/><use xlink:href="#al" x="408.09" y="262.833"/><use xlink:href="#T" x="413.604" y="262.833"/><use xlink:href="#P" x="419.016" y="262.833"/><use xlink:href="#D" x="421.06" y="262.833"/><use xlink:href="#ac" x="426.35" y="262.833"/><use xlink:href="#P" x="430.694" y="262.833"/><use xlink:href="#L" x="432.738" y="262.833"/><use xlink:href="#af" x="438.089" y="262.833"/><use xlink:href="#ag" x="442.87" y="262.833"/><use xlink:href="#E" x="447.326" y="262.833"/><use xlink:href="#K" x="449.971" y="262.833"/><use xlink:href="#am" x="455.271" y="262.833"/><use xlink:href="#am" x="460.408" y="262.833"/><use xlink:href="#D" x="465.545" y="262.833"/><use xlink:href="#ae" x="470.835" y="262.833"/><use xlink:href="#D" x="472.88" y="262.833"/><use xlink:href="#Y" x="478.169" y="262.833"/><use xlink:href="#K" x="482.472" y="262.833"/><use xlink:href="#ac" x="487.772" y="262.833"/><use xlink:href="#D" x="492.116" y="262.833"/><use xlink:href="#aj" x="497.406" y="262.833"/><use xlink:href="#E" x="502.401" y="262.833"/></g><g fill="#231f20"><use xlink:href="#Q" x="106.736" y="276.816"/><use xlink:href="#ai" x="114.844" y="276.816"/><use xlink:href="#aj" x="120.195" y="276.816"/><use xlink:href="#am" x="125.189" y="276.816"/><use xlink:href="#ae" x="130.327" y="276.816"/><use xlink:href="#D" x="132.371" y="276.816"/><use xlink:href="#E" x="137.661" y="276.816"/><use xlink:href="#Y" x="140.306" y="276.816"/><use xlink:href="#D" x="144.609" y="276.816"/><use xlink:href="#M" x="149.899" y="276.816"/><use xlink:href="#D" x="155.402" y="276.816"/><use xlink:href="#L" x="160.692" y="276.816"/><use xlink:href="#D" x="166.043" y="276.816"/><use xlink:href="#Y" x="171.332" y="276.816"/><use xlink:href="#K" x="175.635" y="276.816"/><use xlink:href="#ac" x="180.935" y="276.816"/><use xlink:href="#P" x="185.279" y="276.816"/><use xlink:href="#T" x="187.324" y="276.816"/><use xlink:href="#L" x="192.736" y="276.816"/><use xlink:href="#E" x="198.086" y="276.816"/><use xlink:href="#ac" x="200.731" y="276.816"/><use xlink:href="#ad" x="205.075" y="276.816"/><use xlink:href="#Y" x="210.426" y="276.816"/><use xlink:href="#T" x="214.729" y="276.816"/><use xlink:href="#ai" x="220.141" y="276.816"/><use xlink:href="#M" x="225.492" y="276.816"/><use xlink:href="#ad" x="230.995" y="276.816"/><use xlink:href="#E" x="236.346" y="276.816"/><use xlink:href="#aC" x="238.991" y="276.816"/><use xlink:href="#af" x="245.511" y="276.816"/><use xlink:href="#am" x="250.292" y="276.816"/><use xlink:href="#K" x="255.43" y="276.816"/><use xlink:href="#ab" x="260.73" y="276.816"/><use xlink:href="#ad" x="266.243" y="276.816"/><use xlink:href="#D" x="271.594" y="276.816"/><use xlink:href="#Y" x="276.884" y="276.816"/><use xlink:href="#P" x="281.187" y="276.816"/><use xlink:href="#L" x="283.231" y="276.816"/><use xlink:href="#E" x="288.582" y="276.816"/><use xlink:href="#K" x="291.227" y="276.816"/><use xlink:href="#am" x="296.527" y="276.816"/><use xlink:href="#ac" x="301.664" y="276.816"/><use xlink:href="#P" x="306.008" y="276.816"/><use xlink:href="#ap" x="308.053" y="276.816"/><use xlink:href="#K" x="312.6" y="276.816"/><use xlink:href="#ac" x="317.9" y="276.816"/><use xlink:href="#P" x="322.243" y="276.816"/><use xlink:href="#T" x="324.288" y="276.816"/><use xlink:href="#L" x="329.7" y="276.816"/><use xlink:href="#aa" x="335.051" y="276.816"/><use xlink:href="#E" x="337.065" y="276.816"/><use xlink:href="#V" x="339.71" y="276.816"/><use xlink:href="#am" x="346.078" y="276.816"/><use xlink:href="#P" x="351.215" y="276.816"/><use xlink:href="#aa" x="353.26" y="276.816"/><use xlink:href="#E" x="355.274" y="276.816"/><use xlink:href="#az" x="357.919" y="276.816"/><use xlink:href="#D" x="364.368" y="276.816"/><use xlink:href="#al" x="369.658" y="276.816"/><use xlink:href="#aa" x="375.172" y="276.816"/><use xlink:href="#E" x="377.186" y="276.816"/><use xlink:href="#ah" x="379.831" y="276.816"/><use xlink:href="#ai" x="385.904" y="276.816"/><use xlink:href="#M" x="391.255" y="276.816"/><use xlink:href="#aa" x="396.758" y="276.816"/><use xlink:href="#E" x="398.772" y="276.816"/><use xlink:href="#ag" x="401.417" y="276.816"/><use xlink:href="#aD" x="405.873" y="276.816"/><use xlink:href="#aa" x="410.399" y="276.816"/><use xlink:href="#E" x="412.414" y="276.816"/><use xlink:href="#aq" x="415.058" y="276.816"/><use xlink:href="#at" x="420.552" y="276.816"/><use xlink:href="#ag" x="426.157" y="276.816"/><use xlink:href="#aE" x="430.612" y="276.816"/><use xlink:href="#aa" x="436.228" y="276.816"/></g></svg>