<svg xmlns="http://www.w3.org/2000/svg" xmlns:xlink="http://www.w3.org/1999/xlink" width="793.701" height="1058.268" viewBox="0 0 595.276 793.701" version="1.2"><defs><clipPath id="i"><path d="M0 410h594.555v2H0zm0 0"/></clipPath><symbol overflow="visible" id="a"><path d="M2.875.031c.434 0 .82-.144 1.156-.437.332-.301.594-.64.782-1.016.183-.34.316-.71.39-1.11.082-.402.125-.804.125-1.202 0-.403-.05-.813-.14-1.22a4.843 4.843 0 0 0-.407-1.155A3.031 3.031 0 0 0 4-7.063a1.747 1.747 0 0 0-1.14-.421c-.844 0-1.473.457-1.876 1.359-.406.906-.609 1.707-.609 2.39 0 .712.203 1.52.61 2.422C1.386-.413 2.02.032 2.874.032zm0-.281c-.75 0-1.227-.441-1.422-1.328-.2-.895-.297-1.613-.297-2.156 0-.54.098-1.254.297-2.141.195-.895.672-1.344 1.422-1.344.363 0 .648.137.86.407.206.273.363.566.468.875.113.343.195.71.25 1.093.059.387.094.758.094 1.11 0 .324-.035.675-.094 1.046a9.33 9.33 0 0 1-.203 1.016c-.094.336-.254.66-.469.969-.21.305-.511.453-.906.453zm0 0"/></symbol><symbol overflow="visible" id="b"><path d="M3.422-7.313a.124.124 0 0 0-.031-.078.119.119 0 0 0-.079-.062.133.133 0 0 0-.078 0 .589.589 0 0 0-.078.047l-1.844.828a.934.934 0 0 0-.218.078c-.086.043-.125.102-.125.172 0 .043.008.082.031.11a.143.143 0 0 0 .094.03c.05 0 .113-.015.187-.046.07-.028.133-.051.188-.063l.687-.312c.051-.02.102-.04.156-.063a.364.364 0 0 1 .172-.047c.07 0 .118.024.141.063.02.043.031.097.031.156v5.078c0 .367-.043.617-.125.75-.074.125-.316.188-.719.188-.25 0-.414.011-.484.03-.074.013-.11.052-.11.11 0 .063.016.106.048.125.027.024.082.032.156.032h3.094c.058 0 .109-.008.14-.032.028-.02.047-.054.047-.11 0-.058-.02-.1-.047-.124a.278.278 0 0 0-.14-.031h-.329c-.375 0-.601-.079-.671-.235-.063-.164-.094-.41-.094-.734zm0 0"/></symbol><symbol overflow="visible" id="c"><path d="M1.828-3.625c-.375.18-.726.383-1.047.61-.324.23-.484.59-.484 1.078 0 .292.078.57.234.828.164.25.36.46.578.625.239.18.493.308.766.39.27.086.555.125.86.125.34 0 .68-.05 1.015-.156.332-.102.629-.266.89-.484a2.03 2.03 0 0 0 .532-.72 2.01 2.01 0 0 0 .203-.874c0-.527-.2-.957-.594-1.281a2.944 2.944 0 0 0-1.265-.657l.328-.171c.332-.153.633-.329.906-.516.277-.195.422-.508.422-.938 0-.59-.242-1.023-.719-1.296a2.967 2.967 0 0 0-1.5-.422c-.281 0-.566.043-.844.125-.28.074-.539.199-.765.375a2.03 2.03 0 0 0-.563.625c-.148.261-.219.539-.219.828 0 .492.16.87.485 1.14.32.274.695.489 1.125.641zm1.328-.672c-.094 0-.242-.031-.437-.094a3.164 3.164 0 0 1-.438-.156 2.052 2.052 0 0 1-.703-.516 1.21 1.21 0 0 1-.297-.828c0-.183.04-.367.125-.546.09-.184.207-.336.344-.454.152-.132.328-.234.516-.296.183-.06.379-.094.578-.094.445 0 .828.144 1.14.422.32.273.485.644.485 1.109 0 .242-.059.465-.172.672-.106.21-.262.383-.469.516a2.53 2.53 0 0 1-.328.171.968.968 0 0 1-.344.094zm-.328 4.11c-.242 0-.473-.032-.687-.094a1.445 1.445 0 0 1-.594-.375 1.77 1.77 0 0 1-.36-.547 1.608 1.608 0 0 1-.125-.625c0-.352.083-.656.25-.906.165-.246.391-.47.672-.657.051-.039.141-.093.266-.156a.764.764 0 0 1 .297-.094c.09 0 .27.051.531.141.27.094.445.168.531.219.278.136.516.324.704.562.195.242.296.528.296.86 0 .199-.039.394-.109.578a2.04 2.04 0 0 1-.297.515c-.18.22-.387.371-.625.454a2.13 2.13 0 0 1-.75.124zm0 0"/></symbol><symbol overflow="visible" id="d"><path d="M5.422-5.844V.453h.812v-6.297zm-3.547 0V.453h.813v-6.297zm1.766 0V.453h.828v-6.297zm0 0"/></symbol><symbol overflow="visible" id="e"><path d="M.75.047v1.016h1.031V.046zm0 0"/></symbol><symbol overflow="visible" id="g"><path d="M4.453-5.328v-.234H6.86v-.641H1.203v.64H3.61v.235c0 .367-.082.691-.234.969a2.494 2.494 0 0 1-.625.734A4.59 4.59 0 0 1 1.734-3c-.375.18-.773.324-1.187.438.121.105.226.207.312.296l.266.282c.3-.102.602-.223.906-.36.301-.144.582-.312.844-.5.246-.176.473-.367.672-.578.207-.215.367-.46.484-.734.114.273.285.527.516.765.238.243.504.457.797.641.246.18.508.332.781.453.277.125.547.227.797.297l.266-.266.296-.296A4.76 4.76 0 0 1 6.36-2.97a4.662 4.662 0 0 1-1-.656 2.878 2.878 0 0 1-.656-.766 1.782 1.782 0 0 1-.25-.937zM7.781.359v-.64H4.406v-1.953h-.765v1.953H.28v.64zm0 0"/></symbol><symbol overflow="visible" id="h"><path d="M7.234-1.813v-4.812h-.75v4.813zM7.22 1.422v-2.844H1.78v.64h4.672v2.204zM3.39-5.36v-.266h1.671v-.64H.923v.64h1.703v.25c0 .313-.055.602-.156.86a2.666 2.666 0 0 1-.39.718 3.12 3.12 0 0 1-.798.719c-.304.2-.636.371-1 .515.059.043.117.09.172.141l.172.125c.059.043.113.086.156.125.051.043.098.082.14.11.227-.114.446-.239.657-.376.215-.144.426-.304.625-.484.164-.144.317-.312.453-.5.145-.183.266-.394.36-.625.113.23.25.434.406.61.164.167.344.32.531.453.184.148.379.277.578.39.196.117.39.211.578.281.051-.07.125-.156.22-.25a9.33 9.33 0 0 1 .296-.28 4.136 4.136 0 0 1-.906-.407A2.906 2.906 0 0 1 4-3.86c-.2-.206-.352-.43-.453-.671a2.087 2.087 0 0 1-.156-.828zm0 0"/></symbol><symbol overflow="visible" id="j"><path d="M1.516-6.063l5.578 3.375L1.516.688zm0 0"/></symbol><symbol overflow="visible" id="k"><path d="M3.906-4.172l.438.453c.144.156.297.309.453.453.133.157.266.305.39.438.122.137.227.254.313.344a.905.905 0 0 0 .344.296c.113.043.207.047.281.016.07-.02.125-.07.156-.156a.62.62 0 0 0-.015-.344.5.5 0 0 1-.094-.156 1.507 1.507 0 0 0-.156-.281 2.227 2.227 0 0 0-.204-.313 1.343 1.343 0 0 0-.218-.265.45.45 0 0 0-.157-.079.295.295 0 0 0-.109-.03h-.062c-.024-.009-.043-.017-.063-.017a1.083 1.083 0 0 1-.078-.03.32.32 0 0 1-.11-.063c-.062-.02-.167-.098-.312-.235a10.019 10.019 0 0 1-.437-.453c.195-.215.394-.46.593-.734.207-.277.407-.555.594-.828.059-.09.125-.192.188-.297a.943.943 0 0 0 .14-.281.345.345 0 0 0 0-.235c-.023-.07-.086-.129-.187-.172h-.188a4.632 4.632 0 0 0-.343-.015c-.125 0-.247.008-.36.015-.117 0-.2.02-.25.047-.156.086-.394.133-.703.14-.313.013-.668.016-1.063.016-.242 0-.457-.003-.64-.015-.188-.008-.317-.024-.375-.047-.313-.027-.496-.008-.547.063-.055.074.031.175.25.296.227.149.422.246.578.297.152.055.281.086.375.094a.57.57 0 0 0 .25-.047c.07-.027.145-.062.219-.094h.031c.027-.007.067-.02.11-.03a.73.73 0 0 0 .156-.016c.05-.008.11-.02.172-.032.07 0 .148-.004.234-.015.082-.008.176-.02.281-.032.09-.007.196-.02.313-.03.113-.009.234-.02.36-.032-.25.512-.544 1.004-.876 1.469-.324.46-.66.879-1 1.25a8.885 8.885 0 0 1-1.015 1.015 5.569 5.569 0 0 1-.907.64.384.384 0 0 0-.11.126c-.01.043.005.074.048.094.027.03.101.043.219.03a2.44 2.44 0 0 0 .453-.14c.32-.133.722-.383 1.203-.75a9.767 9.767 0 0 0 1.437-1.328zm3.563-.875c-.157.012-.32.024-.485.031h-.937c-.149 0-.274-.007-.375-.03a2.038 2.038 0 0 0-.453.015c-.074.023-.11.054-.11.093-.011.032.008.075.063.125a.608.608 0 0 0 .203.125c.27.157.488.262.656.313.176.055.313.074.407.063.101 0 .18-.016.234-.047a.594.594 0 0 1 .156-.063A.821.821 0 0 1 7-4.484c.102-.04.219-.07.344-.094h.031a.255.255 0 0 1 .094-.016v2.719c0 .43.023.79.078 1.078.05.281.156.418.312.406.176 0 .317-.18.422-.546.114-.372.172-.86.172-1.454v-4.875c0-.132.004-.254.016-.359a1.75 1.75 0 0 0 .031-.281.367.367 0 0 0-.031-.203.335.335 0 0 0-.172-.125 2.665 2.665 0 0 0-.313-.094 11.656 11.656 0 0 0-.421-.078 4.978 4.978 0 0 0-.407-.063 1.01 1.01 0 0 1-.234-.031c-.356-.02-.55.02-.578.11-.024.093.07.19.281.28.133.063.25.122.344.172.101.043.191.098.265.157a.62.62 0 0 1 .172.203c.04.086.063.191.063.312zM8.859.672A4.384 4.384 0 0 0 8.563.64a6.737 6.737 0 0 0-.672.047.509.509 0 0 0-.203.078.805.805 0 0 1-.407.156 2.63 2.63 0 0 1-.36.031L5.11.984a.388.388 0 0 1-.25-.093C4.785.836 4.75.742 4.75.609V-.75c0-.102.004-.195.016-.281a.548.548 0 0 0 .015-.203.209.209 0 0 0-.093-.141.669.669 0 0 0-.25-.094 8.39 8.39 0 0 0-1.235-.047c-.23.032-.383.07-.453.11-.074.043-.105.09-.094.14.02.043.067.086.14.125.071.043.15.075.235.094.239.043.406.102.5.172.102.074.156.223.156.438V.625c0 .34.11.563.329.656.226.09.488.14.78.14l3.97-.03a.865.865 0 0 0 .421-.094c.102-.055.165-.121.188-.203.008-.074-.027-.153-.11-.235C9.18.785 9.044.723 8.86.672zm0 0"/></symbol><symbol overflow="visible" id="l"><path d="M4.656-7.64c-.574.074-1.043.277-1.406.609-.355.336-.531.758-.531 1.265 0 .262.054.512.172.75.12.23.289.43.5.594.214.18.472.32.765.422.301.094.625.14.969.14.352 0 .676-.046.969-.14.289-.102.539-.242.75-.422.207-.164.367-.363.484-.594a1.57 1.57 0 0 0 .188-.75c0-.445-.168-.847-.5-1.203-.325-.363-.786-.586-1.375-.672-.024-.02-.032-.039-.032-.062 0-.02.004-.047.016-.078.008-.028.02-.063.031-.094.008-.04.016-.07.016-.094a.133.133 0 0 0 0-.078.295.295 0 0 0-.031-.11c-.043-.019-.16-.038-.344-.062-.188-.027-.348-.05-.469-.062-.117 0-.2.043-.25.125-.055.074-.047.129.016.156.07.043.125.09.156.14.04.044.04.09 0 .141a.188.188 0 0 0-.047.032l-.047.046zm.469 3.171c-.398 0-.727-.129-.984-.39a1.413 1.413 0 0 1-.375-1c0-.395.125-.723.375-.985.257-.258.586-.39.984-.39.402 0 .734.148.984.437.246.281.375.598.375.938 0 .406-.132.742-.39 1-.25.261-.574.39-.969.39zM8.047.671a3.225 3.225 0 0 0-.281-.03c-.118 0-.23.004-.344.015-.125.008-.238.02-.328.031a.509.509 0 0 0-.203.079.805.805 0 0 1-.407.156 2.63 2.63 0 0 1-.359.031l-2.25.031a.388.388 0 0 1-.25-.093C3.562.836 3.531.742 3.531.609V-.469c0-.101.004-.195.016-.281a.874.874 0 0 0 0-.203.209.209 0 0 0-.094-.14c-.043-.04-.129-.071-.25-.095a2.627 2.627 0 0 0-.281-.015 9.359 9.359 0 0 1-.344-.031h-.61c-.241.03-.398.074-.468.125-.074.043-.102.086-.078.125.02.043.066.086.14.125.083.043.16.07.235.078.226.043.394.105.5.187.101.086.156.23.156.438v.781c0 .34.11.563.328.656.227.09.489.14.781.14l4.391-.03a.865.865 0 0 0 .422-.094c.102-.055.164-.121.188-.203.007-.074-.028-.153-.11-.235-.074-.086-.21-.148-.406-.187zm-2.11-3.218v1.078c0 .407.02.758.063 1.047.04.293.14.438.297.438.176 0 .32-.188.437-.563.121-.371.188-.86.188-1.453v-.563c.34 0 .66.008.953.016.3.012.563.024.781.031.301.024.582.016.844-.015.27-.028.41-.13.422-.297.008-.121-.074-.219-.25-.281a1.808 1.808 0 0 0-.61-.125c-.25-.02-.519-.012-.796.015-.274.031-.52.09-.735.172a2.363 2.363 0 0 1-.484.078c-.23.012-.48.024-.75.031H5.53c-.25-.007-.441-.015-.562-.015H2.672c-.262 0-.488-.004-.672-.016-.18-.008-.34-.015-.484-.015-.157-.02-.305-.036-.438-.047-.137-.008-.285-.02-.437-.031-.313-.02-.512.019-.594.109-.07.086.035.195.328.328.434.21.781.34 1.031.39.246.055.453.07.61.047.144-.019.273-.054.39-.109.114-.058.254-.101.422-.125h.047c.027 0 .086-.004.172-.015.07-.008.164-.02.281-.032.121-.008.274-.02.453-.031v.922c0 .406.02.758.063 1.047.039.293.14.437.297.437.175 0 .32-.187.437-.562.121-.371.188-.864.188-1.469 0 0-.008-.05-.016-.156v-.25h.297c.101-.008.203-.016.297-.016zm0 0"/></symbol><symbol overflow="visible" id="m"><path d="M3.39-6.016h.204c.07-.007.148-.02.234-.03a2.25 2.25 0 0 1 .25-.016 4.87 4.87 0 0 0 .375-.047c-.523.855-1.121 1.57-1.797 2.14-.68.574-1.332 1.024-1.953 1.344-.117.063-.137.133-.062.203.082.063.3.04.656-.078.195-.059.414-.156.656-.281a9.7 9.7 0 0 0 .734-.422c.247-.152.489-.32.72-.5a5.65 5.65 0 0 0 .64-.547c.133.125.27.258.406.39.145.126.281.255.406.376.133.117.25.226.344.328.102.094.18.164.234.203.133.137.258.226.375.265a.56.56 0 0 0 .297.016.274.274 0 0 0 .172-.156.39.39 0 0 0 0-.25 1.903 1.903 0 0 0-.093-.172 3.974 3.974 0 0 0-.36-.578 5.228 5.228 0 0 0-.203-.234.533.533 0 0 0-.125-.063.516.516 0 0 0-.125-.016c-.043-.007-.09-.02-.14-.03a.312.312 0 0 1-.157-.079 1.243 1.243 0 0 1-.125-.063.605.605 0 0 1-.125-.078 1.248 1.248 0 0 1-.172-.109 1.08 1.08 0 0 1-.203-.172c.176-.176.344-.36.5-.547.152-.183.332-.398.531-.64.153-.196.254-.364.297-.5.051-.133-.008-.235-.172-.297a.752.752 0 0 0-.187-.016c-.106-.008-.223-.02-.344-.031-.125 0-.254.008-.375.016a.692.692 0 0 0-.25.062c-.148.086-.371.137-.672.156-.304.012-.652.016-1.047.016a5.91 5.91 0 0 1-.64-.031 5.3 5.3 0 0 1-.406-.047c-.313-.028-.497-.008-.547.062-.043.074.046.18.265.313.258.168.473.285.64.343.165.055.302.079.407.079a.61.61 0 0 0 .266-.047l.219-.125h.03c.028-.008.071-.02.126-.032.027-.007.07-.019.125-.03a.66.66 0 0 0 .172-.048zM4.61-7.28a.772.772 0 0 0 .39-.11c.102-.058.16-.129.172-.203 0-.07-.059-.14-.172-.203-.105-.058-.273-.098-.5-.11-.398-.019-.71-.038-.938-.062a6.717 6.717 0 0 1-.734-.11c-.262-.038-.441-.026-.531.032-.086.063-.047.164.11.297.195.148.378.27.546.36.164.085.32.132.469.14a5.707 5.707 0 0 0 1.188-.031zm.046 8.843l3.938-.03a.865.865 0 0 0 .422-.095c.113-.054.175-.117.187-.187.02-.086-.012-.164-.094-.234C9.023.94 8.887.879 8.703.828a4.384 4.384 0 0 0-.297-.031c-.117 0-.23.008-.344.031-.124 0-.242.008-.343.031a.706.706 0 0 0-.235.079.762.762 0 0 1-.359.125c-.125.019-.258.03-.39.03l-1.798.016a.388.388 0 0 1-.25-.093C4.614.96 4.579.87 4.579.75l-.016-.922h2.719c.332-.008.582-.016.75-.016.196 0 .332-.019.406-.062a.246.246 0 0 0 .126-.219c0-.02-.02-.039-.047-.062a.122.122 0 0 0-.094-.047.31.31 0 0 0-.125-.031.533.533 0 0 1-.11-.032l.266-1.109a.623.623 0 0 1 .063-.188.837.837 0 0 0 .062-.171.243.243 0 0 0-.015-.141c-.024-.04-.083-.082-.172-.125a1.465 1.465 0 0 0-.297-.063 2.52 2.52 0 0 0-.344 0 3.681 3.681 0 0 0-.328.047.707.707 0 0 0-.203.047c-.063.043-.227.074-.485.094-.261.012-.543.016-.843.016h-.844c-.25-.008-.387-.016-.406-.016h-.344a7.69 7.69 0 0 1-.313-.031 2.744 2.744 0 0 1-.609-.063c-.281-.02-.441.008-.469.078-.031.075.008.145.125.204.27.187.492.32.672.39.176.063.32.094.438.094a.61.61 0 0 0 .265-.047c.07-.04.133-.07.188-.094l.031-.015c.027-.008.07-.02.125-.032.05-.007.102-.02.156-.03a.609.609 0 0 1 .188-.032H5.5c.195-.008.414-.016.656-.016h.688c.215-.008.383-.015.5-.015L7.297-.625a7.655 7.655 0 0 1-.61.016c-.28 0-.57.007-.859.015H5c-.242 0-.383-.004-.422-.015a2.558 2.558 0 0 0-.312-.047 5.307 5.307 0 0 0-.36-.047c-.136-.008-.27-.016-.39-.016a1.868 1.868 0 0 0-.297 0c-.313.055-.48.117-.5.188-.012.074.125.144.406.203.145.043.25.098.313.156.058.063.093.164.093.297v.703c0 .164.031.297.094.39.059.102.145.18.25.235.113.05.234.082.36.094.132.008.273.016.421.016zm2.907-6.718c-.18.011-.352.023-.516.031h-.954c-.148 0-.277-.008-.39-.031-.219-.02-.371-.02-.453 0-.086.023-.125.054-.125.093 0 .032.023.075.078.125a.48.48 0 0 0 .188.125c.27.157.488.262.656.313.176.055.312.078.406.078.102 0 .18-.016.234-.047a.513.513 0 0 1 .172-.078c0-.008.051-.031.157-.062.113-.028.234-.055.359-.079h.016c.007-.007.02-.015.03-.015h.048c.02 0 .05-.004.093-.016v.672c0 .418.024.746.079.984.058.231.164.344.312.344.133 0 .266-.156.39-.469.122-.308.188-.753.188-1.328v-2.75c0-.144.004-.27.016-.375.02-.101.035-.195.047-.28 0-.071-.02-.134-.047-.188-.024-.051-.082-.098-.172-.141a3.909 3.909 0 0 0-.313-.078 11.656 11.656 0 0 0-.421-.078 4.978 4.978 0 0 0-.407-.063A1.01 1.01 0 0 1 7-8.5c-.355-.02-.55.02-.578.11-.031.093.062.19.281.28.121.063.238.122.344.172.101.043.195.098.281.157a.62.62 0 0 1 .172.203c.04.086.063.191.063.312zm0 0"/></symbol><symbol overflow="visible" id="ag"><path d="M2.797-6.125c-.574.094-1.043.336-1.406.719a1.984 1.984 0 0 0-.532 1.39c0 .305.055.586.172.844.121.262.297.488.516.672.215.2.473.355.766.469.3.105.632.156 1 .156.351 0 .68-.05.984-.156.3-.114.555-.266.766-.453a2.1 2.1 0 0 0 .5-.672c.12-.258.187-.547.187-.86 0-.488-.168-.93-.5-1.328-.336-.394-.793-.644-1.375-.75-.043-.02-.07-.039-.078-.062v-.11l.031-.093c.008-.04.02-.082.031-.125a.427.427 0 0 0-.015-.094.19.19 0 0 0-.031-.094l-.141-.047a.738.738 0 0 0-.219-.031.995.995 0 0 0-.25-.031A1.507 1.507 0 0 1 3-6.813c-.125 0-.215.04-.266.11-.043.074-.039.129.016.156a.305.305 0 0 0 .094.094c.039.023.066.05.078.078.008.023.015.05.015.078 0 .024-.011.05-.03.078l-.063.063a.14.14 0 0 1-.047.031zM3.312-2.5c-.417 0-.761-.148-1.03-.453-.262-.309-.391-.692-.391-1.14 0-.458.129-.833.39-1.126.27-.3.614-.453 1.031-.453.208 0 .399.043.579.125.175.086.328.2.453.344.113.156.203.336.265.531.07.188.11.383.11.578 0 .45-.133.832-.39 1.14-.263.306-.602.454-1.016.454zM7.47-7.266V.031c0 .258.004.504.015.735.008.238.032.445.063.625.027.175.07.316.125.421.058.114.133.165.219.157.195 0 .343-.239.437-.703.09-.461.133-1.086.125-1.875v-6.657c0-.144.004-.27.016-.375.02-.113.035-.207.047-.28a.348.348 0 0 0-.047-.188c-.024-.051-.082-.098-.172-.141a1.416 1.416 0 0 0-.313-.078c-.136-.027-.277-.063-.421-.094-.149-.02-.286-.035-.407-.047a1.505 1.505 0 0 1-.234-.047c-.356-.02-.55.024-.578.125-.024.094.07.184.281.266l.36.172a.856.856 0 0 1 .25.156c.07.055.128.129.171.219.04.086.063.191.063.312zm0 0"/></symbol><symbol overflow="visible" id="ah"><path d="M8.484.203V-1.28c0-.09.008-.176.032-.25.027-.082.05-.157.062-.219a.232.232 0 0 0-.062-.156.6.6 0 0 0-.25-.14 2.135 2.135 0 0 0-.5 0 3.567 3.567 0 0 0-.547.108c-.094.032-.332.06-.703.079-.368.023-.774.03-1.22.03-.46.013-.91.013-1.343 0a5.87 5.87 0 0 1-.969-.077c-.25-.02-.425-.02-.515 0-.086.023-.133.054-.14.093-.013.043.015.09.077.141a.683.683 0 0 0 .188.125c.37.211.664.34.875.39.215.055.398.071.547.048.144-.02.273-.055.39-.11.114-.058.258-.101.438-.125h.36c.237-.008.507-.02.812-.031.3-.008.593-.02.875-.031.289-.008.488-.016.593-.016V.61c0 .32.036.614.11.875.082.258.18.391.297.391.132 0 .265-.168.39-.5.133-.324.203-.715.203-1.172zm-.89-5.781a18.295 18.295 0 0 1-1.11.047c-.199.011-.386.015-.562.015a3.603 3.603 0 0 1-.453-.046 1.911 1.911 0 0 0-.438.015c-.086.024-.125.055-.125.094 0 .031.024.074.078.125a.48.48 0 0 0 .188.125c.27.156.488.262.656.312.164.055.3.075.406.063.102 0 .18-.016.235-.047.058-.027.113-.05.156-.063A.821.821 0 0 1 6.797-5c.113-.04.234-.07.36-.094h.046a.362.362 0 0 1 .094-.015.7.7 0 0 1 .14-.016h.157v1.484c0 .407.031.73.093.97.06.241.16.358.297.358.153 0 .297-.156.422-.468.121-.309.188-.754.188-1.328v-3.157c0-.144.004-.27.015-.375a1.75 1.75 0 0 0 .032-.28.348.348 0 0 0-.047-.188.432.432 0 0 0-.172-.141c-.074-.02-.18-.047-.313-.078-.136-.027-.277-.063-.421-.094-.149-.02-.286-.035-.407-.047a1.505 1.505 0 0 1-.234-.047c-.356-.02-.55.024-.578.125-.024.094.07.184.281.266.121.063.238.121.344.172.101.043.191.098.265.156.07.063.13.137.172.219.04.086.063.191.063.312zm-4.14.828c.112.125.241.273.39.438.152.156.312.316.469.468.144.156.285.317.421.469.145.148.27.27.375.36.258.261.473.359.641.296.176-.07.215-.242.125-.515l-.094-.157a9.4 9.4 0 0 1-.14-.28 3.652 3.652 0 0 1-.22-.298 1.61 1.61 0 0 0-.218-.25 1.041 1.041 0 0 0-.172-.062.281.281 0 0 0-.093-.032.238.238 0 0 1-.125-.03 4.082 4.082 0 0 1-.188-.095 3.976 3.976 0 0 1-.36-.28 7.922 7.922 0 0 1-.5-.47c.133-.195.274-.425.422-.687.153-.258.282-.477.375-.656.051-.082.086-.149.11-.203a.421.421 0 0 0 .047-.172.276.276 0 0 0-.063-.157 1.07 1.07 0 0 0-.203-.203 1.775 1.775 0 0 0-.25-.14 3.498 3.498 0 0 0-.344-.14 3.234 3.234 0 0 0-.328-.126c-.105-.039-.18-.07-.219-.094-.273-.082-.43-.07-.468.032-.031.093.054.21.265.343.227.149.348.29.36.422a.761.761 0 0 1-.047.39c-.18.43-.383.837-.61 1.22-.23.375-.472.726-.718 1.046a7.64 7.64 0 0 1-.766.86 5.45 5.45 0 0 1-.75.594c-.18.136-.203.242-.078.312.121.063.344.012.656-.156.446-.238.864-.54 1.25-.906.383-.371.735-.754 1.047-1.141zm0 0"/></symbol><symbol overflow="visible" id="ai"><path d="M5.063-5.313c.257.086.546.18.859.282.308.093.613.191.906.281.29.094.547.18.766.25.215.074.36.121.422.14.382.106.64.106.765 0 .121-.113.137-.234.047-.359a2.535 2.535 0 0 0-.422-.297 2.783 2.783 0 0 0-.578-.25 1.16 1.16 0 0 0-.25-.046h-.172c-.054.011-.105.023-.156.03a.306.306 0 0 1-.172-.015c-.043 0-.121-.008-.234-.031-.117-.027-.246-.063-.39-.094A5.077 5.077 0 0 1 6-5.532c-.148-.038-.277-.077-.39-.109.238-.144.5-.328.78-.546.29-.227.555-.442.798-.641.308-.258.488-.469.53-.625.04-.152-.073-.27-.343-.344a2.05 2.05 0 0 1-.188-.016 3.937 3.937 0 0 0-.687 0c-.117 0-.2.02-.25.047a2.355 2.355 0 0 1-.484.094c-.23.024-.496.04-.797.047-.305.012-.606.023-.907.031H2.985c-.105 0-.199-.004-.28-.015-.087-.008-.165-.016-.235-.016-.063-.008-.114-.016-.14-.016-.313-.027-.497-.004-.548.079-.054.074.032.175.25.296.227.149.414.246.563.297.144.055.27.078.375.078.101.012.191 0 .265-.03.07-.028.145-.063.22-.095h.03c.028-.007.067-.02.11-.03.027-.009.07-.02.125-.032.058-.02.125-.035.187-.047.07 0 .196-.004.375-.016.184-.007.395-.02.625-.03.215-.009.438-.02.657-.032.226-.008.425-.02.593-.031-.343.355-.73.695-1.156 1.015-.418.313-.848.602-1.281.86-.45.261-.887.488-1.313.671-.43.188-.824.333-1.187.422a.297.297 0 0 0-.14.094c-.024.031-.013.07.03.11.028.03.094.058.188.078.101.011.25 0 .437-.032A7.685 7.685 0 0 0 3.422-4.5c.558-.238 1.11-.508 1.64-.813zm3.03 5.97A2.234 2.234 0 0 0 7.798.64h-.344a2.073 2.073 0 0 0-.328.046.509.509 0 0 0-.203.079.795.795 0 0 1-.39.156c-.137.008-.262.015-.376.015L3.906.97a.364.364 0 0 1-.234-.094C3.598.82 3.562.73 3.562.609V-.53c0-.114.004-.207.016-.281a.414.414 0 0 0 0-.22.209.209 0 0 0-.094-.14c-.043-.039-.129-.07-.25-.094a2.627 2.627 0 0 0-.28-.015c-.106-.008-.224-.02-.345-.032h-.593c-.243.032-.403.075-.485.125-.074.043-.101.086-.078.125.02.043.067.086.14.125.083.043.165.07.25.079.239.043.407.105.5.187.102.086.157.23.157.438v.843c0 .34.11.563.328.657.215.101.477.156.781.156L8 1.375a.77.77 0 0 0 .406-.094c.102-.054.164-.117.188-.187.02-.074-.012-.153-.094-.235-.086-.086-.223-.152-.406-.203zM4.782-2.626v1.11c0 .417.02.773.063 1.062.05.293.156.433.312.422.176 0 .328-.188.453-.563.121-.37.188-.86.188-1.453v-.594h1.687c.227 0 .438.008.625.016.196.012.38.023.547.031.301.024.582.016.844-.015.27-.028.41-.133.422-.313.008-.113-.074-.207-.25-.281a1.808 1.808 0 0 0-.61-.125c-.25-.02-.519-.012-.796.015-.274.032-.52.09-.735.172-.093.043-.258.075-.484.094-.23.012-.48.016-.75.016a8.34 8.34 0 0 1-.766 0c-.25-.008-.441-.016-.562-.016H2c-.18-.008-.34-.02-.484-.031-.157-.008-.305-.02-.438-.031a4.651 4.651 0 0 1-.437-.047c-.313-.008-.512.035-.594.125-.07.086.035.191.328.312.434.211.781.348 1.031.406.246.055.453.063.61.032.144-.02.273-.055.39-.11.114-.058.254-.097.422-.109 0 0 .04-.004.125-.016.082-.007.203-.02.36-.03.164-.02.367-.036.609-.048.238-.008.523-.02.86-.031zm0 0"/></symbol><symbol overflow="visible" id="n"><path d="M4.328-2.39a.844.844 0 0 0-.25-.61.828.828 0 0 0-1.422.61.85.85 0 0 0 .235.609.8.8 0 0 0 .593.25.812.812 0 0 0 .594-.25.831.831 0 0 0 .25-.61zm0 0"/></symbol><symbol overflow="visible" id="o"><path d="M5 .875V-5.75h-.5v2.234H3.219v.454H4.5V.874zm1.36.344v-7.094h-.5v7.094zM.765-4.938H2v.5c0 .45-.04.872-.11 1.266-.062.399-.175.77-.327 1.11a3.9 3.9 0 0 1-.563.89C.77-.898.496-.66.187-.453a.528.528 0 0 0 .11.094c.05.023.101.043.156.062.04.031.082.067.125.094l.11.062c.175-.12.347-.28.515-.468.164-.184.32-.391.469-.61.133-.207.25-.422.344-.64.101-.215.175-.438.218-.657a3.5 3.5 0 0 0 .547 1.188 3 3 0 0 0 .422.516c.152.156.313.285.469.375.039-.051.098-.11.172-.172.082-.059.16-.118.234-.172a2.36 2.36 0 0 1-.719-.594c-.199-.238-.363-.52-.484-.844a3.873 3.873 0 0 1-.281-.937 6.929 6.929 0 0 1-.078-1.094v-.688h1.203v-.421H.766zm0 0"/></symbol><symbol overflow="visible" id="p"><path d="M.64-4.016h1.032v4.61h.484v-6.078h-.344c-.054.437-.167.746-.343.921-.168.18-.446.274-.828.282zm0 0"/></symbol><symbol overflow="visible" id="q"><path d="M2.688-2.188c-.043.793-.16 1.43-.344 1.907-.18.465-.418.703-.719.703a.625.625 0 0 1-.344-.094.757.757 0 0 1-.234-.25A1.584 1.584 0 0 1 .89-.25a2.008 2.008 0 0 1-.063-.344H.344c0 .418.117.75.36 1 .237.258.546.39.921.39.277 0 .52-.097.719-.28a1.89 1.89 0 0 0 .469-.735c.12-.308.21-.68.265-1.11.059-.425.094-.878.094-1.359 0-.425-.035-.812-.094-1.156a3.599 3.599 0 0 0-.265-.89 1.521 1.521 0 0 0-.454-.579 1.087 1.087 0 0 0-.64-.203c-.438 0-.79.184-1.047.547-.262.367-.39.871-.39 1.516 0 .336.034.621.109.86.07.241.171.44.296.593a1.126 1.126 0 0 0 .907.453c.226 0 .437-.05.625-.156.183-.113.344-.274.469-.484zm-1 .22c-.305 0-.536-.15-.688-.454-.156-.3-.234-.676-.234-1.125 0-.445.078-.82.234-1.125.152-.3.383-.453.688-.453.144 0 .273.043.39.125.113.086.207.2.281.344.082.136.145.304.188.5.05.187.078.394.078.61 0 .46-.09.839-.266 1.14-.168.293-.394.437-.671.437zm0 0"/></symbol><symbol overflow="visible" id="r"><path d="M.89-5.36v4.735s.04.008.126.016c.082 0 .187-.004.312-.016h.438c.164 0 .332-.004.5-.016.132-.007.28-.02.437-.03.152-.009.305-.02.453-.032.145-.02.274-.035.39-.047.122-.02.22-.035.282-.047v-.453c-.074.023-.18.043-.312.063a10.25 10.25 0 0 1-.407.03c-.136.012-.277.024-.421.032a4.079 4.079 0 0 1-.344.016l-.969.03v-3.859h1.906v-.421zM6.157 1.22v-7.094h-.5v2.703H4.625V-5.75h-.5V.875h.5v-3.578h1.031v3.922zm0 0"/></symbol><symbol overflow="visible" id="s"><path d="M.719 1.984c.27-.062.46-.199.578-.406.121-.2.187-.465.187-.797V.047H.688v.765h.437c0 .239-.04.43-.11.579-.062.144-.199.265-.406.359zm0 0"/></symbol><symbol overflow="visible" id="u"><path d="M3.156.594V.172H.796c.04-.32.141-.629.298-.922.152-.29.332-.516.531-.672l.469-.39c.183-.145.344-.286.469-.422.12-.133.218-.25.28-.344.122-.195.212-.399.266-.61.051-.207.079-.421.079-.64 0-.238-.036-.457-.094-.656a1.913 1.913 0 0 0-.25-.532 1.35 1.35 0 0 0-.453-.359 1.246 1.246 0 0 0-.594-.14c-.25 0-.473.054-.656.156-.18.105-.325.246-.438.421-.125.18-.223.387-.281.625a3.462 3.462 0 0 0-.078.766h.5a2.049 2.049 0 0 1 .203-1.078c.082-.145.18-.266.297-.36.12-.09.27-.14.437-.14.278 0 .5.121.657.36.164.242.25.554.25.937 0 .219-.028.414-.079.578a1.256 1.256 0 0 1-.203.438 6.587 6.587 0 0 1-.265.359c-.094.105-.196.2-.297.281l-.594.469a2.26 2.26 0 0 0-.438.469c-.117.18-.214.37-.296.578-.086.199-.149.41-.188.625a3.056 3.056 0 0 0-.062.625zm0 0"/></symbol><symbol overflow="visible" id="v"><path d="M1.734-5.531c-.492 0-.855.285-1.093.843-.243.563-.36 1.34-.36 2.329 0 .992.117 1.761.36 2.312.238.54.601.813 1.093.813.477 0 .836-.274 1.079-.813.246-.55.374-1.32.374-2.312 0-.989-.128-1.766-.374-2.329-.243-.558-.602-.843-1.079-.843zm0 .406c.301 0 .536.254.704.75.175.492.265 1.164.265 2.016 0 .843-.09 1.511-.265 2-.168.488-.403.734-.704.734-.324 0-.57-.246-.734-.734-.156-.489-.234-1.157-.234-2 0-.852.078-1.524.234-2.016.164-.496.41-.75.734-.75zm0 0"/></symbol><symbol overflow="visible" id="w"><path d="M5.86 1.14v-2.609H1.53v2.61zM5.374.704H2.031V-1.03h3.344zm1.5-4.437v-.438H5.844v-1.703h-.5v4h.5v-1.86zM.765-5.531v.422h2.641a3.31 3.31 0 0 1-.312.937c-.137.281-.317.54-.531.766-.282.293-.618.55-1 .765-.387.211-.793.38-1.22.5.06.063.13.133.204.204.07.062.129.128.172.187a6.419 6.419 0 0 0 1.375-.672c.414-.27.765-.594 1.047-.969a4.07 4.07 0 0 0 .53-.968c.145-.352.243-.743.298-1.172zm0 0"/></symbol><symbol overflow="visible" id="x"><path d="M2.64-4.266v-1.28h-.515v1.124c0 .418-.05.817-.14 1.188a3.813 3.813 0 0 1-.407 1.046c-.18.325-.398.622-.656.891a4.573 4.573 0 0 1-.89.719c.07.055.155.117.25.187.1.063.179.121.234.172.195-.144.394-.316.593-.515.196-.196.38-.414.547-.657.176-.226.328-.46.453-.703.121-.246.211-.492.266-.734.09.273.207.535.344.781.144.242.304.465.484.672.152.18.32.352.5.516.184.156.379.304.578.437l.188-.187c.082-.082.156-.149.218-.204a5.057 5.057 0 0 1-.921-.671 3.882 3.882 0 0 1-.641-.829 3.459 3.459 0 0 1-.36-.89 4.109 4.109 0 0 1-.124-1.063zm2.657-1.609v7.094h.516v-3.844h1.093v-.453H5.813v-2.797zm0 0"/></symbol><symbol overflow="visible" id="y"><path d="M2.766-3.328c.257 0 .492-.031.703-.094A1.76 1.76 0 0 0 4-3.703c.145-.113.254-.25.328-.406a1.04 1.04 0 0 0 0-.984A1.198 1.198 0 0 0 4-5.5a1.953 1.953 0 0 0-.531-.281c-.211-.07-.446-.11-.703-.11-.262 0-.496.04-.704.11-.21.074-.386.168-.53.281a1.3 1.3 0 0 0-.345.406c-.074.157-.109.32-.109.485 0 .18.035.347.11.5.07.148.187.277.343.39.145.125.32.227.532.297.207.063.44.094.703.094zm.015-.406c-.21 0-.394-.024-.547-.079a.976.976 0 0 1-.375-.203.793.793 0 0 1-.234-.28.65.65 0 0 1-.078-.313c0-.207.098-.407.297-.594.195-.195.504-.297.922-.297.402 0 .707.102.906.297.207.187.312.387.312.594 0 .105-.027.21-.078.312-.054.106-.129.2-.219.281a1.491 1.491 0 0 1-.906.281zM6.187-.406v-5.469h-.5v4.172h-1.75v.406h1.75v.89zm.157 1.453V.625H2.187v-1.36h-.515v1.782zm-.89-4c-.106.023-.263.05-.47.078-.21.023-.445.043-.703.063a14.5 14.5 0 0 1-.828.046c-.281.012-.55.016-.797.016l-2.172.016v.421h1.704v1.22h.484v-1.235c.215 0 .457-.004.719-.016.27-.008.53-.023.78-.047.259-.007.5-.023.72-.046.226-.028.414-.055.562-.079zm0 0"/></symbol><symbol overflow="visible" id="z"><path d="M6.953-3.797v-.437H5.922v-1.641h-.484v4.328h.484v-2.25zM1.453-.03c0 .383.192.707.578.969.395.269.985.406 1.766.406.371 0 .703-.04.984-.11.29-.062.535-.164.735-.296.183-.118.328-.262.421-.438.102-.168.157-.348.157-.531 0-.371-.2-.696-.594-.969-.387-.27-.957-.406-1.703-.406-.399 0-.742.043-1.031.125-.293.074-.54.176-.735.297a1.18 1.18 0 0 0-.437.453c-.094.168-.14.336-.14.5zm.516.015c0-.289.16-.523.484-.703C2.785-.902 3.234-1 3.797-1c.527 0 .957.098 1.281.281.332.18.5.414.5.703 0 .133-.05.258-.14.375a1.303 1.303 0 0 1-.36.313 1.87 1.87 0 0 1-.562.203c-.22.05-.461.078-.72.078-.562 0-1.01-.098-1.343-.281C2.13.484 1.97.254 1.97-.016zM.797-5.109H2.28v.171c0 .336-.054.637-.156.907a2.747 2.747 0 0 1-1.016 1.328c-.25.18-.523.332-.812.453.027.023.062.05.094.078.039.031.082.067.125.094.039.031.078.066.109.094l.11.062c.195-.09.394-.203.593-.328a3.13 3.13 0 0 0 .531-.453c.145-.145.274-.305.391-.485a3.07 3.07 0 0 0 .281-.593c.09.199.203.379.328.531.121.148.258.285.407.406.175.149.359.278.546.39.184.118.376.224.563.313a.714.714 0 0 1 .156-.187c.07-.059.14-.125.203-.188a3.673 3.673 0 0 1-.75-.359 2.878 2.878 0 0 1-.64-.547 1.973 1.973 0 0 1-.406-.672 2.316 2.316 0 0 1-.141-.828v-.187H4.25v-.422H.797zm0 0"/></symbol><symbol overflow="visible" id="A"><path d="M.953-2.938l.203-2.03h1.766v-.438H.734L.406-2.25l.438.016c.09-.176.207-.32.344-.438a.765.765 0 0 1 .484-.172c.277 0 .516.137.703.406.195.274.297.649.297 1.126 0 .23-.027.449-.078.656-.043.199-.106.379-.188.531a1.008 1.008 0 0 1-.328.36.72.72 0 0 1-.422.14.836.836 0 0 1-.64-.297C.848-.117.758-.382.75-.719H.266c.007.438.14.79.39 1.063.246.27.567.406.953.406.52 0 .91-.191 1.172-.563.258-.37.39-.906.39-1.593 0-.258-.038-.504-.108-.735a1.917 1.917 0 0 0-.297-.578 1.263 1.263 0 0 0-.454-.375 1.125 1.125 0 0 0-.53-.14c-.126 0-.274.027-.438.078a.872.872 0 0 0-.39.219zm0 0"/></symbol><symbol overflow="visible" id="B"><path d="M6.36 1.219v-7.094h-.5v2.672h-.954V-5.75h-.5V.875h.5V-2.75h.953v3.969zM.765-4.938H2v.5c0 .45-.04.872-.11 1.266-.062.399-.175.77-.327 1.11a3.9 3.9 0 0 1-.563.89C.77-.898.496-.66.187-.453a.528.528 0 0 0 .11.094c.05.023.101.043.156.062.04.031.082.067.125.094l.11.062c.175-.12.347-.28.515-.468.164-.184.32-.391.469-.61.133-.207.25-.422.344-.64.101-.215.175-.438.218-.657a3.5 3.5 0 0 0 .547 1.188 3 3 0 0 0 .422.516c.152.156.313.285.469.375.039-.051.098-.11.172-.172.082-.059.16-.118.234-.172a2.36 2.36 0 0 1-.719-.594c-.199-.238-.363-.52-.484-.844a3.873 3.873 0 0 1-.281-.937 6.929 6.929 0 0 1-.078-1.094v-.688h1.203v-.421H.766zm0 0"/></symbol><symbol overflow="visible" id="C"><path d="M6.172-1.547V-5.89h-.5v1.657H4.094v.437h1.578v2.25zm-2.234 2.89c.738 0 1.316-.136 1.734-.405.414-.262.625-.598.625-1 0-.395-.211-.727-.625-1-.418-.278-.996-.422-1.734-.422-.376 0-.711.039-1 .109-.293.074-.54.18-.735.313-.2.125-.355.277-.469.453a1.01 1.01 0 0 0-.156.546c0 .403.207.739.625 1 .414.27.992.407 1.735.407zM2.093-.061c0-.153.047-.297.14-.422.09-.121.223-.227.391-.313.164-.082.36-.144.578-.187a3.36 3.36 0 0 1 .735-.079c.257 0 .5.028.718.079.227.043.43.105.61.187.164.086.296.192.39.313.09.125.14.27.14.421a.626.626 0 0 1-.155.422 1.18 1.18 0 0 1-.391.313 2.08 2.08 0 0 1-.594.203 4.104 4.104 0 0 1-1.437 0 2.262 2.262 0 0 1-.594-.203 1.105 1.105 0 0 1-.39-.313.654.654 0 0 1-.141-.421zM.797-5.11H2.28v.265c0 .336-.054.637-.156.907A2.747 2.747 0 0 1 1.109-2.61a5.81 5.81 0 0 1-.812.453c.027.023.062.05.094.078.039.031.082.058.125.078.039.031.078.066.109.094a1.2 1.2 0 0 0 .11.078c.195-.102.394-.219.593-.344a3.13 3.13 0 0 0 .531-.453c.145-.133.274-.297.391-.484a3.07 3.07 0 0 0 .281-.594c.09.2.203.379.328.531.121.149.258.29.407.422.175.148.359.277.546.39.184.118.376.215.563.297a1.28 1.28 0 0 1 .156-.187c.07-.059.14-.125.203-.188a3.673 3.673 0 0 1-.75-.359 2.52 2.52 0 0 1-.64-.547 1.973 1.973 0 0 1-.406-.672 2.316 2.316 0 0 1-.141-.828v-.265H4.25v-.422H.797zm0 0"/></symbol><symbol overflow="visible" id="D"><path d="M6.094-1.563v-4.312h-.5v1.078H4.25v.422h1.344v1.11H4.03v.421h1.563v1.281zM3.859 1.345c.739 0 1.317-.137 1.735-.407.414-.261.625-.597.625-1 0-.394-.211-.726-.625-1-.418-.277-.996-.421-1.735-.421-.375 0-.71.039-1 .109-.293.074-.539.18-.734.313-.2.125-.355.277-.469.453a1.01 1.01 0 0 0-.156.546c0 .403.207.739.625 1 .414.27.992.407 1.734.407zM2.016-.063c0-.152.046-.296.14-.421.09-.121.223-.227.39-.313.165-.082.36-.144.579-.187a3.36 3.36 0 0 1 .734-.079c.258 0 .5.028.72.079.226.043.425.105.593.187.164.086.297.192.39.313.102.125.157.27.157.421a.626.626 0 0 1-.157.422 1.18 1.18 0 0 1-.39.313 2.08 2.08 0 0 1-.594.203c-.23.04-.473.063-.719.063-.261 0-.504-.024-.718-.063a2.262 2.262 0 0 1-.594-.203 1.105 1.105 0 0 1-.39-.313.654.654 0 0 1-.141-.421zM.89-5.53v.422h2.593a3.086 3.086 0 0 1-.328.953c-.156.273-.347.52-.562.734a4.403 4.403 0 0 1-1 .719c-.375.2-.77.355-1.172.469.058.062.129.132.203.203.07.062.133.129.188.187a5.488 5.488 0 0 0 1.265-.578 4.2 4.2 0 0 0 1.031-.875c.246-.289.454-.617.61-.984.164-.371.273-.79.328-1.25zm0 0"/></symbol><symbol overflow="visible" id="E"><path d="M5.813-2.578v-3.125h-.5v1H1.64v-1h-.5v3.125zM5.313-3H1.64v-1.297h3.671zm1.39 1.766v-.422H.25v.422h3v2.453h.516v-2.453zm0 0"/></symbol><symbol overflow="visible" id="F"><path d="M6.078 1.063V.625H2v-1.688h-.5v2.125zm.781-4.11v-.437H5.844v-2.391h-.5v5.469h.5v-2.64zm-2.89.094c.027-.152.062-.336.094-.547.039-.207.078-.426.109-.656.02-.227.039-.461.062-.703.02-.239.04-.473.063-.704h-3.5v.422H3.78c-.011.157-.027.336-.047.532-.023.199-.043.398-.062.593-.031.2-.067.399-.094.594a8.199 8.199 0 0 1-.094.469zm1.156.578c-.2.031-.441.066-.719.094-.273.023-.539.043-.797.062-.28.024-.543.04-.78.047-.243.012-.43.016-.563.016v-1.797H1.78v1.812H.313v.422h.843c.996 0 1.817-.023 2.453-.078.645-.05 1.149-.101 1.516-.156zm0 0"/></symbol><symbol overflow="visible" id="G"><path d="M.969.125c0 .352.219.645.656.875.434.238 1.05.36 1.844.36.8 0 1.414-.122 1.844-.36.433-.23.656-.523.656-.875s-.223-.64-.657-.86c-.43-.226-1.042-.343-1.843-.343-.793 0-1.41.117-1.844.344-.438.218-.656.507-.656.859zm4.453.016c0 .27-.184.472-.547.609-.367.133-.836.203-1.406.203-.574 0-1.043-.074-1.406-.219C1.707.598 1.53.394 1.53.125c0-.277.176-.484.532-.61.363-.132.832-.203 1.406-.203.57 0 1.039.07 1.406.204.363.136.547.347.547.625zm-.688-5.625v-.422h-2.53v.422zM1.047-4.406h2.125c-.055.18-.152.336-.297.468a1.916 1.916 0 0 1-.516.36c-.242.125-.52.23-.828.312a8.6 8.6 0 0 1-.906.204c.059.062.125.136.188.218.058.074.113.133.156.172.27-.05.531-.11.781-.172.246-.07.484-.16.703-.265a2.418 2.418 0 0 0 1.031-.86c.133.211.297.387.485.531.195.149.41.27.64.36.215.105.446.191.688.25.238.062.46.117.672.156a.903.903 0 0 0 .078-.094l.094-.093.078-.079a.484.484 0 0 1 .11-.109 12.95 12.95 0 0 1-.891-.187 4.08 4.08 0 0 1-.797-.313 2.28 2.28 0 0 1-.563-.36 1.084 1.084 0 0 1-.297-.5h2.125v-.421h-4.86zM6.703-1.61v-.422H3.734v-1.016H3.22v1.016H.25v.422zm0 0"/></symbol><symbol overflow="visible" id="H"><path d="M5.25-1.25c-.105.023-.258.05-.453.078l-.656.078c-.243.032-.496.059-.766.078a8.734 8.734 0 0 1-.75.032L1.406-.97v-1.844h2.625v-2.671H.921v.437h2.626v1.813H.922v2.718H2.125c.215-.007.438-.02.656-.03a11.369 11.369 0 0 0 1.406-.11c.227-.02.43-.047.61-.078.183-.028.336-.055.453-.079zm.313-4.625v7.094h.5v-7.094zm0 0"/></symbol><symbol overflow="visible" id="I"><path d="M2.156.594h.469V-.953h.625v-.406h-.625v-4.157h-.422L.25-1.53v.578h1.906zm0-5.047v3.094h-1.5zm0 0"/></symbol><symbol overflow="visible" id="J"><path d="M3.469 1.36c.8 0 1.41-.122 1.828-.36.426-.242.64-.543.64-.906 0-.364-.214-.664-.64-.906-.418-.247-1.027-.375-1.828-.375-.793 0-1.403.12-1.828.359C1.21-.586 1-.285 1 .078s.21.664.64.906c.426.246 1.036.375 1.829.375zM1.547.077c0-.27.176-.476.531-.625.352-.152.817-.234 1.39-.234.571 0 1.036.082 1.391.234.364.149.547.363.547.64 0 .27-.183.485-.547.641-.355.153-.82.235-1.39.235-.586 0-1.055-.086-1.406-.25-.344-.156-.516-.371-.516-.64zm5.156-1.781v-.422H3.734v-.813h2.141v-.406h-4.25v-.781h4.188v-.406H1.625v-.766h4.188v-.406H1.14v2.766h2.078v.812H.25v.422zm0 0"/></symbol><symbol overflow="visible" id="K"><path d="M1.297.047c0 .383.207.695.625.937.426.239 1.031.36 1.812.36.77 0 1.364-.121 1.782-.36C5.93.742 6.14.43 6.14.047s-.211-.695-.625-.938c-.418-.246-1.012-.375-1.782-.375-.78 0-1.386.13-1.812.375-.418.243-.625.555-.625.938zm4.328 0a.584.584 0 0 1-.156.39 1.072 1.072 0 0 1-.39.282c-.169.082-.372.14-.61.172a4.53 4.53 0 0 1-1.5 0 2.54 2.54 0 0 1-.61-.188 1.01 1.01 0 0 1-.39-.281.59.59 0 0 1 0-.766 1.01 1.01 0 0 1 .39-.281c.176-.082.38-.14.61-.172a4.53 4.53 0 0 1 1.5 0c.238.031.441.09.61.172.163.074.296.168.39.281a.584.584 0 0 1 .156.39zm-.64-2.703c-.15.031-.337.07-.563.11-.219.03-.45.058-.688.077-.242.031-.48.059-.718.078-.23.012-.43.016-.594.016l-1.14.016v-1.204h2.546v-2.03H.813v.421h2.53v1.203H.814v2.047H1.92c.196 0 .395-.004.595-.016.183-.007.394-.019.625-.03.238-.02.472-.048.703-.079.226-.027.441-.062.64-.094.207-.027.375-.054.5-.078zM5.561-4.5v.844H4.234v.422h1.329v1.843h.484v-4.484h-.5v.953H4.234v.422zm0 0"/></symbol><symbol overflow="visible" id="L"><path d="M4.063-.578V-5.5h-.5v1.906h-2.22V-5.5H.86v4.922zm-.5-.438h-2.22v-2.14h2.22zm1.984-4.859v7.094h.5v-7.094zm0 0"/></symbol><symbol overflow="visible" id="M"><path d="M6.078 1.219v-7.094h-.5v2.172H3.922v.453h1.656v4.469zm-3.36-5.485v-1.28h-.515v1.124c0 .418-.05.817-.14 1.188a3.813 3.813 0 0 1-.407 1.046c-.18.325-.398.622-.656.891a4.573 4.573 0 0 1-.89.719c.081.055.171.117.265.187.09.063.164.121.219.172.195-.144.394-.316.594-.515.195-.196.378-.414.546-.657.164-.226.313-.46.438-.703.133-.246.226-.492.281-.734.09.273.207.535.344.781.144.242.305.465.484.672.153.18.32.352.5.516.184.156.38.304.578.437l.188-.187c.082-.082.156-.149.219-.204a5.057 5.057 0 0 1-.922-.671 3.882 3.882 0 0 1-.64-.829 3.118 3.118 0 0 1-.376-.89 4.724 4.724 0 0 1-.11-1.063zm0 0"/></symbol><symbol overflow="visible" id="N"><path d="M6.266 1.125V.703H2.109v-.828h3.985v-1.672H1.609v.422h3.97v.813h-3.97v1.687zm-.672-7v3.719h.5v-3.719zm-2.875.813v-.657h-.516v.625c0 .336-.055.633-.156.89a2.093 2.093 0 0 1-.422.673c-.188.199-.402.37-.64.515a4.486 4.486 0 0 1-.766.375 5.54 5.54 0 0 1 .437.36c.196-.09.39-.196.578-.313a3.748 3.748 0 0 0 .922-.86 2.14 2.14 0 0 0 .297-.562c.113.2.238.383.375.547.145.156.3.293.469.406.152.118.316.223.484.313.176.086.348.164.516.234a1.28 1.28 0 0 1 .156-.187c.059-.07.129-.145.203-.219a3.41 3.41 0 0 1-.734-.281 2.507 2.507 0 0 1-.64-.5 1.75 1.75 0 0 1-.423-.594 1.995 1.995 0 0 1-.14-.766zm0 0"/></symbol><symbol overflow="visible" id="R"><path d="M3.344-.61V-3.03h.969V.875h.5V-5.75h-.5v2.266h-.97v-1.86H.814v4.735zm-.469-.421H1.281v-3.89h1.594zm3.281 2.25v-7.094h-.5v7.094zm0 0"/></symbol><symbol overflow="visible" id="S"><path d="M1.125-2.078h4.844V-2.5H1.625v-2.516h4.266v-.437H1.125zM6.719.172v-.438H.234v.438zm0 0"/></symbol><symbol overflow="visible" id="T"><path d="M6.719.172V-.25H.234v.422zM1.14-1.61h4.718v-.422H1.641v-1.313h4.156v-.422H1.64v-1.328h4.171v-.422H1.141zm0 0"/></symbol><symbol overflow="visible" id="U"><path d="M6.719.25v-.422h-3v-1.437h2.265v-.422H1.641v-1.313h4.062v-2.172H1.11v.422h4.094v1.344H1.141v2.14h2.078v1.438H.234V.25zm0 0"/></symbol><symbol overflow="visible" id="V"><path d="M6 1.266v-2.547H1.422v.422h4.094v2.125zm-.484-7.141v4.203h.5v-4.203zm-.297 2.797a4.491 4.491 0 0 1-.5.094c-.211.023-.434.05-.672.078-.242.031-.488.058-.734.078-.25.023-.477.031-.672.031l-1.344.016v-2.875H.813v3.328H2.14c.226-.008.441-.02.64-.031.215 0 .442-.008.672-.032.238-.02.469-.039.688-.062.214-.027.414-.063.593-.094a6.34 6.34 0 0 0 .485-.094zm0 0"/></symbol><symbol overflow="visible" id="W"><path d="M6.719.234v-.421H3.203v-1.954h-.5v1.954H.234v.421zm-5.64-5.687v.422h4.296c0 .105-.008.215-.016.328a7.822 7.822 0 0 0-.03.328A5.782 5.782 0 0 1 5.28-4c-.011.117-.023.23-.031.344-.148.011-.32.023-.516.031a26.175 26.175 0 0 1-1.328.047c-.23 0-.46.008-.687.015H.969v.407c.008 0 .062.008.156.015H2c.195-.007.41-.015.64-.015h.657c.238-.008.469-.016.687-.016.227-.008.442-.015.641-.015.207-.008.398-.024.578-.047-.055.343-.105.68-.156 1-.043.312-.098.632-.156.953h.515c.133-.676.239-1.367.313-2.078.082-.715.14-1.414.172-2.094zm0 0"/></symbol><symbol overflow="visible" id="X"><path d="M.531-3c0 .492.051.91.156 1.25.102.344.235.621.391.828.164.219.348.379.547.469.195.094.39.14.578.14.195 0 .39-.046.578-.14.196-.09.38-.25.547-.469.152-.207.285-.484.39-.828.102-.34.157-.758.157-1.25 0-.488-.059-.906-.172-1.25a2.87 2.87 0 0 0-.39-.828 1.621 1.621 0 0 0-.547-.453 1.315 1.315 0 0 0-.563-.14c-.18 0-.367.05-.562.14-.2.086-.38.23-.532.437a2.69 2.69 0 0 0-.421.828C.582-3.922.53-3.496.53-3zm.5 0c0-.29.02-.57.063-.844.05-.27.129-.508.234-.719.102-.207.227-.375.375-.5a.782.782 0 0 1 1.016 0c.144.125.265.293.36.5.089.211.163.45.218.72a4.612 4.612 0 0 1 0 1.702 3.552 3.552 0 0 1-.219.72c-.094.21-.215.378-.36.5a.785.785 0 0 1-.5.171.79.79 0 0 1-.515-.172 1.438 1.438 0 0 1-.375-.5 2.633 2.633 0 0 1-.234-.719A5.455 5.455 0 0 1 1.03-3zm5.813.094v-.453H5.75v-2.516h-.531v7.094h.531v-4.125zm0 0"/></symbol><symbol overflow="visible" id="Y"><path d="M2.063 1.578c-.376-.687-.66-1.34-.844-1.953a7.248 7.248 0 0 1-.266-2.016c0-.707.086-1.367.266-1.984.183-.621.468-1.281.843-1.969h-.328a12.89 12.89 0 0 0-.421.735 6.723 6.723 0 0 0-.407.906c-.125.324-.23.68-.312 1.062-.074.387-.11.805-.11 1.25 0 .45.036.868.11 1.25.082.387.187.743.312 1.063.121.332.258.633.406.906.145.27.286.52.422.75zm0 0"/></symbol><symbol overflow="visible" id="Z"><path d="M6.703-1.39v-.438H.25v.437h1.797v2.547h.5V-1.39h1.86v2.61h.5v-2.61zM1.016-4.204c0 .23.05.445.156.64.113.188.281.356.5.5.207.149.46.262.766.344.308.074.656.11 1.03.11.384 0 .727-.036 1.032-.11.3-.082.563-.195.781-.344.207-.144.367-.312.485-.5a1.26 1.26 0 0 0 0-1.265 1.727 1.727 0 0 0-.485-.516 2.491 2.491 0 0 0-.781-.328 3.968 3.968 0 0 0-1.031-.125c-.375 0-.723.043-1.031.125a2.256 2.256 0 0 0-.766.328c-.219.149-.387.32-.5.516-.106.2-.156.41-.156.625zM3.469-3c-.274 0-.528-.023-.766-.078a1.763 1.763 0 0 1-.625-.25 1.132 1.132 0 0 1-.406-.36.974.974 0 0 1-.14-.515.92.92 0 0 1 .14-.5 1.34 1.34 0 0 1 .406-.39c.176-.09.379-.165.61-.22a3.269 3.269 0 0 1 1.546 0c.239.055.442.13.61.22.176.116.312.245.406.39.102.148.156.32.156.516a.854.854 0 0 1-.156.5c-.094.148-.23.273-.406.374a2.08 2.08 0 0 1-.625.235 3.25 3.25 0 0 1-.75.078zm0 0"/></symbol><symbol overflow="visible" id="aa"><path d="M.719-6.344H.39c.37.688.656 1.348.843 1.969a6.92 6.92 0 0 1 .282 1.984 7.1 7.1 0 0 1-.282 2.016 10.846 10.846 0 0 1-.843 1.953h.328c.133-.23.273-.48.422-.75.144-.273.28-.574.406-.906.121-.32.223-.676.297-1.063.082-.382.125-.8.125-1.25 0-.445-.043-.859-.125-1.234a7.24 7.24 0 0 0-.297-1.078 8.582 8.582 0 0 0-.406-.89c-.149-.278-.29-.532-.422-.75zm0 0"/></symbol><symbol overflow="visible" id="ab"><path d="M1.281-.047c0 .402.192.738.578 1 .395.258.985.39 1.766.39.77 0 1.348-.132 1.734-.39.383-.262.579-.598.579-1 0-.394-.196-.723-.579-.984-.386-.27-.964-.407-1.734-.407-.781 0-1.371.137-1.766.407-.386.261-.578.59-.578.984zm.547.016c0-.309.16-.555.484-.735.32-.175.766-.265 1.329-.265.527 0 .957.09 1.28.265.333.18.5.426.5.735 0 .308-.167.55-.5.719-.323.175-.753.265-1.28.265-.563 0-1.008-.09-1.329-.265-.324-.168-.484-.41-.484-.72zM6.781-3.72v-.437h-1v-1.719h-.515v4.328h.515v-2.172zM2.547-5.016v-.671H2.03v.656c0 .336-.05.636-.14.906a2.402 2.402 0 0 1-.391.719c-.188.23-.402.433-.64.61a4.121 4.121 0 0 1-.813.437c.058.054.133.117.219.187.09.074.164.133.218.172.207-.09.407-.203.594-.328a3.43 3.43 0 0 0 .531-.438c.153-.144.29-.304.407-.484a3 3 0 0 0 .28-.61c.102.231.235.434.392.61.152.168.32.32.5.453.152.117.312.227.468.328.153.094.313.176.469.235a.903.903 0 0 0 .078-.094l.094-.094.094-.094a.86.86 0 0 1 .093-.109 3.377 3.377 0 0 1-.734-.344 2.77 2.77 0 0 1-1.047-1.187 2.259 2.259 0 0 1-.156-.86zm0 0"/></symbol><symbol overflow="visible" id="ac"><path d="M5.813-2.938v-2.656H1.14v2.657zm-.5-.421H1.64v-1.813h3.671zm1.39 1.968v-.437H.25v.437h3v2.61h.516v-2.61zm0 0"/></symbol><symbol overflow="visible" id="aj"><path d="M6.703-2.484v-.407H.25v.407h1.86v.828h-.97v.406h4.157v.766H1.14v1.609h4.828v-.39H1.656v-.829h4.157v-1.562h-.97v-.828zm-2.344.828H2.61v-.828h1.75zm-.89-1.797c.789 0 1.39-.113 1.797-.344.414-.238.625-.531.625-.875a.822.822 0 0 0-.157-.469 1.39 1.39 0 0 0-.468-.406 2.83 2.83 0 0 0-.766-.266 4.44 4.44 0 0 0-1.031-.109c-.781 0-1.383.121-1.797.36-.418.242-.625.539-.625.89 0 .344.207.637.625.875.414.23 1.016.344 1.797.344zm0-.375c-.563 0-1.024-.07-1.375-.219-.356-.152-.531-.363-.531-.625 0-.27.171-.484.515-.64.352-.153.817-.235 1.39-.235.56 0 1.02.086 1.376.25.363.156.547.367.547.625a.484.484 0 0 1-.157.344 1.093 1.093 0 0 1-.39.266 2.074 2.074 0 0 1-.61.187c-.23.031-.488.047-.765.047zm0 0"/></symbol><symbol overflow="visible" id="ak"><path d="M6.703-1.39v-.423H3.734V-2.89H3.22v1.079H.25v.421zm-.64 2.452V.641H1.625V-.844h-.484v1.906zM4.734-5.484v-.422h-2.53v.422zM1.047-4.375h2.14a.915.915 0 0 1-.265.516 1.952 1.952 0 0 1-.531.39c-.25.125-.536.239-.844.328a8.452 8.452 0 0 1-.922.204c.059.062.125.132.188.203.058.074.113.136.156.187.289-.058.566-.129.828-.203.258-.07.5-.164.719-.281.195-.09.375-.207.53-.344.165-.133.313-.297.438-.484.153.25.344.457.563.609.226.148.473.273.734.375.09.043.192.082.297.11.102.023.207.05.313.078.101.03.203.058.296.078.09.023.188.043.282.062a.903.903 0 0 0 .078-.094l.094-.093a.762.762 0 0 1 .078-.094l.11-.11c-.274-.039-.552-.093-.829-.156a3.553 3.553 0 0 1-.75-.281 2.438 2.438 0 0 1-.656-.406 1.017 1.017 0 0 1-.328-.594h2.14v-.406h-4.86zm0 0"/></symbol><symbol overflow="visible" id="al"><path d="M.969-.047c0 .395.219.723.656.985.434.269 1.05.406 1.844.406.8 0 1.414-.137 1.844-.407.433-.261.656-.59.656-.984s-.223-.723-.657-.984c-.43-.27-1.042-.407-1.843-.407-.793 0-1.41.137-1.844.407-.438.261-.656.59-.656.984zm2.5.985c-.586 0-1.059-.086-1.422-.25C1.68.52 1.5.27 1.5-.063c0-.31.18-.551.547-.72.363-.163.836-.25 1.422-.25.277 0 .539.024.781.063.246.043.46.106.64.188.165.086.301.191.407.312a.639.639 0 0 1 .156.406.682.682 0 0 1-.156.438 1.387 1.387 0 0 1-.406.313c-.18.082-.395.144-.641.187-.242.04-.504.063-.781.063zm2.14-4.063c.07-.309.133-.695.188-1.156.058-.465.101-.926.125-1.375h-4.89v.422h4.374c0 .168-.011.347-.031.53a6.7 6.7 0 0 1-.063.548c-.03.199-.066.386-.093.562-.032.18-.067.336-.094.469zm1.094.938v-.422H3.297v-1.625h-.485v1.625H.25v.421zm0 0"/></symbol><symbol overflow="visible" id="am"><path d="M6.078 1.219v-7.094h-.5v2.656H4v.438h1.578v4zM.953-5.421v.437h2.5c-.043.449-.133.87-.265 1.265a5.447 5.447 0 0 1-.532 1.094 5.628 5.628 0 0 1-.937 1.11c-.356.324-.77.613-1.235.859.059.043.145.101.25.172.114.074.192.136.235.187A7.03 7.03 0 0 0 2.28-1.375c.371-.395.692-.828.953-1.297.215-.402.391-.836.516-1.297.133-.457.219-.941.25-1.453zm0 0"/></symbol><symbol overflow="visible" id="an"><path d="M3.938-1.125l-.297.047c-.125.012-.262.027-.407.047-.148.011-.293.023-.437.031a4.923 4.923 0 0 1-.39.016L1.311-.97v-1.797h2v-2.671H.829v.421h2.016v1.829h-2v2.656L2.28-.547c.145 0 .297-.004.453-.015.153-.008.313-.024.47-.047.151-.008.296-.02.421-.032.133-.02.238-.039.313-.062zm2.218 2.344v-7.094h-.5v2.625h-.953v-2.5h-.5V.875h.5v-3.656h.953v4zm0 0"/></symbol><symbol overflow="visible" id="ao"><path d="M5.125-.281c.102-.352.195-.735.281-1.14.09-.403.172-.829.235-1.266.07-.426.129-.86.171-1.297.04-.434.07-.864.094-1.282H1.031v.422h4.36c0 .282-.028.617-.079 1-.042.387-.101.79-.171 1.203-.063.418-.145.832-.235 1.235-.093.406-.191.785-.281 1.125H.235V.14h6.484v-.422zm0 0"/></symbol><symbol overflow="visible" id="ap"><path d="M6.703-1.969v-.422H.25v.422h2.969v.922h.515v-.922zm-.89 3.11v-2.485h-.5v.782H1.624v-.782h-.484v2.485zm-.5-.407H1.624v-.89h3.688zM1.14-3.016h4.78v-.406h-4.28v-.765H5.75v-1.516H1.14v.406h4.094v.719H1.141zm0 0"/></symbol><symbol overflow="visible" id="aq"><path d="M4.906-1.578v-.438h-2.36v.438zm.688-4.297v4.047h.5v-4.047zM3.954-2.75v-2.781H.843v2.781zm-.47-.406H1.313v-1.969h2.171zm2.532 4.36a.21.21 0 0 1 .062-.079c.027-.031.067-.07.11-.11.027-.03.062-.07.093-.109a.704.704 0 0 0 .094-.094 4.586 4.586 0 0 1-.828-.171 2.943 2.943 0 0 1-.719-.297c-.2-.106-.371-.23-.516-.375A1.439 1.439 0 0 1 4-.547h2.14v-.422H1.407v.422h2.078A1.394 1.394 0 0 1 3.156 0a2.012 2.012 0 0 1-.531.39c-.21.102-.441.188-.688.25-.25.07-.519.13-.796.172.02.028.046.063.078.094l.11.11a.86.86 0 0 1 .109.093c.027.04.054.07.078.094.214-.031.437-.086.656-.156.215-.063.426-.149.625-.25a3.24 3.24 0 0 0 .531-.344c.164-.137.317-.3.453-.484.114.195.254.36.422.484.164.133.344.254.531.36.184.09.391.171.61.234.215.07.441.125.672.156zm0 0"/></symbol><symbol overflow="visible" id="ar"><path d="M.969-3.89c0 .242.039.464.125.671.082.211.207.395.375.547.152.156.343.285.562.375.215.094.461.14.735.14.246 0 .484-.046.703-.14.226-.09.414-.219.562-.375a1.52 1.52 0 0 0 .375-.547 1.668 1.668 0 0 0 0-1.344 1.59 1.59 0 0 0-.375-.546 1.532 1.532 0 0 0-.562-.36 1.893 1.893 0 0 0-1.438 0c-.219.086-.41.207-.562.36a1.49 1.49 0 0 0-.375.546c-.086.211-.125.434-.125.672zm.484 0c0-.352.113-.657.344-.907.226-.258.55-.39.969-.39.394 0 .707.132.937.39.227.25.344.555.344.906 0 .368-.117.676-.344.922-.23.242-.543.36-.937.36-.418 0-.743-.118-.97-.36-.23-.246-.343-.554-.343-.922zm4.703 5.109v-7.094h-.5v7.094zm-.734-2.36c-.156.024-.383.051-.672.079-.293.03-.602.058-.922.078a13.54 13.54 0 0 1-.922.062c-.281.012-.496.016-.64.016H.546v.437h1.47c.363 0 .71-.004 1.046-.015.34-.02.66-.04.954-.063.3-.02.57-.039.812-.062.238-.028.438-.055.594-.079zm0 0"/></symbol><symbol overflow="visible" id="as"><path d="M4.86-.172v-1.437h1.124v-.422H1.641v-1.313h4.062v-2.172H1.11v.422h4.094v1.344H1.141v2.14h1.03v1.438H.235V.25H6.72v-.422zM2.671-1.609h1.703v1.437H2.672zm0 0"/></symbol><symbol overflow="visible" id="at"><path d="M5.781 1.266v-2.594H1.25v.437h4.016v2.157zm.985-4.313v-.422H5.78v-1.094h.985v-.421H5.78v-.891h-.515v4.172h.515v-1.344zm-6.36-.937c0 .25.04.488.125.703.09.21.223.398.39.562.153.156.345.285.563.375.215.094.457.14.72.14.257 0 .5-.046.718-.14.215-.09.406-.219.562-.375.153-.164.274-.351.36-.562.09-.215.14-.453.14-.703 0-.239-.05-.461-.14-.672a1.919 1.919 0 0 0-.36-.578 1.89 1.89 0 0 0-.562-.375c-.219-.09-.461-.141-.719-.141A1.795 1.795 0 0 0 .531-4.656c-.086.21-.125.433-.125.672zm.516 0c0-.364.11-.676.328-.938.227-.258.547-.39.953-.39.414 0 .735.132.953.39.215.262.328.574.328.938 0 .367-.113.68-.328.937-.219.262-.539.39-.953.39-.406 0-.726-.128-.953-.39a1.4 1.4 0 0 1-.328-.937zm0 0"/></symbol><symbol overflow="visible" id="au"><path d="M6.719-1.984v-.422h-1.14c.026-.207.062-.442.093-.703.039-.258.07-.532.094-.813.027-.289.054-.578.078-.86.02-.288.035-.562.047-.812H1.016v.422h4.359c-.031.469-.074.93-.125 1.375-.043.45-.105.914-.188 1.39H.234v.423h1.829v3.14h.5v-3.14h1.874v3.203h.485v-3.203zm0 0"/></symbol><symbol overflow="visible" id="av"><path d="M6.047 1.14v-2.515H1.594v2.516zM5.563.704h-3.47V-.953h3.47zm0-6.578v4.094h.484v-4.094zm-.344 2.938c-.356.062-.77.12-1.235.171-.468.055-.925.079-1.359.079l-1.344.015v-1.062h2.657v-.407H1.28v-1.03h2.735v-.423H.812v3.344c.02 0 .098.008.235.016.144 0 .32-.004.531-.016h.672c.238-.008.46-.02.672-.031.164 0 .36-.008.578-.031.227-.02.445-.04.656-.063.215-.027.422-.055.61-.078.183-.02.336-.047.453-.078zm0 0"/></symbol><symbol overflow="visible" id="aw"><path d="M6.672-4.234v-.391H4.594l.687-1.11-.437-.218c-.032.094-.09.215-.172.36-.074.148-.152.288-.234.421l-.235.375a1.27 1.27 0 0 0-.094.172H2.781l.25-.234a5.856 5.856 0 0 0-.187-.266l-.219-.297a5.001 5.001 0 0 0-.219-.25c-.062-.082-.117-.148-.156-.203l-.344.281c.09.094.176.196.25.297.082.106.149.2.203.281l.157.25c.039.063.078.114.109.141H.312v.39zM1.297-.5H2.89v.578c0 .145-.02.27-.047.375-.031.113-.114.18-.235.203L2.141.641l.171.437H2.595c.05 0 .101-.008.156-.016.05-.011.102-.027.156-.046a.652.652 0 0 0 .281-.282c.06-.125.094-.332.094-.609v-3.594H.891v4.485h.406zm1.578-1.734H1.297v-.844h1.578zm0 1.343H1.297v-.968h1.578zm2.703-2.843l.031.875V.078c0 .207-.027.344-.078.406-.054.059-.168.094-.343.094-.086 0-.176-.008-.266-.015L4.703.53l.094.531H5.125a.878.878 0 0 0 .156-.015c.051 0 .098-.008.14-.016.208-.031.36-.086.454-.156.102-.074.156-.242.156-.5v-3.234l.063-.829zm-1.453.312l.031.813V.078h.422v-2.672l.047-.75zm0 0"/></symbol><symbol overflow="visible" id="ax"><path d="M6.938-3.328v-.438H5.921v-2.109h-.484v5.266h.484v-2.72zm-.766 4.39V.625H2.109V-.969h-.5v2.031zm-2.61-6.515v-.422H1.47v.422zm.985 1.078v-.422H.53v.422zm-2.016.469c-.261 0-.496.035-.703.094-.21.062-.387.152-.531.265-.149.106-.262.23-.344.375a1.033 1.033 0 0 0 0 .922c.082.148.195.273.344.375.144.117.32.207.531.266.207.062.442.093.703.093.258 0 .492-.03.703-.093.207-.059.391-.149.547-.266.133-.102.242-.227.328-.375a.911.911 0 0 0 .125-.453c0-.32-.152-.602-.453-.844-.304-.238-.722-.36-1.25-.36zM1.36-2.72c0-.215.098-.398.297-.547.207-.144.5-.218.875-.218.383 0 .676.074.875.218.196.149.297.332.297.547 0 .23-.101.426-.297.578-.199.149-.492.22-.875.22-.375 0-.668-.071-.875-.22a.7.7 0 0 1-.297-.578zm0 0"/></symbol><symbol overflow="visible" id="ay"><path d="M5.64-3.047c.028-.183.063-.394.094-.625.04-.226.067-.457.079-.687.027-.227.05-.454.062-.672.02-.215.035-.426.047-.625h-4.89v.422h4.374c-.011.168-.027.347-.047.53a7.672 7.672 0 0 1-.062.579c-.024.2-.05.395-.078.578a17.19 17.19 0 0 0-.078.5H.25v.422h2.875v1.438H1.047v.421h4.25v2.032h.516v-2.454H3.624v-1.437h3.078v-.422zm0 0"/></symbol><symbol overflow="visible" id="az"><path d="M6.203 1.14V-1.53h-.5v.843H2.234v-.843h-.5V1.14zm-.5-.406H2.234V-.28h3.47zM2.531-4.062c-.261 0-.496.035-.703.093-.21.055-.387.13-.531.219a1.243 1.243 0 0 0-.344.36.759.759 0 0 0-.11.39c0 .148.036.285.11.406.082.125.195.239.344.328.144.106.32.184.531.235.207.054.442.078.703.078.52 0 .93-.102 1.235-.313.308-.207.468-.453.468-.734 0-.277-.152-.523-.453-.734-.304-.215-.722-.329-1.25-.329zM3.703-3c0 .21-.101.371-.297.484-.199.106-.492.157-.875.157-.375 0-.668-.051-.875-.157-.199-.113-.297-.273-.297-.484a.55.55 0 0 1 .297-.5c.207-.113.5-.172.875-.172.383 0 .676.07.875.203.196.125.297.285.297.469zm-.14-2.469v-.406H1.469v.406zM4.5-4.453v-.422H.531v.422zm1.719 2.578v-4h-.5v1.781H4.484v.422H5.72v.813H4.484v.421H5.72v.563zm0 0"/></symbol><symbol overflow="visible" id="aA"><path d="M6.234 1.219v-7.094H5.75v7.094zM3.875-5.297v-.437h-2v.437zm.922 1.156v-.437H.953v.437zM5.516-.75a4.751 4.751 0 0 1-.532.078c-.21.012-.43.024-.656.031-.219.012-.433.024-.64.032-.211.011-.387.015-.532.015v-.89c.414-.028.742-.157.985-.375.246-.215.375-.461.375-.735a.813.813 0 0 0-.125-.422 1.318 1.318 0 0 0-.329-.375 2.419 2.419 0 0 0-.515-.234c-.2-.07-.414-.11-.64-.11-.243 0-.462.036-.657.094-.2.063-.367.149-.5.25-.148.106-.262.23-.344.375a.871.871 0 0 0-.11.422.95.95 0 0 0 .36.75c.246.211.586.336 1.016.375v.89H.609v.423h2.313c.238 0 .484-.004.734-.016.246-.008.489-.023.719-.047a7.82 7.82 0 0 0 .64-.047c.196-.02.364-.039.5-.062zm-3.75-1.844c0-.207.101-.379.312-.515.215-.145.492-.22.828-.22.332 0 .602.075.813.22.207.148.312.32.312.515 0 .219-.105.399-.312.531-.211.126-.48.188-.813.188-.336 0-.613-.063-.828-.188-.21-.132-.312-.312-.312-.53zm0 0"/></symbol><symbol overflow="visible" id="aB"><path d="M3.953 1.344c.371 0 .707-.04 1-.11.3-.062.555-.16.766-.28A1.34 1.34 0 0 0 6.187.5c.114-.18.172-.367.172-.563a.964.964 0 0 0-.171-.546 1.34 1.34 0 0 0-.47-.454 2.593 2.593 0 0 0-.765-.312 4.306 4.306 0 0 0-1-.11c-.375 0-.715.04-1.015.11-.293.074-.54.18-.735.313a1.43 1.43 0 0 0-.484.453 1.01 1.01 0 0 0-.157.546c0 .196.051.383.157.563.113.176.273.328.484.453.195.121.442.219.735.281.3.07.64.11 1.015.11zM2.078-.063c0-.152.047-.296.14-.421a1.07 1.07 0 0 1 .407-.313 2.26 2.26 0 0 1 .594-.187 3.36 3.36 0 0 1 .734-.079c.27 0 .52.028.75.079.227.043.426.105.594.187.164.086.297.192.39.313.102.125.157.27.157.421a.626.626 0 0 1-.157.422 1.18 1.18 0 0 1-.39.313 2.08 2.08 0 0 1-.594.203 4.48 4.48 0 0 1-1.484 0 2 2 0 0 1-.594-.203 1.07 1.07 0 0 1-.406-.313.694.694 0 0 1-.14-.421zM6.313-1.53v-4.344h-.5v1.75h-.97V-5.75H4.36v3.984h.485v-1.906h.968v2.14zM.766-5.11h1.187v.328c0 .281-.035.539-.094.765-.054.23-.136.446-.25.641a2.794 2.794 0 0 1-.515.61c-.2.18-.442.34-.719.484.027.023.066.05.11.078.038.031.081.066.124.094.028.023.067.05.11.078.039.031.07.058.094.078.175-.113.335-.227.484-.344.144-.113.27-.234.375-.36.113-.12.21-.253.297-.39.09-.144.176-.305.25-.484a2.744 2.744 0 0 0 .625.797c.113.117.238.222.375.312.144.086.289.164.437.235l.078-.079.094-.093a.762.762 0 0 0 .094-.079l.094-.093a4.42 4.42 0 0 1-.657-.36 1.995 1.995 0 0 1-.468-.453 1.545 1.545 0 0 1-.329-.594 3.352 3.352 0 0 1-.093-.843v-.328H3.64v-.422H.766zm0 0"/></symbol><symbol overflow="visible" id="aC"><path d="M6.078 1.14v-2.546H1.625V1.14zm-.5-.437H2.125V-.984h3.453zm.016-6.578v4.11h.5v-4.11zm-2.875.86v-.673h-.516v.657a2.562 2.562 0 0 1-.5 1.563c-.18.25-.398.472-.656.655-.25.18-.527.336-.828.47a5.54 5.54 0 0 1 .437.359c.196-.09.383-.204.563-.329.183-.12.36-.265.515-.421a2.672 2.672 0 0 0 .719-1.11c.113.219.242.418.39.594.153.168.321.32.5.453.153.125.313.238.47.328.164.094.328.18.484.25a1.28 1.28 0 0 1 .156-.187c.059-.07.129-.145.203-.219a3.248 3.248 0 0 1-.75-.344 2.414 2.414 0 0 1-.625-.531 2.22 2.22 0 0 1-.422-.672 2.374 2.374 0 0 1-.14-.844zm0 0"/></symbol><symbol overflow="visible" id="aD"><path d="M6.172 1.219v-7.094h-.5v7.094zm-.797-3.344l-.328.047c-.137.012-.293.027-.469.047-.168.011-.351.027-.547.047a9.096 9.096 0 0 1-.562.015c-.219.024-.492.04-.813.047H.531v.422h1.86v2.547h.484V-1.5c.176 0 .383-.004.625-.016.238-.02.473-.039.703-.062.227-.008.445-.024.656-.047.207-.027.38-.055.516-.078zM.953-4.235c0 .212.04.403.125.579.082.18.207.34.375.484.152.137.344.246.563.328.214.074.457.11.718.11.258 0 .5-.036.72-.11.214-.082.405-.191.562-.328.152-.144.273-.305.359-.484.09-.176.14-.367.14-.578 0-.196-.05-.383-.14-.563a1.711 1.711 0 0 0-.36-.5 2.03 2.03 0 0 0-.562-.328 2.042 2.042 0 0 0-.719-.125c-.261 0-.504.043-.718.125-.22.086-.41.195-.563.328a1.465 1.465 0 0 0-.375.5c-.086.18-.125.367-.125.563zM2.734-3.14a1.5 1.5 0 0 1-.562-.093 1.174 1.174 0 0 1-.656-.594 1.058 1.058 0 0 1-.079-.406c0-.278.11-.536.329-.766.214-.227.539-.344.968-.344.426 0 .75.117.97.344.214.23.327.488.327.766 0 .136-.027.273-.078.406a.995.995 0 0 1-.25.344 1.085 1.085 0 0 1-.406.25 1.603 1.603 0 0 1-.563.093zm0 0"/></symbol><symbol overflow="visible" id="aJ"><path d="M6.078 1.219v-7.094h-.5v7.094zM.953-5.421v.437h2.5c-.043.449-.137.87-.281 1.265-.137.399-.309.77-.516 1.11a5.224 5.224 0 0 1-.937 1.093c-.356.325-.77.614-1.235.86.059.043.145.101.25.172.114.074.192.136.235.187a7.388 7.388 0 0 0 1.265-1.031c.371-.383.692-.805.954-1.266.226-.402.41-.844.546-1.312.145-.477.235-.985.266-1.516zm0 0"/></symbol><symbol overflow="visible" id="aK"><path d="M6.703-1.781v-.438H.25v.438h3.063v1.625h.5v-1.625zm-.64 2.843V.625H1.625V-1h-.484v2.063zm-.75-4.671H1.624v-1.625h3.688zm-4.172.421h4.671v-2.468H1.141zm0 0"/></symbol><symbol overflow="visible" id="aL"><path d="M3.625-5.297v-.437h-2v.437zm.938 1.156v-.437H.719v.437zM5.171-.75c-.149.031-.32.059-.516.078-.199.012-.402.024-.61.031-.21.012-.417.024-.624.032-.2.011-.367.015-.5.015v-.89c.402-.028.734-.157.984-.375.246-.215.375-.461.375-.735a.813.813 0 0 0-.125-.422 1.823 1.823 0 0 0-.328-.375 2.419 2.419 0 0 0-.515-.234c-.2-.07-.415-.11-.641-.11-.25 0-.477.036-.672.094a1.932 1.932 0 0 0-.5.25 1.25 1.25 0 0 0-.328.375.871.871 0 0 0-.11.422.95.95 0 0 0 .36.75c.246.211.582.336 1 .375v.89H.39v.423h2.25c.226 0 .46-.004.703-.016.246-.008.484-.023.703-.047.226-.008.437-.023.625-.047.195-.02.363-.039.5-.062zm-3.64-1.844c0-.207.1-.379.312-.515.215-.145.492-.22.828-.22.332 0 .601.075.812.22.207.148.313.32.313.515 0 .219-.106.399-.313.531-.21.126-.48.188-.812.188-.336 0-.613-.063-.828-.188-.211-.132-.313-.312-.313-.53zm3.874-3.281v7.094h.5V-2.47h1.047v-.453H5.906v-2.953zm0 0"/></symbol><symbol overflow="visible" id="aM"><path d="M6.313 1.063V.625H2.125V-1.25h-.5v2.313zM2.358-2.531c-.406 0-.726-.133-.953-.406-.218-.27-.328-.602-.328-1 0-.395.11-.727.328-1 .227-.27.547-.407.953-.407.403 0 .72.137.938.407.226.273.344.605.344 1 0 .398-.118.73-.344 1-.219.273-.535.406-.938.406zm1.704-.813c.027-.09.05-.187.062-.281.02-.102.031-.207.031-.313a1.73 1.73 0 0 0-.031-.312 5.447 5.447 0 0 0-.078-.297h1.547v1.203zm2.03 2.75v-5.281h-.5v.89H3.86a1.816 1.816 0 0 0-.625-.577 1.715 1.715 0 0 0-.875-.235c-.273 0-.52.055-.734.156-.219.094-.41.227-.563.391-.156.18-.285.383-.375.61a1.918 1.918 0 0 0-.125.702c0 .262.04.508.125.735.09.219.22.414.375.578.153.168.344.305.563.406.215.094.46.14.734.14.32 0 .614-.07.875-.218.258-.152.473-.36.641-.61h1.719v2.313zm0 0"/></symbol><symbol overflow="visible" id="aN"><path d="M5.578-2.406c.027-.207.063-.442.094-.703.039-.258.07-.532.094-.813.027-.289.054-.578.078-.86.02-.288.035-.562.047-.812H1.016v.422h4.359c-.031.469-.074.93-.125 1.375-.043.45-.105.914-.188 1.39H.234v.423h2.907v3.203h.515v-3.203H6.72v-.422zm0 0"/></symbol><symbol overflow="visible" id="aO"><path d="M3.734-5v-.563H3.22V-5c0 .313-.074.617-.219.906-.148.282-.348.551-.594.797-.25.25-.543.477-.875.672-.324.188-.664.34-1.015.453.09.074.175.149.25.219.07.062.132.133.187.203.258-.113.52-.242.781-.39a5.08 5.08 0 0 0 .735-.532c.226-.195.43-.41.61-.64.175-.227.312-.47.405-.72.07.25.204.497.391.735.184.242.406.461.656.656.227.211.473.395.735.547.27.149.52.258.75.328.05-.07.109-.14.171-.203.07-.07.145-.14.22-.203a3.555 3.555 0 0 1-.938-.406 3.998 3.998 0 0 1-.828-.64 3.329 3.329 0 0 1-.657-.845A1.95 1.95 0 0 1 3.734-5zM3.72-2.172h-.5v1.985H.234v.421H6.72v-.421h-3zm0 0"/></symbol><symbol overflow="visible" id="aP"><path d="M1.047-5.453v.437h4.328c-.012.274-.035.567-.063.875-.03.313-.07.633-.109.954-.043.324-.098.652-.156.984-.055.324-.106.637-.156.937h.515c.133-.664.239-1.359.313-2.078.082-.726.14-1.43.172-2.11zM6.719.234v-.421H3.203V-2.97h-.5v2.781H.234v.422zm0 0"/></symbol><symbol overflow="visible" id="aQ"><path d="M4.969-1.25c-.094.023-.239.05-.422.078l-.625.078c-.23.032-.477.059-.735.078-.25.024-.492.032-.718.032L1.406-.97v-1.844h2.5v-2.671H.922v.437h2.5v1.813h-2.5v2.718h1.062c.207-.007.422-.02.641-.03a10.3 10.3 0 0 0 1.344-.11c.215-.02.41-.047.578-.078.176-.028.316-.055.422-.079zm1.093 2.469v-7.094h-.5v1.406h-1.25v.438h1.25v1.375h-1.25v.437h1.25V1.22zm0 0"/></symbol><symbol overflow="visible" id="aR"><path d="M3.563-5.453v-.422H1.469v.422zm.984 1.047v-.422H.53v.422zm-2.016.468c-.511 0-.926.118-1.234.344-.305.23-.453.508-.453.828 0 .157.035.309.11.454.081.148.194.269.343.359.144.117.32.207.531.266.207.054.442.078.703.078.52 0 .93-.114 1.235-.344.308-.227.468-.5.468-.813 0-.32-.152-.597-.453-.828-.304-.226-.722-.344-1.25-.344zM1.36-2.78c0-.215.098-.395.297-.531.207-.133.5-.204.875-.204.383 0 .676.07.875.204.196.136.297.316.297.53 0 .231-.101.419-.297.563-.199.137-.492.203-.875.203-.375 0-.668-.066-.875-.203a.664.664 0 0 1-.297-.562zM6.938-3.5v-.438H5.921v-1.937h-.5v4.547h.5V-3.5zM5.921 1.266V-.97h-4.5v.438h4.016v1.797zm0 0"/></symbol><symbol overflow="visible" id="aS"><path d="M6.719.234v-.421H4.062v-2.735h-.484v2.735H2.313v-2.735h-.47v2.735H.235v.421zM1.047-5.453v.437h4.375c-.012.274-.035.567-.063.875-.03.305-.074.621-.125.954-.043.324-.09.648-.14.968-.055.324-.114.637-.172.938h.516c.132-.664.238-1.36.312-2.078.082-.715.145-1.414.188-2.094zm0 0"/></symbol><symbol overflow="visible" id="aT"><path d="M3.906-1.86c.051-.257.098-.546.14-.859.04-.32.071-.648.095-.984.027-.32.05-.633.062-.938.02-.3.035-.566.047-.796H.703v.421h3.031c0 .25-.011.524-.03.813-.024.281-.052.566-.079.844-.031.28-.07.558-.11.828-.03.261-.066.488-.093.672zm1.172.844a6.082 6.082 0 0 1-.61.094c-.261.024-.534.043-.812.063-.281.011-.554.027-.812.046-.262.012-.465.016-.61.016v-2.5H1.75v2.5H.328v.438h1.266c.277 0 .586-.004.922-.016.34-.02.675-.04 1-.063.308-.019.609-.039.89-.062.278-.027.504-.055.672-.078zm.234-4.859v7.094h.516V-2.47H6.86v-.453H5.83v-2.953zm0 0"/></symbol><symbol overflow="visible" id="aU"><path d="M4.75-5.219v-.437H2.187v.437zM3.719-1.797h-.5v1.625H.234V.25H6.72v-.422h-3zM1.03-3.907h2.157a1.491 1.491 0 0 1-.235.673c-.125.199-.289.382-.484.546-.262.211-.559.387-.89.532a4.11 4.11 0 0 1-.97.312c.059.074.125.153.188.235.07.074.129.136.172.187.258-.07.523-.164.797-.281a4.18 4.18 0 0 0 .765-.422c.196-.145.375-.305.531-.484a2.64 2.64 0 0 0 .422-.61c.102.242.25.461.438.656.183.188.394.356.625.5.226.157.469.293.719.407.246.105.484.183.703.234.05-.07.11-.14.172-.203.058-.07.129-.145.203-.219a4.818 4.818 0 0 1-.922-.265 3.54 3.54 0 0 1-.844-.5 2.262 2.262 0 0 1-.562-.563 1.45 1.45 0 0 1-.25-.734h2.156v-.438h-4.89zm0 0"/></symbol><symbol overflow="visible" id="aV"><path d="M3.797 1.36c.777 0 1.375-.133 1.781-.391.414-.25.625-.57.625-.953s-.21-.707-.625-.97c-.406-.257-1.004-.39-1.781-.39-.781 0-1.379.133-1.781.39-.407.263-.61.587-.61.97 0 .382.203.703.61.953.402.258 1 .39 1.78.39zM1.89.015c0-.301.175-.536.53-.704.352-.164.813-.25 1.376-.25.27 0 .52.028.75.079.238.043.441.105.61.187a.992.992 0 0 1 .405.297.63.63 0 0 1 .141.39.63.63 0 0 1-.14.391c-.094.114-.231.211-.407.297a2.358 2.358 0 0 1-.593.188c-.231.039-.481.062-.75.062-.575 0-1.04-.09-1.391-.265C2.066.52 1.89.292 1.89.015zm2.062-2.22v-3.405h-.469v1.203H1.313V-5.61h-.47v3.406zm-.469-.421H1.313v-1.36h2.171zm2.11-3.25v4.453h.5v-4.453zm0 0"/></symbol><symbol overflow="visible" id="aW"><path d="M6.703-1.484v-.422H.25v.422h3v2.703h.516v-2.703zm-2.969-3.86v-.343h-.53v.343c0 .305-.083.582-.235.828a2.49 2.49 0 0 1-.61.641c-.25.18-.535.332-.843.453a5.516 5.516 0 0 1-.954.297c.06.063.13.137.204.219.082.086.144.148.187.187.258-.07.516-.16.766-.265a4.5 4.5 0 0 0 .718-.375c.215-.133.415-.297.594-.485a2.68 2.68 0 0 0 .453-.656c.102.242.243.46.422.656.184.188.39.352.61.485a3.5 3.5 0 0 0 .75.406c.257.105.504.183.734.234l.156-.219c.059-.07.13-.14.203-.203a5.364 5.364 0 0 1-.953-.28 3.54 3.54 0 0 1-.843-.5 2.205 2.205 0 0 1-.61-.626 1.473 1.473 0 0 1-.219-.797zm0 0"/></symbol><symbol overflow="visible" id="O"><path d="M7.172-7.266v3.344c0 .406.031.738.094.985.058.242.16.359.296.359.133 0 .258-.16.375-.485.122-.32.188-.769.188-1.343v-2.86c0-.144.004-.27.016-.375.02-.113.035-.207.046-.28a.348.348 0 0 0-.046-.188.432.432 0 0 0-.172-.141 4.645 4.645 0 0 0-.297-.078c-.137-.027-.277-.063-.422-.094a8.745 8.745 0 0 0-.39-.047 2.338 2.338 0 0 1-.235-.047c-.344-.02-.527.024-.547.125-.023.094.067.184.266.266.133.063.25.121.343.172.102.043.192.098.266.156.059.063.113.137.156.219.04.086.063.191.063.312zm-1.719.125a1.66 1.66 0 0 1-.203-.015 3.711 3.711 0 0 0-.313-.016c-.117 0-.226.008-.328.016a.503.503 0 0 0-.234.047c-.148.074-.398.12-.75.14-.355.012-.727.016-1.11.016h-.343c-.106-.008-.207-.016-.297-.016A3.106 3.106 0 0 1 1.625-7c-.063-.008-.117-.016-.156-.016-.305-.02-.477.004-.516.063-.031.062.055.168.266.312.238.157.43.262.578.313.144.043.266.062.36.062.09 0 .171-.015.234-.046.07-.04.14-.079.203-.11h.047c.027-.008.066-.02.109-.031.05-.008.102-.016.156-.016.051-.008.102-.02.156-.031.07 0 .16-.004.266-.016.102-.007.211-.02.328-.03.121-.009.25-.02.375-.032.121-.02.25-.035.375-.047a9.593 9.593 0 0 1-.86 1.563c-.323.48-.66.917-1 1.312a8.358 8.358 0 0 1-1.03 1.016 6.282 6.282 0 0 1-.86.609c-.117.063-.117.133 0 .203.114.063.328.024.64-.125.278-.121.599-.316.954-.578.363-.258.727-.57 1.094-.938a11.215 11.215 0 0 0 1.969-2.61c.039-.089.093-.186.156-.28.07-.102.125-.203.156-.297.04-.082.043-.156.016-.219-.024-.07-.086-.129-.188-.172zm1.5 5.454L6.937.828H4.313l-.046-2.515zm1.203 2.734C8.156.984 8.102.93 8 .89a1.424 1.424 0 0 0-.234-.063L8-1.469a.8.8 0 0 1 .063-.234c.039-.07.078-.14.109-.203a.216.216 0 0 0 0-.157c-.012-.05-.07-.101-.172-.156a1.208 1.208 0 0 0-.594-.078c-.23.024-.414.055-.547.094-.054.031-.21.055-.468.062-.25.012-.524.016-.813.016H4.375a1.491 1.491 0 0 1-.453-.078c-.106-.008-.227-.02-.36-.031a2.22 2.22 0 0 0-.437-.016c-.281.012-.465.074-.547.188-.074.105-.058.167.047.187.07.031.145.059.219.078.07.024.133.05.187.078.051.024.094.059.125.11.028.054.051.117.063.187l.156 2.625c0 .195.04.348.125.453.09.114.191.172.297.172.082 0 .176-.055.281-.156a.675.675 0 0 0 .203-.36H5.641c.332 0 .675-.007 1.03-.015h1.016a.792.792 0 0 0 .329-.063c.09-.043.14-.105.14-.187zm0 0"/></symbol><symbol overflow="visible" id="P"><path d="M4.469-1.844c-.555.063-1.008.262-1.36.594-.343.324-.515.73-.515 1.219 0 .246.054.484.172.703.113.226.27.426.468.594.196.164.43.296.704.39a2.983 2.983 0 0 0 1.812 0c.27-.086.504-.21.703-.375.195-.168.352-.367.469-.593.113-.22.172-.461.172-.72 0-.425-.164-.812-.485-1.155-.312-.34-.746-.555-1.296-.641v-.047-.047a.73.73 0 0 1 .03-.11c.009-.027.02-.062.032-.093 0-.02-.008-.04-.016-.063a.19.19 0 0 0-.03-.093c-.032-.028-.138-.055-.313-.078-.168-.028-.309-.051-.422-.063-.125 0-.215.04-.266.11-.043.074-.039.128.016.156.082.054.14.105.172.156.039.043.035.086-.016.125l-.016.016-.015.015zm.39 3.063a1.21 1.21 0 0 1-.906-.375c-.23-.25-.344-.57-.344-.953s.114-.704.344-.954a1.21 1.21 0 0 1 .906-.375c.364 0 .657.145.875.422.227.274.344.575.344.907 0 .382-.117.703-.344.953-.218.246-.511.375-.875.375zm-.515-4.563h-2.39c-.18-.008-.34-.02-.485-.031-.149-.008-.29-.02-.422-.031a4.097 4.097 0 0 1-.422-.047c-.313-.008-.508.035-.578.125-.07.086.031.191.312.312.426.211.758.348 1 .407.239.054.438.062.594.03.145-.019.27-.054.375-.108.113-.06.25-.098.406-.11.02 0 .227-.02.625-.062.403-.04 1.032-.067 1.875-.079h1.891c.246 0 .477.008.688.016.207.012.398.024.578.031.3.024.578.016.828-.015.258-.028.394-.133.406-.313.008-.113-.07-.207-.234-.281a1.776 1.776 0 0 0-.594-.125 4.386 4.386 0 0 0-.781.016 2.81 2.81 0 0 0-.704.171A1.077 1.077 0 0 1 7-3.358a6.496 6.496 0 0 1-.5.015 9.35 9.35 0 0 1-.578.016 8.28 8.28 0 0 1-.547-.016v-1.328l1.922-.016c.176 0 .312-.03.406-.093a.377.377 0 0 0 .188-.235c.007-.07-.028-.148-.11-.234a.786.786 0 0 0-.39-.203 1.332 1.332 0 0 0-.297-.031 2.758 2.758 0 0 0-.36 0 3.672 3.672 0 0 0-.343.046.639.639 0 0 0-.22.063c-.124.086-.269.145-.421.172a1.804 1.804 0 0 1-.313.047l-1.859.015a.369.369 0 0 1-.234-.078c-.074-.058-.11-.16-.11-.297v-1.718L7.22-7.25a.925.925 0 0 0 .422-.078.371.371 0 0 0 .187-.219c.008-.082-.027-.164-.11-.25-.085-.082-.222-.148-.405-.203a3.176 3.176 0 0 0-.297-.016 2.758 2.758 0 0 0-.36 0 3.681 3.681 0 0 0-.328.047.744.744 0 0 0-.219.047.74.74 0 0 1-.406.156 4.359 4.359 0 0 1-.328.016l-2.11.031c-.273-.05-.538-.097-.796-.14-.25-.04-.465-.051-.64-.032a1.448 1.448 0 0 0-.407.094c-.074.031-.11.074-.11.125 0 .043.024.086.079.125.05.031.117.055.203.063.215.074.367.144.453.203.09.062.14.195.14.39v1.422c0 .18.032.32.094.422.07.106.16.192.266.25.101.055.219.09.344.11.132.023.27.03.406.03l1.047-.015zm0 0"/></symbol><symbol overflow="visible" id="Q"><path d="M4.375-7.719c-.555.094-1.008.32-1.36.672a1.704 1.704 0 0 0-.515 1.25c0 .281.055.543.172.781.121.23.289.434.5.61.207.18.453.32.734.422.29.105.614.156.969.156.34 0 .656-.047.938-.14.289-.102.539-.243.75-.423a1.801 1.801 0 0 0 .656-1.406c0-.457-.164-.863-.485-1.219-.324-.363-.773-.597-1.343-.703-.043-.008-.07-.02-.079-.031v-.078a.212.212 0 0 0 .016-.078.73.73 0 0 1 .031-.11.427.427 0 0 0-.015-.093.253.253 0 0 0-.016-.079.221.221 0 0 0-.125-.062A1.076 1.076 0 0 1 5-8.297a4.853 4.853 0 0 1-.25-.031c-.074-.008-.133-.016-.172-.016-.117 0-.195.04-.234.11-.043.074-.043.129 0 .156.07.062.129.117.172.156.039.043.035.09-.016.14a.2.2 0 0 1-.063.048.134.134 0 0 1-.062.015zm.5 3.282c-.387 0-.71-.133-.969-.407a1.428 1.428 0 0 1-.375-.984c0-.414.125-.766.375-1.047a1.25 1.25 0 0 1 .969-.438c.395 0 .71.153.953.454.246.293.375.636.375 1.03 0 .376-.129.708-.375.985-.25.274-.57.407-.953.407zm-.5 2.093V.031c0 .258.004.504.016.735.02.238.046.445.078.625.039.175.086.316.14.421.059.114.133.165.22.157.183 0 .331-.239.437-.703C5.379.805 5.43.18 5.422-.61v-1.75h1.734c.227 0 .438.007.625.015h.547c.29.024.555.016.797-.015.246-.028.383-.13.406-.297 0-.114-.082-.203-.234-.266a2.382 2.382 0 0 0-.594-.125c-.23-.02-.48-.012-.75.016a2.81 2.81 0 0 0-.703.172c-.086.043-.242.074-.469.093a13.37 13.37 0 0 1-.703.016h-.734c-.23-.008-.403-.016-.516-.016H1.984c-.18-.007-.34-.02-.484-.03a9.952 9.952 0 0 1-.39-.032c-.126-.008-.27-.02-.423-.031-.292-.02-.48.011-.562.093-.086.086.023.196.328.329.402.199.723.324.953.374.239.043.43.055.578.032a1.02 1.02 0 0 0 .375-.094c.114-.059.254-.102.422-.125h.11c.07-.008.175-.02.312-.031.133-.008.3-.02.5-.031.195-.008.422-.02.672-.032zm0 0"/></symbol><symbol overflow="visible" id="aE"><path d="M7.234-7.266V.031c0 .258.004.504.016.735.008.238.035.445.078.625.02.175.055.316.11.421.05.114.125.165.218.157.184 0 .32-.239.407-.703.09-.461.132-1.086.124-1.875v-6.657c0-.144.004-.27.016-.375.02-.113.035-.207.047-.28a.348.348 0 0 0-.047-.188c-.023-.051-.074-.098-.156-.141a1.415 1.415 0 0 0-.297-.078c-.137-.027-.277-.063-.422-.094-.148-.02-.285-.035-.406-.047a1.36 1.36 0 0 1-.219-.047c-.344-.02-.535.024-.562.125-.024.094.07.184.28.266.122.063.24.121.345.172a.856.856 0 0 1 .25.156.47.47 0 0 1 .156.219c.039.086.062.191.062.312zM4.734-4.5v2.125l-2.265.063v-2.141zm.954 2.016v-3.75-.204a.75.75 0 0 0 0-.187.21.21 0 0 0-.063-.14.556.556 0 0 0-.172-.126c-.074-.02-.164-.039-.266-.062-.105-.02-.21-.04-.312-.063a5.374 5.374 0 0 1-.297-.03c-.094-.009-.164-.016-.203-.016a.89.89 0 0 0-.344.078c-.074.03-.117.066-.125.093 0 .043.02.086.063.125.039.032.094.067.156.094.082.031.16.067.234.094.07.031.133.066.188.094.058.043.11.09.14.14a.446.446 0 0 1 .047.203V-5l-2.265.063v-.985-.203-.14a.34.34 0 0 0-.094-.126.65.65 0 0 0-.156-.093 1.544 1.544 0 0 0-.266-.063 2.12 2.12 0 0 1-.297-.047 5.374 5.374 0 0 1-.297-.031c-.093-.008-.168-.016-.218-.016a.928.928 0 0 0-.36.079c-.062.03-.101.07-.11.109-.01.031 0 .07.032.11a.29.29 0 0 0 .125.062c.195.074.36.16.485.25a.423.423 0 0 1 .187.36v3.359c0 .355.047.605.14.75.102.148.208.214.313.203a.435.435 0 0 0 .344-.188 1.13 1.13 0 0 0 .172-.297l2.25-.047a.61.61 0 0 0 .125.25c.07.094.172.141.297.141.12 0 .238-.098.343-.297a1.76 1.76 0 0 0 .204-.687zm0 0"/></symbol><symbol overflow="visible" id="aF"><path d="M7.578-7.266V.031c0 .258.004.504.016.735.008.238.031.445.062.625.02.175.055.316.11.421.05.114.117.165.203.157.183 0 .328-.239.422-.703.09-.461.132-1.086.125-1.875v-6.657c0-.144.004-.27.015-.375a1.75 1.75 0 0 0 .031-.28.348.348 0 0 0-.046-.188c-.024-.051-.075-.098-.157-.141a1.415 1.415 0 0 0-.296-.078c-.126-.027-.258-.063-.391-.094-.149-.02-.277-.035-.39-.047a2.338 2.338 0 0 1-.235-.047c-.336-.02-.512.024-.531.125-.024.094.066.184.265.266l.313.172c.101.043.191.098.265.156a.73.73 0 0 1 .157.219c.039.086.062.191.062.312zM3.781-3.39v.016c.008.012.024.016.047.016.238.156.43.261.578.312.153.043.282.063.375.063a.316.316 0 0 0 .188-.047l.14-.078a.788.788 0 0 1 .157-.063c.09-.027.195-.055.312-.078.008-.008.04-.016.094-.016h.187v2.922c0 .25.004.489.016.719.008.238.031.445.063.625.027.184.07.332.125.438.058.101.132.148.218.14.164 0 .297-.238.39-.703.09-.46.134-1.082.126-1.875v-5.766c0-.144.004-.27.016-.375a1.75 1.75 0 0 0 .03-.28.446.446 0 0 0-.046-.204.265.265 0 0 0-.14-.125c-.075-.02-.18-.047-.313-.078-.125-.027-.258-.063-.39-.094a8.745 8.745 0 0 0-.391-.047 1.36 1.36 0 0 1-.22-.047c-.335-.02-.511.024-.53.125-.024.094.066.184.265.266l.313.172a.856.856 0 0 1 .25.156c.07.063.125.137.156.219a.68.68 0 0 1 .062.312v3.047c-.148.012-.304.024-.468.031H4.469a1.64 1.64 0 0 1-.36-.03h-.03-.11c.152-.278.304-.567.453-.86.152-.29.285-.57.39-.844.04-.082.083-.176.125-.281.051-.102.086-.203.11-.297a.54.54 0 0 0 0-.25.253.253 0 0 0-.172-.172c-.023 0-.082-.004-.172-.016a3.587 3.587 0 0 0-.297-.015c-.117 0-.226.008-.328.016a.503.503 0 0 0-.234.046c-.074.032-.16.059-.25.079-.086.023-.192.039-.313.046h-.875c-.23 0-.445-.004-.64-.015a3.026 3.026 0 0 1-.375-.032c-.293-.019-.461.008-.5.079-.043.074.035.18.234.312.215.149.398.246.547.297.144.055.266.086.36.094.09 0 .171-.016.234-.047.058-.027.129-.063.203-.094l.031-.016c.02-.007.05-.019.094-.03.05-.009.101-.02.156-.032.05-.008.102-.02.156-.031.121-.02.254-.032.39-.032.134-.007.321-.023.563-.046-.086.273-.18.543-.28.812-.095.274-.2.524-.313.75a1.5 1.5 0 0 1-.235.078 1.98 1.98 0 0 1-.265.016c-.094.012-.2.023-.313.031a3.337 3.337 0 0 1-.36.016 5.87 5.87 0 0 1-.624.031 3.677 3.677 0 0 1-.39-.031c-.306-.008-.474.027-.5.11-.032.073.054.175.265.296.226.125.414.215.562.266.145.043.266.062.36.062.09 0 .164-.015.218-.047l.188-.125h.031a.567.567 0 0 0 .11-.047.67.67 0 0 0 .14-.015c.05-.02.11-.04.172-.063.05 0 .113-.004.188-.015.082-.02.156-.04.218-.063A12.06 12.06 0 0 1 1.86-1.922c-.406.524-.777.914-1.109 1.172a.468.468 0 0 0-.14.172c-.012.055.003.09.046.11.04.03.114.038.219.015.113-.027.254-.098.422-.203.465-.278.914-.672 1.344-1.172.425-.496.804-1.02 1.14-1.563zm0 0"/></symbol><symbol overflow="visible" id="aG"><path d="M2.719-6.125a2.314 2.314 0 0 0-1.36.719 1.984 1.984 0 0 0-.53 1.39c0 .305.054.586.171.844.121.262.29.488.5.672.207.2.457.355.75.469.29.105.61.156.953.156.352 0 .676-.05.969-.156.289-.114.535-.266.734-.453a1.95 1.95 0 0 0 .485-.672 2.07 2.07 0 0 0-.297-2.188c-.324-.394-.77-.644-1.328-.75-.043-.02-.07-.039-.079-.062a.173.173 0 0 1 0-.11c.008-.027.02-.062.032-.093a.644.644 0 0 0 .015-.125v-.094a.19.19 0 0 0-.03-.094l-.142-.047a.69.69 0 0 0-.203-.031 1.123 1.123 0 0 0-.25-.031 1.507 1.507 0 0 1-.203-.032c-.117 0-.199.04-.25.11-.043.074-.039.129.016.156a.305.305 0 0 0 .094.094.23.23 0 0 1 .062.078c.02.023.031.05.031.078 0 .024-.011.05-.03.078l-.063.063a.14.14 0 0 1-.047.031zM3.203-2.5a1.25 1.25 0 0 1-1-.453c-.25-.309-.375-.692-.375-1.14 0-.458.125-.833.375-1.126.258-.3.594-.453 1-.453a1.266 1.266 0 0 1 1 .469c.113.156.203.336.266.531.07.188.11.383.11.578 0 .45-.134.832-.391 1.14-.25.306-.583.454-.985.454zM7.25-7.266V.031c0 .258.004.504.016.735.007.238.03.445.062.625.027.175.07.316.125.421.05.114.117.165.203.157.196 0 .336-.239.422-.703.09-.461.133-1.086.125-1.875v-6.657c0-.144.004-.27.016-.375.02-.113.035-.207.047-.28a.348.348 0 0 0-.047-.188c-.024-.051-.074-.098-.156-.141a1.892 1.892 0 0 0-.313-.078c-.125-.027-.27-.063-.422-.094a8.745 8.745 0 0 0-.39-.047c-.125-.02-.2-.035-.22-.047-.343-.02-.534.024-.562.125-.031.094.055.184.266.266.133.063.25.121.344.172a.856.856 0 0 1 .25.156c.07.055.129.129.171.219.04.086.063.191.063.312zm0 0"/></symbol><symbol overflow="visible" id="aI"><path d="M2.438-6.75c-.532.074-.965.293-1.297.656a1.8 1.8 0 0 0-.5 1.282c0 .28.05.542.156.78.113.243.27.45.469.626.207.18.445.32.718.422.27.105.579.156.922.156.332 0 .633-.047.906-.14.278-.102.516-.243.704-.423a1.8 1.8 0 0 0 .453-.625c.113-.238.172-.504.172-.796 0-.458-.16-.868-.47-1.235-.304-.371-.726-.61-1.265-.703-.023-.02-.031-.04-.031-.063v-.078l.031-.093a.73.73 0 0 1 .031-.11c0-.039-.007-.07-.015-.093a.19.19 0 0 0-.031-.094 2.48 2.48 0 0 1-.125-.047 1.42 1.42 0 0 0-.22-.047c-.073-.008-.16-.02-.25-.031-.085-.008-.151-.016-.202-.016-.117 0-.2.04-.25.11-.043.074-.04.128.015.156.028.031.063.066.094.093.027.024.055.043.078.063a.427.427 0 0 1 .016.094c0 .023-.012.05-.031.078a1027519668662.77 1027519668662.77 0 0 1-.079.078zm.468 3.313c-.375 0-.683-.133-.922-.407-.242-.277-.359-.633-.359-1.062 0-.414.117-.766.36-1.047a1.166 1.166 0 0 1 1.421-.297c.153.086.29.2.406.344.114.125.204.285.266.468.059.18.094.356.094.532 0 .43-.129.785-.375 1.062a1.14 1.14 0 0 1-.89.406zM7.97.671A3.225 3.225 0 0 0 7.687.64c-.117 0-.226.004-.328.015-.117.008-.222.02-.312.031a.509.509 0 0 0-.203.079.718.718 0 0 1-.375.156c-.137.02-.262.031-.375.031L4.406.984a.388.388 0 0 1-.25-.093C4.094.836 4.063.742 4.063.609V-.766c0-.101.003-.195.015-.28a.874.874 0 0 0 0-.204.209.209 0 0 0-.094-.14.515.515 0 0 0-.234-.094 7.563 7.563 0 0 0-1.219-.047c-.219.031-.367.074-.437.125-.063.043-.09.086-.078.125.007.054.05.101.125.14.082.032.164.059.25.079.214.042.375.105.468.187.102.074.157.215.157.422V.625c0 .34.109.563.328.656.215.09.469.14.75.14l3.797-.03a.74.74 0 0 0 .39-.094c.102-.055.164-.121.188-.203.02-.074-.012-.153-.094-.235-.086-.074-.223-.136-.406-.187zm-.375-5.219v-2.719c0-.132.004-.254.015-.359.008-.113.02-.207.032-.281a.446.446 0 0 0-.047-.203c-.024-.051-.074-.094-.157-.125a1.805 1.805 0 0 0-.296-.094 11.656 11.656 0 0 0-.422-.078 4.023 4.023 0 0 0-.39-.063 1.238 1.238 0 0 1-.235-.031c-.344-.02-.535.02-.563.11-.023.093.07.19.282.28.12.063.238.122.343.172.102.043.192.098.266.157a.758.758 0 0 1 .156.203c.04.086.063.191.063.312v5.391c0 .43.02.79.062 1.078.05.281.156.418.313.406.164 0 .3-.18.406-.546.113-.372.172-.86.172-1.454v-1.765h1.578c.164 0 .297-.024.39-.078.102-.051.16-.118.172-.204.02-.07-.011-.144-.093-.218a.848.848 0 0 0-.391-.188 3.456 3.456 0 0 0-.547-.015c-.21 0-.336.023-.375.062a.435.435 0 0 1-.156.125c-.063.024-.129.043-.188.063a.856.856 0 0 1-.203.046c-.062 0-.129.008-.187.016zm0 0"/></symbol><symbol overflow="visible" id="ad"><path d="M4.047-1.36H.422v1.032h11.031V-1.36H5.328v-4.297H4.047zm5-1.327c.226-.715.39-1.41.484-2.079.09-.664.14-1.273.14-1.828v-1.89c0-.301-.07-.516-.202-.641-.125-.121-.356-.188-.688-.188H2v1.016h6.188c.09 0 .148.02.171.047a.35.35 0 0 1 .032.172v1.469c0 .543-.051 1.148-.141 1.812a14.164 14.164 0 0 1-.39 1.875zm0 0"/></symbol><symbol overflow="visible" id="af"><path d="M6.86-.469v-2.687h4.593v-1.031H.422v1.03h5.14v2.688zM2.03-1.829v2.97c0 .332.063.566.188.703.133.144.394.218.781.218h6.938V1.048H3.516c-.086 0-.145-.02-.172-.047C3.32.969 3.313.91 3.313.828v-2.656zm1.422-6.968H8.36v2.25H3.703c-.105 0-.176-.016-.203-.047-.031-.039-.047-.101-.047-.187zM2.172-6.453c0 .355.078.598.234.719.153.125.39.187.703.187h6.547v-4.25H2.172zm0 0"/></symbol></defs><g fill="#393536"><use xlink:href="#a" x="42.468" y="48.426"/><use xlink:href="#b" x="48.041" y="48.426"/><use xlink:href="#c" x="53.614" y="48.426"/></g><g fill="#231f20"><use xlink:href="#d" x="74.885" y="47.763"/><use xlink:href="#e" x="82.886" y="47.763"/><use xlink:href="#f" x="85.492" y="47.763"/><use xlink:href="#g" x="88.099" y="47.763"/><use xlink:href="#f" x="96.1" y="47.763"/><use xlink:href="#h" x="98.706" y="47.763"/></g><g clip-path="url(#i)"><path d="M-15.57 410.852h1221.663" fill="none" stroke-width=".499395" stroke="#cabfbb" stroke-dasharray="2.002,2.002"/></g><use xlink:href="#j" x="192.522" y="326.117" fill="#8a8e98"/><g fill="#33459a"><use xlink:href="#k" x="202.026" y="326.716"/><use xlink:href="#l" x="213.562" y="326.716"/><use xlink:href="#m" x="225.098" y="326.716"/></g><g fill="#231f20"><use xlink:href="#n" x="192.522" y="343.3"/><use xlink:href="#o" x="199.42" y="343.3"/><use xlink:href="#p" x="206.318" y="343.3"/><use xlink:href="#q" x="209.728" y="343.3"/><use xlink:href="#r" x="213.138" y="343.3"/><use xlink:href="#s" x="220.036" y="343.3"/><use xlink:href="#t" x="222.284" y="343.3"/><use xlink:href="#o" x="224.532" y="343.3"/><use xlink:href="#u" x="231.43" y="343.3"/><use xlink:href="#v" x="234.84" y="343.3"/><use xlink:href="#r" x="238.25" y="343.3"/><use xlink:href="#t" x="245.148" y="343.3"/><use xlink:href="#w" x="247.396" y="343.3"/><use xlink:href="#x" x="254.294" y="343.3"/><use xlink:href="#y" x="261.192" y="343.3"/><use xlink:href="#z" x="268.09" y="343.3"/></g><g fill="#231f20"><use xlink:href="#n" x="192.522" y="355.702"/><use xlink:href="#o" x="199.42" y="355.702"/><use xlink:href="#A" x="206.318" y="355.702"/><use xlink:href="#r" x="209.728" y="355.702"/><use xlink:href="#t" x="216.626" y="355.702"/><use xlink:href="#B" x="218.874" y="355.702"/><use xlink:href="#C" x="225.772" y="355.702"/><use xlink:href="#D" x="232.67" y="355.702"/><use xlink:href="#o" x="239.568" y="355.702"/><use xlink:href="#E" x="246.466" y="355.702"/><use xlink:href="#t" x="253.364" y="355.702"/><use xlink:href="#z" x="255.611" y="355.702"/><use xlink:href="#F" x="262.509" y="355.702"/><use xlink:href="#s" x="269.407" y="355.702"/><use xlink:href="#t" x="271.655" y="355.702"/><use xlink:href="#D" x="273.903" y="355.702"/><use xlink:href="#o" x="280.801" y="355.702"/><use xlink:href="#E" x="287.699" y="355.702"/><use xlink:href="#G" x="294.597" y="355.702"/><use xlink:href="#H" x="301.495" y="355.702"/><use xlink:href="#t" x="308.393" y="355.702"/></g><g fill="#231f20"><use xlink:href="#n" x="192.522" y="368.105"/><use xlink:href="#o" x="199.42" y="368.105"/><use xlink:href="#u" x="206.318" y="368.105"/><use xlink:href="#I" x="209.728" y="368.105"/><use xlink:href="#r" x="213.138" y="368.105"/><use xlink:href="#t" x="220.036" y="368.105"/><use xlink:href="#r" x="222.284" y="368.105"/><use xlink:href="#J" x="229.182" y="368.105"/><use xlink:href="#K" x="236.08" y="368.105"/><use xlink:href="#L" x="242.978" y="368.105"/><use xlink:href="#M" x="249.876" y="368.105"/><use xlink:href="#N" x="256.774" y="368.105"/><use xlink:href="#t" x="263.672" y="368.105"/><use xlink:href="#L" x="265.92" y="368.105"/><use xlink:href="#M" x="272.818" y="368.105"/><use xlink:href="#N" x="279.716" y="368.105"/><use xlink:href="#z" x="286.614" y="368.105"/></g><use xlink:href="#j" x="193.937" y="631.388" fill="#8a8e98"/><g fill="#33459a"><use xlink:href="#O" x="203.441" y="631.987"/><use xlink:href="#P" x="214.631" y="631.987"/><use xlink:href="#Q" x="225.821" y="631.987"/></g><use xlink:href="#n" x="193.937" y="649.07" fill="#231f20"/><use xlink:href="#t" x="200.835" y="649.07" fill="#231f20"/><use xlink:href="#t" x="200.835" y="649.07" fill="#231f20"/><g fill="#231f20"><use xlink:href="#R" x="200.835" y="649.07"/><use xlink:href="#S" x="207.733" y="649.07"/><use xlink:href="#T" x="214.631" y="649.07"/><use xlink:href="#U" x="221.529" y="649.07"/><use xlink:href="#V" x="228.427" y="649.07"/><use xlink:href="#W" x="235.325" y="649.07"/><use xlink:href="#H" x="242.223" y="649.07"/><use xlink:href="#X" x="249.121" y="649.07"/><use xlink:href="#Y" x="256.019" y="649.07"/><use xlink:href="#Z" x="258.461" y="649.07"/><use xlink:href="#aa" x="265.359" y="649.07"/><use xlink:href="#t" x="267.793" y="649.07"/><use xlink:href="#ab" x="270.04" y="649.07"/><use xlink:href="#ac" x="276.938" y="649.07"/></g><g fill="#fff"><use xlink:href="#ad" x="54.22" y="165.5"/><use xlink:href="#ae" x="66.106" y="165.5"/><use xlink:href="#af" x="70.301" y="165.5"/></g><use xlink:href="#j" x="365.225" y="326.713" fill="#8a8e98"/><g fill="#33459a"><use xlink:href="#ag" x="374.729" y="327.313"/><use xlink:href="#ah" x="386.265" y="327.313"/><use xlink:href="#ai" x="397.801" y="327.313"/></g><use xlink:href="#n" x="365.225" y="344.396" fill="#231f20"/><use xlink:href="#t" x="372.123" y="344.396" fill="#231f20"/><use xlink:href="#t" x="372.123" y="344.396" fill="#231f20"/><g fill="#231f20"><use xlink:href="#aj" x="372.123" y="344.396"/><use xlink:href="#ak" x="379.021" y="344.396"/><use xlink:href="#al" x="385.919" y="344.396"/><use xlink:href="#C" x="392.817" y="344.396"/><use xlink:href="#am" x="399.715" y="344.396"/><use xlink:href="#an" x="406.613" y="344.396"/><use xlink:href="#ao" x="413.511" y="344.396"/><use xlink:href="#ap" x="420.409" y="344.396"/><use xlink:href="#t" x="427.307" y="344.396"/><use xlink:href="#E" x="429.555" y="344.396"/><use xlink:href="#ao" x="436.453" y="344.396"/><use xlink:href="#ap" x="443.351" y="344.396"/><use xlink:href="#z" x="450.249" y="344.396"/><use xlink:href="#t" x="457.147" y="344.396"/><use xlink:href="#aq" x="459.395" y="344.396"/><use xlink:href="#t" x="466.293" y="344.396"/></g><use xlink:href="#t" x="468.539" y="344.396" fill="#231f20"/><g fill="#231f20"><use xlink:href="#ar" x="372.123" y="355.382"/><use xlink:href="#as" x="379.021" y="355.382"/><use xlink:href="#o" x="385.919" y="355.382"/><use xlink:href="#at" x="392.817" y="355.382"/><use xlink:href="#au" x="399.715" y="355.382"/><use xlink:href="#o" x="406.613" y="355.382"/><use xlink:href="#av" x="413.511" y="355.382"/><use xlink:href="#z" x="420.409" y="355.382"/></g><use xlink:href="#n" x="365.225" y="367.785" fill="#231f20"/><use xlink:href="#t" x="372.123" y="367.785" fill="#231f20"/><use xlink:href="#t" x="372.123" y="367.785" fill="#231f20"/><g fill="#231f20"><use xlink:href="#aw" x="372.123" y="367.785"/><use xlink:href="#t" x="379.021" y="367.785"/><use xlink:href="#ax" x="381.269" y="367.785"/><use xlink:href="#ay" x="388.167" y="367.785"/><use xlink:href="#o" x="395.065" y="367.785"/><use xlink:href="#at" x="401.963" y="367.785"/><use xlink:href="#az" x="408.861" y="367.785"/><use xlink:href="#aA" x="415.759" y="367.785"/><use xlink:href="#t" x="422.657" y="367.785"/></g><use xlink:href="#t" x="424.904" y="367.785" fill="#231f20"/><g fill="#231f20"><use xlink:href="#al" x="372.123" y="378.771"/><use xlink:href="#C" x="379.021" y="378.771"/><use xlink:href="#D" x="385.919" y="378.771"/><use xlink:href="#aB" x="392.817" y="378.771"/><use xlink:href="#au" x="399.715" y="378.771"/><use xlink:href="#at" x="406.613" y="378.771"/><use xlink:href="#aC" x="413.511" y="378.771"/><use xlink:href="#ar" x="420.409" y="378.771"/><use xlink:href="#aD" x="427.307" y="378.771"/><use xlink:href="#y" x="434.205" y="378.771"/><use xlink:href="#aA" x="441.103" y="378.771"/><use xlink:href="#t" x="448.001" y="378.771"/><use xlink:href="#aD" x="450.249" y="378.771"/><use xlink:href="#y" x="457.147" y="378.771"/></g><use xlink:href="#j" x="365.225" y="631.388" fill="#8a8e98"/><g fill="#33459a"><use xlink:href="#aE" x="374.729" y="631.987"/><use xlink:href="#aF" x="385.919" y="631.987"/><use xlink:href="#aG" x="397.109" y="631.987"/><use xlink:href="#aH" x="408.299" y="631.987"/><use xlink:href="#aI" x="413.094" y="631.987"/></g><use xlink:href="#n" x="365.225" y="649.07" fill="#231f20"/><use xlink:href="#t" x="372.123" y="649.07" fill="#231f20"/><use xlink:href="#t" x="372.123" y="649.07" fill="#231f20"/><g fill="#231f20"><use xlink:href="#ax" x="372.123" y="649.07"/><use xlink:href="#ay" x="379.021" y="649.07"/><use xlink:href="#aJ" x="385.919" y="649.07"/><use xlink:href="#E" x="392.817" y="649.07"/><use xlink:href="#aK" x="399.715" y="649.07"/><use xlink:href="#aL" x="406.613" y="649.07"/><use xlink:href="#aM" x="413.511" y="649.07"/><use xlink:href="#aN" x="420.409" y="649.07"/><use xlink:href="#aO" x="427.307" y="649.07"/><use xlink:href="#t" x="434.205" y="649.07"/><use xlink:href="#aO" x="436.453" y="649.07"/><use xlink:href="#z" x="443.351" y="649.07"/></g><use xlink:href="#n" x="365.225" y="661.472" fill="#231f20"/><use xlink:href="#t" x="372.123" y="661.472" fill="#231f20"/><use xlink:href="#t" x="372.123" y="661.472" fill="#231f20"/><g fill="#231f20"><use xlink:href="#aP" x="372.123" y="661.472"/><use xlink:href="#aQ" x="379.021" y="661.472"/><use xlink:href="#r" x="385.919" y="661.472"/><use xlink:href="#aR" x="392.817" y="661.472"/><use xlink:href="#aS" x="399.715" y="661.472"/><use xlink:href="#t" x="406.613" y="661.472"/><use xlink:href="#ar" x="408.861" y="661.472"/><use xlink:href="#aT" x="415.759" y="661.472"/><use xlink:href="#r" x="422.657" y="661.472"/><use xlink:href="#aR" x="429.555" y="661.472"/><use xlink:href="#t" x="436.453" y="661.472"/><use xlink:href="#aU" x="438.701" y="661.472"/><use xlink:href="#aV" x="445.599" y="661.472"/><use xlink:href="#aS" x="452.497" y="661.472"/><use xlink:href="#aW" x="459.395" y="661.472"/></g></svg>