<svg xmlns="http://www.w3.org/2000/svg" xmlns:xlink="http://www.w3.org/1999/xlink" width="793.701" height="1058.268" viewBox="0 0 595.276 793.701" version="1.2"><defs><symbol overflow="visible" id="a"><path d="M7.422 1.36v-7.985h-.734v2.938h-.954V-6.5H5V.984h.734v-3.953h.954V1.36zM2.938-4.626v-.813H4.28v-.625H.813v.625h1.359v.688c0 .48-.043.926-.125 1.328a4.915 4.915 0 0 1-.344 1.125 3.87 3.87 0 0 1-.64.938c-.25.28-.551.539-.891.765.05.043.11.086.172.125.07.031.133.067.187.094a17.48 17.48 0 0 0 .328.234c.176-.12.352-.28.532-.468.175-.196.347-.407.515-.625.145-.196.274-.407.39-.625a3.29 3.29 0 0 0 .25-.672c.052.219.13.43.235.625a4.693 4.693 0 0 0 .844 1.078c.164.156.332.289.5.39a1 1 0 0 1 .266-.25l.125-.125.156-.125a3.154 3.154 0 0 1-.797-.656 3.326 3.326 0 0 1-.547-.86 5.18 5.18 0 0 1-.297-.983 7.006 7.006 0 0 1-.094-1.188zm0 0"/></symbol><symbol overflow="visible" id="b"><path d="M6.078-6.625V-.75h.75v-3.266h1.11v-.64h-1.11v-1.969zm-.344 3.234a5.189 5.189 0 0 1-.562.094c-.242.031-.496.067-.766.094a19.67 19.67 0 0 1-.812.078 8.224 8.224 0 0 1-.703.031l-1.313.016v-2.547H4.61v-.64H.844v3.843H2.25c.227-.008.422-.015.578-.015.258-.008.531-.024.813-.047.277-.02.55-.047.812-.079.258-.027.5-.062.719-.093a3.59 3.59 0 0 0 .562-.11zm1.344 4.594v-.64H2.422v-2.016h-.75v2.656zm0 0"/></symbol><symbol overflow="visible" id="c"><path d="M7.11-2.313v-4.312h-.75v1.578H4.624v-1.312h-.719v1.187h-2.25v-1.187H.922v3.687h3.703V-4.39h1.734v2.079zm-3.204-1h-2.25V-4.53h2.25zM7.11 1.282v-3.234h-.75v.922H2.547v-.922h-.75V1.28zm-.75-.61H2.547V-.405h3.812zm0 0"/></symbol><symbol overflow="visible" id="d"><path d="M7.11-.75v-5.875h-.75V-.75zM.61-4.406c0 .281.05.554.156.812.101.25.242.477.421.672.196.18.422.324.672.438.258.117.551.171.875.171.301 0 .582-.054.844-.171.258-.114.485-.258.672-.438.184-.195.332-.422.438-.672a2.21 2.21 0 0 0 .156-.812c0-.29-.055-.563-.157-.813a2.292 2.292 0 0 0-.437-.687 2.083 2.083 0 0 0-.672-.438 2.102 2.102 0 0 0-.844-.172c-.324 0-.617.059-.875.172-.25.106-.476.254-.671.438-.18.199-.32.43-.422.687-.106.25-.157.524-.157.813zm.765 0c0-.403.113-.75.344-1.032.238-.289.578-.437 1.015-.437.426 0 .758.148 1 .438.239.28.36.628.36 1.03 0 .4-.121.739-.36 1.016-.242.282-.574.422-1 .422-.437 0-.777-.14-1.015-.422-.23-.277-.344-.617-.344-1.015zm5.969 5.61V.562H2.562v-1.985h-.75v2.625zm0 0"/></symbol><symbol overflow="visible" id="f"><path d="M7.047 1.36v-7.985H6.28v7.984zM4.687-.657v-5.469H.97v5.469zm-.734-.64H1.72V-5.47h2.234zm0 0"/></symbol><symbol overflow="visible" id="g"><path d="M7.203 1.36v-7.985H6.47v2.844h-.985V-6.5H4.75V.984h.734v-4.046h.985v4.421zm-2.75-2.75c-.094.023-.21.042-.344.062-.136.023-.289.039-.453.047-.168.023-.336.039-.5.047H2.72l-1.063.015V-3.03h2.157v-3.125H.921v.64h2.172v1.844H.922v3.11l1.547-.016c.383 0 .765-.02 1.14-.063.371-.039.657-.078.844-.109zm0 0"/></symbol><symbol overflow="visible" id="h"><path d="M7.203 1.36v-7.985h-.75v7.984zM1.031-4.376a1.965 1.965 0 0 0 .578 1.406c.196.188.426.336.688.438.258.105.547.156.86.156.3 0 .581-.05.843-.156.258-.102.484-.25.672-.438a1.92 1.92 0 0 0 .437-.625c.114-.246.172-.508.172-.781 0-.27-.058-.523-.172-.766a2.006 2.006 0 0 0-.437-.625A2.182 2.182 0 0 0 4-6.187a2.102 2.102 0 0 0-.844-.172c-.312 0-.601.058-.86.171a2.308 2.308 0 0 0-.687.422 1.961 1.961 0 0 0-.578 1.391zm.735 0c0-.371.117-.691.359-.953.246-.27.594-.406 1.031-.406.426 0 .758.136 1 .406.239.262.36.582.36.953 0 .375-.121.7-.36.969-.242.261-.574.39-1 .39-.437 0-.785-.129-1.031-.39a1.399 1.399 0 0 1-.36-.969zm4.406 3.016a7.804 7.804 0 0 1-.688.093c-.28.032-.586.059-.906.079-.324.023-.637.042-.937.062a8.814 8.814 0 0 1-.688.031 4.92 4.92 0 0 1-.515.016H.609v.656s.086.008.266.016h1.266c.214 0 .367-.004.453-.016.363 0 .722-.008 1.078-.031.351-.02.687-.047 1-.078.308-.028.594-.063.844-.094a9.75 9.75 0 0 0 .656-.094zm0 0"/></symbol><symbol overflow="visible" id="i"><path d="M8.047-3.813v-.671H6.922v-2.141h-.766V-1.5h.766v-2.313zM4.14-6.046v-.594H1.687v.594zm1.14 1.203v-.593H.594v.593zM.921-3.078c0 .18.048.351.141.515.102.157.239.293.407.407.183.125.398.226.64.297.246.062.52.093.813.093.621 0 1.117-.125 1.484-.375.364-.257.547-.57.547-.937 0-.363-.183-.676-.547-.938-.355-.257-.847-.39-1.468-.39-.305 0-.583.039-.829.11-.25.062-.464.16-.64.28-.18.118-.317.258-.407.422-.093.168-.14.34-.14.516zm.782-.016c0-.215.11-.39.328-.515.227-.133.531-.204.906-.204.383 0 .688.067.907.188.215.125.328.305.328.531 0 .23-.113.414-.328.547-.219.137-.524.203-.906.203-.376 0-.68-.062-.907-.187a.625.625 0 0 1-.328-.563zm5.219 4.5v-2.515h-5.36v.625h4.579v1.89zm0 0"/></symbol><symbol overflow="visible" id="j"><path d="M7.11-.75v-5.875h-.75v.922H4.421a2.105 2.105 0 0 0-1.703-.844 2.076 2.076 0 0 0-1.531.64 1.962 1.962 0 0 0-.438.673c-.094.261-.14.535-.14.812 0 .293.046.57.14.828.102.25.25.477.438.672.183.188.41.34.671.453.258.106.547.156.86.156.37 0 .71-.078 1.015-.234.309-.164.555-.383.735-.656h1.89V-.75zm-.75-3.11H4.75a1.39 1.39 0 0 0 .063-.265c.019-.102.03-.203.03-.297a1.73 1.73 0 0 0-.03-.312 1.769 1.769 0 0 0-.063-.313h1.61zm-4.985-.562c0-.402.113-.75.344-1.031.238-.29.57-.438 1-.438.433 0 .77.149 1 .438.238.281.36.629.36 1.031 0 .406-.122.754-.36 1.031-.23.282-.567.422-1 .422-.43 0-.762-.14-1-.422-.23-.277-.344-.625-.344-1.03zm5.953 5.625v-.64H2.562v-1.985h-.75v2.625zm0 0"/></symbol><symbol overflow="visible" id="k"><path d="M7.781-2.156v-.64H6.484c.051-.227.098-.49.141-.782l.125-.906c.027-.32.055-.641.078-.954.027-.32.05-.625.063-.906H1.156v.64h4.938c-.024.481-.07.974-.14 1.47-.063.492-.15.972-.25 1.437H.265v.64h3.312V1.36h.75v-3.515zm0 0"/></symbol><symbol overflow="visible" id="m"><path d="M3.813-4.36v-.015h1.593v-.813h-4.25v.813h1.578v.016c-.023.18-.086.351-.187.515a2.406 2.406 0 0 1-.406.453c-.211.168-.446.317-.704.438a4.476 4.476 0 0 1-.796.297c.113.105.238.226.375.36.144.124.257.241.343.343.207-.07.407-.16.594-.266a4.05 4.05 0 0 0 .547-.344c.164-.113.316-.238.453-.374.133-.145.242-.29.328-.438.09.156.207.3.344.422.145.125.3.246.469.36.164.116.336.214.515.296.176.086.344.149.5.188.059-.09.145-.204.25-.329.114-.12.227-.242.344-.359-.2-.039-.41-.11-.625-.203a3.041 3.041 0 0 1-.594-.375 2.077 2.077 0 0 1-.453-.453 1.053 1.053 0 0 1-.218-.531zm2.25 3.126a6.179 6.179 0 0 1-.594.078c-.219.023-.446.039-.672.047-.219.011-.43.023-.625.03a7.116 7.116 0 0 1-.422.016V-2.25h-.969v1.203H.562v.86h1.844c.29 0 .614-.004.969-.016A22.94 22.94 0 0 0 4.422-.25c.34-.02.656-.04.937-.063.29-.019.524-.046.704-.078zm1.25 2.609v-8.016h-.954v8.016zm-2.86-7.11v-.796H2.016v.797zm0 0"/></symbol><symbol overflow="visible" id="n"><path d="M7.203-.75v-5.89h-.969v5.89zM3.328-5.39v-1.094H2.297v1.125c0 .304-.055.59-.156.859-.094.262-.23.496-.407.703-.199.262-.433.496-.703.703-.273.2-.558.367-.86.5.134.106.274.223.423.344.152.125.273.23.36.313.175-.09.359-.208.546-.344a5.69 5.69 0 0 0 .547-.453c.164-.153.316-.329.453-.516.145-.184.25-.375.313-.563.101.2.234.383.39.547.152.168.32.325.5.47.152.136.32.26.5.374.176.117.344.211.5.281.07-.101.164-.222.281-.359.121-.133.239-.266.344-.39a2.993 2.993 0 0 1-.75-.376 2.764 2.764 0 0 1-.64-.578 2.758 2.758 0 0 1-.454-.719 2.17 2.17 0 0 1-.156-.828zm4.063 6.609V.375H2.766v-1.734h-1v2.578zm0 0"/></symbol><symbol overflow="visible" id="o"><path d="M7.781-2.063v-.843h-3.25v-.906h2.39v-.829H2.204v-.984h4.64v-.828H1.235v2.64h2.297v.907H.281v.844zm-3.75 3.594c.965 0 1.707-.152 2.219-.453.508-.305.766-.676.766-1.11 0-.445-.258-.816-.766-1.109-.512-.289-1.254-.437-2.219-.437-.98 0-1.726.148-2.234.437-.512.293-.766.664-.766 1.11 0 .433.254.804.766 1.11.508.3 1.254.452 2.234.452zM2.156-.047c0-.246.16-.441.485-.578.332-.133.796-.203 1.39-.203.57 0 1.024.074 1.36.219.332.136.5.332.5.578 0 .246-.168.441-.5.578C5.055.68 4.6.75 4.03.75c-.593 0-1.058-.074-1.39-.219C2.316.395 2.156.2 2.156-.047zm0 0"/></symbol><symbol overflow="visible" id="p"><path d="M7.906-2.875v-.828H6.875v-.922h1.031v-.828H6.875v-1.188h-.969v5.063h.969v-1.297zM4.063-5.953v-.734H1.578v.734zm1.125 1.219v-.735H.468v.735zM.702-3.188c0 .18.05.348.156.5.114.149.266.274.454.376.183.117.41.21.671.28.258.063.54.095.844.095.645 0 1.16-.118 1.547-.36.383-.238.578-.539.578-.906 0-.34-.195-.629-.578-.86-.375-.226-.887-.343-1.531-.343-.313 0-.602.035-.86.093a2.298 2.298 0 0 0-.671.266c-.188.106-.34.238-.454.39a.794.794 0 0 0-.156.47zm3.235-.015c0 .2-.102.348-.297.437-.2.094-.465.141-.797.141-.344 0-.617-.047-.813-.14-.199-.09-.297-.235-.297-.422 0-.176.098-.317.297-.422.196-.102.469-.157.813-.157.332 0 .597.055.797.157.195.093.296.23.296.406zM7.046 0a.949.949 0 0 0-.219-.61 1.8 1.8 0 0 0-.578-.484 3.32 3.32 0 0 0-.922-.297A5.637 5.637 0 0 0 4.203-1.5c-.406 0-.789.04-1.14.11-.344.062-.649.16-.907.28a1.688 1.688 0 0 0-.61.47.927.927 0 0 0-.218.609c0 .238.067.453.203.64.145.196.348.364.61.5.257.133.562.235.906.297.351.07.734.11 1.14.11a6.6 6.6 0 0 0 1.11-.094 3.32 3.32 0 0 0 .922-.297c.258-.125.46-.285.61-.469.144-.187.218-.41.218-.656zm-4.64-.016c0-.132.046-.25.14-.343.101-.102.238-.18.406-.235a2.49 2.49 0 0 1 .563-.125c.214-.027.441-.047.671-.047.489 0 .899.067 1.235.188.34.125.516.316.516.562 0 .133-.055.25-.157.344a1.49 1.49 0 0 1-.375.25c-.168.059-.355.11-.562.14-.211.028-.426.048-.64.048-.243 0-.474-.02-.688-.047a2.957 2.957 0 0 1-.563-.14.952.952 0 0 1-.406-.25.472.472 0 0 1-.14-.345zm0 0"/></symbol><symbol overflow="visible" id="q"><path d="M7.797.484v-.843H4.53V-2h2.282v-4.422h-.97v1.313h-3.64v-1.313h-.969V-2h2.282v1.64H.28v.844zM5.844-2.844h-3.64v-1.422h3.64zm0 0"/></symbol><symbol overflow="visible" id="r"><path d="M1.078-6.203v.828h4.766c-.024.637-.074 1.3-.157 1.984-.085.68-.183 1.336-.296 1.97h.968l.172-1.141c.059-.415.114-.833.157-1.25.05-.426.093-.844.125-1.25.027-.415.054-.797.078-1.141zM7.797.484v-.843H3.844v-2.985h-.985v2.985H.281v.843zm0 0"/></symbol><symbol overflow="visible" id="s"><path d="M7.203 1.375v-8.016H6.22v2.313H4.53v.906H6.22v4.797zm-3.89-5.938v-1.765H2.296v1.719c0 .406-.05.793-.14 1.156-.087.355-.212.683-.376.984-.187.356-.43.68-.718.969a4.889 4.889 0 0 1-.97.75c.145.094.29.207.438.328.153.117.281.223.375.313.176-.114.364-.258.563-.438.195-.183.39-.39.578-.61a7.06 7.06 0 0 0 .453-.64 2.62 2.62 0 0 0 .313-.656c.09.23.21.457.359.672.152.218.32.426.5.61.164.187.336.362.515.515.176.148.348.273.516.375a5.852 5.852 0 0 1 .719-.656 5.685 5.685 0 0 1-.922-.704 3.572 3.572 0 0 1-.688-.89 3.265 3.265 0 0 1-.374-.922 4.443 4.443 0 0 1-.126-1.11zm0 0"/></symbol><symbol overflow="visible" id="u"><path d="M2.766-.547L1.125-6.125H.109L2.266.672h.968l2.172-6.797H4.391zm0 0"/></symbol><symbol overflow="visible" id="v"><path d="M2.438-3.688c.382 0 .675.18.874.532.196.355.297.82.297 1.39 0 .586-.101 1.051-.296 1.391-.2.344-.493.516-.876.516-.374 0-.664-.172-.859-.516-.187-.34-.281-.805-.281-1.39 0-.57.094-1.036.281-1.391.195-.352.484-.531.86-.531zm0-.75c-.7 0-1.227.247-1.579.735-.343.492-.515 1.137-.515 1.937C.344-.96.516-.32.859.156c.352.477.88.719 1.579.719.695 0 1.226-.242 1.593-.719.364-.476.547-1.117.547-1.922 0-.8-.183-1.445-.547-1.937-.367-.488-.898-.735-1.593-.735zm0 0"/></symbol><symbol overflow="visible" id="w"><path d="M.563-6.125V.672h.906v-6.797zm0 0"/></symbol><symbol overflow="visible" id="x"><path d="M.64-.047v1.203h1.25V-.047zm0 0"/></symbol><symbol overflow="visible" id="y"><path d="M2-6.25c-.605 0-1.059.324-1.36.969C.349-4.645.204-3.77.204-2.656c0 1.117.145 1.992.438 2.625.3.62.754.937 1.359.937.602 0 1.055-.316 1.36-.937.308-.633.468-1.508.468-2.625 0-1.114-.16-1.989-.469-2.625C3.055-5.926 2.602-6.25 2-6.25zm0 .797c.27 0 .488.258.656.766.164.5.25 1.18.25 2.03 0 .845-.086 1.52-.25 2.016-.168.5-.386.75-.656.75-.273 0-.488-.25-.64-.75-.157-.496-.235-1.171-.235-2.015 0-.852.078-1.531.234-2.031.153-.508.368-.766.641-.766zm0 0"/></symbol><symbol overflow="visible" id="z"><path d="M2.906-2.063c-.054.688-.18 1.231-.375 1.626-.187.386-.41.578-.656.578-.219 0-.395-.114-.516-.329a1.565 1.565 0 0 1-.203-.75H.25C.25-.344.395.113.688.438c.3.32.703.485 1.203.485.351 0 .656-.106.906-.313.258-.199.46-.476.61-.828.152-.351.269-.77.343-1.25.07-.476.11-1 .11-1.562 0-.477-.04-.914-.11-1.313a3.483 3.483 0 0 0-.344-1.015c-.148-.278-.34-.5-.578-.657a1.42 1.42 0 0 0-.844-.25c-.562 0-1.011.223-1.343.657-.336.437-.5 1.023-.5 1.75 0 .398.047.738.14 1.015.102.281.235.512.39.688.153.187.337.324.548.406.207.086.414.125.625.125a1.7 1.7 0 0 0 .562-.094c.184-.058.352-.176.5-.343zm-.953-.359c-.273 0-.488-.14-.64-.422-.157-.277-.235-.656-.235-1.125 0-.445.078-.812.234-1.094.153-.277.368-.421.641-.421.238 0 .445.148.625.437.176.281.266.645.266 1.078 0 .469-.09.848-.266 1.125-.168.281-.379.422-.625.422zm0 0"/></symbol><symbol overflow="visible" id="A"><path d="M3.422-7.313a.124.124 0 0 0-.031-.078.119.119 0 0 0-.079-.062.133.133 0 0 0-.078 0 .589.589 0 0 0-.078.047l-1.844.828a.934.934 0 0 0-.218.078c-.086.043-.125.102-.125.172 0 .043.008.082.031.11a.143.143 0 0 0 .094.03c.05 0 .113-.015.187-.046.07-.028.133-.051.188-.063l.687-.312c.051-.02.102-.04.156-.063a.364.364 0 0 1 .172-.047c.07 0 .118.024.141.063.02.043.031.097.031.156v5.078c0 .367-.043.617-.125.75-.074.125-.316.188-.719.188-.25 0-.414.011-.484.03-.074.013-.11.052-.11.11 0 .063.016.106.048.125.027.024.082.032.156.032h3.094c.058 0 .109-.008.14-.032.028-.02.047-.054.047-.11 0-.058-.02-.1-.047-.124a.278.278 0 0 0-.14-.031h-.329c-.375 0-.601-.079-.671-.235-.063-.164-.094-.41-.094-.734zm0 0"/></symbol><symbol overflow="visible" id="B"><path d="M1.828-3.625c-.375.18-.726.383-1.047.61-.324.23-.484.59-.484 1.078 0 .292.078.57.234.828.164.25.36.46.578.625.239.18.493.308.766.39.27.086.555.125.86.125.34 0 .68-.05 1.015-.156.332-.102.629-.266.89-.484a2.03 2.03 0 0 0 .532-.72 2.01 2.01 0 0 0 .203-.874c0-.527-.2-.957-.594-1.281a2.944 2.944 0 0 0-1.265-.657l.328-.171c.332-.153.633-.329.906-.516.277-.195.422-.508.422-.938 0-.59-.242-1.023-.719-1.296a2.967 2.967 0 0 0-1.5-.422c-.281 0-.566.043-.844.125-.28.074-.539.199-.765.375a2.03 2.03 0 0 0-.563.625c-.148.261-.219.539-.219.828 0 .492.16.87.485 1.14.32.274.695.489 1.125.641zm1.328-.672c-.094 0-.242-.031-.437-.094a3.164 3.164 0 0 1-.438-.156 2.052 2.052 0 0 1-.703-.516 1.21 1.21 0 0 1-.297-.828c0-.183.04-.367.125-.546.09-.184.207-.336.344-.454.152-.132.328-.234.516-.296.183-.06.379-.094.578-.094.445 0 .828.144 1.14.422.32.273.485.644.485 1.109 0 .242-.059.465-.172.672-.106.21-.262.383-.469.516a2.53 2.53 0 0 1-.328.171.968.968 0 0 1-.344.094zm-.328 4.11c-.242 0-.473-.032-.687-.094a1.445 1.445 0 0 1-.594-.375 1.77 1.77 0 0 1-.36-.547 1.608 1.608 0 0 1-.125-.625c0-.352.083-.656.25-.906.165-.246.391-.47.672-.657.051-.039.141-.093.266-.156a.764.764 0 0 1 .297-.094c.09 0 .27.051.531.141.27.094.445.168.531.219.278.136.516.324.704.562.195.242.296.528.296.86 0 .199-.039.394-.109.578a2.04 2.04 0 0 1-.297.515c-.18.22-.387.371-.625.454a2.13 2.13 0 0 1-.75.124zm0 0"/></symbol><symbol overflow="visible" id="C"><path d="M9.234 0c0 .434-.148.797-.437 1.078A1.48 1.48 0 0 1 7.75 1.5c-.406 0-.762-.145-1.063-.422C6.396.797 6.25.434 6.25 0c0-.426.145-.781.438-1.063.3-.289.656-.437 1.062-.437.402 0 .754.148 1.047.438.289.28.437.636.437 1.062zm1.438.031c0-.457-.121-.828-.36-1.11-.23-.288-.48-.507-.75-.655a2.731 2.731 0 0 0-.765-.297c-.23-.051-.344-.082-.344-.094 0-.05.008-.086.031-.11a.42.42 0 0 0 .047-.093c.02-.02.024-.04.016-.063a.62.62 0 0 0-.063-.171c-.054-.06-.164-.114-.328-.157a2.355 2.355 0 0 0-.531-.062c-.18-.008-.34.008-.484.047-.149.03-.22.101-.22.203 0 .043.016.082.048.11.027.023.062.038.093.046a.23.23 0 0 1 .079.11c.007.03-.012.081-.063.14-.012.012-.137.043-.375.094-.23.043-.488.144-.766.297-.28.148-.539.363-.765.64-.23.282-.344.66-.344 1.125 0 .34.07.656.219.938.152.289.363.539.625.75.27.207.582.367.937.484.352.113.735.172 1.141.172.395 0 .77-.066 1.125-.188a3 3 0 0 0 .922-.484c.27-.21.484-.46.64-.75.153-.281.235-.59.235-.922zM6.344-6.375c0 .375-.145.684-.422.922-.281.242-.59.36-.922.36-.355 0-.676-.118-.953-.36a1.165 1.165 0 0 1-.406-.922c0-.352.132-.648.406-.89.277-.247.598-.376.953-.376.332 0 .64.13.922.375.277.243.422.54.422.891zm-2.14-2.266a.199.199 0 0 0 .062.094c.039.024.078.05.109.078.027.031.047.07.047.11.008.03-.008.074-.047.125-.012.011-.129.039-.344.078-.218.031-.46.117-.718.25a2.494 2.494 0 0 0-.72.578c-.21.25-.312.586-.312 1 0 .555.196 1.004.594 1.344.402.343.89.57 1.453.671v.782c-.336.031-.652.054-.953.062h-.797c-.273 0-.539-.004-.797-.015a6.275 6.275 0 0 1-.703-.063c-.312-.02-.539-.008-.672.031-.136.043-.21.106-.219.188-.011.086.036.18.141.281.113.106.266.207.453.297.465.23.844.379 1.125.438.29.062.535.078.735.046.207-.02.39-.066.546-.14.153-.07.333-.13.532-.172.351-.02.773-.055 1.265-.11.496-.05 1.02-.113 1.563-.187.55-.082 1.094-.164 1.625-.25.539-.082 1.023-.172 1.453-.266 0 .438.031.793.094 1.063.058.273.18.402.36.39.226 0 .425-.222.593-.671.164-.446.25-1.079.25-1.891l-.016-.89h2.156c.239 0 .426-.04.563-.126.145-.09.227-.195.25-.312.02-.121-.027-.242-.14-.36-.106-.113-.29-.195-.547-.25a4.99 4.99 0 0 0-.75-.03c-.282 0-.461.038-.532.109a.886.886 0 0 1-.453.234 4.86 4.86 0 0 1-.547.094l-.015-3.719c0-.184.007-.348.03-.484.028-.145.048-.274.048-.391a.564.564 0 0 0-.047-.281c-.031-.082-.117-.156-.25-.219-.117-.027-.258-.066-.422-.11a9.998 9.998 0 0 0-.516-.109c-.187-.027-.355-.054-.5-.078a4.005 4.005 0 0 1-.28-.047c-.481-.027-.743.043-.782.219-.031.168.098.316.39.438.34.148.594.285.75.406.153.125.235.347.235.656l.062 5.703c-.5.094-1.097.18-1.78.25-.688.074-1.395.133-2.11.172v-.703A3.144 3.144 0 0 0 7.125-5a1.66 1.66 0 0 0 .594-1.313c0-.414-.106-.75-.313-1a2.546 2.546 0 0 0-.687-.578 2.902 2.902 0 0 0-.703-.265c-.2-.04-.297-.063-.297-.063a.18.18 0 0 1 .031-.11c.02-.038.04-.081.063-.124a.19.19 0 0 0 0-.094.353.353 0 0 0-.063-.14c.52 0 1.031.007 1.531.015.496 0 .875.008 1.125.016.145 0 .27-.024.375-.078.114-.059.18-.133.203-.22.028-.081.008-.171-.062-.265-.063-.101-.192-.195-.375-.281a4.197 4.197 0 0 0-.39-.094 2.203 2.203 0 0 0-.532-.062 4.57 4.57 0 0 0-.61.015 2.2 2.2 0 0 0-.577.141 2.196 2.196 0 0 1-.61.14c-.25.024-.523.04-.812.047-.293.012-.582.016-.86.016-.281 0-.52-.004-.703-.015-.418 0-.77-.004-1.047-.016-.281-.02-.55-.047-.797-.078a4.69 4.69 0 0 0-.468 0c-.149.011-.258.043-.329.094-.062.042-.07.113-.015.203.058.093.223.207.484.328.403.219.727.355.969.406.238.055.445.063.625.031.164-.027.316-.078.453-.14.145-.07.32-.114.531-.125h.079a.277.277 0 0 0 .093-.016h.078a.277.277 0 0 0 .094-.016zm1.968-1.312c.238-.008.426-.055.562-.14.133-.09.204-.192.204-.298 0-.09-.083-.18-.235-.265-.148-.082-.394-.133-.734-.156-.262 0-.489-.004-.672-.016a14.4 14.4 0 0 1-.531-.063 13.53 13.53 0 0 1-.485-.062c-.148-.027-.308-.063-.484-.094-.356-.058-.606-.035-.75.078-.137.106-.078.242.172.406.277.2.523.356.734.47.215.105.422.163.61.171.226.024.468.031.718.031.246-.007.547-.03.89-.062zm0 0"/></symbol><symbol overflow="visible" id="E"><path d="M9.14-9.688l-.124 2.954-4.157.062-.156-3zM4.813-5.89h.25c.145 0 .32-.004.532-.015h.734c.277-.008.567-.02.86-.032.3-.007.597-.015.89-.015.29-.008.563-.016.813-.016.246-.008.468-.015.656-.015.195-.008.344-.016.437-.016.215 0 .399-.031.547-.094.153-.058.235-.16.235-.297 0-.12-.075-.21-.22-.265a1.442 1.442 0 0 0-.327-.11l.39-2.703a.495.495 0 0 1 .125-.297.805.805 0 0 0 .172-.28.25.25 0 0 0 .031-.235c-.03-.082-.132-.164-.296-.25a1.484 1.484 0 0 0-.829-.11 3.423 3.423 0 0 0-.78.188c-.055.023-.302.039-.735.047a120.294 120.294 0 0 1-2.781.047h-.704c-.093 0-.21-.008-.343-.032a6.84 6.84 0 0 0-.438-.046l-.5-.063a4.25 4.25 0 0 0-.484-.031c-.375.031-.617.133-.719.297-.105.168-.07.273.11.312.113.031.218.067.312.094.102.031.191.07.266.11.07.023.129.066.171.124.04.063.067.145.079.235l.28 3.25c.028.293.114.504.25.625.134.125.25.187.345.187.113 0 .238-.05.375-.156a.993.993 0 0 0 .296-.438zM11.079.688c-.125-.012-.27-.024-.422-.032-.148 0-.3.004-.453.016-.156.008-.3.031-.422.062a.989.989 0 0 0-.297.11c-.148.101-.32.164-.515.187a5.11 5.11 0 0 1-.516.032l-3.031.03A.652.652 0 0 1 5.094 1C5 .937 4.954.824 4.954.672V-.891c0-.12.007-.242.03-.359.02-.113.032-.21.032-.297a.36.36 0 0 0-.125-.219c-.063-.058-.192-.109-.375-.14-.2-.028-.465-.051-.797-.063a6.025 6.025 0 0 0-.844 0c-.313.043-.523.102-.625.172-.094.063-.133.129-.11.188.02.062.083.129.188.187.113.063.223.106.328.125.309.055.531.133.656.234.122.106.188.278.188.516V.688c0 .476.148.785.453.921.309.133.66.204 1.047.204l5.938-.063c.238 0 .43-.043.578-.125.144-.086.222-.191.234-.313.02-.117-.023-.238-.125-.359-.105-.117-.29-.207-.547-.265zM6.594-3.438l.015 1.312c0 .543.024 1.02.079 1.422.058.406.203.605.421.594.215 0 .414-.25.594-.75.176-.508.266-1.164.266-1.97v-.624H10.25c.3 0 .582.008.844.015.27.012.52.024.75.032.195.023.394.031.594.031.207-.008.39-.031.546-.063a.864.864 0 0 0 .391-.14.403.403 0 0 0 .172-.313c.008-.175-.102-.312-.328-.406a2.595 2.595 0 0 0-.844-.203 5.575 5.575 0 0 0-1.063.047c-.374.043-.71.117-1 .219-.117.043-.332.074-.64.093-.313.024-.652.032-1.016.032-.367.011-.722.015-1.062.015-.336-.008-.582-.015-.735-.015H3.75a27.203 27.203 0 0 1-1.578-.047c-.211-.02-.41-.035-.594-.047a9.215 9.215 0 0 1-.594-.047 2.408 2.408 0 0 0-.53.031c-.15.032-.247.086-.298.157-.043.062-.031.144.032.234.07.086.222.18.453.281.59.274 1.054.445 1.39.516.34.062.617.078.828.047.207-.028.383-.082.532-.157.152-.07.343-.117.562-.14.008 0 .067-.004.172-.016.113-.008.281-.023.5-.047.215-.008.488-.023.813-.047.32-.02.707-.035 1.156-.046zm0 0"/></symbol><symbol overflow="visible" id="F"><path d="M7.719-7.047c0-.52-.13-.941-.375-1.266a2.987 2.987 0 0 0-.797-.75 2.901 2.901 0 0 0-.781-.359c-.243-.07-.36-.113-.36-.125 0-.058.004-.113.016-.156.02-.05.035-.098.047-.14a.407.407 0 0 0 .015-.11c.008-.04-.004-.086-.03-.14-.056-.083-.177-.15-.36-.204a2.67 2.67 0 0 0-.578-.094c-.2 0-.383.028-.547.079-.156.042-.235.128-.235.25 0 .042.02.082.063.109.039.031.082.07.125.11.039.03.066.073.078.124.008.043-.023.102-.094.172 0 .012-.129.05-.375.11-.25.062-.527.183-.828.359-.312.18-.598.43-.844.75-.242.324-.359.754-.359 1.281 0 .43.086.805.266 1.125.183.324.43.598.734.813a3.639 3.639 0 0 0 2.125.672c.363 0 .727-.055 1.094-.172a3.47 3.47 0 0 0 1.015-.5c.278-.215.516-.489.704-.813.183-.32.28-.695.28-1.125zm-1.407-.016a1.8 1.8 0 0 1-.484 1.25 1.59 1.59 0 0 1-1.203.516c-.492 0-.898-.172-1.219-.516a1.782 1.782 0 0 1-.484-1.25c0-.519.16-.953.484-1.296.32-.34.727-.516 1.219-.516.488 0 .89.176 1.203.516.32.343.484.777.484 1.296zm3.86-2.687l.078 4.047c0 .531.031.976.094 1.328.058.355.18.527.36.516.194 0 .382-.204.562-.61.183-.414.28-1.015.28-1.797l-.03-3.484c0-.184.007-.348.03-.484.028-.145.048-.274.048-.391a.564.564 0 0 0-.047-.281c-.031-.082-.117-.156-.25-.219-.117-.027-.258-.066-.422-.11a9.998 9.998 0 0 0-.516-.109c-.187-.027-.355-.054-.5-.078a4.005 4.005 0 0 1-.28-.047c-.481-.027-.743.043-.782.219-.031.168.098.316.39.438.34.148.594.285.75.406.153.125.235.347.235.656zM6.312 2l5.297-.047c.239 0 .426-.05.563-.14.144-.086.234-.184.265-.297.02-.118-.027-.23-.14-.344-.106-.117-.293-.207-.563-.266a5.359 5.359 0 0 0-.875-.031c-.343.02-.59.07-.734.156-.148.09-.316.149-.5.172a3.53 3.53 0 0 1-.531.047l-2.406.031a.6.6 0 0 1-.344-.11.378.378 0 0 1-.14-.312L6.187-.375h.89c.426 0 .879-.004 1.36-.016h1.39c.445-.007.785-.015 1.016-.015.258 0 .441-.031.547-.094.113-.059.171-.172.171-.328a.157.157 0 0 0-.062-.125.34.34 0 0 0-.125-.094 1.237 1.237 0 0 0-.172-.047.521.521 0 0 1-.125-.031l.328-1.469a.565.565 0 0 1 .094-.25.937.937 0 0 0 .11-.25c.019-.058.007-.129-.032-.203-.031-.07-.121-.133-.265-.187a1.705 1.705 0 0 0-.407-.079 2.355 2.355 0 0 0-.437-.015c-.149.012-.29.035-.422.062-.137.024-.242.051-.313.079-.062.054-.273.09-.625.109-.355.012-.738.015-1.14.015H6.844c-.344-.007-.535-.015-.563-.015h-.468c-.149-.008-.29-.02-.422-.031-.137-.008-.274-.02-.407-.032-.136-.02-.273-.039-.406-.062-.375-.02-.59.035-.64.156-.043.125.007.23.156.313.37.25.68.425.922.515.238.086.437.125.593.125.153 0 .274-.02.36-.062l.25-.11.047-.015c.039-.008.097-.02.171-.031.06-.02.13-.036.204-.047.082-.02.171-.036.265-.047h.532c.269-.008.566-.016.89-.016h.906c.29-.008.508-.015.657-.015L9.844-1.11c-.168.011-.446.023-.828.03-.375 0-.762.009-1.157.016H6.781c-.324 0-.52-.003-.578-.015a6.609 6.609 0 0 0-.937-.14 6.072 6.072 0 0 0-.907-.016c-.43.074-.652.18-.671.312-.024.137.16.254.546.344.184.043.32.105.407.187.09.086.14.2.14.344l.016 1c0 .238.039.426.125.563a.796.796 0 0 0 .344.328c.144.07.304.113.484.125.176.02.363.031.563.031zm0 0"/></symbol><symbol overflow="visible" id="G"><path d="M7.813-1.578L7.78.734H4.97l-.047-2.296zM9.155 1c0-.086-.058-.148-.172-.188A1.063 1.063 0 0 0 8.72.735l.25-2.14a.46.46 0 0 1 .094-.219c.058-.07.109-.14.14-.203a.36.36 0 0 0 0-.203c-.012-.07-.09-.14-.234-.203-.18-.082-.399-.106-.656-.079a4.143 4.143 0 0 0-.626.094c-.054.024-.214.04-.484.047-.273.012-.558.024-.86.031h-1.28c-.063 0-.137-.004-.22-.015-.085-.02-.183-.04-.296-.063L4.14-2.25a3.693 3.693 0 0 0-.485-.031c-.304.023-.508.105-.61.25-.105.136-.085.222.063.25.09.031.176.058.25.078.07.023.141.05.204.078.058.031.109.07.14.11.027.042.05.1.063.171l.171 2.516c.008.226.063.398.157.516.101.12.21.187.328.187.082 0 .18-.055.297-.156a.71.71 0 0 0 .218-.375h.532c.27 0 .582-.008.937-.016.34 0 .707-.008 1.094-.016h1.11A.834.834 0 0 0 9 1.234c.102-.054.156-.132.156-.234zM8.094-4.719c-.281.106-.653.211-1.11.313-.449.105-.914.199-1.39.281-.492.094-.957.168-1.39.219a8.585 8.585 0 0 1-1 .078.588.588 0 0 1-.267-.047c-.062-.04-.093-.129-.093-.266v-.968H5.28c.27-.008.461-.024.578-.047.196-.02.348-.067.454-.14.101-.083.156-.173.156-.266.008-.083-.028-.165-.11-.25a.742.742 0 0 0-.39-.172A6.442 6.442 0 0 0 5.234-6a1.311 1.311 0 0 0-.671.203.76.76 0 0 1-.313.094c-.148.023-.309.039-.484.047h-.532c-.168 0-.3-.004-.39-.016v-1.297h2.484c.309-.008.524-.023.64-.047.196-.02.348-.066.454-.14.101-.082.16-.172.172-.266.008-.082-.035-.164-.125-.25a.73.73 0 0 0-.375-.172c-.23-.02-.48-.023-.75-.015-.262.011-.48.082-.657.203-.074.043-.199.074-.375.093-.18.024-.367.032-.562.032h-.594a1.787 1.787 0 0 1-.312-.032c-.305-.039-.617-.07-.938-.093-.324-.028-.57-.035-.734-.016-.219.043-.371.09-.453.14-.074.055-.102.106-.078.157a.219.219 0 0 0 .109.156c.07.043.145.074.219.094.12.031.234.059.328.078.09.024.172.05.234.078.051.043.094.102.125.172a.633.633 0 0 1 .047.25v2.734c0 .376.07.622.219.735.152.105.394.156.719.156.3 0 .703-.039 1.203-.125a22.69 22.69 0 0 0 1.578-.344c.527-.12 1.039-.257 1.531-.406a10.99 10.99 0 0 0 1.156-.422v.188c0 .43.02.789.063 1.078.05.293.148.433.297.422.152 0 .304-.188.453-.563.152-.383.234-.89.234-1.515L9.11-7.797c0-.144.008-.273.032-.39.027-.114.046-.22.046-.313a.44.44 0 0 0-.03-.219c-.032-.07-.106-.129-.22-.172-.085-.027-.195-.062-.328-.093-.136-.028-.273-.063-.406-.094-.156-.02-.293-.035-.406-.047a2.338 2.338 0 0 1-.234-.047c-.375-.02-.583.04-.61.172-.031.137.067.254.297.344.277.125.484.242.61.344.12.093.187.269.187.515zm0 0"/></symbol><symbol overflow="visible" id="H"><path d="M7.469-.172c0 .363-.117.676-.344.938-.23.257-.523.39-.875.39-.375 0-.684-.133-.922-.39a1.37 1.37 0 0 1-.344-.938c0-.363.118-.676.36-.937.238-.27.539-.407.906-.407.352 0 .645.137.875.407.227.273.344.586.344.937zM6.25 1.86c.32 0 .625-.054.906-.156.29-.094.547-.23.766-.406.207-.18.375-.395.5-.64.121-.25.187-.528.187-.829 0-.402-.097-.726-.28-.969a2.047 2.047 0 0 0-.626-.562 2.453 2.453 0 0 0-.61-.25c-.179-.05-.265-.078-.265-.078 0-.051.004-.086.016-.11a.168.168 0 0 0 .031-.093c.02-.02.023-.04.016-.063a.475.475 0 0 0-.047-.14c-.043-.06-.137-.11-.282-.141a1.531 1.531 0 0 0-.421-.063 1.13 1.13 0 0 0-.407.047c-.117.031-.171.09-.171.172 0 .031.015.067.046.094.028.023.063.043.094.062a.122.122 0 0 1 .047.094c.008.031-.008.082-.047.14 0 0-.101.024-.297.063-.199.043-.414.133-.64.266-.23.125-.446.316-.641.562-.188.243-.281.567-.281.97 0 .3.062.577.187.827.121.246.29.461.5.64.215.177.473.313.766.407.289.102.61.156.953.156zm2.313-6.937l-.016-2.719c0-.144.008-.273.031-.39.02-.114.031-.22.031-.313a.44.44 0 0 0-.03-.219c-.032-.07-.102-.129-.204-.172-.094-.027-.21-.062-.344-.093-.136-.028-.273-.063-.406-.094-.148-.02-.277-.035-.39-.047A2.338 2.338 0 0 1 7-9.172c-.387-.02-.598.04-.625.172-.031.137.07.254.313.344.277.125.476.242.593.344.121.093.188.269.188.515l.062 4.375c0 .438.024.793.078 1.063.051.261.149.386.297.375.153 0 .305-.164.453-.5.145-.332.22-.813.22-1.438l-.017-.64h1.72a.999.999 0 0 0 .468-.094c.113-.07.176-.157.188-.25.019-.102-.02-.196-.11-.282-.094-.09-.242-.164-.437-.218a4.332 4.332 0 0 0-.61-.016c-.219 0-.363.035-.422.094A.662.662 0 0 1 9-5.156a6.07 6.07 0 0 1-.438.078zm-4.61.266c.145.136.305.277.485.421.175.149.351.293.53.438l.47.422c.152.125.285.23.39.312.152.137.297.227.422.266a.529.529 0 0 0 .313 0c.07-.04.113-.113.125-.219a.633.633 0 0 0-.063-.36 1.11 1.11 0 0 0-.094-.155 4.725 4.725 0 0 0-.203-.282 4.037 4.037 0 0 0-.234-.297 1.427 1.427 0 0 0-.266-.25.592.592 0 0 0-.172-.078.729.729 0 0 0-.125-.015.62.62 0 0 1-.14-.016 3.197 3.197 0 0 0-.188-.078 3.466 3.466 0 0 1-.328-.188 7.904 7.904 0 0 1-.5-.375c.195-.226.39-.468.578-.718a21.98 21.98 0 0 0 .828-1.125c.07-.114.125-.223.157-.329a.492.492 0 0 0 0-.28c-.032-.083-.114-.145-.235-.188a1.944 1.944 0 0 0-.219-.032 4.782 4.782 0 0 0-.359-.015c-.125 0-.254.012-.375.031a1.135 1.135 0 0 0-.266.047c-.156.086-.418.137-.78.156-.356.024-.747.032-1.173.032-.25 0-.48-.004-.687-.016-.211-.02-.348-.04-.407-.063-.335-.027-.535.008-.593.11-.063.105.031.23.281.375.246.136.453.238.61.297.163.062.304.101.421.109.102.012.192 0 .266-.031.07-.04.148-.078.234-.11h.047c.027-.007.067-.02.11-.03.05-.009.101-.02.156-.032a3.75 3.75 0 0 0 .187-.031c.082 0 .172-.004.266-.016.09-.008.191-.02.297-.031.101-.008.219-.02.344-.032.12-.007.253-.019.39-.03-.262.511-.57.995-.922 1.452-.355.45-.722.864-1.094 1.235-.367.375-.738.71-1.109 1a7.256 7.256 0 0 1-.984.656c-.074.043-.121.09-.14.14a.14.14 0 0 0 .046.141c.05.031.133.047.25.047.121 0 .285-.039.484-.125.34-.133.782-.379 1.313-.734.539-.352 1.094-.82 1.656-1.406zm0 0"/></symbol><symbol overflow="visible" id="I"><path d="M7.844-2.844v-.562H6.469c.02-.102.054-.274.11-.516a14.4 14.4 0 0 0 .171-.797c.04-.258.082-.52.125-.781.04-.258.07-.516.094-.766H1.094v.547h5.125c-.024.211-.055.434-.094.672L6-4.375c-.031.219-.07.418-.11.594-.042.168-.07.293-.077.375H.171v.562h3.39v1.672H1.11v.547h5.032V1.25h.656v-2.422H4.234v-1.672zm0 0"/></symbol><symbol overflow="visible" id="J"><path d="M4.5-5.703H.89v.547h2.876c-.032.343-.133.761-.297 1.25a5.26 5.26 0 0 1-.75 1.453c-.305.43-.668.805-1.094 1.125a8.47 8.47 0 0 1-1.203.766l.5.406a7.662 7.662 0 0 0 1.234-.828 6.738 6.738 0 0 0 1.172-1.282c.195-.257.363-.535.5-.828.133-.3.25-.597.344-.89.09-.309.164-.614.219-.907a5.43 5.43 0 0 0 .109-.812zm2.25-.938h-.656V1.25h.656v-3.938H8v-.578H6.75zm0 0"/></symbol><symbol overflow="visible" id="K"><path d="M4.719-4.484c0-.258-.055-.504-.157-.735a1.84 1.84 0 0 0-.421-.61 1.954 1.954 0 0 0-.657-.39 2.186 2.186 0 0 0-.828-.156c-.312 0-.601.055-.86.156a1.92 1.92 0 0 0-.64.39c-.187.18-.336.384-.437.61a2.03 2.03 0 0 0 0 1.484c.101.231.25.43.437.594.176.168.39.305.64.407.259.093.548.14.86.14.301 0 .578-.047.828-.14.258-.102.477-.239.657-.407.183-.164.328-.363.421-.593.102-.239.157-.489.157-.75zm2.484 2.343v-4.5h-.64v4.5zm0 3.313v-2.828h-5.36v2.828zM4.031-4.484c0 .367-.12.68-.36.937-.23.25-.57.375-1.015.375-.46 0-.808-.125-1.047-.375a1.316 1.316 0 0 1-.359-.937c0-.352.117-.657.36-.907.238-.257.585-.39 1.046-.39.446 0 .785.133 1.016.39.238.25.36.555.36.907zM6.563.609H2.5v-1.703h4.063zm0 0"/></symbol><symbol overflow="visible" id="L"><path d="M5.406-2.844a3.516 3.516 0 0 1-.797-.39 3.601 3.601 0 0 1-.828-.735 2.884 2.884 0 0 1-.484-.75 2.503 2.503 0 0 1-.203-1.047v-.64h-.672v.64c0 .399-.07.762-.203 1.094a3.663 3.663 0 0 1-.516.875 4.276 4.276 0 0 1-.781.719 3.237 3.237 0 0 1-.406.297 2.15 2.15 0 0 1-.36.187l.469.438c.176-.09.383-.227.625-.406a4.63 4.63 0 0 0 .688-.626 5.08 5.08 0 0 0 .5-.624 2.56 2.56 0 0 0 .328-.641c.07.2.171.387.296.562.133.18.297.364.485.547.226.25.484.465.765.64.29.18.516.294.672.345zM8-4.047v-.562H6.86v-2.032h-.657v4.797h.656v-2.203zM7.047-.14c0-.445-.23-.816-.688-1.109-.46-.3-1.148-.453-2.062-.453-.93 0-1.621.152-2.078.453-.461.293-.688.664-.688 1.11 0 .445.227.816.688 1.109.457.289 1.148.437 2.078.437.914 0 1.601-.148 2.062-.437.457-.293.688-.664.688-1.11zm-.688 0c0 .309-.191.555-.562.735-.375.183-.871.281-1.484.281-.649 0-1.16-.098-1.532-.281-.367-.18-.547-.426-.547-.735 0-.32.18-.57.547-.75.371-.183.883-.28 1.531-.28.614 0 1.11.097 1.485.28.371.188.562.442.562.75zm0 0"/></symbol><symbol overflow="visible" id="M"><path d="M7.266 1.25v-7.89h-.657v7.89zM5.578-.813c-.242-.12-.512-.312-.812-.562a4.113 4.113 0 0 1-.782-.89A3.9 3.9 0 0 1 3.406-3.5a5.556 5.556 0 0 1-.156-1.313v-1.375h-.672v1.375c0 .438-.058.887-.172 1.344-.117.45-.285.856-.5 1.219-.23.344-.504.664-.812.953a4.563 4.563 0 0 1-.89.688l.53.453c.196-.121.422-.297.672-.516.246-.226.473-.473.672-.734a5.4 5.4 0 0 0 .578-.907c.133-.277.223-.503.266-.671.05.168.144.394.281.671.133.274.32.555.563.844.226.282.468.52.718.703.246.188.461.336.641.438zm0 0"/></symbol><symbol overflow="visible" id="N"><path d="M4.125-6.078v-.516H1.641v.516zm1.172 1.125v-.516H.516v.516zM7.234-1.86v-4.782h-.656v2.282H5.156v.546h1.422v1.954zM2.906-2c.621 0 1.117-.113 1.485-.344.363-.238.546-.539.546-.906 0-.34-.183-.629-.546-.86-.356-.238-.852-.359-1.485-.359-.617 0-1.113.121-1.484.36-.367.23-.547.523-.547.875 0 .367.18.664.547.89.371.23.867.344 1.484.344zM7.22 1.172v-2.516H1.812v2.516zM1.594-3.25c0-.207.11-.379.328-.516.226-.132.555-.203.984-.203.434 0 .766.07.985.203.226.137.343.309.343.516 0 .23-.117.41-.343.531-.22.125-.551.188-.985.188-.43 0-.758-.063-.984-.188-.219-.12-.328-.3-.328-.531zM6.562.625H2.47V-.797h4.094zm0 0"/></symbol><symbol overflow="visible" id="O"><path d="M5.438-.875c-.2-.102-.418-.25-.657-.438a4.493 4.493 0 0 1-.687-.75 3.637 3.637 0 0 1-.547-1.124 4.58 4.58 0 0 1-.188-1.266v-.734h1.875v-.563H.797v.563h1.86v.734c0 .418-.083.851-.235 1.297A4.75 4.75 0 0 1 1.859-2a4.228 4.228 0 0 1-.75.844 5.927 5.927 0 0 1-.78.578l.53.469c.207-.133.43-.317.672-.547.246-.227.5-.508.75-.844.207-.27.367-.535.485-.797.12-.27.203-.473.234-.61.027.15.11.356.234.626.121.273.297.543.516.812.238.313.469.559.688.735.226.18.41.308.546.39zM7.313 1.25v-7.89h-.657v7.89zm0 0"/></symbol><symbol overflow="visible" id="P"><path d="M3.172-6.688c-.313 0-.602.043-.86.125-.25.075-.46.18-.624.313a1.243 1.243 0 0 0-.547 1c0 .2.046.387.14.563.09.167.227.32.407.453.164.125.375.23.625.312.246.074.535.11.859.11.308 0 .594-.036.844-.11.246-.082.46-.187.64-.312.176-.133.313-.286.407-.454.09-.175.14-.363.14-.562 0-.184-.05-.367-.14-.547a1.397 1.397 0 0 0-.391-.453 2.048 2.048 0 0 0-.656-.313 2.715 2.715 0 0 0-.844-.125zm4.062 6.22v-6.173h-.656v4.579H4.531v.546h2.047v1.047zm-.953-2.454v-.547c-.105.024-.27.051-.484.078-.211.024-.45.043-.719.063-.262.031-.539.058-.828.078-.293.012-.566.016-.813.016L.454-3.22v.547h2v1.485h.64v-1.5c.321 0 .641-.004.954-.016.308-.008.61-.031.89-.063.278-.02.536-.039.766-.062a7.51 7.51 0 0 0 .578-.094zm1.157 4V.516h-4.97V-.86h-.64v1.937zM3.171-6.156c.465 0 .816.101 1.047.297.226.199.343.402.343.609 0 .21-.117.414-.343.61-.219.187-.567.28-1.032.28-.48 0-.835-.093-1.062-.28-.23-.196-.344-.4-.344-.61 0-.207.114-.41.344-.61.227-.195.578-.296 1.047-.296zm0 0"/></symbol><symbol overflow="visible" id="Q"><path d="M4.625-.75a3.015 3.015 0 0 1-.547-.438A4.133 4.133 0 0 1 3.468-2a3.341 3.341 0 0 1-.484-1.156 5.777 5.777 0 0 1-.156-1.297v-.656h1.438v-.547H.703v.547h1.453v.656a5.2 5.2 0 0 1-.14 1.187c-.094.387-.23.758-.407 1.11-.199.367-.425.691-.671.969A4.99 4.99 0 0 1 .234-.5l.516.406c.184-.152.383-.351.594-.594.215-.238.406-.484.562-.734.153-.27.282-.516.375-.734a3.85 3.85 0 0 0 .219-.547c.027.148.102.348.219.594.113.25.254.492.422.718.183.262.367.489.546.672.184.18.348.317.485.406zm2.828 2v-7.89h-.64v3.171h-1.11v-3h-.625v7.36h.625v-3.75h1.11V1.25zm0 0"/></symbol><symbol overflow="visible" id="R"><path d="M5.547-2.672v-.547c-.125.024-.285.051-.469.078-.187.024-.383.043-.578.063a8.67 8.67 0 0 1-.64.047c-.212.011-.415.015-.61.015l-1.86.032v-2.532h3.204v-.546H.734v3.625c.02 0 .11.007.266.015.152 0 .348-.004.578-.015h.734c.258 0 .504-.008.735-.032.496-.008.973-.035 1.422-.078.457-.039.816-.082 1.078-.125zM6.75-6.64h-.64v5.735h.64v-2.938h1.172v-.562H6.75zm.266 7.72V.53H2.219V-1.5h-.64v2.578zm0 0"/></symbol><symbol overflow="visible" id="T"><path d="M7.313-1.844V-6.64h-.657v1.907H4.875v.562h1.781v2.328zM5.39-2.906A.903.903 0 0 1 5.109-3a4.187 4.187 0 0 1-.375-.188 4.953 4.953 0 0 1-.421-.25 1.599 1.599 0 0 1-.36-.328c-.2-.183-.363-.41-.484-.671a2.299 2.299 0 0 1-.203-.922v-.188H5v-.578H.86v.578h1.718v.188a2.714 2.714 0 0 1-.234.953c-.125.281-.274.52-.438.703-.25.262-.523.48-.812.656-.293.18-.543.317-.75.406l.453.47a4.97 4.97 0 0 0 .562-.298c.246-.144.489-.332.72-.562.206-.184.378-.375.515-.563.144-.183.254-.375.328-.562.09.199.195.37.312.515.114.149.27.317.47.5a2.1 2.1 0 0 0 .358.297c.133.086.266.16.391.219.121.063.234.117.328.156L5-2.39zM7.42-.125c0-.445-.245-.816-.734-1.11-.48-.3-1.183-.452-2.109-.452-.93 0-1.637.152-2.125.453-.492.293-.734.664-.734 1.109 0 .445.242.813.734 1.094.488.289 1.195.437 2.125.437.926 0 1.629-.148 2.11-.437.488-.281.734-.649.734-1.094zm-.702.016c0 .3-.207.539-.61.718-.398.176-.902.266-1.515.266-.637 0-1.16-.098-1.563-.281-.398-.18-.594-.418-.594-.719 0-.309.196-.555.594-.734.403-.176.926-.266 1.563-.266.613 0 1.117.098 1.515.281.403.18.61.426.61.735zm0 0"/></symbol><symbol overflow="visible" id="U"><path d="M7.844.203v-.547H4.328v-1.703h2.453V-6.14h-.656v1.422H1.891V-6.14h-.657v4.094h2.422v1.703H.172v.547zM6.125-2.594H1.891v-1.578h4.234zm0 0"/></symbol><symbol overflow="visible" id="V"><path d="M4.234-5.797v-.562H1.797v.562zm1.094 1.25v-.562H.718v.562zM6.86-6.64h-.656V1.25h.656v-3.938h1.204v-.578H6.859zM5.83-.234v-.563a6.323 6.323 0 0 1-.579.078c-.21.012-.426.028-.64.047-.231.012-.45.024-.657.031-.21.012-.394.016-.547.016v-.938c.465-.039.848-.18 1.14-.421C4.849-2.223 5-2.5 5-2.813a.89.89 0 0 0-.156-.484 1.177 1.177 0 0 0-.39-.406A2.375 2.375 0 0 0 3.827-4c-.23-.07-.492-.11-.781-.11-.293 0-.559.04-.797.11-.23.063-.43.16-.594.281-.168.117-.3.254-.39.406a.995.995 0 0 0-.125.485c0 .336.14.621.421.86.29.241.68.382 1.172.421v.938H.36v.562h2.657c.558-.02 1.086-.047 1.578-.078.488-.027.898-.066 1.234-.11zM4.343-2.813c0 .22-.121.399-.36.532-.23.136-.539.203-.921.203-.387 0-.7-.067-.938-.203-.242-.145-.36-.328-.36-.547 0-.207.114-.383.344-.531.239-.145.551-.22.938-.22.394 0 .707.075.937.22.239.148.36.332.36.546zm0 0"/></symbol><symbol overflow="visible" id="W"><path d="M5.313-2.625a8.646 8.646 0 0 1-.704-.39 2.909 2.909 0 0 1-.75-.672 2.291 2.291 0 0 1-.437-.735 2.673 2.673 0 0 1-.156-.922v-.218h1.718v-.547H.844v.546h1.734v.22c0 .343-.066.683-.187 1.015a2.54 2.54 0 0 1-.532.844 4.09 4.09 0 0 1-.78.671c-.274.18-.52.325-.735.438l.484.484a7.04 7.04 0 0 0 .563-.328c.246-.164.484-.36.703-.578.195-.195.367-.398.515-.61.145-.206.243-.398.297-.577a2.96 2.96 0 0 0 .766 1.016c.226.23.457.417.687.562.227.136.422.238.579.297zm2 1.719v-5.735h-.657v1.954H4.875v.578h1.781v3.203zM7.5 1.078V.531H2.547V-1.39h-.64v2.47zm0 0"/></symbol><symbol overflow="visible" id="X"><path d="M6.625 1.25v-2.484H1.203l.016.546h4.75V1.25zM5.422-2.297v-.547c-.137.012-.3.028-.484.047-.18.024-.372.043-.579.063-.21.023-.425.043-.64.062-.211.012-.414.016-.61.016l-1.89.031v-1.25h3.078v-2.344H.563v.563h3.093v1.234H.562v2.344c.02 0 .11.008.266.015.164 0 .367-.003.61-.015h.75c.269 0 .519-.008.75-.031.214 0 .44-.004.671-.016.239-.008.473-.031.704-.063a7.04 7.04 0 0 0 .609-.046c.195-.02.363-.04.5-.063zm2.422-.828v-.547H6.625v-1.187h1.219v-.547H6.625v-1.235h-.656v4.86h.656v-1.344zm0 0"/></symbol><symbol overflow="visible" id="Y"><path d="M7.047 1.172v-2.766h-5.36v2.766zm-.64-.563H2.327v-1.656h4.078zm.64-2.656V-6.64h-.64v4.594zm-1.281-.578v-.563a2.993 2.993 0 0 1-.438.079c-.18.011-.371.027-.578.046-.219.024-.445.04-.672.047-.219.012-.433.024-.64.032l-1.97.015V-4.03h3.235v-.532H1.47v-1.03H4.78v-.548H.813v3.72c.027 0 .144.007.343.015.207 0 .453-.004.735-.016h.89c.309-.008.594-.02.844-.031.414-.02.816-.04 1.203-.063.395-.027.707-.066.938-.109zm0 0"/></symbol><symbol overflow="visible" id="Z"><path d="M6.438-8.672v1.063h-4.25v2.796h3.984v1.063H2.188v3.016h4.328V.328H1v-9zm0 0"/></symbol><symbol overflow="visible" id="aa"><path d="M5.125-.531a1.53 1.53 0 0 1-.797.734 2.888 2.888 0 0 1-1.125.219c-.844 0-1.488-.254-1.922-.75C.844-.836.625-1.555.625-2.484v-1.22c0-.444.063-.85.188-1.218.12-.371.3-.687.53-.937.227-.246.505-.438.829-.563.32-.133.68-.203 1.078-.203.508 0 .91.09 1.203.266.29.18.504.367.64.562v-3.312h1.173V.328H5.14v-.86zm-.016-3.594c0-.164-.043-.336-.125-.516a1.535 1.535 0 0 0-.359-.468 2.03 2.03 0 0 0-.563-.329 2.003 2.003 0 0 0-.703-.125c-.5 0-.894.18-1.171.532-.274.355-.407.863-.407 1.515v.829c0 .656.14 1.164.422 1.515.277.356.664.531 1.156.531.246 0 .477-.035.688-.109.207-.082.39-.195.547-.344.152-.152.281-.336.375-.547.09-.207.14-.445.14-.718zm0 0"/></symbol><symbol overflow="visible" id="ab"><path d="M.844-6.5h1.172v4.234c0 .586.113 1.008.343 1.266.227.25.586.375 1.079.375.195 0 .394-.035.593-.11.196-.07.375-.175.532-.312.152-.133.28-.305.375-.516.09-.207.14-.44.14-.703V-6.5h1.188V.328H5.125v-.86h-.016c-.199.313-.46.552-.78.72-.325.175-.724.265-1.188.265-.325 0-.63-.055-.907-.156a1.969 1.969 0 0 1-.718-.438 2.19 2.19 0 0 1-.5-.765c-.118-.301-.172-.66-.172-1.078zm0 0"/></symbol><symbol overflow="visible" id="ac"><path d="M3.469-6.625c.539 0 .988.074 1.344.219.351.136.664.316.937.531l-.563.906a3.097 3.097 0 0 0-.843-.468 2.922 2.922 0 0 0-.875-.125c-.219 0-.434.042-.64.125a1.38 1.38 0 0 0-.532.359 1.75 1.75 0 0 0-.36.61c-.093.25-.14.55-.14.89v.875c0 .367.047.68.14.937.09.262.22.477.375.641.153.156.333.277.532.36.207.074.422.109.64.109.434 0 .797-.055 1.079-.172.289-.121.554-.274.796-.453l.563.922c-.242.199-.559.375-.953.53-.387.165-.887.25-1.5.25-.918 0-1.63-.273-2.125-.812C.852-.94.609-1.71.609-2.703v-.86c0-.488.067-.921.204-1.296.132-.383.32-.707.562-.97.246-.257.55-.456.906-.593a3.35 3.35 0 0 1 1.188-.203zm0 0"/></symbol><symbol overflow="visible" id="ad"><path d="M2.781.422c-.668 0-1.199-.168-1.594-.5C.801-.418.61-.895.61-1.5v-.328c0-.582.188-1.055.563-1.422.383-.371 1-.563 1.844-.563h1.687v-.39c0-.457-.113-.797-.328-1.016-.21-.226-.559-.343-1.047-.343-.387 0-.726.066-1.015.187a5.978 5.978 0 0 0-.891.5l-.578-.89c.32-.239.687-.442 1.094-.61.402-.164.875-.25 1.406-.25.37 0 .71.05 1.015.14.301.094.563.239.782.423.226.187.406.417.53.687.122.273.188.582.188.922V.328H4.734V-.5H4.72a1.164 1.164 0 0 1-.266.344 1.841 1.841 0 0 1-.344.265c-.18.102-.37.18-.578.235-.21.05-.46.078-.75.078zm1.922-3.203H3.047c-.469 0-.805.097-1 .281-.2.18-.297.43-.297.75v.172c0 .336.113.582.344.734.226.149.5.219.812.219.29 0 .54-.035.75-.11.215-.07.414-.175.594-.312a.994.994 0 0 0 .344-.422c.07-.164.11-.379.11-.64zm0 0"/></symbol><symbol overflow="visible" id="ae"><path d="M1.36-5.469H.265V-6.5h1.093v-1.734h1.172V-6.5h1.75v1.031h-1.75v3.89c0 .212.02.38.063.5.039.126.097.227.172.298.07.062.16.113.265.14.114.024.227.032.344.032.29 0 .582-.055.875-.172l.188.984a4.19 4.19 0 0 1-.563.14 2.98 2.98 0 0 1-.672.079c-.637 0-1.105-.164-1.406-.484-.293-.32-.438-.829-.438-1.516zm0 0"/></symbol><symbol overflow="visible" id="af"><path d="M2.156-6.5V.328H.984V-6.5zm.031-2.453v1.328H.938v-1.328zm0 0"/></symbol><symbol overflow="visible" id="ag"><path d="M3.563-6.625c.902 0 1.624.273 2.156.813.527.542.797 1.308.797 2.296v.829c0 .992-.27 1.757-.797 2.296-.532.54-1.254.813-2.157.813-.917 0-1.644-.274-2.171-.813C.867-.93.609-1.695.609-2.687v-.829c0-.996.258-1.765.782-2.296.527-.54 1.254-.813 2.171-.813zm0 5.984c.519 0 .94-.175 1.265-.53.332-.352.5-.891.5-1.61v-.64c0-.716-.168-1.255-.5-1.61-.324-.352-.746-.532-1.266-.532-.53 0-.96.18-1.28.532-.325.355-.485.894-.485 1.61v.64c0 .719.16 1.258.484 1.61.32.355.75.53 1.281.53zm0 0"/></symbol><symbol overflow="visible" id="ah"><path d="M6.406.328H5.234v-4.25c0-.57-.12-.988-.359-1.25-.23-.258-.59-.39-1.078-.39-.211 0-.414.039-.61.109a1.636 1.636 0 0 0-.922.828c-.093.21-.14.45-.14.719V.328H.937V-6.5h1.141v.86h.016c.195-.32.46-.567.797-.735.332-.164.726-.25 1.187-.25.32 0 .625.055.906.156.278.094.524.242.735.438.215.199.383.457.5.765.12.305.187.664.187 1.079zm0 0"/></symbol><symbol overflow="visible" id="aO"><path d="M1-8.672h3.11c.495 0 .93.067 1.296.188.364.125.66.304.89.53.24.231.415.509.532.829.121.313.188.652.188 1.016v.265c0 .367-.067.711-.188 1.032a2.337 2.337 0 0 1-.562.843 2.637 2.637 0 0 1-.907.578c-.355.137-.773.204-1.25.204H2.188V.328H1zm1.188 1.063v3.359h1.718c1.258 0 1.89-.54 1.89-1.625v-.219c0-.508-.151-.89-.452-1.14-.305-.246-.739-.375-1.297-.375zm0 0"/></symbol><symbol overflow="visible" id="aP"><path d="M3-.625c.434 0 .773-.078 1.016-.234a.738.738 0 0 0 .375-.657v-.093a.941.941 0 0 0-.063-.36.602.602 0 0 0-.234-.265 2.26 2.26 0 0 0-.469-.204 11.98 11.98 0 0 0-.75-.203 5.824 5.824 0 0 1-.969-.265 3.106 3.106 0 0 1-.718-.39 1.5 1.5 0 0 1-.454-.563 1.914 1.914 0 0 1-.14-.766v-.156c0-.227.047-.457.14-.688.102-.226.254-.426.454-.593.195-.165.453-.301.765-.407.309-.101.68-.156 1.11-.156.445 0 .867.055 1.265.156.395.106.754.278 1.078.516l-.515.906a2.57 2.57 0 0 0-.782-.39 3.051 3.051 0 0 0-.968-.157c-.493 0-.848.082-1.063.235a.709.709 0 0 0-.312.593v.11c0 .273.109.472.328.593.215.125.586.243 1.11.344a6.41 6.41 0 0 1 1.046.281c.3.106.547.243.734.407.196.156.344.351.438.578.09.219.14.492.14.812v.157c0 .261-.058.511-.171.75a1.9 1.9 0 0 1-.5.609 2.572 2.572 0 0 1-.797.39 3.385 3.385 0 0 1-1.047.157A4.763 4.763 0 0 1 1.53.188C1.082.039.7-.156.391-.406l.546-.938c.29.211.602.383.938.516.34.137.719.203 1.125.203zm0 0"/></symbol><symbol overflow="visible" id="ai"><path d="M7.89-4.406H5.548v.422H7.89v5.453h.5v-9.235h-.5zM6.564-.875c-.125-.07-.348-.21-.657-.422a4.374 4.374 0 0 1-.937-.875c-.336-.371-.621-.832-.86-1.375-.242-.55-.359-1.203-.359-1.953v-1.688h-.516V-5.5c0 .742-.113 1.387-.328 1.938-.21.554-.465 1.023-.765 1.406a4.727 4.727 0 0 1-.938.953 8.007 8.007 0 0 1-.812.547l.406.36c.101-.06.285-.192.547-.392a5.99 5.99 0 0 0 .812-.765c.29-.32.563-.692.813-1.11.246-.425.422-.894.515-1.406.133.512.332.973.594 1.375.27.406.547.758.828 1.047.29.293.555.527.797.703.246.18.414.293.5.344zm0 0"/></symbol><symbol overflow="visible" id="aj"><path d="M9.156-3.219v-.422H.203v.422H4.47v1.156h-3v.422h5.906v1.032H1.469v1.968H8.14V.938H1.984V-.188h5.907v-1.875H4.969V-3.22zm-1.14-2.937c0-.207-.082-.41-.235-.61a1.935 1.935 0 0 0-.64-.515 4.122 4.122 0 0 0-1.047-.375 6.793 6.793 0 0 0-1.422-.14c-1.055 0-1.871.163-2.453.484-.586.324-.875.71-.875 1.156 0 .46.289.851.875 1.172.582.312 1.398.468 2.453.468 1.058 0 1.883-.156 2.469-.468.582-.32.875-.711.875-1.172zm-.532 0a.691.691 0 0 1-.218.5 1.802 1.802 0 0 1-.594.375c-.25.117-.55.207-.89.265a7.097 7.097 0 0 1-1.11.079c-.406 0-.785-.024-1.125-.079a3.397 3.397 0 0 1-.875-.265c-.262-.102-.461-.227-.594-.375a.698.698 0 0 1 0-.984c.133-.153.332-.286.594-.391a4.43 4.43 0 0 1 .875-.25 6.648 6.648 0 0 1 2.234 0c.34.062.64.148.89.25.247.105.446.238.595.39.144.149.218.309.218.485zm0 0"/></symbol><symbol overflow="visible" id="ak"><path d="M5.89-6.516H.97v.407h4.343c-.011.28-.035.601-.062.953-.031.343-.07.695-.11 1.047l-.156 1.03c-.043.325-.082.599-.109.813h.5c.09-.582.18-1.21.266-1.89.09-.676.175-1.461.25-2.36zm1.532-1.25V1.47h.516v-4.703h1.468v-.422H7.937v-4.11zm-.453 7.11v-.406c-.262.042-.567.082-.907.109-.343.031-.695.058-1.046.078-.368.023-.715.04-1.047.047-.324.012-.614.015-.86.015v-3.093h-.515v3.094H.406v.421h1c.739 0 1.383-.004 1.938-.015a36.817 36.817 0 0 0 2.61-.125c.339-.028.679-.07 1.015-.125zm0 0"/></symbol><symbol overflow="visible" id="al"><path d="M3.484-4.813c.57 0 1.008.114 1.313.329.308.218.469.476.469.765 0 .305-.16.559-.47.766-.304.2-.741.297-1.312.297-.562 0-1.004-.098-1.312-.297-.305-.207-.453-.461-.453-.766 0-.289.148-.547.453-.765.308-.215.75-.329 1.312-.329zm0-.39c-.718 0-1.285.148-1.687.437-.406.282-.61.633-.61 1.047 0 .43.196.785.594 1.063.403.281.973.422 1.703.422.715 0 1.282-.141 1.688-.422.414-.278.625-.633.625-1.063 0-.414-.211-.765-.625-1.047-.406-.289-.973-.437-1.688-.437zM.704-6.25v.422H6.28v-.422zm1.109 5.016v.421H7.5V1.47H8v-2.703zM7.984-4.61h1.422v-.407H7.984v-2.75H7.47v5.907h.515zM1.97-7.594v.407h2.937v-.407zm0 0"/></symbol><symbol overflow="visible" id="am"><path d="M7.828-7.766V1.47h.516v-9.235zM.766-.546l.421.327A7.934 7.934 0 0 0 2.75-1.28 7.361 7.361 0 0 0 4.047-2.72a7.56 7.56 0 0 0 .89-1.765 8.619 8.619 0 0 0 .47-2.125H1.327v.421h3.5a6.497 6.497 0 0 1-.39 1.657c-.2.543-.473 1.07-.813 1.578a7.478 7.478 0 0 1-1.234 1.36A6.81 6.81 0 0 1 .766-.548zm0 0"/></symbol><symbol overflow="visible" id="an"><path d="M4.938-2.094v-1.219h4.218v-.421H.203v.421h4.219v1.22H1.469v.421h5.906v1.047H1.469v1.984H8.14V.938H1.984V-.204h5.907v-1.89zm-.266-4.578c.121.293.32.57.594.828.27.25.57.48.906.688.34.199.691.37 1.047.515.351.149.68.243.984.282l.328-.36a6.355 6.355 0 0 1-1.125-.328 5.506 5.506 0 0 1-1.172-.594 3.603 3.603 0 0 1-.921-.796c-.243-.301-.36-.625-.36-.97v-.25h-.562v.25c0 .337-.118.65-.344.938a3.287 3.287 0 0 1-.844.75c-.344.23-.73.434-1.156.61-.43.168-.848.304-1.25.406l.328.36c.27-.071.586-.177.953-.313a7.799 7.799 0 0 0 1.078-.516c.352-.207.664-.437.938-.687a2.01 2.01 0 0 0 .578-.813zm0 0"/></symbol><symbol overflow="visible" id="ao"><path d="M5.703-7.531v8.578h.5v-4.563h1.625V1.47h.5v-9.235h-.5v3.829H6.203v-3.594zM5.172-.938v-.421a3.41 3.41 0 0 1-.61.093c-.25.024-.511.043-.78.063-.294.023-.583.039-.86.047H1.625v-4.922h2.656V-6.5H1.125v5.766h1.031c.258 0 .535-.004.828-.016.29-.008.57-.023.844-.047.27-.008.52-.023.75-.047.238-.027.438-.062.594-.094zm0 0"/></symbol><symbol overflow="visible" id="ap"><path d="M6.766-1.594h.5c.09-.476.175-.91.25-1.297.07-.394.129-.785.171-1.171.051-.383.098-.774.141-1.172.04-.395.078-.836.11-1.329H1.405v.422h5.985a30.978 30.978 0 0 1-.22 2.172c-.093.762-.23 1.555-.405 2.375zm2.39 1.64v-.405H5.47V-3.75h-.516v3.39H3.156v-3.39h-.5v3.39H.203v.407zm0 0"/></symbol><symbol overflow="visible" id="ar"><path d="M2.797-1.453H7.89v2.39H2.797zm5.61 2.812v-3.218H2.28v3.218zM4.608-5.469c-.086.024-.175.04-.265.047a5.5 5.5 0 0 1-.266.031c-.105.012-.21.024-.312.032-.106 0-.215.007-.329.015-.167.012-.355.024-.562.032H1.109v.421H2.797c.226-.007.437-.02.625-.03.152-.009.312-.02.469-.032.152-.02.304-.04.453-.063-.242.375-.535.7-.875.97a7.98 7.98 0 0 1-1.031.671 9.43 9.43 0 0 1-1 .438c-.313.117-.555.199-.72.25l.329.374c.101-.027.242-.078.422-.14.176-.059.375-.14.593-.235.215-.101.446-.222.688-.359A6.086 6.086 0 0 0 4.203-4.14c.227-.238.438-.5.625-.78.184-.29.344-.61.469-.954.133-.34.226-.727.281-1.156H1.406v.422H4.97a3.649 3.649 0 0 1-.094.5c-.055.199-.145.414-.266.64zm3.282.328H5.75v.438h2.14v2.297h.5v-5.36h-.5zm0 0"/></symbol><symbol overflow="visible" id="as"><path d="M6.11-1.922v3.39h.515v-3.39h2.531v-.422H.203v.422h2.578V1.36h.5v-3.28zM6.952-6.5h-.516l-.156 2.516H3.094L2.906-6.5h-.5l.188 2.516H1.125v.421h7.11v-.421H6.78zm-5.625-.313h6.703v-.421H1.328zm0 0"/></symbol><symbol overflow="visible" id="at"><path d="M7.688-3.75v5.219h.5v-9.235h-.5v3.594H5.843v.422zM6.516-.812v-.422c-.305.062-.653.117-1.047.156-.399.031-.824.055-1.282.062-.242.012-.48.024-.718.032H2.156C1.97-.992 1.805-1 1.672-1v-2.578h3.531V-4H1.672v-2.297h3.734v-.406H1.172v6.125c.121 0 .289.008.5.015.215 0 .469-.003.75-.015h.86c.3-.008.593-.024.874-.047.489-.02.926-.04 1.313-.063.383-.027.734-.07 1.047-.125zm0 0"/></symbol><symbol overflow="visible" id="au"><path d="M4.672-1.453c.414 0 .797.035 1.14.094.352.062.66.152.922.265.258.117.461.258.61.422a.808.808 0 0 1 .218.563c0 .207-.074.39-.218.546a1.973 1.973 0 0 1-.61.438c-.261.102-.57.188-.921.25a7.035 7.035 0 0 1-2.297 0 4.401 4.401 0 0 1-.907-.25 1.939 1.939 0 0 1-.593-.438.767.767 0 0 1-.22-.546.79.79 0 0 1 .22-.563c.144-.164.343-.305.593-.422.246-.113.551-.203.907-.265a7.035 7.035 0 0 1 1.156-.094zm0-.453c-1.074 0-1.914.176-2.516.515-.594.336-.89.762-.89 1.282s.296.945.89 1.28c.602.333 1.442.5 2.516.5 1.082 0 1.922-.167 2.516-.5.601-.335.906-.76.906-1.28s-.305-.946-.906-1.282c-.594-.34-1.434-.515-2.516-.515zm-.297-1.407v-2.14h-.516v2.14H.203v.422h8.953v-.421zm2.64-.703h.516c.082-.37.172-.836.266-1.39a31.1 31.1 0 0 0 .281-1.89h-6.75v.421H7.5c-.043.46-.117.95-.219 1.469-.093.511-.183.976-.265 1.39zm0 0"/></symbol><symbol overflow="visible" id="av"><path d="M2.078-1.578v.422H7.86v2.625h.5v-3.047zm5.813-4.016H5.703v.422h2.188v3.016h.5v-5.61h-.5zm-4.172-.984v-.89h-.516v.89c0 .5-.117.96-.344 1.375-.218.418-.48.789-.78 1.11a5.871 5.871 0 0 1-.923.78c-.312.2-.558.333-.734.391l.406.344A4.773 4.773 0 0 0 2-3.36c.27-.239.54-.524.813-.86.269-.34.484-.742.64-1.203.176.418.395.785.656 1.094.27.305.54.566.813.781.258.23.5.41.719.531.226.118.382.192.468.22l.313-.392c-.094-.027-.293-.128-.594-.296a5.368 5.368 0 0 1-.922-.688 4.636 4.636 0 0 1-.828-1.031 2.618 2.618 0 0 1-.36-1.375zm0 0"/></symbol><symbol overflow="visible" id="aw"><path d="M6.422-.875a5.725 5.725 0 0 1-.656-.406 5.587 5.587 0 0 1-1.797-2.25c-.242-.551-.36-1.207-.36-1.969v-1.688h-.5V-5.5c0 .75-.113 1.402-.328 1.953-.21.555-.465 1.02-.765 1.39a4.833 4.833 0 0 1-.938.954 6.872 6.872 0 0 1-.828.547l.406.36c.102-.052.285-.177.547-.376.258-.195.535-.457.828-.781.29-.309.563-.68.813-1.11a4.38 4.38 0 0 0 .515-1.39c.121.5.32.957.594 1.36.27.405.547.757.828 1.046.278.305.54.543.782.719.246.18.421.289.515.328zm2.937-2.688v-.421H7.938v-3.782h-.516V1.47h.516v-5.032zm0 0"/></symbol><symbol overflow="visible" id="ax"><path d="M9.156-3.453v-.422H7.47c.02-.04.054-.21.11-.516.058-.3.124-.64.187-1.015.07-.364.14-.723.203-1.078.058-.352.101-.614.125-.782H1.328v.422h6.156c-.03.274-.074.567-.125.875-.054.305-.105.598-.156.875-.055.282-.105.535-.156.75-.043.219-.074.38-.094.469H.203v.422h4.11v2.187h-2.97v.422h6.032V1.47h.516v-2.735H4.828v-2.187zm0 0"/></symbol><symbol overflow="visible" id="ay"><path d="M7.797-3.25h1.547v-.438H7.797v-4.078H7.28V1.47h.516zM.563-.547l.421.328A7.934 7.934 0 0 0 2.547-1.28 7.361 7.361 0 0 0 3.844-2.72a7.56 7.56 0 0 0 .89-1.765 8.619 8.619 0 0 0 .47-2.125H1.124v.421h3.5a6.497 6.497 0 0 1-.39 1.657c-.2.543-.473 1.07-.813 1.578a7.478 7.478 0 0 1-1.235 1.36A6.81 6.81 0 0 1 .563-.548zm0 0"/></symbol><symbol overflow="visible" id="az"><path d="M8.36 1.36v-3.188H2.233v3.187zM2.75-1.423h5.11v2.36H2.75zm5.078-6.344v5.313h.516v-5.313zm-2.422 2.5c0-.3-.058-.582-.172-.843-.117-.27-.277-.5-.484-.688a2.441 2.441 0 0 0-1.703-.64 2.68 2.68 0 0 0-.985.171 2.41 2.41 0 0 0-.734.47 1.829 1.829 0 0 0-.5.687 2.235 2.235 0 0 0-.156.843c0 .313.05.602.156.86.113.261.281.488.5.672.207.199.453.355.734.468.29.106.618.157.985.157.351 0 .672-.051.953-.157.29-.113.54-.27.75-.468a1.95 1.95 0 0 0 .484-.672c.114-.258.172-.547.172-.86zm-.547 0c0 .47-.16.871-.468 1.204-.305.324-.754.484-1.344.484-.606 0-1.059-.16-1.36-.485a1.715 1.715 0 0 1-.453-1.203c0-.457.149-.847.454-1.171.3-.333.753-.5 1.359-.5.59 0 1.039.167 1.344.5.308.324.468.714.468 1.171zm0 0"/></symbol><symbol overflow="visible" id="aA"><path d="M5.047-1.484c.383 0 .738.039 1.062.109.32.063.602.16.844.281.238.117.426.262.563.438a.889.889 0 0 1 .203.562c0 .207-.07.395-.203.563a1.828 1.828 0 0 1-.563.437 3.632 3.632 0 0 1-.844.266 6.273 6.273 0 0 1-2.156 0A3.516 3.516 0 0 1 3.11.906 1.739 1.739 0 0 1 2.547.47a.867.867 0 0 1-.203-.563c0-.207.066-.394.203-.562.133-.176.32-.32.562-.438.239-.12.52-.218.844-.281.332-.07.695-.11 1.094-.11zm-.016-.407c-1.043 0-1.84.176-2.39.516-.555.336-.829.758-.829 1.266 0 .527.274.957.829 1.28.55.333 1.347.5 2.39.5 1.04 0 1.836-.167 2.39-.5.56-.323.845-.753.845-1.28 0-.508-.286-.93-.844-1.266-.555-.34-1.352-.516-2.39-.516zm2.86-2.921h1.406v-.422H7.89v-2.532h-.516v5.672h.516zM3.53-6.516v-.921h-.515v.921c0 .5-.114.965-.329 1.391-.21.418-.46.79-.75 1.11a4.738 4.738 0 0 1-.921.827 4.57 4.57 0 0 1-.797.47l.39.327a3.68 3.68 0 0 0 .438-.25c.226-.144.484-.336.766-.578.269-.238.539-.535.812-.89.27-.352.488-.766.656-1.235.164.407.375.77.625 1.078a6.14 6.14 0 0 0 2.14 1.641l.329-.39a4.827 4.827 0 0 1-.813-.422 5.19 5.19 0 0 1-.937-.735 4.21 4.21 0 0 1-.781-1.016 2.766 2.766 0 0 1-.313-1.328zm0 0"/></symbol><symbol overflow="visible" id="aB"><path d="M7.938-7.766V1.47h.5v-9.235zM6.546-.875a5.725 5.725 0 0 1-.656-.406 5.587 5.587 0 0 1-1.797-2.25c-.242-.551-.36-1.207-.36-1.969v-1.688H3.22V-5.5c0 .75-.114 1.402-.328 1.953-.211.555-.461 1.02-.75 1.39a4.833 4.833 0 0 1-.938.954 6.872 6.872 0 0 1-.828.547l.406.36c.102-.052.285-.177.547-.376a5.51 5.51 0 0 0 .813-.781c.289-.309.562-.68.812-1.11.258-.425.438-.89.531-1.39.121.5.317.957.579 1.36.269.405.55.757.843 1.046.278.305.54.543.782.719.246.18.414.289.5.328zm0 0"/></symbol><symbol overflow="visible" id="aC"><path d="M2.797-1.078H7.89V.938H2.797zM8.39 1.359V-1.5H2.28v2.86zM6.078-5.078v.406h1.813v2.547h.5v-5.64h-.5v2.687zm-2.594.156c.57 0 1.008.106 1.313.313.308.199.469.445.469.734 0 .305-.16.55-.47.734-.304.188-.741.282-1.312.282-.562 0-1.004-.094-1.312-.282-.305-.183-.453-.43-.453-.734 0-.29.148-.535.453-.734.308-.207.75-.313 1.312-.313zm0-.39c-.718 0-1.285.144-1.687.421-.406.274-.61.618-.61 1.032 0 .418.196.761.594 1.03.403.274.973.407 1.703.407.715 0 1.282-.133 1.688-.406.414-.27.625-.613.625-1.031 0-.414-.211-.758-.625-1.032-.406-.277-.973-.421-1.688-.421zM.704-6.391v.422H6.28v-.422zm1.265-1.203v.407h2.937v-.407zm0 0"/></symbol><symbol overflow="visible" id="aD"><path d="M7.938-7.766V1.47h.5v-9.235zM3.28-6.234v1.015c0 .606-.101 1.164-.297 1.672a6.145 6.145 0 0 1-.703 1.375 5.503 5.503 0 0 1-.906 1.031 4.457 4.457 0 0 1-.86.594l.376.36A6.755 6.755 0 0 0 2.25-1.391c.277-.308.54-.671.781-1.078a4.7 4.7 0 0 0 .516-1.344c.09.493.254.934.484 1.329.239.398.489.742.75 1.03.258.282.504.513.735.688.226.18.379.29.453.329L6.28-.86c-.117-.051-.308-.18-.578-.391a4.602 4.602 0 0 1-.828-.844c-.293-.363-.55-.8-.766-1.312-.21-.52-.312-1.125-.312-1.813v-1.015h2.36v-.422H1v.422zm0 0"/></symbol><symbol overflow="visible" id="aE"><path d="M6.11-6.094c0-.215-.06-.426-.173-.625a1.78 1.78 0 0 0-.484-.547 2.696 2.696 0 0 0-.75-.375 3.248 3.248 0 0 0-.953-.14c-.355 0-.68.05-.969.14a2.65 2.65 0 0 0-.734.375c-.211.157-.371.34-.485.547-.117.2-.171.41-.171.625 0 .23.054.45.171.657.114.199.274.37.485.515.207.156.453.285.734.375.29.094.614.14.969.14.34 0 .66-.046.953-.14.29-.09.54-.219.75-.375a1.64 1.64 0 0 0 .484-.516 1.35 1.35 0 0 0 .172-.656zM8.343-.422v-7.344h-.5v5.485H5.156v.422h2.688v1.437zm-.906-3.047v-.422c-.125.024-.348.055-.657.094-.312.031-.66.059-1.031.078a19.21 19.21 0 0 1-1.172.094c-.387.023-.715.031-.984.031H.516v.422h2.437v1.875h.516v-1.89c.976-.008 1.797-.04 2.453-.094.652-.059 1.16-.125 1.516-.188zm1.156 4.735V.844H2.75V-.937h-.5v2.203zm-3-7.36c0 .313-.16.602-.469.86-.313.25-.773.375-1.375.375-.594 0-1.055-.125-1.375-.375-.313-.258-.469-.547-.469-.86 0-.308.157-.593.469-.843.32-.247.781-.375 1.375-.375.602 0 1.063.128 1.375.375.309.25.469.535.469.843zm0 0"/></symbol><symbol overflow="visible" id="aF"><path d="M8.14-3.938H6.61v-3.609h-.5v8.594h.5v-4.563h1.53V1.47h.5v-9.235h-.5zM2.704-6.14v1.188c0 .637-.098 1.21-.281 1.719-.188.5-.414.941-.672 1.312-.25.375-.508.684-.766.922-.261.242-.464.418-.609.531l.422.313c.101-.082.25-.211.437-.39.196-.184.399-.415.61-.688.215-.278.426-.602.625-.97.207-.37.375-.796.5-1.265.09.43.242.82.453 1.172.207.356.422.664.64.922a6.6 6.6 0 0 0 .625.64c.196.169.333.274.407.313l.343-.36a4.472 4.472 0 0 1-.5-.359 4.556 4.556 0 0 1-.75-.812A5.139 5.139 0 0 1 3.5-3.22c-.188-.496-.281-1.078-.281-1.734v-1.188H5.03v-.406H.875v.406zm0 0"/></symbol><symbol overflow="visible" id="aG"><path d="M1.938-1.672v2.938H8.14V.844H2.437v-2.516zm5.39-6.094v6.72h.5v-3.766H9.25v-.422H7.828v-2.532zm-.594 4.547v-.422a4.28 4.28 0 0 1-.718.11c-.313.031-.668.066-1.063.094-.398.03-.808.058-1.234.078-.43.011-.832.015-1.203.015h-1.11v-3.25h3.969v-.422H.906v4.094h1.578c.332 0 .711-.008 1.141-.031.426-.02.844-.047 1.25-.078.414-.028.79-.063 1.125-.094a6.78 6.78 0 0 0 .734-.094zm0 0"/></symbol><symbol overflow="visible" id="aH"><path d="M7.938-5.438H5.796v.422h2.14v2.922h.5v-5.672h-.5zM5.374-1.453c.383 0 .738.035 1.063.094.332.062.617.152.859.265.238.125.426.274.562.438a.889.889 0 0 1 .204.562c0 .207-.07.395-.204.563a1.687 1.687 0 0 1-.562.422 3.286 3.286 0 0 1-.86.25 6.273 6.273 0 0 1-2.156 0 3.199 3.199 0 0 1-.86-.25A1.611 1.611 0 0 1 2.86.469a.867.867 0 0 1-.203-.563c0-.207.067-.394.203-.562.133-.164.32-.313.563-.438.238-.113.523-.203.86-.265a6.273 6.273 0 0 1 1.093-.094zm-.016-.438c-1.043 0-1.847.176-2.406.516-.562.336-.844.758-.844 1.266 0 .527.282.957.844 1.28.559.333 1.363.5 2.406.5 1.04 0 1.844-.167 2.407-.5.558-.323.843-.753.843-1.28 0-.508-.285-.93-.843-1.266-.563-.34-1.368-.516-2.407-.516zM3.688-6.67h2.171v-.423H1.047v.422h2.14v.36c0 .585-.12 1.09-.359 1.515-.242.418-.52.77-.828 1.047a4.809 4.809 0 0 1-.906.64c-.293.15-.496.247-.61.297l.36.36c.07-.027.222-.11.453-.235.226-.12.484-.296.766-.515.269-.215.535-.477.796-.781.258-.309.454-.664.579-1.063.12.399.316.742.578 1.031.27.293.539.536.812.72.258.187.5.331.719.421.215.094.36.152.422.172l.312-.39a7.201 7.201 0 0 1-.531-.188 3.646 3.646 0 0 1-.875-.547 3.542 3.542 0 0 1-.828-.969c-.242-.402-.36-.91-.36-1.516zm0 0"/></symbol><symbol overflow="visible" id="aI"><path d="M2-2.844v-2.094h5.36v2.094zm2.906.422H7.86v-4.703h-.5v1.766H2v-1.766h-.5v4.703h2.89v2.125H.204v.422h8.953v-.422h-4.25zm0 0"/></symbol><symbol overflow="visible" id="aJ"><path d="M5.047-6.906v-.438H2.203v.438zm1.281 1.468v-.406H.953v.407zm3.047 2.11v-.422H7.937v-4.016h-.515V1.47h.516v-4.797zM7-.484v-.422a9.64 9.64 0 0 1-1.11.125c-.367.023-.8.043-1.296.062h-.688v-1.14c.59-.028 1.078-.18 1.453-.454.371-.269.563-.597.563-.984a.943.943 0 0 0-.172-.531 1.905 1.905 0 0 0-.453-.469 2.668 2.668 0 0 0-.734-.312 3.137 3.137 0 0 0-.907-.125c-.68 0-1.215.144-1.61.421-.398.274-.593.614-.593 1.016 0 .387.172.715.516.985.34.273.816.425 1.422.453v1.156H.516v.422l4.078-.016c.246-.008.476-.02.687-.031.215-.008.426-.024.625-.047.184-.008.367-.023.547-.047.176-.02.36-.039.547-.062zM5.406-3.297c0 .293-.16.54-.468.735-.313.187-.739.28-1.266.28-.524 0-.95-.093-1.281-.28-.325-.196-.485-.442-.485-.735 0-.289.16-.535.485-.734.32-.207.742-.313 1.265-.313.52 0 .942.106 1.266.313.32.21.484.457.484.734zm0 0"/></symbol><symbol overflow="visible" id="aK"><path d="M2.344-1.578v2.844h6.36V.844h-5.86v-2.422zm5.594-3.766H5.796v.422h2.14v3.875h.5v-6.719h-.5zM3.702-6.672h2.172v-.422H1.062v.422h2.125v.469c0 .43-.082.832-.234 1.203-.156.367-.363.71-.61 1.031-.25.305-.538.574-.859.813a5.47 5.47 0 0 1-.984.562l.36.36c.058-.028.206-.114.437-.25.238-.133.5-.32.781-.563.27-.226.535-.5.797-.812.258-.32.453-.688.578-1.094.121.398.313.746.563 1.047.246.304.507.558.78.765.247.211.477.371.688.485.215.117.36.183.422.203l.313-.39a4.904 4.904 0 0 1-.766-.423 4.063 4.063 0 0 1-.828-.703 3.525 3.525 0 0 1-.656-.969 2.879 2.879 0 0 1-.266-1.265zm0 0"/></symbol><symbol overflow="visible" id="aL"><path d="M1.531-1.328v.422h5.594v2.375h.5v-2.797zm5.594-6.438v5.72h.5v-1.75h1.516v-.423H7.625v-1.578h1.516v-.422H7.625v-1.547zM6.5-2.812v-.407c-.168.031-.371.07-.61.11-.23.03-.519.058-.859.078a25.23 25.23 0 0 1-1.234.078c-.469.012-1.035.015-1.688.015h-.906v-1.78H4.97v-2.516H.703v.421H4.47v1.672H.703v2.625h1.563c1.214 0 2.156-.03 2.812-.093.664-.07 1.14-.141 1.422-.204zm0 0"/></symbol><symbol overflow="visible" id="aM"><path d="M2.64-1.328h5.094V.938H2.641zm5.61 2.687V-1.75H2.14v3.11zm-.516-9.125v5.454h.5v-5.454zm-.718 4.47v-.423a8.352 8.352 0 0 1-.938.156c-.355.032-.789.06-1.297.079a8.383 8.383 0 0 1-.797.03h-.843c-.293.013-.575.017-.844.017-.274-.008-.512-.016-.719-.016v-1.469h4v-.422h-4v-1.36h4.11v-.421H1.063v4.094c.246 0 .523.008.828.015.3 0 .617-.004.953-.015h.984c.332-.008.64-.024.922-.047.527-.02.973-.047 1.328-.078.352-.04.664-.086.938-.14zm0 0"/></symbol><symbol overflow="visible" id="aN"><path d="M5.094-1.453c.383 0 .738.035 1.062.094.332.062.617.152.86.265.238.125.425.274.562.438a.843.843 0 0 1 .219.562.843.843 0 0 1-.219.563 1.687 1.687 0 0 1-.562.422 3.286 3.286 0 0 1-.86.25A6.273 6.273 0 0 1 4 1.14a3.426 3.426 0 0 1-.86-.25 1.611 1.611 0 0 1-.562-.422.867.867 0 0 1-.203-.563c0-.207.066-.394.203-.562.133-.164.32-.313.563-.438.246-.113.535-.203.859-.265a6.273 6.273 0 0 1 1.094-.094zm0-.438c-1.055 0-1.864.176-2.422.516-.555.336-.828.758-.828 1.266 0 .527.273.957.828 1.28.558.333 1.367.5 2.422.5 1.039 0 1.836-.167 2.39-.5.559-.323.844-.753.844-1.28 0-.508-.285-.93-.844-1.266-.554-.34-1.351-.516-2.39-.516zm2.922-3.062h1.406v-.453H8.016v-2.36H7.5v5.672h.516zM3.609-6.656h2.172v-.422H.97v.422h2.14v.265c0 .48-.09.903-.265 1.266-.18.355-.367.648-.563.875a4.256 4.256 0 0 1-.984.86c-.367.23-.664.398-.89.5l.359.359.28-.14c.122-.071.266-.165.423-.282.144-.09.297-.195.453-.313.164-.12.316-.257.453-.406.238-.246.441-.492.61-.734.175-.239.3-.485.374-.735.082.25.192.48.329.688.144.21.335.441.578.687.132.149.285.278.453.391a4.156 4.156 0 0 0 .89.484c.121.043.22.082.282.11l.312-.39a2.585 2.585 0 0 1-.312-.11 4.996 4.996 0 0 1-.438-.203 5.557 5.557 0 0 1-.5-.297 2.825 2.825 0 0 1-.453-.406 3.514 3.514 0 0 1-.64-.938c-.169-.363-.25-.785-.25-1.266zm0 0"/></symbol></defs><g fill="#4f4c4d"><use xlink:href="#a" x="336.961" y="47.727"/><use xlink:href="#b" x="344.962" y="47.727"/><use xlink:href="#c" x="352.962" y="47.727"/><use xlink:href="#d" x="360.962" y="47.727"/><use xlink:href="#e" x="368.962" y="47.727"/><use xlink:href="#f" x="371.569" y="47.727"/><use xlink:href="#g" x="379.57" y="47.727"/><use xlink:href="#h" x="387.57" y="47.727"/><use xlink:href="#i" x="395.57" y="47.727"/><use xlink:href="#j" x="403.57" y="47.727"/><use xlink:href="#k" x="411.571" y="47.727"/><use xlink:href="#a" x="419.571" y="47.727"/><use xlink:href="#b" x="427.571" y="47.727"/></g><use xlink:href="#l" x="435.571" y="47.727" fill="#231f20"/><g fill="#231f20"><use xlink:href="#m" x="438.177" y="47.727"/><use xlink:href="#n" x="446.178" y="47.727"/><use xlink:href="#o" x="454.178" y="47.727"/><use xlink:href="#p" x="462.178" y="47.727"/><use xlink:href="#q" x="470.178" y="47.727"/><use xlink:href="#r" x="478.179" y="47.727"/><use xlink:href="#s" x="486.179" y="47.727"/><use xlink:href="#t" x="494.179" y="47.727"/><use xlink:href="#u" x="496.786" y="47.727"/></g><g fill="#231f20"><use xlink:href="#v" x="501.703" y="47.727"/><use xlink:href="#w" x="506.503" y="47.727"/><use xlink:href="#x" x="508.436" y="47.727"/><use xlink:href="#t" x="511.043" y="47.727"/><use xlink:href="#y" x="513.65" y="47.727"/><use xlink:href="#z" x="517.605" y="47.727"/></g><g fill="#393536"><use xlink:href="#A" x="535.245" y="48.426"/><use xlink:href="#B" x="540.818" y="48.426"/><use xlink:href="#A" x="546.392" y="48.426"/></g><g fill="#33459a"><use xlink:href="#C" x="234.99" y="250.25"/><use xlink:href="#D" x="248.505" y="250.25"/><use xlink:href="#E" x="253.446" y="250.25"/><use xlink:href="#D" x="266.961" y="250.25"/><use xlink:href="#F" x="271.902" y="250.25"/><use xlink:href="#D" x="285.417" y="250.25"/></g><g fill="#33459a"><use xlink:href="#G" x="290.357" y="249.351"/><use xlink:href="#H" x="301.169" y="249.351"/></g><g fill="#231f20"><use xlink:href="#I" x="234.99" y="270.763"/><use xlink:href="#J" x="242.837" y="270.763"/><use xlink:href="#K" x="250.685" y="270.763"/><use xlink:href="#L" x="258.532" y="270.763"/><use xlink:href="#M" x="266.38" y="270.763"/><use xlink:href="#N" x="274.227" y="270.763"/><use xlink:href="#O" x="282.075" y="270.763"/><use xlink:href="#P" x="289.922" y="270.763"/><use xlink:href="#Q" x="297.769" y="270.763"/><use xlink:href="#R" x="305.617" y="270.763"/><use xlink:href="#S" x="313.464" y="270.763"/><use xlink:href="#T" x="316.342" y="270.763"/><use xlink:href="#U" x="324.189" y="270.763"/><use xlink:href="#V" x="332.037" y="270.763"/><use xlink:href="#W" x="339.884" y="270.763"/><use xlink:href="#X" x="347.732" y="270.763"/><use xlink:href="#Y" x="355.579" y="270.763"/></g><g fill="#fff"><use xlink:href="#Z" x="147.364" y="327.353"/><use xlink:href="#aa" x="154.364" y="327.353"/><use xlink:href="#ab" x="161.339" y="327.353"/><use xlink:href="#ac" x="168.303" y="327.353"/><use xlink:href="#ad" x="174.225" y="327.353"/><use xlink:href="#ae" x="180.667" y="327.353"/><use xlink:href="#af" x="185.136" y="327.353"/><use xlink:href="#ag" x="188.03" y="327.353"/><use xlink:href="#ah" x="194.909" y="327.353"/></g><path d="M104.754 363.305h424.68" fill="none" stroke-width=".299637" stroke="#33459a" stroke-miterlimit="10"/><g fill="#231f20"><use xlink:href="#ai" x="106.17" y="355.545"/><use xlink:href="#aj" x="115.325" y="355.545"/><use xlink:href="#ak" x="124.481" y="355.545"/><use xlink:href="#al" x="133.636" y="355.545"/><use xlink:href="#am" x="142.792" y="355.545"/><use xlink:href="#an" x="151.947" y="355.545"/><use xlink:href="#ao" x="161.102" y="355.545"/><use xlink:href="#al" x="170.258" y="355.545"/><use xlink:href="#ap" x="179.413" y="355.545"/><use xlink:href="#aq" x="188.568" y="355.545"/><use xlink:href="#ar" x="191.925" y="355.545"/><use xlink:href="#as" x="201.081" y="355.545"/><use xlink:href="#at" x="210.236" y="355.545"/><use xlink:href="#au" x="219.391" y="355.545"/><use xlink:href="#al" x="228.547" y="355.545"/><use xlink:href="#ak" x="237.702" y="355.545"/><use xlink:href="#aq" x="246.858" y="355.545"/><use xlink:href="#av" x="250.214" y="355.545"/><use xlink:href="#aw" x="259.37" y="355.545"/></g><path d="M104.754 459.82h424.68" fill="none" stroke-width=".299637" stroke="#33459a" stroke-miterlimit="10"/><g fill="#231f20"><use xlink:href="#ax" x="106.17" y="452.06"/><use xlink:href="#ay" x="115.325" y="452.06"/><use xlink:href="#az" x="124.481" y="452.06"/><use xlink:href="#aA" x="133.636" y="452.06"/><use xlink:href="#aB" x="142.792" y="452.06"/><use xlink:href="#aC" x="151.947" y="452.06"/><use xlink:href="#aD" x="161.102" y="452.06"/><use xlink:href="#aE" x="170.258" y="452.06"/><use xlink:href="#aF" x="179.413" y="452.06"/><use xlink:href="#aG" x="188.568" y="452.06"/><use xlink:href="#aq" x="197.724" y="452.06"/><use xlink:href="#aH" x="201.081" y="452.06"/><use xlink:href="#aI" x="210.236" y="452.06"/><use xlink:href="#aJ" x="219.391" y="452.06"/><use xlink:href="#aK" x="228.547" y="452.06"/><use xlink:href="#aL" x="237.702" y="452.06"/><use xlink:href="#aM" x="246.858" y="452.06"/><use xlink:href="#aN" x="256.013" y="452.06"/></g><g fill="#fff"><use xlink:href="#aO" x="147.364" y="423.727"/><use xlink:href="#ag" x="154.594" y="423.727"/><use xlink:href="#aP" x="161.473" y="423.727"/><use xlink:href="#af" x="167.261" y="423.727"/><use xlink:href="#ae" x="170.156" y="423.727"/><use xlink:href="#af" x="174.624" y="423.727"/><use xlink:href="#ag" x="177.519" y="423.727"/><use xlink:href="#ah" x="184.397" y="423.727"/></g></svg>