<?xml version="1.0" encoding="utf-8"?>
<!-- Generator: Adobe Illustrator 16.0.0, SVG Export Plug-In . SVG Version: 6.00 Build 0)  -->
<!DOCTYPE svg PUBLIC "-//W3C//DTD SVG 1.1//EN" "http://www.w3.org/Graphics/SVG/1.1/DTD/svg11.dtd">
<svg version="1.1" id="Layer_1" xmlns="http://www.w3.org/2000/svg" xmlns:xlink="http://www.w3.org/1999/xlink" x="0px" y="0px"
	 width="841.89px" height="595.281px" viewBox="0 0 841.89 595.281" enable-background="new 0 0 841.89 595.281"
	 xml:space="preserve">
<path fill="#fff" fill-opacity="0.8" d="M823.566,96.33c-9.656-36.276-30.828-66.98-67.104-76.637
	C690.72,2.112,420.945,0.502,420.945,0.502s-269.776,1.61-335.518,19.19C49.151,29.35,28.104,60.054,18.323,96.33
	C0.743,162.071,0,297.64,0,297.64s0.743,135.568,18.323,201.311c9.657,36.275,30.828,66.98,67.104,76.637
	c65.742,17.58,335.518,19.189,335.518,19.189s269.775-1.609,335.518-19.189c36.275-9.656,57.447-40.361,67.104-76.637
	c17.58-65.742,18.324-201.311,18.324-201.311S841.146,162.071,823.566,96.33z"/>
<path d="M557.132,297.64L334.28,173.833v247.614"/>
</svg>
